  0
SECTION
  2
HEADER
  9
$ACADVER
  1
AC1015
  9
$ACADMAINTVER
 70
    13
  9
$DWGCODEPAGE
  3
ANSI_1252
  9
$INSBASE
 10
0.0
 20
0.0
 30
0.0
  9
$EXTMIN
 10
-125.2386466288456
 20
-1.549895550531687
 30
-0.0015258207003583
  9
$EXTMAX
 10
125.9820562996693
 20
195.1328435904961
 30
0.0000000349246037
  9
$LIMMIN
 10
0.0
 20
0.0
  9
$LIMMAX
 10
420.0
 20
297.0
  9
$ORTHOMODE
 70
     0
  9
$REGENMODE
 70
     1
  9
$FILLMODE
 70
     1
  9
$QTEXTMODE
 70
     0
  9
$MIRRTEXT
 70
     1
  9
$LTSCALE
 40
1.0
  9
$ATTMODE
 70
     1
  9
$TEXTSIZE
 40
2.5
  9
$TRACEWID
 40
1.0
  9
$TEXTSTYLE
  7
Standard
  9
$CLAYER
  8
ceco.net 402
  9
$CELTYPE
  6
ByLayer
  9
$CECOLOR
 62
   256
  9
$CELTSCALE
 40
1.0
  9
$DISPSILH
 70
     0
  9
$DIMSCALE
 40
1.0
  9
$DIMASZ
 40
2.5
  9
$DIMEXO
 40
0.625
  9
$DIMDLI
 40
3.75
  9
$DIMRND
 40
0.0
  9
$DIMDLE
 40
0.0
  9
$DIMEXE
 40
1.25
  9
$DIMTP
 40
0.0
  9
$DIMTM
 40
0.0
  9
$DIMTXT
 40
2.5
  9
$DIMCEN
 40
2.5
  9
$DIMTSZ
 40
0.0
  9
$DIMTOL
 70
     0
  9
$DIMLIM
 70
     0
  9
$DIMTIH
 70
     0
  9
$DIMTOH
 70
     0
  9
$DIMSE1
 70
     0
  9
$DIMSE2
 70
     0
  9
$DIMTAD
 70
     1
  9
$DIMZIN
 70
     8
  9
$DIMBLK
  1

  9
$DIMASO
 70
     1
  9
$DIMSHO
 70
     1
  9
$DIMPOST
  1

  9
$DIMAPOST
  1

  9
$DIMALT
 70
     0
  9
$DIMALTD
 70
     3
  9
$DIMALTF
 40
0.03937007874016
  9
$DIMLFAC
 40
1.0
  9
$DIMTOFL
 70
     1
  9
$DIMTVP
 40
0.0
  9
$DIMTIX
 70
     0
  9
$DIMSOXD
 70
     0
  9
$DIMSAH
 70
     0
  9
$DIMBLK1
  1

  9
$DIMBLK2
  1

  9
$DIMSTYLE
  2
ISO-25
  9
$DIMCLRD
 70
     0
  9
$DIMCLRE
 70
     0
  9
$DIMCLRT
 70
     0
  9
$DIMTFAC
 40
1.0
  9
$DIMGAP
 40
0.625
  9
$DIMJUST
 70
     0
  9
$DIMSD1
 70
     0
  9
$DIMSD2
 70
     0
  9
$DIMTOLJ
 70
     0
  9
$DIMTZIN
 70
     8
  9
$DIMALTZ
 70
     0
  9
$DIMALTTZ
 70
     0
  9
$DIMUPT
 70
     0
  9
$DIMDEC
 70
     2
  9
$DIMTDEC
 70
     2
  9
$DIMALTU
 70
     2
  9
$DIMALTTD
 70
     3
  9
$DIMTXSTY
  7
Standard
  9
$DIMAUNIT
 70
     0
  9
$DIMADEC
 70
     0
  9
$DIMALTRND
 40
0.0
  9
$DIMAZIN
 70
     0
  9
$DIMDSEP
 70
    44
  9
$DIMATFIT
 70
     3
  9
$DIMFRAC
 70
     0
  9
$DIMLDRBLK
  1

  9
$DIMLUNIT
 70
     2
  9
$DIMLWD
 70
    -2
  9
$DIMLWE
 70
    -2
  9
$DIMTMOVE
 70
     0
  9
$LUNITS
 70
     2
  9
$LUPREC
 70
     4
  9
$SKETCHINC
 40
1.0
  9
$FILLETRAD
 40
10.0
  9
$AUNITS
 70
     0
  9
$AUPREC
 70
     0
  9
$MENU
  1
.
  9
$ELEVATION
 40
0.0
  9
$PELEVATION
 40
0.0
  9
$THICKNESS
 40
0.0
  9
$LIMCHECK
 70
     0
  9
$CHAMFERA
 40
10.0
  9
$CHAMFERB
 40
10.0
  9
$CHAMFERC
 40
20.0
  9
$CHAMFERD
 40
0.0
  9
$SKPOLY
 70
     0
  9
$TDCREATE
 40
2457858.695660799
  9
$TDUCREATE
 40
2457858.820660799
  9
$TDUPDATE
 40
2458290.904936215
  9
$TDUUPDATE
 40
2458291.029936215
  9
$TDINDWG
 40
0.0020359028
  9
$TDUSRTIMER
 40
0.0020358912
  9
$USRTIMER
 70
     1
  9
$ANGBASE
 50
0.0
  9
$ANGDIR
 70
     0
  9
$PDMODE
 70
     0
  9
$PDSIZE
 40
0.0
  9
$PLINEWID
 40
0.0
  9
$SPLFRAME
 70
     0
  9
$SPLINETYPE
 70
     6
  9
$SPLINESEGS
 70
     8
  9
$HANDSEED
  5
CB
  9
$SURFTAB1
 70
     6
  9
$SURFTAB2
 70
     6
  9
$SURFTYPE
 70
     6
  9
$SURFU
 70
     6
  9
$SURFV
 70
     6
  9
$UCSBASE
  2

  9
$UCSNAME
  2

  9
$UCSORG
 10
0.0
 20
0.0
 30
0.0
  9
$UCSXDIR
 10
1.0
 20
0.0
 30
0.0
  9
$UCSYDIR
 10
0.0
 20
1.0
 30
0.0
  9
$UCSORTHOREF
  2

  9
$UCSORTHOVIEW
 70
     0
  9
$UCSORGTOP
 10
0.0
 20
0.0
 30
0.0
  9
$UCSORGBOTTOM
 10
0.0
 20
0.0
 30
0.0
  9
$UCSORGLEFT
 10
0.0
 20
0.0
 30
0.0
  9
$UCSORGRIGHT
 10
0.0
 20
0.0
 30
0.0
  9
$UCSORGFRONT
 10
0.0
 20
0.0
 30
0.0
  9
$UCSORGBACK
 10
0.0
 20
0.0
 30
0.0
  9
$PUCSBASE
  2

  9
$PUCSNAME
  2

  9
$PUCSORG
 10
0.0
 20
0.0
 30
0.0
  9
$PUCSXDIR
 10
1.0
 20
0.0
 30
0.0
  9
$PUCSYDIR
 10
0.0
 20
1.0
 30
0.0
  9
$PUCSORTHOREF
  2

  9
$PUCSORTHOVIEW
 70
     0
  9
$PUCSORGTOP
 10
0.0
 20
0.0
 30
0.0
  9
$PUCSORGBOTTOM
 10
0.0
 20
0.0
 30
0.0
  9
$PUCSORGLEFT
 10
0.0
 20
0.0
 30
0.0
  9
$PUCSORGRIGHT
 10
0.0
 20
0.0
 30
0.0
  9
$PUCSORGFRONT
 10
0.0
 20
0.0
 30
0.0
  9
$PUCSORGBACK
 10
0.0
 20
0.0
 30
0.0
  9
$USERI1
 70
     0
  9
$USERI2
 70
     0
  9
$USERI3
 70
     0
  9
$USERI4
 70
     0
  9
$USERI5
 70
     0
  9
$USERR1
 40
0.0
  9
$USERR2
 40
0.0
  9
$USERR3
 40
0.0
  9
$USERR4
 40
0.0
  9
$USERR5
 40
0.0
  9
$WORLDVIEW
 70
     1
  9
$SHADEDGE
 70
     3
  9
$SHADEDIF
 70
    70
  9
$TILEMODE
 70
     1
  9
$MAXACTVP
 70
    64
  9
$PINSBASE
 10
0.0
 20
0.0
 30
0.0
  9
$PLIMCHECK
 70
     0
  9
$PEXTMIN
 10
0.0
 20
0.0
 30
0.0
  9
$PEXTMAX
 10
0.0
 20
0.0
 30
0.0
  9
$PLIMMIN
 10
0.0
 20
0.0
  9
$PLIMMAX
 10
12.0
 20
9.0
  9
$UNITMODE
 70
     0
  9
$VISRETAIN
 70
     1
  9
$PLINEGEN
 70
     0
  9
$PSLTSCALE
 70
     1
  9
$TREEDEPTH
 70
  3020
  9
$CMLSTYLE
  2
Standard
  9
$CMLJUST
 70
     0
  9
$CMLSCALE
 40
20.0
  9
$PROXYGRAPHICS
 70
     1
  9
$MEASUREMENT
 70
     1
  9
$CELWEIGHT
370
    -1
  9
$ENDCAPS
280
     0
  9
$JOINSTYLE
280
     0
  9
$LWDISPLAY
290
     0
  9
$INSUNITS
 70
     4
  9
$HYPERLINKBASE
  1

  9
$STYLESHEET
  1

  9
$XEDIT
290
     1
  9
$CEPSNTYPE
380
     0
  9
$PSTYLEMODE
290
     1
  9
$FINGERPRINTGUID
  2
{FDEAD578-A652-11D2-9A35-0060089B3A3F}
  9
$VERSIONGUID
  2
{E5AEFA4D-8FE2-4A48-B2DB-0315B38CA0F9}
  9
$EXTNAMES
290
     1
  9
$PSVPSCALE
 40
0.0
  9
$OLESTARTUP
290
     0
  0
ENDSEC
  0
SECTION
  2
CLASSES
  0
CLASS
  1
ACDBDICTIONARYWDFLT
  2
AcDbDictionaryWithDefault
  3
AutoCAD 2000
 90
        0
280
     0
281
     0
  0
CLASS
  1
ACDBPLACEHOLDER
  2
AcDbPlaceHolder
  3
AutoCAD 2000
 90
        0
280
     0
281
     0
  0
CLASS
  1
LAYOUT
  2
AcDbLayout
  3
AutoCAD 2000
 90
        0
280
     0
281
     0
  0
CLASS
  1
DICTIONARYVAR
  2
AcDbDictionaryVar
  3
AutoCAD 2000
 90
        0
280
     0
281
     0
  0
CLASS
  1
IMAGEDEF
  2
AcDbRasterImageDef
  3
ISM
 90
        0
280
     0
281
     0
  0
ENDSEC
  0
SECTION
  2
TABLES
  0
TABLE
  2
VPORT
  5
8
330
0
100
AcDbSymbolTable
 70
     3
  0
VPORT
  5
CA
330
8
100
AcDbSymbolTableRecord
100
AcDbViewportTableRecord
  2
*Active
 70
     0
 10
0.0
 20
0.0
 11
1.0
 21
1.0
 12
0.3717048354118191
 22
96.79147401998221
 13
0.0
 23
0.0
 14
10.0
 24
10.0
 15
10.0
 25
10.0
 16
0.0
 26
0.0
 36
1.0
 17
0.0
 27
0.0
 37
0.0
 40
198.080957665727
 41
2.187425860023724
 42
50.0
 43
0.0
 44
0.0
 50
0.0
 51
0.0
 71
     0
 72
   100
 73
     1
 74
     3
 75
     0
 76
     0
 77
     0
 78
     0
281
     0
 65
     1
110
0.0
120
0.0
130
0.0
111
1.0
121
0.0
131
0.0
112
0.0
122
1.0
132
0.0
 79
     0
146
0.0
  0
ENDTAB
  0
TABLE
  2
LTYPE
  5
5
330
0
100
AcDbSymbolTable
 70
     1
  0
LTYPE
  5
14
330
5
100
AcDbSymbolTableRecord
100
AcDbLinetypeTableRecord
  2
ByBlock
 70
     0
  3

 72
    65
 73
     0
 40
0.0
  0
LTYPE
  5
15
330
5
100
AcDbSymbolTableRecord
100
AcDbLinetypeTableRecord
  2
ByLayer
 70
     0
  3

 72
    65
 73
     0
 40
0.0
  0
LTYPE
  5
16
330
5
100
AcDbSymbolTableRecord
100
AcDbLinetypeTableRecord
  2
Continuous
 70
     0
  3
Solid line
 72
    65
 73
     0
 40
0.0
  0
ENDTAB
  0
TABLE
  2
LAYER
  5
2
102
{ACAD_XDICTIONARY
360
7F
102
}
330
0
100
AcDbSymbolTable
 70
     2
  0
LAYER
  5
10
330
2
100
AcDbSymbolTableRecord
100
AcDbLayerTableRecord
  2
0
 70
     0
 62
     7
  6
Continuous
370
    -3
390
F
  0
LAYER
  5
76
102
{ACAD_XDICTIONARY
360
77
102
}
330
2
100
AcDbSymbolTableRecord
100
AcDbLayerTableRecord
  2
ceco.net 402
 70
     0
 62
     7
  6
Continuous
370
    -3
390
F
1001
AcAecLayerStandard
1000

1000

  0
ENDTAB
  0
TABLE
  2
STYLE
  5
3
330
0
100
AcDbSymbolTable
 70
     1
  0
STYLE
  5
11
330
3
100
AcDbSymbolTableRecord
100
AcDbTextStyleTableRecord
  2
Standard
 70
     0
 40
0.0
 41
1.0
 50
0.0
 71
     0
 42
2.5
  3
txt
  4

  0
ENDTAB
  0
TABLE
  2
VIEW
  5
6
330
0
100
AcDbSymbolTable
 70
     0
  0
ENDTAB
  0
TABLE
  2
UCS
  5
7
330
0
100
AcDbSymbolTable
 70
     0
  0
ENDTAB
  0
TABLE
  2
APPID
  5
9
330
0
100
AcDbSymbolTable
 70
     7
  0
APPID
  5
12
330
9
100
AcDbSymbolTableRecord
100
AcDbRegAppTableRecord
  2
ACAD
 70
     0
  0
APPID
  5
79
330
9
100
AcDbSymbolTableRecord
100
AcDbRegAppTableRecord
  2
ACAD_NAV_VCDISPLAY
 70
     0
  0
APPID
  5
7A
330
9
100
AcDbSymbolTableRecord
100
AcDbRegAppTableRecord
  2
ACAD_PSEXT
 70
     0
  0
APPID
  5
7B
330
9
100
AcDbSymbolTableRecord
100
AcDbRegAppTableRecord
  2
DCO15
 70
     0
  0
APPID
  5
7C
330
9
100
AcDbSymbolTableRecord
100
AcDbRegAppTableRecord
  2
ACAD_MLEADERVER
 70
     0
  0
APPID
  5
7D
330
9
100
AcDbSymbolTableRecord
100
AcDbRegAppTableRecord
  2
ACAD_EXEMPT_FROM_CAD_STANDARDS
 70
     0
  0
APPID
  5
7E
330
9
100
AcDbSymbolTableRecord
100
AcDbRegAppTableRecord
  2
AcAecLayerStandard
 70
     0
  0
ENDTAB
  0
TABLE
  2
DIMSTYLE
  5
A
330
0
100
AcDbSymbolTable
 70
     1
100
AcDbDimStyleTable
 71
     0
  0
DIMSTYLE
105
27
330
A
100
AcDbSymbolTableRecord
100
AcDbDimStyleTableRecord
  2
ISO-25
 70
     0
 41
2.5
 42
0.625
 43
3.75
 44
1.25
 73
     0
 74
     0
 77
     1
 78
     8
140
2.5
141
2.5
143
0.03937007874016
147
0.625
171
     3
172
     1
271
     2
272
     2
274
     3
278
    44
283
     0
284
     8
340
11
  0
ENDTAB
  0
TABLE
  2
BLOCK_RECORD
  5
1
330
0
100
AcDbSymbolTable
 70
     1
  0
BLOCK_RECORD
  5
1F
330
1
100
AcDbSymbolTableRecord
100
AcDbBlockTableRecord
  2
*Model_Space
340
22
  0
BLOCK_RECORD
  5
50
330
1
100
AcDbSymbolTableRecord
100
AcDbBlockTableRecord
  2
*Paper_Space
340
51
  0
BLOCK_RECORD
  5
55
330
1
100
AcDbSymbolTableRecord
100
AcDbBlockTableRecord
  2
*Paper_Space0
340
56
  0
ENDTAB
  0
ENDSEC
  0
SECTION
  2
BLOCKS
  0
BLOCK
  5
20
330
1F
100
AcDbEntity
  8
0
100
AcDbBlockBegin
  2
*Model_Space
 70
     0
 10
0.0
 20
0.0
 30
0.0
  3
*Model_Space
  1

  0
ENDBLK
  5
21
330
1F
100
AcDbEntity
  8
0
100
AcDbBlockEnd
  0
BLOCK
  5
52
330
50
100
AcDbEntity
 67
     1
  8
0
100
AcDbBlockBegin
  2
*Paper_Space
 70
     0
 10
0.0
 20
0.0
 30
0.0
  3
*Paper_Space
  1

  0
ENDBLK
  5
53
330
50
100
AcDbEntity
 67
     1
  8
0
100
AcDbBlockEnd
  0
BLOCK
  5
57
330
55
100
AcDbEntity
  8
0
100
AcDbBlockBegin
  2
*Paper_Space0
 70
     0
 10
0.0
 20
0.0
 30
0.0
  3
*Paper_Space0
  1

  0
ENDBLK
  5
58
330
55
100
AcDbEntity
  8
0
100
AcDbBlockEnd
  0
ENDSEC
  0
SECTION
  2
ENTITIES
  0
LWPOLYLINE
  5
81
330
1F
100
AcDbEntity
  8
ceco.net 402
100
AcDbPolyline
 90
        4
 70
     1
 43
0.0
 10
-100.9246414681284
 20
173.7979995767877
 10
-96.01346105165896
 20
173.7979995767877
 10
-96.01346105165896
 20
122.537819278361
 10
-100.9246414681284
 20
122.537819278361
  0
LWPOLYLINE
  5
82
330
1F
100
AcDbEntity
  8
ceco.net 402
100
AcDbPolyline
 90
        4
 70
     1
 43
0.0
 10
-100.9246414681284
 20
151.712496940091
 10
-125.2381547353687
 20
151.712496940091
 10
-125.2381547353687
 20
145.1686451105038
 10
-100.9246414681284
 20
145.1686451105038
  0
LWPOLYLINE
  5
83
330
1F
100
AcDbEntity
  8
ceco.net 402
100
AcDbPolyline
 90
        4
 70
     1
 43
0.0
 10
-96.01346105165896
 20
153.7959971749703
 10
-90.84203459837882
 20
153.7959971749703
 10
-90.84203459837882
 20
142.7830459591906
 10
-96.01346105165896
 20
142.7830459591906
  0
LWPOLYLINE
  5
84
330
1F
100
AcDbEntity
  8
ceco.net 402
100
AcDbPolyline
 90
        4
 70
     1
 43
0.0
 10
-90.84203459837882
 20
150.0875555009124
 10
91.58086134778365
 20
150.0875555009124
 10
91.58086134778365
 20
147.1011067345234
 10
-90.84203459837882
 20
147.1011067345234
  0
LWPOLYLINE
  5
85
330
1F
100
AcDbEntity
  8
ceco.net 402
100
AcDbPolyline
 90
        4
 70
     1
 43
0.0
 10
96.7522878010638
 20
153.7959971749703
 10
91.58086134778365
 20
153.7959971749703
 10
91.58086134778365
 20
142.7830459591906
 10
96.7522878010638
 20
142.7830459591906
  0
LWPOLYLINE
  5
86
330
1F
100
AcDbEntity
  8
ceco.net 402
100
AcDbPolyline
 90
        4
 70
     1
 43
0.0
 10
101.6634682175333
 20
173.7979995767877
 10
96.7522878010638
 20
173.7979995767877
 10
96.7522878010638
 20
122.537819278361
 10
101.6634682175333
 20
122.537819278361
  0
LWPOLYLINE
  5
87
330
1F
100
AcDbEntity
  8
ceco.net 402
100
AcDbPolyline
 90
        4
 70
     1
 43
0.0
 10
-85.99012603176001
 20
147.1011067345234
 10
-76.65035283108415
 20
147.1011067345234
 10
-76.65035283108415
 20
142.0936457461084
 10
-85.99012603176001
 20
142.0936457461084
  0
LWPOLYLINE
  5
88
330
1F
100
AcDbEntity
  8
ceco.net 402
100
AcDbPolyline
 90
        4
 70
     1
 43
0.0
 10
-84.80203614831488
 20
142.0936457461084
 10
-77.72637205772594
 20
142.0936457461084
 10
-77.72637205772594
 20
109.568942398246
 10
-84.80203614831488
 20
109.568942398246
  0
LWPOLYLINE
  5
89
330
1F
100
AcDbEntity
  8
ceco.net 402
100
AcDbPolyline
 90
        4
 70
     1
 43
0.0
 10
-86.13443456450269
 20
160.9711700531271
 10
-76.39642278629375
 20
160.9711700531271
 10
-76.39642278629375
 20
150.0875555009124
 10
-86.13443456450269
 20
150.0875555009124
  0
LWPOLYLINE
  5
8A
330
1F
100
AcDbEntity
  8
ceco.net 402
100
AcDbPolyline
 90
        4
 70
     1
 43
0.0
 10
-85.370284422359
 20
195.1188551654232
 10
-77.26504147387771
 20
195.1188551654232
 10
-77.26504147387771
 20
160.9711700531271
 10
-85.370284422359
 20
160.9711700531271
  0
LINE
  5
8B
330
1F
100
AcDbEntity
  8
ceco.net 402
100
AcDbLine
 10
-86.13443456450269
 20
152.1569517600479
 30
0.0
 11
-76.39642278629375
 21
152.1569517600479
 31
0.0
  0
LINE
  5
8C
330
1F
100
AcDbEntity
  8
ceco.net 402
100
AcDbLine
 10
-85.370284422359
 20
166.9425007453246
 30
0.0
 11
-77.26504147387771
 21
166.9425007453246
 31
0.0
  0
LINE
  5
8D
330
1F
100
AcDbEntity
  8
ceco.net 402
100
AcDbLine
 10
-85.370284422359
 20
176.4173231321505
 30
0.0
 11
-77.26504147387771
 21
176.4173231321505
 31
0.0
  0
LINE
  5
8E
330
1F
100
AcDbEntity
  8
ceco.net 402
100
AcDbLine
 10
-85.370284422359
 20
182.3050134636661
 30
0.0
 11
-77.26504147387771
 21
182.3050134636661
 31
0.0
  0
LINE
  5
8F
330
1F
100
AcDbEntity
  8
ceco.net 402
100
AcDbLine
 10
-85.370284422359
 20
187.458347310075
 30
0.0
 11
-77.26504147387771
 21
187.458347310075
 31
0.0
  0
LINE
  5
90
330
1F
100
AcDbEntity
  8
ceco.net 402
100
AcDbLine
 10
-85.370284422359
 20
190.3381496750201
 30
0.0
 11
-77.26504147387771
 21
190.3381496750201
 31
0.0
  0
LINE
  5
91
330
1F
100
AcDbEntity
  8
ceco.net 402
100
AcDbLine
 10
-85.370284422359
 20
192.6874632090257
 30
0.0
 11
-77.26504147387771
 21
192.6874632090257
 31
0.0
  0
LWPOLYLINE
  5
92
330
1F
100
AcDbEntity
  8
ceco.net 402
100
AcDbPolyline
 90
        4
 70
     1
 43
0.0
 10
86.72895278116483
 20
147.1011067345234
 10
77.38917958048897
 20
147.1011067345234
 10
77.38917958048897
 20
142.0936457461084
 10
86.72895278116483
 20
142.0936457461084
  0
LWPOLYLINE
  5
93
330
1F
100
AcDbEntity
  8
ceco.net 402
100
AcDbPolyline
 90
        4
 70
     1
 43
0.0
 10
85.54086289771971
 20
142.0936457461084
 10
78.46519880713076
 20
142.0936457461084
 10
78.46519880713076
 20
109.568942398246
 10
85.54086289771971
 20
109.568942398246
  0
LINE
  5
94
330
1F
100
AcDbEntity
  8
ceco.net 402
100
AcDbLine
 10
86.87326131390753
 20
152.1569517600479
 30
0.0
 11
77.13524953569859
 21
152.1569517600479
 31
0.0
  0
LWPOLYLINE
  5
95
330
1F
100
AcDbEntity
  8
ceco.net 402
100
AcDbPolyline
 90
        4
 70
     1
 43
0.0
 10
86.87326131390753
 20
160.9711700531271
 10
77.13524953569859
 20
160.9711700531271
 10
77.13524953569859
 20
150.0875555009124
 10
86.87326131390753
 20
150.0875555009124
  0
LWPOLYLINE
  5
96
330
1F
100
AcDbEntity
  8
ceco.net 402
100
AcDbPolyline
 90
        4
 70
     1
 43
0.0
 10
86.10911117176383
 20
195.1188551654232
 10
78.00386822328253
 20
195.1188551654232
 10
78.00386822328253
 20
160.9711700531271
 10
86.10911117176383
 20
160.9711700531271
  0
LINE
  5
97
330
1F
100
AcDbEntity
  8
ceco.net 402
100
AcDbLine
 10
86.10911117176383
 20
166.9425007453246
 30
0.0
 11
78.00386822328253
 21
166.9425007453246
 31
0.0
  0
LINE
  5
98
330
1F
100
AcDbEntity
  8
ceco.net 402
100
AcDbLine
 10
86.10911117176383
 20
187.458347310075
 30
0.0
 11
78.00386822328253
 21
187.458347310075
 31
0.0
  0
LINE
  5
99
330
1F
100
AcDbEntity
  8
ceco.net 402
100
AcDbLine
 10
86.10911117176383
 20
182.3050134636661
 30
0.0
 11
78.00386822328253
 21
182.3050134636661
 31
0.0
  0
LINE
  5
9A
330
1F
100
AcDbEntity
  8
ceco.net 402
100
AcDbLine
 10
86.10911117176383
 20
176.4173231321505
 30
0.0
 11
78.00386822328253
 21
176.4173231321505
 31
0.0
  0
LINE
  5
9B
330
1F
100
AcDbEntity
  8
ceco.net 402
100
AcDbLine
 10
86.10911117176383
 20
192.6874632090257
 30
0.0
 11
78.00386822328253
 21
192.6874632090257
 31
0.0
  0
LINE
  5
9C
330
1F
100
AcDbEntity
  8
ceco.net 402
100
AcDbLine
 10
86.10911117176383
 20
190.3381496750201
 30
0.0
 11
78.00386822328253
 21
190.3381496750201
 31
0.0
  0
LINE
  5
9D
330
1F
100
AcDbEntity
  8
ceco.net 402
100
AcDbLine
 10
78.00386822328253
 20
187.458347310075
 30
0.0
 11
-77.26504147387771
 21
187.458347310075
 31
0.0
  0
LINE
  5
9E
330
1F
100
AcDbEntity
  8
ceco.net 402
100
AcDbLine
 10
-77.26504147387771
 20
184.8708089631478
 30
0.0
 11
78.00386822328253
 21
184.8708089631478
 31
0.0
  0
LWPOLYLINE
  5
9F
330
1F
100
AcDbEntity
  8
ceco.net 402
100
AcDbPolyline
 90
        6
 70
     0
 43
0.0
 10
-19.67403924442971
 20
150.0875555009124
 10
-19.67403924442971
 20
157.8063301449885
 42
-0.4142135623730951
 10
-17.67403924442971
 20
159.8063301449885
 10
18.32595318965697
 20
159.8063301449885
 42
-0.4142135623730951
 10
20.32595318965697
 20
157.8063301449885
 10
20.32595318965697
 20
150.0875555009124
  0
LWPOLYLINE
  5
A0
330
1F
100
AcDbEntity
  8
ceco.net 402
100
AcDbPolyline
 90
        4
 70
     1
 43
0.0
 10
-28.9559200961996
 20
11.39399479220358
 10
-6.188653471939327
 20
11.39399479220358
 10
-6.188653471939327
 20
-1.536248620258106
 10
-28.9559200961996
 20
-1.536248620258106
  0
LWPOLYLINE
  5
A1
330
1F
100
AcDbEntity
  8
ceco.net 402
100
AcDbPolyline
 90
        4
 70
     1
 43
0.0
 10
-4.458653170961332
 20
9.51435497992
 10
4.45865317096133
 20
9.51435497992
 10
4.45865317096133
 20
0.0
 10
-4.458653170961332
 20
0.0
  0
LWPOLYLINE
  5
A2
330
1F
100
AcDbEntity
  8
ceco.net 402
100
AcDbPolyline
 90
        4
 70
     1
 43
0.0
 10
-4.458653170961332
 20
6.633248521507226
 10
-6.188653471939327
 20
6.633248521507226
 10
-6.188653471939327
 20
3.350124517615029
 10
-4.458653170961332
 20
3.350124517615029
  0
LWPOLYLINE
  5
A3
330
1F
100
AcDbEntity
  8
ceco.net 402
100
AcDbPolyline
 90
        4
 70
     1
 43
0.0
 10
-28.9559200961996
 20
7.236270018678766
 10
-30.94238447908955
 20
7.236270018678766
 10
-30.94238447908955
 20
2.747103020443091
 10
-28.9559200961996
 20
2.747103020443091
  0
LWPOLYLINE
  5
A4
330
1F
100
AcDbEntity
  8
ceco.net 402
100
AcDbPolyline
 90
        4
 70
     0
 43
0.0
 10
-30.94238447908955
 20
7.236270018678766
 10
-31.98808015264257
 20
6.088486978146192
 10
-31.98429395312515
 20
3.816066748232742
 10
-30.94238447908955
 20
2.747103020443091
  0
LWPOLYLINE
  5
A5
330
1F
100
AcDbEntity
  8
ceco.net 402
100
AcDbPolyline
 90
        4
 70
     1
 43
0.0
 10
28.9559200961996
 20
11.39399479220358
 10
6.188653471939325
 20
11.39399479220358
 10
6.188653471939325
 20
-1.536248620258106
 10
28.9559200961996
 20
-1.536248620258106
  0
LWPOLYLINE
  5
A6
330
1F
100
AcDbEntity
  8
ceco.net 402
100
AcDbPolyline
 90
        4
 70
     1
 43
0.0
 10
28.9559200961996
 20
7.236270018678766
 10
30.94238447908954
 20
7.236270018678766
 10
30.94238447908954
 20
2.747103020443091
 10
28.9559200961996
 20
2.747103020443091
  0
LWPOLYLINE
  5
A7
330
1F
100
AcDbEntity
  8
ceco.net 402
100
AcDbPolyline
 90
        4
 70
     1
 43
0.0
 10
4.45865317096133
 20
6.633248521507226
 10
6.188653471939325
 20
6.633248521507226
 10
6.188653471939325
 20
3.350124517615029
 10
4.45865317096133
 20
3.350124517615029
  0
LWPOLYLINE
  5
A8
330
1F
100
AcDbEntity
  8
ceco.net 402
100
AcDbPolyline
 90
        4
 70
     0
 43
0.0
 10
30.94238447908954
 20
7.236270018678766
 10
31.98808015264257
 20
6.088486978146192
 10
31.98429395312516
 20
3.816066748232742
 10
30.94238447908954
 20
2.747103020443091
  0
LINE
  5
A9
330
1F
100
AcDbEntity
  8
ceco.net 402
100
AcDbLine
 10
-18.67403924442971
 20
134.9371286806737
 30
0.0
 11
19.32595318965697
 21
134.9371286806737
 31
0.0
  0
LINE
  5
AA
330
1F
100
AcDbEntity
  8
ceco.net 402
100
AcDbLine
 10
-17.67403924442971
 20
16.89481048981377
 30
0.0
 11
18.32595318965698
 21
16.8948104898138
 31
0.0
  0
LINE
  5
AB
330
1F
100
AcDbEntity
  8
ceco.net 402
100
AcDbLine
 10
-18.67403924442971
 20
48.55863961642154
 30
0.0
 11
19.32595318965697
 21
48.55863961642153
 31
0.0
  0
LINE
  5
AC
330
1F
100
AcDbEntity
  8
ceco.net 402
100
AcDbLine
 10
-19.67403924442971
 20
147.1011067345234
 30
0.0
 11
-19.67403924442971
 21
135.9371286806737
 31
0.0
  0
LINE
  5
AD
330
1F
100
AcDbEntity
  8
ceco.net 402
100
AcDbLine
 10
20.32595318965697
 20
147.1011067345234
 30
0.0
 11
20.32595318965697
 21
135.9371286806737
 31
0.0
  0
LINE
  5
AE
330
1F
100
AcDbEntity
  8
ceco.net 402
100
AcDbLine
 10
-18.67403924442971
 20
132.9371286806737
 30
0.0
 11
19.32595318965697
 21
132.9371286806737
 31
0.0
  0
LINE
  5
AF
330
1F
100
AcDbEntity
  8
ceco.net 402
100
AcDbLine
 10
-18.6740392444297
 20
46.55863961642153
 30
0.0
 11
19.32595318965697
 21
46.55863961642151
 31
0.0
  0
LINE
  5
B0
330
1F
100
AcDbEntity
  8
ceco.net 402
100
AcDbLine
 10
20.32595318965697
 20
131.9371286806737
 30
0.0
 11
20.32595318965697
 21
49.55863961642153
 31
0.0
  0
LINE
  5
B1
330
1F
100
AcDbEntity
  8
ceco.net 402
100
AcDbLine
 10
-19.67403924442971
 20
131.9371286806737
 30
0.0
 11
-19.67403924442971
 21
49.55863961642155
 31
0.0
  0
LINE
  5
B2
330
1F
100
AcDbEntity
  8
ceco.net 402
100
AcDbLine
 10
20.32595318965697
 20
45.55863961642152
 30
0.0
 11
20.32595318965698
 21
18.8948104898138
 31
0.0
  0
LINE
  5
B3
330
1F
100
AcDbEntity
  8
ceco.net 402
100
AcDbLine
 10
-19.6740392444297
 20
45.55863961642153
 30
0.0
 11
-19.67403924442971
 21
18.89481048981377
 31
0.0
  0
ARC
  5
B4
330
1F
100
AcDbEntity
  8
ceco.net 402
100
AcDbCircle
 10
-17.67403924442971
 20
18.89481048981377
 30
0.0
 40
2.0
100
AcDbArc
 50
180.0
 51
270.0
  0
ARC
  5
B5
330
1F
100
AcDbEntity
  8
ceco.net 402
100
AcDbCircle
 10
18.32595318965698
 20
18.8948104898138
 30
0.0
 40
2.0
100
AcDbArc
 50
270.0
 51
0.0000000000000127
  0
LINE
  5
B6
330
1F
100
AcDbEntity
  8
ceco.net 402
100
AcDbLine
 10
-3.137418100885263
 20
9.51435497992
 30
0.0
 11
-3.137418100885263
 21
16.89481048981378
 31
0.0
  0
LINE
  5
B7
330
1F
100
AcDbEntity
  8
ceco.net 402
100
AcDbLine
 10
3.482849382229773
 20
9.51435497992
 30
0.0
 11
3.482849382229773
 21
16.89481048981379
 31
0.0
  0
LINE
  5
B8
330
1F
100
AcDbEntity
  8
ceco.net 402
100
AcDbLine
 10
3.482849382229773
 20
132.9371286806737
 30
0.0
 11
3.482849382229773
 21
134.9371286806737
 31
0.0
  0
LINE
  5
B9
330
1F
100
AcDbEntity
  8
ceco.net 402
100
AcDbLine
 10
-3.137418100885262
 20
132.9371286806737
 30
0.0
 11
-3.137418100885262
 21
134.9371286806737
 31
0.0
  0
LINE
  5
BA
330
1F
100
AcDbEntity
  8
ceco.net 402
100
AcDbLine
 10
3.482849382229773
 20
46.55863961642153
 30
0.0
 11
3.482849382229773
 21
48.55863961642154
 31
0.0
  0
LINE
  5
BB
330
1F
100
AcDbEntity
  8
ceco.net 402
100
AcDbLine
 10
-3.137418100885262
 20
46.55863961642153
 30
0.0
 11
-3.137418100885263
 21
48.55863961642153
 31
0.0
  0
ARC
  5
BC
330
1F
100
AcDbEntity
  8
ceco.net 402
100
AcDbCircle
 10
-18.6740392444297
 20
45.55863961642153
 30
0.0
 40
1.0
100
AcDbArc
 50
89.99999999999998
 51
180.0
  0
ARC
  5
BD
330
1F
100
AcDbEntity
  8
ceco.net 402
100
AcDbCircle
 10
-18.67403924442971
 20
49.55863961642155
 30
0.0
 40
1.0
100
AcDbArc
 50
180.0
 51
270.0
  0
ARC
  5
BE
330
1F
100
AcDbEntity
  8
ceco.net 402
100
AcDbCircle
 10
19.32595318965697
 20
45.55863961642152
 30
0.0
 40
1.0
100
AcDbArc
 50
0.0
 51
90.0
  0
ARC
  5
BF
330
1F
100
AcDbEntity
  8
ceco.net 402
100
AcDbCircle
 10
19.32595318965697
 20
49.55863961642153
 30
0.0
 40
1.0
100
AcDbArc
 50
270.0
 51
0.0
  0
ARC
  5
C0
330
1F
100
AcDbEntity
  8
ceco.net 402
100
AcDbCircle
 10
-18.67403924442971
 20
135.9371286806737
 30
0.0
 40
1.0
100
AcDbArc
 50
180.0
 51
270.0
  0
ARC
  5
C1
330
1F
100
AcDbEntity
  8
ceco.net 402
100
AcDbCircle
 10
-18.67403924442971
 20
131.9371286806737
 30
0.0
 40
1.0
100
AcDbArc
 50
90.0
 51
180.0
  0
ARC
  5
C2
330
1F
100
AcDbEntity
  8
ceco.net 402
100
AcDbCircle
 10
19.32595318965697
 20
131.9371286806737
 30
0.0
 40
1.0
100
AcDbArc
 50
0.0
 51
89.99999999999994
  0
ARC
  5
C3
330
1F
100
AcDbEntity
  8
ceco.net 402
100
AcDbCircle
 10
19.32595318965697
 20
135.9371286806737
 30
0.0
 40
1.0
100
AcDbArc
 50
270.0
 51
0.0
  0
LWPOLYLINE
  5
C4
330
1F
100
AcDbEntity
  8
ceco.net 402
100
AcDbPolyline
 90
        4
 70
     1
 43
0.0
 10
101.6634682175333
 20
151.712496940091
 10
125.9769814847736
 20
151.712496940091
 10
125.9769814847736
 20
145.1686451105038
 10
101.6634682175333
 20
145.1686451105038
  0
ENDSEC
  0
SECTION
  2
OBJECTS
  0
DICTIONARY
  5
C
330
0
100
AcDbDictionary
281
     1
  3
ACAD_GROUP
350
D
  3
ACAD_IMAGE_DICT
350
C5
  3
ACAD_LAYOUT
350
1A
  3
ACAD_MLINESTYLE
350
17
  3
ACAD_PLOTSETTINGS
350
19
  3
ACAD_PLOTSTYLENAME
350
E
  3
AcDbVariableDictionary
350
5E
  0
DICTIONARY
  5
7F
330
2
100
AcDbDictionary
280
     1
281
     1
  3
ACAD_LAYERFILTERS
360
C8
  3
ACAD_LAYERSTATES
360
80
  0
DICTIONARY
  5
77
330
76
100
AcDbDictionary
280
     1
281
     1
  3
ACAD_XREC_ROUNDTRIP
360
78
  0
DICTIONARY
  5
D
102
{ACAD_REACTORS
330
C
102
}
330
C
100
AcDbDictionary
281
     1
  0
DICTIONARY
  5
C5
102
{ACAD_REACTORS
330
C
102
}
330
C
100
AcDbDictionary
281
     1
  3
dentista2
350
C6
  3
ginastica4
350
C7
  0
DICTIONARY
  5
1A
102
{ACAD_REACTORS
330
C
102
}
330
C
100
AcDbDictionary
281
     1
  3
Layout1
350
51
  3
Layout2
350
56
  3
Model
350
22
  0
DICTIONARY
  5
17
102
{ACAD_REACTORS
330
C
102
}
330
C
100
AcDbDictionary
281
     1
  3
Standard
350
18
  0
DICTIONARY
  5
19
102
{ACAD_REACTORS
330
C
102
}
330
C
100
AcDbDictionary
281
     1
  0
ACDBDICTIONARYWDFLT
  5
E
102
{ACAD_REACTORS
330
C
102
}
330
C
100
AcDbDictionary
281
     1
  3
Normal
350
F
100
AcDbDictionaryWithDefault
340
F
  0
DICTIONARY
  5
5E
102
{ACAD_REACTORS
330
C
102
}
330
C
100
AcDbDictionary
281
     1
  3
DIMASSOC
350
5F
  3
HIDETEXT
350
63
  0
DICTIONARY
  5
C8
102
{ACAD_REACTORS
330
7F
102
}
330
7F
100
AcDbDictionary
280
     1
281
     1
  0
DICTIONARY
  5
80
102
{ACAD_REACTORS
330
7F
102
}
330
7F
100
AcDbDictionary
281
     1
  0
XRECORD
  5
78
102
{ACAD_REACTORS
330
77
102
}
330
77
100
AcDbXrecord
280
     1
102
MATERIAL
340
0
  0
IMAGEDEF
  5
C6
102
{ACAD_REACTORS
330
C5
102
}
330
C5
100
AcDbRasterImageDef
 90
        0
  1
D:\Meus documentos\Novos Blocos\Imagens pra colocar cad\dentista2.gif
 10
224.0
 20
168.0
 11
0.0044642857142857
 21
0.0044642857142857
280
     1
281
     0
  0
IMAGEDEF
  5
C7
102
{ACAD_REACTORS
330
C5
102
}
330
C5
100
AcDbRasterImageDef
 90
        0
  1
D:\Meus documentos\Novos Blocos\Imagens pra colocar cad\ginastica4.gif
 10
300.0
 20
192.0
 11
0.0033333333333333
 21
0.0033333333333333
280
     1
281
     0
  0
LAYOUT
  5
51
102
{ACAD_REACTORS
330
1A
102
}
330
1A
100
AcDbPlotSettings
  1

  2
None
  4

  6

 40
0.0
 41
0.0
 42
0.0
 43
0.0
 44
0.0
 45
0.0
 46
0.0
 47
0.0
 48
0.0
 49
0.0
140
0.0
141
0.0
142
1.0
143
1.0
 70
   688
 72
     0
 73
     0
 74
     5
  7

 75
    16
147
1.0
148
0.0
149
0.0
100
AcDbLayout
  1
Layout1
 70
     1
 71
     1
 10
0.0
 20
0.0
 11
12.0
 21
9.0
 12
0.0
 22
0.0
 32
0.0
 14
0.0
 24
0.0
 34
0.0
 15
0.0
 25
0.0
 35
0.0
146
0.0
 13
0.0
 23
0.0
 33
0.0
 16
1.0
 26
0.0
 36
0.0
 17
0.0
 27
1.0
 37
0.0
 76
     0
330
50
  0
LAYOUT
  5
56
102
{ACAD_REACTORS
330
1A
102
}
330
1A
100
AcDbPlotSettings
  1

  2
None
  4

  6

 40
0.0
 41
0.0
 42
0.0
 43
0.0
 44
0.0
 45
0.0
 46
0.0
 47
0.0
 48
0.0
 49
0.0
140
0.0
141
0.0
142
1.0
143
1.0
 70
   688
 72
     0
 73
     0
 74
     5
  7

 75
    16
147
1.0
148
0.0
149
0.0
100
AcDbLayout
  1
Layout2
 70
     1
 71
     2
 10
0.0
 20
0.0
 11
12.0
 21
9.0
 12
0.0
 22
0.0
 32
0.0
 14
0.0
 24
0.0
 34
0.0
 15
0.0
 25
0.0
 35
0.0
146
0.0
 13
0.0
 23
0.0
 33
0.0
 16
1.0
 26
0.0
 36
0.0
 17
0.0
 27
1.0
 37
0.0
 76
     0
330
55
  0
LAYOUT
  5
22
102
{ACAD_REACTORS
330
1A
102
}
330
1A
100
AcDbPlotSettings
  1

  2
none_device
  4
ANSI_A_(8.50_x_11.00_Inches)
  6

 40
6.349999904632568
 41
19.04999923706054
 42
6.350006103515625
 43
19.04998779296875
 44
215.8999938964843
 45
279.3999938964843
 46
0.0
 47
0.0
 48
0.0
 49
0.0
140
0.0
141
0.0
142
1.0
143
78.436453180766
 70
 11952
 72
     0
 73
     1
 74
     0
  7

 75
     0
147
0.0127491741332998
148
0.0
149
0.0
100
AcDbLayout
  1
Model
 70
     1
 71
     0
 10
0.0
 20
0.0
 11
12.0
 21
9.0
 12
0.0
 22
0.0
 32
0.0
 14
0.0
 24
0.0
 34
0.0
 15
0.0
 25
0.0
 35
0.0
146
0.0
 13
0.0
 23
0.0
 33
0.0
 16
1.0
 26
0.0
 36
0.0
 17
0.0
 27
1.0
 37
0.0
 76
     0
330
1F
  0
MLINESTYLE
  5
18
102
{ACAD_REACTORS
330
17
102
}
330
17
100
AcDbMlineStyle
  2
STANDARD
 70
     0
  3

 62
   256
 51
90.0
 52
90.0
 71
     2
 49
0.5
 62
   256
  6
BYLAYER
 49
-0.5
 62
   256
  6
BYLAYER
  0
ACDBPLACEHOLDER
  5
F
102
{ACAD_REACTORS
330
E
102
}
330
E
  0
DICTIONARYVAR
  5
5F
102
{ACAD_REACTORS
330
5E
102
}
330
5E
100
DictionaryVariables
280
     0
  1
2
  0
DICTIONARYVAR
  5
63
102
{ACAD_REACTORS
330
5E
102
}
330
5E
100
DictionaryVariables
280
     0
  1
1
  0
ENDSEC
  0
EOF
