  0
SECTION
  2
HEADER
  9
$ACADVER
  1
AC1015
  9
$ACADMAINTVER
 70
    13
  9
$DWGCODEPAGE
  3
ANSI_1252
  9
$INSBASE
 10
0.0
 20
0.0
 30
0.0
  9
$EXTMIN
 10
-185.0317375187666
 20
-0.0090630292066862
 30
-0.0015258207003583
  9
$EXTMAX
 10
185.0381476770135
 20
437.9499215098912
 30
0.0000000349246037
  9
$LIMMIN
 10
0.0
 20
0.0
  9
$LIMMAX
 10
420.0
 20
297.0
  9
$ORTHOMODE
 70
     0
  9
$REGENMODE
 70
     1
  9
$FILLMODE
 70
     1
  9
$QTEXTMODE
 70
     0
  9
$MIRRTEXT
 70
     1
  9
$LTSCALE
 40
1.0
  9
$ATTMODE
 70
     1
  9
$TEXTSIZE
 40
2.5
  9
$TRACEWID
 40
1.0
  9
$TEXTSTYLE
  7
Standard
  9
$CLAYER
  8
ceco.net 369
  9
$CELTYPE
  6
ByLayer
  9
$CECOLOR
 62
   256
  9
$CELTSCALE
 40
1.0
  9
$DISPSILH
 70
     0
  9
$DIMSCALE
 40
1.0
  9
$DIMASZ
 40
2.5
  9
$DIMEXO
 40
0.625
  9
$DIMDLI
 40
3.75
  9
$DIMRND
 40
0.0
  9
$DIMDLE
 40
0.0
  9
$DIMEXE
 40
1.25
  9
$DIMTP
 40
0.0
  9
$DIMTM
 40
0.0
  9
$DIMTXT
 40
2.5
  9
$DIMCEN
 40
2.5
  9
$DIMTSZ
 40
0.0
  9
$DIMTOL
 70
     0
  9
$DIMLIM
 70
     0
  9
$DIMTIH
 70
     0
  9
$DIMTOH
 70
     0
  9
$DIMSE1
 70
     0
  9
$DIMSE2
 70
     0
  9
$DIMTAD
 70
     1
  9
$DIMZIN
 70
     8
  9
$DIMBLK
  1

  9
$DIMASO
 70
     1
  9
$DIMSHO
 70
     1
  9
$DIMPOST
  1

  9
$DIMAPOST
  1

  9
$DIMALT
 70
     0
  9
$DIMALTD
 70
     3
  9
$DIMALTF
 40
0.03937007874016
  9
$DIMLFAC
 40
1.0
  9
$DIMTOFL
 70
     1
  9
$DIMTVP
 40
0.0
  9
$DIMTIX
 70
     0
  9
$DIMSOXD
 70
     0
  9
$DIMSAH
 70
     0
  9
$DIMBLK1
  1

  9
$DIMBLK2
  1

  9
$DIMSTYLE
  2
ISO-25
  9
$DIMCLRD
 70
     0
  9
$DIMCLRE
 70
     0
  9
$DIMCLRT
 70
     0
  9
$DIMTFAC
 40
1.0
  9
$DIMGAP
 40
0.625
  9
$DIMJUST
 70
     0
  9
$DIMSD1
 70
     0
  9
$DIMSD2
 70
     0
  9
$DIMTOLJ
 70
     0
  9
$DIMTZIN
 70
     8
  9
$DIMALTZ
 70
     0
  9
$DIMALTTZ
 70
     0
  9
$DIMUPT
 70
     0
  9
$DIMDEC
 70
     2
  9
$DIMTDEC
 70
     2
  9
$DIMALTU
 70
     2
  9
$DIMALTTD
 70
     3
  9
$DIMTXSTY
  7
Standard
  9
$DIMAUNIT
 70
     0
  9
$DIMADEC
 70
     0
  9
$DIMALTRND
 40
0.0
  9
$DIMAZIN
 70
     0
  9
$DIMDSEP
 70
    44
  9
$DIMATFIT
 70
     3
  9
$DIMFRAC
 70
     0
  9
$DIMLDRBLK
  1

  9
$DIMLUNIT
 70
     2
  9
$DIMLWD
 70
    -2
  9
$DIMLWE
 70
    -2
  9
$DIMTMOVE
 70
     0
  9
$LUNITS
 70
     2
  9
$LUPREC
 70
     4
  9
$SKETCHINC
 40
1.0
  9
$FILLETRAD
 40
10.0
  9
$AUNITS
 70
     0
  9
$AUPREC
 70
     0
  9
$MENU
  1
.
  9
$ELEVATION
 40
0.0
  9
$PELEVATION
 40
0.0
  9
$THICKNESS
 40
0.0
  9
$LIMCHECK
 70
     0
  9
$CHAMFERA
 40
10.0
  9
$CHAMFERB
 40
10.0
  9
$CHAMFERC
 40
20.0
  9
$CHAMFERD
 40
0.0
  9
$SKPOLY
 70
     0
  9
$TDCREATE
 40
2457858.695660799
  9
$TDUCREATE
 40
2457858.820660799
  9
$TDUPDATE
 40
2457877.848619248
  9
$TDUUPDATE
 40
2457877.973619247
  9
$TDINDWG
 40
0.0017364352
  9
$TDUSRTIMER
 40
0.0017364236
  9
$USRTIMER
 70
     1
  9
$ANGBASE
 50
0.0
  9
$ANGDIR
 70
     0
  9
$PDMODE
 70
     0
  9
$PDSIZE
 40
0.0
  9
$PLINEWID
 40
0.0
  9
$SPLFRAME
 70
     0
  9
$SPLINETYPE
 70
     6
  9
$SPLINESEGS
 70
     8
  9
$HANDSEED
  5
289
  9
$SURFTAB1
 70
     6
  9
$SURFTAB2
 70
     6
  9
$SURFTYPE
 70
     6
  9
$SURFU
 70
     6
  9
$SURFV
 70
     6
  9
$UCSBASE
  2

  9
$UCSNAME
  2

  9
$UCSORG
 10
0.0
 20
0.0
 30
0.0
  9
$UCSXDIR
 10
1.0
 20
0.0
 30
0.0
  9
$UCSYDIR
 10
0.0
 20
1.0
 30
0.0
  9
$UCSORTHOREF
  2

  9
$UCSORTHOVIEW
 70
     0
  9
$UCSORGTOP
 10
0.0
 20
0.0
 30
0.0
  9
$UCSORGBOTTOM
 10
0.0
 20
0.0
 30
0.0
  9
$UCSORGLEFT
 10
0.0
 20
0.0
 30
0.0
  9
$UCSORGRIGHT
 10
0.0
 20
0.0
 30
0.0
  9
$UCSORGFRONT
 10
0.0
 20
0.0
 30
0.0
  9
$UCSORGBACK
 10
0.0
 20
0.0
 30
0.0
  9
$PUCSBASE
  2

  9
$PUCSNAME
  2

  9
$PUCSORG
 10
0.0
 20
0.0
 30
0.0
  9
$PUCSXDIR
 10
1.0
 20
0.0
 30
0.0
  9
$PUCSYDIR
 10
0.0
 20
1.0
 30
0.0
  9
$PUCSORTHOREF
  2

  9
$PUCSORTHOVIEW
 70
     0
  9
$PUCSORGTOP
 10
0.0
 20
0.0
 30
0.0
  9
$PUCSORGBOTTOM
 10
0.0
 20
0.0
 30
0.0
  9
$PUCSORGLEFT
 10
0.0
 20
0.0
 30
0.0
  9
$PUCSORGRIGHT
 10
0.0
 20
0.0
 30
0.0
  9
$PUCSORGFRONT
 10
0.0
 20
0.0
 30
0.0
  9
$PUCSORGBACK
 10
0.0
 20
0.0
 30
0.0
  9
$USERI1
 70
     0
  9
$USERI2
 70
     0
  9
$USERI3
 70
     0
  9
$USERI4
 70
     0
  9
$USERI5
 70
     0
  9
$USERR1
 40
0.0
  9
$USERR2
 40
0.0
  9
$USERR3
 40
0.0
  9
$USERR4
 40
0.0
  9
$USERR5
 40
0.0
  9
$WORLDVIEW
 70
     1
  9
$SHADEDGE
 70
     3
  9
$SHADEDIF
 70
    70
  9
$TILEMODE
 70
     1
  9
$MAXACTVP
 70
    64
  9
$PINSBASE
 10
0.0
 20
0.0
 30
0.0
  9
$PLIMCHECK
 70
     0
  9
$PEXTMIN
 10
0.0
 20
0.0
 30
0.0
  9
$PEXTMAX
 10
0.0
 20
0.0
 30
0.0
  9
$PLIMMIN
 10
0.0
 20
0.0
  9
$PLIMMAX
 10
12.0
 20
9.0
  9
$UNITMODE
 70
     0
  9
$VISRETAIN
 70
     1
  9
$PLINEGEN
 70
     0
  9
$PSLTSCALE
 70
     1
  9
$TREEDEPTH
 70
  3020
  9
$CMLSTYLE
  2
Standard
  9
$CMLJUST
 70
     0
  9
$CMLSCALE
 40
20.0
  9
$PROXYGRAPHICS
 70
     1
  9
$MEASUREMENT
 70
     1
  9
$CELWEIGHT
370
    -1
  9
$ENDCAPS
280
     0
  9
$JOINSTYLE
280
     0
  9
$LWDISPLAY
290
     0
  9
$INSUNITS
 70
     4
  9
$HYPERLINKBASE
  1

  9
$STYLESHEET
  1

  9
$XEDIT
290
     1
  9
$CEPSNTYPE
380
     0
  9
$PSTYLEMODE
290
     1
  9
$FINGERPRINTGUID
  2
{FDEAD578-A652-11D2-9A35-0060089B3A3F}
  9
$VERSIONGUID
  2
{BFE246C2-E5C5-4728-AACE-1D64B91F316B}
  9
$EXTNAMES
290
     1
  9
$PSVPSCALE
 40
0.0
  9
$OLESTARTUP
290
     0
  0
ENDSEC
  0
SECTION
  2
CLASSES
  0
CLASS
  1
ACDBDICTIONARYWDFLT
  2
AcDbDictionaryWithDefault
  3
AutoCAD 2000
 90
        0
280
     0
281
     0
  0
CLASS
  1
ACDBPLACEHOLDER
  2
AcDbPlaceHolder
  3
AutoCAD 2000
 90
        0
280
     0
281
     0
  0
CLASS
  1
LAYOUT
  2
AcDbLayout
  3
AutoCAD 2000
 90
        0
280
     0
281
     0
  0
CLASS
  1
DICTIONARYVAR
  2
AcDbDictionaryVar
  3
AutoCAD 2000
 90
        0
280
     0
281
     0
  0
ENDSEC
  0
SECTION
  2
TABLES
  0
TABLE
  2
VPORT
  5
8
330
0
100
AcDbSymbolTable
 70
     3
  0
VPORT
  5
288
330
8
100
AcDbSymbolTableRecord
100
AcDbViewportTableRecord
  2
*Active
 70
     0
 10
0.0
 20
0.0
 11
1.0
 21
1.0
 12
-6.305745898197187
 22
229.7820796006626
 13
0.0
 23
0.0
 14
10.0
 24
10.0
 15
10.0
 25
10.0
 16
0.0
 26
0.0
 36
1.0
 17
0.0
 27
0.0
 37
0.0
 40
494.1341907954551
 41
2.187425860023724
 42
50.0
 43
0.0
 44
0.0
 50
0.0
 51
0.0
 71
     0
 72
   100
 73
     1
 74
     3
 75
     0
 76
     0
 77
     0
 78
     0
281
     0
 65
     1
110
0.0
120
0.0
130
0.0
111
1.0
121
0.0
131
0.0
112
0.0
122
1.0
132
0.0
 79
     0
146
0.0
  0
ENDTAB
  0
TABLE
  2
LTYPE
  5
5
330
0
100
AcDbSymbolTable
 70
     2
  0
LTYPE
  5
14
330
5
100
AcDbSymbolTableRecord
100
AcDbLinetypeTableRecord
  2
ByBlock
 70
     0
  3

 72
    65
 73
     0
 40
0.0
  0
LTYPE
  5
15
330
5
100
AcDbSymbolTableRecord
100
AcDbLinetypeTableRecord
  2
ByLayer
 70
     0
  3

 72
    65
 73
     0
 40
0.0
  0
LTYPE
  5
16
330
5
100
AcDbSymbolTableRecord
100
AcDbLinetypeTableRecord
  2
Continuous
 70
     0
  3
Solid line
 72
    65
 73
     0
 40
0.0
  0
ENDTAB
  0
TABLE
  2
LAYER
  5
2
102
{ACAD_XDICTIONARY
360
86
102
}
330
0
100
AcDbSymbolTable
 70
     2
  0
LAYER
  5
10
330
2
100
AcDbSymbolTableRecord
100
AcDbLayerTableRecord
  2
0
 70
     0
 62
     7
  6
Continuous
370
    -3
390
F
  0
LAYER
  5
77
330
2
100
AcDbSymbolTableRecord
100
AcDbLayerTableRecord
  2
ceco.net 369
 70
     0
 62
     7
  6
Continuous
370
    -3
390
F
1001
AcAecLayerStandard
1000

1000

  0
ENDTAB
  0
TABLE
  2
STYLE
  5
3
330
0
100
AcDbSymbolTable
 70
     1
  0
STYLE
  5
11
330
3
100
AcDbSymbolTableRecord
100
AcDbTextStyleTableRecord
  2
Standard
 70
     0
 40
0.0
 41
1.0
 50
0.0
 71
     0
 42
2.5
  3
txt
  4

  0
ENDTAB
  0
TABLE
  2
VIEW
  5
6
330
0
100
AcDbSymbolTable
 70
     0
  0
ENDTAB
  0
TABLE
  2
UCS
  5
7
330
0
100
AcDbSymbolTable
 70
     0
  0
ENDTAB
  0
TABLE
  2
APPID
  5
9
330
0
100
AcDbSymbolTable
 70
    14
  0
APPID
  5
12
330
9
100
AcDbSymbolTableRecord
100
AcDbRegAppTableRecord
  2
ACAD
 70
     0
  0
APPID
  5
79
330
9
100
AcDbSymbolTableRecord
100
AcDbRegAppTableRecord
  2
ACAD_EXEMPT_FROM_CAD_STANDARDS
 70
     0
  0
APPID
  5
7A
330
9
100
AcDbSymbolTableRecord
100
AcDbRegAppTableRecord
  2
ACAD_NAV_VCDISPLAY
 70
     0
  0
APPID
  5
7B
330
9
100
AcDbSymbolTableRecord
100
AcDbRegAppTableRecord
  2
ACAUTHENVIRON
 70
     0
  0
APPID
  5
7C
330
9
100
AcDbSymbolTableRecord
100
AcDbRegAppTableRecord
  2
AcDbDynamicBlockTrueName
 70
     0
  0
APPID
  5
7D
330
9
100
AcDbSymbolTableRecord
100
AcDbRegAppTableRecord
  2
AcDbDynamicBlockGUID
 70
     0
  0
APPID
  5
7E
330
9
100
AcDbSymbolTableRecord
100
AcDbRegAppTableRecord
  2
AcAecLayerStandard
 70
     0
  0
APPID
  5
7F
330
9
100
AcDbSymbolTableRecord
100
AcDbRegAppTableRecord
  2
AcCmTransparency
 70
     0
  0
APPID
  5
80
330
9
100
AcDbSymbolTableRecord
100
AcDbRegAppTableRecord
  2
RAK
 70
     0
  0
APPID
  5
81
330
9
100
AcDbSymbolTableRecord
100
AcDbRegAppTableRecord
  2
ACAD_PSEXT
 70
     0
  0
APPID
  5
82
330
9
100
AcDbSymbolTableRecord
100
AcDbRegAppTableRecord
  2
ACAD_DSTYLE_DIMJOGGED_JOGANGLE_SYMBOL
 70
     0
  0
APPID
  5
83
330
9
100
AcDbSymbolTableRecord
100
AcDbRegAppTableRecord
  2
AcadAnnoMonitorAlertIconDisabled
 70
     0
  0
APPID
  5
84
330
9
100
AcDbSymbolTableRecord
100
AcDbRegAppTableRecord
  2
ACAD_MLEADERVER
 70
     0
  0
APPID
  5
85
330
9
100
AcDbSymbolTableRecord
100
AcDbRegAppTableRecord
  2
ACAD_DSTYLE_DIMEXT_LENGTH
 70
     0
  0
ENDTAB
  0
TABLE
  2
DIMSTYLE
  5
A
330
0
100
AcDbSymbolTable
 70
     2
100
AcDbDimStyleTable
 71
     0
  0
DIMSTYLE
105
27
330
A
100
AcDbSymbolTableRecord
100
AcDbDimStyleTableRecord
  2
ISO-25
 70
     0
 41
2.5
 42
0.625
 43
3.75
 44
1.25
 73
     0
 74
     0
 77
     1
 78
     8
140
2.5
141
2.5
143
0.03937007874016
147
0.625
171
     3
172
     1
271
     2
272
     2
274
     3
278
    44
283
     0
284
     8
340
11
  0
DIMSTYLE
105
78
330
A
100
AcDbSymbolTableRecord
100
AcDbDimStyleTableRecord
  2
Standard
 70
     0
340
11
  0
ENDTAB
  0
TABLE
  2
BLOCK_RECORD
  5
1
330
0
100
AcDbSymbolTable
 70
     2
  0
BLOCK_RECORD
  5
1F
330
1
100
AcDbSymbolTableRecord
100
AcDbBlockTableRecord
  2
*Model_Space
340
22
  0
BLOCK_RECORD
  5
50
330
1
100
AcDbSymbolTableRecord
100
AcDbBlockTableRecord
  2
*Paper_Space
340
51
  0
BLOCK_RECORD
  5
55
330
1
100
AcDbSymbolTableRecord
100
AcDbBlockTableRecord
  2
*Paper_Space0
340
56
  0
ENDTAB
  0
ENDSEC
  0
SECTION
  2
BLOCKS
  0
BLOCK
  5
20
330
1F
100
AcDbEntity
  8
0
100
AcDbBlockBegin
  2
*Model_Space
 70
     0
 10
0.0
 20
0.0
 30
0.0
  3
*Model_Space
  1

  0
ENDBLK
  5
21
330
1F
100
AcDbEntity
  8
0
100
AcDbBlockEnd
  0
BLOCK
  5
52
330
50
100
AcDbEntity
 67
     1
  8
0
100
AcDbBlockBegin
  2
*Paper_Space
 70
     0
 10
0.0
 20
0.0
 30
0.0
  3
*Paper_Space
  1

  0
ENDBLK
  5
53
330
50
100
AcDbEntity
 67
     1
  8
0
100
AcDbBlockEnd
  0
BLOCK
  5
57
330
55
100
AcDbEntity
  8
0
100
AcDbBlockBegin
  2
*Paper_Space0
 70
     0
 10
0.0
 20
0.0
 30
0.0
  3
*Paper_Space0
  1

  0
ENDBLK
  5
58
330
55
100
AcDbEntity
  8
0
100
AcDbBlockEnd
  0
ENDSEC
  0
SECTION
  2
ENTITIES
  0
LINE
  5
189
330
1F
100
AcDbEntity
  8
ceco.net 369
  6
Continuous
100
AcDbLine
 10
-102.0126055886285
 20
390.2956235294123
 30
0.0
 11
-64.02634270601993
 21
390.2956235294123
 31
0.0
  0
LINE
  5
18A
330
1F
100
AcDbEntity
  8
ceco.net 369
  6
Continuous
100
AcDbLine
 10
-64.02634270601993
 20
390.2956235294123
 30
0.0
 11
-21.82138452908839
 21
390.2956235294123
 31
0.0
  0
LINE
  5
18B
330
1F
100
AcDbEntity
  8
ceco.net 369
  6
Continuous
100
AcDbLine
 10
-21.82138452908839
 20
390.2956235294123
 30
0.0
 11
0.0
 21
390.2956235294123
 31
0.0
  0
LINE
  5
18C
330
1F
100
AcDbEntity
  8
ceco.net 369
  6
Continuous
100
AcDbLine
 10
-120.0000065740459
 20
340.9411764705883
 30
0.0
 11
-75.31580534877503
 21
340.9411764705883
 31
0.0
  0
LINE
  5
18D
330
1F
100
AcDbEntity
  8
ceco.net 369
  6
Continuous
100
AcDbLine
 10
-75.31580534877503
 20
340.9411764705883
 30
0.0
 11
-25.6690462108636
 21
340.9411764705883
 31
0.0
  0
LINE
  5
18E
330
1F
100
AcDbEntity
  8
ceco.net 369
  6
Continuous
100
AcDbLine
 10
-25.6690462108636
 20
340.9411764705883
 30
0.0
 11
0.0
 21
340.9411764705883
 31
0.0
  0
LINE
  5
18F
330
1F
100
AcDbEntity
  8
ceco.net 369
  6
Continuous
100
AcDbLine
 10
-69.32280379776057
 20
231.2480470588234
 30
0.0
 11
-43.50918759193518
 21
231.2480470588234
 31
0.0
  0
LINE
  5
190
330
1F
100
AcDbEntity
  8
ceco.net 369
  6
Continuous
100
AcDbLine
 10
-43.50918759193518
 20
231.2480470588234
 30
0.0
 11
-14.82875130555476
 21
231.2480470588234
 31
0.0
  0
LINE
  5
191
330
1F
100
AcDbEntity
  8
ceco.net 369
  6
Continuous
100
AcDbLine
 10
-14.82875130555476
 20
231.2480470588234
 30
0.0
 11
0.0
 21
231.2480470588234
 31
0.0
  0
LINE
  5
192
330
1F
100
AcDbEntity
  8
ceco.net 369
  6
Continuous
100
AcDbLine
 10
-52.67700288584092
 20
25.61110588235306
 30
0.0
 11
-33.06175565297962
 21
25.61110588235306
 31
0.0
  0
LINE
  5
193
330
1F
100
AcDbEntity
  8
ceco.net 369
  6
Continuous
100
AcDbLine
 10
-33.06175565297962
 20
25.61110588235306
 30
0.0
 11
-11.268069560414
 21
25.61110588235306
 31
0.0
  0
LINE
  5
194
330
1F
100
AcDbEntity
  8
ceco.net 369
  6
Continuous
100
AcDbLine
 10
-11.268069560414
 20
25.61110588235306
 30
0.0
 11
0.0
 21
25.61110588235351
 31
0.0
  0
LINE
  5
195
330
1F
100
AcDbEntity
  8
ceco.net 369
  6
Continuous
100
AcDbLine
 10
-60.90000333632634
 20
0.0
 30
0.0
 11
-38.22277121450315
 21
0.0
 31
0.0
  0
LINE
  5
196
330
1F
100
AcDbEntity
  8
ceco.net 369
  6
Continuous
100
AcDbLine
 10
-38.22277121450315
 20
0.0
 30
0.0
 11
-13.02704095201625
 21
0.0
 31
0.0
  0
LINE
  5
197
330
1F
100
AcDbEntity
  8
ceco.net 369
  6
Continuous
100
AcDbLine
 10
-13.02704095201625
 20
0.0
 30
0.0
 11
0.0
 21
0.0
 31
0.0
  0
LINE
  5
198
330
1F
100
AcDbEntity
  8
ceco.net 369
  6
Continuous
100
AcDbLine
 10
-155.0210000000006
 20
390.2956235294123
 30
0.0
 11
-151.4759296460033
 21
390.2956235294123
 31
0.0
  0
LINE
  5
199
330
1F
100
AcDbEntity
  8
ceco.net 369
  6
Continuous
100
AcDbLine
 10
-151.4759296460033
 20
390.2956235294123
 30
0.0
 11
-141.0303869960407
 21
390.2956235294123
 31
0.0
  0
LINE
  5
19A
330
1F
100
AcDbEntity
  8
ceco.net 369
  6
Continuous
100
AcDbLine
 10
-141.0303869960407
 20
390.2956235294123
 30
0.0
 11
-124.2432296436891
 21
390.2956235294123
 31
0.0
  0
LINE
  5
19B
330
1F
100
AcDbEntity
  8
ceco.net 369
  6
Continuous
100
AcDbLine
 10
-124.2432296436891
 20
390.2956235294123
 30
0.0
 11
-102.0126043559939
 21
390.2956235294123
 31
0.0
  0
LINE
  5
19C
330
1F
100
AcDbEntity
  8
ceco.net 369
  6
Continuous
100
AcDbLine
 10
-185.0
 20
340.9411764705883
 30
0.0
 11
-180.6529611720106
 21
340.9411764705883
 31
0.0
  0
LINE
  5
19D
330
1F
100
AcDbEntity
  8
ceco.net 369
  6
Continuous
100
AcDbLine
 10
-180.6529611720106
 20
340.9411764705883
 30
0.0
 11
-167.8444200304584
 21
340.9411764705883
 31
0.0
  0
LINE
  5
19E
330
1F
100
AcDbEntity
  8
ceco.net 369
  6
Continuous
100
AcDbLine
 10
-167.8444200304584
 20
340.9411764705883
 30
0.0
 11
-147.2596593528505
 21
340.9411764705883
 31
0.0
  0
LINE
  5
19F
330
1F
100
AcDbEntity
  8
ceco.net 369
  6
Continuous
100
AcDbLine
 10
-147.2596593528505
 20
340.9411764705883
 30
0.0
 11
-120.0000053414114
 21
340.9411764705883
 31
0.0
  0
LINE
  5
1A0
330
1F
100
AcDbEntity
  8
ceco.net 369
  6
Continuous
100
AcDbLine
 10
-100.5380000000004
 20
231.2480470588234
 30
0.0
 11
-98.45040482425247
 21
231.2480470588234
 31
0.0
  0
LINE
  5
1A1
330
1F
100
AcDbEntity
  8
ceco.net 369
  6
Continuous
100
AcDbLine
 10
-98.45040482425247
 20
231.2480470588234
 30
0.0
 11
-92.29930984822932
 21
231.2480470588234
 31
0.0
  0
LINE
  5
1A2
330
1F
100
AcDbEntity
  8
ceco.net 369
  6
Continuous
100
AcDbLine
 10
-92.29930984822932
 20
231.2480470588234
 30
0.0
 11
-82.41381105586333
 21
231.2480470588234
 31
0.0
  0
LINE
  5
1A3
330
1F
100
AcDbEntity
  8
ceco.net 369
  6
Continuous
100
AcDbLine
 10
-82.41381105586333
 20
231.2480470588234
 30
0.0
 11
-69.32280256512604
 21
231.2480470588234
 31
0.0
  0
LINE
  5
1A4
330
1F
100
AcDbEntity
  8
ceco.net 369
  6
Continuous
100
AcDbLine
 10
-72.79500000000189
 20
25.61110588235306
 30
0.0
 11
-71.44955804397614
 21
25.61110588235306
 31
0.0
  0
LINE
  5
1A5
330
1F
100
AcDbEntity
  8
ceco.net 369
  6
Continuous
100
AcDbLine
 10
-71.44955804397614
 20
25.61110588235306
 30
0.0
 11
-67.4852160334267
 21
25.61110588235306
 31
0.0
  0
LINE
  5
1A6
330
1F
100
AcDbEntity
  8
ceco.net 369
  6
Continuous
100
AcDbLine
 10
-67.4852160334267
 20
25.61110588235306
 30
0.0
 11
-61.11407425939614
 21
25.61110588235306
 31
0.0
  0
LINE
  5
1A7
330
1F
100
AcDbEntity
  8
ceco.net 369
  6
Continuous
100
AcDbLine
 10
-61.11407425939614
 20
25.61110588235306
 30
0.0
 11
-52.67700165321002
 21
25.61110588235306
 31
0.0
  0
LINE
  5
1A8
330
1F
100
AcDbEntity
  8
ceco.net 369
  6
Continuous
100
AcDbLine
 10
-86.5
 20
0.0
 30
0.0
 11
-84.78793547697568
 21
0.0
 31
0.0
  0
LINE
  5
1A9
330
1F
100
AcDbEntity
  8
ceco.net 369
  6
Continuous
100
AcDbLine
 10
-84.78793547697568
 20
0.0
 30
0.0
 11
-79.74334081199777
 21
0.0
 31
0.0
  0
LINE
  5
1AA
330
1F
100
AcDbEntity
  8
ceco.net 369
  6
Continuous
100
AcDbLine
 10
-79.74334081199777
 20
0.0
 30
0.0
 11
-71.63611199127626
 21
0.0
 31
0.0
  0
LINE
  5
1AB
330
1F
100
AcDbEntity
  8
ceco.net 369
  6
Continuous
100
AcDbLine
 10
-71.63611199127626
 20
0.0
 30
0.0
 11
-60.90000210369908
 21
0.0
 31
0.0
  0
LINE
  5
1AC
330
1F
100
AcDbEntity
  8
ceco.net 369
  6
Continuous
100
AcDbLine
 10
-155.0210000000006
 20
390.2956235294123
 30
0.0
 11
-156.6779999999998
 21
385.1469176470582
 31
0.0
  0
LINE
  5
1AD
330
1F
100
AcDbEntity
  8
ceco.net 369
  6
Continuous
100
AcDbLine
 10
-156.6779999999998
 20
385.1469176470582
 30
0.0
 11
-159.4470000000001
 21
379.9280470588228
 31
0.0
  0
LINE
  5
1AE
330
1F
100
AcDbEntity
  8
ceco.net 369
  6
Continuous
100
AcDbLine
 10
-159.4470000000001
 20
379.9280470588228
 30
0.0
 11
-160.398000000001
 21
378.1689882352939
 31
0.0
  0
LINE
  5
1AF
330
1F
100
AcDbEntity
  8
ceco.net 369
  6
Continuous
100
AcDbLine
 10
-160.398000000001
 20
378.1689882352939
 30
0.0
 11
-162.7040000000051
 21
375.262588235294
 31
0.0
  0
LINE
  5
1B0
330
1F
100
AcDbEntity
  8
ceco.net 369
  6
Continuous
100
AcDbLine
 10
-162.7040000000051
 20
375.262588235294
 30
0.0
 11
-165.4870000000009
 21
372.7959529411764
 31
0.0
  0
LINE
  5
1B1
330
1F
100
AcDbEntity
  8
ceco.net 369
  6
Continuous
100
AcDbLine
 10
-165.4870000000009
 20
372.7959529411764
 30
0.0
 11
-167.0730000000039
 21
371.8195764705878
 31
0.0
  0
LINE
  5
1B2
330
1F
100
AcDbEntity
  8
ceco.net 369
  6
Continuous
100
AcDbLine
 10
-167.0730000000039
 20
371.8195764705878
 30
0.0
 11
-169.8070000000007
 21
370.2403764705877
 31
0.0
  0
LINE
  5
1B3
330
1F
100
AcDbEntity
  8
ceco.net 369
  6
Continuous
100
AcDbLine
 10
-169.8070000000007
 20
370.2403764705877
 30
0.0
 11
-174.6360000000022
 21
366.1915764705881
 31
0.0
  0
LINE
  5
1B4
330
1F
100
AcDbEntity
  8
ceco.net 369
  6
Continuous
100
AcDbLine
 10
-174.6360000000022
 20
366.1915764705881
 30
0.0
 11
-178.6810000000041
 21
361.3749176470582
 31
0.0
  0
LINE
  5
1B5
330
1F
100
AcDbEntity
  8
ceco.net 369
  6
Continuous
100
AcDbLine
 10
-178.6810000000041
 20
361.3749176470582
 30
0.0
 11
-181.8170000000027
 21
355.9376470588231
 31
0.0
  0
LINE
  5
1B6
330
1F
100
AcDbEntity
  8
ceco.net 369
  6
Continuous
100
AcDbLine
 10
-181.8170000000027
 20
355.9376470588231
 30
0.0
 11
-183.9510000000009
 21
350.0447999999996
 31
0.0
  0
LINE
  5
1B7
330
1F
100
AcDbEntity
  8
ceco.net 369
  6
Continuous
100
AcDbLine
 10
-183.9510000000009
 20
350.0447999999996
 30
0.0
 11
-185.0169999999998
 21
343.8752470588233
 31
0.0
  0
LINE
  5
1B8
330
1F
100
AcDbEntity
  8
ceco.net 369
  6
Continuous
100
AcDbLine
 10
-185.0169999999998
 20
343.8752470588233
 30
0.0
 11
-185.0
 21
340.9411764705883
 31
0.0
  0
LINE
  5
1B9
330
1F
100
AcDbEntity
  8
ceco.net 369
  6
Continuous
100
AcDbLine
 10
-185.0
 20
340.9411764705883
 30
0.0
 11
-176.4789999999993
 21
330.7257882352942
 31
0.0
  0
LINE
  5
1BA
330
1F
100
AcDbEntity
  8
ceco.net 369
  6
Continuous
100
AcDbLine
 10
-176.4789999999993
 20
330.7257882352942
 30
0.0
 11
-175.8020000000033
 21
310.0973647058826
 31
0.0
  0
LINE
  5
1BB
330
1F
100
AcDbEntity
  8
ceco.net 369
  6
Continuous
100
AcDbLine
 10
-175.8020000000033
 20
310.0973647058826
 30
0.0
 11
-172.2040000000015
 21
293.9565176470587
 31
0.0
  0
LINE
  5
1BC
330
1F
100
AcDbEntity
  8
ceco.net 369
  6
Continuous
100
AcDbLine
 10
-172.2040000000015
 20
293.9565176470587
 30
0.0
 11
-170.0310000000026
 21
287.319529411764
 31
0.0
  0
LINE
  5
1BD
330
1F
100
AcDbEntity
  8
ceco.net 369
  6
Continuous
100
AcDbLine
 10
-170.0310000000026
 20
287.319529411764
 30
0.0
 11
-163.4200000000018
 21
274.9932705882356
 31
0.0
  0
LINE
  5
1BE
330
1F
100
AcDbEntity
  8
ceco.net 369
  6
Continuous
100
AcDbLine
 10
-163.4200000000018
 20
274.9932705882356
 30
0.0
 11
-154.742000000002
 21
263.9892705882348
 31
0.0
  0
LINE
  5
1BF
330
1F
100
AcDbEntity
  8
ceco.net 369
  6
Continuous
100
AcDbLine
 10
-154.742000000002
 20
263.9892705882348
 30
0.0
 11
-144.262999999999
 21
254.6405647058818
 31
0.0
  0
LINE
  5
1C0
330
1F
100
AcDbEntity
  8
ceco.net 369
  6
Continuous
100
AcDbLine
 10
-144.262999999999
 20
254.6405647058818
 30
0.0
 11
-142.4680000000007
 21
253.7126117647058
 31
0.0
  0
LINE
  5
1C1
330
1F
100
AcDbEntity
  8
ceco.net 369
  6
Continuous
100
AcDbLine
 10
-142.4680000000007
 20
253.7126117647058
 30
0.0
 11
-129.4220000000023
 21
244.6406117647057
 31
0.0
  0
LINE
  5
1C2
330
1F
100
AcDbEntity
  8
ceco.net 369
  6
Continuous
100
AcDbLine
 10
-129.4220000000023
 20
244.6406117647057
 30
0.0
 11
-100.5380000000004
 21
231.2480470588234
 31
0.0
  0
LINE
  5
1C3
330
1F
100
AcDbEntity
  8
ceco.net 369
  6
Continuous
100
AcDbLine
 10
-98.49562329076434
 20
231.2480470587661
 30
0.0
 11
-83.34100000000034
 21
224.9836235294123
 31
0.0
  0
LINE
  5
1C4
330
1F
100
AcDbEntity
  8
ceco.net 369
  6
Continuous
100
AcDbLine
 10
-83.34100000000034
 20
224.9836235294123
 30
0.0
 11
-82.87900000000082
 21
224.7928941176469
 31
0.0
  0
LINE
  5
1C5
330
1F
100
AcDbEntity
  8
ceco.net 369
  6
Continuous
100
AcDbLine
 10
-82.87900000000082
 20
224.7928941176469
 30
0.0
 11
-82.17399999999907
 21
224.6911058823525
 31
0.0
  0
LINE
  5
1C6
330
1F
100
AcDbEntity
  8
ceco.net 369
  6
Continuous
100
AcDbLine
 10
-82.17399999999907
 20
224.6911058823525
 30
0.0
 11
-74.35400000000299
 21
220.2944470588235
 31
0.0
  0
LINE
  5
1C7
330
1F
100
AcDbEntity
  8
ceco.net 369
  6
Continuous
100
AcDbLine
 10
-74.35400000000299
 20
220.2944470588235
 30
0.0
 11
-70.88900000000285
 21
217.458211764706
 31
0.0
  0
LINE
  5
1C8
330
1F
100
AcDbEntity
  8
ceco.net 369
  6
Continuous
100
AcDbLine
 10
-70.88900000000285
 20
217.458211764706
 30
0.0
 11
-69.32200000000012
 21
216.3424941176472
 31
0.0
  0
LINE
  5
1C9
330
1F
100
AcDbEntity
  8
ceco.net 369
  6
Continuous
100
AcDbLine
 10
-69.32200000000012
 20
216.3424941176472
 30
0.0
 11
-62.73500000000058
 21
209.0750117647057
 31
0.0
  0
LINE
  5
1CA
330
1F
100
AcDbEntity
  8
ceco.net 369
  6
Continuous
100
AcDbLine
 10
-62.73500000000058
 20
209.0750117647057
 30
0.0
 11
-57.52600000000166
 21
200.7876705882354
 31
0.0
  0
LINE
  5
1CB
330
1F
100
AcDbEntity
  8
ceco.net 369
  6
Continuous
100
AcDbLine
 10
-57.52600000000166
 20
200.7876705882354
 30
0.0
 11
-53.85200000000259
 21
191.7314823529413
 31
0.0
  0
LINE
  5
1CC
330
1F
100
AcDbEntity
  8
ceco.net 369
  6
Continuous
100
AcDbLine
 10
-53.85200000000259
 20
191.7314823529413
 30
0.0
 11
-51.82500000000437
 21
182.1831529411765
 31
0.0
  0
LINE
  5
1CD
330
1F
100
AcDbEntity
  8
ceco.net 369
  6
Continuous
100
AcDbLine
 10
-51.82500000000437
 20
182.1831529411765
 30
0.0
 11
-51.50600000000122
 21
172.4312470588238
 31
0.0
  0
LINE
  5
1CE
330
1F
100
AcDbEntity
  8
ceco.net 369
  6
Continuous
100
AcDbLine
 10
-51.50600000000122
 20
172.4312470588238
 30
0.0
 11
-52.20600000000195
 21
167.6027294117639
 31
0.0
  0
LINE
  5
1CF
330
1F
100
AcDbEntity
  8
ceco.net 369
  6
Continuous
100
AcDbLine
 10
-52.20600000000195
 20
167.6027294117639
 30
0.0
 11
-72.79500000000189
 21
25.61110588235306
 31
0.0
  0
LINE
  5
1D0
330
1F
100
AcDbEntity
  8
ceco.net 369
  6
Continuous
100
AcDbLine
 10
-72.79500000000189
 20
25.61110588235306
 30
0.0
 11
-72.80200000000331
 21
25.33440000000018
 31
0.0
  0
LINE
  5
1D1
330
1F
100
AcDbEntity
  8
ceco.net 369
  6
Continuous
100
AcDbLine
 10
-72.80200000000331
 20
25.33440000000018
 30
0.0
 11
-73.06500000000233
 21
24.19101176470576
 31
0.0
  0
LINE
  5
1D2
330
1F
100
AcDbEntity
  8
ceco.net 369
  6
Continuous
100
AcDbLine
 10
-73.06500000000233
 20
24.19101176470576
 30
0.0
 11
-73.52400000000125
 21
23.11087058823523
 31
0.0
  0
LINE
  5
1D3
330
1F
100
AcDbEntity
  8
ceco.net 369
  6
Continuous
100
AcDbLine
 10
-73.52400000000125
 20
23.11087058823523
 30
0.0
 11
-74.16700000000128
 21
22.12658823529455
 31
0.0
  0
LINE
  5
1D4
330
1F
100
AcDbEntity
  8
ceco.net 369
  6
Continuous
100
AcDbLine
 10
-74.16700000000128
 20
22.12658823529455
 30
0.0
 11
-74.97300000000541
 21
21.26682352941134
 31
0.0
  0
LINE
  5
1D5
330
1F
100
AcDbEntity
  8
ceco.net 369
  6
Continuous
100
AcDbLine
 10
-74.97300000000541
 20
21.26682352941134
 30
0.0
 11
-75.91700000000128
 21
20.55825882352928
 31
0.0
  0
LINE
  5
1D6
330
1F
100
AcDbEntity
  8
ceco.net 369
  6
Continuous
100
AcDbLine
 10
-75.91700000000128
 20
20.55825882352928
 30
0.0
 11
-76.97200000000157
 21
20.02263529411766
 31
0.0
  0
LINE
  5
1D7
330
1F
100
AcDbEntity
  8
ceco.net 369
  6
Continuous
100
AcDbLine
 10
-76.97200000000157
 20
20.02263529411766
 30
0.0
 11
-78.1050000000032
 21
19.6757647058821
 31
0.0
  0
LINE
  5
1D8
330
1F
100
AcDbEntity
  8
ceco.net 369
  6
Continuous
100
AcDbLine
 10
-78.1050000000032
 20
19.6757647058821
 30
0.0
 11
-78.69300000000293
 21
19.60263529411759
 31
0.0
  0
LINE
  5
1D9
330
1F
100
AcDbEntity
  8
ceco.net 369
  6
Continuous
100
AcDbLine
 10
-78.69300000000293
 20
19.60263529411759
 30
0.0
 11
-79.33499999999913
 21
19.46724705882388
 31
0.0
  0
LINE
  5
1DA
330
1F
100
AcDbEntity
  8
ceco.net 369
  6
Continuous
100
AcDbLine
 10
-79.33499999999913
 20
19.46724705882388
 30
0.0
 11
-80.55200000000331
 21
18.98202352941143
 31
0.0
  0
LINE
  5
1DB
330
1F
100
AcDbEntity
  8
ceco.net 369
  6
Continuous
100
AcDbLine
 10
-80.55200000000331
 20
18.98202352941143
 30
0.0
 11
-81.66400000000066
 21
18.29421176470623
 31
0.0
  0
LINE
  5
1DC
330
1F
100
AcDbEntity
  8
ceco.net 369
  6
Continuous
100
AcDbLine
 10
-81.66400000000066
 20
18.29421176470623
 30
0.0
 11
-82.64000000000306
 21
17.42654117647043
 31
0.0
  0
LINE
  5
1DD
330
1F
100
AcDbEntity
  8
ceco.net 369
  6
Continuous
100
AcDbLine
 10
-82.64000000000306
 20
17.42654117647043
 30
0.0
 11
-83.44700000000011
 21
16.40470588235302
 31
0.0
  0
LINE
  5
1DE
330
1F
100
AcDbEntity
  8
ceco.net 369
  6
Continuous
100
AcDbLine
 10
-83.44700000000011
 20
16.40470588235302
 30
0.0
 11
-84.06300000000191
 21
15.25934117647057
 31
0.0
  0
LINE
  5
1DF
330
1F
100
AcDbEntity
  8
ceco.net 369
  6
Continuous
100
AcDbLine
 10
-84.06300000000191
 20
15.25934117647057
 30
0.0
 11
-84.46900000000097
 21
14.02602352941175
 31
0.0
  0
LINE
  5
1E0
330
1F
100
AcDbEntity
  8
ceco.net 369
  6
Continuous
100
AcDbLine
 10
-84.46900000000097
 20
14.02602352941175
 30
0.0
 11
-84.55700000000069
 21
13.40343529411757
 31
0.0
  0
LINE
  5
1E1
330
1F
100
AcDbEntity
  8
ceco.net 369
  6
Continuous
100
AcDbLine
 10
-84.55700000000069
 20
13.40343529411757
 30
0.0
 11
-86.5
 21
0.0
 31
0.0
  0
LINE
  5
1E2
330
1F
100
AcDbEntity
  8
ceco.net 369
  6
Continuous
100
AcDbLine
 10
102.0126055886285
 20
390.2956235294123
 30
0.0
 11
64.02634270601993
 21
390.2956235294123
 31
0.0
  0
LINE
  5
1E3
330
1F
100
AcDbEntity
  8
ceco.net 369
  6
Continuous
100
AcDbLine
 10
64.02634270601993
 20
390.2956235294123
 30
0.0
 11
21.82138452908839
 21
390.2956235294123
 31
0.0
  0
LINE
  5
1E4
330
1F
100
AcDbEntity
  8
ceco.net 369
  6
Continuous
100
AcDbLine
 10
21.82138452908839
 20
390.2956235294123
 30
0.0
 11
0.0
 21
390.2956235294123
 31
0.0
  0
LINE
  5
1E5
330
1F
100
AcDbEntity
  8
ceco.net 369
  6
Continuous
100
AcDbLine
 10
120.0000065740459
 20
340.9411764705883
 30
0.0
 11
75.31580534877503
 21
340.9411764705883
 31
0.0
  0
LINE
  5
1E6
330
1F
100
AcDbEntity
  8
ceco.net 369
  6
Continuous
100
AcDbLine
 10
75.31580534877503
 20
340.9411764705883
 30
0.0
 11
25.6690462108636
 21
340.9411764705883
 31
0.0
  0
LINE
  5
1E7
330
1F
100
AcDbEntity
  8
ceco.net 369
  6
Continuous
100
AcDbLine
 10
25.6690462108636
 20
340.9411764705883
 30
0.0
 11
0.0
 21
340.9411764705883
 31
0.0
  0
LINE
  5
1E8
330
1F
100
AcDbEntity
  8
ceco.net 369
  6
Continuous
100
AcDbLine
 10
69.32280379776057
 20
231.2480470588234
 30
0.0
 11
43.50918759193518
 21
231.2480470588234
 31
0.0
  0
LINE
  5
1E9
330
1F
100
AcDbEntity
  8
ceco.net 369
  6
Continuous
100
AcDbLine
 10
43.50918759193518
 20
231.2480470588234
 30
0.0
 11
14.82875130555476
 21
231.2480470588234
 31
0.0
  0
LINE
  5
1EA
330
1F
100
AcDbEntity
  8
ceco.net 369
  6
Continuous
100
AcDbLine
 10
14.82875130555476
 20
231.2480470588234
 30
0.0
 11
0.0
 21
231.2480470588234
 31
0.0
  0
LINE
  5
1EB
330
1F
100
AcDbEntity
  8
ceco.net 369
  6
Continuous
100
AcDbLine
 10
52.67700288584092
 20
25.61110588235306
 30
0.0
 11
33.06175565297962
 21
25.61110588235306
 31
0.0
  0
LINE
  5
1EC
330
1F
100
AcDbEntity
  8
ceco.net 369
  6
Continuous
100
AcDbLine
 10
33.06175565297962
 20
25.61110588235306
 30
0.0
 11
11.268069560414
 21
25.61110588235306
 31
0.0
  0
LINE
  5
1ED
330
1F
100
AcDbEntity
  8
ceco.net 369
  6
Continuous
100
AcDbLine
 10
11.268069560414
 20
25.61110588235306
 30
0.0
 11
0.0
 21
25.61110588235351
 31
0.0
  0
LINE
  5
1EE
330
1F
100
AcDbEntity
  8
ceco.net 369
  6
Continuous
100
AcDbLine
 10
60.90000333632634
 20
0.0
 30
0.0
 11
38.22277121450315
 21
0.0
 31
0.0
  0
LINE
  5
1EF
330
1F
100
AcDbEntity
  8
ceco.net 369
  6
Continuous
100
AcDbLine
 10
38.22277121450315
 20
0.0
 30
0.0
 11
13.02704095201625
 21
0.0
 31
0.0
  0
LINE
  5
1F0
330
1F
100
AcDbEntity
  8
ceco.net 369
  6
Continuous
100
AcDbLine
 10
13.02704095201625
 20
0.0
 30
0.0
 11
0.0
 21
0.0
 31
0.0
  0
LINE
  5
1F1
330
1F
100
AcDbEntity
  8
ceco.net 369
  6
Continuous
100
AcDbLine
 10
155.0210000000006
 20
390.2956235294123
 30
0.0
 11
151.4759296460033
 21
390.2956235294123
 31
0.0
  0
LINE
  5
1F2
330
1F
100
AcDbEntity
  8
ceco.net 369
  6
Continuous
100
AcDbLine
 10
151.4759296460033
 20
390.2956235294123
 30
0.0
 11
141.0303869960407
 21
390.2956235294123
 31
0.0
  0
LINE
  5
1F3
330
1F
100
AcDbEntity
  8
ceco.net 369
  6
Continuous
100
AcDbLine
 10
141.0303869960407
 20
390.2956235294123
 30
0.0
 11
124.2432296436891
 21
390.2956235294123
 31
0.0
  0
LINE
  5
1F4
330
1F
100
AcDbEntity
  8
ceco.net 369
  6
Continuous
100
AcDbLine
 10
124.2432296436891
 20
390.2956235294123
 30
0.0
 11
102.0126043559939
 21
390.2956235294123
 31
0.0
  0
LINE
  5
1F5
330
1F
100
AcDbEntity
  8
ceco.net 369
  6
Continuous
100
AcDbLine
 10
185.0
 20
340.9411764705883
 30
0.0
 11
180.6529611720106
 21
340.9411764705883
 31
0.0
  0
LINE
  5
1F6
330
1F
100
AcDbEntity
  8
ceco.net 369
  6
Continuous
100
AcDbLine
 10
180.6529611720106
 20
340.9411764705883
 30
0.0
 11
167.8444200304584
 21
340.9411764705883
 31
0.0
  0
LINE
  5
1F7
330
1F
100
AcDbEntity
  8
ceco.net 369
  6
Continuous
100
AcDbLine
 10
167.8444200304584
 20
340.9411764705883
 30
0.0
 11
147.2596593528505
 21
340.9411764705883
 31
0.0
  0
LINE
  5
1F8
330
1F
100
AcDbEntity
  8
ceco.net 369
  6
Continuous
100
AcDbLine
 10
147.2596593528505
 20
340.9411764705883
 30
0.0
 11
120.0000053414114
 21
340.9411764705883
 31
0.0
  0
LINE
  5
1F9
330
1F
100
AcDbEntity
  8
ceco.net 369
  6
Continuous
100
AcDbLine
 10
100.5380000000004
 20
231.2480470588234
 30
0.0
 11
98.45040482425247
 21
231.2480470588234
 31
0.0
  0
LINE
  5
1FA
330
1F
100
AcDbEntity
  8
ceco.net 369
  6
Continuous
100
AcDbLine
 10
98.45040482425247
 20
231.2480470588234
 30
0.0
 11
92.29930984822932
 21
231.2480470588234
 31
0.0
  0
LINE
  5
1FB
330
1F
100
AcDbEntity
  8
ceco.net 369
  6
Continuous
100
AcDbLine
 10
92.29930984822932
 20
231.2480470588234
 30
0.0
 11
82.41381105586333
 21
231.2480470588234
 31
0.0
  0
LINE
  5
1FC
330
1F
100
AcDbEntity
  8
ceco.net 369
  6
Continuous
100
AcDbLine
 10
82.41381105586333
 20
231.2480470588234
 30
0.0
 11
69.32280256512604
 21
231.2480470588234
 31
0.0
  0
LINE
  5
1FD
330
1F
100
AcDbEntity
  8
ceco.net 369
  6
Continuous
100
AcDbLine
 10
72.79500000000189
 20
25.61110588235306
 30
0.0
 11
71.44955804397614
 21
25.61110588235306
 31
0.0
  0
LINE
  5
1FE
330
1F
100
AcDbEntity
  8
ceco.net 369
  6
Continuous
100
AcDbLine
 10
71.44955804397614
 20
25.61110588235306
 30
0.0
 11
67.4852160334267
 21
25.61110588235306
 31
0.0
  0
LINE
  5
1FF
330
1F
100
AcDbEntity
  8
ceco.net 369
  6
Continuous
100
AcDbLine
 10
67.4852160334267
 20
25.61110588235306
 30
0.0
 11
61.11407425939614
 21
25.61110588235306
 31
0.0
  0
LINE
  5
200
330
1F
100
AcDbEntity
  8
ceco.net 369
  6
Continuous
100
AcDbLine
 10
61.11407425939614
 20
25.61110588235306
 30
0.0
 11
52.67700165321002
 21
25.61110588235306
 31
0.0
  0
LINE
  5
201
330
1F
100
AcDbEntity
  8
ceco.net 369
  6
Continuous
100
AcDbLine
 10
86.5
 20
0.0
 30
0.0
 11
84.78793547697568
 21
0.0
 31
0.0
  0
LINE
  5
202
330
1F
100
AcDbEntity
  8
ceco.net 369
  6
Continuous
100
AcDbLine
 10
84.78793547697568
 20
0.0
 30
0.0
 11
79.74334081199777
 21
0.0
 31
0.0
  0
LINE
  5
203
330
1F
100
AcDbEntity
  8
ceco.net 369
  6
Continuous
100
AcDbLine
 10
79.74334081199777
 20
0.0
 30
0.0
 11
71.63611199127626
 21
0.0
 31
0.0
  0
LINE
  5
204
330
1F
100
AcDbEntity
  8
ceco.net 369
  6
Continuous
100
AcDbLine
 10
71.63611199127626
 20
0.0
 30
0.0
 11
60.90000210369908
 21
0.0
 31
0.0
  0
LINE
  5
205
330
1F
100
AcDbEntity
  8
ceco.net 369
  6
Continuous
100
AcDbLine
 10
155.0210000000006
 20
390.2956235294123
 30
0.0
 11
156.6779999999998
 21
385.1469176470582
 31
0.0
  0
LINE
  5
206
330
1F
100
AcDbEntity
  8
ceco.net 369
  6
Continuous
100
AcDbLine
 10
156.6779999999998
 20
385.1469176470582
 30
0.0
 11
159.4470000000001
 21
379.9280470588228
 31
0.0
  0
LINE
  5
207
330
1F
100
AcDbEntity
  8
ceco.net 369
  6
Continuous
100
AcDbLine
 10
159.4470000000001
 20
379.9280470588228
 30
0.0
 11
160.398000000001
 21
378.1689882352939
 31
0.0
  0
LINE
  5
208
330
1F
100
AcDbEntity
  8
ceco.net 369
  6
Continuous
100
AcDbLine
 10
160.398000000001
 20
378.1689882352939
 30
0.0
 11
162.7040000000051
 21
375.262588235294
 31
0.0
  0
LINE
  5
209
330
1F
100
AcDbEntity
  8
ceco.net 369
  6
Continuous
100
AcDbLine
 10
162.7040000000051
 20
375.262588235294
 30
0.0
 11
165.4870000000009
 21
372.7959529411764
 31
0.0
  0
LINE
  5
20A
330
1F
100
AcDbEntity
  8
ceco.net 369
  6
Continuous
100
AcDbLine
 10
165.4870000000009
 20
372.7959529411764
 30
0.0
 11
167.0730000000039
 21
371.8195764705878
 31
0.0
  0
LINE
  5
20B
330
1F
100
AcDbEntity
  8
ceco.net 369
  6
Continuous
100
AcDbLine
 10
167.0730000000039
 20
371.8195764705878
 30
0.0
 11
169.8070000000007
 21
370.2403764705877
 31
0.0
  0
LINE
  5
20C
330
1F
100
AcDbEntity
  8
ceco.net 369
  6
Continuous
100
AcDbLine
 10
169.8070000000007
 20
370.2403764705877
 30
0.0
 11
174.6360000000022
 21
366.1915764705881
 31
0.0
  0
LINE
  5
20D
330
1F
100
AcDbEntity
  8
ceco.net 369
  6
Continuous
100
AcDbLine
 10
174.6360000000022
 20
366.1915764705881
 30
0.0
 11
178.6810000000041
 21
361.3749176470582
 31
0.0
  0
LINE
  5
20E
330
1F
100
AcDbEntity
  8
ceco.net 369
  6
Continuous
100
AcDbLine
 10
178.6810000000041
 20
361.3749176470582
 30
0.0
 11
181.8170000000027
 21
355.9376470588231
 31
0.0
  0
LINE
  5
20F
330
1F
100
AcDbEntity
  8
ceco.net 369
  6
Continuous
100
AcDbLine
 10
181.8170000000027
 20
355.9376470588231
 30
0.0
 11
183.9510000000009
 21
350.0447999999996
 31
0.0
  0
LINE
  5
210
330
1F
100
AcDbEntity
  8
ceco.net 369
  6
Continuous
100
AcDbLine
 10
183.9510000000009
 20
350.0447999999996
 30
0.0
 11
185.0169999999998
 21
343.8752470588233
 31
0.0
  0
LINE
  5
211
330
1F
100
AcDbEntity
  8
ceco.net 369
  6
Continuous
100
AcDbLine
 10
185.0169999999998
 20
343.8752470588233
 30
0.0
 11
185.0
 21
340.9411764705883
 31
0.0
  0
LINE
  5
212
330
1F
100
AcDbEntity
  8
ceco.net 369
  6
Continuous
100
AcDbLine
 10
185.0
 20
340.9411764705883
 30
0.0
 11
176.4789999999993
 21
330.7257882352942
 31
0.0
  0
LINE
  5
213
330
1F
100
AcDbEntity
  8
ceco.net 369
  6
Continuous
100
AcDbLine
 10
176.4789999999993
 20
330.7257882352942
 30
0.0
 11
175.8020000000033
 21
310.0973647058826
 31
0.0
  0
LINE
  5
214
330
1F
100
AcDbEntity
  8
ceco.net 369
  6
Continuous
100
AcDbLine
 10
175.8020000000033
 20
310.0973647058826
 30
0.0
 11
172.2040000000015
 21
293.9565176470587
 31
0.0
  0
LINE
  5
215
330
1F
100
AcDbEntity
  8
ceco.net 369
  6
Continuous
100
AcDbLine
 10
172.2040000000015
 20
293.9565176470587
 30
0.0
 11
170.0310000000026
 21
287.319529411764
 31
0.0
  0
LINE
  5
216
330
1F
100
AcDbEntity
  8
ceco.net 369
  6
Continuous
100
AcDbLine
 10
170.0310000000026
 20
287.319529411764
 30
0.0
 11
163.4200000000018
 21
274.9932705882356
 31
0.0
  0
LINE
  5
217
330
1F
100
AcDbEntity
  8
ceco.net 369
  6
Continuous
100
AcDbLine
 10
163.4200000000018
 20
274.9932705882356
 30
0.0
 11
154.742000000002
 21
263.9892705882348
 31
0.0
  0
LINE
  5
218
330
1F
100
AcDbEntity
  8
ceco.net 369
  6
Continuous
100
AcDbLine
 10
154.742000000002
 20
263.9892705882348
 30
0.0
 11
144.262999999999
 21
254.6405647058818
 31
0.0
  0
LINE
  5
219
330
1F
100
AcDbEntity
  8
ceco.net 369
  6
Continuous
100
AcDbLine
 10
144.262999999999
 20
254.6405647058818
 30
0.0
 11
142.4680000000007
 21
253.7126117647058
 31
0.0
  0
LINE
  5
21A
330
1F
100
AcDbEntity
  8
ceco.net 369
  6
Continuous
100
AcDbLine
 10
142.4680000000007
 20
253.7126117647058
 30
0.0
 11
129.4220000000023
 21
244.6406117647057
 31
0.0
  0
LINE
  5
21B
330
1F
100
AcDbEntity
  8
ceco.net 369
  6
Continuous
100
AcDbLine
 10
129.4220000000023
 20
244.6406117647057
 30
0.0
 11
100.5380000000004
 21
231.2480470588234
 31
0.0
  0
LINE
  5
21C
330
1F
100
AcDbEntity
  8
ceco.net 369
  6
Continuous
100
AcDbLine
 10
98.49562329076434
 20
231.2480470587661
 30
0.0
 11
83.34100000000034
 21
224.9836235294123
 31
0.0
  0
LINE
  5
21D
330
1F
100
AcDbEntity
  8
ceco.net 369
  6
Continuous
100
AcDbLine
 10
83.34100000000034
 20
224.9836235294123
 30
0.0
 11
82.87900000000082
 21
224.7928941176469
 31
0.0
  0
LINE
  5
21E
330
1F
100
AcDbEntity
  8
ceco.net 369
  6
Continuous
100
AcDbLine
 10
82.87900000000082
 20
224.7928941176469
 30
0.0
 11
82.17399999999907
 21
224.6911058823525
 31
0.0
  0
LINE
  5
21F
330
1F
100
AcDbEntity
  8
ceco.net 369
  6
Continuous
100
AcDbLine
 10
82.17399999999907
 20
224.6911058823525
 30
0.0
 11
74.35400000000299
 21
220.2944470588235
 31
0.0
  0
LINE
  5
220
330
1F
100
AcDbEntity
  8
ceco.net 369
  6
Continuous
100
AcDbLine
 10
74.35400000000299
 20
220.2944470588235
 30
0.0
 11
70.88900000000285
 21
217.458211764706
 31
0.0
  0
LINE
  5
221
330
1F
100
AcDbEntity
  8
ceco.net 369
  6
Continuous
100
AcDbLine
 10
70.88900000000285
 20
217.458211764706
 30
0.0
 11
69.32200000000012
 21
216.3424941176472
 31
0.0
  0
LINE
  5
222
330
1F
100
AcDbEntity
  8
ceco.net 369
  6
Continuous
100
AcDbLine
 10
69.32200000000012
 20
216.3424941176472
 30
0.0
 11
62.73500000000058
 21
209.0750117647057
 31
0.0
  0
LINE
  5
223
330
1F
100
AcDbEntity
  8
ceco.net 369
  6
Continuous
100
AcDbLine
 10
62.73500000000058
 20
209.0750117647057
 30
0.0
 11
57.52600000000166
 21
200.7876705882354
 31
0.0
  0
LINE
  5
224
330
1F
100
AcDbEntity
  8
ceco.net 369
  6
Continuous
100
AcDbLine
 10
57.52600000000166
 20
200.7876705882354
 30
0.0
 11
53.85200000000259
 21
191.7314823529413
 31
0.0
  0
LINE
  5
225
330
1F
100
AcDbEntity
  8
ceco.net 369
  6
Continuous
100
AcDbLine
 10
53.85200000000259
 20
191.7314823529413
 30
0.0
 11
51.82500000000437
 21
182.1831529411765
 31
0.0
  0
LINE
  5
226
330
1F
100
AcDbEntity
  8
ceco.net 369
  6
Continuous
100
AcDbLine
 10
51.82500000000437
 20
182.1831529411765
 30
0.0
 11
51.50600000000122
 21
172.4312470588238
 31
0.0
  0
LINE
  5
227
330
1F
100
AcDbEntity
  8
ceco.net 369
  6
Continuous
100
AcDbLine
 10
51.50600000000122
 20
172.4312470588238
 30
0.0
 11
52.20600000000195
 21
167.6027294117639
 31
0.0
  0
LINE
  5
228
330
1F
100
AcDbEntity
  8
ceco.net 369
  6
Continuous
100
AcDbLine
 10
52.20600000000195
 20
167.6027294117639
 30
0.0
 11
72.79500000000189
 21
25.61110588235306
 31
0.0
  0
LINE
  5
229
330
1F
100
AcDbEntity
  8
ceco.net 369
  6
Continuous
100
AcDbLine
 10
72.79500000000189
 20
25.61110588235306
 30
0.0
 11
72.80200000000331
 21
25.33440000000018
 31
0.0
  0
LINE
  5
22A
330
1F
100
AcDbEntity
  8
ceco.net 369
  6
Continuous
100
AcDbLine
 10
72.80200000000331
 20
25.33440000000018
 30
0.0
 11
73.06500000000233
 21
24.19101176470576
 31
0.0
  0
LINE
  5
22B
330
1F
100
AcDbEntity
  8
ceco.net 369
  6
Continuous
100
AcDbLine
 10
73.06500000000233
 20
24.19101176470576
 30
0.0
 11
73.52400000000125
 21
23.11087058823523
 31
0.0
  0
LINE
  5
22C
330
1F
100
AcDbEntity
  8
ceco.net 369
  6
Continuous
100
AcDbLine
 10
73.52400000000125
 20
23.11087058823523
 30
0.0
 11
74.16700000000128
 21
22.12658823529455
 31
0.0
  0
LINE
  5
22D
330
1F
100
AcDbEntity
  8
ceco.net 369
  6
Continuous
100
AcDbLine
 10
74.16700000000128
 20
22.12658823529455
 30
0.0
 11
74.97300000000541
 21
21.26682352941134
 31
0.0
  0
LINE
  5
22E
330
1F
100
AcDbEntity
  8
ceco.net 369
  6
Continuous
100
AcDbLine
 10
74.97300000000541
 20
21.26682352941134
 30
0.0
 11
75.91700000000128
 21
20.55825882352928
 31
0.0
  0
LINE
  5
22F
330
1F
100
AcDbEntity
  8
ceco.net 369
  6
Continuous
100
AcDbLine
 10
75.91700000000128
 20
20.55825882352928
 30
0.0
 11
76.97200000000157
 21
20.02263529411766
 31
0.0
  0
LINE
  5
230
330
1F
100
AcDbEntity
  8
ceco.net 369
  6
Continuous
100
AcDbLine
 10
76.97200000000157
 20
20.02263529411766
 30
0.0
 11
78.1050000000032
 21
19.6757647058821
 31
0.0
  0
LINE
  5
231
330
1F
100
AcDbEntity
  8
ceco.net 369
  6
Continuous
100
AcDbLine
 10
78.1050000000032
 20
19.6757647058821
 30
0.0
 11
78.69300000000293
 21
19.60263529411759
 31
0.0
  0
LINE
  5
232
330
1F
100
AcDbEntity
  8
ceco.net 369
  6
Continuous
100
AcDbLine
 10
78.69300000000293
 20
19.60263529411759
 30
0.0
 11
79.33499999999913
 21
19.46724705882388
 31
0.0
  0
LINE
  5
233
330
1F
100
AcDbEntity
  8
ceco.net 369
  6
Continuous
100
AcDbLine
 10
79.33499999999913
 20
19.46724705882388
 30
0.0
 11
80.55200000000331
 21
18.98202352941143
 31
0.0
  0
LINE
  5
234
330
1F
100
AcDbEntity
  8
ceco.net 369
  6
Continuous
100
AcDbLine
 10
80.55200000000331
 20
18.98202352941143
 30
0.0
 11
81.66400000000066
 21
18.29421176470623
 31
0.0
  0
LINE
  5
235
330
1F
100
AcDbEntity
  8
ceco.net 369
  6
Continuous
100
AcDbLine
 10
81.66400000000066
 20
18.29421176470623
 30
0.0
 11
82.64000000000306
 21
17.42654117647043
 31
0.0
  0
LINE
  5
236
330
1F
100
AcDbEntity
  8
ceco.net 369
  6
Continuous
100
AcDbLine
 10
82.64000000000306
 20
17.42654117647043
 30
0.0
 11
83.44700000000011
 21
16.40470588235302
 31
0.0
  0
LINE
  5
237
330
1F
100
AcDbEntity
  8
ceco.net 369
  6
Continuous
100
AcDbLine
 10
83.44700000000011
 20
16.40470588235302
 30
0.0
 11
84.06300000000191
 21
15.25934117647057
 31
0.0
  0
LINE
  5
238
330
1F
100
AcDbEntity
  8
ceco.net 369
  6
Continuous
100
AcDbLine
 10
84.06300000000191
 20
15.25934117647057
 30
0.0
 11
84.46900000000097
 21
14.02602352941175
 31
0.0
  0
LINE
  5
239
330
1F
100
AcDbEntity
  8
ceco.net 369
  6
Continuous
100
AcDbLine
 10
84.46900000000097
 20
14.02602352941175
 30
0.0
 11
84.55700000000069
 21
13.40343529411757
 31
0.0
  0
LINE
  5
23A
330
1F
100
AcDbEntity
  8
ceco.net 369
  6
Continuous
100
AcDbLine
 10
84.55700000000069
 20
13.40343529411757
 30
0.0
 11
86.5
 21
0.0
 31
0.0
  0
LINE
  5
23B
330
1F
100
AcDbEntity
  8
ceco.net 369
100
AcDbLine
 10
-98.30315176850128
 20
420.4380202325346
 30
0.0
 11
-101.5593523341995
 21
393.8641404844038
 31
0.0
  0
ARC
  5
23C
330
1F
100
AcDbEntity
  8
ceco.net 369
100
AcDbCircle
 10
-99.57419989623303
 20
393.6208920557674
 30
0.0
 40
2.0
100
AcDbArc
 50
173.0141501221935
 51
180.0
  0
ARC
  5
23D
330
1F
100
AcDbEntity
  8
ceco.net 369
100
AcDbCircle
 10
-96.3179993305348
 20
420.1947718038982
 30
0.0
 40
2.0
100
AcDbArc
 50
90.0
 51
173.0141501221935
  0
LINE
  5
23E
330
1F
100
AcDbEntity
  8
ceco.net 369
100
AcDbLine
 10
-101.574199896233
 20
393.6208920557674
 30
0.0
 11
-101.574199896233
 21
390.2956235294123
 31
0.0
  0
LINE
  5
23F
330
1F
100
AcDbEntity
  8
ceco.net 369
100
AcDbLine
 10
-101.574199896233
 20
390.2956235294123
 30
0.0
 11
-60.24036128084844
 21
390.2956235294123
 31
0.0
  0
ARC
  5
240
330
1F
100
AcDbEntity
  8
ceco.net 369
100
AcDbCircle
 10
-100.3253211737683
 20
430.1537913423644
 30
0.0
 40
5.0
100
AcDbArc
 50
180.0
 51
270.0
  0
ARC
  5
241
330
1F
100
AcDbEntity
  8
ceco.net 369
100
AcDbCircle
 10
-100.3253211737683
 20
430.1537913423644
 30
0.0
 40
5.0
100
AcDbArc
 50
90.0
 51
180.0
  0
ARC
  5
242
330
1F
100
AcDbEntity
  8
ceco.net 369
100
AcDbCircle
 10
-60.32532117376831
 20
430.1537913423644
 30
0.0
 40
5.0
100
AcDbArc
 50
0.0
 51
90.0
  0
LINE
  5
243
330
1F
100
AcDbEntity
  8
ceco.net 369
100
AcDbLine
 10
-60.32532117376831
 20
425.1537913423645
 30
0.0
 11
-100.3253211737683
 21
425.1537913423645
 31
0.0
  0
ARC
  5
244
330
1F
100
AcDbEntity
  8
ceco.net 369
100
AcDbCircle
 10
-60.32532117376831
 20
430.1537913423644
 30
0.0
 40
5.0
100
AcDbArc
 50
270.0
 51
0.0
  0
LINE
  5
245
330
1F
100
AcDbEntity
  8
ceco.net 369
100
AcDbLine
 10
-60.32532117376831
 20
435.1537913423644
 30
0.0
 11
-100.3253211737683
 21
435.1537913423644
 31
0.0
  0
LINE
  5
246
330
1F
100
AcDbEntity
  8
ceco.net 369
100
AcDbLine
 10
-80.32532117376831
 20
435.1537913423644
 30
0.0
 11
-80.32531070026744
 21
425.1537913423645
 31
0.0
  0
ARC
  5
247
330
1F
100
AcDbEntity
  8
ceco.net 369
100
AcDbCircle
 10
-80.32532117376831
 20
429.2239915950476
 30
0.0
 40
8.708578599012108
100
AcDbArc
 50
42.91516740158721
 51
137.0848325984127
  0
LINE
  5
248
330
1F
100
AcDbEntity
  8
ceco.net 369
100
AcDbLine
 10
-88.98555426456733
 20
435.1537913423644
 30
0.0
 11
-88.98555426456733
 21
425.1537913423645
 31
0.0
  0
LINE
  5
249
330
1F
100
AcDbEntity
  8
ceco.net 369
100
AcDbLine
 10
-71.66506713596755
 20
435.1537913423644
 30
0.0
 11
-71.66506713596755
 21
425.1537913423645
 31
0.0
  0
LINE
  5
24A
330
1F
100
AcDbEntity
  8
ceco.net 369
100
AcDbLine
 10
-86.70315906539689
 20
425.1537913423649
 30
0.0
 11
-86.70315906539689
 21
422.1947718038982
 31
0.0
  0
LINE
  5
24B
330
1F
100
AcDbEntity
  8
ceco.net 369
100
AcDbLine
 10
-73.94748328213609
 20
425.1537913423649
 30
0.0
 11
-73.94748328213609
 21
422.1947718038982
 31
0.0
  0
LINE
  5
24C
330
1F
100
AcDbEntity
  8
ceco.net 369
100
AcDbLine
 10
-96.3179993305348
 20
422.1947718038982
 30
0.0
 11
-80.32531070026744
 21
422.1947718038982
 31
0.0
  0
LINE
  5
24D
330
1F
100
AcDbEntity
  8
ceco.net 369
100
AcDbLine
 10
-101.574199896233
 20
390.2956235294123
 30
0.0
 11
-80.32531070026744
 21
390.2956235294123
 31
0.0
  0
LINE
  5
24E
330
1F
100
AcDbEntity
  8
ceco.net 369
100
AcDbLine
 10
-62.34748531521836
 20
420.4380256417639
 30
0.0
 11
-59.09127675388299
 21
393.8641468733708
 31
0.0
  0
ARC
  5
24F
330
1F
100
AcDbEntity
  8
ceco.net 369
100
AcDbCircle
 10
-61.0764291186606
 20
393.6208978474351
 30
0.0
 40
1.999999999999999
100
AcDbArc
 50
0.0000172393334738
 51
6.985867117161983
  0
ARC
  5
250
330
1F
100
AcDbEntity
  8
ceco.net 369
100
AcDbCircle
 10
-64.33263767999597
 20
420.1947766158282
 30
0.0
 40
1.999999999999999
100
AcDbArc
 50
6.985867117161983
 51
90.00001723930742
  0
LINE
  5
251
330
1F
100
AcDbEntity
  8
ceco.net 369
100
AcDbLine
 10
-59.0764291186606
 20
393.6208984492018
 30
0.0
 11
-59.07642811814366
 21
390.2956299228467
 31
0.0
  0
LINE
  5
252
330
1F
100
AcDbEntity
  8
ceco.net 369
100
AcDbLine
 10
-64.33263828176132
 20
422.1947766158282
 30
0.0
 11
-80.32532691202868
 21
422.1947718038959
 31
0.0
  0
LINE
  5
253
330
1F
100
AcDbEntity
  8
ceco.net 369
100
AcDbLine
 10
-59.07642811814366
 20
390.2956299228467
 30
0.0
 11
-80.32531731410927
 21
390.2956235294114
 31
0.0
  0
LINE
  5
254
330
1F
100
AcDbEntity
  8
ceco.net 369
100
AcDbLine
 10
-17.97784106823383
 20
420.4380202325346
 30
0.0
 11
-21.23404163393206
 21
393.8641404844038
 31
0.0
  0
ARC
  5
255
330
1F
100
AcDbEntity
  8
ceco.net 369
100
AcDbCircle
 10
-19.2488891959656
 20
393.6208920557674
 30
0.0
 40
2.0
100
AcDbArc
 50
173.0141501221935
 51
180.0
  0
ARC
  5
256
330
1F
100
AcDbEntity
  8
ceco.net 369
100
AcDbCircle
 10
-15.99268863026736
 20
420.1947718038982
 30
0.0
 40
2.0
100
AcDbArc
 50
90.0
 51
173.0141501221935
  0
LINE
  5
257
330
1F
100
AcDbEntity
  8
ceco.net 369
100
AcDbLine
 10
-21.2488891959656
 20
393.6208920557674
 30
0.0
 11
-21.2488891959656
 21
390.2956235294123
 31
0.0
  0
LINE
  5
258
330
1F
100
AcDbEntity
  8
ceco.net 369
100
AcDbLine
 10
-21.2488891959656
 20
390.2956235294123
 30
0.0
 11
20.08494941941898
 21
390.2956235294123
 31
0.0
  0
ARC
  5
259
330
1F
100
AcDbEntity
  8
ceco.net 369
100
AcDbCircle
 10
-20.00001047350087
 20
430.1537913423644
 30
0.0
 40
5.0
100
AcDbArc
 50
180.0
 51
270.0
  0
ARC
  5
25A
330
1F
100
AcDbEntity
  8
ceco.net 369
100
AcDbCircle
 10
-20.00001047350087
 20
430.1537913423644
 30
0.0
 40
5.0
100
AcDbArc
 50
90.0
 51
180.0
  0
ARC
  5
25B
330
1F
100
AcDbEntity
  8
ceco.net 369
100
AcDbCircle
 10
19.99998952649912
 20
430.1537913423644
 30
0.0
 40
5.0
100
AcDbArc
 50
0.0
 51
90.0
  0
LINE
  5
25C
330
1F
100
AcDbEntity
  8
ceco.net 369
100
AcDbLine
 10
19.99998952649912
 20
425.1537913423645
 30
0.0
 11
-20.00001047350087
 21
425.1537913423645
 31
0.0
  0
ARC
  5
25D
330
1F
100
AcDbEntity
  8
ceco.net 369
100
AcDbCircle
 10
19.99998952649912
 20
430.1537913423644
 30
0.0
 40
5.0
100
AcDbArc
 50
270.0
 51
0.0
  0
LINE
  5
25E
330
1F
100
AcDbEntity
  8
ceco.net 369
100
AcDbLine
 10
19.99998952649912
 20
435.1537913423644
 30
0.0
 11
-20.00001047350087
 21
435.1537913423644
 31
0.0
  0
LINE
  5
25F
330
1F
100
AcDbEntity
  8
ceco.net 369
100
AcDbLine
 10
-0.000010473500879
 20
435.1537913423644
 30
0.0
 11
0.0
 21
425.1537913423645
 31
0.0
  0
ARC
  5
260
330
1F
100
AcDbEntity
  8
ceco.net 369
100
AcDbCircle
 10
-0.000010473500879
 20
429.2239915950476
 30
0.0
 40
8.708578599012108
100
AcDbArc
 50
42.91516740158721
 51
137.0848325984127
  0
LINE
  5
261
330
1F
100
AcDbEntity
  8
ceco.net 369
100
AcDbLine
 10
-8.660243564299889
 20
435.1537913423644
 30
0.0
 11
-8.660243564299889
 21
425.1537913423645
 31
0.0
  0
LINE
  5
262
330
1F
100
AcDbEntity
  8
ceco.net 369
100
AcDbLine
 10
8.660243564299889
 20
435.1537913423644
 30
0.0
 11
8.660243564299889
 21
425.1537913423645
 31
0.0
  0
LINE
  5
263
330
1F
100
AcDbEntity
  8
ceco.net 369
100
AcDbLine
 10
-6.377848365129466
 20
425.1537913423649
 30
0.0
 11
-6.377848365129466
 21
422.1947718038982
 31
0.0
  0
LINE
  5
264
330
1F
100
AcDbEntity
  8
ceco.net 369
100
AcDbLine
 10
6.377827418131346
 20
425.1537913423649
 30
0.0
 11
6.377827418131346
 21
422.1947718038982
 31
0.0
  0
LINE
  5
265
330
1F
100
AcDbEntity
  8
ceco.net 369
100
AcDbLine
 10
-15.99268863026736
 20
422.1947718038982
 30
0.0
 11
0.0
 21
422.1947718038982
 31
0.0
  0
LINE
  5
266
330
1F
100
AcDbEntity
  8
ceco.net 369
100
AcDbLine
 10
-21.2488891959656
 20
390.2956235294123
 30
0.0
 11
0.0
 21
390.2956235294123
 31
0.0
  0
LINE
  5
267
330
1F
100
AcDbEntity
  8
ceco.net 369
100
AcDbLine
 10
17.97782538504907
 20
420.4380256417639
 30
0.0
 11
21.23403394638444
 21
393.8641468733708
 31
0.0
  0
ARC
  5
268
330
1F
100
AcDbEntity
  8
ceco.net 369
100
AcDbCircle
 10
19.24888158160683
 20
393.6208978474351
 30
0.0
 40
1.999999999999999
100
AcDbArc
 50
0.0000172393334738
 51
6.985867117161983
  0
ARC
  5
269
330
1F
100
AcDbEntity
  8
ceco.net 369
100
AcDbCircle
 10
15.99267302027146
 20
420.1947766158282
 30
0.0
 40
1.999999999999999
100
AcDbArc
 50
6.985867117161983
 51
90.00001723930742
  0
LINE
  5
26A
330
1F
100
AcDbEntity
  8
ceco.net 369
100
AcDbLine
 10
21.24888158160683
 20
393.6208984492018
 30
0.0
 11
21.24888258212377
 21
390.2956299228467
 31
0.0
  0
LINE
  5
26B
330
1F
100
AcDbEntity
  8
ceco.net 369
100
AcDbLine
 10
15.99267241850611
 20
422.1947766158282
 30
0.0
 11
-0.000016211761249
 21
422.1947718038959
 31
0.0
  0
LINE
  5
26C
330
1F
100
AcDbEntity
  8
ceco.net 369
100
AcDbLine
 10
21.24888258212377
 20
390.2956299228467
 30
0.0
 11
-0.0000066138418333
 21
390.2956235294114
 31
0.0
  0
LINE
  5
26D
330
1F
100
AcDbEntity
  8
ceco.net 369
100
AcDbLine
 10
62.3474696320336
 20
420.4380202325346
 30
0.0
 11
59.09126906633537
 21
393.8641404844038
 31
0.0
  0
ARC
  5
26E
330
1F
100
AcDbEntity
  8
ceco.net 369
100
AcDbCircle
 10
61.07642150430184
 20
393.6208920557674
 30
0.0
 40
2.0
100
AcDbArc
 50
173.0141501221935
 51
180.0
  0
ARC
  5
26F
330
1F
100
AcDbEntity
  8
ceco.net 369
100
AcDbCircle
 10
64.33262207000007
 20
420.1947718038982
 30
0.0
 40
2.0
100
AcDbArc
 50
90.0
 51
173.0141501221935
  0
LINE
  5
270
330
1F
100
AcDbEntity
  8
ceco.net 369
100
AcDbLine
 10
59.07642150430183
 20
393.6208920557674
 30
0.0
 11
59.07642150430183
 21
390.2956235294123
 31
0.0
  0
LINE
  5
271
330
1F
100
AcDbEntity
  8
ceco.net 369
100
AcDbLine
 10
59.07642150430183
 20
390.2956235294123
 30
0.0
 11
100.4102601196864
 21
390.2956235294123
 31
0.0
  0
ARC
  5
272
330
1F
100
AcDbEntity
  8
ceco.net 369
100
AcDbCircle
 10
60.32530022676656
 20
430.1537913423644
 30
0.0
 40
5.0
100
AcDbArc
 50
180.0
 51
270.0
  0
ARC
  5
273
330
1F
100
AcDbEntity
  8
ceco.net 369
100
AcDbCircle
 10
60.32530022676656
 20
430.1537913423644
 30
0.0
 40
5.0
100
AcDbArc
 50
90.0
 51
180.0
  0
ARC
  5
274
330
1F
100
AcDbEntity
  8
ceco.net 369
100
AcDbCircle
 10
100.3253002267665
 20
430.1537913423644
 30
0.0
 40
5.0
100
AcDbArc
 50
0.0
 51
90.0
  0
LINE
  5
275
330
1F
100
AcDbEntity
  8
ceco.net 369
100
AcDbLine
 10
100.3253002267665
 20
425.1537913423645
 30
0.0
 11
60.32530022676656
 21
425.1537913423645
 31
0.0
  0
ARC
  5
276
330
1F
100
AcDbEntity
  8
ceco.net 369
100
AcDbCircle
 10
100.3253002267665
 20
430.1537913423644
 30
0.0
 40
5.0
100
AcDbArc
 50
270.0
 51
0.0
  0
LINE
  5
277
330
1F
100
AcDbEntity
  8
ceco.net 369
100
AcDbLine
 10
100.3253002267665
 20
435.1537913423644
 30
0.0
 11
60.32530022676656
 21
435.1537913423644
 31
0.0
  0
LINE
  5
278
330
1F
100
AcDbEntity
  8
ceco.net 369
100
AcDbLine
 10
80.32530022676656
 20
435.1537913423644
 30
0.0
 11
80.32531070026744
 21
425.1537913423645
 31
0.0
  0
ARC
  5
279
330
1F
100
AcDbEntity
  8
ceco.net 369
100
AcDbCircle
 10
80.32530022676656
 20
429.2239915950476
 30
0.0
 40
8.708578599012108
100
AcDbArc
 50
42.91516740158721
 51
137.0848325984127
  0
LINE
  5
27A
330
1F
100
AcDbEntity
  8
ceco.net 369
100
AcDbLine
 10
71.66506713596755
 20
435.1537913423644
 30
0.0
 11
71.66506713596755
 21
425.1537913423645
 31
0.0
  0
LINE
  5
27B
330
1F
100
AcDbEntity
  8
ceco.net 369
100
AcDbLine
 10
88.98555426456733
 20
435.1537913423644
 30
0.0
 11
88.98555426456733
 21
425.1537913423645
 31
0.0
  0
LINE
  5
27C
330
1F
100
AcDbEntity
  8
ceco.net 369
100
AcDbLine
 10
73.94746233513797
 20
425.1537913423649
 30
0.0
 11
73.94746233513797
 21
422.1947718038982
 31
0.0
  0
LINE
  5
27D
330
1F
100
AcDbEntity
  8
ceco.net 369
100
AcDbLine
 10
86.70313811839879
 20
425.1537913423649
 30
0.0
 11
86.70313811839879
 21
422.1947718038982
 31
0.0
  0
LINE
  5
27E
330
1F
100
AcDbEntity
  8
ceco.net 369
100
AcDbLine
 10
64.33262207000007
 20
422.1947718038982
 30
0.0
 11
80.32531070026744
 21
422.1947718038982
 31
0.0
  0
LINE
  5
27F
330
1F
100
AcDbEntity
  8
ceco.net 369
100
AcDbLine
 10
59.07642150430183
 20
390.2956235294123
 30
0.0
 11
80.32531070026744
 21
390.2956235294123
 31
0.0
  0
LINE
  5
280
330
1F
100
AcDbEntity
  8
ceco.net 369
100
AcDbLine
 10
98.30313608531652
 20
420.4380256417639
 30
0.0
 11
101.5593446466518
 21
393.8641468733708
 31
0.0
  0
ARC
  5
281
330
1F
100
AcDbEntity
  8
ceco.net 369
100
AcDbCircle
 10
99.57419228187427
 20
393.6208978474351
 30
0.0
 40
1.999999999999999
100
AcDbArc
 50
0.0000172393334738
 51
6.985867117161983
  0
ARC
  5
282
330
1F
100
AcDbEntity
  8
ceco.net 369
100
AcDbCircle
 10
96.31798372053891
 20
420.1947766158282
 30
0.0
 40
1.999999999999999
100
AcDbArc
 50
6.985867117161983
 51
90.00001723930742
  0
LINE
  5
283
330
1F
100
AcDbEntity
  8
ceco.net 369
100
AcDbLine
 10
101.5741922818742
 20
393.6208984492018
 30
0.0
 11
101.5741932823912
 21
390.2956299228467
 31
0.0
  0
LINE
  5
284
330
1F
100
AcDbEntity
  8
ceco.net 369
100
AcDbLine
 10
96.31798311877355
 20
422.1947766158282
 30
0.0
 11
80.32529448850619
 21
422.1947718038959
 31
0.0
  0
LINE
  5
285
330
1F
100
AcDbEntity
  8
ceco.net 369
100
AcDbLine
 10
101.5741932823912
 20
390.2956299228467
 30
0.0
 11
80.32530408642561
 21
390.2956235294114
 31
0.0
  0
ENDSEC
  0
SECTION
  2
OBJECTS
  0
DICTIONARY
  5
C
330
0
100
AcDbDictionary
281
     1
  3
ACAD_GROUP
350
D
  3
ACAD_LAYOUT
350
1A
  3
ACAD_MLINESTYLE
350
17
  3
ACAD_PLOTSETTINGS
350
19
  3
ACAD_PLOTSTYLENAME
350
E
  3
AcDbVariableDictionary
350
5E
  0
DICTIONARY
  5
86
330
2
100
AcDbDictionary
280
     1
281
     1
  3
ACAD_LAYERFILTERS
360
286
  3
ACAD_LAYERSTATES
360
87
  0
DICTIONARY
  5
D
102
{ACAD_REACTORS
330
C
102
}
330
C
100
AcDbDictionary
281
     1
  0
DICTIONARY
  5
1A
102
{ACAD_REACTORS
330
C
102
}
330
C
100
AcDbDictionary
281
     1
  3
Layout1
350
51
  3
Layout2
350
56
  3
Model
350
22
  0
DICTIONARY
  5
17
102
{ACAD_REACTORS
330
C
102
}
330
C
100
AcDbDictionary
281
     1
  3
Standard
350
18
  0
DICTIONARY
  5
19
102
{ACAD_REACTORS
330
C
102
}
330
C
100
AcDbDictionary
281
     1
  0
ACDBDICTIONARYWDFLT
  5
E
102
{ACAD_REACTORS
330
C
102
}
330
C
100
AcDbDictionary
281
     1
  3
Normal
350
F
100
AcDbDictionaryWithDefault
340
F
  0
DICTIONARY
  5
5E
102
{ACAD_REACTORS
330
C
102
}
330
C
100
AcDbDictionary
281
     1
  3
DIMASSOC
350
5F
  3
HIDETEXT
350
63
  0
DICTIONARY
  5
286
102
{ACAD_REACTORS
330
86
102
}
330
86
100
AcDbDictionary
280
     1
281
     1
  0
DICTIONARY
  5
87
102
{ACAD_REACTORS
330
86
102
}
330
86
100
AcDbDictionary
281
     1
  0
LAYOUT
  5
51
102
{ACAD_REACTORS
330
1A
102
}
330
1A
100
AcDbPlotSettings
  1

  2
None
  4

  6

 40
0.0
 41
0.0
 42
0.0
 43
0.0
 44
0.0
 45
0.0
 46
0.0
 47
0.0
 48
0.0
 49
0.0
140
0.0
141
0.0
142
1.0
143
1.0
 70
   688
 72
     0
 73
     0
 74
     5
  7

 75
    16
147
1.0
148
0.0
149
0.0
100
AcDbLayout
  1
Layout1
 70
     1
 71
     1
 10
0.0
 20
0.0
 11
12.0
 21
9.0
 12
0.0
 22
0.0
 32
0.0
 14
0.0
 24
0.0
 34
0.0
 15
0.0
 25
0.0
 35
0.0
146
0.0
 13
0.0
 23
0.0
 33
0.0
 16
1.0
 26
0.0
 36
0.0
 17
0.0
 27
1.0
 37
0.0
 76
     0
330
50
  0
LAYOUT
  5
56
102
{ACAD_REACTORS
330
1A
102
}
330
1A
100
AcDbPlotSettings
  1

  2
None
  4

  6

 40
0.0
 41
0.0
 42
0.0
 43
0.0
 44
0.0
 45
0.0
 46
0.0
 47
0.0
 48
0.0
 49
0.0
140
0.0
141
0.0
142
1.0
143
1.0
 70
   688
 72
     0
 73
     0
 74
     5
  7

 75
    16
147
1.0
148
0.0
149
0.0
100
AcDbLayout
  1
Layout2
 70
     1
 71
     2
 10
0.0
 20
0.0
 11
12.0
 21
9.0
 12
0.0
 22
0.0
 32
0.0
 14
0.0
 24
0.0
 34
0.0
 15
0.0
 25
0.0
 35
0.0
146
0.0
 13
0.0
 23
0.0
 33
0.0
 16
1.0
 26
0.0
 36
0.0
 17
0.0
 27
1.0
 37
0.0
 76
     0
330
55
  0
LAYOUT
  5
22
102
{ACAD_REACTORS
330
1A
102
}
330
1A
100
AcDbPlotSettings
  1

  2
none_device
  4
ANSI_A_(8.50_x_11.00_Inches)
  6

 40
6.349999904632568
 41
19.04999923706054
 42
6.350006103515625
 43
19.04998779296875
 44
215.8999938964843
 45
279.3999938964843
 46
0.0
 47
0.0
 48
0.0
 49
0.0
140
0.0
141
0.0
142
1.0
143
78.436453180766
 70
 11952
 72
     0
 73
     1
 74
     0
  7

 75
     0
147
0.0127491741332998
148
0.0
149
0.0
100
AcDbLayout
  1
Model
 70
     1
 71
     0
 10
0.0
 20
0.0
 11
12.0
 21
9.0
 12
0.0
 22
0.0
 32
0.0
 14
0.0
 24
0.0
 34
0.0
 15
0.0
 25
0.0
 35
0.0
146
0.0
 13
0.0
 23
0.0
 33
0.0
 16
1.0
 26
0.0
 36
0.0
 17
0.0
 27
1.0
 37
0.0
 76
     0
330
1F
  0
MLINESTYLE
  5
18
102
{ACAD_REACTORS
330
17
102
}
330
17
100
AcDbMlineStyle
  2
STANDARD
 70
     0
  3

 62
   256
 51
90.0
 52
90.0
 71
     2
 49
0.5
 62
   256
  6
BYLAYER
 49
-0.5
 62
   256
  6
BYLAYER
  0
ACDBPLACEHOLDER
  5
F
102
{ACAD_REACTORS
330
E
102
}
330
E
  0
DICTIONARYVAR
  5
5F
102
{ACAD_REACTORS
330
5E
102
}
330
5E
100
DictionaryVariables
280
     0
  1
2
  0
DICTIONARYVAR
  5
63
102
{ACAD_REACTORS
330
5E
102
}
330
5E
100
DictionaryVariables
280
     0
  1
1
  0
ENDSEC
  0
EOF
