  0
SECTION
  2
HEADER
  9
$ACADVER
  1
AC1015
  9
$ACADMAINTVER
 70
    13
  9
$DWGCODEPAGE
  3
ANSI_1252
  9
$INSBASE
 10
0.0
 20
0.0
 30
0.0
  9
$EXTMIN
 10
-229.2648725498502
 20
0.0
 30
0.0
  9
$EXTMAX
 10
1079.264872549821
 20
1029.479882406099
 30
0.0
  9
$LIMMIN
 10
0.0
 20
0.0
  9
$LIMMAX
 10
420.0
 20
297.0
  9
$ORTHOMODE
 70
     0
  9
$REGENMODE
 70
     1
  9
$FILLMODE
 70
     1
  9
$QTEXTMODE
 70
     0
  9
$MIRRTEXT
 70
     1
  9
$LTSCALE
 40
1.0
  9
$ATTMODE
 70
     1
  9
$TEXTSIZE
 40
2.5
  9
$TRACEWID
 40
1.0
  9
$TEXTSTYLE
  7
Standard
  9
$CLAYER
  8
ceco.net 398 Doric chapiter
  9
$CELTYPE
  6
ByLayer
  9
$CECOLOR
 62
   256
  9
$CELTSCALE
 40
1.0
  9
$DISPSILH
 70
     0
  9
$DIMSCALE
 40
1.0
  9
$DIMASZ
 40
2.5
  9
$DIMEXO
 40
0.625
  9
$DIMDLI
 40
3.75
  9
$DIMRND
 40
0.0
  9
$DIMDLE
 40
0.0
  9
$DIMEXE
 40
1.25
  9
$DIMTP
 40
0.0
  9
$DIMTM
 40
0.0
  9
$DIMTXT
 40
2.5
  9
$DIMCEN
 40
2.5
  9
$DIMTSZ
 40
0.0
  9
$DIMTOL
 70
     0
  9
$DIMLIM
 70
     0
  9
$DIMTIH
 70
     0
  9
$DIMTOH
 70
     0
  9
$DIMSE1
 70
     0
  9
$DIMSE2
 70
     0
  9
$DIMTAD
 70
     1
  9
$DIMZIN
 70
     8
  9
$DIMBLK
  1

  9
$DIMASO
 70
     1
  9
$DIMSHO
 70
     1
  9
$DIMPOST
  1

  9
$DIMAPOST
  1

  9
$DIMALT
 70
     0
  9
$DIMALTD
 70
     3
  9
$DIMALTF
 40
0.03937007874016
  9
$DIMLFAC
 40
1.0
  9
$DIMTOFL
 70
     1
  9
$DIMTVP
 40
0.0
  9
$DIMTIX
 70
     0
  9
$DIMSOXD
 70
     0
  9
$DIMSAH
 70
     0
  9
$DIMBLK1
  1

  9
$DIMBLK2
  1

  9
$DIMSTYLE
  2
ISO-25
  9
$DIMCLRD
 70
     0
  9
$DIMCLRE
 70
     0
  9
$DIMCLRT
 70
     0
  9
$DIMTFAC
 40
1.0
  9
$DIMGAP
 40
0.625
  9
$DIMJUST
 70
     0
  9
$DIMSD1
 70
     0
  9
$DIMSD2
 70
     0
  9
$DIMTOLJ
 70
     0
  9
$DIMTZIN
 70
     8
  9
$DIMALTZ
 70
     0
  9
$DIMALTTZ
 70
     0
  9
$DIMUPT
 70
     0
  9
$DIMDEC
 70
     2
  9
$DIMTDEC
 70
     2
  9
$DIMALTU
 70
     2
  9
$DIMALTTD
 70
     3
  9
$DIMTXSTY
  7
Standard
  9
$DIMAUNIT
 70
     0
  9
$DIMADEC
 70
     0
  9
$DIMALTRND
 40
0.0
  9
$DIMAZIN
 70
     0
  9
$DIMDSEP
 70
    44
  9
$DIMATFIT
 70
     3
  9
$DIMFRAC
 70
     0
  9
$DIMLDRBLK
  1

  9
$DIMLUNIT
 70
     2
  9
$DIMLWD
 70
    -2
  9
$DIMLWE
 70
    -2
  9
$DIMTMOVE
 70
     0
  9
$LUNITS
 70
     2
  9
$LUPREC
 70
     4
  9
$SKETCHINC
 40
1.0
  9
$FILLETRAD
 40
10.0
  9
$AUNITS
 70
     0
  9
$AUPREC
 70
     0
  9
$MENU
  1
.
  9
$ELEVATION
 40
0.0
  9
$PELEVATION
 40
0.0
  9
$THICKNESS
 40
0.0
  9
$LIMCHECK
 70
     0
  9
$CHAMFERA
 40
10.0
  9
$CHAMFERB
 40
10.0
  9
$CHAMFERC
 40
20.0
  9
$CHAMFERD
 40
0.0
  9
$SKPOLY
 70
     0
  9
$TDCREATE
 40
2457858.695660799
  9
$TDUCREATE
 40
2457858.820660799
  9
$TDUPDATE
 40
2457886.845339780
  9
$TDUUPDATE
 40
2457886.970339780
  9
$TDINDWG
 40
0.0015010301
  9
$TDUSRTIMER
 40
0.0015010185
  9
$USRTIMER
 70
     1
  9
$ANGBASE
 50
0.0
  9
$ANGDIR
 70
     0
  9
$PDMODE
 70
     0
  9
$PDSIZE
 40
0.0
  9
$PLINEWID
 40
0.0
  9
$SPLFRAME
 70
     0
  9
$SPLINETYPE
 70
     6
  9
$SPLINESEGS
 70
     8
  9
$HANDSEED
  5
DD
  9
$SURFTAB1
 70
     6
  9
$SURFTAB2
 70
     6
  9
$SURFTYPE
 70
     6
  9
$SURFU
 70
     6
  9
$SURFV
 70
     6
  9
$UCSBASE
  2

  9
$UCSNAME
  2

  9
$UCSORG
 10
0.0
 20
0.0
 30
0.0
  9
$UCSXDIR
 10
1.0
 20
0.0
 30
0.0
  9
$UCSYDIR
 10
0.0
 20
1.0
 30
0.0
  9
$UCSORTHOREF
  2

  9
$UCSORTHOVIEW
 70
     0
  9
$UCSORGTOP
 10
0.0
 20
0.0
 30
0.0
  9
$UCSORGBOTTOM
 10
0.0
 20
0.0
 30
0.0
  9
$UCSORGLEFT
 10
0.0
 20
0.0
 30
0.0
  9
$UCSORGRIGHT
 10
0.0
 20
0.0
 30
0.0
  9
$UCSORGFRONT
 10
0.0
 20
0.0
 30
0.0
  9
$UCSORGBACK
 10
0.0
 20
0.0
 30
0.0
  9
$PUCSBASE
  2

  9
$PUCSNAME
  2

  9
$PUCSORG
 10
0.0
 20
0.0
 30
0.0
  9
$PUCSXDIR
 10
1.0
 20
0.0
 30
0.0
  9
$PUCSYDIR
 10
0.0
 20
1.0
 30
0.0
  9
$PUCSORTHOREF
  2

  9
$PUCSORTHOVIEW
 70
     0
  9
$PUCSORGTOP
 10
0.0
 20
0.0
 30
0.0
  9
$PUCSORGBOTTOM
 10
0.0
 20
0.0
 30
0.0
  9
$PUCSORGLEFT
 10
0.0
 20
0.0
 30
0.0
  9
$PUCSORGRIGHT
 10
0.0
 20
0.0
 30
0.0
  9
$PUCSORGFRONT
 10
0.0
 20
0.0
 30
0.0
  9
$PUCSORGBACK
 10
0.0
 20
0.0
 30
0.0
  9
$USERI1
 70
     0
  9
$USERI2
 70
     0
  9
$USERI3
 70
     0
  9
$USERI4
 70
     0
  9
$USERI5
 70
     0
  9
$USERR1
 40
0.0
  9
$USERR2
 40
0.0
  9
$USERR3
 40
0.0
  9
$USERR4
 40
0.0
  9
$USERR5
 40
0.0
  9
$WORLDVIEW
 70
     1
  9
$SHADEDGE
 70
     3
  9
$SHADEDIF
 70
    70
  9
$TILEMODE
 70
     1
  9
$MAXACTVP
 70
    64
  9
$PINSBASE
 10
0.0
 20
0.0
 30
0.0
  9
$PLIMCHECK
 70
     0
  9
$PEXTMIN
 10
0.0
 20
0.0
 30
0.0
  9
$PEXTMAX
 10
0.0
 20
0.0
 30
0.0
  9
$PLIMMIN
 10
0.0
 20
0.0
  9
$PLIMMAX
 10
12.0
 20
9.0
  9
$UNITMODE
 70
     0
  9
$VISRETAIN
 70
     1
  9
$PLINEGEN
 70
     0
  9
$PSLTSCALE
 70
     1
  9
$TREEDEPTH
 70
  3020
  9
$CMLSTYLE
  2
Standard
  9
$CMLJUST
 70
     0
  9
$CMLSCALE
 40
20.0
  9
$PROXYGRAPHICS
 70
     1
  9
$MEASUREMENT
 70
     1
  9
$CELWEIGHT
370
    -1
  9
$ENDCAPS
280
     0
  9
$JOINSTYLE
280
     0
  9
$LWDISPLAY
290
     0
  9
$INSUNITS
 70
     4
  9
$HYPERLINKBASE
  1

  9
$STYLESHEET
  1

  9
$XEDIT
290
     1
  9
$CEPSNTYPE
380
     0
  9
$PSTYLEMODE
290
     1
  9
$FINGERPRINTGUID
  2
{FDEAD578-A652-11D2-9A35-0060089B3A3F}
  9
$VERSIONGUID
  2
{032CC147-0C4D-4BB0-801B-F43AB3CE3526}
  9
$EXTNAMES
290
     1
  9
$PSVPSCALE
 40
0.0
  9
$OLESTARTUP
290
     0
  0
ENDSEC
  0
SECTION
  2
CLASSES
  0
CLASS
  1
ACDBDICTIONARYWDFLT
  2
AcDbDictionaryWithDefault
  3
AutoCAD 2000
 90
        0
280
     0
281
     0
  0
CLASS
  1
ACDBPLACEHOLDER
  2
AcDbPlaceHolder
  3
AutoCAD 2000
 90
        0
280
     0
281
     0
  0
CLASS
  1
LAYOUT
  2
AcDbLayout
  3
AutoCAD 2000
 90
        0
280
     0
281
     0
  0
CLASS
  1
DICTIONARYVAR
  2
AcDbDictionaryVar
  3
AutoCAD 2000
 90
        0
280
     0
281
     0
  0
ENDSEC
  0
SECTION
  2
TABLES
  0
TABLE
  2
VPORT
  5
8
330
0
100
AcDbSymbolTable
 70
     3
  0
VPORT
  5
DC
330
8
100
AcDbSymbolTableRecord
100
AcDbViewportTableRecord
  2
*Active
 70
     0
 10
0.0
 20
0.0
 11
1.0
 21
1.0
 12
424.9999999999854
 22
514.7399412030501
 13
0.0
 23
0.0
 14
10.0
 24
10.0
 15
10.0
 25
10.0
 16
0.0
 26
0.0
 36
1.0
 17
0.0
 27
0.0
 37
0.0
 40
1036.798459769176
 41
2.187425860023724
 42
50.0
 43
0.0
 44
0.0
 50
0.0
 51
0.0
 71
     0
 72
   100
 73
     1
 74
     3
 75
     0
 76
     0
 77
     0
 78
     0
281
     0
 65
     1
110
0.0
120
0.0
130
0.0
111
1.0
121
0.0
131
0.0
112
0.0
122
1.0
132
0.0
 79
     0
146
0.0
  0
ENDTAB
  0
TABLE
  2
LTYPE
  5
5
330
0
100
AcDbSymbolTable
 70
     2
  0
LTYPE
  5
14
330
5
100
AcDbSymbolTableRecord
100
AcDbLinetypeTableRecord
  2
ByBlock
 70
     0
  3

 72
    65
 73
     0
 40
0.0
  0
LTYPE
  5
15
330
5
100
AcDbSymbolTableRecord
100
AcDbLinetypeTableRecord
  2
ByLayer
 70
     0
  3

 72
    65
 73
     0
 40
0.0
  0
LTYPE
  5
16
330
5
100
AcDbSymbolTableRecord
100
AcDbLinetypeTableRecord
  2
Continuous
 70
     0
  3
Solid line
 72
    65
 73
     0
 40
0.0
  0
LTYPE
  5
76
330
5
100
AcDbSymbolTableRecord
100
AcDbLinetypeTableRecord
  2
ACAD_ISO04W100
 70
     0
  3
ISO long-dash dot ____ . ____ . ____ . ____ . _
 72
    65
 73
     4
 40
30.0
 49
24.0
 74
     0
 49
-3.0
 74
     0
 49
0.0
 74
     0
 49
-3.0
 74
     0
  0
ENDTAB
  0
TABLE
  2
LAYER
  5
2
330
0
100
AcDbSymbolTable
 70
     2
  0
LAYER
  5
10
330
2
100
AcDbSymbolTableRecord
100
AcDbLayerTableRecord
  2
0
 70
     0
 62
     7
  6
Continuous
370
    -3
390
F
  0
LAYER
  5
77
102
{ACAD_XDICTIONARY
360
78
102
}
330
2
100
AcDbSymbolTableRecord
100
AcDbLayerTableRecord
  2
ceco.net 398 Doric chapiter
 70
     0
 62
     7
  6
Continuous
370
    -3
390
F
1001
AcAecLayerStandard
1000

1000

  0
ENDTAB
  0
TABLE
  2
STYLE
  5
3
330
0
100
AcDbSymbolTable
 70
     1
  0
STYLE
  5
11
330
3
100
AcDbSymbolTableRecord
100
AcDbTextStyleTableRecord
  2
Standard
 70
     0
 40
0.0
 41
1.0
 50
0.0
 71
     0
 42
2.5
  3
txt
  4

  0
ENDTAB
  0
TABLE
  2
VIEW
  5
6
330
0
100
AcDbSymbolTable
 70
     0
  0
ENDTAB
  0
TABLE
  2
UCS
  5
7
330
0
100
AcDbSymbolTable
 70
     0
  0
ENDTAB
  0
TABLE
  2
APPID
  5
9
330
0
100
AcDbSymbolTable
 70
     5
  0
APPID
  5
12
330
9
100
AcDbSymbolTableRecord
100
AcDbRegAppTableRecord
  2
ACAD
 70
     0
  0
APPID
  5
7B
330
9
100
AcDbSymbolTableRecord
100
AcDbRegAppTableRecord
  2
ACAD_PSEXT
 70
     0
  0
APPID
  5
7C
330
9
100
AcDbSymbolTableRecord
100
AcDbRegAppTableRecord
  2
AcAecLayerStandard
 70
     0
  0
APPID
  5
7D
330
9
100
AcDbSymbolTableRecord
100
AcDbRegAppTableRecord
  2
ACAD_EXEMPT_FROM_CAD_STANDARDS
 70
     0
  0
APPID
  5
7E
330
9
100
AcDbSymbolTableRecord
100
AcDbRegAppTableRecord
  2
ACAD_MLEADERVER
 70
     0
  0
ENDTAB
  0
TABLE
  2
DIMSTYLE
  5
A
330
0
100
AcDbSymbolTable
 70
     2
100
AcDbDimStyleTable
 71
     0
  0
DIMSTYLE
105
27
330
A
100
AcDbSymbolTableRecord
100
AcDbDimStyleTableRecord
  2
ISO-25
 70
     0
 41
2.5
 42
0.625
 43
3.75
 44
1.25
 73
     0
 74
     0
 77
     1
 78
     8
140
2.5
141
2.5
143
0.03937007874016
147
0.625
171
     3
172
     1
271
     2
272
     2
274
     3
278
    44
283
     0
284
     8
340
11
  0
DIMSTYLE
105
7A
330
A
100
AcDbSymbolTableRecord
100
AcDbDimStyleTableRecord
  2
STANDARD
 70
     0
340
11
  0
ENDTAB
  0
TABLE
  2
BLOCK_RECORD
  5
1
330
0
100
AcDbSymbolTable
 70
     2
  0
BLOCK_RECORD
  5
1F
330
1
100
AcDbSymbolTableRecord
100
AcDbBlockTableRecord
  2
*Model_Space
340
22
  0
BLOCK_RECORD
  5
50
330
1
100
AcDbSymbolTableRecord
100
AcDbBlockTableRecord
  2
*Paper_Space
340
51
  0
BLOCK_RECORD
  5
55
330
1
100
AcDbSymbolTableRecord
100
AcDbBlockTableRecord
  2
*Paper_Space0
340
56
  0
ENDTAB
  0
ENDSEC
  0
SECTION
  2
BLOCKS
  0
BLOCK
  5
20
330
1F
100
AcDbEntity
  8
0
100
AcDbBlockBegin
  2
*Model_Space
 70
     0
 10
0.0
 20
0.0
 30
0.0
  3
*Model_Space
  1

  0
ENDBLK
  5
21
330
1F
100
AcDbEntity
  8
0
100
AcDbBlockEnd
  0
BLOCK
  5
52
330
50
100
AcDbEntity
 67
     1
  8
0
100
AcDbBlockBegin
  2
*Paper_Space
 70
     0
 10
0.0
 20
0.0
 30
0.0
  3
*Paper_Space
  1

  0
ENDBLK
  5
53
330
50
100
AcDbEntity
 67
     1
  8
0
100
AcDbBlockEnd
  0
BLOCK
  5
57
330
55
100
AcDbEntity
  8
0
100
AcDbBlockBegin
  2
*Paper_Space0
 70
     0
 10
0.0
 20
0.0
 30
0.0
  3
*Paper_Space0
  1

  0
ENDBLK
  5
58
330
55
100
AcDbEntity
  8
0
100
AcDbBlockEnd
  0
ENDSEC
  0
SECTION
  2
ENTITIES
  0
LINE
  5
AF
330
1F
100
AcDbEntity
  8
ceco.net 398 Doric chapiter
100
AcDbLine
 10
424.9999999999708
 20
1029.47988240607
 30
0.0
 11
1074.99999999997
 21
1029.479882406099
 31
0.0
  0
LINE
  5
B0
330
1F
100
AcDbEntity
  8
ceco.net 398 Doric chapiter
100
AcDbLine
 10
424.9999999999708
 20
999.4798824060708
 30
0.0
 11
1074.99999999997
 21
999.4798824060708
 31
0.0
  0
LINE
  5
B1
330
1F
100
AcDbEntity
  8
ceco.net 398 Doric chapiter
100
AcDbLine
 10
424.9999999999708
 20
944.4798824060708
 30
0.0
 11
1014.999999999971
 21
944.4798824060416
 31
0.0
  0
LINE
  5
B2
330
1F
100
AcDbEntity
  8
ceco.net 398 Doric chapiter
100
AcDbLine
 10
1074.99999999997
 20
1029.47988240607
 30
0.0
 11
1074.99999999997
 21
999.4798824060708
 31
0.0
  0
LINE
  5
B3
330
1F
100
AcDbEntity
  8
ceco.net 398 Doric chapiter
100
AcDbLine
 10
424.9999999999708
 20
859.4798824060708
 30
0.0
 11
1004.999999999971
 21
859.4798824060708
 31
0.0
  0
LINE
  5
B4
330
1F
100
AcDbEntity
  8
ceco.net 398 Doric chapiter
100
AcDbLine
 10
424.9999999999708
 20
744.4798824060708
 30
0.0
 11
905.0
 21
744.4798824060708
 31
0.0
  0
LWPOLYLINE
  5
B5
330
1F
100
AcDbEntity
  8
ceco.net 398 Doric chapiter
100
AcDbPolyline
 90
        3
 70
     0
 43
0.0
 10
1015.0
 20
944.4798824060416
 42
-0.2679491924308622
 10
1034.99999999997
 20
971.9798824060417
 42
0.2679491924312342
 10
1054.999999999971
 20
999.4798824060708
 42
0.2679491924312342
  0
LINE
  5
B6
330
1F
100
AcDbEntity
  8
ceco.net 398 Doric chapiter
100
AcDbLine
 10
905.0
 20
744.4798824060708
 30
0.0
 11
905.0
 21
724.4798824060417
 31
0.0
  0
LINE
  5
B7
330
1F
100
AcDbEntity
  8
ceco.net 398 Doric chapiter
100
AcDbLine
 10
1004.999999999971
 20
944.4798824060416
 30
0.0
 11
1004.999999999971
 21
859.4798824060708
 31
0.0
  0
ARC
  5
B8
330
1F
100
AcDbEntity
  8
ceco.net 398 Doric chapiter
100
AcDbCircle
 10
892.4999999999709
 20
846.9798824060417
 30
0.0
 40
103.2593821403234
100
AcDbArc
 50
276.9529574681742
 51
6.952957468171076
  0
LINE
  5
B9
330
1F
100
AcDbEntity
  8
ceco.net 398 Doric chapiter
100
AcDbLine
 10
424.9999999999708
 20
724.4798824060417
 30
0.0
 11
905.0
 21
724.4798824060417
 31
0.0
  0
LINE
  5
BA
330
1F
100
AcDbEntity
  8
ceco.net 398 Doric chapiter
100
AcDbLine
 10
424.9999999999708
 20
689.4798824060708
 30
0.0
 11
874.9999999999708
 21
689.4798824060708
 31
0.0
  0
ARC
  5
BB
330
1F
100
AcDbEntity
  8
ceco.net 398 Doric chapiter
100
AcDbCircle
 10
920.3108891324081
 20
680.9991202925157
 30
0.0
 40
46.09772228646533
100
AcDbArc
 50
109.3987053550081
 51
169.3987053549572
  0
LINE
  5
BC
330
1F
100
AcDbEntity
  8
ceco.net 398 Doric chapiter
100
AcDbLine
 10
849.9999999999708
 20
689.4798824060708
 30
0.0
 11
849.9999999999708
 21
529.4798824060999
 31
0.0
  0
LINE
  5
BD
330
1F
100
AcDbEntity
  8
ceco.net 398 Doric chapiter
100
AcDbLine
 10
424.9999999999708
 20
529.4798824060999
 30
0.0
 11
900.0
 21
529.4798824060708
 31
0.0
  0
LINE
  5
BE
330
1F
100
AcDbEntity
  8
ceco.net 398 Doric chapiter
100
AcDbLine
 10
424.9999999999708
 20
479.4798824060708
 30
0.0
 11
900.0
 21
479.4798824060708
 31
0.0
  0
LINE
  5
BF
330
1F
100
AcDbEntity
  8
ceco.net 398 Doric chapiter
100
AcDbLine
 10
424.9999999999708
 20
454.4798824060708
 30
0.0
 11
894.9999999999709
 21
454.4798824060708
 31
0.0
  0
LINE
  5
C0
330
1F
100
AcDbEntity
  8
ceco.net 398 Doric chapiter
100
AcDbLine
 10
894.9999999999709
 20
479.4798824060708
 30
0.0
 11
894.9999999999709
 21
454.4798824060708
 31
0.0
  0
ARC
  5
C1
330
1F
100
AcDbEntity
  8
ceco.net 398 Doric chapiter
100
AcDbCircle
 10
900.0
 20
504.4798824060417
 30
0.0
 40
24.99999999999147
100
AcDbArc
 50
270.0
 51
90.0
  0
ARC
  5
C2
330
1F
100
AcDbEntity
  8
ceco.net 398 Doric chapiter
100
AcDbCircle
 10
894.9999999999709
 20
409.4798824060708
 30
0.0
 40
45.0000000000017
100
AcDbArc
 50
90.0
 51
180.0
  0
LINE
  5
C3
330
1F
100
AcDbEntity
  8
ceco.net 398 Doric chapiter
100
AcDbLine
 10
849.9999999999708
 20
409.4798824060708
 30
0.0
 11
849.9999999999708
 21
0.0
 31
0.0
  0
LINE
  5
C4
330
1F
100
AcDbEntity
  8
ceco.net 398 Doric chapiter
100
AcDbLine
 10
0.0
 20
409.4798824060708
 30
0.0
 11
0.0
 21
0.0
 31
0.0
  0
ARC
  5
C5
330
1F
100
AcDbEntity
  8
ceco.net 398 Doric chapiter
100
AcDbCircle
 10
-50.0000000000291
 20
504.4798824060417
 30
0.0
 40
24.99999999999147
100
AcDbArc
 50
90.0
 51
270.0
  0
LINE
  5
C6
330
1F
100
AcDbEntity
  8
ceco.net 398 Doric chapiter
100
AcDbLine
 10
-45.0000000000291
 20
479.4798824060708
 30
0.0
 11
-45.0000000000291
 21
454.4798824060708
 31
0.0
  0
ARC
  5
C7
330
1F
100
AcDbEntity
  8
ceco.net 398 Doric chapiter
100
AcDbCircle
 10
-45.0000000000291
 20
409.4798824060708
 30
0.0
 40
45.0000000000017
100
AcDbArc
 50
0.0
 51
90.0
  0
LINE
  5
C8
330
1F
100
AcDbEntity
  8
ceco.net 398 Doric chapiter
100
AcDbLine
 10
0.0
 20
689.4798824060708
 30
0.0
 11
0.0
 21
529.4798824060999
 31
0.0
  0
LINE
  5
C9
330
1F
100
AcDbEntity
  8
ceco.net 398 Doric chapiter
100
AcDbLine
 10
424.9999999999708
 20
999.4798824060708
 30
0.0
 11
-225.000000000029
 21
999.4798824060708
 31
0.0
  0
LINE
  5
CA
330
1F
100
AcDbEntity
  8
ceco.net 398 Doric chapiter
100
AcDbLine
 10
424.9999999999708
 20
1029.47988240607
 30
0.0
 11
-225.000000000029
 21
1029.479882406099
 31
0.0
  0
LINE
  5
CB
330
1F
100
AcDbEntity
  8
ceco.net 398 Doric chapiter
100
AcDbLine
 10
424.9999999999708
 20
944.4798824060708
 30
0.0
 11
-165.000000000029
 21
944.4798824060416
 31
0.0
  0
LINE
  5
CC
330
1F
100
AcDbEntity
  8
ceco.net 398 Doric chapiter
100
AcDbLine
 10
424.9999999999708
 20
859.4798824060708
 30
0.0
 11
-155.0000000000291
 21
859.4798824060708
 31
0.0
  0
LINE
  5
CD
330
1F
100
AcDbEntity
  8
ceco.net 398 Doric chapiter
100
AcDbLine
 10
424.9999999999708
 20
744.4798824060708
 30
0.0
 11
-55.0000000000291
 21
744.4798824060708
 31
0.0
  0
LINE
  5
CE
330
1F
100
AcDbEntity
  8
ceco.net 398 Doric chapiter
100
AcDbLine
 10
424.9999999999708
 20
724.4798824060417
 30
0.0
 11
-55.0000000000291
 21
724.4798824060417
 31
0.0
  0
LINE
  5
CF
330
1F
100
AcDbEntity
  8
ceco.net 398 Doric chapiter
100
AcDbLine
 10
424.9999999999708
 20
689.4798824060708
 30
0.0
 11
-25.0000000000291
 21
689.4798824060708
 31
0.0
  0
LINE
  5
D0
330
1F
100
AcDbEntity
  8
ceco.net 398 Doric chapiter
100
AcDbLine
 10
424.9999999999708
 20
529.4798824060999
 30
0.0
 11
-50.0000000000291
 21
529.4798824060708
 31
0.0
  0
LINE
  5
D1
330
1F
100
AcDbEntity
  8
ceco.net 398 Doric chapiter
100
AcDbLine
 10
424.9999999999708
 20
479.4798824060708
 30
0.0
 11
-50.0000000000291
 21
479.4798824060708
 31
0.0
  0
LINE
  5
D2
330
1F
100
AcDbEntity
  8
ceco.net 398 Doric chapiter
100
AcDbLine
 10
424.9999999999708
 20
454.4798824060708
 30
0.0
 11
-45.0000000000291
 21
454.4798824060708
 31
0.0
  0
ARC
  5
D3
330
1F
100
AcDbEntity
  8
ceco.net 398 Doric chapiter
100
AcDbCircle
 10
-70.3108891324664
 20
680.9991202925157
 30
0.0
 40
46.09772228646533
100
AcDbArc
 50
10.60129464504271
 51
70.6012946449918
  0
LINE
  5
D4
330
1F
100
AcDbEntity
  8
ceco.net 398 Doric chapiter
100
AcDbLine
 10
-55.0000000000291
 20
744.4798824060708
 30
0.0
 11
-55.0000000000291
 21
724.4798824060417
 31
0.0
  0
LINE
  5
D5
330
1F
100
AcDbEntity
  8
ceco.net 398 Doric chapiter
100
AcDbLine
 10
-155.0000000000291
 20
944.4798824060416
 30
0.0
 11
-155.0000000000291
 21
859.4798824060708
 31
0.0
  0
ARC
  5
D6
330
1F
100
AcDbEntity
  8
ceco.net 398 Doric chapiter
100
AcDbCircle
 10
-42.5
 20
846.9798824060417
 30
0.0
 40
103.2593821403234
100
AcDbArc
 50
173.0470425318289
 51
263.0470425318256
  0
LWPOLYLINE
  5
D7
330
1F
100
AcDbEntity
  8
ceco.net 398 Doric chapiter
100
AcDbPolyline
 90
        3
 70
     0
 43
0.0
 10
-165.000000000029
 20
944.4798824060416
 42
0.2679491924308622
 10
-185.000000000029
 20
971.9798824060417
 42
-0.2679491924312342
 10
-205.0000000000291
 20
999.4798824060708
 42
-0.2679491924312342
  0
LINE
  5
D8
330
1F
100
AcDbEntity
  8
ceco.net 398 Doric chapiter
100
AcDbLine
 10
-225.0
 20
1029.47988240607
 30
0.0
 11
-225.0
 21
999.4798824060708
 31
0.0
  0
TEXT
  5
D9
330
1F
100
AcDbEntity
  8
ceco.net 398 Doric chapiter
100
AcDbText
 10
-55.0000000000291
 20
724.4798824060417
 30
0.0
 40
0.1
  1
Arch. Giuseppe Conte
100
AcDbText
  0
LINE
  5
DA
330
1F
100
AcDbEntity
  8
ceco.net 398 Doric chapiter
  6
ACAD_ISO04W100
100
AcDbLine
 10
-229.2648725498502
 20
0.0000000000035656
 30
0.0
 11
1079.264872549821
 21
0.0000000000035656
 31
0.0
  0
ENDSEC
  0
SECTION
  2
OBJECTS
  0
DICTIONARY
  5
C
330
0
100
AcDbDictionary
281
     1
  3
ACAD_GROUP
350
D
  3
ACAD_LAYOUT
350
1A
  3
ACAD_MLINESTYLE
350
17
  3
ACAD_PLOTSETTINGS
350
19
  3
ACAD_PLOTSTYLENAME
350
E
  3
AcDbVariableDictionary
350
5E
  0
DICTIONARY
  5
78
330
77
100
AcDbDictionary
280
     1
281
     1
  3
ADSK_XREC_LAYER_RECONCILED
360
79
  0
DICTIONARY
  5
D
102
{ACAD_REACTORS
330
C
102
}
330
C
100
AcDbDictionary
281
     1
  0
DICTIONARY
  5
1A
102
{ACAD_REACTORS
330
C
102
}
330
C
100
AcDbDictionary
281
     1
  3
Layout1
350
51
  3
Layout2
350
56
  3
Model
350
22
  0
DICTIONARY
  5
17
102
{ACAD_REACTORS
330
C
102
}
330
C
100
AcDbDictionary
281
     1
  3
Standard
350
18
  0
DICTIONARY
  5
19
102
{ACAD_REACTORS
330
C
102
}
330
C
100
AcDbDictionary
281
     1
  0
ACDBDICTIONARYWDFLT
  5
E
102
{ACAD_REACTORS
330
C
102
}
330
C
100
AcDbDictionary
281
     1
  3
Normal
350
F
100
AcDbDictionaryWithDefault
340
F
  0
DICTIONARY
  5
5E
102
{ACAD_REACTORS
330
C
102
}
330
C
100
AcDbDictionary
281
     1
  3
DIMASSOC
350
5F
  3
HIDETEXT
350
63
  0
XRECORD
  5
79
102
{ACAD_REACTORS
330
78
102
}
330
78
100
AcDbXrecord
280
     1
290
     1
  0
LAYOUT
  5
51
102
{ACAD_REACTORS
330
1A
102
}
330
1A
100
AcDbPlotSettings
  1

  2
None
  4

  6

 40
0.0
 41
0.0
 42
0.0
 43
0.0
 44
0.0
 45
0.0
 46
0.0
 47
0.0
 48
0.0
 49
0.0
140
0.0
141
0.0
142
1.0
143
1.0
 70
   688
 72
     0
 73
     0
 74
     5
  7

 75
    16
147
1.0
148
0.0
149
0.0
100
AcDbLayout
  1
Layout1
 70
     1
 71
     1
 10
0.0
 20
0.0
 11
12.0
 21
9.0
 12
0.0
 22
0.0
 32
0.0
 14
0.0
 24
0.0
 34
0.0
 15
0.0
 25
0.0
 35
0.0
146
0.0
 13
0.0
 23
0.0
 33
0.0
 16
1.0
 26
0.0
 36
0.0
 17
0.0
 27
1.0
 37
0.0
 76
     0
330
50
  0
LAYOUT
  5
56
102
{ACAD_REACTORS
330
1A
102
}
330
1A
100
AcDbPlotSettings
  1

  2
None
  4

  6

 40
0.0
 41
0.0
 42
0.0
 43
0.0
 44
0.0
 45
0.0
 46
0.0
 47
0.0
 48
0.0
 49
0.0
140
0.0
141
0.0
142
1.0
143
1.0
 70
   688
 72
     0
 73
     0
 74
     5
  7

 75
    16
147
1.0
148
0.0
149
0.0
100
AcDbLayout
  1
Layout2
 70
     1
 71
     2
 10
0.0
 20
0.0
 11
12.0
 21
9.0
 12
0.0
 22
0.0
 32
0.0
 14
0.0
 24
0.0
 34
0.0
 15
0.0
 25
0.0
 35
0.0
146
0.0
 13
0.0
 23
0.0
 33
0.0
 16
1.0
 26
0.0
 36
0.0
 17
0.0
 27
1.0
 37
0.0
 76
     0
330
55
  0
LAYOUT
  5
22
102
{ACAD_REACTORS
330
1A
102
}
330
1A
100
AcDbPlotSettings
  1

  2
none_device
  4
ANSI_A_(8.50_x_11.00_Inches)
  6

 40
6.349999904632568
 41
19.04999923706054
 42
6.350006103515625
 43
19.04998779296875
 44
215.8999938964843
 45
279.3999938964843
 46
0.0
 47
0.0
 48
0.0
 49
0.0
140
0.0
141
0.0
142
1.0
143
78.436453180766
 70
 11952
 72
     0
 73
     1
 74
     0
  7

 75
     0
147
0.0127491741332998
148
0.0
149
0.0
100
AcDbLayout
  1
Model
 70
     1
 71
     0
 10
0.0
 20
0.0
 11
12.0
 21
9.0
 12
0.0
 22
0.0
 32
0.0
 14
0.0
 24
0.0
 34
0.0
 15
0.0
 25
0.0
 35
0.0
146
0.0
 13
0.0
 23
0.0
 33
0.0
 16
1.0
 26
0.0
 36
0.0
 17
0.0
 27
1.0
 37
0.0
 76
     0
330
1F
  0
MLINESTYLE
  5
18
102
{ACAD_REACTORS
330
17
102
}
330
17
100
AcDbMlineStyle
  2
STANDARD
 70
     0
  3

 62
   256
 51
90.0
 52
90.0
 71
     2
 49
0.5
 62
   256
  6
BYLAYER
 49
-0.5
 62
   256
  6
BYLAYER
  0
ACDBPLACEHOLDER
  5
F
102
{ACAD_REACTORS
330
E
102
}
330
E
  0
DICTIONARYVAR
  5
5F
102
{ACAD_REACTORS
330
5E
102
}
330
5E
100
DictionaryVariables
280
     0
  1
2
  0
DICTIONARYVAR
  5
63
102
{ACAD_REACTORS
330
5E
102
}
330
5E
100
DictionaryVariables
280
     0
  1
1
  0
ENDSEC
  0
EOF
