  0
SECTION
  2
HEADER
  9
$ACADVER
  1
AC1015
  9
$ACADMAINTVER
 70
    13
  9
$DWGCODEPAGE
  3
ANSI_1252
  9
$INSBASE
 10
0.0
 20
0.0
 30
0.0
  9
$EXTMIN
 10
-0.0128164049386896
 20
-0.0317223309908741
 30
-0.0015258207003583
  9
$EXTMAX
 10
1.749573244887415
 20
1.758362164206801
 30
0.0000000349246037
  9
$LIMMIN
 10
0.0
 20
0.0
  9
$LIMMAX
 10
420.0
 20
297.0
  9
$ORTHOMODE
 70
     0
  9
$REGENMODE
 70
     1
  9
$FILLMODE
 70
     1
  9
$QTEXTMODE
 70
     0
  9
$MIRRTEXT
 70
     1
  9
$LTSCALE
 40
1.0
  9
$ATTMODE
 70
     1
  9
$TEXTSIZE
 40
2.5
  9
$TRACEWID
 40
1.0
  9
$TEXTSTYLE
  7
Standard
  9
$CLAYER
  8
Ceco.NET 12
  9
$CELTYPE
  6
ByLayer
  9
$CECOLOR
 62
   256
  9
$CELTSCALE
 40
1.0
  9
$DISPSILH
 70
     0
  9
$DIMSCALE
 40
1.0
  9
$DIMASZ
 40
2.5
  9
$DIMEXO
 40
0.625
  9
$DIMDLI
 40
3.75
  9
$DIMRND
 40
0.0
  9
$DIMDLE
 40
0.0
  9
$DIMEXE
 40
1.25
  9
$DIMTP
 40
0.0
  9
$DIMTM
 40
0.0
  9
$DIMTXT
 40
2.5
  9
$DIMCEN
 40
2.5
  9
$DIMTSZ
 40
0.0
  9
$DIMTOL
 70
     0
  9
$DIMLIM
 70
     0
  9
$DIMTIH
 70
     0
  9
$DIMTOH
 70
     0
  9
$DIMSE1
 70
     0
  9
$DIMSE2
 70
     0
  9
$DIMTAD
 70
     1
  9
$DIMZIN
 70
     8
  9
$DIMBLK
  1

  9
$DIMASO
 70
     1
  9
$DIMSHO
 70
     1
  9
$DIMPOST
  1

  9
$DIMAPOST
  1

  9
$DIMALT
 70
     0
  9
$DIMALTD
 70
     3
  9
$DIMALTF
 40
0.03937007874016
  9
$DIMLFAC
 40
1.0
  9
$DIMTOFL
 70
     1
  9
$DIMTVP
 40
0.0
  9
$DIMTIX
 70
     0
  9
$DIMSOXD
 70
     0
  9
$DIMSAH
 70
     0
  9
$DIMBLK1
  1

  9
$DIMBLK2
  1

  9
$DIMSTYLE
  2
ISO-25
  9
$DIMCLRD
 70
     0
  9
$DIMCLRE
 70
     0
  9
$DIMCLRT
 70
     0
  9
$DIMTFAC
 40
1.0
  9
$DIMGAP
 40
0.625
  9
$DIMJUST
 70
     0
  9
$DIMSD1
 70
     0
  9
$DIMSD2
 70
     0
  9
$DIMTOLJ
 70
     0
  9
$DIMTZIN
 70
     8
  9
$DIMALTZ
 70
     0
  9
$DIMALTTZ
 70
     0
  9
$DIMUPT
 70
     0
  9
$DIMDEC
 70
     2
  9
$DIMTDEC
 70
     2
  9
$DIMALTU
 70
     2
  9
$DIMALTTD
 70
     3
  9
$DIMTXSTY
  7
Standard
  9
$DIMAUNIT
 70
     0
  9
$DIMADEC
 70
     0
  9
$DIMALTRND
 40
0.0
  9
$DIMAZIN
 70
     0
  9
$DIMDSEP
 70
    44
  9
$DIMATFIT
 70
     3
  9
$DIMFRAC
 70
     0
  9
$DIMLDRBLK
  1

  9
$DIMLUNIT
 70
     2
  9
$DIMLWD
 70
    -2
  9
$DIMLWE
 70
    -2
  9
$DIMTMOVE
 70
     0
  9
$LUNITS
 70
     2
  9
$LUPREC
 70
     2
  9
$SKETCHINC
 40
1.0
  9
$FILLETRAD
 40
10.0
  9
$AUNITS
 70
     0
  9
$AUPREC
 70
     0
  9
$MENU
  1
.
  9
$ELEVATION
 40
0.0
  9
$PELEVATION
 40
0.0
  9
$THICKNESS
 40
0.0
  9
$LIMCHECK
 70
     0
  9
$CHAMFERA
 40
10.0
  9
$CHAMFERB
 40
10.0
  9
$CHAMFERC
 40
20.0
  9
$CHAMFERD
 40
0.0
  9
$SKPOLY
 70
     0
  9
$TDCREATE
 40
2455077.752780764
  9
$TDUCREATE
 40
2455077.877780763
  9
$TDUPDATE
 40
2455077.753920451
  9
$TDUUPDATE
 40
2455077.878920451
  9
$TDINDWG
 40
0.0011396875
  9
$TDUSRTIMER
 40
0.0011396875
  9
$USRTIMER
 70
     1
  9
$ANGBASE
 50
0.0
  9
$ANGDIR
 70
     0
  9
$PDMODE
 70
     0
  9
$PDSIZE
 40
0.0
  9
$PLINEWID
 40
0.0
  9
$SPLFRAME
 70
     0
  9
$SPLINETYPE
 70
     6
  9
$SPLINESEGS
 70
     8
  9
$HANDSEED
  5
61
  9
$SURFTAB1
 70
     6
  9
$SURFTAB2
 70
     6
  9
$SURFTYPE
 70
     6
  9
$SURFU
 70
     6
  9
$SURFV
 70
     6
  9
$UCSBASE
  2

  9
$UCSNAME
  2

  9
$UCSORG
 10
0.0
 20
0.0
 30
0.0
  9
$UCSXDIR
 10
1.0
 20
0.0
 30
0.0
  9
$UCSYDIR
 10
0.0
 20
1.0
 30
0.0
  9
$UCSORTHOREF
  2

  9
$UCSORTHOVIEW
 70
     0
  9
$UCSORGTOP
 10
0.0
 20
0.0
 30
0.0
  9
$UCSORGBOTTOM
 10
0.0
 20
0.0
 30
0.0
  9
$UCSORGLEFT
 10
0.0
 20
0.0
 30
0.0
  9
$UCSORGRIGHT
 10
0.0
 20
0.0
 30
0.0
  9
$UCSORGFRONT
 10
0.0
 20
0.0
 30
0.0
  9
$UCSORGBACK
 10
0.0
 20
0.0
 30
0.0
  9
$PUCSBASE
  2

  9
$PUCSNAME
  2

  9
$PUCSORG
 10
0.0
 20
0.0
 30
0.0
  9
$PUCSXDIR
 10
1.0
 20
0.0
 30
0.0
  9
$PUCSYDIR
 10
0.0
 20
1.0
 30
0.0
  9
$PUCSORTHOREF
  2

  9
$PUCSORTHOVIEW
 70
     0
  9
$PUCSORGTOP
 10
0.0
 20
0.0
 30
0.0
  9
$PUCSORGBOTTOM
 10
0.0
 20
0.0
 30
0.0
  9
$PUCSORGLEFT
 10
0.0
 20
0.0
 30
0.0
  9
$PUCSORGRIGHT
 10
0.0
 20
0.0
 30
0.0
  9
$PUCSORGFRONT
 10
0.0
 20
0.0
 30
0.0
  9
$PUCSORGBACK
 10
0.0
 20
0.0
 30
0.0
  9
$USERI1
 70
     0
  9
$USERI2
 70
     0
  9
$USERI3
 70
     0
  9
$USERI4
 70
     0
  9
$USERI5
 70
     0
  9
$USERR1
 40
0.0
  9
$USERR2
 40
0.0
  9
$USERR3
 40
0.0
  9
$USERR4
 40
0.0
  9
$USERR5
 40
0.0
  9
$WORLDVIEW
 70
     1
  9
$SHADEDGE
 70
     3
  9
$SHADEDIF
 70
    70
  9
$TILEMODE
 70
     1
  9
$MAXACTVP
 70
    64
  9
$PINSBASE
 10
0.0
 20
0.0
 30
0.0
  9
$PLIMCHECK
 70
     0
  9
$PEXTMIN
 10
1.000000000000000E+20
 20
1.000000000000000E+20
 30
1.000000000000000E+20
  9
$PEXTMAX
 10
-1.000000000000000E+20
 20
-1.000000000000000E+20
 30
-1.000000000000000E+20
  9
$PLIMMIN
 10
0.0
 20
0.0
  9
$PLIMMAX
 10
420.0
 20
297.0
  9
$UNITMODE
 70
     0
  9
$VISRETAIN
 70
     1
  9
$PLINEGEN
 70
     0
  9
$PSLTSCALE
 70
     1
  9
$TREEDEPTH
 70
  3020
  9
$CMLSTYLE
  2
Standard
  9
$CMLJUST
 70
     0
  9
$CMLSCALE
 40
20.0
  9
$PROXYGRAPHICS
 70
     1
  9
$MEASUREMENT
 70
     1
  9
$CELWEIGHT
370
    -1
  9
$ENDCAPS
280
     0
  9
$JOINSTYLE
280
     0
  9
$LWDISPLAY
290
     0
  9
$INSUNITS
 70
     6
  9
$HYPERLINKBASE
  1

  9
$STYLESHEET
  1

  9
$XEDIT
290
     1
  9
$CEPSNTYPE
380
     0
  9
$PSTYLEMODE
290
     1
  9
$FINGERPRINTGUID
  2
{8A4D5518-AE08-462C-8D4C-14C972BCB860}
  9
$VERSIONGUID
  2
{C9867DF1-55CB-49FA-8019-3BEC149502EF}
  9
$EXTNAMES
290
     1
  9
$PSVPSCALE
 40
0.0
  9
$OLESTARTUP
290
     0
  0
ENDSEC
  0
SECTION
  2
CLASSES
  0
CLASS
  1
ACDBDICTIONARYWDFLT
  2
AcDbDictionaryWithDefault
  3
AutoCAD 2000
 90
        0
280
     0
281
     0
  0
CLASS
  1
ACDBPLACEHOLDER
  2
AcDbPlaceHolder
  3
AutoCAD 2000
 90
        0
280
     0
281
     0
  0
CLASS
  1
LAYOUT
  2
AcDbLayout
  3
AutoCAD 2000
 90
        0
280
     0
281
     0
  0
CLASS
  1
DICTIONARYVAR
  2
AcDbDictionaryVar
  3
AutoCAD 2000
 90
        0
280
     0
281
     0
  0
ENDSEC
  0
SECTION
  2
TABLES
  0
TABLE
  2
VPORT
  5
8
330
0
100
AcDbSymbolTable
 70
     4
  0
VPORT
  5
60
330
8
100
AcDbSymbolTableRecord
100
AcDbViewportTableRecord
  2
*Active
 70
     0
 10
0.0
 20
0.0
 11
1.0
 21
1.0
 12
0.8683784199743627
 22
0.8633199166079633
 13
0.0
 23
0.0
 14
10.0
 24
10.0
 15
10.0
 25
10.0
 16
0.0
 26
0.0
 36
1.0
 17
0.0
 27
0.0
 37
0.0
 40
1.808894489893272
 41
2.112280701754385
 42
50.0
 43
0.0
 44
0.0
 50
0.0
 51
0.0
 71
     0
 72
   100
 73
     1
 74
     3
 75
     0
 76
     0
 77
     0
 78
     0
281
     0
 65
     1
110
0.0
120
0.0
130
0.0
111
1.0
121
0.0
131
0.0
112
0.0
122
1.0
132
0.0
 79
     0
146
0.0
  0
ENDTAB
  0
TABLE
  2
LTYPE
  5
5
330
0
100
AcDbSymbolTable
 70
     1
  0
LTYPE
  5
14
330
5
100
AcDbSymbolTableRecord
100
AcDbLinetypeTableRecord
  2
ByBlock
 70
     0
  3

 72
    65
 73
     0
 40
0.0
  0
LTYPE
  5
15
330
5
100
AcDbSymbolTableRecord
100
AcDbLinetypeTableRecord
  2
ByLayer
 70
     0
  3

 72
    65
 73
     0
 40
0.0
  0
LTYPE
  5
16
330
5
100
AcDbSymbolTableRecord
100
AcDbLinetypeTableRecord
  2
Continuous
 70
     0
  3
Solid line
 72
    65
 73
     0
 40
0.0
  0
ENDTAB
  0
TABLE
  2
LAYER
  5
2
330
0
100
AcDbSymbolTable
 70
     2
  0
LAYER
  5
10
330
2
100
AcDbSymbolTableRecord
100
AcDbLayerTableRecord
  2
0
 70
     0
 62
     7
  6
Continuous
370
    -3
390
F
  0
LAYER
  5
2B
330
2
100
AcDbSymbolTableRecord
100
AcDbLayerTableRecord
  2
Ceco.NET 12
 70
     0
 62
     5
  6
Continuous
370
    -3
390
F
  0
ENDTAB
  0
TABLE
  2
STYLE
  5
3
330
0
100
AcDbSymbolTable
 70
     1
  0
STYLE
  5
11
330
3
100
AcDbSymbolTableRecord
100
AcDbTextStyleTableRecord
  2
Standard
 70
     0
 40
0.0
 41
1.0
 50
0.0
 71
     0
 42
2.5
  3
txt
  4

  0
ENDTAB
  0
TABLE
  2
VIEW
  5
6
330
0
100
AcDbSymbolTable
 70
     0
  0
ENDTAB
  0
TABLE
  2
UCS
  5
7
330
0
100
AcDbSymbolTable
 70
     0
  0
ENDTAB
  0
TABLE
  2
APPID
  5
9
330
0
100
AcDbSymbolTable
 70
     1
  0
APPID
  5
12
330
9
100
AcDbSymbolTableRecord
100
AcDbRegAppTableRecord
  2
ACAD
 70
     0
  0
ENDTAB
  0
TABLE
  2
DIMSTYLE
  5
A
330
0
100
AcDbSymbolTable
 70
     2
100
AcDbDimStyleTable
 71
     0
  0
DIMSTYLE
105
27
330
A
100
AcDbSymbolTableRecord
100
AcDbDimStyleTableRecord
  2
ISO-25
 70
     0
 41
2.5
 42
0.625
 43
3.75
 44
1.25
 73
     0
 74
     0
 77
     1
 78
     8
140
2.5
141
2.5
143
0.03937007874016
147
0.625
171
     3
172
     1
271
     2
272
     2
274
     3
278
    44
283
     0
284
     8
340
11
  0
DIMSTYLE
105
2C
330
A
100
AcDbSymbolTableRecord
100
AcDbDimStyleTableRecord
  2
STANDARD
 70
     0
279
     2
340
11
  0
ENDTAB
  0
TABLE
  2
BLOCK_RECORD
  5
1
330
0
100
AcDbSymbolTable
 70
     2
  0
BLOCK_RECORD
  5
1F
330
1
100
AcDbSymbolTableRecord
100
AcDbBlockTableRecord
  2
*Model_Space
340
22
  0
BLOCK_RECORD
  5
1B
330
1
100
AcDbSymbolTableRecord
100
AcDbBlockTableRecord
  2
*Paper_Space
340
1E
  0
BLOCK_RECORD
  5
23
330
1
100
AcDbSymbolTableRecord
100
AcDbBlockTableRecord
  2
*Paper_Space0
340
26
  0
BLOCK_RECORD
  5
2D
330
1
100
AcDbSymbolTableRecord
100
AcDbBlockTableRecord
  2
jacuzz 07Tm
340
0
102
{BLKREFS
331
5B
102
}
1001
ACAD
1000
DesignCenter Data
1002
{
1070
     1
1070
     6
1002
}
  0
ENDTAB
  0
ENDSEC
  0
SECTION
  2
BLOCKS
  0
BLOCK
  5
20
330
1F
100
AcDbEntity
  8
0
100
AcDbBlockBegin
  2
*Model_Space
 70
     0
 10
0.0
 20
0.0
 30
0.0
  3
*Model_Space
  1

  0
ENDBLK
  5
21
330
1F
100
AcDbEntity
  8
0
100
AcDbBlockEnd
  0
BLOCK
  5
1C
330
1B
100
AcDbEntity
 67
     1
  8
0
100
AcDbBlockBegin
  2
*Paper_Space
 70
     0
 10
0.0
 20
0.0
 30
0.0
  3
*Paper_Space
  1

  0
ENDBLK
  5
1D
330
1B
100
AcDbEntity
 67
     1
  8
0
100
AcDbBlockEnd
  0
BLOCK
  5
24
330
23
100
AcDbEntity
  8
0
100
AcDbBlockBegin
  2
*Paper_Space0
 70
     0
 10
0.0
 20
0.0
 30
0.0
  3
*Paper_Space0
  1

  0
ENDBLK
  5
25
330
23
100
AcDbEntity
  8
0
100
AcDbBlockEnd
  0
BLOCK
  5
59
330
2D
100
AcDbEntity
  8
0
100
AcDbBlockBegin
  2
jacuzz 07Tm
 70
     0
 10
0.0
 20
0.0
 30
0.0
  3
jacuzz 07Tm
  1

  0
LINE
  5
2E
330
2D
100
AcDbEntity
  8
Ceco.NET 12
  6
Continuous
100
AcDbLine
 10
0.0
 20
0.0
 30
0.0
 11
1.310002634065511
 21
-0.0000000000000001
 31
0.0
  0
LINE
  5
2F
330
2D
100
AcDbEntity
  8
Ceco.NET 12
  6
Continuous
100
AcDbLine
 10
1.320001113352108
 20
0.0100001087317744
 30
0.0
 11
1.320001113352108
 21
0.1888567696249371
 31
0.0
  0
LINE
  5
30
330
2D
100
AcDbEntity
  8
Ceco.NET 12
  6
Continuous
100
AcDbLine
 10
0.8210658148833891
 20
0.1773447394495718
 30
0.0
 11
0.824520646019881
 21
0.1807989595441229
 31
0.0
  0
LINE
  5
31
330
2D
100
AcDbEntity
  8
Ceco.NET 12
  6
Continuous
100
AcDbLine
 10
1.244379581091697
 20
0.8068951412211355
 30
0.0
 11
1.172674827675452
 21
0.6312774099785134
 31
0.0
  0
LINE
  5
32
330
2D
100
AcDbEntity
  8
Ceco.NET 12
  6
Continuous
100
AcDbLine
 10
1.118710047581636
 20
0.536314159786702
 30
0.0
 11
1.148062261957815
 21
0.5714592554476922
 31
0.0
  0
LINE
  5
33
330
2D
100
AcDbEntity
  8
Ceco.NET 12
  6
Continuous
100
AcDbLine
 10
1.123426680327052
 20
0.7487481863999525
 30
0.0
 11
1.07571408137731
 21
0.6318878408779404
 31
0.0
  0
LINE
  5
34
330
2D
100
AcDbEntity
  8
Ceco.NET 12
  6
Continuous
100
AcDbLine
 10
0.7968948288087132
 20
1.254377449336353
 30
0.0
 11
0.7130448020851999
 21
1.220144231932531
 31
0.0
  0
LINE
  5
35
330
2D
100
AcDbEntity
  8
Ceco.NET 12
  6
Continuous
100
AcDbLine
 10
0.6706012177958691
 20
1.222325040621272
 30
0.0
 11
0.5396587996931011
 21
1.292211740581301
 31
0.0
  0
LINE
  5
36
330
2D
100
AcDbEntity
  8
Ceco.NET 12
  6
Continuous
100
AcDbLine
 10
0.0000000000000002
 20
1.330002036806471
 30
0.0
 11
0.1788625676319293
 21
1.330002036806471
 31
0.0
  0
LINE
  5
37
330
2D
100
AcDbEntity
  8
Ceco.NET 12
  6
Continuous
100
AcDbLine
 10
0.2140677490838201
 20
1.154008107408615
 30
0.0
 11
0.0612465669090925
 21
0.6178854074302089
 31
0.0
  0
LINE
  5
38
330
2D
100
AcDbEntity
  8
Ceco.NET 12
  6
Continuous
100
AcDbLine
 10
-0.0099988866478913
 20
1.320003557519874
 30
0.0
 11
-0.0099988866478915
 21
0.0100001087317745
 31
0.0
  0
ARC
  5
39
330
2D
100
AcDbEntity
  8
Ceco.NET 12
  6
Continuous
100
AcDbCircle
 10
0.3732219736195277
 20
0.3832681141775505
 30
0.0
 40
0.3258267091180015
100
AcDbArc
 50
194.822112
 51
255.166073
  0
ARC
  5
3A
330
2D
100
AcDbEntity
  8
Ceco.NET 12
  6
Continuous
100
AcDbCircle
 10
0.4434027884340022
 20
0.6482590802517063
 30
0.0
 40
0.6000008208483231
100
AcDbArc
 50
255.166151
 51
302.112344
  0
ARC
  5
3B
330
2D
100
AcDbEntity
  8
Ceco.NET 12
  6
Continuous
100
AcDbCircle
 10
0.6382606009651094
 20
0.4534043229303063
 30
0.0
 40
0.6000010245289697
100
AcDbArc
 50
164.089842
 51
194.822183
  0
ARC
  5
3C
330
2D
100
AcDbEntity
  8
Ceco.NET 12
  6
Continuous
100
AcDbCircle
 10
0.7678192127513272
 20
0.7778176920379247
 30
0.0
 40
0.5700011056949417
100
AcDbArc
 50
170.763386
 51
262.063432
  0
ARC
  5
3D
330
2D
100
AcDbEntity
  8
Ceco.NET 12
  6
Continuous
100
AcDbCircle
 10
1.375330757462292
 20
0.1888563622636429
 30
0.0
 40
0.0553296441101824
100
AcDbArc
 50
153.553865
 51
179.999443
  0
ARC
  5
3E
330
2D
100
AcDbEntity
  8
Ceco.NET 12
  6
Continuous
100
AcDbCircle
 10
0.1788615492286933
 20
1.385333514042479
 30
0.0
 40
0.0553296441101824
100
AcDbArc
 50
270.001148
 51
296.446168
  0
ARC
  5
3F
330
2D
100
AcDbEntity
  8
Ceco.NET 12
  6
Continuous
100
AcDbCircle
 10
0.5762952450523214
 20
0.5862937243389189
 30
0.0
 40
0.8370920192409293
100
AcDbArc
 50
333.554444
 51
116.445208
  0
ARC
  5
40
330
2D
100
AcDbEntity
  8
Ceco.NET 12
  6
Continuous
100
AcDbCircle
 10
0.4326425435271668
 20
1.091703623218369
 30
0.0
 40
0.2272803089820088
100
AcDbArc
 50
61.90924000000009
 51
164.089776
  0
ARC
  5
41
330
2D
100
AcDbEntity
  8
Ceco.NET 12
  6
Continuous
100
AcDbCircle
 10
0.7706685013239241
 20
1.02827237768824
 30
0.0
 40
0.1000004762757982
100
AcDbArc
 50
66.5337840000001
 51
131.551076
  0
ARC
  5
42
330
2D
100
AcDbEntity
  8
Ceco.NET 12
  6
Continuous
100
AcDbCircle
 10
0.5807230586401177
 20
0.5907223526493027
 30
0.0
 40
0.5770009984946012
100
AcDbArc
 50
19.61642200000003
 51
66.5335000000001
  0
ARC
  5
43
330
2D
100
AcDbEntity
  8
Ceco.NET 12
  6
Continuous
100
AcDbCircle
 10
-0.000000203680647
 20
1.320003353839228
 30
0.0
 40
0.0099997013704791
100
AcDbArc
 50
89.99880400000007
 51
179.998804
  0
CIRCLE
  5
44
330
2D
100
AcDbEntity
  8
Ceco.NET 12
  6
Continuous
100
AcDbCircle
 10
1.022614332991823
 20
0.7607125912925766
 30
0.0
 40
0.0341747610580978
  0
ARC
  5
45
330
2D
100
AcDbEntity
  8
Ceco.NET 12
  6
Continuous
100
AcDbCircle
 10
1.029423173344482
 20
0.6507889975696156
 30
0.0
 40
0.0500005436588701
100
AcDbArc
 50
282.531681
 51
337.790941
  0
ARC
  5
46
330
2D
100
AcDbEntity
  8
Ceco.NET 12
  6
Continuous
100
AcDbCircle
 10
0.6960187294309347
 20
0.2627985475885279
 30
0.0
 40
0.0500001362975758
100
AcDbArc
 50
262.063934
 51
356.123099
  0
ARC
  5
47
330
2D
100
AcDbEntity
  8
Ceco.NET 12
  6
Continuous
100
AcDbCircle
 10
1.122075870275336
 20
0.2339268158589116
 30
0.0
 40
0.3770334495691328
100
AcDbArc
 50
102.530781
 51
176.123342
  0
ARC
  5
48
330
2D
100
AcDbEntity
  8
Ceco.NET 12
  6
Continuous
100
AcDbCircle
 10
1.077136383336166
 20
0.7676489357303331
 30
0.0
 40
0.0500003399782235
100
AcDbArc
 50
337.789796
 51
19.61670200000002
  0
ARC
  5
49
330
2D
100
AcDbEntity
  8
Ceco.NET 12
  6
Continuous
100
AcDbCircle
 10
0.9860039587554345
 20
0.3700028009917564
 30
0.0
 40
0.180000531407403
100
AcDbArc
 50
229.888632
 51
43.06980200000007
  0
ARC
  5
4A
330
2D
100
AcDbEntity
  8
Ceco.NET 12
  6
Continuous
100
AcDbCircle
 10
0.2545596654124225
 20
0.8612841881029062
 30
0.0
 40
0.0500001362975758
100
AcDbArc
 50
94.32917299999997
 51
170.762953
  0
ARC
  5
4B
330
2D
100
AcDbEntity
  8
Ceco.NET 12
  6
Continuous
100
AcDbCircle
 10
0.1925346310700278
 20
1.680552724956088
 30
0.0
 40
0.7716123574426901
100
AcDbArc
 50
274.3294000000001
 51
311.551525
  0
ARC
  5
4C
330
2D
100
AcDbEntity
  8
Ceco.NET 12
  6
Continuous
100
AcDbCircle
 10
0.6941426269902891
 20
1.266434528923418
 30
0.0
 40
0.0499997289362805
100
AcDbArc
 50
241.908258
 51
292.2086730000001
  0
ARC
  5
4D
330
2D
100
AcDbEntity
  8
Ceco.NET 12
  6
Continuous
100
AcDbCircle
 10
0.192535242111969
 20
1.680552928636732
 30
0.0
 40
0.6816119898986663
100
AcDbArc
 50
271.183765
 51
313.415416
  0
ARC
  5
4E
330
2D
100
AcDbEntity
  8
Ceco.NET 12
  6
Continuous
100
AcDbCircle
 10
0.8346918464952379
 20
1.161797670077168
 30
0.0
 40
0.0999996615532118
100
AcDbArc
 50
66.02370300000005
 51
112.209038
  0
ARC
  5
4F
330
2D
100
AcDbEntity
  8
Ceco.NET 12
  6
Continuous
100
AcDbCircle
 10
1.151798783429277
 20
0.8446948067560713
 30
0.0
 40
0.0999996615532107
100
AcDbArc
 50
337.789446
 51
23.97488000000005
  0
ARC
  5
50
330
2D
100
AcDbEntity
  8
Ceco.NET 12
  6
Continuous
100
AcDbCircle
 10
0.7857123539203932
 20
0.2127002372190387
 30
0.0
 40
0.0500003399782235
100
AcDbArc
 50
303.747486
 51
3.610647000000044
  0
ARC
  5
51
330
2D
100
AcDbEntity
  8
Ceco.NET 12
  6
Continuous
100
AcDbCircle
 10
1.080334576857284
 20
0.5683639206533711
 30
0.0
 40
0.0499999326169281
100
AcDbArc
 50
277.113713
 51
320.130882
  0
ARC
  5
52
330
2D
100
AcDbEntity
  8
Ceco.NET 12
  6
Continuous
100
AcDbCircle
 10
1.122075870275336
 20
0.2339268158589116
 30
0.0
 40
0.2870332857057546
100
AcDbArc
 50
97.11440600000001
 51
183.611061
  0
ARC
  5
53
330
2D
100
AcDbEntity
  8
Ceco.NET 12
  6
Continuous
100
AcDbCircle
 10
1.228223224800645
 20
0.6085963478375389
 30
0.0
 40
0.0600000413487036
100
AcDbArc
 50
157.790125
 51
224.567519
  0
ARC
  5
54
330
2D
100
AcDbEntity
  8
Ceco.NET 12
  6
Continuous
100
AcDbCircle
 10
0.7942475914380618
 20
0.0892333062269615
 30
0.0
 40
0.0600000413487026
100
AcDbArc
 50
55.66918500000006
 51
122.1130109999999
  0
ARC
  5
55
330
2D
100
AcDbEntity
  8
Ceco.NET 12
  6
Continuous
100
AcDbCircle
 10
0.9860039587554345
 20
0.3700028009917564
 30
0.0
 40
0.280000600321908
100
AcDbArc
 50
235.668429
 51
44.56758800000009
  0
ARC
  5
56
330
2D
100
AcDbEntity
  8
Ceco.NET 12
  6
Continuous
100
AcDbCircle
 10
0.5807224475981763
 20
0.5907229636912457
 30
0.0
 40
0.7250016707938785
100
AcDbArc
 50
23.97582700000007
 51
66.02423500000002
  0
ARC
  5
57
330
2D
100
AcDbEntity
  8
Ceco.NET 12
  6
Continuous
100
AcDbCircle
 10
0.0
 20
0.0100001087317745
 30
0.0
 40
0.0100001087317734
100
AcDbArc
 50
179.999988
 51
269.999993
  0
ARC
  5
58
330
2D
100
AcDbEntity
  8
Ceco.NET 12
  6
Continuous
100
AcDbCircle
 10
1.310002837746158
 20
0.0100003124124211
 30
0.0
 40
0.0100003124124211
100
AcDbArc
 50
269.99846
 51
359.998455
  0
ENDBLK
  5
5A
330
2D
100
AcDbEntity
  8
0
100
AcDbBlockEnd
  0
ENDSEC
  0
SECTION
  2
ENTITIES
  0
INSERT
  5
5B
330
1F
100
AcDbEntity
  8
Ceco.NET 12
100
AcDbBlockReference
  2
jacuzz 07Tm
 10
0.0
 20
0.0
 30
0.0
  0
ENDSEC
  0
SECTION
  2
OBJECTS
  0
DICTIONARY
  5
C
330
0
100
AcDbDictionary
281
     1
  3
ACAD_GROUP
350
D
  3
ACAD_LAYOUT
350
1A
  3
ACAD_MLINESTYLE
350
17
  3
ACAD_PLOTSETTINGS
350
19
  3
ACAD_PLOTSTYLENAME
350
E
  3
AcDbVariableDictionary
350
5D
  0
DICTIONARY
  5
D
102
{ACAD_REACTORS
330
C
102
}
330
C
100
AcDbDictionary
281
     1
  0
DICTIONARY
  5
1A
102
{ACAD_REACTORS
330
C
102
}
330
C
100
AcDbDictionary
281
     1
  3
Layout1
350
1E
  3
Layout2
350
26
  3
Model
350
22
  0
DICTIONARY
  5
17
102
{ACAD_REACTORS
330
C
102
}
330
C
100
AcDbDictionary
281
     1
  3
Standard
350
18
  0
DICTIONARY
  5
19
102
{ACAD_REACTORS
330
C
102
}
330
C
100
AcDbDictionary
281
     1
  0
ACDBDICTIONARYWDFLT
  5
E
102
{ACAD_REACTORS
330
C
102
}
330
C
100
AcDbDictionary
281
     1
  3
Normal
350
F
100
AcDbDictionaryWithDefault
340
F
  0
DICTIONARY
  5
5D
102
{ACAD_REACTORS
330
C
102
}
330
C
100
AcDbDictionary
281
     1
  3
DIMASSOC
350
5F
  3
HIDETEXT
350
5E
  0
LAYOUT
  5
1E
102
{ACAD_REACTORS
330
1A
102
}
330
1A
100
AcDbPlotSettings
  1

  2
Microsoft Office Document Image Writer
  4

  6

 40
0.0
 41
0.0
 42
0.0
 43
0.0
 44
0.0
 45
0.0
 46
0.0
 47
0.0
 48
0.0
 49
0.0
140
0.0
141
0.0
142
1.0
143
1.0
 70
   688
 72
     0
 73
     0
 74
     5
  7

 75
    16
147
1.0
148
0.0
149
0.0
100
AcDbLayout
  1
Layout1
 70
     1
 71
     1
 10
0.0
 20
0.0
 11
420.0
 21
297.0
 12
0.0
 22
0.0
 32
0.0
 14
1.000000000000000E+20
 24
1.000000000000000E+20
 34
1.000000000000000E+20
 15
-1.000000000000000E+20
 25
-1.000000000000000E+20
 35
-1.000000000000000E+20
146
0.0
 13
0.0
 23
0.0
 33
0.0
 16
1.0
 26
0.0
 36
0.0
 17
0.0
 27
1.0
 37
0.0
 76
     0
330
1B
  0
LAYOUT
  5
26
102
{ACAD_REACTORS
330
1A
102
}
330
1A
100
AcDbPlotSettings
  1

  2
Microsoft Office Document Image Writer
  4

  6

 40
0.0
 41
0.0
 42
0.0
 43
0.0
 44
0.0
 45
0.0
 46
0.0
 47
0.0
 48
0.0
 49
0.0
140
0.0
141
0.0
142
1.0
143
1.0
 70
   688
 72
     0
 73
     0
 74
     5
  7

 75
    16
147
1.0
148
0.0
149
0.0
100
AcDbLayout
  1
Layout2
 70
     1
 71
     2
 10
0.0
 20
0.0
 11
12.0
 21
9.0
 12
0.0
 22
0.0
 32
0.0
 14
0.0
 24
0.0
 34
0.0
 15
0.0
 25
0.0
 35
0.0
146
0.0
 13
0.0
 23
0.0
 33
0.0
 16
1.0
 26
0.0
 36
0.0
 17
0.0
 27
1.0
 37
0.0
 76
     0
330
23
  0
LAYOUT
  5
22
102
{ACAD_REACTORS
330
1A
102
}
330
1A
100
AcDbPlotSettings
  1

  2
Microsoft Office Document Image Writer
  4

  6

 40
0.0
 41
0.0
 42
0.0
 43
0.0
 44
0.0
 45
0.0
 46
0.0
 47
0.0
 48
0.0
 49
0.0
140
0.0
141
0.0
142
1.0
143
1.0
 70
  1712
 72
     0
 73
     0
 74
     0
  7

 75
     0
147
1.0
148
0.0
149
0.0
100
AcDbLayout
  1
Model
 70
     1
 71
     0
 10
0.0
 20
0.0
 11
12.0
 21
9.0
 12
0.0
 22
0.0
 32
0.0
 14
0.0
 24
0.0
 34
0.0
 15
0.0
 25
0.0
 35
0.0
146
0.0
 13
0.0
 23
0.0
 33
0.0
 16
1.0
 26
0.0
 36
0.0
 17
0.0
 27
1.0
 37
0.0
 76
     0
330
1F
  0
MLINESTYLE
  5
18
102
{ACAD_REACTORS
330
17
102
}
330
17
100
AcDbMlineStyle
  2
STANDARD
 70
     0
  3

 62
   256
 51
90.0
 52
90.0
 71
     2
 49
0.5
 62
   256
  6
BYLAYER
 49
-0.5
 62
   256
  6
BYLAYER
  0
ACDBPLACEHOLDER
  5
F
102
{ACAD_REACTORS
330
E
102
}
330
E
  0
DICTIONARYVAR
  5
5F
102
{ACAD_REACTORS
330
5D
102
}
330
5D
100
DictionaryVariables
280
     0
  1
2
  0
DICTIONARYVAR
  5
5E
102
{ACAD_REACTORS
330
5D
102
}
330
5D
100
DictionaryVariables
280
     0
  1
1
  0
ENDSEC
  0
EOF
