  0
SECTION
  2
HEADER
  9
$ACADVER
  1
AC1015
  9
$ACADMAINTVER
 70
    13
  9
$DWGCODEPAGE
  3
ANSI_1252
  9
$INSBASE
 10
0.0
 20
0.0
 30
0.0
  9
$EXTMIN
 10
-0.0128164049386896
 20
-0.0090630292066862
 30
-0.0015258207003583
  9
$EXTMAX
 10
1.813660159024493
 20
0.8066714892706841
 30
0.0000000349246037
  9
$LIMMIN
 10
0.0
 20
0.0
  9
$LIMMAX
 10
420.0
 20
297.0
  9
$ORTHOMODE
 70
     0
  9
$REGENMODE
 70
     1
  9
$FILLMODE
 70
     1
  9
$QTEXTMODE
 70
     0
  9
$MIRRTEXT
 70
     1
  9
$LTSCALE
 40
1.0
  9
$ATTMODE
 70
     1
  9
$TEXTSIZE
 40
2.5
  9
$TRACEWID
 40
1.0
  9
$TEXTSTYLE
  7
Standard
  9
$CLAYER
  8
Ceco.NET 9
  9
$CELTYPE
  6
ByLayer
  9
$CECOLOR
 62
   256
  9
$CELTSCALE
 40
1.0
  9
$DISPSILH
 70
     0
  9
$DIMSCALE
 40
1.0
  9
$DIMASZ
 40
2.5
  9
$DIMEXO
 40
0.625
  9
$DIMDLI
 40
3.75
  9
$DIMRND
 40
0.0
  9
$DIMDLE
 40
0.0
  9
$DIMEXE
 40
1.25
  9
$DIMTP
 40
0.0
  9
$DIMTM
 40
0.0
  9
$DIMTXT
 40
2.5
  9
$DIMCEN
 40
2.5
  9
$DIMTSZ
 40
0.0
  9
$DIMTOL
 70
     0
  9
$DIMLIM
 70
     0
  9
$DIMTIH
 70
     0
  9
$DIMTOH
 70
     0
  9
$DIMSE1
 70
     0
  9
$DIMSE2
 70
     0
  9
$DIMTAD
 70
     1
  9
$DIMZIN
 70
     8
  9
$DIMBLK
  1

  9
$DIMASO
 70
     1
  9
$DIMSHO
 70
     1
  9
$DIMPOST
  1

  9
$DIMAPOST
  1

  9
$DIMALT
 70
     0
  9
$DIMALTD
 70
     3
  9
$DIMALTF
 40
0.03937007874016
  9
$DIMLFAC
 40
1.0
  9
$DIMTOFL
 70
     1
  9
$DIMTVP
 40
0.0
  9
$DIMTIX
 70
     0
  9
$DIMSOXD
 70
     0
  9
$DIMSAH
 70
     0
  9
$DIMBLK1
  1

  9
$DIMBLK2
  1

  9
$DIMSTYLE
  2
ISO-25
  9
$DIMCLRD
 70
     0
  9
$DIMCLRE
 70
     0
  9
$DIMCLRT
 70
     0
  9
$DIMTFAC
 40
1.0
  9
$DIMGAP
 40
0.625
  9
$DIMJUST
 70
     0
  9
$DIMSD1
 70
     0
  9
$DIMSD2
 70
     0
  9
$DIMTOLJ
 70
     0
  9
$DIMTZIN
 70
     8
  9
$DIMALTZ
 70
     0
  9
$DIMALTTZ
 70
     0
  9
$DIMUPT
 70
     0
  9
$DIMDEC
 70
     2
  9
$DIMTDEC
 70
     2
  9
$DIMALTU
 70
     2
  9
$DIMALTTD
 70
     3
  9
$DIMTXSTY
  7
Standard
  9
$DIMAUNIT
 70
     0
  9
$DIMADEC
 70
     0
  9
$DIMALTRND
 40
0.0
  9
$DIMAZIN
 70
     0
  9
$DIMDSEP
 70
    44
  9
$DIMATFIT
 70
     3
  9
$DIMFRAC
 70
     0
  9
$DIMLDRBLK
  1

  9
$DIMLUNIT
 70
     2
  9
$DIMLWD
 70
    -2
  9
$DIMLWE
 70
    -2
  9
$DIMTMOVE
 70
     0
  9
$LUNITS
 70
     2
  9
$LUPREC
 70
     2
  9
$SKETCHINC
 40
1.0
  9
$FILLETRAD
 40
10.0
  9
$AUNITS
 70
     0
  9
$AUPREC
 70
     0
  9
$MENU
  1
.
  9
$ELEVATION
 40
0.0
  9
$PELEVATION
 40
0.0
  9
$THICKNESS
 40
0.0
  9
$LIMCHECK
 70
     0
  9
$CHAMFERA
 40
10.0
  9
$CHAMFERB
 40
10.0
  9
$CHAMFERC
 40
20.0
  9
$CHAMFERD
 40
0.0
  9
$SKPOLY
 70
     0
  9
$TDCREATE
 40
2455077.717470613
  9
$TDUCREATE
 40
2455077.842470613
  9
$TDUPDATE
 40
2455077.718822974
  9
$TDUUPDATE
 40
2455077.843822974
  9
$TDINDWG
 40
0.0013534491
  9
$TDUSRTIMER
 40
0.0013534491
  9
$USRTIMER
 70
     1
  9
$ANGBASE
 50
0.0
  9
$ANGDIR
 70
     0
  9
$PDMODE
 70
     0
  9
$PDSIZE
 40
0.0
  9
$PLINEWID
 40
0.0
  9
$SPLFRAME
 70
     0
  9
$SPLINETYPE
 70
     6
  9
$SPLINESEGS
 70
     8
  9
$HANDSEED
  5
7C
  9
$SURFTAB1
 70
     6
  9
$SURFTAB2
 70
     6
  9
$SURFTYPE
 70
     6
  9
$SURFU
 70
     6
  9
$SURFV
 70
     6
  9
$UCSBASE
  2

  9
$UCSNAME
  2

  9
$UCSORG
 10
0.0
 20
0.0
 30
0.0
  9
$UCSXDIR
 10
1.0
 20
0.0
 30
0.0
  9
$UCSYDIR
 10
0.0
 20
1.0
 30
0.0
  9
$UCSORTHOREF
  2

  9
$UCSORTHOVIEW
 70
     0
  9
$UCSORGTOP
 10
0.0
 20
0.0
 30
0.0
  9
$UCSORGBOTTOM
 10
0.0
 20
0.0
 30
0.0
  9
$UCSORGLEFT
 10
0.0
 20
0.0
 30
0.0
  9
$UCSORGRIGHT
 10
0.0
 20
0.0
 30
0.0
  9
$UCSORGFRONT
 10
0.0
 20
0.0
 30
0.0
  9
$UCSORGBACK
 10
0.0
 20
0.0
 30
0.0
  9
$PUCSBASE
  2

  9
$PUCSNAME
  2

  9
$PUCSORG
 10
0.0
 20
0.0
 30
0.0
  9
$PUCSXDIR
 10
1.0
 20
0.0
 30
0.0
  9
$PUCSYDIR
 10
0.0
 20
1.0
 30
0.0
  9
$PUCSORTHOREF
  2

  9
$PUCSORTHOVIEW
 70
     0
  9
$PUCSORGTOP
 10
0.0
 20
0.0
 30
0.0
  9
$PUCSORGBOTTOM
 10
0.0
 20
0.0
 30
0.0
  9
$PUCSORGLEFT
 10
0.0
 20
0.0
 30
0.0
  9
$PUCSORGRIGHT
 10
0.0
 20
0.0
 30
0.0
  9
$PUCSORGFRONT
 10
0.0
 20
0.0
 30
0.0
  9
$PUCSORGBACK
 10
0.0
 20
0.0
 30
0.0
  9
$USERI1
 70
     0
  9
$USERI2
 70
     0
  9
$USERI3
 70
     0
  9
$USERI4
 70
     0
  9
$USERI5
 70
     0
  9
$USERR1
 40
0.0
  9
$USERR2
 40
0.0
  9
$USERR3
 40
0.0
  9
$USERR4
 40
0.0
  9
$USERR5
 40
0.0
  9
$WORLDVIEW
 70
     1
  9
$SHADEDGE
 70
     3
  9
$SHADEDIF
 70
    70
  9
$TILEMODE
 70
     1
  9
$MAXACTVP
 70
    64
  9
$PINSBASE
 10
0.0
 20
0.0
 30
0.0
  9
$PLIMCHECK
 70
     0
  9
$PEXTMIN
 10
1.000000000000000E+20
 20
1.000000000000000E+20
 30
1.000000000000000E+20
  9
$PEXTMAX
 10
-1.000000000000000E+20
 20
-1.000000000000000E+20
 30
-1.000000000000000E+20
  9
$PLIMMIN
 10
0.0
 20
0.0
  9
$PLIMMAX
 10
420.0
 20
297.0
  9
$UNITMODE
 70
     0
  9
$VISRETAIN
 70
     1
  9
$PLINEGEN
 70
     0
  9
$PSLTSCALE
 70
     1
  9
$TREEDEPTH
 70
  3020
  9
$CMLSTYLE
  2
Standard
  9
$CMLJUST
 70
     0
  9
$CMLSCALE
 40
20.0
  9
$PROXYGRAPHICS
 70
     1
  9
$MEASUREMENT
 70
     1
  9
$CELWEIGHT
370
    -1
  9
$ENDCAPS
280
     0
  9
$JOINSTYLE
280
     0
  9
$LWDISPLAY
290
     0
  9
$INSUNITS
 70
     6
  9
$HYPERLINKBASE
  1

  9
$STYLESHEET
  1

  9
$XEDIT
290
     1
  9
$CEPSNTYPE
380
     0
  9
$PSTYLEMODE
290
     1
  9
$FINGERPRINTGUID
  2
{217C7B4D-637F-4EB0-B57D-48E0803ABAE5}
  9
$VERSIONGUID
  2
{4C9187EE-DCBB-492C-A02C-41A5F48AE9FB}
  9
$EXTNAMES
290
     1
  9
$PSVPSCALE
 40
0.0
  9
$OLESTARTUP
290
     0
  0
ENDSEC
  0
SECTION
  2
CLASSES
  0
CLASS
  1
ACDBDICTIONARYWDFLT
  2
AcDbDictionaryWithDefault
  3
AutoCAD 2000
 90
        0
280
     0
281
     0
  0
CLASS
  1
ACDBPLACEHOLDER
  2
AcDbPlaceHolder
  3
AutoCAD 2000
 90
        0
280
     0
281
     0
  0
CLASS
  1
LAYOUT
  2
AcDbLayout
  3
AutoCAD 2000
 90
        0
280
     0
281
     0
  0
CLASS
  1
DICTIONARYVAR
  2
AcDbDictionaryVar
  3
AutoCAD 2000
 90
        0
280
     0
281
     0
  0
ENDSEC
  0
SECTION
  2
TABLES
  0
TABLE
  2
VPORT
  5
8
330
0
100
AcDbSymbolTable
 70
     4
  0
VPORT
  5
7B
330
8
100
AcDbSymbolTableRecord
100
AcDbViewportTableRecord
  2
*Active
 70
     0
 10
0.0
 20
0.0
 11
1.0
 21
1.0
 12
0.9004218770429018
 22
0.398804230031999
 13
0.0
 23
0.0
 14
10.0
 24
10.0
 15
10.0
 25
10.0
 16
0.0
 26
0.0
 36
1.0
 17
0.0
 27
0.0
 37
0.0
 40
0.8689956143547131
 41
2.112280701754385
 42
50.0
 43
0.0
 44
0.0
 50
0.0
 51
0.0
 71
     0
 72
   100
 73
     1
 74
     3
 75
     0
 76
     0
 77
     0
 78
     0
281
     0
 65
     1
110
0.0
120
0.0
130
0.0
111
1.0
121
0.0
131
0.0
112
0.0
122
1.0
132
0.0
 79
     0
146
0.0
  0
ENDTAB
  0
TABLE
  2
LTYPE
  5
5
330
0
100
AcDbSymbolTable
 70
     1
  0
LTYPE
  5
14
330
5
100
AcDbSymbolTableRecord
100
AcDbLinetypeTableRecord
  2
ByBlock
 70
     0
  3

 72
    65
 73
     0
 40
0.0
  0
LTYPE
  5
15
330
5
100
AcDbSymbolTableRecord
100
AcDbLinetypeTableRecord
  2
ByLayer
 70
     0
  3

 72
    65
 73
     0
 40
0.0
  0
LTYPE
  5
16
330
5
100
AcDbSymbolTableRecord
100
AcDbLinetypeTableRecord
  2
Continuous
 70
     0
  3
Solid line
 72
    65
 73
     0
 40
0.0
  0
ENDTAB
  0
TABLE
  2
LAYER
  5
2
330
0
100
AcDbSymbolTable
 70
     2
  0
LAYER
  5
10
330
2
100
AcDbSymbolTableRecord
100
AcDbLayerTableRecord
  2
0
 70
     0
 62
     7
  6
Continuous
370
    -3
390
F
  0
LAYER
  5
2B
330
2
100
AcDbSymbolTableRecord
100
AcDbLayerTableRecord
  2
Ceco.NET 9
 70
     0
 62
     5
  6
Continuous
370
    -3
390
F
  0
ENDTAB
  0
TABLE
  2
STYLE
  5
3
330
0
100
AcDbSymbolTable
 70
     1
  0
STYLE
  5
11
330
3
100
AcDbSymbolTableRecord
100
AcDbTextStyleTableRecord
  2
Standard
 70
     0
 40
0.0
 41
1.0
 50
0.0
 71
     0
 42
2.5
  3
txt
  4

  0
ENDTAB
  0
TABLE
  2
VIEW
  5
6
330
0
100
AcDbSymbolTable
 70
     0
  0
ENDTAB
  0
TABLE
  2
UCS
  5
7
330
0
100
AcDbSymbolTable
 70
     0
  0
ENDTAB
  0
TABLE
  2
APPID
  5
9
330
0
100
AcDbSymbolTable
 70
     1
  0
APPID
  5
12
330
9
100
AcDbSymbolTableRecord
100
AcDbRegAppTableRecord
  2
ACAD
 70
     0
  0
ENDTAB
  0
TABLE
  2
DIMSTYLE
  5
A
330
0
100
AcDbSymbolTable
 70
     2
100
AcDbDimStyleTable
 71
     0
  0
DIMSTYLE
105
27
330
A
100
AcDbSymbolTableRecord
100
AcDbDimStyleTableRecord
  2
ISO-25
 70
     0
 41
2.5
 42
0.625
 43
3.75
 44
1.25
 73
     0
 74
     0
 77
     1
 78
     8
140
2.5
141
2.5
143
0.03937007874016
147
0.625
171
     3
172
     1
271
     2
272
     2
274
     3
278
    44
283
     0
284
     8
340
11
  0
DIMSTYLE
105
2C
330
A
100
AcDbSymbolTableRecord
100
AcDbDimStyleTableRecord
  2
STANDARD
 70
     0
279
     2
340
11
  0
ENDTAB
  0
TABLE
  2
BLOCK_RECORD
  5
1
330
0
100
AcDbSymbolTable
 70
     2
  0
BLOCK_RECORD
  5
1F
330
1
100
AcDbSymbolTableRecord
100
AcDbBlockTableRecord
  2
*Model_Space
340
22
  0
BLOCK_RECORD
  5
1B
330
1
100
AcDbSymbolTableRecord
100
AcDbBlockTableRecord
  2
*Paper_Space
340
1E
  0
BLOCK_RECORD
  5
23
330
1
100
AcDbSymbolTableRecord
100
AcDbBlockTableRecord
  2
*Paper_Space0
340
26
  0
BLOCK_RECORD
  5
2D
330
1
100
AcDbSymbolTableRecord
100
AcDbBlockTableRecord
  2
jacuzz 09Tm
340
0
102
{BLKREFS
331
76
102
}
1001
ACAD
1000
DesignCenter Data
1002
{
1070
     1
1070
     6
1002
}
  0
ENDTAB
  0
ENDSEC
  0
SECTION
  2
BLOCKS
  0
BLOCK
  5
20
330
1F
100
AcDbEntity
  8
0
100
AcDbBlockBegin
  2
*Model_Space
 70
     0
 10
0.0
 20
0.0
 30
0.0
  3
*Model_Space
  1

  0
ENDBLK
  5
21
330
1F
100
AcDbEntity
  8
0
100
AcDbBlockEnd
  0
BLOCK
  5
1C
330
1B
100
AcDbEntity
 67
     1
  8
0
100
AcDbBlockBegin
  2
*Paper_Space
 70
     0
 10
0.0
 20
0.0
 30
0.0
  3
*Paper_Space
  1

  0
ENDBLK
  5
1D
330
1B
100
AcDbEntity
 67
     1
  8
0
100
AcDbBlockEnd
  0
BLOCK
  5
24
330
23
100
AcDbEntity
  8
0
100
AcDbBlockBegin
  2
*Paper_Space0
 70
     0
 10
0.0
 20
0.0
 30
0.0
  3
*Paper_Space0
  1

  0
ENDBLK
  5
25
330
23
100
AcDbEntity
  8
0
100
AcDbBlockEnd
  0
BLOCK
  5
74
330
2D
100
AcDbEntity
  8
0
100
AcDbBlockBegin
  2
jacuzz 09Tm
 70
     0
 10
0.0
 20
0.0
 30
0.0
  3
jacuzz 09Tm
  1

  0
LINE
  5
2E
330
2D
100
AcDbEntity
  8
Ceco.NET 9
  6
Continuous
100
AcDbLine
 10
0.0249297751077519
 20
0.1705134014817897
 30
0.0
 11
0.0249297751077519
 21
0.6294916785249862
 31
0.0
  0
LINE
  5
2F
330
2D
100
AcDbEntity
  8
Ceco.NET 9
  6
Continuous
100
AcDbLine
 10
0.4714019220418681
 20
0.4995142854960537
 30
0.0
 11
0.4714019220418681
 21
0.3004907945107224
 31
0.0
  0
LINE
  5
30
330
2D
100
AcDbEntity
  8
Ceco.NET 9
  6
Continuous
100
AcDbLine
 10
1.536812955271039
 20
0.0550485719211925
 30
0.0
 11
1.11668284500761
 21
0.0408701035677064
 31
0.0
  0
LINE
  5
31
330
2D
100
AcDbEntity
  8
Ceco.NET 9
  6
Continuous
100
AcDbLine
 10
1.780056889578272
 20
0.0000010160013436
 30
0.0
 11
-0.0000000196684394
 21
0.0000010160013436
 31
0.0
  0
LINE
  5
32
330
2D
100
AcDbEntity
  8
Ceco.NET 9
  6
Continuous
100
AcDbLine
 10
1.11668284500761
 20
0.0408701035677064
 30
0.0
 11
0.8473358036835421
 21
0.0408701035677064
 31
0.0
  0
LINE
  5
33
330
2D
100
AcDbEntity
  8
Ceco.NET 9
  6
Continuous
100
AcDbLine
 10
0.1446074543198087
 20
0.05084164894435
 30
0.0
 11
0.5310486527235199
 21
0.05084164894435
 31
0.0
  0
LINE
  5
34
330
2D
100
AcDbEntity
  8
Ceco.NET 9
  6
Continuous
100
AcDbLine
 10
0.2640441718752868
 20
0.0771584549145246
 30
0.0
 11
0.4151152772010434
 21
0.0639506065297739
 31
0.0
  0
LINE
  5
35
330
2D
100
AcDbEntity
  8
Ceco.NET 9
  6
Continuous
100
AcDbLine
 10
0.4411804535003277
 20
0.0628015089882808
 30
0.0
 11
0.7378264354454201
 21
0.0628015089882808
 31
0.0
  0
LINE
  5
36
330
2D
100
AcDbEntity
  8
Ceco.NET 9
  6
Continuous
100
AcDbLine
 10
0.4353728203761625
 20
0.1008981734275841
 30
0.0
 11
0.7505706485415449
 21
0.1389765498423542
 31
0.0
  0
LINE
  5
37
330
2D
100
AcDbEntity
  8
Ceco.NET 9
  6
Continuous
100
AcDbLine
 10
1.453048892236433
 20
0.1764200947388428
 30
0.0
 11
1.285614915626854
 21
0.172469542772584
 31
0.0
  0
LINE
  5
38
330
2D
100
AcDbEntity
  8
Ceco.NET 9
  6
Continuous
100
AcDbLine
 10
0.7961486390169084
 20
0.141762764246676
 30
0.0
 11
1.081769820839101
 21
0.141762764246676
 31
0.0
  0
LINE
  5
39
330
2D
100
AcDbEntity
  8
Ceco.NET 9
  6
Continuous
100
AcDbLine
 10
0.5261931822099964
 20
0.2457056303507725
 30
0.0
 11
1.127055880256178
 21
0.2457056303507725
 31
0.0
  0
LINE
  5
3A
330
2D
100
AcDbEntity
  8
Ceco.NET 9
  6
Continuous
100
AcDbLine
 10
0.772735564942037
 20
0.7022990135280109
 30
0.0
 11
0.772735564942037
 21
0.6781274944356993
 31
0.0
  0
LINE
  5
3B
330
2D
100
AcDbEntity
  8
Ceco.NET 9
  6
Continuous
100
AcDbLine
 10
0.772735564942037
 20
0.0977045424767205
 30
0.0
 11
0.772735564942037
 21
0.1218758922354719
 31
0.0
  0
LINE
  5
3C
330
2D
100
AcDbEntity
  8
Ceco.NET 9
  6
Continuous
100
AcDbLine
 10
0.8124297221910142
 20
0.7242288949465408
 30
0.0
 11
0.8124297221910142
 21
0.6781274944356993
 31
0.0
  0
LINE
  5
3D
330
2D
100
AcDbEntity
  8
Ceco.NET 9
  6
Continuous
100
AcDbLine
 10
0.8124297221910142
 20
0.0757746610581907
 30
0.0
 11
0.8124297221910142
 21
0.1218758922354719
 31
0.0
  0
LINE
  5
3E
330
2D
100
AcDbEntity
  8
Ceco.NET 9
  6
Continuous
100
AcDbLine
 10
0.5261931822099964
 20
0.5542992803224429
 30
0.0
 11
1.127055880256178
 21
0.5542992803224429
 31
0.0
  0
LINE
  5
3F
330
2D
100
AcDbEntity
  8
Ceco.NET 9
  6
Continuous
100
AcDbLine
 10
1.11668284500761
 20
0.722789898349487
 30
0.0
 11
1.11668284500761
 21
0.6931390839068019
 31
0.0
  0
LINE
  5
40
330
2D
100
AcDbEntity
  8
Ceco.NET 9
  6
Continuous
100
AcDbLine
 10
1.11668284500761
 20
0.0772119643196397
 30
0.0
 11
1.11668284500761
 21
0.106862778762325
 31
0.0
  0
LINE
  5
41
330
2D
100
AcDbEntity
  8
Ceco.NET 9
  6
Continuous
100
AcDbLine
 10
0.7961486390169084
 20
0.6582392677560113
 30
0.0
 11
1.081769820839101
 21
0.6582392677560113
 31
0.0
  0
LINE
  5
42
330
2D
100
AcDbEntity
  8
Ceco.NET 9
  6
Continuous
100
AcDbLine
 10
1.453048892236433
 20
0.6235834612658887
 30
0.0
 11
1.285614915626854
 21
0.6275353679006317
 31
0.0
  0
LINE
  5
43
330
2D
100
AcDbEntity
  8
Ceco.NET 9
  6
Continuous
100
AcDbLine
 10
0.4353728203761625
 20
0.6991067372456316
 30
0.0
 11
0.7505706485415449
 21
0.6610270061623773
 31
0.0
  0
LINE
  5
44
330
2D
100
AcDbEntity
  8
Ceco.NET 9
  6
Continuous
100
AcDbLine
 10
0.4411804535003277
 20
0.7372034016849347
 30
0.0
 11
0.7378264354454201
 21
0.7372034016849347
 31
0.0
  0
LINE
  5
45
330
2D
100
AcDbEntity
  8
Ceco.NET 9
  6
Continuous
100
AcDbLine
 10
0.1446074543198087
 20
0.7491632617288655
 30
0.0
 11
0.5310486527235199
 21
0.7491632617288655
 31
0.0
  0
LINE
  5
46
330
2D
100
AcDbEntity
  8
Ceco.NET 9
  6
Continuous
100
AcDbLine
 10
0.2640441718752868
 20
0.7228464557586909
 30
0.0
 11
0.4151152772010434
 21
0.7360529494749578
 31
0.0
  0
LINE
  5
47
330
2D
100
AcDbEntity
  8
Ceco.NET 9
  6
Continuous
100
AcDbLine
 10
1.11668284500761
 20
0.759134807105509
 30
0.0
 11
0.8473358036835421
 21
0.759134807105509
 31
0.0
  0
LINE
  5
48
330
2D
100
AcDbEntity
  8
Ceco.NET 9
  6
Continuous
100
AcDbLine
 10
1.780056889578272
 20
0.8000010160013435
 30
0.0
 11
-0.0000000196684394
 21
0.8000010160013435
 31
0.0
  0
LINE
  5
49
330
2D
100
AcDbEntity
  8
Ceco.NET 9
  6
Continuous
100
AcDbLine
 10
1.536812955271039
 20
0.7449532907479341
 30
0.0
 11
1.11668284500761
 21
0.759134807105509
 31
0.0
  0
LINE
  5
4A
330
2D
100
AcDbEntity
  8
Ceco.NET 9
  6
Continuous
100
AcDbLine
 10
1.596584823453893
 20
0.3258889659152323
 30
0.0
 11
1.596584823453893
 21
0.4741159447579833
 31
0.0
  0
LINE
  5
4B
330
2D
100
AcDbEntity
  8
Ceco.NET 9
  6
Continuous
100
AcDbLine
 10
1.728206953355876
 20
0.2543512939487701
 30
0.0
 11
1.728206953355876
 21
0.5456537860580059
 31
0.0
  0
ARC
  5
4C
330
2D
100
AcDbEntity
  8
Ceco.NET 9
  6
Continuous
100
AcDbCircle
 10
0.9939608870450433
 20
0.3999964439947124
 30
0.0
 40
0.8875743879979381
100
AcDbArc
 50
167.467577
 51
192.531412
  0
CIRCLE
  5
4D
330
2D
100
AcDbEntity
  8
Ceco.NET 9
  6
Continuous
100
AcDbCircle
 10
1.550683913878673
 20
0.3999964439947124
 30
0.0
 40
0.0299180228011402
  0
ARC
  5
4E
330
2D
100
AcDbEntity
  8
Ceco.NET 9
  6
Continuous
100
AcDbCircle
 10
1.44699386278039
 20
0.4741159447579833
 30
0.0
 40
0.1495909606735035
100
AcDbArc
 50
359.9999850000001
 51
87.68134000000001
  0
ARC
  5
4F
330
2D
100
AcDbEntity
  8
Ceco.NET 9
  6
Continuous
100
AcDbCircle
 10
1.281581051548833
 20
0.5278912035631639
 30
0.0
 40
0.099727307115669
100
AcDbArc
 50
87.68070600000003
 51
140.406313
  0
ARC
  5
50
330
2D
100
AcDbEntity
  8
Ceco.NET 9
  6
Continuous
100
AcDbCircle
 10
1.127055710922617
 20
0.6540260794374307
 30
0.0
 40
0.099727307115669
100
AcDbArc
 50
270.000137
 51
319.175539
  0
ARC
  5
51
330
2D
100
AcDbEntity
  8
Ceco.NET 9
  6
Continuous
100
AcDbCircle
 10
1.081762031495319
 20
0.6931297705609749
 30
0.0
 40
0.1595643687193124
100
AcDbArc
 50
319.179927
 51
320.4103920000001
  0
ARC
  5
52
330
2D
100
AcDbEntity
  8
Ceco.NET 9
  6
Continuous
100
AcDbCircle
 10
0.5261931822099964
 20
0.4995142854960537
 30
0.0
 40
0.0547858414941918
100
AcDbArc
 50
90.00000000000003
 51
180.0
  0
ARC
  5
53
330
2D
100
AcDbEntity
  8
Ceco.NET 9
  6
Continuous
100
AcDbCircle
 10
1.151582153157719
 20
0.722790237016608
 30
0.0
 40
0.0349042188233632
100
AcDbArc
 50
87.67876400000002
 51
180.000459
  0
ARC
  5
54
330
2D
100
AcDbEntity
  8
Ceco.NET 9
  6
Continuous
100
AcDbCircle
 10
0.8473358036835421
 20
0.7242288949465408
 30
0.0
 40
0.0349045574904842
100
AcDbArc
 50
90.00000000000003
 51
179.997488
  0
ARC
  5
55
330
2D
100
AcDbEntity
  8
Ceco.NET 9
  6
Continuous
100
AcDbCircle
 10
0.5310486527235199
 20
0.7416804116907607
 30
0.0
 40
0.0074794633668949
100
AcDbArc
 50
359.999808
 51
89.99980800000001
  0
ARC
  5
56
330
2D
100
AcDbEntity
  8
Ceco.NET 9
  6
Continuous
100
AcDbCircle
 10
1.081770159506222
 20
0.6931392532403623
 30
0.0
 40
0.0349047268240447
100
AcDbArc
 50
269.999672
 51
359.999672
  0
ARC
  5
57
330
2D
100
AcDbEntity
  8
Ceco.NET 9
  6
Continuous
100
AcDbCircle
 10
0.7961488083504696
 20
1.03221683877333
 30
0.0
 40
0.3739777403508798
100
AcDbArc
 50
262.999966
 51
269.999964
  0
ARC
  5
58
330
2D
100
AcDbEntity
  8
Ceco.NET 9
  6
Continuous
100
AcDbCircle
 10
0.1446074543198087
 20
0.6294916785249862
 30
0.0
 40
0.1196729378723633
100
AcDbArc
 50
89.99996200000001
 51
180.00001
  0
ARC
  5
59
330
2D
100
AcDbEntity
  8
Ceco.NET 9
  6
Continuous
100
AcDbCircle
 10
0.4411804535003277
 20
0.4380197870023228
 30
0.0
 40
0.299182260014128
100
AcDbArc
 50
90.00002100000001
 51
94.99991500000003
  0
ARC
  5
5A
330
2D
100
AcDbEntity
  8
Ceco.NET 9
  6
Continuous
100
AcDbCircle
 10
0.2930266267547126
 20
0.5558053330094515
 30
0.0
 40
0.1695365914301978
100
AcDbArc
 50
99.83973200000002
 51
167.46833
  0
ARC
  5
5B
330
2D
100
AcDbEntity
  8
Ceco.NET 9
  6
Continuous
100
AcDbCircle
 10
1.528753524459461
 20
0.5456541247251268
 30
0.0
 40
0.1994544448977775
100
AcDbArc
 50
359.999875
 51
87.67988800000003
  0
ARC
  5
5C
330
2D
100
AcDbEntity
  8
Ceco.NET 9
  6
Continuous
100
AcDbCircle
 10
0.7378266047789801
 20
0.7022988441944506
 30
0.0
 40
0.0349047268240447
100
AcDbArc
 50
0.000033
 51
90.00003300000001
  0
ARC
  5
5D
330
2D
100
AcDbEntity
  8
Ceco.NET 9
  6
Continuous
100
AcDbCircle
 10
0.792599407589014
 20
0.6781274944356993
 30
0.0
 40
0.0198487719600934
100
AcDbArc
 50
180.0
 51
0.0
  0
ARC
  5
5E
330
2D
100
AcDbEntity
  8
Ceco.NET 9
  6
Continuous
100
AcDbCircle
 10
1.780056550911152
 20
0.790029809291821
 30
0.0
 40
0.0099723920444459
100
AcDbArc
 50
359.9981140000001
 51
89.99811400000004
  0
ARC
  5
5F
330
2D
100
AcDbEntity
  8
Ceco.NET 9
  6
Continuous
100
AcDbCircle
 10
-0.0000000196684394
 20
0.7900294706247
 30
0.0
 40
0.0099727307115669
100
AcDbArc
 50
89.99998900000001
 51
179.991222
  0
ARC
  5
60
330
2D
100
AcDbEntity
  8
Ceco.NET 9
  6
Continuous
100
AcDbCircle
 10
1.44699386278039
 20
0.3258889659152323
 30
0.0
 40
0.1495909606735035
100
AcDbArc
 50
272.31866
 51
0.000015000000019
  0
ARC
  5
61
330
2D
100
AcDbEntity
  8
Ceco.NET 9
  6
Continuous
100
AcDbCircle
 10
1.281580712881713
 20
0.2721142151107332
 30
0.0
 40
0.0997274764492295
100
AcDbArc
 50
219.593361
 51
272.319556
  0
ARC
  5
62
330
2D
100
AcDbEntity
  8
Ceco.NET 9
  6
Continuous
100
AcDbCircle
 10
1.127055202921936
 20
0.145976121898817
 30
0.0
 40
0.099726968448548
100
AcDbArc
 50
40.82467800000001
 51
89.99957400000003
  0
ARC
  5
63
330
2D
100
AcDbEntity
  8
Ceco.NET 9
  6
Continuous
100
AcDbCircle
 10
1.081771006174025
 20
0.1068615934274013
 30
0.0
 40
0.1595640300521914
100
AcDbArc
 50
39.595073
 51
40.825403
  0
ARC
  5
64
330
2D
100
AcDbEntity
  8
Ceco.NET 9
  6
Continuous
100
AcDbCircle
 10
0.5261931822099964
 20
0.3004907945107224
 30
0.0
 40
0.0547858414941918
100
AcDbArc
 50
180.0
 51
270.0
  0
ARC
  5
65
330
2D
100
AcDbEntity
  8
Ceco.NET 9
  6
Continuous
100
AcDbCircle
 10
1.151582153157719
 20
0.0772116256525187
 30
0.0
 40
0.0349043881569237
100
AcDbArc
 50
179.999518
 51
272.319585
  0
ARC
  5
66
330
2D
100
AcDbEntity
  8
Ceco.NET 9
  6
Continuous
100
AcDbCircle
 10
0.8473358036835421
 20
0.0757744917246304
 30
0.0
 40
0.0349045574904842
100
AcDbArc
 50
179.999918
 51
269.999918
  0
ARC
  5
67
330
2D
100
AcDbEntity
  8
Ceco.NET 9
  6
Continuous
100
AcDbCircle
 10
0.5310484833899596
 20
0.0583216203119265
 30
0.0
 40
0.0074796327004554
100
AcDbArc
 50
270.000383
 51
0.000382999999999
  0
ARC
  5
68
330
2D
100
AcDbEntity
  8
Ceco.NET 9
  6
Continuous
100
AcDbCircle
 10
1.081770159506222
 20
0.1068626094287642
 30
0.0
 40
0.0349047268240447
100
AcDbArc
 50
0.000328
 51
90.00032800000003
  0
ARC
  5
69
330
2D
100
AcDbEntity
  8
Ceco.NET 9
  6
Continuous
100
AcDbCircle
 10
0.7961488083504696
 20
-0.2322131134350388
 30
0.0
 40
0.3739772323501983
100
AcDbArc
 50
90.000017
 51
97.00003800000002
  0
ARC
  5
6A
330
2D
100
AcDbEntity
  8
Ceco.NET 9
  6
Continuous
100
AcDbCircle
 10
0.1446074543198087
 20
0.1705132321482294
 30
0.0
 40
0.1196729378723633
100
AcDbArc
 50
179.99999
 51
269.99999
  0
ARC
  5
6B
330
2D
100
AcDbEntity
  8
Ceco.NET 9
  6
Continuous
100
AcDbCircle
 10
0.4411799454996464
 20
0.3619852930034572
 30
0.0
 40
0.299182260014128
100
AcDbArc
 50
265.000173
 51
270.000086
  0
ARC
  5
6C
330
2D
100
AcDbEntity
  8
Ceco.NET 9
  6
Continuous
100
AcDbCircle
 10
0.2930266267547126
 20
0.2441995776637641
 30
0.0
 40
0.1695365914301978
100
AcDbArc
 50
192.531642
 51
260.16051
  0
ARC
  5
6D
330
2D
100
AcDbEntity
  8
Ceco.NET 9
  6
Continuous
100
AcDbCircle
 10
1.528753524459461
 20
0.2543507859480887
 30
0.0
 40
0.1994544448977775
100
AcDbArc
 50
272.320398
 51
0.000124000000028
  0
ARC
  5
6E
330
2D
100
AcDbEntity
  8
Ceco.NET 9
  6
Continuous
100
AcDbCircle
 10
0.7378264354454201
 20
0.0977045424767205
 30
0.0
 40
0.0349045574904842
100
AcDbArc
 50
270.0
 51
0.0
  0
ARC
  5
6F
330
2D
100
AcDbEntity
  8
Ceco.NET 9
  6
Continuous
100
AcDbCircle
 10
0.7925995769225751
 20
0.1218758922354719
 30
0.0
 40
0.0198487719600934
100
AcDbArc
 50
0.0
 51
180.0
  0
ARC
  5
70
330
2D
100
AcDbEntity
  8
Ceco.NET 9
  6
Continuous
100
AcDbCircle
 10
1.780057058911833
 20
0.0099727307115475
 30
0.0
 40
0.0099729000451274
100
AcDbArc
 50
269.999425
 51
359.999425
  0
ARC
  5
71
330
2D
100
AcDbEntity
  8
Ceco.NET 9
  6
Continuous
100
AcDbCircle
 10
-0.0000000196684394
 20
0.0099727307115475
 30
0.0
 40
0.0099727307115669
100
AcDbArc
 50
180.000119
 51
270.000113
  0
LINE
  5
72
330
2D
100
AcDbEntity
  8
Ceco.NET 9
  6
Continuous
100
AcDbLine
 10
-0.0099727502629676
 20
0.7900309984969201
 30
0.0
 11
-0.0099727503799849
 21
0.0099727099987661
 31
0.0
  0
LINE
  5
73
330
2D
100
AcDbEntity
  8
Ceco.NET 9
  6
Continuous
100
AcDbLine
 10
1.790028942950195
 20
0.7900294810314927
 30
0.0
 11
1.790029958956458
 21
0.009972630627081
 31
0.0
  0
ENDBLK
  5
75
330
2D
100
AcDbEntity
  8
0
100
AcDbBlockEnd
  0
ENDSEC
  0
SECTION
  2
ENTITIES
  0
INSERT
  5
76
330
1F
100
AcDbEntity
  8
Ceco.NET 9
100
AcDbBlockReference
  2
jacuzz 09Tm
 10
0.0
 20
0.0
 30
0.0
  0
ENDSEC
  0
SECTION
  2
OBJECTS
  0
DICTIONARY
  5
C
330
0
100
AcDbDictionary
281
     1
  3
ACAD_GROUP
350
D
  3
ACAD_LAYOUT
350
1A
  3
ACAD_MLINESTYLE
350
17
  3
ACAD_PLOTSETTINGS
350
19
  3
ACAD_PLOTSTYLENAME
350
E
  3
AcDbVariableDictionary
350
78
  0
DICTIONARY
  5
D
102
{ACAD_REACTORS
330
C
102
}
330
C
100
AcDbDictionary
281
     1
  0
DICTIONARY
  5
1A
102
{ACAD_REACTORS
330
C
102
}
330
C
100
AcDbDictionary
281
     1
  3
Layout1
350
1E
  3
Layout2
350
26
  3
Model
350
22
  0
DICTIONARY
  5
17
102
{ACAD_REACTORS
330
C
102
}
330
C
100
AcDbDictionary
281
     1
  3
Standard
350
18
  0
DICTIONARY
  5
19
102
{ACAD_REACTORS
330
C
102
}
330
C
100
AcDbDictionary
281
     1
  0
ACDBDICTIONARYWDFLT
  5
E
102
{ACAD_REACTORS
330
C
102
}
330
C
100
AcDbDictionary
281
     1
  3
Normal
350
F
100
AcDbDictionaryWithDefault
340
F
  0
DICTIONARY
  5
78
102
{ACAD_REACTORS
330
C
102
}
330
C
100
AcDbDictionary
281
     1
  3
DIMASSOC
350
7A
  3
HIDETEXT
350
79
  0
LAYOUT
  5
1E
102
{ACAD_REACTORS
330
1A
102
}
330
1A
100
AcDbPlotSettings
  1

  2
Microsoft Office Document Image Writer
  4

  6

 40
0.0
 41
0.0
 42
0.0
 43
0.0
 44
0.0
 45
0.0
 46
0.0
 47
0.0
 48
0.0
 49
0.0
140
0.0
141
0.0
142
1.0
143
1.0
 70
   688
 72
     0
 73
     0
 74
     5
  7

 75
    16
147
1.0
148
0.0
149
0.0
100
AcDbLayout
  1
Layout1
 70
     1
 71
     1
 10
0.0
 20
0.0
 11
420.0
 21
297.0
 12
0.0
 22
0.0
 32
0.0
 14
1.000000000000000E+20
 24
1.000000000000000E+20
 34
1.000000000000000E+20
 15
-1.000000000000000E+20
 25
-1.000000000000000E+20
 35
-1.000000000000000E+20
146
0.0
 13
0.0
 23
0.0
 33
0.0
 16
1.0
 26
0.0
 36
0.0
 17
0.0
 27
1.0
 37
0.0
 76
     0
330
1B
  0
LAYOUT
  5
26
102
{ACAD_REACTORS
330
1A
102
}
330
1A
100
AcDbPlotSettings
  1

  2
Microsoft Office Document Image Writer
  4

  6

 40
0.0
 41
0.0
 42
0.0
 43
0.0
 44
0.0
 45
0.0
 46
0.0
 47
0.0
 48
0.0
 49
0.0
140
0.0
141
0.0
142
1.0
143
1.0
 70
   688
 72
     0
 73
     0
 74
     5
  7

 75
    16
147
1.0
148
0.0
149
0.0
100
AcDbLayout
  1
Layout2
 70
     1
 71
     2
 10
0.0
 20
0.0
 11
12.0
 21
9.0
 12
0.0
 22
0.0
 32
0.0
 14
0.0
 24
0.0
 34
0.0
 15
0.0
 25
0.0
 35
0.0
146
0.0
 13
0.0
 23
0.0
 33
0.0
 16
1.0
 26
0.0
 36
0.0
 17
0.0
 27
1.0
 37
0.0
 76
     0
330
23
  0
LAYOUT
  5
22
102
{ACAD_REACTORS
330
1A
102
}
330
1A
100
AcDbPlotSettings
  1

  2
Microsoft Office Document Image Writer
  4

  6

 40
0.0
 41
0.0
 42
0.0
 43
0.0
 44
0.0
 45
0.0
 46
0.0
 47
0.0
 48
0.0
 49
0.0
140
0.0
141
0.0
142
1.0
143
1.0
 70
  1712
 72
     0
 73
     0
 74
     0
  7

 75
     0
147
1.0
148
0.0
149
0.0
100
AcDbLayout
  1
Model
 70
     1
 71
     0
 10
0.0
 20
0.0
 11
12.0
 21
9.0
 12
0.0
 22
0.0
 32
0.0
 14
0.0
 24
0.0
 34
0.0
 15
0.0
 25
0.0
 35
0.0
146
0.0
 13
0.0
 23
0.0
 33
0.0
 16
1.0
 26
0.0
 36
0.0
 17
0.0
 27
1.0
 37
0.0
 76
     0
330
1F
  0
MLINESTYLE
  5
18
102
{ACAD_REACTORS
330
17
102
}
330
17
100
AcDbMlineStyle
  2
STANDARD
 70
     0
  3

 62
   256
 51
90.0
 52
90.0
 71
     2
 49
0.5
 62
   256
  6
BYLAYER
 49
-0.5
 62
   256
  6
BYLAYER
  0
ACDBPLACEHOLDER
  5
F
102
{ACAD_REACTORS
330
E
102
}
330
E
  0
DICTIONARYVAR
  5
7A
102
{ACAD_REACTORS
330
78
102
}
330
78
100
DictionaryVariables
280
     0
  1
2
  0
DICTIONARYVAR
  5
79
102
{ACAD_REACTORS
330
78
102
}
330
78
100
DictionaryVariables
280
     0
  1
1
  0
ENDSEC
  0
EOF
