  0
SECTION
  2
HEADER
  9
$ACADVER
  1
AC1015
  9
$ACADMAINTVER
 70
    13
  9
$DWGCODEPAGE
  3
ANSI_1252
  9
$INSBASE
 10
0.0
 20
0.0
 30
0.0
  9
$EXTMIN
 10
-0.0128164049386896
 20
-0.0090630292066862
 30
-0.0015258207003583
  9
$EXTMAX
 10
1.525269045407526
 20
1.123901714249427
 30
0.0000000349246037
  9
$LIMMIN
 10
0.0
 20
0.0
  9
$LIMMAX
 10
420.0
 20
297.0
  9
$ORTHOMODE
 70
     0
  9
$REGENMODE
 70
     1
  9
$FILLMODE
 70
     1
  9
$QTEXTMODE
 70
     0
  9
$MIRRTEXT
 70
     1
  9
$LTSCALE
 40
1.0
  9
$ATTMODE
 70
     1
  9
$TEXTSIZE
 40
2.5
  9
$TRACEWID
 40
1.0
  9
$TEXTSTYLE
  7
Standard
  9
$CLAYER
  8
Ceco.NET 10
  9
$CELTYPE
  6
ByLayer
  9
$CECOLOR
 62
   256
  9
$CELTSCALE
 40
1.0
  9
$DISPSILH
 70
     0
  9
$DIMSCALE
 40
1.0
  9
$DIMASZ
 40
2.5
  9
$DIMEXO
 40
0.625
  9
$DIMDLI
 40
3.75
  9
$DIMRND
 40
0.0
  9
$DIMDLE
 40
0.0
  9
$DIMEXE
 40
1.25
  9
$DIMTP
 40
0.0
  9
$DIMTM
 40
0.0
  9
$DIMTXT
 40
2.5
  9
$DIMCEN
 40
2.5
  9
$DIMTSZ
 40
0.0
  9
$DIMTOL
 70
     0
  9
$DIMLIM
 70
     0
  9
$DIMTIH
 70
     0
  9
$DIMTOH
 70
     0
  9
$DIMSE1
 70
     0
  9
$DIMSE2
 70
     0
  9
$DIMTAD
 70
     1
  9
$DIMZIN
 70
     8
  9
$DIMBLK
  1

  9
$DIMASO
 70
     1
  9
$DIMSHO
 70
     1
  9
$DIMPOST
  1

  9
$DIMAPOST
  1

  9
$DIMALT
 70
     0
  9
$DIMALTD
 70
     3
  9
$DIMALTF
 40
0.03937007874016
  9
$DIMLFAC
 40
1.0
  9
$DIMTOFL
 70
     1
  9
$DIMTVP
 40
0.0
  9
$DIMTIX
 70
     0
  9
$DIMSOXD
 70
     0
  9
$DIMSAH
 70
     0
  9
$DIMBLK1
  1

  9
$DIMBLK2
  1

  9
$DIMSTYLE
  2
ISO-25
  9
$DIMCLRD
 70
     0
  9
$DIMCLRE
 70
     0
  9
$DIMCLRT
 70
     0
  9
$DIMTFAC
 40
1.0
  9
$DIMGAP
 40
0.625
  9
$DIMJUST
 70
     0
  9
$DIMSD1
 70
     0
  9
$DIMSD2
 70
     0
  9
$DIMTOLJ
 70
     0
  9
$DIMTZIN
 70
     8
  9
$DIMALTZ
 70
     0
  9
$DIMALTTZ
 70
     0
  9
$DIMUPT
 70
     0
  9
$DIMDEC
 70
     2
  9
$DIMTDEC
 70
     2
  9
$DIMALTU
 70
     2
  9
$DIMALTTD
 70
     3
  9
$DIMTXSTY
  7
Standard
  9
$DIMAUNIT
 70
     0
  9
$DIMADEC
 70
     0
  9
$DIMALTRND
 40
0.0
  9
$DIMAZIN
 70
     0
  9
$DIMDSEP
 70
    44
  9
$DIMATFIT
 70
     3
  9
$DIMFRAC
 70
     0
  9
$DIMLDRBLK
  1

  9
$DIMLUNIT
 70
     2
  9
$DIMLWD
 70
    -2
  9
$DIMLWE
 70
    -2
  9
$DIMTMOVE
 70
     0
  9
$LUNITS
 70
     2
  9
$LUPREC
 70
     2
  9
$SKETCHINC
 40
1.0
  9
$FILLETRAD
 40
10.0
  9
$AUNITS
 70
     0
  9
$AUPREC
 70
     0
  9
$MENU
  1
.
  9
$ELEVATION
 40
0.0
  9
$PELEVATION
 40
0.0
  9
$THICKNESS
 40
0.0
  9
$LIMCHECK
 70
     0
  9
$CHAMFERA
 40
10.0
  9
$CHAMFERB
 40
10.0
  9
$CHAMFERC
 40
20.0
  9
$CHAMFERD
 40
0.0
  9
$SKPOLY
 70
     0
  9
$TDCREATE
 40
2455077.730042951
  9
$TDUCREATE
 40
2455077.855042951
  9
$TDUPDATE
 40
2455077.730894549
  9
$TDUUPDATE
 40
2455077.855894549
  9
$TDINDWG
 40
0.0008517824
  9
$TDUSRTIMER
 40
0.0008517824
  9
$USRTIMER
 70
     1
  9
$ANGBASE
 50
0.0
  9
$ANGDIR
 70
     0
  9
$PDMODE
 70
     0
  9
$PDSIZE
 40
0.0
  9
$PLINEWID
 40
0.0
  9
$SPLFRAME
 70
     0
  9
$SPLINETYPE
 70
     6
  9
$SPLINESEGS
 70
     8
  9
$HANDSEED
  5
24B
  9
$SURFTAB1
 70
     6
  9
$SURFTAB2
 70
     6
  9
$SURFTYPE
 70
     6
  9
$SURFU
 70
     6
  9
$SURFV
 70
     6
  9
$UCSBASE
  2

  9
$UCSNAME
  2

  9
$UCSORG
 10
0.0
 20
0.0
 30
0.0
  9
$UCSXDIR
 10
1.0
 20
0.0
 30
0.0
  9
$UCSYDIR
 10
0.0
 20
1.0
 30
0.0
  9
$UCSORTHOREF
  2

  9
$UCSORTHOVIEW
 70
     0
  9
$UCSORGTOP
 10
0.0
 20
0.0
 30
0.0
  9
$UCSORGBOTTOM
 10
0.0
 20
0.0
 30
0.0
  9
$UCSORGLEFT
 10
0.0
 20
0.0
 30
0.0
  9
$UCSORGRIGHT
 10
0.0
 20
0.0
 30
0.0
  9
$UCSORGFRONT
 10
0.0
 20
0.0
 30
0.0
  9
$UCSORGBACK
 10
0.0
 20
0.0
 30
0.0
  9
$PUCSBASE
  2

  9
$PUCSNAME
  2

  9
$PUCSORG
 10
0.0
 20
0.0
 30
0.0
  9
$PUCSXDIR
 10
1.0
 20
0.0
 30
0.0
  9
$PUCSYDIR
 10
0.0
 20
1.0
 30
0.0
  9
$PUCSORTHOREF
  2

  9
$PUCSORTHOVIEW
 70
     0
  9
$PUCSORGTOP
 10
0.0
 20
0.0
 30
0.0
  9
$PUCSORGBOTTOM
 10
0.0
 20
0.0
 30
0.0
  9
$PUCSORGLEFT
 10
0.0
 20
0.0
 30
0.0
  9
$PUCSORGRIGHT
 10
0.0
 20
0.0
 30
0.0
  9
$PUCSORGFRONT
 10
0.0
 20
0.0
 30
0.0
  9
$PUCSORGBACK
 10
0.0
 20
0.0
 30
0.0
  9
$USERI1
 70
     0
  9
$USERI2
 70
     0
  9
$USERI3
 70
     0
  9
$USERI4
 70
     0
  9
$USERI5
 70
     0
  9
$USERR1
 40
0.0
  9
$USERR2
 40
0.0
  9
$USERR3
 40
0.0
  9
$USERR4
 40
0.0
  9
$USERR5
 40
0.0
  9
$WORLDVIEW
 70
     1
  9
$SHADEDGE
 70
     3
  9
$SHADEDIF
 70
    70
  9
$TILEMODE
 70
     1
  9
$MAXACTVP
 70
    64
  9
$PINSBASE
 10
0.0
 20
0.0
 30
0.0
  9
$PLIMCHECK
 70
     0
  9
$PEXTMIN
 10
1.000000000000000E+20
 20
1.000000000000000E+20
 30
1.000000000000000E+20
  9
$PEXTMAX
 10
-1.000000000000000E+20
 20
-1.000000000000000E+20
 30
-1.000000000000000E+20
  9
$PLIMMIN
 10
0.0
 20
0.0
  9
$PLIMMAX
 10
420.0
 20
297.0
  9
$UNITMODE
 70
     0
  9
$VISRETAIN
 70
     1
  9
$PLINEGEN
 70
     0
  9
$PSLTSCALE
 70
     1
  9
$TREEDEPTH
 70
  3020
  9
$CMLSTYLE
  2
Standard
  9
$CMLJUST
 70
     0
  9
$CMLSCALE
 40
20.0
  9
$PROXYGRAPHICS
 70
     1
  9
$MEASUREMENT
 70
     1
  9
$CELWEIGHT
370
    -1
  9
$ENDCAPS
280
     0
  9
$JOINSTYLE
280
     0
  9
$LWDISPLAY
290
     0
  9
$INSUNITS
 70
     6
  9
$HYPERLINKBASE
  1

  9
$STYLESHEET
  1

  9
$XEDIT
290
     1
  9
$CEPSNTYPE
380
     0
  9
$PSTYLEMODE
290
     1
  9
$FINGERPRINTGUID
  2
{C5BE3284-E59B-4CC5-BAF9-4A9143C65EC7}
  9
$VERSIONGUID
  2
{6A5907FE-DF85-40C9-9C11-A3FA2714705A}
  9
$EXTNAMES
290
     1
  9
$PSVPSCALE
 40
0.0
  9
$OLESTARTUP
290
     0
  0
ENDSEC
  0
SECTION
  2
CLASSES
  0
CLASS
  1
ACDBDICTIONARYWDFLT
  2
AcDbDictionaryWithDefault
  3
AutoCAD 2000
 90
        0
280
     0
281
     0
  0
CLASS
  1
ACDBPLACEHOLDER
  2
AcDbPlaceHolder
  3
AutoCAD 2000
 90
        0
280
     0
281
     0
  0
CLASS
  1
LAYOUT
  2
AcDbLayout
  3
AutoCAD 2000
 90
        0
280
     0
281
     0
  0
CLASS
  1
DICTIONARYVAR
  2
AcDbDictionaryVar
  3
AutoCAD 2000
 90
        0
280
     0
281
     0
  0
ENDSEC
  0
SECTION
  2
TABLES
  0
TABLE
  2
VPORT
  5
8
330
0
100
AcDbSymbolTable
 70
     4
  0
VPORT
  5
24A
330
8
100
AcDbSymbolTableRecord
100
AcDbViewportTableRecord
  2
*Active
 70
     0
 10
0.0
 20
0.0
 11
1.0
 21
1.0
 12
0.7562263202344184
 22
0.5574193425213707
 13
0.0
 23
0.0
 14
10.0
 24
10.0
 15
10.0
 25
10.0
 16
0.0
 26
0.0
 36
1.0
 17
0.0
 27
0.0
 37
0.0
 40
1.144869802056353
 41
2.112280701754385
 42
50.0
 43
0.0
 44
0.0
 50
0.0
 51
0.0
 71
     0
 72
   100
 73
     1
 74
     3
 75
     0
 76
     0
 77
     0
 78
     0
281
     0
 65
     1
110
0.0
120
0.0
130
0.0
111
1.0
121
0.0
131
0.0
112
0.0
122
1.0
132
0.0
 79
     0
146
0.0
  0
ENDTAB
  0
TABLE
  2
LTYPE
  5
5
330
0
100
AcDbSymbolTable
 70
     1
  0
LTYPE
  5
14
330
5
100
AcDbSymbolTableRecord
100
AcDbLinetypeTableRecord
  2
ByBlock
 70
     0
  3

 72
    65
 73
     0
 40
0.0
  0
LTYPE
  5
15
330
5
100
AcDbSymbolTableRecord
100
AcDbLinetypeTableRecord
  2
ByLayer
 70
     0
  3

 72
    65
 73
     0
 40
0.0
  0
LTYPE
  5
16
330
5
100
AcDbSymbolTableRecord
100
AcDbLinetypeTableRecord
  2
Continuous
 70
     0
  3
Solid line
 72
    65
 73
     0
 40
0.0
  0
ENDTAB
  0
TABLE
  2
LAYER
  5
2
330
0
100
AcDbSymbolTable
 70
     2
  0
LAYER
  5
10
330
2
100
AcDbSymbolTableRecord
100
AcDbLayerTableRecord
  2
0
 70
     0
 62
     7
  6
Continuous
370
    -3
390
F
  0
LAYER
  5
2B
330
2
100
AcDbSymbolTableRecord
100
AcDbLayerTableRecord
  2
Ceco.NET 10
 70
     0
 62
     5
  6
Continuous
370
    -3
390
F
  0
ENDTAB
  0
TABLE
  2
STYLE
  5
3
330
0
100
AcDbSymbolTable
 70
     1
  0
STYLE
  5
11
330
3
100
AcDbSymbolTableRecord
100
AcDbTextStyleTableRecord
  2
Standard
 70
     0
 40
0.0
 41
1.0
 50
0.0
 71
     0
 42
2.5
  3
txt
  4

  0
ENDTAB
  0
TABLE
  2
VIEW
  5
6
330
0
100
AcDbSymbolTable
 70
     0
  0
ENDTAB
  0
TABLE
  2
UCS
  5
7
330
0
100
AcDbSymbolTable
 70
     0
  0
ENDTAB
  0
TABLE
  2
APPID
  5
9
330
0
100
AcDbSymbolTable
 70
     1
  0
APPID
  5
12
330
9
100
AcDbSymbolTableRecord
100
AcDbRegAppTableRecord
  2
ACAD
 70
     0
  0
ENDTAB
  0
TABLE
  2
DIMSTYLE
  5
A
330
0
100
AcDbSymbolTable
 70
     2
100
AcDbDimStyleTable
 71
     0
  0
DIMSTYLE
105
27
330
A
100
AcDbSymbolTableRecord
100
AcDbDimStyleTableRecord
  2
ISO-25
 70
     0
 41
2.5
 42
0.625
 43
3.75
 44
1.25
 73
     0
 74
     0
 77
     1
 78
     8
140
2.5
141
2.5
143
0.03937007874016
147
0.625
171
     3
172
     1
271
     2
272
     2
274
     3
278
    44
283
     0
284
     8
340
11
  0
DIMSTYLE
105
2C
330
A
100
AcDbSymbolTableRecord
100
AcDbDimStyleTableRecord
  2
STANDARD
 70
     0
279
     2
340
11
  0
ENDTAB
  0
TABLE
  2
BLOCK_RECORD
  5
1
330
0
100
AcDbSymbolTable
 70
     2
  0
BLOCK_RECORD
  5
1F
330
1
100
AcDbSymbolTableRecord
100
AcDbBlockTableRecord
  2
*Model_Space
340
22
  0
BLOCK_RECORD
  5
1B
330
1
100
AcDbSymbolTableRecord
100
AcDbBlockTableRecord
  2
*Paper_Space
340
1E
  0
BLOCK_RECORD
  5
23
330
1
100
AcDbSymbolTableRecord
100
AcDbBlockTableRecord
  2
*Paper_Space0
340
26
  0
BLOCK_RECORD
  5
2D
330
1
100
AcDbSymbolTableRecord
100
AcDbBlockTableRecord
  2
jacuzz 10Tm
340
0
102
{BLKREFS
331
245
102
}
1001
ACAD
1000
DesignCenter Data
1002
{
1070
     1
1070
     6
1002
}
  0
ENDTAB
  0
ENDSEC
  0
SECTION
  2
BLOCKS
  0
BLOCK
  5
20
330
1F
100
AcDbEntity
  8
0
100
AcDbBlockBegin
  2
*Model_Space
 70
     0
 10
0.0
 20
0.0
 30
0.0
  3
*Model_Space
  1

  0
ENDBLK
  5
21
330
1F
100
AcDbEntity
  8
0
100
AcDbBlockEnd
  0
BLOCK
  5
1C
330
1B
100
AcDbEntity
 67
     1
  8
0
100
AcDbBlockBegin
  2
*Paper_Space
 70
     0
 10
0.0
 20
0.0
 30
0.0
  3
*Paper_Space
  1

  0
ENDBLK
  5
1D
330
1B
100
AcDbEntity
 67
     1
  8
0
100
AcDbBlockEnd
  0
BLOCK
  5
24
330
23
100
AcDbEntity
  8
0
100
AcDbBlockBegin
  2
*Paper_Space0
 70
     0
 10
0.0
 20
0.0
 30
0.0
  3
*Paper_Space0
  1

  0
ENDBLK
  5
25
330
23
100
AcDbEntity
  8
0
100
AcDbBlockEnd
  0
BLOCK
  5
243
330
2D
100
AcDbEntity
  8
0
100
AcDbBlockBegin
  2
jacuzz 10Tm
 70
     0
 10
0.0
 20
0.0
 30
0.0
  3
jacuzz 10Tm
  1

  0
LINE
  5
2E
330
2D
100
AcDbEntity
  8
Ceco.NET 10
  6
Continuous
100
AcDbLine
 10
0.0
 20
0.8549999996499789
 30
0.0
 11
0.0
 21
0.0
 31
0.0
  0
LINE
  5
2F
330
2D
100
AcDbEntity
  8
Ceco.NET 10
  6
Continuous
100
AcDbLine
 10
0.3655414975419163
 20
0.8916762989391362
 30
0.0
 11
0.3488408460413072
 21
0.8845883692090675
 31
0.0
  0
LINE
  5
30
330
2D
100
AcDbEntity
  8
Ceco.NET 10
  6
Continuous
100
AcDbLine
 10
0.3488408460413072
 20
0.8845883692090675
 30
0.0
 11
0.3324206429874406
 21
0.8767158421468838
 31
0.0
  0
LINE
  5
31
330
2D
100
AcDbEntity
  8
Ceco.NET 10
  6
Continuous
100
AcDbLine
 10
0.3324206429874406
 20
0.8767158421468838
 30
0.0
 11
0.3164223222353436
 21
0.8681278528540889
 31
0.0
  0
LINE
  5
32
330
2D
100
AcDbEntity
  8
Ceco.NET 10
  6
Continuous
100
AcDbLine
 10
0.3164223222353436
 20
0.8681278528540889
 30
0.0
 11
0.30089301289526
 21
0.8588474308564189
 31
0.0
  0
LINE
  5
33
330
2D
100
AcDbEntity
  8
Ceco.NET 10
  6
Continuous
100
AcDbLine
 10
0.30089301289526
 20
0.8588474308564189
 30
0.0
 11
0.2857855742258724
 21
0.8488515466281372
 31
0.0
  0
LINE
  5
34
330
2D
100
AcDbEntity
  8
Ceco.NET 10
  6
Continuous
100
AcDbLine
 10
0.2857855742258724
 20
0.8488515466281372
 30
0.0
 11
0.2711000062271807
 21
0.8381402001692439
 31
0.0
  0
LINE
  5
35
330
2D
100
AcDbEntity
  8
Ceco.NET 10
  6
Continuous
100
AcDbLine
 10
0.2711000062271807
 20
0.8381402001692439
 30
0.0
 11
0.2588041818733423
 21
0.8282367015585998
 31
0.0
  0
LINE
  5
36
330
2D
100
AcDbEntity
  8
Ceco.NET 10
  6
Continuous
100
AcDbLine
 10
0.2588041818733423
 20
0.8282367015585998
 30
0.0
 11
0.2470163911834595
 21
0.8177693168685536
 31
0.0
  0
LINE
  5
37
330
2D
100
AcDbEntity
  8
Ceco.NET 10
  6
Continuous
100
AcDbLine
 10
0.2470163911834595
 20
0.8177693168685536
 30
0.0
 11
0.235736634157532
 21
0.8067380228369579
 31
0.0
  0
LINE
  5
38
330
2D
100
AcDbEntity
  8
Ceco.NET 10
  6
Continuous
100
AcDbLine
 10
0.235736634157532
 20
0.8067380228369579
 30
0.0
 11
0.2249268306605796
 21
0.795101668725401
 31
0.0
  0
LINE
  5
39
330
2D
100
AcDbEntity
  8
Ceco.NET 10
  6
Continuous
100
AcDbLine
 10
0.2249268306605796
 20
0.795101668725401
 30
0.0
 11
0.2146250608275827
 21
0.7829014285344416
 31
0.0
  0
LINE
  5
3A
330
2D
100
AcDbEntity
  8
Ceco.NET 10
  6
Continuous
100
AcDbLine
 10
0.2146250608275827
 20
0.7829014285344416
 30
0.0
 11
0.2015455854473014
 21
0.7658205602427719
 31
0.0
  0
LINE
  5
3B
330
2D
100
AcDbEntity
  8
Ceco.NET 10
  6
Continuous
100
AcDbLine
 10
0.3247041467776569
 20
0.5478576574317572
 30
0.0
 11
0.3255174263372792
 21
0.5611370170006351
 31
0.0
  0
LINE
  5
3C
330
2D
100
AcDbEntity
  8
Ceco.NET 10
  6
Continuous
100
AcDbLine
 10
0.3245902785670722
 20
0.5346196463295422
 30
0.0
 11
0.3247041467776569
 21
0.5478576574317572
 31
0.0
  0
LINE
  5
3D
330
2D
100
AcDbEntity
  8
Ceco.NET 10
  6
Continuous
100
AcDbLine
 10
0.3251758100744523
 20
0.5214229953250635
 30
0.0
 11
0.3245902785670722
 21
0.5346196463295422
 31
0.0
  0
LINE
  5
3E
330
2D
100
AcDbEntity
  8
Ceco.NET 10
  6
Continuous
100
AcDbLine
 10
0.3264654518846056
 20
0.5082271584957368
 30
0.0
 11
0.3251758100744523
 21
0.5214229953250635
 31
0.0
  0
LINE
  5
3F
330
2D
100
AcDbEntity
  8
Ceco.NET 10
  6
Continuous
100
AcDbLine
 10
0.3284544817816498
 20
0.4950726817641468
 30
0.0
 11
0.3264654518846056
 21
0.5082271584957368
 31
0.0
  0
LINE
  5
40
330
2D
100
AcDbEntity
  8
Ceco.NET 10
  6
Continuous
100
AcDbLine
 10
0.3311288261665234
 20
0.4820812028980451
 30
0.0
 11
0.3284544817816498
 21
0.4950726817641468
 31
0.0
  0
LINE
  5
41
330
2D
100
AcDbEntity
  8
Ceco.NET 10
  6
Continuous
100
AcDbLine
 10
0.3344947076636045
 20
0.4692603867749367
 30
0.0
 11
0.3311288261665234
 21
0.4820812028980451
 31
0.0
  0
LINE
  5
42
330
2D
100
AcDbEntity
  8
Ceco.NET 10
  6
Continuous
100
AcDbLine
 10
0.1920869363200857
 20
0.4011719074301938
 30
0.0
 11
0.2013602866250046
 21
0.3871661291593692
 31
0.0
  0
LINE
  5
43
330
2D
100
AcDbEntity
  8
Ceco.NET 10
  6
Continuous
100
AcDbLine
 10
0.2013602866250046
 20
0.3871661291593692
 30
0.0
 11
0.2113843064203347
 21
0.3735542837204435
 31
0.0
  0
LINE
  5
44
330
2D
100
AcDbEntity
  8
Ceco.NET 10
  6
Continuous
100
AcDbLine
 10
0.2113843064203347
 20
0.3735542837204435
 30
0.0
 11
0.2220692619732199
 21
0.3605016719314783
 31
0.0
  0
LINE
  5
45
330
2D
100
AcDbEntity
  8
Ceco.NET 10
  6
Continuous
100
AcDbLine
 10
0.506925001650634
 20
0.9194697146953393
 30
0.0
 11
0.4888446605680278
 21
0.9188615956430204
 31
0.0
  0
LINE
  5
46
330
2D
100
AcDbEntity
  8
Ceco.NET 10
  6
Continuous
100
AcDbLine
 10
0.4888446605680278
 20
0.9188615956430204
 30
0.0
 11
0.4708304537699348
 21
0.9174269027139496
 31
0.0
  0
LINE
  5
47
330
2D
100
AcDbEntity
  8
Ceco.NET 10
  6
Continuous
100
AcDbLine
 10
0.4708304537699348
 20
0.9174269027139496
 30
0.0
 11
0.4528302740466088
 21
0.9151576569916347
 31
0.0
  0
LINE
  5
48
330
2D
100
AcDbEntity
  8
Ceco.NET 10
  6
Continuous
100
AcDbLine
 10
0.4528302740466088
 20
0.9151576569916347
 30
0.0
 11
0.4348962286077954
 21
0.9120618606547148
 31
0.0
  0
LINE
  5
49
330
2D
100
AcDbEntity
  8
Ceco.NET 10
  6
Continuous
100
AcDbLine
 10
0.4348962286077954
 20
0.9120618606547148
 30
0.0
 11
0.4171846856070295
 21
0.9081634271905207
 31
0.0
  0
LINE
  5
4A
330
2D
100
AcDbEntity
  8
Ceco.NET 10
  6
Continuous
100
AcDbLine
 10
0.4171846856070295
 20
0.9081634271905207
 30
0.0
 11
0.3997284679340212
 21
0.9034643338815646
 31
0.0
  0
LINE
  5
4B
330
2D
100
AcDbEntity
  8
Ceco.NET 10
  6
Continuous
100
AcDbLine
 10
0.5481121918467589
 20
0.8348679604457494
 30
0.0
 11
0.5641303319482775
 21
0.839251211950985
 31
0.0
  0
LINE
  5
4C
330
2D
100
AcDbEntity
  8
Ceco.NET 10
  6
Continuous
100
AcDbLine
 10
0.3997284679340212
 20
0.9034643338815646
 30
0.0
 11
0.3824947643301342
 21
0.8979626150764076
 31
0.0
  0
LINE
  5
4D
330
2D
100
AcDbEntity
  8
Ceco.NET 10
  6
Continuous
100
AcDbLine
 10
0.5323908767436186
 20
0.8296620198423456
 30
0.0
 11
0.5481121918467589
 21
0.8348679604457494
 31
0.0
  0
LINE
  5
4E
330
2D
100
AcDbEntity
  8
Ceco.NET 10
  6
Continuous
100
AcDbLine
 10
0.3824947643301342
 20
0.8979626150764076
 30
0.0
 11
0.3655414975419163
 21
0.8916762989391362
 31
0.0
  0
LINE
  5
4F
330
2D
100
AcDbEntity
  8
Ceco.NET 10
  6
Continuous
100
AcDbLine
 10
0.5169240378998627
 20
0.8236150014134057
 30
0.0
 11
0.5323908767436186
 21
0.8296620198423456
 31
0.0
  0
LINE
  5
50
330
2D
100
AcDbEntity
  8
Ceco.NET 10
  6
Continuous
100
AcDbLine
 10
0.5017540240544845
 20
0.8167452938862977
 30
0.0
 11
0.5169240378998627
 21
0.8236150014134057
 31
0.0
  0
LINE
  5
51
330
2D
100
AcDbEntity
  8
Ceco.NET 10
  6
Continuous
100
AcDbLine
 10
0.4870079744730508
 20
0.8091081332295678
 30
0.0
 11
0.5017540240544845
 21
0.8167452938862977
 31
0.0
  0
LINE
  5
52
330
2D
100
AcDbEntity
  8
Ceco.NET 10
  6
Continuous
100
AcDbLine
 10
0.4726902275460163
 20
0.800695959245373
 30
0.0
 11
0.4870079744730508
 21
0.8091081332295678
 31
0.0
  0
LINE
  5
53
330
2D
100
AcDbEntity
  8
Ceco.NET 10
  6
Continuous
100
AcDbLine
 10
0.4587964216207791
 20
0.7915163088694092
 30
0.0
 11
0.4726902275460163
 21
0.800695959245373
 31
0.0
  0
LINE
  5
54
330
2D
100
AcDbEntity
  8
Ceco.NET 10
  6
Continuous
100
AcDbLine
 10
0.4454406110051013
 20
0.7816471219258974
 30
0.0
 11
0.4587964216207791
 21
0.7915163088694092
 31
0.0
  0
LINE
  5
55
330
2D
100
AcDbEntity
  8
Ceco.NET 10
  6
Continuous
100
AcDbLine
 10
0.4326607827853738
 20
0.771114335708975
 30
0.0
 11
0.4454406110051013
 21
0.7816471219258974
 31
0.0
  0
LINE
  5
56
330
2D
100
AcDbEntity
  8
Ceco.NET 10
  6
Continuous
100
AcDbLine
 10
0.4204189382441327
 20
0.7598920129245048
 30
0.0
 11
0.4326607827853738
 21
0.771114335708975
 31
0.0
  0
LINE
  5
57
330
2D
100
AcDbEntity
  8
Ceco.NET 10
  6
Continuous
100
AcDbLine
 10
0.4087150890124512
 20
0.7479801303103394
 30
0.0
 11
0.4204189382441327
 21
0.7598920129245048
 31
0.0
  0
LINE
  5
58
330
2D
100
AcDbEntity
  8
Ceco.NET 10
  6
Continuous
100
AcDbLine
 10
0.3971923588589327
 20
0.7348732479319372
 30
0.0
 11
0.4087150890124512
 21
0.7479801303103394
 31
0.0
  0
LINE
  5
59
330
2D
100
AcDbEntity
  8
Ceco.NET 10
  6
Continuous
100
AcDbLine
 10
0.3864588900980446
 20
0.7212267302625977
 30
0.0
 11
0.3971923588589327
 21
0.7348732479319372
 31
0.0
  0
LINE
  5
5A
330
2D
100
AcDbEntity
  8
Ceco.NET 10
  6
Continuous
100
AcDbLine
 10
0.3765146827297859
 20
0.7070405773023201
 30
0.0
 11
0.3864588900980446
 21
0.7212267302625977
 31
0.0
  0
LINE
  5
5B
330
2D
100
AcDbEntity
  8
Ceco.NET 10
  6
Continuous
100
AcDbLine
 10
0.3673273442141697
 20
0.692257913101181
 30
0.0
 11
0.3765146827297859
 21
0.7070405773023201
 31
0.0
  0
LINE
  5
5C
330
2D
100
AcDbEntity
  8
Ceco.NET 10
  6
Continuous
100
AcDbLine
 10
0.3589292554601099
 20
0.67693560197803
 30
0.0
 11
0.3673273442141697
 21
0.692257913101181
 31
0.0
  0
LINE
  5
5D
330
2D
100
AcDbEntity
  8
Ceco.NET 10
  6
Continuous
100
AcDbLine
 10
0.3514175359322007
 20
0.6612442950447881
 30
0.0
 11
0.3589292554601099
 21
0.67693560197803
 31
0.0
  0
LINE
  5
5E
330
2D
100
AcDbEntity
  8
Ceco.NET 10
  6
Continuous
100
AcDbLine
 10
0.3448111675425637
 20
0.6451871908466959
 30
0.0
 11
0.3514175359322007
 21
0.6612442950447881
 31
0.0
  0
LINE
  5
5F
330
2D
100
AcDbEntity
  8
Ceco.NET 10
  6
Continuous
100
AcDbLine
 10
0.3390911683790777
 20
0.6287610908385119
 30
0.0
 11
0.3448111675425637
 21
0.6451871908466959
 31
0.0
  0
LINE
  5
60
330
2D
100
AcDbEntity
  8
Ceco.NET 10
  6
Continuous
100
AcDbLine
 10
0.3342977586942658
 20
0.6121269341856977
 30
0.0
 11
0.3390911683790777
 21
0.6287610908385119
 31
0.0
  0
LINE
  5
61
330
2D
100
AcDbEntity
  8
Ceco.NET 10
  6
Continuous
100
AcDbLine
 10
0.3304443840092141
 20
0.595338351768641
 30
0.0
 11
0.3342977586942658
 21
0.6121269341856977
 31
0.0
  0
LINE
  5
62
330
2D
100
AcDbEntity
  8
Ceco.NET 10
  6
Continuous
100
AcDbLine
 10
0.3275175988028361
 20
0.5783417127069532
 30
0.0
 11
0.3304443840092141
 21
0.595338351768641
 31
0.0
  0
LINE
  5
63
330
2D
100
AcDbEntity
  8
Ceco.NET 10
  6
Continuous
100
AcDbLine
 10
0.3255174263372792
 20
0.5611370170006351
 30
0.0
 11
0.3275175988028361
 21
0.5783417127069532
 31
0.0
  0
LINE
  5
64
330
2D
100
AcDbEntity
  8
Ceco.NET 10
  6
Continuous
100
AcDbLine
 10
0.3385458920174424
 20
0.4566025568862436
 30
0.0
 11
0.3344947076636045
 21
0.4692603867749367
 31
0.0
  0
LINE
  5
65
330
2D
100
AcDbEntity
  8
Ceco.NET 10
  6
Continuous
100
AcDbLine
 10
0.3432495679693982
 20
0.4442063679982752
 30
0.0
 11
0.3385458920174424
 21
0.4566025568862436
 31
0.0
  0
LINE
  5
66
330
2D
100
AcDbEntity
  8
Ceco.NET 10
  6
Continuous
100
AcDbLine
 10
0.3486125629596789
 20
0.432068447099687
 30
0.0
 11
0.3432495679693982
 21
0.4442063679982752
 31
0.0
  0
LINE
  5
67
330
2D
100
AcDbEntity
  8
Ceco.NET 10
  6
Continuous
100
AcDbLine
 10
0.3546280495480777
 20
0.4201921672018239
 30
0.0
 11
0.3486125629596789
 21
0.432068447099687
 31
0.0
  0
LINE
  5
68
330
2D
100
AcDbEntity
  8
Ceco.NET 10
  6
Continuous
100
AcDbLine
 10
0.3612425945824579
 20
0.4086862439496637
 30
0.0
 11
0.3546280495480777
 21
0.4201921672018239
 31
0.0
  0
LINE
  5
69
330
2D
100
AcDbEntity
  8
Ceco.NET 10
  6
Continuous
100
AcDbLine
 10
0.368459036044779
 20
0.3975585632111103
 30
0.0
 11
0.3612425945824579
 21
0.4086862439496637
 31
0.0
  0
LINE
  5
6A
330
2D
100
AcDbEntity
  8
Ceco.NET 10
  6
Continuous
100
AcDbLine
 10
0.3959643170099757
 20
0.3597001044119878
 30
0.0
 11
0.368459036044779
 21
0.3975585632111103
 31
0.0
  0
LINE
  5
6B
330
2D
100
AcDbEntity
  8
Ceco.NET 10
  6
Continuous
100
AcDbLine
 10
0.2220692619732199
 20
0.3605016719314783
 30
0.0
 11
0.233385238162351
 21
0.348063378557063
 31
0.0
  0
LINE
  5
6C
330
2D
100
AcDbEntity
  8
Ceco.NET 10
  6
Continuous
100
AcDbLine
 10
0.233385238162351
 20
0.348063378557063
 30
0.0
 11
0.2453621501090372
 21
0.3361843304636822
 31
0.0
  0
LINE
  5
6D
330
2D
100
AcDbEntity
  8
Ceco.NET 10
  6
Continuous
100
AcDbLine
 10
0.2453621501090372
 20
0.3361843304636822
 30
0.0
 11
0.2579999978132783
 21
0.3248645043891883
 31
0.0
  0
LINE
  5
6E
330
2D
100
AcDbEntity
  8
Ceco.NET 10
  6
Continuous
100
AcDbLine
 10
0.2579999978132783
 20
0.3248645043891883
 30
0.0
 11
0.2691164080415096
 21
0.3159203134672667
 31
0.0
  0
LINE
  5
6F
330
2D
100
AcDbEntity
  8
Ceco.NET 10
  6
Continuous
100
AcDbLine
 10
0.2691164080415096
 20
0.3159203134672667
 30
0.0
 11
0.2805766909608468
 21
0.3074798527120667
 31
0.0
  0
LINE
  5
70
330
2D
100
AcDbEntity
  8
Ceco.NET 10
  6
Continuous
100
AcDbLine
 10
0.2805766909608468
 20
0.3074798527120667
 30
0.0
 11
0.2923808349402171
 21
0.2995431104925149
 31
0.0
  0
LINE
  5
71
330
2D
100
AcDbEntity
  8
Ceco.NET 10
  6
Continuous
100
AcDbLine
 10
0.8070069797848903
 20
0.8747628220537182
 30
0.0
 11
0.7908843926424068
 21
0.8792077182490558
 31
0.0
  0
LINE
  5
72
330
2D
100
AcDbEntity
  8
Ceco.NET 10
  6
Continuous
100
AcDbLine
 10
0.7908843926424068
 20
0.8792077182490558
 30
0.0
 11
0.7743780382246931
 21
0.8835228349251183
 31
0.0
  0
LINE
  5
73
330
2D
100
AcDbEntity
  8
Ceco.NET 10
  6
Continuous
100
AcDbLine
 10
0.7743780382246931
 20
0.8835228349251183
 30
0.0
 11
0.7574871605152877
 21
0.8876933192009134
 31
0.0
  0
LINE
  5
74
330
2D
100
AcDbEntity
  8
Ceco.NET 10
  6
Continuous
100
AcDbLine
 10
0.7242775492381393
 20
0.8371851494534606
 30
0.0
 11
0.7452530971622879
 21
0.8322452696587516
 31
0.0
  0
LINE
  5
75
330
2D
100
AcDbEntity
  8
Ceco.NET 10
  6
Continuous
100
AcDbLine
 10
0.7574871605152877
 20
0.8876933192009134
 30
0.0
 11
0.7402094449288827
 21
0.8916746124334636
 31
0.0
  0
LINE
  5
76
330
2D
100
AcDbEntity
  8
Ceco.NET 10
  6
Continuous
100
AcDbLine
 10
0.7026708876291556
 20
0.841895222495899
 30
0.0
 11
0.7242775492381393
 21
0.8371851494534606
 31
0.0
  0
LINE
  5
77
330
2D
100
AcDbEntity
  8
Ceco.NET 10
  6
Continuous
100
AcDbLine
 10
0.7402094449288827
 20
0.8916746124334636
 30
0.0
 11
0.7225441005524724
 21
0.8954518733728498
 31
0.0
  0
LINE
  5
78
330
2D
100
AcDbEntity
  8
Ceco.NET 10
  6
Continuous
100
AcDbLine
 10
0.7225441005524724
 20
0.8954518733728498
 30
0.0
 11
0.7044919066679882
 21
0.8990399316379175
 31
0.0
  0
LINE
  5
79
330
2D
100
AcDbEntity
  8
Ceco.NET 10
  6
Continuous
100
AcDbLine
 10
0.7044919066679882
 20
0.8990399316379175
 30
0.0
 11
0.686052874906504
 21
0.9024388104908139
 31
0.0
  0
LINE
  5
7A
330
2D
100
AcDbEntity
  8
Ceco.NET 10
  6
Continuous
100
AcDbLine
 10
0.6892187600929622
 20
0.8443551945631748
 30
0.0
 11
0.7026708876291556
 21
0.841895222495899
 31
0.0
  0
LINE
  5
7B
330
2D
100
AcDbEntity
  8
Ceco.NET 10
  6
Continuous
100
AcDbLine
 10
0.686052874906504
 20
0.9024388104908139
 30
0.0
 11
0.6682958776700927
 21
0.905392068020715
 31
0.0
  0
LINE
  5
7C
330
2D
100
AcDbEntity
  8
Ceco.NET 10
  6
Continuous
100
AcDbLine
 10
0.6682958776700927
 20
0.905392068020715
 30
0.0
 11
0.6505043245140041
 21
0.9080743099045658
 31
0.0
  0
LINE
  5
7D
330
2D
100
AcDbEntity
  8
Ceco.NET 10
  6
Continuous
100
AcDbLine
 10
0.6757061160808062
 20
0.8462257387134135
 30
0.0
 11
0.6892187600929622
 21
0.8443551945631748
 31
0.0
  0
LINE
  5
7E
330
2D
100
AcDbEntity
  8
Ceco.NET 10
  6
Continuous
100
AcDbLine
 10
0.6505043245140041
 20
0.9080743099045658
 30
0.0
 11
0.6326782038071633
 21
0.9104855245112929
 31
0.0
  0
LINE
  5
7F
330
2D
100
AcDbEntity
  8
Ceco.NET 10
  6
Continuous
100
AcDbLine
 10
0.6326782038071633
 20
0.9104855245112929
 30
0.0
 11
0.6148147124608333
 21
0.912626107297399
 31
0.0
  0
LINE
  5
80
330
2D
100
AcDbEntity
  8
Ceco.NET 10
  6
Continuous
100
AcDbLine
 10
0.6148147124608333
 20
0.912626107297399
 30
0.0
 11
0.596916653563751
 21
0.9144956628063813
 31
0.0
  0
LINE
  5
81
330
2D
100
AcDbEntity
  8
Ceco.NET 10
  6
Continuous
100
AcDbLine
 10
0.6621329439616143
 20
0.8475068433155415
 30
0.0
 11
0.6757061160808062
 21
0.8462257387134135
 31
0.0
  0
LINE
  5
82
330
2D
100
AcDbEntity
  8
Ceco.NET 10
  6
Continuous
100
AcDbLine
 10
0.596916653563751
 20
0.9144956628063813
 30
0.0
 11
0.5789924596442806
 21
0.9160930628241004
 31
0.0
  0
LINE
  5
83
330
2D
100
AcDbEntity
  8
Ceco.NET 10
  6
Continuous
100
AcDbLine
 10
0.5789924596442806
 20
0.9160930628241004
 30
0.0
 11
0.5610449454222337
 21
0.9174179467872745
 31
0.0
  0
LINE
  5
84
330
2D
100
AcDbEntity
  8
Ceco.NET 10
  6
Continuous
100
AcDbLine
 10
0.5610449454222337
 20
0.9174179467872745
 30
0.0
 11
0.5430712845467243
 21
0.9184706868902589
 31
0.0
  0
LINE
  5
85
330
2D
100
AcDbEntity
  8
Ceco.NET 10
  6
Continuous
100
AcDbLine
 10
0.648461372959731
 20
0.8481986363113687
 30
0.0
 11
0.6621329439616143
 21
0.8475068433155415
 31
0.0
  0
LINE
  5
86
330
2D
100
AcDbEntity
  8
Ceco.NET 10
  6
Continuous
100
AcDbLine
 10
0.5430712845467243
 20
0.9184706868902589
 30
0.0
 11
0.525071488648827
 21
0.9192512831330535
 31
0.0
  0
LINE
  5
87
330
2D
100
AcDbEntity
  8
Ceco.NET 10
  6
Continuous
100
AcDbLine
 10
0.525071488648827
 20
0.9192512831330535
 30
0.0
 11
0.506925001650634
 21
0.9194697146953393
 31
0.0
  0
LINE
  5
88
330
2D
100
AcDbEntity
  8
Ceco.NET 10
  6
Continuous
100
AcDbLine
 10
0.6347292854818856
 20
0.8483010013901587
 30
0.0
 11
0.648461372959731
 21
0.8481986363113687
 31
0.0
  0
LINE
  5
89
330
2D
100
AcDbEntity
  8
Ceco.NET 10
  6
Continuous
100
AcDbLine
 10
0.0150000024425063
 20
0.8700000020924852
 30
0.0
 11
0.0320000028844652
 21
0.8700000020924852
 31
0.0
  0
LINE
  5
8A
330
2D
100
AcDbEntity
  8
Ceco.NET 10
  6
Continuous
100
AcDbLine
 10
0.0000855465463582
 20
0.8550000112810524
 30
0.0
 11
0.0
 21
0.8549999996499789
 31
0.0
  0
LINE
  5
8B
330
2D
100
AcDbEntity
  8
Ceco.NET 10
  6
Continuous
100
AcDbLine
 10
0.6210502822239699
 20
0.8478135430954091
 30
0.0
 11
0.6347292854818856
 21
0.8483010013901587
 31
0.0
  0
LINE
  5
8C
330
2D
100
AcDbEntity
  8
Ceco.NET 10
  6
Continuous
100
AcDbLine
 10
0.6074622106994907
 20
0.8467361218542368
 30
0.0
 11
0.6210502822239699
 21
0.8478135430954091
 31
0.0
  0
LINE
  5
8D
330
2D
100
AcDbEntity
  8
Ceco.NET 10
  6
Continuous
100
AcDbLine
 10
0.5939272350260145
 20
0.8450688656084512
 30
0.0
 11
0.6074622106994907
 21
0.8467361218542368
 31
0.0
  0
LINE
  5
8E
330
2D
100
AcDbEntity
  8
Ceco.NET 10
  6
Continuous
100
AcDbLine
 10
0.580445320310321
 20
0.8428117859891262
 30
0.0
 11
0.5939272350260145
 21
0.8450688656084512
 31
0.0
  0
LINE
  5
8F
330
2D
100
AcDbEntity
  8
Ceco.NET 10
  6
Continuous
100
AcDbLine
 10
0.5641303319482775
 20
0.839251211950985
 30
0.0
 11
0.580445320310321
 21
0.8428117859891262
 31
0.0
  0
LINE
  5
90
330
2D
100
AcDbEntity
  8
Ceco.NET 10
  6
Continuous
100
AcDbLine
 10
0.4339671966036646
 20
0.332344889804808
 30
0.0
 11
0.3959643170099754
 21
0.3597001044119885
 31
0.0
  0
LINE
  5
91
330
2D
100
AcDbEntity
  8
Ceco.NET 10
  6
Continuous
100
AcDbLine
 10
0.4451194538007436
 20
0.3251827305629977
 30
0.0
 11
0.4339671966036646
 21
0.332344889804808
 31
0.0
  0
LINE
  5
92
330
2D
100
AcDbEntity
  8
Ceco.NET 10
  6
Continuous
100
AcDbLine
 10
0.2923808349402171
 20
0.2995431104925149
 30
0.0
 11
0.3045455073080951
 21
0.2920951525101035
 31
0.0
  0
LINE
  5
93
330
2D
100
AcDbEntity
  8
Ceco.NET 10
  6
Continuous
100
AcDbLine
 10
0.4566474760927514
 20
0.3186257477118842
 30
0.0
 11
0.4451194538007436
 21
0.3251827305629977
 31
0.0
  0
LINE
  5
94
330
2D
100
AcDbEntity
  8
Ceco.NET 10
  6
Continuous
100
AcDbLine
 10
0.3045455073080951
 20
0.2920951525101035
 30
0.0
 11
0.3170540291049317
 21
0.2851509130633401
 31
0.0
  0
LINE
  5
95
330
2D
100
AcDbEntity
  8
Ceco.NET 10
  6
Continuous
100
AcDbLine
 10
0.3170540291049317
 20
0.2851509130633401
 30
0.0
 11
0.3298565030249666
 21
0.2787552066788216
 31
0.0
  0
LINE
  5
96
330
2D
100
AcDbEntity
  8
Ceco.NET 10
  6
Continuous
100
AcDbLine
 10
0.3298565030249666
 20
0.2787552066788216
 30
0.0
 11
0.3429742139328937
 21
0.2729088591627739
 31
0.0
  0
LINE
  5
97
330
2D
100
AcDbEntity
  8
Ceco.NET 10
  6
Continuous
100
AcDbLine
 10
0.3429742139328937
 20
0.2729088591627739
 30
0.0
 11
0.356385865332945
 21
0.2676110563400447
 31
0.0
  0
LINE
  5
98
330
2D
100
AcDbEntity
  8
Ceco.NET 10
  6
Continuous
100
AcDbLine
 10
0.356385865332945
 20
0.2676110563400447
 30
0.0
 11
0.369977670432051
 21
0.2629041353185531
 31
0.0
  0
LINE
  5
99
330
2D
100
AcDbEntity
  8
Ceco.NET 10
  6
Continuous
100
AcDbLine
 10
0.765597519770529
 20
0.8270756063739192
 30
0.0
 11
0.785310828695597
 21
0.8216761363368163
 31
0.0
  0
LINE
  5
9A
330
2D
100
AcDbEntity
  8
Ceco.NET 10
  6
Continuous
100
AcDbLine
 10
0.7452530971622879
 20
0.8322452696587516
 30
0.0
 11
0.765597519770529
 21
0.8270756063739192
 31
0.0
  0
LINE
  5
9B
330
2D
100
AcDbEntity
  8
Ceco.NET 10
  6
Continuous
100
AcDbLine
 10
0.7945629290290408
 20
0.2068109333857169
 30
0.0
 11
0.7904357588713479
 21
0.2089389895055512
 31
0.0
  0
LINE
  5
9C
330
2D
100
AcDbEntity
  8
Ceco.NET 10
  6
Continuous
100
AcDbLine
 10
0.7764685725010803
 20
0.159938741926581
 30
0.0
 11
0.7796132891335789
 21
0.1583370151494809
 31
0.0
  0
LINE
  5
9D
330
2D
100
AcDbEntity
  8
Ceco.NET 10
  6
Continuous
100
AcDbLine
 10
0.7904357588713479
 20
0.2089389895055512
 30
0.0
 11
0.786329989889086
 21
0.2110292795293929
 31
0.0
  0
LINE
  5
9E
330
2D
100
AcDbEntity
  8
Ceco.NET 10
  6
Continuous
100
AcDbLine
 10
0.8003501906911797
 20
0.2038746921164988
 30
0.0
 11
0.7945629290290408
 21
0.2068109333857169
 31
0.0
  0
LINE
  5
9F
330
2D
100
AcDbEntity
  8
Ceco.NET 10
  6
Continuous
100
AcDbLine
 10
0.786329989889086
 20
0.2110292795293929
 30
0.0
 11
0.7822455871890353
 21
0.213081803457242
 31
0.0
  0
LINE
  5
A0
330
2D
100
AcDbEntity
  8
Ceco.NET 10
  6
Continuous
100
AcDbLine
 10
0.4685421214558355
 20
0.3126703356186505
 30
0.0
 11
0.4566474760927514
 21
0.3186257477118842
 31
0.0
  0
LINE
  5
A1
330
2D
100
AcDbEntity
  8
Ceco.NET 10
  6
Continuous
100
AcDbLine
 10
0.7796132891335789
 20
0.1583370151494809
 30
0.0
 11
0.7827736030374427
 21
0.1567614931812115
 31
0.0
  0
LINE
  5
A2
330
2D
100
AcDbEntity
  8
Ceco.NET 10
  6
Continuous
100
AcDbLine
 10
0.7822455871890353
 20
0.213081803457242
 30
0.0
 11
0.7781825740316809
 21
0.2150965612890984
 31
0.0
  0
LINE
  5
A3
330
2D
100
AcDbEntity
  8
Ceco.NET 10
  6
Continuous
100
AcDbLine
 10
0.7781825740316809
 20
0.2150965612890984
 30
0.0
 11
0.7741409504203462
 21
0.2170735646560358
 31
0.0
  0
LINE
  5
A4
330
2D
100
AcDbEntity
  8
Ceco.NET 10
  6
Continuous
100
AcDbLine
 10
0.7827736030374427
 20
0.1567614931812115
 30
0.0
 11
0.7859495258404211
 21
0.1552121760217719
 31
0.0
  0
LINE
  5
A5
330
2D
100
AcDbEntity
  8
Ceco.NET 10
  6
Continuous
100
AcDbLine
 10
0.7455505618697135
 20
0.1749900955590495
 30
0.0
 11
0.7764685725010803
 21
0.159938741926581
 31
0.0
  0
LINE
  5
A6
330
2D
100
AcDbEntity
  8
Ceco.NET 10
  6
Continuous
100
AcDbLine
 10
0.8061861632895721
 20
0.2010500161052915
 30
0.0
 11
0.8003501906911797
 21
0.2038746921164988
 31
0.0
  0
LINE
  5
A7
330
2D
100
AcDbEntity
  8
Ceco.NET 10
  6
Continuous
100
AcDbLine
 10
0.7741409504203462
 20
0.2170735646560358
 30
0.0
 11
0.7701206930912221
 21
0.2190128019269807
 31
0.0
  0
LINE
  5
A8
330
2D
100
AcDbEntity
  8
Ceco.NET 10
  6
Continuous
100
AcDbLine
 10
0.7859495258404211
 20
0.1552121760217719
 30
0.0
 11
0.7891413017967222
 21
0.1536889124672054
 31
0.0
  0
LINE
  5
A9
330
2D
100
AcDbEntity
  8
Ceco.NET 10
  6
Continuous
100
AcDbLine
 10
0.7891413017967222
 20
0.1536889124672054
 30
0.0
 11
0.7923486750227263
 21
0.1521918420903959
 31
0.0
  0
LINE
  5
AA
330
2D
100
AcDbEntity
  8
Ceco.NET 10
  6
Continuous
100
AcDbLine
 10
0.7701206930912221
 20
0.2190128019269807
 30
0.0
 11
0.7464789541647963
 21
0.2299292623688828
 31
0.0
  0
LINE
  5
AB
330
2D
100
AcDbEntity
  8
Ceco.NET 10
  6
Continuous
100
AcDbLine
 10
0.8120708351931458
 20
0.1983368937210217
 30
0.0
 11
0.8061861632895721
 21
0.2010500161052915
 31
0.0
  0
LINE
  5
AC
330
2D
100
AcDbEntity
  8
Ceco.NET 10
  6
Continuous
100
AcDbLine
 10
0.7923486750227263
 20
0.1521918420903959
 30
0.0
 11
0.7955708662365023
 21
0.1507214766585811
 31
0.0
  0
LINE
  5
AD
330
2D
100
AcDbEntity
  8
Ceco.NET 10
  6
Continuous
100
AcDbLine
 10
0.7955708662365023
 20
0.1507214766585811
 30
0.0
 11
0.7988076079233571
 21
0.1492779790067921
 31
0.0
  0
LINE
  5
AE
330
2D
100
AcDbEntity
  8
Ceco.NET 10
  6
Continuous
100
AcDbLine
 10
0.8180063697815898
 20
0.1957345107885369
 30
0.0
 11
0.8120708351931458
 21
0.1983368937210217
 31
0.0
  0
LINE
  5
AF
330
2D
100
AcDbEntity
  8
Ceco.NET 10
  6
Continuous
100
AcDbLine
 10
0.4806921968263401
 20
0.3073674151235354
 30
0.0
 11
0.4685421214558355
 21
0.3126703356186505
 31
0.0
  0
LINE
  5
B0
330
2D
100
AcDbEntity
  8
Ceco.NET 10
  6
Continuous
100
AcDbLine
 10
0.7142944591908219
 20
0.1886268431265617
 30
0.0
 11
0.7455505618697135
 21
0.1749900955590495
 31
0.0
  0
LINE
  5
B1
330
2D
100
AcDbEntity
  8
Ceco.NET 10
  6
Continuous
100
AcDbLine
 10
0.7988076079233571
 20
0.1492779790067921
 30
0.0
 11
0.8020591559669096
 21
0.1478611746689244
 31
0.0
  0
LINE
  5
B2
330
2D
100
AcDbEntity
  8
Ceco.NET 10
  6
Continuous
100
AcDbLine
 10
0.8020591559669096
 20
0.1478611746689244
 30
0.0
 11
0.8053255336293078
 21
0.146471075276052
 31
0.0
  0
LINE
  5
B3
330
2D
100
AcDbEntity
  8
Ceco.NET 10
  6
Continuous
100
AcDbLine
 10
0.7464789541647963
 20
0.2299292623688828
 30
0.0
 11
0.722346837544146
 21
0.2401558722042499
 31
0.0
  0
LINE
  5
B4
330
2D
100
AcDbEntity
  8
Ceco.NET 10
  6
Continuous
100
AcDbLine
 10
0.8053255336293078
 20
0.146471075276052
 30
0.0
 11
0.8077978695278249
 21
0.1454410739219638
 31
0.0
  0
LINE
  5
B5
330
2D
100
AcDbEntity
  8
Ceco.NET 10
  6
Continuous
100
AcDbLine
 10
0.823990615306288
 20
0.1932436814829893
 30
0.0
 11
0.8180063697815898
 21
0.1957345107885369
 31
0.0
  0
LINE
  5
B6
330
2D
100
AcDbEntity
  8
Ceco.NET 10
  6
Continuous
100
AcDbLine
 10
0.8077978695278249
 20
0.1454410739219638
 30
0.0
 11
0.810277323643387
 21
0.1444276933720558
 31
0.0
  0
LINE
  5
B7
330
2D
100
AcDbEntity
  8
Ceco.NET 10
  6
Continuous
100
AcDbLine
 10
0.810277323643387
 20
0.1444276933720558
 30
0.0
 11
0.8127638959759957
 21
0.1434309336263282
 31
0.0
  0
LINE
  5
B8
330
2D
100
AcDbEntity
  8
Ceco.NET 10
  6
Continuous
100
AcDbLine
 10
0.8300170932592434
 20
0.1908668832230567
 30
0.0
 11
0.823990615306288
 21
0.1932436814829893
 31
0.0
  0
LINE
  5
B9
330
2D
100
AcDbEntity
  8
Ceco.NET 10
  6
Continuous
100
AcDbLine
 10
0.8127638959759957
 20
0.1434309336263282
 30
0.0
 11
0.8152577260985331
 21
0.1424507248983393
 31
0.0
  0
LINE
  5
BA
330
2D
100
AcDbEntity
  8
Ceco.NET 10
  6
Continuous
100
AcDbLine
 10
0.722346837544146
 20
0.2401558722042499
 30
0.0
 11
0.6977243315981982
 21
0.2496926198020081
 31
0.0
  0
LINE
  5
BB
330
2D
100
AcDbEntity
  8
Ceco.NET 10
  6
Continuous
100
AcDbLine
 10
0.6827002412022578
 20
0.2008489846291175
 30
0.0
 11
0.7142944591908219
 21
0.1886268431265617
 31
0.0
  0
LINE
  5
BC
330
2D
100
AcDbEntity
  8
Ceco.NET 10
  6
Continuous
100
AcDbLine
 10
0.8152577260985331
 20
0.1424507248983393
 30
0.0
 11
0.8177586744381162
 21
0.1414871369745306
 31
0.0
  0
LINE
  5
BD
330
2D
100
AcDbEntity
  8
Ceco.NET 10
  6
Continuous
100
AcDbLine
 10
0.8177586744381162
 20
0.1414871369745306
 30
0.0
 11
0.8202663106450215
 21
0.1405403443210064
 31
0.0
  0
LINE
  5
BE
330
2D
100
AcDbEntity
  8
Ceco.NET 10
  6
Continuous
100
AcDbLine
 10
0.4930606572348361
 20
0.3027339559629276
 30
0.0
 11
0.4806921968263401
 21
0.3073674151235354
 31
0.0
  0
LINE
  5
BF
330
2D
100
AcDbEntity
  8
Ceco.NET 10
  6
Continuous
100
AcDbLine
 10
0.8360836751539855
 20
0.1886049534460387
 30
0.0
 11
0.8300170932592434
 21
0.1908668832230567
 31
0.0
  0
LINE
  5
C0
330
2D
100
AcDbEntity
  8
Ceco.NET 10
  6
Continuous
100
AcDbLine
 10
0.8202663106450215
 20
0.1405403443210064
 30
0.0
 11
0.822780483515293
 21
0.1396104167242081
 31
0.0
  0
LINE
  5
C1
330
2D
100
AcDbEntity
  8
Ceco.NET 10
  6
Continuous
100
AcDbLine
 10
0.822780483515293
 20
0.1396104167242081
 30
0.0
 11
0.8253013558839597
 21
0.1386972843976942
 31
0.0
  0
LINE
  5
C2
330
2D
100
AcDbEntity
  8
Ceco.NET 10
  6
Continuous
100
AcDbLine
 10
0.8253013558839597
 20
0.1386972843976942
 30
0.0
 11
0.8278289044888754
 21
0.1378009473414649
 31
0.0
  0
LINE
  5
C3
330
2D
100
AcDbEntity
  8
Ceco.NET 10
  6
Continuous
100
AcDbLine
 10
0.6977243315981982
 20
0.2496926198020081
 30
0.0
 11
0.6725001734768553
 21
0.2585880183701606
 31
0.0
  0
LINE
  5
C4
330
2D
100
AcDbEntity
  8
Ceco.NET 10
  6
Continuous
100
AcDbLine
 10
0.8421925011080576
 20
0.1864570547146358
 30
0.0
 11
0.8360836751539855
 21
0.1886049534460387
 31
0.0
  0
LINE
  5
C5
330
2D
100
AcDbEntity
  8
Ceco.NET 10
  6
Continuous
100
AcDbLine
 10
0.6507035299116218
 20
0.2116458660032957
 30
0.0
 11
0.6827002412022578
 21
0.2008489846291175
 31
0.0
  0
LINE
  5
C6
330
2D
100
AcDbEntity
  8
Ceco.NET 10
  6
Continuous
100
AcDbLine
 10
0.84834357112146
 20
0.1844231870288477
 30
0.0
 11
0.8421925011080576
 21
0.1864570547146358
 31
0.0
  0
LINE
  5
C7
330
2D
100
AcDbEntity
  8
Ceco.NET 10
  6
Continuous
100
AcDbLine
 10
0.6725001734768553
 20
0.2585880183701606
 30
0.0
 11
0.6467856376612882
 21
0.2667935663317777
 31
0.0
  0
LINE
  5
C8
330
2D
100
AcDbEntity
  8
Ceco.NET 10
  6
Continuous
100
AcDbLine
 10
0.5056845476507526
 20
0.2987529884004384
 30
0.0
 11
0.4930606572348361
 21
0.3027339559629276
 31
0.0
  0
LINE
  5
C9
330
2D
100
AcDbEntity
  8
Ceco.NET 10
  6
Continuous
100
AcDbLine
 10
0.8526832991492693
 20
0.1830652940787851
 30
0.0
 11
0.84834357112146
 21
0.1844231870288477
 31
0.0
  0
LINE
  5
CA
330
2D
100
AcDbEntity
  8
Ceco.NET 10
  6
Continuous
100
AcDbLine
 10
0.8570396712434055
 20
0.1817649167876949
 30
0.0
 11
0.8526832991492693
 21
0.1830652940787851
 31
0.0
  0
LINE
  5
CB
330
2D
100
AcDbEntity
  8
Ceco.NET 10
  6
Continuous
100
AcDbLine
 10
0.369977670432051
 20
0.2629041353185531
 30
0.0
 11
0.3837524555810972
 21
0.2587963076362635
 31
0.0
  0
LINE
  5
CC
330
2D
100
AcDbEntity
  8
Ceco.NET 10
  6
Continuous
100
AcDbLine
 10
0.6183687149423875
 20
0.2210281413125172
 30
0.0
 11
0.6507035299116218
 21
0.2116458660032957
 31
0.0
  0
LINE
  5
CD
330
2D
100
AcDbEntity
  8
Ceco.NET 10
  6
Continuous
100
AcDbLine
 10
0.6467856376612882
 20
0.2667935663317777
 30
0.0
 11
0.6209144894396415
 21
0.2741636891696302
 31
0.0
  0
LINE
  5
CE
330
2D
100
AcDbEntity
  8
Ceco.NET 10
  6
Continuous
100
AcDbLine
 10
1.472999997929703
 20
0.5500000081410508
 30
0.0
 11
1.484999997557493
 21
0.5500000081410508
 31
0.0
  0
LINE
  5
CF
330
2D
100
AcDbEntity
  8
Ceco.NET 10
  6
Continuous
100
AcDbLine
 10
1.499914453453641
 20
0.5350000056985445
 30
0.0
 11
1.5
 21
0.5350000056985445
 31
0.0
  0
LINE
  5
D0
330
2D
100
AcDbEntity
  8
Ceco.NET 10
  6
Continuous
100
AcDbLine
 10
1.256120741989298
 20
0.359932458820365
 30
0.0
 11
1.253699629338933
 21
0.3604020285239116
 31
0.0
  0
LINE
  5
D1
330
2D
100
AcDbEntity
  8
Ceco.NET 10
  6
Continuous
100
AcDbLine
 10
1.243879269642412
 20
0.3094008873528209
 30
0.0
 11
1.246300382292776
 21
0.3089313176492744
 31
0.0
  0
LINE
  5
D2
330
2D
100
AcDbEntity
  8
Ceco.NET 10
  6
Continuous
100
AcDbLine
 10
1.253699629338933
 20
0.3604020285239116
 30
0.0
 11
1.251244309701099
 21
0.360633684616885
 31
0.0
  0
LINE
  5
D3
330
2D
100
AcDbEntity
  8
Ceco.NET 10
  6
Continuous
100
AcDbLine
 10
1.251244309701099
 20
0.360633684616885
 30
0.0
 11
1.250000005815854
 21
0.3606626459901594
 31
0.0
  0
LINE
  5
D4
330
2D
100
AcDbEntity
  8
Ceco.NET 10
  6
Continuous
100
AcDbLine
 10
1.250000005815854
 20
0.3606626459901594
 30
0.0
 11
1.248755690299537
 21
0.360633684616885
 31
0.0
  0
LINE
  5
D5
330
2D
100
AcDbEntity
  8
Ceco.NET 10
  6
Continuous
100
AcDbLine
 10
1.232976219828375
 20
0.3150171838640523
 30
0.0
 11
1.234916538789165
 21
0.3134946530671231
 31
0.0
  0
LINE
  5
D6
330
2D
100
AcDbEntity
  8
Ceco.NET 10
  6
Continuous
100
AcDbLine
 10
1.234916538789165
 20
0.3134946530671231
 30
0.0
 11
1.237010085513616
 21
0.3121489960064919
 31
0.0
  0
LINE
  5
D7
330
2D
100
AcDbEntity
  8
Ceco.NET 10
  6
Continuous
100
AcDbLine
 10
1.237010085513616
 20
0.3121489960064919
 30
0.0
 11
1.239200856382324
 21
0.3110162341171111
 31
0.0
  0
LINE
  5
D8
330
2D
100
AcDbEntity
  8
Ceco.NET 10
  6
Continuous
100
AcDbLine
 10
1.26298991448702
 20
0.3571843385356204
 30
0.0
 11
1.260799143618312
 21
0.3583171004250013
 31
0.0
  0
LINE
  5
D9
330
2D
100
AcDbEntity
  8
Ceco.NET 10
  6
Continuous
100
AcDbLine
 10
1.239200856382324
 20
0.3110162341171111
 30
0.0
 11
1.241491456755776
 21
0.310102113149341
 31
0.0
  0
LINE
  5
DA
330
2D
100
AcDbEntity
  8
Ceco.NET 10
  6
Continuous
100
AcDbLine
 10
1.260799143618312
 20
0.3583171004250013
 30
0.0
 11
1.258508543244859
 21
0.3592312213927714
 31
0.0
  0
LINE
  5
DB
330
2D
100
AcDbEntity
  8
Ceco.NET 10
  6
Continuous
100
AcDbLine
 10
1.241491456755776
 20
0.310102113149341
 30
0.0
 11
1.243879269642412
 21
0.3094008873528209
 31
0.0
  0
LINE
  5
DC
330
2D
100
AcDbEntity
  8
Ceco.NET 10
  6
Continuous
100
AcDbLine
 10
1.258508543244859
 20
0.3592312213927714
 30
0.0
 11
1.256120741989298
 21
0.359932458820365
 31
0.0
  0
LINE
  5
DD
330
2D
100
AcDbEntity
  8
Ceco.NET 10
  6
Continuous
100
AcDbLine
 10
1.135521454643941
 20
0.1760529198028488
 30
0.0
 11
1.1299293972901
 21
0.1773177990572989
 31
0.0
  0
LINE
  5
DE
330
2D
100
AcDbEntity
  8
Ceco.NET 10
  6
Continuous
100
AcDbLine
 10
0.5949980032930857
 20
0.2806498736757153
 30
0.0
 11
0.5689249163715236
 21
0.2863006330580356
 31
0.0
  0
LINE
  5
DF
330
2D
100
AcDbEntity
  8
Ceco.NET 10
  6
Continuous
100
AcDbLine
 10
1.1299293972901
 20
0.1773177990572989
 30
0.0
 11
1.124323324492567
 21
0.1785322343455282
 31
0.0
  0
LINE
  5
E0
330
2D
100
AcDbEntity
  8
Ceco.NET 10
  6
Continuous
100
AcDbLine
 10
1.124323324492567
 20
0.1785322343455282
 30
0.0
 11
1.118703224620267
 21
0.1796962256675362
 31
0.0
  0
LINE
  5
E1
330
2D
100
AcDbEntity
  8
Ceco.NET 10
  6
Continuous
100
AcDbLine
 10
1.14735989865937
 20
0.1737102936371651
 30
0.0
 11
1.135521454643941
 21
0.1760529198028488
 31
0.0
  0
LINE
  5
E2
330
2D
100
AcDbEntity
  8
Ceco.NET 10
  6
Continuous
100
AcDbLine
 10
1.118703224620267
 20
0.1796962256675362
 30
0.0
 11
1.113065538564678
 21
0.1808104127323711
 31
0.0
  0
LINE
  5
E3
330
2D
100
AcDbEntity
  8
Ceco.NET 10
  6
Continuous
100
AcDbLine
 10
1.113065538564678
 20
0.1808104127323711
 30
0.0
 11
1.107413837065395
 21
0.1818741441999115
 31
0.0
  0
LINE
  5
E4
330
2D
100
AcDbEntity
  8
Ceco.NET 10
  6
Continuous
100
AcDbLine
 10
0.5689249163715236
 20
0.2863006330580356
 30
0.0
 11
0.5169394955966825
 21
0.2958443011445884
 31
0.0
  0
LINE
  5
E5
330
2D
100
AcDbEntity
  8
Ceco.NET 10
  6
Continuous
100
AcDbLine
 10
1.107413837065395
 20
0.1818741441999115
 30
0.0
 11
1.101758809079062
 21
0.1828855242051595
 31
0.0
  0
LINE
  5
E6
330
2D
100
AcDbEntity
  8
Ceco.NET 10
  6
Continuous
100
AcDbLine
 10
1.101758809079062
 20
0.1828855242051595
 30
0.0
 11
1.096104013714201
 21
0.1838439130390671
 31
0.0
  0
LINE
  5
E7
330
2D
100
AcDbEntity
  8
Ceco.NET 10
  6
Continuous
100
AcDbLine
 10
1.096104013714201
 20
0.1838439130390671
 30
0.0
 11
1.090445880231216
 21
0.1847499387796088
 31
0.0
  0
LINE
  5
E8
330
2D
100
AcDbEntity
  8
Ceco.NET 10
  6
Continuous
100
AcDbLine
 10
1.090445880231216
 20
0.1847499387796088
 30
0.0
 11
1.084784431892253
 21
0.1856036130578584
 31
0.0
  0
LINE
  5
E9
330
2D
100
AcDbEntity
  8
Ceco.NET 10
  6
Continuous
100
AcDbLine
 10
1.084784431892253
 20
0.1856036130578584
 30
0.0
 11
1.072351523704916
 21
0.1872927240909461
 31
0.0
  0
LINE
  5
EA
330
2D
100
AcDbEntity
  8
Ceco.NET 10
  6
Continuous
100
AcDbLine
 10
1.159250682506017
 20
0.1720967380582099
 30
0.0
 11
1.14735989865937
 21
0.1737102936371651
 31
0.0
  0
LINE
  5
EB
330
2D
100
AcDbEntity
  8
Ceco.NET 10
  6
Continuous
100
AcDbLine
 10
1.072351523704916
 20
0.1872927240909461
 30
0.0
 11
1.059894527564146
 21
0.1887333953918493
 31
0.0
  0
LINE
  5
EC
330
2D
100
AcDbEntity
  8
Ceco.NET 10
  6
Continuous
100
AcDbLine
 10
1.246300382292776
 20
0.3089313176492744
 30
0.0
 11
1.248755690299537
 21
0.3086996499252272
 31
0.0
  0
LINE
  5
ED
330
2D
100
AcDbEntity
  8
Ceco.NET 10
  6
Continuous
100
AcDbLine
 10
0.4841090922122495
 20
0.2451080227816112
 30
0.0
 11
0.4877732409608356
 21
0.2447631032938804
 31
0.0
  0
LINE
  5
EE
330
2D
100
AcDbEntity
  8
Ceco.NET 10
  6
Continuous
100
AcDbLine
 10
0.4804223210255033
 20
0.2454378567668774
 30
0.0
 11
0.4841090922122495
 21
0.2451080227816112
 31
0.0
  0
LINE
  5
EF
330
2D
100
AcDbEntity
  8
Ceco.NET 10
  6
Continuous
100
AcDbLine
 10
0.4767129157695236
 20
0.245752605249679
 30
0.0
 11
0.4804223210255033
 21
0.2454378567668774
 31
0.0
  0
LINE
  5
F0
330
2D
100
AcDbEntity
  8
Ceco.NET 10
  6
Continuous
100
AcDbLine
 10
0.4729808066578687
 20
0.2460526055311508
 30
0.0
 11
0.4767129157695236
 21
0.245752605249679
 31
0.0
  0
LINE
  5
F1
330
2D
100
AcDbEntity
  8
Ceco.NET 10
  6
Continuous
100
AcDbLine
 10
0.4398375739177782
 20
0.2483920331515933
 30
0.0
 11
0.4539830297515153
 21
0.2473154377166468
 31
0.0
  0
LINE
  5
F2
330
2D
100
AcDbEntity
  8
Ceco.NET 10
  6
Continuous
100
AcDbLine
 10
0.4692260634769799
 20
0.2463375203101577
 30
0.0
 11
0.4729808066578687
 21
0.2460526055311508
 31
0.0
  0
LINE
  5
F3
330
2D
100
AcDbEntity
  8
Ceco.NET 10
  6
Continuous
100
AcDbLine
 10
0.4654489072172562
 20
0.246606360945444
 30
0.0
 11
0.4692260634769799
 21
0.2463375203101577
 31
0.0
  0
LINE
  5
F4
330
2D
100
AcDbEntity
  8
Ceco.NET 10
  6
Continuous
100
AcDbLine
 10
0.4616493727719178
 20
0.2468587901358745
 30
0.0
 11
0.4654489072172562
 21
0.246606360945444
 31
0.0
  0
LINE
  5
F5
330
2D
100
AcDbEntity
  8
Ceco.NET 10
  6
Continuous
100
AcDbLine
 10
0.4578274136166706
 20
0.2470951568136579
 30
0.0
 11
0.4616493727719178
 21
0.2468587901358745
 31
0.0
  0
LINE
  5
F6
330
2D
100
AcDbEntity
  8
Ceco.NET 10
  6
Continuous
100
AcDbLine
 10
0.4539830297515153
 20
0.2473154377166468
 30
0.0
 11
0.4578274136166706
 21
0.2470951568136579
 31
0.0
  0
LINE
  5
F7
330
2D
100
AcDbEntity
  8
Ceco.NET 10
  6
Continuous
100
AcDbLine
 10
1.248755690299537
 20
0.3086996499252272
 30
0.0
 11
1.250000005815854
 21
0.3086707001830265
 31
0.0
  0
LINE
  5
F8
330
2D
100
AcDbEntity
  8
Ceco.NET 10
  6
Continuous
100
AcDbLine
 10
1.250000005815854
 20
0.3086707001830265
 30
0.0
 11
1.251244309701099
 21
0.3086996499252272
 31
0.0
  0
LINE
  5
F9
330
2D
100
AcDbEntity
  8
Ceco.NET 10
  6
Continuous
100
AcDbLine
 10
1.248755690299537
 20
0.360633684616885
 30
0.0
 11
1.246300382292776
 21
0.3604020285239116
 31
0.0
  0
LINE
  5
FA
330
2D
100
AcDbEntity
  8
Ceco.NET 10
  6
Continuous
100
AcDbLine
 10
1.251244309701099
 20
0.3086996499252272
 30
0.0
 11
1.253699629338933
 21
0.3089313176492744
 31
0.0
  0
LINE
  5
FB
330
2D
100
AcDbEntity
  8
Ceco.NET 10
  6
Continuous
100
AcDbLine
 10
1.246300382292776
 20
0.3604020285239116
 30
0.0
 11
1.243879269642412
 21
0.359932458820365
 31
0.0
  0
LINE
  5
FC
330
2D
100
AcDbEntity
  8
Ceco.NET 10
  6
Continuous
100
AcDbLine
 10
1.253699629338933
 20
0.3089313176492744
 30
0.0
 11
1.256120741989298
 21
0.3094008873528209
 31
0.0
  0
LINE
  5
FD
330
2D
100
AcDbEntity
  8
Ceco.NET 10
  6
Continuous
100
AcDbLine
 10
1.243879269642412
 20
0.359932458820365
 30
0.0
 11
1.241491456755776
 21
0.3592312213927714
 31
0.0
  0
LINE
  5
FE
330
2D
100
AcDbEntity
  8
Ceco.NET 10
  6
Continuous
100
AcDbLine
 10
1.256120741989298
 20
0.3094008873528209
 30
0.0
 11
1.258508543244859
 21
0.3101021131493409
 31
0.0
  0
LINE
  5
FF
330
2D
100
AcDbEntity
  8
Ceco.NET 10
  6
Continuous
100
AcDbLine
 10
1.241491456755776
 20
0.3592312213927714
 30
0.0
 11
1.239200856382324
 21
0.3583171004250013
 31
0.0
  0
LINE
  5
100
330
2D
100
AcDbEntity
  8
Ceco.NET 10
  6
Continuous
100
AcDbLine
 10
1.239200856382324
 20
0.3583171004250013
 30
0.0
 11
1.237010085513616
 21
0.3571843385356204
 31
0.0
  0
LINE
  5
101
330
2D
100
AcDbEntity
  8
Ceco.NET 10
  6
Continuous
100
AcDbLine
 10
1.224130439420218
 20
0.3371742860313512
 30
0.0
 11
1.224003963125847
 21
0.334666673086593
 31
0.0
  0
LINE
  5
102
330
2D
100
AcDbEntity
  8
Ceco.NET 10
  6
Continuous
100
AcDbLine
 10
1.224003963125847
 20
0.334666673086593
 30
0.0
 11
1.224130439420218
 21
0.3321590485107611
 31
0.0
  0
LINE
  5
103
330
2D
100
AcDbEntity
  8
Ceco.NET 10
  6
Continuous
100
AcDbLine
 10
1.224130439420218
 20
0.3321590485107611
 30
0.0
 11
1.224481453590517
 21
0.3297173721222647
 31
0.0
  0
LINE
  5
104
330
2D
100
AcDbEntity
  8
Ceco.NET 10
  6
Continuous
100
AcDbLine
 10
1.224481453590517
 20
0.3297173721222647
 30
0.0
 11
1.225056982374597
 21
0.3273416206589566
 31
0.0
  0
LINE
  5
105
330
2D
100
AcDbEntity
  8
Ceco.NET 10
  6
Continuous
100
AcDbLine
 10
1.225056982374597
 20
0.3273416206589566
 30
0.0
 11
1.225866272475973
 21
0.3250116142081335
 31
0.0
  0
LINE
  5
106
330
2D
100
AcDbEntity
  8
Ceco.NET 10
  6
Continuous
100
AcDbLine
 10
1.225866272475973
 20
0.3250116142081335
 30
0.0
 11
1.226900077191131
 21
0.3227475443135721
 31
0.0
  0
LINE
  5
107
330
2D
100
AcDbEntity
  8
Ceco.NET 10
  6
Continuous
100
AcDbLine
 10
1.274133739155736
 20
0.344321720333979
 30
0.0
 11
1.273099934440579
 21
0.3465857902285402
 31
0.0
  0
LINE
  5
108
330
2D
100
AcDbEntity
  8
Ceco.NET 10
  6
Continuous
100
AcDbLine
 10
1.226900077191131
 20
0.3227475443135721
 30
0.0
 11
1.228130737827037
 21
0.3206100088687505
 31
0.0
  0
LINE
  5
109
330
2D
100
AcDbEntity
  8
Ceco.NET 10
  6
Continuous
100
AcDbLine
 10
1.273099934440579
 20
0.3465857902285402
 30
0.0
 11
1.271869262173598
 21
0.3487233256733619
 31
0.0
  0
LINE
  5
10A
330
2D
100
AcDbEntity
  8
Ceco.NET 10
  6
Continuous
100
AcDbLine
 10
1.228130737827037
 20
0.3206100088687505
 30
0.0
 11
1.229563581415405
 21
0.3186024157782342
 31
0.0
  0
LINE
  5
10B
330
2D
100
AcDbEntity
  8
Ceco.NET 10
  6
Continuous
100
AcDbLine
 10
1.271869262173598
 20
0.3487233256733619
 30
0.0
 11
1.270436418585231
 21
0.3507309187638783
 31
0.0
  0
LINE
  5
10C
330
2D
100
AcDbEntity
  8
Ceco.NET 10
  6
Continuous
100
AcDbLine
 10
1.229563581415405
 20
0.3186024157782342
 30
0.0
 11
1.231193280924523
 21
0.3167213571374573
 31
0.0
  0
LINE
  5
10D
330
2D
100
AcDbEntity
  8
Ceco.NET 10
  6
Continuous
100
AcDbLine
 10
1.270436418585231
 20
0.3507309187638783
 30
0.0
 11
1.268806730707186
 21
0.352611977404655
 31
0.0
  0
LINE
  5
10E
330
2D
100
AcDbEntity
  8
Ceco.NET 10
  6
Continuous
100
AcDbLine
 10
1.231193280924523
 20
0.3167213571374573
 30
0.0
 11
1.232976219828375
 21
0.3150171838640523
 31
0.0
  0
LINE
  5
10F
330
2D
100
AcDbEntity
  8
Ceco.NET 10
  6
Continuous
100
AcDbLine
 10
1.268806730707186
 20
0.352611977404655
 30
0.0
 11
1.267023791803334
 21
0.3543161623091336
 31
0.0
  0
LINE
  5
110
330
2D
100
AcDbEntity
  8
Ceco.NET 10
  6
Continuous
100
AcDbLine
 10
1.267023791803334
 20
0.3543161623091336
 30
0.0
 11
1.265083472842544
 21
0.3558386814749894
 31
0.0
  0
LINE
  5
111
330
2D
100
AcDbEntity
  8
Ceco.NET 10
  6
Continuous
100
AcDbLine
 10
1.265083472842544
 20
0.3558386814749894
 30
0.0
 11
1.26298991448702
 21
0.3571843385356204
 31
0.0
  0
LINE
  5
112
330
2D
100
AcDbEntity
  8
Ceco.NET 10
  6
Continuous
100
AcDbLine
 10
0.8614126990349435
 20
0.1805220667866508
 30
0.0
 11
0.8570396712434055
 21
0.1817649167876949
 31
0.0
  0
LINE
  5
113
330
2D
100
AcDbEntity
  8
Ceco.NET 10
  6
Continuous
100
AcDbLine
 10
0.8658023592617347
 20
0.1793367324445792
 30
0.0
 11
0.8614126990349435
 21
0.1805220667866508
 31
0.0
  0
LINE
  5
114
330
2D
100
AcDbEntity
  8
Ceco.NET 10
  6
Continuous
100
AcDbLine
 10
0.5169394955966825
 20
0.2958443011445884
 30
0.0
 11
0.5056845476507526
 21
0.2987529884004384
 31
0.0
  0
LINE
  5
115
330
2D
100
AcDbEntity
  8
Ceco.NET 10
  6
Continuous
100
AcDbLine
 10
0.8702086635548539
 20
0.1782089370236274
 30
0.0
 11
0.8658023592617347
 21
0.1793367324445792
 31
0.0
  0
LINE
  5
116
330
2D
100
AcDbEntity
  8
Ceco.NET 10
  6
Continuous
100
AcDbLine
 10
0.8436311834953746
 20
0.1341538032224878
 30
0.0
 11
0.8477567718270577
 21
0.1331053782478107
 31
0.0
  0
LINE
  5
117
330
2D
100
AcDbEntity
  8
Ceco.NET 10
  6
Continuous
100
AcDbLine
 10
0.8477567718270577
 20
0.1331053782478107
 30
0.0
 11
0.852249599676718
 21
0.1319707902798739
 31
0.0
  0
LINE
  5
118
330
2D
100
AcDbEntity
  8
Ceco.NET 10
  6
Continuous
100
AcDbLine
 10
0.8398716017878665
 20
0.1351019101873294
 30
0.0
 11
0.8436311834953746
 21
0.1341538032224878
 31
0.0
  0
LINE
  5
119
330
2D
100
AcDbEntity
  8
Ceco.NET 10
  6
Continuous
100
AcDbLine
 10
0.3837524555810972
 20
0.2587963076362635
 30
0.0
 11
0.3977073827981243
 21
0.255279373386285
 31
0.0
  0
LINE
  5
11A
330
2D
100
AcDbEntity
  8
Ceco.NET 10
  6
Continuous
100
AcDbLine
 10
0.852249599676718
 20
0.1319707902798739
 30
0.0
 11
0.8546416462741454
 21
0.131370638512974
 31
0.0
  0
LINE
  5
11B
330
2D
100
AcDbEntity
  8
Ceco.NET 10
  6
Continuous
100
AcDbLine
 10
0.6209144894396415
 20
0.2741636891696302
 30
0.0
 11
0.5949980032930857
 21
0.2806498736757153
 31
0.0
  0
LINE
  5
11C
330
2D
100
AcDbEntity
  8
Ceco.NET 10
  6
Continuous
100
AcDbLine
 10
0.8381298136224259
 20
0.1355369821265659
 30
0.0
 11
0.8398716017878665
 21
0.1351019101873294
 31
0.0
  0
LINE
  5
11D
330
2D
100
AcDbEntity
  8
Ceco.NET 10
  6
Continuous
100
AcDbLine
 10
0.8546416462741454
 20
0.131370638512974
 30
0.0
 11
0.8623699829168584
 21
0.1294557916033771
 31
0.0
  0
LINE
  5
11E
330
2D
100
AcDbEntity
  8
Ceco.NET 10
  6
Continuous
100
AcDbLine
 10
0.5858889651649723
 20
0.2290278076402675
 30
0.0
 11
0.6183687149423875
 21
0.2210281413125172
 31
0.0
  0
LINE
  5
11F
330
2D
100
AcDbEntity
  8
Ceco.NET 10
  6
Continuous
100
AcDbLine
 10
0.836481655599498
 20
0.135940626904924
 30
0.0
 11
0.8381298136224259
 21
0.1355369821265659
 31
0.0
  0
LINE
  5
120
330
2D
100
AcDbEntity
  8
Ceco.NET 10
  6
Continuous
100
AcDbLine
 10
0.8623699829168584
 20
0.1294557916033771
 30
0.0
 11
0.8651241397288039
 21
0.1287860976473979
 31
0.0
  0
LINE
  5
121
330
2D
100
AcDbEntity
  8
Ceco.NET 10
  6
Continuous
100
AcDbLine
 10
0.8746316002832266
 20
0.1771386456305743
 30
0.0
 11
0.8702086635548539
 21
0.1782089370236274
 31
0.0
  0
LINE
  5
122
330
2D
100
AcDbEntity
  8
Ceco.NET 10
  6
Continuous
100
AcDbLine
 10
0.8349355718785208
 20
0.1363140657851323
 30
0.0
 11
0.836481655599498
 21
0.135940626904924
 31
0.0
  0
LINE
  5
123
330
2D
100
AcDbEntity
  8
Ceco.NET 10
  6
Continuous
100
AcDbLine
 10
0.8651241397288039
 20
0.1287860976473979
 30
0.0
 11
0.867967471982072
 21
0.1281145310885684
 31
0.0
  0
LINE
  5
124
330
2D
100
AcDbEntity
  8
Ceco.NET 10
  6
Continuous
100
AcDbLine
 10
0.8334942724996427
 20
0.1366525532891598
 30
0.0
 11
0.8349355718785208
 21
0.1363140657851323
 31
0.0
  0
LINE
  5
125
330
2D
100
AcDbEntity
  8
Ceco.NET 10
  6
Continuous
100
AcDbLine
 10
0.8321552567820397
 20
0.1369552752418549
 30
0.0
 11
0.8334942724996427
 21
0.1366525532891598
 31
0.0
  0
LINE
  5
126
330
2D
100
AcDbEntity
  8
Ceco.NET 10
  6
Continuous
100
AcDbLine
 10
0.867967471982072
 20
0.1281145310885684
 30
0.0
 11
0.8709925164982578
 21
0.1274361836138276
 31
0.0
  0
LINE
  5
127
330
2D
100
AcDbEntity
  8
Ceco.NET 10
  6
Continuous
100
AcDbLine
 10
0.8309190830172445
 20
0.1372265700336715
 30
0.0
 11
0.8321552567820397
 21
0.1369552752418549
 31
0.0
  0
LINE
  5
128
330
2D
100
AcDbEntity
  8
Ceco.NET 10
  6
Continuous
100
AcDbLine
 10
1.117351426352773
 20
0.1253815195684353
 30
0.0
 11
1.136760536177137
 21
0.1211440635708277
 31
0.0
  0
LINE
  5
129
330
2D
100
AcDbEntity
  8
Ceco.NET 10
  6
Continuous
100
AcDbLine
 10
0.8297859838267289
 20
0.1374629832357491
 30
0.0
 11
0.8309190830172445
 21
0.1372265700336715
 31
0.0
  0
LINE
  5
12A
330
2D
100
AcDbEntity
  8
Ceco.NET 10
  6
Continuous
100
AcDbLine
 10
0.3977073827981243
 20
0.255279373386285
 30
0.0
 11
0.4117201397131112
 21
0.252371046693717
 31
0.0
  0
LINE
  5
12B
330
2D
100
AcDbEntity
  8
Ceco.NET 10
  6
Continuous
100
AcDbLine
 10
0.8769419036953646
 20
0.1766642141382614
 30
0.0
 11
0.8746316002832266
 21
0.1771386456305743
 31
0.0
  0
LINE
  5
12C
330
2D
100
AcDbEntity
  8
Ceco.NET 10
  6
Continuous
100
AcDbLine
 10
0.5533286585717744
 20
0.2356555190499677
 30
0.0
 11
0.5858889651649723
 21
0.2290278076402675
 31
0.0
  0
LINE
  5
12D
330
2D
100
AcDbEntity
  8
Ceco.NET 10
  6
Continuous
100
AcDbLine
 10
0.8709925164982578
 20
0.1274361836138276
 30
0.0
 11
0.8741190886559341
 21
0.1268160496624758
 31
0.0
  0
LINE
  5
12E
330
2D
100
AcDbEntity
  8
Ceco.NET 10
  6
Continuous
100
AcDbLine
 10
1.103944218022838
 20
0.1279785405759887
 30
0.0
 11
1.117351426352773
 21
0.1253815195684353
 31
0.0
  0
LINE
  5
12F
330
2D
100
AcDbEntity
  8
Ceco.NET 10
  6
Continuous
100
AcDbLine
 10
1.136760536177137
 20
0.1211440635708277
 30
0.0
 11
1.142835248192328
 21
0.1199741287702081
 31
0.0
  0
LINE
  5
130
330
2D
100
AcDbEntity
  8
Ceco.NET 10
  6
Continuous
100
AcDbLine
 10
0.8287559010551255
 20
0.1376562451547557
 30
0.0
 11
0.8297859838267289
 21
0.1374629832357491
 31
0.0
  0
LINE
  5
131
330
2D
100
AcDbEntity
  8
Ceco.NET 10
  6
Continuous
100
AcDbLine
 10
0.8741190886559341
 20
0.1268160496624758
 30
0.0
 11
0.8773468627850395
 21
0.1262644925210936
 31
0.0
  0
LINE
  5
132
330
2D
100
AcDbEntity
  8
Ceco.NET 10
  6
Continuous
100
AcDbLine
 10
1.090487228697878
 20
0.1302553697582936
 30
0.0
 11
1.103944218022838
 21
0.1279785405759887
 31
0.0
  0
LINE
  5
133
330
2D
100
AcDbEntity
  8
Ceco.NET 10
  6
Continuous
100
AcDbLine
 10
1.142835248192328
 20
0.1199741287702081
 30
0.0
 11
1.148932989733256
 21
0.118954490702701
 31
0.0
  0
LINE
  5
134
330
2D
100
AcDbEntity
  8
Ceco.NET 10
  6
Continuous
100
AcDbLine
 10
0.4117201397131112
 20
0.252371046693717
 30
0.0
 11
0.4257499477820015
 21
0.2500772361439499
 31
0.0
  0
LINE
  5
135
330
2D
100
AcDbEntity
  8
Ceco.NET 10
  6
Continuous
100
AcDbLine
 10
0.5206234171703957
 20
0.2409006214781966
 30
0.0
 11
0.5533286585717744
 21
0.2356555190499677
 31
0.0
  0
LINE
  5
136
330
2D
100
AcDbEntity
  8
Ceco.NET 10
  6
Continuous
100
AcDbLine
 10
0.8278289044888754
 20
0.1378009473414649
 30
0.0
 11
0.8287559010551255
 21
0.1376562451547557
 31
0.0
  0
LINE
  5
137
330
2D
100
AcDbEntity
  8
Ceco.NET 10
  6
Continuous
100
AcDbLine
 10
0.8792772371778983
 20
0.1763197250002542
 30
0.0
 11
0.8769419036953646
 21
0.1766642141382614
 31
0.0
  0
LINE
  5
138
330
2D
100
AcDbEntity
  8
Ceco.NET 10
  6
Continuous
100
AcDbLine
 10
1.076972840024681
 20
0.1322129143390914
 30
0.0
 11
1.090487228697878
 21
0.1302553697582936
 31
0.0
  0
LINE
  5
139
330
2D
100
AcDbEntity
  8
Ceco.NET 10
  6
Continuous
100
AcDbLine
 10
1.148932989733256
 20
0.118954490702701
 30
0.0
 11
1.155056912820866
 21
0.1180847888050251
 31
0.0
  0
LINE
  5
13A
330
2D
100
AcDbEntity
  8
Ceco.NET 10
  6
Continuous
100
AcDbLine
 10
0.8773468627850395
 20
0.1262644925210936
 30
0.0
 11
0.8806828756851057
 21
0.1257916544858646
 31
0.0
  0
LINE
  5
13B
330
2D
100
AcDbEntity
  8
Ceco.NET 10
  6
Continuous
100
AcDbLine
 10
1.06340867035646
 20
0.1338502787257143
 30
0.0
 11
1.076972840024681
 21
0.1322129143390914
 31
0.0
  0
LINE
  5
13C
330
2D
100
AcDbEntity
  8
Ceco.NET 10
  6
Continuous
100
AcDbLine
 10
0.4257499477820015
 20
0.2500772361439499
 30
0.0
 11
0.4398375739177782
 21
0.2483920331515933
 31
0.0
  0
LINE
  5
13D
330
2D
100
AcDbEntity
  8
Ceco.NET 10
  6
Continuous
100
AcDbLine
 10
0.4877732409608356
 20
0.2447631032938804
 30
0.0
 11
0.5206234171703957
 21
0.2409006214781966
 31
0.0
  0
LINE
  5
13E
330
2D
100
AcDbEntity
  8
Ceco.NET 10
  6
Continuous
100
AcDbLine
 10
1.155056912820866
 20
0.1180847888050251
 30
0.0
 11
1.161203865434213
 21
0.1173653952715353
 31
0.0
  0
LINE
  5
13F
330
2D
100
AcDbEntity
  8
Ceco.NET 10
  6
Continuous
100
AcDbLine
 10
0.8806828756851057
 20
0.1257916544858646
 30
0.0
 11
0.8841194159543322
 21
0.1254082361445042
 31
0.0
  0
LINE
  5
140
330
2D
100
AcDbEntity
  8
Ceco.NET 10
  6
Continuous
100
AcDbLine
 10
1.049817504966402
 20
0.135164799402307
 30
0.0
 11
1.06340867035646
 21
0.1338502787257143
 31
0.0
  0
LINE
  5
141
330
2D
100
AcDbEntity
  8
Ceco.NET 10
  6
Continuous
100
AcDbLine
 10
1.059894527564146
 20
0.1887333953918493
 30
0.0
 11
1.047413466732088
 21
0.1899256153294944
 31
0.0
  0
LINE
  5
142
330
2D
100
AcDbEntity
  8
Ceco.NET 10
  6
Continuous
100
AcDbLine
 10
1.161203865434213
 20
0.1173653952715353
 30
0.0
 11
1.167364426403677
 21
0.1167974732095923
 31
0.0
  0
LINE
  5
143
330
2D
100
AcDbEntity
  8
Ceco.NET 10
  6
Continuous
100
AcDbLine
 10
0.8816375890997543
 20
0.1761051898476258
 30
0.0
 11
0.8792772371778983
 21
0.1763197250002542
 31
0.0
  0
LINE
  5
144
330
2D
100
AcDbEntity
  8
Ceco.NET 10
  6
Continuous
100
AcDbLine
 10
0.8841194159543322
 20
0.1254082361445042
 30
0.0
 11
0.8876341635624735
 21
0.1251241588027967
 31
0.0
  0
LINE
  5
145
330
2D
100
AcDbEntity
  8
Ceco.NET 10
  6
Continuous
100
AcDbLine
 10
1.047413466732088
 20
0.1899256153294944
 30
0.0
 11
1.034903060701327
 21
0.1908698026225313
 31
0.0
  0
LINE
  5
146
330
2D
100
AcDbEntity
  8
Ceco.NET 10
  6
Continuous
100
AcDbLine
 10
1.171193817814957
 20
0.1712122530659831
 30
0.0
 11
1.159250682506017
 21
0.1720967380582099
 31
0.0
  0
LINE
  5
147
330
2D
100
AcDbEntity
  8
Ceco.NET 10
  6
Continuous
100
AcDbLine
 10
1.036206973838793
 20
0.1361555807762022
 30
0.0
 11
1.049817504966402
 21
0.135164799402307
 31
0.0
  0
LINE
  5
148
330
2D
100
AcDbEntity
  8
Ceco.NET 10
  6
Continuous
100
AcDbLine
 10
1.167364426403677
 20
0.1167974732095923
 30
0.0
 11
1.173535478601531
 21
0.1163813948135515
 31
0.0
  0
LINE
  5
149
330
2D
100
AcDbEntity
  8
Ceco.NET 10
  6
Continuous
100
AcDbLine
 10
1.034903060701327
 20
0.1908698026225313
 30
0.0
 11
1.022368578348206
 21
0.1915655501833839
 31
0.0
  0
LINE
  5
14A
330
2D
100
AcDbEntity
  8
Ceco.NET 10
  6
Continuous
100
AcDbLine
 10
0.8876341635624735
 20
0.1251241588027967
 30
0.0
 11
0.8912195117873912
 21
0.1249478782512522
 31
0.0
  0
LINE
  5
14B
330
2D
100
AcDbEntity
  8
Ceco.NET 10
  6
Continuous
100
AcDbLine
 10
1.022569446989349
 20
0.1368235184400672
 30
0.0
 11
1.036206973838793
 21
0.1361555807762022
 31
0.0
  0
LINE
  5
14C
330
2D
100
AcDbEntity
  8
Ceco.NET 10
  6
Continuous
100
AcDbLine
 10
1.173535478601531
 20
0.1163813948135515
 30
0.0
 11
1.179720139155502
 21
0.1161167878890573
 31
0.0
  0
LINE
  5
14D
330
2D
100
AcDbEntity
  8
Ceco.NET 10
  6
Continuous
100
AcDbLine
 10
1.022368578348206
 20
0.1915655501833839
 30
0.0
 11
1.009825814670678
 21
0.1920115553318083
 31
0.0
  0
LINE
  5
14E
330
2D
100
AcDbEntity
  8
Ceco.NET 10
  6
Continuous
100
AcDbLine
 10
0.8840421158391594
 20
0.1760213181758662
 30
0.0
 11
0.8816375890997543
 21
0.1761051898476258
 31
0.0
  0
LINE
  5
14F
330
2D
100
AcDbEntity
  8
Ceco.NET 10
  6
Continuous
100
AcDbLine
 10
1.008904947680217
 20
0.1371686123939021
 30
0.0
 11
1.022569446989349
 21
0.1368235184400672
 31
0.0
  0
LINE
  5
150
330
2D
100
AcDbEntity
  8
Ceco.NET 10
  6
Continuous
100
AcDbLine
 10
1.179720139155502
 20
0.1161167878890573
 30
0.0
 11
1.185918419696664
 21
0.116003640805036
 31
0.0
  0
LINE
  5
151
330
2D
100
AcDbEntity
  8
Ceco.NET 10
  6
Continuous
100
AcDbLine
 10
0.8912195117873912
 20
0.1249478782512522
 30
0.0
 11
0.9179849383652395
 21
0.1245071536102441
 31
0.0
  0
LINE
  5
152
330
2D
100
AcDbEntity
  8
Ceco.NET 10
  6
Continuous
100
AcDbLine
 10
1.009825814670678
 20
0.1920115553318083
 30
0.0
 11
0.9972800385450875
 21
0.1922074109802283
 31
0.0
  0
LINE
  5
153
330
2D
100
AcDbEntity
  8
Ceco.NET 10
  6
Continuous
100
AcDbLine
 10
1.183240271950722
 20
0.1710549544265608
 30
0.0
 11
1.171193817814957
 21
0.1712122530659831
 31
0.0
  0
LINE
  5
154
330
2D
100
AcDbEntity
  8
Ceco.NET 10
  6
Continuous
100
AcDbLine
 10
1.005864352418623
 20
0.1372009235163742
 30
0.0
 11
1.008904947680217
 21
0.1371686123939021
 31
0.0
  0
LINE
  5
155
330
2D
100
AcDbEntity
  8
Ceco.NET 10
  6
Continuous
100
AcDbLine
 10
1.002824617856475
 20
0.1372171953883466
 30
0.0
 11
1.005864352418623
 21
0.1372009235163742
 31
0.0
  0
LINE
  5
156
330
2D
100
AcDbEntity
  8
Ceco.NET 10
  6
Continuous
100
AcDbLine
 10
0.9997857556248483
 20
0.1372174280098185
 30
0.0
 11
1.002824617856475
 21
0.1372171953883466
 31
0.0
  0
LINE
  5
157
330
2D
100
AcDbEntity
  8
Ceco.NET 10
  6
Continuous
100
AcDbLine
 10
0.9972800385450875
 20
0.1922074109802283
 30
0.0
 11
0.984725969464017
 21
0.1921535358472942
 31
0.0
  0
LINE
  5
158
330
2D
100
AcDbEntity
  8
Ceco.NET 10
  6
Continuous
100
AcDbLine
 10
0.99674814954917
 20
0.1372016330118642
 30
0.0
 11
0.9997857556248483
 21
0.1372174280098185
 31
0.0
  0
LINE
  5
159
330
2D
100
AcDbEntity
  8
Ceco.NET 10
  6
Continuous
100
AcDbLine
 10
0.9937113925418652
 20
0.1371697871323361
 30
0.0
 11
0.99674814954917
 21
0.1372016330118642
 31
0.0
  0
LINE
  5
15A
330
2D
100
AcDbEntity
  8
Ceco.NET 10
  6
Continuous
100
AcDbLine
 10
0.9906742866023519
 20
0.1371219136333813
 30
0.0
 11
0.9937113925418652
 21
0.1371697871323361
 31
0.0
  0
LINE
  5
15B
330
2D
100
AcDbEntity
  8
Ceco.NET 10
  6
Continuous
100
AcDbLine
 10
0.8864716610178863
 20
0.1760674004894857
 30
0.0
 11
0.8840421158391594
 21
0.1760213181758662
 31
0.0
  0
LINE
  5
15C
330
2D
100
AcDbEntity
  8
Ceco.NET 10
  6
Continuous
100
AcDbLine
 10
1.185918419696664
 20
0.116003640805036
 30
0.0
 11
1.198961366063464
 21
0.1162615482311343
 31
0.0
  0
LINE
  5
15D
330
2D
100
AcDbEntity
  8
Ceco.NET 10
  6
Continuous
100
AcDbLine
 10
0.987636413011981
 20
0.1370579776217794
 30
0.0
 11
0.9906742866023519
 21
0.1371219136333813
 31
0.0
  0
LINE
  5
15E
330
2D
100
AcDbEntity
  8
Ceco.NET 10
  6
Continuous
100
AcDbLine
 10
0.984725969464017
 20
0.1921535358472942
 30
0.0
 11
0.9721636306896137
 21
0.1918499183019316
 31
0.0
  0
LINE
  5
15F
330
2D
100
AcDbEntity
  8
Ceco.NET 10
  6
Continuous
100
AcDbLine
 10
0.9845981788583284
 20
0.136978013990751
 30
0.0
 11
0.987636413011981
 21
0.1370579776217794
 31
0.0
  0
LINE
  5
160
330
2D
100
AcDbEntity
  8
Ceco.NET 10
  6
Continuous
100
AcDbLine
 10
0.9815595841413934
 20
0.1368819994781487
 30
0.0
 11
0.9845981788583284
 21
0.136978013990751
 31
0.0
  0
LINE
  5
161
330
2D
100
AcDbEntity
  8
Ceco.NET 10
  6
Continuous
100
AcDbLine
 10
0.9721636306896137
 20
0.1918499183019316
 30
0.0
 11
0.9680320407239506
 21
0.1916748822752628
 31
0.0
  0
LINE
  5
162
330
2D
100
AcDbEntity
  8
Ceco.NET 10
  6
Continuous
100
AcDbLine
 10
1.195339077548779
 20
0.1716267147427928
 30
0.0
 11
1.183240271950722
 21
0.1710549544265608
 31
0.0
  0
LINE
  5
163
330
2D
100
AcDbEntity
  8
Ceco.NET 10
  6
Continuous
100
AcDbLine
 10
0.9753068585446909
 20
0.1365681814812354
 30
0.0
 11
0.9815595841413934
 21
0.1368819994781487
 31
0.0
  0
LINE
  5
164
330
2D
100
AcDbEntity
  8
Ceco.NET 10
  6
Continuous
100
AcDbLine
 10
0.9680320407239506
 20
0.1916748822752628
 30
0.0
 11
0.9639061965086481
 21
0.1914333397697257
 31
0.0
  0
LINE
  5
165
330
2D
100
AcDbEntity
  8
Ceco.NET 10
  6
Continuous
100
AcDbLine
 10
1.198961366063464
 20
0.1162615482311343
 30
0.0
 11
1.211946750246997
 21
0.1171960817330798
 31
0.0
  0
LINE
  5
166
330
2D
100
AcDbEntity
  8
Ceco.NET 10
  6
Continuous
100
AcDbLine
 10
0.8888688020255525
 20
0.1762413315641621
 30
0.0
 11
0.8864716610178863
 21
0.1760674004894857
 31
0.0
  0
LINE
  5
167
330
2D
100
AcDbEntity
  8
Ceco.NET 10
  6
Continuous
100
AcDbLine
 10
0.9639061965086481
 20
0.1914333397697257
 30
0.0
 11
0.9597860864126328
 21
0.1911252675231727
 31
0.0
  0
LINE
  5
168
330
2D
100
AcDbEntity
  8
Ceco.NET 10
  6
Continuous
100
AcDbLine
 10
0.9690789769212065
 20
0.1360620785754985
 30
0.0
 11
0.9753068585446909
 21
0.1365681814812354
 31
0.0
  0
LINE
  5
169
330
2D
100
AcDbEntity
  8
Ceco.NET 10
  6
Continuous
100
AcDbLine
 10
0.9597860864126328
 20
0.1911252675231727
 30
0.0
 11
0.9556717104359037
 21
0.1907506771666779
 31
0.0
  0
LINE
  5
16A
330
2D
100
AcDbEntity
  8
Ceco.NET 10
  6
Continuous
100
AcDbLine
 10
0.9556717104359037
 20
0.1907506771666779
 30
0.0
 11
0.9515630685784621
 21
0.1903095803313143
 31
0.0
  0
LINE
  5
16B
330
2D
100
AcDbEntity
  8
Ceco.NET 10
  6
Continuous
100
AcDbLine
 10
1.207337274360161
 20
0.1729331983475253
 30
0.0
 11
1.195339077548779
 21
0.1716267147427928
 31
0.0
  0
LINE
  5
16C
330
2D
100
AcDbEntity
  8
Ceco.NET 10
  6
Continuous
100
AcDbLine
 10
0.9628759509020142
 20
0.1353636791298643
 30
0.0
 11
0.9690789769212065
 21
0.1360620785754985
 31
0.0
  0
LINE
  5
16D
330
2D
100
AcDbEntity
  8
Ceco.NET 10
  6
Continuous
100
AcDbLine
 10
0.9515630685784621
 20
0.1903095803313143
 30
0.0
 11
0.9474601608403069
 21
0.1898019653860088
 31
0.0
  0
LINE
  5
16E
330
2D
100
AcDbEntity
  8
Ceco.NET 10
  6
Continuous
100
AcDbLine
 10
1.211946750246997
 20
0.1171960817330798
 30
0.0
 11
1.224874583878337
 21
0.1188072413108727
 31
0.0
  0
LINE
  5
16F
330
2D
100
AcDbEntity
  8
Ceco.NET 10
  6
Continuous
100
AcDbLine
 10
0.8912143824839317
 20
0.1765424367976261
 30
0.0
 11
0.8888688020255525
 21
0.1762413315641621
 31
0.0
  0
LINE
  5
170
330
2D
100
AcDbEntity
  8
Ceco.NET 10
  6
Continuous
100
AcDbLine
 10
0.9474601608403069
 20
0.1898019653860088
 30
0.0
 11
0.9418959366456013
 21
0.1890050740090949
 31
0.0
  0
LINE
  5
171
330
2D
100
AcDbEntity
  8
Ceco.NET 10
  6
Continuous
100
AcDbLine
 10
0.9566913019791167
 20
0.1344717618816044
 30
0.0
 11
0.9628759509020142
 21
0.1353636791298643
 31
0.0
  0
LINE
  5
172
330
2D
100
AcDbEntity
  8
Ceco.NET 10
  6
Continuous
100
AcDbLine
 10
0.9418959366456013
 20
0.1890050740090949
 30
0.0
 11
0.9363567192591446
 21
0.1880876614474946
 31
0.0
  0
LINE
  5
173
330
2D
100
AcDbEntity
  8
Ceco.NET 10
  6
Continuous
100
AcDbLine
 10
1.219228000051441
 20
0.17498696680025
 30
0.0
 11
1.207337274360161
 21
0.1729331983475253
 31
0.0
  0
LINE
  5
174
330
2D
100
AcDbEntity
  8
Ceco.NET 10
  6
Continuous
100
AcDbLine
 10
0.950531508660511
 20
0.1333875597245207
 30
0.0
 11
0.9566913019791167
 21
0.1344717618816044
 31
0.0
  0
LINE
  5
175
330
2D
100
AcDbEntity
  8
Ceco.NET 10
  6
Continuous
100
AcDbLine
 10
1.224874583878337
 20
0.1188072413108727
 30
0.0
 11
1.237799916828852
 21
0.1211045877070153
 31
0.0
  0
LINE
  5
176
330
2D
100
AcDbEntity
  8
Ceco.NET 10
  6
Continuous
100
AcDbLine
 10
0.8935275471401759
 20
0.1769713907921469
 30
0.0
 11
0.8912143824839317
 21
0.1765424367976261
 31
0.0
  0
LINE
  5
177
330
2D
100
AcDbEntity
  8
Ceco.NET 10
  6
Continuous
100
AcDbLine
 10
0.9363567192591446
 20
0.1880876614474946
 30
0.0
 11
0.9308425203120103
 21
0.1870497509633556
 31
0.0
  0
LINE
  5
178
330
2D
100
AcDbEntity
  8
Ceco.NET 10
  6
Continuous
100
AcDbLine
 10
0.9444160064701897
 20
0.1321147713400196
 30
0.0
 11
0.950531508660511
 21
0.1333875597245207
 31
0.0
  0
LINE
  5
179
330
2D
100
AcDbEntity
  8
Ceco.NET 10
  6
Continuous
100
AcDbLine
 10
0.9308425203120103
 20
0.1870497509633556
 30
0.0
 11
0.9253517463471149
 21
0.185891005255543
 31
0.0
  0
LINE
  5
17A
330
2D
100
AcDbEntity
  8
Ceco.NET 10
  6
Continuous
100
AcDbLine
 10
1.237799916828852
 20
0.1211045877070153
 30
0.0
 11
1.2506676875961
 21
0.1240785718100787
 31
0.0
  0
LINE
  5
17B
330
2D
100
AcDbEntity
  8
Ceco.NET 10
  6
Continuous
100
AcDbLine
 10
0.9253517463471149
 20
0.185891005255543
 30
0.0
 11
0.9198859908215419
 21
0.1846117383630445
 31
0.0
  0
LINE
  5
17C
330
2D
100
AcDbEntity
  8
Ceco.NET 10
  6
Continuous
100
AcDbLine
 10
1.231018105324971
 20
0.1777754585414746
 30
0.0
 11
1.219228000051441
 21
0.17498696680025
 31
0.0
  0
LINE
  5
17D
330
2D
100
AcDbEntity
  8
Ceco.NET 10
  6
Continuous
100
AcDbLine
 10
0.9383512622850771
 20
0.1306546296219031
 30
0.0
 11
0.9444160064701897
 21
0.1321147713400196
 31
0.0
  0
LINE
  5
17E
330
2D
100
AcDbEntity
  8
Ceco.NET 10
  6
Continuous
100
AcDbLine
 10
0.8958082959942856
 20
0.1775281935477243
 30
0.0
 11
0.8935275471401759
 21
0.1769713907921469
 31
0.0
  0
LINE
  5
17F
330
2D
100
AcDbEntity
  8
Ceco.NET 10
  6
Continuous
100
AcDbLine
 10
0.9198859908215419
 20
0.1846117383630445
 30
0.0
 11
0.9144499759511749
 21
0.183212938927116
 31
0.0
  0
LINE
  5
180
330
2D
100
AcDbEntity
  8
Ceco.NET 10
  6
Continuous
100
AcDbLine
 10
0.9323307975971756
 20
0.129005901676369
 30
0.0
 11
0.9383512622850771
 21
0.1306546296219031
 31
0.0
  0
LINE
  5
181
330
2D
100
AcDbEntity
  8
Ceco.NET 10
  6
Continuous
100
AcDbLine
 10
0.8960997241745108
 20
0.1776091341889355
 30
0.0
 11
0.8958082959942856
 21
0.1775281935477243
 31
0.0
  0
LINE
  5
182
330
2D
100
AcDbEntity
  8
Ceco.NET 10
  6
Continuous
100
AcDbLine
 10
0.9144499759511749
 20
0.183212938927116
 30
0.0
 11
0.9090452602998766
 21
0.1816949093556715
 31
0.0
  0
LINE
  5
183
330
2D
100
AcDbEntity
  8
Ceco.NET 10
  6
Continuous
100
AcDbLine
 10
0.8963877328190966
 20
0.1776911448889182
 30
0.0
 11
0.8960997241745108
 21
0.1776091341889355
 31
0.0
  0
LINE
  5
184
330
2D
100
AcDbEntity
  8
Ceco.NET 10
  6
Continuous
100
AcDbLine
 10
0.8966723102969691
 20
0.1777742489098199
 30
0.0
 11
0.8963877328190966
 21
0.1776911448889182
 31
0.0
  0
LINE
  5
185
330
2D
100
AcDbEntity
  8
Ceco.NET 10
  6
Continuous
100
AcDbLine
 10
0.9179849383652395
 20
0.1245071536102441
 30
0.0
 11
0.9211891479392237
 21
0.1254639722492151
 31
0.0
  0
LINE
  5
186
330
2D
100
AcDbEntity
  8
Ceco.NET 10
  6
Continuous
100
AcDbLine
 10
0.8969528168990803
 20
0.1778582601544627
 30
0.0
 11
0.8966723102969691
 21
0.1777742489098199
 31
0.0
  0
LINE
  5
187
330
2D
100
AcDbEntity
  8
Ceco.NET 10
  6
Continuous
100
AcDbLine
 10
1.242575182038842
 20
0.1812664787594629
 30
0.0
 11
1.231018105324971
 21
0.1777754585414746
 31
0.0
  0
LINE
  5
188
330
2D
100
AcDbEntity
  8
Ceco.NET 10
  6
Continuous
100
AcDbLine
 10
0.9090452602998766
 20
0.1816949093556715
 30
0.0
 11
0.9036702736727098
 21
0.1800573239786501
 31
0.0
  0
LINE
  5
189
330
2D
100
AcDbEntity
  8
Ceco.NET 10
  6
Continuous
100
AcDbLine
 10
0.8972298923344782
 20
0.1779433530889504
 30
0.0
 11
0.8969528168990803
 21
0.1778582601544627
 31
0.0
  0
LINE
  5
18A
330
2D
100
AcDbEntity
  8
Ceco.NET 10
  6
Continuous
100
AcDbLine
 10
0.9263546124064848
 20
0.1271685991344908
 30
0.0
 11
0.9323307975971756
 21
0.129005901676369
 31
0.0
  0
LINE
  5
18B
330
2D
100
AcDbEntity
  8
Ceco.NET 10
  6
Continuous
100
AcDbLine
 10
0.8975054557303074
 20
0.1780300394805223
 30
0.0
 11
0.8972298923344782
 21
0.1779433530889504
 31
0.0
  0
LINE
  5
18C
330
2D
100
AcDbEntity
  8
Ceco.NET 10
  6
Continuous
100
AcDbLine
 10
0.8977801584266902
 20
0.1781184937952815
 30
0.0
 11
0.8975054557303074
 21
0.1780300394805223
 31
0.0
  0
LINE
  5
18D
330
2D
100
AcDbEntity
  8
Ceco.NET 10
  6
Continuous
100
AcDbLine
 10
0.9211891479392237
 20
0.1254639722492151
 30
0.0
 11
0.9235717268427375
 21
0.1262421608597739
 31
0.0
  0
LINE
  5
18E
330
2D
100
AcDbEntity
  8
Ceco.NET 10
  6
Continuous
100
AcDbLine
 10
0.9254210675457958
 20
0.1268627949472908
 30
0.0
 11
0.9263546124064848
 21
0.1271685991344908
 31
0.0
  0
LINE
  5
18F
330
2D
100
AcDbEntity
  8
Ceco.NET 10
  6
Continuous
100
AcDbLine
 10
0.9036702736727098
 20
0.1800573239786501
 30
0.0
 11
0.8983250277007496
 21
0.1783001944271256
 31
0.0
  0
LINE
  5
190
330
2D
100
AcDbEntity
  8
Ceco.NET 10
  6
Continuous
100
AcDbLine
 10
0.8980533490835039
 20
0.1782085415671249
 30
0.0
 11
0.8977801584266902
 21
0.1781184937952815
 31
0.0
  0
LINE
  5
191
330
2D
100
AcDbEntity
  8
Ceco.NET 10
  6
Continuous
100
AcDbLine
 10
0.9244934312704973
 20
0.1265539783120273
 30
0.0
 11
0.9254210675457958
 21
0.1268627949472908
 31
0.0
  0
LINE
  5
192
330
2D
100
AcDbEntity
  8
Ceco.NET 10
  6
Continuous
100
AcDbLine
 10
0.8983250277007496
 20
0.1783001944271256
 30
0.0
 11
0.8980533490835039
 21
0.1782085415671249
 31
0.0
  0
LINE
  5
193
330
2D
100
AcDbEntity
  8
Ceco.NET 10
  6
Continuous
100
AcDbLine
 10
0.9235717268427375
 20
0.1262421608597739
 30
0.0
 11
0.9244934312704973
 21
0.1265539783120273
 31
0.0
  0
LINE
  5
194
330
2D
100
AcDbEntity
  8
Ceco.NET 10
  6
Continuous
100
AcDbLine
 10
1.253901463359186
 20
0.1854696463520858
 30
0.0
 11
1.242575182038842
 21
0.1812664787594629
 31
0.0
  0
LINE
  5
195
330
2D
100
AcDbEntity
  8
Ceco.NET 10
  6
Continuous
100
AcDbLine
 10
1.258508543244859
 20
0.3101021131493409
 30
0.0
 11
1.260799143618312
 21
0.311016234117111
 31
0.0
  0
LINE
  5
196
330
2D
100
AcDbEntity
  8
Ceco.NET 10
  6
Continuous
100
AcDbLine
 10
1.264994704488797
 20
0.1903753540525459
 30
0.0
 11
1.253901463359186
 21
0.1854696463520858
 31
0.0
  0
LINE
  5
197
330
2D
100
AcDbEntity
  8
Ceco.NET 10
  6
Continuous
100
AcDbLine
 10
1.260799143618312
 20
0.311016234117111
 30
0.0
 11
1.26298991448702
 21
0.3121489960064919
 31
0.0
  0
LINE
  5
198
330
2D
100
AcDbEntity
  8
Ceco.NET 10
  6
Continuous
100
AcDbLine
 10
1.275715704738782
 20
0.1959226434040839
 30
0.0
 11
1.264994704488797
 21
0.1903753540525459
 31
0.0
  0
LINE
  5
199
330
2D
100
AcDbEntity
  8
Ceco.NET 10
  6
Continuous
100
AcDbLine
 10
1.237010085513616
 20
0.3571843385356204
 30
0.0
 11
1.234916538789165
 21
0.3558386814749894
 31
0.0
  0
LINE
  5
19A
330
2D
100
AcDbEntity
  8
Ceco.NET 10
  6
Continuous
100
AcDbLine
 10
1.26298991448702
 20
0.3121489960064919
 30
0.0
 11
1.265083472842544
 21
0.3134946530671231
 31
0.0
  0
LINE
  5
19B
330
2D
100
AcDbEntity
  8
Ceco.NET 10
  6
Continuous
100
AcDbLine
 10
1.234916538789165
 20
0.3558386814749894
 30
0.0
 11
1.232976219828375
 21
0.3543161623091336
 31
0.0
  0
LINE
  5
19C
330
2D
100
AcDbEntity
  8
Ceco.NET 10
  6
Continuous
100
AcDbLine
 10
1.265083472842544
 20
0.3134946530671231
 30
0.0
 11
1.267023791803334
 21
0.3150171838640523
 31
0.0
  0
LINE
  5
19D
330
2D
100
AcDbEntity
  8
Ceco.NET 10
  6
Continuous
100
AcDbLine
 10
1.232976219828375
 20
0.3543161623091336
 30
0.0
 11
1.231193280924523
 21
0.352611977404655
 31
0.0
  0
LINE
  5
19E
330
2D
100
AcDbEntity
  8
Ceco.NET 10
  6
Continuous
100
AcDbLine
 10
1.267023791803334
 20
0.3150171838640523
 30
0.0
 11
1.268806730707186
 21
0.3167213571374573
 31
0.0
  0
LINE
  5
19F
330
2D
100
AcDbEntity
  8
Ceco.NET 10
  6
Continuous
100
AcDbLine
 10
1.231193280924523
 20
0.352611977404655
 30
0.0
 11
1.229563581415405
 21
0.3507309187638783
 31
0.0
  0
LINE
  5
1A0
330
2D
100
AcDbEntity
  8
Ceco.NET 10
  6
Continuous
100
AcDbLine
 10
1.268806730707186
 20
0.3167213571374573
 30
0.0
 11
1.270436418585231
 21
0.3186024157782342
 31
0.0
  0
LINE
  5
1A1
330
2D
100
AcDbEntity
  8
Ceco.NET 10
  6
Continuous
100
AcDbLine
 10
1.229563581415405
 20
0.3507309187638783
 30
0.0
 11
1.228130737827037
 21
0.3487233256733619
 31
0.0
  0
LINE
  5
1A2
330
2D
100
AcDbEntity
  8
Ceco.NET 10
  6
Continuous
100
AcDbLine
 10
1.270436418585231
 20
0.3186024157782342
 30
0.0
 11
1.271869262173598
 21
0.3206100088687505
 31
0.0
  0
LINE
  5
1A3
330
2D
100
AcDbEntity
  8
Ceco.NET 10
  6
Continuous
100
AcDbLine
 10
1.228130737827037
 20
0.3487233256733619
 30
0.0
 11
1.226900077191131
 21
0.3465857902285402
 31
0.0
  0
LINE
  5
1A4
330
2D
100
AcDbEntity
  8
Ceco.NET 10
  6
Continuous
100
AcDbLine
 10
1.226900077191131
 20
0.3465857902285402
 30
0.0
 11
1.225866272475973
 21
0.344321720333979
 31
0.0
  0
LINE
  5
1A5
330
2D
100
AcDbEntity
  8
Ceco.NET 10
  6
Continuous
100
AcDbLine
 10
1.225866272475973
 20
0.344321720333979
 30
0.0
 11
1.225056982374597
 21
0.3419917138831558
 31
0.0
  0
LINE
  5
1A6
330
2D
100
AcDbEntity
  8
Ceco.NET 10
  6
Continuous
100
AcDbLine
 10
1.225056982374597
 20
0.3419917138831558
 30
0.0
 11
1.224481453590517
 21
0.3396159740509212
 31
0.0
  0
LINE
  5
1A7
330
2D
100
AcDbEntity
  8
Ceco.NET 10
  6
Continuous
100
AcDbLine
 10
1.224481453590517
 20
0.3396159740509212
 30
0.0
 11
1.224130439420218
 21
0.3371742860313512
 31
0.0
  0
LINE
  5
1A8
330
2D
100
AcDbEntity
  8
Ceco.NET 10
  6
Continuous
100
AcDbLine
 10
1.37550922294139
 20
0.3459437084412971
 30
0.0
 11
1.375389864864064
 21
0.3448413501783176
 31
0.0
  0
LINE
  5
1A9
330
2D
100
AcDbEntity
  8
Ceco.NET 10
  6
Continuous
100
AcDbLine
 10
1.375621614005627
 20
0.3470539293100333
 30
0.0
 11
1.37550922294139
 21
0.3459437084412971
 31
0.0
  0
LINE
  5
1AA
330
2D
100
AcDbEntity
  8
Ceco.NET 10
  6
Continuous
100
AcDbLine
 10
1.376193164962534
 20
0.3551648933811014
 30
0.0
 11
1.375621614005627
 21
0.3470539293100333
 31
0.0
  0
LINE
  5
1AB
330
2D
100
AcDbEntity
  8
Ceco.NET 10
  6
Continuous
100
AcDbLine
 10
1.275869560580418
 20
0.3321590485107611
 30
0.0
 11
1.275996036874789
 21
0.334666673086593
 31
0.0
  0
LINE
  5
1AC
330
2D
100
AcDbEntity
  8
Ceco.NET 10
  6
Continuous
100
AcDbLine
 10
1.376336378371822
 20
0.3632709840323296
 30
0.0
 11
1.376193164962534
 21
0.3551648933811014
 31
0.0
  0
LINE
  5
1AD
330
2D
100
AcDbEntity
  8
Ceco.NET 10
  6
Continuous
100
AcDbLine
 10
1.376051265864564
 20
0.3713722012637175
 30
0.0
 11
1.376336378371822
 21
0.3632709840323296
 31
0.0
  0
LINE
  5
1AE
330
2D
100
AcDbEntity
  8
Ceco.NET 10
  6
Continuous
100
AcDbLine
 10
1.275996036874789
 20
0.334666673086593
 30
0.0
 11
1.275869560580418
 21
0.3371742860313512
 31
0.0
  0
LINE
  5
1AF
330
2D
100
AcDbEntity
  8
Ceco.NET 10
  6
Continuous
100
AcDbLine
 10
1.375335350022081
 20
0.379501437751418
 30
0.0
 11
1.376051265864564
 21
0.3713722012637175
 31
0.0
  0
LINE
  5
1B0
330
2D
100
AcDbEntity
  8
Ceco.NET 10
  6
Continuous
100
AcDbLine
 10
1.374191085000906
 20
0.3876258008192781
 30
0.0
 11
1.375335350022081
 21
0.379501437751418
 31
0.0
  0
LINE
  5
1B1
330
2D
100
AcDbEntity
  8
Ceco.NET 10
  6
Continuous
100
AcDbLine
 10
1.275869560580418
 20
0.3371742860313512
 30
0.0
 11
1.275518558041192
 21
0.3396159740509212
 31
0.0
  0
LINE
  5
1B2
330
2D
100
AcDbEntity
  8
Ceco.NET 10
  6
Continuous
100
AcDbLine
 10
1.372625891425997
 20
0.3956466822252826
 30
0.0
 11
1.374191085000906
 21
0.3876258008192781
 31
0.0
  0
LINE
  5
1B3
330
2D
100
AcDbEntity
  8
Ceco.NET 10
  6
Continuous
100
AcDbLine
 10
1.275518558041192
 20
0.3396159740509212
 30
0.0
 11
1.274943017626038
 21
0.3419917138831558
 31
0.0
  0
LINE
  5
1B4
330
2D
100
AcDbEntity
  8
Ceco.NET 10
  6
Continuous
100
AcDbLine
 10
1.370636815004659
 20
0.4035475309516921
 30
0.0
 11
1.372625891425997
 21
0.3956466822252826
 31
0.0
  0
LINE
  5
1B5
330
2D
100
AcDbEntity
  8
Ceco.NET 10
  6
Continuous
100
AcDbLine
 10
1.368226786767439
 20
0.4113448980162455
 30
0.0
 11
1.370636815004659
 21
0.4035475309516921
 31
0.0
  0
LINE
  5
1B6
330
2D
100
AcDbEntity
  8
Ceco.NET 10
  6
Continuous
100
AcDbLine
 10
1.274943017626038
 20
0.3419917138831558
 30
0.0
 11
1.274133739155736
 21
0.344321720333979
 31
0.0
  0
LINE
  5
1B7
330
2D
100
AcDbEntity
  8
Ceco.NET 10
  6
Continuous
100
AcDbLine
 10
1.365412113479531
 20
0.4189898165990695
 30
0.0
 11
1.368226786767439
 21
0.4113448980162455
 31
0.0
  0
LINE
  5
1B8
330
2D
100
AcDbEntity
  8
Ceco.NET 10
  6
Continuous
100
AcDbLine
 10
1.362182885466225
 20
0.4264932664336462
 30
0.0
 11
1.365412113479531
 21
0.4189898165990695
 31
0.0
  0
LINE
  5
1B9
330
2D
100
AcDbEntity
  8
Ceco.NET 10
  6
Continuous
100
AcDbLine
 10
1.358548989140083
 20
0.4338442561554201
 30
0.0
 11
1.362182885466225
 21
0.4264932664336462
 31
0.0
  0
LINE
  5
1BA
330
2D
100
AcDbEntity
  8
Ceco.NET 10
  6
Continuous
100
AcDbLine
 10
1.354556413766137
 20
0.4409608681129966
 30
0.0
 11
1.358548989140083
 21
0.4338442561554201
 31
0.0
  0
LINE
  5
1BB
330
2D
100
AcDbEntity
  8
Ceco.NET 10
  6
Continuous
100
AcDbLine
 10
1.350220489099397
 20
0.4478157809144802
 30
0.0
 11
1.354556413766137
 21
0.4409608681129966
 31
0.0
  0
LINE
  5
1BC
330
2D
100
AcDbEntity
  8
Ceco.NET 10
  6
Continuous
100
AcDbLine
 10
1.345525873753778
 20
0.4544363159517665
 30
0.0
 11
1.350220489099397
 21
0.4478157809144802
 31
0.0
  0
LINE
  5
1BD
330
2D
100
AcDbEntity
  8
Ceco.NET 10
  6
Continuous
100
AcDbLine
 10
1.401161788396794
 20
0.4819422813549171
 30
0.0
 11
1.398558126046213
 21
0.4855740840878099
 31
0.0
  0
LINE
  5
1BE
330
2D
100
AcDbEntity
  8
Ceco.NET 10
  6
Continuous
100
AcDbLine
 10
1.398558126046213
 20
0.4855740840878099
 30
0.0
 11
1.395879292066928
 21
0.4891463822481441
 31
0.0
  0
LINE
  5
1BF
330
2D
100
AcDbEntity
  8
Ceco.NET 10
  6
Continuous
100
AcDbLine
 10
1.395879292066928
 20
0.4891463822481441
 30
0.0
 11
1.393124193138021
 21
0.4926605483026048
 31
0.0
  0
LINE
  5
1C0
330
2D
100
AcDbEntity
  8
Ceco.NET 10
  6
Continuous
100
AcDbLine
 10
1.340472579360355
 20
0.4608224615937824
 30
0.0
 11
1.345525873753778
 21
0.4544363159517665
 31
0.0
  0
LINE
  5
1C1
330
2D
100
AcDbEntity
  8
Ceco.NET 10
  6
Continuous
100
AcDbLine
 10
1.393124193138021
 20
0.4926605483026048
 30
0.0
 11
1.390292829259491
 21
0.4961165938822653
 31
0.0
  0
LINE
  5
1C2
330
2D
100
AcDbEntity
  8
Ceco.NET 10
  6
Continuous
100
AcDbLine
 10
1.336426454523536
 20
0.465629200488945
 30
0.0
 11
1.340472579360355
 21
0.4608224615937824
 31
0.0
  0
LINE
  5
1C3
330
2D
100
AcDbEntity
  8
Ceco.NET 10
  6
Continuous
100
AcDbLine
 10
1.332398764938379
 20
0.4703640477181601
 30
0.0
 11
1.336426454523536
 21
0.465629200488945
 31
0.0
  0
LINE
  5
1C4
330
2D
100
AcDbEntity
  8
Ceco.NET 10
  6
Continuous
100
AcDbLine
 10
1.328389522235958
 20
0.4750270149125016
 30
0.0
 11
1.332398764938379
 21
0.4703640477181601
 31
0.0
  0
LINE
  5
1C5
330
2D
100
AcDbEntity
  8
Ceco.NET 10
  6
Continuous
100
AcDbLine
 10
1.390292829259491
 20
0.4961165938822653
 30
0.0
 11
1.365840241667826
 21
0.5244291858709368
 31
0.0
  0
LINE
  5
1C6
330
2D
100
AcDbEntity
  8
Ceco.NET 10
  6
Continuous
100
AcDbLine
 10
1.324398714785199
 20
0.4796181020719697
 30
0.0
 11
1.328389522235958
 21
0.4750270149125016
 31
0.0
  0
LINE
  5
1C7
330
2D
100
AcDbEntity
  8
Ceco.NET 10
  6
Continuous
100
AcDbLine
 10
1.320426354217177
 20
0.4841373091965641
 30
0.0
 11
1.324398714785199
 21
0.4796181020719697
 31
0.0
  0
LINE
  5
1C8
330
2D
100
AcDbEntity
  8
Ceco.NET 10
  6
Continuous
100
AcDbLine
 10
1.316472440531891
 20
0.4885846362862849
 30
0.0
 11
1.320426354217177
 21
0.4841373091965641
 31
0.0
  0
LINE
  5
1C9
330
2D
100
AcDbEntity
  8
Ceco.NET 10
  6
Continuous
100
AcDbLine
 10
1.29415687661781
 20
0.5128326565554003
 30
0.0
 11
1.316472440531891
 21
0.4885846362862849
 31
0.0
  0
LINE
  5
1CA
330
2D
100
AcDbEntity
  8
Ceco.NET 10
  6
Continuous
100
AcDbLine
 10
1.365840241667826
 20
0.5244291858709368
 30
0.0
 11
1.340535259216008
 21
0.5519199959851809
 31
0.0
  0
LINE
  5
1CB
330
2D
100
AcDbEntity
  8
Ceco.NET 10
  6
Continuous
100
AcDbLine
 10
1.271131177504827
 20
0.5364227884082446
 30
0.0
 11
1.29415687661781
 21
0.5128326565554003
 31
0.0
  0
LINE
  5
1CC
330
2D
100
AcDbEntity
  8
Ceco.NET 10
  6
Continuous
100
AcDbLine
 10
1.340535259216008
 20
0.5519199959851809
 30
0.0
 11
1.314377847010816
 21
0.5785890125939245
 31
0.0
  0
LINE
  5
1CD
330
2D
100
AcDbEntity
  8
Ceco.NET 10
  6
Continuous
100
AcDbLine
 10
1.247395354824017
 20
0.5593550202137445
 30
0.0
 11
1.271131177504827
 21
0.5364227884082446
 31
0.0
  0
LINE
  5
1CE
330
2D
100
AcDbEntity
  8
Ceco.NET 10
  6
Continuous
100
AcDbLine
 10
1.314377847010816
 20
0.5785890125939245
 30
0.0
 11
1.287325598157889
 21
0.6044743390942948
 31
0.0
  0
LINE
  5
1CF
330
2D
100
AcDbEntity
  8
Ceco.NET 10
  6
Continuous
100
AcDbLine
 10
1.222913561606532
 20
0.581664163775197
 30
0.0
 11
1.247395354824017
 21
0.5593550202137445
 31
0.0
  0
LINE
  5
1D0
330
2D
100
AcDbEntity
  8
Ceco.NET 10
  6
Continuous
100
AcDbLine
 10
1.287325598157889
 20
0.6044743390942948
 30
0.0
 11
1.259420942813736
 21
0.6295378837202382
 31
0.0
  0
LINE
  5
1D1
330
2D
100
AcDbEntity
  8
Ceco.NET 10
  6
Continuous
100
AcDbLine
 10
1.19772164482122
 20
0.6033154072893047
 30
0.0
 11
1.222913561606532
 21
0.581664163775197
 31
0.0
  0
LINE
  5
1D2
330
2D
100
AcDbEntity
  8
Ceco.NET 10
  6
Continuous
100
AcDbLine
 10
1.259420942813736
 20
0.6295378837202382
 30
0.0
 11
1.230791148185733
 21
0.6536653013871523
 31
0.0
  0
LINE
  5
1D3
330
2D
100
AcDbEntity
  8
Ceco.NET 10
  6
Continuous
100
AcDbLine
 10
1.171927122112477
 20
0.6242043735015442
 30
0.0
 11
1.19772164482122
 21
0.6033154072893047
 31
0.0
  0
LINE
  5
1D4
330
2D
100
AcDbEntity
  8
Ceco.NET 10
  6
Continuous
100
AcDbLine
 10
1.230791148185733
 20
0.6536653013871523
 30
0.0
 11
1.201456475604098
 21
0.6768322715201308
 31
0.0
  0
LINE
  5
1D5
330
2D
100
AcDbEntity
  8
Ceco.NET 10
  6
Continuous
100
AcDbLine
 10
1.145544032186144
 20
0.644316686404941
 30
0.0
 11
1.171927122112477
 21
0.6242043735015442
 31
0.0
  0
LINE
  5
1D6
330
2D
100
AcDbEntity
  8
Ceco.NET 10
  6
Continuous
100
AcDbLine
 10
1.201456475604098
 20
0.6768322715201308
 30
0.0
 11
1.171396675369686
 21
0.69906311469408
 31
0.0
  0
LINE
  5
1D7
330
2D
100
AcDbEntity
  8
Ceco.NET 10
  6
Continuous
100
AcDbLine
 10
1.118558359598527
 20
0.6636667103753959
 30
0.0
 11
1.145544032186144
 21
0.644316686404941
 31
0.0
  0
LINE
  5
1D8
330
2D
100
AcDbEntity
  8
Ceco.NET 10
  6
Continuous
100
AcDbLine
 10
1.171396675369686
 20
0.69906311469408
 30
0.0
 11
1.140678312116734
 21
0.7203164010248221
 31
0.0
  0
LINE
  5
1D9
330
2D
100
AcDbEntity
  8
Ceco.NET 10
  6
Continuous
100
AcDbLine
 10
1.091035505876504
 20
0.6821931147617946
 30
0.0
 11
1.118558359598527
 21
0.6636667103753959
 31
0.0
  0
LINE
  5
1DA
330
2D
100
AcDbEntity
  8
Ceco.NET 10
  6
Continuous
100
AcDbLine
 10
1.140678312116734
 20
0.7203164010248221
 30
0.0
 11
1.109299606290982
 21
0.7405953639508189
 31
0.0
  0
LINE
  5
1DB
330
2D
100
AcDbEntity
  8
Ceco.NET 10
  6
Continuous
100
AcDbLine
 10
1.062971842125108
 20
0.6998869087442405
 30
0.0
 11
1.091035505876504
 21
0.6821931147617946
 31
0.0
  0
LINE
  5
1DC
330
2D
100
AcDbEntity
  8
Ceco.NET 10
  6
Continuous
100
AcDbLine
 10
1.109299606290982
 20
0.7405953639508189
 30
0.0
 11
1.077262337446688
 21
0.7598967584025351
 31
0.0
  0
LINE
  5
1DD
330
2D
100
AcDbEntity
  8
Ceco.NET 10
  6
Continuous
100
AcDbLine
 10
1.03437100887038
 20
0.7167570831426304
 30
0.0
 11
1.062971842125108
 21
0.6998869087442405
 31
0.0
  0
LINE
  5
1DE
330
2D
100
AcDbEntity
  8
Ceco.NET 10
  6
Continuous
100
AcDbLine
 10
1.077262337446688
 20
0.7598967584025351
 30
0.0
 11
1.044638339094435
 21
0.7781695123357747
 31
0.0
  0
LINE
  5
1DF
330
2D
100
AcDbEntity
  8
Ceco.NET 10
  6
Continuous
100
AcDbLine
 10
1.005309422265896
 20
0.732769314658758
 30
0.0
 11
1.03437100887038
 21
0.7167570831426304
 31
0.0
  0
LINE
  5
1E0
330
2D
100
AcDbEntity
  8
Ceco.NET 10
  6
Continuous
100
AcDbLine
 10
1.044638339094435
 20
0.7781695123357747
 30
0.0
 11
1.01140040615306
 21
0.7954211394240857
 31
0.0
  0
LINE
  5
1E1
330
2D
100
AcDbEntity
  8
Ceco.NET 10
  6
Continuous
100
AcDbLine
 10
0.9757596911333211
 20
0.747933245452641
 30
0.0
 11
1.005309422265896
 21
0.732769314658758
 31
0.0
  0
LINE
  5
1E2
330
2D
100
AcDbEntity
  8
Ceco.NET 10
  6
Continuous
100
AcDbLine
 10
1.01140040615306
 20
0.7954211394240857
 30
0.0
 11
0.9775757437037242
 21
0.811644102731773
 31
0.0
  0
LINE
  5
1E3
330
2D
100
AcDbEntity
  8
Ceco.NET 10
  6
Continuous
100
AcDbLine
 10
0.9457492066509907
 20
0.7622392333642618
 30
0.0
 11
0.9757596911333211
 21
0.747933245452641
 31
0.0
  0
LINE
  5
1E4
330
2D
100
AcDbEntity
  8
Ceco.NET 10
  6
Continuous
100
AcDbLine
 10
0.9154365585074991
 20
0.775624005353214
 30
0.0
 11
0.9457492066509907
 21
0.7622392333642618
 31
0.0
  0
LINE
  5
1E5
330
2D
100
AcDbEntity
  8
Ceco.NET 10
  6
Continuous
100
AcDbLine
 10
0.9775757437037242
 20
0.811644102731773
 30
0.0
 11
0.9433178819180021
 21
0.8267647426697013
 31
0.0
  0
LINE
  5
1E6
330
2D
100
AcDbEntity
  8
Ceco.NET 10
  6
Continuous
100
AcDbLine
 10
0.8578161657964018
 20
0.7990825990269148
 30
0.0
 11
0.9154365585074991
 21
0.775624005353214
 31
0.0
  0
LINE
  5
1E7
330
2D
100
AcDbEntity
  8
Ceco.NET 10
  6
Continuous
100
AcDbLine
 10
0.9433178819180021
 20
0.8267647426697013
 30
0.0
 11
0.9086779742576045
 21
0.8407585176725664
 31
0.0
  0
LINE
  5
1E8
330
2D
100
AcDbEntity
  8
Ceco.NET 10
  6
Continuous
100
AcDbLine
 10
0.9086779742576045
 20
0.8407585176725664
 30
0.0
 11
0.8736048672608212
 21
0.8536499693056725
 31
0.0
  0
LINE
  5
1E9
330
2D
100
AcDbEntity
  8
Ceco.NET 10
  6
Continuous
100
AcDbLine
 10
0.8736048672608212
 20
0.8536499693056725
 30
0.0
 11
0.8380985492965782
 21
0.8654390975690198
 31
0.0
  0
LINE
  5
1EA
330
2D
100
AcDbEntity
  8
Ceco.NET 10
  6
Continuous
100
AcDbLine
 10
0.8043930355652427
 20
0.8160468711785163
 30
0.0
 11
0.8578161657964018
 21
0.7990825990269148
 31
0.0
  0
LINE
  5
1EB
330
2D
100
AcDbEntity
  8
Ceco.NET 10
  6
Continuous
100
AcDbLine
 10
0.785310828695597
 20
0.8216761363368163
 30
0.0
 11
0.8043930355652427
 21
0.8160468711785163
 31
0.0
  0
LINE
  5
1EC
330
2D
100
AcDbEntity
  8
Ceco.NET 10
  6
Continuous
100
AcDbLine
 10
0.0
 20
0.0
 30
0.0
 11
1.5
 21
0.0
 31
0.0
  0
LINE
  5
1ED
330
2D
100
AcDbEntity
  8
Ceco.NET 10
  6
Continuous
100
AcDbLine
 10
1.2506676875961
 20
0.1240785718100787
 30
0.0
 11
1.26331275819705
 21
0.1277004764993346
 31
0.0
  0
LINE
  5
1EE
330
2D
100
AcDbEntity
  8
Ceco.NET 10
  6
Continuous
100
AcDbLine
 10
1.26331275819705
 20
0.1277004764993346
 30
0.0
 11
1.275704283024503
 21
0.131972081329044
 31
0.0
  0
LINE
  5
1EF
330
2D
100
AcDbEntity
  8
Ceco.NET 10
  6
Continuous
100
AcDbLine
 10
1.275704283024503
 20
0.131972081329044
 30
0.0
 11
1.287873107685657
 21
0.136891630007093
 31
0.0
  0
LINE
  5
1F0
330
2D
100
AcDbEntity
  8
Ceco.NET 10
  6
Continuous
100
AcDbLine
 10
1.287873107685657
 20
0.136891630007093
 30
0.0
 11
1.299746503077267
 21
0.1424250900121155
 31
0.0
  0
LINE
  5
1F1
330
2D
100
AcDbEntity
  8
Ceco.NET 10
  6
Continuous
100
AcDbLine
 10
1.299746503077267
 20
0.1424250900121155
 30
0.0
 11
1.311326783782978
 21
0.148572170567272
 31
0.0
  0
LINE
  5
1F2
330
2D
100
AcDbEntity
  8
Ceco.NET 10
  6
Continuous
100
AcDbLine
 10
1.2860464592072
 20
0.2021127007762075
 30
0.0
 11
1.275715704738782
 21
0.1959226434040839
 31
0.0
  0
LINE
  5
1F3
330
2D
100
AcDbEntity
  8
Ceco.NET 10
  6
Continuous
100
AcDbLine
 10
1.311326783782978
 20
0.148572170567272
 30
0.0
 11
1.322611646850218
 21
0.1553331857115492
 31
0.0
  0
LINE
  5
1F4
330
2D
100
AcDbEntity
  8
Ceco.NET 10
  6
Continuous
100
AcDbLine
 10
1.322611646850218
 20
0.1553331857115492
 30
0.0
 11
1.333521512473387
 21
0.1626751031959118
 31
0.0
  0
LINE
  5
1F5
330
2D
100
AcDbEntity
  8
Ceco.NET 10
  6
Continuous
100
AcDbLine
 10
1.296004984427066
 20
0.2089443397994089
 30
0.0
 11
1.2860464592072
 21
0.2021127007762075
 31
0.0
  0
LINE
  5
1F6
330
2D
100
AcDbEntity
  8
Ceco.NET 10
  6
Continuous
100
AcDbLine
 10
1.333521512473387
 20
0.1626751031959118
 30
0.0
 11
1.344072361747616
 21
0.1706237440037607
 31
0.0
  0
LINE
  5
1F7
330
2D
100
AcDbEntity
  8
Ceco.NET 10
  6
Continuous
100
AcDbLine
 10
1.305506001366712
 20
0.2163530080151857
 30
0.0
 11
1.296004984427066
 21
0.2089443397994089
 31
0.0
  0
LINE
  5
1F8
330
2D
100
AcDbEntity
  8
Ceco.NET 10
  6
Continuous
100
AcDbLine
 10
1.344072361747616
 20
0.1706237440037607
 30
0.0
 11
1.354248225208848
 21
0.1791532755206211
 31
0.0
  0
LINE
  5
1F9
330
2D
100
AcDbEntity
  8
Ceco.NET 10
  6
Continuous
100
AcDbLine
 10
1.314558535739256
 20
0.2243524649836112
 30
0.0
 11
1.305506001366712
 21
0.2163530080151857
 31
0.0
  0
LINE
  5
1FA
330
2D
100
AcDbEntity
  8
Ceco.NET 10
  6
Continuous
100
AcDbLine
 10
1.354248225208848
 20
0.1791532755206211
 30
0.0
 11
1.363921649552529
 21
0.1881531792851066
 31
0.0
  0
LINE
  5
1FB
330
2D
100
AcDbEntity
  8
Ceco.NET 10
  6
Continuous
100
AcDbLine
 10
1.323153585093729
 20
0.2329289627756851
 30
0.0
 11
1.314558535739256
 21
0.2243524649836112
 31
0.0
  0
LINE
  5
1FC
330
2D
100
AcDbEntity
  8
Ceco.NET 10
  6
Continuous
100
AcDbLine
 10
1.363921649552529
 20
0.1881531792851066
 30
0.0
 11
1.37306595309581
 21
0.1976083232704583
 31
0.0
  0
LINE
  5
1FD
330
2D
100
AcDbEntity
  8
Ceco.NET 10
  6
Continuous
100
AcDbLine
 10
1.33117890956985
 20
0.2419767284080514
 30
0.0
 11
1.323153585093729
 21
0.2329289627756851
 31
0.0
  0
LINE
  5
1FE
330
2D
100
AcDbEntity
  8
Ceco.NET 10
  6
Continuous
100
AcDbLine
 10
1.37306595309581
 20
0.1976083232704583
 30
0.0
 11
1.381707817521539
 21
0.2075338278723613
 31
0.0
  0
LINE
  5
1FF
330
2D
100
AcDbEntity
  8
Ceco.NET 10
  6
Continuous
100
AcDbLine
 10
1.381707817521539
 20
0.2075338278723613
 30
0.0
 11
1.389799776418338
 21
0.2178645358164855
 31
0.0
  0
LINE
  5
200
330
2D
100
AcDbEntity
  8
Ceco.NET 10
  6
Continuous
100
AcDbLine
 10
1.338622994404751
 20
0.2514929006366041
 30
0.0
 11
1.33117890956985
 21
0.2419767284080514
 31
0.0
  0
LINE
  5
201
330
2D
100
AcDbEntity
  8
Ceco.NET 10
  6
Continuous
100
AcDbLine
 10
1.345497365992375
 20
0.2614803407054492
 30
0.0
 11
1.338622994404751
 21
0.2514929006366041
 31
0.0
  0
LINE
  5
202
330
2D
100
AcDbEntity
  8
Ceco.NET 10
  6
Continuous
100
AcDbLine
 10
1.351724340392118
 20
0.2718419058878453
 30
0.0
 11
1.345497365992375
 21
0.2614803407054492
 31
0.0
  0
LINE
  5
203
330
2D
100
AcDbEntity
  8
Ceco.NET 10
  6
Continuous
100
AcDbLine
 10
1.271869262173598
 20
0.3206100088687505
 30
0.0
 11
1.273099934440579
 21
0.3227475443135721
 31
0.0
  0
LINE
  5
204
330
2D
100
AcDbEntity
  8
Ceco.NET 10
  6
Continuous
100
AcDbLine
 10
1.357296310881844
 20
0.282588285140434
 30
0.0
 11
1.351724340392118
 21
0.2718419058878453
 31
0.0
  0
LINE
  5
205
330
2D
100
AcDbEntity
  8
Ceco.NET 10
  6
Continuous
100
AcDbLine
 10
1.273099934440579
 20
0.3227475443135721
 30
0.0
 11
1.274133739155736
 21
0.3250116142081335
 31
0.0
  0
LINE
  5
206
330
2D
100
AcDbEntity
  8
Ceco.NET 10
  6
Continuous
100
AcDbLine
 10
1.362220895814763
 20
0.2937087778755
 30
0.0
 11
1.357296310881844
 21
0.282588285140434
 31
0.0
  0
LINE
  5
207
330
2D
100
AcDbEntity
  8
Ceco.NET 10
  6
Continuous
100
AcDbLine
 10
1.366443324465274
 20
0.3050741628653013
 30
0.0
 11
1.362220895814763
 21
0.2937087778755
 31
0.0
  0
LINE
  5
208
330
2D
100
AcDbEntity
  8
Ceco.NET 10
  6
Continuous
100
AcDbLine
 10
1.274133739155736
 20
0.3250116142081335
 30
0.0
 11
1.274943017626038
 21
0.3273416206589566
 31
0.0
  0
LINE
  5
209
330
2D
100
AcDbEntity
  8
Ceco.NET 10
  6
Continuous
100
AcDbLine
 10
1.369945336047819
 20
0.3166413702442816
 30
0.0
 11
1.366443324465274
 21
0.3050741628653013
 31
0.0
  0
LINE
  5
20A
330
2D
100
AcDbEntity
  8
Ceco.NET 10
  6
Continuous
100
AcDbLine
 10
1.274943017626038
 20
0.3273416206589566
 30
0.0
 11
1.275518558041192
 21
0.3297173721222647
 31
0.0
  0
LINE
  5
20B
330
2D
100
AcDbEntity
  8
Ceco.NET 10
  6
Continuous
100
AcDbLine
 10
1.372745191347955
 20
0.3284534815090708
 30
0.0
 11
1.369945336047819
 21
0.3166413702442816
 31
0.0
  0
LINE
  5
20C
330
2D
100
AcDbEntity
  8
Ceco.NET 10
  6
Continuous
100
AcDbLine
 10
1.374842890365682
 20
0.3405104850285951
 30
0.0
 11
1.372745191347955
 21
0.3284534815090708
 31
0.0
  0
LINE
  5
20D
330
2D
100
AcDbEntity
  8
Ceco.NET 10
  6
Continuous
100
AcDbLine
 10
1.275518558041192
 20
0.3297173721222647
 30
0.0
 11
1.275869560580418
 21
0.3321590485107611
 31
0.0
  0
LINE
  5
20E
330
2D
100
AcDbEntity
  8
Ceco.NET 10
  6
Continuous
100
AcDbLine
 10
1.374990069971069
 20
0.3415814161306962
 30
0.0
 11
1.374842890365682
 21
0.3405104850285951
 31
0.0
  0
LINE
  5
20F
330
2D
100
AcDbEntity
  8
Ceco.NET 10
  6
Continuous
100
AcDbLine
 10
1.375130294194441
 20
0.3426601982074802
 30
0.0
 11
1.374990069971069
 21
0.3415814161306962
 31
0.0
  0
LINE
  5
210
330
2D
100
AcDbEntity
  8
Ceco.NET 10
  6
Continuous
100
AcDbLine
 10
1.375263563035797
 20
0.3437468428900207
 30
0.0
 11
1.375130294194441
 21
0.3426601982074802
 31
0.0
  0
LINE
  5
211
330
2D
100
AcDbEntity
  8
Ceco.NET 10
  6
Continuous
100
AcDbLine
 10
1.375389864864064
 20
0.3448413501783176
 30
0.0
 11
1.375263563035797
 21
0.3437468428900207
 31
0.0
  0
LINE
  5
212
330
2D
100
AcDbEntity
  8
Ceco.NET 10
  6
Continuous
100
AcDbLine
 10
1.438221552551606
 20
0.344044412277109
 30
0.0
 11
1.43888425623235
 21
0.3552137322591652
 31
0.0
  0
LINE
  5
213
330
2D
100
AcDbEntity
  8
Ceco.NET 10
  6
Continuous
100
AcDbLine
 10
1.43888425623235
 20
0.3552137322591652
 30
0.0
 11
1.438948215506099
 21
0.3663769808208
 31
0.0
  0
LINE
  5
214
330
2D
100
AcDbEntity
  8
Ceco.NET 10
  6
Continuous
100
AcDbLine
 10
1.5
 20
0.5350000056985445
 30
0.0
 11
1.5
 21
0.0
 31
0.0
  0
LINE
  5
215
330
2D
100
AcDbEntity
  8
Ceco.NET 10
  6
Continuous
100
AcDbLine
 10
1.438948215506099
 20
0.3663769808208
 30
0.0
 11
1.438411464721415
 21
0.3775682021144531
 31
0.0
  0
LINE
  5
216
330
2D
100
AcDbEntity
  8
Ceco.NET 10
  6
Continuous
100
AcDbLine
 10
1.438411464721415
 20
0.3775682021144531
 30
0.0
 11
1.43727598116081
 21
0.3887533519876844
 31
0.0
  0
LINE
  5
217
330
2D
100
AcDbEntity
  8
Ceco.NET 10
  6
Continuous
100
AcDbLine
 10
1.43727598116081
 20
0.3887533519876844
 30
0.0
 11
1.435547719933971
 21
0.399830344507471
 31
0.0
  0
LINE
  5
218
330
2D
100
AcDbEntity
  8
Ceco.NET 10
  6
Continuous
100
AcDbLine
 10
1.435547719933971
 20
0.399830344507471
 30
0.0
 11
1.433219109211981
 21
0.4107969930319752
 31
0.0
  0
LINE
  5
219
330
2D
100
AcDbEntity
  8
Ceco.NET 10
  6
Continuous
100
AcDbLine
 10
1.433219109211981
 20
0.4107969930319752
 30
0.0
 11
1.430297720823755
 21
0.4216554842030343
 31
0.0
  0
LINE
  5
21A
330
2D
100
AcDbEntity
  8
Ceco.NET 10
  6
Continuous
100
AcDbLine
 10
1.430297720823755
 20
0.4216554842030343
 30
0.0
 11
1.426812236996803
 21
0.4323102454888434
 31
0.0
  0
LINE
  5
21B
330
2D
100
AcDbEntity
  8
Ceco.NET 10
  6
Continuous
100
AcDbLine
 10
1.426812236996803
 20
0.4323102454888434
 30
0.0
 11
1.422772195211478
 21
0.4427294542720213
 31
0.0
  0
LINE
  5
21C
330
2D
100
AcDbEntity
  8
Ceco.NET 10
  6
Continuous
100
AcDbLine
 10
1.422772195211478
 20
0.4427294542720213
 30
0.0
 11
1.418168046356352
 21
0.4529449331699494
 31
0.0
  0
LINE
  5
21D
330
2D
100
AcDbEntity
  8
Ceco.NET 10
  6
Continuous
100
AcDbLine
 10
1.418168046356352
 20
0.4529449331699494
 30
0.0
 11
1.4129998020625
 21
0.4629566938137007
 31
0.0
  0
LINE
  5
21E
330
2D
100
AcDbEntity
  8
Ceco.NET 10
  6
Continuous
100
AcDbLine
 10
1.4129998020625
 20
0.4629566938137007
 30
0.0
 11
1.410791782311637
 21
0.4668612801158316
 31
0.0
  0
LINE
  5
21F
330
2D
100
AcDbEntity
  8
Ceco.NET 10
  6
Continuous
100
AcDbLine
 10
1.410791782311637
 20
0.4668612801158316
 30
0.0
 11
1.408504194386248
 21
0.4707118517121447
 31
0.0
  0
LINE
  5
220
330
2D
100
AcDbEntity
  8
Ceco.NET 10
  6
Continuous
100
AcDbLine
 10
1.408504194386248
 20
0.4707118517121447
 30
0.0
 11
1.406137038286333
 21
0.4745084086026401
 31
0.0
  0
LINE
  5
221
330
2D
100
AcDbEntity
  8
Ceco.NET 10
  6
Continuous
100
AcDbLine
 10
1.406137038286333
 20
0.4745084086026401
 30
0.0
 11
1.403689197428827
 21
0.4782523465161506
 31
0.0
  0
LINE
  5
222
330
2D
100
AcDbEntity
  8
Ceco.NET 10
  6
Continuous
100
AcDbLine
 10
1.403689197428827
 20
0.4782523465161506
 30
0.0
 11
1.401161788396794
 21
0.4819422813549171
 31
0.0
  0
LINE
  5
223
330
2D
100
AcDbEntity
  8
Ceco.NET 10
  6
Continuous
100
AcDbLine
 10
0.8380985492965782
 20
0.8654390975690198
 30
0.0
 11
0.8227450320029474
 21
0.8701732818270395
 31
0.0
  0
LINE
  5
224
330
2D
100
AcDbEntity
  8
Ceco.NET 10
  6
Continuous
100
AcDbLine
 10
0.8227450320029474
 20
0.8701732818270395
 30
0.0
 11
0.8070069797848903
 21
0.8747628220537182
 31
0.0
  0
LINE
  5
225
330
2D
100
AcDbEntity
  8
Ceco.NET 10
  6
Continuous
100
AcDbLine
 10
1.389799776418338
 20
0.2178645358164855
 30
0.0
 11
1.397342946369273
 21
0.2286015985791173
 31
0.0
  0
LINE
  5
226
330
2D
100
AcDbEntity
  8
Ceco.NET 10
  6
Continuous
100
AcDbLine
 10
1.397342946369273
 20
0.2286015985791173
 30
0.0
 11
1.404336210791278
 21
0.2397438646839702
 31
0.0
  0
LINE
  5
227
330
2D
100
AcDbEntity
  8
Ceco.NET 10
  6
Continuous
100
AcDbLine
 10
1.404336210791278
 20
0.2397438646839702
 30
0.0
 11
1.410728893096659
 21
0.2512227456900008
 31
0.0
  0
LINE
  5
228
330
2D
100
AcDbEntity
  8
Ceco.NET 10
  6
Continuous
100
AcDbLine
 10
1.410728893096659
 20
0.2512227456900008
 30
0.0
 11
1.416524215092805
 21
0.2630682962914018
 31
0.0
  0
LINE
  5
229
330
2D
100
AcDbEntity
  8
Ceco.NET 10
  6
Continuous
100
AcDbLine
 10
1.416524215092805
 20
0.2630682962914018
 30
0.0
 11
1.421718943341255
 21
0.2752504734250538
 31
0.0
  0
LINE
  5
22A
330
2D
100
AcDbEntity
  8
Ceco.NET 10
  6
Continuous
100
AcDbLine
 10
1.421718943341255
 20
0.2752504734250538
 30
0.0
 11
1.426252724201075
 21
0.287610466411966
 31
0.0
  0
LINE
  5
22B
330
2D
100
AcDbEntity
  8
Ceco.NET 10
  6
Continuous
100
AcDbLine
 10
1.426252724201075
 20
0.287610466411966
 30
0.0
 11
1.430105424283858
 21
0.3000953538672392
 31
0.0
  0
LINE
  5
22C
330
2D
100
AcDbEntity
  8
Ceco.NET 10
  6
Continuous
100
AcDbLine
 10
1.430105424283858
 20
0.3000953538672392
 30
0.0
 11
1.433297165346938
 21
0.3127580804379201
 31
0.0
  0
LINE
  5
22D
330
2D
100
AcDbEntity
  8
Ceco.NET 10
  6
Continuous
100
AcDbLine
 10
1.433297165346938
 20
0.3127580804379201
 30
0.0
 11
1.43582795902139
 21
0.3255986112307871
 31
0.0
  0
LINE
  5
22E
330
2D
100
AcDbEntity
  8
Ceco.NET 10
  6
Continuous
100
AcDbLine
 10
1.43582795902139
 20
0.3255986112307871
 30
0.0
 11
1.436030165235997
 21
0.3268009153092472
 31
0.0
  0
LINE
  5
22F
330
2D
100
AcDbEntity
  8
Ceco.NET 10
  6
Continuous
100
AcDbLine
 10
1.436030165235997
 20
0.3268009153092472
 30
0.0
 11
1.436226963001379
 21
0.3280069878555549
 31
0.0
  0
LINE
  5
230
330
2D
100
AcDbEntity
  8
Ceco.NET 10
  6
Continuous
100
AcDbLine
 10
1.436226963001379
 20
0.3280069878555549
 30
0.0
 11
1.436418363948609
 21
0.3292168405007842
 31
0.0
  0
LINE
  5
231
330
2D
100
AcDbEntity
  8
Ceco.NET 10
  6
Continuous
100
AcDbLine
 10
1.436418363948609
 20
0.3292168405007842
 30
0.0
 11
1.436604356446613
 21
0.330430461613861
 31
0.0
  0
LINE
  5
232
330
2D
100
AcDbEntity
  8
Ceco.NET 10
  6
Continuous
100
AcDbLine
 10
1.436604356446613
 20
0.330430461613861
 30
0.0
 11
1.436784940495391
 21
0.3316478511947855
 31
0.0
  0
LINE
  5
233
330
2D
100
AcDbEntity
  8
Ceco.NET 10
  6
Continuous
100
AcDbLine
 10
1.436784940495391
 20
0.3316478511947855
 30
0.0
 11
1.436960116094943
 21
0.3328690208746314
 31
0.0
  0
LINE
  5
234
330
2D
100
AcDbEntity
  8
Ceco.NET 10
  6
Continuous
100
AcDbLine
 10
1.436960116094943
 20
0.3328690208746314
 30
0.0
 11
1.438221552551606
 21
0.344044412277109
 31
0.0
  0
ARC
  5
235
330
2D
100
AcDbEntity
  8
Ceco.NET 10
  6
Continuous
100
AcDbCircle
 10
0.0150000024425063
 20
0.8549999996499789
 30
0.0
 40
0.0150000024425064
100
AcDbArc
 50
90.00000000000007
 51
180.0
  0
ARC
  5
236
330
2D
100
AcDbEntity
  8
Ceco.NET 10
  6
Continuous
100
AcDbCircle
 10
0.0320000028844652
 20
0.9200000102341729
 30
0.0
 40
0.0499999965106142
100
AcDbArc
 50
270.0
 51
301.376075
  0
ARC
  5
237
330
2D
100
AcDbEntity
  8
Ceco.NET 10
  6
Continuous
100
AcDbCircle
 10
0.4948606705547394
 20
0.161000007606517
 30
0.0
 40
0.8390000040232827
100
AcDbArc
 50
90.00000000000007
 51
121.376075
  0
ARC
  5
238
330
2D
100
AcDbEntity
  8
Ceco.NET 10
  6
Continuous
100
AcDbCircle
 10
0.4948606705547393
 20
-0.2380628256159638
 30
0.0
 40
1.238062837245763
100
AcDbArc
 50
40.58973400000001
 51
90.00000000000007
  0
ARC
  5
239
330
2D
100
AcDbEntity
  8
Ceco.NET 10
  6
Continuous
100
AcDbCircle
 10
1.472999997929703
 20
0.6000000046516653
 30
0.0
 40
0.0499999965106142
100
AcDbArc
 50
220.589734
 51
270.0
  0
ARC
  5
23A
330
2D
100
AcDbEntity
  8
Ceco.NET 10
  6
Continuous
100
AcDbCircle
 10
1.484999997557493
 20
0.5350000056985445
 30
0.0
 40
0.0150000024425064
100
AcDbArc
 50
0.0
 51
90.00000000000007
  0
ARC
  5
23B
330
2D
100
AcDbEntity
  8
Ceco.NET 10
  6
Continuous
100
AcDbCircle
 10
0.4102959380140929
 20
0.5697383521195997
 30
0.0
 40
0.2411777230433538
100
AcDbArc
 50
141.7115056077797
 51
212.4667859149881
  0
LINE
  5
23C
330
2D
100
AcDbEntity
  8
Ceco.NET 10
  6
Continuous
100
AcDbLine
 10
0.1879890336525608
 20
0.3984581383136252
 30
0.0
 11
0.1995467622403459
 21
0.4061120553155521
 31
0.0
  0
LINE
  5
23D
330
2D
100
AcDbEntity
  8
Ceco.NET 10
  6
Continuous
100
AcDbLine
 10
0.2000188690600618
 20
0.7669789263765383
 30
0.0
 11
0.2164976393997615
 21
0.754475982380415
 31
0.0
  0
ARC
  5
23E
330
2D
100
AcDbEntity
  8
Ceco.NET 10
  6
Continuous
100
AcDbCircle
 10
0.3275175988028359
 20
0.5783417127069538
 30
0.0
 40
0.2458573834019759
100
AcDbArc
 50
130.1865393814205
 51
226.0661143901538
  0
ARC
  5
23F
330
2D
100
AcDbEntity
  8
Ceco.NET 10
  6
Continuous
100
AcDbCircle
 10
0.2014326918472594
 20
0.7346205138624184
 30
0.0
 40
0.0249237291517299
100
AcDbArc
 50
321.7115056077801
 51
52.81130399843788
  0
ARC
  5
240
330
2D
100
AcDbEntity
  8
Ceco.NET 10
  6
Continuous
100
AcDbCircle
 10
0.1849539215075597
 20
0.7471234578585417
 30
0.0
 40
0.0249237291517299
100
AcDbArc
 50
52.81130399843788
 51
130.1865393814201
  0
ARC
  5
241
330
2D
100
AcDbEntity
  8
Ceco.NET 10
  6
Continuous
100
AcDbCircle
 10
0.1742276760282998
 20
0.4192383527294098
 30
0.0
 40
0.0249237291517299
100
AcDbArc
 50
226.0661143901538
 51
303.5138668983741
  0
ARC
  5
242
330
2D
100
AcDbEntity
  8
Ceco.NET 10
  6
Continuous
100
AcDbCircle
 10
0.1857854046160849
 20
0.4268922697313368
 30
0.0
 40
0.0249237291517299
100
AcDbArc
 50
303.5138668983741
 51
32.46678591498819
  0
ENDBLK
  5
244
330
2D
100
AcDbEntity
  8
0
100
AcDbBlockEnd
  0
ENDSEC
  0
SECTION
  2
ENTITIES
  0
INSERT
  5
245
330
1F
100
AcDbEntity
  8
Ceco.NET 10
100
AcDbBlockReference
  2
jacuzz 10Tm
 10
0.0
 20
0.0
 30
0.0
  0
ENDSEC
  0
SECTION
  2
OBJECTS
  0
DICTIONARY
  5
C
330
0
100
AcDbDictionary
281
     1
  3
ACAD_GROUP
350
D
  3
ACAD_LAYOUT
350
1A
  3
ACAD_MLINESTYLE
350
17
  3
ACAD_PLOTSETTINGS
350
19
  3
ACAD_PLOTSTYLENAME
350
E
  3
AcDbVariableDictionary
350
247
  0
DICTIONARY
  5
D
102
{ACAD_REACTORS
330
C
102
}
330
C
100
AcDbDictionary
281
     1
  0
DICTIONARY
  5
1A
102
{ACAD_REACTORS
330
C
102
}
330
C
100
AcDbDictionary
281
     1
  3
Layout1
350
1E
  3
Layout2
350
26
  3
Model
350
22
  0
DICTIONARY
  5
17
102
{ACAD_REACTORS
330
C
102
}
330
C
100
AcDbDictionary
281
     1
  3
Standard
350
18
  0
DICTIONARY
  5
19
102
{ACAD_REACTORS
330
C
102
}
330
C
100
AcDbDictionary
281
     1
  0
ACDBDICTIONARYWDFLT
  5
E
102
{ACAD_REACTORS
330
C
102
}
330
C
100
AcDbDictionary
281
     1
  3
Normal
350
F
100
AcDbDictionaryWithDefault
340
F
  0
DICTIONARY
  5
247
102
{ACAD_REACTORS
330
C
102
}
330
C
100
AcDbDictionary
281
     1
  3
DIMASSOC
350
249
  3
HIDETEXT
350
248
  0
LAYOUT
  5
1E
102
{ACAD_REACTORS
330
1A
102
}
330
1A
100
AcDbPlotSettings
  1

  2
Microsoft Office Document Image Writer
  4

  6

 40
0.0
 41
0.0
 42
0.0
 43
0.0
 44
0.0
 45
0.0
 46
0.0
 47
0.0
 48
0.0
 49
0.0
140
0.0
141
0.0
142
1.0
143
1.0
 70
   688
 72
     0
 73
     0
 74
     5
  7

 75
    16
147
1.0
148
0.0
149
0.0
100
AcDbLayout
  1
Layout1
 70
     1
 71
     1
 10
0.0
 20
0.0
 11
420.0
 21
297.0
 12
0.0
 22
0.0
 32
0.0
 14
1.000000000000000E+20
 24
1.000000000000000E+20
 34
1.000000000000000E+20
 15
-1.000000000000000E+20
 25
-1.000000000000000E+20
 35
-1.000000000000000E+20
146
0.0
 13
0.0
 23
0.0
 33
0.0
 16
1.0
 26
0.0
 36
0.0
 17
0.0
 27
1.0
 37
0.0
 76
     0
330
1B
  0
LAYOUT
  5
26
102
{ACAD_REACTORS
330
1A
102
}
330
1A
100
AcDbPlotSettings
  1

  2
Microsoft Office Document Image Writer
  4

  6

 40
0.0
 41
0.0
 42
0.0
 43
0.0
 44
0.0
 45
0.0
 46
0.0
 47
0.0
 48
0.0
 49
0.0
140
0.0
141
0.0
142
1.0
143
1.0
 70
   688
 72
     0
 73
     0
 74
     5
  7

 75
    16
147
1.0
148
0.0
149
0.0
100
AcDbLayout
  1
Layout2
 70
     1
 71
     2
 10
0.0
 20
0.0
 11
12.0
 21
9.0
 12
0.0
 22
0.0
 32
0.0
 14
0.0
 24
0.0
 34
0.0
 15
0.0
 25
0.0
 35
0.0
146
0.0
 13
0.0
 23
0.0
 33
0.0
 16
1.0
 26
0.0
 36
0.0
 17
0.0
 27
1.0
 37
0.0
 76
     0
330
23
  0
LAYOUT
  5
22
102
{ACAD_REACTORS
330
1A
102
}
330
1A
100
AcDbPlotSettings
  1

  2
Microsoft Office Document Image Writer
  4

  6

 40
0.0
 41
0.0
 42
0.0
 43
0.0
 44
0.0
 45
0.0
 46
0.0
 47
0.0
 48
0.0
 49
0.0
140
0.0
141
0.0
142
1.0
143
1.0
 70
  1712
 72
     0
 73
     0
 74
     0
  7

 75
     0
147
1.0
148
0.0
149
0.0
100
AcDbLayout
  1
Model
 70
     1
 71
     0
 10
0.0
 20
0.0
 11
12.0
 21
9.0
 12
0.0
 22
0.0
 32
0.0
 14
0.0
 24
0.0
 34
0.0
 15
0.0
 25
0.0
 35
0.0
146
0.0
 13
0.0
 23
0.0
 33
0.0
 16
1.0
 26
0.0
 36
0.0
 17
0.0
 27
1.0
 37
0.0
 76
     0
330
1F
  0
MLINESTYLE
  5
18
102
{ACAD_REACTORS
330
17
102
}
330
17
100
AcDbMlineStyle
  2
STANDARD
 70
     0
  3

 62
   256
 51
90.0
 52
90.0
 71
     2
 49
0.5
 62
   256
  6
BYLAYER
 49
-0.5
 62
   256
  6
BYLAYER
  0
ACDBPLACEHOLDER
  5
F
102
{ACAD_REACTORS
330
E
102
}
330
E
  0
DICTIONARYVAR
  5
249
102
{ACAD_REACTORS
330
247
102
}
330
247
100
DictionaryVariables
280
     0
  1
2
  0
DICTIONARYVAR
  5
248
102
{ACAD_REACTORS
330
247
102
}
330
247
100
DictionaryVariables
280
     0
  1
1
  0
ENDSEC
  0
EOF
