  0
SECTION
  2
HEADER
  9
$ACADVER
  1
AC1015
  9
$ACADMAINTVER
 70
    13
  9
$DWGCODEPAGE
  3
ANSI_1252
  9
$INSBASE
 10
0.0
 20
0.0
 30
0.0
  9
$EXTMIN
 10
-336.5302637731815
 20
-0.0536250597992876
 30
-0.0015258207003583
  9
$EXTMAX
 10
791.1479945807314
 20
1757.373663589469
 30
0.0000000349246037
  9
$LIMMIN
 10
0.0
 20
0.0
  9
$LIMMAX
 10
420.0
 20
297.0
  9
$ORTHOMODE
 70
     0
  9
$REGENMODE
 70
     1
  9
$FILLMODE
 70
     1
  9
$QTEXTMODE
 70
     0
  9
$MIRRTEXT
 70
     1
  9
$LTSCALE
 40
1.0
  9
$ATTMODE
 70
     1
  9
$TEXTSIZE
 40
2.5
  9
$TRACEWID
 40
1.0
  9
$TEXTSTYLE
  7
Standard
  9
$CLAYER
  8
ceco.net 118
  9
$CELTYPE
  6
ByLayer
  9
$CECOLOR
 62
   256
  9
$CELTSCALE
 40
1.0
  9
$DISPSILH
 70
     0
  9
$DIMSCALE
 40
1.0
  9
$DIMASZ
 40
2.5
  9
$DIMEXO
 40
0.625
  9
$DIMDLI
 40
3.75
  9
$DIMRND
 40
0.0
  9
$DIMDLE
 40
0.0
  9
$DIMEXE
 40
1.25
  9
$DIMTP
 40
0.0
  9
$DIMTM
 40
0.0
  9
$DIMTXT
 40
2.5
  9
$DIMCEN
 40
2.5
  9
$DIMTSZ
 40
0.0
  9
$DIMTOL
 70
     0
  9
$DIMLIM
 70
     0
  9
$DIMTIH
 70
     0
  9
$DIMTOH
 70
     0
  9
$DIMSE1
 70
     0
  9
$DIMSE2
 70
     0
  9
$DIMTAD
 70
     1
  9
$DIMZIN
 70
     8
  9
$DIMBLK
  1

  9
$DIMASO
 70
     1
  9
$DIMSHO
 70
     1
  9
$DIMPOST
  1

  9
$DIMAPOST
  1

  9
$DIMALT
 70
     0
  9
$DIMALTD
 70
     3
  9
$DIMALTF
 40
0.03937007874016
  9
$DIMLFAC
 40
1.0
  9
$DIMTOFL
 70
     1
  9
$DIMTVP
 40
0.0
  9
$DIMTIX
 70
     0
  9
$DIMSOXD
 70
     0
  9
$DIMSAH
 70
     0
  9
$DIMBLK1
  1

  9
$DIMBLK2
  1

  9
$DIMSTYLE
  2
ISO-25
  9
$DIMCLRD
 70
     0
  9
$DIMCLRE
 70
     0
  9
$DIMCLRT
 70
     0
  9
$DIMTFAC
 40
1.0
  9
$DIMGAP
 40
0.625
  9
$DIMJUST
 70
     0
  9
$DIMSD1
 70
     0
  9
$DIMSD2
 70
     0
  9
$DIMTOLJ
 70
     0
  9
$DIMTZIN
 70
     8
  9
$DIMALTZ
 70
     0
  9
$DIMALTTZ
 70
     0
  9
$DIMUPT
 70
     0
  9
$DIMDEC
 70
     2
  9
$DIMTDEC
 70
     2
  9
$DIMALTU
 70
     2
  9
$DIMALTTD
 70
     3
  9
$DIMTXSTY
  7
Standard
  9
$DIMAUNIT
 70
     0
  9
$DIMADEC
 70
     0
  9
$DIMALTRND
 40
0.0
  9
$DIMAZIN
 70
     0
  9
$DIMDSEP
 70
    44
  9
$DIMATFIT
 70
     3
  9
$DIMFRAC
 70
     0
  9
$DIMLDRBLK
  1

  9
$DIMLUNIT
 70
     2
  9
$DIMLWD
 70
    -2
  9
$DIMLWE
 70
    -2
  9
$DIMTMOVE
 70
     0
  9
$LUNITS
 70
     2
  9
$LUPREC
 70
     2
  9
$SKETCHINC
 40
1.0
  9
$FILLETRAD
 40
10.0
  9
$AUNITS
 70
     0
  9
$AUPREC
 70
     0
  9
$MENU
  1
.
  9
$ELEVATION
 40
0.0
  9
$PELEVATION
 40
0.0
  9
$THICKNESS
 40
0.0
  9
$LIMCHECK
 70
     0
  9
$CHAMFERA
 40
10.0
  9
$CHAMFERB
 40
10.0
  9
$CHAMFERC
 40
20.0
  9
$CHAMFERD
 40
0.0
  9
$SKPOLY
 70
     0
  9
$TDCREATE
 40
2455079.811409143
  9
$TDUCREATE
 40
2455079.936409144
  9
$TDUPDATE
 40
2456640.446326632
  9
$TDUUPDATE
 40
2456640.571326632
  9
$TDINDWG
 40
0.0487702662
  9
$TDUSRTIMER
 40
0.0487702662
  9
$USRTIMER
 70
     1
  9
$ANGBASE
 50
0.0
  9
$ANGDIR
 70
     0
  9
$PDMODE
 70
     0
  9
$PDSIZE
 40
0.0
  9
$PLINEWID
 40
0.0
  9
$SPLFRAME
 70
     0
  9
$SPLINETYPE
 70
     6
  9
$SPLINESEGS
 70
     8
  9
$HANDSEED
  5
B7C
  9
$SURFTAB1
 70
     6
  9
$SURFTAB2
 70
     6
  9
$SURFTYPE
 70
     6
  9
$SURFU
 70
     6
  9
$SURFV
 70
     6
  9
$UCSBASE
  2

  9
$UCSNAME
  2

  9
$UCSORG
 10
0.0
 20
0.0
 30
0.0
  9
$UCSXDIR
 10
1.0
 20
0.0
 30
0.0
  9
$UCSYDIR
 10
0.0
 20
1.0
 30
0.0
  9
$UCSORTHOREF
  2

  9
$UCSORTHOVIEW
 70
     0
  9
$UCSORGTOP
 10
0.0
 20
0.0
 30
0.0
  9
$UCSORGBOTTOM
 10
0.0
 20
0.0
 30
0.0
  9
$UCSORGLEFT
 10
0.0
 20
0.0
 30
0.0
  9
$UCSORGRIGHT
 10
0.0
 20
0.0
 30
0.0
  9
$UCSORGFRONT
 10
0.0
 20
0.0
 30
0.0
  9
$UCSORGBACK
 10
0.0
 20
0.0
 30
0.0
  9
$PUCSBASE
  2

  9
$PUCSNAME
  2

  9
$PUCSORG
 10
0.0
 20
0.0
 30
0.0
  9
$PUCSXDIR
 10
1.0
 20
0.0
 30
0.0
  9
$PUCSYDIR
 10
0.0
 20
1.0
 30
0.0
  9
$PUCSORTHOREF
  2

  9
$PUCSORTHOVIEW
 70
     0
  9
$PUCSORGTOP
 10
0.0
 20
0.0
 30
0.0
  9
$PUCSORGBOTTOM
 10
0.0
 20
0.0
 30
0.0
  9
$PUCSORGLEFT
 10
0.0
 20
0.0
 30
0.0
  9
$PUCSORGRIGHT
 10
0.0
 20
0.0
 30
0.0
  9
$PUCSORGFRONT
 10
0.0
 20
0.0
 30
0.0
  9
$PUCSORGBACK
 10
0.0
 20
0.0
 30
0.0
  9
$USERI1
 70
     0
  9
$USERI2
 70
     0
  9
$USERI3
 70
     0
  9
$USERI4
 70
     0
  9
$USERI5
 70
     0
  9
$USERR1
 40
0.0
  9
$USERR2
 40
0.0
  9
$USERR3
 40
0.0
  9
$USERR4
 40
0.0
  9
$USERR5
 40
0.0
  9
$WORLDVIEW
 70
     1
  9
$SHADEDGE
 70
     3
  9
$SHADEDIF
 70
    70
  9
$TILEMODE
 70
     1
  9
$MAXACTVP
 70
    64
  9
$PINSBASE
 10
0.0
 20
0.0
 30
0.0
  9
$PLIMCHECK
 70
     0
  9
$PEXTMIN
 10
1.000000000000000E+20
 20
1.000000000000000E+20
 30
1.000000000000000E+20
  9
$PEXTMAX
 10
-1.000000000000000E+20
 20
-1.000000000000000E+20
 30
-1.000000000000000E+20
  9
$PLIMMIN
 10
0.0
 20
0.0
  9
$PLIMMAX
 10
420.0
 20
297.0
  9
$UNITMODE
 70
     0
  9
$VISRETAIN
 70
     1
  9
$PLINEGEN
 70
     0
  9
$PSLTSCALE
 70
     1
  9
$TREEDEPTH
 70
  3020
  9
$CMLSTYLE
  2
Standard
  9
$CMLJUST
 70
     0
  9
$CMLSCALE
 40
20.0
  9
$PROXYGRAPHICS
 70
     1
  9
$MEASUREMENT
 70
     1
  9
$CELWEIGHT
370
    -1
  9
$ENDCAPS
280
     0
  9
$JOINSTYLE
280
     0
  9
$LWDISPLAY
290
     0
  9
$INSUNITS
 70
     6
  9
$HYPERLINKBASE
  1

  9
$STYLESHEET
  1

  9
$XEDIT
290
     1
  9
$CEPSNTYPE
380
     0
  9
$PSTYLEMODE
290
     1
  9
$FINGERPRINTGUID
  2
{81085373-3A21-4932-80AA-8F6C3258C50C}
  9
$VERSIONGUID
  2
{F6D2F564-DBF2-44B8-8667-B840BEDA8A5B}
  9
$EXTNAMES
290
     1
  9
$PSVPSCALE
 40
0.0
  9
$OLESTARTUP
290
     0
  0
ENDSEC
  0
SECTION
  2
CLASSES
  0
CLASS
  1
ACDBDICTIONARYWDFLT
  2
AcDbDictionaryWithDefault
  3
AutoCAD 2000
 90
        0
280
     0
281
     0
  0
CLASS
  1
ACDBPLACEHOLDER
  2
AcDbPlaceHolder
  3
AutoCAD 2000
 90
        0
280
     0
281
     0
  0
CLASS
  1
LAYOUT
  2
AcDbLayout
  3
AutoCAD 2000
 90
        0
280
     0
281
     0
  0
CLASS
  1
DICTIONARYVAR
  2
AcDbDictionaryVar
  3
AutoCAD 2000
 90
        0
280
     0
281
     0
  0
ENDSEC
  0
SECTION
  2
TABLES
  0
TABLE
  2
VPORT
  5
8
330
0
100
AcDbSymbolTable
 70
     3
  0
VPORT
  5
B7B
330
8
100
AcDbSymbolTableRecord
100
AcDbViewportTableRecord
  2
*Active
 70
     0
 10
0.0
 20
0.0
 11
1.0
 21
1.0
 12
227.3088654037749
 22
878.6600192648347
 13
0.0
 23
0.0
 14
10.0
 24
10.0
 15
10.0
 25
10.0
 16
0.0
 26
0.0
 36
1.0
 17
0.0
 27
0.0
 37
0.0
 40
1769.906062296481
 41
2.184834123222748
 42
50.0
 43
0.0
 44
0.0
 50
0.0
 51
0.0
 71
     0
 72
   100
 73
     1
 74
     3
 75
     0
 76
     0
 77
     0
 78
     0
281
     0
 65
     1
110
0.0
120
0.0
130
0.0
111
1.0
121
0.0
131
0.0
112
0.0
122
1.0
132
0.0
 79
     0
146
0.0
  0
ENDTAB
  0
TABLE
  2
LTYPE
  5
5
330
0
100
AcDbSymbolTable
 70
     1
  0
LTYPE
  5
14
330
5
100
AcDbSymbolTableRecord
100
AcDbLinetypeTableRecord
  2
ByBlock
 70
     0
  3

 72
    65
 73
     0
 40
0.0
  0
LTYPE
  5
15
330
5
100
AcDbSymbolTableRecord
100
AcDbLinetypeTableRecord
  2
ByLayer
 70
     0
  3

 72
    65
 73
     0
 40
0.0
  0
LTYPE
  5
16
330
5
100
AcDbSymbolTableRecord
100
AcDbLinetypeTableRecord
  2
Continuous
 70
     0
  3
Solid line
 72
    65
 73
     0
 40
0.0
  0
ENDTAB
  0
TABLE
  2
LAYER
  5
2
102
{ACAD_XDICTIONARY
360
8FD
102
}
330
0
100
AcDbSymbolTable
 70
     2
  0
LAYER
  5
10
330
2
100
AcDbSymbolTableRecord
100
AcDbLayerTableRecord
  2
0
 70
     0
 62
     7
  6
Continuous
370
    -3
390
F
  0
LAYER
  5
8F1
102
{ACAD_XDICTIONARY
360
8F2
102
}
330
2
100
AcDbSymbolTableRecord
100
AcDbLayerTableRecord
  2
ceco.net 118
 70
     0
 62
     7
  6
Continuous
370
    -3
390
F
1001
AcAecLayerStandard
1000

1000

  0
ENDTAB
  0
TABLE
  2
STYLE
  5
3
330
0
100
AcDbSymbolTable
 70
     1
  0
STYLE
  5
11
330
3
100
AcDbSymbolTableRecord
100
AcDbTextStyleTableRecord
  2
Standard
 70
     0
 40
0.0
 41
1.0
 50
0.0
 71
     0
 42
2.5
  3
txt
  4

  0
ENDTAB
  0
TABLE
  2
VIEW
  5
6
330
0
100
AcDbSymbolTable
 70
     0
  0
ENDTAB
  0
TABLE
  2
UCS
  5
7
330
0
100
AcDbSymbolTable
 70
     0
  0
ENDTAB
  0
TABLE
  2
APPID
  5
9
330
0
100
AcDbSymbolTable
 70
    13
  0
APPID
  5
12
330
9
100
AcDbSymbolTableRecord
100
AcDbRegAppTableRecord
  2
ACAD
 70
     0
  0
APPID
  5
2C
330
9
100
AcDbSymbolTableRecord
100
AcDbRegAppTableRecord
  2
ACAD_DSTYLE_DIMJOGGED_JOGANGLE_SYMBOL
 70
     0
  0
APPID
  5
11B
330
9
100
AcDbSymbolTableRecord
100
AcDbRegAppTableRecord
  2
ACAD_NAV_VCDISPLAY
 70
     0
  0
APPID
  5
11C
330
9
100
AcDbSymbolTableRecord
100
AcDbRegAppTableRecord
  2
ACAD_MLEADERVER
 70
     0
  0
APPID
  5
8F4
330
9
100
AcDbSymbolTableRecord
100
AcDbRegAppTableRecord
  2
ACAD_PSEXT
 70
     0
  0
APPID
  5
8F5
330
9
100
AcDbSymbolTableRecord
100
AcDbRegAppTableRecord
  2
ACAD_DSTYLE_DIMEXT_LENGTH
 70
     0
  0
APPID
  5
8F6
330
9
100
AcDbSymbolTableRecord
100
AcDbRegAppTableRecord
  2
ACAD_DSTYLE_DIMEXT_ENABLED
 70
     0
  0
APPID
  5
8F7
330
9
100
AcDbSymbolTableRecord
100
AcDbRegAppTableRecord
  2
ACAD_DSTYLE_DIMARC_LENGTH_SYMBOL
 70
     0
  0
APPID
  5
8F8
330
9
100
AcDbSymbolTableRecord
100
AcDbRegAppTableRecord
  2
AcAecLayerStandard
 70
     0
  0
APPID
  5
8F9
330
9
100
AcDbSymbolTableRecord
100
AcDbRegAppTableRecord
  2
ACAD_DSTYLE_DIM_LINETYPE
 70
     0
  0
APPID
  5
8FA
330
9
100
AcDbSymbolTableRecord
100
AcDbRegAppTableRecord
  2
ACAD_DSTYLE_DIM_EXT1_LINETYPE
 70
     0
  0
APPID
  5
8FB
330
9
100
AcDbSymbolTableRecord
100
AcDbRegAppTableRecord
  2
ACAD_DSTYLE_DIM_EXT2_LINETYPE
 70
     0
  0
APPID
  5
8FC
330
9
100
AcDbSymbolTableRecord
100
AcDbRegAppTableRecord
  2
ACAD_EXEMPT_FROM_CAD_STANDARDS
 70
     0
  0
ENDTAB
  0
TABLE
  2
DIMSTYLE
  5
A
330
0
100
AcDbSymbolTable
 70
     2
100
AcDbDimStyleTable
 71
     0
  0
DIMSTYLE
105
27
330
A
100
AcDbSymbolTableRecord
100
AcDbDimStyleTableRecord
  2
ISO-25
 70
     0
 41
2.5
 42
0.625
 43
3.75
 44
1.25
 73
     0
 74
     0
 77
     1
 78
     8
140
2.5
141
2.5
143
0.03937007874016
147
0.625
171
     3
172
     1
271
     2
272
     2
274
     3
278
    44
283
     0
284
     8
340
11
  0
DIMSTYLE
105
2B
330
A
100
AcDbSymbolTableRecord
100
AcDbDimStyleTableRecord
  2
Standard
 70
     0
340
11
  0
ENDTAB
  0
TABLE
  2
BLOCK_RECORD
  5
1
330
0
100
AcDbSymbolTable
 70
     1
  0
BLOCK_RECORD
  5
1F
330
1
100
AcDbSymbolTableRecord
100
AcDbBlockTableRecord
  2
*Model_Space
340
22
  0
BLOCK_RECORD
  5
1B
330
1
100
AcDbSymbolTableRecord
100
AcDbBlockTableRecord
  2
*Paper_Space
340
1E
  0
BLOCK_RECORD
  5
23
330
1
100
AcDbSymbolTableRecord
100
AcDbBlockTableRecord
  2
*Paper_Space0
340
26
  0
ENDTAB
  0
ENDSEC
  0
SECTION
  2
BLOCKS
  0
BLOCK
  5
20
330
1F
100
AcDbEntity
  8
0
100
AcDbBlockBegin
  2
*Model_Space
 70
     0
 10
0.0
 20
0.0
 30
0.0
  3
*Model_Space
  1

  0
ENDBLK
  5
21
330
1F
100
AcDbEntity
  8
0
100
AcDbBlockEnd
  0
BLOCK
  5
1C
330
1B
100
AcDbEntity
 67
     1
  8
0
100
AcDbBlockBegin
  2
*Paper_Space
 70
     0
 10
0.0
 20
0.0
 30
0.0
  3
*Paper_Space
  1

  0
ENDBLK
  5
1D
330
1B
100
AcDbEntity
 67
     1
  8
0
100
AcDbBlockEnd
  0
BLOCK
  5
24
330
23
100
AcDbEntity
  8
0
100
AcDbBlockBegin
  2
*Paper_Space0
 70
     0
 10
0.0
 20
0.0
 30
0.0
  3
*Paper_Space0
  1

  0
ENDBLK
  5
25
330
23
100
AcDbEntity
  8
0
100
AcDbBlockEnd
  0
ENDSEC
  0
SECTION
  2
ENTITIES
  0
LWPOLYLINE
  5
A3C
330
1F
100
AcDbEntity
  8
ceco.net 118
100
AcDbPolyline
 90
       97
 70
     0
 43
0.0
 10
-283.9782812391058
 20
834.0828143605358
 10
-301.2885517935501
 20
840.2425661587404
 10
-306.5696390437005
 20
844.0557334117331
 10
-311.55733385247
 20
845.5223451262828
 10
-313.024319358883
 20
849.0421929368494
 10
-311.55733385247
 20
855.49526417748
 10
-309.7969792003277
 20
858.428473104159
 10
-308.6234094328756
 20
862.8282792410391
 10
-306.8630314850815
 20
866.9347804398421
 10
-308.6234094328756
 20
870.4546282504088
 10
-313.317711800264
 20
871.3346010801069
 10
-322.1195316484227
 20
878.0809772597786
 10
-327.400642196153
 20
884.8273679428348
 10
-330.9213747960894
 20
893.0403558360922
 10
-334.4421073960256
 20
900.3733854030361
 10
-336.4958544895489
 20
906.8264566436665
 10
-336.2024620462398
 20
912.3995550536347
 10
-332.0949445635414
 20
918.5592923484547
 10
-328.5742119655333
 20
922.6657935472577
 10
-325.053479365597
 20
925.3056830305467
 10
-320.6525694415176
 20
928.5322113986877
 10
-320.3591769982085
 20
932.9320320399165
 10
-320.6525694415176
 20
947.0114522889527
 10
-318.5987990504145
 20
963.7307475198213
 10
-315.3714588937873
 20
978.1034872112831
 10
-314.7846740090972
 20
985.1431973358012
 10
-313.317711800264
 20
995.9960747133118
 10
-309.2053254106577
 20
1022.255837164502
 10
-308.0317323456256
 20
1031.642117331812
 10
-305.0977846303794
 20
1050.70798260258
 10
-304.2176073043083
 20
1065.374041737432
 10
-300.403482262991
 20
1079.746781428893
 10
-298.9365200541578
 20
1088.839727649428
 10
-297.1761421063638
 20
1102.039175068766
 10
-297.1761421063638
 20
1112.598733003851
 10
-294.5356101281504
 20
1147.797269124985
 10
-290.9759728623248
 20
1171.187319115088
 10
-290.9759728623248
 20
1187.906628848377
 10
-287.1618478229356
 20
1213.718884802201
 10
-283.0543303383092
 20
1232.198111189082
 10
-279.533597740301
 20
1249.210740365761
 10
-275.7194726989837
 20
1256.543769932704
 10
-272.1987400990474
 20
1266.810008425363
 10
-268.3846150577301
 20
1275.022996319585
 10
-266.917652848897
 20
1292.328944937726
 10
-268.3846150577301
 20
1326.060869343345
 10
-263.9837051336507
 20
1344.2467762878
 10
-260.7563649750955
 20
1360.966086021089
 10
-256.9422399337781
 20
1372.992255671688
 10
-249.9007747377618
 20
1385.8983836486
 10
-230.2022701372698
 20
1411.275519122755
 10
-213.1853920261346
 20
1432.394634993888
 10
-201.1562320174925
 20
1443.834151256251
 10
-188.5402871260885
 20
1451.46050026562
 10
-177.6846968887548
 20
1458.793529832564
 10
-163.6017664909377
 20
1465.246601072231
 10
-146.8783041168353
 20
1471.113018925589
 10
-136.9028912036446
 20
1477.859409607681
 10
-127.220870731835
 20
1485.779078059477
 10
-119.2992282078194
 20
1498.685206036389
 10
-110.2040159163516
 20
1508.36480564516
 10
-98.17485590770958
 20
1515.99115465453
 10
-83.50514062905858
 20
1519.511002465097
 10
-37.91436864252319
 20
1524.32140360861
 10
-3.880635715904645
 20
1527.547931976751
 10
21.05788492117426
 20
1526.374654208011
 10
23.69841689745954
 20
1522.854806397444
 10
22.81823957331653
 20
1509.362025032296
 10
27.51254193877684
 20
1502.615648853589
 10
45.40959737598314
 20
1496.455897055384
 10
68.00095518250602
 20
1484.136407963324
 10
91.47249031317187
 20
1468.883709944584
 10
113.3434361853869
 20
1447.350764779275
 10
131.2404916225932
 20
1428.284899507544
 10
142.389474303236
 20
1401.885990165483
 10
152.6582796597358
 20
1383.406763778602
 10
158.5261517945764
 20
1374.313803053719
 10
164.1006547817596
 20
1344.101726458666
 10
166.741186759973
 20
1320.342721104243
 10
171.7289048643942
 20
1301.863494717363
 10
172.6090821904654
 20
1287.784074467363
 10
174.6748268300143
 20
1239.80319802069
 10
173.7946495058713
 20
1167.352875179986
 10
169.9947351514856
 20
1107.933062612119
 10
163.833470575264
 20
1061.588329671049
 10
153.8580576601453
 20
1011.137095531176
 10
150.6307175035181
 20
985.6181590197776
 10
145.3496302514395
 20
951.5929006683474
 10
140.3619121470183
 20
946.6064411432308
 10
127.1591823728522
 20
944.5531905438294
 10
107.7951647248846
 20
944.2598711014033
 10
108.3532719777577
 20
928.2489138972051
 10
114.2211441125982
 20
906.8364785846098
 10
117.4484842692254
 20
881.0242226307856
 10
117.4484842692254
 20
843.1857970263626
 10
117.7418767106064
 20
813.5603593151973
 10
115.9557331568794
 20
782.283708927589
  0
LWPOLYLINE
  5
A3D
330
1F
100
AcDbEntity
  8
ceco.net 118
100
AcDbPolyline
 90
       32
 70
     0
 43
0.0
 10
90.77148411954112
 20
476.3001736426304
 10
87.13508584940429
 20
465.6534059661681
 10
90.24608474457636
 20
458.7101153257572
 10
86.86943919063198
 20
445.2069059200767
 10
85.57072219518886
 20
437.9359369691884
 10
87.64867404934195
 20
415.8633733729402
 10
89.72660260591512
 20
371.4585749315483
 10
91.54480174001946
 20
366.005348217659
 10
94.14221243718202
 20
344.7118128637703
 10
99.07730440903833
 20
309.3957111097734
 10
103.5119938360731
 20
261.7469075424924
 10
105.3301929721055
 20
214.2259816234582
 10
106.3691572494281
 20
195.0098597545002
 10
112.0834840780662
 20
177.09213762957
 10
115.719882348203
 20
160.9921432401824
 10
115.4601296300825
 20
138.4002226466146
 10
114.6651698342975
 20
109.9500206813536
 10
109.4703251443206
 20
89.17584232478475
 10
110.2495367054507
 20
75.6726184166837
 10
108.1716081488775
 20
71.25810569743409
 10
106.8728911515063
 20
68.40166396917993
 10
108.6910902875388
 20
56.97586804843013
 10
111.2885242803531
 20
43.21297289336144
 10
117.7820626681932
 20
33.34523346022251
 10
120.6392260834764
 20
23.21782278011596
 10
121.9379430808476
 20
13.09041210097348
 10
115.9638635340888
 20
11.01299861604275
 10
99.08063576629503
 20
8.675899381723866
 10
67.65186150732915
 20
4.780743658830033
 10
40.89844979775079
 20
7.896871137436392
 10
28.95031399988511
 20
13.09041210097348
 10
26.61510236892354
 20
13.84083028857276
  0
LWPOLYLINE
  5
A3E
330
1F
100
AcDbEntity
  8
ceco.net 118
100
AcDbPolyline
 90
        7
 70
     0
 43
0.0
 10
107.7951647248846
 20
944.2598711014033
 10
111.6857013280241
 20
989.2861459122105
 10
120.0723594572991
 20
1053.008866516338
 10
123.4270133895915
 20
1156.977541114938
 10
130.1173115511483
 20
1236.891860420674
 10
131.7946385182586
 20
1283.00700244099
 10
125.0853073560938
 20
1335.82978170547
  0
LWPOLYLINE
  5
A3F
330
1F
100
AcDbEntity
  8
ceco.net 118
100
AcDbPolyline
 90
        4
 70
     0
 43
0.0
 10
-80.38787505316577
 20
1403.744806407976
 10
-77.87186130684858
 20
1370.206518664436
 10
-78.71054808798362
 20
1330.79904289505
 10
-83.74252898545819
 20
1308.160710996471
  0
LWPOLYLINE
  5
A40
330
1F
100
AcDbEntity
  8
ceco.net 118
100
AcDbPolyline
 90
       20
 70
     0
 43
0.0
 10
-283.9782812391058
 20
834.0828143605358
 10
-270.203979003345
 20
832.8713342863375
 10
-257.7327967491874
 20
834.0311672816278
 10
-248.4518903846765
 20
834.6110765266166
 10
-236.2707226214115
 20
838.3805011253208
 10
-233.6604757135501
 20
848.2389873046123
 10
-229.6000864604138
 20
862.7367619500912
 10
-218.579046551531
 20
872.0153388843938
 10
-198.5572604750268
 20
910.4704546931134
 10
-193.9168189425254
 20
931.8111845415296
 10
-190.6685121960617
 20
958.2551273516402
 10
-181.3876291272027
 20
976.3483422203899
 10
-175.3550295091554
 20
993.5137080971617
 10
-166.5382069006955
 20
1025.060878373315
 10
-160.9696677411193
 20
1064.03089859401
 10
-152.1528218370076
 20
1087.227340928802
 10
-132.6629580741428
 20
1153.105228456079
 10
-121.9885424435051
 20
1219.613352486722
 10
-118.2761752385704
 20
1244.201582811419
 10
-111.7795617494994
 20
1259.047311707272
  0
LWPOLYLINE
  5
A41
330
1F
100
AcDbEntity
  8
ceco.net 118
100
AcDbPolyline
 90
        9
 70
     0
 43
0.0
 10
-304.2593541091264
 20
1651.560590081971
 10
-301.6917392620598
 20
1646.426629629695
 10
-293.9888714271365
 20
1639.239099501628
 10
-283.9751828441512
 20
1635.902039711563
 10
-265.2315665065543
 20
1635.388643667011
 10
-240.8392254652063
 20
1638.212307411559
 10
-214.9062828993919
 20
1643.859663908387
 10
-194.8788824377697
 20
1651.303892058731
 10
-183.3246156278983
 20
1659.518214277832
  0
LWPOLYLINE
  5
A42
330
1F
100
AcDbEntity
  8
ceco.net 118
100
AcDbPolyline
 90
       40
 70
     0
 43
0.0
 10
-304.2593541091264
 20
1651.560590081971
 10
-304.0025833057734
 20
1654.897664375421
 10
-300.4079318404547
 20
1659.004818233279
 10
-287.826605112823
 20
1663.625382639074
 10
-265.4883373118355
 20
1669.272724632519
 10
-238.5283581258409
 20
1678.000442896173
 10
-233.6498992369888
 20
1680.054027076312
 10
-217.7306685498115
 20
1698.279557672376
 10
-203.8655344005746
 20
1718.815370470856
 10
-192.0544967892783
 20
1738.067693157954
 10
-185.8922304749649
 20
1744.998539767129
 10
-172.283867129081
 20
1751.415975828368
 10
-148.9185394103333
 20
1756.806634301956
 10
-122.9856201401708
 20
1757.320030346509
 10
-98.3365082954697
 20
1754.753050121817
 10
-81.39024098811205
 20
1751.672673850644
 10
-65.47101030286285
 20
1744.741841744853
 10
-43.29052771696296
 20
1727.530427151541
 10
-30.70920099125942
 20
1714.69555503003
 10
-25.57397129712626
 20
1702.11736642741
 10
-23.26310395968903
 20
1696.726707952857
 10
-28.39835694947396
 20
1696.213311908304
 10
-35.0741415729135
 20
1692.106158050446
 10
-36.87149060122465
 20
1688.769083756997
 10
-38.92558713723701
 20
1661.302438851762
 10
-38.41204553245916
 20
1657.708666536036
 10
-29.68216437107912
 20
1655.655082355897
 10
-17.35760844872857
 20
1654.628290264863
 10
-15.3035119127162
 20
1653.601512679142
 10
-14.53322280023712
 20
1625.621457225006
 10
-21.72254902845452
 20
1631.268813720871
 10
-32.24977921814571
 20
1632.809001856458
 10
-44.06081682944204
 20
1635.63266560197
 10
-69.99373609960457
 20
1639.226437917695
 10
-93.87255883182662
 20
1641.280022097835
 10
-116.2108266328141
 20
1644.87377991114
 10
-139.0626127467839
 20
1650.521136407969
 10
-163.454977085712
 20
1655.398384333621
 10
-177.8336295440749
 20
1658.992156649347
 10
-183.3246156278983
 20
1659.518214277832
  0
LWPOLYLINE
  5
A43
330
1F
100
AcDbEntity
  8
ceco.net 118
100
AcDbPolyline
 90
        4
 70
     0
 43
0.0
 10
-232.0663395048904
 20
1678.501177357757
 10
-221.5391093151993
 20
1674.394023499899
 10
-210.2416133086808
 20
1670.800251184173
 10
-193.5520935109525
 20
1665.40959270962
  0
LWPOLYLINE
  5
A44
330
1F
100
AcDbEntity
  8
ceco.net 118
100
AcDbPolyline
 90
        5
 70
     0
 43
0.0
 10
-99.06381590466482
 20
1747.296145882228
 10
-97.26646687442555
 20
1731.89429353506
 10
-96.23943025617338
 20
1710.07499062327
 10
-97.00971936865245
 20
1680.811459561136
 10
-97.26646687442555
 20
1657.708666536036
  0
LWPOLYLINE
  5
A45
330
1F
100
AcDbEntity
  8
ceco.net 118
100
AcDbPolyline
 90
        6
 70
     0
 43
0.0
 10
-137.0645435894766
 20
1751.403314244435
 10
-157.3487148544518
 20
1746.526051815399
 10
-165.0515593956515
 20
1744.215784115404
 10
-171.2138257080368
 20
1739.595219709608
 10
-184.0519232390215
 20
1714.182158985477
 10
-196.1197083580191
 20
1682.608345719
  0
LWPOLYLINE
  5
A46
330
1F
100
AcDbEntity
  8
ceco.net 118
100
AcDbPolyline
 90
        6
 70
     0
 43
0.0
 10
-26.50173802067001
 20
1696.402926063802
 10
-22.76009223824075
 20
1685.167827618661
 10
-21.47628481470746
 20
1677.466886940728
 10
-18.90866996764088
 20
1666.942297022597
 10
-18.13840415081358
 20
1660.011450413422
 10
-17.35760844872857
 20
1654.628290264863
  0
LWPOLYLINE
  5
A47
330
1F
100
AcDbEntity
  8
ceco.net 118
100
AcDbPolyline
 90
       10
 70
     0
 43
0.0
 10
-219.7973683361488
 20
1612.893389117016
 10
-132.5099252857762
 20
1637.664117391632
 10
-121.3716821570415
 20
1637.436861540863
 10
-112.9611687096258
 20
1632.437261814339
 10
-99.09519589571573
 20
1627.210406237045
 10
-92.50318443744617
 20
1626.074141482732
 10
-94.32166312708433
 20
1622.438062362252
 10
-101.5956244788685
 20
1623.119829916486
 10
-111.1426900199876
 20
1626.074141482732
 10
-112.5065432118572
 20
1627.210406237045
  0
LWPOLYLINE
  5
A48
330
1F
100
AcDbEntity
  8
ceco.net 118
100
AcDbPolyline
 90
       16
 70
     0
 43
0.0
 10
-143.1935429186706
 20
1623.801597470719
 10
-139.1019367440458
 20
1631.982750111838
 10
-134.5557283730886
 20
1634.255294122886
 10
-124.5540373361291
 20
1635.39157337962
 10
-118.4166280761201
 20
1631.982750111838
 10
-110.9153656242415
 20
1626.074141482732
 10
-107.9603348409
 20
1619.711021152088
 10
-106.1418328536819
 20
1609.711821699038
 10
-108.4149603367404
 20
1596.303813481591
 10
-118.1893269760257
 20
1577.441693835117
 10
-125.6905894279043
 20
1565.397220728064
 10
-131.3733731920729
 20
1561.988397458353
 10
-137.5107591564301
 20
1562.897420864319
 10
-139.32926114172
 20
1568.124261938228
 10
-138.8746356439514
 20
1575.623661527534
 10
-139.32926114172
 20
1578.350717242047
  0
LWPOLYLINE
  5
A49
330
1F
100
AcDbEntity
  8
ceco.net 118
100
AcDbPolyline
 90
        8
 70
     0
 43
0.0
 10
-134.10110287532
 20
1612.211621561819
 10
-135.4649793647695
 20
1616.302197882378
 10
-136.6015314584728
 20
1620.16551835024
 10
-136.1469059607043
 20
1624.710606374264
 10
-134.7830294731829
 20
1626.983150385313
 10
-131.6006742921672
 20
1627.66491794051
 10
-126.1452149256729
 20
1627.66491794051
 10
-122.0536087529763
 20
1624.710606374264
  0
LWPOLYLINE
  5
A4A
330
1F
100
AcDbEntity
  8
ceco.net 118
100
AcDbPolyline
 90
        7
 70
     0
 43
0.0
 10
-130.2368210983695
 20
1600.621645652918
 10
-135.0103538689291
 20
1601.530669059848
 10
-135.2376549690234
 20
1599.258125047836
 10
-133.6464773775514
 20
1594.940278373123
 10
-134.3284039754144
 20
1591.076957905261
 10
-135.6922804648638
 20
1587.213637436434
 10
-135.0103538689291
 20
1582.895805264143
  0
LWPOLYLINE
  5
A4B
330
1F
100
AcDbEntity
  8
ceco.net 118
100
AcDbPolyline
 90
        5
 70
     0
 43
0.0
 10
-114.3250451990752
 20
1613.575142167865
 10
-113.8704197032348
 20
1605.393989527711
 10
-115.4615972927786
 20
1598.576357493602
 10
-119.5532034654752
 20
1592.213237161995
 10
-122.7355586445628
 20
1587.895404990668
  0
LWPOLYLINE
  5
A4C
330
1F
100
AcDbEntity
  8
ceco.net 118
100
AcDbPolyline
 90
        5
 70
     0
 43
0.0
 10
-234.7998932399059
 20
1619.938262499472
 10
-228.6625072774768
 20
1620.847285905438
 10
-222.9797235152364
 20
1618.120230190925
 10
-219.3427428383802
 20
1616.52945373411
 10
-135.2376549690234
 20
1638.118614591713
  0
LWPOLYLINE
  5
A4D
330
1F
100
AcDbEntity
  8
ceco.net 118
100
AcDbPolyline
 90
       11
 70
     0
 43
0.0
 10
-219.7973683361488
 20
1612.893389117016
 10
-217.9788663489307
 20
1605.621245379443
 10
-217.9788663489307
 20
1597.212822385136
 10
-218.6608162405172
 20
1589.713437299215
 10
-220.2519938319892
 20
1587.440893288167
 10
-222.9797235152364
 20
1587.895404990668
 10
-226.162078694324
 20
1591.304213756029
 10
-229.7990593711801
 20
1598.34910164187
 10
-233.890642248225
 20
1606.984765985489
 10
-235.0272176375802
 20
1615.393174476412
 10
-234.7998932399059
 20
1619.938262499472
  0
LWPOLYLINE
  5
A4E
330
1F
100
AcDbEntity
  8
ceco.net 118
100
AcDbPolyline
 90
        6
 70
     0
 43
0.0
 10
-233.2428724881174
 20
1620.168876691659
 10
-233.6633411481307
 20
1624.483350522532
 10
-233.4360400480364
 20
1627.66491794051
 10
-233.4360400480364
 20
1631.073741208292
 10
-232.5267890544273
 20
1635.618814728932
 10
-233.004645742767
 20
1639.918425587875
  0
LWPOLYLINE
  5
A4F
330
1F
100
AcDbEntity
  8
ceco.net 118
100
AcDbPolyline
 90
       28
 70
     0
 43
0.0
 10
-229.8695289163879
 20
1598.497834140071
 10
-233.0058522731997
 20
1585.805257404881
 10
-235.2789564606064
 20
1574.21528149598
 10
-236.2321441004314
 20
1565.786481037121
 10
-234.7605226494124
 20
1560.580481539928
 10
-229.4400182155368
 20
1558.543344365662
 10
-218.6858130725886
 20
1559.675084017708
 10
-213.9313133045652
 20
1560.014611713905
 10
-211.2144629490649
 20
1559.109214191685
 10
-210.9566904114763
 20
1551.035329678179
 10
-209.8201383158448
 20
1543.990441791375
 10
-204.5919800494448
 20
1542.854177038025
 10
-200.2730727785819
 20
1542.626921186292
 10
-197.7726441954291
 20
1542.172409482827
 10
-202.7734780641549
 20
1536.036545002953
 10
-204.1373545536043
 20
1531.264201129124
 10
-199.5911228831391
 20
1526.491857255296
 10
-198.9091962872044
 20
1522.628536785505
 10
-199.5911228831391
 20
1515.129137197163
 10
-198.68189518711
 20
1508.311505163055
 10
-197.5453197977549
 20
1499.903096671169
 10
-191.8625593311662
 20
1494.448985242143
 10
-185.7251500711572
 20
1494.448985242143
 10
-174.8142313381686
 20
1492.176441231094
 10
-163.4486638136877
 20
1490.358408922547
 10
-154.3562237703372
 20
1487.631353208035
 10
-146.40033582069
 20
1483.768032740172
 10
-139.8367468507422
 20
1475.875237465461
  0
LWPOLYLINE
  5
A50
330
1F
100
AcDbEntity
  8
ceco.net 118
100
AcDbPolyline
 90
        6
 70
     0
 43
0.0
 10
-227.1759762526198
 20
1560.693652604841
 10
-225.0251305648999
 20
1563.29665960513
 10
-222.8742848771799
 20
1564.428399257176
 10
-221.1762475820433
 20
1564.767912449988
 10
-216.7613599333344
 20
1565.107440147149
 10
-213.7049207580276
 20
1565.107440147149
  0
LWPOLYLINE
  5
A51
330
1F
100
AcDbEntity
  8
ceco.net 118
100
AcDbPolyline
 90
        8
 70
     0
 43
0.0
 10
-190.4778094402718
 20
1646.996226864121
 10
-186.6807605185385
 20
1642.013828328145
 10
-185.9688051102057
 20
1640.115780030246
 10
-187.3926926312196
 20
1636.794181005298
 10
-183.5956437094864
 20
1635.607908071888
 10
-182.1717561884725
 20
1632.99806990708
 10
-179.0866393813485
 20
1632.049045758613
 10
-175.2895904615434
 20
1630.388246246621
  0
LWPOLYLINE
  5
A52
330
1F
100
AcDbEntity
  8
ceco.net 118
100
AcDbPolyline
 90
        8
 70
     0
 43
0.0
 10
-171.0179046009216
 20
1624.219574776271
 10
-164.8476942803972
 20
1616.864615868162
 10
-158.9147791336654
 20
1615.67832842944
 10
-157.7282100820957
 20
1609.035144884856
 10
-154.4057980992511
 20
1612.119480620513
 10
-148.9475198933359
 20
1615.67832842944
 10
-146.0997215537281
 20
1616.864615868162
 10
-142.7773095728116
 20
1621.609751114847
  0
LWPOLYLINE
  5
A53
330
1F
100
AcDbEntity
  8
ceco.net 118
100
AcDbPolyline
 90
       16
 70
     0
 43
0.0
 10
-107.5749223769526
 20
1600.956706262314
 10
-97.37032136959896
 20
1590.991923693746
 10
-90.72547411211418
 20
1582.450677346915
 10
-81.47017027818948
 20
1581.501653198447
 10
-76.72384748060721
 20
1567.97800831564
 10
-68.65511269825219
 20
1564.893672580947
 10
-42.3130421319729
 20
1574.858455150479
 10
-39.70256226180936
 20
1568.927046968456
 10
-32.10844112461927
 20
1567.740759530698
 10
-27.12482315131637
 20
1569.401559042689
 10
-20.95461283272016
 20
1573.909431002012
 10
-18.10681449504045
 20
1590.042899545278
 10
-14.54706074517162
 20
1599.058657965379
 10
-14.54706074517162
 20
1609.260689318889
 10
-14.07244710386294
 20
1616.852911517253
 10
-14.53322280023712
 20
1625.621457225006
  0
LWPOLYLINE
  5
A54
330
1F
100
AcDbEntity
  8
ceco.net 118
100
AcDbPolyline
 90
        5
 70
     0
 43
0.0
 10
-22.87052363077236
 20
1572.509692562089
 10
-24.51434328308096
 20
1562.521112208814
 10
-23.09045576206699
 20
1545.675882806372
 10
-18.34413296448474
 20
1532.389501211891
 10
-15.42838935885811
 20
1526.453160657638
  0
LWPOLYLINE
  5
A55
330
1F
100
AcDbEntity
  8
ceco.net 118
100
AcDbPolyline
 90
        5
 70
     0
 43
0.0
 10
-310.077535432938
 20
842.2693043011715
 10
-291.9360095876618
 20
833.2943008063192
 10
-281.0885031343059
 20
826.9369963917053
 10
-265.3783326180564
 20
818.5229315229481
 10
-253.0346039154028
 20
809.3609339836438
  0
LWPOLYLINE
  5
A56
330
1F
100
AcDbEntity
  8
ceco.net 118
100
AcDbPolyline
 90
        5
 70
     0
 43
0.0
 10
-312.8829113764731
 20
831.2375258487918
 10
-304.0926930386194
 20
826.9369963917053
 10
-289.6916995161155
 20
817.4010542726865
 10
-273.0463959182088
 20
806.9302144454377
 10
-266.8745315678461
 20
803.3776031555134
  0
LWPOLYLINE
  5
A57
330
1F
100
AcDbEntity
  8
ceco.net 118
100
AcDbPolyline
 90
        4
 70
     0
 43
0.0
 10
-312.8829113764731
 20
831.2375258487918
 10
-314.1921116658704
 20
833.2943008063192
 10
-311.012668512667
 20
841.3344065919773
 10
-310.077535432938
 20
842.2693043011715
  0
LWPOLYLINE
  5
A58
330
1F
100
AcDbEntity
  8
ceco.net 118
100
AcDbPolyline
 90
        2
 70
     0
 43
0.0
 10
-310.077535432938
 20
842.2693043011715
 10
-308.9696430857293
 20
844.7614450040601
  0
LWPOLYLINE
  5
A59
330
1F
100
AcDbEntity
  8
ceco.net 118
100
AcDbPolyline
 90
        7
 70
     0
 43
0.0
 10
-312.8124001219839
 20
831.2030288987626
 10
-314.3791336219146
 20
814.0354225238297
 10
-317.5585767770463
 20
788.7932134132097
 10
-316.9974876094056
 20
779.8181954149732
 10
-312.3218455044843
 20
771.4041305471801
 10
-302.7835160448739
 20
763.7379838436572
 10
-300.7262279274436
 20
762.6161065943597
  0
LWPOLYLINE
  5
A5A
330
1F
100
AcDbEntity
  8
ceco.net 118
100
AcDbPolyline
 90
        3
 70
     0
 43
0.0
 10
-304.4667602463596
 20
774.0218441298384
 10
-301.100295137112
 20
771.0301714631169
 10
-300.165162057383
 20
768.7864169645218
  0
LWPOLYLINE
  5
A5B
330
1F
100
AcDbEntity
  8
ceco.net 118
100
AcDbPolyline
 90
        7
 70
     0
 43
0.0
 10
-300.7262279274436
 20
762.6161065943597
 10
-293.8062757490479
 20
770.469232837986
 10
-288.5695444784142
 20
775.5176804622352
 10
-280.9014811763336
 20
784.3057044140915
 10
-273.4204398322254
 20
792.345824703134
 10
-268.7447977292322
 20
800.0119714066567
 10
-266.5103043049748
 20
802.9332825882194
  0
LWPOLYLINE
  5
A5C
330
1F
100
AcDbEntity
  8
ceco.net 118
100
AcDbPolyline
 90
       26
 70
     0
 43
0.0
 10
-243.6833197074883
 20
798.1421759901969
 10
-230.9655470908182
 20
789.1671724963089
 10
-215.4423985325411
 20
775.8916395453343
 10
-208.1483791444771
 20
768.7864169645218
 10
-207.2132460628199
 20
762.055167969229
 10
-209.6445780942667
 20
750.4624363892981
 10
-214.1332215387956
 20
741.6744124374417
 10
-220.4920845495508
 20
737.7478420634543
 10
-232.8358132502763
 20
734.1952452759506
 10
-242.7481866258312
 20
735.3171225252481
 10
-251.3513830076408
 20
739.0566988547836
 10
-256.5881142782746
 20
744.4791055611676
 10
-261.0767344271516
 20
753.6410885970872
 10
-264.8172434504158
 20
765.420785214701
 10
-267.8096646475751
 20
780.5661135821357
 10
-266.3134656977855
 20
782.6228885396631
 10
-263.5080664585984
 20
782.9968476227622
 10
-262.0118675068806
 20
775.5176804622352
 10
-257.7102693159758
 20
758.5025566783406
 10
-251.5384049656131
 20
751.023375014429
 10
-246.3016736949794
 20
748.5926554762228
 10
-236.5763222754686
 20
748.0317168520561
 10
-224.9807279921515
 20
748.2186963940876
 10
-217.6867086060155
 20
751.9582727216948
 10
-211.701866211697
 20
756.4457817208131
 10
-210.2056672619073
 20
765.7947442978001
  0
LWPOLYLINE
  5
A5D
330
1F
100
AcDbEntity
  8
ceco.net 118
100
AcDbPolyline
 90
       60
 70
     0
 43
0.0
 10
-247.3041243075567
 20
737.2974651742879
 10
-244.6803508109224
 20
688.9560876140786
 10
-239.6469022507517
 20
634.1316178097622
 10
-236.7328029032069
 20
587.5175687736009
 10
-232.9886363739206
 20
537.7853182526632
 10
-228.4850134685985
 20
494.0846518139915
 10
-223.9813905632763
 20
451.9731084279738
 10
-221.0672912195878
 20
441.3790030789096
 10
-213.914493442935
 20
422.5744769597622
 10
-207.5564457992732
 20
402.7105403069617
 10
-206.7542641759791
 20
379.8049228064156
 10
-205.6945895706303
 20
344.8443896558637
 10
-199.6014664012545
 20
311.472979557966
 10
-190.8591683624763
 20
285.2525796945701
 10
-187.3821161527303
 20
257.8732750631024
 10
-178.3748936377378
 20
225.2964264934598
 10
-161.4200999213062
 20
178.1526649373336
 10
-145.7571974085294
 20
134.5515072345369
 10
-130.396842751943
 20
100.618012733521
 10
-123.8677310516141
 20
82.43426681458004
 10
-124.3340978374544
 20
75.44051838436644
 10
-127.5986653344807
 20
69.84551964096681
 10
-129.4641091802623
 20
64.01740561772385
 10
-125.5000031523013
 20
55.85803728392421
 10
-119.9036017280013
 20
47.23240938559684
 10
-111.7422179289133
 20
41.870540423497
 10
-96.81848079744669
 20
33.94428736857662
 10
-77.69748919243284
 20
27.18366872062688
 10
-38.75592085438257
 20
22.52116009758538
 10
-11.70667060214327
 20
23.45366472325622
 10
9.279788146232021
 20
26.95053893836302
 10
22.80440162452578
 20
34.41053242875569
 10
24.43669702086481
 20
42.80303054578325
 10
22.57122988135961
 20
52.3611630688174
 10
19.77302916824555
 20
61.21990624602403
 10
20.70576273799815
 20
77.77177269685125
 10
14.64299452978593
 20
101.0842722980487
 10
14.876189570532
 20
121.5992580241618
 10
12.31118390009214
 20
147.2430119378441
 10
4.76735927437403
 20
213.1752877116741
 10
-2.32142052220297
 20
244.1342817287841
 10
-6.052331509417854
 20
289.6402753819166
 10
-6.425443574225938
 20
323.5832551938256
 10
-12.02182170287414
 20
343.7252535732478
 10
-11.6487329317897
 20
364.6132411494363
 10
-21.7228052864084
 20
394.2007956334601
 10
-27.31920671070838
 20
406.50979867145
 10
-29.18467385214171
 20
424.4137859513831
 10
-26.57302917432389
 20
444.1827824807297
 10
-32.91560813500836
 20
461.3407805629321
 10
-37.01567083175177
 20
501.026753164333
 10
-36.64258206259547
 20
526.7637502881188
 10
-38.13496043487249
 20
548.024739714383
 10
-38.8811379731851
 20
575.626731585162
 10
-37.38875960090808
 20
602.4827197548257
 10
-40.74660511461844
 20
619.6407178379923
 10
-36.26949329343915
 20
647.9886989045735
 10
-35.52809147942753
 20
669.7488999216147
 10
-32.54335803052526
 20
684.2958995576373
 10
-32.17026925944082
 20
697.3508917923937
  0
LWPOLYLINE
  5
A5E
330
1F
100
AcDbEntity
  8
ceco.net 118
100
AcDbPolyline
 90
       10
 70
     0
 43
0.0
 10
90.77148411954112
 20
476.3001736426304
 10
85.70712149099563
 20
518.4740097007852
 10
80.63374323119205
 20
543.8346546569846
 10
78.94260161287093
 20
577.6488576040537
 10
84.0160031702544
 20
604.7002228612291
 10
86.55270394894614
 20
635.9783671119112
 10
99.23618454675306
 20
676.555407746946
 10
106.8462868828282
 20
717.1324628844013
 10
111.9196651426318
 20
759.4002093150995
 10
115.9557331568794
 20
782.283708927589
  0
LWPOLYLINE
  5
A5F
330
1F
100
AcDbEntity
  8
ceco.net 118
100
AcDbPolyline
 90
       10
 70
     0
 43
0.0
 10
-271.6582447792461
 20
776.2540828234524
 10
-276.5043452365353
 20
768.2945876716985
 10
-283.9465983968693
 20
759.9890382331978
 10
-289.4850155575841
 20
756.1823250519046
 10
-292.2542124920437
 20
753.7598725277531
 10
-285.8504343926324
 20
748.5688986902824
 10
-275.6389842997668
 20
744.4161167198217
 10
-271.6582447792461
 20
744.7621855099533
 10
-269.4082504317703
 20
750.1261864907974
 10
-271.8313123101688
 20
754.2789684622221
  0
LWPOLYLINE
  5
A60
330
1F
100
AcDbEntity
  8
ceco.net 118
100
AcDbPolyline
 90
        4
 70
     0
 43
0.0
 10
-270.2365158446628
 20
748.1515964274331
 10
-265.7736692648904
 20
748.0498027567773
 10
-261.6198622173033
 20
749.2610362705455
 10
-260.2352521022476
 20
750.9913512144341
  0
LWPOLYLINE
  5
A61
330
1F
100
AcDbEntity
  8
ceco.net 118
100
AcDbPolyline
 90
        6
 70
     0
 43
0.0
 10
-242.7546396756224
 20
776.7731787569573
 10
-232.889324640746
 20
772.6203967864967
 10
-225.6201623069864
 20
768.2945876716985
 10
-218.6971350292878
 20
762.4114907573494
 10
-215.4087122141209
 20
757.7396128524197
 10
-215.0625538624081
 20
755.3171603292321
  0
LWPOLYLINE
  5
A62
330
1F
100
AcDbEntity
  8
ceco.net 118
100
AcDbPolyline
 90
        2
 70
     0
 43
0.0
 10
-263.1775398613536
 20
785.9438929190948
 10
-257.9852810504235
 20
791.4809210433124
  0
LWPOLYLINE
  5
A63
330
1F
100
AcDbEntity
  8
ceco.net 118
100
AcDbPolyline
 90
        4
 70
     0
 43
0.0
 10
-254.3506998816155
 20
778.6765353476039
 10
-248.6391918943263
 20
768.6406564618301
 10
-247.6007401329116
 20
762.5845178997588
 10
-251.4084121244377
 20
757.3935440622882
  0
LWPOLYLINE
  5
A64
330
1F
100
AcDbEntity
  8
ceco.net 118
100
AcDbPolyline
 90
        6
 70
     0
 43
0.0
 10
-236.2707226214115
 20
838.3805011253208
 10
-238.0816067473279
 20
830.0671342834721
 10
-237.5623808666205
 20
820.8964201213349
 10
-237.5623808666205
 20
811.3796371690659
 10
-237.2162225149077
 20
802.5549917970602
 10
-238.2546742763225
 20
795.9797718048686
  0
LWPOLYLINE
  5
A65
330
1F
100
AcDbEntity
  8
ceco.net 118
100
AcDbPolyline
 90
        4
 70
     0
 43
0.0
 10
-243.6833197074883
 20
798.1421759901969
 10
-248.0632397480076
 20
802.4174402939205
 10
-250.4316720176575
 20
807.0215721981913
 10
-253.0346039154028
 20
809.3609339836438
  0
LWPOLYLINE
  5
A66
330
1F
100
AcDbEntity
  8
ceco.net 118
100
AcDbPolyline
 90
        4
 70
     0
 43
0.0
 10
-266.8745315678461
 20
803.3776031555134
 10
-252.9316812694378
 20
786.368730394006
 10
-248.1948167301379
 20
780.8437692091684
 10
-242.7546396756224
 20
776.7731787569573
  0
LWPOLYLINE
  5
A67
330
1F
100
AcDbEntity
  8
ceco.net 118
100
AcDbPolyline
 90
       10
 70
     0
 43
0.0
 10
-166.7456596330885
 20
877.5647675287292
 10
-115.1340060189977
 20
874.2358152135603
 10
-64.8542431990063
 20
872.2384467257144
 10
-41.87873092843801
 20
871.9055471427964
 10
-42.54467632548768
 20
862.2515752758591
 10
-66.18615729261366
 20
748.0684107891284
 10
-74.84358724745108
 20
729.4262662210895
 10
-108.1414395606407
 20
729.4262662210895
 10
-146.7669482444034
 20
732.4223189533404
 10
-179.3988551586153
 20
737.7486542607039
  0
LWPOLYLINE
  5
A68
330
1F
100
AcDbEntity
  8
ceco.net 118
100
AcDbPolyline
 90
       10
 70
     0
 43
0.0
 10
-186.5083452832186
 20
922.0900613184859
 10
-147.3047644986945
 20
923.8920817275175
 10
-111.2554669618839
 20
927.4961080402681
 10
-67.09510543503713
 20
926.1445963600635
 10
-34.65075629035709
 20
928.3971109926097
 10
1.398541246453532
 20
927.9466022657107
 10
33.39227184380433
 20
937.8576927569339
 10
59.07738935056841
 20
936.5061810757651
 10
86.56495775485383
 20
940.1102073904441
 10
108.0141697019644
 20
937.9770656036818
  0
LWPOLYLINE
  5
A69
330
1F
100
AcDbEntity
  8
ceco.net 118
100
AcDbPolyline
 90
       10
 70
     0
 43
0.0
 10
109.5463872636537
 20
905.8719211521749
 10
105.4908436198457
 20
895.5103364364731
 10
94.22542649321258
 20
889.2032867613853
 10
82.96003266030313
 20
879.2922107735467
 10
91.0711199459911
 20
837.845871908812
 10
91.10184764336738
 20
800.3302079183232
 10
90.20061054678082
 20
777.8050325803087
 10
90.20061054678082
 20
755.7303369643523
 10
100.1141720294981
 20
757.5323573724199
 10
113.6326353091863
 20
767.4434333602586
  0
LWPOLYLINE
  5
A6A
330
1F
100
AcDbEntity
  8
ceco.net 118
100
AcDbPolyline
 90
        5
 70
     0
 43
0.0
 10
24.89656416561047
 20
67.51690497243544
 10
43.91864007317054
 20
64.72023230233389
 10
76.36809108898889
 20
64.99990392007021
 10
100.9849143910105
 20
67.23723335469914
 10
106.8728911515063
 20
68.40166396917993
  0
LWPOLYLINE
  5
A6B
330
1F
100
AcDbEntity
  8
ceco.net 118
100
AcDbPolyline
 90
       21
 70
     0
 43
0.0
 10
23.12188096966565
 20
36.04286246682022
 10
24.0573415729159
 20
29.3650267848352
 10
26.85470362135674
 20
15.6613495525562
 10
25.45602259713632
 20
5.034002105694526
 10
0.0
 20
0.0
 10
-50.19915793865948
 20
0.8325317757044103
 10
-86.28519359561323
 20
6.146205499135248
 10
-107.8249139836771
 20
10.62086436839308
 10
-135.2390993341396
 20
8.383534933764167
 10
-174.9616963346489
 20
8.103863316027856
 10
-195.1027357004204
 20
12.57853668867028
 10
-207.9706290776448
 20
18.45153914418915
 10
-213.2856123109377
 20
30.47721567392727
 10
-211.6071904231285
 20
50.0539098660738
 10
-206.5719247577726
 20
58.72358499265828
 10
-196.5014167246408
 20
68.79158920211921
 10
-188.3890481453272
 20
75.22392039165424
 10
-175.5211780618265
 20
76.62226397791528
 10
-164.8911882995889
 20
74.38492004086585
 10
-156.4990788586146
 20
72.42726222397322
 10
-148.6664511448179
 20
72.42726222397322
  0
LWPOLYLINE
  5
A6C
330
1F
100
AcDbEntity
  8
ceco.net 118
100
AcDbPolyline
 90
        6
 70
     0
 43
0.0
 10
-181.9551014557509
 20
67.67291723359448
 10
-166.0101284602205
 20
65.71524491428137
 10
-158.1775007464239
 20
68.51191758438291
 10
-148.6664511448179
 20
72.42726222397322
 10
-134.6796176050338
 20
82.2155948166619
 10
-126.7066699750284
 20
89.26758569654341
  0
LWPOLYLINE
  5
A6D
330
1F
100
AcDbEntity
  8
ceco.net 118
100
AcDbPolyline
 90
       10
 70
     0
 43
0.0
 10
-209.6490276698022
 20
40.54523438870091
 10
-191.1864101937681
 20
29.91788694183924
 10
-182.5145831829286
 20
26.28221391998522
 10
-171.6048525590304
 20
24.6042132184084
 10
-156.7788197222034
 20
23.76521286761999
 10
-137.7567205170635
 20
24.32455610309261
 10
-125.7280497306055
 20
26.5618855386856
 10
-109.2235950078975
 20
31.03655891036396
 10
-91.04069509980037
 20
31.59588764341606
 10
-90.10605115356156
 20
31.5709702328968
  0
LWPOLYLINE
  5
A6E
330
1F
100
AcDbEntity
  8
ceco.net 118
100
AcDbPolyline
 90
       16
 70
     0
 43
0.0
 10
109.5365056827722
 20
739.5454351138141
 10
165.4948369551857
 20
707.4688022513874
 10
199.1569276411246
 20
688.6369920805555
 10
256.2295928362436
 20
657.1440563887335
 10
302.3613985185511
 20
629.3759262778804
 10
349.0956037780051
 20
599.4401343524623
 10
379.3434601052286
 20
580.1431989188678
 10
383.0773426512314
 20
583.5151492498153
 10
414.0645924496856
 20
563.296350652763
 10
411.9096139297835
 20
551.3451293089929
 10
378.0148188154635
 20
571.8836552950778
 10
336.4107426650662
 20
594.9510712854134
 10
267.6077543618157
 20
634.4584493371804
 10
210.3937118839531
 20
668.4886140532763
 10
158.3010333208221
 20
703.2164725987786
 10
108.4953915495862
 20
730.87161937794
  0
LWPOLYLINE
  5
A6F
330
1F
100
AcDbEntity
  8
ceco.net 118
100
AcDbPolyline
 90
       35
 70
     0
 43
0.0
 10
413.2774419668203
 20
558.930919830873
 10
416.4828583102281
 20
557.3631890005526
 10
420.214235220119
 20
556.5566040449994
 10
424.6061761042438
 20
553.786313300443
 10
428.1812354598151
 20
552.221208095616
 10
430.7024442618057
 20
550.2047529579431
 10
433.7278761842026
 20
547.1800557490133
 10
437.0923844124264
 20
546.2145990980571
 10
439.7533704607122
 20
543.3496292919335
 10
445.5271026185437
 20
540.4249194353906
 10
450.367821653017
 20
543.7520878169016
 10
455.6119145269986
 20
545.6677143952766
 10
462.8835695533417
 20
544.1681941655953
 10
467.3867731272912
 20
542.5310644192359
 10
468.4102454279127
 20
538.2336097105327
 10
469.2290139486067
 20
534.3454301869678
 10
466.568004604669
 20
529.0247657617874
 10
464.1116990406589
 20
526.1597959556638
 10
459.6084954667094
 20
526.3644407994434
 10
454.0817962964865
 20
528.2062008881257
 10
449.578592722537
 20
530.0479754782645
 10
445.6894305956303
 20
529.0247657617874
 10
440.1627547210592
 20
530.8665403519262
 10
442.0049955443028
 20
535.368639904409
 10
438.9346019400181
 20
537.2103999930914
 10
435.0454631106913
 20
538.028964866753
 10
431.1563242775082
 20
540.8939346719125
 10
428.6854818797292
 20
543.8529018708869
 10
424.8532556850841
 20
545.3652432246236
 10
423.2396671425158
 20
547.4825269196663
 10
420.7170372749169
 20
547.8517288444163
 10
419.1049163931165
 20
549.39816800239
 10
415.8777626055598
 20
549.599810615673
 10
414.1668890997243
 20
551.5352635242016
 10
411.9096139297835
 20
551.3451293089929
  0
LWPOLYLINE
  5
A70
330
1F
100
AcDbEntity
  8
ceco.net 118
100
AcDbPolyline
 90
       16
 70
     0
 43
0.0
 10
451.4771404800194
 20
535.7870668187389
 10
454.2000478476621
 20
538.6101069119649
 10
456.5195580801446
 20
539.9208056514545
 10
457.8305754747271
 20
540.1224482647376
 10
460.4526335576156
 20
539.8199915974692
 10
461.6628016693721
 20
539.6183344808014
 10
462.9738190639546
 20
538.5092928570156
 10
463.1755176296065
 20
537.7027079014624
 10
463.2763669162886
 20
536.6944803326259
 10
463.0746683467806
 20
535.2829530348026
 10
462.5704452244463
 20
534.3755395209155
 10
460.8560306947038
 20
533.8714257369793
 10
458.8390683126272
 20
533.8714257369793
 10
454.7042942675761
 20
534.7788392508664
 10
452.5864826026736
 20
535.3837815921724
 10
451.4771404800194
 20
535.7870668187389
  0
LWPOLYLINE
  5
A71
330
1F
100
AcDbEntity
  8
ceco.net 118
100
AcDbPolyline
 90
       25
 70
     0
 43
0.0
 10
469.1415659975246
 20
534.7607042598428
 10
476.1655530282587
 20
534.4063885342257
 10
480.7446090529629
 20
533.3890672507004
 10
482.5253711838741
 20
533.7705681709121
 10
485.7052802616818
 20
533.0075808338733
 10
488.2492028659545
 20
531.7359401072463
 10
491.0475200592555
 20
531.3544391879986
 10
494.3546264306132
 20
529.8284645139211
 10
496.1353885595963
 20
528.6839762566706
 10
499.6968895238388
 20
528.1753228661182
 10
502.2408121281114
 20
526.0135278296911
 10
507.0742627418439
 20
525.6320269094795
 10
510.5085664106081
 20
523.5973988458136
 10
513.9428700793724
 20
523.3430648993271
 10
518.2675548106999
 20
521.5627562787631
 10
523.7369919037519
 20
520.291115552136
 10
529.4608235839041
 20
518.8923078517837
 10
533.4039164326533
 20
516.4761788688702
 10
536.3294309214325
 20
515.4588575843809
 10
542.5620517815697
 20
514.5687032745809
 10
547.1411311038537
 20
512.4069082381538
 10
552.356173604021
 20
510.7537665903509
 10
555.9176745682634
 20
509.1006249444762
 10
559.9879647105626
 20
507.5746502703987
 10
566.347782866178
 20
506.8116629333599
  0
LWPOLYLINE
  5
A72
330
1F
100
AcDbEntity
  8
ceco.net 118
100
AcDbPolyline
 90
       24
 70
     0
 43
0.0
 10
465.6082474329378
 20
527.6666694765299
 10
471.2048818195398
 20
526.6493481939687
 10
474.0031990128409
 20
525.7591938832047
 10
479.5998566950948
 20
526.1406948034164
 10
484.9420964907404
 20
524.2332192091271
 10
488.3764001595046
 20
523.8517182898795
 10
495.1178101996266
 20
521.4355893050378
 10
496.2625858570027
 20
518.7651408780584
 10
500.2056554081718
 20
518.1293205147449
 10
504.784734730456
 20
515.5860245581062
 10
507.9646438082636
 20
515.4588575843809
 10
511.7805393615344
 20
513.9328829112673
 10
517.7587656326432
 20
513.2970625479538
 10
522.9738081347387
 20
510.8809335640763
 10
528.824860406021
 20
510.1179462270374
 10
533.9127056126382
 20
510.2450986973781
 10
538.7461562282988
 20
507.193149350187
 10
544.0884193215242
 20
507.0659823774258
 10
546.3779473329123
 20
505.6671746770735
 10
549.3034618236197
 20
503.7597135871329
 10
553.6281465549473
 20
502.9967117467094
 10
558.3343998751297
 20
501.7250710200825
 10
561.5143089548655
 20
500.1990963460047
 10
563.9310575593117
 20
499.436109008966
  0
ARC
  5
A73
330
1F
100
AcDbEntity
  8
ceco.net 118
100
AcDbCircle
 10
641.9309185929161
 20
552.9477876433884
 30
0.0
 40
6.509757887031097
100
AcDbArc
 50
148.2601037524795
 51
290.4349171204875
  0
LWPOLYLINE
  5
A74
330
1F
100
AcDbEntity
  8
ceco.net 118
100
AcDbPolyline
 90
        6
 70
     0
 43
0.0
 10
676.7046917950574
 20
490.1338187998408
 10
680.4530283462736
 20
490.9145294531299
 10
685.9193670405147
 20
492.1636606974244
 10
690.2924147017984
 20
490.758384421988
 10
687.4811681132633
 20
488.5724119966471
 10
685.2946326347956
 20
486.6987006258569
  0
LWPOLYLINE
  5
A75
330
1F
100
AcDbEntity
  8
ceco.net 118
100
AcDbPolyline
 90
       14
 70
     0
 43
0.0
 10
672.9563552438412
 20
491.5390950752771
 10
671.5507319495737
 20
497.1602001779865
 10
673.5810896514887
 20
501.532159533017
 10
678.4226939419386
 20
505.7479883593259
 10
685.1384548563146
 20
508.0901203201574
 10
690.4485924783512
 20
508.8708309744106
 10
695.2901967688013
 20
508.5585409111627
 10
699.6632444281567
 20
508.7146859432687
 10
704.036315383164
 20
507.9339752890155
 10
711.5329884855964
 20
504.3427120838897
 10
714.3442350741316
 20
499.346187106712
 10
715.4375028114373
 20
495.4426338393022
 10
714.5004128506845
 20
490.4461088621246
 10
712.3138773722168
 20
487.635556311252
  0
LWPOLYLINE
  5
A76
330
1F
100
AcDbEntity
  8
ceco.net 118
100
AcDbPolyline
 90
       18
 70
     0
 43
0.0
 10
631.2561431580252
 20
482.6390168306899
 10
633.2865008599402
 20
477.4863468223703
 10
635.9415696699943
 20
472.6459523729499
 10
638.284259629363
 20
470.1476898843611
 10
640.3146173312779
 20
468.7424136089249
 10
645.3123993963528
 20
464.995005372657
 10
649.8416248341891
 20
462.4967428840682
 10
658.9001223030936
 20
459.9984803954794
 10
664.8349710351977
 20
460.9353215765259
 10
672.4878219122547
 20
462.6528879152102
 10
678.7350494950442
 20
461.716032229815
 10
687.0126114840968
 20
460.1546109232367
 10
691.0733268859985
 20
459.6861903322315
 10
701.225068794629
 20
459.5300453010896
 10
709.3464530071287
 20
457.9686384969318
 10
717.3116594392196
 20
458.4370590889012
 10
722.7779748397369
 20
457.1879278446068
 10
724.9645103182047
 20
460.6230460176266
  0
LWPOLYLINE
  5
A77
330
1F
100
AcDbEntity
  8
ceco.net 118
100
AcDbPolyline
 90
       17
 70
     0
 43
0.0
 10
661.3944472538787
 20
460.39222022584
 10
662.9608144074154
 20
452.1913883640445
 10
664.8349710351977
 20
446.5702977637556
 10
667.8023954022137
 20
443.4474551505991
 10
671.3945541730209
 20
438.1386401101736
 10
675.2990685007898
 20
432.98597010089
 10
680.3137636158863
 20
428.5776793982223
 10
685.7800790144756
 20
426.7039825308166
 10
693.9014632231192
 20
425.7671268463854
 10
701.8666929527898
 20
427.6408237128271
 10
707.8015416848939
 20
429.3583900505473
 10
711.8622337911439
 20
431.075941886811
 10
714.517302601198
 20
439.5075995403931
 10
717.7971058188997
 20
444.8164145808187
 10
718.2656391524142
 20
449.9690845891382
 10
719.2027291131672
 20
453.716492825406
 10
719.366926382172
 20
457.9674011983843
  0
LWPOLYLINE
  5
A78
330
1F
100
AcDbEntity
  8
ceco.net 118
100
AcDbPolyline
 90
        2
 70
     0
 43
0.0
 10
688.7475033795635
 20
458.5568872748263
 10
689.21606000873
 20
439.9760201313983
  0
LWPOLYLINE
  5
A79
330
1F
100
AcDbEntity
  8
ceco.net 118
100
AcDbPolyline
 90
        6
 70
     0
 43
0.0
 10
623.8343673672716
 20
554.2259878891491
 10
632.9599579116984
 20
562.5199199980126
 10
639.1819557020426
 20
565.5610352060468
 10
646.5101040355512
 20
565.0081025311556
 10
655.2209056011633
 20
563.6257853477945
 10
662.1342416563493
 20
559.3405861243992
  0
LWPOLYLINE
  5
A7A
330
1F
100
AcDbEntity
  8
ceco.net 118
100
AcDbPolyline
 90
        7
 70
     0
 43
0.0
 10
606.9458280636173
 20
542.7153027926578
 10
611.1928665346567
 20
562.6015603828274
 10
615.9606218447517
 20
572.3855999293301
 10
625.2452323065881
 20
585.932740534263
 10
634.2789193144199
 20
595.4659124788668
 10
645.0691403949532
 20
601.9886151784703
 10
651.5934530734011
 20
604.2464671114976
  0
LINE
  5
A7B
330
1F
100
AcDbEntity
  8
ceco.net 118
100
AcDbLine
 10
577.3165693806368
 20
489.3466685772728
 30
0.0
 11
574.8072183488329
 21
499.1307226271602
 31
0.0
  0
LINE
  5
A7C
330
1F
100
AcDbEntity
  8
ceco.net 118
100
AcDbLine
 10
574.8072183488329
 20
499.1307226271602
 30
0.0
 11
573.3016077301364
 21
506.6569102406356
 31
0.0
  0
LINE
  5
A7D
330
1F
100
AcDbEntity
  8
ceco.net 118
100
AcDbLine
 10
573.3016077301364
 20
506.6569102406356
 30
0.0
 11
570.541309950604
 21
514.433965457938
 31
0.0
  0
LINE
  5
A7E
330
1F
100
AcDbEntity
  8
ceco.net 118
100
AcDbLine
 10
570.541309950604
 20
514.433965457938
 30
0.0
 11
569.0356993319075
 21
523.4653876934317
 31
0.0
  0
LINE
  5
A7F
330
1F
100
AcDbEntity
  8
ceco.net 118
100
AcDbLine
 10
569.0356993319075
 20
523.4653876934317
 30
0.0
 11
562.7623101074641
 21
536.009028881108
 31
0.0
  0
LINE
  5
A80
330
1F
100
AcDbEntity
  8
ceco.net 118
100
AcDbLine
 10
562.7623101074641
 20
536.009028881108
 30
0.0
 11
559.5001421184861
 21
547.2983175530134
 31
0.0
  0
LINE
  5
A81
330
1F
100
AcDbEntity
  8
ceco.net 118
100
AcDbLine
 10
559.5001421184861
 20
547.2983175530134
 30
0.0
 11
556.4889208810927
 21
555.0753727693518
 31
0.0
  0
LINE
  5
A82
330
1F
100
AcDbEntity
  8
ceco.net 118
100
AcDbLine
 10
556.4889208810927
 20
555.0753727693518
 30
0.0
 11
558.9982719128966
 21
564.6085447129917
 31
0.0
  0
LINE
  5
A83
330
1F
100
AcDbEntity
  8
ceco.net 118
100
AcDbLine
 10
558.9982719128966
 20
564.6085447129917
 30
0.0
 11
560.2529590756603
 21
572.1347323274312
 31
0.0
  0
LINE
  5
A84
330
1F
100
AcDbEntity
  8
ceco.net 118
100
AcDbLine
 10
560.2529590756603
 20
572.1347323274312
 30
0.0
 11
563.7660505186431
 21
577.1521859006679
 31
0.0
  0
LINE
  5
A85
330
1F
100
AcDbEntity
  8
ceco.net 118
100
AcDbLine
 10
563.7660505186431
 20
577.1521859006679
 30
0.0
 11
567.7810121672155
 21
579.6609199409068
 31
0.0
  0
LINE
  5
A86
330
1F
100
AcDbEntity
  8
ceco.net 118
100
AcDbLine
 10
567.7810121672155
 20
579.6609199409068
 30
0.0
 11
577.8184395862264
 21
580.1626696480889
 31
0.0
  0
LINE
  5
A87
330
1F
100
AcDbEntity
  8
ceco.net 118
100
AcDbLine
 10
577.8184395862264
 20
580.1626696480889
 30
0.0
 11
591.8708286538094
 21
590.9502086128123
 31
0.0
  0
LINE
  5
A88
330
1F
100
AcDbEntity
  8
ceco.net 118
100
AcDbLine
 10
591.8708286538094
 20
590.9502086128123
 30
0.0
 11
599.6498284969493
 21
594.7132951678577
 31
0.0
  0
LINE
  5
A89
330
1F
100
AcDbEntity
  8
ceco.net 118
100
AcDbLine
 10
599.6498284969493
 20
594.7132951678577
 30
0.0
 11
607.1778815904328
 21
598.7272638281865
 31
0.0
  0
LINE
  5
A8A
330
1F
100
AcDbEntity
  8
ceco.net 118
100
AcDbLine
 10
607.1778815904328
 20
598.7272638281865
 30
0.0
 11
611.9456601961792
 21
605.500834130653
 31
0.0
  0
LINE
  5
A8B
330
1F
100
AcDbEntity
  8
ceco.net 118
100
AcDbLine
 10
611.9456601961792
 20
605.500834130653
 30
0.0
 11
616.7134388019259
 21
607.5078184617814
 31
0.0
  0
LINE
  5
A8C
330
1F
100
AcDbEntity
  8
ceco.net 118
100
AcDbLine
 10
616.7134388019259
 20
607.5078184617814
 30
0.0
 11
622.4849578227077
 21
606.2534514416621
 31
0.0
  0
LINE
  5
A8D
330
1F
100
AcDbEntity
  8
ceco.net 118
100
AcDbLine
 10
622.4849578227077
 20
606.2534514416621
 30
0.0
 11
631.5186215310315
 21
608.2604357727904
 31
0.0
  0
LINE
  5
A8E
330
1F
100
AcDbEntity
  8
ceco.net 118
100
AcDbLine
 10
631.5186215310315
 20
608.2604357727904
 30
0.0
 11
645.0691403949532
 21
610.5182877058179
 31
0.0
  0
LINE
  5
A8F
330
1F
100
AcDbEntity
  8
ceco.net 118
100
AcDbLine
 10
645.0691403949532
 20
610.5182877058179
 30
0.0
 11
655.8593614754864
 21
611.2709050168269
 31
0.0
  0
LINE
  5
A90
330
1F
100
AcDbEntity
  8
ceco.net 118
100
AcDbLine
 10
655.8593614754864
 20
611.2709050168269
 30
0.0
 11
674.6795291488161
 21
613.5287714532388
 31
0.0
  0
LINE
  5
A91
330
1F
100
AcDbEntity
  8
ceco.net 118
100
AcDbLine
 10
674.6795291488161
 20
613.5287714532388
 30
0.0
 11
690.4884522891006
 21
611.2709050168269
 31
0.0
  0
LINE
  5
A92
330
1F
100
AcDbEntity
  8
ceco.net 118
100
AcDbLine
 10
690.4884522891006
 20
611.2709050168269
 30
0.0
 11
706.7992689344828
 21
611.020037413964
 31
0.0
  0
LINE
  5
A93
330
1F
100
AcDbEntity
  8
ceco.net 118
100
AcDbLine
 10
706.7992689344828
 20
611.020037413964
 30
0.0
 11
719.847894293307
 21
613.5287714532388
 31
0.0
  0
LINE
  5
A94
330
1F
100
AcDbEntity
  8
ceco.net 118
100
AcDbLine
 10
719.847894293307
 20
613.5287714532388
 30
0.0
 11
728.6306345495541
 21
607.5078184617814
 31
0.0
  0
LINE
  5
A95
330
1F
100
AcDbEntity
  8
ceco.net 118
100
AcDbLine
 10
728.6306345495541
 20
607.5078184617814
 30
0.0
 11
739.1699321741543
 21
609.5148027919459
 31
0.0
  0
LINE
  5
A96
330
1F
100
AcDbEntity
  8
ceco.net 118
100
AcDbLine
 10
739.1699321741543
 20
609.5148027919459
 30
0.0
 11
742.933970368722
 21
602.7412324894795
 31
0.0
  0
LINE
  5
A97
330
1F
100
AcDbEntity
  8
ceco.net 118
100
AcDbLine
 10
742.933970368722
 20
602.7412324894795
 30
0.0
 11
755.982619025126
 21
592.204561128583
 31
0.0
  0
LINE
  5
A98
330
1F
100
AcDbEntity
  8
ceco.net 118
100
AcDbLine
 10
755.982619025126
 20
592.204561128583
 30
0.0
 11
769.0312443839503
 21
583.1731388921252
 31
0.0
  0
LINE
  5
A99
330
1F
100
AcDbEntity
  8
ceco.net 118
100
AcDbLine
 10
769.0312443839503
 20
583.1731388921252
 30
0.0
 11
782.5817632459439
 21
577.4030680078795
 31
0.0
  0
LINE
  5
A9A
330
1F
100
AcDbEntity
  8
ceco.net 118
100
AcDbLine
 10
782.5817632459439
 20
577.4030680078795
 30
0.0
 11
787.0985951020339
 21
568.8733809761834
 31
0.0
  0
LINE
  5
A9B
330
1F
100
AcDbEntity
  8
ceco.net 118
100
AcDbLine
 10
787.0985951020339
 20
568.8733809761834
 30
0.0
 11
790.3607630890838
 21
559.8419587406897
 31
0.0
  0
LINE
  5
A9C
330
1F
100
AcDbEntity
  8
ceco.net 118
100
AcDbLine
 10
790.3607630890838
 20
559.8419587406897
 30
0.0
 11
791.113580046258
 21
548.0509348640225
 31
0.0
  0
LINE
  5
A9D
330
1F
100
AcDbEntity
  8
ceco.net 118
100
AcDbLine
 10
791.113580046258
 20
548.0509348640225
 30
0.0
 11
789.6079694275614
 21
538.5177629203826
 31
0.0
  0
LINE
  5
A9E
330
1F
100
AcDbEntity
  8
ceco.net 118
100
AcDbLine
 10
789.6079694275614
 20
538.5177629203826
 30
0.0
 11
784.8401908218147
 21
523.2145200905689
 31
0.0
  0
LINE
  5
A9F
330
1F
100
AcDbEntity
  8
ceco.net 118
100
AcDbLine
 10
784.8401908218147
 20
523.2145200905689
 30
0.0
 11
775.8065038139831
 21
513.4304660397174
 31
0.0
  0
LINE
  5
AA0
330
1F
100
AcDbEntity
  8
ceco.net 118
100
AcDbLine
 10
775.8065038139831
 20
513.4304660397174
 30
0.0
 11
769.7840613411245
 21
504.9007935133341
 31
0.0
  0
LINE
  5
AA1
330
1F
100
AcDbEntity
  8
ceco.net 118
100
AcDbLine
 10
769.7840613411245
 20
504.9007935133341
 30
0.0
 11
762.0050614979846
 21
499.1307226271602
 31
0.0
  0
LINE
  5
AA2
330
1F
100
AcDbEntity
  8
ceco.net 118
100
AcDbLine
 10
762.0050614979846
 20
499.1307226271602
 30
0.0
 11
767.5256337652536
 21
485.0818323140812
 31
0.0
  0
LINE
  5
AA3
330
1F
100
AcDbEntity
  8
ceco.net 118
100
AcDbLine
 10
767.5256337652536
 20
485.0818323140812
 30
0.0
 11
762.2559849539174
 21
479.8134966336329
 31
0.0
  0
LINE
  5
AA4
330
1F
100
AcDbEntity
  8
ceco.net 118
100
AcDbLine
 10
762.2559849539174
 20
479.8134966336329
 30
0.0
 11
757.7391530978276
 21
483.0748479839167
 31
0.0
  0
LINE
  5
AA5
330
1F
100
AcDbEntity
  8
ceco.net 118
100
AcDbLine
 10
757.7391530978276
 20
483.0748479839167
 30
0.0
 11
754.7279318604341
 21
484.8309647112182
 31
0.0
  0
LINE
  5
AA6
330
1F
100
AcDbEntity
  8
ceco.net 118
100
AcDbLine
 10
754.7279318604341
 20
484.8309647112182
 30
0.0
 11
756.798335742169
 21
457.6235124364393
 31
0.0
  0
LINE
  5
AA7
330
1F
100
AcDbEntity
  8
ceco.net 118
100
AcDbLine
 10
756.798335742169
 20
457.6235124364393
 30
0.0
 11
753.7871145047757
 21
430.027496021812
 31
0.0
  0
LINE
  5
AA8
330
1F
100
AcDbEntity
  8
ceco.net 118
100
AcDbLine
 10
753.7871145047757
 20
430.027496021812
 30
0.0
 11
751.5286869308329
 21
418.4873397470438
 31
0.0
  0
LINE
  5
AA9
330
1F
100
AcDbEntity
  8
ceco.net 118
100
AcDbLine
 10
751.5286869308329
 20
418.4873397470438
 30
0.0
 11
754.5399081662981
 21
403.936714229203
 31
0.0
  0
LINE
  5
AAA
330
1F
100
AcDbEntity
  8
ceco.net 118
100
AcDbLine
 10
754.5399081662981
 20
403.936714229203
 30
0.0
 11
756.2964655365795
 21
390.8913233314524
 31
0.0
  0
LINE
  5
AAB
330
1F
100
AcDbEntity
  8
ceco.net 118
100
AcDbLine
 10
756.2964655365795
 20
390.8913233314524
 30
0.0
 11
757.0492591981019
 21
381.3581513878125
 31
0.0
  0
LINE
  5
AAC
330
1F
100
AcDbEntity
  8
ceco.net 118
100
AcDbLine
 10
757.0492591981019
 20
381.3581513878125
 30
0.0
 11
757.3002059496867
 21
374.0828313771999
 31
0.0
  0
LINE
  5
AAD
330
1F
100
AcDbEntity
  8
ceco.net 118
100
AcDbLine
 10
757.3002059496867
 20
374.0828313771999
 30
0.0
 11
760.3309960011756
 21
346.0980187647147
 31
0.0
  0
LINE
  5
AAE
330
1F
100
AcDbEntity
  8
ceco.net 118
100
AcDbLine
 10
760.3309960011756
 20
346.0980187647147
 30
0.0
 11
760.3309960011756
 21
319.7563548658581
 31
0.0
  0
LINE
  5
AAF
330
1F
100
AcDbEntity
  8
ceco.net 118
100
AcDbLine
 10
760.3309960011756
 20
319.7563548658581
 30
0.0
 11
755.3122939394961
 21
292.9129557612759
 31
0.0
  0
LINE
  5
AB0
330
1F
100
AcDbEntity
  8
ceco.net 118
100
AcDbLine
 10
755.3122939394961
 20
292.9129557612759
 30
0.0
 11
750.5445153318215
 21
273.846611873032
 31
0.0
  0
LINE
  5
AB1
330
1F
100
AcDbEntity
  8
ceco.net 118
100
AcDbLine
 10
750.5445153318215
 20
273.846611873032
 30
0.0
 11
745.2748665204853
 21
260.0486036652364
 31
0.0
  0
LINE
  5
AB2
330
1F
100
AcDbEntity
  8
ceco.net 118
100
AcDbLine
 10
745.2748665204853
 20
260.0486036652364
 30
0.0
 11
743.0164389446145
 21
247.755830080423
 31
0.0
  0
LINE
  5
AB3
330
1F
100
AcDbEntity
  8
ceco.net 118
100
AcDbLine
 10
743.0164389446145
 20
247.755830080423
 30
0.0
 11
742.263645283092
 21
225.6790169471787
 31
0.0
  0
LINE
  5
AB4
330
1F
100
AcDbEntity
  8
ceco.net 118
100
AcDbLine
 10
742.263645283092
 20
225.6790169471787
 30
0.0
 11
738.508715906246
 21
192.4180222441282
 31
0.0
  0
LINE
  5
AB5
330
1F
100
AcDbEntity
  8
ceco.net 118
100
AcDbLine
 10
738.508715906246
 20
192.4180222441282
 30
0.0
 11
734.4937542576736
 21
175.8604123951591
 31
0.0
  0
LINE
  5
AB6
330
1F
100
AcDbEntity
  8
ceco.net 118
100
AcDbLine
 10
734.4937542576736
 20
175.8604123951591
 30
0.0
 11
733.9918840501559
 21
155.0379517786495
 31
0.0
  0
LINE
  5
AB7
330
1F
100
AcDbEntity
  8
ceco.net 118
100
AcDbLine
 10
733.9918840501559
 20
155.0379517786495
 30
0.0
 11
735.3813164808161
 21
102.6168162794056
 31
0.0
  0
LINE
  5
AB8
330
1F
100
AcDbEntity
  8
ceco.net 118
100
AcDbLine
 10
735.3813164808161
 20
102.6168162794056
 30
0.0
 11
736.9885218624768
 21
94.21197565772672
 31
0.0
  0
LINE
  5
AB9
330
1F
100
AcDbEntity
  8
ceco.net 118
100
AcDbLine
 10
736.9885218624768
 20
94.21197565772672
 30
0.0
 11
736.9885218624768
 21
85.06552590577484
 31
0.0
  0
LINE
  5
ABA
330
1F
100
AcDbEntity
  8
ceco.net 118
100
AcDbLine
 10
736.9885218624768
 20
85.06552590577484
 30
0.0
 11
737.6066867362896
 21
77.89667632601776
 31
0.0
  0
LINE
  5
ABB
330
1F
100
AcDbEntity
  8
ceco.net 118
100
AcDbLine
 10
737.6066867362896
 20
77.89667632601776
 30
0.0
 11
739.9556899696109
 21
71.59304948632779
 31
0.0
  0
LINE
  5
ABC
330
1F
100
AcDbEntity
  8
ceco.net 118
100
AcDbLine
 10
739.9556899696109
 20
71.59304948632779
 30
0.0
 11
741.9337942771017
 21
63.80620438512778
 31
0.0
  0
LINE
  5
ABD
330
1F
100
AcDbEntity
  8
ceco.net 118
100
AcDbLine
 10
741.9337942771017
 20
63.80620438512778
 30
0.0
 11
750.4678242163936
 21
50.65785291126304
 31
0.0
  0
LINE
  5
ABE
330
1F
100
AcDbEntity
  8
ceco.net 118
100
AcDbLine
 10
750.4678242163936
 20
50.65785291126304
 30
0.0
 11
755.165807385456
 21
42.99460691454442
 31
0.0
  0
LINE
  5
ABF
330
1F
100
AcDbEntity
  8
ceco.net 118
100
AcDbLine
 10
755.165807385456
 20
42.99460691454442
 30
0.0
 11
763.6963894853762
 21
38.66859475139791
 31
0.0
  0
LINE
  5
AC0
330
1F
100
AcDbEntity
  8
ceco.net 118
100
AcDbLine
 10
763.6963894853762
 20
38.66859475139791
 30
0.0
 11
770.8670088598227
 21
32.85934982432081
 31
0.0
  0
LINE
  5
AC1
330
1F
100
AcDbEntity
  8
ceco.net 118
100
AcDbLine
 10
770.8670088598227
 20
32.85934982432081
 30
0.0
 11
774.5759515229656
 21
27.29731760959111
 31
0.0
  0
LINE
  5
AC2
330
1F
100
AcDbEntity
  8
ceco.net 118
100
AcDbLine
 10
774.5759515229656
 20
27.29731760959111
 30
0.0
 11
776.3068131742694
 21
23.21850365444334
 31
0.0
  0
LINE
  5
AC3
330
1F
100
AcDbEntity
  8
ceco.net 118
100
AcDbLine
 10
776.3068131742694
 20
23.21850365444334
 30
0.0
 11
777.7903855819387
 21
18.27446696115657
 31
0.0
  0
LINE
  5
AC4
330
1F
100
AcDbEntity
  8
ceco.net 118
100
AcDbLine
 10
777.7903855819387
 20
18.27446696115657
 30
0.0
 11
777.91401855593
 21
14.56645032041706
 31
0.0
  0
LINE
  5
AC5
330
1F
100
AcDbEntity
  8
ceco.net 118
100
AcDbLine
 10
777.91401855593
 20
14.56645032041706
 30
0.0
 11
774.3287088687066
 21
11.47642920015641
 31
0.0
  0
LINE
  5
AC6
330
1F
100
AcDbEntity
  8
ceco.net 118
100
AcDbLine
 10
774.3287088687066
 20
11.47642920015641
 30
0.0
 11
767.0344332226886
 21
10.11682454747642
 31
0.0
  0
LINE
  5
AC7
330
1F
100
AcDbEntity
  8
ceco.net 118
100
AcDbLine
 10
767.0344332226886
 20
10.11682454747642
 30
0.0
 11
754.7949317552776
 21
7.644813453007373
 31
0.0
  0
LINE
  5
AC8
330
1F
100
AcDbEntity
  8
ceco.net 118
100
AcDbLine
 10
754.7949317552776
 20
7.644813453007373
 30
0.0
 11
741.1954442628848
 21
7.892011661970173
 31
0.0
  0
LINE
  5
AC9
330
1F
100
AcDbEntity
  8
ceco.net 118
100
AcDbLine
 10
741.1954442628848
 20
7.892011661970173
 30
0.0
 11
727.3487141181614
 21
7.768412557488773
 31
0.0
  0
LINE
  5
ACA
330
1F
100
AcDbEntity
  8
ceco.net 118
100
AcDbLine
 10
727.3487141181614
 20
7.768412557488773
 30
0.0
 11
717.0873169582409
 21
9.498829026033492
 31
0.0
  0
LINE
  5
ACB
330
1F
100
AcDbEntity
  8
ceco.net 118
100
AcDbLine
 10
717.0873169582409
 20
9.498829026033492
 30
0.0
 11
714.1201488491788
 21
11.7236419125038
 31
0.0
  0
LINE
  5
ACC
330
1F
100
AcDbEntity
  8
ceco.net 118
100
AcDbLine
 10
714.1201488491788
 20
11.7236419125038
 30
0.0
 11
714.3674147990895
 21
16.66766410144191
 31
0.0
  0
LINE
  5
ACD
330
1F
100
AcDbEntity
  8
ceco.net 118
100
AcDbLine
 10
714.3674147990895
 20
16.66766410144191
 30
0.0
 11
711.7711456177858
 21
24.45450920167786
 31
0.0
  0
LINE
  5
ACE
330
1F
100
AcDbEntity
  8
ceco.net 118
100
AcDbLine
 10
711.7711456177858
 20
24.45450920167786
 30
0.0
 11
709.2985327061252
 21
33.72455805907521
 31
0.0
  0
LINE
  5
ACF
330
1F
100
AcDbEntity
  8
ceco.net 118
100
AcDbLine
 10
709.2985327061252
 20
33.72455805907521
 30
0.0
 11
706.2077316249997
 21
42.62380960206428
 31
0.0
  0
LINE
  5
AD0
330
1F
100
AcDbEntity
  8
ceco.net 118
100
AcDbLine
 10
706.2077316249997
 20
42.62380960206428
 30
0.0
 11
704.6005262433391
 21
50.78145201574443
 31
0.0
  0
LINE
  5
AD1
330
1F
100
AcDbEntity
  8
ceco.net 118
100
AcDbLine
 10
704.6005262433391
 20
50.78145201574443
 30
0.0
 11
708.0622029546431
 21
62.02911554872116
 31
0.0
  0
LINE
  5
AD2
330
1F
100
AcDbEntity
  8
ceco.net 118
100
AcDbLine
 10
708.0622029546431
 20
62.02911554872116
 30
0.0
 11
704.7241592173304
 21
75.37799286368683
 31
0.0
  0
LINE
  5
AD3
330
1F
100
AcDbEntity
  8
ceco.net 118
100
AcDbLine
 10
704.7241592173304
 20
75.37799286368683
 30
0.0
 11
699.2843781985357
 21
90.08647483133247
 31
0.0
  0
LINE
  5
AD4
330
1F
100
AcDbEntity
  8
ceco.net 118
100
AcDbLine
 10
699.2843781985357
 20
90.08647483133247
 30
0.0
 11
698.4189473728839
 21
102.5701439115437
 31
0.0
  0
LINE
  5
AD5
330
1F
100
AcDbEntity
  8
ceco.net 118
100
AcDbLine
 10
698.4189473728839
 20
102.5701439115437
 30
0.0
 11
698.3718657384817
 21
112.2282953581452
 31
0.0
  0
LINE
  5
AD6
330
1F
100
AcDbEntity
  8
ceco.net 118
100
AcDbLine
 10
698.3718657384817
 20
112.2282953581452
 30
0.0
 11
695.6519635793301
 21
135.5888306588531
 31
0.0
  0
LINE
  5
AD7
330
1F
100
AcDbEntity
  8
ceco.net 118
100
AcDbLine
 10
695.6519635793301
 20
135.5888306588531
 30
0.0
 11
692.9460391467364
 21
171.7629904076602
 31
0.0
  0
LINE
  5
AD8
330
1F
100
AcDbEntity
  8
ceco.net 118
100
AcDbLine
 10
692.9460391467364
 20
171.7629904076602
 30
0.0
 11
689.7810629384184
 21
194.7032713502267
 31
0.0
  0
LINE
  5
AD9
330
1F
100
AcDbEntity
  8
ceco.net 118
100
AcDbLine
 10
689.7810629384184
 20
194.7032713502267
 30
0.0
 11
687.8029586328557
 21
208.3487894164318
 31
0.0
  0
LINE
  5
ADA
330
1F
100
AcDbEntity
  8
ceco.net 118
100
AcDbLine
 10
687.8029586328557
 20
208.3487894164318
 30
0.0
 11
687.8029586328557
 21
215.0726706161913
 31
0.0
  0
LINE
  5
ADB
330
1F
100
AcDbEntity
  8
ceco.net 118
100
AcDbLine
 10
687.8029586328557
 20
215.0726706161913
 30
0.0
 11
688.3963829344793
 21
222.7853446508379
 31
0.0
  0
LINE
  5
ADC
330
1F
100
AcDbEntity
  8
ceco.net 118
100
AcDbLine
 10
688.3963829344793
 20
222.7853446508379
 30
0.0
 11
686.8138948293562
 21
225.3562408308244
 31
0.0
  0
LINE
  5
ADD
330
1F
100
AcDbEntity
  8
ceco.net 118
100
AcDbLine
 10
686.8138948293562
 20
225.3562408308244
 30
0.0
 11
682.2642619146791
 21
229.7069815182476
 31
0.0
  0
LINE
  5
ADE
330
1F
100
AcDbEntity
  8
ceco.net 118
100
AcDbLine
 10
682.2642619146791
 20
229.7069815182476
 30
0.0
 11
676.5277570972466
 21
229.5092258515615
 31
0.0
  0
LINE
  5
ADF
330
1F
100
AcDbEntity
  8
ceco.net 118
100
AcDbLine
 10
676.5277570972466
 20
229.5092258515615
 30
0.0
 11
670.1978279762625
 21
227.3338555083319
 31
0.0
  0
LINE
  5
AE0
330
1F
100
AcDbEntity
  8
ceco.net 118
100
AcDbLine
 10
670.1978279762625
 20
227.3338555083319
 30
0.0
 11
654.7686330220677
 21
220.6099743085724
 31
0.0
  0
LINE
  5
AE1
330
1F
100
AcDbEntity
  8
ceco.net 118
100
AcDbLine
 10
654.7686330220677
 20
220.6099743085724
 30
0.0
 11
634.7897818556157
 21
216.4569892878353
 31
0.0
  0
LINE
  5
AE2
330
1F
100
AcDbEntity
  8
ceco.net 118
100
AcDbLine
 10
634.7897818556157
 20
216.4569892878353
 30
0.0
 11
609.2722339729152
 21
216.4569892878353
 31
0.0
  0
LINE
  5
AE3
330
1F
100
AcDbEntity
  8
ceco.net 118
100
AcDbLine
 10
609.2722339729152
 20
216.4569892878353
 30
0.0
 11
589.2933828083914
 21
217.6435667961777
 31
0.0
  0
LINE
  5
AE4
330
1F
100
AcDbEntity
  8
ceco.net 118
100
AcDbLine
 10
589.2933828083914
 20
217.6435667961777
 30
0.0
 11
584.7437498937142
 21
217.8413224618998
 31
0.0
  0
LINE
  5
AE5
330
1F
100
AcDbEntity
  8
ceco.net 118
100
AcDbLine
 10
584.7437498937142
 20
217.8413224618998
 30
0.0
 11
577.6225650723428
 21
215.2704262828774
 31
0.0
  0
LINE
  5
AE6
330
1F
100
AcDbEntity
  8
ceco.net 118
100
AcDbLine
 10
577.6225650723428
 20
215.2704262828774
 30
0.0
 11
570.8970197470626
 21
209.7331225914604
 31
0.0
  0
LINE
  5
AE7
330
1F
100
AcDbEntity
  8
ceco.net 118
100
AcDbLine
 10
570.8970197470626
 20
209.7331225914604
 30
0.0
 11
564.3393003057281
 21
202.3813109486582
 31
0.0
  0
LINE
  5
AE8
330
1F
100
AcDbEntity
  8
ceco.net 118
100
AcDbLine
 10
564.3393003057281
 20
202.3813109486582
 30
0.0
 11
560.9765392918781
 21
196.4484814214483
 31
0.0
  0
LINE
  5
AE9
330
1F
100
AcDbEntity
  8
ceco.net 118
100
AcDbLine
 10
560.9765392918781
 20
196.4484814214483
 30
0.0
 11
559.5918592879388
 21
188.7357928834171
 31
0.0
  0
LINE
  5
AEA
330
1F
100
AcDbEntity
  8
ceco.net 118
100
AcDbLine
 10
559.5918592879388
 20
188.7357928834171
 30
0.0
 11
557.0203306788243
 21
181.0231043444218
 31
0.0
  0
LINE
  5
AEB
330
1F
100
AcDbEntity
  8
ceco.net 118
100
AcDbLine
 10
557.0203306788243
 20
181.0231043444218
 30
0.0
 11
552.2728663673115
 21
166.3887934433296
 31
0.0
  0
LINE
  5
AEC
330
1F
100
AcDbEntity
  8
ceco.net 118
100
AcDbLine
 10
552.2728663673115
 20
166.3887934433296
 30
0.0
 11
548.118849653074
 21
147.6014830181156
 31
0.0
  0
LINE
  5
AED
330
1F
100
AcDbEntity
  8
ceco.net 118
100
AcDbLine
 10
548.118849653074
 20
147.6014830181156
 30
0.0
 11
544.7560886392238
 21
127.2320982545716
 31
0.0
  0
LINE
  5
AEE
330
1F
100
AcDbEntity
  8
ceco.net 118
100
AcDbLine
 10
544.7560886392238
 20
127.2320982545716
 30
0.0
 11
540.3844620474046
 21
100.0340852180488
 31
0.0
  0
LINE
  5
AEF
330
1F
100
AcDbEntity
  8
ceco.net 118
100
AcDbLine
 10
540.3844620474046
 20
100.0340852180488
 30
0.0
 11
537.4173172359225
 21
93.31021852070991
 31
0.0
  0
LINE
  5
AF0
330
1F
100
AcDbEntity
  8
ceco.net 118
100
AcDbLine
 10
537.4173172359225
 20
93.31021852070991
 30
0.0
 11
538.208549640658
 21
71.35873041399463
 31
0.0
  0
LINE
  5
AF1
330
1F
100
AcDbEntity
  8
ceco.net 118
100
AcDbLine
 10
538.208549640658
 20
71.35873041399463
 30
0.0
 11
539.5932296426691
 21
59.29530118854018
 31
0.0
  0
LINE
  5
AF2
330
1F
100
AcDbEntity
  8
ceco.net 118
100
AcDbLine
 10
539.5932296426691
 20
59.29530118854018
 30
0.0
 11
542.3625663529674
 21
49.40724230727938
 31
0.0
  0
LINE
  5
AF3
330
1F
100
AcDbEntity
  8
ceco.net 118
100
AcDbLine
 10
542.3625663529674
 20
49.40724230727938
 30
0.0
 11
545.1319263589176
 21
42.48560543986969
 31
0.0
  0
LINE
  5
AF4
330
1F
100
AcDbEntity
  8
ceco.net 118
100
AcDbLine
 10
545.1319263589176
 20
42.48560543986969
 30
0.0
 11
552.6487040870051
 21
36.55277591265985
 31
0.0
  0
LINE
  5
AF5
330
1F
100
AcDbEntity
  8
ceco.net 118
100
AcDbLine
 10
552.6487040870051
 20
36.55277591265985
 30
0.0
 11
557.9895927039979
 21
30.42219071779982
 31
0.0
  0
LINE
  5
AF6
330
1F
100
AcDbEntity
  8
ceco.net 118
100
AcDbLine
 10
557.9895927039979
 20
30.42219071779982
 30
0.0
 11
562.737033719859
 21
20.92965767233181
 31
0.0
  0
LINE
  5
AF7
330
1F
100
AcDbEntity
  8
ceco.net 118
100
AcDbLine
 10
562.737033719859
 20
20.92965767233181
 30
0.0
 11
563.5282894202464
 21
11.23935445679308
 31
0.0
  0
LINE
  5
AF8
330
1F
100
AcDbEntity
  8
ceco.net 118
100
AcDbLine
 10
563.5282894202464
 20
11.23935445679308
 30
0.0
 11
563.7260975233584
 21
6.09757660116884
 31
0.0
  0
LINE
  5
AF9
330
1F
100
AcDbEntity
  8
ceco.net 118
100
AcDbLine
 10
563.7260975233584
 20
6.09757660116884
 30
0.0
 11
562.650342225752
 21
5.510944880279567
 31
0.0
  0
LINE
  5
AFA
330
1F
100
AcDbEntity
  8
ceco.net 118
100
AcDbLine
 10
506.2272230427334
 20
5.510944880279567
 30
0.0
 11
495.8771268017517
 21
7.481895271848771
 31
0.0
  0
LINE
  5
AFB
330
1F
100
AcDbEntity
  8
ceco.net 118
100
AcDbLine
 10
495.8771268017517
 20
7.481895271848771
 30
0.0
 11
497.0639987025788
 21
17.96323565751663
 31
0.0
  0
LINE
  5
AFC
330
1F
100
AcDbEntity
  8
ceco.net 118
100
AcDbLine
 10
497.0639987025788
 20
17.96323565751663
 30
0.0
 11
504.1851602282986
 21
31.01547222027875
 31
0.0
  0
LINE
  5
AFD
330
1F
100
AcDbEntity
  8
ceco.net 118
100
AcDbLine
 10
504.1851602282986
 20
31.01547222027875
 30
0.0
 11
501.2180154168163
 21
38.53039059016737
 31
0.0
  0
LINE
  5
AFE
330
1F
100
AcDbEntity
  8
ceco.net 118
100
AcDbLine
 10
501.2180154168163
 20
38.53039059016737
 30
0.0
 11
499.8333354128772
 21
47.62739779984258
 31
0.0
  0
LINE
  5
AFF
330
1F
100
AcDbEntity
  8
ceco.net 118
100
AcDbLine
 10
499.8333354128772
 20
47.62739779984258
 30
0.0
 11
501.613631617256
 21
56.52664934283166
 31
0.0
  0
LINE
  5
B00
330
1F
100
AcDbEntity
  8
ceco.net 118
100
AcDbLine
 10
501.613631617256
 20
56.52664934283166
 30
0.0
 11
500.8223992144485
 21
67.00798972753545
 31
0.0
  0
LINE
  5
B01
330
1F
100
AcDbEntity
  8
ceco.net 118
100
AcDbLine
 10
500.8223992144485
 20
67.00798972753545
 30
0.0
 11
500.6245911132646
 21
76.69827843968962
 31
0.0
  0
LINE
  5
B02
330
1F
100
AcDbEntity
  8
ceco.net 118
100
AcDbLine
 10
500.6245911132646
 20
76.69827843968962
 30
0.0
 11
495.085894397016
 21
84.41096697772081
 31
0.0
  0
LINE
  5
B03
330
1F
100
AcDbEntity
  8
ceco.net 118
100
AcDbLine
 10
495.085894397016
 20
84.41096697772081
 30
0.0
 11
497.2618068037627
 21
93.70572985408216
 31
0.0
  0
LINE
  5
B04
330
1F
100
AcDbEntity
  8
ceco.net 118
100
AcDbLine
 10
497.2618068037627
 20
93.70572985408216
 30
0.0
 11
500.531099384716
 21
104.1054498457742
 31
0.0
  0
LINE
  5
B05
330
1F
100
AcDbEntity
  8
ceco.net 118
100
AcDbLine
 10
500.5310993808598
 20
104.1054498390258
 30
0.0
 11
500.1896975049385
 21
137.7271734842725
 31
0.0
  0
LINE
  5
B06
330
1F
100
AcDbEntity
  8
ceco.net 118
100
AcDbLine
 10
500.1896975049385
 20
137.7271734842725
 30
0.0
 11
501.3765694076938
 21
157.7010469144443
 31
0.0
  0
LINE
  5
B07
330
1F
100
AcDbEntity
  8
ceco.net 118
100
AcDbLine
 10
501.3765694076938
 20
157.7010469144443
 30
0.0
 11
504.9371618183795
 21
181.8278908619686
 31
0.0
  0
LINE
  5
B08
330
1F
100
AcDbEntity
  8
ceco.net 118
100
AcDbLine
 10
504.9371618183795
 20
181.8278908619686
 30
0.0
 11
506.9152428282905
 21
198.8353422763612
 31
0.0
  0
LINE
  5
B09
330
1F
100
AcDbEntity
  8
ceco.net 118
100
AcDbLine
 10
506.9152428282905
 20
198.8353422763612
 30
0.0
 11
508.8933471357814
 21
212.2831046758801
 31
0.0
  0
LINE
  5
B0A
330
1F
100
AcDbEntity
  8
ceco.net 118
100
AcDbLine
 10
508.8933471357814
 20
212.2831046758801
 30
0.0
 11
510.4526322164383
 21
235.5031877695364
 31
0.0
  0
LINE
  5
B0B
330
1F
100
AcDbEntity
  8
ceco.net 118
100
AcDbLine
 10
510.4526322164383
 20
235.5031877695364
 30
0.0
 11
515.2000732322996
 21
243.4136319742538
 31
0.0
  0
LINE
  5
B0C
330
1F
100
AcDbEntity
  8
ceco.net 118
100
AcDbLine
 10
515.2000732322996
 20
243.4136319742538
 30
0.0
 11
513.4197770279206
 21
259.6300462204453
 31
0.0
  0
LINE
  5
B0D
330
1F
100
AcDbEntity
  8
ceco.net 118
100
AcDbLine
 10
513.4197770279206
 20
259.6300462204453
 30
0.0
 11
508.6723360120595
 21
274.659897460715
 31
0.0
  0
LINE
  5
B0E
330
1F
100
AcDbEntity
  8
ceco.net 118
100
AcDbLine
 10
508.6723360120595
 20
274.659897460715
 30
0.0
 11
506.1114071751581
 21
293.1275355247271
 31
0.0
  0
LINE
  5
B0F
330
1F
100
AcDbEntity
  8
ceco.net 118
100
AcDbLine
 10
506.1114071751581
 20
293.1275355247271
 30
0.0
 11
506.1114071751581
 21
302.6200685711592
 31
0.0
  0
LINE
  5
B10
330
1F
100
AcDbEntity
  8
ceco.net 118
100
AcDbLine
 10
506.1114071751581
 20
302.6200685711592
 30
0.0
 11
503.1442623636758
 21
315.4745349648147
 31
0.0
  0
LINE
  5
B11
330
1F
100
AcDbEntity
  8
ceco.net 118
100
AcDbLine
 10
503.1442623636758
 20
315.4745349648147
 30
0.0
 11
501.7595823616648
 21
328.9222828619131
 31
0.0
  0
LINE
  5
B12
330
1F
100
AcDbEntity
  8
ceco.net 118
100
AcDbLine
 10
501.7595823616648
 20
328.9222828619131
 30
0.0
 11
504.1333028695953
 21
345.1386971071406
 31
0.0
  0
LINE
  5
B13
330
1F
100
AcDbEntity
  8
ceco.net 118
100
AcDbLine
 10
504.1333028695953
 20
345.1386971071406
 30
0.0
 11
506.9026628755454
 21
354.0379486510937
 31
0.0
  0
LWPOLYLINE
  5
B14
330
1F
100
AcDbEntity
  8
ceco.net 118
100
AcDbPolyline
 90
        6
 70
     0
 43
0.0
 10
442.9682238510577
 20
390.1691634394774
 10
449.551359455836
 20
364.3494816765814
 10
461.1984383577873
 20
335.4921800570082
 10
479.9350425345255
 20
309.6724982941123
 10
498.1652337436754
 20
292.4593722840654
 10
507.4086486237866
 20
283.7727322109095
  0
LWPOLYLINE
  5
B15
330
1F
100
AcDbEntity
  8
ceco.net 118
100
AcDbPolyline
 90
        9
 70
     0
 43
0.0
 10
431.8908584824749
 20
549.0166273376599
 10
438.1185590742098
 20
552.3202962294817
 10
455.5356427410152
 20
557.5741428812216
 10
476.5562770261385
 20
560.4262335497515
 10
496.3757355370399
 20
561.3268884179706
 10
518.1470901224749
 20
558.7750208723446
 10
533.5688302868584
 20
553.9648372815283
 10
549.6345941213077
 20
548.8611021922042
 10
559.5511502695081
 20
547.1217951421567
  0
LINE
  5
B16
330
1F
100
AcDbEntity
  8
ceco.net 118
100
AcDbLine
 10
424.7568326821419
 20
545.4912209082794
 30
0.0
 11
413.3942703661523
 21
539.4327037679977
 31
0.0
  0
LINE
  5
B17
330
1F
100
AcDbEntity
  8
ceco.net 118
100
AcDbLine
 10
413.3942703661523
 20
539.4327037679977
 30
0.0
 11
404.872354453073
 21
530.9129081458196
 31
0.0
  0
LINE
  5
B18
330
1F
100
AcDbEntity
  8
ceco.net 118
100
AcDbLine
 10
404.872354453073
 20
530.9129081458196
 30
0.0
 11
392.3735428964937
 21
518.9852029787289
 31
0.0
  0
LINE
  5
B19
330
1F
100
AcDbEntity
  8
ceco.net 118
100
AcDbLine
 10
392.3735428964937
 20
518.9852029787289
 30
0.0
 11
384.6091497740781
 21
507.4361560376202
 31
0.0
  0
LINE
  5
B1A
330
1F
100
AcDbEntity
  8
ceco.net 118
100
AcDbLine
 10
384.6091497740781
 20
507.4361560376202
 30
0.0
 11
373.0572125852995
 21
486.7993261348783
 31
0.0
  0
LINE
  5
B1B
330
1F
100
AcDbEntity
  8
ceco.net 118
100
AcDbLine
 10
373.0572125852995
 20
486.7993261348783
 30
0.0
 11
365.4821710438773
 21
473.7356462840581
 31
0.0
  0
LINE
  5
B1C
330
1F
100
AcDbEntity
  8
ceco.net 118
100
AcDbLine
 10
365.4821710438773
 20
473.7356462840581
 30
0.0
 11
359.2327769114854
 21
457.8320297243954
 31
0.0
  0
LINE
  5
B1D
330
1F
100
AcDbEntity
  8
ceco.net 118
100
AcDbLine
 10
359.2327769114854
 20
457.8320297243954
 30
0.0
 11
350.3321112528283
 21
438.5205036188563
 31
0.0
  0
LINE
  5
B1E
330
1F
100
AcDbEntity
  8
ceco.net 118
100
AcDbLine
 10
350.3321112528283
 20
438.5205036188563
 30
0.0
 11
346.7339653549061
 21
416.9370426502064
 31
0.0
  0
LINE
  5
B1F
330
1F
100
AcDbEntity
  8
ceco.net 118
100
AcDbLine
 10
346.7339653549061
 20
416.9370426502064
 30
0.0
 11
345.3878172787153
 21
390.5151162015682
 31
0.0
  0
LINE
  5
B20
330
1F
100
AcDbEntity
  8
ceco.net 118
100
AcDbLine
 10
345.3878172787153
 20
390.5151162015682
 30
0.0
 11
347.281566016245
 21
367.417007817894
 31
0.0
  0
LINE
  5
B21
330
1F
100
AcDbEntity
  8
ceco.net 118
100
AcDbLine
 10
347.281566016245
 20
367.417007817894
 30
0.0
 11
351.9613315498645
 21
343.6385967362912
 31
0.0
  0
LINE
  5
B22
330
1F
100
AcDbEntity
  8
ceco.net 118
100
AcDbLine
 10
351.9613315498645
 20
343.6385967362912
 30
0.0
 11
356.3192133793564
 21
314.9175703085166
 31
0.0
  0
LINE
  5
B23
330
1F
100
AcDbEntity
  8
ceco.net 118
100
AcDbLine
 10
356.3192133793564
 20
314.9175703085166
 30
0.0
 11
356.3192133793564
 21
287.7643177343634
 31
0.0
  0
LINE
  5
B24
330
1F
100
AcDbEntity
  8
ceco.net 118
100
AcDbLine
 10
356.3192133793564
 20
287.7643177343634
 30
0.0
 11
358.519423731268
 21
257.0621957820731
 31
0.0
  0
LINE
  5
B25
330
1F
100
AcDbEntity
  8
ceco.net 118
100
AcDbLine
 10
358.519423731268
 20
257.0621957820731
 30
0.0
 11
360.397144678609
 21
231.3168881340789
 31
0.0
  0
LINE
  5
B26
330
1F
100
AcDbEntity
  8
ceco.net 118
100
AcDbLine
 10
360.397144678609
 20
231.3168881340789
 30
0.0
 11
363.3478656622537
 21
208.5215554959904
 31
0.0
  0
LINE
  5
B27
330
1F
100
AcDbEntity
  8
ceco.net 118
100
AcDbLine
 10
363.3478656622537
 20
208.5215554959904
 30
0.0
 11
366.2985866478265
 21
196.1852568095855
 31
0.0
  0
LINE
  5
B28
330
1F
100
AcDbEntity
  8
ceco.net 118
100
AcDbLine
 10
366.2985866478265
 20
196.1852568095855
 30
0.0
 11
367.1033308525875
 21
187.3353027730991
 31
0.0
  0
LINE
  5
B29
330
1F
100
AcDbEntity
  8
ceco.net 118
100
AcDbLine
 10
367.1033308525875
 20
187.3353027730991
 30
0.0
 11
364.9573540717756
 21
179.2898886946932
 31
0.0
  0
LINE
  5
B2A
330
1F
100
AcDbEntity
  8
ceco.net 118
100
AcDbLine
 10
364.9573540717756
 20
179.2898886946932
 30
0.0
 11
363.8843540335437
 21
163.4672598598263
 31
0.0
  0
LINE
  5
B2B
330
1F
100
AcDbEntity
  8
ceco.net 118
100
AcDbLine
 10
363.8843540335437
 20
163.4672598598263
 30
0.0
 11
364.957540440846
 21
130.3927660822955
 31
0.0
  0
LINE
  5
B2C
330
1F
100
AcDbEntity
  8
ceco.net 118
100
AcDbLine
 10
364.957540440846
 20
130.3927660822955
 30
0.0
 11
363.8845636982659
 21
77.49907464847638
 31
0.0
  0
LINE
  5
B2D
330
1F
100
AcDbEntity
  8
ceco.net 118
100
AcDbLine
 10
363.8845636982659
 20
77.49907464847638
 30
0.0
 11
362.5433311241431
 21
53.36284691664332
 31
0.0
  0
LINE
  5
B2E
330
1F
100
AcDbEntity
  8
ceco.net 118
100
AcDbLine
 10
362.5433311241431
 20
53.36284691664332
 30
0.0
 11
358.5196101003385
 21
38.88111317744915
 31
0.0
  0
LINE
  5
B2F
330
1F
100
AcDbEntity
  8
ceco.net 118
100
AcDbLine
 10
358.5196101003385
 20
38.88111317744915
 30
0.0
 11
355.0324007434756
 21
22.79028501967332
 31
0.0
  0
LINE
  5
B30
330
1F
100
AcDbEntity
  8
ceco.net 118
100
AcDbLine
 10
355.0324007434756
 20
22.79028501967332
 30
0.0
 11
355.5688891147656
 21
12.86762070896657
 31
0.0
  0
LINE
  5
B31
330
1F
100
AcDbEntity
  8
ceco.net 118
100
AcDbLine
 10
355.5688891147656
 20
12.86762070896657
 30
0.0
 11
365.7622846475351
 21
7.504011323362647
 31
0.0
  0
LINE
  5
B32
330
1F
100
AcDbEntity
  8
ceco.net 118
100
AcDbLine
 10
365.7622846475351
 20
7.504011323362647
 30
0.0
 11
393.3917502544863
 21
6.699471365282079
 31
0.0
  0
LINE
  5
B33
330
1F
100
AcDbEntity
  8
ceco.net 118
100
AcDbLine
 10
393.3917502544863
 20
6.699471365282079
 30
0.0
 11
406.2676109355016
 21
8.844906417107267
 31
0.0
  0
LINE
  5
B34
330
1F
100
AcDbEntity
  8
ceco.net 118
100
AcDbLine
 10
406.2676109355016
 20
8.844906417107267
 30
0.0
 11
414.0467738520602
 21
11.79489593039761
 31
0.0
  0
LINE
  5
B35
330
1F
100
AcDbEntity
  8
ceco.net 118
100
AcDbLine
 10
414.0467738520602
 20
11.79489593039761
 30
0.0
 11
415.656262261582
 21
17.96304527408211
 31
0.0
  0
LINE
  5
B36
330
1F
100
AcDbEntity
  8
ceco.net 118
100
AcDbLine
 10
415.656262261582
 20
17.96304527408211
 30
0.0
 11
413.51028548077
 21
26.54481449008017
 31
0.0
  0
LINE
  5
B37
330
1F
100
AcDbEntity
  8
ceco.net 118
100
AcDbLine
 10
413.51028548077
 20
26.54481449008017
 30
0.0
 11
408.4135877163135
 21
39.95382345070538
 31
0.0
  0
LINE
  5
B38
330
1F
100
AcDbEntity
  8
ceco.net 118
100
AcDbLine
 10
408.4135877163135
 20
39.95382345070538
 30
0.0
 11
402.7804015805668
 21
49.87650226576079
 31
0.0
  0
LINE
  5
B39
330
1F
100
AcDbEntity
  8
ceco.net 118
100
AcDbLine
 10
402.7804015805668
 20
49.87650226576079
 30
0.0
 11
398.488448018943
 21
57.92191634416667
 31
0.0
  0
LINE
  5
B3A
330
1F
100
AcDbEntity
  8
ceco.net 118
100
AcDbLine
 10
398.488448018943
 20
57.92191634416667
 30
0.0
 11
395.5377270333702
 21
78.30361460655694
 31
0.0
  0
LINE
  5
B3B
330
1F
100
AcDbEntity
  8
ceco.net 118
100
AcDbLine
 10
395.5377270333702
 20
78.30361460655694
 30
0.0
 11
396.0742154046602
 21
139.779075254446
 31
0.0
  0
LINE
  5
B3C
330
1F
100
AcDbEntity
  8
ceco.net 118
100
AcDbLine
 10
396.0742154046602
 20
139.779075254446
 30
0.0
 11
397.147215442892
 21
146.4835797357227
 31
0.0
  0
LINE
  5
B3D
330
1F
100
AcDbEntity
  8
ceco.net 118
100
AcDbLine
 10
397.147215442892
 20
146.4835797357227
 30
0.0
 11
399.8296805930659
 21
154.5289938141286
 31
0.0
  0
LINE
  5
B3E
330
1F
100
AcDbEntity
  8
ceco.net 118
100
AcDbLine
 10
399.8296805930659
 20
154.5289938141286
 30
0.0
 11
395.0012386620801
 21
167.6698324586141
 31
0.0
  0
LINE
  5
B3F
330
1F
100
AcDbEntity
  8
ceco.net 118
100
AcDbLine
 10
395.0012386620801
 20
167.6698324586141
 30
0.0
 11
396.3424712381311
 21
185.3697260272383
 31
0.0
  0
LINE
  5
B40
330
1F
100
AcDbEntity
  8
ceco.net 118
100
AcDbLine
 10
396.3424712381311
 20
185.3697260272383
 30
0.0
 11
401.7218218939889
 21
206.3488247957502
 31
0.0
  0
LINE
  5
B41
330
1F
100
AcDbEntity
  8
ceco.net 118
100
AcDbLine
 10
401.7218218939889
 20
206.3488247957502
 30
0.0
 11
405.4772870843225
 21
224.8532728258396
 31
0.0
  0
LINE
  5
B42
330
1F
100
AcDbEntity
  8
ceco.net 118
100
AcDbLine
 10
405.4772870843225
 20
224.8532728258396
 30
0.0
 11
414.865938410403
 21
243.8940759935213
 31
0.0
  0
LINE
  5
B43
330
1F
100
AcDbEntity
  8
ceco.net 118
100
AcDbLine
 10
414.865938410403
 20
243.8940759935213
 30
0.0
 11
418.6213803031568
 21
259.7167193298446
 31
0.0
  0
LINE
  5
B44
330
1F
100
AcDbEntity
  8
ceco.net 118
100
AcDbLine
 10
418.6213803031568
 20
259.7167193298446
 30
0.0
 11
426.8456172708102
 21
275.0469967452227
 31
0.0
  0
LINE
  5
B45
330
1F
100
AcDbEntity
  8
ceco.net 118
100
AcDbLine
 10
426.8456172708102
 20
275.0469967452227
 30
0.0
 11
436.2599177207084
 21
290.4826278192741
 31
0.0
  0
LINE
  5
B46
330
1F
100
AcDbEntity
  8
ceco.net 118
100
AcDbLine
 10
436.2599177207084
 20
290.4826278192741
 30
0.0
 11
439.0842101865928
 21
299.1416428492448
 31
0.0
  0
LINE
  5
B47
330
1F
100
AcDbEntity
  8
ceco.net 118
100
AcDbLine
 10
439.0842101865928
 20
299.1416428492448
 30
0.0
 11
444.7327951164334
 21
309.1183328189982
 31
0.0
  0
LINE
  5
B48
330
1F
100
AcDbEntity
  8
ceco.net 118
100
AcDbLine
 10
444.7327951164334
 20
309.1183328189982
 30
0.0
 11
447.3688076302279
 21
311.5654413485754
 31
0.0
  0
LINE
  5
B49
330
1F
100
AcDbEntity
  8
ceco.net 118
100
AcDbLine
 10
447.3688076302279
 20
311.5654413485754
 30
0.0
 11
450.0048201420941
 21
311.0007173015037
 31
0.0
  0
LINE
  5
B4A
330
1F
100
AcDbEntity
  8
ceco.net 118
100
AcDbLine
 10
450.0048201420941
 20
311.0007173015037
 30
0.0
 11
452.2642494541287
 21
307.6124165311557
 31
0.0
  0
LINE
  5
B4B
330
1F
100
AcDbEntity
  8
ceco.net 118
100
AcDbLine
 10
452.2642494541287
 20
307.6124165311557
 30
0.0
 11
454.7119820158332
 21
295.9415689245361
 31
0.0
  0
LINE
  5
B4C
330
1F
100
AcDbEntity
  8
ceco.net 118
100
AcDbLine
 10
454.7119820158332
 20
295.9415689245361
 30
0.0
 11
460.3605669456737
 21
274.8587553961988
 31
0.0
  0
LINE
  5
B4D
330
1F
100
AcDbEntity
  8
ceco.net 118
100
AcDbLine
 10
460.3605669456737
 20
274.8587553961988
 30
0.0
 11
462.6199962577084
 21
257.7289811867376
 31
0.0
  0
LINE
  5
B4E
330
1F
100
AcDbEntity
  8
ceco.net 118
100
AcDbLine
 10
462.6199962577084
 20
257.7289811867376
 30
0.0
 11
462.4317163056185
 21
243.4227837024809
 31
0.0
  0
LINE
  5
B4F
330
1F
100
AcDbEntity
  8
ceco.net 118
100
AcDbLine
 10
462.4317163056185
 20
243.4227837024809
 30
0.0
 11
459.2308639374823
 21
234.0108177807633
 31
0.0
  0
LINE
  5
B50
330
1F
100
AcDbEntity
  8
ceco.net 118
100
AcDbLine
 10
459.2308639374823
 20
234.0108177807633
 30
0.0
 11
450.5696832940157
 21
218.0104626586762
 31
0.0
  0
LINE
  5
B51
330
1F
100
AcDbEntity
  8
ceco.net 118
100
AcDbLine
 10
450.5696832940157
 20
218.0104626586762
 30
0.0
 11
443.2265089084103
 21
204.645471919539
 31
0.0
  0
LINE
  5
B52
330
1F
100
AcDbEntity
  8
ceco.net 118
100
AcDbLine
 10
443.2265089084103
 20
204.645471919539
 30
0.0
 11
436.4481976747265
 21
191.4687080241128
 31
0.0
  0
LINE
  5
B53
330
1F
100
AcDbEntity
  8
ceco.net 118
100
AcDbLine
 10
436.4481976747265
 20
191.4687080241128
 30
0.0
 11
433.2473453046623
 21
186.3862496168985
 31
0.0
  0
LINE
  5
B54
330
1F
100
AcDbEntity
  8
ceco.net 118
100
AcDbLine
 10
433.2473453046623
 20
186.3862496168985
 30
0.0
 11
430.4230528387779
 21
182.4332248004429
 31
0.0
  0
LINE
  5
B55
330
1F
100
AcDbEntity
  8
ceco.net 118
100
AcDbLine
 10
430.4230528387779
 20
182.4332248004429
 30
0.0
 11
429.8581896887845
 21
177.5389932379039
 31
0.0
  0
LINE
  5
B56
330
1F
100
AcDbEntity
  8
ceco.net 118
100
AcDbLine
 10
429.8581896887845
 20
177.5389932379039
 30
0.0
 11
434.5664930764542
 21
152.7806799867903
 31
0.0
  0
LINE
  5
B57
330
1F
100
AcDbEntity
  8
ceco.net 118
100
AcDbLine
 10
434.5664930764542
 20
152.7806799867903
 30
0.0
 11
439.0853517005234
 21
127.1801320973463
 31
0.0
  0
LINE
  5
B58
330
1F
100
AcDbEntity
  8
ceco.net 118
100
AcDbLine
 10
439.0853517005234
 20
127.1801320973463
 30
0.0
 11
442.4745073183294
 21
114.5680922499559
 31
0.0
  0
LINE
  5
B59
330
1F
100
AcDbEntity
  8
ceco.net 118
100
AcDbLine
 10
442.4745073183294
 20
114.5680922499559
 30
0.0
 11
445.6753829821173
 21
104.5914022802026
 31
0.0
  0
LINE
  5
B5A
330
1F
100
AcDbEntity
  8
ceco.net 118
100
AcDbLine
 10
445.6753829821173
 20
104.5914022802026
 30
0.0
 11
446.9933892399786
 21
93.86176141870238
 31
0.0
  0
LINE
  5
B5B
330
1F
100
AcDbEntity
  8
ceco.net 118
100
AcDbLine
 10
446.9933892399786
 20
93.86176141870238
 30
0.0
 11
448.12309224817
 21
45.24974859650683
 31
0.0
  0
LINE
  5
B5C
330
1F
100
AcDbEntity
  8
ceco.net 118
100
AcDbLine
 10
448.12309224817
 20
45.24974859650683
 30
0.0
 11
448.6879554000916
 21
29.06115212635995
 31
0.0
  0
LINE
  5
B5D
330
1F
100
AcDbEntity
  8
ceco.net 118
100
AcDbLine
 10
448.6879554000916
 20
29.06115212635995
 30
0.0
 11
447.6054272127657
 21
19.78227061808865
 31
0.0
  0
LINE
  5
B5E
330
1F
100
AcDbEntity
  8
ceco.net 118
100
AcDbLine
 10
447.6054272127657
 20
19.78227061808865
 30
0.0
 11
453.0657321905164
 21
14.32331500944201
 31
0.0
  0
LINE
  5
B5F
330
1F
100
AcDbEntity
  8
ceco.net 118
100
AcDbLine
 10
453.0657321905164
 20
14.32331500944201
 30
0.0
 11
459.8440434242002
 21
10.55853154104624
 31
0.0
  0
LINE
  5
B60
330
1F
100
AcDbEntity
  8
ceco.net 118
100
AcDbLine
 10
459.8440434242002
 20
10.55853154104624
 30
0.0
 11
467.7520576680036
 21
6.98198942167437
 31
0.0
  0
LINE
  5
B61
330
1F
100
AcDbEntity
  8
ceco.net 118
100
AcDbLine
 10
467.7520576680036
 20
6.98198942167437
 30
0.0
 11
475.8447972582508
 21
5.510944880279567
 31
0.0
  0
LINE
  5
B62
330
1F
100
AcDbEntity
  8
ceco.net 118
100
AcDbLine
 10
497.3130118687913
 20
46.96206923239515
 30
0.0
 11
490.5347006331795
 21
47.90327597655051
 31
0.0
  0
LINE
  5
B63
330
1F
100
AcDbEntity
  8
ceco.net 118
100
AcDbLine
 10
490.5347006331795
 20
47.90327597655051
 30
0.0
 11
485.6392588092785
 21
50.35038450612773
 31
0.0
  0
LINE
  5
B64
330
1F
100
AcDbEntity
  8
ceco.net 118
100
AcDbLine
 10
485.6392588092785
 20
50.35038450612773
 30
0.0
 11
482.0618232393827
 21
72.85592703256043
 31
0.0
  0
LINE
  5
B65
330
1F
100
AcDbEntity
  8
ceco.net 118
100
AcDbLine
 10
482.0618232393827
 20
72.85592703256043
 30
0.0
 11
477.5429413177334
 21
98.32433884519561
 31
0.0
  0
LINE
  5
B66
330
1F
100
AcDbEntity
  8
ceco.net 118
100
AcDbLine
 10
477.5429413177334
 20
98.32433884519561
 30
0.0
 11
475.4717919577887
 21
118.8424283274253
 31
0.0
  0
LINE
  5
B67
330
1F
100
AcDbEntity
  8
ceco.net 118
100
AcDbLine
 10
475.4717919577887
 20
118.8424283274253
 30
0.0
 11
476.9781014614636
 21
145.0077147673255
 31
0.0
  0
LINE
  5
B68
330
1F
100
AcDbEntity
  8
ceco.net 118
100
AcDbLine
 10
476.9781014614636
 20
145.0077147673255
 30
0.0
 11
481.8847953551085
 21
166.1862371071765
 31
0.0
  0
LINE
  5
B69
330
1F
100
AcDbEntity
  8
ceco.net 118
100
AcDbLine
 10
481.8847953551085
 20
166.1862371071765
 30
0.0
 11
489.2279697426419
 21
184.0689767108051
 31
0.0
  0
LINE
  5
B6A
330
1F
100
AcDbEntity
  8
ceco.net 118
100
AcDbLine
 10
489.2279697426419
 20
184.0689767108051
 30
0.0
 11
500.7134195544131
 21
200.2575586785315
 31
0.0
  0
LINE
  5
B6B
330
1F
100
AcDbEntity
  8
ceco.net 118
100
AcDbLine
 10
500.7134195544131
 20
200.2575586785315
 30
0.0
 11
507.9524367247723
 21
205.8865058771698
 31
0.0
  0
LWPOLYLINE
  5
B6C
330
1F
100
AcDbEntity
  8
ceco.net 118
100
AcDbPolyline
 90
       10
 70
     0
 43
0.0
 10
349.691141860203
 20
355.1736839759542
 10
347.8871509392411
 20
349.8918238016449
 10
344.8649338919858
 20
342.4038820037822
 10
341.0543265789237
 20
335.7041346808546
 10
339.2147182298868
 20
327.427983902744
 10
340.922935967792
 20
319.1518186212488
 10
343.8137391044074
 20
312.0579668106074
 10
348.018541552301
 20
306.5405329585337
 10
354.7199520039066
 20
297.8702776898171
 10
356.3192133793564
 20
296.1625012359945
  0
LWPOLYLINE
  5
B6D
330
1F
100
AcDbEntity
  8
ceco.net 118
100
AcDbPolyline
 90
        6
 70
     0
 43
0.0
 10
715.1167606231683
 20
553.8416877867894
 10
718.3205716104203
 20
551.769132985828
 10
721.1474732510033
 20
551.769132985828
 10
723.2205328987402
 20
552.3343791605294
 10
725.6705251926542
 20
554.7837502402763
 10
726.2359008624117
 20
557.2331213200231
  0
LWPOLYLINE
  5
B6E
330
1F
100
AcDbEntity
  8
ceco.net 118
100
AcDbPolyline
 90
        5
 70
     0
 43
0.0
 10
706.0706567360102
 20
562.1318634814452
 10
710.2167760353405
 20
565.7117269096306
 10
717.001353951673
 20
567.4074364240733
 10
722.8436235520712
 20
567.4074364240733
 10
728.4974268332371
 20
567.7842672072074
  0
LWPOLYLINE
  5
B6F
330
1F
100
AcDbEntity
  8
ceco.net 118
100
AcDbPolyline
 90
       25
 70
     0
 43
0.0
 10
742.2550256856266
 20
576.0744574042838
 10
744.8934610050492
 20
565.5233115180635
 10
750.3588212607065
 20
556.2910588675004
 10
751.1126632496963
 20
546.1167437634505
 10
750.3588212607065
 20
530.6668412133876
 10
749.7934455909489
 20
516.7242617920055
 10
745.8357693171275
 20
506.3615312973524
 10
737.5437869764209
 20
480.3016710349766
 10
730.3822997153474
 20
467.8664002427468
 10
727.1784654305156
 20
459.0109783743537
 10
724.3515637918608
 20
449.967126611009
 10
718.6977605126231
 20
437.9086866019134
 10
713.9862655435353
 20
426.6038791494247
 10
707.2016876291309
 20
420.0094129701755
 10
698.7209827093103
 20
416.6179794369417
 10
690.2402544919095
 20
415.6759169834549
 10
670.8288523583542
 20
419.4441812998229
 10
661.2173728033667
 20
425.850232087505
 10
655.3751032010405
 20
436.2129625831221
 10
651.7943595714678
 20
443.7494912158581
 10
644.8213386315546
 20
452.0396814129345
 10
630.9770778837629
 20
464.3062616190945
 10
617.9733210203631
 20
471.2775585805139
 10
609.4926161005424
 20
478.8140872132499
 10
605.5349398267208
 20
485.2201525033525
  0
LWPOLYLINE
  5
B70
330
1F
100
AcDbEntity
  8
ceco.net 118
100
AcDbPolyline
 90
       12
 70
     0
 43
0.0
 10
577.3165693806368
 20
489.3466685772728
 10
579.9043587422421
 20
481.6402890761311
 10
584.2389443646607
 20
478.2488555419332
 10
590.2696569924955
 20
477.6836093681959
 10
593.4734912753993
 20
478.8140872132499
 10
597.9965432170502
 20
482.2055352498683
 10
605.5349398267208
 20
489.5536484900731
 10
607.2310901277887
 20
499.5395627069046
 10
608.3618414673037
 20
511.0327710466117
 10
605.5349398267208
 20
519.1345458530849
 10
604.0272558448852
 20
535.52649635325
 10
604.2157221679736
 20
540.425238513708
  0
LINE
  5
B71
330
1F
100
AcDbEntity
  8
ceco.net 118
100
AcDbLine
 10
-166.7456596330885
 20
877.5647675287292
 30
0.0
 11
-179.3988551586153
 21
737.7486542607039
 31
0.0
  0
LWPOLYLINE
  5
B72
330
1F
100
AcDbEntity
  8
ceco.net 118
100
AcDbPolyline
 90
        4
 70
     0
 43
0.0
 10
506.2272230427334
 20
5.510944880279567
 10
525.0794597222115
 20
1.920947029027795
 10
546.5008491470382
 20
1.920947029027795
 10
562.650342225752
 20
5.510944880279567
  0
LWPOLYLINE
  5
B73
330
1F
100
AcDbEntity
  8
ceco.net 118
100
AcDbPolyline
 90
        2
 70
     0
 43
0.0
 10
475.8447972582508
 20
5.510944880279567
 10
495.8771268017517
 20
7.481895271848771
  0
LINE
  5
B74
330
1F
100
AcDbEntity
  8
ceco.net 118
100
AcDbLine
 10
-300.7262279274436
 20
762.6161065943597
 30
0.0
 11
-292.2542124920437
 21
753.7598725277531
 31
0.0
  0
ENDSEC
  0
SECTION
  2
OBJECTS
  0
DICTIONARY
  5
C
330
0
100
AcDbDictionary
281
     1
  3
ACAD_GROUP
350
D
  3
ACAD_LAYOUT
350
1A
  3
ACAD_MLINESTYLE
350
17
  3
ACAD_PLOTSETTINGS
350
19
  3
ACAD_PLOTSTYLENAME
350
E
  3
AcDbVariableDictionary
350
115
  3
DWGPROPS
350
8E3
  0
DICTIONARY
  5
8FD
330
2
100
AcDbDictionary
280
     1
281
     1
  3
ACAD_LAYERFILTERS
360
B75
  3
ACAD_LAYERSTATES
360
8FE
  0
DICTIONARY
  5
8F2
330
8F1
100
AcDbDictionary
280
     1
281
     1
  3
ACAD_XREC_ROUNDTRIP
360
8F3
  0
DICTIONARY
  5
D
102
{ACAD_REACTORS
330
C
102
}
330
C
100
AcDbDictionary
281
     1
  0
DICTIONARY
  5
1A
102
{ACAD_REACTORS
330
C
102
}
330
C
100
AcDbDictionary
281
     1
  3
Layout1
350
1E
  3
Layout2
350
26
  3
Model
350
22
  0
DICTIONARY
  5
17
102
{ACAD_REACTORS
330
C
102
}
330
C
100
AcDbDictionary
281
     1
  3
Standard
350
18
  0
DICTIONARY
  5
19
102
{ACAD_REACTORS
330
C
102
}
330
C
100
AcDbDictionary
281
     1
  0
ACDBDICTIONARYWDFLT
  5
E
102
{ACAD_REACTORS
330
C
102
}
330
C
100
AcDbDictionary
281
     1
  3
Normal
350
F
100
AcDbDictionaryWithDefault
340
F
  0
DICTIONARY
  5
115
102
{ACAD_REACTORS
330
C
102
}
330
C
100
AcDbDictionary
281
     1
  3
DIMASSOC
350
117
  3
HIDETEXT
350
116
  0
XRECORD
  5
8E3
102
{ACAD_REACTORS
330
C
102
}
330
C
100
AcDbXrecord
280
     1
  1
DWGPROPS COOKIE
  2
Ceco.NET-Trees-and-Plants - T - xx . 67 . dwg
  3

  4
ceco.net
  6

  7

  8
peacosta
  9

300
=
301
=
302
=
303
=
304
=
305
=
306
=
307
=
308
=
309
=
 40
0.0450312037037037
 41
2455079.811409143
 42
2455838.656599502
  1

 90
        0
  0
DICTIONARY
  5
B75
102
{ACAD_REACTORS
330
8FD
102
}
330
8FD
100
AcDbDictionary
280
     1
281
     1
  0
DICTIONARY
  5
8FE
102
{ACAD_REACTORS
330
8FD
102
}
330
8FD
100
AcDbDictionary
281
     1
  0
XRECORD
  5
8F3
102
{ACAD_REACTORS
330
8F2
102
}
330
8F2
100
AcDbXrecord
280
     1
102
MATERIAL
340
0
  0
LAYOUT
  5
1E
102
{ACAD_REACTORS
330
1A
102
}
330
1A
100
AcDbPlotSettings
  1

  2
Microsoft Office Document Image Writer
  4

  6

 40
0.0
 41
0.0
 42
0.0
 43
0.0
 44
0.0
 45
0.0
 46
0.0
 47
0.0
 48
0.0
 49
0.0
140
0.0
141
0.0
142
1.0
143
1.0
 70
   688
 72
     0
 73
     0
 74
     5
  7

 75
    16
147
1.0
148
0.0
149
0.0
100
AcDbLayout
  1
Layout1
 70
     1
 71
     1
 10
0.0
 20
0.0
 11
420.0
 21
297.0
 12
0.0
 22
0.0
 32
0.0
 14
1.000000000000000E+20
 24
1.000000000000000E+20
 34
1.000000000000000E+20
 15
-1.000000000000000E+20
 25
-1.000000000000000E+20
 35
-1.000000000000000E+20
146
0.0
 13
0.0
 23
0.0
 33
0.0
 16
1.0
 26
0.0
 36
0.0
 17
0.0
 27
1.0
 37
0.0
 76
     0
330
1B
  0
LAYOUT
  5
26
102
{ACAD_REACTORS
330
1A
102
}
330
1A
100
AcDbPlotSettings
  1

  2
Microsoft Office Document Image Writer
  4

  6

 40
0.0
 41
0.0
 42
0.0
 43
0.0
 44
0.0
 45
0.0
 46
0.0
 47
0.0
 48
0.0
 49
0.0
140
0.0
141
0.0
142
1.0
143
1.0
 70
   688
 72
     0
 73
     0
 74
     5
  7

 75
    16
147
1.0
148
0.0
149
0.0
100
AcDbLayout
  1
Layout2
 70
     1
 71
     2
 10
0.0
 20
0.0
 11
12.0
 21
9.0
 12
0.0
 22
0.0
 32
0.0
 14
0.0
 24
0.0
 34
0.0
 15
0.0
 25
0.0
 35
0.0
146
0.0
 13
0.0
 23
0.0
 33
0.0
 16
1.0
 26
0.0
 36
0.0
 17
0.0
 27
1.0
 37
0.0
 76
     0
330
23
  0
LAYOUT
  5
22
102
{ACAD_REACTORS
330
1A
102
}
330
1A
100
AcDbPlotSettings
  1

  2
Microsoft Office Document Image Writer
  4

  6

 40
0.0
 41
0.0
 42
0.0
 43
0.0
 44
0.0
 45
0.0
 46
0.0
 47
0.0
 48
0.0
 49
0.0
140
0.0
141
0.0
142
1.0
143
1.0
 70
  1712
 72
     0
 73
     0
 74
     0
  7

 75
     0
147
1.0
148
0.0
149
0.0
100
AcDbLayout
  1
Model
 70
     1
 71
     0
 10
0.0
 20
0.0
 11
12.0
 21
9.0
 12
0.0
 22
0.0
 32
0.0
 14
0.0
 24
0.0
 34
0.0
 15
0.0
 25
0.0
 35
0.0
146
0.0
 13
0.0
 23
0.0
 33
0.0
 16
1.0
 26
0.0
 36
0.0
 17
0.0
 27
1.0
 37
0.0
 76
     0
330
1F
  0
MLINESTYLE
  5
18
102
{ACAD_REACTORS
330
17
102
}
330
17
100
AcDbMlineStyle
  2
STANDARD
 70
     0
  3

 62
   256
 51
90.0
 52
90.0
 71
     2
 49
0.5
 62
   256
  6
BYLAYER
 49
-0.5
 62
   256
  6
BYLAYER
  0
ACDBPLACEHOLDER
  5
F
102
{ACAD_REACTORS
330
E
102
}
330
E
  0
DICTIONARYVAR
  5
117
102
{ACAD_REACTORS
330
115
102
}
330
115
100
DictionaryVariables
280
     0
  1
2
  0
DICTIONARYVAR
  5
116
102
{ACAD_REACTORS
330
115
102
}
330
115
100
DictionaryVariables
280
     0
  1
1
  0
ENDSEC
  0
EOF
