  0
SECTION
  2
HEADER
  9
$ACADVER
  1
AC1015
  9
$ACADMAINTVER
 70
    13
  9
$DWGCODEPAGE
  3
ANSI_1252
  9
$INSBASE
 10
0.0
 20
0.0
 30
0.0
  9
$EXTMIN
 10
-581.477892765612
 20
-0.0489177997869774
 30
-0.0000000349181948
  9
$EXTMAX
 10
581.477898180718
 20
1306.091563212452
 30
0.0000000814935746
  9
$LIMMIN
 10
0.0
 20
0.0
  9
$LIMMAX
 10
420.0
 20
297.0
  9
$ORTHOMODE
 70
     0
  9
$REGENMODE
 70
     1
  9
$FILLMODE
 70
     1
  9
$QTEXTMODE
 70
     0
  9
$MIRRTEXT
 70
     1
  9
$LTSCALE
 40
1.0
  9
$ATTMODE
 70
     1
  9
$TEXTSIZE
 40
2.5
  9
$TRACEWID
 40
1.0
  9
$TEXTSTYLE
  7
Standard
  9
$CLAYER
  8
ceco.net 137
  9
$CELTYPE
  6
ByLayer
  9
$CECOLOR
 62
   256
  9
$CELTSCALE
 40
1.0
  9
$DISPSILH
 70
     0
  9
$DIMSCALE
 40
1.0
  9
$DIMASZ
 40
2.5
  9
$DIMEXO
 40
0.625
  9
$DIMDLI
 40
3.75
  9
$DIMRND
 40
0.0
  9
$DIMDLE
 40
0.0
  9
$DIMEXE
 40
1.25
  9
$DIMTP
 40
0.0
  9
$DIMTM
 40
0.0
  9
$DIMTXT
 40
2.5
  9
$DIMCEN
 40
2.5
  9
$DIMTSZ
 40
0.0
  9
$DIMTOL
 70
     0
  9
$DIMLIM
 70
     0
  9
$DIMTIH
 70
     0
  9
$DIMTOH
 70
     0
  9
$DIMSE1
 70
     0
  9
$DIMSE2
 70
     0
  9
$DIMTAD
 70
     1
  9
$DIMZIN
 70
     8
  9
$DIMBLK
  1

  9
$DIMASO
 70
     1
  9
$DIMSHO
 70
     1
  9
$DIMPOST
  1

  9
$DIMAPOST
  1

  9
$DIMALT
 70
     0
  9
$DIMALTD
 70
     3
  9
$DIMALTF
 40
0.03937007874016
  9
$DIMLFAC
 40
1.0
  9
$DIMTOFL
 70
     1
  9
$DIMTVP
 40
0.0
  9
$DIMTIX
 70
     0
  9
$DIMSOXD
 70
     0
  9
$DIMSAH
 70
     0
  9
$DIMBLK1
  1

  9
$DIMBLK2
  1

  9
$DIMSTYLE
  2
ISO-25
  9
$DIMCLRD
 70
     0
  9
$DIMCLRE
 70
     0
  9
$DIMCLRT
 70
     0
  9
$DIMTFAC
 40
1.0
  9
$DIMGAP
 40
0.625
  9
$DIMJUST
 70
     0
  9
$DIMSD1
 70
     0
  9
$DIMSD2
 70
     0
  9
$DIMTOLJ
 70
     0
  9
$DIMTZIN
 70
     8
  9
$DIMALTZ
 70
     0
  9
$DIMALTTZ
 70
     0
  9
$DIMUPT
 70
     0
  9
$DIMDEC
 70
     2
  9
$DIMTDEC
 70
     2
  9
$DIMALTU
 70
     2
  9
$DIMALTTD
 70
     3
  9
$DIMTXSTY
  7
Standard
  9
$DIMAUNIT
 70
     0
  9
$DIMADEC
 70
     0
  9
$DIMALTRND
 40
0.0
  9
$DIMAZIN
 70
     0
  9
$DIMDSEP
 70
    44
  9
$DIMATFIT
 70
     3
  9
$DIMFRAC
 70
     0
  9
$DIMLDRBLK
  1

  9
$DIMLUNIT
 70
     2
  9
$DIMLWD
 70
    -2
  9
$DIMLWE
 70
    -2
  9
$DIMTMOVE
 70
     0
  9
$LUNITS
 70
     2
  9
$LUPREC
 70
     2
  9
$SKETCHINC
 40
1.0
  9
$FILLETRAD
 40
10.0
  9
$AUNITS
 70
     0
  9
$AUPREC
 70
     0
  9
$MENU
  1
.
  9
$ELEVATION
 40
0.0
  9
$PELEVATION
 40
0.0
  9
$THICKNESS
 40
0.0
  9
$LIMCHECK
 70
     0
  9
$CHAMFERA
 40
10.0
  9
$CHAMFERB
 40
10.0
  9
$CHAMFERC
 40
20.0
  9
$CHAMFERD
 40
0.0
  9
$SKPOLY
 70
     0
  9
$TDCREATE
 40
2455079.811409143
  9
$TDUCREATE
 40
2455079.936409144
  9
$TDUPDATE
 40
2456723.903788252
  9
$TDUUPDATE
 40
2456724.028788252
  9
$TDINDWG
 40
0.0481477778
  9
$TDUSRTIMER
 40
0.0481477778
  9
$USRTIMER
 70
     1
  9
$ANGBASE
 50
0.0
  9
$ANGDIR
 70
     0
  9
$PDMODE
 70
     0
  9
$PDSIZE
 40
0.0
  9
$PLINEWID
 40
0.0
  9
$SPLFRAME
 70
     0
  9
$SPLINETYPE
 70
     6
  9
$SPLINESEGS
 70
     8
  9
$HANDSEED
  5
9F4
  9
$SURFTAB1
 70
     6
  9
$SURFTAB2
 70
     6
  9
$SURFTYPE
 70
     6
  9
$SURFU
 70
     6
  9
$SURFV
 70
     6
  9
$UCSBASE
  2

  9
$UCSNAME
  2

  9
$UCSORG
 10
0.0
 20
0.0
 30
0.0
  9
$UCSXDIR
 10
1.0
 20
0.0
 30
0.0
  9
$UCSYDIR
 10
0.0
 20
1.0
 30
0.0
  9
$UCSORTHOREF
  2

  9
$UCSORTHOVIEW
 70
     0
  9
$UCSORGTOP
 10
0.0
 20
0.0
 30
0.0
  9
$UCSORGBOTTOM
 10
0.0
 20
0.0
 30
0.0
  9
$UCSORGLEFT
 10
0.0
 20
0.0
 30
0.0
  9
$UCSORGRIGHT
 10
0.0
 20
0.0
 30
0.0
  9
$UCSORGFRONT
 10
0.0
 20
0.0
 30
0.0
  9
$UCSORGBACK
 10
0.0
 20
0.0
 30
0.0
  9
$PUCSBASE
  2

  9
$PUCSNAME
  2

  9
$PUCSORG
 10
0.0
 20
0.0
 30
0.0
  9
$PUCSXDIR
 10
1.0
 20
0.0
 30
0.0
  9
$PUCSYDIR
 10
0.0
 20
1.0
 30
0.0
  9
$PUCSORTHOREF
  2

  9
$PUCSORTHOVIEW
 70
     0
  9
$PUCSORGTOP
 10
0.0
 20
0.0
 30
0.0
  9
$PUCSORGBOTTOM
 10
0.0
 20
0.0
 30
0.0
  9
$PUCSORGLEFT
 10
0.0
 20
0.0
 30
0.0
  9
$PUCSORGRIGHT
 10
0.0
 20
0.0
 30
0.0
  9
$PUCSORGFRONT
 10
0.0
 20
0.0
 30
0.0
  9
$PUCSORGBACK
 10
0.0
 20
0.0
 30
0.0
  9
$USERI1
 70
     0
  9
$USERI2
 70
     0
  9
$USERI3
 70
     0
  9
$USERI4
 70
     0
  9
$USERI5
 70
     0
  9
$USERR1
 40
0.0
  9
$USERR2
 40
0.0
  9
$USERR3
 40
0.0
  9
$USERR4
 40
0.0
  9
$USERR5
 40
0.0
  9
$WORLDVIEW
 70
     1
  9
$SHADEDGE
 70
     3
  9
$SHADEDIF
 70
    70
  9
$TILEMODE
 70
     1
  9
$MAXACTVP
 70
    64
  9
$PINSBASE
 10
0.0
 20
0.0
 30
0.0
  9
$PLIMCHECK
 70
     0
  9
$PEXTMIN
 10
1.000000000000000E+20
 20
1.000000000000000E+20
 30
1.000000000000000E+20
  9
$PEXTMAX
 10
-1.000000000000000E+20
 20
-1.000000000000000E+20
 30
-1.000000000000000E+20
  9
$PLIMMIN
 10
0.0
 20
0.0
  9
$PLIMMAX
 10
420.0
 20
297.0
  9
$UNITMODE
 70
     0
  9
$VISRETAIN
 70
     1
  9
$PLINEGEN
 70
     0
  9
$PSLTSCALE
 70
     1
  9
$TREEDEPTH
 70
  3020
  9
$CMLSTYLE
  2
Standard
  9
$CMLJUST
 70
     0
  9
$CMLSCALE
 40
20.0
  9
$PROXYGRAPHICS
 70
     1
  9
$MEASUREMENT
 70
     1
  9
$CELWEIGHT
370
    -1
  9
$ENDCAPS
280
     0
  9
$JOINSTYLE
280
     0
  9
$LWDISPLAY
290
     0
  9
$INSUNITS
 70
     4
  9
$HYPERLINKBASE
  1

  9
$STYLESHEET
  1

  9
$XEDIT
290
     1
  9
$CEPSNTYPE
380
     0
  9
$PSTYLEMODE
290
     1
  9
$FINGERPRINTGUID
  2
{81085373-3A21-4932-80AA-8F6C3258C50C}
  9
$VERSIONGUID
  2
{1E5143F3-223F-4592-AE50-034C26FA3C22}
  9
$EXTNAMES
290
     1
  9
$PSVPSCALE
 40
0.0
  9
$OLESTARTUP
290
     0
  0
ENDSEC
  0
SECTION
  2
CLASSES
  0
CLASS
  1
ACDBDICTIONARYWDFLT
  2
AcDbDictionaryWithDefault
  3
AutoCAD 2000
 90
        0
280
     0
281
     0
  0
CLASS
  1
ACDBPLACEHOLDER
  2
AcDbPlaceHolder
  3
AutoCAD 2000
 90
        0
280
     0
281
     0
  0
CLASS
  1
LAYOUT
  2
AcDbLayout
  3
AutoCAD 2000
 90
        0
280
     0
281
     0
  0
CLASS
  1
DICTIONARYVAR
  2
AcDbDictionaryVar
  3
AutoCAD 2000
 90
        0
280
     0
281
     0
  0
ENDSEC
  0
SECTION
  2
TABLES
  0
TABLE
  2
VPORT
  5
8
330
0
100
AcDbSymbolTable
 70
     3
  0
VPORT
  5
9F3
330
8
100
AcDbSymbolTableRecord
100
AcDbViewportTableRecord
  2
*Active
 70
     0
 10
0.0
 20
0.0
 11
1.0
 21
1.0
 12
0.0000027075528806
 22
653.0213227063325
 13
0.0
 23
0.0
 14
10.0
 24
10.0
 15
10.0
 25
10.0
 16
0.0
 26
0.0
 36
1.0
 17
0.0
 27
0.0
 37
0.0
 40
1315.414851291615
 41
2.184834123222748
 42
50.0
 43
0.0
 44
0.0
 50
0.0
 51
0.0
 71
     0
 72
   100
 73
     1
 74
     3
 75
     0
 76
     0
 77
     0
 78
     0
281
     0
 65
     1
110
0.0
120
0.0
130
0.0
111
1.0
121
0.0
131
0.0
112
0.0
122
1.0
132
0.0
 79
     0
146
0.0
  0
ENDTAB
  0
TABLE
  2
LTYPE
  5
5
330
0
100
AcDbSymbolTable
 70
     1
  0
LTYPE
  5
14
330
5
100
AcDbSymbolTableRecord
100
AcDbLinetypeTableRecord
  2
ByBlock
 70
     0
  3

 72
    65
 73
     0
 40
0.0
  0
LTYPE
  5
15
330
5
100
AcDbSymbolTableRecord
100
AcDbLinetypeTableRecord
  2
ByLayer
 70
     0
  3

 72
    65
 73
     0
 40
0.0
  0
LTYPE
  5
16
330
5
100
AcDbSymbolTableRecord
100
AcDbLinetypeTableRecord
  2
Continuous
 70
     0
  3
Solid line
 72
    65
 73
     0
 40
0.0
  0
ENDTAB
  0
TABLE
  2
LAYER
  5
2
102
{ACAD_XDICTIONARY
360
901
102
}
330
0
100
AcDbSymbolTable
 70
     2
  0
LAYER
  5
10
330
2
100
AcDbSymbolTableRecord
100
AcDbLayerTableRecord
  2
0
 70
     0
 62
     7
  6
Continuous
370
    -3
390
F
  0
LAYER
  5
8F5
102
{ACAD_XDICTIONARY
360
8F6
102
}
330
2
100
AcDbSymbolTableRecord
100
AcDbLayerTableRecord
  2
ceco.net 137
 70
     0
 62
     7
  6
Continuous
370
    -3
390
F
1001
AcAecLayerStandard
1000

1000

  0
ENDTAB
  0
TABLE
  2
STYLE
  5
3
330
0
100
AcDbSymbolTable
 70
     1
  0
STYLE
  5
11
330
3
100
AcDbSymbolTableRecord
100
AcDbTextStyleTableRecord
  2
Standard
 70
     0
 40
0.0
 41
1.0
 50
0.0
 71
     0
 42
2.5
  3
txt
  4

  0
ENDTAB
  0
TABLE
  2
VIEW
  5
6
330
0
100
AcDbSymbolTable
 70
     0
  0
ENDTAB
  0
TABLE
  2
UCS
  5
7
330
0
100
AcDbSymbolTable
 70
     0
  0
ENDTAB
  0
TABLE
  2
APPID
  5
9
330
0
100
AcDbSymbolTable
 70
    13
  0
APPID
  5
12
330
9
100
AcDbSymbolTableRecord
100
AcDbRegAppTableRecord
  2
ACAD
 70
     0
  0
APPID
  5
2C
330
9
100
AcDbSymbolTableRecord
100
AcDbRegAppTableRecord
  2
ACAD_DSTYLE_DIMJOGGED_JOGANGLE_SYMBOL
 70
     0
  0
APPID
  5
11B
330
9
100
AcDbSymbolTableRecord
100
AcDbRegAppTableRecord
  2
ACAD_NAV_VCDISPLAY
 70
     0
  0
APPID
  5
11C
330
9
100
AcDbSymbolTableRecord
100
AcDbRegAppTableRecord
  2
ACAD_MLEADERVER
 70
     0
  0
APPID
  5
8F8
330
9
100
AcDbSymbolTableRecord
100
AcDbRegAppTableRecord
  2
ACAD_PSEXT
 70
     0
  0
APPID
  5
8F9
330
9
100
AcDbSymbolTableRecord
100
AcDbRegAppTableRecord
  2
ACAD_DSTYLE_DIMEXT_LENGTH
 70
     0
  0
APPID
  5
8FA
330
9
100
AcDbSymbolTableRecord
100
AcDbRegAppTableRecord
  2
ACAD_DSTYLE_DIMEXT_ENABLED
 70
     0
  0
APPID
  5
8FB
330
9
100
AcDbSymbolTableRecord
100
AcDbRegAppTableRecord
  2
ACAD_DSTYLE_DIMARC_LENGTH_SYMBOL
 70
     0
  0
APPID
  5
8FC
330
9
100
AcDbSymbolTableRecord
100
AcDbRegAppTableRecord
  2
AcAecLayerStandard
 70
     0
  0
APPID
  5
8FD
330
9
100
AcDbSymbolTableRecord
100
AcDbRegAppTableRecord
  2
ACAD_DSTYLE_DIM_LINETYPE
 70
     0
  0
APPID
  5
8FE
330
9
100
AcDbSymbolTableRecord
100
AcDbRegAppTableRecord
  2
ACAD_DSTYLE_DIM_EXT1_LINETYPE
 70
     0
  0
APPID
  5
8FF
330
9
100
AcDbSymbolTableRecord
100
AcDbRegAppTableRecord
  2
ACAD_DSTYLE_DIM_EXT2_LINETYPE
 70
     0
  0
APPID
  5
900
330
9
100
AcDbSymbolTableRecord
100
AcDbRegAppTableRecord
  2
ACAD_EXEMPT_FROM_CAD_STANDARDS
 70
     0
  0
ENDTAB
  0
TABLE
  2
DIMSTYLE
  5
A
330
0
100
AcDbSymbolTable
 70
     2
100
AcDbDimStyleTable
 71
     0
  0
DIMSTYLE
105
27
330
A
100
AcDbSymbolTableRecord
100
AcDbDimStyleTableRecord
  2
ISO-25
 70
     0
 41
2.5
 42
0.625
 43
3.75
 44
1.25
 73
     0
 74
     0
 77
     1
 78
     8
140
2.5
141
2.5
143
0.03937007874016
147
0.625
171
     3
172
     1
271
     2
272
     2
274
     3
278
    44
283
     0
284
     8
340
11
  0
DIMSTYLE
105
2B
330
A
100
AcDbSymbolTableRecord
100
AcDbDimStyleTableRecord
  2
Standard
 70
     0
340
11
  0
ENDTAB
  0
TABLE
  2
BLOCK_RECORD
  5
1
330
0
100
AcDbSymbolTable
 70
     2
  0
BLOCK_RECORD
  5
1F
330
1
100
AcDbSymbolTableRecord
100
AcDbBlockTableRecord
  2
*Model_Space
340
22
  0
BLOCK_RECORD
  5
1B
330
1
100
AcDbSymbolTableRecord
100
AcDbBlockTableRecord
  2
*Paper_Space
340
1E
  0
BLOCK_RECORD
  5
23
330
1
100
AcDbSymbolTableRecord
100
AcDbBlockTableRecord
  2
*Paper_Space0
340
26
  0
ENDTAB
  0
ENDSEC
  0
SECTION
  2
BLOCKS
  0
BLOCK
  5
20
330
1F
100
AcDbEntity
  8
0
100
AcDbBlockBegin
  2
*Model_Space
 70
     0
 10
0.0
 20
0.0
 30
0.0
  3
*Model_Space
  1

  0
ENDBLK
  5
21
330
1F
100
AcDbEntity
  8
0
100
AcDbBlockEnd
  0
BLOCK
  5
1C
330
1B
100
AcDbEntity
 67
     1
  8
0
100
AcDbBlockBegin
  2
*Paper_Space
 70
     0
 10
0.0
 20
0.0
 30
0.0
  3
*Paper_Space
  1

  0
ENDBLK
  5
1D
330
1B
100
AcDbEntity
 67
     1
  8
0
100
AcDbBlockEnd
  0
BLOCK
  5
24
330
23
100
AcDbEntity
  8
0
100
AcDbBlockBegin
  2
*Paper_Space0
 70
     0
 10
0.0
 20
0.0
 30
0.0
  3
*Paper_Space0
  1

  0
ENDBLK
  5
25
330
23
100
AcDbEntity
  8
0
100
AcDbBlockEnd
  0
ENDSEC
  0
SECTION
  2
ENTITIES
  0
LINE
  5
97C
330
1F
100
AcDbEntity
  8
ceco.net 137
100
AcDbLine
 10
190.4495213235577
 20
480.0000000000039
 30
0.0
 11
581.4424070449604
 21
480.0000000000039
 31
0.0
  0
SPLINE
  5
97D
330
1F
100
AcDbEntity
  8
ceco.net 137
100
AcDbSpline
210
0.0
220
0.0
230
1.0
 70
     8
 71
     3
 72
    25
 73
    21
 74
     0
 42
0.0000000001
 43
0.0000000001
 40
0.0
 40
0.0
 40
0.0
 40
0.0
 40
2.400948997168332
 40
8.022612074237969
 40
20.00705985509085
 40
30.11683367990572
 40
37.23495846915665
 40
44.56023927555065
 40
54.72270676447486
 40
63.33770112793125
 40
66.48017576821477
 40
73.90198493807645
 40
82.15457098415472
 40
94.10054007649245
 40
107.1761187022149
 40
119.7718487342692
 40
134.6579605747822
 40
140.4806547774764
 40
146.860630102082
 40
148.3456506796231
 40
148.3456506796231
 40
148.3456506796231
 40
148.3456506796231
 10
220.7216238163027
 20
924.0491842140841
 30
0.0
 10
219.3673064854237
 20
921.9045207655653
 30
0.0
 10
214.8419448121785
 20
914.738269879848
 30
0.0
 10
219.7254844354574
 20
892.9816796787832
 30
0.0
 10
224.0327224479869
 20
865.5334059052961
 30
0.0
 10
224.555058589317
 20
835.0929132352433
 30
0.0
 10
221.7180126161792
 20
809.6911024459387
 30
0.0
 10
228.0015991170785
 20
784.7524752670551
 30
0.0
 10
228.2730131354355
 20
757.649184307624
 30
0.0
 10
226.1508477954521
 20
735.0677960546079
 30
0.0
 10
228.2577414130173
 20
715.2378731363882
 30
0.0
 10
236.337890938671
 20
697.3356529780403
 30
0.0
 10
246.9688367261824
 20
670.7397829880505
 30
0.0
 10
248.0300725633242
 20
635.5999163600785
 30
0.0
 10
266.1030319532073
 20
600.4833507932545
 30
0.0
 10
278.9935078902772
 20
560.8225998741858
 30
0.0
 10
288.2104546388291
 20
527.1185843602808
 30
0.0
 10
303.7403975540655
 20
503.7834054954828
 30
0.0
 10
310.3909248669651
 20
491.1399491743537
 30
0.0
 10
312.5805736727897
 20
483.3187848174134
 30
0.0
 10
312.9728874458805
 20
481.8348406765977
 30
0.0
  0
SPLINE
  5
97E
330
1F
100
AcDbEntity
  8
ceco.net 137
100
AcDbSpline
210
0.0
220
0.0
230
1.0
 70
     8
 71
     3
 72
    36
 73
    32
 74
    30
 42
0.0000000001
 43
0.0000000001
 44
0.0000000001
 40
0.0
 40
0.0
 40
0.0
 40
0.0
 40
0.0175533275420738
 40
0.0368085087891289
 40
0.0619291480206603
 40
0.1018169412689611
 40
0.1272989519551391
 40
0.1647253816082512
 40
0.2013907231304572
 40
0.2485307704539199
 40
0.2957737613975691
 40
0.3134436438759554
 40
0.3380973152791043
 40
0.3711477916503223
 40
0.4121498401812925
 40
0.4559986647453011
 40
0.5211343085249532
 40
0.5555757471224374
 40
0.5645227289409358
 40
0.5721967235528817
 40
0.5832258618072823
 40
0.597866748087797
 40
0.6161418821559654
 40
0.6297614053942774
 40
0.6440443133191365
 40
0.6522885222589366
 40
0.6636539639283371
 40
0.6733801418546444
 40
0.680774553809272
 40
0.6888939281625442
 40
0.6955817238959393
 40
0.6955817238959393
 40
0.6955817238959393
 40
0.6955817238959393
 10
233.6351990902585
 20
1041.480166072645
 30
0.0
 10
239.0588749914792
 20
1039.290405066957
 30
0.0
 10
250.4320702788658
 20
1034.698578415813
 30
0.0
 10
271.1754805720792
 20
1031.030137121458
 30
0.0
 10
292.3778651341128
 20
1009.677251211146
 30
0.0
 10
298.7714523952199
 20
979.5123552085934
 30
0.0
 10
306.5273738566467
 20
946.1887991025774
 30
0.0
 10
304.7415145289809
 20
912.3525065422105
 30
0.0
 10
291.9799605954807
 20
873.802906201211
 30
0.0
 10
290.0185789432864
 20
829.8226508057297
 30
0.0
 10
287.1740906563189
 20
792.6662931411669
 30
0.0
 10
289.5008548557699
 20
762.6412384742319
 30
0.0
 10
299.4152071836237
 20
739.2771541296468
 30
0.0
 10
306.7520046120662
 20
707.171562437215
 30
0.0
 10
313.8484908481196
 20
668.464878221738
 30
0.0
 10
317.273111710481
 20
618.5506170029367
 30
0.0
 10
327.9656177065687
 20
571.5212699905658
 30
0.0
 10
334.7694234678171
 20
536.580354680859
 30
0.0
 10
339.8216144122343
 20
519.6681003278828
 30
0.0
 10
347.7194000506113
 20
514.1487499334856
 30
0.0
 10
358.4111121067767
 20
510.7590687163921
 30
0.0
 10
373.2635432545096
 20
511.0668700293529
 30
0.0
 10
388.1752721272499
 20
506.6206204817375
 30
0.0
 10
403.2129729568144
 20
502.4752140522921
 30
0.0
 10
415.2141366590318
 20
503.8493378736083
 30
0.0
 10
426.8000936222925
 20
504.9100111430282
 30
0.0
 10
435.2978885746002
 20
499.1053196180078
 30
0.0
 10
444.6814754249253
 20
497.192796580403
 30
0.0
 10
451.9085727046194
 20
492.6499875402182
 30
0.0
 10
457.335137155363
 20
487.5805688135942
 30
0.0
 10
461.6525231164661
 20
485.1512818200666
 30
0.0
 10
463.6025105374983
 20
484.0540718133325
 30
0.0
 11
233.6351990902585
 21
1041.480166072645
 31
0.0
 11
250.1236278156966
 21
1035.459283582056
 31
0.0
 11
268.514561290658
 21
1029.755287546251
 31
0.0
 11
286.9055056114575
 21
1012.643312721877
 31
0.0
 11
299.9059872711313
 21
974.9335855041465
 31
0.0
 11
304.6622708366157
 21
949.8993961772441
 31
0.0
 11
303.0768393662128
 21
912.5065620558245
 31
0.0
 11
294.5310989979361
 21
876.8510212452014
 31
0.0
 11
289.774826278176
 21
829.9515337056391
 31
0.0
 11
288.1893948077731
 21
782.735153069737
 31
0.0
 11
290.0981358199032
 21
765.1686663820527
 31
0.0
 11
297.7081765099001
 21
741.7189159707788
 31
0.0
 11
305.9523962954244
 21
709.7131847888107
 31
0.0
 11
312.9369778117734
 21
669.3104174977264
 31
0.0
 11
317.6994867941402
 21
625.7209930482332
 31
0.0
 11
329.7487160789387
 21
561.7095240428113
 31
0.0
 11
337.3587567689355
 21
528.1193473037575
 31
0.0
 11
340.8466929889755
 21
519.8802463464033
 31
0.0
 11
346.8713130542937
 21
515.1269163165466
 31
0.0
 11
357.3351217144136
 21
511.641145389035
 31
0.0
 11
371.9210348444903
 21
510.3735929282606
 31
0.0
 11
389.7216816666286
 21
506.2362631223322
 31
0.0
 11
403.0392474512609
 21
503.3842717459577
 31
0.0
 11
417.3080873021035
 21
504.0180446556092
 31
0.0
 11
425.5522962419036
 21
504.0180446556092
 31
0.0
 11
436.0161049020234
 21
499.5816077221064
 31
0.0
 11
445.2115770624232
 21
496.412723249378
 31
0.0
 11
451.5532704069755
 21
492.6100592255124
 31
0.0
 11
457.8949745971385
 21
487.539849382415
 31
0.0
 11
463.6025105374983
 21
484.0540718133325
 31
0.0
  0
SPLINE
  5
97F
330
1F
100
AcDbEntity
  8
ceco.net 137
100
AcDbSpline
210
0.0
220
0.0
230
1.0
 70
     8
 71
     3
 72
    14
 73
    10
 74
     8
 42
0.0000000001
 43
0.0000000001
 44
0.0000000001
 40
0.0
 40
0.0
 40
0.0
 40
0.0
 40
0.0188436228500706
 40
0.0449506132276833
 40
0.0658240294295141
 40
0.0895231365239234
 40
0.1059561817571157
 40
0.1327494290637492
 40
0.1539683424650926
 40
0.1539683424650926
 40
0.1539683424650926
 40
0.1539683424650926
 10
332.0330644729665
 20
1198.389058131354
 30
0.0
 10
332.7978335295175
 20
1204.902665712137
 30
0.0
 10
334.6221556539329
 20
1220.440583097252
 30
0.0
 10
318.1756091909774
 20
1237.384107912531
 30
0.0
 10
313.1579119674116
 20
1262.315083456534
 30
0.0
 10
290.8881529181187
 20
1269.101827623724
 30
0.0
 10
282.6835775816909
 20
1292.82891485416
 30
0.0
 10
256.7046103355408
 20
1291.111790373019
 30
0.0
 10
241.3845954915393
 20
1289.348520821024
 30
0.0
 10
234.6139344030007
 20
1288.569246083639
 30
0.0
 11
332.0330644729665
 21
1198.389058131354
 31
0.0
 11
332.0330644729665
 21
1217.232680981425
 31
0.0
 11
319.4628632377316
 21
1240.114223488049
 31
0.0
 11
310.4841310265555
 21
1258.957839696591
 31
0.0
 11
291.6288183280357
 21
1273.314888840246
 31
0.0
 11
282.201161978719
 21
1286.774616601064
 31
0.0
 11
255.713932865774
 21
1290.812536257618
 31
0.0
 11
234.6139344030007
 21
1288.569246083639
 31
0.0
  0
SPLINE
  5
980
330
1F
100
AcDbEntity
  8
ceco.net 137
100
AcDbSpline
210
0.0
220
0.0
230
1.0
 70
     8
 71
     3
 72
    10
 73
     6
 74
     4
 42
0.0000000001
 43
0.0000000001
 44
0.0000000001
 40
0.0
 40
0.0
 40
0.0
 40
0.0
 40
0.017549403919602
 40
0.0434864888912259
 40
0.0658059157563356
 40
0.0658059157563356
 40
0.0658059157563356
 40
0.0658059157563356
 10
283.0990319461079
 20
1195.248459857609
 30
0.0
 10
284.2902496778788
 20
1201.25041110139
 30
0.0
 10
287.2420238177302
 20
1216.122926845177
 30
0.0
 10
271.0177204500788
 20
1233.906662985683
 30
0.0
 10
263.6233233031208
 20
1247.967772572853
 30
0.0
 10
260.2032935485567
 20
1254.471265990176
 30
0.0
 11
283.0990319461079
 21
1195.248459857609
 31
0.0
 11
284.4458477429725
 21
1212.746107274981
 31
0.0
 11
271.4267006783757
 21
1235.178989090201
 31
0.0
 11
260.2032935485567
 21
1254.471265990176
 31
0.0
  0
SPLINE
  5
981
330
1F
100
AcDbEntity
  8
ceco.net 137
100
AcDbSpline
210
0.0
220
0.0
230
1.0
 70
     8
 71
     3
 72
    11
 73
     7
 74
     5
 42
0.0000000001
 43
0.0000000001
 44
0.0000000001
 40
0.0
 40
0.0
 40
0.0
 40
0.0
 40
0.0167524804601331
 40
0.0445837443162994
 40
0.0719407764796717
 40
0.0922510093277895
 40
0.0922510093277895
 40
0.0922510093277895
 40
0.0922510093277895
 10
297.4649948075693
 20
1196.594428648779
 30
0.0
 10
299.6570282373706
 20
1201.6855434919
 30
0.0
 10
305.4907349651363
 20
1215.23463928048
 30
0.0
 10
306.4476378340496
 20
1242.008165846835
 30
0.0
 10
285.6624820394338
 20
1258.968426728095
 30
0.0
 10
274.7356340135175
 20
1270.286902912811
 30
0.0
 10
270.0798848815111
 20
1275.109518322821
 30
0.0
 11
297.4649948075693
 21
1196.594428648779
 31
0.0
 11
303.3011604414923
 21
1212.297446583576
 31
0.0
 11
302.4032904741034
 21
1240.114223488049
 31
0.0
 11
284.4458477429725
 21
1260.752475820695
 31
0.0
 11
270.0798848815111
 21
1275.109518322821
 31
0.0
  0
SPLINE
  5
982
330
1F
100
AcDbEntity
  8
ceco.net 137
100
AcDbSpline
210
0.0
220
0.0
230
1.0
 70
     8
 71
     3
 72
     9
 73
     5
 74
     3
 42
0.0000000001
 43
0.0000000001
 44
0.0000000001
 40
0.0
 40
0.0
 40
0.0
 40
0.0
 40
0.0395406853811674
 40
0.0944934465532022
 40
0.0944934465532022
 40
0.0944934465532022
 40
0.0944934465532022
 10
329.8201023052342
 20
1215.407135261187
 30
0.0
 10
325.0367732816795
 20
1202.111932200699
 30
0.0
 10
313.6056804446056
 20
1170.339352952271
 30
0.0
 10
279.008327556015
 20
1166.495541152843
 30
0.0
 10
258.8882013480997
 20
1164.260168441728
 30
0.0
 11
329.8201023052342
 21
1215.407135261187
 31
0.0
 11
311.4137137447414
 21
1180.411840426415
 31
0.0
 11
258.8882013480997
 21
1164.260168441728
 31
0.0
  0
SPLINE
  5
983
330
1F
100
AcDbEntity
  8
ceco.net 137
100
AcDbSpline
210
0.0
220
0.0
230
1.0
 70
     8
 71
     3
 72
    10
 73
     6
 74
     4
 42
0.0000000001
 43
0.0000000001
 44
0.0000000001
 40
0.0
 40
0.0
 40
0.0
 40
0.0
 40
0.0027593382192857
 40
0.0058744264727992
 40
0.0109464289207611
 40
0.0109464289207611
 40
0.0109464289207611
 40
0.0109464289207611
 10
274.8029806846261
 20
1109.675920372751
 30
0.0
 10
275.5348812324169
 20
1109.088853267073
 30
0.0
 10
277.0930432305902
 20
1107.839030928225
 30
0.0
 10
280.8465061436134
 20
1107.463135794383
 30
0.0
 10
283.5545549493458
 20
1107.4714599907
 30
0.0
 10
285.2322241816409
 20
1107.476616931748
 30
0.0
 11
274.8029806846261
 21
1109.675920372751
 31
0.0
 11
277.0993243940438
 21
1108.145968420359
 31
0.0
 11
280.1611232371215
 21
1107.572241419333
 31
0.0
 11
285.2322241816409
 21
1107.476616931748
 31
0.0
  0
SPLINE
  5
984
330
1F
100
AcDbEntity
  8
ceco.net 137
100
AcDbSpline
210
0.0
220
0.0
230
1.0
 70
     8
 71
     3
 72
    10
 73
     6
 74
     0
 42
0.0000000001
 43
0.0000000001
 40
0.0
 40
0.0
 40
0.0
 40
0.0
 40
2.161132928959563
 40
5.894537986106094
 40
8.844953596594855
 40
8.844953596594855
 40
8.844953596594855
 40
8.844953596594855
 10
281.7163495054728
 20
1103.812880052714
 30
0.0
 10
281.440424990933
 20
1101.610294253546
 30
0.0
 10
281.4049810507412
 20
1095.141403391025
 30
0.0
 10
277.2529897655431
 20
1086.501536991846
 30
0.0
 10
271.373023167257
 20
1082.694697890033
 30
0.0
 10
268.7032135187337
 20
1081.08366244167
 30
0.0
  0
LINE
  5
985
330
1F
100
AcDbEntity
  8
ceco.net 137
100
AcDbLine
 10
581.4424070449604
 20
0.0
 30
0.0
 11
-581.4424070449586
 21
0.0
 31
0.0
  0
SPLINE
  5
986
330
1F
100
AcDbEntity
  8
ceco.net 137
100
AcDbSpline
210
0.0
220
0.0
230
1.0
 70
     8
 71
     3
 72
     8
 73
     4
 74
     0
 42
0.0000000001
 43
0.0000000001
 40
5.199510086037091
 40
5.199510086037091
 40
5.199510086037091
 40
5.199510086037091
 40
11.18201803598366
 40
11.18201803598366
 40
11.18201803598366
 40
11.18201803598366
 10
449.0536076858688
 20
480.0000000000039
 30
0.0
 10
442.2489974820109
 20
481.2368558103088
 30
0.0
 10
436.6094352850495
 20
482.2613386910603
 30
0.0
 10
430.9698730879745
 20
483.2858215718118
 30
0.0
  0
SPLINE
  5
987
330
1F
100
AcDbEntity
  8
ceco.net 137
100
AcDbSpline
210
0.0
220
0.0
230
1.0
 70
     8
 71
     3
 72
    13
 73
     9
 74
     0
 42
0.0000000001
 43
0.0000000001
 40
5.151293363946346
 40
5.151293363946346
 40
5.151293363946346
 40
5.151293363946346
 40
5.797243285298731
 40
11.74793211946216
 40
17.76480035934086
 40
28.46044058109656
 40
36.68656924888821
 40
38.27701885756065
 40
38.27701885756065
 40
38.27701885756065
 40
38.27701885756065
 10
415.5057202647185
 20
480.0000000000039
 30
0.0
 10
414.8477125663703
 20
480.1244925695158
 30
0.0
 10
408.1217193186148
 20
481.344733714252
 30
0.0
 10
395.0088524726425
 20
480.6349999031169
 30
0.0
 10
371.6865408667899
 20
483.1347093214191
 30
0.0
 10
345.9180365831571
 20
480.0384858712192
 30
0.0
 10
324.7513976347136
 20
481.5762611398497
 30
0.0
 10
314.6152379865725
 20
481.8071763088624
 30
0.0
 10
312.9728874458805
 20
481.8348406765977
 30
0.0
  0
SPLINE
  5
988
330
1F
100
AcDbEntity
  8
ceco.net 137
100
AcDbSpline
210
0.0
220
0.0
230
1.0
 70
     8
 71
     3
 72
     9
 73
     5
 74
     0
 42
0.0000000001
 43
0.0000000001
 40
0.0
 40
0.0
 40
0.0
 40
0.0
 40
0.8782617206103765
 40
1.375450458019707
 40
1.375450458019707
 40
1.375450458019707
 40
1.375450458019707
 10
463.8915694408751
 20
483.2858215718118
 30
0.0
 10
463.4785761885495
 20
482.4383550760842
 30
0.0
 10
462.831785209687
 20
481.1111331872268
 30
0.0
 10
461.8593770790084
 20
480.2555967176118
 30
0.0
 10
461.4717809139392
 20
480.0000000000039
 30
0.0
  0
SPLINE
  5
989
330
1F
100
AcDbEntity
  8
ceco.net 137
100
AcDbSpline
210
0.0
220
0.0
230
1.0
 70
     8
 71
     3
 72
    13
 73
     9
 74
     7
 42
0.0000000001
 43
0.0000000001
 44
0.0000000001
 40
0.0
 40
0.0
 40
0.0
 40
0.0
 40
0.0049116916238133
 40
0.0114947000660834
 40
0.0281235928885988
 40
0.0392087705707435
 40
0.0502399529242113
 40
0.0595555345164551
 40
0.0595555345164551
 40
0.0595555345164551
 40
0.0595555345164551
 10
432.3416122435901
 20
482.3066169894474
 30
0.0
 10
432.4700424016488
 20
484.0769132477675
 30
0.0
 10
432.770604053192
 20
488.2198900622813
 30
0.0
 10
423.0911843685706
 20
492.7972026103132
 30
0.0
 10
413.3073095019209
 20
497.5948876718724
 30
0.0
 10
400.1257493953521
 20
498.4332080405445
 30
0.0
 10
389.9775286628486
 20
500.9398824144049
 30
0.0
 10
383.4157842778495
 20
502.6667915670555
 30
0.0
 10
380.4115490407866
 20
503.4574412820091
 30
0.0
 11
432.3416122435901
 21
482.3066169894474
 31
0.0
 11
431.949682122422
 21
487.2026465428263
 31
0.0
 11
426.658695983292
 21
491.1194648723551
 31
0.0
 11
411.1776676869567
 21
497.1905306264687
 31
0.0
 11
400.203765287415
 21
498.7572566299718
 31
0.0
 11
389.425822525709
 21
501.1073489559976
 31
0.0
 11
380.4115490407866
 21
503.4574412820091
 31
0.0
  0
SPLINE
  5
98A
330
1F
100
AcDbEntity
  8
ceco.net 137
100
AcDbSpline
210
0.0
220
0.0
230
1.0
 70
     8
 71
     3
 72
    11
 73
     7
 74
     5
 42
0.0000000001
 43
0.0000000001
 44
0.0000000001
 40
0.0
 40
0.0
 40
0.0
 40
0.0
 40
0.0087115006002636
 40
0.0194970614373045
 40
0.0265801906672831
 40
0.0406538899576884
 40
0.0406538899576884
 40
0.0406538899576884
 40
0.0406538899576884
 10
322.4962789520304
 20
1177.887043131263
 30
0.0
 10
324.9384492379524
 20
1176.036739595512
 30
0.0
 10
330.4042290490149
 20
1171.895606698947
 30
0.0
 10
329.9026548228489
 20
1162.104031199219
 30
0.0
 10
325.6959988334028
 20
1151.3787057671
 30
0.0
 10
317.5631670123014
 20
1151.845012016459
 30
0.0
 10
312.1531392607721
 20
1152.155202833782
 30
0.0
 11
322.4962789520304
 21
1177.887043131263
 31
0.0
 11
328.6581510217274
 21
1171.728993496429
 31
0.0
 11
329.0982793181456
 21
1160.952416597794
 31
0.0
 11
326.0173487060455
 21
1154.574439939636
 31
0.0
 11
312.1531392607721
 21
1152.155202833782
 31
0.0
  0
SPLINE
  5
98B
330
1F
100
AcDbEntity
  8
ceco.net 137
100
AcDbSpline
210
0.0
220
0.0
230
1.0
 70
     8
 71
     3
 72
    13
 73
     9
 74
     7
 42
0.0000000001
 43
0.0000000001
 44
0.0000000001
 40
0.0
 40
0.0
 40
0.0
 40
0.0
 40
0.0133777968676977
 40
0.0384001113911264
 40
0.0599744582406445
 40
0.0887569978978954
 40
0.1067744205083294
 40
0.1130336452212155
 40
0.1130336452212155
 40
0.1130336452212155
 40
0.1130336452212155
 10
331.9591512047281
 20
1193.502087600095
 30
0.0
 10
335.967866572891
 20
1191.206265335296
 30
0.0
 10
347.4746279772647
 20
1184.616254171699
 30
0.0
 10
349.4521972944189
 20
1161.068924274527
 30
0.0
 10
338.3498502221334
 20
1138.414090371087
 30
0.0
 10
321.9887483064975
 20
1122.141813131301
 30
0.0
 10
306.6614873158036
 20
1112.228251630121
 30
0.0
 10
298.6054787513632
 20
1111.099380476553
 30
0.0
 10
296.528405783988
 20
1110.808324708926
 30
0.0
 11
331.9591512047281
 21
1193.502087600095
 31
0.0
 11
342.7424191924046
 21
1185.584601854017
 31
0.0
 11
347.1437455393697
 21
1160.952416597794
 31
0.0
 11
338.5611515708433
 21
1141.158692270252
 31
0.0
 11
318.5350809014835
 21
1120.485253207846
 31
0.0
 11
302.690277853685
 21
1111.907973108685
 31
0.0
 11
296.528405783988
 21
1110.808324708926
 31
0.0
  0
SPLINE
  5
98C
330
1F
100
AcDbEntity
  8
ceco.net 137
100
AcDbSpline
210
0.0
220
0.0
230
1.0
 70
     8
 71
     3
 72
    13
 73
     9
 74
     7
 42
0.0000000001
 43
0.0000000001
 44
0.0000000001
 40
0.0
 40
0.0
 40
0.0
 40
0.0
 40
0.0077006183411931
 40
0.024696891848939
 40
0.0415982328337123
 40
0.0699079086360014
 40
0.0867361508582416
 40
0.0902572206123704
 40
0.0902572206123704
 40
0.0902572206123704
 40
0.0902572206123704
 10
326.4574770025774
 20
1185.80452887734
 30
0.0
 10
328.7323682735696
 20
1184.434695190481
 30
0.0
 10
336.0282426044982
 20
1180.041459100021
 30
0.0
 10
336.8342071147405
 20
1163.822861193821
 30
0.0
 10
329.7487534312675
 20
1144.572601491437
 30
0.0
 10
316.5014024158917
 20
1128.452020160825
 30
0.0
 10
302.1196524608863
 20
1118.424729124366
 30
0.0
 10
295.2895032560635
 20
1118.68139858182
 30
0.0
 10
294.1076730394343
 20
1118.725810455032
 30
0.0
 11
326.4574770025774
 21
1185.80452887734
 31
0.0
 11
332.6193490721607
 21
1181.185994971997
 31
0.0
 11
335.7002796842607
 21
1164.471295461879
 31
0.0
 11
330.4186750530107
 21
1148.416390304803
 31
0.0
 11
312.5932784028009
 21
1126.423369177786
 31
0.0
 11
297.6287427935631
 21
1118.725810455032
 31
0.0
 11
294.1076730394343
 21
1118.725810455032
 31
0.0
  0
SPLINE
  5
98D
330
1F
100
AcDbEntity
  8
ceco.net 137
100
AcDbSpline
210
0.0
220
0.0
230
1.0
 70
     8
 71
     3
 72
    11
 73
     7
 74
     5
 42
0.0000000001
 43
0.0000000001
 44
0.0000000001
 40
0.0
 40
0.0
 40
0.0
 40
0.0
 40
0.0072043848233259
 40
0.0188925983125413
 40
0.0290250278440462
 40
0.0429575872742586
 40
0.0429575872742586
 40
0.0429575872742586
 40
0.0429575872742586
 10
312.1531392607721
 20
1169.478590263281
 30
0.0
 10
311.678380018209
 20
1167.124413251251
 30
0.0
 10
310.433383271801
 20
1160.950878419947
 30
0.0
 10
307.2931484122436
 20
1151.728029783179
 30
0.0
 10
300.7218404139275
 20
1141.570184291581
 30
0.0
 10
299.7385117233089
 20
1133.477059523097
 30
0.0
 10
299.1692080995562
 20
1128.791499849981
 30
0.0
 11
312.1531392607721
 21
1169.478590263281
 31
0.0
 11
310.6126739547789
 21
1162.440825893568
 31
0.0
 11
306.651475904232
 21
1151.444315330038
 31
0.0
 11
302.0300799861388
 21
1142.427174542674
 31
0.0
 11
299.1692080995562
 21
1128.791499849981
 31
0.0
  0
SPLINE
  5
98E
330
1F
100
AcDbEntity
  8
ceco.net 137
100
AcDbSpline
210
0.0
220
0.0
230
1.0
 70
     8
 71
     3
 72
     9
 73
     5
 74
     3
 42
0.0000000001
 43
0.0000000001
 44
0.0000000001
 40
0.0
 40
0.0
 40
0.0
 40
0.0
 40
0.0025247660463038
 40
0.0083962544598897
 40
0.0083962544598897
 40
0.0083962544598897
 40
0.0083962544598897
 10
287.8156203448725
 20
1117.421291339297
 30
0.0
 10
287.447093813436
 20
1116.662881770593
 30
0.0
 10
286.2215376722279
 20
1114.140747201736
 30
0.0
 10
285.5830424305206
 20
1111.400752388318
 30
0.0
 10
285.1365436456489
 20
1109.484678039081
 30
0.0
 11
287.8156203448725
 21
1117.421291339297
 31
0.0
 11
286.7631236032366
 21
1115.126363410709
 31
0.0
 11
285.1365436456489
 21
1109.484678039081
 31
0.0
  0
SPLINE
  5
98F
330
1F
100
AcDbEntity
  8
ceco.net 137
100
AcDbSpline
210
0.0
220
0.0
230
1.0
 70
     8
 71
     3
 72
     9
 73
     5
 74
     3
 42
0.0000000001
 43
0.0000000001
 44
0.0000000001
 40
0.0
 40
0.0
 40
0.0
 40
0.0
 40
0.0051827312434402
 40
0.01553912283556
 40
0.01553912283556
 40
0.01553912283556
 40
0.01553912283556
 10
299.1833617041947
 20
1126.43764842825
 30
0.0
 10
297.4730189580192
 20
1126.161817890014
 30
0.0
 10
292.3449841872853
 20
1125.334809038094
 30
0.0
 10
287.5740286375321
 20
1123.234129057063
 30
0.0
 10
284.394319945818
 20
1121.834084490615
 30
0.0
 11
299.1833617041947
 21
1126.43764842825
 31
0.0
 11
294.0920552689476
 21
1125.468472528766
 31
0.0
 11
284.394319945818
 21
1121.834084490615
 31
0.0
  0
SPLINE
  5
990
330
1F
100
AcDbEntity
  8
ceco.net 137
100
AcDbSpline
210
0.0
220
0.0
230
1.0
 70
     8
 71
     3
 72
    11
 73
     7
 74
     0
 42
0.0000000001
 43
0.0000000001
 40
0.0
 40
0.0
 40
0.0
 40
0.0
 40
6.561948607294787
 40
12.37468956167121
 40
16.63293586718045
 40
19.63398059709976
 40
19.63398059709976
 40
19.63398059709976
 40
19.63398059709976
 10
29.84138119677481
 20
450.6563058550057
 30
0.0
 10
12.09013171364858
 20
436.9418177683854
 30
0.0
 10
-21.38562599668603
 20
411.0786873591791
 30
0.0
 10
9.559892068864428
 20
315.1423767728118
 30
0.0
 10
-35.86990938197232
 20
366.1750493276798
 30
0.0
 10
-50.48969088750254
 20
384.5962589982434
 30
0.0
 10
-56.08551060788613
 20
391.7927618424386
 30
0.0
  0
SPLINE
  5
991
330
1F
100
AcDbEntity
  8
ceco.net 137
100
AcDbSpline
210
0.0
220
0.0
230
1.0
 70
     8
 71
     3
 72
    10
 73
     6
 74
     0
 42
0.0000000001
 43
0.0000000001
 40
47.07514968118682
 40
47.07514968118682
 40
47.07514968118682
 40
47.07514968118682
 40
61.42954489198579
 40
76.92955614206988
 40
81.68860382599294
 40
81.68860382599294
 40
81.68860382599294
 40
81.68860382599294
 10
52.27915702221253
 20
480.7292115912815
 30
0.0
 10
38.61722168244341
 20
486.3514182963228
 30
0.0
 10
11.67560632416098
 20
501.6822890161307
 30
0.0
 10
-22.22689552627343
 20
514.1663081409859
 30
0.0
 10
-42.88724514890418
 20
517.4508223617806
 30
0.0
 10
-47.75768197680463
 20
518.1381315624804
 30
0.0
  0
SPLINE
  5
992
330
1F
100
AcDbEntity
  8
ceco.net 137
100
AcDbSpline
210
0.0
220
0.0
230
1.0
 70
     8
 71
     3
 72
     9
 73
     5
 74
     0
 42
0.0000000001
 43
0.0000000001
 40
7.363176815452938
 40
7.363176815452938
 40
7.363176815452938
 40
7.363176815452938
 40
25.91071300370084
 40
41.786597208534
 40
41.786597208534
 40
41.786597208534
 40
41.786597208534
 10
49.17878131766428
 20
464.5635905603597
 30
0.0
 10
33.16266065621675
 20
453.9539039815281
 30
0.0
 10
2.008791427215328
 20
435.7555604755134
 30
0.0
 10
-32.57682655737426
 20
427.7169468316088
 30
0.0
 10
-48.80949397295353
 20
424.8443850619167
 30
0.0
  0
SPLINE
  5
993
330
1F
100
AcDbEntity
  8
ceco.net 137
100
AcDbSpline
210
0.0
220
0.0
230
1.0
 70
     8
 71
     3
 72
     8
 73
     4
 74
     0
 42
0.0000000001
 43
0.0000000001
 40
14.5468595747003
 40
14.5468595747003
 40
14.5468595747003
 40
14.5468595747003
 40
14.92301950410136
 40
14.92301950410136
 40
14.92301950410136
 40
14.92301950410136
 10
-21.37728794104987
 20
958.071381233239
 30
0.0
 10
-22.16131190914438
 20
957.0857581734202
 30
0.0
 10
-22.94626849493397
 20
956.100548046237
 30
0.0
 10
-23.73122508083724
 20
955.1153379190537
 30
0.0
  0
SPLINE
  5
994
330
1F
100
AcDbEntity
  8
ceco.net 137
100
AcDbSpline
210
0.0
220
0.0
230
1.0
 70
     8
 71
     3
 72
    11
 73
     7
 74
     0
 42
0.0000000001
 43
0.0000000001
 40
0.0
 40
0.0
 40
0.0
 40
0.0
 40
1.229684152122993
 40
5.443040017288391
 40
11.7754628849453
 40
12.03286197551453
 40
12.03286197551453
 40
12.03286197551453
 40
12.03286197551453
 10
57.0664443756641
 20
1078.317788827035
 30
0.0
 10
53.26863849609253
 20
1076.571154369588
 30
0.0
 10
36.45813529158203
 20
1068.839899777771
 30
0.0
 10
24.0347979723765
 20
1027.222953697744
 30
0.0
 10
7.139438351600801
 20
996.4271861567652
 30
0.0
 10
-5.561557234386782
 20
978.7025314012538
 30
0.0
 10
-6.061014589931801
 20
978.0116902357605
 30
0.0
  0
SPLINE
  5
995
330
1F
100
AcDbEntity
  8
ceco.net 137
100
AcDbSpline
210
0.0
220
0.0
230
1.0
 70
     8
 71
     3
 72
     9
 73
     5
 74
     0
 42
0.0000000001
 43
0.0000000001
 40
0.0
 40
0.0
 40
0.0
 40
0.0
 40
4.203484805056832
 40
7.339128501101657
 40
7.339128501101657
 40
7.339128501101657
 40
7.339128501101657
 10
-47.34631577150594
 20
886.6028887975261
 30
0.0
 10
-40.94484479594484
 20
873.9635958029623
 30
0.0
 10
-29.76811399651069
 20
851.8958592100887
 30
0.0
 10
-26.63122013234442
 20
827.6499687401894
 30
0.0
 10
-25.81070922565231
 20
817.1501039481512
 30
0.0
  0
SPLINE
  5
996
330
1F
100
AcDbEntity
  8
ceco.net 137
100
AcDbSpline
210
0.0
220
0.0
230
1.0
 70
     8
 71
     3
 72
    12
 73
     8
 74
     0
 42
0.0000000001
 43
0.0000000001
 40
0.0
 40
0.0
 40
0.0
 40
0.0
 40
2.115984857430691
 40
3.139225100397199
 40
9.792651074133424
 40
13.95938327078987
 40
16.76084845430229
 40
16.76084845430229
 40
16.76084845430229
 40
16.76084845430229
 10
74.35646865826583
 20
1080.396165435886
 30
0.0
 10
68.29481338297682
 20
1076.135431838338
 30
0.0
 10
59.30188494892263
 20
1069.814308221282
 30
0.0
 10
51.26964225905794
 20
1037.277779132964
 30
0.0
 10
54.23052275853024
 20
997.6350850359096
 30
0.0
 10
59.53620445177421
 20
952.499636155764
 30
0.0
 10
59.50812120033788
 20
929.3204480673296
 30
0.0
 10
59.21621167669854
 20
919.9923771659115
 30
0.0
  0
LINE
  5
997
330
1F
100
AcDbEntity
  8
ceco.net 137
100
AcDbLine
 10
-581.4424070448449
 20
480.0000000000039
 30
0.0
 11
-191.299210572879
 21
480.0000000000039
 31
0.0
  0
SPLINE
  5
998
330
1F
100
AcDbEntity
  8
ceco.net 137
100
AcDbSpline
210
0.0
220
0.0
230
1.0
 70
     8
 71
     3
 72
     9
 73
     5
 74
     0
 42
0.0000000001
 43
0.0000000001
 40
17.33824397370373
 40
17.33824397370373
 40
17.33824397370373
 40
17.33824397370373
 40
20.61031598240314
 40
26.92353652573145
 40
26.92353652573145
 40
26.92353652573145
 40
26.92353652573145
 10
-274.1330984298411
 20
76.33703039424233
 30
0.0
 10
-274.5795409516613
 20
72.96145905806383
 30
0.0
 10
-275.9181952548015
 20
63.07369767888815
 30
0.0
 10
-278.4306229455051
 20
53.50437312743849
 30
0.0
 10
-280.0853987412192
 20
47.20166968712646
 30
0.0
  0
SPLINE
  5
999
330
1F
100
AcDbEntity
  8
ceco.net 137
100
AcDbSpline
210
0.0
220
0.0
230
1.0
 70
     8
 71
     3
 72
    11
 73
     7
 74
     0
 42
0.0000000001
 43
0.0000000001
 40
0.33604961808764
 40
0.33604961808764
 40
0.33604961808764
 40
0.33604961808764
 40
2.048561894610451
 40
6.86245546256671
 40
9.743579794709667
 40
10.93609140425703
 40
10.93609140425703
 40
10.93609140425703
 40
10.93609140425703
 10
-268.8015434141544
 20
104.5227935767627
 30
0.0
 10
-269.613391674623
 20
102.9320849070387
 30
0.0
 10
-272.5801903051188
 20
96.84101116806687
 30
0.0
 10
-272.5982052663749
 20
87.09443359821023
 30
0.0
 10
-277.0184546018281
 20
77.92746084705015
 30
0.0
 10
-275.2056534259263
 20
74.09761799387126
 30
0.0
 10
-274.5846313958946
 20
72.98522598669876
 30
0.0
  0
SPLINE
  5
99A
330
1F
100
AcDbEntity
  8
ceco.net 137
100
AcDbSpline
210
0.0
220
0.0
230
1.0
 70
     8
 71
     3
 72
     9
 73
     5
 74
     0
 42
0.0000000001
 43
0.0000000001
 40
1.24502172085925
 40
1.24502172085925
 40
1.24502172085925
 40
1.24502172085925
 40
1.549989873149679
 40
4.035510994171457
 40
4.035510994171457
 40
4.035510994171457
 40
4.035510994171457
 10
-191.546528439062
 20
100.7340688059343
 30
0.0
 10
-191.589765423032
 20
101.0458439989747
 30
0.0
 10
-192.0046162634889
 20
103.8951295141288
 30
0.0
 10
-192.6385022929935
 20
106.7046718965514
 30
0.0
 10
-193.2790451273831
 20
109.1933860406726
 30
0.0
  0
SPLINE
  5
99B
330
1F
100
AcDbEntity
  8
ceco.net 137
100
AcDbSpline
210
0.0
220
0.0
230
1.0
 70
     8
 71
     3
 72
    10
 73
     6
 74
     0
 42
0.0000000001
 43
0.0000000001
 40
0.5538334917028556
 40
0.5538334917028556
 40
0.5538334917028556
 40
0.5538334917028556
 40
2.576143827828931
 40
6.487348696739925
 40
8.619055540105557
 40
8.619055540105557
 40
8.619055540105557
 40
8.619055540105557
 10
-195.6859407127904
 20
95.79508508355161
 30
0.0
 10
-195.4797087649904
 20
93.72120138036166
 30
0.0
 10
-194.8716570693687
 20
87.62890907084397
 30
0.0
 10
-193.9902178461334
 20
79.20948998554422
 30
0.0
 10
-195.4004642103637
 20
73.12329185420196
 30
0.0
 10
-195.9696852396728
 20
70.98401001493925
 30
0.0
  0
SPLINE
  5
99C
330
1F
100
AcDbEntity
  8
ceco.net 137
100
AcDbSpline
210
0.0
220
0.0
230
1.0
 70
     8
 71
     3
 72
    10
 73
     6
 74
     0
 42
0.0000000001
 43
0.0000000001
 40
0.0
 40
0.0
 40
0.0
 40
0.0
 40
2.144282737794421
 40
6.186132072346667
 40
7.468257261912
 40
7.468257261912
 40
7.468257261912
 40
7.468257261912
 10
-191.7252588700648
 20
50.66462037993346
 30
0.0
 10
-191.3146092612123
 20
52.82364021189778
 30
0.0
 10
-190.1299088156065
 20
59.05228795130312
 30
0.0
 10
-188.6765624495865
 20
67.08386781225783
 30
0.0
 10
-190.6863348206115
 20
72.2015035285608
 30
0.0
 10
-191.2295051588444
 20
73.4221272386577
 30
0.0
  0
SPLINE
  5
99D
330
1F
100
AcDbEntity
  8
ceco.net 137
100
AcDbSpline
210
0.0
220
0.0
230
1.0
 70
     8
 71
     3
 72
    10
 73
     6
 74
     0
 42
0.0000000001
 43
0.0000000001
 40
0.3364906078674453
 40
0.3364906078674453
 40
0.3364906078674453
 40
0.3364906078674453
 40
1.720398585026469
 40
5.419725563719175
 40
6.002426406375974
 40
6.002426406375974
 40
6.002426406375974
 40
6.002426406375974
 10
-191.2295051588444
 20
73.4221272386577
 30
0.0
 10
-192.5137898364255
 20
72.80493911096641
 30
0.0
 10
-197.2198261761359
 20
70.49548199945832
 30
0.0
 10
-202.2293716408949
 20
67.03244737050795
 30
0.0
 10
-206.5602055896516
 20
66.28701088382626
 30
0.0
 10
-207.1558470072414
 20
66.20720984271599
 30
0.0
  0
SPLINE
  5
99E
330
1F
100
AcDbEntity
  8
ceco.net 137
100
AcDbSpline
210
0.0
220
0.0
230
1.0
 70
     8
 71
     3
 72
    11
 73
     7
 74
     0
 42
0.0000000001
 43
0.0000000001
 40
0.9077884152628787
 40
0.9077884152628787
 40
0.9077884152628787
 40
0.9077884152628787
 40
5.015327217765515
 40
8.227646658129124
 40
12.17607248362216
 40
13.43307383153519
 40
13.43307383153519
 40
13.43307383153519
 40
13.43307383153519
 10
-191.546528439062
 20
100.7340688059343
 30
0.0
 10
-194.3281224796447
 20
97.52159215440769
 30
0.0
 10
-199.1761495462452
 20
91.71417717411145
 30
0.0
 10
-204.9883700726677
 20
81.52216858161409
 30
0.0
 10
-206.9404348277412
 20
72.87800985064052
 30
0.0
 10
-207.1332837272148
 20
67.50526199277828
 30
0.0
 10
-207.1558470072414
 20
66.20720984271599
 30
0.0
  0
SPLINE
  5
99F
330
1F
100
AcDbEntity
  8
ceco.net 137
100
AcDbSpline
210
0.0
220
0.0
230
1.0
 70
     8
 71
     3
 72
    14
 73
    10
 74
     0
 42
0.0000000001
 43
0.0000000001
 40
0.4641129477890369
 40
0.4641129477890369
 40
0.4641129477890369
 40
0.4641129477890369
 40
2.773873527392515
 40
7.993031039499634
 40
14.09791004256446
 40
17.31749100275608
 40
19.73448722274081
 40
21.77886057111829
 40
24.57355308044784
 40
24.57355308044784
 40
24.57355308044784
 40
24.57355308044784
 10
-268.8015434141544
 20
104.5227935767627
 30
0.0
 10
-266.8747498088333
 20
105.9577250866965
 30
0.0
 10
-260.5072876903005
 20
110.4680388722698
 30
0.0
 10
-245.9121683244784
 20
112.7439236396838
 30
0.0
 10
-230.6711820989431
 20
107.9231230774553
 30
0.0
 10
-221.8556548609722
 20
100.714648605205
 30
0.0
 10
-213.7351316885069
 20
95.40526279779726
 30
0.0
 10
-208.2513405655372
 20
102.3164779694667
 30
0.0
 10
-205.431021105026
 20
106.1848298383409
 30
0.0
 10
-203.8022096976401
 20
108.4189085447349
 30
0.0
  0
SPLINE
  5
9A0
330
1F
100
AcDbEntity
  8
ceco.net 137
100
AcDbSpline
210
0.0
220
0.0
230
1.0
 70
     8
 71
     3
 72
    10
 73
     6
 74
     0
 42
0.0000000001
 43
0.0000000001
 40
0.0
 40
0.0
 40
0.0
 40
0.0
 40
1.155775977247228
 40
3.937324900292816
 40
4.779206552582414
 40
4.779206552582414
 40
4.779206552582414
 40
4.779206552582414
 10
-196.180390605603
 20
1.935907722582896
 30
0.0
 10
-197.3608496683692
 20
1.760560962793533
 30
0.0
 10
-201.3822612162794
 20
1.163215822302277
 30
0.0
 10
-206.3119040878955
 20
0.6986930029881933
 30
0.0
 10
-210.0524739016673
 20
0.7083681160651168
 30
0.0
 10
-210.9216800942004
 20
0.7232856934535903
 30
0.0
  0
SPLINE
  5
9A1
330
1F
100
AcDbEntity
  8
ceco.net 137
100
AcDbSpline
210
0.0
220
0.0
230
1.0
 70
     8
 71
     3
 72
    13
 73
     9
 74
     7
 42
0.0000000001
 43
0.0000000001
 44
0.0000000001
 40
0.0
 40
0.0
 40
0.0
 40
0.0
 40
0.0075619975585105
 40
0.0337622151604506
 40
0.0578381997936563
 40
0.072169371388091
 40
0.0844621224981733
 40
0.0909899400512136
 40
0.0909899400512136
 40
0.0909899400512136
 40
0.0909899400512136
 10
-233.0589901221156
 20
14.30360489776205
 30
0.0
 10
-235.3491853376448
 20
13.23467044994478
 30
0.0
 10
-245.5742697849562
 20
8.462175544943402
 30
0.0
 10
-265.1766963422212
 20
6.578313555375136
 30
0.0
 10
-286.2846519145227
 20
3.902136266429111
 30
0.0
 10
-303.7600638731122
 20
5.510756533887203
 30
0.0
 10
-312.5372025494248
 20
13.24480845099198
 30
0.0
 10
-315.6164113125658
 20
18.70426119652561
 30
0.0
 10
-316.6844190531019
 20
20.59784433421896
 30
0.0
 11
-233.0589901221156
 21
14.30360489776205
 31
0.0
 11
-239.9906555949637
 21
11.28105285562241
 31
0.0
 11
-265.7299670291859
 21
6.388277643011974
 31
0.0
 11
-289.7396320659009
 21
4.602494654207589
 31
0.0
 11
-303.8461013313717
 21
7.130340403350032
 31
0.0
 11
-313.2513830552152
 21
15.0456676580859
 31
0.0
 11
-316.6844190531019
 21
20.59784433421896
 31
0.0
  0
SPLINE
  5
9A2
330
1F
100
AcDbEntity
  8
ceco.net 137
100
AcDbSpline
210
0.0
220
0.0
230
1.0
 70
     8
 71
     3
 72
    15
 73
    11
 74
     0
 42
0.0000000001
 43
0.0000000001
 40
0.0
 40
0.0
 40
0.0
 40
0.0
 40
1.247378899231954
 40
4.39947832209893
 40
12.71704598074801
 40
18.75130539055348
 40
22.48108066245039
 40
24.97800308230226
 40
27.12886816123516
 40
28.24758756488161
 40
28.24758756488161
 40
28.24758756488161
 40
28.24758756488161
 10
-233.0589901221156
 20
14.30360489776205
 30
0.0
 10
-233.8171074479742
 20
15.40850490481204
 30
0.0
 10
-236.4909708129498
 20
19.30546326452997
 30
0.0
 10
-251.4376998900598
 20
18.11222393298805
 30
0.0
 10
-268.3791578504024
 20
19.68415581231397
 30
0.0
 10
-287.149573210625
 20
21.69633542064275
 30
0.0
 10
-299.7093499710654
 20
23.93578909628502
 30
0.0
 10
-307.9302203935849
 20
25.60389482702873
 30
0.0
 10
-314.7879710409124
 20
24.66448999012982
 30
0.0
 10
-316.292710596711
 20
21.72713359556155
 30
0.0
 10
-316.6844190531019
 20
20.59784433421896
 30
0.0
  0
SPLINE
  5
9A3
330
1F
100
AcDbEntity
  8
ceco.net 137
100
AcDbSpline
210
0.0
220
0.0
230
1.0
 70
     8
 71
     3
 72
     9
 73
     5
 74
     3
 42
0.0000000001
 43
0.0000000001
 44
0.0000000001
 12
383.7065653377574
 22
923.455072928132
 32
0.0
 40
0.0
 40
0.0
 40
0.0
 40
0.0
 40
0.0093638342275188
 40
0.0221353066070441
 40
0.0221353066070441
 40
0.0221353066070441
 40
0.0221353066070441
 10
-221.1786388270393
 20
36.81280432563482
 30
0.0
 10
-219.9809839370948
 20
39.69516439878827
 30
0.0
 10
-223.699709781265
 20
22.65516346001851
 30
0.0
 10
-227.5943127462825
 20
18.92775609667053
 30
0.0
 10
-229.8413931721352
 20
16.77714300450361
 30
0.0
 11
-221.1786388270393
 21
36.81280432563482
 31
0.0
 11
-223.1587009914601
 21
27.66071465903507
 31
0.0
 11
-229.8413931721352
 21
16.77714300450361
 31
0.0
  0
SPLINE
  5
9A4
330
1F
100
AcDbEntity
  8
ceco.net 137
100
AcDbSpline
210
0.0
220
0.0
230
1.0
 70
     8
 71
     3
 72
    10
 73
     6
 74
     0
 42
0.0000000001
 43
0.0000000001
 40
0.0
 40
0.0
 40
0.0
 40
0.0
 40
2.192235677942898
 40
4.846093774548455
 40
6.655645032941636
 40
6.655645032941636
 40
6.655645032941636
 40
6.655645032941636
 10
-219.1985766627322
 20
58.08523470015813
 30
0.0
 10
-219.641727281667
 20
55.86389306408534
 30
0.0
 10
-220.6213434232022
 20
50.95345848715737
 30
0.0
 10
-221.3499408114767
 20
44.11195462930095
 30
0.0
 10
-221.7926733457016
 20
39.52372224520672
 30
0.0
 10
-221.9701126235786
 20
37.66355719064051
 30
0.0
  0
SPLINE
  5
9A5
330
1F
100
AcDbEntity
  8
ceco.net 137
100
AcDbSpline
210
0.0
220
0.0
230
1.0
 70
     8
 71
     3
 72
    10
 73
     6
 74
     4
 42
0.0000000001
 43
0.0000000001
 44
0.0000000001
 40
0.0
 40
0.0
 40
0.0
 40
0.0
 40
0.0061873836632891
 40
0.0165012024034665
 40
0.024671021731841
 40
0.024671021731841
 40
0.024671021731841
 40
0.024671021731841
 10
-200.3880240607696
 20
51.65403960756975
 30
0.0
 10
-202.4033753702923
 20
51.16321762262701
 30
0.0
 10
-207.7781382235865
 20
49.85423900446485
 30
0.0
 10
-214.6880814283456
 20
45.14285357755301
 30
0.0
 10
-219.7040806346211
 20
41.59608621233505
 30
0.0
 10
-221.9211662059006
 20
40.02840519271444
 30
0.0
 11
-200.3880240607696
 21
51.65403960756975
 31
0.0
 11
-206.328199708194
 21
49.92255761965225
 31
0.0
 11
-215.2384631795012
 21
44.72813158041333
 31
0.0
 11
-221.9211662059006
 21
40.02840519271444
 31
0.0
  0
SPLINE
  5
9A6
330
1F
100
AcDbEntity
  8
ceco.net 137
100
AcDbSpline
210
0.0
220
0.0
230
1.0
 70
     8
 71
     3
 72
    17
 73
    13
 74
     0
 42
0.0000000001
 43
0.0000000001
 40
0.0
 40
0.0
 40
0.0
 40
0.0
 40
2.993442240548727
 40
6.639707100827815
 40
10.85821212889067
 40
17.66526261903861
 40
21.85021312374597
 40
25.85679881891804
 40
29.28801742382163
 40
32.93795897610118
 40
35.14614848158888
 40
37.43589793712275
 40
37.43589793712275
 40
37.43589793712275
 40
37.43589793712275
 10
-221.1786388270393
 20
36.81280432563482
 30
0.0
 10
-223.2997140181378
 20
39.09667472504452
 30
0.0
 10
-228.0044375023617
 20
44.16249169749164
 30
0.0
 10
-238.2687132243272
 20
49.06434917600677
 30
0.0
 10
-252.4318413854853
 20
54.64437052749815
 30
0.0
 10
-269.037024555244
 20
53.18159289130619
 30
0.0
 10
-282.8333342365549
 20
46.32122756738965
 30
0.0
 10
-293.840177700984
 20
40.85605765757804
 30
0.0
 10
-304.6268455141198
 20
39.13411552940715
 30
0.0
 10
-316.0221067876118
 20
36.97021224139973
 30
0.0
 10
-316.8476071228933
 20
27.7354025314338
 30
0.0
 10
-316.7935772704577
 20
22.97028647997478
 30
0.0
 10
-316.6844190531019
 20
20.59784433421896
 30
0.0
  0
SPLINE
  5
9A7
330
1F
100
AcDbEntity
  8
ceco.net 137
100
AcDbSpline
210
0.0
220
0.0
230
1.0
 70
     8
 71
     3
 72
    15
 73
    11
 74
     0
 42
0.0000000001
 43
0.0000000001
 40
0.0
 40
0.0
 40
0.0
 40
0.0
 40
2.719084568663368
 40
5.779088959482697
 40
8.510918228852737
 40
13.08332230015236
 40
17.32912678665707
 40
20.65431732376161
 40
24.37739230560494
 40
25.48101759745422
 40
25.48101759745422
 40
25.48101759745422
 40
25.48101759745422
 10
-219.1985766627322
 20
58.08523470015813
 30
0.0
 10
-218.9072186380354
 20
60.84815633133189
 30
0.0
 10
-218.287972012602
 20
66.72041572284115
 30
0.0
 10
-219.8977745762231
 20
76.17529682603674
 30
0.0
 10
-229.6715002630644
 20
81.96741361422255
 30
0.0
 10
-239.7218214683771
 20
87.32561092190849
 30
0.0
 10
-252.7377328574385
 20
91.91353120392875
 30
0.0
 10
-264.4724545120862
 20
86.78856045520433
 30
0.0
 10
-270.7459412880535
 20
81.44390529844258
 30
0.0
 10
-273.5296449618527
 20
77.3146401403153
 30
0.0
 10
-274.1330984298411
 20
76.33703039424233
 30
0.0
  0
SPLINE
  5
9A8
330
1F
100
AcDbEntity
  8
ceco.net 137
100
AcDbSpline
210
0.0
220
0.0
230
1.0
 70
     8
 71
     3
 72
    11
 73
     7
 74
     5
 42
0.0000000001
 43
0.0000000001
 44
0.0000000001
 40
0.0
 40
0.0
 40
0.0
 40
0.0
 40
0.0100729799243616
 40
0.0215112123723067
 40
0.0351246816007407
 40
0.0508472152423219
 40
0.0508472152423219
 40
0.0508472152423219
 40
0.0508472152423219
 10
-191.7252588700648
 20
50.66462037993346
 30
0.0
 10
-193.0956705252491
 20
47.61646976203788
 30
0.0
 10
-196.0222341016202
 20
41.10703404622255
 30
0.0
 10
-201.518733315893
 20
30.42119596477341
 30
0.0
 10
-199.7966079074498
 20
16.40327082887099
 30
0.0
 10
-197.4422180546352
 20
6.984087729162657
 30
0.0
 10
-196.180390605603
 20
1.935907722582896
 30
0.0
 11
-191.7252588700648
 21
50.66462037993346
 31
0.0
 11
-195.9328923250023
 21
41.51253071333371
 31
0.0
 11
-200.1405149344446
 21
30.87631552607206
 31
0.0
 11
-199.6454966819083
 21
17.27184929754344
 31
0.0
 11
-196.180390605603
 21
1.935907722582896
 31
0.0
  0
SPLINE
  5
9A9
330
1F
100
AcDbEntity
  8
ceco.net 137
100
AcDbSpline
210
0.0
220
0.0
230
1.0
 70
     8
 71
     3
 72
    10
 73
     6
 74
     4
 42
0.0000000001
 43
0.0000000001
 44
0.0000000001
 40
0.0
 40
0.0
 40
0.0
 40
0.0
 40
0.0101990368689671
 40
0.0273541661426565
 40
0.044466390215345
 40
0.044466390215345
 40
0.044466390215345
 40
0.044466390215345
 10
-200.3880240607696
 20
51.65403960756975
 30
0.0
 10
-201.2806560683004
 20
48.37260006486858
 30
0.0
 10
-203.6747256801622
 20
39.5716668403551
 30
0.0
 10
-205.1947675665926
 20
24.68224511889528
 30
0.0
 10
-203.9698192038776
 20
13.30603155691187
 30
0.0
 10
-203.3581118844249
 20
7.625046696375648
 30
0.0
 11
-200.3880240607696
 21
51.65403960756975
 31
0.0
 11
-202.8630936320023
 21
41.75988053910373
 31
0.0
 11
-204.5956466700982
 21
24.6924636177539
 31
0.0
 11
-203.3581118844249
 21
7.625046696375648
 31
0.0
  0
SPLINE
  5
9AA
330
1F
100
AcDbEntity
  8
ceco.net 137
100
AcDbSpline
210
0.0
220
0.0
230
1.0
 70
     8
 71
     3
 72
    10
 73
     6
 74
     0
 42
0.0000000001
 43
0.0000000001
 40
0.0
 40
0.0
 40
0.0
 40
0.0
 40
1.751492890916649
 40
6.437399448279402
 40
13.03925020436365
 40
13.03925020436365
 40
13.03925020436365
 40
13.03925020436365
 10
-217.7135327508477
 20
39.28634243239059
 30
0.0
 10
-216.2470548303172
 20
38.12967898360852
 30
0.0
 10
-210.8571932984641
 20
33.87850292372718
 30
0.0
 10
-211.9604189840611
 20
18.69202360910549
 30
0.0
 10
-211.3344192579216
 20
7.321303639756138
 30
0.0
 10
-210.9216800942004
 20
0.7232856934535903
 30
0.0
  0
SPLINE
  5
9AB
330
1F
100
AcDbEntity
  8
ceco.net 137
100
AcDbSpline
210
0.0
220
0.0
230
1.0
 70
     8
 71
     3
 72
     9
 73
     5
 74
     0
 42
0.0000000001
 43
0.0000000001
 40
0.0
 40
0.0
 40
0.0
 40
0.0
 40
3.846422286806932
 40
7.517872596097504
 40
7.517872596097504
 40
7.517872596097504
 40
7.517872596097504
 10
-258.7320778709436
 20
127.5153737508674
 30
0.0
 10
-259.8936283518451
 20
123.7137866134787
 30
0.0
 10
-262.163890917348
 20
116.2835447860146
 30
0.0
 10
-265.5635340656754
 20
109.2459383847312
 30
0.0
 10
-267.0868622169546
 20
105.7721539845744
 30
0.0
  0
SPLINE
  5
9AC
330
1F
100
AcDbEntity
  8
ceco.net 137
100
AcDbSpline
210
0.0
220
0.0
230
1.0
 70
     8
 71
     3
 72
    15
 73
    11
 74
     0
 42
0.0000000001
 43
0.0000000001
 40
253.0823553423592
 40
253.0823553423592
 40
253.0823553423592
 40
253.0823553423592
 40
258.3248646997199
 40
262.7170403046357
 40
270.5493477814854
 40
276.7885747314119
 40
280.8481885812581
 40
283.4054995208179
 40
285.425642821642
 40
288.1066856008475
 40
288.1066856008475
 40
288.1066856008475
 40
288.1066856008475
 10
-170.3793201062353
 20
198.6145388423778
 30
0.0
 10
-170.4408035221831
 20
193.1892857268309
 30
0.0
 10
-170.5661407038405
 20
183.2352178842455
 30
0.0
 10
-173.6991429778527
 20
165.510673017124
 30
0.0
 10
-181.0892405850381
 20
146.878309040261
 30
0.0
 10
-197.4094868369302
 20
136.27633571312
 30
0.0
 10
-208.2048628178636
 20
129.5156636803937
 30
0.0
 10
-217.6360739580314
 20
126.0574359750137
 30
0.0
 10
-218.1350328554554
 20
117.6290993534649
 30
0.0
 10
-216.419074124813
 20
113.1057434533033
 30
0.0
 10
-215.3002435221633
 20
110.5904528997427
 30
0.0
  0
SPLINE
  5
9AD
330
1F
100
AcDbEntity
  8
ceco.net 137
100
AcDbSpline
210
0.0
220
0.0
230
1.0
 70
     8
 71
     3
 72
    10
 73
     6
 74
     0
 42
0.0000000001
 43
0.0000000001
 40
0.1555287404170485
 40
0.1555287404170485
 40
0.1555287404170485
 40
0.1555287404170485
 40
2.310852745591134
 40
6.991563934664359
 40
7.51965831958846
 40
7.51965831958846
 40
7.51965831958846
 40
7.51965831958846
 10
-170.598576350244
 20
220.6599811875236
 30
0.0
 10
-171.2976015148797
 20
218.5407138347699
 30
0.0
 10
-173.465005704088
 20
211.8072415551779
 30
0.0
 10
-173.2771958123748
 20
203.9546707683541
 30
0.0
 10
-172.3050528611338
 20
198.6612434018439
 30
0.0
 10
-172.2025288279382
 20
198.1258015029681
 30
0.0
  0
SPLINE
  5
9AE
330
1F
100
AcDbEntity
  8
ceco.net 137
100
AcDbSpline
210
0.0
220
0.0
230
1.0
 70
     8
 71
     3
 72
    10
 73
     6
 74
     0
 42
0.0000000001
 43
0.0000000001
 40
0.0
 40
0.0
 40
0.0
 40
0.0
 40
0.3571370367851821
 40
2.010447343001323
 40
2.922817790532706
 40
2.922817790532706
 40
2.922817790532706
 40
2.922817790532706
 10
-64.46335660939439
 20
208.5196555750314
 30
0.0
 10
-64.75674161379174
 20
208.7468837850963
 30
0.0
 10
-66.40830681635634
 20
210.0260296144966
 30
0.0
 10
-69.75143280510565
 20
210.0984539671486
 30
0.0
 10
-72.31764820505759
 20
209.4121535178459
 30
0.0
 10
-73.21137596943572
 20
209.1297689090794
 30
0.0
  0
SPLINE
  5
9AF
330
1F
100
AcDbEntity
  8
ceco.net 137
100
AcDbSpline
210
0.0
220
0.0
230
1.0
 70
     8
 71
     3
 72
     9
 73
     5
 74
     0
 42
0.0000000001
 43
0.0000000001
 40
129.1817411678769
 40
129.1817411678769
 40
129.1817411678769
 40
129.1817411678769
 40
134.9227703930143
 40
137.8535302451388
 40
137.8535302451388
 40
137.8535302451388
 40
137.8535302451388
 10
-97.95094231867551
 20
176.4393954585443
 30
0.0
 10
-99.95420323684811
 20
170.8151980124625
 30
0.0
 10
-102.3230937000789
 20
162.2005046533416
 30
0.0
 10
-106.0656188967641
 20
154.060089298909
 30
0.0
 10
-107.3743347025128
 20
151.3240635117796
 30
0.0
  0
SPLINE
  5
9B0
330
1F
100
AcDbEntity
  8
ceco.net 137
100
AcDbSpline
210
0.0
220
0.0
230
1.0
 70
     8
 71
     3
 72
    13
 73
     9
 74
     0
 42
0.0000000001
 43
0.0000000001
 40
0.7319183114447656
 40
0.7319183114447656
 40
0.7319183114447656
 40
0.7319183114447656
 40
3.094336755931345
 40
7.611664024782085
 40
16.18183901858363
 40
22.12305879915438
 40
26.23694208786823
 40
27.10265525731591
 40
27.10265525731591
 40
27.10265525731591
 40
27.10265525731591
 10
-97.95094231867551
 20
176.4393954585443
 30
0.0
 10
-98.63404178270229
 20
178.9055594227022
 30
0.0
 10
-101.0471085294284
 20
185.7063101115272
 30
0.0
 10
-118.1828483830713
 20
190.4413991178728
 30
0.0
 10
-135.4742746026431
 20
198.4854475477106
 30
0.0
 10
-154.9902607076774
 20
199.6465039519108
 30
0.0
 10
-166.3831966041016
 20
199.6815409705163
 30
0.0
 10
-171.3441464262359
 20
198.3758934720043
 30
0.0
 10
-172.2025288279382
 20
198.1258015029681
 30
0.0
  0
SPLINE
  5
9B1
330
1F
100
AcDbEntity
  8
ceco.net 137
100
AcDbSpline
210
0.0
220
0.0
230
1.0
 70
     8
 71
     3
 72
    15
 73
    11
 74
     0
 42
0.0000000001
 43
0.0000000001
 40
0.0
 40
0.0
 40
0.0
 40
0.0
 40
3.452413530742568
 40
9.553455016054872
 40
12.78733239633059
 40
13.26615124861922
 40
15.73005433025894
 40
20.48268615870772
 40
28.80003786115279
 40
34.58159383282316
 40
34.58159383282316
 40
34.58159383282316
 40
34.58159383282316
 10
-89.45554209913098
 20
251.6858895310747
 30
0.0
 10
-90.44091730993386
 20
248.2287188776126
 30
0.0
 10
-93.16762941034539
 20
238.6621000392921
 30
0.0
 10
-100.4243249535647
 20
227.8989445837567
 30
0.0
 10
-101.9231533950915
 20
216.5254319732383
 30
0.0
 10
-107.5262784725055
 20
213.1674568977501
 30
0.0
 10
-116.0705487344557
 20
214.5166431237441
 30
0.0
 10
-130.4734094114792
 20
220.6989573060837
 30
0.0
 10
-150.1628251274951
 20
223.8381910544973
 30
0.0
 10
-164.9058897326085
 20
222.4179958156327
 30
0.0
 10
-170.598576350244
 20
220.6599811875236
 30
0.0
  0
SPLINE
  5
9B2
330
1F
100
AcDbEntity
  8
ceco.net 137
100
AcDbSpline
210
0.0
220
0.0
230
1.0
 70
     8
 71
     3
 72
    11
 73
     7
 74
     0
 42
0.0000000001
 43
0.0000000001
 40
0.0
 40
0.0
 40
0.0
 40
0.0
 40
3.066869480766952
 40
7.108926926882555
 40
14.58219795151549
 40
19.0860931964181
 40
19.0860931964181
 40
19.0860931964181
 40
19.0860931964181
 10
-84.11177006462366
 20
245.8368163104722
 30
0.0
 10
-84.97970268138033
 20
242.7876020900328
 30
0.0
 10
-86.99154882890525
 20
235.7195996159475
 30
0.0
 10
-90.46651955941342
 20
221.139469607877
 30
0.0
 10
-92.10135489411186
 20
204.0475268046435
 30
0.0
 10
-87.71024193538323
 20
192.4336465911551
 30
0.0
 10
-85.88837974787111
 20
188.10178317446
 30
0.0
  0
SPLINE
  5
9B3
330
1F
100
AcDbEntity
  8
ceco.net 137
100
AcDbSpline
210
0.0
220
0.0
230
1.0
 70
     8
 71
     3
 72
    11
 73
     7
 74
     0
 42
0.0000000001
 43
0.0000000001
 40
0.0
 40
0.0
 40
0.0
 40
0.0
 40
1.585340822844893
 40
5.359443246742706
 40
9.302739407621629
 40
9.599337893958157
 40
9.599337893958157
 40
9.599337893958157
 40
9.599337893958157
 10
-64.46335660939439
 20
208.5196555750314
 30
0.0
 10
-65.2892689095097
 20
206.3776915149304
 30
0.0
 10
-67.03659517961568
 20
201.0792354812593
 30
0.0
 10
-74.64537359714995
 20
194.3495875669754
 30
0.0
 10
-82.02317659129221
 20
190.7376748140734
 30
0.0
 10
-85.63660407060069
 20
188.2758931627108
 30
0.0
 10
-85.88837974787111
 20
188.10178317446
 30
0.0
  0
SPLINE
  5
9B4
330
1F
100
AcDbEntity
  8
ceco.net 137
100
AcDbSpline
210
0.0
220
0.0
230
1.0
 70
     8
 71
     3
 72
    13
 73
     9
 74
     0
 42
0.0000000001
 43
0.0000000001
 40
0.4774531547293468
 40
0.4774531547293468
 40
0.4774531547293468
 40
0.4774531547293468
 40
6.073913771417018
 40
17.23946476348444
 40
32.46714209202604
 40
40.32831276977463
 40
48.42364477853909
 40
55.87647032789435
 40
55.87647032789435
 40
55.87647032789435
 40
55.87647032789435
 10
-18.47530733812163
 20
648.680425208397
 30
0.0
 10
-17.14909460577018
 20
654.2981472526605
 30
0.0
 10
-13.16811732954192
 20
671.1270127066057
 30
0.0
 10
-4.928834550014471
 20
703.475059577471
 30
0.0
 10
-11.20081553904128
 20
739.4159633431911
 30
0.0
 10
-21.91880558177672
 20
769.6058771503544
 30
0.0
 10
-27.50581923521622
 20
793.4639364211761
 30
0.0
 10
-26.59127187860121
 20
809.4649411779073
 30
0.0
 10
-25.81070922565231
 20
817.1501039481512
 30
0.0
  0
SPLINE
  5
9B5
330
1F
100
AcDbEntity
  8
ceco.net 137
100
AcDbSpline
210
0.0
220
0.0
230
1.0
 70
     8
 71
     3
 72
    13
 73
     9
 74
     0
 42
0.0000000001
 43
0.0000000001
 40
0.0
 40
0.0
 40
0.0
 40
0.0
 40
0.9189526535930113
 40
2.289855125965535
 40
5.795600910094105
 40
7.545432409154249
 40
10.04063513809657
 40
11.75220720666685
 40
11.75220720666685
 40
11.75220720666685
 40
11.75220720666685
 10
-1.769677780202982
 20
989.572188259558
 30
0.0
 10
-2.615713070326819
 20
986.6123698105013
 30
0.0
 10
-4.723872003523865
 20
979.2370655214455
 30
0.0
 10
-15.86637235311627
 20
963.1168294127974
 30
0.0
 10
-31.77569905926702
 20
947.7249013050794
 30
0.0
 10
-45.85749509612924
 20
925.916247445059
 30
0.0
 10
-51.94490009387209
 20
906.3900638127648
 30
0.0
 10
-49.36809859941604
 20
891.8585943718824
 30
0.0
 10
-47.34631577150594
 20
886.6028887975261
 30
0.0
  0
SPLINE
  5
9B6
330
1F
100
AcDbEntity
  8
ceco.net 137
100
AcDbSpline
210
0.0
220
0.0
230
1.0
 70
     8
 71
     3
 72
    10
 73
     6
 74
     4
 42
0.0000000001
 43
0.0000000001
 44
0.0000000001
 40
0.0
 40
0.0
 40
0.0
 40
0.0
 40
0.0170111239438844
 40
0.0354638300947424
 40
0.0589229067582052
 40
0.0589229067582052
 40
0.0589229067582052
 40
0.0589229067582052
 10
120.5223462111462
 20
1065.356587129613
 30
0.0
 10
119.3263779860605
 20
1059.790306596147
 30
0.0
 10
116.8330910008464
 20
1048.186039426634
 30
0.0
 10
107.9410370205462
 20
1030.53793179805
 30
0.0
 10
103.357947300441
 20
1017.336978924124
 30
0.0
 10
100.7926769664209
 20
1009.948074308155
 30
0.0
 11
120.5223462111462
 21
1065.356587129613
 31
0.0
 11
116.2767203601333
 21
1048.883791405529
 31
0.0
 11
109.0341853334848
 21
1031.911813009429
 31
0.0
 11
100.7926769664209
 21
1009.948074308155
 31
0.0
  0
SPLINE
  5
9B7
330
1F
100
AcDbEntity
  8
ceco.net 137
100
AcDbSpline
210
0.0
220
0.0
230
1.0
 70
     8
 71
     3
 72
    10
 73
     6
 74
     4
 42
0.0000000001
 43
0.0000000001
 44
0.0000000001
 40
0.0
 40
0.0
 40
0.0
 40
0.0
 40
0.0109509527703309
 40
0.029235525399322
 40
0.0511333756675451
 40
0.0511333756675451
 40
0.0511333756675451
 40
0.0511333756675451
 10
135.2571704452429
 20
1053.875545069203
 30
0.0
 10
132.6687002332657
 20
1051.288409338408
 30
0.0
 10
125.7583164324449
 20
1044.381588173581
 30
0.0
 10
117.076695638135
 20
1029.491684821159
 30
0.0
 10
111.8710556862061
 20
1017.164878233584
 30
0.0
 10
109.0341853334848
 20
1010.447250338657
 30
0.0
 11
135.2571704452429
 21
1053.875545069203
 31
0.0
 11
127.764892083519
 21
1045.888735222433
 31
0.0
 11
118.0249237058887
 21
1030.414284917895
 31
0.0
 11
109.0341853334848
 21
1010.447250338657
 31
0.0
  0
SPLINE
  5
9B8
330
1F
100
AcDbEntity
  8
ceco.net 137
100
AcDbSpline
210
0.0
220
0.0
230
1.0
 70
     8
 71
     3
 72
     9
 73
     5
 74
     0
 42
0.0000000001
 43
0.0000000001
 40
0.2792581975578168
 40
0.2792581975578168
 40
0.2792581975578168
 40
0.2792581975578168
 40
1.206419737361915
 40
4.733154732046648
 40
4.733154732046648
 40
4.733154732046648
 40
4.733154732046648
 10
-77.61907865801731
 20
132.0925919219746
 30
0.0
 10
-78.55724795274454
 20
131.9002412361101
 30
0.0
 10
-83.06648265056537
 20
130.990495817457
 30
0.0
 10
-87.6267513416451
 20
130.3768595163319
 30
0.0
 10
-91.24306746753063
 20
129.9220182452671
 30
0.0
  0
SPLINE
  5
9B9
330
1F
100
AcDbEntity
  8
ceco.net 137
100
AcDbSpline
210
0.0
220
0.0
230
1.0
 70
     8
 71
     3
 72
    10
 73
     6
 74
     0
 42
0.0000000001
 43
0.0000000001
 40
0.0
 40
0.0
 40
0.0
 40
0.0
 40
1.741310766179129
 40
7.359959593659706
 40
11.22485276591286
 40
11.22485276591286
 40
11.22485276591286
 40
11.22485276591286
 10
-95.41248515859024
 20
164.2928717995175
 30
0.0
 10
-94.81693947066105
 20
162.5927914649594
 30
0.0
 10
-92.29975972061765
 20
155.407099621982
 30
0.0
 10
-91.48600351068125
 20
143.682539551051
 30
0.0
 10
-91.30786506887034
 20
133.904833590634
 30
0.0
 10
-91.24306746753063
 20
129.9220182452671
 30
0.0
  0
SPLINE
  5
9BA
330
1F
100
AcDbEntity
  8
ceco.net 137
100
AcDbSpline
210
0.0
220
0.0
230
1.0
 70
     8
 71
     3
 72
    11
 73
     7
 74
     5
 42
0.0000000001
 43
0.0000000001
 44
0.0000000001
 40
0.0
 40
0.0
 40
0.0
 40
0.0
 40
0.0054605515663053
 40
0.0133404067593028
 40
0.0318678744810902
 40
0.0397140094367781
 40
0.0397140094367781
 40
0.0397140094367781
 40
0.0397140094367781
 10
-82.32187594808237
 20
178.3173007467837
 30
0.0
 10
-82.65969981654672
 20
176.5265626649835
 30
0.0
 10
-83.48502080538684
 20
172.1516979428926
 30
0.0
 10
-87.43128041021673
 20
162.1936272889622
 30
0.0
 10
-86.7931861938187
 20
150.3733327301993
 30
0.0
 10
-85.28419756950052
 20
141.7422355600002
 30
0.0
 10
-84.83527413125102
 20
139.1744880269385
 30
0.0
 11
-82.32187594808237
 21
178.3173007467837
 31
0.0
 11
-83.47384921148659
 21
172.9796438630302
 31
0.0
 11
-85.77779573840871
 21
165.4441313878436
 31
0.0
 11
-86.0919732227785
 21
146.9193276725491
 31
0.0
 11
-84.83527413125102
 21
139.1744880269385
 31
0.0
  0
SPLINE
  5
9BB
330
1F
100
AcDbEntity
  8
ceco.net 137
100
AcDbSpline
210
0.0
220
0.0
230
1.0
 70
     8
 71
     3
 72
    12
 73
     8
 74
     0
 42
0.0000000001
 43
0.0000000001
 40
0.0747856670069423
 40
0.0747856670069423
 40
0.0747856670069423
 40
0.0747856670069423
 40
5.725246373191765
 40
10.54160762676801
 40
18.58825286101718
 40
23.95091178000783
 40
35.66209626380241
 40
35.66209626380241
 40
35.66209626380241
 40
35.66209626380241
 10
-106.9717468946009
 20
126.4490967297717
 30
0.0
 10
-112.8180085919439
 20
124.7662696841871
 30
0.0
 10
-123.2075299833468
 20
121.7788968796611
 30
0.0
 10
-141.2733579830955
 20
115.456314227444
 30
0.0
 10
-159.772305927504
 20
111.7213717903382
 30
0.0
 10
-185.5354943095335
 20
108.1858602480849
 30
0.0
 10
-203.1888399573045
 20
109.5691632630746
 30
0.0
 10
-215.3002435221633
 20
110.5904528997427
 30
0.0
  0
SPLINE
  5
9BC
330
1F
100
AcDbEntity
  8
ceco.net 137
100
AcDbSpline
210
0.0
220
0.0
230
1.0
 70
     8
 71
     3
 72
    12
 73
     8
 74
     0
 42
0.0000000001
 43
0.0000000001
 40
0.0
 40
0.0
 40
0.0
 40
0.0
 40
2.39099346029404
 40
7.466577128309021
 40
13.41896994236954
 40
18.33050788783838
 40
19.42040900629545
 40
19.42040900629545
 40
19.42040900629545
 40
19.42040900629545
 10
-82.12261922540164
 20
179.1789837769783
 30
0.0
 10
-84.11585416217803
 20
177.7169379554095
 30
0.0
 10
-90.34031384294394
 20
173.1512718115482
 30
0.0
 10
-98.99530291579594
 20
161.8304610863248
 30
0.0
 10
-103.6054848976846
 20
145.7971389978354
 30
0.0
 10
-105.3308746527363
 20
133.5753803817993
 30
0.0
 10
-106.7081580157491
 20
127.5420795140576
 30
0.0
 10
-106.9717468946009
 20
126.4490967297717
 30
0.0
  0
SPLINE
  5
9BD
330
1F
100
AcDbEntity
  8
ceco.net 137
100
AcDbSpline
210
0.0
220
0.0
230
1.0
 70
     8
 71
     3
 72
    16
 73
    12
 74
     0
 42
0.0000000001
 43
0.0000000001
 40
0.0
 40
0.0
 40
0.0
 40
0.0
 40
1.63873728075017
 40
3.710654919297118
 40
8.023920434605679
 40
12.2238546119611
 40
17.7288383263211
 40
22.23643796676944
 40
23.77413994473301
 40
24.39743569448624
 40
26.39553098718625
 40
26.39553098718625
 40
26.39553098718625
 40
26.39553098718625
 10
-64.46335660939439
 20
208.5196555750314
 30
0.0
 10
-62.46916253178369
 20
205.9480953949588
 30
0.0
 10
-61.18258360845629
 20
199.9692271082977
 30
0.0
 10
-64.5620345842417
 20
194.3984939983778
 30
0.0
 10
-72.07952675878459
 20
185.9647294101449
 30
0.0
 10
-80.84415582573001
 20
174.1338916516212
 30
0.0
 10
-82.30135200915356
 20
159.2719249235159
 30
0.0
 10
-83.38144269976055
 20
146.832880950825
 30
0.0
 10
-79.94963316593839
 20
140.7517236407898
 30
0.0
 10
-78.21407409994662
 20
136.8105837755138
 30
0.0
 10
-77.76862709056331
 20
134.1608463942662
 30
0.0
 10
-77.61907865801731
 20
132.0925919219746
 30
0.0
  0
SPLINE
  5
9BE
330
1F
100
AcDbEntity
  8
ceco.net 137
100
AcDbSpline
210
0.0
220
0.0
230
1.0
 70
     8
 71
     3
 72
    21
 73
    17
 74
     0
 42
0.0000000001
 43
0.0000000001
 40
1.118357747499574
 40
1.118357747499574
 40
1.118357747499574
 40
1.118357747499574
 40
4.758424995642616
 40
10.04385046837809
 40
12.7895445202947
 40
17.82408837714894
 40
25.40569547028808
 40
34.20221574902347
 40
41.39020654353262
 40
58.71801169687969
 40
76.94093917616055
 40
102.5196261521135
 40
113.5175235242615
 40
124.892996783944
 40
130.2662169879303
 40
137.6969747629321
 40
137.6969747629321
 40
137.6969747629321
 40
137.6969747629321
 10
-151.2618733181625
 20
527.5187067686744
 30
0.0
 10
-153.7998340501189
 20
524.7267356227496
 30
0.0
 10
-159.8307086474051
 20
517.7417897551634
 30
0.0
 10
-165.0942460545365
 20
506.7118818767681
 30
0.0
 10
-174.3456749421739
 20
496.742975358785
 30
0.0
 10
-189.0471825045096
 20
489.1863079294864
 30
0.0
 10
-196.2204609725386
 20
466.3014196755455
 30
0.0
 10
-197.5618068393014
 20
442.3709988940061
 30
0.0
 10
-207.6735041941883
 20
409.1731214474236
 30
0.0
 10
-222.3485336839967
 20
367.7481882253061
 30
0.0
 10
-239.0416606822309
 20
306.4606720767955
 30
0.0
 10
-239.5411601547703
 20
249.3290672406089
 30
0.0
 10
-247.094418170489
 20
200.6509234497855
 30
0.0
 10
-246.0189217830457
 20
170.9675134462997
 30
0.0
 10
-259.3583629668483
 20
148.9186362128691
 30
0.0
 10
-258.9620671775474
 20
135.3752470342755
 30
0.0
 10
-258.7320778709436
 20
127.5153737508674
 30
0.0
  0
SPLINE
  5
9BF
330
1F
100
AcDbEntity
  8
ceco.net 137
100
AcDbSpline
210
0.0
220
0.0
230
1.0
 70
     8
 71
     3
 72
    12
 73
     8
 74
     0
 42
0.0000000001
 43
0.0000000001
 40
0.1829775834388908
 40
0.1829775834388908
 40
0.1829775834388908
 40
0.1829775834388908
 40
4.330426313918598
 40
10.39425796324909
 40
16.49535971488681
 40
22.31069115606573
 40
24.66654826248616
 40
24.66654826248616
 40
24.66654826248616
 40
24.66654826248616
 10
-107.3743347025128
 20
151.3240635117796
 30
0.0
 10
-111.5123996437432
 20
152.5271854188332
 30
0.0
 10
-121.7087422970735
 20
155.428015915092
 30
0.0
 10
-138.7573523568335
 20
154.3531471734524
 30
0.0
 10
-157.2096647123544
 20
152.802299387801
 30
0.0
 10
-171.6102756372492
 20
148.9677831165607
 30
0.0
 10
-180.036713933191
 20
148.8260927189202
 30
0.0
 10
-182.4731448343754
 20
148.8641195968654
 30
0.0
  0
SPLINE
  5
9C0
330
1F
100
AcDbEntity
  8
ceco.net 137
100
AcDbSpline
210
0.0
220
0.0
230
1.0
 70
     8
 71
     3
 72
    18
 73
    14
 74
     0
 42
0.0000000001
 43
0.0000000001
 40
0.0
 40
0.0
 40
0.0
 40
0.0
 40
12.94530620857392
 40
28.67371372481162
 40
45.36293368326862
 40
69.90278727183232
 40
83.87726295849928
 40
89.94709488425035
 40
98.02894425628906
 40
104.0447817403829
 40
110.5415150159336
 40
116.9581830371057
 40
122.7990731368546
 40
122.7990731368546
 40
122.7990731368546
 40
122.7990731368546
 10
-61.42157888052679
 20
554.1212513975182
 30
0.0
 10
-56.09100234391917
 20
541.7996807324385
 30
0.0
 10
-44.283832769338
 20
514.5075345136547
 30
0.0
 10
-40.35935448644067
 20
466.7715072328064
 30
0.0
 10
-51.78823315486624
 20
408.9383603276957
 30
0.0
 10
-64.90106642797854
 20
353.2314804532461
 30
0.0
 10
-82.22337512404465
 20
310.6438541217357
 30
0.0
 10
-93.53362733838821
 20
283.6368733485841
 30
0.0
 10
-93.62619639728109
 20
262.2797081316008
 30
0.0
 10
-87.39005903146335
 20
241.2934066359611
 30
0.0
 10
-74.68882184684844
 20
226.9818534150545
 30
0.0
 10
-70.12701813471267
 20
203.6872427735971
 30
0.0
 10
-83.49568741766688
 20
197.7364046408922
 30
0.0
 10
-88.02576107052573
 20
193.5276856733167
 30
0.0
  0
SPLINE
  5
9C1
330
1F
100
AcDbEntity
  8
ceco.net 137
100
AcDbSpline
210
0.0
220
0.0
230
1.0
 70
     8
 71
     3
 72
     9
 73
     5
 74
     3
 42
0.0000000001
 43
0.0000000001
 44
0.0000000001
 40
0.0
 40
0.0
 40
0.0
 40
0.0
 40
0.0053522915744506
 40
0.0158834523924953
 40
0.0158834523924953
 40
0.0158834523924953
 40
0.0158834523924953
 10
89.17792538181856
 20
1100.884810158092
 30
0.0
 10
90.77043513524358
 20
1100.062885367762
 30
0.0
 10
95.49636467425745
 20
1097.623742601374
 30
0.0
 10
99.23678986130873
 20
1093.801911889495
 30
0.0
 10
101.716793465016
 20
1091.267934209355
 30
0.0
 11
89.17792538181856
 21
1100.884810158092
 31
0.0
 11
93.84354995847843
 21
1098.26203063865
 31
0.0
 11
101.716793465016
 21
1091.267934209355
 31
0.0
  0
SPLINE
  5
9C2
330
1F
100
AcDbEntity
  8
ceco.net 137
100
AcDbSpline
210
0.0
220
0.0
230
1.0
 70
     8
 71
     3
 72
     9
 73
     5
 74
     3
 42
0.0000000001
 43
0.0000000001
 44
0.0000000001
 40
0.0
 40
0.0
 40
0.0
 40
0.0
 40
0.008453691823644
 40
0.0160313238234502
 40
0.0160313238234502
 40
0.0160313238234502
 40
0.0160313238234502
 10
80.7214774475824
 20
1100.010548104435
 30
0.0
 10
82.89214081916433
 20
1098.118507888153
 30
0.0
 10
87.00852075676799
 20
1094.530500420293
 30
0.0
 10
88.67962857401163
 20
1089.346825768034
 30
0.0
 10
89.46952217297621
 20
1086.896623941029
 30
0.0
 11
80.7214774475824
 21
1100.010548104435
 31
0.0
 11
86.55351087975304
 21
1093.890720370325
 31
0.0
 11
89.46952217297621
 21
1086.896623941029
 31
0.0
  0
SPLINE
  5
9C3
330
1F
100
AcDbEntity
  8
ceco.net 137
100
AcDbSpline
210
0.0
220
0.0
230
1.0
 70
     8
 71
     3
 72
     9
 73
     5
 74
     3
 42
0.0000000001
 43
0.0000000001
 44
0.0000000001
 40
0.0
 40
0.0
 40
0.0
 40
0.0
 40
0.0060092780193755
 40
0.011223010513455
 40
0.011223010513455
 40
0.011223010513455
 40
0.011223010513455
 10
25.90040223003597
 20
1094.47355952561
 30
0.0
 10
27.26235846407349
 20
1092.982806384118
 30
0.0
 10
29.80596671188375
 20
1090.198655255484
 30
0.0
 10
31.32046232232698
 20
1086.750135279762
 30
0.0
 10
32.02403245325058
 20
1085.148099833716
 30
0.0
 11
25.90040223003597
 21
1094.47355952561
 31
0.0
 11
29.69122558783965
 21
1089.810826358885
 31
0.0
 11
32.02403245325058
 21
1085.148099833716
 31
0.0
  0
SPLINE
  5
9C4
330
1F
100
AcDbEntity
  8
ceco.net 137
100
AcDbSpline
210
0.0
220
0.0
230
1.0
 70
     8
 71
     3
 72
    10
 73
     6
 74
     4
 42
0.0000000001
 43
0.0000000001
 44
0.0000000001
 40
0.0
 40
0.0
 40
0.0
 40
0.0
 40
0.0046990579963857
 40
0.0107070724964011
 40
0.0218155554872477
 40
0.0218155554872477
 40
0.0218155554872477
 40
0.0218155554872477
 10
56.51856419160594
 20
1100.301971002849
 30
0.0
 10
56.18116205141198
 20
1098.738017619045
 30
0.0
 10
55.41237197087323
 20
1095.174460354106
 30
0.0
 10
58.38407656428876
 20
1088.221931185438
 30
0.0
 10
58.31378520970756
 20
1082.469881302928
 30
0.0
 10
58.26816662931832
 20
1078.736842559663
 30
0.0
 11
56.51856419160594
 21
1100.301971002849
 31
0.0
 11
55.93535976390739
 21
1095.639244477638
 31
0.0
 11
57.39336541046213
 21
1089.810826358885
 31
0.0
 11
58.26816662931832
 21
1078.736842559663
 31
0.0
  0
SPLINE
  5
9C5
330
1F
100
AcDbEntity
  8
ceco.net 137
100
AcDbSpline
210
0.0
220
0.0
230
1.0
 70
     8
 71
     3
 72
    12
 73
     8
 74
     6
 42
0.0000000001
 43
0.0000000001
 44
0.0000000001
 40
0.0
 40
0.0
 40
0.0
 40
0.0
 40
0.0068299449525224
 40
0.0148717563138499
 40
0.0238691040082596
 40
0.0274758816283528
 40
0.0324672486924121
 40
0.0324672486924121
 40
0.0324672486924121
 40
0.0324672486924121
 10
78.9718750099837
 20
1081.068212463762
 30
0.0
 10
77.63567897559226
 20
1082.925443741591
 30
0.0
 10
74.72619991695603
 20
1086.969442803711
 30
0.0
 10
67.27563519669989
 20
1090.978377163176
 30
0.0
 10
67.31487782243736
 20
1100.06454015519
 30
0.0
 10
60.90995644236762
 20
1101.161015854282
 30
0.0
 10
58.13150298233927
 20
1100.617494345956
 30
0.0
 10
56.51856419160594
 20
1100.301971002849
 30
0.0
 11
78.9718750099837
 21
1081.068212463762
 31
0.0
 11
74.59784722436779
 21
1086.313784785744
 31
0.0
 11
68.76582463792146
 21
1091.850773364598
 31
0.0
 11
64.97500128023148
 21
1100.010548104435
 31
0.0
 11
61.47578555919608
 21
1100.884810158092
 31
0.0
 11
56.51856419160594
 21
1100.301971002849
 31
0.0
  0
SPLINE
  5
9C6
330
1F
100
AcDbEntity
  8
ceco.net 137
100
AcDbSpline
210
0.0
220
0.0
230
1.0
 70
     8
 71
     3
 72
    13
 73
     9
 74
     7
 42
0.0000000001
 43
0.0000000001
 44
0.0000000001
 40
0.0
 40
0.0
 40
0.0
 40
0.0
 40
0.0054780743285715
 40
0.0214237986591351
 40
0.046584599972814
 40
0.0878104849540533
 40
0.11537763692883
 40
0.1418583766309241
 40
0.1418583766309241
 40
0.1418583766309241
 40
0.1418583766309241
 10
27.04477267604943
 20
1095.896104948366
 30
0.0
 10
25.28507205576103
 20
1095.234377613357
 30
0.0
 10
18.40318810745674
 20
1092.64647676679
 30
0.0
 10
14.14377531972644
 20
1075.506313143003
 30
0.0
 10
-7.541671802358619
 20
1058.138990384294
 30
0.0
 10
-32.0070353648489
 20
1038.129927611627
 30
0.0
 10
-44.77727219371423
 20
1006.831165978252
 30
0.0
 10
-62.33226236778904
 20
1000.107397290758
 30
0.0
 10
-70.93332174031274
 20
996.8130899106455
 30
0.0
 11
27.04477267604943
 21
1095.896104948366
 31
0.0
 11
22.08755130845929
 21
1093.564741685795
 31
0.0
 11
13.9227110109914
 21
1079.867971725576
 31
0.0
 11
-3.281781648752257
 21
1061.50846859866
 31
0.0
 11
-32.44192711792948
 21
1032.366411212422
 31
0.0
 11
-47.60519885746816
 21
1009.344181560337
 31
0.0
 11
-70.93332174031274
 21
996.8130899106455
 31
0.0
  0
SPLINE
  5
9C7
330
1F
100
AcDbEntity
  8
ceco.net 137
100
AcDbSpline
210
0.0
220
0.0
230
1.0
 70
     8
 71
     3
 72
     9
 73
     5
 74
     3
 42
0.0000000001
 43
0.0000000001
 44
0.0000000001
 40
0.0
 40
0.0
 40
0.0
 40
0.0
 40
0.0119624707467137
 40
0.0312260043049926
 40
0.0312260043049926
 40
0.0312260043049926
 40
0.0312260043049926
 10
6.341075141108376
 20
1036.154875683962
 30
0.0
 10
6.340674166328086
 20
1032.137190655251
 30
0.0
 10
6.339627489560331
 20
1021.649704193717
 30
0.0
 10
2.372923710280017
 20
1011.876369633448
 30
0.0
 10
-0.0741627187608174
 20
1005.847133345667
 30
0.0
 11
6.341075141108376
 21
1036.154875683962
 31
0.0
 11
5.757870713409829
 21
1024.206629831055
 31
0.0
 11
-0.0741627187608174
 21
1005.847133345667
 31
0.0
  0
SPLINE
  5
9C8
330
1F
100
AcDbEntity
  8
ceco.net 137
100
AcDbSpline
210
0.0
220
0.0
230
1.0
 70
     8
 71
     3
 72
    30
 73
    26
 74
    24
 42
0.0000000001
 43
0.0000000001
 44
0.0000000001
 40
0.0
 40
0.0
 40
0.0
 40
0.0
 40
0.0108232509246507
 40
0.0283263488355775
 40
0.0395766653569806
 40
0.0511962547882033
 40
0.0695671454577334
 40
0.0967001694523516
 40
0.1124897335088021
 40
0.1351327357842615
 40
0.1746328227831987
 40
0.2304534901962816
 40
0.2572542932014414
 40
0.2789450355080921
 40
0.3025387678153724
 40
0.3157960069888918
 40
0.3272474802149578
 40
0.3456132250992026
 40
0.3620559491138921
 40
0.3871404464923229
 40
0.4230552158716854
 40
0.4424854986177113
 40
0.4562392044963975
 40
0.4606132322817861
 40
0.4677137069291201
 40
0.4677137069291201
 40
0.4677137069291201
 40
0.4677137069291201
 10
120.7601593049503
 20
1107.65707345017
 30
0.0
 10
117.5434266089675
 20
1109.290820160999
 30
0.0
 10
109.1246721061326
 20
1113.566622280169
 30
0.0
 10
97.62402001016125
 20
1120.046980474394
 30
0.0
 10
86.52482537784363
 20
1127.730137055916
 30
0.0
 10
73.13662205340396
 20
1132.019393312969
 30
0.0
 10
53.85629297161756
 20
1129.866166656078
 30
0.0
 10
33.87711318166417
 20
1131.546179023542
 30
0.0
 10
10.97973571263693
 20
1132.18299422937
 30
0.0
 10
-8.297070844803505
 20
1112.173571491778
 30
0.0
 10
-44.63953500169584
 20
1097.094741455538
 30
0.0
 10
-80.99493759061074
 20
1079.405693997195
 30
0.0
 10
-112.7523065527568
 20
1063.753045545822
 30
0.0
 10
-127.968160305857
 20
1044.77413114535
 30
0.0
 10
-138.3366311107893
 20
1027.751410733954
 30
0.0
 10
-139.9702353719019
 20
1011.344434109613
 30
0.0
 10
-136.1995080083015
 20
997.1384658479729
 30
0.0
 10
-126.3361264754137
 20
985.1268945823655
 30
0.0
 10
-110.7023611761523
 20
971.0419663867131
 30
0.0
 10
-83.14408931430218
 20
975.2199774228117
 30
0.0
 10
-56.58799354033916
 20
977.5165319500484
 30
0.0
 10
-36.24592465662602
 20
988.6484385453583
 30
0.0
 10
-24.88660811787834
 20
994.5823376601936
 30
0.0
 10
-16.29641710149677
 20
994.7422293498176
 30
0.0
 10
-12.7601061420306
 20
993.1411306144092
 30
0.0
 10
-10.57182072747764
 20
992.1503633854769
 30
0.0
 11
120.7601593049503
 21
1107.65707345017
 31
0.0
 11
111.1373133607003
 21
1112.611222873752
 31
0.0
 11
95.97403077543731
 21
1121.353836768861
 31
0.0
 11
86.35118483130099
 21
1127.182254887628
 31
0.0
 11
75.27032239488562
 21
1130.679303102255
 31
0.0
 11
56.89943172535549
 21
1130.679303102255
 31
0.0
 11
29.78049633043156
 21
1131.553565155911
 31
0.0
 11
14.03402016319432
 21
1130.387880203884
 31
0.0
 11
-4.628478143104075
 21
1117.56537229732
 31
0.0
 11
-39.44150820143477
 21
1098.902312229867
 31
0.0
 11
-89.88855563336528
 21
1075.005820524125
 31
0.0
 11
-112.9250817251659
 21
1061.309050563906
 31
0.0
 11
-127.2135522458484
 21
1044.989494442702
 31
0.0
 11
-138.0028070456091
 21
1024.007211796302
 31
0.0
 11
-139.1680662596854
 21
1010.801282769236
 31
0.0
 11
-136.2520549664623
 21
999.7272989700292
 31
0.0
 11
-125.4628001667015
 21
984.8648440577676
 31
0.0
 11
-112.3407276559191
 21
974.9565452105883
 31
0.0
 11
-87.2630023354759
 21
974.3737060553314
 31
0.0
 11
-51.97922664308407
 21
981.0763795862271
 31
0.0
 11
-34.48313719229645
 21
989.5275772244644
 31
0.0
 11
-21.65267231816869
 21
994.481726648047
 31
0.0
 11
-17.27864453278016
 21
994.481726648047
 31
0.0
 11
-10.57182072747764
 21
992.1503633854769
 31
0.0
  0
SPLINE
  5
9C9
330
1F
100
AcDbEntity
  8
ceco.net 137
100
AcDbSpline
210
0.0
220
0.0
230
1.0
 70
     8
 71
     3
 72
    14
 73
    10
 74
     0
 42
0.0000000001
 43
0.0000000001
 40
0.0
 40
0.0
 40
0.0
 40
0.0
 40
3.1829186966275
 40
10.05720833237771
 40
17.77904883524588
 40
24.59877364518514
 40
33.38726055832942
 40
44.94532955962528
 40
47.75897950231811
 40
47.75897950231811
 40
47.75897950231811
 40
47.75897950231811
 10
131.5494141045974
 20
1140.587601949448
 30
0.0
 10
130.4086411599882
 20
1137.510214255385
 30
0.0
 10
126.8040906645637
 20
1127.786456877799
 30
0.0
 10
124.2213639530973
 20
1108.950231966559
 30
0.0
 10
107.0451124470537
 20
1092.971801394483
 30
0.0
 10
85.86942168869882
 20
1081.702759337673
 30
0.0
 10
57.28784363907379
 20
1076.014992547499
 30
0.0
 10
34.12254803458836
 20
1084.658884549028
 30
0.0
 10
19.34361122937389
 20
1085.390149475273
 30
0.0
 10
16.44046639080443
 20
1085.421288237696
 30
0.0
  0
SPLINE
  5
9CA
330
1F
100
AcDbEntity
  8
ceco.net 137
100
AcDbSpline
210
0.0
220
0.0
230
1.0
 70
     8
 71
     3
 72
    11
 73
     7
 74
     5
 42
0.0000000001
 43
0.0000000001
 44
0.0000000001
 40
0.0
 40
0.0
 40
0.0
 40
0.0
 40
0.0148329038630023
 40
0.0344217238453431
 40
0.0551379537198067
 40
0.0709958240357953
 40
0.0709958240357953
 40
0.0709958240357953
 40
0.0709958240357953
 10
133.1543894796141
 20
1212.297446583576
 30
0.0
 10
133.2150107265595
 20
1207.269150074106
 30
0.0
 10
133.3556903831385
 20
1195.600320055379
 30
0.0
 10
124.266699711602
 20
1179.317149208484
 30
0.0
 10
121.3204764803337
 20
1159.467198967077
 30
0.0
 10
127.6963185732243
 20
1148.748793657839
 30
0.0
 10
130.4607687316092
 20
1144.101486396607
 30
0.0
 11
133.1543894796141
 21
1212.297446583576
 31
0.0
 11
132.2565086665008
 21
1197.49174339006
 31
0.0
 11
125.5224730650752
 21
1179.096781231379
 31
0.0
 11
123.726722284573
 21
1158.458528898734
 31
0.0
 11
130.4607687316092
 21
1144.101486396607
 31
0.0
  0
SPLINE
  5
9CB
330
1F
100
AcDbEntity
  8
ceco.net 137
100
AcDbSpline
210
0.0
220
0.0
230
1.0
 70
     8
 71
     3
 72
    14
 73
    10
 74
     0
 42
0.0000000001
 43
0.0000000001
 40
0.8409602349604165
 40
0.8409602349604165
 40
0.8409602349604165
 40
0.8409602349604165
 40
2.857514696182492
 40
6.928512330822186
 40
11.14594966963185
 40
15.48869012437229
 40
21.72516682591902
 40
23.57093365801359
 40
25.41999733244645
 40
25.41999733244645
 40
25.41999733244645
 40
25.41999733244645
 10
256.9294814569502
 20
1033.647769888915
 30
0.0
 10
250.1600435000455
 20
1033.330574658421
 30
0.0
 10
229.949818788782
 20
1031.293913410223
 30
0.0
 10
199.6497650870878
 20
1009.108456473441
 30
0.0
 10
186.5756231291015
 20
967.3251939482696
 30
0.0
 10
186.8941004668158
 20
918.048393575404
 30
0.0
 10
184.9363383515765
 20
876.4984810151474
 30
0.0
 10
194.6091027763223
 20
843.7620188964931
 30
0.0
 10
203.79784682342
 20
835.2995575464117
 30
0.0
 10
208.5421649521244
 20
831.1615224895554
 30
0.0
  0
SPLINE
  5
9CC
330
1F
100
AcDbEntity
  8
ceco.net 137
100
AcDbSpline
210
0.0
220
0.0
230
1.0
 70
     8
 71
     3
 72
    13
 73
     9
 74
     0
 42
0.0000000001
 43
0.0000000001
 40
0.0
 40
0.0
 40
0.0
 40
0.0
 40
3.495494843331381
 40
6.260719834497778
 40
9.699153298851964
 40
14.14467933822173
 40
16.70543817390711
 40
19.81000727411966
 40
19.81000727411966
 40
19.81000727411966
 40
19.81000727411966
 10
229.3462556172016
 20
1294.231998330872
 30
0.0
 10
227.4543782622231
 20
1297.583577602594
 30
0.0
 10
224.0658697357957
 20
1303.58653276744
 30
0.0
 10
213.7569108041361
 20
1305.228832536926
 30
0.0
 10
202.1373888678681
 20
1307.581856534554
 30
0.0
 10
194.5881612131188
 20
1296.817981925485
 30
0.0
 10
182.6084220122083
 20
1299.350233583055
 30
0.0
 10
179.6113614183241
 20
1294.243668836273
 30
0.0
 10
178.3141007263111
 20
1290.839177644812
 30
0.0
  0
SPLINE
  5
9CD
330
1F
100
AcDbEntity
  8
ceco.net 137
100
AcDbSpline
210
0.0
220
0.0
230
1.0
 70
     8
 71
     3
 72
    10
 73
     6
 74
     4
 42
0.0000000001
 43
0.0000000001
 44
0.0000000001
 40
0.0
 40
0.0
 40
0.0
 40
0.0
 40
0.0161925199669745
 40
0.0402327831800825
 40
0.0661962669730469
 40
0.0661962669730469
 40
0.0661962669730469
 40
0.0661962669730469
 10
188.2714539860899
 20
1170.171824628482
 30
0.0
 10
182.8961657487228
 20
1171.898347853989
 30
0.0
 10
169.5404430677863
 20
1176.188157885341
 30
0.0
 10
163.0204429095741
 20
1201.672155353867
 30
0.0
 10
170.4289005989069
 20
1216.764026156276
 30
0.0
 10
174.2755997497624
 20
1224.6001897729
 30
0.0
 11
188.2714539860899
 21
1170.171824628482
 31
0.0
 11
173.6670923645533
 21
1177.165416302884
 31
0.0
 11
166.0606415927077
 21
1199.970594706286
 31
0.0
 11
174.2755997497624
 21
1224.6001897729
 31
0.0
  0
SPLINE
  5
9CE
330
1F
100
AcDbEntity
  8
ceco.net 137
100
AcDbSpline
210
0.0
220
0.0
230
1.0
 70
     8
 71
     3
 72
    12
 73
     8
 74
     6
 42
0.0000000001
 43
0.0000000001
 44
0.0000000001
 40
0.0
 40
0.0
 40
0.0
 40
0.0
 40
0.0142550978295341
 40
0.0262549792204651
 40
0.0495123452711433
 40
0.0751149231993281
 40
0.0898278402061541
 40
0.0898278402061541
 40
0.0898278402061541
 40
0.0898278402061541
 10
247.2974620858394
 20
1187.807834662194
 30
0.0
 10
245.284287088444
 20
1192.341927699734
 30
0.0
 10
241.5764298463654
 20
1200.692801184281
 30
0.0
 10
222.6138858145872
 20
1205.287157848554
 30
0.0
 10
230.8464011963963
 20
1233.36626692932
 30
0.0
 10
204.6976412659127
 20
1241.270760539602
 30
0.0
 10
202.2483884279488
 20
1255.121510327901
 30
0.0
 10
201.3545471445468
 20
1260.176264894255
 30
0.0
 11
247.2974620858394
 21
1187.807834662194
 31
0.0
 11
239.3867576213324
 21
1199.666526369327
 31
0.0
 11
229.0420019246539
 21
1205.747906391366
 31
0.0
 11
224.4781314615238
 21
1228.553084794768
 31
0.0
 11
205.9184067620662
 21
1246.189088186952
 31
0.0
 11
201.3545471445468
 21
1260.176264894255
 31
0.0
  0
SPLINE
  5
9CF
330
1F
100
AcDbEntity
  8
ceco.net 137
100
AcDbSpline
210
0.0
220
0.0
230
1.0
 70
     8
 71
     3
 72
    13
 73
     9
 74
     7
 42
0.0000000001
 43
0.0000000001
 44
0.0000000001
 40
0.0
 40
0.0
 40
0.0
 40
0.0
 40
0.0112837847749828
 40
0.0264822444837797
 40
0.056647641412484
 40
0.0774006812710821
 40
0.0883851577527171
 40
0.1022830753260091
 40
0.1022830753260091
 40
0.1022830753260091
 40
0.1022830753260091
 10
253.3826227033841
 20
1184.463076314244
 30
0.0
 10
254.7763855357493
 20
1188.141075465196
 30
0.0
 10
258.0474482877551
 20
1196.773079236003
 30
0.0
 10
248.0430949384015
 20
1214.206477457412
 30
0.0
 10
239.7709828381461
 20
1235.857973874113
 30
0.0
 10
248.4753577623207
 20
1255.960355940753
 30
0.0
 10
246.3119610667129
 20
1271.222099728116
 30
0.0
 10
244.7968722164084
 20
1279.352478703472
 30
0.0
 10
243.9506280844625
 20
1283.893654950006
 30
0.0
 11
253.3826227033841
 21
1184.463076314244
 31
0.0
 11
256.1209384738276
 21
1195.409556369014
 31
0.0
 11
250.9485606254884
 21
1209.700801413234
 31
0.0
 11
243.3421098535291
 21
1238.891434817119
 31
0.0
 11
247.2974620858394
 21
1259.264059883392
 31
0.0
 11
246.3846901623583
 21
1270.210546579647
 31
0.0
 11
243.9506280844625
 21
1283.893654950006
 31
0.0
  0
SPLINE
  5
9D0
330
1F
100
AcDbEntity
  8
ceco.net 137
100
AcDbSpline
210
0.0
220
0.0
230
1.0
 70
     8
 71
     3
 72
    13
 73
     9
 74
     7
 42
0.0000000001
 43
0.0000000001
 44
0.0000000001
 40
0.0
 40
0.0
 40
0.0
 40
0.0
 40
0.0144523558867749
 40
0.0302705840133302
 40
0.050379777148432
 40
0.0733250489619193
 40
0.0942708587558295
 40
0.1019637450698152
 40
0.1019637450698152
 40
0.1019637450698152
 40
0.1019637450698152
 10
237.5612137743701
 20
1188.720039673057
 30
0.0
 10
233.2184528617803
 20
1190.879876182935
 30
0.0
 10
224.1225026869961
 20
1195.403672375023
 30
0.0
 10
213.0268412088976
 20
1208.906248731764
 30
0.0
 10
211.7136555390911
 20
1230.84178852281
 30
0.0
 10
186.951452521958
 20
1238.004953666902
 30
0.0
 10
185.1554211812518
 20
1258.39670835712
 30
0.0
 10
188.5710019423483
 20
1267.22970323198
 30
0.0
 10
189.4884904478431
 20
1269.602409905786
 30
0.0
 11
237.5612137743701
 21
1188.720039673057
 31
0.0
 11
225.0866496923435
 21
1196.017699684418
 31
0.0
 11
215.3504013808742
 21
1208.484528065412
 31
0.0
 11
208.352468839962
 21
1227.336811446946
 31
0.0
 11
190.4012623713242
 21
1241.628056491208
 31
0.0
 11
187.054428370061
 21
1262.304749894426
 31
0.0
 11
189.4884904478431
 21
1269.602409905786
 31
0.0
  0
SPLINE
  5
9D1
330
1F
100
AcDbEntity
  8
ceco.net 137
100
AcDbSpline
210
0.0
220
0.0
230
1.0
 70
     8
 71
     3
 72
    12
 73
     8
 74
     6
 42
0.0000000001
 43
0.0000000001
 44
0.0000000001
 40
0.0
 40
0.0
 40
0.0
 40
0.0
 40
0.0109651220599951
 40
0.026848997263834
 40
0.0485586077728308
 40
0.0668105392998453
 40
0.097592024894088
 40
0.097592024894088
 40
0.097592024894088
 40
0.097592024894088
 10
180.476548782849
 20
1154.305870483511
 30
0.0
 10
179.39215678664
 20
1150.731868765257
 30
0.0
 10
176.7369343842045
 20
1141.980633546046
 30
0.0
 10
182.8376812085291
 20
1126.041915599709
 30
0.0
 10
176.2969328568047
 20
1106.841151717797
 30
0.0
 10
156.5623834904197
 20
1091.404219787997
 30
0.0
 10
158.6727951459374
 20
1073.621134225348
 30
0.0
 10
159.9976386870594
 20
1062.457527358745
 30
0.0
 11
180.476548782849
 21
1154.305870483511
 31
0.0
 11
178.2288587669427
 21
1143.573592468897
 31
0.0
 11
180.476548782849
 21
1127.849554149065
 31
0.0
 11
173.9832329158161
 21
1107.133762165574
 31
0.0
 11
162.245317857355
 21
1093.156839952612
 31
0.0
 11
159.9976386870594
 21
1062.457527358745
 31
0.0
  0
SPLINE
  5
9D2
330
1F
100
AcDbEntity
  8
ceco.net 137
100
AcDbSpline
210
0.0
220
0.0
230
1.0
 70
     8
 71
     3
 72
    21
 73
    17
 74
     0
 42
0.0000000001
 43
0.0000000001
 40
2.569816200992501
 40
2.569816200992501
 40
2.569816200992501
 40
2.569816200992501
 40
7.794412656234624
 40
27.2625498995435
 40
35.00962821943283
 40
39.593946699005
 40
47.30320867147615
 40
58.32046861121424
 40
65.74058417836681
 40
74.68525678679101
 40
82.45097418511914
 40
92.50067022180923
 40
108.394755852825
 40
120.5254932322004
 40
131.0100433825774
 40
136.2205018857366
 40
136.2205018857366
 40
136.2205018857366
 40
136.2205018857366
 10
223.563347662818
 20
861.5803185045134
 30
0.0
 10
220.9779606446353
 20
856.8400433895355
 30
0.0
 10
208.9678016708376
 20
834.3429204566401
 30
0.0
 10
197.1259229633233
 20
803.0283996445035
 30
0.0
 10
186.5282498955593
 20
771.5973356802692
 30
0.0
 10
186.6715820899571
 20
750.642715163849
 30
0.0
 10
193.4081116700099
 20
727.3462358638056
 30
0.0
 10
203.9620248524443
 20
702.3497129346338
 30
0.0
 10
219.7594599704189
 20
678.7964287499477
 30
0.0
 10
233.6262793279502
 20
658.1995944769687
 30
0.0
 10
247.486660481627
 20
633.8906975451408
 30
0.0
 10
251.3864117406683
 20
598.4901854532296
 30
0.0
 10
245.7093308978528
 20
559.319367536986
 30
0.0
 10
232.9969487570906
 20
521.4335798684999
 30
0.0
 10
218.4468818951472
 20
496.3246075074181
 30
0.0
 10
207.8394411562385
 20
484.0547063817552
 30
0.0
 10
204.2942731944776
 20
480.0000000000039
 30
0.0
  0
SPLINE
  5
9D3
330
1F
100
AcDbEntity
  8
ceco.net 137
100
AcDbSpline
210
0.0
220
0.0
230
1.0
 70
     8
 71
     3
 72
    10
 73
     6
 74
     4
 42
0.0000000001
 43
0.0000000001
 44
0.0000000001
 40
0.0
 40
0.0
 40
0.0
 40
0.0
 40
0.0258650742398069
 40
0.0593871037211626
 40
0.090503574190227
 40
0.090503574190227
 40
0.090503574190227
 40
0.090503574190227
 10
221.6265000890871
 20
1175.92526672
 30
0.0
 10
214.4529235401122
 20
1180.84331324831
 30
0.0
 10
197.9821440396994
 20
1192.135317925131
 30
0.0
 10
183.47502831241
 20
1220.57162091243
 30
0.0
 10
182.8634621046824
 20
1242.222942620825
 30
0.0
 10
182.5690588951829
 20
1252.645720269939
 30
0.0
 11
221.6265000890871
 21
1175.92526672
 31
0.0
 11
201.424382439427
 21
1192.076938704658
 31
0.0
 11
185.711614626939
 21
1221.68834509172
 31
0.0
 11
182.5690588951829
 21
1252.645720269939
 31
0.0
  0
SPLINE
  5
9D4
330
1F
100
AcDbEntity
  8
ceco.net 137
100
AcDbSpline
210
0.0
220
0.0
230
1.0
 70
     8
 71
     3
 72
    14
 73
    10
 74
     8
 42
0.0000000001
 43
0.0000000001
 44
0.0000000001
 40
0.0
 40
0.0
 40
0.0
 40
0.0
 40
0.0139459146998939
 40
0.021181404943123
 40
0.0369420729440843
 40
0.0651066104471579
 40
0.0920320869790509
 40
0.1114077580615986
 40
0.1250317471595448
 40
0.1250317471595448
 40
0.1250317471595448
 40
0.1250317471595448
 10
207.26054807335
 20
1149.005804556793
 30
0.0
 10
202.0046800507647
 20
1150.739066605535
 30
0.0
 10
194.0219359059982
 20
1153.371588467096
 30
0.0
 10
187.5448483378886
 20
1140.652801022342
 30
0.0
 10
194.5858233805046
 20
1123.802337614615
 30
0.0
 10
182.03666870818
 20
1100.857350382889
 30
0.0
 10
161.1269679496711
 20
1084.192195595564
 30
0.0
 10
164.0316635459678
 20
1062.585761991889
 30
0.0
 10
159.9936281674458
 20
1052.303068014706
 30
0.0
 10
158.3265155464914
 20
1048.057833067545
 30
0.0
 11
207.26054807335
 21
1149.005804556793
 31
0.0
 11
193.3435310412505
 21
1149.903119298102
 31
0.0
 11
189.7520403259704
 21
1143.621916109068
 31
0.0
 11
191.0988452771107
 21
1127.918898174286
 31
0.0
 11
180.3243839766537
 21
1101.896750752388
 31
0.0
 11
164.1626811804144
 21
1080.361183678462
 31
0.0
 11
162.3669412455228
 21
1061.068906778487
 31
0.0
 11
158.3265155464914
 21
1048.057833067545
 31
0.0
  0
SPLINE
  5
9D5
330
1F
100
AcDbEntity
  8
ceco.net 137
100
AcDbSpline
210
0.0
220
0.0
230
1.0
 70
     8
 71
     3
 72
    10
 73
     6
 74
     4
 42
0.0000000001
 43
0.0000000001
 44
0.0000000001
 40
0.0
 40
0.0
 40
0.0
 40
0.0
 40
0.0025169365506842
 40
0.0119081924180848
 40
0.0175319368023588
 40
0.0175319368023588
 40
0.0175319368023588
 40
0.0175319368023588
 10
251.0740450735511
 20
1113.500793612217
 30
0.0
 10
250.2550687492092
 20
1113.361314977355
 30
0.0
 10
246.3803077213762
 20
1112.701410212693
 30
0.0
 10
239.6614182329704
 20
1112.914659853366
 30
0.0
 10
236.6875336900876
 20
1117.167229473423
 30
0.0
 10
235.5736897861788
 20
1118.759994316491
 30
0.0
 11
251.0740450735511
 21
1113.500793612217
 31
0.0
 11
248.5863402921495
 21
1113.118308944862
 31
0.0
 11
239.3052632269245
 21
1114.552636409683
 31
0.0
 11
235.5736897861788
 21
1118.759994316491
 31
0.0
  0
SPLINE
  5
9D6
330
1F
100
AcDbEntity
  8
ceco.net 137
100
AcDbSpline
210
0.0
220
0.0
230
1.0
 70
     8
 71
     3
 72
    14
 73
    10
 74
     8
 42
0.0000000001
 43
0.0000000001
 44
0.0000000001
 40
0.0
 40
0.0
 40
0.0
 40
0.0
 40
0.0046399329271657
 40
0.0142732870968019
 40
0.0225278788711405
 40
0.0302655063805153
 40
0.0410850671187634
 40
0.0618762600730456
 40
0.0810375343910357
 40
0.0810375343910357
 40
0.0810375343910357
 40
0.0810375343910357
 10
240.3284007290267
 20
1054.482725365417
 30
0.0
 10
239.0277374253411
 20
1053.614652067007
 30
0.0
 10
235.0266578750124
 20
1050.94429893825
 30
0.0
 10
231.407240775239
 20
1044.236212318889
 30
0.0
 10
228.8372964545103
 20
1035.214066831376
 30
0.0
 10
218.8868212031699
 20
1033.447214474269
 30
0.0
 10
206.2094423238218
 20
1036.784379803717
 30
0.0
 10
192.3963505044731
 20
1047.377099200787
 30
0.0
 10
182.9988049292267
 20
1056.73666781075
 30
0.0
 10
178.4917253675075
 20
1061.225533552416
 30
0.0
 11
240.3284007290267
 21
1054.482725365417
 31
0.0
 11
236.6068920737234
 21
1051.711561188199
 31
0.0
 11
231.4989483746785
 21
1043.543916256822
 31
0.0
 11
227.631500330176
 21
1036.251376851098
 31
0.0
 11
220.1884938654075
 21
1034.136540157817
 31
0.0
 11
209.6077471481976
 21
1036.39722445132
 31
0.0
 11
192.3515423148955
 21
1047.994512893595
 31
0.0
 11
178.4917253675075
 21
1061.225533552416
 31
0.0
  0
SPLINE
  5
9D7
330
1F
100
AcDbEntity
  8
ceco.net 137
100
AcDbSpline
210
0.0
220
0.0
230
1.0
 70
     8
 71
     3
 72
     9
 73
     5
 74
     3
 42
0.0000000001
 43
0.0000000001
 44
0.0000000001
 40
0.0
 40
0.0
 40
0.0
 40
0.0
 40
0.0018986455552437
 40
0.00343769940239
 40
0.00343769940239
 40
0.00343769940239
 40
0.00343769940239
 10
249.8216734059042
 20
1067.402677533791
 30
0.0
 10
249.1637702911022
 20
1067.524791660773
 30
0.0
 10
247.97256683644
 20
1067.74589225545
 30
0.0
 10
247.0320373622033
 20
1067.005080245429
 30
0.0
 10
246.6109634589201
 20
1066.673419608307
 30
0.0
 11
249.8216734059042
 21
1067.402677533791
 31
0.0
 11
247.924428808119
 21
1067.475601333896
 31
0.0
 11
246.6109634589201
 21
1066.673419608307
 31
0.0
  0
SPLINE
  5
9D8
330
1F
100
AcDbEntity
  8
ceco.net 137
100
AcDbSpline
210
0.0
220
0.0
230
1.0
 70
     8
 71
     3
 72
     9
 73
     5
 74
     3
 42
0.0000000001
 43
0.0000000001
 44
0.0000000001
 40
0.0
 40
0.0
 40
0.0
 40
0.0
 40
0.0017537929596857
 40
0.0052191361356736
 40
0.0052191361356736
 40
0.0052191361356736
 40
0.0052191361356736
 10
248.3622578216682
 20
1062.516676663292
 30
0.0
 10
248.830757067699
 20
1062.902203107905
 30
0.0
 10
250.2249702962284
 20
1064.049496457
 30
0.0
 10
250.1580110379856
 20
1065.933187528934
 30
0.0
 10
250.1135521845299
 20
1067.183899492008
 30
0.0
 11
248.3622578216682
 21
1062.516676663292
 31
0.0
 11
249.6027643220486
 21
1063.756407830908
 31
0.0
 11
250.1135521845299
 21
1067.183899492008
 31
0.0
  0
SPLINE
  5
9D9
330
1F
100
AcDbEntity
  8
ceco.net 137
100
AcDbSpline
210
0.0
220
0.0
230
1.0
 70
     8
 71
     3
 72
    10
 73
     6
 74
     4
 42
0.0000000001
 43
0.0000000001
 44
0.0000000001
 40
0.0
 40
0.0
 40
0.0
 40
0.0
 40
0.0018974622489806
 40
0.006318149480056
 40
0.0084452381195496
 40
0.0084452381195496
 40
0.0084452381195496
 40
0.0084452381195496
 10
247.7055197242634
 20
1062.079120579696
 30
0.0
 10
247.733852048164
 20
1061.4348527966
 30
0.0
 10
247.8281927169272
 20
1059.289576830785
 30
0.0
 10
245.6131890523459
 20
1056.966630899101
 30
0.0
 10
243.7225586293103
 20
1055.926618017062
 30
0.0
 10
243.1083747333104
 20
1055.588762899532
 30
0.0
 11
247.7055197242634
 21
1062.079120579696
 31
0.0
 11
247.632550029607
 21
1060.183061928185
 31
0.0
 11
244.9326387907149
 21
1056.682639825481
 31
0.0
 11
243.1083747333104
 21
1055.588762899532
 31
0.0
  0
SPLINE
  5
9DA
330
1F
100
AcDbEntity
  8
ceco.net 137
100
AcDbSpline
210
0.0
220
0.0
230
1.0
 70
     8
 71
     3
 72
     9
 73
     5
 74
     3
 42
0.0000000001
 43
0.0000000001
 44
0.0000000001
 40
0.0
 40
0.0
 40
0.0
 40
0.0
 40
0.0022891120739759
 40
0.0070479368273698
 40
0.0070479368273698
 40
0.0070479368273698
 40
0.0070479368273698
 10
252.3757862492175
 20
1075.295330667103
 30
0.0
 10
251.9557072827027
 20
1074.652048374938
 30
0.0
 10
250.6623280496972
 20
1072.671449430532
 30
0.0
 10
250.2477083863653
 20
1070.319860989868
 30
0.0
 10
249.967753788951
 20
1068.732049186877
 30
0.0
 11
252.3757862492175
 21
1075.295330667103
 31
0.0
 11
251.2082494436072
 21
1073.326348215488
 31
0.0
 11
249.967753788951
 21
1068.732049186877
 31
0.0
  0
SPLINE
  5
9DB
330
1F
100
AcDbEntity
  8
ceco.net 137
100
AcDbSpline
210
0.0
220
0.0
230
1.0
 70
     8
 71
     3
 72
    12
 73
     8
 74
     6
 42
0.0000000001
 43
0.0000000001
 44
0.0000000001
 40
0.0
 40
0.0
 40
0.0
 40
0.0
 40
0.0043058837699835
 40
0.0120071031723662
 40
0.020608891523222
 40
0.025403727177953
 40
0.026645923116726
 40
0.026645923116726
 40
0.026645923116726
 40
0.026645923116726
 10
242.962565492121
 20
1055.459625343175
 30
0.0
 10
241.5117721134332
 20
1055.386385984445
 30
0.0
 10
237.4661854905139
 20
1055.182155544534
 30
0.0
 10
231.1511816814052
 20
1058.737368837628
 30
0.0
 10
226.4142724228201
 20
1064.146366871081
 30
0.0
 10
224.9636856520423
 20
1068.962123189898
 30
0.0
 10
223.6116548491379
 20
1070.464767320578
 30
0.0
 10
223.3334573365937
 20
1070.773955438553
 30
0.0
 11
242.962565492121
 21
1055.459625343175
 31
0.0
 11
238.65729927968
 21
1055.532549143279
 31
0.0
 11
231.7250806773927
 21
1058.887117004232
 31
0.0
 11
226.2522885050657
 21
1065.523328926062
 31
0.0
 11
224.1361348234249
 21
1069.825926112827
 31
0.0
 11
223.3334573365937
 21
1070.773955438553
 31
0.0
  0
SPLINE
  5
9DC
330
1F
100
AcDbEntity
  8
ceco.net 137
100
AcDbSpline
210
0.0
220
0.0
230
1.0
 70
     8
 71
     3
 72
    10
 73
     6
 74
     4
 42
0.0000000001
 43
0.0000000001
 44
0.0000000001
 40
0.0
 40
0.0
 40
0.0
 40
0.0
 40
0.0050539502114971
 40
0.0139447439456046
 40
0.0237099450507182
 40
0.0237099450507182
 40
0.0237099450507182
 40
0.0237099450507182
 10
246.6111044526542
 20
1062.387539106893
 30
0.0
 10
244.9108752498617
 20
1062.439136586994
 30
0.0
 10
240.219641682138
 20
1062.581503175134
 30
0.0
 10
233.0938569925779
 20
1066.483662535336
 30
0.0
 10
227.6928951872863
 20
1069.491335769266
 30
0.0
 10
224.8658426154861
 20
1071.065657280442
 30
0.0
 11
246.6111044526542
 21
1062.387539106893
 31
0.0
 11
241.576130448152
 21
1062.82508854899
 31
0.0
 11
233.4034161912086
 21
1066.325510651651
 31
0.0
 11
224.8658426154861
 21
1071.065657280442
 31
0.0
  0
SPLINE
  5
9DD
330
1F
100
AcDbEntity
  8
ceco.net 137
100
AcDbSpline
210
0.0
220
0.0
230
1.0
 70
     8
 71
     3
 72
    10
 73
     6
 74
     4
 42
0.0000000001
 43
0.0000000001
 44
0.0000000001
 40
0.0
 40
0.0
 40
0.0
 40
0.0
 40
0.0057476161853403
 40
0.015221750498417
 40
0.026413237105149
 40
0.026413237105149
 40
0.026413237105149
 40
0.026413237105149
 10
246.0273360497922
 20
1066.981838135504
 30
0.0
 10
244.2447957956783
 20
1067.699436418475
 30
0.0
 10
239.5239894428266
 20
1069.599894220328
 30
0.0
 10
230.6968486252478
 20
1070.66052490729
 30
0.0
 10
224.2161462886384
 20
1073.052126974068
 30
0.0
 10
220.7065157924716
 20
1074.347301341333
 30
0.0
 11
246.0273360497922
 21
1066.981838135504
 31
0.0
 11
240.627502726511
 21
1068.950820587119
 31
0.0
 11
231.3602322042243
 21
1070.919809680276
 31
0.0
 11
220.7065157924716
 21
1074.347301341333
 31
0.0
  0
SPLINE
  5
9DE
330
1F
100
AcDbEntity
  8
ceco.net 137
100
AcDbSpline
210
0.0
220
0.0
230
1.0
 70
     8
 71
     3
 72
     9
 73
     5
 74
     3
 42
0.0000000001
 43
0.0000000001
 44
0.0000000001
 40
0.0
 40
0.0
 40
0.0
 40
0.0
 40
0.0032606170424479
 40
0.010357961219382
 40
0.010357961219382
 40
0.010357961219382
 40
0.010357961219382
 10
267.9081905032489
 20
1074.586980220914
 30
0.0
 10
267.2358499616815
 20
1073.675579595566
 30
0.0
 10
265.1000342049969
 20
1070.780344672304
 30
0.0
 10
261.2994970227483
 20
1071.026330230092
 30
0.0
 10
258.6953435732084
 20
1071.194881176481
 30
0.0
 11
267.9081905032489
 21
1074.586980220914
 31
0.0
 11
265.7262035804706
 21
1072.164057075965
 31
0.0
 11
258.6953435732084
 21
1071.194881176481
 31
0.0
  0
SPLINE
  5
9DF
330
1F
100
AcDbEntity
  8
ceco.net 137
100
AcDbSpline
210
0.0
220
0.0
230
1.0
 70
     8
 71
     3
 72
    12
 73
     8
 74
     6
 42
0.0000000001
 43
0.0000000001
 44
0.0000000001
 40
0.0
 40
0.0
 40
0.0
 40
0.0
 40
0.0046819709213615
 40
0.0096781985763099
 40
0.014920793471054
 40
0.0212094808411156
 40
0.0231023356650826
 40
0.0231023356650826
 40
0.0231023356650826
 40
0.0231023356650826
 10
250.4522734291185
 20
1090.578306185051
 30
0.0
 10
248.9894868167995
 20
1090.161419014993
 30
0.0
 10
245.9657304657723
 20
1089.29966295467
 30
0.0
 10
241.4646777638082
 20
1085.037050982369
 30
0.0
 10
245.9530103108074
 20
1079.624901617085
 30
0.0
 10
250.5950559623692
 20
1079.041067896943
 30
0.0
 10
252.2511278305037
 20
1076.801231062262
 30
0.0
 10
252.6342711976212
 20
1076.283029743137
 30
0.0
 11
250.4522734291185
 21
1090.578306185051
 31
0.0
 11
246.0882995833344
 21
1088.882256662841
 31
0.0
 11
242.9365358744917
 21
1085.00557298943
 31
0.0
 11
245.8458553868467
 21
1080.644304687041
 31
0.0
 11
251.4220502150692
 21
1077.736790271586
 31
0.0
 11
252.6342711976212
 21
1076.283029743137
 31
0.0
  0
SPLINE
  5
9E0
330
1F
100
AcDbEntity
  8
ceco.net 137
100
AcDbSpline
210
0.0
220
0.0
230
1.0
 70
     8
 71
     3
 72
     9
 73
     5
 74
     3
 42
0.0000000001
 43
0.0000000001
 44
0.0000000001
 40
0.0
 40
0.0
 40
0.0
 40
0.0
 40
0.0105559026286262
 40
0.0288862877715198
 40
0.0288862877715198
 40
0.0288862877715198
 40
0.0288862877715198
 10
272.0297201524317
 20
1108.265681671398
 30
0.0
 10
271.421674435468
 20
1104.798280975658
 30
0.0
 10
269.7577538617006
 20
1095.309719187991
 30
0.0
 10
269.045157362128
 20
1085.698466117015
 30
0.0
 10
268.5929646680733
 20
1079.599448760049
 30
0.0
 11
272.0297201524317
 21
1108.265681671398
 31
0.0
 11
270.3326216226287
 21
1097.847095544423
 31
0.0
 11
268.5929646680733
 21
1079.599448760049
 31
0.0
  0
SPLINE
  5
9E1
330
1F
100
AcDbEntity
  8
ceco.net 137
100
AcDbSpline
210
0.0
220
0.0
230
1.0
 70
     8
 71
     3
 72
    10
 73
     6
 74
     4
 42
0.0000000001
 43
0.0000000001
 44
0.0000000001
 40
0.0
 40
0.0
 40
0.0
 40
0.0
 40
0.0063081821361966
 40
0.0150956045094186
 40
0.0240658644173968
 40
0.0240658644173968
 40
0.0240658644173968
 40
0.0240658644173968
 10
252.1493828046459
 20
1114.080710502278
 30
0.0
 10
250.0400002535432
 20
1113.829262458701
 30
0.0
 10
244.9922061247399
 20
1113.227542321497
 30
0.0
 10
237.1696303245034
 20
1116.943032132094
 30
0.0
 10
233.9137409989179
 20
1121.963316191439
 30
0.0
 10
232.2690346110221
 20
1124.499303270781
 30
0.0
 11
252.1493828046459
 21
1114.080710502278
 31
0.0
 11
245.8458553868467
 21
1113.838421508546
 31
0.0
 11
237.8452294392445
 21
1117.472809546711
 31
0.0
 11
232.2690346110221
 21
1124.499303270781
 31
0.0
  0
SPLINE
  5
9E2
330
1F
100
AcDbEntity
  8
ceco.net 137
100
AcDbSpline
210
0.0
220
0.0
230
1.0
 70
     8
 71
     3
 72
    10
 73
     6
 74
     4
 42
0.0000000001
 43
0.0000000001
 44
0.0000000001
 40
0.0
 40
0.0
 40
0.0
 40
0.0
 40
0.0090174475800307
 40
0.0208362845206214
 40
0.0337239570979319
 40
0.0337239570979319
 40
0.0337239570979319
 40
0.0337239570979319
 10
266.9384137172983
 20
1124.014718641802
 30
0.0
 10
264.5714861495676
 20
1125.878814675909
 30
0.0
 10
259.1023136588781
 20
1130.186112832698
 30
0.0
 10
248.759585824729
 20
1134.894769845524
 30
0.0
 10
240.7901311244197
 20
1136.979986521799
 30
0.0
 10
236.6330193024168
 20
1138.067699448513
 30
0.0
 11
266.9384137172983
 21
1124.014718641802
 31
0.0
 11
259.6651203591591
 21
1129.345156202177
 31
0.0
 11
248.9976190956895
 21
1134.433311410319
 31
0.0
 11
236.6330193024168
 21
1138.067699448513
 31
0.0
  0
SPLINE
  5
9E3
330
1F
100
AcDbEntity
  8
ceco.net 137
100
AcDbSpline
210
0.0
220
0.0
230
1.0
 70
     8
 71
     3
 72
    11
 73
     7
 74
     0
 42
0.0000000001
 43
0.0000000001
 40
0.0
 40
0.0
 40
0.0
 40
0.0
 40
1.353501848705112
 40
4.818280025471687
 40
8.782378254448413
 40
12.93578885236525
 40
12.93578885236525
 40
12.93578885236525
 40
12.93578885236525
 10
152.4615004198039
 20
1176.002839578387
 30
0.0
 10
151.5218595516216
 20
1174.933753251721
 30
0.0
 10
148.1768675737384
 20
1171.127953283104
 30
0.0
 10
148.5581288117145
 20
1161.170858932308
 30
0.0
 10
151.3384448867327
 20
1149.804112656084
 30
0.0
 10
153.7050346523756
 20
1141.738863315836
 30
0.0
 10
154.9340620906605
 20
1137.607904820654
 30
0.0
  0
SPLINE
  5
9E4
330
1F
100
AcDbEntity
  8
ceco.net 137
100
AcDbSpline
210
0.0
220
0.0
230
1.0
 70
     8
 71
     3
 72
    11
 73
     7
 74
     0
 42
0.0000000001
 43
0.0000000001
 40
1.512408434553169
 40
1.512408434553169
 40
1.512408434553169
 40
1.512408434553169
 40
2.67014805086275
 40
7.563358257868923
 40
12.22535005113444
 40
21.5851626591051
 40
21.5851626591051
 40
21.5851626591051
 40
21.5851626591051
 10
142.6009346895398
 20
469.7803158167914
 30
0.0
 10
141.2631493446951
 20
466.1599689988378
 30
0.0
 10
134.5720376068584
 20
447.179267913853
 30
0.0
 10
127.6406234997011
 20
412.6127939051684
 30
0.0
 10
111.1645903004045
 20
348.1146687644951
 30
0.0
 10
144.8685095483597
 20
310.4603155241392
 30
0.0
 10
168.5866768265213
 20
285.5952844065541
 30
0.0
  0
SPLINE
  5
9E5
330
1F
100
AcDbEntity
  8
ceco.net 137
100
AcDbSpline
210
0.0
220
0.0
230
1.0
 70
     8
 71
     3
 72
    12
 73
     8
 74
     0
 42
0.0000000001
 43
0.0000000001
 40
0.0
 40
0.0
 40
0.0
 40
0.0
 40
3.452220756567459
 40
11.77940675512082
 40
25.17605559571387
 40
36.67649807753857
 40
43.36218177563758
 40
43.36218177563758
 40
43.36218177563758
 40
43.36218177563758
 10
31.93194691152712
 20
647.4357777896528
 30
0.0
 10
41.10260167180967
 20
640.0630371260973
 30
0.0
 10
72.3940167490582
 20
614.9063286476348
 30
0.0
 10
67.64482549044714
 20
522.9121370813345
 30
0.0
 10
24.94774313890957
 20
406.4569907975226
 30
0.0
 10
91.96394469643109
 20
303.2972866044332
 30
0.0
 10
146.5233073435001
 20
287.3766209746833
 30
0.0
 10
168.5866768270898
 20
285.595284406483
 30
0.0
  0
SPLINE
  5
9E6
330
1F
100
AcDbEntity
  8
ceco.net 137
100
AcDbSpline
210
0.0
220
0.0
230
1.0
 70
     8
 71
     3
 72
    10
 73
     6
 74
     0
 42
0.0000000001
 43
0.0000000001
 40
1.870694029749624
 40
1.870694029749624
 40
1.870694029749624
 40
1.870694029749624
 40
7.475860482230045
 40
16.26358789903139
 40
17.47094998731752
 40
17.47094998731752
 40
17.47094998731752
 40
17.47094998731752
 10
190.4495213235577
 20
480.0000000000039
 30
0.0
 10
184.1440076605067
 20
478.8932778350414
 30
0.0
 10
169.7463380041881
 20
475.2034935570605
 30
0.0
 10
154.047197796217
 20
471.4048463398654
 30
0.0
 10
143.8363468485022
 20
469.9429851085739
 30
0.0
 10
142.6009346895398
 20
469.7803158167914
 30
0.0
  0
SPLINE
  5
9E7
330
1F
100
AcDbEntity
  8
ceco.net 137
100
AcDbSpline
210
0.0
220
0.0
230
1.0
 70
     8
 71
     3
 72
    11
 73
     7
 74
     0
 42
0.0000000001
 43
0.0000000001
 40
0.9893393399512252
 40
0.9893393399512252
 40
0.9893393399512252
 40
0.9893393399512252
 40
2.87712595304327
 40
10.37074337125235
 40
17.09331915099547
 40
25.46981119036404
 40
25.46981119036404
 40
25.46981119036404
 40
25.46981119036404
 10
224.6774178980786
 20
671.4598275393228
 30
0.0
 10
219.0081584884637
 20
674.5116406510334
 30
0.0
 10
190.6223177546735
 20
687.5542062548305
 30
0.0
 10
136.6285752699241
 20
657.2628820740931
 30
0.0
 10
61.95825173642788
 20
653.6383470852911
 30
0.0
 10
11.78832895891446
 20
659.8172801994905
 30
0.0
 10
-16.04437990727092
 20
663.2451596330781
 30
0.0
  0
SPLINE
  5
9E8
330
1F
100
AcDbEntity
  8
ceco.net 137
100
AcDbSpline
210
0.0
220
0.0
230
1.0
 70
     8
 71
     3
 72
    11
 73
     7
 74
     0
 42
0.0000000001
 43
0.0000000001
 40
0.3543757850492402
 40
0.3543757850492402
 40
0.3543757850492402
 40
0.3543757850492402
 40
2.676565374095371
 40
8.391570532810366
 40
14.58096016138624
 40
19.40550488514053
 40
19.40550488514053
 40
19.40550488514053
 40
19.40550488514053
 10
205.9979457316103
 20
1038.114013423907
 30
0.0
 10
198.7247139014698
 20
1035.067212589126
 30
0.0
 10
174.0359258524222
 20
1023.913241466615
 30
0.0
 10
152.7378970157542
 20
975.9962877458008
 30
0.0
 10
96.04964258971904
 20
958.4425568677374
 30
0.0
 10
70.43600960776075
 20
931.704651476906
 30
0.0
 10
59.21621167669854
 20
919.9923771659115
 30
0.0
  0
SPLINE
  5
9E9
330
1F
100
AcDbEntity
  8
ceco.net 137
100
AcDbSpline
210
0.0
220
0.0
230
1.0
 70
     8
 71
     3
 72
    13
 73
     9
 74
     7
 42
0.0000000001
 43
0.0000000001
 44
0.0000000001
 40
0.0
 40
0.0
 40
0.0
 40
0.0
 40
0.0239555348908131
 40
0.0540829647840982
 40
0.0713919551232682
 40
0.0893147028580392
 40
0.103610627825148
 40
0.1283321374251539
 40
0.1283321374251539
 40
0.1283321374251539
 40
0.1283321374251539
 10
157.5414297429915
 20
1265.953576579335
 30
0.0
 10
153.1439475794439
 20
1259.239952666213
 30
0.0
 10
143.2160176010968
 20
1244.083009299178
 30
0.0
 10
141.0819753377223
 20
1218.424223210891
 30
0.0
 10
153.0094286007594
 20
1198.529810940628
 30
0.0
 10
146.5659278477089
 20
1181.902806733564
 30
0.0
 10
136.7667918489508
 20
1165.260630206448
 30
0.0
 10
139.9851367938268
 20
1151.887186652552
 30
0.0
 10
142.0242853522495
 20
1143.413751203226
 30
0.0
 11
157.5414297429915
 21
1265.953576579335
 31
0.0
 11
145.9796267388355
 21
1244.972814839158
 31
0.0
 11
144.762601122693
 21
1214.869976424409
 31
0.0
 11
150.2392435093042
 21
1198.450246380019
 31
0.0
 11
145.6753730461741
 21
1181.118311324752
 31
0.0
 11
139.8944769670151
 21
1168.04334626984
 31
0.0
 11
142.0242853522495
 21
1143.413751203226
 31
0.0
  0
SPLINE
  5
9EA
330
1F
100
AcDbEntity
  8
ceco.net 137
100
AcDbSpline
210
0.0
220
0.0
230
1.0
 70
     8
 71
     3
 72
    12
 73
     8
 74
     0
 42
0.0000000001
 43
0.0000000001
 40
5.122530596584419
 40
5.122530596584419
 40
5.122530596584419
 40
5.122530596584419
 40
6.024666808799238
 40
8.535247188441019
 40
12.55614858499138
 40
15.18729237949816
 40
17.8697711813499
 40
17.8697711813499
 40
17.8697711813499
 40
17.8697711813499
 10
165.9698149684345
 20
834.5796424355995
 30
0.0
 10
163.5427694396867
 20
832.6901317153101
 30
0.0
 10
153.756990440911
 20
826.42591270411
 30
0.0
 10
128.9836931161971
 20
821.7201295841363
 30
0.0
 10
96.7136147179417
 20
827.09733980559
 30
0.0
 10
74.44834454940973
 20
850.4647306169488
 30
0.0
 10
68.67840771519695
 20
868.3439110133548
 30
0.0
 10
68.29709230987646
 20
877.3210538202249
 30
0.0
  0
SPLINE
  5
9EB
330
1F
100
AcDbEntity
  8
ceco.net 137
100
AcDbSpline
210
0.0
220
0.0
230
1.0
 70
     8
 71
     3
 72
     9
 73
     5
 74
     0
 42
0.0000000001
 43
0.0000000001
 40
1.823525224203813
 40
1.823525224203813
 40
1.823525224203813
 40
1.823525224203813
 40
2.311928567001963
 40
6.631551580302771
 40
6.631551580302771
 40
6.631551580302771
 40
6.631551580302771
 10
184.519233979131
 20
1026.528465103325
 30
0.0
 10
182.9174891181537
 20
1026.237868981553
 30
0.0
 10
167.1414383398541
 20
1023.423632103359
 30
0.0
 10
151.267144011058
 20
1021.189772840955
 30
0.0
 10
137.0053737908847
 20
1019.182830872736
 30
0.0
  0
SPLINE
  5
9EC
330
1F
100
AcDbEntity
  8
ceco.net 137
100
AcDbSpline
210
0.0
220
0.0
230
1.0
 70
     8
 71
     3
 72
    21
 73
    17
 74
     0
 42
0.0000000001
 43
0.0000000001
 40
0.0
 40
0.0
 40
0.0
 40
0.0
 40
22.0747207984316
 40
69.62729379123558
 40
101.5032877443906
 40
108.859283271386
 40
113.7008151475949
 40
123.7949352794242
 40
140.5175440972306
 40
156.2489285933558
 40
191.950333348664
 40
203.1631976892654
 40
217.3465388905963
 40
225.9147416867418
 40
235.8251639452527
 40
245.8229460018726
 40
245.8229460018726
 40
245.8229460018726
 40
245.8229460018726
 10
202.5774836530445
 20
638.704710371897
 30
0.0
 10
179.8976514736523
 20
641.0870137525108
 30
0.0
 10
108.3617370353522
 20
648.6011897593897
 30
0.0
 10
3.343443784046939
 20
649.3990900789867
 30
0.0
 10
-86.22077173845354
 20
647.6745442679003
 30
0.0
 10
-131.4118750990473
 20
638.4583500548899
 30
0.0
 10
-150.3679320491073
 20
623.2797024556191
 30
0.0
 10
-152.6851277483274
 20
587.8720524854657
 30
0.0
 10
-151.8687795904725
 20
545.2298254360385
 30
0.0
 10
-149.606143504684
 20
474.3841121148619
 30
0.0
 10
-143.2048112827715
 20
410.1124357413539
 30
0.0
 10
-142.0342523076669
 20
347.0360202151567
 30
0.0
 10
-144.0648566039044
 20
311.7868500516465
 30
0.0
 10
-153.0017119915783
 20
279.1356474192809
 30
0.0
 10
-163.1080328479583
 20
251.5490342653663
 30
0.0
 10
-167.768154186092
 20
231.3557026475194
 30
0.0
 10
-169.0894963858227
 20
221.0966813999704
 30
0.0
  0
CIRCLE
  5
9ED
330
1F
100
AcDbEntity
  8
ceco.net 137
100
AcDbCircle
 10
156.2026505905578
 20
1124.947937396171
 30
0.0
 40
12.72336794921651
  0
SPLINE
  5
9EE
330
1F
100
AcDbEntity
  8
ceco.net 137
100
AcDbSpline
210
0.0
220
0.0
230
1.0
 70
     8
 71
     3
 72
    11
 73
     7
 74
     5
 42
0.0000000001
 43
0.0000000001
 44
0.0000000001
 40
0.0
 40
0.0
 40
0.0
 40
0.0
 40
0.034961252911751
 40
0.0700114515795446
 40
0.0990084120661508
 40
0.1198663087114579
 40
0.1198663087114579
 40
0.1198663087114579
 40
0.1198663087114579
 10
194.2096882579562
 20
1292.607165740193
 30
0.0
 10
182.1204394427256
 20
1291.575232547147
 30
0.0
 10
157.9111852664801
 20
1289.508740795246
 30
0.0
 10
135.8600637193384
 20
1260.888463261235
 30
0.0
 10
130.8129671173457
 20
1231.572759335005
 30
0.0
 10
137.5279827869855
 20
1216.085108245466
 30
0.0
 10
140.3373600646773
 20
1209.605502359736
 30
0.0
 11
194.2096882579562
 21
1292.607165740193
 31
0.0
 11
160.0905535761967
 21
1284.97998711849
 31
0.0
 11
137.6437501623968
 21
1258.060524955326
 31
0.0
 11
133.6033244632517
 21
1229.346439951072
 31
0.0
 11
140.3373600646773
 21
1209.605502359736
 31
0.0
  0
ARC
  5
9EF
330
1F
100
AcDbEntity
  8
ceco.net 137
100
AcDbCircle
 10
258.3922678537327
 20
1078.439999165647
 30
0.0
 40
10.2663790530106
100
AcDbArc
 50
337.956861818453
 51
6.484623593774911
  0
LINE
  5
9F0
330
1F
100
AcDbEntity
  8
ceco.net 137
100
AcDbLine
 10
-10.57182072748119
 20
992.1503633854751
 30
0.0
 11
-1.769677780202982
 21
989.572188259558
 31
0.0
  0
ENDSEC
  0
SECTION
  2
OBJECTS
  0
DICTIONARY
  5
C
330
0
100
AcDbDictionary
281
     1
  3
ACAD_GROUP
350
D
  3
ACAD_LAYOUT
350
1A
  3
ACAD_MLINESTYLE
350
17
  3
ACAD_PLOTSETTINGS
350
19
  3
ACAD_PLOTSTYLENAME
350
E
  3
AcDbVariableDictionary
350
115
  3
DWGPROPS
350
8E3
  0
DICTIONARY
  5
901
330
2
100
AcDbDictionary
280
     1
281
     1
  3
ACAD_LAYERFILTERS
360
9F1
  3
ACAD_LAYERSTATES
360
902
  0
DICTIONARY
  5
8F6
330
8F5
100
AcDbDictionary
280
     1
281
     1
  3
ACAD_XREC_ROUNDTRIP
360
8F7
  0
DICTIONARY
  5
D
102
{ACAD_REACTORS
330
C
102
}
330
C
100
AcDbDictionary
281
     1
  0
DICTIONARY
  5
1A
102
{ACAD_REACTORS
330
C
102
}
330
C
100
AcDbDictionary
281
     1
  3
Layout1
350
1E
  3
Layout2
350
26
  3
Model
350
22
  0
DICTIONARY
  5
17
102
{ACAD_REACTORS
330
C
102
}
330
C
100
AcDbDictionary
281
     1
  3
Standard
350
18
  0
DICTIONARY
  5
19
102
{ACAD_REACTORS
330
C
102
}
330
C
100
AcDbDictionary
281
     1
  0
ACDBDICTIONARYWDFLT
  5
E
102
{ACAD_REACTORS
330
C
102
}
330
C
100
AcDbDictionary
281
     1
  3
Normal
350
F
100
AcDbDictionaryWithDefault
340
F
  0
DICTIONARY
  5
115
102
{ACAD_REACTORS
330
C
102
}
330
C
100
AcDbDictionary
281
     1
  3
DIMASSOC
350
117
  3
HIDETEXT
350
116
  0
XRECORD
  5
8E3
102
{ACAD_REACTORS
330
C
102
}
330
C
100
AcDbXrecord
280
     1
  1
DWGPROPS COOKIE
  2
Ceco.NET-Trees-and-Plants - T - xx . 67 . dwg
  3

  4
ceco.net
  6

  7

  8
peacosta
  9

300
=
301
=
302
=
303
=
304
=
305
=
306
=
307
=
308
=
309
=
 40
0.0450312037037037
 41
2455079.811409143
 42
2455838.656599502
  1

 90
        0
  0
DICTIONARY
  5
9F1
102
{ACAD_REACTORS
330
901
102
}
330
901
100
AcDbDictionary
280
     1
281
     1
  0
DICTIONARY
  5
902
102
{ACAD_REACTORS
330
901
102
}
330
901
100
AcDbDictionary
281
     1
  0
XRECORD
  5
8F7
102
{ACAD_REACTORS
330
8F6
102
}
330
8F6
100
AcDbXrecord
280
     1
102
MATERIAL
340
0
  0
LAYOUT
  5
1E
102
{ACAD_REACTORS
330
1A
102
}
330
1A
100
AcDbPlotSettings
  1

  2
Microsoft Office Document Image Writer
  4

  6

 40
0.0
 41
0.0
 42
0.0
 43
0.0
 44
0.0
 45
0.0
 46
0.0
 47
0.0
 48
0.0
 49
0.0
140
0.0
141
0.0
142
1.0
143
1.0
 70
   688
 72
     0
 73
     0
 74
     5
  7

 75
    16
147
1.0
148
0.0
149
0.0
100
AcDbLayout
  1
Layout1
 70
     1
 71
     1
 10
0.0
 20
0.0
 11
420.0
 21
297.0
 12
0.0
 22
0.0
 32
0.0
 14
1.000000000000000E+20
 24
1.000000000000000E+20
 34
1.000000000000000E+20
 15
-1.000000000000000E+20
 25
-1.000000000000000E+20
 35
-1.000000000000000E+20
146
0.0
 13
0.0
 23
0.0
 33
0.0
 16
1.0
 26
0.0
 36
0.0
 17
0.0
 27
1.0
 37
0.0
 76
     0
330
1B
  0
LAYOUT
  5
26
102
{ACAD_REACTORS
330
1A
102
}
330
1A
100
AcDbPlotSettings
  1

  2
Microsoft Office Document Image Writer
  4

  6

 40
0.0
 41
0.0
 42
0.0
 43
0.0
 44
0.0
 45
0.0
 46
0.0
 47
0.0
 48
0.0
 49
0.0
140
0.0
141
0.0
142
1.0
143
1.0
 70
   688
 72
     0
 73
     0
 74
     5
  7

 75
    16
147
1.0
148
0.0
149
0.0
100
AcDbLayout
  1
Layout2
 70
     1
 71
     2
 10
0.0
 20
0.0
 11
12.0
 21
9.0
 12
0.0
 22
0.0
 32
0.0
 14
0.0
 24
0.0
 34
0.0
 15
0.0
 25
0.0
 35
0.0
146
0.0
 13
0.0
 23
0.0
 33
0.0
 16
1.0
 26
0.0
 36
0.0
 17
0.0
 27
1.0
 37
0.0
 76
     0
330
23
  0
LAYOUT
  5
22
102
{ACAD_REACTORS
330
1A
102
}
330
1A
100
AcDbPlotSettings
  1

  2
Microsoft Office Document Image Writer
  4

  6

 40
0.0
 41
0.0
 42
0.0
 43
0.0
 44
0.0
 45
0.0
 46
0.0
 47
0.0
 48
0.0
 49
0.0
140
0.0
141
0.0
142
1.0
143
1.0
 70
  1712
 72
     0
 73
     0
 74
     0
  7

 75
     0
147
1.0
148
0.0
149
0.0
100
AcDbLayout
  1
Model
 70
     1
 71
     0
 10
0.0
 20
0.0
 11
12.0
 21
9.0
 12
0.0
 22
0.0
 32
0.0
 14
0.0
 24
0.0
 34
0.0
 15
0.0
 25
0.0
 35
0.0
146
0.0
 13
0.0
 23
0.0
 33
0.0
 16
1.0
 26
0.0
 36
0.0
 17
0.0
 27
1.0
 37
0.0
 76
     0
330
1F
  0
MLINESTYLE
  5
18
102
{ACAD_REACTORS
330
17
102
}
330
17
100
AcDbMlineStyle
  2
STANDARD
 70
     0
  3

 62
   256
 51
90.0
 52
90.0
 71
     2
 49
0.5
 62
   256
  6
BYLAYER
 49
-0.5
 62
   256
  6
BYLAYER
  0
ACDBPLACEHOLDER
  5
F
102
{ACAD_REACTORS
330
E
102
}
330
E
  0
DICTIONARYVAR
  5
117
102
{ACAD_REACTORS
330
115
102
}
330
115
100
DictionaryVariables
280
     0
  1
2
  0
DICTIONARYVAR
  5
116
102
{ACAD_REACTORS
330
115
102
}
330
115
100
DictionaryVariables
280
     0
  1
1
  0
ENDSEC
  0
EOF
