  0
SECTION
  2
HEADER
  9
$ACADVER
  1
AC1015
  9
$ACADMAINTVER
 70
    13
  9
$DWGCODEPAGE
  3
ANSI_1252
  9
$INSBASE
 10
0.0
 20
0.0
 30
0.0
  9
$EXTMIN
 10
-0.1089467761443075
 20
-0.0317223309908741
 30
-0.0015258207003583
  9
$EXTMAX
 10
1.941833987298764
 20
1.894317974911928
 30
0.0000000349246037
  9
$LIMMIN
 10
0.0
 20
0.0
  9
$LIMMAX
 10
420.0
 20
297.0
  9
$ORTHOMODE
 70
     0
  9
$REGENMODE
 70
     1
  9
$FILLMODE
 70
     1
  9
$QTEXTMODE
 70
     0
  9
$MIRRTEXT
 70
     1
  9
$LTSCALE
 40
1.0
  9
$ATTMODE
 70
     1
  9
$TEXTSIZE
 40
2.5
  9
$TRACEWID
 40
1.0
  9
$TEXTSTYLE
  7
Standard
  9
$CLAYER
  8
0
  9
$CELTYPE
  6
ByLayer
  9
$CECOLOR
 62
   256
  9
$CELTSCALE
 40
1.0
  9
$DISPSILH
 70
     0
  9
$DIMSCALE
 40
1.0
  9
$DIMASZ
 40
2.5
  9
$DIMEXO
 40
0.625
  9
$DIMDLI
 40
3.75
  9
$DIMRND
 40
0.0
  9
$DIMDLE
 40
0.0
  9
$DIMEXE
 40
1.25
  9
$DIMTP
 40
0.0
  9
$DIMTM
 40
0.0
  9
$DIMTXT
 40
2.5
  9
$DIMCEN
 40
2.5
  9
$DIMTSZ
 40
0.0
  9
$DIMTOL
 70
     0
  9
$DIMLIM
 70
     0
  9
$DIMTIH
 70
     0
  9
$DIMTOH
 70
     0
  9
$DIMSE1
 70
     0
  9
$DIMSE2
 70
     0
  9
$DIMTAD
 70
     1
  9
$DIMZIN
 70
     8
  9
$DIMBLK
  1

  9
$DIMASO
 70
     1
  9
$DIMSHO
 70
     1
  9
$DIMPOST
  1

  9
$DIMAPOST
  1

  9
$DIMALT
 70
     0
  9
$DIMALTD
 70
     3
  9
$DIMALTF
 40
0.03937007874016
  9
$DIMLFAC
 40
1.0
  9
$DIMTOFL
 70
     1
  9
$DIMTVP
 40
0.0
  9
$DIMTIX
 70
     0
  9
$DIMSOXD
 70
     0
  9
$DIMSAH
 70
     0
  9
$DIMBLK1
  1

  9
$DIMBLK2
  1

  9
$DIMSTYLE
  2
ISO-25
  9
$DIMCLRD
 70
     0
  9
$DIMCLRE
 70
     0
  9
$DIMCLRT
 70
     0
  9
$DIMTFAC
 40
1.0
  9
$DIMGAP
 40
0.625
  9
$DIMJUST
 70
     0
  9
$DIMSD1
 70
     0
  9
$DIMSD2
 70
     0
  9
$DIMTOLJ
 70
     0
  9
$DIMTZIN
 70
     8
  9
$DIMALTZ
 70
     0
  9
$DIMALTTZ
 70
     0
  9
$DIMUPT
 70
     0
  9
$DIMDEC
 70
     2
  9
$DIMTDEC
 70
     2
  9
$DIMALTU
 70
     2
  9
$DIMALTTD
 70
     3
  9
$DIMTXSTY
  7
Standard
  9
$DIMAUNIT
 70
     0
  9
$DIMADEC
 70
     0
  9
$DIMALTRND
 40
0.0
  9
$DIMAZIN
 70
     0
  9
$DIMDSEP
 70
    44
  9
$DIMATFIT
 70
     3
  9
$DIMFRAC
 70
     0
  9
$DIMLDRBLK
  1

  9
$DIMLUNIT
 70
     2
  9
$DIMLWD
 70
    -2
  9
$DIMLWE
 70
    -2
  9
$DIMTMOVE
 70
     0
  9
$LUNITS
 70
     2
  9
$LUPREC
 70
     2
  9
$SKETCHINC
 40
1.0
  9
$FILLETRAD
 40
10.0
  9
$AUNITS
 70
     0
  9
$AUPREC
 70
     0
  9
$MENU
  1
.
  9
$ELEVATION
 40
0.0
  9
$PELEVATION
 40
0.0
  9
$THICKNESS
 40
0.0
  9
$LIMCHECK
 70
     0
  9
$CHAMFERA
 40
10.0
  9
$CHAMFERB
 40
10.0
  9
$CHAMFERC
 40
20.0
  9
$CHAMFERD
 40
0.0
  9
$SKPOLY
 70
     0
  9
$TDCREATE
 40
2455095.679927291
  9
$TDUCREATE
 40
2455095.804927291
  9
$TDUPDATE
 40
2455095.680948345
  9
$TDUUPDATE
 40
2455095.805948345
  9
$TDINDWG
 40
0.0010210532
  9
$TDUSRTIMER
 40
0.0010210532
  9
$USRTIMER
 70
     1
  9
$ANGBASE
 50
0.0
  9
$ANGDIR
 70
     0
  9
$PDMODE
 70
     0
  9
$PDSIZE
 40
0.0
  9
$PLINEWID
 40
0.0
  9
$SPLFRAME
 70
     0
  9
$SPLINETYPE
 70
     6
  9
$SPLINESEGS
 70
     8
  9
$HANDSEED
  5
242
  9
$SURFTAB1
 70
     6
  9
$SURFTAB2
 70
     6
  9
$SURFTYPE
 70
     6
  9
$SURFU
 70
     6
  9
$SURFV
 70
     6
  9
$UCSBASE
  2

  9
$UCSNAME
  2

  9
$UCSORG
 10
0.0
 20
0.0
 30
0.0
  9
$UCSXDIR
 10
1.0
 20
0.0
 30
0.0
  9
$UCSYDIR
 10
0.0
 20
1.0
 30
0.0
  9
$UCSORTHOREF
  2

  9
$UCSORTHOVIEW
 70
     0
  9
$UCSORGTOP
 10
0.0
 20
0.0
 30
0.0
  9
$UCSORGBOTTOM
 10
0.0
 20
0.0
 30
0.0
  9
$UCSORGLEFT
 10
0.0
 20
0.0
 30
0.0
  9
$UCSORGRIGHT
 10
0.0
 20
0.0
 30
0.0
  9
$UCSORGFRONT
 10
0.0
 20
0.0
 30
0.0
  9
$UCSORGBACK
 10
0.0
 20
0.0
 30
0.0
  9
$PUCSBASE
  2

  9
$PUCSNAME
  2

  9
$PUCSORG
 10
0.0
 20
0.0
 30
0.0
  9
$PUCSXDIR
 10
1.0
 20
0.0
 30
0.0
  9
$PUCSYDIR
 10
0.0
 20
1.0
 30
0.0
  9
$PUCSORTHOREF
  2

  9
$PUCSORTHOVIEW
 70
     0
  9
$PUCSORGTOP
 10
0.0
 20
0.0
 30
0.0
  9
$PUCSORGBOTTOM
 10
0.0
 20
0.0
 30
0.0
  9
$PUCSORGLEFT
 10
0.0
 20
0.0
 30
0.0
  9
$PUCSORGRIGHT
 10
0.0
 20
0.0
 30
0.0
  9
$PUCSORGFRONT
 10
0.0
 20
0.0
 30
0.0
  9
$PUCSORGBACK
 10
0.0
 20
0.0
 30
0.0
  9
$USERI1
 70
     0
  9
$USERI2
 70
     0
  9
$USERI3
 70
     0
  9
$USERI4
 70
     0
  9
$USERI5
 70
     0
  9
$USERR1
 40
0.0
  9
$USERR2
 40
0.0
  9
$USERR3
 40
0.0
  9
$USERR4
 40
0.0
  9
$USERR5
 40
0.0
  9
$WORLDVIEW
 70
     1
  9
$SHADEDGE
 70
     3
  9
$SHADEDIF
 70
    70
  9
$TILEMODE
 70
     1
  9
$MAXACTVP
 70
    64
  9
$PINSBASE
 10
0.0
 20
0.0
 30
0.0
  9
$PLIMCHECK
 70
     0
  9
$PEXTMIN
 10
1.000000000000000E+20
 20
1.000000000000000E+20
 30
1.000000000000000E+20
  9
$PEXTMAX
 10
-1.000000000000000E+20
 20
-1.000000000000000E+20
 30
-1.000000000000000E+20
  9
$PLIMMIN
 10
0.0
 20
0.0
  9
$PLIMMAX
 10
420.0
 20
297.0
  9
$UNITMODE
 70
     0
  9
$VISRETAIN
 70
     1
  9
$PLINEGEN
 70
     0
  9
$PSLTSCALE
 70
     1
  9
$TREEDEPTH
 70
  3020
  9
$CMLSTYLE
  2
Standard
  9
$CMLJUST
 70
     0
  9
$CMLSCALE
 40
20.0
  9
$PROXYGRAPHICS
 70
     1
  9
$MEASUREMENT
 70
     1
  9
$CELWEIGHT
370
    -1
  9
$ENDCAPS
280
     0
  9
$JOINSTYLE
280
     0
  9
$LWDISPLAY
290
     0
  9
$INSUNITS
 70
     6
  9
$HYPERLINKBASE
  1

  9
$STYLESHEET
  1

  9
$XEDIT
290
     1
  9
$CEPSNTYPE
380
     0
  9
$PSTYLEMODE
290
     1
  9
$FINGERPRINTGUID
  2
{5CD1389B-6070-4186-8AC7-DB0523CC0EEF}
  9
$VERSIONGUID
  2
{633DF36C-4755-41C1-B099-0097EC220839}
  9
$EXTNAMES
290
     1
  9
$PSVPSCALE
 40
0.0
  9
$OLESTARTUP
290
     0
  0
ENDSEC
  0
SECTION
  2
CLASSES
  0
CLASS
  1
ACDBDICTIONARYWDFLT
  2
AcDbDictionaryWithDefault
  3
AutoCAD 2000
 90
        0
280
     0
281
     0
  0
CLASS
  1
ACDBPLACEHOLDER
  2
AcDbPlaceHolder
  3
AutoCAD 2000
 90
        0
280
     0
281
     0
  0
CLASS
  1
LAYOUT
  2
AcDbLayout
  3
AutoCAD 2000
 90
        0
280
     0
281
     0
  0
CLASS
  1
PLOTSETTINGS
  2
AcDbPlotSettings
  3
AutoCAD 2000
 90
        0
280
     0
281
     0
  0
CLASS
  1
DICTIONARYVAR
  2
AcDbDictionaryVar
  3
AutoCAD 2000
 90
        0
280
     0
281
     0
  0
ENDSEC
  0
SECTION
  2
TABLES
  0
TABLE
  2
VPORT
  5
8
330
0
100
AcDbSymbolTable
 70
     4
  0
VPORT
  5
241
330
8
100
AcDbSymbolTableRecord
100
AcDbViewportTableRecord
  2
*Active
 70
     0
 10
0.0
 20
0.0
 11
1.0
 21
1.0
 12
0.9164436055772286
 22
0.931297821960527
 13
0.0
 23
0.0
 14
10.0
 24
10.0
 15
10.0
 25
10.0
 16
0.0
 26
0.0
 36
1.0
 17
0.0
 27
0.0
 37
0.0
 40
1.946278908066404
 41
2.112280701754385
 42
50.0
 43
0.0
 44
0.0
 50
0.0
 51
0.0
 71
     0
 72
   100
 73
     1
 74
     3
 75
     0
 76
     0
 77
     0
 78
     0
281
     0
 65
     1
110
0.0
120
0.0
130
0.0
111
1.0
121
0.0
131
0.0
112
0.0
122
1.0
132
0.0
 79
     0
146
0.0
  0
ENDTAB
  0
TABLE
  2
LTYPE
  5
5
330
0
100
AcDbSymbolTable
 70
     1
  0
LTYPE
  5
14
330
5
100
AcDbSymbolTableRecord
100
AcDbLinetypeTableRecord
  2
ByBlock
 70
     0
  3

 72
    65
 73
     0
 40
0.0
  0
LTYPE
  5
15
330
5
100
AcDbSymbolTableRecord
100
AcDbLinetypeTableRecord
  2
ByLayer
 70
     0
  3

 72
    65
 73
     0
 40
0.0
  0
LTYPE
  5
16
330
5
100
AcDbSymbolTableRecord
100
AcDbLinetypeTableRecord
  2
Continuous
 70
     0
  3
Solid line
 72
    65
 73
     0
 40
0.0
  0
ENDTAB
  0
TABLE
  2
LAYER
  5
2
102
{ACAD_XDICTIONARY
360
81
102
}
330
0
100
AcDbSymbolTable
 70
     8
  0
LAYER
  5
10
330
2
100
AcDbSymbolTableRecord
100
AcDbLayerTableRecord
  2
0
 70
     0
 62
     7
  6
Continuous
370
    -3
390
F
  0
LAYER
  5
2E
102
{ACAD_XDICTIONARY
360
2F
102
}
330
2
100
AcDbSymbolTableRecord
100
AcDbLayerTableRecord
  2
DEFPOINTS
 70
     0
 62
     7
  6
Continuous
290
     0
370
    -3
390
F
  0
LAYER
  5
31
102
{ACAD_XDICTIONARY
360
32
102
}
330
2
100
AcDbSymbolTableRecord
100
AcDbLayerTableRecord
  2
Inner 3
 70
     0
 62
   140
  6
Continuous
370
    -3
390
F
1001
AcAecLayerStandard
1000

1000

  0
LAYER
  5
34
102
{ACAD_XDICTIONARY
360
35
102
}
330
2
100
AcDbSymbolTableRecord
100
AcDbLayerTableRecord
  2
Floor
 70
     0
 62
     8
  6
Continuous
370
    -3
390
F
1001
AcAecLayerStandard
1000

1000

  0
LAYER
  5
37
102
{ACAD_XDICTIONARY
360
38
102
}
330
2
100
AcDbSymbolTableRecord
100
AcDbLayerTableRecord
  2
Accesories
 70
     0
 62
     8
  6
Continuous
370
    -3
390
F
  0
LAYER
  5
3A
102
{ACAD_XDICTIONARY
360
3B
102
}
330
2
100
AcDbSymbolTableRecord
100
AcDbLayerTableRecord
  2
Inner 2
 70
     0
 62
   150
  6
Continuous
370
    -3
390
F
1001
AcAecLayerStandard
1000

1000

  0
LAYER
  5
3D
102
{ACAD_XDICTIONARY
360
3E
102
}
330
2
100
AcDbSymbolTableRecord
100
AcDbLayerTableRecord
  2
Inner 1
 70
     0
 62
     5
  6
Continuous
370
    -3
390
F
1001
AcAecLayerStandard
1000

1000

  0
LAYER
  5
40
102
{ACAD_XDICTIONARY
360
41
102
}
330
2
100
AcDbSymbolTableRecord
100
AcDbLayerTableRecord
  2
External
 70
     0
 62
     7
  6
Continuous
370
    -3
390
F
1001
AcAecLayerStandard
1000

1000

  0
ENDTAB
  0
TABLE
  2
STYLE
  5
3
330
0
100
AcDbSymbolTable
 70
     1
  0
STYLE
  5
11
330
3
100
AcDbSymbolTableRecord
100
AcDbTextStyleTableRecord
  2
Standard
 70
     0
 40
0.0
 41
1.0
 50
0.0
 71
     0
 42
2.5
  3
txt
  4

  0
ENDTAB
  0
TABLE
  2
VIEW
  5
6
330
0
100
AcDbSymbolTable
 70
     0
  0
ENDTAB
  0
TABLE
  2
UCS
  5
7
330
0
100
AcDbSymbolTable
 70
     0
  0
ENDTAB
  0
TABLE
  2
APPID
  5
9
330
0
100
AcDbSymbolTable
 70
    26
  0
APPID
  5
12
330
9
100
AcDbSymbolTableRecord
100
AcDbRegAppTableRecord
  2
ACAD
 70
     0
  0
APPID
  5
44
330
9
100
AcDbSymbolTableRecord
100
AcDbRegAppTableRecord
  2
SI-MECH
 70
     0
  0
APPID
  5
45
330
9
100
AcDbSymbolTableRecord
100
AcDbRegAppTableRecord
  2
DPVAR
 70
     0
  0
APPID
  5
46
330
9
100
AcDbSymbolTableRecord
100
AcDbRegAppTableRecord
  2
ACAD_PSEXT
 70
     0
  0
APPID
  5
47
330
9
100
AcDbSymbolTableRecord
100
AcDbRegAppTableRecord
  2
ACAD_DSTYLE_DIMTEXT_FILL
 70
     0
  0
APPID
  5
48
330
9
100
AcDbSymbolTableRecord
100
AcDbRegAppTableRecord
  2
MCAD_NO_VIS
 70
     0
  0
APPID
  5
49
330
9
100
AcDbSymbolTableRecord
100
AcDbRegAppTableRecord
  2
ACAD_TEMP_GRAPHIC
 70
     0
  0
APPID
  5
4A
330
9
100
AcDbSymbolTableRecord
100
AcDbRegAppTableRecord
  2
AD_DRAW
 70
     0
  0
APPID
  5
4B
330
9
100
AcDbSymbolTableRecord
100
AcDbRegAppTableRecord
  2
ACATTRIBSERVICES
 70
     0
  0
APPID
  5
4C
330
9
100
AcDbSymbolTableRecord
100
AcDbRegAppTableRecord
  2
DESIGNERASSEMBLIES
 70
     0
  0
APPID
  5
4D
330
9
100
AcDbSymbolTableRecord
100
AcDbRegAppTableRecord
  2
ACADM_DIM_EDIT
 70
     0
  0
APPID
  5
4E
330
9
100
AcDbSymbolTableRecord
100
AcDbRegAppTableRecord
  2
AMDT_DM_ADJ
 70
     0
  0
APPID
  5
4F
330
9
100
AcDbSymbolTableRecord
100
AcDbRegAppTableRecord
  2
GEVID1105056944
 70
     0
  0
APPID
  5
50
330
9
100
AcDbSymbolTableRecord
100
AcDbRegAppTableRecord
  2
GEVDC
 70
     0
  0
APPID
  5
51
330
9
100
AcDbSymbolTableRecord
100
AcDbRegAppTableRecord
  2
GENIUS_GENBH_13
 70
     0
  0
APPID
  5
52
330
9
100
AcDbSymbolTableRecord
100
AcDbRegAppTableRecord
  2
GENIUS_GENODEF_13
 70
     0
  0
APPID
  5
53
330
9
100
AcDbSymbolTableRecord
100
AcDbRegAppTableRecord
  2
GENIUS_GENOBJ-NBEHI-BHF_13
 70
     0
  0
APPID
  5
54
330
9
100
AcDbSymbolTableRecord
100
AcDbRegAppTableRecord
  2
GENIUS_GENOENT_13
 70
     0
  0
APPID
  5
55
330
9
100
AcDbSymbolTableRecord
100
AcDbRegAppTableRecord
  2
GENIUS_GENOLIS_13
 70
     0
  0
APPID
  5
56
330
9
100
AcDbSymbolTableRecord
100
AcDbRegAppTableRecord
  2
GENIUS_GENOREF_13
 70
     0
  0
APPID
  5
57
330
9
100
AcDbSymbolTableRecord
100
AcDbRegAppTableRecord
  2
GENIUS_GENOBJ-NBEHI-BHB_13
 70
     0
  0
APPID
  5
58
330
9
100
AcDbSymbolTableRecord
100
AcDbRegAppTableRecord
  2
GENIUS_GENCFG_13
 70
     0
1001
GENIUS_GENCFG0_13
1000
GEN
  0
APPID
  5
59
330
9
100
AcDbSymbolTableRecord
100
AcDbRegAppTableRecord
  2
GENIUS_GENCFG0_13
 70
     0
1001
GENIUS_GENCFG_13
1071
1112661437
1000
9A
1000
GEN
1070
     0
  0
APPID
  5
5A
330
9
100
AcDbSymbolTableRecord
100
AcDbRegAppTableRecord
  2
AcAecLayerStandard
 70
     0
  0
APPID
  5
5B
330
9
100
AcDbSymbolTableRecord
100
AcDbRegAppTableRecord
  2
ACAD_EXEMPT_FROM_CAD_STANDARDS
 70
     0
  0
APPID
  5
5C
330
9
100
AcDbSymbolTableRecord
100
AcDbRegAppTableRecord
  2
ACAD_DSTYLE_DIMJOGGED_JOGANGLE_SYMBOL
 70
     0
  0
ENDTAB
  0
TABLE
  2
DIMSTYLE
  5
A
330
0
100
AcDbSymbolTable
 70
     2
100
AcDbDimStyleTable
 71
     0
  0
DIMSTYLE
105
27
330
A
100
AcDbSymbolTableRecord
100
AcDbDimStyleTableRecord
  2
ISO-25
 70
     0
 41
2.5
 42
0.625
 43
3.75
 44
1.25
 73
     0
 74
     0
 77
     1
 78
     8
140
2.5
141
2.5
143
0.03937007874016
147
0.625
171
     3
172
     1
271
     2
272
     2
274
     3
278
    44
283
     0
284
     8
340
11
  0
DIMSTYLE
105
43
330
A
100
AcDbSymbolTableRecord
100
AcDbDimStyleTableRecord
  2
STANDARD
 70
     0
 42
0.06
 44
0.12
140
0.12
141
0.06
144
-1.0
147
1.75
340
11
  0
ENDTAB
  0
TABLE
  2
BLOCK_RECORD
  5
1
330
0
100
AcDbSymbolTable
 70
     3
  0
BLOCK_RECORD
  5
1F
330
1
100
AcDbSymbolTableRecord
100
AcDbBlockTableRecord
  2
*Model_Space
340
22
  0
BLOCK_RECORD
  5
1B
330
1
100
AcDbSymbolTableRecord
100
AcDbBlockTableRecord
  2
*Paper_Space
340
1E
  0
BLOCK_RECORD
  5
23
330
1
100
AcDbSymbolTableRecord
100
AcDbBlockTableRecord
  2
*Paper_Space0
340
26
  0
BLOCK_RECORD
  5
2B
330
1
100
AcDbSymbolTableRecord
100
AcDbBlockTableRecord
  2
*U1
340
0
102
{BLKREFS
331
84
331
162
102
}
  0
ENDTAB
  0
ENDSEC
  0
SECTION
  2
BLOCKS
  0
BLOCK
  5
20
330
1F
100
AcDbEntity
  8
0
100
AcDbBlockBegin
  2
*Model_Space
 70
     0
 10
0.0
 20
0.0
 30
0.0
  3
*Model_Space
  1

  0
ENDBLK
  5
21
330
1F
100
AcDbEntity
  8
0
100
AcDbBlockEnd
  0
BLOCK
  5
1C
330
1B
100
AcDbEntity
 67
     1
  8
0
100
AcDbBlockBegin
  2
*Paper_Space
 70
     0
 10
0.0
 20
0.0
 30
0.0
  3
*Paper_Space
  1

  0
ENDBLK
  5
1D
330
1B
100
AcDbEntity
 67
     1
  8
0
100
AcDbBlockEnd
  0
BLOCK
  5
24
330
23
100
AcDbEntity
  8
0
100
AcDbBlockBegin
  2
*Paper_Space0
 70
     0
 10
0.0
 20
0.0
 30
0.0
  3
*Paper_Space0
  1

  0
ENDBLK
  5
25
330
23
100
AcDbEntity
  8
0
100
AcDbBlockEnd
  0
BLOCK
  5
2C
330
2B
100
AcDbEntity
  8
0
100
AcDbBlockBegin
  2
*U1
 70
     1
 10
0.0
 20
0.0
 30
0.0
  3
*U1
  1
*XXX
  0
ENDBLK
  5
2D
330
2B
100
AcDbEntity
  8
0
100
AcDbBlockEnd
  0
ENDSEC
  0
SECTION
  2
ENTITIES
  0
INSERT
  5
162
330
1F
100
AcDbEntity
  8
0
100
AcDbBlockReference
  2
*U1
 10
-883.921516587462
 20
-832.0119033028632
 30
0.0
 41
25.4
 42
25.4
 43
25.4
1001
DPVAR
1002
{
1002
{
1000
ALTFMT
1000
ALT
1002
}
1002
{
1000
APPID
1000
SI-MECH
1002
}
1002
{
1000
APPVER
1040
5.2
1002
}
1002
{
1000
BALLBLK
1000
BALL-STD
1002
}
1002
{
1000
BALLTAG
1070
     0
1002
}
1002
{
1000
BLKCHK
1000

1002
}
1002
{
1000
CLIPHID
1070
     0
1002
}
1002
{
1000
DBWRITE
1070
     2
1002
}
1002
{
1000
DRILLANG
1040
118.0
1002
}
1002
{
1000
DRILLDIST
1040
1.0
1002
}
1002
{
1000
DRILLM
1070
     0
1002
}
1002
{
1000
DWGSCALE
1040
1.0
1002
}
1002
{
1000
FMTSUPPL
1070
     1
1002
}
1002
{
1000
FORMAT
1000
ASM0000B
1002
}
1002
{
1000
FULLTHD
1070
     0
1002
}
1002
{
1000
GEODAT
1000
A
1002
}
1002
{
1000
GEOPTS
1040
1.0
1002
}
1002
{
1000
GEOSYM
1000
POS
1002
}
1002
{
1000
GEOTGT
1000
A1
1002
}
1002
{
1000
GEOTOL
1040
0.005
1002
}
1002
{
1000
GEOTSZ
1040
0.0
1002
}
1002
{
1000
HDWCAT
1000
STRUCTURAL STEEL
1002
}
1002
{
1000
HDWCSKH
1070
     0
1002
}
1002
{
1000
HDWGROUP
1000
HARDWARE
1002
}
1002
{
1000
HDWLG
1040
0.0
1002
}
1002
{
1000
HDWPEME
1070
     0
1002
}
1002
{
1000
HDWSTD
1000
ANSI
1002
}
1002
{
1000
HDWTYPE
1000
C SHAPE
1002
}
1002
{
1000
HOLEEANG
1040
0.0
1002
}
1002
{
1000
HOLESTART
1070
     0
1002
}
1002
{
1000
HOLETYPE
1000
IN-STD
1002
}
1002
{
1000
ITEMALTD
1070
     0
1002
}
1002
{
1000
ITEMCLRH
1070
     1
1002
}
1002
{
1000
ITEMCLYR
1070
     0
1002
}
1002
{
1000
ITEMCTRL
1070
     0
1002
}
1002
{
1000
ITEMCTRM
1070
     0
1002
}
1002
{
1000
ITEMDSPL
1070
     3
1002
}
1002
{
1000
ITEMGEN
1070
     1
1002
}
1002
{
1000
ITEMHIDLIN
1070
     0
1002
}
1002
{
1000
ITEMLTYPEH
1000
HIDDEN
1002
}
1002
{
1000
ITEMSIZE
1000
15 X 50
1002
}
1002
{
1000
ITEMTAND
1070
     0
1002
}
1002
{
1000
ITEMVIEW
1070
     0
1002
}
1002
{
1000
LYRDEF
1000
LYRDEF
1002
}
1002
{
1000
LYRMAP
1000
LYRMAP
1002
}
1002
{
1000
SFTHDW
1070
     0
1002
}
1002
{
1000
SHTSET
1070
     7
1002
}
1002
{
1000
STANDARD
1000
ASME-IN
1002
}
1002
{
1000
SURFAREA
1070
     0
1002
}
1002
{
1000
SURFLAY
1000

1002
}
1002
{
1000
SURFMAT
1040
0.0
1002
}
1002
{
1000
SURFMAXR
1040
63.0
1002
}
1002
{
1000
SURFMINR
1040
0.0
1002
}
1002
{
1000
SURFSPEC
1000

1002
}
1002
{
1000
SURFTYPE
1000

1002
}
1002
{
1000
SURFWAVH
1040
0.0
1002
}
1002
{
1000
SURFWAVW
1040
0.0
1002
}
1002
{
1000
SURFWIDC
1040
0.0
1002
}
1002
{
1000
SURFWIDM
1040
0.0
1002
}
1002
{
1000
TAPDIST
1040
0.0
1002
}
1002
{
1000
THREAD
1070
     0
1002
}
1002
{
1000
TOOTHMAX
1070
     3
1002
}
1002
{
1000
TOOTHSEG
1070
     1
1002
}
1002
{
1000
UNIT
1000
IN
1002
}
1002
{
1000
WELDALL
1070
     0
1002
}
1002
{
1000
WELDANG
1070
     0
1002
}
1002
{
1000
WELDBACK
1070
     0
1002
}
1002
{
1000
WELDCON
1000

1002
}
1002
{
1000
WELDFIN
1000

1002
}
1002
{
1000
WELDFLD
1070
     0
1002
}
1002
{
1000
WELDLG
1040
0.0
1002
}
1002
{
1000
WELDMELT
1070
     0
1002
}
1002
{
1000
WELDNUM
1070
     0
1002
}
1002
{
1000
WELDOPP
1000

1002
}
1002
{
1000
WELDPIT
1040
0.0
1002
}
1002
{
1000
WELDROOT
1040
0.0
1002
}
1002
{
1000
WELDSIZE
1040
0.3125
1002
}
1002
{
1000
WELDSPEC
1000

1002
}
1002
{
1000
WELDSYM
1000
FIL
1002
}
1002
{
1000
WELDTHRT
1040
0.0
1002
}
1002
{
1000
XLINEO
1070
     3
1002
}
1002
{
1000
XYMINUS
1070
     0
1002
}
1002
{
1000
ZPOINT
1070
     0
1002
}
1002
}
  0
LINE
  5
163
330
1F
100
AcDbEntity
  8
External
100
AcDbLine
 10
0.0
 20
1.875853261778907
 30
0.0
 11
1.822408488777682
 21
1.875853261778907
 31
0.0
  0
ARC
  5
164
330
1F
100
AcDbEntity
  8
External
100
AcDbCircle
 10
1.822408488777682
 20
1.787092034252182
 30
0.0
 40
0.08876122752672
100
AcDbArc
 50
0.0
 51
90.0
  0
LINE
  5
165
330
1F
100
AcDbEntity
  8
External
100
AcDbLine
 10
1.911169716304357
 20
1.787092034252182
 30
0.0
 11
1.911169716304357
 21
0.0887612275267174
 31
0.0
  0
ARC
  5
166
330
1F
100
AcDbEntity
  8
External
100
AcDbCircle
 10
1.822408488777682
 20
0.0887612275267174
 30
0.0
 40
0.08876122752672
100
AcDbArc
 50
270.0
 51
0.0
  0
LINE
  5
167
330
1F
100
AcDbEntity
  8
External
100
AcDbLine
 10
1.822408488777682
 20
0.0
 30
0.0
 11
0.0
 21
0.0
 31
0.0
  0
LINE
  5
168
330
1F
100
AcDbEntity
  8
External
100
AcDbLine
 10
-0.0887612275266747
 20
0.0887612275267174
 30
0.0
 11
-0.0887612275266747
 21
1.787092034252182
 31
0.0
  0
ARC
  5
169
330
1F
100
AcDbEntity
  8
External
100
AcDbCircle
 10
0.0
 20
1.787092034252182
 30
0.0
 40
0.08876122752672
100
AcDbArc
 50
90.0
 51
180.0
  0
ARC
  5
16A
330
1F
100
AcDbEntity
  8
External
100
AcDbCircle
 10
0.0
 20
0.0887612275267174
 30
0.0
 40
0.08876122752672
100
AcDbArc
 50
180.0
 51
270.0
  0
LINE
  5
16B
330
1F
100
AcDbEntity
  8
Inner 1
100
AcDbLine
 10
0.0706051448410108
 20
1.75271191270869
 30
0.0
 11
1.735376801637585
 21
1.75271191270869
 31
0.0
  0
ARC
  5
16C
330
1F
100
AcDbEntity
  8
Inner 1
100
AcDbCircle
 10
1.735376801637585
 20
1.708331298945331
 30
0.0
 40
0.04438061376336
100
AcDbArc
 50
0.0
 51
90.0
  0
LINE
  5
16D
330
1F
100
AcDbEntity
  8
Inner 1
100
AcDbLine
 10
1.779757415401036
 20
1.708331298945331
 30
0.0
 11
1.779757415401036
 21
0.2085690716858934
 31
0.0
  0
LINE
  5
16E
330
1F
100
AcDbEntity
  8
Inner 1
100
AcDbLine
 10
1.735376801637585
 20
0.1641884579225348
 30
0.0
 11
0.9730622668232626
 21
0.1641884579225348
 31
0.0
  0
ARC
  5
16F
330
1F
100
AcDbEntity
  8
Inner 1
100
AcDbCircle
 10
1.735376801637585
 20
0.2085690716858934
 30
0.0
 40
0.04438061376336
100
AcDbArc
 50
270.0
 51
0.0
  0
LINE
  5
170
330
1F
100
AcDbEntity
  8
Inner 1
100
AcDbLine
 10
0.0262245310775597
 20
0.1457321968947483
 30
0.0
 11
0.0262245310775597
 21
1.708331298945331
 31
0.0
  0
ARC
  5
171
330
1F
100
AcDbEntity
  8
Inner 1
100
AcDbCircle
 10
0.0706051448410108
 20
0.1457321968947483
 30
0.0
 40
0.04438061376336
100
AcDbArc
 50
180.0
 51
270.0
  0
ARC
  5
172
330
1F
100
AcDbEntity
  8
Inner 1
100
AcDbCircle
 10
0.0706051448410108
 20
1.708331298945331
 30
0.0
 40
0.04438061376336
100
AcDbArc
 50
90.0
 51
180.0
  0
LINE
  5
173
330
1F
100
AcDbEntity
  8
Inner 3
100
AcDbLine
 10
0.8075246740834245
 20
1.227733118153651
 30
0.0
 11
1.01488381469403
 21
1.227733118153651
 31
0.0
  0
ARC
  5
174
330
1F
100
AcDbEntity
  8
Inner 3
100
AcDbCircle
 10
0.8075246740834245
 20
1.272113731917009
 30
0.0
 40
0.04438061376336
100
AcDbArc
 50
202.02682534649
 51
270.0
  0
LINE
  5
175
330
1F
100
AcDbEntity
  8
Inner 3
100
AcDbLine
 10
1.04249644827837
 20
0.5888370269852601
 30
0.0
 11
0.7740685317198768
 21
0.5888370269852601
 31
0.0
  0
ARC
  5
176
330
1F
100
AcDbEntity
  8
Inner 3
100
AcDbCircle
 10
0.7759142347081252
 20
0.5356665747882943
 30
0.0
 40
0.0532024774456133
100
AcDbArc
 50
91.98810695127056
 51
138.6807737453038
  0
ARC
  5
177
330
1F
100
AcDbEntity
  8
Inner 3
100
AcDbCircle
 10
0.7778718419767757
 20
0.639465208117521
 30
0.0
 40
0.0506490667143324
100
AcDbArc
 50
216.7178667557121
 51
268.3545294086747
  0
LINE
  5
178
330
1F
100
AcDbEntity
  8
Inner 3
100
AcDbLine
 10
0.7317994193615505
 20
0.618425725391198
 30
0.0
 11
0.6198173144239263
 21
0.763934325231638
 31
0.0
  0
ARC
  5
179
330
1F
100
AcDbEntity
  8
Inner 3
100
AcDbCircle
 10
0.6966284035784156
 20
0.5913584291317307
 30
0.0
 40
0.04438061376336
100
AcDbArc
 50
317.4350439039453
 51
37.58155575211938
  0
ARC
  5
17A
330
1F
100
AcDbEntity
  8
Inner 3
100
AcDbCircle
 10
0.6549883302070612
 20
0.7910016214910982
 30
0.0
 40
0.04438061376336
100
AcDbArc
 50
180.0
 51
217.5815557521193
  0
LINE
  5
17B
330
1F
100
AcDbEntity
  8
Inner 3
100
AcDbLine
 10
0.6106077164438375
 20
0.7910016214910982
 30
0.0
 11
0.6106077164438375
 21
1.009061719870238
 31
0.0
  0
ARC
  5
17C
330
1F
100
AcDbEntity
  8
Inner 3
100
AcDbCircle
 10
0.6667407504448875
 20
1.024242445187475
 30
0.0
 40
0.0581363703830369
100
AcDbArc
 50
135.0976436870418
 51
182.0922087968538
  0
LINE
  5
17D
330
1F
100
AcDbEntity
  8
Inner 3
100
AcDbLine
 10
0.6255621309730941
 20
1.06528094978637
 30
0.0
 11
0.7582357766007135
 21
1.207038114076915
 31
0.0
  0
ARC
  5
17E
330
1F
100
AcDbEntity
  8
Inner 3
100
AcDbCircle
 10
0.5931593205086756
 20
1.095607452255627
 30
0.0
 40
0.04438061376336
100
AcDbArc
 50
264.3986910148291
 51
316.8957687172891
  0
ARC
  5
17F
330
1F
100
AcDbEntity
  8
Inner 3
100
AcDbCircle
 10
0.799532143055103
 20
1.177726060504326
 30
0.0
 40
0.0506417452995152
100
AcDbArc
 50
89.40041411665948
 51
137.4063542674607
  0
ARC
  5
180
330
1F
100
AcDbEntity
  8
Inner 2
100
AcDbCircle
 10
0.8911407612656603
 20
1.309535645127752
 30
0.0
 40
0.4431721511108048
100
AcDbArc
 50
51.58829280589214
 51
120.6992805444696
  0
ARC
  5
181
330
1F
100
AcDbEntity
  8
Inner 2
100
AcDbCircle
 10
1.391192751200605
 20
1.419237399084842
 30
0.0
 40
0.3086894578963526
100
AcDbArc
 50
62.51486085807786
 51
129.6017797622702
  0
ARC
  5
182
330
1F
100
AcDbEntity
  8
Inner 2
100
AcDbCircle
 10
1.180274132139629
 20
1.674178088016539
 30
0.0
 40
0.02219030688168
100
AcDbArc
 50
231.5882928058921
 51
309.6017797622702
  0
ARC
  5
183
330
1F
100
AcDbEntity
  8
Inner 2
100
AcDbCircle
 10
1.442175617643442
 20
0.509471241976911
 30
0.0
 40
0.3151958688047441
100
AcDbArc
 50
277.5515408777176
 51
289.7470265987982
  0
ARC
  5
184
330
1F
100
AcDbEntity
  8
Accesories
100
AcDbCircle
 10
1.284403470818915
 20
0.1443871584685326
 30
0.0
 40
0.0611564939027523
100
AcDbArc
 50
170.4650570389451
 51
5.993664739700285
  0
ELLIPSE
  5
185
330
1F
100
AcDbEntity
  8
Accesories
100
AcDbEllipse
 10
1.593015649722474
 20
0.9555337879209773
 30
0.0
 11
0.0045104517092411
 21
-0.0396734304432456
 31
0.0
210
0.0
220
0.0
230
1.0
 40
0.7154253101643019
 41
0.0
 42
6.283185307179586
  0
ELLIPSE
  5
186
330
1F
100
AcDbEntity
  8
Accesories
100
AcDbEllipse
 10
1.592290737622533
 20
0.9541191466925695
 30
0.0
 11
0.0028189151641724
 21
-0.0256898338279659
 31
0.0
210
0.0
220
0.0
230
1.0
 40
0.4557493393331369
 41
0.0
 42
6.283185307179586
  0
ELLIPSE
  5
187
330
1F
100
AcDbEntity
  8
Accesories
100
AcDbEllipse
 10
1.679119191756626
 20
0.8638444209568589
 30
0.0
 11
0.0
 21
0.0358746045428346
 31
0.0
210
0.0
220
0.0
230
1.0
 40
0.6996535358372466
 41
0.0
 42
6.283185307179586
  0
ELLIPSE
  5
188
330
1F
100
AcDbEntity
  8
Accesories
100
AcDbEllipse
 10
1.679119191756626
 20
0.862592978122123
 30
0.0
 11
0.0
 21
0.021274483164046
 31
0.0
210
0.0
220
0.0
230
1.0
 40
0.6229040658899156
 41
0.0
 42
6.283185307179586
  0
ELLIPSE
  5
189
330
1F
100
AcDbEntity
  8
Accesories
100
AcDbEllipse
 10
1.597946187928073
 20
0.7841694185078083
 30
0.0
 11
0.0031300764616805
 21
0.0396289217904255
 31
0.0
210
0.0
220
0.0
230
1.0
 40
0.7137823042741652
 41
0.0
 42
6.283185307179586
  0
ELLIPSE
  5
18A
330
1F
100
AcDbEntity
  8
Accesories
100
AcDbEllipse
 10
1.598363537704472
 20
0.7850037137309727
 30
0.0
 11
0.0027127266852357
 21
0.0250288004116369
 31
0.0
210
0.0
220
0.0
230
1.0
 40
0.5799369419308622
 41
0.0
 42
6.283185307179586
  0
LINE
  5
18B
330
1F
100
AcDbEntity
  8
Inner 2
100
AcDbLine
 10
1.659230736342124
 20
1.463465532057277
 30
0.0
 11
1.712413263142934
 21
1.486780276557574
 31
0.0
  0
LINE
  5
18C
330
1F
100
AcDbEntity
  8
Inner 2
100
AcDbLine
 10
1.712413263142934
 20
1.486780276557574
 30
0.0
 11
1.733872858173981
 21
1.486780276557574
 31
0.0
  0
ARC
  5
18D
330
1F
100
AcDbEntity
  8
Inner 2
100
AcDbCircle
 10
1.467900659175029
 20
1.446157668545872
 30
0.0
 40
0.2690565125061359
100
AcDbArc
 50
8.68382143096597
 51
74.91186732016555
  0
LINE
  5
18E
330
1F
100
AcDbEntity
  8
Inner 2
100
AcDbLine
 10
1.537937288365583
 20
1.705938879362953
 30
0.0
 11
1.532297208678528
 21
1.688995265972742
 31
0.0
  0
LINE
  5
18F
330
1F
100
AcDbEntity
  8
Inner 2
100
AcDbLine
 10
1.532297208678528
 20
1.688995265972742
 30
0.0
 11
1.495316475745539
 21
1.642389213243063
 31
0.0
  0
LINE
  5
190
330
1F
100
AcDbEntity
  8
Inner 2
100
AcDbLine
 10
1.495316475745539
 20
1.642389213243063
 30
0.0
 11
1.527473646227463
 21
1.610889942100428
 31
0.0
  0
LINE
  5
191
330
1F
100
AcDbEntity
  8
Inner 2
100
AcDbLine
 10
1.659230736342124
 20
1.463465532057277
 30
0.0
 11
1.630376599267265
 21
1.49389265571726
 31
0.0
  0
ARC
  5
192
330
1F
100
AcDbEntity
  8
Inner 2
100
AcDbCircle
 10
1.531219755484698
 20
1.510432862786579
 30
0.0
 40
0.1005269024631486
100
AcDbArc
 50
350.5297696421915
 51
92.13560700035742
  0
ELLIPSE
  5
193
330
1F
100
AcDbEntity
  8
Accesories
100
AcDbEllipse
 10
1.501045667529524
 20
1.571862528750074
 30
0.0
 11
0.0329123926912929
 21
-0.0231413363574778
 31
0.0
210
0.0
220
0.0
230
1.0
 40
0.6761039238097092
 41
0.0
 42
6.283185307179586
  0
ELLIPSE
  5
194
330
1F
100
AcDbEntity
  8
Accesories
100
AcDbEllipse
 10
1.501045667529524
 20
1.571862528750074
 30
0.0
 11
0.0204283764995183
 21
-0.012931913657361
 31
0.0
210
0.0
220
0.0
230
1.0
 40
0.6300362149882468
 41
0.0
 42
6.283185307179586
  0
ELLIPSE
  5
195
330
1F
100
AcDbEntity
  8
Accesories
100
AcDbEllipse
 10
1.46088443500912
 20
1.530113018423982
 30
0.0
 11
0.0285641010052252
 21
-0.0217699317844778
 31
0.0
210
0.0
220
0.0
230
1.0
 40
0.7126783563109972
 41
0.0
 42
6.283185307179586
  0
ELLIPSE
  5
196
330
1F
100
AcDbEntity
  8
Accesories
100
AcDbEllipse
 10
1.46088443500912
 20
1.530113018423982
 30
0.0
 11
0.0185666759629563
 21
-0.0139184883583469
 31
0.0
210
0.0
220
0.0
230
1.0
 40
0.6924237281803567
 41
0.0
 42
6.283185307179586
  0
ELLIPSE
  5
197
330
1F
100
AcDbEntity
  8
Accesories
100
AcDbEllipse
 10
1.404648853540038
 20
1.500134752257977
 30
0.0
 11
-0.03017081797974
 21
0.0274800857613003
 31
0.0
210
0.0
220
0.0
230
1.0
 40
0.6525394780959104
 41
0.0
 42
6.283185307179586
  0
ELLIPSE
  5
198
330
1F
100
AcDbEntity
  8
Accesories
100
AcDbEllipse
 10
1.404648853540038
 20
1.500134752257977
 30
0.0
 11
0.0176740554215644
 21
-0.0178441988147995
 31
0.0
210
0.0
220
0.0
230
1.0
 40
0.6012623839265017
 41
0.0
 42
6.283185307179586
  0
LINE
  5
199
330
1F
100
AcDbEntity
  8
Inner 3
100
AcDbLine
 10
1.057963460216114
 20
0.351752648681483
 30
0.0
 11
0.9830640888840207
 21
0.3517526486814759
 31
0.0
  0
LINE
  5
19A
330
1F
100
AcDbEntity
  8
Inner 3
100
AcDbLine
 10
0.7293152114998521
 20
0.5613382448231548
 30
0.0
 11
0.6354707037723984
 21
0.4591577462947356
 31
0.0
  0
ARC
  5
19B
330
1F
100
AcDbEntity
  8
Inner 3
100
AcDbCircle
 10
0.7619141943155228
 20
0.2723400467737562
 30
0.0
 40
0.2255854808161775
100
AcDbArc
 50
23.07318986540244
 51
124.0912506253861
  0
ARC
  5
19C
330
1F
100
AcDbEntity
  8
Inner 3
100
AcDbCircle
 10
0.9830640888840207
 20
0.3665461866025979
 30
0.0
 40
0.01479353792112
100
AcDbArc
 50
203.0731898654024
 51
270.0
  0
LINE
  5
19D
330
1F
100
AcDbEntity
  8
Inner 3
100
AcDbLine
 10
0.7663834738511924
 20
1.255469197634582
 30
0.0
 11
0.6760221812960481
 21
1.478820116750831
 31
0.0
  0
ARC
  5
19E
330
1F
100
AcDbEntity
  8
Inner 3
100
AcDbCircle
 10
0.725832966136295
 20
1.237364616546173
 30
0.0
 40
0.04438061376336
100
AcDbArc
 50
316.8957687172891
 51
22.02682534649003
  0
LINE
  5
19F
330
1F
100
AcDbEntity
  8
Inner 3
100
AcDbLine
 10
0.5888275224401696
 20
1.051438748363558
 30
0.0
 11
0.3349911237389733
 21
1.076333479807885
 31
0.0
  0
ARC
  5
1A0
330
1F
100
AcDbEntity
  8
Inner 3
100
AcDbCircle
 10
0.5662271026803865
 20
1.009061719870238
 30
0.0
 40
0.04438061376336
100
AcDbArc
 50
0.0
 51
84.3986910148291
  0
ARC
  5
1A1
330
1F
100
AcDbEntity
  8
Inner 3
100
AcDbCircle
 10
0.5992753630707739
 20
1.37431327715673
 30
0.0
 40
0.1296601466513197
100
AcDbArc
 50
53.70750992415517
 51
112.9309664134068
  0
ARC
  5
1A2
330
1F
100
AcDbEntity
  8
Inner 3
100
AcDbCircle
 10
0.4306557367870028
 20
1.175687680210586
 30
0.0
 40
0.1379238026132038
100
AcDbArc
 50
161.0692480423422
 51
226.0838573088225
  0
ARC
  5
1A3
330
1F
100
AcDbEntity
  8
Inner 3
100
AcDbCircle
 10
0.7733641094773703
 20
1.039759401202196
 30
0.0
 40
0.506492824401385
100
AcDbArc
 50
116.3245811068236
 51
159.1013327691128
  0
ARC
  5
1A4
330
1F
100
AcDbEntity
  8
Inner 3
100
AcDbCircle
 10
0.5843367992224558
 20
0.6604940599395519
 30
0.0
 40
0.2077281574235919
100
AcDbArc
 50
224.4969143497988
 51
284.2502659519991
  0
ARC
  5
1A5
330
1F
100
AcDbEntity
  8
Inner 3
100
AcDbCircle
 10
0.7787586446399928
 20
0.8664736082512334
 30
0.0
 40
0.4908877451070094
100
AcDbArc
 50
154.6902997208826
 51
225.741020561856
  0
ELLIPSE
  5
1A6
330
1F
100
AcDbEntity
  8
Accesories
100
AcDbEllipse
 10
0.9693516512293172
 20
1.704404860415358
 30
0.0
 11
0.0390029064735391
 21
-0.0071018542253473
 31
0.0
210
0.0
220
0.0
230
1.0
 40
0.6365175734145038
 41
0.0
 42
6.283185307179586
  0
ELLIPSE
  5
1A7
330
1F
100
AcDbEntity
  8
Accesories
100
AcDbEllipse
 10
0.9693516512293172
 20
1.704404860415358
 30
0.0
 11
0.0244901936006579
 21
-0.0049863987057876
 31
0.0
210
0.0
220
0.0
230
1.0
 40
0.5259942651123604
 41
0.0
 42
6.283185307179586
  0
ELLIPSE
  5
1A8
330
1F
100
AcDbEntity
  8
Accesories
100
AcDbEllipse
 10
0.8098630227714238
 20
1.708484662664531
 30
0.0
 11
0.0388517308190576
 21
0.0090662009549642
 31
0.0
210
0.0
220
0.0
230
1.0
 40
0.6005648186301999
 41
0.0
 42
6.283185307179586
  0
ELLIPSE
  5
1A9
330
1F
100
AcDbEntity
  8
Accesories
100
AcDbEllipse
 10
0.8098630227714238
 20
1.708484662664531
 30
0.0
 11
0.0213155423458805
 21
0.0051375074957305
 31
0.0
210
0.0
220
0.0
230
1.0
 40
0.5702212320109006
 41
0.0
 42
6.283185307179586
  0
ELLIPSE
  5
1AA
330
1F
100
AcDbEntity
  8
Accesories
100
AcDbEllipse
 10
0.8110724092625787
 20
1.635199567358171
 30
0.0
 11
0.0370376417099499
 21
0.0037775846692857
 31
0.0
210
0.0
220
0.0
230
1.0
 40
0.5695985625531561
 41
0.0
 42
6.283185307179586
  0
ELLIPSE
  5
1AB
330
1F
100
AcDbEntity
  8
Accesories
100
AcDbEllipse
 10
0.8110724092625787
 20
1.635199567358171
 30
0.0
 11
-0.0199810915066812
 21
-0.0019967882919388
 31
0.0
210
0.0
220
0.0
230
1.0
 40
0.5215487567672329
 41
0.0
 42
6.283185307179586
  0
ELLIPSE
  5
1AC
330
1F
100
AcDbEntity
  8
Accesories
100
AcDbEllipse
 10
0.9639195997397109
 20
1.633439167965882
 30
0.0
 11
0.0360134336800895
 21
-0.005999437706917
 31
0.0
210
0.0
220
0.0
230
1.0
 40
0.6785256759831383
 41
0.0
 42
6.283185307179586
  0
ELLIPSE
  5
1AD
330
1F
100
AcDbEntity
  8
Accesories
100
AcDbEllipse
 10
0.9639195997397109
 20
1.633439167965882
 30
0.0
 11
-0.0189403881791239
 21
0.0038663093029527
 31
0.0
210
0.0
220
0.0
230
1.0
 40
0.5724290257434369
 41
0.0
 42
6.283185307179586
  0
ARC
  5
1AE
330
1F
100
AcDbEntity
  8
Inner 2
100
AcDbCircle
 10
0.5980884185250944
 20
1.957141515791114
 30
0.0
 40
0.2747833336050103
100
AcDbArc
 50
250.7858507848943
 51
284.0693401064811
  0
ARC
  5
1AF
330
1F
100
AcDbEntity
  8
Inner 2
100
AcDbCircle
 10
0.4173099915301464
 20
1.444573986898184
 30
0.0
 40
0.2687334491434194
100
AcDbArc
 50
70.35468076541618
 51
117.1880307921769
  0
LINE
  5
1B0
330
1F
100
AcDbEntity
  8
Inner 2
100
AcDbLine
 10
0.3126863696370492
 20
1.625662537323044
 30
0.0
 11
0.2945224226184564
 21
1.683615572421018
 31
0.0
  0
LINE
  5
1B1
330
1F
100
AcDbEntity
  8
Inner 2
100
AcDbLine
 10
0.3126863696370492
 20
1.625662537323044
 30
0.0
 11
0.2897464715947535
 21
1.611249906111517
 31
0.0
  0
ARC
  5
1B2
330
1F
100
AcDbEntity
  8
Inner 2
100
AcDbCircle
 10
0.3352974352299043
 20
1.447422622550789
 30
0.0
 40
0.2396866938773658
100
AcDbArc
 50
99.79467786097089
 51
169.4365363982085
  0
LINE
  5
1B3
330
1F
100
AcDbEntity
  8
Inner 2
100
AcDbLine
 10
0.0996728432276086
 20
1.491363069358747
 30
0.0
 11
0.1506732670789006
 21
1.462353220974911
 31
0.0
  0
LINE
  5
1B4
330
1F
100
AcDbEntity
  8
Inner 2
100
AcDbLine
 10
0.1506732670789006
 20
1.462353220974911
 30
0.0
 11
0.1657480947101249
 21
1.483317044098363
 31
0.0
  0
ARC
  5
1B5
330
1F
100
AcDbEntity
  8
Inner 2
100
AcDbCircle
 10
0.2784557069635412
 20
1.498134553178232
 30
0.0
 40
0.1136774579025396
100
AcDbArc
 50
84.29982374454725
 51
187.4896412545093
  0
ARC
  5
1B6
330
1F
100
AcDbEntity
  8
Inner 2
100
AcDbCircle
 10
0.3030971589989804
 20
1.369064619561889
 30
0.0
 40
0.2373570371185742
100
AcDbArc
 50
148.9857666104938
 51
204.5509715805618
  0
ARC
  5
1B7
330
1F
100
AcDbEntity
  8
Inner 2
100
AcDbCircle
 10
-0.1170900977974725
 20
1.198304634415023
 30
0.0
 40
0.2166515581231504
100
AcDbArc
 50
334.1884770871582
 51
19.44887538704374
  0
ARC
  5
1B8
330
1F
100
AcDbEntity
  8
Inner 2
100
AcDbCircle
 10
1.327779680521871
 20
0.7909860693196862
 30
0.0
 40
1.288426702950802
100
AcDbArc
 50
165.9409982426948
 51
178.7319662839535
  0
LINE
  5
1B9
330
1F
100
AcDbEntity
  8
Inner 2
100
AcDbLine
 10
0.0396684986169476
 20
0.8194983811871878
 30
0.0
 11
0.0552596665554575
 21
0.3999645925159854
 31
0.0
  0
ARC
  5
1BA
330
1F
100
AcDbEntity
  8
Inner 1
100
AcDbCircle
 10
0.9852883577557349
 20
0.2281872158177904
 30
0.0
 40
0.0651561072473093
100
AcDbArc
 50
189.1806812032326
 51
259.1847326469201
  0
ARC
  5
1BB
330
1F
100
AcDbEntity
  8
Inner 1
100
AcDbCircle
 10
0.7367708938249962
 20
0.1851643233571138
 30
0.0
 40
0.1870633837183546
100
AcDbArc
 50
10.04482919319289
 51
174.3936214976768
  0
ARC
  5
1BC
330
1F
100
AcDbEntity
  8
Inner 2
100
AcDbCircle
 10
0.4768330687875278
 20
0.2254642587561548
 30
0.0
 40
0.0769870401726578
100
AcDbArc
 50
262.3367478275505
 51
343.3761410728866
  0
ARC
  5
1BD
330
1F
100
AcDbEntity
  8
Inner 1
100
AcDbCircle
 10
0.457674939561457
 20
0.1946796277644509
 30
0.0
 40
0.0933393227562967
100
AcDbArc
 50
269.1093068803374
 51
5.384957027880947
  0
LINE
  5
1BE
330
1F
100
AcDbEntity
  8
Inner 1
100
AcDbLine
 10
0.456223988985812
 20
0.1013515831313896
 30
0.0
 11
0.0706051448410108
 21
0.1013515831313896
 31
0.0
  0
ARC
  5
1BF
330
1F
100
AcDbEntity
  8
Inner 2
100
AcDbCircle
 10
0.4120229247105272
 20
0.517175994292991
 30
0.0
 40
0.3755243468485285
100
AcDbArc
 50
198.1874785396901
 51
205.7238324016445
  0
LINE
  5
1C0
330
1F
100
AcDbEntity
  8
Inner 2
100
AcDbLine
 10
0.3372814208460113
 20
0.1491647951752597
 30
0.0
 11
0.4665668030684174
 21
0.1491647951752597
 31
0.0
  0
ARC
  5
1C1
330
1F
100
AcDbEntity
  8
Accesories
100
AcDbCircle
 10
0.7374960250792811
 20
0.2142735787542591
 30
0.0
 40
0.1573255335748752
100
AcDbArc
 50
197.1894427062706
 51
343.9013611042034
  0
ARC
  5
1C2
330
1F
100
AcDbEntity
  8
Accesories
100
AcDbCircle
 10
0.6972813547681654
 20
0.2023288950949507
 30
0.0
 40
0.1939753356359015
100
AcDbArc
 50
350.6002416200471
 51
28.17292873030928
  0
ARC
  5
1C3
330
1F
100
AcDbEntity
  8
Accesories
100
AcDbCircle
 10
0.8552348803100358
 20
0.2869267697794981
 30
0.0
 40
0.01479353792112
100
AcDbArc
 50
28.17292873030928
 51
90.0
  0
ARC
  5
1C4
330
1F
100
AcDbEntity
  8
Accesories
100
AcDbCircle
 10
0.8056184042386576
 20
0.1997655501502464
 30
0.0
 40
0.2207503556750436
100
AcDbArc
 50
154.9631272601006
 51
188.3314828197042
  0
ARC
  5
1C5
330
1F
100
AcDbEntity
  8
Accesories
100
AcDbCircle
 10
0.6190141905349265
 20
0.2869267697794981
 30
0.0
 40
0.01479353792112
100
AcDbArc
 50
90.0
 51
154.9631272601006
  0
LINE
  5
1C6
330
1F
100
AcDbEntity
  8
Accesories
100
AcDbLine
 10
0.6190141905349265
 20
0.3017203077006201
 30
0.0
 11
0.8552348803100358
 21
0.3017203077006201
 31
0.0
  0
ARC
  5
1C7
330
1F
100
AcDbEntity
  8
Accesories
100
AcDbCircle
 10
0.7492598597414144
 20
0.2591627171061859
 30
0.0
 40
0.1024078869828112
100
AcDbArc
 50
24.55518339598542
 51
155.4448166040145
  0
CIRCLE
  5
1C8
330
1F
100
AcDbEntity
  8
Accesories
100
AcDbCircle
 10
0.6606297816947518
 20
0.1922541690411776
 30
0.0
 40
0.037258491252553
  0
CIRCLE
  5
1C9
330
1F
100
AcDbEntity
  8
Accesories
100
AcDbCircle
 10
0.7396629517738802
 20
0.1222861165445082
 30
0.0
 40
0.037258491252553
  0
CIRCLE
  5
1CA
330
1F
100
AcDbEntity
  8
Accesories
100
AcDbCircle
 10
0.8164380655555305
 20
0.1922541690411776
 30
0.0
 40
0.037258491252553
  0
LWPOLYLINE
  5
1CB
330
1F
100
AcDbEntity
  8
Accesories
100
AcDbPolyline
 90
        4
 70
     1
 43
0.0
 10
0.9609559179700681
 20
0.0940731914244637
 10
1.098699451534457
 20
0.0940731914244637
 10
1.098699451534457
 20
0.0342617793636038
 10
0.9609559179700681
 20
0.0342617793636038
  0
LINE
  5
1CC
330
1F
100
AcDbEntity
  8
Accesories
100
AcDbLine
 10
1.1438612897864
 20
0.0
 30
0.0
 11
1.1438612897864
 21
0.0933247085345528
 31
0.0
  0
ARC
  5
1CD
330
1F
100
AcDbEntity
  8
Accesories
100
AcDbCircle
 10
1.121670982904561
 20
0.0933247085345528
 30
0.0
 40
0.02219030688168
100
AcDbArc
 50
0.0
 51
90.0
  0
LINE
  5
1CE
330
1F
100
AcDbEntity
  8
Accesories
100
AcDbLine
 10
1.121670982904561
 20
0.1155150154162285
 30
0.0
 11
0.9402424803870417
 21
0.1155150154162285
 31
0.0
  0
LINE
  5
1CF
330
1F
100
AcDbEntity
  8
Accesories
100
AcDbLine
 10
0.9180521735052025
 20
0.0933247085345528
 30
0.0
 11
0.9180521735052025
 21
0.0
 31
0.0
  0
ARC
  5
1D0
330
1F
100
AcDbEntity
  8
Accesories
100
AcDbCircle
 10
0.9402424803870417
 20
0.0933247085345528
 30
0.0
 40
0.02219030688168
100
AcDbArc
 50
90.0
 51
180.0
  0
ARC
  5
1D1
330
1F
100
AcDbEntity
  8
Inner 1
100
AcDbCircle
 10
0.7476274268915404
 20
0.2439823844993469
 30
0.0
 40
0.1912148550703472
100
AcDbArc
 50
58.82077199657465
 51
121.5803602150775
  0
ARC
  5
1D2
330
1F
100
AcDbEntity
  8
Inner 1
100
AcDbCircle
 10
0.8389637193363341
 20
0.3949199968665269
 30
0.0
 40
0.01479353792112
100
AcDbArc
 50
325.9829152921767
 51
58.82077199657465
  0
ARC
  5
1D3
330
1F
100
AcDbEntity
  8
Inner 1
100
AcDbCircle
 10
0.6552366555383742
 20
0.3942768505100531
 30
0.0
 40
0.01479353792112
100
AcDbArc
 50
121.5803602150775
 51
224.4492016669307
  0
LINE
  5
1D4
330
1F
100
AcDbEntity
  8
Inner 1
100
AcDbLine
 10
0.6446759690479667
 20
0.3839172817414535
 30
0.0
 11
0.6687170269658509
 21
0.3594094975619484
 31
0.0
  0
LINE
  5
1D5
330
1F
100
AcDbEntity
  8
Inner 1
100
AcDbLine
 10
0.8512256508461177
 20
0.3866438987596652
 30
0.0
 11
0.826150938647288
 21
0.349493009580037
 31
0.0
  0
LINE
  5
1D6
330
1F
100
AcDbEntity
  8
Inner 2
100
AcDbLine
 10
1.483598028813503
 20
0.1970090529612989
 30
0.0
 11
0.9642667866435203
 21
0.1970090529612989
 31
0.0
  0
ARC
  5
1D7
330
1F
100
AcDbEntity
  8
Inner 2
100
AcDbCircle
 10
0.9795975986846769
 20
0.2635852446076257
 30
0.0
 40
0.0683185413483749
100
AcDbArc
 50
201.7089687813527
 51
257.032288424235
  0
CIRCLE
  5
1D8
330
1F
100
AcDbEntity
  8
Accesories
100
AcDbCircle
 10
1.181235772973195
 20
1.709584761645295
 30
0.0
 40
0.0353340844388706
  0
LINE
  5
1D9
330
1F
100
AcDbEntity
  8
Inner 2
100
AcDbLine
 10
1.757218802964644
 20
0.4996617009953539
 30
0.0
 11
1.757218802964644
 21
1.27770561774755
 31
0.0
  0
LINE
  5
1DA
330
1F
100
AcDbEntity
  8
Accesories
100
AcDbLine
 10
1.345225649513849
 20
0.1507730276558661
 30
0.0
 11
1.345225649513849
 21
0.1641884579225348
 31
0.0
  0
LINE
  5
1DB
330
1F
100
AcDbEntity
  8
Accesories
100
AcDbLine
 10
1.224091868521327
 20
0.1545176754718014
 30
0.0
 11
1.224091868521327
 21
0.1641884579225348
 31
0.0
  0
ARC
  5
1DC
330
1F
100
AcDbEntity
  8
Inner 1
100
AcDbCircle
 10
1.257218802964644
 20
1.27770561774755
 30
0.0
 40
0.5
100
AcDbArc
 50
0.0
 51
24.71780119961477
  0
ELLIPSE
  5
1DD
330
1F
100
AcDbEntity
  8
Accesories
100
AcDbEllipse
 10
1.409492835052105
 20
1.504906600965711
 30
0.0
 11
-0.005289404506093
 21
0.0055068108568795
 31
0.0
210
0.0
220
0.0
230
1.0
 40
0.4914185727131788
 41
0.0
 42
6.283185307179586
  0
ELLIPSE
  5
1DE
330
1F
100
AcDbEntity
  8
Accesories
100
AcDbEllipse
 10
1.466819970440155
 20
1.532655604837948
 30
0.0
 11
-0.005289404506093
 21
0.0055068108568795
 31
0.0
210
0.0
220
0.0
230
1.0
 40
0.4914185727131788
 41
0.0
 42
6.283185307179586
  0
ELLIPSE
  5
1DF
330
1F
100
AcDbEntity
  8
Accesories
100
AcDbEllipse
 10
1.508471120627064
 20
1.574390505146112
 30
0.0
 11
-0.005289404506093
 21
0.0055068108568795
 31
0.0
210
0.0
220
0.0
230
1.0
 40
0.4914185727131788
 41
0.0
 42
6.283185307179586
  0
ELLIPSE
  5
1E0
330
1F
100
AcDbEntity
  8
Accesories
100
AcDbEllipse
 10
1.574818577001678
 20
1.475969315907747
 30
0.0
 11
-0.0139292801613241
 21
0.0377454923833713
 31
0.0
210
0.0
220
0.0
230
-1.0
 40
0.6761039238097093
 41
0.0
 42
6.283185307179586
  0
ELLIPSE
  5
1E1
330
1F
100
AcDbEntity
  8
Accesories
100
AcDbEllipse
 10
1.574818577001678
 20
1.475969315907747
 30
0.0
 11
-0.0072619440744846
 21
0.0230611605411907
 31
0.0
210
0.0
220
0.0
230
-1.0
 40
0.6300362149882468
 41
0.0
 42
6.283185307179586
  0
ELLIPSE
  5
1E2
330
1F
100
AcDbEntity
  8
Accesories
100
AcDbEllipse
 10
1.524167588371938
 20
1.447854843462806
 30
0.0
 11
-0.0137185889791556
 21
0.033190934192314
 31
0.0
210
0.0
220
0.0
230
-1.0
 40
0.7126783563109972
 41
0.0
 42
6.283185307179586
  0
ELLIPSE
  5
1E3
330
1F
100
AcDbEntity
  8
Accesories
100
AcDbEllipse
 10
1.524167588371938
 20
1.447854843462806
 30
0.0
 11
-0.0086928669426348
 21
0.0215146424281814
 31
0.0
210
0.0
220
0.0
230
-1.0
 40
0.6924237281803567
 41
0.0
 42
6.283185307179586
  0
ELLIPSE
  5
1E4
330
1F
100
AcDbEntity
  8
Accesories
100
AcDbEllipse
 10
1.480773014031001
 20
1.401185281827366
 30
0.0
 11
0.0188259168949538
 21
-0.0362079856396253
 31
0.0
210
0.0
220
0.0
230
-1.0
 40
0.6525394780959104
 41
0.0
 42
6.283185307179586
  0
ELLIPSE
  5
1E5
330
1F
100
AcDbEntity
  8
Accesories
100
AcDbEllipse
 10
1.480773014031001
 20
1.401185281827366
 30
0.0
 11
-0.0127162128615978
 21
0.0216583839850797
 31
0.0
210
0.0
220
0.0
230
-1.0
 40
0.6012623839265017
 41
0.0
 42
6.283185307179586
  0
ELLIPSE
  5
1E6
330
1F
100
AcDbEntity
  8
Accesories
100
AcDbEllipse
 10
1.486627314818406
 20
1.404643873921173
 30
0.0
 11
0.003966567197838
 21
-0.00652450078608
 31
0.0
210
0.0
220
0.0
230
-1.0
 40
0.4914185727131788
 41
0.0
 42
6.283185307179586
  0
ELLIPSE
  5
1E7
330
1F
100
AcDbEntity
  8
Accesories
100
AcDbEllipse
 10
1.528147011825467
 20
1.452940068679509
 30
0.0
 11
0.003966567197838
 21
-0.00652450078608
 31
0.0
210
0.0
220
0.0
230
-1.0
 40
0.4914185727131788
 41
0.0
 42
6.283185307179586
  0
ELLIPSE
  5
1E8
330
1F
100
AcDbEntity
  8
Accesories
100
AcDbEllipse
 10
1.57916588307512
 20
1.482498400703235
 30
0.0
 11
0.003966567197838
 21
-0.00652450078608
 31
0.0
210
0.0
220
0.0
230
-1.0
 40
0.4914185727131788
 41
0.0
 42
6.283185307179586
  0
ELLIPSE
  5
1E9
330
1F
100
AcDbEntity
  8
Accesories
100
AcDbEllipse
 10
0.2916296642627003
 20
1.539927510431411
 30
0.0
 11
-0.0316452715908214
 21
-0.0248460022341412
 31
0.0
210
0.0
220
0.0
230
-1.0
 40
0.6761039238097092
 41
0.0
 42
6.283185307179586
  0
ELLIPSE
  5
1EA
330
1F
100
AcDbEntity
  8
Accesories
100
AcDbEllipse
 10
0.2916296642627003
 20
1.539927510431411
 30
0.0
 11
-0.0197174425146478
 21
-0.0139919769128266
 31
0.0
210
0.0
220
0.0
230
-1.0
 40
0.6300362149882468
 41
0.0
 42
6.283185307179586
  0
ELLIPSE
  5
1EB
330
1F
100
AcDbEntity
  8
Accesories
100
AcDbEllipse
 10
0.3339382139499776
 20
1.500355641213431
 30
0.0
 11
-0.0273754135892058
 21
-0.0232470326484361
 31
0.0
210
0.0
220
0.0
230
-1.0
 40
0.7126783563109972
 41
0.0
 42
6.283185307179586
  0
ELLIPSE
  5
1EC
330
1F
100
AcDbEntity
  8
Accesories
100
AcDbEllipse
 10
0.3339382139499776
 20
1.500355641213431
 30
0.0
 11
-0.0178062709350094
 21
-0.0148789277128393
 31
0.0
210
0.0
220
0.0
230
-1.0
 40
0.6924237281803567
 41
0.0
 42
6.283185307179586
  0
ELLIPSE
  5
1ED
330
1F
100
AcDbEntity
  8
Accesories
100
AcDbEllipse
 10
0.3916774989775149
 20
1.473386918033142
 30
0.0
 11
0.0286785447958259
 21
0.0290340221018175
 31
0.0
210
0.0
220
0.0
230
-1.0
 40
0.6525394780959104
 41
0.0
 42
6.283185307179586
  0
ELLIPSE
  5
1EE
330
1F
100
AcDbEntity
  8
Accesories
100
AcDbEllipse
 10
0.3916774989775149
 20
1.473386918033142
 30
0.0
 11
-0.0167077194274574
 21
-0.0187520606313009
 31
0.0
210
0.0
220
0.0
230
-1.0
 40
0.6012623839265017
 41
0.0
 42
6.283185307179586
  0
ELLIPSE
  5
1EF
330
1F
100
AcDbEntity
  8
Accesories
100
AcDbEllipse
 10
0.3865884387914775
 20
1.477896481581993
 30
0.0
 11
0.0049914180735246
 21
0.0057782792817426
 31
0.0
210
0.0
220
0.0
230
-1.0
 40
0.4914185727131788
 41
0.0
 42
6.283185307179586
  0
ELLIPSE
  5
1F0
330
1F
100
AcDbEntity
  8
Accesories
100
AcDbEllipse
 10
0.3278767676831649
 20
1.502581443469395
 30
0.0
 11
0.0049914180735246
 21
0.0057782792817426
 31
0.0
210
0.0
220
0.0
230
-1.0
 40
0.4914185727131788
 41
0.0
 42
6.283185307179586
  0
ELLIPSE
  5
1F1
330
1F
100
AcDbEntity
  8
Accesories
100
AcDbEllipse
 10
0.2840811475723512
 20
1.542060094342005
 30
0.0
 11
0.0049914180735246
 21
0.0057782792817426
 31
0.0
210
0.0
220
0.0
230
-1.0
 40
0.4914185727131788
 41
0.0
 42
6.283185307179586
  0
ELLIPSE
  5
1F2
330
1F
100
AcDbEntity
  8
Accesories
100
AcDbEllipse
 10
0.2230202118287252
 20
1.440274645555831
 30
0.0
 11
0.0119178947328013
 21
0.0384279953447179
 31
0.0
210
0.0
220
0.0
230
1.0
 40
0.6761039238097092
 41
0.0
 42
6.283185307179586
  0
ELLIPSE
  5
1F3
330
1F
100
AcDbEntity
  8
Accesories
100
AcDbEllipse
 10
0.2230202118287252
 20
1.440274645555831
 30
0.0
 11
0.0060347983268602
 21
0.023412265298378
 31
0.0
210
0.0
220
0.0
230
1.0
 40
0.6300362149882468
 41
0.0
 42
6.283185307179586
  0
ELLIPSE
  5
1F4
330
1F
100
AcDbEntity
  8
Accesories
100
AcDbEllipse
 10
0.2750843266410357
 20
1.414872398433828
 30
0.0
 11
0.011947858707139
 21
0.0338686649936453
 31
0.0
210
0.0
220
0.0
230
1.0
 40
0.7126783563109972
 41
0.0
 42
6.283185307179586
  0
ELLIPSE
  5
1F5
330
1F
100
AcDbEntity
  8
Accesories
100
AcDbEllipse
 10
0.2750843266410357
 20
1.414872398433828
 30
0.0
 11
0.0075453428990779
 21
0.0219434175786315
 31
0.0
210
0.0
220
0.0
230
1.0
 40
0.6924237281803567
 41
0.0
 42
6.283185307179586
  0
ELLIPSE
  5
1F6
330
1F
100
AcDbEntity
  8
Accesories
100
AcDbEllipse
 10
0.3208813624871709
 20
1.370557969934964
 30
0.0
 11
-0.0168888480976046
 21
-0.0371510454893406
 31
0.0
210
0.0
220
0.0
230
1.0
 40
0.6525394780959104
 41
0.0
 42
6.283185307179586
  0
ELLIPSE
  5
1F7
330
1F
100
AcDbEntity
  8
Accesories
100
AcDbEllipse
 10
0.3208813624871709
 20
1.370557969934964
 30
0.0
 11
0.011555496448808
 21
0.0222992862712735
 31
0.0
210
0.0
220
0.0
230
1.0
 40
0.6012623839265017
 41
0.0
 42
6.283185307179586
  0
ELLIPSE
  5
1F8
330
1F
100
AcDbEntity
  8
Accesories
100
AcDbEllipse
 10
0.3148526965194378
 20
1.373702788471959
 30
0.0
 11
-0.0036167167404003
 21
-0.0067247398360257
 31
0.0
210
0.0
220
0.0
230
1.0
 40
0.4914185727131788
 41
0.0
 42
6.283185307179586
  0
ELLIPSE
  5
1F9
330
1F
100
AcDbEntity
  8
Accesories
100
AcDbEllipse
 10
0.2708420816588841
 20
1.419740527852738
 30
0.0
 11
-0.0036167167404003
 21
-0.0067247398360257
 31
0.0
210
0.0
220
0.0
230
1.0
 40
0.4914185727131788
 41
0.0
 42
6.283185307179586
  0
ELLIPSE
  5
1FA
330
1F
100
AcDbEntity
  8
Accesories
100
AcDbEllipse
 10
0.2183343988508568
 20
1.446565207939173
 30
0.0
 11
-0.0036167167404003
 21
-0.0067247398360257
 31
0.0
210
0.0
220
0.0
230
1.0
 40
0.4914185727131788
 41
0.0
 42
6.283185307179586
  0
ELLIPSE
  5
1FB
330
1F
100
AcDbEntity
  8
Accesories
100
AcDbEllipse
 10
0.2166737550819562
 20
0.9523396912657773
 30
0.0
 11
-0.0043262627029659
 21
-0.0396939379349211
 31
0.0
210
0.0
220
0.0
230
-1.0
 40
0.7154253101643019
 41
0.0
 42
6.283185307179586
  0
ELLIPSE
  5
1FC
330
1F
100
AcDbEntity
  8
Accesories
100
AcDbEllipse
 10
0.2174052252953516
 20
0.9509284298849891
 30
0.0
 11
-0.0026996479006597
 21
-0.0257026408375437
 31
0.0
210
0.0
220
0.0
230
-1.0
 40
0.4557493393331369
 41
0.0
 42
6.283185307179586
  0
ELLIPSE
  5
1FD
330
1F
100
AcDbEntity
  8
Accesories
100
AcDbEllipse
 10
0.1309967079043872
 20
0.8602516705895482
 30
0.0
 11
-0.0001665085364234
 21
0.0358742181240521
 31
0.0
210
0.0
220
0.0
230
-1.0
 40
0.6996535358372466
 41
0.0
 42
6.283185307179586
  0
ELLIPSE
  5
1FE
330
1F
100
AcDbEntity
  8
Accesories
100
AcDbEllipse
 10
0.131002516356375
 20
0.8590002412345754
 30
0.0
 11
-0.0000987434732718
 21
0.0212742540086312
 31
0.0
210
0.0
220
0.0
230
-1.0
 40
0.6229040658899156
 41
0.0
 42
6.283185307179586
  0
ELLIPSE
  5
1FF
330
1F
100
AcDbEntity
  8
Accesories
100
AcDbEllipse
 10
0.2125386412708394
 20
0.7809542830621084
 30
0.0
 11
-0.0033139765863257
 21
0.0396139669827816
 31
0.0
210
0.0
220
0.0
230
-1.0
 40
0.7137823042741652
 41
0.0
 42
6.283185307179586
  0
ELLIPSE
  5
200
330
1F
100
AcDbEntity
  8
Accesories
100
AcDbEllipse
 10
0.2121174236888237
 20
0.7817866322098013
 30
0.0
 11
-0.0028288662421598
 21
0.0250159399563222
 31
0.0
210
0.0
220
0.0
230
-1.0
 40
0.5799369419308622
 41
0.0
 42
6.283185307179586
  0
ELLIPSE
  5
201
330
1F
100
AcDbEntity
  8
Accesories
100
AcDbEllipse
 10
0.2438442347620366
 20
0.4041850655005206
 30
0.0
 11
0.0226561541571048
 21
-0.0308614127403035
 31
0.0
210
0.0
220
0.0
230
-1.0
 40
0.6561763122426775
 41
0.0
 42
6.283185307179586
  0
ELLIPSE
  5
202
330
1F
100
AcDbEntity
  8
Accesories
100
AcDbEllipse
 10
0.2428115652710403
 20
0.4041802724124964
 30
0.0
 11
-0.0145437588603645
 21
0.0185124244466804
 31
0.0
210
0.0
220
0.0
230
-1.0
 40
0.6678787785247439
 41
0.0
 42
6.283185307179586
  0
ELLIPSE
  5
203
330
1F
100
AcDbEntity
  8
Accesories
100
AcDbEllipse
 10
0.299407732169584
 20
0.4477961389962104
 30
0.0
 11
0.0226561541571048
 21
-0.0308614127403035
 31
0.0
210
0.0
220
0.0
230
-1.0
 40
0.6561763122426775
 41
0.0
 42
6.283185307179586
  0
ELLIPSE
  5
204
330
1F
100
AcDbEntity
  8
Accesories
100
AcDbEllipse
 10
0.2983750626783603
 20
0.4477913459081791
 30
0.0
 11
-0.0145437588603645
 21
0.0185124244466804
 31
0.0
210
0.0
220
0.0
230
-1.0
 40
0.6678787785247439
 41
0.0
 42
6.283185307179586
  0
ELLIPSE
  5
205
330
1F
100
AcDbEntity
  8
Accesories
100
AcDbEllipse
 10
0.3479739071533459
 20
0.4860072080568543
 30
0.0
 11
0.0226561541571048
 21
-0.0308614127403035
 31
0.0
210
0.0
220
0.0
230
-1.0
 40
0.6561763122426775
 41
0.0
 42
6.283185307179586
  0
ELLIPSE
  5
206
330
1F
100
AcDbEntity
  8
Accesories
100
AcDbEllipse
 10
0.3469412376621221
 20
0.4860024149688229
 30
0.0
 11
-0.0145437588603645
 21
0.0185124244466804
 31
0.0
210
0.0
220
0.0
230
-1.0
 40
0.6678787785247439
 41
0.0
 42
6.283185307179586
  0
ELLIPSE
  5
207
330
1F
100
AcDbEntity
  8
Accesories
100
AcDbEllipse
 10
0.2378344462570112
 20
0.4003932519547107
 30
0.0
 11
0.0054199436698555
 21
-0.0053783804679584
 31
0.0
210
0.0
220
0.0
230
1.0
 40
0.4914185727131788
 41
0.0
 42
6.283185307179586
  0
ELLIPSE
  5
208
330
1F
100
AcDbEntity
  8
Accesories
100
AcDbEllipse
 10
0.2933979436643312
 20
0.4440043254503934
 30
0.0
 11
0.0054199436698555
 21
-0.0053783804679584
 31
0.0
210
0.0
220
0.0
230
1.0
 40
0.4914185727131788
 41
0.0
 42
6.283185307179586
  0
ELLIPSE
  5
209
330
1F
100
AcDbEntity
  8
Accesories
100
AcDbEllipse
 10
0.3419641186480931
 20
0.4822153945110373
 30
0.0
 11
0.0054199436698555
 21
-0.0053783804679584
 31
0.0
210
0.0
220
0.0
230
1.0
 40
0.4914185727131788
 41
0.0
 42
6.283185307179586
  0
ELLIPSE
  5
20A
330
1F
100
AcDbEntity
  8
Accesories
100
AcDbEllipse
 10
1.538437287769284
 20
0.4041850655005206
 30
0.0
 11
-0.0226561541571048
 21
-0.0308614127403035
 31
0.0
210
0.0
220
0.0
230
1.0
 40
0.6561763122426775
 41
0.0
 42
6.283185307179586
  0
ELLIPSE
  5
20B
330
1F
100
AcDbEntity
  8
Accesories
100
AcDbEllipse
 10
1.53946995726028
 20
0.4041802724124964
 30
0.0
 11
0.0145437588603645
 21
0.0185124244466804
 31
0.0
210
0.0
220
0.0
230
1.0
 40
0.6678787785247439
 41
0.0
 42
6.283185307179586
  0
ELLIPSE
  5
20C
330
1F
100
AcDbEntity
  8
Accesories
100
AcDbEllipse
 10
1.482873790361736
 20
0.4477961389962104
 30
0.0
 11
-0.0226561541571048
 21
-0.0308614127403035
 31
0.0
210
0.0
220
0.0
230
1.0
 40
0.6561763122426775
 41
0.0
 42
6.283185307179586
  0
ELLIPSE
  5
20D
330
1F
100
AcDbEntity
  8
Accesories
100
AcDbEllipse
 10
1.48390645985296
 20
0.4477913459081791
 30
0.0
 11
0.0145437588603645
 21
0.0185124244466804
 31
0.0
210
0.0
220
0.0
230
1.0
 40
0.6678787785247439
 41
0.0
 42
6.283185307179586
  0
ELLIPSE
  5
20E
330
1F
100
AcDbEntity
  8
Accesories
100
AcDbEllipse
 10
1.434307615377974
 20
0.4860072080568543
 30
0.0
 11
-0.0226561541571048
 21
-0.0308614127403035
 31
0.0
210
0.0
220
0.0
230
1.0
 40
0.6561763122426775
 41
0.0
 42
6.283185307179586
  0
ELLIPSE
  5
20F
330
1F
100
AcDbEntity
  8
Accesories
100
AcDbEllipse
 10
1.435340284869198
 20
0.4860024149688229
 30
0.0
 11
0.0145437588603645
 21
0.0185124244466804
 31
0.0
210
0.0
220
0.0
230
1.0
 40
0.6678787785247439
 41
0.0
 42
6.283185307179586
  0
ELLIPSE
  5
210
330
1F
100
AcDbEntity
  8
Accesories
100
AcDbEllipse
 10
1.544447076274309
 20
0.4003932519547107
 30
0.0
 11
-0.0054199436698555
 21
-0.0053783804679584
 31
0.0
210
0.0
220
0.0
230
-1.0
 40
0.4914185727131788
 41
0.0
 42
6.283185307179586
  0
ELLIPSE
  5
211
330
1F
100
AcDbEntity
  8
Accesories
100
AcDbEllipse
 10
1.488883578866989
 20
0.4440043254503934
 30
0.0
 11
-0.0054199436698555
 21
-0.0053783804679584
 31
0.0
210
0.0
220
0.0
230
-1.0
 40
0.4914185727131788
 41
0.0
 42
6.283185307179586
  0
ELLIPSE
  5
212
330
1F
100
AcDbEntity
  8
Accesories
100
AcDbEllipse
 10
1.440317403883227
 20
0.4822153945110373
 30
0.0
 11
-0.0054199436698555
 21
-0.0053783804679584
 31
0.0
210
0.0
220
0.0
230
-1.0
 40
0.4914185727131788
 41
0.0
 42
6.283185307179586
  0
ARC
  5
213
330
1F
100
AcDbEntity
  8
Inner 3
100
AcDbCircle
 10
1.01488381469403
 20
1.272113731917009
 30
0.0
 40
0.04438061376336
100
AcDbArc
 50
270.0
 51
337.9731746535092
  0
LINE
  5
214
330
1F
100
AcDbEntity
  8
Inner 3
100
AcDbLine
 10
1.196846357804361
 20
1.06528094978637
 30
0.0
 11
1.064172712176741
 21
1.207038114076915
 31
0.0
  0
ARC
  5
215
330
1F
100
AcDbEntity
  8
Inner 3
100
AcDbCircle
 10
1.022876345722352
 20
1.177726060504326
 30
0.0
 40
0.0506417452995152
100
AcDbArc
 50
42.59364573252629
 51
90.59958588334051
  0
LINE
  5
216
330
1F
100
AcDbEntity
  8
Inner 3
100
AcDbLine
 10
1.056025014926262
 20
1.255469197634582
 30
0.0
 11
1.146386307481407
 21
1.478820116750831
 31
0.0
  0
ARC
  5
217
330
1F
100
AcDbEntity
  8
Inner 3
100
AcDbCircle
 10
1.09657552264116
 20
1.237364616546173
 30
0.0
 40
0.04438061376336
100
AcDbArc
 50
157.9731746535092
 51
223.1042312827096
  0
ARC
  5
218
330
1F
100
AcDbEntity
  8
Inner 3
100
AcDbCircle
 10
1.223133125706681
 20
1.37431327715673
 30
0.0
 40
0.1296601466513197
100
AcDbArc
 50
67.06903358657982
 51
126.2924900758445
  0
ARC
  5
219
330
1F
100
AcDbEntity
  8
Inner 3
100
AcDbCircle
 10
1.391752751990452
 20
1.175687680210586
 30
0.0
 40
0.1379238026132038
100
AcDbArc
 50
313.9161426911762
 51
18.93075195765624
  0
ARC
  5
21A
330
1F
100
AcDbEntity
  8
Inner 3
100
AcDbCircle
 10
1.049044379300084
 20
1.039759401202196
 30
0.0
 40
0.506492824401385
100
AcDbArc
 50
20.8986672308841
 51
63.67541889317725
  0
ARC
  5
21B
330
1F
100
AcDbEntity
  8
Inner 3
100
AcDbCircle
 10
1.046180132427707
 20
0.5352498364205474
 30
0.0
 40
0.05371365302728
100
AcDbArc
 50
41.43185622890704
 51
93.93243314013936
  0
ARC
  5
21C
330
1F
100
AcDbEntity
  8
Inner 3
100
AcDbCircle
 10
1.044536646800679
 20
0.639465208117521
 30
0.0
 40
0.0506490667143324
100
AcDbArc
 50
271.6454705913382
 51
323.2821332442764
  0
LINE
  5
21D
330
1F
100
AcDbEntity
  8
Inner 3
100
AcDbLine
 10
1.090609069415904
 20
0.618425725391198
 30
0.0
 11
1.202591174353528
 21
0.763934325231638
 31
0.0
  0
ARC
  5
21E
330
1F
100
AcDbEntity
  8
Inner 3
100
AcDbCircle
 10
1.125780085199039
 20
0.5913584291317307
 30
0.0
 40
0.04438061376336
100
AcDbArc
 50
142.4184442478809
 51
222.5649560960419
  0
LINE
  5
21F
330
1F
100
AcDbEntity
  8
Inner 3
100
AcDbLine
 10
1.211800772333617
 20
0.7910016214910982
 30
0.0
 11
1.211800772333617
 21
1.009061719870238
 31
0.0
  0
ARC
  5
220
330
1F
100
AcDbEntity
  8
Inner 3
100
AcDbCircle
 10
1.155667738332567
 20
1.024242445187475
 30
0.0
 40
0.0581363703830369
100
AcDbArc
 50
357.9077912031465
 51
44.90235631294605
  0
ARC
  5
221
330
1F
100
AcDbEntity
  8
Inner 3
100
AcDbCircle
 10
1.229249168268779
 20
1.095607452255627
 30
0.0
 40
0.04438061376336
100
AcDbArc
 50
223.1042312827096
 51
275.6013089851709
  0
LINE
  5
222
330
1F
100
AcDbEntity
  8
Inner 3
100
AcDbLine
 10
1.093093277277603
 20
0.5613382448231548
 30
0.0
 11
1.131614555029045
 21
0.5193952109692646
 31
0.0
  0
LINE
  5
223
330
1F
100
AcDbEntity
  8
Inner 3
100
AcDbLine
 10
1.233580966337285
 20
1.051438748363558
 30
0.0
 11
1.487417365038481
 21
1.076333479807885
 31
0.0
  0
ARC
  5
224
330
1F
100
AcDbEntity
  8
Inner 3
100
AcDbCircle
 10
1.256181386097068
 20
1.009061719870238
 30
0.0
 40
0.04438061376336
100
AcDbArc
 50
95.60130898517092
 51
180.0
  0
ARC
  5
225
330
1F
100
AcDbEntity
  8
Inner 3
100
AcDbCircle
 10
1.238071689554999
 20
0.6604940599395519
 30
0.0
 40
0.2077281574235919
100
AcDbArc
 50
246.8408566078581
 51
315.5030856502137
  0
ARC
  5
226
330
1F
100
AcDbEntity
  8
Inner 3
100
AcDbCircle
 10
1.043649844137462
 20
0.8664736082512334
 30
0.0
 40
0.4908877451070094
100
AcDbArc
 50
314.2589794381426
 51
25.30970027912551
  0
ARC
  5
227
330
1F
100
AcDbEntity
  8
Inner 3
100
AcDbCircle
 10
1.167420158570394
 20
0.7910016214910982
 30
0.0
 40
0.04438061376336
100
AcDbArc
 50
322.4184442478809
 51
0.0
  0
LINE
  5
228
330
1F
100
AcDbEntity
  8
Inner 2
100
AcDbLine
 10
1.533560726154746
 20
0.2591628046169774
 30
0.0
 11
1.552383209994786
 21
0.2014202955750548
 31
0.0
  0
LINE
  5
229
330
1F
100
AcDbEntity
  8
Inner 2
100
AcDbLine
 10
1.533560726154746
 20
0.2591628046169774
 30
0.0
 11
1.556335070275963
 21
0.2738356404193354
 31
0.0
  0
ARC
  5
22A
330
1F
100
AcDbEntity
  8
Inner 2
100
AcDbCircle
 10
1.50892211502537
 20
0.4371337751343063
 30
0.0
 40
0.2396866938773658
100
AcDbArc
 50
280.4469237762678
 51
350.0887823135164
  0
LINE
  5
22B
330
1F
100
AcDbEntity
  8
Inner 2
100
AcDbLine
 10
1.745031639844455
 20
0.3958784298841777
 30
0.0
 11
1.693704284271689
 21
0.4243058305074144
 31
0.0
  0
LINE
  5
22C
330
1F
100
AcDbEntity
  8
Inner 2
100
AcDbLine
 10
1.693704284271689
 20
0.4243058305074144
 30
0.0
 11
1.67886907704451
 21
0.4031717600384113
 31
0.0
  0
ARC
  5
22D
330
1F
100
AcDbEntity
  8
Inner 2
100
AcDbCircle
 10
1.566337444193322
 20
0.3870721934894092
 30
0.0
 40
0.1136774579025396
100
AcDbArc
 50
264.9520696598604
 51
8.14188716981798
  0
ARC
  5
22E
330
1F
100
AcDbEntity
  8
Inner 2
100
AcDbCircle
 10
1.442175617643442
 20
0.509471241976911
 30
0.0
 40
0.3151958688047441
100
AcDbArc
 50
339.6627171646342
 51
358.2165500137231
  0
ARC
  5
22F
330
1F
100
AcDbEntity
  8
Inner 3
100
AcDbCircle
 10
1.057963460216114
 20
0.4517526486814845
 30
0.0
 40
0.1
100
AcDbArc
 50
270.0
 51
42.56495609176034
  0
LINE
  5
230
330
1F
100
AcDbEntity
  8
Inner 2
100
AcDbLine
 10
0.2858359079311867
 20
0.2252718699445921
 30
0.0
 11
0.270252257221955
 21
0.1665723547939137
 31
0.0
  0
LINE
  5
231
330
1F
100
AcDbEntity
  8
Inner 2
100
AcDbLine
 10
0.2858359079311867
 20
0.2252718699445921
 30
0.0
 11
0.2622811579881272
 21
0.238656062700791
 31
0.0
  0
ARC
  5
232
330
1F
100
AcDbEntity
  8
Inner 2
100
AcDbCircle
 10
0.3005435582340397
 20
0.4043372561246983
 30
0.0
 40
0.2396866938773658
100
AcDbArc
 50
193.0977585452987
 51
262.7396170825476
  0
LINE
  5
233
330
1F
100
AcDbEntity
  8
Inner 2
100
AcDbLine
 10
0.0670923536515602
 20
0.3500210863341522
 30
0.0
 11
0.1167601565273344
 21
0.3812576657522228
 31
0.0
  0
LINE
  5
234
330
1F
100
AcDbEntity
  8
Inner 2
100
AcDbLine
 10
0.1167601565273344
 20
0.3812576657522228
 30
0.0
 11
0.1327472050923006
 21
0.360980915858903
 31
0.0
  0
ARC
  5
235
330
1F
100
AcDbEntity
  8
Inner 2
100
AcDbCircle
 10
0.2459997731152725
 20
0.3511615334202034
 30
0.0
 40
0.1136774579025396
100
AcDbArc
 50
175.0446536889936
 51
278.2344711989574
  0
ARC
  5
236
330
1F
100
AcDbEntity
  8
Inner 2
100
AcDbCircle
 10
0.4120229247105272
 20
0.517175994292991
 30
0.0
 40
0.3755243468485285
100
AcDbArc
 50
247.9326167449922
 51
258.5196191457964
  0
ARC
  5
237
330
1F
100
AcDbEntity
  8
Inner 3
100
AcDbCircle
 10
1.018562299514542
 20
1.457076689757315
 30
0.0
 40
0.1296601466513197
100
AcDbArc
 50
9.653859233950507
 51
68.87731572322123
  0
ARC
  5
238
330
1F
100
AcDbEntity
  8
Inner 3
100
AcDbCircle
 10
0.9110520741385244
 20
1.095587078590739
 30
0.0
 40
0.506492824401385
100
AcDbArc
 50
72.27093041662763
 51
107.5058768436654
  0
ARC
  5
239
330
1F
100
AcDbEntity
  8
Inner 3
100
AcDbCircle
 10
0.8038461892631403
 20
1.457076689756974
 30
0.0
 40
0.1296601466513197
100
AcDbArc
 50
111.1226842767787
 51
170.3461407660264
  0
ELLIPSE
  5
23A
330
1F
100
AcDbEntity
  8
Accesories
100
AcDbEllipse
 10
0.058005189428286
 20
1.202831765371328
 30
0.0
 11
-0.0002905506689785
 21
0.0226528962654271
 31
0.0
210
0.0
220
0.0
230
1.0
 40
0.9047552570226846
 41
0.0
 42
6.283185307179586
  0
ELLIPSE
  5
23B
330
1F
100
AcDbEntity
  8
Accesories
100
AcDbEllipse
 10
0.6068534539365374
 20
1.722681381887284
 30
0.0
 11
0.0264400366841073
 21
0.0002904209006829
 31
0.0
210
0.0
220
0.0
230
1.0
 40
0.642405044300002
 41
0.0
 42
6.283185307179586
  0
HATCH
  5
23C
330
1F
100
AcDbEntity
  8
Floor
100
AcDbHatch
 10
0.0
 20
0.0
 30
0.0
210
0.0
220
0.0
230
1.0
  2
AR-CONC
 70
     0
 71
     0
 91
        1
 92
        7
 72
     1
 73
     1
 93
       16
 10
1.151048212960859
 20
1.005559673570417
 42
0.1903271608026404
 10
1.137553803709579
 20
1.039726058279597
 42
0.0
 10
1.033272548410195
 20
1.15114694348987
 42
0.2075258729088453
 10
0.9967669576615207
 20
1.166980558780785
 42
0.0
 10
0.8256415311159344
 20
1.166980558780785
 42
0.2075258729088452
 10
0.7891359403672596
 20
1.15114694348987
 42
0.0
 10
0.6848546850678759
 20
1.03972605827969
 42
0.190327160802125
 10
0.6713602758165962
 20
1.005559673570608
 42
0.0
 10
0.6713602758165962
 20
0.8135845544284308
 42
0.1654662437399717
 10
0.68173597502323
 20
0.7830900502246294
 42
0.0
 10
0.7694654734227698
 20
0.6690950821543141
 42
0.2327921274667203
 10
0.8090897742160905
 20
0.6495895863581254
 42
0.0
 10
1.013318714561364
 20
0.6495895863581254
 42
0.2327921274668636
 10
1.052943015354685
 20
0.6690950821543354
 42
0.0
 10
1.140672513754225
 20
0.7830900502248923
 42
0.1654662437400926
 10
1.151048212960859
 20
0.8135845544287221
 42
0.0
 97
        0
 75
     0
 76
     1
 52
0.0
 41
0.0004
 77
     0
 78
    13
 53
50.0
 43
1032.461910605249
 44
-36.26507919494949
 45
0.0728738675984016
 46
-0.0063756342155612
 79
     2
 49
0.00762
 49
-0.08382
 53
355.0
 43
1032.461910605249
 44
-36.26507919494949
 45
-0.0140971303902668
 46
0.076422657152872
 79
     2
 49
0.006096
 49
-0.067056
 53
100.451
 43
1032.467983405249
 44
-36.26561049494949
 45
0.0587770006663837
 46
0.0700466751281168
 79
     2
 49
0.006476
 49
-0.071236
 53
46.1842
 43
1032.461910605249
 44
-36.24475919494949
 45
0.108431616356852
 46
-0.0168169311730909
 79
     2
 49
0.01143
 49
-0.12573
 53
96.6356
 43
1032.470946565248
 44
-36.24616059494949
 45
0.0949616937864949
 46
0.0989702223560197
 79
     2
 49
0.009714
 49
-0.106854
 53
351.184
 43
1032.461910605249
 44
-36.24475919494949
 45
0.0949618423255736
 46
0.0989700471442391
 79
     2
 49
0.009144
 49
-0.100584
 53
21.0
 43
1032.472070605249
 44
-36.24983919494949
 45
0.0606459519341533
 46
-0.040906207406705
 79
     2
 49
0.00762
 49
-0.08382
 53
326.0
 43
1032.472070605249
 44
-36.24983919494949
 45
0.0247208113390588
 46
0.0736751864489277
 79
     2
 49
0.006096
 49
-0.067056
 53
71.45140000000001
 43
1032.477124405249
 44
-36.25324803494949
 45
0.0853665963080498
 46
0.032769143086423
 79
     2
 49
0.006476
 49
-0.071236
 53
37.5
 43
1032.461910605249
 44
-36.26507919494949
 45
0.0012354413002367
 46
0.0338220155492613
 79
     6
 49
0.0
 49
-0.0662432
 49
0.0
 49
-0.068072
 49
0.0
 49
-0.06731
 53
7.499999999999999
 43
1032.461910605249
 44
-36.26507919494949
 45
0.0267278650041223
 46
0.0400722299272478
 79
     6
 49
0.0
 49
-0.0388112
 49
0.0
 49
-0.0647192
 49
0.0
 49
-0.025654
 53
327.4999999999999
 43
1032.439253805248
 44
-36.26507919494949
 45
0.0542362380667486
 46
-0.0022914975970694
 79
     6
 49
0.0
 49
-0.0254
 49
0.0
 49
-0.079248
 49
0.0
 49
-0.105156
 53
317.5
 43
1032.429093805248
 44
-36.26507919494949
 45
0.0592516725544072
 46
0.0101705964133332
 79
     6
 49
0.0
 49
-0.03302
 49
0.0
 49
-0.0526288
 49
0.0
 49
-0.074676
 47
0.0016826352639041
 98
        1
 10
0.8827897829219182
 20
0.8658068840213672
1001
ACAD
1010
0.0
1020
0.0
1030
0.0
  0
ENDSEC
  0
SECTION
  2
OBJECTS
  0
DICTIONARY
  5
C
330
0
100
AcDbDictionary
281
     1
  3
ACAD_GROUP
350
D
  3
ACAD_LAYOUT
350
1A
  3
ACAD_MLINESTYLE
350
17
  3
ACAD_PLOTSETTINGS
350
19
  3
ACAD_PLOTSTYLENAME
350
E
  3
AcDbVariableDictionary
350
23E
  0
DICTIONARY
  5
81
330
2
100
AcDbDictionary
280
     1
281
     1
  3
ACAD_LAYERSTATES
360
82
  0
DICTIONARY
  5
2F
330
2E
100
AcDbDictionary
280
     1
281
     1
  3
ACAD_XREC_ROUNDTRIP
360
30
  0
DICTIONARY
  5
32
330
31
100
AcDbDictionary
280
     1
281
     1
  3
ACAD_XREC_ROUNDTRIP
360
33
  0
DICTIONARY
  5
35
330
34
100
AcDbDictionary
280
     1
281
     1
  3
ACAD_XREC_ROUNDTRIP
360
36
  0
DICTIONARY
  5
38
330
37
100
AcDbDictionary
280
     1
281
     1
  3
ACAD_XREC_ROUNDTRIP
360
39
  0
DICTIONARY
  5
3B
330
3A
100
AcDbDictionary
280
     1
281
     1
  3
ACAD_XREC_ROUNDTRIP
360
3C
  0
DICTIONARY
  5
3E
330
3D
100
AcDbDictionary
280
     1
281
     1
  3
ACAD_XREC_ROUNDTRIP
360
3F
  0
DICTIONARY
  5
41
330
40
100
AcDbDictionary
280
     1
281
     1
  3
ACAD_XREC_ROUNDTRIP
360
42
  0
DICTIONARY
  5
D
102
{ACAD_REACTORS
330
C
102
}
330
C
100
AcDbDictionary
281
     1
  0
DICTIONARY
  5
1A
102
{ACAD_REACTORS
330
C
102
}
330
C
100
AcDbDictionary
281
     1
  3
Layout1
350
1E
  3
Layout2
350
26
  3
Model
350
22
  0
DICTIONARY
  5
17
102
{ACAD_REACTORS
330
C
102
}
330
C
100
AcDbDictionary
281
     1
  3
Standard
350
18
  0
DICTIONARY
  5
19
102
{ACAD_REACTORS
330
C
102
}
330
C
100
AcDbDictionary
281
     1
  3
DISTILLER-MS
350
5D
  3
DISTILLER-PS
350
60
  3
HP5000-MS
350
63
  3
HP5000-PS
350
66
  3
Oce-MS
350
69
  3
Oce-PS
350
6C
  3
PDF995-MS
350
6F
  3
PDF995-PS
350
72
  3
SLPT-COPYROOM-MS
350
75
  3
SLPT-COPYROOM-PS
350
78
  3
SLPT-CRANECERT-MS
350
7B
  3
SLPT-CRANECERT-PS
350
7E
  0
ACDBDICTIONARYWDFLT
  5
E
102
{ACAD_REACTORS
330
C
102
}
330
C
100
AcDbDictionary
281
     1
  3
Normal
350
F
100
AcDbDictionaryWithDefault
340
F
  0
DICTIONARY
  5
23E
102
{ACAD_REACTORS
330
C
102
}
330
C
100
AcDbDictionary
281
     1
  3
DIMASSOC
350
240
  3
HIDETEXT
350
23F
  0
DICTIONARY
  5
82
102
{ACAD_REACTORS
330
81
102
}
330
81
100
AcDbDictionary
281
     1
  0
XRECORD
  5
30
102
{ACAD_REACTORS
330
2F
102
}
330
2F
100
AcDbXrecord
280
     1
102
MATERIAL
340
0
  0
XRECORD
  5
33
102
{ACAD_REACTORS
330
32
102
}
330
32
100
AcDbXrecord
280
     1
102
MATERIAL
340
0
  0
XRECORD
  5
36
102
{ACAD_REACTORS
330
35
102
}
330
35
100
AcDbXrecord
280
     1
102
MATERIAL
340
0
  0
XRECORD
  5
39
102
{ACAD_REACTORS
330
38
102
}
330
38
100
AcDbXrecord
280
     1
102
MATERIAL
340
0
  0
XRECORD
  5
3C
102
{ACAD_REACTORS
330
3B
102
}
330
3B
100
AcDbXrecord
280
     1
102
MATERIAL
340
0
  0
XRECORD
  5
3F
102
{ACAD_REACTORS
330
3E
102
}
330
3E
100
AcDbXrecord
280
     1
102
MATERIAL
340
0
  0
XRECORD
  5
42
102
{ACAD_REACTORS
330
41
102
}
330
41
100
AcDbXrecord
280
     1
102
MATERIAL
340
0
  0
LAYOUT
  5
1E
102
{ACAD_REACTORS
330
1A
102
}
330
1A
100
AcDbPlotSettings
  1

  2
Microsoft Office Document Image Writer
  4

  6

 40
0.0
 41
0.0
 42
0.0
 43
0.0
 44
0.0
 45
0.0
 46
0.0
 47
0.0
 48
0.0
 49
0.0
140
0.0
141
0.0
142
1.0
143
1.0
 70
   688
 72
     0
 73
     0
 74
     5
  7

 75
    16
147
1.0
148
0.0
149
0.0
100
AcDbLayout
  1
Layout1
 70
     1
 71
     1
 10
0.0
 20
0.0
 11
420.0
 21
297.0
 12
0.0
 22
0.0
 32
0.0
 14
1.000000000000000E+20
 24
1.000000000000000E+20
 34
1.000000000000000E+20
 15
-1.000000000000000E+20
 25
-1.000000000000000E+20
 35
-1.000000000000000E+20
146
0.0
 13
0.0
 23
0.0
 33
0.0
 16
1.0
 26
0.0
 36
0.0
 17
0.0
 27
1.0
 37
0.0
 76
     0
330
1B
  0
LAYOUT
  5
26
102
{ACAD_REACTORS
330
1A
102
}
330
1A
100
AcDbPlotSettings
  1

  2
Microsoft Office Document Image Writer
  4

  6

 40
0.0
 41
0.0
 42
0.0
 43
0.0
 44
0.0
 45
0.0
 46
0.0
 47
0.0
 48
0.0
 49
0.0
140
0.0
141
0.0
142
1.0
143
1.0
 70
   688
 72
     0
 73
     0
 74
     5
  7

 75
    16
147
1.0
148
0.0
149
0.0
100
AcDbLayout
  1
Layout2
 70
     1
 71
     2
 10
0.0
 20
0.0
 11
12.0
 21
9.0
 12
0.0
 22
0.0
 32
0.0
 14
0.0
 24
0.0
 34
0.0
 15
0.0
 25
0.0
 35
0.0
146
0.0
 13
0.0
 23
0.0
 33
0.0
 16
1.0
 26
0.0
 36
0.0
 17
0.0
 27
1.0
 37
0.0
 76
     0
330
23
  0
LAYOUT
  5
22
102
{ACAD_REACTORS
330
1A
102
}
330
1A
100
AcDbPlotSettings
  1

  2
Microsoft Office Document Image Writer
  4

  6

 40
0.0
 41
0.0
 42
0.0
 43
0.0
 44
0.0
 45
0.0
 46
0.0
 47
0.0
 48
0.0
 49
0.0
140
0.0
141
0.0
142
1.0
143
1.0
 70
  1712
 72
     0
 73
     0
 74
     0
  7

 75
     0
147
1.0
148
0.0
149
0.0
100
AcDbLayout
  1
Model
 70
     1
 71
     0
 10
0.0
 20
0.0
 11
12.0
 21
9.0
 12
0.0
 22
0.0
 32
0.0
 14
0.0
 24
0.0
 34
0.0
 15
0.0
 25
0.0
 35
0.0
146
0.0
 13
0.0
 23
0.0
 33
0.0
 16
1.0
 26
0.0
 36
0.0
 17
0.0
 27
1.0
 37
0.0
 76
     0
330
1F
  0
MLINESTYLE
  5
18
102
{ACAD_REACTORS
330
17
102
}
330
17
100
AcDbMlineStyle
  2
STANDARD
 70
     0
  3

 62
   256
 51
90.0
 52
90.0
 71
     2
 49
0.5
 62
   256
  6
BYLAYER
 49
-0.5
 62
   256
  6
BYLAYER
  0
PLOTSETTINGS
  5
5D
102
{ACAD_XDICTIONARY
360
5E
102
}
102
{ACAD_REACTORS
330
19
102
}
330
19
100
AcDbPlotSettings
  1
DISTILLER-MS
  2
Acrobat Distiller.pc3
  4
Tabloid
  6

 40
3.174999952316284
 41
3.174999952316284
 42
3.17498779296875
 43
3.17498779296875
 44
431.7999877929687
 45
279.3999938964843
 46
12.7
 47
2.54
 48
347.219642289383
 49
272.6076866431665
140
379.469642289383
141
293.2326866431665
142
0.5
143
1.0
 70
  1696
 72
     0
 73
     0
 74
     4
  7
Bigge.ctb
 75
     0
147
0.5
148
-8819.37891415033
149
-6924.235240736429
  0
PLOTSETTINGS
  5
60
102
{ACAD_XDICTIONARY
360
61
102
}
102
{ACAD_REACTORS
330
19
102
}
330
19
100
AcDbPlotSettings
  1
DISTILLER-PS
  2
Acrobat Distiller.pc3
  4
Ledger
  6

 40
3.174999952316284
 41
3.174999952316284
 42
3.17498779296875
 43
3.17498779296875
 44
279.3999938964843
 45
431.8000183105469
 46
5.08
 47
0.0
 48
0.0
 49
0.0
140
0.0
141
0.0
142
0.5
143
1.0
 70
   672
 72
     0
 73
     1
 74
     5
  7
Bigge.ctb
 75
     0
147
1.0
148
0.0
149
0.0
  0
PLOTSETTINGS
  5
63
102
{ACAD_XDICTIONARY
360
64
102
}
102
{ACAD_REACTORS
330
19
102
}
330
19
100
AcDbPlotSettings
  1
HP5000-MS
  2
HP 5000.pc3
  4
11x17
  6

 40
5.873749732971191
 41
5.873734474182128
 42
5.873748779296875
 43
5.027069091796875
 44
431.7999877929687
 45
279.3999938964843
 46
12.7
 47
0.0
 48
-5.32007299270073
 49
-4.375
140
26.92992700729927
141
16.25
142
0.5
143
1.0
 70
  1696
 72
     0
 73
     0
 74
     4
  7
Bigge.ctb
 75
     0
147
0.5
148
135.1298540145985
149
111.125
  0
PLOTSETTINGS
  5
66
102
{ACAD_XDICTIONARY
360
67
102
}
102
{ACAD_REACTORS
330
19
102
}
330
19
100
AcDbPlotSettings
  1
HP5000-PS
  2
HP 5000.pc3
  4
11x17
  6

 40
5.873749732971191
 41
5.873734474182128
 42
5.873748779296875
 43
5.027069091796875
 44
431.7999877929687
 45
279.3999938964843
 46
0.0
 47
0.0
 48
0.0
 49
0.0
140
0.0
141
0.0
142
0.5
143
1.0
 70
   672
 72
     0
 73
     0
 74
     5
  7
Bigge.ctb
 75
     0
147
1.0
148
0.0
149
0.0
  0
PLOTSETTINGS
  5
69
102
{ACAD_XDICTIONARY
360
6A
102
}
102
{ACAD_REACTORS
330
19
102
}
330
19
100
AcDbPlotSettings
  1
Oce-MS
  2
oce9400-ii.pc3
  4
User266
  6

 40
3.174999952316284
 41
3.174999952316284
 42
3.17498779296875
 43
3.17498779296875
 44
863.5999755859375
 45
558.7999877929687
 46
19.04999999999999
 47
9.397999999999999
 48
411.8972778206771
 49
217.4800799880674
140
798.8972778206771
141
464.9800799880674
142
1.0
143
1.0
 70
  1696
 72
     0
 73
     0
 74
     4
  7
Bigge_22x34.ctb
 75
     0
147
1.0
148
-10462.19085664519
149
-5523.994031696913
  0
PLOTSETTINGS
  5
6C
102
{ACAD_XDICTIONARY
360
6D
102
}
102
{ACAD_REACTORS
330
19
102
}
330
19
100
AcDbPlotSettings
  1
Oce-PS
  2
oce9400-ii.pc3
  4
User266
  6

 40
3.174999952316284
 41
3.174999952316284
 42
3.17498779296875
 43
3.17498779296875
 44
863.5999755859375
 45
558.7999877929687
 46
0.0
 47
9.397999999999999
 48
0.0
 49
0.0
140
0.0
141
0.0
142
1.0
143
1.0
 70
   672
 72
     0
 73
     0
 74
     5
  7
Bigge_22x34.ctb
 75
     0
147
1.0
148
0.0
149
0.0
  0
PLOTSETTINGS
  5
6F
102
{ACAD_XDICTIONARY
360
70
102
}
102
{ACAD_REACTORS
330
19
102
}
330
19
100
AcDbPlotSettings
  1
PDF995-MS
  2
PDF995.pc3
  4
Tabloid
  6

 40
3.174999952316284
 41
3.174999952316284
 42
3.17498779296875
 43
3.17498779296875
 44
431.7999877929687
 45
279.3999938964843
 46
7.873999999999999
 47
5.588
 48
354.6346190302324
 49
309.1614223065455
140
386.8846190302324
141
329.7864223065455
142
0.5
143
1.0
 70
  1700
 72
     0
 73
     0
 74
     4
  7
Bigge.ctb
 75
     0
147
0.5
148
-9007.719323367902
149
-7852.700126586256
  0
PLOTSETTINGS
  5
72
102
{ACAD_XDICTIONARY
360
73
102
}
102
{ACAD_REACTORS
330
19
102
}
330
19
100
AcDbPlotSettings
  1
PDF995-PS
  2
PDF995.pc3
  4
Tabloid
  6

 40
3.174999952316284
 41
3.174999952316284
 42
3.17498779296875
 43
3.17498779296875
 44
431.7999877929687
 45
279.3999938964843
 46
0.0
 47
0.0
 48
0.0
 49
0.0
140
0.0
141
0.0
142
0.5
143
1.0
 70
   672
 72
     0
 73
     0
 74
     5
  7
Bigge.ctb
 75
     0
147
1.0
148
0.0
149
0.0
  0
PLOTSETTINGS
  5
75
102
{ACAD_XDICTIONARY
360
76
102
}
102
{ACAD_REACTORS
330
19
102
}
330
19
100
AcDbPlotSettings
  1
SLPT-COPYROOM-MS
  2
\\sanl-fs01\SLPT-COPYROOM
  4
Tabloid
  6

 40
5.873749732971191
 41
5.873747825622558
 42
5.873748779296875
 43
5.873748779296875
 44
431.7999877929687
 45
279.3999938964843
 46
0.0
 47
0.0
 48
1.162192370830894
 49
4.594510547090791
140
6.889877749054988
141
10.75973068185787
142
1.0
143
1.0
 70
 11952
 72
     0
 73
     0
 74
     4
  7
Bigge2.ctb
 75
    16
147
1.0
148
-29.5196862191047
149
-116.700567896106
1001
ACAD_PSEXT
1000
\\sanl-fs01\SLPT-COPYROOM
1000
TOSHIBA e-STUDIO3511-4511 PCL5c
1000
San Leandro Copy Room
1000
Network Color Printer
1070
     0
  0
PLOTSETTINGS
  5
78
102
{ACAD_XDICTIONARY
360
79
102
}
102
{ACAD_REACTORS
330
19
102
}
330
19
100
AcDbPlotSettings
  1
SLPT-COPYROOM-PS
  2
SLPT-COPYROOM.pc3
  4
Tabloid
  6

 40
5.873749732971191
 41
5.873747825622558
 42
5.873748779296875
 43
5.873748779296875
 44
431.7999877929687
 45
279.3999938964843
 46
0.0
 47
0.0
 48
0.0
 49
0.0
140
0.0
141
0.0
142
0.5
143
1.0
 70
  2720
 72
     0
 73
     0
 74
     5
  7
Bigge2.ctb
 75
     0
147
1.0
148
0.0
149
0.0
1001
ACAD_PSEXT
1000
SLPT-COPYROOM.pc3
1000
TOSHIBA e-STUDIO3511-4511 PCL5c
1000
San Leandro Copy Room
1000
Network Color Printer
1070
     0
  0
PLOTSETTINGS
  5
7B
102
{ACAD_XDICTIONARY
360
7C
102
}
102
{ACAD_REACTORS
330
19
102
}
330
19
100
AcDbPlotSettings
  1
SLPT-CRANECERT-MS
  2
SLPT-CRANECERT.pc3
  4
Tabloid
  6

 40
5.78908348083496
 41
5.789072036743164
 42
5.7890625
 43
5.789093017578125
 44
431.7999877929687
 45
279.3999938964843
 46
0.0
 47
0.0
 48
1.162192370830894
 49
4.594510547090791
140
6.889877749054988
141
10.75973068185787
142
1.0
143
1.0
 70
 11952
 72
     0
 73
     0
 74
     4
  7
Bigge2.ctb
 75
    16
147
1.0
148
-29.5196862191047
149
-116.700567896106
1001
ACAD_PSEXT
1000
SLPT-CRANECERT.pc3
1000
TOSHIBA e-STUDIO280Series PCL6
1000
San Leandro, Crane Certification
1000
Network Printer
1070
     0
  0
PLOTSETTINGS
  5
7E
102
{ACAD_XDICTIONARY
360
7F
102
}
102
{ACAD_REACTORS
330
19
102
}
330
19
100
AcDbPlotSettings
  1
SLPT-CRANECERT-PS
  2
SLPT-CRANECERT.pc3
  4
Tabloid
  6

 40
5.78908348083496
 41
5.789072036743164
 42
5.7890625
 43
5.789093017578125
 44
431.7999877929687
 45
279.3999938964843
 46
0.0
 47
0.0
 48
0.0
 49
0.0
140
0.0
141
0.0
142
0.5
143
1.0
 70
  2720
 72
     0
 73
     0
 74
     5
  7
Bigge2.ctb
 75
     0
147
1.0
148
0.0
149
0.0
1001
ACAD_PSEXT
1000
SLPT-CRANECERT.pc3
1000
TOSHIBA e-STUDIO280Series PCL6
1000
San Leandro, Crane Certification
1000
Network Printer
1070
     0
  0
ACDBPLACEHOLDER
  5
F
102
{ACAD_REACTORS
330
E
102
}
330
E
  0
DICTIONARYVAR
  5
240
102
{ACAD_REACTORS
330
23E
102
}
330
23E
100
DictionaryVariables
280
     0
  1
2
  0
DICTIONARYVAR
  5
23F
102
{ACAD_REACTORS
330
23E
102
}
330
23E
100
DictionaryVariables
280
     0
  1
1
  0
DICTIONARY
  5
5E
330
5D
100
AcDbDictionary
280
     1
281
     1
  3
ACAD_XREC_ROUNDTRIP
360
5F
  0
DICTIONARY
  5
61
330
60
100
AcDbDictionary
280
     1
281
     1
  3
ACAD_XREC_ROUNDTRIP
360
62
  0
DICTIONARY
  5
64
330
63
100
AcDbDictionary
280
     1
281
     1
  3
ACAD_XREC_ROUNDTRIP
360
65
  0
DICTIONARY
  5
67
330
66
100
AcDbDictionary
280
     1
281
     1
  3
ACAD_XREC_ROUNDTRIP
360
68
  0
DICTIONARY
  5
6A
330
69
100
AcDbDictionary
280
     1
281
     1
  3
ACAD_XREC_ROUNDTRIP
360
6B
  0
DICTIONARY
  5
6D
330
6C
100
AcDbDictionary
280
     1
281
     1
  3
ACAD_XREC_ROUNDTRIP
360
6E
  0
DICTIONARY
  5
70
330
6F
100
AcDbDictionary
280
     1
281
     1
  3
ACAD_XREC_ROUNDTRIP
360
71
  0
DICTIONARY
  5
73
330
72
100
AcDbDictionary
280
     1
281
     1
  3
ACAD_XREC_ROUNDTRIP
360
74
  0
DICTIONARY
  5
76
330
75
100
AcDbDictionary
280
     1
281
     1
  3
ACAD_XREC_ROUNDTRIP
360
77
  0
DICTIONARY
  5
79
330
78
100
AcDbDictionary
280
     1
281
     1
  3
ACAD_XREC_ROUNDTRIP
360
7A
  0
DICTIONARY
  5
7C
330
7B
100
AcDbDictionary
280
     1
281
     1
  3
ACAD_XREC_ROUNDTRIP
360
7D
  0
DICTIONARY
  5
7F
330
7E
100
AcDbDictionary
280
     1
281
     1
  3
ACAD_XREC_ROUNDTRIP
360
80
  0
XRECORD
  5
5F
102
{ACAD_REACTORS
330
5E
102
}
330
5E
100
AcDbXrecord
280
     1
102
SHADEPLOT
 70
     0
102
SHADEPLOTRESLEVEL
 70
     2
102
SHADEPLOTCUSTOMDPI
 70
   300
  0
XRECORD
  5
62
102
{ACAD_REACTORS
330
61
102
}
330
61
100
AcDbXrecord
280
     1
102
SHADEPLOT
 70
     0
102
SHADEPLOTRESLEVEL
 70
     2
102
SHADEPLOTCUSTOMDPI
 70
   300
  0
XRECORD
  5
65
102
{ACAD_REACTORS
330
64
102
}
330
64
100
AcDbXrecord
280
     1
102
SHADEPLOT
 70
     0
102
SHADEPLOTRESLEVEL
 70
     2
102
SHADEPLOTCUSTOMDPI
 70
   300
  0
XRECORD
  5
68
102
{ACAD_REACTORS
330
67
102
}
330
67
100
AcDbXrecord
280
     1
102
SHADEPLOT
 70
     0
102
SHADEPLOTRESLEVEL
 70
     2
102
SHADEPLOTCUSTOMDPI
 70
   300
  0
XRECORD
  5
6B
102
{ACAD_REACTORS
330
6A
102
}
330
6A
100
AcDbXrecord
280
     1
102
SHADEPLOT
 70
     0
102
SHADEPLOTRESLEVEL
 70
     2
102
SHADEPLOTCUSTOMDPI
 70
   300
  0
XRECORD
  5
6E
102
{ACAD_REACTORS
330
6D
102
}
330
6D
100
AcDbXrecord
280
     1
102
SHADEPLOT
 70
     0
102
SHADEPLOTRESLEVEL
 70
     2
102
SHADEPLOTCUSTOMDPI
 70
   300
  0
XRECORD
  5
71
102
{ACAD_REACTORS
330
70
102
}
330
70
100
AcDbXrecord
280
     1
102
SHADEPLOT
 70
     0
102
SHADEPLOTRESLEVEL
 70
     2
102
SHADEPLOTCUSTOMDPI
 70
   300
  0
XRECORD
  5
74
102
{ACAD_REACTORS
330
73
102
}
330
73
100
AcDbXrecord
280
     1
102
SHADEPLOT
 70
     0
102
SHADEPLOTRESLEVEL
 70
     2
102
SHADEPLOTCUSTOMDPI
 70
   300
  0
XRECORD
  5
77
102
{ACAD_REACTORS
330
76
102
}
330
76
100
AcDbXrecord
280
     1
102
SHADEPLOT
 70
     0
102
SHADEPLOTRESLEVEL
 70
     2
102
SHADEPLOTCUSTOMDPI
 70
   300
  0
XRECORD
  5
7A
102
{ACAD_REACTORS
330
79
102
}
330
79
100
AcDbXrecord
280
     1
102
SHADEPLOT
 70
     0
102
SHADEPLOTRESLEVEL
 70
     2
102
SHADEPLOTCUSTOMDPI
 70
   300
  0
XRECORD
  5
7D
102
{ACAD_REACTORS
330
7C
102
}
330
7C
100
AcDbXrecord
280
     1
102
SHADEPLOT
 70
     0
102
SHADEPLOTRESLEVEL
 70
     2
102
SHADEPLOTCUSTOMDPI
 70
   300
  0
XRECORD
  5
80
102
{ACAD_REACTORS
330
7F
102
}
330
7F
100
AcDbXrecord
280
     1
102
SHADEPLOT
 70
     0
102
SHADEPLOTRESLEVEL
 70
     2
102
SHADEPLOTCUSTOMDPI
 70
   300
  0
ENDSEC
  0
EOF
