  0
SECTION
  2
HEADER
  9
$ACADVER
  1
AC1015
  9
$ACADMAINTVER
 70
    13
  9
$DWGCODEPAGE
  3
ANSI_1252
  9
$INSBASE
 10
0.0
 20
0.0
 30
0.0
  9
$EXTMIN
 10
-0.0000000000000028
 20
-41.37900483820579
 30
0.0
  9
$EXTMAX
 10
355.0000000001162
 20
1026.500000000116
 30
0.0
  9
$LIMMIN
 10
0.0
 20
0.0
  9
$LIMMAX
 10
420.0
 20
297.0
  9
$ORTHOMODE
 70
     0
  9
$REGENMODE
 70
     1
  9
$FILLMODE
 70
     1
  9
$QTEXTMODE
 70
     0
  9
$MIRRTEXT
 70
     1
  9
$LTSCALE
 40
1.0
  9
$ATTMODE
 70
     1
  9
$TEXTSIZE
 40
2.5
  9
$TRACEWID
 40
1.0
  9
$TEXTSTYLE
  7
Standard
  9
$CLAYER
  8
ceco.net 383
  9
$CELTYPE
  6
ByLayer
  9
$CECOLOR
 62
   256
  9
$CELTSCALE
 40
1.0
  9
$DISPSILH
 70
     0
  9
$DIMSCALE
 40
1.0
  9
$DIMASZ
 40
2.5
  9
$DIMEXO
 40
0.625
  9
$DIMDLI
 40
3.75
  9
$DIMRND
 40
0.0
  9
$DIMDLE
 40
0.0
  9
$DIMEXE
 40
1.25
  9
$DIMTP
 40
0.0
  9
$DIMTM
 40
0.0
  9
$DIMTXT
 40
2.5
  9
$DIMCEN
 40
2.5
  9
$DIMTSZ
 40
0.0
  9
$DIMTOL
 70
     0
  9
$DIMLIM
 70
     0
  9
$DIMTIH
 70
     0
  9
$DIMTOH
 70
     0
  9
$DIMSE1
 70
     0
  9
$DIMSE2
 70
     0
  9
$DIMTAD
 70
     1
  9
$DIMZIN
 70
     8
  9
$DIMBLK
  1

  9
$DIMASO
 70
     1
  9
$DIMSHO
 70
     1
  9
$DIMPOST
  1

  9
$DIMAPOST
  1

  9
$DIMALT
 70
     0
  9
$DIMALTD
 70
     3
  9
$DIMALTF
 40
0.03937007874016
  9
$DIMLFAC
 40
1.0
  9
$DIMTOFL
 70
     1
  9
$DIMTVP
 40
0.0
  9
$DIMTIX
 70
     0
  9
$DIMSOXD
 70
     0
  9
$DIMSAH
 70
     0
  9
$DIMBLK1
  1

  9
$DIMBLK2
  1

  9
$DIMSTYLE
  2
ISO-25
  9
$DIMCLRD
 70
     0
  9
$DIMCLRE
 70
     0
  9
$DIMCLRT
 70
     0
  9
$DIMTFAC
 40
1.0
  9
$DIMGAP
 40
0.625
  9
$DIMJUST
 70
     0
  9
$DIMSD1
 70
     0
  9
$DIMSD2
 70
     0
  9
$DIMTOLJ
 70
     0
  9
$DIMTZIN
 70
     8
  9
$DIMALTZ
 70
     0
  9
$DIMALTTZ
 70
     0
  9
$DIMUPT
 70
     0
  9
$DIMDEC
 70
     2
  9
$DIMTDEC
 70
     2
  9
$DIMALTU
 70
     2
  9
$DIMALTTD
 70
     3
  9
$DIMTXSTY
  7
Standard
  9
$DIMAUNIT
 70
     0
  9
$DIMADEC
 70
     0
  9
$DIMALTRND
 40
0.0
  9
$DIMAZIN
 70
     0
  9
$DIMDSEP
 70
    44
  9
$DIMATFIT
 70
     3
  9
$DIMFRAC
 70
     0
  9
$DIMLDRBLK
  1

  9
$DIMLUNIT
 70
     2
  9
$DIMLWD
 70
    -2
  9
$DIMLWE
 70
    -2
  9
$DIMTMOVE
 70
     0
  9
$LUNITS
 70
     2
  9
$LUPREC
 70
     4
  9
$SKETCHINC
 40
1.0
  9
$FILLETRAD
 40
10.0
  9
$AUNITS
 70
     0
  9
$AUPREC
 70
     0
  9
$MENU
  1
.
  9
$ELEVATION
 40
0.0
  9
$PELEVATION
 40
0.0
  9
$THICKNESS
 40
0.0
  9
$LIMCHECK
 70
     0
  9
$CHAMFERA
 40
10.0
  9
$CHAMFERB
 40
10.0
  9
$CHAMFERC
 40
20.0
  9
$CHAMFERD
 40
0.0
  9
$SKPOLY
 70
     0
  9
$TDCREATE
 40
2457858.695660799
  9
$TDUCREATE
 40
2457858.820660799
  9
$TDUPDATE
 40
2457880.936617766
  9
$TDUUPDATE
 40
2457881.061617766
  9
$TDINDWG
 40
0.0016242361
  9
$TDUSRTIMER
 40
0.0016242245
  9
$USRTIMER
 70
     1
  9
$ANGBASE
 50
0.0
  9
$ANGDIR
 70
     0
  9
$PDMODE
 70
     0
  9
$PDSIZE
 40
0.0
  9
$PLINEWID
 40
0.0
  9
$SPLFRAME
 70
     0
  9
$SPLINETYPE
 70
     6
  9
$SPLINESEGS
 70
     8
  9
$HANDSEED
  5
17D
  9
$SURFTAB1
 70
     6
  9
$SURFTAB2
 70
     6
  9
$SURFTYPE
 70
     6
  9
$SURFU
 70
     6
  9
$SURFV
 70
     6
  9
$UCSBASE
  2

  9
$UCSNAME
  2

  9
$UCSORG
 10
0.0
 20
0.0
 30
0.0
  9
$UCSXDIR
 10
1.0
 20
0.0
 30
0.0
  9
$UCSYDIR
 10
0.0
 20
1.0
 30
0.0
  9
$UCSORTHOREF
  2

  9
$UCSORTHOVIEW
 70
     0
  9
$UCSORGTOP
 10
0.0
 20
0.0
 30
0.0
  9
$UCSORGBOTTOM
 10
0.0
 20
0.0
 30
0.0
  9
$UCSORGLEFT
 10
0.0
 20
0.0
 30
0.0
  9
$UCSORGRIGHT
 10
0.0
 20
0.0
 30
0.0
  9
$UCSORGFRONT
 10
0.0
 20
0.0
 30
0.0
  9
$UCSORGBACK
 10
0.0
 20
0.0
 30
0.0
  9
$PUCSBASE
  2

  9
$PUCSNAME
  2

  9
$PUCSORG
 10
0.0
 20
0.0
 30
0.0
  9
$PUCSXDIR
 10
1.0
 20
0.0
 30
0.0
  9
$PUCSYDIR
 10
0.0
 20
1.0
 30
0.0
  9
$PUCSORTHOREF
  2

  9
$PUCSORTHOVIEW
 70
     0
  9
$PUCSORGTOP
 10
0.0
 20
0.0
 30
0.0
  9
$PUCSORGBOTTOM
 10
0.0
 20
0.0
 30
0.0
  9
$PUCSORGLEFT
 10
0.0
 20
0.0
 30
0.0
  9
$PUCSORGRIGHT
 10
0.0
 20
0.0
 30
0.0
  9
$PUCSORGFRONT
 10
0.0
 20
0.0
 30
0.0
  9
$PUCSORGBACK
 10
0.0
 20
0.0
 30
0.0
  9
$USERI1
 70
     0
  9
$USERI2
 70
     0
  9
$USERI3
 70
     0
  9
$USERI4
 70
     0
  9
$USERI5
 70
     0
  9
$USERR1
 40
0.0
  9
$USERR2
 40
0.0
  9
$USERR3
 40
0.0
  9
$USERR4
 40
0.0
  9
$USERR5
 40
0.0
  9
$WORLDVIEW
 70
     1
  9
$SHADEDGE
 70
     3
  9
$SHADEDIF
 70
    70
  9
$TILEMODE
 70
     1
  9
$MAXACTVP
 70
    64
  9
$PINSBASE
 10
0.0
 20
0.0
 30
0.0
  9
$PLIMCHECK
 70
     0
  9
$PEXTMIN
 10
0.0
 20
0.0
 30
0.0
  9
$PEXTMAX
 10
0.0
 20
0.0
 30
0.0
  9
$PLIMMIN
 10
0.0
 20
0.0
  9
$PLIMMAX
 10
12.0
 20
9.0
  9
$UNITMODE
 70
     0
  9
$VISRETAIN
 70
     1
  9
$PLINEGEN
 70
     0
  9
$PSLTSCALE
 70
     1
  9
$TREEDEPTH
 70
  3020
  9
$CMLSTYLE
  2
Standard
  9
$CMLJUST
 70
     0
  9
$CMLSCALE
 40
20.0
  9
$PROXYGRAPHICS
 70
     1
  9
$MEASUREMENT
 70
     1
  9
$CELWEIGHT
370
    -1
  9
$ENDCAPS
280
     0
  9
$JOINSTYLE
280
     0
  9
$LWDISPLAY
290
     0
  9
$INSUNITS
 70
     4
  9
$HYPERLINKBASE
  1

  9
$STYLESHEET
  1

  9
$XEDIT
290
     1
  9
$CEPSNTYPE
380
     0
  9
$PSTYLEMODE
290
     1
  9
$FINGERPRINTGUID
  2
{FDEAD578-A652-11D2-9A35-0060089B3A3F}
  9
$VERSIONGUID
  2
{100C4DA1-7CDB-40DB-8150-BA81E819D50E}
  9
$EXTNAMES
290
     1
  9
$PSVPSCALE
 40
0.0
  9
$OLESTARTUP
290
     0
  0
ENDSEC
  0
SECTION
  2
CLASSES
  0
CLASS
  1
ACDBDICTIONARYWDFLT
  2
AcDbDictionaryWithDefault
  3
AutoCAD 2000
 90
        0
280
     0
281
     0
  0
CLASS
  1
ACDBPLACEHOLDER
  2
AcDbPlaceHolder
  3
AutoCAD 2000
 90
        0
280
     0
281
     0
  0
CLASS
  1
LAYOUT
  2
AcDbLayout
  3
AutoCAD 2000
 90
        0
280
     0
281
     0
  0
CLASS
  1
DICTIONARYVAR
  2
AcDbDictionaryVar
  3
AutoCAD 2000
 90
        0
280
     0
281
     0
  0
ENDSEC
  0
SECTION
  2
TABLES
  0
TABLE
  2
VPORT
  5
8
330
0
100
AcDbSymbolTable
 70
     3
  0
VPORT
  5
17C
330
8
100
AcDbSymbolTableRecord
100
AcDbViewportTableRecord
  2
*Active
 70
     0
 10
0.0
 20
0.0
 11
1.0
 21
1.0
 12
177.5000000000579
 22
492.5604975809553
 13
0.0
 23
0.0
 14
10.0
 24
10.0
 15
10.0
 25
10.0
 16
0.0
 26
0.0
 36
1.0
 17
0.0
 27
0.0
 37
0.0
 40
1075.470561744755
 41
2.187425860023724
 42
50.0
 43
0.0
 44
0.0
 50
0.0
 51
0.0
 71
     0
 72
   100
 73
     1
 74
     3
 75
     0
 76
     0
 77
     0
 78
     0
281
     0
 65
     1
110
0.0
120
0.0
130
0.0
111
1.0
121
0.0
131
0.0
112
0.0
122
1.0
132
0.0
 79
     0
146
0.0
  0
ENDTAB
  0
TABLE
  2
LTYPE
  5
5
330
0
100
AcDbSymbolTable
 70
     1
  0
LTYPE
  5
14
330
5
100
AcDbSymbolTableRecord
100
AcDbLinetypeTableRecord
  2
ByBlock
 70
     0
  3

 72
    65
 73
     0
 40
0.0
  0
LTYPE
  5
15
330
5
100
AcDbSymbolTableRecord
100
AcDbLinetypeTableRecord
  2
ByLayer
 70
     0
  3

 72
    65
 73
     0
 40
0.0
  0
LTYPE
  5
16
330
5
100
AcDbSymbolTableRecord
100
AcDbLinetypeTableRecord
  2
Continuous
 70
     0
  3
Solid line
 72
    65
 73
     0
 40
0.0
  0
ENDTAB
  0
TABLE
  2
LAYER
  5
2
330
0
100
AcDbSymbolTable
 70
     2
  0
LAYER
  5
10
330
2
100
AcDbSymbolTableRecord
100
AcDbLayerTableRecord
  2
0
 70
     0
 62
     7
  6
Continuous
370
    -3
390
F
  0
LAYER
  5
76
330
2
100
AcDbSymbolTableRecord
100
AcDbLayerTableRecord
  2
ceco.net 383
 70
     0
 62
     7
  6
Continuous
370
    -3
390
F
1001
AcAecLayerStandard
1000

1000

  0
ENDTAB
  0
TABLE
  2
STYLE
  5
3
330
0
100
AcDbSymbolTable
 70
     1
  0
STYLE
  5
11
330
3
100
AcDbSymbolTableRecord
100
AcDbTextStyleTableRecord
  2
Standard
 70
     0
 40
0.0
 41
1.0
 50
0.0
 71
     0
 42
2.5
  3
txt
  4

  0
ENDTAB
  0
TABLE
  2
VIEW
  5
6
330
0
100
AcDbSymbolTable
 70
     0
  0
ENDTAB
  0
TABLE
  2
UCS
  5
7
330
0
100
AcDbSymbolTable
 70
     0
  0
ENDTAB
  0
TABLE
  2
APPID
  5
9
330
0
100
AcDbSymbolTable
 70
     9
  0
APPID
  5
12
330
9
100
AcDbSymbolTableRecord
100
AcDbRegAppTableRecord
  2
ACAD
 70
     0
  0
APPID
  5
78
330
9
100
AcDbSymbolTableRecord
100
AcDbRegAppTableRecord
  2
ACAD_PSEXT
 70
     0
  0
APPID
  5
79
330
9
100
AcDbSymbolTableRecord
100
AcDbRegAppTableRecord
  2
AcAecLayerStandard
 70
     0
  0
APPID
  5
7A
330
9
100
AcDbSymbolTableRecord
100
AcDbRegAppTableRecord
  2
ACAD_EXEMPT_FROM_CAD_STANDARDS
 70
     0
  0
APPID
  5
7B
330
9
100
AcDbSymbolTableRecord
100
AcDbRegAppTableRecord
  2
AUTOCAD_POSTSCRIPT_FIGURE
 70
     0
  0
APPID
  5
7C
330
9
100
AcDbSymbolTableRecord
100
AcDbRegAppTableRecord
  2
DCO15
 70
     0
  0
APPID
  5
7D
330
9
100
AcDbSymbolTableRecord
100
AcDbRegAppTableRecord
  2
CONTENTBLOCKDESCRIPTION
 70
     0
  0
APPID
  5
7E
330
9
100
AcDbSymbolTableRecord
100
AcDbRegAppTableRecord
  2
CONTENTBLOCKICON
 70
     0
  0
APPID
  5
7F
330
9
100
AcDbSymbolTableRecord
100
AcDbRegAppTableRecord
  2
ACAD_MLEADERVER
 70
     0
  0
ENDTAB
  0
TABLE
  2
DIMSTYLE
  5
A
330
0
100
AcDbSymbolTable
 70
     2
100
AcDbDimStyleTable
 71
     0
  0
DIMSTYLE
105
27
330
A
100
AcDbSymbolTableRecord
100
AcDbDimStyleTableRecord
  2
ISO-25
 70
     0
 41
2.5
 42
0.625
 43
3.75
 44
1.25
 73
     0
 74
     0
 77
     1
 78
     8
140
2.5
141
2.5
143
0.03937007874016
147
0.625
171
     3
172
     1
271
     2
272
     2
274
     3
278
    44
283
     0
284
     8
340
11
  0
DIMSTYLE
105
77
330
A
100
AcDbSymbolTableRecord
100
AcDbDimStyleTableRecord
  2
Standard
 70
     0
340
11
  0
ENDTAB
  0
TABLE
  2
BLOCK_RECORD
  5
1
330
0
100
AcDbSymbolTable
 70
     2
  0
BLOCK_RECORD
  5
1F
330
1
100
AcDbSymbolTableRecord
100
AcDbBlockTableRecord
  2
*Model_Space
340
22
  0
BLOCK_RECORD
  5
50
330
1
100
AcDbSymbolTableRecord
100
AcDbBlockTableRecord
  2
*Paper_Space
340
51
  0
BLOCK_RECORD
  5
55
330
1
100
AcDbSymbolTableRecord
100
AcDbBlockTableRecord
  2
*Paper_Space0
340
56
  0
ENDTAB
  0
ENDSEC
  0
SECTION
  2
BLOCKS
  0
BLOCK
  5
20
330
1F
100
AcDbEntity
  8
0
100
AcDbBlockBegin
  2
*Model_Space
 70
     0
 10
0.0
 20
0.0
 30
0.0
  3
*Model_Space
  1

  0
ENDBLK
  5
21
330
1F
100
AcDbEntity
  8
0
100
AcDbBlockEnd
  0
BLOCK
  5
52
330
50
100
AcDbEntity
 67
     1
  8
0
100
AcDbBlockBegin
  2
*Paper_Space
 70
     0
 10
0.0
 20
0.0
 30
0.0
  3
*Paper_Space
  1

  0
ENDBLK
  5
53
330
50
100
AcDbEntity
 67
     1
  8
0
100
AcDbBlockEnd
  0
BLOCK
  5
57
330
55
100
AcDbEntity
  8
0
100
AcDbBlockBegin
  2
*Paper_Space0
 70
     0
 10
0.0
 20
0.0
 30
0.0
  3
*Paper_Space0
  1

  0
ENDBLK
  5
58
330
55
100
AcDbEntity
  8
0
100
AcDbBlockEnd
  0
ENDSEC
  0
SECTION
  2
ENTITIES
  0
LINE
  5
100
330
1F
100
AcDbEntity
  8
ceco.net 383
100
AcDbLine
 10
0.0
 20
943.5000000001164
 30
0.0
 11
0.0
 21
1008.5
 31
0.0
  0
LINE
  5
101
330
1F
100
AcDbEntity
  8
ceco.net 383
100
AcDbLine
 10
15.00000000011641
 20
958.5000000001164
 30
0.0
 11
15.00000000011641
 21
993.5000000001164
 31
0.0
  0
LINE
  5
102
330
1F
100
AcDbEntity
  8
ceco.net 383
100
AcDbLine
 10
54.00000000011641
 20
706.0
 30
0.0
 11
96.0000000000582
 21
706.0
 31
0.0
  0
LINE
  5
103
330
1F
100
AcDbEntity
  8
ceco.net 383
100
AcDbLine
 10
189.0704392599291
 20
73.64780370006338
 30
0.0
 11
311.3460907943663
 21
108.2695460286922
 31
0.0
  0
LINE
  5
104
330
1F
100
AcDbEntity
  8
ceco.net 383
100
AcDbLine
 10
30.0
 20
17.20759220060426
 30
0.0
 11
30.0
 21
107.1919148905435
 31
0.0
  0
LINE
  5
105
330
1F
100
AcDbEntity
  8
ceco.net 383
100
AcDbLine
 10
5.000000000116415
 20
686.0000000001164
 30
0.0
 11
151.0934890232165
 21
686.0000000001164
 31
0.0
  0
LINE
  5
106
330
1F
100
AcDbEntity
  8
ceco.net 383
100
AcDbLine
 10
65.00000000005821
 20
1025.500000000116
 30
0.0
 11
85.00000000005821
 21
1025.500000000116
 31
0.0
  0
ARC
  5
107
330
1F
100
AcDbEntity
  8
ceco.net 383
100
AcDbCircle
 10
67.50000000011642
 20
1019.125
 30
0.0
 40
3.625000000000236
100
AcDbArc
 50
226.3971810273058
 51
313.6028189726941
  0
ARC
  5
108
330
1F
100
AcDbEntity
  8
ceco.net 383
100
AcDbCircle
 10
82.5
 20
1019.125
 30
0.0
 40
3.625000000000165
100
AcDbArc
 50
226.3971810273058
 51
313.6028189726941
  0
LINE
  5
109
330
1F
100
AcDbEntity
  8
ceco.net 383
100
AcDbLine
 10
49.0
 20
1014.499999999999
 30
0.0
 11
101.0000000001164
 21
1014.499999999999
 31
0.0
  0
ARC
  5
10A
330
1F
100
AcDbEntity
  8
ceco.net 383
100
AcDbCircle
 10
108.6250000001164
 20
968.5000000001164
 30
0.0
 40
3.625000000000165
100
AcDbArc
 50
136.3971810273058
 51
223.6028189726941
  0
ARC
  5
10B
330
1F
100
AcDbEntity
  8
ceco.net 383
100
AcDbCircle
 10
108.6250000001164
 20
983.5000000001164
 30
0.0
 40
3.625000000000236
100
AcDbArc
 50
136.3971810273058
 51
223.6028189726941
  0
LINE
  5
10C
330
1F
100
AcDbEntity
  8
ceco.net 383
100
AcDbLine
 10
115.0000000000582
 20
980.4999999999999
 30
0.0
 11
116.0
 21
980.4999999999999
 31
0.0
  0
LINE
  5
10D
330
1F
100
AcDbEntity
  8
ceco.net 383
100
AcDbLine
 10
115.0000000000582
 20
971.4999999999999
 30
0.0
 11
116.0
 21
971.4999999999999
 31
0.0
  0
LINE
  5
10E
330
1F
100
AcDbEntity
  8
ceco.net 383
100
AcDbLine
 10
115.0000000000582
 20
966.0
 30
0.0
 11
115.0000000000582
 21
986.0
 31
0.0
  0
LINE
  5
10F
330
1F
100
AcDbEntity
  8
ceco.net 383
100
AcDbLine
 10
116.0
 20
971.4999999999999
 30
0.0
 11
116.0
 21
980.4999999999999
 31
0.0
  0
LINE
  5
110
330
1F
100
AcDbEntity
  8
ceco.net 383
100
AcDbLine
 10
104.0000000000582
 20
984.0000000001165
 30
0.0
 11
105.0346483460161
 21
984.0000000001165
 31
0.0
  0
LINE
  5
111
330
1F
100
AcDbEntity
  8
ceco.net 383
100
AcDbLine
 10
104.0000000000582
 20
968.0000000001165
 30
0.0
 11
105.0346483460161
 21
968.0000000001165
 31
0.0
  0
ARC
  5
112
330
1F
100
AcDbEntity
  8
ceco.net 383
100
AcDbCircle
 10
117.9999999999417
 20
976.0
 30
0.0
 40
12.99999999999998
100
AcDbArc
 50
157.3801350519545
 51
202.6198649480454
  0
LINE
  5
113
330
1F
100
AcDbEntity
  8
ceco.net 383
100
AcDbLine
 10
106.0
 20
966.0
 30
0.0
 11
115.0000000000582
 21
966.0
 31
0.0
  0
LINE
  5
114
330
1F
100
AcDbEntity
  8
ceco.net 383
100
AcDbLine
 10
106.0
 20
971.0
 30
0.0
 11
115.0000000000582
 21
971.0
 31
0.0
  0
LINE
  5
115
330
1F
100
AcDbEntity
  8
ceco.net 383
100
AcDbLine
 10
106.0
 20
986.0
 30
0.0
 11
115.0000000000582
 21
986.0
 31
0.0
  0
LINE
  5
116
330
1F
100
AcDbEntity
  8
ceco.net 383
100
AcDbLine
 10
106.0
 20
981.0
 30
0.0
 11
115.0000000000582
 21
981.0
 31
0.0
  0
ARC
  5
117
330
1F
100
AcDbEntity
  8
ceco.net 383
100
AcDbCircle
 10
43.00000000017462
 20
991.7196995056
 30
0.0
 40
2.999999999999995
100
AcDbArc
 50
90.0
 51
180.0
  0
LINE
  5
118
330
1F
100
AcDbEntity
  8
ceco.net 383
100
AcDbLine
 10
43.00000000017462
 20
994.7196995054836
 30
0.0
 11
46.0000000000582
 21
994.7196995054836
 31
0.0
  0
ARC
  5
119
330
1F
100
AcDbEntity
  8
ceco.net 383
100
AcDbCircle
 10
43.00000000017462
 20
960.2803004946327
 30
0.0
 40
2.999999999999995
100
AcDbArc
 50
180.0
 51
270.0
  0
LINE
  5
11A
330
1F
100
AcDbEntity
  8
ceco.net 383
100
AcDbLine
 10
43.00000000017462
 20
957.2803004945162
 30
0.0
 11
46.00113707105629
 21
957.2803004945162
 31
0.0
  0
LINE
  5
11B
330
1F
100
AcDbEntity
  8
ceco.net 383
100
AcDbLine
 10
40.0
 20
960.2803004946327
 30
0.0
 11
40.0
 21
991.7196995056
 31
0.0
  0
ARC
  5
11C
330
1F
100
AcDbEntity
  8
ceco.net 383
100
AcDbCircle
 10
0.0
 20
958.5000000001164
 30
0.0
 40
15.00000000000002
100
AcDbArc
 50
270.0
 51
0.0
  0
ARC
  5
11D
330
1F
100
AcDbEntity
  8
ceco.net 383
100
AcDbCircle
 10
0.0
 20
993.5000000001164
 30
0.0
 40
15.00000000000002
100
AcDbArc
 50
0.0
 51
90.0
  0
LINE
  5
11E
330
1F
100
AcDbEntity
  8
ceco.net 383
100
AcDbLine
 10
40.0
 20
960.0000000001164
 30
0.0
 11
15.00000000011641
 21
960.0000000001164
 31
0.0
  0
LINE
  5
11F
330
1F
100
AcDbEntity
  8
ceco.net 383
100
AcDbLine
 10
40.0
 20
992.0000000001165
 30
0.0
 11
15.00000000011641
 21
992.0000000001165
 31
0.0
  0
LINE
  5
120
330
1F
100
AcDbEntity
  8
ceco.net 383
100
AcDbLine
 10
86.69117725139949
 20
925.772973948624
 30
0.0
 11
94.48709568713093
 21
937.4996553820093
 31
0.0
  0
ARC
  5
121
330
1F
100
AcDbEntity
  8
ceco.net 383
100
AcDbCircle
 10
75.00000000005821
 20
942.0
 30
0.0
 40
20.00000000000008
100
AcDbArc
 50
290.6121384049599
 51
305.7718317865066
  0
ARC
  5
122
330
1F
100
AcDbEntity
  8
ceco.net 383
100
AcDbCircle
 10
75.00000000005821
 20
942.0
 30
0.0
 40
20.00000000000008
100
AcDbArc
 50
346.9961085964279
 51
0.0
  0
LINE
  5
123
330
1F
100
AcDbEntity
  8
ceco.net 383
100
AcDbLine
 10
63.30882274848409
 20
925.772973948624
 30
0.0
 11
55.51290431304369
 21
937.4996553820093
 31
0.0
  0
ARC
  5
124
330
1F
100
AcDbEntity
  8
ceco.net 383
100
AcDbCircle
 10
75.00000000005821
 20
942.0
 30
0.0
 40
20.00000000000008
100
AcDbArc
 50
234.2281682134934
 51
249.38786159504
  0
LINE
  5
125
330
1F
100
AcDbEntity
  8
ceco.net 383
100
AcDbLine
 10
82.04079899046337
 20
923.2803004945163
 30
0.0
 11
67.95920100947842
 21
923.2803004945163
 31
0.0
  0
ARC
  5
126
330
1F
100
AcDbEntity
  8
ceco.net 383
100
AcDbCircle
 10
75.00000000005821
 20
942.0
 30
0.0
 40
20.00000000000008
100
AcDbArc
 50
0.0
 51
13.0038914035721
  0
ARC
  5
127
330
1F
100
AcDbEntity
  8
ceco.net 383
100
AcDbCircle
 10
75.00000000005821
 20
942.0
 30
0.0
 40
20.00000000000008
100
AcDbArc
 50
54.22816821349341
 51
69.38786159504008
  0
ARC
  5
128
330
1F
100
AcDbEntity
  8
ceco.net 383
100
AcDbCircle
 10
75.00000000005821
 20
942.0
 30
0.0
 40
20.00000000000008
100
AcDbArc
 50
110.6121384049599
 51
125.7718317865065
  0
LINE
  5
129
330
1F
100
AcDbEntity
  8
ceco.net 383
100
AcDbLine
 10
63.30882274848409
 20
958.2270260516088
 30
0.0
 11
55.51290431304369
 21
946.5003446179908
 31
0.0
  0
LINE
  5
12A
330
1F
100
AcDbEntity
  8
ceco.net 383
100
AcDbLine
 10
82.04079899046337
 20
960.7196995054836
 30
0.0
 11
67.95920100947842
 21
960.7196995054836
 31
0.0
  0
LINE
  5
12B
330
1F
100
AcDbEntity
  8
ceco.net 383
100
AcDbLine
 10
86.69117725139949
 20
958.2270260516088
 30
0.0
 11
94.48709568713093
 21
946.5003446179908
 31
0.0
  0
ARC
  5
12C
330
1F
100
AcDbEntity
  8
ceco.net 383
100
AcDbCircle
 10
75.00000000005821
 20
942.0
 30
0.0
 40
20.00000000000008
100
AcDbArc
 50
166.9961085964278
 51
193.0038914035721
  0
ARC
  5
12D
330
1F
100
AcDbEntity
  8
ceco.net 383
100
AcDbCircle
 10
49.0
 20
1011.500000000116
 30
0.0
 40
2.999999999999995
100
AcDbArc
 50
90.0
 51
180.0
  0
ARC
  5
12E
330
1F
100
AcDbEntity
  8
ceco.net 383
100
AcDbCircle
 10
49.0
 20
924.3302435079822
 30
0.0
 40
9.999999999999984
100
AcDbArc
 50
0.0
 51
42.69503587177847
  0
LINE
  5
12F
330
1F
100
AcDbEntity
  8
ceco.net 383
100
AcDbLine
 10
59.0
 20
922.4999999999999
 30
0.0
 11
59.0
 21
924.3302435079822
 31
0.0
  0
ARC
  5
130
330
1F
100
AcDbEntity
  8
ceco.net 383
100
AcDbCircle
 10
85.05197279853746
 20
957.5922636684262
 30
0.0
 40
39.05208178887773
100
AcDbArc
 50
179.8646340098898
 51
222.6950358717784
  0
LINE
  5
131
330
1F
100
AcDbEntity
  8
ceco.net 383
100
AcDbLine
 10
46.0000000000582
 20
957.6845273365034
 30
0.0
 11
46.0000000000582
 21
1011.500000000116
 31
0.0
  0
LINE
  5
132
330
1F
100
AcDbEntity
  8
ceco.net 383
100
AcDbLine
 10
104.0000000000582
 20
957.6845273365034
 30
0.0
 11
104.0000000000582
 21
1011.500000000116
 31
0.0
  0
ARC
  5
133
330
1F
100
AcDbEntity
  8
ceco.net 383
100
AcDbCircle
 10
101.0000000001164
 20
1011.500000000116
 30
0.0
 40
2.999999999999995
100
AcDbArc
 50
0.0
 51
90.0
  0
LINE
  5
134
330
1F
100
AcDbEntity
  8
ceco.net 383
100
AcDbLine
 10
104.0000000000582
 20
1005.500000000116
 30
0.0
 11
46.0000000000582
 21
1005.500000000116
 31
0.0
  0
LINE
  5
135
330
1F
100
AcDbEntity
  8
ceco.net 383
100
AcDbLine
 10
70.5000000000582
 20
1025.500000000116
 30
0.0
 11
70.5000000000582
 21
1026.500000000116
 31
0.0
  0
LINE
  5
136
330
1F
100
AcDbEntity
  8
ceco.net 383
100
AcDbLine
 10
79.50000000005821
 20
1026.500000000116
 30
0.0
 11
70.5000000000582
 21
1026.500000000116
 31
0.0
  0
LINE
  5
137
330
1F
100
AcDbEntity
  8
ceco.net 383
100
AcDbLine
 10
79.50000000005821
 20
1025.500000000116
 30
0.0
 11
79.50000000005821
 21
1026.500000000116
 31
0.0
  0
ARC
  5
138
330
1F
100
AcDbEntity
  8
ceco.net 383
100
AcDbCircle
 10
75.00000000005821
 20
1028.499999999999
 30
0.0
 40
12.99999999999998
100
AcDbArc
 50
247.3801350519545
 51
292.6198649480454
  0
LINE
  5
139
330
1F
100
AcDbEntity
  8
ceco.net 383
100
AcDbLine
 10
67.00000000005821
 20
1014.499999999999
 30
0.0
 11
67.00000000005821
 21
1015.534648345899
 31
0.0
  0
LINE
  5
13A
330
1F
100
AcDbEntity
  8
ceco.net 383
100
AcDbLine
 10
83.00000000011641
 20
1014.499999999999
 30
0.0
 11
83.00000000011641
 21
1015.534648345899
 31
0.0
  0
LINE
  5
13B
330
1F
100
AcDbEntity
  8
ceco.net 383
100
AcDbLine
 10
69.99999999994179
 20
1016.500000000116
 30
0.0
 11
69.99999999994179
 21
1025.500000000116
 31
0.0
  0
LINE
  5
13C
330
1F
100
AcDbEntity
  8
ceco.net 383
100
AcDbLine
 10
65.00000000005821
 20
1016.500000000116
 30
0.0
 11
65.00000000005821
 21
1025.500000000116
 31
0.0
  0
LINE
  5
13D
330
1F
100
AcDbEntity
  8
ceco.net 383
100
AcDbLine
 10
79.99999999994179
 20
1016.500000000116
 30
0.0
 11
79.99999999994179
 21
1025.500000000116
 31
0.0
  0
LINE
  5
13E
330
1F
100
AcDbEntity
  8
ceco.net 383
100
AcDbLine
 10
85.00000000005821
 20
1016.500000000116
 30
0.0
 11
85.00000000005821
 21
1025.500000000116
 31
0.0
  0
LINE
  5
13F
330
1F
100
AcDbEntity
  8
ceco.net 383
100
AcDbLine
 10
91.00000000017463
 20
706.0
 30
0.0
 11
91.00000000017463
 21
910.5000000001163
 31
0.0
  0
LINE
  5
140
330
1F
100
AcDbEntity
  8
ceco.net 383
100
AcDbLine
 10
59.0
 20
706.0
 30
0.0
 11
59.0
 21
910.5000000001163
 31
0.0
  0
ARC
  5
141
330
1F
100
AcDbEntity
  8
ceco.net 383
100
AcDbCircle
 10
64.94802720140433
 20
957.5922636684262
 30
0.0
 40
39.05208178887773
100
AcDbArc
 50
317.3049641282215
 51
0.1353659901101966
  0
ARC
  5
142
330
1F
100
AcDbEntity
  8
ceco.net 383
100
AcDbCircle
 10
57.50000000011642
 20
919.5000000001163
 30
0.0
 40
2.999999999999995
100
AcDbArc
 50
90.0
 51
180.0
  0
ARC
  5
143
330
1F
100
AcDbEntity
  8
ceco.net 383
100
AcDbCircle
 10
57.50000000011642
 20
913.4999999999999
 30
0.0
 40
2.999999999999995
100
AcDbArc
 50
180.0
 51
270.0
  0
LINE
  5
144
330
1F
100
AcDbEntity
  8
ceco.net 383
100
AcDbLine
 10
54.5
 20
913.4999999999999
 30
0.0
 11
54.5
 21
919.5000000001163
 31
0.0
  0
LINE
  5
145
330
1F
100
AcDbEntity
  8
ceco.net 383
100
AcDbLine
 10
75.00000000005821
 20
922.4999999999999
 30
0.0
 11
75.00000000005821
 21
910.5000000001163
 31
0.0
  0
LINE
  5
146
330
1F
100
AcDbEntity
  8
ceco.net 383
100
AcDbLine
 10
91.00000000017463
 20
922.4999999999999
 30
0.0
 11
91.00000000017463
 21
924.3302435079822
 31
0.0
  0
ARC
  5
147
330
1F
100
AcDbEntity
  8
ceco.net 383
100
AcDbCircle
 10
92.5
 20
919.5000000001163
 30
0.0
 40
2.999999999999995
100
AcDbArc
 50
0.0
 51
90.0
  0
ARC
  5
148
330
1F
100
AcDbEntity
  8
ceco.net 383
100
AcDbCircle
 10
92.5
 20
913.4999999999999
 30
0.0
 40
2.999999999999995
100
AcDbArc
 50
270.0
 51
0.0
  0
LINE
  5
149
330
1F
100
AcDbEntity
  8
ceco.net 383
100
AcDbLine
 10
95.49999999994179
 20
913.4999999999999
 30
0.0
 11
95.49999999994179
 21
919.5000000001163
 31
0.0
  0
ARC
  5
14A
330
1F
100
AcDbEntity
  8
ceco.net 383
100
AcDbCircle
 10
101.0000000001164
 20
924.3302435079822
 30
0.0
 40
9.999999999999984
100
AcDbArc
 50
137.3049641282215
 51
180.0
  0
LINE
  5
14B
330
1F
100
AcDbEntity
  8
ceco.net 383
100
AcDbLine
 10
57.50000000011642
 20
922.4999999999999
 30
0.0
 11
92.5
 21
922.4999999999999
 31
0.0
  0
LINE
  5
14C
330
1F
100
AcDbEntity
  8
ceco.net 383
100
AcDbLine
 10
57.50000000011642
 20
910.5000000001163
 30
0.0
 11
92.5
 21
910.5000000001163
 31
0.0
  0
LINE
  5
14D
330
1F
100
AcDbEntity
  8
ceco.net 383
100
AcDbLine
 10
38.50000000011641
 20
691.0
 30
0.0
 11
41.99999999994179
 21
704.0000000001164
 31
0.0
  0
LINE
  5
14E
330
1F
100
AcDbEntity
  8
ceco.net 383
100
AcDbLine
 10
38.50000000011641
 20
686.0000000001164
 30
0.0
 11
38.50000000011641
 21
691.0
 31
0.0
  0
LINE
  5
14F
330
1F
100
AcDbEntity
  8
ceco.net 383
100
AcDbLine
 10
41.99999999994179
 20
704.0000000001164
 30
0.0
 11
54.00000000011641
 21
706.0
 31
0.0
  0
LINE
  5
150
330
1F
100
AcDbEntity
  8
ceco.net 383
100
AcDbLine
 10
111.4999999999999
 20
691.0
 30
0.0
 11
108.0
 21
704.0000000001164
 31
0.0
  0
LINE
  5
151
330
1F
100
AcDbEntity
  8
ceco.net 383
100
AcDbLine
 10
111.4999999999999
 20
686.0000000001164
 30
0.0
 11
111.4999999999999
 21
691.0
 31
0.0
  0
LINE
  5
152
330
1F
100
AcDbEntity
  8
ceco.net 383
100
AcDbLine
 10
108.0
 20
704.0000000001164
 30
0.0
 11
96.0000000000582
 21
706.0
 31
0.0
  0
LINE
  5
153
330
1F
100
AcDbEntity
  8
ceco.net 383
100
AcDbLine
 10
108.0
 20
704.0000000001164
 30
0.0
 11
41.99999999994179
 21
704.0000000001164
 31
0.0
  0
LINE
  5
154
330
1F
100
AcDbEntity
  8
ceco.net 383
100
AcDbLine
 10
111.4999999999999
 20
691.0
 30
0.0
 11
38.50000000011641
 21
691.0
 31
0.0
  0
LINE
  5
155
330
1F
100
AcDbEntity
  8
ceco.net 383
100
AcDbLine
 10
0.0
 20
681.0000000001164
 30
0.0
 11
0.0
 21
0.0
 31
0.0
  0
ARC
  5
156
330
1F
100
AcDbEntity
  8
ceco.net 383
100
AcDbCircle
 10
5.000000000116415
 20
130.9521415928611
 30
0.0
 40
4.999999999999992
100
AcDbArc
 50
180.0
 51
270.0
  0
ARC
  5
157
330
1F
100
AcDbEntity
  8
ceco.net 383
100
AcDbCircle
 10
5.000000000116415
 20
681.0000000001164
 30
0.0
 40
4.999999999999992
100
AcDbArc
 50
90.0
 51
180.0
  0
ARC
  5
158
330
1F
100
AcDbEntity
  8
ceco.net 383
100
AcDbCircle
 10
65.00000000005821
 20
621.0000000001164
 30
0.0
 40
9.999999999999984
100
AcDbArc
 50
90.0
 51
180.0
  0
ARC
  5
159
330
1F
100
AcDbEntity
  8
ceco.net 383
100
AcDbCircle
 10
102.1076786501216
 20
621.0000000001164
 30
0.0
 40
9.999999999999984
100
AcDbArc
 50
6.620215331965578
 51
90.0
  0
ARC
  5
15A
330
1F
100
AcDbEntity
  8
ceco.net 383
100
AcDbCircle
 10
152.0196823778678
 20
190.9521415929775
 30
0.0
 40
9.999999999999984
100
AcDbArc
 50
270.0
 51
6.620215331965578
  0
ARC
  5
15B
330
1F
100
AcDbEntity
  8
ceco.net 383
100
AcDbCircle
 10
65.00000000005821
 20
190.9521415929775
 30
0.0
 40
9.999999999999984
100
AcDbArc
 50
180.0
 51
270.0
  0
LINE
  5
15C
330
1F
100
AcDbEntity
  8
ceco.net 383
100
AcDbLine
 10
102.1076786501216
 20
631.0000000001164
 30
0.0
 11
65.00000000005821
 21
631.0000000001164
 31
0.0
  0
LINE
  5
15D
330
1F
100
AcDbEntity
  8
ceco.net 383
100
AcDbLine
 10
152.0196823778678
 20
180.9521415929775
 30
0.0
 11
65.00000000005821
 21
180.9521415929775
 31
0.0
  0
LINE
  5
15E
330
1F
100
AcDbEntity
  8
ceco.net 383
100
AcDbLine
 10
112.0410001620184
 20
622.1528762918897
 30
0.0
 11
161.9530038895318
 21
192.1050178847508
 31
0.0
  0
LINE
  5
15F
330
1F
100
AcDbEntity
  8
ceco.net 383
100
AcDbLine
 10
55.00000000011642
 20
621.0000000001164
 30
0.0
 11
55.00000000011642
 21
190.9521415929775
 31
0.0
  0
ARC
  5
160
330
1F
100
AcDbEntity
  8
ceco.net 383
100
AcDbCircle
 10
40.0
 20
107.1919148905435
 30
0.0
 40
9.999999999999984
100
AcDbArc
 50
97.56181055335032
 51
180.0
  0
LINE
  5
161
330
1F
100
AcDbEntity
  8
ceco.net 383
100
AcDbLine
 10
38.68404315540101
 20
117.1049496219493
 30
0.0
 11
105.3294819023576
 21
125.9521415928611
 31
0.0
  0
ARC
  5
162
330
1F
100
AcDbEntity
  8
ceco.net 383
100
AcDbCircle
 10
20.0
 20
17.20759220060426
 30
0.0
 40
9.999999999999984
100
AcDbArc
 50
288.4349488229261
 51
0.0
  0
LINE
  5
163
330
1F
100
AcDbEntity
  8
ceco.net 383
100
AcDbLine
 10
0.0
 20
0.0
 30
0.0
 11
23.16227766027441
 21
7.720759220072068
 31
0.0
  0
ARC
  5
164
330
1F
100
AcDbEntity
  8
ceco.net 383
100
AcDbCircle
 10
758.9969184473739
 20
465.9749623851385
 30
0.0
 40
799.9999999999988
100
AcDbArc
 50
210.1594728014837
 51
216.4705602442187
  0
ARC
  5
165
330
1F
100
AcDbEntity
  8
ceco.net 383
100
AcDbCircle
 10
50.0
 20
54.00000000011641
 30
0.0
 40
19.99999999999996
100
AcDbArc
 50
30.15947280148374
 51
180.0
  0
ARC
  5
166
330
1F
100
AcDbEntity
  8
ceco.net 383
100
AcDbCircle
 10
-497.2896956175682
 20
282.2921779551543
 30
0.0
 40
799.9999999999988
100
AcDbArc
 50
340.1660912935926
 51
346.4003866043888
  0
ARC
  5
167
330
1F
100
AcDbEntity
  8
ceco.net 383
100
AcDbCircle
 10
290.0
 20
91.83237859024666
 30
0.0
 40
9.999999999999984
100
AcDbArc
 50
105.8092059201829
 51
166.4003866043888
  0
ARC
  5
168
330
1F
100
AcDbEntity
  8
ceco.net 383
100
AcDbCircle
 10
180.0000000001164
 20
38.0
 30
0.0
 40
79.99999999999987
100
AcDbArc
 50
216.4705602442187
 51
340.1660912935926
  0
ARC
  5
169
330
1F
100
AcDbEntity
  8
ceco.net 383
100
AcDbCircle
 10
151.0934890232165
 20
676.0000000001164
 30
0.0
 40
9.999999999999984
100
AcDbArc
 50
6.620215331965578
 51
90.0
  0
ARC
  5
16A
330
1F
100
AcDbEntity
  8
ceco.net 383
100
AcDbCircle
 10
202.5445176548673
 20
145.9521415929775
 30
0.0
 40
19.99999999999996
100
AcDbArc
 50
270.0
 51
6.620215331965578
  0
LINE
  5
16B
330
1F
100
AcDbEntity
  8
ceco.net 383
100
AcDbLine
 10
83.39645909791579
 20
123.0405295321252
 30
0.0
 11
124.4413440065691
 21
87.85483216645662
 31
0.0
  0
ARC
  5
16C
330
1F
100
AcDbEntity
  8
ceco.net 383
100
AcDbCircle
 10
225.9979979219497
 20
204.0928462028968
 30
0.0
 40
9.999999999999984
100
AcDbArc
 50
186.6202153319655
 51
256.8968533576989
  0
ARC
  5
16D
330
1F
100
AcDbEntity
  8
ceco.net 383
100
AcDbCircle
 10
295.0000000001164
 20
166.0000000001164
 30
0.0
 40
59.99999999999991
100
AcDbArc
 50
285.8092059201704
 51
0.0
  0
ARC
  5
16E
330
1F
100
AcDbEntity
  8
ceco.net 383
100
AcDbCircle
 10
170.0000000001164
 20
141.0000000001164
 30
0.0
 40
69.9999999999999
100
AcDbArc
 50
229.3951910029789
 51
285.8092059201704
  0
ARC
  5
16F
330
1F
100
AcDbEntity
  8
ceco.net 383
100
AcDbCircle
 10
339.9999999999418
 20
693.8654157962883
 30
0.0
 40
512.8654157961765
100
AcDbArc
 50
256.8968533576989
 51
270.0
  0
ARC
  5
170
330
1F
100
AcDbEntity
  8
ceco.net 383
100
AcDbCircle
 10
339.9999999999418
 20
166.0000000001164
 30
0.0
 40
14.99999999999997
100
AcDbArc
 50
0.0
 51
90.0
  0
LINE
  5
171
330
1F
100
AcDbEntity
  8
ceco.net 383
100
AcDbLine
 10
161.0268105348805
 20
677.1528762918896
 30
0.0
 11
222.4111606781371
 21
148.2578941766405
 31
0.0
  0
LINE
  5
172
330
1F
100
AcDbEntity
  8
ceco.net 383
100
AcDbLine
 10
202.5445176548673
 20
125.9521415928611
 30
0.0
 11
5.000000000116415
 21
125.9521415928611
 31
0.0
  0
CIRCLE
  5
173
330
1F
100
AcDbEntity
  8
ceco.net 383
100
AcDbCircle
 10
75.00000000005821
 20
942.0
 30
0.0
 40
4.49999999999988
  0
CIRCLE
  5
174
330
1F
100
AcDbEntity
  8
ceco.net 383
100
AcDbCircle
 10
75.00000000005821
 20
942.0
 30
0.0
 40
8.499999999999987
  0
CIRCLE
  5
175
330
1F
100
AcDbEntity
  8
ceco.net 383
100
AcDbCircle
 10
75.00000000005821
 20
942.0
 30
0.0
 40
8.999999999999987
  0
CIRCLE
  5
176
330
1F
100
AcDbEntity
  8
ceco.net 383
100
AcDbCircle
 10
75.00000000005821
 20
942.0
 30
0.0
 40
15.49999999999986
  0
LWPOLYLINE
  5
177
330
1F
100
AcDbEntity
  8
ceco.net 383
100
AcDbPolyline
 90
        8
 70
     0
 43
0.0
 10
46.0000000000582
 20
971.4741876127664
 42
0.0810022706404976
 10
44.4706243367982
 20
971.0617108570877
 42
0.1015123885161035
 10
42.70635867852251
 20
969.7823226465843
 42
0.0949753231426615
 10
41.55024407600286
 20
967.9036746011115
 42
0.1831482849327062
 10
41.55024407600286
 20
963.3689547295217
 42
0.0949753231426615
 10
42.70635867852251
 20
961.4903066840488
 42
0.1015123885161035
 10
44.4706243367982
 20
960.2109184735454
 42
0.0810022706404976
 10
46.0000000000582
 20
959.7984417178668
  0
LWPOLYLINE
  5
178
330
1F
100
AcDbEntity
  8
ceco.net 383
100
AcDbPolyline
 90
        8
 70
     0
 43
0.0
 10
46.0000000000582
 20
992.3143653920851
 42
0.0810022706414332
 10
44.4706243367982
 20
991.90188863629
 42
0.1015123885178265
 10
42.70635867852251
 20
990.6225004257867
 42
0.094975323142793
 10
41.55024407600286
 20
988.7438523804304
 42
0.183148284928638
 10
41.55024407600286
 20
984.209132508724
 42
0.0949753231437589
 10
42.70635867852251
 20
982.3304844633677
 42
0.1015123885168867
 10
44.4706243367982
 20
981.0510962527478
 42
0.0810022706423046
 10
46.0000000000582
 20
980.6386194969528
  0
LWPOLYLINE
  5
179
330
1F
100
AcDbEntity
  8
ceco.net 383
100
AcDbPolyline
 90
       13
 70
     1
 43
0.0
 10
92.691320573329
 20
918.3650468101259
 42
0.1071686809088808
 10
90.82979116466594
 20
920.2040340594249
 42
0.0772958843493395
 10
88.28998185484669
 20
921.3124444156418
 42
0.129320880888555
 10
81.70402630255557
 20
921.3124444156418
 42
0.0772958843493395
 10
79.16421699273633
 20
920.2040340594249
 42
0.1071686809088809
 10
77.30268758407328
 20
918.3650468101259
 42
0.2973062691344349
 10
77.30268758407328
 20
914.6349531899904
 42
0.1071686809088809
 10
79.16421699273633
 20
912.7959659406915
 42
0.0772958843493394
 10
81.70402630255557
 20
911.6875555844744
 42
0.129320880888555
 10
88.28998185484669
 20
911.6875555844744
 42
0.0772958843493394
 10
90.82979116466594
 20
912.7959659406915
 42
0.1071686809088809
 10
92.691320573329
 20
914.6349531899904
 42
0.1455058571532096
 10
93.24581068224507
 20
916.5000000001164
 42
0.1455058571532094
  0
LWPOLYLINE
  5
17A
330
1F
100
AcDbEntity
  8
ceco.net 383
100
AcDbPolyline
 90
       13
 70
     1
 43
0.0
 10
57.3086794266128
 20
914.6349531899904
 42
0.1071686809088809
 10
59.17020883521764
 20
912.7959659406915
 42
0.0772958843493394
 10
61.71001814509509
 20
911.6875555844744
 42
0.1293208808867387
 10
68.29597369756084
 20
911.6875555844744
 42
0.0772958843493394
 10
70.83578300743829
 20
912.7959659406915
 42
0.1071686809088809
 10
72.69731241604313
 20
914.6349531899904
 42
0.1455058571527076
 10
73.25180252478458
 20
916.5000000001164
 42
0.1455058571527076
 10
72.69731241604313
 20
918.3650468101259
 42
0.1071686809088808
 10
70.83578300743829
 20
920.2040340594249
 42
0.0772958843493395
 10
68.29597369756084
 20
921.3124444156418
 42
0.1293208808867387
 10
61.71001814509509
 20
921.3124444156418
 42
0.0772958843493395
 10
59.17020883521764
 20
920.2040340594249
 42
0.1071686809088809
 10
57.3086794266128
 20
918.3650468101259
 42
0.2973062690789967
  0
ENDSEC
  0
SECTION
  2
OBJECTS
  0
DICTIONARY
  5
C
330
0
100
AcDbDictionary
281
     1
  3
ACAD_GROUP
350
D
  3
ACAD_LAYOUT
350
1A
  3
ACAD_MLINESTYLE
350
17
  3
ACAD_PLOTSETTINGS
350
19
  3
ACAD_PLOTSTYLENAME
350
E
  3
AcDbVariableDictionary
350
5E
  0
DICTIONARY
  5
D
102
{ACAD_REACTORS
330
C
102
}
330
C
100
AcDbDictionary
281
     1
  3
*A1
350
80
  0
DICTIONARY
  5
1A
102
{ACAD_REACTORS
330
C
102
}
330
C
100
AcDbDictionary
281
     1
  3
Layout1
350
51
  3
Layout2
350
56
  3
Model
350
22
  0
DICTIONARY
  5
17
102
{ACAD_REACTORS
330
C
102
}
330
C
100
AcDbDictionary
281
     1
  3
Standard
350
18
  0
DICTIONARY
  5
19
102
{ACAD_REACTORS
330
C
102
}
330
C
100
AcDbDictionary
281
     1
  0
ACDBDICTIONARYWDFLT
  5
E
102
{ACAD_REACTORS
330
C
102
}
330
C
100
AcDbDictionary
281
     1
  3
Normal
350
F
100
AcDbDictionaryWithDefault
340
F
  0
DICTIONARY
  5
5E
102
{ACAD_REACTORS
330
C
102
}
330
C
100
AcDbDictionary
281
     1
  3
DIMASSOC
350
5F
  3
HIDETEXT
350
63
  0
GROUP
  5
80
102
{ACAD_REACTORS
330
D
102
}
330
D
100
AcDbGroup
300
01
 70
     0
 71
     1
  0
LAYOUT
  5
51
102
{ACAD_REACTORS
330
1A
102
}
330
1A
100
AcDbPlotSettings
  1

  2
None
  4

  6

 40
0.0
 41
0.0
 42
0.0
 43
0.0
 44
0.0
 45
0.0
 46
0.0
 47
0.0
 48
0.0
 49
0.0
140
0.0
141
0.0
142
1.0
143
1.0
 70
   688
 72
     0
 73
     0
 74
     5
  7

 75
    16
147
1.0
148
0.0
149
0.0
100
AcDbLayout
  1
Layout1
 70
     1
 71
     1
 10
0.0
 20
0.0
 11
12.0
 21
9.0
 12
0.0
 22
0.0
 32
0.0
 14
0.0
 24
0.0
 34
0.0
 15
0.0
 25
0.0
 35
0.0
146
0.0
 13
0.0
 23
0.0
 33
0.0
 16
1.0
 26
0.0
 36
0.0
 17
0.0
 27
1.0
 37
0.0
 76
     0
330
50
  0
LAYOUT
  5
56
102
{ACAD_REACTORS
330
1A
102
}
330
1A
100
AcDbPlotSettings
  1

  2
None
  4

  6

 40
0.0
 41
0.0
 42
0.0
 43
0.0
 44
0.0
 45
0.0
 46
0.0
 47
0.0
 48
0.0
 49
0.0
140
0.0
141
0.0
142
1.0
143
1.0
 70
   688
 72
     0
 73
     0
 74
     5
  7

 75
    16
147
1.0
148
0.0
149
0.0
100
AcDbLayout
  1
Layout2
 70
     1
 71
     2
 10
0.0
 20
0.0
 11
12.0
 21
9.0
 12
0.0
 22
0.0
 32
0.0
 14
0.0
 24
0.0
 34
0.0
 15
0.0
 25
0.0
 35
0.0
146
0.0
 13
0.0
 23
0.0
 33
0.0
 16
1.0
 26
0.0
 36
0.0
 17
0.0
 27
1.0
 37
0.0
 76
     0
330
55
  0
LAYOUT
  5
22
102
{ACAD_REACTORS
330
1A
102
}
330
1A
100
AcDbPlotSettings
  1

  2
none_device
  4
ANSI_A_(8.50_x_11.00_Inches)
  6

 40
6.349999904632568
 41
19.04999923706054
 42
6.350006103515625
 43
19.04998779296875
 44
215.8999938964843
 45
279.3999938964843
 46
0.0
 47
0.0
 48
0.0
 49
0.0
140
0.0
141
0.0
142
1.0
143
78.436453180766
 70
 11952
 72
     0
 73
     1
 74
     0
  7

 75
     0
147
0.0127491741332998
148
0.0
149
0.0
100
AcDbLayout
  1
Model
 70
     1
 71
     0
 10
0.0
 20
0.0
 11
12.0
 21
9.0
 12
0.0
 22
0.0
 32
0.0
 14
0.0
 24
0.0
 34
0.0
 15
0.0
 25
0.0
 35
0.0
146
0.0
 13
0.0
 23
0.0
 33
0.0
 16
1.0
 26
0.0
 36
0.0
 17
0.0
 27
1.0
 37
0.0
 76
     0
330
1F
  0
MLINESTYLE
  5
18
102
{ACAD_REACTORS
330
17
102
}
330
17
100
AcDbMlineStyle
  2
STANDARD
 70
     0
  3

 62
   256
 51
90.0
 52
90.0
 71
     2
 49
0.5
 62
   256
  6
BYLAYER
 49
-0.5
 62
   256
  6
BYLAYER
  0
ACDBPLACEHOLDER
  5
F
102
{ACAD_REACTORS
330
E
102
}
330
E
  0
DICTIONARYVAR
  5
5F
102
{ACAD_REACTORS
330
5E
102
}
330
5E
100
DictionaryVariables
280
     0
  1
2
  0
DICTIONARYVAR
  5
63
102
{ACAD_REACTORS
330
5E
102
}
330
5E
100
DictionaryVariables
280
     0
  1
1
  0
ENDSEC
  0
EOF
