  0
SECTION
  2
HEADER
  9
$ACADVER
  1
AC1015
  9
$ACADMAINTVER
 70
    13
  9
$DWGCODEPAGE
  3
ANSI_1252
  9
$INSBASE
 10
0.0
 20
0.0
 30
0.0
  9
$EXTMIN
 10
-275.643085678927
 20
2.442689940683067
 30
-0.0015258207003583
  9
$EXTMAX
 10
296.2048699920494
 20
1633.558818954381
 30
0.0000000349246037
  9
$LIMMIN
 10
0.0
 20
0.0
  9
$LIMMAX
 10
420.0
 20
297.0
  9
$ORTHOMODE
 70
     0
  9
$REGENMODE
 70
     1
  9
$FILLMODE
 70
     1
  9
$QTEXTMODE
 70
     0
  9
$MIRRTEXT
 70
     1
  9
$LTSCALE
 40
1.0
  9
$ATTMODE
 70
     1
  9
$TEXTSIZE
 40
2.5
  9
$TRACEWID
 40
1.0
  9
$TEXTSTYLE
  7
Standard
  9
$CLAYER
  8
ceco.net 140
  9
$CELTYPE
  6
ByLayer
  9
$CECOLOR
 62
   256
  9
$CELTSCALE
 40
1.0
  9
$DISPSILH
 70
     0
  9
$DIMSCALE
 40
1.0
  9
$DIMASZ
 40
2.5
  9
$DIMEXO
 40
0.625
  9
$DIMDLI
 40
3.75
  9
$DIMRND
 40
0.0
  9
$DIMDLE
 40
0.0
  9
$DIMEXE
 40
1.25
  9
$DIMTP
 40
0.0
  9
$DIMTM
 40
0.0
  9
$DIMTXT
 40
2.5
  9
$DIMCEN
 40
2.5
  9
$DIMTSZ
 40
0.0
  9
$DIMTOL
 70
     0
  9
$DIMLIM
 70
     0
  9
$DIMTIH
 70
     0
  9
$DIMTOH
 70
     0
  9
$DIMSE1
 70
     0
  9
$DIMSE2
 70
     0
  9
$DIMTAD
 70
     1
  9
$DIMZIN
 70
     8
  9
$DIMBLK
  1

  9
$DIMASO
 70
     1
  9
$DIMSHO
 70
     1
  9
$DIMPOST
  1

  9
$DIMAPOST
  1

  9
$DIMALT
 70
     0
  9
$DIMALTD
 70
     3
  9
$DIMALTF
 40
0.03937007874016
  9
$DIMLFAC
 40
1.0
  9
$DIMTOFL
 70
     1
  9
$DIMTVP
 40
0.0
  9
$DIMTIX
 70
     0
  9
$DIMSOXD
 70
     0
  9
$DIMSAH
 70
     0
  9
$DIMBLK1
  1

  9
$DIMBLK2
  1

  9
$DIMSTYLE
  2
ISO-25
  9
$DIMCLRD
 70
     0
  9
$DIMCLRE
 70
     0
  9
$DIMCLRT
 70
     0
  9
$DIMTFAC
 40
1.0
  9
$DIMGAP
 40
0.625
  9
$DIMJUST
 70
     0
  9
$DIMSD1
 70
     0
  9
$DIMSD2
 70
     0
  9
$DIMTOLJ
 70
     0
  9
$DIMTZIN
 70
     8
  9
$DIMALTZ
 70
     0
  9
$DIMALTTZ
 70
     0
  9
$DIMUPT
 70
     0
  9
$DIMDEC
 70
     2
  9
$DIMTDEC
 70
     2
  9
$DIMALTU
 70
     2
  9
$DIMALTTD
 70
     3
  9
$DIMTXSTY
  7
Standard
  9
$DIMAUNIT
 70
     0
  9
$DIMADEC
 70
     0
  9
$DIMALTRND
 40
0.0
  9
$DIMAZIN
 70
     0
  9
$DIMDSEP
 70
    44
  9
$DIMATFIT
 70
     3
  9
$DIMFRAC
 70
     0
  9
$DIMLDRBLK
  1

  9
$DIMLUNIT
 70
     2
  9
$DIMLWD
 70
    -2
  9
$DIMLWE
 70
    -2
  9
$DIMTMOVE
 70
     0
  9
$LUNITS
 70
     2
  9
$LUPREC
 70
     2
  9
$SKETCHINC
 40
1.0
  9
$FILLETRAD
 40
10.0
  9
$AUNITS
 70
     0
  9
$AUPREC
 70
     0
  9
$MENU
  1
.
  9
$ELEVATION
 40
0.0
  9
$PELEVATION
 40
0.0
  9
$THICKNESS
 40
0.0
  9
$LIMCHECK
 70
     0
  9
$CHAMFERA
 40
10.0
  9
$CHAMFERB
 40
10.0
  9
$CHAMFERC
 40
20.0
  9
$CHAMFERD
 40
0.0
  9
$SKPOLY
 70
     0
  9
$TDCREATE
 40
2455079.811409143
  9
$TDUCREATE
 40
2455079.936409144
  9
$TDUPDATE
 40
2456726.514191018
  9
$TDUUPDATE
 40
2456726.639191018
  9
$TDINDWG
 40
0.0475458102
  9
$TDUSRTIMER
 40
0.0475458102
  9
$USRTIMER
 70
     1
  9
$ANGBASE
 50
0.0
  9
$ANGDIR
 70
     0
  9
$PDMODE
 70
     0
  9
$PDSIZE
 40
0.0
  9
$PLINEWID
 40
0.0
  9
$SPLFRAME
 70
     0
  9
$SPLINETYPE
 70
     6
  9
$SPLINESEGS
 70
     8
  9
$HANDSEED
  5
9ED
  9
$SURFTAB1
 70
     6
  9
$SURFTAB2
 70
     6
  9
$SURFTYPE
 70
     6
  9
$SURFU
 70
     6
  9
$SURFV
 70
     6
  9
$UCSBASE
  2

  9
$UCSNAME
  2

  9
$UCSORG
 10
0.0
 20
0.0
 30
0.0
  9
$UCSXDIR
 10
1.0
 20
0.0
 30
0.0
  9
$UCSYDIR
 10
0.0
 20
1.0
 30
0.0
  9
$UCSORTHOREF
  2

  9
$UCSORTHOVIEW
 70
     0
  9
$UCSORGTOP
 10
0.0
 20
0.0
 30
0.0
  9
$UCSORGBOTTOM
 10
0.0
 20
0.0
 30
0.0
  9
$UCSORGLEFT
 10
0.0
 20
0.0
 30
0.0
  9
$UCSORGRIGHT
 10
0.0
 20
0.0
 30
0.0
  9
$UCSORGFRONT
 10
0.0
 20
0.0
 30
0.0
  9
$UCSORGBACK
 10
0.0
 20
0.0
 30
0.0
  9
$PUCSBASE
  2

  9
$PUCSNAME
  2

  9
$PUCSORG
 10
0.0
 20
0.0
 30
0.0
  9
$PUCSXDIR
 10
1.0
 20
0.0
 30
0.0
  9
$PUCSYDIR
 10
0.0
 20
1.0
 30
0.0
  9
$PUCSORTHOREF
  2

  9
$PUCSORTHOVIEW
 70
     0
  9
$PUCSORGTOP
 10
0.0
 20
0.0
 30
0.0
  9
$PUCSORGBOTTOM
 10
0.0
 20
0.0
 30
0.0
  9
$PUCSORGLEFT
 10
0.0
 20
0.0
 30
0.0
  9
$PUCSORGRIGHT
 10
0.0
 20
0.0
 30
0.0
  9
$PUCSORGFRONT
 10
0.0
 20
0.0
 30
0.0
  9
$PUCSORGBACK
 10
0.0
 20
0.0
 30
0.0
  9
$USERI1
 70
     0
  9
$USERI2
 70
     0
  9
$USERI3
 70
     0
  9
$USERI4
 70
     0
  9
$USERI5
 70
     0
  9
$USERR1
 40
0.0
  9
$USERR2
 40
0.0
  9
$USERR3
 40
0.0
  9
$USERR4
 40
0.0
  9
$USERR5
 40
0.0
  9
$WORLDVIEW
 70
     1
  9
$SHADEDGE
 70
     3
  9
$SHADEDIF
 70
    70
  9
$TILEMODE
 70
     1
  9
$MAXACTVP
 70
    64
  9
$PINSBASE
 10
0.0
 20
0.0
 30
0.0
  9
$PLIMCHECK
 70
     0
  9
$PEXTMIN
 10
1.000000000000000E+20
 20
1.000000000000000E+20
 30
1.000000000000000E+20
  9
$PEXTMAX
 10
-1.000000000000000E+20
 20
-1.000000000000000E+20
 30
-1.000000000000000E+20
  9
$PLIMMIN
 10
0.0
 20
0.0
  9
$PLIMMAX
 10
420.0
 20
297.0
  9
$UNITMODE
 70
     0
  9
$VISRETAIN
 70
     1
  9
$PLINEGEN
 70
     0
  9
$PSLTSCALE
 70
     1
  9
$TREEDEPTH
 70
  3020
  9
$CMLSTYLE
  2
Standard
  9
$CMLJUST
 70
     0
  9
$CMLSCALE
 40
20.0
  9
$PROXYGRAPHICS
 70
     1
  9
$MEASUREMENT
 70
     1
  9
$CELWEIGHT
370
    -1
  9
$ENDCAPS
280
     0
  9
$JOINSTYLE
280
     0
  9
$LWDISPLAY
290
     0
  9
$INSUNITS
 70
     4
  9
$HYPERLINKBASE
  1

  9
$STYLESHEET
  1

  9
$XEDIT
290
     1
  9
$CEPSNTYPE
380
     0
  9
$PSTYLEMODE
290
     1
  9
$FINGERPRINTGUID
  2
{81085373-3A21-4932-80AA-8F6C3258C50C}
  9
$VERSIONGUID
  2
{0E8DB46E-CECE-498B-97F2-941F6C724C29}
  9
$EXTNAMES
290
     1
  9
$PSVPSCALE
 40
0.0
  9
$OLESTARTUP
290
     0
  0
ENDSEC
  0
SECTION
  2
CLASSES
  0
CLASS
  1
ACDBDICTIONARYWDFLT
  2
AcDbDictionaryWithDefault
  3
AutoCAD 2000
 90
        0
280
     0
281
     0
  0
CLASS
  1
ACDBPLACEHOLDER
  2
AcDbPlaceHolder
  3
AutoCAD 2000
 90
        0
280
     0
281
     0
  0
CLASS
  1
LAYOUT
  2
AcDbLayout
  3
AutoCAD 2000
 90
        0
280
     0
281
     0
  0
CLASS
  1
DICTIONARYVAR
  2
AcDbDictionaryVar
  3
AutoCAD 2000
 90
        0
280
     0
281
     0
  0
ENDSEC
  0
SECTION
  2
TABLES
  0
TABLE
  2
VPORT
  5
8
330
0
100
AcDbSymbolTable
 70
     3
  0
VPORT
  5
9EC
330
8
100
AcDbSymbolTableRecord
100
AcDbViewportTableRecord
  2
*Active
 70
     0
 10
0.0
 20
0.0
 11
1.0
 21
1.0
 12
10.28089215656109
 22
818.0007544475323
 13
0.0
 23
0.0
 14
10.0
 24
10.0
 15
10.0
 25
10.0
 16
0.0
 26
0.0
 36
1.0
 17
0.0
 27
0.0
 37
0.0
 40
1642.698018687168
 41
2.184834123222748
 42
50.0
 43
0.0
 44
0.0
 50
0.0
 51
0.0
 71
     0
 72
   100
 73
     1
 74
     3
 75
     0
 76
     0
 77
     0
 78
     0
281
     0
 65
     1
110
0.0
120
0.0
130
0.0
111
1.0
121
0.0
131
0.0
112
0.0
122
1.0
132
0.0
 79
     0
146
0.0
  0
ENDTAB
  0
TABLE
  2
LTYPE
  5
5
330
0
100
AcDbSymbolTable
 70
     1
  0
LTYPE
  5
14
330
5
100
AcDbSymbolTableRecord
100
AcDbLinetypeTableRecord
  2
ByBlock
 70
     0
  3

 72
    65
 73
     0
 40
0.0
  0
LTYPE
  5
15
330
5
100
AcDbSymbolTableRecord
100
AcDbLinetypeTableRecord
  2
ByLayer
 70
     0
  3

 72
    65
 73
     0
 40
0.0
  0
LTYPE
  5
16
330
5
100
AcDbSymbolTableRecord
100
AcDbLinetypeTableRecord
  2
Continuous
 70
     0
  3
Solid line
 72
    65
 73
     0
 40
0.0
  0
ENDTAB
  0
TABLE
  2
LAYER
  5
2
102
{ACAD_XDICTIONARY
360
900
102
}
330
0
100
AcDbSymbolTable
 70
     2
  0
LAYER
  5
10
330
2
100
AcDbSymbolTableRecord
100
AcDbLayerTableRecord
  2
0
 70
     0
 62
     7
  6
Continuous
370
    -3
390
F
  0
LAYER
  5
8F5
102
{ACAD_XDICTIONARY
360
8F6
102
}
330
2
100
AcDbSymbolTableRecord
100
AcDbLayerTableRecord
  2
ceco.net 140
 70
     0
 62
     7
  6
Continuous
370
    -3
390
F
1001
AcAecLayerStandard
1000

1000

  0
ENDTAB
  0
TABLE
  2
STYLE
  5
3
330
0
100
AcDbSymbolTable
 70
     1
  0
STYLE
  5
11
330
3
100
AcDbSymbolTableRecord
100
AcDbTextStyleTableRecord
  2
Standard
 70
     0
 40
0.0
 41
1.0
 50
0.0
 71
     0
 42
2.5
  3
txt
  4

  0
ENDTAB
  0
TABLE
  2
VIEW
  5
6
330
0
100
AcDbSymbolTable
 70
     0
  0
ENDTAB
  0
TABLE
  2
UCS
  5
7
330
0
100
AcDbSymbolTable
 70
     0
  0
ENDTAB
  0
TABLE
  2
APPID
  5
9
330
0
100
AcDbSymbolTable
 70
    12
  0
APPID
  5
12
330
9
100
AcDbSymbolTableRecord
100
AcDbRegAppTableRecord
  2
ACAD
 70
     0
  0
APPID
  5
2C
330
9
100
AcDbSymbolTableRecord
100
AcDbRegAppTableRecord
  2
ACAD_DSTYLE_DIMJOGGED_JOGANGLE_SYMBOL
 70
     0
  0
APPID
  5
11B
330
9
100
AcDbSymbolTableRecord
100
AcDbRegAppTableRecord
  2
ACAD_NAV_VCDISPLAY
 70
     0
  0
APPID
  5
11C
330
9
100
AcDbSymbolTableRecord
100
AcDbRegAppTableRecord
  2
ACAD_MLEADERVER
 70
     0
  0
APPID
  5
8F8
330
9
100
AcDbSymbolTableRecord
100
AcDbRegAppTableRecord
  2
ACAD_PSEXT
 70
     0
  0
APPID
  5
8F9
330
9
100
AcDbSymbolTableRecord
100
AcDbRegAppTableRecord
  2
ACAD_DSTYLE_DIMEXT_LENGTH
 70
     0
  0
APPID
  5
8FA
330
9
100
AcDbSymbolTableRecord
100
AcDbRegAppTableRecord
  2
ACAD_DSTYLE_DIMEXT_ENABLED
 70
     0
  0
APPID
  5
8FB
330
9
100
AcDbSymbolTableRecord
100
AcDbRegAppTableRecord
  2
ACAD_DSTYLE_DIMARC_LENGTH_SYMBOL
 70
     0
  0
APPID
  5
8FC
330
9
100
AcDbSymbolTableRecord
100
AcDbRegAppTableRecord
  2
AcAecLayerStandard
 70
     0
  0
APPID
  5
8FD
330
9
100
AcDbSymbolTableRecord
100
AcDbRegAppTableRecord
  2
ACAD_DSTYLE_DIM_LINETYPE
 70
     0
  0
APPID
  5
8FE
330
9
100
AcDbSymbolTableRecord
100
AcDbRegAppTableRecord
  2
ACAD_DSTYLE_DIM_EXT1_LINETYPE
 70
     0
  0
APPID
  5
8FF
330
9
100
AcDbSymbolTableRecord
100
AcDbRegAppTableRecord
  2
ACAD_DSTYLE_DIM_EXT2_LINETYPE
 70
     0
  0
ENDTAB
  0
TABLE
  2
DIMSTYLE
  5
A
330
0
100
AcDbSymbolTable
 70
     2
100
AcDbDimStyleTable
 71
     0
  0
DIMSTYLE
105
27
330
A
100
AcDbSymbolTableRecord
100
AcDbDimStyleTableRecord
  2
ISO-25
 70
     0
 41
2.5
 42
0.625
 43
3.75
 44
1.25
 73
     0
 74
     0
 77
     1
 78
     8
140
2.5
141
2.5
143
0.03937007874016
147
0.625
171
     3
172
     1
271
     2
272
     2
274
     3
278
    44
283
     0
284
     8
340
11
  0
DIMSTYLE
105
2B
330
A
100
AcDbSymbolTableRecord
100
AcDbDimStyleTableRecord
  2
Standard
 70
     0
340
11
  0
ENDTAB
  0
TABLE
  2
BLOCK_RECORD
  5
1
330
0
100
AcDbSymbolTable
 70
     2
  0
BLOCK_RECORD
  5
1F
330
1
100
AcDbSymbolTableRecord
100
AcDbBlockTableRecord
  2
*Model_Space
340
22
  0
BLOCK_RECORD
  5
1B
330
1
100
AcDbSymbolTableRecord
100
AcDbBlockTableRecord
  2
*Paper_Space
340
1E
  0
BLOCK_RECORD
  5
23
330
1
100
AcDbSymbolTableRecord
100
AcDbBlockTableRecord
  2
*Paper_Space0
340
26
  0
ENDTAB
  0
ENDSEC
  0
SECTION
  2
BLOCKS
  0
BLOCK
  5
20
330
1F
100
AcDbEntity
  8
0
100
AcDbBlockBegin
  2
*Model_Space
 70
     0
 10
0.0
 20
0.0
 30
0.0
  3
*Model_Space
  1

  0
ENDBLK
  5
21
330
1F
100
AcDbEntity
  8
0
100
AcDbBlockEnd
  0
BLOCK
  5
1C
330
1B
100
AcDbEntity
 67
     1
  8
0
100
AcDbBlockBegin
  2
*Paper_Space
 70
     0
 10
0.0
 20
0.0
 30
0.0
  3
*Paper_Space
  1

  0
ENDBLK
  5
1D
330
1B
100
AcDbEntity
 67
     1
  8
0
100
AcDbBlockEnd
  0
BLOCK
  5
24
330
23
100
AcDbEntity
  8
0
100
AcDbBlockBegin
  2
*Paper_Space0
 70
     0
 10
0.0
 20
0.0
 30
0.0
  3
*Paper_Space0
  1

  0
ENDBLK
  5
25
330
23
100
AcDbEntity
  8
0
100
AcDbBlockEnd
  0
ENDSEC
  0
SECTION
  2
ENTITIES
  0
LWPOLYLINE
  5
978
330
1F
100
AcDbEntity
  8
ceco.net 140
100
AcDbPolyline
 90
       17
 70
     0
 43
0.0
 10
-15.97832608849694
 20
9.623724917782055
 10
-11.40377911935866
 20
6.169308910594736
 10
-3.025209382211869
 20
2.820645417353262
 10
7.733635991986375
 20
2.448121601156799
 10
31.87453855143849
 20
4.014708318104112
 10
48.51933573165843
 20
9.402087855002719
 10
66.22085451163093
 20
17.05737170956399
 10
72.82165020540197
 20
21.2701515646022
 10
75.43836648487832
 20
23.80526767424271
 10
73.91540738642652
 20
30.25457662043072
 10
65.69852251157136
 20
35.84617158815627
 10
60.84627136401741
 20
40.89032597634377
 10
56.44034961612852
 20
49.1192308599384
 10
54.06660078147161
 20
51.4707336199167
 10
48.77272200569769
 20
63.96043956871199
 10
43.64062433539948
 20
70.63071877129278
 10
41.03489620813525
 20
73.41530023647101
  0
LWPOLYLINE
  5
979
330
1F
100
AcDbEntity
  8
ceco.net 140
100
AcDbPolyline
 90
       59
 70
     0
 43
0.0
 10
39.93066936168452
 20
57.7807320279876
 10
38.4233606237567
 20
64.55178101175261
 10
38.98165394450734
 20
68.19358710064626
 10
39.86030607443444
 20
72.17385438837618
 10
42.27357651091188
 20
84.21852880838697
 10
41.42466143212096
 20
98.64213774924657
 10
39.94162722237979
 20
108.4906466283628
 10
39.9506308169075
 20
120.0288635670376
 10
41.91548704209345
 20
132.3907178199819
 10
48.30747820169654
 20
155.6968426990524
 10
53.32937308417149
 20
176.7148373563659
 10
57.91172515005292
 20
201.6764532459605
 10
63.42495526194034
 20
225.0890638605456
 10
71.63513959874399
 20
257.9534240580956
 10
76.80275776822418
 20
285.8357476765804
 10
83.52715029814225
 20
316.7908095688803
 10
86.12594913761403
 20
338.1372705690723
 10
87.07158849772531
 20
359.4814723642175
 10
85.08199534428603
 20
375.689323479472
 10
84.68650695265386
 20
393.8559027939818
 10
82.64501758280948
 20
415.8862354750799
 10
81.40296626008966
 20
436.8398825876429
 10
81.14906175926625
 20
449.8728731653272
 10
82.29296878589684
 20
468.0358291735674
 10
85.29810218651709
 20
490.426222756605
 10
88.32751337608987
 20
511.9382357244094
 10
92.35409829027593
 20
533.5434280252347
 10
98.84652308635487
 20
557.0197064182679
 10
106.2421635427208
 20
579.6420388261881
 10
117.8294940562418
 20
616.0594802707582
 10
127.5926483180464
 20
650.7911260894815
 10
137.8665215286682
 20
687.0116726935521
 10
149.1575598628751
 20
723.7197886850112
 10
155.227002479638
 20
747.5441442617753
 10
160.6000484356863
 20
775.9027128713515
 10
162.995484299291
 20
800.664547760528
 10
162.8482629562777
 20
819.2612376140946
 10
160.6708839406574
 20
853.2369098445061
 10
158.5516507065458
 20
871.8200284738431
 10
157.3987216385612
 20
895.5624582728718
 10
154.8399675503342
 20
921.113672021173
 10
151.6927140345851
 20
936.6049350322159
 10
147.2769176771644
 20
949.1701850107238
 10
143.8701129158525
 20
956.4664864662349
 10
141.2842336404091
 20
965.2638483094138
 10
139.5430917239546
 20
974.7006493812282
 10
137.6755069854207
 20
984.2571445280386
 10
135.0947673644677
 20
992.7323470214105
 10
130.7987390920752
 20
1000.989420245597
 10
121.9704544200121
 20
1021.562178083735
 10
115.9677579877788
 20
1033.384038503479
 10
110.2179984684889
 20
1045.173130142026
 10
106.9617041926458
 20
1055.922748349468
 10
105.4668852148561
 20
1065.366397243062
 10
104.5398528068981
 20
1072.115772096731
 10
104.4949140761455
 20
1082.630097788362
 10
105.4832658730229
 20
1095.83823956205
 10
107.4668896859984
 20
1108.70460377499
 10
108.349385079965
 20
1112.424597592942
  0
LWPOLYLINE
  5
97A
330
1F
100
AcDbEntity
  8
ceco.net 140
100
AcDbPolyline
 90
       35
 70
     0
 43
0.0
 10
57.70500981366331
 20
1032.548365787457
 10
66.39934002810242
 20
1052.253226152112
 10
76.09918586563344
 20
1075.681500319143
 10
82.79256051064384
 20
1096.439344648681
 10
87.13961622190799
 20
1112.943663771412
 10
90.22567601111949
 20
1130.450277797885
 10
92.50005553467508
 20
1150.592527101261
 10
93.41298164013187
 20
1166.508721297128
 10
93.28754567529903
 20
1184.276009208881
 10
92.51648620368177
 20
1207.567949802745
 10
92.17477559950657
 20
1241.956756649395
 10
90.09161284125275
 20
1259.267806889051
 10
89.48132246478143
 20
1276.786892700451
 10
88.73554294284621
 20
1294.751077812316
 10
88.76956921442433
 20
1302.389362741033
 10
87.32949913057927
 20
1309.863639642395
 10
85.08187552063281
 20
1328.555156157486
 10
82.39466771856404
 20
1345.390393806889
 10
81.51891075003822
 20
1359.16266840203
 10
82.26096629839593
 20
1367.929338220955
 10
84.17165879238927
 20
1378.970196782597
 10
84.33363540727986
 20
1382.621202748277
 10
91.05729325476749
 20
1381.64166860738
 10
99.60092573071598
 20
1382.47872873641
 10
99.00259138071398
 20
1368.542264930619
 10
99.41305148793254
 20
1358.206187532923
 10
98.60603516567699
 20
1342.908893026839
 10
97.27568921703188
 20
1333.140376287994
 10
96.16412257064531
 20
1328.798058869361
 10
96.59180767407725
 20
1322.281129825777
 10
96.54075354517409
 20
1301.954361611842
 10
96.20366889605612
 20
1287.73187009545
 10
98.55710770630231
 20
1269.566050445073
 10
99.09752108847079
 20
1267.856417105415
 10
103.1573849220885
 20
1276.961741004805
  0
LWPOLYLINE
  5
97B
330
1F
100
AcDbEntity
  8
ceco.net 140
100
AcDbPolyline
 90
        6
 70
     0
 43
0.0
 10
99.09752108847079
 20
1267.856417105415
 10
99.10659701249734
 20
1249.693601322158
 10
99.03498567307543
 20
1234.539960414332
 10
96.68204538245483
 20
1217.228704262234
 10
94.37339158664689
 20
1207.186662635587
 10
92.93417764438435
 20
1194.950448064
  0
LWPOLYLINE
  5
97C
330
1F
100
AcDbEntity
  8
ceco.net 140
100
AcDbPolyline
 90
       45
 70
     0
 43
0.0
 10
99.60092573071598
 20
1382.47872873641
 10
106.4996500102106
 20
1382.787921367645
 10
114.4177888914337
 20
1381.653017741891
 10
125.8725712588566
 20
1377.413628659207
 10
137.9601276602679
 20
1372.575966090758
 10
145.9877668478848
 20
1367.502227888886
 10
152.4626393998469
 20
1360.66066556817
 10
157.1178868201068
 20
1352.783115663237
 10
161.4173643754847
 20
1339.96830424669
 10
166.4113804933331
 20
1319.904908435185
 10
168.9529707554593
 20
1303.838422658225
 10
170.2459771183166
 20
1288.35318140417
 10
170.3333560006294
 20
1272.748022919822
 10
168.2369160487733
 20
1246.205110810487
 10
166.6910429420804
 20
1235.321991490176
 10
167.3514165112701
 20
1220.435027648386
 10
169.2174393999048
 20
1197.760833524961
 10
170.0281530057063
 20
1190.761897233238
 10
171.5845927532664
 20
1174.668024095589
 10
174.2590956328522
 20
1149.676690831762
 10
177.2522070430577
 20
1121.797121310843
 10
179.7766893775369
 20
1106.346024647601
 10
184.7363166731847
 20
1091.94820845334
 10
189.078707327827
 20
1082.64374058694
 10
193.8708040705032
 20
1074.27724894695
 10
201.949825457792
 20
1058.487913954644
 10
211.5032740241995
 20
1033.993527759997
 10
217.8619110691679
 20
1018.459175749308
 10
224.3950059695871
 20
1000.655969702629
 10
230.8802238520011
 20
980.1412833964009
 10
238.9354600563147
 20
960.7789454301583
 10
243.4490314439481
 20
949.867543929878
 10
251.5110861440243
 20
934.6936019778071
 10
258.119436287121
 20
918.6170543071002
 10
261.6595290561927
 20
910.9548306577808
 10
267.183637397512
 20
898.4203919508162
 10
269.903120094501
 20
889.57116870362
 10
273.5527131699664
 20
877.9701104781679
 10
276.7886206840339
 20
867.9589087787267
 10
283.2496883142321
 20
857.1751746361346
 10
288.7122025758126
 20
846.8563360402272
 10
292.0368827368984
 20
842.5141378688977
 10
295.0194516778774
 20
837.1770272646104
 10
296.1652925964026
 20
831.4191370065005
 10
295.4051437385951
 20
823.3490617628776
  0
LWPOLYLINE
  5
97D
330
1F
100
AcDbEntity
  8
ceco.net 140
100
AcDbPolyline
 90
        6
 70
     0
 43
0.0
 10
288.6565483701597
 20
835.6030410950925
 10
295.2990927151868
 20
822.7301581466209
 10
296.1953268239094
 20
817.0886286442938
 10
295.8945029918604
 20
801.3126602093139
 10
294.170692831859
 20
796.8301131033204
 10
291.5369874000825
 20
794.046837012624
  0
LWPOLYLINE
  5
97E
330
1F
100
AcDbEntity
  8
ceco.net 140
100
AcDbPolyline
 90
        6
 70
     0
 43
0.0
 10
292.1455603202966
 20
812.0486733648222
 10
291.5130342868688
 20
794.9084542451405
 10
289.6320122142024
 20
787.2187318408891
 10
288.0141118374022
 20
783.3550844246365
 10
284.3886957041841
 20
780.7905663534543
 10
277.8855453590731
 20
775.2873030107084
  0
LWPOLYLINE
  5
97F
330
1F
100
AcDbEntity
  8
ceco.net 140
100
AcDbPolyline
 90
        8
 70
     0
 43
0.0
 10
280.703561200472
 20
802.4662304377816
 10
280.0126957499069
 20
791.8531175762468
 10
276.777206685143
 20
779.6911158721345
 10
273.3877311618935
 20
773.0681597414645
 10
263.1540958174591
 20
764.4071592677136
 10
254.3638972511426
 20
757.0181066908162
 10
252.2604519730757
 20
757.3291674981646
 10
252.1475290738417
 20
761.3911161336891
  0
LWPOLYLINE
  5
980
330
1F
100
AcDbEntity
  8
ceco.net 140
100
AcDbPolyline
 90
        5
 70
     0
 43
0.0
 10
241.2948075485028
 20
752.8360234997339
 10
254.2646355149609
 20
765.0223138133415
 10
265.907345505344
 20
776.1862176681774
 10
267.6551087785592
 20
779.8071475416409
 10
271.8483484800808
 20
797.415801439678
  0
LWPOLYLINE
  5
981
330
1F
100
AcDbEntity
  8
ceco.net 140
100
AcDbPolyline
 90
       50
 70
     0
 43
0.0
 10
241.2948075485028
 20
752.8360234997339
 10
239.2391005667386
 20
755.858470048503
 10
239.6836697686703
 20
762.0301109552742
 10
242.3000993426749
 20
769.8633963661709
 10
248.0702801035941
 20
775.074388678087
 10
250.0128962558856
 20
780.5485109713235
 10
252.7492326366209
 20
784.0737141460413
 10
254.3088444580698
 20
785.5953101460727
 10
254.2814420617569
 20
791.0146655710068
 10
255.239048939803
 20
796.4614044300847
 10
255.6768046829811
 20
798.4444681393884
 10
254.8969135478282
 20
799.9010255384409
 10
253.9974247765039
 20
801.2310488936918
 10
253.7887161141052
 20
804.3048423263826
 10
254.1067304624002
 20
806.1614586570245
 10
252.598420770415
 20
807.2281382654951
 10
252.5231388375923
 20
809.9361040225067
 10
252.3452259559244
 20
811.902142695496
 10
248.3193324952035
 20
819.30444258243
 10
241.3416658743481
 20
830.936098313964
 10
237.6510359296626
 20
839.5796293443373
 10
234.9385725920465
 20
848.4966813360246
 10
233.813096782047
 20
857.9505980357939
 10
234.5915933400883
 20
864.6946218087181
 10
234.9780202637712
 20
868.5240340424885
 10
234.1708946626577
 20
870.965326659993
 10
230.2476321510094
 20
879.1095536309486
 10
220.0410686136147
 20
896.0716533283006
 10
209.3589721633188
 20
912.4044870850356
 10
199.1183581827053
 20
926.1628353950131
 10
186.1618730833251
 20
943.2407801805116
 10
167.0657958632555
 20
969.6872826894436
 10
152.6930961584193
 20
990.2290233435824
 10
135.7010805546005
 20
1014.959316972431
 10
127.1944299625611
 20
1028.3962421507
 10
120.2441098392237
 20
1043.477881314922
 10
113.0850810536012
 20
1061.633313911849
 10
111.6655465271387
 20
1068.368906456791
 10
110.9228425605588
 20
1072.946890987646
 10
111.9488594954882
 20
1080.366516341508
 10
112.4755291260053
 20
1088.018587505453
 10
111.8425312629833
 20
1101.920820055292
 10
108.8716589850273
 20
1114.621524595941
 10
104.859874904424
 20
1131.598814260522
 10
101.5765742834455
 20
1141.001355902838
 10
99.73445198902574
 20
1147.984402143714
 10
99.10412294816616
 20
1152.023353937318
 10
98.80205071549518
 20
1159.782576085712
 10
97.17476710027405
 20
1168.626985935355
 10
94.93633506751939
 20
1180.820401532651
  0
LWPOLYLINE
  5
982
330
1F
100
AcDbEntity
  8
ceco.net 140
100
AcDbPolyline
 90
        9
 70
     0
 43
0.0
 10
-24.6807665768747
 20
948.6142017319226
 10
-11.71114174764989
 20
954.0606979286199
 10
2.403084603816751
 20
963.2866050002153
 10
14.21068371114506
 20
972.0021506869274
 10
26.71946714399473
 20
984.3955690888551
 10
35.18251270593373
 20
994.6242977153847
 10
43.45594290264307
 20
1006.390907268022
 10
51.10382033733549
 20
1020.255263078448
 10
57.70500981366331
 20
1032.548365787457
  0
LWPOLYLINE
  5
983
330
1F
100
AcDbEntity
  8
ceco.net 140
100
AcDbPolyline
 90
       22
 70
     0
 43
0.0
 10
-24.6807665768747
 20
948.6142017319226
 10
-32.78074966767599
 20
950.9871121990391
 10
-44.30608264233251
 20
957.8049523838336
 10
-57.43947542618935
 20
967.8793515695305
 10
-69.42826668780435
 20
981.7331616301121
 10
-81.92007040049611
 20
1000.837438985351
 10
-90.57171303045288
 20
1016.657817749114
 10
-103.8247803554204
 20
1042.222878522858
 10
-114.3544403420937
 20
1064.593846755792
 10
-124.1853922053442
 20
1087.116695897984
 10
-131.0557556724452
 20
1106.287948554461
 10
-137.6704155326924
 20
1128.901299130129
 10
-143.2326626148315
 20
1152.39186555909
 10
-146.4692075709981
 20
1168.939211898754
 10
-149.2938356858067
 20
1190.27524492227
 10
-148.8141393778723
 20
1211.565514342789
 10
-148.0983712422803
 20
1227.557097720515
 10
-146.413939402304
 20
1244.02166553383
 10
-143.7701218677139
 20
1270.917872201474
 10
-142.1228380042512
 20
1291.932079105629
 10
-138.767300072981
 20
1328.742070321775
 10
-137.7218891695511
 20
1338.440735163723
  0
LWPOLYLINE
  5
984
330
1F
100
AcDbEntity
  8
ceco.net 140
100
AcDbPolyline
 90
        2
 70
     0
 43
0.0
 10
-136.9366592311498
 20
1345.725604654896
 10
-136.2842999095155
 20
1351.777784133966
  0
LWPOLYLINE
  5
985
330
1F
100
AcDbEntity
  8
ceco.net 140
100
AcDbPolyline
 90
        2
 70
     0
 43
0.0
 10
-148.7123400776899
 20
1384.635033426684
 10
-149.36159332235
 20
1376.904197001531
  0
LWPOLYLINE
  5
986
330
1F
100
AcDbEntity
  8
ceco.net 140
100
AcDbPolyline
 90
        5
 70
     0
 43
0.0
 10
-149.4000049983233
 20
1370.748739371103
 10
-147.8671334077253
 20
1354.232111577454
 10
-148.3699647483936
 20
1349.846064452785
 10
-150.2478677351282
 20
1340.335761123819
 10
-150.4946784895755
 20
1330.051584871634
  0
LWPOLYLINE
  5
987
330
1F
100
AcDbEntity
  8
ceco.net 140
100
AcDbPolyline
 90
        9
 70
     0
 43
0.0
 10
-150.5656282994996
 20
1327.095229297691
 10
-150.6614274994253
 20
1323.103442718144
 10
-150.8199115251718
 20
1315.960880990823
 10
-151.115658357593
 20
1294.470376718487
 10
-152.3838633948562
 20
1272.663717871688
 10
-153.231034291206
 20
1258.185432518553
 10
-154.5389695659869
 20
1244.229604326699
 10
-157.7780322773596
 20
1228.906493525025
 10
-158.9919285076566
 20
1224.411376925184
  0
LWPOLYLINE
  5
988
330
1F
100
AcDbEntity
  8
ceco.net 140
100
AcDbPolyline
 90
       16
 70
     0
 43
0.0
 10
-177.9929654071102
 20
1288.074326163888
 10
-174.1204019826445
 20
1273.994883516516
 10
-172.8742421324332
 20
1267.694361542277
 10
-170.1561633129349
 20
1253.404401851748
 10
-168.852963395192
 20
1248.265481655787
 10
-164.9730720751667
 20
1237.130752409351
 10
-157.7931351927863
 20
1222.875531427769
 10
-154.11773161993
 20
1209.446091567736
 10
-153.5081749106657
 20
1197.149732123401
 10
-154.3603021446633
 20
1182.849731147678
 10
-155.8862474405023
 20
1173.527634470042
 10
-158.152965855219
 20
1155.530018602513
 10
-161.1709211826555
 20
1138.868360751823
 10
-163.3235890551068
 20
1119.981623364006
 10
-164.2425303101154
 20
1104.876683882986
 10
-163.9277820953102
 20
1090.341489006911
  0
LWPOLYLINE
  5
989
330
1F
100
AcDbEntity
  8
ceco.net 140
100
AcDbPolyline
 90
       76
 70
     0
 43
0.0
 10
-155.3397807322871
 20
1176.866034279649
 10
-153.8613532060926
 20
1176.535326863197
 10
-152.9713455091259
 20
1175.693796989699
 10
-152.8805821873893
 20
1171.010381204988
 10
-150.5581002905491
 20
1159.734078448659
 10
-147.0839290340782
 20
1138.77784289985
 10
-145.6841408317577
 20
1124.703817903844
 10
-143.3411860350124
 20
1109.345498683347
 10
-139.8477725493412
 20
1092.507016443954
 10
-136.5587093856211
 20
1075.763669004894
 10
-136.0632337081815
 20
1068.821698752325
 10
-135.7971010015253
 20
1055.623409251774
 10
-136.6828805501645
 20
1043.94740003678
 10
-138.1243541839685
 20
1034.129012507216
 10
-142.1687846006525
 20
1020.004362373209
 10
-146.5350728075909
 20
1006.576474966118
 10
-150.3192207142765
 20
997.600302655252
 10
-152.5135107631958
 20
989.4746735610711
 10
-158.6128320863726
 20
969.1554647508214
 10
-160.4740647347389
 20
959.9302118390882
 10
-162.0777445039711
 20
948.6960754110727
 10
-162.0664375636342
 20
944.6641213578546
 10
-163.5583891603109
 20
943.9170250669468
 10
-164.691937325937
 20
941.1636675998325
 10
-165.2292402372486
 20
938.729423846803
 10
-165.279678690762
 20
936.9134283447611
 10
-171.2134913986565
 20
929.0871936163771
 10
-173.9229286712989
 20
921.3505064406408
 10
-176.9400089315913
 20
906.5487970554586
 10
-180.0742688549908
 20
888.5591576095011
 10
-182.1397809242844
 20
872.1709402381152
 10
-184.1185574695136
 20
859.9183089555227
 10
-185.3638338078089
 20
846.6779113512876
 10
-185.706643287016
 20
826.443032107244
 10
-184.4132282445334
 20
805.3094895773769
 10
-181.9442595714908
 20
785.4183262976821
 10
-178.8001488180943
 20
770.2333216966454
 10
-173.5283671634524
 20
751.3947807224585
 10
-166.3835124828201
 20
734.3034127380096
 10
-156.6192007684994
 20
712.5862344730735
 10
-145.9788181721924
 20
687.6815401896524
 10
-137.5034351409103
 20
667.4629782235629
 10
-128.629705588718
 20
645.7944775669179
 10
-123.1289591737086
 20
630.9175078236052
 10
-115.5540930453289
 20
610.5609468869006
 10
-110.0597664018996
 20
595.9098182134798
 10
-108.5628443956456
 20
582.7296977603936
 10
-107.9163497632398
 20
567.6047238473615
 10
-108.4940485957977
 20
555.7631182653694
 10
-110.2322593446378
 20
545.0921492679672
 10
-115.9960727653233
 20
524.7037546321794
 10
-120.2380642633434
 20
506.5048072239851
 10
-122.9426774910498
 20
489.9306453300568
 10
-126.1393414858493
 20
466.1370148886962
 10
-126.6504230547516
 20
443.8605619341533
 10
-125.0718637879335
 20
423.6762865734622
 10
-122.548847480356
 20
398.1496458990905
 10
-120.7224715059955
 20
377.1812368256719
 10
-117.8479334234443
 20
359.1801302137669
 10
-116.239027423102
 20
346.2682176557709
 10
-115.0402890967361
 20
335.6788963684157
 10
-114.0171492737172
 20
319.2083666766284
 10
-111.3905691390291
 20
301.9913898509771
 10
-108.0988755052876
 20
285.2449423810639
 10
-105.7281817866842
 20
273.3733354786468
 10
-104.2031652421646
 20
263.2451238655394
 10
-104.5262677104792
 20
254.5346158966822
 10
-104.7709111865733
 20
247.0694419064843
 10
-107.3248987961042
 20
237.2798723291057
 10
-109.7346616873655
 20
230.432475591991
 10
-110.3024428568451
 20
222.3932241335205
 10
-108.4543049722233
 20
216.9072599431501
 10
-105.3917903074752
 20
212.4721889086149
 10
-104.726516696427
 20
208.8744616447202
 10
-104.9107400219318
 20
199.1037185324644
 10
-105.6040704277838
 20
191.5130158641263
  0
LWPOLYLINE
  5
98A
330
1F
100
AcDbEntity
  8
ceco.net 140
100
AcDbPolyline
 90
        6
 70
     0
 43
0.0
 10
-88.472067438669
 20
205.5500077471438
 10
-78.14881734686787
 20
208.3232108952957
 10
-68.77315049343815
 20
208.5838561121936
 10
-62.96201626646416
 20
206.9372503584732
 10
-57.67489499175917
 20
203.8070859288668
 10
-54.71595344449633
 20
199.0300609012592
  0
LWPOLYLINE
  5
98B
330
1F
100
AcDbEntity
  8
ceco.net 140
100
AcDbPolyline
 90
       13
 70
     0
 43
0.0
 10
-62.23791695851923
 20
258.1493104975665
 10
-62.58597595860829
 20
246.2740164863335
 10
-62.14352981664797
 20
238.4888690686552
 10
-60.75019979966691
 20
229.0350551685892
 10
-57.74417052664285
 20
222.564237963832
 10
-56.53289400943231
 20
215.5914872297957
 10
-55.01731287445091
 20
209.870258361585
 10
-53.62086372276644
 20
204.3718278052556
 10
-49.94014178243924
 20
193.964470546186
 10
-48.55936882797687
 20
184.9623466389207
 10
-49.64502314028232
 20
175.2135969900423
 10
-54.19435807068476
 20
168.2531387208801
 10
-59.38413066230532
 20
159.7464110932751
  0
LWPOLYLINE
  5
98C
330
1F
100
AcDbEntity
  8
ceco.net 140
100
AcDbPolyline
 90
       22
 70
     0
 43
0.0
 10
-49.64502314028232
 20
175.2135969900423
 10
-51.71235810332655
 20
164.3669327947009
 10
-52.49980986384253
 20
147.9591234339723
 10
-53.03914356450059
 20
126.6989276673712
 10
-51.00922730612092
 20
114.6284548641406
 10
-49.36494005660188
 20
104.2775394573086
 10
-49.03848285455206
 20
96.60213196583255
 10
-50.96800856592745
 20
84.68287289694307
 10
-53.86726758122131
 20
79.17789466241629
 10
-56.16405717053021
 20
76.40189967407605
 10
-55.78441269524228
 20
74.94337217480915
 10
-56.05104612500236
 20
72.3367803306246
 10
-57.25420899848268
 20
62.66599677807426
 10
-60.72756545809079
 20
57.48413317369659
 10
-65.29619062321126
 20
55.09701983103241
 10
-73.15301596674908
 20
53.07053301614814
 10
-79.94954586031235
 20
53.55964689050006
 10
-86.00849427655157
 20
55.9902957653353
 10
-89.08670652881392
 20
60.9900245866811
 10
-89.07730634423296
 20
64.71947234236996
 10
-87.82855649458179
 20
68.5964293417901
 10
-85.65417813526801
 20
71.70809591790749
  0
LWPOLYLINE
  5
98D
330
1F
100
AcDbEntity
  8
ceco.net 140
100
AcDbPolyline
 90
        8
 70
     0
 43
0.0
 10
-72.96505573783543
 20
70.70473854793999
 10
-83.16277798344254
 20
71.55133774743126
 10
-90.75296737871576
 20
72.13135218506204
 10
-101.0919339298188
 20
73.99106736985505
 10
-109.6424262564814
 20
76.578561080305
 10
-120.5995761744807
 20
80.3421207601732
 10
-127.8321135665228
 20
84.32228043620581
 10
-129.7869487402285
 20
85.51108847306386
  0
LWPOLYLINE
  5
98E
330
1F
100
AcDbEntity
  8
ceco.net 140
100
AcDbPolyline
 90
       22
 70
     0
 43
0.0
 10
-124.1043252907265
 20
76.28948213777585
 10
-126.1376194565391
 20
76.23295619597502
 10
-130.8975734190871
 20
76.66563214459074
 10
-133.08780947791
 20
78.18687997490224
 10
-135.3596614072321
 20
82.64393157504356
 10
-135.3157330781405
 20
85.13136773805218
 10
-135.0993253804053
 20
89.54462896171298
 10
-135.8303785525085
 20
95.51359672676971
 10
-135.065025279413
 20
108.6436443981087
 10
-133.0662806484033
 20
114.0105330703649
 10
-129.3575207850599
 20
118.8598662896201
 10
-126.7533074433904
 20
126.8427664875221
 10
-124.3937539310982
 20
131.4286626496909
 10
-122.436075040081
 20
138.0947700047645
 10
-120.7166784950677
 20
145.3749228535571
 10
-118.8938525913945
 20
152.9971163606178
 10
-114.3724916171995
 20
165.2144484544724
 10
-110.2745483723983
 20
172.3347964483341
 10
-108.4046322244594
 20
178.2631071865753
 10
-107.6609348461479
 20
184.0471444018962
 10
-106.625612281231
 20
187.4661290032354
 10
-105.6040704277838
 20
191.5130158641263
  0
LWPOLYLINE
  5
98F
330
1F
100
AcDbEntity
  8
ceco.net 140
100
AcDbPolyline
 90
        3
 70
     0
 43
0.0
 10
-124.1043252907265
 20
76.28948213777585
 10
-122.8748119244291
 20
73.89266083824896
 10
-118.9399009615035
 20
71.86298065024676
  0
LWPOLYLINE
  5
990
330
1F
100
AcDbEntity
  8
ceco.net 140
100
AcDbPolyline
 90
        7
 70
     0
 43
0.0
 10
-117.5701454349782
 20
75.51075444828256
 10
-118.5389199850524
 20
71.8741279931778
 10
-117.5143550593238
 20
68.69400395573575
 10
-113.0338494289835
 20
66.27840417372408
 10
-107.1351680726129
 20
65.77394008622559
 10
-104.3845746272145
 20
67.8558431935644
 10
-103.4640790364383
 20
73.22911167870825
  0
LWPOLYLINE
  5
991
330
1F
100
AcDbEntity
  8
ceco.net 140
100
AcDbPolyline
 90
        7
 70
     0
 43
0.0
 10
-105.8216506025464
 20
66.7681313968078
 10
-103.4899082121219
 20
64.53838199257143
 10
-100.5052851092605
 20
63.01700615539994
 10
-95.53103726541303
 20
62.08575542734161
 10
-93.15157323358016
 20
63.0878053619399
 10
-90.29322089038396
 20
66.10851393279836
 10
-89.32815855662193
 20
69.87867248766997
  0
LWPOLYLINE
  5
992
330
1F
100
AcDbEntity
  8
ceco.net 140
100
AcDbPolyline
 90
        3
 70
     0
 43
0.0
 10
-124.1043252907265
 20
76.28948213777585
 10
-125.5735831247866
 20
79.56649094381328
 10
-125.6330037698025
 20
81.70391045643464
  0
LWPOLYLINE
  5
993
330
1F
100
AcDbEntity
  8
ceco.net 140
100
AcDbPolyline
 90
       54
 70
     0
 43
0.0
 10
-165.279678690762
 20
936.9134283447611
 10
-162.8367364097121
 20
933.964394219879
 10
-157.7243601702311
 20
922.9902199796898
 10
-151.85332436938
 20
907.6369631703419
 10
-145.7290275855702
 20
891.9087894503777
 10
-140.5074167622151
 20
879.0848900845221
 10
-132.4322951665626
 20
865.7035112662697
 10
-129.0159381101821
 20
859.8584247161316
 10
-127.1863882058814
 20
856.5511783131201
 10
-124.6591735825395
 20
846.8947075171886
 10
-122.2428003232598
 20
839.1457593229405
 10
-117.9519767445744
 20
828.5540034319128
 10
-113.5615513442862
 20
820.6282936764013
 10
-105.0655569183154
 20
807.7475535788012
 10
-94.65753340004903
 20
796.0312989702288
 10
-85.3319288567709
 20
785.9154123747717
 10
-78.06388561204949
 20
780.4851997562796
 10
-72.4400828976959
 20
775.8759118501589
 10
-66.91364288128534
 20
771.443608671484
 10
-59.49918343157969
 20
765.6582649173287
 10
-53.9341291951805
 20
763.528300363811
 10
-48.31430545318562
 20
763.1653130917984
 10
-43.66340203837262
 20
764.0215343009317
 10
-37.25361315225564
 20
765.1343587246174
 10
-26.85314890113568
 20
768.4350021501077
 10
-21.8216180573554
 20
770.548040171272
 10
-19.84645350530536
 20
770.4990518267837
 10
-17.61463423026634
 20
769.8005360613624
 10
-13.98151212499578
 20
769.9015375062658
 10
-10.89917794849861
 20
771.1294733152217
 10
-8.286864552882434
 20
770.5790691062702
 10
-5.443707591733982
 20
769.2042588554759
 10
-2.842931280905759
 20
769.0688550189379
 10
-0.8966157366321567
 20
770.0575940846847
 10
-0.3285557160770622
 20
772.0464561562839
 10
2.21741125783501
 20
773.882598511685
 10
5.008642523467642
 20
774.3756070076642
 10
8.065013852093215
 20
776.5374521900216
 10
18.66707320487057
 20
791.2668889596775
 10
21.34291851318812
 20
795.9104447299496
 10
29.93249445312449
 20
808.2992600429237
 10
37.79250331574621
 20
820.7716915331902
 10
48.98701114852975
 20
835.0517788215602
 10
54.97282320873273
 20
843.941288607974
 10
59.24878933301534
 20
850.8101944699378
 10
62.01690659797896
 20
855.8717271842743
 10
76.48559939689312
 20
877.2508937489165
 10
91.63538373939081
 20
897.5547084361837
 10
105.769741206519
 20
916.0169700339029
 10
117.3493768478019
 20
929.2158348034945
 10
128.4190128312056
 20
942.8625333562568
 10
137.8304651176913
 20
951.8472765541988
 10
142.8158425859928
 20
955.620497248441
 10
143.9837376790828
 20
956.2231380550883
  0
LWPOLYLINE
  5
994
330
1F
100
AcDbEntity
  8
ceco.net 140
100
AcDbPolyline
 90
       45
 70
     0
 43
0.0
 10
-20.20665797835954
 20
769.8295650980444
 10
-21.32979054165298
 20
769.2285332223691
 10
-21.6751553547956
 20
767.9845733959869
 10
-21.24274738089206
 20
766.097504435601
 10
-18.36096517713395
 20
758.1064634185795
 10
-16.71565159274359
 20
746.7576635539021
 10
-15.96403337880383
 20
729.9715171617099
 10
-16.20611025118614
 20
711.492562994616
 10
-17.60057511064496
 20
693.3174737186591
 10
-19.51708518749819
 20
676.8370252752419
 10
-19.33248925019961
 20
673.6136950440768
 10
-18.25669897079842
 20
665.6673698956383
 10
-15.17205097770693
 20
643.7590560833487
 10
-11.8787844585986
 20
620.9665162993847
 10
-10.67634067744529
 20
605.0475704918144
 10
-9.858086603980154
 20
589.3371640571504
 10
-9.889472091753304
 20
569.965519347329
 10
-11.64780737515138
 20
554.6289040468309
 10
-15.06724747748558
 20
537.5369559519867
 10
-19.59631163203903
 20
519.2207805614489
 10
-21.67372135165714
 20
508.5280517849728
 10
-22.0716618817496
 20
495.5082180745139
 10
-21.64962771969294
 20
480.3272308639861
 10
-21.52265285208068
 20
465.5501888992662
 10
-21.55931452234562
 20
446.3683337070933
 10
-22.20765865326848
 20
428.6886912195573
 10
-24.0663247854618
 20
413.5392228999794
 10
-27.68652616118652
 20
396.6675318231354
 10
-30.53389162546318
 20
382.9148723042781
 10
-34.14038050739145
 20
365.7228014524862
 10
-36.96664375997807
 20
351.2110744547758
 10
-41.81687833665728
 20
326.7944129323386
 10
-46.82869919981749
 20
305.4801440154424
 10
-51.71923076109033
 20
283.2197473039404
 10
-54.33033588401395
 20
271.1070164926586
 10
-55.22002609206902
 20
262.0681558486894
 10
-53.58394858474094
 20
251.0922626488199
 10
-50.95393153790064
 20
241.8664821944334
 10
-49.17950113606275
 20
236.1235283097703
 10
-48.4076231070494
 20
232.3011132170709
 10
-48.20720114066626
 20
228.508505024658
 10
-50.30043688948262
 20
218.385054209401
 10
-50.71420344877333
 20
205.9344984601752
 10
-50.00751702636899
 20
197.5981304272181
 10
-49.94014178243924
 20
193.964470546186
  0
LWPOLYLINE
  5
995
330
1F
100
AcDbEntity
  8
ceco.net 140
100
AcDbPolyline
 90
        4
 70
     0
 43
0.0
 10
-58.61886499435422
 20
550.2393342288996
 10
-53.87767818644897
 20
547.8225498950678
 10
-44.86103171798186
 20
544.4627946384571
 10
-36.06846578231762
 20
541.5214691602673
  0
LWPOLYLINE
  5
996
330
1F
100
AcDbEntity
  8
ceco.net 140
100
AcDbPolyline
 90
        8
 70
     0
 43
0.0
 10
-0.8966157366321567
 20
770.0575940846847
 10
0.0457851236214992
 20
765.7552422750004
 10
2.813283709930146
 20
759.9938397358219
 10
7.291566567620066
 20
752.7160835162562
 10
13.10449319105464
 20
746.2052570673395
 10
21.86136504660771
 20
738.8380152109534
 10
30.96842844086131
 20
733.8783285623776
 10
39.19844856573126
 20
730.4581737432813
  0
LWPOLYLINE
  5
997
330
1F
100
AcDbEntity
  8
ceco.net 140
100
AcDbPolyline
 90
       54
 70
     0
 43
0.0
 10
0.8978646432533423
 20
763.9813757471874
 10
1.429547727117096
 20
760.997890159027
 10
1.111073520565696
 20
757.4443465865047
 10
-0.368019596702652
 20
750.6265397641359
 10
-3.282906082130466
 20
735.4283067324677
 10
-4.883512956279446
 20
714.2197495753862
 10
-5.441934888789546
 20
696.793467779068
 10
-4.958283980908163
 20
679.3960651325878
 10
-4.323154015036379
 20
664.5222707494667
 10
-3.405112276890577
 20
635.2517434166261
 10
-4.276213429601739
 20
614.0634666491937
 10
-5.497671463284859
 20
594.2208418485338
 10
-7.414367169143588
 20
572.9219018632907
 10
-9.182731987561055
 20
546.4958163641085
 10
-10.34323038829734
 20
524.4654976086967
 10
-12.17911557314346
 20
507.6627217768618
 10
-15.3486445000899
 20
490.3722819155919
 10
-16.59042185651651
 20
478.7652515497829
 10
-16.77550899985272
 20
466.6663834262808
 10
-15.11374463957418
 20
455.6613766364367
 10
-12.67324110058234
 20
442.9056739689031
 10
-9.870797827897149
 20
424.8590455072704
 10
-8.843133850699814
 20
414.1491933711677
 10
-8.912374157784142
 20
397.8831997004677
 10
-10.37114795253637
 20
382.8297984432342
 10
-12.18316982517444
 20
369.2260483729314
 10
-14.80621729667655
 20
350.531401704879
 10
-15.58179597277467
 20
333.4117750084092
 10
-15.98104721774598
 20
306.502537176877
 10
-15.53504735006663
 20
290.4594797755153
 10
-14.07982274902133
 20
253.4026309326918
 10
-14.32543739583616
 20
220.9720168269855
 10
-13.35260989942435
 20
204.7350834894332
 10
-12.04285801777496
 20
183.6240259121895
 10
-10.2362895195929
 20
167.4102707237438
 10
-8.284914365002805
 20
145.9876765450417
 10
-7.616128109770215
 20
133.182719819837
 10
-9.924042683404877
 20
118.3651859934629
 10
-13.77984988864591
 20
110.751479658953
 10
-16.43724842092433
 20
105.0477858472991
 10
-17.46770970539637
 20
100.848883390819
 10
-18.15374781694936
 20
95.51268584798753
 10
-18.07555453951772
 20
92.69999613756317
 10
-17.01883770585846
 20
88.45485668708807
 10
-15.69005282346916
 20
78.17041944320544
 10
-14.78965023882119
 20
68.29102611025382
 10
-14.57870573694799
 20
60.65229847939145
 10
-14.71458352507306
 20
50.53566518963634
 10
-16.63086477988054
 20
40.68222846101753
 10
-18.36184534529275
 20
31.66803047903431
 10
-18.65411472517644
 20
27.17695779342375
 10
-18.49482689938122
 20
21.44721678581072
 10
-17.34457480433684
 20
13.94937974708364
 10
-15.97832608849694
 20
9.623724917782055
  0
LWPOLYLINE
  5
998
330
1F
100
AcDbEntity
  8
ceco.net 140
100
AcDbPolyline
 90
        6
 70
     0
 43
0.0
 10
-10.48147734156737
 20
67.24923678543746
 10
-8.333670275032091
 20
72.52172018594092
 10
-5.965834332936537
 20
81.13657918422632
 10
-4.75299269471543
 20
90.03211189196646
 10
-4.692414468717288
 20
102.8573450803182
 10
-6.307889809658263
 20
119.7019782084908
  0
LWPOLYLINE
  5
999
330
1F
100
AcDbEntity
  8
ceco.net 140
100
AcDbPolyline
 90
        5
 70
     0
 43
0.0
 10
9.594583076182971
 20
97.78418238860286
 10
7.954173238364091
 20
86.92046571577249
 10
7.954317453300973
 20
76.9344495369296
 10
9.144386547792237
 20
69.061926800126
 10
11.96344891325316
 20
57.49000079358665
  0
LWPOLYLINE
  5
99A
330
1F
100
AcDbEntity
  8
ceco.net 140
100
AcDbPolyline
 90
       12
 70
     0
 43
0.0
 10
-26.81120524307425
 20
767.9482270890166
 10
-27.82549930959612
 20
761.2102500751607
 10
-29.44081472908147
 20
756.7197490804264
 10
-30.795980493348
 20
753.2996696844183
 10
-32.38180215755528
 20
751.2260314371933
 10
-36.8576803070473
 20
748.7822037466517
 10
-43.33266018370432
 20
745.2197019401528
 10
-52.01875118457246
 20
741.2091494921728
 10
-60.65118880276168
 20
738.7464140434276
 10
-74.50019260052068
 20
736.1386571210545
 10
-89.46543769077289
 20
735.432684611263
 10
-100.0166533029405
 20
735.9124309795479
  0
LWPOLYLINE
  5
99B
330
1F
100
AcDbEntity
  8
ceco.net 140
100
AcDbPolyline
 90
       39
 70
     0
 43
0.0
 10
-163.9277820953102
 20
1090.341489006911
 10
-163.6274232922223
 20
1081.815130843887
 10
-164.1034859538413
 20
1073.359572265809
 10
-164.1330187592975
 20
1064.82748820043
 10
-166.0032251262
 20
1055.3555674015
 10
-167.7649853584844
 20
1045.175783278304
 10
-170.8220645303517
 20
1036.826168850348
 10
-177.6518823548476
 20
1020.28483206555
 10
-180.6286086828768
 20
1014.912332804266
 10
-186.002565317789
 20
997.1673191381796
 10
-190.7597501760383
 20
982.8164176829064
 10
-194.7891027509276
 20
971.0628080352794
 10
-202.9872336071994
 20
949.0066511437134
 10
-210.2143165674979
 20
927.5665184206564
 10
-214.5174549953699
 20
916.0719334456871
 10
-222.1151378061668
 20
894.9158764195262
 10
-226.00381021682
 20
881.2999979120041
 10
-228.5254904853209
 20
869.6771502599549
 10
-229.7614757013198
 20
859.7786187447072
 10
-229.9164026243934
 20
852.5335268962326
 10
-229.1611881673352
 20
844.5565308819968
 10
-229.486865957323
 20
837.0826671448785
 10
-227.2883034948554
 20
831.5451575322841
 10
-225.0007596955574
 20
826.0101216168267
 10
-218.6789185808029
 20
816.0550630581528
 10
-216.2785656359565
 20
809.680644367555
 10
-214.1712824141668
 20
801.0302672991061
 10
-212.3500676185122
 20
786.6844589990424
 10
-211.8539981170888
 20
781.6328917141336
 10
-211.1458577289331
 20
778.5422482670528
 10
-210.6497857090053
 20
773.4905903905032
 10
-210.5638565548806
 20
766.9015132570907
 10
-209.8830424470852
 20
759.6788392038806
 10
-208.3725018441773
 20
752.4356234329675
 10
-206.0954136359887
 20
744.3226042786309
 10
-203.5273780740672
 20
736.7162220303471
 10
-201.9926883610414
 20
733.312564657348
 10
-201.3421713443895
 20
730.3473362684176
 10
-201.0160963686294
 20
729.4530805379736
  0
LWPOLYLINE
  5
99C
330
1F
100
AcDbEntity
  8
ceco.net 140
100
AcDbPolyline
 90
       13
 70
     0
 43
0.0
 10
-212.3404248464558
 20
724.1086832362043
 10
-221.3892247745652
 20
735.0772318041208
 10
-223.3490747415308
 20
741.2766802099727
 10
-224.8562191709416
 20
751.2857152680626
 10
-225.7725579966736
 20
761.1943119364013
 10
-225.9141423824749
 20
762.3416883991271
 10
-226.5793701507837
 20
762.5972651733068
 10
-227.6843899837322
 20
762.895465959099
 10
-229.6389593602262
 20
762.1832875106324
 10
-230.179193601497
 20
759.9205848054371
 10
-232.1717906330141
 20
756.6307445498328
 10
-233.3331120974653
 20
755.0086165785447
 10
-234.0135482938412
 20
753.8384784581439
  0
LWPOLYLINE
  5
99D
330
1F
100
AcDbEntity
  8
ceco.net 140
100
AcDbPolyline
 90
        6
 70
     0
 43
0.0
 10
-212.3404248464558
 20
724.1086832362043
 10
-208.9626957984583
 20
722.8868119069548
 10
-205.5697308695235
 20
723.145597206832
 10
-203.4113270695561
 20
724.4116734008884
 10
-201.6698935886543
 20
726.8722299274458
 10
-201.0160963686294
 20
729.4530805379736
  0
LWPOLYLINE
  5
99E
330
1F
100
AcDbEntity
  8
ceco.net 140
100
AcDbPolyline
 90
       19
 70
     0
 43
0.0
 10
-238.5552665611603
 20
794.2506765311295
 10
-240.3940009720136
 20
786.9058281184011
 10
-241.4712357103317
 20
778.4151525301813
 10
-240.0129737128045
 20
767.952719450358
 10
-236.7118079958563
 20
759.4379802149351
 10
-235.1239733078037
 20
754.8141342926528
 10
-233.4187441783333
 20
751.2146743342445
 10
-232.6775271728356
 20
745.5461699114867
 10
-232.9407031405244
 20
739.2662446828894
 10
-233.1877898904613
 20
737.6547547482719
 10
-232.3776637105757
 20
734.7597838943275
 10
-231.3932709238988
 20
730.8485353058618
 10
-230.7086652255739
 20
721.9692153211613
 10
-230.4575478887718
 20
718.1834561692512
 10
-229.6555261268158
 20
715.5800092617087
 10
-227.2252672054937
 20
712.1465798866438
 10
-224.7167482172008
 20
708.1657351182802
 10
-223.8522281798614
 20
704.6818876350985
 10
-224.3611593181176
 20
702.376174913988
  0
LWPOLYLINE
  5
99F
330
1F
100
AcDbEntity
  8
ceco.net 140
100
AcDbPolyline
 90
        7
 70
     0
 43
0.0
 10
-243.3960835971438
 20
732.4497563035752
 10
-241.8109949501959
 20
730.0754220324933
 10
-241.315976408895
 20
728.4580895505087
 10
-240.7208572971731
 20
725.268746692629
 10
-239.6604073005155
 20
721.5299657841942
 10
-237.9253602530971
 20
715.7851010801951
 10
-236.674427830575
 20
713.2889660751061
  0
LWPOLYLINE
  5
9A0
330
1F
100
AcDbEntity
  8
ceco.net 140
100
AcDbPolyline
 90
       12
 70
     0
 43
0.0
 10
-246.0430949595993
 20
732.5449809414212
 10
-246.7442941716162
 20
729.4320206716037
 10
-246.2961180313632
 20
727.4760338923247
 10
-244.9452550154765
 20
725.4325401769197
 10
-242.0153791670818
 20
719.2147278297597
 10
-239.658890808595
 20
715.3994658886035
 10
-237.8925497011541
 20
714.6048729963413
 10
-234.4193190099977
 20
711.1018891890325
 10
-226.6312124607557
 20
704.1754390338128
 10
-221.8587867384476
 20
698.4588037659823
 10
-220.2064055547443
 20
695.6925966112184
 10
-219.8003799165453
 20
693.2291832810137
  0
LWPOLYLINE
  5
9A1
330
1F
100
AcDbEntity
  8
ceco.net 140
100
AcDbPolyline
 90
        9
 70
     0
 43
0.0
 10
-227.572083365384
 20
685.354484049435
 10
-225.659008074057
 20
687.3762047028667
 10
-224.9751335837791
 20
691.1072679095814
 10
-225.7653119982697
 20
695.2473060446436
 10
-228.770148900775
 20
702.1379199247467
 10
-233.2942858877904
 20
707.0178508342991
 10
-236.7050546627742
 20
710.2976394933848
 10
-239.4145566782517
 20
712.6407148715347
 10
-241.4120005211762
 20
713.6538146670491
  0
LWPOLYLINE
  5
9A2
330
1F
100
AcDbEntity
  8
ceco.net 140
100
AcDbPolyline
 90
        8
 70
     0
 43
0.0
 10
-227.572083365384
 20
685.354484049435
 10
-225.5402675225004
 20
683.1049893438549
 10
-223.0696780000689
 20
681.2613455917162
 10
-221.0864385015829
 20
680.7541056723157
 10
-219.5872773357441
 20
681.4706680847511
 10
-218.6674720077908
 20
684.8146372443952
 10
-218.5254534228525
 20
689.8241974524894
 10
-219.4405269329527
 20
692.3859702918889
  0
LWPOLYLINE
  5
9A3
330
1F
100
AcDbEntity
  8
ceco.net 140
100
AcDbPolyline
 90
        5
 70
     0
 43
0.0
 10
-219.8003799165453
 20
693.2291832810137
 10
-220.1698498350415
 20
690.2846470356198
 10
-221.417565596038
 20
686.5942098370624
 10
-222.7543029970993
 20
684.0823473823807
 10
-225.4309632053937
 20
683.2204484929406
  0
LWPOLYLINE
  5
9A4
330
1F
100
AcDbEntity
  8
ceco.net 140
100
AcDbPolyline
 90
       31
 70
     0
 43
0.0
 10
-227.572083365384
 20
685.354484049435
 10
-229.3717295718343
 20
684.8404471410222
 10
-232.0177925560747
 20
686.1167477053927
 10
-238.7418421188376
 20
694.8387774847847
 10
-241.8601113952936
 20
696.9118313183689
 10
-248.6541318518893
 20
704.9119715812767
 10
-251.80739770742
 20
708.2438870554114
 10
-255.8153911280205
 20
713.171892989374
 10
-259.2585661629518
 20
717.2156932495654
 10
-264.2859447320907
 20
723.1952312327453
 10
-265.0005867508971
 20
726.2350140603875
 10
-268.4614235796052
 20
734.1478540119596
 10
-271.1849797081631
 20
738.2116598065749
 10
-273.3614237727797
 20
751.7395252140431
 10
-273.7363458287054
 20
758.7482193854611
 10
-275.1196326202707
 20
765.7815552663805
 10
-275.6218586041077
 20
770.8969585382537
 10
-274.3653364877436
 20
790.4595976146229
 10
-272.4489822875957
 20
802.4814821690798
 10
-271.2896973611796
 20
809.3528641563894
 10
-270.1279141181876
 20
816.1343792217452
 10
-270.4063285268139
 20
826.2559955380142
 10
-270.1915999436542
 20
834.7209707290176
 10
-272.0580911762445
 20
840.3383374213381
 10
-272.9601732182336
 20
843.6428998328951
 10
-272.283236645716
 20
851.6707706257394
 10
-268.3479897785437
 20
865.5485055480712
 10
-264.655109499994
 20
885.0479603675239
 10
-262.1291698100767
 20
907.5254854088202
 10
-258.8499965991777
 20
935.4745300140708
 10
-256.3866715752956
 20
956.960470254865
  0
LWPOLYLINE
  5
9A5
330
1F
100
AcDbEntity
  8
ceco.net 140
100
AcDbPolyline
 90
       10
 70
     0
 43
0.0
 10
-256.3866715752956
 20
956.960470254865
 10
-253.1599551180752
 20
986.6184795993522
 10
-250.181830524365
 20
1012.258252502912
 10
-247.501094430685
 20
1029.391314428943
 10
-243.2586481271064
 20
1051.646568211276
 10
-237.1023223198099
 20
1082.931530690723
 10
-232.7748903607689
 20
1103.187337439075
 10
-230.2736589883343
 20
1118.489664412445
 10
-228.7837249420581
 20
1137.49650871143
 10
-229.1230595079232
 20
1160.588575014637
  0
LWPOLYLINE
  5
9A6
330
1F
100
AcDbEntity
  8
ceco.net 140
100
AcDbPolyline
 90
       19
 70
     0
 43
0.0
 10
-229.1230595079232
 20
1160.588575014637
 10
-228.2411647434619
 20
1187.088293736786
 10
-226.6475821314307
 20
1205.997113046899
 10
-224.6628934540913
 20
1225.582443149059
 10
-223.032956988799
 20
1250.444211669327
 10
-221.9629183741281
 20
1266.250993226529
 10
-222.0583849833237
 20
1287.83660518618
 10
-219.703015709978
 20
1308.380651994136
 10
-219.0836684156456
 20
1318.739374551805
 10
-214.3025419204141
 20
1339.14904496971
 10
-209.2496316688075
 20
1353.412700906455
 10
-205.5271124584796
 20
1361.08217586567
 10
-197.790034255785
 20
1370.105774456513
 10
-189.882689089426
 20
1376.075725759088
 10
-182.101513972565
 20
1379.318420991461
 10
-172.2810117048075
 20
1381.810830368388
 10
-163.6286199309997
 20
1382.757532148042
 10
-155.9033103516858
 20
1384.384533954511
 10
-148.7123400776899
 20
1384.635033426684
  0
LWPOLYLINE
  5
9A7
330
1F
100
AcDbEntity
  8
ceco.net 140
100
AcDbPolyline
 90
        4
 70
     0
 43
0.0
 10
-211.8069188923746
 20
1067.908936985028
 10
-206.2641358322244
 20
1069.178256536085
 10
-201.6460044525947
 20
1069.306641415147
 10
-196.5146528483037
 20
1068.174772166253
  0
LWPOLYLINE
  5
9A8
330
1F
100
AcDbEntity
  8
ceco.net 140
100
AcDbPolyline
 90
        4
 70
     0
 43
0.0
 10
-200.2703733671287
 20
1077.151307210423
 10
-194.3384257171592
 20
1075.882402122568
 10
-191.5868762632262
 20
1074.365698181517
 10
-188.5125489366819
 20
1072.698765632432
  0
LWPOLYLINE
  5
9A9
330
1F
100
AcDbEntity
  8
ceco.net 140
100
AcDbPolyline
 90
        2
 70
     0
 43
0.0
 10
-196.8639847245403
 20
1057.809594188506
 10
-194.9043226731637
 20
1056.111583083586
  0
LWPOLYLINE
  5
9AA
330
1F
100
AcDbEntity
  8
ceco.net 140
100
AcDbPolyline
 90
        3
 70
     0
 43
0.0
 10
72.83337914366348
 20
464.9569901122222
 10
73.50135440963277
 20
452.2422192019721
 10
74.43118747351127
 20
441.4211253312118
  0
LWPOLYLINE
  5
9AB
330
1F
100
AcDbEntity
  8
ceco.net 140
100
AcDbPolyline
 90
        4
 70
     0
 43
0.0
 10
37.74424511020788
 20
437.4143730824844
 10
30.28019758192022
 20
434.3772298754601
 10
22.49766479365098
 20
431.4884400551563
 10
18.65654721534701
 20
428.2376002813862
  0
LWPOLYLINE
  5
9AC
330
1F
100
AcDbEntity
  8
ceco.net 140
100
AcDbPolyline
 90
        4
 70
     0
 43
0.0
 10
17.7267141515822
 20
439.0586941521465
 10
20.57250314230805
 20
449.8275436579692
 10
23.52309802215677
 20
456.8264214329446
 10
27.28124479624602
 20
463.0618032870415
  0
LWPOLYLINE
  5
9AD
330
1F
100
AcDbEntity
  8
ceco.net 140
100
AcDbPolyline
 90
       39
 70
     0
 43
0.0
 10
-17.67649321397948
 20
1633.508964413574
 10
-25.88374153738095
 20
1632.815253770909
 10
-27.90008687709269
 20
1632.759199009506
 10
-29.76982992135981
 20
1633.017554710983
 10
-33.63436780689335
 20
1632.444662857588
 10
-36.41318962486275
 20
1631.901863443525
 10
-40.2992780089553
 20
1632.104164383614
 10
-44.15964552397236
 20
1631.376175690002
 10
-45.35288698361819
 20
1629.636206784178
 10
-51.07868845056964
 20
1629.011571470025
 10
-56.76986586497514
 20
1627.14655913947
 10
-60.76807373228712
 20
1625.794068673764
 10
-67.14428757454607
 20
1620.651631825858
 10
-71.60329038454074
 20
1619.13120906268
 10
-76.28639092099456
 20
1614.5012074145
 10
-79.04797385135589
 20
1613.338308120654
 10
-83.43815479549812
 20
1609.337210136852
 10
-85.53616593662718
 20
1606.641083793485
 10
-88.35383503965113
 20
1601.907819357501
 10
-91.81338419314124
 20
1597.93259310407
 10
-94.01906448506361
 20
1593.526676959393
 10
-97.13396730951354
 20
1588.319692364374
 10
-99.45176960327353
 20
1582.359075405586
 10
-102.6440819985728
 20
1568.77107802803
 10
-102.8594203001593
 20
1565.351498425437
 10
-102.5707214219655
 20
1560.549469459838
 10
-104.4705142914599
 20
1545.135394999599
 10
-104.7461091362256
 20
1538.300547095042
 10
-106.2624992885721
 20
1531.431204858828
 10
-106.7709009409545
 20
1527.382808256996
 10
-108.278670390131
 20
1520.203370785049
 10
-108.6221617855007
 20
1509.694203120099
 10
-108.3591837762687
 20
1505.822463788186
 10
-107.6224785104604
 20
1501.653468604326
 10
-107.7817835013765
 20
1496.218315265361
 10
-107.4155008140669
 20
1488.625519769892
 10
-106.8725833513999
 20
1480.261752189941
 10
-105.7867839425161
 20
1474.706090860616
 10
-104.5463473950112
 20
1472.863501570808
  0
LWPOLYLINE
  5
9AE
330
1F
100
AcDbEntity
  8
ceco.net 140
100
AcDbPolyline
 90
        8
 70
     0
 43
0.0
 10
-101.793689687337
 20
1445.842734142098
 10
-101.8616080396659
 20
1445.178909152298
 10
-103.8629536796624
 20
1433.275423163658
 10
-102.0231547368657
 20
1428.516515057532
 10
-106.2798044210458
 20
1425.294921167841
 10
-109.7952985069914
 20
1417.749333698774
 10
-113.9224989233971
 20
1409.876405791402
 10
-115.5162459467182
 20
1404.320656094151
  0
LWPOLYLINE
  5
9AF
330
1F
100
AcDbEntity
  8
ceco.net 140
100
AcDbPolyline
 90
        2
 70
     0
 43
0.0
 10
-115.692657321073
 20
1400.964762654348
 10
-115.5985764475635
 20
1397.580580362395
  0
LWPOLYLINE
  5
9B0
330
1F
100
AcDbEntity
  8
ceco.net 140
100
AcDbPolyline
 90
        4
 70
     0
 43
0.0
 10
-128.1396454036885
 20
1385.275679566499
 10
-120.7121149647709
 20
1386.102836027953
 10
-112.4142951382045
 20
1389.126440278199
 10
-99.5811130785105
 20
1395.881108352847
  0
LWPOLYLINE
  5
9B1
330
1F
100
AcDbEntity
  8
ceco.net 140
100
AcDbPolyline
 90
        2
 70
     0
 43
0.0
 10
-87.46060023061
 20
1405.954435589373
 10
-82.73043431138285
 20
1410.122880985818
  0
LWPOLYLINE
  5
9B2
330
1F
100
AcDbEntity
  8
ceco.net 140
100
AcDbPolyline
 90
        8
 70
     0
 43
0.0
 10
-71.05543060363197
 20
1459.168847748737
 10
-73.62741596530122
 20
1445.598095573766
 10
-76.31132670833176
 20
1436.058494798041
 10
-75.303025248626
 20
1427.70775563819
 10
-76.8711924811887
 20
1417.113045937805
 10
-78.62878052578617
 20
1407.754319214484
 10
-80.23573966290678
 20
1398.554992778992
 10
-83.1652482872405
 20
1392.267035381914
  0
LWPOLYLINE
  5
9B3
330
1F
100
AcDbEntity
  8
ceco.net 140
100
AcDbPolyline
 90
        7
 70
     0
 43
0.0
 10
-69.95235679068992
 20
1441.821212709053
 10
-72.90763914586387
 20
1430.877606067108
 10
-72.5973872507202
 20
1425.300293716384
 10
-72.15352075429473
 20
1414.916731691059
 10
-72.51114974071606
 20
1411.027648711902
 10
-73.43293372828066
 20
1405.105841311931
 10
-74.40227156366654
 20
1400.889508486125
  0
LWPOLYLINE
  5
9B4
330
1F
100
AcDbEntity
  8
ceco.net 140
100
AcDbPolyline
 90
        8
 70
     0
 43
0.0
 10
-110.0146858029338
 20
1397.727132745453
 10
-108.7869086690707
 20
1403.812659586899
 10
-106.2795443230688
 20
1408.53729749511
 10
-102.4021625019704
 20
1414.230936151122
 10
-96.55153885644176
 20
1421.531105747158
 10
-89.0552195496175
 20
1431.049370226867
 10
-84.07497115156184
 20
1441.738936394481
 10
-82.39042568682089
 20
1448.147405708434
  0
LWPOLYLINE
  5
9B5
330
1F
100
AcDbEntity
  8
ceco.net 140
100
AcDbPolyline
 90
        8
 70
     0
 43
0.0
 10
-146.2428463501728
 20
1388.164423021502
 10
-142.5162371951491
 20
1393.698748054839
 10
-138.7594568386239
 20
1398.147785058975
 10
-136.0366658128205
 20
1400.706067617742
 10
-130.0265629382229
 20
1402.269611240379
 10
-125.7097120913604
 20
1403.320625145136
 10
-119.2041927400387
 20
1403.811814640485
 10
-115.5162459467182
 20
1404.320656094165
  0
LWPOLYLINE
  5
9B6
330
1F
100
AcDbEntity
  8
ceco.net 140
100
AcDbPolyline
 90
        8
 70
     0
 43
0.0
 10
-143.8646132750809
 20
1386.368528969848
 10
-142.4171003690835
 20
1390.132698139845
 10
-138.6516993096156
 20
1394.271639908248
 10
-133.1630162611181
 20
1397.837819438828
 10
-125.6321282822445
 20
1400.529858615266
 10
-120.677567755205
 20
1400.977931177672
 10
-117.2610337387814
 20
1400.917698657702
 10
-115.692657321073
 20
1400.964762654348
  0
LWPOLYLINE
  5
9B7
330
1F
100
AcDbEntity
  8
ceco.net 140
100
AcDbPolyline
 90
        5
 70
     0
 43
0.0
 10
-113.2735426791205
 20
1401.643872370124
 10
-109.6231830807246
 20
1401.897664624266
 10
-110.5368235717596
 20
1399.130203077697
 10
-112.5777638439549
 20
1398.540283297672
 10
-113.2735426791205
 20
1401.643872370124
  0
LWPOLYLINE
  5
9B8
330
1F
100
AcDbEntity
  8
ceco.net 140
100
AcDbPolyline
 90
        6
 70
     0
 43
0.0
 10
-112.3875526131532
 20
1405.40086263986
 10
-112.3092523333289
 20
1410.811007954459
 10
-108.4517523875765
 20
1417.316422444566
 10
-108.0582870033131
 20
1408.644148847438
 10
-109.2637458242043
 20
1405.411549225883
 10
-112.3875526131532
 20
1405.40086263986
  0
LWPOLYLINE
  5
9B9
330
1F
100
AcDbEntity
  8
ceco.net 140
100
AcDbPolyline
 90
        9
 70
     0
 43
0.0
 10
-106.5863585351498
 20
1410.513170615027
 10
-106.8740732661799
 20
1418.122021549089
 10
-104.5921369319094
 20
1423.745739944303
 10
-102.8199255754989
 20
1425.775421233803
 10
-102.1895963825263
 20
1425.031205155685
 10
-102.4137083201812
 20
1422.13060102251
 10
-101.6988873769369
 20
1418.342048445163
 10
-102.0921828665668
 20
1416.046078055936
 10
-104.7949613120626
 20
1411.85780173445
  0
LWPOLYLINE
  5
9BA
330
1F
100
AcDbEntity
  8
ceco.net 140
100
AcDbPolyline
 90
        9
 70
     0
 43
0.0
 10
-143.8646132750809
 20
1386.368528969848
 10
-143.2269092816332
 20
1385.501399366086
 10
-139.8769738116916
 20
1385.594528171845
 10
-133.9720995981215
 20
1386.977358886051
 10
-129.8819407277951
 20
1390.594867554719
 10
-126.7708719905831
 20
1393.804287671153
 10
-122.4861358932221
 20
1395.903726936532
 10
-118.471921786021
 20
1396.777062149832
 10
-115.5985764475635
 20
1397.580580362395
  0
LWPOLYLINE
  5
9BB
330
1F
100
AcDbEntity
  8
ceco.net 140
100
AcDbPolyline
 90
       11
 70
     0
 43
0.0
 10
-129.311558520907
 20
1387.598762316338
 10
-126.0830988092711
 20
1390.815797682998
 10
-121.5994719330628
 20
1393.21478194004
 10
-117.5736276972647
 20
1395.03240977009
 10
-115.6107259857426
 20
1396.03466521458
 10
-114.3451703623659
 20
1394.837846468115
 10
-114.176690284079
 20
1392.189135179316
 10
-116.0342926293187
 20
1390.810841299861
 10
-121.7862456458751
 20
1389.703249550786
 10
-125.4594653672247
 20
1388.843020509236
 10
-129.311558520907
 20
1387.598762316338
  0
LWPOLYLINE
  5
9BC
330
1F
100
AcDbEntity
  8
ceco.net 140
100
AcDbPolyline
 90
        6
 70
     0
 43
0.0
 10
-111.9173726379576
 20
1397.375688834978
 10
-111.6060658285496
 20
1394.54672364358
 10
-111.3090237526639
 20
1393.903668036722
 10
-110.6760495201333
 20
1396.247189950594
 10
-110.5779986085726
 20
1397.738580387633
 10
-111.9173726379576
 20
1397.375688834978
  0
LWPOLYLINE
  5
9BD
330
1F
100
AcDbEntity
  8
ceco.net 140
100
AcDbPolyline
 90
       10
 70
     1
 43
0.0
 10
-103.5720829183437
 20
1400.166252342524
 10
-101.0752755103785
 20
1399.072656146154
 10
-99.81720727609991
 20
1399.014611795942
 10
-98.58110508669051
 20
1399.746707862314
 10
-98.34078365595269
 20
1401.149034572918
 10
-99.06685055245725
 20
1403.82694105113
 10
-99.71782671329856
 20
1403.80884379733
 10
-100.3907183977153
 20
1402.90627667745
 10
-102.3139239651518
 20
1401.782822201463
 10
-103.1703863114435
 20
1400.782132911993
  0
LWPOLYLINE
  5
9BE
330
1F
100
AcDbEntity
  8
ceco.net 140
100
AcDbPolyline
 90
        8
 70
     1
 43
0.0
 10
-97.20806190484745
 20
1405.599827493285
 10
-97.12024069080962
 20
1404.113604334606
 10
-96.10895626628826
 20
1402.885691461017
 10
-95.78086666131094
 20
1404.47649588726
 10
-95.83513956551906
 20
1406.428746056656
 10
-96.65021356859051
 20
1407.289947464045
 10
-97.43542593509937
 20
1407.082080675019
 10
-97.60205468178265
 20
1406.37962550013
  0
LWPOLYLINE
  5
9BF
330
1F
100
AcDbEntity
  8
ceco.net 140
100
AcDbPolyline
 90
      180
 70
     0
 43
0.0
 10
-82.73043431138285
 20
1410.122880985818
 10
-86.01086098310497
 20
1394.345402575561
 10
-88.22744550588959
 20
1384.947261137321
 10
-93.9411468295466
 20
1371.069404810649
 10
-98.82948527258486
 20
1354.928097090601
 10
-101.2101363077808
 20
1344.572631094971
 10
-103.0087443192078
 20
1333.852295004996
 10
-104.6133598513952
 20
1322.86536693382
 10
-101.5022761167292
 20
1306.946444582303
 10
-97.57640956952309
 20
1289.144646380885
 10
-97.45451685450825
 20
1277.906169393839
 10
-97.80349827492409
 20
1256.174747722733
 10
-101.5331806856456
 20
1239.493938363404
 10
-104.0512954892383
 20
1227.229305215752
 10
-108.3947952269672
 20
1218.915278799238
 10
-112.299162193789
 20
1215.377005762287
 10
-111.8706005772301
 20
1213.674054383782
 10
-104.9505925195253
 20
1218.439406428354
 10
-99.75012473973857
 20
1230.206987646178
 10
-95.78227252513807
 20
1245.179552700514
 10
-93.05774575166106
 20
1256.878302315152
 10
-91.12170439204783
 20
1283.226819118476
 10
-92.88375926946537
 20
1305.471175425333
 10
-95.41294122068302
 20
1321.025223755976
 10
-94.28623115213577
 20
1342.20664460002
 10
-90.94804224282507
 20
1352.398068830178
 10
-92.06948891978663
 20
1344.745237888256
 10
-93.76767337614547
 20
1330.407482488292
 10
-92.01622007317292
 20
1315.403434984725
 10
-88.04287448465311
 20
1302.747643775314
 10
-85.80479038159774
 20
1290.805713975169
 10
-88.4552303327373
 20
1283.300947574653
 10
-91.27503060808431
 20
1275.029280275967
 10
-91.31703274483607
 20
1249.11446909669
 10
-87.00495003877131
 20
1231.132927607172
 10
-84.35434094571883
 20
1224.918774964488
 10
-79.26470125182641
 20
1220.106242282719
 10
-82.0793768572903
 20
1225.363070367984
 10
-86.07918898639946
 20
1238.970889281796
 10
-87.13744684684934
 20
1249.61180398912
 10
-87.64555823934097
 20
1261.030114855921
 10
-84.52952149520934
 20
1272.358697523225
 10
-82.28117913831647
 20
1280.6144781895
 10
-80.0378176928225
 20
1275.341676806641
 10
-78.75211889229285
 20
1263.373361186262
 10
-77.34998781195281
 20
1254.075820689601
 10
-75.75766196266522
 20
1272.221415132273
 10
-77.44560211615317
 20
1284.940831683537
 10
-77.54088956887608
 20
1295.227375484325
 10
-73.22385385334564
 20
1304.493339013598
 10
-68.97562761748668
 20
1316.234447746035
 10
-67.33565358474516
 20
1325.807130137571
 10
-67.29858798810164
 20
1317.614884221521
 10
-64.68487283127524
 20
1305.87396786006
 10
-60.74314383654291
 20
1294.36054134913
 10
-58.28836160805986
 20
1288.331515512689
 10
-57.97608851271343
 20
1283.957702345327
 10
-60.34617091195196
 20
1280.081031699419
 10
-64.76906523455363
 20
1274.622907212838
 10
-71.91136417925372
 20
1270.99461908727
 10
-67.48845338729461
 20
1269.593191497344
 10
-60.72178801487007
 20
1273.020556775898
 10
-55.71169809702405
 20
1277.923383582413
 10
-53.84413936560486
 20
1286.168578395725
 10
-54.79669129165268
 20
1299.861021027021
 10
-59.33090969353907
 20
1312.120168877223
 10
-58.52688616512205
 20
1324.337149980559
 10
-55.69120697277776
 20
1332.037636893255
 10
-55.77572370914277
 20
1321.364952847583
 10
-51.39484799265028
 20
1307.767818231377
 10
-49.84466803882606
 20
1299.998688159939
 10
-48.23083117669193
 20
1289.944840471031
 10
-49.46341632178155
 20
1279.430810746214
 10
-54.10313857744222
 20
1261.200407476232
 10
-58.5099987921003
 20
1248.311645045342
 10
-59.70024099788043
 20
1236.274497821748
 10
-58.09185313882972
 20
1233.270531350422
 10
-55.51022266724794
 20
1243.250442954101
 10
-52.03443378622887
 20
1255.351219446078
 10
-47.74386209289696
 20
1265.569120088125
 10
-42.56442580169641
 20
1278.098309277647
 10
-39.46442316550838
 20
1296.857529889289
 10
-39.03587549980239
 20
1302.01403999562
 10
-35.68146938966856
 20
1284.196445753417
 10
-33.35885459939527
 20
1276.067738514109
 10
-32.50686746862266
 20
1265.992711266315
 10
-31.2423388784955
 20
1254.785909099462
 10
-32.36907936725311
 20
1247.323501816774
 10
-35.21005237139343
 20
1239.813438563283
 10
-39.21497018263744
 20
1233.033119424968
 10
-46.49473289562047
 20
1227.495664147406
 10
-51.90705912975682
 20
1223.343757088466
 10
-40.66441368088272
 20
1223.465824478092
 10
-35.04595543888536
 20
1227.051749559359
 10
-28.9194137061022
 20
1232.938286743484
 10
-24.09987079188249
 20
1244.695278181874
 10
-23.72970269182042
 20
1258.805634322934
 10
-23.95730134135101
 20
1266.992583385993
 10
-18.87807509235608
 20
1248.841797796155
 10
-18.22720863806262
 20
1239.14232101381
 10
-19.13709077343719
 20
1230.733178953167
 10
-22.3642824550543
 20
1223.402949579432
 10
-26.21571885908815
 20
1217.960711725305
 10
-23.65508945610963
 20
1214.983217739339
 10
-17.86183583801539
 20
1219.14562398606
 10
-13.87279694365497
 20
1226.497123510364
 10
-11.93672516383139
 20
1239.126626752346
 10
-9.698984381497211
 20
1254.622716221868
 10
-10.94234024283105
 20
1265.067914343498
 10
-4.863407359333905
 20
1258.949069715919
 10
-0.8053873248845775
 20
1250.106414402205
 10
-1.196742104706572
 20
1243.617123791191
 10
1.802864878232867
 20
1252.274840743135
 10
-0.9271413183105323
 20
1261.344985907394
 10
-6.302604036203774
 20
1276.438856128629
 10
-8.519512892074999
 20
1287.619091291924
 10
-8.450861121854359
 20
1292.00349423875
 10
1.813264372163757
 20
1272.472555136042
 10
3.860798952974619
 20
1267.384880559428
 10
1.956005483112676
 20
1281.050850705335
 10
-1.049205693742806
 20
1286.30247252928
 10
-4.996087260177773
 20
1298.006326625918
 10
-5.948639186111904
 20
1311.698769257213
 10
-5.599486105392315
 20
1319.711181293479
 10
-0.8007751177492536
 20
1304.791848099052
 10
2.818095676549091
 20
1298.032991482267
 10
3.167091047704161
 20
1312.904951668551
 10
7.272407030814974
 20
1329.786683874894
 10
12.59989219561339
 20
1343.844283489653
 10
13.6525293927898
 20
1353.972259634753
 10
15.00156076842904
 20
1360.297602998437
 10
22.83193300415951
 20
1346.034172352128
 10
25.17572052322611
 20
1337.143861067611
 10
25.36097371517007
 20
1330.48012009497
 10
23.87977490143475
 20
1322.055095328389
 10
19.54686026879335
 20
1313.360312185119
 10
14.33037485030672
 20
1302.163816835099
 10
9.833532427183854
 20
1292.511803652582
 10
5.781133056121689
 20
1280.585568113901
 10
5.839371381558521
 20
1271.631718152656
 10
6.236499497095792
 20
1250.492750944596
 10
9.035312654806148
 20
1238.947551168815
 10
19.44748702242213
 20
1220.945022491344
 10
22.57957434396848
 20
1217.983415137817
 10
18.04006213028605
 20
1230.432986647224
 10
12.18312370228977
 20
1242.274220987647
 10
10.23069096293147
 20
1257.653822883165
 10
12.12456104388002
 20
1271.806447550412
 10
16.51568106324339
 20
1285.266484885463
 10
22.15529808318115
 20
1294.950267406344
 10
27.05966811577218
 20
1303.661027773722
 10
32.31836027014287
 20
1313.334220515153
 10
32.6357694678345
 20
1315.629531838562
 10
33.72578264377443
 20
1303.846346950928
 10
34.24963423156077
 20
1291.85676117998
 10
31.66815895115269
 20
1275.017392017966
 10
27.39346869320888
 20
1264.228220398289
 10
21.98129513162803
 20
1253.216946372669
 10
29.26634913812995
 20
1258.564068582694
 10
33.23421782197419
 20
1266.677081560539
 10
35.33964992600522
 20
1280.073485700706
 10
36.61970016155555
 20
1302.592983902409
 10
36.82594298952699
 20
1315.746019412566
 10
35.13271154252015
 20
1328.655769031423
 10
33.15910859287305
 20
1344.796884380494
 10
30.52950056819645
 20
1363.96844261281
 10
30.95989012824793
 20
1376.283739966007
 10
32.11852969120718
 20
1382.603790403232
 10
34.04946285029473
 20
1388.564259746084
 10
37.29253093029092
 20
1395.323399325485
 10
38.53570118046809
 20
1405.456672323533
 10
38.51451450082186
 20
1413.077737853578
 10
39.60420334390255
 20
1421.872929567479
 10
41.14906158422491
 20
1428.013146124934
 10
44.32861399634567
 20
1437.057007248279
 10
45.76217857759366
 20
1447.195482581159
 10
48.27499956939028
 20
1459.650539388016
 10
48.32775847176072
 20
1471.465584205683
 10
48.9096463043561
 20
1477.960171669673
 10
51.27457613200568
 20
1482.027269901303
  0
LWPOLYLINE
  5
9C0
330
1F
100
AcDbEntity
  8
ceco.net 140
100
AcDbPolyline
 90
       16
 70
     1
 43
0.0
 10
-80.91249910962597
 20
1299.945874861658
 10
-76.42080925809205
 20
1309.78831562991
 10
-73.47413283794049
 20
1320.349997399029
 10
-74.27834197762786
 20
1328.711487415384
 10
-74.04579031863159
 20
1347.772043371117
 10
-77.74950721904952
 20
1364.436773727044
 10
-76.20480668817799
 20
1377.436538434517
 10
-76.87139686840874
 20
1380.847738044503
 10
-81.04038371045499
 20
1373.110184940466
 10
-83.53732578514064
 20
1360.08394774762
 10
-88.19294090876519
 20
1349.284186348493
 10
-88.36743985359499
 20
1341.848251551178
 10
-88.95975760033161
 20
1328.874963255595
 10
-86.81165570585472
 20
1320.169782703837
 10
-84.92274115287637
 20
1307.074992943904
 10
-83.05515200124682
 20
1301.601174195875
  0
LWPOLYLINE
  5
9C1
330
1F
100
AcDbEntity
  8
ceco.net 140
100
AcDbPolyline
 90
       15
 70
     0
 43
0.0
 10
-130.3368348537323
 20
1267.704200391571
 10
-121.7715450006371
 20
1274.992349683609
 10
-116.7983629697564
 20
1281.227874256169
 10
-113.7934646936391
 20
1289.695258140563
 10
-112.0211794640899
 20
1301.367535269799
 10
-112.1483685094053
 20
1312.796526507705
 10
-115.4445502450689
 20
1328.5197322735
 10
-118.0053348391074
 20
1338.356683817801
 10
-120.836049589524
 20
1351.044331030715
 10
-121.4551582098229
 20
1359.601447041109
 10
-120.0902479171863
 20
1365.355610018818
 10
-121.2700881106447
 20
1373.516086596476
 10
-124.0583022124146
 20
1377.821068160637
 10
-124.1694546312819
 20
1381.819330862549
 10
-122.1750058042052
 20
1385.495078661472
  0
LWPOLYLINE
  5
9C2
330
1F
100
AcDbEntity
  8
ceco.net 140
100
AcDbPolyline
 90
       12
 70
     0
 43
0.0
 10
-130.0738606682434
 20
1381.655187317756
 10
-126.9310305319313
 20
1371.453275087469
 10
-124.4866921685561
 20
1365.805009904315
 10
-126.7140055551399
 20
1356.787711857999
 10
-124.840967400768
 20
1344.264011892414
 10
-117.5342611415535
 20
1321.411695897362
 10
-116.8939797924613
 20
1312.092975841787
 10
-116.227231902666
 20
1301.822228081784
 10
-115.9467026904612
 20
1291.73131420155
 10
-120.8140235957662
 20
1281.687859994628
 10
-126.3426433878967
 20
1274.865272330155
 10
-130.3368348537323
 20
1267.704200391571
  0
LWPOLYLINE
  5
9C3
330
1F
100
AcDbEntity
  8
ceco.net 140
100
AcDbPolyline
 90
        2
 70
     0
 43
0.0
 10
-136.2842999095155
 20
1351.777784133966
 10
-135.5335123731256
 20
1363.376266656851
  0
LWPOLYLINE
  5
9C4
330
1F
100
AcDbEntity
  8
ceco.net 140
100
AcDbPolyline
 90
        4
 70
     0
 43
0.0
 10
-134.3631398108973
 20
1370.244116361996
 10
-133.4808565388348
 20
1373.938817699121
 10
-133.687282459572
 20
1381.364162716971
 10
-134.0542217596512
 20
1383.906269043004
  0
LWPOLYLINE
  5
9C5
330
1F
100
AcDbEntity
  8
ceco.net 140
100
AcDbPolyline
 90
        9
 70
     0
 43
0.0
 10
-111.7947386459936
 20
1347.819350059291
 10
-106.6651697020224
 20
1361.66437631581
 10
-103.507915547947
 20
1367.107170684628
 10
-101.3345083956201
 20
1373.940018463025
 10
-99.89135849555077
 20
1378.705152489226
 10
-95.09860870521061
 20
1387.658321593386
 10
-91.7968541858263
 20
1393.577571055113
 10
-89.97778890597965
 20
1401.818063260046
 10
-87.46060023061
 20
1405.954435589373
  0
LWPOLYLINE
  5
9C6
330
1F
100
AcDbEntity
  8
ceco.net 140
100
AcDbPolyline
 90
        7
 70
     0
 43
0.0
 10
-111.7947386459936
 20
1347.819350059291
 10
-110.565948584348
 20
1354.626027975138
 10
-105.4715418889136
 20
1375.399982704317
 10
-104.0852689851126
 20
1382.211038671352
 10
-102.6378832344325
 20
1386.818720474318
 10
-100.8142802310876
 20
1389.231878733719
 10
-99.5811130785105
 20
1395.881108352847
  0
LWPOLYLINE
  5
9C7
330
1F
100
AcDbEntity
  8
ceco.net 140
100
AcDbPolyline
 90
       51
 70
     0
 43
0.0
 10
-146.2428463501728
 20
1388.164423021502
 10
-146.5837485271313
 20
1382.783876626413
 10
-146.5150221566309
 20
1380.311720947867
 10
-146.4737848234099
 20
1378.828373185735
 10
-153.6421210922289
 20
1374.052037797335
 10
-160.542529592657
 20
1368.54099442686
 10
-164.4375377426958
 20
1361.752670073196
 10
-169.2024504839755
 20
1350.567731246096
 10
-170.744633677099
 20
1343.721153330969
 10
-170.6551668668898
 20
1336.054025977896
 10
-167.8866482896628
 20
1329.945780249255
 10
-165.3243282908752
 20
1326.800699836278
 10
-160.8419336267379
 20
1325.811985915658
 10
-149.3730818885514
 20
1327.244147341767
 10
-142.4108199066258
 20
1330.530259660713
 10
-139.3024360842891
 20
1334.451480560639
 10
-134.4457947820492
 20
1346.709502445103
 10
-133.9547310183879
 20
1351.300208462527
 10
-135.2564560130067
 20
1349.161032201701
 10
-139.1205399408581
 20
1341.260332913927
 10
-140.8687779537094
 20
1337.376833649338
 10
-143.3830071975526
 20
1334.338039953204
 10
-146.6597899685202
 20
1332.020294216201
 10
-150.4413628138754
 20
1330.059593435757
 10
-155.4939994447968
 20
1329.300635327351
 10
-159.6947205627648
 20
1329.060192011832
 10
-164.0157109400879
 20
1333.145953190035
 10
-167.0624678783488
 20
1340.359789137133
 10
-166.5060959807751
 20
1347.055298805324
 10
-163.957626584146
 20
1353.31135775146
 10
-158.4310902037023
 20
1363.732430460652
 10
-154.1995641180838
 20
1367.313706043854
 10
-150.5586187040071
 20
1369.889081923767
 10
-145.7087429477715
 20
1373.487547738514
 10
-144.135652481008
 20
1374.768358407914
 10
-141.1713676910258
 20
1370.521127393383
 10
-138.1006786738898
 20
1366.895348341012
 10
-133.8551632644102
 20
1361.075579083257
 10
-131.8115228762726
 20
1358.782079546054
 10
-129.152843711221
 20
1352.175948872949
 10
-128.6548022342904
 20
1347.612740158277
 10
-130.6022441636505
 20
1341.991883788887
 10
-132.4534512182926
 20
1337.363365544485
 10
-135.1187936234728
 20
1326.403340634451
 10
-134.3251915823875
 20
1320.116529356093
 10
-131.206394861646
 20
1314.760268506214
 10
-133.119701462373
 20
1321.263367491932
 10
-132.4224196531067
 20
1327.344209913642
 10
-130.1796801729542
 20
1335.694757586333
 10
-126.9888072537914
 20
1341.102765865267
 10
-126.5766561616137
 20
1344.083121412475
  0
LWPOLYLINE
  5
9C8
330
1F
100
AcDbEntity
  8
ceco.net 140
100
AcDbPolyline
 90
        6
 70
     0
 43
0.0
 10
-128.7717411328903
 20
1360.722067739397
 10
-132.8110410152694
 20
1368.032063993092
 10
-137.578668702371
 20
1374.826890552649
 10
-140.4157918769433
 20
1378.953994166375
 10
-143.1926420597837
 20
1381.126566549164
 10
-143.2269092816332
 20
1385.501399366086
  0
LWPOLYLINE
  5
9C9
330
1F
100
AcDbEntity
  8
ceco.net 140
100
AcDbPolyline
 90
        2
 70
     0
 43
0.0
 10
-148.7123400776899
 20
1384.635033426684
 10
-146.4437612601832
 20
1384.993331524208
  0
LWPOLYLINE
  5
9CA
330
1F
100
AcDbEntity
  8
ceco.net 140
100
AcDbPolyline
 90
        8
 70
     0
 43
0.0
 10
-106.6788188223417
 20
1426.570589563462
 10
-105.685178036605
 20
1433.446432780906
 10
-105.26776177387
 20
1436.95939068254
 10
-105.0461792534169
 20
1438.252765092025
 10
-104.7129527237975
 20
1433.679444130499
 10
-103.9123866214131
 20
1430.818205630524
 10
-105.4792890384524
 20
1427.891151081917
 10
-106.4728905857455
 20
1426.576314405304
  0
LWPOLYLINE
  5
9CB
330
1F
100
AcDbEntity
  8
ceco.net 140
100
AcDbPolyline
 90
       12
 70
     0
 43
0.0
 10
-110.5216486211693
 20
1420.28489348325
 10
-108.7975096713298
 20
1423.113327579693
 10
-107.748226142984
 20
1427.982561708143
 10
-107.3193868999842
 20
1434.791207513635
 10
-105.9684445358006
 20
1441.779975434835
 10
-105.2793260797207
 20
1446.639287571466
 10
-106.0670779525698
 20
1447.183751374305
 10
-108.3259623197354
 20
1439.500387401006
 10
-109.53969246027
 20
1433.133293278055
 10
-110.3216228991177
 20
1427.91102081764
 10
-110.8162570202002
 20
1423.469082004041
 10
-110.4244064535569
 20
1420.493580144773
  0
LWPOLYLINE
  5
9CC
330
1F
100
AcDbEntity
  8
ceco.net 140
100
AcDbPolyline
 90
       13
 70
     0
 43
0.0
 10
-112.6791952774046
 20
1412.248095795215
 10
-112.5174922829719
 20
1416.110195743465
 10
-112.2930697081974
 20
1421.007994417687
 10
-112.0000723606826
 20
1425.289840208998
 10
-111.0007723021444
 20
1430.106279621719
 10
-110.1615672332163
 20
1435.124161015261
 10
-109.6955378289512
 20
1440.59503984854
 10
-108.6762134612617
 20
1444.691185010819
 10
-106.129288883334
 20
1451.226529612762
 10
-105.0070814780601
 20
1457.179203425264
 10
-104.2136469781771
 20
1463.84349756027
 10
-104.8499051900753
 20
1468.202501536604
 10
-104.5463473950112
 20
1472.863501570808
  0
LWPOLYLINE
  5
9CD
330
1F
100
AcDbEntity
  8
ceco.net 140
100
AcDbPolyline
 90
        8
 70
     0
 43
0.0
 10
-103.1386171899375
 20
1467.786613197683
 10
-103.6730382847499
 20
1455.517018403734
 10
-104.5351286381437
 20
1451.322343380946
 10
-104.5164353334475
 20
1445.092593167965
 10
-103.1154910968543
 20
1448.426910011486
 10
-101.7716384931864
 20
1457.526537797599
 10
-101.4885943997787
 20
1464.022246165706
 10
-103.1386171899375
 20
1467.786613197683
  0
LWPOLYLINE
  5
9CE
330
1F
100
AcDbEntity
  8
ceco.net 140
100
AcDbPolyline
 90
       12
 70
     1
 43
0.0
 10
-69.83199388885077
 20
1380.748874945078
 10
-69.79964578301769
 20
1373.585598486195
 10
-69.60526063978614
 20
1366.593372171829
 10
-68.7631586228681
 20
1360.285606430929
 10
-68.55498100840032
 20
1358.791849801457
 10
-64.4425069828676
 20
1366.736897647692
 10
-61.76856427243729
 20
1372.475956132996
 10
-62.0924451704459
 20
1378.131674585299
 10
-63.66548051716927
 20
1380.753759634837
 10
-66.40416885745617
 20
1383.343348660824
 10
-68.2777073535126
 20
1384.790717297997
 10
-68.72650700581653
 20
1382.945605611192
  0
LWPOLYLINE
  5
9CF
330
1F
100
AcDbEntity
  8
ceco.net 140
100
AcDbPolyline
 90
        8
 70
     0
 43
0.0
 10
-65.35407790734007
 20
1387.53781043375
 10
-62.56447881271379
 20
1383.116911098051
 10
-60.02933663121348
 20
1381.854480647641
 10
-60.48280762486138
 20
1392.17168330955
 10
-61.77819447254842
 20
1396.800758160717
 10
-62.64324997591666
 20
1391.94498647789
 10
-64.72024532702016
 20
1388.721702802323
 10
-65.35407790734007
 20
1387.53781043375
  0
LWPOLYLINE
  5
9D0
330
1F
100
AcDbEntity
  8
ceco.net 140
100
AcDbPolyline
 90
       11
 70
     0
 43
0.0
 10
-60.45929313138367
 20
1367.347449486737
 10
-63.13323584192767
 20
1361.608391001434
 10
-66.12619493246166
 20
1355.360555361082
 10
-67.15314623313497
 20
1350.333737460255
 10
-65.67272393881376
 20
1345.043352699173
 10
-64.96484095471169
 20
1343.563578630105
 10
-63.89637801425942
 20
1347.092097219197
 10
-61.89792076402136
 20
1353.145558721161
 10
-60.23713940153266
 20
1359.356359582188
 10
-59.5896555902973
 20
1366.038717709153
 10
-60.45929313138367
 20
1367.347449486737
  0
LWPOLYLINE
  5
9D1
330
1F
100
AcDbEntity
  8
ceco.net 140
100
AcDbPolyline
 90
       13
 70
     1
 43
0.0
 10
-56.20825163925838
 20
1388.291883822157
 10
-53.34913421888723
 20
1375.375742847788
 10
-55.30579483065503
 20
1367.823899295425
 10
-56.10596346407328
 20
1354.639484027837
 10
-57.7667473450665
 20
1348.428773758437
 10
-57.55856973071241
 20
1346.935017128965
 10
-53.27017437441464
 20
1354.551683324638
 10
-50.82769268637912
 20
1362.616941232468
 10
-50.39750060536698
 20
1371.125984248246
 10
-51.73463467356123
 20
1383.251346556287
 10
-53.11795621839701
 20
1391.043519640158
 10
-55.5560001689164
 20
1394.80782900504
 10
-54.94998307478818
 20
1390.992588965596
  0
LWPOLYLINE
  5
9D2
330
1F
100
AcDbEntity
  8
ceco.net 140
100
AcDbPolyline
 90
        6
 70
     0
 43
0.0
 10
37.99203582723384
 20
1401.025171936561
 10
46.74622148893468
 20
1395.985759590425
 10
56.86827446611551
 20
1391.602067637728
 10
71.53313281314786
 20
1385.678576997287
 10
83.60745304553438
 20
1383.015247914054
 10
84.33363540727986
 20
1382.621202748277
  0
LWPOLYLINE
  5
9D3
330
1F
100
AcDbEntity
  8
ceco.net 140
100
AcDbPolyline
 90
        7
 70
     0
 43
0.0
 10
-93.02454536323148
 20
1552.41922167182
 10
-93.75120682848228
 20
1529.406314490865
 10
-94.35163070731869
 20
1518.234701513714
 10
-94.15547234864243
 20
1502.9875982139
 10
-91.22224924983493
 20
1487.588843691449
 10
-86.48769634210021
 20
1472.923211473991
 10
-84.93261125245135
 20
1466.136899595932
  0
LWPOLYLINE
  5
9D4
330
1F
100
AcDbEntity
  8
ceco.net 140
100
AcDbPolyline
 90
        5
 70
     0
 43
0.0
 10
-98.84553866067927
 20
1491.474640994292
 10
-96.96793904158676
 20
1473.087161752284
 10
-94.42049176488945
 20
1463.368968861184
 10
-92.62509985530778
 20
1447.938582427974
 10
-93.15594361471449
 20
1442.460280720547
  0
LWPOLYLINE
  5
9D5
330
1F
100
AcDbEntity
  8
ceco.net 140
100
AcDbPolyline
 90
        6
 70
     1
 43
0.0
 10
-99.31761641560024
 20
1441.289802860191
 10
-98.09192927441381
 20
1441.435572358267
 10
-97.23251943575997
 20
1450.73487813246
 10
-98.18202597393701
 20
1452.720082791367
 10
-98.90491354515143
 20
1446.553578541093
 10
-99.00728795600935
 20
1442.192444764424
  0
LWPOLYLINE
  5
9D6
330
1F
100
AcDbEntity
  8
ceco.net 140
100
AcDbPolyline
 90
        5
 70
     1
 43
0.0
 10
-97.11734444153899
 20
1426.487896807452
 10
-95.96319952010981
 20
1429.202026395396
 10
-96.05632980897008
 20
1432.552015212744
 10
-97.02442707004957
 20
1431.184125190165
 10
-97.18564015458833
 20
1428.944561312954
  0
LWPOLYLINE
  5
9D7
330
1F
100
AcDbEntity
  8
ceco.net 140
100
AcDbPolyline
 90
        5
 70
     0
 43
0.0
 10
51.27457613200568
 20
1482.027269901303
 10
51.84185407260975
 20
1493.821713697792
 10
55.92841261664125
 20
1500.451628212567
 10
56.36508073125788
 20
1509.002283645935
 10
57.81225232731322
 20
1521.625720293807
  0
LWPOLYLINE
  5
9D8
330
1F
100
AcDbEntity
  8
ceco.net 140
100
AcDbPolyline
 90
       27
 70
     0
 43
0.0
 10
-17.67649321397948
 20
1633.508964413574
 10
-3.949286986379775
 20
1632.932198701619
 10
5.783620705802604
 20
1630.506406581568
 10
17.23224404127086
 20
1631.049339975428
 10
22.41697100469173
 20
1630.519406804518
 10
29.01154977546502
 20
1627.781618301335
 10
34.23372630202357
 20
1625.904587217698
 10
43.09941630031153
 20
1622.331116227251
 10
52.7700393638961
 20
1614.061445297972
 10
56.07051688018692
 20
1608.535711494008
 10
60.30687298066459
 20
1601.687856264953
 10
65.21708867574125
 20
1594.858643791591
 10
68.84214907647765
 20
1585.746744967744
 10
70.7575933482085
 20
1573.441630581948
 10
75.25000946889213
 20
1557.388127053693
 10
80.1414896124479
 20
1543.143447810317
 10
83.17383785486162
 20
1531.093952508834
 10
84.30321508301494
 20
1522.811493032003
 10
87.91592444554316
 20
1506.059554651437
 10
90.97653627263843
 20
1494.57974705532
 10
92.09980573534812
 20
1478.432671308519
 10
96.04944076936682
 20
1457.64550114678
 10
100.6166172945095
 20
1438.897707274955
 10
108.6278370852833
 20
1417.549380387905
 10
117.9117281431454
 20
1398.932802686099
 10
120.9191083311689
 20
1387.781433054195
 10
121.0383025968903
 20
1379.202780572407
  0
LWPOLYLINE
  5
9D9
330
1F
100
AcDbEntity
  8
ceco.net 140
100
AcDbPolyline
 90
       15
 70
     0
 43
0.0
 10
110.5233425615106
 20
1382.211207150584
 10
106.8249985335578
 20
1393.456511841501
 10
100.3986818558823
 20
1406.310383337208
 10
93.87859751182167
 20
1422.532086279852
 10
91.98811877609022
 20
1433.939165587725
 10
86.33525212592394
 20
1451.308547400779
 10
84.57571639057823
 20
1466.089795814036
 10
85.3304498878524
 20
1479.367961405765
 10
81.13765111584234
 20
1492.733334992047
 10
78.95393381163649
 20
1498.514774545492
 10
80.03350218705326
 20
1475.850267106617
 10
79.42857449772964
 20
1457.183438089055
 10
83.1035627559695
 20
1438.186181608054
 10
88.99334987124893
 20
1428.463173083651
 10
97.86541361272703
 20
1416.5761135801
  0
LWPOLYLINE
  5
9DA
330
1F
100
AcDbEntity
  8
ceco.net 140
100
AcDbPolyline
 90
       10
 70
     0
 43
0.0
 10
106.0943401285394
 20
1382.769755859976
 10
103.2312824487926
 20
1393.356605891023
 10
98.70169351261303
 20
1402.668018275301
 10
93.7415442273741
 20
1411.293391496181
 10
86.85345839187538
 20
1424.583835619609
 10
80.22739658320096
 20
1436.533334378959
 10
82.92281915401053
 20
1428.51907085865
 10
89.17449747677983
 20
1413.862795475148
 10
92.56873692668341
 20
1396.880033314582
 10
101.2945953522612
 20
1382.554636997918
  0
LWPOLYLINE
  5
9DB
330
1F
100
AcDbEntity
  8
ceco.net 140
100
AcDbPolyline
 90
        5
 70
     0
 43
0.0
 10
92.34297520611198
 20
1493.943664793641
 10
100.3730495530599
 20
1455.743399057363
 10
110.4306673858454
 20
1433.553142616256
 10
114.8544143647322
 20
1411.880333065505
 10
121.9110307896935
 20
1392.527676559902
  0
LWPOLYLINE
  5
9DC
330
1F
100
AcDbEntity
  8
ceco.net 140
100
AcDbPolyline
 90
       11
 70
     0
 43
0.0
 10
127.3638812941053
 20
1390.432307976817
 10
134.1394861472517
 20
1397.361638076029
 10
140.0352480390447
 20
1403.592348213118
 10
140.4469480992711
 20
1413.041129316065
 10
135.7113707592143
 20
1421.672745677222
 10
125.2919864564782
 20
1432.618060267879
 10
116.4200639552072
 20
1444.505123697931
 10
109.9561539557962
 20
1458.706179771505
 10
104.4157822721454
 20
1472.034090589611
 10
100.0421043908554
 20
1483.821546409709
 10
94.60770443893215
 20
1493.33246450143
  0
LWPOLYLINE
  5
9DD
330
1F
100
AcDbEntity
  8
ceco.net 140
100
AcDbPolyline
 90
        7
 70
     0
 43
0.0
 10
49.50632673255859
 20
1450.060037066288
 10
53.45568753755379
 20
1437.361965369584
 10
58.50946324908455
 20
1425.368756775265
 10
64.67375841832654
 20
1413.85574005198
 10
70.40139120583808
 20
1401.881264805007
 10
75.5049700373329
 20
1396.180907263067
 10
81.16394193443829
 20
1386.676232311623
  0
LWPOLYLINE
  5
9DE
330
1F
100
AcDbEntity
  8
ceco.net 140
100
AcDbPolyline
 90
        5
 70
     0
 43
0.0
 10
57.07995391530949
 20
1492.963346489171
 10
58.86459069386183
 20
1469.19487001484
 10
62.78912468467388
 20
1457.394927914188
 10
64.94176868743671
 20
1444.646907168726
 10
70.76288666103301
 20
1429.304592621813
  0
LWPOLYLINE
  5
9DF
330
1F
100
AcDbEntity
  8
ceco.net 140
100
AcDbPolyline
 90
        9
 70
     0
 43
0.0
 10
22.51030277220797
 20
1418.525735722562
 10
27.1333991299125
 20
1430.113893584058
 10
26.53430819139066
 20
1435.490066802808
 10
27.18930497842484
 20
1444.271542089689
 10
26.21584132355201
 20
1455.029954410656
 10
28.94220168848369
 20
1462.071465065557
 10
31.40029979072187
 20
1470.678316614447
 10
23.13343223481842
 20
1485.053909760859
 10
22.62797597386543
 20
1495.15135392418
  0
LWPOLYLINE
  5
9E0
330
1F
100
AcDbEntity
  8
ceco.net 140
100
AcDbPolyline
 90
        6
 70
     0
 43
0.0
 10
24.09416655216409
 20
1603.573697091471
 10
25.07387599830599
 20
1592.590617465612
 10
27.58827570123776
 20
1582.99852284423
 10
30.65183275241543
 20
1569.826415751601
 10
35.20042321763503
 20
1551.75226535429
 10
40.14794723552859
 20
1543.575951041697
  0
LWPOLYLINE
  5
9E1
330
1F
100
AcDbEntity
  8
ceco.net 140
100
AcDbPolyline
 90
        6
 70
     0
 43
0.0
 10
-20.98874222572157
 20
1328.237284967196
 10
-18.85261505647031
 20
1341.958295255475
 10
-13.40233491437084
 20
1352.89537946563
 10
-10.56755397867073
 20
1367.354940811787
 10
-8.810857101888359
 20
1381.784440566457
 10
-6.854497909511337
 20
1401.971883202387
  0
LWPOLYLINE
  5
9E2
330
1F
100
AcDbEntity
  8
ceco.net 140
100
AcDbPolyline
 90
        7
 70
     0
 43
0.0
 10
-42.61081679471681
 20
1329.793209851141
 10
-44.29789399155106
 20
1338.734325339311
 10
-41.0337466546016
 20
1350.689145879934
 10
-35.88300104565769
 20
1359.460789887146
 10
-30.65243172302325
 20
1378.301090096281
 10
-29.02542547412759
 20
1397.400774785945
 10
-31.44140108674855
 20
1406.681100285064
  0
LWPOLYLINE
  5
9E3
330
1F
100
AcDbEntity
  8
ceco.net 140
100
AcDbPolyline
 90
        5
 70
     0
 43
0.0
 10
-3.501186043034977
 20
1462.464091049719
 10
-4.40999904567343
 20
1495.154995742476
 10
-3.681455155809999
 20
1507.758363749795
 10
2.377741041460467
 20
1522.667037934846
 10
1.848432895418227
 20
1541.7067766983
  0
LWPOLYLINE
  5
9E4
330
1F
100
AcDbEntity
  8
ceco.net 140
100
AcDbPolyline
 90
        5
 70
     0
 43
0.0
 10
-43.8502804183363
 20
1464.937567485174
 10
-42.79245563084169
 20
1491.571279310045
 10
-36.51376189982238
 20
1511.519319440859
 10
-34.15813971544048
 20
1530.27978626657
 10
-31.69265960282155
 20
1545.088554501115
  0
LWPOLYLINE
  5
9E5
330
1F
100
AcDbEntity
  8
ceco.net 140
100
AcDbPolyline
 90
        4
 70
     0
 43
0.0
 10
-22.82922033891645
 20
1627.305075769521
 10
-22.65944310972736
 20
1621.198020518031
 10
-26.33283914924414
 20
1611.029371700462
 10
-30.64511089457846
 20
1597.96681123816
  0
LWPOLYLINE
  5
9E6
330
1F
100
AcDbEntity
  8
ceco.net 140
100
AcDbPolyline
 90
        4
 70
     0
 43
0.0
 10
-6.537795558937432
 20
1623.443754116189
 10
-5.220021703802558
 20
1614.851936108061
 10
-9.232902674579236
 20
1603.954902513857
 10
-11.45876755510835
 20
1593.466931142581
  0
LWPOLYLINE
  5
9E7
330
1F
100
AcDbEntity
  8
ceco.net 140
100
AcDbPolyline
 90
        3
 70
     0
 43
0.0
 10
14.74479911580692
 20
1621.159263272312
 10
12.64861982615548
 20
1606.001288149366
 10
5.910741283674724
 20
1589.635671080765
  0
LWPOLYLINE
  5
9E8
330
1F
100
AcDbEntity
  8
ceco.net 140
100
AcDbPolyline
 90
        7
 70
     0
 43
0.0
 10
-48.96330856997701
 20
1622.983354956141
 10
-58.01715178570157
 20
1612.305655226516
 10
-63.93674620876391
 20
1605.310276656576
 10
-67.6900380077077
 20
1598.015557508327
 10
-70.67462223274015
 20
1588.944568996334
 10
-74.98689649657899
 20
1575.882099125687
 10
-74.40765224175629
 20
1555.046109023061
  0
LWPOLYLINE
  5
9E9
330
1F
100
AcDbEntity
  8
ceco.net 140
100
AcDbPolyline
 90
        4
 70
     0
 43
0.0
 10
49.35364937846407
 20
1430.422836010658
 10
50.07403212907866
 20
1419.266707391978
 10
53.31384873243314
 20
1406.311255764558
 10
59.79411719731706
 20
1399.473746840124
  0
ENDSEC
  0
SECTION
  2
OBJECTS
  0
DICTIONARY
  5
C
330
0
100
AcDbDictionary
281
     1
  3
ACAD_GROUP
350
D
  3
ACAD_LAYOUT
350
1A
  3
ACAD_MLINESTYLE
350
17
  3
ACAD_PLOTSETTINGS
350
19
  3
ACAD_PLOTSTYLENAME
350
E
  3
AcDbVariableDictionary
350
115
  3
DWGPROPS
350
8E3
  0
DICTIONARY
  5
900
330
2
100
AcDbDictionary
280
     1
281
     1
  3
ACAD_LAYERFILTERS
360
9EA
  3
ACAD_LAYERSTATES
360
901
  0
DICTIONARY
  5
8F6
330
8F5
100
AcDbDictionary
280
     1
281
     1
  3
ACAD_XREC_ROUNDTRIP
360
8F7
  0
DICTIONARY
  5
D
102
{ACAD_REACTORS
330
C
102
}
330
C
100
AcDbDictionary
281
     1
  0
DICTIONARY
  5
1A
102
{ACAD_REACTORS
330
C
102
}
330
C
100
AcDbDictionary
281
     1
  3
Layout1
350
1E
  3
Layout2
350
26
  3
Model
350
22
  0
DICTIONARY
  5
17
102
{ACAD_REACTORS
330
C
102
}
330
C
100
AcDbDictionary
281
     1
  3
Standard
350
18
  0
DICTIONARY
  5
19
102
{ACAD_REACTORS
330
C
102
}
330
C
100
AcDbDictionary
281
     1
  0
ACDBDICTIONARYWDFLT
  5
E
102
{ACAD_REACTORS
330
C
102
}
330
C
100
AcDbDictionary
281
     1
  3
Normal
350
F
100
AcDbDictionaryWithDefault
340
F
  0
DICTIONARY
  5
115
102
{ACAD_REACTORS
330
C
102
}
330
C
100
AcDbDictionary
281
     1
  3
DIMASSOC
350
117
  3
HIDETEXT
350
116
  0
XRECORD
  5
8E3
102
{ACAD_REACTORS
330
C
102
}
330
C
100
AcDbXrecord
280
     1
  1
DWGPROPS COOKIE
  2
Ceco.NET-Trees-and-Plants - T - xx . 67 . dwg
  3

  4
ceco.net
  6

  7

  8
peacosta
  9

300
=
301
=
302
=
303
=
304
=
305
=
306
=
307
=
308
=
309
=
 40
0.0450312037037037
 41
2455079.811409143
 42
2455838.656599502
  1

 90
        0
  0
DICTIONARY
  5
9EA
102
{ACAD_REACTORS
330
900
102
}
330
900
100
AcDbDictionary
280
     1
281
     1
  0
DICTIONARY
  5
901
102
{ACAD_REACTORS
330
900
102
}
330
900
100
AcDbDictionary
281
     1
  0
XRECORD
  5
8F7
102
{ACAD_REACTORS
330
8F6
102
}
330
8F6
100
AcDbXrecord
280
     1
102
MATERIAL
340
0
  0
LAYOUT
  5
1E
102
{ACAD_REACTORS
330
1A
102
}
330
1A
100
AcDbPlotSettings
  1

  2
Microsoft Office Document Image Writer
  4

  6

 40
0.0
 41
0.0
 42
0.0
 43
0.0
 44
0.0
 45
0.0
 46
0.0
 47
0.0
 48
0.0
 49
0.0
140
0.0
141
0.0
142
1.0
143
1.0
 70
   688
 72
     0
 73
     0
 74
     5
  7

 75
    16
147
1.0
148
0.0
149
0.0
100
AcDbLayout
  1
Layout1
 70
     1
 71
     1
 10
0.0
 20
0.0
 11
420.0
 21
297.0
 12
0.0
 22
0.0
 32
0.0
 14
1.000000000000000E+20
 24
1.000000000000000E+20
 34
1.000000000000000E+20
 15
-1.000000000000000E+20
 25
-1.000000000000000E+20
 35
-1.000000000000000E+20
146
0.0
 13
0.0
 23
0.0
 33
0.0
 16
1.0
 26
0.0
 36
0.0
 17
0.0
 27
1.0
 37
0.0
 76
     0
330
1B
  0
LAYOUT
  5
26
102
{ACAD_REACTORS
330
1A
102
}
330
1A
100
AcDbPlotSettings
  1

  2
Microsoft Office Document Image Writer
  4

  6

 40
0.0
 41
0.0
 42
0.0
 43
0.0
 44
0.0
 45
0.0
 46
0.0
 47
0.0
 48
0.0
 49
0.0
140
0.0
141
0.0
142
1.0
143
1.0
 70
   688
 72
     0
 73
     0
 74
     5
  7

 75
    16
147
1.0
148
0.0
149
0.0
100
AcDbLayout
  1
Layout2
 70
     1
 71
     2
 10
0.0
 20
0.0
 11
12.0
 21
9.0
 12
0.0
 22
0.0
 32
0.0
 14
0.0
 24
0.0
 34
0.0
 15
0.0
 25
0.0
 35
0.0
146
0.0
 13
0.0
 23
0.0
 33
0.0
 16
1.0
 26
0.0
 36
0.0
 17
0.0
 27
1.0
 37
0.0
 76
     0
330
23
  0
LAYOUT
  5
22
102
{ACAD_REACTORS
330
1A
102
}
330
1A
100
AcDbPlotSettings
  1

  2
Microsoft Office Document Image Writer
  4

  6

 40
0.0
 41
0.0
 42
0.0
 43
0.0
 44
0.0
 45
0.0
 46
0.0
 47
0.0
 48
0.0
 49
0.0
140
0.0
141
0.0
142
1.0
143
1.0
 70
  1712
 72
     0
 73
     0
 74
     0
  7

 75
     0
147
1.0
148
0.0
149
0.0
100
AcDbLayout
  1
Model
 70
     1
 71
     0
 10
0.0
 20
0.0
 11
12.0
 21
9.0
 12
0.0
 22
0.0
 32
0.0
 14
0.0
 24
0.0
 34
0.0
 15
0.0
 25
0.0
 35
0.0
146
0.0
 13
0.0
 23
0.0
 33
0.0
 16
1.0
 26
0.0
 36
0.0
 17
0.0
 27
1.0
 37
0.0
 76
     0
330
1F
  0
MLINESTYLE
  5
18
102
{ACAD_REACTORS
330
17
102
}
330
17
100
AcDbMlineStyle
  2
STANDARD
 70
     0
  3

 62
   256
 51
90.0
 52
90.0
 71
     2
 49
0.5
 62
   256
  6
BYLAYER
 49
-0.5
 62
   256
  6
BYLAYER
  0
ACDBPLACEHOLDER
  5
F
102
{ACAD_REACTORS
330
E
102
}
330
E
  0
DICTIONARYVAR
  5
117
102
{ACAD_REACTORS
330
115
102
}
330
115
100
DictionaryVariables
280
     0
  1
2
  0
DICTIONARYVAR
  5
116
102
{ACAD_REACTORS
330
115
102
}
330
115
100
DictionaryVariables
280
     0
  1
1
  0
ENDSEC
  0
EOF
