  0
SECTION
  2
HEADER
  9
$ACADVER
  1
AC1015
  9
$ACADMAINTVER
 70
    13
  9
$DWGCODEPAGE
  3
ANSI_1252
  9
$INSBASE
 10
0.0
 20
0.0
 30
0.0
  9
$EXTMIN
 10
-118.9848207809262
 20
-8.146255481653746
 30
0.0
  9
$EXTMAX
 10
534.7970973003048
 20
1216.101025881375
 30
0.0
  9
$LIMMIN
 10
0.0
 20
0.0
  9
$LIMMAX
 10
420.0
 20
297.0
  9
$ORTHOMODE
 70
     0
  9
$REGENMODE
 70
     1
  9
$FILLMODE
 70
     1
  9
$QTEXTMODE
 70
     0
  9
$MIRRTEXT
 70
     1
  9
$LTSCALE
 40
1.0
  9
$ATTMODE
 70
     1
  9
$TEXTSIZE
 40
2.5
  9
$TRACEWID
 40
1.0
  9
$TEXTSTYLE
  7
Standard
  9
$CLAYER
  8
ceco.net 127
  9
$CELTYPE
  6
ByLayer
  9
$CECOLOR
 62
   256
  9
$CELTSCALE
 40
1.0
  9
$DISPSILH
 70
     0
  9
$DIMSCALE
 40
1.0
  9
$DIMASZ
 40
2.5
  9
$DIMEXO
 40
0.625
  9
$DIMDLI
 40
3.75
  9
$DIMRND
 40
0.0
  9
$DIMDLE
 40
0.0
  9
$DIMEXE
 40
1.25
  9
$DIMTP
 40
0.0
  9
$DIMTM
 40
0.0
  9
$DIMTXT
 40
2.5
  9
$DIMCEN
 40
2.5
  9
$DIMTSZ
 40
0.0
  9
$DIMTOL
 70
     0
  9
$DIMLIM
 70
     0
  9
$DIMTIH
 70
     0
  9
$DIMTOH
 70
     0
  9
$DIMSE1
 70
     0
  9
$DIMSE2
 70
     0
  9
$DIMTAD
 70
     1
  9
$DIMZIN
 70
     8
  9
$DIMBLK
  1

  9
$DIMASO
 70
     1
  9
$DIMSHO
 70
     1
  9
$DIMPOST
  1

  9
$DIMAPOST
  1

  9
$DIMALT
 70
     0
  9
$DIMALTD
 70
     3
  9
$DIMALTF
 40
0.03937007874016
  9
$DIMLFAC
 40
1.0
  9
$DIMTOFL
 70
     1
  9
$DIMTVP
 40
0.0
  9
$DIMTIX
 70
     0
  9
$DIMSOXD
 70
     0
  9
$DIMSAH
 70
     0
  9
$DIMBLK1
  1

  9
$DIMBLK2
  1

  9
$DIMSTYLE
  2
ISO-25
  9
$DIMCLRD
 70
     0
  9
$DIMCLRE
 70
     0
  9
$DIMCLRT
 70
     0
  9
$DIMTFAC
 40
1.0
  9
$DIMGAP
 40
0.625
  9
$DIMJUST
 70
     0
  9
$DIMSD1
 70
     0
  9
$DIMSD2
 70
     0
  9
$DIMTOLJ
 70
     0
  9
$DIMTZIN
 70
     8
  9
$DIMALTZ
 70
     0
  9
$DIMALTTZ
 70
     0
  9
$DIMUPT
 70
     0
  9
$DIMDEC
 70
     2
  9
$DIMTDEC
 70
     2
  9
$DIMALTU
 70
     2
  9
$DIMALTTD
 70
     3
  9
$DIMTXSTY
  7
Standard
  9
$DIMAUNIT
 70
     0
  9
$DIMADEC
 70
     0
  9
$DIMALTRND
 40
0.0
  9
$DIMAZIN
 70
     0
  9
$DIMDSEP
 70
    44
  9
$DIMATFIT
 70
     3
  9
$DIMFRAC
 70
     0
  9
$DIMLDRBLK
  1

  9
$DIMLUNIT
 70
     2
  9
$DIMLWD
 70
    -2
  9
$DIMLWE
 70
    -2
  9
$DIMTMOVE
 70
     0
  9
$LUNITS
 70
     2
  9
$LUPREC
 70
     2
  9
$SKETCHINC
 40
1.0
  9
$FILLETRAD
 40
10.0
  9
$AUNITS
 70
     0
  9
$AUPREC
 70
     0
  9
$MENU
  1
.
  9
$ELEVATION
 40
0.0
  9
$PELEVATION
 40
0.0
  9
$THICKNESS
 40
0.0
  9
$LIMCHECK
 70
     0
  9
$CHAMFERA
 40
10.0
  9
$CHAMFERB
 40
10.0
  9
$CHAMFERC
 40
20.0
  9
$CHAMFERD
 40
0.0
  9
$SKPOLY
 70
     0
  9
$TDCREATE
 40
2455079.811409143
  9
$TDUCREATE
 40
2455079.936409144
  9
$TDUPDATE
 40
2456675.872658576
  9
$TDUUPDATE
 40
2456675.997658576
  9
$TDINDWG
 40
0.0474547801
  9
$TDUSRTIMER
 40
0.0474547801
  9
$USRTIMER
 70
     1
  9
$ANGBASE
 50
0.0
  9
$ANGDIR
 70
     0
  9
$PDMODE
 70
     0
  9
$PDSIZE
 40
0.0
  9
$PLINEWID
 40
0.0
  9
$SPLFRAME
 70
     0
  9
$SPLINETYPE
 70
     6
  9
$SPLINESEGS
 70
     8
  9
$HANDSEED
  5
9DB
  9
$SURFTAB1
 70
     6
  9
$SURFTAB2
 70
     6
  9
$SURFTYPE
 70
     6
  9
$SURFU
 70
     6
  9
$SURFV
 70
     6
  9
$UCSBASE
  2

  9
$UCSNAME
  2

  9
$UCSORG
 10
0.0
 20
0.0
 30
0.0
  9
$UCSXDIR
 10
1.0
 20
0.0
 30
0.0
  9
$UCSYDIR
 10
0.0
 20
1.0
 30
0.0
  9
$UCSORTHOREF
  2

  9
$UCSORTHOVIEW
 70
     0
  9
$UCSORGTOP
 10
0.0
 20
0.0
 30
0.0
  9
$UCSORGBOTTOM
 10
0.0
 20
0.0
 30
0.0
  9
$UCSORGLEFT
 10
0.0
 20
0.0
 30
0.0
  9
$UCSORGRIGHT
 10
0.0
 20
0.0
 30
0.0
  9
$UCSORGFRONT
 10
0.0
 20
0.0
 30
0.0
  9
$UCSORGBACK
 10
0.0
 20
0.0
 30
0.0
  9
$PUCSBASE
  2

  9
$PUCSNAME
  2

  9
$PUCSORG
 10
0.0
 20
0.0
 30
0.0
  9
$PUCSXDIR
 10
1.0
 20
0.0
 30
0.0
  9
$PUCSYDIR
 10
0.0
 20
1.0
 30
0.0
  9
$PUCSORTHOREF
  2

  9
$PUCSORTHOVIEW
 70
     0
  9
$PUCSORGTOP
 10
0.0
 20
0.0
 30
0.0
  9
$PUCSORGBOTTOM
 10
0.0
 20
0.0
 30
0.0
  9
$PUCSORGLEFT
 10
0.0
 20
0.0
 30
0.0
  9
$PUCSORGRIGHT
 10
0.0
 20
0.0
 30
0.0
  9
$PUCSORGFRONT
 10
0.0
 20
0.0
 30
0.0
  9
$PUCSORGBACK
 10
0.0
 20
0.0
 30
0.0
  9
$USERI1
 70
     0
  9
$USERI2
 70
     0
  9
$USERI3
 70
     0
  9
$USERI4
 70
     0
  9
$USERI5
 70
     0
  9
$USERR1
 40
0.0
  9
$USERR2
 40
0.0
  9
$USERR3
 40
0.0
  9
$USERR4
 40
0.0
  9
$USERR5
 40
0.0
  9
$WORLDVIEW
 70
     1
  9
$SHADEDGE
 70
     3
  9
$SHADEDIF
 70
    70
  9
$TILEMODE
 70
     1
  9
$MAXACTVP
 70
    64
  9
$PINSBASE
 10
0.0
 20
0.0
 30
0.0
  9
$PLIMCHECK
 70
     0
  9
$PEXTMIN
 10
1.000000000000000E+20
 20
1.000000000000000E+20
 30
1.000000000000000E+20
  9
$PEXTMAX
 10
-1.000000000000000E+20
 20
-1.000000000000000E+20
 30
-1.000000000000000E+20
  9
$PLIMMIN
 10
0.0
 20
0.0
  9
$PLIMMAX
 10
420.0
 20
297.0
  9
$UNITMODE
 70
     0
  9
$VISRETAIN
 70
     1
  9
$PLINEGEN
 70
     0
  9
$PSLTSCALE
 70
     1
  9
$TREEDEPTH
 70
  3020
  9
$CMLSTYLE
  2
Standard
  9
$CMLJUST
 70
     0
  9
$CMLSCALE
 40
20.0
  9
$PROXYGRAPHICS
 70
     1
  9
$MEASUREMENT
 70
     1
  9
$CELWEIGHT
370
    -1
  9
$ENDCAPS
280
     0
  9
$JOINSTYLE
280
     0
  9
$LWDISPLAY
290
     0
  9
$INSUNITS
 70
     4
  9
$HYPERLINKBASE
  1

  9
$STYLESHEET
  1

  9
$XEDIT
290
     1
  9
$CEPSNTYPE
380
     0
  9
$PSTYLEMODE
290
     1
  9
$FINGERPRINTGUID
  2
{81085373-3A21-4932-80AA-8F6C3258C50C}
  9
$VERSIONGUID
  2
{7C8EB68A-B870-4F43-8BF2-414595B80485}
  9
$EXTNAMES
290
     1
  9
$PSVPSCALE
 40
0.0
  9
$OLESTARTUP
290
     0
  0
ENDSEC
  0
SECTION
  2
CLASSES
  0
CLASS
  1
ACDBDICTIONARYWDFLT
  2
AcDbDictionaryWithDefault
  3
AutoCAD 2000
 90
        0
280
     0
281
     0
  0
CLASS
  1
ACDBPLACEHOLDER
  2
AcDbPlaceHolder
  3
AutoCAD 2000
 90
        0
280
     0
281
     0
  0
CLASS
  1
LAYOUT
  2
AcDbLayout
  3
AutoCAD 2000
 90
        0
280
     0
281
     0
  0
CLASS
  1
DICTIONARYVAR
  2
AcDbDictionaryVar
  3
AutoCAD 2000
 90
        0
280
     0
281
     0
  0
ENDSEC
  0
SECTION
  2
TABLES
  0
TABLE
  2
VPORT
  5
8
330
0
100
AcDbSymbolTable
 70
     3
  0
VPORT
  5
9DA
330
8
100
AcDbSymbolTableRecord
100
AcDbViewportTableRecord
  2
*Active
 70
     0
 10
0.0
 20
0.0
 11
1.0
 21
1.0
 12
207.9061382596893
 22
603.9773851998607
 13
0.0
 23
0.0
 14
10.0
 24
10.0
 15
10.0
 25
10.0
 16
0.0
 26
0.0
 36
1.0
 17
0.0
 27
0.0
 37
0.0
 40
1232.940161467381
 41
2.184834123222748
 42
50.0
 43
0.0
 44
0.0
 50
0.0
 51
0.0
 71
     0
 72
   100
 73
     1
 74
     3
 75
     0
 76
     0
 77
     0
 78
     0
281
     0
 65
     1
110
0.0
120
0.0
130
0.0
111
1.0
121
0.0
131
0.0
112
0.0
122
1.0
132
0.0
 79
     0
146
0.0
  0
ENDTAB
  0
TABLE
  2
LTYPE
  5
5
330
0
100
AcDbSymbolTable
 70
     1
  0
LTYPE
  5
14
330
5
100
AcDbSymbolTableRecord
100
AcDbLinetypeTableRecord
  2
ByBlock
 70
     0
  3

 72
    65
 73
     0
 40
0.0
  0
LTYPE
  5
15
330
5
100
AcDbSymbolTableRecord
100
AcDbLinetypeTableRecord
  2
ByLayer
 70
     0
  3

 72
    65
 73
     0
 40
0.0
  0
LTYPE
  5
16
330
5
100
AcDbSymbolTableRecord
100
AcDbLinetypeTableRecord
  2
Continuous
 70
     0
  3
Solid line
 72
    65
 73
     0
 40
0.0
  0
ENDTAB
  0
TABLE
  2
LAYER
  5
2
102
{ACAD_XDICTIONARY
360
900
102
}
330
0
100
AcDbSymbolTable
 70
     2
  0
LAYER
  5
10
330
2
100
AcDbSymbolTableRecord
100
AcDbLayerTableRecord
  2
0
 70
     0
 62
     7
  6
Continuous
370
    -3
390
F
  0
LAYER
  5
8F5
102
{ACAD_XDICTIONARY
360
8F6
102
}
330
2
100
AcDbSymbolTableRecord
100
AcDbLayerTableRecord
  2
ceco.net 127
 70
     0
 62
     7
  6
Continuous
370
    -3
390
F
1001
AcAecLayerStandard
1000

1000

  0
ENDTAB
  0
TABLE
  2
STYLE
  5
3
330
0
100
AcDbSymbolTable
 70
     1
  0
STYLE
  5
11
330
3
100
AcDbSymbolTableRecord
100
AcDbTextStyleTableRecord
  2
Standard
 70
     0
 40
0.0
 41
1.0
 50
0.0
 71
     0
 42
2.5
  3
txt
  4

  0
ENDTAB
  0
TABLE
  2
VIEW
  5
6
330
0
100
AcDbSymbolTable
 70
     0
  0
ENDTAB
  0
TABLE
  2
UCS
  5
7
330
0
100
AcDbSymbolTable
 70
     0
  0
ENDTAB
  0
TABLE
  2
APPID
  5
9
330
0
100
AcDbSymbolTable
 70
    12
  0
APPID
  5
12
330
9
100
AcDbSymbolTableRecord
100
AcDbRegAppTableRecord
  2
ACAD
 70
     0
  0
APPID
  5
2C
330
9
100
AcDbSymbolTableRecord
100
AcDbRegAppTableRecord
  2
ACAD_DSTYLE_DIMJOGGED_JOGANGLE_SYMBOL
 70
     0
  0
APPID
  5
11B
330
9
100
AcDbSymbolTableRecord
100
AcDbRegAppTableRecord
  2
ACAD_NAV_VCDISPLAY
 70
     0
  0
APPID
  5
11C
330
9
100
AcDbSymbolTableRecord
100
AcDbRegAppTableRecord
  2
ACAD_MLEADERVER
 70
     0
  0
APPID
  5
8F8
330
9
100
AcDbSymbolTableRecord
100
AcDbRegAppTableRecord
  2
ACAD_PSEXT
 70
     0
  0
APPID
  5
8F9
330
9
100
AcDbSymbolTableRecord
100
AcDbRegAppTableRecord
  2
ACAD_DSTYLE_DIMEXT_LENGTH
 70
     0
  0
APPID
  5
8FA
330
9
100
AcDbSymbolTableRecord
100
AcDbRegAppTableRecord
  2
ACAD_DSTYLE_DIMEXT_ENABLED
 70
     0
  0
APPID
  5
8FB
330
9
100
AcDbSymbolTableRecord
100
AcDbRegAppTableRecord
  2
ACAD_DSTYLE_DIMARC_LENGTH_SYMBOL
 70
     0
  0
APPID
  5
8FC
330
9
100
AcDbSymbolTableRecord
100
AcDbRegAppTableRecord
  2
AcAecLayerStandard
 70
     0
  0
APPID
  5
8FD
330
9
100
AcDbSymbolTableRecord
100
AcDbRegAppTableRecord
  2
ACAD_DSTYLE_DIM_LINETYPE
 70
     0
  0
APPID
  5
8FE
330
9
100
AcDbSymbolTableRecord
100
AcDbRegAppTableRecord
  2
ACAD_DSTYLE_DIM_EXT1_LINETYPE
 70
     0
  0
APPID
  5
8FF
330
9
100
AcDbSymbolTableRecord
100
AcDbRegAppTableRecord
  2
ACAD_DSTYLE_DIM_EXT2_LINETYPE
 70
     0
  0
ENDTAB
  0
TABLE
  2
DIMSTYLE
  5
A
330
0
100
AcDbSymbolTable
 70
     2
100
AcDbDimStyleTable
 71
     0
  0
DIMSTYLE
105
27
330
A
100
AcDbSymbolTableRecord
100
AcDbDimStyleTableRecord
  2
ISO-25
 70
     0
 41
2.5
 42
0.625
 43
3.75
 44
1.25
 73
     0
 74
     0
 77
     1
 78
     8
140
2.5
141
2.5
143
0.03937007874016
147
0.625
171
     3
172
     1
271
     2
272
     2
274
     3
278
    44
283
     0
284
     8
340
11
  0
DIMSTYLE
105
2B
330
A
100
AcDbSymbolTableRecord
100
AcDbDimStyleTableRecord
  2
Standard
 70
     0
340
11
  0
ENDTAB
  0
TABLE
  2
BLOCK_RECORD
  5
1
330
0
100
AcDbSymbolTable
 70
     2
  0
BLOCK_RECORD
  5
1F
330
1
100
AcDbSymbolTableRecord
100
AcDbBlockTableRecord
  2
*Model_Space
340
22
  0
BLOCK_RECORD
  5
1B
330
1
100
AcDbSymbolTableRecord
100
AcDbBlockTableRecord
  2
*Paper_Space
340
1E
  0
BLOCK_RECORD
  5
23
330
1
100
AcDbSymbolTableRecord
100
AcDbBlockTableRecord
  2
*Paper_Space0
340
26
  0
ENDTAB
  0
ENDSEC
  0
SECTION
  2
BLOCKS
  0
BLOCK
  5
20
330
1F
100
AcDbEntity
  8
0
100
AcDbBlockBegin
  2
*Model_Space
 70
     0
 10
0.0
 20
0.0
 30
0.0
  3
*Model_Space
  1

  0
ENDBLK
  5
21
330
1F
100
AcDbEntity
  8
0
100
AcDbBlockEnd
  0
BLOCK
  5
1C
330
1B
100
AcDbEntity
 67
     1
  8
0
100
AcDbBlockBegin
  2
*Paper_Space
 70
     0
 10
0.0
 20
0.0
 30
0.0
  3
*Paper_Space
  1

  0
ENDBLK
  5
1D
330
1B
100
AcDbEntity
 67
     1
  8
0
100
AcDbBlockEnd
  0
BLOCK
  5
24
330
23
100
AcDbEntity
  8
0
100
AcDbBlockBegin
  2
*Paper_Space0
 70
     0
 10
0.0
 20
0.0
 30
0.0
  3
*Paper_Space0
  1

  0
ENDBLK
  5
25
330
23
100
AcDbEntity
  8
0
100
AcDbBlockEnd
  0
ENDSEC
  0
SECTION
  2
ENTITIES
  0
SPLINE
  5
96F
330
1F
100
AcDbEntity
  8
ceco.net 127
100
AcDbSpline
210
0.0
220
0.0
230
1.0
 70
     8
 71
     3
 72
    15
 73
    11
 74
     9
 42
0.0000000001
 43
0.0000000001
 44
0.0000000001
 40
0.0
 40
0.0
 40
0.0
 40
0.0
 40
7.933546802996708
 40
18.21672198492592
 40
21.6959462165057
 40
26.84342136770273
 40
42.98479984780877
 40
65.72941347886019
 40
78.89732572118515
 40
83.16470942553513
 40
83.16470942553513
 40
83.16470942553513
 40
83.16470942553513
 10
480.2122022676922
 20
57.85921964891804
 30
0.0
 10
481.3931624419293
 20
55.43587594657354
 30
0.0
 10
484.104840295928
 20
49.87148216460759
 30
0.0
 10
484.2776146393251
 20
42.92235125812961
 30
0.0
 10
485.0175148231557
 20
35.86773211330003
 30
0.0
 10
475.4286177333626
 20
33.24819063120791
 30
0.0
 10
462.2306766111092
 20
30.95929221035358
 30
0.0
 10
444.5390993032934
 20
29.31751768934386
 30
0.0
 10
431.6889429232035
 20
23.30981753742997
 30
0.0
 10
425.9693858282696
 20
24.73268672607078
 30
0.0
 10
424.5694930580139
 20
25.08094171454922
 30
0.0
 11
480.2122022676922
 21
57.85921964891804
 31
0.0
 11
483.2682787047124
 21
50.53791090755021
 31
0.0
 11
484.5712488729514
 21
40.33761872727791
 31
0.0
 11
484.3540899028084
 21
36.86517819714663
 31
0.0
 11
479.7936861401685
 21
34.47787470703679
 31
0.0
 11
463.9408524558348
 21
31.43949299716496
 31
0.0
 11
441.5731515828156
 21
27.31597424724441
 31
0.0
 11
428.7605761752493
 21
24.27758252677813
 31
0.0
 11
424.5694930580139
 21
25.08094171454922
 31
0.0
  0
SPLINE
  5
970
330
1F
100
AcDbEntity
  8
ceco.net 127
100
AcDbSpline
210
0.0
220
0.0
230
1.0
 70
     8
 71
     3
 72
    12
 73
     8
 74
     0
 42
0.0000000001
 43
0.0000000001
 40
0.0004796048101689
 40
0.0004796048101689
 40
0.0004796048101689
 40
0.0004796048101689
 40
0.0068174816339898
 40
0.0227859545864335
 40
0.0557083517348859
 40
0.0968213714834745
 40
0.1155680061959147
 40
0.1155680061959147
 40
0.1155680061959147
 40
0.1155680061959147
 10
534.7970973003048
 20
9.86696304980223
 30
0.0
 10
533.1539131062299
 20
8.52918067119906
 30
0.0
 10
527.3432058130071
 20
3.862851596325747
 30
0.0
 10
509.5535991016967
 20
-2.483586246319646
 30
0.0
 10
479.8615572275593
 20
-4.096049061288795
 30
0.0
 10
448.2136815039448
 20
-11.17553581844003
 30
0.0
 10
429.4309793381962
 20
-3.679301694028254
 30
0.0
 10
423.5486791548046
 20
-1.331657623666615
 30
0.0
  0
SPLINE
  5
971
330
1F
100
AcDbEntity
  8
ceco.net 127
100
AcDbSpline
210
0.0
220
0.0
230
1.0
 70
     8
 71
     3
 72
    24
 73
    20
 74
     0
 42
0.0000000001
 43
0.0000000001
 40
0.0
 40
0.0
 40
0.0
 40
0.0
 40
7.037203296957232
 40
11.93860590067246
 40
16.49203311441031
 40
20.1041139616138
 40
25.30249950666146
 40
31.383011752962
 40
36.26135727199211
 40
43.86467907076489
 40
55.7731665069441
 40
72.62364595295562
 40
93.32064992553521
 40
105.147945020903
 40
108.8612468664621
 40
113.0750440933315
 40
121.9284347609638
 40
129.6996466505918
 40
142.1338795401954
 40
142.1338795401954
 40
142.1338795401954
 40
142.1338795401954
 10
388.932878878335
 20
816.3422715104779
 30
0.0
 10
391.201511674466
 20
810.5474096241914
 30
0.0
 10
395.0502441527969
 20
800.7164342509012
 30
0.0
 10
407.5138276984944
 20
792.1574577554229
 30
0.0
 10
420.0320201271097
 20
792.7658459969107
 30
0.0
 10
426.6677693045712
 20
781.483521044066
 30
0.0
 10
441.0312479051281
 20
781.7469875213309
 30
0.0
 10
454.3000602807296
 20
781.0885955629337
 30
0.0
 10
471.3193545833274
 20
787.3100485089135
 30
0.0
 10
471.4300178811754
 20
811.9227476152836
 30
0.0
 10
466.8594533903833
 20
841.8581560601841
 30
0.0
 10
442.2570385131621
 20
879.4617892515079
 30
0.0
 10
408.1247006972699
 20
905.2579280674699
 30
0.0
 10
387.5790260399298
 20
928.9962053571789
 30
0.0
 10
376.8585666704202
 20
942.4977163442626
 30
0.0
 10
364.0320633602405
 20
949.8815870007739
 30
0.0
 10
345.7373929121549
 20
953.2889241829279
 30
0.0
 10
320.550031440689
 20
947.5475475443463
 30
0.0
 10
306.6313548702055
 20
936.7644289579429
 30
0.0
 10
298.3385505596052
 20
929.6136103371418
 30
0.0
  0
SPLINE
  5
972
330
1F
100
AcDbEntity
  8
ceco.net 127
100
AcDbSpline
210
0.0
220
0.0
230
1.0
 70
     8
 71
     3
 72
    20
 73
    16
 74
     0
 42
0.0000000001
 43
0.0000000001
 40
83.17350492099015
 40
83.17350492099015
 40
83.17350492099015
 40
83.17350492099015
 40
95.70752988608754
 40
111.0228108907679
 40
119.7105523395366
 40
134.9619874253904
 40
150.9505891028467
 40
196.5370723618748
 40
237.0597193104446
 40
250.8779767047318
 40
268.0136076363005
 40
274.6625426754291
 40
283.1056388954848
 40
292.6956952894245
 40
300.2096799176105
 40
300.2096799176105
 40
300.2096799176105
 40
300.2096799176105
 10
229.6419308963777
 20
532.3751797868963
 30
0.0
 10
240.0635826162433
 20
529.3733908528538
 30
0.0
 10
263.1121407481478
 20
522.4491917088726
 30
0.0
 10
292.8124375733878
 20
512.1074667351731
 30
0.0
 10
321.6725694660453
 20
490.6613374697172
 30
0.0
 10
322.2414213528281
 20
452.8279649930764
 30
0.0
 10
339.0329123815245
 20
389.6326882604908
 30
0.0
 10
359.4977766661031
 20
302.9374437672204
 30
0.0
 10
390.1711262102471
 20
221.7210248425517
 30
0.0
 10
419.8881496490685
 20
167.4073445422973
 30
0.0
 10
440.9593727554002
 20
141.8771944824329
 30
0.0
 10
449.9081814645924
 20
115.2085069274025
 30
0.0
 10
462.3792414455456
 20
97.57008396242326
 30
0.0
 10
470.7055450000989
 20
77.22727834956822
 30
0.0
 10
476.6323802691658
 20
63.18382428675341
 30
0.0
 10
480.2122022676922
 20
57.85921964891804
 30
0.0
  0
SPLINE
  5
973
330
1F
100
AcDbEntity
  8
ceco.net 127
100
AcDbSpline
210
0.0
220
0.0
230
1.0
 70
     8
 71
     3
 72
    14
 73
    10
 74
     8
 42
0.0000000001
 43
0.0000000001
 44
0.0000000001
 40
0.0
 40
0.0
 40
0.0
 40
0.0
 40
9.121223378483541
 40
23.84174104368419
 40
36.52370060976832
 40
46.58191222780929
 40
58.83575686556754
 40
66.53536015772171
 40
75.16285556140875
 40
75.16285556140875
 40
75.16285556140875
 40
75.16285556140875
 10
480.6623383681181
 20
58.1338701875893
 30
0.0
 10
483.0403121180045
 20
56.23912168883133
 30
0.0
 10
489.2560391099794
 20
51.28648527419638
 30
0.0
 10
499.1174091448904
 20
44.13411799865222
 30
0.0
 10
508.6994416705236
 20
36.12614616577559
 30
0.0
 10
518.5131254591855
 20
29.70813843282974
 30
0.0
 10
527.7030018513869
 20
25.81583097847968
 30
0.0
 10
534.774626587369
 20
18.51015702624975
 30
0.0
 10
534.7893285515206
 20
12.85515496378672
 30
0.0
 10
534.7970973003048
 20
9.866963049802166
 30
0.0
 11
480.6623383681181
 21
58.1338701875893
 31
0.0
 11
487.8286824673523
 21
52.49115557744244
 31
0.0
 11
499.555446676708
 21
43.59302984728674
 31
0.0
 11
509.5449064300501
 21
35.78004115715339
 31
0.0
 11
518.0142370448939
 21
30.35435595712897
 31
0.0
 11
528.6551737086702
 21
24.27758252677813
 31
0.0
 11
533.6499117590829
 21
18.41784851708871
 31
0.0
 11
534.7970973003048
 21
9.866963049802166
 31
0.0
  0
SPLINE
  5
974
330
1F
100
AcDbEntity
  8
ceco.net 127
100
AcDbSpline
210
0.0
220
0.0
230
1.0
 70
     8
 71
     3
 72
    15
 73
    11
 74
     0
 42
0.0000000001
 43
0.0000000001
 40
63.27211468179884
 40
63.27211468179884
 40
63.27211468179884
 40
63.27211468179884
 40
64.68000579847518
 40
71.83199120023657
 40
75.97603088144653
 40
79.095924990701
 40
83.34177631837517
 40
88.06122014693956
 40
92.17895727680483
 40
97.49204601920986
 40
97.49204601920986
 40
97.49204601920986
 40
97.49204601920986
 10
-19.41787588134684
 20
669.3147056079733
 30
0.0
 10
-22.77837921064929
 20
666.0248767374951
 30
0.0
 10
-43.71248171651314
 20
646.5387363627005
 30
0.0
 10
-78.21415335047277
 20
622.0150451955105
 30
0.0
 10
-109.0315956053018
 20
583.4774057775575
 30
0.0
 10
-118.3854403834629
 20
545.6664295267901
 30
0.0
 10
-121.1256259923648
 20
505.4142034332754
 30
0.0
 10
-100.4279903341976
 20
460.9307718275913
 30
0.0
 10
-51.62758553001549
 20
449.5435055367806
 30
0.0
 10
-20.73049160321898
 20
446.5904915914507
 30
0.0
 10
-3.323850431002938
 20
444.9268382315095
 30
0.0
  0
SPLINE
  5
975
330
1F
100
AcDbEntity
  8
ceco.net 127
100
AcDbSpline
210
0.0
220
0.0
230
1.0
 70
     8
 71
     3
 72
    12
 73
     8
 74
     0
 42
0.0000000001
 43
0.0000000001
 40
0.0
 40
0.0
 40
0.0
 40
0.0
 40
1.25905973075807
 40
3.720998869495035
 40
6.248529373007643
 40
7.746782882926352
 40
9.593308051030138
 40
9.593308051030138
 40
9.593308051030138
 40
9.593308051030138
 10
-19.41787724626919
 20
669.3146736860171
 30
0.0
 10
-19.22767907376692
 20
673.7628774433369
 30
0.0
 10
-18.66557136145274
 20
686.909006056595
 30
0.0
 10
9.239631326294329
 20
694.5144207647472
 30
0.0
 10
-4.913502269915625
 20
724.6356486414525
 30
0.0
 10
17.04438640365333
 20
731.2507673948121
 30
0.0
 10
28.00275644540306
 20
745.0117155999442
 30
0.0
 10
49.6693251175202
 20
771.5911004927284
 30
0.0
  0
SPLINE
  5
976
330
1F
100
AcDbEntity
  8
ceco.net 127
100
AcDbSpline
210
0.0
220
0.0
230
1.0
 70
     8
 71
     3
 72
     9
 73
     5
 74
     3
 42
0.0000000001
 43
0.0000000001
 44
0.0000000001
 40
0.0
 40
0.0
 40
0.0
 40
0.0
 40
28.70325475984833
 40
69.87758584211704
 40
69.87758584211704
 40
69.87758584211704
 40
69.87758584211704
 10
23.64909084508326
 20
618.1978842664075
 30
0.0
 10
17.20152401175758
 20
611.0138421287651
 30
0.0
 10
1.505032145659458
 20
593.5244136522173
 30
0.0
 10
-19.88041120140712
 20
583.5155608612324
 30
0.0
 10
-32.48146651981369
 20
577.6179927984085
 30
0.0
 11
23.64909084508326
 21
618.1978842664075
 31
0.0
 11
3.346506381034487
 21
597.9079385324012
 31
0.0
 11
-32.48146651981369
 21
577.6179927984085
 31
0.0
  0
SPLINE
  5
977
330
1F
100
AcDbEntity
  8
ceco.net 127
100
AcDbSpline
210
0.0
220
0.0
230
1.0
 70
     8
 71
     3
 72
    10
 73
     6
 74
     4
 42
0.0000000001
 43
0.0000000001
 44
0.0000000001
 40
0.0
 40
0.0
 40
0.0
 40
0.0
 40
20.29975644343097
 40
72.08352312662682
 40
119.8395198833752
 40
119.8395198833752
 40
119.8395198833752
 40
119.8395198833752
 10
194.4292800907296
 20
545.392773216804
 30
0.0
 10
188.1039627359266
 20
542.6328478309365
 30
0.0
 10
165.6430449855687
 20
532.832476780459
 30
0.0
 10
150.5630329125478
 20
489.9491178937429
 30
0.0
 10
151.9598062495727
 20
457.245923770661
 30
0.0
 10
152.6299334494742
 20
441.5559765726302
 30
0.0
 11
194.4292800907296
 21
545.392773216804
 31
0.0
 11
176.5152666861231
 21
535.8445673433325
 31
0.0
 11
153.824165070886
 21
489.2970389515194
 31
0.0
 11
152.6299334494742
 21
441.5559765726302
 31
0.0
  0
LINE
  5
978
330
1F
100
AcDbEntity
  8
ceco.net 127
100
AcDbLine
 10
31.25927366863834
 20
0.0
 30
0.0
 11
13.48288635983772
 21
0.0
 31
0.0
  0
LINE
  5
979
330
1F
100
AcDbEntity
  8
ceco.net 127
100
AcDbLine
 10
48.15697106903281
 20
382.7770245796673
 30
0.0
 11
31.25927366863834
 21
0.0
 31
0.0
  0
SPLINE
  5
97A
330
1F
100
AcDbEntity
  8
ceco.net 127
100
AcDbSpline
210
0.0
220
0.0
230
1.0
 70
     8
 71
     3
 72
    18
 73
    14
 74
    12
 42
0.0000000001
 43
0.0000000001
 44
0.0000000001
 40
0.0
 40
0.0
 40
0.0
 40
0.0
 40
19.51984804506608
 40
50.31179859484318
 40
96.58222671630591
 40
129.1307670957628
 40
177.3589230248536
 40
192.6066376100876
 40
199.3481351484529
 40
203.3515193289959
 40
211.1700121215958
 40
215.8732250472702
 40
222.3507393917746
 40
222.3507393917746
 40
222.3507393917746
 40
222.3507393917746
 10
234.7352037820637
 20
531.7941774642486
 30
0.0
 10
228.6563364091747
 20
534.1258282790808
 30
0.0
 10
212.9882456410775
 20
540.1355854205554
 30
0.0
 10
181.8182105282495
 20
548.3183266610224
 30
0.0
 10
146.0914386071969
 20
556.4179125029638
 30
0.0
 10
106.6806223885599
 20
571.839792188325
 30
0.0
 10
73.3470024760586
 20
574.3344211384188
 30
0.0
 10
53.33827570713427
 20
585.3635054581149
 30
0.0
 10
41.77187920270635
 20
580.2791270384428
 30
0.0
 10
41.99398107084817
 20
589.629540225826
 30
0.0
 10
32.32662490570057
 20
582.8806088863098
 30
0.0
 10
32.19071712374928
 20
592.9990377710787
 30
0.0
 10
27.7908564890394
 20
590.2298360621719
 30
0.0
 10
25.24181297098766
 20
588.6255089590404
 30
0.0
 11
234.7352037820637
 21
531.7941774642486
 31
0.0
 11
216.4129424621696
 21
538.526131699683
 31
0.0
 11
186.7740791171854
 21
546.8737060945159
 31
0.0
 11
142.0463232250294
 21
558.7219283829081
 31
0.0
 11
111.0601824601635
 21
568.6851889603022
 31
0.0
 11
64.17684738619209
 21
579.9948271800867
 31
0.0
 11
49.2223483491889
 21
582.970689849134
 31
0.0
 11
42.48623079160824
 21
582.7014143206524
 31
0.0
 11
41.13900728009321
 21
586.4713047311343
 31
0.0
 11
33.32515403997058
 21
586.20199619105
 31
0.0
 11
31.43900877887427
 21
590.5104376584804
 31
0.0
 11
25.24181297098766
 21
588.6255089590404
 31
0.0
  0
SPLINE
  5
97B
330
1F
100
AcDbEntity
  8
ceco.net 127
100
AcDbSpline
210
0.0
220
0.0
230
1.0
 70
     8
 71
     3
 72
    10
 73
     6
 74
     0
 42
0.0000000001
 43
0.0000000001
 40
14.94880072956402
 40
14.94880072956402
 40
14.94880072956402
 40
14.94880072956402
 40
36.80101189826658
 40
72.18176075674766
 40
87.68382204131251
 40
87.68382204131251
 40
87.68382204131251
 40
87.68382204131251
 10
180.8822707830586
 20
418.9498098144067
 30
0.0
 10
161.9743569924576
 20
419.4718606234882
 30
0.0
 10
112.4603007885962
 20
421.0380252180812
 30
0.0
 10
49.59651249873786
 20
424.6579228873488
 30
0.0
 10
5.569107478435398
 20
425.8621286409861
 30
0.0
 10
-7.844471449061529
 20
426.2263715624786
 30
0.0
  0
SPLINE
  5
97C
330
1F
100
AcDbEntity
  8
ceco.net 127
100
AcDbSpline
210
0.0
220
0.0
230
1.0
 70
     8
 71
     3
 72
    10
 73
     6
 74
     0
 42
0.0000000001
 43
0.0000000001
 40
0.0
 40
0.0
 40
0.0
 40
0.0
 40
1.717725391876597
 40
6.6726309566325
 40
9.198039813079315
 40
9.198039813079315
 40
9.198039813079315
 40
9.198039813079315
 10
196.3228371448603
 20
416.5372464111388
 30
0.0
 10
190.668959071103
 20
417.4377468832944
 30
0.0
 10
168.7060527541452
 20
420.935807373823
 30
0.0
 10
138.1951613788023
 20
424.5061530417333
 30
0.0
 10
113.9266518393924
 20
430.2627474205701
 30
0.0
 10
105.744458760455
 20
432.2640262909372
 30
0.0
  0
SPLINE
  5
97D
330
1F
100
AcDbEntity
  8
ceco.net 127
100
AcDbSpline
210
0.0
220
0.0
230
1.0
 70
     8
 71
     3
 72
    12
 73
     8
 74
     0
 42
0.0000000001
 43
0.0000000001
 40
0.0
 40
0.0
 40
0.0
 40
0.0
 40
1.533993299624372
 40
4.744248147491756
 40
12.27547855147971
 40
13.89178670004233
 40
15.33447366900653
 40
15.33447366900653
 40
15.33447366900653
 40
15.33447366900653
 10
234.7352037820637
 20
531.7941774642486
 30
0.0
 10
225.8435070427804
 20
533.1405551066973
 30
0.0
 10
206.635336911062
 20
531.2325551213062
 30
0.0
 10
184.4831961948329
 20
489.6144071976914
 30
0.0
 10
173.9449084919888
 20
453.1445796758216
 30
0.0
 10
195.5087883439991
 20
411.5667071987582
 30
0.0
 10
203.242526531425
 20
419.8281942482253
 30
0.0
 10
206.9603176139462
 20
424.6726768146227
 30
0.0
  0
SPLINE
  5
97E
330
1F
100
AcDbEntity
  8
ceco.net 127
100
AcDbSpline
210
0.0
220
0.0
230
1.0
 70
     8
 71
     3
 72
    12
 73
     8
 74
     0
 42
0.0000000001
 43
0.0000000001
 40
0.0
 40
0.0
 40
0.0
 40
0.0
 40
4.695033503116217
 40
9.195220574779931
 40
12.1689128785018
 40
15.86790379461691
 40
17.87621967344353
 40
17.87621967344353
 40
17.87621967344353
 40
17.87621967344353
 10
140.6231967603162
 20
596.4991689874214
 30
0.0
 10
127.4784142752869
 20
604.9668821712121
 30
0.0
 10
101.7343648926489
 20
621.5508938586963
 30
0.0
 10
69.26353095695958
 20
646.3331132050316
 30
0.0
 10
34.18151125867916
 20
659.8457519956755
 30
0.0
 10
6.581272592029563
 20
667.2860259489534
 30
0.0
 10
-12.89029827091872
 20
670.3562360558808
 30
0.0
 10
-19.41787724626919
 20
669.3146736860171
 30
0.0
  0
SPLINE
  5
97F
330
1F
100
AcDbEntity
  8
ceco.net 127
100
AcDbSpline
210
0.0
220
0.0
230
1.0
 70
     8
 71
     3
 72
     9
 73
     5
 74
     3
 42
0.0000000001
 43
0.0000000001
 44
0.0000000001
 40
0.0
 40
0.0
 40
0.0
 40
0.0
 40
11.18445627243152
 40
24.35702665722004
 40
24.35702665722004
 40
24.35702665722004
 40
24.35702665722004
 10
-14.13230493449373
 20
664.0345741201517
 30
0.0
 10
-17.51500223104178
 20
662.2628824478781
 30
0.0
 10
-24.88169455996756
 20
658.4045687097027
 30
0.0
 10
-28.66185493431429
 20
650.9502448825877
 30
0.0
 10
-30.7062107293641
 20
646.9188576913039
 30
0.0
 11
-14.13230493449373
 21
664.0345741201517
 31
0.0
 11
-23.52416332155553
 21
657.961267101129
 31
0.0
 11
-30.7062107293641
 21
646.9188576913039
 31
0.0
  0
SPLINE
  5
980
330
1F
100
AcDbEntity
  8
ceco.net 127
100
AcDbSpline
210
0.0
220
0.0
230
1.0
 70
     8
 71
     3
 72
     9
 73
     5
 74
     3
 42
0.0000000001
 43
0.0000000001
 44
0.0000000001
 40
0.0
 40
0.0
 40
0.0
 40
0.0
 40
11.11669799822428
 40
21.7384016749169
 40
21.7384016749169
 40
21.7384016749169
 40
21.7384016749169
 10
-6.950311435048206
 20
662.3782176604463
 30
0.0
 10
-10.66911146095655
 20
661.1356054413374
 30
0.0
 10
-17.9411241327769
 20
658.7057109214486
 30
0.0
 10
-20.57826107984046
 20
651.5294985415037
 30
0.0
 10
-21.8668050871438
 20
648.0230953311547
 30
0.0
 11
-6.950311435048206
 21
662.3782176604463
 31
0.0
 11
-16.89462256695333
 21
657.4091482812173
 31
0.0
 11
-21.8668050871438
 21
648.0230953311547
 31
0.0
  0
SPLINE
  5
981
330
1F
100
AcDbEntity
  8
ceco.net 127
100
AcDbSpline
210
0.0
220
0.0
230
1.0
 70
     8
 71
     3
 72
    10
 73
     6
 74
     4
 42
0.0000000001
 43
0.0000000001
 44
0.0000000001
 40
0.0
 40
0.0
 40
0.0
 40
0.0
 40
15.35653916485161
 40
22.76494031721624
 40
25.23438948696986
 40
25.23438948696986
 40
25.23438948696986
 40
25.23438948696986
 10
44.33480193449577
 20
651.3711306504456
 30
0.0
 10
39.65081556380761
 20
648.7629969118058
 30
0.0
 10
32.70715013042473
 20
644.8966303911938
 30
0.0
 10
29.63308238719431
 20
636.806713256007
 30
0.0
 10
28.13533176238864
 20
633.8822543310008
 30
0.0
 10
27.7608961396254
 20
633.1511435701741
 30
0.0
 11
44.33480193449577
 21
651.3711306504456
 31
0.0
 11
32.18057200660769
 21
641.9850777003684
 31
0.0
 11
28.8658016293084
 21
635.3596188498332
 31
0.0
 11
27.7608961396254
 21
633.1511435701741
 31
0.0
  0
SPLINE
  5
982
330
1F
100
AcDbEntity
  8
ceco.net 127
100
AcDbSpline
210
0.0
220
0.0
230
1.0
 70
     8
 71
     3
 72
     9
 73
     5
 74
     3
 42
0.0000000001
 43
0.0000000001
 44
0.0000000001
 40
0.0
 40
0.0
 40
0.0
 40
0.0
 40
11.61356250721377
 40
26.95658820833708
 40
26.95658820833708
 40
26.95658820833708
 40
26.95658820833708
 10
53.72666032167035
 20
649.7147411791247
 30
0.0
 10
49.89438056666322
 20
648.4217776562262
 30
0.0
 10
40.99916110315181
 20
645.4206412492427
 30
0.0
 10
37.49170178909078
 20
636.5460090534934
 30
0.0
 10
35.49534238391061
 20
631.494787110455
 30
0.0
 11
53.72666032167035
 21
649.7147411791247
 31
0.0
 11
43.22984253656068
 21
644.7456717999385
 31
0.0
 11
35.49534238391061
 21
631.494787110455
 31
0.0
  0
SPLINE
  5
983
330
1F
100
AcDbEntity
  8
ceco.net 127
100
AcDbSpline
210
0.0
220
0.0
230
1.0
 70
     8
 71
     3
 72
    12
 73
     8
 74
     6
 42
0.0000000001
 43
0.0000000001
 44
0.0000000001
 40
0.0
 40
0.0
 40
0.0
 40
0.0
 40
16.05386676837579
 40
36.10238475971348
 40
53.46284211759398
 40
62.91872599553091
 40
77.54889836283836
 40
77.54889836283836
 40
77.54889836283836
 40
77.54889836283836
 10
229.9233446873349
 20
857.6848115449712
 30
0.0
 10
225.8374713994075
 20
861.1443644578301
 30
0.0
 10
216.6490452309054
 20
868.9243038430664
 30
0.0
 10
204.3348825866366
 20
881.8621171540279
 30
0.0
 10
187.0533830550551
 20
885.8789318711936
 30
0.0
 10
182.773000589329
 20
899.8746864878693
 30
0.0
 10
178.9002092901357
 20
906.8128728977489
 30
0.0
 10
176.5478273280205
 20
911.0272142602161
 30
0.0
 11
229.9233446873349
 21
857.6848115449712
 31
0.0
 11
217.8383330774522
 21
868.2526463565945
 31
0.0
 11
202.2284702602519
 21
880.8333957967979
 31
0.0
 11
187.1222192251007
 21
889.3883159798143
 31
0.0
 11
183.0938640524655
 21
897.9432031512578
 31
0.0
 11
176.5478273280205
 21
911.0272142602161
 31
0.0
  0
SPLINE
  5
984
330
1F
100
AcDbEntity
  8
ceco.net 127
100
AcDbSpline
210
0.0
220
0.0
230
1.0
 70
     8
 71
     3
 72
     8
 73
     4
 74
     0
 42
0.0000000001
 43
0.0000000001
 40
3.545012357914826
 40
3.545012357914826
 40
3.545012357914826
 40
3.545012357914826
 40
3.841250796047001
 40
3.841250796047001
 40
3.841250796047001
 40
3.841250796047001
 10
263.9246137705413
 20
1095.48958034513
 30
0.0
 10
262.9480866464728
 20
1095.359834606058
 30
0.0
 10
261.9752569679567
 20
1095.231194309419
 30
0.0
 10
261.002427289326
 20
1095.102554012769
 30
0.0
  0
SPLINE
  5
985
330
1F
100
AcDbEntity
  8
ceco.net 127
100
AcDbSpline
210
0.0
220
0.0
230
1.0
 70
     8
 71
     3
 72
     9
 73
     5
 74
     3
 42
0.0000000001
 43
0.0000000001
 44
0.0000000001
 40
0.0
 40
0.0
 40
0.0
 40
0.0
 40
7.654958166152458
 40
18.37771362904793
 40
18.37771362904793
 40
18.37771362904793
 40
18.37771362904793
 10
97.77754546837423
 20
23.442549858657
 30
0.0
 10
95.19039564740204
 20
22.49533706388051
 30
0.0
 10
88.97927110651286
 20
20.22130693721793
 30
0.0
 10
84.32718335947152
 20
25.24158846264343
 30
0.0
 10
81.61285227834014
 20
28.17074778238293
 30
0.0
 11
97.77754546837423
 21
23.442549858657
 31
0.0
 11
90.28659088505628
 21
21.86648388408229
 31
0.0
 11
81.61285227834014
 21
28.17074778238293
 31
0.0
  0
SPLINE
  5
986
330
1F
100
AcDbEntity
  8
ceco.net 127
100
AcDbSpline
210
0.0
220
0.0
230
1.0
 70
     8
 71
     3
 72
    11
 73
     7
 74
     5
 42
0.0000000001
 43
0.0000000001
 44
0.0000000001
 40
0.0
 40
0.0
 40
0.0
 40
0.0
 40
6.002059283956326
 40
27.33050157513089
 40
45.25618958529724
 40
58.58009155373451
 40
58.58009155373451
 40
58.58009155373451
 40
58.58009155373451
 10
227.4893577784932
 20
-2.562528711322556
 30
0.0
 10
228.4047426435568
 20
-0.7458331781006376
 30
0.0
 10
232.5729666335039
 20
7.526527653951449
 30
0.0
 10
226.4079922773166
 20
23.49561456847627
 30
0.0
 10
217.3110225683446
 20
38.14760647983754
 30
0.0
 10
209.3110665679399
 20
44.96930536003088
 30
0.0
 10
205.9001216699689
 20
47.87787623088479
 30
0.0
 11
227.4893577784932
 21
-2.562528711322556
 31
0.0
 11
229.8549258252933
 21
2.953702199733015
 31
0.0
 11
225.5180565219907
 21
23.83656635228726
 31
0.0
 11
215.6615338918745
 21
38.80918310019842
 31
0.0
 11
205.9001216699689
 21
47.87787623088479
 31
0.0
  0
SPLINE
  5
987
330
1F
100
AcDbEntity
  8
ceco.net 127
100
AcDbSpline
210
0.0
220
0.0
230
1.0
 70
     8
 71
     3
 72
    10
 73
     6
 74
     0
 42
0.0000000001
 43
0.0000000001
 40
1.788935458939554
 40
1.788935458939554
 40
1.788935458939554
 40
1.788935458939554
 40
5.689419770102452
 40
16.73687474099285
 40
33.65014556598076
 40
33.65014556598076
 40
33.65014556598076
 40
33.65014556598076
 10
122.175912533974
 20
100.7758415193084
 30
0.0
 10
119.6031505651262
 20
98.53411626583875
 30
0.0
 10
110.2372087974563
 20
89.59300705384976
 30
0.0
 10
103.1003227421933
 20
61.44059908052622
 30
0.0
 10
99.78373124079007
 20
37.7642360400896
 30
0.0
 10
97.77754546837423
 20
23.442549858657
 30
0.0
  0
SPLINE
  5
988
330
1F
100
AcDbEntity
  8
ceco.net 127
100
AcDbSpline
210
0.0
220
0.0
230
1.0
 70
     8
 71
     3
 72
    13
 73
     9
 74
     7
 42
0.0000000001
 43
0.0000000001
 44
0.0000000001
 40
0.0
 40
0.0
 40
0.0
 40
0.0
 40
22.40842212501262
 40
60.60485955644004
 40
91.12847773832028
 40
125.6918793609401
 40
167.2072076437552
 40
195.3513566742466
 40
195.3513566742466
 40
195.3513566742466
 40
195.3513566742466
 10
99.35459628206809
 20
122.7346461935349
 30
0.0
 10
105.6162766356426
 20
118.4072752865064
 30
0.0
 10
122.5513493640393
 20
106.7036531123978
 30
0.0
 10
132.2045179822312
 20
75.87995857525337
 30
0.0
 10
132.8228990506318
 20
39.99104867131846
 30
0.0
 10
163.3290504336588
 20
15.97074716861701
 30
0.0
 10
195.1996843449896
 20
2.914975539700958
 30
0.0
 10
218.1976227454388
 20
-0.9863121463655877
 30
0.0
 10
227.4893577784932
 20
-2.562528711322556
 30
0.0
 11
99.35459628206809
 21
122.7346461935349
 31
0.0
 11
116.7020734955021
 21
108.5500624329115
 31
0.0
 11
130.8954654289191
 21
73.08859802607457
 31
0.0
 11
136.809369198545
 21
43.14336453029409
 31
0.0
 11
161.6478009951824
 21
19.10836842856133
 31
0.0
 11
199.8910911447637
 21
2.953702199733015
 31
0.0
 11
227.4893577784932
 21
-2.562528711322556
 31
0.0
  0
SPLINE
  5
989
330
1F
100
AcDbEntity
  8
ceco.net 127
100
AcDbSpline
210
0.0
220
0.0
230
1.0
 70
     8
 71
     3
 72
     9
 73
     5
 74
     0
 42
0.0000000001
 43
0.0000000001
 40
0.0
 40
0.0
 40
0.0
 40
0.0
 40
6.008597290134927
 40
7.760538801406096
 40
7.760538801406096
 40
7.760538801406096
 40
7.760538801406096
 10
204.42610738246
 20
67.80711525469451
 30
0.0
 10
203.983643861533
 20
62.51468357666545
 30
0.0
 10
203.412170161755
 20
55.67912455885016
 30
0.0
 10
205.3821547300449
 20
49.30383350219381
 30
0.0
 10
205.9001216699689
 20
47.87787623088479
 30
0.0
  0
SPLINE
  5
98A
330
1F
100
AcDbEntity
  8
ceco.net 127
100
AcDbSpline
210
0.0
220
0.0
230
1.0
 70
     8
 71
     3
 72
    10
 73
     6
 74
     0
 42
0.0000000001
 43
0.0000000001
 40
0.0
 40
0.0
 40
0.0
 40
0.0
 40
7.105391618197324
 40
13.86792373923723
 40
15.93641623647602
 40
15.93641623647602
 40
15.93641623647602
 40
15.93641623647602
 10
176.1188700038474
 20
74.54275513737229
 30
0.0
 10
180.1375939348872
 20
70.1340326432528
 30
0.0
 10
187.9811245944438
 20
61.52932362492447
 30
0.0
 10
196.5052767505985
 20
47.97935487815175
 30
0.0
 10
204.0657743727933
 20
47.76495322661867
 30
0.0
 10
205.9001216700817
 20
47.87787623088479
 30
0.0
  0
SPLINE
  5
98B
330
1F
100
AcDbEntity
  8
ceco.net 127
100
AcDbSpline
210
0.0
220
0.0
230
1.0
 70
     8
 71
     3
 72
    11
 73
     7
 74
     5
 42
0.0000000001
 43
0.0000000001
 44
0.0000000001
 40
0.0
 40
0.0
 40
0.0
 40
0.0
 40
21.78819275335859
 40
48.40411403150503
 40
77.38534169851314
 40
166.848757235053
 40
166.848757235053
 40
166.848757235053
 40
166.848757235053
 10
106.0247801958648
 20
186.6237499289836
 30
0.0
 10
101.0017869974396
 20
181.4596655000135
 30
0.0
 10
89.84282864287054
 20
169.9872623320336
 30
0.0
 10
76.0549160087486
 20
145.9579480696385
 30
0.0
 10
90.73240935668087
 20
97.30797203309087
 30
0.0
 10
85.5370230360919
 20
57.92068753780337
 30
0.0
 10
81.61285227834014
 20
28.17074778238293
 30
0.0
 11
106.0247801958648
 21
186.6237499289836
 31
0.0
 11
91.46937490845449
 21
170.4106219033146
 31
0.0
 11
80.03581781213142
 21
146.3756258015964
 31
0.0
 11
83.58416988232784
 21
117.6124417867331
 31
0.0
 11
81.61285227834014
 21
28.17074778238293
 31
0.0
  0
LINE
  5
98C
330
1F
100
AcDbEntity
  8
ceco.net 127
100
AcDbLine
 10
13.48288635983772
 20
0.0
 30
0.0
 11
0.0
 21
0.0
 31
0.0
  0
LINE
  5
98D
330
1F
100
AcDbEntity
  8
ceco.net 127
100
AcDbLine
 10
0.0
 20
0.0
 30
0.0
 11
-1.558746105274622
 21
426.0550308059837
 31
0.0
  0
LINE
  5
98E
330
1F
100
AcDbEntity
  8
ceco.net 127
100
AcDbLine
 10
32.24497885571327
 20
425.0104478900166
 30
0.0
 11
13.48288635983772
 21
0.0
 31
0.0
  0
LINE
  5
98F
330
1F
100
AcDbEntity
  8
ceco.net 127
100
AcDbLine
 10
231.8874437612503
 20
406.0797796477263
 30
0.0
 11
31.66908298180715
 21
411.9649006843529
 31
0.0
  0
LINE
  5
990
330
1F
100
AcDbEntity
  8
ceco.net 127
100
AcDbLine
 10
-6.592826303745823
 20
445.2396220009123
 30
0.0
 11
-7.844471449061529
 21
426.2263715624786
 31
0.0
  0
SPLINE
  5
991
330
1F
100
AcDbEntity
  8
ceco.net 127
100
AcDbSpline
210
0.0
220
0.0
230
1.0
 70
     8
 71
     3
 72
     8
 73
     4
 74
     0
 42
0.0000000001
 43
0.0000000001
 40
0.0
 40
0.0
 40
0.0
 40
0.0
 40
7.08867482892842
 40
7.08867482892842
 40
7.08867482892842
 40
7.08867482892842
 10
219.6888977163089
 20
417.9494919296476
 30
0.0
 10
213.5546914696533
 20
418.1019912835063
 30
0.0
 10
207.4204852229959
 20
418.2544906373659
 30
0.0
 10
201.2864221916279
 20
418.4107788307328
 30
0.0
  0
SPLINE
  5
992
330
1F
100
AcDbEntity
  8
ceco.net 127
100
AcDbSpline
210
0.0
220
0.0
230
1.0
 70
     8
 71
     3
 72
     9
 73
     5
 74
     0
 42
0.0000000001
 43
0.0000000001
 40
6.76362695870244
 40
6.76362695870244
 40
6.76362695870244
 40
6.76362695870244
 40
8.83219093316838
 40
17.41914646160722
 40
17.41914646160722
 40
17.41914646160722
 40
17.41914646160722
 10
105.744458760455
 20
432.2640262909372
 30
0.0
 10
95.54185151477941
 20
432.5551649329927
 30
0.0
 10
60.155007857702
 20
435.307659503479
 30
0.0
 10
25.00359352995838
 20
440.6342792014047
 30
0.0
 10
-3.323850431002938
 20
444.9268382315095
 30
0.0
  0
LINE
  5
993
330
1F
100
AcDbEntity
  8
ceco.net 127
100
AcDbLine
 10
30.39972042586123
 20
383.2105200869764
 30
0.0
 11
236.2404003590636
 21
378.1854735993729
 31
0.0
  0
SPLINE
  5
994
330
1F
100
AcDbEntity
  8
ceco.net 127
100
AcDbSpline
210
0.0
220
0.0
230
1.0
 70
     8
 71
     3
 72
    12
 73
     8
 74
     0
 42
0.0000000001
 43
0.0000000001
 40
1.48149346707792
 40
1.48149346707792
 40
1.48149346707792
 40
1.48149346707792
 40
7.668691636185219
 40
19.80363518524094
 40
41.89811789596096
 40
60.52053862276365
 40
86.59794870580411
 40
86.59794870580411
 40
86.59794870580411
 40
86.59794870580411
 10
110.9775986112096
 20
182.3524345302073
 30
0.0
 10
115.371948430728
 20
185.4571506390122
 30
0.0
 10
128.1421973375744
 20
194.9140327532766
 30
0.0
 10
148.1043421358663
 20
224.6640645958559
 30
0.0
 10
162.0905596458887
 20
268.3236216165742
 30
0.0
 10
181.567754729258
 20
322.7606675254292
 30
0.0
 10
196.9994076910079
 20
358.253882491922
 30
0.0
 10
206.1019229886369
 20
378.9212234516553
 30
0.0
  0
SPLINE
  5
995
330
1F
100
AcDbEntity
  8
ceco.net 127
100
AcDbSpline
210
0.0
220
0.0
230
1.0
 70
     8
 71
     3
 72
    13
 73
     9
 74
     0
 42
0.0000000001
 43
0.0000000001
 40
0.0
 40
0.0
 40
0.0
 40
0.0
 40
19.41242246205257
 40
31.18242633390066
 40
45.25567470166019
 40
63.17606877994065
 40
77.06122387288909
 40
90.33759406677877
 40
90.33759406677877
 40
90.33759406677877
 40
90.33759406677877
 10
204.42610738246
 20
67.80711525469451
 30
0.0
 10
204.9329445691219
 20
84.6857014322777
 30
0.0
 10
205.7470837248729
 20
111.7979936323508
 30
0.0
 10
195.1773501074276
 20
150.1984602902975
 30
0.0
 10
203.2485211602761
 20
188.3225893079015
 30
0.0
 10
219.7014711038027
 20
224.5625440025805
 30
0.0
 10
241.6162372636554
 20
256.9475789977532
 30
0.0
 10
254.3090145313726
 20
276.7305391848958
 30
0.0
 10
260.4972954686672
 20
286.4087406515664
 30
0.0
  0
SPLINE
  5
996
330
1F
100
AcDbEntity
  8
ceco.net 127
100
AcDbSpline
210
0.0
220
0.0
230
1.0
 70
     8
 71
     3
 72
    11
 73
     7
 74
     5
 42
0.0000000001
 43
0.0000000001
 44
0.0000000001
 40
0.0
 40
0.0
 40
0.0
 40
0.0
 40
17.57055522366585
 40
65.88686738901424
 40
100.3102228989312
 40
134.2964770316662
 40
134.2964770316662
 40
134.2964770316662
 40
134.2964770316662
 10
106.0247801958648
 20
186.6237499289836
 30
0.0
 10
110.4479485259828
 20
182.819630409585
 30
0.0
 10
127.0341463720956
 20
168.554769958904
 30
0.0
 10
151.0131119810083
 20
143.1348450438633
 30
0.0
 10
158.6239099579198
 20
104.0591549414719
 30
0.0
 10
170.3121104704036
 20
84.33955578769966
 30
0.0
 10
176.1188700038474
 20
74.54275513737229
 30
0.0
 11
106.0247801958648
 21
186.6237499289836
 31
0.0
 11
119.2348264855791
 21
175.0384537354675
 31
0.0
 11
149.429208663605
 21
137.3188924158194
 31
0.0
 11
160.4825086984637
 21
104.7184021909542
 31
0.0
 11
176.1188700038474
 21
74.54275513737229
 31
0.0
  0
SPLINE
  5
997
330
1F
100
AcDbEntity
  8
ceco.net 127
100
AcDbSpline
210
0.0
220
0.0
230
1.0
 70
     8
 71
     3
 72
     8
 73
     4
 74
     0
 42
0.0000000001
 43
0.0000000001
 40
4.631811313023683
 40
4.631811313023683
 40
4.631811313023683
 40
4.631811313023683
 40
6.630267890890639
 40
6.630267890890639
 40
6.630267890890639
 40
6.630267890890639
 10
242.1741696159624
 20
712.8037868856726
 30
0.0
 10
248.5602217292344
 20
715.1526354302723
 30
0.0
 10
254.3189500603366
 20
718.5542654056144
 30
0.0
 10
259.3212262046327
 20
722.9021875744756
 30
0.0
  0
SPLINE
  5
998
330
1F
100
AcDbEntity
  8
ceco.net 127
100
AcDbSpline
210
0.0
220
0.0
230
1.0
 70
     8
 71
     3
 72
    11
 73
     7
 74
     5
 42
0.0000000001
 43
0.0000000001
 44
0.0000000001
 40
0.0
 40
0.0
 40
0.0
 40
0.0
 40
21.09609163407408
 40
40.83668783831639
 40
65.14080535708131
 40
92.87136163586248
 40
92.87136163586248
 40
92.87136163586248
 40
92.87136163586248
 10
141.8600807744478
 20
1002.951726328902
 30
0.0
 10
138.5296082355637
 20
996.5643487120113
 30
0.0
 10
132.0826573129189
 20
984.2000041513754
 30
0.0
 10
113.1297337472327
 20
973.0745400200854
 30
0.0
 10
96.41969674380218
 20
953.366775627939
 30
0.0
 10
98.8189810927138
 20
935.362558777828
 30
0.0
 10
100.0976186782045
 20
925.7676692132291
 30
0.0
 11
141.8600807744478
 21
1002.951726328902
 31
0.0
 11
130.4183172792363
 21
985.2279815114862
 31
0.0
 11
114.9719292042154
 21
972.9356979996728
 31
0.0
 11
100.3836656263956
 21
953.4967501333403
 31
0.0
 11
100.0976186782045
 21
925.7676692132291
 31
0.0
  0
SPLINE
  5
999
330
1F
100
AcDbEntity
  8
ceco.net 127
100
AcDbSpline
210
0.0
220
0.0
230
1.0
 70
     8
 71
     3
 72
    11
 73
     7
 74
     5
 42
0.0000000001
 43
0.0000000001
 44
0.0000000001
 40
0.0
 40
0.0
 40
0.0
 40
0.0
 40
26.80296612191055
 40
66.72525932398348
 40
96.68906861844405
 40
116.6390614752345
 40
116.6390614752345
 40
116.6390614752345
 40
116.6390614752345
 10
230.044343243775
 20
1127.419804840542
 30
0.0
 10
226.2402214223139
 20
1119.329355890087
 30
0.0
 10
216.7699630232066
 20
1099.188402019118
 30
0.0
 10
210.6680351375844
 20
1066.75112550518
 30
0.0
 10
214.4469593000216
 20
1036.927621702712
 30
0.0
 10
214.6889043253485
 20
1020.287587800215
 30
0.0
 10
214.7856070672551
 20
1013.63675089371
 30
0.0
 11
230.044343243775
 21
1127.419804840542
 31
0.0
 11
219.4805990413879
 21
1102.786366157345
 31
0.0
 11
212.4381029063879
 21
1063.490148238813
 31
0.0
 11
214.1987351138814
 21
1033.578109831764
 31
0.0
 11
214.7856070672551
 21
1013.63675089371
 31
0.0
  0
SPLINE
  5
99A
330
1F
100
AcDbEntity
  8
ceco.net 127
100
AcDbSpline
210
0.0
220
0.0
230
1.0
 70
     8
 71
     3
 72
    10
 73
     6
 74
     4
 42
0.0000000001
 43
0.0000000001
 44
0.0000000001
 40
0.0
 40
0.0
 40
0.0
 40
0.0
 40
37.86507084251207
 40
115.3430131838718
 40
161.7136333094093
 40
161.7136333094093
 40
161.7136333094093
 40
161.7136333094093
 10
234.7393352179096
 20
1165.543002822744
 30
0.0
 10
223.5578563545186
 20
1158.152685725011
 30
0.0
 10
189.49729776427
 20
1135.640607351192
 30
0.0
 10
204.0275797409538
 20
1072.042297572476
 30
0.0
 10
187.5159321875807
 20
1034.241502635225
 30
0.0
 10
181.3337422526037
 20
1020.088360543269
 30
0.0
 11
234.7393352179096
 21
1165.543002822744
 31
0.0
 11
205.9824787248762
 21
1140.909554128996
 31
0.0
 11
196.0056228232351
 21
1064.076658206943
 31
0.0
 11
181.3337422526037
 21
1020.088360543269
 31
0.0
  0
SPLINE
  5
99B
330
1F
100
AcDbEntity
  8
ceco.net 127
100
AcDbSpline
210
0.0
220
0.0
230
1.0
 70
     8
 71
     3
 72
     8
 73
     4
 74
     0
 42
0.0000000001
 43
0.0000000001
 40
11.96483684792303
 40
11.96483684792303
 40
11.96483684792303
 40
11.96483684792303
 40
21.60407755114552
 40
21.60407755114552
 40
21.60407755114552
 40
21.60407755114552
 10
346.0144760638286
 20
94.35802592281561
 30
0.0
 10
351.9721782280376
 20
62.79431367369125
 30
0.0
 10
358.9341365822056
 20
31.39715683683153
 30
0.0
 10
365.896094936259
 20
0.0
 30
0.0
  0
LINE
  5
99C
330
1F
100
AcDbEntity
  8
ceco.net 127
100
AcDbLine
 10
383.6724822449468
 20
0.0
 30
0.0
 11
365.896094936259
 21
0.0
 31
0.0
  0
SPLINE
  5
99D
330
1F
100
AcDbEntity
  8
ceco.net 127
100
AcDbSpline
210
0.0
220
0.0
230
1.0
 70
     8
 71
     3
 72
     8
 73
     4
 74
     0
 42
0.0000000001
 43
0.0000000001
 40
15.17564350353106
 40
15.17564350353106
 40
15.17564350353106
 40
15.17564350353106
 40
21.60407755114553
 40
21.60407755114553
 40
21.60407755114553
 40
21.60407755114553
 10
370.0415125772451
 20
62.86593248361805
 30
0.0
 10
374.3865869137152
 20
41.87768688895175
 30
0.0
 10
379.029534579331
 20
20.9388434444545
 30
0.0
 10
383.6724822449468
 20
0.0
 30
0.0
  0
SPLINE
  5
99E
330
1F
100
AcDbEntity
  8
ceco.net 127
100
AcDbSpline
210
0.0
220
0.0
230
1.0
 70
     8
 71
     3
 72
     9
 73
     5
 74
     3
 42
0.0000000001
 43
0.0000000001
 44
0.0000000001
 40
0.0
 40
0.0
 40
0.0
 40
0.0
 40
11.35084888149779
 40
21.50264674203758
 40
21.50264674203758
 40
21.50264674203758
 40
21.50264674203758
 10
266.9557378870868
 20
541.3233026394691
 30
0.0
 10
268.7202501620233
 20
537.8287641029178
 30
0.0
 10
272.0628798204796
 20
531.2088338701768
 30
0.0
 10
270.4986566668527
 20
523.9911005727946
 30
0.0
 10
269.7601579390029
 20
520.5834749755667
 30
0.0
 11
266.9557378870868
 21
541.3233026394691
 31
0.0
 11
270.8819367413743
 21
530.673103914225
 31
0.0
 11
269.7601579390029
 21
520.5834749755667
 31
0.0
  0
SPLINE
  5
99F
330
1F
100
AcDbEntity
  8
ceco.net 127
100
AcDbSpline
210
0.0
220
0.0
230
1.0
 70
     8
 71
     3
 72
    11
 73
     7
 74
     0
 42
0.0000000001
 43
0.0000000001
 40
0.0
 40
0.0
 40
0.0
 40
0.0
 40
2.46087069989942
 40
6.361728622448053
 40
10.55747595048238
 40
11.89586159004266
 40
11.89586159004266
 40
11.89586159004266
 40
11.89586159004266
 10
294.1812698669528
 20
828.178428522292
 30
0.0
 10
296.1822460802068
 20
820.3931783129128
 30
0.0
 10
300.0253878137737
 20
799.5459080299688
 30
0.0
 10
307.2680678815231
 20
765.0156534485004
 30
0.0
 10
294.6702549443216
 20
731.6018246339836
 30
0.0
 10
279.0505920528394
 20
721.9072410920407
 30
0.0
 10
275.0739895782317
 20
719.8022961042761
 30
0.0
  0
LINE
  5
9A0
330
1F
100
AcDbEntity
  8
ceco.net 127
100
AcDbLine
 10
365.896094936259
 20
0.0
 30
0.0
 11
343.5181988101012
 21
0.0
 31
0.0
  0
SPLINE
  5
9A1
330
1F
100
AcDbEntity
  8
ceco.net 127
100
AcDbSpline
210
0.0
220
0.0
230
1.0
 70
     8
 71
     3
 72
     9
 73
     5
 74
     0
 42
0.0000000001
 43
0.0000000001
 40
5.478592495916008
 40
5.478592495916008
 40
5.478592495916008
 40
5.478592495916008
 40
34.14436098241285
 40
98.50776521487114
 40
98.50776521487114
 40
98.50776521487114
 40
98.50776521487114
 10
291.3079794672048
 20
235.7369599935873
 30
0.0
 10
295.2474557641835
 20
211.2286348272364
 30
0.0
 10
308.4050433315023
 20
131.7689599299001
 30
0.0
 10
329.1024818074656
 20
53.87323727819603
 30
0.0
 10
343.5181988101012
 20
0.0
 30
0.0
  0
SPLINE
  5
9A2
330
1F
100
AcDbEntity
  8
ceco.net 127
100
AcDbSpline
210
0.0
220
0.0
230
1.0
 70
     8
 71
     3
 72
     9
 73
     5
 74
     0
 42
0.0000000001
 43
0.0000000001
 40
2.580360852954532
 40
2.580360852954532
 40
2.580360852954532
 40
2.580360852954532
 40
8.101762710721573
 40
9.301084537810597
 40
9.301084537810597
 40
9.301084537810597
 40
9.301084537810597
 10
331.8927959397788
 20
187.0903074710095
 30
0.0
 10
334.1433726415052
 20
168.8177455270079
 30
0.0
 10
337.061737560587
 20
146.6058163685347
 30
0.0
 10
340.6639453958159
 20
124.5073022329279
 30
0.0
 10
341.3266066263531
 20
120.56708471006
 30
0.0
  0
SPLINE
  5
9A3
330
1F
100
AcDbEntity
  8
ceco.net 127
100
AcDbSpline
210
0.0
220
0.0
230
1.0
 70
     8
 71
     3
 72
    12
 73
     8
 74
     0
 42
0.0000000001
 43
0.0000000001
 40
1.141599306576299
 40
1.141599306576299
 40
1.141599306576299
 40
1.141599306576299
 40
5.264141126641201
 40
12.17049573869871
 40
23.31722670533525
 40
34.7325450466503
 40
45.92727872448875
 40
45.92727872448875
 40
45.92727872448875
 40
45.92727872448875
 10
348.0181335313536
 20
506.8950516044024
 30
0.0
 10
350.0717575104754
 20
503.991318295476
 30
0.0
 10
355.5813014087325
 20
496.2111136969578
 30
0.0
 10
367.0450396923552
 20
480.2712869084616
 30
0.0
 10
367.3758191638389
 20
453.5198859790344
 30
0.0
 10
361.2191099045958
 20
424.3839112625237
 30
0.0
 10
349.8502817285479
 20
408.8159880217008
 30
0.0
 10
343.2832563985357
 20
401.6190280854771
 30
0.0
  0
SPLINE
  5
9A4
330
1F
100
AcDbEntity
  8
ceco.net 127
100
AcDbSpline
210
0.0
220
0.0
230
1.0
 70
     8
 71
     3
 72
     8
 73
     4
 74
     0
 42
0.0000000001
 43
0.0000000001
 40
13.90501930309546
 40
13.90501930309546
 40
13.90501930309546
 40
13.90501930309546
 40
17.0909610484186
 40
17.0909610484186
 40
17.0909610484186
 40
17.0909610484186
 10
267.1577144208167
 20
540.9231371917821
 30
0.0
 10
277.366447762346
 20
537.996987831505
 30
0.0
 10
287.5375010316929
 20
534.9385298248708
 30
0.0
 10
297.7085543011526
 20
531.8800718181928
 30
0.0
  0
SPLINE
  5
9A5
330
1F
100
AcDbEntity
  8
ceco.net 127
100
AcDbSpline
210
0.0
220
0.0
230
1.0
 70
     8
 71
     3
 72
     9
 73
     5
 74
     0
 42
0.0000000001
 43
0.0000000001
 40
4.272031431712457
 40
4.272031431712457
 40
4.272031431712457
 40
4.272031431712457
 40
30.46984096447278
 40
124.721542943495
 40
124.721542943495
 40
124.721542943495
 40
124.721542943495
 10
342.0994289285772
 20
818.8195936227485
 30
0.0
 10
339.1527495932677
 20
796.3345745133092
 30
0.0
 10
325.481024230612
 20
692.9738941942241
 30
0.0
 10
307.7497234644397
 20
590.2217450176577
 30
0.0
 10
293.5095495683963
 20
509.8730021592245
 30
0.0
  0
SPLINE
  5
9A6
330
1F
100
AcDbEntity
  8
ceco.net 127
100
AcDbSpline
210
0.0
220
0.0
230
1.0
 70
     8
 71
     3
 72
    10
 73
     6
 74
     0
 42
0.0000000001
 43
0.0000000001
 40
11.67989103598222
 40
11.67989103598222
 40
11.67989103598222
 40
11.67989103598222
 40
55.60927767516933
 40
117.2789670331943
 40
184.8929512373754
 40
184.8929512373754
 40
184.8929512373754
 40
184.8929512373754
 10
343.5642270004555
 20
370.2675047152297
 30
0.0
 10
342.8182659838494
 20
413.3764344124983
 30
0.0
 10
344.4788898640345
 20
498.856527911741
 30
0.0
 10
366.2856280752748
 20
647.5967400422741
 30
0.0
 10
378.0164105206713
 20
758.8593545287522
 30
0.0
 10
383.9403826331126
 20
817.059900502315
 30
0.0
  0
SPLINE
  5
9A7
330
1F
100
AcDbEntity
  8
ceco.net 127
100
AcDbSpline
210
0.0
220
0.0
230
1.0
 70
     8
 71
     3
 72
    10
 73
     6
 74
     0
 42
0.0000000001
 43
0.0000000001
 40
3.88585035782754
 40
3.88585035782754
 40
3.88585035782754
 40
3.88585035782754
 40
46.24682510875333
 40
126.6501045763902
 40
142.6092192416778
 40
142.6092192416778
 40
142.6092192416778
 40
142.6092192416778
 10
368.8551811435427
 20
816.5106255598139
 30
0.0
 10
363.5865982881787
 20
759.6566548022702
 30
0.0
 10
351.3463162269072
 20
654.1535659773244
 30
0.0
 10
327.2509381707768
 20
535.5559969707282
 30
0.0
 10
326.3382267143679
 20
452.3372845501962
 30
0.0
 10
326.4877564295129
 20
438.53907511351
 30
0.0
  0
SPLINE
  5
9A8
330
1F
100
AcDbEntity
  8
ceco.net 127
100
AcDbSpline
210
0.0
220
0.0
230
1.0
 70
     8
 71
     3
 72
    11
 73
     7
 74
     5
 42
0.0000000001
 43
0.0000000001
 44
0.0000000001
 40
0.0
 40
0.0
 40
0.0
 40
0.0
 40
41.14287080552553
 40
92.55245550321857
 40
119.0353862654141
 40
141.2923445817455
 40
141.2923445817455
 40
141.2923445817455
 40
141.2923445817455
 10
424.5694930580139
 20
25.08094171454922
 30
0.0
 10
416.9468134363649
 20
36.54507565051093
 30
0.0
 10
399.7993051880295
 20
62.33408174603443
 30
0.0
 10
365.8512014041682
 20
85.83437986048695
 30
0.0
 10
353.4060507367485
 20
118.1584848891225
 30
0.0
 10
353.1682906450237
 20
134.451778481388
 30
0.0
 10
353.0597180456425
 20
141.8920735492438
 30
0.0
 11
424.5694930580139
 21
25.08094171454922
 31
0.0
 11
399.8739703035862
 21
57.98788587540548
 31
0.0
 11
364.2026669238002
 21
95.00819805637638
 31
0.0
 11
354.5988425291834
 21
119.6883961664525
 31
0.0
 11
353.0597180456425
 21
141.8920735492438
 31
0.0
  0
SPLINE
  5
9A9
330
1F
100
AcDbEntity
  8
ceco.net 127
100
AcDbSpline
210
0.0
220
0.0
230
1.0
 70
     8
 71
     3
 72
     9
 73
     5
 74
     0
 42
0.0000000001
 43
0.0000000001
 40
0.9654557576236438
 40
0.9654557576236438
 40
0.9654557576236438
 40
0.9654557576236438
 40
2.086097092286198
 40
6.387898715300546
 40
6.387898715300546
 40
6.387898715300546
 40
6.387898715300546
 10
411.0227818204057
 20
1.996932924185784
 30
0.0
 10
410.2734236224696
 20
1.373466570541495
 30
0.0
 10
406.56406940343
 20
-1.464143346126547
 30
0.0
 10
401.9823625116023
 20
-2.428666635822082
 30
0.0
 10
398.1538661995491
 20
-2.777995277611807
 30
0.0
  0
SPLINE
  5
9AA
330
1F
100
AcDbEntity
  8
ceco.net 127
100
AcDbSpline
210
0.0
220
0.0
230
1.0
 70
     8
 71
     3
 72
     9
 73
     5
 74
     0
 42
0.0000000001
 43
0.0000000001
 40
0.0
 40
0.0
 40
0.0
 40
0.0
 40
7.924039001049144
 40
13.62171294864827
 40
13.62171294864827
 40
13.62171294864827
 40
13.62171294864827
 10
404.0488694868145
 20
36.64454497764745
 30
0.0
 10
405.0258243865973
 20
29.84743175252879
 30
0.0
 10
406.7052456019828
 20
18.16294544201446
 30
0.0
 10
409.7260739464436
 20
6.759711560803225
 30
0.0
 10
411.0227818204057
 20
1.996932924185784
 30
0.0
  0
SPLINE
  5
9AB
330
1F
100
AcDbEntity
  8
ceco.net 127
100
AcDbSpline
210
0.0
220
0.0
230
1.0
 70
     8
 71
     3
 72
    10
 73
     6
 74
     0
 42
0.0000000001
 43
0.0000000001
 40
0.0
 40
0.0
 40
0.0
 40
0.0
 40
6.007294124274181
 40
28.52730161743536
 40
46.11043696894664
 40
46.11043696894664
 40
46.11043696894664
 40
46.11043696894664
 10
340.037568522348
 20
100.6673900839132
 30
0.0
 10
343.6302248056781
 20
96.90836168661554
 30
0.0
 10
360.6909491992373
 20
79.05757318516771
 30
0.0
 10
382.3654608891047
 20
44.64568992455042
 30
0.0
 10
393.3709244786296
 20
11.68841165585399
 30
0.0
 10
398.1538661995491
 20
-2.777995277654554
 30
0.0
  0
SPLINE
  5
9AC
330
1F
100
AcDbEntity
  8
ceco.net 127
100
AcDbSpline
210
0.0
220
0.0
230
1.0
 70
     8
 71
     3
 72
    10
 73
     6
 74
     4
 42
0.0000000001
 43
0.0000000001
 44
0.0000000001
 40
0.0
 40
0.0
 40
0.0
 40
0.0
 40
31.17050426024627
 40
93.60235451774855
 40
111.549590519916
 40
111.549590519916
 40
111.549590519916
 40
111.549590519916
 10
423.5486791548046
 20
-1.331657623666615
 30
0.0
 10
419.1122265308481
 20
8.050622416495013
 30
0.0
 10
405.7899392864168
 20
36.22480577816855
 30
0.0
 10
385.086697478367
 20
67.89750324543167
 30
0.0
 10
365.4783154480687
 20
86.18658873125243
 30
0.0
 10
361.1001086744618
 20
90.27021979440542
 30
0.0
 11
423.5486791548046
 21
-1.331657623666615
 31
0.0
 11
409.7901936682992
 21
26.63804764749511
 31
0.0
 11
374.0008946963353
 21
77.79332113587134
 31
0.0
 11
361.1001086744618
 21
90.27021979440542
 31
0.0
  0
SPLINE
  5
9AD
330
1F
100
AcDbEntity
  8
ceco.net 127
100
AcDbSpline
210
0.0
220
0.0
230
1.0
 70
     8
 71
     3
 72
    11
 73
     7
 74
     0
 42
0.0000000001
 43
0.0000000001
 40
0.0
 40
0.0
 40
0.0
 40
0.0
 40
4.743602292948604
 40
11.46795509899325
 40
15.55849033482959
 40
17.23039417617581
 40
17.23039417617581
 40
17.23039417617581
 40
17.23039417617581
 10
340.037568522348
 20
100.6673900839132
 30
0.0
 10
339.5309133009031
 20
109.1719998494936
 30
0.0
 10
340.1206460506491
 20
118.4053499273004
 30
0.0
 10
343.7250250906326
 20
127.5978094999318
 30
0.0
 10
348.116337475516
 20
137.9172899007553
 30
0.0
 10
351.87899665027
 20
141.0624634187488
 30
0.0
 10
353.0597180456425
 20
141.8920735492438
 30
0.0
  0
SPLINE
  5
9AE
330
1F
100
AcDbEntity
  8
ceco.net 127
100
AcDbSpline
210
0.0
220
0.0
230
1.0
 70
     8
 71
     3
 72
    10
 73
     6
 74
     4
 42
0.0000000001
 43
0.0000000001
 44
0.0000000001
 40
0.0
 40
0.0
 40
0.0
 40
0.0
 40
13.02647537313187
 40
31.30064720917391
 40
49.86765309242155
 40
49.86765309242155
 40
49.86765309242155
 40
49.86765309242155
 10
411.514224028906
 20
117.2587979688587
 30
0.0
 10
409.6075393347454
 20
113.1986195944449
 30
0.0
 10
405.0260648190717
 20
103.4426259535273
 30
0.0
 10
383.8478733925586
 20
100.2616351917244
 30
0.0
 10
377.3095137054952
 20
111.8633562690169
 30
0.0
 10
374.0143486132856
 20
117.71032525408
 30
0.0
 11
411.514224028906
 21
117.2587979688587
 31
0.0
 11
404.285334745964
 21
106.4221831661734
 31
0.0
 11
386.2130951913495
 21
103.7130294655098
 31
0.0
 11
374.0143486132856
 21
117.71032525408
 31
0.0
  0
SPLINE
  5
9AF
330
1F
100
AcDbEntity
  8
ceco.net 127
100
AcDbSpline
210
0.0
220
0.0
230
1.0
 70
     8
 71
     3
 72
     8
 73
     4
 74
     0
 42
0.0000000001
 43
0.0000000001
 40
17.91093392404211
 40
17.91093392404211
 40
17.91093392404211
 40
17.91093392404211
 40
18.50654491589997
 40
18.50654491589997
 40
18.50654491589997
 40
18.50654491589997
 10
275.0739895782317
 20
719.8022961042761
 30
0.0
 10
274.5757578412613
 20
719.6968314442665
 30
0.0
 10
274.0756820273854
 20
719.5992894453275
 30
0.0
 10
273.5738768884621
 20
719.5091771023389
 30
0.0
  0
SPLINE
  5
9B0
330
1F
100
AcDbEntity
  8
ceco.net 127
100
AcDbSpline
210
0.0
220
0.0
230
1.0
 70
     8
 71
     3
 72
     8
 73
     4
 74
     0
 42
0.0000000001
 43
0.0000000001
 40
0.0
 40
0.0
 40
0.0
 40
0.0
 40
1.224302374327471
 40
1.224302374327471
 40
1.224302374327471
 40
1.224302374327471
 10
291.1076507031102
 20
840.0300205560006
 30
0.0
 10
292.1477714095308
 20
836.0833048001559
 30
0.0
 10
293.1878921158386
 20
832.1365890442676
 30
0.0
 10
294.1812698669528
 20
828.178428522292
 30
0.0
  0
SPLINE
  5
9B1
330
1F
100
AcDbEntity
  8
ceco.net 127
100
AcDbSpline
210
0.0
220
0.0
230
1.0
 70
     8
 71
     3
 72
     9
 73
     5
 74
     0
 42
0.0000000001
 43
0.0000000001
 40
0.0
 40
0.0
 40
0.0
 40
0.0
 40
3.794364262601516
 40
15.38708292450678
 40
15.38708292450678
 40
15.38708292450678
 40
15.38708292450678
 10
273.4107639874983
 20
989.9296614044169
 30
0.0
 10
273.0278146732416
 20
986.660316355511
 30
0.0
 10
271.4748607535275
 20
973.4023158329282
 30
0.0
 10
272.6820395265567
 20
960.21193637938
 30
0.0
 10
274.3950109494326
 20
950.2939115393337
 30
0.0
  0
SPLINE
  5
9B2
330
1F
100
AcDbEntity
  8
ceco.net 127
100
AcDbSpline
210
0.0
220
0.0
230
1.0
 70
     8
 71
     3
 72
     9
 73
     5
 74
     0
 42
0.0000000001
 43
0.0000000001
 40
0.0
 40
0.0
 40
0.0
 40
0.0
 40
3.100633131287471
 40
9.925723111658346
 40
9.925723111658346
 40
9.925723111658346
 40
9.925723111658346
 10
365.631724651279
 20
920.5950415067155
 30
0.0
 10
364.753638989212
 20
918.042903458655
 30
0.0
 10
361.9427178707592
 20
909.8730186207149
 30
0.0
 10
356.7382692093579
 20
903.066187375075
 30
0.0
 10
352.7238051444764
 20
898.6338755975531
 30
0.0
  0
SPLINE
  5
9B3
330
1F
100
AcDbEntity
  8
ceco.net 127
100
AcDbSpline
210
0.0
220
0.0
230
1.0
 70
     8
 71
     3
 72
    13
 73
     9
 74
     0
 42
0.0000000001
 43
0.0000000001
 40
1.679161872048152
 40
1.679161872048152
 40
1.679161872048152
 40
1.679161872048152
 40
2.669849414181155
 40
10.81985204393263
 40
21.30303013012749
 40
30.67467665835458
 40
36.60356970206956
 40
40.56119194665192
 40
40.56119194665192
 40
40.56119194665192
 40
40.56119194665192
 10
391.9121509067045
 20
823.4450088775693
 30
0.0
 10
392.2055549494398
 20
824.2504375032813
 30
0.0
 10
394.8017833110934
 20
831.7111938807929
 30
0.0
 10
396.8828389793088
 20
848.653739342083
 30
0.0
 10
396.235337879716
 20
873.7551278847631
 30
0.0
 10
381.1153805924041
 20
892.4500562014827
 30
0.0
 10
365.0560506537185
 20
898.6540254986858
 30
0.0
 10
356.4655877496516
 20
898.5639446514278
 30
0.0
 10
353.0217144353846
 20
898.4799373563555
 30
0.0
  0
SPLINE
  5
9B4
330
1F
100
AcDbEntity
  8
ceco.net 127
100
AcDbSpline
210
0.0
220
0.0
230
1.0
 70
     8
 71
     3
 72
    11
 73
     7
 74
     5
 42
0.0000000001
 43
0.0000000001
 44
0.0000000001
 40
0.0
 40
0.0
 40
0.0
 40
0.0
 40
16.11204721109952
 40
45.75640805845181
 40
81.19434950225134
 40
145.4491325589544
 40
145.4491325589544
 40
145.4491325589544
 40
145.4491325589544
 10
327.4655288786325
 20
1169.648572599754
 30
0.0
 10
332.3604477677737
 20
1167.067731721379
 30
0.0
 10
346.261468734884
 20
1159.738432916723
 30
0.0
 10
353.9465108699528
 20
1131.632372599122
 30
0.0
 10
376.3760973398625
 20
1094.716431232742
 30
0.0
 10
375.8976283667791
 20
1060.392764454699
 30
0.0
 10
375.5892415690577
 20
1038.270189576905
 30
0.0
 11
327.4655288786325
 21
1169.648572599754
 31
0.0
 11
340.9636491951459
 21
1160.850913067036
 31
0.0
 11
354.461753164287
 21
1134.457934468812
 31
0.0
 11
369.1336337349166
 21
1102.199856189173
 31
0.0
 11
375.5892415690577
 21
1038.270189576905
 31
0.0
  0
SPLINE
  5
9B5
330
1F
100
AcDbEntity
  8
ceco.net 127
100
AcDbSpline
210
0.0
220
0.0
230
1.0
 70
     8
 71
     3
 72
    11
 73
     7
 74
     5
 42
0.0000000001
 43
0.0000000001
 44
0.0000000001
 40
0.0
 40
0.0
 40
0.0
 40
0.0
 40
18.34375329299689
 40
56.10256732339921
 40
105.2638277864701
 40
130.533642111745
 40
130.533642111745
 40
130.533642111745
 40
130.533642111745
 10
309.2724165879863
 20
1180.205762036933
 30
0.0
 10
315.3553955680531
 20
1181.608712924945
 30
0.0
 10
333.9595891758198
 20
1185.899500387521
 30
0.0
 10
367.8864255081531
 20
1161.257377365258
 30
0.0
 10
369.4734444800658
 20
1121.979686171267
 30
0.0
 10
379.7348115188329
 20
1099.33176671515
 30
0.0
 10
383.2186096573186
 20
1091.642656741428
 30
0.0
 11
309.2724165879863
 21
1180.205762036933
 31
0.0
 11
327.4655288786325
 21
1182.551811920092
 31
0.0
 11
359.1567614857922
 21
1162.023933003326
 31
0.0
 11
373.8286257090512
 21
1115.103085498915
 31
0.0
 11
383.2186096573186
 21
1091.642656741428
 31
0.0
  0
SPLINE
  5
9B6
330
1F
100
AcDbEntity
  8
ceco.net 127
100
AcDbSpline
210
0.0
220
0.0
230
1.0
 70
     8
 71
     3
 72
    11
 73
     7
 74
     5
 42
0.0000000001
 43
0.0000000001
 44
0.0000000001
 40
0.0
 40
0.0
 40
0.0
 40
0.0
 40
30.59412075614353
 40
61.75248542278436
 40
81.60749262222346
 40
110.1743370725785
 40
110.1743370725785
 40
110.1743370725785
 40
110.1743370725785
 10
295.7742962714728
 20
1151.46674356616
 30
0.0
 10
289.1070428017647
 20
1143.267795131429
 30
0.0
 10
275.6495724603272
 20
1126.718685982861
 30
0.0
 10
277.0823393036284
 20
1098.335949924875
 30
0.0
 10
264.7462482677484
 20
1072.996363672743
 30
0.0
 10
273.1878612917133
 20
1057.795346325773
 30
0.0
 10
278.1680559342021
 20
1048.827389024622
 30
0.0
 11
295.7742962714728
 21
1151.46674356616
 31
0.0
 11
279.3418161882073
 21
1125.660274936094
 31
0.0
 11
273.9965570118547
 21
1094.963827372296
 31
0.0
 11
268.7780719859329
 21
1075.806877590977
 31
0.0
 11
278.1680559342021
 21
1048.827389024622
 31
0.0
  0
SPLINE
  5
9B7
330
1F
100
AcDbEntity
  8
ceco.net 127
100
AcDbSpline
210
0.0
220
0.0
230
1.0
 70
     8
 71
     3
 72
    10
 73
     6
 74
     4
 42
0.0000000001
 43
0.0000000001
 44
0.0000000001
 40
0.0
 40
0.0
 40
0.0
 40
0.0
 40
12.87856137617357
 40
44.80114024762866
 40
58.19486617369911
 40
58.19486617369911
 40
58.19486617369911
 40
58.19486617369911
 10
331.5736488995062
 20
1005.425601329107
 30
0.0
 10
329.6220720970493
 20
1001.541744076249
 30
0.0
 10
322.8330478048912
 20
988.0308224441966
 30
0.0
 10
304.568623881498
 20
978.4640303850153
 30
0.0
 10
291.4387368931805
 20
971.2068744858658
 30
0.0
 10
287.55805622984
 20
969.0619432618778
 30
0.0
 11
331.5736488995062
 21
1005.425601329107
 31
0.0
 11
325.1180247178799
 21
994.2818919132323
 31
0.0
 11
299.2955443389728
 21
975.5135529114658
 31
0.0
 11
287.55805622984
 21
969.0619432618778
 31
0.0
  0
SPLINE
  5
9B8
330
1F
100
AcDbEntity
  8
ceco.net 127
100
AcDbSpline
210
0.0
220
0.0
230
1.0
 70
     8
 71
     3
 72
    15
 73
    11
 74
     9
 42
0.0000000001
 43
0.0000000001
 44
0.0000000001
 40
0.0
 40
0.0
 40
0.0
 40
0.0
 40
28.66026383338543
 40
60.59807614575934
 40
88.47189313061823
 40
138.6908731470356
 40
236.0587128205897
 40
317.7123654254369
 40
354.6601397971983
 40
366.4692973003802
 40
366.4692973003802
 40
366.4692973003802
 40
366.4692973003802
 10
282.8630642557072
 20
1208.944780507693
 30
0.0
 10
292.282798095166
 20
1211.831068793003
 30
0.0
 10
312.1994936215827
 20
1217.933717334851
 30
0.0
 10
340.6950297191562
 20
1204.780962026322
 30
0.0
 10
369.422161963064
 20
1181.344738176828
 30
0.0
 10
388.8296053870361
 20
1122.697088881863
 30
0.0
 10
385.2546732159845
 20
1047.508157367659
 30
0.0
 10
362.6158246178555
 20
971.9769135170151
 30
0.0
 10
323.2023342106545
 20
950.43396325279
 30
0.0
 10
308.6813476062927
 20
943.2386768340313
 30
0.0
 10
305.1642965672253
 20
941.4959447273931
 30
0.0
 11
282.8630642557072
 21
1208.944780507693
 31
0.0
 11
311.0330324479946
 21
1214.223380231557
 31
0.0
 11
340.9636491951459
 21
1203.079680826263
 31
0.0
 11
362.0911376000313
 21
1184.897851792668
 31
0.0
 11
381.4579937973103
 21
1138.563514256418
 31
0.0
 11
380.2842498906775
 21
1041.202749428194
 31
0.0
 11
346.8323850760262
 21
966.7158933787186
 31
0.0
 11
315.7280407696125
 21
946.7745344407058
 31
0.0
 11
305.1642965672253
 21
941.4959447273931
 31
0.0
  0
SPLINE
  5
9B9
330
1F
100
AcDbEntity
  8
ceco.net 127
100
AcDbSpline
210
0.0
220
0.0
230
1.0
 70
     8
 71
     3
 72
    12
 73
     8
 74
     6
 42
0.0000000001
 43
0.0000000001
 44
0.0000000001
 40
0.0
 40
0.0
 40
0.0
 40
0.0
 40
10.5611421295522
 40
44.31149945123453
 40
95.50677252535001
 40
142.7473994133854
 40
173.6679741642401
 40
173.6679741642401
 40
173.6679741642401
 40
173.6679741642401
 10
315.3210720431598
 20
1156.184980961156
 30
0.0
 10
318.81991512323
 20
1155.249987166007
 30
0.0
 10
333.500049271662
 20
1151.327023481543
 30
0.0
 10
345.1209638986874
 20
1116.995675597858
 30
0.0
 10
358.6143109485157
 20
1074.799096883758
 30
0.0
 10
338.72422105435
 20
1033.300780235446
 30
0.0
 10
339.0983958077672
 20
1007.133429377597
 30
0.0
 10
339.2464193564119
 20
996.7816242458129
 30
0.0
 11
315.3210720431598
 21
1156.184980961156
 31
0.0
 11
325.2899667570527
 21
1152.69802508763
 31
0.0
 11
342.7355284194382
 21
1123.806175066817
 31
0.0
 11
352.2059906581489
 21
1073.494483283312
 31
0.0
 11
340.7417494767051
 21
1027.666020480069
 31
0.0
 11
339.2464193564119
 21
996.7816242458129
 31
0.0
  0
SPLINE
  5
9BA
330
1F
100
AcDbEntity
  8
ceco.net 127
100
AcDbSpline
210
0.0
220
0.0
230
1.0
 70
     8
 71
     3
 72
    11
 73
     7
 74
     5
 42
0.0000000001
 43
0.0000000001
 44
0.0000000001
 40
0.0
 40
0.0
 40
0.0
 40
0.0
 40
6.052361528289713
 40
15.75707130160743
 40
25.3819950163999
 40
33.15579655844587
 40
33.15579655844587
 40
33.15579655844587
 40
33.15579655844587
 10
316.4134385519901
 20
1023.996351470302
 30
0.0
 10
314.407342924254
 20
1024.195495783674
 30
0.0
 10
309.1845564637413
 20
1024.713959713904
 30
0.0
 10
300.5672137069463
 20
1023.73137313534
 30
0.0
 10
292.1108030536375
 20
1027.769093154909
 30
0.0
 10
286.2567681688011
 20
1027.693271025225
 30
0.0
 10
283.6411681898862
 20
1027.659393475004
 30
0.0
 11
316.4134385519901
 21
1023.996351470302
 31
0.0
 11
310.3764387988121
 21
1024.427296999633
 31
0.0
 11
300.6741212700471
 21
1024.64276475905
 31
0.0
 11
291.4030156739499
 21
1027.228447945675
 31
0.0
 11
283.6411681898862
 21
1027.659393475004
 31
0.0
  0
SPLINE
  5
9BB
330
1F
100
AcDbEntity
  8
ceco.net 127
100
AcDbSpline
210
0.0
220
0.0
230
1.0
 70
     8
 71
     3
 72
    12
 73
     8
 74
     6
 42
0.0000000001
 43
0.0000000001
 44
0.0000000001
 40
0.0
 40
0.0
 40
0.0
 40
0.0
 40
7.473680096115832
 40
19.23916149281767
 40
28.49998232334948
 40
37.72625547343501
 40
44.43229726259692
 40
44.43229726259692
 40
44.43229726259692
 40
44.43229726259692
 10
317.0602564510991
 20
1021.410668283678
 30
0.0
 10
315.0399174506466
 20
1019.936231877204
 30
0.0
 10
309.8390488290228
 20
1016.140655966779
 30
0.0
 10
300.2539759334009
 20
1013.750795293899
 30
0.0
 10
289.9364398778775
 20
1015.693167997944
 30
0.0
 10
283.5184517204802
 20
1021.434699832296
 30
0.0
 10
279.8113400053137
 20
1025.208907507809
 30
0.0
 10
278.2509863358191
 20
1026.797502416299
 30
0.0
 11
317.0602564510991
 21
1021.410668283678
 31
0.0
 11
310.8076507315891
 21
1017.316670739049
 31
0.0
 11
299.3804854718291
 21
1014.515519793049
 31
0.0
 11
290.3249858420604
 21
1016.454779680344
 31
0.0
 11
282.9943502907772
 21
1022.057091582965
 31
0.0
 11
278.2509863358191
 21
1026.797502416299
 31
0.0
  0
ARC
  5
9BC
330
1F
100
AcDbEntity
  8
ceco.net 127
100
AcDbCircle
 10
329.5654842374897
 20
1083.251516918821
 30
0.0
 40
5.862764402238015
100
AcDbArc
 50
145.5723911459813
 51
55.29363297590583
  0
ARC
  5
9BD
330
1F
100
AcDbEntity
  8
ceco.net 127
100
AcDbCircle
 10
278.035380369487
 20
1092.732348596101
 30
0.0
 40
5.862764402238015
100
AcDbArc
 50
202.7084213082092
 51
36.20930574987534
  0
SPLINE
  5
9BE
330
1F
100
AcDbEntity
  8
ceco.net 127
100
AcDbSpline
210
0.0
220
0.0
230
1.0
 70
     8
 71
     3
 72
    10
 73
     6
 74
     4
 42
0.0000000001
 43
0.0000000001
 44
0.0000000001
 40
0.0
 40
0.0
 40
0.0
 40
0.0
 40
5.864837285701692
 40
15.37354694320294
 40
22.55110422261464
 40
22.55110422261464
 40
22.55110422261464
 40
22.55110422261464
 10
340.7770435309194
 20
1077.218269497464
 30
0.0
 10
338.9648091501087
 20
1076.575204613795
 30
0.0
 10
334.2143840371388
 20
1074.889533265212
 30
0.0
 10
325.5418405807795
 20
1074.487172202376
 30
0.0
 10
322.3249389709662
 20
1079.410134500845
 30
0.0
 10
320.9411965405015
 20
1081.527734801454
 30
0.0
 11
340.7770435309194
 21
1077.218269497464
 31
0.0
 11
335.1712557105201
 21
1075.494477369503
 31
0.0
 11
325.6845441480872
 21
1076.140900668789
 31
0.0
 11
320.9411965405015
 21
1081.527734801454
 31
0.0
  0
SPLINE
  5
9BF
330
1F
100
AcDbEntity
  8
ceco.net 127
100
AcDbSpline
210
0.0
220
0.0
230
1.0
 70
     8
 71
     3
 72
    11
 73
     7
 74
     5
 42
0.0000000001
 43
0.0000000001
 44
0.0000000001
 40
0.0
 40
0.0
 40
0.0
 40
0.0
 40
5.496294788076415
 40
12.18011244036519
 40
19.53796497531487
 40
26.58368241191156
 40
26.58368241191156
 40
26.58368241191156
 40
26.58368241191156
 10
322.6660442715001
 20
1085.406254576114
 30
0.0
 10
324.2716396907195
 20
1086.339538957592
 30
0.0
 10
327.8297335510147
 20
1088.407752025404
 30
0.0
 10
334.6572845286299
 20
1088.340779618849
 30
0.0
 10
341.2778916688651
 20
1084.512786562246
 30
0.0
 10
342.6789723277873
 20
1079.759081692593
 30
0.0
 10
343.3643314747314
 20
1077.433737256825
 30
0.0
 11
322.6660442715001
 21
1085.406254576114
 31
0.0
 11
327.6250141927885
 21
1087.77645999278
 31
0.0
 11
334.3088318450773
 21
1087.77645999278
 31
0.0
 11
340.5614375645873
 21
1083.897940218122
 31
0.0
 11
343.3643314747314
 21
1077.433737256825
 31
0.0
  0
SPLINE
  5
9C0
330
1F
100
AcDbEntity
  8
ceco.net 127
100
AcDbSpline
210
0.0
220
0.0
230
1.0
 70
     8
 71
     3
 72
    10
 73
     6
 74
     0
 42
0.0000000001
 43
0.0000000001
 40
0.0
 40
0.0
 40
0.0
 40
0.0
 40
0.64717995000338
 40
1.711535093607226
 40
2.089424896020815
 40
2.089424896020815
 40
2.089424896020815
 40
2.089424896020815
 10
292.2654395393911
 20
1085.406254576114
 30
0.0
 10
290.1174696057751
 20
1085.302816269787
 30
0.0
 10
284.4369383693665
 20
1085.029262845821
 30
0.0
 10
277.2947102346261
 20
1085.505128389414
 30
0.0
 10
272.8867405151031
 20
1087.343183731646
 30
0.0
 10
271.7542459818105
 20
1087.889730917198
 30
0.0
  0
SPLINE
  5
9C1
330
1F
100
AcDbEntity
  8
ceco.net 127
100
AcDbSpline
210
0.0
220
0.0
230
1.0
 70
     8
 71
     3
 72
    10
 73
     6
 74
     0
 42
0.0000000001
 43
0.0000000001
 40
0.0
 40
0.0
 40
0.0
 40
0.0
 40
0.6338579064998017
 40
1.506839650040847
 40
2.50152988338926
 40
2.50152988338926
 40
2.50152988338926
 40
2.50152988338926
 10
295.28393941598
 20
1085.837200105444
 30
0.0
 10
294.1703684460881
 20
1087.645827222516
 30
0.0
 10
291.5231302033571
 20
1091.9453887239
 30
0.0
 10
284.0830082586762
 20
1096.695339504222
 30
0.0
 10
277.8094686027543
 20
1096.96788964615
 30
0.0
 10
274.4393086913987
 20
1096.749872036382
 30
0.0
  0
SPLINE
  5
9C2
330
1F
100
AcDbEntity
  8
ceco.net 127
100
AcDbSpline
210
0.0
220
0.0
230
1.0
 70
     8
 71
     3
 72
    11
 73
     7
 74
     5
 42
0.0000000001
 43
0.0000000001
 44
0.0000000001
 40
0.0
 40
0.0
 40
0.0
 40
0.0
 40
4.186218950876669
 40
9.102599616964972
 40
14.98470305888979
 40
18.49353942175819
 40
18.49353942175819
 40
18.49353942175819
 40
18.49353942175819
 10
304.9862732922283
 20
1031.968858778996
 30
0.0
 10
306.307724575062
 20
1032.359227720524
 30
0.0
 10
309.1811151172457
 20
1033.208053885452
 30
0.0
 10
314.940070178115
 20
1032.198717819471
 30
0.0
 10
315.6909739947279
 20
1026.595424467027
 30
0.0
 10
318.257408383001
 20
1024.703318918583
 30
0.0
 10
319.2163324621324
 20
1023.996351470302
 30
0.0
 11
304.9862732922283
 21
1031.968858778996
 31
0.0
 11
309.0828030005905
 21
1032.830759848252
 31
0.0
 11
313.826150608178
 21
1031.537913249664
 31
0.0
 11
316.6290445183221
 21
1026.36655688697
 31
0.0
 11
319.2163324621324
 21
1023.996351470302
 31
0.0
  0
SPLINE
  5
9C3
330
1F
100
AcDbEntity
  8
ceco.net 127
100
AcDbSpline
210
0.0
220
0.0
230
1.0
 70
     8
 71
     3
 72
    11
 73
     7
 74
     5
 42
0.0000000001
 43
0.0000000001
 44
0.0000000001
 40
0.0
 40
0.0
 40
0.0
 40
0.0
 40
4.246531336500376
 40
13.11002856179071
 40
22.20874117459004
 40
26.95698055299809
 40
26.95698055299809
 40
26.95698055299809
 40
26.95698055299809
 10
303.0458032475271
 20
1032.399804308325
 30
0.0
 10
301.7755645528416
 20
1033.079776312522
 30
0.0
 10
297.8540426687375
 20
1035.179007824039
 30
0.0
 10
290.077321972733
 20
1033.631097168834
 30
0.0
 10
282.9832370253415
 20
1031.163843943956
 30
0.0
 10
278.3354953244268
 20
1031.121490933315
 30
0.0
 10
276.7417445712672
 20
1031.106967720333
 30
0.0
 11
303.0458032475271
 21
1032.399804308325
 31
0.0
 11
299.164879505497
 21
1034.123596436288
 31
0.0
 11
290.3249858420604
 21
1033.477173137
 31
0.0
 11
281.4850921787401
 21
1031.322445490289
 31
0.0
 11
276.7417445712672
 21
1031.106967720333
 31
0.0
  0
SPLINE
  5
9C4
330
1F
100
AcDbEntity
  8
ceco.net 127
100
AcDbSpline
210
0.0
220
0.0
230
1.0
 70
     8
 71
     3
 72
    10
 73
     6
 74
     4
 42
0.0000000001
 43
0.0000000001
 44
0.0000000001
 40
0.0
 40
0.0
 40
0.0
 40
0.0
 40
3.481379886620564
 40
7.645113545473334
 40
9.369961276470105
 40
9.369961276470105
 40
9.369961276470105
 40
9.369961276470105
 10
319.0007264958003
 20
1048.344838946902
 30
0.0
 10
318.7263653721366
 20
1047.139389228821
 30
0.0
 10
318.1238680833651
 20
1044.492220500267
 30
0.0
 10
314.6042726594772
 20
1043.518850863028
 30
0.0
 10
312.6683590198496
 20
1043.585040302363
 30
0.0
 10
312.1013028771812
 20
1043.604428113568
 30
0.0
 11
319.0007264958003
 21
1048.344838946902
 31
0.0
 11
317.7070906975805
 21
1045.11273246095
 31
0.0
 11
313.826150608178
 21
1043.604428113568
 31
0.0
 11
312.1013028771812
 21
1043.604428113568
 31
0.0
  0
SPLINE
  5
9C5
330
1F
100
AcDbEntity
  8
ceco.net 127
100
AcDbSpline
210
0.0
220
0.0
230
1.0
 70
     8
 71
     3
 72
    12
 73
     8
 74
     6
 42
0.0000000001
 43
0.0000000001
 44
0.0000000001
 40
0.0
 40
0.0
 40
0.0
 40
0.0
 40
3.535407846808862
 40
8.449167175750023
 40
13.17643106772044
 40
18.35100695534271
 40
19.51198170428891
 40
19.51198170428891
 40
19.51198170428891
 40
19.51198170428891
 10
298.9492735390504
 20
1057.179247324854
 30
0.0
 10
297.9398452250748
 20
1056.560354015611
 30
0.0
 10
295.5274422022059
 20
1055.081279108182
 30
0.0
 10
293.7728760546765
 20
1050.119862146245
 30
0.0
 10
298.3351516372507
 20
1045.928254421107
 30
0.0
 10
302.2566566770659
 20
1047.686451104081
 30
0.0
 10
304.1990973319205
 20
1046.786044255601
 30
0.0
 10
304.555045012079
 20
1046.621046818941
 30
0.0
 11
298.9492735390504
 21
1057.179247324854
 31
0.0
 11
296.1463796289062
 21
1055.024509667561
 31
0.0
 11
294.8527274832013
 21
1050.28409883424
 31
0.0
 11
298.302439292569
 21
1047.051992348272
 31
0.0
 11
303.4770151801913
 21
1047.051992348272
 31
0.0
 11
304.555045012079
 21
1046.621046818941
 31
0.0
  0
SPLINE
  5
9C6
330
1F
100
AcDbEntity
  8
ceco.net 127
100
AcDbSpline
210
0.0
220
0.0
230
1.0
 70
     8
 71
     3
 72
     9
 73
     5
 74
     3
 42
0.0000000001
 43
0.0000000001
 44
0.0000000001
 40
0.0
 40
0.0
 40
0.0
 40
0.0
 40
11.37140247642873
 40
30.79395284676307
 40
30.79395284676307
 40
30.79395284676307
 40
30.79395284676307
 10
319.0007264958003
 20
1083.682472458747
 30
0.0
 10
318.1956300057629
 20
1079.956787417937
 30
0.0
 10
316.0154149089271
 20
1069.867568457799
 30
0.0
 10
317.3172200965591
 20
1059.576251920246
 30
0.0
 10
318.1383026303592
 20
1053.085249780238
 30
0.0
 11
319.0007264958003
 21
1083.682472458747
 31
0.0
 11
317.0602564510991
 21
1072.477858664128
 31
0.0
 11
318.1383026303592
 21
1053.085249780238
 31
0.0
  0
SPLINE
  5
9C7
330
1F
100
AcDbEntity
  8
ceco.net 127
100
AcDbSpline
210
0.0
220
0.0
230
1.0
 70
     8
 71
     3
 72
     9
 73
     5
 74
     3
 42
0.0000000001
 43
0.0000000001
 44
0.0000000001
 40
0.0
 40
0.0
 40
0.0
 40
0.0
 40
8.583535303959445
 40
23.04661957987339
 40
23.04661957987339
 40
23.04661957987339
 40
23.04661957987339
 10
327.8406201591205
 20
1094.025195194703
 30
0.0
 10
330.6412377068364
 20
1094.802045903037
 30
0.0
 10
338.1608394705933
 20
1096.887874423721
 30
0.0
 10
345.7295550739396
 20
1094.599426997981
 30
0.0
 10
350.4793610596825
 20
1093.163294125445
 30
0.0
 11
327.8406201591205
 21
1094.025195194703
 31
0.0
 11
336.2492855422933
 21
1095.748977312069
 31
0.0
 11
350.4793610596825
 21
1093.163294125445
 31
0.0
  0
SPLINE
  5
9C8
330
1F
100
AcDbEntity
  8
ceco.net 127
100
AcDbSpline
210
0.0
220
0.0
230
1.0
 70
     8
 71
     3
 72
     9
 73
     5
 74
     0
 42
0.0000000001
 43
0.0000000001
 40
0.0
 40
0.0
 40
0.0
 40
0.0
 40
1.340403162724616
 40
3.111734168657791
 40
3.111734168657791
 40
3.111734168657791
 40
3.111734168657791
 10
305.2018792585604
 20
1097.688237199391
 30
0.0
 10
301.3289849575339
 20
1100.049033466789
 30
0.0
 10
292.3380948556077
 20
1105.529601265146
 30
0.0
 10
282.0553270735217
 20
1106.517287868881
 30
0.0
 10
276.0411803346869
 20
1106.520433298867
 30
0.0
  0
SPLINE
  5
9C9
330
1F
100
AcDbEntity
  8
ceco.net 127
100
AcDbSpline
210
0.0
220
0.0
230
1.0
 70
     8
 71
     3
 72
     8
 73
     4
 74
     0
 42
0.0000000001
 43
0.0000000001
 40
4.129439791321766
 40
4.129439791321766
 40
4.129439791321766
 40
4.129439791321766
 40
4.216061342012758
 40
4.216061342012758
 40
4.216061342012758
 40
4.216061342012758
 10
265.5647290646338
 20
1106.142269565965
 30
0.0
 10
265.2657545013425
 20
1106.125482974818
 30
0.0
 10
264.9667497831833
 20
1106.1085915114
 30
0.0
 10
264.6677450649113
 20
1106.091700048012
 30
0.0
  0
SPLINE
  5
9CA
330
1F
100
AcDbEntity
  8
ceco.net 127
100
AcDbSpline
210
0.0
220
0.0
230
1.0
 70
     8
 71
     3
 72
    16
 73
    12
 74
     0
 42
0.0000000001
 43
0.0000000001
 40
0.0
 40
0.0
 40
0.0
 40
0.0
 40
1.129086302207497
 40
2.863608945252735
 40
4.608983473977673
 40
5.506153146674364
 40
6.618260250372684
 40
10.08474629372372
 40
14.47377675629291
 40
17.69171179621694
 40
19.1240139863565
 40
19.1240139863565
 40
19.1240139863565
 40
19.1240139863565
 10
141.1579922882992
 20
596.0510134693631
 30
0.0
 10
144.6182268842894
 20
596.3614446446427
 30
0.0
 10
153.3941359732561
 20
597.1487657631942
 30
0.0
 10
172.1849169509805
 20
582.8831431160915
 30
0.0
 10
163.3978450222457
 20
617.5618005889591
 30
0.0
 10
181.1604763296363
 20
610.8728342142767
 30
0.0
 10
188.7918146544507
 20
642.2478829574911
 30
0.0
 10
211.1472828984224
 20
662.0361185674137
 30
0.0
 10
225.1992483821814
 20
692.0376775386075
 30
0.0
 10
245.2347240248382
 20
707.3061410155069
 30
0.0
 10
262.6035030600614
 20
713.4451060832279
 30
0.0
 10
273.5738768884621
 20
719.5091771023389
 30
0.0
  0
SPLINE
  5
9CB
330
1F
100
AcDbEntity
  8
ceco.net 127
100
AcDbSpline
210
0.0
220
0.0
230
1.0
 70
     8
 71
     3
 72
    20
 73
    16
 74
    14
 42
0.0000000001
 43
0.0000000001
 44
0.0000000001
 40
0.0
 40
0.0
 40
0.0
 40
0.0
 40
19.49111776863724
 40
52.82757954705129
 40
84.2119139641432
 40
104.8030748653855
 40
118.4462186058373
 40
131.3995319682964
 40
132.0812569303745
 40
137.1470403352701
 40
145.4654651310834
 40
152.1587482820051
 40
157.0023138601915
 40
160.9899796640578
 40
167.7698269649276
 40
167.7698269649276
 40
167.7698269649276
 40
167.7698269649276
 10
266.9557378870868
 20
541.3233026394691
 30
0.0
 10
260.6993606166113
 20
543.0308123505631
 30
0.0
 10
243.742443529782
 20
547.6587462721015
 30
0.0
 10
216.7011440621676
 20
556.5593019104024
 30
0.0
 10
189.6494115493764
 20
560.6488210621271
 30
0.0
 10
165.0212293510656
 20
561.6371576426464
 30
0.0
 10
155.9112667869101
 20
566.8668137289407
 30
0.0
 10
133.4895083769363
 20
566.1894288647418
 30
0.0
 10
140.9448601458342
 20
565.8909279494659
 30
0.0
 10
130.547396958506
 20
571.3976547943165
 30
0.0
 10
144.4459345716698
 20
575.2462181993744
 30
0.0
 10
136.2123775461049
 20
583.3457026098222
 30
0.0
 10
143.0430964725246
 20
585.3884171183169
 30
0.0
 10
144.5887997146112
 20
590.9219652445651
 30
0.0
 10
142.4835677555732
 20
594.0692815758403
 30
0.0
 10
141.1579922882992
 20
596.0510134693631
 30
0.0
 11
266.9557378870868
 21
541.3233026394691
 31
0.0
 11
248.1857138332088
 21
546.5759085534637
 31
0.0
 11
216.1432929080983
 21
555.7738944830953
 31
0.0
 11
185.1234594261077
 21
560.5432107394817
 31
0.0
 11
164.6708480311644
 21
562.9278688676604
 31
0.0
 11
151.3766721876654
 21
565.9938531736798
 31
0.0
 11
138.4233588252063
 21
565.9938531736798
 31
0.0
 11
139.1050837872844
 21
565.9938531736798
 31
0.0
 11
135.6962972520232
 21
569.7411636575252
 31
0.0
 11
140.4685876196927
 21
576.5544914589927
 31
0.0
 11
138.7642213062463
 21
583.0271396657162
 31
0.0
 11
142.5138703225456
 21
586.0931239717356
 31
0.0
 11
143.8773741549521
 21
589.840434455581
 31
0.0
 11
141.1579922882992
 21
596.0510134693631
 31
0.0
  0
SPLINE
  5
9CC
330
1F
100
AcDbEntity
  8
ceco.net 127
100
AcDbSpline
210
0.0
220
0.0
230
1.0
 70
     8
 71
     3
 72
    13
 73
     9
 74
     0
 42
0.0000000001
 43
0.0000000001
 40
0.0
 40
0.0
 40
0.0
 40
0.0
 40
1.417978447372917
 40
4.733184910450295
 40
9.510014347775673
 40
11.72085053807855
 40
12.83888507625903
 40
14.74472447226636
 40
14.74472447226636
 40
14.74472447226636
 40
14.74472447226636
 10
276.2492135401535
 20
949.2726912378939
 30
0.0
 10
271.4443576147678
 20
949.1636671112074
 30
0.0
 10
255.4058405239629
 20
948.7997466634542
 30
0.0
 10
230.2412876433663
 20
921.5934110246172
 30
0.0
 10
228.5238444004553
 20
890.9509909743455
 30
0.0
 10
226.7086367323827
 20
855.6761628456689
 30
0.0
 10
246.845604799204
 20
855.2172768429928
 30
0.0
 10
256.3119937931332
 20
857.7725813436382
 30
0.0
 10
262.2359088716148
 20
859.4383244995633
 30
0.0
  0
SPLINE
  5
9CD
330
1F
100
AcDbEntity
  8
ceco.net 127
100
AcDbSpline
210
0.0
220
0.0
230
1.0
 70
     8
 71
     3
 72
     9
 73
     5
 74
     0
 42
0.0000000001
 43
0.0000000001
 40
3.621137739913085
 40
3.621137739913085
 40
3.621137739913085
 40
3.621137739913085
 40
8.998851581086269
 40
11.32523967000115
 40
11.32523967000115
 40
11.32523967000115
 40
11.32523967000115
 10
267.4598242696211
 20
798.1418265623424
 30
0.0
 10
271.3384225640984
 20
780.2937127024733
 30
0.0
 10
273.3739054947363
 20
753.3021625257979
 30
0.0
 10
262.8763342723905
 20
729.8689090900015
 30
0.0
 10
259.3212262046327
 20
722.9021875744756
 30
0.0
  0
SPLINE
  5
9CE
330
1F
100
AcDbEntity
  8
ceco.net 127
100
AcDbSpline
210
0.0
220
0.0
230
1.0
 70
     8
 71
     3
 72
    17
 73
    13
 74
     0
 42
0.0000000001
 43
0.0000000001
 40
1.602755551023876
 40
1.602755551023876
 40
1.602755551023876
 40
1.602755551023876
 40
7.333884143871582
 40
14.25643334111328
 40
35.2622557942794
 40
65.48151928625557
 40
88.71397431390713
 40
103.824002724132
 40
111.4928829567779
 40
119.1885454176365
 40
127.1634465986468
 40
135.8237500394162
 40
135.8237500394162
 40
135.8237500394162
 40
135.8237500394162
 10
353.0597180456425
 20
141.8920735492438
 30
0.0
 10
351.8333244602436
 20
146.7009931991606
 30
0.0
 10
348.9692774700179
 20
157.2736856481069
 30
0.0
 10
337.1500580983592
 20
184.1922551289771
 30
0.0
 10
300.304799272566
 20
219.875074714977
 30
0.0
 10
265.0537176860998
 20
273.9688359281726
 30
0.0
 10
240.4199255735184
 20
328.7540970950431
 30
0.0
 10
235.8913743679513
 20
368.8093287595957
 30
0.0
 10
236.3739594767357
 20
395.0246085249064
 30
0.0
 10
229.125744591669
 20
415.4749236821262
 30
0.0
 10
208.9237335909492
 20
425.1952051053677
 30
0.0
 10
194.6899307956737
 20
427.4988461975226
 30
0.0
 10
187.2302236064333
 20
428.1874413027963
 30
0.0
  0
SPLINE
  5
9CF
330
1F
100
AcDbEntity
  8
ceco.net 127
100
AcDbSpline
210
0.0
220
0.0
230
1.0
 70
     8
 71
     3
 72
    15
 73
    11
 74
     0
 42
0.0000000001
 43
0.0000000001
 40
0.2989334951142796
 40
0.2989334951142796
 40
0.2989334951142796
 40
0.2989334951142796
 40
2.883030635571201
 40
5.141223236924047
 40
14.47352390022422
 40
25.41246209252785
 40
29.3738931388538
 40
38.75640143261763
 40
57.03616157853918
 40
71.41818886068233
 40
71.41818886068233
 40
71.41818886068233
 40
71.41818886068233
 10
391.9121509067045
 20
823.4450088775984
 30
0.0
 10
390.5341275949467
 20
821.6129211270136
 30
0.0
 10
387.8706188255582
 20
818.2873201111533
 30
0.0
 10
375.7751380014706
 20
814.2401567150164
 30
0.0
 10
356.1716858231411
 20
820.15743615058
 30
0.0
 10
335.4554442661301
 20
818.2238216186297
 30
0.0
 10
313.914829850546
 20
819.1580904498469
 30
0.0
 10
293.2877827181509
 20
839.8745896588616
 30
0.0
 10
263.1841218220634
 20
859.2343730502697
 30
0.0
 10
238.7872115322116
 20
873.3964535629612
 30
0.0
 10
227.9474622245052
 20
879.5482857206307
 30
0.0
  0
SPLINE
  5
9D0
330
1F
100
AcDbEntity
  8
ceco.net 127
100
AcDbSpline
210
0.0
220
0.0
230
1.0
 70
     8
 71
     3
 72
    20
 73
    16
 74
     0
 42
0.0000000001
 43
0.0000000001
 40
0.0
 40
0.0
 40
0.0
 40
0.0
 40
2.389871845392102
 40
6.052989069541916
 40
9.786811820262032
 40
14.46058987808454
 40
19.08711436734597
 40
21.62200496524713
 40
23.12972447307455
 40
25.1034431263651
 40
29.17195907210178
 40
32.49086647053521
 40
36.70145567175963
 40
41.75979695928893
 40
50.88413750019643
 40
50.88413750019643
 40
50.88413750019643
 40
50.88413750019643
 10
363.630311468909
 20
892.9758167095796
 30
0.0
 10
356.5649765115486
 20
896.648718358122
 30
0.0
 10
338.6701277347565
 20
905.9513232550953
 30
0.0
 10
309.283898591615
 20
920.3378822145104
 30
0.0
 10
277.6469886524628
 20
945.7870389056925
 30
0.0
 10
248.3312553578107
 20
977.3936056190278
 30
0.0
 10
219.7716792859391
 20
1006.250251876182
 30
0.0
 10
192.3386990645194
 20
1015.85281809406
 30
0.0
 10
171.0677192652365
 20
1017.215476805972
 30
0.0
 10
152.5821771724622
 20
997.3918275794776
 30
0.0
 10
133.9901346555052
 20
973.255197393043
 30
0.0
 10
118.8625484624026
 20
936.794438250431
 30
0.0
 10
116.8190320373687
 20
894.1712094678141
 30
0.0
 10
86.93598282161474
 20
839.3470097252729
 30
0.0
 10
64.39045070135216
 20
798.1093258311347
 30
0.0
 10
49.6693251175202
 20
771.5911004927284
 30
0.0
  0
SPLINE
  5
9D1
330
1F
100
AcDbEntity
  8
ceco.net 127
100
AcDbSpline
210
0.0
220
0.0
230
1.0
 70
     8
 71
     3
 72
     9
 73
     5
 74
     3
 42
0.0000000001
 43
0.0000000001
 44
0.0000000001
 40
0.0
 40
0.0
 40
0.0
 40
0.0
 40
53.98846826935324
 40
69.80883626595318
 40
69.80883626595318
 40
69.80883626595318
 40
69.80883626595318
 10
268.1808684706084
 20
1119.057255239099
 30
0.0
 10
264.2030703521052
 20
1100.27488639152
 30
0.0
 10
259.059648683459
 20
1075.988675769173
 30
0.0
 10
271.1788318114451
 20
1055.686017895639
 30
0.0
 10
273.9253313544613
 20
1051.084945366014
 30
0.0
 11
268.1808684706084
 21
1119.057255239099
 31
0.0
 11
266.572414285747
 21
1065.092752265328
 31
0.0
 11
273.9253313544613
 21
1051.084945366014
 31
0.0
  0
SPLINE
  5
9D2
330
1F
100
AcDbEntity
  8
ceco.net 127
100
AcDbSpline
210
0.0
220
0.0
230
1.0
 70
     8
 71
     3
 72
    12
 73
     8
 74
     6
 42
0.0000000001
 43
0.0000000001
 44
0.0000000001
 12
0.6371163379587551
 22
0.770767651050578
 32
0.0
 40
0.0
 40
0.0
 40
0.0
 40
0.0
 40
16.43249643063791
 40
42.94957320331204
 40
67.89505276510627
 40
90.23216133583661
 40
110.8284551277808
 40
110.8284551277808
 40
110.8284551277808
 40
110.8284551277808
 10
268.7780719859329
 20
1196.628061166123
 30
0.0
 10
272.267875969069
 20
1200.849940057703
 30
0.0
 10
241.9607424999839
 20
1195.083922337537
 30
0.0
 10
229.3502129260845
 20
1188.023763128435
 30
0.0
 10
211.4591749633384
 20
1167.516355527549
 30
0.0
 10
200.2869741864712
 20
1148.264704734176
 30
0.0
 10
195.8071901068688
 20
1134.574074075793
 30
0.0
 10
193.6581186624825
 20
1128.006314808658
 30
0.0
 11
268.7780719859329
 21
1196.628061166123
 31
0.0
 11
252.345575555295
 21
1196.628061166123
 31
0.0
 11
228.2837110362816
 21
1185.484361760784
 31
0.0
 11
211.8512309531288
 21
1166.716022759032
 31
0.0
 11
200.7006147973697
 21
1147.361173789136
 31
0.0
 11
193.6581186624825
 21
1128.006314808658
 31
0.0
  0
SPLINE
  5
9D3
330
1F
100
AcDbEntity
  8
ceco.net 127
100
AcDbSpline
210
0.0
220
0.0
230
1.0
 70
     8
 71
     3
 72
    15
 73
    11
 74
     9
 42
0.0000000001
 43
0.0000000001
 44
0.0000000001
 40
0.0
 40
0.0
 40
0.0
 40
0.0
 40
24.3164202547889
 40
61.47696176194836
 40
114.8969189610384
 40
134.3160294823189
 40
176.5916943741445
 40
230.1220319001783
 40
260.9484550347541
 40
285.0248065665336
 40
285.0248065665336
 40
285.0248065665336
 40
285.0248065665336
 10
276.9943120274547
 20
1207.771760571417
 30
0.0
 10
269.4940054844482
 20
1211.529096858296
 30
0.0
 10
250.5316724717797
 20
1221.028423519659
 30
0.0
 10
210.4668617187656
 20
1202.217180837994
 30
0.0
 10
196.2384374874576
 20
1166.991403826353
 30
0.0
 10
181.5160022024329
 20
1132.01457383101
 30
0.0
 10
152.4910203163011
 20
1100.598009256762
 30
0.0
 10
173.6397462824931
 20
1056.114337341615
 30
0.0
 10
159.2443242274138
 20
1020.221620269657
 30
0.0
 10
144.8181690405566
 20
1008.712939286856
 30
0.0
 10
138.4919098370555
 20
1003.66607142466
 30
0.0
 11
276.9943120274547
 21
1207.771760571417
 31
0.0
 11
254.1062077626738
 21
1215.982910136005
 31
0.0
 11
219.4805990413879
 21
1202.493170858105
 31
0.0
 11
191.8974864549891
 21
1156.745343290026
 31
0.0
 11
183.6812464133563
 21
1139.150024224548
 31
0.0
 11
163.1406299619575
 21
1102.199856189173
 31
0.0
 11
167.2487663302017
 21
1048.827389024622
 31
0.0
 11
156.0981338270721
 21
1020.088360543269
 31
0.0
 11
138.4919098370555
 21
1003.66607142466
 31
0.0
  0
SPLINE
  5
9D4
330
1F
100
AcDbEntity
  8
ceco.net 127
100
AcDbSpline
210
0.0
220
0.0
230
1.0
 70
     8
 71
     3
 72
    11
 73
     7
 74
     5
 42
0.0000000001
 43
0.0000000001
 44
0.0000000001
 40
0.0
 40
0.0
 40
0.0
 40
0.0
 40
20.89307358673812
 40
59.98826930068364
 40
82.80876898177618
 40
98.45931861605697
 40
98.45931861605697
 40
98.45931861605697
 40
98.45931861605697
 10
301.0561765463535
 20
1167.30253272719
 30
0.0
 10
294.974274502359
 20
1163.475100977207
 30
0.0
 10
277.5118951084962
 20
1152.485764937451
 30
0.0
 10
274.0406701281039
 20
1121.145724652355
 30
0.0
 10
249.0207422740347
 20
1106.899806098205
 30
0.0
 10
247.6296336600127
 20
1093.553185104262
 30
0.0
 10
247.0637116277866
 20
1088.123596932561
 30
0.0
 11
301.0561765463535
 21
1167.30253272719
 31
0.0
 11
284.6236801157138
 21
1154.399293406854
 31
0.0
 11
266.4305678250675
 21
1119.795175254651
 31
0.0
 11
250.5849596951739
 21
1103.372876125461
 31
0.0
 11
247.0637116277866
 21
1088.123596932561
 31
0.0
  0
SPLINE
  5
9D5
330
1F
100
AcDbEntity
  8
ceco.net 127
100
AcDbSpline
210
0.0
220
0.0
230
1.0
 70
     8
 71
     3
 72
    12
 73
     8
 74
     6
 42
0.0000000001
 43
0.0000000001
 44
0.0000000001
 40
0.0
 40
0.0
 40
0.0
 40
0.0
 40
24.47966815965187
 40
73.46898268609573
 40
121.1536421647616
 40
153.7332362971405
 40
172.4754436535433
 40
172.4754436535433
 40
172.4754436535433
 40
172.4754436535433
 10
273.4730639600675
 20
1176.100192259909
 30
0.0
 10
267.300797905954
 20
1170.565869458027
 30
0.0
 10
248.7764410843587
 20
1153.956123629001
 30
0.0
 10
240.4710536032845
 20
1111.826006516433
 30
0.0
 10
241.9562484612431
 20
1067.981444084763
 30
0.0
 10
258.2860829129787
 20
1038.657529949552
 30
0.0
 10
263.8220252376486
 20
1022.47792884332
 30
0.0
 10
265.8436958718084
 20
1016.569300734402
 30
0.0
 11
273.4730639600675
 21
1176.100192259909
 31
0.0
 11
256.4536955760559
 21
1158.50487319443
 31
0.0
 11
242.3687033061687
 21
1111.584025690063
 31
0.0
 11
246.4768396744148
 21
1064.076658206943
 31
0.0
 11
259.3880716901803
 21
1034.16461979988
 31
0.0
 11
265.8436958718084
 21
1016.569300734402
 31
0.0
  0
SPLINE
  5
9D6
330
1F
100
AcDbEntity
  8
ceco.net 127
100
AcDbSpline
210
0.0
220
0.0
230
1.0
 70
     8
 71
     3
 72
    18
 73
    14
 74
    12
 42
0.0000000001
 43
0.0000000001
 44
0.0000000001
 40
0.0
 40
0.0
 40
0.0
 40
0.0
 40
23.06230843574684
 40
35.76692707663893
 40
52.5460446187866
 40
64.4878448249363
 40
69.86939392271193
 40
91.19110588409018
 40
104.0882759912647
 40
129.5043459821133
 40
154.4258131528295
 40
168.396392979267
 40
180.678388924242
 40
180.678388924242
 40
180.678388924242
 40
180.678388924242
 10
343.4978734520646
 20
1044.755004325778
 30
0.0
 10
339.2529466803312
 20
1038.356824458945
 30
0.0
 10
332.6695646779067
 20
1028.434000238732
 30
0.0
 10
323.9854934747934
 20
1013.09582965935
 30
0.0
 10
314.3269445133497
 20
1003.276797588788
 30
0.0
 10
307.4950137344042
 20
993.7528277223774
 30
0.0
 10
295.5605226525168
 20
988.3372375554282
 30
0.0
 10
281.4699302771023
 20
989.1536463609309
 30
0.0
 10
263.1154455750857
 20
996.7483450469602
 30
0.0
 10
245.2403286052954
 20
1008.192490047352
 30
0.0
 10
229.2876486244578
 20
1022.873894455142
 30
0.0
 10
221.2453719093539
 20
1038.521411637367
 30
0.0
 10
221.116624328307
 20
1047.367602014152
 30
0.0
 10
221.0563911046374
 20
1051.506200652326
 30
0.0
 11
343.4978734520646
 21
1044.755004325778
 31
0.0
 11
331.0426196924236
 21
1025.345297368473
 31
0.0
 11
324.2872167397763
 21
1014.585563832838
 31
0.0
 11
313.5208137183544
 21
1001.716090204382
 31
0.0
 11
305.2876868041494
 21
993.0661067721329
 31
0.0
 11
300.4322450187828
 21
990.7453836605391
 31
0.0
 11
279.1105330574046
 21
990.7453836605391
 31
0.0
 11
267.0775001561196
 21
995.3868398943077
 31
0.0
 11
245.5446941130503
 21
1008.889242557955
 31
0.0
 11
228.0228881389794
 21
1026.611145428361
 31
0.0
 11
222.1119269028113
 21
1039.269646048552
 31
0.0
 11
221.0563911046374
 21
1051.506200652326
 31
0.0
  0
LINE
  5
9D7
330
1F
100
AcDbEntity
  8
ceco.net 127
100
AcDbLine
 10
388.932878878335
 20
816.3422715104779
 30
0.0
 11
387.359710268539
 21
818.674925766156
 31
0.0
  0
ENDSEC
  0
SECTION
  2
OBJECTS
  0
DICTIONARY
  5
C
330
0
100
AcDbDictionary
281
     1
  3
ACAD_GROUP
350
D
  3
ACAD_LAYOUT
350
1A
  3
ACAD_MLINESTYLE
350
17
  3
ACAD_PLOTSETTINGS
350
19
  3
ACAD_PLOTSTYLENAME
350
E
  3
AcDbVariableDictionary
350
115
  3
DWGPROPS
350
8E3
  0
DICTIONARY
  5
900
330
2
100
AcDbDictionary
280
     1
281
     1
  3
ACAD_LAYERFILTERS
360
9D8
  3
ACAD_LAYERSTATES
360
901
  0
DICTIONARY
  5
8F6
330
8F5
100
AcDbDictionary
280
     1
281
     1
  3
ACAD_XREC_ROUNDTRIP
360
8F7
  0
DICTIONARY
  5
D
102
{ACAD_REACTORS
330
C
102
}
330
C
100
AcDbDictionary
281
     1
  0
DICTIONARY
  5
1A
102
{ACAD_REACTORS
330
C
102
}
330
C
100
AcDbDictionary
281
     1
  3
Layout1
350
1E
  3
Layout2
350
26
  3
Model
350
22
  0
DICTIONARY
  5
17
102
{ACAD_REACTORS
330
C
102
}
330
C
100
AcDbDictionary
281
     1
  3
Standard
350
18
  0
DICTIONARY
  5
19
102
{ACAD_REACTORS
330
C
102
}
330
C
100
AcDbDictionary
281
     1
  0
ACDBDICTIONARYWDFLT
  5
E
102
{ACAD_REACTORS
330
C
102
}
330
C
100
AcDbDictionary
281
     1
  3
Normal
350
F
100
AcDbDictionaryWithDefault
340
F
  0
DICTIONARY
  5
115
102
{ACAD_REACTORS
330
C
102
}
330
C
100
AcDbDictionary
281
     1
  3
DIMASSOC
350
117
  3
HIDETEXT
350
116
  0
XRECORD
  5
8E3
102
{ACAD_REACTORS
330
C
102
}
330
C
100
AcDbXrecord
280
     1
  1
DWGPROPS COOKIE
  2
Ceco.NET-Trees-and-Plants - T - xx . 67 . dwg
  3

  4
ceco.net
  6

  7

  8
peacosta
  9

300
=
301
=
302
=
303
=
304
=
305
=
306
=
307
=
308
=
309
=
 40
0.0450312037037037
 41
2455079.811409143
 42
2455838.656599502
  1

 90
        0
  0
DICTIONARY
  5
9D8
102
{ACAD_REACTORS
330
900
102
}
330
900
100
AcDbDictionary
280
     1
281
     1
  0
DICTIONARY
  5
901
102
{ACAD_REACTORS
330
900
102
}
330
900
100
AcDbDictionary
281
     1
  0
XRECORD
  5
8F7
102
{ACAD_REACTORS
330
8F6
102
}
330
8F6
100
AcDbXrecord
280
     1
102
MATERIAL
340
0
  0
LAYOUT
  5
1E
102
{ACAD_REACTORS
330
1A
102
}
330
1A
100
AcDbPlotSettings
  1

  2
Microsoft Office Document Image Writer
  4

  6

 40
0.0
 41
0.0
 42
0.0
 43
0.0
 44
0.0
 45
0.0
 46
0.0
 47
0.0
 48
0.0
 49
0.0
140
0.0
141
0.0
142
1.0
143
1.0
 70
   688
 72
     0
 73
     0
 74
     5
  7

 75
    16
147
1.0
148
0.0
149
0.0
100
AcDbLayout
  1
Layout1
 70
     1
 71
     1
 10
0.0
 20
0.0
 11
420.0
 21
297.0
 12
0.0
 22
0.0
 32
0.0
 14
1.000000000000000E+20
 24
1.000000000000000E+20
 34
1.000000000000000E+20
 15
-1.000000000000000E+20
 25
-1.000000000000000E+20
 35
-1.000000000000000E+20
146
0.0
 13
0.0
 23
0.0
 33
0.0
 16
1.0
 26
0.0
 36
0.0
 17
0.0
 27
1.0
 37
0.0
 76
     0
330
1B
  0
LAYOUT
  5
26
102
{ACAD_REACTORS
330
1A
102
}
330
1A
100
AcDbPlotSettings
  1

  2
Microsoft Office Document Image Writer
  4

  6

 40
0.0
 41
0.0
 42
0.0
 43
0.0
 44
0.0
 45
0.0
 46
0.0
 47
0.0
 48
0.0
 49
0.0
140
0.0
141
0.0
142
1.0
143
1.0
 70
   688
 72
     0
 73
     0
 74
     5
  7

 75
    16
147
1.0
148
0.0
149
0.0
100
AcDbLayout
  1
Layout2
 70
     1
 71
     2
 10
0.0
 20
0.0
 11
12.0
 21
9.0
 12
0.0
 22
0.0
 32
0.0
 14
0.0
 24
0.0
 34
0.0
 15
0.0
 25
0.0
 35
0.0
146
0.0
 13
0.0
 23
0.0
 33
0.0
 16
1.0
 26
0.0
 36
0.0
 17
0.0
 27
1.0
 37
0.0
 76
     0
330
23
  0
LAYOUT
  5
22
102
{ACAD_REACTORS
330
1A
102
}
330
1A
100
AcDbPlotSettings
  1

  2
Microsoft Office Document Image Writer
  4

  6

 40
0.0
 41
0.0
 42
0.0
 43
0.0
 44
0.0
 45
0.0
 46
0.0
 47
0.0
 48
0.0
 49
0.0
140
0.0
141
0.0
142
1.0
143
1.0
 70
  1712
 72
     0
 73
     0
 74
     0
  7

 75
     0
147
1.0
148
0.0
149
0.0
100
AcDbLayout
  1
Model
 70
     1
 71
     0
 10
0.0
 20
0.0
 11
12.0
 21
9.0
 12
0.0
 22
0.0
 32
0.0
 14
0.0
 24
0.0
 34
0.0
 15
0.0
 25
0.0
 35
0.0
146
0.0
 13
0.0
 23
0.0
 33
0.0
 16
1.0
 26
0.0
 36
0.0
 17
0.0
 27
1.0
 37
0.0
 76
     0
330
1F
  0
MLINESTYLE
  5
18
102
{ACAD_REACTORS
330
17
102
}
330
17
100
AcDbMlineStyle
  2
STANDARD
 70
     0
  3

 62
   256
 51
90.0
 52
90.0
 71
     2
 49
0.5
 62
   256
  6
BYLAYER
 49
-0.5
 62
   256
  6
BYLAYER
  0
ACDBPLACEHOLDER
  5
F
102
{ACAD_REACTORS
330
E
102
}
330
E
  0
DICTIONARYVAR
  5
117
102
{ACAD_REACTORS
330
115
102
}
330
115
100
DictionaryVariables
280
     0
  1
2
  0
DICTIONARYVAR
  5
116
102
{ACAD_REACTORS
330
115
102
}
330
115
100
DictionaryVariables
280
     0
  1
1
  0
ENDSEC
  0
EOF
