  0
SECTION
  2
HEADER
  9
$ACADVER
  1
AC1015
  9
$ACADMAINTVER
 70
    13
  9
$DWGCODEPAGE
  3
ANSI_1252
  9
$INSBASE
 10
0.0
 20
0.0
 30
0.0
  9
$EXTMIN
 10
-208.698973719695
 20
-0.0521797070423418
 30
-0.0015258207003583
  9
$EXTMAX
 10
305.0483729674144
 20
1710.007285250102
 30
0.0000000349246037
  9
$LIMMIN
 10
0.0
 20
0.0
  9
$LIMMAX
 10
420.0
 20
297.0
  9
$ORTHOMODE
 70
     0
  9
$REGENMODE
 70
     1
  9
$FILLMODE
 70
     1
  9
$QTEXTMODE
 70
     0
  9
$MIRRTEXT
 70
     1
  9
$LTSCALE
 40
1.0
  9
$ATTMODE
 70
     1
  9
$TEXTSIZE
 40
2.5
  9
$TRACEWID
 40
1.0
  9
$TEXTSTYLE
  7
Standard
  9
$CLAYER
  8
ceco.net 136
  9
$CELTYPE
  6
ByLayer
  9
$CECOLOR
 62
   256
  9
$CELTSCALE
 40
1.0
  9
$DISPSILH
 70
     0
  9
$DIMSCALE
 40
1.0
  9
$DIMASZ
 40
2.5
  9
$DIMEXO
 40
0.625
  9
$DIMDLI
 40
3.75
  9
$DIMRND
 40
0.0
  9
$DIMDLE
 40
0.0
  9
$DIMEXE
 40
1.25
  9
$DIMTP
 40
0.0
  9
$DIMTM
 40
0.0
  9
$DIMTXT
 40
2.5
  9
$DIMCEN
 40
2.5
  9
$DIMTSZ
 40
0.0
  9
$DIMTOL
 70
     0
  9
$DIMLIM
 70
     0
  9
$DIMTIH
 70
     0
  9
$DIMTOH
 70
     0
  9
$DIMSE1
 70
     0
  9
$DIMSE2
 70
     0
  9
$DIMTAD
 70
     1
  9
$DIMZIN
 70
     8
  9
$DIMBLK
  1

  9
$DIMASO
 70
     1
  9
$DIMSHO
 70
     1
  9
$DIMPOST
  1

  9
$DIMAPOST
  1

  9
$DIMALT
 70
     0
  9
$DIMALTD
 70
     3
  9
$DIMALTF
 40
0.03937007874016
  9
$DIMLFAC
 40
1.0
  9
$DIMTOFL
 70
     1
  9
$DIMTVP
 40
0.0
  9
$DIMTIX
 70
     0
  9
$DIMSOXD
 70
     0
  9
$DIMSAH
 70
     0
  9
$DIMBLK1
  1

  9
$DIMBLK2
  1

  9
$DIMSTYLE
  2
ISO-25
  9
$DIMCLRD
 70
     0
  9
$DIMCLRE
 70
     0
  9
$DIMCLRT
 70
     0
  9
$DIMTFAC
 40
1.0
  9
$DIMGAP
 40
0.625
  9
$DIMJUST
 70
     0
  9
$DIMSD1
 70
     0
  9
$DIMSD2
 70
     0
  9
$DIMTOLJ
 70
     0
  9
$DIMTZIN
 70
     8
  9
$DIMALTZ
 70
     0
  9
$DIMALTTZ
 70
     0
  9
$DIMUPT
 70
     0
  9
$DIMDEC
 70
     2
  9
$DIMTDEC
 70
     2
  9
$DIMALTU
 70
     2
  9
$DIMALTTD
 70
     3
  9
$DIMTXSTY
  7
Standard
  9
$DIMAUNIT
 70
     0
  9
$DIMADEC
 70
     0
  9
$DIMALTRND
 40
0.0
  9
$DIMAZIN
 70
     0
  9
$DIMDSEP
 70
    44
  9
$DIMATFIT
 70
     3
  9
$DIMFRAC
 70
     0
  9
$DIMLDRBLK
  1

  9
$DIMLUNIT
 70
     2
  9
$DIMLWD
 70
    -2
  9
$DIMLWE
 70
    -2
  9
$DIMTMOVE
 70
     0
  9
$LUNITS
 70
     2
  9
$LUPREC
 70
     2
  9
$SKETCHINC
 40
1.0
  9
$FILLETRAD
 40
10.0
  9
$AUNITS
 70
     0
  9
$AUPREC
 70
     0
  9
$MENU
  1
.
  9
$ELEVATION
 40
0.0
  9
$PELEVATION
 40
0.0
  9
$THICKNESS
 40
0.0
  9
$LIMCHECK
 70
     0
  9
$CHAMFERA
 40
10.0
  9
$CHAMFERB
 40
10.0
  9
$CHAMFERC
 40
20.0
  9
$CHAMFERD
 40
0.0
  9
$SKPOLY
 70
     0
  9
$TDCREATE
 40
2455079.811409143
  9
$TDUCREATE
 40
2455079.936409144
  9
$TDUPDATE
 40
2456692.958705255
  9
$TDUUPDATE
 40
2456693.083705255
  9
$TDINDWG
 40
0.0475952662
  9
$TDUSRTIMER
 40
0.0475952662
  9
$USRTIMER
 70
     1
  9
$ANGBASE
 50
0.0
  9
$ANGDIR
 70
     0
  9
$PDMODE
 70
     0
  9
$PDSIZE
 40
0.0
  9
$PLINEWID
 40
0.0
  9
$SPLFRAME
 70
     0
  9
$SPLINETYPE
 70
     6
  9
$SPLINESEGS
 70
     8
  9
$HANDSEED
  5
A2A
  9
$SURFTAB1
 70
     6
  9
$SURFTAB2
 70
     6
  9
$SURFTYPE
 70
     6
  9
$SURFU
 70
     6
  9
$SURFV
 70
     6
  9
$UCSBASE
  2

  9
$UCSNAME
  2

  9
$UCSORG
 10
0.0
 20
0.0
 30
0.0
  9
$UCSXDIR
 10
1.0
 20
0.0
 30
0.0
  9
$UCSYDIR
 10
0.0
 20
1.0
 30
0.0
  9
$UCSORTHOREF
  2

  9
$UCSORTHOVIEW
 70
     0
  9
$UCSORGTOP
 10
0.0
 20
0.0
 30
0.0
  9
$UCSORGBOTTOM
 10
0.0
 20
0.0
 30
0.0
  9
$UCSORGLEFT
 10
0.0
 20
0.0
 30
0.0
  9
$UCSORGRIGHT
 10
0.0
 20
0.0
 30
0.0
  9
$UCSORGFRONT
 10
0.0
 20
0.0
 30
0.0
  9
$UCSORGBACK
 10
0.0
 20
0.0
 30
0.0
  9
$PUCSBASE
  2

  9
$PUCSNAME
  2

  9
$PUCSORG
 10
0.0
 20
0.0
 30
0.0
  9
$PUCSXDIR
 10
1.0
 20
0.0
 30
0.0
  9
$PUCSYDIR
 10
0.0
 20
1.0
 30
0.0
  9
$PUCSORTHOREF
  2

  9
$PUCSORTHOVIEW
 70
     0
  9
$PUCSORGTOP
 10
0.0
 20
0.0
 30
0.0
  9
$PUCSORGBOTTOM
 10
0.0
 20
0.0
 30
0.0
  9
$PUCSORGLEFT
 10
0.0
 20
0.0
 30
0.0
  9
$PUCSORGRIGHT
 10
0.0
 20
0.0
 30
0.0
  9
$PUCSORGFRONT
 10
0.0
 20
0.0
 30
0.0
  9
$PUCSORGBACK
 10
0.0
 20
0.0
 30
0.0
  9
$USERI1
 70
     0
  9
$USERI2
 70
     0
  9
$USERI3
 70
     0
  9
$USERI4
 70
     0
  9
$USERI5
 70
     0
  9
$USERR1
 40
0.0
  9
$USERR2
 40
0.0
  9
$USERR3
 40
0.0
  9
$USERR4
 40
0.0
  9
$USERR5
 40
0.0
  9
$WORLDVIEW
 70
     1
  9
$SHADEDGE
 70
     3
  9
$SHADEDIF
 70
    70
  9
$TILEMODE
 70
     1
  9
$MAXACTVP
 70
    64
  9
$PINSBASE
 10
0.0
 20
0.0
 30
0.0
  9
$PLIMCHECK
 70
     0
  9
$PEXTMIN
 10
1.000000000000000E+20
 20
1.000000000000000E+20
 30
1.000000000000000E+20
  9
$PEXTMAX
 10
-1.000000000000000E+20
 20
-1.000000000000000E+20
 30
-1.000000000000000E+20
  9
$PLIMMIN
 10
0.0
 20
0.0
  9
$PLIMMAX
 10
420.0
 20
297.0
  9
$UNITMODE
 70
     0
  9
$VISRETAIN
 70
     1
  9
$PLINEGEN
 70
     0
  9
$PSLTSCALE
 70
     1
  9
$TREEDEPTH
 70
  3020
  9
$CMLSTYLE
  2
Standard
  9
$CMLJUST
 70
     0
  9
$CMLSCALE
 40
20.0
  9
$PROXYGRAPHICS
 70
     1
  9
$MEASUREMENT
 70
     1
  9
$CELWEIGHT
370
    -1
  9
$ENDCAPS
280
     0
  9
$JOINSTYLE
280
     0
  9
$LWDISPLAY
290
     0
  9
$INSUNITS
 70
     4
  9
$HYPERLINKBASE
  1

  9
$STYLESHEET
  1

  9
$XEDIT
290
     1
  9
$CEPSNTYPE
380
     0
  9
$PSTYLEMODE
290
     1
  9
$FINGERPRINTGUID
  2
{81085373-3A21-4932-80AA-8F6C3258C50C}
  9
$VERSIONGUID
  2
{381DD20C-7C85-4BF2-9A6A-435032A300BD}
  9
$EXTNAMES
290
     1
  9
$PSVPSCALE
 40
0.0
  9
$OLESTARTUP
290
     0
  0
ENDSEC
  0
SECTION
  2
CLASSES
  0
CLASS
  1
ACDBDICTIONARYWDFLT
  2
AcDbDictionaryWithDefault
  3
AutoCAD 2000
 90
        0
280
     0
281
     0
  0
CLASS
  1
ACDBPLACEHOLDER
  2
AcDbPlaceHolder
  3
AutoCAD 2000
 90
        0
280
     0
281
     0
  0
CLASS
  1
LAYOUT
  2
AcDbLayout
  3
AutoCAD 2000
 90
        0
280
     0
281
     0
  0
CLASS
  1
DICTIONARYVAR
  2
AcDbDictionaryVar
  3
AutoCAD 2000
 90
        0
280
     0
281
     0
  0
ENDSEC
  0
SECTION
  2
TABLES
  0
TABLE
  2
VPORT
  5
8
330
0
100
AcDbSymbolTable
 70
     3
  0
VPORT
  5
A29
330
8
100
AcDbSymbolTableRecord
100
AcDbViewportTableRecord
  2
*Active
 70
     0
 10
0.0
 20
0.0
 11
1.0
 21
1.0
 12
48.17469962385985
 22
854.9775527715301
 13
0.0
 23
0.0
 14
10.0
 24
10.0
 15
10.0
 25
10.0
 16
0.0
 26
0.0
 36
1.0
 17
0.0
 27
0.0
 37
0.0
 40
1722.201899027846
 41
2.184834123222748
 42
50.0
 43
0.0
 44
0.0
 50
0.0
 51
0.0
 71
     0
 72
   100
 73
     1
 74
     3
 75
     0
 76
     0
 77
     0
 78
     0
281
     0
 65
     1
110
0.0
120
0.0
130
0.0
111
1.0
121
0.0
131
0.0
112
0.0
122
1.0
132
0.0
 79
     0
146
0.0
  0
ENDTAB
  0
TABLE
  2
LTYPE
  5
5
330
0
100
AcDbSymbolTable
 70
     1
  0
LTYPE
  5
14
330
5
100
AcDbSymbolTableRecord
100
AcDbLinetypeTableRecord
  2
ByBlock
 70
     0
  3

 72
    65
 73
     0
 40
0.0
  0
LTYPE
  5
15
330
5
100
AcDbSymbolTableRecord
100
AcDbLinetypeTableRecord
  2
ByLayer
 70
     0
  3

 72
    65
 73
     0
 40
0.0
  0
LTYPE
  5
16
330
5
100
AcDbSymbolTableRecord
100
AcDbLinetypeTableRecord
  2
Continuous
 70
     0
  3
Solid line
 72
    65
 73
     0
 40
0.0
  0
ENDTAB
  0
TABLE
  2
LAYER
  5
2
102
{ACAD_XDICTIONARY
360
901
102
}
330
0
100
AcDbSymbolTable
 70
     2
  0
LAYER
  5
10
330
2
100
AcDbSymbolTableRecord
100
AcDbLayerTableRecord
  2
0
 70
     0
 62
     7
  6
Continuous
370
    -3
390
F
  0
LAYER
  5
8F5
102
{ACAD_XDICTIONARY
360
8F6
102
}
330
2
100
AcDbSymbolTableRecord
100
AcDbLayerTableRecord
  2
ceco.net 136
 70
     0
 62
     7
  6
Continuous
370
    -3
390
F
1001
AcAecLayerStandard
1000

1000

  0
ENDTAB
  0
TABLE
  2
STYLE
  5
3
330
0
100
AcDbSymbolTable
 70
     1
  0
STYLE
  5
11
330
3
100
AcDbSymbolTableRecord
100
AcDbTextStyleTableRecord
  2
Standard
 70
     0
 40
0.0
 41
1.0
 50
0.0
 71
     0
 42
2.5
  3
txt
  4

  0
ENDTAB
  0
TABLE
  2
VIEW
  5
6
330
0
100
AcDbSymbolTable
 70
     0
  0
ENDTAB
  0
TABLE
  2
UCS
  5
7
330
0
100
AcDbSymbolTable
 70
     0
  0
ENDTAB
  0
TABLE
  2
APPID
  5
9
330
0
100
AcDbSymbolTable
 70
    13
  0
APPID
  5
12
330
9
100
AcDbSymbolTableRecord
100
AcDbRegAppTableRecord
  2
ACAD
 70
     0
  0
APPID
  5
2C
330
9
100
AcDbSymbolTableRecord
100
AcDbRegAppTableRecord
  2
ACAD_DSTYLE_DIMJOGGED_JOGANGLE_SYMBOL
 70
     0
  0
APPID
  5
11B
330
9
100
AcDbSymbolTableRecord
100
AcDbRegAppTableRecord
  2
ACAD_NAV_VCDISPLAY
 70
     0
  0
APPID
  5
11C
330
9
100
AcDbSymbolTableRecord
100
AcDbRegAppTableRecord
  2
ACAD_MLEADERVER
 70
     0
  0
APPID
  5
8F8
330
9
100
AcDbSymbolTableRecord
100
AcDbRegAppTableRecord
  2
ACAD_PSEXT
 70
     0
  0
APPID
  5
8F9
330
9
100
AcDbSymbolTableRecord
100
AcDbRegAppTableRecord
  2
ACAD_DSTYLE_DIMEXT_LENGTH
 70
     0
  0
APPID
  5
8FA
330
9
100
AcDbSymbolTableRecord
100
AcDbRegAppTableRecord
  2
ACAD_DSTYLE_DIMEXT_ENABLED
 70
     0
  0
APPID
  5
8FB
330
9
100
AcDbSymbolTableRecord
100
AcDbRegAppTableRecord
  2
ACAD_DSTYLE_DIMARC_LENGTH_SYMBOL
 70
     0
  0
APPID
  5
8FC
330
9
100
AcDbSymbolTableRecord
100
AcDbRegAppTableRecord
  2
AcAecLayerStandard
 70
     0
  0
APPID
  5
8FD
330
9
100
AcDbSymbolTableRecord
100
AcDbRegAppTableRecord
  2
ACAD_DSTYLE_DIM_LINETYPE
 70
     0
  0
APPID
  5
8FE
330
9
100
AcDbSymbolTableRecord
100
AcDbRegAppTableRecord
  2
ACAD_DSTYLE_DIM_EXT1_LINETYPE
 70
     0
  0
APPID
  5
8FF
330
9
100
AcDbSymbolTableRecord
100
AcDbRegAppTableRecord
  2
ACAD_DSTYLE_DIM_EXT2_LINETYPE
 70
     0
  0
APPID
  5
900
330
9
100
AcDbSymbolTableRecord
100
AcDbRegAppTableRecord
  2
ACAD_EXEMPT_FROM_CAD_STANDARDS
 70
     0
  0
ENDTAB
  0
TABLE
  2
DIMSTYLE
  5
A
330
0
100
AcDbSymbolTable
 70
     2
100
AcDbDimStyleTable
 71
     0
  0
DIMSTYLE
105
27
330
A
100
AcDbSymbolTableRecord
100
AcDbDimStyleTableRecord
  2
ISO-25
 70
     0
 41
2.5
 42
0.625
 43
3.75
 44
1.25
 73
     0
 74
     0
 77
     1
 78
     8
140
2.5
141
2.5
143
0.03937007874016
147
0.625
171
     3
172
     1
271
     2
272
     2
274
     3
278
    44
283
     0
284
     8
340
11
  0
DIMSTYLE
105
2B
330
A
100
AcDbSymbolTableRecord
100
AcDbDimStyleTableRecord
  2
Standard
 70
     0
340
11
  0
ENDTAB
  0
TABLE
  2
BLOCK_RECORD
  5
1
330
0
100
AcDbSymbolTable
 70
     2
  0
BLOCK_RECORD
  5
1F
330
1
100
AcDbSymbolTableRecord
100
AcDbBlockTableRecord
  2
*Model_Space
340
22
  0
BLOCK_RECORD
  5
1B
330
1
100
AcDbSymbolTableRecord
100
AcDbBlockTableRecord
  2
*Paper_Space
340
1E
  0
BLOCK_RECORD
  5
23
330
1
100
AcDbSymbolTableRecord
100
AcDbBlockTableRecord
  2
*Paper_Space0
340
26
  0
ENDTAB
  0
ENDSEC
  0
SECTION
  2
BLOCKS
  0
BLOCK
  5
20
330
1F
100
AcDbEntity
  8
0
100
AcDbBlockBegin
  2
*Model_Space
 70
     0
 10
0.0
 20
0.0
 30
0.0
  3
*Model_Space
  1

  0
ENDBLK
  5
21
330
1F
100
AcDbEntity
  8
0
100
AcDbBlockEnd
  0
BLOCK
  5
1C
330
1B
100
AcDbEntity
 67
     1
  8
0
100
AcDbBlockBegin
  2
*Paper_Space
 70
     0
 10
0.0
 20
0.0
 30
0.0
  3
*Paper_Space
  1

  0
ENDBLK
  5
1D
330
1B
100
AcDbEntity
 67
     1
  8
0
100
AcDbBlockEnd
  0
BLOCK
  5
24
330
23
100
AcDbEntity
  8
0
100
AcDbBlockBegin
  2
*Paper_Space0
 70
     0
 10
0.0
 20
0.0
 30
0.0
  3
*Paper_Space0
  1

  0
ENDBLK
  5
25
330
23
100
AcDbEntity
  8
0
100
AcDbBlockEnd
  0
ENDSEC
  0
SECTION
  2
ENTITIES
  0
LWPOLYLINE
  5
997
330
1F
100
AcDbEntity
  8
ceco.net 136
100
AcDbPolyline
 90
        8
 70
     0
 43
0.0
 10
125.8740411353755
 20
1593.634396750545
 10
119.1402654086459
 20
1598.210477335087
 10
113.3615647878514
 20
1601.585660305588
 10
108.1644860892083
 20
1603.681026197278
 10
102.5283351408461
 20
1604.905489000515
 10
98.20033755352142
 20
1605.470655641113
 10
92.38457517392362
 20
1605.332658185375
 10
89.8750953073204
 20
1605.035839755672
  0
LWPOLYLINE
  5
998
330
1F
100
AcDbEntity
  8
ceco.net 136
100
AcDbPolyline
 90
        8
 70
     0
 43
0.0
 10
119.3918239384856
 20
1580.423413911319
 10
115.6034090482762
 20
1585.076119484099
 10
111.43834969414
 20
1588.55880906232
 10
106.6729923028333
 20
1590.823631225873
 10
102.3842657397153
 20
1591.942895974412
 10
98.90804663837116
 20
1592.532204883895
 10
94.82811824034342
 20
1592.293454247567
 10
92.21693956385479
 20
1591.741650616143
  0
LWPOLYLINE
  5
999
330
1F
100
AcDbEntity
  8
ceco.net 136
100
AcDbPolyline
 90
        4
 70
     0
 43
0.0
 10
109.0147448463767
 20
1588.591855272937
 10
108.6003261644918
 20
1586.868057480927
 10
107.807665208611
 20
1585.454268779102
 10
105.8016746629846
 20
1584.251062612011
  0
LWPOLYLINE
  5
99A
330
1F
100
AcDbEntity
  8
ceco.net 136
100
AcDbPolyline
 90
        8
 70
     0
 43
0.0
 10
117.2360517541619
 20
1580.668918091618
 10
114.4901668268403
 20
1581.490787213724
 10
110.2684191877187
 20
1581.923136507811
 10
106.2082362916498
 20
1581.220982726023
 10
102.1354208843376
 20
1581.684804912811
 10
97.19427276843362
 20
1583.678984505951
 10
93.79915756824175
 20
1586.466865002634
 10
91.42979812884277
 20
1588.459313122754
  0
LWPOLYLINE
  5
99B
330
1F
100
AcDbEntity
  8
ceco.net 136
100
AcDbPolyline
 90
        5
 70
     0
 43
0.0
 10
174.9626318494392
 20
1587.414618802284
 10
171.1994640099874
 20
1588.255594046032
 10
166.5144664571016
 20
1588.667682941988
 10
160.1488307416047
 20
1588.179402292567
 10
154.7775411568181
 20
1587.044322136975
  0
LWPOLYLINE
  5
99C
330
1F
100
AcDbEntity
  8
ceco.net 136
100
AcDbPolyline
 90
       12
 70
     0
 43
0.0
 10
172.3390970443006
 20
1570.71678071523
 10
169.5852497194891
 20
1572.316260254297
 10
167.0040198113156
 20
1574.575064225896
 10
165.4203093412434
 20
1575.798386829148
 10
162.9650748832318
 20
1577.460970308848
 10
160.6509112631329
 20
1578.452295702874
 10
158.7032068126745
 20
1578.819404735114
 10
156.413458808629
 20
1578.958961432206
 10
153.4564338435302
 20
1578.567566169155
 10
150.626152731661
 20
1577.580108569435
 10
148.5026395847626
 20
1576.196796639081
 10
146.2493102809503
 20
1574.317887512222
  0
LWPOLYLINE
  5
99D
330
1F
100
AcDbEntity
  8
ceco.net 136
100
AcDbPolyline
 90
        8
 70
     0
 43
0.0
 10
168.9400465018024
 20
1568.362259827182
 10
164.423607706567
 20
1568.342981473705
 10
161.3057664013695
 20
1569.08624744166
 10
159.0775967760009
 20
1570.406874472794
 10
155.0244258668271
 20
1571.887634909458
 10
153.0017621230399
 20
1572.239491421015
 10
151.1281495868388
 20
1572.622257821905
 10
148.8541063981756
 20
1572.687498083837
  0
LWPOLYLINE
  5
99E
330
1F
100
AcDbEntity
  8
ceco.net 136
100
AcDbPolyline
 90
        4
 70
     0
 43
0.0
 10
153.3586567443308
 20
1577.924057260602
 10
152.62120957982
 20
1576.988924224863
 10
152.6109053096433
 20
1575.195254871772
 10
153.0088751136418
 20
1572.942064244131
  0
LWPOLYLINE
  5
99F
330
1F
100
AcDbEntity
  8
ceco.net 136
100
AcDbPolyline
 90
        4
 70
     0
 43
0.0
 10
163.5237600232812
 20
1575.553459845536
 10
162.9792872327016
 20
1573.335190863502
 10
162.4269710205226
 20
1571.893969295132
 10
160.7550436586961
 20
1570.216147488167
  0
LWPOLYLINE
  5
9A0
330
1F
100
AcDbEntity
  8
ceco.net 136
100
AcDbPolyline
 90
        3
 70
     0
 43
0.0
 10
98.81194667502768
 20
1589.690561747929
 10
98.35813799315928
 20
1587.413228851332
 10
98.96884564489027
 20
1584.893277524159
  0
LWPOLYLINE
  5
9A1
330
1F
100
AcDbEntity
  8
ceco.net 136
100
AcDbPolyline
 90
        6
 70
     0
 43
0.0
 10
105.6597958704514
 20
1590.305447596947
 10
101.8510439240571
 20
1590.799782354878
 10
98.06972839271566
 20
1590.624135659126
 10
94.4137788842454
 20
1589.851547312974
 10
90.211776746969
 20
1589.820493461658
 10
87.3059248865502
 20
1590.296840574751
  0
LWPOLYLINE
  5
9A2
330
1F
100
AcDbEntity
  8
ceco.net 136
100
AcDbPolyline
 90
        7
 70
     0
 43
0.0
 10
171.6784718930739
 20
1570.535416696785
 10
168.5183935437635
 20
1571.134483469123
 10
166.6349724405336
 20
1572.23330299449
 10
164.9637537811941
 20
1574.144496045619
 10
163.5175428168622
 20
1575.719767529136
 10
161.8703675138704
 20
1576.792052421637
 10
158.5684971095133
 20
1578.243373746701
  0
LWPOLYLINE
  5
9A3
330
1F
100
AcDbEntity
  8
ceco.net 136
100
AcDbPolyline
 90
       11
 70
     0
 43
0.0
 10
142.5612854427527
 20
1650.746172041166
 10
149.2685107399438
 20
1646.510310399236
 10
155.6214780757727
 20
1638.745405969871
 10
161.0584089368103
 20
1629.3736073018
 10
163.3604412060094
 20
1619.967470246976
 10
168.1732741843688
 20
1606.852570349374
 10
174.4931133771387
 20
1591.071885095402
 10
181.4371641481784
 20
1576.051838227002
 10
189.4175296561115
 20
1562.820549987876
 10
193.0325045537983
 20
1554.634078091936
 10
194.5422213208303
 20
1546.002715506531
  0
LWPOLYLINE
  5
9A4
330
1F
100
AcDbEntity
  8
ceco.net 136
100
AcDbPolyline
 90
        4
 70
     0
 43
0.0
 10
187.8631972665516
 20
1578.352019983924
 10
182.9812569474142
 20
1586.584822015154
 10
177.6385257099946
 20
1598.489085737313
 10
173.3732605957811
 20
1608.265519911213
  0
LWPOLYLINE
  5
9A5
330
1F
100
AcDbEntity
  8
ceco.net 136
100
AcDbPolyline
 90
        6
 70
     0
 43
0.0
 10
142.0257118804784
 20
1669.633039721404
 10
152.0368017921782
 20
1660.913798922621
 10
158.2167256877937
 20
1652.484186720542
 10
165.5310935235547
 20
1639.426227274199
 10
170.9865613687497
 20
1625.504921859018
 10
174.7965809270226
 20
1610.450131755683
  0
LWPOLYLINE
  5
9A6
330
1F
100
AcDbEntity
  8
ceco.net 136
100
AcDbPolyline
 90
       55
 70
     0
 43
0.0
 10
223.1753238837654
 20
1597.137874333199
 10
222.5925252254228
 20
1603.610181170324
 10
219.6000324281612
 20
1615.54000098873
 10
214.5900448014117
 20
1627.356958233619
 10
207.8448781567203
 20
1640.692238217866
 10
203.4039727450362
 20
1652.787079003956
 10
195.9619092490356
 20
1666.445604813262
 10
188.9856348765306
 20
1677.097153525593
 10
181.5946233260774
 20
1686.056008862621
 10
173.4447923101924
 20
1692.656607251947
 10
166.0089036034833
 20
1697.366036599305
 10
158.2026978321664
 20
1700.113378524548
 10
153.4289062517473
 20
1701.145429384425
 10
149.2333490430155
 20
1701.672123335441
 10
147.609296131236
 20
1704.155550915402
 10
146.8384949805567
 20
1708.54667464988
 10
142.8168485909964
 20
1709.737671525715
 10
137.9009127497283
 20
1709.955097580461
 10
134.0865542398432
 20
1708.677928966878
 10
130.5095206894293
 20
1707.764982520458
 10
128.4509881693338
 20
1708.586245280571
 10
121.6587154044646
 20
1709.50640141828
 10
114.6317145368129
 20
1707.079221003866
 10
107.5981583701377
 20
1702.452166654367
 10
102.8494590732407
 20
1701.134584702145
 10
91.82578512354666
 20
1697.549331354636
 10
79.68829062338045
 20
1691.058519957266
 10
66.54044104902823
 20
1680.428912270627
 10
59.76942110135041
 20
1673.815884272855
 10
53.8307679906893
 20
1665.49492432334
 10
46.01107111159308
 20
1652.693547981513
 10
39.65734275595877
 20
1638.160511616845
 10
34.50054349491438
 20
1625.089054020094
 10
30.78765944871975
 20
1614.411823303299
 10
28.0569418507639
 20
1602.057728679397
 10
24.58323121834382
 20
1588.761447589675
 10
23.88658328447945
 20
1577.936444176344
 10
22.66894033050448
 20
1576.265813376153
 10
16.89677536103317
 20
1566.409687264283
 10
9.89931208789585
 20
1555.666487112589
 10
6.216346145947682
 20
1547.822207055617
 10
3.816523704358587
 20
1538.364078494538
 10
1.163230817269322
 20
1522.506293492739
 10
-1.120906511573593
 20
1505.064420003193
 10
-4.149255901438664
 20
1489.664353746533
 10
-6.010895307099417
 20
1480.634025758945
 10
-3.56758615612307
 20
1472.042918357118
 10
-1.125377055814169
 20
1466.435241650714
 10
-2.667240891355504
 20
1464.067955719471
 10
-2.459834035676067
 20
1461.599227226784
 10
-1.769492483504109
 20
1459.0761074666
 10
0.0601188299924616
 20
1457.107223934229
 10
-0.6343001401774018
 20
1454.447918377709
 10
-0.6810257505094342
 20
1453.181764928217
 10
-0.363360168194049
 20
1451.678546124355
  0
LWPOLYLINE
  5
9A7
330
1F
100
AcDbEntity
  8
ceco.net 136
100
AcDbPolyline
 90
        4
 70
     0
 43
0.0
 10
17.7021547252707
 20
1459.108018219382
 10
6.434719492631302
 20
1452.958105766384
 10
-4.010601109939671
 20
1448.866932506916
 10
-10.87296229036383
 20
1447.88785847038
  0
LWPOLYLINE
  5
9A8
330
1F
100
AcDbEntity
  8
ceco.net 136
100
AcDbPolyline
 90
       78
 70
     0
 43
0.0
 10
-30.37625708179803
 20
1448.005706594642
 10
-38.68887933072073
 20
1450.174926065983
 10
-47.58813970420305
 20
1453.632901051193
 10
-53.26387608590721
 20
1454.474937850449
 10
-64.53315977250895
 20
1451.308297937586
 10
-81.62676042525163
 20
1445.96863308061
 10
-89.37575365121119
 20
1442.226114595783
 10
-96.18706288608791
 20
1436.547370086856
 10
-102.7590797314132
 20
1428.249012201675
 10
-114.0561841510816
 20
1408.117899850367
 10
-121.2896344068212
 20
1396.1791222507
 10
-128.9822650531959
 20
1382.776458387255
 10
-135.321034356707
 20
1369.659897352576
 10
-140.8047034447008
 20
1355.467759932295
 10
-146.2840461977066
 20
1335.309798590088
 10
-150.9987625892108
 20
1319.709809975435
 10
-155.8341088905308
 20
1306.911545820653
 10
-161.254244862107
 20
1292.418764639563
 10
-169.7092713833399
 20
1274.813839409034
 10
-178.7495885836278
 20
1252.175976254989
 10
-189.3902279973644
 20
1221.505805163772
 10
-198.5699736254673
 20
1195.069639816381
 10
-202.4607269328271
 20
1178.54511785508
 10
-204.9867825730871
 20
1169.799024247893
 10
-207.4352009603899
 20
1162.70555857487
 10
-208.5593063619626
 20
1158.135727330801
 10
-208.6797893988432
 20
1152.849303091556
 10
-206.5785264413761
 20
1142.539693434201
 10
-200.9771279475671
 20
1128.482781371858
 10
-194.3498898740472
 20
1113.282272388275
 10
-188.4114915966392
 20
1096.898118141823
 10
-185.6820084595938
 20
1086.179584028855
 10
-179.2831665710536
 20
1065.056410242476
 10
-173.4075542507298
 20
1050.438128600788
 10
-166.3148627349073
 20
1033.393923787528
 10
-154.8526724255907
 20
1007.852179206807
 10
-145.0030179248642
 20
988.7756898822459
 10
-134.7441023857527
 20
969.582776798191
 10
-128.8433543242035
 20
959.8178919786164
 10
-125.2198468993128
 20
952.0461014919447
 10
-119.7764564121825
 20
945.0300151528665
 10
-115.1641039995183
 20
940.189129254378
 10
-106.2640497851816
 20
932.0473296308904
 10
-98.3340260991099
 20
927.9075459101306
 10
-89.03330315331459
 20
926.6564391379858
 10
-77.36482413758949
 20
928.2559252976483
 10
-69.76817333656981
 20
928.6238181933583
 10
-62.96960180566202
 20
928.0808182390671
 10
-56.66280431785253
 20
925.1330688339294
 10
-52.99264146981386
 20
924.5065214328462
 10
-49.53793547588247
 20
918.8357925697943
 10
-46.02886979375853
 20
914.6392695593448
 10
-42.63494333667949
 20
912.430461372665
 10
-40.69696500539521
 20
907.3220188902269
 10
-37.26037890771749
 20
901.1598880762079
 10
-35.09808325611629
 20
898.1420673130173
 10
-34.48556603882479
 20
896.6864539702328
 10
-33.8137926936497
 20
894.0847158054765
 10
-32.80100507436145
 20
891.3121378224957
 10
-31.55861244806601
 20
890.0502110149943
 10
-30.11083804381087
 20
889.2592681480948
 10
-28.1038181930171
 20
888.7076650475762
 10
-27.4542994791318
 20
887.0769576792696
 10
-25.65378003862406
 20
887.2139575751134
 10
-23.46664914432494
 20
888.4072150216724
 10
-22.69627551470421
 20
889.6674930224293
 10
-23.35731775406202
 20
894.5270377020619
 10
-23.43284415621837
 20
897.1930216075492
 10
-23.36622995289872
 20
898.6092381206134
 10
-25.20205095891014
 20
904.9879021869884
 10
-26.45834048507822
 20
908.6241771918679
 10
-28.40191192615293
 20
915.2241515179326
 10
-30.58059682791736
 20
919.7623943680923
 10
-33.53628244497031
 20
923.6488658541617
 10
-37.55023388509926
 20
929.080254951117
 10
-40.12635316132673
 20
932.6393527822602
 10
-43.05990312275298
 20
935.5553564753762
 10
-45.08656627854179
 20
937.9313534796125
  0
LWPOLYLINE
  5
9A9
330
1F
100
AcDbEntity
  8
ceco.net 136
100
AcDbPolyline
 90
       30
 70
     0
 43
0.0
 10
-36.46023678732035
 20
937.8034210242276
 10
-33.30881258102635
 20
935.2992859256517
 10
-29.48974976470708
 20
931.6558454096366
 10
-21.85414719701839
 20
927.8437841660434
 10
-18.45523603924448
 20
927.3428282003237
 10
-17.69809916731901
 20
926.6494296581413
 10
-15.85817414081702
 20
923.137078743494
 10
-13.03724033937214
 20
918.7339700857251
 10
-9.728047981752752
 20
914.6175434351562
 10
-7.627381832662649
 20
911.8913583799184
 10
-5.282757673171545
 20
905.7872497988626
 10
-4.512472304440962
 20
902.7193449039856
 10
-2.257173083194174
 20
898.6842771101635
 10
0.0991172104249927
 20
896.1950247791605
 10
3.276781092722558
 20
895.5867350391599
 10
6.303303909248825
 20
895.9822302144573
 10
9.175193653391033
 20
897.6866081283532
 10
9.981807075405413
 20
899.9296900308877
 10
10.11828953676285
 20
902.458151240296
 10
8.914629053151656
 20
905.5568080602114
 10
6.994954628112282
 20
908.8693927320008
 10
5.469892460723713
 20
914.643241365411
 10
3.988339899819948
 20
919.6340523400294
 10
0.1916199756806236
 20
926.6346449552145
 10
-1.873687061447526
 20
931.5020948427985
 10
-4.313874790113914
 20
936.4120697607205
 10
-6.733582498895884
 20
939.5195889835719
 10
-10.25088693688758
 20
942.3122315896392
 10
-14.6463154394496
 20
944.0659064545968
 10
-21.44240710902067
 20
947.079642423688
  0
LWPOLYLINE
  5
9AA
330
1F
100
AcDbEntity
  8
ceco.net 136
100
AcDbPolyline
 90
        4
 70
     0
 43
0.0
 10
-33.11428682468431
 20
934.4934639898525
 10
-35.0316761363274
 20
934.3323548798139
 10
-37.4094419433959
 20
933.4640502635238
 10
-39.23546470900873
 20
931.408525006617
  0
LWPOLYLINE
  5
9AB
330
1F
100
AcDbEntity
  8
ceco.net 136
100
AcDbPolyline
 90
       29
 70
     0
 43
0.0
 10
-4.298291209806848
 20
937.2299447403378
 10
0.2203829964173565
 20
936.0510545417497
 10
1.852403179555039
 20
935.5425394747953
 10
2.597298837713424
 20
933.7490741896914
 10
5.975509488166608
 20
927.5746072669903
 10
9.367824275045677
 20
923.3534120392334
 10
10.85348085632631
 20
921.2289142163285
 10
11.62963160595609
 20
918.7104006119568
 10
14.392370695532
 20
912.3258822184538
 10
18.04032292841384
 20
907.1835636324152
 10
20.07935957499284
 20
904.7490142851444
 10
22.17589098870575
 20
903.4852619772806
 10
23.75865516034991
 20
903.2098302754718
 10
26.32217685390969
 20
903.2028229196811
 10
28.79531960513759
 20
903.9083696192875
 10
30.85569948780175
 20
905.9899963052089
 10
31.27505872726032
 20
908.3341555810733
 10
27.94944640481844
 20
918.2997502175425
 10
26.26239308983713
 20
922.8201402546432
 10
24.54332297918426
 20
929.2234765384677
 10
22.51915217379973
 20
932.4533996532551
 10
15.75113238845915
 20
942.5449318317475
 10
12.77809957127828
 20
948.8220786109593
 10
11.19706604561088
 20
951.1093343505763
 10
8.071150525438497
 20
952.3384668361103
 10
-4.675132781585489
 20
956.9602328693633
 10
-14.75144142420958
 20
959.054933686815
 10
-21.88303891421128
 20
962.7905897744994
 10
-25.72334340436555
 20
965.0879810706101
  0
LWPOLYLINE
  5
9AC
330
1F
100
AcDbEntity
  8
ceco.net 136
100
AcDbPolyline
 90
       26
 70
     0
 43
0.0
 10
-6.241849526873011
 20
957.7442729315777
 10
-5.757606730185216
 20
959.4928246826128
 10
-5.21824254076364
 20
961.5576843591071
 10
0.1120297882835075
 20
964.3297282841558
 10
8.484346804834785
 20
965.9772501456842
 10
14.05801536611761
 20
966.7281039696149
 10
19.148070557776
 20
965.731127200982
 10
23.96362000433782
 20
965.1637136846034
 10
25.13514471615962
 20
963.948566114567
 10
29.53720030438944
 20
961.5863846128434
 10
34.90102613955059
 20
959.0016303542938
 10
40.8149646837046
 20
957.5688524707004
 10
44.00673270254173
 20
958.9138344256298
 10
45.69472424418563
 20
961.8919122524687
 10
46.17820533633221
 20
964.7983619308035
 10
42.19638966799266
 20
968.3462417777519
 10
36.49292327725106
 20
973.1153489022403
 10
29.39845956109365
 20
975.5172918787593
 10
18.03169407014593
 20
980.2482573899595
 10
10.24572544270085
 20
982.748149539077
 10
7.095943621038713
 20
982.9359257798131
 10
3.586908653687714
 20
982.8037028912746
 10
-14.88772053187403
 20
978.1685129622417
 10
-22.55325958208231
 20
977.4384682432781
 10
-24.24365521301297
 20
977.9346472014651
 10
-25.00992482225683
 20
979.5406823523791
  0
LWPOLYLINE
  5
9AD
330
1F
100
AcDbEntity
  8
ceco.net 136
100
AcDbPolyline
 90
        2
 70
     0
 43
0.0
 10
-23.87081771291832
 20
1001.00784581437
 10
-24.0246086730167
 20
1003.15827824582
  0
LWPOLYLINE
  5
9AE
330
1F
100
AcDbEntity
  8
ceco.net 136
100
AcDbPolyline
 90
       36
 70
     0
 43
0.0
 10
-24.62954907480252
 20
994.9411381202111
 10
-26.36880356044457
 20
993.7624856294604
 10
-31.09231837856896
 20
990.1429301502275
 10
-34.49781260576401
 20
985.7655907711233
 10
-39.20819222867066
 20
980.929585021613
 10
-44.97009161320875
 20
977.0294272429254
 10
-55.63570768424597
 20
972.8264161826132
 10
-61.23886997625049
 20
970.4836888168841
 10
-67.46953430263147
 20
968.8017640296351
 10
-72.06958287883935
 20
968.9265570266485
 10
-76.96313777682917
 20
970.1479722555177
 10
-81.62083081094806
 20
973.4312771155657
 10
-84.81327227320889
 20
977.5723759836409
 10
-89.47251943106948
 20
987.5002225970916
 10
-93.5857753139544
 20
998.8844222503416
 10
-101.9644285375989
 20
1016.897272321187
 10
-112.0593173170618
 20
1042.520932670839
 10
-120.498899412837
 20
1072.860792073299
 10
-125.2046920290013
 20
1094.396444647173
 10
-131.2612778469883
 20
1123.056690501684
 10
-135.9887178783765
 20
1139.522657653657
 10
-139.2424293261456
 20
1149.751055982477
 10
-141.5745612475802
 20
1157.834562182969
 10
-139.971646238564
 20
1160.589986626888
 10
-129.9849612046273
 20
1178.294503907281
 10
-120.1352761145244
 20
1200.3358754379
 10
-107.9633463355094
 20
1229.105865383175
 10
-102.768970726629
 20
1241.525952412999
 10
-91.32498042458792
 20
1265.619859253803
 10
-80.71159679229822
 20
1286.263444031746
 10
-73.18570168138194
 20
1304.539536799495
 10
-68.36716857253577
 20
1315.693321412922
 10
-64.42320154792469
 20
1330.249390244248
 10
-62.72586028433124
 20
1342.147497214497
 10
-61.21608104592723
 20
1357.95948333579
 10
-60.72662034341647
 20
1365.23653109009
  0
LWPOLYLINE
  5
9AF
330
1F
100
AcDbEntity
  8
ceco.net 136
100
AcDbPolyline
 90
       17
 70
     0
 43
0.0
 10
-73.45593629179347
 20
1303.883291564162
 10
-71.22308942962263
 20
1300.487316420358
 10
-68.2193012096377
 20
1299.562325296975
 10
-65.14449337896621
 20
1297.561332008996
 10
-63.9185133054525
 20
1297.664551897853
 10
-59.48023762323373
 20
1302.500693946996
 10
-46.73695394399146
 20
1322.658637015535
 10
-34.59232231239184
 20
1345.653148851297
 10
-25.84250286986389
 20
1366.994516997849
 10
-22.33799957048177
 20
1380.677835575525
 10
-20.25759673574611
 20
1395.931687775387
 10
-21.36797904279319
 20
1410.043087848137
 10
-22.95592205325647
 20
1420.350602722919
 10
-26.22761528141381
 20
1436.561348064174
 10
-28.85189430060108
 20
1446.071713473159
 10
-30.15451897670118
 20
1447.870239916724
 10
-30.37625708179803
 20
1448.005706594642
  0
LWPOLYLINE
  5
9B0
330
1F
100
AcDbEntity
  8
ceco.net 136
100
AcDbPolyline
 90
       22
 70
     0
 43
0.0
 10
-34.69246791860314
 20
1449.132042943048
 10
-32.555091395011
 20
1450.528342539115
 10
-29.55578811088344
 20
1452.698990780447
 10
-22.94143661902126
 20
1453.405099881749
 10
-16.64443218840006
 20
1453.430121949281
 10
-13.48610042623477
 20
1450.486337301327
 10
-10.37812551339811
 20
1448.147111471087
 10
-8.37709837105649
 20
1444.497654832417
 10
-4.809713569216
 20
1432.344669868612
 10
0.7994200569783061
 20
1412.709065971924
 10
6.862852407607533
 20
1392.496039276793
 10
13.24346024739497
 20
1377.940952314915
 10
21.47053346152461
 20
1364.467138233862
 10
29.12894040650826
 20
1355.867096741832
 10
35.43202555249536
 20
1350.169569805629
 10
45.16390196022257
 20
1344.850797646444
 10
56.66560919155472
 20
1339.521973331244
 10
66.86978788377473
 20
1335.608693248076
 10
81.34178874570352
 20
1331.137526993572
 10
93.61234437005805
 20
1328.352580434867
 10
105.8250233465969
 20
1325.478944234063
 10
110.3486411819858
 20
1324.487540929425
  0
LWPOLYLINE
  5
9B1
330
1F
100
AcDbEntity
  8
ceco.net 136
100
AcDbPolyline
 90
        9
 70
     0
 43
0.0
 10
142.6538278288944
 20
1545.334141183659
 10
143.0128064695281
 20
1542.351644169215
 10
143.1345378263131
 20
1539.522509622912
 10
142.440019908463
 20
1537.337228594765
 10
140.8477887907793
 20
1536.184994518478
 10
139.7206527158232
 20
1536.694337276785
 10
138.7569610607215
 20
1537.714029570835
 10
137.2601547111571
 20
1537.39771909133
 10
135.1404694296434
 20
1536.813917946815
  0
LWPOLYLINE
  5
9B2
330
1F
100
AcDbEntity
  8
ceco.net 136
100
AcDbPolyline
 90
        5
 70
     0
 43
0.0
 10
124.09766115411
 20
1538.557926319072
 10
123.2981623220439
 20
1540.088126304155
 10
121.4887750794559
 20
1540.92910317722
 10
120.2660952603764
 20
1540.603085342027
 10
118.7585152608789
 20
1540.01218667473
  0
LWPOLYLINE
  5
9B3
330
1F
100
AcDbEntity
  8
ceco.net 136
100
AcDbPolyline
 90
        6
 70
     0
 43
0.0
 10
114.8366377183265
 20
1539.591574583255
 10
113.7702073376658
 20
1540.453694103902
 10
113.0634219845205
 20
1541.867036829756
 10
112.1437669123679
 20
1544.935136251936
 10
112.8027390427632
 20
1547.928663710038
 10
114.0346173951911
 20
1549.820504842202
  0
LWPOLYLINE
  5
9B4
330
1F
100
AcDbEntity
  8
ceco.net 136
100
AcDbPolyline
 90
       14
 70
     0
 43
0.0
 10
139.8213997689481
 20
1515.307123838411
 10
137.5987747695717
 20
1518.099874988195
 10
135.342219765107
 20
1521.700625875112
 10
132.6783668368989
 20
1524.331910256591
 10
129.6527870191539
 20
1525.459911735467
 10
126.7583750430958
 20
1525.323475958288
 10
124.4830660444904
 20
1525.794269261226
 10
123.2082496369457
 20
1526.680576801993
 10
120.6139914769437
 20
1527.695052013285
 10
117.7801662195179
 20
1527.911956001773
 10
112.844113860433
 20
1527.140575051589
 10
107.1961260691978
 20
1525.879385283701
 10
103.3011025260748
 20
1525.327998271976
 10
99.41976120853723
 20
1524.71186588103
  0
LWPOLYLINE
  5
9B5
330
1F
100
AcDbEntity
  8
ceco.net 136
100
AcDbPolyline
 90
       14
 70
     0
 43
0.0
 10
137.2755022428009
 20
1515.449012088652
 10
134.5785053574672
 20
1516.305914526583
 10
131.4676449940179
 20
1516.871859437813
 10
129.0556265990971
 20
1516.702091288053
 10
125.547612534433
 20
1516.572436723109
 10
123.5096697957942
 20
1516.889304554638
 10
120.9601152910408
 20
1517.37036821666
 10
118.6949505149641
 20
1518.11502854872
 10
116.4023023123945
 20
1518.989742642602
 10
114.2123928351566
 20
1520.022029509789
 10
111.1080197157434
 20
1521.201016861965
 10
108.0862158524951
 20
1521.989279925833
 10
105.0672015887812
 20
1522.438772425971
 10
103.0971595258733
 20
1522.430629199632
  0
LWPOLYLINE
  5
9B6
330
1F
100
AcDbEntity
  8
ceco.net 136
100
AcDbPolyline
 90
       14
 70
     0
 43
0.0
 10
140.404528523959
 20
1513.187753122139
 10
139.1131996256262
 20
1513.186588189498
 10
136.5450507681771
 20
1511.828119680501
 10
134.1511982908514
 20
1509.963037475472
 10
129.75408148327
 20
1507.606981520084
 10
123.6742615824368
 20
1506.458033857981
 10
119.7922125271588
 20
1507.13273172812
 10
113.0416598061856
 20
1508.832175168649
 10
109.0277351717077
 20
1512.06214055584
 10
105.4009389914654
 20
1515.713275386715
 10
103.4156802520556
 20
1518.352101065019
 10
102.3109144842919
 20
1520.361237579322
 10
101.2885989968026
 20
1521.980212808443
 10
99.10517676360086
 20
1523.625542116576
  0
LWPOLYLINE
  5
9B7
330
1F
100
AcDbEntity
  8
ceco.net 136
100
AcDbPolyline
 90
       22
 70
     0
 43
0.0
 10
135.6479487739079
 20
1654.296222379571
 10
130.3159451393867
 20
1653.474691892725
 10
122.8208095697027
 20
1653.725219449967
 10
116.5392117150076
 20
1652.091933923344
 10
108.1327784997938
 20
1647.971695708577
 10
100.5096824360407
 20
1640.144643784239
 10
94.34759390410363
 20
1629.262731917378
 10
91.85654864700154
 20
1620.787526105729
 10
88.91360144389182
 20
1605.286701912675
 10
84.50777974962875
 20
1587.540562180635
 10
82.12263921495832
 20
1574.705462885475
 10
79.18932210236562
 20
1559.566030783315
 10
79.18210846310103
 20
1547.539279284308
 10
77.06502057135367
 20
1533.435733560168
 10
74.09175713826243
 20
1524.349289495518
 10
70.1673869152728
 20
1516.385770119342
 10
65.72132693077037
 20
1508.867214939684
 10
59.41391854594257
 20
1500.604189962501
 10
51.5377309473024
 20
1494.455742929929
 10
40.93311352971795
 20
1489.157555815154
 10
34.15370696336594
 20
1486.502152414075
 10
28.60741881977446
 20
1483.801500248546
  0
LWPOLYLINE
  5
9B8
330
1F
100
AcDbEntity
  8
ceco.net 136
100
AcDbPolyline
 90
       14
 70
     0
 43
0.0
 10
50.49452079083494
 20
1573.655543314046
 10
43.97219846964617
 20
1563.512675499751
 10
35.15901913283414
 20
1553.599704460808
 10
27.52918025680628
 20
1548.216737463121
 10
18.71249987675582
 20
1542.175377893755
 10
11.54429635073483
 20
1537.50104871942
 10
8.116494769183191
 20
1532.496737114243
 10
8.260696066145101
 20
1524.57783289843
 10
8.78559500256415
 20
1515.82304806287
 10
11.23600589880879
 20
1508.08625269974
 10
13.70711859703988
 20
1500.251494762778
 10
14.94100372474349
 20
1491.034863895578
 10
14.46265928291268
 20
1484.615329124522
 10
12.6413015241269
 20
1481.173251903342
  0
LWPOLYLINE
  5
9B9
330
1F
100
AcDbEntity
  8
ceco.net 136
100
AcDbPolyline
 90
        7
 70
     0
 43
0.0
 10
67.94206461449903
 20
1562.973044906257
 10
65.69613054807632
 20
1549.963864806599
 10
62.41453450013523
 20
1533.168721205584
 10
58.99347826903067
 20
1518.483780454332
 10
55.21430892304124
 20
1507.901937191789
 10
51.62846856876512
 20
1501.233300226729
 10
46.47958969451337
 20
1496.171120169677
  0
LWPOLYLINE
  5
9BA
330
1F
100
AcDbEntity
  8
ceco.net 136
100
AcDbPolyline
 90
        5
 70
     0
 43
0.0
 10
38.25953681962346
 20
1549.057473368634
 10
35.40601812267141
 20
1537.957821176689
 10
36.26769894469816
 20
1525.197180267667
 10
39.83411972978956
 20
1508.320593426503
 10
41.92828700865902
 20
1502.750526813912
  0
LWPOLYLINE
  5
9BB
330
1F
100
AcDbEntity
  8
ceco.net 136
100
AcDbPolyline
 90
        5
 70
     0
 43
0.0
 10
27.6566699238856
 20
1541.823480519141
 10
20.86753249159301
 20
1538.248513456522
 10
16.09958920869303
 20
1532.349326773257
 10
14.07491787699655
 20
1526.010601638304
 10
16.5263308916792
 20
1516.337842385127
  0
LWPOLYLINE
  5
9BC
330
1F
100
AcDbEntity
  8
ceco.net 136
100
AcDbPolyline
 90
        7
 70
     0
 43
0.0
 10
70.0371157746531
 20
1631.747134789023
 10
65.27978903841358
 20
1617.595566660909
 10
59.42792092037052
 20
1603.314445334262
 10
50.46232706695263
 20
1583.993046682707
 10
44.6390221193269
 20
1572.469895181811
 10
37.43240558128491
 20
1564.11859552368
 10
24.36106218965505
 20
1553.611609770101
  0
LWPOLYLINE
  5
9BD
330
1F
100
AcDbEntity
  8
ceco.net 136
100
AcDbPolyline
 90
        7
 70
     0
 43
0.0
 10
17.98340945435938
 20
1557.257218385089
 10
25.55436892976103
 20
1566.296595685585
 10
29.08420149947232
 20
1572.749310325278
 10
33.0991213230618
 20
1583.177474809261
 10
36.92755564122762
 20
1596.419325323879
 10
43.78290255101546
 20
1615.600614798879
 10
50.43306892878263
 20
1626.585080878726
  0
LWPOLYLINE
  5
9BE
330
1F
100
AcDbEntity
  8
ceco.net 136
100
AcDbPolyline
 90
        4
 70
     0
 43
0.0
 10
54.10112414983814
 20
1625.628138345859
 10
50.15306407096886
 20
1614.398932955253
 10
46.46670783688477
 20
1597.110669008131
 10
43.08793835218693
 20
1580.294402222748
  0
LWPOLYLINE
  5
9BF
330
1F
100
AcDbEntity
  8
ceco.net 136
100
AcDbPolyline
 90
        5
 70
     0
 43
0.0
 10
80.16637680407256
 20
1633.989435720792
 10
72.73375895590561
 20
1617.539838244567
 10
66.63318348887514
 20
1599.130309453485
 10
63.36841550864846
 20
1588.04549979682
 10
60.66607633442799
 20
1573.818276675211
  0
LWPOLYLINE
  5
9C0
330
1F
100
AcDbEntity
  8
ceco.net 136
100
AcDbPolyline
 90
       13
 70
     0
 43
0.0
 10
166.6927432341935
 20
1516.875710208182
 10
161.5032592928855
 20
1507.810263713707
 10
157.0807092914492
 20
1501.678819154861
 10
152.3160139206538
 20
1496.341409834585
 10
142.1575478549357
 20
1488.650824980453
 10
133.1317888397052
 20
1483.79862370858
 10
125.573455047629
 20
1480.574558516494
 10
119.4760064863658
 20
1478.920785361978
 10
113.3905266391366
 20
1478.364668781821
 10
106.3777245407209
 20
1479.314680812478
 10
100.4425029974527
 20
1482.072758535679
 10
92.31227746397507
 20
1487.163612980808
 10
82.70313222169534
 20
1492.915317957383
  0
LWPOLYLINE
  5
9C1
330
1F
100
AcDbEntity
  8
ceco.net 136
100
AcDbPolyline
 90
        4
 70
     0
 43
0.0
 10
71.25469622667424
 20
1437.724620061331
 10
74.9138040150683
 20
1429.621580844724
 10
79.61365768687755
 20
1422.346618435398
 10
82.63252175186153
 20
1417.269563786817
  0
LWPOLYLINE
  5
9C2
330
1F
100
AcDbEntity
  8
ceco.net 136
100
AcDbPolyline
 90
        8
 70
     0
 43
0.0
 10
68.64882135550942
 20
1421.853329776254
 10
60.25344746456084
 20
1427.618040940728
 10
54.79765084237442
 20
1429.26173528312
 10
43.38308672424773
 20
1431.470041364946
 10
32.18441495209845
 20
1433.23757409253
 10
23.84012752941089
 20
1436.459352380822
 10
11.44973355178535
 20
1440.407028593782
 10
3.186229732023093
 20
1442.673085366138
  0
LWPOLYLINE
  5
9C3
330
1F
100
AcDbEntity
  8
ceco.net 136
100
AcDbPolyline
 90
        8
 70
     0
 43
0.0
 10
64.09137764364913
 20
1504.134613111716
 10
62.48462400606058
 20
1494.501189745108
 10
61.82928704913592
 20
1485.356426409367
 10
57.45466084431427
 20
1476.574926254698
 10
50.69878314657216
 20
1468.632360003653
 10
40.91980940154371
 20
1462.161209056802
 10
34.16014178810655
 20
1459.678774779362
 10
30.70166461168355
 20
1459.714270847541
  0
LWPOLYLINE
  5
9C4
330
1F
100
AcDbEntity
  8
ceco.net 136
100
AcDbPolyline
 90
        9
 70
     0
 43
0.0
 10
41.59477791085919
 20
1478.016746478047
 10
37.79842631161045
 20
1471.944702341332
 10
33.9819332417619
 20
1465.96426958672
 10
32.13539288231004
 20
1461.549959149024
 10
30.13370798396408
 20
1457.8698050111
 10
26.60559583034682
 20
1454.154095901884
 10
19.43085495190643
 20
1450.912872605599
 10
14.36497927738855
 20
1449.938201361504
 10
7.420440113264703
 20
1449.237010323003
  0
LWPOLYLINE
  5
9C5
330
1F
100
AcDbEntity
  8
ceco.net 136
100
AcDbPolyline
 90
        4
 70
     0
 43
0.0
 10
28.62679330530681
 20
1464.545587128597
 10
27.05654865997075
 20
1458.368765387902
 10
21.57296511677486
 20
1453.47346520603
 10
16.35357665202263
 20
1451.412395985656
  0
LWPOLYLINE
  5
9C6
330
1F
100
AcDbEntity
  8
ceco.net 136
100
AcDbPolyline
 90
        4
 70
     0
 43
0.0
 10
26.83277199855638
 20
1460.334110705091
 10
24.60124284687026
 20
1460.915904929052
 10
21.85743714142063
 20
1461.198883828231
 10
17.7021547252707
 20
1459.108018219382
  0
LWPOLYLINE
  5
9C7
330
1F
100
AcDbEntity
  8
ceco.net 136
100
AcDbPolyline
 90
        5
 70
     0
 43
0.0
 10
20.86418849955862
 20
1502.932597928108
 10
21.42885177715925
 20
1491.558969370743
 10
19.32215220278976
 20
1476.862415489549
 10
15.32893404055357
 20
1465.291952953307
 10
10.45122877485482
 20
1459.357219914721
  0
LWPOLYLINE
  5
9C8
330
1F
100
AcDbEntity
  8
ceco.net 136
100
AcDbPolyline
 90
        4
 70
     0
 43
0.0
 10
3.840324208567835
 20
1502.246375185151
 10
2.225899508403017
 20
1491.02510177542
 10
-0.9348073293722336
 20
1481.316194105275
 10
0.2824450624530073
 20
1474.830925877569
  0
LWPOLYLINE
  5
9C9
330
1F
100
AcDbEntity
  8
ceco.net 136
100
AcDbPolyline
 90
        3
 70
     0
 43
0.0
 10
10.12934159302858
 20
1478.291009003513
 10
7.306003041776421
 20
1472.790412098049
 10
2.365443966937164
 20
1467.149408625502
  0
LWPOLYLINE
  5
9CA
330
1F
100
AcDbEntity
  8
ceco.net 136
100
AcDbPolyline
 90
       18
 70
     0
 43
0.0
 10
223.1753238837654
 20
1597.137874333199
 10
222.3736632289501
 20
1582.902959993987
 10
219.031553696027
 20
1561.595713822384
 10
214.686252848196
 20
1548.184058213607
 10
216.0002760069801
 20
1537.563402378552
 10
220.887938590863
 20
1531.419726850046
 10
225.7154772617013
 20
1526.193204080612
 10
233.044841337346
 20
1516.046206059641
 10
239.5647006010221
 20
1502.863282852331
 10
243.2948461751038
 20
1495.278708318636
 10
247.2742028730863
 20
1485.885904961478
 10
249.9381079658178
 20
1480.202155393883
 10
252.9114670716126
 20
1471.792461240468
 10
254.2504105357465
 20
1463.569648382005
 10
253.6711140371608
 20
1458.130980342204
 10
251.8392064918089
 20
1452.959289766468
 10
250.3477865992635
 20
1449.321094338415
 10
248.7952564384841
 20
1446.601019520784
  0
LWPOLYLINE
  5
9CB
330
1F
100
AcDbEntity
  8
ceco.net 136
100
AcDbPolyline
 90
        9
 70
     0
 43
0.0
 10
250.6000668284968
 20
1442.463106919319
 10
244.4858143659303
 20
1448.746926014678
 10
237.9611384704958
 20
1457.601843401491
 10
232.6196482936211
 20
1470.295660925259
 10
230.5566822915352
 20
1479.428838182343
 10
225.3424206542149
 20
1492.149542096868
 10
220.8068384966281
 20
1501.026039109447
 10
220.801801149264
 20
1508.600879426851
 10
220.5029580223936
 20
1515.050264219581
  0
LWPOLYLINE
  5
9CC
330
1F
100
AcDbEntity
  8
ceco.net 136
100
AcDbPolyline
 90
        5
 70
     0
 43
0.0
 10
202.761938744743
 20
1544.262030082137
 10
204.1658099851701
 20
1530.071496172922
 10
205.5577821407723
 20
1521.594047668799
 10
212.1506635259038
 20
1511.158492558095
 10
219.1396589246323
 20
1499.477436386115
  0
LWPOLYLINE
  5
9CD
330
1F
100
AcDbEntity
  8
ceco.net 136
100
AcDbPolyline
 90
        5
 70
     0
 43
0.0
 10
225.611093916882
 20
1509.750117331336
 10
233.6971548288602
 20
1490.990834004378
 10
238.0726255408944
 20
1480.352529585928
 10
239.2677352202099
 20
1466.517230369561
 10
238.9633185543971
 20
1461.668334638133
  0
LWPOLYLINE
  5
9CE
330
1F
100
AcDbEntity
  8
ceco.net 136
100
AcDbPolyline
 90
       10
 70
     0
 43
0.0
 10
191.6127958888864
 20
1511.347666875408
 10
185.7668927090116
 20
1497.485977677115
 10
181.9016492304399
 20
1486.834188098498
 10
178.8097078327837
 20
1473.155713180986
 10
182.0000245842265
 20
1461.203590347438
 10
189.6580810490604
 20
1443.241371456551
 10
196.0286398572179
 20
1434.486806424175
 10
200.9005645755905
 20
1422.757126080455
 10
201.6852508221518
 20
1411.492925155656
 10
200.7871092631603
 20
1402.531521617945
  0
LWPOLYLINE
  5
9CF
330
1F
100
AcDbEntity
  8
ceco.net 136
100
AcDbPolyline
 90
       10
 70
     0
 43
0.0
 10
171.2964546742341
 20
1381.0153084125
 10
177.0634518462657
 20
1383.296790202038
 10
186.5910884364438
 20
1391.689820958774
 10
189.6081499423871
 20
1398.175329949609
 10
189.2948784208101
 20
1405.950874975957
 10
186.9308924418646
 20
1414.621676825063
 10
181.7716277383851
 20
1424.562663372157
 10
173.7803332798648
 20
1432.177791310863
 10
165.3217691882673
 20
1447.668253626943
 10
163.4098511681258
 20
1461.750837125123
  0
LWPOLYLINE
  5
9D0
330
1F
100
AcDbEntity
  8
ceco.net 136
100
AcDbPolyline
 90
        5
 70
     0
 43
0.0
 10
170.4886910450795
 20
1474.809707487836
 10
176.0903050762863
 20
1454.595543586634
 10
181.419335100486
 20
1440.702804574499
 10
188.9171256824511
 20
1429.129856968827
 10
196.3185127561928
 20
1412.352620783622
  0
LWPOLYLINE
  5
9D1
330
1F
100
AcDbEntity
  8
ceco.net 136
100
AcDbPolyline
 90
        8
 70
     0
 43
0.0
 10
250.6000668284968
 20
1442.463106919319
 10
255.7750160653995
 20
1436.166056798683
 10
264.4914339252864
 20
1425.115887587708
 10
266.614290356415
 20
1417.589829597275
 10
265.5684975044323
 20
1408.065540142018
 10
262.8925530785863
 20
1403.114247457324
 10
258.9016284830449
 20
1399.346610530045
 10
255.4335750053269
 20
1396.885756964493
  0
LWPOLYLINE
  5
9D2
330
1F
100
AcDbEntity
  8
ceco.net 136
100
AcDbPolyline
 90
        8
 70
     0
 43
0.0
 10
305.0135218612695
 20
1362.97228369493
 10
304.6424471285718
 20
1366.615064729515
 10
301.6524827778539
 20
1369.439158915881
 10
292.6775817222733
 20
1376.048313863151
 10
280.5412455810483
 20
1379.996157229001
 10
263.5925475666454
 20
1387.844521285942
 10
253.5118193781045
 20
1395.283944462903
 10
246.1942860277304
 20
1406.629142813685
  0
LWPOLYLINE
  5
9D3
330
1F
100
AcDbEntity
  8
ceco.net 136
100
AcDbPolyline
 90
        7
 70
     0
 43
0.0
 10
251.7762257085678
 20
1385.879137540968
 10
242.2696919152258
 20
1384.933550201253
 10
232.2046119602418
 20
1388.521573267553
 10
226.8825875254378
 20
1392.3143902405
 10
221.0406172259808
 20
1401.712342207488
 10
213.8830763452688
 20
1414.819910967423
 10
205.3097438666782
 20
1431.482408381015
  0
LWPOLYLINE
  5
9D4
330
1F
100
AcDbEntity
  8
ceco.net 136
100
AcDbPolyline
 90
        4
 70
     0
 43
0.0
 10
226.285016643942
 20
1433.522401431574
 10
232.8260891762283
 20
1420.816242089429
 10
237.6298084047903
 20
1410.667199469571
 10
238.9221889712871
 20
1402.035783984729
  0
LWPOLYLINE
  5
9D5
330
1F
100
AcDbEntity
  8
ceco.net 136
100
AcDbPolyline
 90
        5
 70
     0
 43
0.0
 10
248.8085555139605
 20
1433.896353824124
 10
258.7056297822982
 20
1422.298159578488
 10
260.2248304775685
 20
1413.847597465206
 10
258.1010853948555
 20
1405.025369642956
 10
253.3054726188765
 20
1402.549813349864
  0
LWPOLYLINE
  5
9D6
330
1F
100
AcDbEntity
  8
ceco.net 136
100
AcDbPolyline
 90
        6
 70
     0
 43
0.0
 10
267.7236494744192
 20
1354.499791560769
 10
259.8385997347349
 20
1354.693799469941
 10
248.3606783113145
 20
1356.787555597804
 10
237.2338554270072
 20
1364.138247080092
 10
229.7720168564865
 20
1372.396357105358
 10
222.296850753878
 20
1379.455950490282
  0
LWPOLYLINE
  5
9D7
330
1F
100
AcDbEntity
  8
ceco.net 136
100
AcDbPolyline
 90
        4
 70
     0
 43
0.0
 10
215.6324861663279
 20
1387.085059998028
 10
226.8320120921316
 20
1380.015574241596
 10
239.3027225518835
 20
1375.739629266476
 10
253.5667402602257
 20
1375.563850279249
  0
LWPOLYLINE
  5
9D8
330
1F
100
AcDbEntity
  8
ceco.net 136
100
AcDbPolyline
 90
        7
 70
     0
 43
0.0
 10
265.7416477557035
 20
1379.689422231976
 10
281.0647206907788
 20
1371.274007664794
 10
289.1531670604763
 20
1368.863326460982
 10
292.7076719312253
 20
1363.367781628753
 10
290.1025812807347
 20
1361.22221338843
 10
283.8017496445672
 20
1356.435343059288
 10
277.5506689869189
 20
1347.006753757526
  0
LWPOLYLINE
  5
9D9
330
1F
100
AcDbEntity
  8
ceco.net 136
100
AcDbPolyline
 90
       10
 70
     0
 43
0.0
 10
245.8036347975394
 20
1293.766121164878
 10
242.4300636224643
 20
1297.42136417164
 10
237.3886917997651
 20
1302.076308547341
 10
231.8618366532518
 20
1310.996816999946
 10
228.3693482170292
 20
1320.139031533486
 10
228.1792682039167
 20
1330.394941858088
 10
229.5858187502517
 20
1342.444506637775
 10
232.1081595866871
 20
1349.217762669965
 10
234.5244657079774
 20
1358.464701438833
 10
234.7195470487122
 20
1361.47429810039
  0
LWPOLYLINE
  5
9DA
330
1F
100
AcDbEntity
  8
ceco.net 136
100
AcDbPolyline
 90
        7
 70
     0
 43
0.0
 10
232.1769665305737
 20
1362.185036063678
 10
222.8330330553944
 20
1364.058679919367
 10
214.7046171128295
 20
1368.060670927889
 10
203.4291420862928
 20
1373.166168272916
 10
198.5981196079364
 20
1376.825722818864
 10
194.7924566684378
 20
1383.509767611855
 10
193.3788019148323
 20
1388.72313057385
  0
LWPOLYLINE
  5
9DB
330
1F
100
AcDbEntity
  8
ceco.net 136
100
AcDbPolyline
 90
        6
 70
     0
 43
0.0
 10
194.480171857208
 20
1395.820124539795
 10
190.0400320583912
 20
1387.289445385065
 10
185.3788982429023
 20
1380.79233634204
 10
176.0980703120367
 20
1374.982841190131
 10
169.1686932227867
 20
1373.310884968006
 10
163.4169754264576
 20
1373.446970190371
  0
LWPOLYLINE
  5
9DC
330
1F
100
AcDbEntity
  8
ceco.net 136
100
AcDbPolyline
 90
        4
 70
     0
 43
0.0
 10
166.7686984734473
 20
1379.251550845765
 10
174.0977155218388
 20
1379.032378992178
 10
182.6252199768987
 20
1382.49830597978
 10
188.7469030124293
 20
1385.040007153719
  0
LWPOLYLINE
  5
9DD
330
1F
100
AcDbEntity
  8
ceco.net 136
100
AcDbPolyline
 90
        3
 70
     0
 43
0.0
 10
205.1210993801078
 20
1368.115718990338
 10
195.4891270662528
 20
1361.503894366734
 10
189.2160043197463
 20
1358.202654173368
  0
LWPOLYLINE
  5
9DE
330
1F
100
AcDbEntity
  8
ceco.net 136
100
AcDbPolyline
 90
        4
 70
     0
 43
0.0
 10
213.5417500724088
 20
1366.670986302878
 10
205.6931671354504
 20
1359.500294093805
 10
197.2232018193835
 20
1356.254141917006
 10
191.0270684950319
 20
1355.048854617521
  0
LWPOLYLINE
  5
9DF
330
1F
100
AcDbEntity
  8
ceco.net 136
100
AcDbPolyline
 90
        7
 70
     0
 43
0.0
 10
194.4388214831178
 20
1371.890324111944
 10
191.3443422469072
 20
1366.348308719608
 10
187.660742816206
 20
1356.209538395916
 10
184.2838134598423
 20
1349.048072222487
 10
181.8457075420383
 20
1341.87620985584
 10
178.7536967947289
 20
1332.382376975033
 10
176.8333586986727
 20
1327.192587084368
  0
LWPOLYLINE
  5
9E0
330
1F
100
AcDbEntity
  8
ceco.net 136
100
AcDbPolyline
 90
       10
 70
     0
 43
0.0
 10
177.5983773554798
 20
1574.975358337994
 10
178.1594680825264
 20
1563.936806014169
 10
176.5230749327884
 20
1554.913495818652
 10
175.4380901284093
 20
1548.308713499793
 10
173.9790153512785
 20
1541.801909004931
 10
173.474568181632
 20
1534.965744264098
 10
172.3231752938545
 20
1521.971428907548
 10
171.4317547166501
 20
1506.90708139831
 10
168.2805169314178
 20
1493.313119797164
 10
163.6749085490691
 20
1479.057751677217
  0
LWPOLYLINE
  5
9E1
330
1F
100
AcDbEntity
  8
ceco.net 136
100
AcDbPolyline
 90
        4
 70
     0
 43
0.0
 10
182.3099609766813
 20
1551.00012486389
 10
182.0283262991324
 20
1533.053921630724
 10
178.2798298826264
 20
1518.094522195483
 10
177.1302962879417
 20
1501.735818172463
  0
LWPOLYLINE
  5
9E2
330
1F
100
AcDbEntity
  8
ceco.net 136
100
AcDbPolyline
 90
        5
 70
     0
 43
0.0
 10
192.5452501969857
 20
1531.911614082545
 10
201.5395424410826
 20
1511.144596516999
 10
205.7479016770002
 20
1505.481390764728
 10
211.1677724334413
 20
1491.573147944933
 10
210.1736208221609
 20
1482.862590389103
  0
LWPOLYLINE
  5
9E3
330
1F
100
AcDbEntity
  8
ceco.net 136
100
AcDbPolyline
 90
        6
 70
     0
 43
0.0
 10
164.6355323485977
 20
1672.366045356895
 10
170.9796715575748
 20
1664.143462414642
 10
179.7380243639281
 20
1649.52446472246
 10
188.7331839872103
 20
1628.757042308834
 10
197.3867092759746
 20
1611.282206082847
 10
200.1452838796922
 20
1598.228411630657
  0
LWPOLYLINE
  5
9E4
330
1F
100
AcDbEntity
  8
ceco.net 136
100
AcDbPolyline
 90
        5
 70
     0
 43
0.0
 10
209.4892346671031
 20
1601.796883642961
 10
201.8032204207429
 20
1627.268520215295
 10
192.3064585148495
 20
1650.409564530605
 10
181.3533485037623
 20
1663.679010836432
 10
168.507709833193
 20
1675.840981923528
  0
LWPOLYLINE
  5
9E5
330
1F
100
AcDbEntity
  8
ceco.net 136
100
AcDbPolyline
 90
        4
 70
     0
 43
0.0
 10
136.0992614513634
 20
1688.335836616715
 10
151.9235237141174
 20
1693.096719405886
 10
166.3935387173296
 20
1694.206636234184
 10
171.9229411712603
 20
1688.999629924111
  0
LWPOLYLINE
  5
9E6
330
1F
100
AcDbEntity
  8
ceco.net 136
100
AcDbPolyline
 90
        4
 70
     0
 43
0.0
 10
119.407492508003
 20
1672.589157042253
 10
108.0995085613949
 20
1668.251574792918
 10
100.7307403712047
 20
1661.204040145889
 10
93.30943944644332
 20
1652.72914923527
  0
LWPOLYLINE
  5
9E7
330
1F
100
AcDbEntity
  8
ceco.net 136
100
AcDbPolyline
 90
        6
 70
     0
 43
0.0
 10
117.1195316047715
 20
1689.28362855793
 10
101.9998442114911
 20
1685.380354628776
 10
87.28088735983874
 20
1682.092860084694
 10
72.6580980693825
 20
1669.970566277854
 10
63.53087700279047
 20
1662.020921643986
 10
55.75331799161631
 20
1651.876281991874
  0
LWPOLYLINE
  5
9E8
330
1F
100
AcDbEntity
  8
ceco.net 136
100
AcDbPolyline
 90
       19
 70
     0
 43
0.0
 10
-65.14449337896621
 20
1297.561332008996
 10
-63.89434764821544
 20
1292.20049175926
 10
-61.6748482850653
 20
1286.374012687502
 10
-59.8056370949962
 20
1273.436934248152
 10
-53.68086378473435
 20
1243.869473698794
 10
-50.07602663715715
 20
1223.89206694369
 10
-45.66185777230202
 20
1202.397124746795
 10
-39.30579239374765
 20
1179.915116881872
 10
-30.8697532758515
 20
1155.774152642393
 10
-23.59701729926655
 20
1135.384393228008
 10
-15.12499167313308
 20
1112.23853042523
 10
-11.19930670006397
 20
1095.415515042347
 10
-9.749398091912553
 20
1077.451756739236
 10
-11.95044781832166
 20
1066.246494305431
 10
-15.97858355921744
 20
1054.796868625132
 10
-20.47989751827117
 20
1039.278442010669
 10
-24.11611322736462
 20
1024.930915841807
 10
-24.33131936174959
 20
1011.92388266115
 10
-24.0246086730167
 20
1003.15827824582
  0
LWPOLYLINE
  5
9E9
330
1F
100
AcDbEntity
  8
ceco.net 136
100
AcDbPolyline
 90
        2
 70
     0
 43
0.0
 10
-31.51798992325893
 20
933.5908155122751
 10
-32.22146958785288
 20
921.9200004263399
  0
LWPOLYLINE
  5
9EA
330
1F
100
AcDbEntity
  8
ceco.net 136
100
AcDbPolyline
 90
       32
 70
     0
 43
0.0
 10
-18.37227735632041
 20
721.7902354248195
 10
-17.80241443748309
 20
718.8966749150864
 10
-10.61799721969691
 20
683.5934616820082
 10
-3.787670985957447
 20
648.0272140481559
 10
4.22937394262135
 20
608.7876399151781
 10
6.216351650778051
 20
592.8959021762523
 10
8.012920391024636
 20
572.7145738124903
 10
8.606229337601689
 20
554.335125664167
 10
8.069649619642405
 20
536.0303870565417
 10
5.702590168425558
 20
521.2746959735312
 10
1.821893965257004
 20
507.8435931416009
 10
-6.102817411942851
 20
486.2937069329262
 10
-13.88480726552643
 20
468.6116318739124
 10
-19.6899930535892
 20
450.6615242389386
 10
-25.99438228980943
 20
426.4756804585658
 10
-30.92544312039535
 20
403.0905638283144
 10
-33.15413167626957
 20
377.9462889036722
 10
-34.89980582901353
 20
354.4120919008975
 10
-35.34614309592143
 20
329.8385579179523
 10
-35.46694000897332
 20
314.18717558779
 10
-34.98162429798412
 20
291.1244393546894
 10
-35.90826127697255
 20
272.1497148901192
 10
-37.7348133858959
 20
241.8024028451526
 10
-41.53305540023666
 20
208.513516714504
 10
-44.28886683012933
 20
191.1319429961508
 10
-46.93405653858917
 20
180.3080450400642
 10
-50.31156092377386
 20
171.3549655317905
 10
-51.16966858633986
 20
166.7842957493377
 10
-50.97468548251526
 20
161.9991766210659
 10
-50.24208150177855
 20
156.6160131590663
 10
-50.73921390180657
 20
149.5602514163891
 10
-52.9076033419642
 20
140.0798644759504
  0
LWPOLYLINE
  5
9EB
330
1F
100
AcDbEntity
  8
ceco.net 136
100
AcDbPolyline
 90
        6
 70
     0
 43
0.0
 10
-54.94727793961828
 20
133.5204436391137
 10
-55.79685795419209
 20
130.7882662340631
 10
-58.05821870080762
 20
125.3734923318177
 10
-57.98085813592024
 20
118.1556482705161
 10
-56.71943442155225
 20
111.7832281289423
 10
-53.80934677145887
 20
104.057704031149
  0
LWPOLYLINE
  5
9EC
330
1F
100
AcDbEntity
  8
ceco.net 136
100
AcDbPolyline
 90
       37
 70
     0
 43
0.0
 10
42.2258121429877
 20
58.36107341491469
 10
39.97545738820917
 20
60.88918050315328
 10
35.08799861413081
 20
67.25757076094396
 10
29.94418767605111
 20
78.39811141735708
 10
24.77360259740635
 20
95.75498748085919
 10
19.79039342677424
 20
116.7979638643146
 10
15.43322900727162
 20
131.323074779317
 10
12.23302578478069
 20
145.5121790678646
 10
10.95594505363806
 20
155.1107985793294
 10
11.64787568416159
 20
163.5163499757652
 10
12.02411138615389
 20
174.4295013404268
 10
10.44190719096604
 20
187.5031019219903
 10
11.16589769469555
 20
198.8461583742235
 10
14.63560234071792
 20
216.9561536467483
 10
20.07494800420772
 20
231.8352889970327
 10
24.85869345139235
 20
251.4557254766458
 10
33.34147744772053
 20
276.3101190205787
 10
48.00959804447302
 20
317.2417231441215
 10
58.23937985348948
 20
348.0432723912088
 10
63.88239847967724
 20
365.0404266891911
 10
68.66744136561919
 20
389.112812190234
 10
73.74565819202416
 20
410.7804691713141
 10
79.27515426388254
 20
441.1045409828631
 10
83.76891194814106
 20
463.5067925481735
 10
90.45914547584743
 20
484.6570020891931
 10
98.90549137844573
 20
509.2472638771141
 10
104.2665484040981
 20
529.5801981954042
 10
105.2310915482621
 20
541.261104197531
 10
106.4626770684071
 20
551.1751908651376
 10
109.1254596458384
 20
563.9654488272753
 10
110.6701856548397
 20
583.1378386900922
 10
111.2186290973795
 20
595.2672018959077
 10
112.5630314403451
 20
613.7855871106978
 10
114.3212878183703
 20
635.9320665875003
 10
114.4069495341
 20
661.0210559003917
 10
115.8269418419877
 20
695.4306439300097
 10
116.8260381995196
 20
725.327261273108
  0
LWPOLYLINE
  5
9ED
330
1F
100
AcDbEntity
  8
ceco.net 136
100
AcDbPolyline
 90
       38
 70
     0
 43
0.0
 10
46.60291772631808
 20
58.50323711253224
 10
42.76526875628405
 20
58.4350794108559
 10
37.51126750137245
 20
57.39242180146675
 10
30.71866974210024
 20
54.67365178252237
 10
20.72288636702523
 20
50.8045158125725
 10
13.97778798002491
 20
48.50101592199962
 10
3.936251616437402
 20
46.44663924385383
 10
-4.85627181262771
 20
45.19671435612337
 10
-13.31666839200806
 20
44.5098418048957
 10
-19.53630212915413
 20
45.15459986797054
 10
-24.50947457998609
 20
46.94145427845342
 10
-28.05666097481207
 20
49.97539146417295
 10
-31.31096374841035
 20
53.54350286707187
 10
-33.35018971051795
 20
57.43661355606377
 10
-35.2268731796812
 20
61.8369424538514
 10
-36.48957438053912
 20
70.69047936231243
 10
-38.44574099287001
 20
84.37200704989322
 10
-41.3348423850266
 20
100.9217990329744
 10
-43.40100773868016
 20
117.4102385255508
 10
-46.31626003822475
 20
128.008939272135
 10
-50.66788056797122
 20
137.0878162208413
 10
-54.01948415635615
 20
142.3927450338879
 10
-55.13435287195989
 20
145.7630683014485
 10
-55.70118193236339
 20
147.8053075660881
 10
-55.60914311547549
 20
152.4864003973505
 10
-56.84272744008467
 20
153.8472326480047
 10
-57.28510075607573
 20
152.7403736842956
 10
-56.9758129335014
 20
149.3603759543589
 10
-56.81435896701714
 20
146.3543698350946
 10
-58.0432369799837
 20
146.0946789314334
 10
-58.04781827475835
 20
138.1213957628659
 10
-55.82591489826427
 20
135.280264169296
 10
-53.59867578260946
 20
130.8193305800529
 10
-52.06147949775186
 20
124.1852364222779
 10
-52.46828324152374
 20
116.1951790667643
 10
-54.54817999077476
 20
107.1469591494036
 10
-55.46303543883368
 20
100.6028312951769
 10
-55.61482116263505
 20
93.00426089588142
  0
LWPOLYLINE
  5
9EE
330
1F
100
AcDbEntity
  8
ceco.net 136
100
AcDbPolyline
 90
       39
 70
     0
 43
0.0
 10
-56.33429380543475
 20
129.672493083305
 10
-58.62620728714773
 20
129.3228430829316
 10
-62.53160952689995
 20
128.2952173694127
 10
-66.61386591247264
 20
126.824397667903
 10
-70.16388721808652
 20
124.1150811052449
 10
-71.78620448348738
 20
120.59684854745
 10
-71.96021767731508
 20
116.303664988095
 10
-70.27353169769412
 20
110.2422555768498
 10
-65.81136483771388
 20
104.1586399225735
 10
-61.86468873283956
 20
98.91241535488859
 10
-58.38765984947258
 20
93.97217564486481
 10
-55.48989890712618
 20
88.88364454755048
 10
-53.45494254663663
 20
81.81423292910494
 10
-50.9421398850236
 20
77.27837213907662
 10
-48.77200548253313
 20
70.8456694877384
 10
-46.61162382728889
 20
64.14094697221628
 10
-43.46304958471591
 20
49.55981384580354
 10
-40.79810899338554
 20
36.94910298860065
 10
-38.34352800174656
 20
28.21216487485855
 10
-35.41734388295481
 20
22.68206138333539
 10
-32.3367426101413
 20
19.61774866009591
 10
-26.32124750937236
 20
16.13204216988606
 10
-14.97312835783759
 20
14.8818995503035
 10
2.388880697480999
 20
13.95689539376121
 10
22.59388595109612
 20
13.97027901255398
 10
29.23500967983727
 20
13.88746087121717
 10
41.02252650670834
 20
15.22332298640094
 10
59.58854391133172
 20
16.91768806743709
 10
65.75204248599675
 20
17.81494827370977
 10
66.60552361904592
 20
19.21100613644455
 10
67.7541452088235
 20
23.37255179851638
 10
66.43574555539544
 20
28.97128289237116
 10
64.50520056364439
 20
33.63018845892895
 10
60.99435453313617
 20
38.09041266130464
 10
57.00981282723205
 20
43.19394996809933
 10
53.45006116374406
 20
48.52194079467153
 10
50.29238454324058
 20
55.15118487790005
 10
48.25786489300298
 20
57.42377241257656
 10
46.60291772631808
 20
58.50323711253224
  0
LWPOLYLINE
  5
9EF
330
1F
100
AcDbEntity
  8
ceco.net 136
100
AcDbPolyline
 90
       14
 70
     0
 43
0.0
 10
64.50084041625814
 20
29.17053446647344
 10
61.89303900964659
 20
32.87585499975875
 10
59.04860812040624
 20
34.50442004334774
 10
51.45802892218398
 20
38.44009605340659
 10
44.97941925615123
 20
40.31404846978148
 10
40.42280933754227
 20
40.76973678030526
 10
35.84606449726379
 20
40.68066420396121
 10
30.89130901412318
 20
39.49833401462399
 10
25.98938864252886
 20
37.11147195780029
 10
23.73413325949513
 20
33.39184789368232
 10
21.33715659294921
 20
27.14265553341022
 10
22.01791181698808
 20
22.96305608756199
 10
24.0779305580645
 20
18.33151137749666
 10
25.1724073624473
 20
16.67073540295405
  0
LWPOLYLINE
  5
9F0
330
1F
100
AcDbEntity
  8
ceco.net 136
100
AcDbPolyline
 90
        4
 70
     0
 43
0.0
 10
62.98359237678141
 20
21.95860094890633
 10
52.60035730452727
 20
21.52116974072271
 10
40.89981714662371
 20
20.60245063488252
 10
24.83070865366698
 20
18.28768087297305
  0
LWPOLYLINE
  5
9F1
330
1F
100
AcDbEntity
  8
ceco.net 136
100
AcDbPolyline
 90
        7
 70
     0
 43
0.0
 10
35.47276016627165
 20
37.9668834365674
 10
37.3406888691079
 20
35.52440593969663
 10
39.63097494249723
 20
33.6434635164835
 10
41.01560262915882
 20
30.28780019015187
 10
41.57018415503443
 20
25.74335348597855
 10
41.40907635314761
 20
22.66918245838667
 10
40.00793153056747
 20
20.34633741557456
  0
LWPOLYLINE
  5
9F2
330
1F
100
AcDbEntity
  8
ceco.net 136
100
AcDbPolyline
 90
        9
 70
     0
 43
0.0
 10
38.86813240706032
 20
28.6182919178799
 10
36.23922652832334
 20
28.26506423309638
 10
33.02149130786347
 20
27.17984850924892
 10
32.17305661007685
 20
27.67633366489974
 10
31.78067745363932
 20
29.21493240501149
 10
32.51836706294852
 20
30.51888403216196
 10
34.75174114021228
 20
31.46371778927914
 10
37.44575809514572
 20
31.83070497992446
 10
38.78145171836422
 20
30.62672434411695
  0
LWPOLYLINE
  5
9F3
330
1F
100
AcDbEntity
  8
ceco.net 136
100
AcDbPolyline
 90
        8
 70
     0
 43
0.0
 10
57.09368703560357
 20
34.15834772728487
 10
53.70870301032937
 20
34.18643694899969
 10
50.19502206926063
 20
32.903407403154
 10
47.57715622258729
 20
31.53972583322683
 10
46.42884632585264
 20
32.17516241025464
 10
46.92835278535767
 20
33.96987436964593
 10
51.07179076878765
 20
35.7912188203926
 10
53.98307911832489
 20
36.40644270298309
  0
LWPOLYLINE
  5
9F4
330
1F
100
AcDbEntity
  8
ceco.net 136
100
AcDbPolyline
 90
        3
 70
     0
 43
0.0
 10
43.48261783127327
 20
38.44385807805394
 10
41.29029043031096
 20
37.30478818327753
 10
38.96914713754995
 20
34.85516252436582
  0
LWPOLYLINE
  5
9F5
330
1F
100
AcDbEntity
  8
ceco.net 136
100
AcDbPolyline
 90
        6
 70
     0
 43
0.0
 10
26.11855069858393
 20
32.34185057524996
 10
27.69776321065364
 20
29.02730761131522
 10
28.22027397371584
 20
26.23287481981151
 10
28.62381213788012
 20
23.683259191273
 10
29.50026914436421
 20
21.77408836948302
 10
31.32004061717452
 20
20.19953565198306
  0
LWPOLYLINE
  5
9F6
330
1F
100
AcDbEntity
  8
ceco.net 136
100
AcDbPolyline
 90
       13
 70
     0
 43
0.0
 10
65.75204248599675
 20
17.81494827370977
 10
64.17800142628493
 20
13.42822793306197
 10
63.58097300437748
 20
9.856704207791722
 10
62.73079192249042
 20
8.12315994318169
 10
48.4904308161731
 20
5.789615238882106
 10
18.6104291411766
 20
1.029147204476998
 10
0.0
 20
0.0
 10
-16.67127993675876
 20
0.5310537508620428
 10
-27.28030321816277
 20
1.802111245027049
 10
-30.37645207632522
 20
2.70170293049432
 10
-32.82162044445158
 20
8.197594735605662
 10
-35.14999930769135
 20
16.01546404145892
 10
-37.13801501123725
 20
25.93390372408066
  0
LWPOLYLINE
  5
9F7
330
1F
100
AcDbEntity
  8
ceco.net 136
100
AcDbPolyline
 90
        9
 70
     0
 43
0.0
 10
-31.58148011963067
 20
5.41018870777722
 10
-40.58084866699118
 20
4.936369124237671
 10
-42.85274620326617
 20
5.132043013830411
 10
-44.70951589837568
 20
6.5635036223739
 10
-44.69299876234344
 20
12.24201199141816
 10
-45.52242757779367
 20
30.24043641133289
 10
-46.62458605503161
 20
45.9962653276591
 10
-49.75063466429219
 20
65.26556290147311
 10
-52.70524455170289
 20
80.46095286798049
  0
LWPOLYLINE
  5
9F8
330
1F
100
AcDbEntity
  8
ceco.net 136
100
AcDbPolyline
 90
       12
 70
     0
 43
0.0
 10
-51.61676659236036
 20
165.5888046371387
 10
-55.65009546353394
 20
162.6026745141331
 10
-58.8024916322638
 20
158.0635593953019
 10
-61.38567823302309
 20
154.197588644152
 10
-62.56097539653637
 20
153.3957755289918
 10
-64.6877887975279
 20
152.235261545158
 10
-67.0981016010046
 20
146.4302416806049
 10
-66.50655355781509
 20
143.6309892862084
 10
-63.47636269504164
 20
141.267679957707
 10
-60.562478503698
 20
138.3263471782782
 10
-58.48157973775869
 20
136.7111090657431
 10
-57.17838351029058
 20
136.9076936363171
  0
LWPOLYLINE
  5
9F9
330
1F
100
AcDbEntity
  8
ceco.net 136
100
AcDbPolyline
 90
        7
 70
     0
 43
0.0
 10
-59.48004351967028
 20
146.3009701530353
 10
-62.01097892221696
 20
147.4264591432046
 10
-62.37501240002529
 20
150.2737907305089
 10
-62.02535235991035
 20
151.6121954087168
 10
-61.48314211623073
 20
150.5410754781735
 10
-60.7599740619662
 20
148.2436829342503
 10
-59.25840151940064
 20
148.2451663792119
  0
LWPOLYLINE
  5
9FA
330
1F
100
AcDbEntity
  8
ceco.net 136
100
AcDbPolyline
 90
        5
 70
     0
 43
0.0
 10
-50.39951437834133
 20
156.8356465329117
 10
-52.69630155567028
 20
154.611134389242
 10
-54.219868236828
 20
150.9696744608959
 10
-54.9780731755618
 20
146.699485689794
 10
-54.96246563359363
 20
145.2434415949142
  0
LWPOLYLINE
  5
9FB
330
1F
100
AcDbEntity
  8
ceco.net 136
100
AcDbPolyline
 90
       35
 70
     0
 43
0.0
 10
224.9470152339654
 20
1262.832666161273
 10
223.3389236452012
 20
1269.217696478776
 10
220.1839961111318
 20
1278.638272879504
 10
216.1763241957714
 20
1286.585311877445
 10
206.906765491567
 20
1294.326134496415
 10
188.416731989605
 20
1307.74787943929
 10
185.5143218243711
 20
1309.850588592653
 10
181.1591445832618
 20
1310.86994147283
 10
169.7916293435355
 20
1308.338325377562
 10
153.6290009655658
 20
1301.560351856295
 10
136.0936489103323
 20
1290.871076343833
 10
130.081102974259
 20
1284.427742122545
 10
126.4685619158854
 20
1279.931366215123
 10
125.4408715211638
 20
1276.222369948314
 10
128.301476859292
 20
1268.808692917446
 10
135.5155357982766
 20
1253.650440768097
 10
144.6337321622195
 20
1236.825481169674
 10
152.3744089311094
 20
1223.459436211811
 10
158.8327128395121
 20
1215.595633869029
 10
161.9132266382621
 20
1210.815093492954
 10
164.2383078873308
 20
1204.710972053931
 10
167.8797720641114
 20
1198.496857205228
 10
173.7106481108412
 20
1194.168141176362
 10
181.4709463800454
 20
1190.505941673123
 10
189.4128291966126
 20
1188.433643636983
 10
195.292778031785
 20
1188.771059247244
 10
202.9232970527345
 20
1192.452664450797
 10
216.565472115235
 20
1205.034688575892
 10
227.1555757963596
 20
1219.817186965244
 10
236.5259789543188
 20
1234.858913945686
 10
241.6980150725294
 20
1250.177955460501
 10
245.8269349790498
 20
1265.534757885419
 10
249.0680295528591
 20
1282.643646416318
 10
247.1844035230787
 20
1291.55711461982
 10
245.201112594259
 20
1293.594683086723
  0
LWPOLYLINE
  5
9FC
330
1F
100
AcDbEntity
  8
ceco.net 136
100
AcDbPolyline
 90
       20
 70
     0
 43
0.0
 10
189.0986918646149
 20
1307.252851049952
 10
189.9712426529731
 20
1308.364575596584
 10
190.6795306765616
 20
1312.430715809256
 10
188.9681833615668
 20
1319.293261460472
 10
185.9028968499387
 20
1323.084229771282
 10
182.6370203156102
 20
1325.353034085708
 10
177.1129068176833
 20
1326.361797742336
 10
166.7682685899762
 20
1325.046187380039
 10
152.2622632199954
 20
1320.762088462117
 10
138.9688274105083
 20
1314.036409738023
 10
127.3914621084486
 20
1306.193602586461
 10
119.1011493964424
 20
1297.217470311437
 10
116.8135562847965
 20
1294.035635445595
 10
115.2236912309945
 20
1289.609106088192
 10
115.6519162922222
 20
1285.522001198572
 10
116.8083308906489
 20
1282.110465170831
 10
119.0575046947515
 20
1278.059987435
 10
121.2833283351528
 20
1276.180714367853
 10
123.6612566772237
 20
1275.638679930793
 10
125.4408715211638
 20
1276.222369948314
  0
LWPOLYLINE
  5
9FD
330
1F
100
AcDbEntity
  8
ceco.net 136
100
AcDbPolyline
 90
       10
 70
     0
 43
0.0
 10
172.7333501083876
 20
1325.804814495342
 10
166.9981143157883
 20
1334.620955188029
 10
153.6226438936409
 20
1357.122309511453
 10
144.8223177090994
 20
1375.280720277913
 10
137.1577756502802
 20
1391.394202950081
 10
133.443653565223
 20
1401.141246508259
 10
132.1140689359481
 20
1408.257970600715
 10
129.3071671291272
 20
1412.88695177208
 10
125.361705354976
 20
1414.664549587655
 10
120.2058481281937
 20
1415.577043349884
  0
LWPOLYLINE
  5
9FE
330
1F
100
AcDbEntity
  8
ceco.net 136
100
AcDbPolyline
 90
       12
 70
     0
 43
0.0
 10
92.5840217842051
 20
1420.619419315869
 10
93.64192930877379
 20
1413.966968684889
 10
92.95851219280848
 20
1406.076079449761
 10
93.83754013879297
 20
1397.384367510909
 10
95.52783037406697
 20
1389.385779665502
 10
98.66854393396806
 20
1383.17347506684
 10
100.6438987124056
 20
1375.061625098823
 10
101.651155057425
 20
1365.352464072373
 10
104.4264607099876
 20
1350.902418507175
 10
110.3541647644306
 20
1324.912761246039
 10
115.1747036325332
 20
1307.044331758731
 10
118.1427611622893
 20
1295.884439064309
  0
LWPOLYLINE
  5
9FF
330
1F
100
AcDbEntity
  8
ceco.net 136
100
AcDbPolyline
 90
       11
 70
     0
 43
0.0
 10
145.1764496665646
 20
1489.718724635764
 10
141.0059970523889
 20
1484.011085994097
 10
136.6235658069854
 20
1480.342451501968
 10
130.8865879715312
 20
1477.37506601122
 10
126.0576223259022
 20
1472.186403080939
 10
113.9670767412326
 20
1460.856251757903
 10
101.6030770288125
 20
1445.629486111727
 10
96.31703618265419
 20
1437.931070584653
 10
93.48510971574341
 20
1431.080040748213
 10
92.18925508889697
 20
1426.309234045263
 10
92.5840217842051
 20
1420.619419315869
  0
LWPOLYLINE
  5
A00
330
1F
100
AcDbEntity
  8
ceco.net 136
100
AcDbPolyline
 90
        8
 70
     0
 43
0.0
 10
159.5810227099718
 20
1483.849990594606
 10
156.3248103312844
 20
1475.373650703446
 10
157.0624383581389
 20
1463.573703006517
 10
159.9887509967174
 20
1446.093094091949
 10
163.3482130087031
 20
1433.310965162761
 10
168.5615789890562
 20
1426.29567346016
 10
173.5681173311149
 20
1415.068485587951
 10
174.1859963822207
 20
1400.720087033661
  0
LWPOLYLINE
  5
A01
330
1F
100
AcDbEntity
  8
ceco.net 136
100
AcDbPolyline
 90
        7
 70
     0
 43
0.0
 10
163.8923377307719
 20
1429.696519632003
 10
160.6820908573354
 20
1426.714940181909
 10
155.9569727204461
 20
1423.632022912429
 10
151.1501365874892
 20
1418.338641368848
 10
145.076880438637
 20
1413.325787208293
 10
139.5113055367573
 20
1410.065261604486
 10
136.979275464796
 20
1408.543275446533
  0
LWPOLYLINE
  5
A02
330
1F
100
AcDbEntity
  8
ceco.net 136
100
AcDbPolyline
 90
        4
 70
     0
 43
0.0
 10
139.613356730706
 20
1414.255016040655
 10
136.713007459889
 20
1409.803276825982
 10
135.0195471403594
 20
1404.838463416865
 10
135.2531677448496
 20
1396.392502895793
  0
LWPOLYLINE
  5
A03
330
1F
100
AcDbEntity
  8
ceco.net 136
100
AcDbPolyline
 90
        3
 70
     0
 43
0.0
 10
175.3513882893003
 20
1367.139749741568
 10
179.320613126606
 20
1349.281976732214
 10
180.7133354045618
 20
1338.399329369138
  0
LWPOLYLINE
  5
A04
330
1F
100
AcDbEntity
  8
ceco.net 136
100
AcDbPolyline
 90
       62
 70
     0
 43
0.0
 10
305.0135218612695
 20
1362.97228369493
 10
302.6681716728489
 20
1359.034145105852
 10
299.517527348712
 20
1357.246126000674
 10
293.668927168369
 20
1354.567545628412
 10
290.6393536432005
 20
1352.965569810947
 10
287.3207135794473
 20
1349.69941601237
 10
284.042433647528
 20
1345.479538999072
 10
282.6330694922489
 20
1339.250219242671
 10
279.5771362399364
 20
1328.665460482199
 10
276.5848853088073
 20
1320.818967588678
 10
272.0334412484817
 20
1312.00214127567
 10
268.3462597591415
 20
1302.886579506576
 10
266.8547481719087
 20
1298.563907810887
 10
266.292316764634
 20
1293.635778577282
 10
267.7734621747731
 20
1290.421680376084
 10
272.8087239457863
 20
1288.60048346668
 10
283.7471378214786
 20
1281.613899412747
 10
291.4204013827657
 20
1274.899067586105
 10
295.9999663438566
 20
1269.876233614624
 10
298.6723263027215
 20
1261.784173353831
 10
297.465416548448
 20
1253.834087409174
 10
295.2704099838001
 20
1249.041834289187
 10
296.4920839730211
 20
1247.055575491344
 10
299.6553924293721
 20
1241.953027463821
 10
300.8552718896453
 20
1236.275102414893
 10
299.7587684125164
 20
1232.356324818994
 10
294.4356758829371
 20
1229.467880260358
 10
296.6955000564439
 20
1233.953411298529
 10
297.097072975248
 20
1236.603120018728
 10
295.3983439364264
 20
1240.09165723919
 10
296.1376338474792
 20
1234.316398756817
 10
293.5297265046301
 20
1230.719065024331
 10
291.6873683076346
 20
1230.329731290623
 10
293.5925445033262
 20
1233.457645014198
 10
292.7407482122816
 20
1238.247372757513
 10
290.3708827543596
 20
1241.113205281905
 10
289.7091750768368
 20
1239.690699011717
 10
286.7796416520604
 20
1234.58326164615
 10
283.1035901696168
 20
1233.004631189288
 10
279.6379850647099
 20
1231.951847533224
 10
278.5136882278038
 20
1233.477309901218
 10
284.4422352447963
 20
1237.295495360626
 10
290.215353294343
 20
1244.126062875835
 10
288.4940658964296
 20
1243.92277242984
 10
284.1656349856975
 20
1240.122309666716
 10
276.7579421688424
 20
1236.472920336851
 10
280.277700360898
 20
1241.064246972257
 10
284.6393541524321
 20
1244.711272340708
 10
283.2966093641289
 20
1246.511487850824
 10
279.7309641590572
 20
1248.964165742847
 10
274.8643614656884
 20
1252.264134298997
 10
274.0145647848066
 20
1254.008559970628
 10
275.1020383576587
 20
1247.344628644384
 10
276.3601706182043
 20
1239.114166893316
 10
275.709026970162
 20
1233.846871100041
 10
270.7599118517691
 20
1227.670815805481
 10
268.7640238051471
 20
1227.249037593963
 10
270.1113337918741
 20
1230.739938775798
 10
272.4894653239289
 20
1238.456653758078
 10
272.0770300310277
 20
1251.033769518912
 10
266.7105155841227
 20
1263.52622378927
 10
259.1907818724621
 20
1270.273500093694
  0
LWPOLYLINE
  5
A05
330
1F
100
AcDbEntity
  8
ceco.net 136
100
AcDbPolyline
 90
        9
 70
     1
 43
0.0
 10
257.3926750420696
 20
1274.670267888467
 10
256.5357517363509
 20
1276.765634375578
 10
254.0016919069785
 20
1283.444287483263
 10
250.8411468911617
 20
1285.501694854488
 10
250.6161341311781
 20
1283.530633376201
 10
251.9285199714431
 20
1278.838239066417
 10
254.5074046389572
 20
1276.497454974006
 10
256.3345331155915
 20
1275.440937076837
 10
257.3926750420696
 20
1274.670267888438
  0
LWPOLYLINE
  5
A06
330
1F
100
AcDbEntity
  8
ceco.net 136
100
AcDbPolyline
 90
        4
 70
     0
 43
0.0
 10
259.1907818724621
 20
1270.273500093694
 10
254.7371804497515
 20
1272.378073724255
 10
251.1543059140421
 20
1276.430202057071
 10
248.5743254843555
 20
1280.037512074301
  0
LWPOLYLINE
  5
A07
330
1F
100
AcDbEntity
  8
ceco.net 136
100
AcDbPolyline
 90
       16
 70
     1
 43
0.0
 10
289.5626755210969
 20
1253.286265527506
 10
285.940777126143
 20
1255.246178049986
 10
280.2005836125545
 20
1259.644208098237
 10
275.0500520212426
 20
1263.525014924837
 10
271.8073595734722
 20
1267.489070356717
 10
270.5123035560745
 20
1270.581538687722
 10
268.9253170672145
 20
1275.055445232055
 10
269.6022544648712
 20
1277.923803133077
 10
273.8613025679796
 20
1276.739871286096
 10
281.4503185948069
 20
1274.977465129921
 10
284.5143507809098
 20
1273.380540065772
 10
288.3394674068995
 20
1269.700022770393
 10
292.6091800319454
 20
1264.670825862168
 10
294.010177620521
 20
1260.318073650068
 10
293.2056046150819
 20
1255.017857840897
 10
291.5023103778366
 20
1253.215278369509
  0
LWPOLYLINE
  5
A08
330
1F
100
AcDbEntity
  8
ceco.net 136
100
AcDbPolyline
 90
        6
 70
     1
 43
0.0
 10
279.0797400398332
 20
1277.431320875692
 10
270.7100464730274
 20
1278.900583629166
 10
268.8663909897286
 20
1279.774770149657
 10
269.0559087752717
 20
1281.868485629303
 10
270.5363357810028
 20
1282.339309067353
 10
275.076472140995
 20
1280.297235242883
  0
LWPOLYLINE
  5
A09
330
1F
100
AcDbEntity
  8
ceco.net 136
100
AcDbPolyline
 90
        9
 70
     0
 43
0.0
 10
265.7416477557035
 20
1379.689422231976
 10
266.1782499271794
 20
1376.879529769155
 10
267.2318641878064
 20
1374.121536135689
 10
269.784690614415
 20
1370.582489678682
 10
272.7722989969834
 20
1367.213813277629
 10
276.0765990952904
 20
1362.342750567592
 10
278.081649830483
 20
1356.570196372786
 10
277.6441255233521
 20
1348.241712254875
 10
277.5506689869189
 20
1347.006753757526
  0
LWPOLYLINE
  5
A0A
330
1F
100
AcDbEntity
  8
ceco.net 136
100
AcDbPolyline
 90
       13
 70
     0
 43
0.0
 10
238.4687525559456
 20
1369.608052118948
 10
245.3746711269104
 20
1365.444444676995
 10
251.9961961575063
 20
1362.626610089904
 10
257.4423539293775
 20
1361.56835532914
 10
263.8201848484413
 20
1359.903700661973
 10
267.6687747399455
 20
1356.901273307755
 10
270.3958111536621
 20
1350.649891286494
 10
267.6475651719556
 20
1344.646828118641
 10
261.1205533515885
 20
1342.263535277396
 10
256.660083493216
 20
1337.705904562526
 10
252.5950935023502
 20
1332.228363521551
 10
245.7219801294741
 20
1319.128040205114
 10
246.0628927980224
 20
1308.958579404361
  0
LWPOLYLINE
  5
A0B
330
1F
100
AcDbEntity
  8
ceco.net 136
100
AcDbPolyline
 90
        9
 70
     0
 43
0.0
 10
253.7867032552867
 20
1293.319939427235
 10
252.7304274590278
 20
1298.318320515193
 10
251.0489563587725
 20
1300.573536168258
 10
250.1145778644513
 20
1304.995089527153
 10
249.2095249788235
 20
1310.225627717372
 10
251.614927187802
 20
1315.955543001507
 10
255.5067104576664
 20
1323.204243888185
 10
259.8340096860738
 20
1329.339804560362
 10
263.1164069385931
 20
1339.472168554124
  0
LWPOLYLINE
  5
A0C
330
1F
100
AcDbEntity
  8
ceco.net 136
100
AcDbPolyline
 90
       10
 70
     0
 43
0.0
 10
239.9207196168617
 20
1349.430886076248
 10
235.4442394871512
 20
1339.24737789583
 10
232.5486536284415
 20
1325.381527889732
 10
233.9440010690623
 20
1314.02852533094
 10
239.0591027447044
 20
1307.879907221263
 10
237.5374225362065
 20
1313.181331201008
 10
236.6922470506551
 20
1320.031588498793
 10
238.7373576349318
 20
1334.119603617168
 10
239.2081623285093
 20
1340.444177372731
 10
239.8315166082056
 20
1347.002182137359
  0
LWPOLYLINE
  5
A0D
330
1F
100
AcDbEntity
  8
ceco.net 136
100
AcDbPolyline
 90
        6
 70
     0
 43
0.0
 10
246.6128325304453
 20
1347.230555876947
 10
247.4492390499563
 20
1337.567198431059
 10
246.2906563054048
 20
1330.694893585729
 10
243.0567626327047
 20
1323.183826465978
 10
242.1411101693138
 20
1315.158180285408
 10
243.4603585408012
 20
1310.818455782097
  0
LWPOLYLINE
  5
A0E
330
1F
100
AcDbEntity
  8
ceco.net 136
100
AcDbPolyline
 90
        5
 70
     0
 43
0.0
 10
205.343994139298
 20
1475.937182783624
 10
205.7040883410081
 20
1471.19357270121
 10
205.7428472612627
 20
1461.883763537201
 10
200.2617707469198
 20
1449.800914150131
 10
197.9695062784685
 20
1439.355678533217
  0
LWPOLYLINE
  5
A0F
330
1F
100
AcDbEntity
  8
ceco.net 136
100
AcDbPolyline
 90
        6
 70
     0
 43
0.0
 10
218.855095296476
 20
1469.795810360594
 10
223.0061368514952
 20
1462.318766079661
 10
223.4005689477953
 20
1454.369274751414
 10
223.4871775146984
 20
1446.354733052274
 10
222.6555003484236
 20
1432.041273737411
 10
218.9548187576519
 20
1420.656076903313
  0
LWPOLYLINE
  5
A10
330
1F
100
AcDbEntity
  8
ceco.net 136
100
AcDbPolyline
 90
        7
 70
     0
 43
0.0
 10
237.3838687171883
 20
1444.471725137603
 10
240.4171477318186
 20
1437.722710633124
 10
243.2547076272157
 20
1431.896078649202
 10
247.3714112875313
 20
1427.624915614032
 10
249.1569910666839
 20
1422.218801664044
 10
249.3564678738948
 20
1415.191854271782
 10
247.5624607063764
 20
1409.993528546365
  0
LWPOLYLINE
  5
A11
330
1F
100
AcDbEntity
  8
ceco.net 136
100
AcDbPolyline
 90
        4
 70
     0
 43
0.0
 10
191.5337113316581
 20
1580.569436300748
 10
197.6435054714329
 20
1569.645887768601
 10
199.7299290354703
 20
1559.772765501705
 10
207.7570368192027
 20
1544.911587625449
  0
LWPOLYLINE
  5
A12
330
1F
100
AcDbEntity
  8
ceco.net 136
100
AcDbPolyline
 90
       28
 70
     0
 43
0.0
 10
193.4472227724199
 20
1188.665153707688
 10
193.6082877365379
 20
1181.945883534624
 10
194.0633050664928
 20
1175.801557795068
 10
192.9603761191174
 20
1173.038410223653
 10
192.8856144367045
 20
1170.998255111981
 10
194.6388962862783
 20
1167.489452616919
 10
195.6785073517721
 20
1164.167144560565
 10
195.9012820300358
 20
1161.515742862732
 10
199.4748680837119
 20
1157.379187082852
 10
201.9085176182215
 20
1153.84525898439
 10
202.35493129735
 20
1148.542141466023
 10
202.3845472150469
 20
1142.813634846604
 10
203.5264595610897
 20
1139.007228992909
 10
205.3800668642224
 20
1138.218106872884
 10
208.9696482225917
 20
1135.603074238275
 10
213.8870095261609
 20
1129.895533767026
 10
216.0665571105937
 20
1125.970598029098
 10
217.8066838052927
 20
1117.736180093743
 10
219.3552626014252
 20
1115.196048731533
 10
222.4946426068754
 20
1112.317471369067
 10
222.5330126296967
 20
1112.222747532257
 10
227.5877069580474
 20
1105.869112183015
 10
230.8561640121524
 20
1099.982022698966
 10
233.2331234889579
 20
1092.725208923738
 10
240.0591712918185
 20
1081.180040514425
 10
253.4912318766373
 20
1057.537488636683
 10
262.1758034520098
 20
1038.794852101957
 10
262.5677834063253
 20
1037.652268788874
  0
LWPOLYLINE
  5
A13
330
1F
100
AcDbEntity
  8
ceco.net 136
100
AcDbPolyline
 90
       89
 70
     0
 43
0.0
 10
267.4543480139845
 20
740.0219307557591
 10
265.8514427112095
 20
734.5674406448523
 10
259.3930137755933
 20
713.1234926252432
 10
252.9101013337822
 20
687.3171612707835
 10
247.03699983786
 20
662.2085041852869
 10
242.5180759740896
 20
638.5683401466195
 10
237.4652181067631
 20
614.9589111004303
 10
234.7622530165835
 20
602.6434641983797
 10
230.8256298363176
 20
580.0275030213697
 10
230.7872106239301
 20
566.7594784113134
 10
228.2383607924884
 20
553.7185217667399
 10
225.2084039387227
 20
531.2941605656078
 10
221.4503795232758
 20
512.3150729809253
 10
219.0488184221521
 20
487.6345179119425
 10
218.2112465919772
 20
457.527847417495
 10
215.414308695017
 20
430.4174738077932
 10
211.4597561936761
 20
406.0927935593383
 10
206.9206400830125
 20
385.4329837920857
 10
198.7100830864392
 20
348.8129017361245
 10
191.1772623652723
 20
320.8949696953169
 10
182.918411415585
 20
295.0004763314097
 10
179.6426489522673
 20
284.0702042081773
 10
172.4702817670049
 20
258.2224974586324
 10
163.8454793418304
 20
229.8080295596776
 10
158.0293232800613
 20
210.7621201488427
 10
154.2346818143869
 20
198.9795187354843
 10
152.5918133381765
 20
190.3888653522329
 10
151.838887477993
 20
175.0721699377493
 10
148.727574367399
 20
158.3266329889312
 10
146.05962114274
 20
150.1840393442108
 10
142.6106146737993
 20
139.4203374594269
 10
141.6116797272479
 20
130.3010780966644
 10
143.5067748440133
 20
122.5907186524182
 10
143.3577353687951
 20
115.1135664580209
 10
141.7302935007
 20
105.196307667029
 10
141.5091697568868
 20
85.47134636802411
 10
141.8977806880548
 20
66.62188850158656
 10
141.6672304579833
 20
59.03958207095172
 10
140.8298180748488
 20
57.42147417815601
 10
139.2822212442297
 20
56.37361063092782
 10
134.2802795302304
 20
56.16805393285062
 10
122.2901529415594
 20
56.91694351899911
 10
113.4247844706806
 20
57.00872213316188
 10
106.1969407264768
 20
58.03621970416372
 10
99.90937183329151
 20
59.26241952489874
 10
94.1574506747429
 20
59.81542026442809
 10
89.92473704142867
 20
59.37947094753326
 10
81.39069206958993
 20
57.90340040879016
 10
76.54164523012241
 20
56.35508210744433
 10
75.09953400472113
 20
56.05032999748971
 10
77.36961172099654
 20
62.36019682286553
 10
80.29966443484681
 20
78.57015787197951
 10
84.62273392876795
 20
94.71681855620772
 10
86.03149113810104
 20
105.1025225336701
 10
84.77813689478352
 20
111.3468958770056
 10
82.09324876384016
 20
116.6096615703651
 10
81.71943057936914
 20
126.7498138057732
 10
81.88497874391487
 20
140.5414782902596
 10
83.24012510433931
 20
154.2884553074657
 10
85.26990269490397
 20
164.2162209452067
 10
88.46546138352096
 20
169.8696954078684
 10
91.53488761330663
 20
175.4970118820864
 10
95.76749535960971
 20
188.6771925859562
 10
100.5019952407337
 20
207.8233872761217
 10
103.730877311591
 20
221.1088959988103
 10
105.8152689827238
 20
238.8435887866222
 10
108.0336683667155
 20
258.1530596726935
 10
109.2542445730941
 20
282.452399533227
 10
111.0411165517461
 20
301.5156848491358
 10
110.7806530511652
 20
325.7926591929845
 10
109.617201931087
 20
360.2708373277181
 10
110.1666222690482
 20
380.5152531621445
 10
113.2064990180197
 20
400.7857092158246
 10
118.2929046842673
 20
423.5189625906201
 10
123.7151661500774
 20
448.5596691450837
 10
126.6865833943029
 20
472.4391315045153
 10
127.7104801928317
 20
492.6660798408448
 10
129.1639704240878
 20
508.62858910574
 10
127.7766385503582
 20
524.1085012304722
 10
126.0264695449677
 20
541.3393708046498
 10
125.1153712358927
 20
554.5657078199468
 10
126.3214719893994
 20
568.3571944886267
 10
128.1592152558914
 20
586.4019132834812
 10
130.6521553442507
 20
605.9452592778313
 10
134.3900998577964
 20
636.1998659582042
 10
135.8281030543366
 20
657.8089191641112
 10
136.2456066415234
 20
692.0707641327652
 10
136.9394563745345
 20
717.7600468943552
 10
136.8110302995546
 20
727.5737332179375
  0
LWPOLYLINE
  5
A14
330
1F
100
AcDbEntity
  8
ceco.net 136
100
AcDbPolyline
 90
       29
 70
     0
 43
0.0
 10
143.4538196590438
 20
119.9340132571222
 10
144.5758843772182
 20
115.4057642870753
 10
144.5488685761802
 20
108.4650827883137
 10
144.361918992331
 20
99.24915683534152
 10
144.6809922504144
 20
88.64686120831777
 10
144.9088848652309
 20
75.28161123811116
 10
145.8167603987021
 20
61.76845104569395
 10
148.2783185502967
 20
50.83003504904581
 10
151.17125190784
 20
41.37325071248199
 10
151.7306226691061
 20
34.82573831720969
 10
151.6110008644773
 20
28.65933268313369
 10
149.4237955731705
 20
24.82700622239519
 10
142.3946720700541
 20
20.87013338355347
 10
131.1286377459737
 20
19.23849064351657
 10
118.7308605922225
 20
17.8912843081207
 10
104.7907609026879
 20
17.56689169566527
 10
94.71604796272004
 20
17.38522342166959
 10
85.76498129571064
 20
19.6874225225514
 10
79.36327372920004
 20
21.48016706472333
 10
73.02343718140491
 20
24.18465153499482
 10
71.91563153185143
 20
26.94609648591494
 10
70.17202050053583
 20
36.61297261452034
 10
71.00547329002893
 20
48.62227012102948
 10
72.39880944439391
 20
57.97837908922076
 10
73.32479230910848
 20
70.27101765753229
 10
71.74510288587043
 20
83.41766564528541
 10
71.83504224872194
 20
95.04480236952872
 10
73.35536904338368
 20
104.1624698564049
 10
75.86888989055751
 20
114.954017204667
  0
LWPOLYLINE
  5
A15
330
1F
100
AcDbEntity
  8
ceco.net 136
100
AcDbPolyline
 90
        4
 70
     0
 43
0.0
 10
82.69271909568942
 20
90.10922904110429
 10
81.63430727154263
 20
92.2820019903412
 10
78.4459820987422
 20
96.02654635362739
 10
75.850338445548
 20
99.44725412462673
  0
LWPOLYLINE
  5
A16
330
1F
100
AcDbEntity
  8
ceco.net 136
100
AcDbPolyline
 90
        6
 70
     0
 43
0.0
 10
81.07292689157929
 20
128.2609934428649
 10
79.432467943775
 20
120.4254497591676
 10
76.78130245290049
 20
106.3847223555569
 10
74.81763781038353
 20
96.53302475896907
 10
74.4464093551187
 20
88.36658932760599
 10
75.6459688624318
 20
78.43471637430354
  0
LWPOLYLINE
  5
A17
330
1F
100
AcDbEntity
  8
ceco.net 136
100
AcDbPolyline
 90
        5
 70
     0
 43
0.0
 10
83.84126833686877
 20
94.24616011277464
 10
83.43415079855276
 20
98.65345218985055
 10
79.58562694898319
 20
106.2282062640065
 10
77.49655475356576
 20
109.3813965352268
 10
77.38431809877965
 20
109.5783284630442
  0
LWPOLYLINE
  5
A18
330
1F
100
AcDbEntity
  8
ceco.net 136
100
AcDbPolyline
 90
       12
 70
     0
 43
0.0
 10
89.067703356136
 20
170.9738125687323
 10
85.82356036424698
 20
169.5861157353277
 10
82.90083732504172
 20
166.0474412034886
 10
78.70577393191524
 20
157.8965914444978
 10
75.82133917878763
 20
148.1503652252484
 10
75.67131549205896
 20
140.7043018391505
 10
73.89209206144187
 20
132.4643691784501
 10
71.85591673157887
 20
124.020607388843
 10
70.47272626721223
 20
115.3074815863845
 10
70.3288116595786
 20
106.0653789473349
 10
70.9705192838328
 20
94.51784353127834
 10
71.75165611613465
 20
84.26485094253166
  0
LWPOLYLINE
  5
A19
330
1F
100
AcDbEntity
  8
ceco.net 136
100
AcDbPolyline
 90
        8
 70
     0
 43
0.0
 10
75.86353337433138
 20
148.2929353333588
 10
73.18319580406296
 20
146.0856493966105
 10
70.58051835667811
 20
143.513273168395
 10
67.42533427541275
 20
137.5290338091446
 10
66.52054673998009
 20
130.8226329200437
 10
67.21817231084514
 20
126.1016672718113
 10
69.63339917706434
 20
122.1187360512061
 10
71.15648369449445
 20
119.6146718369845
  0
LWPOLYLINE
  5
A1A
330
1F
100
AcDbEntity
  8
ceco.net 136
100
AcDbPolyline
 90
       11
 70
     0
 43
0.0
 10
151.6110008644773
 20
28.65933268313369
 10
151.7142563795914
 20
24.2588661525076
 10
150.8104306850555
 20
16.55862269080898
 10
149.3790801840759
 20
11.35844449562739
 10
139.3434661985111
 20
7.850191340423862
 10
109.8688654724355
 20
3.988643763918275
 10
91.79526789637293
 20
4.903527642582616
 10
79.05021911892617
 20
7.363240468748699
 10
77.02888690118925
 20
8.813893022903585
 10
74.56669957321082
 20
17.76160052260422
 10
73.02343718140491
 20
24.18465153499482
  0
LWPOLYLINE
  5
A1B
330
1F
100
AcDbEntity
  8
ceco.net 136
100
AcDbPolyline
 90
       14
 70
     0
 43
0.0
 10
136.9559055135596
 20
24.27224198595467
 10
137.1391989100629
 20
26.65972617559475
 10
136.1019638434299
 20
31.02427252359518
 10
131.6941203948545
 20
36.96765396168188
 10
125.7570504895966
 20
40.92665976250486
 10
116.9912485635222
 20
43.08469987094554
 10
110.6758394192866
 20
43.41181578715236
 10
105.6205451976666
 20
42.11449984585158
 10
99.84153299387799
 20
38.54401153884623
 10
96.22020557617361
 20
34.79958280739481
 10
93.43789212994124
 20
29.79975977250148
 10
93.26346331374679
 20
26.554728942898
 10
93.83433432049059
 20
23.58145568322811
 10
94.74577690980368
 20
21.71145715219324
  0
LWPOLYLINE
  5
A1C
330
1F
100
AcDbEntity
  8
ceco.net 136
100
AcDbPolyline
 90
        9
 70
     0
 43
0.0
 10
120.3283314455347
 20
24.31038135354413
 10
121.1043531469613
 20
25.7923158643365
 10
120.9573756311783
 20
29.19893578899745
 10
118.9267325170249
 20
33.92583584718522
 10
116.2809975826348
 20
35.60122149438882
 10
111.8676606246253
 20
36.96020022098878
 10
109.7560065330753
 20
38.0037847262713
 10
108.7151108487205
 20
39.67454277849924
 10
107.105559763454
 20
41.05324654742048
  0
LWPOLYLINE
  5
A1D
330
1F
100
AcDbEntity
  8
ceco.net 136
100
AcDbPolyline
 90
       10
 70
     0
 43
0.0
 10
109.7560065330753
 20
38.0037847262713
 10
107.3819903740513
 20
37.84586710158066
 10
103.6580842271632
 20
36.48613688341129
 10
100.7657881689283
 20
34.44222877858749
 10
100.1865357874294
 20
33.11663118151386
 10
101.3423395808104
 20
31.98580788338745
 10
106.1051127019254
 20
30.87255724548754
 10
110.726784529902
 20
32.59438728474606
 10
116.0534058915345
 20
34.23518317791263
 10
118.6408603912241
 20
33.92305017092667
  0
LWPOLYLINE
  5
A1E
330
1F
100
AcDbEntity
  8
ceco.net 136
100
AcDbPolyline
 90
        7
 70
     0
 43
0.0
 10
128.1331796028553
 20
25.61596185002201
 10
130.2995420737715
 20
28.65202513227416
 10
130.8891956178968
 20
32.09955765503025
 10
129.6184926374053
 20
35.66960493384385
 10
126.4581384211851
 20
38.15278839681468
 10
122.4222674574093
 20
40.16481239571589
 10
119.0256527873998
 20
41.05111257034366
  0
LWPOLYLINE
  5
A1F
330
1F
100
AcDbEntity
  8
ceco.net 136
100
AcDbPolyline
 90
        9
 70
     0
 43
0.0
 10
125.2359780502274
 20
38.23828506324389
 10
123.1252836063276
 20
38.19363937198261
 10
120.7665762628948
 20
37.69518888705647
 10
119.5107056558981
 20
36.85651600538619
 10
119.7888686664327
 20
35.54022651330512
 10
121.0343381109169
 20
34.25696446934978
 10
123.8737586824072
 20
34.11183920232474
 10
126.3416937297279
 20
34.63337207693939
 10
129.2177124024647
 20
35.12688450339851
  0
LWPOLYLINE
  5
A20
330
1F
100
AcDbEntity
  8
ceco.net 136
100
AcDbPolyline
 90
        4
 70
     0
 43
0.0
 10
136.3892788220937
 20
24.78241050644669
 10
124.7589054366926
 20
23.41356810859451
 10
109.8363290027464
 20
22.43694178785915
 10
94.84902789870375
 20
22.30655432731509
  0
LWPOLYLINE
  5
A21
330
1F
100
AcDbEntity
  8
ceco.net 136
100
AcDbPolyline
 90
       15
 70
     0
 43
0.0
 10
278.8141867594049
 20
739.8293357682206
 10
253.3964477239578
 20
740.2602687455868
 10
220.7288567911973
 20
737.3497478504305
 10
181.9160584510655
 20
732.822812823187
 10
120.7864886239349
 20
725.7088835916221
 10
67.0954073973462
 20
720.5353016234283
 10
-1.797113803490901
 20
719.888654682478
 10
-21.52667006112096
 20
722.1521221960927
 10
-25.7316292569385
 20
726.3559369730927
 10
-28.15041109533922
 20
746.7738852607368
 10
-36.2365195564962
 20
798.8344509549989
 10
-37.20664366221626
 20
829.8771620857934
 10
-38.50057769830073
 20
867.0632223759184
 10
-36.55967664428771
 20
889.6983039526418
 10
-35.04659736802295
 20
898.0197139431425
  0
LWPOLYLINE
  5
A22
330
1F
100
AcDbEntity
  8
ceco.net 136
100
AcDbPolyline
 90
        8
 70
     0
 43
0.0
 10
262.5677834063253
 20
1037.652268788874
 10
214.523587864619
 20
1026.513920933325
 10
156.9291607240757
 20
1014.34915478454
 10
116.3700084251786
 20
1004.211714180385
 10
70.53849927717692
 20
1001.778760950656
 10
15.78328461039291
 20
998.9401800357597
 10
-20.72040944847231
 20
1000.562284335799
 10
-23.87081771291832
 20
1001.00784581437
  0
LWPOLYLINE
  5
A23
330
1F
100
AcDbEntity
  8
ceco.net 136
100
AcDbPolyline
 90
        6
 70
     0
 43
0.0
 10
-23.87081771291832
 20
1001.00784581437
 10
-24.81764961498811
 20
1000.555374846115
 10
-24.88685093078402
 20
999.1738833613226
 10
-24.88685093078402
 20
997.1010364733672
 10
-24.19549061585257
 20
991.2974716274476
 10
-25.00992482225683
 20
979.5406823523791
  0
LWPOLYLINE
  5
A24
330
1F
100
AcDbEntity
  8
ceco.net 136
100
AcDbPolyline
 90
       13
 70
     0
 43
0.0
 10
262.5677834063253
 20
1037.652268788874
 10
263.7910076238085
 20
1037.002119746219
 10
265.1776453092224
 20
1034.576076006089
 10
270.203227655088
 20
1018.635476996536
 10
272.9765030259159
 20
1011.704446019763
 10
279.5760888836866
 20
987.6691766922505
 10
287.9141945892342
 20
961.5431770917695
 10
295.7228449448621
 20
921.0897410892755
 10
298.5627102610806
 20
883.8297086161475
 10
293.9660455043622
 20
828.3363458990464
 10
285.4477552409662
 20
782.914580414399
 10
279.4135310759884
 20
745.3001317674079
 10
278.8141867594049
 20
739.8293357682206
  0
LWPOLYLINE
  5
A25
330
1F
100
AcDbEntity
  8
ceco.net 136
100
AcDbPolyline
 90
        5
 70
     0
 43
0.0
 10
58.39170983506392
 20
1275.605492824439
 10
50.05295128705711
 20
1267.886373589604
 10
28.1252739903266
 20
1257.38842020317
 10
9.903784141897631
 20
1255.5358641021
 10
-4.611518258229807
 20
1259.549464694103
  0
LINE
  5
A26
330
1F
100
AcDbEntity
  8
ceco.net 136
100
AcDbLine
 10
62.98359237678141
 20
21.95860094890633
 30
0.0
 11
67.7541452088235
 21
23.37255179851638
 31
0.0
  0
ENDSEC
  0
SECTION
  2
OBJECTS
  0
DICTIONARY
  5
C
330
0
100
AcDbDictionary
281
     1
  3
ACAD_GROUP
350
D
  3
ACAD_LAYOUT
350
1A
  3
ACAD_MLINESTYLE
350
17
  3
ACAD_PLOTSETTINGS
350
19
  3
ACAD_PLOTSTYLENAME
350
E
  3
AcDbVariableDictionary
350
115
  3
DWGPROPS
350
8E3
  0
DICTIONARY
  5
901
330
2
100
AcDbDictionary
280
     1
281
     1
  3
ACAD_LAYERFILTERS
360
A27
  3
ACAD_LAYERSTATES
360
902
  0
DICTIONARY
  5
8F6
330
8F5
100
AcDbDictionary
280
     1
281
     1
  3
ACAD_XREC_ROUNDTRIP
360
8F7
  0
DICTIONARY
  5
D
102
{ACAD_REACTORS
330
C
102
}
330
C
100
AcDbDictionary
281
     1
  0
DICTIONARY
  5
1A
102
{ACAD_REACTORS
330
C
102
}
330
C
100
AcDbDictionary
281
     1
  3
Layout1
350
1E
  3
Layout2
350
26
  3
Model
350
22
  0
DICTIONARY
  5
17
102
{ACAD_REACTORS
330
C
102
}
330
C
100
AcDbDictionary
281
     1
  3
Standard
350
18
  0
DICTIONARY
  5
19
102
{ACAD_REACTORS
330
C
102
}
330
C
100
AcDbDictionary
281
     1
  0
ACDBDICTIONARYWDFLT
  5
E
102
{ACAD_REACTORS
330
C
102
}
330
C
100
AcDbDictionary
281
     1
  3
Normal
350
F
100
AcDbDictionaryWithDefault
340
F
  0
DICTIONARY
  5
115
102
{ACAD_REACTORS
330
C
102
}
330
C
100
AcDbDictionary
281
     1
  3
DIMASSOC
350
117
  3
HIDETEXT
350
116
  0
XRECORD
  5
8E3
102
{ACAD_REACTORS
330
C
102
}
330
C
100
AcDbXrecord
280
     1
  1
DWGPROPS COOKIE
  2
Ceco.NET-Trees-and-Plants - T - xx . 67 . dwg
  3

  4
ceco.net
  6

  7

  8
peacosta
  9

300
=
301
=
302
=
303
=
304
=
305
=
306
=
307
=
308
=
309
=
 40
0.0450312037037037
 41
2455079.811409143
 42
2455838.656599502
  1

 90
        0
  0
DICTIONARY
  5
A27
102
{ACAD_REACTORS
330
901
102
}
330
901
100
AcDbDictionary
280
     1
281
     1
  0
DICTIONARY
  5
902
102
{ACAD_REACTORS
330
901
102
}
330
901
100
AcDbDictionary
281
     1
  0
XRECORD
  5
8F7
102
{ACAD_REACTORS
330
8F6
102
}
330
8F6
100
AcDbXrecord
280
     1
102
MATERIAL
340
0
  0
LAYOUT
  5
1E
102
{ACAD_REACTORS
330
1A
102
}
330
1A
100
AcDbPlotSettings
  1

  2
Microsoft Office Document Image Writer
  4

  6

 40
0.0
 41
0.0
 42
0.0
 43
0.0
 44
0.0
 45
0.0
 46
0.0
 47
0.0
 48
0.0
 49
0.0
140
0.0
141
0.0
142
1.0
143
1.0
 70
   688
 72
     0
 73
     0
 74
     5
  7

 75
    16
147
1.0
148
0.0
149
0.0
100
AcDbLayout
  1
Layout1
 70
     1
 71
     1
 10
0.0
 20
0.0
 11
420.0
 21
297.0
 12
0.0
 22
0.0
 32
0.0
 14
1.000000000000000E+20
 24
1.000000000000000E+20
 34
1.000000000000000E+20
 15
-1.000000000000000E+20
 25
-1.000000000000000E+20
 35
-1.000000000000000E+20
146
0.0
 13
0.0
 23
0.0
 33
0.0
 16
1.0
 26
0.0
 36
0.0
 17
0.0
 27
1.0
 37
0.0
 76
     0
330
1B
  0
LAYOUT
  5
26
102
{ACAD_REACTORS
330
1A
102
}
330
1A
100
AcDbPlotSettings
  1

  2
Microsoft Office Document Image Writer
  4

  6

 40
0.0
 41
0.0
 42
0.0
 43
0.0
 44
0.0
 45
0.0
 46
0.0
 47
0.0
 48
0.0
 49
0.0
140
0.0
141
0.0
142
1.0
143
1.0
 70
   688
 72
     0
 73
     0
 74
     5
  7

 75
    16
147
1.0
148
0.0
149
0.0
100
AcDbLayout
  1
Layout2
 70
     1
 71
     2
 10
0.0
 20
0.0
 11
12.0
 21
9.0
 12
0.0
 22
0.0
 32
0.0
 14
0.0
 24
0.0
 34
0.0
 15
0.0
 25
0.0
 35
0.0
146
0.0
 13
0.0
 23
0.0
 33
0.0
 16
1.0
 26
0.0
 36
0.0
 17
0.0
 27
1.0
 37
0.0
 76
     0
330
23
  0
LAYOUT
  5
22
102
{ACAD_REACTORS
330
1A
102
}
330
1A
100
AcDbPlotSettings
  1

  2
Microsoft Office Document Image Writer
  4

  6

 40
0.0
 41
0.0
 42
0.0
 43
0.0
 44
0.0
 45
0.0
 46
0.0
 47
0.0
 48
0.0
 49
0.0
140
0.0
141
0.0
142
1.0
143
1.0
 70
  1712
 72
     0
 73
     0
 74
     0
  7

 75
     0
147
1.0
148
0.0
149
0.0
100
AcDbLayout
  1
Model
 70
     1
 71
     0
 10
0.0
 20
0.0
 11
12.0
 21
9.0
 12
0.0
 22
0.0
 32
0.0
 14
0.0
 24
0.0
 34
0.0
 15
0.0
 25
0.0
 35
0.0
146
0.0
 13
0.0
 23
0.0
 33
0.0
 16
1.0
 26
0.0
 36
0.0
 17
0.0
 27
1.0
 37
0.0
 76
     0
330
1F
  0
MLINESTYLE
  5
18
102
{ACAD_REACTORS
330
17
102
}
330
17
100
AcDbMlineStyle
  2
STANDARD
 70
     0
  3

 62
   256
 51
90.0
 52
90.0
 71
     2
 49
0.5
 62
   256
  6
BYLAYER
 49
-0.5
 62
   256
  6
BYLAYER
  0
ACDBPLACEHOLDER
  5
F
102
{ACAD_REACTORS
330
E
102
}
330
E
  0
DICTIONARYVAR
  5
117
102
{ACAD_REACTORS
330
115
102
}
330
115
100
DictionaryVariables
280
     0
  1
2
  0
DICTIONARYVAR
  5
116
102
{ACAD_REACTORS
330
115
102
}
330
115
100
DictionaryVariables
280
     0
  1
1
  0
ENDSEC
  0
EOF
