  0
SECTION
  2
HEADER
  9
$ACADVER
  1
AC1015
  9
$ACADMAINTVER
 70
    13
  9
$DWGCODEPAGE
  3
ANSI_1252
  9
$INSBASE
 10
0.0
 20
0.0
 30
0.0
  9
$EXTMIN
 10
-414.1678634484414
 20
-3.953173782225348
 30
-0.0015258207003583
  9
$EXTMAX
 10
393.0914776453573
 20
1719.696286944483
 30
0.0000000349246037
  9
$LIMMIN
 10
0.0
 20
0.0
  9
$LIMMAX
 10
420.0
 20
297.0
  9
$ORTHOMODE
 70
     0
  9
$REGENMODE
 70
     1
  9
$FILLMODE
 70
     1
  9
$QTEXTMODE
 70
     0
  9
$MIRRTEXT
 70
     1
  9
$LTSCALE
 40
1.0
  9
$ATTMODE
 70
     1
  9
$TEXTSIZE
 40
2.5
  9
$TRACEWID
 40
1.0
  9
$TEXTSTYLE
  7
Standard
  9
$CLAYER
  8
ceco.net 223
  9
$CELTYPE
  6
ByLayer
  9
$CECOLOR
 62
   256
  9
$CELTSCALE
 40
1.0
  9
$DISPSILH
 70
     0
  9
$DIMSCALE
 40
1.0
  9
$DIMASZ
 40
2.5
  9
$DIMEXO
 40
0.625
  9
$DIMDLI
 40
3.75
  9
$DIMRND
 40
0.0
  9
$DIMDLE
 40
0.0
  9
$DIMEXE
 40
1.25
  9
$DIMTP
 40
0.0
  9
$DIMTM
 40
0.0
  9
$DIMTXT
 40
2.5
  9
$DIMCEN
 40
2.5
  9
$DIMTSZ
 40
0.0
  9
$DIMTOL
 70
     0
  9
$DIMLIM
 70
     0
  9
$DIMTIH
 70
     0
  9
$DIMTOH
 70
     0
  9
$DIMSE1
 70
     0
  9
$DIMSE2
 70
     0
  9
$DIMTAD
 70
     1
  9
$DIMZIN
 70
     8
  9
$DIMBLK
  1

  9
$DIMASO
 70
     1
  9
$DIMSHO
 70
     1
  9
$DIMPOST
  1

  9
$DIMAPOST
  1

  9
$DIMALT
 70
     0
  9
$DIMALTD
 70
     3
  9
$DIMALTF
 40
0.03937007874016
  9
$DIMLFAC
 40
1.0
  9
$DIMTOFL
 70
     1
  9
$DIMTVP
 40
0.0
  9
$DIMTIX
 70
     0
  9
$DIMSOXD
 70
     0
  9
$DIMSAH
 70
     0
  9
$DIMBLK1
  1

  9
$DIMBLK2
  1

  9
$DIMSTYLE
  2
ISO-25
  9
$DIMCLRD
 70
     0
  9
$DIMCLRE
 70
     0
  9
$DIMCLRT
 70
     0
  9
$DIMTFAC
 40
1.0
  9
$DIMGAP
 40
0.625
  9
$DIMJUST
 70
     0
  9
$DIMSD1
 70
     0
  9
$DIMSD2
 70
     0
  9
$DIMTOLJ
 70
     0
  9
$DIMTZIN
 70
     8
  9
$DIMALTZ
 70
     0
  9
$DIMALTTZ
 70
     0
  9
$DIMUPT
 70
     0
  9
$DIMDEC
 70
     2
  9
$DIMTDEC
 70
     2
  9
$DIMALTU
 70
     2
  9
$DIMALTTD
 70
     3
  9
$DIMTXSTY
  7
Standard
  9
$DIMAUNIT
 70
     0
  9
$DIMADEC
 70
     0
  9
$DIMALTRND
 40
0.0
  9
$DIMAZIN
 70
     0
  9
$DIMDSEP
 70
    44
  9
$DIMATFIT
 70
     3
  9
$DIMFRAC
 70
     0
  9
$DIMLDRBLK
  1

  9
$DIMLUNIT
 70
     2
  9
$DIMLWD
 70
    -2
  9
$DIMLWE
 70
    -2
  9
$DIMTMOVE
 70
     0
  9
$LUNITS
 70
     2
  9
$LUPREC
 70
     2
  9
$SKETCHINC
 40
1.0
  9
$FILLETRAD
 40
10.0
  9
$AUNITS
 70
     0
  9
$AUPREC
 70
     0
  9
$MENU
  1
.
  9
$ELEVATION
 40
0.0
  9
$PELEVATION
 40
0.0
  9
$THICKNESS
 40
0.0
  9
$LIMCHECK
 70
     0
  9
$CHAMFERA
 40
10.0
  9
$CHAMFERB
 40
10.0
  9
$CHAMFERC
 40
20.0
  9
$CHAMFERD
 40
0.0
  9
$SKPOLY
 70
     0
  9
$TDCREATE
 40
2455079.811409143
  9
$TDUCREATE
 40
2455079.936409144
  9
$TDUPDATE
 40
2456937.947760104
  9
$TDUUPDATE
 40
2456938.072760104
  9
$TDINDWG
 40
0.0485225810
  9
$TDUSRTIMER
 40
0.0485225810
  9
$USRTIMER
 70
     1
  9
$ANGBASE
 50
0.0
  9
$ANGDIR
 70
     0
  9
$PDMODE
 70
     0
  9
$PDSIZE
 40
0.0
  9
$PLINEWID
 40
0.0
  9
$SPLFRAME
 70
     0
  9
$SPLINETYPE
 70
     6
  9
$SPLINESEGS
 70
     8
  9
$HANDSEED
  5
7B6E
  9
$SURFTAB1
 70
     6
  9
$SURFTAB2
 70
     6
  9
$SURFTYPE
 70
     6
  9
$SURFU
 70
     6
  9
$SURFV
 70
     6
  9
$UCSBASE
  2

  9
$UCSNAME
  2

  9
$UCSORG
 10
0.0
 20
0.0
 30
0.0
  9
$UCSXDIR
 10
1.0
 20
0.0
 30
0.0
  9
$UCSYDIR
 10
0.0
 20
1.0
 30
0.0
  9
$UCSORTHOREF
  2

  9
$UCSORTHOVIEW
 70
     0
  9
$UCSORGTOP
 10
0.0
 20
0.0
 30
0.0
  9
$UCSORGBOTTOM
 10
0.0
 20
0.0
 30
0.0
  9
$UCSORGLEFT
 10
0.0
 20
0.0
 30
0.0
  9
$UCSORGRIGHT
 10
0.0
 20
0.0
 30
0.0
  9
$UCSORGFRONT
 10
0.0
 20
0.0
 30
0.0
  9
$UCSORGBACK
 10
0.0
 20
0.0
 30
0.0
  9
$PUCSBASE
  2

  9
$PUCSNAME
  2

  9
$PUCSORG
 10
0.0
 20
0.0
 30
0.0
  9
$PUCSXDIR
 10
1.0
 20
0.0
 30
0.0
  9
$PUCSYDIR
 10
0.0
 20
1.0
 30
0.0
  9
$PUCSORTHOREF
  2

  9
$PUCSORTHOVIEW
 70
     0
  9
$PUCSORGTOP
 10
0.0
 20
0.0
 30
0.0
  9
$PUCSORGBOTTOM
 10
0.0
 20
0.0
 30
0.0
  9
$PUCSORGLEFT
 10
0.0
 20
0.0
 30
0.0
  9
$PUCSORGRIGHT
 10
0.0
 20
0.0
 30
0.0
  9
$PUCSORGFRONT
 10
0.0
 20
0.0
 30
0.0
  9
$PUCSORGBACK
 10
0.0
 20
0.0
 30
0.0
  9
$USERI1
 70
     0
  9
$USERI2
 70
     0
  9
$USERI3
 70
     0
  9
$USERI4
 70
     0
  9
$USERI5
 70
     0
  9
$USERR1
 40
0.0
  9
$USERR2
 40
0.0
  9
$USERR3
 40
0.0
  9
$USERR4
 40
0.0
  9
$USERR5
 40
0.0
  9
$WORLDVIEW
 70
     1
  9
$SHADEDGE
 70
     3
  9
$SHADEDIF
 70
    70
  9
$TILEMODE
 70
     1
  9
$MAXACTVP
 70
    64
  9
$PINSBASE
 10
0.0
 20
0.0
 30
0.0
  9
$PLIMCHECK
 70
     0
  9
$PEXTMIN
 10
1.000000000000000E+20
 20
1.000000000000000E+20
 30
1.000000000000000E+20
  9
$PEXTMAX
 10
-1.000000000000000E+20
 20
-1.000000000000000E+20
 30
-1.000000000000000E+20
  9
$PLIMMIN
 10
0.0
 20
0.0
  9
$PLIMMAX
 10
420.0
 20
297.0
  9
$UNITMODE
 70
     0
  9
$VISRETAIN
 70
     1
  9
$PLINEGEN
 70
     0
  9
$PSLTSCALE
 70
     1
  9
$TREEDEPTH
 70
  3020
  9
$CMLSTYLE
  2
Standard
  9
$CMLJUST
 70
     0
  9
$CMLSCALE
 40
20.0
  9
$PROXYGRAPHICS
 70
     1
  9
$MEASUREMENT
 70
     1
  9
$CELWEIGHT
370
    -1
  9
$ENDCAPS
280
     0
  9
$JOINSTYLE
280
     0
  9
$LWDISPLAY
290
     0
  9
$INSUNITS
 70
     4
  9
$HYPERLINKBASE
  1

  9
$STYLESHEET
  1

  9
$XEDIT
290
     1
  9
$CEPSNTYPE
380
     0
  9
$PSTYLEMODE
290
     1
  9
$FINGERPRINTGUID
  2
{81085373-3A21-4932-80AA-8F6C3258C50C}
  9
$VERSIONGUID
  2
{C9E74EC7-6AA1-4AC1-89C1-E9EE44AC19C3}
  9
$EXTNAMES
290
     1
  9
$PSVPSCALE
 40
0.0
  9
$OLESTARTUP
290
     0
  0
ENDSEC
  0
SECTION
  2
CLASSES
  0
CLASS
  1
ACDBDICTIONARYWDFLT
  2
AcDbDictionaryWithDefault
  3
AutoCAD 2000
 90
        0
280
     0
281
     0
  0
CLASS
  1
ACDBPLACEHOLDER
  2
AcDbPlaceHolder
  3
AutoCAD 2000
 90
        0
280
     0
281
     0
  0
CLASS
  1
LAYOUT
  2
AcDbLayout
  3
AutoCAD 2000
 90
        0
280
     0
281
     0
  0
CLASS
  1
DICTIONARYVAR
  2
AcDbDictionaryVar
  3
AutoCAD 2000
 90
        0
280
     0
281
     0
  0
ENDSEC
  0
SECTION
  2
TABLES
  0
TABLE
  2
VPORT
  5
8
330
0
100
AcDbSymbolTable
 70
     3
  0
VPORT
  5
7B6D
330
8
100
AcDbSymbolTableRecord
100
AcDbViewportTableRecord
  2
*Active
 70
     0
 10
0.0
 20
0.0
 11
1.0
 21
1.0
 12
-10.53819290154206
 22
857.871556581129
 13
0.0
 23
0.0
 14
10.0
 24
10.0
 15
10.0
 25
10.0
 16
0.0
 26
0.0
 36
1.0
 17
0.0
 27
0.0
 37
0.0
 40
1735.888391808791
 41
2.184834123222748
 42
50.0
 43
0.0
 44
0.0
 50
0.0
 51
0.0
 71
     0
 72
   100
 73
     1
 74
     3
 75
     0
 76
     0
 77
     0
 78
     0
281
     0
 65
     1
110
0.0
120
0.0
130
0.0
111
1.0
121
0.0
131
0.0
112
0.0
122
1.0
132
0.0
 79
     0
146
0.0
  0
ENDTAB
  0
TABLE
  2
LTYPE
  5
5
330
0
100
AcDbSymbolTable
 70
     1
  0
LTYPE
  5
14
330
5
100
AcDbSymbolTableRecord
100
AcDbLinetypeTableRecord
  2
ByBlock
 70
     0
  3

 72
    65
 73
     0
 40
0.0
  0
LTYPE
  5
15
330
5
100
AcDbSymbolTableRecord
100
AcDbLinetypeTableRecord
  2
ByLayer
 70
     0
  3

 72
    65
 73
     0
 40
0.0
  0
LTYPE
  5
16
330
5
100
AcDbSymbolTableRecord
100
AcDbLinetypeTableRecord
  2
Continuous
 70
     0
  3
Solid line
 72
    65
 73
     0
 40
0.0
  0
ENDTAB
  0
TABLE
  2
LAYER
  5
2
102
{ACAD_XDICTIONARY
360
90B
102
}
330
0
100
AcDbSymbolTable
 70
     2
  0
LAYER
  5
10
330
2
100
AcDbSymbolTableRecord
100
AcDbLayerTableRecord
  2
0
 70
     0
 62
     7
  6
Continuous
370
    -3
390
F
  0
LAYER
  5
7A71
102
{ACAD_XDICTIONARY
360
7A72
102
}
330
2
100
AcDbSymbolTableRecord
100
AcDbLayerTableRecord
  2
ceco.net 223
 70
     0
 62
     7
  6
Continuous
370
    -3
390
F
1001
AcAecLayerStandard
1000

1000

  0
ENDTAB
  0
TABLE
  2
STYLE
  5
3
330
0
100
AcDbSymbolTable
 70
     1
  0
STYLE
  5
11
330
3
100
AcDbSymbolTableRecord
100
AcDbTextStyleTableRecord
  2
Standard
 70
     0
 40
0.0
 41
1.0
 50
0.0
 71
     0
 42
2.5
  3
txt
  4

  0
ENDTAB
  0
TABLE
  2
VIEW
  5
6
330
0
100
AcDbSymbolTable
 70
     0
  0
ENDTAB
  0
TABLE
  2
UCS
  5
7
330
0
100
AcDbSymbolTable
 70
     0
  0
ENDTAB
  0
TABLE
  2
APPID
  5
9
330
0
100
AcDbSymbolTable
 70
    29
  0
APPID
  5
12
330
9
100
AcDbSymbolTableRecord
100
AcDbRegAppTableRecord
  2
ACAD
 70
     0
  0
APPID
  5
2C
330
9
100
AcDbSymbolTableRecord
100
AcDbRegAppTableRecord
  2
ACAD_DSTYLE_DIMJOGGED_JOGANGLE_SYMBOL
 70
     0
  0
APPID
  5
11B
330
9
100
AcDbSymbolTableRecord
100
AcDbRegAppTableRecord
  2
ACAD_NAV_VCDISPLAY
 70
     0
  0
APPID
  5
11C
330
9
100
AcDbSymbolTableRecord
100
AcDbRegAppTableRecord
  2
ACAD_MLEADERVER
 70
     0
  0
APPID
  5
8F8
330
9
100
AcDbSymbolTableRecord
100
AcDbRegAppTableRecord
  2
RAK
 70
     0
  0
APPID
  5
8F9
330
9
100
AcDbSymbolTableRecord
100
AcDbRegAppTableRecord
  2
AcAecLayerStandard
 70
     0
  0
APPID
  5
8FA
330
9
100
AcDbSymbolTableRecord
100
AcDbRegAppTableRecord
  2
ACAD_PSEXT
 70
     0
  0
APPID
  5
8FB
330
9
100
AcDbSymbolTableRecord
100
AcDbRegAppTableRecord
  2
AcDbBlockRepETag
 70
     0
  0
APPID
  5
8FC
330
9
100
AcDbSymbolTableRecord
100
AcDbRegAppTableRecord
  2
AcadAnnoPO
 70
     0
  0
APPID
  5
8FD
330
9
100
AcDbSymbolTableRecord
100
AcDbRegAppTableRecord
  2
ACAUTHENVIRON
 70
     0
  0
APPID
  5
8FE
330
9
100
AcDbSymbolTableRecord
100
AcDbRegAppTableRecord
  2
AcDbDynamicBlockTrueName
 70
     0
  0
APPID
  5
8FF
330
9
100
AcDbSymbolTableRecord
100
AcDbRegAppTableRecord
  2
AcDbDynamicBlockGUID
 70
     0
  0
APPID
  5
900
330
9
100
AcDbSymbolTableRecord
100
AcDbRegAppTableRecord
  2
AcLayerTools
 70
     0
  0
APPID
  5
901
330
9
100
AcDbSymbolTableRecord
100
AcDbRegAppTableRecord
  2
ACAD_EXEMPT_FROM_CAD_STANDARDS
 70
     0
  0
APPID
  5
902
330
9
100
AcDbSymbolTableRecord
100
AcDbRegAppTableRecord
  2
AcadAnnotative
 70
     0
  0
APPID
  5
903
330
9
100
AcDbSymbolTableRecord
100
AcDbRegAppTableRecord
  2
ACAD_DSTYLE_DIMJAG
 70
     0
  0
APPID
  5
904
330
9
100
AcDbSymbolTableRecord
100
AcDbRegAppTableRecord
  2
ACAD_DSTYLE_DIMTALN
 70
     0
  0
APPID
  5
905
330
9
100
AcDbSymbolTableRecord
100
AcDbRegAppTableRecord
  2
ACAD_DSTYLE_DIMBREAK
 70
     0
  0
APPID
  5
906
330
9
100
AcDbSymbolTableRecord
100
AcDbRegAppTableRecord
  2
AcadAnnoAV
 70
     0
  0
APPID
  5
907
330
9
100
AcDbSymbolTableRecord
100
AcDbRegAppTableRecord
  2
AcCmTransparency
 70
     0
  0
APPID
  5
908
330
9
100
AcDbSymbolTableRecord
100
AcDbRegAppTableRecord
  2
GradientColor1ACI
 70
     0
  0
APPID
  5
909
330
9
100
AcDbSymbolTableRecord
100
AcDbRegAppTableRecord
  2
GradientColor2ACI
 70
     0
  0
APPID
  5
90A
330
9
100
AcDbSymbolTableRecord
100
AcDbRegAppTableRecord
  2
ADE
 70
     0
  0
APPID
  5
7A74
330
9
100
AcDbSymbolTableRecord
100
AcDbRegAppTableRecord
  2
ACAD_DSTYLE_DIMEXT_LENGTH
 70
     0
  0
APPID
  5
7A75
330
9
100
AcDbSymbolTableRecord
100
AcDbRegAppTableRecord
  2
ACAD_DSTYLE_DIMEXT_ENABLED
 70
     0
  0
APPID
  5
7A76
330
9
100
AcDbSymbolTableRecord
100
AcDbRegAppTableRecord
  2
ACAD_DSTYLE_DIMARC_LENGTH_SYMBOL
 70
     0
  0
APPID
  5
7A77
330
9
100
AcDbSymbolTableRecord
100
AcDbRegAppTableRecord
  2
ACAD_DSTYLE_DIM_LINETYPE
 70
     0
  0
APPID
  5
7A78
330
9
100
AcDbSymbolTableRecord
100
AcDbRegAppTableRecord
  2
ACAD_DSTYLE_DIM_EXT1_LINETYPE
 70
     0
  0
APPID
  5
7A79
330
9
100
AcDbSymbolTableRecord
100
AcDbRegAppTableRecord
  2
ACAD_DSTYLE_DIM_EXT2_LINETYPE
 70
     0
  0
ENDTAB
  0
TABLE
  2
DIMSTYLE
  5
A
330
0
100
AcDbSymbolTable
 70
     2
100
AcDbDimStyleTable
 71
     0
  0
DIMSTYLE
105
27
330
A
100
AcDbSymbolTableRecord
100
AcDbDimStyleTableRecord
  2
ISO-25
 70
     0
 41
2.5
 42
0.625
 43
3.75
 44
1.25
 73
     0
 74
     0
 77
     1
 78
     8
140
2.5
141
2.5
143
0.03937007874016
147
0.625
171
     3
172
     1
271
     2
272
     2
274
     3
278
    44
283
     0
284
     8
340
11
  0
DIMSTYLE
105
2B
330
A
100
AcDbSymbolTableRecord
100
AcDbDimStyleTableRecord
  2
Standard
 70
     0
340
11
  0
ENDTAB
  0
TABLE
  2
BLOCK_RECORD
  5
1
330
0
100
AcDbSymbolTable
 70
     2
  0
BLOCK_RECORD
  5
1F
330
1
100
AcDbSymbolTableRecord
100
AcDbBlockTableRecord
  2
*Model_Space
340
22
  0
BLOCK_RECORD
  5
1B
330
1
100
AcDbSymbolTableRecord
100
AcDbBlockTableRecord
  2
*Paper_Space
340
1E
  0
BLOCK_RECORD
  5
23
330
1
100
AcDbSymbolTableRecord
100
AcDbBlockTableRecord
  2
*Paper_Space0
340
26
  0
ENDTAB
  0
ENDSEC
  0
SECTION
  2
BLOCKS
  0
BLOCK
  5
20
330
1F
100
AcDbEntity
  8
0
100
AcDbBlockBegin
  2
*Model_Space
 70
     0
 10
0.0
 20
0.0
 30
0.0
  3
*Model_Space
  1

  0
ENDBLK
  5
21
330
1F
100
AcDbEntity
  8
0
100
AcDbBlockEnd
  0
BLOCK
  5
1C
330
1B
100
AcDbEntity
 67
     1
  8
0
100
AcDbBlockBegin
  2
*Paper_Space
 70
     0
 10
0.0
 20
0.0
 30
0.0
  3
*Paper_Space
  1

  0
ENDBLK
  5
1D
330
1B
100
AcDbEntity
 67
     1
  8
0
100
AcDbBlockEnd
  0
BLOCK
  5
24
330
23
100
AcDbEntity
  8
0
100
AcDbBlockBegin
  2
*Paper_Space0
 70
     0
 10
0.0
 20
0.0
 30
0.0
  3
*Paper_Space0
  1

  0
ENDBLK
  5
25
330
23
100
AcDbEntity
  8
0
100
AcDbBlockEnd
  0
ENDSEC
  0
SECTION
  2
ENTITIES
  0
SPLINE
  5
7AF5
330
1F
100
AcDbEntity
  8
ceco.net 223
100
AcDbSpline
210
0.0
220
0.0
230
1.0
 70
     8
 71
     3
 72
    10
 73
     6
 74
     4
 42
0.0000000001
 43
0.0000000001
 44
0.0000000001
 40
0.0
 40
0.0
 40
0.0
 40
0.0
 40
44.32991172876431
 40
117.0121416408961
 40
187.6557086774636
 40
187.6557086774636
 40
187.6557086774636
 40
187.6557086774636
 10
-1.251504238017332
 20
983.6992614145092
 30
0.0
 10
-1.368810149834095
 20
968.8602086500084
 30
0.0
 10
-1.678447941418306
 20
929.6914109650407
 30
0.0
 10
16.76963303039629
 20
869.1950885284599
 30
0.0
 10
22.69760055680627
 20
821.7767424059182
 30
0.0
 10
25.61942468238521
 20
798.4048080829579
 30
0.0
 11
-1.251504238017332
 21
983.6992614145092
 31
0.0
 11
0.0920387999158266
 21
939.3897142944442
 31
0.0
 11
14.87105765849173
 21
868.2259092628283
 31
0.0
 11
25.61942468238521
 21
798.4048080829579
 31
0.0
  0
SPLINE
  5
7AF6
330
1F
100
AcDbEntity
  8
ceco.net 223
100
AcDbSpline
210
0.0
220
0.0
230
1.0
 70
     8
 71
     3
 72
    14
 73
    10
 74
     0
 42
0.0000000001
 43
0.0000000001
 40
0.0
 40
0.0
 40
0.0
 40
0.0
 40
0.3861693084707933
 40
1.144007899744859
 40
2.409630294640346
 40
5.016230718147735
 40
5.111051179919752
 40
5.201091269023211
 40
6.071276830907899
 40
6.071276830907899
 40
6.071276830907899
 40
6.071276830907899
 10
220.0975293437422
 20
721.8971104545853
 30
0.0
 10
219.4542805891287
 20
722.2105530970948
 30
0.0
 10
217.5486872631281
 20
723.1391117662097
 30
0.0
 10
217.0860422803243
 20
728.1405511348512
 30
0.0
 10
221.2139854974239
 20
735.5050439647311
 30
0.0
 10
227.0241556718374
 20
739.261251886739
 30
0.0
 10
231.7021972321199
 20
741.8946024777942
 30
0.0
 10
231.711648157524
 20
743.9176927031021
 30
0.0
 10
232.1133290637035
 20
745.5727468211189
 30
0.0
 10
232.5747101714014
 20
747.0264817129173
 30
0.0
  0
SPLINE
  5
7AF7
330
1F
100
AcDbEntity
  8
ceco.net 223
100
AcDbSpline
210
0.0
220
0.0
230
1.0
 70
     8
 71
     3
 72
    21
 73
    17
 74
     0
 42
0.0000000001
 43
0.0000000001
 40
0.9787365981453605
 40
0.9787365981453605
 40
0.9787365981453605
 40
0.9787365981453605
 40
1.568357597910797
 40
3.219364338417117
 40
4.894841658093587
 40
6.713113621921133
 40
8.732585011145683
 40
9.571164512010522
 40
10.62575242102257
 40
13.1155741027911
 40
16.19386261916276
 40
17.82128410005223
 40
19.08210676358521
 40
21.54928872293017
 40
25.31704288014672
 40
29.90838149555146
 40
29.90838149555146
 40
29.90838149555146
 40
29.90838149555146
 10
219.9897323651739
 20
721.8256189218918
 30
0.0
 10
220.9773761985288
 20
721.9773752151978
 30
0.0
 10
225.4224593673043
 20
724.2713499814581
 30
0.0
 10
230.6237568663746
 20
727.545916534902
 30
0.0
 10
239.8218663086836
 20
730.605642428196
 30
0.0
 10
245.9213445665354
 20
738.5564222060548
 30
0.0
 10
252.0637865971721
 20
744.1569375935396
 30
0.0
 10
258.0623285312767
 20
747.8460227853338
 30
0.0
 10
262.1309865445155
 20
754.8968289061922
 30
0.0
 10
261.7290777158941
 20
767.0215092454181
 30
0.0
 10
266.5330645113172
 20
779.0676744516767
 30
0.0
 10
269.1735615729512
 20
789.2554865145576
 30
0.0
 10
272.1168326296165
 20
798.5539764320837
 30
0.0
 10
266.9382459428916
 20
811.6472424094864
 30
0.0
 10
260.6369106016145
 20
829.4764809100835
 30
0.0
 10
254.148683742268
 20
842.9071324576197
 30
0.0
 10
250.540375941081
 20
850.2748761307485
 30
0.0
  0
SPLINE
  5
7AF8
330
1F
100
AcDbEntity
  8
ceco.net 223
100
AcDbSpline
210
0.0
220
0.0
230
1.0
 70
     8
 71
     3
 72
    18
 73
    14
 74
     0
 42
0.0000000001
 43
0.0000000001
 40
0.0
 40
0.0
 40
0.0
 40
0.0
 40
2.856523469938286
 40
6.081768216957758
 40
8.02856114019881
 40
8.950748405896543
 40
11.00347259803951
 40
12.52952257236395
 40
14.40905274399276
 40
16.10687645988256
 40
17.28115662660858
 40
17.36020970183794
 40
18.3138105266933
 40
18.3138105266933
 40
18.3138105266933
 40
18.3138105266933
 10
259.5938138958572
 20
784.5438183885798
 30
0.0
 10
256.9386878307923
 20
780.1628130554927
 30
0.0
 10
251.2857108872267
 20
770.8353003381435
 30
0.0
 10
245.0950146867071
 20
758.7073309089701
 30
0.0
 10
239.4284002833401
 20
747.8578990336136
 30
0.0
 10
230.2104221953086
 20
747.1204381243933
 30
0.0
 10
223.8435881062869
 20
741.8143482663399
 30
0.0
 10
215.2803892072042
 20
737.4110686610129
 30
0.0
 10
206.7179459217768
 20
733.7524072177166
 30
0.0
 10
199.2442166275295
 20
731.6041072134521
 30
0.0
 10
192.9809044597405
 20
729.7823226721029
 30
0.0
 10
190.2044636320524
 20
732.6231093530368
 30
0.0
 10
189.6731328369824
 20
734.3318719388443
 30
0.0
 10
189.4940645044826
 20
736.0638389258383
 30
0.0
  0
SPLINE
  5
7AF9
330
1F
100
AcDbEntity
  8
ceco.net 223
100
AcDbSpline
210
0.0
220
0.0
230
1.0
 70
     8
 71
     3
 72
    17
 73
    13
 74
    11
 42
0.0000000001
 43
0.0000000001
 44
0.0000000001
 40
0.0
 40
0.0
 40
0.0
 40
0.0
 40
6.399213795889926
 40
11.4918568478481
 40
19.54838111547631
 40
38.689301786526
 40
56.89265724262303
 40
64.94722656420709
 40
74.81874203129803
 40
86.83273458835893
 40
95.89727538263485
 40
99.95140068365422
 40
99.95140068365422
 40
99.95140068365422
 40
99.95140068365422
 10
188.625513096862
 20
747.2936686351313
 30
0.0
 10
187.2058548252131
 20
745.5572039201574
 30
0.0
 10
184.6563995091349
 20
742.4388202307989
 30
0.0
 10
187.3256841278565
 20
734.6512292643905
 30
0.0
 10
200.113552862321
 20
738.6772984569095
 30
0.0
 10
213.5277802002109
 20
741.7962430586442
 30
0.0
 10
226.3322143571718
 20
750.7503372789383
 30
0.0
 10
236.4770916524137
 20
757.6062138514191
 30
0.0
 10
240.5311198724415
 20
767.1120140336988
 30
0.0
 10
244.5181672578501
 20
776.4793965075457
 30
0.0
 10
248.0661675496687
 20
784.1584468356187
 30
0.0
 10
250.7220269768985
 20
787.6399365488278
 30
0.0
 10
251.5427801557407
 20
788.7158382776342
 30
0.0
 11
188.625513096862
 21
747.2936686351313
 31
0.0
 11
185.6436436995309
 21
741.6316555564844
 31
0.0
 11
187.4327698821744
 21
736.8636328261236
 31
0.0
 11
195.4837809011806
 21
737.1616342467969
 31
0.0
 11
213.6731433268678
 21
743.1216626596834
 31
0.0
 11
229.178827839145
 21
752.6576942067549
 31
0.0
 11
235.440735396618
 21
757.7237183576908
 31
0.0
 11
240.2117082554823
 21
766.3657456428246
 31
0.0
 11
244.9826811143466
 21
777.3917982066887
 31
0.0
 11
249.1572937263654
 21
785.437822650516
 31
0.0
 11
251.5427801557407
 21
788.7158382776342
 31
0.0
  0
SPLINE
  5
7AFA
330
1F
100
AcDbEntity
  8
ceco.net 223
100
AcDbSpline
210
0.0
220
0.0
230
1.0
 70
     8
 71
     3
 72
    14
 73
    10
 74
     8
 42
0.0000000001
 43
0.0000000001
 44
0.0000000001
 40
0.0
 40
0.0
 40
0.0
 40
0.0
 40
3.590617249605261
 40
11.48534233762207
 40
24.55292457549894
 40
35.09387296885288
 40
42.49797932450723
 40
57.39875680518618
 40
71.25271507363946
 40
71.25271507363946
 40
71.25271507363946
 40
71.25271507363946
 10
189.8182563115497
 20
750.2736828415745
 30
0.0
 10
191.0096135190979
 20
750.1314201506016
 30
0.0
 10
194.8204194123155
 20
749.6763630965875
 30
0.0
 10
203.0579626987974
 20
751.5205138778306
 30
0.0
 10
211.7929248763672
 20
757.42245003833
 30
0.0
 10
221.6142663790343
 20
761.2169347647615
 30
0.0
 10
228.9111674564005
 20
769.962281852035
 30
0.0
 10
230.2884768558911
 20
782.3481269290432
 30
0.0
 10
233.765509801061
 20
791.2709011257602
 30
0.0
 10
235.440735396618
 20
795.5698709524567
 30
0.0
 11
189.8182563115497
 21
750.2736828415745
 31
0.0
 11
193.3964859557263
 21
749.9756814209431
 31
0.0
 11
201.1493282118081
 21
751.4656885241729
 31
0.0
 11
212.7785915961012
 21
757.4257169370594
 31
0.0
 11
222.022345829795
 21
762.4917410880498
 31
0.0
 11
226.793341409656
 21
768.1537541666984
 31
0.0
 11
230.9679313006781
 21
782.4578084440872
 31
0.0
 11
235.440735396618
 21
795.5698709524567
 31
0.0
  0
SPLINE
  5
7AFB
330
1F
100
AcDbEntity
  8
ceco.net 223
100
AcDbSpline
210
0.0
220
0.0
230
1.0
 70
     8
 71
     3
 72
    21
 73
    17
 74
    15
 42
0.0000000001
 43
0.0000000001
 44
0.0000000001
 40
0.0
 40
0.0
 40
0.0
 40
0.0
 40
9.829875033360231
 40
26.433912334364
 40
39.08458811259706
 40
47.1915238020365
 40
49.85725945383945
 40
59.19141657588879
 40
67.87961882927596
 40
70.4271252816911
 40
79.29035483512169
 40
82.87974727507471
 40
89.63825252810003
 40
95.55551503489644
 40
99.15665443463268
 40
100.9693538284953
 40
100.9693538284953
 40
100.9693538284953
 40
100.9693538284953
 10
200.851136727887
 20
839.6740394671651
 30
0.0
 10
201.5255954779342
 20
836.4646715939809
 30
0.0
 10
203.3393096311038
 20
827.8342313573993
 30
0.0
 10
209.8928159619195
 20
816.057918470695
 30
0.0
 10
210.7841331634352
 20
803.9094615538138
 30
0.0
 10
216.1670021012073
 20
796.2684431429886
 30
0.0
 10
212.3784654425728
 20
790.3105216850966
 30
0.0
 10
209.8153252307752
 20
784.3687135741845
 30
0.0
 10
212.6032460351924
 20
774.9234081059939
 30
0.0
 10
205.3333456170838
 20
773.490853291771
 30
0.0
 10
202.3248660290989
 20
769.1189845696801
 30
0.0
 10
198.1130831429113
 20
764.3537720638676
 30
0.0
 10
193.9720056281238
 20
760.7619850158657
 30
0.0
 10
189.5426947179956
 20
757.7435898443418
 30
0.0
 10
187.4124429582959
 20
754.1503270793652
 30
0.0
 10
187.8744407836941
 20
752.3623522053558
 30
0.0
 10
188.0291301289062
 20
751.7636899448189
 30
0.0
 11
200.851136727887
 21
839.6740394671651
 31
0.0
 11
203.2366231572623
 21
830.1380079200935
 31
0.0
 11
209.2003619519246
 21
814.6419479601499
 31
0.0
 11
212.4804001121801
 21
802.4238897137164
 31
0.0
 11
214.8658865415554
 21
794.6758666905207
 31
0.0
 11
213.6731433268678
 21
792.2918553253821
 31
0.0
 11
210.9894654134577
 21
783.3518127060106
 31
0.0
 11
210.0949136826911
 21
774.7097854208914
 31
0.0
 11
207.7094272533158
 21
773.8157811589535
 31
0.0
 11
201.1493282118081
 21
767.8557527460671
 31
0.0
 11
198.7638417824328
 21
765.1737399602552
 31
0.0
 11
193.6946774396474
 21
760.7037325641758
 31
0.0
 11
189.2218733437075
 21
756.8297140957529
 31
0.0
 11
187.7309613660954
 21
753.5516984686783
 31
0.0
 11
188.0291301289062
 21
751.7636899448189
 31
0.0
  0
SPLINE
  5
7AFC
330
1F
100
AcDbEntity
  8
ceco.net 223
100
AcDbSpline
210
0.0
220
0.0
230
1.0
 70
     8
 71
     3
 72
    19
 73
    15
 74
     0
 42
0.0000000001
 43
0.0000000001
 40
0.0
 40
0.0
 40
0.0
 40
0.0
 40
27.85488142331216
 40
38.90285701491157
 40
50.27060317717443
 40
63.43928968270521
 40
90.23275245789351
 40
114.3013230799834
 40
137.4456525277657
 40
166.4271602853298
 40
179.1264867700026
 40
216.4465027101688
 40
250.4061576140471
 40
283.0468803098004
 40
283.0468803098004
 40
283.0468803098004
 40
283.0468803098004
 10
159.7760323308775
 20
458.0273015845868
 30
0.0
 10
163.4263532460877
 20
467.3908418600149
 30
0.0
 10
168.5244870512506
 20
480.4682074733372
 30
0.0
 10
158.7552699588645
 20
495.866290425467
 30
0.0
 10
162.9639130045111
 20
507.7974435062369
 30
0.0
 10
169.0291905318135
 20
523.8316493293514
 30
0.0
 10
162.5621902270227
 20
545.7554988653482
 30
0.0
 10
169.213591377585
 20
569.8866106841069
 30
0.0
 10
172.3498986704771
 20
595.0400797781603
 30
0.0
 10
167.5748061685858
 20
617.4571866985188
 30
0.0
 10
179.6097586765918
 20
641.5150077123881
 30
0.0
 10
180.215647529385
 20
670.4299081295467
 30
0.0
 10
198.6788908033813
 20
700.7402439892539
 30
0.0
 10
202.979417962756
 20
722.6432243298768
 30
0.0
 10
205.0682584008441
 20
733.3840322268079
 30
0.0
  0
SPLINE
  5
7AFD
330
1F
100
AcDbEntity
  8
ceco.net 223
100
AcDbSpline
210
0.0
220
0.0
230
1.0
 70
     8
 71
     3
 72
    16
 73
    12
 74
    10
 42
0.0000000001
 43
0.0000000001
 44
0.0000000001
 40
0.0
 40
0.0
 40
0.0
 40
0.0
 40
6.336826940447608
 40
20.22684039815918
 40
49.34864790014299
 40
87.26987268488917
 40
151.3778245696065
 40
180.860579858152
 40
267.1898024636675
 40
328.4167386464935
 40
393.3534551376745
 40
393.3534551376745
 40
393.3534551376745
 40
393.3534551376745
 10
87.9246993898405
 20
97.30367782801749
 30
0.0
 10
88.33667322797197
 20
99.38224610277728
 30
0.0
 10
89.65167348763086
 20
106.016933959232
 30
0.0
 10
88.04941991151013
 20
122.5718208502302
 30
0.0
 10
93.05622711902712
 20
149.4002072533669
 30
0.0
 10
107.6477818686902
 20
190.6219160473995
 30
0.0
 10
114.6880415764286
 20
234.1054434409135
 30
0.0
 10
130.9784536123091
 20
291.8430877176532
 30
0.0
 10
146.5275365730462
 20
348.6655221817602
 30
0.0
 10
160.8663993091072
 20
418.4897354282874
 30
0.0
 10
158.8316419170886
 20
460.6673499923143
 30
0.0
 10
157.7843476996704
 20
482.3762633058459
 30
0.0
 11
87.9246993898405
 21
97.30367782801749
 31
0.0
 11
88.96709720303443
 21
103.5541804055892
 31
0.0
 11
88.96709720303443
 21
117.4441938633008
 31
0.0
 11
93.13668845592383
 21
146.2659596136227
 31
0.0
 11
103.9207275790331
 21
182.6214789933055
 31
0.0
 11
118.166823452465
 21
245.1265047689839
 31
0.0
 11
125.8110589353364
 21
273.6010288789084
 31
0.0
 11
147.7044349166717
 21
357.1080032212503
 31
0.0
 11
158.1318212110673
 21
417.4404764790515
 31
0.0
 11
157.7843476996704
 21
482.3762633058459
 31
0.0
  0
SPLINE
  5
7AFE
330
1F
100
AcDbEntity
  8
ceco.net 223
100
AcDbSpline
210
0.0
220
0.0
230
1.0
 70
     8
 71
     3
 72
    10
 73
     6
 74
     0
 42
0.0000000001
 43
0.0000000001
 40
0.0
 40
0.0
 40
0.0
 40
0.0
 40
8.154232651970936
 40
13.77861361945392
 40
21.19208866055435
 40
21.19208866055435
 40
21.19208866055435
 40
21.19208866055435
 10
3.583064930207001
 20
45.5977599354419
 30
0.0
 10
4.05719096344319
 20
42.87469817327655
 30
0.0
 10
4.858345369713333
 20
38.27340489600738
 30
0.0
 10
2.754053093244237
 20
31.38051075184739
 30
0.0
 10
2.837923532046261
 20
27.05379094050476
 30
0.0
 10
3.089620240074964
 20
24.58083270755924
 30
0.0
  0
SPLINE
  5
7AFF
330
1F
100
AcDbEntity
  8
ceco.net 223
100
AcDbSpline
210
0.0
220
0.0
230
1.0
 70
     8
 71
     3
 72
    10
 73
     6
 74
     4
 42
0.0000000001
 43
0.0000000001
 44
0.0000000001
 40
0.0
 40
0.0
 40
0.0
 40
0.0
 40
8.149349435168382
 40
17.67991641367977
 40
25.98106729282879
 40
25.98106729282879
 40
25.98106729282879
 40
25.98106729282879
 10
-1.262910221304082
 20
65.20816792481674
 30
0.0
 10
-2.672922744216108
 20
62.7997623852061
 30
0.0
 10
-5.731928097422106
 20
57.57475528871274
 30
0.0
 10
-4.416453135818322
 20
48.61269146184676
 30
0.0
 10
-5.300586900818323
 20
42.74358324872395
 30
0.0
 10
-5.712175276049492
 20
40.01135334288483
 30
0.0
 11
-1.262910221304082
 21
65.20816792481674
 31
0.0
 11
-4.652827535356664
 21
57.79734092505714
 31
0.0
 11
-4.86467890667518
 21
48.26912881950647
 31
0.0
 11
-5.712175276049492
 21
40.01135334288483
 31
0.0
  0
SPLINE
  5
7B00
330
1F
100
AcDbEntity
  8
ceco.net 223
100
AcDbSpline
210
0.0
220
0.0
230
1.0
 70
     8
 71
     3
 72
    11
 73
     7
 74
     0
 42
0.0000000001
 43
0.0000000001
 40
2.466092360780569
 40
2.466092360780569
 40
2.466092360780569
 40
2.466092360780569
 40
14.84057128651977
 40
35.18443768813677
 40
61.9719254767962
 40
94.41279697758426
 40
94.41279697758426
 40
94.41279697758426
 40
94.41279697758426
 10
-0.2679684141403413
 20
5.895659241425164
 30
0.0
 10
3.755440359542717
 20
6.870705292447382
 30
0.0
 10
14.41673013670106
 20
9.260732488643952
 30
0.0
 10
34.48170823957161
 20
8.166783675145779
 30
0.0
 10
60.43836665457956
 20
2.553215881667711
 30
0.0
 10
80.25695902924827
 20
2.540634982503434
 30
0.0
 10
91.11210369755008
 20
2.533744105598998
 30
0.0
  0
SPLINE
  5
7B01
330
1F
100
AcDbEntity
  8
ceco.net 223
100
AcDbSpline
210
0.0
220
0.0
230
1.0
 70
     8
 71
     3
 72
    10
 73
     6
 74
     0
 42
0.0000000001
 43
0.0000000001
 40
0.0
 40
0.0
 40
0.0
 40
0.0
 40
12.4851092848917
 40
26.41578213589595
 40
42.85962980082911
 40
42.85962980082911
 40
42.85962980082911
 40
42.85962980082911
 10
11.9651939729365
 20
39.98476518480583
 30
0.0
 10
9.600834368074629
 20
36.55469597822412
 30
0.0
 10
4.598362480343439
 20
29.29741381877102
 30
0.0
 10
-0.3738288307745279
 20
15.56066648316664
 30
0.0
 10
-0.4452078027156859
 20
5.495334261688185
 30
0.0
 10
0.0
 20
0.0
 30
0.0
  0
SPLINE
  5
7B02
330
1F
100
AcDbEntity
  8
ceco.net 223
100
AcDbSpline
210
0.0
220
0.0
230
1.0
 70
     8
 71
     3
 72
    11
 73
     7
 74
     5
 42
0.0000000001
 43
0.0000000001
 44
0.0000000001
 40
0.0
 40
0.0
 40
0.0
 40
0.0
 40
6.89781294116775
 40
19.8490565800326
 40
55.07095011266221
 40
81.20595477908924
 40
81.20595477908924
 40
81.20595477908924
 40
81.20595477908924
 10
-87.28186041756634
 20
4.651115297770047
 30
0.0
 10
-85.01205908003168
 20
4.031789847091694
 30
0.0
 10
-78.48050834671585
 20
2.249627005504445
 30
0.0
 10
-61.03865924984552
 20
10.80358970139236
 30
0.0
 10
-35.57527085939161
 20
10.05577698564387
 30
0.0
 10
-15.6727417454989
 20
5.523118209915803
 30
0.0
 10
-7.19524848014862
 20
3.592429701662695
 30
0.0
 11
-87.28186041756634
 21
4.651115297770047
 31
0.0
 11
-80.50204851045782
 21
3.380692582461961
 31
0.0
 11
-68.00174971559591
 21
6.768500403518373
 31
0.0
 11
-32.8314456257076
 21
8.674148390078698
 31
0.0
 11
-7.19524848014862
 21
3.592429701662695
 31
0.0
  0
SPLINE
  5
7B03
330
1F
100
AcDbEntity
  8
ceco.net 223
100
AcDbSpline
210
0.0
220
0.0
230
1.0
 70
     8
 71
     3
 72
    11
 73
     7
 74
     0
 42
0.0000000001
 43
0.0000000001
 40
0.0
 40
0.0
 40
0.0
 40
0.0
 40
6.914081536709454
 40
16.80040831862196
 40
21.08259791020738
 40
25.87457752141665
 40
25.87457752141665
 40
25.87457752141665
 40
25.87457752141665
 10
-84.31569128814407
 20
24.34275086648904
 30
0.0
 10
-85.5492450330321
 20
22.34134901633115
 30
0.0
 10
-88.54663615245408
 20
17.47817693573415
 30
0.0
 10
-88.43580649654677
 20
10.3663180245494
 30
0.0
 10
-90.48642425973367
 20
3.933320310476119
 30
0.0
 10
-88.74212525475423
 20
1.399535320771974
 30
0.0
 10
-87.61974567081551
 20
0.1017000629035465
 30
0.0
  0
SPLINE
  5
7B04
330
1F
100
AcDbEntity
  8
ceco.net 223
100
AcDbSpline
210
0.0
220
0.0
230
1.0
 70
     8
 71
     3
 72
    13
 73
     9
 74
     7
 42
0.0000000001
 43
0.0000000001
 44
0.0000000001
 40
0.0
 40
0.0
 40
0.0
 40
0.0
 40
4.830232377946506
 40
12.9795723618101
 40
19.38218342455462
 40
29.9756381093494
 40
58.21861880724586
 40
79.85521551661114
 40
79.85521551661114
 40
79.85521551661114
 40
79.85521551661114
 10
-82.62072127050577
 20
25.40143646255273
 30
0.0
 10
-81.22047037468291
 20
26.29960084005512
 30
0.0
 10
-77.45778228745905
 20
28.71310574383958
 30
0.0
 10
-76.01310694773452
 20
35.22675854749952
 30
0.0
 10
-71.57279710585385
 20
43.47240107673033
 30
0.0
 10
-54.25398690760496
 20
39.02361318571269
 30
0.0
 10
-35.52322470148648
 20
39.5806801011299
 30
0.0
 10
-18.72103656641746
 20
38.55195584594452
 30
0.0
 10
-11.43263944257887
 20
38.10571926994362
 30
0.0
 11
-82.62072127050577
 21
25.40143646255273
 31
0.0
 11
-78.80707849281953
 21
28.36577004519222
 31
0.0
 11
-75.41718389976359
 21
35.77659704496545
 31
0.0
 11
-71.81539249328216
 21
41.07003893894852
 31
0.0
 11
-61.22193780848738
 21
41.07003893894852
 31
0.0
 11
-33.04331971813644
 21
39.16440486602187
 31
0.0
 11
-11.43263944257887
 21
38.10571926994362
 31
0.0
  0
SPLINE
  5
7B05
330
1F
100
AcDbEntity
  8
ceco.net 223
100
AcDbSpline
210
0.0
220
0.0
230
1.0
 70
     8
 71
     3
 72
    14
 73
    10
 74
     0
 42
0.0000000001
 43
0.0000000001
 40
1.35396193517591
 40
1.35396193517591
 40
1.35396193517591
 40
1.35396193517591
 40
8.401363845928575
 40
27.91227666322228
 40
47.02096024815536
 40
56.93927497796293
 40
64.14223690814785
 40
76.48865024625436
 40
81.74945519077033
 40
81.74945519077033
 40
81.74945519077033
 40
81.74945519077033
 10
-64.7538661145868
 20
96.92513787732515
 30
0.0
 10
-66.83136896131327
 20
95.74053915810692
 30
0.0
 10
-74.45738960457538
 20
91.08091217218589
 30
0.0
 10
-79.40391600411522
 20
75.21050526652288
 30
0.0
 10
-82.55124557918406
 20
59.82392589215852
 30
0.0
 10
-85.21491420654866
 20
47.8438578506275
 30
0.0
 10
-90.43856612910349
 20
39.4562069095009
 30
0.0
 10
-89.69499486204723
 20
29.8358818526467
 30
0.0
 10
-85.55320388634982
 20
25.60644954152485
 30
0.0
 10
-84.31569128814407
 20
24.34275086648904
 30
0.0
  0
SPLINE
  5
7B06
330
1F
100
AcDbEntity
  8
ceco.net 223
100
AcDbSpline
210
0.0
220
0.0
230
1.0
 70
     8
 71
     3
 72
    19
 73
    15
 74
    13
 42
0.0000000001
 43
0.0000000001
 44
0.0000000001
 40
0.0
 40
0.0
 40
0.0
 40
0.0
 40
55.24371722965685
 40
125.6507291211671
 40
157.7838453246322
 40
184.9709719692555
 40
209.9171650289432
 40
219.1174061228267
 40
239.8741030987062
 40
257.9903687218452
 40
268.0644577845201
 40
276.2040509899875
 40
293.1969601754673
 40
301.241788049938
 40
301.241788049938
 40
301.241788049938
 40
301.241788049938
 10
35.78233757897487
 20
341.3998443885411
 30
0.0
 10
32.56817856795779
 20
323.2788436834103
 30
0.0
 10
25.25763822964655
 20
282.0629902762369
 30
0.0
 10
18.37859279333116
 20
229.6943413065332
 30
0.0
 10
5.745283671559436
 20
188.3607234387869
 30
0.0
 10
-1.60354828585928
 20
161.0606153606768
 30
0.0
 10
0.2578991745072425
 20
140.0966093550903
 30
0.0
 10
8.63633810826677
 20
123.1799955108508
 30
0.0
 10
2.142580688663027
 20
107.0767644322451
 30
0.0
 10
-2.001746534631476
 20
90.90640945433008
 30
0.0
 10
2.880907822625705
 20
79.05302983133996
 30
0.0
 10
-1.331091704053617
 20
67.40208493690911
 30
0.0
 10
4.250684530785125
 20
56.66363475487389
 30
0.0
 10
3.745412825024723
 20
48.28869573135783
 30
0.0
 10
3.583064930207001
 20
45.59775993544099
 30
0.0
 11
35.78233757897487
 21
341.3998443885411
 31
0.0
 11
26.49407274506211
 21
286.9425544291116
 31
0.0
 11
14.10974235417507
 21
217.6332788286508
 31
0.0
 11
5.440717897012291
 21
186.6916374386646
 31
0.0
 11
-0.1322410034035784
 21
160.0818275129049
 31
0.0
 11
2.963847274567342
 21
135.3285088354787
 31
0.0
 11
6.059912831541623
 21
126.6648598206293
 31
0.0
 11
2.34462961904137
 21
106.2433726074168
 31
0.0
 11
-0.1322410034035784
 21
88.29722561014206
 31
0.0
 11
1.725411963401711
 21
78.39589257374609
 31
0.0
 11
0.4869766522360806
 21
70.35106469923267
 31
0.0
 11
3.583064930207001
 21
53.64258780991168
 31
0.0
 11
3.583064930207001
 21
45.59775993544099
 31
0.0
  0
SPLINE
  5
7B07
330
1F
100
AcDbEntity
  8
ceco.net 223
100
AcDbSpline
210
0.0
220
0.0
230
1.0
 70
     8
 71
     3
 72
    19
 73
    15
 74
     0
 42
0.0000000001
 43
0.0000000001
 40
0.4327381403703689
 40
0.4327381403703689
 40
0.4327381403703689
 40
0.4327381403703689
 40
1.513348690649008
 40
2.905921858894698
 40
7.24201739158105
 40
11.98335959814704
 40
14.79020741988879
 40
16.59182885913434
 40
17.75230562961461
 40
21.20289818788927
 40
23.8493063891046
 40
31.9859198769707
 40
51.74818785434015
 40
61.28448975225763
 40
61.28448975225763
 40
61.28448975225763
 40
61.28448975225763
 10
11.9651939729365
 20
39.98476518480583
 30
0.0
 10
10.73625280261149
 20
41.54282722665721
 30
0.0
 10
8.289992503445319
 20
45.22421906657655
 30
0.0
 10
9.629212963399368
 20
57.9045451048978
 30
0.0
 10
15.03303121225053
 20
75.52163758838833
 30
0.0
 10
24.18904258294242
 20
94.37377871919579
 30
0.0
 10
28.12563518758816
 20
111.4451868215064
 30
0.0
 10
23.62875460229497
 20
121.0582584807662
 30
0.0
 10
23.84225763668291
 20
132.7024244687972
 30
0.0
 10
30.38622934203795
 20
144.2576042537175
 30
0.0
 10
36.66409073693012
 20
168.8736455707348
 30
0.0
 10
35.29880657046215
 20
223.6579982787188
 30
0.0
 10
42.86242975964706
 20
289.7237832337759
 30
0.0
 10
43.65556047988684
 20
341.8028743456971
 30
0.0
 10
43.758403225037
 20
358.7652338051238
 30
0.0
  0
SPLINE
  5
7B08
330
1F
100
AcDbEntity
  8
ceco.net 223
100
AcDbSpline
210
0.0
220
0.0
230
1.0
 70
     8
 71
     3
 72
    15
 73
    11
 74
     0
 42
0.0000000001
 43
0.0000000001
 40
0.0
 40
0.0
 40
0.0
 40
0.0
 40
2.618235110541723
 40
5.309970507443466
 40
9.646067412966925
 40
11.48105659697769
 40
15.45279524215877
 40
19.67318625492426
 40
23.15871281106504
 40
24.48949879412547
 40
24.48949879412547
 40
24.48949879412547
 40
24.48949879412547
 10
87.9246993898405
 20
97.30367782801749
 30
0.0
 10
85.73716718600644
 20
96.74731711536697
 30
0.0
 10
87.83474537991788
 20
87.61539822844406
 30
0.0
 10
91.59476207897933
 20
70.23407004572255
 30
0.0
 10
83.89808761441054
 20
56.03111936597634
 30
0.0
 10
80.87704961425425
 20
36.78609212095671
 30
0.0
 10
58.08947433339563
 20
35.08294306804145
 30
0.0
 10
39.31127521476719
 20
40.05811037210878
 30
0.0
 10
22.87517918372395
 20
39.98134518023107
 30
0.0
 10
14.32482317872109
 20
39.98355684840589
 30
0.0
 10
11.9651939729365
 20
39.98476518480583
 30
0.0
  0
SPLINE
  5
7B09
330
1F
100
AcDbEntity
  8
ceco.net 223
100
AcDbSpline
210
0.0
220
0.0
230
1.0
 70
     8
 71
     3
 72
    13
 73
     9
 74
     7
 42
0.0000000001
 43
0.0000000001
 44
0.0000000001
 40
0.0
 40
0.0
 40
0.0
 40
0.0
 40
18.11626562312341
 40
38.8644723658601
 40
55.70537914876965
 40
74.52891704533675
 40
104.2823929370172
 40
116.3329836288895
 40
116.3329836288895
 40
116.3329836288895
 40
116.3329836288895
 10
137.3363279259038
 20
1.617992891547146
 30
0.0
 10
136.4953350819407
 20
7.460355262476534
 30
0.0
 10
134.691169487108
 20
19.99386165059819
 30
0.0
 10
132.4093658395415
 20
40.72275862997876
 30
0.0
 10
112.4541785111391
 20
47.87362979830881
 30
0.0
 10
104.8529358766383
 20
69.70486446719888
 30
0.0
 10
99.90727284527295
 20
89.26646649589562
 30
0.0
 10
91.46965447204079
 20
100.4900612304769
 30
0.0
 10
89.03739623164165
 20
103.7254150439048
 30
0.0
 11
137.3363279259038
 21
1.617992891547146
 31
0.0
 11
134.8594573035725
 21
19.56413988882195
 31
0.0
 11
128.6672807476306
 21
39.36679204805022
 31
0.0
 11
115.044515045578
 21
49.26812508444618
 31
0.0
 11
106.3754678671912
 21
65.97660197380992
 31
0.0
 11
95.91640838410876
 21
93.83117794197278
 31
0.0
 11
89.03739623164165
 21
103.7254150439048
 31
0.0
  0
LINE
  5
7B0A
330
1F
100
AcDbEntity
  8
ceco.net 223
 62
     5
100
AcDbLine
 10
-327.667305399952
 20
0.380322783592419
 30
0.0
 11
392.1684364416682
 21
-0.4551891169121518
 31
0.0
  0
SPLINE
  5
7B0B
330
1F
100
AcDbEntity
  8
ceco.net 223
100
AcDbSpline
210
0.0
220
0.0
230
1.0
 70
     8
 71
     3
 72
    15
 73
    11
 74
     0
 42
0.0000000001
 43
0.0000000001
 40
0.8990568830025591
 40
0.8990568830025591
 40
0.8990568830025591
 40
0.8990568830025591
 40
7.543997959532081
 40
13.94350377758174
 40
20.35248673907933
 40
24.51903683359721
 40
28.58070813945067
 40
32.06407966573689
 40
37.71635241336655
 40
41.41161889768815
 40
41.41161889768815
 40
41.41161889768815
 40
41.41161889768815
 10
-59.80717910089061
 20
258.5844871694516
 30
0.0
 10
-60.36881782430191
 20
246.7598212087204
 30
0.0
 10
-61.22608781553117
 20
223.5566227941999
 30
0.0
 10
-56.47962902370273
 20
189.1837182199733
 30
0.0
 10
-58.89476080281929
 20
158.785854511685
 30
0.0
 10
-67.00430664310352
 20
133.7739450231592
 30
0.0
 10
-66.30112196868231
 20
112.8434783619604
 30
0.0
 10
-62.49330648373507
 20
89.01803264891714
 30
0.0
 10
-78.38739003272985
 20
68.47825271216788
 30
0.0
 10
-74.22267846047907
 20
51.85586494545259
 30
0.0
 10
-71.29049741954941
 20
41.37233691656729
 30
0.0
  0
SPLINE
  5
7B0C
330
1F
100
AcDbEntity
  8
ceco.net 223
100
AcDbSpline
210
0.0
220
0.0
230
1.0
 70
     8
 71
     3
 72
     9
 73
     5
 74
     0
 42
0.0000000001
 43
0.0000000001
 40
6.267451466130404
 40
6.267451466130404
 40
6.267451466130404
 40
6.267451466130404
 40
8.42483488931405
 40
12.87940037428452
 40
12.87940037428452
 40
12.87940037428452
 40
12.87940037428452
 10
15.02322763141273
 20
221.3931675651338
 30
0.0
 10
17.38758888219672
 20
224.4060225999019
 30
0.0
 10
24.79986050272055
 20
233.4957813771943
 30
0.0
 10
32.89591875610677
 20
241.9921306688702
 30
0.0
 10
38.52007462793517
 20
247.5689521774538
 30
0.0
  0
SPLINE
  5
7B0D
330
1F
100
AcDbEntity
  8
ceco.net 223
100
AcDbSpline
210
0.0
220
0.0
230
1.0
 70
     8
 71
     3
 72
    12
 73
     8
 74
     0
 42
0.0000000001
 43
0.0000000001
 40
0.5467404925590019
 40
0.5467404925590019
 40
0.5467404925590019
 40
0.5467404925590019
 40
5.2031244795947
 40
15.43078632538517
 40
22.78036527958672
 40
27.22515724969432
 40
29.98487482924103
 40
29.98487482924103
 40
29.98487482924103
 40
29.98487482924103
 10
-204.432884070597
 20
160.2474123914626
 30
0.0
 10
-197.3831893930387
 20
155.9028863973271
 30
0.0
 10
-174.8592163691037
 20
142.0062978915075
 30
0.0
 10
-141.6787569153584
 20
120.8209922776941
 30
0.0
 10
-108.3316485727764
 20
99.48946059491845
 30
0.0
 10
-81.49037898389087
 20
96.01361181230368
 30
0.0
 10
-69.36887635575749
 20
99.97121239008174
 30
0.0
 10
-64.80099980072828
 20
101.8541631458956
 30
0.0
  0
SPLINE
  5
7B0E
330
1F
100
AcDbEntity
  8
ceco.net 223
100
AcDbSpline
210
0.0
220
0.0
230
1.0
 70
     8
 71
     3
 72
     9
 73
     5
 74
     3
 42
0.0000000001
 43
0.0000000001
 44
0.0000000001
 40
0.0
 40
0.0
 40
0.0
 40
0.0
 40
85.4122915125105
 40
140.8777879358121
 40
140.8777879358121
 40
140.8777879358121
 40
140.8777879358121
 10
-412.5343578602142
 20
199.9562764518086
 30
0.0
 10
-386.8664232630525
 20
212.3062381937886
 30
0.0
 10
-344.5301062892876
 20
232.6760849745321
 30
0.0
 10
-303.8240509306597
 20
256.1165422277367
 30
0.0
 10
-287.7975246699734
 20
265.3453682690042
 30
0.0
 11
-412.5343578602142
 21
199.9562764518086
 31
0.0
 11
-336.1298109130402
 21
238.1348666197964
 31
0.0
 11
-287.7975246699734
 21
265.3453682690042
 31
0.0
  0
SPLINE
  5
7B0F
330
1F
100
AcDbEntity
  8
ceco.net 223
100
AcDbSpline
210
0.0
220
0.0
230
1.0
 70
     8
 71
     3
 72
    10
 73
     6
 74
     0
 42
0.0000000001
 43
0.0000000001
 40
10.3794202520434
 40
10.3794202520434
 40
10.3794202520434
 40
10.3794202520434
 40
32.66160534319112
 40
118.3203029704946
 40
185.1444868091432
 40
185.1444868091432
 40
185.1444868091432
 40
185.1444868091432
 10
-245.3194544680659
 20
178.136058379805
 30
0.0
 10
-252.7062260214056
 20
177.7521651262668
 30
0.0
 10
-288.5938948045077
 20
175.3192846732872
 30
0.0
 10
-349.2698504472227
 20
157.2331882495718
 30
0.0
 10
-393.2572813649558
 20
186.9382941254489
 30
0.0
 10
-412.5343578602142
 20
199.9562764518086
 30
0.0
  0
SPLINE
  5
7B10
330
1F
100
AcDbEntity
  8
ceco.net 223
100
AcDbSpline
210
0.0
220
0.0
230
1.0
 70
     8
 71
     3
 72
    12
 73
     8
 74
     6
 42
0.0000000001
 43
0.0000000001
 44
0.0000000001
 40
0.0
 40
0.0
 40
0.0
 40
0.0
 40
17.97755649658938
 40
39.4376680974823
 40
58.13465114662472
 40
68.24075059017218
 40
146.7568690785386
 40
146.7568690785386
 40
146.7568690785386
 40
146.7568690785386
 10
-227.1409598566024
 20
140.4426044641068
 30
0.0
 10
-232.7291838599011
 20
139.3060954412407
 30
0.0
 10
-244.9881648586974
 20
136.8129164799013
 30
0.0
 10
-271.6630791386812
 20
157.3245867945713
 30
0.0
 10
-241.7733158553251
 20
160.774603826834
 30
0.0
 10
-252.7076390919989
 20
201.5841254160471
 30
0.0
 10
-214.1291081144097
 20
210.8427521323711
 30
0.0
 10
-179.9499081346639
 20
219.0455645789852
 30
0.0
 11
-227.1409598566024
 21
140.4426044641068
 31
0.0
 11
-245.1185163531917
 21
140.4426044641068
 31
0.0
 11
-260.8488669270955
 21
155.040291292672
 31
0.0
 11
-245.1185163531917
 21
165.1463907361767
 31
0.0
 11
-245.1185163531917
 21
175.2524901797241
 31
0.0
 11
-179.9499081346639
 21
219.0455645789852
 31
0.0
  0
SPLINE
  5
7B11
330
1F
100
AcDbEntity
  8
ceco.net 223
100
AcDbSpline
210
0.0
220
0.0
230
1.0
 70
     8
 71
     3
 72
    13
 73
     9
 74
     7
 42
0.0000000001
 43
0.0000000001
 44
0.0000000001
 40
0.0
 40
0.0
 40
0.0
 40
0.0
 40
115.9642841052071
 40
206.7103441446948
 40
299.6703567374169
 40
405.3089383085708
 40
480.8652539269553
 40
516.6846394412689
 40
516.6846394412689
 40
516.6846394412689
 40
516.6846394412689
 10
-227.1409598566024
 20
140.4426044641068
 30
0.0
 10
-197.9855527329902
 20
166.0503134958162
 30
0.0
 10
-146.015031923903
 20
211.6969398475947
 30
0.0
 10
-54.34290294043529
 20
255.0350826322001
 30
0.0
 10
11.05360873128001
 20
327.5728457438177
 30
0.0
 10
76.9625784979215
 20
390.5114326860005
 30
0.0
 10
124.8252888139189
 20
444.8845180534101
 30
0.0
 10
149.2679956074908
 20
472.8198191028089
 30
0.0
 10
157.1289808021802
 20
481.8040527154408
 30
0.0
 11
-227.1409598566024
 21
140.4426044641068
 31
0.0
 11
-136.1296652966402
 21
212.3081695878363
 31
0.0
 11
-58.60151538812352
 21
259.4699484394959
 31
0.0
 11
8.814276031866029
 21
323.4752217258082
 31
0.0
 11
82.97163977757827
 21
398.7094913019227
 31
0.0
 11
133.5334776623212
 21
454.8544588372406
 31
0.0
 11
157.1289808021802
 21
481.8040527154408
 31
0.0
  0
SPLINE
  5
7B12
330
1F
100
AcDbEntity
  8
ceco.net 223
100
AcDbSpline
210
0.0
220
0.0
230
1.0
 70
     8
 71
     3
 72
    12
 73
     8
 74
     6
 42
0.0000000001
 43
0.0000000001
 44
0.0000000001
 40
0.0
 40
0.0
 40
0.0
 40
0.0
 40
62.94878599369662
 40
138.9740904605667
 40
223.6773783757973
 40
309.2346999809306
 40
403.7448679049699
 40
403.7448679049699
 40
403.7448679049699
 40
403.7448679049699
 10
-215.8873668468331
 20
310.2613534281399
 30
0.0
 10
-198.5332835190153
 20
321.9817072555139
 30
0.0
 10
-160.2201070504193
 20
347.857115133887
 30
0.0
 10
-101.5114286884851
 20
395.5573076020009
 30
0.0
 10
-19.68758037668171
 20
414.9142636737788
 30
0.0
 10
51.58009270064383
 20
470.0202875715166
 30
0.0
 10
110.4944911912764
 20
484.546729788647
 30
0.0
 10
141.4162845091723
 20
492.1710738435876
 30
0.0
 11
-215.8873668468331
 21
310.2613534281399
 31
0.0
 11
-164.201926000861
 21
346.1941359899974
 31
0.0
 11
-101.2805237050188
 21
388.8643135430038
 31
0.0
 11
-22.62877083515923
 21
420.3055087198572
 31
0.0
 11
51.52857018944269
 21
462.9756862728636
 31
0.0
 11
141.4162845091723
 21
492.1710738435876
 31
0.0
  0
SPLINE
  5
7B13
330
1F
100
AcDbEntity
  8
ceco.net 223
100
AcDbSpline
210
0.0
220
0.0
230
1.0
 70
     8
 71
     3
 72
    10
 73
     6
 74
     0
 42
0.0000000001
 43
0.0000000001
 40
4.67792590968501
 40
4.67792590968501
 40
4.67792590968501
 40
4.67792590968501
 40
19.97799275224402
 40
39.74763686716082
 40
54.55476570809476
 40
54.55476570809476
 40
54.55476570809476
 40
54.55476570809476
 10
-106.3081259102646
 20
458.5496371160443
 30
0.0
 10
-125.1947080608361
 20
438.9697844855581
 30
0.0
 10
-167.7041308538819
 20
393.372880883754
 30
0.0
 10
-217.288173219832
 20
318.5366928941502
 30
0.0
 10
-266.6562010113338
 20
281.2941039559091
 30
0.0
 10
-287.7975246699734
 20
265.3453682690042
 30
0.0
  0
SPLINE
  5
7B14
330
1F
100
AcDbEntity
  8
ceco.net 223
100
AcDbSpline
210
0.0
220
0.0
230
1.0
 70
     8
 71
     3
 72
    12
 73
     8
 74
     0
 42
0.0000000001
 43
0.0000000001
 40
0.0
 40
0.0
 40
0.0
 40
0.0
 40
31.84910426727089
 40
51.48290830789069
 40
64.5906426772691
 40
94.4002922069659
 40
109.3351285315897
 40
109.3351285315897
 40
109.3351285315897
 40
109.3351285315897
 10
59.45661471113362
 20
910.3467501788982
 30
0.0
 10
45.11361267858683
 20
855.4538100492209
 30
0.0
 10
21.92867622610628
 20
766.7213866902584
 30
0.0
 10
-24.48675316569369
 20
661.4896204962497
 30
0.0
 10
-70.13285689280201
 20
560.110183821046
 30
0.0
 10
-104.4396049309498
 20
463.0517607037427
 30
0.0
 10
-131.8286740002222
 20
388.379645451374
 30
0.0
 10
-141.0076963144647
 20
363.4727000007778
 30
0.0
  0
SPLINE
  5
7B15
330
1F
100
AcDbEntity
  8
ceco.net 223
100
AcDbSpline
210
0.0
220
0.0
230
1.0
 70
     8
 71
     3
 72
    12
 73
     8
 74
     0
 42
0.0000000001
 43
0.0000000001
 40
0.0
 40
0.0
 40
0.0
 40
0.0
 40
6.622541339736137
 40
31.26778837773001
 40
43.98801649433713
 40
65.6863306966691
 40
78.83503477541549
 40
78.83503477541549
 40
78.83503477541549
 40
78.83503477541549
 10
-85.61515542638607
 20
964.737171391158
 30
0.0
 10
-85.96289493053609
 20
952.9740879877063
 30
0.0
 10
-87.60471861595396
 20
897.4356498473898
 30
0.0
 10
-88.42587330528749
 20
818.9310856422144
 30
0.0
 10
-69.87714942866751
 20
715.0037919230053
 30
0.0
 10
-82.03857338245233
 20
630.1056184478502
 30
0.0
 10
-76.81735647318965
 20
568.3694777420042
 30
0.0
 10
-74.25845817025311
 20
545.0939175553421
 30
0.0
  0
SPLINE
  5
7B16
330
1F
100
AcDbEntity
  8
ceco.net 223
100
AcDbSpline
210
0.0
220
0.0
230
1.0
 70
     8
 71
     3
 72
    10
 73
     6
 74
     0
 42
0.0000000001
 43
0.0000000001
 40
0.7282930981780394
 40
0.7282930981780394
 40
0.7282930981780394
 40
0.7282930981780394
 40
3.22123728837475
 40
8.064434259432955
 40
9.730013918999143
 40
9.730013918999143
 40
9.730013918999143
 40
9.730013918999143
 10
-67.24687021622776
 20
1106.843669747129
 30
0.0
 10
-68.22354145746067
 20
1102.521254011728
 30
0.0
 10
-70.90222753382568
 20
1089.760007660297
 30
0.0
 10
-71.0679646847766
 20
1073.440186972498
 30
0.0
 10
-68.70241849609192
 20
1062.145857712887
 30
0.0
 10
-67.98391290809468
 20
1059.278700976998
 30
0.0
  0
SPLINE
  5
7B17
330
1F
100
AcDbEntity
  8
ceco.net 223
100
AcDbSpline
210
0.0
220
0.0
230
1.0
 70
     8
 71
     3
 72
    15
 73
    11
 74
     0
 42
0.0000000001
 43
0.0000000001
 40
1.501607746599957
 40
1.501607746599957
 40
1.501607746599957
 40
1.501607746599957
 40
16.92251263306559
 40
36.08588821307393
 40
41.1572001393304
 40
47.32172687883646
 40
55.70531617268471
 40
72.86610927520462
 40
85.48171258844725
 40
89.90376290434353
 40
89.90376290434353
 40
89.90376290434353
 40
89.90376290434353
 10
-146.2631154956043
 20
1280.450486085494
 30
0.0
 10
-145.8575772118465
 20
1253.046301514112
 30
0.0
 10
-145.1354094091684
 20
1191.583505225389
 30
0.0
 10
-149.7361706572392
 20
1120.999162187823
 30
0.0
 10
-145.0527769395976
 20
1067.122547173847
 30
0.0
 10
-140.402505293342
 20
1032.541321209786
 30
0.0
 10
-128.1335675783211
 20
977.4467649093258
 30
0.0
 10
-113.6246091371376
 20
911.5296235947536
 30
0.0
 10
-90.86994554073589
 20
853.6233910982192
 30
0.0
 10
-91.94360155007506
 20
823.2025703932867
 30
0.0
 10
-92.22226438706547
 20
815.3069761562019
 30
0.0
  0
SPLINE
  5
7B18
330
1F
100
AcDbEntity
  8
ceco.net 223
100
AcDbSpline
210
0.0
220
0.0
230
1.0
 70
     8
 71
     3
 72
     9
 73
     5
 74
     0
 42
0.0000000001
 43
0.0000000001
 40
60.28963823844555
 40
60.28963823844555
 40
60.28963823844555
 40
60.28963823844555
 40
62.59101748075896
 40
63.0463315740894
 40
63.0463315740894
 40
63.0463315740894
 40
63.0463315740894
 10
215.2739133142304
 20
993.3835346538671
 30
0.0
 10
219.1681517802762
 20
992.1190644915986
 30
0.0
 10
223.8885313416531
 20
990.9003675501208
 30
0.0
 10
228.7407179704487
 20
990.3982940768345
 30
0.0
 10
229.5448812216946
 20
990.3302834758797
 30
0.0
  0
SPLINE
  5
7B19
330
1F
100
AcDbEntity
  8
ceco.net 223
100
AcDbSpline
210
0.0
220
0.0
230
1.0
 70
     8
 71
     3
 72
    12
 73
     8
 74
     0
 42
0.0000000001
 43
0.0000000001
 40
3.076766417701463
 40
3.076766417701463
 40
3.076766417701463
 40
3.076766417701463
 40
5.933941821223367
 40
14.06278481809327
 40
19.67325691438468
 40
24.84509693067982
 40
33.83197965384901
 40
33.83197965384901
 40
33.83197965384901
 40
33.83197965384901
 10
182.9759207888301
 20
1145.385899865539
 30
0.0
 10
186.2333454500585
 20
1141.469781717314
 30
0.0
 10
197.6890122840259
 20
1125.827355779174
 30
0.0
 10
203.0154081140508
 20
1095.646096053053
 30
0.0
 10
217.9983947395057
 20
1065.581668657865
 30
0.0
 10
228.05600404089
 20
1031.664186989355
 30
0.0
 10
229.4284009724051
 20
1006.320325854427
 30
0.0
 10
229.5448812216946
 20
990.3302834758797
 30
0.0
  0
SPLINE
  5
7B1A
330
1F
100
AcDbEntity
  8
ceco.net 223
100
AcDbSpline
210
0.0
220
0.0
230
1.0
 70
     8
 71
     3
 72
    14
 73
    10
 74
     0
 42
0.0000000001
 43
0.0000000001
 40
0.0
 40
0.0
 40
0.0
 40
0.0
 40
2.889435802391162
 40
6.889537140417104
 40
15.24007437796712
 40
28.33310619820867
 40
35.22153844411154
 40
39.07124475540931
 40
43.18453858854048
 40
43.18453858854048
 40
43.18453858854048
 40
43.18453858854048
 10
-85.61515542638607
 20
964.737171391158
 30
0.0
 10
-84.46150446949195
 20
970.1715395435094
 30
0.0
 10
-81.71075253793423
 20
983.129183796942
 30
0.0
 10
-51.07532269235981
 20
988.184914090918
 30
0.0
 10
-10.40666203463024
 20
1001.25071512033
 30
0.0
 10
37.80808083805732
 20
1022.63536634734
 30
0.0
 10
80.42963853958008
 20
1020.395862606487
 30
0.0
 10
106.7733028703187
 20
1024.813454419851
 30
0.0
 10
120.6553866521417
 20
1022.510552925874
 30
0.0
 10
127.7871800951643
 20
1020.752014732957
 30
0.0
  0
SPLINE
  5
7B1B
330
1F
100
AcDbEntity
  8
ceco.net 223
100
AcDbSpline
210
0.0
220
0.0
230
1.0
 70
     8
 71
     3
 72
     9
 73
     5
 74
     3
 42
0.0000000001
 43
0.0000000001
 44
0.0000000001
 40
0.0
 40
0.0
 40
0.0
 40
0.0
 40
26.21792836090845
 40
55.41275714388805
 40
55.41275714388805
 40
55.41275714388805
 40
55.41275714388805
 10
-60.95551039746715
 20
1126.428237010537
 30
0.0
 10
-54.02482682264093
 20
1121.093200423984
 30
0.0
 10
-39.37651897442801
 20
1109.817363422111
 30
0.0
 10
-23.57180741456382
 20
1100.225531185013
 30
0.0
 10
-15.24491895535084
 20
1095.171967451486
 30
0.0
 11
-60.95551039746715
 21
1126.428237010537
 31
0.0
 11
-39.90458670526641
 21
1110.80010918783
 31
0.0
 11
-15.24491895535084
 21
1095.171967451486
 31
0.0
  0
SPLINE
  5
7B1C
330
1F
100
AcDbEntity
  8
ceco.net 223
100
AcDbSpline
210
0.0
220
0.0
230
1.0
 70
     8
 71
     3
 72
    10
 73
     6
 74
     4
 42
0.0000000001
 43
0.0000000001
 44
0.0000000001
 40
0.0
 40
0.0
 40
0.0
 40
0.0
 40
48.36859669379879
 40
101.9176085438865
 40
147.8671654181169
 40
147.8671654181169
 40
147.8671654181169
 40
147.8671654181169
 10
-53.7380450032615
 20
1292.326871759323
 30
0.0
 10
-46.12671019284973
 20
1277.939048807635
 30
0.0
 10
-30.08884482712868
 20
1247.622425882394
 30
0.0
 10
12.68849408098213
 20
1218.388170606895
 30
0.0
 10
45.42180168185985
 20
1212.224162554387
 30
0.0
 10
60.53841088108947
 20
1209.377554384909
 30
0.0
 11
-53.7380450032615
 21
1292.326871759323
 31
0.0
 11
-27.87547771496156
 21
1251.453301333123
 31
0.0
 11
16.03074169846786
 21
1220.798113078268
 31
0.0
 11
60.53841088108947
 21
1209.377554384909
 31
0.0
  0
SPLINE
  5
7B1D
330
1F
100
AcDbEntity
  8
ceco.net 223
100
AcDbSpline
210
0.0
220
0.0
230
1.0
 70
     8
 71
     3
 72
    11
 73
     7
 74
     0
 42
0.0000000001
 43
0.0000000001
 40
0.0
 40
0.0
 40
0.0
 40
0.0
 40
35.75757452014367
 40
78.30664377216113
 40
176.2568778749366
 40
214.7327471433632
 40
214.7327471433632
 40
214.7327471433632
 40
214.7327471433632
 10
-87.41952745518664
 20
1238.830566117792
 30
0.0
 10
-82.51906844139467
 20
1227.947233824539
 30
0.0
 10
-71.78739820193641
 20
1204.113480098831
 30
0.0
 10
-31.03084199849309
 20
1159.023650066361
 30
0.0
 10
31.62023319701211
 20
1148.248984616158
 30
0.0
 10
76.4196763083346
 20
1141.964835186745
 30
0.0
 10
89.03192209259941
 20
1140.207155718088
 30
0.0
  0
SPLINE
  5
7B1E
330
1F
100
AcDbEntity
  8
ceco.net 223
100
AcDbSpline
210
0.0
220
0.0
230
1.0
 70
     8
 71
     3
 72
    15
 73
    11
 74
     0
 42
0.0000000001
 43
0.0000000001
 40
0.0
 40
0.0
 40
0.0
 40
0.0
 40
3.317142433036102
 40
8.116724368259196
 40
11.15203574530552
 40
12.26230449810623
 40
15.24676416610105
 40
18.56212173436211
 40
20.31206438821528
 40
26.89366421005986
 40
26.89366421005986
 40
26.89366421005986
 40
26.89366421005986
 10
-85.61515542638607
 20
964.737171391158
 30
0.0
 10
-84.53770687996074
 20
970.5251400792549
 30
0.0
 10
-81.90129525499832
 20
984.6877355787691
 30
0.0
 10
-80.13051334686315
 20
1004.701652447503
 30
0.0
 10
-74.29052790863443
 20
1019.374118115474
 30
0.0
 10
-67.54831277240646
 20
1030.778440005187
 30
0.0
 10
-76.70725183519244
 20
1044.355522588654
 30
0.0
 10
-67.79049352329457
 20
1057.565591056951
 30
0.0
 10
-63.02075247325411
 20
1077.616377821423
 30
0.0
 10
-63.37667553774372
 20
1092.572350496946
 30
0.0
 10
-63.41110086569734
 20
1104.345140027569
 30
0.0
  0
SPLINE
  5
7B1F
330
1F
100
AcDbEntity
  8
ceco.net 223
100
AcDbSpline
210
0.0
220
0.0
230
1.0
 70
     8
 71
     3
 72
    17
 73
    13
 74
     0
 42
0.0000000001
 43
0.0000000001
 40
0.4464461152162721
 40
0.4464461152162721
 40
0.4464461152162721
 40
0.4464461152162721
 40
5.398356116712527
 40
12.63479065306079
 40
19.23198182166596
 40
24.32962762627697
 40
26.275496770946
 40
28.75531504391062
 40
31.35030446431146
 40
33.51609180440985
 40
39.80871480889633
 40
43.93728979415397
 40
43.93728979415397
 40
43.93728979415397
 40
43.93728979415397
 10
-129.4832081202103
 20
1278.259202378018
 30
0.0
 10
-124.899495872829
 20
1270.692329692019
 30
0.0
 10
-113.819803322177
 20
1251.980545703767
 30
0.0
 10
-106.0270034437608
 20
1219.144217910647
 30
0.0
 10
-93.67226543773631
 20
1187.888260484025
 30
0.0
 10
-85.27958800860778
 20
1165.08050729538
 30
0.0
 10
-82.18697092471392
 20
1148.323718461577
 30
0.0
 10
-81.93820406976191
 20
1136.020745106103
 30
0.0
 10
-85.65874663648719
 20
1122.274665521425
 30
0.0
 10
-70.47404266487411
 20
1107.23561000122
 30
0.0
 10
-49.74500147287563
 20
1098.143248824153
 30
0.0
 10
-40.11211255047874
 20
1081.807871146545
 30
0.0
 10
-36.29584264755158
 20
1075.336270499387
 30
0.0
  0
SPLINE
  5
7B20
330
1F
100
AcDbEntity
  8
ceco.net 223
100
AcDbSpline
210
0.0
220
0.0
230
1.0
 70
     8
 71
     3
 72
     9
 73
     5
 74
     3
 42
0.0000000001
 43
0.0000000001
 44
0.0000000001
 40
0.0
 40
0.0
 40
0.0
 40
0.0
 40
82.61144827453716
 40
212.5735978810314
 40
212.5735978810314
 40
212.5735978810314
 40
212.5735978810314
 10
136.0486560293693
 20
1398.293661362439
 30
0.0
 10
137.9252250542895
 20
1370.810111035456
 30
0.0
 10
142.7539629305913
 20
1300.090164858797
 30
0.0
 10
153.60959145529
 20
1230.022259200787
 30
0.0
 10
160.246449618593
 20
1187.184504519529
 30
0.0
 11
136.0486560293693
 21
1398.293661362439
 31
0.0
 11
142.5886014709149
 21
1315.941487744263
 31
0.0
 11
160.246449618593
 21
1187.184504519529
 31
0.0
  0
SPLINE
  5
7B21
330
1F
100
AcDbEntity
  8
ceco.net 223
100
AcDbSpline
210
0.0
220
0.0
230
1.0
 70
     8
 71
     3
 72
    16
 73
    12
 74
     0
 42
0.0000000001
 43
0.0000000001
 40
3.797195110958345
 40
3.797195110958345
 40
3.797195110958345
 40
3.797195110958345
 40
5.084842720039561
 40
8.419698015875983
 40
13.04562471015733
 40
17.16637453681224
 40
20.77327812994959
 40
24.50102418739621
 40
29.12695088167756
 40
31.30968336240695
 40
35.08298395312722
 40
35.08298395312722
 40
35.08298395312722
 40
35.08298395312722
 10
164.0022617964077
 20
1344.96799405431
 30
0.0
 10
164.7750157091777
 20
1342.841934461568
 30
0.0
 10
168.0499709335335
 20
1335.453967765341
 30
0.0
 10
179.4195865847668
 20
1323.022592708392
 30
0.0
 10
189.2379514808581
 20
1304.016801496
 30
0.0
 10
202.719511311865
 20
1286.10393070509
 30
0.0
 10
205.6692949629123
 20
1265.376948980952
 30
0.0
 10
202.5446787012824
 20
1243.867826183
 30
0.0
 10
191.3600938438221
 20
1228.241610540019
 30
0.0
 10
178.7857719368403
 20
1214.145331045183
 30
0.0
 10
175.4197886286547
 20
1203.815741280261
 30
0.0
 10
174.1129087744993
 20
1197.110283654319
 30
0.0
  0
SPLINE
  5
7B22
330
1F
100
AcDbEntity
  8
ceco.net 223
100
AcDbSpline
210
0.0
220
0.0
230
1.0
 70
     8
 71
     3
 72
    18
 73
    14
 74
     0
 42
0.0000000001
 43
0.0000000001
 40
0.3906321719250508
 40
0.3906321719250508
 40
0.3906321719250508
 40
0.3906321719250508
 40
4.548319416899347
 40
13.01170908388872
 40
20.84497431772068
 40
31.52886558422722
 40
40.17915757515818
 40
55.25181447841077
 40
65.90148510117034
 40
78.11407223752787
 40
92.08707241565219
 40
105.1258126651015
 40
112.2097215886598
 40
112.2097215886598
 40
112.2097215886598
 40
112.2097215886598
 10
255.1826560416784
 20
851.818930245423
 30
0.0
 10
253.228516015919
 20
858.9498704286542
 30
0.0
 10
247.4139961447817
 20
880.6247224856161
 30
0.0
 10
244.7194929391926
 20
917.3655428231723
 30
0.0
 10
224.9829124975476
 20
961.4398943089618
 30
0.0
 10
209.5713703073115
 20
1007.577994464009
 30
0.0
 10
206.6432501931913
 20
1069.17412490463
 30
0.0
 10
183.9795318779479
 20
1126.884492477936
 30
0.0
 10
176.3253256038651
 20
1193.978375591423
 30
0.0
 10
158.8943298789572
 20
1257.827220139186
 30
0.0
 10
166.4661408683187
 20
1327.985893521352
 30
0.0
 10
161.3953815650247
 20
1388.701643303713
 30
0.0
 10
153.1163461312089
 20
1423.521647383773
 30
0.0
 10
150.2018226763893
 20
1435.779563103531
 30
0.0
  0
SPLINE
  5
7B23
330
1F
100
AcDbEntity
  8
ceco.net 223
100
AcDbSpline
210
0.0
220
0.0
230
1.0
 70
     8
 71
     3
 72
    11
 73
     7
 74
     0
 42
0.0000000001
 43
0.0000000001
 40
0.0
 40
0.0
 40
0.0
 40
0.0
 40
2.983945817698618
 40
5.929892041477278
 40
9.383335243554482
 40
10.56715234982883
 40
10.56715234982883
 40
10.56715234982883
 40
10.56715234982883
 10
200.1446246741479
 20
841.312504650441
 30
0.0
 10
205.3451522916375
 20
842.442298496744
 30
0.0
 10
215.6799804737047
 20
844.6874986266921
 30
0.0
 10
232.6227466156424
 20
843.3969598836428
 30
0.0
 10
245.3642737686677
 20
848.5813831460072
 30
0.0
 10
253.1855534405976
 20
851.1677003052918
 30
0.0
 10
255.1826560416784
 20
851.818930245423
 30
0.0
  0
SPLINE
  5
7B24
330
1F
100
AcDbEntity
  8
ceco.net 223
100
AcDbSpline
210
0.0
220
0.0
230
1.0
 70
     8
 71
     3
 72
    17
 73
    13
 74
    11
 42
0.0000000001
 43
0.0000000001
 44
0.0000000001
 40
0.0
 40
0.0
 40
0.0
 40
0.0
 40
37.41952013520065
 40
75.53334074489976
 40
102.3384489588881
 40
152.6424627847679
 40
205.6162638868888
 40
244.9676813044089
 40
360.8715408561609
 40
436.2479148472662
 40
567.1716616423501
 40
590.9645378471675
 40
590.9645378471675
 40
590.9645378471675
 40
590.9645378471675
 10
98.72164408769913
 20
1403.748612290466
 30
0.0
 10
93.13030109585463
 20
1392.678938852449
 30
0.0
 10
81.84387054039415
 20
1370.334199724114
 30
0.0
 10
65.28343145618174
 20
1339.375301900588
 30
0.0
 10
66.59900549083741
 20
1300.232146430608
 30
0.0
 10
72.90353656317797
 20
1257.570191519712
 30
0.0
 10
82.48455023011977
 20
1210.816880082482
 30
0.0
 10
85.06448904063894
 20
1141.266515845891
 30
0.0
 10
108.4648391298985
 20
1066.815088104195
 30
0.0
 10
149.680244666609
 20
967.895371851919
 30
0.0
 10
178.960855945885
 20
896.9145155377132
 30
0.0
 10
197.321117862754
 20
848.7234926800617
 30
0.0
 10
200.1446246741479
 20
841.312504650441
 30
0.0
 11
98.72164408769913
 21
1403.748612290466
 31
0.0
 11
81.71779957259696
 21
1370.415599242514
 31
0.0
 11
67.32992414557793
 21
1335.121798623073
 31
0.0
 11
66.67592051300198
 21
1308.324669940839
 31
0.0
 11
73.23254322883622
 21
1258.449781414081
 31
0.0
 11
81.73445412588899
 21
1206.162678661054
 31
0.0
 11
85.00442684654808
 21
1166.947358553039
 31
0.0
 11
114.4347948023451
 21
1054.842237791413
 31
0.0
 11
142.5565647448038
 21
984.9082416854399
 31
0.0
 11
191.6426910560985
 21
863.5345226247846
 31
0.0
 11
200.1446246741479
 21
841.312504650441
 31
0.0
  0
SPLINE
  5
7B25
330
1F
100
AcDbEntity
  8
ceco.net 223
100
AcDbSpline
210
0.0
220
0.0
230
1.0
 70
     8
 71
     3
 72
    11
 73
     7
 74
     5
 42
0.0000000001
 43
0.0000000001
 44
0.0000000001
 40
0.0
 40
0.0
 40
0.0
 40
0.0
 40
38.13073093430014
 40
64.48561800676296
 40
97.79456431776766
 40
149.6924707339978
 40
149.6924707339978
 40
149.6924707339978
 40
149.6924707339978
 10
124.2274222209644
 20
1441.656763873463
 30
0.0
 10
111.8983024293454
 20
1437.996400200374
 30
0.0
 10
91.0476423512093
 20
1431.806096269528
 30
0.0
 10
66.67756486349964
 20
1407.680490865365
 30
0.0
 10
59.85793642199773
 20
1369.882672952231
 30
0.0
 10
57.59210011606049
 20
1341.780742870721
 30
0.0
 10
56.21202143933169
 20
1324.664380855163
 30
0.0
 11
124.2274222209644
 21
1441.656763873463
 31
0.0
 11
88.91172592549446
 21
1427.277812703432
 31
0.0
 11
70.59989686635072
 21
1408.323736911905
 31
0.0
 11
61.44395961561167
 21
1376.297892388927
 31
0.0
 11
56.21202143933169
 21
1324.664380855163
 31
0.0
  0
SPLINE
  5
7B26
330
1F
100
AcDbEntity
  8
ceco.net 223
100
AcDbSpline
210
0.0
220
0.0
230
1.0
 70
     8
 71
     3
 72
    13
 73
     9
 74
     7
 42
0.0000000001
 43
0.0000000001
 44
0.0000000001
 40
0.0
 40
0.0
 40
0.0
 40
0.0
 40
31.45289675470333
 40
68.62291002551839
 40
142.0665873311352
 40
214.7743005392935
 40
256.9056691623606
 40
261.8872418086973
 40
261.8872418086973
 40
261.8872418086973
 40
261.8872418086973
 10
29.39823604091452
 20
1482.179266420056
 30
0.0
 10
17.92254884306269
 20
1483.412849714773
 30
0.0
 10
-7.114733293483927
 20
1486.104241738297
 30
0.0
 10
-29.03603798469015
 20
1435.883946365007
 30
0.0
 10
-49.72632641413176
 20
1382.722013232354
 30
0.0
 10
-67.26107305875934
 20
1319.777321854159
 30
0.0
 10
-95.18322853199469
 20
1290.126641079446
 30
0.0
 10
-107.200283136311
 20
1280.02810296672
 30
0.0
 10
-108.4709282901358
 20
1278.9603156481
 30
0.0
 11
29.39823604091452
 21
1482.179266420056
 31
0.0
 11
-1.993483901206673
 21
1480.218492762171
 31
0.0
 11
-22.92130476954389
 21
1449.499830677774
 31
0.0
 11
-49.08108653538511
 21
1380.87301701041
 31
0.0
 11
-76.54883012415758
 21
1313.553371867991
 31
0.0
 11
-104.67060006673
 21
1282.181118564318
 31
0.0
 11
-108.4709282901358
 21
1278.9603156481
 31
0.0
  0
SPLINE
  5
7B27
330
1F
100
AcDbEntity
  8
ceco.net 223
100
AcDbSpline
210
0.0
220
0.0
230
1.0
 70
     8
 71
     3
 72
    11
 73
     7
 74
     5
 42
0.0000000001
 43
0.0000000001
 44
0.0000000001
 40
0.0
 40
0.0
 40
0.0
 40
0.0
 40
33.0303931018251
 40
69.94724004880717
 40
107.0906740077198
 40
210.2866004441809
 40
210.2866004441809
 40
210.2866004441809
 40
210.2866004441809
 10
37.31526083773951
 20
1490.335625688127
 30
0.0
 10
26.28818072812795
 20
1491.567892363485
 30
0.0
 10
2.936541615428214
 20
1494.177417859586
 30
0.0
 10
-32.41903899249924
 20
1477.415311880235
 30
0.0
 10
-56.14276764020537
 20
1421.320928532174
 30
0.0
 10
-79.20804541202241
 20
1381.06382922539
 30
0.0
 10
-96.16866644856692
 20
1351.461523450987
 30
0.0
 11
37.31526083773951
 21
1490.335625688127
 31
0.0
 11
4.291735486812285
 21
1491.009155091911
 31
0.0
 11
-28.73178986422863
 21
1474.507629044419
 31
0.0
 11
-47.60237577901171
 21
1442.514884968725
 31
0.0
 11
-96.16866644856692
 21
1351.461523450987
 31
0.0
  0
SPLINE
  5
7B28
330
1F
100
AcDbEntity
  8
ceco.net 223
100
AcDbSpline
210
0.0
220
0.0
230
1.0
 70
     8
 71
     3
 72
    14
 73
    10
 74
     8
 42
0.0000000001
 43
0.0000000001
 44
0.0000000001
 40
0.0
 40
0.0
 40
0.0
 40
0.0
 40
26.28160012901551
 40
46.63942737466277
 40
64.54941877313072
 40
80.10786708631583
 40
106.5365598357933
 40
132.4286877452193
 40
152.5310777853474
 40
152.5310777853474
 40
152.5310777853474
 40
152.5310777853474
 10
16.42283941552159
 20
1469.456144602327
 30
0.0
 10
24.37591246562445
 20
1472.973749415734
 30
0.0
 10
38.4894660964838
 20
1479.216104273211
 30
0.0
 10
59.77900887580784
 20
1485.894909870312
 30
0.0
 10
77.43330063863218
 20
1480.474752540561
 30
0.0
 10
96.35783362752022
 20
1474.410141684277
 30
0.0
 10
117.7188304135111
 20
1467.621853609338
 30
0.0
 10
140.3174198504352
 20
1456.005677436893
 30
0.0
 10
147.1956287867736
 20
1441.931034506534
 30
0.0
 10
150.2018226763893
 20
1435.779563103531
 30
0.0
 11
16.42283941552159
 21
1469.456144602327
 31
0.0
 11
40.68500183083324
 21
1479.559113486497
 31
0.0
 11
60.56651685977522
 21
1483.937068524819
 31
0.0
 11
78.08922001012343
 21
1480.232656803915
 31
0.0
 11
92.91611218904018
 21
1475.517937063694
 31
0.0
 11
117.8522273471244
 21
1466.76202698712
 31
0.0
 11
139.7556006047252
 21
1452.954618554822
 31
0.0
 11
150.2018226763893
 21
1435.779563103531
 31
0.0
  0
SPLINE
  5
7B29
330
1F
100
AcDbEntity
  8
ceco.net 223
100
AcDbSpline
210
0.0
220
0.0
230
1.0
 70
     8
 71
     3
 72
     9
 73
     5
 74
     0
 42
0.0000000001
 43
0.0000000001
 40
1.962516024984929
 40
1.962516024984929
 40
1.962516024984929
 40
1.962516024984929
 40
2.894818257978666
 40
6.224405157485584
 40
6.224405157485584
 40
6.224405157485584
 40
6.224405157485584
 10
81.86916326277605
 20
1498.474691237526
 30
0.0
 10
80.31442748844165
 20
1497.982202009106
 30
0.0
 10
73.57523148024393
 20
1495.211209403161
 30
0.0
 10
69.31787225434073
 20
1488.936233882947
 30
0.0
 10
66.49042760474367
 20
1483.329976482702
 30
0.0
  0
SPLINE
  5
7B2A
330
1F
100
AcDbEntity
  8
ceco.net 223
100
AcDbSpline
210
0.0
220
0.0
230
1.0
 70
     8
 71
     3
 72
    16
 73
    12
 74
    10
 42
0.0000000001
 43
0.0000000001
 44
0.0000000001
 40
0.0
 40
0.0
 40
0.0
 40
0.0
 40
26.85755200996006
 40
89.54492834351182
 40
166.9481973787382
 40
236.6257665277928
 40
269.1940582585039
 40
298.4570744314182
 40
328.9594581343472
 40
354.9781712129347
 40
357.2006480042551
 40
357.2006480042551
 40
357.2006480042551
 40
357.2006480042551
 10
-163.1637543089582
 20
1292.873495244857
 30
0.0
 10
-157.2609838445703
 20
1299.658893600102
 30
0.0
 10
-137.5807405347631
 20
1322.28187909324
 30
0.0
 10
-117.536102091548
 20
1375.104046865486
 30
0.0
 10
-93.14689572132001
 20
1441.039301930121
 30
0.0
 10
-51.70588074335058
 20
1486.401531187429
 30
0.0
 10
-15.0137204007707
 20
1510.898350084079
 30
0.0
 10
16.58528413571283
 20
1517.373479714068
 30
0.0
 10
43.96626429420611
 20
1506.649272802513
 30
0.0
 10
60.11708133058784
 20
1493.823460666421
 30
0.0
 10
64.233399666922
 20
1485.3439129555
 30
0.0
 10
64.55733863728164
 20
1484.67660403278
 30
0.0
 11
-163.1637543089582
 21
1292.873495244857
 31
0.0
 11
-146.2587010595698
 21
1313.743264639919
 31
0.0
 11
-119.409493493923
 21
1370.389775606448
 31
0.0
 11
-87.5882087700902
 21
1440.949480083327
 31
0.0
 11
-40.85066985058893
 21
1492.627000324428
 31
0.0
 11
-13.00705139752699
 21
1509.521571573708
 31
0.0
 11
15.83100066406041
 21
1514.490562299139
 31
0.0
 11
44.66903000453749
 21
1504.552580848236
 31
0.0
 11
63.56292774975282
 21
1486.664203105712
 31
0.0
 11
64.55733863728164
 21
1484.67660403278
 31
0.0
  0
SPLINE
  5
7B2B
330
1F
100
AcDbEntity
  8
ceco.net 223
100
AcDbSpline
210
0.0
220
0.0
230
1.0
 70
     8
 71
     3
 72
    17
 73
    13
 74
    11
 42
0.0000000001
 43
0.0000000001
 44
0.0000000001
 40
0.0
 40
0.0
 40
0.0
 40
0.0
 40
20.47325796505032
 40
60.7366430696552
 40
91.95482907948381
 40
101.7959802102295
 40
109.3652572103668
 40
133.8125098032555
 40
172.5253697182521
 40
209.5048362148427
 40
235.9252316742868
 40
265.7576719022927
 40
265.7576719022927
 40
265.7576719022927
 40
265.7576719022927
 10
-134.3257249683674
 20
1437.968074517181
 30
0.0
 10
-140.2836717365287
 20
1434.710970172752
 30
0.0
 10
-157.9587133397536
 20
1425.048336880782
 30
0.0
 10
-185.060020937581
 20
1408.198405608475
 30
0.0
 10
-202.965856602299
 20
1391.954124580333
 30
0.0
 10
-220.2761372884612
 20
1381.421668174875
 30
0.0
 10
-210.8843520673173
 20
1367.827077927228
 30
0.0
 10
-202.9989308007885
 20
1347.32391879243
 30
0.0
 10
-184.9075435871871
 20
1318.806918002119
 30
0.0
 10
-168.7624076424004
 20
1286.660299704954
 30
0.0
 10
-137.0376778307891
 20
1277.05603131766
 30
0.0
 10
-118.3705985777343
 20
1278.300395030308
 30
0.0
 10
-108.4709282901358
 20
1278.9603156481
 30
0.0
 11
-134.3257249683674
 21
1437.968074517181
 31
0.0
 11
-152.225189105171
 21
1428.030093066263
 31
0.0
 11
-186.0353183249444
 21
1406.166531091508
 31
0.0
 11
-210.8957041157609
 21
1387.284360769323
 31
0.0
 11
-217.8566030487772
 21
1380.327770970972
 31
0.0
 11
-214.8733476654215
 21
1373.371181172624
 31
0.0
 11
-203.9347824617479
 21
1351.507605284277
 31
0.0
 11
-185.040884716419
 21
1317.718462785729
 31
0.0
 11
-163.1637543089582
 21
1287.904504519383
 31
0.0
 11
-138.3033685181417
 21
1278.9603156481
 31
0.0
 11
-108.4709282901358
 21
1278.9603156481
 31
0.0
  0
SPLINE
  5
7B2C
330
1F
100
AcDbEntity
  8
ceco.net 223
100
AcDbSpline
210
0.0
220
0.0
230
1.0
 70
     8
 71
     3
 72
    11
 73
     7
 74
     5
 42
0.0000000001
 43
0.0000000001
 44
0.0000000001
 40
0.0
 40
0.0
 40
0.0
 40
0.0
 40
13.43717768497346
 40
36.35596057611305
 40
51.12239458577211
 40
69.25443877549168
 40
69.25443877549168
 40
69.25443877549168
 40
69.25443877549168
 10
-18.8794741624506
 20
1565.711493940933
 30
0.0
 10
-18.85001451722012
 20
1561.207245631382
 30
0.0
 10
-18.77030777182348
 20
1549.0204399043
 30
0.0
 10
-24.17875227954981
 20
1532.738544408756
 30
0.0
 10
-26.93416444627924
 20
1513.987514966737
 30
0.0
 10
-33.87002508870624
 20
1505.197950076088
 30
0.0
 10
-37.69273478670675
 20
1500.353568581
 30
0.0
 11
-18.8794741624506
 21
1565.711493940933
 31
0.0
 11
-19.32739757868239
 21
1552.281784012913
 31
0.0
 11
-24.25469148366664
 21
1529.898924857187
 31
0.0
 11
-27.83816969784857
 21
1515.573902789137
 31
0.0
 11
-37.69273478670675
 21
1500.353568581
 31
0.0
  0
SPLINE
  5
7B2D
330
1F
100
AcDbEntity
  8
ceco.net 223
100
AcDbSpline
210
0.0
220
0.0
230
1.0
 70
    24
 71
     3
 72
     8
 73
     4
 74
     2
 42
0.0000000001
 43
0.0000000001
 44
0.0000000001
 40
0.0
 40
0.0
 40
0.0
 40
0.0
 40
23.45631170733844
 40
23.45631170733844
 40
23.45631170733844
 40
23.45631170733844
 10
-50.23490853617295
 20
1550.491145819203
 30
0.0
 10
-53.3704481866783
 20
1543.328634785178
 30
0.0
 10
-56.50598783718366
 20
1536.166123751153
 30
0.0
 10
-59.64152748768902
 20
1529.003612717128
 30
0.0
 11
-50.23490853617295
 21
1550.491145819203
 31
0.0
 11
-59.64152748768902
 21
1529.003612717128
 31
0.0
  0
SPLINE
  5
7B2E
330
1F
100
AcDbEntity
  8
ceco.net 223
100
AcDbSpline
210
0.0
220
0.0
230
1.0
 70
     8
 71
     3
 72
    11
 73
     7
 74
     5
 42
0.0000000001
 43
0.0000000001
 44
0.0000000001
 40
0.0
 40
0.0
 40
0.0
 40
0.0
 40
12.29960326431843
 40
28.91944596925389
 40
55.99845045621022
 40
92.14649788168648
 40
92.14649788168648
 40
92.14649788168648
 40
92.14649788168648
 10
-145.1970812108002
 20
1456.483176323198
 30
0.0
 10
-140.6064284140819
 20
1456.508722307653
 30
0.0
 10
-129.8126546097318
 20
1456.568787311484
 30
0.0
 10
-126.8720138034526
 20
1479.825322133538
 30
0.0
 10
-98.2574137898732
 20
1487.881157815817
 30
0.0
 10
-84.23308667321043
 20
1503.791650414957
 30
0.0
 10
-76.21512558867926
 20
1512.887966368973
 30
0.0
 11
-145.1970812108002
 21
1456.483176323198
 31
0.0
 11
-133.1028535986761
 21
1458.721456673325
 31
0.0
 11
-125.4879510330838
 21
1473.49414872499
 31
0.0
 11
-103.0912121946457
 21
1488.714482933128
 31
0.0
 11
-76.21512558867926
 21
1512.887966368973
 31
0.0
  0
SPLINE
  5
7B2F
330
1F
100
AcDbEntity
  8
ceco.net 223
100
AcDbSpline
210
0.0
220
0.0
230
1.0
 70
     8
 71
     3
 72
    10
 73
     6
 74
     4
 42
0.0000000001
 43
0.0000000001
 44
0.0000000001
 40
0.0
 40
0.0
 40
0.0
 40
0.0
 40
12.47702375166022
 40
32.3107344471385
 40
46.36676183207843
 40
46.36676183207843
 40
46.36676183207843
 40
46.36676183207843
 10
-204.3244717440629
 20
1438.129235711267
 30
0.0
 10
-200.4269564366209
 20
1440.295469518737
 30
0.0
 10
-190.3338777818927
 20
1445.905189167966
 30
0.0
 10
-176.2950476849683
 20
1434.495413785553
 30
0.0
 10
-166.6619497263336
 20
1429.153443127008
 30
0.0
 10
-162.6665488652506
 20
1426.937820047011
 30
0.0
 11
-204.3244717440629
 21
1438.129235711267
 31
0.0
 11
-192.678167548057
 21
1442.605810325141
 31
0.0
 11
-174.7607764773747
 21
1434.100331081021
 31
0.0
 11
-162.6665488652506
 21
1426.937820047011
 31
0.0
  0
SPLINE
  5
7B30
330
1F
100
AcDbEntity
  8
ceco.net 223
100
AcDbSpline
210
0.0
220
0.0
230
1.0
 70
     8
 71
     3
 72
    13
 73
     9
 74
     7
 42
0.0000000001
 43
0.0000000001
 44
0.0000000001
 40
0.0
 40
0.0
 40
0.0
 40
0.0
 40
22.53610138538333
 40
40.5871516229299
 40
62.4557672627537
 40
80.33000547348899
 40
95.35233169155985
 40
101.0518390156783
 40
101.0518390156783
 40
101.0518390156783
 40
101.0518390156783
 10
-77.11099514213947
 20
1526.765332366987
 30
0.0
 10
-81.8165132894512
 20
1520.934833330375
 30
0.0
 10
-90.29107484929836
 20
1510.4341995078
 30
0.0
 10
-106.6523278891241
 20
1496.674144389004
 30
0.0
 10
-113.1737373803516
 20
1478.680986330596
 30
0.0
 10
-116.2646066873715
 20
1457.945873989188
 30
0.0
 10
-131.3159941898754
 20
1456.043248119718
 30
0.0
 10
-135.879162931663
 20
1450.770834312511
 30
0.0
 10
-137.1342552289761
 20
1449.320665289158
 30
0.0
 11
-77.11099514213947
 21
1526.765332366987
 31
0.0
 11
-91.89283141498526
 21
1509.75435996518
 31
0.0
 11
-104.4350278855618
 21
1496.772306107184
 31
0.0
 11
-112.9457772835039
 21
1476.62774121519
 31
0.0
 11
-119.664810295636
 21
1460.064438797013
 31
0.0
 11
-133.1028535986761
 21
1453.349583832998
 31
0.0
 11
-137.1342552289761
 21
1449.320665289158
 31
0.0
  0
SPLINE
  5
7B31
330
1F
100
AcDbEntity
  8
ceco.net 223
100
AcDbSpline
210
0.0
220
0.0
230
1.0
 70
     8
 71
     3
 72
    18
 73
    14
 74
    12
 42
0.0000000001
 43
0.0000000001
 44
0.0000000001
 40
0.0
 40
0.0
 40
0.0
 40
0.0
 40
23.7933720392264
 40
44.77895024876512
 40
62.69634131933369
 40
80.74736576344839
 40
98.45756574468575
 40
112.349695261138
 40
139.4648983256381
 40
161.4976405430831
 40
195.3375355786644
 40
235.3576051903279
 40
271.4543841629228
 40
271.4543841629228
 40
271.4543841629228
 40
271.4543841629228
 10
-217.7625377680997
 20
1462.750375217136
 30
0.0
 10
-218.5566927363662
 20
1454.354380994992
 30
0.0
 10
-220.0512865146332
 20
1438.553181949205
 30
0.0
 10
-201.4435570816584
 20
1423.680516974837
 30
0.0
 10
-181.0795894170109
 20
1423.463084251254
 30
0.0
 10
-166.7002253673987
 20
1436.075822598207
 30
0.0
 10
-168.5304286061336
 20
1460.935938729329
 30
0.0
 10
-145.7706988587537
 20
1447.384808485643
 30
0.0
 10
-128.9976967766258
 20
1435.878584873881
 30
0.0
 10
-99.91858772015348
 20
1450.779858395369
 30
0.0
 10
-95.22163226813809
 20
1485.174060604275
 30
0.0
 10
-64.08085177116086
 20
1508.295699463464
 30
0.0
 10
-53.1696338201499
 20
1531.451962667148
 30
0.0
 10
-47.99522329179672
 20
1542.433322645147
 30
0.0
 11
-217.7625377680997
 21
1462.750375217136
 31
0.0
 11
-215.9707986610655
 21
1439.024561764919
 31
0.0
 11
-199.8451239763071
 21
1425.594851836927
 31
0.0
 11
-181.9277329057386
 21
1425.594851836927
 31
0.0
 11
-169.3855591561587
 21
1438.576891781304
 31
0.0
 11
-164.4582879722847
 21
1455.587864183138
 31
0.0
 11
-151.4681680854764
 21
1450.663633499241
 31
0.0
 11
-126.383820586544
 21
1440.367529975001
 31
0.0
 11
-106.6746904088277
 21
1450.215977429205
 31
0.0
 11
-91.89283141498526
 21
1480.65665975903
 31
0.0
 11
-65.91261436247896
 21
1511.097328175263
 31
0.0
 11
-47.99522329179672
 21
1542.433322645147
 31
0.0
  0
SPLINE
  5
7B32
330
1F
100
AcDbEntity
  8
ceco.net 223
100
AcDbSpline
210
0.0
220
0.0
230
1.0
 70
     8
 71
     3
 72
    14
 73
    10
 74
     8
 42
0.0000000001
 43
0.0000000001
 44
0.0000000001
 40
0.0
 40
0.0
 40
0.0
 40
0.0
 40
31.80718807618715
 40
67.59948167506322
 40
88.81688706849711
 40
113.4452395758737
 40
126.618633481576
 40
143.4279826170633
 40
161.3022208277558
 40
161.3022208277558
 40
161.3022208277558
 40
161.3022208277558
 10
-59.19360407145723
 20
1547.805209399081
 30
0.0
 10
-68.70814642807705
 20
1542.755441445209
 30
0.0
 10
-88.92930304658548
 20
1532.023222820809
 30
0.0
 10
-105.6011457856951
 20
1506.874310261114
 30
0.0
 10
-129.5323724754053
 20
1491.324753679653
 30
0.0
 10
-131.2264019167585
 20
1468.561456038454
 30
0.0
 10
-151.7820783832043
 20
1461.040413633283
 30
0.0
 10
-163.7010962752324
 20
1475.552033583372
 30
0.0
 10
-167.1567562457713
 20
1486.306001894714
 30
0.0
 10
-168.9376357399269
 20
1491.848075423286
 30
0.0
 11
-59.19360407145723
 21
1547.805209399081
 31
0.0
 11
-86.06969067753743
 21
1530.794236997233
 31
0.0
 11
-110.706114760238
 21
1504.830129281283
 31
0.0
 11
-125.9358971703122
 21
1490.057451143209
 31
0.0
 11
-137.1342552289761
 21
1468.122261971069
 31
0.0
 11
-149.6764289784423
 21
1464.093343427217
 31
0.0
 11
-162.2186027279085
 21
1475.284773005109
 31
0.0
 11
-168.9376357399269
 21
1491.848075423286
 31
0.0
  0
SPLINE
  5
7B33
330
1F
100
AcDbEntity
  8
ceco.net 223
100
AcDbSpline
210
0.0
220
0.0
230
1.0
 70
     8
 71
     3
 72
    12
 73
     8
 74
     6
 42
0.0000000001
 43
0.0000000001
 44
0.0000000001
 40
0.0
 40
0.0
 40
0.0
 40
0.0
 40
14.61961023946163
 40
33.75194932893494
 40
51.37917186344826
 40
74.25678453819301
 40
83.60946088731179
 40
83.60946088731179
 40
83.60946088731179
 40
83.60946088731179
 10
88.1949893847277
 20
1693.001024003204
 30
0.0
 10
85.27440383429107
 20
1696.609268390162
 30
0.0
 10
78.53171686148245
 20
1704.939537099124
 30
0.0
 10
63.03525979302442
 20
1720.595587919342
 30
0.0
 10
45.53557256501461
 20
1699.44650114454
 30
0.0
 10
30.31261798029918
 20
1715.057112100572
 30
0.0
 10
19.9735643251934
 20
1717.392213311035
 30
0.0
 10
16.97334851823052
 20
1718.069819579094
 30
0.0
 11
88.1949893847277
 21
1693.001024003204
 31
0.0
 11
78.78834771210131
 21
1704.192453581081
 31
0.0
 11
62.66269574845319
 21
1714.488557105322
 31
0.0
 11
46.98498992214718
 21
1706.430733931221
 31
0.0
 11
25.93204405362849
 21
1715.383869245337
 31
0.0
 11
16.97334851823052
 21
1718.069819579094
 31
0.0
  0
SPLINE
  5
7B34
330
1F
100
AcDbEntity
  8
ceco.net 223
100
AcDbSpline
210
0.0
220
0.0
230
1.0
 70
     8
 71
     3
 72
    11
 73
     7
 74
     5
 42
0.0000000001
 43
0.0000000001
 44
0.0000000001
 40
0.0
 40
0.0
 40
0.0
 40
0.0
 40
25.43868490156917
 40
36.91392134747979
 40
46.32644276706907
 40
54.55906365764841
 40
54.55906365764841
 40
54.55906365764841
 40
54.55906365764841
 10
121.7900862817159
 20
1674.647083391315
 30
0.0
 10
113.1326279250858
 20
1676.876172659568
 30
0.0
 10
100.5698426206452
 20
1680.110790574889
 30
0.0
 10
93.06899024934734
 20
1696.072843623452
 30
0.0
 10
98.41918446374856
 20
1705.176703841122
 30
0.0
 10
102.7486049828605
 20
1709.084202906654
 30
0.0
 10
104.7685647646076
 20
1710.907308545098
 30
0.0
 11
121.7900862817159
 21
1674.647083391315
 31
0.0
 11
98.94542402715979
 21
1685.838512969192
 31
0.0
 11
94.91399967563575
 21
1696.58228647702
 31
0.0
 11
98.94542402715979
 21
1705.08776572114
 31
0.0
 11
104.7685647646076
 21
1710.907308545098
 31
0.0
  0
SPLINE
  5
7B35
330
1F
100
AcDbEntity
  8
ceco.net 223
100
AcDbSpline
210
0.0
220
0.0
230
1.0
 70
     8
 71
     3
 72
    10
 73
     6
 74
     4
 42
0.0000000001
 43
0.0000000001
 44
0.0000000001
 40
0.0
 40
0.0
 40
0.0
 40
0.0
 40
8.865907317802731
 40
18.27252626931879
 40
20.01495707059639
 40
20.01495707059639
 40
20.01495707059639
 40
20.01495707059639
 10
-52.00860710389043
 20
1672.408803041173
 30
0.0
 10
-50.15387997941449
 20
1675.053704833566
 30
0.0
 10
-46.33131011830703
 20
1680.504814996225
 30
0.0
 10
-38.85519468948629
 20
1678.71729173168
 30
0.0
 10
-35.16622500156692
 20
1678.625123813919
 30
0.0
 10
-34.58969385750242
 20
1678.61071933799
 30
0.0
 11
-52.00860710389043
 21
1672.408803041173
 31
0.0
 11
-45.73752022910048
 21
1678.676001935153
 31
0.0
 11
-36.33090127758441
 21
1678.676001935153
 31
0.0
 11
-34.58969385750242
 21
1678.61071933799
 31
0.0
  0
SPLINE
  5
7B36
330
1F
100
AcDbEntity
  8
ceco.net 223
100
AcDbSpline
210
0.0
220
0.0
230
1.0
 70
     8
 71
     3
 72
     9
 73
     5
 74
     3
 42
0.0000000001
 43
0.0000000001
 44
0.0000000001
 40
0.0
 40
0.0
 40
0.0
 40
0.0
 40
16.08153603441828
 40
32.30660507809494
 40
32.30660507809494
 40
32.30660507809494
 40
32.30660507809494
 10
-46.63338978267439
 20
1666.141604147195
 30
0.0
 10
-40.95398380580569
 20
1665.681436337203
 30
0.0
 10
-29.54448128190663
 20
1664.756993567853
 30
0.0
 10
-23.62570763136725
 20
1654.950825460397
 30
0.0
 10
-20.65317273016808
 20
1650.02595779904
 30
0.0
 11
-46.63338978267439
 21
1666.141604147195
 31
0.0
 11
-30.95568395636837
 21
1662.560355586971
 31
0.0
 11
-20.65317273016808
 21
1650.02595779904
 31
0.0
  0
SPLINE
  5
7B37
330
1F
100
AcDbEntity
  8
ceco.net 223
100
AcDbSpline
210
0.0
220
0.0
230
1.0
 70
     8
 71
     3
 72
     9
 73
     5
 74
     3
 42
0.0000000001
 43
0.0000000001
 44
0.0000000001
 40
0.0
 40
0.0
 40
0.0
 40
0.0
 40
13.67252594568269
 40
21.33524254027116
 40
21.33524254027116
 40
21.33524254027116
 40
21.33524254027116
 10
-47.52925933624829
 20
1665.246292007133
 30
0.0
 10
-52.48453779897603
 20
1663.544089200777
 30
0.0
 10
-60.21698374765327
 20
1660.887893127672
 30
0.0
 10
-60.1098948777118
 20
1653.225589279624
 30
0.0
 10
-60.07143308571449
 20
1650.473613869062
 30
0.0
 11
-47.52925933624829
 21
1665.246292007133
 31
0.0
 11
-59.17556353214059
 21
1658.083780973138
 31
0.0
 11
-60.07143308571449
 21
1650.473613869062
 31
0.0
  0
SPLINE
  5
7B38
330
1F
100
AcDbEntity
  8
ceco.net 223
100
AcDbSpline
210
0.0
220
0.0
230
1.0
 70
     8
 71
     3
 72
    10
 73
     6
 74
     4
 42
0.0000000001
 43
0.0000000001
 44
0.0000000001
 40
0.0
 40
0.0
 40
0.0
 40
0.0
 40
11.41883467759441
 40
21.42998787675649
 40
31.96688127620809
 40
31.96688127620809
 40
31.96688127620809
 40
31.96688127620809
 10
-17.96556406956006
 20
1702.849485371
 30
0.0
 10
-21.82724081539065
 20
1701.684307157967
 30
0.0
 10
-29.07453777551584
 20
1699.497590589723
 30
0.0
 10
-33.14707501097618
 20
1688.729517924555
 30
0.0
 10
-34.36337534985266
 20
1682.08385236937
 30
0.0
 10
-34.98708558678208
 20
1678.676001935153
 30
0.0
 11
-17.96556406956006
 21
1702.849485371
 31
0.0
 11
-28.26807529576035
 21
1697.925254687101
 31
0.0
 11
-32.74742306340249
 21
1688.972119372944
 31
0.0
 11
-34.98708558678208
 21
1678.676001935153
 31
0.0
  0
SPLINE
  5
7B39
330
1F
100
AcDbEntity
  8
ceco.net 223
100
AcDbSpline
210
0.0
220
0.0
230
1.0
 70
     8
 71
     3
 72
    11
 73
     7
 74
     5
 42
0.0000000001
 43
0.0000000001
 44
0.0000000001
 40
0.0
 40
0.0
 40
0.0
 40
0.0
 40
19.02827821768297
 40
41.68782582620813
 40
56.57718881786639
 40
62.90997273395063
 40
62.90997273395063
 40
62.90997273395063
 40
62.90997273395063
 10
35.33866300514455
 20
1690.762743653062
 30
0.0
 10
28.99134459149205
 20
1692.962029439716
 30
0.0
 10
15.0854146137639
 20
1697.780302631188
 30
0.0
 10
9.37401885288822
 20
1716.74584605627
 30
0.0
 10
-8.40052343820316
 20
1724.472666403835
 30
0.0
 10
-13.00737936424906
 20
1718.507025421457
 30
0.0
 10
-14.38208585549182
 20
1716.726851369012
 30
0.0
 11
35.33866300514455
 21
1690.762743653062
 31
0.0
 11
18.31714148803621
 21
1699.268222897182
 31
0.0
 11
4.431174768764321
 21
1717.174507439049
 31
0.0
 11
-9.902738087735997
 21
1721.203412069295
 31
0.0
 11
-14.38208585549182
 21
1716.726851369012
 31
0.0
  0
SPLINE
  5
7B3A
330
1F
100
AcDbEntity
  8
ceco.net 223
100
AcDbSpline
210
0.0
220
0.0
230
1.0
 70
     8
 71
     3
 72
     9
 73
     5
 74
     3
 42
0.0000000001
 43
0.0000000001
 44
0.0000000001
 40
0.0
 40
0.0
 40
0.0
 40
0.0
 40
19.72219864286139
 40
40.23493590262677
 40
40.23493590262677
 40
40.23493590262677
 40
40.23493590262677
 10
-17.06969451609984
 20
1703.744797511059
 30
0.0
 10
-13.16613781261369
 20
1698.377289149313
 30
0.0
 10
-5.202555425013968
 20
1687.427122851812
 30
0.0
 10
6.221696454454676
 20
1680.148525457704
 30
0.0
 10
12.04605461324627
 20
1676.437721585013
 30
0.0
 11
-17.06969451609984
 21
1703.744797511059
 31
0.0
 11
-4.527520766633642
 21
1688.524449389327
 31
0.0
 11
12.04605461324627
 21
1676.437721585013
 31
0.0
  0
SPLINE
  5
7B3B
330
1F
100
AcDbEntity
  8
ceco.net 223
100
AcDbSpline
210
0.0
220
0.0
230
1.0
 70
     8
 71
     3
 72
    12
 73
     8
 74
     6
 42
0.0000000001
 43
0.0000000001
 44
0.0000000001
 40
0.0
 40
0.0
 40
0.0
 40
0.0
 40
25.05772667123218
 40
49.06632272301542
 40
79.91496382239802
 40
103.3148677671602
 40
139.4963891762143
 40
139.4963891762143
 40
139.4963891762143
 40
139.4963891762143
 10
97.15368492012567
 20
1681.809594425354
 30
0.0
 10
89.72531489782047
 20
1686.573720126708
 30
0.0
 10
75.17958991635804
 20
1695.902504506178
 30
0.0
 10
47.99426489095504
 20
1686.140015494904
 30
0.0
 10
26.551253057395
 20
1671.445331837687
 30
0.0
 10
-4.752484563802213
 20
1668.949457295654
 30
0.0
 10
-23.56373343246742
 20
1675.836644624837
 30
0.0
 10
-34.98708558678208
 20
1680.018970145236
 30
0.0
 11
97.15368492012567
 21
1681.809594425354
 31
0.0
 11
74.30899994445917
 21
1692.105711863143
 31
0.0
 11
51.01639155256089
 21
1686.286169039229
 31
0.0
 11
23.24443539302046
 21
1672.856459111197
 31
0.0
 11
-0.048172998877817
 21
1670.618178761069
 31
0.0
 11
-34.98708558678208
 21
1680.018970145236
 31
0.0
  0
SPLINE
  5
7B3C
330
1F
100
AcDbEntity
  8
ceco.net 223
100
AcDbSpline
210
0.0
220
0.0
230
1.0
 70
     8
 71
     3
 72
    25
 73
    21
 74
     0
 42
0.0000000001
 43
0.0000000001
 40
0.0
 40
0.0
 40
0.0
 40
0.0
 40
3.358658552511636
 40
7.473809307939852
 40
12.2136844256049
 40
16.4582445912488
 40
19.17881720448441
 40
22.23180153976779
 40
25.19033879436908
 40
27.3053832885408
 40
30.23907819246788
 40
32.76585343179394
 40
35.40246351864329
 40
38.74690668160686
 40
41.06346425333717
 40
42.97784775478782
 40
46.53572990563108
 40
49.05416133360287
 40
51.60766763078171
 40
52.29404522229986
 40
52.29404522229986
 40
52.29404522229986
 40
52.29404522229986
 10
-34.58969385750242
 20
1678.61071933799
 30
0.0
 10
-30.86099155999454
 20
1683.233205281718
 30
0.0
 10
-22.5637474362984
 20
1693.519329319522
 30
0.0
 10
-12.52987642923108
 20
1714.031512311914
 30
0.0
 10
10.53774238797723
 20
1721.818143465165
 30
0.0
 10
27.83691227792951
 20
1734.99736787165
 30
0.0
 10
45.62542875018062
 20
1734.753107313148
 30
0.0
 10
62.20708644863316
 20
1742.815409848655
 30
0.0
 10
72.04358737279926
 20
1725.746034575417
 30
0.0
 10
87.51158566164031
 20
1733.465735190104
 30
0.0
 10
98.53081989043767
 20
1723.051692237853
 30
0.0
 10
114.0001933432258
 20
1721.397384534863
 30
0.0
 10
120.5742035072844
 20
1705.84973781788
 30
0.0
 10
133.1750043318279
 20
1698.382762140818
 30
0.0
 10
144.8486763966584
 20
1689.925417944828
 30
0.0
 10
146.2306466008512
 20
1675.38394940285
 30
0.0
 10
153.4646639526854
 20
1663.134615489676
 30
0.0
 10
154.201594415862
 20
1646.70974010401
 30
0.0
 10
147.7815297187944
 20
1638.344955340722
 30
0.0
 10
145.3391626275461
 20
1633.027754586146
 30
0.0
 10
144.7528590857373
 20
1631.96345115386
 30
0.0
  0
SPLINE
  5
7B3D
330
1F
100
AcDbEntity
  8
ceco.net 223
100
AcDbSpline
210
0.0
220
0.0
230
1.0
 70
     8
 71
     3
 72
    11
 73
     7
 74
     0
 42
0.0000000001
 43
0.0000000001
 40
0.0
 40
0.0
 40
0.0
 40
0.0
 40
3.010845703870307
 40
4.5888827003075
 40
6.269938601365662
 40
6.919871801235245
 40
6.919871801235245
 40
6.919871801235245
 40
6.919871801235245
 10
-64.15338912419065
 20
1643.245820237889
 30
0.0
 10
-59.62583888393601
 20
1645.545760424393
 30
0.0
 10
-52.72532022062114
 20
1649.051139567484
 30
0.0
 10
-39.49082369209554
 20
1651.832774344862
 30
0.0
 10
-41.71920780337223
 20
1660.25462685793
 30
0.0
 10
-41.12859309853866
 20
1664.452337043621
 30
0.0
 10
-40.87073336407775
 20
1665.582736331482
 30
0.0
  0
SPLINE
  5
7B3E
330
1F
100
AcDbEntity
  8
ceco.net 223
100
AcDbSpline
210
0.0
220
0.0
230
1.0
 70
     8
 71
     3
 72
    12
 73
     8
 74
     6
 42
0.0000000001
 43
0.0000000001
 44
0.0000000001
 40
0.0
 40
0.0
 40
0.0
 40
0.0
 40
13.22100016302231
 40
34.33703091104716
 40
59.44593955891713
 40
88.00557635858442
 40
119.7722574798998
 40
119.7722574798998
 40
119.7722574798998
 40
119.7722574798998
 10
-65.04925867765087
 20
1632.05439066001
 30
0.0
 10
-67.58764873385253
 20
1628.308367413455
 30
0.0
 10
-74.18024965279591
 20
1618.579351875719
 30
0.0
 10
-69.89791598178353
 20
1597.053073847709
 30
0.0
 10
-87.19971651673393
 20
1576.767639324498
 30
0.0
 10
-104.7898134386304
 20
1554.933138756493
 30
0.0
 10
-120.7169950065707
 20
1542.405142946542
 30
0.0
 10
-129.1039431158979
 20
1535.808140813822
 30
0.0
 11
-65.04925867765087
 21
1632.05439066001
 31
0.0
 11
-71.32034555244081
 21
1620.415305012096
 31
0.0
 11
-73.11208465947493
 21
1599.375427980045
 31
0.0
 11
-86.10220454628324
 21
1577.887894877954
 31
0.0
 11
-104.9154651705394
 21
1556.400361775881
 31
0.0
 11
-129.1039431158979
 21
1535.808140813822
 31
0.0
  0
SPLINE
  5
7B3F
330
1F
100
AcDbEntity
  8
ceco.net 223
100
AcDbSpline
210
0.0
220
0.0
230
1.0
 70
     8
 71
     3
 72
    10
 73
     6
 74
     4
 42
0.0000000001
 43
0.0000000001
 44
0.0000000001
 40
0.0
 40
0.0
 40
0.0
 40
0.0
 40
18.05408689191598
 40
40.11163187783336
 40
49.55922805962113
 40
49.55922805962113
 40
49.55922805962113
 40
49.55922805962113
 10
-128.2080735624376
 20
1576.99258273791
 30
0.0
 10
-123.2052468551904
 20
1573.990132566787
 30
0.0
 10
-112.0902265037847
 20
1567.319444831836
 30
0.0
 10
-94.27564991409813
 20
1559.408155154089
 30
0.0
 10
-85.57558076737873
 20
1566.048239814244
 30
0.0
 10
-82.9666497483331
 20
1568.039433510159
 30
0.0
 11
-128.2080735624376
 21
1576.99258273791
 31
0.0
 11
-112.5303450150213
 21
1568.039433510159
 31
0.0
 11
-91.02947573015716
 21
1563.115216739854
 31
0.0
 11
-82.9666497483331
 21
1568.039433510159
 31
0.0
  0
SPLINE
  5
7B40
330
1F
100
AcDbEntity
  8
ceco.net 223
100
AcDbSpline
210
0.0
220
0.0
230
1.0
 70
     8
 71
     3
 72
    15
 73
    11
 74
     9
 42
0.0000000001
 43
0.0000000001
 44
0.0000000001
 40
0.0
 40
0.0
 40
0.0
 40
0.0
 40
23.56630957422978
 40
52.23346458638257
 40
80.45783704778759
 40
104.9140190285508
 40
118.0269725473488
 40
145.2948490097807
 40
162.9433926345034
 40
175.6052036003511
 40
175.6052036003511
 40
175.6052036003511
 40
175.6052036003511
 10
-30.11034608986028
 20
1646.827068798113
 30
0.0
 10
-38.05321449740938
 20
1646.192892667025
 30
0.0
 10
-55.65815745095929
 20
1644.787275195171
 30
0.0
 10
-78.71995385785912
 20
1629.918955142918
 30
0.0
 10
-100.0119131963213
 20
1612.246841578649
 30
0.0
 10
-101.1444534122004
 20
1584.467277646813
 30
0.0
 10
-125.944675476883
 20
1582.6181846455
 30
0.0
 10
-142.8921888093617
 20
1596.406452187505
 30
0.0
 10
-162.7405973933883
 20
1582.880171855252
 30
0.0
 10
-162.711300981684
 20
1572.412278608516
 30
0.0
 10
-162.6990627339964
 20
1568.039433510159
 30
0.0
 11
-30.11034608986028
 21
1646.827068798113
 31
0.0
 11
-53.40295448175857
 21
1643.245820237889
 31
0.0
 11
-78.48730198069097
 21
1629.368454239847
 31
0.0
 11
-97.30056260494713
 21
1608.328577207794
 31
0.0
 11
-107.1551276938053
 21
1585.945718052054
 31
0.0
 11
-120.1452475806136
 21
1584.155093771949
 31
0.0
 11
-146.5734107703483
 21
1590.869948735922
 31
0.0
 11
-160.9073236269623
 21
1580.573831298133
 31
0.0
 11
-162.6990627339964
 21
1568.039433510159
 31
0.0
  0
SPLINE
  5
7B41
330
1F
100
AcDbEntity
  8
ceco.net 223
100
AcDbSpline
210
0.0
220
0.0
230
1.0
 70
     8
 71
     3
 72
    12
 73
     8
 74
     6
 42
0.0000000001
 43
0.0000000001
 44
0.0000000001
 40
0.0
 40
0.0
 40
0.0
 40
0.0
 40
21.28485318131429
 40
54.08634068535079
 40
85.01597463614162
 40
104.2948768680528
 40
123.1242155219289
 40
123.1242155219289
 40
123.1242155219289
 40
123.1242155219289
 10
30.8087835504366
 20
1643.245820237889
 30
0.0
 10
23.38377403613323
 20
1643.44299818977
 30
0.0
 10
4.516291570473752
 20
1643.9440415275
 30
0.0
 10
-12.73686559671955
 20
1670.532362968527
 30
0.0
 10
-42.66049066383209
 20
1676.106995935625
 30
0.0
 10
-65.28505986649268
 20
1664.271754950547
 30
0.0
 10
-67.52565533122626
 20
1651.097973506175
 30
0.0
 10
-68.63273689183279
 20
1644.58878844797
 30
0.0
 11
30.8087835504366
 21
1643.245820237889
 31
0.0
 11
9.755860402914549
 21
1646.379412728088
 31
0.0
 11
-15.77643323335996
 21
1666.971633690105
 31
0.0
 11
-46.23599805350841
 21
1672.343520444039
 31
0.0
 11
-62.80959615438496
 21
1662.495072989835
 31
0.0
 11
-68.63273689183279
 21
1644.58878844797
 31
0.0
  0
SPLINE
  5
7B42
330
1F
100
AcDbEntity
  8
ceco.net 223
100
AcDbSpline
210
0.0
220
0.0
230
1.0
 70
     8
 71
     3
 72
    16
 73
    12
 74
    10
 42
0.0000000001
 43
0.0000000001
 44
0.0000000001
 40
0.0
 40
0.0
 40
0.0
 40
0.0
 40
12.05898218650213
 40
28.72644964970505
 40
41.64131065026375
 40
55.89381670633587
 40
85.65569489970195
 40
120.3031657022558
 40
142.429318218039
 40
167.9246526695976
 40
203.421207358665
 40
203.421207358665
 40
203.421207358665
 40
203.421207358665
 10
-112.5303450150213
 20
1534.465158690134
 30
0.0
 10
-109.2047603089924
 20
1536.664903757135
 30
0.0
 10
-101.2826786493562
 20
1541.905052961446
 30
0.0
 10
-87.11951252541306
 20
1546.769765186975
 30
0.0
 10
-81.78290931695633
 20
1561.364928265541
 30
0.0
 10
-63.55091465751763
 20
1571.622816258737
 30
0.0
 10
-70.85492061619003
 20
1602.872124074674
 30
0.0
 10
-56.48699344880616
 20
1627.459222232729
 30
0.0
 10
-33.68852741074872
 20
1649.64563964992
 30
0.0
 10
-6.770440760615581
 20
1631.283275562804
 30
0.0
 10
13.30308775726978
 20
1630.072886367804
 30
0.0
 10
24.98564281298877
 20
1629.368454239847
 30
0.0
 11
-112.5303450150213
 21
1534.465158690134
 31
0.0
 11
-102.2278565099313
 21
1540.732357584127
 31
0.0
 11
-87.89394365331736
 21
1549.237850741841
 31
0.0
 11
-80.7269872250672
 21
1559.981610336104
 31
0.0
 11
-70.42447599886691
 21
1569.830071703871
 31
0.0
 11
-66.84099778479867
 21
1599.375427980045
 31
0.0
 11
-52.05916151195288
 21
1630.711422449929
 31
0.0
 11
-34.14177044127063
 21
1643.693476307926
 31
0.0
 11
-9.95326977480181
 21
1635.635653133826
 31
0.0
 11
24.98564281298877
 21
1629.368454239847
 31
0.0
  0
SPLINE
  5
7B43
330
1F
100
AcDbEntity
  8
ceco.net 223
100
AcDbSpline
210
0.0
220
0.0
230
1.0
 70
     8
 71
     3
 72
    16
 73
    12
 74
    10
 42
0.0000000001
 43
0.0000000001
 44
0.0000000001
 40
0.0
 40
0.0
 40
0.0
 40
0.0
 40
22.83973797716809
 40
60.69831383567927
 40
83.1817672642566
 40
96.6198105672967
 40
111.7759679169019
 40
129.4031904514144
 40
153.8404400435056
 40
177.5852147383194
 40
193.9330251637517
 40
193.9330251637517
 40
193.9330251637517
 40
193.9330251637517
 10
-261.2447136226919
 20
1509.396377027835
 30
0.0
 10
-253.8118188388704
 20
1507.143578121803
 30
0.0
 10
-234.0583444011606
 20
1501.156596347159
 30
0.0
 10
-206.0388713429949
 20
1515.037309441154
 30
0.0
 10
-193.4406666854757
 20
1539.401590297103
 30
0.0
 10
-174.6688644777874
 20
1538.883525340809
 30
0.0
 10
-160.5278699413526
 20
1528.884068149248
 30
0.0
 10
-143.6046794485951
 20
1543.093733089726
 30
0.0
 10
-124.6649989411647
 20
1553.46503047716
 30
0.0
 10
-102.2564798932325
 20
1552.711423197962
 30
0.0
 10
-89.19028105503823
 20
1550.243961763258
 30
0.0
 10
-83.86251930190701
 20
1549.237850741841
 30
0.0
 11
-261.2447136226919
 21
1509.396377027835
 31
0.0
 11
-238.8479747843675
 21
1504.91980241396
 31
0.0
 11
-204.8049317500372
 21
1521.483104832179
 31
0.0
 11
-189.1272032027345
 21
1537.598765093927
 31
0.0
 11
-175.6891598996944
 21
1537.598765093927
 31
0.0
 11
-161.3552470431941
 21
1532.674534410029
 31
0.0
 11
-145.6775412168881
 21
1540.732357584127
 31
0.0
 11
-123.7287257946818
 21
1551.476131091982
 31
0.0
 11
-99.98817126555515
 21
1551.923787162006
 31
0.0
 11
-83.86251930190701
 21
1549.237850741841
 31
0.0
  0
SPLINE
  5
7B44
330
1F
100
AcDbEntity
  8
ceco.net 223
100
AcDbSpline
210
0.0
220
0.0
230
1.0
 70
     8
 71
     3
 72
    17
 73
    13
 74
    11
 42
0.0000000001
 43
0.0000000001
 44
0.0000000001
 40
0.0
 40
0.0
 40
0.0
 40
0.0
 40
41.21002218369085
 40
75.65395840964431
 40
102.3704763700786
 40
117.0604400656386
 40
150.3120663601374
 40
175.1891800359013
 40
196.1249537758842
 40
224.2772195035115
 40
250.2282812460379
 40
262.9562457364643
 40
262.9562457364643
 40
262.9562457364643
 40
262.9562457364643
 10
8.067411335981887
 20
1612.341008139192
 30
0.0
 10
-9.589187002609435
 20
1616.516850507433
 30
0.0
 10
-42.00342716994988
 20
1624.182922693562
 30
0.0
 10
-32.23547618836789
 20
1577.425961397298
 30
0.0
 10
-52.44663854139813
 20
1560.075090343768
 30
0.0
 10
-71.85548693460443
 20
1544.741652376904
 30
0.0
 10
-93.30398484413462
 20
1533.342181206731
 30
0.0
 10
-120.6602275528137
 20
1527.292202105578
 30
0.0
 10
-132.947366348387
 20
1503.641937270251
 30
0.0
 10
-159.9639296042331
 20
1497.191763403953
 30
0.0
 10
-182.6701604843268
 20
1505.101948785286
 30
0.0
 10
-190.2247278121344
 20
1515.743160270075
 30
0.0
 10
-192.7106814168028
 20
1519.244824482038
 30
0.0
 11
8.067411335981887
 21
1612.341008139192
 31
0.0
 11
-33.14261084770896
 21
1612.341008139192
 31
0.0
 11
-38.517828168925
 21
1578.319077249143
 31
0.0
 11
-55.53934968603335
 21
1557.72684237352
 31
0.0
 11
-67.18565388192565
 21
1548.773707059362
 31
0.0
 11
-96.74934914861388
 21
1533.553372851225
 31
0.0
 11
-119.59401140317
 21
1523.704911483472
 31
0.0
 11
-133.4800008434385
 21
1508.036921205311
 31
0.0
 11
-160.4593774896202
 21
1499.995571730105
 31
0.0
 11
-184.6478554350924
 21
1509.396377027835
 31
0.0
 11
-192.7106814168028
 21
1519.244824482038
 31
0.0
  0
SPLINE
  5
7B45
330
1F
100
AcDbEntity
  8
ceco.net 223
100
AcDbSpline
210
0.0
220
0.0
230
1.0
 70
     8
 71
     3
 72
    22
 73
    18
 74
    16
 42
0.0000000001
 43
0.0000000001
 44
0.0000000001
 40
0.0
 40
0.0
 40
0.0
 40
0.0
 40
14.57879015140224
 40
36.62802401587567
 40
48.09797562905576
 40
60.7112932909647
 40
72.77128200539277
 40
86.12953374763982
 40
99.48935839977645
 40
115.1334895599818
 40
130.041025797296
 40
143.509103953645
 40
156.1746914564143
 40
168.8440425713808
 40
180.9436107830539
 40
195.2839784088022
 40
203.8416906699526
 40
203.8416906699526
 40
203.8416906699526
 40
203.8416906699526
 10
-30.90292560333273
 20
1562.203416987353
 30
0.0
 10
-26.76185761015766
 20
1565.400917046204
 30
0.0
 10
-16.35776122560263
 20
1573.434375771523
 30
0.0
 10
-23.9868658919603
 20
1593.526285783411
 30
0.0
 10
-9.4970583202421
 20
1603.054321273698
 30
0.0
 10
1.896235703823817
 20
1605.402884709821
 30
0.0
 10
14.90861497949687
 20
1608.978944257851
 30
0.0
 10
21.25173545128461
 20
1621.068285809671
 30
0.0
 10
32.63317846337859
 20
1630.031869683972
 30
0.0
 10
46.11798503206984
 20
1634.726384180383
 30
0.0
 10
60.98573048609573
 20
1641.445768275752
 30
0.0
 10
62.58558327286547
 20
1655.905428464112
 30
0.0
 10
72.16189390457902
 20
1667.203721337698
 30
0.0
 10
86.46699724797384
 20
1663.407582698428
 30
0.0
 10
94.6250240226932
 20
1678.498378331722
 30
0.0
 10
107.039740120037
 20
1669.778929958215
 30
0.0
 10
114.5548650170597
 20
1669.678594746476
 30
0.0
 10
117.3634968671094
 20
1669.64109641142
 30
0.0
 11
-30.90292560333273
 21
1562.203416987353
 31
0.0
 11
-21.04836051447455
 21
1572.947190495208
 31
0.0
 11
-18.80867527009831
 21
1594.88237966732
 31
0.0
 11
-9.849979734700355
 21
1602.04489070136
 31
0.0
 11
2.244247877423731
 21
1605.626153175175
 31
0.0
 11
13.44262865719793
 21
1610.102713875458
 31
0.0
 11
21.95337805525377
 21
1620.398831313246
 31
0.0
 11
32.25588928134039
 21
1628.904310557369
 31
0.0
 11
46.58980213795439
 21
1635.171509451349
 31
0.0
 11
59.13197588742059
 21
1643.229332625447
 31
0.0
 11
64.05924707129452
 21
1655.763730413378
 31
0.0
 11
73.01794260669248
 21
1664.716879641128
 31
0.0
 11
85.56011635615869
 21
1666.507503921233
 31
0.0
 11
94.96675802878508
 21
1674.117671025294
 31
0.0
 11
108.8527474690536
 21
1670.536408551479
 31
0.0
 11
117.3634968671094
 21
1669.64109641142
 31
0.0
  0
SPLINE
  5
7B46
330
1F
100
AcDbEntity
  8
ceco.net 223
100
AcDbSpline
210
0.0
220
0.0
230
1.0
 70
     8
 71
     3
 72
     9
 73
     5
 74
     3
 42
0.0000000001
 43
0.0000000001
 44
0.0000000001
 40
0.0
 40
0.0
 40
0.0
 40
0.0
 40
5.250267474750492
 40
13.34970096581357
 40
13.34970096581357
 40
13.34970096581357
 40
13.34970096581357
 10
-1.300377285961985
 20
1593.456820345418
 30
0.0
 10
-2.227706582857621
 20
1591.882911852364
 30
0.0
 10
-4.585599560678375
 20
1587.880980935344
 30
0.0
 10
-2.84953478308083
 20
1583.434904575395
 30
0.0
 10
-1.796242185865594
 20
1580.737413458118
 30
0.0
 11
-1.300377285961985
 21
1593.456820345418
 31
0.0
 11
-3.449132759020358
 21
1588.666396723918
 31
0.0
 11
-1.796242185865594
 21
1580.737413458118
 31
0.0
  0
SPLINE
  5
7B47
330
1F
100
AcDbEntity
  8
ceco.net 223
100
AcDbSpline
210
0.0
220
0.0
230
1.0
 70
     8
 71
     3
 72
    12
 73
     8
 74
     6
 42
0.0000000001
 43
0.0000000001
 44
0.0000000001
 40
0.0
 40
0.0
 40
0.0
 40
0.0
 40
4.905176823061003
 40
12.94366236541323
 40
19.45467327553434
 40
23.20072881341631
 40
25.34930444803511
 40
25.34930444803511
 40
25.34930444803511
 40
25.34930444803511
 10
-12.54006499326442
 20
1586.188593801376
 30
0.0
 10
-14.17335530381649
 20
1586.833321461837
 30
0.0
 10
-18.48324240617264
 20
1588.534613271629
 30
0.0
 10
-16.92723594754981
 20
1598.509871313631
 30
0.0
 10
-9.469798899807123
 20
1597.4581027599
 30
0.0
 10
-7.585120624001398
 20
1603.061421046154
 30
0.0
 10
-5.644207335038545
 20
1601.833410005064
 30
0.0
 10
-4.936750179614136
 20
1601.385803611259
 30
0.0
 11
-12.54006499326442
 21
1586.188593801376
 31
0.0
 11
-16.67230278682018
 21
1588.831578947571
 31
0.0
 11
-15.35000396089435
 21
1596.760562213385
 31
0.0
 11
-9.399556999402193
 21
1599.4035612732
 31
0.0
 11
-6.92023250022521
 21
1602.211742556643
 31
0.0
 11
-4.936750179614136
 21
1601.385803611259
 31
0.0
  0
SPLINE
  5
7B48
330
1F
100
AcDbEntity
  8
ceco.net 223
100
AcDbSpline
210
0.0
220
0.0
230
1.0
 70
     8
 71
     3
 72
    11
 73
     7
 74
     0
 42
0.0000000001
 43
0.0000000001
 40
0.0
 40
0.0
 40
0.0
 40
0.0
 40
1.186480850537812
 40
2.71561060936902
 40
4.39166961216486
 40
5.312215918251224
 40
5.312215918251224
 40
5.312215918251224
 40
5.312215918251224
 10
3.326771122000536
 20
1568.502978907994
 30
0.0
 10
1.840144306778711
 20
1566.680187636331
 30
0.0
 10
-1.562438676306555
 20
1562.508193361234
 30
0.0
 10
-9.890574792653751
 20
1567.1025257384
 30
0.0
 10
-15.58395970701985
 20
1570.866108320908
 30
0.0
 10
-19.27936629502801
 20
1573.838219882043
 30
0.0
 10
-20.50065820450163
 20
1574.98193917828
 30
0.0
  0
SPLINE
  5
7B49
330
1F
100
AcDbEntity
  8
ceco.net 223
100
AcDbSpline
210
0.0
220
0.0
230
1.0
 70
     8
 71
     3
 72
     9
 73
     5
 74
     3
 42
0.0000000001
 43
0.0000000001
 44
0.0000000001
 40
0.0
 40
0.0
 40
0.0
 40
0.0
 40
8.763920980236097
 40
23.11455799621907
 40
23.11455799621907
 40
23.11455799621907
 40
23.11455799621907
 10
-15.84682314629481
 20
1533.648500113949
 30
0.0
 10
-13.80914120665083
 20
1531.543712819658
 30
0.0
 10
-8.434821027593256
 20
1525.992404439161
 30
0.0
 10
-1.892218840157118
 20
1521.849404347293
 30
0.0
 10
2.169745448635694
 20
1519.277229249448
 30
0.0
 11
-15.84682314629481
 21
1533.648500113949
 31
0.0
 11
-9.56582987956699
 21
1527.536590876146
 31
0.0
 11
2.169745448635694
 21
1519.277229249448
 31
0.0
  0
SPLINE
  5
7B4A
330
1F
100
AcDbEntity
  8
ceco.net 223
100
AcDbSpline
210
0.0
220
0.0
230
1.0
 70
     8
 71
     3
 72
     9
 73
     5
 74
     3
 42
0.0000000001
 43
0.0000000001
 44
0.0000000001
 40
0.0
 40
0.0
 40
0.0
 40
0.0
 40
10.0723310557422
 40
27.26793392754957
 40
27.26793392754957
 40
27.26793392754957
 40
27.26793392754957
 10
-9.896398905799287
 20
1547.193845946674
 30
0.0
 10
-7.744461849468655
 20
1544.610155326544
 30
0.0
 10
-1.918712363721109
 20
1537.615557479327
 30
0.0
 10
5.048703002634604
 20
1531.738389333735
 30
0.0
 10
9.442468514943357
 20
1528.032151460673
 30
0.0
 11
-9.896398905799287
 21
1547.193845946674
 31
0.0
 11
-3.284813891956218
 21
1539.595241041746
 31
0.0
 11
9.442468514943357
 21
1528.032151460673
 31
0.0
  0
SPLINE
  5
7B4B
330
1F
100
AcDbEntity
  8
ceco.net 223
100
AcDbSpline
210
0.0
220
0.0
230
1.0
 70
     8
 71
     3
 72
    12
 73
     8
 74
     6
 42
0.0000000001
 43
0.0000000001
 44
0.0000000001
 40
0.0
 40
0.0
 40
0.0
 40
0.0
 40
7.077477674646099
 40
17.74197118233364
 40
32.95414047186712
 40
44.33373930586888
 40
49.24200102351258
 40
49.24200102351258
 40
49.24200102351258
 40
49.24200102351258
 10
54.6857781788176
 20
1622.440679500892
 30
0.0
 10
57.02275494335308
 20
1622.837647659963
 30
0.0
 10
62.88113787527025
 20
1623.832775862735
 30
0.0
 10
72.65613009422352
 20
1629.318991090323
 30
0.0
 10
85.55428162812043
 20
1629.48651453171
 30
0.0
 10
95.84204604941469
 20
1626.905214104198
 30
0.0
 10
100.6096222600038
 20
1624.282745181162
 30
0.0
 10
102.0463064534979
 20
1623.492477866444
 30
0.0
 11
54.6857781788176
 21
1622.440679500892
 31
0.0
 11
61.60191657974246
 21
1623.943250582195
 31
0.0
 11
71.52507661597974
 21
1627.849952089955
 31
0.0
 11
86.71050747349363
 21
1628.751497521472
 31
0.0
 11
97.68613076240763
 21
1625.746341445215
 31
0.0
 11
102.0463064534979
 21
1623.492477866444
 31
0.0
  0
ARC
  5
7B4C
330
1F
100
AcDbEntity
  8
ceco.net 223
100
AcDbCircle
 10
79.32329287344964
 20
1607.547370476775
 30
0.0
 40
4.790238627327171
100
AcDbArc
 50
299.508137897817
 51
42.22569681372567
  0
SPLINE
  5
7B4D
330
1F
100
AcDbEntity
  8
ceco.net 223
100
AcDbSpline
210
0.0
220
0.0
230
1.0
 70
     8
 71
     3
 72
    11
 73
     7
 74
     5
 42
0.0000000001
 43
0.0000000001
 44
0.0000000001
 40
0.0
 40
0.0
 40
0.0
 40
0.0
 40
6.57810121942921
 40
15.94386722192763
 40
26.04577825644084
 40
30.69679553918417
 40
30.69679553918417
 40
30.69679553918417
 40
30.69679553918417
 10
96.25168067438062
 20
1611.442941106895
 30
0.0
 10
94.50924146553337
 20
1612.899170794381
 30
0.0
 10
90.28595294177424
 20
1616.428750532881
 30
0.0
 10
81.18093488340191
 20
1615.517885949399
 30
0.0
 10
72.75523116906476
 20
1614.768009562918
 30
0.0
 10
69.28136427338433
 20
1611.139831997592
 30
0.0
 10
68.18619085273804
 20
1609.996010500035
 30
0.0
 11
96.25168067438062
 21
1611.442941106895
 31
0.0
 11
90.79450840928439
 21
1615.115908098596
 31
0.0
 11
81.43932998799664
 21
1615.561115375521
 31
0.0
 11
71.63868202743651
 21
1613.112461438684
 31
0.0
 11
68.18619085273804
 21
1609.996010500035
 31
0.0
  0
SPLINE
  5
7B4E
330
1F
100
AcDbEntity
  8
ceco.net 223
100
AcDbSpline
210
0.0
220
0.0
230
1.0
 70
     8
 71
     3
 72
    12
 73
     8
 74
     6
 42
0.0000000001
 43
0.0000000001
 44
0.0000000001
 40
0.0
 40
0.0
 40
0.0
 40
0.0
 40
4.015537009522626
 40
10.37135142247253
 40
15.44322901185045
 40
23.12783985786358
 40
25.91212672365349
 40
25.91212672365349
 40
25.91212672365349
 40
25.91212672365349
 10
70.07949319753516
 20
1605.098730453528
 30
0.0
 10
71.42119088882593
 20
1605.063970689278
 30
0.0
 10
74.88653518178042
 20
1604.974192975974
 30
0.0
 10
79.89027160694512
 20
1603.665180162854
 30
0.0
 10
86.18746727055018
 20
1602.561231196589
 30
0.0
 10
91.39036068257972
 20
1602.900869605609
 30
0.0
 10
94.87850999690444
 20
1602.878613308514
 30
0.0
 10
95.80621113499455
 20
1602.872694068745
 30
0.0
 11
70.07949319753516
 21
1605.098730453528
 31
0.0
 11
74.08885537810329
 21
1604.876126815023
 31
0.0
 11
80.32563341859168
 21
1603.651799846626
 31
0.0
 11
85.33731342319152
 21
1602.872694068745
 31
0.0
 11
93.02192426920464
 21
1602.872694068745
 31
0.0
 11
95.80621113499455
 21
1602.872694068745
 31
0.0
  0
ARC
  5
7B4F
330
1F
100
AcDbEntity
  8
ceco.net 223
100
AcDbCircle
 10
126.3218515861936
 20
1602.650076516691
 30
0.0
 40
4.790238627327171
100
AcDbArc
 50
309.081304685903
 51
46.90461265849349
  0
ARC
  5
7B50
330
1F
100
AcDbEntity
  8
ceco.net 223
100
AcDbCircle
 10
79.32329287344964
 20
1607.547370476775
 30
0.0
 40
4.790238627327171
100
AcDbArc
 50
156.6701155353168
 51
216.864080298997
  0
SPLINE
  5
7B51
330
1F
100
AcDbEntity
  8
ceco.net 223
100
AcDbSpline
210
0.0
220
0.0
230
1.0
 70
     8
 71
     3
 72
    15
 73
    11
 74
     9
 42
0.0000000001
 43
0.0000000001
 44
0.0000000001
 40
0.0
 40
0.0
 40
0.0
 40
0.0
 40
5.252439787478261
 40
10.08664191312759
 40
15.22874670829122
 40
21.24379697567262
 40
27.16400813487609
 40
31.27192673704945
 40
35.26385852091428
 40
36.94919184196445
 40
36.94919184196445
 40
36.94919184196445
 40
36.94919184196445
 10
98.81321004931033
 20
1603.206592569657
 30
0.0
 10
97.27685452361326
 20
1604.056376396686
 30
0.0
 10
94.32647933303888
 20
1605.688278048797
 30
0.0
 10
90.73078063211481
 20
1609.450543766409
 30
0.0
 10
85.37309216839622
 20
1610.805901900012
 30
0.0
 10
79.693822464937
 20
1610.960638754912
 30
0.0
 10
74.33267634744436
 20
1609.530612794816
 30
0.0
 10
70.65210371311771
 20
1606.777564670933
 30
0.0
 10
67.62924301640774
 20
1604.919325632733
 30
0.0
 10
65.74000260435176
 20
1605.315131415959
 30
0.0
 10
65.17916921731194
 20
1605.43262895444
 30
0.0
 11
98.81321004931033
 21
1603.206592569657
 31
0.0
 11
94.35837832946981
 21
1605.989145007435
 31
0.0
 11
90.57175091853787
 21
1608.99430108365
 31
0.0
 11
85.67142693831465
 21
1610.552526552988
 31
0.0
 11
79.65740638857278
 21
1610.663821415437
 31
0.0
 11
73.97747663273003
 21
1608.99430108365
 31
0.0
 11
70.52498545803155
 21
1606.768250785317
 31
0.0
 11
66.84973679247287
 21
1605.210025315964
 31
0.0
 11
65.17916921731194
 21
1605.43262895444
 31
0.0
  0
SPLINE
  5
7B52
330
1F
100
AcDbEntity
  8
ceco.net 223
100
AcDbSpline
210
0.0
220
0.0
230
1.0
 70
     8
 71
     3
 72
     9
 73
     5
 74
     3
 42
0.0000000001
 43
0.0000000001
 44
0.0000000001
 40
0.0
 40
0.0
 40
0.0
 40
0.0
 40
3.243010531317283
 40
7.082720138168679
 40
7.082720138168679
 40
7.082720138168679
 40
7.082720138168679
 10
121.6442850967168
 20
1564.362208957826
 30
0.0
 10
122.7063681468378
 20
1564.605008730851
 30
0.0
 10
125.0259526609357
 20
1565.135282322426
 30
0.0
 10
127.0218012966555
 20
1566.43834201068
 30
0.0
 10
128.1037979068414
 20
1567.144761395562
 30
0.0
 11
121.6442850967168
 21
1564.362208957826
 31
0.0
 11
124.7626627564059
 21
1565.25262351172
 31
0.0
 11
128.1037979068414
 21
1567.144761395562
 31
0.0
  0
SPLINE
  5
7B53
330
1F
100
AcDbEntity
  8
ceco.net 223
100
AcDbSpline
210
0.0
220
0.0
230
1.0
 70
     8
 71
     3
 72
    11
 73
     7
 74
     5
 42
0.0000000001
 43
0.0000000001
 44
0.0000000001
 40
0.0
 40
0.0
 40
0.0
 40
0.0
 40
4.18442741549614
 40
9.888074844764236
 40
15.54383608662299
 40
19.68215937904663
 40
19.68215937904663
 40
19.68215937904663
 40
19.68215937904663
 10
101.8202316847364
 20
1576.271524486723
 30
0.0
 10
101.0813997305813
 20
1575.091022830727
 30
0.0
 10
99.33549164448709
 20
1572.301420438385
 30
0.0
 10
98.45028246022605
 20
1566.762247106059
 30
0.0
 10
101.957229206341
 20
1562.197207020812
 30
0.0
 10
105.0708393252534
 20
1561.137150682808
 30
0.0
 10
106.3864421499502
 20
1560.689241966125
 30
0.0
 11
101.8202316847364
 21
1576.271524486723
 31
0.0
 11
99.81555059445236
 21
1572.598557495064
 31
0.0
 11
99.25870230969303
 21
1566.9221577571
 31
0.0
 11
102.5998374602422
 21
1562.358776211505
 31
0.0
 11
106.3864421499502
 21
1560.689241966125
 31
0.0
  0
SPLINE
  5
7B54
330
1F
100
AcDbEntity
  8
ceco.net 223
100
AcDbSpline
210
0.0
220
0.0
230
1.0
 70
     8
 71
     3
 72
    11
 73
     7
 74
     5
 42
0.0000000001
 43
0.0000000001
 44
0.0000000001
 40
0.0
 40
0.0
 40
0.0
 40
0.0
 40
2.162015082027848
 40
5.504483083850982
 40
10.39709626220852
 40
12.09679980067372
 40
12.09679980067372
 40
12.09679980067372
 40
12.09679980067372
 10
109.838956045759
 20
1562.915278350908
 30
0.0
 10
108.9934483533059
 20
1563.313227318499
 30
0.0
 10
106.840788629023
 20
1564.326404043558
 30
0.0
 10
112.0135348114395
 20
1566.613321802182
 30
0.0
 10
114.8351041367148
 20
1565.406395142326
 30
0.0
 10
116.7068393219373
 20
1564.222298491357
 30
0.0
 10
117.189430655766
 20
1563.917001680843
 30
0.0
 11
109.838956045759
 21
1562.915278350908
 31
0.0
 11
108.0570097252248
 21
1564.139605319349
 31
0.0
 11
110.9526526152776
 21
1565.80913956473
 31
0.0
 11
115.7416205712379
 21
1564.807416234751
 31
0.0
 11
117.189430655766
 21
1563.917001680843
 31
0.0
  0
SPLINE
  5
7B55
330
1F
100
AcDbEntity
  8
ceco.net 223
100
AcDbSpline
210
0.0
220
0.0
230
1.0
 70
     8
 71
     3
 72
    13
 73
     9
 74
     7
 42
0.0000000001
 43
0.0000000001
 44
0.0000000001
 40
0.0
 40
0.0
 40
0.0
 40
0.0
 40
4.051640480500215
 40
8.627236941252341
 40
17.28644447119977
 40
27.38861964113628
 40
35.60263171958395
 40
43.08975379258418
 40
43.08975379258418
 40
43.08975379258418
 40
43.08975379258418
 10
121.4215276059703
 20
1609.884715637557
 30
0.0
 10
120.9500429219854
 20
1608.601371112236
 30
0.0
 10
119.9461014068175
 20
1605.868720633869
 30
0.0
 10
120.6668210024293
 20
1599.979597846487
 30
0.0
 10
123.784536359687
 20
1592.84008169616
 30
0.0
 10
125.5193051394335
 20
1583.96571618493
 30
0.0
 10
131.3646115631635
 20
1576.740743208446
 30
0.0
 10
130.137013624067
 20
1571.373611076719
 30
0.0
 10
129.5516307123662
 20
1568.814281727351
 30
0.0
 11
121.4215276059703
 21
1609.884715637557
 31
0.0
 11
120.3078310364517
 21
1605.989145007435
 31
0.0
 11
120.6419445515748
 21
1601.425763461842
 31
0.0
 11
123.3148526718778
 21
1593.189414924589
 31
0.0
 11
126.5446090769401
 21
1583.617444556475
 31
0.0
 11
130.2198577424988
 21
1576.271524486723
 31
0.0
 11
129.5516307123662
 21
1568.814281727351
 31
0.0
  0
SPLINE
  5
7B56
330
1F
100
AcDbEntity
  8
ceco.net 223
100
AcDbSpline
210
0.0
220
0.0
230
1.0
 70
     8
 71
     3
 72
    15
 73
    11
 74
     9
 42
0.0000000001
 43
0.0000000001
 44
0.0000000001
 40
0.0
 40
0.0
 40
0.0
 40
0.0
 40
3.671760333487422
 40
9.005184099316211
 40
15.67297658436735
 40
26.87296667613773
 40
32.8985559524251
 40
38.49264840322013
 40
42.94889995569329
 40
47.24272116946902
 40
47.24272116946902
 40
47.24272116946902
 40
47.24272116946902
 10
86.98949964283565
 20
1538.585044331223
 30
0.0
 10
88.20868353374695
 20
1538.409020002112
 30
0.0
 10
91.19879573917758
 20
1537.977311136164
 30
0.0
 10
95.83010516648563
 20
1535.341384187359
 30
0.0
 10
101.976129712613
 20
1530.72627109947
 30
0.0
 10
109.477285311811
 20
1527.376716487322
 30
0.0
 10
116.9580444670925
 20
1526.484196710443
 30
0.0
 10
122.7461642691595
 20
1527.593245566049
 30
0.0
 10
125.144348517282
 20
1532.042019572495
 30
0.0
 10
126.5288626753271
 20
1534.572161122869
 30
0.0
 10
127.2082691695814
 20
1535.81374799341
 30
0.0
 11
86.98949964283565
 21
1538.585044331223
 31
0.0
 11
90.59233621914154
 21
1537.876953552435
 31
0.0
 11
95.36328635689551
 21
1535.49295610089
 31
0.0
 11
100.8975739751704
 21
1531.773935103112
 31
0.0
 11
111.2028117311993
 21
1527.387381461872
 31
0.0
 11
117.2002004487594
 21
1526.805097427237
 31
0.0
 11
122.5553323332305
 21
1528.422636560601
 31
0.0
 11
125.1511705424618
 21
1532.044763268823
 31
0.0
 11
127.2082691695814
 21
1535.81374799341
 31
0.0
  0
SPLINE
  5
7B57
330
1F
100
AcDbEntity
  8
ceco.net 223
100
AcDbSpline
210
0.0
220
0.0
230
1.0
 70
     8
 71
     3
 72
    15
 73
    11
 74
     9
 42
0.0000000001
 43
0.0000000001
 44
0.0000000001
 40
0.0
 40
0.0
 40
0.0
 40
0.0
 40
2.039774766065494
 40
8.743552132727081
 40
14.85036558255985
 40
19.35124515384235
 40
24.88555549322758
 40
32.26306439564907
 40
37.42978174085726
 40
40.5553096457288
 40
40.5553096457288
 40
40.5553096457288
 40
40.5553096457288
 10
87.82518104939208
 20
1538.735199870098
 30
0.0
 10
88.49199687281899
 20
1538.889528907768
 30
0.0
 10
91.35032172910028
 20
1539.551064685599
 30
0.0
 10
96.30947161009977
 20
1538.129355037903
 30
0.0
 10
102.0878709371992
 20
1538.802547845307
 30
0.0
 10
107.435463407693
 20
1537.958588576052
 30
0.0
 10
113.2617170827518
 20
1538.345601988875
 30
0.0
 10
119.2278171695342
 20
1537.668219754937
 30
0.0
 10
124.485493646375
 20
1536.756521302855
 30
0.0
 10
127.1740233471431
 20
1537.500985124102
 30
0.0
 10
128.1873887686188
 20
1537.781589758589
 30
0.0
 11
87.82518104939208
 21
1538.735199870098
 31
0.0
 11
89.82897601751028
 21
1539.116627218385
 31
0.0
 11
96.50829257767691
 21
1538.544472282334
 31
0.0
 11
102.6151060275096
 21
1538.544472282334
 31
0.0
 11
107.0997932494847
 21
1538.163031020483
 31
0.0
 11
112.6341035888699
 21
1538.163031020483
 31
0.0
 11
119.9813518050759
 21
1537.495512290584
 31
0.0
 11
125.1339706832041
 21
1537.114084942282
 31
0.0
 11
128.1873887686188
 21
1537.781589758589
 31
0.0
  0
SPLINE
  5
7B58
330
1F
100
AcDbEntity
  8
ceco.net 223
100
AcDbSpline
210
0.0
220
0.0
230
1.0
 70
     8
 71
     3
 72
    17
 73
    13
 74
     0
 42
0.0000000001
 43
0.0000000001
 40
0.0
 40
0.0
 40
0.0
 40
0.0
 40
0.3250679671978613
 40
1.246660531102265
 40
2.367529724983031
 40
4.111996848413737
 40
4.935877383348064
 40
5.750762077710661
 40
6.824380528402927
 40
7.911254711038512
 40
9.099157146621125
 40
9.585247436500509
 40
9.585247436500509
 40
9.585247436500509
 40
9.585247436500509
 10
86.98949964283565
 20
1538.585044331223
 30
0.0
 10
87.33113904824131
 20
1539.064773419078
 30
0.0
 10
88.64135231268756
 20
1540.904571183924
 30
0.0
 10
93.17329884512583
 20
1541.663953275454
 30
0.0
 10
98.63998587135393
 20
1545.446984434884
 30
0.0
 10
104.8438305022855
 20
1548.449411663264
 30
0.0
 10
110.9197043337772
 20
1548.010038045356
 30
0.0
 10
115.6643584717712
 20
1546.877633276404
 30
0.0
 10
120.85750405205
 20
1547.637197338981
 30
0.0
 10
127.3367111570805
 20
1545.908760694794
 30
0.0
 10
128.6023949422442
 20
1540.54274154077
 30
0.0
 10
128.9775136083008
 20
1537.605473394203
 30
0.0
 10
129.0788989861894
 20
1536.758635909133
 30
0.0
  0
SPLINE
  5
7B59
330
1F
100
AcDbEntity
  8
ceco.net 223
100
AcDbSpline
210
0.0
220
0.0
230
1.0
 70
     8
 71
     3
 72
    22
 73
    18
 74
    16
 42
0.0000000001
 43
0.0000000001
 44
0.0000000001
 40
0.0
 40
0.0
 40
0.0
 40
0.0
 40
6.865850627329071
 40
19.73362577934055
 40
32.94828416940495
 40
48.10960308035428
 40
56.6968134076254
 40
76.67847895814152
 40
86.23619341281125
 40
97.83046476382146
 40
107.2978885312333
 40
118.023789790375
 40
134.9209650473497
 40
164.4860192594554
 40
195.2656449426633
 40
215.8042593338515
 40
236.2198264721029
 40
236.2198264721029
 40
236.2198264721029
 40
236.2198264721029
 10
137.9080130774027
 20
1599.758177120046
 30
0.0
 10
137.9130189748131
 20
1597.46695240042
 30
0.0
 10
137.9274067778032
 20
1590.881581752609
 30
0.0
 10
140.8496388923322
 20
1580.04514224859
 30
0.0
 10
137.834447285735
 20
1566.326745756593
 30
0.0
 10
134.533535241691
 20
1554.549418150414
 30
0.0
 10
131.0862767624902
 20
1540.326062182849
 30
0.0
 10
125.5634210413568
 20
1528.912771778703
 30
0.0
 10
117.9734016881221
 20
1516.991583801581
 30
0.0
 10
119.5534822459007
 20
1506.195610213646
 30
0.0
 10
113.3399634210045
 20
1496.690586693268
 30
0.0
 10
101.0312280616644
 20
1491.850557943862
 30
0.0
 10
82.17774508170251
 20
1498.30117304827
 30
0.0
 10
58.48247224150305
 20
1506.836704279243
 30
0.0
 10
31.20428160775827
 20
1512.446779429732
 30
0.0
 10
13.32360231191447
 20
1529.679586510061
 30
0.0
 10
7.425021344033079
 20
1542.040490340615
 30
0.0
 10
4.484592033203625
 20
1548.202373025555
 30
0.0
 11
137.9080130774027
 21
1599.758177120046
 31
0.0
 11
138.1331562817777
 21
1592.896018904562
 31
0.0
 11
139.7917271255792
 21
1580.135580819653
 31
0.0
 11
137.8770896843334
 21
1567.06036151615
 31
0.0
 11
134.0478148020693
 21
1552.390588341504
 31
0.0
 11
131.8140824812089
 21
1544.098988910542
 31
0.0
 11
123.5173202362275
 21
1525.921236177518
 31
0.0
 11
119.3689504742351
 21
1517.310723189619
 31
0.0
 11
118.0862772158334
 21
1505.787621286353
 31
0.0
 11
112.980577372663
 21
1497.814921498753
 31
0.0
 11
103.0882952872743
 21
1493.669114826469
 31
0.0
 11
86.49479351819445
 21
1496.8581947415
 31
0.0
 11
58.41346710220841
 21
1506.106520929714
 31
0.0
 11
29.37483332615466
 21
1516.311573875124
 31
0.0
 11
14.37687411870592
 21
1530.343533849469
 31
0.0
 11
4.484592033203625
 21
1548.202373025555
 31
0.0
  0
SPLINE
  5
7B5A
330
1F
100
AcDbEntity
  8
ceco.net 223
100
AcDbSpline
210
0.0
220
0.0
230
1.0
 70
     8
 71
     3
 72
    10
 73
     6
 74
     4
 42
0.0000000001
 43
0.0000000001
 44
0.0000000001
 40
0.0
 40
0.0
 40
0.0
 40
0.0
 40
4.44159304388124
 40
9.281842482524936
 40
14.07031680876054
 40
14.07031680876054
 40
14.07031680876054
 40
14.07031680876054
 10
123.4998022817662
 20
1599.758177120046
 30
0.0
 10
124.9508073137386
 20
1599.513635715185
 30
0.0
 10
127.98305272998
 20
1599.002604024992
 30
0.0
 10
132.8245219300522
 20
1598.616275443121
 30
0.0
 10
135.693361815935
 20
1600.205356464788
 30
0.0
 10
137.1200686646389
 20
1600.995624610428
 30
0.0
 11
123.4998022817662
 21
1599.758177120046
 31
0.0
 11
127.8898107538807
 21
1599.08321461574
 31
0.0
 11
132.7300601925244
 21
1599.08321461574
 31
0.0
 11
137.1200686646389
 21
1600.995624610428
 31
0.0
  0
SPLINE
  5
7B5B
330
1F
100
AcDbEntity
  8
ceco.net 223
100
AcDbSpline
210
0.0
220
0.0
230
1.0
 70
     8
 71
     3
 72
    11
 73
     7
 74
     5
 42
0.0000000001
 43
0.0000000001
 44
0.0000000001
 40
0.0
 40
0.0
 40
0.0
 40
0.0
 40
4.026705669644613
 40
9.136869758133332
 40
15.72417885251705
 40
18.99543020780466
 40
18.99543020780466
 40
18.99543020780466
 40
18.99543020780466
 10
123.1621215567556
 20
1607.970274257704
 30
0.0
 10
124.3346168312997
 20
1608.647091967697
 30
0.0
 10
126.9950885653764
 20
1610.182837505996
 30
0.0
 10
132.3228684342609
 20
1610.78298306156
 30
0.0
 10
137.4428497706396
 20
1609.467046772267
 30
0.0
 10
139.8205934691551
 20
1607.160655455158
 30
0.0
 10
140.6095724824708
 20
1606.395352471987
 30
0.0
 11
123.1621215567556
 21
1607.970274257704
 31
0.0
 11
126.7641628951096
 21
1609.77017890705
 31
0.0
 11
131.8295555382419
 21
1610.445141411328
 31
0.0
 11
138.1331562817777
 21
1608.532745330218
 31
0.0
 11
140.6095724824708
 21
1606.395352471987
 31
0.0
  0
SPLINE
  5
7B5C
330
1F
100
AcDbEntity
  8
ceco.net 223
100
AcDbSpline
210
0.0
220
0.0
230
1.0
 70
     8
 71
     3
 72
    12
 73
     8
 74
     6
 42
0.0000000001
 43
0.0000000001
 44
0.0000000001
 40
0.0
 40
0.0
 40
0.0
 40
0.0
 40
4.138543975853548
 40
11.54120723951913
 40
16.50461009875126
 40
21.44154749039078
 40
23.36832009507204
 40
23.36832009507204
 40
23.36832009507204
 40
23.36832009507204
 10
123.7249454861412
 20
1604.370451045506
 30
0.0
 10
124.9690789753322
 20
1605.009179404998
 30
0.0
 10
128.4386089636943
 20
1606.790408844548
 30
0.0
 10
134.4541259260932
 20
1605.542330292874
 30
0.0
 10
138.9083725767697
 20
1602.13537577423
 30
0.0
 10
142.5160978572886
 20
1599.761002548869
 30
0.0
 10
144.806783374579
 20
1600.197980309186
 30
0.0
 10
145.4498219212282
 20
1600.320648192573
 30
0.0
 11
123.7249454861412
 21
1604.370451045506
 31
0.0
 11
127.5521073077598
 21
1605.945372831253
 31
0.0
 11
134.8687956683206
 21
1604.820430686226
 31
0.0
 11
139.0336609360601
 21
1602.120566755467
 31
0.0
 11
143.5362296498069
 21
1600.095665328988
 31
0.0
 11
145.4498219212282
 21
1600.320648192573
 31
0.0
  0
SPLINE
  5
7B5D
330
1F
100
AcDbEntity
  8
ceco.net 223
100
AcDbSpline
210
0.0
220
0.0
230
1.0
 70
     8
 71
     3
 72
    10
 73
     6
 74
     4
 42
0.0000000001
 43
0.0000000001
 44
0.0000000001
 40
0.0
 40
0.0
 40
0.0
 40
0.0
 40
3.496107429302554
 40
13.27029964733534
 40
17.39800138616306
 40
17.39800138616306
 40
17.39800138616306
 40
17.39800138616306
 10
145.3372616795959
 20
1619.894672125803
 30
0.0
 10
144.3943430307481
 20
1620.634487078266
 30
0.0
 10
140.8152730890197
 20
1623.442629076555
 30
0.0
 10
134.2732480845098
 20
1621.324635667004
 30
0.0
 10
130.2191787132078
 20
1619.26791334769
 30
0.0
 10
129.0154586125381
 20
1618.657238548985
 30
0.0
 11
145.3372616795959
 21
1619.894672125803
 31
0.0
 11
142.4105817911495
 21
1621.807082120493
 31
0.0
 11
132.7300601925244
 21
1620.457143198317
 31
0.0
 11
129.0154586125381
 21
1618.657238548985
 31
0.0
  0
SPLINE
  5
7B5E
330
1F
100
AcDbEntity
  8
ceco.net 223
100
AcDbSpline
210
0.0
220
0.0
230
1.0
 70
     8
 71
     3
 72
    10
 73
     6
 74
     4
 42
0.0000000001
 43
0.0000000001
 44
0.0000000001
 40
0.0
 40
0.0
 40
0.0
 40
0.0
 40
3.060841823602618
 40
9.355160472905451
 40
15.21460636255001
 40
15.21460636255001
 40
15.21460636255001
 40
15.21460636255001
 10
140.8346929657354
 20
1606.170355694808
 30
0.0
 10
141.4506703478333
 20
1606.980608652721
 30
0.0
 10
143.3333443275109
 20
1609.457066725943
 30
0.0
 10
145.6826676146449
 20
1614.154940137298
 30
0.0
 10
145.601509341152
 20
1618.255325441947
 30
0.0
 10
145.5623821628605
 20
1620.232160334731
 30
0.0
 11
140.8346929657354
 21
1606.170355694808
 31
0.0
 11
142.6357249955244
 21
1608.645236762009
 31
0.0
 11
145.2247014379636
 21
1614.382452832496
 31
0.0
 11
145.5623821628605
 21
1620.232160334731
 31
0.0
  0
SPLINE
  5
7B5F
330
1F
100
AcDbEntity
  8
ceco.net 223
100
AcDbSpline
210
0.0
220
0.0
230
1.0
 70
     8
 71
     3
 72
    13
 73
     9
 74
     7
 42
0.0000000001
 43
0.0000000001
 44
0.0000000001
 40
0.0
 40
0.0
 40
0.0
 40
0.0
 40
7.66285217513844
 40
17.26629381799047
 40
29.30116564628169
 40
42.66726687599657
 40
52.53439674955126
 40
62.60544186392856
 40
62.60544186392856
 40
62.60544186392856
 40
62.60544186392856
 10
145.5623821628605
 20
1620.232160334731
 30
0.0
 10
145.4381043539969
 20
1622.782159722766
 30
0.0
 10
145.1580758327817
 20
1628.527936577545
 30
0.0
 10
144.0157279386315
 20
1638.275282233341
 30
0.0
 10
144.8324914302616
 20
1649.842097453815
 30
0.0
 10
143.0249142610021
 20
1662.050450296485
 30
0.0
 10
134.221583194484
 20
1670.179873613157
 30
0.0
 10
127.493014349835
 20
1670.953743310471
 30
0.0
 10
124.094322120949
 20
1671.344635487865
 30
0.0
 11
145.5623821628605
 21
1620.232160334731
 31
0.0
 11
145.112118475221
 21
1627.881772486312
 31
0.0
 11
144.3761371776545
 21
1637.456970808922
 31
0.0
 11
144.3761371776545
 21
1649.491842637213
 31
0.0
 11
141.2071142255754
 21
1662.47683226417
 31
0.0
 11
133.9183273540484
 21
1669.127684681947
 31
0.0
 11
124.094322120949
 21
1671.344635487865
 31
0.0
  0
LINE
  5
7B60
330
1F
100
AcDbEntity
  8
ceco.net 223
100
AcDbLine
 10
35.78233757897487
 20
341.3998443885411
 30
0.0
 11
36.65642923066616
 21
351.6708287059445
 31
0.0
  0
ARC
  5
7B61
330
1F
100
AcDbEntity
  8
ceco.net 223
100
AcDbCircle
 10
189.8581294030181
 20
752.140710735899
 30
0.0
 40
1.867453619667419
100
AcDbArc
 50
191.6475210537377
 51
268.7765514208448
  0
ARC
  5
7B62
330
1F
100
AcDbEntity
  8
ceco.net 223
100
AcDbCircle
 10
209.8914641016399
 20
718.5086156295819
 30
0.0
 40
35.78854493647233
100
AcDbArc
 50
118.401239203079
 51
126.4564143171743
  0
LINE
  5
7B63
330
1F
100
AcDbEntity
  8
ceco.net 223
100
AcDbLine
 10
-92.22226438706547
 20
815.3069761562019
 30
0.0
 11
-85.12691433205327
 21
817.8073700466248
 31
0.0
  0
ARC
  5
7B64
330
1F
100
AcDbEntity
  8
ceco.net 223
100
AcDbCircle
 10
130.2379599539449
 20
4.905177528103195
 30
0.0
 40
7.822557810597587
100
AcDbArc
 50
319.6643118058896
 51
335.1516078271815
  0
ARC
  5
7B65
330
1F
100
AcDbEntity
  8
ceco.net 223
100
AcDbCircle
 10
105.9743991553536
 20
506.208575666832
 30
0.0
 40
503.8940600706775
100
AcDbArc
 50
268.3098226663759
 51
273.541156172154
  0
ARC
  5
7B66
330
1F
100
AcDbEntity
  8
ceco.net 223
100
AcDbCircle
 10
2.914299572393247
 20
63.30781404742811
 30
0.0
 40
4.589164032791469
100
AcDbArc
 50
121.0811210527508
 51
155.5376079279593
  0
ARC
  5
7B67
330
1F
100
AcDbEntity
  8
ceco.net 223
100
AcDbCircle
 10
-82.88675731964941
 20
23.94118598323984
 30
0.0
 40
1.484286576701909
100
AcDbArc
 50
79.67479827582701
 51
164.303357192695
  0
ARC
  5
7B68
330
1F
100
AcDbEntity
  8
ceco.net 223
100
AcDbCircle
 10
-62.31309927592929
 20
52.5840882917837
 30
0.0
 40
54.04635910949938
100
AcDbArc
 50
239.5143840819299
 51
242.4845457247388
  0
ARC
  5
7B69
330
1F
100
AcDbEntity
  8
ceco.net 223
100
AcDbCircle
 10
-9.616457509907831
 20
42.19263826194401
 30
0.0
 40
4.472295122163427
100
AcDbArc
 50
246.0401627766703
 51
330.8083278011009
  0
ARC
  5
7B6A
330
1F
100
AcDbEntity
  8
ceco.net 223
100
AcDbCircle
 10
0.3008400388921473
 20
47.5122620059883
 30
0.0
 40
44.55494375179233
100
AcDbArc
 50
260.3142803533828
 51
269.3685571991193
  0
LINE
  5
7B6B
330
1F
100
AcDbEntity
  8
ceco.net 223
100
AcDbLine
 10
-87.61974567081461
 20
0.1017000629035465
 30
0.0
 11
136.2008244211456
 21
-0.1580880234887445
 31
0.0
  0
ENDSEC
  0
SECTION
  2
OBJECTS
  0
DICTIONARY
  5
C
330
0
100
AcDbDictionary
281
     1
  3
ACAD_GROUP
350
D
  3
ACAD_LAYOUT
350
1A
  3
ACAD_MLINESTYLE
350
17
  3
ACAD_PLOTSETTINGS
350
19
  3
ACAD_PLOTSTYLENAME
350
E
  3
AcDbVariableDictionary
350
115
  3
DWGPROPS
350
8E3
  0
DICTIONARY
  5
90B
330
2
100
AcDbDictionary
280
     1
281
     1
  3
ACAD_LAYERFILTERS
360
7A67
  3
ACAD_LAYERSTATES
360
90C
  0
DICTIONARY
  5
7A72
330
7A71
100
AcDbDictionary
280
     1
281
     1
  3
ACAD_XREC_ROUNDTRIP
360
7A73
  0
DICTIONARY
  5
D
102
{ACAD_REACTORS
330
C
102
}
330
C
100
AcDbDictionary
281
     1
  0
DICTIONARY
  5
1A
102
{ACAD_REACTORS
330
C
102
}
330
C
100
AcDbDictionary
281
     1
  3
Layout1
350
1E
  3
Layout2
350
26
  3
Model
350
22
  0
DICTIONARY
  5
17
102
{ACAD_REACTORS
330
C
102
}
330
C
100
AcDbDictionary
281
     1
  3
Standard
350
18
  0
DICTIONARY
  5
19
102
{ACAD_REACTORS
330
C
102
}
330
C
100
AcDbDictionary
281
     1
  0
ACDBDICTIONARYWDFLT
  5
E
102
{ACAD_REACTORS
330
C
102
}
330
C
100
AcDbDictionary
281
     1
  3
Normal
350
F
100
AcDbDictionaryWithDefault
340
F
  0
DICTIONARY
  5
115
102
{ACAD_REACTORS
330
C
102
}
330
C
100
AcDbDictionary
281
     1
  3
DIMASSOC
350
117
  3
HIDETEXT
350
116
  0
XRECORD
  5
8E3
102
{ACAD_REACTORS
330
C
102
}
330
C
100
AcDbXrecord
280
     1
  1
DWGPROPS COOKIE
  2
Ceco.NET-Trees-and-Plants - T - xx . 67 . dwg
  3

  4
ceco.net
  6

  7

  8
peacosta
  9

300
=
301
=
302
=
303
=
304
=
305
=
306
=
307
=
308
=
309
=
 40
0.0450312037037037
 41
2455079.811409143
 42
2455838.656599502
  1

 90
        0
  0
DICTIONARY
  5
7A67
102
{ACAD_REACTORS
330
90B
102
}
330
90B
100
AcDbDictionary
280
     1
281
     1
  0
DICTIONARY
  5
90C
102
{ACAD_REACTORS
330
90B
102
}
330
90B
100
AcDbDictionary
281
     1
  0
XRECORD
  5
7A73
102
{ACAD_REACTORS
330
7A72
102
}
330
7A72
100
AcDbXrecord
280
     1
102
MATERIAL
340
0
  0
LAYOUT
  5
1E
102
{ACAD_REACTORS
330
1A
102
}
330
1A
100
AcDbPlotSettings
  1

  2
Microsoft Office Document Image Writer
  4

  6

 40
0.0
 41
0.0
 42
0.0
 43
0.0
 44
0.0
 45
0.0
 46
0.0
 47
0.0
 48
0.0
 49
0.0
140
0.0
141
0.0
142
1.0
143
1.0
 70
   688
 72
     0
 73
     0
 74
     5
  7

 75
    16
147
1.0
148
0.0
149
0.0
100
AcDbLayout
  1
Layout1
 70
     1
 71
     1
 10
0.0
 20
0.0
 11
420.0
 21
297.0
 12
0.0
 22
0.0
 32
0.0
 14
1.000000000000000E+20
 24
1.000000000000000E+20
 34
1.000000000000000E+20
 15
-1.000000000000000E+20
 25
-1.000000000000000E+20
 35
-1.000000000000000E+20
146
0.0
 13
0.0
 23
0.0
 33
0.0
 16
1.0
 26
0.0
 36
0.0
 17
0.0
 27
1.0
 37
0.0
 76
     0
330
1B
  0
LAYOUT
  5
26
102
{ACAD_REACTORS
330
1A
102
}
330
1A
100
AcDbPlotSettings
  1

  2
Microsoft Office Document Image Writer
  4

  6

 40
0.0
 41
0.0
 42
0.0
 43
0.0
 44
0.0
 45
0.0
 46
0.0
 47
0.0
 48
0.0
 49
0.0
140
0.0
141
0.0
142
1.0
143
1.0
 70
   688
 72
     0
 73
     0
 74
     5
  7

 75
    16
147
1.0
148
0.0
149
0.0
100
AcDbLayout
  1
Layout2
 70
     1
 71
     2
 10
0.0
 20
0.0
 11
12.0
 21
9.0
 12
0.0
 22
0.0
 32
0.0
 14
0.0
 24
0.0
 34
0.0
 15
0.0
 25
0.0
 35
0.0
146
0.0
 13
0.0
 23
0.0
 33
0.0
 16
1.0
 26
0.0
 36
0.0
 17
0.0
 27
1.0
 37
0.0
 76
     0
330
23
  0
LAYOUT
  5
22
102
{ACAD_REACTORS
330
1A
102
}
330
1A
100
AcDbPlotSettings
  1

  2
Microsoft Office Document Image Writer
  4

  6

 40
0.0
 41
0.0
 42
0.0
 43
0.0
 44
0.0
 45
0.0
 46
0.0
 47
0.0
 48
0.0
 49
0.0
140
0.0
141
0.0
142
1.0
143
1.0
 70
  1712
 72
     0
 73
     0
 74
     0
  7

 75
     0
147
1.0
148
0.0
149
0.0
100
AcDbLayout
  1
Model
 70
     1
 71
     0
 10
0.0
 20
0.0
 11
12.0
 21
9.0
 12
0.0
 22
0.0
 32
0.0
 14
0.0
 24
0.0
 34
0.0
 15
0.0
 25
0.0
 35
0.0
146
0.0
 13
0.0
 23
0.0
 33
0.0
 16
1.0
 26
0.0
 36
0.0
 17
0.0
 27
1.0
 37
0.0
 76
     0
330
1F
  0
MLINESTYLE
  5
18
102
{ACAD_REACTORS
330
17
102
}
330
17
100
AcDbMlineStyle
  2
STANDARD
 70
     0
  3

 62
   256
 51
90.0
 52
90.0
 71
     2
 49
0.5
 62
   256
  6
BYLAYER
 49
-0.5
 62
   256
  6
BYLAYER
  0
ACDBPLACEHOLDER
  5
F
102
{ACAD_REACTORS
330
E
102
}
330
E
  0
DICTIONARYVAR
  5
117
102
{ACAD_REACTORS
330
115
102
}
330
115
100
DictionaryVariables
280
     0
  1
2
  0
DICTIONARYVAR
  5
116
102
{ACAD_REACTORS
330
115
102
}
330
115
100
DictionaryVariables
280
     0
  1
1
  0
ENDSEC
  0
EOF
