  0
SECTION
  2
HEADER
  9
$ACADVER
  1
AC1015
  9
$ACADMAINTVER
 70
    13
  9
$DWGCODEPAGE
  3
ANSI_1252
  9
$INSBASE
 10
0.0
 20
0.0
 30
0.0
  9
$EXTMIN
 10
-168.2066359748049
 20
-0.0000000000545908
 30
0.0
  9
$EXTMAX
 10
1701.383406203725
 20
1352.416838612859
 30
0.0
  9
$LIMMIN
 10
0.0
 20
0.0
  9
$LIMMAX
 10
420.0
 20
297.0
  9
$ORTHOMODE
 70
     0
  9
$REGENMODE
 70
     1
  9
$FILLMODE
 70
     1
  9
$QTEXTMODE
 70
     0
  9
$MIRRTEXT
 70
     1
  9
$LTSCALE
 40
1.0
  9
$ATTMODE
 70
     1
  9
$TEXTSIZE
 40
2.5
  9
$TRACEWID
 40
1.0
  9
$TEXTSTYLE
  7
Standard
  9
$CLAYER
  8
ceco.net 90
  9
$CELTYPE
  6
ByLayer
  9
$CECOLOR
 62
   256
  9
$CELTSCALE
 40
1.0
  9
$DISPSILH
 70
     0
  9
$DIMSCALE
 40
1.0
  9
$DIMASZ
 40
2.5
  9
$DIMEXO
 40
0.625
  9
$DIMDLI
 40
3.75
  9
$DIMRND
 40
0.0
  9
$DIMDLE
 40
0.0
  9
$DIMEXE
 40
1.25
  9
$DIMTP
 40
0.0
  9
$DIMTM
 40
0.0
  9
$DIMTXT
 40
2.5
  9
$DIMCEN
 40
2.5
  9
$DIMTSZ
 40
0.0
  9
$DIMTOL
 70
     0
  9
$DIMLIM
 70
     0
  9
$DIMTIH
 70
     0
  9
$DIMTOH
 70
     0
  9
$DIMSE1
 70
     0
  9
$DIMSE2
 70
     0
  9
$DIMTAD
 70
     1
  9
$DIMZIN
 70
     8
  9
$DIMBLK
  1

  9
$DIMASO
 70
     1
  9
$DIMSHO
 70
     1
  9
$DIMPOST
  1

  9
$DIMAPOST
  1

  9
$DIMALT
 70
     0
  9
$DIMALTD
 70
     3
  9
$DIMALTF
 40
0.03937007874016
  9
$DIMLFAC
 40
1.0
  9
$DIMTOFL
 70
     1
  9
$DIMTVP
 40
0.0
  9
$DIMTIX
 70
     0
  9
$DIMSOXD
 70
     0
  9
$DIMSAH
 70
     0
  9
$DIMBLK1
  1

  9
$DIMBLK2
  1

  9
$DIMSTYLE
  2
ISO-25
  9
$DIMCLRD
 70
     0
  9
$DIMCLRE
 70
     0
  9
$DIMCLRT
 70
     0
  9
$DIMTFAC
 40
1.0
  9
$DIMGAP
 40
0.625
  9
$DIMJUST
 70
     0
  9
$DIMSD1
 70
     0
  9
$DIMSD2
 70
     0
  9
$DIMTOLJ
 70
     0
  9
$DIMTZIN
 70
     8
  9
$DIMALTZ
 70
     0
  9
$DIMALTTZ
 70
     0
  9
$DIMUPT
 70
     0
  9
$DIMDEC
 70
     2
  9
$DIMTDEC
 70
     2
  9
$DIMALTU
 70
     2
  9
$DIMALTTD
 70
     3
  9
$DIMTXSTY
  7
Standard
  9
$DIMAUNIT
 70
     0
  9
$DIMADEC
 70
     0
  9
$DIMALTRND
 40
0.0
  9
$DIMAZIN
 70
     0
  9
$DIMDSEP
 70
    44
  9
$DIMATFIT
 70
     3
  9
$DIMFRAC
 70
     0
  9
$DIMLDRBLK
  1

  9
$DIMLUNIT
 70
     2
  9
$DIMLWD
 70
    -2
  9
$DIMLWE
 70
    -2
  9
$DIMTMOVE
 70
     0
  9
$LUNITS
 70
     2
  9
$LUPREC
 70
     2
  9
$SKETCHINC
 40
1.0
  9
$FILLETRAD
 40
10.0
  9
$AUNITS
 70
     0
  9
$AUPREC
 70
     0
  9
$MENU
  1
.
  9
$ELEVATION
 40
0.0
  9
$PELEVATION
 40
0.0
  9
$THICKNESS
 40
0.0
  9
$LIMCHECK
 70
     0
  9
$CHAMFERA
 40
10.0
  9
$CHAMFERB
 40
10.0
  9
$CHAMFERC
 40
20.0
  9
$CHAMFERD
 40
0.0
  9
$SKPOLY
 70
     0
  9
$TDCREATE
 40
2455079.811409143
  9
$TDUCREATE
 40
2455079.936409144
  9
$TDUPDATE
 40
2456577.932539351
  9
$TDUUPDATE
 40
2456578.057539351
  9
$TDINDWG
 40
0.0473601736
  9
$TDUSRTIMER
 40
0.0473601736
  9
$USRTIMER
 70
     1
  9
$ANGBASE
 50
0.0
  9
$ANGDIR
 70
     0
  9
$PDMODE
 70
     0
  9
$PDSIZE
 40
0.0
  9
$PLINEWID
 40
0.0
  9
$SPLFRAME
 70
     0
  9
$SPLINETYPE
 70
     6
  9
$SPLINESEGS
 70
     8
  9
$HANDSEED
  5
1099
  9
$SURFTAB1
 70
     6
  9
$SURFTAB2
 70
     6
  9
$SURFTYPE
 70
     6
  9
$SURFU
 70
     6
  9
$SURFV
 70
     6
  9
$UCSBASE
  2

  9
$UCSNAME
  2

  9
$UCSORG
 10
0.0
 20
0.0
 30
0.0
  9
$UCSXDIR
 10
1.0
 20
0.0
 30
0.0
  9
$UCSYDIR
 10
0.0
 20
1.0
 30
0.0
  9
$UCSORTHOREF
  2

  9
$UCSORTHOVIEW
 70
     0
  9
$UCSORGTOP
 10
0.0
 20
0.0
 30
0.0
  9
$UCSORGBOTTOM
 10
0.0
 20
0.0
 30
0.0
  9
$UCSORGLEFT
 10
0.0
 20
0.0
 30
0.0
  9
$UCSORGRIGHT
 10
0.0
 20
0.0
 30
0.0
  9
$UCSORGFRONT
 10
0.0
 20
0.0
 30
0.0
  9
$UCSORGBACK
 10
0.0
 20
0.0
 30
0.0
  9
$PUCSBASE
  2

  9
$PUCSNAME
  2

  9
$PUCSORG
 10
0.0
 20
0.0
 30
0.0
  9
$PUCSXDIR
 10
1.0
 20
0.0
 30
0.0
  9
$PUCSYDIR
 10
0.0
 20
1.0
 30
0.0
  9
$PUCSORTHOREF
  2

  9
$PUCSORTHOVIEW
 70
     0
  9
$PUCSORGTOP
 10
0.0
 20
0.0
 30
0.0
  9
$PUCSORGBOTTOM
 10
0.0
 20
0.0
 30
0.0
  9
$PUCSORGLEFT
 10
0.0
 20
0.0
 30
0.0
  9
$PUCSORGRIGHT
 10
0.0
 20
0.0
 30
0.0
  9
$PUCSORGFRONT
 10
0.0
 20
0.0
 30
0.0
  9
$PUCSORGBACK
 10
0.0
 20
0.0
 30
0.0
  9
$USERI1
 70
     0
  9
$USERI2
 70
     0
  9
$USERI3
 70
     0
  9
$USERI4
 70
     0
  9
$USERI5
 70
     0
  9
$USERR1
 40
0.0
  9
$USERR2
 40
0.0
  9
$USERR3
 40
0.0
  9
$USERR4
 40
0.0
  9
$USERR5
 40
0.0
  9
$WORLDVIEW
 70
     1
  9
$SHADEDGE
 70
     3
  9
$SHADEDIF
 70
    70
  9
$TILEMODE
 70
     1
  9
$MAXACTVP
 70
    64
  9
$PINSBASE
 10
0.0
 20
0.0
 30
0.0
  9
$PLIMCHECK
 70
     0
  9
$PEXTMIN
 10
1.000000000000000E+20
 20
1.000000000000000E+20
 30
1.000000000000000E+20
  9
$PEXTMAX
 10
-1.000000000000000E+20
 20
-1.000000000000000E+20
 30
-1.000000000000000E+20
  9
$PLIMMIN
 10
0.0
 20
0.0
  9
$PLIMMAX
 10
420.0
 20
297.0
  9
$UNITMODE
 70
     0
  9
$VISRETAIN
 70
     1
  9
$PLINEGEN
 70
     0
  9
$PSLTSCALE
 70
     1
  9
$TREEDEPTH
 70
  3020
  9
$CMLSTYLE
  2
Standard
  9
$CMLJUST
 70
     0
  9
$CMLSCALE
 40
20.0
  9
$PROXYGRAPHICS
 70
     1
  9
$MEASUREMENT
 70
     1
  9
$CELWEIGHT
370
    -1
  9
$ENDCAPS
280
     0
  9
$JOINSTYLE
280
     0
  9
$LWDISPLAY
290
     0
  9
$INSUNITS
 70
     6
  9
$HYPERLINKBASE
  1

  9
$STYLESHEET
  1

  9
$XEDIT
290
     1
  9
$CEPSNTYPE
380
     0
  9
$PSTYLEMODE
290
     1
  9
$FINGERPRINTGUID
  2
{81085373-3A21-4932-80AA-8F6C3258C50C}
  9
$VERSIONGUID
  2
{ECCE923E-3010-4523-BF12-29D3591A6FE1}
  9
$EXTNAMES
290
     1
  9
$PSVPSCALE
 40
0.0
  9
$OLESTARTUP
290
     0
  0
ENDSEC
  0
SECTION
  2
CLASSES
  0
CLASS
  1
ACDBDICTIONARYWDFLT
  2
AcDbDictionaryWithDefault
  3
AutoCAD 2000
 90
        0
280
     0
281
     0
  0
CLASS
  1
ACDBPLACEHOLDER
  2
AcDbPlaceHolder
  3
AutoCAD 2000
 90
        0
280
     0
281
     0
  0
CLASS
  1
LAYOUT
  2
AcDbLayout
  3
AutoCAD 2000
 90
        0
280
     0
281
     0
  0
CLASS
  1
DICTIONARYVAR
  2
AcDbDictionaryVar
  3
AutoCAD 2000
 90
        0
280
     0
281
     0
  0
ENDSEC
  0
SECTION
  2
TABLES
  0
TABLE
  2
VPORT
  5
8
330
0
100
AcDbSymbolTable
 70
     3
  0
VPORT
  5
1098
330
8
100
AcDbSymbolTableRecord
100
AcDbViewportTableRecord
  2
*Active
 70
     0
 10
0.0
 20
0.0
 11
1.0
 21
1.0
 12
766.5883851144602
 22
676.2084193064023
 13
0.0
 23
0.0
 14
10.0
 24
10.0
 15
10.0
 25
10.0
 16
0.0
 26
0.0
 36
1.0
 17
0.0
 27
0.0
 37
0.0
 40
1513.355331570795
 41
2.184834123222748
 42
50.0
 43
0.0
 44
0.0
 50
0.0
 51
0.0
 71
     0
 72
   100
 73
     1
 74
     3
 75
     0
 76
     0
 77
     0
 78
     0
281
     0
 65
     1
110
0.0
120
0.0
130
0.0
111
1.0
121
0.0
131
0.0
112
0.0
122
1.0
132
0.0
 79
     0
146
0.0
  0
ENDTAB
  0
TABLE
  2
LTYPE
  5
5
330
0
100
AcDbSymbolTable
 70
     1
  0
LTYPE
  5
14
330
5
100
AcDbSymbolTableRecord
100
AcDbLinetypeTableRecord
  2
ByBlock
 70
     0
  3

 72
    65
 73
     0
 40
0.0
  0
LTYPE
  5
15
330
5
100
AcDbSymbolTableRecord
100
AcDbLinetypeTableRecord
  2
ByLayer
 70
     0
  3

 72
    65
 73
     0
 40
0.0
  0
LTYPE
  5
16
330
5
100
AcDbSymbolTableRecord
100
AcDbLinetypeTableRecord
  2
Continuous
 70
     0
  3
Solid line
 72
    65
 73
     0
 40
0.0
  0
ENDTAB
  0
TABLE
  2
LAYER
  5
2
102
{ACAD_XDICTIONARY
360
8FA
102
}
330
0
100
AcDbSymbolTable
 70
     2
  0
LAYER
  5
10
330
2
100
AcDbSymbolTableRecord
100
AcDbLayerTableRecord
  2
0
 70
     0
 62
     7
  6
Continuous
370
    -3
390
F
  0
LAYER
  5
8F1
102
{ACAD_XDICTIONARY
360
8F2
102
}
330
2
100
AcDbSymbolTableRecord
100
AcDbLayerTableRecord
  2
ceco.net 90
 70
     0
 62
     7
  6
Continuous
370
    -3
390
F
1001
AcAecLayerStandard
1000

1000

  0
ENDTAB
  0
TABLE
  2
STYLE
  5
3
330
0
100
AcDbSymbolTable
 70
     1
  0
STYLE
  5
11
330
3
100
AcDbSymbolTableRecord
100
AcDbTextStyleTableRecord
  2
Standard
 70
     0
 40
0.0
 41
1.0
 50
0.0
 71
     0
 42
2.5
  3
txt
  4

  0
ENDTAB
  0
TABLE
  2
VIEW
  5
6
330
0
100
AcDbSymbolTable
 70
     0
  0
ENDTAB
  0
TABLE
  2
UCS
  5
7
330
0
100
AcDbSymbolTable
 70
     0
  0
ENDTAB
  0
TABLE
  2
APPID
  5
9
330
0
100
AcDbSymbolTable
 70
    10
  0
APPID
  5
12
330
9
100
AcDbSymbolTableRecord
100
AcDbRegAppTableRecord
  2
ACAD
 70
     0
  0
APPID
  5
2C
330
9
100
AcDbSymbolTableRecord
100
AcDbRegAppTableRecord
  2
ACAD_DSTYLE_DIMJOGGED_JOGANGLE_SYMBOL
 70
     0
  0
APPID
  5
11B
330
9
100
AcDbSymbolTableRecord
100
AcDbRegAppTableRecord
  2
ACAD_NAV_VCDISPLAY
 70
     0
  0
APPID
  5
11C
330
9
100
AcDbSymbolTableRecord
100
AcDbRegAppTableRecord
  2
ACAD_MLEADERVER
 70
     0
  0
APPID
  5
8F4
330
9
100
AcDbSymbolTableRecord
100
AcDbRegAppTableRecord
  2
ACAD_PSEXT
 70
     0
  0
APPID
  5
8F5
330
9
100
AcDbSymbolTableRecord
100
AcDbRegAppTableRecord
  2
AcadAnnoPO
 70
     0
  0
APPID
  5
8F6
330
9
100
AcDbSymbolTableRecord
100
AcDbRegAppTableRecord
  2
AcadAnnotative
 70
     0
  0
APPID
  5
8F7
330
9
100
AcDbSymbolTableRecord
100
AcDbRegAppTableRecord
  2
ACAD_DSTYLE_DIMJAG
 70
     0
  0
APPID
  5
8F8
330
9
100
AcDbSymbolTableRecord
100
AcDbRegAppTableRecord
  2
ACAD_DSTYLE_DIMTALN
 70
     0
  0
APPID
  5
8F9
330
9
100
AcDbSymbolTableRecord
100
AcDbRegAppTableRecord
  2
AcAecLayerStandard
 70
     0
  0
ENDTAB
  0
TABLE
  2
DIMSTYLE
  5
A
330
0
100
AcDbSymbolTable
 70
     2
100
AcDbDimStyleTable
 71
     0
  0
DIMSTYLE
105
27
330
A
100
AcDbSymbolTableRecord
100
AcDbDimStyleTableRecord
  2
ISO-25
 70
     0
 41
2.5
 42
0.625
 43
3.75
 44
1.25
 73
     0
 74
     0
 77
     1
 78
     8
140
2.5
141
2.5
143
0.03937007874016
147
0.625
171
     3
172
     1
271
     2
272
     2
274
     3
278
    44
283
     0
284
     8
340
11
  0
DIMSTYLE
105
2B
330
A
100
AcDbSymbolTableRecord
100
AcDbDimStyleTableRecord
  2
Standard
 70
     0
340
11
  0
ENDTAB
  0
TABLE
  2
BLOCK_RECORD
  5
1
330
0
100
AcDbSymbolTable
 70
     2
  0
BLOCK_RECORD
  5
1F
330
1
100
AcDbSymbolTableRecord
100
AcDbBlockTableRecord
  2
*Model_Space
340
22
  0
BLOCK_RECORD
  5
1B
330
1
100
AcDbSymbolTableRecord
100
AcDbBlockTableRecord
  2
*Paper_Space
340
1E
  0
BLOCK_RECORD
  5
23
330
1
100
AcDbSymbolTableRecord
100
AcDbBlockTableRecord
  2
*Paper_Space0
340
26
  0
ENDTAB
  0
ENDSEC
  0
SECTION
  2
BLOCKS
  0
BLOCK
  5
20
330
1F
100
AcDbEntity
  8
0
100
AcDbBlockBegin
  2
*Model_Space
 70
     0
 10
0.0
 20
0.0
 30
0.0
  3
*Model_Space
  1

  0
ENDBLK
  5
21
330
1F
100
AcDbEntity
  8
0
100
AcDbBlockEnd
  0
BLOCK
  5
1C
330
1B
100
AcDbEntity
 67
     1
  8
0
100
AcDbBlockBegin
  2
*Paper_Space
 70
     0
 10
0.0
 20
0.0
 30
0.0
  3
*Paper_Space
  1

  0
ENDBLK
  5
1D
330
1B
100
AcDbEntity
 67
     1
  8
0
100
AcDbBlockEnd
  0
BLOCK
  5
24
330
23
100
AcDbEntity
  8
0
100
AcDbBlockBegin
  2
*Paper_Space0
 70
     0
 10
0.0
 20
0.0
 30
0.0
  3
*Paper_Space0
  1

  0
ENDBLK
  5
25
330
23
100
AcDbEntity
  8
0
100
AcDbBlockEnd
  0
ENDSEC
  0
SECTION
  2
ENTITIES
  0
LINE
  5
CCB
330
1F
100
AcDbEntity
  8
ceco.net 90
100
AcDbLine
 10
-99.62466323797954
 20
1044.363055035154
 30
0.0
 11
-21.74341779420814
 21
1044.363055035154
 31
0.0
  0
LINE
  5
CCC
330
1F
100
AcDbEntity
  8
ceco.net 90
100
AcDbLine
 10
-35.6922541983264
 20
872.5319561903791
 30
0.0
 11
13.12881852843002
 21
913.1676903943043
 31
0.0
  0
LINE
  5
CCD
330
1F
100
AcDbEntity
  8
ceco.net 90
100
AcDbLine
 10
-48.47873600632254
 20
882.9811469153293
 30
0.0
 11
3.829545821811628
 21
928.2609621336142
 31
0.0
  0
LINE
  5
CCE
330
1F
100
AcDbEntity
  8
ceco.net 90
100
AcDbLine
 10
8.479182174943302
 20
934.0660718437952
 30
0.0
 11
-63.58999966290483
 21
929.4219908286709
 31
0.0
  0
LINE
  5
CCF
330
1F
100
AcDbEntity
  8
ceco.net 90
100
AcDbLine
 10
-8.841121932766984
 20
714.2235579431775
 30
0.0
 11
-34.80279645555544
 21
698.3770103812725
 31
0.0
  0
LINE
  5
CD0
330
1F
100
AcDbEntity
  8
ceco.net 90
100
AcDbLine
 10
-31.91819824473098
 20
696.9364028699023
 30
0.0
 11
-21.82195919416162
 21
575.9263848874794
 31
0.0
  0
LINE
  5
CD1
330
1F
100
AcDbEntity
  8
ceco.net 90
100
AcDbLine
 10
-24.95467847926286
 20
372.6339577055603
 30
0.0
 11
-11.4429420410661
 21
259.6078733278618
 31
0.0
  0
LINE
  5
CD2
330
1F
100
AcDbEntity
  8
ceco.net 90
100
AcDbLine
 10
-2.998106766875594
 20
198.8774454747406
 30
0.0
 11
-28.33261258909208
 21
205.6252895504929
 31
0.0
  0
LINE
  5
CD3
330
1F
100
AcDbEntity
  8
ceco.net 90
100
AcDbLine
 10
-8.823248496920244
 20
374.7557178083702
 30
0.0
 11
-78.93263831465597
 21
373.3266141324093
 31
0.0
  0
LINE
  5
CD4
330
1F
100
AcDbEntity
  8
ceco.net 90
100
AcDbLine
 10
-79.00176954582883
 20
379.3818017809576
 30
0.0
 11
-9.753974986151494
 21
381.0687628000801
 31
0.0
  0
LINE
  5
CD5
330
1F
100
AcDbEntity
  8
ceco.net 90
100
AcDbLine
 10
-65.52424657477555
 20
0.0
 30
0.0
 11
65.52424657477637
 21
0.0
 31
0.0
  0
ARC
  5
CD6
330
1F
100
AcDbEntity
  8
ceco.net 90
100
AcDbCircle
 10
-65.52424657477555
 20
48.04500000001096
 30
0.0
 40
48.045
100
AcDbArc
 50
178.6344553217233
 51
270.0
  0
LINE
  5
CD7
330
1F
100
AcDbEntity
  8
ceco.net 90
100
AcDbLine
 10
-126.3599814500939
 20
1039.718974020003
 30
0.0
 11
-99.62466323797954
 21
1044.363055035154
 31
0.0
  0
LINE
  5
CD8
330
1F
100
AcDbEntity
  8
ceco.net 90
100
AcDbLine
 10
-67.17892750584889
 20
779.1904827667109
 30
0.0
 11
-80.69073660038839
 21
770.7557114373477
 31
0.0
  0
LINE
  5
CD9
330
1F
100
AcDbEntity
  8
ceco.net 90
100
AcDbLine
 10
-77.538908723365
 20
775.0062211141104
 30
0.0
 11
-74.05169962234231
 21
804.0317358980287
 31
0.0
  0
LINE
  5
CDA
330
1F
100
AcDbEntity
  8
ceco.net 90
100
AcDbLine
 10
-74.05169962234231
 20
804.0317358980287
 30
0.0
 11
-63.58999966290483
 21
835.3793080720601
 31
0.0
  0
LINE
  5
CDB
330
1F
100
AcDbEntity
  8
ceco.net 90
100
AcDbLine
 10
-88.00053602646057
 20
770.362140099013
 30
0.0
 11
-85.67575417751937
 21
801.7096785078608
 31
0.0
  0
LINE
  5
CDC
330
1F
100
AcDbEntity
  8
ceco.net 90
100
AcDbLine
 10
-85.67575417751937
 20
801.7096785078608
 30
0.0
 11
-76.37648147090096
 21
837.7013316966891
 31
0.0
  0
LINE
  5
CDD
330
1F
100
AcDbEntity
  8
ceco.net 90
100
AcDbLine
 10
-76.37648147090096
 20
837.7013316966891
 30
0.0
 11
-58.94036330941812
 21
866.7268464805529
 31
0.0
  0
LINE
  5
CDE
330
1F
100
AcDbEntity
  8
ceco.net 90
100
AcDbLine
 10
-58.94036330941812
 20
866.7268464805529
 30
0.0
 11
-48.47873600632254
 21
882.9811469153293
 31
0.0
  0
LINE
  5
CDF
330
1F
100
AcDbEntity
  8
ceco.net 90
100
AcDbLine
 10
-55.45315420836793
 20
930.5830195237273
 30
0.0
 11
-63.58999966290483
 21
857.4386844510689
 31
0.0
  0
LINE
  5
CE0
330
1F
100
AcDbEntity
  8
ceco.net 90
100
AcDbLine
 10
-63.58999966290483
 20
929.4219908286709
 30
0.0
 11
-134.4968269046308
 21
931.7440144532449
 31
0.0
  0
LINE
  5
CE1
330
1F
100
AcDbEntity
  8
ceco.net 90
100
AcDbLine
 10
-134.4968269046308
 20
931.7440144532449
 30
0.0
 11
-150.7705178136496
 21
938.7101528585102
 31
0.0
  0
LINE
  5
CE2
330
1F
100
AcDbEntity
  8
ceco.net 90
100
AcDbLine
 10
-150.7705178136496
 20
938.7101528585102
 30
0.0
 11
-163.5569996212907
 21
949.1593435831051
 31
0.0
  0
LINE
  5
CE3
330
1F
100
AcDbEntity
  8
ceco.net 90
100
AcDbLine
 10
-163.5569996212907
 20
949.1593435831051
 30
0.0
 11
-167.0442087223409
 21
966.574638947317
 31
0.0
  0
LINE
  5
CE4
330
1F
100
AcDbEntity
  8
ceco.net 90
100
AcDbLine
 10
-167.0442087223409
 20
966.574638947317
 30
0.0
 11
-168.2066359748049
 21
994.4391588017451
 31
0.0
  0
LINE
  5
CE5
330
1F
100
AcDbEntity
  8
ceco.net 90
100
AcDbLine
 10
-168.2066359748049
 20
994.4391588017451
 30
0.0
 11
-163.5569996212907
 21
1011.854454165629
 31
0.0
  0
LINE
  5
CE6
330
1F
100
AcDbEntity
  8
ceco.net 90
100
AcDbLine
 10
-163.5569996212907
 20
1011.854454165629
 30
0.0
 11
-147.2833087126269
 21
1029.269783295462
 31
0.0
  0
LINE
  5
CE7
330
1F
100
AcDbEntity
  8
ceco.net 90
100
AcDbLine
 10
-63.58999966290483
 20
835.3793080720601
 30
0.0
 11
-35.6922541983264
 21
872.5319561903791
 31
0.0
  0
LINE
  5
CE8
330
1F
100
AcDbEntity
  8
ceco.net 90
100
AcDbLine
 10
-34.80279645555544
 20
705.5799804067172
 30
0.0
 11
-31.91819824473098
 21
696.9364028699023
 31
0.0
  0
LINE
  5
CE9
330
1F
100
AcDbEntity
  8
ceco.net 90
100
AcDbLine
 10
-102.6473083131306
 20
747.1383247039884
 30
0.0
 11
-116.1591174076976
 21
726.8948262422155
 31
0.0
  0
LINE
  5
CEA
330
1F
100
AcDbEntity
  8
ceco.net 90
100
AcDbLine
 10
-116.1591174076976
 20
726.8948262422155
 30
0.0
 11
-122.9149856269735
 21
710.0252835841989
 31
0.0
  0
LINE
  5
CEB
330
1F
100
AcDbEntity
  8
ceco.net 90
100
AcDbLine
 10
-60.42305928657217
 20
671.2252814460519
 30
0.0
 11
-55.35615812218337
 21
531.2078882967489
 31
0.0
  0
LINE
  5
CEC
330
1F
100
AcDbEntity
  8
ceco.net 90
100
AcDbLine
 10
-49.2260054787317
 20
741.594864299099
 30
0.0
 11
-34.80279645555544
 21
705.5799804067172
 31
0.0
  0
LINE
  5
CED
330
1F
100
AcDbEntity
  8
ceco.net 90
100
AcDbLine
 10
-70.86071002894158
 20
781.931536960025
 30
0.0
 11
-49.2260054787317
 21
741.594864299099
 31
0.0
  0
LINE
  5
CEE
330
1F
100
AcDbEntity
  8
ceco.net 90
100
AcDbLine
 10
-80.69073660038839
 20
770.7557114373477
 30
0.0
 11
-102.6473083131306
 21
747.1383247039884
 31
0.0
  0
LINE
  5
CEF
330
1F
100
AcDbEntity
  8
ceco.net 90
100
AcDbLine
 10
-62.11202634146011
 20
760.6339790896265
 30
0.0
 11
-60.42305928657217
 21
671.2252814460519
 31
0.0
  0
LINE
  5
CF0
330
1F
100
AcDbEntity
  8
ceco.net 90
100
AcDbLine
 10
-35.08855346435567
 20
381.0687628000801
 30
0.0
 11
-24.95467847926286
 21
379.3818017809576
 31
0.0
  0
LINE
  5
CF1
330
1F
100
AcDbEntity
  8
ceco.net 90
100
AcDbLine
 10
-41.84442168363157
 20
414.8078818815701
 30
0.0
 11
-40.155454629072
 21
384.442684837943
 31
0.0
  0
LINE
  5
CF2
330
1F
100
AcDbEntity
  8
ceco.net 90
100
AcDbLine
 10
-40.155454629072
 20
212.3730998607337
 30
0.0
 11
-51.97822401273669
 21
227.5557152651118
 31
0.0
  0
LINE
  5
CF3
330
1F
100
AcDbEntity
  8
ceco.net 90
100
AcDbLine
 10
-51.97822401273669
 20
227.5557152651118
 30
0.0
 11
-67.17892750584889
 21
246.1122527077899
 31
0.0
  0
LINE
  5
CF4
330
1F
100
AcDbEntity
  8
ceco.net 90
100
AcDbLine
 10
-67.17892750584889
 20
246.1122527077899
 30
0.0
 11
-70.55693427163747
 21
252.8600630180032
 31
0.0
  0
LINE
  5
CF5
330
1F
100
AcDbEntity
  8
ceco.net 90
100
AcDbLine
 10
-70.55693427163747
 20
252.8600630180032
 30
0.0
 11
-79.00176954582883
 21
374.3209187243007
 31
0.0
  0
LINE
  5
CF6
330
1F
100
AcDbEntity
  8
ceco.net 90
100
AcDbLine
 10
-40.155454629072
 20
384.442684837943
 30
0.0
 11
-35.08855346435567
 21
381.0687628000801
 31
0.0
  0
LINE
  5
CF7
330
1F
100
AcDbEntity
  8
ceco.net 90
100
AcDbLine
 10
-28.33261258909208
 20
205.6252895504929
 30
0.0
 11
-40.155454629072
 21
212.3730998607337
 31
0.0
  0
LINE
  5
CF8
330
1F
100
AcDbEntity
  8
ceco.net 90
100
AcDbLine
 10
-110.9617256286368
 20
158.003697856145
 30
0.0
 11
-113.5556018679689
 21
49.18996012951423
 31
0.0
  0
LINE
  5
CF9
330
1F
100
AcDbEntity
  8
ceco.net 90
100
AcDbLine
 10
-122.9149856269735
 20
710.0252835841989
 30
0.0
 11
-79.00176954582883
 21
374.3209187243007
 31
0.0
  0
LINE
  5
CFA
330
1F
100
AcDbEntity
  8
ceco.net 90
100
AcDbLine
 10
-55.35615812218337
 20
531.2078882967489
 30
0.0
 11
-41.84442168363157
 21
414.8078818815701
 31
0.0
  0
LINE
  5
CFB
330
1F
100
AcDbEntity
  8
ceco.net 90
100
AcDbLine
 10
-121.2019311614493
 20
696.9294570282482
 30
0.0
 11
-111.0921435869661
 21
156.7035550642424
 31
0.0
  0
LINE
  5
CFC
330
1F
100
AcDbEntity
  8
ceco.net 90
100
AcDbLine
 10
-147.2833087126269
 20
1029.269783295462
 30
0.0
 11
-126.3599814500939
 21
1039.718974020003
 31
0.0
  0
LINE
  5
CFD
330
1F
100
AcDbEntity
  8
ceco.net 90
100
AcDbLine
 10
1296.815855176042
 20
1302.905017243322
 30
0.0
 11
1148.103054359563
 21
1330.411588422879
 31
0.0
  0
LINE
  5
CFE
330
1F
100
AcDbEntity
  8
ceco.net 90
100
AcDbLine
 10
236.3609150529054
 20
1302.905017243322
 30
0.0
 11
385.0737158693842
 21
1330.411588422879
 31
0.0
  0
LINE
  5
CFF
330
1F
100
AcDbEntity
  8
ceco.net 90
100
AcDbLine
 10
1131.579425970434
 20
1261.645194240155
 30
0.0
 11
999.3903261994264
 21
1269.897158840931
 31
0.0
  0
LINE
  5
D00
330
1F
100
AcDbEntity
  8
ceco.net 90
100
AcDbLine
 10
1015.723595228805
 20
1169.400493655324
 30
0.0
 11
1196.846457561411
 21
1168.443307631123
 31
0.0
  0
LINE
  5
D01
330
1F
100
AcDbEntity
  8
ceco.net 90
100
AcDbLine
 10
1223.679425765782
 20
1010.508694105584
 30
0.0
 11
972.5990626792428
 21
1011.465880129785
 31
0.0
  0
LINE
  5
D02
330
1F
100
AcDbEntity
  8
ceco.net 90
100
AcDbLine
 10
1255.769145900875
 20
763.5566919825497
 30
0.0
 11
995.874926475683
 21
767.4310871137454
 31
0.0
  0
LINE
  5
D03
330
1F
100
AcDbEntity
  8
ceco.net 90
100
AcDbLine
 10
1251.890101674424
 20
758.3908318072952
 30
0.0
 11
989.4099012022744
 21
764.848157026145
 31
0.0
  0
LINE
  5
D04
330
1F
100
AcDbEntity
  8
ceco.net 90
100
AcDbLine
 10
1025.669217885025
 20
496.6936470769981
 30
0.0
 11
1032.880786068428
 21
490.9312507974114
 31
0.0
  0
LINE
  5
D05
330
1F
100
AcDbEntity
  8
ceco.net 90
100
AcDbLine
 10
1097.723141911561
 20
735.722088412067
 30
0.0
 11
972.2622283308233
 21
736.6434829453567
 31
0.0
  0
LINE
  5
D06
330
1F
100
AcDbEntity
  8
ceco.net 90
100
AcDbLine
 10
1069.389604293862
 20
935.8486569213647
 30
0.0
 11
856.6420944457513
 21
937.7630289700666
 31
0.0
  0
LINE
  5
D07
330
1F
100
AcDbEntity
  8
ceco.net 90
100
AcDbLine
 10
1038.65005514642
 20
521.1837721757182
 30
0.0
 11
767.4948444183184
 21
524.0649534329196
 31
0.0
  0
LINE
  5
D08
330
1F
100
AcDbEntity
  8
ceco.net 90
100
AcDbLine
 10
767.4948444183184
 20
744.476045556273
 30
0.0
 11
1068.938626985473
 21
744.476045556273
 31
0.0
  0
LINE
  5
D09
330
1F
100
AcDbEntity
  8
ceco.net 90
100
AcDbLine
 10
766.5433382430091
 20
529.3270116813833
 30
0.0
 11
1052.520277494242
 21
528.4056171477662
 31
0.0
  0
LINE
  5
D0A
330
1F
100
AcDbEntity
  8
ceco.net 90
100
AcDbLine
 10
1044.217775802743
 20
725.5866134820609
 30
0.0
 11
871.7091104495983
 21
726.5080080153234
 31
0.0
  0
LINE
  5
D0B
330
1F
100
AcDbEntity
  8
ceco.net 90
100
AcDbLine
 10
765.6208219091227
 20
552.3621789067757
 30
0.0
 11
1071.892902534504
 21
552.3621789067757
 31
0.0
  0
LINE
  5
D0C
330
1F
100
AcDbEntity
  8
ceco.net 90
100
AcDbLine
 10
1031.438414306674
 20
372.8024140718351
 30
0.0
 11
1022.784547017831
 21
369.921232814934
 31
0.0
  0
LINE
  5
D0D
330
1F
100
AcDbEntity
  8
ceco.net 90
100
AcDbLine
 10
1129.720080022819
 20
253.3671879261887
 30
0.0
 11
766.0216664089532
 21
249.5910505671963
 31
0.0
  0
LINE
  5
D0E
330
1F
100
AcDbEntity
  8
ceco.net 90
100
AcDbLine
 10
1113.841348457807
 20
263.9403995437338
 30
0.0
 11
767.5338608216285
 21
263.1851653188438
 31
0.0
  0
LINE
  5
D0F
330
1F
100
AcDbEntity
  8
ceco.net 90
100
AcDbLine
 10
1112.329081389144
 20
273.7583431708501
 30
0.0
 11
766.0216664089532
 21
271.4926742616648
 31
0.0
  0
LINE
  5
D10
330
1F
100
AcDbEntity
  8
ceco.net 90
100
AcDbLine
 10
1094.938082755469
 20
279.0449489792678
 30
0.0
 11
766.77772728712
 21
279.8001832041578
 31
0.0
  0
LINE
  5
D11
330
1F
100
AcDbEntity
  8
ceco.net 90
100
AcDbLine
 10
1151.647879862456
 20
368.9171464310467
 30
0.0
 11
766.0216664089532
 21
366.6514437563222
 31
0.0
  0
LINE
  5
D12
330
1F
100
AcDbEntity
  8
ceco.net 90
100
AcDbLine
 10
1409.502129916803
 20
195.5035572023893
 30
0.0
 11
767.6935592464243
 21
197.1904844559456
 31
0.0
  0
LINE
  5
D13
330
1F
100
AcDbEntity
  8
ceco.net 90
100
AcDbLine
 10
997.5154318154853
 20
1142.599487565989
 30
0.0
 11
1015.723595228805
 21
1169.400493655324
 31
0.0
  0
LINE
  5
D14
330
1F
100
AcDbEntity
  8
ceco.net 90
100
AcDbLine
 10
986.9738826436497
 20
1076.554090835786
 30
0.0
 11
997.5154318154853
 21
1142.599487565989
 31
0.0
  0
LINE
  5
D15
330
1F
100
AcDbEntity
  8
ceco.net 90
100
AcDbLine
 10
869.9551887122124
 20
1275.398479829769
 30
0.0
 11
766.6824022947655
 21
1276.773784752941
 31
0.0
  0
LINE
  5
D16
330
1F
100
AcDbEntity
  8
ceco.net 90
100
AcDbLine
 10
867.8154623179358
 20
1225.915696840003
 30
0.0
 11
765.9284484474194
 21
1226.456992492358
 31
0.0
  0
LINE
  5
D17
330
1F
100
AcDbEntity
  8
ceco.net 90
100
AcDbLine
 10
765.9284484474194
 20
1153.921956904759
 30
0.0
 11
886.7838280150754
 21
1155.545877627746
 31
0.0
  0
LINE
  5
D18
330
1F
100
AcDbEntity
  8
ceco.net 90
100
AcDbLine
 10
875.9447515227904
 20
1223.750480464333
 30
0.0
 11
867.8154623179358
 21
1225.915696840003
 31
0.0
  0
LINE
  5
D19
330
1F
100
AcDbEntity
  8
ceco.net 90
100
AcDbLine
 10
885.1579265805115
 20
1219.96134336573
 30
0.0
 11
875.9447515227904
 21
1223.750480464333
 31
0.0
  0
LINE
  5
D1A
330
1F
100
AcDbEntity
  8
ceco.net 90
100
AcDbLine
 10
892.7452728593015
 20
1212.924331055724
 30
0.0
 11
885.1579265805115
 21
1219.96134336573
 31
0.0
  0
LINE
  5
D1B
330
1F
100
AcDbEntity
  8
ceco.net 90
100
AcDbLine
 10
898.1647747771093
 20
1202.098215412273
 30
0.0
 11
892.7452728593015
 21
1212.924331055724
 31
0.0
  0
LINE
  5
D1C
330
1F
100
AcDbEntity
  8
ceco.net 90
100
AcDbLine
 10
897.622831851017
 20
1164.206776895528
 30
0.0
 11
898.1647747771093
 21
1202.098215412273
 31
0.0
  0
LINE
  5
D1D
330
1F
100
AcDbEntity
  8
ceco.net 90
100
AcDbLine
 10
896.5389459988607
 20
1160.958935449281
 30
0.0
 11
897.622831851017
 21
1164.206776895528
 31
0.0
  0
LINE
  5
D1E
330
1F
100
AcDbEntity
  8
ceco.net 90
100
AcDbLine
 10
892.2033299332376
 20
1157.711094003361
 30
0.0
 11
896.5389459988607
 21
1160.958935449281
 31
0.0
  0
LINE
  5
D1F
330
1F
100
AcDbEntity
  8
ceco.net 90
100
AcDbLine
 10
886.7838280150754
 20
1155.545877627746
 30
0.0
 11
892.2033299332376
 21
1157.711094003361
 31
0.0
  0
LINE
  5
D20
330
1F
100
AcDbEntity
  8
ceco.net 90
100
AcDbLine
 10
646.3929422138728
 20
1155.545877627746
 30
0.0
 11
640.9734402957099
 21
1157.711094003361
 31
0.0
  0
LINE
  5
D21
330
1F
100
AcDbEntity
  8
ceco.net 90
100
AcDbLine
 10
640.9734402957099
 20
1157.711094003361
 30
0.0
 11
636.6378242304143
 21
1160.958935449281
 31
0.0
  0
LINE
  5
D22
330
1F
100
AcDbEntity
  8
ceco.net 90
100
AcDbLine
 10
636.6378242304143
 20
1160.958935449281
 30
0.0
 11
635.5539383779304
 21
1164.206776895528
 31
0.0
  0
LINE
  5
D23
330
1F
100
AcDbEntity
  8
ceco.net 90
100
AcDbLine
 10
635.5539383779304
 20
1164.206776895528
 30
0.0
 11
635.0119954518381
 21
1202.098215412273
 31
0.0
  0
LINE
  5
D24
330
1F
100
AcDbEntity
  8
ceco.net 90
100
AcDbLine
 10
635.0119954518381
 20
1202.098215412273
 30
0.0
 11
640.4314973696459
 21
1212.924331055724
 31
0.0
  0
LINE
  5
D25
330
1F
100
AcDbEntity
  8
ceco.net 90
100
AcDbLine
 10
640.4314973696459
 20
1212.924331055724
 30
0.0
 11
648.0188436484358
 21
1219.96134336573
 31
0.0
  0
LINE
  5
D26
330
1F
100
AcDbEntity
  8
ceco.net 90
100
AcDbLine
 10
648.0188436484358
 20
1219.96134336573
 30
0.0
 11
657.2320187061571
 21
1223.750480464333
 31
0.0
  0
LINE
  5
D27
330
1F
100
AcDbEntity
  8
ceco.net 90
100
AcDbLine
 10
657.2320187061571
 20
1223.750480464333
 30
0.0
 11
665.3613079110118
 21
1225.915696840003
 31
0.0
  0
LINE
  5
D28
330
1F
100
AcDbEntity
  8
ceco.net 90
100
AcDbLine
 10
767.2483217815281
 20
1153.921956904759
 30
0.0
 11
646.3929422138728
 21
1155.545877627746
 31
0.0
  0
LINE
  5
D29
330
1F
100
AcDbEntity
  8
ceco.net 90
100
AcDbLine
 10
665.3613079110118
 20
1225.915696840003
 30
0.0
 11
767.2483217815281
 21
1226.456992492358
 31
0.0
  0
LINE
  5
D2A
330
1F
100
AcDbEntity
  8
ceco.net 90
100
AcDbLine
 10
663.221581516735
 20
1275.398479829769
 30
0.0
 11
766.494367934182
 21
1276.773784752941
 31
0.0
  0
LINE
  5
D2B
330
1F
100
AcDbEntity
  8
ceco.net 90
100
AcDbLine
 10
999.3903261994264
 20
1269.897158840931
 30
0.0
 11
869.9551887122124
 21
1275.398479829769
 31
0.0
  0
LINE
  5
D2C
330
1F
100
AcDbEntity
  8
ceco.net 90
100
AcDbLine
 10
1012.688380623603
 20
477.9658844923524
 30
0.0
 11
1017.01527793984
 21
475.0847032351237
 31
0.0
  0
LINE
  5
D2D
330
1F
100
AcDbEntity
  8
ceco.net 90
100
AcDbLine
 10
856.6420944457513
 20
937.7630289700666
 30
0.0
 11
765.6014953481465
 21
935.8486569213647
 31
0.0
  0
LINE
  5
D2E
330
1F
100
AcDbEntity
  8
ceco.net 90
100
AcDbLine
 10
863.350372825015
 20
953.0779040635051
 30
0.0
 11
859.5170293761006
 21
936.8058429458658
 31
0.0
  0
LINE
  5
D2F
330
1F
100
AcDbEntity
  8
ceco.net 90
100
AcDbLine
 10
869.1003153420572
 20
963.6068828007406
 30
0.0
 11
863.350372825015
 21
953.0779040635051
 31
0.0
  0
LINE
  5
D30
330
1F
100
AcDbEntity
  8
ceco.net 90
100
AcDbLine
 10
893.0583486160783
 20
985.6220262994938
 30
0.0
 11
869.1003153420572
 21
963.6068828007406
 31
0.0
  0
LINE
  5
D31
330
1F
100
AcDbEntity
  8
ceco.net 90
100
AcDbLine
 10
929.4746027860224
 20
1002.851239676068
 30
0.0
 11
893.0583486160783
 21
985.6220262994938
 31
0.0
  0
LINE
  5
D32
330
1F
100
AcDbEntity
  8
ceco.net 90
100
AcDbLine
 10
603.7021674429251
 20
1002.851239676068
 30
0.0
 11
640.1184216132244
 21
985.6220262994938
 31
0.0
  0
LINE
  5
D33
330
1F
100
AcDbEntity
  8
ceco.net 90
100
AcDbLine
 10
640.1184216132244
 20
985.6220262994938
 30
0.0
 11
664.0764548868901
 21
963.6068828007406
 31
0.0
  0
LINE
  5
D34
330
1F
100
AcDbEntity
  8
ceco.net 90
100
AcDbLine
 10
664.0764548868901
 20
963.6068828007406
 30
0.0
 11
669.8263974039321
 21
953.0779040635051
 31
0.0
  0
LINE
  5
D35
330
1F
100
AcDbEntity
  8
ceco.net 90
100
AcDbLine
 10
669.8263974039321
 20
953.0779040635051
 30
0.0
 11
673.659740852847
 21
936.8058429458658
 31
0.0
  0
LINE
  5
D36
330
1F
100
AcDbEntity
  8
ceco.net 90
100
AcDbLine
 10
676.5346757831961
 20
937.7630289700666
 30
0.0
 11
767.5752748807735
 21
935.8486569213647
 31
0.0
  0
LINE
  5
D37
330
1F
100
AcDbEntity
  8
ceco.net 90
100
AcDbLine
 10
871.7091104495983
 20
726.5080080153234
 30
0.0
 11
766.5433382430091
 21
726.5080080153234
 31
0.0
  0
CIRCLE
  5
D38
330
1F
100
AcDbEntity
  8
ceco.net 90
100
AcDbCircle
 10
864.2151274443445
 20
644.4411581351306
 30
0.0
 40
39.66776641476993
  0
CIRCLE
  5
D39
330
1F
100
AcDbEntity
  8
ceco.net 90
100
AcDbCircle
 10
668.9616427846029
 20
644.4411581351306
 30
0.0
 40
39.66776641476993
  0
CIRCLE
  5
D3A
330
1F
100
AcDbEntity
  8
ceco.net 90
100
AcDbCircle
 10
730.7695832409357
 20
644.4411581351306
 30
0.0
 40
39.66776641476993
  0
LINE
  5
D3B
330
1F
100
AcDbEntity
  8
ceco.net 90
100
AcDbLine
 10
661.467659779349
 20
726.5080080153234
 30
0.0
 11
766.6334319859384
 21
726.5080080153234
 31
0.0
  0
CIRCLE
  5
D3C
330
1F
100
AcDbEntity
  8
ceco.net 90
100
AcDbCircle
 10
802.4071869880117
 20
644.4411581351306
 30
0.0
 40
39.66776641476993
  0
LINE
  5
D3D
330
1F
100
AcDbEntity
  8
ceco.net 90
100
AcDbLine
 10
972.5990626792428
 20
1011.465880129785
 30
0.0
 11
929.4746027860224
 21
1002.851239676068
 31
0.0
  0
LINE
  5
D3E
330
1F
100
AcDbEntity
  8
ceco.net 90
100
AcDbLine
 10
995.874926475683
 20
767.4310871137454
 30
0.0
 11
767.0129155499875
 21
775.1798773762451
 31
0.0
  0
LINE
  5
D3F
330
1F
100
AcDbEntity
  8
ceco.net 90
100
AcDbLine
 10
989.4099012022744
 20
764.848157026145
 30
0.0
 11
765.7199250265095
 21
770.0140172010176
 31
0.0
  0
LINE
  5
D40
330
1F
100
AcDbEntity
  8
ceco.net 90
100
AcDbLine
 10
766.0524726565642
 20
499.5748283342266
 30
0.0
 11
1025.669217885025
 21
496.6936470769981
 31
0.0
  0
LINE
  5
D41
330
1F
100
AcDbEntity
  8
ceco.net 90
100
AcDbLine
 10
767.4948444183184
 20
476.5253107465484
 30
0.0
 11
1012.688380623603
 21
477.9658844923524
 31
0.0
  0
LINE
  5
D42
330
1F
100
AcDbEntity
  8
ceco.net 90
100
AcDbLine
 10
972.2622283308233
 20
736.6434829453567
 30
0.0
 11
766.5433382430091
 21
736.6434829453567
 31
0.0
  0
LINE
  5
D43
330
1F
100
AcDbEntity
  8
ceco.net 90
100
AcDbLine
 10
1019.899948807034
 20
459.2381556732733
 30
0.0
 11
1019.899948807034
 21
378.5648103514213
 31
0.0
  0
LINE
  5
D44
330
1F
100
AcDbEntity
  8
ceco.net 90
100
AcDbLine
 10
1018.457577045252
 20
470.7629144669346
 30
0.0
 11
1019.899948807034
 21
459.2381556732733
 31
0.0
  0
LINE
  5
D45
330
1F
100
AcDbEntity
  8
ceco.net 90
100
AcDbLine
 10
1022.784547017831
 20
369.921232814934
 30
0.0
 11
767.4948444183184
 21
369.921232814934
 31
0.0
  0
LINE
  5
D46
330
1F
100
AcDbEntity
  8
ceco.net 90
100
AcDbLine
 10
1019.899948807034
 20
378.5648103514213
 30
0.0
 11
766.0524726565642
 21
380.0054178627915
 31
0.0
  0
LINE
  5
D47
330
1F
100
AcDbEntity
  8
ceco.net 90
100
AcDbLine
 10
1017.01527793984
 20
475.0847032351237
 30
0.0
 11
1018.457577045252
 21
470.7629144669346
 31
0.0
  0
LINE
  5
D48
330
1F
100
AcDbEntity
  8
ceco.net 90
100
AcDbLine
 10
986.0155467814287
 20
1009.551508081028
 30
0.0
 11
986.9738826436497
 21
1076.554090835786
 31
0.0
  0
LINE
  5
D49
330
1F
100
AcDbEntity
  8
ceco.net 90
100
AcDbLine
 10
546.2028875852978
 20
1076.554090835786
 30
0.0
 11
535.6613384134621
 21
1142.599487565989
 31
0.0
  0
LINE
  5
D4A
330
1F
100
AcDbEntity
  8
ceco.net 90
100
AcDbLine
 10
535.6613384134621
 20
1142.599487565989
 30
0.0
 11
517.4531750001413
 21
1169.400493655324
 31
0.0
  0
LINE
  5
D4B
330
1F
100
AcDbEntity
  8
ceco.net 90
100
AcDbLine
 10
401.5973442585128
 20
1261.645194240155
 30
0.0
 11
533.7864440295212
 21
1269.897158840931
 31
0.0
  0
LINE
  5
D4C
330
1F
100
AcDbEntity
  8
ceco.net 90
100
AcDbLine
 10
336.3303126675086
 20
1168.443307631123
 30
0.0
 11
324.8305002897938
 21
1153.128432537713
 31
0.0
  0
LINE
  5
D4D
330
1F
100
AcDbEntity
  8
ceco.net 90
100
AcDbLine
 10
324.8305002897938
 20
1153.128432537713
 30
0.0
 11
311.413943531266
 21
1098.569200568946
 31
0.0
  0
LINE
  5
D4E
330
1F
100
AcDbEntity
  8
ceco.net 90
100
AcDbLine
 10
311.413943531266
 20
1098.569200568946
 30
0.0
 11
305.6640010142239
 21
1041.138444292433
 31
0.0
  0
LINE
  5
D4F
330
1F
100
AcDbEntity
  8
ceco.net 90
100
AcDbLine
 10
164.7585495844615
 20
1192.87876629222
 30
0.0
 11
193.6748629376954
 21
1214.88401648261
 31
0.0
  0
LINE
  5
D50
330
1F
100
AcDbEntity
  8
ceco.net 90
100
AcDbLine
 10
193.6748629376954
 20
1214.88401648261
 30
0.0
 11
226.722192372622
 21
1228.637302072197
 31
0.0
  0
LINE
  5
D51
330
1F
100
AcDbEntity
  8
ceco.net 90
100
AcDbLine
 10
226.722192372622
 20
1228.637302072197
 30
0.0
 11
306.5864446917675
 21
1252.017890950969
 31
0.0
  0
LINE
  5
D52
330
1F
100
AcDbEntity
  8
ceco.net 90
100
AcDbLine
 10
210.1984913271515
 20
1223.13598108303
 30
0.0
 11
236.3609150529054
 21
1302.905017243322
 31
0.0
  0
LINE
  5
D53
330
1F
100
AcDbEntity
  8
ceco.net 90
100
AcDbLine
 10
173.0203637792029
 20
1271.272463763802
 30
0.0
 11
189.543992168659
 21
1286.401088042127
 31
0.0
  0
LINE
  5
D54
330
1F
100
AcDbEntity
  8
ceco.net 90
100
AcDbLine
 10
189.543992168659
 20
1286.401088042127
 30
0.0
 11
210.1984913271515
 21
1296.028391331312
 31
0.0
  0
LINE
  5
D55
330
1F
100
AcDbEntity
  8
ceco.net 90
100
AcDbLine
 10
210.1984913271515
 20
1296.028391331312
 30
0.0
 11
237.737896194816
 21
1301.529712320478
 31
0.0
  0
LINE
  5
D56
330
1F
100
AcDbEntity
  8
ceco.net 90
100
AcDbLine
 10
192.297881795784
 20
1287.776426730919
 30
0.0
 11
179.9051968320337
 21
1220.385337471394
 31
0.0
  0
LINE
  5
D57
330
1F
100
AcDbEntity
  8
ceco.net 90
100
AcDbLine
 10
179.9051968320337
 20
1220.385337471394
 30
0.0
 11
168.8894203538245
 21
1197.004748592622
 31
0.0
  0
LINE
  5
D58
330
1F
100
AcDbEntity
  8
ceco.net 90
100
AcDbLine
 10
517.4531750001413
 20
1169.400493655324
 30
0.0
 11
336.3303126675086
 21
1168.443307631123
 31
0.0
  0
LINE
  5
D59
330
1F
100
AcDbEntity
  8
ceco.net 90
100
AcDbLine
 10
306.5864446917675
 20
1252.017890950969
 30
0.0
 11
401.5973442585128
 21
1261.645194240155
 31
0.0
  0
LINE
  5
D5A
330
1F
100
AcDbEntity
  8
ceco.net 90
100
AcDbLine
 10
112.4336294766109
 20
1162.621551501464
 30
0.0
 11
146.857940053449
 21
1246.516569962158
 31
0.0
  0
LINE
  5
D5B
330
1F
100
AcDbEntity
  8
ceco.net 90
100
AcDbLine
 10
76.63241041458686
 20
1096.605767165138
 30
0.0
 11
128.9573305224098
 21
1217.634660094246
 31
0.0
  0
LINE
  5
D5C
330
1F
100
AcDbEntity
  8
ceco.net 90
100
AcDbLine
 10
128.9573305224098
 20
1217.634660094246
 30
0.0
 11
149.6118296809015
 21
1249.267213573767
 31
0.0
  0
LINE
  5
D5D
330
1F
100
AcDbEntity
  8
ceco.net 90
100
AcDbLine
 10
157.8736438752887
 20
1180.500819391426
 30
0.0
 11
164.7585495844615
 21
1192.87876629222
 31
0.0
  0
LINE
  5
D5E
330
1F
100
AcDbEntity
  8
ceco.net 90
100
AcDbLine
 10
146.857940053449
 20
1246.516569962158
 30
0.0
 11
173.0203637792029
 21
1271.272463763802
 31
0.0
  0
LINE
  5
D5F
330
1F
100
AcDbEntity
  8
ceco.net 90
100
AcDbLine
 10
180.1020952539791
 20
921.6693175270931
 30
0.0
 11
214.7176370656111
 21
885.6544336347658
 31
0.0
  0
LINE
  5
D60
330
1F
100
AcDbEntity
  8
ceco.net 90
100
AcDbLine
 10
214.7176370656111
 20
885.6544336347658
 30
0.0
 11
243.5639824555942
 21
840.9959722055692
 31
0.0
  0
LINE
  5
D61
330
1F
100
AcDbEntity
  8
ceco.net 90
100
AcDbLine
 10
243.5639824555942
 20
840.9959722055692
 30
0.0
 11
273.8525542949744
 21
768.9661706549659
 31
0.0
  0
LINE
  5
D62
330
1F
100
AcDbEntity
  8
ceco.net 90
100
AcDbLine
 10
255.102447955589
 20
760.3226268837172
 30
0.0
 11
229.1407734327722
 21
832.3523946687538
 31
0.0
  0
LINE
  5
D63
330
1F
100
AcDbEntity
  8
ceco.net 90
100
AcDbLine
 10
229.1407734327722
 20
832.3523946687538
 30
0.0
 11
193.0829325153737
 21
885.6544336347658
 31
0.0
  0
LINE
  5
D64
330
1F
100
AcDbEntity
  8
ceco.net 90
100
AcDbLine
 10
171.4989420237812
 20
925.3197119499684
 30
0.0
 11
191.6237045052026
 21
967.4355931327154
 31
0.0
  0
LINE
  5
D65
330
1F
100
AcDbEntity
  8
ceco.net 90
100
AcDbLine
 10
191.6237045052026
 20
967.4355931327154
 30
0.0
 11
204.0818527451659
 21
980.8361299429355
 31
0.0
  0
LINE
  5
D66
330
1F
100
AcDbEntity
  8
ceco.net 90
100
AcDbLine
 10
204.0818527451659
 20
980.8361299429355
 30
0.0
 11
222.2900161584874
 21
995.1938190121733
 31
0.0
  0
LINE
  5
D67
330
1F
100
AcDbEntity
  8
ceco.net 90
100
AcDbLine
 10
222.2900161584874
 20
995.1938190121733
 30
0.0
 11
247.2063852947299
 21
1006.67995000807
 31
0.0
  0
LINE
  5
D68
330
1F
100
AcDbEntity
  8
ceco.net 90
100
AcDbLine
 10
247.2063852947299
 20
1006.67995000807
 30
0.0
 11
309.4973444631652
 21
1010.508694105584
 31
0.0
  0
LINE
  5
D69
330
1F
100
AcDbEntity
  8
ceco.net 90
100
AcDbLine
 10
281.2866685544966
 20
758.3908318072952
 30
0.0
 11
543.7668690266463
 21
764.848157026145
 31
0.0
  0
LINE
  5
D6A
330
1F
100
AcDbEntity
  8
ceco.net 90
100
AcDbLine
 10
277.4076243280723
 20
763.5566919825497
 30
0.0
 11
537.3018437532644
 21
767.4310871137454
 31
0.0
  0
LINE
  5
D6B
330
1F
100
AcDbEntity
  8
ceco.net 90
100
AcDbLine
 10
175.3322128163522
 20
926.2768642086303
 30
0.0
 11
463.7871659350578
 21
935.8486569213647
 31
0.0
  0
LINE
  5
D6C
330
1F
100
AcDbEntity
  8
ceco.net 90
100
AcDbLine
 10
309.4973444631652
 20
1010.508694105584
 30
0.0
 11
560.5777075497046
 21
1011.465880129785
 31
0.0
  0
LINE
  5
D6D
330
1F
100
AcDbEntity
  8
ceco.net 90
100
AcDbLine
 10
461.2838676944428
 20
552.3621789067757
 30
0.0
 11
420.6935849457902
 21
557.8906136382187
 31
0.0
  0
LINE
  5
D6E
330
1F
100
AcDbEntity
  8
ceco.net 90
100
AcDbLine
 10
420.6935849457902
 20
557.8906136382187
 30
0.0
 11
402.2434035826888
 21
562.4976538364268
 31
0.0
  0
LINE
  5
D6F
330
1F
100
AcDbEntity
  8
ceco.net 90
100
AcDbLine
 10
402.2434035826888
 20
562.4976538364268
 30
0.0
 11
387.4833602111197
 21
571.7117342331704
 31
0.0
  0
LINE
  5
D70
330
1F
100
AcDbEntity
  8
ceco.net 90
100
AcDbLine
 10
387.4833602111197
 20
571.7117342331704
 30
0.0
 11
371.8007278496508
 21
585.5328210621466
 31
0.0
  0
LINE
  5
D71
330
1F
100
AcDbEntity
  8
ceco.net 90
100
AcDbLine
 10
365.3431861695541
 20
715.4511385520822
 30
0.0
 11
393.018385557686
 21
719.1367504514349
 31
0.0
  0
LINE
  5
D72
330
1F
100
AcDbEntity
  8
ceco.net 90
100
AcDbLine
 10
393.018385557686
 20
719.1367504514349
 30
0.0
 11
488.9589944262044
 21
725.5866134820609
 31
0.0
  0
LINE
  5
D73
330
1F
100
AcDbEntity
  8
ceco.net 90
100
AcDbLine
 10
480.6564927347053
 20
528.4056171477662
 30
0.0
 11
408.7010179191282
 21
535.7768747116547
 31
0.0
  0
LINE
  5
D74
330
1F
100
AcDbEntity
  8
ceco.net 90
100
AcDbLine
 10
408.7010179191282
 20
535.7768747116547
 30
0.0
 11
387.4833602111197
 21
544.0695268092154
 31
0.0
  0
LINE
  5
D75
330
1F
100
AcDbEntity
  8
ceco.net 90
100
AcDbLine
 10
387.4833602111197
 20
544.0695268092154
 30
0.0
 11
369.0331788483742
 21
556.9692191049561
 31
0.0
  0
LINE
  5
D76
330
1F
100
AcDbEntity
  8
ceco.net 90
100
AcDbLine
 10
369.9556951819055
 20
732.0364427471757
 30
0.0
 11
435.4536283173859
 21
735.722088412067
 31
0.0
  0
LINE
  5
D77
330
1F
100
AcDbEntity
  8
ceco.net 90
100
AcDbLine
 10
435.4536283173859
 20
735.722088412067
 30
0.0
 11
560.9145418981241
 21
736.6434829453567
 31
0.0
  0
LINE
  5
D78
330
1F
100
AcDbEntity
  8
ceco.net 90
100
AcDbLine
 10
464.2381432434746
 20
744.476045556273
 30
0.0
 11
433.9494987480801
 21
743.0354718104691
 31
0.0
  0
LINE
  5
D79
330
1F
100
AcDbEntity
  8
ceco.net 90
100
AcDbLine
 10
433.9494987480801
 20
743.0354718104691
 30
0.0
 11
370.4876842028077
 21
738.7136830418978
 31
0.0
  0
LINE
  5
D7A
330
1F
100
AcDbEntity
  8
ceco.net 90
100
AcDbLine
 10
376.2569532807994
 20
541.3521085061402
 30
0.0
 11
403.6609269090275
 21
531.2679234583373
 31
0.0
  0
LINE
  5
D7B
330
1F
100
AcDbEntity
  8
ceco.net 90
100
AcDbLine
 10
403.6609269090275
 20
531.2679234583373
 30
0.0
 11
448.3727077712289
 21
526.9461346897657
 31
0.0
  0
LINE
  5
D7C
330
1F
100
AcDbEntity
  8
ceco.net 90
100
AcDbLine
 10
448.3727077712289
 20
526.9461346897657
 30
0.0
 11
494.5267150825272
 21
521.1837721757182
 31
0.0
  0
LINE
  5
D7D
330
1F
100
AcDbEntity
  8
ceco.net 90
100
AcDbLine
 10
520.4883896053167
 20
477.9658844923524
 30
0.0
 11
516.16149228908
 21
475.0847032351237
 31
0.0
  0
LINE
  5
D7E
330
1F
100
AcDbEntity
  8
ceco.net 90
100
AcDbLine
 10
507.5075523439219
 20
496.6936470769981
 30
0.0
 11
500.2959841605189
 21
490.9312507974114
 31
0.0
  0
LINE
  5
D7F
330
1F
100
AcDbEntity
  8
ceco.net 90
100
AcDbLine
 10
500.2959841605189
 20
490.9312507974114
 30
0.0
 11
495.9690868442822
 21
485.1688882833638
 31
0.0
  0
LINE
  5
D80
330
1F
100
AcDbEntity
  8
ceco.net 90
100
AcDbLine
 10
495.9690868442822
 20
485.1688882833638
 30
0.0
 11
494.5267150825272
 21
476.5253107465484
 31
0.0
  0
LINE
  5
D81
330
1F
100
AcDbEntity
  8
ceco.net 90
100
AcDbLine
 10
361.6531934907606
 20
603.9609480893304
 30
0.0
 11
350.5830701416156
 21
635.2887674122829
 31
0.0
  0
LINE
  5
D82
330
1F
100
AcDbEntity
  8
ceco.net 90
100
AcDbLine
 10
350.5830701416156
 20
635.2887674122829
 30
0.0
 11
345.048044795077
 21
663.8523693694458
 31
0.0
  0
LINE
  5
D83
330
1F
100
AcDbEntity
  8
ceco.net 90
100
AcDbLine
 10
345.048044795077
 20
663.8523693694458
 30
0.0
 11
345.9705611289367
 21
687.8089311285095
 31
0.0
  0
LINE
  5
D84
330
1F
100
AcDbEntity
  8
ceco.net 90
100
AcDbLine
 10
345.9705611289367
 20
687.8089311285095
 30
0.0
 11
348.7381101302123
 21
699.7872288905789
 31
0.0
  0
LINE
  5
D85
330
1F
100
AcDbEntity
  8
ceco.net 90
100
AcDbLine
 10
352.4281028090333
 20
575.3973461321404
 30
0.0
 11
337.6679867810948
 21
607.6465599887101
 31
0.0
  0
LINE
  5
D86
330
1F
100
AcDbEntity
  8
ceco.net 90
100
AcDbLine
 10
337.6679867810948
 20
607.6465599887101
 30
0.0
 11
326.5979360883183
 21
644.5028478086444
 31
0.0
  0
LINE
  5
D87
330
1F
100
AcDbEntity
  8
ceco.net 90
100
AcDbLine
 10
326.5979360883183
 20
644.5028478086444
 30
0.0
 11
323.8303870870427
 21
673.9878442994791
 31
0.0
  0
LINE
  5
D88
330
1F
100
AcDbEntity
  8
ceco.net 90
100
AcDbLine
 10
323.8303870870427
 20
673.9878442994791
 30
0.0
 11
324.7529034209282
 21
694.2587941591088
 31
0.0
  0
LINE
  5
D89
330
1F
100
AcDbEntity
  8
ceco.net 90
100
AcDbLine
 10
324.7529034209282
 20
694.2587941591088
 30
0.0
 11
333.9779941022746
 21
713.6083157199643
 31
0.0
  0
LINE
  5
D8A
330
1F
100
AcDbEntity
  8
ceco.net 90
100
AcDbLine
 10
333.9779941022746
 20
713.6083157199643
 30
0.0
 11
348.7381101302123
 21
726.5080080153234
 31
0.0
  0
LINE
  5
D8B
330
1F
100
AcDbEntity
  8
ceco.net 90
100
AcDbLine
 10
338.756740602001
 20
728.6294979940404
 30
0.0
 11
328.6605015514308
 21
718.5453467117762
 31
0.0
  0
LINE
  5
D8C
330
1F
100
AcDbEntity
  8
ceco.net 90
100
AcDbLine
 10
328.6605015514308
 20
718.5453467117762
 30
0.0
 11
322.8913051297819
 21
705.5799804067172
 31
0.0
  0
LINE
  5
D8D
330
1F
100
AcDbEntity
  8
ceco.net 90
100
AcDbLine
 10
322.8913051297819
 20
705.5799804067172
 30
0.0
 11
318.5643351572033
 21
688.2928253331145
 31
0.0
  0
LINE
  5
D8E
330
1F
100
AcDbEntity
  8
ceco.net 90
100
AcDbLine
 10
318.5643351572033
 20
688.2928253331145
 30
0.0
 11
321.4489333680278
 21
656.5997302089763
 31
0.0
  0
LINE
  5
D8F
330
1F
100
AcDbEntity
  8
ceco.net 90
100
AcDbLine
 10
321.4489333680278
 20
656.5997302089763
 30
0.0
 11
331.5451724185972
 21
607.6194800116176
 31
0.0
  0
LINE
  5
D90
330
1F
100
AcDbEntity
  8
ceco.net 90
100
AcDbLine
 10
331.5451724185972
 20
607.6194800116176
 30
0.0
 11
350.2952787580101
 21
567.2828073506916
 31
0.0
  0
LINE
  5
D91
330
1F
100
AcDbEntity
  8
ceco.net 90
100
AcDbLine
 10
302.6988996849567
 20
658.0403377203464
 30
0.0
 11
331.5451724185972
 21
501.0154358452143
 31
0.0
  0
LINE
  5
D92
330
1F
100
AcDbEntity
  8
ceco.net 90
100
AcDbLine
 10
304.1411987903689
 20
542.7926822519712
 30
0.0
 11
282.506494239804
 21
655.1591564631995
 31
0.0
  0
LINE
  5
D93
330
1F
100
AcDbEntity
  8
ceco.net 90
100
AcDbLine
 10
371.8007278496508
 20
585.5328210621466
 30
0.0
 11
361.6531934907606
 21
603.9609480893304
 31
0.0
  0
LINE
  5
D94
330
1F
100
AcDbEntity
  8
ceco.net 90
100
AcDbLine
 10
348.7381101302123
 20
699.7872288905789
 30
0.0
 11
365.3431861695541
 21
715.4511385520822
 31
0.0
  0
LINE
  5
D95
330
1F
100
AcDbEntity
  8
ceco.net 90
100
AcDbLine
 10
369.0331788483742
 20
556.9692191049561
 30
0.0
 11
352.4281028090333
 21
575.3973461321404
 31
0.0
  0
LINE
  5
D96
330
1F
100
AcDbEntity
  8
ceco.net 90
100
AcDbLine
 10
348.7381101302123
 20
726.5080080153234
 30
0.0
 11
369.9556951819055
 21
732.0364427471757
 31
0.0
  0
LINE
  5
D97
330
1F
100
AcDbEntity
  8
ceco.net 90
100
AcDbLine
 10
370.4876842028077
 20
738.7136830418978
 30
0.0
 11
338.756740602001
 21
728.6294979940404
 31
0.0
  0
LINE
  5
D98
330
1F
100
AcDbEntity
  8
ceco.net 90
100
AcDbLine
 10
350.2952787580101
 20
567.2828073506916
 30
0.0
 11
376.2569532807994
 21
541.3521085061402
 31
0.0
  0
LINE
  5
D99
330
1F
100
AcDbEntity
  8
ceco.net 90
100
AcDbLine
 10
273.8525542949744
 20
768.9661706549659
 30
0.0
 11
302.6988996849567
 21
658.0403377203464
 31
0.0
  0
LINE
  5
D9A
330
1F
100
AcDbEntity
  8
ceco.net 90
100
AcDbLine
 10
282.506494239804
 20
655.1591564631995
 30
0.0
 11
255.102447955589
 21
760.3226268837172
 31
0.0
  0
LINE
  5
D9B
330
1F
100
AcDbEntity
  8
ceco.net 90
100
AcDbLine
 10
278.1795242675805
 20
757.441411861332
 30
0.0
 11
219.0446070381897
 21
754.5602306041034
 31
0.0
  0
LINE
  5
D9C
330
1F
100
AcDbEntity
  8
ceco.net 90
100
AcDbLine
 10
13.12881852843002
 20
913.1676903943043
 30
0.0
 11
30.56493668991288
 21
916.6507427139622
 31
0.0
  0
LINE
  5
D9D
330
1F
100
AcDbEntity
  8
ceco.net 90
100
AcDbLine
 10
30.56493668991288
 20
916.6507427139622
 30
0.0
 11
154.9424003558668
 21
925.9389385090125
 31
0.0
  0
LINE
  5
D9E
330
1F
100
AcDbEntity
  8
ceco.net 90
100
AcDbLine
 10
3.829545821811628
 20
928.2609621336142
 30
0.0
 11
18.94080947803804
 21
944.5152625683359
 31
0.0
  0
LINE
  5
D9F
330
1F
100
AcDbEntity
  8
ceco.net 90
100
AcDbLine
 10
18.94080947803804
 20
944.5152625683359
 30
0.0
 11
23.59044583149809
 21
947.9983148879936
 31
0.0
  0
LINE
  5
DA0
330
1F
100
AcDbEntity
  8
ceco.net 90
100
AcDbLine
 10
23.59044583149809
 20
947.9983148879936
 30
0.0
 11
34.05214579093557
 21
939.8711815536209
 31
0.0
  0
LINE
  5
DA1
330
1F
100
AcDbEntity
  8
ceco.net 90
100
AcDbLine
 10
34.05214579093557
 20
939.8711815536209
 30
0.0
 11
37.53935489195826
 21
930.5830195237273
 31
0.0
  0
LINE
  5
DA2
330
1F
100
AcDbEntity
  8
ceco.net 90
100
AcDbLine
 10
37.53935489195826
 20
930.5830195237273
 30
0.0
 11
34.05214579093557
 21
920.1338287991868
 31
0.0
  0
LINE
  5
DA3
330
1F
100
AcDbEntity
  8
ceco.net 90
100
AcDbLine
 10
34.05214579093557
 20
920.1338287991868
 30
0.0
 11
30.56493668991288
 21
916.6507427139622
 31
0.0
  0
LINE
  5
DA4
330
1F
100
AcDbEntity
  8
ceco.net 90
100
AcDbLine
 10
-5.469726885162648
 20
1035.074893005288
 30
0.0
 11
9.64160942737983
 21
1014.176511556124
 31
0.0
  0
LINE
  5
DA5
330
1F
100
AcDbEntity
  8
ceco.net 90
100
AcDbLine
 10
9.64160942737983
 20
1014.176511556124
 30
0.0
 11
16.61602762945271
 21
994.4391588017451
 31
0.0
  0
LINE
  5
DA6
330
1F
100
AcDbEntity
  8
ceco.net 90
100
AcDbLine
 10
16.61602762945271
 20
994.4391588017451
 30
0.0
 11
21.26566398293943
 21
946.8372861929374
 31
0.0
  0
LINE
  5
DA7
330
1F
100
AcDbEntity
  8
ceco.net 90
100
AcDbLine
 10
68.37059621984463
 20
920.5637656429765
 30
0.0
 11
91.77913031811931
 21
1016.836731004846
 31
0.0
  0
LINE
  5
DA8
330
1F
100
AcDbEntity
  8
ceco.net 90
100
AcDbLine
 10
112.3133107361281
 20
748.7978343245167
 30
0.0
 11
69.04382897931147
 21
743.0354718104691
 31
0.0
  0
LINE
  5
DA9
330
1F
100
AcDbEntity
  8
ceco.net 90
100
AcDbLine
 10
69.04382897931147
 20
743.0354718104691
 30
0.0
 11
41.6398553511108
 21
737.2730755308282
 31
0.0
  0
LINE
  5
DAA
330
1F
100
AcDbEntity
  8
ceco.net 90
100
AcDbLine
 10
41.6398553511108
 20
737.2730755308282
 30
0.0
 11
14.23588172288262
 21
728.6294979940404
 31
0.0
  0
LINE
  5
DAB
330
1F
100
AcDbEntity
  8
ceco.net 90
100
AcDbLine
 10
14.23588172288262
 20
728.6294979940404
 30
0.0
 11
-8.841121932766984
 21
714.2235579431775
 31
0.0
  0
LINE
  5
DAC
330
1F
100
AcDbEntity
  8
ceco.net 90
100
AcDbLine
 10
193.0829325153737
 20
885.6544336347658
 30
0.0
 11
154.1404207311631
 21
924.5504987843217
 31
0.0
  0
LINE
  5
DAD
330
1F
100
AcDbEntity
  8
ceco.net 90
100
AcDbLine
 10
154.1404207311631
 20
924.5504987843217
 30
0.0
 11
180.1020952539791
 21
923.109891272924
 31
0.0
  0
LINE
  5
DAE
330
1F
100
AcDbEntity
  8
ceco.net 90
100
AcDbLine
 10
296.9296306069659
 20
577.3669923984946
 30
0.0
 11
-18.93736098333718
 21
575.9263848874794
 31
0.0
  0
LINE
  5
DAF
330
1F
100
AcDbEntity
  8
ceco.net 90
100
AcDbLine
 10
219.0446070381897
 20
754.5602306041034
 30
0.0
 11
112.3133107361281
 21
748.7978343245167
 31
0.0
  0
LINE
  5
DB0
330
1F
100
AcDbEntity
  8
ceco.net 90
100
AcDbLine
 10
514.7191931836677
 20
470.7629144669346
 30
0.0
 11
513.2768214219127
 21
459.2381556732733
 31
0.0
  0
LINE
  5
DB1
330
1F
100
AcDbEntity
  8
ceco.net 90
100
AcDbLine
 10
513.2768214219127
 20
459.2381556732733
 30
0.0
 11
513.2768214219127
 21
378.5648103514213
 31
0.0
  0
LINE
  5
DB2
330
1F
100
AcDbEntity
  8
ceco.net 90
100
AcDbLine
 10
493.0844159771151
 20
467.8817332097061
 30
0.0
 11
493.0844159771151
 21
377.1242028403792
 31
0.0
  0
LINE
  5
DB3
330
1F
100
AcDbEntity
  8
ceco.net 90
100
AcDbLine
 10
493.0844159771151
 20
377.1242028403792
 30
0.0
 11
495.9690868442822
 21
372.8024140718351
 31
0.0
  0
LINE
  5
DB4
330
1F
100
AcDbEntity
  8
ceco.net 90
100
AcDbLine
 10
495.9690868442822
 20
372.8024140718351
 30
0.0
 11
501.738355922273
 21
372.8024140718351
 31
0.0
  0
LINE
  5
DB5
330
1F
100
AcDbEntity
  8
ceco.net 90
100
AcDbLine
 10
501.738355922273
 20
372.8024140718351
 30
0.0
 11
510.3922232110892
 21
369.921232814934
 31
0.0
  0
LINE
  5
DB6
330
1F
100
AcDbEntity
  8
ceco.net 90
100
AcDbLine
 10
380.7727568323363
 20
368.9171464310467
 30
0.0
 11
380.7727568323363
 21
350.0364258710087
 31
0.0
  0
LINE
  5
DB7
330
1F
100
AcDbEntity
  8
ceco.net 90
100
AcDbLine
 10
380.7727568323363
 20
350.0364258710087
 30
0.0
 11
384.5534245037884
 21
328.1348021765674
 31
0.0
  0
LINE
  5
DB8
330
1F
100
AcDbEntity
  8
ceco.net 90
100
AcDbLine
 10
384.5534245037884
 20
328.1348021765674
 30
0.0
 11
390.6024927787406
 21
313.785453200412
 31
0.0
  0
LINE
  5
DB9
330
1F
100
AcDbEntity
  8
ceco.net 90
100
AcDbLine
 10
390.6024927787406
 20
313.785453200412
 30
0.0
 11
399.6760225346752
 21
297.9256695396609
 31
0.0
  0
LINE
  5
DBA
330
1F
100
AcDbEntity
  8
ceco.net 90
100
AcDbLine
 10
399.6760225346752
 20
297.9256695396609
 30
0.0
 11
409.5056858247358
 21
286.5972574627371
 31
0.0
  0
LINE
  5
DBB
330
1F
100
AcDbEntity
  8
ceco.net 90
100
AcDbLine
 10
409.5056858247358
 20
286.5972574627371
 30
0.0
 11
417.0670211683235
 21
282.0658858788819
 31
0.0
  0
LINE
  5
DBC
330
1F
100
AcDbEntity
  8
ceco.net 90
100
AcDbLine
 10
417.0670211683235
 20
282.0658858788819
 30
0.0
 11
438.238687473834
 21
279.0449489792678
 31
0.0
  0
LINE
  5
DBD
330
1F
100
AcDbEntity
  8
ceco.net 90
100
AcDbLine
 10
366.406292335959
 20
373.4485180149295
 30
0.0
 11
370.1869600077662
 21
341.7289169281882
 31
0.0
  0
LINE
  5
DBE
330
1F
100
AcDbEntity
  8
ceco.net 90
100
AcDbLine
 10
370.1869600077662
 20
341.7289169281882
 30
0.0
 11
378.5044288855349
 21
316.8063900996439
 31
0.0
  0
LINE
  5
DBF
330
1F
100
AcDbEntity
  8
ceco.net 90
100
AcDbLine
 10
378.5044288855349
 20
316.8063900996439
 30
0.0
 11
388.3340921755956
 21
297.1704353147164
 31
0.0
  0
LINE
  5
DC0
330
1F
100
AcDbEntity
  8
ceco.net 90
100
AcDbLine
 10
388.3340921755956
 20
297.1704353147164
 30
0.0
 11
396.6514883973491
 21
287.3524579220883
 31
0.0
  0
LINE
  5
DC1
330
1F
100
AcDbEntity
  8
ceco.net 90
100
AcDbLine
 10
396.6514883973491
 20
287.3524579220883
 30
0.0
 11
405.7250908092714
 21
277.5345142953546
 31
0.0
  0
LINE
  5
DC2
330
1F
100
AcDbEntity
  8
ceco.net 90
100
AcDbLine
 10
405.7250908092714
 20
277.5345142953546
 30
0.0
 11
420.8476888401307
 21
273.7583431708501
 31
0.0
  0
LINE
  5
DC3
330
1F
100
AcDbEntity
  8
ceco.net 90
100
AcDbLine
 10
373.2114941450648
 20
295.6600006304751
 30
0.0
 11
384.5534245037884
 21
283.5763205631231
 31
0.0
  0
LINE
  5
DC4
330
1F
100
AcDbEntity
  8
ceco.net 90
100
AcDbLine
 10
384.5534245037884
 20
283.5763205631231
 30
0.0
 11
395.895354862868
 21
272.2479084865547
 31
0.0
  0
LINE
  5
DC5
330
1F
100
AcDbEntity
  8
ceco.net 90
100
AcDbLine
 10
395.895354862868
 20
272.2479084865547
 30
0.0
 11
405.7250908092714
 21
266.9613026778095
 31
0.0
  0
LINE
  5
DC6
330
1F
100
AcDbEntity
  8
ceco.net 90
100
AcDbLine
 10
405.7250908092714
 20
266.9613026778095
 30
0.0
 11
419.3354217711401
 21
263.9403995437338
 31
0.0
  0
LINE
  5
DC7
330
1F
100
AcDbEntity
  8
ceco.net 90
100
AcDbLine
 10
380.0166232978277
 20
265.450834227975
 30
0.0
 11
386.8218251069334
 21
260.1642621847685
 31
0.0
  0
LINE
  5
DC8
330
1F
100
AcDbEntity
  8
ceco.net 90
100
AcDbLine
 10
386.8218251069334
 20
260.1642621847685
 30
0.0
 11
403.4566902064823
 21
253.3671879261887
 31
0.0
  0
LINE
  5
DC9
330
1F
100
AcDbEntity
  8
ceco.net 90
100
AcDbLine
 10
350.2952787580101
 20
384.3272066310081
 30
0.0
 11
324.3336042351941
 21
381.4459916086229
 31
0.0
  0
LINE
  5
DCA
330
1F
100
AcDbEntity
  8
ceco.net 90
100
AcDbLine
 10
324.3336042351941
 20
381.4459916086229
 30
0.0
 11
318.5643351572033
 21
447.7133968796119
 31
0.0
  0
LINE
  5
DCB
330
1F
100
AcDbEntity
  8
ceco.net 90
100
AcDbLine
 10
328.6605015514308
 20
374.2430215832052
 30
0.0
 11
172.8905270705761
 21
372.8024140718351
 31
0.0
  0
LINE
  5
DCC
330
1F
100
AcDbEntity
  8
ceco.net 90
100
AcDbLine
 10
354.3082284427534
 20
373.4485180149295
 30
0.0
 11
361.8695637860127
 21
329.6452706263748
 31
0.0
  0
LINE
  5
DCD
330
1F
100
AcDbEntity
  8
ceco.net 90
100
AcDbLine
 10
344.4785651523368
 20
373.4485180149295
 30
0.0
 11
355.0643619769069
 21
312.2750185161713
 31
0.0
  0
LINE
  5
DCE
330
1F
100
AcDbEntity
  8
ceco.net 90
100
AcDbLine
 10
355.0643619769069
 20
312.2750185161713
 30
0.0
 11
363.3818308546482
 21
288.1076921469783
 31
0.0
  0
LINE
  5
DCF
330
1F
100
AcDbEntity
  8
ceco.net 90
100
AcDbLine
 10
279.0185585763666
 20
296.5501282575256
 30
0.0
 11
295.4240479125298
 21
298.7845640260109
 31
0.0
  0
LINE
  5
DD0
330
1F
100
AcDbEntity
  8
ceco.net 90
100
AcDbLine
 10
295.4240479125298
 20
298.7845640260109
 30
0.0
 11
302.1353778540563
 21
303.2534693285203
 31
0.0
  0
LINE
  5
DD1
330
1F
100
AcDbEntity
  8
ceco.net 90
100
AcDbLine
 10
302.1353778540563
 20
303.2534693285203
 30
0.0
 11
307.3552930690131
 21
309.9568103991875
 31
0.0
  0
LINE
  5
DD2
330
1F
100
AcDbEntity
  8
ceco.net 90
100
AcDbLine
 10
307.3552930690131
 20
309.9568103991875
 30
0.0
 11
308.8467077955828
 21
314.4256819361578
 31
0.0
  0
LINE
  5
DD3
330
1F
100
AcDbEntity
  8
ceco.net 90
100
AcDbLine
 10
308.8467077955828
 20
314.4256819361578
 30
0.0
 11
310.3381225221242
 21
373.2660827074883
 31
0.0
  0
LINE
  5
DD4
330
1F
100
AcDbEntity
  8
ceco.net 90
100
AcDbLine
 10
299.8982194362229
 20
373.2660827074883
 30
0.0
 11
301.3896341627918
 21
318.8945872386947
 31
0.0
  0
LINE
  5
DD5
330
1F
100
AcDbEntity
  8
ceco.net 90
100
AcDbLine
 10
301.3896341627918
 20
318.8945872386947
 30
0.0
 11
299.1525484009453
 21
312.1912461676999
 31
0.0
  0
LINE
  5
DD6
330
1F
100
AcDbEntity
  8
ceco.net 90
100
AcDbLine
 10
299.1525484009453
 20
312.1912461676999
 30
0.0
 11
295.4240479125298
 21
306.2327395302299
 31
0.0
  0
LINE
  5
DD7
330
1F
100
AcDbEntity
  8
ceco.net 90
100
AcDbLine
 10
295.4240479125298
 20
306.2327395302299
 30
0.0
 11
289.4583890063086
 21
303.9982699961784
 31
0.0
  0
LINE
  5
DD8
330
1F
100
AcDbEntity
  8
ceco.net 90
100
AcDbLine
 10
331.9635270732441
 20
372.5212820398573
 30
0.0
 11
332.7091981081668
 21
320.3842223395765
 31
0.0
  0
LINE
  5
DD9
330
1F
100
AcDbEntity
  8
ceco.net 90
100
AcDbLine
 10
332.7091981081668
 20
320.3842223395765
 30
0.0
 11
331.2178560379674
 21
303.2534693285203
 31
0.0
  0
LINE
  5
DDA
330
1F
100
AcDbEntity
  8
ceco.net 90
100
AcDbLine
 10
331.2178560379674
 20
303.2534693285203
 30
0.0
 11
327.4892828935642
 21
292.0812567209375
 31
0.0
  0
LINE
  5
DDB
330
1F
100
AcDbEntity
  8
ceco.net 90
100
AcDbLine
 10
327.4892828935642
 20
292.0812567209375
 30
0.0
 11
322.2693676786075
 21
283.1434798814299
 31
0.0
  0
LINE
  5
DDC
330
1F
100
AcDbEntity
  8
ceco.net 90
100
AcDbLine
 10
322.2693676786075
 20
283.1434798814299
 30
0.0
 11
307.3552930690131
 21
277.9297739115904
 31
0.0
  0
LINE
  5
DDD
330
1F
100
AcDbEntity
  8
ceco.net 90
100
AcDbLine
 10
351.7375778634223
 20
384.3272066310081
 30
0.0
 11
487.3151468991243
 21
384.3272066310081
 31
0.0
  0
LINE
  5
DDE
330
1F
100
AcDbEntity
  8
ceco.net 90
100
AcDbLine
 10
494.5267150825272
 20
372.8024140718351
 30
0.0
 11
328.6605015514308
 21
374.2430215832052
 31
0.0
  0
LINE
  5
DDF
330
1F
100
AcDbEntity
  8
ceco.net 90
100
AcDbLine
 10
361.8695637860127
 20
329.6452706263748
 30
0.0
 11
373.2114941450648
 21
295.6600006304751
 31
0.0
  0
LINE
  5
DE0
330
1F
100
AcDbEntity
  8
ceco.net 90
100
AcDbLine
 10
363.3818308546482
 20
288.1076921469783
 30
0.0
 11
380.0166232978277
 21
265.450834227975
 31
0.0
  0
LINE
  5
DE1
330
1F
100
AcDbEntity
  8
ceco.net 90
100
AcDbLine
 10
-13.16809190534555
 20
397.2925391704734
 30
0.0
 11
-8.841121932766984
 21
378.5648103514213
 31
0.0
  0
LINE
  5
DE2
330
1F
100
AcDbEntity
  8
ceco.net 90
100
AcDbLine
 10
-8.841121932766984
 20
378.5648103514213
 30
0.0
 11
-10.2834936945211
 21
375.6836290945753
 31
0.0
  0
LINE
  5
DE3
330
1F
100
AcDbEntity
  8
ceco.net 90
100
AcDbLine
 10
-8.841121932766984
 20
369.921232814934
 30
0.0
 11
-8.841121932766984
 21
377.1242028403792
 31
0.0
  0
LINE
  5
DE4
330
1F
100
AcDbEntity
  8
ceco.net 90
100
AcDbLine
 10
26.22481593722439
 20
369.5420118385303
 30
0.0
 11
27.71623066379409
 21
327.0875634102162
 31
0.0
  0
LINE
  5
DE5
330
1F
100
AcDbEntity
  8
ceco.net 90
100
AcDbLine
 10
27.71623066379409
 20
327.0875634102162
 30
0.0
 11
32.19047484347403
 21
314.4256819361578
 31
0.0
  0
LINE
  5
DE6
330
1F
100
AcDbEntity
  8
ceco.net 90
100
AcDbLine
 10
32.19047484347403
 20
314.4256819361578
 30
0.0
 11
36.66471902312648
 21
309.2119759663729
 31
0.0
  0
LINE
  5
DE7
330
1F
100
AcDbEntity
  8
ceco.net 90
100
AcDbLine
 10
36.66471902312648
 20
309.2119759663729
 30
0.0
 11
44.1217199999573
 21
303.9982699961784
 31
0.0
  0
LINE
  5
DE8
330
1F
100
AcDbEntity
  8
ceco.net 90
100
AcDbLine
 10
44.1217199999573
 20
303.9982699961784
 30
0.0
 11
52.32446466802517
 21
298.7845640260109
 31
0.0
  0
LINE
  5
DE9
330
1F
100
AcDbEntity
  8
ceco.net 90
100
AcDbLine
 10
52.32446466802517
 20
298.7845640260109
 30
0.0
 11
59.0358672655385
 21
295.8053275898951
 31
0.0
  0
LINE
  5
DEA
330
1F
100
AcDbEntity
  8
ceco.net 90
100
AcDbLine
 10
52.32446466802517
 20
304.7431044294022
 30
0.0
 11
44.86746369122182
 21
306.9775401978604
 31
0.0
  0
LINE
  5
DEB
330
1F
100
AcDbEntity
  8
ceco.net 90
100
AcDbLine
 10
44.86746369122182
 20
306.9775401978604
 30
0.0
 11
35.91897533186194
 21
312.9360806008967
 31
0.0
  0
LINE
  5
DEC
330
1F
100
AcDbEntity
  8
ceco.net 90
100
AcDbLine
 10
35.91897533186194
 20
312.9360806008967
 30
0.0
 11
32.93621853473855
 21
321.8738574403768
 31
0.0
  0
LINE
  5
DED
330
1F
100
AcDbEntity
  8
ceco.net 90
100
AcDbLine
 10
32.93621853473855
 20
321.8738574403768
 30
0.0
 11
31.44480380816969
 21
327.8323640778742
 31
0.0
  0
LINE
  5
DEE
330
1F
100
AcDbEntity
  8
ceco.net 90
100
AcDbLine
 10
31.44480380816969
 20
327.8323640778742
 30
0.0
 11
29.95338908162749
 21
370.2868462717275
 31
0.0
  0
LINE
  5
DEF
330
1F
100
AcDbEntity
  8
ceco.net 90
100
AcDbLine
 10
33.68188957001541
 20
279.4193752464964
 30
0.0
 11
21.75064441353213
 21
284.6330812167185
 31
0.0
  0
LINE
  5
DF0
330
1F
100
AcDbEntity
  8
ceco.net 90
100
AcDbLine
 10
21.75064441353213
 20
284.6330812167185
 30
0.0
 11
15.03931447200647
 21
293.5708918217648
 31
0.0
  0
LINE
  5
DF1
330
1F
100
AcDbEntity
  8
ceco.net 90
100
AcDbLine
 10
15.03931447200647
 20
293.5708918217648
 30
0.0
 11
9.073655565784335
 21
303.2534693285203
 31
0.0
  0
LINE
  5
DF2
330
1F
100
AcDbEntity
  8
ceco.net 90
100
AcDbLine
 10
9.073655565784335
 20
303.2534693285203
 30
0.0
 11
6.836569804292839
 21
320.3842223395765
 31
0.0
  0
LINE
  5
DF3
330
1F
100
AcDbEntity
  8
ceco.net 90
100
AcDbLine
 10
6.836569804292839
 20
320.3842223395765
 30
0.0
 11
3.853740350827552
 21
338.2597760182092
 31
0.0
  0
LINE
  5
DF4
330
1F
100
AcDbEntity
  8
ceco.net 90
100
AcDbLine
 10
3.853740350827552
 20
338.2597760182092
 30
0.0
 11
3.853740350827552
 21
370.2868462717275
 31
0.0
  0
LINE
  5
DF5
330
1F
100
AcDbEntity
  8
ceco.net 90
100
AcDbLine
 10
-11.4429420410661
 20
259.6078733278618
 30
0.0
 11
-2.998106766875594
 21
244.425291688995
 31
0.0
  0
LINE
  5
DF6
330
1F
100
AcDbEntity
  8
ceco.net 90
100
AcDbLine
 10
-2.998106766875594
 20
244.425291688995
 30
0.0
 11
3.757761452401139
 21
225.8687542463718
 31
0.0
  0
LINE
  5
DF7
330
1F
100
AcDbEntity
  8
ceco.net 90
100
AcDbLine
 10
3.757761452401139
 20
225.8687542463718
 30
0.0
 11
18.95853760185524
 21
208.9991778228708
 31
0.0
  0
LINE
  5
DF8
330
1F
100
AcDbEntity
  8
ceco.net 90
100
AcDbLine
 10
18.95853760185524
 20
208.9991778228708
 30
0.0
 11
35.84820814988121
 21
200.5644064938627
 31
0.0
  0
LINE
  5
DF9
330
1F
100
AcDbEntity
  8
ceco.net 90
100
AcDbLine
 10
35.84820814988121
 20
200.5644064938627
 30
0.0
 11
123.6746403121441
 21
195.5035572023893
 31
0.0
  0
LINE
  5
DFA
330
1F
100
AcDbEntity
  8
ceco.net 90
100
AcDbLine
 10
83.96629423797362
 20
197.7916833410582
 30
0.0
 11
-2.998106766875594
 21
198.8774454747406
 31
0.0
  0
LINE
  5
DFB
330
1F
100
AcDbEntity
  8
ceco.net 90
100
AcDbLine
 10
113.5692465747869
 20
48.04500000001096
 30
0.0
 11
113.5692465747869
 21
196.0858633883059
 31
0.0
  0
ARC
  5
DFC
330
1F
100
AcDbEntity
  8
ceco.net 90
100
AcDbCircle
 10
65.52424657477637
 20
48.04500000001096
 30
0.0
 40
48.045
100
AcDbArc
 50
270.0000000000114
 51
0.0
  0
LINE
  5
DFD
330
1F
100
AcDbEntity
  8
ceco.net 90
100
AcDbLine
 10
-8.841121932766984
 20
378.5648103514213
 30
0.0
 11
322.8913051297819
 21
382.8865991200205
 31
0.0
  0
LINE
  5
DFE
330
1F
100
AcDbEntity
  8
ceco.net 90
100
AcDbLine
 10
172.8905270705761
 20
372.8024140718351
 30
0.0
 11
-8.841121932766984
 21
369.921232814934
 31
0.0
  0
LINE
  5
DFF
330
1F
100
AcDbEntity
  8
ceco.net 90
100
AcDbLine
 10
59.0358672655385
 20
295.8053275898951
 30
0.0
 11
279.0185585763666
 21
296.5501282575256
 31
0.0
  0
LINE
  5
E00
330
1F
100
AcDbEntity
  8
ceco.net 90
100
AcDbLine
 10
289.4583890063086
 20
303.9982699961784
 30
0.0
 11
52.32446466802517
 21
304.7431044294022
 31
0.0
  0
LINE
  5
E01
330
1F
100
AcDbEntity
  8
ceco.net 90
100
AcDbLine
 10
307.3552930690131
 20
277.9297739115904
 30
0.0
 11
33.68188957001541
 21
279.4193752464964
 31
0.0
  0
LINE
  5
E02
330
1F
100
AcDbEntity
  8
ceco.net 90
100
AcDbLine
 10
516.16149228908
 20
475.0847032351237
 30
0.0
 11
514.7191931836677
 21
470.7629144669346
 31
0.0
  0
LINE
  5
E03
330
1F
100
AcDbEntity
  8
ceco.net 90
100
AcDbLine
 10
494.5267150825272
 20
476.5253107465484
 30
0.0
 11
493.0844159771151
 21
467.8817332097061
 31
0.0
  0
LINE
  5
E04
330
1F
100
AcDbEntity
  8
ceco.net 90
100
AcDbLine
 10
331.5451724185972
 20
501.0154358452143
 30
0.0
 11
350.2952787580101
 21
384.3272066310081
 31
0.0
  0
LINE
  5
E05
330
1F
100
AcDbEntity
  8
ceco.net 90
100
AcDbLine
 10
318.5643351572033
 20
447.7133968796119
 30
0.0
 11
304.1411987903689
 21
542.7926822519712
 31
0.0
  0
LINE
  5
E06
330
1F
100
AcDbEntity
  8
ceco.net 90
100
AcDbLine
 10
-21.82195919416162
 20
575.9263848874794
 30
0.0
 11
-13.16809190534555
 21
397.2925391704734
 31
0.0
  0
LINE
  5
E07
330
1F
100
AcDbEntity
  8
ceco.net 90
100
AcDbLine
 10
-21.74341779420814
 20
1044.363055035154
 30
0.0
 11
-5.469726885162648
 21
1035.074893005288
 31
0.0
  0
LINE
  5
E08
330
1F
100
AcDbEntity
  8
ceco.net 90
100
AcDbLine
 10
547.1612234475196
 20
1009.551508081028
 30
0.0
 11
546.2028875852978
 21
1076.554090835786
 31
0.0
  0
LINE
  5
E09
330
1F
100
AcDbEntity
  8
ceco.net 90
100
AcDbLine
 10
305.6640010142239
 20
1041.138444292433
 30
0.0
 11
307.580672738695
 21
1009.551508081028
 31
0.0
  0
LINE
  5
E0A
330
1F
100
AcDbEntity
  8
ceco.net 90
100
AcDbLine
 10
91.77913031811931
 20
1016.836731004846
 30
0.0
 11
157.8736438752887
 21
1180.500819391426
 31
0.0
  0
LINE
  5
E0B
330
1F
100
AcDbEntity
  8
ceco.net 90
100
AcDbLine
 10
38.07730172472764
 20
939.8183722217027
 30
0.0
 11
112.4336294766109
 21
1162.621551501464
 31
0.0
  0
LINE
  5
E0C
330
1F
100
AcDbEntity
  8
ceco.net 90
100
AcDbLine
 10
24.30756296272405
 20
949.4456417453495
 30
0.0
 11
76.63241041458686
 21
1096.605767165138
 31
0.0
  0
LINE
  5
E0D
330
1F
100
AcDbEntity
  8
ceco.net 90
100
AcDbLine
 10
767.5559483198248
 20
552.3621789067757
 30
0.0
 11
461.2838676944428
 21
552.3621789067757
 31
0.0
  0
LINE
  5
E0E
330
1F
100
AcDbEntity
  8
ceco.net 90
100
AcDbLine
 10
488.9589944262044
 20
725.5866134820609
 30
0.0
 11
661.467659779349
 21
726.5080080153234
 31
0.0
  0
LINE
  5
E0F
330
1F
100
AcDbEntity
  8
ceco.net 90
100
AcDbLine
 10
766.6334319859384
 20
529.3270116813833
 30
0.0
 11
480.6564927347053
 21
528.4056171477662
 31
0.0
  0
LINE
  5
E10
330
1F
100
AcDbEntity
  8
ceco.net 90
100
AcDbLine
 10
560.9145418981241
 20
736.6434829453567
 30
0.0
 11
766.6334319859384
 21
736.6434829453567
 31
0.0
  0
LINE
  5
E11
330
1F
100
AcDbEntity
  8
ceco.net 90
100
AcDbLine
 10
765.681925810629
 20
744.476045556273
 30
0.0
 11
464.2381432434746
 21
744.476045556273
 31
0.0
  0
LINE
  5
E12
330
1F
100
AcDbEntity
  8
ceco.net 90
100
AcDbLine
 10
494.5267150825272
 20
521.1837721757182
 30
0.0
 11
765.681925810629
 21
524.0649534329196
 31
0.0
  0
LINE
  5
E13
330
1F
100
AcDbEntity
  8
ceco.net 90
100
AcDbLine
 10
765.681925810629
 20
476.5253107465484
 30
0.0
 11
520.4883896053167
 21
477.9658844923524
 31
0.0
  0
LINE
  5
E14
330
1F
100
AcDbEntity
  8
ceco.net 90
100
AcDbLine
 10
513.2768214219127
 20
378.5648103514213
 30
0.0
 11
767.1242975723831
 21
380.0054178627915
 31
0.0
  0
LINE
  5
E15
330
1F
100
AcDbEntity
  8
ceco.net 90
100
AcDbLine
 10
767.1242975723831
 20
499.5748283342266
 30
0.0
 11
507.5075523439219
 21
496.6936470769981
 31
0.0
  0
LINE
  5
E16
330
1F
100
AcDbEntity
  8
ceco.net 90
100
AcDbLine
 10
510.3922232110892
 20
369.921232814934
 30
0.0
 11
765.681925810629
 21
369.921232814934
 31
0.0
  0
LINE
  5
E17
330
1F
100
AcDbEntity
  8
ceco.net 90
100
AcDbLine
 10
381.5288903664908
 20
368.9171464310467
 30
0.0
 11
767.1551038199667
 21
366.6514437563222
 31
0.0
  0
LINE
  5
E18
330
1F
100
AcDbEntity
  8
ceco.net 90
100
AcDbLine
 10
438.238687473834
 20
279.0449489792678
 30
0.0
 11
766.3990429418275
 21
279.8001832041578
 31
0.0
  0
LINE
  5
E19
330
1F
100
AcDbEntity
  8
ceco.net 90
100
AcDbLine
 10
420.8476888401307
 20
273.7583431708501
 30
0.0
 11
767.1551038199667
 21
271.4926742616648
 31
0.0
  0
LINE
  5
E1A
330
1F
100
AcDbEntity
  8
ceco.net 90
100
AcDbLine
 10
419.3354217711401
 20
263.9403995437338
 30
0.0
 11
765.642909407674
 21
263.1851653188438
 31
0.0
  0
LINE
  5
E1B
330
1F
100
AcDbEntity
  8
ceco.net 90
100
AcDbLine
 10
403.4566902064823
 20
253.3671879261887
 30
0.0
 11
767.1551038199667
 21
249.5910505671963
 31
0.0
  0
LINE
  5
E1C
330
1F
100
AcDbEntity
  8
ceco.net 90
100
AcDbLine
 10
123.6746403121441
 20
195.5035572023893
 30
0.0
 11
765.4832109825231
 21
197.1904844559456
 31
0.0
  0
LINE
  5
E1D
330
1F
100
AcDbEntity
  8
ceco.net 90
100
AcDbLine
 10
543.7668690266463
 20
764.848157026145
 30
0.0
 11
767.4568452024381
 21
770.0140172010176
 31
0.0
  0
LINE
  5
E1E
330
1F
100
AcDbEntity
  8
ceco.net 90
100
AcDbLine
 10
537.3018437532644
 20
767.4310871137454
 30
0.0
 11
766.1638546789601
 21
775.1798773762451
 31
0.0
  0
LINE
  5
E1F
330
1F
100
AcDbEntity
  8
ceco.net 90
100
AcDbLine
 10
463.7871659350578
 20
935.8486569213647
 30
0.0
 11
676.5346757831961
 21
937.7630289700666
 31
0.0
  0
LINE
  5
E20
330
1F
100
AcDbEntity
  8
ceco.net 90
100
AcDbLine
 10
560.5777075497046
 20
1011.465880129785
 30
0.0
 11
603.7021674429251
 21
1002.851239676068
 31
0.0
  0
LINE
  5
E21
330
1F
100
AcDbEntity
  8
ceco.net 90
100
AcDbLine
 10
533.7864440295212
 20
1269.897158840931
 30
0.0
 11
663.221581516735
 21
1275.398479829769
 31
0.0
  0
LINE
  5
E22
330
1F
100
AcDbEntity
  8
ceco.net 90
100
AcDbLine
 10
1659.536751679041
 20
1039.718974020003
 30
0.0
 11
1632.801433466926
 21
1044.363055035154
 31
0.0
  0
LINE
  5
E23
330
1F
100
AcDbEntity
  8
ceco.net 90
100
AcDbLine
 10
1375.303126353658
 20
1180.500819391426
 30
0.0
 11
1368.418220644485
 21
1192.87876629222
 31
0.0
  0
LINE
  5
E24
330
1F
100
AcDbEntity
  8
ceco.net 90
100
AcDbLine
 10
1404.219439706865
 20
1217.634660094246
 30
0.0
 11
1383.564940548046
 21
1249.267213573767
 31
0.0
  0
LINE
  5
E25
330
1F
100
AcDbEntity
  8
ceco.net 90
100
AcDbLine
 10
1456.544359814715
 20
1096.605767165138
 30
0.0
 11
1404.219439706865
 21
1217.634660094246
 31
0.0
  0
LINE
  5
E26
330
1F
100
AcDbEntity
  8
ceco.net 90
100
AcDbLine
 10
1420.743140752336
 20
1162.621551501464
 30
0.0
 11
1386.318830175498
 21
1246.516569962158
 31
0.0
  0
LINE
  5
E27
330
1F
100
AcDbEntity
  8
ceco.net 90
100
AcDbLine
 10
1632.801433466926
 20
1044.363055035154
 30
0.0
 11
1554.920188023155
 21
1044.363055035154
 31
0.0
  0
LINE
  5
E28
330
1F
100
AcDbEntity
  8
ceco.net 90
100
AcDbLine
 10
1353.271573396914
 20
1220.385337471394
 30
0.0
 11
1364.287349875123
 21
1197.004748592622
 31
0.0
  0
LINE
  5
E29
330
1F
100
AcDbEntity
  8
ceco.net 90
100
AcDbLine
 10
1340.878888433163
 20
1287.776426730919
 30
0.0
 11
1353.271573396914
 21
1220.385337471394
 31
0.0
  0
LINE
  5
E2A
330
1F
100
AcDbEntity
  8
ceco.net 90
100
AcDbLine
 10
1322.978278901796
 20
1296.028391331312
 30
0.0
 11
1295.438874034131
 21
1301.529712320478
 31
0.0
  0
LINE
  5
E2B
330
1F
100
AcDbEntity
  8
ceco.net 90
100
AcDbLine
 10
1343.632778060288
 20
1286.401088042127
 30
0.0
 11
1322.978278901796
 21
1296.028391331312
 31
0.0
  0
LINE
  5
E2C
330
1F
100
AcDbEntity
  8
ceco.net 90
100
AcDbLine
 10
1360.156406449744
 20
1271.272463763802
 30
0.0
 11
1343.632778060288
 21
1286.401088042127
 31
0.0
  0
LINE
  5
E2D
330
1F
100
AcDbEntity
  8
ceco.net 90
100
AcDbLine
 10
1322.978278901796
 20
1223.13598108303
 30
0.0
 11
1296.815855176042
 21
1302.905017243322
 31
0.0
  0
LINE
  5
E2E
330
1F
100
AcDbEntity
  8
ceco.net 90
100
AcDbLine
 10
1306.454577856325
 20
1228.637302072197
 30
0.0
 11
1226.59032553718
 21
1252.017890950969
 31
0.0
  0
LINE
  5
E2F
330
1F
100
AcDbEntity
  8
ceco.net 90
100
AcDbLine
 10
1339.501907291252
 20
1214.88401648261
 30
0.0
 11
1306.454577856325
 21
1228.637302072197
 31
0.0
  0
LINE
  5
E30
330
1F
100
AcDbEntity
  8
ceco.net 90
100
AcDbLine
 10
1221.762826697681
 20
1098.569200568946
 30
0.0
 11
1227.512769214696
 21
1041.138444292433
 31
0.0
  0
LINE
  5
E31
330
1F
100
AcDbEntity
  8
ceco.net 90
100
AcDbLine
 10
1208.346269939153
 20
1153.128432537713
 30
0.0
 11
1221.762826697681
 21
1098.569200568946
 31
0.0
  0
LINE
  5
E32
330
1F
100
AcDbEntity
  8
ceco.net 90
100
AcDbLine
 10
1196.846457561411
 20
1168.443307631123
 30
0.0
 11
1208.346269939153
 21
1153.128432537713
 31
0.0
  0
LINE
  5
E33
330
1F
100
AcDbEntity
  8
ceco.net 90
100
AcDbLine
 10
1226.59032553718
 20
1252.017890950969
 30
0.0
 11
1131.579425970434
 21
1261.645194240155
 31
0.0
  0
LINE
  5
E34
330
1F
100
AcDbEntity
  8
ceco.net 90
100
AcDbLine
 10
1386.318830175498
 20
1246.516569962158
 30
0.0
 11
1360.156406449744
 21
1271.272463763802
 31
0.0
  0
LINE
  5
E35
330
1F
100
AcDbEntity
  8
ceco.net 90
100
AcDbLine
 10
1368.418220644485
 20
1192.87876629222
 30
0.0
 11
1339.501907291252
 21
1214.88401648261
 31
0.0
  0
LINE
  5
E36
330
1F
100
AcDbEntity
  8
ceco.net 90
100
AcDbLine
 10
1596.766769891852
 20
835.3793080720601
 30
0.0
 11
1568.869024427273
 21
872.5319561903791
 31
0.0
  0
LINE
  5
E37
330
1F
100
AcDbEntity
  8
ceco.net 90
100
AcDbLine
 10
1696.733769850238
 20
1011.854454165629
 30
0.0
 11
1680.460078941574
 21
1029.269783295462
 31
0.0
  0
LINE
  5
E38
330
1F
100
AcDbEntity
  8
ceco.net 90
100
AcDbLine
 10
1701.383406203725
 20
994.4391588017451
 30
0.0
 11
1696.733769850238
 21
1011.854454165629
 31
0.0
  0
LINE
  5
E39
330
1F
100
AcDbEntity
  8
ceco.net 90
100
AcDbLine
 10
1700.220978951288
 20
966.574638947317
 30
0.0
 11
1701.383406203725
 21
994.4391588017451
 31
0.0
  0
LINE
  5
E3A
330
1F
100
AcDbEntity
  8
ceco.net 90
100
AcDbLine
 10
1696.733769850238
 20
949.1593435831051
 30
0.0
 11
1700.220978951288
 21
966.574638947317
 31
0.0
  0
LINE
  5
E3B
330
1F
100
AcDbEntity
  8
ceco.net 90
100
AcDbLine
 10
1683.947288042597
 20
938.7101528585102
 30
0.0
 11
1696.733769850238
 21
949.1593435831051
 31
0.0
  0
LINE
  5
E3C
330
1F
100
AcDbEntity
  8
ceco.net 90
100
AcDbLine
 10
1667.673597133551
 20
931.7440144532449
 30
0.0
 11
1683.947288042597
 21
938.7101528585102
 31
0.0
  0
LINE
  5
E3D
330
1F
100
AcDbEntity
  8
ceco.net 90
100
AcDbLine
 10
1596.766769891852
 20
929.4219908286709
 30
0.0
 11
1667.673597133551
 21
931.7440144532449
 31
0.0
  0
LINE
  5
E3E
330
1F
100
AcDbEntity
  8
ceco.net 90
100
AcDbLine
 10
1588.629924437342
 20
930.5830195237273
 30
0.0
 11
1596.766769891852
 21
857.4386844510689
 31
0.0
  0
LINE
  5
E3F
330
1F
100
AcDbEntity
  8
ceco.net 90
100
AcDbLine
 10
1592.117133538365
 20
866.7268464805529
 30
0.0
 11
1581.65550623527
 21
882.9811469153293
 31
0.0
  0
LINE
  5
E40
330
1F
100
AcDbEntity
  8
ceco.net 90
100
AcDbLine
 10
1609.553251699848
 20
837.7013316966891
 30
0.0
 11
1592.117133538365
 21
866.7268464805529
 31
0.0
  0
LINE
  5
E41
330
1F
100
AcDbEntity
  8
ceco.net 90
100
AcDbLine
 10
1618.852524406467
 20
801.7096785078608
 30
0.0
 11
1609.553251699848
 21
837.7013316966891
 31
0.0
  0
LINE
  5
E42
330
1F
100
AcDbEntity
  8
ceco.net 90
100
AcDbLine
 10
1621.17730625538
 20
770.362140099013
 30
0.0
 11
1618.852524406467
 21
801.7096785078608
 31
0.0
  0
LINE
  5
E43
330
1F
100
AcDbEntity
  8
ceco.net 90
100
AcDbLine
 10
1607.228469851262
 20
804.0317358980287
 30
0.0
 11
1596.766769891852
 21
835.3793080720601
 31
0.0
  0
LINE
  5
E44
330
1F
100
AcDbEntity
  8
ceco.net 90
100
AcDbLine
 10
1610.715678952312
 20
775.0062211141104
 30
0.0
 11
1607.228469851262
 21
804.0317358980287
 31
0.0
  0
LINE
  5
E45
330
1F
100
AcDbEntity
  8
ceco.net 90
100
AcDbLine
 10
1600.355697734796
 20
779.1904827667109
 30
0.0
 11
1613.867506829691
 21
770.7557114373477
 31
0.0
  0
LINE
  5
E46
330
1F
100
AcDbEntity
  8
ceco.net 90
100
AcDbLine
 10
1464.806174009103
 20
920.5637656429765
 30
0.0
 11
1441.397639910828
 21
1016.836731004846
 31
0.0
  0
LINE
  5
E47
330
1F
100
AcDbEntity
  8
ceco.net 90
100
AcDbLine
 10
1516.560742599494
 20
994.4391588017451
 30
0.0
 11
1511.911106246008
 21
946.8372861929374
 31
0.0
  0
LINE
  5
E48
330
1F
100
AcDbEntity
  8
ceco.net 90
100
AcDbLine
 10
1523.53516080154
 20
1014.176511556124
 30
0.0
 11
1516.560742599494
 21
994.4391588017451
 31
0.0
  0
LINE
  5
E49
330
1F
100
AcDbEntity
  8
ceco.net 90
100
AcDbLine
 10
1538.64649711411
 20
1035.074893005288
 30
0.0
 11
1523.53516080154
 21
1014.176511556124
 31
0.0
  0
LINE
  5
E4A
330
1F
100
AcDbEntity
  8
ceco.net 90
100
AcDbLine
 10
1499.124624438012
 20
920.1338287991868
 30
0.0
 11
1502.611833539034
 21
916.6507427139622
 31
0.0
  0
LINE
  5
E4B
330
1F
100
AcDbEntity
  8
ceco.net 90
100
AcDbLine
 10
1495.637415336961
 20
930.5830195237273
 30
0.0
 11
1499.124624438012
 21
920.1338287991868
 31
0.0
  0
LINE
  5
E4C
330
1F
100
AcDbEntity
  8
ceco.net 90
100
AcDbLine
 10
1499.124624438012
 20
939.8711815536209
 30
0.0
 11
1495.637415336961
 21
930.5830195237273
 31
0.0
  0
LINE
  5
E4D
330
1F
100
AcDbEntity
  8
ceco.net 90
100
AcDbLine
 10
1509.586324397422
 20
947.9983148879936
 30
0.0
 11
1499.124624438012
 21
939.8711815536209
 31
0.0
  0
LINE
  5
E4E
330
1F
100
AcDbEntity
  8
ceco.net 90
100
AcDbLine
 10
1514.235960750936
 20
944.5152625683359
 30
0.0
 11
1509.586324397422
 21
947.9983148879936
 31
0.0
  0
LINE
  5
E4F
330
1F
100
AcDbEntity
  8
ceco.net 90
100
AcDbLine
 10
1529.34722440749
 20
928.2609621336142
 30
0.0
 11
1514.235960750936
 21
944.5152625683359
 31
0.0
  0
LINE
  5
E50
330
1F
100
AcDbEntity
  8
ceco.net 90
100
AcDbLine
 10
1502.611833539034
 20
916.6507427139622
 30
0.0
 11
1378.23436987308
 21
925.9389385090125
 31
0.0
  0
LINE
  5
E51
330
1F
100
AcDbEntity
  8
ceco.net 90
100
AcDbLine
 10
1520.047951700517
 20
913.1676903943043
 30
0.0
 11
1502.611833539034
 21
916.6507427139622
 31
0.0
  0
LINE
  5
E52
330
1F
100
AcDbEntity
  8
ceco.net 90
100
AcDbLine
 10
1524.697588054004
 20
934.0660718437952
 30
0.0
 11
1596.766769891852
 21
929.4219908286709
 31
0.0
  0
LINE
  5
E53
330
1F
100
AcDbEntity
  8
ceco.net 90
100
AcDbLine
 10
1581.65550623527
 20
882.9811469153293
 30
0.0
 11
1529.34722440749
 21
928.2609621336142
 31
0.0
  0
LINE
  5
E54
330
1F
100
AcDbEntity
  8
ceco.net 90
100
AcDbLine
 10
1568.869024427273
 20
872.5319561903791
 30
0.0
 11
1520.047951700517
 21
913.1676903943043
 31
0.0
  0
LINE
  5
E55
330
1F
100
AcDbEntity
  8
ceco.net 90
100
AcDbLine
 10
1582.402775707679
 20
741.594864299099
 30
0.0
 11
1567.979566684857
 21
705.5799804067172
 31
0.0
  0
LINE
  5
E56
330
1F
100
AcDbEntity
  8
ceco.net 90
100
AcDbLine
 10
1593.599829515519
 20
671.2252814460519
 30
0.0
 11
1588.53292835113
 21
531.2078882967489
 31
0.0
  0
LINE
  5
E57
330
1F
100
AcDbEntity
  8
ceco.net 90
100
AcDbLine
 10
1649.335887636645
 20
726.8948262422155
 30
0.0
 11
1656.091755855921
 21
710.0252835841989
 31
0.0
  0
LINE
  5
E58
330
1F
100
AcDbEntity
  8
ceco.net 90
100
AcDbLine
 10
1635.824078542078
 20
747.1383247039884
 30
0.0
 11
1649.335887636645
 21
726.8948262422155
 31
0.0
  0
LINE
  5
E59
330
1F
100
AcDbEntity
  8
ceco.net 90
100
AcDbLine
 10
1565.094968473678
 20
696.9364028699023
 30
0.0
 11
1554.998729423464
 21
575.9263848874794
 31
0.0
  0
LINE
  5
E5A
330
1F
100
AcDbEntity
  8
ceco.net 90
100
AcDbLine
 10
1518.940888506064
 20
728.6294979940404
 30
0.0
 11
1542.017892161687
 21
714.2235579431775
 31
0.0
  0
LINE
  5
E5B
330
1F
100
AcDbEntity
  8
ceco.net 90
100
AcDbLine
 10
1491.536914877836
 20
737.2730755308282
 30
0.0
 11
1518.940888506064
 21
728.6294979940404
 31
0.0
  0
LINE
  5
E5C
330
1F
100
AcDbEntity
  8
ceco.net 90
100
AcDbLine
 10
1464.132941249608
 20
743.0354718104691
 30
0.0
 11
1491.536914877836
 21
737.2730755308282
 31
0.0
  0
LINE
  5
E5D
330
1F
100
AcDbEntity
  8
ceco.net 90
100
AcDbLine
 10
1420.863459492819
 20
748.7978343245167
 30
0.0
 11
1464.132941249608
 21
743.0354718104691
 31
0.0
  0
LINE
  5
E5E
330
1F
100
AcDbEntity
  8
ceco.net 90
100
AcDbLine
 10
1567.979566684857
 20
705.5799804067172
 30
0.0
 11
1565.094968473678
 21
696.9364028699023
 31
0.0
  0
LINE
  5
E5F
330
1F
100
AcDbEntity
  8
ceco.net 90
100
AcDbLine
 10
1542.017892161687
 20
714.2235579431775
 30
0.0
 11
1565.982536251283
 21
699.5959624838966
 31
0.0
  0
LINE
  5
E60
330
1F
100
AcDbEntity
  8
ceco.net 90
100
AcDbLine
 10
1595.288796570407
 20
760.6339790896265
 30
0.0
 11
1593.599829515519
 21
671.2252814460519
 31
0.0
  0
LINE
  5
E61
330
1F
100
AcDbEntity
  8
ceco.net 90
100
AcDbLine
 10
1613.867506829691
 20
770.7557114373477
 30
0.0
 11
1635.824078542078
 21
747.1383247039884
 31
0.0
  0
LINE
  5
E62
330
1F
100
AcDbEntity
  8
ceco.net 90
100
AcDbLine
 10
1604.037480257888
 20
781.931536960025
 30
0.0
 11
1582.402775707679
 21
741.594864299099
 31
0.0
  0
LINE
  5
E63
330
1F
100
AcDbEntity
  8
ceco.net 90
100
AcDbLine
 10
1573.332224858019
 20
384.442684837943
 30
0.0
 11
1568.265323693658
 21
381.0687628000801
 31
0.0
  0
LINE
  5
E64
330
1F
100
AcDbEntity
  8
ceco.net 90
100
AcDbLine
 10
1603.733704500585
 20
252.8600630180032
 30
0.0
 11
1612.178539774776
 21
374.3209187243007
 31
0.0
  0
LINE
  5
E65
330
1F
100
AcDbEntity
  8
ceco.net 90
100
AcDbLine
 10
1600.355697734796
 20
246.1122527077899
 30
0.0
 11
1603.733704500585
 21
252.8600630180032
 31
0.0
  0
LINE
  5
E66
330
1F
100
AcDbEntity
  8
ceco.net 90
100
AcDbLine
 10
1585.154994241657
 20
227.5557152651118
 30
0.0
 11
1600.355697734796
 21
246.1122527077899
 31
0.0
  0
LINE
  5
E67
330
1F
100
AcDbEntity
  8
ceco.net 90
100
AcDbLine
 10
1573.332224858019
 20
212.3730998607337
 30
0.0
 11
1585.154994241657
 21
227.5557152651118
 31
0.0
  0
LINE
  5
E68
330
1F
100
AcDbEntity
  8
ceco.net 90
100
AcDbLine
 10
1575.021191912579
 20
414.8078818815701
 30
0.0
 11
1573.332224858019
 21
384.442684837943
 31
0.0
  0
LINE
  5
E69
330
1F
100
AcDbEntity
  8
ceco.net 90
100
AcDbLine
 10
1536.174876995823
 20
198.8774454747406
 30
0.0
 11
1561.509382818039
 21
205.6252895504929
 31
0.0
  0
LINE
  5
E6A
330
1F
100
AcDbEntity
  8
ceco.net 90
100
AcDbLine
 10
1449.210475990837
 20
197.7916833410307
 30
0.0
 11
1536.174876995823
 21
198.8774454747406
 31
0.0
  0
LINE
  5
E6B
330
1F
100
AcDbEntity
  8
ceco.net 90
100
AcDbLine
 10
1497.328562079066
 20
200.5644064938627
 30
0.0
 11
1409.502129916803
 21
195.5035572023893
 31
0.0
  0
LINE
  5
E6C
330
1F
100
AcDbEntity
  8
ceco.net 90
100
AcDbLine
 10
1514.218232627065
 20
208.9991778228708
 30
0.0
 11
1497.328562079066
 21
200.5644064938627
 31
0.0
  0
LINE
  5
E6D
330
1F
100
AcDbEntity
  8
ceco.net 90
100
AcDbLine
 10
1529.419008776547
 20
225.8687542463718
 30
0.0
 11
1514.218232627065
 21
208.9991778228708
 31
0.0
  0
LINE
  5
E6E
330
1F
100
AcDbEntity
  8
ceco.net 90
100
AcDbLine
 10
1536.174876995823
 20
244.425291688995
 30
0.0
 11
1529.419008776547
 21
225.8687542463718
 31
0.0
  0
LINE
  5
E6F
330
1F
100
AcDbEntity
  8
ceco.net 90
100
AcDbLine
 10
1544.619712270013
 20
259.6078733278618
 30
0.0
 11
1536.174876995823
 21
244.425291688995
 31
0.0
  0
LINE
  5
E70
330
1F
100
AcDbEntity
  8
ceco.net 90
100
AcDbLine
 10
1558.131448708565
 20
372.6339577055603
 30
0.0
 11
1544.619712270013
 21
259.6078733278618
 31
0.0
  0
LINE
  5
E71
330
1F
100
AcDbEntity
  8
ceco.net 90
100
AcDbLine
 10
1529.32302987812
 20
338.2597760182092
 30
0.0
 11
1529.32302987812
 21
370.2868462717275
 31
0.0
  0
LINE
  5
E72
330
1F
100
AcDbEntity
  8
ceco.net 90
100
AcDbLine
 10
1526.340200425009
 20
320.3842223395765
 30
0.0
 11
1529.32302987812
 21
338.2597760182092
 31
0.0
  0
LINE
  5
E73
330
1F
100
AcDbEntity
  8
ceco.net 90
100
AcDbLine
 10
1524.103114663163
 20
303.2534693285203
 30
0.0
 11
1526.340200425009
 21
320.3842223395765
 31
0.0
  0
LINE
  5
E74
330
1F
100
AcDbEntity
  8
ceco.net 90
100
AcDbLine
 10
1518.137455756914
 20
293.5708918217648
 30
0.0
 11
1524.103114663163
 21
303.2534693285203
 31
0.0
  0
LINE
  5
E75
330
1F
100
AcDbEntity
  8
ceco.net 90
100
AcDbLine
 10
1511.426125815415
 20
284.6330812167185
 30
0.0
 11
1518.137455756914
 21
293.5708918217648
 31
0.0
  0
LINE
  5
E76
330
1F
100
AcDbEntity
  8
ceco.net 90
100
AcDbLine
 10
1499.494880658932
 20
279.4193752464964
 30
0.0
 11
1511.426125815415
 21
284.6330812167185
 31
0.0
  0
LINE
  5
E77
330
1F
100
AcDbEntity
  8
ceco.net 90
100
AcDbLine
 10
1501.731966420778
 20
327.8323640778742
 30
0.0
 11
1503.22338114732
 21
370.2868462717275
 31
0.0
  0
LINE
  5
E78
330
1F
100
AcDbEntity
  8
ceco.net 90
100
AcDbLine
 10
1500.240551694209
 20
321.8738574403768
 30
0.0
 11
1501.731966420778
 21
327.8323640778742
 31
0.0
  0
LINE
  5
E79
330
1F
100
AcDbEntity
  8
ceco.net 90
100
AcDbLine
 10
1497.257794897085
 20
312.9360806008967
 30
0.0
 11
1500.240551694209
 21
321.8738574403768
 31
0.0
  0
LINE
  5
E7A
330
1F
100
AcDbEntity
  8
ceco.net 90
100
AcDbLine
 10
1488.309306537725
 20
306.9775401978604
 30
0.0
 11
1497.257794897085
 21
312.9360806008967
 31
0.0
  0
LINE
  5
E7B
330
1F
100
AcDbEntity
  8
ceco.net 90
100
AcDbLine
 10
1480.852305560922
 20
304.7431044294022
 30
0.0
 11
1488.309306537725
 21
306.9775401978604
 31
0.0
  0
LINE
  5
E7C
330
1F
100
AcDbEntity
  8
ceco.net 90
100
AcDbLine
 10
1480.852305560922
 20
298.7845640260109
 30
0.0
 11
1474.140902963409
 21
295.8053275898951
 31
0.0
  0
LINE
  5
E7D
330
1F
100
AcDbEntity
  8
ceco.net 90
100
AcDbLine
 10
1489.05505022899
 20
303.9982699961784
 30
0.0
 11
1480.852305560922
 21
298.7845640260109
 31
0.0
  0
LINE
  5
E7E
330
1F
100
AcDbEntity
  8
ceco.net 90
100
AcDbLine
 10
1496.512051205793
 20
309.2119759663729
 30
0.0
 11
1489.05505022899
 21
303.9982699961784
 31
0.0
  0
LINE
  5
E7F
330
1F
100
AcDbEntity
  8
ceco.net 90
100
AcDbLine
 10
1500.986295385473
 20
314.4256819361578
 30
0.0
 11
1496.512051205793
 21
309.2119759663729
 31
0.0
  0
LINE
  5
E80
330
1F
100
AcDbEntity
  8
ceco.net 90
100
AcDbLine
 10
1505.460539565153
 20
327.0875634102162
 30
0.0
 11
1500.986295385473
 21
314.4256819361578
 31
0.0
  0
LINE
  5
E81
330
1F
100
AcDbEntity
  8
ceco.net 90
100
AcDbLine
 10
1506.951954291723
 20
369.5420118385303
 30
0.0
 11
1505.460539565153
 21
327.0875634102162
 31
0.0
  0
LINE
  5
E82
330
1F
100
AcDbEntity
  8
ceco.net 90
100
AcDbLine
 10
1542.017892161687
 20
369.921232814934
 30
0.0
 11
1542.017892161687
 21
377.1242028403792
 31
0.0
  0
LINE
  5
E83
330
1F
100
AcDbEntity
  8
ceco.net 90
100
AcDbLine
 10
1542.017892161687
 20
378.5648103514213
 30
0.0
 11
1543.460263923469
 21
375.6836290945753
 31
0.0
  0
LINE
  5
E84
330
1F
100
AcDbEntity
  8
ceco.net 90
100
AcDbLine
 10
1546.344862134293
 20
397.2925391704734
 30
0.0
 11
1542.017892161687
 21
378.5648103514213
 31
0.0
  0
LINE
  5
E85
330
1F
100
AcDbEntity
  8
ceco.net 90
100
AcDbLine
 10
1561.509382818039
 20
205.6252895504929
 30
0.0
 11
1573.332224858019
 21
212.3730998607337
 31
0.0
  0
LINE
  5
E86
330
1F
100
AcDbEntity
  8
ceco.net 90
100
AcDbLine
 10
1612.178539774776
 20
379.3818017809576
 30
0.0
 11
1542.930745215099
 21
381.0687628000801
 31
0.0
  0
LINE
  5
E87
330
1F
100
AcDbEntity
  8
ceco.net 90
100
AcDbLine
 10
1542.000018725867
 20
374.7557178083702
 30
0.0
 11
1612.10940854363
 21
373.3266141323822
 31
0.0
  0
LINE
  5
E88
330
1F
100
AcDbEntity
  8
ceco.net 90
100
AcDbLine
 10
1568.265323693658
 20
381.0687628000801
 30
0.0
 11
1565.031107878145
 21
380.5303709197827
 31
0.0
  0
LINE
  5
E89
330
1F
100
AcDbEntity
  8
ceco.net 90
100
AcDbLine
 10
1644.138495857584
 20
158.003697856145
 30
0.0
 11
1646.732372096944
 21
49.18996012954131
 31
0.0
  0
ARC
  5
E8A
330
1F
100
AcDbEntity
  8
ceco.net 90
100
AcDbCircle
 10
1598.70101680375
 20
48.04500000003845
 30
0.0
 40
48.045
100
AcDbArc
 50
270.0
 51
1.365544678276652
  0
LINE
  5
E8B
330
1F
100
AcDbEntity
  8
ceco.net 90
100
AcDbLine
 10
1598.70101680375
 20
0.0000000000275038
 30
0.0
 11
1467.646079769227
 21
0.0000000000275038
 31
0.0
  0
ARC
  5
E8C
330
1F
100
AcDbEntity
  8
ceco.net 90
100
AcDbCircle
 10
1467.646079769227
 20
48.04500000003845
 30
0.0
 40
48.045
100
AcDbArc
 50
180.0509357419483
 51
270.0
  0
LINE
  5
E8D
330
1F
100
AcDbEntity
  8
ceco.net 90
100
AcDbLine
 10
1419.601098754545
 20
48.00228817343946
 30
0.0
 11
1419.469460026588
 21
196.0779077057801
 31
0.0
  0
LINE
  5
E8E
330
1F
100
AcDbEntity
  8
ceco.net 90
100
AcDbLine
 10
1654.402788801006
 20
698.2165902173558
 30
0.0
 11
1644.268913815913
 21
156.7035550642424
 31
0.0
  0
LINE
  5
E8F
330
1F
100
AcDbEntity
  8
ceco.net 90
100
AcDbLine
 10
1588.53292835113
 20
531.2078882967489
 30
0.0
 11
1575.021191912579
 21
414.8078818815701
 31
0.0
  0
LINE
  5
E90
330
1F
100
AcDbEntity
  8
ceco.net 90
100
AcDbLine
 10
1656.091755855921
 20
710.0252835841989
 30
0.0
 11
1612.178539774776
 21
374.3209187243007
 31
0.0
  0
LINE
  5
E91
330
1F
100
AcDbEntity
  8
ceco.net 90
100
AcDbLine
 10
1554.998729423464
 20
575.9263848874794
 30
0.0
 11
1546.344862134293
 21
397.2925391704734
 31
0.0
  0
LINE
  5
E92
330
1F
100
AcDbEntity
  8
ceco.net 90
100
AcDbLine
 10
1285.970384934572
 20
1006.67995000807
 30
0.0
 11
1223.679425765782
 21
1010.508694105584
 31
0.0
  0
LINE
  5
E93
330
1F
100
AcDbEntity
  8
ceco.net 90
100
AcDbLine
 10
1310.88675407046
 20
995.1938190121733
 30
0.0
 11
1285.970384934572
 21
1006.67995000807
 31
0.0
  0
LINE
  5
E94
330
1F
100
AcDbEntity
  8
ceco.net 90
100
AcDbLine
 10
1329.094917483781
 20
980.8361299429355
 30
0.0
 11
1310.88675407046
 21
995.1938190121733
 31
0.0
  0
LINE
  5
E95
330
1F
100
AcDbEntity
  8
ceco.net 90
100
AcDbLine
 10
1341.553065723744
 20
967.4355931327154
 30
0.0
 11
1329.094917483781
 21
980.8361299429355
 31
0.0
  0
LINE
  5
E96
330
1F
100
AcDbEntity
  8
ceco.net 90
100
AcDbLine
 10
1361.677828205166
 20
925.3197119499684
 30
0.0
 11
1341.553065723744
 21
967.4355931327154
 31
0.0
  0
LINE
  5
E97
330
1F
100
AcDbEntity
  8
ceco.net 90
100
AcDbLine
 10
1304.035996796175
 20
832.3523946687538
 30
0.0
 11
1340.093837713573
 21
885.6544336347658
 31
0.0
  0
LINE
  5
E98
330
1F
100
AcDbEntity
  8
ceco.net 90
100
AcDbLine
 10
1278.074322273359
 20
760.3226268837172
 30
0.0
 11
1304.035996796175
 21
832.3523946687538
 31
0.0
  0
LINE
  5
E99
330
1F
100
AcDbEntity
  8
ceco.net 90
100
AcDbLine
 10
1289.612787773354
 20
840.9959722055692
 30
0.0
 11
1259.324215933946
 21
768.9661706549659
 31
0.0
  0
LINE
  5
E9A
330
1F
100
AcDbEntity
  8
ceco.net 90
100
AcDbLine
 10
1318.459133163336
 20
885.6544336347658
 30
0.0
 11
1289.612787773354
 21
840.9959722055692
 31
0.0
  0
LINE
  5
E9B
330
1F
100
AcDbEntity
  8
ceco.net 90
100
AcDbLine
 10
1353.074674974968
 20
921.6693175270931
 30
0.0
 11
1318.459133163336
 21
885.6544336347658
 31
0.0
  0
LINE
  5
E9C
330
1F
100
AcDbEntity
  8
ceco.net 90
100
AcDbLine
 10
1357.844557412595
 20
926.2768642086303
 30
0.0
 11
1069.389604293862
 21
935.8486569213647
 31
0.0
  0
LINE
  5
E9D
330
1F
100
AcDbEntity
  8
ceco.net 90
100
AcDbLine
 10
1184.438660098735
 20
699.7872288905789
 30
0.0
 11
1167.833584059393
 21
715.4511385520822
 31
0.0
  0
LINE
  5
E9E
330
1F
100
AcDbEntity
  8
ceco.net 90
100
AcDbLine
 10
1229.035571438578
 20
542.7926822519712
 30
0.0
 11
1250.670275989143
 21
655.1591564631995
 31
0.0
  0
LINE
  5
E9F
330
1F
100
AcDbEntity
  8
ceco.net 90
100
AcDbLine
 10
1230.477870544345
 20
658.0403377203464
 30
0.0
 11
1201.63159781035
 21
501.0154358452143
 31
0.0
  0
LINE
  5
EA0
330
1F
100
AcDbEntity
  8
ceco.net 90
100
AcDbLine
 10
1201.63159781035
 20
607.6194800116176
 30
0.0
 11
1182.881491470937
 21
567.2828073506916
 31
0.0
  0
LINE
  5
EA1
330
1F
100
AcDbEntity
  8
ceco.net 90
100
AcDbLine
 10
1211.72783686092
 20
656.5997302089763
 30
0.0
 11
1201.63159781035
 21
607.6194800116176
 31
0.0
  0
LINE
  5
EA2
330
1F
100
AcDbEntity
  8
ceco.net 90
100
AcDbLine
 10
1214.612435071744
 20
688.2928253331145
 30
0.0
 11
1211.72783686092
 21
656.5997302089763
 31
0.0
  0
LINE
  5
EA3
330
1F
100
AcDbEntity
  8
ceco.net 90
100
AcDbLine
 10
1210.285465099165
 20
705.5799804067172
 30
0.0
 11
1214.612435071744
 21
688.2928253331145
 31
0.0
  0
LINE
  5
EA4
330
1F
100
AcDbEntity
  8
ceco.net 90
100
AcDbLine
 10
1204.516268677516
 20
718.5453467117762
 30
0.0
 11
1210.285465099165
 21
705.5799804067172
 31
0.0
  0
LINE
  5
EA5
330
1F
100
AcDbEntity
  8
ceco.net 90
100
AcDbLine
 10
1194.420029626946
 20
728.6294979940404
 30
0.0
 11
1204.516268677516
 21
718.5453467117762
 31
0.0
  0
LINE
  5
EA6
330
1F
100
AcDbEntity
  8
ceco.net 90
100
AcDbLine
 10
1199.198776126646
 20
713.6083157199643
 30
0.0
 11
1184.438660098735
 21
726.5080080153234
 31
0.0
  0
LINE
  5
EA7
330
1F
100
AcDbEntity
  8
ceco.net 90
100
AcDbLine
 10
1208.423866808019
 20
694.2587941591088
 30
0.0
 11
1199.198776126646
 21
713.6083157199643
 31
0.0
  0
LINE
  5
EA8
330
1F
100
AcDbEntity
  8
ceco.net 90
100
AcDbLine
 10
1209.346383141904
 20
673.9878442994791
 30
0.0
 11
1208.423866808019
 21
694.2587941591088
 31
0.0
  0
LINE
  5
EA9
330
1F
100
AcDbEntity
  8
ceco.net 90
100
AcDbLine
 10
1206.578834140629
 20
644.5028478086444
 30
0.0
 11
1209.346383141904
 21
673.9878442994791
 31
0.0
  0
LINE
  5
EAA
330
1F
100
AcDbEntity
  8
ceco.net 90
100
AcDbLine
 10
1195.508783447852
 20
607.6465599887101
 30
0.0
 11
1206.578834140629
 21
644.5028478086444
 31
0.0
  0
LINE
  5
EAB
330
1F
100
AcDbEntity
  8
ceco.net 90
100
AcDbLine
 10
1180.748667419915
 20
575.3973461321404
 30
0.0
 11
1195.508783447852
 21
607.6465599887101
 31
0.0
  0
LINE
  5
EAC
330
1F
100
AcDbEntity
  8
ceco.net 90
100
AcDbLine
 10
1187.20620910001
 20
687.8089311285095
 30
0.0
 11
1184.438660098735
 21
699.7872288905789
 31
0.0
  0
LINE
  5
EAD
330
1F
100
AcDbEntity
  8
ceco.net 90
100
AcDbLine
 10
1188.12872543387
 20
663.8523693694458
 30
0.0
 11
1187.20620910001
 21
687.8089311285095
 31
0.0
  0
LINE
  5
EAE
330
1F
100
AcDbEntity
  8
ceco.net 90
100
AcDbLine
 10
1182.593700087305
 20
635.2887674122829
 30
0.0
 11
1188.12872543387
 21
663.8523693694458
 31
0.0
  0
LINE
  5
EAF
330
1F
100
AcDbEntity
  8
ceco.net 90
100
AcDbLine
 10
1171.523576738542
 20
603.9609480893304
 30
0.0
 11
1182.593700087305
 21
635.2887674122829
 31
0.0
  0
LINE
  5
EB0
330
1F
100
AcDbEntity
  8
ceco.net 90
100
AcDbLine
 10
1037.207683384665
 20
485.1688882833638
 30
0.0
 11
1038.65005514642
 21
476.5253107465484
 31
0.0
  0
LINE
  5
EB1
330
1F
100
AcDbEntity
  8
ceco.net 90
100
AcDbLine
 10
1032.880786068428
 20
490.9312507974114
 30
0.0
 11
1037.207683384665
 21
485.1688882833638
 31
0.0
  0
LINE
  5
EB2
330
1F
100
AcDbEntity
  8
ceco.net 90
100
AcDbLine
 10
1084.804062457691
 20
526.9461346897657
 30
0.0
 11
1038.65005514642
 21
521.1837721757182
 31
0.0
  0
LINE
  5
EB3
330
1F
100
AcDbEntity
  8
ceco.net 90
100
AcDbLine
 10
1129.515843319919
 20
531.2679234583373
 30
0.0
 11
1084.804062457691
 21
526.9461346897657
 31
0.0
  0
LINE
  5
EB4
330
1F
100
AcDbEntity
  8
ceco.net 90
100
AcDbLine
 10
1156.919816948121
 20
541.3521085061402
 30
0.0
 11
1129.515843319919
 21
531.2679234583373
 31
0.0
  0
LINE
  5
EB5
330
1F
100
AcDbEntity
  8
ceco.net 90
100
AcDbLine
 10
1099.227271480867
 20
743.0354718104691
 30
0.0
 11
1162.689086026139
 21
738.7136830418978
 31
0.0
  0
LINE
  5
EB6
330
1F
100
AcDbEntity
  8
ceco.net 90
100
AcDbLine
 10
1068.938626985473
 20
744.476045556273
 30
0.0
 11
1099.227271480867
 21
743.0354718104691
 31
0.0
  0
LINE
  5
EB7
330
1F
100
AcDbEntity
  8
ceco.net 90
100
AcDbLine
 10
1163.221075047041
 20
732.0364427471757
 30
0.0
 11
1097.723141911561
 21
735.722088412067
 31
0.0
  0
LINE
  5
EB8
330
1F
100
AcDbEntity
  8
ceco.net 90
100
AcDbLine
 10
1145.693410017827
 20
544.0695268092154
 30
0.0
 11
1164.143591380573
 21
556.9692191049561
 31
0.0
  0
LINE
  5
EB9
330
1F
100
AcDbEntity
  8
ceco.net 90
100
AcDbLine
 10
1124.475752309819
 20
535.7768747116547
 30
0.0
 11
1145.693410017827
 21
544.0695268092154
 31
0.0
  0
LINE
  5
EBA
330
1F
100
AcDbEntity
  8
ceco.net 90
100
AcDbLine
 10
1052.520277494242
 20
528.4056171477662
 30
0.0
 11
1124.475752309819
 21
535.7768747116547
 31
0.0
  0
LINE
  5
EBB
330
1F
100
AcDbEntity
  8
ceco.net 90
100
AcDbLine
 10
1140.158384671262
 20
719.1367504514349
 30
0.0
 11
1044.217775802743
 21
725.5866134820609
 31
0.0
  0
LINE
  5
EBC
330
1F
100
AcDbEntity
  8
ceco.net 90
100
AcDbLine
 10
1145.693410017827
 20
571.7117342331704
 30
0.0
 11
1161.376042379296
 21
585.5328210621466
 31
0.0
  0
LINE
  5
EBD
330
1F
100
AcDbEntity
  8
ceco.net 90
100
AcDbLine
 10
1130.933366646258
 20
562.4976538364268
 30
0.0
 11
1145.693410017827
 21
571.7117342331704
 31
0.0
  0
LINE
  5
EBE
330
1F
100
AcDbEntity
  8
ceco.net 90
100
AcDbLine
 10
1112.483185283157
 20
557.8906136382187
 30
0.0
 11
1130.933366646258
 21
562.4976538364268
 31
0.0
  0
LINE
  5
EBF
330
1F
100
AcDbEntity
  8
ceco.net 90
100
AcDbLine
 10
1071.892902534504
 20
552.3621789067757
 30
0.0
 11
1112.483185283157
 21
557.8906136382187
 31
0.0
  0
LINE
  5
EC0
330
1F
100
AcDbEntity
  8
ceco.net 90
100
AcDbLine
 10
1182.881491470937
 20
567.2828073506916
 30
0.0
 11
1156.919816948121
 21
541.3521085061402
 31
0.0
  0
LINE
  5
EC1
330
1F
100
AcDbEntity
  8
ceco.net 90
100
AcDbLine
 10
1162.689086026139
 20
738.7136830418978
 30
0.0
 11
1194.420029626946
 21
728.6294979940404
 31
0.0
  0
LINE
  5
EC2
330
1F
100
AcDbEntity
  8
ceco.net 90
100
AcDbLine
 10
1184.438660098735
 20
726.5080080153234
 30
0.0
 11
1163.221075047041
 21
732.0364427471757
 31
0.0
  0
LINE
  5
EC3
330
1F
100
AcDbEntity
  8
ceco.net 90
100
AcDbLine
 10
1164.143591380573
 20
556.9692191049561
 30
0.0
 11
1180.748667419915
 21
575.3973461321404
 31
0.0
  0
LINE
  5
EC4
330
1F
100
AcDbEntity
  8
ceco.net 90
100
AcDbLine
 10
1161.376042379296
 20
585.5328210621466
 30
0.0
 11
1171.523576738542
 21
603.9609480893304
 31
0.0
  0
LINE
  5
EC5
330
1F
100
AcDbEntity
  8
ceco.net 90
100
AcDbLine
 10
1167.833584059393
 20
715.4511385520822
 30
0.0
 11
1140.158384671262
 21
719.1367504514349
 31
0.0
  0
LINE
  5
EC6
330
1F
100
AcDbEntity
  8
ceco.net 90
100
AcDbLine
 10
1254.997245961367
 20
757.441411861332
 30
0.0
 11
1314.132163190757
 21
754.5602306041034
 31
0.0
  0
LINE
  5
EC7
330
1F
100
AcDbEntity
  8
ceco.net 90
100
AcDbLine
 10
1250.670275989143
 20
655.1591564631995
 30
0.0
 11
1278.074322273359
 21
760.3226268837172
 31
0.0
  0
LINE
  5
EC8
330
1F
100
AcDbEntity
  8
ceco.net 90
100
AcDbLine
 10
1259.324215933946
 20
768.9661706549659
 30
0.0
 11
1230.477870544345
 21
658.0403377203464
 31
0.0
  0
LINE
  5
EC9
330
1F
100
AcDbEntity
  8
ceco.net 90
100
AcDbLine
 10
1210.90740255034
 20
283.1434798814299
 30
0.0
 11
1225.821477159934
 21
277.9297739115904
 31
0.0
  0
LINE
  5
ECA
330
1F
100
AcDbEntity
  8
ceco.net 90
100
AcDbLine
 10
1205.68748733571
 20
292.0812567209375
 30
0.0
 11
1210.90740255034
 21
283.1434798814299
 31
0.0
  0
LINE
  5
ECB
330
1F
100
AcDbEntity
  8
ceco.net 90
100
AcDbLine
 10
1201.95891419098
 20
303.2534693285203
 30
0.0
 11
1205.68748733571
 21
292.0812567209375
 31
0.0
  0
LINE
  5
ECC
330
1F
100
AcDbEntity
  8
ceco.net 90
100
AcDbLine
 10
1200.467572120754
 20
320.3842223395765
 30
0.0
 11
1201.95891419098
 21
303.2534693285203
 31
0.0
  0
LINE
  5
ECD
330
1F
100
AcDbEntity
  8
ceco.net 90
100
AcDbLine
 10
1201.213243155703
 20
372.5212820398573
 30
0.0
 11
1200.467572120754
 21
320.3842223395765
 31
0.0
  0
LINE
  5
ECE
330
1F
100
AcDbEntity
  8
ceco.net 90
100
AcDbLine
 10
1237.752722316417
 20
306.2327395302299
 30
0.0
 11
1243.718381222638
 21
303.9982699961784
 31
0.0
  0
LINE
  5
ECF
330
1F
100
AcDbEntity
  8
ceco.net 90
100
AcDbLine
 10
1234.024221828002
 20
312.1912461676999
 30
0.0
 11
1237.752722316417
 21
306.2327395302299
 31
0.0
  0
LINE
  5
ED0
330
1F
100
AcDbEntity
  8
ceco.net 90
100
AcDbLine
 10
1231.787136066155
 20
318.8945872386947
 30
0.0
 11
1234.024221828002
 21
312.1912461676999
 31
0.0
  0
LINE
  5
ED1
330
1F
100
AcDbEntity
  8
ceco.net 90
100
AcDbLine
 10
1233.278550792724
 20
373.2660827074883
 30
0.0
 11
1231.787136066155
 21
318.8945872386947
 31
0.0
  0
LINE
  5
ED2
330
1F
100
AcDbEntity
  8
ceco.net 90
100
AcDbLine
 10
1224.330062433364
 20
314.4256819361578
 30
0.0
 11
1222.838647706823
 21
373.2660827074883
 31
0.0
  0
LINE
  5
ED3
330
1F
100
AcDbEntity
  8
ceco.net 90
100
AcDbLine
 10
1225.821477159934
 20
309.9568103991875
 30
0.0
 11
1224.330062433364
 21
314.4256819361578
 31
0.0
  0
LINE
  5
ED4
330
1F
100
AcDbEntity
  8
ceco.net 90
100
AcDbLine
 10
1231.041392374891
 20
303.2534693285203
 30
0.0
 11
1225.821477159934
 21
309.9568103991875
 31
0.0
  0
LINE
  5
ED5
330
1F
100
AcDbEntity
  8
ceco.net 90
100
AcDbLine
 10
1237.752722316417
 20
298.7845640260109
 30
0.0
 11
1231.041392374891
 21
303.2534693285203
 31
0.0
  0
LINE
  5
ED6
330
1F
100
AcDbEntity
  8
ceco.net 90
100
AcDbLine
 10
1254.158211652553
 20
296.5501282575256
 30
0.0
 11
1237.752722316417
 21
298.7845640260109
 31
0.0
  0
LINE
  5
ED7
330
1F
100
AcDbEntity
  8
ceco.net 90
100
AcDbLine
 10
1178.11240825204
 20
312.2750185161713
 30
0.0
 11
1169.794939374299
 21
288.1076921469783
 31
0.0
  0
LINE
  5
ED8
330
1F
100
AcDbEntity
  8
ceco.net 90
100
AcDbLine
 10
1188.69820507661
 20
373.4485180149295
 30
0.0
 11
1178.11240825204
 21
312.2750185161713
 31
0.0
  0
LINE
  5
ED9
330
1F
100
AcDbEntity
  8
ceco.net 90
100
AcDbLine
 10
1178.868541786194
 20
373.4485180149295
 30
0.0
 11
1171.307206442934
 21
329.6452706263748
 31
0.0
  0
LINE
  5
EDA
330
1F
100
AcDbEntity
  8
ceco.net 90
100
AcDbLine
 10
1204.516268677516
 20
374.2430215832052
 30
0.0
 11
1360.286243158371
 21
372.8024140718351
 31
0.0
  0
LINE
  5
EDB
330
1F
100
AcDbEntity
  8
ceco.net 90
100
AcDbLine
 10
1208.843165993753
 20
381.4459916086229
 30
0.0
 11
1214.612435071744
 21
447.7133968796119
 31
0.0
  0
LINE
  5
EDC
330
1F
100
AcDbEntity
  8
ceco.net 90
100
AcDbLine
 10
1182.881491470937
 20
384.3272066310081
 30
0.0
 11
1208.843165993753
 21
381.4459916086229
 31
0.0
  0
LINE
  5
EDD
330
1F
100
AcDbEntity
  8
ceco.net 90
100
AcDbLine
 10
1146.354945122014
 20
260.1642621847685
 30
0.0
 11
1129.720080022819
 21
253.3671879261887
 31
0.0
  0
LINE
  5
EDE
330
1F
100
AcDbEntity
  8
ceco.net 90
100
AcDbLine
 10
1153.160146931119
 20
265.450834227975
 30
0.0
 11
1146.354945122014
 21
260.1642621847685
 31
0.0
  0
LINE
  5
EDF
330
1F
100
AcDbEntity
  8
ceco.net 90
100
AcDbLine
 10
1127.451679419676
 20
266.9613026778095
 30
0.0
 11
1113.841348457807
 21
263.9403995437338
 31
0.0
  0
LINE
  5
EE0
330
1F
100
AcDbEntity
  8
ceco.net 90
100
AcDbLine
 10
1137.281415366079
 20
272.2479084865547
 30
0.0
 11
1127.451679419676
 21
266.9613026778095
 31
0.0
  0
LINE
  5
EE1
330
1F
100
AcDbEntity
  8
ceco.net 90
100
AcDbLine
 10
1148.623345725159
 20
283.5763205631231
 30
0.0
 11
1137.281415366079
 21
272.2479084865547
 31
0.0
  0
LINE
  5
EE2
330
1F
100
AcDbEntity
  8
ceco.net 90
100
AcDbLine
 10
1159.965276083882
 20
295.6600006304751
 30
0.0
 11
1148.623345725159
 21
283.5763205631231
 31
0.0
  0
LINE
  5
EE3
330
1F
100
AcDbEntity
  8
ceco.net 90
100
AcDbLine
 10
1127.451679419676
 20
277.5345142953546
 30
0.0
 11
1112.329081389144
 21
273.7583431708501
 31
0.0
  0
LINE
  5
EE4
330
1F
100
AcDbEntity
  8
ceco.net 90
100
AcDbLine
 10
1136.52528183157
 20
287.3524579220883
 30
0.0
 11
1127.451679419676
 21
277.5345142953546
 31
0.0
  0
LINE
  5
EE5
330
1F
100
AcDbEntity
  8
ceco.net 90
100
AcDbLine
 10
1144.842678053351
 20
297.1704353147164
 30
0.0
 11
1136.52528183157
 21
287.3524579220883
 31
0.0
  0
LINE
  5
EE6
330
1F
100
AcDbEntity
  8
ceco.net 90
100
AcDbLine
 10
1154.672341343412
 20
316.8063900996439
 30
0.0
 11
1144.842678053351
 21
297.1704353147164
 31
0.0
  0
LINE
  5
EE7
330
1F
100
AcDbEntity
  8
ceco.net 90
100
AcDbLine
 10
1162.989810221181
 20
341.7289169281882
 30
0.0
 11
1154.672341343412
 21
316.8063900996439
 31
0.0
  0
LINE
  5
EE8
330
1F
100
AcDbEntity
  8
ceco.net 90
100
AcDbLine
 10
1116.109749060596
 20
282.0658858788819
 30
0.0
 11
1094.938082755469
 21
279.0449489792678
 31
0.0
  0
LINE
  5
EE9
330
1F
100
AcDbEntity
  8
ceco.net 90
100
AcDbLine
 10
1123.671084404211
 20
286.5972574627371
 30
0.0
 11
1116.109749060596
 21
282.0658858788819
 31
0.0
  0
LINE
  5
EEA
330
1F
100
AcDbEntity
  8
ceco.net 90
100
AcDbLine
 10
1133.500747694272
 20
297.9256695396609
 30
0.0
 11
1123.671084404211
 21
286.5972574627371
 31
0.0
  0
LINE
  5
EEB
330
1F
100
AcDbEntity
  8
ceco.net 90
100
AcDbLine
 10
1142.574277450207
 20
313.785453200412
 30
0.0
 11
1133.500747694272
 21
297.9256695396609
 31
0.0
  0
LINE
  5
EEC
330
1F
100
AcDbEntity
  8
ceco.net 90
100
AcDbLine
 10
1148.623345725159
 20
328.1348021765674
 30
0.0
 11
1142.574277450207
 21
313.785453200412
 31
0.0
  0
LINE
  5
EED
330
1F
100
AcDbEntity
  8
ceco.net 90
100
AcDbLine
 10
1152.404013396611
 20
350.0364258710087
 30
0.0
 11
1148.623345725159
 21
328.1348021765674
 31
0.0
  0
LINE
  5
EEE
330
1F
100
AcDbEntity
  8
ceco.net 90
100
AcDbLine
 10
1152.404013396611
 20
368.9171464310467
 30
0.0
 11
1152.404013396611
 21
350.0364258710087
 31
0.0
  0
LINE
  5
EEF
330
1F
100
AcDbEntity
  8
ceco.net 90
100
AcDbLine
 10
1037.207683384665
 20
372.8024140718351
 30
0.0
 11
1031.438414306674
 21
372.8024140718351
 31
0.0
  0
LINE
  5
EF0
330
1F
100
AcDbEntity
  8
ceco.net 90
100
AcDbLine
 10
1040.092354251832
 20
377.1242028403792
 30
0.0
 11
1037.207683384665
 21
372.8024140718351
 31
0.0
  0
LINE
  5
EF1
330
1F
100
AcDbEntity
  8
ceco.net 90
100
AcDbLine
 10
1040.092354251832
 20
467.8817332097061
 30
0.0
 11
1040.092354251832
 21
377.1242028403792
 31
0.0
  0
LINE
  5
EF2
330
1F
100
AcDbEntity
  8
ceco.net 90
100
AcDbLine
 10
1169.794939374299
 20
288.1076921469783
 30
0.0
 11
1153.160146931119
 21
265.450834227975
 31
0.0
  0
LINE
  5
EF3
330
1F
100
AcDbEntity
  8
ceco.net 90
100
AcDbLine
 10
1171.307206442934
 20
329.6452706263748
 30
0.0
 11
1159.965276083882
 21
295.6600006304751
 31
0.0
  0
LINE
  5
EF4
330
1F
100
AcDbEntity
  8
ceco.net 90
100
AcDbLine
 10
1038.65005514642
 20
372.8024140718351
 30
0.0
 11
1204.516268677516
 21
374.2430215832052
 31
0.0
  0
LINE
  5
EF5
330
1F
100
AcDbEntity
  8
ceco.net 90
100
AcDbLine
 10
1181.439192365525
 20
384.3272066310081
 30
0.0
 11
1045.861623329823
 21
384.3272066310081
 31
0.0
  0
LINE
  5
EF6
330
1F
100
AcDbEntity
  8
ceco.net 90
100
AcDbLine
 10
1166.770477892988
 20
373.4485180149295
 30
0.0
 11
1162.989810221181
 21
341.7289169281882
 31
0.0
  0
LINE
  5
EF7
330
1F
100
AcDbEntity
  8
ceco.net 90
100
AcDbLine
 10
1214.612435071744
 20
447.7133968796119
 30
0.0
 11
1229.035571438578
 21
542.7926822519712
 31
0.0
  0
LINE
  5
EF8
330
1F
100
AcDbEntity
  8
ceco.net 90
100
AcDbLine
 10
1201.63159781035
 20
501.0154358452143
 30
0.0
 11
1182.881491470937
 21
384.3272066310081
 31
0.0
  0
LINE
  5
EF9
330
1F
100
AcDbEntity
  8
ceco.net 90
100
AcDbLine
 10
1038.65005514642
 20
476.5253107465484
 30
0.0
 11
1040.092354251832
 21
467.8817332097061
 31
0.0
  0
LINE
  5
EFA
330
1F
100
AcDbEntity
  8
ceco.net 90
100
AcDbLine
 10
1225.821477159934
 20
277.9297739115904
 30
0.0
 11
1499.494880658932
 21
279.4193752464964
 31
0.0
  0
LINE
  5
EFB
330
1F
100
AcDbEntity
  8
ceco.net 90
100
AcDbLine
 10
1243.718381222638
 20
303.9982699961784
 30
0.0
 11
1480.852305560922
 21
304.7431044294022
 31
0.0
  0
LINE
  5
EFC
330
1F
100
AcDbEntity
  8
ceco.net 90
100
AcDbLine
 10
1474.140902963409
 20
295.8053275898951
 30
0.0
 11
1254.158211652553
 21
296.5501282575256
 31
0.0
  0
LINE
  5
EFD
330
1F
100
AcDbEntity
  8
ceco.net 90
100
AcDbLine
 10
1360.286243158371
 20
372.8024140718351
 30
0.0
 11
1542.017892161687
 21
369.921232814934
 31
0.0
  0
LINE
  5
EFE
330
1F
100
AcDbEntity
  8
ceco.net 90
100
AcDbLine
 10
1542.017892161687
 20
378.5648103514213
 30
0.0
 11
1210.285465099165
 21
382.8865991200205
 31
0.0
  0
LINE
  5
EFF
330
1F
100
AcDbEntity
  8
ceco.net 90
100
AcDbLine
 10
1314.132163190757
 20
754.5602306041034
 30
0.0
 11
1420.863459492819
 21
748.7978343245167
 31
0.0
  0
LINE
  5
F00
330
1F
100
AcDbEntity
  8
ceco.net 90
100
AcDbLine
 10
1236.247139621981
 20
577.3669923984946
 30
0.0
 11
1552.114131212285
 21
575.9263848874794
 31
0.0
  0
LINE
  5
F01
330
1F
100
AcDbEntity
  8
ceco.net 90
100
AcDbLine
 10
1379.036349497784
 20
924.5504987843217
 30
0.0
 11
1353.074674974968
 21
923.109891272924
 31
0.0
  0
LINE
  5
F02
330
1F
100
AcDbEntity
  8
ceco.net 90
100
AcDbLine
 10
1340.093837713573
 20
885.6544336347658
 30
0.0
 11
1379.036349497784
 21
924.5504987843217
 31
0.0
  0
LINE
  5
F03
330
1F
100
AcDbEntity
  8
ceco.net 90
100
AcDbLine
 10
1508.869207266223
 20
949.4456417453495
 30
0.0
 11
1456.544359814715
 21
1096.605767165138
 31
0.0
  0
LINE
  5
F04
330
1F
100
AcDbEntity
  8
ceco.net 90
100
AcDbLine
 10
1495.09946850422
 20
939.8183722217027
 30
0.0
 11
1420.743140752336
 21
1162.621551501464
 31
0.0
  0
LINE
  5
F05
330
1F
100
AcDbEntity
  8
ceco.net 90
100
AcDbLine
 10
1441.397639910828
 20
1016.836731004846
 30
0.0
 11
1375.303126353658
 21
1180.500819391426
 31
0.0
  0
LINE
  5
F06
330
1F
100
AcDbEntity
  8
ceco.net 90
100
AcDbLine
 10
1227.512769214696
 20
1041.138444292433
 30
0.0
 11
1225.596097490252
 21
1009.551508081028
 31
0.0
  0
LINE
  5
F07
330
1F
100
AcDbEntity
  8
ceco.net 90
100
AcDbLine
 10
1554.920188023155
 20
1044.363055035154
 30
0.0
 11
1538.64649711411
 21
1035.074893005288
 31
0.0
  0
LINE
  5
F08
330
1F
100
AcDbEntity
  8
ceco.net 90
100
AcDbLine
 10
1680.460078941574
 20
1029.269783295462
 30
0.0
 11
1659.536751679041
 21
1039.718974020003
 31
0.0
  0
LINE
  5
F09
330
1F
100
AcDbEntity
  8
ceco.net 90
100
AcDbLine
 10
1148.103054359563
 20
1330.411588422879
 30
0.0
 11
1028.306712208974
 21
1342.789535323673
 31
0.0
  0
LINE
  5
F0A
330
1F
100
AcDbEntity
  8
ceco.net 90
100
AcDbLine
 10
914.0182219693338
 20
1349.66619500125
 30
0.0
 11
765.3054938091968
 21
1352.416838612859
 31
0.0
  0
LINE
  5
F0B
330
1F
100
AcDbEntity
  8
ceco.net 90
100
AcDbLine
 10
619.1585482596138
 20
1349.66619500125
 30
0.0
 11
767.8712764201057
 21
1352.416838612859
 31
0.0
  0
LINE
  5
F0C
330
1F
100
AcDbEntity
  8
ceco.net 90
100
AcDbLine
 10
1028.306712208974
 20
1342.789535323673
 30
0.0
 11
914.0182219693338
 21
1349.66619500125
 31
0.0
  0
LINE
  5
F0D
330
1F
100
AcDbEntity
  8
ceco.net 90
100
AcDbLine
 10
385.0737158693842
 20
1330.411588422879
 30
0.0
 11
504.8700580199728
 21
1342.789535323673
 31
0.0
  0
LINE
  5
F0E
330
1F
100
AcDbEntity
  8
ceco.net 90
100
AcDbLine
 10
504.8700580199728
 20
1342.789535323673
 30
0.0
 11
619.1585482596138
 21
1349.66619500125
 31
0.0
  0
LINE
  5
F0F
330
1F
100
AcDbEntity
  8
ceco.net 90
100
AcDbLine
 10
1449.54228678397
 20
113.1015326776323
 30
0.0
 11
1419.607523654569
 21
113.1015326776323
 31
0.0
  0
LINE
  5
F10
330
1F
100
AcDbEntity
  8
ceco.net 90
100
AcDbLine
 10
1449.54228678397
 20
101.1495333925168
 30
0.0
 11
1419.607523654569
 21
101.1495333925439
 31
0.0
  0
LINE
  5
F11
330
1F
100
AcDbEntity
  8
ceco.net 90
100
AcDbLine
 10
1449.542286783996
 20
89.19753410701876
 30
0.0
 11
1419.607523654569
 21
89.19753410701876
 31
0.0
  0
LINE
  5
F12
330
1F
100
AcDbEntity
  8
ceco.net 90
100
AcDbLine
 10
1449.542286783996
 20
77.24553482190325
 30
0.0
 11
1419.607523654569
 21
77.24553482193076
 31
0.0
  0
LINE
  5
F13
330
1F
100
AcDbEntity
  8
ceco.net 90
100
AcDbLine
 10
1449.542286784024
 20
65.29353553684233
 30
0.0
 11
1419.607523654569
 21
65.29353553684233
 31
0.0
  0
LINE
  5
F14
330
1F
100
AcDbEntity
  8
ceco.net 90
100
AcDbLine
 10
1449.542286784051
 20
53.34153625172682
 30
0.0
 11
1419.607523654569
 21
53.34153625175432
 31
0.0
  0
LINE
  5
F15
330
1F
100
AcDbEntity
  8
ceco.net 90
100
AcDbLine
 10
1449.542286784051
 20
41.38953696622916
 30
0.0
 11
1420.064288747823
 21
41.38953696622916
 31
0.0
  0
LINE
  5
F16
330
1F
100
AcDbEntity
  8
ceco.net 90
100
AcDbLine
 10
1449.542286784106
 20
29.43753768114074
 30
0.0
 11
1423.350658210672
 21
29.43753768114074
 31
0.0
  0
LINE
  5
F17
330
1F
100
AcDbEntity
  8
ceco.net 90
100
AcDbLine
 10
1449.542286784106
 20
17.48553839561559
 30
0.0
 11
1430.572621184302
 21
17.48553839561559
 31
0.0
  0
LINE
  5
F18
330
1F
100
AcDbEntity
  8
ceco.net 90
100
AcDbLine
 10
1467.023795056796
 20
0.0040301228983684
 30
0.0
 11
1449.542286784106
 21
17.48553839561559
 31
0.0
  0
LINE
  5
F19
330
1F
100
AcDbEntity
  8
ceco.net 90
100
AcDbLine
 10
1449.542286783833
 20
197.327434261879
 30
0.0
 11
1449.542286784133
 21
3.541351783824618
 31
0.0
  0
LINE
  5
F1A
330
1F
100
AcDbEntity
  8
ceco.net 90
100
AcDbLine
 10
1482.994791384092
 20
198.1087543424577
 30
0.0
 11
1482.994791384392
 21
0.0000000000275038
 31
0.0
  0
LINE
  5
F1B
330
1F
100
AcDbEntity
  8
ceco.net 90
100
AcDbLine
 10
1616.804809788406
 20
409.6874706465169
 30
0.0
 11
1616.804809787806
 21
3.541351783414979
 31
0.0
  0
LINE
  5
F1C
330
1F
100
AcDbEntity
  8
ceco.net 90
100
AcDbLine
 10
1478.979824465165
 20
0.0000000000275038
 30
0.0
 11
1449.542286784106
 21
29.43753768114074
 31
0.0
  0
LINE
  5
F1D
330
1F
100
AcDbEntity
  8
ceco.net 90
100
AcDbLine
 10
1482.994791384365
 20
7.937032365969932
 30
0.0
 11
1449.542286784106
 21
41.38953696622916
 31
0.0
  0
LINE
  5
F1E
330
1F
100
AcDbEntity
  8
ceco.net 90
100
AcDbLine
 10
1482.994791384365
 20
19.88903165149508
 30
0.0
 11
1449.542286784106
 21
53.34153625175432
 31
0.0
  0
LINE
  5
F1F
330
1F
100
AcDbEntity
  8
ceco.net 90
100
AcDbLine
 10
1482.994791384338
 20
31.84103093658309
 30
0.0
 11
1449.542286784106
 21
65.29353553684233
 31
0.0
  0
LINE
  5
F20
330
1F
100
AcDbEntity
  8
ceco.net 90
100
AcDbLine
 10
1482.994791384311
 20
43.7930302216715
 30
0.0
 11
1449.542286784106
 21
77.24553482193076
 31
0.0
  0
LINE
  5
F21
330
1F
100
AcDbEntity
  8
ceco.net 90
100
AcDbLine
 10
1482.994791384311
 20
55.74502950681411
 30
0.0
 11
1449.542286784106
 21
89.19753410701876
 31
0.0
  0
LINE
  5
F22
330
1F
100
AcDbEntity
  8
ceco.net 90
100
AcDbLine
 10
1482.994791384283
 20
67.69702879130162
 30
0.0
 11
1449.542286783095
 21
101.1495333925439
 31
0.0
  0
LINE
  5
F23
330
1F
100
AcDbEntity
  8
ceco.net 90
100
AcDbLine
 10
1482.994791384256
 20
79.64902807748228
 30
0.0
 11
1449.542286784106
 21
113.1015326776323
 31
0.0
  0
LINE
  5
F24
330
1F
100
AcDbEntity
  8
ceco.net 90
100
AcDbLine
 10
1449.542286783833
 20
196.7655276747248
 30
0.0
 11
1431.402478592251
 21
196.7655276746702
 31
0.0
  0
LINE
  5
F25
330
1F
100
AcDbEntity
  8
ceco.net 90
100
AcDbLine
 10
1449.542286783833
 20
184.8135283891721
 30
0.0
 11
1419.607523654433
 21
184.8135283891721
 31
0.0
  0
LINE
  5
F26
330
1F
100
AcDbEntity
  8
ceco.net 90
100
AcDbLine
 10
1449.54228678386
 20
172.8615291040566
 30
0.0
 11
1419.607523654433
 21
172.8615291040837
 31
0.0
  0
LINE
  5
F27
330
1F
100
AcDbEntity
  8
ceco.net 90
100
AcDbLine
 10
1449.542286783887
 20
160.9095298189957
 30
0.0
 11
1419.607523654433
 21
160.9095298189957
 31
0.0
  0
LINE
  5
F28
330
1F
100
AcDbEntity
  8
ceco.net 90
100
AcDbLine
 10
1449.542286783915
 20
148.9575305338802
 30
0.0
 11
1419.607523654433
 21
148.9575305339073
 31
0.0
  0
LINE
  5
F29
330
1F
100
AcDbEntity
  8
ceco.net 90
100
AcDbLine
 10
1449.542286783915
 20
137.0055312483821
 30
0.0
 11
1420.064288747686
 21
137.0055312483821
 31
0.0
  0
LINE
  5
F2A
330
1F
100
AcDbEntity
  8
ceco.net 90
100
AcDbLine
 10
1449.542286783915
 20
125.0535319632941
 30
0.0
 11
1419.532600457883
 21
125.0535319632941
 31
0.0
  0
LINE
  5
F2B
330
1F
100
AcDbEntity
  8
ceco.net 90
100
AcDbLine
 10
1482.994791384229
 20
91.60102736295284
 30
0.0
 11
1449.54228678397
 21
125.0535319632941
 31
0.0
  0
LINE
  5
F2C
330
1F
100
AcDbEntity
  8
ceco.net 90
100
AcDbLine
 10
1482.994791384229
 20
103.5530266480958
 30
0.0
 11
1449.54228678397
 21
137.0055312483821
 31
0.0
  0
LINE
  5
F2D
330
1F
100
AcDbEntity
  8
ceco.net 90
100
AcDbLine
 10
1482.994791384201
 20
115.5050259336755
 30
0.0
 11
1449.54228678397
 21
148.9575305339073
 31
0.0
  0
LINE
  5
F2E
330
1F
100
AcDbEntity
  8
ceco.net 90
100
AcDbLine
 10
1482.994791384174
 20
127.4570252187636
 30
0.0
 11
1449.54228678397
 21
160.9095298189957
 31
0.0
  0
LINE
  5
F2F
330
1F
100
AcDbEntity
  8
ceco.net 90
100
AcDbLine
 10
1482.994791384174
 20
139.409024503852
 30
0.0
 11
1449.54228678397
 21
172.8615291040837
 31
0.0
  0
LINE
  5
F30
330
1F
100
AcDbEntity
  8
ceco.net 90
100
AcDbLine
 10
1482.994791384146
 20
151.361023788995
 30
0.0
 11
1449.54228678397
 21
184.8135283891721
 31
0.0
  0
LINE
  5
F31
330
1F
100
AcDbEntity
  8
ceco.net 90
100
AcDbLine
 10
1482.99479138412
 20
163.3130230735642
 30
0.0
 11
1449.542286782959
 21
196.7655276746973
 31
0.0
  0
LINE
  5
F32
330
1F
100
AcDbEntity
  8
ceco.net 90
100
AcDbLine
 10
1482.99479138412
 20
175.2650223597449
 30
0.0
 11
1460.311804289419
 21
197.948009454281
 31
0.0
  0
LINE
  5
F33
330
1F
100
AcDbEntity
  8
ceco.net 90
100
AcDbLine
 10
1482.994791384092
 20
187.2170216459526
 30
0.0
 11
1472.237366569679
 21
197.9744464603388
 31
0.0
  0
LINE
  5
F34
330
1F
100
AcDbEntity
  8
ceco.net 90
100
AcDbLine
 10
1498.961757589091
 20
0.0000000000545908
 30
0.0
 11
1516.447295984679
 21
17.48553839561559
 31
0.0
  0
LINE
  5
F35
330
1F
100
AcDbEntity
  8
ceco.net 90
100
AcDbLine
 10
1516.447295984952
 20
198.5264133196074
 30
0.0
 11
1516.447295984652
 21
0.0000000000275038
 31
0.0
  0
LINE
  5
F36
330
1F
100
AcDbEntity
  8
ceco.net 90
100
AcDbLine
 10
1487.00975830362
 20
0.0000000000275038
 30
0.0
 11
1516.447295984679
 21
29.43753768114074
 31
0.0
  0
LINE
  5
F37
330
1F
100
AcDbEntity
  8
ceco.net 90
100
AcDbLine
 10
1482.99479138442
 20
7.937032365969932
 30
0.0
 11
1516.447295984679
 21
41.38953696622916
 31
0.0
  0
LINE
  5
F38
330
1F
100
AcDbEntity
  8
ceco.net 90
100
AcDbLine
 10
1482.99479138442
 20
19.88903165149508
 30
0.0
 11
1516.447295984679
 21
53.34153625175432
 31
0.0
  0
LINE
  5
F39
330
1F
100
AcDbEntity
  8
ceco.net 90
100
AcDbLine
 10
1482.994791384447
 20
31.84103093658309
 30
0.0
 11
1516.447295984679
 21
65.29353553684233
 31
0.0
  0
LINE
  5
F3A
330
1F
100
AcDbEntity
  8
ceco.net 90
100
AcDbLine
 10
1482.994791384475
 20
43.7930302216715
 30
0.0
 11
1516.447295984679
 21
77.24553482193076
 31
0.0
  0
LINE
  5
F3B
330
1F
100
AcDbEntity
  8
ceco.net 90
100
AcDbLine
 10
1482.994791384475
 20
55.74502950681411
 30
0.0
 11
1516.447295984679
 21
89.19753410701876
 31
0.0
  0
LINE
  5
F3C
330
1F
100
AcDbEntity
  8
ceco.net 90
100
AcDbLine
 10
1482.994791384502
 20
67.69702879130162
 30
0.0
 11
1516.447295985689
 21
101.1495333925439
 31
0.0
  0
LINE
  5
F3D
330
1F
100
AcDbEntity
  8
ceco.net 90
100
AcDbLine
 10
1482.994791384529
 20
79.64902807748228
 30
0.0
 11
1516.447295984679
 21
113.1015326776323
 31
0.0
  0
LINE
  5
F3E
330
1F
100
AcDbEntity
  8
ceco.net 90
100
AcDbLine
 10
1482.994791384557
 20
91.60102736295284
 30
0.0
 11
1516.447295984816
 21
125.0535319632941
 31
0.0
  0
LINE
  5
F3F
330
1F
100
AcDbEntity
  8
ceco.net 90
100
AcDbLine
 10
1482.994791384557
 20
103.5530266480958
 30
0.0
 11
1516.447295984816
 21
137.0055312483821
 31
0.0
  0
LINE
  5
F40
330
1F
100
AcDbEntity
  8
ceco.net 90
100
AcDbLine
 10
1482.994791384584
 20
115.5050259336755
 30
0.0
 11
1516.447295984816
 21
148.9575305339073
 31
0.0
  0
LINE
  5
F41
330
1F
100
AcDbEntity
  8
ceco.net 90
100
AcDbLine
 10
1482.994791384611
 20
127.4570252187636
 30
0.0
 11
1516.447295984816
 21
160.9095298189957
 31
0.0
  0
LINE
  5
F42
330
1F
100
AcDbEntity
  8
ceco.net 90
100
AcDbLine
 10
1482.994791384611
 20
139.409024503852
 30
0.0
 11
1516.447295984816
 21
172.8615291040837
 31
0.0
  0
LINE
  5
F43
330
1F
100
AcDbEntity
  8
ceco.net 90
100
AcDbLine
 10
1482.994791384638
 20
151.361023788995
 30
0.0
 11
1516.447295984816
 21
184.8135283891721
 31
0.0
  0
LINE
  5
F44
330
1F
100
AcDbEntity
  8
ceco.net 90
100
AcDbLine
 10
1482.994791384665
 20
163.3130230735642
 30
0.0
 11
1516.447295985826
 21
196.7655276746973
 31
0.0
  0
LINE
  5
F45
330
1F
100
AcDbEntity
  8
ceco.net 90
100
AcDbLine
 10
1482.994791384665
 20
175.2650223597449
 30
0.0
 11
1506.127336272659
 21
198.3975672475471
 31
0.0
  0
LINE
  5
F46
330
1F
100
AcDbEntity
  8
ceco.net 90
100
AcDbLine
 10
1482.994791384693
 20
187.2170216459526
 30
0.0
 11
1493.752216199107
 21
197.9744464603388
 31
0.0
  0
LINE
  5
F47
330
1F
100
AcDbEntity
  8
ceco.net 90
100
AcDbLine
 10
1510.913756874561
 20
0.0
 30
0.0
 11
1516.447295984652
 21
5.533539110062936
 31
0.0
  0
LINE
  5
F48
330
1F
100
AcDbEntity
  8
ceco.net 90
100
AcDbLine
 10
1549.899800585539
 20
202.5330780331445
 30
0.0
 11
1549.899800585239
 21
0.0000000000275038
 31
0.0
  0
LINE
  5
F49
330
1F
100
AcDbEntity
  8
ceco.net 90
100
AcDbLine
 10
1533.93283438054
 20
0.0000000000545908
 30
0.0
 11
1516.447295984952
 21
17.48553839561559
 31
0.0
  0
LINE
  5
F4A
330
1F
100
AcDbEntity
  8
ceco.net 90
100
AcDbLine
 10
1545.884833666011
 20
0.0000000000275038
 30
0.0
 11
1516.447295984952
 21
29.43753768114074
 31
0.0
  0
LINE
  5
F4B
330
1F
100
AcDbEntity
  8
ceco.net 90
100
AcDbLine
 10
1549.899800585212
 20
7.937032365969932
 30
0.0
 11
1516.447295984952
 21
41.38953696622916
 31
0.0
  0
LINE
  5
F4C
330
1F
100
AcDbEntity
  8
ceco.net 90
100
AcDbLine
 10
1549.899800585212
 20
19.88903165149508
 30
0.0
 11
1516.447295984952
 21
53.34153625175432
 31
0.0
  0
LINE
  5
F4D
330
1F
100
AcDbEntity
  8
ceco.net 90
100
AcDbLine
 10
1549.899800585184
 20
31.84103093658309
 30
0.0
 11
1516.447295984952
 21
65.29353553684233
 31
0.0
  0
LINE
  5
F4E
330
1F
100
AcDbEntity
  8
ceco.net 90
100
AcDbLine
 10
1549.899800585157
 20
43.7930302216715
 30
0.0
 11
1516.447295984952
 21
77.24553482193076
 31
0.0
  0
LINE
  5
F4F
330
1F
100
AcDbEntity
  8
ceco.net 90
100
AcDbLine
 10
1549.899800585157
 20
55.74502950681411
 30
0.0
 11
1516.447295984952
 21
89.19753410701876
 31
0.0
  0
LINE
  5
F50
330
1F
100
AcDbEntity
  8
ceco.net 90
100
AcDbLine
 10
1549.899800585129
 20
67.69702879130162
 30
0.0
 11
1516.447295983941
 21
101.1495333925439
 31
0.0
  0
LINE
  5
F51
330
1F
100
AcDbEntity
  8
ceco.net 90
100
AcDbLine
 10
1549.899800585102
 20
79.64902807748228
 30
0.0
 11
1516.447295984952
 21
113.1015326776323
 31
0.0
  0
LINE
  5
F52
330
1F
100
AcDbEntity
  8
ceco.net 90
100
AcDbLine
 10
1549.899800585075
 20
91.60102736295284
 30
0.0
 11
1516.447295984816
 21
125.0535319632941
 31
0.0
  0
LINE
  5
F53
330
1F
100
AcDbEntity
  8
ceco.net 90
100
AcDbLine
 10
1549.899800585075
 20
103.5530266480958
 30
0.0
 11
1516.447295984816
 21
137.0055312483821
 31
0.0
  0
LINE
  5
F54
330
1F
100
AcDbEntity
  8
ceco.net 90
100
AcDbLine
 10
1549.899800585047
 20
115.5050259336755
 30
0.0
 11
1516.447295984816
 21
148.9575305339073
 31
0.0
  0
LINE
  5
F55
330
1F
100
AcDbEntity
  8
ceco.net 90
100
AcDbLine
 10
1549.89980058502
 20
127.4570252187636
 30
0.0
 11
1516.447295984816
 21
160.9095298189957
 31
0.0
  0
LINE
  5
F56
330
1F
100
AcDbEntity
  8
ceco.net 90
100
AcDbLine
 10
1549.89980058502
 20
139.409024503852
 30
0.0
 11
1516.447295984816
 21
172.8615291040837
 31
0.0
  0
LINE
  5
F57
330
1F
100
AcDbEntity
  8
ceco.net 90
100
AcDbLine
 10
1549.899800584993
 20
151.361023788995
 30
0.0
 11
1516.447295984816
 21
184.8135283891721
 31
0.0
  0
LINE
  5
F58
330
1F
100
AcDbEntity
  8
ceco.net 90
100
AcDbLine
 10
1549.899800584966
 20
163.3130230735642
 30
0.0
 11
1516.447295983804
 21
196.7655276746973
 31
0.0
  0
LINE
  5
F59
330
1F
100
AcDbEntity
  8
ceco.net 90
100
AcDbLine
 10
1549.899800584966
 20
175.2650223597449
 30
0.0
 11
1526.512741200279
 21
198.6520817442671
 31
0.0
  0
LINE
  5
F5A
330
1F
100
AcDbEntity
  8
ceco.net 90
100
AcDbLine
 10
1549.899800584938
 20
187.2170216459526
 30
0.0
 11
1537.805152875338
 21
199.3116693554982
 31
0.0
  0
LINE
  5
F5B
330
1F
100
AcDbEntity
  8
ceco.net 90
100
AcDbLine
 10
1521.980835095015
 20
0.0
 30
0.0
 11
1516.447295984925
 21
5.533539110062936
 31
0.0
  0
LINE
  5
F5C
330
1F
100
AcDbEntity
  8
ceco.net 90
100
AcDbLine
 10
1565.866766789937
 20
0.0000000000545908
 30
0.0
 11
1583.352305185525
 21
17.48553839561559
 31
0.0
  0
LINE
  5
F5D
330
1F
100
AcDbEntity
  8
ceco.net 90
100
AcDbLine
 10
1553.914767504467
 20
0.0000000000275038
 30
0.0
 11
1583.352305185525
 21
29.43753768114074
 31
0.0
  0
LINE
  5
F5E
330
1F
100
AcDbEntity
  8
ceco.net 90
100
AcDbLine
 10
1549.899800585266
 20
7.937032365969932
 30
0.0
 11
1583.352305185525
 21
41.38953696622916
 31
0.0
  0
LINE
  5
F5F
330
1F
100
AcDbEntity
  8
ceco.net 90
100
AcDbLine
 10
1549.899800585266
 20
19.88903165149508
 30
0.0
 11
1583.352305185525
 21
53.34153625175432
 31
0.0
  0
LINE
  5
F60
330
1F
100
AcDbEntity
  8
ceco.net 90
100
AcDbLine
 10
1549.899800585293
 20
31.84103093658309
 30
0.0
 11
1583.352305185525
 21
65.29353553684233
 31
0.0
  0
LINE
  5
F61
330
1F
100
AcDbEntity
  8
ceco.net 90
100
AcDbLine
 10
1549.899800585321
 20
43.7930302216715
 30
0.0
 11
1583.352305185525
 21
77.24553482193076
 31
0.0
  0
LINE
  5
F62
330
1F
100
AcDbEntity
  8
ceco.net 90
100
AcDbLine
 10
1549.899800585321
 20
55.74502950681411
 30
0.0
 11
1583.352305185525
 21
89.19753410701876
 31
0.0
  0
LINE
  5
F63
330
1F
100
AcDbEntity
  8
ceco.net 90
100
AcDbLine
 10
1549.899800585348
 20
67.69702879130162
 30
0.0
 11
1583.352305186536
 21
101.1495333925439
 31
0.0
  0
LINE
  5
F64
330
1F
100
AcDbEntity
  8
ceco.net 90
100
AcDbLine
 10
1549.899800585375
 20
79.64902807748228
 30
0.0
 11
1583.352305185525
 21
113.1015326776323
 31
0.0
  0
LINE
  5
F65
330
1F
100
AcDbEntity
  8
ceco.net 90
100
AcDbLine
 10
1549.899800585403
 20
91.60102736295284
 30
0.0
 11
1583.352305185662
 21
125.0535319632941
 31
0.0
  0
LINE
  5
F66
330
1F
100
AcDbEntity
  8
ceco.net 90
100
AcDbLine
 10
1549.899800585403
 20
103.5530266480958
 30
0.0
 11
1583.352305185662
 21
137.0055312483821
 31
0.0
  0
LINE
  5
F67
330
1F
100
AcDbEntity
  8
ceco.net 90
100
AcDbLine
 10
1549.89980058543
 20
115.5050259336755
 30
0.0
 11
1583.352305185662
 21
148.9575305339073
 31
0.0
  0
LINE
  5
F68
330
1F
100
AcDbEntity
  8
ceco.net 90
100
AcDbLine
 10
1549.899800585458
 20
127.4570252187636
 30
0.0
 11
1583.352305185662
 21
160.9095298189957
 31
0.0
  0
LINE
  5
F69
330
1F
100
AcDbEntity
  8
ceco.net 90
100
AcDbLine
 10
1549.899800585458
 20
139.409024503852
 30
0.0
 11
1583.352305185662
 21
172.8615291040837
 31
0.0
  0
LINE
  5
F6A
330
1F
100
AcDbEntity
  8
ceco.net 90
100
AcDbLine
 10
1549.899800585484
 20
151.361023788995
 30
0.0
 11
1583.352305185662
 21
184.8135283891721
 31
0.0
  0
LINE
  5
F6B
330
1F
100
AcDbEntity
  8
ceco.net 90
100
AcDbLine
 10
1549.899800585512
 20
163.3130230735642
 30
0.0
 11
1583.352305186673
 21
196.7655276746973
 31
0.0
  0
LINE
  5
F6C
330
1F
100
AcDbEntity
  8
ceco.net 90
100
AcDbLine
 10
1549.899800585512
 20
175.2650223597449
 30
0.0
 11
1583.352305185935
 21
208.717526959922
 31
0.0
  0
LINE
  5
F6D
330
1F
100
AcDbEntity
  8
ceco.net 90
100
AcDbLine
 10
1549.899800585539
 20
187.2170216459526
 30
0.0
 11
1583.352305185935
 21
220.6695262462393
 31
0.0
  0
LINE
  5
F6E
330
1F
100
AcDbEntity
  8
ceco.net 90
100
AcDbLine
 10
1577.818766075545
 20
0.0000000000275038
 30
0.0
 11
1583.352305185634
 21
5.53353911009044
 31
0.0
  0
LINE
  5
F6F
330
1F
100
AcDbEntity
  8
ceco.net 90
100
AcDbLine
 10
1583.352305185908
 20
225.2407301936138
 30
0.0
 11
1583.352305185634
 21
-0.0000000000270871
 31
0.0
  0
LINE
  5
F70
330
1F
100
AcDbEntity
  8
ceco.net 90
100
AcDbLine
 10
1600.837843583408
 20
0.0000000000545908
 30
0.0
 11
1583.352305187819
 21
17.48553839561559
 31
0.0
  0
LINE
  5
F71
330
1F
100
AcDbEntity
  8
ceco.net 90
100
AcDbLine
 10
1611.149203392879
 20
1.640639476025815
 30
0.0
 11
1583.352305187819
 21
29.43753768114074
 31
0.0
  0
LINE
  5
F72
330
1F
100
AcDbEntity
  8
ceco.net 90
100
AcDbLine
 10
1616.804809787806
 20
7.937032366242887
 30
0.0
 11
1583.352305187819
 21
41.38953696622916
 31
0.0
  0
LINE
  5
F73
330
1F
100
AcDbEntity
  8
ceco.net 90
100
AcDbLine
 10
1616.804809788079
 20
19.88903165149508
 30
0.0
 11
1583.352305187819
 21
53.34153625175432
 31
0.0
  0
LINE
  5
F74
330
1F
100
AcDbEntity
  8
ceco.net 90
100
AcDbLine
 10
1616.804809788051
 20
31.84103093658309
 30
0.0
 11
1583.352305187819
 21
65.29353553684233
 31
0.0
  0
LINE
  5
F75
330
1F
100
AcDbEntity
  8
ceco.net 90
100
AcDbLine
 10
1616.804809788024
 20
43.7930302216715
 30
0.0
 11
1583.352305187819
 21
77.24553482193076
 31
0.0
  0
LINE
  5
F76
330
1F
100
AcDbEntity
  8
ceco.net 90
100
AcDbLine
 10
1616.804809788024
 20
55.74502950681411
 30
0.0
 11
1583.352305187819
 21
89.19753410701876
 31
0.0
  0
LINE
  5
F77
330
1F
100
AcDbEntity
  8
ceco.net 90
100
AcDbLine
 10
1616.804809787997
 20
67.69702879130162
 30
0.0
 11
1583.352305186808
 21
101.1495333925439
 31
0.0
  0
LINE
  5
F78
330
1F
100
AcDbEntity
  8
ceco.net 90
100
AcDbLine
 10
1616.804809787969
 20
79.64902807748228
 30
0.0
 11
1583.352305187819
 21
113.1015326776323
 31
0.0
  0
LINE
  5
F79
330
1F
100
AcDbEntity
  8
ceco.net 90
100
AcDbLine
 10
1616.804809787942
 20
91.60102736295284
 30
0.0
 11
1583.352305187682
 21
125.0535319632941
 31
0.0
  0
LINE
  5
F7A
330
1F
100
AcDbEntity
  8
ceco.net 90
100
AcDbLine
 10
1616.804809787942
 20
103.5530266480958
 30
0.0
 11
1583.352305187682
 21
137.0055312483821
 31
0.0
  0
LINE
  5
F7B
330
1F
100
AcDbEntity
  8
ceco.net 90
100
AcDbLine
 10
1616.804809787914
 20
115.5050259336755
 30
0.0
 11
1583.352305187682
 21
148.9575305339073
 31
0.0
  0
LINE
  5
F7C
330
1F
100
AcDbEntity
  8
ceco.net 90
100
AcDbLine
 10
1616.804809787887
 20
127.4570252187636
 30
0.0
 11
1583.352305187682
 21
160.9095298189957
 31
0.0
  0
LINE
  5
F7D
330
1F
100
AcDbEntity
  8
ceco.net 90
100
AcDbLine
 10
1616.804809787887
 20
139.409024503852
 30
0.0
 11
1583.352305187682
 21
172.8615291040837
 31
0.0
  0
LINE
  5
F7E
330
1F
100
AcDbEntity
  8
ceco.net 90
100
AcDbLine
 10
1616.804809787861
 20
151.361023788995
 30
0.0
 11
1583.352305187682
 21
184.8135283891721
 31
0.0
  0
LINE
  5
F7F
330
1F
100
AcDbEntity
  8
ceco.net 90
100
AcDbLine
 10
1616.804809787833
 20
163.3130230735642
 30
0.0
 11
1583.352305186673
 21
196.7655276746973
 31
0.0
  0
LINE
  5
F80
330
1F
100
AcDbEntity
  8
ceco.net 90
100
AcDbLine
 10
1616.804809787833
 20
175.2650223597449
 30
0.0
 11
1583.352305187409
 21
208.717526959922
 31
0.0
  0
LINE
  5
F81
330
1F
100
AcDbEntity
  8
ceco.net 90
100
AcDbLine
 10
1616.804809787806
 20
187.2170216459526
 30
0.0
 11
1583.352305185908
 21
220.6695262477412
 31
0.0
  0
LINE
  5
F82
330
1F
100
AcDbEntity
  8
ceco.net 90
100
AcDbLine
 10
1588.885844298019
 20
0.0000000000275038
 30
0.0
 11
1583.352305187928
 21
5.53353911009044
 31
0.0
  0
LINE
  5
F83
330
1F
100
AcDbEntity
  8
ceco.net 90
100
AcDbLine
 10
1549.899800585484
 20
199.1690209315873
 30
0.0
 11
1547.243301778603
 21
201.8255197384688
 31
0.0
  0
LINE
  5
F84
330
1F
100
AcDbEntity
  8
ceco.net 90
100
AcDbLine
 10
1549.899800586085
 20
199.1690209315873
 30
0.0
 11
1554.485170750537
 21
203.7543910960663
 31
0.0
  0
LINE
  5
F85
330
1F
100
AcDbEntity
  8
ceco.net 90
100
AcDbLine
 10
1616.804809788079
 20
199.1690209318603
 30
0.0
 11
1586.624360121239
 21
229.3494705984539
 31
0.0
  0
LINE
  5
F86
330
1F
100
AcDbEntity
  8
ceco.net 90
100
AcDbLine
 10
1616.804809788051
 20
211.1210202180685
 30
0.0
 11
1592.006280925932
 21
235.9195490800778
 31
0.0
  0
LINE
  5
F87
330
1F
100
AcDbEntity
  8
ceco.net 90
100
AcDbLine
 10
1616.804809788051
 20
223.0730195042491
 30
0.0
 11
1597.388201730545
 21
242.489627561592
 31
0.0
  0
LINE
  5
F88
330
1F
100
AcDbEntity
  8
ceco.net 90
100
AcDbLine
 10
1616.804809788024
 20
235.0250187904569
 30
0.0
 11
1602.144438385023
 21
249.6853901934308
 31
0.0
  0
LINE
  5
F89
330
1F
100
AcDbEntity
  8
ceco.net 90
100
AcDbLine
 10
1616.804809788024
 20
246.9770180766375
 30
0.0
 11
1604.200981839273
 21
259.5808460252787
 31
0.0
  0
LINE
  5
F8A
330
1F
100
AcDbEntity
  8
ceco.net 90
100
AcDbLine
 10
1616.804809787997
 20
258.9290173628457
 30
0.0
 11
1604.977950611059
 21
270.7558765397282
 31
0.0
  0
LINE
  5
F8B
330
1F
100
AcDbEntity
  8
ceco.net 90
100
AcDbLine
 10
1616.804809788188
 20
270.8810166488351
 30
0.0
 11
1605.754919382845
 21
281.9309070540955
 31
0.0
  0
LINE
  5
F8C
330
1F
100
AcDbEntity
  8
ceco.net 90
100
AcDbLine
 10
1616.804809788161
 20
282.8330159350428
 30
0.0
 11
1606.531888154631
 21
293.105937568545
 31
0.0
  0
LINE
  5
F8D
330
1F
100
AcDbEntity
  8
ceco.net 90
100
AcDbLine
 10
1616.804809788161
 20
294.7850152212235
 30
0.0
 11
1607.308856926416
 21
304.2809680829127
 31
0.0
  0
LINE
  5
F8E
330
1F
100
AcDbEntity
  8
ceco.net 90
100
AcDbLine
 10
1616.804809788133
 20
306.7370145074316
 30
0.0
 11
1608.085825698203
 21
315.4559985973075
 31
0.0
  0
LINE
  5
F8F
330
1F
100
AcDbEntity
  8
ceco.net 90
100
AcDbLine
 10
1616.804809788133
 20
318.6890137936123
 30
0.0
 11
1608.862794469988
 21
326.6310291117295
 31
0.0
  0
LINE
  5
F90
330
1F
100
AcDbEntity
  8
ceco.net 90
100
AcDbLine
 10
1616.804809788106
 20
330.64101307982
 30
0.0
 11
1609.639763241774
 21
337.8060596261243
 31
0.0
  0
LINE
  5
F91
330
1F
100
AcDbEntity
  8
ceco.net 90
100
AcDbLine
 10
1616.804809788297
 20
342.5930123658095
 30
0.0
 11
1610.41673201356
 21
348.9810901404921
 31
0.0
  0
LINE
  5
F92
330
1F
100
AcDbEntity
  8
ceco.net 90
100
AcDbLine
 10
1616.80480978827
 20
354.5450116520176
 30
0.0
 11
1611.193700785346
 21
360.156120654914
 31
0.0
  0
LINE
  5
F93
330
1F
100
AcDbEntity
  8
ceco.net 90
100
AcDbLine
 10
1616.804809788297
 20
366.4970109381707
 30
0.0
 11
1611.970669557131
 21
371.3311511693364
 31
0.0
  0
LINE
  5
F94
330
1F
100
AcDbEntity
  8
ceco.net 90
100
AcDbLine
 10
1616.804809788325
 20
378.4490102243243
 30
0.0
 11
1613.191222506269
 21
382.0625975063535
 31
0.0
  0
LINE
  5
F95
330
1F
100
AcDbEntity
  8
ceco.net 90
100
AcDbLine
 10
1616.804809788351
 20
390.4010095104774
 30
0.0
 11
1614.573800009524
 21
392.6320192892504
 31
0.0
  0
LINE
  5
F96
330
1F
100
AcDbEntity
  8
ceco.net 90
100
AcDbLine
 10
1616.804809788351
 20
390.4010095104774
 30
0.0
 11
1614.573800009524
 21
392.6320192892504
 31
0.0
  0
LINE
  5
F97
330
1F
100
AcDbEntity
  8
ceco.net 90
100
AcDbLine
 10
1616.804809788325
 20
402.3530087966856
 30
0.0
 11
1615.956377512835
 21
403.2014410721748
 31
0.0
  0
LINE
  5
F98
330
1F
100
AcDbEntity
  8
ceco.net 90
100
AcDbLine
 10
1616.804809788325
 20
402.3530087966856
 30
0.0
 11
1615.956377512835
 21
403.2014410721748
 31
0.0
  0
LINE
  5
F99
330
1F
100
AcDbEntity
  8
ceco.net 90
100
AcDbLine
 10
1645.436478127248
 20
103.5530266482596
 30
0.0
 11
1616.804809787942
 21
103.5530266482866
 31
0.0
  0
LINE
  5
F9A
330
1F
100
AcDbEntity
  8
ceco.net 90
100
AcDbLine
 10
1645.721387069872
 20
91.60102736314412
 30
0.0
 11
1616.804809787942
 21
91.60102736314412
 31
0.0
  0
LINE
  5
F9B
330
1F
100
AcDbEntity
  8
ceco.net 90
100
AcDbLine
 10
1646.006296012469
 20
79.64902807764605
 30
0.0
 11
1616.804809787914
 21
79.64902807761898
 31
0.0
  0
LINE
  5
F9C
330
1F
100
AcDbEntity
  8
ceco.net 90
100
AcDbLine
 10
1646.291204955094
 20
67.69702879250345
 30
0.0
 11
1616.804809787914
 21
67.69702879255806
 31
0.0
  0
LINE
  5
F9D
330
1F
100
AcDbEntity
  8
ceco.net 90
100
AcDbLine
 10
1646.576113897773
 20
55.74502950749712
 30
0.0
 11
1616.804809787887
 21
55.74502950746962
 31
0.0
  0
LINE
  5
F9E
330
1F
100
AcDbEntity
  8
ceco.net 90
100
AcDbLine
 10
1646.55749784874
 20
43.79303022235411
 30
0.0
 11
1616.804809787861
 21
43.7930302223816
 31
0.0
  0
LINE
  5
F9F
330
1F
100
AcDbEntity
  8
ceco.net 90
100
AcDbLine
 10
1643.931022459287
 20
31.84103093685646
 30
0.0
 11
1616.804809787833
 21
31.84103093682896
 31
0.0
  0
LINE
  5
FA0
330
1F
100
AcDbEntity
  8
ceco.net 90
100
AcDbLine
 10
1637.631255325639
 20
19.88903165176804
 30
0.0
 11
1616.804809787806
 21
19.88903165176804
 31
0.0
  0
LINE
  5
FA1
330
1F
100
AcDbEntity
  8
ceco.net 90
100
AcDbLine
 10
1625.152348666002
 20
7.937032366269974
 30
0.0
 11
1616.804809787806
 21
7.937032366242887
 31
0.0
  0
LINE
  5
FA2
330
1F
100
AcDbEntity
  8
ceco.net 90
100
AcDbLine
 10
1644.296842356723
 20
151.3610237893771
 30
0.0
 11
1616.804809787942
 21
151.3610237894046
 31
0.0
  0
LINE
  5
FA3
330
1F
100
AcDbEntity
  8
ceco.net 90
100
AcDbLine
 10
1644.581751299347
 20
139.4090245042341
 30
0.0
 11
1616.804809787942
 21
139.4090245042616
 31
0.0
  0
LINE
  5
FA4
330
1F
100
AcDbEntity
  8
ceco.net 90
100
AcDbLine
 10
1644.866660241999
 20
127.4570252187365
 30
0.0
 11
1616.804809787914
 21
127.4570252187365
 31
0.0
  0
LINE
  5
FA5
330
1F
100
AcDbEntity
  8
ceco.net 90
100
AcDbLine
 10
1645.151569184596
 20
115.505025933621
 30
0.0
 11
1616.804809787914
 21
115.5050259336755
 31
0.0
  0
LINE
  5
FA6
330
1F
100
AcDbEntity
  8
ceco.net 90
100
AcDbLine
 10
1645.063612547677
 20
199.1690209290474
 30
0.0
 11
1616.804809788079
 21
199.1690209290745
 31
0.0
  0
LINE
  5
FA7
330
1F
100
AcDbEntity
  8
ceco.net 90
100
AcDbLine
 10
1644.839942832042
 20
187.2170216439319
 30
0.0
 11
1616.804809788079
 21
187.2170216439319
 31
0.0
  0
LINE
  5
FA8
330
1F
100
AcDbEntity
  8
ceco.net 90
100
AcDbLine
 10
1644.616273116379
 20
175.2650223584068
 30
0.0
 11
1616.804809788051
 21
175.2650223584068
 31
0.0
  0
LINE
  5
FA9
330
1F
100
AcDbEntity
  8
ceco.net 90
100
AcDbLine
 10
1644.392603400771
 20
163.3130230732912
 30
0.0
 11
1616.804809788051
 21
163.3130230733458
 31
0.0
  0
LINE
  5
FAA
330
1F
100
AcDbEntity
  8
ceco.net 90
100
AcDbLine
 10
1645.734621694529
 20
235.0250187848036
 30
0.0
 11
1616.804809788106
 21
235.0250187848036
 31
0.0
  0
LINE
  5
FAB
330
1F
100
AcDbEntity
  8
ceco.net 90
100
AcDbLine
 10
1645.510951978894
 20
223.0730194996335
 30
0.0
 11
1616.804809788106
 21
223.0730194996606
 31
0.0
  0
LINE
  5
FAC
330
1F
100
AcDbEntity
  8
ceco.net 90
100
AcDbLine
 10
1645.287282263286
 20
211.1210202141629
 30
0.0
 11
1616.804809788079
 21
211.1210202141354
 31
0.0
  0
LINE
  5
FAD
330
1F
100
AcDbEntity
  8
ceco.net 90
100
AcDbLine
 10
1646.405630841409
 20
270.8810166405052
 30
0.0
 11
1616.804809788133
 21
270.8810166405327
 31
0.0
  0
LINE
  5
FAE
330
1F
100
AcDbEntity
  8
ceco.net 90
100
AcDbLine
 10
1646.181961125773
 20
258.9290173553626
 30
0.0
 11
1616.804809788133
 21
258.9290173553897
 31
0.0
  0
LINE
  5
FAF
330
1F
100
AcDbEntity
  8
ceco.net 90
100
AcDbLine
 10
1645.95829141011
 20
246.9770180698645
 30
0.0
 11
1616.804809788106
 21
246.9770180698645
 31
0.0
  0
LINE
  5
FB0
330
1F
100
AcDbEntity
  8
ceco.net 90
100
AcDbLine
 10
1647.07663998826
 20
306.7370144962342
 30
0.0
 11
1616.804809788161
 21
306.7370144962617
 31
0.0
  0
LINE
  5
FB1
330
1F
100
AcDbEntity
  8
ceco.net 90
100
AcDbLine
 10
1646.852970272652
 20
294.7850152110912
 30
0.0
 11
1616.804809788161
 21
294.7850152111188
 31
0.0
  0
LINE
  5
FB2
330
1F
100
AcDbEntity
  8
ceco.net 90
100
AcDbLine
 10
1646.629300556989
 20
282.8330159255936
 30
0.0
 11
1616.804809788133
 21
282.8330159255936
 31
0.0
  0
LINE
  5
FB3
330
1F
100
AcDbEntity
  8
ceco.net 90
100
AcDbLine
 10
1647.74764913514
 20
342.5930123519904
 30
0.0
 11
1616.804809788188
 21
342.5930123519904
 31
0.0
  0
LINE
  5
FB4
330
1F
100
AcDbEntity
  8
ceco.net 90
100
AcDbLine
 10
1647.523979419504
 20
330.6410130668203
 30
0.0
 11
1616.804809788188
 21
330.6410130668479
 31
0.0
  0
LINE
  5
FB5
330
1F
100
AcDbEntity
  8
ceco.net 90
100
AcDbLine
 10
1647.300309703868
 20
318.6890137813227
 30
0.0
 11
1616.804809788161
 21
318.6890137813227
 31
0.0
  0
LINE
  5
FB6
330
1F
100
AcDbEntity
  8
ceco.net 90
100
AcDbLine
 10
1648.418658282019
 20
378.4490102076921
 30
0.0
 11
1616.804809788242
 21
378.4490102077195
 31
0.0
  0
LINE
  5
FB7
330
1F
100
AcDbEntity
  8
ceco.net 90
100
AcDbLine
 10
1648.194988566356
 20
366.4970109225494
 30
0.0
 11
1616.804809788242
 21
366.4970109225765
 31
0.0
  0
LINE
  5
FB8
330
1F
100
AcDbEntity
  8
ceco.net 90
100
AcDbLine
 10
1647.971318850721
 20
354.5450116370513
 30
0.0
 11
1616.804809788216
 21
354.5450116370513
 31
0.0
  0
LINE
  5
FB9
330
1F
100
AcDbEntity
  8
ceco.net 90
100
AcDbLine
 10
1649.089667428871
 20
414.3050080634758
 30
0.0
 11
1617.408826118211
 21
414.3050080634758
 31
0.0
  0
LINE
  5
FBA
330
1F
100
AcDbEntity
  8
ceco.net 90
100
AcDbLine
 10
1648.865997713235
 20
402.3530087783056
 30
0.0
 11
1616.80480978827
 21
402.3530087783331
 31
0.0
  0
LINE
  5
FBB
330
1F
100
AcDbEntity
  8
ceco.net 90
100
AcDbLine
 10
1648.6423279976
 20
390.401009492808
 30
0.0
 11
1616.804809788242
 21
390.401009492808
 31
0.0
  0
LINE
  5
FBC
330
1F
100
AcDbEntity
  8
ceco.net 90
100
AcDbLine
 10
1649.760676575749
 20
450.1610059191502
 30
0.0
 11
1622.099120158011
 21
450.1610059191773
 31
0.0
  0
LINE
  5
FBD
330
1F
100
AcDbEntity
  8
ceco.net 90
100
AcDbLine
 10
1649.537006860087
 20
438.2090066340071
 30
0.0
 11
1620.535688811402
 21
438.2090066340071
 31
0.0
  0
LINE
  5
FBE
330
1F
100
AcDbEntity
  8
ceco.net 90
100
AcDbLine
 10
1649.313337144479
 20
426.2570073485096
 30
0.0
 11
1618.972257464793
 21
426.2570073485096
 31
0.0
  0
LINE
  5
FBF
330
1F
100
AcDbEntity
  8
ceco.net 90
100
AcDbLine
 10
1650.431685722601
 20
486.0170037749064
 30
0.0
 11
1626.789414197839
 21
486.0170037749064
 31
0.0
  0
LINE
  5
FC0
330
1F
100
AcDbEntity
  8
ceco.net 90
100
AcDbLine
 10
1650.208016006966
 20
474.0650044897362
 30
0.0
 11
1625.225982851257
 21
474.0650044897362
 31
0.0
  0
LINE
  5
FC1
330
1F
100
AcDbEntity
  8
ceco.net 90
100
AcDbLine
 10
1649.984346291331
 20
462.1130052042381
 30
0.0
 11
1623.662551504621
 21
462.1130052042381
 31
0.0
  0
LINE
  5
FC2
330
1F
100
AcDbEntity
  8
ceco.net 90
100
AcDbLine
 10
1651.10269486948
 20
521.8730016306079
 30
0.0
 11
1631.479708237668
 21
521.8730016306079
 31
0.0
  0
LINE
  5
FC3
330
1F
100
AcDbEntity
  8
ceco.net 90
100
AcDbLine
 10
1650.879025153818
 20
509.9210023454654
 30
0.0
 11
1629.916276891058
 21
509.9210023454654
 31
0.0
  0
LINE
  5
FC4
330
1F
100
AcDbEntity
  8
ceco.net 90
100
AcDbLine
 10
1650.655355438182
 20
497.9690030599673
 30
0.0
 11
1628.352845544421
 21
497.9690030599948
 31
0.0
  0
LINE
  5
FC5
330
1F
100
AcDbEntity
  8
ceco.net 90
100
AcDbLine
 10
1651.77370401636
 20
557.7289994863646
 30
0.0
 11
1636.170002277468
 21
557.7289994863916
 31
0.0
  0
LINE
  5
FC6
330
1F
100
AcDbEntity
  8
ceco.net 90
100
AcDbLine
 10
1651.550034300697
 20
545.7770002011939
 30
0.0
 11
1634.606570930859
 21
545.7770002011939
 31
0.0
  0
LINE
  5
FC7
330
1F
100
AcDbEntity
  8
ceco.net 90
100
AcDbLine
 10
1651.326364585062
 20
533.8250009156688
 30
0.0
 11
1633.043139584222
 21
533.8250009156688
 31
0.0
  0
LINE
  5
FC8
330
1F
100
AcDbEntity
  8
ceco.net 90
100
AcDbLine
 10
1652.444713163212
 20
593.5849973420933
 30
0.0
 11
1640.860296317295
 21
593.5849973421206
 31
0.0
  0
LINE
  5
FC9
330
1F
100
AcDbEntity
  8
ceco.net 90
100
AcDbLine
 10
1652.221043447576
 20
581.6329980569231
 30
0.0
 11
1639.296864970686
 21
581.6329980569231
 31
0.0
  0
LINE
  5
FCA
330
1F
100
AcDbEntity
  8
ceco.net 90
100
AcDbLine
 10
1651.997373731941
 20
569.6809987714525
 30
0.0
 11
1637.733433624077
 21
569.6809987714525
 31
0.0
  0
LINE
  5
FCB
330
1F
100
AcDbEntity
  8
ceco.net 90
100
AcDbLine
 10
1653.11572231009
 20
629.4409951978224
 30
0.0
 11
1645.550590357097
 21
629.4409951978224
 31
0.0
  0
LINE
  5
FCC
330
1F
100
AcDbEntity
  8
ceco.net 90
100
AcDbLine
 10
1652.892052594455
 20
617.4889959126523
 30
0.0
 11
1643.987159010514
 21
617.4889959126247
 31
0.0
  0
LINE
  5
FCD
330
1F
100
AcDbEntity
  8
ceco.net 90
100
AcDbLine
 10
1652.66838287882
 20
605.5369966271542
 30
0.0
 11
1642.423727663878
 21
605.5369966271542
 31
0.0
  0
LINE
  5
FCE
330
1F
100
AcDbEntity
  8
ceco.net 90
100
AcDbLine
 10
1653.786731456943
 20
665.2969930535239
 30
0.0
 11
1650.240884396924
 21
665.2969930535239
 31
0.0
  0
LINE
  5
FCF
330
1F
100
AcDbEntity
  8
ceco.net 90
100
AcDbLine
 10
1653.563061741307
 20
653.3449937683813
 30
0.0
 11
1648.677453050314
 21
653.3449937683537
 31
0.0
  0
LINE
  5
FD0
330
1F
100
AcDbEntity
  8
ceco.net 90
100
AcDbLine
 10
1653.339392025672
 20
641.3929944828833
 30
0.0
 11
1647.114021703706
 21
641.3929944828833
 31
0.0
  0
LINE
  5
FD1
330
1F
100
AcDbEntity
  8
ceco.net 90
100
AcDbLine
 10
1654.010401172551
 20
677.248992338694
 30
0.0
 11
1651.804315743533
 21
677.248992338694
 31
0.0
  0
LINE
  5
FD2
330
1F
100
AcDbEntity
  8
ceco.net 90
100
AcDbLine
 10
1654.234070888186
 20
689.2009916238917
 30
0.0
 11
1653.367747090116
 21
689.2009916238646
 31
0.0
  0
LINE
  5
FD3
330
1F
100
AcDbEntity
  8
ceco.net 90
100
AcDbLine
 10
-121.2056909987955
 20
696.9581999426404
 30
0.0
 11
-111.095365529439
 21
156.7035550642149
 31
0.0
  0
LINE
  5
FD4
330
1F
100
AcDbEntity
  8
ceco.net 90
100
AcDbLine
 10
83.63126150250543
 20
113.1015326776048
 30
0.0
 11
113.5660246319048
 21
113.1015326776048
 31
0.0
  0
LINE
  5
FD5
330
1F
100
AcDbEntity
  8
ceco.net 90
100
AcDbLine
 10
83.63126150250543
 20
101.1495333924893
 30
0.0
 11
113.5660246319048
 21
101.1495333925168
 31
0.0
  0
LINE
  5
FD6
330
1F
100
AcDbEntity
  8
ceco.net 90
100
AcDbLine
 10
83.63126150247792
 20
89.19753410699168
 30
0.0
 11
113.5660246319048
 21
89.19753410699168
 31
0.0
  0
LINE
  5
FD7
330
1F
100
AcDbEntity
  8
ceco.net 90
100
AcDbLine
 10
83.63126150247792
 20
77.24553482187616
 30
0.0
 11
113.5660246319048
 21
77.24553482190325
 31
0.0
  0
LINE
  5
FD8
330
1F
100
AcDbEntity
  8
ceco.net 90
100
AcDbLine
 10
83.63126150245042
 20
65.29353553681524
 30
0.0
 11
113.5660246319048
 21
65.29353553681524
 31
0.0
  0
LINE
  5
FD9
330
1F
100
AcDbEntity
  8
ceco.net 90
100
AcDbLine
 10
83.63126150242376
 20
53.34153625169972
 30
0.0
 11
113.5660246319048
 21
53.34153625172682
 31
0.0
  0
LINE
  5
FDA
330
1F
100
AcDbEntity
  8
ceco.net 90
100
AcDbLine
 10
83.63126150242376
 20
41.38953696620166
 30
0.0
 11
113.1092595386523
 21
41.38953696620166
 31
0.0
  0
LINE
  5
FDB
330
1F
100
AcDbEntity
  8
ceco.net 90
100
AcDbLine
 10
83.63126150236874
 20
29.43753768111324
 30
0.0
 11
109.8228900758024
 21
29.43753768111324
 31
0.0
  0
LINE
  5
FDC
330
1F
100
AcDbEntity
  8
ceco.net 90
100
AcDbLine
 10
83.63126150236874
 20
17.48553839558809
 30
0.0
 11
102.6009271021728
 21
17.48553839558809
 31
0.0
  0
LINE
  5
FDD
330
1F
100
AcDbEntity
  8
ceco.net 90
100
AcDbLine
 10
66.14975322967943
 20
0.0040301228712814
 30
0.0
 11
83.63126150236874
 21
17.48553839558809
 31
0.0
  0
LINE
  5
FDE
330
1F
100
AcDbEntity
  8
ceco.net 90
100
AcDbLine
 10
83.63126150264211
 20
197.8109890345244
 30
0.0
 11
83.63126150234124
 21
3.541351783797531
 31
0.0
  0
LINE
  5
FDF
330
1F
100
AcDbEntity
  8
ceco.net 90
100
AcDbLine
 10
50.17875690238287
 20
198.1087543424302
 30
0.0
 11
50.178756902082
 21
0.0
 31
0.0
  0
LINE
  5
FE0
330
1F
100
AcDbEntity
  8
ceco.net 90
100
AcDbLine
 10
-83.63126150193119
 20
409.6874706464894
 30
0.0
 11
-83.63126150133027
 21
3.541351783387892
 31
0.0
  0
LINE
  5
FE1
330
1F
100
AcDbEntity
  8
ceco.net 90
100
AcDbLine
 10
54.19372382131051
 20
0.0
 30
0.0
 11
83.63126150236874
 21
29.43753768111324
 31
0.0
  0
LINE
  5
FE2
330
1F
100
AcDbEntity
  8
ceco.net 90
100
AcDbLine
 10
50.17875690210951
 20
7.937032365942428
 30
0.0
 11
83.63126150236874
 21
41.38953696620166
 31
0.0
  0
LINE
  5
FE3
330
1F
100
AcDbEntity
  8
ceco.net 90
100
AcDbLine
 10
50.17875690210951
 20
19.88903165146758
 30
0.0
 11
83.63126150236874
 21
53.34153625172682
 31
0.0
  0
LINE
  5
FE4
330
1F
100
AcDbEntity
  8
ceco.net 90
100
AcDbLine
 10
50.17875690213701
 20
31.841030936556
 30
0.0
 11
83.63126150236874
 21
65.29353553681524
 31
0.0
  0
LINE
  5
FE5
330
1F
100
AcDbEntity
  8
ceco.net 90
100
AcDbLine
 10
50.17875690216452
 20
43.79303022164402
 30
0.0
 11
83.63126150236874
 21
77.24553482190325
 31
0.0
  0
LINE
  5
FE6
330
1F
100
AcDbEntity
  8
ceco.net 90
100
AcDbLine
 10
50.17875690216452
 20
55.74502950678702
 30
0.0
 11
83.63126150236874
 21
89.19753410699168
 31
0.0
  0
LINE
  5
FE7
330
1F
100
AcDbEntity
  8
ceco.net 90
100
AcDbLine
 10
50.17875690219119
 20
67.69702879127454
 30
0.0
 11
83.6312615033797
 21
101.1495333925168
 31
0.0
  0
LINE
  5
FE8
330
1F
100
AcDbEntity
  8
ceco.net 90
100
AcDbLine
 10
50.17875690221869
 20
79.6490280774552
 30
0.0
 11
83.63126150236874
 21
113.1015326776048
 31
0.0
  0
LINE
  5
FE9
330
1F
100
AcDbEntity
  8
ceco.net 90
100
AcDbLine
 10
83.63126150261463
 20
172.8615291040291
 30
0.0
 11
113.5660246320415
 21
172.8615291040566
 31
0.0
  0
LINE
  5
FEA
330
1F
100
AcDbEntity
  8
ceco.net 90
100
AcDbLine
 10
83.63126150258711
 20
160.9095298189682
 30
0.0
 11
113.5660246320415
 21
160.9095298189682
 31
0.0
  0
LINE
  5
FEB
330
1F
100
AcDbEntity
  8
ceco.net 90
100
AcDbLine
 10
83.63126150256043
 20
148.9575305338527
 30
0.0
 11
113.5660246320415
 21
148.9575305338802
 31
0.0
  0
LINE
  5
FEC
330
1F
100
AcDbEntity
  8
ceco.net 90
100
AcDbLine
 10
83.63126150256043
 20
137.0055312483551
 30
0.0
 11
113.109259538789
 21
137.0055312483551
 31
0.0
  0
LINE
  5
FED
330
1F
100
AcDbEntity
  8
ceco.net 90
100
AcDbLine
 10
83.63126150256043
 20
125.0535319632666
 30
0.0
 11
113.640947828592
 21
125.0535319632666
 31
0.0
  0
LINE
  5
FEE
330
1F
100
AcDbEntity
  8
ceco.net 90
100
AcDbLine
 10
50.17875690224619
 20
91.60102736292577
 30
0.0
 11
83.63126150250543
 21
125.0535319632666
 31
0.0
  0
LINE
  5
FEF
330
1F
100
AcDbEntity
  8
ceco.net 90
100
AcDbLine
 10
50.17875690224619
 20
103.5530266480683
 30
0.0
 11
83.63126150250543
 21
137.0055312483551
 31
0.0
  0
LINE
  5
FF0
330
1F
100
AcDbEntity
  8
ceco.net 90
100
AcDbLine
 10
50.1787569022737
 20
115.5050259336481
 30
0.0
 11
83.63126150250543
 21
148.9575305338802
 31
0.0
  0
LINE
  5
FF1
330
1F
100
AcDbEntity
  8
ceco.net 90
100
AcDbLine
 10
50.1787569023012
 20
127.4570252187365
 30
0.0
 11
83.63126150250543
 21
160.9095298189682
 31
0.0
  0
LINE
  5
FF2
330
1F
100
AcDbEntity
  8
ceco.net 90
100
AcDbLine
 10
50.1787569023012
 20
139.4090245038245
 30
0.0
 11
83.63126150250543
 21
172.8615291040566
 31
0.0
  0
LINE
  5
FF3
330
1F
100
AcDbEntity
  8
ceco.net 90
100
AcDbLine
 10
50.17875690232787
 20
151.3610237889675
 30
0.0
 11
83.63126150250543
 21
184.8135283891446
 31
0.0
  0
LINE
  5
FF4
330
1F
100
AcDbEntity
  8
ceco.net 90
100
AcDbLine
 10
50.17875690235538
 20
163.3130230735367
 30
0.0
 11
83.63126150351556
 21
196.7655276746702
 31
0.0
  0
LINE
  5
FF5
330
1F
100
AcDbEntity
  8
ceco.net 90
100
AcDbLine
 10
50.17875690235538
 20
175.2650223597173
 30
0.0
 11
72.86174399705571
 21
197.9480094542535
 31
0.0
  0
LINE
  5
FF6
330
1F
100
AcDbEntity
  8
ceco.net 90
100
AcDbLine
 10
34.21179069738418
 20
0.0000000000275038
 30
0.0
 11
16.72625230179609
 21
17.48553839558809
 31
0.0
  0
LINE
  5
FF7
330
1F
100
AcDbEntity
  8
ceco.net 90
100
AcDbLine
 10
16.72625230152272
 20
198.5264133195803
 30
0.0
 11
16.72625230182276
 21
0.0
 31
0.0
  0
LINE
  5
FF8
330
1F
100
AcDbEntity
  8
ceco.net 90
100
AcDbLine
 10
46.16378998285433
 20
0.0
 30
0.0
 11
16.72625230179609
 21
29.43753768111324
 31
0.0
  0
LINE
  5
FF9
330
1F
100
AcDbEntity
  8
ceco.net 90
100
AcDbLine
 10
50.17875690205533
 20
7.937032365942428
 30
0.0
 11
16.72625230179609
 21
41.38953696620166
 31
0.0
  0
LINE
  5
FFA
330
1F
100
AcDbEntity
  8
ceco.net 90
100
AcDbLine
 10
50.17875690205533
 20
19.88903165146758
 30
0.0
 11
16.72625230179609
 21
53.34153625172682
 31
0.0
  0
LINE
  5
FFB
330
1F
100
AcDbEntity
  8
ceco.net 90
100
AcDbLine
 10
50.17875690202783
 20
31.841030936556
 30
0.0
 11
16.72625230179609
 21
65.29353553681524
 31
0.0
  0
LINE
  5
FFC
330
1F
100
AcDbEntity
  8
ceco.net 90
100
AcDbLine
 10
50.17875690200032
 20
43.79303022164402
 30
0.0
 11
16.72625230179609
 21
77.24553482190325
 31
0.0
  0
LINE
  5
FFD
330
1F
100
AcDbEntity
  8
ceco.net 90
100
AcDbLine
 10
50.17875690200032
 20
55.74502950678702
 30
0.0
 11
16.72625230179609
 21
89.19753410699168
 31
0.0
  0
LINE
  5
FFE
330
1F
100
AcDbEntity
  8
ceco.net 90
100
AcDbLine
 10
50.17875690197282
 20
67.69702879127454
 30
0.0
 11
16.72625230078512
 21
101.1495333925168
 31
0.0
  0
LINE
  5
FFF
330
1F
100
AcDbEntity
  8
ceco.net 90
100
AcDbLine
 10
50.17875690194615
 20
79.6490280774552
 30
0.0
 11
16.72625230179609
 21
113.1015326776048
 31
0.0
  0
LINE
  5
1000
330
1F
100
AcDbEntity
  8
ceco.net 90
100
AcDbLine
 10
50.17875690191865
 20
91.60102736292577
 30
0.0
 11
16.72625230165941
 21
125.0535319632666
 31
0.0
  0
LINE
  5
1001
330
1F
100
AcDbEntity
  8
ceco.net 90
100
AcDbLine
 10
50.17875690191865
 20
103.5530266480683
 30
0.0
 11
16.72625230165941
 21
137.0055312483551
 31
0.0
  0
LINE
  5
1002
330
1F
100
AcDbEntity
  8
ceco.net 90
100
AcDbLine
 10
50.17875690189114
 20
115.5050259336481
 30
0.0
 11
16.72625230165941
 21
148.9575305338802
 31
0.0
  0
LINE
  5
1003
330
1F
100
AcDbEntity
  8
ceco.net 90
100
AcDbLine
 10
50.17875690186365
 20
127.4570252187365
 30
0.0
 11
16.72625230165941
 21
160.9095298189682
 31
0.0
  0
LINE
  5
1004
330
1F
100
AcDbEntity
  8
ceco.net 90
100
AcDbLine
 10
50.17875690186365
 20
139.4090245038245
 30
0.0
 11
16.72625230165941
 21
172.8615291040566
 31
0.0
  0
LINE
  5
1005
330
1F
100
AcDbEntity
  8
ceco.net 90
100
AcDbLine
 10
50.17875690183614
 20
151.3610237889675
 30
0.0
 11
16.72625230165941
 21
184.8135283891446
 31
0.0
  0
LINE
  5
1006
330
1F
100
AcDbEntity
  8
ceco.net 90
100
AcDbLine
 10
50.17875690180947
 20
163.3130230735367
 30
0.0
 11
16.72625230064844
 21
196.7655276746702
 31
0.0
  0
LINE
  5
1007
330
1F
100
AcDbEntity
  8
ceco.net 90
100
AcDbLine
 10
50.17875690180947
 20
175.2650223597173
 30
0.0
 11
27.04621201381594
 21
198.3975672475196
 31
0.0
  0
LINE
  5
1008
330
1F
100
AcDbEntity
  8
ceco.net 90
100
AcDbLine
 10
22.25979141191321
 20
-0.0000000000270871
 30
0.0
 11
16.72625230182276
 21
5.533539110035849
 31
0.0
  0
LINE
  5
1009
330
1F
100
AcDbEntity
  8
ceco.net 90
100
AcDbLine
 10
-16.72625229906405
 20
202.5330780331175
 30
0.0
 11
-16.72625229876401
 21
0.0
 31
0.0
  0
LINE
  5
100A
330
1F
100
AcDbEntity
  8
ceco.net 90
100
AcDbLine
 10
-0.7592860940653621
 20
0.0000000000275038
 30
0.0
 11
16.72625230152272
 21
17.48553839558809
 31
0.0
  0
LINE
  5
100B
330
1F
100
AcDbEntity
  8
ceco.net 90
100
AcDbLine
 10
-12.71128537953634
 20
0.0
 30
0.0
 11
16.72625230152272
 21
29.43753768111324
 31
0.0
  0
LINE
  5
100C
330
1F
100
AcDbEntity
  8
ceco.net 90
100
AcDbLine
 10
-16.7262522987365
 20
7.937032365942428
 30
0.0
 11
16.72625230152272
 21
41.38953696620166
 31
0.0
  0
LINE
  5
100D
330
1F
100
AcDbEntity
  8
ceco.net 90
100
AcDbLine
 10
-16.7262522987365
 20
19.88903165146758
 30
0.0
 11
16.72625230152272
 21
53.34153625172682
 31
0.0
  0
LINE
  5
100E
330
1F
100
AcDbEntity
  8
ceco.net 90
100
AcDbLine
 10
-16.726252298709
 20
31.841030936556
 30
0.0
 11
16.72625230152272
 21
65.29353553681524
 31
0.0
  0
LINE
  5
100F
330
1F
100
AcDbEntity
  8
ceco.net 90
100
AcDbLine
 10
-16.72625229868233
 20
43.79303022164402
 30
0.0
 11
16.72625230152272
 21
77.24553482190325
 31
0.0
  0
LINE
  5
1010
330
1F
100
AcDbEntity
  8
ceco.net 90
100
AcDbLine
 10
-16.72625229868233
 20
55.74502950678702
 30
0.0
 11
16.72625230152272
 21
89.19753410699168
 31
0.0
  0
LINE
  5
1011
330
1F
100
AcDbEntity
  8
ceco.net 90
100
AcDbLine
 10
-16.72625229865483
 20
67.69702879127454
 30
0.0
 11
16.72625230253286
 21
101.1495333925168
 31
0.0
  0
LINE
  5
1012
330
1F
100
AcDbEntity
  8
ceco.net 90
100
AcDbLine
 10
-16.72625229862733
 20
79.6490280774552
 30
0.0
 11
16.72625230152272
 21
113.1015326776048
 31
0.0
  0
LINE
  5
1013
330
1F
100
AcDbEntity
  8
ceco.net 90
100
AcDbLine
 10
-16.72625229859982
 20
91.60102736292577
 30
0.0
 11
16.72625230165941
 21
125.0535319632666
 31
0.0
  0
LINE
  5
1014
330
1F
100
AcDbEntity
  8
ceco.net 90
100
AcDbLine
 10
-16.72625229859982
 20
103.5530266480683
 30
0.0
 11
16.72625230165941
 21
137.0055312483551
 31
0.0
  0
LINE
  5
1015
330
1F
100
AcDbEntity
  8
ceco.net 90
100
AcDbLine
 10
-16.72625229857231
 20
115.5050259336481
 30
0.0
 11
16.72625230165941
 21
148.9575305338802
 31
0.0
  0
LINE
  5
1016
330
1F
100
AcDbEntity
  8
ceco.net 90
100
AcDbLine
 10
-16.72625229854564
 20
127.4570252187365
 30
0.0
 11
16.72625230165941
 21
160.9095298189682
 31
0.0
  0
LINE
  5
1017
330
1F
100
AcDbEntity
  8
ceco.net 90
100
AcDbLine
 10
-16.72625229854564
 20
139.4090245038245
 30
0.0
 11
16.72625230165941
 21
172.8615291040566
 31
0.0
  0
LINE
  5
1018
330
1F
100
AcDbEntity
  8
ceco.net 90
100
AcDbLine
 10
-16.72625229851814
 20
151.3610237889675
 30
0.0
 11
16.72625230165941
 21
184.8135283891446
 31
0.0
  0
LINE
  5
1019
330
1F
100
AcDbEntity
  8
ceco.net 90
100
AcDbLine
 10
-16.72625229849064
 20
163.3130230735367
 30
0.0
 11
16.72625230266955
 21
196.7655276746702
 31
0.0
  0
LINE
  5
101A
330
1F
100
AcDbEntity
  8
ceco.net 90
100
AcDbLine
 10
-16.72625229849064
 20
175.2650223597173
 30
0.0
 11
6.660807086195786
 21
198.65208174424
 31
0.0
  0
LINE
  5
101B
330
1F
100
AcDbEntity
  8
ceco.net 90
100
AcDbLine
 10
11.19271319145979
 20
-0.0000000000270871
 30
0.0
 11
16.72625230155023
 21
5.533539110035849
 31
0.0
  0
LINE
  5
101C
330
1F
100
AcDbEntity
  8
ceco.net 90
100
AcDbLine
 10
-32.69321850346182
 20
0.0000000000275038
 30
0.0
 11
-50.17875689905075
 21
17.48553839558809
 31
0.0
  0
LINE
  5
101D
330
1F
100
AcDbEntity
  8
ceco.net 90
100
AcDbLine
 10
-20.74121921799168
 20
0.0
 30
0.0
 11
-50.17875689905075
 21
29.43753768111324
 31
0.0
  0
LINE
  5
101E
330
1F
100
AcDbEntity
  8
ceco.net 90
100
AcDbLine
 10
-16.72625229879151
 20
7.937032365942428
 30
0.0
 11
-50.17875689905075
 21
41.38953696620166
 31
0.0
  0
LINE
  5
101F
330
1F
100
AcDbEntity
  8
ceco.net 90
100
AcDbLine
 10
-16.72625229879151
 20
19.88903165146758
 30
0.0
 11
-50.17875689905075
 21
53.34153625172682
 31
0.0
  0
LINE
  5
1020
330
1F
100
AcDbEntity
  8
ceco.net 90
100
AcDbLine
 10
-16.72625229881818
 20
31.841030936556
 30
0.0
 11
-50.17875689905075
 21
65.29353553681524
 31
0.0
  0
LINE
  5
1021
330
1F
100
AcDbEntity
  8
ceco.net 90
100
AcDbLine
 10
-16.72625229884569
 20
43.79303022164402
 30
0.0
 11
-50.17875689905075
 21
77.24553482190325
 31
0.0
  0
LINE
  5
1022
330
1F
100
AcDbEntity
  8
ceco.net 90
100
AcDbLine
 10
-16.72625229884569
 20
55.74502950678702
 30
0.0
 11
-50.17875689905075
 21
89.19753410699168
 31
0.0
  0
LINE
  5
1023
330
1F
100
AcDbEntity
  8
ceco.net 90
100
AcDbLine
 10
-16.72625229887319
 20
67.69702879127454
 30
0.0
 11
-50.17875690006089
 21
101.1495333925168
 31
0.0
  0
LINE
  5
1024
330
1F
100
AcDbEntity
  8
ceco.net 90
100
AcDbLine
 10
-16.7262522989007
 20
79.6490280774552
 30
0.0
 11
-50.17875689905075
 21
113.1015326776048
 31
0.0
  0
LINE
  5
1025
330
1F
100
AcDbEntity
  8
ceco.net 90
100
AcDbLine
 10
-16.72625229892736
 20
91.60102736292577
 30
0.0
 11
-50.1787568991866
 21
125.0535319632666
 31
0.0
  0
LINE
  5
1026
330
1F
100
AcDbEntity
  8
ceco.net 90
100
AcDbLine
 10
-16.72625229892736
 20
103.5530266480683
 30
0.0
 11
-50.1787568991866
 21
137.0055312483551
 31
0.0
  0
LINE
  5
1027
330
1F
100
AcDbEntity
  8
ceco.net 90
100
AcDbLine
 10
-16.72625229895487
 20
115.5050259336481
 30
0.0
 11
-50.1787568991866
 21
148.9575305338802
 31
0.0
  0
LINE
  5
1028
330
1F
100
AcDbEntity
  8
ceco.net 90
100
AcDbLine
 10
-16.72625229898237
 20
127.4570252187365
 30
0.0
 11
-50.1787568991866
 21
160.9095298189682
 31
0.0
  0
LINE
  5
1029
330
1F
100
AcDbEntity
  8
ceco.net 90
100
AcDbLine
 10
-16.72625229898237
 20
139.4090245038245
 30
0.0
 11
-50.1787568991866
 21
172.8615291040566
 31
0.0
  0
LINE
  5
102A
330
1F
100
AcDbEntity
  8
ceco.net 90
100
AcDbLine
 10
-16.72625229900988
 20
151.3610237889675
 30
0.0
 11
-50.1787568991866
 21
184.8135283891446
 31
0.0
  0
LINE
  5
102B
330
1F
100
AcDbEntity
  8
ceco.net 90
100
AcDbLine
 10
-16.72625229903738
 20
163.3130230735367
 30
0.0
 11
-50.17875690019757
 21
196.7655276746702
 31
0.0
  0
LINE
  5
102C
330
1F
100
AcDbEntity
  8
ceco.net 90
100
AcDbLine
 10
-16.72625229903738
 20
175.2650223597173
 30
0.0
 11
-50.17875689945998
 21
208.7175269598949
 31
0.0
  0
LINE
  5
102D
330
1F
100
AcDbEntity
  8
ceco.net 90
100
AcDbLine
 10
-44.64521778906949
 20
0.0
 30
0.0
 11
-50.17875689915993
 21
5.533539110062936
 31
0.0
  0
LINE
  5
102E
330
1F
100
AcDbEntity
  8
ceco.net 90
100
AcDbLine
 10
-50.17875689943247
 20
225.2407301935863
 30
0.0
 11
-50.17875689915993
 21
-0.0000000000545908
 31
0.0
  0
LINE
  5
102F
330
1F
100
AcDbEntity
  8
ceco.net 90
100
AcDbLine
 10
-67.66429529693247
 20
0.0000000000275038
 30
0.0
 11
-50.1787569013444
 21
17.48553839558809
 31
0.0
  0
LINE
  5
1030
330
1F
100
AcDbEntity
  8
ceco.net 90
100
AcDbLine
 10
-77.97565510640516
 20
1.640639475998312
 30
0.0
 11
-50.1787569013444
 21
29.43753768111324
 31
0.0
  0
LINE
  5
1031
330
1F
100
AcDbEntity
  8
ceco.net 90
100
AcDbLine
 10
-83.63126150133027
 20
7.937032366215382
 30
0.0
 11
-50.1787569013444
 21
41.38953696620166
 31
0.0
  0
LINE
  5
1032
330
1F
100
AcDbEntity
  8
ceco.net 90
100
AcDbLine
 10
-83.63126150160365
 20
19.88903165146758
 30
0.0
 11
-50.1787569013444
 21
53.34153625172682
 31
0.0
  0
LINE
  5
1033
330
1F
100
AcDbEntity
  8
ceco.net 90
100
AcDbLine
 10
-83.63126150157613
 20
31.841030936556
 30
0.0
 11
-50.1787569013444
 21
65.29353553681524
 31
0.0
  0
LINE
  5
1034
330
1F
100
AcDbEntity
  8
ceco.net 90
100
AcDbLine
 10
-83.63126150154945
 20
43.79303022164402
 30
0.0
 11
-50.1787569013444
 21
77.24553482190325
 31
0.0
  0
LINE
  5
1035
330
1F
100
AcDbEntity
  8
ceco.net 90
100
AcDbLine
 10
-83.63126150154945
 20
55.74502950678702
 30
0.0
 11
-50.1787569013444
 21
89.19753410699168
 31
0.0
  0
LINE
  5
1036
330
1F
100
AcDbEntity
  8
ceco.net 90
100
AcDbLine
 10
-83.63126150152195
 20
67.69702879127454
 30
0.0
 11
-50.17875690033426
 21
101.1495333925168
 31
0.0
  0
LINE
  5
1037
330
1F
100
AcDbEntity
  8
ceco.net 90
100
AcDbLine
 10
-83.63126150149446
 20
79.6490280774552
 30
0.0
 11
-50.1787569013444
 21
113.1015326776048
 31
0.0
  0
LINE
  5
1038
330
1F
100
AcDbEntity
  8
ceco.net 90
100
AcDbLine
 10
-83.63126150146696
 20
91.60102736292577
 30
0.0
 11
-50.17875690120772
 21
125.0535319632666
 31
0.0
  0
LINE
  5
1039
330
1F
100
AcDbEntity
  8
ceco.net 90
100
AcDbLine
 10
-83.63126150146696
 20
103.5530266480683
 30
0.0
 11
-50.17875690120772
 21
137.0055312483551
 31
0.0
  0
LINE
  5
103A
330
1F
100
AcDbEntity
  8
ceco.net 90
100
AcDbLine
 10
-83.63126150144029
 20
115.5050259336481
 30
0.0
 11
-50.17875690120772
 21
148.9575305338802
 31
0.0
  0
LINE
  5
103B
330
1F
100
AcDbEntity
  8
ceco.net 90
100
AcDbLine
 10
-83.63126150141276
 20
127.4570252187365
 30
0.0
 11
-50.17875690120772
 21
160.9095298189682
 31
0.0
  0
LINE
  5
103C
330
1F
100
AcDbEntity
  8
ceco.net 90
100
AcDbLine
 10
-83.63126150141276
 20
139.4090245038245
 30
0.0
 11
-50.17875690120772
 21
172.8615291040566
 31
0.0
  0
LINE
  5
103D
330
1F
100
AcDbEntity
  8
ceco.net 90
100
AcDbLine
 10
-83.63126150138526
 20
151.3610237889675
 30
0.0
 11
-50.17875690120772
 21
184.8135283891446
 31
0.0
  0
LINE
  5
103E
330
1F
100
AcDbEntity
  8
ceco.net 90
100
AcDbLine
 10
-83.63126150135778
 20
163.3130230735367
 30
0.0
 11
-50.17875690019757
 21
196.7655276746702
 31
0.0
  0
LINE
  5
103F
330
1F
100
AcDbEntity
  8
ceco.net 90
100
AcDbLine
 10
-83.63126150135778
 20
175.2650223597173
 30
0.0
 11
-50.17875690093518
 21
208.7175269598949
 31
0.0
  0
LINE
  5
1040
330
1F
100
AcDbEntity
  8
ceco.net 90
100
AcDbLine
 10
-55.71229601154403
 20
0.0
 30
0.0
 11
-50.17875690145358
 21
5.533539110062936
 31
0.0
  0
LINE
  5
1041
330
1F
100
AcDbEntity
  8
ceco.net 90
100
AcDbLine
 10
-112.2629298407729
 20
103.5530266482321
 30
0.0
 11
-83.63126150146696
 21
103.5530266482596
 31
0.0
  0
LINE
  5
1042
330
1F
100
AcDbEntity
  8
ceco.net 90
100
AcDbLine
 10
-112.5478387833972
 20
91.60102736311662
 30
0.0
 11
-83.63126150146696
 21
91.60102736311662
 31
0.0
  0
LINE
  5
1043
330
1F
100
AcDbEntity
  8
ceco.net 90
100
AcDbLine
 10
-112.8327477259941
 20
79.64902807761898
 30
0.0
 11
-83.63126150144029
 21
79.64902807759145
 31
0.0
  0
LINE
  5
1044
330
1F
100
AcDbEntity
  8
ceco.net 90
100
AcDbLine
 10
-113.1176566686193
 20
67.69702879247596
 30
0.0
 11
-83.63126150144029
 21
67.69702879253053
 31
0.0
  0
LINE
  5
1045
330
1F
100
AcDbEntity
  8
ceco.net 90
100
AcDbLine
 10
-113.4025656112978
 20
55.74502950746962
 30
0.0
 11
-83.63126150141276
 21
55.74502950744253
 31
0.0
  0
LINE
  5
1046
330
1F
100
AcDbEntity
  8
ceco.net 90
100
AcDbLine
 10
-113.383949562266
 20
43.79303022232702
 30
0.0
 11
-83.63126150138526
 21
43.79303022235411
 31
0.0
  0
LINE
  5
1047
330
1F
100
AcDbEntity
  8
ceco.net 90
100
AcDbLine
 10
-110.7542522303075
 20
31.84103093682896
 30
0.0
 11
-83.63126150135778
 21
31.84103093680145
 31
0.0
  0
LINE
  5
1048
330
1F
100
AcDbEntity
  8
ceco.net 90
100
AcDbLine
 10
-104.457707039164
 20
19.88903165174053
 30
0.0
 11
-83.63126150133027
 21
19.88903165174053
 31
0.0
  0
LINE
  5
1049
330
1F
100
AcDbEntity
  8
ceco.net 90
100
AcDbLine
 10
-91.97880037952831
 20
7.937032366242887
 30
0.0
 11
-83.63126150133027
 21
7.937032366215382
 31
0.0
  0
LINE
  5
104A
330
1F
100
AcDbEntity
  8
ceco.net 90
100
AcDbLine
 10
-111.1232940702479
 20
151.3610237893501
 30
0.0
 11
-83.63126150146696
 21
151.3610237893771
 31
0.0
  0
LINE
  5
104B
330
1F
100
AcDbEntity
  8
ceco.net 90
100
AcDbLine
 10
-111.4082030128723
 20
139.4090245042071
 30
0.0
 11
-83.63126150146696
 21
139.4090245042341
 31
0.0
  0
LINE
  5
104C
330
1F
100
AcDbEntity
  8
ceco.net 90
100
AcDbLine
 10
-111.6931119555241
 20
127.457025218709
 30
0.0
 11
-83.63126150144029
 21
127.457025218709
 31
0.0
  0
LINE
  5
104D
330
1F
100
AcDbEntity
  8
ceco.net 90
100
AcDbLine
 10
-111.978020898121
 20
115.5050259335935
 30
0.0
 11
-83.63126150144029
 21
115.5050259336481
 31
0.0
  0
LINE
  5
104E
330
1F
100
AcDbEntity
  8
ceco.net 90
100
AcDbLine
 10
-111.4427248299046
 20
175.2650223583793
 30
0.0
 11
-83.63126150157613
 21
175.2650223583793
 31
0.0
  0
LINE
  5
104F
330
1F
100
AcDbEntity
  8
ceco.net 90
100
AcDbLine
 10
-111.219055114296
 20
163.3130230732637
 30
0.0
 11
-83.63126150157613
 21
163.3130230733183
 31
0.0
  0
LINE
  5
1050
330
1F
100
AcDbEntity
  8
ceco.net 90
100
AcDbLine
 10
83.63126150264211
 20
184.8135283891446
 30
0.0
 11
113.566024632069
 21
184.8135283891721
 31
0.0
  0
LINE
  5
1051
330
1F
100
AcDbEntity
  8
ceco.net 90
100
AcDbLine
 10
83.63126150365225
 20
196.7655276746702
 30
0.0
 11
101.7742916366958
 21
196.7655276746702
 31
0.0
  0
LINE
  5
1052
330
1F
100
AcDbEntity
  8
ceco.net 90
100
AcDbLine
 10
-16.72625229876401
 20
187.2170216442869
 30
0.0
 11
-50.1787568999242
 21
220.66952624542
 31
0.0
  0
LINE
  5
1053
330
1F
100
AcDbEntity
  8
ceco.net 90
100
AcDbLine
 10
-16.72625229876401
 20
199.1690209304676
 30
0.0
 11
-21.31279218316807
 21
203.7555608148171
 31
0.0
  0
LINE
  5
1054
330
1F
100
AcDbEntity
  8
ceco.net 90
100
AcDbLine
 10
-83.63126150108524
 20
187.2170216442869
 30
0.0
 11
-50.1787568999242
 21
220.66952624542
 31
0.0
  0
LINE
  5
1055
330
1F
100
AcDbEntity
  8
ceco.net 90
100
AcDbLine
 10
-83.63126150108524
 20
199.1690209304676
 30
0.0
 11
-53.44904071477087
 21
229.3512417165628
 31
0.0
  0
LINE
  5
1056
330
1F
100
AcDbEntity
  8
ceco.net 90
100
AcDbLine
 10
-16.72625229876401
 20
187.2170216442869
 30
0.0
 11
-4.630926920294682
 21
199.3123470227288
 31
0.0
  0
LINE
  5
1057
330
1F
100
AcDbEntity
  8
ceco.net 90
100
AcDbLine
 10
-16.72625229876401
 20
199.1690209304676
 30
0.0
 11
-14.06907582355896
 21
201.8261974056723
 31
0.0
  0
LINE
  5
1058
330
1F
100
AcDbEntity
  8
ceco.net 90
100
AcDbLine
 10
-111.6631726030946
 20
187.2170216434401
 30
0.0
 11
-83.63126150269627
 21
187.2170216434401
 31
0.0
  0
LINE
  5
1059
330
1F
100
AcDbEntity
  8
ceco.net 90
100
AcDbLine
 10
-111.8868423187032
 20
199.1690209285011
 30
0.0
 11
-83.63126150269627
 21
199.1690209285011
 31
0.0
  0
LINE
  5
105A
330
1F
100
AcDbEntity
  8
ceco.net 90
100
AcDbLine
 10
-112.110512034311
 20
211.121020213562
 30
0.0
 11
-83.63126150305133
 21
211.121020213562
 31
0.0
  0
LINE
  5
105B
330
1F
100
AcDbEntity
  8
ceco.net 90
100
AcDbLine
 10
-112.3374036923641
 20
223.0730194986775
 30
0.0
 11
-83.63126150305133
 21
223.0730194986229
 31
0.0
  0
LINE
  5
105C
330
1F
100
AcDbEntity
  8
ceco.net 90
100
AcDbLine
 10
-112.5610734080269
 20
235.0250187836838
 30
0.0
 11
-83.63126150157613
 21
235.0250187836838
 31
0.0
  0
LINE
  5
105D
330
1F
100
AcDbEntity
  8
ceco.net 90
100
AcDbLine
 10
-83.63126150305133
 20
211.121020213562
 30
0.0
 11
-58.83096151891809
 21
235.9213201975036
 31
0.0
  0
LINE
  5
105E
330
1F
100
AcDbEntity
  8
ceco.net 90
100
AcDbLine
 10
-83.63126150108524
 20
223.0730194986229
 30
0.0
 11
-64.21288232216435
 21
242.4913986773792
 31
0.0
  0
LINE
  5
105F
330
1F
100
AcDbEntity
  8
ceco.net 90
100
AcDbLine
 10
-83.63126150168531
 20
235.0250187836838
 30
0.0
 11
-68.96874300470649
 21
249.6875372805535
 31
0.0
  0
LINE
  5
1060
330
1F
100
AcDbEntity
  8
ceco.net 90
100
AcDbLine
 10
-112.7847431236355
 20
246.9770180687448
 30
0.0
 11
-83.63126150157613
 21
246.9770180687448
 31
0.0
  0
LINE
  5
1061
330
1F
100
AcDbEntity
  8
ceco.net 90
100
AcDbLine
 10
-113.0084128392433
 20
258.9290173538332
 30
0.0
 11
-83.63126150010176
 21
258.9290173538056
 31
0.0
  0
LINE
  5
1062
330
1F
100
AcDbEntity
  8
ceco.net 90
100
AcDbLine
 10
-83.63126149961003
 20
246.9770180687448
 30
0.0
 11
-71.02442105992254
 21
259.5838585083502
 31
0.0
  0
LINE
  5
1063
330
1F
100
AcDbEntity
  8
ceco.net 90
100
AcDbLine
 10
-83.63126150021095
 20
258.9290173538056
 30
0.0
 11
-71.80138983165417
 21
270.7588890222532
 31
0.0
  0
LINE
  5
1064
330
1F
100
AcDbEntity
  8
ceco.net 90
100
AcDbLine
 10
-113.2320825548786
 20
270.8810166388666
 30
0.0
 11
-83.63126150299633
 21
270.8810166388666
 31
0.0
  0
LINE
  5
1065
330
1F
100
AcDbEntity
  8
ceco.net 90
100
AcDbLine
 10
-113.4557522704872
 20
282.8330159239275
 30
0.0
 11
-83.63126150152195
 21
282.8330159239275
 31
0.0
  0
LINE
  5
1066
330
1F
100
AcDbEntity
  8
ceco.net 90
100
AcDbLine
 10
-83.63126150103022
 20
270.8810166388666
 30
0.0
 11
-72.57835860343999
 21
281.9339195363752
 31
0.0
  0
LINE
  5
1067
330
1F
100
AcDbEntity
  8
ceco.net 90
100
AcDbLine
 10
-83.63126150163115
 20
282.8330159239275
 30
0.0
 11
-73.3553273751708
 21
293.1089500503058
 31
0.0
  0
LINE
  5
1068
330
1F
100
AcDbEntity
  8
ceco.net 90
100
AcDbLine
 10
-113.6762000436504
 20
294.785015209043
 30
0.0
 11
-83.63126150152195
 21
294.7850152089884
 31
0.0
  0
LINE
  5
1069
330
1F
100
AcDbEntity
  8
ceco.net 90
100
AcDbLine
 10
-113.8998697592857
 20
306.7370144940769
 30
0.0
 11
-83.63126150004676
 21
306.7370144940493
 31
0.0
  0
LINE
  5
106A
330
1F
100
AcDbEntity
  8
ceco.net 90
100
AcDbLine
 10
-83.63126149955585
 20
294.7850152089884
 30
0.0
 11
-74.13229614676575
 21
304.2839805616965
 31
0.0
  0
LINE
  5
106B
330
1F
100
AcDbEntity
  8
ceco.net 90
100
AcDbLine
 10
-83.63126150015594
 20
306.7370144940493
 30
0.0
 11
-74.90926491849656
 21
315.4590110756542
 31
0.0
  0
LINE
  5
106C
330
1F
100
AcDbEntity
  8
ceco.net 90
100
AcDbLine
 10
-114.1235394748943
 20
318.6890137791378
 30
0.0
 11
-83.63126150004676
 21
318.6890137791103
 31
0.0
  0
LINE
  5
106D
330
1F
100
AcDbEntity
  8
ceco.net 90
100
AcDbLine
 10
-114.3472091905296
 20
330.6410130641712
 30
0.0
 11
-83.63126149857237
 21
330.6410130641712
 31
0.0
  0
LINE
  5
106E
330
1F
100
AcDbEntity
  8
ceco.net 90
100
AcDbLine
 10
-83.63126149808065
 20
318.6890137791103
 30
0.0
 11
-75.68623369009152
 21
326.6340415870448
 31
0.0
  0
LINE
  5
106F
330
1F
100
AcDbEntity
  8
ceco.net 90
100
AcDbLine
 10
-83.63126149868156
 20
330.6410130641712
 30
0.0
 11
-76.46320246182316
 21
337.8090721010025
 31
0.0
  0
LINE
  5
1070
330
1F
100
AcDbEntity
  8
ceco.net 90
100
AcDbLine
 10
-114.5708789060557
 20
342.5930123461188
 30
0.0
 11
-83.63126150182202
 21
342.5930123460913
 31
0.0
  0
LINE
  5
1071
330
1F
100
AcDbEntity
  8
ceco.net 90
100
AcDbLine
 10
-114.7945486217185
 20
354.5450116311797
 30
0.0
 11
-83.63126150034764
 21
354.5450116311522
 31
0.0
  0
LINE
  5
1072
330
1F
100
AcDbEntity
  8
ceco.net 90
100
AcDbLine
 10
-83.63126149985587
 20
342.5930123460913
 30
0.0
 11
-77.24017123344478
 21
348.9841026124482
 31
0.0
  0
LINE
  5
1073
330
1F
100
AcDbEntity
  8
ceco.net 90
100
AcDbLine
 10
-83.63126150045681
 20
354.5450116311522
 30
0.0
 11
-78.01714000517559
 21
360.1591331263784
 31
0.0
  0
LINE
  5
1074
330
1F
100
AcDbEntity
  8
ceco.net 90
100
AcDbLine
 10
-115.0182183373263
 20
366.4970109162682
 30
0.0
 11
-83.63126150034764
 21
366.4970109162132
 31
0.0
  0
LINE
  5
1075
330
1F
100
AcDbEntity
  8
ceco.net 90
100
AcDbLine
 10
-115.2418880529349
 20
378.4490102013015
 30
0.0
 11
-83.63126149887241
 21
378.4490102012741
 31
0.0
  0
LINE
  5
1076
330
1F
100
AcDbEntity
  8
ceco.net 90
100
AcDbLine
 10
-83.6312614983807
 20
366.4970109162132
 30
0.0
 11
-78.79410877674304
 21
371.3341636378241
 31
0.0
  0
LINE
  5
1077
330
1F
100
AcDbEntity
  8
ceco.net 90
100
AcDbLine
 10
-83.63126149898162
 20
378.4490102012741
 30
0.0
 11
-80.01482498060997
 21
382.0654467196191
 31
0.0
  0
LINE
  5
1078
330
1F
100
AcDbEntity
  8
ceco.net 90
100
AcDbLine
 10
-115.4655577684885
 20
390.4010094834675
 30
0.0
 11
-83.63126150187701
 21
390.4010094834404
 31
0.0
  0
LINE
  5
1079
330
1F
100
AcDbEntity
  8
ceco.net 90
100
AcDbLine
 10
-115.6892274841238
 20
402.3530087685013
 30
0.0
 11
-83.6312615004018
 21
402.3530087685013
 31
0.0
  0
LINE
  5
107A
330
1F
100
AcDbEntity
  8
ceco.net 90
100
AcDbLine
 10
-83.63126149991092
 20
390.4010094834404
 30
0.0
 11
-81.39740248353824
 21
392.6348684998123
 31
0.0
  0
LINE
  5
107B
330
1F
100
AcDbEntity
  8
ceco.net 90
100
AcDbLine
 10
-83.63126150051099
 20
402.3530087685013
 30
0.0
 11
-82.77997998673992
 21
403.2042902822453
 31
0.0
  0
LINE
  5
107C
330
1F
100
AcDbEntity
  8
ceco.net 90
100
AcDbLine
 10
-115.6892274848614
 20
414.3050080506943
 30
0.0
 11
-84.23205588757038
 21
414.3050080506673
 31
0.0
  0
LINE
  5
107D
330
1F
100
AcDbEntity
  8
ceco.net 90
100
AcDbLine
 10
-116.1397888577581
 20
426.2570073357282
 30
0.0
 11
-85.79548723418017
 21
426.2570073357007
 31
0.0
  0
LINE
  5
107E
330
1F
100
AcDbEntity
  8
ceco.net 90
100
AcDbLine
 10
-116.3634585733117
 20
438.2090066178941
 30
0.0
 11
-87.35891858037907
 21
438.2090066178941
 31
0.0
  0
LINE
  5
107F
330
1F
100
AcDbEntity
  8
ceco.net 90
100
AcDbLine
 10
-116.5839063464474
 20
450.1610059029826
 30
0.0
 11
-88.92234992696137
 21
450.1610059029551
 31
0.0
  0
LINE
  5
1080
330
1F
100
AcDbEntity
  8
ceco.net 90
100
AcDbLine
 10
-116.8075760620285
 20
462.1130051851485
 30
0.0
 11
-90.4857812731611
 21
462.113005185121
 31
0.0
  0
LINE
  5
1081
330
1F
100
AcDbEntity
  8
ceco.net 90
100
AcDbLine
 10
-117.0344677201092
 20
474.0650044701819
 30
0.0
 11
-92.04921261971588
 21
474.0650044701819
 31
0.0
  0
LINE
  5
1082
330
1F
100
AcDbEntity
  8
ceco.net 90
100
AcDbLine
 10
-117.258137435662
 20
486.0170037523753
 30
0.0
 11
-93.61264396594229
 21
486.0170037523478
 31
0.0
  0
LINE
  5
1083
330
1F
100
AcDbEntity
  8
ceco.net 90
100
AcDbLine
 10
-117.4818071512981
 20
497.9690030374087
 30
0.0
 11
-95.17607531252457
 21
497.9690030374087
 31
0.0
  0
LINE
  5
1084
330
1F
100
AcDbEntity
  8
ceco.net 90
100
AcDbLine
 10
-117.7054768668517
 20
509.9210023195751
 30
0.0
 11
-96.73950665872432
 21
509.9210023195751
 31
0.0
  0
LINE
  5
1085
330
1F
100
AcDbEntity
  8
ceco.net 90
100
AcDbLine
 10
-117.9259246399874
 20
521.8730016046631
 30
0.0
 11
-98.30293800530661
 21
521.8730016046361
 31
0.0
  0
LINE
  5
1086
330
1F
100
AcDbEntity
  8
ceco.net 90
100
AcDbLine
 10
-118.1495943555677
 20
533.825000886802
 30
0.0
 11
-99.86636935150549
 21
533.825000886802
 31
0.0
  0
LINE
  5
1087
330
1F
100
AcDbEntity
  8
ceco.net 90
100
AcDbLine
 10
-118.3732640712038
 20
545.777000171863
 30
0.0
 11
-101.4298006981153
 21
545.7770001718901
 31
0.0
  0
LINE
  5
1088
330
1F
100
AcDbEntity
  8
ceco.net 90
100
AcDbLine
 10
-118.5969337867574
 20
557.7289994540288
 30
0.0
 11
-102.9932320442875
 21
557.7289994540564
 31
0.0
  0
LINE
  5
1089
330
1F
100
AcDbEntity
  8
ceco.net 90
100
AcDbLine
 10
-118.8206035023927
 20
569.6809987391174
 30
0.0
 11
-104.5566633908698
 21
569.6809987390898
 31
0.0
  0
LINE
  5
108A
330
1F
100
AcDbEntity
  8
ceco.net 90
100
AcDbLine
 10
-119.0442732179463
 20
581.6329980212556
 30
0.0
 11
-106.1200947370962
 21
581.6329980212556
 31
0.0
  0
LINE
  5
108B
330
1F
100
AcDbEntity
  8
ceco.net 90
100
AcDbLine
 10
-119.2679429335541
 20
593.5849973063442
 30
0.0
 11
-107.6835260836785
 21
593.5849973063166
 31
0.0
  0
LINE
  5
108C
330
1F
100
AcDbEntity
  8
ceco.net 90
100
AcDbLine
 10
-119.4916126491352
 20
605.5369965884826
 30
0.0
 11
-109.2469574298782
 21
605.5369965884826
 31
0.0
  0
LINE
  5
108D
330
1F
100
AcDbEntity
  8
ceco.net 90
100
AcDbLine
 10
-119.7152823647438
 20
617.4889958735434
 30
0.0
 11
-110.8103887764597
 21
617.4889958735165
 31
0.0
  0
LINE
  5
108E
330
1F
100
AcDbEntity
  8
ceco.net 90
100
AcDbLine
 10
-119.9389520803241
 20
629.4409951557099
 30
0.0
 11
-112.3738201226594
 21
629.4409951557099
 31
0.0
  0
LINE
  5
108F
330
1F
100
AcDbEntity
  8
ceco.net 90
100
AcDbLine
 10
-120.1626217959052
 20
641.3929944407708
 30
0.0
 11
-113.9372514692417
 21
641.3929944407708
 31
0.0
  0
LINE
  5
1090
330
1F
100
AcDbEntity
  8
ceco.net 90
100
AcDbLine
 10
-120.386291511513
 20
653.3449937229367
 30
0.0
 11
-115.5006828154414
 21
653.3449937229638
 31
0.0
  0
LINE
  5
1091
330
1F
100
AcDbEntity
  8
ceco.net 90
100
AcDbLine
 10
-120.6099612270941
 20
665.2969930079977
 30
0.0
 11
-117.0641141620229
 21
665.2969930079977
 31
0.0
  0
LINE
  5
1092
330
1F
100
AcDbEntity
  8
ceco.net 90
100
AcDbLine
 10
-120.8336309427294
 20
677.2489922930585
 30
0.0
 11
-118.6275455086051
 21
677.248992293004
 31
0.0
  0
LINE
  5
1093
330
1F
100
AcDbEntity
  8
ceco.net 90
100
AcDbLine
 10
-121.0573006583655
 20
689.2009915780648
 30
0.0
 11
-120.1909768551874
 21
689.200991578092
 31
0.0
  0
LINE
  5
1094
330
1F
100
AcDbEntity
  8
ceco.net 90
100
AcDbLine
 10
50.17875690183614
 20
187.2170216464173
 30
0.0
 11
61.03966067136571
 21
198.0779254158639
 31
0.0
  0
LINE
  5
1095
330
1F
100
AcDbEntity
  8
ceco.net 90
100
AcDbLine
 10
50.17875690129023
 20
187.2170216464173
 30
0.0
 11
39.04322469781606
 21
198.3525538498093
 31
0.0
  0
ENDSEC
  0
SECTION
  2
OBJECTS
  0
DICTIONARY
  5
C
330
0
100
AcDbDictionary
281
     1
  3
ACAD_GROUP
350
D
  3
ACAD_LAYOUT
350
1A
  3
ACAD_MLINESTYLE
350
17
  3
ACAD_PLOTSETTINGS
350
19
  3
ACAD_PLOTSTYLENAME
350
E
  3
AcDbVariableDictionary
350
115
  3
DWGPROPS
350
8E3
  0
DICTIONARY
  5
8FA
330
2
100
AcDbDictionary
280
     1
281
     1
  3
ACAD_LAYERFILTERS
360
1096
  3
ACAD_LAYERSTATES
360
8FB
  0
DICTIONARY
  5
8F2
330
8F1
100
AcDbDictionary
280
     1
281
     1
  3
ACAD_XREC_ROUNDTRIP
360
8F3
  0
DICTIONARY
  5
D
102
{ACAD_REACTORS
330
C
102
}
330
C
100
AcDbDictionary
281
     1
  0
DICTIONARY
  5
1A
102
{ACAD_REACTORS
330
C
102
}
330
C
100
AcDbDictionary
281
     1
  3
Layout1
350
1E
  3
Layout2
350
26
  3
Model
350
22
  0
DICTIONARY
  5
17
102
{ACAD_REACTORS
330
C
102
}
330
C
100
AcDbDictionary
281
     1
  3
Standard
350
18
  0
DICTIONARY
  5
19
102
{ACAD_REACTORS
330
C
102
}
330
C
100
AcDbDictionary
281
     1
  0
ACDBDICTIONARYWDFLT
  5
E
102
{ACAD_REACTORS
330
C
102
}
330
C
100
AcDbDictionary
281
     1
  3
Normal
350
F
100
AcDbDictionaryWithDefault
340
F
  0
DICTIONARY
  5
115
102
{ACAD_REACTORS
330
C
102
}
330
C
100
AcDbDictionary
281
     1
  3
DIMASSOC
350
117
  3
HIDETEXT
350
116
  0
XRECORD
  5
8E3
102
{ACAD_REACTORS
330
C
102
}
330
C
100
AcDbXrecord
280
     1
  1
DWGPROPS COOKIE
  2
Ceco.NET-Trees-and-Plants - T - xx . 67 . dwg
  3

  4
ceco.net
  6

  7

  8
peacosta
  9

300
=
301
=
302
=
303
=
304
=
305
=
306
=
307
=
308
=
309
=
 40
0.0450312037037037
 41
2455079.811409143
 42
2455838.656599502
  1

 90
        0
  0
DICTIONARY
  5
1096
102
{ACAD_REACTORS
330
8FA
102
}
330
8FA
100
AcDbDictionary
280
     1
281
     1
  0
DICTIONARY
  5
8FB
102
{ACAD_REACTORS
330
8FA
102
}
330
8FA
100
AcDbDictionary
281
     1
  0
XRECORD
  5
8F3
102
{ACAD_REACTORS
330
8F2
102
}
330
8F2
100
AcDbXrecord
280
     1
102
MATERIAL
340
0
  0
LAYOUT
  5
1E
102
{ACAD_REACTORS
330
1A
102
}
330
1A
100
AcDbPlotSettings
  1

  2
Microsoft Office Document Image Writer
  4

  6

 40
0.0
 41
0.0
 42
0.0
 43
0.0
 44
0.0
 45
0.0
 46
0.0
 47
0.0
 48
0.0
 49
0.0
140
0.0
141
0.0
142
1.0
143
1.0
 70
   688
 72
     0
 73
     0
 74
     5
  7

 75
    16
147
1.0
148
0.0
149
0.0
100
AcDbLayout
  1
Layout1
 70
     1
 71
     1
 10
0.0
 20
0.0
 11
420.0
 21
297.0
 12
0.0
 22
0.0
 32
0.0
 14
1.000000000000000E+20
 24
1.000000000000000E+20
 34
1.000000000000000E+20
 15
-1.000000000000000E+20
 25
-1.000000000000000E+20
 35
-1.000000000000000E+20
146
0.0
 13
0.0
 23
0.0
 33
0.0
 16
1.0
 26
0.0
 36
0.0
 17
0.0
 27
1.0
 37
0.0
 76
     0
330
1B
  0
LAYOUT
  5
26
102
{ACAD_REACTORS
330
1A
102
}
330
1A
100
AcDbPlotSettings
  1

  2
Microsoft Office Document Image Writer
  4

  6

 40
0.0
 41
0.0
 42
0.0
 43
0.0
 44
0.0
 45
0.0
 46
0.0
 47
0.0
 48
0.0
 49
0.0
140
0.0
141
0.0
142
1.0
143
1.0
 70
   688
 72
     0
 73
     0
 74
     5
  7

 75
    16
147
1.0
148
0.0
149
0.0
100
AcDbLayout
  1
Layout2
 70
     1
 71
     2
 10
0.0
 20
0.0
 11
12.0
 21
9.0
 12
0.0
 22
0.0
 32
0.0
 14
0.0
 24
0.0
 34
0.0
 15
0.0
 25
0.0
 35
0.0
146
0.0
 13
0.0
 23
0.0
 33
0.0
 16
1.0
 26
0.0
 36
0.0
 17
0.0
 27
1.0
 37
0.0
 76
     0
330
23
  0
LAYOUT
  5
22
102
{ACAD_REACTORS
330
1A
102
}
330
1A
100
AcDbPlotSettings
  1

  2
Microsoft Office Document Image Writer
  4

  6

 40
0.0
 41
0.0
 42
0.0
 43
0.0
 44
0.0
 45
0.0
 46
0.0
 47
0.0
 48
0.0
 49
0.0
140
0.0
141
0.0
142
1.0
143
1.0
 70
  1712
 72
     0
 73
     0
 74
     0
  7

 75
     0
147
1.0
148
0.0
149
0.0
100
AcDbLayout
  1
Model
 70
     1
 71
     0
 10
0.0
 20
0.0
 11
12.0
 21
9.0
 12
0.0
 22
0.0
 32
0.0
 14
0.0
 24
0.0
 34
0.0
 15
0.0
 25
0.0
 35
0.0
146
0.0
 13
0.0
 23
0.0
 33
0.0
 16
1.0
 26
0.0
 36
0.0
 17
0.0
 27
1.0
 37
0.0
 76
     0
330
1F
  0
MLINESTYLE
  5
18
102
{ACAD_REACTORS
330
17
102
}
330
17
100
AcDbMlineStyle
  2
STANDARD
 70
     0
  3

 62
   256
 51
90.0
 52
90.0
 71
     2
 49
0.5
 62
   256
  6
BYLAYER
 49
-0.5
 62
   256
  6
BYLAYER
  0
ACDBPLACEHOLDER
  5
F
102
{ACAD_REACTORS
330
E
102
}
330
E
  0
DICTIONARYVAR
  5
117
102
{ACAD_REACTORS
330
115
102
}
330
115
100
DictionaryVariables
280
     0
  1
2
  0
DICTIONARYVAR
  5
116
102
{ACAD_REACTORS
330
115
102
}
330
115
100
DictionaryVariables
280
     0
  1
1
  0
ENDSEC
  0
EOF
