  0
SECTION
  2
HEADER
  9
$ACADVER
  1
AC1015
  9
$ACADMAINTVER
 70
    13
  9
$DWGCODEPAGE
  3
ANSI_1252
  9
$INSBASE
 10
0.0
 20
0.0
 30
0.0
  9
$EXTMIN
 10
-1920.042749285112
 20
-0.0269418166171818
 30
-0.0015258207003583
  9
$EXTMAX
 10
1920.042767344746
 20
2060.063455688847
 30
0.0000000349246037
  9
$LIMMIN
 10
0.0
 20
0.0
  9
$LIMMAX
 10
420.0
 20
297.0
  9
$ORTHOMODE
 70
     0
  9
$REGENMODE
 70
     1
  9
$FILLMODE
 70
     1
  9
$QTEXTMODE
 70
     0
  9
$MIRRTEXT
 70
     1
  9
$LTSCALE
 40
1.0
  9
$ATTMODE
 70
     1
  9
$TEXTSIZE
 40
2.5
  9
$TRACEWID
 40
1.0
  9
$TEXTSTYLE
  7
Standard
  9
$CLAYER
  8
ceco.net 188 table
  9
$CELTYPE
  6
ByLayer
  9
$CECOLOR
 62
   256
  9
$CELTSCALE
 40
1.0
  9
$DISPSILH
 70
     0
  9
$DIMSCALE
 40
1.0
  9
$DIMASZ
 40
2.5
  9
$DIMEXO
 40
0.625
  9
$DIMDLI
 40
3.75
  9
$DIMRND
 40
0.0
  9
$DIMDLE
 40
0.0
  9
$DIMEXE
 40
1.25
  9
$DIMTP
 40
0.0
  9
$DIMTM
 40
0.0
  9
$DIMTXT
 40
2.5
  9
$DIMCEN
 40
2.5
  9
$DIMTSZ
 40
0.0
  9
$DIMTOL
 70
     0
  9
$DIMLIM
 70
     0
  9
$DIMTIH
 70
     0
  9
$DIMTOH
 70
     0
  9
$DIMSE1
 70
     0
  9
$DIMSE2
 70
     0
  9
$DIMTAD
 70
     1
  9
$DIMZIN
 70
     8
  9
$DIMBLK
  1

  9
$DIMASO
 70
     1
  9
$DIMSHO
 70
     1
  9
$DIMPOST
  1

  9
$DIMAPOST
  1

  9
$DIMALT
 70
     0
  9
$DIMALTD
 70
     3
  9
$DIMALTF
 40
0.03937007874016
  9
$DIMLFAC
 40
1.0
  9
$DIMTOFL
 70
     1
  9
$DIMTVP
 40
0.0
  9
$DIMTIX
 70
     0
  9
$DIMSOXD
 70
     0
  9
$DIMSAH
 70
     0
  9
$DIMBLK1
  1

  9
$DIMBLK2
  1

  9
$DIMSTYLE
  2
ISO-25
  9
$DIMCLRD
 70
     0
  9
$DIMCLRE
 70
     0
  9
$DIMCLRT
 70
     0
  9
$DIMTFAC
 40
1.0
  9
$DIMGAP
 40
0.625
  9
$DIMJUST
 70
     0
  9
$DIMSD1
 70
     0
  9
$DIMSD2
 70
     0
  9
$DIMTOLJ
 70
     0
  9
$DIMTZIN
 70
     8
  9
$DIMALTZ
 70
     0
  9
$DIMALTTZ
 70
     0
  9
$DIMUPT
 70
     0
  9
$DIMDEC
 70
     2
  9
$DIMTDEC
 70
     2
  9
$DIMALTU
 70
     2
  9
$DIMALTTD
 70
     3
  9
$DIMTXSTY
  7
Standard
  9
$DIMAUNIT
 70
     0
  9
$DIMADEC
 70
     0
  9
$DIMALTRND
 40
0.0
  9
$DIMAZIN
 70
     0
  9
$DIMDSEP
 70
    44
  9
$DIMATFIT
 70
     3
  9
$DIMFRAC
 70
     0
  9
$DIMLDRBLK
  1

  9
$DIMLUNIT
 70
     2
  9
$DIMLWD
 70
    -2
  9
$DIMLWE
 70
    -2
  9
$DIMTMOVE
 70
     0
  9
$LUNITS
 70
     2
  9
$LUPREC
 70
     2
  9
$SKETCHINC
 40
1.0
  9
$FILLETRAD
 40
10.0
  9
$AUNITS
 70
     0
  9
$AUPREC
 70
     0
  9
$MENU
  1
.
  9
$ELEVATION
 40
0.0
  9
$PELEVATION
 40
0.0
  9
$THICKNESS
 40
0.0
  9
$LIMCHECK
 70
     0
  9
$CHAMFERA
 40
10.0
  9
$CHAMFERB
 40
10.0
  9
$CHAMFERC
 40
20.0
  9
$CHAMFERD
 40
0.0
  9
$SKPOLY
 70
     0
  9
$TDCREATE
 40
2455079.811409143
  9
$TDUCREATE
 40
2455079.936409144
  9
$TDUPDATE
 40
2456911.050522037
  9
$TDUUPDATE
 40
2456911.175522037
  9
$TDINDWG
 40
0.0475304167
  9
$TDUSRTIMER
 40
0.0475304167
  9
$USRTIMER
 70
     1
  9
$ANGBASE
 50
0.0
  9
$ANGDIR
 70
     0
  9
$PDMODE
 70
     0
  9
$PDSIZE
 40
0.0
  9
$PLINEWID
 40
0.0
  9
$SPLFRAME
 70
     0
  9
$SPLINETYPE
 70
     6
  9
$SPLINESEGS
 70
     8
  9
$HANDSEED
  5
A0E
  9
$SURFTAB1
 70
     6
  9
$SURFTAB2
 70
     6
  9
$SURFTYPE
 70
     6
  9
$SURFU
 70
     6
  9
$SURFV
 70
     6
  9
$UCSBASE
  2

  9
$UCSNAME
  2

  9
$UCSORG
 10
0.0
 20
0.0
 30
0.0
  9
$UCSXDIR
 10
1.0
 20
0.0
 30
0.0
  9
$UCSYDIR
 10
0.0
 20
1.0
 30
0.0
  9
$UCSORTHOREF
  2

  9
$UCSORTHOVIEW
 70
     0
  9
$UCSORGTOP
 10
0.0
 20
0.0
 30
0.0
  9
$UCSORGBOTTOM
 10
0.0
 20
0.0
 30
0.0
  9
$UCSORGLEFT
 10
0.0
 20
0.0
 30
0.0
  9
$UCSORGRIGHT
 10
0.0
 20
0.0
 30
0.0
  9
$UCSORGFRONT
 10
0.0
 20
0.0
 30
0.0
  9
$UCSORGBACK
 10
0.0
 20
0.0
 30
0.0
  9
$PUCSBASE
  2

  9
$PUCSNAME
  2

  9
$PUCSORG
 10
0.0
 20
0.0
 30
0.0
  9
$PUCSXDIR
 10
1.0
 20
0.0
 30
0.0
  9
$PUCSYDIR
 10
0.0
 20
1.0
 30
0.0
  9
$PUCSORTHOREF
  2

  9
$PUCSORTHOVIEW
 70
     0
  9
$PUCSORGTOP
 10
0.0
 20
0.0
 30
0.0
  9
$PUCSORGBOTTOM
 10
0.0
 20
0.0
 30
0.0
  9
$PUCSORGLEFT
 10
0.0
 20
0.0
 30
0.0
  9
$PUCSORGRIGHT
 10
0.0
 20
0.0
 30
0.0
  9
$PUCSORGFRONT
 10
0.0
 20
0.0
 30
0.0
  9
$PUCSORGBACK
 10
0.0
 20
0.0
 30
0.0
  9
$USERI1
 70
     0
  9
$USERI2
 70
     0
  9
$USERI3
 70
     0
  9
$USERI4
 70
     0
  9
$USERI5
 70
     0
  9
$USERR1
 40
0.0
  9
$USERR2
 40
0.0
  9
$USERR3
 40
0.0
  9
$USERR4
 40
0.0
  9
$USERR5
 40
0.0
  9
$WORLDVIEW
 70
     1
  9
$SHADEDGE
 70
     3
  9
$SHADEDIF
 70
    70
  9
$TILEMODE
 70
     1
  9
$MAXACTVP
 70
    64
  9
$PINSBASE
 10
0.0
 20
0.0
 30
0.0
  9
$PLIMCHECK
 70
     0
  9
$PEXTMIN
 10
1.000000000000000E+20
 20
1.000000000000000E+20
 30
1.000000000000000E+20
  9
$PEXTMAX
 10
-1.000000000000000E+20
 20
-1.000000000000000E+20
 30
-1.000000000000000E+20
  9
$PLIMMIN
 10
0.0
 20
0.0
  9
$PLIMMAX
 10
420.0
 20
297.0
  9
$UNITMODE
 70
     0
  9
$VISRETAIN
 70
     1
  9
$PLINEGEN
 70
     0
  9
$PSLTSCALE
 70
     1
  9
$TREEDEPTH
 70
  3020
  9
$CMLSTYLE
  2
Standard
  9
$CMLJUST
 70
     0
  9
$CMLSCALE
 40
20.0
  9
$PROXYGRAPHICS
 70
     1
  9
$MEASUREMENT
 70
     1
  9
$CELWEIGHT
370
    -1
  9
$ENDCAPS
280
     0
  9
$JOINSTYLE
280
     0
  9
$LWDISPLAY
290
     0
  9
$INSUNITS
 70
     4
  9
$HYPERLINKBASE
  1

  9
$STYLESHEET
  1

  9
$XEDIT
290
     1
  9
$CEPSNTYPE
380
     0
  9
$PSTYLEMODE
290
     1
  9
$FINGERPRINTGUID
  2
{81085373-3A21-4932-80AA-8F6C3258C50C}
  9
$VERSIONGUID
  2
{DFB51920-F801-483F-BF72-C3AA523CAC76}
  9
$EXTNAMES
290
     1
  9
$PSVPSCALE
 40
0.0
  9
$OLESTARTUP
290
     0
  0
ENDSEC
  0
SECTION
  2
CLASSES
  0
CLASS
  1
ACDBDICTIONARYWDFLT
  2
AcDbDictionaryWithDefault
  3
AutoCAD 2000
 90
        0
280
     0
281
     0
  0
CLASS
  1
ACDBPLACEHOLDER
  2
AcDbPlaceHolder
  3
AutoCAD 2000
 90
        0
280
     0
281
     0
  0
CLASS
  1
LAYOUT
  2
AcDbLayout
  3
AutoCAD 2000
 90
        0
280
     0
281
     0
  0
CLASS
  1
DICTIONARYVAR
  2
AcDbDictionaryVar
  3
AutoCAD 2000
 90
        0
280
     0
281
     0
  0
ENDSEC
  0
SECTION
  2
TABLES
  0
TABLE
  2
VPORT
  5
8
330
0
100
AcDbSymbolTable
 70
     3
  0
VPORT
  5
A0D
330
8
100
AcDbSymbolTableRecord
100
AcDbViewportTableRecord
  2
*Active
 70
     0
 10
0.0
 20
0.0
 11
1.0
 21
1.0
 12
0.0000090298171358
 22
1030.018256936114
 13
0.0
 23
0.0
 14
10.0
 24
10.0
 15
10.0
 25
10.0
 16
0.0
 26
0.0
 36
1.0
 17
0.0
 27
0.0
 37
0.0
 40
2074.718258316154
 41
2.184834123222748
 42
50.0
 43
0.0
 44
0.0
 50
0.0
 51
0.0
 71
     0
 72
   100
 73
     1
 74
     3
 75
     0
 76
     0
 77
     0
 78
     0
281
     0
 65
     1
110
0.0
120
0.0
130
0.0
111
1.0
121
0.0
131
0.0
112
0.0
122
1.0
132
0.0
 79
     0
146
0.0
  0
ENDTAB
  0
TABLE
  2
LTYPE
  5
5
330
0
100
AcDbSymbolTable
 70
     1
  0
LTYPE
  5
14
330
5
100
AcDbSymbolTableRecord
100
AcDbLinetypeTableRecord
  2
ByBlock
 70
     0
  3

 72
    65
 73
     0
 40
0.0
  0
LTYPE
  5
15
330
5
100
AcDbSymbolTableRecord
100
AcDbLinetypeTableRecord
  2
ByLayer
 70
     0
  3

 72
    65
 73
     0
 40
0.0
  0
LTYPE
  5
16
330
5
100
AcDbSymbolTableRecord
100
AcDbLinetypeTableRecord
  2
Continuous
 70
     0
  3
Solid line
 72
    65
 73
     0
 40
0.0
  0
ENDTAB
  0
TABLE
  2
LAYER
  5
2
102
{ACAD_XDICTIONARY
360
901
102
}
330
0
100
AcDbSymbolTable
 70
     3
  0
LAYER
  5
10
330
2
100
AcDbSymbolTableRecord
100
AcDbLayerTableRecord
  2
0
 70
     0
 62
     7
  6
Continuous
370
    -3
390
F
  0
LAYER
  5
8F5
102
{ACAD_XDICTIONARY
360
8F6
102
}
330
2
100
AcDbSymbolTableRecord
100
AcDbLayerTableRecord
  2
ceco.net 188 table
 70
     0
 62
     7
  6
Continuous
370
    -3
390
F
1001
AcAecLayerStandard
1000

1000

  0
LAYER
  5
8F8
102
{ACAD_XDICTIONARY
360
8F9
102
}
330
2
100
AcDbSymbolTableRecord
100
AcDbLayerTableRecord
  2
ceco.net 188 balls
 70
     0
 62
     7
  6
Continuous
370
    -3
390
F
1001
AcAecLayerStandard
1000

1000

  0
ENDTAB
  0
TABLE
  2
STYLE
  5
3
330
0
100
AcDbSymbolTable
 70
     3
  0
STYLE
  5
11
330
3
100
AcDbSymbolTableRecord
100
AcDbTextStyleTableRecord
  2
Standard
 70
     0
 40
0.0
 41
1.0
 50
0.0
 71
     0
 42
2.5
  3
txt
  4

  0
ENDTAB
  0
TABLE
  2
VIEW
  5
6
330
0
100
AcDbSymbolTable
 70
     0
  0
ENDTAB
  0
TABLE
  2
UCS
  5
7
330
0
100
AcDbSymbolTable
 70
     0
  0
ENDTAB
  0
TABLE
  2
APPID
  5
9
330
0
100
AcDbSymbolTable
 70
     8
  0
APPID
  5
12
330
9
100
AcDbSymbolTableRecord
100
AcDbRegAppTableRecord
  2
ACAD
 70
     0
  0
APPID
  5
2C
330
9
100
AcDbSymbolTableRecord
100
AcDbRegAppTableRecord
  2
ACAD_DSTYLE_DIMJOGGED_JOGANGLE_SYMBOL
 70
     0
  0
APPID
  5
11B
330
9
100
AcDbSymbolTableRecord
100
AcDbRegAppTableRecord
  2
ACAD_NAV_VCDISPLAY
 70
     0
  0
APPID
  5
11C
330
9
100
AcDbSymbolTableRecord
100
AcDbRegAppTableRecord
  2
ACAD_MLEADERVER
 70
     0
  0
APPID
  5
8FD
330
9
100
AcDbSymbolTableRecord
100
AcDbRegAppTableRecord
  2
ACAD_PSEXT
 70
     0
  0
APPID
  5
8FE
330
9
100
AcDbSymbolTableRecord
100
AcDbRegAppTableRecord
  2
AcAecLayerStandard
 70
     0
  0
APPID
  5
8FF
330
9
100
AcDbSymbolTableRecord
100
AcDbRegAppTableRecord
  2
AcDbBlockRepETag
 70
     0
  0
APPID
  5
900
330
9
100
AcDbSymbolTableRecord
100
AcDbRegAppTableRecord
  2
ACAD_EXEMPT_FROM_CAD_STANDARDS
 70
     0
  0
ENDTAB
  0
TABLE
  2
DIMSTYLE
  5
A
330
0
100
AcDbSymbolTable
 70
     2
100
AcDbDimStyleTable
 71
     0
  0
DIMSTYLE
105
27
330
A
100
AcDbSymbolTableRecord
100
AcDbDimStyleTableRecord
  2
ISO-25
 70
     0
 41
2.5
 42
0.625
 43
3.75
 44
1.25
 73
     0
 74
     0
 77
     1
 78
     8
140
2.5
141
2.5
143
0.03937007874016
147
0.625
171
     3
172
     1
271
     2
272
     2
274
     3
278
    44
283
     0
284
     8
340
11
  0
DIMSTYLE
105
2B
330
A
100
AcDbSymbolTableRecord
100
AcDbDimStyleTableRecord
  2
Standard
 70
     0
340
11
  0
ENDTAB
  0
TABLE
  2
BLOCK_RECORD
  5
1
330
0
100
AcDbSymbolTable
 70
     2
  0
BLOCK_RECORD
  5
1F
330
1
100
AcDbSymbolTableRecord
100
AcDbBlockTableRecord
  2
*Model_Space
340
22
  0
BLOCK_RECORD
  5
1B
330
1
100
AcDbSymbolTableRecord
100
AcDbBlockTableRecord
  2
*Paper_Space
340
1E
  0
BLOCK_RECORD
  5
23
330
1
100
AcDbSymbolTableRecord
100
AcDbBlockTableRecord
  2
*Paper_Space0
340
26
  0
ENDTAB
  0
ENDSEC
  0
SECTION
  2
BLOCKS
  0
BLOCK
  5
20
330
1F
100
AcDbEntity
  8
0
100
AcDbBlockBegin
  2
*Model_Space
 70
     0
 10
0.0
 20
0.0
 30
0.0
  3
*Model_Space
  1

  0
ENDBLK
  5
21
330
1F
100
AcDbEntity
  8
0
100
AcDbBlockEnd
  0
BLOCK
  5
1C
330
1B
100
AcDbEntity
 67
     1
  8
0
100
AcDbBlockBegin
  2
*Paper_Space
 70
     0
 10
0.0
 20
0.0
 30
0.0
  3
*Paper_Space
  1

  0
ENDBLK
  5
1D
330
1B
100
AcDbEntity
 67
     1
  8
0
100
AcDbBlockEnd
  0
BLOCK
  5
24
330
23
100
AcDbEntity
  8
0
100
AcDbBlockBegin
  2
*Paper_Space0
 70
     0
 10
0.0
 20
0.0
 30
0.0
  3
*Paper_Space0
  1

  0
ENDBLK
  5
25
330
23
100
AcDbEntity
  8
0
100
AcDbBlockEnd
  0
ENDSEC
  0
SECTION
  2
ENTITIES
  0
HATCH
  5
989
330
1F
100
AcDbEntity
  8
ceco.net 188 balls
 62
     2
100
AcDbHatch
 10
0.0
 20
0.0
 30
0.0
210
0.0
220
0.0
230
1.0
  2
SOLID
 70
     1
 71
     0
 91
        3
 92
        7
 72
     1
 73
     1
 93
        3
 10
1066.223101720068
 20
1318.811961206898
 42
0.0226409103742103
 10
1039.999999999912
 20
1320.0
 42
0.0
 10
1039.999999999912
 20
1293.75
 42
0.4010144074046917
 97
        0
 92
        7
 72
     1
 73
     1
 93
        4
 10
1039.999999999912
 20
1346.25
 42
0.0
 10
1039.999999999912
 20
1320.0
 42
-0.0226409103742103
 10
1066.223101720068
 20
1318.811961206898
 42
0.0113190048118455
 10
1066.249999999912
 20
1320.0
 42
0.4142135623730951
 97
        0
 92
        7
 72
     1
 73
     1
 93
        3
 10
1039.999999999941
 20
1346.25
 42
0.4142135623734199
 10
1013.749999999912
 20
1320.0
 42
0.4142135623730951
 10
1039.999999999912
 20
1293.75
 42
0.0
 97
        0
 75
     0
 76
     1
 47
0.9454369792451526
 98
        3
 10
1053.127668524772
 20
1304.746534664882
 10
1049.343225756572
 20
1335.000525918789
 10
1032.312486861279
 20
1320.819013865781
1001
ACAD
1010
0.0
1020
0.0
1030
0.0
  0
HATCH
  5
98A
330
1F
100
AcDbEntity
  8
ceco.net 188 balls
 62
     3
100
AcDbHatch
 10
0.0
 20
0.0
 30
0.0
210
0.0
220
0.0
230
1.0
  2
SOLID
 70
     1
 71
     0
 91
        3
 92
        7
 72
     1
 73
     1
 93
        3
 10
1039.999999999912
 20
766.25
 42
0.0
 10
1039.999999999912
 20
740.0
 42
0.0226409103742103
 10
1066.223101720068
 20
741.1880387931014
 42
0.4010144074046917
 97
        0
 92
        7
 72
     1
 73
     1
 93
        4
 10
1066.249999999912
 20
740.0
 42
0.0113190048118455
 10
1066.223101720068
 20
741.1880387931014
 42
-0.0226409103742103
 10
1039.999999999912
 20
740.0
 42
0.0
 10
1039.999999999912
 20
713.75
 42
0.4142135623730951
 97
        0
 92
        7
 72
     1
 73
     1
 93
        3
 10
1039.999999999941
 20
766.25
 42
0.4142135623734199
 10
1013.749999999912
 20
740.0
 42
0.4142135623730951
 10
1039.999999999912
 20
713.75
 42
0.0
 97
        0
 75
     0
 76
     1
 47
0.6653524405333488
 98
        3
 10
1053.649428977427
 20
750.9859265566338
 10
1050.986136709718
 20
727.0333793950848
 10
1031.010698264144
 20
731.6909427135833
1001
ACAD
1010
0.0
1020
0.0
1030
0.0
  0
HATCH
  5
98B
330
1F
100
AcDbEntity
  8
ceco.net 188 balls
 62
   176
100
AcDbHatch
 10
0.0
 20
0.0
 30
0.0
210
0.0
220
0.0
230
1.0
  2
SOLID
 70
     1
 71
     0
 91
        1
 92
        7
 72
     1
 73
     1
 93
        2
 10
26.24999999991269
 20
1030.0
 42
1.0
 10
-26.25000000008731
 20
1030.0
 42
1.0
 97
        0
 75
     0
 76
     1
 47
1.063116241861168
 98
        1
 10
16.61656637597479
 20
1028.640118185488
1001
ACAD
1010
0.0
1020
0.0
1030
0.0
  0
HATCH
  5
98C
330
1F
100
AcDbEntity
  8
ceco.net 188 balls
 62
   250
100
AcDbHatch
 10
0.0
 20
0.0
 30
0.0
210
0.0
220
0.0
230
1.0
  2
SOLID
 70
     1
 71
     0
 91
        1
 92
        7
 72
     1
 73
     1
 93
        2
 10
-1423.750000000087
 20
1029.999999999992
 42
1.0
 10
-1476.250000000087
 20
1029.999999999992
 42
1.0
 97
        0
 75
     0
 76
     1
 47
0.5920599334510149
 98
        1
 10
-1445.05167509205
 20
1020.100658856972
1001
ACAD
1010
0.0
1020
0.0
1030
0.0
1000
RTTcAl
1070
-27398
1071
-1038411752
1000
$$NoName$$
  0
HATCH
  5
98D
330
1F
100
AcDbEntity
  8
ceco.net 188 balls
 62
     1
100
AcDbHatch
 10
0.0
 20
0.0
 30
0.0
210
0.0
220
0.0
230
1.0
  2
SOLID
 70
     1
 71
     0
 91
        1
 92
        7
 72
     1
 73
     1
 93
        4
 10
-1372.685217117046
 20
1134.999999999992
 42
0.7669081383406516
 10
-1323.715906177269
 20
1121.851030062338
 42
-0.0005272021474263
 10
-1323.688228056824
 20
1121.898969937647
 42
0.1313844186245082
 10
-1320.185217117046
 20
1134.999999999992
 42
1.0
 97
        0
 75
     0
 76
     1
 47
1.015324116170547
 98
       15
 10
-1347.15179822719
 20
1145.445826307521
 10
-1349.184350033494
 20
1092.648837050714
 10
-1347.15179822719
 20
1038.836509668908
 10
-1353.247960769193
 20
982.99380265933
 10
-1347.15179822719
 20
945.4268852779641
 10
-1299.396907698566
 20
947.457561528019
 10
-1302.445362188707
 20
995.1775635373778
 10
-1296.348453208309
 20
1053.051243419293
 10
-1299.396907698566
 20
1104.832894551043
 10
-1248.593562679569
 20
1075.388385547557
 10
-1249.609465363522
 20
1038.836509668908
 10
-1250.625368047476
 20
988.0704932844965
 10
-1220.143808899185
 20
1002.284930412541
 10
-1220.143808899185
 20
1054.066581544291
 10
-1170.356366564257
 20
1025.637410665862
1001
ACAD
1010
0.0
1020
0.0
1030
0.0
  0
HATCH
  5
98E
330
1F
100
AcDbEntity
  8
ceco.net 188 balls
 62
     1
100
AcDbHatch
 10
0.0
 20
0.0
 30
0.0
210
0.0
220
0.0
230
1.0
  2
SOLID
 70
     1
 71
     0
 91
        1
 92
        7
 72
     1
 73
     1
 93
        6
 10
-1138.320017117046
 20
1029.999999999992
 42
0.7669081395825869
 10
-1187.289328097947
 20
1043.148969866604
 42
-0.0005272005843455
 10
-1187.317006136319
 20
1043.101030133424
 42
0.1313844194192828
 10
-1190.820017117046
 20
1029.999999999992
 42
0.1313844196690137
 10
-1187.317006123455
 20
1016.898969844223
 42
-0.0005272000937053
 10
-1187.28932811084
 20
1016.851030155659
 42
0.766908139971865
 97
        0
 75
     0
 76
     1
 47
1.015324116170547
 98
       15
 10
-1347.15179822719
 20
1145.445826307521
 10
-1349.184350033494
 20
1092.648837050714
 10
-1347.15179822719
 20
1038.836509668908
 10
-1353.247960769193
 20
982.99380265933
 10
-1347.15179822719
 20
945.4268852779641
 10
-1299.396907698566
 20
947.457561528019
 10
-1302.445362188707
 20
995.1775635373778
 10
-1296.348453208309
 20
1053.051243419293
 10
-1299.396907698566
 20
1104.832894551043
 10
-1248.593562679569
 20
1075.388385547557
 10
-1249.609465363522
 20
1038.836509668908
 10
-1250.625368047476
 20
988.0704932844965
 10
-1220.143808899185
 20
1002.284930412541
 10
-1220.143808899185
 20
1054.066581544291
 10
-1170.356366564257
 20
1025.637410665862
1001
ACAD
1010
0.0
1020
0.0
1030
0.0
  0
HATCH
  5
98F
330
1F
100
AcDbEntity
  8
ceco.net 188 balls
 62
     1
100
AcDbHatch
 10
0.0
 20
0.0
 30
0.0
210
0.0
220
0.0
230
1.0
  2
SOLID
 70
     1
 71
     0
 91
        1
 92
        7
 72
     1
 73
     1
 93
        8
 10
-1183.786317117221
 20
1056.250000000036
 42
0.7669081383406516
 10
-1232.755628056998
 20
1069.39896993769
 42
-0.0005272021474263
 10
-1232.783306177443
 20
1069.351030062382
 42
0.1313844186245082
 10
-1236.286317117221
 20
1056.250000000036
 42
0.1313844186078007
 10
-1232.783306178287
 20
1043.148969939189
 42
-0.0005272021801291
 10
-1232.755628056154
 20
1043.10103006089
 42
0.5766473340782115
 10
-1187.317006136319
 20
1043.101030133424
 42
-0.0005272005843455
 10
-1187.289328097947
 20
1043.148969866604
 42
0.1313844194192828
 97
        0
 75
     0
 76
     1
 47
1.015324116170547
 98
       15
 10
-1347.15179822719
 20
1145.445826307521
 10
-1349.184350033494
 20
1092.648837050714
 10
-1347.15179822719
 20
1038.836509668908
 10
-1353.247960769193
 20
982.99380265933
 10
-1347.15179822719
 20
945.4268852779641
 10
-1299.396907698566
 20
947.457561528019
 10
-1302.445362188707
 20
995.1775635373778
 10
-1296.348453208309
 20
1053.051243419293
 10
-1299.396907698566
 20
1104.832894551043
 10
-1248.593562679569
 20
1075.388385547557
 10
-1249.609465363522
 20
1038.836509668908
 10
-1250.625368047476
 20
988.0704932844965
 10
-1220.143808899185
 20
1002.284930412541
 10
-1220.143808899185
 20
1054.066581544291
 10
-1170.356366564257
 20
1025.637410665862
1001
ACAD
1010
0.0
1020
0.0
1030
0.0
  0
HATCH
  5
990
330
1F
100
AcDbEntity
  8
ceco.net 188 balls
 62
     1
100
AcDbHatch
 10
0.0
 20
0.0
 30
0.0
210
0.0
220
0.0
230
1.0
  2
SOLID
 70
     1
 71
     0
 91
        1
 92
        7
 72
     1
 73
     1
 93
        8
 10
-1183.78631711725
 20
1003.74999999989
 42
0.1313844196690137
 10
-1187.28932811084
 20
1016.851030155659
 42
-0.0005272000937053
 10
-1187.317006123455
 20
1016.898969844223
 42
0.5766473347337142
 10
-1232.755628069164
 20
1016.898969916604
 42
-0.0005272016850195
 10
-1232.783306165307
 20
1016.851030083329
 42
0.1313844188603757
 10
-1236.28631711725
 20
1003.74999999989
 42
0.1313844180749139
 10
-1232.78330620579
 20
990.6489699867016
 42
-0.0005272032271295
 10
-1232.755628028651
 20
990.6010300132184
 42
0.7669081374836497
 97
        0
 75
     0
 76
     1
 47
1.015324116170547
 98
       15
 10
-1347.15179822719
 20
1145.445826307521
 10
-1349.184350033494
 20
1092.648837050714
 10
-1347.15179822719
 20
1038.836509668908
 10
-1353.247960769193
 20
982.99380265933
 10
-1347.15179822719
 20
945.4268852779641
 10
-1299.396907698566
 20
947.457561528019
 10
-1302.445362188707
 20
995.1775635373778
 10
-1296.348453208309
 20
1053.051243419293
 10
-1299.396907698566
 20
1104.832894551043
 10
-1248.593562679569
 20
1075.388385547557
 10
-1249.609465363522
 20
1038.836509668908
 10
-1250.625368047476
 20
988.0704932844965
 10
-1220.143808899185
 20
1002.284930412541
 10
-1220.143808899185
 20
1054.066581544291
 10
-1170.356366564257
 20
1025.637410665862
1001
ACAD
1010
0.0
1020
0.0
1030
0.0
  0
HATCH
  5
991
330
1F
100
AcDbEntity
  8
ceco.net 188 balls
 62
     1
100
AcDbHatch
 10
0.0
 20
0.0
 30
0.0
210
0.0
220
0.0
230
1.0
  2
SOLID
 70
     1
 71
     0
 91
        1
 92
        7
 72
     1
 73
     1
 93
        8
 10
-1232.755628028651
 20
990.6010300132184
 42
-0.0005272032271295
 10
-1232.78330620579
 20
990.6489699867016
 42
0.576647331818238
 10
-1278.221928036422
 20
990.6489699732119
 42
-0.0005272029289481
 10
-1278.249606197874
 20
990.6010300268244
 42
0.1313844182270881
 10
-1281.752617117192
 20
977.5000000000291
 42
0.1313844187234895
 10
-1278.249606172321
 20
964.3989699288285
 42
-0.0005272019526542
 10
-1278.221928062092
 20
964.3510300712369
 42
0.766908138495144
 10
-1229.252617117192
 20
977.5000000000291
 42
0.1313844180749139
 97
        0
 75
     0
 76
     1
 47
1.015324116170547
 98
       15
 10
-1347.15179822719
 20
1145.445826307521
 10
-1349.184350033494
 20
1092.648837050714
 10
-1347.15179822719
 20
1038.836509668908
 10
-1353.247960769193
 20
982.99380265933
 10
-1347.15179822719
 20
945.4268852779641
 10
-1299.396907698566
 20
947.457561528019
 10
-1302.445362188707
 20
995.1775635373778
 10
-1296.348453208309
 20
1053.051243419293
 10
-1299.396907698566
 20
1104.832894551043
 10
-1248.593562679569
 20
1075.388385547557
 10
-1249.609465363522
 20
1038.836509668908
 10
-1250.625368047476
 20
988.0704932844965
 10
-1220.143808899185
 20
1002.284930412541
 10
-1220.143808899185
 20
1054.066581544291
 10
-1170.356366564257
 20
1025.637410665862
1001
ACAD
1010
0.0
1020
0.0
1030
0.0
  0
HATCH
  5
992
330
1F
100
AcDbEntity
  8
ceco.net 188 balls
 62
     1
100
AcDbHatch
 10
0.0
 20
0.0
 30
0.0
210
0.0
220
0.0
230
1.0
  2
SOLID
 70
     1
 71
     0
 91
        1
 92
        7
 72
     1
 73
     1
 93
       12
 10
-1232.755628056154
 20
1043.10103006089
 42
-0.0005272021801291
 10
-1232.783306178287
 20
1043.148969939189
 42
0.2676664585751346
 10
-1255.50260329718
 20
1056.250000000043
 42
0.0
 10
-1255.502630937262
 20
1056.250000000043
 42
0.2676664582958457
 10
-1278.221928042447
 20
1043.148969962872
 42
-0.000527202701196
 10
-1278.249606191937
 20
1043.101030037192
 42
0.1313844183428523
 10
-1281.752617117221
 20
1030.000000000043
 42
0.1313844182452907
 10
-1278.249606196972
 20
1016.898969971618
 42
-0.000527202893812
 10
-1278.221928037353
 20
1016.851030028432
 42
0.576647332867485
 10
-1232.783306165307
 20
1016.851030083329
 42
-0.0005272016850195
 10
-1232.755628069164
 20
1016.898969916604
 42
0.1313844188603757
 10
-1229.252617117221
 20
1030.000000000043
 42
0.1313844186078007
 97
        0
 75
     0
 76
     1
 47
1.015324116170547
 98
       15
 10
-1347.15179822719
 20
1145.445826307521
 10
-1349.184350033494
 20
1092.648837050714
 10
-1347.15179822719
 20
1038.836509668908
 10
-1353.247960769193
 20
982.99380265933
 10
-1347.15179822719
 20
945.4268852779641
 10
-1299.396907698566
 20
947.457561528019
 10
-1302.445362188707
 20
995.1775635373778
 10
-1296.348453208309
 20
1053.051243419293
 10
-1299.396907698566
 20
1104.832894551043
 10
-1248.593562679569
 20
1075.388385547557
 10
-1249.609465363522
 20
1038.836509668908
 10
-1250.625368047476
 20
988.0704932844965
 10
-1220.143808899185
 20
1002.284930412541
 10
-1220.143808899185
 20
1054.066581544291
 10
-1170.356366564257
 20
1025.637410665862
1001
ACAD
1010
0.0
1020
0.0
1030
0.0
  0
HATCH
  5
993
330
1F
100
AcDbEntity
  8
ceco.net 188 balls
 62
     1
100
AcDbHatch
 10
0.0
 20
0.0
 30
0.0
210
0.0
220
0.0
230
1.0
  2
SOLID
 70
     1
 71
     0
 91
        1
 92
        7
 72
     1
 73
     1
 93
       10
 10
-1229.252617117221
 20
1082.500000000036
 42
0.7669081370988265
 10
-1278.221928015875
 20
1095.64897000874
 42
-0.0005272037106271
 10
-1278.249606218392
 20
1095.601029991288
 42
0.1313844178296631
 10
-1281.752617117221
 20
1082.500000000036
 42
0.1313844184265457
 10
-1278.24960618763
 20
1069.3989699554
 42
-0.0005272025369706
 10
-1278.221928046754
 20
1069.351030044657
 42
0.2676664583836137
 10
-1255.502630937262
 20
1056.250000000043
 42
0.0
 10
-1255.50260329718
 20
1056.250000000043
 42
0.2676664585924843
 10
-1232.783306177443
 20
1069.351030062382
 42
-0.0005272021474263
 10
-1232.755628056998
 20
1069.39896993769
 42
0.1313844186245082
 97
        0
 75
     0
 76
     1
 47
1.015324116170547
 98
       15
 10
-1347.15179822719
 20
1145.445826307521
 10
-1349.184350033494
 20
1092.648837050714
 10
-1347.15179822719
 20
1038.836509668908
 10
-1353.247960769193
 20
982.99380265933
 10
-1347.15179822719
 20
945.4268852779641
 10
-1299.396907698566
 20
947.457561528019
 10
-1302.445362188707
 20
995.1775635373778
 10
-1296.348453208309
 20
1053.051243419293
 10
-1299.396907698566
 20
1104.832894551043
 10
-1248.593562679569
 20
1075.388385547557
 10
-1249.609465363522
 20
1038.836509668908
 10
-1250.625368047476
 20
988.0704932844965
 10
-1220.143808899185
 20
1002.284930412541
 10
-1220.143808899185
 20
1054.066581544291
 10
-1170.356366564257
 20
1025.637410665862
1001
ACAD
1010
0.0
1020
0.0
1030
0.0
  0
HATCH
  5
994
330
1F
100
AcDbEntity
  8
ceco.net 188 balls
 62
     1
100
AcDbHatch
 10
0.0
 20
0.0
 30
0.0
210
0.0
220
0.0
230
1.0
  2
SOLID
 70
     1
 71
     0
 91
        1
 92
        7
 72
     1
 73
     1
 93
       10
 10
-1274.718917117046
 20
1108.749999999992
 42
0.7669081383406516
 10
-1323.688228056824
 20
1121.898969937647
 42
-0.0005272021474263
 10
-1323.715906177269
 20
1121.851030062338
 42
0.1313844186245082
 10
-1327.218917117046
 20
1108.749999999992
 42
0.1313844186245082
 10
-1323.715906177269
 20
1095.648969937647
 42
-0.0005272021474263
 10
-1323.688228056824
 20
1095.601030062338
 42
0.2676663175422609
 10
-1300.968944757216
 20
1082.500000000007
 42
0.0
 10
-1300.968889476993
 20
1082.500000000007
 42
0.2676663167055823
 10
-1278.249606218392
 20
1095.601029991288
 42
-0.0005272037106271
 10
-1278.221928015875
 20
1095.64897000874
 42
0.1313844178296631
 97
        0
 75
     0
 76
     1
 47
1.015324116170547
 98
       15
 10
-1347.15179822719
 20
1145.445826307521
 10
-1349.184350033494
 20
1092.648837050714
 10
-1347.15179822719
 20
1038.836509668908
 10
-1353.247960769193
 20
982.99380265933
 10
-1347.15179822719
 20
945.4268852779641
 10
-1299.396907698566
 20
947.457561528019
 10
-1302.445362188707
 20
995.1775635373778
 10
-1296.348453208309
 20
1053.051243419293
 10
-1299.396907698566
 20
1104.832894551043
 10
-1248.593562679569
 20
1075.388385547557
 10
-1249.609465363522
 20
1038.836509668908
 10
-1250.625368047476
 20
988.0704932844965
 10
-1220.143808899185
 20
1002.284930412541
 10
-1220.143808899185
 20
1054.066581544291
 10
-1170.356366564257
 20
1025.637410665862
1001
ACAD
1010
0.0
1020
0.0
1030
0.0
  0
HATCH
  5
995
330
1F
100
AcDbEntity
  8
ceco.net 188 balls
 62
     1
100
AcDbHatch
 10
0.0
 20
0.0
 30
0.0
210
0.0
220
0.0
230
1.0
  2
SOLID
 70
     1
 71
     0
 91
        1
 92
        7
 72
     1
 73
     1
 93
       12
 10
-1274.718917117163
 20
1056.250000000021
 42
0.1313844184265457
 10
-1278.221928046754
 20
1069.351030044657
 42
-0.0005272025369706
 10
-1278.24960618763
 20
1069.3989699554
 42
0.2676663173333903
 10
-1300.968889476993
 20
1082.500000000007
 42
0.0
 10
-1300.968944757216
 20
1082.500000000007
 42
0.2676663169848712
 10
-1323.688228029525
 20
1069.398969985042
 42
-0.0005272031895601
 10
-1323.715906204685
 20
1069.351030014972
 42
0.1313844180946114
 10
-1327.218917117163
 20
1056.250000000021
 42
0.1313844182285077
 10
-1323.715906197787
 20
1043.148969973095
 42
-0.000527202926792
 10
-1323.688228036422
 20
1043.101030026919
 42
0.576647332169216
 10
-1278.249606191937
 20
1043.101030037192
 42
-0.000527202701196
 10
-1278.221928042447
 20
1043.148969962872
 42
0.1313844183428523
 97
        0
 75
     0
 76
     1
 47
1.015324116170547
 98
       15
 10
-1347.15179822719
 20
1145.445826307521
 10
-1349.184350033494
 20
1092.648837050714
 10
-1347.15179822719
 20
1038.836509668908
 10
-1353.247960769193
 20
982.99380265933
 10
-1347.15179822719
 20
945.4268852779641
 10
-1299.396907698566
 20
947.457561528019
 10
-1302.445362188707
 20
995.1775635373778
 10
-1296.348453208309
 20
1053.051243419293
 10
-1299.396907698566
 20
1104.832894551043
 10
-1248.593562679569
 20
1075.388385547557
 10
-1249.609465363522
 20
1038.836509668908
 10
-1250.625368047476
 20
988.0704932844965
 10
-1220.143808899185
 20
1002.284930412541
 10
-1220.143808899185
 20
1054.066581544291
 10
-1170.356366564257
 20
1025.637410665862
1001
ACAD
1010
0.0
1020
0.0
1030
0.0
  0
HATCH
  5
996
330
1F
100
AcDbEntity
  8
ceco.net 188 balls
 62
     1
100
AcDbHatch
 10
0.0
 20
0.0
 30
0.0
210
0.0
220
0.0
230
1.0
  2
SOLID
 70
     1
 71
     0
 91
        1
 92
        7
 72
     1
 73
     1
 93
       12
 10
-1274.718917117104
 20
1003.750000000007
 42
0.1313844182452907
 10
-1278.221928037353
 20
1016.851030028432
 42
-0.000527202893812
 10
-1278.249606196972
 20
1016.898969971618
 42
0.5766473322127195
 10
-1323.688228043174
 20
1016.898969961344
 42
-0.0005272026684932
 10
-1323.715906190977
 20
1016.851030038655
 42
0.1313844183595598
 10
-1327.218917117105
 20
1003.750000000007
 42
0.1313844184265457
 10
-1323.715906187513
 20
990.6489699553713
 42
-0.0005272025369706
 10
-1323.688228046638
 20
990.6010300446286
 42
0.2676663173333903
 10
-1300.968944757274
 20
977.5000000000218
 42
0.0
 10
-1300.968889477051
 20
977.5000000000218
 42
0.2676663171246428
 10
-1278.249606197874
 20
990.6010300268244
 42
-0.0005272029289481
 10
-1278.221928036422
 20
990.6489699732119
 42
0.1313844182270881
 97
        0
 75
     0
 76
     1
 47
1.015324116170547
 98
       15
 10
-1347.15179822719
 20
1145.445826307521
 10
-1349.184350033494
 20
1092.648837050714
 10
-1347.15179822719
 20
1038.836509668908
 10
-1353.247960769193
 20
982.99380265933
 10
-1347.15179822719
 20
945.4268852779641
 10
-1299.396907698566
 20
947.457561528019
 10
-1302.445362188707
 20
995.1775635373778
 10
-1296.348453208309
 20
1053.051243419293
 10
-1299.396907698566
 20
1104.832894551043
 10
-1248.593562679569
 20
1075.388385547557
 10
-1249.609465363522
 20
1038.836509668908
 10
-1250.625368047476
 20
988.0704932844965
 10
-1220.143808899185
 20
1002.284930412541
 10
-1220.143808899185
 20
1054.066581544291
 10
-1170.356366564257
 20
1025.637410665862
1001
ACAD
1010
0.0
1020
0.0
1030
0.0
  0
HATCH
  5
997
330
1F
100
AcDbEntity
  8
ceco.net 188 balls
 62
     1
100
AcDbHatch
 10
0.0
 20
0.0
 30
0.0
210
0.0
220
0.0
230
1.0
  2
SOLID
 70
     1
 71
     0
 91
        1
 92
        7
 72
     1
 73
     1
 93
       10
 10
-1274.718917117221
 20
951.2500000000363
 42
0.1313844187234895
 10
-1278.221928062092
 20
964.3510300712369
 42
-0.0005272019526542
 10
-1278.249606172321
 20
964.3989699288285
 42
0.2676663176466962
 10
-1300.968889477051
 20
977.5000000000218
 42
0.0
 10
-1300.968944757274
 20
977.5000000000218
 42
0.2676663167055823
 10
-1323.688228015875
 20
964.3989700087404
 42
-0.0005272037106271
 10
-1323.715906218392
 20
964.3510299912886
 42
0.1313844178296631
 10
-1327.218917117221
 20
951.2500000000363
 42
0.1313844180306156
 10
-1323.715906208031
 20
938.1489699908124
 42
-0.0005272033162162
 10
-1323.688228026236
 20
938.1010300092166
 42
0.7669081374119477
 97
        0
 75
     0
 76
     1
 47
1.015324116170547
 98
       15
 10
-1347.15179822719
 20
1145.445826307521
 10
-1349.184350033494
 20
1092.648837050714
 10
-1347.15179822719
 20
1038.836509668908
 10
-1353.247960769193
 20
982.99380265933
 10
-1347.15179822719
 20
945.4268852779641
 10
-1299.396907698566
 20
947.457561528019
 10
-1302.445362188707
 20
995.1775635373778
 10
-1296.348453208309
 20
1053.051243419293
 10
-1299.396907698566
 20
1104.832894551043
 10
-1248.593562679569
 20
1075.388385547557
 10
-1249.609465363522
 20
1038.836509668908
 10
-1250.625368047476
 20
988.0704932844965
 10
-1220.143808899185
 20
1002.284930412541
 10
-1220.143808899185
 20
1054.066581544291
 10
-1170.356366564257
 20
1025.637410665862
1001
ACAD
1010
0.0
1020
0.0
1030
0.0
  0
HATCH
  5
998
330
1F
100
AcDbEntity
  8
ceco.net 188 balls
 62
     1
100
AcDbHatch
 10
0.0
 20
0.0
 30
0.0
210
0.0
220
0.0
230
1.0
  2
SOLID
 70
     1
 71
     0
 91
        1
 92
        7
 72
     1
 73
     1
 93
        4
 10
-1372.685217117046
 20
924.9999999999927
 42
1.0
 10
-1320.185217117046
 20
924.9999999999927
 42
0.1313844180306156
 10
-1323.688228026236
 20
938.1010300092166
 42
-0.0005272033162162
 10
-1323.715906208031
 20
938.1489699908124
 42
0.7669081374119477
 97
        0
 75
     0
 76
     1
 47
1.015324116170547
 98
       15
 10
-1347.15179822719
 20
1145.445826307521
 10
-1349.184350033494
 20
1092.648837050714
 10
-1347.15179822719
 20
1038.836509668908
 10
-1353.247960769193
 20
982.99380265933
 10
-1347.15179822719
 20
945.4268852779641
 10
-1299.396907698566
 20
947.457561528019
 10
-1302.445362188707
 20
995.1775635373778
 10
-1296.348453208309
 20
1053.051243419293
 10
-1299.396907698566
 20
1104.832894551043
 10
-1248.593562679569
 20
1075.388385547557
 10
-1249.609465363522
 20
1038.836509668908
 10
-1250.625368047476
 20
988.0704932844965
 10
-1220.143808899185
 20
1002.284930412541
 10
-1220.143808899185
 20
1054.066581544291
 10
-1170.356366564257
 20
1025.637410665862
1001
ACAD
1010
0.0
1020
0.0
1030
0.0
  0
HATCH
  5
999
330
1F
100
AcDbEntity
  8
ceco.net 188 balls
 62
     1
100
AcDbHatch
 10
0.0
 20
0.0
 30
0.0
210
0.0
220
0.0
230
1.0
  2
SOLID
 70
     1
 71
     0
 91
        1
 92
        7
 72
     1
 73
     1
 93
        6
 10
-1323.688228046638
 20
990.6010300446286
 42
-0.0005272025369706
 10
-1323.715906187513
 20
990.6489699553713
 42
0.7669081380316669
 10
-1372.685217117046
 20
977.4999999999927
 42
0.7669081370988265
 10
-1323.715906218392
 20
964.3510299912886
 42
-0.0005272037106271
 10
-1323.688228015875
 20
964.3989700087404
 42
0.1313844178296631
 10
-1320.185217117046
 20
977.4999999999927
 42
0.1313844184265457
 97
        0
 75
     0
 76
     1
 47
1.015324116170547
 98
       15
 10
-1347.15179822719
 20
1145.445826307521
 10
-1349.184350033494
 20
1092.648837050714
 10
-1347.15179822719
 20
1038.836509668908
 10
-1353.247960769193
 20
982.99380265933
 10
-1347.15179822719
 20
945.4268852779641
 10
-1299.396907698566
 20
947.457561528019
 10
-1302.445362188707
 20
995.1775635373778
 10
-1296.348453208309
 20
1053.051243419293
 10
-1299.396907698566
 20
1104.832894551043
 10
-1248.593562679569
 20
1075.388385547557
 10
-1249.609465363522
 20
1038.836509668908
 10
-1250.625368047476
 20
988.0704932844965
 10
-1220.143808899185
 20
1002.284930412541
 10
-1220.143808899185
 20
1054.066581544291
 10
-1170.356366564257
 20
1025.637410665862
1001
ACAD
1010
0.0
1020
0.0
1030
0.0
  0
HATCH
  5
99A
330
1F
100
AcDbEntity
  8
ceco.net 188 balls
 62
     1
100
AcDbHatch
 10
0.0
 20
0.0
 30
0.0
210
0.0
220
0.0
230
1.0
  2
SOLID
 70
     1
 71
     0
 91
        1
 92
        7
 72
     1
 73
     1
 93
        6
 10
-1323.688228036422
 20
1043.101030026919
 42
-0.000527202926792
 10
-1323.715906197787
 20
1043.148969973095
 42
0.7669081377210426
 10
-1372.685217117046
 20
1029.999999999992
 42
0.76690813792671
 10
-1323.715906190977
 20
1016.851030038655
 42
-0.0005272026684932
 10
-1323.688228043174
 20
1016.898969961344
 42
0.1313844183595598
 10
-1320.185217117046
 20
1029.999999999992
 42
0.1313844182285077
 97
        0
 75
     0
 76
     1
 47
1.015324116170547
 98
       15
 10
-1347.15179822719
 20
1145.445826307521
 10
-1349.184350033494
 20
1092.648837050714
 10
-1347.15179822719
 20
1038.836509668908
 10
-1353.247960769193
 20
982.99380265933
 10
-1347.15179822719
 20
945.4268852779641
 10
-1299.396907698566
 20
947.457561528019
 10
-1302.445362188707
 20
995.1775635373778
 10
-1296.348453208309
 20
1053.051243419293
 10
-1299.396907698566
 20
1104.832894551043
 10
-1248.593562679569
 20
1075.388385547557
 10
-1249.609465363522
 20
1038.836509668908
 10
-1250.625368047476
 20
988.0704932844965
 10
-1220.143808899185
 20
1002.284930412541
 10
-1220.143808899185
 20
1054.066581544291
 10
-1170.356366564257
 20
1025.637410665862
1001
ACAD
1010
0.0
1020
0.0
1030
0.0
  0
HATCH
  5
99B
330
1F
100
AcDbEntity
  8
ceco.net 188 balls
 62
     1
100
AcDbHatch
 10
0.0
 20
0.0
 30
0.0
210
0.0
220
0.0
230
1.0
  2
SOLID
 70
     1
 71
     0
 91
        1
 92
        7
 72
     1
 73
     1
 93
        6
 10
-1323.688228056824
 20
1095.601030062338
 42
-0.0005272021474263
 10
-1323.715906177269
 20
1095.648969937647
 42
0.7669081383406516
 10
-1372.685217117046
 20
1082.499999999992
 42
0.7669081375127684
 10
-1323.715906204685
 20
1069.351030014972
 42
-0.0005272031895601
 10
-1323.688228029525
 20
1069.398969985042
 42
0.1313844180946114
 10
-1320.185217117046
 20
1082.499999999992
 42
0.1313844186245082
 97
        0
 75
     0
 76
     1
 47
1.015324116170547
 98
       15
 10
-1347.15179822719
 20
1145.445826307521
 10
-1349.184350033494
 20
1092.648837050714
 10
-1347.15179822719
 20
1038.836509668908
 10
-1353.247960769193
 20
982.99380265933
 10
-1347.15179822719
 20
945.4268852779641
 10
-1299.396907698566
 20
947.457561528019
 10
-1302.445362188707
 20
995.1775635373778
 10
-1296.348453208309
 20
1053.051243419293
 10
-1299.396907698566
 20
1104.832894551043
 10
-1248.593562679569
 20
1075.388385547557
 10
-1249.609465363522
 20
1038.836509668908
 10
-1250.625368047476
 20
988.0704932844965
 10
-1220.143808899185
 20
1002.284930412541
 10
-1220.143808899185
 20
1054.066581544291
 10
-1170.356366564257
 20
1025.637410665862
1001
ACAD
1010
0.0
1020
0.0
1030
0.0
  0
HATCH
  5
99C
330
1F
100
AcDbEntity
  8
ceco.net 188 balls
 62
    24
100
AcDbHatch
 10
0.0
 20
0.0
 30
0.0
210
0.0
220
0.0
230
1.0
  2
SOLID
 70
     1
 71
     0
 91
        2
 92
        7
 72
     1
 73
     1
 93
        3
 10
1039.999999999941
 20
1056.25
 42
0.4142135623734199
 10
1013.749999999912
 20
1030.0
 42
0.4142135623730951
 10
1039.999999999912
 20
1003.749999999999
 42
0.0
 97
        0
 92
        7
 72
     1
 73
     1
 93
        3
 10
1039.999999999912
 20
1056.25
 42
0.0
 10
1039.999999999912
 20
1003.749999999999
 42
0.4142135623730951
 10
1066.249999999912
 20
1030.0
 42
0.4142135623730951
 97
        0
 75
     0
 76
     1
 47
1.510642544922917
 98
        2
 10
1031.792965723812
 20
1029.038185308978
 10
1048.422120751376
 20
1033.569980773259
1001
ACAD
1010
0.0
1020
0.0
1030
0.0
  0
ARC
  5
99D
330
1F
100
AcDbEntity
  8
ceco.net 188 table
100
AcDbCircle
 10
-1693.825498904974
 20
1969.943554283818
 30
0.0
 40
50.0
100
AcDbArc
 50
224.9999999997096
 51
270.0
  0
ARC
  5
99E
330
1F
100
AcDbEntity
  8
ceco.net 188 table
100
AcDbCircle
 10
-1830.000000000087
 20
1833.881944622029
 30
0.0
 40
50.0
100
AcDbArc
 50
0.0
 51
44.99999999970953
  0
ELLIPSE
  5
99F
330
1F
100
AcDbEntity
  8
ceco.net 188 table
100
AcDbEllipse
 10
-146.9275920089858
 20
2015.450883356817
 30
0.0
 11
-98.40023588692247
 21
26.17940310893333
 31
0.0
210
0.0
220
0.0
230
-1.0
 40
0.9449827391622246
 41
2.387850480303955
 42
3.299213629132773
  0
ELLIPSE
  5
9A0
330
1F
100
AcDbEntity
  8
ceco.net 188 table
100
AcDbEllipse
 10
-78.2500000015716
 20
1955.0
 30
0.0
 11
0.0
 21
-35.0
 31
0.0
210
0.0
220
0.0
230
1.0
 40
0.8571428571428571
 41
6.283185307179586
 42
8.462227212884627
  0
ELLIPSE
  5
9A1
330
1F
100
AcDbEntity
  8
ceco.net 188 table
100
AcDbEllipse
 10
146.9275920088111
 20
2015.450883356817
 30
0.0
 11
98.40023588692247
 21
26.17940310893333
 31
0.0
210
0.0
220
0.0
230
1.0
 40
0.9449827391622246
 41
2.387850480303955
 42
3.299213629132773
  0
ELLIPSE
  5
9A2
330
1F
100
AcDbEntity
  8
ceco.net 188 table
100
AcDbEllipse
 10
78.25000000139699
 20
1955.0
 30
0.0
 11
0.0
 21
-35.0
 31
0.0
210
0.0
220
0.0
230
-1.0
 40
0.8571428571428571
 41
6.283185307179586
 42
8.462227212884627
  0
CIRCLE
  5
9A3
330
1F
100
AcDbEntity
  8
ceco.net 188 balls
 62
     7
100
AcDbCircle
 10
1039.999999999912
 20
1030.0
 30
0.0
 40
26.25
  0
CIRCLE
  5
9A4
330
1F
100
AcDbEntity
  8
ceco.net 188 balls
 62
     7
100
AcDbCircle
 10
1039.999999999912
 20
1320.0
 30
0.0
 40
26.25
  0
CIRCLE
  5
9A5
330
1F
100
AcDbEntity
  8
ceco.net 188 balls
 62
     7
100
AcDbCircle
 10
1039.999999999912
 20
740.0
 30
0.0
 40
26.25
  0
HATCH
  5
9A6
330
1F
100
AcDbEntity
  8
ceco.net 188 balls
100
AcDbHatch
 10
0.0
 20
0.0
 30
0.0
210
0.0
220
0.0
230
1.0
  2
SOLID
 70
     1
 71
     0
 91
        1
 92
        7
 72
     1
 73
     1
 93
        2
 10
1146.884812412812
 20
1148.186319715983
 42
1.0
 10
1094.384812412812
 20
1148.186319715983
 42
1.0
 97
        0
 75
     0
 76
     1
 47
0.9453730257724036
 98
        1
 10
1113.961652975325
 20
1139.776780953863
1001
ACAD
1010
0.0
1020
0.0
1030
0.0
  0
CIRCLE
  5
9A7
330
1F
100
AcDbEntity
  8
ceco.net 188 balls
100
AcDbCircle
 10
1120.634812412812
 20
1148.186319715983
 30
0.0
 40
26.25
  0
CIRCLE
  5
9A8
330
1F
100
AcDbEntity
  8
ceco.net 188 balls
 62
     7
100
AcDbCircle
 10
-0.0000000000873115
 20
1030.0
 30
0.0
 40
26.25
  0
HATCH
  5
9A9
330
1F
100
AcDbEntity
  8
ceco.net 188 balls
 62
   211
100
AcDbHatch
 10
0.0
 20
0.0
 30
0.0
210
0.0
220
0.0
230
1.0
  2
SOLID
 70
     1
 71
     0
 91
        1
 92
        7
 72
     1
 73
     1
 93
        2
 10
-861.7500000000873
 20
1030.000000000022
 42
1.0
 10
-914.2500000000874
 20
1030.000000000022
 42
1.0
 97
        0
 75
     0
 76
     1
 47
1.510843541551796
 98
        1
 10
-888.0503719487169
 20
1018.618140613078
1001
ACAD
1010
0.0
1020
0.0
1030
0.0
  0
CIRCLE
  5
9AA
330
1F
100
AcDbEntity
  8
ceco.net 188 balls
 62
     7
100
AcDbCircle
 10
-888.0000000000872
 20
1030.000000000022
 30
0.0
 40
26.25
  0
CIRCLE
  5
9AB
330
1F
100
AcDbEntity
  8
ceco.net 188 balls
 62
     7
100
AcDbCircle
 10
-1450.000000000087
 20
1029.999999999992
 30
0.0
 40
26.25
  0
CIRCLE
  5
9AC
330
1F
100
AcDbEntity
  8
ceco.net 188 balls
100
AcDbCircle
 10
-1346.435217117046
 20
1029.999999999992
 30
0.0
 40
26.25
  0
CIRCLE
  5
9AD
330
1F
100
AcDbEntity
  8
ceco.net 188 balls
100
AcDbCircle
 10
-1346.435217117046
 20
1082.499999999992
 30
0.0
 40
26.25
  0
CIRCLE
  5
9AE
330
1F
100
AcDbEntity
  8
ceco.net 188 balls
100
AcDbCircle
 10
-1346.435217117046
 20
1134.999999999992
 30
0.0
 40
26.25
  0
CIRCLE
  5
9AF
330
1F
100
AcDbEntity
  8
ceco.net 188 balls
100
AcDbCircle
 10
-1346.435217117046
 20
977.4999999999927
 30
0.0
 40
26.25
  0
CIRCLE
  5
9B0
330
1F
100
AcDbEntity
  8
ceco.net 188 balls
100
AcDbCircle
 10
-1346.435217117046
 20
924.9999999999927
 30
0.0
 40
26.25
  0
CIRCLE
  5
9B1
330
1F
100
AcDbEntity
  8
ceco.net 188 balls
100
AcDbCircle
 10
-1164.570017117046
 20
1029.999999999992
 30
0.0
 40
26.25
  0
CIRCLE
  5
9B2
330
1F
100
AcDbEntity
  8
ceco.net 188 balls
100
AcDbCircle
 10
-1300.968917117046
 20
1108.749999999992
 30
0.0
 40
26.25
  0
CIRCLE
  5
9B3
330
1F
100
AcDbEntity
  8
ceco.net 188 balls
100
AcDbCircle
 10
-1300.968917117163
 20
1056.250000000021
 30
0.0
 40
26.25
  0
CIRCLE
  5
9B4
330
1F
100
AcDbEntity
  8
ceco.net 188 balls
100
AcDbCircle
 10
-1300.968917117105
 20
1003.750000000007
 30
0.0
 40
26.25
  0
CIRCLE
  5
9B5
330
1F
100
AcDbEntity
  8
ceco.net 188 balls
100
AcDbCircle
 10
-1300.968917117221
 20
951.2500000000363
 30
0.0
 40
26.25
  0
CIRCLE
  5
9B6
330
1F
100
AcDbEntity
  8
ceco.net 188 balls
100
AcDbCircle
 10
-1255.502617117192
 20
977.5000000000291
 30
0.0
 40
26.25
  0
CIRCLE
  5
9B7
330
1F
100
AcDbEntity
  8
ceco.net 188 balls
100
AcDbCircle
 10
-1255.502617117221
 20
1030.000000000043
 30
0.0
 40
26.25
  0
CIRCLE
  5
9B8
330
1F
100
AcDbEntity
  8
ceco.net 188 balls
100
AcDbCircle
 10
-1255.502617117221
 20
1082.500000000036
 30
0.0
 40
26.25
  0
CIRCLE
  5
9B9
330
1F
100
AcDbEntity
  8
ceco.net 188 balls
100
AcDbCircle
 10
-1210.036317117221
 20
1056.250000000036
 30
0.0
 40
26.25
  0
CIRCLE
  5
9BA
330
1F
100
AcDbEntity
  8
ceco.net 188 balls
100
AcDbCircle
 10
-1210.03631711725
 20
1003.74999999989
 30
0.0
 40
26.25
  0
CIRCLE
  5
9BB
330
1F
100
AcDbEntity
  8
ceco.net 188 table
100
AcDbCircle
 10
-1873.750000000087
 20
2013.749999999999
 30
0.0
 40
36.25
  0
ARC
  5
9BC
330
1F
100
AcDbEntity
  8
ceco.net 188 table
100
AcDbCircle
 10
-1873.750000000087
 20
2013.749999999999
 30
0.0
 40
46.25
100
AcDbArc
 50
44.99999999970953
 51
224.9999999997096
  0
ELLIPSE
  5
9BD
330
1F
100
AcDbEntity
  8
ceco.net 188 table
100
AcDbEllipse
 10
-1880.000000000087
 20
1912.296311369951
 30
0.0
 11
-37.17366166126277
 21
30.55685116693761
 31
0.0
210
0.0
220
0.0
230
1.0
 40
0.8312430124494552
 41
3.709207141318781
 42
6.405741623552446
  0
ELLIPSE
  5
9BE
330
1F
100
AcDbEntity
  8
ceco.net 188 table
100
AcDbEllipse
 10
-1772.332804907782
 20
2020.000000000022
 30
0.0
 11
-30.55685116693761
 21
37.17366166126277
 31
0.0
210
0.0
220
0.0
230
-1.0
 40
0.8312430124494552
 41
3.709207141318781
 42
6.405741623552446
  0
CIRCLE
  5
9BF
330
1F
100
AcDbEntity
  8
ceco.net 188 table
100
AcDbCircle
 10
-1873.750000000087
 20
46.25
 30
0.0
 40
36.25
  0
ARC
  5
9C0
330
1F
100
AcDbEntity
  8
ceco.net 188 table
100
AcDbCircle
 10
-1873.750000000087
 20
46.25
 30
0.0
 40
46.25
100
AcDbArc
 50
134.9999999999956
 51
314.9999999999956
  0
ELLIPSE
  5
9C1
330
1F
100
AcDbEntity
  8
ceco.net 188 table
100
AcDbEllipse
 10
-1880.000000000087
 20
147.7036886300484
 30
0.0
 11
-37.17366166126277
 21
-30.55685116693761
 31
0.0
210
0.0
220
0.0
230
-1.0
 40
0.8312430124494552
 41
3.709207141318781
 42
6.405741623552446
  0
ELLIPSE
  5
9C2
330
1F
100
AcDbEntity
  8
ceco.net 188 table
100
AcDbEllipse
 10
-1772.332804907782
 20
39.99999999997817
 30
0.0
 11
-30.55685116693761
 21
-37.17366166126277
 31
0.0
210
0.0
220
0.0
230
1.0
 40
0.8312430124494552
 41
3.709207141318781
 42
6.405741623552446
  0
CIRCLE
  5
9C3
330
1F
100
AcDbEntity
  8
ceco.net 188 table
100
AcDbCircle
 10
1873.749999999912
 20
2013.749999999999
 30
0.0
 40
36.25
  0
ARC
  5
9C4
330
1F
100
AcDbEntity
  8
ceco.net 188 table
100
AcDbCircle
 10
1873.749999999912
 20
2013.749999999999
 30
0.0
 40
46.25
100
AcDbArc
 50
315.0000000002903
 51
135.0000000002904
  0
ELLIPSE
  5
9C5
330
1F
100
AcDbEntity
  8
ceco.net 188 table
100
AcDbEllipse
 10
1879.999999999912
 20
1912.296311369951
 30
0.0
 11
37.17366166126277
 21
30.55685116693761
 31
0.0
210
0.0
220
0.0
230
-1.0
 40
0.8312430124494552
 41
3.709207141318781
 42
6.405741623552446
  0
ELLIPSE
  5
9C6
330
1F
100
AcDbEntity
  8
ceco.net 188 table
100
AcDbEllipse
 10
1772.332804907608
 20
2020.000000000022
 30
0.0
 11
30.55685116693761
 21
37.17366166126277
 31
0.0
210
0.0
220
0.0
230
1.0
 40
0.8312430124494552
 41
3.709207141318781
 42
6.405741623552446
  0
CIRCLE
  5
9C7
330
1F
100
AcDbEntity
  8
ceco.net 188 table
100
AcDbCircle
 10
1873.749999999912
 20
46.25
 30
0.0
 40
36.25
  0
ARC
  5
9C8
330
1F
100
AcDbEntity
  8
ceco.net 188 table
100
AcDbCircle
 10
1873.749999999912
 20
46.25
 30
0.0
 40
46.25
100
AcDbArc
 50
224.9999999997096
 51
44.99999999970953
  0
ELLIPSE
  5
9C9
330
1F
100
AcDbEntity
  8
ceco.net 188 table
100
AcDbEllipse
 10
1879.999999999912
 20
147.7036886300484
 30
0.0
 11
37.17366166126277
 21
-30.55685116693761
 31
0.0
210
0.0
220
0.0
230
1.0
 40
0.8312430124494552
 41
3.709207141318781
 42
6.405741623552446
  0
ELLIPSE
  5
9CA
330
1F
100
AcDbEntity
  8
ceco.net 188 table
100
AcDbEllipse
 10
1772.332804907608
 20
39.99999999997817
 30
0.0
 11
30.55685116693761
 21
-37.17366166126277
 31
0.0
210
0.0
220
0.0
230
-1.0
 40
0.8312430124494552
 41
3.709207141318781
 42
6.405741623552446
  0
ARC
  5
9CB
330
1F
100
AcDbEntity
  8
ceco.net 188 table
100
AcDbCircle
 10
-1830.000000000087
 20
226.1180553779704
 30
0.0
 40
50.0
100
AcDbArc
 50
314.9999999999956
 51
0.0
  0
ARC
  5
9CC
330
1F
100
AcDbEntity
  8
ceco.net 188 table
100
AcDbCircle
 10
1829.999999999912
 20
1833.881944622029
 30
0.0
 40
50.0
100
AcDbArc
 50
135.0000000002904
 51
180.0
  0
ARC
  5
9CD
330
1F
100
AcDbEntity
  8
ceco.net 188 table
100
AcDbCircle
 10
1829.999999999912
 20
226.1180553779704
 30
0.0
 40
50.0
100
AcDbArc
 50
180.0
 51
224.9999999997096
  0
ARC
  5
9CE
330
1F
100
AcDbEntity
  8
ceco.net 188 table
100
AcDbCircle
 10
1693.8254989048
 20
1969.943554283818
 30
0.0
 40
50.0
100
AcDbArc
 50
270.0
 51
315.0000000002903
  0
ARC
  5
9CF
330
1F
100
AcDbEntity
  8
ceco.net 188 table
100
AcDbCircle
 10
-1693.825498904974
 20
90.05644571618176
 30
0.0
 40
50.0
100
AcDbArc
 50
90.0
 51
134.9999999999956
  0
ARC
  5
9D0
330
1F
100
AcDbEntity
  8
ceco.net 188 table
100
AcDbCircle
 10
1693.8254989048
 20
90.05644571618176
 30
0.0
 40
50.0
100
AcDbArc
 50
44.99999999941475
 51
90.0
  0
CIRCLE
  5
9D1
330
1F
100
AcDbEntity
  8
ceco.net 188 table
100
AcDbCircle
 10
-0.0000000000582077
 20
2013.749999999999
 30
0.0
 40
36.25
  0
ARC
  5
9D2
330
1F
100
AcDbEntity
  8
ceco.net 188 table
100
AcDbCircle
 10
-0.0000000000582077
 20
2013.749999999999
 30
0.0
 40
46.25
100
AcDbArc
 50
8.183031575274858
 51
171.8169684251313
  0
ELLIPSE
  5
9D3
330
1F
100
AcDbEntity
  8
ceco.net 188 table
100
AcDbEllipse
 10
-146.9275920089858
 20
44.54911664318205
 30
0.0
 11
-98.40023588692247
 21
-26.17940310893333
 31
0.0
210
0.0
220
0.0
230
1.0
 40
0.9449827391622246
 41
2.387850480303955
 42
3.299213629132773
  0
ELLIPSE
  5
9D4
330
1F
100
AcDbEntity
  8
ceco.net 188 table
100
AcDbEllipse
 10
-78.2500000015716
 20
105.0
 30
0.0
 11
0.0
 21
35.0
 31
0.0
210
0.0
220
0.0
230
-1.0
 40
0.8571428571428571
 41
6.283185307179586
 42
8.462227212884627
  0
ELLIPSE
  5
9D5
330
1F
100
AcDbEntity
  8
ceco.net 188 table
100
AcDbEllipse
 10
146.9275920088111
 20
44.54911664318205
 30
0.0
 11
98.40023588692247
 21
-26.17940310893333
 31
0.0
210
0.0
220
0.0
230
-1.0
 40
0.9449827391622246
 41
2.387850480303955
 42
3.299213629132773
  0
ELLIPSE
  5
9D6
330
1F
100
AcDbEntity
  8
ceco.net 188 table
100
AcDbEllipse
 10
78.25000000139699
 20
105.0
 30
0.0
 11
0.0
 21
35.0
 31
0.0
210
0.0
220
0.0
230
1.0
 40
0.8571428571428571
 41
6.283185307179586
 42
8.462227212884627
  0
CIRCLE
  5
9D7
330
1F
100
AcDbEntity
  8
ceco.net 188 table
100
AcDbCircle
 10
0.0
 20
46.25
 30
0.0
 40
36.25
  0
ARC
  5
9D8
330
1F
100
AcDbEntity
  8
ceco.net 188 table
100
AcDbCircle
 10
0.0
 20
46.25
 30
0.0
 40
46.25
100
AcDbArc
 50
188.1830315748686
 51
351.8169684240676
  0
LINE
  5
9D9
330
1F
100
AcDbEntity
  8
ceco.net 188 table
100
AcDbLine
 10
36.25
 20
46.25
 30
0.0
 11
46.25
 21
46.25
 31
0.0
  0
LINE
  5
9DA
330
1F
100
AcDbEntity
  8
ceco.net 188 table
100
AcDbLine
 10
-45.4707565344579
 20
46.25
 30
0.0
 11
-36.25
 21
46.25
 31
0.0
  0
LINE
  5
9DB
330
1F
100
AcDbEntity
  8
ceco.net 188 table
100
AcDbLine
 10
1769.920278128498
 20
84.67234461157204
 30
0.0
 11
1729.180837964115
 21
125.4117847755187
 31
0.0
  0
LINE
  5
9DC
330
1F
100
AcDbEntity
  8
ceco.net 188 table
100
AcDbLine
 10
-1769.920278128673
 20
84.67234461157204
 30
0.0
 11
-1729.180837964289
 21
125.4117847755187
 31
0.0
  0
LINE
  5
9DD
330
1F
100
AcDbEntity
  8
ceco.net 188 table
100
AcDbLine
 10
1769.920278128498
 20
1975.327655388428
 30
0.0
 11
1729.180837964115
 21
1934.588215224481
 31
0.0
  0
LINE
  5
9DE
330
1F
100
AcDbEntity
  8
ceco.net 188 table
100
AcDbLine
 10
1835.333094048721
 20
150.0742832109463
 30
0.0
 11
1794.644660940597
 21
190.7627163186334
 31
0.0
  0
LINE
  5
9DF
330
1F
100
AcDbEntity
  8
ceco.net 188 table
100
AcDbLine
 10
1835.333094048721
 20
1909.925716789054
 30
0.0
 11
1794.644660940597
 21
1869.237283681366
 31
0.0
  0
LINE
  5
9E0
330
1F
100
AcDbEntity
  8
ceco.net 188 table
100
AcDbLine
 10
-1835.333094048896
 20
150.0742832109463
 30
0.0
 11
-1794.644660940772
 21
190.7627163186334
 31
0.0
  0
LINE
  5
9E1
330
1F
100
AcDbEntity
  8
ceco.net 188 table
100
AcDbLine
 10
1906.453688629786
 20
78.95368862991017
 30
0.0
 11
1889.999999999912
 21
95.40737725977669
 31
0.0
  0
LINE
  5
9E2
330
1F
100
AcDbEntity
  8
ceco.net 188 table
100
AcDbLine
 10
1841.046311370067
 20
13.54631137011892
 30
0.0
 11
1824.592622740165
 21
30.00000000000727
 31
0.0
  0
LINE
  5
9E3
330
1F
100
AcDbEntity
  8
ceco.net 188 table
100
AcDbLine
 10
1841.346296507865
 20
30.0
 30
0.0
 11
1815.712496507854
 21
30.0
 31
0.0
  0
LINE
  5
9E4
330
1F
100
AcDbEntity
  8
ceco.net 188 table
100
AcDbLine
 10
1889.999999999912
 20
104.2874841846642
 30
0.0
 11
1889.999999999912
 21
78.65370349204022
 31
0.0
  0
LINE
  5
9E5
330
1F
100
AcDbEntity
  8
ceco.net 188 table
100
AcDbLine
 10
1906.453688629786
 20
1981.046311370089
 30
0.0
 11
1889.999999999912
 21
1964.592622740223
 31
0.0
  0
LINE
  5
9E6
330
1F
100
AcDbEntity
  8
ceco.net 188 table
100
AcDbLine
 10
1841.046311370067
 20
2046.453688629881
 30
0.0
 11
1824.592622740165
 21
2029.999999999992
 31
0.0
  0
LINE
  5
9E7
330
1F
100
AcDbEntity
  8
ceco.net 188 table
100
AcDbLine
 10
1841.346296507865
 20
2030.0
 30
0.0
 11
1815.712496507854
 21
2030.0
 31
0.0
  0
LINE
  5
9E8
330
1F
100
AcDbEntity
  8
ceco.net 188 table
100
AcDbLine
 10
1889.999999999912
 20
1955.712515815335
 30
0.0
 11
1889.999999999912
 21
1981.346296507959
 31
0.0
  0
LINE
  5
9E9
330
1F
100
AcDbEntity
  8
ceco.net 188 table
100
AcDbLine
 10
-1906.453688629961
 20
78.95368862991017
 30
0.0
 11
-1890.000000000087
 21
95.40737725977669
 31
0.0
  0
LINE
  5
9EA
330
1F
100
AcDbEntity
  8
ceco.net 188 table
100
AcDbLine
 10
-1841.046311370242
 20
13.54631137011892
 30
0.0
 11
-1824.592622740339
 21
30.00000000000727
 31
0.0
  0
LINE
  5
9EB
330
1F
100
AcDbEntity
  8
ceco.net 188 table
100
AcDbLine
 10
-1841.34629650804
 20
30.0
 30
0.0
 11
-1815.712496508029
 21
30.0
 31
0.0
  0
LINE
  5
9EC
330
1F
100
AcDbEntity
  8
ceco.net 188 table
100
AcDbLine
 10
-1890.000000000087
 20
104.2874841846642
 30
0.0
 11
-1890.000000000087
 21
78.65370349204022
 31
0.0
  0
LINE
  5
9ED
330
1F
100
AcDbEntity
  8
ceco.net 188 table
100
AcDbLine
 10
-1765.899374512257
 20
1975.0
 30
0.0
 11
-53.63044580211862
 21
1975.0
 31
0.0
  0
LINE
  5
9EE
330
1F
100
AcDbEntity
  8
ceco.net 188 table
100
AcDbLine
 10
-1835.000000000087
 20
156.8560832638031
 30
0.0
 11
-1835.000000000087
 21
1905.86288097508
 31
0.0
  0
LINE
  5
9EF
330
1F
100
AcDbEntity
  8
ceco.net 188 table
100
AcDbLine
 10
-1906.453688629961
 20
1981.046311370089
 30
0.0
 11
-1890.000000000087
 21
1964.592622740223
 31
0.0
  0
LINE
  5
9F0
330
1F
100
AcDbEntity
  8
ceco.net 188 table
100
AcDbLine
 10
-1841.046311370242
 20
2046.453688629881
 30
0.0
 11
-1824.592622740339
 21
2029.999999999992
 31
0.0
  0
LINE
  5
9F1
330
1F
100
AcDbEntity
  8
ceco.net 188 table
100
AcDbLine
 10
-1841.34629650804
 20
2030.0
 30
0.0
 11
-1815.712496508029
 21
2030.0
 31
0.0
  0
LINE
  5
9F2
330
1F
100
AcDbEntity
  8
ceco.net 188 table
100
AcDbLine
 10
-1890.000000000087
 20
1955.712515815335
 30
0.0
 11
-1890.000000000087
 21
1981.346296507959
 31
0.0
  0
LINE
  5
9F3
330
1F
100
AcDbEntity
  8
ceco.net 188 table
100
AcDbLine
 10
-1835.333094048896
 20
1909.925716789054
 30
0.0
 11
-1794.644660940772
 21
1869.237283681366
 31
0.0
  0
LINE
  5
9F4
330
1F
100
AcDbEntity
  8
ceco.net 188 table
100
AcDbLine
 10
-78.2500000015716
 20
140.0
 30
0.0
 11
-136.6817303955031
 21
140.0
 31
0.0
  0
LINE
  5
9F5
330
1F
100
AcDbEntity
  8
ceco.net 188 table
100
AcDbLine
 10
-136.6817303955031
 20
140.0
 30
0.0
 11
-1696.20065900468
 21
140.0
 31
0.0
  0
LINE
  5
9F6
330
1F
100
AcDbEntity
  8
ceco.net 188 table
100
AcDbLine
 10
-1769.920278128673
 20
1975.327655388428
 30
0.0
 11
-1729.180837964289
 21
1934.588215224481
 31
0.0
  0
LINE
  5
9F7
330
1F
100
AcDbEntity
  8
ceco.net 188 table
100
AcDbLine
 10
1834.999999999912
 20
1205.296786560327
 30
0.0
 11
1834.999999999912
 21
156.8560832638031
 31
0.0
  0
LINE
  5
9F8
330
1F
100
AcDbEntity
  8
ceco.net 188 table
100
AcDbLine
 10
1834.999999999912
 20
1903.143916736197
 30
0.0
 11
1834.999999999912
 21
1205.296786560327
 31
0.0
  0
LINE
  5
9F9
330
1F
100
AcDbEntity
  8
ceco.net 188 table
100
AcDbLine
 10
53.63044580194401
 20
1975.0
 30
0.0
 11
1763.180410274508
 21
1975.0
 31
0.0
  0
LINE
  5
9FA
330
1F
100
AcDbEntity
  8
ceco.net 188 table
100
AcDbLine
 10
36.24999999994179
 20
2013.749999999999
 30
0.0
 11
45.47075653428328
 21
2013.749999999999
 31
0.0
  0
LINE
  5
9FB
330
1F
100
AcDbEntity
  8
ceco.net 188 table
100
AcDbLine
 10
-45.4707565344579
 20
2013.749999999999
 30
0.0
 11
-36.25000000005821
 21
2013.749999999999
 31
0.0
  0
LINE
  5
9FC
330
1F
100
AcDbEntity
  8
ceco.net 188 table
100
AcDbLine
 10
-53.63044580211862
 20
85.0
 30
0.0
 11
-1763.180410274682
 21
85.0
 31
0.0
  0
LINE
  5
9FD
330
1F
100
AcDbEntity
  8
ceco.net 188 table
100
AcDbLine
 10
1763.180410274508
 20
85.0
 30
0.0
 11
53.63044580194401
 21
85.0
 31
0.0
  0
LINE
  5
9FE
330
1F
100
AcDbEntity
  8
ceco.net 188 table
100
AcDbLine
 10
78.25000000139699
 20
1920.0
 30
0.0
 11
1696.200659004505
 21
1920.0
 31
0.0
  0
LINE
  5
9FF
330
1F
100
AcDbEntity
  8
ceco.net 188 table
100
AcDbLine
 10
-1696.635223031073
 20
1920.0
 30
0.0
 11
-78.2500000015716
 21
1920.0
 31
0.0
  0
LINE
  5
A00
330
1F
100
AcDbEntity
  8
ceco.net 188 table
100
AcDbLine
 10
-1780.000000000087
 20
226.1180553779704
 30
0.0
 11
-1780.000000000087
 21
1833.881944622029
 31
0.0
  0
LINE
  5
A01
330
1F
100
AcDbEntity
  8
ceco.net 188 table
100
AcDbLine
 10
1696.200659004505
 20
140.0
 30
0.0
 11
78.25000000139699
 21
140.0
 31
0.0
  0
LINE
  5
A02
330
1F
100
AcDbEntity
  8
ceco.net 188 table
100
AcDbLine
 10
1779.999999999912
 20
1200.53759864447
 30
0.0
 11
1779.999999999912
 21
226.1180553779704
 31
0.0
  0
LINE
  5
A03
330
1F
100
AcDbEntity
  8
ceco.net 188 table
100
AcDbLine
 10
1779.999999999912
 20
1833.881944622029
 30
0.0
 11
1779.999999999912
 21
1200.53759864447
 31
0.0
  0
LINE
  5
A04
330
1F
100
AcDbEntity
  8
ceco.net 188 table
100
AcDbLine
 10
-1920.000000000087
 20
121.1535926188153
 30
0.0
 11
-1920.000000000087
 21
1938.846407381184
 31
0.0
  0
LINE
  5
A05
330
1F
100
AcDbEntity
  8
ceco.net 188 table
100
AcDbLine
 10
-58.25000000008731
 20
0.0
 30
0.0
 11
-1798.882900919066
 21
0.0
 31
0.0
  0
LINE
  5
A06
330
1F
100
AcDbEntity
  8
ceco.net 188 table
100
AcDbLine
 10
1798.882900918892
 20
0.0
 30
0.0
 11
58.24999999991269
 21
0.0
 31
0.0
  0
LINE
  5
A07
330
1F
100
AcDbEntity
  8
ceco.net 188 table
100
AcDbLine
 10
1919.999999999912
 20
1212.65189515757
 30
0.0
 11
1919.999999999912
 21
121.1535926188153
 31
0.0
  0
LINE
  5
A08
330
1F
100
AcDbEntity
  8
ceco.net 188 table
100
AcDbLine
 10
1919.999999999912
 20
1938.846407381184
 30
0.0
 11
1919.999999999912
 21
1212.65189515757
 31
0.0
  0
LINE
  5
A09
330
1F
100
AcDbEntity
  8
ceco.net 188 table
100
AcDbLine
 10
58.24999999991269
 20
2060.0
 30
0.0
 11
1798.882900918892
 21
2060.0
 31
0.0
  0
LINE
  5
A0A
330
1F
100
AcDbEntity
  8
ceco.net 188 table
100
AcDbLine
 10
-1798.882900919066
 20
2060.0
 30
0.0
 11
-58.25000000008731
 21
2060.0
 31
0.0
  0
ENDSEC
  0
SECTION
  2
OBJECTS
  0
DICTIONARY
  5
C
330
0
100
AcDbDictionary
281
     1
  3
ACAD_GROUP
350
D
  3
ACAD_LAYOUT
350
1A
  3
ACAD_MLINESTYLE
350
17
  3
ACAD_PLOTSETTINGS
350
19
  3
ACAD_PLOTSTYLENAME
350
E
  3
AcDbVariableDictionary
350
115
  3
DWGPROPS
350
8E3
  0
DICTIONARY
  5
901
330
2
100
AcDbDictionary
280
     1
281
     1
  3
ACAD_LAYERFILTERS
360
A0B
  3
ACAD_LAYERSTATES
360
902
  0
DICTIONARY
  5
8F6
330
8F5
100
AcDbDictionary
280
     1
281
     1
  3
ACAD_XREC_ROUNDTRIP
360
8F7
  0
DICTIONARY
  5
8F9
330
8F8
100
AcDbDictionary
280
     1
281
     1
  3
ACAD_XREC_ROUNDTRIP
360
8FA
  0
DICTIONARY
  5
D
102
{ACAD_REACTORS
330
C
102
}
330
C
100
AcDbDictionary
281
     1
  0
DICTIONARY
  5
1A
102
{ACAD_REACTORS
330
C
102
}
330
C
100
AcDbDictionary
281
     1
  3
Layout1
350
1E
  3
Layout2
350
26
  3
Model
350
22
  0
DICTIONARY
  5
17
102
{ACAD_REACTORS
330
C
102
}
330
C
100
AcDbDictionary
281
     1
  3
Standard
350
18
  0
DICTIONARY
  5
19
102
{ACAD_REACTORS
330
C
102
}
330
C
100
AcDbDictionary
281
     1
  0
ACDBDICTIONARYWDFLT
  5
E
102
{ACAD_REACTORS
330
C
102
}
330
C
100
AcDbDictionary
281
     1
  3
Normal
350
F
100
AcDbDictionaryWithDefault
340
F
  0
DICTIONARY
  5
115
102
{ACAD_REACTORS
330
C
102
}
330
C
100
AcDbDictionary
281
     1
  3
DIMASSOC
350
117
  3
HIDETEXT
350
116
  0
XRECORD
  5
8E3
102
{ACAD_REACTORS
330
C
102
}
330
C
100
AcDbXrecord
280
     1
  1
DWGPROPS COOKIE
  2
Ceco.NET-Trees-and-Plants - T - xx . 67 . dwg
  3

  4
ceco.net
  6

  7

  8
peacosta
  9

300
=
301
=
302
=
303
=
304
=
305
=
306
=
307
=
308
=
309
=
 40
0.0450312037037037
 41
2455079.811409143
 42
2455838.656599502
  1

 90
        0
  0
DICTIONARY
  5
A0B
102
{ACAD_REACTORS
330
901
102
}
330
901
100
AcDbDictionary
280
     1
281
     1
  0
DICTIONARY
  5
902
102
{ACAD_REACTORS
330
901
102
}
330
901
100
AcDbDictionary
281
     1
  0
XRECORD
  5
8F7
102
{ACAD_REACTORS
330
8F6
102
}
330
8F6
100
AcDbXrecord
280
     1
102
MATERIAL
340
0
  0
XRECORD
  5
8FA
102
{ACAD_REACTORS
330
8F9
102
}
330
8F9
100
AcDbXrecord
280
     1
102
MATERIAL
340
0
  0
LAYOUT
  5
1E
102
{ACAD_REACTORS
330
1A
102
}
330
1A
100
AcDbPlotSettings
  1

  2
Microsoft Office Document Image Writer
  4

  6

 40
0.0
 41
0.0
 42
0.0
 43
0.0
 44
0.0
 45
0.0
 46
0.0
 47
0.0
 48
0.0
 49
0.0
140
0.0
141
0.0
142
1.0
143
1.0
 70
   688
 72
     0
 73
     0
 74
     5
  7

 75
    16
147
1.0
148
0.0
149
0.0
100
AcDbLayout
  1
Layout1
 70
     1
 71
     1
 10
0.0
 20
0.0
 11
420.0
 21
297.0
 12
0.0
 22
0.0
 32
0.0
 14
1.000000000000000E+20
 24
1.000000000000000E+20
 34
1.000000000000000E+20
 15
-1.000000000000000E+20
 25
-1.000000000000000E+20
 35
-1.000000000000000E+20
146
0.0
 13
0.0
 23
0.0
 33
0.0
 16
1.0
 26
0.0
 36
0.0
 17
0.0
 27
1.0
 37
0.0
 76
     0
330
1B
  0
LAYOUT
  5
26
102
{ACAD_REACTORS
330
1A
102
}
330
1A
100
AcDbPlotSettings
  1

  2
Microsoft Office Document Image Writer
  4

  6

 40
0.0
 41
0.0
 42
0.0
 43
0.0
 44
0.0
 45
0.0
 46
0.0
 47
0.0
 48
0.0
 49
0.0
140
0.0
141
0.0
142
1.0
143
1.0
 70
   688
 72
     0
 73
     0
 74
     5
  7

 75
    16
147
1.0
148
0.0
149
0.0
100
AcDbLayout
  1
Layout2
 70
     1
 71
     2
 10
0.0
 20
0.0
 11
12.0
 21
9.0
 12
0.0
 22
0.0
 32
0.0
 14
0.0
 24
0.0
 34
0.0
 15
0.0
 25
0.0
 35
0.0
146
0.0
 13
0.0
 23
0.0
 33
0.0
 16
1.0
 26
0.0
 36
0.0
 17
0.0
 27
1.0
 37
0.0
 76
     0
330
23
  0
LAYOUT
  5
22
102
{ACAD_REACTORS
330
1A
102
}
330
1A
100
AcDbPlotSettings
  1

  2
Microsoft Office Document Image Writer
  4

  6

 40
0.0
 41
0.0
 42
0.0
 43
0.0
 44
0.0
 45
0.0
 46
0.0
 47
0.0
 48
0.0
 49
0.0
140
0.0
141
0.0
142
1.0
143
1.0
 70
  1712
 72
     0
 73
     0
 74
     0
  7

 75
     0
147
1.0
148
0.0
149
0.0
100
AcDbLayout
  1
Model
 70
     1
 71
     0
 10
0.0
 20
0.0
 11
12.0
 21
9.0
 12
0.0
 22
0.0
 32
0.0
 14
0.0
 24
0.0
 34
0.0
 15
0.0
 25
0.0
 35
0.0
146
0.0
 13
0.0
 23
0.0
 33
0.0
 16
1.0
 26
0.0
 36
0.0
 17
0.0
 27
1.0
 37
0.0
 76
     0
330
1F
  0
MLINESTYLE
  5
18
102
{ACAD_REACTORS
330
17
102
}
330
17
100
AcDbMlineStyle
  2
STANDARD
 70
     0
  3

 62
   256
 51
90.0
 52
90.0
 71
     2
 49
0.5
 62
   256
  6
BYLAYER
 49
-0.5
 62
   256
  6
BYLAYER
  0
ACDBPLACEHOLDER
  5
F
102
{ACAD_REACTORS
330
E
102
}
330
E
  0
DICTIONARYVAR
  5
117
102
{ACAD_REACTORS
330
115
102
}
330
115
100
DictionaryVariables
280
     0
  1
2
  0
DICTIONARYVAR
  5
116
102
{ACAD_REACTORS
330
115
102
}
330
115
100
DictionaryVariables
280
     0
  1
1
  0
ENDSEC
  0
EOF
