  0
SECTION
  2
HEADER
  9
$ACADVER
  1
AC1015
  9
$ACADMAINTVER
 70
    13
  9
$DWGCODEPAGE
  3
ANSI_1252
  9
$INSBASE
 10
0.0
 20
0.0
 30
0.0
  9
$EXTMIN
 10
-1042.036288241186
 20
-11.8598229613417
 30
-0.0015258207003583
  9
$EXTMAX
 10
1065.807647066161
 20
1581.329926309772
 30
0.0000000349246037
  9
$LIMMIN
 10
0.0
 20
0.0
  9
$LIMMAX
 10
420.0
 20
297.0
  9
$ORTHOMODE
 70
     0
  9
$REGENMODE
 70
     1
  9
$FILLMODE
 70
     1
  9
$QTEXTMODE
 70
     0
  9
$MIRRTEXT
 70
     1
  9
$LTSCALE
 40
1.0
  9
$ATTMODE
 70
     1
  9
$TEXTSIZE
 40
2.5
  9
$TRACEWID
 40
1.0
  9
$TEXTSTYLE
  7
Standard
  9
$CLAYER
  8
ceco.net 215
  9
$CELTYPE
  6
ByLayer
  9
$CECOLOR
 62
   256
  9
$CELTSCALE
 40
1.0
  9
$DISPSILH
 70
     0
  9
$DIMSCALE
 40
1.0
  9
$DIMASZ
 40
2.5
  9
$DIMEXO
 40
0.625
  9
$DIMDLI
 40
3.75
  9
$DIMRND
 40
0.0
  9
$DIMDLE
 40
0.0
  9
$DIMEXE
 40
1.25
  9
$DIMTP
 40
0.0
  9
$DIMTM
 40
0.0
  9
$DIMTXT
 40
2.5
  9
$DIMCEN
 40
2.5
  9
$DIMTSZ
 40
0.0
  9
$DIMTOL
 70
     0
  9
$DIMLIM
 70
     0
  9
$DIMTIH
 70
     0
  9
$DIMTOH
 70
     0
  9
$DIMSE1
 70
     0
  9
$DIMSE2
 70
     0
  9
$DIMTAD
 70
     1
  9
$DIMZIN
 70
     8
  9
$DIMBLK
  1

  9
$DIMASO
 70
     1
  9
$DIMSHO
 70
     1
  9
$DIMPOST
  1

  9
$DIMAPOST
  1

  9
$DIMALT
 70
     0
  9
$DIMALTD
 70
     3
  9
$DIMALTF
 40
0.03937007874016
  9
$DIMLFAC
 40
1.0
  9
$DIMTOFL
 70
     1
  9
$DIMTVP
 40
0.0
  9
$DIMTIX
 70
     0
  9
$DIMSOXD
 70
     0
  9
$DIMSAH
 70
     0
  9
$DIMBLK1
  1

  9
$DIMBLK2
  1

  9
$DIMSTYLE
  2
ISO-25
  9
$DIMCLRD
 70
     0
  9
$DIMCLRE
 70
     0
  9
$DIMCLRT
 70
     0
  9
$DIMTFAC
 40
1.0
  9
$DIMGAP
 40
0.625
  9
$DIMJUST
 70
     0
  9
$DIMSD1
 70
     0
  9
$DIMSD2
 70
     0
  9
$DIMTOLJ
 70
     0
  9
$DIMTZIN
 70
     8
  9
$DIMALTZ
 70
     0
  9
$DIMALTTZ
 70
     0
  9
$DIMUPT
 70
     0
  9
$DIMDEC
 70
     2
  9
$DIMTDEC
 70
     2
  9
$DIMALTU
 70
     2
  9
$DIMALTTD
 70
     3
  9
$DIMTXSTY
  7
Standard
  9
$DIMAUNIT
 70
     0
  9
$DIMADEC
 70
     0
  9
$DIMALTRND
 40
0.0
  9
$DIMAZIN
 70
     0
  9
$DIMDSEP
 70
    44
  9
$DIMATFIT
 70
     3
  9
$DIMFRAC
 70
     0
  9
$DIMLDRBLK
  1

  9
$DIMLUNIT
 70
     2
  9
$DIMLWD
 70
    -2
  9
$DIMLWE
 70
    -2
  9
$DIMTMOVE
 70
     0
  9
$LUNITS
 70
     2
  9
$LUPREC
 70
     2
  9
$SKETCHINC
 40
1.0
  9
$FILLETRAD
 40
10.0
  9
$AUNITS
 70
     0
  9
$AUPREC
 70
     0
  9
$MENU
  1
.
  9
$ELEVATION
 40
0.0
  9
$PELEVATION
 40
0.0
  9
$THICKNESS
 40
0.0
  9
$LIMCHECK
 70
     0
  9
$CHAMFERA
 40
10.0
  9
$CHAMFERB
 40
10.0
  9
$CHAMFERC
 40
20.0
  9
$CHAMFERD
 40
0.0
  9
$SKPOLY
 70
     0
  9
$TDCREATE
 40
2455079.811409143
  9
$TDUCREATE
 40
2455079.936409144
  9
$TDUPDATE
 40
2456925.936952476
  9
$TDUUPDATE
 40
2456926.061952477
  9
$TDINDWG
 40
0.0483798727
  9
$TDUSRTIMER
 40
0.0483798727
  9
$USRTIMER
 70
     1
  9
$ANGBASE
 50
0.0
  9
$ANGDIR
 70
     0
  9
$PDMODE
 70
     0
  9
$PDSIZE
 40
0.0
  9
$PLINEWID
 40
0.0
  9
$SPLFRAME
 70
     0
  9
$SPLINETYPE
 70
     6
  9
$SPLINESEGS
 70
     8
  9
$HANDSEED
  5
7D99
  9
$SURFTAB1
 70
     6
  9
$SURFTAB2
 70
     6
  9
$SURFTYPE
 70
     6
  9
$SURFU
 70
     6
  9
$SURFV
 70
     6
  9
$UCSBASE
  2

  9
$UCSNAME
  2

  9
$UCSORG
 10
0.0
 20
0.0
 30
0.0
  9
$UCSXDIR
 10
1.0
 20
0.0
 30
0.0
  9
$UCSYDIR
 10
0.0
 20
1.0
 30
0.0
  9
$UCSORTHOREF
  2

  9
$UCSORTHOVIEW
 70
     0
  9
$UCSORGTOP
 10
0.0
 20
0.0
 30
0.0
  9
$UCSORGBOTTOM
 10
0.0
 20
0.0
 30
0.0
  9
$UCSORGLEFT
 10
0.0
 20
0.0
 30
0.0
  9
$UCSORGRIGHT
 10
0.0
 20
0.0
 30
0.0
  9
$UCSORGFRONT
 10
0.0
 20
0.0
 30
0.0
  9
$UCSORGBACK
 10
0.0
 20
0.0
 30
0.0
  9
$PUCSBASE
  2

  9
$PUCSNAME
  2

  9
$PUCSORG
 10
0.0
 20
0.0
 30
0.0
  9
$PUCSXDIR
 10
1.0
 20
0.0
 30
0.0
  9
$PUCSYDIR
 10
0.0
 20
1.0
 30
0.0
  9
$PUCSORTHOREF
  2

  9
$PUCSORTHOVIEW
 70
     0
  9
$PUCSORGTOP
 10
0.0
 20
0.0
 30
0.0
  9
$PUCSORGBOTTOM
 10
0.0
 20
0.0
 30
0.0
  9
$PUCSORGLEFT
 10
0.0
 20
0.0
 30
0.0
  9
$PUCSORGRIGHT
 10
0.0
 20
0.0
 30
0.0
  9
$PUCSORGFRONT
 10
0.0
 20
0.0
 30
0.0
  9
$PUCSORGBACK
 10
0.0
 20
0.0
 30
0.0
  9
$USERI1
 70
     0
  9
$USERI2
 70
     0
  9
$USERI3
 70
     0
  9
$USERI4
 70
     0
  9
$USERI5
 70
     0
  9
$USERR1
 40
0.0
  9
$USERR2
 40
0.0
  9
$USERR3
 40
0.0
  9
$USERR4
 40
0.0
  9
$USERR5
 40
0.0
  9
$WORLDVIEW
 70
     1
  9
$SHADEDGE
 70
     3
  9
$SHADEDIF
 70
    70
  9
$TILEMODE
 70
     1
  9
$MAXACTVP
 70
    64
  9
$PINSBASE
 10
0.0
 20
0.0
 30
0.0
  9
$PLIMCHECK
 70
     0
  9
$PEXTMIN
 10
1.000000000000000E+20
 20
1.000000000000000E+20
 30
1.000000000000000E+20
  9
$PEXTMAX
 10
-1.000000000000000E+20
 20
-1.000000000000000E+20
 30
-1.000000000000000E+20
  9
$PLIMMIN
 10
0.0
 20
0.0
  9
$PLIMMAX
 10
420.0
 20
297.0
  9
$UNITMODE
 70
     0
  9
$VISRETAIN
 70
     1
  9
$PLINEGEN
 70
     0
  9
$PSLTSCALE
 70
     1
  9
$TREEDEPTH
 70
  3020
  9
$CMLSTYLE
  2
Standard
  9
$CMLJUST
 70
     0
  9
$CMLSCALE
 40
20.0
  9
$PROXYGRAPHICS
 70
     1
  9
$MEASUREMENT
 70
     1
  9
$CELWEIGHT
370
    -1
  9
$ENDCAPS
280
     0
  9
$JOINSTYLE
280
     0
  9
$LWDISPLAY
290
     0
  9
$INSUNITS
 70
     4
  9
$HYPERLINKBASE
  1

  9
$STYLESHEET
  1

  9
$XEDIT
290
     1
  9
$CEPSNTYPE
380
     0
  9
$PSTYLEMODE
290
     1
  9
$FINGERPRINTGUID
  2
{81085373-3A21-4932-80AA-8F6C3258C50C}
  9
$VERSIONGUID
  2
{D4E8EBEF-0A87-4F79-959D-72C21703343B}
  9
$EXTNAMES
290
     1
  9
$PSVPSCALE
 40
0.0
  9
$OLESTARTUP
290
     0
  0
ENDSEC
  0
SECTION
  2
CLASSES
  0
CLASS
  1
ACDBDICTIONARYWDFLT
  2
AcDbDictionaryWithDefault
  3
AutoCAD 2000
 90
        0
280
     0
281
     0
  0
CLASS
  1
ACDBPLACEHOLDER
  2
AcDbPlaceHolder
  3
AutoCAD 2000
 90
        0
280
     0
281
     0
  0
CLASS
  1
LAYOUT
  2
AcDbLayout
  3
AutoCAD 2000
 90
        0
280
     0
281
     0
  0
CLASS
  1
DICTIONARYVAR
  2
AcDbDictionaryVar
  3
AutoCAD 2000
 90
        0
280
     0
281
     0
  0
ENDSEC
  0
SECTION
  2
TABLES
  0
TABLE
  2
VPORT
  5
8
330
0
100
AcDbSymbolTable
 70
     3
  0
VPORT
  5
7D98
330
8
100
AcDbSymbolTableRecord
100
AcDbViewportTableRecord
  2
*Active
 70
     0
 10
0.0
 20
0.0
 11
1.0
 21
1.0
 12
11.88567941248754
 22
784.7350516742153
 13
0.0
 23
0.0
 14
10.0
 24
10.0
 15
10.0
 25
10.0
 16
0.0
 26
0.0
 36
1.0
 17
0.0
 27
0.0
 37
0.0
 40
1604.502339206766
 41
2.184834123222748
 42
50.0
 43
0.0
 44
0.0
 50
0.0
 51
0.0
 71
     0
 72
   100
 73
     1
 74
     3
 75
     0
 76
     0
 77
     0
 78
     0
281
     0
 65
     1
110
0.0
120
0.0
130
0.0
111
1.0
121
0.0
131
0.0
112
0.0
122
1.0
132
0.0
 79
     0
146
0.0
  0
ENDTAB
  0
TABLE
  2
LTYPE
  5
5
330
0
100
AcDbSymbolTable
 70
     1
  0
LTYPE
  5
14
330
5
100
AcDbSymbolTableRecord
100
AcDbLinetypeTableRecord
  2
ByBlock
 70
     0
  3

 72
    65
 73
     0
 40
0.0
  0
LTYPE
  5
15
330
5
100
AcDbSymbolTableRecord
100
AcDbLinetypeTableRecord
  2
ByLayer
 70
     0
  3

 72
    65
 73
     0
 40
0.0
  0
LTYPE
  5
16
330
5
100
AcDbSymbolTableRecord
100
AcDbLinetypeTableRecord
  2
Continuous
 70
     0
  3
Solid line
 72
    65
 73
     0
 40
0.0
  0
ENDTAB
  0
TABLE
  2
LAYER
  5
2
102
{ACAD_XDICTIONARY
360
90B
102
}
330
0
100
AcDbSymbolTable
 70
     2
  0
LAYER
  5
10
330
2
100
AcDbSymbolTableRecord
100
AcDbLayerTableRecord
  2
0
 70
     0
 62
     7
  6
Continuous
370
    -3
390
F
  0
LAYER
  5
7AA3
102
{ACAD_XDICTIONARY
360
7AA4
102
}
330
2
100
AcDbSymbolTableRecord
100
AcDbLayerTableRecord
  2
ceco.net 215
 70
     0
 62
     7
  6
Continuous
370
    -3
390
F
1001
AcAecLayerStandard
1000

1000

  0
ENDTAB
  0
TABLE
  2
STYLE
  5
3
330
0
100
AcDbSymbolTable
 70
     2
  0
STYLE
  5
11
330
3
100
AcDbSymbolTableRecord
100
AcDbTextStyleTableRecord
  2
Standard
 70
     0
 40
0.0
 41
1.0
 50
0.0
 71
     0
 42
2.5
  3
txt
  4

  0
STYLE
  5
7AA6
330
3
100
AcDbSymbolTableRecord
100
AcDbTextStyleTableRecord
  2
AREAL
 70
     0
 40
0.0
 41
1.0
 50
0.0
 71
     0
 42
0.0668604141535241
  3

  4

1001
ACAD
1000
AvantGarde Bk BT
1071
       34
  0
ENDTAB
  0
TABLE
  2
VIEW
  5
6
330
0
100
AcDbSymbolTable
 70
     0
  0
ENDTAB
  0
TABLE
  2
UCS
  5
7
330
0
100
AcDbSymbolTable
 70
     0
  0
ENDTAB
  0
TABLE
  2
APPID
  5
9
330
0
100
AcDbSymbolTable
 70
    24
  0
APPID
  5
12
330
9
100
AcDbSymbolTableRecord
100
AcDbRegAppTableRecord
  2
ACAD
 70
     0
  0
APPID
  5
2C
330
9
100
AcDbSymbolTableRecord
100
AcDbRegAppTableRecord
  2
ACAD_DSTYLE_DIMJOGGED_JOGANGLE_SYMBOL
 70
     0
  0
APPID
  5
11B
330
9
100
AcDbSymbolTableRecord
100
AcDbRegAppTableRecord
  2
ACAD_NAV_VCDISPLAY
 70
     0
  0
APPID
  5
11C
330
9
100
AcDbSymbolTableRecord
100
AcDbRegAppTableRecord
  2
ACAD_MLEADERVER
 70
     0
  0
APPID
  5
8F8
330
9
100
AcDbSymbolTableRecord
100
AcDbRegAppTableRecord
  2
RAK
 70
     0
  0
APPID
  5
8F9
330
9
100
AcDbSymbolTableRecord
100
AcDbRegAppTableRecord
  2
AcAecLayerStandard
 70
     0
  0
APPID
  5
8FA
330
9
100
AcDbSymbolTableRecord
100
AcDbRegAppTableRecord
  2
ACAD_PSEXT
 70
     0
  0
APPID
  5
8FB
330
9
100
AcDbSymbolTableRecord
100
AcDbRegAppTableRecord
  2
AcDbBlockRepETag
 70
     0
  0
APPID
  5
8FC
330
9
100
AcDbSymbolTableRecord
100
AcDbRegAppTableRecord
  2
AcadAnnoPO
 70
     0
  0
APPID
  5
8FD
330
9
100
AcDbSymbolTableRecord
100
AcDbRegAppTableRecord
  2
ACAUTHENVIRON
 70
     0
  0
APPID
  5
8FE
330
9
100
AcDbSymbolTableRecord
100
AcDbRegAppTableRecord
  2
AcDbDynamicBlockTrueName
 70
     0
  0
APPID
  5
8FF
330
9
100
AcDbSymbolTableRecord
100
AcDbRegAppTableRecord
  2
AcDbDynamicBlockGUID
 70
     0
  0
APPID
  5
900
330
9
100
AcDbSymbolTableRecord
100
AcDbRegAppTableRecord
  2
AcLayerTools
 70
     0
  0
APPID
  5
901
330
9
100
AcDbSymbolTableRecord
100
AcDbRegAppTableRecord
  2
ACAD_EXEMPT_FROM_CAD_STANDARDS
 70
     0
  0
APPID
  5
902
330
9
100
AcDbSymbolTableRecord
100
AcDbRegAppTableRecord
  2
AcadAnnotative
 70
     0
  0
APPID
  5
903
330
9
100
AcDbSymbolTableRecord
100
AcDbRegAppTableRecord
  2
ACAD_DSTYLE_DIMJAG
 70
     0
  0
APPID
  5
904
330
9
100
AcDbSymbolTableRecord
100
AcDbRegAppTableRecord
  2
ACAD_DSTYLE_DIMTALN
 70
     0
  0
APPID
  5
905
330
9
100
AcDbSymbolTableRecord
100
AcDbRegAppTableRecord
  2
ACAD_DSTYLE_DIMBREAK
 70
     0
  0
APPID
  5
906
330
9
100
AcDbSymbolTableRecord
100
AcDbRegAppTableRecord
  2
AcadAnnoAV
 70
     0
  0
APPID
  5
907
330
9
100
AcDbSymbolTableRecord
100
AcDbRegAppTableRecord
  2
AcCmTransparency
 70
     0
  0
APPID
  5
908
330
9
100
AcDbSymbolTableRecord
100
AcDbRegAppTableRecord
  2
GradientColor1ACI
 70
     0
  0
APPID
  5
909
330
9
100
AcDbSymbolTableRecord
100
AcDbRegAppTableRecord
  2
GradientColor2ACI
 70
     0
  0
APPID
  5
90A
330
9
100
AcDbSymbolTableRecord
100
AcDbRegAppTableRecord
  2
ADE
 70
     0
  0
APPID
  5
7AA7
330
9
100
AcDbSymbolTableRecord
100
AcDbRegAppTableRecord
  2
DCO15
 70
     0
  0
ENDTAB
  0
TABLE
  2
DIMSTYLE
  5
A
330
0
100
AcDbSymbolTable
 70
     2
100
AcDbDimStyleTable
 71
     0
  0
DIMSTYLE
105
27
330
A
100
AcDbSymbolTableRecord
100
AcDbDimStyleTableRecord
  2
ISO-25
 70
     0
 41
2.5
 42
0.625
 43
3.75
 44
1.25
 73
     0
 74
     0
 77
     1
 78
     8
140
2.5
141
2.5
143
0.03937007874016
147
0.625
171
     3
172
     1
271
     2
272
     2
274
     3
278
    44
283
     0
284
     8
340
11
  0
DIMSTYLE
105
2B
330
A
100
AcDbSymbolTableRecord
100
AcDbDimStyleTableRecord
  2
Standard
 70
     0
340
11
  0
ENDTAB
  0
TABLE
  2
BLOCK_RECORD
  5
1
330
0
100
AcDbSymbolTable
 70
     2
  0
BLOCK_RECORD
  5
1F
330
1
100
AcDbSymbolTableRecord
100
AcDbBlockTableRecord
  2
*Model_Space
340
22
  0
BLOCK_RECORD
  5
1B
330
1
100
AcDbSymbolTableRecord
100
AcDbBlockTableRecord
  2
*Paper_Space
340
1E
  0
BLOCK_RECORD
  5
23
330
1
100
AcDbSymbolTableRecord
100
AcDbBlockTableRecord
  2
*Paper_Space0
340
26
  0
ENDTAB
  0
ENDSEC
  0
SECTION
  2
BLOCKS
  0
BLOCK
  5
20
330
1F
100
AcDbEntity
  8
0
100
AcDbBlockBegin
  2
*Model_Space
 70
     0
 10
0.0
 20
0.0
 30
0.0
  3
*Model_Space
  1

  0
ENDBLK
  5
21
330
1F
100
AcDbEntity
  8
0
100
AcDbBlockEnd
  0
BLOCK
  5
1C
330
1B
100
AcDbEntity
 67
     1
  8
0
100
AcDbBlockBegin
  2
*Paper_Space
 70
     0
 10
0.0
 20
0.0
 30
0.0
  3
*Paper_Space
  1

  0
ENDBLK
  5
1D
330
1B
100
AcDbEntity
 67
     1
  8
0
100
AcDbBlockEnd
  0
BLOCK
  5
24
330
23
100
AcDbEntity
  8
0
100
AcDbBlockBegin
  2
*Paper_Space0
 70
     0
 10
0.0
 20
0.0
 30
0.0
  3
*Paper_Space0
  1

  0
ENDBLK
  5
25
330
23
100
AcDbEntity
  8
0
100
AcDbBlockEnd
  0
ENDSEC
  0
SECTION
  2
ENTITIES
  0
ARC
  5
7C21
330
1F
100
AcDbEntity
  8
ceco.net 215
100
AcDbCircle
 10
14.76895889153274
 20
-10790.3591342234
 30
0.0
 40
11968.08649293503
100
AcDbArc
 50
86.94972288275364
 51
90.04790181664516
  0
ARC
  5
7C22
330
1F
100
AcDbEntity
  8
ceco.net 215
100
AcDbCircle
 10
87.19104649302426
 20
-3139.415076290852
 30
0.0
 40
4607.403329411575
100
AcDbArc
 50
83.76080586404331
 51
91.02509474663911
  0
ARC
  5
7C23
330
1F
100
AcDbEntity
  8
ceco.net 215
100
AcDbCircle
 10
154.1395919101523
 20
-5121.120098937787
 30
0.0
 40
6542.268442048598
100
AcDbArc
 50
86.69975497541704
 51
90.00801795853003
  0
ARC
  5
7C24
330
1F
100
AcDbEntity
  8
ceco.net 215
100
AcDbCircle
 10
1.165873462248782
 20
-2560.404405095826
 30
0.0
 40
4128.574206034271
100
AcDbArc
 50
82.26444648083036
 51
89.9500780702742
  0
LINE
  5
7C25
330
1F
100
AcDbEntity
  8
ceco.net 215
100
AcDbLine
 10
558.933581679441
 20
1098.000503712762
 30
0.0
 11
4.763108148539686
 21
1098.000503712762
 31
0.0
  0
LINE
  5
7C26
330
1F
100
AcDbEntity
  8
ceco.net 215
100
AcDbLine
 10
527.1156121833792
 20
1067.966828420115
 30
0.0
 11
4.763108148539686
 21
1067.966828420115
 31
0.0
  0
LINE
  5
7C27
330
1F
100
AcDbEntity
  8
ceco.net 215
100
AcDbLine
 10
503.3188125775468
 20
930.7888601864426
 30
0.0
 11
4.763108148539686
 21
930.7888601864426
 31
0.0
  0
ARC
  5
7C28
330
1F
100
AcDbEntity
  8
ceco.net 215
100
AcDbCircle
 10
353.8831867126664
 20
836.4355757915756
 30
0.0
 40
112.3930449742994
100
AcDbArc
 50
265.9654008163345
 51
347.1092670668924
  0
ARC
  5
7C29
330
1F
100
AcDbEntity
  8
ceco.net 215
100
AcDbCircle
 10
-912.2919005808707
 20
-164.7085531341076
 30
0.0
 40
1211.097862961546
100
AcDbArc
 50
72.32070586944208
 51
83.50273523769303
  0
ARC
  5
7C2A
330
1F
100
AcDbEntity
  8
ceco.net 215
100
AcDbCircle
 10
-846.5042799785287
 20
118.3418693195519
 30
0.0
 40
871.5338554688493
100
AcDbArc
 50
69.17470147618477
 51
91.92414710097716
  0
ARC
  5
7C2B
330
1F
100
AcDbEntity
  8
ceco.net 215
100
AcDbCircle
 10
-1380.060241736266
 20
-2571.895348801895
 30
0.0
 40
3715.090858709049
100
AcDbArc
 50
77.91780898689244
 51
81.12952999907696
  0
ARC
  5
7C2C
330
1F
100
AcDbEntity
  8
ceco.net 215
100
AcDbCircle
 10
-512.4085991410502
 20
784.227549029403
 30
0.0
 40
398.2496712356403
100
AcDbArc
 50
109.0038587201202
 51
129.505027447832
  0
ARC
  5
7C2D
330
1F
100
AcDbEntity
  8
ceco.net 215
100
AcDbCircle
 10
297.8256917057533
 20
821.2508290173078
 30
0.0
 40
1139.328353597073
100
AcDbArc
 50
144.0695743794964
 51
165.902450428372
  0
ARC
  5
7C2E
330
1F
100
AcDbEntity
  8
ceco.net 215
100
AcDbCircle
 10
-530.0443058345508
 20
4619.536437550347
 30
0.0
 40
3808.935729208861
100
AcDbArc
 50
266.5900851441528
 51
271.1452124197866
  0
ARC
  5
7C2F
330
1F
100
AcDbEntity
  8
ceco.net 215
100
AcDbCircle
 10
-628.880454797445
 20
2853.895105517467
 30
0.0
 40
2002.734787696288
100
AcDbArc
 50
265.2166841043427
 51
274.5520022999202
  0
ARC
  5
7C30
330
1F
100
AcDbEntity
  8
ceco.net 215
100
AcDbCircle
 10
-741.9574729471005
 20
988.2389099868518
 30
0.0
 40
60.37929170470927
100
AcDbArc
 50
123.4614750000422
 51
186.1006501632516
  0
ARC
  5
7C31
330
1F
100
AcDbEntity
  8
ceco.net 215
100
AcDbCircle
 10
-715.6770399573324
 20
1055.215411506411
 30
0.0
 40
61.84298158073048
100
AcDbArc
 50
144.0701078863968
 51
195.5748634520313
  0
ARC
  5
7C32
330
1F
100
AcDbEntity
  8
ceco.net 215
100
AcDbCircle
 10
-311.4263729618887
 20
711.7343714494227
 30
0.0
 40
628.9436426352589
100
AcDbArc
 50
142.0219250325656
 51
153.8032851313925
  0
ARC
  5
7C33
330
1F
100
AcDbEntity
  8
ceco.net 215
100
AcDbCircle
 10
-753.3724240749442
 20
858.6227339345942
 30
0.0
 40
41.40420830240822
100
AcDbArc
 50
187.4354816319553
 51
265.5340475180435
  0
ARC
  5
7C34
330
1F
100
AcDbEntity
  8
ceco.net 215
100
AcDbCircle
 10
-1306.379152342482
 20
965.0714066810101
 30
0.0
 40
524.0174172201013
100
AcDbArc
 50
336.8116763746107
 51
347.6803990419048
  0
ARC
  5
7C35
330
1F
100
AcDbEntity
  8
ceco.net 215
100
AcDbCircle
 10
-937.653364312111
 20
937.3546342947335
 30
0.0
 40
211.3385632787853
100
AcDbArc
 50
265.0456596165438
 51
302.309603396414
  0
ARC
  5
7C36
330
1F
100
AcDbEntity
  8
ceco.net 215
100
AcDbCircle
 10
-536.6568311742549
 20
932.9373638429705
 30
0.0
 40
269.803565972825
100
AcDbArc
 50
169.5611327309677
 51
197.1754703036727
  0
ARC
  5
7C37
330
1F
100
AcDbEntity
  8
ceco.net 215
100
AcDbCircle
 10
-204.0718093600589
 20
640.8680351591881
 30
0.0
 40
756.7287156666553
100
AcDbArc
 50
152.576980998578
 51
177.2910501210835
  0
ARC
  5
7C38
330
1F
100
AcDbEntity
  8
ceco.net 215
100
AcDbCircle
 10
8.360342834774201
 20
-2560.404405095826
 30
0.0
 40
4128.574206034271
100
AcDbArc
 50
90.04992192972578
 51
97.73555351916964
  0
ARC
  5
7C39
330
1F
100
AcDbEntity
  8
ceco.net 215
100
AcDbCircle
 10
4092.820330605237
 20
-122.0384837785097
 30
0.0
 40
4925.687199960647
100
AcDbArc
 50
160.3961943731733
 51
164.6622990293748
  0
ARC
  5
7C3A
330
1F
100
AcDbEntity
  8
ceco.net 215
100
AcDbCircle
 10
-647.138503379947
 20
1172.812006491455
 30
0.0
 40
13.05575380251652
100
AcDbArc
 50
142.0352659945973
 51
292.7420584517639
  0
ARC
  5
7C3B
330
1F
100
AcDbEntity
  8
ceco.net 215
100
AcDbCircle
 10
-5.242742594511582
 20
-10790.3591342234
 30
0.0
 40
11968.08649293503
100
AcDbArc
 50
89.95209818335487
 51
93.05027711724633
  0
ARC
  5
7C3C
330
1F
100
AcDbEntity
  8
ceco.net 215
100
AcDbCircle
 10
-77.66483019600491
 20
-3139.415076290852
 30
0.0
 40
4607.403329411575
100
AcDbArc
 50
88.97490525336088
 51
96.23919413595668
  0
ARC
  5
7C3D
330
1F
100
AcDbEntity
  8
ceco.net 215
100
AcDbCircle
 10
-530.0156727621597
 20
1403.936235392741
 30
0.0
 40
127.8436577306701
100
AcDbArc
 50
97.79285243674472
 51
137.7999873238264
  0
ARC
  5
7C3E
330
1F
100
AcDbEntity
  8
ceco.net 215
100
AcDbCircle
 10
613.6317289662056
 20
906.1858018821665
 30
0.0
 40
1241.799026198689
100
AcDbArc
 50
156.0491083980406
 51
168.0706322967961
  0
ARC
  5
7C3F
330
1F
100
AcDbEntity
  8
ceco.net 215
100
AcDbCircle
 10
-144.6133756131021
 20
-5121.120098937787
 30
0.0
 40
6542.268442048598
100
AcDbArc
 50
89.99198204146994
 51
93.30024502458297
  0
ARC
  5
7C40
330
1F
100
AcDbEntity
  8
ceco.net 215
100
AcDbCircle
 10
-81.99528090341118
 20
1482.339865876556
 30
0.0
 40
86.90004362729709
100
AcDbArc
 50
224.7617699981832
 51
272.7143869374214
  0
ARC
  5
7C41
330
1F
100
AcDbEntity
  8
ceco.net 215
100
AcDbCircle
 10
91.52149720043054
 20
1482.339865876556
 30
0.0
 40
86.90004362729709
100
AcDbArc
 50
280.0342528530471
 51
315.2382300018167
  0
ARC
  5
7C42
330
1F
100
AcDbEntity
  8
ceco.net 215
100
AcDbCircle
 10
8.675785647856173
 20
1510.637334390552
 30
0.0
 40
16.80639315227455
100
AcDbArc
 50
39.11923787351754
 51
134.5246636696336
  0
ARC
  5
7C43
330
1F
100
AcDbEntity
  8
ceco.net 215
100
AcDbCircle
 10
-8.354509567036075
 20
1467.009605756374
 30
0.0
 40
62.00980736847477
100
AcDbArc
 50
0.7914642093849843
 51
60.99331735938706
  0
ARC
  5
7C44
330
1F
100
AcDbEntity
  8
ceco.net 215
100
AcDbCircle
 10
25.68633715056421
 20
1468.335320028972
 30
0.0
 40
61.44870642225075
100
AcDbArc
 50
117.9440945542748
 51
180.5013062249156
  0
ARC
  5
7C45
330
1F
100
AcDbEntity
  8
ceco.net 215
100
AcDbCircle
 10
-590.1580944277021
 20
898.2113466971195
 30
0.0
 40
101.7956627410935
100
AcDbArc
 50
19.87160083929232
 51
63.34769564756391
  0
LINE
  5
7C46
330
1F
100
AcDbEntity
  8
ceco.net 215
100
AcDbLine
 10
-493.7925962804947
 20
930.7888601864426
 30
0.0
 11
4.763108148539686
 21
930.7888601864426
 31
0.0
  0
ARC
  5
7C47
330
1F
100
AcDbEntity
  8
ceco.net 215
100
AcDbCircle
 10
-539.0540427088945
 20
812.7814865305552
 30
0.0
 40
256.0864888636411
100
AcDbArc
 50
85.19194366182672
 51
104.3300661932034
  0
LINE
  5
7C48
330
1F
100
AcDbEntity
  8
ceco.net 215
100
AcDbLine
 10
-517.5893958863562
 20
1067.966828420115
 30
0.0
 11
4.763108148539686
 21
1067.966828420115
 31
0.0
  0
LINE
  5
7C49
330
1F
100
AcDbEntity
  8
ceco.net 215
100
AcDbLine
 10
-549.4073653824198
 20
1098.000503712762
 30
0.0
 11
4.763108148539686
 21
1098.000503712762
 31
0.0
  0
ARC
  5
7C4A
330
1F
100
AcDbEntity
  8
ceco.net 215
100
AcDbCircle
 10
-534.0269643787469
 20
704.5391779889901
 30
0.0
 40
393.7618208706006
100
AcDbArc
 50
92.23855197245278
 51
110.0275625392313
  0
CIRCLE
  5
7C4B
330
1F
100
AcDbEntity
  8
ceco.net 215
100
AcDbCircle
 10
4.763108148539686
 20
1014.221565396039
 30
0.0
 40
41.40335307462303
  0
LINE
  5
7C4C
330
1F
100
AcDbEntity
  8
ceco.net 215
100
AcDbLine
 10
-36.64024492607495
 20
1014.221565396039
 30
0.0
 11
46.16646122318343
 21
1014.221565396039
 31
0.0
  0
ARC
  5
7C4D
330
1F
100
AcDbEntity
  8
ceco.net 215
100
AcDbCircle
 10
-344.3569704156471
 20
836.4355757915756
 30
0.0
 40
112.3930449742994
100
AcDbArc
 50
192.8907329331075
 51
274.0345991836654
  0
LINE
  5
7C4E
330
1F
100
AcDbEntity
  8
ceco.net 215
100
AcDbLine
 10
-336.4491239368562
 20
724.3210694926499
 30
0.0
 11
4.763108148539686
 21
724.3210694926499
 31
0.0
  0
ARC
  5
7C4F
330
1F
100
AcDbEntity
  8
ceco.net 215
100
AcDbCircle
 10
-259.5683177516821
 20
848.3936814982897
 30
0.0
 40
87.82910603734071
100
AcDbArc
 50
212.1165854663324
 51
262.1006076023622
  0
LINE
  5
7C50
330
1F
100
AcDbEntity
  8
ceco.net 215
100
AcDbLine
 10
-271.6390268006252
 20
761.3979928099176
 30
0.0
 11
4.763108148539686
 21
761.3979928099176
 31
0.0
  0
LINE
  5
7C51
330
1F
100
AcDbEntity
  8
ceco.net 215
100
AcDbLine
 10
281.1652430976483
 20
761.3979928099176
 30
0.0
 11
4.763108148539686
 21
761.3979928099176
 31
0.0
  0
CIRCLE
  5
7C52
330
1F
100
AcDbEntity
  8
ceco.net 215
100
AcDbCircle
 10
325.8222286500767
 20
841.3471517766764
 30
0.0
 40
19.31645414372153
  0
ARC
  5
7C53
330
1F
100
AcDbEntity
  8
ceco.net 215
100
AcDbCircle
 10
269.0945340487323
 20
848.3936814982897
 30
0.0
 40
87.82910603734071
100
AcDbArc
 50
277.8993923976376
 51
327.8834145336675
  0
LINE
  5
7C54
330
1F
100
AcDbEntity
  8
ceco.net 215
100
AcDbLine
 10
345.9753402339356
 20
724.3210694926499
 30
0.0
 11
4.763108148539686
 21
724.3210694926499
 31
0.0
  0
ARC
  5
7C55
330
1F
100
AcDbEntity
  8
ceco.net 215
100
AcDbCircle
 10
79.28787405732328
 20
993.5463989535604
 30
0.0
 40
326.5028946181928
100
AcDbArc
 50
324.0145470591894
 51
348.918139916873
  0
CIRCLE
  5
7C56
330
1F
100
AcDbEntity
  8
ceco.net 215
100
AcDbCircle
 10
-556.2681236752196
 20
895.0575837492445
 30
0.0
 40
42.38340982191748
  0
ARC
  5
7C57
330
1F
100
AcDbEntity
  8
ceco.net 215
100
AcDbCircle
 10
2557.179494847449
 20
1883.09717334071
 30
0.0
 40
3196.141709021135
100
AcDbArc
 50
197.2968432981383
 51
199.5921008995221
  0
ARC
  5
7C58
330
1F
100
AcDbEntity
  8
ceco.net 215
100
AcDbCircle
 10
-69.7616577603585
 20
993.5463989535604
 30
0.0
 40
326.5028946181928
100
AcDbArc
 50
191.0818600831269
 51
215.9854529408105
  0
ARC
  5
7C59
330
1F
100
AcDbEntity
  8
ceco.net 215
100
AcDbCircle
 10
856.030496275609
 20
118.3418693195519
 30
0.0
 40
871.5338554688493
100
AcDbArc
 50
88.07585289891866
 51
110.8252985238152
  0
ARC
  5
7C5A
330
1F
100
AcDbEntity
  8
ceco.net 215
100
AcDbCircle
 10
921.8181168779484
 20
-164.7085531341076
 30
0.0
 40
1211.097862961546
100
AcDbArc
 50
96.49726476230696
 51
107.6792941305579
  0
ARC
  5
7C5B
330
1F
100
AcDbEntity
  8
ceco.net 215
100
AcDbCircle
 10
-4083.294114308245
 20
-122.0384837785097
 30
0.0
 40
4925.687199960647
100
AcDbArc
 50
15.33770097062516
 51
19.60380562682661
  0
ARC
  5
7C5C
330
1F
100
AcDbEntity
  8
ceco.net 215
100
AcDbCircle
 10
543.5531806757971
 20
704.5391779889901
 30
0.0
 40
393.7618208706006
100
AcDbArc
 50
69.97243746076863
 51
87.76144802754719
  0
ARC
  5
7C5D
330
1F
100
AcDbEntity
  8
ceco.net 215
100
AcDbCircle
 10
638.406671094468
 20
2853.895105517467
 30
0.0
 40
2002.734787696288
100
AcDbArc
 50
265.4479977000797
 51
274.783315895658
  0
ARC
  5
7C5E
330
1F
100
AcDbEntity
  8
ceco.net 215
100
AcDbCircle
 10
539.570522131602
 20
4619.536437550347
 30
0.0
 40
3808.935729208861
100
AcDbArc
 50
268.8547875802133
 51
273.409914855847
  0
ARC
  5
7C5F
330
1F
100
AcDbEntity
  8
ceco.net 215
100
AcDbCircle
 10
-604.1055126691553
 20
906.1858018821665
 30
0.0
 40
1241.799026198689
100
AcDbArc
 50
11.92936770320381
 51
23.95089160195936
  0
ARC
  5
7C60
330
1F
100
AcDbEntity
  8
ceco.net 215
100
AcDbCircle
 10
539.5418890592118
 20
1403.936235392741
 30
0.0
 40
127.8436577306701
100
AcDbArc
 50
42.20001267617355
 51
82.20714756325525
  0
ARC
  5
7C61
330
1F
100
AcDbEntity
  8
ceco.net 215
100
AcDbCircle
 10
548.5802590059156
 20
812.7814865305552
 30
0.0
 40
256.0864888636411
100
AcDbArc
 50
75.66993380679652
 51
94.80805633817324
  0
CIRCLE
  5
7C62
330
1F
100
AcDbEntity
  8
ceco.net 215
100
AcDbCircle
 10
565.7943399722117
 20
895.0575837492445
 30
0.0
 40
42.38340982191748
  0
ARC
  5
7C63
330
1F
100
AcDbEntity
  8
ceco.net 215
100
AcDbCircle
 10
599.684310724695
 20
898.2113466971195
 30
0.0
 40
101.7956627410935
100
AcDbArc
 50
116.652304352436
 51
160.1283991607076
  0
ARC
  5
7C64
330
1F
100
AcDbEntity
  8
ceco.net 215
100
AcDbCircle
 10
-2547.653278550455
 20
1883.09717334071
 30
0.0
 40
3196.141709021135
100
AcDbArc
 50
340.4078991004777
 51
342.7031567018616
  0
ARC
  5
7C65
330
1F
100
AcDbEntity
  8
ceco.net 215
100
AcDbCircle
 10
947.1795806091032
 20
937.3546342947335
 30
0.0
 40
211.3385632787853
100
AcDbArc
 50
237.6903966035859
 51
273.1732492043838
  0
ARC
  5
7C66
330
1F
100
AcDbEntity
  8
ceco.net 215
100
AcDbCircle
 10
320.9525892589099
 20
711.7343714494227
 30
0.0
 40
628.9436426352589
100
AcDbArc
 50
26.1967148686074
 51
37.97807496743436
  0
ARC
  5
7C67
330
1F
100
AcDbEntity
  8
ceco.net 215
100
AcDbCircle
 10
1389.586458033314
 20
-2571.895348801895
 30
0.0
 40
3715.090858709049
100
AcDbArc
 50
98.87047000092302
 51
102.0821910131075
  0
ARC
  5
7C68
330
1F
100
AcDbEntity
  8
ceco.net 215
100
AcDbCircle
 10
521.9348154380131
 20
784.227549029403
 30
0.0
 40
398.2496712356403
100
AcDbArc
 50
50.49497255216796
 51
70.99614127987975
  0
ARC
  5
7C69
330
1F
100
AcDbEntity
  8
ceco.net 215
100
AcDbCircle
 10
656.6647196769972
 20
1172.812006491455
 30
0.0
 40
13.05575380251652
100
AcDbArc
 50
247.257941548236
 51
37.96473400540262
  0
ARC
  5
7C6A
330
1F
100
AcDbEntity
  8
ceco.net 215
100
AcDbCircle
 10
725.2032562543536
 20
1055.215411506411
 30
0.0
 40
61.84298158073048
100
AcDbArc
 50
344.4251365479686
 51
35.9298921136032
  0
ARC
  5
7C6B
330
1F
100
AcDbEntity
  8
ceco.net 215
100
AcDbCircle
 10
751.4836892441216
 20
988.2389099868518
 30
0.0
 40
60.37929170470927
100
AcDbArc
 50
353.8993498367484
 51
56.53852499995771
  0
ARC
  5
7C6C
330
1F
100
AcDbEntity
  8
ceco.net 215
100
AcDbCircle
 10
762.8986403719955
 20
858.6227339345942
 30
0.0
 40
41.40420830240822
100
AcDbArc
 50
274.4659524819565
 51
352.5645183680445
  0
ARC
  5
7C6D
330
1F
100
AcDbEntity
  8
ceco.net 215
100
AcDbCircle
 10
546.1830474713042
 20
932.9373638429705
 30
0.0
 40
269.803565972825
100
AcDbArc
 50
342.8245296963272
 51
10.43886726903225
  0
ARC
  5
7C6E
330
1F
100
AcDbEntity
  8
ceco.net 215
100
AcDbCircle
 10
-288.299475408734
 20
821.2508290173078
 30
0.0
 40
1139.328353597073
100
AcDbArc
 50
14.09754957162794
 51
35.93042562050349
  0
ARC
  5
7C6F
330
1F
100
AcDbEntity
  8
ceco.net 215
100
AcDbCircle
 10
1315.905368639507
 20
965.0714066810101
 30
0.0
 40
524.0174172201013
100
AcDbArc
 50
192.3196009580951
 51
203.1883236253892
  0
ARC
  5
7C70
330
1F
100
AcDbEntity
  8
ceco.net 215
100
AcDbCircle
 10
359.9734227275748
 20
700.6150455434616
 30
0.0
 40
599.4571117433361
100
AcDbArc
 50
0.8323245801099739
 51
28.79766616929569
  0
LINE
  5
7C71
330
1F
100
AcDbEntity
  8
ceco.net 215
100
AcDbLine
 10
4.763108148508763
 20
910.5470287781061
 30
0.0
 11
260.4469812984534
 21
910.5470287781061
 31
0.0
  0
ARC
  5
7C72
330
1F
100
AcDbEntity
  8
ceco.net 215
100
AcDbCircle
 10
260.4469812984698
 20
889.8287669789281
 30
0.0
 40
20.71826179917826
100
AcDbArc
 50
0.0000000000390827
 51
90.0
  0
LINE
  5
7C73
330
1F
100
AcDbEntity
  8
ceco.net 215
100
AcDbLine
 10
281.1652430976483
 20
889.8287669789423
 30
0.0
 11
281.1652430976483
 21
803.7409826380615
 31
0.0
  0
ARC
  5
7C74
330
1F
100
AcDbEntity
  8
ceco.net 215
100
AcDbCircle
 10
260.4469812984407
 20
803.7409826380466
 30
0.0
 40
20.71826179920737
100
AcDbArc
 50
270.0
 51
0.0000000000423395
  0
LINE
  5
7C75
330
1F
100
AcDbEntity
  8
ceco.net 215
100
AcDbLine
 10
260.4469812984534
 20
783.0227208388398
 30
0.0
 11
4.763108148508763
 21
783.0227208388398
 31
0.0
  0
LINE
  5
7C76
330
1F
100
AcDbEntity
  8
ceco.net 215
100
AcDbLine
 10
4.763108148508763
 20
910.5470287781061
 30
0.0
 11
-250.9207650014341
 21
910.5470287781061
 31
0.0
  0
ARC
  5
7C77
330
1F
100
AcDbEntity
  8
ceco.net 215
100
AcDbCircle
 10
-250.9207650014486
 20
889.8287669789281
 30
0.0
 40
20.71826179917826
100
AcDbArc
 50
90.0
 51
179.9999999999609
  0
LINE
  5
7C78
330
1F
100
AcDbEntity
  8
ceco.net 215
100
AcDbLine
 10
-271.6390268006252
 20
889.8287669789423
 30
0.0
 11
-271.6390268006252
 21
803.7409826380615
 31
0.0
  0
ARC
  5
7C79
330
1F
100
AcDbEntity
  8
ceco.net 215
100
AcDbCircle
 10
-250.9207650014341
 20
803.7409826380319
 30
0.0
 40
20.71826179919282
100
AcDbArc
 50
179.9999999999185
 51
269.9999999998957
  0
LINE
  5
7C7A
330
1F
100
AcDbEntity
  8
ceco.net 215
100
AcDbLine
 10
-250.9207650014614
 20
783.0227208388398
 30
0.0
 11
4.763108148508763
 21
783.0227208388398
 31
0.0
  0
ARC
  5
7C7B
330
1F
100
AcDbEntity
  8
ceco.net 215
100
AcDbCircle
 10
1270.613380173517
 20
1025.660999135805
 30
0.0
 40
2263.536934730804
100
AcDbArc
 50
191.1060981659435
 51
195.990432243709
  0
ARC
  5
7C7C
330
1F
100
AcDbEntity
  8
ceco.net 215
100
AcDbCircle
 10
-386.9086868958056
 20
543.0739764231899
 30
0.0
 40
537.2563208202416
100
AcDbArc
 50
195.2112909775032
 51
206.2666964146209
  0
LINE
  5
7C7D
330
1F
100
AcDbEntity
  8
ceco.net 215
100
AcDbLine
 10
-388.3534042063856
 20
396.0724879635648
 30
0.0
 11
-232.9364695458461
 21
396.0724879635648
 31
0.0
  0
CIRCLE
  5
7C7E
330
1F
100
AcDbEntity
  8
ceco.net 215
100
AcDbCircle
 10
-350.896194144414
 20
343.8679662638091
 30
0.0
 40
29.30950420380362
  0
CIRCLE
  5
7C7F
330
1F
100
AcDbEntity
  8
ceco.net 215
100
AcDbCircle
 10
-350.896194144414
 20
343.8679662638091
 30
0.0
 40
34.81392254276076
  0
CIRCLE
  5
7C80
330
1F
100
AcDbEntity
  8
ceco.net 215
100
AcDbCircle
 10
-270.3936796078142
 20
343.8679662638091
 30
0.0
 40
29.30950420380362
  0
CIRCLE
  5
7C81
330
1F
100
AcDbEntity
  8
ceco.net 215
100
AcDbCircle
 10
-270.3936796078142
 20
343.8679662638091
 30
0.0
 40
34.81392254276076
  0
LINE
  5
7C82
330
1F
100
AcDbEntity
  8
ceco.net 215
100
AcDbLine
 10
-379.6752902560967
 20
729.7359373561874
 30
0.0
 11
-701.9701486048516
 21
729.7359373561874
 31
0.0
  0
LINE
  5
7C83
330
1F
100
AcDbEntity
  8
ceco.net 215
100
AcDbLine
 10
-0.000000000005457
 20
667.6950720423842
 30
0.0
 11
-737.1000540978347
 21
667.6950720423842
 31
0.0
  0
ARC
  5
7C84
330
1F
100
AcDbEntity
  8
ceco.net 215
100
AcDbCircle
 10
-1064.591109233498
 20
3767.838766478302
 30
0.0
 40
3060.325332690712
100
AcDbArc
 50
272.0017736636168
 51
273.5274671134774
  0
ARC
  5
7C85
330
1F
100
AcDbEntity
  8
ceco.net 215
100
AcDbCircle
 10
-705.761690383626
 20
-352.7248429355321
 30
0.0
 40
1082.467420599261
100
AcDbArc
 50
89.79931055488698
 51
94.58661618169641
  0
ARC
  5
7C86
330
1F
100
AcDbEntity
  8
ceco.net 215
100
AcDbCircle
 10
-697.0988647318481
 20
-127.3987690612515
 30
0.0
 40
858.9692911072154
100
AcDbArc
 50
96.36477030587734
 51
101.4694089736175
  0
LINE
  5
7C87
330
1F
100
AcDbEntity
  8
ceco.net 215
100
AcDbLine
 10
-381.824511657589
 20
210.5626276607202
 30
0.0
 11
0.0
 21
210.5626276607202
 31
0.0
  0
LINE
  5
7C88
330
1F
100
AcDbEntity
  8
ceco.net 215
100
AcDbLine
 10
-440.7635202494348
 20
231.2949802197447
 30
0.0
 11
-417.8374682099748
 21
218.2622193097143
 31
0.0
  0
ARC
  5
7C89
330
1F
100
AcDbEntity
  8
ceco.net 215
100
AcDbCircle
 10
-381.824511657589
 20
298.6333210840451
 30
0.0
 40
88.07069342331431
100
AcDbArc
 50
245.863640802859
 51
270.0
  0
ARC
  5
7C8A
330
1F
100
AcDbEntity
  8
ceco.net 215
100
AcDbCircle
 10
-476.7764768018205
 20
150.9238784454135
 30
0.0
 40
88.07069342331431
100
AcDbArc
 50
65.86364080285902
 51
90.0
  0
LINE
  5
7C8B
330
1F
100
AcDbEntity
  8
ceco.net 215
100
AcDbLine
 10
0.0
 20
469.4996471898829
 30
0.0
 11
-714.5875692883292
 21
469.4996471898445
 31
0.0
  0
ARC
  5
7C8C
330
1F
100
AcDbEntity
  8
ceco.net 215
100
AcDbCircle
 10
-739.9114959979761
 20
-128.9570353118019
 30
0.0
 40
810.169116167578
100
AcDbArc
 50
89.80117227956434
 51
97.43961034384199
  0
ARC
  5
7C8D
330
1F
100
AcDbEntity
  8
ceco.net 215
100
AcDbCircle
 10
-814.088913548835
 20
443.612224393021
 30
0.0
 40
232.8159661280125
100
AcDbArc
 50
97.58331661664946
 51
105.3354397675698
  0
ARC
  5
7C8E
330
1F
100
AcDbEntity
  8
ceco.net 215
100
AcDbCircle
 10
-780.2722083971103
 20
261.7796985382601
 30
0.0
 40
417.4046761839705
100
AcDbArc
 50
103.2105370658495
 51
110.0346241306898
  0
LINE
  5
7C8F
330
1F
100
AcDbEntity
  8
ceco.net 215
100
AcDbLine
 10
-378.0568037870598
 20
273.3871888534794
 30
0.0
 11
-234.6446213450908
 21
273.3871888534794
 31
0.0
  0
ARC
  5
7C90
330
1F
100
AcDbEntity
  8
ceco.net 215
100
AcDbCircle
 10
-378.0568037870598
 20
328.4313722430548
 30
0.0
 40
55.04418338957145
100
AcDbArc
 50
213.0946653873157
 51
270.0
  0
ARC
  5
7C91
330
1F
100
AcDbEntity
  8
ceco.net 215
100
AcDbCircle
 10
-234.6446213450908
 20
328.4313722430548
 30
0.0
 40
55.04418338957145
100
AcDbArc
 50
270.0
 51
326.905334612687
  0
LINE
  5
7C92
330
1F
100
AcDbEntity
  8
ceco.net 215
100
AcDbLine
 10
-671.3888838210923
 20
238.994571868729
 30
0.0
 11
-476.7764768018205
 21
238.994571868729
 31
0.0
  0
ARC
  5
7C93
330
1F
100
AcDbEntity
  8
ceco.net 215
100
AcDbCircle
 10
-879.5503046975264
 20
770.4252353382575
 30
0.0
 40
57.20626650272161
100
AcDbArc
 50
273.2587688364318
 51
281.7503639483183
  0
LINE
  5
7C94
330
1F
100
AcDbEntity
  8
ceco.net 215
100
AcDbLine
 10
-737.1000540978448
 20
681.2072027203365
 30
0.0
 11
0.0
 21
681.2072027203365
 31
0.0
  0
ARC
  5
7C95
330
1F
100
AcDbEntity
  8
ceco.net 215
100
AcDbCircle
 10
-739.9114959979761
 20
-142.4691659897594
 30
0.0
 40
810.169116167578
100
AcDbArc
 50
89.80117227956434
 51
97.43961034384199
  0
ARC
  5
7C96
330
1F
100
AcDbEntity
  8
ceco.net 215
100
AcDbCircle
 10
-814.088913548835
 20
430.1000937150682
 30
0.0
 40
232.8159661280125
100
AcDbArc
 50
97.58331661664946
 51
105.3354397675698
  0
ARC
  5
7C97
330
1F
100
AcDbEntity
  8
ceco.net 215
100
AcDbCircle
 10
-780.2722083971103
 20
248.2675678603078
 30
0.0
 40
417.4046761839705
100
AcDbArc
 50
103.2105370658495
 51
109.4179819783746
  0
ARC
  5
7C98
330
1F
100
AcDbEntity
  8
ceco.net 215
100
AcDbCircle
 10
-921.1556955042061
 20
647.927516661586
 30
0.0
 40
6.359682410861285
100
AcDbArc
 50
109.4179819783757
 51
289.4179819783757
  0
ARC
  5
7C99
330
1F
100
AcDbEntity
  8
ceco.net 215
100
AcDbCircle
 10
-752.204738568128
 20
360.1679375568944
 30
0.0
 40
128.7558678136755
100
AcDbArc
 50
205.2173018923222
 51
229.1663450806671
  0
ARC
  5
7C9A
330
1F
100
AcDbEntity
  8
ceco.net 215
100
AcDbCircle
 10
-800.1502146682515
 20
315.8672476119633
 30
0.0
 40
64.30437424143363
100
AcDbArc
 50
235.6931963576736
 51
262.3932036597141
  0
ARC
  5
7C9B
330
1F
100
AcDbEntity
  8
ceco.net 215
100
AcDbCircle
 10
-669.8434392107992
 20
159.0267562969517
 30
0.0
 40
121.3356707630222
100
AcDbArc
 50
117.5383744672331
 51
126.8978555671061
  0
ARC
  5
7C9C
330
1F
100
AcDbEntity
  8
ceco.net 215
100
AcDbCircle
 10
-768.1923176786822
 20
600.8167420790879
 30
0.0
 40
351.0286859452294
100
AcDbArc
 50
263.3796438391612
 51
270.8980448897171
  0
ARC
  5
7C9D
330
1F
100
AcDbEntity
  8
ceco.net 215
100
AcDbCircle
 10
-760.474050266941
 20
277.9335923151289
 30
0.0
 40
28.189695176242
100
AcDbArc
 50
265.490239865615
 51
309.108625476163
  0
ARC
  5
7C9E
330
1F
100
AcDbEntity
  8
ceco.net 215
100
AcDbCircle
 10
65.23053355349475
 20
-1361.22752762177
 30
0.0
 40
1809.924381149618
100
AcDbArc
 50
114.0028356877001
 51
115.9209199912024
  0
ARC
  5
7C9F
330
1F
100
AcDbEntity
  8
ceco.net 215
100
AcDbCircle
 10
-645.7447452030492
 20
243.7578494611403
 30
0.0
 40
54.62273396638241
100
AcDbArc
 50
89.25203847263906
 51
117.5557694512731
  0
LINE
  5
7CA0
330
1F
100
AcDbEntity
  8
ceco.net 215
100
AcDbLine
 10
-645.0316989112097
 20
298.3759291687562
 30
0.0
 11
-422.6771641080159
 21
298.3759291687562
 31
0.0
  0
ARC
  5
7CA1
330
1F
100
AcDbEntity
  8
ceco.net 215
100
AcDbCircle
 10
-713.9032305386535
 20
451.2629368897018
 30
0.0
 40
18.24954580519153
100
AcDbArc
 50
92.14903524798765
 51
141.7769296322528
  0
ARC
  5
7CA2
330
1F
100
AcDbEntity
  8
ceco.net 215
100
AcDbCircle
 10
-705.9173972973167
 20
449.7248831111855
 30
0.0
 40
25.74692846306189
100
AcDbArc
 50
150.1129069307988
 51
185.4512895069706
  0
ARC
  5
7CA3
330
1F
100
AcDbEntity
  8
ceco.net 215
100
AcDbCircle
 10
-567.9393289106883
 20
465.8716416379162
 30
0.0
 40
164.6616131155067
100
AcDbArc
 50
186.4833579869841
 51
197.2788125886651
  0
LINE
  5
7CA4
330
1F
100
AcDbEntity
  8
ceco.net 215
100
AcDbLine
 10
-471.3839579189952
 20
396.0724879635648
 30
0.0
 11
-814.0909224447113
 21
396.0724879635648
 31
0.0
  0
LINE
  5
7CA5
330
1F
100
AcDbEntity
  8
ceco.net 215
100
AcDbLine
 10
-725.1698787720579
 20
416.9635541258125
 30
0.0
 11
-718.9695950096757
 21
396.0724879635648
 31
0.0
  0
LINE
  5
7CA6
330
1F
100
AcDbEntity
  8
ceco.net 215
100
AcDbLine
 10
-717.3120625529755
 20
396.0724879635648
 30
0.0
 11
-704.8455861730144
 21
350.8335153748083
 31
0.0
  0
ARC
  5
7CA7
330
1F
100
AcDbEntity
  8
ceco.net 215
100
AcDbCircle
 10
-617.7080923278654
 20
370.3963461836127
 30
0.0
 40
89.3064789523547
100
AcDbArc
 50
192.6534032056204
 51
213.0688780570804
  0
ARC
  5
7CA8
330
1F
100
AcDbEntity
  8
ceco.net 215
100
AcDbCircle
 10
-647.059130029288
 20
354.4180187201843
 30
0.0
 40
56.05284793523719
100
AcDbArc
 50
215.7532919229015
 51
271.3436535195271
  0
ARC
  5
7CA9
330
1F
100
AcDbEntity
  8
ceco.net 215
100
AcDbCircle
 10
-808.9102221264292
 20
279.4732103015864
 30
0.0
 40
116.7143144909048
100
AcDbArc
 50
92.54407374906538
 51
135.6621295744606
  0
LINE
  5
7CAA
330
1F
100
AcDbEntity
  8
ceco.net 215
100
AcDbLine
 10
0.0
 20
558.5826762732451
 30
0.0
 11
-817.9271521281616
 21
558.5826762732451
 31
0.0
  0
LINE
  5
7CAB
330
1F
100
AcDbEntity
  8
ceco.net 215
100
AcDbLine
 10
0.0
 20
524.9015124681888
 30
0.0
 11
-835.4602475368874
 21
524.9015124681888
 31
0.0
  0
ARC
  5
7CAC
330
1F
100
AcDbEntity
  8
ceco.net 215
100
AcDbCircle
 10
-818.4397747554577
 20
317.4694398515374
 30
0.0
 40
241.1137813558386
100
AcDbArc
 50
89.87818558119363
 51
119.5522553530956
  0
ARC
  5
7CAD
330
1F
100
AcDbEntity
  8
ceco.net 215
100
AcDbCircle
 10
-818.4397747554577
 20
284.7592279835316
 30
0.0
 40
241.1137813558386
100
AcDbArc
 50
96.53358353548318
 51
113.1829827363567
  0
ARC
  5
7CAE
330
1F
100
AcDbEntity
  8
ceco.net 215
100
AcDbCircle
 10
-835.4602475368874
 20
433.3714860638369
 30
0.0
 40
91.53002640435458
100
AcDbArc
 50
90.0
 51
96.53358353548318
  0
LINE
  5
7CAF
330
1F
100
AcDbEntity
  8
ceco.net 215
100
AcDbLine
 10
-411.2359108074724
 20
373.1899813624718
 30
0.0
 11
-411.2359108074688
 21
309.8171824693026
 31
0.0
  0
LINE
  5
7CB0
330
1F
100
AcDbEntity
  8
ceco.net 215
100
AcDbLine
 10
-210.0539629447575
 20
373.1899813624718
 30
0.0
 11
-210.0539629447575
 21
309.8171824693026
 31
0.0
  0
ARC
  5
7CB1
330
1F
100
AcDbEntity
  8
ceco.net 215
100
AcDbCircle
 10
-388.3534042063856
 20
373.1899813624718
 30
0.0
 40
22.88250660108864
100
AcDbArc
 50
90.0
 51
180.0
  0
ARC
  5
7CB2
330
1F
100
AcDbEntity
  8
ceco.net 215
100
AcDbCircle
 10
-232.9364695458461
 20
373.1899813624718
 30
0.0
 40
22.88250660108864
100
AcDbArc
 50
0.0
 51
90.0
  0
ARC
  5
7CB3
330
1F
100
AcDbEntity
  8
ceco.net 215
100
AcDbCircle
 10
-422.6771641080159
 20
309.8171824693026
 30
0.0
 40
11.44125330054432
100
AcDbArc
 50
270.0
 51
0.0
  0
LINE
  5
7CB4
330
1F
100
AcDbEntity
  8
ceco.net 215
100
AcDbLine
 10
-198.6127096442123
 20
298.3759291687562
 30
0.0
 11
0.0
 21
298.3759291687562
 31
0.0
  0
ARC
  5
7CB5
330
1F
100
AcDbEntity
  8
ceco.net 215
100
AcDbCircle
 10
-198.6127096442123
 20
309.8171824693026
 30
0.0
 40
11.44125330054432
100
AcDbArc
 50
180.0
 51
270.0
  0
LINE
  5
7CB6
330
1F
100
AcDbEntity
  8
ceco.net 215
100
AcDbLine
 10
-430.4813262399092
 20
298.3759291687562
 30
0.0
 11
-437.2341219682275
 21
365.1996986964945
 31
0.0
  0
ARC
  5
7CB7
330
1F
100
AcDbEntity
  8
ceco.net 215
100
AcDbCircle
 10
-471.3839579189952
 20
361.7487280619253
 30
0.0
 40
34.32375990163296
100
AcDbArc
 50
5.770367271028544
 51
90.0
  0
ARC
  5
7CB8
330
1F
100
AcDbEntity
  8
ceco.net 215
100
AcDbCircle
 10
-1270.613380173529
 20
1025.660999135805
 30
0.0
 40
2263.536934730804
100
AcDbArc
 50
344.009567756291
 51
348.8939018340564
  0
ARC
  5
7CB9
330
1F
100
AcDbEntity
  8
ceco.net 215
100
AcDbCircle
 10
386.9086868957965
 20
543.0739764231899
 30
0.0
 40
537.2563208202416
100
AcDbArc
 50
333.7333035853791
 51
344.7887090224968
  0
LINE
  5
7CBA
330
1F
100
AcDbEntity
  8
ceco.net 215
100
AcDbLine
 10
388.3534042063747
 20
396.0724879635648
 30
0.0
 11
232.9364695458316
 21
396.0724879635648
 31
0.0
  0
CIRCLE
  5
7CBB
330
1F
100
AcDbEntity
  8
ceco.net 215
100
AcDbCircle
 10
350.8961941444013
 20
343.8679662638091
 30
0.0
 40
29.30950420380362
  0
CIRCLE
  5
7CBC
330
1F
100
AcDbEntity
  8
ceco.net 215
100
AcDbCircle
 10
350.8961941444013
 20
343.8679662638091
 30
0.0
 40
34.81392254276076
  0
CIRCLE
  5
7CBD
330
1F
100
AcDbEntity
  8
ceco.net 215
100
AcDbCircle
 10
270.3936796078069
 20
343.8679662638091
 30
0.0
 40
29.30950420380362
  0
CIRCLE
  5
7CBE
330
1F
100
AcDbEntity
  8
ceco.net 215
100
AcDbCircle
 10
270.3936796078069
 20
343.8679662638091
 30
0.0
 40
34.81392254276076
  0
LINE
  5
7CBF
330
1F
100
AcDbEntity
  8
ceco.net 215
100
AcDbLine
 10
389.2015065531158
 20
729.7359373561874
 30
0.0
 11
701.9701486048452
 21
729.7359373561874
 31
0.0
  0
LINE
  5
7CC0
330
1F
100
AcDbEntity
  8
ceco.net 215
100
AcDbLine
 10
-0.000000000005457
 20
667.6950720423842
 30
0.0
 11
737.1000540978293
 21
667.6950720423842
 31
0.0
  0
ARC
  5
7CC1
330
1F
100
AcDbEntity
  8
ceco.net 215
100
AcDbCircle
 10
1064.591109233488
 20
3767.838766478302
 30
0.0
 40
3060.325332690712
100
AcDbArc
 50
266.4725328865225
 51
268.0406060946928
  0
ARC
  5
7CC2
330
1F
100
AcDbEntity
  8
ceco.net 215
100
AcDbCircle
 10
705.7616903836151
 20
-352.7248429355321
 30
0.0
 40
1082.467420599261
100
AcDbArc
 50
85.41338381830358
 51
90.20068944511299
  0
ARC
  5
7CC3
330
1F
100
AcDbEntity
  8
ceco.net 215
100
AcDbCircle
 10
697.0988647318408
 20
-127.3987690612515
 30
0.0
 40
858.9692911072154
100
AcDbArc
 50
78.53059102638244
 51
83.63522969412269
  0
LINE
  5
7CC4
330
1F
100
AcDbEntity
  8
ceco.net 215
100
AcDbLine
 10
381.8245116575781
 20
210.5626276607202
 30
0.0
 11
-0.0000000000109139
 21
210.5626276607202
 31
0.0
  0
LINE
  5
7CC5
330
1F
100
AcDbEntity
  8
ceco.net 215
100
AcDbLine
 10
440.7635202494239
 20
231.2949802197447
 30
0.0
 11
417.8374682099711
 21
218.2622193097143
 31
0.0
  0
ARC
  5
7CC6
330
1F
100
AcDbEntity
  8
ceco.net 215
100
AcDbCircle
 10
381.8245116575781
 20
298.6333210840451
 30
0.0
 40
88.07069342331431
100
AcDbArc
 50
270.0
 51
294.1363591971409
  0
ARC
  5
7CC7
330
1F
100
AcDbEntity
  8
ceco.net 215
100
AcDbCircle
 10
476.7764768018132
 20
150.9238784454135
 30
0.0
 40
88.07069342331431
100
AcDbArc
 50
90.0
 51
114.1363591971409
  0
LINE
  5
7CC8
330
1F
100
AcDbEntity
  8
ceco.net 215
100
AcDbLine
 10
-0.0000000000109139
 20
469.4996471898829
 30
0.0
 11
714.5875692883219
 21
469.4996471898445
 31
0.0
  0
ARC
  5
7CC9
330
1F
100
AcDbEntity
  8
ceco.net 215
100
AcDbCircle
 10
739.9114959979652
 20
-128.9570353118019
 30
0.0
 40
810.169116167578
100
AcDbArc
 50
82.56038965615799
 51
90.19882772043564
  0
ARC
  5
7CCA
330
1F
100
AcDbEntity
  8
ceco.net 215
100
AcDbCircle
 10
814.0889135488233
 20
443.612224393021
 30
0.0
 40
232.8159661280125
100
AcDbArc
 50
74.66456023243015
 51
82.41668338335051
  0
ARC
  5
7CCB
330
1F
100
AcDbEntity
  8
ceco.net 215
100
AcDbCircle
 10
780.2722083971039
 20
261.7796985382601
 30
0.0
 40
417.4046761839705
100
AcDbArc
 50
69.96537586931015
 51
76.78946293415044
  0
LINE
  5
7CCC
330
1F
100
AcDbEntity
  8
ceco.net 215
100
AcDbLine
 10
378.0568037870525
 20
273.3871888534794
 30
0.0
 11
234.6446213450854
 21
273.3871888534794
 31
0.0
  0
ARC
  5
7CCD
330
1F
100
AcDbEntity
  8
ceco.net 215
100
AcDbCircle
 10
378.0568037870525
 20
328.4313722430548
 30
0.0
 40
55.04418338957145
100
AcDbArc
 50
270.0
 51
326.9053346126842
  0
ARC
  5
7CCE
330
1F
100
AcDbEntity
  8
ceco.net 215
100
AcDbCircle
 10
234.6446213450854
 20
328.4313722430548
 30
0.0
 40
55.04418338957145
100
AcDbArc
 50
213.094665387313
 51
270.0
  0
LINE
  5
7CCF
330
1F
100
AcDbEntity
  8
ceco.net 215
100
AcDbLine
 10
671.3888838210878
 20
238.994571868729
 30
0.0
 11
476.7764768018132
 21
238.994571868729
 31
0.0
  0
ARC
  5
7CD0
330
1F
100
AcDbEntity
  8
ceco.net 215
100
AcDbCircle
 10
879.5503046975172
 20
770.4252353382575
 30
0.0
 40
57.20626650272161
100
AcDbArc
 50
258.2496360516816
 51
266.7412311635681
  0
LINE
  5
7CD1
330
1F
100
AcDbEntity
  8
ceco.net 215
100
AcDbLine
 10
737.1000540978384
 20
681.2072027203365
 30
0.0
 11
-0.0000000000109139
 21
681.2072027203365
 31
0.0
  0
ARC
  5
7CD2
330
1F
100
AcDbEntity
  8
ceco.net 215
100
AcDbCircle
 10
739.9114959979652
 20
-142.4691659897594
 30
0.0
 40
810.169116167578
100
AcDbArc
 50
82.56038965615799
 51
90.19882772043564
  0
ARC
  5
7CD3
330
1F
100
AcDbEntity
  8
ceco.net 215
100
AcDbCircle
 10
814.0889135488233
 20
430.1000937150682
 30
0.0
 40
232.8159661280125
100
AcDbArc
 50
74.66456023243015
 51
82.41668338335051
  0
ARC
  5
7CD4
330
1F
100
AcDbEntity
  8
ceco.net 215
100
AcDbCircle
 10
780.2722083970984
 20
248.2675678603078
 30
0.0
 40
417.4046761839705
100
AcDbArc
 50
70.5820180216253
 51
76.78946293415044
  0
ARC
  5
7CD5
330
1F
100
AcDbEntity
  8
ceco.net 215
100
AcDbCircle
 10
921.1556955041997
 20
647.927516661586
 30
0.0
 40
6.359682410861285
100
AcDbArc
 50
250.5820180216242
 51
70.58201802162422
  0
ARC
  5
7CD6
330
1F
100
AcDbEntity
  8
ceco.net 215
100
AcDbCircle
 10
752.2047385681235
 20
360.1679375568944
 30
0.0
 40
128.7558678136755
100
AcDbArc
 50
310.8336549193328
 51
334.7826981076776
  0
ARC
  5
7CD7
330
1F
100
AcDbEntity
  8
ceco.net 215
100
AcDbCircle
 10
800.1502146682451
 20
315.8672476119633
 30
0.0
 40
64.30437424143363
100
AcDbArc
 50
277.6067963402858
 51
304.3068036423264
  0
ARC
  5
7CD8
330
1F
100
AcDbEntity
  8
ceco.net 215
100
AcDbCircle
 10
669.8434392107883
 20
159.0267562969517
 30
0.0
 40
121.3356707630222
100
AcDbArc
 50
53.10214443289384
 51
62.46162553276683
  0
ARC
  5
7CD9
330
1F
100
AcDbEntity
  8
ceco.net 215
100
AcDbCircle
 10
768.1923176786749
 20
600.8167420790879
 30
0.0
 40
351.0286859452294
100
AcDbArc
 50
269.1019551102828
 51
276.6203561608387
  0
ARC
  5
7CDA
330
1F
100
AcDbEntity
  8
ceco.net 215
100
AcDbCircle
 10
760.4740502669301
 20
277.9335923151289
 30
0.0
 40
28.189695176242
100
AcDbArc
 50
230.891374523837
 51
274.5097601343849
  0
ARC
  5
7CDB
330
1F
100
AcDbEntity
  8
ceco.net 215
100
AcDbCircle
 10
-65.23053355350021
 20
-1361.22752762177
 30
0.0
 40
1809.924381149618
100
AcDbArc
 50
64.07908000879754
 51
65.9971643122998
  0
ARC
  5
7CDC
330
1F
100
AcDbEntity
  8
ceco.net 215
100
AcDbCircle
 10
645.7447452030428
 20
243.7578494611403
 30
0.0
 40
54.62273396638241
100
AcDbArc
 50
62.44423054872683
 51
90.74796152736093
  0
LINE
  5
7CDD
330
1F
100
AcDbEntity
  8
ceco.net 215
100
AcDbLine
 10
645.0316989111979
 20
298.3759291687562
 30
0.0
 11
422.6771641080031
 21
298.3759291687562
 31
0.0
  0
ARC
  5
7CDE
330
1F
100
AcDbEntity
  8
ceco.net 215
100
AcDbCircle
 10
713.9032305386481
 20
451.2629368897018
 30
0.0
 40
18.24954580519153
100
AcDbArc
 50
38.22307036774714
 51
87.85096475201232
  0
ARC
  5
7CDF
330
1F
100
AcDbEntity
  8
ceco.net 215
100
AcDbCircle
 10
705.9173972973094
 20
449.7248831111855
 30
0.0
 40
25.74692846306189
100
AcDbArc
 50
354.5487104930293
 51
29.88709306920116
  0
ARC
  5
7CE0
330
1F
100
AcDbEntity
  8
ceco.net 215
100
AcDbCircle
 10
567.9393289106774
 20
465.8716416379162
 30
0.0
 40
164.6616131155067
100
AcDbArc
 50
342.7211874113347
 51
353.5166420130158
  0
LINE
  5
7CE1
330
1F
100
AcDbEntity
  8
ceco.net 215
100
AcDbLine
 10
471.3839579189862
 20
396.0724879635648
 30
0.0
 11
814.0909224447023
 21
396.0724879635648
 31
0.0
  0
LINE
  5
7CE2
330
1F
100
AcDbEntity
  8
ceco.net 215
100
AcDbLine
 10
725.1698787720524
 20
416.9635541258125
 30
0.0
 11
718.9695950096684
 21
396.0724879635648
 31
0.0
  0
LINE
  5
7CE3
330
1F
100
AcDbEntity
  8
ceco.net 215
100
AcDbLine
 10
717.3120625529627
 20
396.0724879635648
 30
0.0
 11
704.8455861730071
 21
350.8335153748083
 31
0.0
  0
ARC
  5
7CE4
330
1F
100
AcDbEntity
  8
ceco.net 215
100
AcDbCircle
 10
617.708092327859
 20
370.3963461836127
 30
0.0
 40
89.3064789523547
100
AcDbArc
 50
326.9311219429195
 51
347.3465967943794
  0
ARC
  5
7CE5
330
1F
100
AcDbEntity
  8
ceco.net 215
100
AcDbCircle
 10
647.0591300292762
 20
354.4180187201843
 30
0.0
 40
56.05284793523719
100
AcDbArc
 50
268.6563464804728
 51
324.2467080770984
  0
ARC
  5
7CE6
330
1F
100
AcDbEntity
  8
ceco.net 215
100
AcDbCircle
 10
808.9102221264237
 20
279.4732103015864
 30
0.0
 40
116.7143144909048
100
AcDbArc
 50
44.33787042553929
 51
87.45592625093463
  0
LINE
  5
7CE7
330
1F
100
AcDbEntity
  8
ceco.net 215
100
AcDbLine
 10
-0.0000000000109139
 20
558.5826762732451
 30
0.0
 11
817.9271521281552
 21
558.5826762732451
 31
0.0
  0
LINE
  5
7CE8
330
1F
100
AcDbEntity
  8
ceco.net 215
100
AcDbLine
 10
-0.0000000000109139
 20
524.9015124681888
 30
0.0
 11
835.460247536881
 21
524.9015124681888
 31
0.0
  0
ARC
  5
7CE9
330
1F
100
AcDbEntity
  8
ceco.net 215
100
AcDbCircle
 10
818.4397747554466
 20
317.4694398515374
 30
0.0
 40
241.1137813558386
100
AcDbArc
 50
60.44774464690437
 51
90.12181441880636
  0
ARC
  5
7CEA
330
1F
100
AcDbEntity
  8
ceco.net 215
100
AcDbCircle
 10
818.4397747554466
 20
284.7592279835316
 30
0.0
 40
241.1137813558386
100
AcDbArc
 50
66.8170172636433
 51
83.46641646451681
  0
ARC
  5
7CEB
330
1F
100
AcDbEntity
  8
ceco.net 215
100
AcDbCircle
 10
835.460247536881
 20
433.3714860638369
 30
0.0
 40
91.53002640435458
100
AcDbArc
 50
83.46641646451681
 51
90.0
  0
LINE
  5
7CEC
330
1F
100
AcDbEntity
  8
ceco.net 215
100
AcDbLine
 10
411.2359108074669
 20
373.1899813624718
 30
0.0
 11
411.2359108074579
 21
309.8171824693026
 31
0.0
  0
LINE
  5
7CED
330
1F
100
AcDbEntity
  8
ceco.net 215
100
AcDbLine
 10
210.0539629447521
 20
373.1899813624718
 30
0.0
 11
210.0539629447466
 21
309.8171824693026
 31
0.0
  0
ARC
  5
7CEE
330
1F
100
AcDbEntity
  8
ceco.net 215
100
AcDbCircle
 10
388.3534042063747
 20
373.1899813624718
 30
0.0
 40
22.88250660108864
100
AcDbArc
 50
0.0
 51
90.0
  0
ARC
  5
7CEF
330
1F
100
AcDbEntity
  8
ceco.net 215
100
AcDbCircle
 10
232.9364695458316
 20
373.1899813624718
 30
0.0
 40
22.88250660108864
100
AcDbArc
 50
90.0
 51
180.0
  0
ARC
  5
7CF0
330
1F
100
AcDbEntity
  8
ceco.net 215
100
AcDbCircle
 10
422.6771641080031
 20
309.8171824693026
 30
0.0
 40
11.44125330054432
100
AcDbArc
 50
179.9999999999967
 51
270.0
  0
LINE
  5
7CF1
330
1F
100
AcDbEntity
  8
ceco.net 215
100
AcDbLine
 10
198.6127096442014
 20
298.3759291687562
 30
0.0
 11
-0.0000000000109139
 21
298.3759291687562
 31
0.0
  0
ARC
  5
7CF2
330
1F
100
AcDbEntity
  8
ceco.net 215
100
AcDbCircle
 10
198.6127096442014
 20
309.8171824693026
 30
0.0
 40
11.44125330054432
100
AcDbArc
 50
270.0
 51
0.0
  0
LINE
  5
7CF3
330
1F
100
AcDbEntity
  8
ceco.net 215
100
AcDbLine
 10
430.4813262398965
 20
298.3759291687562
 30
0.0
 11
437.2341219682221
 21
365.1996986964945
 31
0.0
  0
ARC
  5
7CF4
330
1F
100
AcDbEntity
  8
ceco.net 215
100
AcDbCircle
 10
471.3839579189862
 20
361.7487280619253
 30
0.0
 40
34.32375990163296
100
AcDbArc
 50
90.0
 51
174.2296327289714
  0
ARC
  5
7CF5
330
1F
100
AcDbEntity
  8
ceco.net 215
100
AcDbCircle
 10
114.0739611571352
 20
724.2523364905698
 30
0.0
 40
847.220246090182
100
AcDbArc
 50
350.8579714852016
 51
356.7778972693952
  0
LINE
  5
7CF6
330
1F
100
AcDbEntity
  8
ceco.net 215
100
AcDbLine
 10
-731.2163257817673
 20
454.5069896366182
 30
0.0
 11
731.2163257817628
 21
454.5069896366132
 31
0.0
  0
LINE
  5
7CF7
330
1F
100
AcDbEntity
  8
ceco.net 215
100
AcDbLine
 10
-730.4777522660461
 20
439.5143320833678
 30
0.0
 11
730.4777522660369
 21
439.5143320833484
 31
0.0
  0
LINE
  5
7CF8
330
1F
100
AcDbEntity
  8
ceco.net 215
100
AcDbLine
 10
-727.3244820899671
 20
424.5216745300934
 30
0.0
 11
727.3244820899563
 21
424.5216745300837
 31
0.0
  0
LINE
  5
7CF9
330
1F
100
AcDbEntity
  8
ceco.net 215
100
AcDbLine
 10
-722.9633738666779
 20
409.529016976843
 30
0.0
 11
722.9633738666689
 21
409.5290169768381
 31
0.0
  0
ARC
  5
7CFA
330
1F
100
AcDbEntity
  8
ceco.net 215
100
AcDbCircle
 10
-270.3936796078142
 20
343.8679662638091
 30
0.0
 40
40.34553958653037
100
AcDbArc
 50
267.3742339149561
 51
90.85188412606774
  0
ARC
  5
7CFB
330
1F
100
AcDbEntity
  8
ceco.net 215
100
AcDbCircle
 10
-350.896194144414
 20
343.8679662638091
 30
0.0
 40
40.34553958653037
100
AcDbArc
 50
89.9968022775177
 51
270.0308614993273
  0
LINE
  5
7CFC
330
1F
100
AcDbEntity
  8
ceco.net 215
100
AcDbLine
 10
-269.7893339182537
 20
384.2089792755809
 30
0.0
 11
-350.8939424281543
 21
384.2135057875065
 31
0.0
  0
LINE
  5
7CFD
330
1F
100
AcDbEntity
  8
ceco.net 215
100
AcDbLine
 10
-268.5019444193767
 20
303.5668012371644
 30
0.0
 11
-350.8744626347761
 21
303.5224325299535
 31
0.0
  0
ARC
  5
7CFE
330
1F
100
AcDbEntity
  8
ceco.net 215
100
AcDbCircle
 10
350.8961941444013
 20
343.8679662638091
 30
0.0
 40
40.34553958653037
100
AcDbArc
 50
267.3742339149561
 51
90.85188412606774
  0
ARC
  5
7CFF
330
1F
100
AcDbEntity
  8
ceco.net 215
100
AcDbCircle
 10
270.3936796078069
 20
343.8679662638091
 30
0.0
 40
40.34553958653037
100
AcDbArc
 50
89.9968022775177
 51
270.0308614993273
  0
LINE
  5
7D00
330
1F
100
AcDbEntity
  8
ceco.net 215
100
AcDbLine
 10
351.5005398339617
 20
384.2089792755809
 30
0.0
 11
270.3959313240666
 21
384.2135057875065
 31
0.0
  0
LINE
  5
7D01
330
1F
100
AcDbEntity
  8
ceco.net 215
100
AcDbLine
 10
352.7879293328442
 20
303.5668012371644
 30
0.0
 11
270.415411117443
 21
303.5224325299535
 31
0.0
  0
LINE
  5
7D02
330
1F
100
AcDbEntity
  8
ceco.net 215
100
AcDbLine
 10
959.9548841068244
 20
709.302776449779
 30
0.0
 11
959.9548841068154
 21
56.88116087472463
 31
0.0
  0
LINE
  5
7D03
330
1F
100
AcDbEntity
  8
ceco.net 215
100
AcDbLine
 10
674.0360391148079
 20
290.835183056941
 30
0.0
 11
674.0360391148079
 21
57.20626650271793
 31
0.0
  0
LINE
  5
7D04
330
1F
100
AcDbEntity
  8
ceco.net 215
100
AcDbLine
 10
902.7486176040929
 20
0.0
 30
0.0
 11
731.2423056175303
 21
0.0
 31
0.0
  0
ARC
  5
7D05
330
1F
100
AcDbEntity
  8
ceco.net 215
100
AcDbCircle
 10
902.7486176040929
 20
57.20626650272288
 30
0.0
 40
57.20626650272161
100
AcDbArc
 50
270.0
 51
0.0
  0
ARC
  5
7D06
330
1F
100
AcDbEntity
  8
ceco.net 215
100
AcDbCircle
 10
731.2423056175303
 20
57.20626650271793
 30
0.0
 40
57.20626650272161
100
AcDbArc
 50
180.0
 51
270.0
  0
LINE
  5
7D07
330
1F
100
AcDbEntity
  8
ceco.net 215
100
AcDbLine
 10
690.7913666470903
 20
16.75532753227878
 30
0.0
 11
797.9034767226275
 21
135.4182743375426
 31
0.0
  0
LINE
  5
7D08
330
1F
100
AcDbEntity
  8
ceco.net 215
100
AcDbLine
 10
939.8894082504611
 20
13.696283770673
 30
0.0
 11
797.90351508007
 21
170.9937590654029
 31
0.0
  0
LINE
  5
7D09
330
1F
100
AcDbEntity
  8
ceco.net 215
100
AcDbLine
 10
690.7913666470903
 20
52.3307697662824
 30
0.0
 11
797.9035150800609
 21
170.9937590654075
 31
0.0
  0
LINE
  5
7D0A
330
1F
100
AcDbEntity
  8
ceco.net 215
100
AcDbLine
 10
943.1995565745346
 20
45.60461540233041
 30
0.0
 11
796.9590012456501
 21
207.6155703310448
 31
0.0
  0
LINE
  5
7D0B
330
1F
100
AcDbEntity
  8
ceco.net 215
100
AcDbLine
 10
690.7913666470903
 20
89.99895006350527
 30
0.0
 11
796.9590012456501
 21
207.6155703310448
 31
0.0
  0
LINE
  5
7D0C
330
1F
100
AcDbEntity
  8
ceco.net 215
100
AcDbLine
 10
943.1995565745346
 20
83.27279569955322
 30
0.0
 11
796.0145257686454
 21
246.3300771659821
 31
0.0
  0
LINE
  5
7D0D
330
1F
100
AcDbEntity
  8
ceco.net 215
100
AcDbLine
 10
690.7913666470903
 20
129.7597834361861
 30
0.0
 11
800.4790359844683
 21
251.2760346107327
 31
0.0
  0
LINE
  5
7D0E
330
1F
100
AcDbEntity
  8
ceco.net 215
100
AcDbLine
 10
943.1995565745346
 20
123.0336290722337
 30
0.0
 11
823.2923608685105
 21
255.8714676284675
 31
0.0
  0
LINE
  5
7D0F
330
1F
100
AcDbEntity
  8
ceco.net 215
100
AcDbLine
 10
690.7913666470903
 20
173.7059229598214
 30
0.0
 11
759.4446566936021
 21
249.7626984173358
 31
0.0
  0
LINE
  5
7D10
330
1F
100
AcDbEntity
  8
ceco.net 215
100
AcDbLine
 10
943.1995565745346
 20
166.9797685958694
 30
0.0
 11
847.2351888204048
 21
273.2928144128036
 31
0.0
  0
LINE
  5
7D11
330
1F
100
AcDbEntity
  8
ceco.net 215
100
AcDbLine
 10
690.7913666470903
 20
211.3741032570441
 30
0.0
 11
735.5911871382959
 21
261.0050806701889
 31
0.0
  0
LINE
  5
7D12
330
1F
100
AcDbEntity
  8
ceco.net 215
100
AcDbLine
 10
943.1995565745346
 20
204.6479488930918
 30
0.0
 11
862.6128474207089
 21
293.9250285322454
 31
0.0
  0
LINE
  5
7D13
330
1F
100
AcDbEntity
  8
ceco.net 215
100
AcDbLine
 10
943.1995565745346
 20
254.8722176186233
 30
0.0
 11
885.1554872160722
 21
319.1756872243248
 31
0.0
  0
LINE
  5
7D14
330
1F
100
AcDbEntity
  8
ceco.net 215
100
AcDbLine
 10
943.1995565745346
 20
307.1890544318902
 30
0.0
 11
895.0096269401656
 21
360.5757261417471
 31
0.0
  0
LINE
  5
7D15
330
1F
100
AcDbEntity
  8
ceco.net 215
100
AcDbLine
 10
943.1995565745346
 20
353.2279320187445
 30
0.0
 11
902.6837903167198
 21
398.1128681182704
 31
0.0
  0
LINE
  5
7D16
330
1F
100
AcDbEntity
  8
ceco.net 215
100
AcDbLine
 10
943.1995565745346
 20
399.2668096055798
 30
0.0
 11
913.6786888581573
 21
431.9711709798836
 31
0.0
  0
LINE
  5
7D17
330
1F
100
AcDbEntity
  8
ceco.net 215
100
AcDbLine
 10
943.1995565745346
 20
445.305687192434
 30
0.0
 11
923.0570709211406
 21
467.6203134464584
 31
0.0
  0
LINE
  5
7D18
330
1F
100
AcDbEntity
  8
ceco.net 215
100
AcDbLine
 10
943.1995565745346
 20
493.4372178547465
 30
0.0
 11
932.3390920170986
 21
505.4688614023363
 31
0.0
  0
LINE
  5
7D19
330
1F
100
AcDbEntity
  8
ceco.net 215
100
AcDbLine
 10
943.1995565745346
 20
541.5687485170781
 30
0.0
 11
941.068061060092
 21
543.9301018567395
 31
0.0
  0
LINE
  5
7D1A
330
1F
100
AcDbEntity
  8
ceco.net 215
100
AcDbLine
 10
711.0897944053577
 20
3.667185272054041
 30
0.0
 11
798.8479905570693
 21
100.8891161474018
 31
0.0
  0
LINE
  5
7D1B
330
1F
100
AcDbEntity
  8
ceco.net 215
100
AcDbLine
 10
918.2164961245417
 20
2.130848562799371
 30
0.0
 11
797.9034767226239
 21
135.4182743375426
 31
0.0
  0
LINE
  5
7D1C
330
1F
100
AcDbEntity
  8
ceco.net 215
100
AcDbLine
 10
738.0031008033347
 20
0.0000000000050022
 30
0.0
 11
796.9590012456356
 21
65.31363141952721
 31
0.0
  0
LINE
  5
7D1D
330
1F
100
AcDbEntity
  8
ceco.net 215
100
AcDbLine
 10
889.9164024341134
 20
0.0
 30
0.0
 11
798.8479905570693
 21
100.8891161473971
 31
0.0
  0
LINE
  5
7D1E
330
1F
100
AcDbEntity
  8
ceco.net 215
100
AcDbLine
 10
772.0046015494935
 20
0.0
 30
0.0
 11
813.9597516187132
 21
46.4795412709206
 31
0.0
  0
LINE
  5
7D1F
330
1F
100
AcDbEntity
  8
ceco.net 215
100
AcDbLine
 10
855.9149016879418
 20
0.0
 30
0.0
 11
796.9590012456356
 21
65.31363141952721
 31
0.0
  0
LINE
  5
7D20
330
1F
100
AcDbEntity
  8
ceco.net 215
100
AcDbLine
 10
790.8943412339977
 20
0.0
 30
0.0
 11
813.9597516187077
 21
25.55275555298072
 31
0.0
  0
LINE
  5
7D21
330
1F
100
AcDbEntity
  8
ceco.net 215
100
AcDbLine
 10
837.0251620034432
 20
0.0
 30
0.0
 11
813.9597516187077
 21
25.55275555297567
 31
0.0
  0
LINE
  5
7D22
330
1F
100
AcDbEntity
  8
ceco.net 215
100
AcDbLine
 10
-674.0360391148088
 20
290.835183056941
 30
0.0
 11
-674.0360391148088
 21
57.20626650271793
 31
0.0
  0
LINE
  5
7D23
330
1F
100
AcDbEntity
  8
ceco.net 215
100
AcDbLine
 10
-902.748617604092
 20
0.0
 30
0.0
 11
-731.2423056175321
 21
0.0
 31
0.0
  0
ARC
  5
7D24
330
1F
100
AcDbEntity
  8
ceco.net 215
100
AcDbCircle
 10
-902.748617604092
 20
57.20626650272288
 30
0.0
 40
57.20626650272161
100
AcDbArc
 50
180.0
 51
270.0
  0
ARC
  5
7D25
330
1F
100
AcDbEntity
  8
ceco.net 215
100
AcDbCircle
 10
-731.2423056175321
 20
57.20626650271793
 30
0.0
 40
57.20626650272161
100
AcDbArc
 50
270.0
 51
0.0
  0
LINE
  5
7D26
330
1F
100
AcDbEntity
  8
ceco.net 215
100
AcDbLine
 10
-690.7913666470931
 20
16.75532753227878
 30
0.0
 11
-797.9034767226285
 21
135.4182743375426
 31
0.0
  0
LINE
  5
7D27
330
1F
100
AcDbEntity
  8
ceco.net 215
100
AcDbLine
 10
-939.889408250463
 20
13.696283770673
 30
0.0
 11
-797.9035150800719
 21
170.9937590654029
 31
0.0
  0
LINE
  5
7D28
330
1F
100
AcDbEntity
  8
ceco.net 215
100
AcDbLine
 10
-690.7913666470931
 20
52.3307697662824
 30
0.0
 11
-797.9035150800618
 21
170.9937590654075
 31
0.0
  0
LINE
  5
7D29
330
1F
100
AcDbEntity
  8
ceco.net 215
100
AcDbLine
 10
-943.1995565745383
 20
45.60461540233041
 30
0.0
 11
-796.9590012456501
 21
207.6155703310448
 31
0.0
  0
LINE
  5
7D2A
330
1F
100
AcDbEntity
  8
ceco.net 215
100
AcDbLine
 10
-690.7913666470931
 20
89.99895006350527
 30
0.0
 11
-796.9590012456501
 21
207.6155703310448
 31
0.0
  0
LINE
  5
7D2B
330
1F
100
AcDbEntity
  8
ceco.net 215
100
AcDbLine
 10
-943.1995565745383
 20
83.27279569955322
 30
0.0
 11
-796.0145257686471
 21
246.3300771659821
 31
0.0
  0
LINE
  5
7D2C
330
1F
100
AcDbEntity
  8
ceco.net 215
100
AcDbLine
 10
-690.7913666470931
 20
129.7597834361861
 30
0.0
 11
-800.4790359844683
 21
251.2760346107327
 31
0.0
  0
LINE
  5
7D2D
330
1F
100
AcDbEntity
  8
ceco.net 215
100
AcDbLine
 10
-943.1995565745383
 20
123.0336290722337
 30
0.0
 11
-823.2923608685114
 21
255.8714676284675
 31
0.0
  0
LINE
  5
7D2E
330
1F
100
AcDbEntity
  8
ceco.net 215
100
AcDbLine
 10
-690.7913666470931
 20
173.7059229598214
 30
0.0
 11
-759.4446566936039
 21
249.7626984173358
 31
0.0
  0
LINE
  5
7D2F
330
1F
100
AcDbEntity
  8
ceco.net 215
100
AcDbLine
 10
-943.1995565745383
 20
166.9797685958694
 30
0.0
 11
-847.2351888204048
 21
273.2928144128036
 31
0.0
  0
LINE
  5
7D30
330
1F
100
AcDbEntity
  8
ceco.net 215
100
AcDbLine
 10
-690.7913666470931
 20
211.3741032570441
 30
0.0
 11
-735.5911871382959
 21
261.0050806701889
 31
0.0
  0
LINE
  5
7D31
330
1F
100
AcDbEntity
  8
ceco.net 215
100
AcDbLine
 10
-943.1995565745383
 20
204.6479488930918
 30
0.0
 11
-862.6128474207098
 21
293.9250285322454
 31
0.0
  0
LINE
  5
7D32
330
1F
100
AcDbEntity
  8
ceco.net 215
100
AcDbLine
 10
-943.1995565745383
 20
254.8722176186233
 30
0.0
 11
-885.1554872160741
 21
319.1756872243248
 31
0.0
  0
LINE
  5
7D33
330
1F
100
AcDbEntity
  8
ceco.net 215
100
AcDbLine
 10
-943.1995565745383
 20
307.1890544318902
 30
0.0
 11
-895.0096269401665
 21
360.5757261417471
 31
0.0
  0
LINE
  5
7D34
330
1F
100
AcDbEntity
  8
ceco.net 215
100
AcDbLine
 10
-943.1995565745383
 20
353.2279320187445
 30
0.0
 11
-902.6837903167207
 21
398.1128681182704
 31
0.0
  0
LINE
  5
7D35
330
1F
100
AcDbEntity
  8
ceco.net 215
100
AcDbLine
 10
-943.1995565745383
 20
399.2668096055798
 30
0.0
 11
-913.6786888581591
 21
431.9711709798836
 31
0.0
  0
LINE
  5
7D36
330
1F
100
AcDbEntity
  8
ceco.net 215
100
AcDbLine
 10
-943.1995565745383
 20
445.305687192434
 30
0.0
 11
-923.0570709211423
 21
467.6203134464584
 31
0.0
  0
LINE
  5
7D37
330
1F
100
AcDbEntity
  8
ceco.net 215
100
AcDbLine
 10
-943.1995565745383
 20
493.4372178547465
 30
0.0
 11
-932.3390920171005
 21
505.4688614023363
 31
0.0
  0
LINE
  5
7D38
330
1F
100
AcDbEntity
  8
ceco.net 215
100
AcDbLine
 10
-711.0897944053594
 20
3.667185272054041
 30
0.0
 11
-798.8479905570711
 21
100.8891161474018
 31
0.0
  0
LINE
  5
7D39
330
1F
100
AcDbEntity
  8
ceco.net 215
100
AcDbLine
 10
-918.2164961245426
 20
2.130848562799371
 30
0.0
 11
-797.9034767226249
 21
135.4182743375426
 31
0.0
  0
LINE
  5
7D3A
330
1F
100
AcDbEntity
  8
ceco.net 215
100
AcDbLine
 10
-738.0031008033365
 20
0.0000000000050022
 30
0.0
 11
-796.9590012456356
 21
65.31363141952721
 31
0.0
  0
LINE
  5
7D3B
330
1F
100
AcDbEntity
  8
ceco.net 215
100
AcDbLine
 10
-889.9164024341162
 20
0.0
 30
0.0
 11
-798.8479905570711
 21
100.8891161473971
 31
0.0
  0
LINE
  5
7D3C
330
1F
100
AcDbEntity
  8
ceco.net 215
100
AcDbLine
 10
-772.0046015494944
 20
0.0
 30
0.0
 11
-813.959751618715
 21
46.4795412709206
 31
0.0
  0
LINE
  5
7D3D
330
1F
100
AcDbEntity
  8
ceco.net 215
100
AcDbLine
 10
-855.9149016879446
 20
0.0
 30
0.0
 11
-796.9590012456356
 21
65.31363141952721
 31
0.0
  0
LINE
  5
7D3E
330
1F
100
AcDbEntity
  8
ceco.net 215
100
AcDbLine
 10
-790.8943412339985
 20
0.0
 30
0.0
 11
-813.9597516187095
 21
25.55275555298072
 31
0.0
  0
LINE
  5
7D3F
330
1F
100
AcDbEntity
  8
ceco.net 215
100
AcDbLine
 10
-837.025162003445
 20
0.0
 30
0.0
 11
-813.9597516187095
 21
25.55275555297567
 31
0.0
  0
ARC
  5
7D40
330
1F
100
AcDbEntity
  8
ceco.net 215
100
AcDbCircle
 10
-114.0739611571425
 20
724.2523364905698
 30
0.0
 40
847.220246090182
100
AcDbArc
 50
183.2221027306112
 51
189.1420285147982
  0
LINE
  5
7D41
330
1F
100
AcDbEntity
  8
ceco.net 215
100
AcDbLine
 10
-959.9548841068218
 20
676.6329121460346
 30
0.0
 11
-959.9548841068154
 21
57.2062665027223
 31
0.0
  0
ARC
  5
7D42
330
1F
100
AcDbEntity
  8
ceco.net 215
100
AcDbCircle
 10
962.2876854973329
 20
1198.703847903978
 30
0.0
 40
124.2221096166834
100
AcDbArc
 50
272.7441442556519
 51
309.482139526697
  0
ARC
  5
7D43
330
1F
100
AcDbEntity
  8
ceco.net 215
100
AcDbCircle
 10
964.6705925193346
 20
514.678752133487
 30
0.0
 40
559.9567779582271
100
AcDbArc
 50
89.63528623691288
 51
96.08299508513811
  0
ARC
  5
7D44
330
1F
100
AcDbEntity
  8
ceco.net 215
100
AcDbCircle
 10
942.1642293985259
 20
744.0993175941724
 30
0.0
 40
329.4486672166898
100
AcDbArc
 50
96.41896746363194
 51
107.0920923518827
  0
ARC
  5
7D45
330
1F
100
AcDbEntity
  8
ceco.net 215
100
AcDbCircle
 10
1017.185418396922
 20
1138.632780372659
 30
0.0
 40
43.15435941402028
100
AcDbArc
 50
303.9291644532355
 51
1.567205718560179
  0
ARC
  5
7D46
330
1F
100
AcDbEntity
  8
ceco.net 215
100
AcDbCircle
 10
1000.722804520766
 20
1134.44267929249
 30
0.0
 40
59.84229008368298
100
AcDbArc
 50
5.148749306926414
 51
58.18442195197928
  0
ARC
  5
7D47
330
1F
100
AcDbEntity
  8
ceco.net 215
100
AcDbCircle
 10
933.3194934440907
 20
1029.57767963919
 30
0.0
 40
184.496157993492
100
AcDbArc
 50
57.56564195494624
 51
84.86780553505775
  0
ARC
  5
7D48
330
1F
100
AcDbEntity
  8
ceco.net 215
100
AcDbCircle
 10
927.626410086863
 20
996.8066413955378
 30
0.0
 40
217.6623156856482
100
AcDbArc
 50
84.14685594341504
 51
108.0480000166995
  0
ARC
  5
7D49
330
1F
100
AcDbEntity
  8
ceco.net 215
100
AcDbCircle
 10
877.6791523492446
 20
1155.441648793696
 30
0.0
 40
51.38497885278686
100
AcDbArc
 50
109.8965621529745
 51
168.3682478326708
  0
ARC
  5
7D4A
330
1F
100
AcDbEntity
  8
ceco.net 215
100
AcDbCircle
 10
894.9850314301547
 20
1151.993716274483
 30
0.0
 40
69.03072438245347
100
AcDbArc
 50
168.4612910882777
 51
215.2892682939473
  0
ARC
  5
7D4B
330
1F
100
AcDbEntity
  8
ceco.net 215
100
AcDbCircle
 10
814.9911116585499
 20
1177.258575923725
 30
0.0
 40
53.92693299898016
100
AcDbArc
 50
276.9147293884693
 51
287.3997799873269
  0
ARC
  5
7D4C
330
1F
100
AcDbEntity
  8
ceco.net 215
100
AcDbCircle
 10
831.2275815089687
 20
1098.05123433465
 30
0.0
 40
15.89653785635658
100
AcDbArc
 50
62.21027780104856
 51
165.1302837484735
  0
ARC
  5
7D4D
330
1F
100
AcDbEntity
  8
ceco.net 215
100
AcDbCircle
 10
818.4225168974844
 20
1148.963961159296
 30
0.0
 40
25.42500733454293
100
AcDbArc
 50
250.1216433969671
 51
276.9147293884693
  0
ARC
  5
7D4E
330
1F
100
AcDbEntity
  8
ceco.net 215
100
AcDbCircle
 10
909.9437718754016
 20
1164.192704524221
 30
0.0
 40
88.2979490754661
100
AcDbArc
 50
216.143005845685
 51
256.9495636826027
  0
ARC
  5
7D4F
330
1F
100
AcDbEntity
  8
ceco.net 215
100
AcDbCircle
 10
933.1821786146447
 20
1294.566183211364
 30
0.0
 40
220.6563745101297
100
AcDbArc
 50
258.7158647460004
 51
270.9237495610035
  0
ARC
  5
7D50
330
1F
100
AcDbEntity
  8
ceco.net 215
100
AcDbCircle
 10
957.5486854913979
 20
1188.575133367483
 30
0.0
 40
99.83587794823307
100
AcDbArc
 50
272.7441442556519
 51
309.482139526697
  0
ARC
  5
7D51
330
1F
100
AcDbEntity
  8
ceco.net 215
100
AcDbCircle
 10
1001.669360774649
 20
1140.296708658853
 30
0.0
 40
34.68266134496305
100
AcDbArc
 50
303.9291644532355
 51
1.567205718560179
  0
ARC
  5
7D52
330
1F
100
AcDbEntity
  8
ceco.net 215
100
AcDbCircle
 10
988.4385477195465
 20
1136.929172707953
 30
0.0
 40
48.09455891042883
100
AcDbArc
 50
5.148749306926414
 51
58.18442195197928
  0
ARC
  5
7D53
330
1F
100
AcDbEntity
  8
ceco.net 215
100
AcDbCircle
 10
934.2672833711786
 20
1052.6503809636
 30
0.0
 40
148.2774360232118
100
AcDbArc
 50
57.56564195494624
 51
84.86780553505775
  0
ARC
  5
7D54
330
1F
100
AcDbEntity
  8
ceco.net 215
100
AcDbCircle
 10
929.69181788475
 20
1026.312675184602
 30
0.0
 40
174.9326947495639
100
AcDbArc
 50
84.14685594341504
 51
108.0480000166995
  0
ARC
  5
7D55
330
1F
100
AcDbEntity
  8
ceco.net 215
100
AcDbCircle
 10
889.5497824393023
 20
1153.805802501397
 30
0.0
 40
41.29751533724057
100
AcDbArc
 50
109.8965621529745
 51
168.3682478326708
  0
ARC
  5
7D56
330
1F
100
AcDbEntity
  8
ceco.net 215
100
AcDbCircle
 10
903.4583180215722
 20
1151.034738870092
 30
0.0
 40
55.47919766771658
100
AcDbArc
 50
168.4612910882777
 51
215.2892682939473
  0
ARC
  5
7D57
330
1F
100
AcDbEntity
  8
ceco.net 215
100
AcDbCircle
 10
915.4804853310725
 20
1160.838925143778
 30
0.0
 40
70.96404411565076
100
AcDbArc
 50
216.143005845685
 51
256.9495636826027
  0
ARC
  5
7D58
330
1F
100
AcDbEntity
  8
ceco.net 215
100
AcDbCircle
 10
934.1569250251833
 20
1265.618587524818
 30
0.0
 40
177.3389853229017
100
AcDbArc
 50
258.7158647460004
 51
270.9237495610035
  0
ARC
  5
7D59
330
1F
100
AcDbEntity
  8
ceco.net 215
100
AcDbCircle
 10
943.2269883732642
 20
1384.617668862901
 30
0.0
 40
296.380106487629
100
AcDbArc
 50
268.799201830031
 51
273.6952250677624
  0
ARC
  5
7D5A
330
1F
100
AcDbEntity
  8
ceco.net 215
100
AcDbCircle
 10
-918.4474614059672
 20
744.0993175941724
 30
0.0
 40
329.4486672166898
100
AcDbArc
 50
75.06308523098063
 51
83.58103253636805
  0
ARC
  5
7D5B
330
1F
100
AcDbEntity
  8
ceco.net 215
100
AcDbCircle
 10
-909.4654106220851
 20
1294.566183211364
 30
0.0
 40
220.6563745101297
100
AcDbArc
 50
269.0762504389965
 51
281.2841352539996
  0
ARC
  5
7D5C
330
1F
100
AcDbEntity
  8
ceco.net 215
100
AcDbCircle
 10
-891.7637173385138
 20
1160.838925143778
 30
0.0
 40
70.96404411565076
100
AcDbArc
 50
283.0504363173972
 51
323.8569941543149
  0
ARC
  5
7D5D
330
1F
100
AcDbEntity
  8
ceco.net 215
100
AcDbCircle
 10
-905.9750498921884
 20
1026.312675184602
 30
0.0
 40
174.9326947495639
100
AcDbArc
 50
71.95199998330039
 51
95.85314405658493
  0
ARC
  5
7D5E
330
1F
100
AcDbEntity
  8
ceco.net 215
100
AcDbCircle
 10
-903.9096420943023
 20
996.8066413955378
 30
0.0
 40
217.6623156856482
100
AcDbArc
 50
71.95199998330039
 51
95.85314405658493
  0
ARC
  5
7D5F
330
1F
100
AcDbEntity
  8
ceco.net 215
100
AcDbCircle
 10
-865.8330144467409
 20
1153.805802501397
 30
0.0
 40
41.29751533724057
100
AcDbArc
 50
11.63175216732915
 51
70.10343784702548
  0
ARC
  5
7D60
330
1F
100
AcDbEntity
  8
ceco.net 215
100
AcDbCircle
 10
-886.227003882842
 20
1164.192704524221
 30
0.0
 40
88.2979490754661
100
AcDbArc
 50
283.0504363173972
 51
323.8569941543149
  0
ARC
  5
7D61
330
1F
100
AcDbEntity
  8
ceco.net 215
100
AcDbCircle
 10
-910.5505153786189
 20
1052.6503809636
 30
0.0
 40
148.2774360232118
100
AcDbArc
 50
95.13219446494222
 51
122.4343580450537
  0
ARC
  5
7D62
330
1F
100
AcDbEntity
  8
ceco.net 215
100
AcDbCircle
 10
-933.8319174988383
 20
1188.575133367483
 30
0.0
 40
99.83587794823307
100
AcDbArc
 50
230.5178604733029
 51
267.255855744348
  0
ARC
  5
7D63
330
1F
100
AcDbEntity
  8
ceco.net 215
100
AcDbCircle
 10
-909.6027254515293
 20
1029.57767963919
 30
0.0
 40
184.496157993492
100
AcDbArc
 50
95.13219446494222
 51
122.4343580450537
  0
ARC
  5
7D64
330
1F
100
AcDbEntity
  8
ceco.net 215
100
AcDbCircle
 10
-938.5709175047741
 20
1198.703847903978
 30
0.0
 40
124.2221096166834
100
AcDbArc
 50
230.5178604733029
 51
267.255855744348
  0
ARC
  5
7D65
330
1F
100
AcDbEntity
  8
ceco.net 215
100
AcDbCircle
 10
-919.5102203807046
 20
1384.617668862901
 30
0.0
 40
296.380106487629
100
AcDbArc
 50
266.3047749322374
 51
271.2007981699688
  0
ARC
  5
7D66
330
1F
100
AcDbEntity
  8
ceco.net 215
100
AcDbCircle
 10
-910.4401570326217
 20
1265.618587524818
 30
0.0
 40
177.3389853229017
100
AcDbArc
 50
269.0762504389965
 51
281.2841352539996
  0
ARC
  5
7D67
330
1F
100
AcDbEntity
  8
ceco.net 215
100
AcDbCircle
 10
-940.9538245267759
 20
514.678752133487
 30
0.0
 40
559.9567779582271
100
AcDbArc
 50
83.91700491486188
 51
90.36471376308712
  0
ARC
  5
7D68
330
1F
100
AcDbEntity
  8
ceco.net 215
100
AcDbCircle
 10
-964.7217797269858
 20
1136.929172707953
 30
0.0
 40
48.09455891042883
100
AcDbArc
 50
121.8155780480207
 51
174.8512506930736
  0
ARC
  5
7D69
330
1F
100
AcDbEntity
  8
ceco.net 215
100
AcDbCircle
 10
-977.9525927820905
 20
1140.296708658853
 30
0.0
 40
34.68266134496305
100
AcDbArc
 50
178.4327942814398
 51
236.0708355467644
  0
ARC
  5
7D6A
330
1F
100
AcDbEntity
  8
ceco.net 215
100
AcDbCircle
 10
-977.006036528207
 20
1134.44267929249
 30
0.0
 40
59.84229008368298
100
AcDbArc
 50
121.8155780480207
 51
174.8512506930736
  0
ARC
  5
7D6B
330
1F
100
AcDbEntity
  8
ceco.net 215
100
AcDbCircle
 10
-993.468650404362
 20
1138.632780372659
 30
0.0
 40
43.15435941402028
100
AcDbArc
 50
178.4327942814398
 51
236.0708355467644
  0
ARC
  5
7D6C
330
1F
100
AcDbEntity
  8
ceco.net 215
100
AcDbCircle
 10
-879.7415500290144
 20
1151.034738870092
 30
0.0
 40
55.47919766771658
100
AcDbArc
 50
324.7107317060526
 51
11.53870891172219
  0
ARC
  5
7D6D
330
1F
100
AcDbEntity
  8
ceco.net 215
100
AcDbCircle
 10
-807.5108135164091
 20
1098.05123433465
 30
0.0
 40
15.89653785635658
100
AcDbArc
 50
75.03812433154803
 51
117.7897221989514
  0
ARC
  5
7D6E
330
1F
100
AcDbEntity
  8
ceco.net 215
100
AcDbCircle
 10
-791.2743436659902
 20
1177.258575923725
 30
0.0
 40
53.92693299898016
100
AcDbArc
 50
252.600220012673
 51
260.1420581796054
  0
ARC
  5
7D6F
330
1F
100
AcDbEntity
  8
ceco.net 215
100
AcDbCircle
 10
-871.2682634375969
 20
1151.993716274483
 30
0.0
 40
69.03072438245347
100
AcDbArc
 50
324.7107317060526
 51
11.53870891172219
  0
ARC
  5
7D70
330
1F
100
AcDbEntity
  8
ceco.net 215
100
AcDbCircle
 10
-853.9623843566841
 20
1155.441648793696
 30
0.0
 40
51.38497885278686
100
AcDbArc
 50
11.63175216732915
 51
70.10343784702548
  0
MTEXT
  5
7D71
330
1F
100
AcDbEntity
  8
ceco.net 215
100
AcDbMText
 10
-185.7457223863857
 20
864.9031874604643
 30
0.0
 40
40.18753714258333
 41
0.0
 71
     1
 72
     5
  1
{\fBankGothic Md BT|b0|i0|c0|p34;26-BJ-45}
  7
AREAL
 73
     1
 44
1.0
  0
MTEXT
  5
7D72
330
1F
100
AcDbEntity
  8
ceco.net 215
100
AcDbMText
 10
-258.929890588668
 20
864.8339272238379
 30
0.0
 40
32.15002971406667
 41
0.0
 71
     1
 72
     5
  1
{\fBankGothic Md BT|b0|i0|c0|p34;P}
  7
AREAL
 73
     1
 44
1.0
  0
LINE
  5
7D73
330
1F
100
AcDbEntity
  8
ceco.net 215
100
AcDbLine
 10
-216.8991918935753
 20
783.0227208388398
 30
0.0
 11
-216.8991918935753
 21
910.5470287781061
 31
0.0
  0
MTEXT
  5
7D74
330
1F
100
AcDbEntity
  8
ceco.net 215
100
AcDbMText
 10
223.0229993969623
 20
889.1566721935474
 30
0.0
 40
17.361016045596
 41
0.0
 71
     1
 72
     5
  1
{\fBankGothic Md BT|b0|i0|c0|p34;05}
  7
AREAL
 73
     1
 44
1.0
  0
MTEXT
  5
7D75
330
1F
100
AcDbEntity
  8
ceco.net 215
100
AcDbMText
 10
223.0229993969623
 20
814.1059889998446
 30
0.0
 40
17.361016045596
 41
0.0
 71
     1
 72
     5
  1
{\fBankGothic Md BT|b0|i0|c0|p34;01}
  7
AREAL
 73
     1
 44
1.0
  0
LINE
  5
7D76
330
1F
100
AcDbEntity
  8
ceco.net 215
100
AcDbLine
 10
213.7288070310714
 20
840.719547522012
 30
0.0
 11
281.1652430976483
 21
840.719547522012
 31
0.0
  0
LINE
  5
7D77
330
1F
100
AcDbEntity
  8
ceco.net 215
100
AcDbLine
 10
213.7288070310714
 20
783.0227208388398
 30
0.0
 11
213.7288070310714
 21
910.5470287781061
 31
0.0
  0
ELLIPSE
  5
7D78
330
1F
100
AcDbEntity
  8
ceco.net 215
100
AcDbEllipse
 10
15.85933896182541
 20
1370.678609338136
 30
0.0
 11
118.8365716796197
 21
0.0
 31
0.0
210
0.0
220
0.0
230
-1.0
 40
0.3403362312128288
 41
0.0
 42
6.283185307179586
  0
SPLINE
  5
7D79
330
1F
100
AcDbEntity
  8
ceco.net 215
100
AcDbSpline
210
0.0
220
0.0
230
1.0
 70
    11
 71
     3
 72
    20
 73
    16
 74
     0
 42
0.0000000001
 43
0.0000000001
 40
0.0
 40
0.0
 40
0.0
 40
0.0
 40
0.5777947462770303
 40
0.5777947462770303
 40
1.15558949255406
 40
1.15558949255406
 40
2.429444207762192
 40
2.429444207762192
 40
3.703298922970325
 40
3.703298922970325
 40
4.977153638178458
 40
4.977153638178458
 40
5.983237888862121
 40
5.983237888862121
 40
6.283185307179586
 40
6.283185307179586
 40
6.283185307179586
 40
6.283185307179586
 10
130.1194093212325
 20
1370.678609338136
 30
0.0
 10
130.1194093212325
 20
1365.478959133662
 30
0.0
 10
125.0875734027486
 20
1358.805196593683
 30
0.0
 10
101.4872160599024
 20
1346.486490708758
 30
0.0
 10
83.71301646871689
 20
1341.286649457161
 30
0.0
 10
17.70774679236092
 20
1331.383722367714
 30
0.0
 10
-40.68992291057656
 20
1335.999382686995
 30
0.0
 10
-104.1433728203355
 20
1361.015282747267
 30
0.0
 10
-107.8307829691038
 20
1374.518321099143
 30
0.0
 10
-57.25064066597588
 20
1401.871667654666
 30
0.0
 10
-1.464601968082206
 20
1409.585831474441
 30
0.0
 10
84.44706218946521
 20
1401.658304580555
 30
0.0
 10
116.0477382192366
 20
1390.506026531041
 30
0.0
 10
128.9712277472172
 20
1376.284767160101
 30
0.0
 10
130.1194093212325
 20
1373.377875236673
 30
0.0
 10
130.1194093212325
 20
1370.678609338136
 30
0.0
  0
LINE
  5
7D7A
330
1F
100
AcDbEntity
  8
ceco.net 215
100
AcDbLine
 10
28.98761076549817
 20
1330.481774923897
 30
0.0
 11
28.98761076549817
 21
1323.970277762372
 31
0.0
  0
LINE
  5
7D7B
330
1F
100
AcDbEntity
  8
ceco.net 215
100
AcDbLine
 10
22.20866830989689
 20
1317.191335306773
 30
0.0
 11
15.40811515201858
 21
1317.191335306769
 31
0.0
  0
LINE
  5
7D7C
330
1F
100
AcDbEntity
  8
ceco.net 215
100
AcDbLine
 10
8.629172696420937
 20
1323.970277762367
 30
0.0
 11
8.629172696420937
 21
1330.309143463535
 31
0.0
  0
ARC
  5
7D7D
330
1F
100
AcDbEntity
  8
ceco.net 215
100
AcDbCircle
 10
15.40811515201858
 20
1323.970277762367
 30
0.0
 40
6.7789424556
100
AcDbArc
 50
180.0
 51
270.0
  0
ARC
  5
7D7E
330
1F
100
AcDbEntity
  8
ceco.net 215
100
AcDbCircle
 10
22.20866830989689
 20
1323.970277762372
 30
0.0
 40
6.7789424556
100
AcDbArc
 50
270.0
 51
0.0
  0
ARC
  5
7D7F
330
1F
100
AcDbEntity
  8
ceco.net 215
100
AcDbCircle
 10
-4.694971340471965
 20
852.7901913562565
 30
0.0
 40
392.5230802574041
100
AcDbArc
 50
93.34171082750199
 51
100.0580969885164
  0
ARC
  5
7D80
330
1F
100
AcDbEntity
  8
ceco.net 215
100
AcDbCircle
 10
-71.37850811264797
 20
1218.938552791479
 30
0.0
 40
20.42780687514575
100
AcDbArc
 50
95.25037637405331
 51
150.8372068891403
  0
LINE
  5
7D81
330
1F
100
AcDbEntity
  8
ceco.net 215
100
AcDbLine
 10
-27.57545404781376
 20
1244.645843409115
 30
0.0
 11
18.18551136662245
 21
1244.645843409115
 31
0.0
  0
ARC
  5
7D82
330
1F
100
AcDbEntity
  8
ceco.net 215
100
AcDbCircle
 10
70.95224042771405
 20
1139.513838694067
 30
0.0
 40
183.4196078635221
100
AcDbArc
 50
150.8372068891403
 51
168.4207040554871
  0
ARC
  5
7D83
330
1F
100
AcDbEntity
  8
ceco.net 215
100
AcDbCircle
 10
-34.58121769435456
 20
1139.513838694067
 30
0.0
 40
183.4196078635221
100
AcDbArc
 50
11.57233838672954
 51
29.16279311085962
  0
LINE
  5
7D84
330
1F
100
AcDbEntity
  8
ceco.net 215
100
AcDbLine
 10
63.94647678105321
 20
1244.645843409115
 30
0.0
 11
18.18551136662245
 21
1244.645843409115
 31
0.0
  0
ARC
  5
7D85
330
1F
100
AcDbEntity
  8
ceco.net 215
100
AcDbCircle
 10
107.7495308458874
 20
1218.938552791479
 30
0.0
 40
20.42780687514575
100
AcDbArc
 50
29.16279311085962
 51
84.7496236259467
  0
ARC
  5
7D86
330
1F
100
AcDbEntity
  8
ceco.net 215
100
AcDbCircle
 10
41.06599407383692
 20
852.7901913562565
 30
0.0
 40
392.5230802574041
100
AcDbArc
 50
79.94190301148354
 51
86.65828917249799
  0
ARC
  5
7D87
330
1F
100
AcDbEntity
  8
ceco.net 215
100
AcDbCircle
 10
-452.1240410934442
 20
1292.375846082499
 30
0.0
 40
20.42780687514575
100
AcDbArc
 50
90.0
 51
161.2576976231195
  0
ARC
  5
7D88
330
1F
100
AcDbEntity
  8
ceco.net 215
100
AcDbCircle
 10
-96.82891983810442
 20
1171.822635381899
 30
0.0
 40
395.6180250286793
100
AcDbArc
 50
161.2576976231195
 51
180.5815243602902
  0
ARC
  5
7D89
330
1F
100
AcDbEntity
  8
ceco.net 215
100
AcDbCircle
 10
-616.2758564395589
 20
1171.822635381899
 30
0.0
 40
395.6180250286793
100
AcDbArc
 50
0.5743268417297382
 51
18.74230237688047
  0
ARC
  5
7D8A
330
1F
100
AcDbEntity
  8
ceco.net 215
100
AcDbCircle
 10
-260.980735184341
 20
1292.375846082499
 30
0.0
 40
20.42780687514575
100
AcDbArc
 50
18.74230237688047
 51
90.0
  0
LINE
  5
7D8B
330
1F
100
AcDbEntity
  8
ceco.net 215
100
AcDbLine
 10
-452.1240410934442
 20
1312.803652956788
 30
0.0
 11
-260.980735184341
 21
1312.803652956788
 31
0.0
  0
ARC
  5
7D8C
330
1F
100
AcDbEntity
  8
ceco.net 215
100
AcDbCircle
 10
-467.1209316710628
 20
1190.12318136206
 30
0.0
 40
231.6456258699012
100
AcDbArc
 50
356.3815888657428
 51
31.97870889215315
  0
ARC
  5
7D8D
330
1F
100
AcDbEntity
  8
ceco.net 215
100
AcDbCircle
 10
-245.9838446067278
 20
1190.12318136206
 30
0.0
 40
231.6456258699012
100
AcDbArc
 50
148.0212911078468
 51
185.3707406694645
  0
ARC
  5
7D8E
330
1F
100
AcDbEntity
  8
ceco.net 215
100
AcDbCircle
 10
488.4950638266909
 20
1292.375846082499
 30
0.0
 40
20.42780687514575
100
AcDbArc
 50
18.74230237688047
 51
90.0
  0
ARC
  5
7D8F
330
1F
100
AcDbEntity
  8
ceco.net 215
100
AcDbCircle
 10
133.1999425713511
 20
1171.822635381899
 30
0.0
 40
395.6180250286793
100
AcDbArc
 50
359.2557814071137
 51
18.74230237688047
  0
ARC
  5
7D90
330
1F
100
AcDbEntity
  8
ceco.net 215
100
AcDbCircle
 10
297.3517579175877
 20
1292.375846082499
 30
0.0
 40
20.42780687514575
100
AcDbArc
 50
90.0
 51
161.2576976231195
  0
LINE
  5
7D91
330
1F
100
AcDbEntity
  8
ceco.net 215
100
AcDbLine
 10
488.4950638266909
 20
1312.803652956788
 30
0.0
 11
297.3517579175877
 21
1312.803652956788
 31
0.0
  0
ARC
  5
7D92
330
1F
100
AcDbEntity
  8
ceco.net 215
100
AcDbCircle
 10
503.4919544043077
 20
1190.12318136206
 30
0.0
 40
231.6456258699012
100
AcDbArc
 50
148.0212911078468
 51
183.8814443114584
  0
ARC
  5
7D93
330
1F
100
AcDbEntity
  8
ceco.net 215
100
AcDbCircle
 10
282.3548673399709
 20
1190.12318136206
 30
0.0
 40
231.6456258699012
100
AcDbArc
 50
354.3599108316964
 51
31.97870889215315
  0
ARC
  5
7D94
330
1F
100
AcDbEntity
  8
ceco.net 215
100
AcDbCircle
 10
-34.58121769446916
 20
1139.513838694067
 30
0.0
 40
183.4196078635221
100
AcDbArc
 50
11.57233838672954
 51
29.16279311085962
  0
ARC
  5
7D95
330
1F
100
AcDbEntity
  8
ceco.net 215
100
AcDbCircle
 10
571.0077594684216
 20
1168.450506657533
 30
0.0
 40
320.7440349231159
100
AcDbArc
 50
155.9939984037381
 51
178.7569246114249
  0
ENDSEC
  0
SECTION
  2
OBJECTS
  0
DICTIONARY
  5
C
330
0
100
AcDbDictionary
281
     1
  3
ACAD_GROUP
350
D
  3
ACAD_LAYOUT
350
1A
  3
ACAD_MLINESTYLE
350
17
  3
ACAD_PLOTSETTINGS
350
19
  3
ACAD_PLOTSTYLENAME
350
E
  3
AcDbVariableDictionary
350
115
  3
DWGPROPS
350
8E3
  0
DICTIONARY
  5
90B
330
2
100
AcDbDictionary
280
     1
281
     1
  3
ACAD_LAYERFILTERS
360
7A67
  3
ACAD_LAYERSTATES
360
90C
  0
DICTIONARY
  5
7AA4
330
7AA3
100
AcDbDictionary
280
     1
281
     1
  3
ACAD_XREC_ROUNDTRIP
360
7AA5
  0
DICTIONARY
  5
D
102
{ACAD_REACTORS
330
C
102
}
330
C
100
AcDbDictionary
281
     1
  0
DICTIONARY
  5
1A
102
{ACAD_REACTORS
330
C
102
}
330
C
100
AcDbDictionary
281
     1
  3
Layout1
350
1E
  3
Layout2
350
26
  3
Model
350
22
  0
DICTIONARY
  5
17
102
{ACAD_REACTORS
330
C
102
}
330
C
100
AcDbDictionary
281
     1
  3
Standard
350
18
  0
DICTIONARY
  5
19
102
{ACAD_REACTORS
330
C
102
}
330
C
100
AcDbDictionary
281
     1
  0
ACDBDICTIONARYWDFLT
  5
E
102
{ACAD_REACTORS
330
C
102
}
330
C
100
AcDbDictionary
281
     1
  3
Normal
350
F
100
AcDbDictionaryWithDefault
340
F
  0
DICTIONARY
  5
115
102
{ACAD_REACTORS
330
C
102
}
330
C
100
AcDbDictionary
281
     1
  3
DIMASSOC
350
117
  3
HIDETEXT
350
116
  0
XRECORD
  5
8E3
102
{ACAD_REACTORS
330
C
102
}
330
C
100
AcDbXrecord
280
     1
  1
DWGPROPS COOKIE
  2
Ceco.NET-Trees-and-Plants - T - xx . 67 . dwg
  3

  4
ceco.net
  6

  7

  8
peacosta
  9

300
=
301
=
302
=
303
=
304
=
305
=
306
=
307
=
308
=
309
=
 40
0.0450312037037037
 41
2455079.811409143
 42
2455838.656599502
  1

 90
        0
  0
DICTIONARY
  5
7A67
102
{ACAD_REACTORS
330
90B
102
}
330
90B
100
AcDbDictionary
280
     1
281
     1
  3
1
360
7A71
  3
16-20---27
360
7A72
  3
\U+0393\U+03A1\U+0391\U+039C\U+039C\U+0395\U+03A3
360
7A73
  3
Acabados
360
7A74
  3
Aguas pluviais
360
7A75
  3
Arquitectura
360
7A76
  3
ARRANJOS EXTERIORES
360
7A77
  3
AUXILIARES
360
7A78
  3
BETAR
360
7A79
  3
CAD
360
7A7A
  3
coords
360
7A7B
  3
COTAS
360
7A7C
  3
dim
360
7A7D
  3
Diseo
360
7A7E
  3
e
360
7A7F
  3
eba
360
7A80
  3
ENGENHEIROS
360
7A81
  3
equipamento
360
7A82
  3
Especialidades
360
7A83
  3
Estabilidade
360
7A84
  3
GENERAL
360
7A85
  3
H_P
360
7A86
  3
HATCH
360
7A87
  3
HEIGHT
360
7A88
  3
Levantamento
360
7A89
  3
LUNAR
360
7A8A
  3
LUNAR2
360
7A8B
  3
Mediciones
360
7A8C
  3
NONE
360
7A8D
  3
NOTES
360
7A8E
  3
paredes
360
7A8F
  3
PAREDES CORTE
360
7A90
  3
PAREDES VISTA
360
7A91
  3
PAVIMENTOS ACABAMENTO
360
7A92
  3
POINT
360
7A93
  3
Proposta
360
7A94
  3
PUBLIC
360
7A95
  3
REVESTIMENTOS ACABAMENTOS
360
7A96
  3
S
360
7A97
  3
text
360
7A98
  3
texto
360
7A99
  3
TEXTOS
360
7A9A
  3
TEXTOS1
360
7A9B
  3
TR
360
7A9C
  3
Trama
360
7A9D
  3
Traados
360
7A9E
  3
WSP
360
7A9F
  3
XE
360
7AA0
  3
xref
360
7AA1
  3
xrefreeze
360
7AA2
  0
DICTIONARY
  5
90C
102
{ACAD_REACTORS
330
90B
102
}
330
90B
100
AcDbDictionary
281
     1
  0
XRECORD
  5
7AA5
102
{ACAD_REACTORS
330
7AA4
102
}
330
7AA4
100
AcDbXrecord
280
     1
102
MATERIAL
340
0
  0
LAYOUT
  5
1E
102
{ACAD_REACTORS
330
1A
102
}
330
1A
100
AcDbPlotSettings
  1

  2
Microsoft Office Document Image Writer
  4

  6

 40
0.0
 41
0.0
 42
0.0
 43
0.0
 44
0.0
 45
0.0
 46
0.0
 47
0.0
 48
0.0
 49
0.0
140
0.0
141
0.0
142
1.0
143
1.0
 70
   688
 72
     0
 73
     0
 74
     5
  7

 75
    16
147
1.0
148
0.0
149
0.0
100
AcDbLayout
  1
Layout1
 70
     1
 71
     1
 10
0.0
 20
0.0
 11
420.0
 21
297.0
 12
0.0
 22
0.0
 32
0.0
 14
1.000000000000000E+20
 24
1.000000000000000E+20
 34
1.000000000000000E+20
 15
-1.000000000000000E+20
 25
-1.000000000000000E+20
 35
-1.000000000000000E+20
146
0.0
 13
0.0
 23
0.0
 33
0.0
 16
1.0
 26
0.0
 36
0.0
 17
0.0
 27
1.0
 37
0.0
 76
     0
330
1B
  0
LAYOUT
  5
26
102
{ACAD_REACTORS
330
1A
102
}
330
1A
100
AcDbPlotSettings
  1

  2
Microsoft Office Document Image Writer
  4

  6

 40
0.0
 41
0.0
 42
0.0
 43
0.0
 44
0.0
 45
0.0
 46
0.0
 47
0.0
 48
0.0
 49
0.0
140
0.0
141
0.0
142
1.0
143
1.0
 70
   688
 72
     0
 73
     0
 74
     5
  7

 75
    16
147
1.0
148
0.0
149
0.0
100
AcDbLayout
  1
Layout2
 70
     1
 71
     2
 10
0.0
 20
0.0
 11
12.0
 21
9.0
 12
0.0
 22
0.0
 32
0.0
 14
0.0
 24
0.0
 34
0.0
 15
0.0
 25
0.0
 35
0.0
146
0.0
 13
0.0
 23
0.0
 33
0.0
 16
1.0
 26
0.0
 36
0.0
 17
0.0
 27
1.0
 37
0.0
 76
     0
330
23
  0
LAYOUT
  5
22
102
{ACAD_REACTORS
330
1A
102
}
330
1A
100
AcDbPlotSettings
  1

  2
Microsoft Office Document Image Writer
  4

  6

 40
0.0
 41
0.0
 42
0.0
 43
0.0
 44
0.0
 45
0.0
 46
0.0
 47
0.0
 48
0.0
 49
0.0
140
0.0
141
0.0
142
1.0
143
1.0
 70
  1712
 72
     0
 73
     0
 74
     0
  7

 75
     0
147
1.0
148
0.0
149
0.0
100
AcDbLayout
  1
Model
 70
     1
 71
     0
 10
0.0
 20
0.0
 11
12.0
 21
9.0
 12
0.0
 22
0.0
 32
0.0
 14
0.0
 24
0.0
 34
0.0
 15
0.0
 25
0.0
 35
0.0
146
0.0
 13
0.0
 23
0.0
 33
0.0
 16
1.0
 26
0.0
 36
0.0
 17
0.0
 27
1.0
 37
0.0
 76
     0
330
1F
  0
MLINESTYLE
  5
18
102
{ACAD_REACTORS
330
17
102
}
330
17
100
AcDbMlineStyle
  2
STANDARD
 70
     0
  3

 62
   256
 51
90.0
 52
90.0
 71
     2
 49
0.5
 62
   256
  6
BYLAYER
 49
-0.5
 62
   256
  6
BYLAYER
  0
ACDBPLACEHOLDER
  5
F
102
{ACAD_REACTORS
330
E
102
}
330
E
  0
DICTIONARYVAR
  5
117
102
{ACAD_REACTORS
330
115
102
}
330
115
100
DictionaryVariables
280
     0
  1
2
  0
DICTIONARYVAR
  5
116
102
{ACAD_REACTORS
330
115
102
}
330
115
100
DictionaryVariables
280
     0
  1
1
  0
XRECORD
  5
7A71
102
{ACAD_REACTORS
330
7A67
102
}
330
7A67
100
AcDbXrecord
280
     1
  1
1
  1
*Grueso
  1
*
  1
*
 70
     0
  1
*
  1
*
  0
XRECORD
  5
7A72
102
{ACAD_REACTORS
330
7A67
102
}
330
7A67
100
AcDbXrecord
280
     1
  1
16-20---27
  1
*
  1
*
  1
*
 70
     0
  1
*
  1
*
  0
XRECORD
  5
7A73
102
{ACAD_REACTORS
330
7A67
102
}
330
7A67
100
AcDbXrecord
280
     1
  1
\U+0393\U+03A1\U+0391\U+039C\U+039C\U+0395\U+03A3
  1
*\U+0393\U+03A1\U+0391\U+039C\U+039C*
  1
*
  1
*
 70
     0
  1
*
  1
*
  0
XRECORD
  5
7A74
102
{ACAD_REACTORS
330
7A67
102
}
330
7A67
100
AcDbXrecord
280
     1
  1
Acabados
  1
[13]*
  1
*
  1
*
 70
     0
  1
*
  1
*
  0
XRECORD
  5
7A75
102
{ACAD_REACTORS
330
7A67
102
}
330
7A67
100
AcDbXrecord
280
     1
  1
Aguas pluviais
  1
Esp_Aguas pluviais*
  1
*
  1
*
 70
     0
  1
*
  1
*
  0
XRECORD
  5
7A76
102
{ACAD_REACTORS
330
7A67
102
}
330
7A67
100
AcDbXrecord
280
     1
  1
Arquitectura
  1
Arq_*
  1
*
  1
*
 70
     0
  1
*
  1
*
  0
XRECORD
  5
7A77
102
{ACAD_REACTORS
330
7A67
102
}
330
7A67
100
AcDbXrecord
280
     1
  1
ARRANJOS EXTERIORES
  1
ARV*
  1
*
  1
*
 70
     0
  1
*
  1
*
  0
XRECORD
  5
7A78
102
{ACAD_REACTORS
330
7A67
102
}
330
7A67
100
AcDbXrecord
280
     1
  1
AUXILIARES
  1
AUX*
  1
*
  1
*
 70
     0
  1
*
  1
*
  0
XRECORD
  5
7A79
102
{ACAD_REACTORS
330
7A67
102
}
330
7A67
100
AcDbXrecord
280
     1
  1
BETAR
  1
est*
  1
*
  1
*
 70
     0
  1
*
  1
*
  0
XRECORD
  5
7A7A
102
{ACAD_REACTORS
330
7A67
102
}
330
7A67
100
AcDbXrecord
280
     1
  1
CAD
  1
*HEIGHT*,*POINT*,*TEXT*
  1
*
  1
*
 70
     0
  1
*
  1
*
  0
XRECORD
  5
7A7B
102
{ACAD_REACTORS
330
7A67
102
}
330
7A67
100
AcDbXrecord
280
     1
  1
coords
  1
*co-ords,*coords
  1
*
  1
*
 70
     0
  1
*
  1
*
  0
XRECORD
  5
7A7C
102
{ACAD_REACTORS
330
7A67
102
}
330
7A67
100
AcDbXrecord
280
     1
  1
COTAS
  1
C*
  1
*
  1
*
 70
     0
  1
*
  1
*
  0
XRECORD
  5
7A7D
102
{ACAD_REACTORS
330
7A67
102
}
330
7A67
100
AcDbXrecord
280
     1
  1
dim
  1
*dim
  1
*
  1
*
 70
     0
  1
*
  1
*
  0
XRECORD
  5
7A7E
102
{ACAD_REACTORS
330
7A67
102
}
330
7A67
100
AcDbXrecord
280
     1
  1
Diseo
  1
1*
  1
*
  1
*
 70
     0
  1
*
  1
*
  0
XRECORD
  5
7A7F
102
{ACAD_REACTORS
330
7A67
102
}
330
7A67
100
AcDbXrecord
280
     1
  1
e
  1
*
  1
*
  1
*
 70
     0
  1
*
  1
*
  0
XRECORD
  5
7A80
102
{ACAD_REACTORS
330
7A67
102
}
330
7A67
100
AcDbXrecord
280
     1
  1
eba
  1
*
  1
*
  1
*
 70
     0
  1
*
  1
*
  0
XRECORD
  5
7A81
102
{ACAD_REACTORS
330
7A67
102
}
330
7A67
100
AcDbXrecord
280
     1
  1
ENGENHEIROS
  1
*
  1
*
  1
*
 70
     0
  1
*
  1
*
  0
XRECORD
  5
7A82
102
{ACAD_REACTORS
330
7A67
102
}
330
7A67
100
AcDbXrecord
280
     1
  1
equipamento
  1
eq*
  1
*
  1
*
 70
     0
  1
*
  1
*
  0
XRECORD
  5
7A83
102
{ACAD_REACTORS
330
7A67
102
}
330
7A67
100
AcDbXrecord
280
     1
  1
Especialidades
  1
Esp_vent*
  1
*
  1
*
 70
     0
  1
*
  1
*
  0
XRECORD
  5
7A84
102
{ACAD_REACTORS
330
7A67
102
}
330
7A67
100
AcDbXrecord
280
     1
  1
Estabilidade
  1
Est_*
  1
*
  1
*
 70
     0
  1
*
  1
*
  0
XRECORD
  5
7A85
102
{ACAD_REACTORS
330
7A67
102
}
330
7A67
100
AcDbXrecord
280
     1
  1
GENERAL
  1
*GENERAL
  1
*
  1
*
 70
     0
  1
*
  1
*
  0
XRECORD
  5
7A86
102
{ACAD_REACTORS
330
7A67
102
}
330
7A67
100
AcDbXrecord
280
     1
  1
H_P
  1
*HEIGHT*,*POINT*
  1
*
  1
*
 70
     0
  1
*
  1
*
  0
XRECORD
  5
7A87
102
{ACAD_REACTORS
330
7A67
102
}
330
7A67
100
AcDbXrecord
280
     1
  1
HATCH
  1
H*
  1
*
  1
*
 70
     0
  1
*
  1
*
  0
XRECORD
  5
7A88
102
{ACAD_REACTORS
330
7A67
102
}
330
7A67
100
AcDbXrecord
280
     1
  1
HEIGHT
  1
*HEIGHT*
  1
*
  1
*
 70
     0
  1
*
  1
*
  0
XRECORD
  5
7A89
102
{ACAD_REACTORS
330
7A67
102
}
330
7A67
100
AcDbXrecord
280
     1
  1
Levantamento
  1
Lev_*
  1
*
  1
*
 70
     0
  1
*
  1
*
  0
XRECORD
  5
7A8A
102
{ACAD_REACTORS
330
7A67
102
}
330
7A67
100
AcDbXrecord
280
     1
  1
LUNAR
  1
*
  1
*
  1
*
 70
    48
  1
*
  1
*
  0
XRECORD
  5
7A8B
102
{ACAD_REACTORS
330
7A67
102
}
330
7A67
100
AcDbXrecord
280
     1
  1
LUNAR2
  1
*
  1
*
  1
*
 70
    12
  1
*
  1
*
  0
XRECORD
  5
7A8C
102
{ACAD_REACTORS
330
7A67
102
}
330
7A67
100
AcDbXrecord
280
     1
  1
Mediciones
  1
[12]*
  1
*
  1
*
 70
     0
  1
*
  1
*
  0
XRECORD
  5
7A8D
102
{ACAD_REACTORS
330
7A67
102
}
330
7A67
100
AcDbXrecord
280
     1
  1
NONE
  1
*
  1
*
  1
*
 70
     0
  1
*
  1
*
  0
XRECORD
  5
7A8E
102
{ACAD_REACTORS
330
7A67
102
}
330
7A67
100
AcDbXrecord
280
     1
  1
NOTES
  1
*|NOTES
  1
*
  1
*
 70
     0
  1
*
  1
*
  0
XRECORD
  5
7A8F
102
{ACAD_REACTORS
330
7A67
102
}
330
7A67
100
AcDbXrecord
280
     1
  1
paredes
  1
pa*
  1
*
  1
*
 70
     0
  1
*
  1
*
  0
XRECORD
  5
7A90
102
{ACAD_REACTORS
330
7A67
102
}
330
7A67
100
AcDbXrecord
280
     1
  1
PAREDES CORTE
  1
PAC*
  1
*
  1
*
 70
     0
  1
*
  1
*
  0
XRECORD
  5
7A91
102
{ACAD_REACTORS
330
7A67
102
}
330
7A67
100
AcDbXrecord
280
     1
  1
PAREDES VISTA
  1
PAV*
  1
*
  1
*
 70
     0
  1
*
  1
*
  0
XRECORD
  5
7A92
102
{ACAD_REACTORS
330
7A67
102
}
330
7A67
100
AcDbXrecord
280
     1
  1
PAVIMENTOS ACABAMENTO
  1
PV*
  1
*
  1
*
 70
     0
  1
*
  1
*
  0
XRECORD
  5
7A93
102
{ACAD_REACTORS
330
7A67
102
}
330
7A67
100
AcDbXrecord
280
     1
  1
POINT
  1
*POINT*
  1
*
  1
*
 70
     0
  1
*
  1
*
  0
XRECORD
  5
7A94
102
{ACAD_REACTORS
330
7A67
102
}
330
7A67
100
AcDbXrecord
280
     1
  1
Proposta
  1
Prop_*
  1
*
  1
*
 70
     0
  1
*
  1
*
  0
XRECORD
  5
7A95
102
{ACAD_REACTORS
330
7A67
102
}
330
7A67
100
AcDbXrecord
280
     1
  1
PUBLIC
  1
*P*
  1
*
  1
*
 70
     0
  1
*
  1
*
  0
XRECORD
  5
7A96
102
{ACAD_REACTORS
330
7A67
102
}
330
7A67
100
AcDbXrecord
280
     1
  1
REVESTIMENTOS ACABAMENTOS
  1
REV*
  1
*
  1
*
 70
     0
  1
*
  1
*
  0
XRECORD
  5
7A97
102
{ACAD_REACTORS
330
7A67
102
}
330
7A67
100
AcDbXrecord
280
     1
  1
S
  1
S
  1
*
  1
*
 70
     0
  1
*
  1
*
  0
XRECORD
  5
7A98
102
{ACAD_REACTORS
330
7A67
102
}
330
7A67
100
AcDbXrecord
280
     1
  1
text
  1
*text
  1
*
  1
*
 70
     0
  1
*
  1
*
  0
XRECORD
  5
7A99
102
{ACAD_REACTORS
330
7A67
102
}
330
7A67
100
AcDbXrecord
280
     1
  1
texto
  1
Texto*
  1
*
  1
*
 70
     0
  1
*
  1
*
  0
XRECORD
  5
7A9A
102
{ACAD_REACTORS
330
7A67
102
}
330
7A67
100
AcDbXrecord
280
     1
  1
TEXTOS
  1
T*
  1
*
  1
*
 70
     0
  1
*
  1
*
  0
XRECORD
  5
7A9B
102
{ACAD_REACTORS
330
7A67
102
}
330
7A67
100
AcDbXrecord
280
     1
  1
TEXTOS1
  1
*TEXTOS 1
  1
*
  1
*
 70
     1
  1
*
  1
*
  0
XRECORD
  5
7A9C
102
{ACAD_REACTORS
330
7A67
102
}
330
7A67
100
AcDbXrecord
280
     1
  1
TR
  1
*TR
  1
*
  1
*
 70
     0
  1
*
  1
*
  0
XRECORD
  5
7A9D
102
{ACAD_REACTORS
330
7A67
102
}
330
7A67
100
AcDbXrecord
280
     1
  1
Trama
  1
Trama_*
  1
*
  1
*
 70
     0
  1
*
  1
*
  0
XRECORD
  5
7A9E
102
{ACAD_REACTORS
330
7A67
102
}
330
7A67
100
AcDbXrecord
280
     1
  1
Traados
  1
Esp_Traados*
  1
*
  1
*
 70
     0
  1
*
  1
*
  0
XRECORD
  5
7A9F
102
{ACAD_REACTORS
330
7A67
102
}
330
7A67
100
AcDbXrecord
280
     1
  1
WSP
  1
S*
  1
*
  1
*
 70
     0
  1
*
  1
*
  0
XRECORD
  5
7AA0
102
{ACAD_REACTORS
330
7A67
102
}
330
7A67
100
AcDbXrecord
280
     1
  1
XE
  1
XE*
  1
*
  1
*
 70
     0
  1
*
  1
*
  0
XRECORD
  5
7AA1
102
{ACAD_REACTORS
330
7A67
102
}
330
7A67
100
AcDbXrecord
280
     1
  1
xref
  1
plan*
  1
*
  1
*
 70
     0
  1
*
  1
*
  0
XRECORD
  5
7AA2
102
{ACAD_REACTORS
330
7A67
102
}
330
7A67
100
AcDbXrecord
280
     1
  1
xrefreeze
  1
plan*
  1
*
  1
*
 70
     4
  1
*
  1
*
  0
ENDSEC
  0
EOF
