  0
SECTION
  2
HEADER
  9
$ACADVER
  1
AC1015
  9
$ACADMAINTVER
 70
    13
  9
$DWGCODEPAGE
  3
ANSI_1252
  9
$INSBASE
 10
0.0
 20
0.0
 30
0.0
  9
$EXTMIN
 10
-4054.9893137076
 20
-3.953173782225348
 30
-0.0015258207003583
  9
$EXTMAX
 10
870.1083977801026
 20
1545.75000500369
 30
0.0000000349246037
  9
$LIMMIN
 10
0.0
 20
0.0
  9
$LIMMAX
 10
420.0
 20
297.0
  9
$ORTHOMODE
 70
     0
  9
$REGENMODE
 70
     1
  9
$FILLMODE
 70
     1
  9
$QTEXTMODE
 70
     0
  9
$MIRRTEXT
 70
     1
  9
$LTSCALE
 40
1.0
  9
$ATTMODE
 70
     1
  9
$TEXTSIZE
 40
2.5
  9
$TRACEWID
 40
1.0
  9
$TEXTSTYLE
  7
Standard
  9
$CLAYER
  8
ceco.net 214
  9
$CELTYPE
  6
ByLayer
  9
$CECOLOR
 62
   256
  9
$CELTSCALE
 40
1.0
  9
$DISPSILH
 70
     0
  9
$DIMSCALE
 40
1.0
  9
$DIMASZ
 40
2.5
  9
$DIMEXO
 40
0.625
  9
$DIMDLI
 40
3.75
  9
$DIMRND
 40
0.0
  9
$DIMDLE
 40
0.0
  9
$DIMEXE
 40
1.25
  9
$DIMTP
 40
0.0
  9
$DIMTM
 40
0.0
  9
$DIMTXT
 40
2.5
  9
$DIMCEN
 40
2.5
  9
$DIMTSZ
 40
0.0
  9
$DIMTOL
 70
     0
  9
$DIMLIM
 70
     0
  9
$DIMTIH
 70
     0
  9
$DIMTOH
 70
     0
  9
$DIMSE1
 70
     0
  9
$DIMSE2
 70
     0
  9
$DIMTAD
 70
     1
  9
$DIMZIN
 70
     8
  9
$DIMBLK
  1

  9
$DIMASO
 70
     1
  9
$DIMSHO
 70
     1
  9
$DIMPOST
  1

  9
$DIMAPOST
  1

  9
$DIMALT
 70
     0
  9
$DIMALTD
 70
     3
  9
$DIMALTF
 40
0.03937007874016
  9
$DIMLFAC
 40
1.0
  9
$DIMTOFL
 70
     1
  9
$DIMTVP
 40
0.0
  9
$DIMTIX
 70
     0
  9
$DIMSOXD
 70
     0
  9
$DIMSAH
 70
     0
  9
$DIMBLK1
  1

  9
$DIMBLK2
  1

  9
$DIMSTYLE
  2
ISO-25
  9
$DIMCLRD
 70
     0
  9
$DIMCLRE
 70
     0
  9
$DIMCLRT
 70
     0
  9
$DIMTFAC
 40
1.0
  9
$DIMGAP
 40
0.625
  9
$DIMJUST
 70
     0
  9
$DIMSD1
 70
     0
  9
$DIMSD2
 70
     0
  9
$DIMTOLJ
 70
     0
  9
$DIMTZIN
 70
     8
  9
$DIMALTZ
 70
     0
  9
$DIMALTTZ
 70
     0
  9
$DIMUPT
 70
     0
  9
$DIMDEC
 70
     2
  9
$DIMTDEC
 70
     2
  9
$DIMALTU
 70
     2
  9
$DIMALTTD
 70
     3
  9
$DIMTXSTY
  7
Standard
  9
$DIMAUNIT
 70
     0
  9
$DIMADEC
 70
     0
  9
$DIMALTRND
 40
0.0
  9
$DIMAZIN
 70
     0
  9
$DIMDSEP
 70
    44
  9
$DIMATFIT
 70
     3
  9
$DIMFRAC
 70
     0
  9
$DIMLDRBLK
  1

  9
$DIMLUNIT
 70
     2
  9
$DIMLWD
 70
    -2
  9
$DIMLWE
 70
    -2
  9
$DIMTMOVE
 70
     0
  9
$LUNITS
 70
     2
  9
$LUPREC
 70
     2
  9
$SKETCHINC
 40
1.0
  9
$FILLETRAD
 40
10.0
  9
$AUNITS
 70
     0
  9
$AUPREC
 70
     0
  9
$MENU
  1
.
  9
$ELEVATION
 40
0.0
  9
$PELEVATION
 40
0.0
  9
$THICKNESS
 40
0.0
  9
$LIMCHECK
 70
     0
  9
$CHAMFERA
 40
10.0
  9
$CHAMFERB
 40
10.0
  9
$CHAMFERC
 40
20.0
  9
$CHAMFERD
 40
0.0
  9
$SKPOLY
 70
     0
  9
$TDCREATE
 40
2455079.811409143
  9
$TDUCREATE
 40
2455079.936409144
  9
$TDUPDATE
 40
2456925.923304861
  9
$TDUUPDATE
 40
2456926.048304861
  9
$TDINDWG
 40
0.0482542130
  9
$TDUSRTIMER
 40
0.0482542130
  9
$USRTIMER
 70
     1
  9
$ANGBASE
 50
0.0
  9
$ANGDIR
 70
     0
  9
$PDMODE
 70
     0
  9
$PDSIZE
 40
0.0
  9
$PLINEWID
 40
0.0
  9
$SPLFRAME
 70
     0
  9
$SPLINETYPE
 70
     6
  9
$SPLINESEGS
 70
     8
  9
$HANDSEED
  5
81C7
  9
$SURFTAB1
 70
     6
  9
$SURFTAB2
 70
     6
  9
$SURFTYPE
 70
     6
  9
$SURFU
 70
     6
  9
$SURFV
 70
     6
  9
$UCSBASE
  2

  9
$UCSNAME
  2

  9
$UCSORG
 10
0.0
 20
0.0
 30
0.0
  9
$UCSXDIR
 10
1.0
 20
0.0
 30
0.0
  9
$UCSYDIR
 10
0.0
 20
1.0
 30
0.0
  9
$UCSORTHOREF
  2

  9
$UCSORTHOVIEW
 70
     0
  9
$UCSORGTOP
 10
0.0
 20
0.0
 30
0.0
  9
$UCSORGBOTTOM
 10
0.0
 20
0.0
 30
0.0
  9
$UCSORGLEFT
 10
0.0
 20
0.0
 30
0.0
  9
$UCSORGRIGHT
 10
0.0
 20
0.0
 30
0.0
  9
$UCSORGFRONT
 10
0.0
 20
0.0
 30
0.0
  9
$UCSORGBACK
 10
0.0
 20
0.0
 30
0.0
  9
$PUCSBASE
  2

  9
$PUCSNAME
  2

  9
$PUCSORG
 10
0.0
 20
0.0
 30
0.0
  9
$PUCSXDIR
 10
1.0
 20
0.0
 30
0.0
  9
$PUCSYDIR
 10
0.0
 20
1.0
 30
0.0
  9
$PUCSORTHOREF
  2

  9
$PUCSORTHOVIEW
 70
     0
  9
$PUCSORGTOP
 10
0.0
 20
0.0
 30
0.0
  9
$PUCSORGBOTTOM
 10
0.0
 20
0.0
 30
0.0
  9
$PUCSORGLEFT
 10
0.0
 20
0.0
 30
0.0
  9
$PUCSORGRIGHT
 10
0.0
 20
0.0
 30
0.0
  9
$PUCSORGFRONT
 10
0.0
 20
0.0
 30
0.0
  9
$PUCSORGBACK
 10
0.0
 20
0.0
 30
0.0
  9
$USERI1
 70
     0
  9
$USERI2
 70
     0
  9
$USERI3
 70
     0
  9
$USERI4
 70
     0
  9
$USERI5
 70
     0
  9
$USERR1
 40
0.0
  9
$USERR2
 40
0.0
  9
$USERR3
 40
0.0
  9
$USERR4
 40
0.0
  9
$USERR5
 40
0.0
  9
$WORLDVIEW
 70
     1
  9
$SHADEDGE
 70
     3
  9
$SHADEDIF
 70
    70
  9
$TILEMODE
 70
     1
  9
$MAXACTVP
 70
    64
  9
$PINSBASE
 10
0.0
 20
0.0
 30
0.0
  9
$PLIMCHECK
 70
     0
  9
$PEXTMIN
 10
1.000000000000000E+20
 20
1.000000000000000E+20
 30
1.000000000000000E+20
  9
$PEXTMAX
 10
-1.000000000000000E+20
 20
-1.000000000000000E+20
 30
-1.000000000000000E+20
  9
$PLIMMIN
 10
0.0
 20
0.0
  9
$PLIMMAX
 10
420.0
 20
297.0
  9
$UNITMODE
 70
     0
  9
$VISRETAIN
 70
     1
  9
$PLINEGEN
 70
     0
  9
$PSLTSCALE
 70
     1
  9
$TREEDEPTH
 70
  3020
  9
$CMLSTYLE
  2
Standard
  9
$CMLJUST
 70
     0
  9
$CMLSCALE
 40
20.0
  9
$PROXYGRAPHICS
 70
     1
  9
$MEASUREMENT
 70
     1
  9
$CELWEIGHT
370
    -1
  9
$ENDCAPS
280
     0
  9
$JOINSTYLE
280
     0
  9
$LWDISPLAY
290
     0
  9
$INSUNITS
 70
     4
  9
$HYPERLINKBASE
  1

  9
$STYLESHEET
  1

  9
$XEDIT
290
     1
  9
$CEPSNTYPE
380
     0
  9
$PSTYLEMODE
290
     1
  9
$FINGERPRINTGUID
  2
{81085373-3A21-4932-80AA-8F6C3258C50C}
  9
$VERSIONGUID
  2
{FEE40304-F817-47E6-A2D0-226E75287C74}
  9
$EXTNAMES
290
     1
  9
$PSVPSCALE
 40
0.0
  9
$OLESTARTUP
290
     0
  0
ENDSEC
  0
SECTION
  2
CLASSES
  0
CLASS
  1
ACDBDICTIONARYWDFLT
  2
AcDbDictionaryWithDefault
  3
AutoCAD 2000
 90
        0
280
     0
281
     0
  0
CLASS
  1
ACDBPLACEHOLDER
  2
AcDbPlaceHolder
  3
AutoCAD 2000
 90
        0
280
     0
281
     0
  0
CLASS
  1
LAYOUT
  2
AcDbLayout
  3
AutoCAD 2000
 90
        0
280
     0
281
     0
  0
CLASS
  1
DICTIONARYVAR
  2
AcDbDictionaryVar
  3
AutoCAD 2000
 90
        0
280
     0
281
     0
  0
ENDSEC
  0
SECTION
  2
TABLES
  0
TABLE
  2
VPORT
  5
8
330
0
100
AcDbSymbolTable
 70
     3
  0
VPORT
  5
81C6
330
8
100
AcDbSymbolTableRecord
100
AcDbViewportTableRecord
  2
*Active
 70
     0
 10
0.0
 20
0.0
 11
1.0
 21
1.0
 12
-1592.440457963748
 22
770.8984156107326
 13
0.0
 23
0.0
 14
10.0
 24
10.0
 15
10.0
 25
10.0
 16
0.0
 26
0.0
 36
1.0
 17
0.0
 27
0.0
 37
0.0
 40
2261.546521020787
 41
2.184834123222748
 42
50.0
 43
0.0
 44
0.0
 50
0.0
 51
0.0
 71
     0
 72
   100
 73
     1
 74
     3
 75
     0
 76
     0
 77
     0
 78
     0
281
     0
 65
     1
110
0.0
120
0.0
130
0.0
111
1.0
121
0.0
131
0.0
112
0.0
122
1.0
132
0.0
 79
     0
146
0.0
  0
ENDTAB
  0
TABLE
  2
LTYPE
  5
5
330
0
100
AcDbSymbolTable
 70
     1
  0
LTYPE
  5
14
330
5
100
AcDbSymbolTableRecord
100
AcDbLinetypeTableRecord
  2
ByBlock
 70
     0
  3

 72
    65
 73
     0
 40
0.0
  0
LTYPE
  5
15
330
5
100
AcDbSymbolTableRecord
100
AcDbLinetypeTableRecord
  2
ByLayer
 70
     0
  3

 72
    65
 73
     0
 40
0.0
  0
LTYPE
  5
16
330
5
100
AcDbSymbolTableRecord
100
AcDbLinetypeTableRecord
  2
Continuous
 70
     0
  3
Solid line
 72
    65
 73
     0
 40
0.0
  0
ENDTAB
  0
TABLE
  2
LAYER
  5
2
102
{ACAD_XDICTIONARY
360
90B
102
}
330
0
100
AcDbSymbolTable
 70
     2
  0
LAYER
  5
10
330
2
100
AcDbSymbolTableRecord
100
AcDbLayerTableRecord
  2
0
 70
     0
 62
     7
  6
Continuous
370
    -3
390
F
  0
LAYER
  5
7AA3
102
{ACAD_XDICTIONARY
360
7AA4
102
}
330
2
100
AcDbSymbolTableRecord
100
AcDbLayerTableRecord
  2
ceco.net 214
 70
     0
 62
     7
  6
Continuous
370
    -3
390
F
1001
AcAecLayerStandard
1000

1000

  0
ENDTAB
  0
TABLE
  2
STYLE
  5
3
330
0
100
AcDbSymbolTable
 70
     1
  0
STYLE
  5
11
330
3
100
AcDbSymbolTableRecord
100
AcDbTextStyleTableRecord
  2
Standard
 70
     0
 40
0.0
 41
1.0
 50
0.0
 71
     0
 42
2.5
  3
txt
  4

  0
ENDTAB
  0
TABLE
  2
VIEW
  5
6
330
0
100
AcDbSymbolTable
 70
     0
  0
ENDTAB
  0
TABLE
  2
UCS
  5
7
330
0
100
AcDbSymbolTable
 70
     0
  0
ENDTAB
  0
TABLE
  2
APPID
  5
9
330
0
100
AcDbSymbolTable
 70
    24
  0
APPID
  5
12
330
9
100
AcDbSymbolTableRecord
100
AcDbRegAppTableRecord
  2
ACAD
 70
     0
  0
APPID
  5
2C
330
9
100
AcDbSymbolTableRecord
100
AcDbRegAppTableRecord
  2
ACAD_DSTYLE_DIMJOGGED_JOGANGLE_SYMBOL
 70
     0
  0
APPID
  5
11B
330
9
100
AcDbSymbolTableRecord
100
AcDbRegAppTableRecord
  2
ACAD_NAV_VCDISPLAY
 70
     0
  0
APPID
  5
11C
330
9
100
AcDbSymbolTableRecord
100
AcDbRegAppTableRecord
  2
ACAD_MLEADERVER
 70
     0
  0
APPID
  5
8F8
330
9
100
AcDbSymbolTableRecord
100
AcDbRegAppTableRecord
  2
RAK
 70
     0
  0
APPID
  5
8F9
330
9
100
AcDbSymbolTableRecord
100
AcDbRegAppTableRecord
  2
AcAecLayerStandard
 70
     0
  0
APPID
  5
8FA
330
9
100
AcDbSymbolTableRecord
100
AcDbRegAppTableRecord
  2
ACAD_PSEXT
 70
     0
  0
APPID
  5
8FB
330
9
100
AcDbSymbolTableRecord
100
AcDbRegAppTableRecord
  2
AcDbBlockRepETag
 70
     0
  0
APPID
  5
8FC
330
9
100
AcDbSymbolTableRecord
100
AcDbRegAppTableRecord
  2
AcadAnnoPO
 70
     0
  0
APPID
  5
8FD
330
9
100
AcDbSymbolTableRecord
100
AcDbRegAppTableRecord
  2
ACAUTHENVIRON
 70
     0
  0
APPID
  5
8FE
330
9
100
AcDbSymbolTableRecord
100
AcDbRegAppTableRecord
  2
AcDbDynamicBlockTrueName
 70
     0
  0
APPID
  5
8FF
330
9
100
AcDbSymbolTableRecord
100
AcDbRegAppTableRecord
  2
AcDbDynamicBlockGUID
 70
     0
  0
APPID
  5
900
330
9
100
AcDbSymbolTableRecord
100
AcDbRegAppTableRecord
  2
AcLayerTools
 70
     0
  0
APPID
  5
901
330
9
100
AcDbSymbolTableRecord
100
AcDbRegAppTableRecord
  2
ACAD_EXEMPT_FROM_CAD_STANDARDS
 70
     0
  0
APPID
  5
902
330
9
100
AcDbSymbolTableRecord
100
AcDbRegAppTableRecord
  2
AcadAnnotative
 70
     0
  0
APPID
  5
903
330
9
100
AcDbSymbolTableRecord
100
AcDbRegAppTableRecord
  2
ACAD_DSTYLE_DIMJAG
 70
     0
  0
APPID
  5
904
330
9
100
AcDbSymbolTableRecord
100
AcDbRegAppTableRecord
  2
ACAD_DSTYLE_DIMTALN
 70
     0
  0
APPID
  5
905
330
9
100
AcDbSymbolTableRecord
100
AcDbRegAppTableRecord
  2
ACAD_DSTYLE_DIMBREAK
 70
     0
  0
APPID
  5
906
330
9
100
AcDbSymbolTableRecord
100
AcDbRegAppTableRecord
  2
AcadAnnoAV
 70
     0
  0
APPID
  5
907
330
9
100
AcDbSymbolTableRecord
100
AcDbRegAppTableRecord
  2
AcCmTransparency
 70
     0
  0
APPID
  5
908
330
9
100
AcDbSymbolTableRecord
100
AcDbRegAppTableRecord
  2
GradientColor1ACI
 70
     0
  0
APPID
  5
909
330
9
100
AcDbSymbolTableRecord
100
AcDbRegAppTableRecord
  2
GradientColor2ACI
 70
     0
  0
APPID
  5
90A
330
9
100
AcDbSymbolTableRecord
100
AcDbRegAppTableRecord
  2
ADE
 70
     0
  0
APPID
  5
7AA6
330
9
100
AcDbSymbolTableRecord
100
AcDbRegAppTableRecord
  2
DCO15
 70
     0
  0
ENDTAB
  0
TABLE
  2
DIMSTYLE
  5
A
330
0
100
AcDbSymbolTable
 70
     2
100
AcDbDimStyleTable
 71
     0
  0
DIMSTYLE
105
27
330
A
100
AcDbSymbolTableRecord
100
AcDbDimStyleTableRecord
  2
ISO-25
 70
     0
 41
2.5
 42
0.625
 43
3.75
 44
1.25
 73
     0
 74
     0
 77
     1
 78
     8
140
2.5
141
2.5
143
0.03937007874016
147
0.625
171
     3
172
     1
271
     2
272
     2
274
     3
278
    44
283
     0
284
     8
340
11
  0
DIMSTYLE
105
2B
330
A
100
AcDbSymbolTableRecord
100
AcDbDimStyleTableRecord
  2
Standard
 70
     0
340
11
  0
ENDTAB
  0
TABLE
  2
BLOCK_RECORD
  5
1
330
0
100
AcDbSymbolTable
 70
     2
  0
BLOCK_RECORD
  5
1F
330
1
100
AcDbSymbolTableRecord
100
AcDbBlockTableRecord
  2
*Model_Space
340
22
  0
BLOCK_RECORD
  5
1B
330
1
100
AcDbSymbolTableRecord
100
AcDbBlockTableRecord
  2
*Paper_Space
340
1E
  0
BLOCK_RECORD
  5
23
330
1
100
AcDbSymbolTableRecord
100
AcDbBlockTableRecord
  2
*Paper_Space0
340
26
  0
ENDTAB
  0
ENDSEC
  0
SECTION
  2
BLOCKS
  0
BLOCK
  5
20
330
1F
100
AcDbEntity
  8
0
100
AcDbBlockBegin
  2
*Model_Space
 70
     0
 10
0.0
 20
0.0
 30
0.0
  3
*Model_Space
  1

  0
ENDBLK
  5
21
330
1F
100
AcDbEntity
  8
0
100
AcDbBlockEnd
  0
BLOCK
  5
1C
330
1B
100
AcDbEntity
 67
     1
  8
0
100
AcDbBlockBegin
  2
*Paper_Space
 70
     0
 10
0.0
 20
0.0
 30
0.0
  3
*Paper_Space
  1

  0
ENDBLK
  5
1D
330
1B
100
AcDbEntity
 67
     1
  8
0
100
AcDbBlockEnd
  0
BLOCK
  5
24
330
23
100
AcDbEntity
  8
0
100
AcDbBlockBegin
  2
*Paper_Space0
 70
     0
 10
0.0
 20
0.0
 30
0.0
  3
*Paper_Space0
  1

  0
ENDBLK
  5
25
330
23
100
AcDbEntity
  8
0
100
AcDbBlockEnd
  0
ENDSEC
  0
SECTION
  2
ENTITIES
  0
CIRCLE
  5
7E38
330
1F
100
AcDbEntity
  8
ceco.net 214
100
AcDbCircle
 10
0.0
 20
355.6466914892114
 30
0.0
 40
301.96994258248
  0
ARC
  5
7E39
330
1F
100
AcDbEntity
  8
ceco.net 214
100
AcDbCircle
 10
0.0
 20
355.6466914892114
 30
0.0
 40
274.0615351379665
100
AcDbArc
 50
272.174544491751
 51
278.8691474277574
  0
LINE
  5
7E3A
330
1F
100
AcDbEntity
  8
ceco.net 214
100
AcDbLine
 10
50.96755997758555
 20
115.019155285929
 30
0.0
 11
50.96755997758555
 21
95.04038974601991
 31
0.0
  0
LINE
  5
7E3B
330
1F
100
AcDbEntity
  8
ceco.net 214
100
AcDbLine
 10
0.0
 20
98.2763881906227
 30
0.0
 11
4.048850140996364
 21
86.17365692949039
 31
0.0
  0
LINE
  5
7E3C
330
1F
100
AcDbEntity
  8
ceco.net 214
100
AcDbLine
 10
0.0
 20
98.2763881906227
 30
0.0
 11
-4.048850140996364
 21
86.17365692949039
 31
0.0
  0
ARC
  5
7E3D
330
1F
100
AcDbEntity
  8
ceco.net 214
100
AcDbCircle
 10
10.1546516617127
 20
88.21629299357818
 30
0.0
 40
6.438413958474266
100
AcDbArc
 50
198.4971598226362
 51
272.174544491751
  0
ARC
  5
7E3E
330
1F
100
AcDbEntity
  8
ceco.net 214
100
AcDbCircle
 10
-10.15465166170906
 20
88.21629299357818
 30
0.0
 40
6.438413958474266
100
AcDbArc
 50
267.8254555082489
 51
341.5028401773575
  0
ARC
  5
7E3F
330
1F
100
AcDbEntity
  8
ceco.net 214
100
AcDbCircle
 10
40.66609764403438
 20
95.04038974601991
 30
0.0
 40
10.30146233355882
100
AcDbArc
 50
278.8691474277574
 51
0.0
  0
ARC
  5
7E40
330
1F
100
AcDbEntity
  8
ceco.net 214
100
AcDbCircle
 10
0.0
 20
355.6466914892114
 30
0.0
 40
274.0615351379665
100
AcDbArc
 50
261.1308525722425
 51
267.8254555082489
  0
LINE
  5
7E41
330
1F
100
AcDbEntity
  8
ceco.net 214
100
AcDbLine
 10
-50.96755997758191
 20
115.019155285929
 30
0.0
 11
-50.96755997758191
 21
95.04038974601991
 31
0.0
  0
ARC
  5
7E42
330
1F
100
AcDbEntity
  8
ceco.net 214
100
AcDbCircle
 10
-40.66609764402892
 20
95.04038974601991
 30
0.0
 40
10.30146233355882
100
AcDbArc
 50
180.0
 51
261.1308525722425
  0
LINE
  5
7E43
330
1F
100
AcDbEntity
  8
ceco.net 214
100
AcDbLine
 10
8.178773914396515
 20
252.6152753350738
 30
0.0
 11
8.178773914396515
 21
117.8594040265738
 31
0.0
  0
LINE
  5
7E44
330
1F
100
AcDbEntity
  8
ceco.net 214
100
AcDbLine
 10
-8.178773914396515
 20
252.6152753350738
 30
0.0
 11
-8.178773914389239
 21
117.8594040265738
 31
0.0
  0
ARC
  5
7E45
330
1F
100
AcDbEntity
  8
ceco.net 214
100
AcDbCircle
 10
0.0
 20
252.6152753350695
 30
0.0
 40
8.178773914393614
100
AcDbArc
 50
0.0
 51
180.0
  0
ARC
  5
7E46
330
1F
100
AcDbEntity
  8
ceco.net 214
100
AcDbCircle
 10
0.0
 20
117.8594040265738
 30
0.0
 40
8.178773914393614
100
AcDbArc
 50
180.0
 51
0.0
  0
ARC
  5
7E47
330
1F
100
AcDbEntity
  8
ceco.net 214
100
AcDbCircle
 10
2105.167182199071
 20
164.2987067385421
 30
0.0
 40
2072.904064500062
100
AcDbArc
 50
178.4000770292791
 51
180.9391162122751
  0
ARC
  5
7E48
330
1F
100
AcDbEntity
  8
ceco.net 214
100
AcDbCircle
 10
48.10964800124384
 20
130.3226761563816
 30
0.0
 40
15.5680895390838
100
AcDbArc
 50
179.9953425852474
 51
280.5780628975626
  0
ARC
  5
7E49
330
1F
100
AcDbEntity
  8
ceco.net 214
100
AcDbCircle
 10
0.0
 20
355.6466914892114
 30
0.0
 40
274.0615351379665
100
AcDbArc
 50
297.4550919769301
 51
304.1496949129206
  0
LINE
  5
7E4A
330
1F
100
AcDbEntity
  8
ceco.net 214
100
AcDbLine
 10
101.4732734919471
 20
131.5875963465264
 30
0.0
 11
113.3077767678951
 21
115.4911493873369
 31
0.0
  0
LINE
  5
7E4B
330
1F
100
AcDbEntity
  8
ceco.net 214
100
AcDbLine
 10
152.4543491656204
 20
148.289163435627
 30
0.0
 11
156.3613829141104
 21
136.139909189721
 31
0.0
  0
LINE
  5
7E4C
330
1F
100
AcDbEntity
  8
ceco.net 214
100
AcDbLine
 10
152.4543491656204
 20
148.289163435627
 30
0.0
 11
162.8855198944565
 21
140.9366149883617
 31
0.0
  0
ARC
  5
7E4D
330
1F
100
AcDbEntity
  8
ceco.net 214
100
AcDbCircle
 10
150.2321106490617
 20
134.1688191862823
 30
0.0
 40
6.438413958474266
100
AcDbArc
 50
304.1496949129206
 51
17.82707958205038
  0
ARC
  5
7E4E
330
1F
100
AcDbEntity
  8
ceco.net 214
100
AcDbCircle
 10
166.5948645474818
 20
146.1991178668097
 30
0.0
 40
6.438413958474266
100
AcDbArc
 50
234.8213992273366
 51
308.4987838964392
  0
ARC
  5
7E4F
330
1F
100
AcDbEntity
  8
ceco.net 214
100
AcDbCircle
 10
121.6074358095393
 20
121.5932626280128
 30
0.0
 40
10.30146233355882
100
AcDbArc
 50
216.3242394046854
 51
297.4550919769301
  0
ARC
  5
7E50
330
1F
100
AcDbEntity
  8
ceco.net 214
100
AcDbCircle
 10
0.0
 20
355.6466914892114
 30
0.0
 40
274.0615351379665
100
AcDbArc
 50
308.4987838964352
 51
315.1933868324544
  0
LINE
  5
7E51
330
1F
100
AcDbEntity
  8
ceco.net 214
100
AcDbLine
 10
183.6001320488485
 20
191.969280521856
 30
0.0
 11
195.4346353247965
 21
175.8728335626665
 31
0.0
  0
ARC
  5
7E52
330
1F
100
AcDbEntity
  8
ceco.net 214
100
AcDbCircle
 10
187.1349762831578
 20
169.7707203219863
 30
0.0
 40
10.30146233355882
100
AcDbArc
 50
315.1933868324499
 51
36.32423940468546
  0
LINE
  5
7E53
330
1F
100
AcDbEntity
  8
ceco.net 214
100
AcDbLine
 10
80.48526878328448
 20
232.369133286068
 30
0.0
 11
134.2648136389179
 21
159.2220335664169
 31
0.0
  0
LINE
  5
7E54
330
1F
100
AcDbEntity
  8
ceco.net 214
100
AcDbLine
 10
93.66418118818547
 20
242.0585934771703
 30
0.0
 11
147.4437260438244
 21
168.9114937575192
 31
0.0
  0
ARC
  5
7E55
330
1F
100
AcDbEntity
  8
ceco.net 214
100
AcDbCircle
 10
87.07472498572679
 20
237.2138633816128
 30
0.0
 40
8.178773914393614
100
AcDbArc
 50
36.32423940468546
 51
216.3242394046854
  0
ARC
  5
7E56
330
1F
100
AcDbEntity
  8
ceco.net 214
100
AcDbCircle
 10
140.854269841373
 20
164.0667636619617
 30
0.0
 40
8.178773914393614
100
AcDbArc
 50
216.3242394046854
 51
36.32423940468546
  0
ARC
  5
7E57
330
1F
100
AcDbEntity
  8
ceco.net 214
100
AcDbCircle
 10
-1582.740608921134
 20
-1045.522492138537
 30
0.0
 40
2072.904064500062
100
AcDbArc
 50
35.38512319240319
 51
37.92416237542518
  0
ARC
  5
7E58
330
1F
100
AcDbEntity
  8
ceco.net 214
100
AcDbCircle
 10
94.71072657363402
 20
145.6101984971426
 30
0.0
 40
15.5680895390838
100
AcDbArc
 50
295.746176507144
 51
36.32889681942438
  0
ARC
  5
7E59
330
1F
100
AcDbEntity
  8
ceco.net 214
100
AcDbCircle
 10
43.94365386448953
 20
221.692894343404
 30
0.0
 40
10.88309450757763
100
AcDbArc
 50
38.86213482517788
 51
177.4621045795437
  0
CIRCLE
  5
7E5A
330
1F
100
AcDbEntity
  8
ceco.net 214
100
AcDbCircle
 10
-0.0000000000000158
 20
355.6466914892199
 30
0.0
 40
42.99787544151987
  0
CIRCLE
  5
7E5B
330
1F
100
AcDbEntity
  8
ceco.net 214
100
AcDbCircle
 10
-0.0000000000000158
 20
355.6466914892199
 30
0.0
 40
39.69034659226095
  0
CIRCLE
  5
7E5C
330
1F
100
AcDbEntity
  8
ceco.net 214
100
AcDbCircle
 10
-0.0000000000000158
 20
355.6466914892199
 30
0.0
 40
24.80646662016345
  0
LINE
  5
7E5D
330
1F
100
AcDbEntity
  8
ceco.net 214
100
AcDbLine
 10
-6.941476210337002
 20
393.3517179634435
 30
0.0
 11
-7.397062589967406
 21
381.0543255414652
 31
0.0
  0
LINE
  5
7E5E
330
1F
100
AcDbEntity
  8
ceco.net 214
100
AcDbLine
 10
-7.397062589967406
 20
381.0543255414652
 30
0.0
 11
-3.393769269239799
 21
381.626292837648
 31
0.0
  0
LINE
  5
7E5F
330
1F
100
AcDbEntity
  8
ceco.net 214
100
AcDbLine
 10
-3.393769269239799
 20
381.626292837648
 30
0.0
 11
-3.208496200895767
 21
386.6276146258838
 31
0.0
  0
LINE
  5
7E60
330
1F
100
AcDbEntity
  8
ceco.net 214
100
AcDbLine
 10
-3.208496200895767
 20
386.6276146258838
 30
0.0
 11
-1.423988812452096
 21
381.5556807694987
 31
0.0
  0
LINE
  5
7E61
330
1F
100
AcDbEntity
  8
ceco.net 214
100
AcDbLine
 10
-1.423988812452096
 20
381.5556807694987
 30
0.0
 11
1.424094917019813
 21
381.5556807694987
 31
0.0
  0
LINE
  5
7E62
330
1F
100
AcDbEntity
  8
ceco.net 214
100
AcDbLine
 10
1.424094917019813
 20
381.5556807694987
 30
0.0
 11
3.208602305576262
 21
386.6276146258838
 31
0.0
  0
LINE
  5
7E63
330
1F
100
AcDbEntity
  8
ceco.net 214
100
AcDbLine
 10
3.208602305576262
 20
386.6276146258838
 30
0.0
 11
3.393970924744264
 21
381.626292837648
 31
0.0
  0
LINE
  5
7E64
330
1F
100
AcDbEntity
  8
ceco.net 214
100
AcDbLine
 10
3.393970924744264
 20
381.626292837648
 30
0.0
 11
7.397168694656995
 21
381.0543255414652
 31
0.0
  0
LINE
  5
7E65
330
1F
100
AcDbEntity
  8
ceco.net 214
100
AcDbLine
 10
7.397168694656995
 20
381.0543255414652
 30
0.0
 11
6.941582315012039
 21
393.3517179634435
 31
0.0
  0
LINE
  5
7E66
330
1F
100
AcDbEntity
  8
ceco.net 214
100
AcDbLine
 10
6.941582315012039
 20
393.3517179634476
 30
0.0
 11
2.870256799857072
 21
393.8040556170831
 31
0.0
  0
LINE
  5
7E67
330
1F
100
AcDbEntity
  8
ceco.net 214
100
AcDbLine
 10
2.870256799857072
 20
393.8040556170788
 30
0.0
 11
0.0000052769864693
 21
385.4144056773222
 31
0.0
  0
LINE
  5
7E68
330
1F
100
AcDbEntity
  8
ceco.net 214
100
AcDbLine
 10
0.0000052769864693
 20
385.4144056773222
 30
0.0
 11
-2.87024624610605
 21
393.8040556170788
 31
0.0
  0
LINE
  5
7E69
330
1F
100
AcDbEntity
  8
ceco.net 214
100
AcDbLine
 10
-2.87024624610605
 20
393.8040556170831
 30
0.0
 11
-6.941476210337002
 21
393.3517179634476
 31
0.0
  0
LINE
  5
7E6A
330
1F
100
AcDbEntity
  8
ceco.net 214
100
AcDbLine
 10
24.32533677013087
 20
385.5299266380908
 30
0.0
 11
16.94260152851346
 21
375.8321857731805
 31
0.0
  0
LINE
  5
7E6B
330
1F
100
AcDbEntity
  8
ceco.net 214
100
AcDbLine
 10
16.94260152851346
 20
375.8321857731805
 30
0.0
 11
19.64573464157727
 21
373.3211098372712
 31
0.0
  0
LINE
  5
7E6C
330
1F
100
AcDbEntity
  8
ceco.net 214
100
AcDbLine
 10
19.64573464157727
 20
373.3211098372712
 30
0.0
 11
25.33607349953852
 21
375.9318452939072
 31
0.0
  0
LINE
  5
7E6D
330
1F
100
AcDbEntity
  8
ceco.net 214
100
AcDbLine
 10
25.33607349953852
 20
375.9318452939072
 30
0.0
 11
21.54375642188823
 21
370.9503025281244
 31
0.0
  0
LINE
  5
7E6E
330
1F
100
AcDbEntity
  8
ceco.net 214
100
AcDbLine
 10
21.54375642188823
 20
370.9503025281244
 30
0.0
 11
23.40288901229904
 21
367.7633955383845
 31
0.0
  0
LINE
  5
7E6F
330
1F
100
AcDbEntity
  8
ceco.net 214
100
AcDbLine
 10
23.40288901229904
 20
367.7633955383845
 30
0.0
 11
34.480575031057
 21
372.8458399853091
 31
0.0
  0
LINE
  5
7E70
330
1F
100
AcDbEntity
  8
ceco.net 214
100
AcDbLine
 10
34.480575031057
 20
372.8458399853091
 30
0.0
 11
32.50095283809058
 21
376.2397100838458
 31
0.0
  0
LINE
  5
7E71
330
1F
100
AcDbEntity
  8
ceco.net 214
100
AcDbLine
 10
32.50095283809058
 20
376.2397100838458
 30
0.0
 11
28.24081887394639
 21
374.2852177597743
 31
0.0
  0
LINE
  5
7E72
330
1F
100
AcDbEntity
  8
ceco.net 214
100
AcDbLine
 10
28.24081887394639
 20
374.2852177597743
 30
0.0
 11
31.29624791445893
 21
378.2985439176229
 31
0.0
  0
LINE
  5
7E73
330
1F
100
AcDbEntity
  8
ceco.net 214
100
AcDbLine
 10
31.29624791445893
 20
378.2985439176229
 30
0.0
 11
28.94932831309778
 21
381.2296613235139
 31
0.0
  0
LINE
  5
7E74
330
1F
100
AcDbEntity
  8
ceco.net 214
100
AcDbLine
 10
28.94932831309778
 20
381.2296613235139
 30
0.0
 11
24.36489481575334
 21
379.1263007976418
 31
0.0
  0
LINE
  5
7E75
330
1F
100
AcDbEntity
  8
ceco.net 214
100
AcDbLine
 10
24.36489481575334
 20
379.1263007976418
 30
0.0
 11
27.20399676665873
 21
382.8557454286171
 31
0.0
  0
LINE
  5
7E76
330
1F
100
AcDbEntity
  8
ceco.net 214
100
AcDbLine
 10
27.20399676665873
 20
382.8557454286171
 30
0.0
 11
24.32533677013087
 21
385.5299266380908
 31
0.0
  0
LINE
  5
7E77
330
1F
100
AcDbEntity
  8
ceco.net 214
100
AcDbLine
 10
-7.866790493306341
 20
377.1456275460213
 30
0.0
 11
0.0000052769864693
 21
377.1456275460213
 31
0.0
  0
LINE
  5
7E78
330
1F
100
AcDbEntity
  8
ceco.net 214
100
AcDbLine
 10
-11.01566825017654
 20
375.7123650257768
 30
0.0
 11
0.0000052769864693
 21
375.7123650257768
 31
0.0
  0
LINE
  5
7E79
330
1F
100
AcDbEntity
  8
ceco.net 214
100
AcDbLine
 10
-13.28700714150365
 20
374.2791025055407
 30
0.0
 11
0.0000052769864693
 21
374.2791025055407
 31
0.0
  0
LINE
  5
7E7A
330
1F
100
AcDbEntity
  8
ceco.net 214
100
AcDbLine
 10
-15.09970202618934
 20
372.8458399853091
 30
0.0
 11
0.0000052769864693
 21
372.8458399853091
 31
0.0
  0
LINE
  5
7E7B
330
1F
100
AcDbEntity
  8
ceco.net 214
100
AcDbLine
 10
0.0000052769864693
 20
354.2134272240567
 30
0.0
 11
22.83818357939161
 21
354.2134272240567
 31
0.0
  0
LINE
  5
7E7C
330
1F
100
AcDbEntity
  8
ceco.net 214
100
AcDbLine
 10
0.0000052769864693
 20
352.7801647038249
 30
0.0
 11
22.701163682319
 21
352.7801647038249
 31
0.0
  0
LINE
  5
7E7D
330
1F
100
AcDbEntity
  8
ceco.net 214
100
AcDbLine
 10
0.0000052769864693
 20
351.3469021817608
 30
0.0
 11
22.47346604320772
 21
351.3469021817608
 31
0.0
  0
LINE
  5
7E7E
330
1F
100
AcDbEntity
  8
ceco.net 214
100
AcDbLine
 10
0.0000052769864693
 20
349.9136396615162
 30
0.0
 11
22.15203303538508
 21
349.9136396615162
 31
0.0
  0
LINE
  5
7E7F
330
1F
100
AcDbEntity
  8
ceco.net 214
100
AcDbLine
 10
0.0000052769864693
 20
348.4803771412718
 30
0.0
 11
21.73218266782531
 21
348.4803771412718
 31
0.0
  0
LINE
  5
7E80
330
1F
100
AcDbEntity
  8
ceco.net 214
100
AcDbLine
 10
0.0000052769864693
 20
347.04711462104
 30
0.0
 11
21.20751303463292
 21
347.04711462104
 31
0.0
  0
LINE
  5
7E81
330
1F
100
AcDbEntity
  8
ceco.net 214
100
AcDbLine
 10
0.0000052769864693
 20
345.613852102645
 30
0.0
 11
20.56932900969512
 21
345.613852102645
 31
0.0
  0
LINE
  5
7E82
330
1F
100
AcDbEntity
  8
ceco.net 214
100
AcDbLine
 10
0.0000052769864693
 20
344.1805895824005
 30
0.0
 11
19.80606894233095
 21
344.1805895824005
 31
0.0
  0
LINE
  5
7E83
330
1F
100
AcDbEntity
  8
ceco.net 214
100
AcDbLine
 10
0.0000052769864693
 20
342.7473270603362
 30
0.0
 11
18.90225359702343
 21
342.7473270603362
 31
0.0
  0
LINE
  5
7E84
330
1F
100
AcDbEntity
  8
ceco.net 214
100
AcDbLine
 10
0.0000052769864693
 20
341.3140645400918
 30
0.0
 11
17.83714844278982
 21
341.3140645400918
 31
0.0
  0
LINE
  5
7E85
330
1F
100
AcDbEntity
  8
ceco.net 214
100
AcDbLine
 10
0.0000052769864693
 20
339.8808020198514
 30
0.0
 11
16.58275708501058
 21
339.8808020198514
 31
0.0
  0
LINE
  5
7E86
330
1F
100
AcDbEntity
  8
ceco.net 214
100
AcDbLine
 10
0.0000052769864693
 20
338.4475395014566
 30
0.0
 11
15.09971257992945
 21
338.4475395014566
 31
0.0
  0
LINE
  5
7E87
330
1F
100
AcDbEntity
  8
ceco.net 214
100
AcDbLine
 10
0.0000052769864693
 20
337.0142769812205
 30
0.0
 11
13.28701769524739
 21
337.0142769812205
 31
0.0
  0
LINE
  5
7E88
330
1F
100
AcDbEntity
  8
ceco.net 214
100
AcDbLine
 10
0.0000052769864693
 20
335.581014460976
 30
0.0
 11
11.01567880414948
 21
335.581014460976
 31
0.0
  0
LINE
  5
7E89
330
1F
100
AcDbEntity
  8
ceco.net 214
100
AcDbLine
 10
0.0000052769864693
 20
334.1477519389119
 30
0.0
 11
7.866801047050087
 21
334.1477519389119
 31
0.0
  0
LINE
  5
7E8A
330
1F
100
AcDbEntity
  8
ceco.net 214
100
AcDbLine
 10
-22.34226419348853
 20
376.9131523647016
 30
0.0
 11
-24.90350431716253
 21
373.7141104216628
 31
0.0
  0
LINE
  5
7E8B
330
1F
100
AcDbEntity
  8
ceco.net 214
100
AcDbLine
 10
-24.90350431716253
 20
373.7141104216628
 30
0.0
 11
-23.39743206085951
 21
372.5080677847347
 31
0.0
  0
LINE
  5
7E8C
330
1F
100
AcDbEntity
  8
ceco.net 214
100
AcDbLine
 10
-23.39743206085951
 20
372.5080677847347
 30
0.0
 11
-20.83061369582539
 21
375.7141419381454
 31
0.0
  0
ARC
  5
7E8D
330
1F
100
AcDbEntity
  8
ceco.net 214
100
AcDbCircle
 10
-21.58369047669113
 20
376.3170628147547
 30
0.0
 40
0.9646959222588076
100
AcDbArc
 50
321.3188833333026
 51
141.8383638888178
  0
ARC
  5
7E8E
330
1F
100
AcDbEntity
  8
ceco.net 214
100
AcDbCircle
 10
-25.38827845643392
 20
378.8417656791452
 30
0.0
 40
0.9647602454639951
100
AcDbArc
 50
321.6974104241517
 51
142.4622715351272
  0
LINE
  5
7E8F
330
1F
100
AcDbEntity
  8
ceco.net 214
100
AcDbLine
 10
-24.63118443821441
 20
378.2437932895157
 30
0.0
 11
-26.94762332346728
 21
375.3507051172969
 31
0.0
  0
LINE
  5
7E90
330
1F
100
AcDbEntity
  8
ceco.net 214
100
AcDbLine
 10
-26.94762332346728
 20
375.3507051172969
 30
0.0
 11
-28.45350447813144
 21
376.5564610997107
 31
0.0
  0
LINE
  5
7E91
330
1F
100
AcDbEntity
  8
ceco.net 214
100
AcDbLine
 10
-28.45350447813144
 20
376.5564610997107
 30
0.0
 11
-26.15321368401238
 21
379.4295791482892
 31
0.0
  0
ARC
  5
7E92
330
1F
100
AcDbEntity
  8
ceco.net 214
100
AcDbCircle
 10
-24.68769606426759
 20
380.7089850028308
 30
0.0
 40
3.238590713998124
100
AcDbArc
 50
3.541126482842923
 51
141.5976598161211
  0
LINE
  5
7E93
330
1F
100
AcDbEntity
  8
ceco.net 214
100
AcDbLine
 10
-27.22567625244666
 20
382.7207320980641
 30
0.0
 11
-33.24518773557066
 21
375.202314671193
 31
0.0
  0
LINE
  5
7E94
330
1F
100
AcDbEntity
  8
ceco.net 214
100
AcDbLine
 10
-33.24518773557066
 20
375.202314671193
 30
0.0
 11
-23.67042079552085
 21
367.5364623059304
 31
0.0
  0
LINE
  5
7E95
330
1F
100
AcDbEntity
  8
ceco.net 214
100
AcDbLine
 10
-23.67042079552085
 20
367.5364623059304
 30
0.0
 11
-17.38276978976138
 21
375.3899925976553
 31
0.0
  0
ARC
  5
7E96
330
1F
100
AcDbEntity
  8
ceco.net 214
100
AcDbCircle
 10
-20.15299491137195
 20
377.6079071097437
 30
0.0
 40
3.54870286296256
100
AcDbArc
 50
321.3183250000844
 51
111.5293277778359
  0
LINE
  5
7E97
330
1F
100
AcDbEntity
  8
ceco.net 214
100
AcDbLine
 10
-16.58274653137779
 20
371.4125774669057
 30
0.0
 11
0.0000052769864693
 21
371.4125774669057
 31
0.0
  0
LINE
  5
7E98
330
1F
100
AcDbEntity
  8
ceco.net 214
100
AcDbLine
 10
-17.83713788916249
 20
369.9793149466696
 30
0.0
 11
0.0000052769864693
 21
369.9793149466696
 31
0.0
  0
LINE
  5
7E99
330
1F
100
AcDbEntity
  8
ceco.net 214
100
AcDbLine
 10
-18.90224304328514
 20
368.5460524245969
 30
0.0
 11
0.0000052769864693
 21
368.5460524245969
 31
0.0
  0
LINE
  5
7E9A
330
1F
100
AcDbEntity
  8
ceco.net 214
100
AcDbLine
 10
-19.80605838835982
 20
367.1127899043523
 30
0.0
 11
0.0000052769864693
 21
367.1127899043523
 31
0.0
  0
LINE
  5
7E9B
330
1F
100
AcDbEntity
  8
ceco.net 214
100
AcDbLine
 10
-20.56931845583314
 20
365.6795273841206
 30
0.0
 11
0.0000052769864693
 21
365.6795273841206
 31
0.0
  0
LINE
  5
7E9C
330
1F
100
AcDbEntity
  8
ceco.net 214
100
AcDbLine
 10
-21.20750248066362
 20
364.2462648638848
 30
0.0
 11
0.0000052769864693
 21
364.2462648638848
 31
0.0
  0
LINE
  5
7E9D
330
1F
100
AcDbEntity
  8
ceco.net 214
100
AcDbLine
 10
-21.73217211386328
 20
362.8130023454811
 30
0.0
 11
0.0000052769864693
 21
362.8130023454811
 31
0.0
  0
LINE
  5
7E9E
330
1F
100
AcDbEntity
  8
ceco.net 214
100
AcDbLine
 10
-22.15202248153038
 20
361.3797398252451
 30
0.0
 11
0.0000052769864693
 21
361.3797398252451
 31
0.0
  0
LINE
  5
7E9F
330
1F
100
AcDbEntity
  8
ceco.net 214
100
AcDbLine
 10
-22.47345548946397
 20
359.9464773031724
 30
0.0
 11
0.0000052769864693
 21
359.9464773031724
 31
0.0
  0
LINE
  5
7EA0
330
1F
100
AcDbEntity
  8
ceco.net 214
100
AcDbLine
 10
-22.70115312846066
 20
358.5132147829277
 30
0.0
 11
0.0000052769864693
 21
358.5132147829277
 31
0.0
  0
LINE
  5
7EA1
330
1F
100
AcDbEntity
  8
ceco.net 214
100
AcDbLine
 10
-22.83817302540957
 20
357.0799522626961
 30
0.0
 11
0.0000052769864693
 21
357.0799522626961
 31
0.0
  0
LINE
  5
7EA2
330
1F
100
AcDbEntity
  8
ceco.net 214
100
AcDbLine
 10
-22.88310257771446
 20
355.6466914892199
 30
0.0
 11
22.88310257770534
 21
355.6466914892199
 31
0.0
  0
LINE
  5
7EA3
330
1F
100
AcDbEntity
  8
ceco.net 214
100
AcDbLine
 10
-0.0000000000000158
 20
378.5297940662398
 30
0.0
 11
-0.0000000000000158
 21
332.7635889121957
 31
0.0
  0
CIRCLE
  5
7EA4
330
1F
100
AcDbEntity
  8
ceco.net 214
100
AcDbCircle
 10
-0.0000000000000158
 20
355.6466914892199
 30
0.0
 40
22.88310257774226
  0
ARC
  5
7EA5
330
1F
100
AcDbEntity
  8
ceco.net 214
100
AcDbCircle
 10
-445.1906175127241
 20
-1710.787007024938
 30
0.0
 40
2072.904064500062
100
AcDbArc
 50
71.70936259714159
 51
74.24840178010737
  0
ARC
  5
7EA6
330
1F
100
AcDbEntity
  8
ceco.net 214
100
AcDbCircle
 10
200.7222990395548
 20
242.5272467204956
 30
0.0
 40
15.5680895390838
100
AcDbArc
 50
332.0704159118649
 51
72.65313622414919
  0
ARC
  5
7EA7
330
1F
100
AcDbEntity
  8
ceco.net 214
100
AcDbCircle
 10
1809.432127759191
 20
1448.486245727975
 30
0.0
 40
2072.904064500062
100
AcDbArc
 50
214.7243164339649
 51
217.263355616981
  0
ARC
  5
7EA8
330
1F
100
AcDbEntity
  8
ceco.net 214
100
AcDbCircle
 10
172.2324729228348
 20
202.6060910349639
 30
0.0
 40
15.5680895390838
100
AcDbArc
 50
216.3195819899782
 51
316.9023023022479
  0
ARC
  5
7EA9
330
1F
100
AcDbEntity
  8
ceco.net 214
100
AcDbCircle
 10
114.7525026103685
 20
273.7532996349434
 30
0.0
 40
10.88309450757763
100
AcDbArc
 50
75.18637422981661
 51
213.7863439841847
  0
ARC
  5
7EAA
330
1F
100
AcDbEntity
  8
ceco.net 214
100
AcDbCircle
 10
0.0
 20
355.6466914892114
 30
0.0
 40
245.9660613770351
100
AcDbArc
 50
281.9591230411349
 51
294.365116363582
  0
ARC
  5
7EAB
330
1F
100
AcDbEntity
  8
ceco.net 214
100
AcDbCircle
 10
0.0
 20
355.6466914892114
 30
0.0
 40
245.9660613770351
100
AcDbArc
 50
209.3106442318817
 51
221.7166375540999
  0
ARC
  5
7EAC
330
1F
100
AcDbEntity
  8
ceco.net 214
100
AcDbCircle
 10
-0.0000000000291038
 20
355.6466914891857
 30
0.0
 40
274.0615351379665
100
AcDbArc
 50
333.779331381636
 51
340.4739343176236
  0
LINE
  5
7EAD
330
1F
100
AcDbEntity
  8
ceco.net 214
100
AcDbLine
 10
214.4770782484902
 20
235.23537036319
 30
0.0
 11
233.5466703000347
 21
229.2770374179518
 31
0.0
  0
LINE
  5
7EAE
330
1F
100
AcDbEntity
  8
ceco.net 214
100
AcDbLine
 10
245.6581554191525
 20
278.8902995986585
 30
0.0
 11
256.0026259151436
 21
271.4162630988086
 31
0.0
  0
LINE
  5
7EAF
330
1F
100
AcDbEntity
  8
ceco.net 214
100
AcDbLine
 10
245.6581554191525
 20
278.8902995986585
 30
0.0
 11
258.4176296987625
 21
279.1454614131337
 31
0.0
  0
ARC
  5
7EB0
330
1F
100
AcDbEntity
  8
ceco.net 214
100
AcDbCircle
 10
252.2319908046083
 20
266.1975002986894
 30
0.0
 40
6.438413958474266
100
AcDbArc
 50
340.4739343176174
 51
54.15131898675385
  0
ARC
  5
7EB1
330
1F
100
AcDbEntity
  8
ceco.net 214
100
AcDbCircle
 10
258.288901119964
 20
285.5825883540574
 30
0.0
 40
6.438413958474266
100
AcDbArc
 50
271.1456386320097
 51
344.823023301192
  0
ARC
  5
7EB2
330
1F
100
AcDbEntity
  8
ceco.net 214
100
AcDbCircle
 10
236.6189092871518
 20
239.1097112056628
 30
0.0
 40
10.30146233355882
100
AcDbArc
 50
252.6484788093554
 51
333.7793313816419
  0
ARC
  5
7EB3
330
1F
100
AcDbEntity
  8
ceco.net 214
100
AcDbCircle
 10
-0.0000000000291038
 20
355.6466914891857
 30
0.0
 40
274.0615351379665
100
AcDbArc
 50
344.8230233011857
 51
351.5176262371659
  0
LINE
  5
7EB4
330
1F
100
AcDbEntity
  8
ceco.net 214
100
AcDbLine
 10
244.8775242766823
 20
332.5317298097846
 30
0.0
 11
263.9471163282305
 21
326.5733968645463
 31
0.0
  0
ARC
  5
7EB5
330
1F
100
AcDbEntity
  8
ceco.net 214
100
AcDbCircle
 10
260.8748773411098
 20
316.7407230768267
 30
0.0
 40
10.30146233355882
100
AcDbArc
 50
351.5176262371531
 51
72.64847880935544
  0
LINE
  5
7EB6
330
1F
100
AcDbEntity
  8
ceco.net 214
100
AcDbLine
 10
95.90358386550906
 20
317.1127109107927
 30
0.0
 11
224.5271210540431
 21
276.9240242785776
 31
0.0
  0
LINE
  5
7EB7
330
1F
100
AcDbEntity
  8
ceco.net 214
100
AcDbLine
 10
100.781949144728
 20
332.7258759702433
 30
0.0
 11
229.4054863332603
 21
292.5371893380238
 31
0.0
  0
ARC
  5
7EB8
330
1F
100
AcDbEntity
  8
ceco.net 214
100
AcDbCircle
 10
98.34276650511856
 20
324.9192934405138
 30
0.0
 40
8.178773914393614
100
AcDbArc
 50
72.64847880935544
 51
252.6484788093554
  0
ARC
  5
7EB9
330
1F
100
AcDbEntity
  8
ceco.net 214
100
AcDbCircle
 10
226.9663036936526
 20
284.7306068082986
 30
0.0
 40
8.178773914393614
100
AcDbArc
 50
252.6484788093554
 51
72.64847880935544
  0
ARC
  5
7EBA
330
1F
100
AcDbEntity
  8
ceco.net 214
100
AcDbCircle
 10
-2105.167182199062
 20
164.2987067385421
 30
0.0
 40
2072.904064500062
100
AcDbArc
 50
359.0608837877248
 51
1.599922970720856
  0
ARC
  5
7EBB
330
1F
100
AcDbEntity
  8
ceco.net 214
100
AcDbCircle
 10
-48.1096480012402
 20
130.3226761563816
 30
0.0
 40
15.5680895390838
100
AcDbArc
 50
259.4219371024373
 51
0.0046574147525788
  0
ARC
  5
7EBC
330
1F
100
AcDbEntity
  8
ceco.net 214
100
AcDbCircle
 10
0.0
 20
355.6466914892114
 30
0.0
 40
274.0615351379665
100
AcDbArc
 50
235.8503050870793
 51
242.5449080230698
  0
LINE
  5
7EBD
330
1F
100
AcDbEntity
  8
ceco.net 214
100
AcDbLine
 10
-101.4732734919471
 20
131.5875963465264
 30
0.0
 11
-113.3077767678951
 21
115.4911493873369
 31
0.0
  0
LINE
  5
7EBE
330
1F
100
AcDbEntity
  8
ceco.net 214
100
AcDbLine
 10
-152.4543491656131
 20
148.289163435627
 30
0.0
 11
-156.3613829141067
 21
136.139909189721
 31
0.0
  0
LINE
  5
7EBF
330
1F
100
AcDbEntity
  8
ceco.net 214
100
AcDbLine
 10
-152.4543491656131
 20
148.289163435627
 30
0.0
 11
-162.8855198944493
 21
140.9366149883617
 31
0.0
  0
ARC
  5
7EC0
330
1F
100
AcDbEntity
  8
ceco.net 214
100
AcDbCircle
 10
-150.232110649058
 20
134.1688191862823
 30
0.0
 40
6.438413958474266
100
AcDbArc
 50
162.1729204179496
 51
235.8503050870793
  0
ARC
  5
7EC1
330
1F
100
AcDbEntity
  8
ceco.net 214
100
AcDbCircle
 10
-166.5948645474727
 20
146.1991178668097
 30
0.0
 40
6.438413958474266
100
AcDbArc
 50
231.5012161035607
 51
305.1786007726632
  0
ARC
  5
7EC2
330
1F
100
AcDbEntity
  8
ceco.net 214
100
AcDbCircle
 10
-121.6074358095393
 20
121.5932626280128
 30
0.0
 40
10.30146233355882
100
AcDbArc
 50
242.5449080230698
 51
323.6757605953145
  0
ARC
  5
7EC3
330
1F
100
AcDbEntity
  8
ceco.net 214
100
AcDbCircle
 10
0.0
 20
355.6466914892114
 30
0.0
 40
274.0615351379665
100
AcDbArc
 50
224.8066131675455
 51
231.5012161035647
  0
LINE
  5
7EC4
330
1F
100
AcDbEntity
  8
ceco.net 214
100
AcDbLine
 10
-183.6001320488485
 20
191.969280521856
 30
0.0
 11
-195.4346353247929
 21
175.8728335626665
 31
0.0
  0
ARC
  5
7EC5
330
1F
100
AcDbEntity
  8
ceco.net 214
100
AcDbCircle
 10
-187.1349762831523
 20
169.7707203219863
 30
0.0
 40
10.30146233355882
100
AcDbArc
 50
143.6757605953145
 51
224.8066131675501
  0
LINE
  5
7EC6
330
1F
100
AcDbEntity
  8
ceco.net 214
100
AcDbLine
 10
-80.48526878327539
 20
232.369133286068
 30
0.0
 11
-134.2648136389107
 21
159.2220335664169
 31
0.0
  0
LINE
  5
7EC7
330
1F
100
AcDbEntity
  8
ceco.net 214
100
AcDbLine
 10
-93.66418118818183
 20
242.0585934771703
 30
0.0
 11
-147.4437260438207
 21
168.9114937575192
 31
0.0
  0
ARC
  5
7EC8
330
1F
100
AcDbEntity
  8
ceco.net 214
100
AcDbCircle
 10
-87.07472498572133
 20
237.2138633816128
 30
0.0
 40
8.178773914393614
100
AcDbArc
 50
323.6757605953145
 51
143.6757605953145
  0
ARC
  5
7EC9
330
1F
100
AcDbEntity
  8
ceco.net 214
100
AcDbCircle
 10
-140.854269841373
 20
164.0667636619617
 30
0.0
 40
8.178773914393614
100
AcDbArc
 50
143.6757605953145
 51
323.6757605953145
  0
ARC
  5
7ECA
330
1F
100
AcDbEntity
  8
ceco.net 214
100
AcDbCircle
 10
1582.740608921136
 20
-1045.522492138537
 30
0.0
 40
2072.904064500062
100
AcDbArc
 50
142.0758376245748
 51
144.6148768075967
  0
ARC
  5
7ECB
330
1F
100
AcDbEntity
  8
ceco.net 214
100
AcDbCircle
 10
-94.71072657362674
 20
145.6101984971426
 30
0.0
 40
15.5680895390838
100
AcDbArc
 50
143.6711031805756
 51
244.2538234928559
  0
ARC
  5
7ECC
330
1F
100
AcDbEntity
  8
ceco.net 214
100
AcDbCircle
 10
-43.94365386448408
 20
221.692894343404
 30
0.0
 40
10.88309450757763
100
AcDbArc
 50
2.537895420456204
 51
141.1378651748221
  0
ARC
  5
7ECD
330
1F
100
AcDbEntity
  8
ceco.net 214
100
AcDbCircle
 10
445.190617512726
 20
-1710.787007024938
 30
0.0
 40
2072.904064500062
100
AcDbArc
 50
105.7515982198926
 51
108.2906374028584
  0
ARC
  5
7ECE
330
1F
100
AcDbEntity
  8
ceco.net 214
100
AcDbCircle
 10
-200.7222990395494
 20
242.5272467204956
 30
0.0
 40
15.5680895390838
100
AcDbArc
 50
107.3468637758507
 51
207.929584088135
  0
ARC
  5
7ECF
330
1F
100
AcDbEntity
  8
ceco.net 214
100
AcDbCircle
 10
-1809.432127759186
 20
1448.486245727975
 30
0.0
 40
2072.904064500062
100
AcDbArc
 50
322.736644383019
 51
325.275683566035
  0
ARC
  5
7ED0
330
1F
100
AcDbEntity
  8
ceco.net 214
100
AcDbCircle
 10
-172.2324729228312
 20
202.6060910349639
 30
0.0
 40
15.5680895390838
100
AcDbArc
 50
223.0976976977521
 51
323.6804180100218
  0
ARC
  5
7ED1
330
1F
100
AcDbEntity
  8
ceco.net 214
100
AcDbCircle
 10
-114.7525026103612
 20
273.7532996349434
 30
0.0
 40
10.88309450757763
100
AcDbArc
 50
326.2136560158152
 51
104.8136257701833
  0
ARC
  5
7ED2
330
1F
100
AcDbEntity
  8
ceco.net 214
100
AcDbCircle
 10
0.0
 20
355.6466914892114
 30
0.0
 40
245.9660613770351
100
AcDbArc
 50
245.634883636418
 51
258.0408769588649
  0
ARC
  5
7ED3
330
1F
100
AcDbEntity
  8
ceco.net 214
100
AcDbCircle
 10
0.0000000000363798
 20
355.6466914891857
 30
0.0
 40
274.0615351379665
100
AcDbArc
 50
199.5260656823763
 51
206.2206686183639
  0
LINE
  5
7ED4
330
1F
100
AcDbEntity
  8
ceco.net 214
100
AcDbLine
 10
-214.4770782484883
 20
235.23537036319
 30
0.0
 11
-233.5466703000311
 21
229.2770374179518
 31
0.0
  0
LINE
  5
7ED5
330
1F
100
AcDbEntity
  8
ceco.net 214
100
AcDbLine
 10
-245.6581554191507
 20
278.8902995986585
 30
0.0
 11
-256.0026259151418
 21
271.4162630988086
 31
0.0
  0
LINE
  5
7ED6
330
1F
100
AcDbEntity
  8
ceco.net 214
100
AcDbLine
 10
-245.6581554191507
 20
278.8902995986585
 30
0.0
 11
-258.4176296987607
 21
279.1454614131337
 31
0.0
  0
ARC
  5
7ED7
330
1F
100
AcDbEntity
  8
ceco.net 214
100
AcDbCircle
 10
-252.2319908045992
 20
266.1975002986894
 30
0.0
 40
6.438413958474266
100
AcDbArc
 50
125.8486810132461
 51
199.5260656823824
  0
ARC
  5
7ED8
330
1F
100
AcDbEntity
  8
ceco.net 214
100
AcDbCircle
 10
-258.2889011199568
 20
285.5825883540574
 30
0.0
 40
6.438413958474266
100
AcDbArc
 50
195.1769766988079
 51
268.8543613679903
  0
ARC
  5
7ED9
330
1F
100
AcDbEntity
  8
ceco.net 214
100
AcDbCircle
 10
-236.6189092871481
 20
239.1097112056628
 30
0.0
 40
10.30146233355882
100
AcDbArc
 50
206.220668618358
 51
287.3515211906445
  0
ARC
  5
7EDA
330
1F
100
AcDbEntity
  8
ceco.net 214
100
AcDbCircle
 10
0.0000000000363798
 20
355.6466914891857
 30
0.0
 40
274.0615351379665
100
AcDbArc
 50
188.482373762834
 51
195.1769766988142
  0
LINE
  5
7EDB
330
1F
100
AcDbEntity
  8
ceco.net 214
100
AcDbLine
 10
-244.8775242766805
 20
332.5317298097846
 30
0.0
 11
-263.9471163282214
 21
326.5733968645463
 31
0.0
  0
ARC
  5
7EDC
330
1F
100
AcDbEntity
  8
ceco.net 214
100
AcDbCircle
 10
-260.8748773411061
 20
316.7407230768267
 30
0.0
 40
10.30146233355882
100
AcDbArc
 50
107.3515211906445
 51
188.4823737628469
  0
LINE
  5
7EDD
330
1F
100
AcDbEntity
  8
ceco.net 214
100
AcDbLine
 10
-95.90358386550361
 20
317.1127109107927
 30
0.0
 11
-224.5271210540431
 21
276.9240242785776
 31
0.0
  0
LINE
  5
7EDE
330
1F
100
AcDbEntity
  8
ceco.net 214
100
AcDbLine
 10
-100.7819491447226
 20
332.7258759702433
 30
0.0
 11
-229.4054863332585
 21
292.5371893380238
 31
0.0
  0
ARC
  5
7EDF
330
1F
100
AcDbEntity
  8
ceco.net 214
100
AcDbCircle
 10
-98.34276650511675
 20
324.9192934405138
 30
0.0
 40
8.178773914393614
100
AcDbArc
 50
287.3515211906445
 51
107.3515211906445
  0
ARC
  5
7EE0
330
1F
100
AcDbEntity
  8
ceco.net 214
100
AcDbCircle
 10
-226.9663036936472
 20
284.7306068082986
 30
0.0
 40
8.178773914393614
100
AcDbArc
 50
107.3515211906445
 51
287.3515211906445
  0
ARC
  5
7EE1
330
1F
100
AcDbEntity
  8
ceco.net 214
100
AcDbCircle
 10
810.4712452662679
 20
2307.9477125596
 30
0.0
 40
2072.904064500062
100
AcDbArc
 50
251.0485558386261
 51
253.5875950217008
  0
ARC
  5
7EE2
330
1F
100
AcDbEntity
  8
ceco.net 214
100
AcDbCircle
 10
229.4180960943886
 20
334.3678921592212
 30
0.0
 40
15.5680895390838
100
AcDbArc
 50
252.6438213946263
 51
353.2265417069258
  0
ARC
  5
7EE3
330
1F
100
AcDbEntity
  8
ceco.net 214
100
AcDbCircle
 10
140.9634234034419
 20
357.6411205091746
 30
0.0
 40
10.88309450757763
100
AcDbArc
 50
206.6617626702496
 51
250.1105833889389
  0
ARC
  5
7EE4
330
1F
100
AcDbEntity
  8
ceco.net 214
100
AcDbCircle
 10
0.0
 20
355.6466914892114
 30
0.0
 40
245.9660613770351
100
AcDbArc
 50
318.2833624459
 51
330.6893557681182
  0
ARC
  5
7EE5
330
1F
100
AcDbEntity
  8
ceco.net 214
100
AcDbCircle
 10
-810.4712452662662
 20
2307.9477125596
 30
0.0
 40
2072.904064500062
100
AcDbArc
 50
286.4124049782992
 51
288.9514441613737
  0
ARC
  5
7EE6
330
1F
100
AcDbEntity
  8
ceco.net 214
100
AcDbCircle
 10
-229.4180960943813
 20
334.3678921592212
 30
0.0
 40
15.5680895390838
100
AcDbArc
 50
186.7734582930742
 51
287.3561786053736
  0
ARC
  5
7EE7
330
1F
100
AcDbEntity
  8
ceco.net 214
100
AcDbCircle
 10
-140.9634234034383
 20
357.6411205091746
 30
0.0
 40
10.88309450757763
100
AcDbArc
 50
289.889416611061
 51
333.3382373297503
  0
ARC
  5
7EE8
330
1F
100
AcDbEntity
  8
ceco.net 214
100
AcDbCircle
 10
0.0
 20
355.6466914892114
 30
0.0
 40
245.9660613770351
100
AcDbArc
 50
180.0
 51
185.3923981491675
  0
ARC
  5
7EE9
330
1F
100
AcDbEntity
  8
ceco.net 214
100
AcDbCircle
 10
0.0
 20
355.6466914892114
 30
0.0
 40
245.9660613770351
100
AcDbArc
 50
354.6076018508324
 51
0.0
  0
ARC
  5
7EEA
330
1F
100
AcDbEntity
  8
ceco.net 214
100
AcDbCircle
 10
0.0
 20
355.6466914892114
 30
0.0
 40
274.0615351379665
100
AcDbArc
 50
81.13085257224261
 51
87.82545550824892
  0
LINE
  5
7EEB
330
1F
100
AcDbEntity
  8
ceco.net 214
100
AcDbLine
 10
50.96755997758555
 20
596.2742276925022
 30
0.0
 11
50.96755997758555
 21
616.2529932324028
 31
0.0
  0
LINE
  5
7EEC
330
1F
100
AcDbEntity
  8
ceco.net 214
100
AcDbLine
 10
0.0
 20
613.0169947878
 30
0.0
 11
4.048850140996364
 21
625.1197260489409
 31
0.0
  0
LINE
  5
7EED
330
1F
100
AcDbEntity
  8
ceco.net 214
100
AcDbLine
 10
0.0
 20
613.0169947878
 30
0.0
 11
-4.048850140996364
 21
625.1197260489409
 31
0.0
  0
ARC
  5
7EEE
330
1F
100
AcDbEntity
  8
ceco.net 214
100
AcDbCircle
 10
10.1546516617127
 20
623.0770899848446
 30
0.0
 40
6.438413958474266
100
AcDbArc
 50
87.82545550824892
 51
161.5028401773637
  0
ARC
  5
7EEF
330
1F
100
AcDbEntity
  8
ceco.net 214
100
AcDbCircle
 10
-10.15465166170906
 20
623.0770899848446
 30
0.0
 40
6.438413958474266
100
AcDbArc
 50
18.49715982264241
 51
92.17454449175106
  0
ARC
  5
7EF0
330
1F
100
AcDbEntity
  8
ceco.net 214
100
AcDbCircle
 10
40.66609764403438
 20
616.2529932324028
 30
0.0
 40
10.30146233355882
100
AcDbArc
 50
0.0
 51
81.13085257224261
  0
ARC
  5
7EF1
330
1F
100
AcDbEntity
  8
ceco.net 214
100
AcDbCircle
 10
0.0
 20
355.6466914892114
 30
0.0
 40
274.0615351379665
100
AcDbArc
 50
92.17454449175106
 51
98.86914742775736
  0
LINE
  5
7EF2
330
1F
100
AcDbEntity
  8
ceco.net 214
100
AcDbLine
 10
-50.96755997758191
 20
596.2742276925022
 30
0.0
 11
-50.96755997758191
 21
616.2529932324028
 31
0.0
  0
ARC
  5
7EF3
330
1F
100
AcDbEntity
  8
ceco.net 214
100
AcDbCircle
 10
-40.66609764402892
 20
616.2529932324028
 30
0.0
 40
10.30146233355882
100
AcDbArc
 50
98.86914742775736
 51
180.0
  0
LINE
  5
7EF4
330
1F
100
AcDbEntity
  8
ceco.net 214
100
AcDbLine
 10
8.178773914396515
 20
502.644455094317
 30
0.0
 11
8.178773914396515
 21
593.4339789518575
 31
0.0
  0
LINE
  5
7EF5
330
1F
100
AcDbEntity
  8
ceco.net 214
100
AcDbLine
 10
-8.178773914396515
 20
502.644455094317
 30
0.0
 11
-8.178773914389239
 21
593.4339789518575
 31
0.0
  0
ARC
  5
7EF6
330
1F
100
AcDbEntity
  8
ceco.net 214
100
AcDbCircle
 10
0.0
 20
502.6444550943256
 30
0.0
 40
8.178773914393614
100
AcDbArc
 50
180.0
 51
0.0
  0
ARC
  5
7EF7
330
1F
100
AcDbEntity
  8
ceco.net 214
100
AcDbCircle
 10
0.0
 20
593.4339789518575
 30
0.0
 40
8.178773914393614
100
AcDbArc
 50
0.0
 51
180.0
  0
ARC
  5
7EF8
330
1F
100
AcDbEntity
  8
ceco.net 214
100
AcDbCircle
 10
2105.167182199071
 20
546.994676239885
 30
0.0
 40
2072.904064500062
100
AcDbArc
 50
179.0608837877248
 51
181.5999229707208
  0
ARC
  5
7EF9
330
1F
100
AcDbEntity
  8
ceco.net 214
100
AcDbCircle
 10
48.10964800124384
 20
580.9707068220452
 30
0.0
 40
15.5680895390838
100
AcDbArc
 50
79.42193710243735
 51
180.0046574147525
  0
ARC
  5
7EFA
330
1F
100
AcDbEntity
  8
ceco.net 214
100
AcDbCircle
 10
0.0
 20
355.6466914892114
 30
0.0
 40
274.0615351379665
100
AcDbArc
 50
55.85030508707929
 51
62.54490802306991
  0
LINE
  5
7EFB
330
1F
100
AcDbEntity
  8
ceco.net 214
100
AcDbLine
 10
101.4732734919471
 20
579.7057866319005
 30
0.0
 11
113.3077767678951
 21
595.8022335910858
 31
0.0
  0
LINE
  5
7EFC
330
1F
100
AcDbEntity
  8
ceco.net 214
100
AcDbLine
 10
152.4543491656204
 20
563.0042195427956
 30
0.0
 11
156.3613829141104
 21
575.1534737887103
 31
0.0
  0
LINE
  5
7EFD
330
1F
100
AcDbEntity
  8
ceco.net 214
100
AcDbLine
 10
152.4543491656204
 20
563.0042195427956
 30
0.0
 11
162.8855198944565
 21
570.3567679900653
 31
0.0
  0
ARC
  5
7EFE
330
1F
100
AcDbEntity
  8
ceco.net 214
100
AcDbCircle
 10
150.2321106490617
 20
577.1245637921489
 30
0.0
 40
6.438413958474266
100
AcDbArc
 50
342.1729204179496
 51
55.85030508707929
  0
ARC
  5
7EFF
330
1F
100
AcDbEntity
  8
ceco.net 214
100
AcDbCircle
 10
166.5948645474818
 20
565.0942651116173
 30
0.0
 40
6.438413958474266
100
AcDbArc
 50
51.50121610356072
 51
125.1786007726632
  0
ARC
  5
7F00
330
1F
100
AcDbEntity
  8
ceco.net 214
100
AcDbCircle
 10
121.6074358095393
 20
589.7001203504185
 30
0.0
 40
10.30146233355882
100
AcDbArc
 50
62.54490802306991
 51
143.6757605953145
  0
ARC
  5
7F01
330
1F
100
AcDbEntity
  8
ceco.net 214
100
AcDbCircle
 10
0.0
 20
355.6466914892114
 30
0.0
 40
274.0615351379665
100
AcDbArc
 50
44.80661316754551
 51
51.50121610356478
  0
LINE
  5
7F02
330
1F
100
AcDbEntity
  8
ceco.net 214
100
AcDbLine
 10
183.6001320488485
 20
519.3241024565667
 30
0.0
 11
195.4346353247965
 21
535.4205494157605
 31
0.0
  0
ARC
  5
7F03
330
1F
100
AcDbEntity
  8
ceco.net 214
100
AcDbCircle
 10
187.1349762831578
 20
541.5226626564364
 30
0.0
 40
10.30146233355882
100
AcDbArc
 50
323.6757605953145
 51
44.80661316755013
  0
LINE
  5
7F04
330
1F
100
AcDbEntity
  8
ceco.net 214
100
AcDbLine
 10
54.44162349896032
 20
443.5015416015903
 30
0.0
 11
134.2648136389179
 21
552.0713494120058
 31
0.0
  0
LINE
  5
7F05
330
1F
100
AcDbEntity
  8
ceco.net 214
100
AcDbLine
 10
67.62053590386677
 20
433.8120814104922
 30
0.0
 11
147.4437260438244
 21
542.3818892209079
 31
0.0
  0
ARC
  5
7F06
330
1F
100
AcDbEntity
  8
ceco.net 214
100
AcDbCircle
 10
61.03107970140627
 20
438.6568115060454
 30
0.0
 40
8.178773914393614
100
AcDbArc
 50
143.6757605953145
 51
323.6757605953145
  0
ARC
  5
7F07
330
1F
100
AcDbEntity
  8
ceco.net 214
100
AcDbCircle
 10
140.854269841373
 20
547.2266193164612
 30
0.0
 40
8.178773914393614
100
AcDbArc
 50
323.6757605953145
 51
143.6757605953145
  0
ARC
  5
7F08
330
1F
100
AcDbEntity
  8
ceco.net 214
100
AcDbCircle
 10
-1582.740608921134
 20
1756.815875116968
 30
0.0
 40
2072.904064500062
100
AcDbArc
 50
322.0758376245748
 51
324.6148768075968
  0
ARC
  5
7F09
330
1F
100
AcDbEntity
  8
ceco.net 214
100
AcDbCircle
 10
94.71072657363402
 20
565.6831844812843
 30
0.0
 40
15.5680895390838
100
AcDbArc
 50
323.6711031805756
 51
64.25382349285588
  0
ARC
  5
7F0A
330
1F
100
AcDbEntity
  8
ceco.net 214
100
AcDbCircle
 10
43.94365386448953
 20
489.6004886350272
 30
0.0
 40
10.88309450757763
100
AcDbArc
 50
182.5378954204562
 51
321.1378651748221
  0
ARC
  5
7F0B
330
1F
100
AcDbEntity
  8
ceco.net 214
100
AcDbCircle
 10
-445.1906175127241
 20
2422.080390003369
 30
0.0
 40
2072.904064500062
100
AcDbArc
 50
285.7515982198926
 51
288.2906374028584
  0
ARC
  5
7F0C
330
1F
100
AcDbEntity
  8
ceco.net 214
100
AcDbCircle
 10
200.7222990395548
 20
468.7661362579357
 30
0.0
 40
15.5680895390838
100
AcDbArc
 50
287.3468637758508
 51
27.92958408813505
  0
ARC
  5
7F0D
330
1F
100
AcDbEntity
  8
ceco.net 214
100
AcDbCircle
 10
1809.432127759191
 20
-737.1928627495524
 30
0.0
 40
2072.904064500062
100
AcDbArc
 50
142.736644383019
 51
145.275683566035
  0
ARC
  5
7F0E
330
1F
100
AcDbEntity
  8
ceco.net 214
100
AcDbCircle
 10
172.2324729228348
 20
508.6872919434632
 30
0.0
 40
15.5680895390838
100
AcDbArc
 50
43.09769769775208
 51
143.6804180100217
  0
ARC
  5
7F0F
330
1F
100
AcDbEntity
  8
ceco.net 214
100
AcDbCircle
 10
114.7525026103685
 20
437.5400833434834
 30
0.0
 40
10.88309450757763
100
AcDbArc
 50
146.2136560158152
 51
284.8136257701833
  0
ARC
  5
7F10
330
1F
100
AcDbEntity
  8
ceco.net 214
100
AcDbCircle
 10
0.0
 20
355.6466914892114
 30
0.0
 40
245.9660613770351
100
AcDbArc
 50
65.63488363641802
 51
78.04087695886501
  0
ARC
  5
7F11
330
1F
100
AcDbEntity
  8
ceco.net 214
100
AcDbCircle
 10
0.0
 20
355.6466914892114
 30
0.0
 40
245.9660613770351
100
AcDbArc
 50
138.2833624459
 51
150.6893557681182
  0
ARC
  5
7F12
330
1F
100
AcDbEntity
  8
ceco.net 214
100
AcDbCircle
 10
-0.0000000000291038
 20
355.6466914892414
 30
0.0
 40
274.0615351379665
100
AcDbArc
 50
19.52606568237634
 51
26.22066861836392
  0
LINE
  5
7F13
330
1F
100
AcDbEntity
  8
ceco.net 214
100
AcDbLine
 10
214.4770782484902
 20
476.0580126152326
 30
0.0
 11
233.5466703000347
 21
482.0163455604753
 31
0.0
  0
LINE
  5
7F14
330
1F
100
AcDbEntity
  8
ceco.net 214
100
AcDbLine
 10
245.6581554191525
 20
432.4030833797684
 30
0.0
 11
256.0026259151436
 21
439.8771198796185
 31
0.0
  0
LINE
  5
7F15
330
1F
100
AcDbEntity
  8
ceco.net 214
100
AcDbLine
 10
245.6581554191525
 20
432.4030833797684
 30
0.0
 11
258.4176296987625
 21
432.1479215652933
 31
0.0
  0
ARC
  5
7F16
330
1F
100
AcDbEntity
  8
ceco.net 214
100
AcDbCircle
 10
252.2319908046083
 20
445.0958826797377
 30
0.0
 40
6.438413958474266
100
AcDbArc
 50
305.848681013246
 51
19.52606568238248
  0
ARC
  5
7F17
330
1F
100
AcDbEntity
  8
ceco.net 214
100
AcDbCircle
 10
258.288901119964
 20
425.7107946243697
 30
0.0
 40
6.438413958474266
100
AcDbArc
 50
15.17697669880793
 51
88.85436136799029
  0
ARC
  5
7F18
330
1F
100
AcDbEntity
  8
ceco.net 214
100
AcDbCircle
 10
236.6189092871518
 20
472.18367177276
 30
0.0
 40
10.30146233355882
100
AcDbArc
 50
26.22066861835808
 51
107.3515211906445
  0
ARC
  5
7F19
330
1F
100
AcDbEntity
  8
ceco.net 214
100
AcDbCircle
 10
-0.0000000000291038
 20
355.6466914892414
 30
0.0
 40
274.0615351379665
100
AcDbArc
 50
8.482373762834026
 51
15.17697669881422
  0
LINE
  5
7F1A
330
1F
100
AcDbEntity
  8
ceco.net 214
100
AcDbLine
 10
244.8775242766823
 20
378.7616531686424
 30
0.0
 11
263.9471163282305
 21
384.7199861138807
 31
0.0
  0
ARC
  5
7F1B
330
1F
100
AcDbEntity
  8
ceco.net 214
100
AcDbCircle
 10
260.8748773411098
 20
394.5526599016001
 30
0.0
 40
10.30146233355882
100
AcDbArc
 50
287.3515211906445
 51
8.482373762846908
  0
LINE
  5
7F1C
330
1F
100
AcDbEntity
  8
ceco.net 214
100
AcDbLine
 10
137.8691551722968
 20
407.292900447113
 30
0.0
 11
224.5271210540431
 21
434.3693586998495
 31
0.0
  0
LINE
  5
7F1D
330
1F
100
AcDbEntity
  8
ceco.net 214
100
AcDbLine
 10
142.7475204515194
 20
391.6797353876625
 30
0.0
 11
229.4054863332603
 21
418.7561936404033
 31
0.0
  0
ARC
  5
7F1E
330
1F
100
AcDbEntity
  8
ceco.net 214
100
AcDbCircle
 10
140.3083378119099
 20
399.4863179173963
 30
0.0
 40
8.178773914393614
100
AcDbArc
 50
107.3515211906445
 51
287.3515211906445
  0
ARC
  5
7F1F
330
1F
100
AcDbEntity
  8
ceco.net 214
100
AcDbCircle
 10
226.9663036936526
 20
426.5627761701284
 30
0.0
 40
8.178773914393614
100
AcDbArc
 50
287.3515211906445
 51
107.3515211906445
  0
ARC
  5
7F20
330
1F
100
AcDbEntity
  8
ceco.net 214
100
AcDbCircle
 10
-2105.167182199062
 20
546.994676239885
 30
0.0
 40
2072.904064500062
100
AcDbArc
 50
358.4000770292791
 51
0.9391162122751419
  0
ARC
  5
7F21
330
1F
100
AcDbEntity
  8
ceco.net 214
100
AcDbCircle
 10
-48.1096480012402
 20
580.9707068220452
 30
0.0
 40
15.5680895390838
100
AcDbArc
 50
359.9953425852473
 51
100.5780628975626
  0
ARC
  5
7F22
330
1F
100
AcDbEntity
  8
ceco.net 214
100
AcDbCircle
 10
0.0
 20
355.6466914892114
 30
0.0
 40
274.0615351379665
100
AcDbArc
 50
117.45509197693
 51
124.1496949129207
  0
LINE
  5
7F23
330
1F
100
AcDbEntity
  8
ceco.net 214
100
AcDbLine
 10
-101.4732734919471
 20
579.7057866319005
 30
0.0
 11
-113.3077767678951
 21
595.8022335910858
 31
0.0
  0
LINE
  5
7F24
330
1F
100
AcDbEntity
  8
ceco.net 214
100
AcDbLine
 10
-152.4543491656131
 20
563.0042195427956
 30
0.0
 11
-156.3613829141067
 21
575.1534737887103
 31
0.0
  0
LINE
  5
7F25
330
1F
100
AcDbEntity
  8
ceco.net 214
100
AcDbLine
 10
-152.4543491656131
 20
563.0042195427956
 30
0.0
 11
-162.8855198944493
 21
570.3567679900653
 31
0.0
  0
ARC
  5
7F26
330
1F
100
AcDbEntity
  8
ceco.net 214
100
AcDbCircle
 10
-150.232110649058
 20
577.1245637921489
 30
0.0
 40
6.438413958474266
100
AcDbArc
 50
124.1496949129207
 51
197.8270795820503
  0
ARC
  5
7F27
330
1F
100
AcDbEntity
  8
ceco.net 214
100
AcDbCircle
 10
-166.5948645474727
 20
565.0942651116173
 30
0.0
 40
6.438413958474266
100
AcDbArc
 50
54.8213992273367
 51
128.4987838964392
  0
ARC
  5
7F28
330
1F
100
AcDbEntity
  8
ceco.net 214
100
AcDbCircle
 10
-121.6074358095393
 20
589.7001203504185
 30
0.0
 40
10.30146233355882
100
AcDbArc
 50
36.32423940468546
 51
117.45509197693
  0
ARC
  5
7F29
330
1F
100
AcDbEntity
  8
ceco.net 214
100
AcDbCircle
 10
0.0
 20
355.6466914892114
 30
0.0
 40
274.0615351379665
100
AcDbArc
 50
128.4987838964352
 51
135.1933868324544
  0
LINE
  5
7F2A
330
1F
100
AcDbEntity
  8
ceco.net 214
100
AcDbLine
 10
-183.6001320488485
 20
519.3241024565667
 30
0.0
 11
-195.4346353247929
 21
535.4205494157605
 31
0.0
  0
ARC
  5
7F2B
330
1F
100
AcDbEntity
  8
ceco.net 214
100
AcDbCircle
 10
-187.1349762831523
 20
541.5226626564364
 30
0.0
 40
10.30146233355882
100
AcDbArc
 50
135.1933868324498
 51
216.3242394046854
  0
LINE
  5
7F2C
330
1F
100
AcDbEntity
  8
ceco.net 214
100
AcDbLine
 10
-54.44162349895669
 20
443.5015416015903
 30
0.0
 11
-134.2648136389107
 21
552.0713494120058
 31
0.0
  0
LINE
  5
7F2D
330
1F
100
AcDbEntity
  8
ceco.net 214
100
AcDbLine
 10
-67.6205359038613
 20
433.8120814104922
 30
0.0
 11
-147.4437260438207
 21
542.3818892209079
 31
0.0
  0
ARC
  5
7F2E
330
1F
100
AcDbEntity
  8
ceco.net 214
100
AcDbCircle
 10
-61.03107970139899
 20
438.6568115060454
 30
0.0
 40
8.178773914393614
100
AcDbArc
 50
216.3242394046854
 51
36.32423940468546
  0
ARC
  5
7F2F
330
1F
100
AcDbEntity
  8
ceco.net 214
100
AcDbCircle
 10
-140.854269841373
 20
547.2266193164612
 30
0.0
 40
8.178773914393614
100
AcDbArc
 50
36.32423940468546
 51
216.3242394046854
  0
ARC
  5
7F30
330
1F
100
AcDbEntity
  8
ceco.net 214
100
AcDbCircle
 10
1582.740608921136
 20
1756.815875116968
 30
0.0
 40
2072.904064500062
100
AcDbArc
 50
215.3851231924031
 51
217.9241623754252
  0
ARC
  5
7F31
330
1F
100
AcDbEntity
  8
ceco.net 214
100
AcDbCircle
 10
-94.71072657362674
 20
565.6831844812843
 30
0.0
 40
15.5680895390838
100
AcDbArc
 50
115.746176507144
 51
216.3288968194243
  0
ARC
  5
7F32
330
1F
100
AcDbEntity
  8
ceco.net 214
100
AcDbCircle
 10
-43.94365386448408
 20
489.6004886350272
 30
0.0
 40
10.88309450757763
100
AcDbArc
 50
218.8621348251778
 51
357.4621045795438
  0
ARC
  5
7F33
330
1F
100
AcDbEntity
  8
ceco.net 214
100
AcDbCircle
 10
445.190617512726
 20
2422.080390003369
 30
0.0
 40
2072.904064500062
100
AcDbArc
 50
251.7093625971416
 51
254.2484017801073
  0
ARC
  5
7F34
330
1F
100
AcDbEntity
  8
ceco.net 214
100
AcDbCircle
 10
-200.7222990395494
 20
468.7661362579357
 30
0.0
 40
15.5680895390838
100
AcDbArc
 50
152.0704159118649
 51
252.6531362241491
  0
ARC
  5
7F35
330
1F
100
AcDbEntity
  8
ceco.net 214
100
AcDbCircle
 10
-1809.432127759186
 20
-737.1928627495524
 30
0.0
 40
2072.904064500062
100
AcDbArc
 50
34.72431643396495
 51
37.26335561698096
  0
ARC
  5
7F36
330
1F
100
AcDbEntity
  8
ceco.net 214
100
AcDbCircle
 10
-172.2324729228312
 20
508.6872919434632
 30
0.0
 40
15.5680895390838
100
AcDbArc
 50
36.31958198997821
 51
136.9023023022479
  0
ARC
  5
7F37
330
1F
100
AcDbEntity
  8
ceco.net 214
100
AcDbCircle
 10
-114.7525026103612
 20
437.5400833434834
 30
0.0
 40
10.88309450757763
100
AcDbArc
 50
255.1863742298166
 51
33.78634398418471
  0
ARC
  5
7F38
330
1F
100
AcDbEntity
  8
ceco.net 214
100
AcDbCircle
 10
0.0
 20
355.6466914892114
 30
0.0
 40
245.9660613770351
100
AcDbArc
 50
101.9591230411349
 51
114.3651163635819
  0
ARC
  5
7F39
330
1F
100
AcDbEntity
  8
ceco.net 214
100
AcDbCircle
 10
0.0000000000363798
 20
355.6466914892414
 30
0.0
 40
274.0615351379665
100
AcDbArc
 50
153.779331381636
 51
160.4739343176236
  0
LINE
  5
7F3A
330
1F
100
AcDbEntity
  8
ceco.net 214
100
AcDbLine
 10
-214.4770782484883
 20
476.0580126152326
 30
0.0
 11
-233.5466703000311
 21
482.0163455604753
 31
0.0
  0
LINE
  5
7F3B
330
1F
100
AcDbEntity
  8
ceco.net 214
100
AcDbLine
 10
-245.6581554191507
 20
432.4030833797684
 30
0.0
 11
-256.0026259151418
 21
439.8771198796185
 31
0.0
  0
LINE
  5
7F3C
330
1F
100
AcDbEntity
  8
ceco.net 214
100
AcDbLine
 10
-245.6581554191507
 20
432.4030833797684
 30
0.0
 11
-258.4176296987607
 21
432.1479215652933
 31
0.0
  0
ARC
  5
7F3D
330
1F
100
AcDbEntity
  8
ceco.net 214
100
AcDbCircle
 10
-252.2319908045992
 20
445.0958826797377
 30
0.0
 40
6.438413958474266
100
AcDbArc
 50
160.4739343176175
 51
234.1513189867538
  0
ARC
  5
7F3E
330
1F
100
AcDbEntity
  8
ceco.net 214
100
AcDbCircle
 10
-258.2889011199568
 20
425.7107946243697
 30
0.0
 40
6.438413958474266
100
AcDbArc
 50
91.14563863200968
 51
164.823023301192
  0
ARC
  5
7F3F
330
1F
100
AcDbEntity
  8
ceco.net 214
100
AcDbCircle
 10
-236.6189092871481
 20
472.18367177276
 30
0.0
 40
10.30146233355882
100
AcDbArc
 50
72.64847880935544
 51
153.7793313816418
  0
ARC
  5
7F40
330
1F
100
AcDbEntity
  8
ceco.net 214
100
AcDbCircle
 10
0.0000000000363798
 20
355.6466914892414
 30
0.0
 40
274.0615351379665
100
AcDbArc
 50
164.8230233011857
 51
171.5176262371659
  0
LINE
  5
7F41
330
1F
100
AcDbEntity
  8
ceco.net 214
100
AcDbLine
 10
-244.8775242766805
 20
378.7616531686424
 30
0.0
 11
-263.9471163282214
 21
384.7199861138807
 31
0.0
  0
ARC
  5
7F42
330
1F
100
AcDbEntity
  8
ceco.net 214
100
AcDbCircle
 10
-260.8748773411061
 20
394.5526599016001
 30
0.0
 40
10.30146233355882
100
AcDbArc
 50
171.517626237153
 51
252.6484788093554
  0
LINE
  5
7F43
330
1F
100
AcDbEntity
  8
ceco.net 214
100
AcDbLine
 10
-137.8691551722949
 20
407.292900447113
 30
0.0
 11
-224.5271210540431
 21
434.3693586998495
 31
0.0
  0
LINE
  5
7F44
330
1F
100
AcDbEntity
  8
ceco.net 214
100
AcDbLine
 10
-142.7475204515103
 20
391.6797353876625
 30
0.0
 11
-229.4054863332585
 21
418.7561936404033
 31
0.0
  0
ARC
  5
7F45
330
1F
100
AcDbEntity
  8
ceco.net 214
100
AcDbCircle
 10
-140.3083378119099
 20
399.4863179173963
 30
0.0
 40
8.178773914393614
100
AcDbArc
 50
252.6484788093554
 51
72.64847880935544
  0
ARC
  5
7F46
330
1F
100
AcDbEntity
  8
ceco.net 214
100
AcDbCircle
 10
-226.9663036936472
 20
426.5627761701284
 30
0.0
 40
8.178773914393614
100
AcDbArc
 50
72.64847880935544
 51
252.6484788093554
  0
ARC
  5
7F47
330
1F
100
AcDbEntity
  8
ceco.net 214
100
AcDbCircle
 10
810.4712452662679
 20
-1596.654329581177
 30
0.0
 40
2072.904064500062
100
AcDbArc
 50
106.4124049782992
 51
108.9514441613738
  0
ARC
  5
7F48
330
1F
100
AcDbEntity
  8
ceco.net 214
100
AcDbCircle
 10
229.4180960943886
 20
376.9254908192056
 30
0.0
 40
15.5680895390838
100
AcDbArc
 50
6.773458293074208
 51
107.3561786053735
  0
ARC
  5
7F49
330
1F
100
AcDbEntity
  8
ceco.net 214
100
AcDbCircle
 10
140.9634234034419
 20
353.6522624692522
 30
0.0
 40
10.88309450757763
100
AcDbArc
 50
109.8894166110609
 51
153.3382373297503
  0
ARC
  5
7F4A
330
1F
100
AcDbEntity
  8
ceco.net 214
100
AcDbCircle
 10
0.0
 20
355.6466914892114
 30
0.0
 40
245.9660613770351
100
AcDbArc
 50
29.31064423188174
 51
41.71663755409993
  0
ARC
  5
7F4B
330
1F
100
AcDbEntity
  8
ceco.net 214
100
AcDbCircle
 10
-810.4712452662662
 20
-1596.654329581177
 30
0.0
 40
2072.904064500062
100
AcDbArc
 50
71.04855583862617
 51
73.58759502170079
  0
ARC
  5
7F4C
330
1F
100
AcDbEntity
  8
ceco.net 214
100
AcDbCircle
 10
-229.4180960943813
 20
376.9254908192056
 30
0.0
 40
15.5680895390838
100
AcDbArc
 50
72.64382139462641
 51
173.2265417069258
  0
ARC
  5
7F4D
330
1F
100
AcDbEntity
  8
ceco.net 214
100
AcDbCircle
 10
-140.9634234034383
 20
353.6522624692522
 30
0.0
 40
10.88309450757763
100
AcDbArc
 50
26.66176267024962
 51
70.11058338893898
  0
ARC
  5
7F4E
330
1F
100
AcDbEntity
  8
ceco.net 214
100
AcDbCircle
 10
0.0
 20
355.6466914892114
 30
0.0
 40
245.9660613770351
100
AcDbArc
 50
174.6076018508324
 51
180.0
  0
ARC
  5
7F4F
330
1F
100
AcDbEntity
  8
ceco.net 214
100
AcDbCircle
 10
0.0
 20
355.6466914892114
 30
0.0
 40
245.9660613770351
100
AcDbArc
 50
0.0
 51
5.392398149167521
  0
CIRCLE
  5
7F50
330
1F
100
AcDbEntity
  8
ceco.net 214
100
AcDbCircle
 10
42.68740017775416
 20
297.5863355312592
 30
0.0
 40
17.4132067629984
  0
ARC
  5
7F51
330
1F
100
AcDbEntity
  8
ceco.net 214
100
AcDbCircle
 10
42.68740017775416
 20
297.5863355312592
 30
0.0
 40
24.65813150236753
100
AcDbArc
 50
36.32423940468546
 51
216.3242394046592
  0
ELLIPSE
  5
7F52
330
1F
100
AcDbEntity
  8
ceco.net 214
100
AcDbEllipse
 10
42.68740017774326
 20
297.5863355312633
 30
0.0
 11
-26.41849484054848
 21
35.93255171150196
 31
0.0
210
0.0
220
0.0
230
-1.0
 40
0.5528833070396524
 41
1.570796326794896
 42
4.712388980384689
  0
CIRCLE
  5
7F53
330
1F
100
AcDbEntity
  8
ceco.net 214
100
AcDbCircle
 10
-0.000000000007276
 20
427.7106843559713
 30
0.0
 40
17.4132067629984
  0
ARC
  5
7F54
330
1F
100
AcDbEntity
  8
ceco.net 214
100
AcDbCircle
 10
-0.000000000007276
 20
427.7106843559713
 30
0.0
 40
24.65813150236753
100
AcDbArc
 50
180.000000000039
 51
0.0000000000065138
  0
ELLIPSE
  5
7F55
330
1F
100
AcDbEntity
  8
ceco.net 214
100
AcDbEllipse
 10
-0.000000000007276
 20
427.7106843559628
 30
0.0
 11
0.0000000000140474
 21
-44.59916077842552
 31
0.0
210
0.0
220
0.0
230
1.0
 40
0.5528833070396524
 41
1.570796326794896
 42
4.712388980384689
  0
CIRCLE
  5
7F56
330
1F
100
AcDbEntity
  8
ceco.net 214
100
AcDbCircle
 10
-42.68740017775053
 20
297.5863355312592
 30
0.0
 40
17.4132067629984
  0
ARC
  5
7F57
330
1F
100
AcDbEntity
  8
ceco.net 214
100
AcDbCircle
 10
-42.68740017775053
 20
297.5863355312592
 30
0.0
 40
24.65813150236753
100
AcDbArc
 50
323.6757605953407
 51
143.6757605953145
  0
ELLIPSE
  5
7F58
330
1F
100
AcDbEntity
  8
ceco.net 214
100
AcDbEllipse
 10
-42.68740017774144
 20
297.5863355312633
 30
0.0
 11
26.41849484054848
 21
35.93255171150196
 31
0.0
210
0.0
220
0.0
230
1.0
 40
0.5528833070396524
 41
1.570796326794896
 42
4.712388980384689
  0
CIRCLE
  5
7F59
330
1F
100
AcDbEntity
  8
ceco.net 214
100
AcDbCircle
 10
68.78457744695151
 20
377.1385730574887
 30
0.0
 40
17.4132067629984
  0
ARC
  5
7F5A
330
1F
100
AcDbEntity
  8
ceco.net 214
100
AcDbCircle
 10
68.78457744695151
 20
377.1385730574887
 30
0.0
 40
24.65813150236753
100
AcDbArc
 50
107.3515211906465
 51
287.3515211905431
  0
ELLIPSE
  5
7F5B
330
1F
100
AcDbEntity
  8
ceco.net 214
100
AcDbEllipse
 10
68.78457744694424
 20
377.1385730574844
 30
0.0
 11
-42.56958720431844
 21
-13.30095437905777
 31
0.0
210
0.0
220
0.0
230
-1.0
 40
0.5528833070396523
 41
1.570796326794896
 42
4.712388980384689
  0
CIRCLE
  5
7F5C
330
1F
100
AcDbEntity
  8
ceco.net 214
100
AcDbCircle
 10
-68.78457744694788
 20
377.1385730574887
 30
0.0
 40
17.4132067629984
  0
ARC
  5
7F5D
330
1F
100
AcDbEntity
  8
ceco.net 214
100
AcDbCircle
 10
-68.78457744694788
 20
377.1385730574887
 30
0.0
 40
24.65813150236753
100
AcDbArc
 50
252.6484788094568
 51
72.64847880935349
  0
ELLIPSE
  5
7F5E
330
1F
100
AcDbEntity
  8
ceco.net 214
100
AcDbEllipse
 10
-68.78457744694424
 20
377.1385730574844
 30
0.0
 11
42.56958720431844
 21
-13.30095437905777
 31
0.0
210
0.0
220
0.0
230
1.0
 40
0.5528833070396523
 41
1.570796326794896
 42
4.712388980384689
  0
ARC
  5
7F5F
330
1F
100
AcDbEntity
  8
ceco.net 214
100
AcDbCircle
 10
-136.9913410694571
 20
355.6466914892114
 30
0.0
 40
6.438413958474266
100
AcDbArc
 50
333.3382373297503
 51
26.66176267024962
  0
ARC
  5
7F60
330
1F
100
AcDbEntity
  8
ceco.net 214
100
AcDbCircle
 10
136.9913410694589
 20
355.6466914892114
 30
0.0
 40
6.438413958474266
100
AcDbArc
 50
153.3382373297503
 51
206.6617626702496
  0
ARC
  5
7F61
330
1F
100
AcDbEntity
  8
ceco.net 214
100
AcDbCircle
 10
-3.921167587019226
 20
332.6760882211523
 30
0.0
 40
382.2354779053714
100
AcDbArc
 50
38.54120031500571
 51
181.4463297835938
  0
ARC
  5
7F62
330
1F
100
AcDbEntity
  8
ceco.net 214
100
AcDbCircle
 10
528.7878916826357
 20
799.2303340103478
 30
0.0
 40
254.1875990607275
100
AcDbArc
 50
243.9638861656062
 51
265.5070148077157
  0
ARC
  5
7F63
330
1F
100
AcDbEntity
  8
ceco.net 214
100
AcDbCircle
 10
842.3875590340122
 20
527.4404301814232
 30
0.0
 40
20.6491473751609
100
AcDbArc
 50
30.46321794305606
 51
61.04832725644852
  0
ARC
  5
7F64
330
1F
100
AcDbEntity
  8
ceco.net 214
100
AcDbCircle
 10
-86.21263946875478
 20
337.2702805242227
 30
0.0
 40
447.1173168188742
100
AcDbArc
 50
1.306514231688474
 51
31.49246705639455
  0
LINE
  5
7F65
330
1F
100
AcDbEntity
  8
ceco.net 214
100
AcDbLine
 10
852.3832275809709
 20
545.509018881719
 30
0.0
 11
508.8755872970396
 21
545.8238706943705
 31
0.0
  0
LINE
  5
7F66
330
1F
100
AcDbEntity
  8
ceco.net 214
100
AcDbLine
 10
358.7554607536567
 20
206.3753594669802
 30
0.0
 11
675.6542698305074
 21
206.3753594669802
 31
0.0
  0
ARC
  5
7F67
330
1F
100
AcDbEntity
  8
ceco.net 214
100
AcDbCircle
 10
749.7122645820963
 20
356.2206184650676
 30
0.0
 40
130.9967754441694
100
AcDbArc
 50
274.0435376899017
 51
299.8564149986234
  0
ARC
  5
7F68
330
1F
100
AcDbEntity
  8
ceco.net 214
100
AcDbCircle
 10
669.684326614295
 20
467.7079822870546
 30
0.0
 40
261.4008033117406
100
AcDbArc
 50
271.3086505009882
 51
288.7382993444294
  0
ARC
  5
7F69
330
1F
100
AcDbEntity
  8
ceco.net 214
100
AcDbCircle
 10
783.5352023534396
 20
506.1584556183734
 30
0.0
 40
82.96677882481292
100
AcDbArc
 50
5.282618266335106
 51
22.50057805554547
  0
ARC
  5
7F6A
330
1F
100
AcDbEntity
  8
ceco.net 214
100
AcDbCircle
 10
-1332.152818367421
 20
366.6888060482018
 30
0.0
 40
1693.050397909772
100
AcDbArc
 50
354.7411703124907
 51
359.3494189491303
  0
ARC
  5
7F6B
330
1F
100
AcDbEntity
  8
ceco.net 214
100
AcDbCircle
 10
358.7554607536567
 20
211.3618682917668
 30
0.0
 40
4.986508824789225
100
AcDbArc
 50
178.2730993499469
 51
270.0
  0
LINE
  5
7F6C
330
1F
100
AcDbEntity
  8
ceco.net 214
100
AcDbLine
 10
785.2000795347394
 20
570.8383126908428
 30
0.0
 11
323.9935219935741
 21
570.8383126908428
 31
0.0
  0
ARC
  5
7F6D
330
1F
100
AcDbEntity
  8
ceco.net 214
100
AcDbCircle
 10
361.1357889051432
 20
604.4282490613868
 30
0.0
 40
50.07825692561013
100
AcDbArc
 50
222.1248925664919
 51
255.1071327899259
  0
ARC
  5
7F6E
330
1F
100
AcDbEntity
  8
ceco.net 214
100
AcDbCircle
 10
747.6146332082462
 20
229.0880728489737
 30
0.0
 40
10.77920754114386
100
AcDbArc
 50
304.1027797730934
 51
334.2105518469384
  0
ARC
  5
7F6F
330
1F
100
AcDbEntity
  8
ceco.net 214
100
AcDbCircle
 10
759.1753050233419
 20
223.502052115436
 30
0.0
 40
2.060292466711765
100
AcDbArc
 50
96.29402255522538
 51
154.2105518468914
  0
ARC
  5
7F70
330
1F
100
AcDbEntity
  8
ceco.net 214
100
AcDbCircle
 10
804.3673728753073
 20
256.8673157785876
 30
0.0
 40
17.74120173621207
100
AcDbArc
 50
306.5237170397629
 51
43.6740335189684
  0
ARC
  5
7F71
330
1F
100
AcDbEntity
  8
ceco.net 214
100
AcDbCircle
 10
792.551357082506
 20
250.7279175452341
 30
0.0
 40
30.75279567359015
100
AcDbArc
 50
36.72794623405787
 51
72.3154763566417
  0
ARC
  5
7F72
330
1F
100
AcDbEntity
  8
ceco.net 214
100
AcDbCircle
 10
780.1279844893342
 20
218.8724385715891
 30
0.0
 40
64.91274378734772
100
AcDbArc
 50
70.40914103175168
 51
92.45208729858395
  0
ARC
  5
7F73
330
1F
100
AcDbEntity
  8
ceco.net 214
100
AcDbCircle
 10
568.8944398605363
 20
505.4775076880036
 30
0.0
 40
297.3715557501225
100
AcDbArc
 50
354.6081199222522
 51
1.603175474430348
  0
ARC
  5
7F74
330
1F
100
AcDbEntity
  8
ceco.net 214
100
AcDbCircle
 10
854.6029877878446
 20
484.9071487833218
 30
0.0
 40
15.17871575057768
100
AcDbArc
 50
271.6086879826638
 51
287.9887176994591
  0
ARC
  5
7F75
330
1F
100
AcDbEntity
  8
ceco.net 214
100
AcDbCircle
 10
856.3925732287771
 20
459.0466992765055
 30
0.0
 40
10.74678591189018
100
AcDbArc
 50
96.08784102649011
 51
148.0275396376536
  0
ARC
  5
7F76
330
1F
100
AcDbEntity
  8
ceco.net 214
100
AcDbCircle
 10
4508.642399896692
 20
128.0549700620508
 30
0.0
 40
3712.328965067879
100
AcDbArc
 50
175.4407533022489
 51
177.6412615229734
  0
ARC
  5
7F77
330
1F
100
AcDbEntity
  8
ceco.net 214
100
AcDbCircle
 10
-460.4741524004693
 20
758.2757399465168
 30
0.0
 40
1340.289307343615
100
AcDbArc
 50
346.1930060701852
 51
347.3490319274505
  0
ARC
  5
7F78
330
1F
100
AcDbEntity
  8
ceco.net 214
100
AcDbCircle
 10
831.5882360981049
 20
440.3609128483656
 30
0.0
 40
9.697122630855284
100
AcDbArc
 50
263.6193669293367
 51
348.4119513416878
  0
LINE
  5
7F79
330
1F
100
AcDbEntity
  8
ceco.net 214
100
AcDbLine
 10
830.5105656164379
 20
430.7238586485182
 30
0.0
 11
788.6726499823526
 21
430.7238586485096
 31
0.0
  0
LINE
  5
7F7A
330
1F
100
AcDbEntity
  8
ceco.net 214
100
AcDbLine
 10
859.600553993021
 20
470.5747468959271
 30
0.0
 11
859.600553993021
 21
401.8003925738311
 31
0.0
  0
LINE
  5
7F7B
330
1F
100
AcDbEntity
  8
ceco.net 214
100
AcDbLine
 10
851.3593841261736
 20
393.5592227069857
 30
0.0
 11
812.5318605632127
 21
393.5592227069901
 31
0.0
  0
LINE
  5
7F7C
330
1F
100
AcDbEntity
  8
ceco.net 214
100
AcDbLine
 10
806.6657929751526
 20
403.2425942197741
 30
0.0
 11
810.6678142268757
 21
394.7419410717672
 31
0.0
  0
ARC
  5
7F7D
330
1F
100
AcDbEntity
  8
ceco.net 214
100
AcDbCircle
 10
812.5318605632127
 20
395.6195151737004
 30
0.0
 40
2.060292466711765
100
AcDbArc
 50
205.2105804010165
 51
270.0
  0
ARC
  5
7F7E
330
1F
100
AcDbEntity
  8
ceco.net 214
100
AcDbCircle
 10
851.3593841261736
 20
401.8003925738311
 30
0.0
 40
8.24116986684706
100
AcDbArc
 50
270.0
 51
0.0
  0
ARC
  5
7F7F
330
1F
100
AcDbEntity
  8
ceco.net 214
100
AcDbCircle
 10
816.2747641486822
 20
422.4826887816687
 30
0.0
 40
8.24116986684706
100
AcDbArc
 50
90.0
 51
175.3716424932417
  0
ARC
  5
7F80
330
1F
100
AcDbEntity
  8
ceco.net 214
100
AcDbCircle
 10
856.7455080900671
 20
478.3087285448522
 30
0.0
 40
8.24116986684706
100
AcDbArc
 50
287.9887176994591
 51
354.6081199222651
  0
ARC
  5
7F81
330
1F
100
AcDbEntity
  8
ceco.net 214
100
AcDbCircle
 10
519.9429262372705
 20
781.5479653486469
 30
0.0
 40
254.1875990607275
100
AcDbArc
 50
235.9913677163329
 51
265.5070148077157
  0
LINE
  5
7F82
330
1F
100
AcDbEntity
  8
ceco.net 214
100
AcDbLine
 10
863.627482633483
 20
527.8082368668663
 30
0.0
 11
500.0306218516707
 21
528.1415020326695
 31
0.0
  0
LINE
  5
7F83
330
1F
100
AcDbEntity
  8
ceco.net 214
100
AcDbLine
 10
742.4373287310209
 20
432.1305215923732
 30
0.0
 11
683.6135487410047
 21
430.7238586485011
 31
0.0
  0
LINE
  5
7F84
330
1F
100
AcDbEntity
  8
ceco.net 214
100
AcDbLine
 10
866.2617853849642
 20
507.0599061848893
 30
0.0
 11
504.0712688409658
 21
506.5828202091832
 31
0.0
  0
ARC
  5
7F85
330
1F
100
AcDbEntity
  8
ceco.net 214
100
AcDbCircle
 10
504.0712688409658
 20
511.3735425928776
 30
0.0
 40
4.760301443375134
100
AcDbArc
 50
90.0
 51
270.0
  0
ARC
  5
7F86
330
1F
100
AcDbEntity
  8
ceco.net 214
100
AcDbCircle
 10
278.4049004706576
 20
3122.760809864085
 30
0.0
 40
2903.530648744444
100
AcDbArc
 50
270.9910201651578
 51
271.5027701900194
  0
ARC
  5
7F87
330
1F
100
AcDbEntity
  8
ceco.net 214
100
AcDbCircle
 10
789.8597531892955
 20
428.0152601603222
 30
0.0
 40
133.0938322706487
100
AcDbArc
 50
61.98063963478624
 51
89.61236554316204
  0
LINE
  5
7F88
330
1F
100
AcDbEntity
  8
ceco.net 214
100
AcDbLine
 10
865.8409965258996
 20
516.6103757388587
 30
0.0
 11
504.0712688409658
 21
516.1338440362611
 31
0.0
  0
ARC
  5
7F89
330
1F
100
AcDbEntity
  8
ceco.net 214
100
AcDbCircle
 10
-456.4849729599773
 20
494.5742390773347
 30
0.0
 40
1237.305978593922
100
AcDbArc
 50
354.1254712448105
 51
0.5729664742009407
  0
ARC
  5
7F8A
330
1F
100
AcDbEntity
  8
ceco.net 214
100
AcDbCircle
 10
-7743.341438503591
 20
984.5508025277352
 30
0.0
 40
8539.954628463354
100
AcDbArc
 50
355.1365200849498
 51
355.8594370057931
  0
ARC
  5
7F8B
330
1F
100
AcDbEntity
  8
ceco.net 214
100
AcDbCircle
 10
668.6447259347241
 20
265.2210208275773
 30
0.0
 40
97.3343831296126
100
AcDbArc
 50
341.3908382027145
 51
357.2303397361173
  0
LINE
  5
7F8C
330
1F
100
AcDbEntity
  8
ceco.net 214
100
AcDbLine
 10
748.6475943835266
 20
322.8147239453548
 30
0.0
 11
678.3663060642266
 21
322.8147239453548
 31
0.0
  0
ARC
  5
7F8D
330
1F
100
AcDbEntity
  8
ceco.net 214
100
AcDbCircle
 10
382.1330429022691
 20
385.3252724043621
 30
0.0
 40
376.9988223394985
100
AcDbArc
 50
351.2625704515787
 51
4.751171102150062
  0
ARC
  5
7F8E
330
1F
100
AcDbEntity
  8
ceco.net 214
100
AcDbCircle
 10
741.1392693258276
 20
415.4473144551515
 30
0.0
 40
16.73362957050731
100
AcDbArc
 50
3.783635136745462
 51
85.5509880948801
  0
ARC
  5
7F8F
330
1F
100
AcDbEntity
  8
ceco.net 214
100
AcDbCircle
 10
748.6475943835266
 20
328.9956013454942
 30
0.0
 40
6.180877400135297
100
AcDbArc
 50
270.0
 51
351.2625704515916
  0
ARC
  5
7F90
330
1F
100
AcDbEntity
  8
ceco.net 214
100
AcDbCircle
 10
736.4966145227644
 20
373.1958188644714
 30
0.0
 40
85.91589431818448
100
AcDbArc
 50
143.8921357824175
 51
207.2520768824245
  0
ARC
  5
7F91
330
1F
100
AcDbEntity
  8
ceco.net 214
100
AcDbCircle
 10
678.3663060642266
 20
343.4176486124702
 30
0.0
 40
20.60292466711765
100
AcDbArc
 50
207.6564743918114
 51
270.0
  0
ARC
  5
7F92
330
1F
100
AcDbEntity
  8
ceco.net 214
100
AcDbCircle
 10
684.3973009456403
 20
405.5908539729044
 30
0.0
 40
25.14522204201302
100
AcDbArc
 50
91.78614321472755
 51
133.512825550392
  0
ELLIPSE
  5
7F93
330
1F
100
AcDbEntity
  8
ceco.net 214
100
AcDbEllipse
 10
672.2262340223969
 20
377.9274283284871
 30
0.0
 11
9.870735174886842
 21
38.02695249995004
 31
0.0
210
0.0
220
0.0
230
-1.0
 40
0.3862528068820485
 41
0.0
 42
6.283185307179586
  0
SPLINE
  5
7F94
330
1F
100
AcDbEntity
  8
ceco.net 214
100
AcDbSpline
210
0.0
220
0.0
230
1.0
 70
     8
 71
     3
 72
    19
 73
    15
 74
     0
 42
0.0000000001
 43
0.0000000001
 40
5.096168175866386
 40
5.096168175866386
 40
5.096168175866386
 40
5.096168175866386
 40
5.973465827286259
 40
5.973465827286259
 40
6.283185307179586
 40
6.283185307179586
 40
6.283185307179586
 40
6.867932964000956
 40
6.867932964000956
 40
7.988604939457213
 40
7.988604939457213
 40
9.210635757518627
 40
9.210635757518627
 40
9.417064447864241
 40
9.417064447864241
 40
9.417064447864241
 40
9.417064447864241
 10
654.4951350948795
 20
398.8336477142805
 30
0.0
 10
658.9140981438322
 20
409.7150392112657
 30
0.0
 10
664.9485218815571
 20
418.7503889633398
 30
0.0
 10
676.8548765074974
 20
424.2264015977283
 30
0.0
 10
680.5598163521754
 20
424.867662655053
 30
0.0
 10
684.1675290476687
 20
423.9312011648976
 30
0.0
 10
690.9788589191448
 20
422.1631700992986
 30
0.0
 10
694.7415169101932
 20
415.992481592317
 30
0.0
 10
699.8607739410435
 20
397.83490474226
 30
0.0
 10
698.0590826935967
 20
381.5826918578741
 30
0.0
 10
688.1395807231784
 20
350.1800660715429
 30
0.0
 10
680.6287915351404
 20
334.5688081903994
 30
0.0
 10
665.2982350079146
 20
331.3280717383443
 30
0.0
 10
663.1466252032441
 20
331.4204354468964
 30
0.0
 10
661.1192641649759
 20
331.967237158264
 30
0.0
  0
ARC
  5
7F95
330
1F
100
AcDbEntity
  8
ceco.net 214
100
AcDbCircle
 10
676.0106789871297
 20
408.5917389490212
 30
0.0
 40
19.23252342161994
100
AcDbArc
 50
26.11146876202676
 51
102.6061326471533
  0
CIRCLE
  5
7F96
330
1F
100
AcDbEntity
  8
ceco.net 214
100
AcDbCircle
 10
0.0
 20
355.6466914892199
 30
0.0
 40
355.6466914892199
  0
ARC
  5
7F97
330
1F
100
AcDbEntity
  8
ceco.net 214
100
AcDbCircle
 10
-2518.576963085803
 20
-94550.71460722473
 30
0.0
 40
94773.00154675134
100
AcDbArc
 50
88.66960759006987
 51
90.07322388804261
  0
ARC
  5
7F98
330
1F
100
AcDbEntity
  8
ceco.net 214
100
AcDbCircle
 10
20029.51826427906
 20
1158626.966813047
 30
0.0
 40
1158440.159508371
100
AcDbArc
 50
268.8921707407981
 51
268.9747095029449
  0
LINE
  5
7F99
330
1F
100
AcDbEntity
  8
ceco.net 214
100
AcDbLine
 10
-2583.795412018544
 20
370.0161017747777
 30
0.0
 11
-386.0348679147045
 21
320.5311637422215
 31
0.0
  0
ARC
  5
7F9A
330
1F
100
AcDbEntity
  8
ceco.net 214
100
AcDbCircle
 10
-2007.211398737406
 20
-2801.361977956881
 30
0.0
 40
4238.696752429567
100
AcDbArc
 50
84.13895957770092
 51
95.57036337246149
  0
ARC
  5
7F9B
330
1F
100
AcDbEntity
  8
ceco.net 214
100
AcDbCircle
 10
-2003.585095039874
 20
-2536.81364674267
 30
0.0
 40
4024.345984636343
100
AcDbArc
 50
84.05290953044985
 51
96.42219920181972
  0
ARC
  5
7F9C
330
1F
100
AcDbEntity
  8
ceco.net 214
100
AcDbCircle
 10
-2105.492991382976
 20
-2842.260103990316
 30
0.0
 40
4372.915489948354
100
AcDbArc
 50
81.93151251776399
 51
94.22383961415546
  0
ARC
  5
7F9D
330
1F
100
AcDbEntity
  8
ceco.net 214
100
AcDbCircle
 10
-3400.382316570095
 20
-59093.40319376449
 30
0.0
 40
60052.24553760108
100
AcDbArc
 50
89.353601319856
 51
90.35782866525662
  0
ARC
  5
7F9E
330
1F
100
AcDbEntity
  8
ceco.net 214
100
AcDbCircle
 10
-3895.946837048241
 20
-66386.52506432711
 30
0.0
 40
67450.58185746758
100
AcDbArc
 50
89.09062858689587
 51
90.04629082881516
  0
ARC
  5
7F9F
330
1F
100
AcDbEntity
  8
ceco.net 214
100
AcDbCircle
 10
-2739.251777323776
 20
674.9726619569687
 30
0.0
 40
982.3688546906018
100
AcDbArc
 50
352.2081062986139
 51
17.73686052588313
  0
ARC
  5
7FA0
330
1F
100
AcDbEntity
  8
ceco.net 214
100
AcDbCircle
 10
-2154.862456023012
 20
642.4709668517762
 30
0.0
 40
1480.418789818068
100
AcDbArc
 50
349.4840267159778
 51
9.937267729092317
  0
LINE
  5
7FA1
330
1F
100
AcDbEntity
  8
ceco.net 214
100
AcDbLine
 10
-386.0348679147045
 20
323.0282598939532
 30
0.0
 11
-386.0348679147045
 21
227.242290992799
 31
0.0
  0
ARC
  5
7FA2
330
1F
100
AcDbEntity
  8
ceco.net 214
100
AcDbCircle
 10
-411.9326951636867
 20
227.242290992799
 30
0.0
 40
25.89782724899339
100
AcDbArc
 50
268.7582591602284
 51
0.0000000000065138
  0
ARC
  5
7FA3
330
1F
100
AcDbEntity
  8
ceco.net 214
100
AcDbCircle
 10
18201.51459922212
 20
-1507.576482216566
 30
0.0
 40
20072.36058949809
100
AcDbArc
 50
174.1399579520615
 51
174.5692060985546
  0
ARC
  5
7FA4
330
1F
100
AcDbEntity
  8
ceco.net 214
100
AcDbCircle
 10
-2602.414473444689
 20
-1288.608742066229
 30
0.0
 40
2928.964211279078
100
AcDbArc
 50
55.17548275744513
 51
63.74017376076721
  0
ARC
  5
7FA5
330
1F
100
AcDbEntity
  8
ceco.net 214
100
AcDbCircle
 10
-3993.84555294152
 20
-4009.857119286343
 30
0.0
 40
6018.404950665603
100
AcDbArc
 50
57.17961761826004
 51
63.91539550541239
  0
ARC
  5
7FA6
330
1F
100
AcDbEntity
  8
ceco.net 214
100
AcDbCircle
 10
-4772.125631327201
 20
-5597.459262922978
 30
0.0
 40
7854.737959182163
100
AcDbArc
 50
57.57287729331079
 51
63.633727658219
  0
ARC
  5
7FA7
330
1F
100
AcDbEntity
  8
ceco.net 214
100
AcDbCircle
 10
-772.6630194265108
 20
1447.489119747366
 30
0.0
 40
408.4252926194994
100
AcDbArc
 50
276.9336274328873
 51
292.164573923978
  0
ARC
  5
7FA8
330
1F
100
AcDbEntity
  8
ceco.net 214
100
AcDbCircle
 10
-259.6730781411879
 20
1727.904522208541
 30
0.0
 40
827.888389413928
100
AcDbArc
 50
235.2281003914406
 51
256.7812288395614
  0
ARC
  5
7FA9
330
1F
100
AcDbEntity
  8
ceco.net 214
100
AcDbCircle
 10
-926.5950868040453
 20
806.9947775616208
 30
0.0
 40
247.2754527678553
100
AcDbArc
 50
21.58096973721265
 51
58.12057713863158
  0
ARC
  5
7FAA
330
1F
100
AcDbEntity
  8
ceco.net 214
100
AcDbCircle
 10
-804.9231348522061
 20
2947.686237797531
 30
0.0
 40
1930.735303470586
100
AcDbArc
 50
270.2647809514956
 51
282.0615363219199
  0
ARC
  5
7FAB
330
1F
100
AcDbEntity
  8
ceco.net 214
100
AcDbCircle
 10
-367.7011813367062
 20
1263.489637190684
 30
0.0
 40
234.9034694423707
100
AcDbArc
 50
246.6325179663581
 51
262.7428444561985
  0
LINE
  5
7FAC
330
1F
100
AcDbEntity
  8
ceco.net 214
100
AcDbLine
 10
-1962.965179835549
 20
1422.038692755621
 30
0.0
 11
-1869.775814783215
 21
1033.617503747239
 31
0.0
  0
LINE
  5
7FAD
330
1F
100
AcDbEntity
  8
ceco.net 214
100
AcDbLine
 10
-1886.515807398502
 20
1420.545591790858
 30
0.0
 11
-1775.270387030463
 21
1030.711042660197
 31
0.0
  0
ARC
  5
7FAE
330
1F
100
AcDbEntity
  8
ceco.net 214
100
AcDbCircle
 10
-6092.315737104267
 20
0.0202886810808423
 30
0.0
 40
4397.99724392421
100
AcDbArc
 50
12.7980937980702
 51
19.06700050298495
  0
ARC
  5
7FAF
330
1F
100
AcDbEntity
  8
ceco.net 214
100
AcDbCircle
 10
-1665.695630046139
 20
594.0699719791721
 30
0.0
 40
826.1698448133174
100
AcDbArc
 50
64.23045448835814
 51
83.65364023828638
  0
ARC
  5
7FB0
330
1F
100
AcDbEntity
  8
ceco.net 214
100
AcDbCircle
 10
-1610.586460529704
 20
942.9391534934559
 30
0.0
 40
523.4829436613696
100
AcDbArc
 50
59.8382029230385
 51
87.37619906295057
  0
ARC
  5
7FB1
330
1F
100
AcDbEntity
  8
ceco.net 214
100
AcDbCircle
 10
-1689.39429593271
 20
134.5677605961396
 30
0.0
 40
1367.165459385911
100
AcDbArc
 50
72.74131439081028
 51
81.68685022646959
  0
ARC
  5
7FB2
330
1F
100
AcDbEntity
  8
ceco.net 214
100
AcDbCircle
 10
-1000.435857603463
 20
841.257617423494
 30
0.0
 40
617.4879418225676
100
AcDbArc
 50
111.9595962494652
 51
119.943412432508
  0
ARC
  5
7FB3
330
1F
100
AcDbEntity
  8
ceco.net 214
100
AcDbCircle
 10
-1133.739449022345
 20
1157.816529647681
 30
0.0
 40
319.7465392978916
100
AcDbArc
 50
117.9844991779154
 51
131.9696686338957
  0
ARC
  5
7FB4
330
1F
100
AcDbEntity
  8
ceco.net 214
100
AcDbCircle
 10
-8322.342042707903
 20
-79306.50970703085
 30
0.0
 40
80726.91671197553
100
AcDbArc
 50
84.02711460404363
 51
84.36619522688596
  0
ARC
  5
7FB5
330
1F
100
AcDbEntity
  8
ceco.net 214
100
AcDbCircle
 10
-1759.148500588493
 20
-15618.68219001845
 30
0.0
 40
16592.44102521661
100
AcDbArc
 50
83.0181988618956
 51
85.47113065557281
  0
ARC
  5
7FB6
330
1F
100
AcDbEntity
  8
ceco.net 214
100
AcDbCircle
 10
-841.6125451412408
 20
-7360.225798787204
 30
0.0
 40
8259.444530285454
100
AcDbArc
 50
82.36751951681238
 51
88.99437046545362
  0
ARC
  5
7FB7
330
1F
100
AcDbEntity
  8
ceco.net 214
100
AcDbCircle
 10
1201.085720115757
 20
801.9823323130093
 30
0.0
 40
475.8029254308716
100
AcDbArc
 50
182.958490614111
 51
210.4145126488398
  0
ARC
  5
7FB8
330
1F
100
AcDbEntity
  8
ceco.net 214
100
AcDbCircle
 10
248.6000381786179
 20
18.88187604292443
 30
0.0
 40
871.4005715727125
100
AcDbArc
 50
62.3365294214566
 51
83.22646988143686
  0
ARC
  5
7FB9
330
1F
100
AcDbEntity
  8
ceco.net 214
100
AcDbCircle
 10
433.773781269323
 20
472.5437918664472
 30
0.0
 40
422.2560427665302
100
AcDbArc
 50
46.22226776705672
 51
69.19177519432558
  0
ARC
  5
7FBA
330
1F
100
AcDbEntity
  8
ceco.net 214
100
AcDbCircle
 10
469.5159080253834
 20
581.0325435329164
 30
0.0
 40
322.972879207656
100
AcDbArc
 50
356.4606043149304
 51
37.4505981938059
  0
ARC
  5
7FBB
330
1F
100
AcDbEntity
  8
ceco.net 214
100
AcDbCircle
 10
327.2887459084049
 20
566.0318950124641
 30
0.0
 40
189.4976501659176
100
AcDbArc
 50
50.51533920492589
 51
86.68033716301307
  0
ARC
  5
7FBC
330
1F
100
AcDbEntity
  8
ceco.net 214
100
AcDbCircle
 10
123.2843318455888
 20
165.7687887348296
 30
0.0
 40
635.5948607111018
100
AcDbArc
 50
50.53849634810298
 51
59.29977598555524
  0
ARC
  5
7FBD
330
1F
100
AcDbEntity
  8
ceco.net 214
100
AcDbCircle
 10
574.7881922893084
 20
721.5691977663093
 30
0.0
 40
80.60427738855615
100
AcDbArc
 50
233.8527622858888
 51
281.30869960888
  0
ARC
  5
7FBE
330
1F
100
AcDbEntity
  8
ceco.net 214
100
AcDbCircle
 10
666.2940029988367
 20
-1649.583163309606
 30
0.0
 40
2293.362719229268
100
AcDbArc
 50
89.2890941020739
 51
91.89157256634528
  0
ARC
  5
7FBF
330
1F
100
AcDbEntity
  8
ceco.net 214
100
AcDbCircle
 10
694.7669440008412
 20
656.6155573734688
 30
0.0
 40
13.01254354519894
100
AcDbArc
 50
269.9188399347792
 51
34.53788314376728
  0
ARC
  5
7FC0
330
1F
100
AcDbEntity
  8
ceco.net 214
100
AcDbCircle
 10
488.7265715089633
 20
575.9596757664301
 30
0.0
 40
233.9541446054837
100
AcDbArc
 50
22.10373510064198
 51
47.61752765962802
  0
ARC
  5
7FC1
330
1F
100
AcDbEntity
  8
ceco.net 214
100
AcDbCircle
 10
147.2238533046474
 20
-362.5590444786332
 30
0.0
 40
1218.303897383679
100
AcDbArc
 50
65.81057621807436
 51
84.79582366386527
  0
ARC
  5
7FC2
330
1F
100
AcDbEntity
  8
ceco.net 214
100
AcDbCircle
 10
-523.9041136359064
 20
-2838.296243402755
 30
0.0
 40
3867.56887490531
100
AcDbArc
 50
73.3573110026267
 51
81.04789259408658
  0
ARC
  5
7FC3
330
1F
100
AcDbEntity
  8
ceco.net 214
100
AcDbCircle
 10
-638.3115037343578
 20
-4667.851858729147
 30
0.0
 40
5639.57144623855
100
AcDbArc
 50
79.89281864966471
 51
89.57362357668975
  0
ARC
  5
7FC4
330
1F
100
AcDbEntity
  8
ceco.net 214
100
AcDbCircle
 10
172.9852254166653
 20
7331.389616764575
 30
0.0
 40
6659.47717000402
100
AcDbArc
 50
270.1165428589363
 51
272.7247663928488
  0
ARC
  5
7FC5
330
1F
100
AcDbEntity
  8
ceco.net 214
100
AcDbCircle
 10
344.5271031489046
 20
842.200417170282
 30
0.0
 40
87.21417497053163
100
AcDbArc
 50
174.3922643385319
 51
265.8805071534953
  0
LINE
  5
7FC6
330
1F
100
AcDbEntity
  8
ceco.net 214
100
AcDbLine
 10
-3950.442002752406
 20
1064.034779071167
 30
0.0
 11
-3939.658346990069
 21
1103.187546570615
 31
0.0
  0
ARC
  5
7FC7
330
1F
100
AcDbEntity
  8
ceco.net 214
100
AcDbCircle
 10
-3950.442002752406
 20
1064.034779071138
 30
0.0
 40
40.61066897344717
100
AcDbArc
 50
74.6011060608076
 51
178.3069677434889
  0
LINE
  5
7FC8
330
1F
100
AcDbEntity
  8
ceco.net 214
100
AcDbLine
 10
-3991.034943562359
 20
913.4228566578093
 30
0.0
 11
-3991.034943562359
 21
1065.234608588048
 31
0.0
  0
LINE
  5
7FC9
330
1F
100
AcDbEntity
  8
ceco.net 214
100
AcDbLine
 10
-3960.943181576147
 20
909.4639825206082
 30
0.0
 11
-3991.034943562359
 21
913.4228566578093
 31
0.0
  0
LINE
  5
7FCA
330
1F
100
AcDbEntity
  8
ceco.net 214
100
AcDbLine
 10
-3960.943181576147
 20
909.4639825206082
 30
0.0
 11
-3960.943181576147
 21
909.4639825206082
 31
0.0
  0
LINE
  5
7FCB
330
1F
100
AcDbEntity
  8
ceco.net 214
100
AcDbLine
 10
-3960.943181576147
 20
909.4639825206082
 30
0.0
 11
-3967.217619504756
 21
788.9337416118633
 31
0.0
  0
ARC
  5
7FCC
330
1F
100
AcDbEntity
  8
ceco.net 214
100
AcDbCircle
 10
-4029.623921111315
 20
769.0199780498893
 30
0.0
 40
65.5065222661526
100
AcDbArc
 50
321.5965895656862
 51
17.69781037665138
  0
LINE
  5
7FCD
330
1F
100
AcDbEntity
  8
ceco.net 214
100
AcDbLine
 10
-3860.795681240717
 20
1006.219520831482
 30
0.0
 11
-3555.144238971439
 21
1011.268806579027
 31
0.0
  0
ARC
  5
7FCE
330
1F
100
AcDbEntity
  8
ceco.net 214
100
AcDbCircle
 10
-4153.470701472772
 20
993.3783747495567
 30
0.0
 40
379.7297866107241
100
AcDbArc
 50
354.604330753589
 51
2.154375544799132
  0
ARC
  5
7FCF
330
1F
100
AcDbEntity
  8
ceco.net 214
100
AcDbCircle
 10
-3917.12925582934
 20
950.3595146545716
 30
0.0
 40
141.8942953001882
100
AcDbArc
 50
307.3105207303941
 51
2.95371614929605
  0
ARC
  5
7FD0
330
1F
100
AcDbEntity
  8
ceco.net 214
100
AcDbCircle
 10
-2968.18098974828
 20
345.4368663452438
 30
0.0
 40
385.9840924081804
100
AcDbArc
 50
9.268952157187602
 51
187.0109231864327
  0
ARC
  5
7FD1
330
1F
100
AcDbEntity
  8
ceco.net 214
100
AcDbCircle
 10
1647.836333800949
 20
3246.285882127924
 30
0.0
 40
4980.920011950136
100
AcDbArc
 50
204.7040579789761
 51
213.9528982117463
  0
ARC
  5
7FD2
330
1F
100
AcDbEntity
  8
ceco.net 214
100
AcDbCircle
 10
-3906.888101761683
 20
267.8475628298517
 30
0.0
 40
1327.031527885405
100
AcDbArc
 50
359.1669806688049
 51
6.045448329106555
  0
ARC
  5
7FD3
330
1F
100
AcDbEntity
  8
ceco.net 214
100
AcDbCircle
 10
-2554.101735541699
 20
248.178110530081
 30
0.0
 40
25.89782724899339
100
AcDbArc
 50
179.1669806688049
 51
270.0214709199593
  0
ARC
  5
7FD4
330
1F
100
AcDbEntity
  8
ceco.net 214
100
AcDbCircle
 10
-2370.445799176372
 20
539.0968699699761
 30
0.0
 40
135.778443030325
100
AcDbArc
 50
213.3833594137389
 51
271.1008392673272
  0
ARC
  5
7FD5
330
1F
100
AcDbEntity
  8
ceco.net 214
100
AcDbCircle
 10
-3409.339093617878
 20
306.1665298626383
 30
0.0
 40
58.58730144987018
100
AcDbArc
 50
267.2331589441415
 51
352.307461348882
  0
LINE
  5
7FD6
330
1F
100
AcDbEntity
  8
ceco.net 214
100
AcDbLine
 10
-3628.919874029124
 20
731.023729259115
 30
0.0
 11
-3087.240143544775
 21
712.5998240213329
 31
0.0
  0
ARC
  5
7FD7
330
1F
100
AcDbEntity
  8
ceco.net 214
100
AcDbCircle
 10
-1695.453495905307
 20
-2190.121978628823
 30
0.0
 40
3793.430101761588
100
AcDbArc
 50
107.429557118362
 51
118.4367472964477
  0
ARC
  5
7FD8
330
1F
100
AcDbEntity
  8
ceco.net 214
100
AcDbCircle
 10
-2359.087707830564
 20
-597.1576217171795
 30
0.0
 40
2004.403095683922
100
AcDbArc
 50
110.3545107716088
 51
126.6101118675065
  0
LINE
  5
7FD9
330
1F
100
AcDbEntity
  8
ceco.net 214
100
AcDbLine
 10
-2559.878604144385
 20
1381.213221128291
 30
0.0
 11
-2525.962214426592
 21
1050.142521228406
 31
0.0
  0
LINE
  5
7FDA
330
1F
100
AcDbEntity
  8
ceco.net 214
100
AcDbLine
 10
-2594.523812013096
 20
1371.982884179007
 30
0.0
 11
-2561.626276671546
 21
1050.857606956095
 31
0.0
  0
ARC
  5
7FDB
330
1F
100
AcDbEntity
  8
ceco.net 214
100
AcDbCircle
 10
-2824.250416688594
 20
1205.007873517051
 30
0.0
 40
66.62307586539668
100
AcDbArc
 50
104.3782410686506
 51
217.3347587912408
  0
ARC
  5
7FDC
330
1F
100
AcDbEntity
  8
ceco.net 214
100
AcDbCircle
 10
-2372.90082674203
 20
609.7756475824764
 30
0.0
 40
808.8379739292022
100
AcDbArc
 50
93.24272944508241
 51
125.3434422411541
  0
ARC
  5
7FDD
330
1F
100
AcDbEntity
  8
ceco.net 214
100
AcDbCircle
 10
-2831.15552612318
 20
1489.984423749604
 30
0.0
 40
2.589782724899339
100
AcDbArc
 50
102.6771773776749
 51
184.2875570913435
  0
ARC
  5
7FDE
330
1F
100
AcDbEntity
  8
ceco.net 214
100
AcDbCircle
 10
-2667.322258932532
 20
1502.267328794893
 30
0.0
 40
166.8828416005699
100
AcDbArc
 50
184.2875570913304
 51
204.3767873057053
  0
ARC
  5
7FDF
330
1F
100
AcDbEntity
  8
ceco.net 214
100
AcDbCircle
 10
-2779.25167422933
 20
1259.240347365788
 30
0.0
 40
239.0994836414468
100
AcDbArc
 50
64.60913503169414
 51
102.6771773777795
  0
ARC
  5
7FE0
330
1F
100
AcDbEntity
  8
ceco.net 214
100
AcDbCircle
 10
-3196.532659679689
 20
868.8737975686576
 30
0.0
 40
610.8296527488039
100
AcDbArc
 50
55.68287640578464
 51
61.45171737229905
  0
ARC
  5
7FE1
330
1F
100
AcDbEntity
  8
ceco.net 214
100
AcDbCircle
 10
-3251.105252219121
 20
483.7271543584754
 30
0.0
 40
1043.211033047279
100
AcDbArc
 50
61.89173495367143
 51
65.55038604167106
  0
ARC
  5
7FE2
330
1F
100
AcDbEntity
  8
ceco.net 214
100
AcDbCircle
 10
-2245.58811013287
 20
-257.4992752902872
 30
0.0
 40
1785.575472363401
100
AcDbArc
 50
95.84968025212688
 51
109.1628567663839
  0
ARC
  5
7FE3
330
1F
100
AcDbEntity
  8
ceco.net 214
100
AcDbCircle
 10
-2312.89604592367
 20
-106.1932982018865
 30
0.0
 40
1574.781042996017
100
AcDbArc
 50
95.13064854790149
 51
118.167588427662
  0
ARC
  5
7FE4
330
1F
100
AcDbEntity
  8
ceco.net 214
100
AcDbCircle
 10
-3505.529316620914
 20
-23617.45691284227
 30
0.0
 40
24774.26976521736
100
AcDbArc
 50
89.59490553167546
 51
89.94329925174385
  0
ARC
  5
7FE5
330
1F
100
AcDbEntity
  8
ceco.net 214
100
AcDbCircle
 10
-3186.066942804973
 20
2784.563411127241
 30
0.0
 40
1669.100306729556
100
AcDbArc
 50
259.0946072910328
 51
263.2790069052611
  0
ARC
  5
7FE6
330
1F
100
AcDbEntity
  8
ceco.net 214
100
AcDbCircle
 10
-3654.042762218519
 20
864.5161176524263
 30
0.0
 40
135.835846778134
100
AcDbArc
 50
191.9663254093642
 51
280.6582380461833
  0
ARC
  5
7FE7
330
1F
100
AcDbEntity
  8
ceco.net 214
100
AcDbCircle
 10
-19638.78697353086
 20
22082.75224317721
 30
0.0
 40
26508.31903066994
100
AcDbArc
 50
306.7264828973464
 51
307.3560118563064
  0
ARC
  5
7FE8
330
1F
100
AcDbEntity
  8
ceco.net 214
100
AcDbCircle
 10
-3898.190562945265
 20
1082.100354311319
 30
0.0
 40
253.6265740851281
100
AcDbArc
 50
254.7979938437752
 51
285.3335202644384
  0
ARC
  5
7FE9
330
1F
100
AcDbEntity
  8
ceco.net 214
100
AcDbCircle
 10
-3820.917769892311
 20
751.6718378467495
 30
0.0
 40
210.9632120489072
100
AcDbArc
 50
77.54631243360283
 51
131.585984387672
  0
ARC
  5
7FEA
330
1F
100
AcDbEntity
  8
ceco.net 214
100
AcDbCircle
 10
-3955.519138843865
 20
1110.906812908224
 30
0.0
 40
322.1855258849898
100
AcDbArc
 50
267.9191463193705
 51
301.5523277311665
  0
ARC
  5
7FEB
330
1F
100
AcDbEntity
  8
ceco.net 214
100
AcDbCircle
 10
-3974.367503508665
 20
3742.119334194547
 30
0.0
 40
2639.160037829869
100
AcDbArc
 50
270.7535524499319
 51
280.3141084497318
  0
ARC
  5
7FEC
330
1F
100
AcDbEntity
  8
ceco.net 214
100
AcDbCircle
 10
-3869.054938357521
 20
914.5613665948223
 30
0.0
 40
92.02952008021481
100
AcDbArc
 50
84.85102029225911
 51
183.175156563305
  0
LINE
  5
7FED
330
1F
100
AcDbEntity
  8
ceco.net 214
100
AcDbLine
 10
-493.3055232879324
 20
600.1810378678086
 30
0.0
 11
-577.53881967107
 21
600.1810378678086
 31
0.0
  0
ARC
  5
7FEE
330
1F
100
AcDbEntity
  8
ceco.net 214
100
AcDbCircle
 10
-577.5388196710991
 20
587.2321242433463
 30
0.0
 40
12.9489136244623
100
AcDbArc
 50
89.99999999989578
 51
179.9999999998762
  0
LINE
  5
7FEF
330
1F
100
AcDbEntity
  8
ceco.net 214
100
AcDbLine
 10
-590.4877332955602
 20
587.2321242433749
 30
0.0
 11
-590.4877332955602
 21
576.8325259249061
 31
0.0
  0
LINE
  5
7FF0
330
1F
100
AcDbEntity
  8
ceco.net 214
100
AcDbLine
 10
-590.4877332955602
 20
576.8325259249061
 30
0.0
 11
-480.3566096634404
 21
576.8325259249061
 31
0.0
  0
LINE
  5
7FF1
330
1F
100
AcDbEntity
  8
ceco.net 214
100
AcDbLine
 10
-480.3566096634404
 20
576.8325259249061
 30
0.0
 11
-480.3566096634404
 21
587.2321242433458
 31
0.0
  0
ARC
  5
7FF2
330
1F
100
AcDbEntity
  8
ceco.net 214
100
AcDbCircle
 10
-493.3055232879196
 20
587.2321242433313
 30
0.0
 40
12.94891362447731
100
AcDbArc
 50
0.0000000000651378
 51
90.00000000010421
  0
CIRCLE
  5
7FF3
330
1F
100
AcDbEntity
  8
ceco.net 214
100
AcDbCircle
 10
-2965.730656817374
 20
364.2883352546526
 30
0.0
 40
355.6466914892199
  0
ELLIPSE
  5
7FF4
330
1F
100
AcDbEntity
  8
ceco.net 214
100
AcDbEllipse
 10
-3034.515234264319
 20
385.7802168229171
 30
0.0
 11
42.56958720431844
 21
-13.30095437905777
 31
0.0
210
0.0
220
0.0
230
1.0
 40
0.5528833070396523
 41
1.570796326794896
 42
4.712388980384689
  0
ELLIPSE
  5
7FF5
330
1F
100
AcDbEntity
  8
ceco.net 214
100
AcDbEllipse
 10
-2896.946079370429
 20
385.7802168229171
 30
0.0
 11
-42.56958720431844
 21
-13.30095437905777
 31
0.0
210
0.0
220
0.0
230
-1.0
 40
0.5528833070396523
 41
1.570796326794896
 42
4.712388980384689
  0
ELLIPSE
  5
7FF6
330
1F
100
AcDbEntity
  8
ceco.net 214
100
AcDbEllipse
 10
-3008.418056995115
 20
306.227979296696
 30
0.0
 11
26.41849484054848
 21
35.93255171150196
 31
0.0
210
0.0
220
0.0
230
1.0
 40
0.5528833070396524
 41
1.570796326794896
 42
4.712388980384689
  0
ELLIPSE
  5
7FF7
330
1F
100
AcDbEntity
  8
ceco.net 214
100
AcDbEllipse
 10
-2923.043256639632
 20
306.227979296696
 30
0.0
 11
-26.41849484054848
 21
35.93255171150196
 31
0.0
210
0.0
220
0.0
230
-1.0
 40
0.5528833070396524
 41
1.570796326794896
 42
4.712388980384689
  0
ELLIPSE
  5
7FF8
330
1F
100
AcDbEntity
  8
ceco.net 214
100
AcDbEllipse
 10
-2965.730656817381
 20
436.3523281213955
 30
0.0
 11
0.0000000000140474
 21
-44.59916077842552
 31
0.0
210
0.0
220
0.0
230
1.0
 40
0.5528833070396524
 41
1.570796326794896
 42
4.712388980384689
  0
LINE
  5
7FF9
330
1F
100
AcDbEntity
  8
ceco.net 214
100
AcDbLine
 10
-3180.207735065862
 20
243.8770141286227
 30
0.0
 11
-3199.277327117406
 21
237.9186811833845
 31
0.0
  0
ARC
  5
7FFA
330
1F
100
AcDbEntity
  8
ceco.net 214
100
AcDbCircle
 10
-3202.349566104524
 20
247.7513549710956
 30
0.0
 40
10.30146233355882
100
AcDbArc
 50
206.220668618358
 51
287.3515211906445
  0
LINE
  5
7FFB
330
1F
100
AcDbEntity
  8
ceco.net 214
100
AcDbLine
 10
-3059.394838005559
 20
250.700237242603
 30
0.0
 11
-3113.174382861196
 21
177.5531375229518
 31
0.0
  0
LINE
  5
7FFC
330
1F
100
AcDbEntity
  8
ceco.net 214
100
AcDbLine
 10
-3046.215925600652
 20
241.0107770515007
 30
0.0
 11
-3099.995470456284
 21
167.8636773318496
 31
0.0
  0
ARC
  5
7FFD
330
1F
100
AcDbEntity
  8
ceco.net 214
100
AcDbCircle
 10
-2965.730656817374
 20
364.2883352546441
 30
0.0
 40
245.9660613770351
100
AcDbArc
 50
209.3106442318817
 51
221.7166375540999
  0
ARC
  5
7FFE
330
1F
100
AcDbEntity
  8
ceco.net 214
100
AcDbCircle
 10
-4775.162784576561
 20
1457.127889493408
 30
0.0
 40
2072.904064500062
100
AcDbArc
 50
322.736644383019
 51
325.275683566035
  0
ARC
  5
7FFF
330
1F
100
AcDbEntity
  8
ceco.net 214
100
AcDbCircle
 10
-3009.674310681859
 20
230.3345381088368
 30
0.0
 40
10.88309450757763
100
AcDbArc
 50
2.537895420456204
 51
141.1378651748221
  0
ARC
  5
8000
330
1F
100
AcDbEntity
  8
ceco.net 214
100
AcDbCircle
 10
-2921.787002952886
 20
230.3345381088368
 30
0.0
 40
10.88309450757763
100
AcDbArc
 50
38.86213482517788
 51
177.4621045795437
  0
ARC
  5
8001
330
1F
100
AcDbEntity
  8
ceco.net 214
100
AcDbCircle
 10
-2965.730656817374
 20
364.2883352546441
 30
0.0
 40
245.9660613770351
100
AcDbArc
 50
318.2833624459
 51
330.6893557681182
  0
LINE
  5
8002
330
1F
100
AcDbEntity
  8
ceco.net 214
100
AcDbLine
 10
-2872.066475629189
 20
250.700237242603
 30
0.0
 11
-2818.286930773551
 21
177.5531375229518
 31
0.0
  0
LINE
  5
8003
330
1F
100
AcDbEntity
  8
ceco.net 214
100
AcDbLine
 10
-2885.245388034091
 20
241.0107770515007
 30
0.0
 11
-2831.465843178457
 21
167.8636773318496
 31
0.0
  0
LINE
  5
8004
330
1F
100
AcDbEntity
  8
ceco.net 214
100
AcDbLine
 10
-2973.90943073177
 20
261.2569191005066
 30
0.0
 11
-2973.909430731764
 21
126.5010477920065
 31
0.0
  0
LINE
  5
8005
330
1F
100
AcDbEntity
  8
ceco.net 214
100
AcDbLine
 10
-2957.551882902977
 20
261.2569191005066
 30
0.0
 11
-2957.551882902977
 21
126.5010477920065
 31
0.0
  0
ARC
  5
8006
330
1F
100
AcDbEntity
  8
ceco.net 214
100
AcDbCircle
 10
-1156.298529058181
 20
1457.127889493408
 30
0.0
 40
2072.904064500062
100
AcDbArc
 50
214.7243164339649
 51
217.263355616981
  0
ARC
  5
8007
330
1F
100
AcDbEntity
  8
ceco.net 214
100
AcDbCircle
 10
-2729.111747530222
 20
247.7513549710956
 30
0.0
 40
10.30146233355882
100
AcDbArc
 50
252.6484788093554
 51
333.7793313816419
  0
LINE
  5
8008
330
1F
100
AcDbEntity
  8
ceco.net 214
100
AcDbLine
 10
-2751.253578568883
 20
243.8770141286227
 30
0.0
 11
-2732.183986517338
 21
237.9186811833845
 31
0.0
  0
CIRCLE
  5
8009
330
1F
100
AcDbEntity
  8
ceco.net 214
100
AcDbCircle
 10
-2965.730656817374
 20
364.2883352546441
 30
0.0
 40
301.96994258248
  0
ARC
  5
800A
330
1F
100
AcDbEntity
  8
ceco.net 214
100
AcDbCircle
 10
-2965.730656817374
 20
364.2883352546441
 30
0.0
 40
274.0615351379665
100
AcDbArc
 50
272.174544491751
 51
278.8691474277574
  0
ARC
  5
800B
330
1F
100
AcDbEntity
  8
ceco.net 214
100
AcDbCircle
 10
-860.563474618304
 20
172.9403505039748
 30
0.0
 40
2072.904064500062
100
AcDbArc
 50
178.4000770292791
 51
180.9391162122751
  0
ARC
  5
800C
330
1F
100
AcDbEntity
  8
ceco.net 214
100
AcDbCircle
 10
-2917.621008816133
 20
138.9643199218143
 30
0.0
 40
15.5680895390838
100
AcDbArc
 50
179.9953425852474
 51
280.5780628975626
  0
ARC
  5
800D
330
1F
100
AcDbEntity
  8
ceco.net 214
100
AcDbCircle
 10
-2925.064559173341
 20
103.6820335114526
 30
0.0
 40
10.30146233355882
100
AcDbArc
 50
278.8691474277574
 51
0.0
  0
LINE
  5
800E
330
1F
100
AcDbEntity
  8
ceco.net 214
100
AcDbLine
 10
-2914.76309683979
 20
123.6607990513617
 30
0.0
 11
-2914.76309683979
 21
103.6820335114526
 31
0.0
  0
ARC
  5
800F
330
1F
100
AcDbEntity
  8
ceco.net 214
100
AcDbCircle
 10
-2871.019930243739
 20
154.2518422625753
 30
0.0
 40
15.5680895390838
100
AcDbArc
 50
295.746176507144
 51
36.32889681942438
  0
ARC
  5
8010
330
1F
100
AcDbEntity
  8
ceco.net 214
100
AcDbCircle
 10
-2965.730656817374
 20
364.2883352546441
 30
0.0
 40
274.0615351379665
100
AcDbArc
 50
308.4987838964352
 51
315.1933868324544
  0
ARC
  5
8011
330
1F
100
AcDbEntity
  8
ceco.net 214
100
AcDbCircle
 10
-2844.123221007832
 20
130.2349063934455
 30
0.0
 40
10.30146233355882
100
AcDbArc
 50
216.3242394046854
 51
297.4550919769301
  0
ARC
  5
8012
330
1F
100
AcDbEntity
  8
ceco.net 214
100
AcDbCircle
 10
-2799.135792269895
 20
154.8407616322424
 30
0.0
 40
6.438413958474266
100
AcDbArc
 50
234.8213992273366
 51
308.4987838964392
  0
ARC
  5
8013
330
1F
100
AcDbEntity
  8
ceco.net 214
100
AcDbCircle
 10
-2815.498546168313
 20
142.810462951715
 30
0.0
 40
6.438413958474266
100
AcDbArc
 50
304.1496949129206
 51
17.82707958205038
  0
LINE
  5
8014
330
1F
100
AcDbEntity
  8
ceco.net 214
100
AcDbLine
 10
-2813.276307651754
 20
156.9308072010597
 30
0.0
 11
-2802.845136922918
 21
149.5782587537944
 31
0.0
  0
LINE
  5
8015
330
1F
100
AcDbEntity
  8
ceco.net 214
100
AcDbLine
 10
-2813.276307651754
 20
156.9308072010597
 30
0.0
 11
-2809.369273903265
 21
144.7815529551538
 31
0.0
  0
LINE
  5
8016
330
1F
100
AcDbEntity
  8
ceco.net 214
100
AcDbLine
 10
-2864.257383325428
 20
140.229240111959
 30
0.0
 11
-2852.422880049478
 21
124.1327931527696
 31
0.0
  0
ARC
  5
8017
330
1F
100
AcDbEntity
  8
ceco.net 214
100
AcDbCircle
 10
-2965.730656817374
 20
364.2883352546441
 30
0.0
 40
274.0615351379665
100
AcDbArc
 50
297.4550919769301
 51
304.1496949129206
  0
ARC
  5
8018
330
1F
100
AcDbEntity
  8
ceco.net 214
100
AcDbCircle
 10
-2793.49818389454
 20
211.2477348003966
 30
0.0
 40
15.5680895390838
100
AcDbArc
 50
216.3195819899782
 51
316.9023023022479
  0
ARC
  5
8019
330
1F
100
AcDbEntity
  8
ceco.net 214
100
AcDbCircle
 10
-2824.876386976002
 20
172.7084074273944
 30
0.0
 40
8.178773914393614
100
AcDbArc
 50
216.3242394046854
 51
36.32423940468546
  0
ARC
  5
801A
330
1F
100
AcDbEntity
  8
ceco.net 214
100
AcDbCircle
 10
-2778.595680534214
 20
178.412364087419
 30
0.0
 40
10.30146233355882
100
AcDbArc
 50
315.1933868324499
 51
36.32423940468546
  0
LINE
  5
801B
330
1F
100
AcDbEntity
  8
ceco.net 214
100
AcDbLine
 10
-2782.130524768523
 20
200.6109242872887
 30
0.0
 11
-2770.296021492577
 21
184.5144773280993
 31
0.0
  0
ARC
  5
801C
330
1F
100
AcDbEntity
  8
ceco.net 214
100
AcDbCircle
 10
-2965.730656817374
 20
364.2883352546441
 30
0.0
 40
245.9660613770351
100
AcDbArc
 50
281.9591230411349
 51
294.365116363582
  0
ARC
  5
801D
330
1F
100
AcDbEntity
  8
ceco.net 214
100
AcDbCircle
 10
-4548.471265738509
 20
-1036.880848373104
 30
0.0
 40
2072.904064500062
100
AcDbArc
 50
35.38512319240319
 51
37.92416237542518
  0
ARC
  5
801E
330
1F
100
AcDbEntity
  8
ceco.net 214
100
AcDbCircle
 10
-2965.730656817374
 20
364.2883352546441
 30
0.0
 40
274.0615351379665
100
AcDbArc
 50
235.8503050870793
 51
242.5449080230698
  0
ARC
  5
801F
330
1F
100
AcDbEntity
  8
ceco.net 214
100
AcDbCircle
 10
-3106.584926658746
 20
172.7084074273944
 30
0.0
 40
8.178773914393614
100
AcDbArc
 50
143.6757605953145
 51
323.6757605953145
  0
ARC
  5
8020
330
1F
100
AcDbEntity
  8
ceco.net 214
100
AcDbCircle
 10
-3060.441383391002
 20
154.2518422625753
 30
0.0
 40
15.5680895390838
100
AcDbArc
 50
143.6711031805756
 51
244.2538234928559
  0
ARC
  5
8021
330
1F
100
AcDbEntity
  8
ceco.net 214
100
AcDbCircle
 10
-3087.338092626914
 20
130.2349063934455
 30
0.0
 40
10.30146233355882
100
AcDbArc
 50
242.5449080230698
 51
323.6757605953145
  0
LINE
  5
8022
330
1F
100
AcDbEntity
  8
ceco.net 214
100
AcDbLine
 10
-3067.20393030932
 20
140.229240111959
 30
0.0
 11
-3079.03843358527
 21
124.1327931527696
 31
0.0
  0
ARC
  5
8023
330
1F
100
AcDbEntity
  8
ceco.net 214
100
AcDbCircle
 10
-5070.897839016436
 20
172.9403505039748
 30
0.0
 40
2072.904064500062
100
AcDbArc
 50
359.0608837877248
 51
1.599922970720856
  0
ARC
  5
8024
330
1F
100
AcDbEntity
  8
ceco.net 214
100
AcDbCircle
 10
-3013.840304818615
 20
138.9643199218143
 30
0.0
 40
15.5680895390838
100
AcDbArc
 50
259.4219371024373
 51
0.0046574147525788
  0
ARC
  5
8025
330
1F
100
AcDbEntity
  8
ceco.net 214
100
AcDbCircle
 10
-2965.730656817374
 20
126.5010477920065
 30
0.0
 40
8.178773914393614
100
AcDbArc
 50
180.0
 51
0.0
  0
ARC
  5
8026
330
1F
100
AcDbEntity
  8
ceco.net 214
100
AcDbCircle
 10
-3006.396754461402
 20
103.6820335114526
 30
0.0
 40
10.30146233355882
100
AcDbArc
 50
180.0
 51
261.1308525722425
  0
LINE
  5
8027
330
1F
100
AcDbEntity
  8
ceco.net 214
100
AcDbLine
 10
-3016.698216794957
 20
123.6607990513617
 30
0.0
 11
-3016.698216794957
 21
103.6820335114526
 31
0.0
  0
ARC
  5
8028
330
1F
100
AcDbEntity
  8
ceco.net 214
100
AcDbCircle
 10
-2965.730656817374
 20
364.2883352546441
 30
0.0
 40
274.0615351379665
100
AcDbArc
 50
261.1308525722425
 51
267.8254555082489
  0
ARC
  5
8029
330
1F
100
AcDbEntity
  8
ceco.net 214
100
AcDbCircle
 10
-2975.885308479084
 20
96.8579367590109
 30
0.0
 40
6.438413958474266
100
AcDbArc
 50
267.8254555082489
 51
341.5028401773575
  0
ARC
  5
802A
330
1F
100
AcDbEntity
  8
ceco.net 214
100
AcDbCircle
 10
-2955.576005155663
 20
96.8579367590109
 30
0.0
 40
6.438413958474266
100
AcDbArc
 50
198.4971598226362
 51
272.174544491751
  0
LINE
  5
802B
330
1F
100
AcDbEntity
  8
ceco.net 214
100
AcDbLine
 10
-2965.730656817374
 20
106.9180319560554
 30
0.0
 11
-2969.779506958372
 21
94.81530069492317
 31
0.0
  0
LINE
  5
802C
330
1F
100
AcDbEntity
  8
ceco.net 214
100
AcDbLine
 10
-2965.730656817374
 20
106.9180319560554
 30
0.0
 11
-2961.681806676379
 21
94.81530069492317
 31
0.0
  0
ARC
  5
802D
330
1F
100
AcDbEntity
  8
ceco.net 214
100
AcDbCircle
 10
-2965.730656817374
 20
364.2883352546441
 30
0.0
 40
245.9660613770351
100
AcDbArc
 50
245.634883636418
 51
258.0408769588649
  0
ARC
  5
802E
330
1F
100
AcDbEntity
  8
ceco.net 214
100
AcDbCircle
 10
-1382.990047896239
 20
-1036.880848373104
 30
0.0
 40
2072.904064500062
100
AcDbArc
 50
142.0758376245748
 51
144.6148768075967
  0
ARC
  5
802F
330
1F
100
AcDbEntity
  8
ceco.net 214
100
AcDbCircle
 10
-2965.730656817374
 20
364.2883352546441
 30
0.0
 40
274.0615351379665
100
AcDbArc
 50
224.8066131675455
 51
231.5012161035647
  0
ARC
  5
8030
330
1F
100
AcDbEntity
  8
ceco.net 214
100
AcDbCircle
 10
-3132.325521364848
 20
154.8407616322424
 30
0.0
 40
6.438413958474266
100
AcDbArc
 50
231.5012161035607
 51
305.1786007726632
  0
ARC
  5
8031
330
1F
100
AcDbEntity
  8
ceco.net 214
100
AcDbCircle
 10
-3115.962767466435
 20
142.810462951715
 30
0.0
 40
6.438413958474266
100
AcDbArc
 50
162.1729204179496
 51
235.8503050870793
  0
LINE
  5
8032
330
1F
100
AcDbEntity
  8
ceco.net 214
100
AcDbLine
 10
-3118.18500598299
 20
156.9308072010597
 30
0.0
 11
-3128.616176711823
 21
149.5782587537944
 31
0.0
  0
LINE
  5
8033
330
1F
100
AcDbEntity
  8
ceco.net 214
100
AcDbLine
 10
-3118.18500598299
 20
156.9308072010597
 30
0.0
 11
-3122.092039731482
 21
144.7815529551538
 31
0.0
  0
ARC
  5
8034
330
1F
100
AcDbEntity
  8
ceco.net 214
100
AcDbCircle
 10
-3137.963129740207
 20
211.2477348003966
 30
0.0
 40
15.5680895390838
100
AcDbArc
 50
223.0976976977521
 51
323.6804180100218
  0
ARC
  5
8035
330
1F
100
AcDbEntity
  8
ceco.net 214
100
AcDbCircle
 10
-3152.865633100527
 20
178.412364087419
 30
0.0
 40
10.30146233355882
100
AcDbArc
 50
143.6757605953145
 51
224.8066131675501
  0
LINE
  5
8036
330
1F
100
AcDbEntity
  8
ceco.net 214
100
AcDbLine
 10
-3149.330788866224
 20
200.6109242872887
 30
0.0
 11
-3161.165292142166
 21
184.5144773280993
 31
0.0
  0
CIRCLE
  5
8037
330
1F
100
AcDbEntity
  8
ceco.net 214
100
AcDbCircle
 10
-2965.730656817374
 20
364.2883352546526
 30
0.0
 40
39.69034659226095
  0
CIRCLE
  5
8038
330
1F
100
AcDbEntity
  8
ceco.net 214
100
AcDbCircle
 10
-2965.730656817374
 20
364.2883352546526
 30
0.0
 40
42.99787544151987
  0
ARC
  5
8039
330
1F
100
AcDbEntity
  8
ceco.net 214
100
AcDbCircle
 10
-2923.043256639621
 20
306.2279792966918
 30
0.0
 40
24.65813150236753
100
AcDbArc
 50
36.32423940468546
 51
216.3242394046592
  0
CIRCLE
  5
803A
330
1F
100
AcDbEntity
  8
ceco.net 214
100
AcDbCircle
 10
-2923.043256639621
 20
306.2279792966918
 30
0.0
 40
17.4132067629984
  0
LINE
  5
803B
330
1F
100
AcDbEntity
  8
ceco.net 214
100
AcDbLine
 10
-2998.975844552944
 20
383.8439584366258
 30
0.0
 11
-2989.401077612894
 21
376.178106071363
 31
0.0
  0
ARC
  5
803C
330
1F
100
AcDbEntity
  8
ceco.net 214
100
AcDbCircle
 10
-2990.418352881639
 20
389.3506287682636
 30
0.0
 40
3.238590713998124
100
AcDbArc
 50
3.541126482841619
 51
141.59765981612
  0
LINE
  5
803D
330
1F
100
AcDbEntity
  8
ceco.net 214
100
AcDbLine
 10
-2990.361841255587
 20
386.8854370549484
 30
0.0
 11
-2992.678280140837
 21
383.9923488827296
 31
0.0
  0
ARC
  5
803E
330
1F
100
AcDbEntity
  8
ceco.net 214
100
AcDbCircle
 10
-2991.118935273809
 20
387.4834094445779
 30
0.0
 40
0.9647602454639951
100
AcDbArc
 50
321.6974104241667
 51
142.4622715351286
  0
ARC
  5
803F
330
1F
100
AcDbEntity
  8
ceco.net 214
100
AcDbCircle
 10
-860.563474618304
 20
555.6363200053177
 30
0.0
 40
2072.904064500062
100
AcDbArc
 50
179.0608837877248
 51
181.5999229707208
  0
ARC
  5
8040
330
1F
100
AcDbEntity
  8
ceco.net 214
100
AcDbCircle
 10
-2965.730656817374
 20
364.2883352546441
 30
0.0
 40
245.9660613770351
100
AcDbArc
 50
29.31064423188174
 51
41.71663755409993
  0
ARC
  5
8041
330
1F
100
AcDbEntity
  8
ceco.net 214
100
AcDbCircle
 10
-4548.471265738509
 20
1765.4575188824
 30
0.0
 40
2072.904064500062
100
AcDbArc
 50
322.0758376245748
 51
324.6148768075968
  0
LINE
  5
8042
330
1F
100
AcDbEntity
  8
ceco.net 214
100
AcDbLine
 10
-2898.110120913509
 20
442.4537251759249
 30
0.0
 11
-2818.286930773551
 21
551.0235329863406
 31
0.0
  0
LINE
  5
8043
330
1F
100
AcDbEntity
  8
ceco.net 214
100
AcDbLine
 10
-2911.289033318415
 20
452.143185367023
 30
0.0
 11
-2831.465843178457
 21
560.7129931774385
 31
0.0
  0
ARC
  5
8044
330
1F
100
AcDbEntity
  8
ceco.net 214
100
AcDbCircle
 10
-1156.298529058181
 20
-728.5512189841197
 30
0.0
 40
2072.904064500062
100
AcDbArc
 50
142.736644383019
 51
145.275683566035
  0
LINE
  5
8045
330
1F
100
AcDbEntity
  8
ceco.net 214
100
AcDbLine
 10
-2827.861501645076
 20
415.9345442125457
 30
0.0
 11
-2741.20353576333
 21
443.0110024652821
 31
0.0
  0
LINE
  5
8046
330
1F
100
AcDbEntity
  8
ceco.net 214
100
AcDbLine
 10
-2869.827072951866
 20
325.7543546762255
 30
0.0
 11
-2741.20353576333
 21
285.5656680440103
 31
0.0
  0
ARC
  5
8047
330
1F
100
AcDbEntity
  8
ceco.net 214
100
AcDbCircle
 10
-3410.921274330098
 20
-1702.145363259505
 30
0.0
 40
2072.904064500062
100
AcDbArc
 50
71.70936259714159
 51
74.24840178010737
  0
ARC
  5
8048
330
1F
100
AcDbEntity
  8
ceco.net 214
100
AcDbCircle
 10
-3410.921274330098
 20
2430.722033768802
 30
0.0
 40
2072.904064500062
100
AcDbArc
 50
285.7515982198926
 51
288.2906374028584
  0
ARC
  5
8049
330
1F
100
AcDbEntity
  8
ceco.net 214
100
AcDbCircle
 10
-2155.259411551105
 20
-1588.012685815745
 30
0.0
 40
2072.904064500062
100
AcDbArc
 50
106.4124049782992
 51
108.9514441613738
  0
LINE
  5
804A
330
1F
100
AcDbEntity
  8
ceco.net 214
100
AcDbLine
 10
-2822.983136365856
 20
400.3213791530952
 30
0.0
 11
-2736.325170484115
 21
427.3978374058359
 31
0.0
  0
ARC
  5
804B
330
1F
100
AcDbEntity
  8
ceco.net 214
100
AcDbCircle
 10
-2155.259411551105
 20
2316.589356325033
 30
0.0
 40
2072.904064500062
100
AcDbArc
 50
251.0485558386261
 51
253.5875950217008
  0
LINE
  5
804C
330
1F
100
AcDbEntity
  8
ceco.net 214
100
AcDbLine
 10
-2864.948707672647
 20
341.367519735676
 30
0.0
 11
-2736.325170484115
 21
301.1788331034565
 31
0.0
  0
ARC
  5
804D
330
1F
100
AcDbEntity
  8
ceco.net 214
100
AcDbCircle
 10
-2729.111747530222
 20
480.8253155381928
 30
0.0
 40
10.30146233355882
100
AcDbArc
 50
26.22066861835808
 51
107.3515211906445
  0
LINE
  5
804E
330
1F
100
AcDbEntity
  8
ceco.net 214
100
AcDbLine
 10
-2751.253578568883
 20
484.6996563806654
 30
0.0
 11
-2732.183986517338
 21
490.6579893259079
 31
0.0
  0
ARC
  5
804F
330
1F
100
AcDbEntity
  8
ceco.net 214
100
AcDbCircle
 10
-2765.00835777782
 20
251.1688904859283
 30
0.0
 40
15.5680895390838
100
AcDbArc
 50
332.0704159118649
 51
72.65313622414919
  0
ARC
  5
8050
330
1F
100
AcDbEntity
  8
ceco.net 214
100
AcDbCircle
 10
-2965.730656817374
 20
364.2883352546441
 30
0.0
 40
245.9660613770351
100
AcDbArc
 50
0.0
 51
5.392398149167521
  0
ARC
  5
8051
330
1F
100
AcDbEntity
  8
ceco.net 214
100
AcDbCircle
 10
-2965.730656817374
 20
364.2883352546441
 30
0.0
 40
245.9660613770351
100
AcDbArc
 50
354.6076018508324
 51
0.0
  0
ARC
  5
8052
330
1F
100
AcDbEntity
  8
ceco.net 214
100
AcDbCircle
 10
-2736.312560722987
 20
343.0095359246539
 30
0.0
 40
15.5680895390838
100
AcDbArc
 50
252.6438213946263
 51
353.2265417069258
  0
ARC
  5
8053
330
1F
100
AcDbEntity
  8
ceco.net 214
100
AcDbCircle
 10
-2704.855779476263
 20
325.3823668422595
 30
0.0
 40
10.30146233355882
100
AcDbArc
 50
351.5176262371531
 51
72.64847880935544
  0
LINE
  5
8054
330
1F
100
AcDbEntity
  8
ceco.net 214
100
AcDbLine
 10
-2720.853132540691
 20
341.1733735752174
 30
0.0
 11
-2701.783540489147
 21
335.215040629979
 31
0.0
  0
ARC
  5
8055
330
1F
100
AcDbEntity
  8
ceco.net 214
100
AcDbCircle
 10
-2965.730656817402
 20
364.2883352546184
 30
0.0
 40
274.0615351379665
100
AcDbArc
 50
344.8230233011857
 51
351.5176262371659
  0
ARC
  5
8056
330
1F
100
AcDbEntity
  8
ceco.net 214
100
AcDbCircle
 10
-2707.441755697413
 20
294.2242321194902
 30
0.0
 40
6.438413958474266
100
AcDbArc
 50
271.1456386320097
 51
344.823023301192
  0
ARC
  5
8057
330
1F
100
AcDbEntity
  8
ceco.net 214
100
AcDbCircle
 10
-2713.498666012767
 20
274.8391440641221
 30
0.0
 40
6.438413958474266
100
AcDbArc
 50
340.4739343176174
 51
54.15131898675385
  0
LINE
  5
8058
330
1F
100
AcDbEntity
  8
ceco.net 214
100
AcDbLine
 10
-2720.072501398222
 20
287.5319433640912
 30
0.0
 11
-2707.313027118613
 21
287.7871051785664
 31
0.0
  0
LINE
  5
8059
330
1F
100
AcDbEntity
  8
ceco.net 214
100
AcDbLine
 10
-2720.072501398222
 20
287.5319433640912
 30
0.0
 11
-2709.728030902232
 21
280.0579068642413
 31
0.0
  0
ARC
  5
805A
330
1F
100
AcDbEntity
  8
ceco.net 214
100
AcDbCircle
 10
-2736.312560722987
 20
385.5671345846383
 30
0.0
 40
15.5680895390838
100
AcDbArc
 50
6.773458293074208
 51
107.3561786053735
  0
ARC
  5
805B
330
1F
100
AcDbEntity
  8
ceco.net 214
100
AcDbCircle
 10
-2704.855779476263
 20
403.1943036670328
 30
0.0
 40
10.30146233355882
100
AcDbArc
 50
287.3515211906445
 51
8.482373762846908
  0
LINE
  5
805C
330
1F
100
AcDbEntity
  8
ceco.net 214
100
AcDbLine
 10
-2720.853132540691
 20
387.4032969340751
 30
0.0
 11
-2701.783540489147
 21
393.3616298793134
 31
0.0
  0
ARC
  5
805D
330
1F
100
AcDbEntity
  8
ceco.net 214
100
AcDbCircle
 10
-2965.730656817402
 20
364.2883352546741
 30
0.0
 40
274.0615351379665
100
AcDbArc
 50
8.482373762834026
 51
15.17697669881422
  0
ARC
  5
805E
330
1F
100
AcDbEntity
  8
ceco.net 214
100
AcDbCircle
 10
-2707.441755697413
 20
434.3524383898023
 30
0.0
 40
6.438413958474266
100
AcDbArc
 50
15.17697669880793
 51
88.85436136799029
  0
ARC
  5
805F
330
1F
100
AcDbEntity
  8
ceco.net 214
100
AcDbCircle
 10
-2713.498666012767
 20
453.7375264451704
 30
0.0
 40
6.438413958474266
100
AcDbArc
 50
305.848681013246
 51
19.52606568238248
  0
LINE
  5
8060
330
1F
100
AcDbEntity
  8
ceco.net 214
100
AcDbLine
 10
-2720.072501398222
 20
441.0447271452011
 30
0.0
 11
-2707.313027118613
 21
440.789565330726
 31
0.0
  0
LINE
  5
8061
330
1F
100
AcDbEntity
  8
ceco.net 214
100
AcDbLine
 10
-2720.072501398222
 20
441.0447271452011
 30
0.0
 11
-2709.728030902232
 21
448.5187636450512
 31
0.0
  0
ARC
  5
8062
330
1F
100
AcDbEntity
  8
ceco.net 214
100
AcDbCircle
 10
-2965.730656817402
 20
364.2883352546184
 30
0.0
 40
274.0615351379665
100
AcDbArc
 50
333.779331381636
 51
340.4739343176236
  0
ARC
  5
8063
330
1F
100
AcDbEntity
  8
ceco.net 214
100
AcDbCircle
 10
-2738.764353123719
 20
293.3722505737313
 30
0.0
 40
8.178773914393614
100
AcDbArc
 50
252.6484788093554
 51
72.64847880935544
  0
ARC
  5
8064
330
1F
100
AcDbEntity
  8
ceco.net 214
100
AcDbCircle
 10
-2738.764353123719
 20
435.2044199355612
 30
0.0
 40
8.178773914393614
100
AcDbArc
 50
287.3515211906445
 51
107.3515211906445
  0
ARC
  5
8065
330
1F
100
AcDbEntity
  8
ceco.net 214
100
AcDbCircle
 10
-2765.00835777782
 20
477.4077800233683
 30
0.0
 40
15.5680895390838
100
AcDbArc
 50
287.3468637758508
 51
27.92958408813505
  0
ARC
  5
8066
330
1F
100
AcDbEntity
  8
ceco.net 214
100
AcDbCircle
 10
-2965.730656817402
 20
364.2883352546741
 30
0.0
 40
274.0615351379665
100
AcDbArc
 50
19.52606568237634
 51
26.22066861836392
  0
ARC
  5
8067
330
1F
100
AcDbEntity
  8
ceco.net 214
100
AcDbCircle
 10
-2921.787002952886
 20
498.2421324004599
 30
0.0
 40
10.88309450757763
100
AcDbArc
 50
182.5378954204562
 51
321.1378651748221
  0
ARC
  5
8068
330
1F
100
AcDbEntity
  8
ceco.net 214
100
AcDbCircle
 10
-2896.946079370424
 20
385.7802168229214
 30
0.0
 40
24.65813150236753
100
AcDbArc
 50
107.3515211906465
 51
287.3515211905431
  0
ARC
  5
8069
330
1F
100
AcDbEntity
  8
ceco.net 214
100
AcDbCircle
 10
-2904.699577115969
 20
447.2984552714782
 30
0.0
 40
8.178773914393614
100
AcDbArc
 50
143.6757605953145
 51
323.6757605953145
  0
LINE
  5
806A
330
1F
100
AcDbEntity
  8
ceco.net 214
100
AcDbLine
 10
-2992.956333069816
 20
391.3623758634968
 30
0.0
 11
-2998.975844552944
 21
383.8439584366258
 31
0.0
  0
LINE
  5
806B
330
1F
100
AcDbEntity
  8
ceco.net 214
100
AcDbLine
 10
-2994.184161295503
 20
385.1981048651434
 30
0.0
 11
-2991.883870501384
 21
388.0712229137219
 31
0.0
  0
LINE
  5
806C
330
1F
100
AcDbEntity
  8
ceco.net 214
100
AcDbLine
 10
-2992.678280140837
 20
383.9923488827296
 30
0.0
 11
-2994.184161295503
 21
385.1981048651434
 31
0.0
  0
ARC
  5
806D
330
1F
100
AcDbEntity
  8
ceco.net 214
100
AcDbCircle
 10
-2828.739315747913
 20
364.2883352546441
 30
0.0
 40
6.438413958474266
100
AcDbArc
 50
153.3382373297503
 51
206.6617626702496
  0
ARC
  5
806E
330
1F
100
AcDbEntity
  8
ceco.net 214
100
AcDbCircle
 10
-2824.767233413935
 20
362.293906234685
 30
0.0
 40
10.88309450757763
100
AcDbArc
 50
109.8894166110609
 51
153.3382373297503
  0
ARC
  5
806F
330
1F
100
AcDbEntity
  8
ceco.net 214
100
AcDbCircle
 10
-2824.767233413935
 20
366.2827642746073
 30
0.0
 40
10.88309450757763
100
AcDbArc
 50
206.6617626702496
 51
250.1105833889389
  0
ARC
  5
8070
330
1F
100
AcDbEntity
  8
ceco.net 214
100
AcDbCircle
 10
-2867.387890312254
 20
333.5609372059465
 30
0.0
 40
8.178773914393614
100
AcDbArc
 50
72.64847880935544
 51
252.6484788093554
  0
ARC
  5
8071
330
1F
100
AcDbEntity
  8
ceco.net 214
100
AcDbCircle
 10
-2850.978154207007
 20
282.3949434003761
 30
0.0
 40
10.88309450757763
100
AcDbArc
 50
75.18637422981661
 51
213.7863439841847
  0
ARC
  5
8072
330
1F
100
AcDbEntity
  8
ceco.net 214
100
AcDbCircle
 10
-2825.422319005463
 20
408.127961682829
 30
0.0
 40
8.178773914393614
100
AcDbArc
 50
107.3515211906445
 51
287.3515211906445
  0
ARC
  5
8073
330
1F
100
AcDbEntity
  8
ceco.net 214
100
AcDbCircle
 10
-2850.978154207007
 20
446.1817271089162
 30
0.0
 40
10.88309450757763
100
AcDbArc
 50
146.2136560158152
 51
284.8136257701833
  0
CIRCLE
  5
8074
330
1F
100
AcDbEntity
  8
ceco.net 214
100
AcDbCircle
 10
-2896.946079370424
 20
385.7802168229214
 30
0.0
 40
17.4132067629984
  0
ARC
  5
8075
330
1F
100
AcDbEntity
  8
ceco.net 214
100
AcDbCircle
 10
-2878.655931831646
 20
245.8555071470455
 30
0.0
 40
8.178773914393614
100
AcDbArc
 50
36.32423940468546
 51
216.3242394046854
  0
ARC
  5
8076
330
1F
100
AcDbEntity
  8
ceco.net 214
100
AcDbCircle
 10
-2793.49818389454
 20
517.3289357088958
 30
0.0
 40
15.5680895390838
100
AcDbArc
 50
43.09769769775208
 51
143.6804180100217
  0
LINE
  5
8077
330
1F
100
AcDbEntity
  8
ceco.net 214
100
AcDbLine
 10
-2782.130524768523
 20
527.9657462219994
 30
0.0
 11
-2770.296021492577
 21
544.0621931811932
 31
0.0
  0
ARC
  5
8078
330
1F
100
AcDbEntity
  8
ceco.net 214
100
AcDbCircle
 10
-2965.730656817374
 20
364.2883352546441
 30
0.0
 40
245.9660613770351
100
AcDbArc
 50
138.2833624459
 51
150.6893557681182
  0
ARC
  5
8079
330
1F
100
AcDbEntity
  8
ceco.net 214
100
AcDbCircle
 10
-5070.897839016436
 20
555.6363200053177
 30
0.0
 40
2072.904064500062
100
AcDbArc
 50
358.4000770292791
 51
0.9391162122751419
  0
ARC
  5
807A
330
1F
100
AcDbEntity
  8
ceco.net 214
100
AcDbCircle
 10
-2965.730656817374
 20
511.2860988597583
 30
0.0
 40
8.178773914393614
100
AcDbArc
 50
180.0
 51
0.0
  0
ARC
  5
807B
330
1F
100
AcDbEntity
  8
ceco.net 214
100
AcDbCircle
 10
-1382.990047896239
 20
1765.4575188824
 30
0.0
 40
2072.904064500062
100
AcDbArc
 50
215.3851231924031
 51
217.9241623754252
  0
LINE
  5
807C
330
1F
100
AcDbEntity
  8
ceco.net 214
100
AcDbLine
 10
-3033.351192721236
 20
442.4537251759249
 30
0.0
 11
-3113.174382861196
 21
551.0235329863406
 31
0.0
  0
LINE
  5
807D
330
1F
100
AcDbEntity
  8
ceco.net 214
100
AcDbLine
 10
-3020.172280316334
 20
452.143185367023
 30
0.0
 11
-3099.995470456284
 21
560.7129931774385
 31
0.0
  0
ARC
  5
807E
330
1F
100
AcDbEntity
  8
ceco.net 214
100
AcDbCircle
 10
-4775.162784576561
 20
-728.5512189841197
 30
0.0
 40
2072.904064500062
100
AcDbArc
 50
34.72431643396495
 51
37.26335561698096
  0
ARC
  5
807F
330
1F
100
AcDbEntity
  8
ceco.net 214
100
AcDbCircle
 10
-3776.201902083641
 20
-1588.012685815745
 30
0.0
 40
2072.904064500062
100
AcDbArc
 50
71.04855583862617
 51
73.58759502170079
  0
ARC
  5
8080
330
1F
100
AcDbEntity
  8
ceco.net 214
100
AcDbCircle
 10
-3776.201902083641
 20
2316.589356325033
 30
0.0
 40
2072.904064500062
100
AcDbArc
 50
286.4124049782992
 51
288.9514441613737
  0
LINE
  5
8081
330
1F
100
AcDbEntity
  8
ceco.net 214
100
AcDbLine
 10
-3066.512605962098
 20
341.367519735676
 30
0.0
 11
-3195.136143150634
 21
301.1788331034565
 31
0.0
  0
LINE
  5
8082
330
1F
100
AcDbEntity
  8
ceco.net 214
100
AcDbLine
 10
-3061.634240682877
 20
325.7543546762255
 30
0.0
 11
-3190.257777871416
 21
285.5656680440103
 31
0.0
  0
ARC
  5
8083
330
1F
100
AcDbEntity
  8
ceco.net 214
100
AcDbCircle
 10
-2520.540039304649
 20
-1702.145363259505
 30
0.0
 40
2072.904064500062
100
AcDbArc
 50
105.7515982198926
 51
108.2906374028584
  0
LINE
  5
8084
330
1F
100
AcDbEntity
  8
ceco.net 214
100
AcDbLine
 10
-3108.478177268887
 20
400.3213791530952
 30
0.0
 11
-3195.136143150634
 21
427.3978374058359
 31
0.0
  0
LINE
  5
8085
330
1F
100
AcDbEntity
  8
ceco.net 214
100
AcDbLine
 10
-3103.599811989668
 20
415.9345442125457
 30
0.0
 11
-3190.257777871416
 21
443.0110024652821
 31
0.0
  0
ARC
  5
8086
330
1F
100
AcDbEntity
  8
ceco.net 214
100
AcDbCircle
 10
-2520.540039304649
 20
2430.722033768802
 30
0.0
 40
2072.904064500062
100
AcDbArc
 50
251.7093625971416
 51
254.2484017801073
  0
ARC
  5
8087
330
1F
100
AcDbEntity
  8
ceco.net 214
100
AcDbCircle
 10
-3009.674310681859
 20
498.2421324004599
 30
0.0
 40
10.88309450757763
100
AcDbArc
 50
218.8621348251778
 51
357.4621045795438
  0
ARC
  5
8088
330
1F
100
AcDbEntity
  8
ceco.net 214
100
AcDbCircle
 10
-3102.72199788683
 20
364.2883352546441
 30
0.0
 40
6.438413958474266
100
AcDbArc
 50
333.3382373297503
 51
26.66176267024962
  0
ARC
  5
8089
330
1F
100
AcDbEntity
  8
ceco.net 214
100
AcDbCircle
 10
-3106.694080220812
 20
362.293906234685
 30
0.0
 40
10.88309450757763
100
AcDbArc
 50
26.66176267024962
 51
70.11058338893898
  0
ARC
  5
808A
330
1F
100
AcDbEntity
  8
ceco.net 214
100
AcDbCircle
 10
-3106.694080220812
 20
366.2827642746073
 30
0.0
 40
10.88309450757763
100
AcDbArc
 50
289.889416611061
 51
333.3382373297503
  0
ARC
  5
808B
330
1F
100
AcDbEntity
  8
ceco.net 214
100
AcDbCircle
 10
-3064.073423322492
 20
333.5609372059465
 30
0.0
 40
8.178773914393614
100
AcDbArc
 50
287.3515211906445
 51
107.3515211906445
  0
ARC
  5
808C
330
1F
100
AcDbEntity
  8
ceco.net 214
100
AcDbCircle
 10
-3080.483159427736
 20
282.3949434003761
 30
0.0
 40
10.88309450757763
100
AcDbArc
 50
326.2136560158152
 51
104.8136257701833
  0
ARC
  5
808D
330
1F
100
AcDbEntity
  8
ceco.net 214
100
AcDbCircle
 10
-3106.038994629283
 20
408.127961682829
 30
0.0
 40
8.178773914393614
100
AcDbArc
 50
252.6484788093554
 51
72.64847880935544
  0
ARC
  5
808E
330
1F
100
AcDbEntity
  8
ceco.net 214
100
AcDbCircle
 10
-3080.483159427736
 20
446.1817271089162
 30
0.0
 40
10.88309450757763
100
AcDbArc
 50
255.1863742298166
 51
33.78634398418471
  0
ARC
  5
808F
330
1F
100
AcDbEntity
  8
ceco.net 214
100
AcDbCircle
 10
-3052.805381803093
 20
245.8555071470455
 30
0.0
 40
8.178773914393614
100
AcDbArc
 50
323.6757605953145
 51
143.6757605953145
  0
CIRCLE
  5
8090
330
1F
100
AcDbEntity
  8
ceco.net 214
100
AcDbCircle
 10
-2965.730656817374
 20
364.2883352546526
 30
0.0
 40
22.88310257774226
  0
LINE
  5
8091
330
1F
100
AcDbEntity
  8
ceco.net 214
100
AcDbLine
 10
-2965.730656817374
 20
387.1714378316726
 30
0.0
 11
-2965.730656817374
 21
341.4052326776285
 31
0.0
  0
CIRCLE
  5
8092
330
1F
100
AcDbEntity
  8
ceco.net 214
100
AcDbCircle
 10
-2965.730656817374
 20
364.2883352546526
 30
0.0
 40
24.80646662016345
  0
LINE
  5
8093
330
1F
100
AcDbEntity
  8
ceco.net 214
100
AcDbLine
 10
-2988.613759395086
 20
364.2883352546526
 30
0.0
 11
-2942.847554239664
 21
364.2883352546526
 31
0.0
  0
LINE
  5
8094
330
1F
100
AcDbEntity
  8
ceco.net 214
100
AcDbLine
 10
-2988.568829842783
 20
365.7215960281288
 30
0.0
 11
-2965.730651540385
 21
365.7215960281288
 31
0.0
  0
LINE
  5
8095
330
1F
100
AcDbEntity
  8
ceco.net 214
100
AcDbLine
 10
-2988.431809945834
 20
367.1548585483605
 30
0.0
 11
-2965.730651540385
 21
367.1548585483605
 31
0.0
  0
LINE
  5
8096
330
1F
100
AcDbEntity
  8
ceco.net 214
100
AcDbLine
 10
-2988.204112306837
 20
368.5881210686051
 30
0.0
 11
-2965.730651540385
 21
368.5881210686051
 31
0.0
  0
LINE
  5
8097
330
1F
100
AcDbEntity
  8
ceco.net 214
100
AcDbLine
 10
-2987.882679298904
 20
370.0213835906779
 30
0.0
 11
-2965.730651540385
 21
370.0213835906779
 31
0.0
  0
LINE
  5
8098
330
1F
100
AcDbEntity
  8
ceco.net 214
100
AcDbLine
 10
-2987.462828931235
 20
371.4546461109139
 30
0.0
 11
-2965.730651540385
 21
371.4546461109139
 31
0.0
  0
LINE
  5
8099
330
1F
100
AcDbEntity
  8
ceco.net 214
100
AcDbLine
 10
-2986.938159298035
 20
372.8879086293174
 30
0.0
 11
-2965.730651540385
 21
372.8879086293174
 31
0.0
  0
LINE
  5
809A
330
1F
100
AcDbEntity
  8
ceco.net 214
100
AcDbLine
 10
-2986.299975273206
 20
374.3211711495533
 30
0.0
 11
-2965.730651540385
 21
374.3211711495533
 31
0.0
  0
LINE
  5
809B
330
1F
100
AcDbEntity
  8
ceco.net 214
100
AcDbLine
 10
-2965.730651540385
 20
342.7893957043446
 30
0.0
 11
-2957.863855770321
 21
342.7893957043446
 31
0.0
  0
LINE
  5
809C
330
1F
100
AcDbEntity
  8
ceco.net 214
100
AcDbLine
 10
-2965.730651540385
 20
344.2226582264087
 30
0.0
 11
-2954.714978013222
 21
344.2226582264087
 31
0.0
  0
LINE
  5
809D
330
1F
100
AcDbEntity
  8
ceco.net 214
100
AcDbLine
 10
-2965.730651540385
 20
345.6559207466532
 30
0.0
 11
-2952.443639122124
 21
345.6559207466532
 31
0.0
  0
LINE
  5
809E
330
1F
100
AcDbEntity
  8
ceco.net 214
100
AcDbLine
 10
-2965.730651540385
 20
347.0891832668893
 30
0.0
 11
-2950.63094423744
 21
347.0891832668893
 31
0.0
  0
LINE
  5
809F
330
1F
100
AcDbEntity
  8
ceco.net 214
100
AcDbLine
 10
-2965.730651540385
 20
348.5224457852841
 30
0.0
 11
-2949.147899732361
 21
348.5224457852841
 31
0.0
  0
LINE
  5
80A0
330
1F
100
AcDbEntity
  8
ceco.net 214
100
AcDbLine
 10
-2965.730651540385
 20
349.9557083055246
 30
0.0
 11
-2947.893508374583
 21
349.9557083055246
 31
0.0
  0
LINE
  5
80A1
330
1F
100
AcDbEntity
  8
ceco.net 214
100
AcDbLine
 10
-2965.730651540385
 20
351.3889708257689
 30
0.0
 11
-2946.82840322035
 21
351.3889708257689
 31
0.0
  0
LINE
  5
80A2
330
1F
100
AcDbEntity
  8
ceco.net 214
100
AcDbLine
 10
-2965.730651540385
 20
352.8222333478331
 30
0.0
 11
-2945.92458787504
 21
352.8222333478331
 31
0.0
  0
LINE
  5
80A3
330
1F
100
AcDbEntity
  8
ceco.net 214
100
AcDbLine
 10
-2965.730651540385
 20
354.2554958680777
 30
0.0
 11
-2945.161327807678
 21
354.2554958680777
 31
0.0
  0
LINE
  5
80A4
330
1F
100
AcDbEntity
  8
ceco.net 214
100
AcDbLine
 10
-2965.730651540385
 20
355.6887583864727
 30
0.0
 11
-2944.52314378274
 21
355.6887583864727
 31
0.0
  0
LINE
  5
80A5
330
1F
100
AcDbEntity
  8
ceco.net 214
100
AcDbLine
 10
-2965.730651540385
 20
357.1220209067045
 30
0.0
 11
-2943.998474149548
 21
357.1220209067045
 31
0.0
  0
LINE
  5
80A6
330
1F
100
AcDbEntity
  8
ceco.net 214
100
AcDbLine
 10
-2965.730651540385
 20
358.5552834269488
 30
0.0
 11
-2943.578623781986
 21
358.5552834269488
 31
0.0
  0
LINE
  5
80A7
330
1F
100
AcDbEntity
  8
ceco.net 214
100
AcDbLine
 10
-2965.730651540385
 20
359.9885459471934
 30
0.0
 11
-2943.257190774162
 21
359.9885459471934
 31
0.0
  0
LINE
  5
80A8
330
1F
100
AcDbEntity
  8
ceco.net 214
100
AcDbLine
 10
-2965.730651540385
 20
361.4218084692577
 30
0.0
 11
-2943.029493135052
 21
361.4218084692577
 31
0.0
  0
LINE
  5
80A9
330
1F
100
AcDbEntity
  8
ceco.net 214
100
AcDbLine
 10
-2965.730651540385
 20
362.8550709894894
 30
0.0
 11
-2942.892473237982
 21
362.8550709894894
 31
0.0
  0
ARC
  5
80AA
330
1F
100
AcDbEntity
  8
ceco.net 214
100
AcDbCircle
 10
-2965.730656817374
 20
261.2569191005022
 30
0.0
 40
8.178773914393614
100
AcDbArc
 50
0.0
 51
180.0
  0
ARC
  5
80AB
330
1F
100
AcDbEntity
  8
ceco.net 214
100
AcDbCircle
 10
-2965.730656817381
 20
436.3523281214041
 30
0.0
 40
24.65813150236753
100
AcDbArc
 50
180.000000000039
 51
0.0000000000065138
  0
CIRCLE
  5
80AC
330
1F
100
AcDbEntity
  8
ceco.net 214
100
AcDbCircle
 10
-2965.730656817381
 20
436.3523281214041
 30
0.0
 40
17.4132067629984
  0
LINE
  5
80AD
330
1F
100
AcDbEntity
  8
ceco.net 214
100
AcDbLine
 10
-2985.536715205729
 20
375.754433669785
 30
0.0
 11
-2965.730651540385
 21
375.754433669785
 31
0.0
  0
LINE
  5
80AE
330
1F
100
AcDbEntity
  8
ceco.net 214
100
AcDbLine
 10
-2984.632899860656
 20
377.1876961900296
 30
0.0
 11
-2965.730651540385
 21
377.1876961900296
 31
0.0
  0
LINE
  5
80AF
330
1F
100
AcDbEntity
  8
ceco.net 214
100
AcDbLine
 10
-2983.567794706534
 20
378.6209587121023
 30
0.0
 11
-2965.730651540385
 21
378.6209587121023
 31
0.0
  0
LINE
  5
80B0
330
1F
100
AcDbEntity
  8
ceco.net 214
100
AcDbLine
 10
-2982.313403348749
 20
380.0542212323384
 30
0.0
 11
-2965.730651540385
 21
380.0542212323384
 31
0.0
  0
ARC
  5
80B1
330
1F
100
AcDbEntity
  8
ceco.net 214
100
AcDbCircle
 10
-2985.883651728743
 20
386.2495508751765
 30
0.0
 40
3.54870286296256
100
AcDbArc
 50
321.3183250000928
 51
111.5293277778429
  0
LINE
  5
80B2
330
1F
100
AcDbEntity
  8
ceco.net 214
100
AcDbLine
 10
-2989.401077612894
 20
376.178106071363
 30
0.0
 11
-2983.113426607134
 21
384.031636363088
 31
0.0
  0
ARC
  5
80B3
330
1F
100
AcDbEntity
  8
ceco.net 214
100
AcDbCircle
 10
-2987.314347294063
 20
384.9587065801874
 30
0.0
 40
0.9646959222588076
100
AcDbArc
 50
321.3188833332882
 51
141.8383638888046
  0
LINE
  5
80B4
330
1F
100
AcDbEntity
  8
ceco.net 214
100
AcDbLine
 10
-2989.128088878231
 20
381.1497115501674
 30
0.0
 11
-2986.561270513195
 21
384.3557857035781
 31
0.0
  0
LINE
  5
80B5
330
1F
100
AcDbEntity
  8
ceco.net 214
100
AcDbLine
 10
-2990.634161134534
 20
382.3557541870954
 30
0.0
 11
-2989.128088878231
 21
381.1497115501674
 31
0.0
  0
LINE
  5
80B6
330
1F
100
AcDbEntity
  8
ceco.net 214
100
AcDbLine
 10
-2988.072921010862
 20
385.5547961301343
 30
0.0
 11
-2990.634161134534
 21
382.3557541870954
 31
0.0
  0
LINE
  5
80B7
330
1F
100
AcDbEntity
  8
ceco.net 214
100
AcDbLine
 10
-2980.830358843561
 20
381.4874837507418
 30
0.0
 11
-2965.730651540385
 21
381.4874837507418
 31
0.0
  0
LINE
  5
80B8
330
1F
100
AcDbEntity
  8
ceco.net 214
100
AcDbLine
 10
-2979.017663958873
 20
382.9207462709735
 30
0.0
 11
-2965.730651540385
 21
382.9207462709735
 31
0.0
  0
LINE
  5
80B9
330
1F
100
AcDbEntity
  8
ceco.net 214
100
AcDbLine
 10
-2976.74632506755
 20
384.3540087912096
 30
0.0
 11
-2965.730651540385
 21
384.3540087912096
 31
0.0
  0
LINE
  5
80BA
330
1F
100
AcDbEntity
  8
ceco.net 214
100
AcDbLine
 10
-2973.597447310676
 20
385.7872713114541
 30
0.0
 11
-2965.730651540385
 21
385.7872713114541
 31
0.0
  0
LINE
  5
80BB
330
1F
100
AcDbEntity
  8
ceco.net 214
100
AcDbLine
 10
-2938.526660050714
 20
391.4973891940498
 30
0.0
 11
-2941.405320047241
 21
394.1715704035235
 31
0.0
  0
LINE
  5
80BC
330
1F
100
AcDbEntity
  8
ceco.net 214
100
AcDbLine
 10
-2941.36576200162
 20
387.7679445630746
 30
0.0
 11
-2938.526660050714
 21
391.4973891940498
 31
0.0
  0
LINE
  5
80BD
330
1F
100
AcDbEntity
  8
ceco.net 214
100
AcDbLine
 10
-2936.781328504274
 20
389.8713050889466
 30
0.0
 11
-2941.36576200162
 21
387.7679445630746
 31
0.0
  0
LINE
  5
80BE
330
1F
100
AcDbEntity
  8
ceco.net 214
100
AcDbLine
 10
-2934.434408902912
 20
386.9401876830556
 30
0.0
 11
-2936.781328504274
 21
389.8713050889466
 31
0.0
  0
LINE
  5
80BF
330
1F
100
AcDbEntity
  8
ceco.net 214
100
AcDbLine
 10
-2937.489837943423
 20
382.926861525207
 30
0.0
 11
-2934.434408902912
 21
386.9401876830556
 31
0.0
  0
LINE
  5
80C0
330
1F
100
AcDbEntity
  8
ceco.net 214
100
AcDbLine
 10
-2933.229703979279
 20
384.8813538492785
 30
0.0
 11
-2937.489837943423
 21
382.926861525207
 31
0.0
  0
LINE
  5
80C1
330
1F
100
AcDbEntity
  8
ceco.net 214
100
AcDbLine
 10
-2931.250081786314
 20
381.4874837507418
 30
0.0
 11
-2933.229703979279
 21
384.8813538492785
 31
0.0
  0
LINE
  5
80C2
330
1F
100
AcDbEntity
  8
ceco.net 214
100
AcDbLine
 10
-2942.327767805073
 20
376.4050393038173
 30
0.0
 11
-2931.250081786314
 21
381.4874837507418
 31
0.0
  0
LINE
  5
80C3
330
1F
100
AcDbEntity
  8
ceco.net 214
100
AcDbLine
 10
-2944.186900395485
 20
379.5919462935571
 30
0.0
 11
-2942.327767805073
 21
376.4050393038173
 31
0.0
  0
LINE
  5
80C4
330
1F
100
AcDbEntity
  8
ceco.net 214
100
AcDbLine
 10
-2940.394583317833
 20
384.5734890593399
 30
0.0
 11
-2944.186900395485
 21
379.5919462935571
 31
0.0
  0
LINE
  5
80C5
330
1F
100
AcDbEntity
  8
ceco.net 214
100
AcDbLine
 10
-2946.084922175792
 20
381.9627536027039
 30
0.0
 11
-2940.394583317833
 21
384.5734890593399
 31
0.0
  0
LINE
  5
80C6
330
1F
100
AcDbEntity
  8
ceco.net 214
100
AcDbLine
 10
-2948.788055288858
 20
384.4738295386132
 30
0.0
 11
-2946.084922175792
 21
381.9627536027039
 31
0.0
  0
LINE
  5
80C7
330
1F
100
AcDbEntity
  8
ceco.net 214
100
AcDbLine
 10
-2941.405320047241
 20
394.1715704035235
 30
0.0
 11
-2948.788055288858
 21
384.4738295386132
 31
0.0
  0
LINE
  5
80C8
330
1F
100
AcDbEntity
  8
ceco.net 214
100
AcDbLine
 10
-2968.600903063481
 20
402.4456993825158
 30
0.0
 11
-2972.672133027712
 21
401.9933617288804
 31
0.0
  0
LINE
  5
80C9
330
1F
100
AcDbEntity
  8
ceco.net 214
100
AcDbLine
 10
-2965.730651540385
 20
394.0560494427549
 30
0.0
 11
-2968.600903063481
 21
402.4456993825114
 31
0.0
  0
LINE
  5
80CA
330
1F
100
AcDbEntity
  8
ceco.net 214
100
AcDbLine
 10
-2962.860400017515
 20
402.4456993825114
 30
0.0
 11
-2965.730651540385
 21
394.0560494427549
 31
0.0
  0
LINE
  5
80CB
330
1F
100
AcDbEntity
  8
ceco.net 214
100
AcDbLine
 10
-2958.789074502361
 20
401.9933617288804
 30
0.0
 11
-2962.860400017515
 21
402.4456993825158
 31
0.0
  0
LINE
  5
80CC
330
1F
100
AcDbEntity
  8
ceco.net 214
100
AcDbLine
 10
-2958.333488122717
 20
389.6959693068979
 30
0.0
 11
-2958.789074502361
 21
401.9933617288762
 31
0.0
  0
LINE
  5
80CD
330
1F
100
AcDbEntity
  8
ceco.net 214
100
AcDbLine
 10
-2962.336685892625
 20
390.2679366030807
 30
0.0
 11
-2958.333488122717
 21
389.6959693068979
 31
0.0
  0
LINE
  5
80CE
330
1F
100
AcDbEntity
  8
ceco.net 214
100
AcDbLine
 10
-2962.522054511794
 20
395.2692583913166
 30
0.0
 11
-2962.336685892625
 21
390.2679366030807
 31
0.0
  0
LINE
  5
80CF
330
1F
100
AcDbEntity
  8
ceco.net 214
100
AcDbLine
 10
-2964.306561900352
 20
390.1973245349314
 30
0.0
 11
-2962.522054511794
 21
395.2692583913166
 31
0.0
  0
LINE
  5
80D0
330
1F
100
AcDbEntity
  8
ceco.net 214
100
AcDbLine
 10
-2967.154645629825
 20
390.1973245349314
 30
0.0
 11
-2964.306561900352
 21
390.1973245349314
 31
0.0
  0
LINE
  5
80D1
330
1F
100
AcDbEntity
  8
ceco.net 214
100
AcDbLine
 10
-2968.939153018271
 20
395.2692583913166
 30
0.0
 11
-2967.154645629825
 21
390.1973245349314
 31
0.0
  0
LINE
  5
80D2
330
1F
100
AcDbEntity
  8
ceco.net 214
100
AcDbLine
 10
-2969.124426086613
 20
390.2679366030807
 30
0.0
 11
-2968.939153018271
 21
395.2692583913166
 31
0.0
  0
LINE
  5
80D3
330
1F
100
AcDbEntity
  8
ceco.net 214
100
AcDbLine
 10
-2973.127719407339
 20
389.6959693068979
 30
0.0
 11
-2969.124426086613
 21
390.2679366030807
 31
0.0
  0
LINE
  5
80D4
330
1F
100
AcDbEntity
  8
ceco.net 214
100
AcDbLine
 10
-2972.672133027712
 20
401.9933617288762
 30
0.0
 11
-2973.127719407339
 21
389.6959693068979
 31
0.0
  0
ARC
  5
80D5
330
1F
100
AcDbEntity
  8
ceco.net 214
100
AcDbCircle
 10
-3034.515234264325
 20
385.7802168229214
 30
0.0
 40
24.65813150236753
100
AcDbArc
 50
252.6484788094568
 51
72.64847880935349
  0
CIRCLE
  5
80D6
330
1F
100
AcDbEntity
  8
ceco.net 214
100
AcDbCircle
 10
-3034.515234264325
 20
385.7802168229214
 30
0.0
 40
17.4132067629984
  0
ARC
  5
80D7
330
1F
100
AcDbEntity
  8
ceco.net 214
100
AcDbCircle
 10
-3008.418056995127
 20
306.2279792966918
 30
0.0
 40
24.65813150236753
100
AcDbArc
 50
323.6757605953407
 51
143.6757605953145
  0
CIRCLE
  5
80D8
330
1F
100
AcDbEntity
  8
ceco.net 214
100
AcDbCircle
 10
-3008.418056995127
 20
306.2279792966918
 30
0.0
 40
17.4132067629984
  0
ARC
  5
80D9
330
1F
100
AcDbEntity
  8
ceco.net 214
100
AcDbCircle
 10
-3026.761736518772
 20
447.2984552714782
 30
0.0
 40
8.178773914393614
100
AcDbArc
 50
216.3242394046854
 51
36.32423940468546
  0
LINE
  5
80DA
330
1F
100
AcDbEntity
  8
ceco.net 214
100
AcDbLine
 10
-3180.207735065862
 20
484.6996563806654
 30
0.0
 11
-3199.277327117406
 21
490.6579893259079
 31
0.0
  0
ARC
  5
80DB
330
1F
100
AcDbEntity
  8
ceco.net 214
100
AcDbCircle
 10
-3202.349566104524
 20
480.8253155381928
 30
0.0
 40
10.30146233355882
100
AcDbArc
 50
72.64847880935544
 51
153.7793313816418
  0
ARC
  5
80DC
330
1F
100
AcDbEntity
  8
ceco.net 214
100
AcDbCircle
 10
-2965.730656817374
 20
364.2883352546441
 30
0.0
 40
245.9660613770351
100
AcDbArc
 50
174.6076018508324
 51
180.0
  0
ARC
  5
80DD
330
1F
100
AcDbEntity
  8
ceco.net 214
100
AcDbCircle
 10
-2965.730656817374
 20
364.2883352546441
 30
0.0
 40
245.9660613770351
100
AcDbArc
 50
180.0
 51
185.3923981491675
  0
ARC
  5
80DE
330
1F
100
AcDbEntity
  8
ceco.net 214
100
AcDbCircle
 10
-3195.148752911757
 20
343.0095359246539
 30
0.0
 40
15.5680895390838
100
AcDbArc
 50
186.7734582930742
 51
287.3561786053736
  0
ARC
  5
80DF
330
1F
100
AcDbEntity
  8
ceco.net 214
100
AcDbCircle
 10
-3192.696960511022
 20
293.3722505737313
 30
0.0
 40
8.178773914393614
100
AcDbArc
 50
107.3515211906445
 51
287.3515211906445
  0
LINE
  5
80E0
330
1F
100
AcDbEntity
  8
ceco.net 214
100
AcDbLine
 10
-3210.608181094055
 20
341.1733735752174
 30
0.0
 11
-3229.677773145597
 21
335.215040629979
 31
0.0
  0
LINE
  5
80E1
330
1F
100
AcDbEntity
  8
ceco.net 214
100
AcDbLine
 10
-3211.388812236526
 20
287.5319433640912
 30
0.0
 11
-3224.148286516134
 21
287.7871051785664
 31
0.0
  0
LINE
  5
80E2
330
1F
100
AcDbEntity
  8
ceco.net 214
100
AcDbLine
 10
-3211.388812236526
 20
287.5319433640912
 30
0.0
 11
-3221.733282732515
 21
280.0579068642413
 31
0.0
  0
ARC
  5
80E3
330
1F
100
AcDbEntity
  8
ceco.net 214
100
AcDbCircle
 10
-3195.148752911757
 20
385.5671345846383
 30
0.0
 40
15.5680895390838
100
AcDbArc
 50
72.64382139462641
 51
173.2265417069258
  0
ARC
  5
80E4
330
1F
100
AcDbEntity
  8
ceco.net 214
100
AcDbCircle
 10
-3192.696960511022
 20
435.2044199355612
 30
0.0
 40
8.178773914393614
100
AcDbArc
 50
72.64847880935544
 51
252.6484788093554
  0
LINE
  5
80E5
330
1F
100
AcDbEntity
  8
ceco.net 214
100
AcDbLine
 10
-3210.608181094055
 20
387.4032969340751
 30
0.0
 11
-3229.677773145597
 21
393.3616298793134
 31
0.0
  0
LINE
  5
80E6
330
1F
100
AcDbEntity
  8
ceco.net 214
100
AcDbLine
 10
-3211.388812236526
 20
441.0447271452011
 30
0.0
 11
-3224.148286516134
 21
440.789565330726
 31
0.0
  0
LINE
  5
80E7
330
1F
100
AcDbEntity
  8
ceco.net 214
100
AcDbLine
 10
-3211.388812236526
 20
441.0447271452011
 30
0.0
 11
-3221.733282732515
 21
448.5187636450512
 31
0.0
  0
ARC
  5
80E8
330
1F
100
AcDbEntity
  8
ceco.net 214
100
AcDbCircle
 10
-3166.452955856923
 20
251.1688904859283
 30
0.0
 40
15.5680895390838
100
AcDbArc
 50
107.3468637758507
 51
207.929584088135
  0
ARC
  5
80E9
330
1F
100
AcDbEntity
  8
ceco.net 214
100
AcDbCircle
 10
-2965.730656817338
 20
364.2883352546184
 30
0.0
 40
274.0615351379665
100
AcDbArc
 50
199.5260656823763
 51
206.2206686183639
  0
ARC
  5
80EA
330
1F
100
AcDbEntity
  8
ceco.net 214
100
AcDbCircle
 10
-3166.452955856923
 20
477.4077800233683
 30
0.0
 40
15.5680895390838
100
AcDbArc
 50
152.0704159118649
 51
252.6531362241491
  0
ARC
  5
80EB
330
1F
100
AcDbEntity
  8
ceco.net 214
100
AcDbCircle
 10
-2965.730656817338
 20
364.2883352546741
 30
0.0
 40
274.0615351379665
100
AcDbArc
 50
153.779331381636
 51
160.4739343176236
  0
LINE
  5
80EC
330
1F
100
AcDbEntity
  8
ceco.net 214
100
AcDbLine
 10
-2973.90943073177
 20
511.2860988597498
 30
0.0
 11
-2973.909430731764
 21
602.0756227172902
 31
0.0
  0
LINE
  5
80ED
330
1F
100
AcDbEntity
  8
ceco.net 214
100
AcDbLine
 10
-2957.551882902977
 20
511.2860988597498
 30
0.0
 11
-2957.551882902977
 21
602.0756227172902
 31
0.0
  0
ARC
  5
80EE
330
1F
100
AcDbEntity
  8
ceco.net 214
100
AcDbCircle
 10
-3137.963129740207
 20
517.3289357088958
 30
0.0
 40
15.5680895390838
100
AcDbArc
 50
36.31958198997821
 51
136.9023023022479
  0
LINE
  5
80EF
330
1F
100
AcDbEntity
  8
ceco.net 214
100
AcDbLine
 10
-3149.330788866224
 20
527.9657462219994
 30
0.0
 11
-3161.165292142166
 21
544.0621931811932
 31
0.0
  0
ARC
  5
80F0
330
1F
100
AcDbEntity
  8
ceco.net 214
100
AcDbCircle
 10
-3226.605534158479
 20
325.3823668422595
 30
0.0
 40
10.30146233355882
100
AcDbArc
 50
107.3515211906445
 51
188.4823737628469
  0
ARC
  5
80F1
330
1F
100
AcDbEntity
  8
ceco.net 214
100
AcDbCircle
 10
-2965.730656817338
 20
364.2883352546184
 30
0.0
 40
274.0615351379665
100
AcDbArc
 50
188.482373762834
 51
195.1769766988142
  0
ARC
  5
80F2
330
1F
100
AcDbEntity
  8
ceco.net 214
100
AcDbCircle
 10
-3224.019557937332
 20
294.2242321194902
 30
0.0
 40
6.438413958474266
100
AcDbArc
 50
195.1769766988079
 51
268.8543613679903
  0
ARC
  5
80F3
330
1F
100
AcDbEntity
  8
ceco.net 214
100
AcDbCircle
 10
-3217.962647621974
 20
274.8391440641221
 30
0.0
 40
6.438413958474266
100
AcDbArc
 50
125.8486810132461
 51
199.5260656823824
  0
ARC
  5
80F4
330
1F
100
AcDbEntity
  8
ceco.net 214
100
AcDbCircle
 10
-3226.605534158479
 20
403.1943036670328
 30
0.0
 40
10.30146233355882
100
AcDbArc
 50
171.517626237153
 51
252.6484788093554
  0
ARC
  5
80F5
330
1F
100
AcDbEntity
  8
ceco.net 214
100
AcDbCircle
 10
-2965.730656817338
 20
364.2883352546741
 30
0.0
 40
274.0615351379665
100
AcDbArc
 50
164.8230233011857
 51
171.5176262371659
  0
ARC
  5
80F6
330
1F
100
AcDbEntity
  8
ceco.net 214
100
AcDbCircle
 10
-3224.019557937332
 20
434.3524383898023
 30
0.0
 40
6.438413958474266
100
AcDbArc
 50
91.14563863200968
 51
164.823023301192
  0
ARC
  5
80F7
330
1F
100
AcDbEntity
  8
ceco.net 214
100
AcDbCircle
 10
-3217.962647621974
 20
453.7375264451704
 30
0.0
 40
6.438413958474266
100
AcDbArc
 50
160.4739343176175
 51
234.1513189867538
  0
ARC
  5
80F8
330
1F
100
AcDbEntity
  8
ceco.net 214
100
AcDbCircle
 10
-2965.730656817374
 20
364.2883352546441
 30
0.0
 40
274.0615351379665
100
AcDbArc
 50
81.13085257224261
 51
87.82545550824892
  0
ARC
  5
80F9
330
1F
100
AcDbEntity
  8
ceco.net 214
100
AcDbCircle
 10
-2917.621008816133
 20
589.6123505874779
 30
0.0
 40
15.5680895390838
100
AcDbArc
 50
79.42193710243735
 51
180.0046574147525
  0
ARC
  5
80FA
330
1F
100
AcDbEntity
  8
ceco.net 214
100
AcDbCircle
 10
-2925.064559173341
 20
624.8946369978355
 30
0.0
 40
10.30146233355882
100
AcDbArc
 50
0.0
 51
81.13085257224261
  0
LINE
  5
80FB
330
1F
100
AcDbEntity
  8
ceco.net 214
100
AcDbLine
 10
-2914.76309683979
 20
604.9158714579349
 30
0.0
 11
-2914.76309683979
 21
624.8946369978355
 31
0.0
  0
ARC
  5
80FC
330
1F
100
AcDbEntity
  8
ceco.net 214
100
AcDbCircle
 10
-2871.019930243739
 20
574.324828246717
 30
0.0
 40
15.5680895390838
100
AcDbArc
 50
323.6711031805756
 51
64.25382349285588
  0
ARC
  5
80FD
330
1F
100
AcDbEntity
  8
ceco.net 214
100
AcDbCircle
 10
-2815.498546168313
 20
585.7662075575816
 30
0.0
 40
6.438413958474266
100
AcDbArc
 50
342.1729204179496
 51
55.85030508707929
  0
LINE
  5
80FE
330
1F
100
AcDbEntity
  8
ceco.net 214
100
AcDbLine
 10
-2864.257383325428
 20
588.3474303973332
 30
0.0
 11
-2852.422880049478
 21
604.4438773565185
 31
0.0
  0
ARC
  5
80FF
330
1F
100
AcDbEntity
  8
ceco.net 214
100
AcDbCircle
 10
-2824.876386976002
 20
555.8682630818939
 30
0.0
 40
8.178773914393614
100
AcDbArc
 50
323.6757605953145
 51
143.6757605953145
  0
ARC
  5
8100
330
1F
100
AcDbEntity
  8
ceco.net 214
100
AcDbCircle
 10
-2778.595680534214
 20
550.1643064218691
 30
0.0
 40
10.30146233355882
100
AcDbArc
 50
323.6757605953145
 51
44.80661316755013
  0
ARC
  5
8101
330
1F
100
AcDbEntity
  8
ceco.net 214
100
AcDbCircle
 10
-2965.730656817374
 20
364.2883352546441
 30
0.0
 40
274.0615351379665
100
AcDbArc
 50
44.80661316754551
 51
51.50121610356478
  0
ARC
  5
8102
330
1F
100
AcDbEntity
  8
ceco.net 214
100
AcDbCircle
 10
-2799.135792269895
 20
573.73590887705
 30
0.0
 40
6.438413958474266
100
AcDbArc
 50
51.50121610356072
 51
125.1786007726632
  0
LINE
  5
8103
330
1F
100
AcDbEntity
  8
ceco.net 214
100
AcDbLine
 10
-2813.276307651754
 20
571.6458633082283
 30
0.0
 11
-2802.845136922918
 21
578.998411755498
 31
0.0
  0
LINE
  5
8104
330
1F
100
AcDbEntity
  8
ceco.net 214
100
AcDbLine
 10
-2813.276307651754
 20
571.6458633082283
 30
0.0
 11
-2809.369273903265
 21
583.795117554143
 31
0.0
  0
ARC
  5
8105
330
1F
100
AcDbEntity
  8
ceco.net 214
100
AcDbCircle
 10
-2844.123221007832
 20
598.3417641158512
 30
0.0
 40
10.30146233355882
100
AcDbArc
 50
62.54490802306991
 51
143.6757605953145
  0
ARC
  5
8106
330
1F
100
AcDbEntity
  8
ceco.net 214
100
AcDbCircle
 10
-2965.730656817374
 20
364.2883352546441
 30
0.0
 40
274.0615351379665
100
AcDbArc
 50
55.85030508707929
 51
62.54490802306991
  0
ARC
  5
8107
330
1F
100
AcDbEntity
  8
ceco.net 214
100
AcDbCircle
 10
-2965.730656817374
 20
364.2883352546441
 30
0.0
 40
245.9660613770351
100
AcDbArc
 50
65.63488363641802
 51
78.04087695886501
  0
ARC
  5
8108
330
1F
100
AcDbEntity
  8
ceco.net 214
100
AcDbCircle
 10
-3106.584926658746
 20
555.8682630818939
 30
0.0
 40
8.178773914393614
100
AcDbArc
 50
36.32423940468546
 51
216.3242394046854
  0
ARC
  5
8109
330
1F
100
AcDbEntity
  8
ceco.net 214
100
AcDbCircle
 10
-2965.730656817374
 20
364.2883352546441
 30
0.0
 40
274.0615351379665
100
AcDbArc
 50
117.45509197693
 51
124.1496949129207
  0
ARC
  5
810A
330
1F
100
AcDbEntity
  8
ceco.net 214
100
AcDbCircle
 10
-3060.441383391002
 20
574.324828246717
 30
0.0
 40
15.5680895390838
100
AcDbArc
 50
115.746176507144
 51
216.3288968194243
  0
LINE
  5
810B
330
1F
100
AcDbEntity
  8
ceco.net 214
100
AcDbLine
 10
-3067.20393030932
 20
588.3474303973332
 30
0.0
 11
-3079.03843358527
 21
604.4438773565185
 31
0.0
  0
ARC
  5
810C
330
1F
100
AcDbEntity
  8
ceco.net 214
100
AcDbCircle
 10
-3087.338092626914
 20
598.3417641158512
 30
0.0
 40
10.30146233355882
100
AcDbArc
 50
36.32423940468546
 51
117.45509197693
  0
ARC
  5
810D
330
1F
100
AcDbEntity
  8
ceco.net 214
100
AcDbCircle
 10
-3013.840304818615
 20
589.6123505874779
 30
0.0
 40
15.5680895390838
100
AcDbArc
 50
359.9953425852473
 51
100.5780628975626
  0
ARC
  5
810E
330
1F
100
AcDbEntity
  8
ceco.net 214
100
AcDbCircle
 10
-2965.730656817374
 20
602.0756227172902
 30
0.0
 40
8.178773914393614
100
AcDbArc
 50
0.0
 51
180.0
  0
ARC
  5
810F
330
1F
100
AcDbEntity
  8
ceco.net 214
100
AcDbCircle
 10
-3006.396754461402
 20
624.8946369978355
 30
0.0
 40
10.30146233355882
100
AcDbArc
 50
98.86914742775736
 51
180.0
  0
LINE
  5
8110
330
1F
100
AcDbEntity
  8
ceco.net 214
100
AcDbLine
 10
-3016.698216794957
 20
604.9158714579349
 30
0.0
 11
-3016.698216794957
 21
624.8946369978355
 31
0.0
  0
ARC
  5
8111
330
1F
100
AcDbEntity
  8
ceco.net 214
100
AcDbCircle
 10
-2965.730656817374
 20
364.2883352546441
 30
0.0
 40
274.0615351379665
100
AcDbArc
 50
92.17454449175106
 51
98.86914742775736
  0
ARC
  5
8112
330
1F
100
AcDbEntity
  8
ceco.net 214
100
AcDbCircle
 10
-2975.885308479084
 20
631.7187337502773
 30
0.0
 40
6.438413958474266
100
AcDbArc
 50
18.49715982264241
 51
92.17454449175106
  0
ARC
  5
8113
330
1F
100
AcDbEntity
  8
ceco.net 214
100
AcDbCircle
 10
-2955.576005155663
 20
631.7187337502773
 30
0.0
 40
6.438413958474266
100
AcDbArc
 50
87.82545550824892
 51
161.5028401773637
  0
LINE
  5
8114
330
1F
100
AcDbEntity
  8
ceco.net 214
100
AcDbLine
 10
-2965.730656817374
 20
621.6586385532328
 30
0.0
 11
-2969.779506958372
 21
633.7613698143735
 31
0.0
  0
LINE
  5
8115
330
1F
100
AcDbEntity
  8
ceco.net 214
100
AcDbLine
 10
-2965.730656817374
 20
621.6586385532328
 30
0.0
 11
-2961.681806676379
 21
633.7613698143735
 31
0.0
  0
ARC
  5
8116
330
1F
100
AcDbEntity
  8
ceco.net 214
100
AcDbCircle
 10
-2965.730656817374
 20
364.2883352546441
 30
0.0
 40
245.9660613770351
100
AcDbArc
 50
101.9591230411349
 51
114.3651163635819
  0
ARC
  5
8117
330
1F
100
AcDbEntity
  8
ceco.net 214
100
AcDbCircle
 10
-3115.962767466435
 20
585.7662075575816
 30
0.0
 40
6.438413958474266
100
AcDbArc
 50
124.1496949129207
 51
197.8270795820503
  0
ARC
  5
8118
330
1F
100
AcDbEntity
  8
ceco.net 214
100
AcDbCircle
 10
-3152.865633100527
 20
550.1643064218691
 30
0.0
 40
10.30146233355882
100
AcDbArc
 50
135.1933868324498
 51
216.3242394046854
  0
ARC
  5
8119
330
1F
100
AcDbEntity
  8
ceco.net 214
100
AcDbCircle
 10
-2965.730656817374
 20
364.2883352546441
 30
0.0
 40
274.0615351379665
100
AcDbArc
 50
128.4987838964352
 51
135.1933868324544
  0
ARC
  5
811A
330
1F
100
AcDbEntity
  8
ceco.net 214
100
AcDbCircle
 10
-3132.325521364848
 20
573.73590887705
 30
0.0
 40
6.438413958474266
100
AcDbArc
 50
54.8213992273367
 51
128.4987838964392
  0
LINE
  5
811B
330
1F
100
AcDbEntity
  8
ceco.net 214
100
AcDbLine
 10
-3118.18500598299
 20
571.6458633082283
 30
0.0
 11
-3128.616176711823
 21
578.998411755498
 31
0.0
  0
LINE
  5
811C
330
1F
100
AcDbEntity
  8
ceco.net 214
100
AcDbLine
 10
-3118.18500598299
 20
571.6458633082283
 30
0.0
 11
-3122.092039731482
 21
583.795117554143
 31
0.0
  0
ARC
  5
811D
330
1F
100
AcDbEntity
  8
ceco.net 214
100
AcDbCircle
 10
-3698.219707795802
 20
3103.232158370503
 30
0.0
 40
2556.447874615608
100
AcDbArc
 50
262.5444937903488
 51
267.3328598174401
  0
ARC
  5
811E
330
1F
100
AcDbEntity
  8
ceco.net 214
100
AcDbCircle
 10
-2669.191697558221
 20
7165.413802519643
 30
0.0
 40
6957.550060463423
100
AcDbArc
 50
260.4194644439715
 51
264.8183958354039
  0
ARC
  5
811F
330
1F
100
AcDbEntity
  8
ceco.net 214
100
AcDbCircle
 10
-3680.702219276119
 20
688.7736650008628
 30
0.0
 40
367.9741721692252
100
AcDbArc
 50
181.9204012023495
 51
198.5720443935722
  0
LINE
  5
8120
330
1F
100
AcDbEntity
  8
ceco.net 214
100
AcDbLine
 10
-3985.217576320936
 20
383.8137904195246
 30
0.0
 11
-3964.296936771439
 21
383.8137904195246
 31
0.0
  0
ARC
  5
8121
330
1F
100
AcDbEntity
  8
ceco.net 214
100
AcDbCircle
 10
-4013.435869367643
 20
670.2019658905868
 30
0.0
 40
45.58033446982178
100
AcDbArc
 50
119.5306189450292
 51
137.0306573719544
  0
ARC
  5
8122
330
1F
100
AcDbEntity
  8
ceco.net 214
100
AcDbCircle
 10
-4042.683033090306
 20
697.446144114089
 30
0.0
 40
5.609822427887879
100
AcDbArc
 50
137.0306573718643
 51
174.3322914775474
  0
ARC
  5
8123
330
1F
100
AcDbEntity
  8
ceco.net 214
100
AcDbCircle
 10
-3903.838692421848
 20
685.8517208550948
 30
0.0
 40
144.9367709370664
100
AcDbArc
 50
175.1918885246979
 51
183.7222443594143
  0
ARC
  5
8124
330
1F
100
AcDbEntity
  8
ceco.net 214
100
AcDbCircle
 10
-3953.601788598373
 20
552.2031617923468
 30
0.0
 40
177.8463485154389
100
AcDbArc
 50
97.97920989815652
 51
117.5653245169514
  0
ARC
  5
8125
330
1F
100
AcDbEntity
  8
ceco.net 214
100
AcDbCircle
 10
-4016.013929580251
 20
541.0200326591433
 30
0.0
 40
30.35243500257318
100
AcDbArc
 50
120.1558838185014
 51
194.5085485646536
  0
ARC
  5
8126
330
1F
100
AcDbEntity
  8
ceco.net 214
100
AcDbCircle
 10
-4032.782646348706
 20
570.3909946337766
 30
0.0
 40
3.476743537576104
100
AcDbArc
 50
295.9438260915583
 51
19.91134718123577
  0
ARC
  5
8127
330
1F
100
AcDbEntity
  8
ceco.net 214
100
AcDbCircle
 10
-3734.108931252102
 20
599.7075356967191
 30
0.0
 40
318.2698875231664
100
AcDbArc
 50
192.0219941442979
 51
214.4853628159441
  0
LINE
  5
8128
330
1F
100
AcDbEntity
  8
ceco.net 214
100
AcDbLine
 10
-3988.694319858521
 20
380.3370468819485
 30
0.0
 11
-3988.69431985851
 21
308.8798421536081
 31
0.0
  0
LINE
  5
8129
330
1F
100
AcDbEntity
  8
ceco.net 214
100
AcDbLine
 10
-3932.574351302344
 20
305.4030986160322
 30
0.0
 11
-3985.217576320934
 21
305.4030986160322
 31
0.0
  0
ARC
  5
812A
330
1F
100
AcDbEntity
  8
ceco.net 214
100
AcDbCircle
 10
-3938.760889957166
 20
385.9011750100457
 30
0.0
 40
80.73545419246578
100
AcDbArc
 50
274.3947279843845
 51
296.939185890526
  0
ARC
  5
812B
330
1F
100
AcDbEntity
  8
ceco.net 214
100
AcDbCircle
 10
-3985.217576320934
 20
308.8798421536081
 30
0.0
 40
3.476743537576104
100
AcDbArc
 50
180.0
 51
270.0
  0
ARC
  5
812C
330
1F
100
AcDbEntity
  8
ceco.net 214
100
AcDbCircle
 10
-3985.217576320936
 20
380.3370468819485
 30
0.0
 40
3.476743537576104
100
AcDbArc
 50
90.0
 51
180.0
  0
ARC
  5
812D
330
1F
100
AcDbEntity
  8
ceco.net 214
100
AcDbCircle
 10
-3823.385544411729
 20
543.0841976564988
 30
0.0
 40
212.6571962529875
100
AcDbArc
 50
215.5294712629319
 51
228.4998306619974
  0
ARC
  5
812E
330
1F
100
AcDbEntity
  8
ceco.net 214
100
AcDbCircle
 10
-4327.453251054527
 20
47.95156787204717
 30
0.0
 40
494.657397739287
100
AcDbArc
 50
34.65778813136768
 51
42.76394736752381
  0
ARC
  5
812F
330
1F
100
AcDbEntity
  8
ceco.net 214
100
AcDbCircle
 10
-3851.508067074559
 20
389.1999259720038
 30
0.0
 40
91.44946167448322
100
AcDbArc
 50
220.9613901070926
 51
272.4714284975071
  0
ARC
  5
8130
330
1F
100
AcDbEntity
  8
ceco.net 214
100
AcDbCircle
 10
-3849.16333104447
 20
315.5184498881866
 30
0.0
 40
17.75504295544716
100
AcDbArc
 50
275.1659390317611
 51
315.1710904303367
  0
ARC
  5
8131
330
1F
100
AcDbEntity
  8
ceco.net 214
100
AcDbCircle
 10
-3830.182143142017
 20
295.6174494466925
 30
0.0
 40
9.764265752272365
100
AcDbArc
 50
71.98892995164436
 51
130.8687977108509
  0
LINE
  5
8132
330
1F
100
AcDbEntity
  8
ceco.net 214
100
AcDbLine
 10
-3904.733700053186
 20
546.2372343698661
 30
0.0
 11
-4044.008502159996
 21
546.2372343698661
 31
0.0
  0
LINE
  5
8133
330
1F
100
AcDbEntity
  8
ceco.net 214
100
AcDbLine
 10
-3669.476708742723
 20
668.2898342731523
 30
0.0
 11
-4048.655505724878
 21
679.9561161855961
 31
0.0
  0
ARC
  5
8134
330
1F
100
AcDbEntity
  8
ceco.net 214
100
AcDbCircle
 10
-2731.044483692357
 20
22179.61027639521
 30
0.0
 40
21531.78028414444
100
AcDbArc
 50
267.5020531469869
 51
268.2886772080289
  0
LINE
  5
8135
330
1F
100
AcDbEntity
  8
ceco.net 214
100
AcDbLine
 10
-3669.476708742723
 20
656.8227151544231
 30
0.0
 11
-4048.115950482068
 21
668.47239644568
 31
0.0
  0
ARC
  5
8136
330
1F
100
AcDbEntity
  8
ceco.net 214
100
AcDbCircle
 10
-2731.044483692357
 20
22168.14315727646
 30
0.0
 40
21531.78028414444
100
AcDbArc
 50
267.5020531469869
 51
268.2886772080289
  0
ARC
  5
8137
330
1F
100
AcDbEntity
  8
ceco.net 214
100
AcDbCircle
 10
-3375.229783248127
 20
651.7000813015561
 30
0.0
 40
5.850725458650836
100
AcDbArc
 50
281.4857886832155
 51
78.51421131678451
  0
LINE
  5
8138
330
1F
100
AcDbEntity
  8
ceco.net 214
100
AcDbLine
 10
-3853.19624787529
 20
391.2830366615608
 30
0.0
 11
-3972.313347856121
 21
391.2830366615608
 31
0.0
  0
LINE
  5
8139
330
1F
100
AcDbEntity
  8
ceco.net 214
100
AcDbLine
 10
-957.19949832579
 20
1131.629859098346
 30
0.0
 11
-954.5699703417939
 21
1119.991422786144
 31
0.0
  0
ARC
  5
813A
330
1F
100
AcDbEntity
  8
ceco.net 214
100
AcDbCircle
 10
-954.5165511027681
 20
1132.218252784026
 30
0.0
 40
2.746709473323907
100
AcDbArc
 50
135.5414470649143
 51
192.3696333995128
  0
ARC
  5
813B
330
1F
100
AcDbEntity
  8
ceco.net 214
100
AcDbCircle
 10
-958.4362519369625
 20
1003.249953482871
 30
0.0
 40
116.1320233682137
100
AcDbArc
 50
32.20785552617128
 51
81.91619646101482
  0
ARC
  5
813C
330
1F
100
AcDbEntity
  8
ceco.net 214
100
AcDbCircle
 10
-977.9270980548226
 20
909.9613061800974
 30
0.0
 40
211.3248809216566
100
AcDbArc
 50
80.24072184285079
 51
90.8804925290593
  0
ARC
  5
813D
330
1F
100
AcDbEntity
  8
ceco.net 214
100
AcDbCircle
 10
-975.5332550470793
 20
1071.342122510366
 30
0.0
 40
50.23685318762408
100
AcDbArc
 50
96.44751621593536
 51
149.2925344339464
  0
ARC
  5
813E
330
1F
100
AcDbEntity
  8
ceco.net 214
100
AcDbCircle
 10
-966.6731904108656
 20
1062.682976352188
 30
0.0
 40
62.34489167279807
100
AcDbArc
 50
146.6075051842593
 51
195.7014401121532
  0
ARC
  5
813F
330
1F
100
AcDbEntity
  8
ceco.net 214
100
AcDbCircle
 10
-993.1876903248959
 20
1051.258671938201
 30
0.0
 40
33.94400303695133
100
AcDbArc
 50
189.2354867727995
 51
266.5862404062885
  0
ARC
  5
8140
330
1F
100
AcDbEntity
  8
ceco.net 214
100
AcDbCircle
 10
-874.4277612187342
 20
1055.089425845623
 30
0.0
 40
17.44464418839033
100
AcDbArc
 50
305.2452942413514
 51
35.2094214288531
  0
ARC
  5
8141
330
1F
100
AcDbEntity
  8
ceco.net 214
100
AcDbCircle
 10
-937.6930800687642
 20
1136.746983493573
 30
0.0
 40
120.7280939636202
100
AcDbArc
 50
273.1213060315792
 51
307.4029355813897
  0
ARC
  5
8142
330
1F
100
AcDbEntity
  8
ceco.net 214
100
AcDbCircle
 10
-951.8460421457712
 20
1633.123588221194
 30
0.0
 40
617.2736716863417
100
AcDbArc
 50
265.9717087855355
 51
271.9242214288034
  0
ARC
  5
8143
330
1F
100
AcDbEntity
  8
ceco.net 214
100
AcDbCircle
 10
-915.7197638168872
 20
1079.390573965338
 30
0.0
 40
65.04192493250063
100
AcDbArc
 50
256.3043090893626
 51
288.6975178382564
  0
ARC
  5
8144
330
1F
100
AcDbEntity
  8
ceco.net 214
100
AcDbCircle
 10
-904.0862282104608
 20
1037.716976483609
 30
0.0
 40
21.96329102279361
100
AcDbArc
 50
294.8130281354678
 51
335.3410373850373
  0
LINE
  5
8145
330
1F
100
AcDbEntity
  8
ceco.net 214
100
AcDbLine
 10
-931.1194202031638
 20
1016.197990681272
 30
0.0
 11
-928.2405768728494
 21
998.738253881066
 31
0.0
  0
ARC
  5
8146
330
1F
100
AcDbEntity
  8
ceco.net 214
100
AcDbCircle
 10
-2602.414473444689
 20
-1288.608742066229
 30
0.0
 40
2928.964211279078
100
AcDbArc
 50
51.92142916739252
 51
53.51984533532017
  0
ARC
  5
8147
330
1F
100
AcDbEntity
  8
ceco.net 214
100
AcDbCircle
 10
-1523.144666703934
 20
881.7015279095638
 30
0.0
 40
12.10717898303546
100
AcDbArc
 50
293.8398948870128
 51
84.07006461314169
  0
ARC
  5
8148
330
1F
100
AcDbEntity
  8
ceco.net 214
100
AcDbCircle
 10
-1698.737180835518
 20
9.241667167707987
 30
0.0
 40
902.0076506673005
100
AcDbArc
 50
87.82569172298599
 51
90.60050817800689
  0
ARC
  5
8149
330
1F
100
AcDbEntity
  8
ceco.net 214
100
AcDbCircle
 10
-1709.385060390019
 20
888.6416052974484
 30
0.0
 40
22.58976131106797
100
AcDbArc
 50
86.96953774115842
 51
149.6754893927158
  0
ARC
  5
814A
330
1F
100
AcDbEntity
  8
ceco.net 214
100
AcDbCircle
 10
-1709.559542509043
 20
891.3679555268718
 30
0.0
 40
21.18408607892828
100
AcDbArc
 50
155.8139178772672
 51
205.911819317464
  0
ARC
  5
814B
330
1F
100
AcDbEntity
  8
ceco.net 214
100
AcDbCircle
 10
-1542.427832836327
 20
934.2801923879186
 30
0.0
 40
68.08961456704058
100
AcDbArc
 50
270.953451374427
 51
290.7978191198728
  0
LINE
  5
814C
330
1F
100
AcDbEntity
  8
ceco.net 214
100
AcDbLine
 10
-1541.294814995857
 20
866.2000052373155
 30
0.0
 11
-1561.44386766305
 21
866.2000052373155
 31
0.0
  0
LINE
  5
814D
330
1F
100
AcDbEntity
  8
ceco.net 214
100
AcDbLine
 10
-1563.282393180288
 20
871.2901847272789
 30
0.0
 11
-1665.093779808281
 21
872.8803087369918
 31
0.0
  0
ARC
  5
814E
330
1F
100
AcDbEntity
  8
ceco.net 214
100
AcDbCircle
 10
-1613.003477036709
 20
934.9126370455676
 30
0.0
 40
85.90587342423605
100
AcDbArc
 50
231.3512151030307
 51
306.883309153361
  0
ARC
  5
814F
330
1F
100
AcDbEntity
  8
ceco.net 214
100
AcDbCircle
 10
-1563.471860634939
 20
868.3446319351972
 30
0.0
 40
2.951640080933801
100
AcDbArc
 50
313.3988762085675
 51
86.31962093034109
  0
ARC
  5
8150
330
1F
100
AcDbEntity
  8
ceco.net 214
100
AcDbCircle
 10
-1664.627550740195
 20
869.965723067732
 30
0.0
 40
2.951640080934309
100
AcDbArc
 50
99.08827123097488
 51
226.6011237914548
  0
ARC
  5
8151
330
1F
100
AcDbEntity
  8
ceco.net 214
100
AcDbCircle
 10
-1865.561397959689
 20
875.3301996622079
 30
0.0
 40
185.0164822304076
100
AcDbArc
 50
358.0240737036144
 51
11.15670301507649
  0
ARC
  5
8152
330
1F
100
AcDbEntity
  8
ceco.net 214
100
AcDbCircle
 10
-1607.194737811816
 20
1839.434102489352
 30
0.0
 40
973.2594872358005
100
AcDbArc
 50
263.6744394625246
 51
266.4869223010864
  0
ARC
  5
8153
330
1F
100
AcDbEntity
  8
ceco.net 214
100
AcDbCircle
 10
-1712.445777383975
 20
889.9657393264826
 30
0.0
 40
17.97526043301158
100
AcDbArc
 50
205.911819317464
 51
263.6744394626282
  0
LINE
  5
8154
330
1F
100
AcDbEntity
  8
ceco.net 214
100
AcDbLine
 10
-1561.569435690853
 20
897.2890319384873
 30
0.0
 11
-1662.709353947732
 21
909.0705376348408
 31
0.0
  0
ARC
  5
8155
330
1F
100
AcDbEntity
  8
ceco.net 214
100
AcDbCircle
 10
-1619.208121206083
 20
840.7400748223148
 30
0.0
 40
85.90587342423605
100
AcDbArc
 50
45.57761897988965
 51
121.1097130303155
  0
ARC
  5
8156
330
1F
100
AcDbEntity
  8
ceco.net 214
100
AcDbCircle
 10
-1561.370802132207
 20
900.2339808135413
 30
0.0
 40
2.951640080933801
100
AcDbArc
 50
266.1413072028652
 51
39.06205192474408
  0
ARC
  5
8157
330
1F
100
AcDbEntity
  8
ceco.net 214
100
AcDbCircle
 10
-1661.864754912267
 20
911.8987582126344
 30
0.0
 40
2.951640080934309
100
AcDbArc
 50
125.8598043417689
 51
253.3726569022813
  0
ARC
  5
8158
330
1F
100
AcDbEntity
  8
ceco.net 214
100
AcDbCircle
 10
-1698.737180835518
 20
9.241667167707987
 30
0.0
 40
902.0076506673005
100
AcDbArc
 50
78.69362516121817
 51
81.05062721323555
  0
ARC
  5
8159
330
1F
100
AcDbEntity
  8
ceco.net 214
100
AcDbCircle
 10
-2612.013072070578
 20
909.5940005077601
 30
0.0
 40
85.90587342423605
100
AcDbArc
 50
45.57761897988965
 51
121.1097130303155
  0
LINE
  5
815A
330
1F
100
AcDbEntity
  8
ceco.net 214
100
AcDbLine
 10
-2554.374386555346
 20
966.1429576239324
 30
0.0
 11
-2655.514304812226
 21
977.9244633202859
 31
0.0
  0
LINE
  5
815B
330
1F
100
AcDbEntity
  8
ceco.net 214
100
AcDbLine
 10
-2556.087344044781
 20
940.1441104127242
 30
0.0
 11
-2657.898730672775
 21
941.7342344224371
 31
0.0
  0
ARC
  5
815C
330
1F
100
AcDbEntity
  8
ceco.net 214
100
AcDbCircle
 10
-2605.808427901203
 20
1003.766562731013
 30
0.0
 40
85.90587342423605
100
AcDbArc
 50
231.3512151030307
 51
306.883309153361
  0
ARC
  5
815D
330
1F
100
AcDbEntity
  8
ceco.net 214
100
AcDbCircle
 10
-2691.542131700012
 20
78.09559285315322
 30
0.0
 40
902.0076506673005
100
AcDbArc
 50
78.69362516121817
 51
81.05062721323555
  0
ARC
  5
815E
330
1F
100
AcDbEntity
  8
ceco.net 214
100
AcDbCircle
 10
-2554.1757529967
 20
969.0879064989864
 30
0.0
 40
2.951640080933801
100
AcDbArc
 50
266.1413072028652
 51
39.06205192474408
  0
ARC
  5
815F
330
1F
100
AcDbEntity
  8
ceco.net 214
100
AcDbCircle
 10
-2556.276811499434
 20
937.1985576206423
 30
0.0
 40
2.951640080933801
100
AcDbArc
 50
313.3988762085675
 51
86.31962093034109
  0
LINE
  5
8160
330
1F
100
AcDbEntity
  8
ceco.net 214
100
AcDbLine
 10
-2534.09976586035
 20
935.0539309227608
 30
0.0
 11
-2554.248818527545
 21
935.0539309227608
 31
0.0
  0
ARC
  5
8161
330
1F
100
AcDbEntity
  8
ceco.net 214
100
AcDbCircle
 10
-2535.232783700819
 20
1003.134118073363
 30
0.0
 40
68.08961456704058
100
AcDbArc
 50
270.953451374427
 51
290.7978191198728
  0
ARC
  5
8162
330
1F
100
AcDbEntity
  8
ceco.net 214
100
AcDbCircle
 10
-2515.949617568429
 20
950.5554535950091
 30
0.0
 40
12.10717898303546
100
AcDbArc
 50
293.8398948870128
 51
84.07006461314169
  0
ARC
  5
8163
330
1F
100
AcDbEntity
  8
ceco.net 214
100
AcDbCircle
 10
-2654.669705776761
 20
980.7526838980798
 30
0.0
 40
2.951640080934309
100
AcDbArc
 50
125.8598043417689
 51
253.3726569022813
  0
ARC
  5
8164
330
1F
100
AcDbEntity
  8
ceco.net 214
100
AcDbCircle
 10
-2705.250728248467
 20
958.8196650119281
 30
0.0
 40
17.97526043301158
100
AcDbArc
 50
205.911819317464
 51
263.6744394626282
  0
ARC
  5
8165
330
1F
100
AcDbEntity
  8
ceco.net 214
100
AcDbCircle
 10
-2599.999688676309
 20
1908.288028174797
 30
0.0
 40
973.2594872358005
100
AcDbArc
 50
263.6744394625246
 51
266.4869223010864
  0
ARC
  5
8166
330
1F
100
AcDbEntity
  8
ceco.net 214
100
AcDbCircle
 10
-2858.366348824182
 20
944.1841253476532
 30
0.0
 40
185.0164822304076
100
AcDbArc
 50
358.0240737036144
 51
11.15670301507649
  0
ARC
  5
8167
330
1F
100
AcDbEntity
  8
ceco.net 214
100
AcDbCircle
 10
-2657.432501604689
 20
938.8196487531772
 30
0.0
 40
2.951640080934309
100
AcDbArc
 50
99.08827123097488
 51
226.6011237914548
  0
ARC
  5
8168
330
1F
100
AcDbEntity
  8
ceco.net 214
100
AcDbCircle
 10
-2702.364493373537
 20
960.2218812123171
 30
0.0
 40
21.18408607892828
100
AcDbArc
 50
155.8139178772672
 51
205.911819317464
  0
ARC
  5
8169
330
1F
100
AcDbEntity
  8
ceco.net 214
100
AcDbCircle
 10
-2702.190011254511
 20
957.4955309828936
 30
0.0
 40
22.58976131106797
100
AcDbArc
 50
86.96953774115842
 51
149.6754893927158
  0
ARC
  5
816A
330
1F
100
AcDbEntity
  8
ceco.net 214
100
AcDbCircle
 10
-2691.542131700012
 20
78.09559285315322
 30
0.0
 40
902.0076506673005
100
AcDbArc
 50
87.82569172298599
 51
90.60050817800689
  0
ARC
  5
816B
330
1F
100
AcDbEntity
  8
ceco.net 214
100
AcDbCircle
 10
-3400.382316570095
 20
-59093.40319376449
 30
0.0
 40
60052.24553760108
100
AcDbArc
 50
87.41950353138481
 51
89.14468132012729
  0
ARC
  5
816C
330
1F
100
AcDbEntity
  8
ceco.net 214
100
AcDbCircle
 10
522.3165299659176
 20
1528.282441128411
 30
0.0
 40
622.8607761826638
100
AcDbArc
 50
245.6385708301112
 51
254.9776713992718
  0
ARC
  5
816D
330
1F
100
AcDbEntity
  8
ceco.net 214
100
AcDbCircle
 10
-119.6891212164955
 20
-206.0544388168088
 30
0.0
 40
1228.830294019441
100
AcDbArc
 50
71.73743871483047
 51
76.15574767225183
  0
ARC
  5
816E
330
1F
100
AcDbEntity
  8
ceco.net 214
100
AcDbCircle
 10
-653.0576472142548
 20
-3384.279646568173
 30
0.0
 40
4448.974129298742
100
AcDbArc
 50
79.28189573895192
 51
84.35189197251281
  0
ARC
  5
816F
330
1F
100
AcDbEntity
  8
ceco.net 214
100
AcDbCircle
 10
25332.01367906837
 20
290883.9378678788
 30
0.0
 40
290964.5579832702
100
AcDbArc
 50
264.9260174050843
 51
264.962841581831
  0
ARC
  5
8170
330
1F
100
AcDbEntity
  8
ceco.net 214
100
AcDbCircle
 10
-1782.851779197901
 20
1242.946542434184
 30
0.0
 40
53.16558772396581
100
AcDbArc
 50
74.3848606784685
 51
135.9931917779032
  0
LINE
  5
8171
330
1F
100
AcDbEntity
  8
ceco.net 214
100
AcDbLine
 10
-1074.25044292064
 20
1130.497400012953
 30
0.0
 11
-1127.956069846559
 21
1007.237406866199
 31
0.0
  0
LINE
  5
8172
330
1F
100
AcDbEntity
  8
ceco.net 214
100
AcDbLine
 10
-1025.24714027337
 20
1109.146164929082
 30
0.0
 11
-1070.685324467871
 21
1004.860811736213
 31
0.0
  0
ARC
  5
8173
330
1F
100
AcDbEntity
  8
ceco.net 214
100
AcDbCircle
 10
-1069.764240327756
 20
1000.304860781001
 30
0.0
 40
8.629132624665473
100
AcDbArc
 50
55.75185798365256
 51
84.44068160677888
  0
ARC
  5
8174
330
1F
100
AcDbEntity
  8
ceco.net 214
100
AcDbCircle
 10
-1230.750188327683
 20
763.0025512751688
 30
0.0
 40
295.3848734975342
100
AcDbArc
 50
54.82055956495863
 51
55.84424121873001
  0
ARC
  5
8175
330
1F
100
AcDbEntity
  8
ceco.net 214
100
AcDbCircle
 10
-1049.748791597005
 20
1119.821782471025
 30
0.0
 40
26.72638635293498
100
AcDbArc
 50
336.4567555248266
 51
156.4567555248386
  0
ARC
  5
8176
330
1F
100
AcDbEntity
  8
ceco.net 214
100
AcDbCircle
 10
-1752.679607895428
 20
1024.950874934609
 30
0.0
 40
77.03423903920267
100
AcDbArc
 50
19.85596499008357
 51
34.83295427303188
  0
ARC
  5
8177
330
1F
100
AcDbEntity
  8
ceco.net 214
100
AcDbCircle
 10
-1237.529958092738
 20
1230.608366830588
 30
0.0
 40
477.699139523581
100
AcDbArc
 50
202.0702657808626
 51
205.1871201740023
  0
ARC
  5
8178
330
1F
100
AcDbEntity
  8
ceco.net 214
100
AcDbCircle
 10
-1758.708842084652
 20
1020.180464335752
 30
0.0
 40
84.70926473885576
100
AcDbArc
 50
35.15209949820044
 51
54.52961948001657
  0
ARC
  5
8179
330
1F
100
AcDbEntity
  8
ceco.net 214
100
AcDbCircle
 10
-1727.592385508413
 20
1067.153107444428
 30
0.0
 40
28.46223061690781
100
AcDbArc
 50
50.6704062749275
 51
113.0762653343902
  0
ARC
  5
817A
330
1F
100
AcDbEntity
  8
ceco.net 214
100
AcDbCircle
 10
-1905.190014011925
 20
1858.312147371928
 30
0.0
 40
775.4391800000417
100
AcDbArc
 50
278.3557088743982
 51
282.6860359699958
  0
ARC
  5
817B
330
1F
100
AcDbEntity
  8
ceco.net 214
100
AcDbCircle
 10
-1739.130360977833
 20
1119.041482269295
 30
0.0
 40
17.75075663740128
100
AcDbArc
 50
283.7973009930827
 51
358.7208640584452
  0
ARC
  5
817C
330
1F
100
AcDbEntity
  8
ceco.net 214
100
AcDbCircle
 10
-2091.745398573424
 20
1147.44426698826
 30
0.0
 40
371.4793799040872
100
AcDbArc
 50
355.5536676571879
 51
18.44328924016541
  0
ARC
  5
817D
330
1F
100
AcDbEntity
  8
ceco.net 214
100
AcDbCircle
 10
-1779.34288009804
 20
1254.148560139019
 30
0.0
 40
41.4341142118912
100
AcDbArc
 50
15.13627805304706
 51
74.88834436816531
  0
ARC
  5
817E
330
1F
100
AcDbEntity
  8
ceco.net 214
100
AcDbCircle
 10
-2858.481179866558
 20
975.6070029397577
 30
0.0
 40
137.5470928896687
100
AcDbArc
 50
34.87117405788097
 51
59.03308584919852
  0
ARC
  5
817F
330
1F
100
AcDbEntity
  8
ceco.net 214
100
AcDbCircle
 10
-1771.163809297448
 20
1223.210216400809
 30
0.0
 40
75.52867583988471
100
AcDbArc
 50
131.3794684655753
 51
154.662443922885
  0
ARC
  5
8180
330
1F
100
AcDbEntity
  8
ceco.net 214
100
AcDbCircle
 10
-2807.674696454216
 20
1027.825723854069
 30
0.0
 40
69.97614573885946
100
AcDbArc
 50
94.2689884750116
 51
106.6888631398968
  0
ARC
  5
8181
330
1F
100
AcDbEntity
  8
ceco.net 214
100
AcDbCircle
 10
-2809.272356082052
 20
1039.897669918439
 30
0.0
 40
57.82293642854307
100
AcDbArc
 50
68.10232510665175
 51
93.58070083777347
  0
ARC
  5
8182
330
1F
100
AcDbEntity
  8
ceco.net 214
100
AcDbCircle
 10
-1440.957922408451
 20
241.8837876211523
 30
0.0
 40
902.027292353552
100
AcDbArc
 50
109.276944502929
 51
112.6125902890965
  0
ARC
  5
8183
330
1F
100
AcDbEntity
  8
ceco.net 214
100
AcDbCircle
 10
-2602.414473444689
 20
-1288.608742066229
 30
0.0
 40
2913.899894711078
100
AcDbArc
 50
55.77839291612002
 51
63.74017376076721
  0
ARC
  5
8184
330
1F
100
AcDbEntity
  8
ceco.net 214
100
AcDbCircle
 10
-1665.695630046139
 20
594.0699719791721
 30
0.0
 40
811.1055282453174
100
AcDbArc
 50
64.23045448835814
 51
83.65364023828638
  0
ARC
  5
8185
330
1F
100
AcDbEntity
  8
ceco.net 214
100
AcDbCircle
 10
-2007.211398737406
 20
-2801.361977956881
 30
0.0
 40
4223.632435861567
100
AcDbArc
 50
89.39976595685081
 51
95.57036337246149
  0
ARC
  5
8186
330
1F
100
AcDbEntity
  8
ceco.net 214
100
AcDbCircle
 10
-2359.978352244319
 20
576.1031709316771
 30
0.0
 40
829.7204894763048
100
AcDbArc
 50
106.4202259752949
 51
125.0984471097998
  0
ARC
  5
8187
330
1F
100
AcDbEntity
  8
ceco.net 214
100
AcDbCircle
 10
-2824.250416688594
 20
1205.007873517051
 30
0.0
 40
51.55875929739668
100
AcDbArc
 50
104.3782410686506
 51
217.3347587912408
  0
ARC
  5
8188
330
1F
100
AcDbEntity
  8
ceco.net 214
100
AcDbCircle
 10
4770.37524378414
 20
4756.677776602353
 30
0.0
 40
8434.461933009044
100
AcDbArc
 50
205.1378498408849
 51
206.0299501093775
  0
ARC
  5
8189
330
1F
100
AcDbEntity
  8
ceco.net 214
100
AcDbCircle
 10
-2372.90082674203
 20
609.7756475824764
 30
0.0
 40
793.7736573612023
100
AcDbArc
 50
93.24272944508241
 51
103.6243718299126
  0
ARC
  5
818A
330
1F
100
AcDbEntity
  8
ceco.net 214
100
AcDbCircle
 10
-2007.211398737406
 20
-2801.361977956881
 30
0.0
 40
4223.632435861567
100
AcDbArc
 50
84.13895957770092
 51
88.36247835904025
  0
ARC
  5
818B
330
1F
100
AcDbEntity
  8
ceco.net 214
100
AcDbCircle
 10
-3895.946837048241
 20
-66386.52506432711
 30
0.0
 40
67450.58185746758
100
AcDbArc
 50
87.33659479389634
 51
88.19829816176964
  0
ARC
  5
818C
330
1F
100
AcDbEntity
  8
ceco.net 214
100
AcDbCircle
 10
-3895.946837048241
 20
-66386.52506432711
 30
0.0
 40
67450.58185746758
100
AcDbArc
 50
88.27861359525622
 51
88.83618891569112
  0
ARC
  5
818D
330
1F
100
AcDbEntity
  8
ceco.net 214
100
AcDbCircle
 10
-3895.946837048241
 20
-66386.52506432711
 30
0.0
 40
67450.58185746758
100
AcDbArc
 50
88.86648978074866
 51
89.0762600087166
  0
ELLIPSE
  5
818E
330
1F
100
AcDbEntity
  8
ceco.net 214
100
AcDbEllipse
 10
510.4252629333132
 20
703.23778241187
 30
0.0
 11
-20.34052750195271
 21
0.0
 31
0.0
210
0.0
220
0.0
230
-1.0
 40
0.8525749217575594
 41
0.0
 42
6.283185307179586
  0
LINE
  5
818F
330
1F
100
AcDbEntity
  8
ceco.net 214
100
AcDbLine
 10
637.5813199164331
 20
646.4111909069872
 30
0.0
 11
637.5813199164331
 21
750.8008446750343
 31
0.0
  0
LINE
  5
8190
330
1F
100
AcDbEntity
  8
ceco.net 214
100
AcDbLine
 10
637.5813199164331
 20
646.4111909069872
 30
0.0
 11
544.2232389821602
 21
646.904380832346
 31
0.0
  0
ARC
  5
8191
330
1F
100
AcDbEntity
  8
ceco.net 214
100
AcDbCircle
 10
511.2061124878619
 20
254.3082504279894
 30
0.0
 40
512.323715237748
100
AcDbArc
 50
75.71941642593523
 51
86.30496523747128
  0
LINE
  5
8192
330
1F
100
AcDbEntity
  8
ceco.net 214
100
AcDbLine
 10
544.2232389821602
 20
646.9043808324312
 30
0.0
 11
544.2232389821602
 21
765.56695064912
 31
0.0
  0
LINE
  5
8193
330
1F
100
AcDbEntity
  8
ceco.net 214
100
AcDbLine
 10
615.9560231999766
 20
755.809043448424
 30
0.0
 11
615.9560231999766
 21
646.5254325281065
 31
0.0
  0
LINE
  5
8194
330
1F
100
AcDbEntity
  8
ceco.net 214
100
AcDbLine
 10
566.3760012663024
 20
763.6528023450231
 30
0.0
 11
566.3760012663024
 21
646.7873527286537
 31
0.0
  0
LINE
  5
8195
330
1F
100
AcDbEntity
  8
ceco.net 214
100
AcDbLine
 10
615.9560231999766
 20
670.6633333142108
 30
0.0
 11
579.5391035019219
 21
670.6633333142108
 31
0.0
  0
LINE
  5
8196
330
1F
100
AcDbEntity
  8
ceco.net 214
100
AcDbLine
 10
615.9560231999766
 20
697.0243451635033
 30
0.0
 11
585.6055737967453
 21
697.0243451634989
 31
0.0
  0
LINE
  5
8197
330
1F
100
AcDbEntity
  8
ceco.net 214
100
AcDbLine
 10
615.9560231999766
 20
722.8581499244032
 30
0.0
 11
584.4619574310036
 21
722.8581499244032
 31
0.0
  0
LINE
  5
8198
330
1F
100
AcDbEntity
  8
ceco.net 214
100
AcDbLine
 10
544.2232389821602
 20
724.4398122797881
 30
0.0
 11
467.7434546292261
 21
724.4398122797881
 31
0.0
  0
LINE
  5
8199
330
1F
100
AcDbEntity
  8
ceco.net 214
100
AcDbLine
 10
467.7434546292261
 20
724.4398122797881
 30
0.0
 11
467.7434546292261
 21
746.0558576105881
 31
0.0
  0
ARC
  5
819A
330
1F
100
AcDbEntity
  8
ceco.net 214
100
AcDbCircle
 10
488.0065154405147
 20
720.4513721173489
 30
0.0
 40
32.65243192878516
100
AcDbArc
 50
89.18369559304647
 51
128.357639114073
  0
LINE
  5
819B
330
1F
100
AcDbEntity
  8
ceco.net 214
100
AcDbLine
 10
488.4717054177071
 20
753.1004901629156
 30
0.0
 11
517.850878805646
 21
753.3969581098008
 31
0.0
  0
LINE
  5
819C
330
1F
100
AcDbEntity
  8
ceco.net 214
100
AcDbLine
 10
517.850878805646
 20
724.4398122797881
 30
0.0
 11
517.850878805646
 21
753.3969581098008
 31
0.0
  0
ARC
  5
819D
330
1F
100
AcDbEntity
  8
ceco.net 214
100
AcDbCircle
 10
542.9783121765376
 20
733.6052719180279
 30
0.0
 40
31.98591487033259
100
AcDbArc
 50
87.7694221609236
 51
141.7741746082849
  0
LINE
  5
819E
330
1F
100
AcDbEntity
  8
ceco.net 214
100
AcDbLine
 10
517.9034068911787
 20
674.8330751680829
 30
0.0
 11
517.846534173801
 21
664.0673894315157
 31
0.0
  0
LINE
  5
819F
330
1F
100
AcDbEntity
  8
ceco.net 214
100
AcDbLine
 10
491.669607299802
 20
683.7196703740915
 30
0.0
 11
473.0226642014768
 21
724.4398122797881
 31
0.0
  0
ARC
  5
81A0
330
1F
100
AcDbEntity
  8
ceco.net 214
100
AcDbCircle
 10
522.7357169164879
 20
607.7274426737509
 30
0.0
 40
67.27939604838168
100
AcDbArc
 50
94.11878810175116
 51
104.1155201654019
  0
ARC
  5
81A1
330
1F
100
AcDbEntity
  8
ceco.net 214
100
AcDbCircle
 10
523.1235685970132
 20
705.4894564677208
 30
0.0
 40
31.09764947064848
100
AcDbArc
 50
260.3363757377933
 51
312.7263260240431
  0
ARC
  5
81A2
330
1F
100
AcDbEntity
  8
ceco.net 214
100
AcDbCircle
 10
577.5101459535999
 20
698.6060177910087
 30
0.0
 40
79.57918003301168
100
AcDbArc
 50
319.0131758417657
 51
40.98682415823424
  0
ARC
  5
81A3
330
1F
100
AcDbEntity
  8
ceco.net 214
100
AcDbCircle
 10
487.8617833212956
 20
705.639617556808
 30
0.0
 40
98.12273689069087
100
AcDbArc
 50
323.1457040437215
 51
36.19107813184814
  0
ARC
  5
81A4
330
1F
100
AcDbEntity
  8
ceco.net 214
100
AcDbCircle
 10
-1738.422873179384
 20
-27020.81111769596
 30
0.0
 40
27829.35047566299
100
AcDbArc
 50
87.06961533490732
 51
87.60693359678331
  0
ARC
  5
81A5
330
1F
100
AcDbEntity
  8
ceco.net 214
100
AcDbCircle
 10
-1610.131957798887
 20
-27089.32332067651
 30
0.0
 40
27818.61958416988
100
AcDbArc
 50
87.44609694225689
 51
87.86439954654833
  0
ARC
  5
81A6
330
1F
100
AcDbEntity
  8
ceco.net 214
100
AcDbCircle
 10
-380.5881993959956
 20
786.1121018359257
 30
0.0
 40
88.62406003362639
100
AcDbArc
 50
329.1194834031849
 51
333.9158126729346
  0
ARC
  5
81A7
330
1F
100
AcDbEntity
  8
ceco.net 214
100
AcDbCircle
 10
-365.0572759330061
 20
758.4645606289711
 30
0.0
 40
57.06477482843812
100
AcDbArc
 50
264.4715452383973
 51
292.3299792639408
  0
ARC
  5
81A8
330
1F
100
AcDbEntity
  8
ceco.net 214
100
AcDbCircle
 10
-316.6037601946391
 20
754.7883422016273
 30
0.0
 40
17.38371768788052
100
AcDbArc
 50
0.1401931909682852
 51
87.06961533490732
  0
ARC
  5
81A9
330
1F
100
AcDbEntity
  8
ceco.net 214
100
AcDbCircle
 10
-445.6093039337665
 20
761.2131395662624
 30
0.0
 40
149.0385975845046
100
AcDbArc
 50
189.211722444706
 51
193.9791906144802
  0
ARC
  5
81AA
330
1F
100
AcDbEntity
  8
ceco.net 214
100
AcDbCircle
 10
-577.1412799155386
 20
766.9005550535367
 30
0.0
 40
17.38371768788052
100
AcDbArc
 50
87.60693359678331
 51
174.5363557407756
  0
ARC
  5
81AB
330
1F
100
AcDbEntity
  8
ceco.net 214
100
AcDbCircle
 10
-572.8336101474432
 20
727.3459975397781
 30
0.0
 40
17.38371768788052
100
AcDbArc
 50
194.9064647243339
 51
267.8643995464438
  0
LINE
  5
81AC
330
1F
100
AcDbEntity
  8
ceco.net 214
100
AcDbLine
 10
-344.6200122867703
 20
740.1693927337856
 30
0.0
 11
-345.1780152087576
 21
728.1665738379627
 31
0.0
  0
LINE
  5
81AD
330
1F
100
AcDbEntity
  8
ceco.net 214
100
AcDbLine
 10
-406.3010243727039
 20
743.0369012143489
 30
0.0
 11
-406.8590272946785
 21
731.0340823185357
 31
0.0
  0
LINE
  5
81AE
330
1F
100
AcDbEntity
  8
ceco.net 214
100
AcDbLine
 10
-353.2212227134532
 20
740.5692571816537
 30
0.0
 11
-353.7792256354368
 21
728.5664382858309
 31
0.0
  0
LINE
  5
81AF
330
1F
100
AcDbEntity
  8
ceco.net 214
100
AcDbLine
 10
-294.5708458947501
 20
754.6147367881112
 30
0.0
 11
-599.0963671837453
 21
768.7719220435732
 31
0.0
  0
LINE
  5
81B0
330
1F
100
AcDbEntity
  8
ceco.net 214
100
AcDbLine
 10
-294.6784839424836
 20
752.2994084226141
 30
0.0
 11
-599.2040052314733
 21
766.4565936780807
 31
0.0
  0
LINE
  5
81B1
330
1F
100
AcDbEntity
  8
ceco.net 214
100
AcDbLine
 10
-299.9018009736573
 20
740.410805759118
 30
0.0
 11
-599.0185282715302
 21
754.316539844855
 31
0.0
  0
LINE
  5
81B2
330
1F
100
AcDbEntity
  8
ceco.net 214
100
AcDbLine
 10
-300.0094390213908
 20
738.0954773936256
 30
0.0
 11
-599.1261663192635
 21
752.0012114793626
 31
0.0
  0
LINE
  5
81B3
330
1F
100
AcDbEntity
  8
ceco.net 214
100
AcDbLine
 10
-309.7747452012536
 20
726.5206997909406
 30
0.0
 11
-597.5780537175706
 21
739.9004806991354
 31
0.0
  0
LINE
  5
81B4
330
1F
100
AcDbEntity
  8
ceco.net 214
100
AcDbLine
 10
-309.882383248987
 20
724.2053714254482
 30
0.0
 11
-597.6856917653058
 21
737.585152333643
 31
0.0
  0
LINE
  5
81B5
330
1F
100
AcDbEntity
  8
ceco.net 214
100
AcDbLine
 10
-324.3309740977201
 20
712.8483165554191
 30
0.0
 11
-594.7208577780092
 21
725.4185591356274
 31
0.0
  0
LINE
  5
81B6
330
1F
100
AcDbEntity
  8
ceco.net 214
100
AcDbLine
 10
-324.4386121454535
 20
710.5329881899267
 30
0.0
 11
-594.8284958257427
 21
723.1032307701302
 31
0.0
  0
ARC
  5
81B7
330
1F
100
AcDbEntity
  8
ceco.net 214
100
AcDbCircle
 10
-295.7755189679392
 20
753.5105750307491
 30
0.0
 40
1.634139039274431
100
AcDbArc
 50
312.1692522912478
 51
42.5072966402469
  0
ARC
  5
81B8
330
1F
100
AcDbEntity
  8
ceco.net 214
100
AcDbCircle
 10
-301.1064740468445
 20
739.306644001756
 30
0.0
 40
1.634139039274431
100
AcDbArc
 50
312.1692522912478
 51
42.5072966402469
  0
ARC
  5
81B9
330
1F
100
AcDbEntity
  8
ceco.net 214
100
AcDbCircle
 10
-310.9794182744372
 20
725.4165380335784
 30
0.0
 40
1.634139039274431
100
AcDbArc
 50
312.1692522912478
 51
42.5072966402469
  0
ARC
  5
81BA
330
1F
100
AcDbEntity
  8
ceco.net 214
100
AcDbCircle
 10
-325.5356471709073
 20
711.744154798057
 30
0.0
 40
1.634139039274431
100
AcDbArc
 50
312.1692522912478
 51
42.5072966402469
  0
ARC
  5
81BB
330
1F
100
AcDbEntity
  8
ceco.net 214
100
AcDbCircle
 10
-593.6238227525536
 20
724.2073925275116
 30
0.0
 40
1.634139039274431
100
AcDbArc
 50
132.1692522914942
 51
222.5072966404277
  0
ARC
  5
81BC
330
1F
100
AcDbEntity
  8
ceco.net 214
100
AcDbCircle
 10
-596.4810186921276
 20
738.6893140910196
 30
0.0
 40
1.634139039274431
100
AcDbArc
 50
132.1692522914942
 51
222.5072966404277
  0
ARC
  5
81BD
330
1F
100
AcDbEntity
  8
ceco.net 214
100
AcDbCircle
 10
-597.9214932460799
 20
753.1053732367391
 30
0.0
 40
1.634139039274431
100
AcDbArc
 50
132.1692522914942
 51
222.5072966404277
  0
ARC
  5
81BE
330
1F
100
AcDbEntity
  8
ceco.net 214
100
AcDbCircle
 10
-597.9993321582969
 20
767.5607554354574
 30
0.0
 40
1.634139039274431
100
AcDbArc
 50
132.1692522914942
 51
222.5072966404277
  0
ARC
  5
81BF
330
1F
100
AcDbEntity
  8
ceco.net 214
100
AcDbCircle
 10
-445.6093039337665
 20
761.2131395662624
 30
0.0
 40
149.0385975845046
100
AcDbArc
 50
183.6291996477727
 51
188.3026624719867
  0
ARC
  5
81C0
330
1F
100
AcDbEntity
  8
ceco.net 214
100
AcDbCircle
 10
-445.6093039337665
 20
761.2131395662624
 30
0.0
 40
149.0385975845046
100
AcDbArc
 50
178.0668049614391
 51
182.733480272621
  0
ARC
  5
81C1
330
1F
100
AcDbEntity
  8
ceco.net 214
100
AcDbCircle
 10
-380.5881993959956
 20
786.1121018359257
 30
0.0
 40
88.62406003362639
100
AcDbArc
 50
304.5591332748264
 51
315.9828364674835
  0
ARC
  5
81C2
330
1F
100
AcDbEntity
  8
ceco.net 214
100
AcDbCircle
 10
-316.6037601946391
 20
754.7883422016273
 30
0.0
 40
17.38371768788052
100
AcDbArc
 50
333.9158126729287
 51
352.493869352163
  0
ARC
  5
81C3
330
1F
100
AcDbEntity
  8
ceco.net 214
100
AcDbCircle
 10
-380.5881993959956
 20
786.1121018359257
 30
0.0
 40
88.62406003362639
100
AcDbArc
 50
317.949821570295
 51
327.4048566520316
  0
ARC
  5
81C4
330
1F
100
AcDbEntity
  8
ceco.net 214
100
AcDbCircle
 10
-380.5881993959956
 20
786.1121018359257
 30
0.0
 40
88.62406003362639
100
AcDbArc
 50
294.8274787362064
 51
302.0061338692816
  0
ENDSEC
  0
SECTION
  2
OBJECTS
  0
DICTIONARY
  5
C
330
0
100
AcDbDictionary
281
     1
  3
ACAD_GROUP
350
D
  3
ACAD_LAYOUT
350
1A
  3
ACAD_MLINESTYLE
350
17
  3
ACAD_PLOTSETTINGS
350
19
  3
ACAD_PLOTSTYLENAME
350
E
  3
AcDbVariableDictionary
350
115
  3
DWGPROPS
350
8E3
  0
DICTIONARY
  5
90B
330
2
100
AcDbDictionary
280
     1
281
     1
  3
ACAD_LAYERFILTERS
360
7A67
  3
ACAD_LAYERSTATES
360
90C
  0
DICTIONARY
  5
7AA4
330
7AA3
100
AcDbDictionary
280
     1
281
     1
  3
ACAD_XREC_ROUNDTRIP
360
7AA5
  0
DICTIONARY
  5
D
102
{ACAD_REACTORS
330
C
102
}
330
C
100
AcDbDictionary
281
     1
  0
DICTIONARY
  5
1A
102
{ACAD_REACTORS
330
C
102
}
330
C
100
AcDbDictionary
281
     1
  3
Layout1
350
1E
  3
Layout2
350
26
  3
Model
350
22
  0
DICTIONARY
  5
17
102
{ACAD_REACTORS
330
C
102
}
330
C
100
AcDbDictionary
281
     1
  3
Standard
350
18
  0
DICTIONARY
  5
19
102
{ACAD_REACTORS
330
C
102
}
330
C
100
AcDbDictionary
281
     1
  0
ACDBDICTIONARYWDFLT
  5
E
102
{ACAD_REACTORS
330
C
102
}
330
C
100
AcDbDictionary
281
     1
  3
Normal
350
F
100
AcDbDictionaryWithDefault
340
F
  0
DICTIONARY
  5
115
102
{ACAD_REACTORS
330
C
102
}
330
C
100
AcDbDictionary
281
     1
  3
DIMASSOC
350
117
  3
HIDETEXT
350
116
  0
XRECORD
  5
8E3
102
{ACAD_REACTORS
330
C
102
}
330
C
100
AcDbXrecord
280
     1
  1
DWGPROPS COOKIE
  2
Ceco.NET-Trees-and-Plants - T - xx . 67 . dwg
  3

  4
ceco.net
  6

  7

  8
peacosta
  9

300
=
301
=
302
=
303
=
304
=
305
=
306
=
307
=
308
=
309
=
 40
0.0450312037037037
 41
2455079.811409143
 42
2455838.656599502
  1

 90
        0
  0
DICTIONARY
  5
7A67
102
{ACAD_REACTORS
330
90B
102
}
330
90B
100
AcDbDictionary
280
     1
281
     1
  3
1
360
7A71
  3
16-20---27
360
7A72
  3
\U+0393\U+03A1\U+0391\U+039C\U+039C\U+0395\U+03A3
360
7A73
  3
Acabados
360
7A74
  3
Aguas pluviais
360
7A75
  3
Arquitectura
360
7A76
  3
ARRANJOS EXTERIORES
360
7A77
  3
AUXILIARES
360
7A78
  3
BETAR
360
7A79
  3
CAD
360
7A7A
  3
coords
360
7A7B
  3
COTAS
360
7A7C
  3
dim
360
7A7D
  3
Diseo
360
7A7E
  3
e
360
7A7F
  3
eba
360
7A80
  3
ENGENHEIROS
360
7A81
  3
equipamento
360
7A82
  3
Especialidades
360
7A83
  3
Estabilidade
360
7A84
  3
GENERAL
360
7A85
  3
H_P
360
7A86
  3
HATCH
360
7A87
  3
HEIGHT
360
7A88
  3
Levantamento
360
7A89
  3
LUNAR
360
7A8A
  3
LUNAR2
360
7A8B
  3
Mediciones
360
7A8C
  3
NONE
360
7A8D
  3
NOTES
360
7A8E
  3
paredes
360
7A8F
  3
PAREDES CORTE
360
7A90
  3
PAREDES VISTA
360
7A91
  3
PAVIMENTOS ACABAMENTO
360
7A92
  3
POINT
360
7A93
  3
Proposta
360
7A94
  3
PUBLIC
360
7A95
  3
REVESTIMENTOS ACABAMENTOS
360
7A96
  3
S
360
7A97
  3
text
360
7A98
  3
texto
360
7A99
  3
TEXTOS
360
7A9A
  3
TEXTOS1
360
7A9B
  3
TR
360
7A9C
  3
Trama
360
7A9D
  3
Traados
360
7A9E
  3
WSP
360
7A9F
  3
XE
360
7AA0
  3
xref
360
7AA1
  3
xrefreeze
360
7AA2
  0
DICTIONARY
  5
90C
102
{ACAD_REACTORS
330
90B
102
}
330
90B
100
AcDbDictionary
281
     1
  0
XRECORD
  5
7AA5
102
{ACAD_REACTORS
330
7AA4
102
}
330
7AA4
100
AcDbXrecord
280
     1
102
MATERIAL
340
0
  0
LAYOUT
  5
1E
102
{ACAD_REACTORS
330
1A
102
}
330
1A
100
AcDbPlotSettings
  1

  2
Microsoft Office Document Image Writer
  4

  6

 40
0.0
 41
0.0
 42
0.0
 43
0.0
 44
0.0
 45
0.0
 46
0.0
 47
0.0
 48
0.0
 49
0.0
140
0.0
141
0.0
142
1.0
143
1.0
 70
   688
 72
     0
 73
     0
 74
     5
  7

 75
    16
147
1.0
148
0.0
149
0.0
100
AcDbLayout
  1
Layout1
 70
     1
 71
     1
 10
0.0
 20
0.0
 11
420.0
 21
297.0
 12
0.0
 22
0.0
 32
0.0
 14
1.000000000000000E+20
 24
1.000000000000000E+20
 34
1.000000000000000E+20
 15
-1.000000000000000E+20
 25
-1.000000000000000E+20
 35
-1.000000000000000E+20
146
0.0
 13
0.0
 23
0.0
 33
0.0
 16
1.0
 26
0.0
 36
0.0
 17
0.0
 27
1.0
 37
0.0
 76
     0
330
1B
  0
LAYOUT
  5
26
102
{ACAD_REACTORS
330
1A
102
}
330
1A
100
AcDbPlotSettings
  1

  2
Microsoft Office Document Image Writer
  4

  6

 40
0.0
 41
0.0
 42
0.0
 43
0.0
 44
0.0
 45
0.0
 46
0.0
 47
0.0
 48
0.0
 49
0.0
140
0.0
141
0.0
142
1.0
143
1.0
 70
   688
 72
     0
 73
     0
 74
     5
  7

 75
    16
147
1.0
148
0.0
149
0.0
100
AcDbLayout
  1
Layout2
 70
     1
 71
     2
 10
0.0
 20
0.0
 11
12.0
 21
9.0
 12
0.0
 22
0.0
 32
0.0
 14
0.0
 24
0.0
 34
0.0
 15
0.0
 25
0.0
 35
0.0
146
0.0
 13
0.0
 23
0.0
 33
0.0
 16
1.0
 26
0.0
 36
0.0
 17
0.0
 27
1.0
 37
0.0
 76
     0
330
23
  0
LAYOUT
  5
22
102
{ACAD_REACTORS
330
1A
102
}
330
1A
100
AcDbPlotSettings
  1

  2
Microsoft Office Document Image Writer
  4

  6

 40
0.0
 41
0.0
 42
0.0
 43
0.0
 44
0.0
 45
0.0
 46
0.0
 47
0.0
 48
0.0
 49
0.0
140
0.0
141
0.0
142
1.0
143
1.0
 70
  1712
 72
     0
 73
     0
 74
     0
  7

 75
     0
147
1.0
148
0.0
149
0.0
100
AcDbLayout
  1
Model
 70
     1
 71
     0
 10
0.0
 20
0.0
 11
12.0
 21
9.0
 12
0.0
 22
0.0
 32
0.0
 14
0.0
 24
0.0
 34
0.0
 15
0.0
 25
0.0
 35
0.0
146
0.0
 13
0.0
 23
0.0
 33
0.0
 16
1.0
 26
0.0
 36
0.0
 17
0.0
 27
1.0
 37
0.0
 76
     0
330
1F
  0
MLINESTYLE
  5
18
102
{ACAD_REACTORS
330
17
102
}
330
17
100
AcDbMlineStyle
  2
STANDARD
 70
     0
  3

 62
   256
 51
90.0
 52
90.0
 71
     2
 49
0.5
 62
   256
  6
BYLAYER
 49
-0.5
 62
   256
  6
BYLAYER
  0
ACDBPLACEHOLDER
  5
F
102
{ACAD_REACTORS
330
E
102
}
330
E
  0
DICTIONARYVAR
  5
117
102
{ACAD_REACTORS
330
115
102
}
330
115
100
DictionaryVariables
280
     0
  1
2
  0
DICTIONARYVAR
  5
116
102
{ACAD_REACTORS
330
115
102
}
330
115
100
DictionaryVariables
280
     0
  1
1
  0
XRECORD
  5
7A71
102
{ACAD_REACTORS
330
7A67
102
}
330
7A67
100
AcDbXrecord
280
     1
  1
1
  1
*Grueso
  1
*
  1
*
 70
     0
  1
*
  1
*
  0
XRECORD
  5
7A72
102
{ACAD_REACTORS
330
7A67
102
}
330
7A67
100
AcDbXrecord
280
     1
  1
16-20---27
  1
*
  1
*
  1
*
 70
     0
  1
*
  1
*
  0
XRECORD
  5
7A73
102
{ACAD_REACTORS
330
7A67
102
}
330
7A67
100
AcDbXrecord
280
     1
  1
\U+0393\U+03A1\U+0391\U+039C\U+039C\U+0395\U+03A3
  1
*\U+0393\U+03A1\U+0391\U+039C\U+039C*
  1
*
  1
*
 70
     0
  1
*
  1
*
  0
XRECORD
  5
7A74
102
{ACAD_REACTORS
330
7A67
102
}
330
7A67
100
AcDbXrecord
280
     1
  1
Acabados
  1
[13]*
  1
*
  1
*
 70
     0
  1
*
  1
*
  0
XRECORD
  5
7A75
102
{ACAD_REACTORS
330
7A67
102
}
330
7A67
100
AcDbXrecord
280
     1
  1
Aguas pluviais
  1
Esp_Aguas pluviais*
  1
*
  1
*
 70
     0
  1
*
  1
*
  0
XRECORD
  5
7A76
102
{ACAD_REACTORS
330
7A67
102
}
330
7A67
100
AcDbXrecord
280
     1
  1
Arquitectura
  1
Arq_*
  1
*
  1
*
 70
     0
  1
*
  1
*
  0
XRECORD
  5
7A77
102
{ACAD_REACTORS
330
7A67
102
}
330
7A67
100
AcDbXrecord
280
     1
  1
ARRANJOS EXTERIORES
  1
ARV*
  1
*
  1
*
 70
     0
  1
*
  1
*
  0
XRECORD
  5
7A78
102
{ACAD_REACTORS
330
7A67
102
}
330
7A67
100
AcDbXrecord
280
     1
  1
AUXILIARES
  1
AUX*
  1
*
  1
*
 70
     0
  1
*
  1
*
  0
XRECORD
  5
7A79
102
{ACAD_REACTORS
330
7A67
102
}
330
7A67
100
AcDbXrecord
280
     1
  1
BETAR
  1
est*
  1
*
  1
*
 70
     0
  1
*
  1
*
  0
XRECORD
  5
7A7A
102
{ACAD_REACTORS
330
7A67
102
}
330
7A67
100
AcDbXrecord
280
     1
  1
CAD
  1
*HEIGHT*,*POINT*,*TEXT*
  1
*
  1
*
 70
     0
  1
*
  1
*
  0
XRECORD
  5
7A7B
102
{ACAD_REACTORS
330
7A67
102
}
330
7A67
100
AcDbXrecord
280
     1
  1
coords
  1
*co-ords,*coords
  1
*
  1
*
 70
     0
  1
*
  1
*
  0
XRECORD
  5
7A7C
102
{ACAD_REACTORS
330
7A67
102
}
330
7A67
100
AcDbXrecord
280
     1
  1
COTAS
  1
C*
  1
*
  1
*
 70
     0
  1
*
  1
*
  0
XRECORD
  5
7A7D
102
{ACAD_REACTORS
330
7A67
102
}
330
7A67
100
AcDbXrecord
280
     1
  1
dim
  1
*dim
  1
*
  1
*
 70
     0
  1
*
  1
*
  0
XRECORD
  5
7A7E
102
{ACAD_REACTORS
330
7A67
102
}
330
7A67
100
AcDbXrecord
280
     1
  1
Diseo
  1
1*
  1
*
  1
*
 70
     0
  1
*
  1
*
  0
XRECORD
  5
7A7F
102
{ACAD_REACTORS
330
7A67
102
}
330
7A67
100
AcDbXrecord
280
     1
  1
e
  1
*
  1
*
  1
*
 70
     0
  1
*
  1
*
  0
XRECORD
  5
7A80
102
{ACAD_REACTORS
330
7A67
102
}
330
7A67
100
AcDbXrecord
280
     1
  1
eba
  1
*
  1
*
  1
*
 70
     0
  1
*
  1
*
  0
XRECORD
  5
7A81
102
{ACAD_REACTORS
330
7A67
102
}
330
7A67
100
AcDbXrecord
280
     1
  1
ENGENHEIROS
  1
*
  1
*
  1
*
 70
     0
  1
*
  1
*
  0
XRECORD
  5
7A82
102
{ACAD_REACTORS
330
7A67
102
}
330
7A67
100
AcDbXrecord
280
     1
  1
equipamento
  1
eq*
  1
*
  1
*
 70
     0
  1
*
  1
*
  0
XRECORD
  5
7A83
102
{ACAD_REACTORS
330
7A67
102
}
330
7A67
100
AcDbXrecord
280
     1
  1
Especialidades
  1
Esp_vent*
  1
*
  1
*
 70
     0
  1
*
  1
*
  0
XRECORD
  5
7A84
102
{ACAD_REACTORS
330
7A67
102
}
330
7A67
100
AcDbXrecord
280
     1
  1
Estabilidade
  1
Est_*
  1
*
  1
*
 70
     0
  1
*
  1
*
  0
XRECORD
  5
7A85
102
{ACAD_REACTORS
330
7A67
102
}
330
7A67
100
AcDbXrecord
280
     1
  1
GENERAL
  1
*GENERAL
  1
*
  1
*
 70
     0
  1
*
  1
*
  0
XRECORD
  5
7A86
102
{ACAD_REACTORS
330
7A67
102
}
330
7A67
100
AcDbXrecord
280
     1
  1
H_P
  1
*HEIGHT*,*POINT*
  1
*
  1
*
 70
     0
  1
*
  1
*
  0
XRECORD
  5
7A87
102
{ACAD_REACTORS
330
7A67
102
}
330
7A67
100
AcDbXrecord
280
     1
  1
HATCH
  1
H*
  1
*
  1
*
 70
     0
  1
*
  1
*
  0
XRECORD
  5
7A88
102
{ACAD_REACTORS
330
7A67
102
}
330
7A67
100
AcDbXrecord
280
     1
  1
HEIGHT
  1
*HEIGHT*
  1
*
  1
*
 70
     0
  1
*
  1
*
  0
XRECORD
  5
7A89
102
{ACAD_REACTORS
330
7A67
102
}
330
7A67
100
AcDbXrecord
280
     1
  1
Levantamento
  1
Lev_*
  1
*
  1
*
 70
     0
  1
*
  1
*
  0
XRECORD
  5
7A8A
102
{ACAD_REACTORS
330
7A67
102
}
330
7A67
100
AcDbXrecord
280
     1
  1
LUNAR
  1
*
  1
*
  1
*
 70
    48
  1
*
  1
*
  0
XRECORD
  5
7A8B
102
{ACAD_REACTORS
330
7A67
102
}
330
7A67
100
AcDbXrecord
280
     1
  1
LUNAR2
  1
*
  1
*
  1
*
 70
    12
  1
*
  1
*
  0
XRECORD
  5
7A8C
102
{ACAD_REACTORS
330
7A67
102
}
330
7A67
100
AcDbXrecord
280
     1
  1
Mediciones
  1
[12]*
  1
*
  1
*
 70
     0
  1
*
  1
*
  0
XRECORD
  5
7A8D
102
{ACAD_REACTORS
330
7A67
102
}
330
7A67
100
AcDbXrecord
280
     1
  1
NONE
  1
*
  1
*
  1
*
 70
     0
  1
*
  1
*
  0
XRECORD
  5
7A8E
102
{ACAD_REACTORS
330
7A67
102
}
330
7A67
100
AcDbXrecord
280
     1
  1
NOTES
  1
*|NOTES
  1
*
  1
*
 70
     0
  1
*
  1
*
  0
XRECORD
  5
7A8F
102
{ACAD_REACTORS
330
7A67
102
}
330
7A67
100
AcDbXrecord
280
     1
  1
paredes
  1
pa*
  1
*
  1
*
 70
     0
  1
*
  1
*
  0
XRECORD
  5
7A90
102
{ACAD_REACTORS
330
7A67
102
}
330
7A67
100
AcDbXrecord
280
     1
  1
PAREDES CORTE
  1
PAC*
  1
*
  1
*
 70
     0
  1
*
  1
*
  0
XRECORD
  5
7A91
102
{ACAD_REACTORS
330
7A67
102
}
330
7A67
100
AcDbXrecord
280
     1
  1
PAREDES VISTA
  1
PAV*
  1
*
  1
*
 70
     0
  1
*
  1
*
  0
XRECORD
  5
7A92
102
{ACAD_REACTORS
330
7A67
102
}
330
7A67
100
AcDbXrecord
280
     1
  1
PAVIMENTOS ACABAMENTO
  1
PV*
  1
*
  1
*
 70
     0
  1
*
  1
*
  0
XRECORD
  5
7A93
102
{ACAD_REACTORS
330
7A67
102
}
330
7A67
100
AcDbXrecord
280
     1
  1
POINT
  1
*POINT*
  1
*
  1
*
 70
     0
  1
*
  1
*
  0
XRECORD
  5
7A94
102
{ACAD_REACTORS
330
7A67
102
}
330
7A67
100
AcDbXrecord
280
     1
  1
Proposta
  1
Prop_*
  1
*
  1
*
 70
     0
  1
*
  1
*
  0
XRECORD
  5
7A95
102
{ACAD_REACTORS
330
7A67
102
}
330
7A67
100
AcDbXrecord
280
     1
  1
PUBLIC
  1
*P*
  1
*
  1
*
 70
     0
  1
*
  1
*
  0
XRECORD
  5
7A96
102
{ACAD_REACTORS
330
7A67
102
}
330
7A67
100
AcDbXrecord
280
     1
  1
REVESTIMENTOS ACABAMENTOS
  1
REV*
  1
*
  1
*
 70
     0
  1
*
  1
*
  0
XRECORD
  5
7A97
102
{ACAD_REACTORS
330
7A67
102
}
330
7A67
100
AcDbXrecord
280
     1
  1
S
  1
S
  1
*
  1
*
 70
     0
  1
*
  1
*
  0
XRECORD
  5
7A98
102
{ACAD_REACTORS
330
7A67
102
}
330
7A67
100
AcDbXrecord
280
     1
  1
text
  1
*text
  1
*
  1
*
 70
     0
  1
*
  1
*
  0
XRECORD
  5
7A99
102
{ACAD_REACTORS
330
7A67
102
}
330
7A67
100
AcDbXrecord
280
     1
  1
texto
  1
Texto*
  1
*
  1
*
 70
     0
  1
*
  1
*
  0
XRECORD
  5
7A9A
102
{ACAD_REACTORS
330
7A67
102
}
330
7A67
100
AcDbXrecord
280
     1
  1
TEXTOS
  1
T*
  1
*
  1
*
 70
     0
  1
*
  1
*
  0
XRECORD
  5
7A9B
102
{ACAD_REACTORS
330
7A67
102
}
330
7A67
100
AcDbXrecord
280
     1
  1
TEXTOS1
  1
*TEXTOS 1
  1
*
  1
*
 70
     1
  1
*
  1
*
  0
XRECORD
  5
7A9C
102
{ACAD_REACTORS
330
7A67
102
}
330
7A67
100
AcDbXrecord
280
     1
  1
TR
  1
*TR
  1
*
  1
*
 70
     0
  1
*
  1
*
  0
XRECORD
  5
7A9D
102
{ACAD_REACTORS
330
7A67
102
}
330
7A67
100
AcDbXrecord
280
     1
  1
Trama
  1
Trama_*
  1
*
  1
*
 70
     0
  1
*
  1
*
  0
XRECORD
  5
7A9E
102
{ACAD_REACTORS
330
7A67
102
}
330
7A67
100
AcDbXrecord
280
     1
  1
Traados
  1
Esp_Traados*
  1
*
  1
*
 70
     0
  1
*
  1
*
  0
XRECORD
  5
7A9F
102
{ACAD_REACTORS
330
7A67
102
}
330
7A67
100
AcDbXrecord
280
     1
  1
WSP
  1
S*
  1
*
  1
*
 70
     0
  1
*
  1
*
  0
XRECORD
  5
7AA0
102
{ACAD_REACTORS
330
7A67
102
}
330
7A67
100
AcDbXrecord
280
     1
  1
XE
  1
XE*
  1
*
  1
*
 70
     0
  1
*
  1
*
  0
XRECORD
  5
7AA1
102
{ACAD_REACTORS
330
7A67
102
}
330
7A67
100
AcDbXrecord
280
     1
  1
xref
  1
plan*
  1
*
  1
*
 70
     0
  1
*
  1
*
  0
XRECORD
  5
7AA2
102
{ACAD_REACTORS
330
7A67
102
}
330
7A67
100
AcDbXrecord
280
     1
  1
xrefreeze
  1
plan*
  1
*
  1
*
 70
     4
  1
*
  1
*
  0
ENDSEC
  0
EOF
