  0
SECTION
  2
HEADER
  9
$ACADVER
  1
AC1015
  9
$ACADMAINTVER
 70
    13
  9
$DWGCODEPAGE
  3
ANSI_1252
  9
$INSBASE
 10
0.0
 20
0.0
 30
0.0
  9
$EXTMIN
 10
-1283.800000092014
 20
-1283.8000000339
 30
0.0
  9
$EXTMAX
 10
1283.800000092041
 20
1283.799999975599
 30
0.0
  9
$LIMMIN
 10
0.0
 20
0.0
  9
$LIMMAX
 10
420.0
 20
297.0
  9
$ORTHOMODE
 70
     0
  9
$REGENMODE
 70
     1
  9
$FILLMODE
 70
     1
  9
$QTEXTMODE
 70
     0
  9
$MIRRTEXT
 70
     1
  9
$LTSCALE
 40
1.0
  9
$ATTMODE
 70
     1
  9
$TEXTSIZE
 40
2.5
  9
$TRACEWID
 40
1.0
  9
$TEXTSTYLE
  7
Standard
  9
$CLAYER
  8
ceco.net 144
  9
$CELTYPE
  6
ByLayer
  9
$CECOLOR
 62
   256
  9
$CELTSCALE
 40
1.0
  9
$DISPSILH
 70
     0
  9
$DIMSCALE
 40
1.0
  9
$DIMASZ
 40
2.5
  9
$DIMEXO
 40
0.625
  9
$DIMDLI
 40
3.75
  9
$DIMRND
 40
0.0
  9
$DIMDLE
 40
0.0
  9
$DIMEXE
 40
1.25
  9
$DIMTP
 40
0.0
  9
$DIMTM
 40
0.0
  9
$DIMTXT
 40
2.5
  9
$DIMCEN
 40
2.5
  9
$DIMTSZ
 40
0.0
  9
$DIMTOL
 70
     0
  9
$DIMLIM
 70
     0
  9
$DIMTIH
 70
     0
  9
$DIMTOH
 70
     0
  9
$DIMSE1
 70
     0
  9
$DIMSE2
 70
     0
  9
$DIMTAD
 70
     1
  9
$DIMZIN
 70
     8
  9
$DIMBLK
  1

  9
$DIMASO
 70
     1
  9
$DIMSHO
 70
     1
  9
$DIMPOST
  1

  9
$DIMAPOST
  1

  9
$DIMALT
 70
     0
  9
$DIMALTD
 70
     3
  9
$DIMALTF
 40
0.03937007874016
  9
$DIMLFAC
 40
1.0
  9
$DIMTOFL
 70
     1
  9
$DIMTVP
 40
0.0
  9
$DIMTIX
 70
     0
  9
$DIMSOXD
 70
     0
  9
$DIMSAH
 70
     0
  9
$DIMBLK1
  1

  9
$DIMBLK2
  1

  9
$DIMSTYLE
  2
ISO-25
  9
$DIMCLRD
 70
     0
  9
$DIMCLRE
 70
     0
  9
$DIMCLRT
 70
     0
  9
$DIMTFAC
 40
1.0
  9
$DIMGAP
 40
0.625
  9
$DIMJUST
 70
     0
  9
$DIMSD1
 70
     0
  9
$DIMSD2
 70
     0
  9
$DIMTOLJ
 70
     0
  9
$DIMTZIN
 70
     8
  9
$DIMALTZ
 70
     0
  9
$DIMALTTZ
 70
     0
  9
$DIMUPT
 70
     0
  9
$DIMDEC
 70
     2
  9
$DIMTDEC
 70
     2
  9
$DIMALTU
 70
     2
  9
$DIMALTTD
 70
     3
  9
$DIMTXSTY
  7
Standard
  9
$DIMAUNIT
 70
     0
  9
$DIMADEC
 70
     0
  9
$DIMALTRND
 40
0.0
  9
$DIMAZIN
 70
     0
  9
$DIMDSEP
 70
    44
  9
$DIMATFIT
 70
     3
  9
$DIMFRAC
 70
     0
  9
$DIMLDRBLK
  1

  9
$DIMLUNIT
 70
     2
  9
$DIMLWD
 70
    -2
  9
$DIMLWE
 70
    -2
  9
$DIMTMOVE
 70
     0
  9
$LUNITS
 70
     2
  9
$LUPREC
 70
     2
  9
$SKETCHINC
 40
1.0
  9
$FILLETRAD
 40
10.0
  9
$AUNITS
 70
     0
  9
$AUPREC
 70
     0
  9
$MENU
  1
.
  9
$ELEVATION
 40
0.0
  9
$PELEVATION
 40
0.0
  9
$THICKNESS
 40
0.0
  9
$LIMCHECK
 70
     0
  9
$CHAMFERA
 40
10.0
  9
$CHAMFERB
 40
10.0
  9
$CHAMFERC
 40
20.0
  9
$CHAMFERD
 40
0.0
  9
$SKPOLY
 70
     0
  9
$TDCREATE
 40
2455079.811409143
  9
$TDUCREATE
 40
2455079.936409144
  9
$TDUPDATE
 40
2456736.945309166
  9
$TDUUPDATE
 40
2456737.070309166
  9
$TDINDWG
 40
0.0476314352
  9
$TDUSRTIMER
 40
0.0476314352
  9
$USRTIMER
 70
     1
  9
$ANGBASE
 50
0.0
  9
$ANGDIR
 70
     0
  9
$PDMODE
 70
     0
  9
$PDSIZE
 40
0.0
  9
$PLINEWID
 40
0.0
  9
$SPLFRAME
 70
     0
  9
$SPLINETYPE
 70
     6
  9
$SPLINESEGS
 70
     8
  9
$HANDSEED
  5
9FA
  9
$SURFTAB1
 70
     6
  9
$SURFTAB2
 70
     6
  9
$SURFTYPE
 70
     6
  9
$SURFU
 70
     6
  9
$SURFV
 70
     6
  9
$UCSBASE
  2

  9
$UCSNAME
  2

  9
$UCSORG
 10
0.0
 20
0.0
 30
0.0
  9
$UCSXDIR
 10
1.0
 20
0.0
 30
0.0
  9
$UCSYDIR
 10
0.0
 20
1.0
 30
0.0
  9
$UCSORTHOREF
  2

  9
$UCSORTHOVIEW
 70
     0
  9
$UCSORGTOP
 10
0.0
 20
0.0
 30
0.0
  9
$UCSORGBOTTOM
 10
0.0
 20
0.0
 30
0.0
  9
$UCSORGLEFT
 10
0.0
 20
0.0
 30
0.0
  9
$UCSORGRIGHT
 10
0.0
 20
0.0
 30
0.0
  9
$UCSORGFRONT
 10
0.0
 20
0.0
 30
0.0
  9
$UCSORGBACK
 10
0.0
 20
0.0
 30
0.0
  9
$PUCSBASE
  2

  9
$PUCSNAME
  2

  9
$PUCSORG
 10
0.0
 20
0.0
 30
0.0
  9
$PUCSXDIR
 10
1.0
 20
0.0
 30
0.0
  9
$PUCSYDIR
 10
0.0
 20
1.0
 30
0.0
  9
$PUCSORTHOREF
  2

  9
$PUCSORTHOVIEW
 70
     0
  9
$PUCSORGTOP
 10
0.0
 20
0.0
 30
0.0
  9
$PUCSORGBOTTOM
 10
0.0
 20
0.0
 30
0.0
  9
$PUCSORGLEFT
 10
0.0
 20
0.0
 30
0.0
  9
$PUCSORGRIGHT
 10
0.0
 20
0.0
 30
0.0
  9
$PUCSORGFRONT
 10
0.0
 20
0.0
 30
0.0
  9
$PUCSORGBACK
 10
0.0
 20
0.0
 30
0.0
  9
$USERI1
 70
     0
  9
$USERI2
 70
     0
  9
$USERI3
 70
     0
  9
$USERI4
 70
     0
  9
$USERI5
 70
     0
  9
$USERR1
 40
0.0
  9
$USERR2
 40
0.0
  9
$USERR3
 40
0.0
  9
$USERR4
 40
0.0
  9
$USERR5
 40
0.0
  9
$WORLDVIEW
 70
     1
  9
$SHADEDGE
 70
     3
  9
$SHADEDIF
 70
    70
  9
$TILEMODE
 70
     1
  9
$MAXACTVP
 70
    64
  9
$PINSBASE
 10
0.0
 20
0.0
 30
0.0
  9
$PLIMCHECK
 70
     0
  9
$PEXTMIN
 10
1.000000000000000E+20
 20
1.000000000000000E+20
 30
1.000000000000000E+20
  9
$PEXTMAX
 10
-1.000000000000000E+20
 20
-1.000000000000000E+20
 30
-1.000000000000000E+20
  9
$PLIMMIN
 10
0.0
 20
0.0
  9
$PLIMMAX
 10
420.0
 20
297.0
  9
$UNITMODE
 70
     0
  9
$VISRETAIN
 70
     1
  9
$PLINEGEN
 70
     0
  9
$PSLTSCALE
 70
     1
  9
$TREEDEPTH
 70
  3020
  9
$CMLSTYLE
  2
Standard
  9
$CMLJUST
 70
     0
  9
$CMLSCALE
 40
20.0
  9
$PROXYGRAPHICS
 70
     1
  9
$MEASUREMENT
 70
     1
  9
$CELWEIGHT
370
    -1
  9
$ENDCAPS
280
     0
  9
$JOINSTYLE
280
     0
  9
$LWDISPLAY
290
     0
  9
$INSUNITS
 70
     4
  9
$HYPERLINKBASE
  1

  9
$STYLESHEET
  1

  9
$XEDIT
290
     1
  9
$CEPSNTYPE
380
     0
  9
$PSTYLEMODE
290
     1
  9
$FINGERPRINTGUID
  2
{81085373-3A21-4932-80AA-8F6C3258C50C}
  9
$VERSIONGUID
  2
{197D1B75-F55F-4C8F-AFB6-69471561AC41}
  9
$EXTNAMES
290
     1
  9
$PSVPSCALE
 40
0.0
  9
$OLESTARTUP
290
     0
  0
ENDSEC
  0
SECTION
  2
CLASSES
  0
CLASS
  1
ACDBDICTIONARYWDFLT
  2
AcDbDictionaryWithDefault
  3
AutoCAD 2000
 90
        0
280
     0
281
     0
  0
CLASS
  1
ACDBPLACEHOLDER
  2
AcDbPlaceHolder
  3
AutoCAD 2000
 90
        0
280
     0
281
     0
  0
CLASS
  1
LAYOUT
  2
AcDbLayout
  3
AutoCAD 2000
 90
        0
280
     0
281
     0
  0
CLASS
  1
DICTIONARYVAR
  2
AcDbDictionaryVar
  3
AutoCAD 2000
 90
        0
280
     0
281
     0
  0
CLASS
  1
IMAGEDEF
  2
AcDbRasterImageDef
  3
ISM
 90
        0
280
     0
281
     0
  0
ENDSEC
  0
SECTION
  2
TABLES
  0
TABLE
  2
VPORT
  5
8
330
0
100
AcDbSymbolTable
 70
     3
  0
VPORT
  5
9F9
330
8
100
AcDbSymbolTableRecord
100
AcDbViewportTableRecord
  2
*Active
 70
     0
 10
0.0
 20
0.0
 11
1.0
 21
1.0
 12
0.000000000013415
 22
-0.0000000291506694
 13
0.0
 23
0.0
 14
10.0
 24
10.0
 15
10.0
 25
10.0
 16
0.0
 26
0.0
 36
1.0
 17
0.0
 27
0.0
 37
0.0
 40
2585.831479299508
 41
2.184834123222748
 42
50.0
 43
0.0
 44
0.0
 50
0.0
 51
0.0
 71
     0
 72
   100
 73
     1
 74
     3
 75
     0
 76
     0
 77
     0
 78
     0
281
     0
 65
     1
110
0.0
120
0.0
130
0.0
111
1.0
121
0.0
131
0.0
112
0.0
122
1.0
132
0.0
 79
     0
146
0.0
  0
ENDTAB
  0
TABLE
  2
LTYPE
  5
5
330
0
100
AcDbSymbolTable
 70
     1
  0
LTYPE
  5
14
330
5
100
AcDbSymbolTableRecord
100
AcDbLinetypeTableRecord
  2
ByBlock
 70
     0
  3

 72
    65
 73
     0
 40
0.0
  0
LTYPE
  5
15
330
5
100
AcDbSymbolTableRecord
100
AcDbLinetypeTableRecord
  2
ByLayer
 70
     0
  3

 72
    65
 73
     0
 40
0.0
  0
LTYPE
  5
16
330
5
100
AcDbSymbolTableRecord
100
AcDbLinetypeTableRecord
  2
Continuous
 70
     0
  3
Solid line
 72
    65
 73
     0
 40
0.0
  0
ENDTAB
  0
TABLE
  2
LAYER
  5
2
330
0
100
AcDbSymbolTable
 70
     2
  0
LAYER
  5
10
330
2
100
AcDbSymbolTableRecord
100
AcDbLayerTableRecord
  2
0
 70
     0
 62
     7
  6
Continuous
370
    -3
390
F
  0
LAYER
  5
8F5
102
{ACAD_XDICTIONARY
360
8F6
102
}
330
2
100
AcDbSymbolTableRecord
100
AcDbLayerTableRecord
  2
ceco.net 144
 70
     0
 62
     7
  6
Continuous
370
    -3
390
F
1001
AcAecLayerStandard
1000

1000

  0
ENDTAB
  0
TABLE
  2
STYLE
  5
3
330
0
100
AcDbSymbolTable
 70
     1
  0
STYLE
  5
11
330
3
100
AcDbSymbolTableRecord
100
AcDbTextStyleTableRecord
  2
Standard
 70
     0
 40
0.0
 41
1.0
 50
0.0
 71
     0
 42
2.5
  3
txt
  4

  0
ENDTAB
  0
TABLE
  2
VIEW
  5
6
330
0
100
AcDbSymbolTable
 70
     0
  0
ENDTAB
  0
TABLE
  2
UCS
  5
7
330
0
100
AcDbSymbolTable
 70
     0
  0
ENDTAB
  0
TABLE
  2
APPID
  5
9
330
0
100
AcDbSymbolTable
 70
    11
  0
APPID
  5
12
330
9
100
AcDbSymbolTableRecord
100
AcDbRegAppTableRecord
  2
ACAD
 70
     0
  0
APPID
  5
2C
330
9
100
AcDbSymbolTableRecord
100
AcDbRegAppTableRecord
  2
ACAD_DSTYLE_DIMJOGGED_JOGANGLE_SYMBOL
 70
     0
  0
APPID
  5
11B
330
9
100
AcDbSymbolTableRecord
100
AcDbRegAppTableRecord
  2
ACAD_NAV_VCDISPLAY
 70
     0
  0
APPID
  5
11C
330
9
100
AcDbSymbolTableRecord
100
AcDbRegAppTableRecord
  2
ACAD_MLEADERVER
 70
     0
  0
APPID
  5
8F8
330
9
100
AcDbSymbolTableRecord
100
AcDbRegAppTableRecord
  2
ACAD_PSEXT
 70
     0
  0
APPID
  5
8F9
330
9
100
AcDbSymbolTableRecord
100
AcDbRegAppTableRecord
  2
AcAecLayerStandard
 70
     0
  0
APPID
  5
8FA
330
9
100
AcDbSymbolTableRecord
100
AcDbRegAppTableRecord
  2
ACAD_EXEMPT_FROM_CAD_STANDARDS
 70
     0
  0
APPID
  5
8FB
330
9
100
AcDbSymbolTableRecord
100
AcDbRegAppTableRecord
  2
AUTOCAD_POSTSCRIPT_FIGURE
 70
     0
  0
APPID
  5
8FC
330
9
100
AcDbSymbolTableRecord
100
AcDbRegAppTableRecord
  2
DCO15
 70
     0
  0
APPID
  5
8FD
330
9
100
AcDbSymbolTableRecord
100
AcDbRegAppTableRecord
  2
CONTENTBLOCKDESCRIPTION
 70
     0
  0
APPID
  5
8FE
330
9
100
AcDbSymbolTableRecord
100
AcDbRegAppTableRecord
  2
CONTENTBLOCKICON
 70
     0
  0
ENDTAB
  0
TABLE
  2
DIMSTYLE
  5
A
330
0
100
AcDbSymbolTable
 70
     2
100
AcDbDimStyleTable
 71
     0
  0
DIMSTYLE
105
27
330
A
100
AcDbSymbolTableRecord
100
AcDbDimStyleTableRecord
  2
ISO-25
 70
     0
 41
2.5
 42
0.625
 43
3.75
 44
1.25
 73
     0
 74
     0
 77
     1
 78
     8
140
2.5
141
2.5
143
0.03937007874016
147
0.625
171
     3
172
     1
271
     2
272
     2
274
     3
278
    44
283
     0
284
     8
340
11
  0
DIMSTYLE
105
2B
330
A
100
AcDbSymbolTableRecord
100
AcDbDimStyleTableRecord
  2
Standard
 70
     0
340
11
  0
ENDTAB
  0
TABLE
  2
BLOCK_RECORD
  5
1
330
0
100
AcDbSymbolTable
 70
     2
  0
BLOCK_RECORD
  5
1F
330
1
100
AcDbSymbolTableRecord
100
AcDbBlockTableRecord
  2
*Model_Space
340
22
  0
BLOCK_RECORD
  5
1B
330
1
100
AcDbSymbolTableRecord
100
AcDbBlockTableRecord
  2
*Paper_Space
340
1E
  0
BLOCK_RECORD
  5
23
330
1
100
AcDbSymbolTableRecord
100
AcDbBlockTableRecord
  2
*Paper_Space0
340
26
  0
ENDTAB
  0
ENDSEC
  0
SECTION
  2
BLOCKS
  0
BLOCK
  5
20
330
1F
100
AcDbEntity
  8
0
100
AcDbBlockBegin
  2
*Model_Space
 70
     0
 10
0.0
 20
0.0
 30
0.0
  3
*Model_Space
  1

  0
ENDBLK
  5
21
330
1F
100
AcDbEntity
  8
0
100
AcDbBlockEnd
  0
BLOCK
  5
1C
330
1B
100
AcDbEntity
 67
     1
  8
0
100
AcDbBlockBegin
  2
*Paper_Space
 70
     0
 10
0.0
 20
0.0
 30
0.0
  3
*Paper_Space
  1

  0
ENDBLK
  5
1D
330
1B
100
AcDbEntity
 67
     1
  8
0
100
AcDbBlockEnd
  0
BLOCK
  5
24
330
23
100
AcDbEntity
  8
0
100
AcDbBlockBegin
  2
*Paper_Space0
 70
     0
 10
0.0
 20
0.0
 30
0.0
  3
*Paper_Space0
  1

  0
ENDBLK
  5
25
330
23
100
AcDbEntity
  8
0
100
AcDbBlockEnd
  0
ENDSEC
  0
SECTION
  2
ENTITIES
  0
CIRCLE
  5
97F
330
1F
100
AcDbEntity
  8
ceco.net 144
100
AcDbCircle
 10
0.0
 20
0.0
 30
0.0
 40
775.0000000005591
  0
ARC
  5
980
330
1F
100
AcDbEntity
  8
ceco.net 144
100
AcDbCircle
 10
417.7479498495231
 20
1197.798315361607
 30
0.0
 40
216.6186538077063
100
AcDbArc
 50
162.0338818317699
 51
185.4486704590621
  0
ARC
  5
981
330
1F
100
AcDbEntity
  8
ceco.net 144
100
AcDbCircle
 10
-954.6103866700432
 20
940.5396931410068
 30
0.0
 40
1180.686079161793
100
AcDbArc
 50
353.1637470585343
 51
11.5643299223987
  0
ARC
  5
982
330
1F
100
AcDbEntity
  8
ceco.net 144
100
AcDbCircle
 10
207.6692219677497
 20
819.8175650129559
 30
0.0
 40
22.20317819444157
100
AcDbArc
 50
229.5236199968136
 51
296.8038741860512
  0
ARC
  5
983
330
1F
100
AcDbEntity
  8
ceco.net 144
100
AcDbCircle
 10
187.8803188175079
 20
792.1631470109568
 30
0.0
 40
12.03279536917479
100
AcDbArc
 50
63.46250036095423
 51
108.2463945983548
  0
ARC
  5
984
330
1F
100
AcDbEntity
  8
ceco.net 144
100
AcDbCircle
 10
125.2620695929508
 20
1280.855186827713
 30
0.0
 40
480.8789761462799
100
AcDbArc
 50
270.5699180599662
 51
277.0295707511432
  0
LINE
  5
985
330
1F
100
AcDbEntity
  8
ceco.net 144
100
AcDbLine
 10
130.0452682189643
 20
799.9999999883584
 30
0.0
 11
0.0
 21
799.9999999883584
 31
0.0
  0
LINE
  5
986
330
1F
100
AcDbEntity
  8
ceco.net 144
100
AcDbLine
 10
0.0
 20
799.9999999883584
 30
0.0
 11
-130.0452682189643
 21
799.9999999883584
 31
0.0
  0
ARC
  5
987
330
1F
100
AcDbEntity
  8
ceco.net 144
100
AcDbCircle
 10
-125.2620695928926
 20
1280.855186827713
 30
0.0
 40
480.8789761462831
100
AcDbArc
 50
262.9704292488566
 51
269.4300819400337
  0
ARC
  5
988
330
1F
100
AcDbEntity
  8
ceco.net 144
100
AcDbCircle
 10
-187.8803188174497
 20
792.1631470109568
 30
0.0
 40
12.03279536919018
100
AcDbArc
 50
71.75360540164515
 51
116.5374996390457
  0
ARC
  5
989
330
1F
100
AcDbEntity
  8
ceco.net 144
100
AcDbCircle
 10
-207.6692219676915
 20
819.8175650129559
 30
0.0
 40
22.20317819444765
100
AcDbArc
 50
243.1961258139488
 51
310.4763800031863
  0
ARC
  5
98A
330
1F
100
AcDbEntity
  8
ceco.net 144
100
AcDbCircle
 10
954.6103866701015
 20
940.5396931410068
 30
0.0
 40
1180.686079161808
100
AcDbArc
 50
168.4356700776012
 51
186.8362529414657
  0
ARC
  5
98B
330
1F
100
AcDbEntity
  8
ceco.net 144
100
AcDbCircle
 10
-417.7479498494649
 20
1197.798315361607
 30
0.0
 40
216.6186538077213
100
AcDbArc
 50
354.5513295409378
 51
17.96611816823001
  0
ARC
  5
98C
330
1F
100
AcDbEntity
  8
ceco.net 144
100
AcDbCircle
 10
-200.9478367918054
 20
1271.199224729207
 30
0.0
 40
12.60083121964567
100
AcDbArc
 50
89.8292232268542
 51
211.4999323802302
  0
LINE
  5
98D
330
1F
100
AcDbEntity
  8
ceco.net 144
100
AcDbLine
 10
-200.9102785959839
 20
1283.799999975599
 30
0.0
 11
200.9102785959839
 21
1283.799999975599
 31
0.0
  0
ARC
  5
98E
330
1F
100
AcDbEntity
  8
ceco.net 144
100
AcDbCircle
 10
200.9478367918636
 20
1271.199224729207
 30
0.0
 40
12.60083121970882
100
AcDbArc
 50
328.5000676197697
 51
90.17077677314578
  0
ARC
  5
98F
330
1F
100
AcDbEntity
  8
ceco.net 144
100
AcDbCircle
 10
1142.363719849265
 20
551.578903446556
 30
0.0
 40
216.6186537541715
100
AcDbArc
 50
117.0338819542971
 51
140.4486705815901
  0
ARC
  5
990
330
1F
100
AcDbEntity
  8
ceco.net 144
100
AcDbCircle
 10
-9.94948248687433
 20
1340.073473626049
 30
0.0
 40
1180.686079502974
100
AcDbArc
 50
308.1637470176754
 51
326.5643298815352
  0
ARC
  5
991
330
1F
100
AcDbEntity
  8
ceco.net 144
100
AcDbCircle
 10
726.5428745137178
 20
432.8542443661717
 30
0.0
 40
22.20317806719544
100
AcDbArc
 50
184.5236199215247
 51
251.8038741107837
  0
ARC
  5
992
330
1F
100
AcDbEntity
  8
ceco.net 144
100
AcDbCircle
 10
692.9953804034157
 20
427.2924854805459
 30
0.0
 40
12.0327955001222
100
AcDbArc
 50
18.46250033143102
 51
63.24639456868045
  0
ARC
  5
993
330
1F
100
AcDbEntity
  8
ceco.net 144
100
AcDbCircle
 10
994.2750462442637
 20
817.127727842424
 30
0.0
 40
480.8789743136223
100
AcDbArc
 50
225.5699180161426
 51
232.0295707072601
  0
LINE
  5
994
330
1F
100
AcDbEntity
  8
ceco.net 144
100
AcDbLine
 10
657.6413160655647
 20
473.7295338418334
 30
0.0
 11
565.6854249536991
 21
565.6854249536991
 31
0.0
  0
LINE
  5
995
330
1F
100
AcDbEntity
  8
ceco.net 144
100
AcDbLine
 10
565.6854249536991
 20
565.6854249536991
 30
0.0
 11
473.7295338418334
 21
657.641316007357
 31
0.0
  0
ARC
  5
996
330
1F
100
AcDbEntity
  8
ceco.net 144
100
AcDbCircle
 10
817.1277289321878
 20
994.2750452127075
 30
0.0
 40
480.8789744104064
100
AcDbArc
 50
217.9704291190245
 51
224.4300818101872
  0
ARC
  5
997
330
1F
100
AcDbEntity
  8
ceco.net 144
100
AcDbCircle
 10
427.292485597136
 20
692.9953804615652
 30
0.0
 40
12.03279550005205
100
AcDbArc
 50
26.75360543124956
 51
71.53749966878319
  0
ARC
  5
998
330
1F
100
AcDbEntity
  8
ceco.net 144
100
AcDbCircle
 10
432.8542444827035
 20
726.5428745718672
 30
0.0
 40
22.20317806720549
100
AcDbArc
 50
198.1961258892162
 51
265.4763800784233
  0
ARC
  5
999
330
1F
100
AcDbEntity
  8
ceco.net 144
100
AcDbCircle
 10
1340.073473324941
 20
-9.949482127558439
 30
0.0
 40
1180.686078988503
100
AcDbArc
 50
123.4356701174243
 51
141.8362529812914
  0
ARC
  5
99A
330
1F
100
AcDbEntity
  8
ceco.net 144
100
AcDbCircle
 10
551.5789034757763
 20
1142.363719931454
 30
0.0
 40
216.6186538439382
100
AcDbArc
 50
309.5513293888322
 51
332.9661180161053
  0
ARC
  5
99B
330
1F
100
AcDbEntity
  8
ceco.net 144
100
AcDbCircle
 10
756.7820140427793
 20
1040.965170150739
 30
0.0
 40
12.60083113155067
100
AcDbArc
 50
44.82922357081578
 51
166.4999327239175
  0
LINE
  5
99C
330
1F
100
AcDbEntity
  8
ceco.net 144
100
AcDbLine
 10
765.7186652068048
 20
1049.848706112243
 30
0.0
 11
1049.848705995827
 21
765.7186652650125
 31
0.0
  0
ARC
  5
99D
330
1F
100
AcDbEntity
  8
ceco.net 144
100
AcDbCircle
 10
1040.965170089271
 20
756.782013993943
 30
0.0
 40
12.60083116876296
100
AcDbArc
 50
283.5000677956396
 51
45.1707769490308
  0
ARC
  5
99E
330
1F
100
AcDbEntity
  8
ceco.net 144
100
AcDbCircle
 10
-417.7479498494649
 20
-1197.798315419932
 30
0.0
 40
216.6186538077063
100
AcDbArc
 50
342.03388183177
 51
5.448670459062143
  0
ARC
  5
99F
330
1F
100
AcDbEntity
  8
ceco.net 144
100
AcDbCircle
 10
954.6103868497885
 20
-940.539693170227
 30
0.0
 40
1180.686079343661
100
AcDbArc
 50
173.1637470581721
 51
191.5643299220715
  0
ARC
  5
9A0
330
1F
100
AcDbEntity
  8
ceco.net 144
100
AcDbCircle
 10
-207.6692219676915
 20
-819.8175650129559
 30
0.0
 40
22.20317819444157
100
AcDbArc
 50
49.52361999681369
 51
116.8038741860511
  0
ARC
  5
9A1
330
1F
100
AcDbEntity
  8
ceco.net 144
100
AcDbCircle
 10
-187.8803188174497
 20
-792.1631470110733
 30
0.0
 40
12.03279536917479
100
AcDbArc
 50
243.4625003609542
 51
288.2463945983548
  0
ARC
  5
9A2
330
1F
100
AcDbEntity
  8
ceco.net 144
100
AcDbCircle
 10
-125.2620695928926
 20
-1280.85518682783
 30
0.0
 40
480.8789761462799
100
AcDbArc
 50
90.56991805996629
 51
97.02957075114323
  0
LINE
  5
9A3
330
1F
100
AcDbEntity
  8
ceco.net 144
100
AcDbLine
 10
-130.0452682189643
 20
-799.9999999883584
 30
0.0
 11
0.0
 21
-799.9999999883584
 31
0.0
  0
LINE
  5
9A4
330
1F
100
AcDbEntity
  8
ceco.net 144
100
AcDbLine
 10
0.0
 20
-799.9999999883584
 30
0.0
 11
130.0452682189643
 21
-799.9999999883584
 31
0.0
  0
ARC
  5
9A5
330
1F
100
AcDbEntity
  8
ceco.net 144
100
AcDbCircle
 10
125.2620695929508
 20
-1280.85518682783
 30
0.0
 40
480.8789761462831
100
AcDbArc
 50
82.97042924885674
 51
89.4300819400337
  0
ARC
  5
9A6
330
1F
100
AcDbEntity
  8
ceco.net 144
100
AcDbCircle
 10
187.8803188175079
 20
-792.1631470110733
 30
0.0
 40
12.03279536919018
100
AcDbArc
 50
251.753605401645
 51
296.5374996390457
  0
ARC
  5
9A7
330
1F
100
AcDbEntity
  8
ceco.net 144
100
AcDbCircle
 10
207.6692219677497
 20
-819.8175650129559
 30
0.0
 40
22.20317819444765
100
AcDbArc
 50
63.19612581394882
 51
130.4763800031863
  0
ARC
  5
9A8
330
1F
100
AcDbEntity
  8
ceco.net 144
100
AcDbCircle
 10
-954.6103868497302
 20
-940.539693170227
 30
0.0
 40
1180.686079343677
100
AcDbArc
 50
348.4356700779285
 51
6.836252941827896
  0
ARC
  5
9A9
330
1F
100
AcDbEntity
  8
ceco.net 144
100
AcDbCircle
 10
417.7479498495231
 20
-1197.798315419932
 30
0.0
 40
216.6186538077213
100
AcDbArc
 50
174.5513295409378
 51
197.96611816823
  0
ARC
  5
9AA
330
1F
100
AcDbEntity
  8
ceco.net 144
100
AcDbCircle
 10
200.9478367918636
 20
-1271.199224787531
 30
0.0
 40
12.60083121964567
100
AcDbArc
 50
269.8292232268542
 51
31.49993238023028
  0
LINE
  5
9AB
330
1F
100
AcDbEntity
  8
ceco.net 144
100
AcDbLine
 10
200.9102785959839
 20
-1283.800000033807
 30
0.0
 11
-200.9102785959839
 21
-1283.800000033807
 31
0.0
  0
ARC
  5
9AC
330
1F
100
AcDbEntity
  8
ceco.net 144
100
AcDbCircle
 10
-200.9478367918054
 20
-1271.199224787531
 30
0.0
 40
12.60083121970882
100
AcDbArc
 50
148.5000676197697
 51
270.1707767731457
  0
ARC
  5
9AD
330
1F
100
AcDbEntity
  8
ceco.net 144
100
AcDbCircle
 10
551.5789033353794
 20
-1142.363719960674
 30
0.0
 40
216.6186539557712
100
AcDbArc
 50
27.03388196017044
 51
50.44867058740156
  0
ARC
  5
9AE
330
1F
100
AcDbEntity
  8
ceco.net 144
100
AcDbCircle
 10
1340.073473324941
 20
9.949482127442024
 30
0.0
 40
1180.686078988492
100
AcDbArc
 50
218.1637470187085
 51
236.5643298825756
  0
ARC
  5
9AF
330
1F
100
AcDbEntity
  8
ceco.net 144
100
AcDbCircle
 10
432.8542444389895
 20
-726.5428746010875
 30
0.0
 40
22.20317803475705
100
AcDbArc
 50
94.52361981504514
 51
161.8038740042644
  0
ARC
  5
9B0
330
1F
100
AcDbEntity
  8
ceco.net 144
100
AcDbCircle
 10
427.2924855264718
 20
-692.9953804907854
 30
0.0
 40
12.03279555003191
100
AcDbArc
 50
288.4625006064604
 51
333.2463948439768
  0
ARC
  5
9B1
330
1F
100
AcDbEntity
  8
ceco.net 144
100
AcDbCircle
 10
817.1277289321878
 20
-994.2750452127075
 30
0.0
 40
480.8789744104102
100
AcDbArc
 50
135.5699181898127
 51
142.0295708809755
  0
LINE
  5
9B2
330
1F
100
AcDbEntity
  8
ceco.net 144
100
AcDbLine
 10
473.7295338418334
 20
-657.641316007357
 30
0.0
 11
565.6854249536991
 21
-565.6854249536991
 31
0.0
  0
LINE
  5
9B3
330
1F
100
AcDbEntity
  8
ceco.net 144
100
AcDbLine
 10
565.6854249536991
 20
-565.6854249536991
 30
0.0
 11
657.6413160655647
 21
-473.7295339000411
 31
0.0
  0
ARC
  5
9B4
330
1F
100
AcDbEntity
  8
ceco.net 144
100
AcDbCircle
 10
994.2750462442637
 20
-817.1277279007481
 30
0.0
 40
480.8789743136225
100
AcDbArc
 50
127.9704292927398
 51
134.4300819838573
  0
ARC
  5
9B5
330
1F
100
AcDbEntity
  8
ceco.net 144
100
AcDbCircle
 10
692.9953803328098
 20
-427.2924855097662
 30
0.0
 40
12.03279555789738
100
AcDbArc
 50
296.7536056691653
 51
341.5374999065048
  0
ARC
  5
9B6
330
1F
100
AcDbEntity
  8
ceco.net 144
100
AcDbCircle
 10
726.5428744699456
 20
-432.854244395392
 30
0.0
 40
22.20317802586782
100
AcDbArc
 50
108.1961258053057
 51
175.4763799946768
  0
ARC
  5
9B7
330
1F
100
AcDbEntity
  8
ceco.net 144
100
AcDbCircle
 10
-9.94948248687433
 20
-1340.073473684373
 30
0.0
 40
1180.686079502986
100
AcDbArc
 50
33.43567011846468
 51
51.83625298232457
  0
ARC
  5
9B8
330
1F
100
AcDbEntity
  8
ceco.net 144
100
AcDbCircle
 10
1142.36371970881
 20
-551.5789034757763
 30
0.0
 40
216.6186536643983
100
AcDbArc
 50
219.5513294480205
 51
242.9661180753003
  0
ARC
  5
9B9
330
1F
100
AcDbEntity
  8
ceco.net 144
100
AcDbCircle
 10
1040.965170089271
 20
-756.7820139940595
 30
0.0
 40
12.60083116868563
100
AcDbArc
 50
314.8292230509691
 51
76.49993220436036
  0
LINE
  5
9BA
330
1F
100
AcDbEntity
  8
ceco.net 144
100
AcDbLine
 10
1049.848705995827
 20
-765.7186652650125
 30
0.0
 11
765.7186652068048
 21
-1049.848706112243
 31
0.0
  0
ARC
  5
9BB
330
1F
100
AcDbEntity
  8
ceco.net 144
100
AcDbCircle
 10
756.7820140265394
 20
-1040.965170179959
 30
0.0
 40
12.60083112257552
100
AcDbArc
 50
193.5000674220137
 51
315.1707765751743
  0
ARC
  5
9BC
330
1F
100
AcDbEntity
  8
ceco.net 144
100
AcDbCircle
 10
1197.798315812077
 20
-417.7479502999922
 30
0.0
 40
216.6186541885123
100
AcDbArc
 50
72.03388195729196
 51
95.4486705845909
  0
ARC
  5
9BD
330
1F
100
AcDbEntity
  8
ceco.net 144
100
AcDbCircle
 10
940.5396936801261
 20
954.6103862815071
 30
0.0
 40
1180.686078775543
100
AcDbArc
 50
263.1637470327703
 51
281.5643298967061
  0
ARC
  5
9BE
330
1F
100
AcDbEntity
  8
ceco.net 144
100
AcDbCircle
 10
819.8175649108598
 20
-207.6692219531396
 30
0.0
 40
22.2031780316552
100
AcDbArc
 50
139.5236200829017
 51
206.8038742722316
  0
ARC
  5
9BF
330
1F
100
AcDbEntity
  8
ceco.net 144
100
AcDbCircle
 10
792.1631467991391
 20
-187.8803188465535
 30
0.0
 40
12.03279559779516
100
AcDbArc
 50
333.4625004395366
 51
18.24639467699152
  0
ARC
  5
9C0
330
1F
100
AcDbEntity
  8
ceco.net 144
100
AcDbCircle
 10
1280.855185825377
 20
-125.2620701086707
 30
0.0
 40
480.8789750811407
100
AcDbArc
 50
180.5699180067592
 51
187.0295706978971
  0
LINE
  5
9C1
330
1F
100
AcDbEntity
  8
ceco.net 144
100
AcDbLine
 10
800.0000000465661
 20
-130.0452682771719
 30
0.0
 11
800.0000000465661
 21
0.0
 31
0.0
  0
LINE
  5
9C2
330
1F
100
AcDbEntity
  8
ceco.net 144
100
AcDbLine
 10
800.0000000465661
 20
0.0
 30
0.0
 11
800.0000000465661
 21
130.0452682771719
 31
0.0
  0
ARC
  5
9C3
330
1F
100
AcDbEntity
  8
ceco.net 144
100
AcDbCircle
 10
1280.855185825377
 20
125.2620701085543
 30
0.0
 40
480.8789750811433
100
AcDbArc
 50
172.9704293021028
 51
179.4300819932407
  0
ARC
  5
9C4
330
1F
100
AcDbEntity
  8
ceco.net 144
100
AcDbCircle
 10
792.1631468697451
 20
187.8803188173333
 30
0.0
 40
12.03279552160481
100
AcDbArc
 50
341.7536053493742
 51
26.5374995866575
  0
ARC
  5
9C5
330
1F
100
AcDbEntity
  8
ceco.net 144
100
AcDbCircle
 10
819.8175649108598
 20
207.6692218948155
 30
0.0
 40
22.20317803169439
100
AcDbArc
 50
153.1961257277683
 51
220.4763799170982
  0
ARC
  5
9C6
330
1F
100
AcDbEntity
  8
ceco.net 144
100
AcDbCircle
 10
940.5396936801261
 20
-954.6103863398311
 30
0.0
 40
1180.686078775537
100
AcDbArc
 50
78.4356701032938
 51
96.83625296722969
  0
ARC
  5
9C7
330
1F
100
AcDbEntity
  8
ceco.net 144
100
AcDbCircle
 10
1197.798315671621
 20
417.7479502707719
 30
0.0
 40
216.6186542041561
100
AcDbArc
 50
264.5513294530953
 51
287.966118080396
  0
ARC
  5
9C8
330
1F
100
AcDbEntity
  8
ceco.net 144
100
AcDbCircle
 10
1271.199224861921
 20
200.9478367626434
 30
0.0
 40
12.60083120337338
100
AcDbArc
 50
359.8292233592147
 51
121.4999325122782
  0
LINE
  5
9C9
330
1F
100
AcDbEntity
  8
ceco.net 144
100
AcDbLine
 10
1283.800000092014
 20
200.9102785959839
 30
0.0
 11
1283.800000092014
 21
-200.9102786541916
 31
0.0
  0
ARC
  5
9CA
330
1F
100
AcDbEntity
  8
ceco.net 144
100
AcDbCircle
 10
1271.19922487816
 20
-200.9478367918636
 30
0.0
 40
12.60083118702086
100
AcDbArc
 50
238.5000673555849
 51
0.1707765086851828
  0
ARC
  5
9CB
330
1F
100
AcDbEntity
  8
ceco.net 144
100
AcDbCircle
 10
-1197.798315671563
 20
417.7479502707719
 30
0.0
 40
216.6186542041531
100
AcDbArc
 50
252.0338819196039
 51
275.4486705469046
  0
ARC
  5
9CC
330
1F
100
AcDbEntity
  8
ceco.net 144
100
AcDbCircle
 10
-940.5396936800681
 20
-954.6103863398311
 30
0.0
 40
1180.686078775543
100
AcDbArc
 50
83.16374703277032
 51
101.5643298967062
  0
ARC
  5
9CD
330
1F
100
AcDbEntity
  8
ceco.net 144
100
AcDbCircle
 10
-819.8175649108016
 20
207.6692218948155
 30
0.0
 40
22.2031780316552
100
AcDbArc
 50
319.5236200829018
 51
26.80387427223163
  0
ARC
  5
9CE
330
1F
100
AcDbEntity
  8
ceco.net 144
100
AcDbCircle
 10
-792.1631468696869
 20
187.8803188173333
 30
0.0
 40
12.03279552163074
100
AcDbArc
 50
153.4625004133425
 51
198.2463946506257
  0
ARC
  5
9CF
330
1F
100
AcDbEntity
  8
ceco.net 144
100
AcDbCircle
 10
-1280.855185825319
 20
125.2620701085543
 30
0.0
 40
480.8789750811407
100
AcDbArc
 50
0.5699180067592302
 51
7.029570697897147
  0
LINE
  5
9D0
330
1F
100
AcDbEntity
  8
ceco.net 144
100
AcDbLine
 10
-800.0000000465661
 20
130.0452682771719
 30
0.0
 11
-800.0000000465661
 21
0.0
 31
0.0
  0
LINE
  5
9D1
330
1F
100
AcDbEntity
  8
ceco.net 144
100
AcDbLine
 10
-800.0000000465661
 20
0.0
 30
0.0
 11
-800.0000000465661
 21
-130.0452682771719
 31
0.0
  0
ARC
  5
9D2
330
1F
100
AcDbEntity
  8
ceco.net 144
100
AcDbCircle
 10
-1280.855185825319
 20
-125.2620701086707
 30
0.0
 40
480.8789750811433
100
AcDbArc
 50
352.9704293021028
 51
359.4300819932407
  0
ARC
  5
9D3
330
1F
100
AcDbEntity
  8
ceco.net 144
100
AcDbCircle
 10
-792.163146799081
 20
-187.8803188465535
 30
0.0
 40
12.03279559776703
100
AcDbArc
 50
161.7536053230084
 51
206.5374995604633
  0
ARC
  5
9D4
330
1F
100
AcDbEntity
  8
ceco.net 144
100
AcDbCircle
 10
-819.8175649108016
 20
-207.6692219531396
 30
0.0
 40
22.20317803169439
100
AcDbArc
 50
333.1961257277683
 51
40.47637991709821
  0
ARC
  5
9D5
330
1F
100
AcDbEntity
  8
ceco.net 144
100
AcDbCircle
 10
-940.5396936800681
 20
954.6103862815071
 30
0.0
 40
1180.686078775537
100
AcDbArc
 50
258.4356701032938
 51
276.8362529672297
  0
ARC
  5
9D6
330
1F
100
AcDbEntity
  8
ceco.net 144
100
AcDbCircle
 10
-1197.798315812018
 20
-417.7479502999922
 30
0.0
 40
216.6186541885209
100
AcDbArc
 50
84.55132941540908
 51
107.966118042708
  0
ARC
  5
9D7
330
1F
100
AcDbEntity
  8
ceco.net 144
100
AcDbCircle
 10
-1271.199224878102
 20
-200.9478367918636
 30
0.0
 40
12.60083118705263
100
AcDbArc
 50
179.8292234913148
 51
301.499932644415
  0
LINE
  5
9D8
330
1F
100
AcDbEntity
  8
ceco.net 144
100
AcDbLine
 10
-1283.800000092014
 20
-200.9102786541916
 30
0.0
 11
-1283.800000092014
 21
200.9102785959839
 31
0.0
  0
ARC
  5
9D9
330
1F
100
AcDbEntity
  8
ceco.net 144
100
AcDbCircle
 10
-1271.199224861862
 20
200.9478367626434
 30
0.0
 40
12.60083120336475
100
AcDbArc
 50
58.50006748772176
 51
180.1707766407852
  0
ARC
  5
9DA
330
1F
100
AcDbEntity
  8
ceco.net 144
100
AcDbCircle
 10
-1142.363719708751
 20
-551.5789034757763
 30
0.0
 40
216.618653664406
100
AcDbArc
 50
297.0338819246996
 51
320.4486705519794
  0
ARC
  5
9DB
330
1F
100
AcDbEntity
  8
ceco.net 144
100
AcDbCircle
 10
9.949482486932538
 20
-1340.073473684373
 30
0.0
 40
1180.686079502974
100
AcDbArc
 50
128.1637470176754
 51
146.5643298815352
  0
ARC
  5
9DC
330
1F
100
AcDbEntity
  8
ceco.net 144
100
AcDbCircle
 10
-726.5428744698875
 20
-432.854244395392
 30
0.0
 40
22.20317802587908
100
AcDbArc
 50
4.523620005323222
 51
71.80387419469422
  0
ARC
  5
9DD
330
1F
100
AcDbEntity
  8
ceco.net 144
100
AcDbCircle
 10
-692.9953803327516
 20
-427.2924855097662
 30
0.0
 40
12.03279555787133
100
AcDbArc
 50
198.4625000934951
 51
243.2463943308346
  0
ARC
  5
9DE
330
1F
100
AcDbEntity
  8
ceco.net 144
100
AcDbCircle
 10
-994.2750462442054
 20
-817.1277279007481
 30
0.0
 40
480.8789743136223
100
AcDbArc
 50
45.56991801614262
 51
52.02957070726017
  0
LINE
  5
9DF
330
1F
100
AcDbEntity
  8
ceco.net 144
100
AcDbLine
 10
-657.6413160655647
 20
-473.7295339000411
 30
0.0
 11
-565.6854249536991
 21
-565.6854249536991
 31
0.0
  0
LINE
  5
9E0
330
1F
100
AcDbEntity
  8
ceco.net 144
100
AcDbLine
 10
-565.6854249536991
 20
-565.6854249536991
 30
0.0
 11
-473.7295338418334
 21
-657.641316007357
 31
0.0
  0
ARC
  5
9E1
330
1F
100
AcDbEntity
  8
ceco.net 144
100
AcDbCircle
 10
-817.1277289321297
 20
-994.2750452127075
 30
0.0
 40
480.8789744104064
100
AcDbArc
 50
37.97042911902451
 51
44.43008181018729
  0
ARC
  5
9E2
330
1F
100
AcDbEntity
  8
ceco.net 144
100
AcDbCircle
 10
-427.2924855264136
 20
-692.9953804907854
 30
0.0
 40
12.03279555004347
100
AcDbArc
 50
206.7536051560231
 51
251.5374993935395
  0
ARC
  5
9E3
330
1F
100
AcDbEntity
  8
ceco.net 144
100
AcDbCircle
 10
-432.8542444389313
 20
-726.5428746010875
 30
0.0
 40
22.20317803474471
100
AcDbArc
 50
18.19612599573549
 51
85.47638018495481
  0
ARC
  5
9E4
330
1F
100
AcDbEntity
  8
ceco.net 144
100
AcDbCircle
 10
-1340.073473324882
 20
9.949482127442024
 30
0.0
 40
1180.686078988503
100
AcDbArc
 50
303.4356701174242
 51
321.8362529812914
  0
ARC
  5
9E5
330
1F
100
AcDbEntity
  8
ceco.net 144
100
AcDbCircle
 10
-551.5789033353212
 20
-1142.363719960674
 30
0.0
 40
216.6186539557833
100
AcDbArc
 50
129.5513294125984
 51
152.9661180398295
  0
ARC
  5
9E6
330
1F
100
AcDbEntity
  8
ceco.net 144
100
AcDbCircle
 10
-756.7820140264812
 20
-1040.965170179959
 30
0.0
 40
12.60083112253684
100
AcDbArc
 50
224.8292234248256
 51
346.4999325779862
  0
LINE
  5
9E7
330
1F
100
AcDbEntity
  8
ceco.net 144
100
AcDbLine
 10
-765.7186652068048
 20
-1049.848706112243
 30
0.0
 11
-1049.848705995827
 21
-765.7186652650125
 31
0.0
  0
ARC
  5
9E8
330
1F
100
AcDbEntity
  8
ceco.net 144
100
AcDbCircle
 10
-1040.965170089213
 20
-756.7820139940595
 30
0.0
 40
12.60083116876296
100
AcDbArc
 50
103.5000677956396
 51
225.1707769490308
  0
ARC
  5
9E9
330
1F
100
AcDbEntity
  8
ceco.net 144
100
AcDbCircle
 10
-551.578903475718
 20
1142.363719931454
 30
0.0
 40
216.6186538439369
100
AcDbArc
 50
207.0338819838946
 51
230.4486706111676
  0
ARC
  5
9EA
330
1F
100
AcDbEntity
  8
ceco.net 144
100
AcDbCircle
 10
-1340.073473324882
 20
-9.949482127558439
 30
0.0
 40
1180.686078988492
100
AcDbArc
 50
38.16374701870859
 51
56.56432988257566
  0
ARC
  5
9EB
330
1F
100
AcDbEntity
  8
ceco.net 144
100
AcDbCircle
 10
-432.8542444826452
 20
726.5428745718672
 30
0.0
 40
22.20317806719544
100
AcDbArc
 50
274.5236199215766
 51
341.8038741107837
  0
ARC
  5
9EC
330
1F
100
AcDbEntity
  8
ceco.net 144
100
AcDbCircle
 10
-427.2924855970777
 20
692.9953804615652
 30
0.0
 40
12.03279550005028
100
AcDbArc
 50
108.4625003312167
 51
153.2463945687504
  0
ARC
  5
9ED
330
1F
100
AcDbEntity
  8
ceco.net 144
100
AcDbCircle
 10
-817.1277289321297
 20
994.2750452127075
 30
0.0
 40
480.8789744104102
100
AcDbArc
 50
315.5699181898127
 51
322.0295708809755
  0
LINE
  5
9EE
330
1F
100
AcDbEntity
  8
ceco.net 144
100
AcDbLine
 10
-473.7295338418334
 20
657.641316007357
 30
0.0
 11
-565.6854249536991
 21
565.6854249536991
 31
0.0
  0
LINE
  5
9EF
330
1F
100
AcDbEntity
  8
ceco.net 144
100
AcDbLine
 10
-565.6854249536991
 20
565.6854249536991
 30
0.0
 11
-657.6413160655647
 21
473.7295338418334
 31
0.0
  0
ARC
  5
9F0
330
1F
100
AcDbEntity
  8
ceco.net 144
100
AcDbCircle
 10
-994.2750462442054
 20
817.127727842424
 30
0.0
 40
480.8789743136225
100
AcDbArc
 50
307.9704292927398
 51
314.4300819838574
  0
ARC
  5
9F1
330
1F
100
AcDbEntity
  8
ceco.net 144
100
AcDbCircle
 10
-692.9953804033575
 20
427.2924854805459
 30
0.0
 40
12.03279550012839
100
AcDbArc
 50
116.7536054313195
 51
161.5374996685689
  0
ARC
  5
9F2
330
1F
100
AcDbEntity
  8
ceco.net 144
100
AcDbCircle
 10
-726.5428745136595
 20
432.8542443661717
 30
0.0
 40
22.20317806720549
100
AcDbArc
 50
288.1961258892161
 51
355.4763800784753
  0
ARC
  5
9F3
330
1F
100
AcDbEntity
  8
ceco.net 144
100
AcDbCircle
 10
9.949482486932538
 20
1340.073473626049
 30
0.0
 40
1180.686079502986
100
AcDbArc
 50
213.4356701184646
 51
231.8362529823246
  0
ARC
  5
9F4
330
1F
100
AcDbEntity
  8
ceco.net 144
100
AcDbCircle
 10
-1142.363719849207
 20
551.578903446556
 30
0.0
 40
216.6186537541682
100
AcDbArc
 50
39.55132941840983
 51
62.96611804570283
  0
ARC
  5
9F5
330
1F
100
AcDbEntity
  8
ceco.net 144
100
AcDbCircle
 10
-1040.965170089213
 20
756.782013993943
 30
0.0
 40
12.60083116868563
100
AcDbArc
 50
134.8292230509692
 51
256.4999322043604
  0
LINE
  5
9F6
330
1F
100
AcDbEntity
  8
ceco.net 144
100
AcDbLine
 10
-1049.848705995827
 20
765.7186652650125
 30
0.0
 11
-765.7186652068048
 21
1049.848706112243
 31
0.0
  0
ARC
  5
9F7
330
1F
100
AcDbEntity
  8
ceco.net 144
100
AcDbCircle
 10
-756.7820140427211
 20
1040.965170150739
 30
0.0
 40
12.6008311315638
100
AcDbArc
 50
13.50006727608243
 51
135.1707764291842
  0
ENDSEC
  0
SECTION
  2
OBJECTS
  0
DICTIONARY
  5
C
330
0
100
AcDbDictionary
281
     1
  3
ACAD_GROUP
350
D
  3
ACAD_IMAGE_DICT
350
97C
  3
ACAD_LAYOUT
350
1A
  3
ACAD_MLINESTYLE
350
17
  3
ACAD_PLOTSETTINGS
350
19
  3
ACAD_PLOTSTYLENAME
350
E
  3
AcDbVariableDictionary
350
115
  3
DWGPROPS
350
8E3
  0
DICTIONARY
  5
8F6
330
8F5
100
AcDbDictionary
280
     1
281
     1
  3
ACAD_XREC_ROUNDTRIP
360
8F7
  0
DICTIONARY
  5
D
102
{ACAD_REACTORS
330
C
102
}
330
C
100
AcDbDictionary
281
     1
  3
*A1
350
8FF
  0
DICTIONARY
  5
97C
102
{ACAD_REACTORS
330
C
102
}
330
C
100
AcDbDictionary
281
     1
  3
art-museum
350
97D
  0
DICTIONARY
  5
1A
102
{ACAD_REACTORS
330
C
102
}
330
C
100
AcDbDictionary
281
     1
  3
Layout1
350
1E
  3
Layout2
350
26
  3
Model
350
22
  0
DICTIONARY
  5
17
102
{ACAD_REACTORS
330
C
102
}
330
C
100
AcDbDictionary
281
     1
  3
Standard
350
18
  0
DICTIONARY
  5
19
102
{ACAD_REACTORS
330
C
102
}
330
C
100
AcDbDictionary
281
     1
  0
ACDBDICTIONARYWDFLT
  5
E
102
{ACAD_REACTORS
330
C
102
}
330
C
100
AcDbDictionary
281
     1
  3
Normal
350
F
100
AcDbDictionaryWithDefault
340
F
  0
DICTIONARY
  5
115
102
{ACAD_REACTORS
330
C
102
}
330
C
100
AcDbDictionary
281
     1
  3
DIMASSOC
350
117
  3
HIDETEXT
350
116
  0
XRECORD
  5
8E3
102
{ACAD_REACTORS
330
C
102
}
330
C
100
AcDbXrecord
280
     1
  1
DWGPROPS COOKIE
  2
Ceco.NET-Trees-and-Plants - T - xx . 67 . dwg
  3

  4
ceco.net
  6

  7

  8
peacosta
  9

300
=
301
=
302
=
303
=
304
=
305
=
306
=
307
=
308
=
309
=
 40
0.0450312037037037
 41
2455079.811409143
 42
2455838.656599502
  1

 90
        0
  0
XRECORD
  5
8F7
102
{ACAD_REACTORS
330
8F6
102
}
330
8F6
100
AcDbXrecord
280
     1
102
MATERIAL
340
0
  0
GROUP
  5
8FF
102
{ACAD_REACTORS
330
D
102
}
330
D
100
AcDbGroup
300
01
 70
     0
 71
     1
  0
IMAGEDEF
  5
97D
102
{ACAD_REACTORS
330
97C
102
}
330
97C
100
AcDbRasterImageDef
 90
        0
  1
D:\x\art museum\art-museum.jpg
 10
1152.0
 20
1592.0
 11
0.0008680555555556
 21
0.0008680555555556
280
     1
281
     0
  0
LAYOUT
  5
1E
102
{ACAD_REACTORS
330
1A
102
}
330
1A
100
AcDbPlotSettings
  1

  2
Microsoft Office Document Image Writer
  4

  6

 40
0.0
 41
0.0
 42
0.0
 43
0.0
 44
0.0
 45
0.0
 46
0.0
 47
0.0
 48
0.0
 49
0.0
140
0.0
141
0.0
142
1.0
143
1.0
 70
   688
 72
     0
 73
     0
 74
     5
  7

 75
    16
147
1.0
148
0.0
149
0.0
100
AcDbLayout
  1
Layout1
 70
     1
 71
     1
 10
0.0
 20
0.0
 11
420.0
 21
297.0
 12
0.0
 22
0.0
 32
0.0
 14
1.000000000000000E+20
 24
1.000000000000000E+20
 34
1.000000000000000E+20
 15
-1.000000000000000E+20
 25
-1.000000000000000E+20
 35
-1.000000000000000E+20
146
0.0
 13
0.0
 23
0.0
 33
0.0
 16
1.0
 26
0.0
 36
0.0
 17
0.0
 27
1.0
 37
0.0
 76
     0
330
1B
  0
LAYOUT
  5
26
102
{ACAD_REACTORS
330
1A
102
}
330
1A
100
AcDbPlotSettings
  1

  2
Microsoft Office Document Image Writer
  4

  6

 40
0.0
 41
0.0
 42
0.0
 43
0.0
 44
0.0
 45
0.0
 46
0.0
 47
0.0
 48
0.0
 49
0.0
140
0.0
141
0.0
142
1.0
143
1.0
 70
   688
 72
     0
 73
     0
 74
     5
  7

 75
    16
147
1.0
148
0.0
149
0.0
100
AcDbLayout
  1
Layout2
 70
     1
 71
     2
 10
0.0
 20
0.0
 11
12.0
 21
9.0
 12
0.0
 22
0.0
 32
0.0
 14
0.0
 24
0.0
 34
0.0
 15
0.0
 25
0.0
 35
0.0
146
0.0
 13
0.0
 23
0.0
 33
0.0
 16
1.0
 26
0.0
 36
0.0
 17
0.0
 27
1.0
 37
0.0
 76
     0
330
23
  0
LAYOUT
  5
22
102
{ACAD_REACTORS
330
1A
102
}
330
1A
100
AcDbPlotSettings
  1

  2
Microsoft Office Document Image Writer
  4

  6

 40
0.0
 41
0.0
 42
0.0
 43
0.0
 44
0.0
 45
0.0
 46
0.0
 47
0.0
 48
0.0
 49
0.0
140
0.0
141
0.0
142
1.0
143
1.0
 70
  1712
 72
     0
 73
     0
 74
     0
  7

 75
     0
147
1.0
148
0.0
149
0.0
100
AcDbLayout
  1
Model
 70
     1
 71
     0
 10
0.0
 20
0.0
 11
12.0
 21
9.0
 12
0.0
 22
0.0
 32
0.0
 14
0.0
 24
0.0
 34
0.0
 15
0.0
 25
0.0
 35
0.0
146
0.0
 13
0.0
 23
0.0
 33
0.0
 16
1.0
 26
0.0
 36
0.0
 17
0.0
 27
1.0
 37
0.0
 76
     0
330
1F
  0
MLINESTYLE
  5
18
102
{ACAD_REACTORS
330
17
102
}
330
17
100
AcDbMlineStyle
  2
STANDARD
 70
     0
  3

 62
   256
 51
90.0
 52
90.0
 71
     2
 49
0.5
 62
   256
  6
BYLAYER
 49
-0.5
 62
   256
  6
BYLAYER
  0
ACDBPLACEHOLDER
  5
F
102
{ACAD_REACTORS
330
E
102
}
330
E
  0
DICTIONARYVAR
  5
117
102
{ACAD_REACTORS
330
115
102
}
330
115
100
DictionaryVariables
280
     0
  1
2
  0
DICTIONARYVAR
  5
116
102
{ACAD_REACTORS
330
115
102
}
330
115
100
DictionaryVariables
280
     0
  1
1
  0
ENDSEC
  0
EOF
