  0
SECTION
  2
HEADER
  9
$ACADVER
  1
AC1015
  9
$ACADMAINTVER
 70
    13
  9
$DWGCODEPAGE
  3
ANSI_1252
  9
$INSBASE
 10
0.0
 20
0.0
 30
0.0
  9
$EXTMIN
 10
-637.2975597067366
 20
6.419666305980854
 30
-0.0015258207003583
  9
$EXTMAX
 10
538.5280903089833
 20
898.1706423512825
 30
0.0000000349246037
  9
$LIMMIN
 10
0.0
 20
0.0
  9
$LIMMAX
 10
420.0
 20
297.0
  9
$ORTHOMODE
 70
     0
  9
$REGENMODE
 70
     1
  9
$FILLMODE
 70
     1
  9
$QTEXTMODE
 70
     0
  9
$MIRRTEXT
 70
     1
  9
$LTSCALE
 40
1.0
  9
$ATTMODE
 70
     1
  9
$TEXTSIZE
 40
2.5
  9
$TRACEWID
 40
1.0
  9
$TEXTSTYLE
  7
Standard
  9
$CLAYER
  8
ceco.net 163
  9
$CELTYPE
  6
ByLayer
  9
$CECOLOR
 62
   256
  9
$CELTSCALE
 40
1.0
  9
$DISPSILH
 70
     0
  9
$DIMSCALE
 40
1.0
  9
$DIMASZ
 40
2.5
  9
$DIMEXO
 40
0.625
  9
$DIMDLI
 40
3.75
  9
$DIMRND
 40
0.0
  9
$DIMDLE
 40
0.0
  9
$DIMEXE
 40
1.25
  9
$DIMTP
 40
0.0
  9
$DIMTM
 40
0.0
  9
$DIMTXT
 40
2.5
  9
$DIMCEN
 40
2.5
  9
$DIMTSZ
 40
0.0
  9
$DIMTOL
 70
     0
  9
$DIMLIM
 70
     0
  9
$DIMTIH
 70
     0
  9
$DIMTOH
 70
     0
  9
$DIMSE1
 70
     0
  9
$DIMSE2
 70
     0
  9
$DIMTAD
 70
     1
  9
$DIMZIN
 70
     8
  9
$DIMBLK
  1

  9
$DIMASO
 70
     1
  9
$DIMSHO
 70
     1
  9
$DIMPOST
  1

  9
$DIMAPOST
  1

  9
$DIMALT
 70
     0
  9
$DIMALTD
 70
     3
  9
$DIMALTF
 40
0.03937007874016
  9
$DIMLFAC
 40
1.0
  9
$DIMTOFL
 70
     1
  9
$DIMTVP
 40
0.0
  9
$DIMTIX
 70
     0
  9
$DIMSOXD
 70
     0
  9
$DIMSAH
 70
     0
  9
$DIMBLK1
  1

  9
$DIMBLK2
  1

  9
$DIMSTYLE
  2
ISO-25
  9
$DIMCLRD
 70
     0
  9
$DIMCLRE
 70
     0
  9
$DIMCLRT
 70
     0
  9
$DIMTFAC
 40
1.0
  9
$DIMGAP
 40
0.625
  9
$DIMJUST
 70
     0
  9
$DIMSD1
 70
     0
  9
$DIMSD2
 70
     0
  9
$DIMTOLJ
 70
     0
  9
$DIMTZIN
 70
     8
  9
$DIMALTZ
 70
     0
  9
$DIMALTTZ
 70
     0
  9
$DIMUPT
 70
     0
  9
$DIMDEC
 70
     2
  9
$DIMTDEC
 70
     2
  9
$DIMALTU
 70
     2
  9
$DIMALTTD
 70
     3
  9
$DIMTXSTY
  7
Standard
  9
$DIMAUNIT
 70
     0
  9
$DIMADEC
 70
     0
  9
$DIMALTRND
 40
0.0
  9
$DIMAZIN
 70
     0
  9
$DIMDSEP
 70
    44
  9
$DIMATFIT
 70
     3
  9
$DIMFRAC
 70
     0
  9
$DIMLDRBLK
  1

  9
$DIMLUNIT
 70
     2
  9
$DIMLWD
 70
    -2
  9
$DIMLWE
 70
    -2
  9
$DIMTMOVE
 70
     0
  9
$LUNITS
 70
     2
  9
$LUPREC
 70
     2
  9
$SKETCHINC
 40
1.0
  9
$FILLETRAD
 40
10.0
  9
$AUNITS
 70
     0
  9
$AUPREC
 70
     0
  9
$MENU
  1
.
  9
$ELEVATION
 40
0.0
  9
$PELEVATION
 40
0.0
  9
$THICKNESS
 40
0.0
  9
$LIMCHECK
 70
     0
  9
$CHAMFERA
 40
10.0
  9
$CHAMFERB
 40
10.0
  9
$CHAMFERC
 40
20.0
  9
$CHAMFERD
 40
0.0
  9
$SKPOLY
 70
     0
  9
$TDCREATE
 40
2455079.811409143
  9
$TDUCREATE
 40
2455079.936409144
  9
$TDUPDATE
 40
2456794.915283067
  9
$TDUUPDATE
 40
2456795.040283067
  9
$TDINDWG
 40
0.0475836343
  9
$TDUSRTIMER
 40
0.0475836343
  9
$USRTIMER
 70
     1
  9
$ANGBASE
 50
0.0
  9
$ANGDIR
 70
     0
  9
$PDMODE
 70
     0
  9
$PDSIZE
 40
0.0
  9
$PLINEWID
 40
0.0
  9
$SPLFRAME
 70
     0
  9
$SPLINETYPE
 70
     6
  9
$SPLINESEGS
 70
     8
  9
$HANDSEED
  5
B4D
  9
$SURFTAB1
 70
     6
  9
$SURFTAB2
 70
     6
  9
$SURFTYPE
 70
     6
  9
$SURFU
 70
     6
  9
$SURFV
 70
     6
  9
$UCSBASE
  2

  9
$UCSNAME
  2

  9
$UCSORG
 10
0.0
 20
0.0
 30
0.0
  9
$UCSXDIR
 10
1.0
 20
0.0
 30
0.0
  9
$UCSYDIR
 10
0.0
 20
1.0
 30
0.0
  9
$UCSORTHOREF
  2

  9
$UCSORTHOVIEW
 70
     0
  9
$UCSORGTOP
 10
0.0
 20
0.0
 30
0.0
  9
$UCSORGBOTTOM
 10
0.0
 20
0.0
 30
0.0
  9
$UCSORGLEFT
 10
0.0
 20
0.0
 30
0.0
  9
$UCSORGRIGHT
 10
0.0
 20
0.0
 30
0.0
  9
$UCSORGFRONT
 10
0.0
 20
0.0
 30
0.0
  9
$UCSORGBACK
 10
0.0
 20
0.0
 30
0.0
  9
$PUCSBASE
  2

  9
$PUCSNAME
  2

  9
$PUCSORG
 10
0.0
 20
0.0
 30
0.0
  9
$PUCSXDIR
 10
1.0
 20
0.0
 30
0.0
  9
$PUCSYDIR
 10
0.0
 20
1.0
 30
0.0
  9
$PUCSORTHOREF
  2

  9
$PUCSORTHOVIEW
 70
     0
  9
$PUCSORGTOP
 10
0.0
 20
0.0
 30
0.0
  9
$PUCSORGBOTTOM
 10
0.0
 20
0.0
 30
0.0
  9
$PUCSORGLEFT
 10
0.0
 20
0.0
 30
0.0
  9
$PUCSORGRIGHT
 10
0.0
 20
0.0
 30
0.0
  9
$PUCSORGFRONT
 10
0.0
 20
0.0
 30
0.0
  9
$PUCSORGBACK
 10
0.0
 20
0.0
 30
0.0
  9
$USERI1
 70
     0
  9
$USERI2
 70
     0
  9
$USERI3
 70
     0
  9
$USERI4
 70
     0
  9
$USERI5
 70
     0
  9
$USERR1
 40
0.0
  9
$USERR2
 40
0.0
  9
$USERR3
 40
0.0
  9
$USERR4
 40
0.0
  9
$USERR5
 40
0.0
  9
$WORLDVIEW
 70
     1
  9
$SHADEDGE
 70
     3
  9
$SHADEDIF
 70
    70
  9
$TILEMODE
 70
     1
  9
$MAXACTVP
 70
    64
  9
$PINSBASE
 10
0.0
 20
0.0
 30
0.0
  9
$PLIMCHECK
 70
     0
  9
$PEXTMIN
 10
1.000000000000000E+20
 20
1.000000000000000E+20
 30
1.000000000000000E+20
  9
$PEXTMAX
 10
-1.000000000000000E+20
 20
-1.000000000000000E+20
 30
-1.000000000000000E+20
  9
$PLIMMIN
 10
0.0
 20
0.0
  9
$PLIMMAX
 10
420.0
 20
297.0
  9
$UNITMODE
 70
     0
  9
$VISRETAIN
 70
     1
  9
$PLINEGEN
 70
     0
  9
$PSLTSCALE
 70
     1
  9
$TREEDEPTH
 70
  3020
  9
$CMLSTYLE
  2
Standard
  9
$CMLJUST
 70
     0
  9
$CMLSCALE
 40
20.0
  9
$PROXYGRAPHICS
 70
     1
  9
$MEASUREMENT
 70
     1
  9
$CELWEIGHT
370
    -1
  9
$ENDCAPS
280
     0
  9
$JOINSTYLE
280
     0
  9
$LWDISPLAY
290
     0
  9
$INSUNITS
 70
     4
  9
$HYPERLINKBASE
  1

  9
$STYLESHEET
  1

  9
$XEDIT
290
     1
  9
$CEPSNTYPE
380
     0
  9
$PSTYLEMODE
290
     1
  9
$FINGERPRINTGUID
  2
{81085373-3A21-4932-80AA-8F6C3258C50C}
  9
$VERSIONGUID
  2
{27339EE5-D992-4AD7-BC96-F5A0FBA5A831}
  9
$EXTNAMES
290
     1
  9
$PSVPSCALE
 40
0.0
  9
$OLESTARTUP
290
     0
  0
ENDSEC
  0
SECTION
  2
CLASSES
  0
CLASS
  1
ACDBDICTIONARYWDFLT
  2
AcDbDictionaryWithDefault
  3
AutoCAD 2000
 90
        0
280
     0
281
     0
  0
CLASS
  1
ACDBPLACEHOLDER
  2
AcDbPlaceHolder
  3
AutoCAD 2000
 90
        0
280
     0
281
     0
  0
CLASS
  1
LAYOUT
  2
AcDbLayout
  3
AutoCAD 2000
 90
        0
280
     0
281
     0
  0
CLASS
  1
DICTIONARYVAR
  2
AcDbDictionaryVar
  3
AutoCAD 2000
 90
        0
280
     0
281
     0
  0
ENDSEC
  0
SECTION
  2
TABLES
  0
TABLE
  2
VPORT
  5
8
330
0
100
AcDbSymbolTable
 70
     3
  0
VPORT
  5
B4C
330
8
100
AcDbSymbolTableRecord
100
AcDbViewportTableRecord
  2
*Active
 70
     0
 10
0.0
 20
0.0
 11
1.0
 21
1.0
 12
-49.38473469887651
 22
452.2951543286317
 13
0.0
 23
0.0
 14
10.0
 24
10.0
 15
10.0
 25
10.0
 16
0.0
 26
0.0
 36
1.0
 17
0.0
 27
0.0
 37
0.0
 40
898.0829356385227
 41
2.184834123222748
 42
50.0
 43
0.0
 44
0.0
 50
0.0
 51
0.0
 71
     0
 72
   100
 73
     1
 74
     3
 75
     0
 76
     0
 77
     0
 78
     0
281
     0
 65
     1
110
0.0
120
0.0
130
0.0
111
1.0
121
0.0
131
0.0
112
0.0
122
1.0
132
0.0
 79
     0
146
0.0
  0
ENDTAB
  0
TABLE
  2
LTYPE
  5
5
330
0
100
AcDbSymbolTable
 70
     1
  0
LTYPE
  5
14
330
5
100
AcDbSymbolTableRecord
100
AcDbLinetypeTableRecord
  2
ByBlock
 70
     0
  3

 72
    65
 73
     0
 40
0.0
  0
LTYPE
  5
15
330
5
100
AcDbSymbolTableRecord
100
AcDbLinetypeTableRecord
  2
ByLayer
 70
     0
  3

 72
    65
 73
     0
 40
0.0
  0
LTYPE
  5
16
330
5
100
AcDbSymbolTableRecord
100
AcDbLinetypeTableRecord
  2
Continuous
 70
     0
  3
Solid line
 72
    65
 73
     0
 40
0.0
  0
ENDTAB
  0
TABLE
  2
LAYER
  5
2
102
{ACAD_XDICTIONARY
360
8FC
102
}
330
0
100
AcDbSymbolTable
 70
     2
  0
LAYER
  5
10
330
2
100
AcDbSymbolTableRecord
100
AcDbLayerTableRecord
  2
0
 70
     0
 62
     7
  6
Continuous
370
    -3
390
F
  0
LAYER
  5
8F5
102
{ACAD_XDICTIONARY
360
8F6
102
}
330
2
100
AcDbSymbolTableRecord
100
AcDbLayerTableRecord
  2
ceco.net 163
 70
     0
 62
     7
  6
Continuous
370
     5
390
F
1001
AcAecLayerStandard
1000

1000

  0
ENDTAB
  0
TABLE
  2
STYLE
  5
3
330
0
100
AcDbSymbolTable
 70
     1
  0
STYLE
  5
11
330
3
100
AcDbSymbolTableRecord
100
AcDbTextStyleTableRecord
  2
Standard
 70
     0
 40
0.0
 41
1.0
 50
0.0
 71
     0
 42
2.5
  3
txt
  4

  0
ENDTAB
  0
TABLE
  2
VIEW
  5
6
330
0
100
AcDbSymbolTable
 70
     0
  0
ENDTAB
  0
TABLE
  2
UCS
  5
7
330
0
100
AcDbSymbolTable
 70
     0
  0
ENDTAB
  0
TABLE
  2
APPID
  5
9
330
0
100
AcDbSymbolTable
 70
     8
  0
APPID
  5
12
330
9
100
AcDbSymbolTableRecord
100
AcDbRegAppTableRecord
  2
ACAD
 70
     0
  0
APPID
  5
2C
330
9
100
AcDbSymbolTableRecord
100
AcDbRegAppTableRecord
  2
ACAD_DSTYLE_DIMJOGGED_JOGANGLE_SYMBOL
 70
     0
  0
APPID
  5
11B
330
9
100
AcDbSymbolTableRecord
100
AcDbRegAppTableRecord
  2
ACAD_NAV_VCDISPLAY
 70
     0
  0
APPID
  5
11C
330
9
100
AcDbSymbolTableRecord
100
AcDbRegAppTableRecord
  2
ACAD_MLEADERVER
 70
     0
  0
APPID
  5
8F8
330
9
100
AcDbSymbolTableRecord
100
AcDbRegAppTableRecord
  2
AcAecLayerStandard
 70
     0
  0
APPID
  5
8F9
330
9
100
AcDbSymbolTableRecord
100
AcDbRegAppTableRecord
  2
DCO15
 70
     0
  0
APPID
  5
8FA
330
9
100
AcDbSymbolTableRecord
100
AcDbRegAppTableRecord
  2
AcDbBlockRepETag
 70
     0
  0
APPID
  5
8FB
330
9
100
AcDbSymbolTableRecord
100
AcDbRegAppTableRecord
  2
AcCmTransparency
 70
     0
  0
ENDTAB
  0
TABLE
  2
DIMSTYLE
  5
A
330
0
100
AcDbSymbolTable
 70
     2
100
AcDbDimStyleTable
 71
     0
  0
DIMSTYLE
105
27
330
A
100
AcDbSymbolTableRecord
100
AcDbDimStyleTableRecord
  2
ISO-25
 70
     0
 41
2.5
 42
0.625
 43
3.75
 44
1.25
 73
     0
 74
     0
 77
     1
 78
     8
140
2.5
141
2.5
143
0.03937007874016
147
0.625
171
     3
172
     1
271
     2
272
     2
274
     3
278
    44
283
     0
284
     8
340
11
  0
DIMSTYLE
105
2B
330
A
100
AcDbSymbolTableRecord
100
AcDbDimStyleTableRecord
  2
Standard
 70
     0
340
11
  0
ENDTAB
  0
TABLE
  2
BLOCK_RECORD
  5
1
330
0
100
AcDbSymbolTable
 70
     2
  0
BLOCK_RECORD
  5
1F
330
1
100
AcDbSymbolTableRecord
100
AcDbBlockTableRecord
  2
*Model_Space
340
22
  0
BLOCK_RECORD
  5
1B
330
1
100
AcDbSymbolTableRecord
100
AcDbBlockTableRecord
  2
*Paper_Space
340
1E
  0
BLOCK_RECORD
  5
23
330
1
100
AcDbSymbolTableRecord
100
AcDbBlockTableRecord
  2
*Paper_Space0
340
26
  0
ENDTAB
  0
ENDSEC
  0
SECTION
  2
BLOCKS
  0
BLOCK
  5
20
330
1F
100
AcDbEntity
  8
0
100
AcDbBlockBegin
  2
*Model_Space
 70
     0
 10
0.0
 20
0.0
 30
0.0
  3
*Model_Space
  1

  0
ENDBLK
  5
21
330
1F
100
AcDbEntity
  8
0
100
AcDbBlockEnd
  0
BLOCK
  5
1C
330
1B
100
AcDbEntity
 67
     1
  8
0
100
AcDbBlockBegin
  2
*Paper_Space
 70
     0
 10
0.0
 20
0.0
 30
0.0
  3
*Paper_Space
  1

  0
ENDBLK
  5
1D
330
1B
100
AcDbEntity
 67
     1
  8
0
100
AcDbBlockEnd
  0
BLOCK
  5
24
330
23
100
AcDbEntity
  8
0
100
AcDbBlockBegin
  2
*Paper_Space0
 70
     0
 10
0.0
 20
0.0
 30
0.0
  3
*Paper_Space0
  1

  0
ENDBLK
  5
25
330
23
100
AcDbEntity
  8
0
100
AcDbBlockEnd
  0
ENDSEC
  0
SECTION
  2
ENTITIES
  0
HATCH
  5
A26
330
1F
100
AcDbEntity
  8
ceco.net 163
 62
   253
100
AcDbHatch
 10
0.0
 20
0.0
 30
0.0
210
0.0
220
0.0
230
1.0
  2
SOLID,_O
 70
     1
 71
     0
 91
        2
 92
        7
 72
     1
 73
     1
 93
       73
 10
97.73863922784109
 20
664.862544345297
 42
0.0399671738603817
 10
88.71440284909454
 20
673.5204332720311
 42
-0.0028987620934706
 10
26.61796656339106
 20
689.9949996019334
 42
0.069544205900724
 10
10.35227344352756
 20
673.5660876996089
 42
0.0798162474442356
 10
-58.72100781009317
 20
559.1024148791152
 42
0.084803470749534
 10
-67.16246266548501
 20
535.4115105898988
 42
-0.1287438123069126
 10
-23.16955041508117
 20
426.7069719576511
 42
0.0383319453072327
 10
24.67665942858616
 20
334.2972861932592
 42
0.0410548222812521
 10
58.58235349266647
 20
261.1552547253131
 42
0.0
 10
38.15013953444895
 20
262.2490997514933
 42
0.0
 10
98.67871055332784
 20
215.2667851538303
 42
0.0643192902958817
 10
53.33530644805046
 20
185.3804237296099
 42
0.3839559627986371
 10
51.11607355951059
 20
158.7023923836618
 42
0.0588235290077588
 10
57.98982773447438
 20
125.2324265893953
 42
0.0771330533106583
 10
82.72151391865122
 20
101.4463520074105
 42
-0.1015841842024629
 10
115.9981306810957
 20
60.651833270721
 42
0.5778402430993794
 10
129.5377360150566
 20
55.25860426063309
 42
-0.0485243890331098
 10
142.92254866091
 20
64.49077591468449
 42
-0.0107860680071322
 10
140.8612663491332
 20
45.78838873645008
 42
0.0309279204473052
 10
178.4074283198122
 20
19.52964419548015
 42
0.0698526748705669
 10
198.0684298928288
 20
15.56039236741662
 42
0.0268435191022695
 10
260.2544814722539
 20
23.88360923395885
 42
-0.1125685088012034
 10
277.8158574962387
 20
20.29194746224266
 42
0.0830496465534092
 10
311.3035357814503
 20
19.6881178237495
 42
-0.0276303414005401
 10
365.7443334094384
 20
36.77336201092202
 42
-0.125502441899811
 10
385.840659182668
 20
27.09282405336853
 42
0.102013504050013
 10
424.6689366827765
 20
6.45324624615705
 42
0.0808015491388963
 10
480.2754633842271
 20
13.14208983425351
 42
0.0730176894550487
 10
521.3469178722932
 20
46.53758217885797
 42
0.1694535298885136
 10
538.445667761732
 20
106.8101284119979
 42
0.0280259925201722
 10
535.42733627537
 20
157.4028011476971
 42
-0.0735962213728625
 10
527.0526383829849
 20
172.7887554057947
 42
-0.0986941441571222
 10
519.7832850546576
 20
195.4054403257323
 42
0.1768085142888386
 10
522.4297259012043
 20
206.8559673643303
 42
0.3328008929772832
 10
510.86990801367
 20
223.0097498975496
 42
0.0200914213802744
 10
479.1772316635262
 20
238.088893105725
 42
-0.1336240949119436
 10
463.8498512778803
 20
244.1666521115248
 42
0.0832658274518589
 10
455.9980554470087
 20
255.9394852285088
 42
0.1357397333518431
 10
445.1393845800655
 20
265.1244643639056
 42
0.1123396259247725
 10
439.545609137964
 20
265.5430562879733
 42
-0.255572835697678
 10
398.6580069923823
 20
274.0630112648586
 42
0.0
 10
399.4226387258484
 20
279.3998722677558
 42
0.0
 10
382.74818410405
 20
269.2969184680014
 42
0.0291247582645337
 10
362.9864325975315
 20
329.8607461711385
 42
-0.0172275296307794
 10
357.7021308647583
 20
357.524977137873
 42
0.1070166110521255
 10
339.5817829409586
 20
388.847699885865
 42
-0.1075266503577879
 10
305.541561650313
 20
421.6853864213683
 42
0.0345531494226195
 10
280.0545598526193
 20
454.06360454319
 42
-0.0574985919408365
 10
254.866953309415
 20
513.6411623713015
 42
0.0928016382690024
 10
229.1637760811661
 20
535.804591868502
 42
0.0
 10
231.0361697726086
 20
549.2292496323784
 42
0.0237963561913342
 10
248.3712180983195
 20
552.5865230993477
 42
0.014832207498014
 10
283.3390873226024
 20
589.6721125517551
 42
-0.0505969006669921
 10
308.2473390939765
 20
602.4543588671356
 42
0.0108677961048351
 10
333.3013383133914
 20
595.7611286772101
 42
0.1296448153433193
 10
375.8621599560399
 20
610.7176546188512
 42
0.0888810755703653
 10
382.1572962696206
 20
620.0396506226284
 42
-0.1348532162720404
 10
389.7331600323407
 20
631.0762742069755
 42
-0.260922669628901
 10
399.2855475708008
 20
635.3282632044824
 42
0.3131434454073584
 10
410.8970885256155
 20
643.3162420798508
 42
0.1470993482018553
 10
415.7604290110946
 20
673.0743182094595
 42
0.0868155615228975
 10
394.7496512072609
 20
691.4394085385781
 42
0.0435588790224482
 10
368.6319264007932
 20
694.9202949445632
 42
0.0414770872891192
 10
350.7783174604972
 20
686.2180379202518
 42
-0.0089319961820453
 10
326.5923256897742
 20
686.9204032957925
 42
0.1028943604635319
 10
305.2220371960604
 20
670.827689225006
 42
0.0
 10
301.7165149373079
 20
666.3206076299448
 42
-0.3945647329314505
 10
296.5664850537184
 20
664.6044154584147
 42
0.0787356173978555
 10
282.4518784602566
 20
659.1196680766606
 42
-0.0325147561994785
 10
259.6976825174299
 20
639.3859533266784
 42
0.0022612788952155
 10
208.4866296637831
 20
615.5309224179161
 42
0.080784310305167
 10
160.4588162356942
 20
592.8678188851518
 42
0.0190006673842972
 10
127.2411766224083
 20
627.4661319809744
 42
0.0054097263077945
 97
        0
 92
        7
 72
     1
 73
     1
 93
       14
 10
-132.1942661394698
 20
647.8296067530966
 42
0.0012207021830976
 10
-131.1237657847871
 20
647.8544074007388
 42
-0.0764786924373845
 10
-118.0002798020152
 20
665.4240246021181
 42
-0.1015252324687943
 10
-82.071091549838
 20
684.207170875241
 42
-0.0194712671276989
 10
-23.66185788011102
 20
720.8703534940461
 42
-0.2495909405448618
 10
-17.06593047952037
 20
752.2048670084368
 42
-0.0795321986178314
 10
-32.91645183538617
 20
768.7391147297731
 42
0.1970511803887868
 10
-48.83305865481907
 20
778.8666782904583
 42
0.0199997000063313
 10
-98.16294743215166
 20
750.5481270977057
 42
0.1514281157743251
 10
-127.3539955019946
 20
766.4814170410782
 42
0.1251925027755284
 10
-158.3928158157173
 20
765.0085449525322
 42
-0.1221941628930532
 10
-193.1086920648035
 20
770.1444087420213
 42
-0.2427374336177858
 10
-191.8056517331829
 20
744.484242511236
 42
-0.0639671366467039
 10
-203.2334602606265
 20
723.4739678056073
 42
-0.0840210635496041
 97
        0
 75
     1
 76
     1
 47
5.553622740908516
 98
        2
 10
52.53882970019936
 20
601.3690406962298
 10
-136.3446661540576
 20
720.2721363331156
1001
ACAD
1010
0.0
1020
0.0
1030
0.0
1000
RTTcAl
1070
-25859
1071
-1029658210
1000
$$NoName$$
  0
ARC
  5
A27
330
1F
100
AcDbEntity
  8
ceco.net 163
100
AcDbCircle
 10
426.8916158263425
 20
307.1866304495324
 30
0.0
 40
43.52368109064463
100
AcDbArc
 50
229.5566922929259
 51
286.9021514845909
  0
ARC
  5
A28
330
1F
100
AcDbEntity
  8
ceco.net 163
100
AcDbCircle
 10
151.7012376603745
 20
598.4579859981397
 30
0.0
 40
584.7388486974266
100
AcDbArc
 50
274.5480754427071
 51
280.698679811224
  0
ARC
  5
A29
330
1F
100
AcDbEntity
  8
ceco.net 163
100
AcDbCircle
 10
431.9120346264023
 20
180.7209930722933
 30
0.0
 40
174.4182044732562
100
AcDbArc
 50
267.6199828753796
 51
286.0981895629372
  0
ARC
  5
A2A
330
1F
100
AcDbEntity
  8
ceco.net 163
100
AcDbCircle
 10
387.0803887015761
 20
169.7116907773684
 30
0.0
 40
182.2069205178497
100
AcDbArc
 50
300.7624178853481
 51
317.4671940856111
  0
ARC
  5
A2B
330
1F
100
AcDbEntity
  8
ceco.net 163
100
AcDbCircle
 10
583.2216564675657
 20
193.3898163112371
 30
0.0
 40
59.82777200444868
100
AcDbArc
 50
200.1414773355835
 51
216.9781345657149
  0
ARC
  5
A2C
330
1F
100
AcDbEntity
  8
ceco.net 163
100
AcDbCircle
 10
433.9638852603254
 20
240.9013983161505
 30
0.0
 40
26.67674481264613
100
AcDbArc
 50
34.31312096856041
 51
65.23339562782571
  0
ARC
  5
A2D
330
1F
100
AcDbEntity
  8
ceco.net 163
100
AcDbCircle
 10
505.859095326696
 20
207.2109039326992
 30
0.0
 40
16.57443144137529
100
AcDbArc
 50
358.7729339560868
 51
72.40288800372261
  0
ARC
  5
A2E
330
1F
100
AcDbEntity
  8
ceco.net 163
100
AcDbCircle
 10
307.4676971438909
 20
-163.6473174465504
 30
0.0
 40
436.8937480828164
100
AcDbArc
 50
62.25323962266438
 51
66.85723479688963
  0
ARC
  5
A2F
330
1F
100
AcDbEntity
  8
ceco.net 163
100
AcDbCircle
 10
580.1497630853917
 20
202.3315787610568
 30
0.0
 40
60.76251363681014
100
AcDbArc
 50
186.5452019233729
 51
209.0912193743411
  0
ARC
  5
A30
330
1F
100
AcDbEntity
  8
ceco.net 163
100
AcDbCircle
 10
505.4220667413058
 20
204.7556845282761
 30
0.0
 40
17.13685088021745
100
AcDbArc
 50
326.9328154198883
 51
7.039838224325073
  0
ARC
  5
A31
330
1F
100
AcDbEntity
  8
ceco.net 163
100
AcDbCircle
 10
482.6815089679582
 20
269.2920492443827
 30
0.0
 40
31.39931388485666
100
AcDbArc
 50
233.1481894720939
 51
263.5922341180668
  0
ARC
  5
A32
330
1F
100
AcDbEntity
  8
ceco.net 163
100
AcDbCircle
 10
424.8218890117762
 20
226.6420307503585
 30
0.0
 40
42.78193768982557
100
AcDbArc
 50
24.18138303032564
 51
43.22058519655796
  0
ARC
  5
A33
330
1F
100
AcDbEntity
  8
ceco.net 163
100
AcDbCircle
 10
441.4227207550309
 20
253.0425031692181
 30
0.0
 40
12.64070315680302
100
AcDbArc
 50
72.90100840877179
 51
98.53985901637699
  0
ARC
  5
A34
330
1F
100
AcDbEntity
  8
ceco.net 163
100
AcDbCircle
 10
85.98963218012636
 20
105.203218473583
 30
0.0
 40
452.4588890647899
100
AcDbArc
 50
0.2034866674726209
 51
6.624890128658053
  0
ARC
  5
A35
330
1F
100
AcDbEntity
  8
ceco.net 163
100
AcDbCircle
 10
443.527702095261
 20
101.1758055754044
 30
0.0
 40
95.08504509165545
100
AcDbArc
 50
324.9266402504854
 51
3.397086631687968
  0
ARC
  5
A36
330
1F
100
AcDbEntity
  8
ceco.net 163
100
AcDbCircle
 10
492.9936211365904
 20
-463.9748646695429
 30
0.0
 40
516.6634956629913
100
AcDbArc
 50
104.2581084679732
 51
110.5889055374963
  0
ARC
  5
A37
330
1F
100
AcDbEntity
  8
ceco.net 163
100
AcDbCircle
 10
356.8126641371607
 20
-7.468115026588293
 30
0.0
 40
45.13405594947227
100
AcDbArc
 50
50.51610217831798
 51
78.5862831988357
  0
ARC
  5
A38
330
1F
100
AcDbEntity
  8
ceco.net 163
100
AcDbCircle
 10
455.3089230402308
 20
110.9375320136864
 30
0.0
 40
108.8842262971802
100
AcDbArc
 50
230.1318801637295
 51
253.656240288956
  0
ARC
  5
A39
330
1F
100
AcDbEntity
  8
ceco.net 163
100
AcDbCircle
 10
261.1596333779928
 20
-16.41953657819431
 30
0.0
 40
40.31330874945462
100
AcDbArc
 50
65.59591462099236
 51
91.28656625014007
  0
ARC
  5
A3A
330
1F
100
AcDbEntity
  8
ceco.net 163
100
AcDbCircle
 10
296.3648364050657
 20
120.1009511844736
 30
0.0
 40
101.5179877784347
100
AcDbArc
 50
259.4719902631626
 51
278.4619876785739
  0
LINE
  5
A3B
330
1F
100
AcDbEntity
  8
ceco.net 163
100
AcDbLine
 10
-22.46422589484268
 20
372.9762244863127
 30
0.0
 11
-99.24156130654342
 21
387.1093547182756
 31
0.0
  0
LINE
  5
A3C
330
1F
100
AcDbEntity
  8
ceco.net 163
100
AcDbLine
 10
-22.77683085795638
 20
319.4113443364985
 30
0.0
 11
-22.46422589484268
 21
372.9762244863127
 31
0.0
  0
ARC
  5
A3D
330
1F
100
AcDbEntity
  8
ceco.net 163
100
AcDbCircle
 10
-529.1131360260699
 20
606.7006172672099
 30
0.0
 40
196.4323127551891
100
AcDbArc
 50
105.0127942646469
 51
116.5374839311894
  0
ARC
  5
A3E
330
1F
100
AcDbEntity
  8
ceco.net 163
100
AcDbCircle
 10
-1099.456546814593
 20
943.317732468081
 30
0.0
 40
718.9560997875806
100
AcDbArc
 50
332.4076442163391
 51
342.7916575208212
  0
ARC
  5
A3F
330
1F
100
AcDbEntity
  8
ceco.net 163
100
AcDbCircle
 10
-301.5790289934425
 20
567.5840054524839
 30
0.0
 40
283.3994746351414
100
AcDbArc
 50
142.5103309034513
 51
172.9835418532203
  0
ARC
  5
A40
330
1F
100
AcDbEntity
  8
ceco.net 163
100
AcDbCircle
 10
-260.0022580972963
 20
506.5194259909056
 30
0.0
 40
15.74616151208425
100
AcDbArc
 50
40.97364000822159
 51
100.5733239469024
  0
ARC
  5
A41
330
1F
100
AcDbEntity
  8
ceco.net 163
100
AcDbCircle
 10
-279.2830956922357
 20
489.0288524011191
 30
0.0
 40
41.77597949305535
100
AcDbArc
 50
339.5558881649468
 51
41.74569431288568
  0
ARC
  5
A42
330
1F
100
AcDbEntity
  8
ceco.net 163
100
AcDbCircle
 10
-41.9029836645484
 20
266.0480649222666
 30
0.0
 40
223.5359076568572
100
AcDbArc
 50
122.0876025473922
 51
128.651021321741
  0
ARC
  5
A43
330
1F
100
AcDbEntity
  8
ceco.net 163
100
AcDbCircle
 10
-513.260409943123
 20
832.8912294540868
 30
0.0
 40
123.5206882795142
100
AcDbArc
 50
184.9983869163704
 51
203.7089360184638
  0
ARC
  5
A44
330
1F
100
AcDbEntity
  8
ceco.net 163
100
AcDbCircle
 10
-453.2149645937645
 20
773.1205502628648
 30
0.0
 40
163.925800344263
100
AcDbArc
 50
142.7898168376842
 51
176.741841378551
  0
ARC
  5
A45
330
1F
100
AcDbEntity
  8
ceco.net 163
100
AcDbCircle
 10
486.2712478640776
 20
503.8442377837625
 30
0.0
 40
491.7476312770324
100
AcDbArc
 50
200.1686402162848
 51
209.5724314087338
  0
ARC
  5
A46
330
1F
100
AcDbEntity
  8
ceco.net 163
100
AcDbCircle
 10
-54.26001757456129
 20
587.2539841162042
 30
0.0
 40
100.8631560996826
100
AcDbArc
 50
106.0055669929254
 51
129.193983588368
  0
ARC
  5
A47
330
1F
100
AcDbEntity
  8
ceco.net 163
100
AcDbCircle
 10
26.65349729001809
 20
809.9810614329134
 30
0.0
 40
72.45327464422247
100
AcDbArc
 50
214.6959420045624
 51
232.88509270739
  0
ARC
  5
A48
330
1F
100
AcDbEntity
  8
ceco.net 163
100
AcDbCircle
 10
-116.0269762232685
 20
564.510478923273
 30
0.0
 40
84.70019757425559
100
AcDbArc
 50
52.93018213487874
 51
100.2671421579667
  0
ARC
  5
A49
330
1F
100
AcDbEntity
  8
ceco.net 163
100
AcDbCircle
 10
276.3073977226092
 20
331.3404431276474
 30
0.0
 40
85.50282103308884
100
AcDbArc
 50
17.83288648955585
 51
42.26629527620402
  0
ARC
  5
A4A
330
1F
100
AcDbEntity
  8
ceco.net 163
100
AcDbCircle
 10
398.0267261565493
 20
483.4951702025655
 30
0.0
 40
111.2382803931519
100
AcDbArc
 50
213.7556413700097
 51
238.3046127408432
  0
LINE
  5
A4B
330
1F
100
AcDbEntity
  8
ceco.net 163
100
AcDbLine
 10
167.0126719956772
 20
709.8336120717033
 30
0.0
 11
233.255910761183
 21
706.2918058411014
 31
0.0
  0
ARC
  5
A4C
330
1F
100
AcDbEntity
  8
ceco.net 163
100
AcDbCircle
 10
195.5856769464032
 20
726.7568455428004
 30
0.0
 40
20.70582789488259
100
AcDbArc
 50
294.0878845805961
 51
336.3338449426314
  0
ARC
  5
A4D
330
1F
100
AcDbEntity
  8
ceco.net 163
100
AcDbCircle
 10
161.8110538069415
 20
728.1781154692709
 30
0.0
 40
74.98302319569205
100
AcDbArc
 50
307.4901420488468
 51
342.6901453520497
  0
ARC
  5
A4E
330
1F
100
AcDbEntity
  8
ceco.net 163
100
AcDbCircle
 10
128.1537457294587
 20
555.780979835117
 30
0.0
 40
194.6938615002615
100
AcDbArc
 50
67.04092409053084
 51
91.66842114594251
  0
ARC
  5
A4F
330
1F
100
AcDbEntity
  8
ceco.net 163
100
AcDbCircle
 10
186.4820937874026
 20
710.8296436426203
 30
0.0
 40
29.08289607971164
100
AcDbArc
 50
15.18064895108289
 51
65.88349417286197
  0
ARC
  5
A50
330
1F
100
AcDbEntity
  8
ceco.net 163
100
AcDbCircle
 10
189.9366400828255
 20
691.5343469837305
 30
0.0
 40
45.76397932909992
100
AcDbArc
 50
18.25232868538359
 51
71.97342773871236
  0
ARC
  5
A51
330
1F
100
AcDbEntity
  8
ceco.net 163
100
AcDbCircle
 10
77.25872650777251
 20
623.5908441360564
 30
0.0
 40
83.51046898968903
100
AcDbArc
 50
121.6722787237865
 51
143.2423997311771
  0
ARC
  5
A52
330
1F
100
AcDbEntity
  8
ceco.net 163
100
AcDbCircle
 10
332.0540879252569
 20
401.3616019174723
 30
0.0
 40
421.4111288525113
100
AcDbArc
 50
139.7641338540248
 51
158.0179731092059
  0
ARC
  5
A53
330
1F
100
AcDbEntity
  8
ceco.net 163
100
AcDbCircle
 10
-199.378536563207
 20
531.7867374573613
 30
0.0
 40
85.61219634733607
100
AcDbArc
 50
296.8969503752339
 51
318.8451623058154
  0
ARC
  5
A54
330
1F
100
AcDbEntity
  8
ceco.net 163
100
AcDbCircle
 10
69.62810404468996
 20
546.8405213234148
 30
0.0
 40
128.9335043637706
100
AcDbArc
 50
155.7671423484205
 51
174.5427829125825
  0
ARC
  5
A55
330
1F
100
AcDbEntity
  8
ceco.net 163
100
AcDbCircle
 10
8.809676857728845
 20
559.5590982288102
 30
0.0
 40
202.7090763695317
100
AcDbArc
 50
69.50148923374856
 51
79.72173899105563
  0
ARC
  5
A56
330
1F
100
AcDbEntity
  8
ceco.net 163
100
AcDbCircle
 10
602.5616805949428
 20
692.0954176821751
 30
0.0
 40
679.6841918019208
100
AcDbArc
 50
202.9830293933847
 51
211.7637651985503
  0
ARC
  5
A57
330
1F
100
AcDbEntity
  8
ceco.net 163
100
AcDbCircle
 10
-311.2106275982785
 20
173.2659112315764
 30
0.0
 40
631.2985230088652
100
AcDbArc
 50
41.69891791036388
 51
46.01072330388959
  0
ARC
  5
A58
330
1F
100
AcDbEntity
  8
ceco.net 163
100
AcDbCircle
 10
199.7636793896156
 20
761.6609675180122
 30
0.0
 40
68.04430812514913
100
AcDbArc
 50
256.3524039157255
 51
267.8876983414819
  0
ARC
  5
A59
330
1F
100
AcDbEntity
  8
ceco.net 163
100
AcDbCircle
 10
167.9563687802299
 20
717.7669794318689
 30
0.0
 40
62.99896138326014
100
AcDbArc
 50
247.6621721847195
 51
308.8184783168013
  0
ARC
  5
A5A
330
1F
100
AcDbEntity
  8
ceco.net 163
100
AcDbCircle
 10
189.2675141015395
 20
711.4068865470454
 30
0.0
 40
19.45919024210997
100
AcDbArc
 50
294.2368043839784
 51
348.7877402806407
  0
ARC
  5
A5B
330
1F
100
AcDbEntity
  8
ceco.net 163
100
AcDbCircle
 10
6.396606386919529
 20
522.5505828755776
 30
0.0
 40
74.67489605972239
100
AcDbArc
 50
150.6936225672793
 51
173.3400052520678
  0
ARC
  5
A5C
330
1F
100
AcDbEntity
  8
ceco.net 163
100
AcDbCircle
 10
-252.7541661887846
 20
397.0479588881087
 30
0.0
 40
231.4924466504644
100
AcDbArc
 50
7.361017898821626
 51
36.70550866904454
  0
ARC
  5
A5D
330
1F
100
AcDbEntity
  8
ceco.net 163
100
AcDbCircle
 10
-1615.662119805798
 20
-717.1982572891797
 30
0.0
 40
2201.32555985515
100
AcDbArc
 50
37.65048498458974
 51
38.89029083080368
  0
ARC
  5
A5E
330
1F
100
AcDbEntity
  8
ceco.net 163
100
AcDbCircle
 10
39.15677956940953
 20
612.8338556623457
 30
0.0
 40
78.35061408251857
100
AcDbArc
 50
41.60944940369712
 51
52.64507624501088
  0
ARC
  5
A5F
330
1F
100
AcDbEntity
  8
ceco.net 163
100
AcDbCircle
 10
1478.481981745577
 20
6037.139815598291
 30
0.0
 40
5540.746051013135
100
AcDbArc
 50
254.8092114346793
 51
256.0634916525151
  0
ARC
  5
A60
330
1F
100
AcDbEntity
  8
ceco.net 163
100
AcDbCircle
 10
-63.11981482636269
 20
409.6363262343329
 30
0.0
 40
97.39548709964921
100
AcDbArc
 50
121.7475118620274
 51
137.4920885643366
  0
ARC
  5
A61
330
1F
100
AcDbEntity
  8
ceco.net 163
100
AcDbCircle
 10
2824.388375308748
 20
-4153.089941580498
 30
0.0
 40
5497.036363993
100
AcDbArc
 50
121.930988804057
 51
122.31727951918
  0
ARC
  5
A62
330
1F
100
AcDbEntity
  8
ceco.net 163
100
AcDbCircle
 10
-97.129703085129
 20
539.0564905780961
 30
0.0
 40
30.38559495175941
100
AcDbArc
 50
297.7536264791737
 51
345.0371896128649
  0
ARC
  5
A63
330
1F
100
AcDbEntity
  8
ceco.net 163
100
AcDbCircle
 10
173.6199154494404
 20
701.9507616804576
 30
0.0
 40
11.95441434146445
100
AcDbArc
 50
282.0544184319796
 51
327.5579939344537
  0
ARC
  5
A64
330
1F
100
AcDbEntity
  8
ceco.net 163
100
AcDbCircle
 10
147.2038668932279
 20
703.0564181021138
 30
0.0
 40
31.6178598061758
100
AcDbArc
 50
295.1681900081906
 51
336.1262356152904
  0
ARC
  5
A65
330
1F
100
AcDbEntity
  8
ceco.net 163
100
AcDbCircle
 10
142.7244872438993
 20
677.6630464273339
 30
0.0
 40
18.21312673104698
100
AcDbArc
 50
274.0554312298306
 51
349.8079074756081
  0
ARC
  5
A66
330
1F
100
AcDbEntity
  8
ceco.net 163
100
AcDbCircle
 10
600.6812142776282
 20
2056.348273054759
 30
0.0
 40
1414.627207714907
100
AcDbArc
 50
249.2504468473204
 51
252.1479400097432
  0
ARC
  5
A67
330
1F
100
AcDbEntity
  8
ceco.net 163
100
AcDbCircle
 10
62.51960430126132
 20
912.7041607479357
 30
0.0
 40
228.2000453908227
100
AcDbArc
 50
277.5713762836252
 51
297.2517565258687
  0
ARC
  5
A68
330
1F
100
AcDbEntity
  8
ceco.net 163
100
AcDbCircle
 10
17.68037630608842
 20
721.5176913988204
 30
0.0
 40
82.69075178506076
100
AcDbArc
 50
325.2058148660849
 51
18.91113127307114
  0
ARC
  5
A69
330
1F
100
AcDbEntity
  8
ceco.net 163
100
AcDbCircle
 10
97.90001638065474
 20
894.0835259952239
 30
0.0
 40
145.7792765253891
100
AcDbArc
 50
262.865728510189
 51
279.7091286852975
  0
ARC
  5
A6A
330
1F
100
AcDbEntity
  8
ceco.net 163
100
AcDbCircle
 10
19.03149887367544
 20
721.827502294695
 30
0.0
 40
30.73490144538365
100
AcDbArc
 50
297.8946186122161
 51
325.9687200952847
  0
ARC
  5
A6B
330
1F
100
AcDbEntity
  8
ceco.net 163
100
AcDbCircle
 10
417.6894764860464
 20
-47.11826552463981
 30
0.0
 40
885.7750952070308
100
AcDbArc
 50
119.8853248064076
 51
124.3472466936834
  0
ARC
  5
A6C
330
1F
100
AcDbEntity
  8
ceco.net 163
100
AcDbCircle
 10
9.066771404359087
 20
730.3424435876211
 30
0.0
 40
34.07174291962407
100
AcDbArc
 50
108.1062539731142
 51
196.1411294823659
  0
ARC
  5
A6D
330
1F
100
AcDbEntity
  8
ceco.net 163
100
AcDbCircle
 10
-131.064680454973
 20
576.6382143182238
 30
0.0
 40
86.27648506391512
100
AcDbArc
 50
15.5456039698949
 51
39.99759870072667
  0
ARC
  5
A6E
330
1F
100
AcDbEntity
  8
ceco.net 163
100
AcDbCircle
 10
-4.016870432415316
 20
438.3341550045217
 30
0.0
 40
324.4024539850371
100
AcDbArc
 50
81.31316394978091
 51
89.55936203832859
  0
ARC
  5
A6F
330
1F
100
AcDbEntity
  8
ceco.net 163
100
AcDbCircle
 10
204.4527890461129
 20
732.9234849732988
 30
0.0
 40
185.6077806244427
100
AcDbArc
 50
278.2344147587374
 51
283.6871087991744
  0
ARC
  5
A70
330
1F
100
AcDbEntity
  8
ceco.net 163
100
AcDbCircle
 10
254.1496245013452
 20
456.5395753752864
 30
0.0
 40
165.4187339207871
100
AcDbArc
 50
106.0242919627371
 51
124.1744257041813
  0
ARC
  5
A71
330
1F
100
AcDbEntity
  8
ceco.net 163
100
AcDbCircle
 10
406.0335852929135
 20
611.7687219136969
 30
0.0
 40
25.26826941506138
100
AcDbArc
 50
130.1727719162
 51
160.8935241203634
  0
ARC
  5
A72
330
1F
100
AcDbEntity
  8
ceco.net 163
100
AcDbCircle
 10
354.5933067598255
 20
627.5008810449253
 30
0.0
 40
65.68663916965686
100
AcDbArc
 50
115.2317878135999
 51
138.7307412583266
  0
ARC
  5
A73
330
1F
100
AcDbEntity
  8
ceco.net 163
100
AcDbCircle
 10
352.7682698981996
 20
622.2088131450455
 30
0.0
 40
80.96487951673715
100
AcDbArc
 50
38.92050944128567
 51
58.76740870578115
  0
ARC
  5
A74
330
1F
100
AcDbEntity
  8
ceco.net 163
100
AcDbCircle
 10
363.8483145315611
 20
666.2818327378992
 30
0.0
 40
52.35461286855
100
AcDbArc
 50
333.981930555539
 51
7.45456596364051
  0
ARC
  5
A75
330
1F
100
AcDbEntity
  8
ceco.net 163
100
AcDbCircle
 10
399.339411678198
 20
647.6833784570276
 30
0.0
 40
12.35523266657956
100
AcDbArc
 50
265.1068254048851
 51
339.3006323640399
  0
ARC
  5
A76
330
1F
100
AcDbEntity
  8
ceco.net 163
100
AcDbCircle
 10
398.3059871805005
 20
624.6728690770144
 30
0.0
 40
10.70032534878848
100
AcDbArc
 50
90.10952809298421
 51
143.2423997311771
  0
ARC
  5
A77
330
1F
100
AcDbEntity
  8
ceco.net 163
100
AcDbCircle
 10
412.0670805139159
 20
583.1430206312898
 30
0.0
 40
119.9198551772771
100
AcDbArc
 50
111.2354607522535
 51
120.7358634405399
  0
ARC
  5
A78
330
1F
100
AcDbEntity
  8
ceco.net 163
100
AcDbCircle
 10
361.7506415032419
 20
543.5652941083191
 30
0.0
 40
151.5113472977302
100
AcDbArc
 50
77.42021347550291
 51
87.39686655566329
  0
ARC
  5
A79
330
1F
100
AcDbEntity
  8
ceco.net 163
100
AcDbCircle
 10
358.3424431789924
 20
1363.463324288286
 30
0.0
 40
677.2875267606991
100
AcDbArc
 50
267.3130840232344
 51
269.360092322077
  0
ARC
  5
A7A
330
1F
100
AcDbEntity
  8
ceco.net 163
100
AcDbCircle
 10
358.7887870684751
 20
473.3062823948684
 30
0.0
 40
138.6854845318978
100
AcDbArc
 50
111.3726398392007
 51
122.9587150755437
  0
ARC
  5
A7B
330
1F
100
AcDbEntity
  8
ceco.net 163
100
AcDbCircle
 10
2871.417098553935
 20
-5034.248207459689
 30
0.0
 40
6245.894883725111
100
AcDbArc
 50
114.7178287951756
 51
115.2360748574981
  0
ARC
  5
A7C
330
1F
100
AcDbEntity
  8
ceco.net 163
100
AcDbCircle
 10
474.7255077059178
 20
1175.375458845103
 30
0.0
 40
596.618443751404
100
AcDbArc
 50
253.7973069372402
 51
256.2879242828116
  0
ARC
  5
A7D
330
1F
100
AcDbEntity
  8
ceco.net 163
100
AcDbCircle
 10
326.2251582195956
 20
683.9319142991532
 30
0.0
 40
88.45428063078839
100
AcDbArc
 50
274.5884602334301
 51
304.1360556224844
  0
ARC
  5
A7E
330
1F
100
AcDbEntity
  8
ceco.net 163
100
AcDbCircle
 10
352.9964468396576
 20
632.9454002906986
 30
0.0
 40
31.88908142254246
100
AcDbArc
 50
315.8105477946702
 51
336.1272025902625
  0
ARC
  5
A7F
330
1F
100
AcDbEntity
  8
ceco.net 163
100
AcDbCircle
 10
306.8162975879797
 20
617.3234123250772
 30
0.0
 40
48.37925086527665
100
AcDbArc
 50
102.2315988177001
 51
120.2393226882243
  0
LINE
  5
A80
330
1F
100
AcDbEntity
  8
ceco.net 163
100
AcDbLine
 10
301.7165149373038
 20
666.3206076299388
 30
0.0
 11
305.2220371960558
 21
670.8276892250003
 31
0.0
  0
ARC
  5
A81
330
1F
100
AcDbEntity
  8
ceco.net 163
100
AcDbCircle
 10
298.2233913979478
 20
668.2176148433177
 30
0.0
 40
3.974990368356782
100
AcDbArc
 50
245.3652105646717
 51
331.4949852813716
  0
ARC
  5
A82
330
1F
100
AcDbEntity
  8
ceco.net 163
100
AcDbCircle
 10
119.5062744779977
 20
824.0206903543469
 30
0.0
 40
231.8266960584235
100
AcDbArc
 50
307.2090585557311
 51
314.6582673787325
  0
ARC
  5
A83
330
1F
100
AcDbEntity
  8
ceco.net 163
100
AcDbCircle
 10
-359.0927998471879
 20
1160.390499856171
 30
0.0
 40
859.3242736358885
100
AcDbArc
 50
314.9839720911083
 51
318.3830144114017
  0
ARC
  5
A84
330
1F
100
AcDbEntity
  8
ceco.net 163
100
AcDbCircle
 10
525.6435536297888
 20
593.0043350536171
 30
0.0
 40
282.1674688181717
100
AcDbArc
 50
196.3355786235559
 51
209.4987917273385
  0
ARC
  5
A85
330
1F
100
AcDbEntity
  8
ceco.net 163
100
AcDbCircle
 10
58.81388235054578
 20
253.6903271906371
 30
0.0
 40
298.4910177184223
100
AcDbArc
 50
34.25066034221521
 51
42.16650957131375
  0
LINE
  5
A86
330
1F
100
AcDbEntity
  8
ceco.net 163
100
AcDbLine
 10
229.1637760811443
 20
535.8045918684729
 30
0.0
 11
231.0361697726259
 21
549.2292496324016
 31
0.0
  0
ARC
  5
A87
330
1F
100
AcDbEntity
  8
ceco.net 163
100
AcDbCircle
 10
182.8231045712598
 20
456.0769506083565
 30
0.0
 40
92.21688900030892
100
AcDbArc
 50
38.62542589332612
 51
59.83325228360268
  0
LINE
  5
A88
330
1F
100
AcDbEntity
  8
ceco.net 163
100
AcDbLine
 10
399.4226387258484
 20
279.3998722677558
 30
0.0
 11
382.7481841040632
 21
269.2969184680189
 31
0.0
  0
ARC
  5
A89
330
1F
100
AcDbEntity
  8
ceco.net 163
100
AcDbCircle
 10
-146.5572117872898
 20
130.0925451635621
 30
0.0
 40
547.3043574345041
100
AcDbArc
 50
14.73480348525919
 51
21.40782002487946
  0
ARC
  5
A8A
330
1F
100
AcDbEntity
  8
ceco.net 163
100
AcDbCircle
 10
761.6789645590045
 20
420.3540767244914
 30
0.0
 40
408.8334354189941
100
AcDbArc
 50
188.8401886479436
 51
192.7880570759483
  0
LINE
  5
A8B
330
1F
100
AcDbEntity
  8
ceco.net 163
100
AcDbLine
 10
398.6580069924041
 20
274.0630112648878
 30
0.0
 11
399.4226387258484
 21
279.3998722677558
 31
0.0
  0
ARC
  5
A8C
330
1F
100
AcDbEntity
  8
ceco.net 163
100
AcDbCircle
 10
-587.3988354373811
 20
759.6206007150854
 30
0.0
 40
141.2961163768849
100
AcDbArc
 50
28.8331591840716
 51
78.57718059135741
  0
ARC
  5
A8D
330
1F
100
AcDbEntity
  8
ceco.net 163
100
AcDbCircle
 10
-571.3911966864611
 20
776.1399992577137
 30
0.0
 40
96.90692096393938
100
AcDbArc
 50
31.98511331907603
 51
97.33845785508647
  0
ARC
  5
A8E
330
1F
100
AcDbEntity
  8
ceco.net 163
100
AcDbCircle
 10
-516.9116273306922
 20
803.2732773216059
 30
0.0
 40
63.45457106528313
100
AcDbArc
 50
105.9455313848443
 51
186.1926620430961
  0
ARC
  5
A8F
330
1F
100
AcDbEntity
  8
ceco.net 163
100
AcDbCircle
 10
-279.2971142657038
 20
778.459165073491
 30
0.0
 40
93.85654681047226
100
AcDbArc
 50
314.5720873160629
 51
338.7776776159004
  0
ARC
  5
A90
330
1F
100
AcDbEntity
  8
ceco.net 163
100
AcDbCircle
 10
-391.2005210490353
 20
475.7708146658924
 30
0.0
 40
310.9476933775062
100
AcDbArc
 50
33.59623183023426
 51
52.80731880631969
  0
ARC
  5
A91
330
1F
100
AcDbEntity
  8
ceco.net 163
100
AcDbCircle
 10
-136.7381849494622
 20
867.0803221901865
 30
0.0
 40
219.2977961992072
100
AcDbArc
 50
259.6641975609458
 51
271.4670355998674
  0
ARC
  5
A92
330
1F
100
AcDbEntity
  8
ceco.net 163
100
AcDbCircle
 10
-67.46490161360452
 20
613.9909749571391
 30
0.0
 40
72.10536071909728
100
AcDbArc
 50
134.4956139036319
 51
151.9891855587235
  0
ARC
  5
A93
330
1F
100
AcDbEntity
  8
ceco.net 163
100
AcDbCircle
 10
-53.22474304729621
 20
754.3934996799032
 30
0.0
 40
24.86409787437415
100
AcDbArc
 50
35.23707899647615
 51
79.82661530751665
  0
ARC
  5
A94
330
1F
100
AcDbEntity
  8
ceco.net 163
100
AcDbCircle
 10
280.3476059298361
 20
148.3211894240967
 30
0.0
 40
711.2998829369279
100
AcDbArc
 50
117.5671238478438
 51
122.1501064755812
  0
ARC
  5
A95
330
1F
100
AcDbEntity
  8
ceco.net 163
100
AcDbCircle
 10
-138.4603234135634
 20
711.4269453668948
 30
0.0
 40
56.16355910199168
100
AcDbArc
 50
44.15150763475897
 51
78.59460065783498
  0
ARC
  5
A96
330
1F
100
AcDbEntity
  8
ceco.net 163
100
AcDbCircle
 10
-139.9782891533818
 20
704.734251212725
 30
0.0
 40
63.02448157686391
100
AcDbArc
 50
78.44504258411773
 51
106.9885465804373
  0
ARC
  5
A97
330
1F
100
AcDbEntity
  8
ceco.net 163
100
AcDbCircle
 10
-165.4000588577409
 20
837.5420102616171
 30
0.0
 40
72.87115372215369
100
AcDbArc
 50
247.6513605285107
 51
275.5180514004478
  0
ARC
  5
A98
330
1F
100
AcDbEntity
  8
ceco.net 163
100
AcDbCircle
 10
-217.3279050298901
 20
756.0513732336126
 30
0.0
 40
28.02113356895656
100
AcDbArc
 50
335.6191365579854
 51
55.09708639967572
  0
LINE
  5
A99
330
1F
100
AcDbEntity
  8
ceco.net 163
100
AcDbLine
 10
-149.3292107207707
 20
849.8533186108613
 30
0.0
 11
-153.7806908138195
 21
843.5823312489626
 31
0.0
  0
LINE
  5
A9A
330
1F
100
AcDbEntity
  8
ceco.net 163
100
AcDbLine
 10
-132.1152441490937
 20
861.4227539306154
 30
0.0
 11
-149.3292107207707
 21
849.8533186108613
 31
0.0
  0
LINE
  5
A9B
330
1F
100
AcDbEntity
  8
ceco.net 163
100
AcDbLine
 10
-123.8059921789397
 20
861.6444533679416
 30
0.0
 11
-132.1152441490937
 21
861.4227539306154
 31
0.0
  0
LINE
  5
A9C
330
1F
100
AcDbEntity
  8
ceco.net 163
100
AcDbLine
 10
-111.3280870446128
 20
838.1820770617311
 30
0.0
 11
-123.8059921789397
 21
861.6444533679416
 31
0.0
  0
LINE
  5
A9D
330
1F
100
AcDbEntity
  8
ceco.net 163
100
AcDbLine
 10
-111.798203674524
 20
832.9620949860277
 30
0.0
 11
-111.3280870446128
 21
838.1820770617311
 31
0.0
  0
LINE
  5
A9E
330
1F
100
AcDbEntity
  8
ceco.net 163
100
AcDbLine
 10
-105.7386154491773
 20
825.0075448059153
 30
0.0
 11
-111.798203674524
 21
832.9620949860277
 31
0.0
  0
LINE
  5
A9F
330
1F
100
AcDbEntity
  8
ceco.net 163
100
AcDbLine
 10
-110.3842260230567
 20
813.0497966799783
 30
0.0
 11
-105.7386154491773
 21
825.0075448059153
 31
0.0
  0
LINE
  5
AA0
330
1F
100
AcDbEntity
  8
ceco.net 163
100
AcDbLine
 10
-103.5724235401958
 20
806.676129097012
 30
0.0
 11
-110.3842260230567
 21
813.0497966799783
 31
0.0
  0
LINE
  5
AA1
330
1F
100
AcDbEntity
  8
ceco.net 163
100
AcDbLine
 10
-120.5669654851674
 20
788.5145671138734
 30
0.0
 11
-103.5724235401958
 21
806.676129097012
 31
0.0
  0
ARC
  5
AA2
330
1F
100
AcDbEntity
  8
ceco.net 163
100
AcDbCircle
 10
-136.7865356580211
 20
837.9183790414298
 30
0.0
 40
51.99818352184193
100
AcDbArc
 50
268.913526622647
 51
288.175320939071
  0
ARC
  5
AA3
330
1F
100
AcDbEntity
  8
ceco.net 163
100
AcDbCircle
 10
43.76103287027649
 20
781.7893138896995
 30
0.0
 40
199.3469893554786
100
AcDbArc
 50
174.226915849192
 51
180.6519383112828
  0
ARC
  5
AA4
330
1F
100
AcDbEntity
  8
ceco.net 163
100
AcDbCircle
 10
-202.4555902654931
 20
1041.698525464237
 30
0.0
 40
266.3362072709005
100
AcDbArc
 50
280.1384668875241
 51
283.591332293376
  0
ARC
  5
AA5
330
1F
100
AcDbEntity
  8
ceco.net 163
100
AcDbCircle
 10
-159.5393627316877
 20
804.194462383139
 30
0.0
 40
28.41485204330944
100
AcDbArc
 50
312.3341667102694
 51
352.4137014295694
  0
ARC
  5
AA6
330
1F
100
AcDbEntity
  8
ceco.net 163
100
AcDbCircle
 10
-177.9942582087051
 20
794.0585086812853
 30
0.0
 40
47.05618656125255
100
AcDbArc
 50
7.79801650202584
 51
55.5808037293001
  0
ARC
  5
AA7
330
1F
100
AcDbEntity
  8
ceco.net 163
100
AcDbCircle
 10
-245.5126941823441
 20
824.3789932034911
 30
0.0
 40
61.15286419113368
100
AcDbArc
 50
331.9898645665302
 51
340.8164949170725
  0
ARC
  5
AA8
330
1F
100
AcDbEntity
  8
ceco.net 163
100
AcDbCircle
 10
-167.9045849085089
 20
818.6176990815884
 30
0.0
 40
32.93766107924013
100
AcDbArc
 50
224.1873834447061
 51
279.162114082238
  0
ARC
  5
AA9
330
1F
100
AcDbEntity
  8
ceco.net 163
100
AcDbCircle
 10
-216.897747130062
 20
823.9052260093446
 30
0.0
 40
66.11317016030139
100
AcDbArc
 50
325.1226263661744
 51
17.51434435948122
  0
ARC
  5
AAA
330
1F
100
AcDbEntity
  8
ceco.net 163
100
AcDbCircle
 10
-201.9653133739568
 20
800.9294857610161
 30
0.0
 40
64.4449702046247
100
AcDbArc
 50
41.70165363483135
 51
82.40632508460887
  0
ARC
  5
AAB
330
1F
100
AcDbEntity
  8
ceco.net 163
100
AcDbCircle
 10
-160.624510196737
 20
880.0320290345366
 30
0.0
 40
36.18267702528227
100
AcDbArc
 50
204.8800016723474
 51
216.058763480883
  0
ARC
  5
AAC
330
1F
100
AcDbEntity
  8
ceco.net 163
100
AcDbCircle
 10
-215.6244165928758
 20
830.4658680766369
 30
0.0
 40
38.23789495405159
100
AcDbArc
 50
316.7881898748754
 51
47.67010750654001
  0
ARC
  5
AAD
330
1F
100
AcDbEntity
  8
ceco.net 163
100
AcDbCircle
 10
-479.9208524009722
 20
1136.722384996893
 30
0.0
 40
309.3899598837754
100
AcDbArc
 50
266.0934192096734
 51
283.3570886387933
  0
ARC
  5
AAE
330
1F
100
AcDbEntity
  8
ceco.net 163
100
AcDbCircle
 10
-88.20225015264737
 20
-1154.687805574185
 30
0.0
 40
2015.987658263517
100
AcDbArc
 50
92.89083939997839
 51
99.14026514593423
  0
ARC
  5
AAF
330
1F
100
AcDbEntity
  8
ceco.net 163
100
AcDbCircle
 10
-591.6416148473531
 20
678.2048689120906
 30
0.0
 40
118.7956336942143
100
AcDbArc
 50
73.04404271332018
 51
84.37418626183946
  0
ARC
  5
AB0
330
1F
100
AcDbEntity
  8
ceco.net 163
100
AcDbCircle
 10
-633.6247233676381
 20
582.447230339405
 30
0.0
 40
222.9701733987179
100
AcDbArc
 50
51.85387863307491
 51
69.89934558709734
  0
ARC
  5
AB1
330
1F
100
AcDbEntity
  8
ceco.net 163
100
AcDbCircle
 10
-412.7464853708813
 20
839.7748964566339
 30
0.0
 40
109.1582868857943
100
AcDbArc
 50
270.0326381153776
 51
292.282472721386
  0
ARC
  5
AB2
330
1F
100
AcDbEntity
  8
ceco.net 163
100
AcDbCircle
 10
-382.1967437534317
 20
798.790215272249
 30
0.0
 40
60.99331446103246
100
AcDbArc
 50
280.2373794090955
 51
311.5547526909228
  0
ARC
  5
AB3
330
1F
100
AcDbEntity
  8
ceco.net 163
100
AcDbCircle
 10
668.6910445064074
 20
-2032.026825485005
 30
0.0
 40
2962.796427260528
100
AcDbArc
 50
106.8021060447083
 51
109.9401805761641
  0
ARC
  5
AB4
330
1F
100
AcDbEntity
  8
ceco.net 163
100
AcDbCircle
 10
-2923.803750584454
 20
12511.81800224133
 30
0.0
 40
11969.49138458092
100
AcDbArc
 50
282.4616432224191
 51
283.2033674634134
  0
ARC
  5
AB5
330
1F
100
AcDbEntity
  8
ceco.net 163
100
AcDbCircle
 10
-85.85025056974632
 20
16.37272935748887
 30
0.0
 40
847.264304511258
100
AcDbArc
 50
107.523241413457
 51
121.3337053511267
  0
ARC
  5
AB6
330
1F
100
AcDbEntity
  8
ceco.net 163
100
AcDbCircle
 10
-158.9069749054274
 20
831.7447080468733
 30
0.0
 40
67.64112581448796
100
AcDbArc
 50
213.5103169771043
 51
231.1963063166821
  0
ARC
  5
AB7
330
1F
100
AcDbEntity
  8
ceco.net 163
100
AcDbCircle
 10
-195.2111234546528
 20
690.1914100331948
 30
0.0
 40
28.10925033154509
100
AcDbArc
 50
130.3966003582042
 51
197.5266089407933
  0
ARC
  5
AB8
330
1F
100
AcDbEntity
  8
ceco.net 163
100
AcDbCircle
 10
-244.7967856355439
 20
628.9136521343309
 30
0.0
 40
57.5166870766039
100
AcDbArc
 50
53.24239973116941
 51
66.66652985367064
  0
ARC
  5
AB9
330
1F
100
AcDbEntity
  8
ceco.net 163
100
AcDbCircle
 10
9.887026085409843
 20
957.6495953180602
 30
0.0
 40
358.3435857701319
100
AcDbArc
 50
232.0718518625517
 51
238.7365537511526
  0
ARC
  5
ABA
330
1F
100
AcDbEntity
  8
ceco.net 163
100
AcDbCircle
 10
-338.1941527100786
 20
618.0315791945881
 30
0.0
 40
55.12790411215497
100
AcDbArc
 50
327.682158909136
 51
80.39131544812859
  0
ARC
  5
ABB
330
1F
100
AcDbEntity
  8
ceco.net 163
100
AcDbCircle
 10
-619.2745534779133
 20
828.5179219954072
 30
0.0
 40
18.19531164349656
100
AcDbArc
 50
113.9972738522725
 51
200.5559278498647
  0
ARC
  5
ABC
330
1F
100
AcDbEntity
  8
ceco.net 163
100
AcDbCircle
 10
-1508.208340159943
 20
2033.500339049542
 30
0.0
 40
1479.62868338048
100
AcDbArc
 50
306.5682903041204
 51
309.8841327074008
  0
ARC
  5
ABD
330
1F
100
AcDbEntity
  8
ceco.net 163
100
AcDbCircle
 10
-353.993777166826
 20
426.0402423652726
 30
0.0
 40
75.31819725170996
100
AcDbArc
 50
278.2519993222688
 51
296.7432325277844
  0
ARC
  5
ABE
330
1F
100
AcDbEntity
  8
ceco.net 163
100
AcDbCircle
 10
-451.2356109597728
 20
261.8751189971046
 30
0.0
 40
93.5151110502765
100
AcDbArc
 50
228.4627925957998
 51
271.5255927401039
  0
ARC
  5
ABF
330
1F
100
AcDbEntity
  8
ceco.net 163
100
AcDbCircle
 10
-468.4464675938911
 20
348.7811027959928
 30
0.0
 40
104.4152460300984
100
AcDbArc
 50
294.9629174736352
 51
310.1731065283489
  0
ARC
  5
AC0
330
1F
100
AcDbEntity
  8
ceco.net 163
100
AcDbCircle
 10
-427.4077140939921
 20
315.333175731122
 30
0.0
 40
52.67241229357376
100
AcDbArc
 50
336.1958097748712
 51
0.3890324697925975
  0
ARC
  5
AC1
330
1F
100
AcDbEntity
  8
ceco.net 163
100
AcDbCircle
 10
124.322183597467
 20
61.85713632344278
 30
0.0
 40
8.410862762162107
100
AcDbArc
 50
188.2390301702171
 51
311.6479675532437
  0
ARC
  5
AC2
330
1F
100
AcDbEntity
  8
ceco.net 163
100
AcDbCircle
 10
146.9912963081203
 20
193.0216518509514
 30
0.0
 40
111.8777925677169
100
AcDbArc
 50
217.2952235946788
 51
234.9378842127059
  0
ARC
  5
AC3
330
1F
100
AcDbEntity
  8
ceco.net 163
100
AcDbCircle
 10
0.0
 20
0.0
 30
0.0
 40
130.8977127401526
100
AcDbArc
 50
27.60367579467543
 51
50.80546521470914
  0
ARC
  5
AC4
330
1F
100
AcDbEntity
  8
ceco.net 163
100
AcDbCircle
 10
-117.9623165340644
 20
290.7743795210312
 30
0.0
 40
134.0285406333144
100
AcDbArc
 50
127.3046590828913
 51
167.1639569631756
  0
LINE
  5
AC5
330
1F
100
AcDbEntity
  8
ceco.net 163
100
AcDbLine
 10
-199.1907268281258
 20
397.3839244285889
 30
0.0
 11
-176.9162037626783
 21
289.0243216991368
 31
0.0
  0
LINE
  5
AC6
330
1F
100
AcDbEntity
  8
ceco.net 163
100
AcDbLine
 10
-240.423528746219
 20
314.1234583914438
 30
0.0
 11
-399.7059016043119
 21
251.2294410133736
 31
0.0
  0
ARC
  5
AC7
330
1F
100
AcDbEntity
  8
ceco.net 163
100
AcDbCircle
 10
-403.2070484513281
 20
316.6796059330968
 30
0.0
 40
155.1214347681128
100
AcDbArc
 50
252.9282436162737
 51
284.394561509528
  0
ARC
  5
AC8
330
1F
100
AcDbEntity
  8
ceco.net 163
100
AcDbCircle
 10
-225.3085108987864
 20
-132.6696815091586
 30
0.0
 40
381.2652488081969
100
AcDbArc
 50
93.44331286518707
 51
104.5756000226979
  0
ARC
  5
AC9
330
1F
100
AcDbEntity
  8
ceco.net 163
100
AcDbCircle
 10
385.5776736218842
 20
-1449.142858379444
 30
0.0
 40
1759.909890060198
100
AcDbArc
 50
105.7366097481873
 51
110.3271066928023
  0
LINE
  5
ACA
330
1F
100
AcDbEntity
  8
ceco.net 163
100
AcDbLine
 10
-248.6414560490489
 20
320.5504135066332
 30
0.0
 11
-188.1243212102813
 21
343.5488181563405
 31
0.0
  0
ARC
  5
ACB
330
1F
100
AcDbEntity
  8
ceco.net 163
100
AcDbCircle
 10
-145.8443195158072
 20
229.0651961758346
 30
0.0
 40
67.5319089332165
100
AcDbArc
 50
117.3939933338703
 51
149.4473874662354
  0
ARC
  5
ACC
330
1F
100
AcDbEntity
  8
ceco.net 163
100
AcDbCircle
 10
-159.4371462962956
 20
426.1454394385213
 30
0.0
 40
138.2306709093068
100
AcDbArc
 50
229.8096261034829
 51
262.7355889483786
  0
ARC
  5
ACD
330
1F
100
AcDbEntity
  8
ceco.net 163
100
AcDbCircle
 10
-80.60702734842857
 20
333.3710075086446
 30
0.0
 40
10.29421613081513
100
AcDbArc
 50
13.1773366260147
 51
122.5422104147969
  0
ARC
  5
ACE
330
1F
100
AcDbEntity
  8
ceco.net 163
100
AcDbCircle
 10
-205.2032212313718
 20
355.8942894201572
 30
0.0
 40
111.7760797158325
100
AcDbArc
 50
327.6422012046638
 51
341.0649179149808
  0
ARC
  5
ACF
330
1F
100
AcDbEntity
  8
ceco.net 163
100
AcDbCircle
 10
-120.6215217440474
 20
302.4683181155797
 30
0.0
 40
11.73500913438996
100
AcDbArc
 50
194.3218616114574
 51
326.9663759911284
  0
LINE
  5
AD0
330
1F
100
AcDbEntity
  8
ceco.net 163
100
AcDbLine
 10
-73.84032453133636
 20
324.2141709821451
 30
0.0
 11
-22.77683085795638
 21
319.4113443364985
 31
0.0
  0
ARC
  5
AD1
330
1F
100
AcDbEntity
  8
ceco.net 163
100
AcDbCircle
 10
167.5804604692537
 20
262.0848804379313
 30
0.0
 40
249.2870718144827
100
AcDbArc
 50
162.8200499395683
 51
178.41287344466
  0
LINE
  5
AD2
330
1F
100
AcDbEntity
  8
ceco.net 163
100
AcDbLine
 10
-114.9940996635675
 20
331.921143999617
 30
0.0
 11
-94.62572717989155
 21
330.7408644859333
 31
0.0
  0
LINE
  5
AD3
330
1F
100
AcDbEntity
  8
ceco.net 163
100
AcDbLine
 10
-99.24156130654342
 20
387.1093547182756
 30
0.0
 11
-114.9940996635675
 21
331.921143999617
 31
0.0
  0
ARC
  5
AD4
330
1F
100
AcDbEntity
  8
ceco.net 163
100
AcDbCircle
 10
-45.38147176449569
 20
302.6416471847137
 30
0.0
 40
56.69711372162229
100
AcDbArc
 50
135.9687869211455
 51
162.5714786628628
  0
ARC
  5
AD5
330
1F
100
AcDbEntity
  8
ceco.net 163
100
AcDbCircle
 10
-62.69824677251586
 20
271.1173102803759
 30
0.0
 40
74.90591475974905
100
AcDbArc
 50
138.6057816902418
 51
157.6796419908539
  0
ARC
  5
AD6
330
1F
100
AcDbEntity
  8
ceco.net 163
100
AcDbCircle
 10
-139.873033500932
 20
334.2109551313158
 30
0.0
 40
24.98408661337627
100
AcDbArc
 50
327.1206813306874
 51
25.84068065906947
  0
ARC
  5
AD7
330
1F
100
AcDbEntity
  8
ceco.net 163
100
AcDbCircle
 10
-11.51525259270079
 20
223.5668402689412
 30
0.0
 40
161.1811061839595
100
AcDbArc
 50
131.0601021568756
 51
145.2178274265787
  0
ARC
  5
AD8
330
1F
100
AcDbEntity
  8
ceco.net 163
100
AcDbCircle
 10
-280.8901509868094
 20
452.4484762045863
 30
0.0
 40
193.695730405218
100
AcDbArc
 50
302.4653920712697
 51
315.0121246899793
  0
ARC
  5
AD9
330
1F
100
AcDbEntity
  8
ceco.net 163
100
AcDbCircle
 10
-219.6724303819542
 20
268.0443081646237
 30
0.0
 40
16.34762463386421
100
AcDbArc
 50
303.0128906666035
 51
343.4719087957457
  0
ARC
  5
ADA
330
1F
100
AcDbEntity
  8
ceco.net 163
100
AcDbCircle
 10
-351.6325079356129
 20
962.5127755718938
 30
0.0
 40
722.0510512079008
100
AcDbArc
 50
278.2352336857518
 51
281.2501249463109
  0
ARC
  5
ADB
330
1F
100
AcDbEntity
  8
ceco.net 163
100
AcDbCircle
 10
-404.4856912184703
 20
491.6307511567092
 30
0.0
 40
327.6342742405131
100
AcDbArc
 50
276.9846609875573
 51
289.7323657124385
  0
ARC
  5
ADC
330
1F
100
AcDbEntity
  8
ceco.net 163
100
AcDbCircle
 10
-345.5829571441256
 20
517.8199999406556
 30
0.0
 40
338.5579660420616
100
AcDbArc
 50
278.7864507899641
 51
290.7239892553839
  0
LINE
  5
ADD
330
1F
100
AcDbEntity
  8
ceco.net 163
100
AcDbLine
 10
-245.9437276721589
 20
330.5790037171979
 30
0.0
 11
-400.2228994963665
 21
269.6605433774521
 31
0.0
  0
ARC
  5
ADE
330
1F
100
AcDbEntity
  8
ceco.net 163
100
AcDbCircle
 10
-600.0236243803001
 20
667.3929027189593
 30
0.0
 40
433.7314718275698
100
AcDbArc
 50
300.6031011069703
 51
306.4493390858767
  0
ARC
  5
ADF
330
1F
100
AcDbEntity
  8
ceco.net 163
100
AcDbCircle
 10
-361.8248685423647
 20
452.53848612262
 30
0.0
 40
102.624429893445
100
AcDbArc
 50
293.9893874092878
 51
338.8463163344492
  0
ARC
  5
AE0
330
1F
100
AcDbEntity
  8
ceco.net 163
100
AcDbCircle
 10
-1021.997122081986
 20
1411.337368093191
 30
0.0
 40
1285.387783409775
100
AcDbArc
 50
303.9804881171401
 51
307.215155847325
  0
LINE
  5
AE1
330
1F
100
AcDbEntity
  8
ceco.net 163
100
AcDbLine
 10
-199.1907268281258
 20
397.3839244285889
 30
0.0
 11
-263.1352113760529
 21
373.8643061688189
 31
0.0
  0
ARC
  5
AE2
330
1F
100
AcDbEntity
  8
ceco.net 163
100
AcDbCircle
 10
-701.4035539392655
 20
642.5695624165841
 30
0.0
 40
490.9522742957605
100
AcDbArc
 50
332.451479284788
 51
339.9730200653074
  0
ARC
  5
AE3
330
1F
100
AcDbEntity
  8
ceco.net 163
100
AcDbCircle
 10
-315.0294079260952
 20
504.7844480371743
 30
0.0
 40
136.6499511111227
100
AcDbArc
 50
301.0330116255141
 51
317.3883344743727
  0
ARC
  5
AE4
330
1F
100
AcDbEntity
  8
ceco.net 163
100
AcDbCircle
 10
-156.211884375155
 20
369.0180224968053
 30
0.0
 40
72.55034632781491
100
AcDbArc
 50
122.4765107146378
 51
143.4053528615067
  0
ARC
  5
AE5
330
1F
100
AcDbEntity
  8
ceco.net 163
100
AcDbCircle
 10
-234.1141388366495
 20
495.5006768302086
 30
0.0
 40
76.01353606991522
100
AcDbArc
 50
300.8209587717457
 51
313.7831904104654
  0
ARC
  5
AE6
330
1F
100
AcDbEntity
  8
ceco.net 163
100
AcDbCircle
 10
-105.0500154864232
 20
18.60594360960431
 30
0.0
 40
382.4218599187222
100
AcDbArc
 50
121.274553224079
 51
128.3518665554309
  0
ARC
  5
AE7
330
1F
100
AcDbEntity
  8
ceco.net 163
100
AcDbCircle
 10
-358.1593043716082
 20
-440.6649286266829
 30
0.0
 40
677.9950517121323
100
AcDbArc
 50
86.87990230698162
 51
93.53664948507901
  0
ARC
  5
AE8
330
1F
100
AcDbEntity
  8
ceco.net 163
100
AcDbCircle
 10
-455.9818742476324
 20
246.1014370323303
 30
0.0
 40
56.89598673756418
100
AcDbArc
 50
316.8377515773743
 51
349.8131841753263
  0
ARC
  5
AE9
330
1F
100
AcDbEntity
  8
ceco.net 163
100
AcDbCircle
 10
-227.7910972588683
 20
240.4981883135251
 30
0.0
 40
172.2494114290546
100
AcDbArc
 50
169.8703533194537
 51
181.4834668266782
  0
ARC
  5
AEA
330
1F
100
AcDbEntity
  8
ceco.net 163
100
AcDbCircle
 10
-450.0034793723839
 20
333.7391984842017
 30
0.0
 40
81.14296132803087
100
AcDbArc
 50
307.0726588194598
 51
330.7361787365903
  0
ARC
  5
AEB
330
1F
100
AcDbEntity
  8
ceco.net 163
100
AcDbCircle
 10
67.03539474473632
 20
170.8094511927843
 30
0.0
 40
20.00014149964735
100
AcDbArc
 50
133.2355732058271
 51
217.2539351879024
  0
ARC
  5
AEC
330
1F
100
AcDbEntity
  8
ceco.net 163
100
AcDbCircle
 10
-102.4060460539885
 20
263.4829368609639
 30
0.0
 40
21.51176494291189
100
AcDbArc
 50
299.7327097268441
 51
14.83132192788084
  0
LINE
  5
AED
330
1F
100
AcDbEntity
  8
ceco.net 163
100
AcDbLine
 10
58.5823534927174
 20
261.155254725284
 30
0.0
 11
38.15013953444895
 21
262.2490997514933
 31
0.0
  0
LINE
  5
AEE
330
1F
100
AcDbEntity
  8
ceco.net 163
100
AcDbLine
 10
38.15013953444895
 20
262.2490997514933
 30
0.0
 11
98.67871055323462
 21
215.2667851538999
 31
0.0
  0
ARC
  5
AEF
330
1F
100
AcDbEntity
  8
ceco.net 163
100
AcDbCircle
 10
191.6905082473692
 20
24.80930871095688
 30
0.0
 40
211.9557615241068
100
AcDbArc
 50
116.0290289777305
 51
130.7496472321987
  0
ARC
  5
AF0
330
1F
100
AcDbEntity
  8
ceco.net 163
100
AcDbCircle
 10
196.3081008736724
 20
171.0797803112982
 30
0.0
 40
145.7186485234734
100
AcDbArc
 50
184.872592768449
 51
198.3384353286935
  0
ARC
  5
AF1
330
1F
100
AcDbEntity
  8
ceco.net 163
100
AcDbCircle
 10
183.6827409971854
 20
-8.922139782319845
 30
0.0
 40
83.96933648914881
100
AcDbArc
 50
119.039834909135
 51
129.8191107003999
  0
ARC
  5
AF2
330
1F
100
AcDbEntity
  8
ceco.net 163
100
AcDbCircle
 10
-291.5424854530015
 20
102.9105240241033
 30
0.0
 40
436.1604554660966
100
AcDbArc
 50
352.474589962254
 51
354.9464788030005
  0
ARC
  5
AF3
330
1F
100
AcDbEntity
  8
ceco.net 163
100
AcDbCircle
 10
202.37441093456
 20
87.56763299589056
 30
0.0
 40
72.13587301516866
100
AcDbArc
 50
250.5947373866184
 51
266.5778290120032
  0
ARC
  5
AF4
330
1F
100
AcDbEntity
  8
ceco.net 163
100
AcDbCircle
 10
371.6889142125598
 20
335.8660148890869
 30
0.0
 40
370.7107122980284
100
AcDbArc
 50
231.4891760932021
 51
238.5750746046716
  0
ARC
  5
AF5
330
1F
100
AcDbEntity
  8
ceco.net 163
100
AcDbCircle
 10
-459.8674255931554
 20
526.4807253975885
 30
0.0
 40
144.4299701375575
100
AcDbArc
 50
148.3801949789455
 51
189.706865853997
  0
LINE
  5
AF6
330
1F
100
AcDbEntity
  8
ceco.net 163
100
AcDbLine
 10
-546.3812456417261
 20
518.8014375389941
 30
0.0
 11
-585.5324162034901
 21
461.5924238436443
 31
0.0
  0
ARC
  5
AF7
330
1F
100
AcDbEntity
  8
ceco.net 163
100
AcDbCircle
 10
-417.6363819676289
 20
388.9408218895771
 30
0.0
 40
63.44290844871697
100
AcDbArc
 50
286.5681037635316
 51
312.5431813169383
  0
ARC
  5
AF8
330
1F
100
AcDbEntity
  8
ceco.net 163
100
AcDbCircle
 10
-1015.995434758671
 20
1337.630981238209
 30
0.0
 40
1136.118793125467
100
AcDbArc
 50
300.1159198349367
 51
302.7661379681398
  0
ARC
  5
AF9
330
1F
100
AcDbEntity
  8
ceco.net 163
100
AcDbCircle
 10
-478.6985821754126
 20
402.1761525327347
 30
0.0
 40
47.99633193319334
100
AcDbArc
 50
118.2930275179449
 51
161.9190674553871
  0
ARC
  5
AFA
330
1F
100
AcDbEntity
  8
ceco.net 163
100
AcDbCircle
 10
-639.4970214170328
 20
416.1178443548385
 30
0.0
 40
167.5949763424222
100
AcDbArc
 50
345.1055317537763
 51
357.1911193585978
  0
ARC
  5
AFB
330
1F
100
AcDbEntity
  8
ceco.net 163
100
AcDbCircle
 10
-501.9692168544345
 20
428.9083213996409
 30
0.0
 40
60.97926023329884
100
AcDbArc
 50
291.9617012838026
 51
331.1255238175395
  0
ARC
  5
AFC
330
1F
100
AcDbEntity
  8
ceco.net 163
100
AcDbCircle
 10
-501.281770375961
 20
409.5136900937391
 30
0.0
 40
61.58531955316322
100
AcDbArc
 50
310.0296777967872
 51
355.3797297213876
  0
ARC
  5
AFD
330
1F
100
AcDbEntity
  8
ceco.net 163
100
AcDbCircle
 10
-409.1020660446234
 20
338.7580124974356
 30
0.0
 40
34.53410179694807
100
AcDbArc
 50
345.0300954828982
 51
10.84490611336655
  0
ARC
  5
AFE
330
1F
100
AcDbEntity
  8
ceco.net 163
100
AcDbCircle
 10
-696.3664457276195
 20
601.9345421463083
 30
0.0
 40
178.8297857468082
100
AcDbArc
 50
306.7204786155029
 51
318.4619870715439
  0
ARC
  5
AFF
330
1F
100
AcDbEntity
  8
ceco.net 163
100
AcDbCircle
 10
-665.7596795981462
 20
459.8223423943847
 30
0.0
 40
76.32757797749253
100
AcDbArc
 50
359.0759326001585
 51
33.66073805591625
  0
ARC
  5
B00
330
1F
100
AcDbEntity
  8
ceco.net 163
100
AcDbCircle
 10
-298.7918251237802
 20
271.704846189694
 30
0.0
 40
91.31369373357994
100
AcDbArc
 50
119.0875527122742
 51
147.5588101955033
  0
ARC
  5
B01
330
1F
100
AcDbEntity
  8
ceco.net 163
100
AcDbCircle
 10
-509.1086040311181
 20
511.4449448814045
 30
0.0
 40
36.32006701931455
100
AcDbArc
 50
11.28767682232549
 51
147.5856312175106
  0
LINE
  5
B02
330
1F
100
AcDbEntity
  8
ceco.net 163
100
AcDbLine
 10
-473.4910840597611
 20
518.5540615194597
 30
0.0
 11
-539.7697693614611
 21
530.9138998836001
 31
0.0
  0
ARC
  5
B03
330
1F
100
AcDbEntity
  8
ceco.net 163
100
AcDbCircle
 10
-288.9946535301685
 20
458.9414876934597
 30
0.0
 40
102.0595583201037
100
AcDbArc
 50
196.8579943792779
 51
210.1369459069724
  0
ARC
  5
B04
330
1F
100
AcDbEntity
  8
ceco.net 163
100
AcDbCircle
 10
-418.5740251620589
 20
351.4065828024172
 30
0.0
 40
84.21541735876523
100
AcDbArc
 50
67.73704478250826
 51
82.82028653593362
  0
ARC
  5
B05
330
1F
100
AcDbEntity
  8
ceco.net 163
100
AcDbCircle
 10
-376.5808586983782
 20
452.5011125785213
 30
0.0
 40
36.02571275177589
100
AcDbArc
 50
165.8622248798297
 51
209.1343441102014
  0
ARC
  5
B06
330
1F
100
AcDbEntity
  8
ceco.net 163
100
AcDbCircle
 10
-525.6382275794774
 20
323.7005135789909
 30
0.0
 40
199.9505439776941
100
AcDbArc
 50
78.73216692369017
 51
89.15217606425485
  0
ARC
  5
B07
330
1F
100
AcDbEntity
  8
ceco.net 163
100
AcDbCircle
 10
-467.607005327932
 20
530.823353468191
 30
0.0
 40
20.11926623364129
100
AcDbArc
 50
321.7524306588812
 51
37.21331415838966
  0
ARC
  5
B08
330
1F
100
AcDbEntity
  8
ceco.net 163
100
AcDbCircle
 10
-459.490051924163
 20
536.1503597273538
 30
0.0
 40
10.45459686862884
100
AcDbArc
 50
40.86924019890798
 51
140.7528516742516
  0
ARC
  5
B09
330
1F
100
AcDbEntity
  8
ceco.net 163
100
AcDbCircle
 10
-455.9117170484803
 20
534.3346498115622
 30
0.0
 40
14.40005490727572
100
AcDbArc
 50
144.1677948668453
 51
230.3067205515731
  0
ARC
  5
B0A
330
1F
100
AcDbEntity
  8
ceco.net 163
100
AcDbCircle
 10
-422.0686623029407
 20
487.8807630162505
 30
0.0
 40
37.62265260194751
100
AcDbArc
 50
353.0185708562335
 51
145.2519496155229
  0
LINE
  5
B0B
330
1F
100
AcDbEntity
  8
ceco.net 163
100
AcDbLine
 10
-384.7249590922381
 20
483.3078187441656
 30
0.0
 11
-452.981929299166
 21
509.3245013197942
 31
0.0
  0
LINE
  5
B0C
330
1F
100
AcDbEntity
  8
ceco.net 163
100
AcDbLine
 10
-386.5533959714641
 20
428.9674119318947
 30
0.0
 11
-384.7249590922381
 21
483.3078187441656
 31
0.0
  0
ARC
  5
B0D
330
1F
100
AcDbEntity
  8
ceco.net 163
100
AcDbCircle
 10
-796.3286932110561
 20
102.4180891681821
 30
0.0
 40
526.1918811064091
100
AcDbArc
 50
43.00304657600021
 51
48.84368580220954
  0
ARC
  5
B0E
330
1F
100
AcDbEntity
  8
ceco.net 163
100
AcDbCircle
 10
-667.8398857841173
 20
165.3214946230664
 30
0.0
 40
398.1357027648598
100
AcDbArc
 50
56.834080683062
 51
62.91577373113788
  0
ARC
  5
B0F
330
1F
100
AcDbEntity
  8
ceco.net 163
100
AcDbCircle
 10
-529.3190600170267
 20
706.6971559257824
 30
0.0
 40
117.4110353822499
100
AcDbArc
 50
242.8719873634985
 51
304.8239799246828
  0
LINE
  5
B10
330
1F
100
AcDbEntity
  8
ceco.net 163
100
AcDbLine
 10
-546.3812456417261
 20
518.8014375389941
 30
0.0
 11
-539.7697693614611
 21
530.9138998836001
 31
0.0
  0
ARC
  5
B11
330
1F
100
AcDbEntity
  8
ceco.net 163
100
AcDbCircle
 10
-456.0878991732888
 20
342.5841737057196
 30
0.0
 40
85.31882661195083
100
AcDbArc
 50
42.17217602784351
 51
56.33078167174127
  0
ARC
  5
B12
330
1F
100
AcDbEntity
  8
ceco.net 163
100
AcDbCircle
 10
-417.2845127090454
 20
400.6110399921819
 30
0.0
 40
24.44043912957595
100
AcDbArc
 50
311.4209338688136
 51
358.2481722803517
  0
ARC
  5
B13
330
1F
100
AcDbEntity
  8
ceco.net 163
100
AcDbCircle
 10
-580.667557250287
 20
423.1678639832734
 30
0.0
 40
57.61868901407044
100
AcDbArc
 50
53.24239973116941
 51
69.97420425172864
  0
ARC
  5
B14
330
1F
100
AcDbEntity
  8
ceco.net 163
100
AcDbCircle
 10
-528.3706824209294
 20
506.3112815383655
 30
0.0
 40
41.04865101228492
100
AcDbArc
 50
244.2768372290865
 51
274.1568384323248
  0
ARC
  5
B15
330
1F
100
AcDbEntity
  8
ceco.net 163
100
AcDbCircle
 10
-488.6909535245699
 20
369.6142066487827
 30
0.0
 40
102.5499433369087
100
AcDbArc
 50
95.63989334899506
 51
110.9722501768658
  0
LINE
  5
B16
330
1F
100
AcDbEntity
  8
ceco.net 163
100
AcDbLine
 10
-478.8520227460221
 20
415.9905469186616
 30
0.0
 11
-483.2649329835362
 21
427.2032021731961
 31
0.0
  0
LINE
  5
B17
330
1F
100
AcDbEntity
  8
ceco.net 163
100
AcDbLine
 10
-461.5831438295288
 20
417.0977520296258
 30
0.0
 11
-478.8520227460221
 21
415.9905469186616
 31
0.0
  0
LINE
  5
B18
330
1F
100
AcDbEntity
  8
ceco.net 163
100
AcDbLine
 10
-472.103401421354
 20
407.9049228315086
 30
0.0
 11
-461.5831438295288
 21
417.0977520296258
 31
0.0
  0
ARC
  5
B19
330
1F
100
AcDbEntity
  8
ceco.net 163
100
AcDbCircle
 10
-442.3246240287583
 20
398.754524647571
 30
0.0
 40
6.286217668348265
100
AcDbArc
 50
67.27866957451425
 51
173.5389017176546
  0
ARC
  5
B1A
330
1F
100
AcDbEntity
  8
ceco.net 163
100
AcDbCircle
 10
-335.5791143273052
 20
336.8169455326603
 30
0.0
 40
40.49465670680823
100
AcDbArc
 50
131.9324888148961
 51
167.9719582445084
  0
ARC
  5
B1B
330
1F
100
AcDbEntity
  8
ceco.net 163
100
AcDbCircle
 10
-358.7080967452086
 20
374.8265416776303
 30
0.0
 40
8.810266814776396
100
AcDbArc
 50
172.296956239472
 51
243.4954045977949
  0
ARC
  5
B1C
330
1F
100
AcDbEntity
  8
ceco.net 163
100
AcDbCircle
 10
-537.5318602722156
 20
340.674001396155
 30
0.0
 40
173.7241545154969
100
AcDbArc
 50
11.73516712881889
 51
22.69477891229177
  0
ARC
  5
B1D
330
1F
100
AcDbEntity
  8
ceco.net 163
100
AcDbCircle
 10
-530.0017039152633
 20
498.9816394371705
 30
0.0
 40
25.71213301081499
100
AcDbArc
 50
73.45476833639172
 51
129.5711183438724
  0
ARC
  5
B1E
330
1F
100
AcDbEntity
  8
ceco.net 163
100
AcDbCircle
 10
-260.9210634570313
 20
367.5415619944167
 30
0.0
 40
323.0589196457686
100
AcDbArc
 50
152.0817415529297
 51
158.9935441049906
  0
LINE
  5
B1F
330
1F
100
AcDbEntity
  8
ceco.net 163
100
AcDbLine
 10
-626.3559389442113
 20
783.2247241109135
 30
0.0
 11
-616.8757932544362
 21
782.4372653819128
 31
0.0
  0
ARC
  5
B20
330
1F
100
AcDbEntity
  8
ceco.net 163
100
AcDbCircle
 10
-456.3602505418323
 20
252.8577512183508
 30
0.0
 40
83.39475591407042
100
AcDbArc
 50
175.3712653948333
 51
226.9899187990567
  0
ARC
  5
B21
330
1F
100
AcDbEntity
  8
ceco.net 163
100
AcDbCircle
 10
-541.2423164159672
 20
453.1580738939974
 30
0.0
 40
55.10485703114447
100
AcDbArc
 50
181.1951958837592
 51
228.185141353539
  0
ARC
  5
B22
330
1F
100
AcDbEntity
  8
ceco.net 163
100
AcDbCircle
 10
-476.0340028931164
 20
388.6367523595536
 30
0.0
 40
126.7877065876996
100
AcDbArc
 50
179.7262995017202
 51
214.8074172777569
  0
ARC
  5
B23
330
1F
100
AcDbEntity
  8
ceco.net 163
100
AcDbCircle
 10
-336.3806507922113
 20
262.4757249581002
 30
0.0
 40
68.22215989949232
100
AcDbArc
 50
124.9391539316964
 51
148.4368185309313
  0
ARC
  5
B24
330
1F
100
AcDbEntity
  8
ceco.net 163
100
AcDbCircle
 10
-422.6886394071794
 20
328.8483443738343
 30
0.0
 40
41.64385770937244
100
AcDbArc
 50
279.7112564231609
 51
312.5825289632315
  0
ARC
  5
B25
330
1F
100
AcDbEntity
  8
ceco.net 163
100
AcDbCircle
 10
-401.590916060433
 20
222.2548849532363
 30
0.0
 40
67.04010465038469
100
AcDbArc
 50
102.1177099830294
 51
127.8922918549059
  0
ARC
  5
B26
330
1F
100
AcDbEntity
  8
ceco.net 163
100
AcDbCircle
 10
-342.9383677531895
 20
249.9212680202347
 30
0.0
 40
96.54668345631279
100
AcDbArc
 50
125.8960850585052
 51
143.2423997311771
  0
ARC
  5
B27
330
1F
100
AcDbEntity
  8
ceco.net 163
100
AcDbCircle
 10
-625.9122799525134
 20
360.3241370588236
 30
0.0
 40
55.57675839683338
100
AcDbArc
 50
337.8842568557841
 51
50.61844487502368
  0
ARC
  5
B28
330
1F
100
AcDbEntity
  8
ceco.net 163
100
AcDbCircle
 10
-561.4507922255627
 20
462.9057692798737
 30
0.0
 40
7.723826335919993
100
AcDbArc
 50
145.8743772928825
 51
226.6604423103724
  0
ARC
  5
B29
330
1F
100
AcDbEntity
  8
ceco.net 163
100
AcDbCircle
 10
-581.594083681495
 20
450.2580415286663
 30
0.0
 40
16.42305181943257
100
AcDbArc
 50
351.139624405214
 51
25.34506295149721
  0
ARC
  5
B2A
330
1F
100
AcDbEntity
  8
ceco.net 163
100
AcDbCircle
 10
-529.9901310723728
 20
451.0442949287798
 30
0.0
 40
35.53193942547652
100
AcDbArc
 50
185.354646037427
 51
242.7047401195062
  0
LINE
  5
B2B
330
1F
100
AcDbEntity
  8
ceco.net 163
100
AcDbLine
 10
-516.8790106599094
 20
401.7673733626322
 30
0.0
 11
-524.3248105513259
 21
417.0722984514261
 31
0.0
  0
LINE
  5
B2C
330
1F
100
AcDbEntity
  8
ceco.net 163
100
AcDbLine
 10
-505.1574455754434
 20
395.4478794509816
 30
0.0
 11
-516.8790106599094
 21
401.7673733626322
 31
0.0
  0
LINE
  5
B2D
330
1F
100
AcDbEntity
  8
ceco.net 163
100
AcDbLine
 10
-496.8357540263691
 20
381.3155910499586
 30
0.0
 11
-505.1574455754434
 21
395.4478794509816
 31
0.0
  0
ARC
  5
B2E
330
1F
100
AcDbEntity
  8
ceco.net 163
100
AcDbCircle
 10
-499.0145564670212
 20
317.3162532789713
 30
0.0
 40
58.50825183264163
100
AcDbArc
 50
50.33777932870298
 51
71.67738218457808
  0
ARC
  5
B2F
330
1F
100
AcDbEntity
  8
ceco.net 163
100
AcDbCircle
 10
-483.4130559343009
 20
176.0338365722782
 30
0.0
 40
196.8441807898738
100
AcDbArc
 50
89.18742383788117
 51
105.9169333007466
  0
ARC
  5
B30
330
1F
100
AcDbEntity
  8
ceco.net 163
100
AcDbCircle
 10
-522.2837288632677
 20
345.1551447436681
 30
0.0
 40
25.20827716954435
100
AcDbArc
 50
126.8346371271267
 51
191.2551314947118
  0
ARC
  5
B31
330
1F
100
AcDbEntity
  8
ceco.net 163
100
AcDbCircle
 10
-396.2351423796499
 20
390.2876330569388
 30
0.0
 40
158.8630672006634
100
AcDbArc
 50
198.3648903082213
 51
209.096815927662
  0
ARC
  5
B32
330
1F
100
AcDbEntity
  8
ceco.net 163
100
AcDbCircle
 10
-556.3535612171531
 20
306.3071892074883
 30
0.0
 40
22.34095517777272
100
AcDbArc
 50
328.5044529960586
 51
17.52520634347723
  0
ARC
  5
B33
330
1F
100
AcDbEntity
  8
ceco.net 163
100
AcDbCircle
 10
-504.8658645819544
 20
261.4395373498912
 30
0.0
 40
46.41334801834074
100
AcDbArc
 50
134.338307891886
 51
147.6410965138254
  0
ARC
  5
B34
330
1F
100
AcDbEntity
  8
ceco.net 163
100
AcDbCircle
 10
-523.7942122605843
 20
277.1443115386832
 30
0.0
 40
22.2409000779094
100
AcDbArc
 50
155.7447175559203
 51
213.3571987605629
  0
ARC
  5
B35
330
1F
100
AcDbEntity
  8
ceco.net 163
100
AcDbCircle
 10
-531.2487277634359
 20
267.4981613454367
 30
0.0
 40
11.41842198402736
100
AcDbArc
 50
193.0750799977813
 51
245.3371797740865
  0
ARC
  5
B36
330
1F
100
AcDbEntity
  8
ceco.net 163
100
AcDbCircle
 10
-569.6877437395312
 20
156.2249779516755
 30
0.0
 40
106.3674683063811
100
AcDbArc
 50
54.15178195996395
 51
71.54346269952312
  0
ARC
  5
B37
330
1F
100
AcDbEntity
  8
ceco.net 163
100
AcDbCircle
 10
-476.9918669455164
 20
260.8978389048761
 30
0.0
 40
35.56541476226658
100
AcDbArc
 50
211.2576562946791
 51
244.0827258911911
  0
ARC
  5
B38
330
1F
100
AcDbEntity
  8
ceco.net 163
100
AcDbCircle
 10
-482.482874824356
 20
258.6128606618581
 30
0.0
 40
31.35878200862921
100
AcDbArc
 50
251.300692639268
 51
311.4741331829924
  0
ARC
  5
B39
330
1F
100
AcDbEntity
  8
ceco.net 163
100
AcDbCircle
 10
-420.0143357006465
 20
209.3343186770011
 30
0.0
 40
49.02713131770195
100
AcDbArc
 50
119.6677346212066
 51
148.2718969405008
  0
ARC
  5
B3A
330
1F
100
AcDbEntity
  8
ceco.net 163
100
AcDbCircle
 10
-424.5396998115529
 20
163.8792054942409
 30
0.0
 40
90.24114794423002
100
AcDbArc
 50
89.89856184002025
 51
102.6364814395985
  0
ARC
  5
B3B
330
1F
100
AcDbEntity
  8
ceco.net 163
100
AcDbCircle
 10
-345.4105321298329
 20
324.8799351473114
 30
0.0
 40
30.73195875557688
100
AcDbArc
 50
170.7167854705918
 51
197.3980708313611
  0
ARC
  5
B3C
330
1F
100
AcDbEntity
  8
ceco.net 163
100
AcDbCircle
 10
-534.9595427835959
 20
320.3029686366026
 30
0.0
 40
55.88164941996465
100
AcDbArc
 50
245.2185549298566
 51
262.3784086825017
  0
ARC
  5
B3D
330
1F
100
AcDbEntity
  8
ceco.net 163
100
AcDbCircle
 10
-546.106976206365
 20
291.6069993376554
 30
0.0
 40
25.22785920229568
100
AcDbArc
 50
206.6773037126901
 51
240.8828149770108
  0
ARC
  5
B3E
330
1F
100
AcDbEntity
  8
ceco.net 163
100
AcDbCircle
 10
-538.9821268842317
 20
301.3230544352104
 30
0.0
 40
36.37207681557574
100
AcDbArc
 50
194.251350865564
 51
215.3474974537079
  0
ARC
  5
B3F
330
1F
100
AcDbEntity
  8
ceco.net 163
100
AcDbCircle
 10
-620.0075761512295
 20
247.3943254594185
 30
0.0
 40
64.17066062107146
100
AcDbArc
 50
44.49622062068623
 51
61.98857884166052
  0
ARC
  5
B40
330
1F
100
AcDbEntity
  8
ceco.net 163
100
AcDbCircle
 10
-573.7147201595123
 20
327.481152791061
 30
0.0
 40
28.46263465503054
100
AcDbArc
 50
204.7994241602184
 51
235.4172810776846
  0
ARC
  5
B41
330
1F
100
AcDbEntity
  8
ceco.net 163
100
AcDbCircle
 10
-524.240859002231
 20
349.2978419437477
 30
0.0
 40
82.53038642070306
100
AcDbArc
 50
190.2877523101908
 51
204.1421937327038
  0
ARC
  5
B42
330
1F
100
AcDbEntity
  8
ceco.net 163
100
AcDbCircle
 10
-803.0719702790559
 20
346.6115049795687
 30
0.0
 40
197.9947473540794
100
AcDbArc
 50
356.5099642907186
 51
4.875883401779664
  0
ARC
  5
B43
330
1F
100
AcDbEntity
  8
ceco.net 163
100
AcDbCircle
 10
-528.3933517997516
 20
371.6938507605029
 30
0.0
 40
77.83916615251541
100
AcDbArc
 50
173.8911165293647
 51
186.0865069947485
  0
ARC
  5
B44
330
1F
100
AcDbEntity
  8
ceco.net 163
100
AcDbCircle
 10
-645.0042962025342
 20
397.6573658294532
 30
0.0
 40
43.01516151988933
100
AcDbArc
 50
335.7311963192327
 51
356.9324155166798
  0
ARC
  5
B45
330
1F
100
AcDbEntity
  8
ceco.net 163
100
AcDbCircle
 10
-413.5217711681191
 20
412.4825498583017
 30
0.0
 40
189.3053644269736
100
AcDbArc
 50
170.6105643949662
 51
185.1908396018355
  0
ARC
  5
B46
330
1F
100
AcDbEntity
  8
ceco.net 163
100
AcDbCircle
 10
-575.7615526432561
 20
437.3652674791704
 30
0.0
 40
25.25278996675353
100
AcDbArc
 50
122.8022457989965
 51
166.2521147139794
  0
ARC
  5
B47
330
1F
100
AcDbEntity
  8
ceco.net 163
100
AcDbCircle
 10
-467.9359548967286
 20
518.4716089295692
 30
0.0
 40
5.555741034995945
100
AcDbArc
 50
59.410260923727
 51
179.1496437931813
  0
ARC
  5
B48
330
1F
100
AcDbEntity
  8
ceco.net 163
100
AcDbCircle
 10
-484.8880567016012
 20
518.0697358214778
 30
0.0
 40
33.08292750520951
100
AcDbArc
 50
344.6720930077742
 51
0.5170988854048895
  0
ARC
  5
B49
330
1F
100
AcDbEntity
  8
ceco.net 163
100
AcDbCircle
 10
-155.7505148211534
 20
786.436454716191
 30
0.0
 40
6.917632297009449
100
AcDbArc
 50
182.7856180548145
 51
271.470010166699
  0
ENDSEC
  0
SECTION
  2
OBJECTS
  0
DICTIONARY
  5
C
330
0
100
AcDbDictionary
281
     1
  3
ACAD_GROUP
350
D
  3
ACAD_LAYOUT
350
1A
  3
ACAD_MLINESTYLE
350
17
  3
ACAD_PLOTSETTINGS
350
19
  3
ACAD_PLOTSTYLENAME
350
E
  3
AcDbVariableDictionary
350
115
  3
DWGPROPS
350
8E3
  0
DICTIONARY
  5
8FC
330
2
100
AcDbDictionary
280
     1
281
     1
  3
ACAD_LAYERFILTERS
360
B4A
  3
ACAD_LAYERSTATES
360
8FD
  0
DICTIONARY
  5
8F6
330
8F5
100
AcDbDictionary
280
     1
281
     1
  3
ACAD_XREC_ROUNDTRIP
360
8F7
  0
DICTIONARY
  5
D
102
{ACAD_REACTORS
330
C
102
}
330
C
100
AcDbDictionary
281
     1
  0
DICTIONARY
  5
1A
102
{ACAD_REACTORS
330
C
102
}
330
C
100
AcDbDictionary
281
     1
  3
Layout1
350
1E
  3
Layout2
350
26
  3
Model
350
22
  0
DICTIONARY
  5
17
102
{ACAD_REACTORS
330
C
102
}
330
C
100
AcDbDictionary
281
     1
  3
Standard
350
18
  0
DICTIONARY
  5
19
102
{ACAD_REACTORS
330
C
102
}
330
C
100
AcDbDictionary
281
     1
  0
ACDBDICTIONARYWDFLT
  5
E
102
{ACAD_REACTORS
330
C
102
}
330
C
100
AcDbDictionary
281
     1
  3
Normal
350
F
100
AcDbDictionaryWithDefault
340
F
  0
DICTIONARY
  5
115
102
{ACAD_REACTORS
330
C
102
}
330
C
100
AcDbDictionary
281
     1
  3
DIMASSOC
350
117
  3
HIDETEXT
350
116
  0
XRECORD
  5
8E3
102
{ACAD_REACTORS
330
C
102
}
330
C
100
AcDbXrecord
280
     1
  1
DWGPROPS COOKIE
  2
Ceco.NET-Trees-and-Plants - T - xx . 67 . dwg
  3

  4
ceco.net
  6

  7

  8
peacosta
  9

300
=
301
=
302
=
303
=
304
=
305
=
306
=
307
=
308
=
309
=
 40
0.0450312037037037
 41
2455079.811409143
 42
2455838.656599502
  1

 90
        0
  0
DICTIONARY
  5
B4A
102
{ACAD_REACTORS
330
8FC
102
}
330
8FC
100
AcDbDictionary
280
     1
281
     1
  0
DICTIONARY
  5
8FD
102
{ACAD_REACTORS
330
8FC
102
}
330
8FC
100
AcDbDictionary
281
     1
  0
XRECORD
  5
8F7
102
{ACAD_REACTORS
330
8F6
102
}
330
8F6
100
AcDbXrecord
280
     1
102
MATERIAL
340
0
  0
LAYOUT
  5
1E
102
{ACAD_REACTORS
330
1A
102
}
330
1A
100
AcDbPlotSettings
  1

  2
Microsoft Office Document Image Writer
  4

  6

 40
0.0
 41
0.0
 42
0.0
 43
0.0
 44
0.0
 45
0.0
 46
0.0
 47
0.0
 48
0.0
 49
0.0
140
0.0
141
0.0
142
1.0
143
1.0
 70
   688
 72
     0
 73
     0
 74
     5
  7

 75
    16
147
1.0
148
0.0
149
0.0
100
AcDbLayout
  1
Layout1
 70
     1
 71
     1
 10
0.0
 20
0.0
 11
420.0
 21
297.0
 12
0.0
 22
0.0
 32
0.0
 14
1.000000000000000E+20
 24
1.000000000000000E+20
 34
1.000000000000000E+20
 15
-1.000000000000000E+20
 25
-1.000000000000000E+20
 35
-1.000000000000000E+20
146
0.0
 13
0.0
 23
0.0
 33
0.0
 16
1.0
 26
0.0
 36
0.0
 17
0.0
 27
1.0
 37
0.0
 76
     0
330
1B
  0
LAYOUT
  5
26
102
{ACAD_REACTORS
330
1A
102
}
330
1A
100
AcDbPlotSettings
  1

  2
Microsoft Office Document Image Writer
  4

  6

 40
0.0
 41
0.0
 42
0.0
 43
0.0
 44
0.0
 45
0.0
 46
0.0
 47
0.0
 48
0.0
 49
0.0
140
0.0
141
0.0
142
1.0
143
1.0
 70
   688
 72
     0
 73
     0
 74
     5
  7

 75
    16
147
1.0
148
0.0
149
0.0
100
AcDbLayout
  1
Layout2
 70
     1
 71
     2
 10
0.0
 20
0.0
 11
12.0
 21
9.0
 12
0.0
 22
0.0
 32
0.0
 14
0.0
 24
0.0
 34
0.0
 15
0.0
 25
0.0
 35
0.0
146
0.0
 13
0.0
 23
0.0
 33
0.0
 16
1.0
 26
0.0
 36
0.0
 17
0.0
 27
1.0
 37
0.0
 76
     0
330
23
  0
LAYOUT
  5
22
102
{ACAD_REACTORS
330
1A
102
}
330
1A
100
AcDbPlotSettings
  1

  2
Microsoft Office Document Image Writer
  4

  6

 40
0.0
 41
0.0
 42
0.0
 43
0.0
 44
0.0
 45
0.0
 46
0.0
 47
0.0
 48
0.0
 49
0.0
140
0.0
141
0.0
142
1.0
143
1.0
 70
  1712
 72
     0
 73
     0
 74
     0
  7

 75
     0
147
1.0
148
0.0
149
0.0
100
AcDbLayout
  1
Model
 70
     1
 71
     0
 10
0.0
 20
0.0
 11
12.0
 21
9.0
 12
0.0
 22
0.0
 32
0.0
 14
0.0
 24
0.0
 34
0.0
 15
0.0
 25
0.0
 35
0.0
146
0.0
 13
0.0
 23
0.0
 33
0.0
 16
1.0
 26
0.0
 36
0.0
 17
0.0
 27
1.0
 37
0.0
 76
     0
330
1F
  0
MLINESTYLE
  5
18
102
{ACAD_REACTORS
330
17
102
}
330
17
100
AcDbMlineStyle
  2
STANDARD
 70
     0
  3

 62
   256
 51
90.0
 52
90.0
 71
     2
 49
0.5
 62
   256
  6
BYLAYER
 49
-0.5
 62
   256
  6
BYLAYER
  0
ACDBPLACEHOLDER
  5
F
102
{ACAD_REACTORS
330
E
102
}
330
E
  0
DICTIONARYVAR
  5
117
102
{ACAD_REACTORS
330
115
102
}
330
115
100
DictionaryVariables
280
     0
  1
2
  0
DICTIONARYVAR
  5
116
102
{ACAD_REACTORS
330
115
102
}
330
115
100
DictionaryVariables
280
     0
  1
1
  0
ENDSEC
  0
EOF
