  0
SECTION
  2
HEADER
  9
$ACADVER
  1
AC1015
  9
$ACADMAINTVER
 70
    13
  9
$DWGCODEPAGE
  3
ANSI_1252
  9
$INSBASE
 10
0.0
 20
0.0
 30
0.0
  9
$EXTMIN
 10
-621.9442746484934
 20
-27.15490656666793
 30
-0.0015258207003583
  9
$EXTMAX
 10
453.2098398837376
 20
833.1734632297575
 30
0.0000000349246037
  9
$LIMMIN
 10
0.0
 20
0.0
  9
$LIMMAX
 10
420.0
 20
297.0
  9
$ORTHOMODE
 70
     0
  9
$REGENMODE
 70
     1
  9
$FILLMODE
 70
     1
  9
$QTEXTMODE
 70
     0
  9
$MIRRTEXT
 70
     1
  9
$LTSCALE
 40
1.0
  9
$ATTMODE
 70
     1
  9
$TEXTSIZE
 40
2.5
  9
$TRACEWID
 40
1.0
  9
$TEXTSTYLE
  7
Standard
  9
$CLAYER
  8
ceco.net 156
  9
$CELTYPE
  6
ByLayer
  9
$CECOLOR
 62
   256
  9
$CELTSCALE
 40
1.0
  9
$DISPSILH
 70
     0
  9
$DIMSCALE
 40
1.0
  9
$DIMASZ
 40
2.5
  9
$DIMEXO
 40
0.625
  9
$DIMDLI
 40
3.75
  9
$DIMRND
 40
0.0
  9
$DIMDLE
 40
0.0
  9
$DIMEXE
 40
1.25
  9
$DIMTP
 40
0.0
  9
$DIMTM
 40
0.0
  9
$DIMTXT
 40
2.5
  9
$DIMCEN
 40
2.5
  9
$DIMTSZ
 40
0.0
  9
$DIMTOL
 70
     0
  9
$DIMLIM
 70
     0
  9
$DIMTIH
 70
     0
  9
$DIMTOH
 70
     0
  9
$DIMSE1
 70
     0
  9
$DIMSE2
 70
     0
  9
$DIMTAD
 70
     1
  9
$DIMZIN
 70
     8
  9
$DIMBLK
  1

  9
$DIMASO
 70
     1
  9
$DIMSHO
 70
     1
  9
$DIMPOST
  1

  9
$DIMAPOST
  1

  9
$DIMALT
 70
     0
  9
$DIMALTD
 70
     3
  9
$DIMALTF
 40
0.03937007874016
  9
$DIMLFAC
 40
1.0
  9
$DIMTOFL
 70
     1
  9
$DIMTVP
 40
0.0
  9
$DIMTIX
 70
     0
  9
$DIMSOXD
 70
     0
  9
$DIMSAH
 70
     0
  9
$DIMBLK1
  1

  9
$DIMBLK2
  1

  9
$DIMSTYLE
  2
ISO-25
  9
$DIMCLRD
 70
     0
  9
$DIMCLRE
 70
     0
  9
$DIMCLRT
 70
     0
  9
$DIMTFAC
 40
1.0
  9
$DIMGAP
 40
0.625
  9
$DIMJUST
 70
     0
  9
$DIMSD1
 70
     0
  9
$DIMSD2
 70
     0
  9
$DIMTOLJ
 70
     0
  9
$DIMTZIN
 70
     8
  9
$DIMALTZ
 70
     0
  9
$DIMALTTZ
 70
     0
  9
$DIMUPT
 70
     0
  9
$DIMDEC
 70
     2
  9
$DIMTDEC
 70
     2
  9
$DIMALTU
 70
     2
  9
$DIMALTTD
 70
     3
  9
$DIMTXSTY
  7
Standard
  9
$DIMAUNIT
 70
     0
  9
$DIMADEC
 70
     0
  9
$DIMALTRND
 40
0.0
  9
$DIMAZIN
 70
     0
  9
$DIMDSEP
 70
    44
  9
$DIMATFIT
 70
     3
  9
$DIMFRAC
 70
     0
  9
$DIMLDRBLK
  1

  9
$DIMLUNIT
 70
     2
  9
$DIMLWD
 70
    -2
  9
$DIMLWE
 70
    -2
  9
$DIMTMOVE
 70
     0
  9
$LUNITS
 70
     2
  9
$LUPREC
 70
     2
  9
$SKETCHINC
 40
1.0
  9
$FILLETRAD
 40
10.0
  9
$AUNITS
 70
     0
  9
$AUPREC
 70
     0
  9
$MENU
  1
.
  9
$ELEVATION
 40
0.0
  9
$PELEVATION
 40
0.0
  9
$THICKNESS
 40
0.0
  9
$LIMCHECK
 70
     0
  9
$CHAMFERA
 40
10.0
  9
$CHAMFERB
 40
10.0
  9
$CHAMFERC
 40
20.0
  9
$CHAMFERD
 40
0.0
  9
$SKPOLY
 70
     0
  9
$TDCREATE
 40
2455079.811409143
  9
$TDUCREATE
 40
2455079.936409144
  9
$TDUPDATE
 40
2456758.621644317
  9
$TDUUPDATE
 40
2456758.746644317
  9
$TDINDWG
 40
0.0474306250
  9
$TDUSRTIMER
 40
0.0474306250
  9
$USRTIMER
 70
     1
  9
$ANGBASE
 50
0.0
  9
$ANGDIR
 70
     0
  9
$PDMODE
 70
     0
  9
$PDSIZE
 40
0.0
  9
$PLINEWID
 40
0.0
  9
$SPLFRAME
 70
     0
  9
$SPLINETYPE
 70
     6
  9
$SPLINESEGS
 70
     8
  9
$HANDSEED
  5
A72
  9
$SURFTAB1
 70
     6
  9
$SURFTAB2
 70
     6
  9
$SURFTYPE
 70
     6
  9
$SURFU
 70
     6
  9
$SURFV
 70
     6
  9
$UCSBASE
  2

  9
$UCSNAME
  2

  9
$UCSORG
 10
0.0
 20
0.0
 30
0.0
  9
$UCSXDIR
 10
1.0
 20
0.0
 30
0.0
  9
$UCSYDIR
 10
0.0
 20
1.0
 30
0.0
  9
$UCSORTHOREF
  2

  9
$UCSORTHOVIEW
 70
     0
  9
$UCSORGTOP
 10
0.0
 20
0.0
 30
0.0
  9
$UCSORGBOTTOM
 10
0.0
 20
0.0
 30
0.0
  9
$UCSORGLEFT
 10
0.0
 20
0.0
 30
0.0
  9
$UCSORGRIGHT
 10
0.0
 20
0.0
 30
0.0
  9
$UCSORGFRONT
 10
0.0
 20
0.0
 30
0.0
  9
$UCSORGBACK
 10
0.0
 20
0.0
 30
0.0
  9
$PUCSBASE
  2

  9
$PUCSNAME
  2

  9
$PUCSORG
 10
0.0
 20
0.0
 30
0.0
  9
$PUCSXDIR
 10
1.0
 20
0.0
 30
0.0
  9
$PUCSYDIR
 10
0.0
 20
1.0
 30
0.0
  9
$PUCSORTHOREF
  2

  9
$PUCSORTHOVIEW
 70
     0
  9
$PUCSORGTOP
 10
0.0
 20
0.0
 30
0.0
  9
$PUCSORGBOTTOM
 10
0.0
 20
0.0
 30
0.0
  9
$PUCSORGLEFT
 10
0.0
 20
0.0
 30
0.0
  9
$PUCSORGRIGHT
 10
0.0
 20
0.0
 30
0.0
  9
$PUCSORGFRONT
 10
0.0
 20
0.0
 30
0.0
  9
$PUCSORGBACK
 10
0.0
 20
0.0
 30
0.0
  9
$USERI1
 70
     0
  9
$USERI2
 70
     0
  9
$USERI3
 70
     0
  9
$USERI4
 70
     0
  9
$USERI5
 70
     0
  9
$USERR1
 40
0.0
  9
$USERR2
 40
0.0
  9
$USERR3
 40
0.0
  9
$USERR4
 40
0.0
  9
$USERR5
 40
0.0
  9
$WORLDVIEW
 70
     1
  9
$SHADEDGE
 70
     3
  9
$SHADEDIF
 70
    70
  9
$TILEMODE
 70
     1
  9
$MAXACTVP
 70
    64
  9
$PINSBASE
 10
0.0
 20
0.0
 30
0.0
  9
$PLIMCHECK
 70
     0
  9
$PEXTMIN
 10
1.000000000000000E+20
 20
1.000000000000000E+20
 30
1.000000000000000E+20
  9
$PEXTMAX
 10
-1.000000000000000E+20
 20
-1.000000000000000E+20
 30
-1.000000000000000E+20
  9
$PLIMMIN
 10
0.0
 20
0.0
  9
$PLIMMAX
 10
420.0
 20
297.0
  9
$UNITMODE
 70
     0
  9
$VISRETAIN
 70
     1
  9
$PLINEGEN
 70
     0
  9
$PSLTSCALE
 70
     1
  9
$TREEDEPTH
 70
  3020
  9
$CMLSTYLE
  2
Standard
  9
$CMLJUST
 70
     0
  9
$CMLSCALE
 40
20.0
  9
$PROXYGRAPHICS
 70
     1
  9
$MEASUREMENT
 70
     1
  9
$CELWEIGHT
370
    -1
  9
$ENDCAPS
280
     0
  9
$JOINSTYLE
280
     0
  9
$LWDISPLAY
290
     0
  9
$INSUNITS
 70
     4
  9
$HYPERLINKBASE
  1

  9
$STYLESHEET
  1

  9
$XEDIT
290
     1
  9
$CEPSNTYPE
380
     0
  9
$PSTYLEMODE
290
     1
  9
$FINGERPRINTGUID
  2
{81085373-3A21-4932-80AA-8F6C3258C50C}
  9
$VERSIONGUID
  2
{6C0C9016-0DA0-4346-9C15-C00C5E1877D7}
  9
$EXTNAMES
290
     1
  9
$PSVPSCALE
 40
0.0
  9
$OLESTARTUP
290
     0
  0
ENDSEC
  0
SECTION
  2
CLASSES
  0
CLASS
  1
ACDBDICTIONARYWDFLT
  2
AcDbDictionaryWithDefault
  3
AutoCAD 2000
 90
        0
280
     0
281
     0
  0
CLASS
  1
ACDBPLACEHOLDER
  2
AcDbPlaceHolder
  3
AutoCAD 2000
 90
        0
280
     0
281
     0
  0
CLASS
  1
LAYOUT
  2
AcDbLayout
  3
AutoCAD 2000
 90
        0
280
     0
281
     0
  0
CLASS
  1
DICTIONARYVAR
  2
AcDbDictionaryVar
  3
AutoCAD 2000
 90
        0
280
     0
281
     0
  0
CLASS
  1
PLOTSETTINGS
  2
AcDbPlotSettings
  3
AutoCAD 2000
 90
        0
280
     0
281
     0
  0
ENDSEC
  0
SECTION
  2
TABLES
  0
TABLE
  2
VPORT
  5
8
330
0
100
AcDbSymbolTable
 70
     3
  0
VPORT
  5
A71
330
8
100
AcDbSymbolTableRecord
100
AcDbViewportTableRecord
  2
*Active
 70
     0
 10
0.0
 20
0.0
 11
1.0
 21
1.0
 12
-84.36721738237777
 22
403.0092783315447
 13
0.0
 23
0.0
 14
10.0
 24
10.0
 15
10.0
 25
10.0
 16
0.0
 26
0.0
 36
1.0
 17
0.0
 27
0.0
 37
0.0
 40
866.4372102920212
 41
2.184834123222748
 42
50.0
 43
0.0
 44
0.0
 50
0.0
 51
0.0
 71
     0
 72
   100
 73
     1
 74
     3
 75
     0
 76
     0
 77
     0
 78
     0
281
     0
 65
     1
110
0.0
120
0.0
130
0.0
111
1.0
121
0.0
131
0.0
112
0.0
122
1.0
132
0.0
 79
     0
146
0.0
  0
ENDTAB
  0
TABLE
  2
LTYPE
  5
5
330
0
100
AcDbSymbolTable
 70
     1
  0
LTYPE
  5
14
330
5
100
AcDbSymbolTableRecord
100
AcDbLinetypeTableRecord
  2
ByBlock
 70
     0
  3

 72
    65
 73
     0
 40
0.0
  0
LTYPE
  5
15
330
5
100
AcDbSymbolTableRecord
100
AcDbLinetypeTableRecord
  2
ByLayer
 70
     0
  3

 72
    65
 73
     0
 40
0.0
  0
LTYPE
  5
16
330
5
100
AcDbSymbolTableRecord
100
AcDbLinetypeTableRecord
  2
Continuous
 70
     0
  3
Solid line
 72
    65
 73
     0
 40
0.0
  0
ENDTAB
  0
TABLE
  2
LAYER
  5
2
102
{ACAD_XDICTIONARY
360
907
102
}
330
0
100
AcDbSymbolTable
 70
     2
  0
LAYER
  5
10
330
2
100
AcDbSymbolTableRecord
100
AcDbLayerTableRecord
  2
0
 70
     0
 62
     7
  6
Continuous
370
    -3
390
F
  0
LAYER
  5
8F9
102
{ACAD_XDICTIONARY
360
8FA
102
}
330
2
100
AcDbSymbolTableRecord
100
AcDbLayerTableRecord
  2
ceco.net 156
 70
     0
 62
   116
  6
Continuous
370
     0
390
F
1001
AcAecLayerStandard
1000

1000

  0
ENDTAB
  0
TABLE
  2
STYLE
  5
3
330
0
100
AcDbSymbolTable
 70
     1
  0
STYLE
  5
11
330
3
100
AcDbSymbolTableRecord
100
AcDbTextStyleTableRecord
  2
Standard
 70
     0
 40
0.0
 41
1.0
 50
0.0
 71
     0
 42
2.5
  3
txt
  4

  0
ENDTAB
  0
TABLE
  2
VIEW
  5
6
330
0
100
AcDbSymbolTable
 70
     0
  0
ENDTAB
  0
TABLE
  2
UCS
  5
7
330
0
100
AcDbSymbolTable
 70
     0
  0
ENDTAB
  0
TABLE
  2
APPID
  5
9
330
0
100
AcDbSymbolTable
 70
    11
  0
APPID
  5
12
330
9
100
AcDbSymbolTableRecord
100
AcDbRegAppTableRecord
  2
ACAD
 70
     0
  0
APPID
  5
2C
330
9
100
AcDbSymbolTableRecord
100
AcDbRegAppTableRecord
  2
ACAD_DSTYLE_DIMJOGGED_JOGANGLE_SYMBOL
 70
     0
  0
APPID
  5
11B
330
9
100
AcDbSymbolTableRecord
100
AcDbRegAppTableRecord
  2
ACAD_NAV_VCDISPLAY
 70
     0
  0
APPID
  5
11C
330
9
100
AcDbSymbolTableRecord
100
AcDbRegAppTableRecord
  2
ACAD_MLEADERVER
 70
     0
  0
APPID
  5
8FD
330
9
100
AcDbSymbolTableRecord
100
AcDbRegAppTableRecord
  2
AcAecLayerStandard
 70
     0
  0
APPID
  5
8FE
330
9
100
AcDbSymbolTableRecord
100
AcDbRegAppTableRecord
  2
AcDbDynamicBlockGUID
 70
     0
  0
APPID
  5
8FF
330
9
100
AcDbSymbolTableRecord
100
AcDbRegAppTableRecord
  2
AcDbBlockRepETag
 70
     0
  0
APPID
  5
900
330
9
100
AcDbSymbolTableRecord
100
AcDbRegAppTableRecord
  2
AcDbDynamicBlockTrueName
 70
     0
  0
APPID
  5
901
330
9
100
AcDbSymbolTableRecord
100
AcDbRegAppTableRecord
  2
ACAD_PSEXT
 70
     0
  0
APPID
  5
902
330
9
100
AcDbSymbolTableRecord
100
AcDbRegAppTableRecord
  2
DCO15
 70
     0
  0
APPID
  5
903
330
9
100
AcDbSymbolTableRecord
100
AcDbRegAppTableRecord
  2
AcDbBlockRepBTag
 70
     0
  0
ENDTAB
  0
TABLE
  2
DIMSTYLE
  5
A
330
0
100
AcDbSymbolTable
 70
     3
100
AcDbDimStyleTable
 71
     0
  0
DIMSTYLE
105
27
330
A
100
AcDbSymbolTableRecord
100
AcDbDimStyleTableRecord
  2
ISO-25
 70
     0
 41
2.5
 42
0.625
 43
3.75
 44
1.25
 73
     0
 74
     0
 77
     1
 78
     8
140
2.5
141
2.5
143
0.03937007874016
147
0.625
171
     3
172
     1
271
     2
272
     2
274
     3
278
    44
283
     0
284
     8
340
11
  0
DIMSTYLE
105
2B
330
A
100
AcDbSymbolTableRecord
100
AcDbDimStyleTableRecord
  2
Standard
 70
     0
340
11
  0
ENDTAB
  0
TABLE
  2
BLOCK_RECORD
  5
1
330
0
100
AcDbSymbolTable
 70
     3
  0
BLOCK_RECORD
  5
1F
330
1
100
AcDbSymbolTableRecord
100
AcDbBlockTableRecord
  2
*Model_Space
340
22
  0
BLOCK_RECORD
  5
1B
330
1
100
AcDbSymbolTableRecord
100
AcDbBlockTableRecord
  2
*Paper_Space
340
1E
  0
BLOCK_RECORD
  5
23
330
1
100
AcDbSymbolTableRecord
100
AcDbBlockTableRecord
  2
*Paper_Space0
340
26
  0
ENDTAB
  0
ENDSEC
  0
SECTION
  2
BLOCKS
  0
BLOCK
  5
20
330
1F
100
AcDbEntity
  8
0
100
AcDbBlockBegin
  2
*Model_Space
 70
     0
 10
0.0
 20
0.0
 30
0.0
  3
*Model_Space
  1

  0
ENDBLK
  5
21
330
1F
100
AcDbEntity
  8
0
100
AcDbBlockEnd
  0
BLOCK
  5
1C
330
1B
100
AcDbEntity
 67
     1
  8
0
100
AcDbBlockBegin
  2
*Paper_Space
 70
     0
 10
0.0
 20
0.0
 30
0.0
  3
*Paper_Space
  1

  0
ENDBLK
  5
1D
330
1B
100
AcDbEntity
 67
     1
  8
0
100
AcDbBlockEnd
  0
BLOCK
  5
24
330
23
100
AcDbEntity
  8
0
100
AcDbBlockBegin
  2
*Paper_Space0
 70
     0
 10
0.0
 20
0.0
 30
0.0
  3
*Paper_Space0
  1

  0
ENDBLK
  5
25
330
23
100
AcDbEntity
  8
0
100
AcDbBlockEnd
  0
ENDSEC
  0
SECTION
  2
ENTITIES
  0
ARC
  5
9BE
330
1F
100
AcDbEntity
  8
ceco.net 156
100
AcDbCircle
 10
167.4587253925839
 20
559.8313558162827
 30
0.0
 40
115.6920359334056
100
AcDbArc
 50
41.73670094410419
 51
152.4752750689653
1001
AcDbBlockRepETag
1070
     1
1071
        0
1005
9BE
  0
ARC
  5
9BF
330
1F
100
AcDbEntity
  8
ceco.net 156
100
AcDbCircle
 10
-204.6102032663782
 20
833.8980572284835
 30
0.0
 40
293.1247191045897
100
AcDbArc
 50
318.1549713827664
 51
356.0570046251072
1001
AcDbBlockRepETag
1070
     1
1071
        1
1005
9BF
  0
ARC
  5
9C0
330
1F
100
AcDbEntity
  8
ceco.net 156
100
AcDbCircle
 10
111.354114889864
 20
700.4684158624786
 30
0.0
 40
115.6920359334056
100
AcDbArc
 50
101.7367009464664
 51
212.4752750715069
1001
AcDbBlockRepETag
1070
     1
1071
        2
1005
9C0
  0
ARC
  5
9C1
330
1F
100
AcDbEntity
  8
ceco.net 156
 62
    95
100
AcDbCircle
 10
81.10257518268026
 20
650.2757910551208
 30
0.0
 40
126.9228443716552
100
AcDbArc
 50
325.5452727586753
 51
352.3721081194703
1001
AcDbBlockRepETag
1070
     1
1071
        3
1005
9C1
  0
ARC
  5
9C2
330
1F
100
AcDbEntity
  8
ceco.net 156
 62
    95
100
AcDbCircle
 10
218.8393280503789
 20
597.2896341742653
 30
0.0
 40
38.05901157715984
100
AcDbArc
 50
108.2790728435026
 51
209.6383080394766
1001
AcDbBlockRepETag
1070
     1
1071
        4
1005
9C2
  0
ARC
  5
9C3
330
1F
100
AcDbEntity
  8
ceco.net 156
 62
    95
100
AcDbCircle
 10
271.7695923445264
 20
576.9278119267601
 30
0.0
 40
86.02360477206433
100
AcDbArc
 50
138.9436558207643
 51
186.0592730220907
1001
AcDbBlockRepETag
1070
     1
1071
        5
1005
9C3
  0
ARC
  5
9C4
330
1F
100
AcDbEntity
  8
ceco.net 156
100
AcDbCircle
 10
125.0300254223386
 20
900.1793026389259
 30
0.0
 40
293.1247191045897
100
AcDbArc
 50
258.1549713933719
 51
272.7571264603554
1001
AcDbBlockRepETag
1070
     1
1071
        6
1005
9C4
  0
ARC
  5
9C5
330
1F
100
AcDbEntity
  8
ceco.net 156
 62
    63
100
AcDbCircle
 10
190.4720651505032
 20
375.2265256108421
 30
0.0
 40
269.1749771008894
100
AcDbArc
 50
76.39494923457097
 51
128.1083558350084
1001
AcDbBlockRepETag
1070
     1
1071
        7
1005
9C5
  0
ARC
  5
9C6
330
1F
100
AcDbEntity
  8
ceco.net 156
 62
    63
100
AcDbCircle
 10
282.733257412676
 20
628.0961376489776
 30
0.0
 40
269.1749771008894
100
AcDbArc
 50
136.3949492298638
 51
181.550538284159
1001
AcDbBlockRepETag
1070
     1
1071
        8
1005
9C6
  0
ARC
  5
9C7
330
1F
100
AcDbEntity
  8
ceco.net 156
100
AcDbCircle
 10
-312.0290752055605
 20
515.280622488417
 30
0.0
 40
293.1247191045897
100
AcDbArc
 50
18.15497139013114
 51
56.05700462551893
1001
AcDbBlockRepETag
1070
     1
1071
        9
1005
9C7
  0
ARC
  5
9C8
330
1F
100
AcDbEntity
  8
ceco.net 156
100
AcDbCircle
 10
-38.49345713877283
 20
722.1989278854508
 30
0.0
 40
115.6920359334056
100
AcDbArc
 50
161.7367009459633
 51
272.4752750773019
1001
AcDbBlockRepETag
1070
     1
1071
       10
1005
9C8
  0
ARC
  5
9C9
330
1F
100
AcDbEntity
  8
ceco.net 156
 62
    63
100
AcDbCircle
 10
109.8723456261197
 20
834.431479936995
 30
0.0
 40
269.1749771008894
100
AcDbArc
 50
196.3949492361894
 51
240.6143529077224
1001
AcDbBlockRepETag
1070
     1
1071
       11
1005
9C9
  0
ARC
  5
9CA
330
1F
100
AcDbEntity
  8
ceco.net 156
 62
    63
100
AcDbCircle
 10
-213.5275630953272
 20
599.4721455635207
 30
0.0
 40
269.1749771008894
100
AcDbArc
 50
279.7805222637416
 51
309.9551594292307
1001
AcDbBlockRepETag
1070
     1
1071
       12
1005
9CA
  0
ARC
  5
9CB
330
1F
100
AcDbEntity
  8
ceco.net 156
 62
    63
100
AcDbCircle
 10
51.5945408341924
 20
646.0064152540344
 30
0.0
 40
269.1749771008894
100
AcDbArc
 50
196.3949492361894
 51
249.9551594227561
1001
AcDbBlockRepETag
1070
     1
1071
       13
1005
9CB
  0
ARC
  5
9CC
330
1F
100
AcDbEntity
  8
ceco.net 156
 62
    63
100
AcDbCircle
 10
-28.82190454029643
 20
18.13374120608753
 30
0.0
 40
269.1749771008894
100
AcDbArc
 50
76.39494923457097
 51
129.9551594292307
1001
AcDbBlockRepETag
1070
     1
1071
       14
1005
9CC
  0
ARC
  5
9CD
330
1F
100
AcDbEntity
  8
ceco.net 156
 62
    63
100
AcDbCircle
 10
-293.94400864863
 20
-28.40052848442607
 30
0.0
 40
269.1749771008894
100
AcDbArc
 50
16.3949492361894
 51
69.95515942275614
1001
AcDbBlockRepETag
1070
     1
1071
       15
1005
9CD
  0
ARC
  5
9CE
330
1F
100
AcDbEntity
  8
ceco.net 156
100
AcDbCircle
 10
239.832510053877
 20
329.2256784500259
 30
0.0
 40
293.1247191045897
100
AcDbArc
 50
138.1549713827664
 51
176.0570046251072
1001
AcDbBlockRepETag
1070
     1
1071
       16
1005
9CE
  0
ARC
  5
9CF
330
1F
100
AcDbEntity
  8
ceco.net 156
100
AcDbCircle
 10
-51.83524435782039
 20
202.7385715307373
 30
0.0
 40
115.6920359334056
100
AcDbArc
 50
41.73670094410419
 51
152.4752750689653
1001
AcDbBlockRepETag
1070
     1
1071
       17
1005
9CF
  0
ARC
  5
9D0
330
1F
100
AcDbEntity
  8
ceco.net 156
100
AcDbCircle
 10
-94.26394438767038
 20
543.0865182937759
 30
0.0
 40
293.1247191045897
100
AcDbArc
 50
258.1549713933719
 51
279.1919968589539
1001
AcDbBlockRepETag
1070
     1
1071
       18
1005
9D0
  0
ARC
  5
9D1
330
1F
100
AcDbEntity
  8
ceco.net 156
100
AcDbCircle
 10
-145.5782058837374
 20
83.83202356711811
 30
0.0
 40
115.6920359334056
100
AcDbArc
 50
341.7367009459633
 51
92.47527507730195
1001
AcDbBlockRepETag
1070
     1
1071
       19
1005
9D1
  0
ARC
  5
9D2
330
1F
100
AcDbEntity
  8
ceco.net 156
100
AcDbCircle
 10
127.9574121830502
 20
290.7503289045471
 30
0.0
 40
293.1247191045897
100
AcDbArc
 50
198.1549713901311
 51
236.0570046255189
1001
AcDbBlockRepETag
1070
     1
1071
       20
1005
9D2
  0
ARC
  5
9D3
330
1F
100
AcDbEntity
  8
ceco.net 156
 62
    63
100
AcDbCircle
 10
224.4554526803532
 20
439.6710729660171
 30
0.0
 40
269.1749771008894
100
AcDbArc
 50
136.3949492298638
 51
189.9551594226444
1001
AcDbBlockRepETag
1070
     1
1071
       21
1005
9D3
  0
ARC
  5
9D4
330
1F
100
AcDbEntity
  8
ceco.net 156
 62
    63
100
AcDbCircle
 10
-155.2497583630045
 20
787.8972100676674
 30
0.0
 40
269.1749771008894
100
AcDbArc
 50
271.379749185978
 51
297.8170267920077
1001
AcDbBlockRepETag
1070
     1
1071
       22
1005
9D4
  0
ARC
  5
9D5
330
1F
100
AcDbEntity
  8
ceco.net 156
100
AcDbCircle
 10
-132.2364186646898
 20
603.2923798622269
 30
0.0
 40
115.6920359334056
100
AcDbArc
 50
273.4254831382958
 51
332.4752750689653
1001
AcDbBlockRepETag
1070
     1
1071
       23
1005
9D5
  0
ARC
  5
9D6
330
1F
100
AcDbEntity
  8
ceco.net 156
100
AcDbCircle
 10
-262.8880079987009
 20
645.4729925455231
 30
0.0
 40
293.1247191045897
100
AcDbArc
 50
318.1549713827664
 51
356.0570046251072
1001
AcDbBlockRepETag
1070
     1
1071
       24
1005
9D6
  0
ARC
  5
9D7
330
1F
100
AcDbEntity
  8
ceco.net 156
100
AcDbCircle
 10
53.07631009793675
 20
512.0433511795181
 30
0.0
 40
115.6920359334056
100
AcDbArc
 50
101.7367009464664
 51
158.7547953176609
1001
AcDbBlockRepETag
1070
     1
1071
       25
1005
9D7
  0
ARC
  5
9D8
330
1F
100
AcDbEntity
  8
ceco.net 156
 62
    95
100
AcDbCircle
 10
-134.409612834688
 20
274.2302551330703
 30
0.0
 40
115.6920359334056
100
AcDbArc
 50
343.8566128157131
 51
352.7443767736019
1001
AcDbBlockRepETag
1070
     1
1071
       26
1005
9D8
  0
ARC
  5
9D9
330
1F
100
AcDbEntity
  8
ceco.net 156
 62
    95
100
AcDbCircle
 10
-134.409612834688
 20
274.2302551330703
 30
0.0
 40
115.6920359334056
100
AcDbArc
 50
325.2192271725279
 51
335.1572389144094
1001
AcDbBlockRepETag
1070
     1
1071
       27
1005
9D9
  0
ARC
  5
9DA
330
1F
100
AcDbEntity
  8
ceco.net 156
 62
    95
100
AcDbCircle
 10
-94.26394438767038
 20
543.0865182937759
 30
0.0
 40
293.1247191045897
100
AcDbArc
 50
292.706051175633
 51
296.0570046260987
1001
AcDbBlockRepETag
1070
     1
1071
       28
1005
9DA
  0
ARC
  5
9DB
330
1F
100
AcDbEntity
  8
ceco.net 156
 62
    95
100
AcDbCircle
 10
65.19117838120854
 20
349.9919073642868
 30
0.0
 40
115.6920359334056
100
AcDbArc
 50
242.144736097239
 51
253.9350542526769
1001
AcDbBlockRepETag
1070
     1
1071
       29
1005
9DB
  0
ARC
  5
9DC
330
1F
100
AcDbEntity
  8
ceco.net 156
100
AcDbCircle
 10
65.19117838120854
 20
349.9919073642868
 30
0.0
 40
115.6920359334056
100
AcDbArc
 50
267.8110319039675
 51
285.577121382192
1001
AcDbBlockRepETag
1070
     1
1071
       30
1005
9DC
  0
ARC
  5
9DD
330
1F
100
AcDbEntity
  8
ceco.net 156
 62
    95
100
AcDbCircle
 10
-51.08059161924922
 20
284.7134206356185
 30
0.0
 40
86.02360477206433
100
AcDbArc
 50
258.9436558081394
 51
306.0592730261129
1001
AcDbBlockRepETag
1070
     1
1071
       31
1005
9DD
  0
ARC
  5
9DE
330
1F
100
AcDbEntity
  8
ceco.net 156
 62
    95
100
AcDbCircle
 10
-42.24931478523814
 20
228.6935560168404
 30
0.0
 40
38.05901157715984
100
AcDbArc
 50
228.2790728400769
 51
329.638308045619
1001
AcDbBlockRepETag
1070
     1
1071
       32
1005
9DE
  0
ARC
  5
9DF
330
1F
100
AcDbEntity
  8
ceco.net 156
 62
    95
100
AcDbCircle
 10
-19.26829630159937
 20
82.91695058957524
 30
0.0
 40
126.9228443716552
100
AcDbArc
 50
85.54527276261829
 51
112.3721081207637
1001
AcDbBlockRepETag
1070
     1
1071
       33
1005
9DF
  0
ARC
  5
9E0
330
1F
100
AcDbEntity
  8
ceco.net 156
 62
    95
100
AcDbCircle
 10
104.6787904498616
 20
132.7428137721199
 30
0.0
 40
126.9228443716552
100
AcDbArc
 50
145.5452727586753
 51
172.3721081194703
1001
AcDbBlockRepETag
1070
     1
1071
       34
1005
9E0
  0
ARC
  5
9E1
330
1F
100
AcDbEntity
  8
ceco.net 156
 62
    95
100
AcDbCircle
 10
-33.05796253704631
 20
185.7289706529755
 30
0.0
 40
38.05901157715984
100
AcDbArc
 50
288.2790728435026
 51
29.63830803947665
1001
AcDbBlockRepETag
1070
     1
1071
       35
1005
9E1
  0
ARC
  5
9E2
330
1F
100
AcDbEntity
  8
ceco.net 156
 62
    95
100
AcDbCircle
 10
-85.98822665237987
 20
206.0907929004807
 30
0.0
 40
86.02360477206433
100
AcDbArc
 50
318.9436558207643
 51
6.059273022090777
1001
AcDbBlockRepETag
1070
     1
1071
       36
1005
9E2
  0
ARC
  5
9E3
330
1F
100
AcDbEntity
  8
ceco.net 156
 62
    95
100
AcDbCircle
 10
123.5018704531232
 20
264.9970712126869
 30
0.0
 40
126.9228443716552
100
AcDbArc
 50
205.5452727628539
 51
232.3721081194131
1001
AcDbBlockRepETag
1070
     1
1071
       37
1005
9E3
  0
ARC
  5
9E4
330
1F
100
AcDbEntity
  8
ceco.net 156
 62
    95
100
AcDbCircle
 10
8.746136128667956
 20
172.206622547068
 30
0.0
 40
38.05901157715984
100
AcDbArc
 50
348.279072844692
 51
89.63830803849523
1001
AcDbBlockRepETag
1070
     1
1071
       38
1005
9E4
  0
ARC
  5
9E5
330
1F
100
AcDbEntity
  8
ceco.net 156
 62
    95
100
AcDbCircle
 10
-35.35285133146846
 20
136.5485802353996
 30
0.0
 40
86.02360477206433
100
AcDbArc
 50
18.94365581962551
 51
66.05927302856123
1001
AcDbBlockRepETag
1070
     1
1071
       39
1005
9E5
  0
ARC
  5
9E6
330
1F
100
AcDbEntity
  8
ceco.net 156
 62
    95
100
AcDbCircle
 10
18.37786370492375
 20
347.4254654707092
 30
0.0
 40
126.9228443716552
100
AcDbArc
 50
265.5452727626183
 51
292.3721081207638
1001
AcDbBlockRepETag
1070
     1
1071
       40
1005
9E6
  0
ARC
  5
9E7
330
1F
100
AcDbEntity
  8
ceco.net 156
 62
    95
100
AcDbCircle
 10
41.35888236737645
 20
201.6488599838394
 30
0.0
 40
38.05901157715984
100
AcDbArc
 50
48.27907284007693
 51
149.638308045619
1001
AcDbBlockRepETag
1070
     1
1071
       41
1005
9E7
  0
ARC
  5
9E8
330
1F
100
AcDbEntity
  8
ceco.net 156
 62
    95
100
AcDbCircle
 10
50.19015914178289
 20
145.6289953650612
 30
0.0
 40
86.02360477206433
100
AcDbArc
 50
78.9436558081395
 51
126.0592730261129
1001
AcDbBlockRepETag
1070
     1
1071
       42
1005
9E8
  0
ARC
  5
9E9
330
1F
100
AcDbEntity
  8
ceco.net 156
 62
    95
100
AcDbCircle
 10
-105.5692229273279
 20
297.5996021093505
 30
0.0
 40
126.9228443716552
100
AcDbArc
 50
325.5452727586753
 51
352.3721081194703
1001
AcDbBlockRepETag
1070
     1
1071
       43
1005
9E9
  0
ARC
  5
9EA
330
1F
100
AcDbEntity
  8
ceco.net 156
 62
    95
100
AcDbCircle
 10
32.16752994037068
 20
244.6134453477043
 30
0.0
 40
38.05901157715984
100
AcDbArc
 50
108.2790728435026
 51
209.6383080394766
1001
AcDbBlockRepETag
1070
     1
1071
       44
1005
9EA
  0
ARC
  5
9EB
330
1F
100
AcDbEntity
  8
ceco.net 156
 62
    95
100
AcDbCircle
 10
85.09779423451817
 20
224.2516231598038
 30
0.0
 40
86.02360477206433
100
AcDbArc
 50
138.9436558207643
 51
186.0592730220907
1001
AcDbBlockRepETag
1070
     1
1071
       45
1005
9EB
  0
ARC
  5
9EC
330
1F
100
AcDbEntity
  8
ceco.net 156
 62
    95
100
AcDbCircle
 10
-124.3923029305895
 20
165.3453446687836
 30
0.0
 40
126.9228443716552
100
AcDbArc
 50
25.54527276285398
 51
52.37210811941314
1001
AcDbBlockRepETag
1070
     1
1071
       46
1005
9EC
  0
ARC
  5
9ED
330
1F
100
AcDbEntity
  8
ceco.net 156
 62
    95
100
AcDbCircle
 10
-9.636568606134289
 20
258.1357933940071
 30
0.0
 40
38.05901157715984
100
AcDbArc
 50
168.2790728446919
 51
269.6383080384952
1001
AcDbBlockRepETag
1070
     1
1071
       47
1005
9ED
  0
ARC
  5
9EE
330
1F
100
AcDbEntity
  8
ceco.net 156
 62
    95
100
AcDbCircle
 10
34.46241879439748
 20
293.7938356460708
 30
0.0
 40
86.02360477206433
100
AcDbArc
 50
198.9436558196254
 51
246.0592730285612
1001
AcDbBlockRepETag
1070
     1
1071
       48
1005
9EE
  0
ARC
  5
9EF
330
1F
100
AcDbEntity
  8
ceco.net 156
 62
    63
100
AcDbCircle
 10
307.2999426124135
 20
581.1310073794502
 30
0.0
 40
269.1749771008894
100
AcDbArc
 50
216.8475582576198
 51
249.9551594227561
1001
AcDbBlockRepETag
1070
     1
1071
       49
1005
9EF
  0
ARC
  5
9F0
330
1F
100
AcDbEntity
  8
ceco.net 156
100
AcDbCircle
 10
158.9341397879163
 20
468.8984553875107
 30
0.0
 40
115.6920359334056
100
AcDbArc
 50
205.6156996367248
 51
272.4752750773019
1001
AcDbBlockRepETag
1070
     1
1071
       50
1005
9F0
  0
ARC
  5
9F1
330
1F
100
AcDbEntity
  8
ceco.net 156
100
AcDbCircle
 10
107.6198784110585
 20
9.64396060124821
 30
0.0
 40
293.1247191045897
100
AcDbArc
 50
102.2255469622285
 51
106.6591037684254
1001
AcDbBlockRepETag
1070
     1
1071
       51
1005
9F1
  0
ARC
  5
9F2
330
1F
100
AcDbEntity
  8
ceco.net 156
 62
    63
100
AcDbCircle
 10
42.17783850407994
 20
534.5967375697273
 30
0.0
 40
269.1749771008894
100
AcDbArc
 50
288.5804703120327
 51
309.9551594292307
1001
AcDbBlockRepETag
1070
     1
1071
       52
1005
9F2
  0
ARC
  5
9F3
330
1F
100
AcDbEntity
  8
ceco.net 156
100
AcDbCircle
 10
65.19117838120854
 20
349.9919073642868
 30
0.0
 40
115.6920359334056
100
AcDbArc
 50
304.7316562276864
 51
332.4752750689653
1001
AcDbBlockRepETag
1070
     1
1071
       53
1005
9F3
  0
ARC
  5
9F4
330
1F
100
AcDbEntity
  8
ceco.net 156
100
AcDbCircle
 10
-134.409612834688
 20
274.2302551330703
 30
0.0
 40
115.6920359334056
100
AcDbArc
 50
20.94763312271505
 51
32.47527507150688
1001
AcDbBlockRepETag
1070
     1
1071
       54
1005
9F4
  0
ARC
  5
9F5
330
1F
100
AcDbEntity
  8
ceco.net 156
 62
    63
100
AcDbCircle
 10
-305.7887554171045
 20
346.6025334657806
 30
0.0
 40
269.1749771008894
100
AcDbArc
 50
353.8192513465782
 51
9.955159422644397
1001
AcDbBlockRepETag
1070
     1
1071
       55
1005
9F5
  0
ARC
  5
9F6
330
1F
100
AcDbEntity
  8
ceco.net 156
 62
    63
100
AcDbCircle
 10
42.17783850407994
 20
534.5967375697273
 30
0.0
 40
269.1749771008894
100
AcDbArc
 50
264.739449280377
 51
275.5324154946777
1001
AcDbBlockRepETag
1070
     1
1071
       56
1005
9F6
  0
ARC
  5
9F7
330
1F
100
AcDbEntity
  8
ceco.net 156
 62
    95
100
AcDbCircle
 10
65.19117838120854
 20
349.9919073642868
 30
0.0
 40
115.6920359334056
100
AcDbArc
 50
229.3127495264537
 51
233.4032911752152
1001
AcDbBlockRepETag
1070
     1
1071
       57
1005
9F7
  0
ARC
  5
9F8
330
1F
100
AcDbEntity
  8
ceco.net 156
100
AcDbCircle
 10
107.6198784110585
 20
9.64396060124821
 30
0.0
 40
293.1247191045897
100
AcDbArc
 50
78.15497139337195
 51
87.62652202448336
1001
AcDbBlockRepETag
1070
     1
1071
       58
1005
9F8
  0
ARC
  5
9F9
330
1F
100
AcDbEntity
  8
ceco.net 156
100
AcDbCircle
 10
437.2601069209615
 20
75.92520595208592
 30
0.0
 40
293.1247191045897
100
AcDbArc
 50
138.1549713827664
 51
176.0570046251072
1001
AcDbBlockRepETag
1070
     1
1071
       59
1005
9F9
  0
ARC
  5
9FA
330
1F
100
AcDbEntity
  8
ceco.net 156
100
AcDbCircle
 10
121.295788943533
 20
209.3548473180908
 30
0.0
 40
115.6920359334056
100
AcDbArc
 50
281.7367009464664
 51
32.47527507150688
1001
AcDbBlockRepETag
1070
     1
1071
       60
1005
9FA
  0
ARC
  5
9FB
330
1F
100
AcDbEntity
  8
ceco.net 156
 62
    63
100
AcDbCircle
 10
-50.08335363888346
 20
281.7271255315917
 30
0.0
 40
269.1749771008894
100
AcDbArc
 50
316.3949492298638
 51
9.955159422644397
1001
AcDbBlockRepETag
1070
     1
1071
       61
1005
9FB
  0
ARC
  5
9FC
330
1F
100
AcDbEntity
  8
ceco.net 156
100
AcDbCircle
 10
544.6789789793531
 20
394.542640751757
 30
0.0
 40
293.1247191045897
100
AcDbArc
 50
198.1549713901311
 51
236.0570046255189
1001
AcDbBlockRepETag
1070
     1
1071
       62
1005
9FC
  0
ARC
  5
9FD
330
1F
100
AcDbEntity
  8
ceco.net 156
100
AcDbCircle
 10
271.1433609125653
 20
187.6243352951187
 30
0.0
 40
115.6920359334056
100
AcDbArc
 50
341.7367009459633
 51
92.47527507730195
1001
AcDbBlockRepETag
1070
     1
1071
       63
1005
9FD
  0
ARC
  5
9FE
330
1F
100
AcDbEntity
  8
ceco.net 156
 62
    63
100
AcDbCircle
 10
122.7775582072774
 20
75.39178324357457
 30
0.0
 40
269.1749771008894
100
AcDbArc
 50
16.3949492361894
 51
69.95515942275614
1001
AcDbBlockRepETag
1070
     1
1071
       64
1005
9FE
  0
ARC
  5
9FF
330
1F
100
AcDbEntity
  8
ceco.net 156
100
AcDbCircle
 10
322.4576224086324
 20
646.8788301409858
 30
0.0
 40
293.1247191045897
100
AcDbArc
 50
258.1549713933719
 51
296.0570046260987
1001
AcDbBlockRepETag
1070
     1
1071
       65
1005
9FF
  0
ARC
  5
A00
330
1F
100
AcDbEntity
  8
ceco.net 156
100
AcDbCircle
 10
364.8863223192731
 20
306.5308833183426
 30
0.0
 40
115.6920359334056
100
AcDbArc
 50
41.73670094410419
 51
152.4752750689653
1001
AcDbBlockRepETag
1070
     1
1071
       66
1005
A00
  0
ARC
  5
A01
330
1F
100
AcDbEntity
  8
ceco.net 156
 62
    63
100
AcDbCircle
 10
387.899662136797
 20
121.9260530532974
 30
0.0
 40
269.1749771008894
100
AcDbArc
 50
76.39494923457097
 51
129.9551594292307
1001
AcDbBlockRepETag
1070
     1
1071
       67
1005
A01
  0
ARC
  5
A02
330
1F
100
AcDbEntity
  8
ceco.net 156
 62
    63
100
AcDbCircle
 10
480.1608543393651
 20
374.7956651510376
 30
0.0
 40
269.1749771008894
100
AcDbArc
 50
136.3949492298638
 51
189.9551594226444
1001
AcDbBlockRepETag
1070
     1
1071
       68
1005
A02
  0
ARC
  5
A03
330
1F
100
AcDbEntity
  8
ceco.net 156
100
AcDbCircle
 10
-114.6014781596621
 20
261.980149990477
 30
0.0
 40
293.1247191045897
100
AcDbArc
 50
18.15497139013114
 51
33.85481968138581
1001
AcDbBlockRepETag
1070
     1
1071
       69
1005
A03
  0
ARC
  5
A04
330
1F
100
AcDbEntity
  8
ceco.net 156
100
AcDbCircle
 10
-76.13180810236537
 20
462.6553198160308
 30
0.0
 40
115.6920359334056
100
AcDbArc
 50
281.7367009464664
 51
338.7547953176609
1001
AcDbBlockRepETag
1070
     1
1071
       70
1005
A04
  0
ARC
  5
A05
330
1F
100
AcDbEntity
  8
ceco.net 156
 62
    63
100
AcDbCircle
 10
-247.5109506251772
 20
535.0275980295318
 30
0.0
 40
269.1749771008894
100
AcDbArc
 50
316.3949492298638
 51
6.940912071655696
1001
AcDbBlockRepETag
1070
     1
1071
       71
1005
A05
  0
ARC
  5
A06
330
1F
100
AcDbEntity
  8
ceco.net 156
100
AcDbCircle
 10
181.5547052619496
 20
140.8006137670654
 30
0.0
 40
293.1247191045897
100
AcDbArc
 50
138.1549713827664
 51
142.7000955860074
1001
AcDbBlockRepETag
1070
     1
1071
       72
1005
A06
  0
ARC
  5
A07
330
1F
100
AcDbEntity
  8
ceco.net 156
100
AcDbCircle
 10
-134.409612834688
 20
274.2302551330703
 30
0.0
 40
115.6920359334056
100
AcDbArc
 50
301.1272520360386
 51
314.8073047837006
1001
AcDbBlockRepETag
1070
     1
1071
       73
1005
A07
  0
ARC
  5
A08
330
1F
100
AcDbEntity
  8
ceco.net 156
 62
    63
100
AcDbCircle
 10
-305.7887554171045
 20
346.6025334657806
 30
0.0
 40
269.1749771008894
100
AcDbArc
 50
323.214543148988
 51
339.608388903535
1001
AcDbBlockRepETag
1070
     1
1071
       74
1005
A08
  0
ARC
  5
A09
330
1F
100
AcDbEntity
  8
ceco.net 156
100
AcDbCircle
 10
288.9735772011319
 20
459.4180486263412
 30
0.0
 40
293.1247191045897
100
AcDbArc
 50
198.1549713901311
 51
236.0570046255189
1001
AcDbBlockRepETag
1070
     1
1071
       75
1005
A09
  0
ARC
  5
A0A
330
1F
100
AcDbEntity
  8
ceco.net 156
100
AcDbCircle
 10
15.43795913434422
 20
252.4997431100983
 30
0.0
 40
115.6920359334056
100
AcDbArc
 50
341.7367009459633
 51
92.47527507730195
1001
AcDbBlockRepETag
1070
     1
1071
       76
1005
A0A
  0
ARC
  5
A0B
330
1F
100
AcDbEntity
  8
ceco.net 156
 62
    63
100
AcDbCircle
 10
-132.9278435709437
 20
140.2671911181587
 30
0.0
 40
269.1749771008894
100
AcDbArc
 50
16.3949492361894
 51
69.95515942275614
1001
AcDbBlockRepETag
1070
     1
1071
       77
1005
A0B
  0
ARC
  5
A0C
330
1F
100
AcDbEntity
  8
ceco.net 156
 62
    63
100
AcDbCircle
 10
132.1942604181805
 20
186.8014609278816
 30
0.0
 40
269.1749771008894
100
AcDbArc
 50
76.39494923457097
 51
129.9551594292307
1001
AcDbBlockRepETag
1070
     1
1071
       78
1005
A0C
  0
ARC
  5
A0D
330
1F
100
AcDbEntity
  8
ceco.net 156
 62
    95
100
AcDbCircle
 10
135.591206490759
 20
637.3896094621795
 30
0.0
 40
86.02360477206433
100
AcDbArc
 50
258.9436558081394
 51
306.0592730261129
1001
AcDbBlockRepETag
1070
     1
1071
       79
1005
A0D
  0
ARC
  5
A0E
330
1F
100
AcDbEntity
  8
ceco.net 156
 62
    95
100
AcDbCircle
 10
144.4224833247701
 20
581.3697448434013
 30
0.0
 40
38.05901157715984
100
AcDbArc
 50
228.2790728400769
 51
329.638308045619
1001
AcDbBlockRepETag
1070
     1
1071
       80
1005
A0E
  0
ARC
  5
A0F
330
1F
100
AcDbEntity
  8
ceco.net 156
 62
    95
100
AcDbCircle
 10
167.4035019276181
 20
435.5931393565315
 30
0.0
 40
126.9228443716552
100
AcDbArc
 50
85.54527276261829
 51
112.3721081207637
1001
AcDbBlockRepETag
1070
     1
1071
       81
1005
A0F
  0
ARC
  5
A10
330
1F
100
AcDbEntity
  8
ceco.net 156
 62
    95
100
AcDbCircle
 10
291.3505885598699
 20
485.4190027178901
 30
0.0
 40
126.9228443716552
100
AcDbArc
 50
145.5452727586753
 51
172.3721081194703
1001
AcDbBlockRepETag
1070
     1
1071
       82
1005
A10
  0
ARC
  5
A11
330
1F
100
AcDbEntity
  8
ceco.net 156
 62
    95
100
AcDbCircle
 10
153.6138356921712
 20
538.4051594795364
 30
0.0
 40
38.05901157715984
100
AcDbArc
 50
288.2790728435026
 51
29.63830803947665
1001
AcDbBlockRepETag
1070
     1
1071
       83
1005
A11
  0
ARC
  5
A12
330
1F
100
AcDbEntity
  8
ceco.net 156
 62
    95
100
AcDbCircle
 10
100.6835714576283
 20
558.7669816674369
 30
0.0
 40
86.02360477206433
100
AcDbArc
 50
318.9436558207643
 51
6.059273022090777
1001
AcDbBlockRepETag
1070
     1
1071
       84
1005
A12
  0
ARC
  5
A13
330
1F
100
AcDbEntity
  8
ceco.net 156
 62
    95
100
AcDbCircle
 10
310.1736685631314
 20
617.6732601584571
 30
0.0
 40
126.9228443716552
100
AcDbArc
 50
205.5452727628539
 51
232.3721081194131
1001
AcDbBlockRepETag
1070
     1
1071
       85
1005
A13
  0
ARC
  5
A14
330
1F
100
AcDbEntity
  8
ceco.net 156
 62
    95
100
AcDbCircle
 10
195.4179342386762
 20
524.8828114928382
 30
0.0
 40
38.05901157715984
100
AcDbArc
 50
348.279072844692
 51
89.63830803849523
1001
AcDbBlockRepETag
1070
     1
1071
       86
1005
A14
  0
ARC
  5
A15
330
1F
100
AcDbEntity
  8
ceco.net 156
 62
    95
100
AcDbCircle
 10
151.3189467785397
 20
489.2247690619606
 30
0.0
 40
86.02360477206433
100
AcDbArc
 50
18.94365581962551
 51
66.05927302856123
1001
AcDbBlockRepETag
1070
     1
1071
       87
1005
A15
  0
ARC
  5
A16
330
1F
100
AcDbEntity
  8
ceco.net 156
100
AcDbCircle
 10
73.71576386666692
 20
440.9248077930588
 30
0.0
 40
115.6920359334056
100
AcDbArc
 50
7.317059212096156
 51
33.21566688668355
1001
AcDbBlockRepETag
1070
     1
1071
       88
1005
A16
  0
ARC
  5
A17
330
1F
100
AcDbEntity
  8
ceco.net 156
 62
    63
100
AcDbCircle
 10
-74.65003883862102
 20
328.6922557415146
 30
0.0
 40
269.1749771008894
100
AcDbArc
 50
34.33836486294032
 51
68.78732009203813
1001
AcDbBlockRepETag
1070
     1
1071
       89
1005
A17
  0
ARC
  5
A18
330
1F
100
AcDbEntity
  8
ceco.net 156
100
AcDbCircle
 10
347.2513819930592
 20
647.8431132496971
 30
0.0
 40
293.1247191045897
100
AcDbArc
 50
227.7760719396812
 51
236.0570046255189
1001
AcDbBlockRepETag
1070
     1
1071
       90
1005
A18
  0
ARC
  5
A19
330
1F
100
AcDbEntity
  8
ceco.net 156
100
AcDbCircle
 10
-114.6014781596621
 20
261.980149990477
 30
0.0
 40
293.1247191045897
100
AcDbArc
 50
48.8942723513407
 51
56.05700462551893
1001
AcDbBlockRepETag
1070
     1
1071
       91
1005
A19
  0
ARC
  5
A1A
330
1F
100
AcDbEntity
  8
ceco.net 156
100
AcDbCircle
 10
-76.13180810236537
 20
462.6553198160308
 30
0.0
 40
115.6920359334056
100
AcDbArc
 50
0.5674913301501267
 51
32.47527507150688
1001
AcDbBlockRepETag
1070
     1
1071
       92
1005
A1A
  0
ARC
  5
A1B
330
1F
100
AcDbEntity
  8
ceco.net 156
100
AcDbCircle
 10
-7.18260622047984
 20
580.5975847305435
 30
0.0
 40
293.1247191045897
100
AcDbArc
 50
318.1549713827664
 51
356.0570046251072
1001
AcDbBlockRepETag
1070
     1
1071
       93
1005
A1B
  0
ARC
  5
A1C
330
1F
100
AcDbEntity
  8
ceco.net 156
100
AcDbCircle
 10
158.9341397879163
 20
468.8984553875107
 30
0.0
 40
115.6920359334056
100
AcDbArc
 50
161.7367009459633
 51
181.1951347687443
1001
AcDbBlockRepETag
1070
     1
1071
       94
1005
A1C
  0
ARC
  5
A1D
330
1F
100
AcDbEntity
  8
ceco.net 156
 62
    63
100
AcDbCircle
 10
307.2999426124135
 20
581.1310073794502
 30
0.0
 40
269.1749771008894
100
AcDbArc
 50
196.3949492361894
 51
203.0109444574861
1001
AcDbBlockRepETag
1070
     1
1071
       95
1005
A1D
  0
ARC
  5
A1E
330
1F
100
AcDbEntity
  8
ceco.net 156
100
AcDbCircle
 10
347.2513819930592
 20
647.8431132496971
 30
0.0
 40
293.1247191045897
100
AcDbArc
 50
198.1549713901311
 51
213.3045201996468
1001
AcDbBlockRepETag
1070
     1
1071
       96
1005
A1E
  0
ARC
  5
A1F
330
1F
100
AcDbEntity
  8
ceco.net 156
100
AcDbCircle
 10
73.71576386666692
 20
440.9248077930588
 30
0.0
 40
115.6920359334056
100
AcDbArc
 50
341.7367009459633
 51
2.258581173177143
1001
AcDbBlockRepETag
1070
     1
1071
       97
1005
A1F
  0
ARC
  5
A20
330
1F
100
AcDbEntity
  8
ceco.net 156
 62
    63
100
AcDbCircle
 10
-74.65003883862102
 20
328.6922557415146
 30
0.0
 40
269.1749771008894
100
AcDbArc
 50
16.3949492361894
 51
23.94314499430704
1001
AcDbBlockRepETag
1070
     1
1071
       98
1005
A20
  0
ARC
  5
A21
330
1F
100
AcDbEntity
  8
ceco.net 156
100
AcDbCircle
 10
66.75222063041127
 20
711.75423801557
 30
0.0
 40
293.1247191045897
100
AcDbArc
 50
258.1549713933719
 51
296.0570046260987
1001
AcDbBlockRepETag
1070
     1
1071
       99
1005
A21
  0
ARC
  5
A22
330
1F
100
AcDbEntity
  8
ceco.net 156
100
AcDbCircle
 10
109.1809205410519
 20
371.4062911333221
 30
0.0
 40
115.6920359334056
100
AcDbArc
 50
41.73670094410419
 51
152.4752750689653
1001
AcDbBlockRepETag
1070
     1
1071
      100
1005
A22
  0
ARC
  5
A23
330
1F
100
AcDbEntity
  8
ceco.net 156
 62
    95
100
AcDbCircle
 10
205.049661814932
 20
700.1016542972702
 30
0.0
 40
126.9228443716552
100
AcDbArc
 50
265.5452727626183
 51
292.3721081207638
1001
AcDbBlockRepETag
1070
     1
1071
      101
1005
A23
  0
ARC
  5
A24
330
1F
100
AcDbEntity
  8
ceco.net 156
 62
    95
100
AcDbCircle
 10
228.0306804773847
 20
554.3250488104003
 30
0.0
 40
38.05901157715984
100
AcDbArc
 50
48.27907284007693
 51
149.638308045619
1001
AcDbBlockRepETag
1070
     1
1071
      102
1005
A24
  0
ARC
  5
A25
330
1F
100
AcDbEntity
  8
ceco.net 156
 62
    95
100
AcDbCircle
 10
236.8619572517911
 20
498.3051841916221
 30
0.0
 40
86.02360477206433
100
AcDbArc
 50
78.9436558081395
 51
126.0592730261129
1001
AcDbBlockRepETag
1070
     1
1071
      103
1005
A25
  0
ARC
  5
A26
330
1F
100
AcDbEntity
  8
ceco.net 156
 62
    95
100
AcDbCircle
 10
62.27949517941869
 20
518.0215334953445
 30
0.0
 40
126.9228443716552
100
AcDbArc
 50
25.54527276285398
 51
52.37210811941314
1001
AcDbBlockRepETag
1070
     1
1071
      104
1005
A26
  0
ARC
  5
A27
330
1F
100
AcDbEntity
  8
ceco.net 156
 62
    95
100
AcDbCircle
 10
177.0352295634785
 20
610.8119821609634
 30
0.0
 40
38.05901157715984
100
AcDbArc
 50
168.2790728446919
 51
269.6383080384952
1001
AcDbBlockRepETag
1070
     1
1071
      105
1005
A27
  0
ARC
  5
A28
330
1F
100
AcDbEntity
  8
ceco.net 156
 62
    95
100
AcDbCircle
 10
221.134217023615
 20
646.4700245918411
 30
0.0
 40
86.02360477206433
100
AcDbArc
 50
198.9436558196254
 51
246.0592730285612
1001
AcDbBlockRepETag
1070
     1
1071
      106
1005
A28
  0
ARC
  5
A29
330
1F
100
AcDbEntity
  8
ceco.net 156
100
AcDbCircle
 10
308.7817117569485
 20
447.1679433645386
 30
0.0
 40
115.6920359334056
100
AcDbArc
 50
101.7367009464664
 51
131.3414736370002
1001
AcDbBlockRepETag
1070
     1
1071
      107
1005
A29
  0
ARC
  5
A2A
330
1F
100
AcDbEntity
  8
ceco.net 156
100
AcDbCircle
 10
-190.5142233970125
 20
414.8673151792663
 30
0.0
 40
115.6920359334056
100
AcDbArc
 50
269.8926743066648
 51
332.4752750689653
1001
AcDbBlockRepETag
1070
     1
1071
      108
1005
A2A
  0
ARC
  5
A2B
330
1F
100
AcDbEntity
  8
ceco.net 156
100
AcDbCircle
 10
-148.0855233671625
 20
74.5193684758324
 30
0.0
 40
293.1247191045897
100
AcDbArc
 50
78.15497139337195
 51
90.74047373631426
1001
AcDbBlockRepETag
1070
     1
1071
      109
1005
A2B
  0
ARC
  5
A2C
330
1F
100
AcDbEntity
  8
ceco.net 156
100
AcDbCircle
 10
-370.3068799378832
 20
326.8555578650611
 30
0.0
 40
293.1247191045897
100
AcDbArc
 50
18.15497139013114
 51
56.05700462551893
1001
AcDbBlockRepETag
1070
     1
1071
      110
1005
A2C
  0
ARC
  5
A2D
330
1F
100
AcDbEntity
  8
ceco.net 156
100
AcDbCircle
 10
-96.77126187109553
 20
533.7738632024902
 30
0.0
 40
115.6920359334056
100
AcDbArc
 50
161.7367009459633
 51
272.4752750773019
1001
AcDbBlockRepETag
1070
     1
1071
      111
1005
A2D
  0
ARC
  5
A2E
330
1F
100
AcDbEntity
  8
ceco.net 156
100
AcDbCircle
 10
-423.904172957178
 20
476.8052729429382
 30
0.0
 40
293.1247191045897
100
AcDbArc
 50
318.1549713827664
 51
349.7679278955337
1001
AcDbBlockRepETag
1070
     1
1071
      112
1005
A2E
  0
ARC
  5
A2F
330
1F
100
AcDbEntity
  8
ceco.net 156
 62
    63
100
AcDbCircle
 10
-466.8049204351862
 20
177.9348137439865
 30
0.0
 40
269.1749771008894
100
AcDbArc
 50
316.3949492298638
 51
9.955159422644397
1001
AcDbBlockRepETag
1070
     1
1071
      113
1005
A2F
  0
ARC
  5
A30
330
1F
100
AcDbEntity
  8
ceco.net 156
100
AcDbCircle
 10
-295.4257778527697
 20
105.5625355900902
 30
0.0
 40
115.6920359334056
100
AcDbArc
 50
281.7367009464664
 51
32.47527507150688
1001
AcDbBlockRepETag
1070
     1
1071
      114
1005
A30
  0
ARC
  5
A31
330
1F
100
AcDbEntity
  8
ceco.net 156
100
AcDbCircle
 10
181.5547052619496
 20
140.8006137670654
 30
0.0
 40
293.1247191045897
100
AcDbArc
 50
158.1308121180758
 51
169.7679278955337
1001
AcDbBlockRepETag
1070
     1
1071
      115
1005
A31
  0
ARC
  5
A32
330
1F
100
AcDbEntity
  8
ceco.net 156
100
AcDbCircle
 10
-54.13117814087474
 20
480.5383719267029
 30
0.0
 40
293.1247191045897
100
AcDbArc
 50
224.8391657230507
 51
236.0570046255189
1001
AcDbBlockRepETag
1070
     1
1071
      116
1005
A32
  0
ARC
  5
A33
330
1F
100
AcDbEntity
  8
ceco.net 156
100
AcDbCircle
 10
-148.0855233671625
 20
74.5193684758324
 30
0.0
 40
293.1247191045897
100
AcDbArc
 50
104.7479475755651
 51
108.8042465390029
1001
AcDbBlockRepETag
1070
     1
1071
      117
1005
A33
  0
ARC
  5
A34
330
1F
100
AcDbEntity
  8
ceco.net 156
 62
    63
100
AcDbCircle
 10
-213.5275630953272
 20
599.4721455635207
 30
0.0
 40
269.1749771008894
100
AcDbArc
 50
267.1313100196567
 51
268.0027398254504
1001
AcDbBlockRepETag
1070
     1
1071
      118
1005
A34
  0
ARC
  5
A35
330
1F
100
AcDbEntity
  8
ceco.net 156
100
AcDbCircle
 10
-161.5500501992663
 20
161.9209371270317
 30
0.0
 40
293.1247191045897
100
AcDbArc
 50
138.1549713827664
 51
176.0570046251072
1001
AcDbBlockRepETag
1070
     1
1071
      119
1005
A35
  0
ARC
  5
A36
330
1F
100
AcDbEntity
  8
ceco.net 156
100
AcDbCircle
 10
-477.5143682362993
 20
295.3505784930366
 30
0.0
 40
115.6920359334056
100
AcDbArc
 50
281.7367009464664
 51
12.69899179038586
1001
AcDbBlockRepETag
1070
     1
1071
      120
1005
A36
  0
ARC
  5
A37
330
1F
100
AcDbEntity
  8
ceco.net 156
 62
    63
100
AcDbCircle
 10
-648.8935107591112
 20
367.7228567065376
 30
0.0
 40
269.1749771008894
100
AcDbArc
 50
316.3949492298638
 51
9.955159422644397
1001
AcDbBlockRepETag
1070
     1
1071
      121
1005
A37
  0
ARC
  5
A38
330
1F
100
AcDbEntity
  8
ceco.net 156
100
AcDbCircle
 10
-54.13117814087474
 20
480.5383719267029
 30
0.0
 40
293.1247191045897
100
AcDbArc
 50
198.1549713901311
 51
203.2401115616998
1001
AcDbBlockRepETag
1070
     1
1071
      122
1005
A38
  0
ARC
  5
A39
330
1F
100
AcDbEntity
  8
ceco.net 156
100
AcDbCircle
 10
-327.6667962672671
 20
273.6200664700645
 30
0.0
 40
115.6920359334056
100
AcDbArc
 50
341.7367009459633
 51
12.69899179038586
1001
AcDbBlockRepETag
1070
     1
1071
      123
1005
A39
  0
ARC
  5
A3A
330
1F
100
AcDbEntity
  8
ceco.net 156
 62
    63
100
AcDbCircle
 10
-476.032598972555
 20
161.3875144185203
 30
0.0
 40
269.1749771008894
100
AcDbArc
 50
16.3949492361894
 51
69.95515942275614
1001
AcDbBlockRepETag
1070
     1
1071
      124
1005
A3A
  0
ARC
  5
A3B
330
1F
100
AcDbEntity
  8
ceco.net 156
100
AcDbCircle
 10
-276.3525347712
 20
732.8745613159317
 30
0.0
 40
293.1247191045897
100
AcDbArc
 50
258.1549713933719
 51
288.8042465390029
1001
AcDbBlockRepETag
1070
     1
1071
      125
1005
A3B
  0
ARC
  5
A3C
330
1F
100
AcDbEntity
  8
ceco.net 156
100
AcDbCircle
 10
-233.9238348605593
 20
392.5266144932884
 30
0.0
 40
115.6920359334056
100
AcDbArc
 50
77.53530917494067
 51
152.4752750689653
1001
AcDbBlockRepETag
1070
     1
1071
      126
1005
A3C
  0
ARC
  5
A3D
330
1F
100
AcDbEntity
  8
ceco.net 156
 62
    63
100
AcDbCircle
 10
-210.9104949834307
 20
207.9217842282433
 30
0.0
 40
269.1749771008894
100
AcDbArc
 50
87.13131001965676
 51
129.9551594292307
1001
AcDbBlockRepETag
1070
     1
1071
      127
1005
A3D
  0
ARC
  5
A3E
330
1F
100
AcDbEntity
  8
ceco.net 156
100
AcDbCircle
 10
-605.9927634003122
 20
666.5933159054893
 30
0.0
 40
293.1247191045897
100
AcDbArc
 50
318.1549713827664
 51
356.0570046251072
1001
AcDbBlockRepETag
1070
     1
1071
      128
1005
A3E
  0
ARC
  5
A3F
330
1F
100
AcDbEntity
  8
ceco.net 156
100
AcDbCircle
 10
-290.0284454228838
 20
533.1636745394844
 30
0.0
 40
115.6920359334056
100
AcDbArc
 50
101.7367009464664
 51
212.4752750715069
1001
AcDbBlockRepETag
1070
     1
1071
      129
1005
A3F
  0
ARC
  5
A40
330
1F
100
AcDbEntity
  8
ceco.net 156
 62
    63
100
AcDbCircle
 10
-118.6493028404673
 20
460.7913963259834
 30
0.0
 40
269.1749771008894
100
AcDbArc
 50
136.3949492298638
 51
189.9551594226444
1001
AcDbBlockRepETag
1070
     1
1071
      130
1005
A40
  0
ARC
  5
A41
330
1F
100
AcDbEntity
  8
ceco.net 156
 62
    63
100
AcDbCircle
 10
-109.4216241838892
 20
477.3386956514496
 30
0.0
 40
269.1749771008894
100
AcDbArc
 50
196.3949492361894
 51
249.9551594227561
1001
AcDbBlockRepETag
1070
     1
1071
      131
1005
A41
  0
ARC
  5
A42
330
1F
100
AcDbEntity
  8
ceco.net 156
100
AcDbCircle
 10
-257.7874268891771
 20
365.10614365951
 30
0.0
 40
115.6920359334056
100
AcDbArc
 50
161.7367009459633
 51
272.4752750773019
1001
AcDbBlockRepETag
1070
     1
1071
      132
1005
A42
  0
ARC
  5
A43
330
1F
100
AcDbEntity
  8
ceco.net 156
100
AcDbCircle
 10
-531.3230450155694
 20
158.1878381432671
 30
0.0
 40
293.1247191045897
100
AcDbArc
 50
18.15497139013114
 51
56.05700462551893
1001
AcDbBlockRepETag
1070
     1
1071
      133
1005
A43
  0
ARC
  5
A44
330
1F
100
AcDbEntity
  8
ceco.net 156
 62
    63
100
AcDbCircle
 10
63.43928760266698
 20
271.0033533038276
 30
0.0
 40
269.1749771008894
100
AcDbArc
 50
143.214543148988
 51
189.9551594226444
1001
AcDbBlockRepETag
1070
     1
1071
      134
1005
A44
  0
ARC
  5
A45
330
1F
100
AcDbEntity
  8
ceco.net 156
100
AcDbCircle
 10
-107.9398549201449
 20
343.3756315769333
 30
0.0
 40
115.6920359334056
100
AcDbArc
 50
121.1272520360386
 51
212.4752750715069
1001
AcDbBlockRepETag
1070
     1
1071
      135
1005
A45
  0
ARC
  5
A46
330
1F
100
AcDbEntity
  8
ceco.net 156
100
AcDbCircle
 10
20.53854024386799
 20
-27.86710577591472
 30
0.0
 40
293.1247191045897
100
AcDbArc
 50
138.1549713827664
 51
176.0570046251072
1001
AcDbBlockRepETag
1070
     1
1071
      136
1005
A46
  0
ARC
  5
A47
330
1F
100
AcDbEntity
  8
ceco.net 156
100
AcDbCircle
 10
-309.1016884448488
 20
-94.14835124596171
 30
0.0
 40
293.1247191045897
100
AcDbArc
 50
78.15497139337195
 51
116.0570046260987
1001
AcDbBlockRepETag
1070
     1
1071
      137
1005
A47
  0
ARC
  5
A48
330
1F
100
AcDbEntity
  8
ceco.net 156
100
AcDbCircle
 10
-351.5303882958849
 20
246.1995956362862
 30
0.0
 40
115.6920359334056
100
AcDbArc
 50
221.7367009441042
 51
332.4752750689653
1001
AcDbBlockRepETag
1070
     1
1071
      138
1005
A48
  0
ARC
  5
A49
330
1F
100
AcDbEntity
  8
ceco.net 156
 62
    63
100
AcDbCircle
 10
-374.5437281730135
 20
430.8044258417266
 30
0.0
 40
269.1749771008894
100
AcDbArc
 50
256.3949492345709
 51
309.9551594292307
1001
AcDbBlockRepETag
1070
     1
1071
      139
1005
A49
  0
ARC
  5
A4A
330
1F
100
AcDbEntity
  8
ceco.net 156
 62
    63
100
AcDbCircle
 10
-556.6323186161477
 20
620.5924687446731
 30
0.0
 40
269.1749771008894
100
AcDbArc
 50
256.3949492345709
 51
309.9551594292307
1001
AcDbBlockRepETag
1070
     1
1071
      140
1005
A4A
  0
ARC
  5
A4B
330
1F
100
AcDbEntity
  8
ceco.net 156
100
AcDbCircle
 10
-533.6189787986238
 20
435.9876385392326
 30
0.0
 40
115.6920359334056
100
AcDbArc
 50
221.7367009441042
 51
332.4752750689653
1001
AcDbBlockRepETag
1070
     1
1071
      141
1005
A4B
  0
ARC
  5
A4C
330
1F
100
AcDbEntity
  8
ceco.net 156
100
AcDbCircle
 10
-491.1902787687739
 20
95.63969177619403
 30
0.0
 40
293.1247191045897
100
AcDbArc
 50
78.15497139337195
 51
116.0570046260987
1001
AcDbBlockRepETag
1070
     1
1071
      142
1005
A4C
  0
ARC
  5
A4D
330
1F
100
AcDbEntity
  8
ceco.net 156
100
AcDbCircle
 10
-713.4116353394944
 20
347.9758811654228
 30
0.0
 40
293.1247191045897
100
AcDbArc
 50
18.15497139013114
 51
56.05700462551893
1001
AcDbBlockRepETag
1070
     1
1071
      143
1005
A4D
  0
ARC
  5
A4E
330
1F
100
AcDbEntity
  8
ceco.net 156
100
AcDbCircle
 10
-439.8760173919161
 20
554.8941865624565
 30
0.0
 40
115.6920359334056
100
AcDbArc
 50
161.7367009459633
 51
272.4752750773019
1001
AcDbBlockRepETag
1070
     1
1071
      144
1005
A4E
  0
ARC
  5
A4F
330
1F
100
AcDbEntity
  8
ceco.net 156
 62
    63
100
AcDbCircle
 10
-291.5102145674189
 20
667.126738554396
 30
0.0
 40
269.1749771008894
100
AcDbArc
 50
196.3949492361894
 51
249.9551594227561
1001
AcDbBlockRepETag
1070
     1
1071
      145
1005
A4F
  0
ARC
  5
A50
330
1F
100
AcDbEntity
  8
ceco.net 156
 62
    95
100
AcDbCircle
 10
-155.450706482168
 20
547.6373089613097
 30
0.0
 40
38.05901157715984
100
AcDbArc
 50
10.70224552171569
 51
89.63830803849523
1001
AcDbBlockRepETag
1070
     1
1071
      146
1005
A50
  0
ARC
  5
A51
330
1F
100
AcDbEntity
  8
ceco.net 156
 62
    95
100
AcDbCircle
 10
-145.8189788463076
 20
722.8561517657417
 30
0.0
 40
126.9228443716552
100
AcDbArc
 50
265.5452727626183
 51
292.3721081207638
1001
AcDbBlockRepETag
1070
     1
1071
      147
1005
A51
  0
ARC
  5
A52
330
1F
100
AcDbEntity
  8
ceco.net 156
 62
    95
100
AcDbCircle
 10
-122.8379602434595
 20
577.0795462788719
 30
0.0
 40
38.05901157715984
100
AcDbArc
 50
48.27907284007693
 51
149.638308045619
1001
AcDbBlockRepETag
1070
     1
1071
      148
1005
A52
  0
ARC
  5
A53
330
1F
100
AcDbEntity
  8
ceco.net 156
 62
    95
100
AcDbCircle
 10
-114.0066834094485
 20
521.0596816600936
 30
0.0
 40
86.02360477206433
100
AcDbArc
 50
78.9436558081395
 51
126.0592730261129
1001
AcDbBlockRepETag
1070
     1
1071
      149
1005
A53
  0
ARC
  5
A54
330
1F
100
AcDbEntity
  8
ceco.net 156
100
AcDbCircle
 10
-89.80771863483989
 20
262.9444331587929
 30
0.0
 40
293.1247191045897
100
AcDbArc
 50
78.15497139337195
 51
106.5527388283683
1001
AcDbBlockRepETag
1070
     1
1071
      150
1005
A54
  0
ARC
  5
A55
330
1F
100
AcDbEntity
  8
ceco.net 156
100
AcDbCircle
 10
53.07631009793675
 20
512.0433511795181
 30
0.0
 40
115.6920359334056
100
AcDbArc
 50
180.5674913301501
 51
212.4752750715069
1001
AcDbBlockRepETag
1070
     1
1071
      151
1005
A55
  0
ARC
  5
A56
330
1F
100
AcDbEntity
  8
ceco.net 156
 62
    95
100
AcDbCircle
 10
-215.2774344088991
 20
660.1441077651161
 30
0.0
 40
86.02360558232479
100
AcDbArc
 50
262.5695871701452
 51
306.0592728446662
1001
AcDbBlockRepETag
1070
     1
1071
      152
1005
A56
  0
ARC
  5
A57
330
1F
100
AcDbEntity
  8
ceco.net 156
 62
    95
100
AcDbCircle
 10
-206.4461575152834
 20
604.1242423118728
 30
0.0
 40
38.05901157715984
100
AcDbArc
 50
299.1804723327189
 51
329.638308045619
1001
AcDbBlockRepETag
1070
     1
1071
      153
1005
A57
  0
ARC
  5
A58
330
1F
100
AcDbEntity
  8
ceco.net 156
 62
    95
100
AcDbCircle
 10
-206.865009606119
 20
597.5062379302162
 30
0.0
 40
32.68315474187394
100
AcDbArc
 50
227.2662745229766
 51
267.6392902720857
1001
AcDbBlockRepETag
1070
     1
1071
      154
1005
A58
  0
ARC
  5
A59
330
1F
100
AcDbEntity
  8
ceco.net 156
 62
    95
100
AcDbCircle
 10
-215.2774341704806
 20
660.1441069306511
 30
0.0
 40
86.02360477206433
100
AcDbArc
 50
258.9436558081394
 51
262.5695869418155
1001
AcDbBlockRepETag
1070
     1
1071
      156
1005
A59
  0
ARC
  5
A5A
330
1F
100
AcDbEntity
  8
ceco.net 156
 62
    95
100
AcDbCircle
 10
-206.4461575152834
 20
604.1242423118728
 30
0.0
 40
38.05901157715984
100
AcDbArc
 50
228.2790728400769
 51
233.5767148119818
1001
AcDbBlockRepETag
1070
     1
1071
      157
1005
A5A
  0
ARC
  5
A5B
330
1F
100
AcDbEntity
  8
ceco.net 156
 62
    95
100
AcDbCircle
 10
-183.4651388528307
 20
458.347636825003
 30
0.0
 40
126.9228443716552
100
AcDbArc
 50
85.54527276261829
 51
112.3721081207637
1001
AcDbBlockRepETag
1070
     1
1071
      158
1005
A5B
  0
ARC
  5
A5C
330
1F
100
AcDbEntity
  8
ceco.net 156
 62
    95
100
AcDbCircle
 10
-59.51805210136973
 20
508.1735001863616
 30
0.0
 40
126.9228443716552
100
AcDbArc
 50
145.5452727586753
 51
161.0362886150721
1001
AcDbBlockRepETag
1070
     1
1071
      159
1005
A5C
  0
ARC
  5
A5D
330
1F
100
AcDbEntity
  8
ceco.net 156
 62
    95
100
AcDbCircle
 10
-197.2548050882777
 20
561.1596569480079
 30
0.0
 40
38.05901157715984
100
AcDbArc
 50
338.2637160302027
 51
29.63830803947665
1001
AcDbBlockRepETag
1070
     1
1071
      160
1005
A5D
  0
ARC
  5
A5E
330
1F
100
AcDbEntity
  8
ceco.net 156
 62
    95
100
AcDbCircle
 10
-250.1850693824251
 20
581.5214791955131
 30
0.0
 40
86.02360477206433
100
AcDbArc
 50
333.8463034032061
 51
6.059273022090777
1001
AcDbBlockRepETag
1070
     1
1071
      161
1005
A5E
  0
ARC
  5
A5F
330
1F
100
AcDbEntity
  8
ceco.net 156
 62
    95
100
AcDbCircle
 10
-40.69497209810816
 20
640.4277576269286
 30
0.0
 40
126.9228443716552
100
AcDbArc
 50
205.5452727628539
 51
223.5846006328229
1001
AcDbBlockRepETag
1070
     1
1071
      162
1005
A5F
  0
ARC
  5
A60
330
1F
100
AcDbEntity
  8
ceco.net 156
 62
    95
100
AcDbCircle
 10
-199.5496939423044
 20
511.9792665304321
 30
0.0
 40
86.02360477206433
100
AcDbArc
 50
29.2481209250668
 51
66.05927302856123
1001
AcDbBlockRepETag
1070
     1
1071
      163
1005
A60
  0
ARC
  5
A61
330
1F
100
AcDbEntity
  8
ceco.net 156
 62
    95
100
AcDbCircle
 10
-288.5891456010302
 20
540.7760309638161
 30
0.0
 40
126.9228443716552
100
AcDbArc
 50
25.54527276285398
 51
52.37210811941314
1001
AcDbBlockRepETag
1070
     1
1071
      164
1005
A61
  0
ARC
  5
A62
330
1F
100
AcDbEntity
  8
ceco.net 156
 62
    95
100
AcDbCircle
 10
-173.8334112765749
 20
633.5664796294349
 30
0.0
 40
38.05901157715984
100
AcDbArc
 50
168.2790728446919
 51
269.6383080384952
1001
AcDbBlockRepETag
1070
     1
1071
      165
1005
A62
  0
ARC
  5
A63
330
1F
100
AcDbEntity
  8
ceco.net 156
 62
    95
100
AcDbCircle
 10
-129.7344238164385
 20
669.2245220603126
 30
0.0
 40
86.02360477206433
100
AcDbArc
 50
198.9436558196254
 51
246.0592730285612
1001
AcDbBlockRepETag
1070
     1
1071
      166
1005
A63
  0
ARC
  5
A64
330
1F
100
AcDbEntity
  8
ceco.net 156
 62
    95
100
AcDbCircle
 10
-269.7660655977686
 20
673.0302885235923
 30
0.0
 40
126.9228443716552
100
AcDbArc
 50
325.5452727586753
 51
352.3721081194703
1001
AcDbBlockRepETag
1070
     1
1071
      167
1005
A64
  0
ARC
  5
A65
330
1F
100
AcDbEntity
  8
ceco.net 156
 62
    95
100
AcDbCircle
 10
-132.0293126108607
 20
620.0441316427368
 30
0.0
 40
38.05901157715984
100
AcDbArc
 50
108.2790728435026
 51
209.6383080394766
1001
AcDbBlockRepETag
1070
     1
1071
      168
1005
A65
  0
ARC
  5
A66
330
1F
100
AcDbEntity
  8
ceco.net 156
 62
    95
100
AcDbCircle
 10
-79.09904837631785
 20
599.6823093952316
 30
0.0
 40
86.02360477206433
100
AcDbArc
 50
138.9436558207643
 51
186.0592730220907
1001
AcDbBlockRepETag
1070
     1
1071
      169
1005
A66
  0
ARC
  5
A67
330
1F
100
AcDbEntity
  8
ceco.net 156
100
AcDbCircle
 10
-94.26394438767038
 20
543.0865182937759
 30
0.0
 40
293.1247191045897
100
AcDbArc
 50
281.5694740287195
 51
288.8581047926603
1001
AcDbBlockRepETag
1070
     1
1071
       18
1005
9D0
  0
ARC
  5
A68
330
1F
100
AcDbEntity
  8
ceco.net 156
100
AcDbCircle
 10
-477.5143682362993
 20
295.3505784930366
 30
0.0
 40
115.6920359334056
100
AcDbArc
 50
22.52662847374611
 51
32.47527507150688
1001
AcDbBlockRepETag
1070
     1
1071
      120
1005
A36
  0
ARC
  5
A69
330
1F
100
AcDbEntity
  8
ceco.net 156
100
AcDbCircle
 10
-327.6667962672671
 20
273.6200664700645
 30
0.0
 40
115.6920359334056
100
AcDbArc
 50
22.52662847374611
 51
92.47527507730195
1001
AcDbBlockRepETag
1070
     1
1071
      123
1005
A39
  0
ARC
  5
A6A
330
1F
100
AcDbEntity
  8
ceco.net 156
100
AcDbCircle
 10
125.0300254223386
 20
900.1793026389259
 30
0.0
 40
293.1247191045897
100
AcDbArc
 50
285.5906056118579
 51
296.0570046260987
1001
AcDbBlockRepETag
1070
     1
1071
        6
1005
9C4
  0
ARC
  5
A6B
330
1F
100
AcDbEntity
  8
ceco.net 156
100
AcDbCircle
 10
125.0300254223386
 20
900.1793026389259
 30
0.0
 40
293.1247191045897
100
AcDbArc
 50
275.188619528356
 51
281.6489085583064
1001
AcDbBlockRepETag
1070
     1
1071
        6
1005
9C4
  0
ARC
  5
A6C
330
1F
100
AcDbEntity
  8
ceco.net 156
100
AcDbCircle
 10
73.71576386666692
 20
440.9248077930588
 30
0.0
 40
115.6920359334056
100
AcDbArc
 50
36.45758566523493
 51
92.47527507730195
1001
AcDbBlockRepETag
1070
     1
1071
       88
1005
A16
  0
ARC
  5
A6D
330
1F
100
AcDbEntity
  8
ceco.net 156
100
AcDbCircle
 10
308.7817117569485
 20
447.1679433645386
 30
0.0
 40
115.6920359334056
100
AcDbArc
 50
137.6305309944333
 51
212.4752750715069
1001
AcDbBlockRepETag
1070
     1
1071
      107
1005
A29
  0
ARC
  5
A6E
330
1F
100
AcDbEntity
  8
ceco.net 156
 62
    95
100
AcDbCircle
 10
-206.865009606119
 20
597.5062379302162
 30
0.0
 40
32.68315474187394
100
AcDbArc
 50
281.8882347231672
 51
305.4909129687246
1001
AcDbBlockRepETag
1070
     1
1071
      154
1005
A58
  0
ENDSEC
  0
SECTION
  2
OBJECTS
  0
DICTIONARY
  5
C
330
0
100
AcDbDictionary
281
     1
  3
ACAD_GROUP
350
D
  3
ACAD_LAYOUT
350
1A
  3
ACAD_MLINESTYLE
350
17
  3
ACAD_PLOTSETTINGS
350
19
  3
ACAD_PLOTSTYLENAME
350
E
  3
AcDbVariableDictionary
350
115
  3
DWGPROPS
350
8E3
  0
DICTIONARY
  5
907
330
2
100
AcDbDictionary
280
     1
281
     1
  3
ACAD_LAYERFILTERS
360
A6F
  3
ACAD_LAYERSTATES
360
908
  0
DICTIONARY
  5
8FA
330
8F9
100
AcDbDictionary
280
     1
281
     1
  3
ACAD_XREC_ROUNDTRIP
360
8FB
  0
DICTIONARY
  5
D
102
{ACAD_REACTORS
330
C
102
}
330
C
100
AcDbDictionary
281
     1
  0
DICTIONARY
  5
1A
102
{ACAD_REACTORS
330
C
102
}
330
C
100
AcDbDictionary
281
     1
  3
Layout1
350
1E
  3
Layout2
350
26
  3
Model
350
22
  0
DICTIONARY
  5
17
102
{ACAD_REACTORS
330
C
102
}
330
C
100
AcDbDictionary
281
     1
  3
Standard
350
18
  0
DICTIONARY
  5
19
102
{ACAD_REACTORS
330
C
102
}
330
C
100
AcDbDictionary
281
     1
  3
PKL A3 Scale To Fit
350
904
  0
ACDBDICTIONARYWDFLT
  5
E
102
{ACAD_REACTORS
330
C
102
}
330
C
100
AcDbDictionary
281
     1
  3
Normal
350
F
100
AcDbDictionaryWithDefault
340
F
  0
DICTIONARY
  5
115
102
{ACAD_REACTORS
330
C
102
}
330
C
100
AcDbDictionary
281
     1
  3
DIMASSOC
350
117
  3
HIDETEXT
350
116
  0
XRECORD
  5
8E3
102
{ACAD_REACTORS
330
C
102
}
330
C
100
AcDbXrecord
280
     1
  1
DWGPROPS COOKIE
  2
Ceco.NET-Trees-and-Plants - T - xx . 67 . dwg
  3

  4
ceco.net
  6

  7

  8
peacosta
  9

300
=
301
=
302
=
303
=
304
=
305
=
306
=
307
=
308
=
309
=
 40
0.0450312037037037
 41
2455079.811409143
 42
2455838.656599502
  1

 90
        0
  0
DICTIONARY
  5
A6F
102
{ACAD_REACTORS
330
907
102
}
330
907
100
AcDbDictionary
280
     1
281
     1
  0
DICTIONARY
  5
908
102
{ACAD_REACTORS
330
907
102
}
330
907
100
AcDbDictionary
281
     1
  0
XRECORD
  5
8FB
102
{ACAD_REACTORS
330
8FA
102
}
330
8FA
100
AcDbXrecord
280
     1
102
MATERIAL
340
0
  0
LAYOUT
  5
1E
102
{ACAD_REACTORS
330
1A
102
}
330
1A
100
AcDbPlotSettings
  1

  2
Microsoft Office Document Image Writer
  4

  6

 40
0.0
 41
0.0
 42
0.0
 43
0.0
 44
0.0
 45
0.0
 46
0.0
 47
0.0
 48
0.0
 49
0.0
140
0.0
141
0.0
142
1.0
143
1.0
 70
   688
 72
     0
 73
     0
 74
     5
  7

 75
    16
147
1.0
148
0.0
149
0.0
100
AcDbLayout
  1
Layout1
 70
     1
 71
     1
 10
0.0
 20
0.0
 11
420.0
 21
297.0
 12
0.0
 22
0.0
 32
0.0
 14
1.000000000000000E+20
 24
1.000000000000000E+20
 34
1.000000000000000E+20
 15
-1.000000000000000E+20
 25
-1.000000000000000E+20
 35
-1.000000000000000E+20
146
0.0
 13
0.0
 23
0.0
 33
0.0
 16
1.0
 26
0.0
 36
0.0
 17
0.0
 27
1.0
 37
0.0
 76
     0
330
1B
  0
LAYOUT
  5
26
102
{ACAD_REACTORS
330
1A
102
}
330
1A
100
AcDbPlotSettings
  1

  2
Microsoft Office Document Image Writer
  4

  6

 40
0.0
 41
0.0
 42
0.0
 43
0.0
 44
0.0
 45
0.0
 46
0.0
 47
0.0
 48
0.0
 49
0.0
140
0.0
141
0.0
142
1.0
143
1.0
 70
   688
 72
     0
 73
     0
 74
     5
  7

 75
    16
147
1.0
148
0.0
149
0.0
100
AcDbLayout
  1
Layout2
 70
     1
 71
     2
 10
0.0
 20
0.0
 11
12.0
 21
9.0
 12
0.0
 22
0.0
 32
0.0
 14
0.0
 24
0.0
 34
0.0
 15
0.0
 25
0.0
 35
0.0
146
0.0
 13
0.0
 23
0.0
 33
0.0
 16
1.0
 26
0.0
 36
0.0
 17
0.0
 27
1.0
 37
0.0
 76
     0
330
23
  0
LAYOUT
  5
22
102
{ACAD_REACTORS
330
1A
102
}
330
1A
100
AcDbPlotSettings
  1

  2
Microsoft Office Document Image Writer
  4

  6

 40
0.0
 41
0.0
 42
0.0
 43
0.0
 44
0.0
 45
0.0
 46
0.0
 47
0.0
 48
0.0
 49
0.0
140
0.0
141
0.0
142
1.0
143
1.0
 70
  1712
 72
     0
 73
     0
 74
     0
  7

 75
     0
147
1.0
148
0.0
149
0.0
100
AcDbLayout
  1
Model
 70
     1
 71
     0
 10
0.0
 20
0.0
 11
12.0
 21
9.0
 12
0.0
 22
0.0
 32
0.0
 14
0.0
 24
0.0
 34
0.0
 15
0.0
 25
0.0
 35
0.0
146
0.0
 13
0.0
 23
0.0
 33
0.0
 16
1.0
 26
0.0
 36
0.0
 17
0.0
 27
1.0
 37
0.0
 76
     0
330
1F
  0
MLINESTYLE
  5
18
102
{ACAD_REACTORS
330
17
102
}
330
17
100
AcDbMlineStyle
  2
STANDARD
 70
     0
  3

 62
   256
 51
90.0
 52
90.0
 71
     2
 49
0.5
 62
   256
  6
BYLAYER
 49
-0.5
 62
   256
  6
BYLAYER
  0
PLOTSETTINGS
  5
904
102
{ACAD_XDICTIONARY
360
905
102
}
102
{ACAD_REACTORS
330
19
102
}
330
19
100
AcDbPlotSettings
  1
PKL A3 Scale To Fit
  2
CopierCAD
  4
A3
  6

 40
6.805083274841308
 41
5.027085304260253
 42
7.228424072265625
 43
5.027069091796875
 44
296.9259948730469
 45
419.9466552734374
 46
7.84267912534915
 47
0.0
 48
0.0
 49
0.0
140
0.0
141
0.0
142
1.0
143
0.9858994474396954
 70
  2742
 72
     1
 73
     1
 74
     1
  7
PKL-A1-Std2.ctb
 75
     0
147
1.014302221790388
148
7.426264844891875
149
-9.288533315355948
1001
ACAD_PSEXT
1000
CopierCAD
1000
NRG DSc338 PCL 5c
1000
IP_192.168.0.152
1000

1070
     0
  0
ACDBPLACEHOLDER
  5
F
102
{ACAD_REACTORS
330
E
102
}
330
E
  0
DICTIONARYVAR
  5
117
102
{ACAD_REACTORS
330
115
102
}
330
115
100
DictionaryVariables
280
     0
  1
2
  0
DICTIONARYVAR
  5
116
102
{ACAD_REACTORS
330
115
102
}
330
115
100
DictionaryVariables
280
     0
  1
1
  0
DICTIONARY
  5
905
330
904
100
AcDbDictionary
280
     1
281
     1
  3
ACAD_XREC_ROUNDTRIP
360
906
  0
XRECORD
  5
906
102
{ACAD_REACTORS
330
905
102
}
330
905
100
AcDbXrecord
280
     1
102
SHADEPLOT
 70
     1
102
SHADEPLOTRESLEVEL
 70
     2
102
SHADEPLOTCUSTOMDPI
 70
   300
  0
ENDSEC
  0
EOF
