  0
SECTION
  2
HEADER
  9
$ACADVER
  1
AC1015
  9
$ACADMAINTVER
 70
    13
  9
$DWGCODEPAGE
  3
ANSI_1252
  9
$INSBASE
 10
0.0
 20
0.0
 30
0.0
  9
$EXTMIN
 10
-232.1485110460829
 20
-0.0000000000002274
 30
0.0
  9
$EXTMAX
 10
1643.292932449732
 20
1233.62772405141
 30
0.0
  9
$LIMMIN
 10
0.0
 20
0.0
  9
$LIMMAX
 10
420.0
 20
297.0
  9
$ORTHOMODE
 70
     0
  9
$REGENMODE
 70
     1
  9
$FILLMODE
 70
     1
  9
$QTEXTMODE
 70
     0
  9
$MIRRTEXT
 70
     1
  9
$LTSCALE
 40
1.0
  9
$ATTMODE
 70
     1
  9
$TEXTSIZE
 40
2.5
  9
$TRACEWID
 40
1.0
  9
$TEXTSTYLE
  7
Standard
  9
$CLAYER
  8
ceco.net 107
  9
$CELTYPE
  6
ByLayer
  9
$CECOLOR
 62
   256
  9
$CELTSCALE
 40
1.0
  9
$DISPSILH
 70
     0
  9
$DIMSCALE
 40
1.0
  9
$DIMASZ
 40
2.5
  9
$DIMEXO
 40
0.625
  9
$DIMDLI
 40
3.75
  9
$DIMRND
 40
0.0
  9
$DIMDLE
 40
0.0
  9
$DIMEXE
 40
1.25
  9
$DIMTP
 40
0.0
  9
$DIMTM
 40
0.0
  9
$DIMTXT
 40
2.5
  9
$DIMCEN
 40
2.5
  9
$DIMTSZ
 40
0.0
  9
$DIMTOL
 70
     0
  9
$DIMLIM
 70
     0
  9
$DIMTIH
 70
     0
  9
$DIMTOH
 70
     0
  9
$DIMSE1
 70
     0
  9
$DIMSE2
 70
     0
  9
$DIMTAD
 70
     1
  9
$DIMZIN
 70
     8
  9
$DIMBLK
  1

  9
$DIMASO
 70
     1
  9
$DIMSHO
 70
     1
  9
$DIMPOST
  1

  9
$DIMAPOST
  1

  9
$DIMALT
 70
     0
  9
$DIMALTD
 70
     3
  9
$DIMALTF
 40
0.03937007874016
  9
$DIMLFAC
 40
1.0
  9
$DIMTOFL
 70
     1
  9
$DIMTVP
 40
0.0
  9
$DIMTIX
 70
     0
  9
$DIMSOXD
 70
     0
  9
$DIMSAH
 70
     0
  9
$DIMBLK1
  1

  9
$DIMBLK2
  1

  9
$DIMSTYLE
  2
ISO-25
  9
$DIMCLRD
 70
     0
  9
$DIMCLRE
 70
     0
  9
$DIMCLRT
 70
     0
  9
$DIMTFAC
 40
1.0
  9
$DIMGAP
 40
0.625
  9
$DIMJUST
 70
     0
  9
$DIMSD1
 70
     0
  9
$DIMSD2
 70
     0
  9
$DIMTOLJ
 70
     0
  9
$DIMTZIN
 70
     8
  9
$DIMALTZ
 70
     0
  9
$DIMALTTZ
 70
     0
  9
$DIMUPT
 70
     0
  9
$DIMDEC
 70
     2
  9
$DIMTDEC
 70
     2
  9
$DIMALTU
 70
     2
  9
$DIMALTTD
 70
     3
  9
$DIMTXSTY
  7
Standard
  9
$DIMAUNIT
 70
     0
  9
$DIMADEC
 70
     0
  9
$DIMALTRND
 40
0.0
  9
$DIMAZIN
 70
     0
  9
$DIMDSEP
 70
    44
  9
$DIMATFIT
 70
     3
  9
$DIMFRAC
 70
     0
  9
$DIMLDRBLK
  1

  9
$DIMLUNIT
 70
     2
  9
$DIMLWD
 70
    -2
  9
$DIMLWE
 70
    -2
  9
$DIMTMOVE
 70
     0
  9
$LUNITS
 70
     2
  9
$LUPREC
 70
     2
  9
$SKETCHINC
 40
1.0
  9
$FILLETRAD
 40
10.0
  9
$AUNITS
 70
     0
  9
$AUPREC
 70
     0
  9
$MENU
  1
.
  9
$ELEVATION
 40
0.0
  9
$PELEVATION
 40
0.0
  9
$THICKNESS
 40
0.0
  9
$LIMCHECK
 70
     0
  9
$CHAMFERA
 40
10.0
  9
$CHAMFERB
 40
10.0
  9
$CHAMFERC
 40
20.0
  9
$CHAMFERD
 40
0.0
  9
$SKPOLY
 70
     0
  9
$TDCREATE
 40
2455079.811409143
  9
$TDUCREATE
 40
2455079.936409144
  9
$TDUPDATE
 40
2456629.614794618
  9
$TDUUPDATE
 40
2456629.739794617
  9
$TDINDWG
 40
0.0476092593
  9
$TDUSRTIMER
 40
0.0476092593
  9
$USRTIMER
 70
     1
  9
$ANGBASE
 50
0.0
  9
$ANGDIR
 70
     0
  9
$PDMODE
 70
     0
  9
$PDSIZE
 40
0.0
  9
$PLINEWID
 40
0.0
  9
$SPLFRAME
 70
     0
  9
$SPLINETYPE
 70
     6
  9
$SPLINESEGS
 70
     8
  9
$HANDSEED
  5
A9C
  9
$SURFTAB1
 70
     6
  9
$SURFTAB2
 70
     6
  9
$SURFTYPE
 70
     6
  9
$SURFU
 70
     6
  9
$SURFV
 70
     6
  9
$UCSBASE
  2

  9
$UCSNAME
  2

  9
$UCSORG
 10
0.0
 20
0.0
 30
0.0
  9
$UCSXDIR
 10
1.0
 20
0.0
 30
0.0
  9
$UCSYDIR
 10
0.0
 20
1.0
 30
0.0
  9
$UCSORTHOREF
  2

  9
$UCSORTHOVIEW
 70
     0
  9
$UCSORGTOP
 10
0.0
 20
0.0
 30
0.0
  9
$UCSORGBOTTOM
 10
0.0
 20
0.0
 30
0.0
  9
$UCSORGLEFT
 10
0.0
 20
0.0
 30
0.0
  9
$UCSORGRIGHT
 10
0.0
 20
0.0
 30
0.0
  9
$UCSORGFRONT
 10
0.0
 20
0.0
 30
0.0
  9
$UCSORGBACK
 10
0.0
 20
0.0
 30
0.0
  9
$PUCSBASE
  2

  9
$PUCSNAME
  2

  9
$PUCSORG
 10
0.0
 20
0.0
 30
0.0
  9
$PUCSXDIR
 10
1.0
 20
0.0
 30
0.0
  9
$PUCSYDIR
 10
0.0
 20
1.0
 30
0.0
  9
$PUCSORTHOREF
  2

  9
$PUCSORTHOVIEW
 70
     0
  9
$PUCSORGTOP
 10
0.0
 20
0.0
 30
0.0
  9
$PUCSORGBOTTOM
 10
0.0
 20
0.0
 30
0.0
  9
$PUCSORGLEFT
 10
0.0
 20
0.0
 30
0.0
  9
$PUCSORGRIGHT
 10
0.0
 20
0.0
 30
0.0
  9
$PUCSORGFRONT
 10
0.0
 20
0.0
 30
0.0
  9
$PUCSORGBACK
 10
0.0
 20
0.0
 30
0.0
  9
$USERI1
 70
     0
  9
$USERI2
 70
     0
  9
$USERI3
 70
     0
  9
$USERI4
 70
     0
  9
$USERI5
 70
     0
  9
$USERR1
 40
0.0
  9
$USERR2
 40
0.0
  9
$USERR3
 40
0.0
  9
$USERR4
 40
0.0
  9
$USERR5
 40
0.0
  9
$WORLDVIEW
 70
     1
  9
$SHADEDGE
 70
     3
  9
$SHADEDIF
 70
    70
  9
$TILEMODE
 70
     1
  9
$MAXACTVP
 70
    64
  9
$PINSBASE
 10
0.0
 20
0.0
 30
0.0
  9
$PLIMCHECK
 70
     0
  9
$PEXTMIN
 10
1.000000000000000E+20
 20
1.000000000000000E+20
 30
1.000000000000000E+20
  9
$PEXTMAX
 10
-1.000000000000000E+20
 20
-1.000000000000000E+20
 30
-1.000000000000000E+20
  9
$PLIMMIN
 10
0.0
 20
0.0
  9
$PLIMMAX
 10
420.0
 20
297.0
  9
$UNITMODE
 70
     0
  9
$VISRETAIN
 70
     1
  9
$PLINEGEN
 70
     0
  9
$PSLTSCALE
 70
     1
  9
$TREEDEPTH
 70
  3020
  9
$CMLSTYLE
  2
Standard
  9
$CMLJUST
 70
     0
  9
$CMLSCALE
 40
20.0
  9
$PROXYGRAPHICS
 70
     1
  9
$MEASUREMENT
 70
     1
  9
$CELWEIGHT
370
    -1
  9
$ENDCAPS
280
     0
  9
$JOINSTYLE
280
     0
  9
$LWDISPLAY
290
     0
  9
$INSUNITS
 70
     4
  9
$HYPERLINKBASE
  1

  9
$STYLESHEET
  1

  9
$XEDIT
290
     1
  9
$CEPSNTYPE
380
     0
  9
$PSTYLEMODE
290
     1
  9
$FINGERPRINTGUID
  2
{81085373-3A21-4932-80AA-8F6C3258C50C}
  9
$VERSIONGUID
  2
{B2E3396A-D4BC-42B4-8918-76914FCB3230}
  9
$EXTNAMES
290
     1
  9
$PSVPSCALE
 40
0.0
  9
$OLESTARTUP
290
     0
  0
ENDSEC
  0
SECTION
  2
CLASSES
  0
CLASS
  1
ACDBDICTIONARYWDFLT
  2
AcDbDictionaryWithDefault
  3
AutoCAD 2000
 90
        0
280
     0
281
     0
  0
CLASS
  1
ACDBPLACEHOLDER
  2
AcDbPlaceHolder
  3
AutoCAD 2000
 90
        0
280
     0
281
     0
  0
CLASS
  1
LAYOUT
  2
AcDbLayout
  3
AutoCAD 2000
 90
        0
280
     0
281
     0
  0
CLASS
  1
DICTIONARYVAR
  2
AcDbDictionaryVar
  3
AutoCAD 2000
 90
        0
280
     0
281
     0
  0
ENDSEC
  0
SECTION
  2
TABLES
  0
TABLE
  2
VPORT
  5
8
330
0
100
AcDbSymbolTable
 70
     4
  0
VPORT
  5
A9B
330
8
100
AcDbSymbolTableRecord
100
AcDbViewportTableRecord
  2
*Active
 70
     0
 10
0.0
 20
0.0
 11
1.0
 21
1.0
 12
705.572210701825
 22
616.8138620257052
 13
0.0
 23
0.0
 14
10.0
 24
10.0
 15
10.0
 25
10.0
 16
0.0
 26
0.0
 36
1.0
 17
0.0
 27
0.0
 37
0.0
 40
1242.387210849409
 41
2.184834123222748
 42
50.0
 43
0.0
 44
0.0
 50
0.0
 51
0.0
 71
     0
 72
   100
 73
     1
 74
     3
 75
     0
 76
     0
 77
     0
 78
     0
281
     0
 65
     1
110
0.0
120
0.0
130
0.0
111
1.0
121
0.0
131
0.0
112
0.0
122
1.0
132
0.0
 79
     0
146
0.0
  0
ENDTAB
  0
TABLE
  2
LTYPE
  5
5
330
0
100
AcDbSymbolTable
 70
     1
  0
LTYPE
  5
14
330
5
100
AcDbSymbolTableRecord
100
AcDbLinetypeTableRecord
  2
ByBlock
 70
     0
  3

 72
    65
 73
     0
 40
0.0
  0
LTYPE
  5
15
330
5
100
AcDbSymbolTableRecord
100
AcDbLinetypeTableRecord
  2
ByLayer
 70
     0
  3

 72
    65
 73
     0
 40
0.0
  0
LTYPE
  5
16
330
5
100
AcDbSymbolTableRecord
100
AcDbLinetypeTableRecord
  2
Continuous
 70
     0
  3
Solid line
 72
    65
 73
     0
 40
0.0
  0
ENDTAB
  0
TABLE
  2
LAYER
  5
2
330
0
100
AcDbSymbolTable
 70
     2
  0
LAYER
  5
10
330
2
100
AcDbSymbolTableRecord
100
AcDbLayerTableRecord
  2
0
 70
     0
 62
     7
  6
Continuous
370
    -3
390
F
  0
LAYER
  5
8F1
102
{ACAD_XDICTIONARY
360
8F2
102
}
330
2
100
AcDbSymbolTableRecord
100
AcDbLayerTableRecord
  2
ceco.net 107
 70
     0
 62
     7
  6
Continuous
370
    -3
390
F
1001
AcAecLayerStandard
1000

1000

  0
ENDTAB
  0
TABLE
  2
STYLE
  5
3
330
0
100
AcDbSymbolTable
 70
     1
  0
STYLE
  5
11
330
3
100
AcDbSymbolTableRecord
100
AcDbTextStyleTableRecord
  2
Standard
 70
     0
 40
0.0
 41
1.0
 50
0.0
 71
     0
 42
2.5
  3
txt
  4

  0
ENDTAB
  0
TABLE
  2
VIEW
  5
6
330
0
100
AcDbSymbolTable
 70
     0
  0
ENDTAB
  0
TABLE
  2
UCS
  5
7
330
0
100
AcDbSymbolTable
 70
     0
  0
ENDTAB
  0
TABLE
  2
APPID
  5
9
330
0
100
AcDbSymbolTable
 70
     5
  0
APPID
  5
12
330
9
100
AcDbSymbolTableRecord
100
AcDbRegAppTableRecord
  2
ACAD
 70
     0
  0
APPID
  5
2C
330
9
100
AcDbSymbolTableRecord
100
AcDbRegAppTableRecord
  2
ACAD_DSTYLE_DIMJOGGED_JOGANGLE_SYMBOL
 70
     0
  0
APPID
  5
11B
330
9
100
AcDbSymbolTableRecord
100
AcDbRegAppTableRecord
  2
ACAD_NAV_VCDISPLAY
 70
     0
  0
APPID
  5
11C
330
9
100
AcDbSymbolTableRecord
100
AcDbRegAppTableRecord
  2
ACAD_MLEADERVER
 70
     0
  0
APPID
  5
8F4
330
9
100
AcDbSymbolTableRecord
100
AcDbRegAppTableRecord
  2
AcAecLayerStandard
 70
     0
  0
ENDTAB
  0
TABLE
  2
DIMSTYLE
  5
A
330
0
100
AcDbSymbolTable
 70
     2
100
AcDbDimStyleTable
 71
     0
  0
DIMSTYLE
105
27
330
A
100
AcDbSymbolTableRecord
100
AcDbDimStyleTableRecord
  2
ISO-25
 70
     0
 41
2.5
 42
0.625
 43
3.75
 44
1.25
 73
     0
 74
     0
 77
     1
 78
     8
140
2.5
141
2.5
143
0.03937007874016
147
0.625
171
     3
172
     1
271
     2
272
     2
274
     3
278
    44
283
     0
284
     8
340
11
  0
DIMSTYLE
105
2B
330
A
100
AcDbSymbolTableRecord
100
AcDbDimStyleTableRecord
  2
Standard
 70
     0
340
11
  0
ENDTAB
  0
TABLE
  2
BLOCK_RECORD
  5
1
330
0
100
AcDbSymbolTable
 70
     2
  0
BLOCK_RECORD
  5
1F
330
1
100
AcDbSymbolTableRecord
100
AcDbBlockTableRecord
  2
*Model_Space
340
22
  0
BLOCK_RECORD
  5
1B
330
1
100
AcDbSymbolTableRecord
100
AcDbBlockTableRecord
  2
*Paper_Space
340
1E
  0
BLOCK_RECORD
  5
23
330
1
100
AcDbSymbolTableRecord
100
AcDbBlockTableRecord
  2
*Paper_Space0
340
26
  0
ENDTAB
  0
ENDSEC
  0
SECTION
  2
BLOCKS
  0
BLOCK
  5
20
330
1F
100
AcDbEntity
  8
0
100
AcDbBlockBegin
  2
*Model_Space
 70
     0
 10
0.0
 20
0.0
 30
0.0
  3
*Model_Space
  1

  0
ENDBLK
  5
21
330
1F
100
AcDbEntity
  8
0
100
AcDbBlockEnd
  0
BLOCK
  5
1C
330
1B
100
AcDbEntity
 67
     1
  8
0
100
AcDbBlockBegin
  2
*Paper_Space
 70
     0
 10
0.0
 20
0.0
 30
0.0
  3
*Paper_Space
  1

  0
ENDBLK
  5
1D
330
1B
100
AcDbEntity
 67
     1
  8
0
100
AcDbBlockEnd
  0
BLOCK
  5
24
330
23
100
AcDbEntity
  8
0
100
AcDbBlockBegin
  2
*Paper_Space0
 70
     0
 10
0.0
 20
0.0
 30
0.0
  3
*Paper_Space0
  1

  0
ENDBLK
  5
25
330
23
100
AcDbEntity
  8
0
100
AcDbBlockEnd
  0
ENDSEC
  0
SECTION
  2
ENTITIES
  0
ARC
  5
9C9
330
1F
100
AcDbEntity
  8
ceco.net 107
100
AcDbCircle
 10
1404.582210701825
 20
255.1997240514099
 30
0.0
 40
400.0
100
AcDbArc
 50
133.3839
 51
143.0885
  0
ARC
  5
9CA
330
1F
100
AcDbEntity
  8
ceco.net 107
100
AcDbCircle
 10
1098.492210701824
 20
480.8897240514101
 30
0.0
 40
20.0
100
AcDbArc
 50
133.3839999999999
 51
273.169
  0
ARC
  5
9CB
330
1F
100
AcDbEntity
  8
ceco.net 107
100
AcDbCircle
 10
1225.772210701824
 20
473.8297240514098
 30
0.0
 40
120.0
100
AcDbArc
 50
111.3154999999999
 51
155.0349999999999
  0
ARC
  5
9CC
330
1F
100
AcDbEntity
  8
ceco.net 107
100
AcDbCircle
 10
1479.612210701825
 20
355.6597240514099
 30
0.0
 40
400.0
100
AcDbArc
 50
155.0351
 51
159.5604
  0
ARC
  5
9CD
330
1F
100
AcDbEntity
  8
ceco.net 107
100
AcDbCircle
 10
1123.532210701824
 20
488.35972405141
 30
0.0
 40
20.0
100
AcDbArc
 50
159.56
 51
272.726
  0
ARC
  5
9CE
330
1F
100
AcDbEntity
  8
ceco.net 107
100
AcDbCircle
 10
1356.342210701824
 20
551.9497240514101
 30
0.0
 40
72.44759999999999
100
AcDbArc
 50
272.726
 51
335.4629999999999
  0
ARC
  5
9CF
330
1F
100
AcDbEntity
  8
ceco.net 107
100
AcDbCircle
 10
1293.862210701824
 20
292.10972405141
 30
0.0
 40
9.999989999999998
100
AcDbArc
 50
90.0
 51
171.96617
  0
ARC
  5
9D0
330
1F
100
AcDbEntity
  8
ceco.net 107
100
AcDbCircle
 10
1373.112210701824
 20
292.10972405141
 30
0.0
 40
10.0
100
AcDbArc
 50
355.114
 51
90.0
  0
ARC
  5
9D1
330
1F
100
AcDbEntity
  8
ceco.net 107
100
AcDbCircle
 10
1206.902210701824
 20
306.31972405141
 30
0.0
 40
176.8109999999999
100
AcDbArc
 50
335.657
 51
355.114
  0
ARC
  5
9D2
330
1F
100
AcDbEntity
  8
ceco.net 107
100
AcDbCircle
 10
1349.772210701824
 20
241.6797240514099
 30
0.0
 40
20.0
100
AcDbArc
 50
273.7119999999999
 51
335.657
  0
ARC
  5
9D3
330
1F
100
AcDbEntity
  8
ceco.net 107
100
AcDbCircle
 10
756.2122107018247
 20
9387.68972405141
 30
0.0
 40
9185.27
100
AcDbArc
 50
273.2569999999999
 51
273.7129999999999
  0
ARC
  5
9D4
330
1F
100
AcDbEntity
  8
ceco.net 107
100
AcDbCircle
 10
1277.512210701824
 20
227.2597240514101
 30
0.0
 40
10.0
100
AcDbArc
 50
159.7239999999999
 51
273.2539999999999
  0
ARC
  5
9D5
330
1F
100
AcDbEntity
  8
ceco.net 107
100
AcDbCircle
 10
983.3322107018251
 20
335.9397240514099
 30
0.0
 40
303.608
100
AcDbArc
 50
339.724
 51
351.966
  0
ARC
  5
9D6
330
1F
100
AcDbEntity
  8
ceco.net 107
100
AcDbCircle
 10
1141.642210701824
 20
490.4997240514099
 30
0.0
 40
434.1029999999999
100
AcDbArc
 50
23.4
 51
39.375
  0
ARC
  5
9D7
330
1F
100
AcDbEntity
  8
ceco.net 107
100
AcDbCircle
 10
705.5722107018247
 20
-19365.91027594859
 30
0.0
 40
19934.5
100
AcDbArc
 50
89.05390000000002
 51
90.0
  0
ARC
  5
9D8
330
1F
100
AcDbEntity
  8
ceco.net 107
100
AcDbCircle
 10
318.832210701825
 20
499.5797240514098
 30
0.0
 40
1121.569999999999
100
AcDbArc
 50
15.565
 51
31.52000000000001
  0
ARC
  5
9D9
330
1F
100
AcDbEntity
  8
ceco.net 107
100
AcDbCircle
 10
1141.642210701824
 20
490.4997240514099
 30
0.0
 40
437.725
100
AcDbArc
 50
32.856
 51
39.375
  0
ARC
  5
9DA
330
1F
100
AcDbEntity
  8
ceco.net 107
100
AcDbCircle
 10
1402.532210701824
 20
704.6197240514102
 30
0.0
 40
100.2189999999999
100
AcDbArc
 50
39.375
 51
55.761
  0
ARC
  5
9DB
330
1F
100
AcDbEntity
  8
ceco.net 107
100
AcDbCircle
 10
1517.282210701824
 20
734.0197240514099
 30
0.0
 40
6.0373
100
AcDbArc
 50
270.0
 51
357.979
  0
ARC
  5
9DC
330
1F
100
AcDbEntity
  8
ceco.net 107
100
AcDbCircle
 10
1625.642210701824
 20
855.7697240514098
 30
0.0
 40
18.11189999999999
100
AcDbArc
 50
346.6639999999999
 51
24.56
  0
ARC
  5
9DD
330
1F
100
AcDbEntity
  8
ceco.net 107
100
AcDbCircle
 10
1477.392210701825
 20
879.52972405141
 30
0.0
 40
168.2549999999999
100
AcDbArc
 50
341.3559999999999
 51
350.404
  0
ARC
  5
9DE
330
1F
100
AcDbEntity
  8
ceco.net 107
100
AcDbCircle
 10
1462.272210701824
 20
1516.87972405141
 30
0.0
 40
721.2989999999999
100
AcDbArc
 50
269.982
 51
282.9329999999999
  0
ARC
  5
9DF
330
1F
100
AcDbEntity
  8
ceco.net 107
100
AcDbCircle
 10
1323.682210701825
 20
717.7697240514098
 30
0.0
 40
350.1119999999999
100
AcDbArc
 50
24.56
 51
35.19899999999999
  0
ARC
  5
9E0
330
1F
100
AcDbEntity
  8
ceco.net 107
100
AcDbCircle
 10
1495.092210701824
 20
916.8097240514098
 30
0.0
 40
18.1121
100
AcDbArc
 50
90.0
 51
157.5204
  0
ARC
  5
9E1
330
1F
100
AcDbEntity
  8
ceco.net 107
100
AcDbCircle
 10
1619.652210701824
 20
831.52972405141
 30
0.0
 40
18.11189999999999
100
AcDbArc
 50
282.9329999999999
 51
341.3559999999999
  0
ARC
  5
9E2
330
1F
100
AcDbEntity
  8
ceco.net 107
100
AcDbCircle
 10
1580.172210701825
 20
898.6997240514101
 30
0.0
 40
36.22379999999999
100
AcDbArc
 50
35.19899999999999
 51
90.0
  0
ARC
  5
9E3
330
1F
100
AcDbEntity
  8
ceco.net 107
100
AcDbCircle
 10
1703.312210701825
 20
829.9997240514098
 30
0.0
 40
243.705
100
AcDbArc
 50
157.378
 51
188.118
  0
ARC
  5
9E4
330
1F
100
AcDbEntity
  8
ceco.net 107
100
AcDbCircle
 10
1402.532210701824
 20
704.6197240514102
 30
0.0
 40
96.5967
100
AcDbArc
 50
39.375
 51
76.65100000000001
  0
ARC
  5
9E5
330
1F
100
AcDbEntity
  8
ceco.net 107
100
AcDbCircle
 10
2678.242210701824
 20
-1236.57727594859
 30
0.0
 40
2390.179999999999
100
AcDbArc
 50
121.6276999999999
 51
133.0795999999999
  0
ARC
  5
9E6
330
1F
100
AcDbEntity
  8
ceco.net 107
100
AcDbCircle
 10
979.7422107018249
 20
579.7797240514101
 30
0.0
 40
96.5967
100
AcDbArc
 50
269.274
 51
313.08
  0
ARC
  5
9E7
330
1F
100
AcDbEntity
  8
ceco.net 107
100
AcDbCircle
 10
2748.962210701825
 20
-1275.35727594859
 30
0.0
 40
2489.58
100
AcDbArc
 50
124.8380999999999
 51
131.4695
  0
ARC
  5
9E8
330
1F
100
AcDbEntity
  8
ceco.net 107
100
AcDbCircle
 10
1036.332210701825
 20
662.4897240514101
 30
0.0
 40
96.5967
100
AcDbArc
 50
269.054
 51
311.469
  0
ARC
  5
9E9
330
1F
100
AcDbEntity
  8
ceco.net 107
100
AcDbCircle
 10
1271.582210701825
 20
847.29972405141
 30
0.0
 40
96.5967
100
AcDbArc
 50
304.838
 51
333.034
  0
ARC
  5
9EA
330
1F
100
AcDbEntity
  8
ceco.net 107
100
AcDbCircle
 10
1098.312210701825
 20
669.7397240514101
 30
0.0
 40
356.088
100
AcDbArc
 50
335.4629999999999
 51
346.686
  0
ARC
  5
9EB
330
1F
100
AcDbEntity
  8
ceco.net 107
100
AcDbCircle
 10
1414.872210701824
 20
28.59972405141002
 30
0.0
 40
603.73
100
AcDbArc
 50
90.53370000000001
 51
112.6744
  0
ARC
  5
9EC
330
1F
100
AcDbEntity
  8
ceco.net 107
100
AcDbCircle
 10
1409.582210701825
 20
596.0797240514097
 30
0.0
 40
36.22379999999999
100
AcDbArc
 50
346.686
 51
90.53370000000001
  0
ARC
  5
9ED
330
1F
100
AcDbEntity
  8
ceco.net 107
100
AcDbCircle
 10
1054.662210701825
 20
341.2297240514101
 30
0.0
 40
18.11189999999999
100
AcDbArc
 50
349.669
 51
90.0
  0
ARC
  5
9EE
330
1F
100
AcDbEntity
  8
ceco.net 107
100
AcDbCircle
 10
994.0322107018248
 20
265.9697240514101
 30
0.0
 40
48.2984
100
AcDbArc
 50
270.0
 51
328.37
  0
ARC
  5
9EF
330
1F
100
AcDbEntity
  8
ceco.net 107
100
AcDbCircle
 10
794.9822107018246
 20
388.56972405141
 30
0.0
 40
282.0759999999999
100
AcDbArc
 50
328.37
 51
349.669
  0
ARC
  5
9F0
330
1F
100
AcDbEntity
  8
ceco.net 107
100
AcDbCircle
 10
794.9822107018246
 20
388.56972405141
 30
0.0
 40
318.299
100
AcDbArc
 50
331.0579999999999
 51
351.304
  0
ARC
  5
9F1
330
1F
100
AcDbEntity
  8
ceco.net 107
100
AcDbCircle
 10
1010.132210701824
 20
269.59972405141
 30
0.0
 40
72.44759999999999
100
AcDbArc
 50
270.0
 51
331.0579999999999
  0
ARC
  5
9F2
330
1F
100
AcDbEntity
  8
ceco.net 107
100
AcDbCircle
 10
1073.812210701825
 20
345.9197240514099
 30
0.0
 40
36.22379999999999
100
AcDbArc
 50
351.304
 51
90.0
  0
ARC
  5
9F3
330
1F
100
AcDbEntity
  8
ceco.net 107
100
AcDbCircle
 10
983.3322107018251
 20
335.9397240514099
 30
0.0
 40
293.608
100
AcDbArc
 50
333.627
 51
355.345
  0
ARC
  5
9F4
330
1F
100
AcDbEntity
  8
ceco.net 107
100
AcDbCircle
 10
1345.592210701824
 20
247.6497240514099
 30
0.0
 40
36.22379999999999
100
AcDbArc
 50
273.689
 51
337.069
  0
ARC
  5
9F5
330
1F
100
AcDbEntity
  8
ceco.net 107
100
AcDbCircle
 10
1375.152210701824
 20
293.9997240514101
 30
0.0
 40
18.11189999999999
100
AcDbArc
 50
355.8119999999999
 51
90.10709999999996
  0
ARC
  5
9F6
330
1F
100
AcDbEntity
  8
ceco.net 107
100
AcDbCircle
 10
756.2122107018247
 20
9387.68972405141
 30
0.0
 40
9195.27
100
AcDbArc
 50
272.245
 51
273.689
  0
ARC
  5
9F7
330
1F
100
AcDbEntity
  8
ceco.net 107
100
AcDbCircle
 10
1206.902210701824
 20
306.31972405141
 30
0.0
 40
186.8109999999999
100
AcDbArc
 50
337.069
 51
355.8119999999999
  0
ARC
  5
9F8
330
1F
100
AcDbEntity
  8
ceco.net 107
100
AcDbCircle
 10
1345.592210701824
 20
842.2997240514101
 30
0.0
 40
90.4964
100
AcDbArc
 50
331.1240000000001
 51
11.30700000000001
  0
ARC
  5
9F9
330
1F
100
AcDbEntity
  8
ceco.net 107
100
AcDbCircle
 10
1319.392210701825
 20
1102.419724051409
 30
0.0
 40
12.0746
100
AcDbArc
 50
29.56200000000002
 51
149.4353999999999
  0
ARC
  5
9FA
330
1F
100
AcDbEntity
  8
ceco.net 107
100
AcDbCircle
 10
1306.692210701824
 20
1124.13972405141
 30
0.0
 40
12.0746
100
AcDbArc
 50
32.38100000000002
 51
149.4353999999999
  0
ARC
  5
9FB
330
1F
100
AcDbEntity
  8
ceco.net 107
100
AcDbCircle
 10
1194.522210701824
 20
1053.00972405141
 30
0.0
 40
144.895
100
AcDbArc
 50
30.62799999999999
 51
81.64220000000002
  0
ARC
  5
9FC
330
1F
100
AcDbEntity
  8
ceco.net 107
100
AcDbCircle
 10
1192.572210701824
 20
1035.42972405141
 30
0.0
 40
96.5967
100
AcDbArc
 50
31.52000000000001
 51
81.81690000000001
  0
ARC
  5
9FD
330
1F
100
AcDbEntity
  8
ceco.net 107
100
AcDbCircle
 10
1187.412210701825
 20
1032.29972405141
 30
0.0
 40
114.709
100
AcDbArc
 50
31.52200000000002
 51
81.8621
  0
ARC
  5
9FE
330
1F
100
AcDbEntity
  8
ceco.net 107
100
AcDbCircle
 10
1192.942210701824
 20
1034.83972405141
 30
0.0
 40
120.746
100
AcDbArc
 50
31.48099999999999
 51
81.75010000000002
  0
ARC
  5
9FF
330
1F
100
AcDbEntity
  8
ceco.net 107
100
AcDbCircle
 10
318.832210701825
 20
499.5797240514098
 30
0.0
 40
1133.64
100
AcDbArc
 50
15.34499999999999
 51
31.52200000000002
  0
ARC
  5
A00
330
1F
100
AcDbEntity
  8
ceco.net 107
100
AcDbCircle
 10
318.832210701825
 20
499.5797240514098
 30
0.0
 40
1145.72
100
AcDbArc
 50
15.12900000000002
 51
31.48099999999999
  0
ARC
  5
A01
330
1F
100
AcDbEntity
  8
ceco.net 107
100
AcDbCircle
 10
333.3222107018248
 20
543.12972405141
 30
0.0
 40
1145.72
100
AcDbArc
 50
16.058
 51
30.62799999999999
  0
ARC
  5
A02
330
1F
100
AcDbEntity
  8
ceco.net 107
100
AcDbCircle
 10
705.5722107018247
 20
-2275.122275948589
 30
0.0
 40
3508.75
100
AcDbArc
 50
81.64220000000002
 51
90.0
  0
ARC
  5
A03
330
1F
100
AcDbEntity
  8
ceco.net 107
100
AcDbCircle
 10
705.5722107018247
 20
-2326.52227594859
 30
0.0
 40
3517.25
100
AcDbArc
 50
81.75010000000002
 51
90.0
  0
ARC
  5
A04
330
1F
100
AcDbEntity
  8
ceco.net 107
100
AcDbCircle
 10
705.5722107018247
 20
-2337.34827594859
 30
0.0
 40
3518.63
100
AcDbArc
 50
81.8621
 51
90.0
  0
ARC
  5
A05
330
1F
100
AcDbEntity
  8
ceco.net 107
100
AcDbCircle
 10
705.5722107018247
 20
-2351.21227594859
 30
0.0
 40
3518.079999999999
100
AcDbArc
 50
81.81690000000001
 51
90.0
  0
ARC
  5
A06
330
1F
100
AcDbEntity
  8
ceco.net 107
100
AcDbCircle
 10
517.4822107018246
 20
1263.31972405141
 30
0.0
 40
701.308
100
AcDbArc
 50
351.059
 51
354.521
  0
ARC
  5
A07
330
1F
100
AcDbEntity
  8
ceco.net 107
100
AcDbCircle
 10
1500.982210701824
 20
153.2697240514101
 30
0.0
 40
12.0746
100
AcDbArc
 50
270.0
 51
347.3179999999999
  0
ARC
  5
A08
330
1F
100
AcDbEntity
  8
ceco.net 107
100
AcDbCircle
 10
1417.472210701824
 20
741.2397240514101
 30
0.0
 40
120.0
100
AcDbArc
 50
68.87944202928553
 51
81.9247
  0
ARC
  5
A09
330
1F
100
AcDbEntity
  8
ceco.net 107
100
AcDbCircle
 10
1166.822210701824
 20
551.9497240514101
 30
0.0
 40
434.1029999999999
100
AcDbArc
 50
27.07100000000001
 51
34.56780073864921
  0
ARC
  5
A0A
330
1F
100
AcDbEntity
  8
ceco.net 107
100
AcDbCircle
 10
888.9722107018249
 20
619.0197240514098
 30
0.0
 40
681.404
100
AcDbArc
 50
2.737000000000008
 51
8.507999999999992
  0
ARC
  5
A0B
330
1F
100
AcDbEntity
  8
ceco.net 107
100
AcDbCircle
 10
1594.382210701824
 20
761.0797240514098
 30
0.0
 40
112.207
100
AcDbArc
 50
241.0325752645936
 51
262.929
  0
ARC
  5
A0C
330
1F
100
AcDbEntity
  8
ceco.net 107
100
AcDbCircle
 10
1467.352210701825
 20
705.5397240514098
 30
0.0
 40
96.5967
100
AcDbArc
 50
8.507999999999992
 51
27.07100000000001
  0
ARC
  5
A0D
330
1F
100
AcDbEntity
  8
ceco.net 107
100
AcDbCircle
 10
-1017.877789298175
 20
666.5797240514097
 30
0.0
 40
2598.5
100
AcDbArc
 50
350.7979999999999
 51
359.6279999999999
  0
ARC
  5
A0E
330
1F
100
AcDbEntity
  8
ceco.net 107
100
AcDbCircle
 10
-1338.457789298175
 20
792.16972405141
 30
0.0
 40
2922.5
100
AcDbArc
 50
347.319
 51
357.2059999999999
  0
LINE
  5
A0F
330
1F
100
AcDbEntity
  8
ceco.net 107
100
AcDbLine
 10
1549.232210701824
 20
485.81972405141
 30
0.0
 11
1099.592210701825
 21
460.9297240514101
 31
0.0
  0
LINE
  5
A10
330
1F
100
AcDbEntity
  8
ceco.net 107
100
AcDbLine
 10
705.5722107018243
 20
165.2097240514101
 30
0.0
 11
1516.002210701824
 21
165.2097240514099
 31
0.0
  0
LINE
  5
A11
330
1F
100
AcDbEntity
  8
ceco.net 107
100
AcDbLine
 10
1124.482210701824
 20
468.37972405141
 30
0.0
 11
1359.792210701824
 21
479.58972405141
 31
0.0
  0
LINE
  5
A12
330
1F
100
AcDbEntity
  8
ceco.net 107
100
AcDbLine
 10
1373.102210701825
 20
302.10972405141
 30
0.0
 11
1293.862210701824
 21
302.10972405141
 31
0.0
  0
LINE
  5
A13
330
1F
100
AcDbEntity
  8
ceco.net 107
100
AcDbLine
 10
1547.182210701825
 20
329.4897240514101
 30
0.0
 11
1547.182210701825
 21
50.00000000000023
 31
0.0
  0
LINE
  5
A14
330
1F
100
AcDbEntity
  8
ceco.net 107
100
AcDbLine
 10
1572.632210701824
 20
534.1797240514101
 30
0.0
 11
1427.592210701824
 21
534.1797240514101
 31
0.0
  0
LINE
  5
A15
330
1F
100
AcDbEntity
  8
ceco.net 107
100
AcDbLine
 10
915.9487076081921
 20
441.0331912355209
 30
0.0
 11
915.9487076081921
 21
323.62972405141
 31
0.0
  0
LINE
  5
A16
330
1F
100
AcDbEntity
  8
ceco.net 107
100
AcDbLine
 10
705.5722107018247
 20
441.0331912355209
 30
0.0
 11
915.9487076081921
 21
441.0331912355209
 31
0.0
  0
LINE
  5
A17
330
1F
100
AcDbEntity
  8
ceco.net 107
100
AcDbLine
 10
705.5722107018247
 20
197.1497240514099
 30
0.0
 11
1010.132210701824
 21
197.1497240514099
 31
0.0
  0
LINE
  5
A18
330
1F
100
AcDbEntity
  8
ceco.net 107
100
AcDbLine
 10
1517.282210701824
 20
727.9797240514099
 30
0.0
 11
1509.352210701825
 21
727.9797240514099
 31
0.0
  0
LINE
  5
A19
330
1F
100
AcDbEntity
  8
ceco.net 107
100
AcDbLine
 10
1462.052210701824
 20
795.5797240514097
 30
0.0
 11
1458.922210701824
 21
787.4697240514101
 31
0.0
  0
LINE
  5
A1A
330
1F
100
AcDbEntity
  8
ceco.net 107
100
AcDbLine
 10
1523.322210701824
 20
733.79972405141
 30
0.0
 11
1525.602210701825
 21
798.3697240514102
 31
0.0
  0
LINE
  5
A1B
330
1F
100
AcDbEntity
  8
ceco.net 107
100
AcDbLine
 10
1580.172210701825
 20
934.9297240514102
 30
0.0
 11
1495.092210701824
 21
934.9297240514102
 31
0.0
  0
LINE
  5
A1C
330
1F
100
AcDbEntity
  8
ceco.net 107
100
AcDbLine
 10
1375.152210701824
 20
312.1097240514099
 30
0.0
 11
1133.952210701824
 21
312.1097240514099
 31
0.0
  0
LINE
  5
A1D
330
1F
100
AcDbEntity
  8
ceco.net 107
100
AcDbLine
 10
1054.662210701825
 20
359.33972405141
 30
0.0
 11
915.9487076081921
 21
359.33972405141
 31
0.0
  0
LINE
  5
A1E
330
1F
100
AcDbEntity
  8
ceco.net 107
100
AcDbLine
 10
1073.812210701825
 20
382.1497240514099
 30
0.0
 11
915.9487076081921
 21
382.1497240514099
 31
0.0
  0
LINE
  5
A1F
330
1F
100
AcDbEntity
  8
ceco.net 107
100
AcDbLine
 10
1299.352210701825
 20
1092.23972405141
 30
0.0
 11
1308.992210701825
 21
1108.55972405141
 31
0.0
  0
LINE
  5
A20
330
1F
100
AcDbEntity
  8
ceco.net 107
100
AcDbLine
 10
1285.622210701825
 20
1112.21972405141
 30
0.0
 11
1296.292210701824
 21
1130.27972405141
 31
0.0
  0
LINE
  5
A21
330
1F
100
AcDbEntity
  8
ceco.net 107
100
AcDbLine
 10
997.702210701825
 20
116.10972405141
 30
0.0
 11
948.5022107018247
 21
116.10972405141
 31
0.0
  0
LINE
  5
A22
330
1F
100
AcDbEntity
  8
ceco.net 107
100
AcDbLine
 10
1120.702210701824
 20
116.10972405141
 30
0.0
 11
1069.602210701825
 21
116.10972405141
 31
0.0
  0
LINE
  5
A23
330
1F
100
AcDbEntity
  8
ceco.net 107
100
AcDbLine
 10
1120.702210701824
 20
141.1897240514099
 30
0.0
 11
1120.702210701824
 21
116.10972405141
 31
0.0
  0
LINE
  5
A24
330
1F
100
AcDbEntity
  8
ceco.net 107
100
AcDbLine
 10
1069.602210701825
 20
106.6497240514099
 30
0.0
 11
1069.602210701825
 21
141.1897240514099
 31
0.0
  0
LINE
  5
A25
330
1F
100
AcDbEntity
  8
ceco.net 107
100
AcDbLine
 10
997.702210701825
 20
106.6497240514099
 30
0.0
 11
1069.602210701825
 21
106.6497240514099
 31
0.0
  0
LINE
  5
A26
330
1F
100
AcDbEntity
  8
ceco.net 107
100
AcDbLine
 10
997.702210701825
 20
141.1897240514099
 30
0.0
 11
997.702210701825
 21
106.6497240514099
 31
0.0
  0
LINE
  5
A27
330
1F
100
AcDbEntity
  8
ceco.net 107
100
AcDbLine
 10
948.5022107018247
 20
108.53972405141
 30
0.0
 11
948.5022107018247
 21
141.1897240514099
 31
0.0
  0
LINE
  5
A28
330
1F
100
AcDbEntity
  8
ceco.net 107
100
AcDbLine
 10
948.5022107018247
 20
108.53972405141
 30
0.0
 11
705.5722107018247
 21
108.5397240514098
 31
0.0
  0
LINE
  5
A29
330
1F
100
AcDbEntity
  8
ceco.net 107
100
AcDbLine
 10
1275.106632105474
 20
141.1897240514099
 30
0.0
 11
1275.106632105474
 21
49.99999999999977
 31
0.0
  0
LINE
  5
A2A
330
1F
100
AcDbEntity
  8
ceco.net 107
100
AcDbLine
 10
1497.182210701825
 20
0.0000000000002274
 30
0.0
 11
1325.106632105474
 21
-0.0000000000002274
 31
0.0
  0
ARC
  5
A2B
330
1F
100
AcDbEntity
  8
ceco.net 107
100
AcDbCircle
 10
705.5722107018247
 20
-8609.78027594859
 30
0.0
 40
9435.830000000001
100
AcDbArc
 50
85.62830000000001
 51
90.0
  0
LINE
  5
A2C
330
1F
100
AcDbEntity
  8
ceco.net 107
100
AcDbLine
 10
705.5722107018247
 20
323.62972405141
 30
0.0
 11
915.9487076081921
 21
323.62972405141
 31
0.0
  0
LINE
  5
A2D
330
1F
100
AcDbEntity
  8
ceco.net 107
100
AcDbLine
 10
705.5722107018247
 20
217.6697240514097
 30
0.0
 11
994.0322107018248
 21
217.6697240514099
 31
0.0
  0
LINE
  5
A2E
330
1F
100
AcDbEntity
  8
ceco.net 107
100
AcDbLine
 10
705.5722107018247
 20
141.1897240514097
 30
0.0
 11
1500.982210701824
 21
141.1897240514099
 31
0.0
  0
ARC
  5
A2F
330
1F
100
AcDbEntity
  8
ceco.net 107
100
AcDbCircle
 10
1497.182210701825
 20
50.00000000000023
 30
0.0
 40
50.0
100
AcDbArc
 50
270.0000000000001
 51
0.000000000000007
  0
ARC
  5
A30
330
1F
100
AcDbEntity
  8
ceco.net 107
100
AcDbCircle
 10
1325.106632105474
 20
49.99999999999977
 30
0.0
 40
50.0
100
AcDbArc
 50
180.0
 51
270.0000000000002
  0
ARC
  5
A31
330
1F
100
AcDbEntity
  8
ceco.net 107
100
AcDbCircle
 10
86.03778929817531
 20
49.99999999999977
 30
0.0
 40
50.0
100
AcDbArc
 50
269.9999999999997
 51
0.0
  0
ARC
  5
A32
330
1F
100
AcDbEntity
  8
ceco.net 107
100
AcDbCircle
 10
-86.03778929817531
 20
50.00000000000023
 30
0.0
 40
50.0
100
AcDbArc
 50
180.0
 51
269.9999999999998
  0
LINE
  5
A33
330
1F
100
AcDbEntity
  8
ceco.net 107
100
AcDbLine
 10
705.5722107018247
 20
141.1897240514097
 30
0.0
 11
-89.83778929817503
 21
141.1897240514099
 31
0.0
  0
LINE
  5
A34
330
1F
100
AcDbEntity
  8
ceco.net 107
100
AcDbLine
 10
705.5722107018247
 20
217.6697240514097
 30
0.0
 11
417.1122107018248
 21
217.6697240514099
 31
0.0
  0
LINE
  5
A35
330
1F
100
AcDbEntity
  8
ceco.net 107
100
AcDbLine
 10
705.5722107018247
 20
323.62972405141
 30
0.0
 11
495.1957137954575
 21
323.62972405141
 31
0.0
  0
ARC
  5
A36
330
1F
100
AcDbEntity
  8
ceco.net 107
100
AcDbCircle
 10
705.5722107018247
 20
-8609.78027594859
 30
0.0
 40
9435.830000000001
100
AcDbArc
 50
90.0
 51
94.3717
  0
LINE
  5
A37
330
1F
100
AcDbEntity
  8
ceco.net 107
100
AcDbLine
 10
-86.03778929817531
 20
0.0000000000002274
 30
0.0
 11
86.03778929817531
 21
-0.0000000000002274
 31
0.0
  0
LINE
  5
A38
330
1F
100
AcDbEntity
  8
ceco.net 107
100
AcDbLine
 10
136.0377892981753
 20
141.1897240514099
 30
0.0
 11
136.0377892981753
 21
49.99999999999977
 31
0.0
  0
LINE
  5
A39
330
1F
100
AcDbEntity
  8
ceco.net 107
100
AcDbLine
 10
462.642210701825
 20
108.53972405141
 30
0.0
 11
705.5722107018247
 21
108.5397240514098
 31
0.0
  0
LINE
  5
A3A
330
1F
100
AcDbEntity
  8
ceco.net 107
100
AcDbLine
 10
462.642210701825
 20
108.53972405141
 30
0.0
 11
462.642210701825
 21
141.1897240514099
 31
0.0
  0
LINE
  5
A3B
330
1F
100
AcDbEntity
  8
ceco.net 107
100
AcDbLine
 10
413.4422107018247
 20
141.1897240514099
 30
0.0
 11
413.4422107018247
 21
106.6497240514099
 31
0.0
  0
LINE
  5
A3C
330
1F
100
AcDbEntity
  8
ceco.net 107
100
AcDbLine
 10
413.4422107018247
 20
106.6497240514099
 30
0.0
 11
341.5422107018246
 21
106.6497240514099
 31
0.0
  0
LINE
  5
A3D
330
1F
100
AcDbEntity
  8
ceco.net 107
100
AcDbLine
 10
341.5422107018246
 20
106.6497240514099
 30
0.0
 11
341.5422107018246
 21
141.1897240514099
 31
0.0
  0
LINE
  5
A3E
330
1F
100
AcDbEntity
  8
ceco.net 107
100
AcDbLine
 10
290.4422107018246
 20
141.1897240514099
 30
0.0
 11
290.4422107018246
 21
116.10972405141
 31
0.0
  0
LINE
  5
A3F
330
1F
100
AcDbEntity
  8
ceco.net 107
100
AcDbLine
 10
290.4422107018246
 20
116.10972405141
 30
0.0
 11
341.5422107018246
 21
116.10972405141
 31
0.0
  0
LINE
  5
A40
330
1F
100
AcDbEntity
  8
ceco.net 107
100
AcDbLine
 10
413.4422107018247
 20
116.10972405141
 30
0.0
 11
462.642210701825
 21
116.10972405141
 31
0.0
  0
LINE
  5
A41
330
1F
100
AcDbEntity
  8
ceco.net 107
100
AcDbLine
 10
125.5222107018246
 20
1112.21972405141
 30
0.0
 11
114.852210701825
 21
1130.27972405141
 31
0.0
  0
LINE
  5
A42
330
1F
100
AcDbEntity
  8
ceco.net 107
100
AcDbLine
 10
111.7922107018246
 20
1092.23972405141
 30
0.0
 11
102.1522107018247
 21
1108.55972405141
 31
0.0
  0
LINE
  5
A43
330
1F
100
AcDbEntity
  8
ceco.net 107
100
AcDbLine
 10
337.3322107018245
 20
382.1497240514099
 30
0.0
 11
495.1957137954575
 21
382.1497240514099
 31
0.0
  0
LINE
  5
A44
330
1F
100
AcDbEntity
  8
ceco.net 107
100
AcDbLine
 10
356.4822107018246
 20
359.33972405141
 30
0.0
 11
495.1957137954575
 21
359.33972405141
 31
0.0
  0
LINE
  5
A45
330
1F
100
AcDbEntity
  8
ceco.net 107
100
AcDbLine
 10
35.99221070182489
 20
312.1097240514099
 30
0.0
 11
277.1922107018247
 21
312.1097240514099
 31
0.0
  0
LINE
  5
A46
330
1F
100
AcDbEntity
  8
ceco.net 107
100
AcDbLine
 10
-169.027789298175
 20
934.9297240514102
 30
0.0
 11
-83.94778929817517
 21
934.9297240514102
 31
0.0
  0
LINE
  5
A47
330
1F
100
AcDbEntity
  8
ceco.net 107
100
AcDbLine
 10
-112.1777892981751
 20
733.79972405141
 30
0.0
 11
-114.4577892981753
 21
798.3697240514102
 31
0.0
  0
LINE
  5
A48
330
1F
100
AcDbEntity
  8
ceco.net 107
100
AcDbLine
 10
-50.90778929817521
 20
795.5797240514097
 30
0.0
 11
-47.77778929817509
 21
787.4697240514101
 31
0.0
  0
LINE
  5
A49
330
1F
100
AcDbEntity
  8
ceco.net 107
100
AcDbLine
 10
-106.1377892981752
 20
727.9797240514099
 30
0.0
 11
-98.20778929817539
 21
727.9797240514099
 31
0.0
  0
LINE
  5
A4A
330
1F
100
AcDbEntity
  8
ceco.net 107
100
AcDbLine
 10
705.5722107018247
 20
197.1497240514099
 30
0.0
 11
401.0122107018248
 21
197.1497240514099
 31
0.0
  0
LINE
  5
A4B
330
1F
100
AcDbEntity
  8
ceco.net 107
100
AcDbLine
 10
705.5722107018247
 20
441.0331912355209
 30
0.0
 11
495.1957137954575
 21
441.0331912355209
 31
0.0
  0
LINE
  5
A4C
330
1F
100
AcDbEntity
  8
ceco.net 107
100
AcDbLine
 10
495.1957137954575
 20
441.0331912355209
 30
0.0
 11
495.1957137954575
 21
323.62972405141
 31
0.0
  0
LINE
  5
A4D
330
1F
100
AcDbEntity
  8
ceco.net 107
100
AcDbLine
 10
-161.4877892981751
 20
534.1797240514101
 30
0.0
 11
-16.44778929817516
 21
534.1797240514101
 31
0.0
  0
LINE
  5
A4E
330
1F
100
AcDbEntity
  8
ceco.net 107
100
AcDbLine
 10
-136.0377892981753
 20
329.4897240514101
 30
0.0
 11
-136.0377892981753
 21
50.00000000000023
 31
0.0
  0
LINE
  5
A4F
330
1F
100
AcDbEntity
  8
ceco.net 107
100
AcDbLine
 10
38.04221070182461
 20
302.10972405141
 30
0.0
 11
117.2822107018248
 21
302.10972405141
 31
0.0
  0
LINE
  5
A50
330
1F
100
AcDbEntity
  8
ceco.net 107
100
AcDbLine
 10
286.6622107018249
 20
468.37972405141
 30
0.0
 11
51.35221070182502
 21
479.58972405141
 31
0.0
  0
LINE
  5
A51
330
1F
100
AcDbEntity
  8
ceco.net 107
100
AcDbLine
 10
705.5722107018253
 20
165.2097240514101
 30
0.0
 11
-104.857789298175
 21
165.2097240514099
 31
0.0
  0
LINE
  5
A52
330
1F
100
AcDbEntity
  8
ceco.net 107
100
AcDbLine
 10
-138.087789298175
 20
485.81972405141
 30
0.0
 11
311.5522107018248
 21
460.9297240514101
 31
0.0
  0
ARC
  5
A53
330
1F
100
AcDbEntity
  8
ceco.net 107
100
AcDbCircle
 10
2749.602210701825
 20
792.16972405141
 30
0.0
 40
2922.5
100
AcDbArc
 50
182.794
 51
192.6809999999999
  0
ARC
  5
A54
330
1F
100
AcDbEntity
  8
ceco.net 107
100
AcDbCircle
 10
2429.022210701825
 20
666.5797240514097
 30
0.0
 40
2598.5
100
AcDbArc
 50
180.372
 51
189.202
  0
ARC
  5
A55
330
1F
100
AcDbEntity
  8
ceco.net 107
100
AcDbCircle
 10
-56.20778929817539
 20
705.5397240514098
 30
0.0
 40
96.5967
100
AcDbArc
 50
152.929
 51
171.492
  0
ARC
  5
A56
330
1F
100
AcDbEntity
  8
ceco.net 107
100
AcDbCircle
 10
-183.2377892981751
 20
761.0797240514098
 30
0.0
 40
112.207
100
AcDbArc
 50
277.0709999999999
 51
298.9674247354063
  0
ARC
  5
A57
330
1F
100
AcDbEntity
  8
ceco.net 107
100
AcDbCircle
 10
522.1722107018247
 20
619.0197240514098
 30
0.0
 40
681.404
100
AcDbArc
 50
171.492
 51
177.263
  0
ARC
  5
A58
330
1F
100
AcDbEntity
  8
ceco.net 107
100
AcDbCircle
 10
244.3222107018248
 20
551.9497240514101
 30
0.0
 40
434.1029999999999
100
AcDbArc
 50
145.4321992613507
 51
152.929
  0
ARC
  5
A59
330
1F
100
AcDbEntity
  8
ceco.net 107
100
AcDbCircle
 10
-6.327789298175275
 20
741.2397240514101
 30
0.0
 40
120.0
100
AcDbArc
 50
98.07530000000001
 51
111.1205579707144
  0
ARC
  5
A5A
330
1F
100
AcDbEntity
  8
ceco.net 107
100
AcDbCircle
 10
-89.83778929817503
 20
153.2697240514101
 30
0.0
 40
12.0746
100
AcDbArc
 50
192.682
 51
270.0
  0
ARC
  5
A5B
330
1F
100
AcDbEntity
  8
ceco.net 107
100
AcDbCircle
 10
893.662210701825
 20
1263.31972405141
 30
0.0
 40
701.308
100
AcDbArc
 50
185.479
 51
188.9409999999999
  0
ARC
  5
A5C
330
1F
100
AcDbEntity
  8
ceco.net 107
100
AcDbCircle
 10
705.5722107018247
 20
-2351.21227594859
 30
0.0
 40
3518.079999999999
100
AcDbArc
 50
90.0
 51
98.18309999999996
  0
ARC
  5
A5D
330
1F
100
AcDbEntity
  8
ceco.net 107
100
AcDbCircle
 10
705.5722107018247
 20
-2337.34827594859
 30
0.0
 40
3518.63
100
AcDbArc
 50
90.0
 51
98.13790000000002
  0
ARC
  5
A5E
330
1F
100
AcDbEntity
  8
ceco.net 107
100
AcDbCircle
 10
705.5722107018247
 20
-2326.52227594859
 30
0.0
 40
3517.25
100
AcDbArc
 50
90.0
 51
98.24989999999999
  0
ARC
  5
A5F
330
1F
100
AcDbEntity
  8
ceco.net 107
100
AcDbCircle
 10
705.5722107018247
 20
-2275.122275948589
 30
0.0
 40
3508.75
100
AcDbArc
 50
90.0
 51
98.35779999999996
  0
ARC
  5
A60
330
1F
100
AcDbEntity
  8
ceco.net 107
100
AcDbCircle
 10
1077.822210701824
 20
543.12972405141
 30
0.0
 40
1145.72
100
AcDbArc
 50
149.372
 51
163.942
  0
ARC
  5
A61
330
1F
100
AcDbEntity
  8
ceco.net 107
100
AcDbCircle
 10
1092.312210701824
 20
499.5797240514098
 30
0.0
 40
1145.72
100
AcDbArc
 50
148.519
 51
164.8709999999999
  0
ARC
  5
A62
330
1F
100
AcDbEntity
  8
ceco.net 107
100
AcDbCircle
 10
1092.312210701824
 20
499.5797240514098
 30
0.0
 40
1133.64
100
AcDbArc
 50
148.4779999999999
 51
164.6549999999999
  0
ARC
  5
A63
330
1F
100
AcDbEntity
  8
ceco.net 107
100
AcDbCircle
 10
218.2022107018249
 20
1034.83972405141
 30
0.0
 40
120.746
100
AcDbArc
 50
98.24989999999999
 51
148.519
  0
ARC
  5
A64
330
1F
100
AcDbEntity
  8
ceco.net 107
100
AcDbCircle
 10
223.7322107018246
 20
1032.29972405141
 30
0.0
 40
114.709
100
AcDbArc
 50
98.13790000000002
 51
148.4779999999999
  0
ARC
  5
A65
330
1F
100
AcDbEntity
  8
ceco.net 107
100
AcDbCircle
 10
218.5722107018248
 20
1035.42972405141
 30
0.0
 40
96.5967
100
AcDbArc
 50
98.18309999999996
 51
148.4799999999999
  0
ARC
  5
A66
330
1F
100
AcDbEntity
  8
ceco.net 107
100
AcDbCircle
 10
216.622210701825
 20
1053.00972405141
 30
0.0
 40
144.895
100
AcDbArc
 50
98.35779999999996
 51
149.372
  0
ARC
  5
A67
330
1F
100
AcDbEntity
  8
ceco.net 107
100
AcDbCircle
 10
104.4522107018249
 20
1124.13972405141
 30
0.0
 40
12.0746
100
AcDbArc
 50
30.56459999999999
 51
147.619
  0
ARC
  5
A68
330
1F
100
AcDbEntity
  8
ceco.net 107
100
AcDbCircle
 10
91.75221070182464
 20
1102.419724051409
 30
0.0
 40
12.0746
100
AcDbArc
 50
30.56459999999999
 51
150.4379999999999
  0
ARC
  5
A69
330
1F
100
AcDbEntity
  8
ceco.net 107
100
AcDbCircle
 10
65.55221070182483
 20
842.2997240514101
 30
0.0
 40
90.4964
100
AcDbArc
 50
168.6929999999999
 51
208.8759999999999
  0
ARC
  5
A6A
330
1F
100
AcDbEntity
  8
ceco.net 107
100
AcDbCircle
 10
204.2422107018249
 20
306.31972405141
 30
0.0
 40
186.8109999999999
100
AcDbArc
 50
184.188
 51
202.9309999999999
  0
ARC
  5
A6B
330
1F
100
AcDbEntity
  8
ceco.net 107
100
AcDbCircle
 10
654.9322107018249
 20
9387.68972405141
 30
0.0
 40
9195.27
100
AcDbArc
 50
266.3109999999999
 51
267.755
  0
ARC
  5
A6C
330
1F
100
AcDbEntity
  8
ceco.net 107
100
AcDbCircle
 10
35.99221070182489
 20
293.9997240514101
 30
0.0
 40
18.11189999999999
100
AcDbArc
 50
89.8929
 51
184.188
  0
ARC
  5
A6D
330
1F
100
AcDbEntity
  8
ceco.net 107
100
AcDbCircle
 10
65.55221070182483
 20
247.6497240514099
 30
0.0
 40
36.22379999999999
100
AcDbArc
 50
202.9309999999999
 51
266.3109999999999
  0
ARC
  5
A6E
330
1F
100
AcDbEntity
  8
ceco.net 107
100
AcDbCircle
 10
427.8122107018246
 20
335.9397240514099
 30
0.0
 40
293.608
100
AcDbArc
 50
184.655
 51
206.373
  0
ARC
  5
A6F
330
1F
100
AcDbEntity
  8
ceco.net 107
100
AcDbCircle
 10
337.3322107018245
 20
345.9197240514099
 30
0.0
 40
36.22379999999999
100
AcDbArc
 50
90.0
 51
188.696
  0
ARC
  5
A70
330
1F
100
AcDbEntity
  8
ceco.net 107
100
AcDbCircle
 10
401.0122107018248
 20
269.59972405141
 30
0.0
 40
72.44759999999999
100
AcDbArc
 50
208.942
 51
270.0
  0
ARC
  5
A71
330
1F
100
AcDbEntity
  8
ceco.net 107
100
AcDbCircle
 10
616.1622107018249
 20
388.56972405141
 30
0.0
 40
318.299
100
AcDbArc
 50
188.696
 51
208.942
  0
ARC
  5
A72
330
1F
100
AcDbEntity
  8
ceco.net 107
100
AcDbCircle
 10
616.1622107018249
 20
388.56972405141
 30
0.0
 40
282.0759999999999
100
AcDbArc
 50
190.3309999999999
 51
211.6299999999999
  0
ARC
  5
A73
330
1F
100
AcDbEntity
  8
ceco.net 107
100
AcDbCircle
 10
417.1122107018248
 20
265.9697240514101
 30
0.0
 40
48.2984
100
AcDbArc
 50
211.6299999999999
 51
270.0
  0
ARC
  5
A74
330
1F
100
AcDbEntity
  8
ceco.net 107
100
AcDbCircle
 10
356.4822107018246
 20
341.2297240514101
 30
0.0
 40
18.11189999999999
100
AcDbArc
 50
90.0
 51
190.3309999999999
  0
ARC
  5
A75
330
1F
100
AcDbEntity
  8
ceco.net 107
100
AcDbCircle
 10
1.562210701824596
 20
596.0797240514097
 30
0.0
 40
36.22379999999999
100
AcDbArc
 50
89.4663
 51
193.314
  0
ARC
  5
A76
330
1F
100
AcDbEntity
  8
ceco.net 107
100
AcDbCircle
 10
-3.727789298175366
 20
28.59972405141002
 30
0.0
 40
603.73
100
AcDbArc
 50
67.32559999999999
 51
89.4663
  0
ARC
  5
A77
330
1F
100
AcDbEntity
  8
ceco.net 107
100
AcDbCircle
 10
312.8322107018245
 20
669.7397240514101
 30
0.0
 40
356.088
100
AcDbArc
 50
193.314
 51
204.537
  0
ARC
  5
A78
330
1F
100
AcDbEntity
  8
ceco.net 107
100
AcDbCircle
 10
139.5622107018245
 20
847.29972405141
 30
0.0
 40
96.5967
100
AcDbArc
 50
206.966
 51
235.162
  0
ARC
  5
A79
330
1F
100
AcDbEntity
  8
ceco.net 107
100
AcDbCircle
 10
374.8122107018246
 20
662.4897240514101
 30
0.0
 40
96.5967
100
AcDbArc
 50
228.5309999999999
 51
270.9459999999999
  0
ARC
  5
A7A
330
1F
100
AcDbEntity
  8
ceco.net 107
100
AcDbCircle
 10
-1337.817789298175
 20
-1275.35727594859
 30
0.0
 40
2489.58
100
AcDbArc
 50
48.53049999999999
 51
55.1619
  0
ARC
  5
A7B
330
1F
100
AcDbEntity
  8
ceco.net 107
100
AcDbCircle
 10
431.4022107018247
 20
579.7797240514101
 30
0.0
 40
96.5967
100
AcDbArc
 50
226.92
 51
270.726
  0
ARC
  5
A7C
330
1F
100
AcDbEntity
  8
ceco.net 107
100
AcDbCircle
 10
-1267.097789298175
 20
-1236.57727594859
 30
0.0
 40
2390.179999999999
100
AcDbArc
 50
46.9204
 51
58.3723
  0
ARC
  5
A7D
330
1F
100
AcDbEntity
  8
ceco.net 107
100
AcDbCircle
 10
8.612210701824778
 20
704.6197240514102
 30
0.0
 40
96.5967
100
AcDbArc
 50
103.349
 51
140.625
  0
ARC
  5
A7E
330
1F
100
AcDbEntity
  8
ceco.net 107
100
AcDbCircle
 10
-292.1677892981754
 20
829.9997240514098
 30
0.0
 40
243.705
100
AcDbArc
 50
351.8819999999999
 51
22.62199999999999
  0
ARC
  5
A7F
330
1F
100
AcDbEntity
  8
ceco.net 107
100
AcDbCircle
 10
-169.027789298175
 20
898.6997240514101
 30
0.0
 40
36.22379999999999
100
AcDbArc
 50
90.0
 51
144.801
  0
ARC
  5
A80
330
1F
100
AcDbEntity
  8
ceco.net 107
100
AcDbCircle
 10
-208.5077892981751
 20
831.52972405141
 30
0.0
 40
18.11189999999999
100
AcDbArc
 50
198.644
 51
257.067
  0
ARC
  5
A81
330
1F
100
AcDbEntity
  8
ceco.net 107
100
AcDbCircle
 10
-83.94778929817517
 20
916.8097240514098
 30
0.0
 40
18.1121
100
AcDbArc
 50
22.4796
 51
90.0
  0
ARC
  5
A82
330
1F
100
AcDbEntity
  8
ceco.net 107
100
AcDbCircle
 10
87.46221070182469
 20
717.7697240514098
 30
0.0
 40
350.1119999999999
100
AcDbArc
 50
144.801
 51
155.44
  0
ARC
  5
A83
330
1F
100
AcDbEntity
  8
ceco.net 107
100
AcDbCircle
 10
-51.127789298175
 20
1516.87972405141
 30
0.0
 40
721.2989999999999
100
AcDbArc
 50
257.067
 51
270.0179999999999
  0
ARC
  5
A84
330
1F
100
AcDbEntity
  8
ceco.net 107
100
AcDbCircle
 10
-66.24778929817535
 20
879.52972405141
 30
0.0
 40
168.2549999999999
100
AcDbArc
 50
189.5959999999999
 51
198.644
  0
ARC
  5
A85
330
1F
100
AcDbEntity
  8
ceco.net 107
100
AcDbCircle
 10
-214.4977892981753
 20
855.7697240514098
 30
0.0
 40
18.11189999999999
100
AcDbArc
 50
155.44
 51
193.336
  0
ARC
  5
A86
330
1F
100
AcDbEntity
  8
ceco.net 107
100
AcDbCircle
 10
-106.1377892981752
 20
734.0197240514099
 30
0.0
 40
6.0373
100
AcDbArc
 50
182.0209999999999
 51
270.0
  0
ARC
  5
A87
330
1F
100
AcDbEntity
  8
ceco.net 107
100
AcDbCircle
 10
8.612210701824778
 20
704.6197240514102
 30
0.0
 40
100.2189999999999
100
AcDbArc
 50
124.2389999999999
 51
140.625
  0
ARC
  5
A88
330
1F
100
AcDbEntity
  8
ceco.net 107
100
AcDbCircle
 10
269.5022107018246
 20
490.4997240514099
 30
0.0
 40
437.725
100
AcDbArc
 50
140.625
 51
147.144
  0
ARC
  5
A89
330
1F
100
AcDbEntity
  8
ceco.net 107
100
AcDbCircle
 10
1092.312210701824
 20
499.5797240514098
 30
0.0
 40
1121.569999999999
100
AcDbArc
 50
148.4799999999999
 51
164.435
  0
ARC
  5
A8A
330
1F
100
AcDbEntity
  8
ceco.net 107
100
AcDbCircle
 10
705.5722107018247
 20
-19365.91027594859
 30
0.0
 40
19934.5
100
AcDbArc
 50
90.0
 51
90.94609999999995
  0
ARC
  5
A8B
330
1F
100
AcDbEntity
  8
ceco.net 107
100
AcDbCircle
 10
269.5022107018246
 20
490.4997240514099
 30
0.0
 40
434.1029999999999
100
AcDbArc
 50
140.625
 51
156.6
  0
ARC
  5
A8C
330
1F
100
AcDbEntity
  8
ceco.net 107
100
AcDbCircle
 10
427.8122107018246
 20
335.9397240514099
 30
0.0
 40
303.608
100
AcDbArc
 50
188.034
 51
200.2759999999999
  0
ARC
  5
A8D
330
1F
100
AcDbEntity
  8
ceco.net 107
100
AcDbCircle
 10
133.6322107018247
 20
227.2597240514101
 30
0.0
 40
10.0
100
AcDbArc
 50
266.7459999999999
 51
20.27600000000006
  0
ARC
  5
A8E
330
1F
100
AcDbEntity
  8
ceco.net 107
100
AcDbCircle
 10
654.9322107018249
 20
9387.68972405141
 30
0.0
 40
9185.27
100
AcDbArc
 50
266.287
 51
266.7429999999999
  0
ARC
  5
A8F
330
1F
100
AcDbEntity
  8
ceco.net 107
100
AcDbCircle
 10
61.372210701825
 20
241.6797240514099
 30
0.0
 40
20.0
100
AcDbArc
 50
204.3429999999999
 51
266.288
  0
ARC
  5
A90
330
1F
100
AcDbEntity
  8
ceco.net 107
100
AcDbCircle
 10
204.2422107018249
 20
306.31972405141
 30
0.0
 40
176.8109999999999
100
AcDbArc
 50
184.8859999999999
 51
204.3429999999999
  0
ARC
  5
A91
330
1F
100
AcDbEntity
  8
ceco.net 107
100
AcDbCircle
 10
38.03221070182485
 20
292.10972405141
 30
0.0
 40
10.0
100
AcDbArc
 50
90.0
 51
184.8859999999999
  0
ARC
  5
A92
330
1F
100
AcDbEntity
  8
ceco.net 107
100
AcDbCircle
 10
117.2822107018248
 20
292.10972405141
 30
0.0
 40
9.999989999999998
100
AcDbArc
 50
8.03383
 51
90.0
  0
ARC
  5
A93
330
1F
100
AcDbEntity
  8
ceco.net 107
100
AcDbCircle
 10
54.80221070182484
 20
551.9497240514101
 30
0.0
 40
72.44759999999999
100
AcDbArc
 50
204.537
 51
267.2739999999999
  0
ARC
  5
A94
330
1F
100
AcDbEntity
  8
ceco.net 107
100
AcDbCircle
 10
287.6122107018247
 20
488.35972405141
 30
0.0
 40
20.0
100
AcDbArc
 50
267.2739999999999
 51
20.44000000000001
  0
ARC
  5
A95
330
1F
100
AcDbEntity
  8
ceco.net 107
100
AcDbCircle
 10
-68.46778929817515
 20
355.6597240514099
 30
0.0
 40
400.0
100
AcDbArc
 50
20.43959999999999
 51
24.9649
  0
ARC
  5
A96
330
1F
100
AcDbEntity
  8
ceco.net 107
100
AcDbCircle
 10
185.3722107018249
 20
473.8297240514098
 30
0.0
 40
120.0
100
AcDbArc
 50
24.965
 51
68.6845
  0
ARC
  5
A97
330
1F
100
AcDbEntity
  8
ceco.net 107
100
AcDbCircle
 10
312.6522107018247
 20
480.8897240514101
 30
0.0
 40
20.0
100
AcDbArc
 50
266.8309999999999
 51
46.61600000000003
  0
ARC
  5
A98
330
1F
100
AcDbEntity
  8
ceco.net 107
100
AcDbCircle
 10
6.562210701824596
 20
255.1997240514099
 30
0.0
 40
400.0
100
AcDbArc
 50
36.91149999999999
 51
46.61609999999999
  0
ENDSEC
  0
SECTION
  2
OBJECTS
  0
DICTIONARY
  5
C
330
0
100
AcDbDictionary
281
     1
  3
ACAD_GROUP
350
D
  3
ACAD_LAYOUT
350
1A
  3
ACAD_MLINESTYLE
350
17
  3
ACAD_PLOTSETTINGS
350
19
  3
ACAD_PLOTSTYLENAME
350
E
  3
AcDbVariableDictionary
350
115
  3
DWGPROPS
350
8E3
  0
DICTIONARY
  5
8F2
330
8F1
100
AcDbDictionary
280
     1
281
     1
  3
ACAD_XREC_ROUNDTRIP
360
8F3
  0
DICTIONARY
  5
D
102
{ACAD_REACTORS
330
C
102
}
330
C
100
AcDbDictionary
281
     1
  0
DICTIONARY
  5
1A
102
{ACAD_REACTORS
330
C
102
}
330
C
100
AcDbDictionary
281
     1
  3
Layout1
350
1E
  3
Layout2
350
26
  3
Model
350
22
  0
DICTIONARY
  5
17
102
{ACAD_REACTORS
330
C
102
}
330
C
100
AcDbDictionary
281
     1
  3
Standard
350
18
  0
DICTIONARY
  5
19
102
{ACAD_REACTORS
330
C
102
}
330
C
100
AcDbDictionary
281
     1
  0
ACDBDICTIONARYWDFLT
  5
E
102
{ACAD_REACTORS
330
C
102
}
330
C
100
AcDbDictionary
281
     1
  3
Normal
350
F
100
AcDbDictionaryWithDefault
340
F
  0
DICTIONARY
  5
115
102
{ACAD_REACTORS
330
C
102
}
330
C
100
AcDbDictionary
281
     1
  3
DIMASSOC
350
117
  3
HIDETEXT
350
116
  0
XRECORD
  5
8E3
102
{ACAD_REACTORS
330
C
102
}
330
C
100
AcDbXrecord
280
     1
  1
DWGPROPS COOKIE
  2
Ceco.NET-Trees-and-Plants - T - xx . 67 . dwg
  3

  4
ceco.net
  6

  7

  8
peacosta
  9

300
=
301
=
302
=
303
=
304
=
305
=
306
=
307
=
308
=
309
=
 40
0.0450312037037037
 41
2455079.811409143
 42
2455838.656599502
  1

 90
        0
  0
XRECORD
  5
8F3
102
{ACAD_REACTORS
330
8F2
102
}
330
8F2
100
AcDbXrecord
280
     1
102
MATERIAL
340
0
  0
LAYOUT
  5
1E
102
{ACAD_REACTORS
330
1A
102
}
330
1A
100
AcDbPlotSettings
  1

  2
Microsoft Office Document Image Writer
  4

  6

 40
0.0
 41
0.0
 42
0.0
 43
0.0
 44
0.0
 45
0.0
 46
0.0
 47
0.0
 48
0.0
 49
0.0
140
0.0
141
0.0
142
1.0
143
1.0
 70
   688
 72
     0
 73
     0
 74
     5
  7

 75
    16
147
1.0
148
0.0
149
0.0
100
AcDbLayout
  1
Layout1
 70
     1
 71
     1
 10
0.0
 20
0.0
 11
420.0
 21
297.0
 12
0.0
 22
0.0
 32
0.0
 14
1.000000000000000E+20
 24
1.000000000000000E+20
 34
1.000000000000000E+20
 15
-1.000000000000000E+20
 25
-1.000000000000000E+20
 35
-1.000000000000000E+20
146
0.0
 13
0.0
 23
0.0
 33
0.0
 16
1.0
 26
0.0
 36
0.0
 17
0.0
 27
1.0
 37
0.0
 76
     0
330
1B
  0
LAYOUT
  5
26
102
{ACAD_REACTORS
330
1A
102
}
330
1A
100
AcDbPlotSettings
  1

  2
Microsoft Office Document Image Writer
  4

  6

 40
0.0
 41
0.0
 42
0.0
 43
0.0
 44
0.0
 45
0.0
 46
0.0
 47
0.0
 48
0.0
 49
0.0
140
0.0
141
0.0
142
1.0
143
1.0
 70
   688
 72
     0
 73
     0
 74
     5
  7

 75
    16
147
1.0
148
0.0
149
0.0
100
AcDbLayout
  1
Layout2
 70
     1
 71
     2
 10
0.0
 20
0.0
 11
12.0
 21
9.0
 12
0.0
 22
0.0
 32
0.0
 14
0.0
 24
0.0
 34
0.0
 15
0.0
 25
0.0
 35
0.0
146
0.0
 13
0.0
 23
0.0
 33
0.0
 16
1.0
 26
0.0
 36
0.0
 17
0.0
 27
1.0
 37
0.0
 76
     0
330
23
  0
LAYOUT
  5
22
102
{ACAD_REACTORS
330
1A
102
}
330
1A
100
AcDbPlotSettings
  1

  2
Microsoft Office Document Image Writer
  4

  6

 40
0.0
 41
0.0
 42
0.0
 43
0.0
 44
0.0
 45
0.0
 46
0.0
 47
0.0
 48
0.0
 49
0.0
140
0.0
141
0.0
142
1.0
143
1.0
 70
  1712
 72
     0
 73
     0
 74
     0
  7

 75
     0
147
1.0
148
0.0
149
0.0
100
AcDbLayout
  1
Model
 70
     1
 71
     0
 10
0.0
 20
0.0
 11
12.0
 21
9.0
 12
0.0
 22
0.0
 32
0.0
 14
0.0
 24
0.0
 34
0.0
 15
0.0
 25
0.0
 35
0.0
146
0.0
 13
0.0
 23
0.0
 33
0.0
 16
1.0
 26
0.0
 36
0.0
 17
0.0
 27
1.0
 37
0.0
 76
     0
330
1F
  0
MLINESTYLE
  5
18
102
{ACAD_REACTORS
330
17
102
}
330
17
100
AcDbMlineStyle
  2
STANDARD
 70
     0
  3

 62
   256
 51
90.0
 52
90.0
 71
     2
 49
0.5
 62
   256
  6
BYLAYER
 49
-0.5
 62
   256
  6
BYLAYER
  0
ACDBPLACEHOLDER
  5
F
102
{ACAD_REACTORS
330
E
102
}
330
E
  0
DICTIONARYVAR
  5
117
102
{ACAD_REACTORS
330
115
102
}
330
115
100
DictionaryVariables
280
     0
  1
2
  0
DICTIONARYVAR
  5
116
102
{ACAD_REACTORS
330
115
102
}
330
115
100
DictionaryVariables
280
     0
  1
1
  0
ENDSEC
  0
EOF
