  0
SECTION
  2
HEADER
  9
$ACADVER
  1
AC1015
  9
$ACADMAINTVER
 70
    13
  9
$DWGCODEPAGE
  3
ANSI_1252
  9
$INSBASE
 10
0.0
 20
0.0
 30
0.0
  9
$EXTMIN
 10
-942.1973450778313
 20
-28.37629352815338
 30
-0.0015258207003583
  9
$EXTMAX
 10
3211.326077762382
 20
1288.697000438492
 30
0.0000000349246037
  9
$LIMMIN
 10
0.0
 20
0.0
  9
$LIMMAX
 10
420.0
 20
297.0
  9
$ORTHOMODE
 70
     0
  9
$REGENMODE
 70
     1
  9
$FILLMODE
 70
     1
  9
$QTEXTMODE
 70
     0
  9
$MIRRTEXT
 70
     1
  9
$LTSCALE
 40
1.0
  9
$ATTMODE
 70
     1
  9
$TEXTSIZE
 40
2.5
  9
$TRACEWID
 40
1.0
  9
$TEXTSTYLE
  7
Standard
  9
$CLAYER
  8
ceco.net 105 Honda S2000
  9
$CELTYPE
  6
ByLayer
  9
$CECOLOR
 62
   256
  9
$CELTSCALE
 40
1.0
  9
$DISPSILH
 70
     0
  9
$DIMSCALE
 40
1.0
  9
$DIMASZ
 40
2.5
  9
$DIMEXO
 40
0.625
  9
$DIMDLI
 40
3.75
  9
$DIMRND
 40
0.0
  9
$DIMDLE
 40
0.0
  9
$DIMEXE
 40
1.25
  9
$DIMTP
 40
0.0
  9
$DIMTM
 40
0.0
  9
$DIMTXT
 40
2.5
  9
$DIMCEN
 40
2.5
  9
$DIMTSZ
 40
0.0
  9
$DIMTOL
 70
     0
  9
$DIMLIM
 70
     0
  9
$DIMTIH
 70
     0
  9
$DIMTOH
 70
     0
  9
$DIMSE1
 70
     0
  9
$DIMSE2
 70
     0
  9
$DIMTAD
 70
     1
  9
$DIMZIN
 70
     8
  9
$DIMBLK
  1

  9
$DIMASO
 70
     1
  9
$DIMSHO
 70
     1
  9
$DIMPOST
  1

  9
$DIMAPOST
  1

  9
$DIMALT
 70
     0
  9
$DIMALTD
 70
     3
  9
$DIMALTF
 40
0.03937007874016
  9
$DIMLFAC
 40
1.0
  9
$DIMTOFL
 70
     1
  9
$DIMTVP
 40
0.0
  9
$DIMTIX
 70
     0
  9
$DIMSOXD
 70
     0
  9
$DIMSAH
 70
     0
  9
$DIMBLK1
  1

  9
$DIMBLK2
  1

  9
$DIMSTYLE
  2
ISO-25
  9
$DIMCLRD
 70
     0
  9
$DIMCLRE
 70
     0
  9
$DIMCLRT
 70
     0
  9
$DIMTFAC
 40
1.0
  9
$DIMGAP
 40
0.625
  9
$DIMJUST
 70
     0
  9
$DIMSD1
 70
     0
  9
$DIMSD2
 70
     0
  9
$DIMTOLJ
 70
     0
  9
$DIMTZIN
 70
     8
  9
$DIMALTZ
 70
     0
  9
$DIMALTTZ
 70
     0
  9
$DIMUPT
 70
     0
  9
$DIMDEC
 70
     2
  9
$DIMTDEC
 70
     2
  9
$DIMALTU
 70
     2
  9
$DIMALTTD
 70
     3
  9
$DIMTXSTY
  7
Standard
  9
$DIMAUNIT
 70
     0
  9
$DIMADEC
 70
     0
  9
$DIMALTRND
 40
0.0
  9
$DIMAZIN
 70
     0
  9
$DIMDSEP
 70
    44
  9
$DIMATFIT
 70
     3
  9
$DIMFRAC
 70
     0
  9
$DIMLDRBLK
  1

  9
$DIMLUNIT
 70
     2
  9
$DIMLWD
 70
    -2
  9
$DIMLWE
 70
    -2
  9
$DIMTMOVE
 70
     0
  9
$LUNITS
 70
     2
  9
$LUPREC
 70
     2
  9
$SKETCHINC
 40
1.0
  9
$FILLETRAD
 40
10.0
  9
$AUNITS
 70
     0
  9
$AUPREC
 70
     0
  9
$MENU
  1
.
  9
$ELEVATION
 40
0.0
  9
$PELEVATION
 40
0.0
  9
$THICKNESS
 40
0.0
  9
$LIMCHECK
 70
     0
  9
$CHAMFERA
 40
10.0
  9
$CHAMFERB
 40
10.0
  9
$CHAMFERC
 40
20.0
  9
$CHAMFERD
 40
0.0
  9
$SKPOLY
 70
     0
  9
$TDCREATE
 40
2455079.811409143
  9
$TDUCREATE
 40
2455079.936409144
  9
$TDUPDATE
 40
2456624.906043113
  9
$TDUUPDATE
 40
2456625.031043113
  9
$TDINDWG
 40
0.0479737037
  9
$TDUSRTIMER
 40
0.0479737037
  9
$USRTIMER
 70
     1
  9
$ANGBASE
 50
0.0
  9
$ANGDIR
 70
     0
  9
$PDMODE
 70
     0
  9
$PDSIZE
 40
0.0
  9
$PLINEWID
 40
0.0
  9
$SPLFRAME
 70
     0
  9
$SPLINETYPE
 70
     6
  9
$SPLINESEGS
 70
     8
  9
$HANDSEED
  5
BE4
  9
$SURFTAB1
 70
     6
  9
$SURFTAB2
 70
     6
  9
$SURFTYPE
 70
     6
  9
$SURFU
 70
     6
  9
$SURFV
 70
     6
  9
$UCSBASE
  2

  9
$UCSNAME
  2

  9
$UCSORG
 10
0.0
 20
0.0
 30
0.0
  9
$UCSXDIR
 10
1.0
 20
0.0
 30
0.0
  9
$UCSYDIR
 10
0.0
 20
1.0
 30
0.0
  9
$UCSORTHOREF
  2

  9
$UCSORTHOVIEW
 70
     0
  9
$UCSORGTOP
 10
0.0
 20
0.0
 30
0.0
  9
$UCSORGBOTTOM
 10
0.0
 20
0.0
 30
0.0
  9
$UCSORGLEFT
 10
0.0
 20
0.0
 30
0.0
  9
$UCSORGRIGHT
 10
0.0
 20
0.0
 30
0.0
  9
$UCSORGFRONT
 10
0.0
 20
0.0
 30
0.0
  9
$UCSORGBACK
 10
0.0
 20
0.0
 30
0.0
  9
$PUCSBASE
  2

  9
$PUCSNAME
  2

  9
$PUCSORG
 10
0.0
 20
0.0
 30
0.0
  9
$PUCSXDIR
 10
1.0
 20
0.0
 30
0.0
  9
$PUCSYDIR
 10
0.0
 20
1.0
 30
0.0
  9
$PUCSORTHOREF
  2

  9
$PUCSORTHOVIEW
 70
     0
  9
$PUCSORGTOP
 10
0.0
 20
0.0
 30
0.0
  9
$PUCSORGBOTTOM
 10
0.0
 20
0.0
 30
0.0
  9
$PUCSORGLEFT
 10
0.0
 20
0.0
 30
0.0
  9
$PUCSORGRIGHT
 10
0.0
 20
0.0
 30
0.0
  9
$PUCSORGFRONT
 10
0.0
 20
0.0
 30
0.0
  9
$PUCSORGBACK
 10
0.0
 20
0.0
 30
0.0
  9
$USERI1
 70
     0
  9
$USERI2
 70
     0
  9
$USERI3
 70
     0
  9
$USERI4
 70
     0
  9
$USERI5
 70
     0
  9
$USERR1
 40
0.0
  9
$USERR2
 40
0.0
  9
$USERR3
 40
0.0
  9
$USERR4
 40
0.0
  9
$USERR5
 40
0.0
  9
$WORLDVIEW
 70
     1
  9
$SHADEDGE
 70
     3
  9
$SHADEDIF
 70
    70
  9
$TILEMODE
 70
     1
  9
$MAXACTVP
 70
    64
  9
$PINSBASE
 10
0.0
 20
0.0
 30
0.0
  9
$PLIMCHECK
 70
     0
  9
$PEXTMIN
 10
1.000000000000000E+20
 20
1.000000000000000E+20
 30
1.000000000000000E+20
  9
$PEXTMAX
 10
-1.000000000000000E+20
 20
-1.000000000000000E+20
 30
-1.000000000000000E+20
  9
$PLIMMIN
 10
0.0
 20
0.0
  9
$PLIMMAX
 10
420.0
 20
297.0
  9
$UNITMODE
 70
     0
  9
$VISRETAIN
 70
     1
  9
$PLINEGEN
 70
     0
  9
$PSLTSCALE
 70
     1
  9
$TREEDEPTH
 70
  3020
  9
$CMLSTYLE
  2
Standard
  9
$CMLJUST
 70
     0
  9
$CMLSCALE
 40
20.0
  9
$PROXYGRAPHICS
 70
     1
  9
$MEASUREMENT
 70
     1
  9
$CELWEIGHT
370
    -1
  9
$ENDCAPS
280
     0
  9
$JOINSTYLE
280
     0
  9
$LWDISPLAY
290
     0
  9
$INSUNITS
 70
     4
  9
$HYPERLINKBASE
  1

  9
$STYLESHEET
  1

  9
$XEDIT
290
     1
  9
$CEPSNTYPE
380
     0
  9
$PSTYLEMODE
290
     1
  9
$FINGERPRINTGUID
  2
{81085373-3A21-4932-80AA-8F6C3258C50C}
  9
$VERSIONGUID
  2
{2318B47F-4F14-42BB-9A5A-3F3FC19E7312}
  9
$EXTNAMES
290
     1
  9
$PSVPSCALE
 40
0.0
  9
$OLESTARTUP
290
     0
  0
ENDSEC
  0
SECTION
  2
CLASSES
  0
CLASS
  1
ACDBDICTIONARYWDFLT
  2
AcDbDictionaryWithDefault
  3
AutoCAD 2000
 90
        0
280
     0
281
     0
  0
CLASS
  1
ACDBPLACEHOLDER
  2
AcDbPlaceHolder
  3
AutoCAD 2000
 90
        0
280
     0
281
     0
  0
CLASS
  1
LAYOUT
  2
AcDbLayout
  3
AutoCAD 2000
 90
        0
280
     0
281
     0
  0
CLASS
  1
DICTIONARYVAR
  2
AcDbDictionaryVar
  3
AutoCAD 2000
 90
        0
280
     0
281
     0
  0
ENDSEC
  0
SECTION
  2
TABLES
  0
TABLE
  2
VPORT
  5
8
330
0
100
AcDbSymbolTable
 70
     3
  0
VPORT
  5
BE3
330
8
100
AcDbSymbolTableRecord
100
AcDbViewportTableRecord
  2
*Active
 70
     0
 10
0.0
 20
0.0
 11
1.0
 21
1.0
 12
1134.564366342275
 22
630.1603534551695
 13
0.0
 23
0.0
 14
10.0
 24
10.0
 15
10.0
 25
10.0
 16
0.0
 26
0.0
 36
1.0
 17
0.0
 27
0.0
 37
0.0
 40
1907.2487485868
 41
2.184834123222748
 42
50.0
 43
0.0
 44
0.0
 50
0.0
 51
0.0
 71
     0
 72
   100
 73
     1
 74
     3
 75
     0
 76
     0
 77
     0
 78
     0
281
     0
 65
     1
110
0.0
120
0.0
130
0.0
111
1.0
121
0.0
131
0.0
112
0.0
122
1.0
132
0.0
 79
     0
146
0.0
  0
ENDTAB
  0
TABLE
  2
LTYPE
  5
5
330
0
100
AcDbSymbolTable
 70
     1
  0
LTYPE
  5
14
330
5
100
AcDbSymbolTableRecord
100
AcDbLinetypeTableRecord
  2
ByBlock
 70
     0
  3

 72
    65
 73
     0
 40
0.0
  0
LTYPE
  5
15
330
5
100
AcDbSymbolTableRecord
100
AcDbLinetypeTableRecord
  2
ByLayer
 70
     0
  3

 72
    65
 73
     0
 40
0.0
  0
LTYPE
  5
16
330
5
100
AcDbSymbolTableRecord
100
AcDbLinetypeTableRecord
  2
Continuous
 70
     0
  3
Solid line
 72
    65
 73
     0
 40
0.0
  0
ENDTAB
  0
TABLE
  2
LAYER
  5
2
330
0
100
AcDbSymbolTable
 70
     2
  0
LAYER
  5
10
330
2
100
AcDbSymbolTableRecord
100
AcDbLayerTableRecord
  2
0
 70
     0
 62
     7
  6
Continuous
370
    -3
390
F
  0
LAYER
  5
BE1
330
2
100
AcDbSymbolTableRecord
100
AcDbLayerTableRecord
  2
ceco.net 105 Honda S2000
 70
     0
 62
     7
  6
Continuous
370
    -3
390
F
  0
ENDTAB
  0
TABLE
  2
STYLE
  5
3
330
0
100
AcDbSymbolTable
 70
     1
  0
STYLE
  5
11
330
3
100
AcDbSymbolTableRecord
100
AcDbTextStyleTableRecord
  2
Standard
 70
     0
 40
0.0
 41
1.0
 50
0.0
 71
     0
 42
2.5
  3
txt
  4

  0
ENDTAB
  0
TABLE
  2
VIEW
  5
6
330
0
100
AcDbSymbolTable
 70
     0
  0
ENDTAB
  0
TABLE
  2
UCS
  5
7
330
0
100
AcDbSymbolTable
 70
     0
  0
ENDTAB
  0
TABLE
  2
APPID
  5
9
330
0
100
AcDbSymbolTable
 70
    40
  0
APPID
  5
12
330
9
100
AcDbSymbolTableRecord
100
AcDbRegAppTableRecord
  2
ACAD
 70
     0
  0
APPID
  5
2C
330
9
100
AcDbSymbolTableRecord
100
AcDbRegAppTableRecord
  2
ACAD_DSTYLE_DIMJOGGED_JOGANGLE_SYMBOL
 70
     0
  0
APPID
  5
11B
330
9
100
AcDbSymbolTableRecord
100
AcDbRegAppTableRecord
  2
ACAD_NAV_VCDISPLAY
 70
     0
  0
APPID
  5
11C
330
9
100
AcDbSymbolTableRecord
100
AcDbRegAppTableRecord
  2
ACAD_MLEADERVER
 70
     0
  0
APPID
  5
8F1
330
9
100
AcDbSymbolTableRecord
100
AcDbRegAppTableRecord
  2
DCO15
 70
     0
  0
APPID
  5
8F2
330
9
100
AcDbSymbolTableRecord
100
AcDbRegAppTableRecord
  2
ACAD_PSEXT
 70
     0
  0
APPID
  5
8F3
330
9
100
AcDbSymbolTableRecord
100
AcDbRegAppTableRecord
  2
ACAD_EXEMPT_FROM_CAD_STANDARDS
 70
     0
  0
APPID
  5
8F4
330
9
100
AcDbSymbolTableRecord
100
AcDbRegAppTableRecord
  2
RAK
 70
     0
  0
APPID
  5
8F5
330
9
100
AcDbSymbolTableRecord
100
AcDbRegAppTableRecord
  2
ADCADD_ZZ
 70
     0
  0
APPID
  5
8F6
330
9
100
AcDbSymbolTableRecord
100
AcDbRegAppTableRecord
  2
SDSK_PMN
 70
     0
  0
APPID
  5
8F7
330
9
100
AcDbSymbolTableRecord
100
AcDbRegAppTableRecord
  2
AECBASE
 70
     0
  0
APPID
  5
8F8
330
9
100
AcDbSymbolTableRecord
100
AcDbRegAppTableRecord
  2
AEC_DWGVARSSETUP_DATA
 70
     0
  0
APPID
  5
8F9
330
9
100
AcDbSymbolTableRecord
100
AcDbRegAppTableRecord
  2
AEC_DISPREPCONFIG_DATA
 70
     0
  0
APPID
  5
8FA
330
9
100
AcDbSymbolTableRecord
100
AcDbRegAppTableRecord
  2
AEC_DISPREPSET_DATA
 70
     0
  0
APPID
  5
8FB
330
9
100
AcDbSymbolTableRecord
100
AcDbRegAppTableRecord
  2
AEC_ISOLATEDOBJECTS_XDATA
 70
     0
  0
APPID
  5
8FC
330
9
100
AcDbSymbolTableRecord
100
AcDbRegAppTableRecord
  2
ACAD_DSTYLE_DIMEXT_LENGTH
 70
     0
  0
APPID
  5
8FD
330
9
100
AcDbSymbolTableRecord
100
AcDbRegAppTableRecord
  2
ACAD_DSTYLE_DIMEXT_ENABLED
 70
     0
  0
APPID
  5
8FE
330
9
100
AcDbSymbolTableRecord
100
AcDbRegAppTableRecord
  2
ACAD_DSTYLE_DIMARC_LENGTH_SYMBOL
 70
     0
  0
APPID
  5
8FF
330
9
100
AcDbSymbolTableRecord
100
AcDbRegAppTableRecord
  2
AcAecLayerStandard
 70
     0
  0
APPID
  5
900
330
9
100
AcDbSymbolTableRecord
100
AcDbRegAppTableRecord
  2
ACAD_DSTYLE_DIMTEXT_FILL
 70
     0
  0
APPID
  5
901
330
9
100
AcDbSymbolTableRecord
100
AcDbRegAppTableRecord
  2
ACAD_DSTYLE_DIM_LINETYPE
 70
     0
  0
APPID
  5
902
330
9
100
AcDbSymbolTableRecord
100
AcDbRegAppTableRecord
  2
ACAD_DSTYLE_DIM_EXT1_LINETYPE
 70
     0
  0
APPID
  5
903
330
9
100
AcDbSymbolTableRecord
100
AcDbRegAppTableRecord
  2
ACAD_DSTYLE_DIM_EXT2_LINETYPE
 70
     0
  0
APPID
  5
904
330
9
100
AcDbSymbolTableRecord
100
AcDbRegAppTableRecord
  2
AcDbBlockRepETag
 70
     0
  0
APPID
  5
905
330
9
100
AcDbSymbolTableRecord
100
AcDbRegAppTableRecord
  2
AcDbDynamicBlockTrueName
 70
     0
  0
APPID
  5
906
330
9
100
AcDbSymbolTableRecord
100
AcDbRegAppTableRecord
  2
AcDbDynamicBlockGUID
 70
     0
  0
APPID
  5
907
330
9
100
AcDbSymbolTableRecord
100
AcDbRegAppTableRecord
  2
AcDbBlockRepBTag
 70
     0
  0
APPID
  5
908
330
9
100
AcDbSymbolTableRecord
100
AcDbRegAppTableRecord
  2
ACAUTHENVIRON
 70
     0
  0
APPID
  5
909
330
9
100
AcDbSymbolTableRecord
100
AcDbRegAppTableRecord
  2
DRC_XD
 70
     0
  0
APPID
  5
90A
330
9
100
AcDbSymbolTableRecord
100
AcDbRegAppTableRecord
  2
DRC_FINISH
 70
     0
  0
APPID
  5
90B
330
9
100
AcDbSymbolTableRecord
100
AcDbRegAppTableRecord
  2
DRC_DORATT
 70
     0
  0
APPID
  5
90C
330
9
100
AcDbSymbolTableRecord
100
AcDbRegAppTableRecord
  2
DRC_STUD
 70
     0
  0
APPID
  5
90D
330
9
100
AcDbSymbolTableRecord
100
AcDbRegAppTableRecord
  2
DRC_ITEM
 70
     0
  0
APPID
  5
90E
330
9
100
AcDbSymbolTableRecord
100
AcDbRegAppTableRecord
  2
DRC_WINATT
 70
     0
  0
APPID
  5
90F
330
9
100
AcDbSymbolTableRecord
100
AcDbRegAppTableRecord
  2
DRC_TEXT
 70
     0
  0
APPID
  5
910
330
9
100
AcDbSymbolTableRecord
100
AcDbRegAppTableRecord
  2
DRC_DIM
 70
     0
  0
APPID
  5
911
330
9
100
AcDbSymbolTableRecord
100
AcDbRegAppTableRecord
  2
DRC_GABLE
 70
     0
  0
APPID
  5
912
330
9
100
AcDbSymbolTableRecord
100
AcDbRegAppTableRecord
  2
DRC_MODEL
 70
     0
  0
APPID
  5
913
330
9
100
AcDbSymbolTableRecord
100
AcDbRegAppTableRecord
  2
DRC_SET_SCALE
 70
     0
  0
APPID
  5
914
330
9
100
AcDbSymbolTableRecord
100
AcDbRegAppTableRecord
  2
DRC_WALL
 70
     0
  0
ENDTAB
  0
TABLE
  2
DIMSTYLE
  5
A
330
0
100
AcDbSymbolTable
 70
     2
100
AcDbDimStyleTable
 71
     0
  0
DIMSTYLE
105
27
330
A
100
AcDbSymbolTableRecord
100
AcDbDimStyleTableRecord
  2
ISO-25
 70
     0
 41
2.5
 42
0.625
 43
3.75
 44
1.25
 73
     0
 74
     0
 77
     1
 78
     8
140
2.5
141
2.5
143
0.03937007874016
147
0.625
171
     3
172
     1
271
     2
272
     2
274
     3
278
    44
283
     0
284
     8
340
11
  0
DIMSTYLE
105
2B
330
A
100
AcDbSymbolTableRecord
100
AcDbDimStyleTableRecord
  2
Standard
 70
     0
340
11
  0
ENDTAB
  0
TABLE
  2
BLOCK_RECORD
  5
1
330
0
100
AcDbSymbolTable
 70
     2
  0
BLOCK_RECORD
  5
1F
330
1
100
AcDbSymbolTableRecord
100
AcDbBlockTableRecord
  2
*Model_Space
340
22
  0
BLOCK_RECORD
  5
1B
330
1
100
AcDbSymbolTableRecord
100
AcDbBlockTableRecord
  2
*Paper_Space
340
1E
  0
BLOCK_RECORD
  5
23
330
1
100
AcDbSymbolTableRecord
100
AcDbBlockTableRecord
  2
*Paper_Space0
340
26
  0
ENDTAB
  0
ENDSEC
  0
SECTION
  2
BLOCKS
  0
BLOCK
  5
20
330
1F
100
AcDbEntity
  8
0
100
AcDbBlockBegin
  2
*Model_Space
 70
     0
 10
0.0
 20
0.0
 30
0.0
  3
*Model_Space
  1

  0
ENDBLK
  5
21
330
1F
100
AcDbEntity
  8
0
100
AcDbBlockEnd
  0
BLOCK
  5
1C
330
1B
100
AcDbEntity
 67
     1
  8
0
100
AcDbBlockBegin
  2
*Paper_Space
 70
     0
 10
0.0
 20
0.0
 30
0.0
  3
*Paper_Space
  1

  0
ENDBLK
  5
1D
330
1B
100
AcDbEntity
 67
     1
  8
0
100
AcDbBlockEnd
  0
BLOCK
  5
24
330
23
100
AcDbEntity
  8
0
100
AcDbBlockBegin
  2
*Paper_Space0
 70
     0
 10
0.0
 20
0.0
 30
0.0
  3
*Paper_Space0
  1

  0
ENDBLK
  5
25
330
23
100
AcDbEntity
  8
0
100
AcDbBlockEnd
  0
ENDSEC
  0
SECTION
  2
ENTITIES
  0
ARC
  5
A7D
330
1F
100
AcDbEntity
  8
ceco.net 105 Honda S2000
100
AcDbCircle
 10
-367.5374825969337
 20
-11228.34279997912
 30
0.0
 40
12083.9239940454
100
AcDbArc
 50
86.60780000000393
 51
89.3348821174195
  0
ARC
  5
A7E
330
1F
100
AcDbEntity
  8
ceco.net 105 Honda S2000
100
AcDbCircle
 10
-11182.5423746421
 20
-193686.7382761036
 30
0.0
 40
194863.357183887
100
AcDbArc
 50
86.04889999999643
 51
86.50260310438957
  0
LINE
  5
A7F
330
1F
100
AcDbEntity
  8
ceco.net 105 Honda S2000
100
AcDbLine
 10
390.517434979789
 20
211.9345542794506
 30
0.0
 11
336.9591326555238
 21
218.030839167204
 31
0.0
  0
LINE
  5
A80
330
1F
100
AcDbEntity
  8
ceco.net 105 Honda S2000
100
AcDbLine
 10
-247.2346565551123
 20
824.0068311876564
 30
0.0
 11
-409.73003850691
 21
824.0068311876564
 31
0.0
  0
LINE
  5
A81
330
1F
100
AcDbEntity
  8
ceco.net 105 Honda S2000
100
AcDbLine
 10
-384.7507644197902
 20
292.9270483447652
 30
0.0
 11
-755.1665784353389
 21
322.9702297583169
 31
0.0
  0
LINE
  5
A82
330
1F
100
AcDbEntity
  8
ceco.net 105 Honda S2000
100
AcDbLine
 10
-196.9158303891307
 20
702.6431866152158
 30
0.0
 11
-629.8098527886903
 21
707.2067078425495
 31
0.0
  0
LINE
  5
A83
330
1F
100
AcDbEntity
  8
ceco.net 105 Honda S2000
100
AcDbLine
 10
360.0239060763271
 20
420.995866650617
 30
0.0
 11
499.1510226307438
 21
415.351783337206
 31
0.0
  0
LINE
  5
A84
330
1F
100
AcDbEntity
  8
ceco.net 105 Honda S2000
100
AcDbLine
 10
2062.921503074001
 20
190.1878573895844
 30
0.0
 11
390.517434979789
 21
211.9345542794506
 31
0.0
  0
LINE
  5
A85
330
1F
100
AcDbEntity
  8
ceco.net 105 Honda S2000
100
AcDbLine
 10
1086.644568881951
 20
1167.752066100383
 30
0.0
 11
1216.074437379371
 21
1031.006552829308
 31
0.0
  0
LINE
  5
A86
330
1F
100
AcDbEntity
  8
ceco.net 105 Honda S2000
100
AcDbLine
 10
1063.957063130568
 20
1222.294150946097
 30
0.0
 11
1250.290838862303
 21
1025.402228514798
 31
0.0
  0
LINE
  5
A87
330
1F
100
AcDbEntity
  8
ceco.net 105 Honda S2000
100
AcDbLine
 10
1116.037248366978
 20
1215.7090698766
 30
0.0
 11
1454.778622284066
 21
894.9115414869918
 31
0.0
  0
LINE
  5
A88
330
1F
100
AcDbEntity
  8
ceco.net 105 Honda S2000
100
AcDbLine
 10
1178.095132426824
 20
1277.887046600593
 30
0.0
 11
1688.729139244649
 21
914.146383152012
 31
0.0
  0
LINE
  5
A89
330
1F
100
AcDbEntity
  8
ceco.net 105 Honda S2000
100
AcDbLine
 10
-825.5008485810829
 20
716.7140437330997
 30
0.0
 11
-842.1336825280448
 21
716.7140437330997
 31
0.0
  0
LINE
  5
A8A
330
1F
100
AcDbEntity
  8
ceco.net 105 Honda S2000
100
AcDbLine
 10
-785.3698834013193
 20
885.1440048247056
 30
0.0
 11
-785.0596440196967
 21
864.1578118117939
 31
0.0
  0
LINE
  5
A8B
330
1F
100
AcDbEntity
  8
ceco.net 105 Honda S2000
100
AcDbLine
 10
-809.5188451823776
 20
899.8296262781549
 30
0.0
 11
-785.3698834013193
 21
885.1440048247056
 31
0.0
  0
LINE
  5
A8C
330
1F
100
AcDbEntity
  8
ceco.net 105 Honda S2000
100
AcDbLine
 10
-846.797280976083
 20
876.727510630986
 30
0.0
 11
-809.5185165628789
 21
899.8253329842297
 31
0.0
  0
LINE
  5
A8D
330
1F
100
AcDbEntity
  8
ceco.net 105 Honda S2000
100
AcDbLine
 10
-851.8711960245854
 20
925.5852093863248
 30
0.0
 11
-846.797280976083
 21
876.727510630986
 31
0.0
  0
LINE
  5
A8E
330
1F
100
AcDbEntity
  8
ceco.net 105 Honda S2000
100
AcDbLine
 10
-812.1505474466829
 20
934.2118657416611
 30
0.0
 11
-851.8711960245854
 21
925.5852093863248
 31
0.0
  0
LINE
  5
A8F
330
1F
100
AcDbEntity
  8
ceco.net 105 Honda S2000
100
AcDbLine
 10
-812.1505474466829
 20
934.2118657416611
 30
0.0
 11
-809.5185165628789
 21
899.8253329842297
 31
0.0
  0
LINE
  5
A90
330
1F
100
AcDbEntity
  8
ceco.net 105 Honda S2000
100
AcDbLine
 10
1495.860321053303
 20
324.8416737705882
 30
0.0
 11
583.5864076111467
 21
359.8687007356382
 31
0.0
  0
LINE
  5
A91
330
1F
100
AcDbEntity
  8
ceco.net 105 Honda S2000
100
AcDbLine
 10
1988.032409021631
 20
257.6298034343815
 30
0.0
 11
1988.032409021631
 21
246.9715795152767
 31
0.0
  0
LINE
  5
A92
330
1F
100
AcDbEntity
  8
ceco.net 105 Honda S2000
100
AcDbLine
 10
1970.028517161496
 20
295.2588381167914
 30
0.0
 11
1956.768285524565
 21
305.9470852023403
 31
0.0
  0
LINE
  5
A93
330
1F
100
AcDbEntity
  8
ceco.net 105 Honda S2000
100
AcDbLine
 10
2734.586125809233
 20
581.8900130837171
 30
0.0
 11
3119.162866441067
 21
556.9908007726951
 31
0.0
  0
LINE
  5
A94
330
1F
100
AcDbEntity
  8
ceco.net 105 Honda S2000
100
AcDbLine
 10
3062.178897429723
 20
564.2964378254434
 30
0.0
 11
2871.161507806741
 21
580.6690710009022
 31
0.0
  0
LINE
  5
A95
330
1F
100
AcDbEntity
  8
ceco.net 105 Honda S2000
100
AcDbLine
 10
3032.155731459614
 20
646.9201905749685
 30
0.0
 11
3078.431437941734
 21
597.9924377656023
 31
0.0
  0
LINE
  5
A96
330
1F
100
AcDbEntity
  8
ceco.net 105 Honda S2000
100
AcDbLine
 10
2454.751662011258
 20
477.4247198760456
 30
0.0
 11
2511.021104416344
 21
617.87724189497
 31
0.0
  0
LINE
  5
A97
330
1F
100
AcDbEntity
  8
ceco.net 105 Honda S2000
100
AcDbLine
 10
2357.76571623655
 20
485.0664495922572
 30
0.0
 11
2247.804481432773
 21
597.4513081378716
 31
0.0
  0
LINE
  5
A98
330
1F
100
AcDbEntity
  8
ceco.net 105 Honda S2000
100
AcDbLine
 10
2503.653283546213
 20
449.7319631684984
 30
0.0
 11
2545.982358691748
 21
601.155710935727
 31
0.0
  0
LINE
  5
A99
330
1F
100
AcDbEntity
  8
ceco.net 105 Honda S2000
100
AcDbLine
 10
2545.975661849137
 20
305.7241796393826
 30
0.0
 11
2698.292791931424
 21
344.7623058365605
 31
0.0
  0
LINE
  5
A9A
330
1F
100
AcDbEntity
  8
ceco.net 105 Honda S2000
100
AcDbLine
 10
2442.424094465561
 20
197.0645041562564
 30
0.0
 11
2552.407782033551
 21
84.67126989354785
 31
0.0
  0
LINE
  5
A9B
330
1F
100
AcDbEntity
  8
ceco.net 105 Honda S2000
100
AcDbLine
 10
2296.550148777663
 20
232.3989905804808
 30
0.0
 11
2254.205457004718
 21
80.97038070638138
 31
0.0
  0
LINE
  5
A9C
330
1F
100
AcDbEntity
  8
ceco.net 105 Honda S2000
100
AcDbLine
 10
2254.227770474273
 20
376.406774109131
 30
0.0
 11
2101.910648270044
 21
337.3543920334376
 31
0.0
  0
LINE
  5
A9D
330
1F
100
AcDbEntity
  8
ceco.net 105 Honda S2000
100
AcDbLine
 10
2545.512526715174
 20
361.9269903508428
 30
0.0
 11
2695.293491544667
 21
383.4078143708355
 31
0.0
  0
LINE
  5
A9E
330
1F
100
AcDbEntity
  8
ceco.net 105 Honda S2000
100
AcDbLine
 10
2490.876202487386
 20
225.5609365384041
 30
0.0
 11
2584.364190901629
 21
106.5827077675092
 31
0.0
  0
LINE
  5
A9F
330
1F
100
AcDbEntity
  8
ceco.net 105 Honda S2000
100
AcDbLine
 10
2345.451770313084
 20
204.6926122507027
 30
0.0
 11
2289.165112788323
 21
64.24698883867296
 31
0.0
  0
LINE
  5
AA0
330
1F
100
AcDbEntity
  8
ceco.net 105 Honda S2000
100
AcDbLine
 10
2254.677283986937
 20
320.2039633976708
 30
0.0
 11
2104.908039216883
 21
298.7227745765301
 31
0.0
  0
LINE
  5
AA1
330
1F
100
AcDbEntity
  8
ceco.net 105 Honda S2000
100
AcDbLine
 10
2309.327229836024
 20
456.5700172101094
 30
0.0
 11
2215.837041015736
 21
575.5328951584122
 31
0.0
  0
ARC
  5
AA2
330
1F
100
AcDbEntity
  8
ceco.net 105 Honda S2000
100
AcDbCircle
 10
2264.863686487078
 20
-993.3844737020374
 30
0.0
 40
1812.588599106811
100
AcDbArc
 50
69.64900000001967
 51
81.96740000000957
  0
ARC
  5
AA3
330
1F
100
AcDbEntity
  8
ceco.net 105 Honda S2000
100
AcDbCircle
 10
2710.407469481229
 20
716.4038043514771
 30
0.0
 40
12.0839239940454
100
AcDbArc
 50
87.94599999978265
 51
238.9380000035211
  0
ARC
  5
AA4
330
1F
100
AcDbEntity
  8
ceco.net 105 Honda S2000
100
AcDbCircle
 10
3.128524469211811
 20
854.7905840292985
 30
0.0
 40
431.1817011669512
100
AcDbArc
 50
168.9570000000124
 51
181.756000000008
  0
ARC
  5
AA5
330
1F
100
AcDbEntity
  8
ceco.net 105 Honda S2000
100
AcDbCircle
 10
-541.2515208995899
 20
888.7868156290094
 30
0.0
 40
315.8246913326191
100
AcDbArc
 50
350.9830000000139
 51
10.42000000002596
  0
ARC
  5
AA6
330
1F
100
AcDbEntity
  8
ceco.net 105 Honda S2000
100
AcDbCircle
 10
-409.73003850691
 20
842.1308157117053
 30
0.0
 40
18.1258859910681
100
AcDbArc
 50
181.7559999998385
 51
270.0
  0
ARC
  5
AA7
330
1F
100
AcDbEntity
  8
ceco.net 105 Honda S2000
100
AcDbCircle
 10
-247.2346565551123
 20
842.1308157117053
 30
0.0
 40
18.1258859910681
100
AcDbArc
 50
270.0
 51
350.983000000604
  0
ARC
  5
AA8
330
1F
100
AcDbEntity
  8
ceco.net 105 Honda S2000
100
AcDbCircle
 10
-402.2742856242692
 20
933.9116340818762
 30
0.0
 40
18.1258859910681
100
AcDbArc
 50
94.21459999984543
 51
168.9568999991947
  0
ARC
  5
AA9
330
1F
100
AcDbEntity
  8
ceco.net 105 Honda S2000
100
AcDbCircle
 10
-248.4656063602304
 20
942.6383676572184
 30
0.0
 40
18.1258859910681
100
AcDbArc
 50
10.42000000079384
 51
92.27509999933609
  0
ARC
  5
AAA
330
1F
100
AcDbEntity
  8
ceco.net 105 Honda S2000
100
AcDbCircle
 10
-525.3792738229966
 20
-429.190139565948
 30
0.0
 40
1158.11360412678
100
AcDbArc
 50
107.1750999999865
 51
108.9861000000218
  0
ARC
  5
AAB
330
1F
100
AcDbEntity
  8
ceco.net 105 Honda S2000
100
AcDbCircle
 10
-890.3709025206042
 20
631.6383990961074
 30
0.0
 40
36.2517719821362
100
AcDbArc
 50
108.9860999996633
 51
179.093393000115
  0
ARC
  5
AAC
330
1F
100
AcDbEntity
  8
ceco.net 105 Honda S2000
100
AcDbCircle
 10
2013.239532492123
 20
-104.0492598329257
 30
0.0
 40
2454.794126927101
100
AcDbArc
 50
166.4624999999952
 51
170.6472799999946
  0
ARC
  5
AAD
330
1F
100
AcDbEntity
  8
ceco.net 105 Honda S2000
100
AcDbCircle
 10
2013.239532492123
 20
-104.0492598329257
 30
0.0
 40
2430.625478321251
100
AcDbArc
 50
166.4624999999983
 51
170.6002899999977
  0
ARC
  5
AAE
330
1F
100
AcDbEntity
  8
ceco.net 105 Honda S2000
100
AcDbCircle
 10
-684.7622542358002
 20
277.3850560941681
 30
0.0
 40
1078.77238419006
100
AcDbArc
 50
7.596999999993563
 51
8.504999999989237
  0
ARC
  5
AAF
330
1F
100
AcDbEntity
  8
ceco.net 105 Honda S2000
100
AcDbCircle
 10
-20.91002375120285
 20
385.7186466359014
 30
0.0
 40
362.5177198213622
100
AcDbArc
 50
88.50880000003362
 51
166.4624999999857
  0
ARC
  5
AB0
330
1F
100
AcDbEntity
  8
ceco.net 105 Honda S2000
100
AcDbCircle
 10
-41.89621676458034
 20
-420.4834214345138
 30
0.0
 40
1168.99199792991
100
AcDbArc
 50
85.340199999993
 51
88.50879999997491
  0
ARC
  5
AB1
330
1F
100
AcDbEntity
  8
ceco.net 105 Honda S2000
100
AcDbCircle
 10
23.6243391041645
 20
383.3268010803911
 30
0.0
 40
362.5177198213622
100
AcDbArc
 50
8.504999999959288
 51
85.34019999997324
  0
ARC
  5
AB2
330
1F
100
AcDbEntity
  8
ceco.net 105 Honda S2000
100
AcDbCircle
 10
-41.89621676458034
 20
-420.4834214345138
 30
0.0
 40
1144.82334932406
100
AcDbArc
 50
85.34019999997976
 51
88.50879999998143
  0
ARC
  5
AB3
330
1F
100
AcDbEntity
  8
ceco.net 105 Honda S2000
100
AcDbCircle
 10
-684.7622542358002
 20
277.3850560941681
 30
0.0
 40
1054.60373558421
100
AcDbArc
 50
356.5815636222857
 51
8.504999999989237
  0
ARC
  5
AB4
330
1F
100
AcDbEntity
  8
ceco.net 105 Honda S2000
100
AcDbCircle
 10
-20.91002375120285
 20
385.7186466359014
 30
0.0
 40
338.3500719877111
100
AcDbArc
 50
88.50879999997491
 51
166.4625000000047
  0
ARC
  5
AB5
330
1F
100
AcDbEntity
  8
ceco.net 105 Honda S2000
100
AcDbCircle
 10
23.6243391041645
 20
383.3268010803911
 30
0.0
 40
338.3500719877111
100
AcDbArc
 50
8.504999999968951
 51
85.34019999996028
  0
ARC
  5
AB6
330
1F
100
AcDbEntity
  8
ceco.net 105 Honda S2000
100
AcDbCircle
 10
3881.411019532009
 20
166.2793265610415
 30
0.0
 40
1895.58263756988
100
AcDbArc
 50
173.472369999996
 51
177.2377754999676
  0
ARC
  5
AB7
330
1F
100
AcDbEntity
  8
ceco.net 105 Honda S2000
100
AcDbCircle
 10
3881.411019532009
 20
166.2793265610415
 30
0.0
 40
1871.41398896403
100
AcDbArc
 50
173.472369999996
 51
179.2469819714295
  0
ARC
  5
AB8
330
1F
100
AcDbEntity
  8
ceco.net 105 Honda S2000
100
AcDbCircle
 10
2178.967408646363
 20
306.6176120267662
 30
0.0
 40
602.5028931415623
100
AcDbArc
 50
349.1865201447599
 51
16.59599999999984
  0
ARC
  5
AB9
330
1F
100
AcDbEntity
  8
ceco.net 105 Honda S2000
100
AcDbCircle
 10
2178.967408646363
 20
306.6176120267662
 30
0.0
 40
626.6715417474122
100
AcDbArc
 50
349.5699503155625
 51
16.59599999999047
  0
ARC
  5
ABA
330
1F
100
AcDbEntity
  8
ceco.net 105 Honda S2000
100
AcDbCircle
 10
1955.054636842105
 20
673.1103990223671
 30
0.0
 40
9.062932987812063
100
AcDbArc
 50
274.0810000003095
 51
82.90409999946339
  0
ARC
  5
ABB
330
1F
100
AcDbEntity
  8
ceco.net 105 Honda S2000
100
AcDbCircle
 10
1905.46637438191
 20
674.4214106033503
 30
0.0
 40
9.062932987812063
100
AcDbArc
 50
94.08100000030959
 51
262.9039999992065
  0
ARC
  5
ABC
330
1F
100
AcDbEntity
  8
ceco.net 105 Honda S2000
100
AcDbCircle
 10
1923.590358905959
 20
420.3753878871392
 30
0.0
 40
263.7495099576541
100
AcDbArc
 50
82.90410000003461
 51
94.08100000009424
  0
ARC
  5
ABD
330
1F
100
AcDbEntity
  8
ceco.net 105 Honda S2000
100
AcDbCircle
 10
1936.930652318522
 20
927.1564217385783
 30
0.0
 40
263.7495099576541
100
AcDbArc
 50
262.9039999999025
 51
274.0809999999571
  0
ARC
  5
ABE
330
1F
100
AcDbEntity
  8
ceco.net 105 Honda S2000
100
AcDbCircle
 10
-11182.5423746421
 20
-193686.7382761036
 30
0.0
 40
194863.357183887
100
AcDbArc
 50
86.56638496605085
 51
86.60780000000393
  0
ARC
  5
ABF
330
1F
100
AcDbEntity
  8
ceco.net 105 Honda S2000
100
AcDbCircle
 10
2406.302821371238
 20
335.0695656443893
 30
0.0
 40
410.8530154886642
100
AcDbArc
 50
88.72119999995708
 51
173.4723600000045
  0
ARC
  5
AC0
330
1F
100
AcDbEntity
  8
ceco.net 105 Honda S2000
100
AcDbCircle
 10
2398.496798219624
 20
-14.86044145781141
 30
0.0
 40
760.8620835947253
100
AcDbArc
 50
85.1588000000309
 51
88.72120000002871
  0
ARC
  5
AC1
330
1F
100
AcDbEntity
  8
ceco.net 105 Honda S2000
100
AcDbCircle
 10
2432.112736383453
 20
382.0658281095273
 30
0.0
 40
362.5177198213622
100
AcDbArc
 50
16.59599999999984
 51
85.1587999999657
  0
ARC
  5
AC2
330
1F
100
AcDbEntity
  8
ceco.net 105 Honda S2000
100
AcDbCircle
 10
2398.496798219624
 20
-14.86044145781141
 30
0.0
 40
736.6944357610743
100
AcDbArc
 50
85.15879999999844
 51
88.72120000000917
  0
ARC
  5
AC3
330
1F
100
AcDbEntity
  8
ceco.net 105 Honda S2000
100
AcDbCircle
 10
2406.302821371238
 20
335.0695656443893
 30
0.0
 40
386.6853676550131
100
AcDbArc
 50
88.72119999999615
 51
173.4723599999948
  0
ARC
  5
AC4
330
1F
100
AcDbEntity
  8
ceco.net 105 Honda S2000
100
AcDbCircle
 10
2432.112736383453
 20
382.0658281095273
 30
0.0
 40
338.3500719877111
100
AcDbArc
 50
16.59599999997301
 51
85.15879999999844
  0
ARC
  5
AC5
330
1F
100
AcDbEntity
  8
ceco.net 105 Honda S2000
100
AcDbCircle
 10
-367.5374825969337
 20
-11228.34279997912
 30
0.0
 40
12083.9239940454
100
AcDbArc
 50
90.2869333856233
 51
91.01090000000043
  0
ARC
  5
AC6
330
1F
100
AcDbEntity
  8
ceco.net 105 Honda S2000
100
AcDbCircle
 10
-2096.731734361033
 20
-49284.01667853501
 30
0.0
 40
50304.41504605441
100
AcDbArc
 50
85.95160000000319
 51
86.05280000000705
  0
ARC
  5
AC7
330
1F
100
AcDbEntity
  8
ceco.net 105 Honda S2000
100
AcDbCircle
 10
-2096.731734361033
 20
-49284.01667853501
 30
0.0
 40
50304.41504605441
100
AcDbArc
 50
86.27649999999848
 51
87.75899999999689
  0
ARC
  5
AC8
330
1F
100
AcDbEntity
  8
ceco.net 105 Honda S2000
100
AcDbCircle
 10
1296.846761560067
 20
850.0669392497691
 30
0.0
 40
24.16784798809081
100
AcDbArc
 50
207.3729999994994
 51
262.6689999991263
  0
ARC
  5
AC9
330
1F
100
AcDbEntity
  8
ceco.net 105 Honda S2000
100
AcDbCircle
 10
1363.027827079873
 20
851.8683292082457
 30
0.0
 40
24.16784798809081
100
AcDbArc
 50
280.4500000008894
 51
18.24999999951377
  0
ARC
  5
ACA
330
1F
100
AcDbEntity
  8
ceco.net 105 Honda S2000
100
AcDbCircle
 10
1212.361572520341
 20
802.18999724965
 30
0.0
 40
182.8120583635291
100
AcDbArc
 50
18.24999999997002
 51
41.59299999994334
  0
ARC
  5
ACB
330
1F
100
AcDbEntity
  8
ceco.net 105 Honda S2000
100
AcDbCircle
 10
1324.177850314416
 20
1062.500853931665
 30
0.0
 40
238.357917724626
100
AcDbArc
 50
262.6690000001702
 51
280.4500000000155
  0
ARC
  5
ACC
330
1F
100
AcDbEntity
  8
ceco.net 105 Honda S2000
100
AcDbCircle
 10
1471.171270904131
 20
940.326583877573
 30
0.0
 40
220.4791223894911
100
AcDbArc
 50
191.0960000000069
 51
207.3729999999365
  0
ARC
  5
ACD
330
1F
100
AcDbEntity
  8
ceco.net 105 Honda S2000
100
AcDbCircle
 10
1364.869247926399
 20
1771.32778703947
 30
0.0
 40
880.3352694835444
100
AcDbArc
 50
257.8030000000073
 51
267.4049999999789
  0
ARC
  5
ACE
330
1F
100
AcDbEntity
  8
ceco.net 105 Honda S2000
100
AcDbCircle
 10
1357.583626317791
 20
965.8162517863273
 30
0.0
 40
204.4017170125561
100
AcDbArc
 50
168.4110000000263
 51
188.3940000000702
  0
ARC
  5
ACF
330
1F
100
AcDbEntity
  8
ceco.net 105 Honda S2000
100
AcDbCircle
 10
1201.002808062359
 20
694.8972097948606
 30
0.0
 40
336.4456024930141
100
AcDbArc
 50
84.2266000000489
 51
92.63100000002763
  0
ARC
  5
AD0
330
1F
100
AcDbEntity
  8
ceco.net 105 Honda S2000
100
AcDbCircle
 10
1326.109340658877
 20
916.0378426077256
 30
0.0
 40
24.16784798809081
100
AcDbArc
 50
267.4049999992682
 51
33.81500000042515
  0
ARC
  5
AD1
330
1F
100
AcDbEntity
  8
ceco.net 105 Honda S2000
100
AcDbCircle
 10
1185.260661371517
 20
940.38663020953
 30
0.0
 40
30.20980998511351
100
AcDbArc
 50
188.3939999997017
 51
257.8030000009406
  0
ARC
  5
AD2
330
1F
100
AcDbEntity
  8
ceco.net 105 Honda S2000
100
AcDbCircle
 10
1186.941958665382
 20
1000.813255585398
 30
0.0
 40
30.20980998511351
100
AcDbArc
 50
92.63099999951887
 51
168.4105999995524
  0
ARC
  5
AD3
330
1F
100
AcDbEntity
  8
ceco.net 105 Honda S2000
100
AcDbCircle
 10
1229.985170945059
 20
981.5483907541672
 30
0.0
 40
48.33569597618162
100
AcDbArc
 50
65.18087120666767
 51
84.22659999977378
  0
ARC
  5
AD4
330
1F
100
AcDbEntity
  8
ceco.net 105 Honda S2000
100
AcDbCircle
 10
1156.858746363781
 20
1234.203340113996
 30
0.0
 40
96.67129187514333
100
AcDbArc
 50
183.8249999999476
 51
223.4230000001334
  0
ARC
  5
AD5
330
1F
100
AcDbEntity
  8
ceco.net 105 Honda S2000
100
AcDbCircle
 10
1289.551132229622
 20
997.8009312661777
 30
0.0
 40
336.3555329951041
100
AcDbArc
 50
120.5913000000123
 51
131.8761999999984
  0
ARC
  5
AD6
330
1F
100
AcDbEntity
  8
ceco.net 105 Honda S2000
100
AcDbCircle
 10
1077.117217548191
 20
1234.753764823446
 30
0.0
 40
18.1258859910681
100
AcDbArc
 50
131.8760000019508
 51
223.4229999990505
  0
ARC
  5
AD7
330
1F
100
AcDbEntity
  8
ceco.net 105 Honda S2000
100
AcDbCircle
 10
1142.537696196231
 20
1215.578969490616
 30
0.0
 40
18.1258859910681
100
AcDbArc
 50
124.0199999995073
 51
226.5580000001609
  0
ARC
  5
AD8
330
1F
100
AcDbEntity
  8
ceco.net 105 Honda S2000
100
AcDbCircle
 10
1128.506869966629
 20
1228.879232015362
 30
0.0
 40
18.1258859910681
100
AcDbArc
 50
124.8739999997117
 51
226.558000000813
  0
ARC
  5
AD9
330
1F
100
AcDbEntity
  8
ceco.net 105 Honda S2000
100
AcDbCircle
 10
1289.551132229622
 20
997.8009312661777
 30
0.0
 40
280.8797276879371
100
AcDbArc
 50
108.9478999999863
 51
124.0204000000369
  0
ARC
  5
ADA
330
1F
100
AcDbEntity
  8
ceco.net 105 Honda S2000
100
AcDbCircle
 10
1289.551132229622
 20
997.8009312661777
 30
0.0
 40
299.7793106660521
100
AcDbArc
 50
111.4931999999975
 51
124.874000000037
  0
ARC
  5
ADB
330
1F
100
AcDbEntity
  8
ceco.net 105 Honda S2000
100
AcDbCircle
 10
1091.007935669738
 20
795.4247771842817
 30
0.0
 40
492.6751497067052
100
AcDbArc
 50
81.02879999997865
 51
86.81639999999827
  0
ARC
  5
ADC
330
1F
100
AcDbEntity
  8
ceco.net 105 Honda S2000
100
AcDbCircle
 10
1164.064306197222
 20
1258.201857446128
 30
0.0
 40
24.16784798809081
100
AcDbArc
 50
54.53700000078772
 51
81.02880000138366
  0
ARC
  5
ADD
330
1F
100
AcDbEntity
  8
ceco.net 105 Honda S2000
100
AcDbCircle
 10
1271.066869713831
 20
4561.820940399211
 30
0.0
 40
3671.51295102732
100
AcDbArc
 50
272.8679999999976
 51
277.5790000000004
  0
ARC
  5
ADE
330
1F
100
AcDbEntity
  8
ceco.net 105 Honda S2000
100
AcDbCircle
 10
1095.42134106718
 20
-7266.585895798034
 30
0.0
 40
8215.519120586824
100
AcDbArc
 50
79.29999999999383
 51
85.39289999999519
  0
ARC
  5
ADF
330
1F
100
AcDbEntity
  8
ceco.net 105 Honda S2000
100
AcDbCircle
 10
-629.6197060705161
 20
725.3306923665984
 30
0.0
 40
18.1258859910681
100
AcDbArc
 50
190.607000000652
 51
269.3949999994059
  0
ARC
  5
AE0
330
1F
100
AcDbEntity
  8
ceco.net 105 Honda S2000
100
AcDbCircle
 10
-222.4855600735171
 20
1092.343880905671
 30
0.0
 40
96.67129187514333
100
AcDbArc
 50
270.9879999998944
 51
294.5239999998484
  0
ARC
  5
AE1
330
1F
100
AcDbEntity
  8
ceco.net 105 Honda S2000
100
AcDbCircle
 10
-202.3700388739815
 20
1107.435525666591
 30
0.0
 40
145.006887774105
100
AcDbArc
 50
271.6360000000293
 51
300.0880000000452
  0
ARC
  5
AE2
330
1F
100
AcDbEntity
  8
ceco.net 105 Honda S2000
100
AcDbCircle
 10
-67.77618583012361
 20
-3605.260805756417
 30
0.0
 40
4569.605922409921
100
AcDbArc
 50
91.63589999999636
 51
95.23160000000997
  0
ARC
  5
AE3
330
1F
100
AcDbEntity
  8
ceco.net 105 Honda S2000
100
AcDbCircle
 10
-161.3684018808415
 20
-2450.864069576473
 30
0.0
 40
3447.059762235602
100
AcDbArc
 50
90.9881999999977
 51
100.8823999999953
  0
ARC
  5
AE4
330
1F
100
AcDbEntity
  8
ceco.net 105 Honda S2000
100
AcDbCircle
 10
-98.59996955934901
 20
1128.041425244085
 30
0.0
 40
149.347236801168
100
AcDbArc
 50
235.887999999776
 51
257.9929999998854
  0
ARC
  5
AE5
330
1F
100
AcDbEntity
  8
ceco.net 105 Honda S2000
100
AcDbCircle
 10
-702.8462078715673
 20
758.3061363235063
 30
0.0
 40
145.006887774105
100
AcDbArc
 50
183.7049999999533
 51
194.8309999999691
  0
ARC
  5
AE6
330
1F
100
AcDbEntity
  8
ceco.net 105 Honda S2000
100
AcDbCircle
 10
57.01009966293361
 20
807.5141053482836
 30
0.0
 40
906.4574254218426
100
AcDbArc
 50
175.6210000000064
 51
183.705000000009
  0
ARC
  5
AE7
330
1F
100
AcDbEntity
  8
ceco.net 105 Honda S2000
100
AcDbCircle
 10
-878.0714121945202
 20
711.9103371779381
 30
0.0
 40
36.2517719821362
100
AcDbArc
 50
287.1749999996857
 51
14.8309999995441
  0
ARC
  5
AE8
330
1F
100
AcDbEntity
  8
ceco.net 105 Honda S2000
100
AcDbCircle
 10
-727.3651267471722
 20
790.0206073100159
 30
0.0
 40
96.67129187514333
100
AcDbArc
 50
141.5442000001378
 51
176.4462400001141
  0
ARC
  5
AE9
330
1F
100
AcDbEntity
  8
ceco.net 105 Honda S2000
100
AcDbCircle
 10
-831.3553659459575
 20
2168.874535370286
 30
0.0
 40
1470.02427538911
100
AcDbArc
 50
270.946000000033
 51
275.3930000000167
  0
ARC
  5
AEA
330
1F
100
AcDbEntity
  8
ceco.net 105 Honda S2000
100
AcDbCircle
 10
133.8794122682885
 20
736.529333273316
 30
0.0
 40
959.5834176057573
100
AcDbArc
 50
176.4460000000027
 51
181.1780000000023
  0
ARC
  5
AEB
330
1F
100
AcDbEntity
  8
ceco.net 105 Honda S2000
100
AcDbCircle
 10
-717.7376981931737
 20
-406.1823867106396
 30
0.0
 40
1275.52419851346
100
AcDbArc
 50
84.62009999999832
 51
92.21750000001014
  0
ARC
  5
AEC
330
1F
100
AcDbEntity
  8
ceco.net 105 Honda S2000
100
AcDbCircle
 10
-807.3768640574998
 20
717.1844066664523
 30
0.0
 40
18.1258859910681
100
AcDbArc
 50
181.1779999999176
 51
270.9459999995054
  0
ARC
  5
AED
330
1F
100
AcDbEntity
  8
ceco.net 105 Honda S2000
100
AcDbCircle
 10
-765.2243390348738
 20
820.0838041674758
 30
0.0
 40
48.33569597618162
100
AcDbArc
 50
92.21760000015709
 51
141.544200000061
  0
ARC
  5
AEE
330
1F
100
AcDbEntity
  8
ceco.net 105 Honda S2000
100
AcDbCircle
 10
-941.4102846691383
 20
978.9563907591107
 30
0.0
 40
394.3903128151142
100
AcDbArc
 50
323.4379999999897
 51
333.7749999999592
  0
ARC
  5
AEF
330
1F
100
AcDbEntity
  8
ceco.net 105 Honda S2000
100
AcDbCircle
 10
-717.6976673053576
 20
868.751356205106
 30
0.0
 40
145.006887774105
100
AcDbArc
 50
333.775000000035
 51
346.0680000000447
  0
ARC
  5
AF0
330
1F
100
AcDbEntity
  8
ceco.net 105 Honda S2000
100
AcDbCircle
 10
-702.275767717976
 20
801.6095493742211
 30
0.0
 40
96.67129187514333
100
AcDbArc
 50
275.3929999998074
 51
323.4380000000431
  0
ARC
  5
AF1
330
1F
100
AcDbEntity
  8
ceco.net 105 Honda S2000
100
AcDbCircle
 10
-600.4071655818259
 20
839.6589083803299
 30
0.0
 40
24.16784798809081
100
AcDbArc
 50
346.067999999397
 51
84.62010000088822
  0
ARC
  5
AF2
330
1F
100
AcDbEntity
  8
ceco.net 105 Honda S2000
100
AcDbCircle
 10
-352.2256679520941
 20
-498.7177873191941
 30
0.0
 40
1450.06887774105
100
AcDbArc
 50
95.23160000000997
 51
107.3801000000085
  0
ARC
  5
AF3
330
1F
100
AcDbEntity
  8
ceco.net 105 Honda S2000
100
AcDbCircle
 10
115.9755976279267
 20
573.8137814378312
 30
0.0
 40
1448.05732562106
100
AcDbArc
 50
352.6710000000056
 51
5.263999999990545
  0
ARC
  5
AF4
330
1F
100
AcDbEntity
  8
ceco.net 105 Honda S2000
100
AcDbCircle
 10
1432.351317304652
 20
404.5131485330819
 30
0.0
 40
120.839239940454
100
AcDbArc
 50
334.3619999999179
 51
352.6709999999143
  0
ARC
  5
AF5
330
1F
100
AcDbEntity
  8
ceco.net 105 Honda S2000
100
AcDbCircle
 10
1497.721757343504
 20
373.1489478164765
 30
0.0
 40
48.33569597618162
100
AcDbArc
 50
267.8009999999887
 51
334.3620000000461
  0
ARC
  5
AF6
330
1F
100
AcDbEntity
  8
ceco.net 105 Honda S2000
100
AcDbCircle
 10
2455.020412018988
 20
1291.727726112487
 30
0.0
 40
2122.71789585492
100
AcDbArc
 50
195.557
 51
204.9969999999979
  0
ARC
  5
AF7
330
1F
100
AcDbEntity
  8
ceco.net 105 Honda S2000
100
AcDbCircle
 10
701.1070869397372
 20
803.4409624984434
 30
0.0
 40
302.0980998511351
100
AcDbArc
 50
149.5790000000065
 51
195.55699999994
  0
ARC
  5
AF8
330
1F
100
AcDbEntity
  8
ceco.net 105 Honda S2000
100
AcDbCircle
 10
585.9081991123968
 20
420.2452875011547
 30
0.0
 40
60.41961997022703
100
AcDbArc
 50
204.9970000000299
 51
267.8009999999626
  0
ARC
  5
AF9
330
1F
100
AcDbEntity
  8
ceco.net 105 Honda S2000
100
AcDbCircle
 10
479.1057900353336
 20
2.472933028959062
 30
0.0
 40
1322.26026020676
100
AcDbArc
 50
39.13499999998519
 51
42.44899999999252
  0
ARC
  5
AFA
330
1F
100
AcDbEntity
  8
ceco.net 105 Honda S2000
100
AcDbCircle
 10
1317.272522141691
 20
684.4891789251885
 30
0.0
 40
241.6784798809081
100
AcDbArc
 50
5.263999999967843
 51
39.13500000004774
  0
ARC
  5
AFB
330
1F
100
AcDbEntity
  8
ceco.net 105 Honda S2000
100
AcDbCircle
 10
1939.695111809763
 20
257.6298034343815
 30
0.0
 40
48.33569597618162
100
AcDbArc
 50
0.0
 51
51.13200000047289
  0
ARC
  5
AFC
330
1F
100
AcDbEntity
  8
ceco.net 105 Honda S2000
100
AcDbCircle
 10
1820.282973024528
 20
136.586405965634
 30
0.0
 40
217.510832047257
100
AcDbArc
 50
51.13200000007718
 51
87.67659999994918
  0
ARC
  5
AFD
330
1F
100
AcDbEntity
  8
ceco.net 105 Honda S2000
100
AcDbCircle
 10
1096.812414424028
 20
-9270.352008079743
 30
0.0
 40
10171.5483989763
100
AcDbArc
 50
81.96740000000266
 51
87.98319999999758
  0
ARC
  5
AFE
330
1F
100
AcDbEntity
  8
ceco.net 105 Honda S2000
100
AcDbCircle
 10
2380.082589757628
 20
168.0006547434202
 30
0.0
 40
628.1186583471662
100
AcDbArc
 50
42.94100000002603
 51
58.93800000003077
  0
ARC
  5
AFF
330
1F
100
AcDbEntity
  8
ceco.net 105 Honda S2000
100
AcDbCircle
 10
2875.284689267166
 20
628.8262292168981
 30
0.0
 40
48.33569597618162
100
AcDbArc
 50
222.9410000000628
 51
266.0720000002818
  0
ARC
  5
B00
330
1F
100
AcDbEntity
  8
ceco.net 105 Honda S2000
100
AcDbCircle
 10
2629.565091246273
 20
532.4018278432957
 30
0.0
 40
569.9868036238531
100
AcDbArc
 50
356.7189999999875
 51
0.0780000000026432
  0
ARC
  5
B01
330
1F
100
AcDbEntity
  8
ceco.net 105 Honda S2000
100
AcDbCircle
 10
2284.198605371173
 20
-974.9772706456536
 30
0.0
 40
1812.588599106811
100
AcDbArc
 50
61.5029999999791
 51
79.29999999999383
  0
ARC
  5
B02
330
1F
100
AcDbEntity
  8
ceco.net 105 Honda S2000
100
AcDbCircle
 10
3102.880302763544
 20
533.0523297725192
 30
0.0
 40
96.67129187514333
100
AcDbArc
 50
0.0780000000319551
 51
61.50300000001394
  0
ARC
  5
B03
330
1F
100
AcDbEntity
  8
ceco.net 105 Honda S2000
100
AcDbCircle
 10
2923.10158493556
 20
543.7505845796729
 30
0.0
 40
150.11582985
100
AcDbArc
 50
40.48700000014656
 51
73.18700000019568
  0
ARC
  5
B04
330
1F
100
AcDbEntity
  8
ceco.net 105 Honda S2000
100
AcDbCircle
 10
2652.392705105245
 20
-47.74581591701661
 30
0.0
 40
800.6177592000002
100
AcDbArc
 50
53.15699999998615
 51
65.40799999998148
  0
ARC
  5
B05
330
1F
100
AcDbEntity
  8
ceco.net 105 Honda S2000
100
AcDbCircle
 10
2686.919345971197
 20
-237.9125491712295
 30
0.0
 40
966.6858979020602
100
AcDbArc
 50
73.18699999999883
 51
88.58190000000931
  0
ARC
  5
B06
330
1F
100
AcDbEntity
  8
ceco.net 105 Honda S2000
100
AcDbCircle
 10
3120.453862578142
 20
576.9562061425711
 30
0.0
 40
20.01544398
100
AcDbArc
 50
266.2950000001084
 51
53.15700000033724
  0
ARC
  5
B07
330
1F
100
AcDbEntity
  8
ceco.net 105 Honda S2000
100
AcDbCircle
 10
3063.890217890963
 20
584.2418277514114
 30
0.0
 40
20.01544398
100
AcDbArc
 50
265.101999998008
 51
43.41000000104513
  0
CIRCLE
  5
B08
330
1F
100
AcDbEntity
  8
ceco.net 105 Honda S2000
100
AcDbCircle
 10
2400.101716161239
 20
341.058666063607
 30
0.0
 40
52.33890152893817
  0
ARC
  5
B09
330
1F
100
AcDbEntity
  8
ceco.net 105 Honda S2000
100
AcDbCircle
 10
2429.456310704816
 20
487.5592063445544
 30
0.0
 40
27.24324319500001
100
AcDbArc
 50
270.1920000000187
 51
338.1619999992527
  0
ARC
  5
B0A
330
1F
100
AcDbEntity
  8
ceco.net 105 Honda S2000
100
AcDbCircle
 10
2416.18885126803
 20
542.2363954369391
 30
0.0
 40
81.72972958500002
100
AcDbArc
 50
224.3790000000669
 51
268.2020000002379
  0
ARC
  5
B0B
330
1F
100
AcDbEntity
  8
ceco.net 105 Honda S2000
100
AcDbCircle
 10
2428.012418814935
 20
919.0240704453497
 30
0.0
 40
458.710831620132
100
AcDbArc
 50
268.2020000000749
 51
270.1920000000187
  0
ARC
  5
B0C
330
1F
100
AcDbEntity
  8
ceco.net 105 Honda S2000
100
AcDbCircle
 10
2582.359013136476
 20
427.7194226669561
 30
0.0
 40
81.72972958500002
100
AcDbArc
 50
164.3790000002858
 51
208.202000000173
  0
ARC
  5
B0D
330
1F
100
AcDbEntity
  8
ceco.net 105 Honda S2000
100
AcDbCircle
 10
2566.271878029685
 20
226.5553149151563
 30
0.0
 40
81.72972958500002
100
AcDbArc
 50
104.3795000001321
 51
148.2018000000187
  0
ARC
  5
B0E
330
1F
100
AcDbEntity
  8
ceco.net 105 Honda S2000
100
AcDbCircle
 10
2384.01458105538
 20
139.8945583115744
 30
0.0
 40
81.72972958500002
100
AcDbArc
 50
44.378999999908
 51
88.20179999995255
  0
ARC
  5
B0F
330
1F
100
AcDbEntity
  8
ceco.net 105 Honda S2000
100
AcDbCircle
 10
2217.8444191874
 20
254.4115310817904
 30
0.0
 40
81.72972958500002
100
AcDbArc
 50
344.3789999999681
 51
28.20199999999812
  0
ARC
  5
B10
330
1F
100
AcDbEntity
  8
ceco.net 105 Honda S2000
100
AcDbCircle
 10
2233.91793267196
 20
455.575638833823
 30
0.0
 40
81.72972958500002
100
AcDbArc
 50
284.3790000003539
 51
328.2019999999473
  0
ARC
  5
B11
330
1F
100
AcDbEntity
  8
ceco.net 105 Honda S2000
100
AcDbCircle
 10
2914.590363899711
 20
605.8766115404612
 30
0.0
 40
458.710831620132
100
AcDbArc
 50
208.2019999999952
 51
210.1920000000046
  0
ARC
  5
B12
330
1F
100
AcDbEntity
  8
ceco.net 105 Honda S2000
100
AcDbCircle
 10
2886.679661246017
 20
27.91120715871858
 30
0.0
 40
458.710831620132
100
AcDbArc
 50
148.2018000000269
 51
150.1916000000263
  0
ARC
  5
B13
330
1F
100
AcDbEntity
  8
ceco.net 105 Honda S2000
100
AcDbCircle
 10
2372.191013508011
 20
-236.9067383186012
 30
0.0
 40
458.710831620132
100
AcDbArc
 50
88.20179999996566
 51
90.1915999999324
  0
ARC
  5
B14
330
1F
100
AcDbEntity
  8
ceco.net 105 Honda S2000
100
AcDbCircle
 10
1885.613068423699
 20
76.25434220805238
 30
0.0
 40
458.710831620132
100
AcDbArc
 50
28.20199999999525
 51
30.19199999997839
  0
ARC
  5
B15
330
1F
100
AcDbEntity
  8
ceco.net 105 Honda S2000
100
AcDbCircle
 10
1913.523771076929
 20
654.2197465900279
 30
0.0
 40
458.710831620132
100
AcDbArc
 50
328.2020000000378
 51
330.1920000000258
  0
ARC
  5
B16
330
1F
100
AcDbEntity
  8
ceco.net 105 Honda S2000
100
AcDbCircle
 10
2541.643986181356
 20
388.8841794923826
 30
0.0
 40
27.24324319500001
100
AcDbArc
 50
210.1920000004744
 51
278.1620000000624
  0
ARC
  5
B17
330
1F
100
AcDbEntity
  8
ceco.net 105 Honda S2000
100
AcDbCircle
 10
2512.289391639177
 20
242.3836392109695
 30
0.0
 40
27.24324319500001
100
AcDbArc
 50
150.1919999998392
 51
218.1619999987786
  0
ARC
  5
B18
330
1F
100
AcDbEntity
  8
ceco.net 105 Honda S2000
100
AcDbCircle
 10
2370.74712161906
 20
194.5717474039591
 30
0.0
 40
27.24324319500001
100
AcDbArc
 50
90.19160000003667
 51
158.162399999787
  0
ARC
  5
B19
330
1F
100
AcDbEntity
  8
ceco.net 105 Honda S2000
100
AcDbCircle
 10
2258.545824520755
 20
293.2331526348314
 30
0.0
 40
27.24324319500001
100
AcDbArc
 50
30.19199999928679
 51
98.16239999976943
  0
ARC
  5
B1A
330
1F
100
AcDbEntity
  8
ceco.net 105 Honda S2000
100
AcDbCircle
 10
2287.9004190634
 20
439.7336929157789
 30
0.0
 40
27.24324319500001
100
AcDbArc
 50
330.1919999998364
 51
38.16200000055334
  0
CIRCLE
  5
B1B
330
1F
100
AcDbEntity
  8
ceco.net 105 Honda S2000
100
AcDbCircle
 10
2436.103662044275
 20
412.5176929641928
 30
0.0
 40
19.22269618217603
  0
CIRCLE
  5
B1C
330
1F
100
AcDbEntity
  8
ceco.net 105 Honda S2000
100
AcDbCircle
 10
2479.175229535438
 20
328.9081795985292
 30
0.0
 40
19.22269618217603
  0
CIRCLE
  5
B1D
330
1F
100
AcDbEntity
  8
ceco.net 105 Honda S2000
100
AcDbCircle
 10
2412.974148571491
 20
262.0941256628319
 30
0.0
 40
19.22269618217603
  0
CIRCLE
  5
B1E
330
1F
100
AcDbEntity
  8
ceco.net 105 Honda S2000
100
AcDbCircle
 10
2328.969608179759
 20
304.4301255877542
 30
0.0
 40
19.22269618217603
  0
CIRCLE
  5
B1F
330
1F
100
AcDbEntity
  8
ceco.net 105 Honda S2000
100
AcDbCircle
 10
2343.272310857195
 20
397.3840713693242
 30
0.0
 40
19.22269618217603
  0
CIRCLE
  5
B20
330
1F
100
AcDbEntity
  8
ceco.net 105 Honda S2000
100
AcDbCircle
 10
2400.101716161239
 20
341.058666063607
 30
0.0
 40
312.5442442383458
  0
ARC
  5
B21
330
1F
100
AcDbEntity
  8
ceco.net 105 Honda S2000
100
AcDbCircle
 10
2400.101716161239
 20
341.058666063607
 30
0.0
 40
298.2140751475883
100
AcDbArc
 50
68.16434753249843
 51
120.7103126812668
  0
ARC
  5
B22
330
1F
100
AcDbEntity
  8
ceco.net 105 Honda S2000
100
AcDbCircle
 10
2400.101716161239
 20
341.058666063607
 30
0.0
 40
298.2140751475883
100
AcDbArc
 50
8.164127891053663
 51
60.71323845063285
  0
ARC
  5
B23
330
1F
100
AcDbEntity
  8
ceco.net 105 Honda S2000
100
AcDbCircle
 10
2400.101716161239
 20
341.058666063607
 30
0.0
 40
298.2140751475883
100
AcDbArc
 50
308.1619650051925
 51
0.7115974763707623
  0
ARC
  5
B24
330
1F
100
AcDbEntity
  8
ceco.net 105 Honda S2000
100
AcDbCircle
 10
2400.101716161239
 20
341.058666063607
 30
0.0
 40
298.2140751475883
100
AcDbArc
 50
248.160784310926
 51
300.7122861873214
  0
ARC
  5
B25
330
1F
100
AcDbEntity
  8
ceco.net 105 Honda S2000
100
AcDbCircle
 10
2400.101716161239
 20
341.058666063607
 30
0.0
 40
298.2140751475883
100
AcDbArc
 50
188.1615547929514
 51
240.7097982659829
  0
ARC
  5
B26
330
1F
100
AcDbEntity
  8
ceco.net 105 Honda S2000
100
AcDbCircle
 10
2400.101716161239
 20
341.058666063607
 30
0.0
 40
298.2140751475883
100
AcDbArc
 50
128.1625026911016
 51
180.7117193453981
  0
CIRCLE
  5
B27
330
1F
100
AcDbEntity
  8
ceco.net 105 Honda S2000
100
AcDbCircle
 10
2400.101716161239
 20
341.058666063607
 30
0.0
 40
369.3947712240222
  0
LINE
  5
B28
330
1F
100
AcDbEntity
  8
ceco.net 105 Honda S2000
100
AcDbLine
 10
54.6499458490872
 20
505.7608250364608
 30
0.0
 11
110.9193882541732
 21
646.2133470553851
 31
0.0
  0
LINE
  5
B29
330
1F
100
AcDbEntity
  8
ceco.net 105 Honda S2000
100
AcDbLine
 10
-42.33599992562074
 20
513.4025547526723
 30
0.0
 11
-152.2972347298635
 21
625.7874132985196
 31
0.0
  0
LINE
  5
B2A
330
1F
100
AcDbEntity
  8
ceco.net 105 Honda S2000
100
AcDbLine
 10
103.5515673835762
 20
478.0680683289136
 30
0.0
 11
145.8806425295771
 21
629.4918160961421
 31
0.0
  0
LINE
  5
B2B
330
1F
100
AcDbEntity
  8
ceco.net 105 Honda S2000
100
AcDbLine
 10
145.8739456878976
 20
334.0602848002634
 30
0.0
 11
298.1910757692531
 21
373.0984109969757
 31
0.0
  0
LINE
  5
B2C
330
1F
100
AcDbEntity
  8
ceco.net 105 Honda S2000
100
AcDbLine
 10
42.32237830292445
 20
225.4006093166716
 30
0.0
 11
152.3060658709147
 21
113.007375053963
 31
0.0
  0
LINE
  5
B2D
330
1F
100
AcDbEntity
  8
ceco.net 105 Honda S2000
100
AcDbLine
 10
-103.551567384973
 20
260.7350957404303
 30
0.0
 11
-145.8962591579182
 21
109.3064858667965
 31
0.0
  0
LINE
  5
B2E
330
1F
100
AcDbEntity
  8
ceco.net 105 Honda S2000
100
AcDbLine
 10
-145.873945688363
 20
404.7428792695462
 30
0.0
 11
-298.1910678911953
 21
365.6904971933871
 31
0.0
  0
LINE
  5
B2F
330
1F
100
AcDbEntity
  8
ceco.net 105 Honda S2000
100
AcDbLine
 10
145.4108105530032
 20
390.2630955112579
 30
0.0
 11
295.1917753824965
 21
411.7439195312506
 31
0.0
  0
LINE
  5
B30
330
1F
100
AcDbEntity
  8
ceco.net 105 Honda S2000
100
AcDbLine
 10
90.77448632521566
 20
253.8970416988193
 30
0.0
 11
184.2624747394585
 21
134.9188129279244
 31
0.0
  0
LINE
  5
B31
330
1F
100
AcDbEntity
  8
ceco.net 105 Honda S2000
100
AcDbLine
 10
-54.64994585001829
 20
233.0287174113507
 30
0.0
 11
-110.9366033738477
 21
92.58309399908814
 31
0.0
  0
LINE
  5
B32
330
1F
100
AcDbEntity
  8
ceco.net 105 Honda S2000
100
AcDbLine
 10
-145.4244321752338
 20
348.5400685583188
 30
0.0
 11
-295.1936769448219
 21
327.0588797369453
 31
0.0
  0
LINE
  5
B33
330
1F
100
AcDbEntity
  8
ceco.net 105 Honda S2000
100
AcDbLine
 10
-90.77448632661242
 20
484.9061223707574
 30
0.0
 11
-184.2646751464343
 21
603.8690003183617
 31
0.0
  0
CIRCLE
  5
B34
330
1F
100
AcDbEntity
  8
ceco.net 105 Honda S2000
100
AcDbCircle
 10
0.0000000000001137
 20
369.3947712240222
 30
0.0
 40
52.33890152893817
  0
ARC
  5
B35
330
1F
100
AcDbEntity
  8
ceco.net 105 Honda S2000
100
AcDbCircle
 10
29.35459454217937
 20
515.8953115049696
 30
0.0
 40
27.24324319500001
100
AcDbArc
 50
270.1920000000317
 51
338.1620000003111
  0
ARC
  5
B36
330
1F
100
AcDbEntity
  8
ceco.net 105 Honda S2000
100
AcDbCircle
 10
16.0871351058596
 20
570.5725005975871
 30
0.0
 40
81.72972958500002
100
AcDbArc
 50
224.3790000000669
 51
268.2020000002379
  0
ARC
  5
B37
330
1F
100
AcDbEntity
  8
ceco.net 105 Honda S2000
100
AcDbCircle
 10
27.91070265276369
 20
947.3601756057648
 30
0.0
 40
458.710831620132
100
AcDbArc
 50
268.2019999999902
 51
270.1920000000187
  0
ARC
  5
B38
330
1F
100
AcDbEntity
  8
ceco.net 105 Honda S2000
100
AcDbCircle
 10
182.2572969738395
 20
456.0555278271384
 30
0.0
 40
81.72972958500002
100
AcDbArc
 50
164.3789999999681
 51
208.2019999999981
  0
ARC
  5
B39
330
1F
100
AcDbEntity
  8
ceco.net 105 Honda S2000
100
AcDbCircle
 10
166.1701618675143
 20
254.8914200755715
 30
0.0
 40
81.72972958500002
100
AcDbArc
 50
104.3795000001321
 51
148.2018000001968
  0
ARC
  5
B3A
330
1F
100
AcDbEntity
  8
ceco.net 105 Honda S2000
100
AcDbCircle
 10
-16.08713510725635
 20
168.2306634719896
 30
0.0
 40
81.72972958500002
100
AcDbArc
 50
44.378999999908
 51
88.20179999995255
  0
ARC
  5
B3B
330
1F
100
AcDbEntity
  8
ceco.net 105 Honda S2000
100
AcDbCircle
 10
-182.2572969752362
 20
282.7476362422056
 30
0.0
 40
81.72972958500002
100
AcDbArc
 50
344.3789999999681
 51
28.20199999998069
  0
ARC
  5
B3C
330
1F
100
AcDbEntity
  8
ceco.net 105 Honda S2000
100
AcDbCircle
 10
-166.183783489745
 20
483.9117439942381
 30
0.0
 40
81.72972958500002
100
AcDbArc
 50
284.3789999999976
 51
328.2020000001316
  0
ARC
  5
B3D
330
1F
100
AcDbEntity
  8
ceco.net 105 Honda S2000
100
AcDbCircle
 10
514.4886477366091
 20
634.2127167008763
 30
0.0
 40
458.710831620132
100
AcDbArc
 50
208.2019999999952
 51
210.1920000000135
  0
ARC
  5
B3E
330
1F
100
AcDbEntity
  8
ceco.net 105 Honda S2000
100
AcDbCircle
 10
486.5779450843112
 20
56.24731231913376
 30
0.0
 40
458.710831620132
100
AcDbArc
 50
148.2018000000007
 51
150.1916000000643
  0
ARC
  5
B3F
330
1F
100
AcDbEntity
  8
ceco.net 105 Honda S2000
100
AcDbCircle
 10
-27.91070265322912
 20
-208.5706331581861
 30
0.0
 40
458.710831620132
100
AcDbArc
 50
88.20180000003077
 51
90.19160000008225
  0
ARC
  5
B40
330
1F
100
AcDbEntity
  8
ceco.net 105 Honda S2000
100
AcDbCircle
 10
-514.4886477384715
 20
104.5904473687003
 30
0.0
 40
458.710831620132
100
AcDbArc
 50
28.20199999995732
 51
30.19199999998121
  0
ARC
  5
B41
330
1F
100
AcDbEntity
  8
ceco.net 105 Honda S2000
100
AcDbCircle
 10
-486.5779450847766
 20
682.555851750443
 30
0.0
 40
458.710831620132
100
AcDbArc
 50
328.2019999999969
 51
330.1920000000258
  0
ARC
  5
B42
330
1F
100
AcDbEntity
  8
ceco.net 105 Honda S2000
100
AcDbCircle
 10
141.5422700187192
 20
417.2202846527978
 30
0.0
 40
27.24324319500001
100
AcDbArc
 50
210.1920000004744
 51
278.162000001313
  0
ARC
  5
B43
330
1F
100
AcDbEntity
  8
ceco.net 105 Honda S2000
100
AcDbCircle
 10
112.18767547654
 20
270.7197443716175
 30
0.0
 40
27.24324319500001
100
AcDbArc
 50
150.1919999992878
 51
218.1620000000568
  0
ARC
  5
B44
330
1F
100
AcDbEntity
  8
ceco.net 105 Honda S2000
100
AcDbCircle
 10
-29.35459454311046
 20
222.9078525646071
 30
0.0
 40
27.24324319500001
100
AcDbArc
 50
90.19160000130034
 51
158.1624000002606
  0
ARC
  5
B45
330
1F
100
AcDbEntity
  8
ceco.net 105 Honda S2000
100
AcDbCircle
 10
-141.5558916414155
 20
321.5692577952466
 30
0.0
 40
27.24324319500001
100
AcDbArc
 50
30.19199999992305
 51
98.16240000092786
  0
ARC
  5
B46
330
1F
100
AcDbEntity
  8
ceco.net 105 Honda S2000
100
AcDbCircle
 10
-112.2012970992362
 20
468.0697980761941
 30
0.0
 40
27.24324319500001
100
AcDbArc
 50
330.1919999992878
 51
38.16199999927507
  0
CIRCLE
  5
B47
330
1F
100
AcDbEntity
  8
ceco.net 105 Honda S2000
100
AcDbCircle
 10
36.00194588163879
 20
440.8537981241423
 30
0.0
 40
19.22269618217603
  0
CIRCLE
  5
B48
330
1F
100
AcDbEntity
  8
ceco.net 105 Honda S2000
100
AcDbCircle
 10
79.0735133723357
 20
357.2442847591772
 30
0.0
 40
19.22269618217603
  0
CIRCLE
  5
B49
330
1F
100
AcDbEntity
  8
ceco.net 105 Honda S2000
100
AcDbCircle
 10
12.87243240885447
 20
290.4302308232471
 30
0.0
 40
19.22269618217603
  0
CIRCLE
  5
B4A
330
1F
100
AcDbEntity
  8
ceco.net 105 Honda S2000
100
AcDbCircle
 10
-71.13210798287752
 20
332.7662307484022
 30
0.0
 40
19.22269618217603
  0
CIRCLE
  5
B4B
330
1F
100
AcDbEntity
  8
ceco.net 105 Honda S2000
100
AcDbCircle
 10
-56.82940530544136
 20
425.7201765297393
 30
0.0
 40
19.22269618217603
  0
CIRCLE
  5
B4C
330
1F
100
AcDbEntity
  8
ceco.net 105 Honda S2000
100
AcDbCircle
 10
0.0000000000001137
 20
369.3947712240222
 30
0.0
 40
312.5442442383458
  0
ARC
  5
B4D
330
1F
100
AcDbEntity
  8
ceco.net 105 Honda S2000
100
AcDbCircle
 10
0.0000000000001137
 20
369.3947712240222
 30
0.0
 40
298.2140751475883
100
AcDbArc
 50
8.164127891053663
 51
60.7132384507597
  0
ARC
  5
B4E
330
1F
100
AcDbEntity
  8
ceco.net 105 Honda S2000
100
AcDbCircle
 10
0.0000000000001137
 20
369.3947712240222
 30
0.0
 40
298.2140751475883
100
AcDbArc
 50
308.161965005102
 51
0.7115974763707623
  0
ARC
  5
B4F
330
1F
100
AcDbEntity
  8
ceco.net 105 Honda S2000
100
AcDbCircle
 10
0.0000000000001137
 20
369.3947712240222
 30
0.0
 40
298.2140751475883
100
AcDbArc
 50
248.1607843107989
 51
300.7122861870862
  0
ARC
  5
B50
330
1F
100
AcDbEntity
  8
ceco.net 105 Honda S2000
100
AcDbCircle
 10
0.0000000000001137
 20
369.3947712240222
 30
0.0
 40
298.2140751475883
100
AcDbArc
 50
188.1615547929353
 51
240.709798265751
  0
ARC
  5
B51
330
1F
100
AcDbEntity
  8
ceco.net 105 Honda S2000
100
AcDbCircle
 10
0.0000000000001137
 20
369.3947712240222
 30
0.0
 40
298.2140751475883
100
AcDbArc
 50
68.16434753260364
 51
120.7103126814947
  0
ARC
  5
B52
330
1F
100
AcDbEntity
  8
ceco.net 105 Honda S2000
100
AcDbCircle
 10
0.0000000000001137
 20
369.3947712240222
 30
0.0
 40
298.2140751475883
100
AcDbArc
 50
128.1625026911016
 51
180.7117193454534
  0
ARC
  5
B53
330
1F
100
AcDbEntity
  8
ceco.net 105 Honda S2000
100
AcDbCircle
 10
0.0000000000001137
 20
369.3947712240222
 30
0.0
 40
369.3947712240222
100
AcDbArc
 50
178.8277041379935
 51
355.1680439218614
  0
ARC
  5
B54
330
1F
100
AcDbEntity
  8
ceco.net 105 Honda S2000
100
AcDbCircle
 10
-625.452052769251
 20
577.5486605073272
 30
0.0
 40
306.0867364497641
100
AcDbArc
 50
169.7124899281869
 51
201.1525446670117
  0
ARC
  5
B55
330
1F
100
AcDbEntity
  8
ceco.net 105 Honda S2000
100
AcDbCircle
 10
-618.8912070728837
 20
626.4527838925312
 30
0.0
 40
332.6749727642424
100
AcDbArc
 50
208.6210718075634
 51
245.8180807448667
  0
ARC
  5
B56
330
1F
100
AcDbEntity
  8
ceco.net 105 Honda S2000
100
AcDbCircle
 10
-129.7642372250555
 20
980.2786193351673
 30
0.0
 40
57.86036162134772
100
AcDbArc
 50
85.74097761855597
 51
155.3686597085058
  0
LINE
  5
B57
330
1F
100
AcDbEntity
  8
ceco.net 105 Honda S2000
100
AcDbLine
 10
-125.467207004316
 20
1037.979199732788
 30
0.0
 11
378.6967472368852
 21
986.7939727093505
 31
0.0
  0
ARC
  5
B58
330
1F
100
AcDbEntity
  8
ceco.net 105 Honda S2000
100
AcDbCircle
 10
384.9759443569929
 20
958.8230905466659
 30
0.0
 40
27.23798629056496
100
AcDbArc
 50
357.8331383731204
 51
27.28637240280555
  0
ARC
  5
B59
330
1F
100
AcDbEntity
  8
ceco.net 105 Honda S2000
100
AcDbCircle
 10
1226.763459291774
 20
906.9010924325736
 30
0.0
 40
121.5425485083401
100
AcDbArc
 50
10.70963429155484
 51
80.3168599325162
  0
ARC
  5
B5A
330
1F
100
AcDbEntity
  8
ceco.net 105 Honda S2000
100
AcDbCircle
 10
43821.90134076495
 20
-5914.229773955285
 30
0.0
 40
41126.52064695284
100
AcDbArc
 50
171.0276391485141
 51
171.2787377114624
  0
ELLIPSE
  5
B5B
330
1F
100
AcDbEntity
  8
ceco.net 105 Honda S2000
 62
     0
100
AcDbEllipse
 10
3053.321032988373
 20
289.3573516708745
 30
0.0
 11
-12.21862078263926
 21
-27.14083432714744
 31
0.0
210
0.0
220
0.0
230
-1.0
 40
0.6032053850282621
 41
0.0
 42
6.283185307179586
  0
SPLINE
  5
B5C
330
1F
100
AcDbEntity
  8
ceco.net 105 Honda S2000
 62
     0
100
AcDbSpline
210
0.0
220
0.0
230
1.0
 70
     8
 71
     3
 72
    12
 73
     8
 74
     0
 42
0.0000000001
 43
0.0000000001
 40
3.462040701889463
 40
3.462040701889463
 40
3.462040701889463
 40
3.462040701889463
 40
3.515282396446093
 40
3.515282396446093
 40
4.120767680168602
 40
4.120767680168602
 40
5.23166157294635
 40
5.23166157294635
 40
5.23166157294635
 40
5.23166157294635
 10
3079.802451281808
 20
320.1139649705908
 30
0.0
 10
3080.201767602469
 20
319.5981636139511
 30
0.0
 10
3080.57685817359
 20
319.0682500285509
 30
0.0
 10
3084.890136383008
 20
312.3591980649105
 30
0.0
 10
3086.178597194608
 20
305.1388811256218
 30
0.0
 10
3085.400982390623
 20
284.6580948509688
 30
0.0
 10
3079.513290755916
 20
270.8549103947769
 30
0.0
 10
3070.348494314123
 20
261.136585184973
 30
0.0
  0
SPLINE
  5
B5D
330
1F
100
AcDbEntity
  8
ceco.net 105 Honda S2000
 62
     0
100
AcDbSpline
210
0.0
220
0.0
230
1.0
 70
     8
 71
     3
 72
    10
 73
     6
 74
     0
 42
0.0000000001
 43
0.0000000001
 40
7.198121372600358
 40
7.198121372600358
 40
7.198121372600358
 40
7.198121372600358
 40
8.353621198779762
 40
8.353621198779762
 40
8.537093588665038
 40
8.537093588665038
 40
8.537093588665038
 40
8.537093588665038
 10
3020.706920659169
 20
278.5061370964575
 30
0.0
 10
3020.544048466254
 20
292.2344430460542
 30
0.0
 10
3026.42223091796
 20
306.796443322575
 30
0.0
 10
3037.303985928185
 20
318.687993376883
 30
0.0
 10
3038.899825922213
 20
320.2310804812185
 30
0.0
 10
3040.592141746543
 20
321.6422684014722
 30
0.0
  0
SPLINE
  5
B5E
330
1F
100
AcDbEntity
  8
ceco.net 105 Honda S2000
 62
     0
100
AcDbSpline
210
0.0
220
0.0
230
1.0
 70
     8
 71
     3
 72
    12
 73
     8
 74
     0
 42
0.0000000001
 43
0.0000000001
 40
3.462040701889463
 40
3.462040701889463
 40
3.462040701889463
 40
3.462040701889463
 40
3.515282396446093
 40
3.515282396446093
 40
4.120767680168602
 40
4.120767680168602
 40
5.23166157294635
 40
5.23166157294635
 40
5.23166157294635
 40
5.23166157294635
 10
3076.281692859251
 20
320.1139649705908
 30
0.0
 10
3076.681009178981
 20
319.5981636139511
 30
0.0
 10
3077.056099750101
 20
319.0682500285509
 30
0.0
 10
3081.36937796045
 20
312.3591980649105
 30
0.0
 10
3082.657838771585
 20
305.1388811256218
 30
0.0
 10
3081.880223967135
 20
284.6580948509688
 30
0.0
 10
3075.992532332893
 20
270.8549103947769
 30
0.0
 10
3066.274308814201
 20
260.7999086800444
 30
0.0
  0
SPLINE
  5
B5F
330
1F
100
AcDbEntity
  8
ceco.net 105 Honda S2000
 62
     0
100
AcDbSpline
210
0.0
220
0.0
230
1.0
 70
     8
 71
     3
 72
    10
 73
     6
 74
     0
 42
0.0000000001
 43
0.0000000001
 40
3.945213318029898
 40
3.945213318029898
 40
3.945213318029898
 40
3.945213318029898
 40
4.120767680168602
 40
4.120767680168602
 40
4.162157531174047
 40
4.162157531174047
 40
4.162157531174047
 40
4.162157531174047
 10
3087.087350687477
 20
304.9060690597578
 30
0.0
 10
3087.297703671735
 20
302.8376068439281
 30
0.0
 10
3087.349543112796
 20
300.7431874982028
 30
0.0
 10
3087.251255372539
 20
298.1544890782277
 30
0.0
 10
3087.22502902383
 20
297.6598426065354
 30
0.0
 10
3087.191437210888
 20
297.1646758573077
 30
0.0
  0
SPLINE
  5
B60
330
1F
100
AcDbEntity
  8
ceco.net 105 Honda S2000
 62
     0
100
AcDbSpline
210
0.0
220
0.0
230
1.0
 70
     8
 71
     3
 72
     8
 73
     4
 74
     0
 42
0.0000000001
 43
0.0000000001
 40
4.531211755870828
 40
4.531211755870828
 40
4.531211755870828
 40
4.531211755870828
 40
4.755489460620303
 40
4.755489460620303
 40
4.755489460620303
 40
4.755489460620303
 10
3085.08461499447
 20
283.2304225332516
 30
0.0
 10
3084.23781073885
 20
280.6002192107442
 30
0.0
 10
3083.203276724089
 20
278.017463822285
 30
0.0
 10
3081.998353583738
 20
275.5202745249442
 30
0.0
  0
SPLINE
  5
B61
330
1F
100
AcDbEntity
  8
ceco.net 105 Honda S2000
 62
     0
100
AcDbSpline
210
0.0
220
0.0
230
1.0
 70
     8
 71
     3
 72
     8
 73
     4
 74
     0
 42
0.0000000001
 43
0.0000000001
 40
5.161597708160719
 40
5.161597708160719
 40
5.161597708160719
 40
5.161597708160719
 40
5.217335900586865
 40
5.217335900586865
 40
5.217335900586865
 40
5.217335900586865
 10
3073.151323249097
 20
262.3318288674525
 30
0.0
 10
3072.67947448371
 20
261.7822798256709
 30
0.0
 10
3072.19726467831
 20
261.2402966866682
 30
0.0
 10
3071.704864869825
 20
260.7063584110181
 30
0.0
  0
SPLINE
  5
B62
330
1F
100
AcDbEntity
  8
ceco.net 105 Honda S2000
 62
     0
100
AcDbSpline
210
0.0
220
0.0
230
1.0
 70
     8
 71
     3
 72
    10
 73
     6
 74
     0
 42
0.0000000001
 43
0.0000000001
 40
3.462040701889463
 40
3.462040701889463
 40
3.462040701889463
 40
3.462040701889463
 40
3.515282396446093
 40
3.515282396446093
 40
3.835321328736441
 40
3.835321328736441
 40
3.835321328736441
 40
3.835321328736441
 10
3083.729466163088
 20
319.642936120177
 30
0.0
 10
3084.128782483283
 20
319.1271347637701
 30
0.0
 10
3084.503873054869
 20
318.5972211776714
 30
0.0
 10
3086.948077173904
 20
314.795404635737
 30
0.0
 10
3088.295978957787
 20
311.2415121704287
 30
0.0
 10
3089.06062000338
 20
307.5481703215225
 30
0.0
  0
SPLINE
  5
B63
330
1F
100
AcDbEntity
  8
ceco.net 105 Honda S2000
 62
     0
100
AcDbSpline
210
0.0
220
0.0
230
1.0
 70
     8
 71
     3
 72
     8
 73
     4
 74
     0
 42
0.0000000001
 43
0.0000000001
 40
4.129633025807642
 40
4.129633025807642
 40
4.129633025807642
 40
4.129633025807642
 40
4.444886023346323
 40
4.444886023346323
 40
4.444886023346323
 40
4.444886023346323
 10
3089.818216572515
 20
297.1254058991506
 30
0.0
 10
3089.651039567776
 20
293.3612370578519
 30
0.0
 10
3089.05159596866
 20
289.5559628870285
 30
0.0
 10
3088.068045536987
 20
285.8154481080308
 30
0.0
  0
SPLINE
  5
B64
330
1F
100
AcDbEntity
  8
ceco.net 105 Honda S2000
 62
     0
100
AcDbSpline
210
0.0
220
0.0
230
1.0
 70
     8
 71
     3
 72
     8
 73
     4
 74
     0
 42
0.0000000001
 43
0.0000000001
 40
4.742708827756656
 40
4.742708827756656
 40
4.742708827756656
 40
4.742708827756656
 40
5.141088323868828
 40
5.141088323868828
 40
5.141088323868828
 40
5.141088323868828
 10
3084.292718959972
 20
275.4769848190661
 30
0.0
 10
3082.1870352556
 20
271.0241804832074
 30
0.0
 10
3079.540628314018
 20
266.8344974614627
 30
0.0
 10
3076.45068276301
 20
263.1215668755065
 30
0.0
  0
LINE
  5
B65
330
1F
100
AcDbEntity
  8
ceco.net 105 Honda S2000
 62
     0
100
AcDbLine
 10
3166.247202461585
 20
318.2734867792058
 30
0.0
 11
3166.14682157943
 21
318.2734867792058
 31
0.0
  0
ARC
  5
B66
330
1F
100
AcDbEntity
  8
ceco.net 105 Honda S2000
 62
     0
100
AcDbCircle
 10
3166.247202461585
 20
323.1489458199537
 30
0.0
 40
4.875459041202511
100
AcDbArc
 50
270.0
 51
0.0
  0
LINE
  5
B67
330
1F
100
AcDbEntity
  8
ceco.net 105 Honda S2000
 62
     0
100
AcDbLine
 10
2990.700147668831
 20
271.0177600657514
 30
0.0
 11
2902.099248160142
 21
272.5554186379484
 31
0.0
  0
ARC
  5
B68
330
1F
100
AcDbEntity
  8
ceco.net 105 Honda S2000
 62
     0
100
AcDbCircle
 10
2860.568865418899
 20
4801.807732748002
 30
0.0
 40
4609.101962671881
100
AcDbArc
 50
268.4897814694404
 51
272.7213120796446
  0
ARC
  5
B69
330
1F
100
AcDbEntity
  8
ceco.net 105 Honda S2000
 62
     0
100
AcDbCircle
 10
3081.549651080277
 20
257.2856916083436
 30
0.0
 40
59.42106597801121
100
AcDbArc
 50
267.926599374998
 51
321.5968206267014
  0
ARC
  5
B6A
330
1F
100
AcDbEntity
  8
ceco.net 105 Honda S2000
 62
     0
100
AcDbCircle
 10
3113.493422909639
 20
247.8148025114967
 30
0.0
 40
51.50656664301199
100
AcDbArc
 50
327.8074524608971
 51
342.2145845858143
  0
ARC
  5
B6B
330
1F
100
AcDbEntity
  8
ceco.net 105 Honda S2000
 62
     0
100
AcDbCircle
 10
3086.944078668952
 20
357.228737131594
 30
0.0
 40
153.7807502883498
100
AcDbArc
 50
278.6874494522309
 51
297.134902882826
  0
LINE
  5
B6C
330
1F
100
AcDbEntity
  8
ceco.net 105 Honda S2000
 62
     0
100
AcDbLine
 10
3157.081497227307
 20
220.3738443533837
 30
0.0
 11
3128.115503528155
 21
220.3738443533837
 31
0.0
  0
ARC
  5
B6D
330
1F
100
AcDbEntity
  8
ceco.net 105 Honda S2000
 62
     0
100
AcDbCircle
 10
3060.165819880086
 20
300.9652735587622
 30
0.0
 40
69.23745297172326
100
AcDbArc
 50
211.1616783195987
 51
264.3124933229991
  0
ARC
  5
B6E
330
1F
100
AcDbEntity
  8
ceco.net 105 Honda S2000
 62
     0
100
AcDbCircle
 10
3144.15354997944
 20
1242.631187324779
 30
0.0
 40
1014.637975657257
100
AcDbArc
 50
264.8629312440674
 51
270.9565399958189
  0
ARC
  5
B6F
330
1F
100
AcDbEntity
  8
ceco.net 105 Honda S2000
 62
     0
100
AcDbCircle
 10
2990.488646919839
 20
258.8309476109169
 30
0.0
 40
12.18864760300628
100
AcDbArc
 50
31.16167832027407
 51
89.00573805266736
  0
ARC
  5
B70
330
1F
100
AcDbEntity
  8
ceco.net 105 Honda S2000
 62
     0
100
AcDbCircle
 10
2880.719647458754
 20
315.8545733449462
 30
0.0
 40
272.2326450943018
100
AcDbArc
 50
346.7702218963215
 51
359.7659645033309
  0
LINE
  5
B71
330
1F
100
AcDbEntity
  8
ceco.net 105 Honda S2000
 62
     0
100
AcDbLine
 10
3162.638789166696
 20
234.9460777753445
 30
0.0
 11
3156.795245635323
 21
234.9460777753445
 31
0.0
  0
ARC
  5
B72
330
1F
100
AcDbEntity
  8
ceco.net 105 Honda S2000
 62
     0
100
AcDbCircle
 10
3158.67512219958
 20
248.7464378314505
 30
0.0
 40
13.92780935943401
100
AcDbArc
 50
184.9593933444514
 51
262.2429482305014
  0
ARC
  5
B73
330
1F
100
AcDbEntity
  8
ceco.net 105 Honda S2000
 62
     0
100
AcDbCircle
 10
3165.085513842292
 20
247.487180655258
 30
0.0
 40
20.28613341240169
100
AcDbArc
 50
162.603817662938
 51
179.8440875568449
  0
LINE
  5
B74
330
1F
100
AcDbEntity
  8
ceco.net 105 Honda S2000
 62
     0
100
AcDbLine
 10
2994.452927045524
 20
342.0434922588936
 30
0.0
 11
3145.779077828862
 21
336.145240547037
 31
0.0
  0
LINE
  5
B75
330
1F
100
AcDbEntity
  8
ceco.net 105 Honda S2000
 62
     0
100
AcDbLine
 10
3015.235101372469
 20
322.6306118312239
 30
0.0
 11
3139.1576876631
 21
317.8004710857238
 31
0.0
  0
LINE
  5
B76
330
1F
100
AcDbEntity
  8
ceco.net 105 Honda S2000
 62
     0
100
AcDbLine
 10
3149.535168154631
 20
328.410027566966
 30
0.0
 11
3143.293551948852
 21
319.808777757589
 31
0.0
  0
ARC
  5
B77
330
1F
100
AcDbEntity
  8
ceco.net 105 Honda S2000
 62
     0
100
AcDbCircle
 10
3139.347574642859
 20
322.6722309118084
 30
0.0
 40
4.875459041202511
100
AcDbArc
 50
267.7679076165496
 51
324.032964030436
  0
ARC
  5
B78
330
1F
100
AcDbEntity
  8
ceco.net 105 Honda S2000
 62
     0
100
AcDbCircle
 10
3145.589190849102
 20
331.2734807216509
 30
0.0
 40
4.875459041202511
100
AcDbArc
 50
324.0329640234172
 51
87.76790761654963
  0
ARC
  5
B79
330
1F
100
AcDbEntity
  8
ceco.net 105 Honda S2000
 62
     0
100
AcDbCircle
 10
3120.776685912627
 20
326.4543042312323
 30
0.0
 40
110.9638889436558
100
AcDbArc
 50
184.7014764008408
 51
213.2532042206095
  0
ARC
  5
B7A
330
1F
100
AcDbEntity
  8
ceco.net 105 Honda S2000
 62
     0
100
AcDbCircle
 10
3048.831340843811
 20
279.279115891917
 30
0.0
 40
24.93115638253631
100
AcDbArc
 50
213.2532042208182
 51
288.2848088915062
  0
ARC
  5
B7B
330
1F
100
AcDbEntity
  8
ceco.net 105 Honda S2000
 62
     0
100
AcDbCircle
 10
3046.848278505262
 20
285.280679660518
 30
0.0
 40
31.25186076628438
100
AcDbArc
 50
288.2848088913281
 51
308.4327736213734
  0
ARC
  5
B7C
330
1F
100
AcDbEntity
  8
ceco.net 105 Honda S2000
 62
     0
100
AcDbCircle
 10
3015.04521439271
 20
317.7588520056049
 30
0.0
 40
4.875459041202511
100
AcDbArc
 50
87.76790761654963
 51
184.7014764065531
  0
ARC
  5
B7D
330
1F
100
AcDbEntity
  8
ceco.net 105 Honda S2000
 62
     0
100
AcDbCircle
 10
3048.185687010642
 20
278.0973635531443
 30
0.0
 40
35.93746690906044
100
AcDbArc
 50
212.2420202935408
 51
320.5522485760663
  0
ARC
  5
B7E
330
1F
100
AcDbEntity
  8
ceco.net 105 Honda S2000
 62
     0
100
AcDbCircle
 10
3179.742692474741
 20
355.3609449333924
 30
0.0
 40
188.4905655343406
100
AcDbArc
 50
184.8571227086437
 51
210.7719953022479
  0
ARC
  5
B7F
330
1F
100
AcDbEntity
  8
ceco.net 105 Honda S2000
 62
     0
100
AcDbCircle
 10
2994.35798355611
 20
339.6076123459677
 30
0.0
 40
2.437729520601255
100
AcDbArc
 50
87.76790762362251
 51
184.8571226966873
  0
LINE
  5
B80
330
1F
100
AcDbEntity
  8
ceco.net 105 Honda S2000
 62
     0
100
AcDbLine
 10
3145.675804227125
 20
253.3855178343545
 30
0.0
 11
3075.936753789429
 21
255.2636205303895
 31
0.0
  0
ARC
  5
B81
330
1F
100
AcDbEntity
  8
ceco.net 105 Honda S2000
 62
     0
100
AcDbCircle
 10
3068.87566462392
 20
254.1399938914872
 30
0.0
 40
7.149931260931042
100
AcDbArc
 50
9.041631791759662
 51
111.3355649656203
  0
ARC
  5
B82
330
1F
100
AcDbEntity
  8
ceco.net 105 Honda S2000
 62
     0
100
AcDbCircle
 10
3110.470823212061
 20
242.0344132218922
 30
0.0
 40
64.87394801383442
100
AcDbArc
 50
65.54201524424758
 51
88.66000589539417
  0
LINE
  5
B83
330
1F
100
AcDbEntity
  8
ceco.net 105 Honda S2000
 62
     0
100
AcDbLine
 10
3136.32103181025
 20
296.4301957794412
 30
0.0
 11
3087.191437210888
 21
297.1646758573077
 31
0.0
  0
LINE
  5
B84
330
1F
100
AcDbEntity
  8
ceco.net 105 Honda S2000
 62
     0
100
AcDbLine
 10
3111.987911977339
 20
306.8906201155803
 30
0.0
 11
3089.512571719941
 21
307.590432276618
 31
0.0
  0
ARC
  5
B85
330
1F
100
AcDbEntity
  8
ceco.net 105 Honda S2000
 62
     0
100
AcDbCircle
 10
3136.32103181025
 20
298.8679253010957
 30
0.0
 40
2.437729520601255
100
AcDbArc
 50
270.0
 51
65.54201523588881
  0
ARC
  5
B86
330
1F
100
AcDbEntity
  8
ceco.net 105 Honda S2000
 62
     0
100
AcDbCircle
 10
3089.512571718078
 20
305.1527027558948
 30
0.0
 40
2.437729520601255
100
AcDbArc
 50
89.99999995754972
 51
185.8067514386211
  0
ARC
  5
B87
330
1F
100
AcDbEntity
  8
ceco.net 105 Honda S2000
 62
     0
100
AcDbCircle
 10
3110.470823212061
 20
220.0995406768232
 30
0.0
 40
64.87394801383442
100
AcDbArc
 50
65.54201524424758
 51
88.20710592022429
  0
LINE
  5
B88
330
1F
100
AcDbEntity
  8
ceco.net 105 Honda S2000
 62
     0
100
AcDbLine
 10
3136.32103181025
 20
274.4953232339065
 30
0.0
 11
3081.998353583738
 21
275.5202745249442
 31
0.0
  0
LINE
  5
B89
330
1F
100
AcDbEntity
  8
ceco.net 105 Honda S2000
 62
     0
100
AcDbLine
 10
3112.500521340407
 20
284.9417295387427
 30
0.0
 11
3087.405047722626
 21
285.839157269005
 31
0.0
  0
ARC
  5
B8A
330
1F
100
AcDbEntity
  8
ceco.net 105 Honda S2000
 62
     0
100
AcDbCircle
 10
3136.32103181025
 20
276.9330527543969
 30
0.0
 40
2.437729520601255
100
AcDbArc
 50
270.0
 51
65.54201523881549
  0
ARC
  5
B8B
330
1F
100
AcDbEntity
  8
ceco.net 105 Honda S2000
 62
     0
100
AcDbCircle
 10
3088.505564414896
 20
282.5238997553422
 30
0.0
 40
3.493146056403249
100
AcDbArc
 50
108.3638500267426
 51
168.330866917546
  0
ARC
  5
B8C
330
1F
100
AcDbEntity
  8
ceco.net 105 Honda S2000
 62
     0
100
AcDbCircle
 10
3109.842150460463
 20
196.7552151311136
 30
0.0
 40
64.87394801383442
100
AcDbArc
 50
65.54201524424758
 51
87.69678331985259
  0
LINE
  5
B8D
330
1F
100
AcDbEntity
  8
ceco.net 105 Honda S2000
 62
     0
100
AcDbLine
 10
3112.449297475628
 20
261.5767541086714
 30
0.0
 11
3075.10535764182
 21
263.1792989693529
 31
0.0
  0
ARC
  5
B8E
330
1F
100
AcDbEntity
  8
ceco.net 105 Honda S2000
 62
     0
100
AcDbCircle
 10
3135.692359058652
 20
253.5887272098514
 30
0.0
 40
2.437729520601255
100
AcDbArc
 50
0.0
 51
65.54201523881549
  0
ARC
  5
B8F
330
1F
100
AcDbEntity
  8
ceco.net 105 Honda S2000
 62
     0
100
AcDbCircle
 10
3075.000843258575
 20
260.7438109364773
 30
0.0
 40
2.437729520601255
100
AcDbArc
 50
87.54276712130289
 51
139.3502539835273
  0
ARC
  5
B90
330
1F
100
AcDbEntity
  8
ceco.net 105 Honda S2000
 62
     0
100
AcDbCircle
 10
2856.588030073326
 20
324.5925380751903
 30
0.0
 40
251.8270270936556
100
AcDbArc
 50
355.9988610902488
 51
358.7277404796826
  0
ARC
  5
B91
330
1F
100
AcDbEntity
  8
ceco.net 105 Honda S2000
 62
     0
100
AcDbCircle
 10
2863.342488278169
 20
323.4934407820872
 30
0.0
 40
251.8270270936556
100
AcDbArc
 50
356.1936249613466
 51
358.9177964389686
  0
ARC
  5
B92
330
1F
100
AcDbEntity
  8
ceco.net 105 Honda S2000
 62
     0
100
AcDbCircle
 10
2856.588030073326
 20
324.5925380751903
 30
0.0
 40
251.8270270936556
100
AcDbArc
 50
345.6287353893267
 51
348.6690140966824
  0
ARC
  5
B93
330
1F
100
AcDbEntity
  8
ceco.net 105 Honda S2000
 62
     0
100
AcDbCircle
 10
2863.342488278169
 20
323.4934407820872
 30
0.0
 40
251.8270270936556
100
AcDbArc
 50
345.8166703433218
 51
348.8935519223776
  0
ARC
  5
B94
330
1F
100
AcDbEntity
  8
ceco.net 105 Honda S2000
 62
     0
100
AcDbCircle
 10
2856.588030073326
 20
324.5925380751903
 30
0.0
 40
251.8270270936556
100
AcDbArc
 50
351.0001347854093
 51
353.6798091601082
  0
ARC
  5
B95
330
1F
100
AcDbEntity
  8
ceco.net 105 Honda S2000
 62
     0
100
AcDbCircle
 10
2863.342488278169
 20
323.4934407820872
 30
0.0
 40
251.8270270936556
100
AcDbArc
 50
351.1965246475201
 51
353.9078697531722
  0
LINE
  5
B96
330
1F
100
AcDbEntity
  8
ceco.net 105 Honda S2000
 62
     0
100
AcDbLine
 10
3165.342198787257
 20
285.7202113495621
 30
0.0
 11
3167.436472111381
 21
294.919395089051
 31
0.0
  0
ARC
  5
B97
330
1F
100
AcDbEntity
  8
ceco.net 105 Honda S2000
 62
     0
100
AcDbCircle
 10
3165.186745984014
 20
278.8132964469439
 30
0.0
 40
4.875459041202511
100
AcDbArc
 50
269.3748052894499
 51
348.4423706681419
  0
ARC
  5
B98
330
1F
100
AcDbEntity
  8
ceco.net 105 Honda S2000
 62
     0
100
AcDbCircle
 10
3165.186750783119
 20
278.8133199153415
 30
0.0
 40
4.875459041202511
100
AcDbArc
 50
269.552683418566
 51
348.4423716983302
  0
ARC
  5
B99
330
1F
100
AcDbEntity
  8
ceco.net 105 Honda S2000
 62
     0
100
AcDbCircle
 10
3165.601009856444
 20
280.8470875207747
 30
0.0
 40
4.875459041202511
100
AcDbArc
 50
348.5314222772172
 51
90.56990971409064
  0
ARC
  5
B9A
330
1F
100
AcDbEntity
  8
ceco.net 105 Honda S2000
 62
     0
100
AcDbCircle
 10
3160.144637830089
 20
257.6699432890344
 30
0.0
 40
4.875459041202511
100
AcDbArc
 50
269.374805289489
 51
348.4423706660941
  0
ARC
  5
B9B
330
1F
100
AcDbEntity
  8
ceco.net 105 Honda S2000
 62
     0
100
AcDbCircle
 10
3160.541620826348
 20
259.6185712778422
 30
0.0
 40
4.875459041202511
100
AcDbArc
 50
348.5276938912146
 51
90.37334011176394
  0
ARC
  5
B9C
330
1F
100
AcDbEntity
  8
ceco.net 105 Honda S2000
 62
     0
100
AcDbCircle
 10
3160.144170590211
 20
257.6676585026032
 30
0.0
 40
4.875459041202511
100
AcDbArc
 50
269.3974588630701
 51
348.4422706101726
  0
ARC
  5
B9D
330
1F
100
AcDbEntity
  8
ceco.net 105 Honda S2000
 62
     0
100
AcDbCircle
 10
1851.811411111615
 20
525.2240482949598
 30
0.0
 40
1340.28589454161
100
AcDbArc
 50
348.4422706122645
 51
348.5276938893138
  0
LINE
  5
B9E
330
1F
100
AcDbEntity
  8
ceco.net 105 Honda S2000
 62
     0
100
AcDbLine
 10
3160.509852490853
 20
264.4939268179185
 30
0.0
 11
3162.664235992357
 21
273.9571470377448
 31
0.0
  0
ARC
  5
B9F
330
1F
100
AcDbEntity
  8
ceco.net 105 Honda S2000
 62
     0
100
AcDbCircle
 10
3240.827476751059
 20
-12061.52066399003
 30
0.0
 40
12326.27626712779
100
AcDbArc
 50
90.3733401195676
 51
90.43127402812814
  0
ARC
  5
BA0
330
1F
100
AcDbEntity
  8
ceco.net 105 Honda S2000
 62
     0
100
AcDbCircle
 10
3021.312954621389
 20
-12943.33905361649
 30
0.0
 40
13196.86125700955
100
AcDbArc
 50
89.39745886996206
 51
89.4604633428387
  0
ARC
  5
BA1
330
1F
100
AcDbEntity
  8
ceco.net 105 Honda S2000
 62
     0
100
AcDbCircle
 10
3072.216646642424
 20
-11629.27714479608
 30
0.0
 40
11903.57792315901
100
AcDbArc
 50
89.55268341485302
 51
89.62693364792718
  0
ARC
  5
BA2
330
1F
100
AcDbEntity
  8
ceco.net 105 Honda S2000
 62
     0
100
AcDbCircle
 10
3276.595331232995
 20
-10877.58068122515
 30
0.0
 40
11163.85525155358
100
AcDbArc
 50
90.56990971855933
 51
90.64325307450351
  0
ARC
  5
BA3
330
1F
100
AcDbEntity
  8
ceco.net 105 Honda S2000
 62
     0
100
AcDbCircle
 10
3149.878117224667
 20
251.9776828239153
 30
0.0
 40
7.563075443239115
100
AcDbArc
 50
289.975752365156
 51
6.398818660103148
  0
ARC
  5
BA4
330
1F
100
AcDbEntity
  8
ceco.net 105 Honda S2000
 62
     0
100
AcDbCircle
 10
1856.853519264143
 20
546.3674014540336
 30
0.0
 40
1340.28589454161
100
AcDbArc
 50
348.4423716975822
 51
348.5314222765229
  0
ARC
  5
BA5
330
1F
100
AcDbEntity
  8
ceco.net 105 Honda S2000
 62
     0
100
AcDbCircle
 10
3168.300249633379
 20
299.7857436308584
 30
0.0
 40
4.875459041202511
100
AcDbArc
 50
269.374805289489
 51
348.4423706646742
  0
ARC
  5
BA6
330
1F
100
AcDbEntity
  8
ceco.net 105 Honda S2000
 62
     0
100
AcDbCircle
 10
3168.715742761269
 20
301.8255937643296
 30
0.0
 40
4.875459041202511
100
AcDbArc
 50
348.5316875387431
 51
90.3489850018839
  0
LINE
  5
BA7
330
1F
100
AcDbEntity
  8
ceco.net 105 Honda S2000
 62
     0
100
AcDbLine
 10
3168.387862174771
 20
312.4831919329188
 30
0.0
 11
3152.93203244172
 21
312.5333510976232
 31
0.0
  0
ARC
  5
BA8
330
1F
100
AcDbEntity
  8
ceco.net 105 Honda S2000
 62
     0
100
AcDbCircle
 10
3024.249636641703
 20
-12901.16504564309
 30
0.0
 40
13196.86125700955
100
AcDbArc
 50
89.37480529080492
 51
89.44466078877404
  0
ARC
  5
BA9
330
1F
100
AcDbEntity
  8
ceco.net 105 Honda S2000
 62
     0
100
AcDbCircle
 10
3243.764158771373
 20
-12019.34665601663
 30
0.0
 40
12326.27626712779
100
AcDbArc
 50
90.34898500189042
 51
90.4228536852598
  0
ARC
  5
BAA
330
1F
100
AcDbEntity
  8
ceco.net 105 Honda S2000
 62
     0
100
AcDbCircle
 10
1859.967022913508
 20
567.3398486372495
 30
0.0
 40
1340.28589454161
100
AcDbArc
 50
348.4423706697534
 51
348.5316875365733
  0
LINE
  5
BAB
330
1F
100
AcDbEntity
  8
ceco.net 105 Honda S2000
 62
     0
100
AcDbLine
 10
3170.120617538225
 20
306.7096168709866
 30
0.0
 11
3170.756862769835
 21
309.504350833962
 31
0.0
  0
ARC
  5
BAC
330
1F
100
AcDbEntity
  8
ceco.net 105 Honda S2000
 62
     0
100
AcDbCircle
 10
3152.176189464517
 20
235.3449514418787
 30
0.0
 40
9.528953384483022
100
AcDbArc
 50
47.43947527485014
 51
88.28221977302105
  0
ARC
  5
BAD
330
1F
100
AcDbEntity
  8
ceco.net 105 Honda S2000
 62
     0
100
AcDbCircle
 10
3151.834803979378
 20
233.8911573746189
 30
0.0
 40
10.855365170801
100
AcDbArc
 50
350.4061506844213
 51
51.30518343615739
  0
LINE
  5
BAE
330
1F
100
AcDbEntity
  8
ceco.net 105 Honda S2000
 62
     0
100
AcDbLine
 10
3145.297746635508
 20
244.8696225703641
 30
0.0
 11
3152.461833464447
 21
244.8696225703641
 31
0.0
  0
ARC
  5
BAF
330
1F
100
AcDbEntity
  8
ceco.net 105 Honda S2000
 62
     0
100
AcDbCircle
 10
3161.574911441654
 20
313.0624361263069
 30
0.0
 40
6.837530366578287
100
AcDbArc
 50
355.140339923541
 51
49.19027811322751
  0
ARC
  5
BB0
330
1F
100
AcDbEntity
  8
ceco.net 105 Honda S2000
 62
     0
100
AcDbCircle
 10
3168.379950995557
 20
310.0454752500116
 30
0.0
 40
2.437729520601255
100
AcDbArc
 50
347.1747125146928
 51
89.81405731873447
  0
LINE
  5
BB1
330
1F
100
AcDbEntity
  8
ceco.net 105 Honda S2000
 62
     0
100
AcDbLine
 10
3166.043572853319
 20
318.2376546437333
 30
0.0
 11
3161.40613685362
 21
318.2376546437333
 31
0.0
  0
LINE
  5
BB2
330
1F
100
AcDbEntity
  8
ceco.net 105 Honda S2000
 62
     0
100
AcDbLine
 10
3161.40613685362
 20
318.2734867792058
 30
0.0
 11
3152.950021496974
 21
318.2734867792058
 31
0.0
  0
LINE
  5
BB3
330
1F
100
AcDbEntity
  8
ceco.net 105 Honda S2000
 62
     0
100
AcDbLine
 10
2902.099248160142
 20
272.5554186379484
 30
0.0
 11
2804.712555026635
 21
272.5554186379484
 31
0.0
  0
LINE
  5
BB4
330
1F
100
AcDbEntity
  8
ceco.net 105 Honda S2000
100
AcDbLine
 10
417.9178454126232
 20
964.603119817464
 30
0.0
 11
421.2916431543418
 21
957.338114065951
 31
0.0
  0
ARC
  5
BB5
330
1F
100
AcDbEntity
  8
ceco.net 105 Honda S2000
100
AcDbCircle
 10
337.2257002573461
 20
1484.827861504065
 30
0.0
 40
518.534889206006
100
AcDbArc
 50
277.638544805699
 51
279.0069449167452
  0
ARC
  5
BB6
330
1F
100
AcDbEntity
  8
ceco.net 105 Honda S2000
100
AcDbCircle
 10
431.7907590502874
 20
1117.400377096975
 30
0.0
 40
50.45664595864865
100
AcDbArc
 50
74.384860678643
 51
135.9931917779027
  0
ARC
  5
BB7
330
1F
100
AcDbEntity
  8
ceco.net 105 Honda S2000
100
AcDbCircle
 10
454.7035430991091
 20
905.9848804307582
 30
0.0
 40
80.39308062457854
100
AcDbArc
 50
35.15209949817903
 51
54.52961947983823
  0
ARC
  5
BB8
330
1F
100
AcDbEntity
  8
ceco.net 105 Honda S2000
100
AcDbCircle
 10
484.234525453765
 20
950.5641303657501
 30
0.0
 40
27.01199694973677
100
AcDbArc
 50
50.67040627529848
 51
113.0762653346057
  0
ARC
  5
BB9
330
1F
100
AcDbEntity
  8
ceco.net 105 Honda S2000
100
AcDbCircle
 10
315.6860141307116
 20
1701.411309595121
 30
0.0
 40
735.9282920160366
100
AcDbArc
 50
278.0233563606678
 51
282.6860359700015
  0
ARC
  5
BBA
330
1F
100
AcDbEntity
  8
ceco.net 105 Honda S2000
100
AcDbCircle
 10
473.2844434878789
 20
999.8086411479341
 30
0.0
 40
16.84630381218853
100
AcDbArc
 50
283.7973009927233
 51
358.7208640585352
  0
ARC
  5
BBB
330
1F
100
AcDbEntity
  8
ceco.net 105 Honda S2000
100
AcDbCircle
 10
138.6361705479213
 20
1026.764221141482
 30
0.0
 40
352.5514219851215
100
AcDbArc
 50
355.5536676571721
 51
18.4432892401788
  0
ARC
  5
BBC
330
1F
100
AcDbEntity
  8
ceco.net 105 Honda S2000
100
AcDbCircle
 10
435.1208695070819
 20
1128.031619326578
 30
0.0
 40
39.32292523980132
100
AcDbArc
 50
15.13627805313153
 51
74.88834436838556
  0
LINE
  5
BBD
330
1F
100
AcDbEntity
  8
ceco.net 105 Honda S2000
100
AcDbLine
 10
416.6760978423991
 20
972.4158537920045
 30
0.0
 11
417.4108898993583
 21
966.3798336294892
 31
0.0
  0
ARC
  5
BBE
330
1F
100
AcDbEntity
  8
ceco.net 105 Honda S2000
100
AcDbCircle
 10
423.2830786374398
 20
967.0946817457622
 30
0.0
 40
5.915539569702024
100
AcDbArc
 50
186.9407235044904
 51
204.9096953072183
  0
ARC
  5
BBF
330
1F
100
AcDbEntity
  8
ceco.net 105 Honda S2000
100
AcDbCircle
 10
442.8831927939319
 20
1098.669674441119
 30
0.0
 40
71.68026950750186
100
AcDbArc
 50
131.3794684655701
 51
170.9144033465732
  0
ARC
  5
BC0
330
1F
100
AcDbEntity
  8
ceco.net 105 Honda S2000
100
AcDbCircle
 10
756.2641266169959
 20
167.3446894927363
 30
0.0
 40
856.0663708191325
100
AcDbArc
 50
109.2769445029044
 51
112.6987198966427
  0
ARC
  5
BC1
330
1F
100
AcDbEntity
  8
ceco.net 105 Honda S2000
100
AcDbCircle
 10
435.6076176981442
 20
970.3055391815903
 30
0.0
 40
5.915539569702024
100
AcDbArc
 50
186.9407235044904
 51
204.9096953072183
  0
LINE
  5
BC2
330
1F
100
AcDbEntity
  8
ceco.net 105 Honda S2000
100
AcDbLine
 10
429.1640133955517
 20
974.2846392878744
 30
0.0
 11
429.7354289609939
 21
969.5906910648515
 31
0.0
  0
LINE
  5
BC3
330
1F
100
AcDbEntity
  8
ceco.net 105 Honda S2000
100
AcDbLine
 10
430.2423844733276
 20
967.8139772532921
 30
0.0
 11
433.7208650428802
 21
960.3235515441227
 31
0.0
  0
ARC
  5
BC4
330
1F
100
AcDbEntity
  8
ceco.net 105 Honda S2000
100
AcDbCircle
 10
565.1113867284731
 20
1058.546420456976
 30
0.0
 40
199.7469188107793
100
AcDbArc
 50
165.0760181772555
 51
202.2598119972419
  0
ARC
  5
BC5
330
1F
100
AcDbEntity
  8
ceco.net 105 Honda S2000
100
AcDbCircle
 10
405.9290342014284
 20
1004.390753767587
 30
0.0
 40
33.4972160078102
100
AcDbArc
 50
219.9515450409822
 51
270.3796826244732
  0
ARC
  5
BC6
330
1F
100
AcDbEntity
  8
ceco.net 105 Honda S2000
100
AcDbCircle
 10
704.5401983894408
 20
827.0558838971371
 30
0.0
 40
12.76698100024823
100
AcDbArc
 50
293.8398948877754
 51
84.07006461436605
  0
ARC
  5
BC7
330
1F
100
AcDbEntity
  8
ceco.net 105 Honda S2000
100
AcDbCircle
 10
519.3784613045864
 20
-92.95021175742675
 30
0.0
 40
951.1641443712059
100
AcDbArc
 50
87.82569172299261
 51
90.60050817801988
  0
ARC
  5
BC8
330
1F
100
AcDbEntity
  8
ceco.net 105 Honda S2000
100
AcDbCircle
 10
508.1503068222665
 20
834.3741730108337
 30
0.0
 40
23.82083009284466
100
AcDbArc
 50
86.96953774175206
 51
149.675489392517
  0
ARC
  5
BC9
330
1F
100
AcDbEntity
  8
ceco.net 105 Honda S2000
100
AcDbCircle
 10
507.9663159926423
 20
837.2491004920046
 30
0.0
 40
22.33855011611405
100
AcDbArc
 50
155.8139178772295
 51
205.9118193175919
  0
ARC
  5
BCA
330
1F
100
AcDbEntity
  8
ceco.net 105 Honda S2000
100
AcDbCircle
 10
684.2061621965841
 20
882.4999151906411
 30
0.0
 40
71.80027789377618
100
AcDbArc
 50
270.9534513745508
 51
290.7978191196635
  0
LINE
  5
BCB
330
1F
100
AcDbEntity
  8
ceco.net 105 Honda S2000
100
AcDbLine
 10
685.4009258374572
 20
810.7095784765149
 30
0.0
 11
664.1538150999696
 21
810.7095784765149
 31
0.0
  0
LINE
  5
BCC
330
1F
100
AcDbEntity
  8
ceco.net 105 Honda S2000
100
AcDbLine
 10
662.2150959004649
 20
816.0771562523621
 30
0.0
 11
554.8553186547943
 21
817.7539368675969
 31
0.0
  0
ARC
  5
BCD
330
1F
100
AcDbEntity
  8
ceco.net 105 Honda S2000
100
AcDbCircle
 10
609.7843741117977
 20
883.1668260322365
 30
0.0
 40
90.58746511914344
100
AcDbArc
 50
231.351215102872
 51
306.8833091531897
  0
ARC
  5
BCE
330
1F
100
AcDbEntity
  8
ceco.net 105 Honda S2000
100
AcDbCircle
 10
662.0153030836956
 20
812.9710803794621
 30
0.0
 40
3.112494899567855
100
AcDbArc
 50
313.3988762015334
 51
86.31962092868311
  0
ARC
  5
BCF
330
1F
100
AcDbEntity
  8
ceco.net 105 Honda S2000
100
AcDbCircle
 10
555.3469556956553
 20
814.6805157250671
 30
0.0
 40
3.11249489956839
100
AcDbArc
 50
99.08827122536134
 51
226.6011237984665
  0
ARC
  5
BD0
330
1F
100
AcDbEntity
  8
ceco.net 105 Honda S2000
100
AcDbCircle
 10
615.9096707990394
 20
1836.981779938465
 30
0.0
 40
1026.298975117283
100
AcDbArc
 50
263.6744394625829
 51
266.4869223011316
  0
ARC
  5
BD1
330
1F
100
AcDbEntity
  8
ceco.net 105 Honda S2000
100
AcDbCircle
 10
504.9227906712332
 20
835.7704680530767
 30
0.0
 40
18.95485387176758
100
AcDbArc
 50
205.9118193172686
 51
263.6744394620847
  0
ARC
  5
BD2
330
1F
100
AcDbEntity
  8
ceco.net 105 Honda S2000
100
AcDbCircle
 10
519.3784613045864
 20
-92.95021175742675
 30
0.0
 40
951.1641443712059
100
AcDbArc
 50
78.69362516118624
 51
81.05062721318409
  0
LINE
  5
BD3
330
1F
100
AcDbEntity
  8
ceco.net 105 Honda S2000
100
AcDbLine
 10
667.343145233579
 20
846.6346337179599
 30
0.0
 11
555.4653726969847
 21
857.5291222437696
 31
0.0
  0
LINE
  5
BD4
330
1F
100
AcDbEntity
  8
ceco.net 105 Honda S2000
100
AcDbLine
 10
-871.3800876867024
 20
409.8379121270443
 30
0.0
 11
-874.6655723610892
 21
410.4912454352195
 31
0.0
  0
LINE
  5
BD5
330
1F
100
AcDbEntity
  8
ceco.net 105 Honda S2000
100
AcDbLine
 10
-874.6655723610892
 20
410.4912454352195
 30
0.0
 11
-935.0824988470412
 21
410.4912454352195
 31
0.0
  0
LINE
  5
BD6
330
1F
100
AcDbEntity
  8
ceco.net 105 Honda S2000
100
AcDbLine
 10
-824.7393656522033
 20
331.9164008478581
 30
0.0
 11
-773.5552189396693
 21
331.9164008478581
 31
0.0
  0
LINE
  5
BD7
330
1F
100
AcDbEntity
  8
ceco.net 105 Honda S2000
100
AcDbLine
 10
-824.7393656522033
 20
331.9164008478581
 30
0.0
 11
-874.6655723610892
 21
321.9883515552099
 31
0.0
  0
LINE
  5
BD8
330
1F
100
AcDbEntity
  8
ceco.net 105 Honda S2000
100
AcDbLine
 10
-874.6655723610892
 20
321.9883515552099
 30
0.0
 11
-935.0824988470412
 21
321.9883515552099
 31
0.0
  0
ARC
  5
BD9
330
1F
100
AcDbEntity
  8
ceco.net 105 Honda S2000
100
AcDbCircle
 10
-1177.139022093731
 20
366.2397984952147
 30
0.0
 40
305.6932749497604
100
AcDbArc
 50
351.6767532119485
 51
8.323246788051545
  0
ARC
  5
BDA
330
1F
100
AcDbEntity
  8
ceco.net 105 Honda S2000
100
AcDbCircle
 10
-959.371265110094
 20
366.2397984952147
 30
0.0
 40
138.938273984341
100
AcDbArc
 50
345.6975397113469
 51
358.1810861218174
  0
ELLIPSE
  5
BDB
330
1F
100
AcDbEntity
  8
ceco.net 105 Honda S2000
100
AcDbEllipse
 10
-935.0824988470412
 20
366.2397984952147
 30
0.0
 11
0.0
 21
44.25144693998856
 31
0.0
210
0.0
220
0.0
230
-1.0
 40
0.1579181844770482
 41
0.0
 42
6.283185307179586
  0
ELLIPSE
  5
BDC
330
1F
100
AcDbEntity
  8
ceco.net 105 Honda S2000
100
AcDbEllipse
 10
-920.3589244531466
 20
366.2397984952147
 30
0.0
 11
0.0
 21
44.25144693998856
 31
0.0
210
0.0
220
0.0
230
-1.0
 40
0.1579181844770482
 41
0.0
 42
6.283185307179586
  0
LINE
  5
BDD
330
1F
100
AcDbEntity
  8
ceco.net 105 Honda S2000
100
AcDbLine
 10
1494.844536579679
 20
298.3857122616789
 30
0.0
 11
582.5706231370569
 21
333.412739226729
 31
0.0
  0
ARC
  5
BDE
330
1F
100
AcDbEntity
  8
ceco.net 105 Honda S2000
100
AcDbCircle
 10
1497.721757343504
 20
373.1489478164765
 30
0.0
 40
74.81115097618164
100
AcDbArc
 50
267.8009999999887
 51
358.9725766089931
  0
ARC
  5
BDF
330
1F
100
AcDbEntity
  8
ceco.net 105 Honda S2000
100
AcDbCircle
 10
585.9081991123968
 20
420.2452875011547
 30
0.0
 40
86.89507497022704
100
AcDbArc
 50
183.2283250246155
 51
267.8009999999626
  0
LINE
  5
BE0
330
1F
100
AcDbEntity
  8
ceco.net 105 Honda S2000
100
AcDbLine
 10
1572.520880737342
 20
371.807512061572
 30
0.0
 11
1829.10083327163
 21
353.9184270725998
 31
0.0
  0
ENDSEC
  0
SECTION
  2
OBJECTS
  0
DICTIONARY
  5
C
330
0
100
AcDbDictionary
281
     1
  3
ACAD_GROUP
350
D
  3
ACAD_LAYOUT
350
1A
  3
ACAD_MLINESTYLE
350
17
  3
ACAD_PLOTSETTINGS
350
19
  3
ACAD_PLOTSTYLENAME
350
E
  3
AcDbVariableDictionary
350
115
  3
DWGPROPS
350
8E3
  0
DICTIONARY
  5
D
102
{ACAD_REACTORS
330
C
102
}
330
C
100
AcDbDictionary
281
     1
  0
DICTIONARY
  5
1A
102
{ACAD_REACTORS
330
C
102
}
330
C
100
AcDbDictionary
281
     1
  3
Layout1
350
1E
  3
Layout2
350
26
  3
Model
350
22
  0
DICTIONARY
  5
17
102
{ACAD_REACTORS
330
C
102
}
330
C
100
AcDbDictionary
281
     1
  3
Standard
350
18
  0
DICTIONARY
  5
19
102
{ACAD_REACTORS
330
C
102
}
330
C
100
AcDbDictionary
281
     1
  0
ACDBDICTIONARYWDFLT
  5
E
102
{ACAD_REACTORS
330
C
102
}
330
C
100
AcDbDictionary
281
     1
  3
Normal
350
F
100
AcDbDictionaryWithDefault
340
F
  0
DICTIONARY
  5
115
102
{ACAD_REACTORS
330
C
102
}
330
C
100
AcDbDictionary
281
     1
  3
DIMASSOC
350
117
  3
HIDETEXT
350
116
  0
XRECORD
  5
8E3
102
{ACAD_REACTORS
330
C
102
}
330
C
100
AcDbXrecord
280
     1
  1
DWGPROPS COOKIE
  2
Ceco.NET-Trees-and-Plants - T - xx . 67 . dwg
  3

  4
ceco.net
  6

  7

  8
peacosta
  9

300
=
301
=
302
=
303
=
304
=
305
=
306
=
307
=
308
=
309
=
 40
0.0450312037037037
 41
2455079.811409143
 42
2455838.656599502
  1

 90
        0
  0
LAYOUT
  5
1E
102
{ACAD_REACTORS
330
1A
102
}
330
1A
100
AcDbPlotSettings
  1

  2
Microsoft Office Document Image Writer
  4

  6

 40
0.0
 41
0.0
 42
0.0
 43
0.0
 44
0.0
 45
0.0
 46
0.0
 47
0.0
 48
0.0
 49
0.0
140
0.0
141
0.0
142
1.0
143
1.0
 70
   688
 72
     0
 73
     0
 74
     5
  7

 75
    16
147
1.0
148
0.0
149
0.0
100
AcDbLayout
  1
Layout1
 70
     1
 71
     1
 10
0.0
 20
0.0
 11
420.0
 21
297.0
 12
0.0
 22
0.0
 32
0.0
 14
1.000000000000000E+20
 24
1.000000000000000E+20
 34
1.000000000000000E+20
 15
-1.000000000000000E+20
 25
-1.000000000000000E+20
 35
-1.000000000000000E+20
146
0.0
 13
0.0
 23
0.0
 33
0.0
 16
1.0
 26
0.0
 36
0.0
 17
0.0
 27
1.0
 37
0.0
 76
     0
330
1B
  0
LAYOUT
  5
26
102
{ACAD_REACTORS
330
1A
102
}
330
1A
100
AcDbPlotSettings
  1

  2
Microsoft Office Document Image Writer
  4

  6

 40
0.0
 41
0.0
 42
0.0
 43
0.0
 44
0.0
 45
0.0
 46
0.0
 47
0.0
 48
0.0
 49
0.0
140
0.0
141
0.0
142
1.0
143
1.0
 70
   688
 72
     0
 73
     0
 74
     5
  7

 75
    16
147
1.0
148
0.0
149
0.0
100
AcDbLayout
  1
Layout2
 70
     1
 71
     2
 10
0.0
 20
0.0
 11
12.0
 21
9.0
 12
0.0
 22
0.0
 32
0.0
 14
0.0
 24
0.0
 34
0.0
 15
0.0
 25
0.0
 35
0.0
146
0.0
 13
0.0
 23
0.0
 33
0.0
 16
1.0
 26
0.0
 36
0.0
 17
0.0
 27
1.0
 37
0.0
 76
     0
330
23
  0
LAYOUT
  5
22
102
{ACAD_REACTORS
330
1A
102
}
330
1A
100
AcDbPlotSettings
  1

  2
Microsoft Office Document Image Writer
  4

  6

 40
0.0
 41
0.0
 42
0.0
 43
0.0
 44
0.0
 45
0.0
 46
0.0
 47
0.0
 48
0.0
 49
0.0
140
0.0
141
0.0
142
1.0
143
1.0
 70
  1712
 72
     0
 73
     0
 74
     0
  7

 75
     0
147
1.0
148
0.0
149
0.0
100
AcDbLayout
  1
Model
 70
     1
 71
     0
 10
0.0
 20
0.0
 11
12.0
 21
9.0
 12
0.0
 22
0.0
 32
0.0
 14
0.0
 24
0.0
 34
0.0
 15
0.0
 25
0.0
 35
0.0
146
0.0
 13
0.0
 23
0.0
 33
0.0
 16
1.0
 26
0.0
 36
0.0
 17
0.0
 27
1.0
 37
0.0
 76
     0
330
1F
  0
MLINESTYLE
  5
18
102
{ACAD_REACTORS
330
17
102
}
330
17
100
AcDbMlineStyle
  2
STANDARD
 70
     0
  3

 62
   256
 51
90.0
 52
90.0
 71
     2
 49
0.5
 62
   256
  6
BYLAYER
 49
-0.5
 62
   256
  6
BYLAYER
  0
ACDBPLACEHOLDER
  5
F
102
{ACAD_REACTORS
330
E
102
}
330
E
  0
DICTIONARYVAR
  5
117
102
{ACAD_REACTORS
330
115
102
}
330
115
100
DictionaryVariables
280
     0
  1
2
  0
DICTIONARYVAR
  5
116
102
{ACAD_REACTORS
330
115
102
}
330
115
100
DictionaryVariables
280
     0
  1
1
  0
ENDSEC
  0
EOF
