  0
SECTION
  2
HEADER
  9
$ACADVER
  1
AC1015
  9
$ACADMAINTVER
 70
    13
  9
$DWGCODEPAGE
  3
ANSI_1252
  9
$INSBASE
 10
0.0
 20
0.0
 30
0.0
  9
$EXTMIN
 10
-1733.890512271168
 20
-1733.890512236996
 30
-0.0015258207003583
  9
$EXTMAX
 10
1733.890528215144
 20
1733.890528355419
 30
0.0000000349246037
  9
$LIMMIN
 10
0.0
 20
0.0
  9
$LIMMAX
 10
420.0
 20
297.0
  9
$ORTHOMODE
 70
     0
  9
$REGENMODE
 70
     1
  9
$FILLMODE
 70
     1
  9
$QTEXTMODE
 70
     0
  9
$MIRRTEXT
 70
     1
  9
$LTSCALE
 40
1.0
  9
$ATTMODE
 70
     1
  9
$TEXTSIZE
 40
2.5
  9
$TRACEWID
 40
1.0
  9
$TEXTSTYLE
  7
Standard
  9
$CLAYER
  8
ceco.net 147
  9
$CELTYPE
  6
ByLayer
  9
$CECOLOR
 62
   256
  9
$CELTSCALE
 40
1.0
  9
$DISPSILH
 70
     0
  9
$DIMSCALE
 40
1.0
  9
$DIMASZ
 40
2.5
  9
$DIMEXO
 40
0.625
  9
$DIMDLI
 40
3.75
  9
$DIMRND
 40
0.0
  9
$DIMDLE
 40
0.0
  9
$DIMEXE
 40
1.25
  9
$DIMTP
 40
0.0
  9
$DIMTM
 40
0.0
  9
$DIMTXT
 40
2.5
  9
$DIMCEN
 40
2.5
  9
$DIMTSZ
 40
0.0
  9
$DIMTOL
 70
     0
  9
$DIMLIM
 70
     0
  9
$DIMTIH
 70
     0
  9
$DIMTOH
 70
     0
  9
$DIMSE1
 70
     0
  9
$DIMSE2
 70
     0
  9
$DIMTAD
 70
     1
  9
$DIMZIN
 70
     8
  9
$DIMBLK
  1

  9
$DIMASO
 70
     1
  9
$DIMSHO
 70
     1
  9
$DIMPOST
  1

  9
$DIMAPOST
  1

  9
$DIMALT
 70
     0
  9
$DIMALTD
 70
     3
  9
$DIMALTF
 40
0.03937007874016
  9
$DIMLFAC
 40
1.0
  9
$DIMTOFL
 70
     1
  9
$DIMTVP
 40
0.0
  9
$DIMTIX
 70
     0
  9
$DIMSOXD
 70
     0
  9
$DIMSAH
 70
     0
  9
$DIMBLK1
  1

  9
$DIMBLK2
  1

  9
$DIMSTYLE
  2
ISO-25
  9
$DIMCLRD
 70
     0
  9
$DIMCLRE
 70
     0
  9
$DIMCLRT
 70
     0
  9
$DIMTFAC
 40
1.0
  9
$DIMGAP
 40
0.625
  9
$DIMJUST
 70
     0
  9
$DIMSD1
 70
     0
  9
$DIMSD2
 70
     0
  9
$DIMTOLJ
 70
     0
  9
$DIMTZIN
 70
     8
  9
$DIMALTZ
 70
     0
  9
$DIMALTTZ
 70
     0
  9
$DIMUPT
 70
     0
  9
$DIMDEC
 70
     2
  9
$DIMTDEC
 70
     2
  9
$DIMALTU
 70
     2
  9
$DIMALTTD
 70
     3
  9
$DIMTXSTY
  7
Standard
  9
$DIMAUNIT
 70
     0
  9
$DIMADEC
 70
     0
  9
$DIMALTRND
 40
0.0
  9
$DIMAZIN
 70
     0
  9
$DIMDSEP
 70
    44
  9
$DIMATFIT
 70
     3
  9
$DIMFRAC
 70
     0
  9
$DIMLDRBLK
  1

  9
$DIMLUNIT
 70
     2
  9
$DIMLWD
 70
    -2
  9
$DIMLWE
 70
    -2
  9
$DIMTMOVE
 70
     0
  9
$LUNITS
 70
     2
  9
$LUPREC
 70
     2
  9
$SKETCHINC
 40
1.0
  9
$FILLETRAD
 40
10.0
  9
$AUNITS
 70
     0
  9
$AUPREC
 70
     0
  9
$MENU
  1
.
  9
$ELEVATION
 40
0.0
  9
$PELEVATION
 40
0.0
  9
$THICKNESS
 40
0.0
  9
$LIMCHECK
 70
     0
  9
$CHAMFERA
 40
10.0
  9
$CHAMFERB
 40
10.0
  9
$CHAMFERC
 40
20.0
  9
$CHAMFERD
 40
0.0
  9
$SKPOLY
 70
     0
  9
$TDCREATE
 40
2455079.811409143
  9
$TDUCREATE
 40
2455079.936409144
  9
$TDUPDATE
 40
2456737.429877835
  9
$TDUUPDATE
 40
2456737.554877836
  9
$TDINDWG
 40
0.0479174074
  9
$TDUSRTIMER
 40
0.0479174074
  9
$USRTIMER
 70
     1
  9
$ANGBASE
 50
0.0
  9
$ANGDIR
 70
     0
  9
$PDMODE
 70
     0
  9
$PDSIZE
 40
0.0
  9
$PLINEWID
 40
0.0
  9
$SPLFRAME
 70
     0
  9
$SPLINETYPE
 70
     6
  9
$SPLINESEGS
 70
     8
  9
$HANDSEED
  5
AEA
  9
$SURFTAB1
 70
     6
  9
$SURFTAB2
 70
     6
  9
$SURFTYPE
 70
     6
  9
$SURFU
 70
     6
  9
$SURFV
 70
     6
  9
$UCSBASE
  2

  9
$UCSNAME
  2

  9
$UCSORG
 10
0.0
 20
0.0
 30
0.0
  9
$UCSXDIR
 10
1.0
 20
0.0
 30
0.0
  9
$UCSYDIR
 10
0.0
 20
1.0
 30
0.0
  9
$UCSORTHOREF
  2

  9
$UCSORTHOVIEW
 70
     0
  9
$UCSORGTOP
 10
0.0
 20
0.0
 30
0.0
  9
$UCSORGBOTTOM
 10
0.0
 20
0.0
 30
0.0
  9
$UCSORGLEFT
 10
0.0
 20
0.0
 30
0.0
  9
$UCSORGRIGHT
 10
0.0
 20
0.0
 30
0.0
  9
$UCSORGFRONT
 10
0.0
 20
0.0
 30
0.0
  9
$UCSORGBACK
 10
0.0
 20
0.0
 30
0.0
  9
$PUCSBASE
  2

  9
$PUCSNAME
  2

  9
$PUCSORG
 10
0.0
 20
0.0
 30
0.0
  9
$PUCSXDIR
 10
1.0
 20
0.0
 30
0.0
  9
$PUCSYDIR
 10
0.0
 20
1.0
 30
0.0
  9
$PUCSORTHOREF
  2

  9
$PUCSORTHOVIEW
 70
     0
  9
$PUCSORGTOP
 10
0.0
 20
0.0
 30
0.0
  9
$PUCSORGBOTTOM
 10
0.0
 20
0.0
 30
0.0
  9
$PUCSORGLEFT
 10
0.0
 20
0.0
 30
0.0
  9
$PUCSORGRIGHT
 10
0.0
 20
0.0
 30
0.0
  9
$PUCSORGFRONT
 10
0.0
 20
0.0
 30
0.0
  9
$PUCSORGBACK
 10
0.0
 20
0.0
 30
0.0
  9
$USERI1
 70
     0
  9
$USERI2
 70
     0
  9
$USERI3
 70
     0
  9
$USERI4
 70
     0
  9
$USERI5
 70
     0
  9
$USERR1
 40
0.0
  9
$USERR2
 40
0.0
  9
$USERR3
 40
0.0
  9
$USERR4
 40
0.0
  9
$USERR5
 40
0.0
  9
$WORLDVIEW
 70
     1
  9
$SHADEDGE
 70
     3
  9
$SHADEDIF
 70
    70
  9
$TILEMODE
 70
     1
  9
$MAXACTVP
 70
    64
  9
$PINSBASE
 10
0.0
 20
0.0
 30
0.0
  9
$PLIMCHECK
 70
     0
  9
$PEXTMIN
 10
1.000000000000000E+20
 20
1.000000000000000E+20
 30
1.000000000000000E+20
  9
$PEXTMAX
 10
-1.000000000000000E+20
 20
-1.000000000000000E+20
 30
-1.000000000000000E+20
  9
$PLIMMIN
 10
0.0
 20
0.0
  9
$PLIMMAX
 10
420.0
 20
297.0
  9
$UNITMODE
 70
     0
  9
$VISRETAIN
 70
     1
  9
$PLINEGEN
 70
     0
  9
$PSLTSCALE
 70
     1
  9
$TREEDEPTH
 70
  3020
  9
$CMLSTYLE
  2
Standard
  9
$CMLJUST
 70
     0
  9
$CMLSCALE
 40
20.0
  9
$PROXYGRAPHICS
 70
     1
  9
$MEASUREMENT
 70
     1
  9
$CELWEIGHT
370
    -1
  9
$ENDCAPS
280
     0
  9
$JOINSTYLE
280
     0
  9
$LWDISPLAY
290
     0
  9
$INSUNITS
 70
     4
  9
$HYPERLINKBASE
  1

  9
$STYLESHEET
  1

  9
$XEDIT
290
     1
  9
$CEPSNTYPE
380
     0
  9
$PSTYLEMODE
290
     1
  9
$FINGERPRINTGUID
  2
{81085373-3A21-4932-80AA-8F6C3258C50C}
  9
$VERSIONGUID
  2
{BAA60946-5F68-40B9-9E26-C339F9E8DD6A}
  9
$EXTNAMES
290
     1
  9
$PSVPSCALE
 40
0.0
  9
$OLESTARTUP
290
     0
  0
ENDSEC
  0
SECTION
  2
CLASSES
  0
CLASS
  1
ACDBDICTIONARYWDFLT
  2
AcDbDictionaryWithDefault
  3
AutoCAD 2000
 90
        0
280
     0
281
     0
  0
CLASS
  1
ACDBPLACEHOLDER
  2
AcDbPlaceHolder
  3
AutoCAD 2000
 90
        0
280
     0
281
     0
  0
CLASS
  1
LAYOUT
  2
AcDbLayout
  3
AutoCAD 2000
 90
        0
280
     0
281
     0
  0
CLASS
  1
DICTIONARYVAR
  2
AcDbDictionaryVar
  3
AutoCAD 2000
 90
        0
280
     0
281
     0
  0
CLASS
  1
IMAGEDEF
  2
AcDbRasterImageDef
  3
ISM
 90
        0
280
     0
281
     0
  0
ENDSEC
  0
SECTION
  2
TABLES
  0
TABLE
  2
VPORT
  5
8
330
0
100
AcDbSymbolTable
 70
     3
  0
VPORT
  5
AE9
330
8
100
AcDbSymbolTableRecord
100
AcDbViewportTableRecord
  2
*Active
 70
     0
 10
0.0
 20
0.0
 11
1.0
 21
1.0
 12
0.0000079719879977
 22
0.0000080592112681
 13
0.0
 23
0.0
 14
10.0
 24
10.0
 15
10.0
 25
10.0
 16
0.0
 26
0.0
 36
1.0
 17
0.0
 27
0.0
 37
0.0
 40
3492.404337922067
 41
2.184834123222748
 42
50.0
 43
0.0
 44
0.0
 50
0.0
 51
0.0
 71
     0
 72
   100
 73
     1
 74
     3
 75
     0
 76
     0
 77
     0
 78
     0
281
     0
 65
     1
110
0.0
120
0.0
130
0.0
111
1.0
121
0.0
131
0.0
112
0.0
122
1.0
132
0.0
 79
     0
146
0.0
  0
ENDTAB
  0
TABLE
  2
LTYPE
  5
5
330
0
100
AcDbSymbolTable
 70
     1
  0
LTYPE
  5
14
330
5
100
AcDbSymbolTableRecord
100
AcDbLinetypeTableRecord
  2
ByBlock
 70
     0
  3

 72
    65
 73
     0
 40
0.0
  0
LTYPE
  5
15
330
5
100
AcDbSymbolTableRecord
100
AcDbLinetypeTableRecord
  2
ByLayer
 70
     0
  3

 72
    65
 73
     0
 40
0.0
  0
LTYPE
  5
16
330
5
100
AcDbSymbolTableRecord
100
AcDbLinetypeTableRecord
  2
Continuous
 70
     0
  3
Solid line
 72
    65
 73
     0
 40
0.0
  0
ENDTAB
  0
TABLE
  2
LAYER
  5
2
330
0
100
AcDbSymbolTable
 70
     2
  0
LAYER
  5
10
330
2
100
AcDbSymbolTableRecord
100
AcDbLayerTableRecord
  2
0
 70
     0
 62
     7
  6
Continuous
370
    -3
390
F
  0
LAYER
  5
8F5
102
{ACAD_XDICTIONARY
360
8F6
102
}
330
2
100
AcDbSymbolTableRecord
100
AcDbLayerTableRecord
  2
ceco.net 147
 70
     0
 62
     7
  6
Continuous
370
    -3
390
F
1001
AcAecLayerStandard
1000

1000

  0
ENDTAB
  0
TABLE
  2
STYLE
  5
3
330
0
100
AcDbSymbolTable
 70
     1
  0
STYLE
  5
11
330
3
100
AcDbSymbolTableRecord
100
AcDbTextStyleTableRecord
  2
Standard
 70
     0
 40
0.0
 41
1.0
 50
0.0
 71
     0
 42
2.5
  3
txt
  4

  0
ENDTAB
  0
TABLE
  2
VIEW
  5
6
330
0
100
AcDbSymbolTable
 70
     0
  0
ENDTAB
  0
TABLE
  2
UCS
  5
7
330
0
100
AcDbSymbolTable
 70
     0
  0
ENDTAB
  0
TABLE
  2
APPID
  5
9
330
0
100
AcDbSymbolTable
 70
    11
  0
APPID
  5
12
330
9
100
AcDbSymbolTableRecord
100
AcDbRegAppTableRecord
  2
ACAD
 70
     0
  0
APPID
  5
2C
330
9
100
AcDbSymbolTableRecord
100
AcDbRegAppTableRecord
  2
ACAD_DSTYLE_DIMJOGGED_JOGANGLE_SYMBOL
 70
     0
  0
APPID
  5
11B
330
9
100
AcDbSymbolTableRecord
100
AcDbRegAppTableRecord
  2
ACAD_NAV_VCDISPLAY
 70
     0
  0
APPID
  5
11C
330
9
100
AcDbSymbolTableRecord
100
AcDbRegAppTableRecord
  2
ACAD_MLEADERVER
 70
     0
  0
APPID
  5
8F8
330
9
100
AcDbSymbolTableRecord
100
AcDbRegAppTableRecord
  2
ACAD_PSEXT
 70
     0
  0
APPID
  5
8F9
330
9
100
AcDbSymbolTableRecord
100
AcDbRegAppTableRecord
  2
AcAecLayerStandard
 70
     0
  0
APPID
  5
8FA
330
9
100
AcDbSymbolTableRecord
100
AcDbRegAppTableRecord
  2
ACAD_EXEMPT_FROM_CAD_STANDARDS
 70
     0
  0
APPID
  5
8FB
330
9
100
AcDbSymbolTableRecord
100
AcDbRegAppTableRecord
  2
AUTOCAD_POSTSCRIPT_FIGURE
 70
     0
  0
APPID
  5
8FC
330
9
100
AcDbSymbolTableRecord
100
AcDbRegAppTableRecord
  2
DCO15
 70
     0
  0
APPID
  5
8FD
330
9
100
AcDbSymbolTableRecord
100
AcDbRegAppTableRecord
  2
CONTENTBLOCKDESCRIPTION
 70
     0
  0
APPID
  5
8FE
330
9
100
AcDbSymbolTableRecord
100
AcDbRegAppTableRecord
  2
CONTENTBLOCKICON
 70
     0
  0
ENDTAB
  0
TABLE
  2
DIMSTYLE
  5
A
330
0
100
AcDbSymbolTable
 70
     2
100
AcDbDimStyleTable
 71
     0
  0
DIMSTYLE
105
27
330
A
100
AcDbSymbolTableRecord
100
AcDbDimStyleTableRecord
  2
ISO-25
 70
     0
 41
2.5
 42
0.625
 43
3.75
 44
1.25
 73
     0
 74
     0
 77
     1
 78
     8
140
2.5
141
2.5
143
0.03937007874016
147
0.625
171
     3
172
     1
271
     2
272
     2
274
     3
278
    44
283
     0
284
     8
340
11
  0
DIMSTYLE
105
2B
330
A
100
AcDbSymbolTableRecord
100
AcDbDimStyleTableRecord
  2
Standard
 70
     0
340
11
  0
ENDTAB
  0
TABLE
  2
BLOCK_RECORD
  5
1
330
0
100
AcDbSymbolTable
 70
     2
  0
BLOCK_RECORD
  5
1F
330
1
100
AcDbSymbolTableRecord
100
AcDbBlockTableRecord
  2
*Model_Space
340
22
  0
BLOCK_RECORD
  5
1B
330
1
100
AcDbSymbolTableRecord
100
AcDbBlockTableRecord
  2
*Paper_Space
340
1E
  0
BLOCK_RECORD
  5
23
330
1
100
AcDbSymbolTableRecord
100
AcDbBlockTableRecord
  2
*Paper_Space0
340
26
  0
ENDTAB
  0
ENDSEC
  0
SECTION
  2
BLOCKS
  0
BLOCK
  5
20
330
1F
100
AcDbEntity
  8
0
100
AcDbBlockBegin
  2
*Model_Space
 70
     0
 10
0.0
 20
0.0
 30
0.0
  3
*Model_Space
  1

  0
ENDBLK
  5
21
330
1F
100
AcDbEntity
  8
0
100
AcDbBlockEnd
  0
BLOCK
  5
1C
330
1B
100
AcDbEntity
 67
     1
  8
0
100
AcDbBlockBegin
  2
*Paper_Space
 70
     0
 10
0.0
 20
0.0
 30
0.0
  3
*Paper_Space
  1

  0
ENDBLK
  5
1D
330
1B
100
AcDbEntity
 67
     1
  8
0
100
AcDbBlockEnd
  0
BLOCK
  5
24
330
23
100
AcDbEntity
  8
0
100
AcDbBlockBegin
  2
*Paper_Space0
 70
     0
 10
0.0
 20
0.0
 30
0.0
  3
*Paper_Space0
  1

  0
ENDBLK
  5
25
330
23
100
AcDbEntity
  8
0
100
AcDbBlockEnd
  0
ENDSEC
  0
SECTION
  2
ENTITIES
  0
CIRCLE
  5
9F7
330
1F
100
AcDbEntity
  8
ceco.net 147
 48
0.5
100
AcDbCircle
 10
0.0
 20
0.0
 30
0.0
 40
1225.000000000884
  0
ARC
  5
9F8
330
1F
100
AcDbEntity
  8
ceco.net 147
100
AcDbCircle
 10
417.7479497331078
 20
1647.798315934953
 30
0.0
 40
216.6186537451781
100
AcDbArc
 50
162.0338819825959
 51
185.4486706098765
  0
ARC
  5
9F9
330
1F
100
AcDbEntity
  8
ceco.net 147
100
AcDbCircle
 10
-954.6103867864585
 20
1390.539693871396
 30
0.0
 40
1180.686079131762
100
AcDbArc
 50
353.1637470232203
 51
11.56432988713548
  0
ARC
  5
9FA
330
1F
100
AcDbEntity
  8
ceco.net 147
100
AcDbCircle
 10
207.6692218513344
 20
1269.817564849625
 30
0.0
 40
22.2031779857804
100
AcDbArc
 50
229.5236199322435
 51
296.8038741214973
  0
ARC
  5
9FB
330
1F
100
AcDbEntity
  8
ceco.net 147
100
AcDbCircle
 10
187.8803187010926
 20
1242.163146739942
 30
0.0
 40
12.03279567403589
100
AcDbArc
 50
63.4625004662435
 51
108.2463947034236
  0
ARC
  5
9FC
330
1F
100
AcDbEntity
  8
ceco.net 147
100
AcDbCircle
 10
125.2620694765355
 20
1730.855184776475
 30
0.0
 40
480.8789740845785
100
AcDbArc
 50
270.5699180763035
 51
277.0295707674441
  0
LINE
  5
9FD
330
1F
100
AcDbEntity
  8
ceco.net 147
100
AcDbLine
 10
130.0452682189643
 20
1250.0
 30
0.0
 11
0.0
 21
1250.0
 31
0.0
  0
LINE
  5
9FE
330
1F
100
AcDbEntity
  8
ceco.net 147
100
AcDbLine
 10
0.0
 20
1250.0
 30
0.0
 11
-130.0452684517949
 21
1250.0
 31
0.0
  0
ARC
  5
9FF
330
1F
100
AcDbEntity
  8
ceco.net 147
100
AcDbCircle
 10
-125.2620697093079
 20
1730.855184776475
 30
0.0
 40
480.8789740845817
100
AcDbArc
 50
262.9704292325558
 51
269.4300819236963
  0
ARC
  5
A00
330
1F
100
AcDbEntity
  8
ceco.net 147
100
AcDbCircle
 10
-187.880318933865
 20
1242.163146739942
 30
0.0
 40
12.03279567405503
100
AcDbArc
 50
71.75360529657637
 51
116.5374995337564
  0
ARC
  5
A01
330
1F
100
AcDbEntity
  8
ceco.net 147
100
AcDbCircle
 10
-207.6692220841068
 20
1269.817564849625
 30
0.0
 40
22.20317798578791
100
AcDbArc
 50
243.1961258785026
 51
310.4763800677564
  0
ARC
  5
A02
330
1F
100
AcDbEntity
  8
ceco.net 147
100
AcDbCircle
 10
954.6103865536862
 20
1390.539693871396
 30
0.0
 40
1180.686079131772
100
AcDbArc
 50
168.4356701128645
 51
186.8362529767797
  0
ARC
  5
A03
330
1F
100
AcDbEntity
  8
ceco.net 147
100
AcDbCircle
 10
-417.7479499658802
 20
1647.798315934953
 30
0.0
 40
216.6186537451701
100
AcDbArc
 50
354.5513293901235
 51
17.96611801740403
  0
ARC
  5
A04
330
1F
100
AcDbEntity
  8
ceco.net 147
100
AcDbCircle
 10
-200.9478369082208
 20
1721.199224805809
 30
0.0
 40
12.60083115436265
100
AcDbArc
 50
89.82922375528023
 51
211.4999329089209
  0
LINE
  5
A05
330
1F
100
AcDbEntity
  8
ceco.net 147
100
AcDbLine
 10
-200.9102788288146
 20
1733.79999998724
 30
0.0
 11
200.9102785959839
 21
1733.79999998724
 31
0.0
  0
ARC
  5
A06
330
1F
100
AcDbEntity
  8
ceco.net 147
100
AcDbCircle
 10
200.9478366754483
 20
1721.199224805809
 30
0.0
 40
12.60083115433324
100
AcDbArc
 50
328.500067091079
 51
90.17077624471978
  0
ARC
  5
A07
330
1F
100
AcDbEntity
  8
ceco.net 147
100
AcDbCircle
 10
1016.533895772882
 20
1362.501918303198
 30
0.0
 40
216.6186537832253
100
AcDbArc
 50
139.5338819405641
 51
162.9486705678043
  0
ARC
  5
A08
330
1F
100
AcDbEntity
  8
ceco.net 147
100
AcDbCircle
 10
-349.8084950891207
 20
1650.004741109209
 30
0.0
 40
1180.686079026038
100
AcDbArc
 50
330.6637470481664
 51
349.0643299120691
  0
ARC
  5
A09
330
1F
100
AcDbEntity
  8
ceco.net 147
100
AcDbCircle
 10
677.7994878328755
 20
1093.686887588468
 30
0.0
 40
22.20317809208818
100
AcDbArc
 50
207.0236199553144
 51
274.3038741445581
  0
ARC
  5
A0A
330
1F
100
AcDbEntity
  8
ceco.net 147
100
AcDbCircle
 10
648.9340376233449
 20
1075.710422149044
 30
0.0
 40
12.03279551435521
100
AcDbArc
 50
40.96250042339677
 51
85.74639466065686
  0
ARC
  5
A0B
330
1F
100
AcDbEntity
  8
ceco.net 147
100
AcDbCircle
 10
778.0966653488576
 20
1551.165961229591
 30
0.0
 40
480.8789751187186
100
AcDbArc
 50
248.0699181025717
 51
254.5295707937338
  0
LINE
  5
A0C
330
1F
100
AcDbEntity
  8
ceco.net 147
100
AcDbLine
 10
598.500452004373
 20
1105.083245958667
 30
0.0
 11
478.3542903605848
 21
1154.849415645003
 31
0.0
  0
LINE
  5
A0D
330
1F
100
AcDbEntity
  8
ceco.net 147
100
AcDbLine
 10
478.3542903605848
 20
1154.849415645003
 30
0.0
 11
358.2081287167966
 21
1204.615585273131
 31
0.0
  0
ARC
  5
A0E
330
1F
100
AcDbEntity
  8
ceco.net 147
100
AcDbCircle
 10
546.6425409782096
 20
1647.03739929758
 30
0.0
 40
480.8789756779372
100
AcDbArc
 50
240.4704292794237
 51
246.9300819705558
  0
ARC
  5
A0F
330
1F
100
AcDbEntity
  8
ceco.net 147
100
AcDbCircle
 10
301.7764753021183
 20
1219.50779268716
 30
0.0
 40
12.03279557301248
100
AcDbArc
 50
49.25360533767936
 51
94.03749957485334
  0
ARC
  5
A10
330
1F
100
AcDbEntity
  8
ceco.net 147
100
AcDbCircle
 10
294.0768003531266
 20
1252.630028846906
 30
0.0
 40
22.20317799090098
100
AcDbArc
 50
220.6961258698012
 51
287.9763800590247
  0
ARC
  5
A11
330
1F
100
AcDbEntity
  8
ceco.net 147
100
AcDbCircle
 10
1414.081500552536
 20
919.3775824692565
 30
0.0
 40
1180.686079298833
100
AcDbArc
 50
145.9356700899675
 51
164.3362529538254
  0
ARC
  5
A12
330
1F
100
AcDbEntity
  8
ceco.net 147
100
AcDbCircle
 10
244.6363346438156
 20
1682.232356500928
 30
0.0
 40
216.6186535992785
100
AcDbArc
 50
332.0513295474869
 51
355.4661181747351
  0
ARC
  5
A13
330
1F
100
AcDbEntity
  8
ceco.net 147
100
AcDbCircle
 10
473.0228334810817
 20
1667.080142982653
 30
0.0
 40
12.60083122858157
100
AcDbArc
 50
67.32922326800822
 51
188.9999324212493
  0
LINE
  5
A14
330
1F
100
AcDbEntity
  8
ceco.net 147
100
AcDbLine
 10
477.8796406462788
 20
1678.707368439063
 30
0.0
 11
849.1134291980415
 21
1524.937298439908
 31
0.0
  0
ARC
  5
A15
330
1F
100
AcDbEntity
  8
ceco.net 147
100
AcDbCircle
 10
844.326020445791
 20
1513.281327248783
 30
0.0
 40
12.60083120151358
100
AcDbArc
 50
306.0000671975167
 51
67.67077635094576
  0
ARC
  5
A16
330
1F
100
AcDbEntity
  8
ceco.net 147
100
AcDbCircle
 10
1647.798315649095
 20
-417.7479497381718
 30
0.0
 40
216.6186536181589
100
AcDbArc
 50
72.03388194074682
 51
95.44867056802408
  0
ARC
  5
A17
330
1F
100
AcDbEntity
  8
ceco.net 147
100
AcDbCircle
 10
1390.53969363356
 20
954.6103862815071
 30
0.0
 40
1180.686078775543
100
AcDbArc
 50
263.1637470327962
 51
281.5643298966806
  0
ARC
  5
A18
330
1F
100
AcDbEntity
  8
ceco.net 147
100
AcDbCircle
 10
1269.817564864293
 20
-207.6692219531396
 30
0.0
 40
22.2031780316552
100
AcDbArc
 50
139.5236200829017
 51
206.8038742722198
  0
ARC
  5
A19
330
1F
100
AcDbEntity
  8
ceco.net 147
100
AcDbCircle
 10
1242.163146752573
 20
-187.8803188465535
 30
0.0
 40
12.03279559779516
100
AcDbArc
 50
333.4625004395366
 51
18.2463946769752
  0
ARC
  5
A1A
330
1F
100
AcDbEntity
  8
ceco.net 147
100
AcDbCircle
 10
1730.855185263091
 20
-125.2620701377745
 30
0.0
 40
480.8789745657153
100
AcDbArc
 50
180.5699180108238
 51
187.0295707019464
  0
LINE
  5
A1B
330
1F
100
AcDbEntity
  8
ceco.net 147
100
AcDbLine
 10
1250.0
 20
-130.0452683353796
 30
0.0
 11
1250.0
 21
0.0
 31
0.0
  0
LINE
  5
A1C
330
1F
100
AcDbEntity
  8
ceco.net 147
100
AcDbLine
 10
1250.0
 20
0.0
 30
0.0
 11
1250.0
 21
130.0452682771719
 31
0.0
  0
ARC
  5
A1D
330
1F
100
AcDbEntity
  8
ceco.net 147
100
AcDbCircle
 10
1730.855185263091
 20
125.2620700794504
 30
0.0
 40
480.878974565718
100
AcDbArc
 50
172.9704292980535
 51
179.4300819891761
  0
ARC
  5
A1E
330
1F
100
AcDbEntity
  8
ceco.net 147
100
AcDbCircle
 10
1242.163146752573
 20
187.8803187882294
 30
0.0
 40
12.03279559776703
100
AcDbArc
 50
341.7536053230248
 51
26.53749956046335
  0
ARC
  5
A1F
330
1F
100
AcDbEntity
  8
ceco.net 147
100
AcDbCircle
 10
1269.817564864293
 20
207.6692218948155
 30
0.0
 40
22.20317803169439
100
AcDbArc
 50
153.1961257277801
 51
220.4763799170982
  0
ARC
  5
A20
330
1F
100
AcDbEntity
  8
ceco.net 147
100
AcDbCircle
 10
1390.53969363356
 20
-954.6103863398311
 30
0.0
 40
1180.686078775537
100
AcDbArc
 50
78.43567010331932
 51
96.83625296720379
  0
ARC
  5
A21
330
1F
100
AcDbEntity
  8
ceco.net 147
100
AcDbCircle
 10
1647.798315649095
 20
417.7479496798477
 30
0.0
 40
216.6186536181651
100
AcDbArc
 50
264.5513294319759
 51
287.9661180592531
  0
ARC
  5
A22
330
1F
100
AcDbEntity
  8
ceco.net 147
100
AcDbCircle
 10
1721.199224598764
 20
200.9478367335395
 30
0.0
 40
12.60083118705263
100
AcDbArc
 50
359.8292234913147
 51
121.4999326444594
  0
LINE
  5
A23
330
1F
100
AcDbEntity
  8
ceco.net 147
100
AcDbLine
 10
1733.799999812617
 20
200.9102785959839
 30
0.0
 11
1733.799999812617
 21
-200.9102786541916
 31
0.0
  0
ARC
  5
A24
330
1F
100
AcDbEntity
  8
ceco.net 147
100
AcDbCircle
 10
1721.199224598764
 20
-200.9478367918636
 30
0.0
 40
12.60083118702086
100
AcDbArc
 50
238.5000673555405
 51
0.1707765086852604
  0
ARC
  5
A25
330
1F
100
AcDbEntity
  8
ceco.net 147
100
AcDbCircle
 10
1362.501918274152
 20
-1016.533896146225
 30
0.0
 40
216.6186539089742
100
AcDbArc
 50
49.53388195878674
 51
72.94867058608502
  0
ARC
  5
A26
330
1F
100
AcDbEntity
  8
ceco.net 147
100
AcDbCircle
 10
1650.004741410433
 20
349.8084949144395
 30
0.0
 40
1180.686079151307
100
AcDbArc
 50
240.6637470315774
 51
259.0643298954824
  0
ARC
  5
A27
330
1F
100
AcDbEntity
  8
ceco.net 147
100
AcDbCircle
 10
1093.686887428397
 20
-677.7994878909084
 30
0.0
 40
22.20317799477971
100
AcDbArc
 50
117.0236201251855
 51
184.3038743145507
  0
ARC
  5
A28
330
1F
100
AcDbEntity
  8
ceco.net 147
100
AcDbCircle
 10
1075.710421932977
 20
-648.9340376981999
 30
0.0
 40
12.03279561689113
100
AcDbArc
 50
310.9625002611967
 51
355.7463944985653
  0
ARC
  5
A29
330
1F
100
AcDbEntity
  8
ceco.net 147
100
AcDbCircle
 10
1551.165960684884
 20
-778.0966670416528
 30
0.0
 40
480.8789751262981
100
AcDbArc
 50
158.0699179079357
 51
164.5295705990827
  0
LINE
  5
A2A
330
1F
100
AcDbEntity
  8
ceco.net 147
100
AcDbLine
 10
1105.083246016874
 20
-598.500452178996
 30
0.0
 11
1154.849415645003
 21
-478.3542904770001
 31
0.0
  0
LINE
  5
A2B
330
1F
100
AcDbEntity
  8
ceco.net 147
100
AcDbLine
 10
1154.849415645003
 20
-478.3542904770001
 30
0.0
 11
1204.615585273131
 21
-358.2081287750042
 31
0.0
  0
ARC
  5
A2C
330
1F
100
AcDbEntity
  8
ceco.net 147
100
AcDbCircle
 10
1647.037398266256
 20
-546.6425410945666
 30
0.0
 40
480.8789747517557
100
AcDbArc
 50
150.4704292248749
 51
156.9300819160388
  0
ARC
  5
A2D
330
1F
100
AcDbEntity
  8
ceco.net 147
100
AcDbCircle
 10
1219.507792599965
 20
-301.7764756886754
 30
0.0
 40
12.03279550079944
100
AcDbArc
 50
319.2536063733112
 51
4.0375006106929
  0
ARC
  5
A2E
330
1F
100
AcDbEntity
  8
ceco.net 147
100
AcDbCircle
 10
1252.630028745159
 20
-294.0768005424179
 30
0.0
 40
22.20317805563661
100
AcDbArc
 50
130.6961257757776
 51
197.9763799650109
  0
ARC
  5
A2F
330
1F
100
AcDbEntity
  8
ceco.net 147
100
AcDbCircle
 10
919.3775825326447
 20
-1414.081500639906
 30
0.0
 40
1180.686079222353
100
AcDbArc
 50
55.93567009798173
 51
74.33625296186029
  0
ARC
  5
A30
330
1F
100
AcDbEntity
  8
ceco.net 147
100
AcDbCircle
 10
1682.232356864144
 20
-244.6363345084246
 30
0.0
 40
216.618653995053
100
AcDbArc
 50
242.0513294594174
 51
265.4661180867062
  0
ARC
  5
A31
330
1F
100
AcDbEntity
  8
ceco.net 147
100
AcDbCircle
 10
1667.080143015308
 20
-473.0228336557047
 30
0.0
 40
12.60083117623301
100
AcDbArc
 50
337.3292234555048
 51
98.99993260862565
  0
LINE
  5
A32
330
1F
100
AcDbEntity
  8
ceco.net 147
100
AcDbLine
 10
1678.707368439063
 20
-477.8796407626941
 30
0.0
 11
1524.937298381701
 21
-849.1134293144568
 31
0.0
  0
ARC
  5
A33
330
1F
100
AcDbEntity
  8
ceco.net 147
100
AcDbCircle
 10
1513.281327187258
 20
-844.3260206365957
 30
0.0
 40
12.60083117634617
100
AcDbArc
 50
216.0000675165672
 51
337.670776669736
  0
ARC
  5
A34
330
1F
100
AcDbEntity
  8
ceco.net 147
100
AcDbCircle
 10
1460.56177115289
 20
869.7769549830118
 30
0.0
 40
216.6186537541715
100
AcDbArc
 50
117.0338819542971
 51
140.4486705815735
  0
ARC
  5
A35
330
1F
100
AcDbEntity
  8
ceco.net 147
100
AcDbCircle
 10
308.2485689331661
 20
1658.271524443756
 30
0.0
 40
1180.686079009743
100
AcDbArc
 50
308.1637470436654
 51
326.5643299075359
  0
ARC
  5
A36
330
1F
100
AcDbEntity
  8
ceco.net 147
100
AcDbCircle
 10
1044.740926050173
 20
751.0522959026275
 30
0.0
 40
22.20317806719544
100
AcDbArc
 50
184.5236199215247
 51
251.8038741108084
  0
ARC
  5
A37
330
1F
100
AcDbEntity
  8
ceco.net 147
100
AcDbCircle
 10
1011.193431939871
 20
745.4905370170017
 30
0.0
 40
12.0327955001222
100
AcDbArc
 50
18.46250033143102
 51
63.24639456865718
  0
ARC
  5
A38
330
1F
100
AcDbEntity
  8
ceco.net 147
100
AcDbCircle
 10
1312.473097664304
 20
1135.325781441875
 30
0.0
 40
480.8789758682883
100
AcDbArc
 50
225.5699181782975
 51
232.0295708694262
  0
LINE
  5
A39
330
1F
100
AcDbEntity
  8
ceco.net 147
100
AcDbLine
 10
975.8393673691898
 20
791.9275853782892
 30
0.0
 11
883.8834764901548
 21
883.8834764901548
 31
0.0
  0
LINE
  5
A3A
330
1F
100
AcDbEntity
  8
ceco.net 147
100
AcDbLine
 10
883.8834764901548
 20
883.8834764901548
 30
0.0
 11
791.9275853782892
 21
975.8393675438128
 31
0.0
  0
ARC
  5
A3B
330
1F
100
AcDbEntity
  8
ceco.net 147
100
AcDbCircle
 10
1135.325779836508
 20
1312.473098782938
 30
0.0
 40
480.8789753827591
100
AcDbArc
 50
217.9704293448123
 51
224.4300820359257
  0
ARC
  5
A3C
330
1F
100
AcDbEntity
  8
ceco.net 147
100
AcDbCircle
 10
745.490536830097
 20
1011.193431968917
 30
0.0
 40
12.03279555004347
100
AcDbArc
 50
26.75360515603482
 51
71.53749939351481
  0
ARC
  5
A3D
330
1F
100
AcDbEntity
  8
ceco.net 147
100
AcDbCircle
 10
751.0522957863286
 20
1044.740926108323
 30
0.0
 40
22.20317806720549
100
AcDbArc
 50
198.1961258892162
 51
265.4763800784753
  0
ARC
  5
A3E
330
1F
100
AcDbEntity
  8
ceco.net 147
100
AcDbCircle
 10
1658.271524565294
 20
308.2485686610453
 30
0.0
 40
1180.686079400924
100
AcDbArc
 50
123.4356700869862
 51
141.8362529508775
  0
ARC
  5
A3F
330
1F
100
AcDbEntity
  8
ceco.net 147
100
AcDbCircle
 10
869.7769547554198
 20
1460.561770876986
 30
0.0
 40
216.6186535967035
100
AcDbArc
 50
309.5513295309347
 51
332.9661181582086
  0
ARC
  5
A40
330
1F
100
AcDbEntity
  8
ceco.net 147
100
AcDbCircle
 10
1074.980065462819
 20
1359.163221622235
 30
0.0
 40
12.60083125990362
100
AcDbArc
 50
44.82922340693597
 51
166.4999325604681
  0
LINE
  5
A41
330
1F
100
AcDbEntity
  8
ceco.net 147
100
AcDbLine
 10
1083.91671674326
 20
1368.046757648698
 30
0.0
 11
1368.046757532283
 21
1083.916716801468
 31
0.0
  0
ARC
  5
A42
330
1F
100
AcDbEntity
  8
ceco.net 147
100
AcDbCircle
 10
1359.163221509312
 20
1074.980065595475
 30
0.0
 40
12.60083120471609
100
AcDbArc
 50
283.5000672118504
 51
45.17077636514291
  0
ARC
  5
A43
330
1F
100
AcDbEntity
  8
ceco.net 147
100
AcDbCircle
 10
1682.232356864144
 20
244.6363344501005
 30
0.0
 40
216.6186539950581
100
AcDbArc
 50
94.53388191329375
 51
117.9486705405826
  0
ARC
  5
A44
330
1F
100
AcDbEntity
  8
ceco.net 147
100
AcDbCircle
 10
919.3775827123317
 20
1414.081500610685
 30
0.0
 40
1180.686079145815
100
AcDbArc
 50
285.6637470301228
 51
304.0643298940256
  0
ARC
  5
A45
330
1F
100
AcDbEntity
  8
ceco.net 147
100
AcDbCircle
 10
1252.630028701445
 20
294.0768005131976
 30
0.0
 40
22.20317800508252
100
AcDbArc
 50
162.0236200715317
 51
229.3038742608765
  0
ARC
  5
A46
330
1F
100
AcDbEntity
  8
ceco.net 147
100
AcDbCircle
 10
1219.507792599965
 20
301.7764756303513
 30
0.0
 40
12.03279550080271
100
AcDbArc
 50
355.962499389307
 51
40.74639362668879
  0
ARC
  5
A47
330
1F
100
AcDbEntity
  8
ceco.net 147
100
AcDbCircle
 10
1647.037398781976
 20
546.6425410654628
 30
0.0
 40
480.8789752148462
100
AcDbArc
 50
203.0699180567146
 51
209.5295707478684
  0
LINE
  5
A48
330
1F
100
AcDbEntity
  8
ceco.net 147
100
AcDbLine
 10
1204.615585273131
 20
358.2081287750042
 30
0.0
 11
1154.849415645003
 21
478.3542904187925
 31
0.0
  0
LINE
  5
A49
330
1F
100
AcDbEntity
  8
ceco.net 147
100
AcDbLine
 10
1154.849415645003
 20
478.3542904187925
 30
0.0
 11
1105.083246016874
 21
598.5004521207883
 31
0.0
  0
ARC
  5
A4A
330
1F
100
AcDbEntity
  8
ceco.net 147
100
AcDbCircle
 10
1551.165960684884
 20
778.0966669833287
 30
0.0
 40
480.8789751262994
100
AcDbArc
 50
195.4704294009172
 51
201.9300820920642
  0
ARC
  5
A4B
330
1F
100
AcDbEntity
  8
ceco.net 147
100
AcDbCircle
 10
1075.710421932977
 20
648.9340376398758
 30
0.0
 40
12.03279561687025
100
AcDbArc
 50
4.253605501434662
 51
49.03749973880323
  0
ARC
  5
A4C
330
1F
100
AcDbEntity
  8
ceco.net 147
100
AcDbCircle
 10
1093.686887428397
 20
677.7994878325844
 30
0.0
 40
22.20317799477852
100
AcDbArc
 50
175.6961256854492
 51
242.9763798748144
  0
ARC
  5
A4D
330
1F
100
AcDbEntity
  8
ceco.net 147
100
AcDbCircle
 10
1650.004741410433
 20
-349.8084949726471
 30
0.0
 40
1180.686079151308
100
AcDbArc
 50
100.9356701045176
 51
119.3362529684225
  0
ARC
  5
A4E
330
1F
100
AcDbEntity
  8
ceco.net 147
100
AcDbCircle
 10
1362.501918274152
 20
1016.533896087901
 30
0.0
 40
216.6186539089915
100
AcDbArc
 50
287.0513294139149
 51
310.4661180412132
  0
ARC
  5
A4F
330
1F
100
AcDbEntity
  8
ceco.net 147
100
AcDbCircle
 10
1513.281327203498
 20
844.3260206073755
 30
0.0
 40
12.60083117237782
100
AcDbArc
 50
22.32922348067395
 51
143.9999326337774
  0
LINE
  5
A50
330
1F
100
AcDbEntity
  8
ceco.net 147
100
AcDbLine
 10
1524.937298381701
 20
849.1134293144568
 30
0.0
 11
1678.707368439063
 21
477.8796407044865
 31
0.0
  0
ARC
  5
A51
330
1F
100
AcDbEntity
  8
ceco.net 147
100
AcDbCircle
 10
1667.080143015308
 20
473.022833597497
 30
0.0
 40
12.60083117617874
100
AcDbArc
 50
261.0000673913743
 51
22.67077654449516
  0
ARC
  5
A52
330
1F
100
AcDbEntity
  8
ceco.net 147
100
AcDbCircle
 10
-1682.232357096916
 20
-244.6363345084246
 30
0.0
 40
216.6186539950581
100
AcDbArc
 50
274.5338819132937
 51
297.9486705405826
  0
ARC
  5
A53
330
1F
100
AcDbEntity
  8
ceco.net 147
100
AcDbCircle
 10
-919.3775827654171
 20
-1414.081500639906
 30
0.0
 40
1180.686079222349
100
AcDbArc
 50
105.6637470381396
 51
124.0643299020182
  0
ARC
  5
A54
330
1F
100
AcDbEntity
  8
ceco.net 147
100
AcDbCircle
 10
-1252.630028977931
 20
-294.0768005424179
 30
0.0
 40
22.20317805568814
100
AcDbArc
 50
342.023620034989
 51
49.30387422422231
  0
ARC
  5
A55
330
1F
100
AcDbEntity
  8
ceco.net 147
100
AcDbCircle
 10
-1219.507792716322
 20
-301.7764754061354
 30
0.0
 40
12.03279559703763
100
AcDbArc
 50
175.9625007702161
 51
220.746395007648
  0
ARC
  5
A56
330
1F
100
AcDbEntity
  8
ceco.net 147
100
AcDbCircle
 10
-1647.037398266198
 20
-546.6425410945666
 30
0.0
 40
480.8789747517553
100
AcDbArc
 50
23.06991808396114
 51
29.52957077512504
  0
LINE
  5
A57
330
1F
100
AcDbEntity
  8
ceco.net 147
100
AcDbLine
 10
-1204.615585273131
 20
-358.2081287750042
 30
0.0
 11
-1154.849415645003
 21
-478.3542904770001
 31
0.0
  0
LINE
  5
A58
330
1F
100
AcDbEntity
  8
ceco.net 147
100
AcDbLine
 10
-1154.849415645003
 20
-478.3542904770001
 30
0.0
 11
-1105.083246016874
 21
-598.500452178996
 31
0.0
  0
ARC
  5
A59
330
1F
100
AcDbEntity
  8
ceco.net 147
100
AcDbCircle
 10
-1551.165960801241
 20
-778.0966649786569
 30
0.0
 40
480.8789744638267
100
AcDbArc
 50
15.47042916771944
 51
21.93008185888611
  0
ARC
  5
A5A
330
1F
100
AcDbEntity
  8
ceco.net 147
100
AcDbCircle
 10
-1075.71042216575
 20
-648.9340376981999
 30
0.0
 40
12.03279561687025
100
AcDbArc
 50
184.2536055014346
 51
229.0374997388032
  0
ARC
  5
A5B
330
1F
100
AcDbEntity
  8
ceco.net 147
100
AcDbCircle
 10
-1093.686887661169
 20
-677.7994878909084
 30
0.0
 40
22.20317799477852
100
AcDbArc
 50
355.6961256854492
 51
62.97637987481444
  0
ARC
  5
A5C
330
1F
100
AcDbEntity
  8
ceco.net 147
100
AcDbCircle
 10
-1650.004741643206
 20
349.8084949144395
 30
0.0
 40
1180.686079151308
100
AcDbArc
 50
280.9356701045176
 51
299.3362529684225
  0
ARC
  5
A5D
330
1F
100
AcDbEntity
  8
ceco.net 147
100
AcDbCircle
 10
-1362.501918506925
 20
-1016.533896146225
 30
0.0
 40
216.6186539089915
100
AcDbArc
 50
107.0513294139149
 51
130.4661180412132
  0
ARC
  5
A5E
330
1F
100
AcDbEntity
  8
ceco.net 147
100
AcDbCircle
 10
-1513.28132742003
 20
-844.3260206365957
 30
0.0
 40
12.60083117637829
100
AcDbArc
 50
202.3292233302639
 51
323.9999324834327
  0
LINE
  5
A5F
330
1F
100
AcDbEntity
  8
ceco.net 147
100
AcDbLine
 10
-1524.937298614531
 20
-849.1134293144568
 30
0.0
 11
-1678.707368671894
 21
-477.8796407626941
 31
0.0
  0
ARC
  5
A60
330
1F
100
AcDbEntity
  8
ceco.net 147
100
AcDbCircle
 10
-1667.08014324808
 20
-473.0228336557047
 30
0.0
 40
12.60083117617874
100
AcDbArc
 50
81.00006739137432
 51
202.6707765444951
  0
ARC
  5
A61
330
1F
100
AcDbEntity
  8
ceco.net 147
100
AcDbCircle
 10
-1647.798315881868
 20
417.7479496798477
 30
0.0
 40
216.6186536181589
100
AcDbArc
 50
252.0338819407467
 51
275.4486705680241
  0
ARC
  5
A62
330
1F
100
AcDbEntity
  8
ceco.net 147
100
AcDbCircle
 10
-1390.539693749917
 20
-954.6103870585794
 30
0.0
 40
1180.686079503019
100
AcDbArc
 50
83.16374703132886
 51
101.5643298952244
  0
ARC
  5
A63
330
1F
100
AcDbEntity
  8
ceco.net 147
100
AcDbCircle
 10
-1269.81756498065
 20
207.6692220697878
 30
0.0
 40
22.20317805666441
100
AcDbArc
 50
319.5236195444488
 51
26.80387373375557
  0
ARC
  5
A64
330
1F
100
AcDbEntity
  8
ceco.net 147
100
AcDbCircle
 10
-1242.163146985345
 20
187.8803187882294
 30
0.0
 40
12.03279559779516
100
AcDbArc
 50
153.4625004395366
 51
198.2463946769751
  0
ARC
  5
A65
330
1F
100
AcDbEntity
  8
ceco.net 147
100
AcDbCircle
 10
-1730.855185379448
 20
125.262068016571
 30
0.0
 40
480.8789747026436
100
AcDbArc
 50
0.5699182564836139
 51
7.029570947613835
  0
LINE
  5
A66
330
1F
100
AcDbEntity
  8
ceco.net 147
100
AcDbLine
 10
-1250.0
 20
130.0452682771719
 30
0.0
 11
-1250.0
 21
0.0
 31
0.0
  0
LINE
  5
A67
330
1F
100
AcDbEntity
  8
ceco.net 147
100
AcDbLine
 10
-1250.0
 20
0.0
 30
0.0
 11
-1250.0
 21
-130.0452683353796
 31
0.0
  0
ARC
  5
A68
330
1F
100
AcDbEntity
  8
ceco.net 147
100
AcDbCircle
 10
-1730.855185379448
 20
-125.262068074895
 30
0.0
 40
480.8789747026473
100
AcDbArc
 50
352.9704290523861
 51
359.4300817435164
  0
ARC
  5
A69
330
1F
100
AcDbEntity
  8
ceco.net 147
100
AcDbCircle
 10
-1242.163146985345
 20
-187.8803188465535
 30
0.0
 40
12.03279559776703
100
AcDbArc
 50
161.7536053230248
 51
206.5374995604633
  0
ARC
  5
A6A
330
1F
100
AcDbEntity
  8
ceco.net 147
100
AcDbCircle
 10
-1269.81756498065
 20
-207.6692221281118
 30
0.0
 40
22.20317805671553
100
AcDbArc
 50
333.1961262662444
 51
40.47638045555114
  0
ARC
  5
A6B
330
1F
100
AcDbEntity
  8
ceco.net 147
100
AcDbCircle
 10
-1390.539693749917
 20
954.6103870002552
 30
0.0
 40
1180.686079503012
100
AcDbArc
 50
258.4356701047755
 51
276.8362529686711
  0
ARC
  5
A6C
330
1F
100
AcDbEntity
  8
ceco.net 147
100
AcDbCircle
 10
-1647.798315881868
 20
-417.7479497381718
 30
0.0
 40
216.6186536181651
100
AcDbArc
 50
84.55132943197588
 51
107.9661180592531
  0
ARC
  5
A6D
330
1F
100
AcDbEntity
  8
ceco.net 147
100
AcDbCircle
 10
-1721.199224831536
 20
-200.9478367918636
 30
0.0
 40
12.60083118705263
100
AcDbArc
 50
179.8292234913147
 51
301.4999326444594
  0
LINE
  5
A6E
330
1F
100
AcDbEntity
  8
ceco.net 147
100
AcDbLine
 10
-1733.800000045448
 20
-200.9102786541916
 30
0.0
 11
-1733.800000045448
 21
200.9102785959839
 31
0.0
  0
ARC
  5
A6F
330
1F
100
AcDbEntity
  8
ceco.net 147
100
AcDbCircle
 10
-1721.199224831536
 20
200.9478367335395
 30
0.0
 40
12.60083118702086
100
AcDbArc
 50
58.5000673555405
 51
180.1707765086852
  0
ARC
  5
A70
330
1F
100
AcDbEntity
  8
ceco.net 147
100
AcDbCircle
 10
-869.7769549881924
 20
1460.561770876986
 30
0.0
 40
216.6186535967095
100
AcDbArc
 50
207.0338818417913
 51
230.4486704690652
  0
ARC
  5
A71
330
1F
100
AcDbEntity
  8
ceco.net 147
100
AcDbCircle
 10
-1658.271524798067
 20
308.2485686610453
 30
0.0
 40
1180.686079400932
100
AcDbArc
 50
38.16374704912244
 51
56.56432991301372
  0
ARC
  5
A72
330
1F
100
AcDbEntity
  8
ceco.net 147
100
AcDbCircle
 10
-751.0522960191011
 20
1044.740926108323
 30
0.0
 40
22.20317806719544
100
AcDbArc
 50
274.5236199215247
 51
341.8038741107837
  0
ARC
  5
A73
330
1F
100
AcDbEntity
  8
ceco.net 147
100
AcDbCircle
 10
-745.4905370628694
 20
1011.193431968917
 30
0.0
 40
12.03279555003191
100
AcDbArc
 50
108.4625006064851
 51
153.2463948439651
  0
ARC
  5
A74
330
1F
100
AcDbEntity
  8
ceco.net 147
100
AcDbCircle
 10
-1135.32578006928
 20
1312.473098782938
 30
0.0
 40
480.878975382764
100
AcDbArc
 50
315.5699179640742
 51
322.0295706551876
  0
LINE
  5
A75
330
1F
100
AcDbEntity
  8
ceco.net 147
100
AcDbLine
 10
-791.9275856111198
 20
975.8393675438128
 30
0.0
 11
-883.8834764901548
 21
883.8834764901548
 31
0.0
  0
LINE
  5
A76
330
1F
100
AcDbEntity
  8
ceco.net 147
100
AcDbLine
 10
-883.8834764901548
 20
883.8834764901548
 30
0.0
 11
-975.8393676020205
 21
791.9275853782892
 31
0.0
  0
ARC
  5
A77
330
1F
100
AcDbEntity
  8
ceco.net 147
100
AcDbCircle
 10
-1312.473097897076
 20
1135.325781441875
 30
0.0
 40
480.8789758682892
100
AcDbArc
 50
307.9704291305738
 51
314.4300818217024
  0
ARC
  5
A78
330
1F
100
AcDbEntity
  8
ceco.net 147
100
AcDbCircle
 10
-1011.193432172643
 20
745.4905370170017
 30
0.0
 40
12.03279550012839
100
AcDbArc
 50
116.7536054313428
 51
161.5374996685689
  0
ARC
  5
A79
330
1F
100
AcDbEntity
  8
ceco.net 147
100
AcDbCircle
 10
-1044.740926282946
 20
751.0522959026275
 30
0.0
 40
22.20317806720549
100
AcDbArc
 50
288.1961258891914
 51
355.4763800784753
  0
ARC
  5
A7A
330
1F
100
AcDbEntity
  8
ceco.net 147
100
AcDbCircle
 10
-308.2485691659385
 20
1658.271524443756
 30
0.0
 40
1180.686079009732
100
AcDbArc
 50
213.435670092464
 51
231.8362529563345
  0
ARC
  5
A7B
330
1F
100
AcDbEntity
  8
ceco.net 147
100
AcDbCircle
 10
-1460.561771385662
 20
869.7769549830118
 30
0.0
 40
216.6186537541682
100
AcDbArc
 50
39.55132941842641
 51
62.96611804570283
  0
ARC
  5
A7C
330
1F
100
AcDbEntity
  8
ceco.net 147
100
AcDbCircle
 10
-1359.163221742084
 20
1074.980065595475
 30
0.0
 40
12.60083120474098
100
AcDbArc
 50
134.829223634857
 51
256.4999327881495
  0
LINE
  5
A7D
330
1F
100
AcDbEntity
  8
ceco.net 147
100
AcDbLine
 10
-1368.046757765114
 20
1083.916716801468
 30
0.0
 11
-1083.916716976091
 21
1368.046757648698
 31
0.0
  0
ARC
  5
A7E
330
1F
100
AcDbEntity
  8
ceco.net 147
100
AcDbCircle
 10
-1074.980065695592
 20
1359.163221622235
 30
0.0
 40
12.60083125989181
100
AcDbArc
 50
13.50006743953184
 51
135.170776593064
  0
ARC
  5
A7F
330
1F
100
AcDbEntity
  8
ceco.net 147
100
AcDbCircle
 10
-1362.501918506925
 20
1016.533896087901
 30
0.0
 40
216.6186539089742
100
AcDbArc
 50
229.5338819587867
 51
252.948670586085
  0
ARC
  5
A80
330
1F
100
AcDbEntity
  8
ceco.net 147
100
AcDbCircle
 10
-1650.004741643206
 20
-349.8084949726471
 30
0.0
 40
1180.686079151307
100
AcDbArc
 50
60.66374703157746
 51
79.06432989548237
  0
ARC
  5
A81
330
1F
100
AcDbEntity
  8
ceco.net 147
100
AcDbCircle
 10
-1093.686887661169
 20
677.7994878325844
 30
0.0
 40
22.20317799477971
100
AcDbArc
 50
297.0236201251855
 51
4.303874314550748
  0
ARC
  5
A82
330
1F
100
AcDbEntity
  8
ceco.net 147
100
AcDbCircle
 10
-1075.71042216575
 20
648.9340376398758
 30
0.0
 40
12.03279561689113
100
AcDbArc
 50
130.9625002611967
 51
175.7463944985653
  0
ARC
  5
A83
330
1F
100
AcDbEntity
  8
ceco.net 147
100
AcDbCircle
 10
-1551.165960801241
 20
778.0966649203328
 30
0.0
 40
480.8789744638243
100
AcDbArc
 50
338.0699181411139
 51
344.5295708322805
  0
LINE
  5
A84
330
1F
100
AcDbEntity
  8
ceco.net 147
100
AcDbLine
 10
-1105.083246016874
 20
598.5004521207883
 30
0.0
 11
-1154.849415645003
 21
478.3542904187925
 31
0.0
  0
LINE
  5
A85
330
1F
100
AcDbEntity
  8
ceco.net 147
100
AcDbLine
 10
-1154.849415645003
 20
478.3542904187925
 30
0.0
 11
-1204.615585273131
 21
358.2081287750042
 31
0.0
  0
ARC
  5
A86
330
1F
100
AcDbEntity
  8
ceco.net 147
100
AcDbCircle
 10
-1647.037398781918
 20
546.6425410654628
 30
0.0
 40
480.8789752148464
100
AcDbArc
 50
330.4704292521315
 51
336.9300819432853
  0
ARC
  5
A87
330
1F
100
AcDbEntity
  8
ceco.net 147
100
AcDbCircle
 10
-1219.507792716322
 20
301.7764753478113
 30
0.0
 40
12.03279559700134
100
AcDbArc
 50
139.2536049923519
 51
184.0374992297839
  0
ARC
  5
A88
330
1F
100
AcDbEntity
  8
ceco.net 147
100
AcDbCircle
 10
-1252.630028934218
 20
294.0768005131976
 30
0.0
 40
22.20317800502166
100
AcDbArc
 50
310.6961257391233
 51
17.97637992846827
  0
ARC
  5
A89
330
1F
100
AcDbEntity
  8
ceco.net 147
100
AcDbCircle
 10
-919.3775829451041
 20
1414.081500610685
 30
0.0
 40
1180.686079145817
100
AcDbArc
 50
235.9356701059743
 51
254.3362529698771
  0
ARC
  5
A8A
330
1F
100
AcDbEntity
  8
ceco.net 147
100
AcDbCircle
 10
-1682.232357096916
 20
244.6363344501005
 30
0.0
 40
216.618653995053
100
AcDbArc
 50
62.05132945941738
 51
85.46611808670624
  0
ARC
  5
A8B
330
1F
100
AcDbEntity
  8
ceco.net 147
100
AcDbCircle
 10
-1667.08014324808
 20
473.022833597497
 30
0.0
 40
12.60083117623301
100
AcDbArc
 50
157.3292234555048
 51
278.9999326086256
  0
LINE
  5
A8C
330
1F
100
AcDbEntity
  8
ceco.net 147
100
AcDbLine
 10
-1678.707368671894
 20
477.8796407044865
 30
0.0
 11
-1524.937298614531
 21
849.1134293144568
 31
0.0
  0
ARC
  5
A8D
330
1F
100
AcDbEntity
  8
ceco.net 147
100
AcDbCircle
 10
-1513.28132743627
 20
844.3260206073755
 30
0.0
 40
12.60083117241792
100
AcDbArc
 50
36.00006736622258
 51
157.670776519326
  0
ARC
  5
A8E
330
1F
100
AcDbEntity
  8
ceco.net 147
100
AcDbCircle
 10
-244.6363347601727
 20
1682.232357062632
 30
0.0
 40
216.6186537597297
100
AcDbArc
 50
184.5338819709519
 51
207.9486705982075
  0
ARC
  5
A8F
330
1F
100
AcDbEntity
  8
ceco.net 147
100
AcDbCircle
 10
-1414.081500668893
 20
919.3775831880047
 30
0.0
 40
1180.6860789927
100
AcDbArc
 50
15.66374701407825
 51
34.06432987800433
  0
ARC
  5
A90
330
1F
100
AcDbEntity
  8
ceco.net 147
100
AcDbCircle
 10
-294.076800585899
 20
1252.630028846906
 30
0.0
 40
22.20317799091161
100
AcDbArc
 50
252.0236199409752
 51
319.3038741301987
  0
ARC
  5
A91
330
1F
100
AcDbEntity
  8
ceco.net 147
100
AcDbCircle
 10
-301.7764755348907
 20
1219.50779268716
 30
0.0
 40
12.0327955730336
100
AcDbArc
 50
85.96250042514665
 51
130.7463946623206
  0
ARC
  5
A92
330
1F
100
AcDbEntity
  8
ceco.net 147
100
AcDbCircle
 10
-546.642541210982
 20
1647.03739929758
 30
0.0
 40
480.8789756779371
100
AcDbArc
 50
293.0699180294441
 51
299.5295707205762
  0
LINE
  5
A93
330
1F
100
AcDbEntity
  8
ceco.net 147
100
AcDbLine
 10
-358.2081289496272
 20
1204.615585273131
 30
0.0
 11
-478.3542905934154
 21
1154.849415645003
 31
0.0
  0
LINE
  5
A94
330
1F
100
AcDbEntity
  8
ceco.net 147
100
AcDbLine
 10
-478.3542905934154
 20
1154.849415645003
 30
0.0
 11
-598.5004522372037
 21
1105.083245958667
 31
0.0
  0
ARC
  5
A95
330
1F
100
AcDbEntity
  8
ceco.net 147
100
AcDbCircle
 10
-778.0966655816882
 20
1551.165961229591
 30
0.0
 40
480.878975118736
100
AcDbArc
 50
285.4704292062661
 51
291.9300818974281
  0
ARC
  5
A96
330
1F
100
AcDbEntity
  8
ceco.net 147
100
AcDbCircle
 10
-648.9340378561173
 20
1075.710422149044
 30
0.0
 40
12.03279551435953
100
AcDbArc
 50
94.25360533934313
 51
139.0374995766032
  0
ARC
  5
A97
330
1F
100
AcDbEntity
  8
ceco.net 147
100
AcDbCircle
 10
-677.7994880656478
 20
1093.686887588468
 30
0.0
 40
22.20317809207533
100
AcDbArc
 50
265.6961258554419
 51
332.9763800446855
  0
ARC
  5
A98
330
1F
100
AcDbEntity
  8
ceco.net 147
100
AcDbCircle
 10
349.80849485629
 20
1650.004741109209
 30
0.0
 40
1180.686079025986
100
AcDbArc
 50
190.9356700879308
 51
209.3362529518336
  0
ARC
  5
A99
330
1F
100
AcDbEntity
  8
ceco.net 147
100
AcDbCircle
 10
-1016.533896005654
 20
1362.501918303198
 30
0.0
 40
216.6186537832398
100
AcDbArc
 50
17.05132943219567
 51
40.46611805943581
  0
ARC
  5
A9A
330
1F
100
AcDbEntity
  8
ceco.net 147
100
AcDbCircle
 10
-844.3260206785634
 20
1513.281327248783
 30
0.0
 40
12.60083120149118
100
AcDbArc
 50
112.3292236490542
 51
233.9999328024832
  0
LINE
  5
A9B
330
1F
100
AcDbEntity
  8
ceco.net 147
100
AcDbLine
 10
-849.1134294308722
 20
1524.937298439908
 30
0.0
 11
-477.8796408791095
 21
1678.707368439063
 31
0.0
  0
ARC
  5
A9C
330
1F
100
AcDbEntity
  8
ceco.net 147
100
AcDbCircle
 10
-473.0228337138542
 20
1667.080142982653
 30
0.0
 40
12.60083122863814
100
AcDbArc
 50
351.0000675787505
 51
112.6707767319917
  0
ARC
  5
A9D
330
1F
100
AcDbEntity
  8
ceco.net 147
100
AcDbCircle
 10
-417.7479499658802
 20
-1647.798315993277
 30
0.0
 40
216.6186537451781
100
AcDbArc
 50
342.0338819825959
 51
5.448670609876509
  0
ARC
  5
A9E
330
1F
100
AcDbEntity
  8
ceco.net 147
100
AcDbCircle
 10
954.6103867333732
 20
-1390.539693900616
 30
0.0
 40
1180.686079313631
100
AcDbArc
 50
173.1637470228519
 51
191.5643298867624
  0
ARC
  5
A9F
330
1F
100
AcDbEntity
  8
ceco.net 147
100
AcDbCircle
 10
-207.6692220841068
 20
-1269.817564849625
 30
0.0
 40
22.2031779857804
100
AcDbArc
 50
49.52361993224353
 51
116.8038741214973
  0
ARC
  5
AA0
330
1F
100
AcDbEntity
  8
ceco.net 147
100
AcDbCircle
 10
-187.8803188632009
 20
-1242.163146769162
 30
0.0
 40
12.03279567956647
100
AcDbArc
 50
243.4625001033241
 51
288.2463943405277
  0
ARC
  5
AA1
330
1F
100
AcDbEntity
  8
ceco.net 147
100
AcDbCircle
 10
-125.2620691934716
 20
-1730.855184805696
 30
0.0
 40
480.8789741188175
100
AcDbArc
 50
90.56991813771864
 51
97.02957082887316
  0
LINE
  5
AA2
330
1F
100
AcDbEntity
  8
ceco.net 147
100
AcDbLine
 10
-130.0452684517949
 20
-1250.0
 30
0.0
 11
0.0
 21
-1250.0
 31
0.0
  0
LINE
  5
AA3
330
1F
100
AcDbEntity
  8
ceco.net 147
100
AcDbLine
 10
0.0
 20
-1250.0
 30
0.0
 11
130.0452682189643
 21
-1250.0
 31
0.0
  0
ARC
  5
AA4
330
1F
100
AcDbEntity
  8
ceco.net 147
100
AcDbCircle
 10
125.2620689606992
 20
-1730.855184805696
 30
0.0
 40
480.8789741188147
100
AcDbArc
 50
82.97042917112683
 51
89.43008186228134
  0
ARC
  5
AA5
330
1F
100
AcDbEntity
  8
ceco.net 147
100
AcDbCircle
 10
187.8803186304285
 20
-1242.163146769162
 30
0.0
 40
12.03279567957269
100
AcDbArc
 50
251.7536056594722
 51
296.5374998966758
  0
ARC
  5
AA6
330
1F
100
AcDbEntity
  8
ceco.net 147
100
AcDbCircle
 10
207.6692218513344
 20
-1269.817564849625
 30
0.0
 40
22.20317798578791
100
AcDbArc
 50
63.19612587850265
 51
130.4763800677564
  0
ARC
  5
AA7
330
1F
100
AcDbEntity
  8
ceco.net 147
100
AcDbCircle
 10
-954.6103869661456
 20
-1390.539693900616
 30
0.0
 40
1180.686079313641
100
AcDbArc
 50
348.4356701132375
 51
6.836252977148054
  0
ARC
  5
AA8
330
1F
100
AcDbEntity
  8
ceco.net 147
100
AcDbCircle
 10
417.7479497331078
 20
-1647.798315993277
 30
0.0
 40
216.6186537451701
100
AcDbArc
 50
174.5513293901234
 51
197.966118017404
  0
ARC
  5
AA9
330
1F
100
AcDbEntity
  8
ceco.net 147
100
AcDbCircle
 10
200.9478366754483
 20
-1721.199224864132
 30
0.0
 40
12.60083115436265
100
AcDbArc
 50
269.8292237552802
 51
31.4999329089209
  0
LINE
  5
AAA
330
1F
100
AcDbEntity
  8
ceco.net 147
100
AcDbLine
 10
200.9102785959839
 20
-1733.800000045448
 30
0.0
 11
-200.9102788288146
 21
-1733.800000045448
 31
0.0
  0
ARC
  5
AAB
330
1F
100
AcDbEntity
  8
ceco.net 147
100
AcDbCircle
 10
-200.9478369082208
 20
-1721.199224864132
 30
0.0
 40
12.60083115433324
100
AcDbArc
 50
148.500067091079
 51
270.1707762447197
  0
ARC
  5
AAC
330
1F
100
AcDbEntity
  8
ceco.net 147
100
AcDbCircle
 10
-1016.533896005654
 20
-1362.501918361522
 30
0.0
 40
216.6186537832253
100
AcDbArc
 50
319.5338819405642
 51
342.9486705678043
  0
ARC
  5
AAD
330
1F
100
AcDbEntity
  8
ceco.net 147
100
AcDbCircle
 10
349.8084948563482
 20
-1650.004741167533
 30
0.0
 40
1180.686079026038
100
AcDbArc
 50
150.6637470481663
 51
169.0643299120691
  0
ARC
  5
AAE
330
1F
100
AcDbEntity
  8
ceco.net 147
100
AcDbCircle
 10
-677.7994880656478
 20
-1093.686887646792
 30
0.0
 40
22.20317809208818
100
AcDbArc
 50
27.02361995531445
 51
94.30387414455809
  0
ARC
  5
AAF
330
1F
100
AcDbEntity
  8
ceco.net 147
100
AcDbCircle
 10
-648.9340378561173
 20
-1075.710422207368
 30
0.0
 40
12.03279551435521
100
AcDbArc
 50
220.9625004233967
 51
265.7463946606569
  0
ARC
  5
AB0
330
1F
100
AcDbEntity
  8
ceco.net 147
100
AcDbCircle
 10
-778.0966655816301
 20
-1551.165961287915
 30
0.0
 40
480.8789751187186
100
AcDbArc
 50
68.06991810257177
 51
74.52957079373387
  0
LINE
  5
AB1
330
1F
100
AcDbEntity
  8
ceco.net 147
100
AcDbLine
 10
-598.5004522372037
 20
-1105.083246016874
 30
0.0
 11
-478.3542905934154
 21
-1154.849415645003
 31
0.0
  0
LINE
  5
AB2
330
1F
100
AcDbEntity
  8
ceco.net 147
100
AcDbLine
 10
-478.3542905934154
 20
-1154.849415645003
 30
0.0
 11
-358.2081289496272
 21
-1204.615585273131
 31
0.0
  0
ARC
  5
AB3
330
1F
100
AcDbEntity
  8
ceco.net 147
100
AcDbCircle
 10
-546.642541210982
 20
-1647.037399297696
 30
0.0
 40
480.8789756779372
100
AcDbArc
 50
60.47042927942373
 51
66.93008197055585
  0
ARC
  5
AB4
330
1F
100
AcDbEntity
  8
ceco.net 147
100
AcDbCircle
 10
-301.7764755348907
 20
-1219.507792687276
 30
0.0
 40
12.03279557301248
100
AcDbArc
 50
229.2536053376793
 51
274.0374995748533
  0
ARC
  5
AB5
330
1F
100
AcDbEntity
  8
ceco.net 147
100
AcDbCircle
 10
-294.076800629613
 20
-1252.630028876126
 30
0.0
 40
22.20317800509328
100
AcDbArc
 50
40.69612573932693
 51
107.9763799285258
  0
ARC
  5
AB6
330
1F
100
AcDbEntity
  8
ceco.net 147
100
AcDbCircle
 10
-1414.081500668893
 20
-919.3775832463288
 30
0.0
 40
1180.686078992691
100
AcDbArc
 50
325.9356701219956
 51
344.3362529859216
  0
ARC
  5
AB7
330
1F
100
AcDbEntity
  8
ceco.net 147
100
AcDbCircle
 10
-244.6363347601727
 20
-1682.232357120956
 30
0.0
 40
216.6186537597112
100
AcDbArc
 50
152.0513294017924
 51
175.466118029048
  0
ARC
  5
AB8
330
1F
100
AcDbEntity
  8
ceco.net 147
100
AcDbCircle
 10
-473.0228337138542
 20
-1667.080143040977
 30
0.0
 40
12.60083122858157
100
AcDbArc
 50
247.3292232680082
 51
8.999932421249379
  0
LINE
  5
AB9
330
1F
100
AcDbEntity
  8
ceco.net 147
100
AcDbLine
 10
-477.8796408791095
 20
-1678.707368497271
 30
0.0
 11
-849.1134294308722
 21
-1524.937298498116
 31
0.0
  0
ARC
  5
ABA
330
1F
100
AcDbEntity
  8
ceco.net 147
100
AcDbCircle
 10
-844.3260206785634
 20
-1513.281327307107
 30
0.0
 40
12.60083120151358
100
AcDbArc
 50
126.0000671975167
 51
247.6707763509457
  0
ARC
  5
ABB
330
1F
100
AcDbEntity
  8
ceco.net 147
100
AcDbCircle
 10
-1460.561771385662
 20
-869.7769550413358
 30
0.0
 40
216.6186537541715
100
AcDbArc
 50
297.0338819542971
 51
320.4486705815735
  0
ARC
  5
ABC
330
1F
100
AcDbEntity
  8
ceco.net 147
100
AcDbCircle
 10
-308.2485691659385
 20
-1658.271524501964
 30
0.0
 40
1180.686079009743
100
AcDbArc
 50
128.1637470436654
 51
146.5643299075359
  0
ARC
  5
ABD
330
1F
100
AcDbEntity
  8
ceco.net 147
100
AcDbCircle
 10
-1044.740926239174
 20
-751.0522959318477
 30
0.0
 40
22.20317802587908
100
AcDbArc
 50
4.523620005319113
 51
71.80387419464472
  0
ARC
  5
ABE
330
1F
100
AcDbEntity
  8
ceco.net 147
100
AcDbCircle
 10
-1011.193432102038
 20
-745.490537046222
 30
0.0
 40
12.03279555787133
100
AcDbArc
 50
198.4625000935033
 51
243.2463943308579
  0
ARC
  5
ABF
330
1F
100
AcDbEntity
  8
ceco.net 147
100
AcDbCircle
 10
-1312.473097897076
 20
-1135.325781500199
 30
0.0
 40
480.8789758682883
100
AcDbArc
 50
45.56991817829751
 51
52.0295708694262
  0
LINE
  5
AC0
330
1F
100
AcDbEntity
  8
ceco.net 147
100
AcDbLine
 10
-975.8393676020205
 20
-791.9275854364968
 30
0.0
 11
-883.8834764901548
 21
-883.8834764901548
 31
0.0
  0
LINE
  5
AC1
330
1F
100
AcDbEntity
  8
ceco.net 147
100
AcDbLine
 10
-883.8834764901548
 20
-883.8834764901548
 30
0.0
 11
-791.9275856111198
 21
-975.8393676020205
 31
0.0
  0
ARC
  5
AC2
330
1F
100
AcDbEntity
  8
ceco.net 147
100
AcDbCircle
 10
-1135.32578006928
 20
-1312.473098841262
 30
0.0
 40
480.8789753827591
100
AcDbArc
 50
37.97042934481236
 51
44.43008203592579
  0
ARC
  5
AC3
330
1F
100
AcDbEntity
  8
ceco.net 147
100
AcDbCircle
 10
-745.4905370628694
 20
-1011.193432027241
 30
0.0
 40
12.03279555004347
100
AcDbArc
 50
206.7536051560348
 51
251.5374993935147
  0
ARC
  5
AC4
330
1F
100
AcDbEntity
  8
ceco.net 147
100
AcDbCircle
 10
-751.0522960191011
 20
-1044.740926166647
 30
0.0
 40
22.20317806720549
100
AcDbArc
 50
18.19612588921621
 51
85.47638007847529
  0
ARC
  5
AC5
330
1F
100
AcDbEntity
  8
ceco.net 147
100
AcDbCircle
 10
-1658.271524798067
 20
-308.2485687192529
 30
0.0
 40
1180.686079400924
100
AcDbArc
 50
303.4356700869862
 51
321.8362529508775
  0
ARC
  5
AC6
330
1F
100
AcDbEntity
  8
ceco.net 147
100
AcDbCircle
 10
-869.7769549881924
 20
-1460.56177093531
 30
0.0
 40
216.6186535967035
100
AcDbArc
 50
129.5513295309347
 51
152.9661181582086
  0
ARC
  5
AC7
330
1F
100
AcDbEntity
  8
ceco.net 147
100
AcDbCircle
 10
-1074.980065679352
 20
-1359.163221651455
 30
0.0
 40
12.60083125088978
100
AcDbArc
 50
224.8292232610009
 51
346.4999324145368
  0
LINE
  5
AC8
330
1F
100
AcDbEntity
  8
ceco.net 147
100
AcDbLine
 10
-1083.916716976091
 20
-1368.046757648698
 30
0.0
 11
-1368.046757765114
 21
-1083.916716801468
 31
0.0
  0
ARC
  5
AC9
330
1F
100
AcDbEntity
  8
ceco.net 147
100
AcDbCircle
 10
-1359.163221758324
 20
-1074.980065624578
 30
0.0
 40
12.60083117261405
100
AcDbArc
 50
103.5000671708867
 51
225.1707763242789
  0
ARC
  5
ACA
330
1F
100
AcDbEntity
  8
ceco.net 147
100
AcDbCircle
 10
869.7769547554198
 20
-1460.56177093531
 30
0.0
 40
216.6186535967095
100
AcDbArc
 50
27.03388184179134
 51
50.4486704690653
  0
ARC
  5
ACB
330
1F
100
AcDbEntity
  8
ceco.net 147
100
AcDbCircle
 10
1658.271524565294
 20
-308.2485687192529
 30
0.0
 40
1180.686079400932
100
AcDbArc
 50
218.1637470491224
 51
236.5643299130137
  0
ARC
  5
ACC
330
1F
100
AcDbEntity
  8
ceco.net 147
100
AcDbCircle
 10
751.0522957863286
 20
-1044.740926166647
 30
0.0
 40
22.20317806719544
100
AcDbArc
 50
94.52361992152466
 51
161.8038741107837
  0
ARC
  5
ACD
330
1F
100
AcDbEntity
  8
ceco.net 147
100
AcDbCircle
 10
745.490536830097
 20
-1011.193432027241
 30
0.0
 40
12.03279555003191
100
AcDbArc
 50
288.4625006064851
 51
333.2463948439651
  0
ARC
  5
ACE
330
1F
100
AcDbEntity
  8
ceco.net 147
100
AcDbCircle
 10
1135.325779836508
 20
-1312.473098841262
 30
0.0
 40
480.878975382764
100
AcDbArc
 50
135.5699179640742
 51
142.0295706551876
  0
LINE
  5
ACF
330
1F
100
AcDbEntity
  8
ceco.net 147
100
AcDbLine
 10
791.9275853782892
 20
-975.8393676020205
 30
0.0
 11
883.8834764901548
 21
-883.8834764901548
 31
0.0
  0
LINE
  5
AD0
330
1F
100
AcDbEntity
  8
ceco.net 147
100
AcDbLine
 10
883.8834764901548
 20
-883.8834764901548
 30
0.0
 11
975.8393673691898
 21
-791.9275854364968
 31
0.0
  0
ARC
  5
AD1
330
1F
100
AcDbEntity
  8
ceco.net 147
100
AcDbCircle
 10
1312.473097664304
 20
-1135.325781500199
 30
0.0
 40
480.8789758682892
100
AcDbArc
 50
127.9704291305738
 51
134.4300818217024
  0
ARC
  5
AD2
330
1F
100
AcDbEntity
  8
ceco.net 147
100
AcDbCircle
 10
1011.193431869265
 20
-745.490537046222
 30
0.0
 40
12.03279555789738
100
AcDbArc
 50
296.753605669142
 51
341.5374999064966
  0
ARC
  5
AD3
330
1F
100
AcDbEntity
  8
ceco.net 147
100
AcDbCircle
 10
1044.740926006401
 20
-751.0522959318477
 30
0.0
 40
22.20317802586782
100
AcDbArc
 50
108.1961258053552
 51
175.4763799946808
  0
ARC
  5
AD4
330
1F
100
AcDbEntity
  8
ceco.net 147
100
AcDbCircle
 10
308.2485689331661
 20
-1658.271524501964
 30
0.0
 40
1180.686079009732
100
AcDbArc
 50
33.43567009246405
 51
51.83625295633458
  0
ARC
  5
AD5
330
1F
100
AcDbEntity
  8
ceco.net 147
100
AcDbCircle
 10
1460.56177115289
 20
-869.7769550413358
 30
0.0
 40
216.6186537541682
100
AcDbArc
 50
219.5513294184264
 51
242.9661180457028
  0
ARC
  5
AD6
330
1F
100
AcDbEntity
  8
ceco.net 147
100
AcDbCircle
 10
1359.163221525552
 20
-1074.980065624578
 30
0.0
 40
12.60083117264611
100
AcDbArc
 50
314.829223675721
 51
76.49993282911322
  0
LINE
  5
AD7
330
1F
100
AcDbEntity
  8
ceco.net 147
100
AcDbLine
 10
1368.046757532283
 20
-1083.916716801468
 30
0.0
 11
1083.91671674326
 21
-1368.046757648698
 31
0.0
  0
ARC
  5
AD8
330
1F
100
AcDbEntity
  8
ceco.net 147
100
AcDbCircle
 10
1074.980065446579
 20
-1359.163221651455
 30
0.0
 40
12.60083125090353
100
AcDbArc
 50
193.5000675854631
 51
315.1707767389991
  0
ARC
  5
AD9
330
1F
100
AcDbEntity
  8
ceco.net 147
100
AcDbCircle
 10
244.6363346438156
 20
-1682.232356559252
 30
0.0
 40
216.6186535992749
100
AcDbArc
 50
4.533881825264852
 51
27.94867045251309
  0
ARC
  5
ADA
330
1F
100
AcDbEntity
  8
ceco.net 147
100
AcDbCircle
 10
1414.081500552536
 20
-919.3775825275807
 30
0.0
 40
1180.686079298837
100
AcDbArc
 50
195.6637470461745
 51
214.0643299100324
  0
ARC
  5
ADB
330
1F
100
AcDbEntity
  8
ceco.net 147
100
AcDbCircle
 10
294.0768003968405
 20
-1252.630028876126
 30
0.0
 40
22.20317800507648
100
AcDbArc
 50
72.02362007147413
 51
139.303874260673
  0
ARC
  5
ADC
330
1F
100
AcDbEntity
  8
ceco.net 147
100
AcDbCircle
 10
301.7764753021183
 20
-1219.507792687276
 30
0.0
 40
12.0327955730336
100
AcDbArc
 50
265.9625004251466
 51
310.7463946623206
  0
ARC
  5
ADD
330
1F
100
AcDbEntity
  8
ceco.net 147
100
AcDbCircle
 10
546.6425409782096
 20
-1647.037399297696
 30
0.0
 40
480.8789756779371
100
AcDbArc
 50
113.0699180294441
 51
119.5295707205762
  0
LINE
  5
ADE
330
1F
100
AcDbEntity
  8
ceco.net 147
100
AcDbLine
 10
358.2081287167966
 20
-1204.615585273131
 30
0.0
 11
478.3542903605848
 21
-1154.849415645003
 31
0.0
  0
LINE
  5
ADF
330
1F
100
AcDbEntity
  8
ceco.net 147
100
AcDbLine
 10
478.3542903605848
 20
-1154.849415645003
 30
0.0
 11
598.500452004373
 21
-1105.083246016874
 31
0.0
  0
ARC
  5
AE0
330
1F
100
AcDbEntity
  8
ceco.net 147
100
AcDbCircle
 10
778.0966653489159
 20
-1551.165961287915
 30
0.0
 40
480.878975118736
100
AcDbArc
 50
105.4704292062661
 51
111.9300818974281
  0
ARC
  5
AE1
330
1F
100
AcDbEntity
  8
ceco.net 147
100
AcDbCircle
 10
648.9340376233449
 20
-1075.710422207368
 30
0.0
 40
12.03279551435953
100
AcDbArc
 50
274.2536053393431
 51
319.0374995766032
  0
ARC
  5
AE2
330
1F
100
AcDbEntity
  8
ceco.net 147
100
AcDbCircle
 10
677.7994878328755
 20
-1093.686887646792
 30
0.0
 40
22.20317809207533
100
AcDbArc
 50
85.6961258554419
 51
152.9763800446855
  0
ARC
  5
AE3
330
1F
100
AcDbEntity
  8
ceco.net 147
100
AcDbCircle
 10
-349.8084950890624
 20
-1650.004741167533
 30
0.0
 40
1180.686079025986
100
AcDbArc
 50
10.93567008793082
 51
29.33625295183363
  0
ARC
  5
AE4
330
1F
100
AcDbEntity
  8
ceco.net 147
100
AcDbCircle
 10
1016.533895772882
 20
-1362.501918361522
 30
0.0
 40
216.6186537832398
100
AcDbArc
 50
197.0513294321956
 51
220.4661180594358
  0
ARC
  5
AE5
330
1F
100
AcDbEntity
  8
ceco.net 147
100
AcDbCircle
 10
844.326020445791
 20
-1513.281327307107
 30
0.0
 40
12.60083120149118
100
AcDbArc
 50
292.3292236490542
 51
53.99993280248325
  0
LINE
  5
AE6
330
1F
100
AcDbEntity
  8
ceco.net 147
100
AcDbLine
 10
849.1134291980415
 20
-1524.937298498116
 30
0.0
 11
477.8796406462788
 21
-1678.707368497271
 31
0.0
  0
ARC
  5
AE7
330
1F
100
AcDbEntity
  8
ceco.net 147
100
AcDbCircle
 10
473.0228334810817
 20
-1667.080143040977
 30
0.0
 40
12.60083122863814
100
AcDbArc
 50
171.0000675787506
 51
292.6707767319917
  0
ENDSEC
  0
SECTION
  2
OBJECTS
  0
DICTIONARY
  5
C
330
0
100
AcDbDictionary
281
     1
  3
ACAD_GROUP
350
D
  3
ACAD_IMAGE_DICT
350
9F4
  3
ACAD_LAYOUT
350
1A
  3
ACAD_MLINESTYLE
350
17
  3
ACAD_PLOTSETTINGS
350
19
  3
ACAD_PLOTSTYLENAME
350
E
  3
AcDbVariableDictionary
350
115
  3
DWGPROPS
350
8E3
  0
DICTIONARY
  5
8F6
330
8F5
100
AcDbDictionary
280
     1
281
     1
  3
ACAD_XREC_ROUNDTRIP
360
8F7
  0
DICTIONARY
  5
D
102
{ACAD_REACTORS
330
C
102
}
330
C
100
AcDbDictionary
281
     1
  3
*A1
350
8FF
  0
DICTIONARY
  5
9F4
102
{ACAD_REACTORS
330
C
102
}
330
C
100
AcDbDictionary
281
     1
  3
art-museum
350
9F5
  0
DICTIONARY
  5
1A
102
{ACAD_REACTORS
330
C
102
}
330
C
100
AcDbDictionary
281
     1
  3
Layout1
350
1E
  3
Layout2
350
26
  3
Model
350
22
  0
DICTIONARY
  5
17
102
{ACAD_REACTORS
330
C
102
}
330
C
100
AcDbDictionary
281
     1
  3
Standard
350
18
  0
DICTIONARY
  5
19
102
{ACAD_REACTORS
330
C
102
}
330
C
100
AcDbDictionary
281
     1
  0
ACDBDICTIONARYWDFLT
  5
E
102
{ACAD_REACTORS
330
C
102
}
330
C
100
AcDbDictionary
281
     1
  3
Normal
350
F
100
AcDbDictionaryWithDefault
340
F
  0
DICTIONARY
  5
115
102
{ACAD_REACTORS
330
C
102
}
330
C
100
AcDbDictionary
281
     1
  3
DIMASSOC
350
117
  3
HIDETEXT
350
116
  0
XRECORD
  5
8E3
102
{ACAD_REACTORS
330
C
102
}
330
C
100
AcDbXrecord
280
     1
  1
DWGPROPS COOKIE
  2
Ceco.NET-Trees-and-Plants - T - xx . 67 . dwg
  3

  4
ceco.net
  6

  7

  8
peacosta
  9

300
=
301
=
302
=
303
=
304
=
305
=
306
=
307
=
308
=
309
=
 40
0.0450312037037037
 41
2455079.811409143
 42
2455838.656599502
  1

 90
        0
  0
XRECORD
  5
8F7
102
{ACAD_REACTORS
330
8F6
102
}
330
8F6
100
AcDbXrecord
280
     1
102
MATERIAL
340
0
  0
GROUP
  5
8FF
102
{ACAD_REACTORS
330
D
102
}
330
D
100
AcDbGroup
300
01
 70
     0
 71
     1
  0
IMAGEDEF
  5
9F5
102
{ACAD_REACTORS
330
9F4
102
}
330
9F4
100
AcDbRasterImageDef
 90
        0
  1
D:\x\art museum\art-museum.jpg
 10
1152.0
 20
1592.0
 11
0.0008680555555556
 21
0.0008680555555556
280
     1
281
     0
  0
LAYOUT
  5
1E
102
{ACAD_REACTORS
330
1A
102
}
330
1A
100
AcDbPlotSettings
  1

  2
Microsoft Office Document Image Writer
  4

  6

 40
0.0
 41
0.0
 42
0.0
 43
0.0
 44
0.0
 45
0.0
 46
0.0
 47
0.0
 48
0.0
 49
0.0
140
0.0
141
0.0
142
1.0
143
1.0
 70
   688
 72
     0
 73
     0
 74
     5
  7

 75
    16
147
1.0
148
0.0
149
0.0
100
AcDbLayout
  1
Layout1
 70
     1
 71
     1
 10
0.0
 20
0.0
 11
420.0
 21
297.0
 12
0.0
 22
0.0
 32
0.0
 14
1.000000000000000E+20
 24
1.000000000000000E+20
 34
1.000000000000000E+20
 15
-1.000000000000000E+20
 25
-1.000000000000000E+20
 35
-1.000000000000000E+20
146
0.0
 13
0.0
 23
0.0
 33
0.0
 16
1.0
 26
0.0
 36
0.0
 17
0.0
 27
1.0
 37
0.0
 76
     0
330
1B
  0
LAYOUT
  5
26
102
{ACAD_REACTORS
330
1A
102
}
330
1A
100
AcDbPlotSettings
  1

  2
Microsoft Office Document Image Writer
  4

  6

 40
0.0
 41
0.0
 42
0.0
 43
0.0
 44
0.0
 45
0.0
 46
0.0
 47
0.0
 48
0.0
 49
0.0
140
0.0
141
0.0
142
1.0
143
1.0
 70
   688
 72
     0
 73
     0
 74
     5
  7

 75
    16
147
1.0
148
0.0
149
0.0
100
AcDbLayout
  1
Layout2
 70
     1
 71
     2
 10
0.0
 20
0.0
 11
12.0
 21
9.0
 12
0.0
 22
0.0
 32
0.0
 14
0.0
 24
0.0
 34
0.0
 15
0.0
 25
0.0
 35
0.0
146
0.0
 13
0.0
 23
0.0
 33
0.0
 16
1.0
 26
0.0
 36
0.0
 17
0.0
 27
1.0
 37
0.0
 76
     0
330
23
  0
LAYOUT
  5
22
102
{ACAD_REACTORS
330
1A
102
}
330
1A
100
AcDbPlotSettings
  1

  2
Microsoft Office Document Image Writer
  4

  6

 40
0.0
 41
0.0
 42
0.0
 43
0.0
 44
0.0
 45
0.0
 46
0.0
 47
0.0
 48
0.0
 49
0.0
140
0.0
141
0.0
142
1.0
143
1.0
 70
  1712
 72
     0
 73
     0
 74
     0
  7

 75
     0
147
1.0
148
0.0
149
0.0
100
AcDbLayout
  1
Model
 70
     1
 71
     0
 10
0.0
 20
0.0
 11
12.0
 21
9.0
 12
0.0
 22
0.0
 32
0.0
 14
0.0
 24
0.0
 34
0.0
 15
0.0
 25
0.0
 35
0.0
146
0.0
 13
0.0
 23
0.0
 33
0.0
 16
1.0
 26
0.0
 36
0.0
 17
0.0
 27
1.0
 37
0.0
 76
     0
330
1F
  0
MLINESTYLE
  5
18
102
{ACAD_REACTORS
330
17
102
}
330
17
100
AcDbMlineStyle
  2
STANDARD
 70
     0
  3

 62
   256
 51
90.0
 52
90.0
 71
     2
 49
0.5
 62
   256
  6
BYLAYER
 49
-0.5
 62
   256
  6
BYLAYER
  0
ACDBPLACEHOLDER
  5
F
102
{ACAD_REACTORS
330
E
102
}
330
E
  0
DICTIONARYVAR
  5
117
102
{ACAD_REACTORS
330
115
102
}
330
115
100
DictionaryVariables
280
     0
  1
2
  0
DICTIONARYVAR
  5
116
102
{ACAD_REACTORS
330
115
102
}
330
115
100
DictionaryVariables
280
     0
  1
1
  0
ENDSEC
  0
EOF
