  0
SECTION
  2
HEADER
  9
$ACADVER
  1
AC1015
  9
$ACADMAINTVER
 70
    13
  9
$DWGCODEPAGE
  3
ANSI_1252
  9
$INSBASE
 10
0.0
 20
0.0
 30
0.0
  9
$EXTMIN
 10
-163.8510123964526
 20
-0.9607537041426894
 30
-0.0015258207003583
  9
$EXTMAX
 10
263.0639656389412
 20
574.8800821917598
 30
0.0000000349246037
  9
$LIMMIN
 10
0.0
 20
0.0
  9
$LIMMAX
 10
420.0
 20
297.0
  9
$ORTHOMODE
 70
     0
  9
$REGENMODE
 70
     1
  9
$FILLMODE
 70
     1
  9
$QTEXTMODE
 70
     0
  9
$MIRRTEXT
 70
     1
  9
$LTSCALE
 40
1.0
  9
$ATTMODE
 70
     1
  9
$TEXTSIZE
 40
2.5
  9
$TRACEWID
 40
1.0
  9
$TEXTSTYLE
  7
Standard
  9
$CLAYER
  8
ceco.net 155
  9
$CELTYPE
  6
ByLayer
  9
$CECOLOR
 62
   256
  9
$CELTSCALE
 40
1.0
  9
$DISPSILH
 70
     0
  9
$DIMSCALE
 40
1.0
  9
$DIMASZ
 40
2.5
  9
$DIMEXO
 40
0.625
  9
$DIMDLI
 40
3.75
  9
$DIMRND
 40
0.0
  9
$DIMDLE
 40
0.0
  9
$DIMEXE
 40
1.25
  9
$DIMTP
 40
0.0
  9
$DIMTM
 40
0.0
  9
$DIMTXT
 40
2.5
  9
$DIMCEN
 40
2.5
  9
$DIMTSZ
 40
0.0
  9
$DIMTOL
 70
     0
  9
$DIMLIM
 70
     0
  9
$DIMTIH
 70
     0
  9
$DIMTOH
 70
     0
  9
$DIMSE1
 70
     0
  9
$DIMSE2
 70
     0
  9
$DIMTAD
 70
     1
  9
$DIMZIN
 70
     8
  9
$DIMBLK
  1

  9
$DIMASO
 70
     1
  9
$DIMSHO
 70
     1
  9
$DIMPOST
  1

  9
$DIMAPOST
  1

  9
$DIMALT
 70
     0
  9
$DIMALTD
 70
     3
  9
$DIMALTF
 40
0.03937007874016
  9
$DIMLFAC
 40
1.0
  9
$DIMTOFL
 70
     1
  9
$DIMTVP
 40
0.0
  9
$DIMTIX
 70
     0
  9
$DIMSOXD
 70
     0
  9
$DIMSAH
 70
     0
  9
$DIMBLK1
  1

  9
$DIMBLK2
  1

  9
$DIMSTYLE
  2
ISO-25
  9
$DIMCLRD
 70
     0
  9
$DIMCLRE
 70
     0
  9
$DIMCLRT
 70
     0
  9
$DIMTFAC
 40
1.0
  9
$DIMGAP
 40
0.625
  9
$DIMJUST
 70
     0
  9
$DIMSD1
 70
     0
  9
$DIMSD2
 70
     0
  9
$DIMTOLJ
 70
     0
  9
$DIMTZIN
 70
     8
  9
$DIMALTZ
 70
     0
  9
$DIMALTTZ
 70
     0
  9
$DIMUPT
 70
     0
  9
$DIMDEC
 70
     2
  9
$DIMTDEC
 70
     2
  9
$DIMALTU
 70
     2
  9
$DIMALTTD
 70
     3
  9
$DIMTXSTY
  7
Standard
  9
$DIMAUNIT
 70
     0
  9
$DIMADEC
 70
     0
  9
$DIMALTRND
 40
0.0
  9
$DIMAZIN
 70
     0
  9
$DIMDSEP
 70
    44
  9
$DIMATFIT
 70
     3
  9
$DIMFRAC
 70
     0
  9
$DIMLDRBLK
  1

  9
$DIMLUNIT
 70
     2
  9
$DIMLWD
 70
    -2
  9
$DIMLWE
 70
    -2
  9
$DIMTMOVE
 70
     0
  9
$LUNITS
 70
     2
  9
$LUPREC
 70
     2
  9
$SKETCHINC
 40
1.0
  9
$FILLETRAD
 40
10.0
  9
$AUNITS
 70
     0
  9
$AUPREC
 70
     0
  9
$MENU
  1
.
  9
$ELEVATION
 40
0.0
  9
$PELEVATION
 40
0.0
  9
$THICKNESS
 40
0.0
  9
$LIMCHECK
 70
     0
  9
$CHAMFERA
 40
10.0
  9
$CHAMFERB
 40
10.0
  9
$CHAMFERC
 40
20.0
  9
$CHAMFERD
 40
0.0
  9
$SKPOLY
 70
     0
  9
$TDCREATE
 40
2455079.811409143
  9
$TDUCREATE
 40
2455079.936409144
  9
$TDUPDATE
 40
2456758.600788623
  9
$TDUUPDATE
 40
2456758.725788622
  9
$TDINDWG
 40
0.0474038889
  9
$TDUSRTIMER
 40
0.0474038889
  9
$USRTIMER
 70
     1
  9
$ANGBASE
 50
0.0
  9
$ANGDIR
 70
     0
  9
$PDMODE
 70
     0
  9
$PDSIZE
 40
0.0
  9
$PLINEWID
 40
0.0
  9
$SPLFRAME
 70
     0
  9
$SPLINETYPE
 70
     6
  9
$SPLINESEGS
 70
     8
  9
$HANDSEED
  5
F23
  9
$SURFTAB1
 70
     6
  9
$SURFTAB2
 70
     6
  9
$SURFTYPE
 70
     6
  9
$SURFU
 70
     6
  9
$SURFV
 70
     6
  9
$UCSBASE
  2

  9
$UCSNAME
  2

  9
$UCSORG
 10
0.0
 20
0.0
 30
0.0
  9
$UCSXDIR
 10
1.0
 20
0.0
 30
0.0
  9
$UCSYDIR
 10
0.0
 20
1.0
 30
0.0
  9
$UCSORTHOREF
  2

  9
$UCSORTHOVIEW
 70
     0
  9
$UCSORGTOP
 10
0.0
 20
0.0
 30
0.0
  9
$UCSORGBOTTOM
 10
0.0
 20
0.0
 30
0.0
  9
$UCSORGLEFT
 10
0.0
 20
0.0
 30
0.0
  9
$UCSORGRIGHT
 10
0.0
 20
0.0
 30
0.0
  9
$UCSORGFRONT
 10
0.0
 20
0.0
 30
0.0
  9
$UCSORGBACK
 10
0.0
 20
0.0
 30
0.0
  9
$PUCSBASE
  2

  9
$PUCSNAME
  2

  9
$PUCSORG
 10
0.0
 20
0.0
 30
0.0
  9
$PUCSXDIR
 10
1.0
 20
0.0
 30
0.0
  9
$PUCSYDIR
 10
0.0
 20
1.0
 30
0.0
  9
$PUCSORTHOREF
  2

  9
$PUCSORTHOVIEW
 70
     0
  9
$PUCSORGTOP
 10
0.0
 20
0.0
 30
0.0
  9
$PUCSORGBOTTOM
 10
0.0
 20
0.0
 30
0.0
  9
$PUCSORGLEFT
 10
0.0
 20
0.0
 30
0.0
  9
$PUCSORGRIGHT
 10
0.0
 20
0.0
 30
0.0
  9
$PUCSORGFRONT
 10
0.0
 20
0.0
 30
0.0
  9
$PUCSORGBACK
 10
0.0
 20
0.0
 30
0.0
  9
$USERI1
 70
     0
  9
$USERI2
 70
     0
  9
$USERI3
 70
     0
  9
$USERI4
 70
     0
  9
$USERI5
 70
     0
  9
$USERR1
 40
0.0
  9
$USERR2
 40
0.0
  9
$USERR3
 40
0.0
  9
$USERR4
 40
0.0
  9
$USERR5
 40
0.0
  9
$WORLDVIEW
 70
     1
  9
$SHADEDGE
 70
     3
  9
$SHADEDIF
 70
    70
  9
$TILEMODE
 70
     1
  9
$MAXACTVP
 70
    64
  9
$PINSBASE
 10
0.0
 20
0.0
 30
0.0
  9
$PLIMCHECK
 70
     0
  9
$PEXTMIN
 10
1.000000000000000E+20
 20
1.000000000000000E+20
 30
1.000000000000000E+20
  9
$PEXTMAX
 10
-1.000000000000000E+20
 20
-1.000000000000000E+20
 30
-1.000000000000000E+20
  9
$PLIMMIN
 10
0.0
 20
0.0
  9
$PLIMMAX
 10
420.0
 20
297.0
  9
$UNITMODE
 70
     0
  9
$VISRETAIN
 70
     1
  9
$PLINEGEN
 70
     0
  9
$PSLTSCALE
 70
     1
  9
$TREEDEPTH
 70
  3020
  9
$CMLSTYLE
  2
Standard
  9
$CMLJUST
 70
     0
  9
$CMLSCALE
 40
20.0
  9
$PROXYGRAPHICS
 70
     1
  9
$MEASUREMENT
 70
     1
  9
$CELWEIGHT
370
    -1
  9
$ENDCAPS
280
     0
  9
$JOINSTYLE
280
     0
  9
$LWDISPLAY
290
     0
  9
$INSUNITS
 70
     4
  9
$HYPERLINKBASE
  1

  9
$STYLESHEET
  1

  9
$XEDIT
290
     1
  9
$CEPSNTYPE
380
     0
  9
$PSTYLEMODE
290
     1
  9
$FINGERPRINTGUID
  2
{81085373-3A21-4932-80AA-8F6C3258C50C}
  9
$VERSIONGUID
  2
{C0E40955-9E4C-47AE-B8BF-3ED6B9D96C91}
  9
$EXTNAMES
290
     1
  9
$PSVPSCALE
 40
0.0
  9
$OLESTARTUP
290
     0
  0
ENDSEC
  0
SECTION
  2
CLASSES
  0
CLASS
  1
ACDBDICTIONARYWDFLT
  2
AcDbDictionaryWithDefault
  3
AutoCAD 2000
 90
        0
280
     0
281
     0
  0
CLASS
  1
ACDBPLACEHOLDER
  2
AcDbPlaceHolder
  3
AutoCAD 2000
 90
        0
280
     0
281
     0
  0
CLASS
  1
LAYOUT
  2
AcDbLayout
  3
AutoCAD 2000
 90
        0
280
     0
281
     0
  0
CLASS
  1
DICTIONARYVAR
  2
AcDbDictionaryVar
  3
AutoCAD 2000
 90
        0
280
     0
281
     0
  0
ENDSEC
  0
SECTION
  2
TABLES
  0
TABLE
  2
VPORT
  5
8
330
0
100
AcDbSymbolTable
 70
     3
  0
VPORT
  5
F22
330
8
100
AcDbSymbolTableRecord
100
AcDbViewportTableRecord
  2
*Active
 70
     0
 10
0.0
 20
0.0
 11
1.0
 21
1.0
 12
49.60647662124427
 22
286.9596642438085
 13
0.0
 23
0.0
 14
10.0
 24
10.0
 15
10.0
 25
10.0
 16
0.0
 26
0.0
 36
1.0
 17
0.0
 27
0.0
 37
0.0
 40
579.9296465649859
 41
2.184834123222748
 42
50.0
 43
0.0
 44
0.0
 50
0.0
 51
0.0
 71
     0
 72
   100
 73
     1
 74
     3
 75
     0
 76
     0
 77
     0
 78
     0
281
     0
 65
     1
110
0.0
120
0.0
130
0.0
111
1.0
121
0.0
131
0.0
112
0.0
122
1.0
132
0.0
 79
     0
146
0.0
  0
ENDTAB
  0
TABLE
  2
LTYPE
  5
5
330
0
100
AcDbSymbolTable
 70
     1
  0
LTYPE
  5
14
330
5
100
AcDbSymbolTableRecord
100
AcDbLinetypeTableRecord
  2
ByBlock
 70
     0
  3

 72
    65
 73
     0
 40
0.0
  0
LTYPE
  5
15
330
5
100
AcDbSymbolTableRecord
100
AcDbLinetypeTableRecord
  2
ByLayer
 70
     0
  3

 72
    65
 73
     0
 40
0.0
  0
LTYPE
  5
16
330
5
100
AcDbSymbolTableRecord
100
AcDbLinetypeTableRecord
  2
Continuous
 70
     0
  3
Solid line
 72
    65
 73
     0
 40
0.0
  0
ENDTAB
  0
TABLE
  2
LAYER
  5
2
102
{ACAD_XDICTIONARY
360
90A
102
}
330
0
100
AcDbSymbolTable
 70
     2
  0
LAYER
  5
10
330
2
100
AcDbSymbolTableRecord
100
AcDbLayerTableRecord
  2
0
 70
     0
 62
     7
  6
Continuous
370
    -3
390
F
  0
LAYER
  5
8F5
102
{ACAD_XDICTIONARY
360
8F6
102
}
330
2
100
AcDbSymbolTableRecord
100
AcDbLayerTableRecord
  2
ceco.net 155
 70
     0
 62
     7
  6
Continuous
370
    -3
390
F
1001
AcAecLayerStandard
1000

1000

  0
ENDTAB
  0
TABLE
  2
STYLE
  5
3
330
0
100
AcDbSymbolTable
 70
     1
  0
STYLE
  5
11
330
3
100
AcDbSymbolTableRecord
100
AcDbTextStyleTableRecord
  2
Standard
 70
     0
 40
0.0
 41
1.0
 50
0.0
 71
     0
 42
2.5
  3
txt
  4

  0
ENDTAB
  0
TABLE
  2
VIEW
  5
6
330
0
100
AcDbSymbolTable
 70
     0
  0
ENDTAB
  0
TABLE
  2
UCS
  5
7
330
0
100
AcDbSymbolTable
 70
     0
  0
ENDTAB
  0
TABLE
  2
APPID
  5
9
330
0
100
AcDbSymbolTable
 70
    22
  0
APPID
  5
12
330
9
100
AcDbSymbolTableRecord
100
AcDbRegAppTableRecord
  2
ACAD
 70
     0
  0
APPID
  5
2C
330
9
100
AcDbSymbolTableRecord
100
AcDbRegAppTableRecord
  2
ACAD_DSTYLE_DIMJOGGED_JOGANGLE_SYMBOL
 70
     0
  0
APPID
  5
11B
330
9
100
AcDbSymbolTableRecord
100
AcDbRegAppTableRecord
  2
ACAD_NAV_VCDISPLAY
 70
     0
  0
APPID
  5
11C
330
9
100
AcDbSymbolTableRecord
100
AcDbRegAppTableRecord
  2
ACAD_MLEADERVER
 70
     0
  0
APPID
  5
8F8
330
9
100
AcDbSymbolTableRecord
100
AcDbRegAppTableRecord
  2
RAK
 70
     0
  0
APPID
  5
8F9
330
9
100
AcDbSymbolTableRecord
100
AcDbRegAppTableRecord
  2
AcAecLayerStandard
 70
     0
  0
APPID
  5
8FA
330
9
100
AcDbSymbolTableRecord
100
AcDbRegAppTableRecord
  2
ACAD_PSEXT
 70
     0
  0
APPID
  5
8FB
330
9
100
AcDbSymbolTableRecord
100
AcDbRegAppTableRecord
  2
AcDbBlockRepETag
 70
     0
  0
APPID
  5
8FC
330
9
100
AcDbSymbolTableRecord
100
AcDbRegAppTableRecord
  2
AcadAnnoPO
 70
     0
  0
APPID
  5
8FD
330
9
100
AcDbSymbolTableRecord
100
AcDbRegAppTableRecord
  2
ACAUTHENVIRON
 70
     0
  0
APPID
  5
8FE
330
9
100
AcDbSymbolTableRecord
100
AcDbRegAppTableRecord
  2
AcDbDynamicBlockTrueName
 70
     0
  0
APPID
  5
8FF
330
9
100
AcDbSymbolTableRecord
100
AcDbRegAppTableRecord
  2
AcDbDynamicBlockGUID
 70
     0
  0
APPID
  5
900
330
9
100
AcDbSymbolTableRecord
100
AcDbRegAppTableRecord
  2
AcLayerTools
 70
     0
  0
APPID
  5
901
330
9
100
AcDbSymbolTableRecord
100
AcDbRegAppTableRecord
  2
ACAD_EXEMPT_FROM_CAD_STANDARDS
 70
     0
  0
APPID
  5
902
330
9
100
AcDbSymbolTableRecord
100
AcDbRegAppTableRecord
  2
AcadAnnotative
 70
     0
  0
APPID
  5
903
330
9
100
AcDbSymbolTableRecord
100
AcDbRegAppTableRecord
  2
ACAD_DSTYLE_DIMJAG
 70
     0
  0
APPID
  5
904
330
9
100
AcDbSymbolTableRecord
100
AcDbRegAppTableRecord
  2
ACAD_DSTYLE_DIMTALN
 70
     0
  0
APPID
  5
905
330
9
100
AcDbSymbolTableRecord
100
AcDbRegAppTableRecord
  2
ACAD_DSTYLE_DIMBREAK
 70
     0
  0
APPID
  5
906
330
9
100
AcDbSymbolTableRecord
100
AcDbRegAppTableRecord
  2
AcadAnnoAV
 70
     0
  0
APPID
  5
907
330
9
100
AcDbSymbolTableRecord
100
AcDbRegAppTableRecord
  2
AcCmTransparency
 70
     0
  0
APPID
  5
908
330
9
100
AcDbSymbolTableRecord
100
AcDbRegAppTableRecord
  2
GradientColor1ACI
 70
     0
  0
APPID
  5
909
330
9
100
AcDbSymbolTableRecord
100
AcDbRegAppTableRecord
  2
GradientColor2ACI
 70
     0
  0
ENDTAB
  0
TABLE
  2
DIMSTYLE
  5
A
330
0
100
AcDbSymbolTable
 70
     2
100
AcDbDimStyleTable
 71
     0
  0
DIMSTYLE
105
27
330
A
100
AcDbSymbolTableRecord
100
AcDbDimStyleTableRecord
  2
ISO-25
 70
     0
 41
2.5
 42
0.625
 43
3.75
 44
1.25
 73
     0
 74
     0
 77
     1
 78
     8
140
2.5
141
2.5
143
0.03937007874016
147
0.625
171
     3
172
     1
271
     2
272
     2
274
     3
278
    44
283
     0
284
     8
340
11
  0
DIMSTYLE
105
2B
330
A
100
AcDbSymbolTableRecord
100
AcDbDimStyleTableRecord
  2
Standard
 70
     0
340
11
  0
ENDTAB
  0
TABLE
  2
BLOCK_RECORD
  5
1
330
0
100
AcDbSymbolTable
 70
     2
  0
BLOCK_RECORD
  5
1F
330
1
100
AcDbSymbolTableRecord
100
AcDbBlockTableRecord
  2
*Model_Space
340
22
  0
BLOCK_RECORD
  5
1B
330
1
100
AcDbSymbolTableRecord
100
AcDbBlockTableRecord
  2
*Paper_Space
340
1E
  0
BLOCK_RECORD
  5
23
330
1
100
AcDbSymbolTableRecord
100
AcDbBlockTableRecord
  2
*Paper_Space0
340
26
  0
ENDTAB
  0
ENDSEC
  0
SECTION
  2
BLOCKS
  0
BLOCK
  5
20
330
1F
100
AcDbEntity
  8
0
100
AcDbBlockBegin
  2
*Model_Space
 70
     0
 10
0.0
 20
0.0
 30
0.0
  3
*Model_Space
  1

  0
ENDBLK
  5
21
330
1F
100
AcDbEntity
  8
0
100
AcDbBlockEnd
  0
BLOCK
  5
1C
330
1B
100
AcDbEntity
 67
     1
  8
0
100
AcDbBlockBegin
  2
*Paper_Space
 70
     0
 10
0.0
 20
0.0
 30
0.0
  3
*Paper_Space
  1

  0
ENDBLK
  5
1D
330
1B
100
AcDbEntity
 67
     1
  8
0
100
AcDbBlockEnd
  0
BLOCK
  5
24
330
23
100
AcDbEntity
  8
0
100
AcDbBlockBegin
  2
*Paper_Space0
 70
     0
 10
0.0
 20
0.0
 30
0.0
  3
*Paper_Space0
  1

  0
ENDBLK
  5
25
330
23
100
AcDbEntity
  8
0
100
AcDbBlockEnd
  0
ENDSEC
  0
SECTION
  2
ENTITIES
  0
SPLINE
  5
C18
330
1F
100
AcDbEntity
  8
ceco.net 155
100
AcDbSpline
210
0.0
220
0.0
230
1.0
 70
     8
 71
     3
 72
    16
 73
    12
 74
     0
 42
0.0000000001
 43
0.0000000001
 40
0.3859899892264884
 40
0.3859899892264884
 40
0.3859899892264884
 40
0.3859899892264884
 40
0.5428831364818847
 40
0.5428831364818847
 40
1.085766272963769
 40
1.085766272963769
 40
2.715856199195814
 40
2.715856199195814
 40
3.453273035541654
 40
3.453273035541654
 40
4.111663599854418
 40
4.111663599854418
 40
4.111663599854418
 40
4.111663599854418
 10
-124.5242779343061
 20
143.6202462516594
 30
0.0
 10
-125.5794290963713
 20
144.0586770343106
 30
0.0
 10
-126.6616805452758
 20
144.3745258384296
 30
0.0
 10
-131.3871928423905
 20
145.2660529523673
 30
0.0
 10
-135.1038360496022
 20
144.8972820473973
 30
0.0
 10
-149.9044300552959
 20
141.0353972129341
 30
0.0
 10
-161.3085214387901
 20
133.2981054307565
 30
0.0
 10
-164.6434981383281
 20
116.9401914206682
 30
0.0
 10
-161.8769015729485
 20
110.3087791676698
 30
0.0
 10
-152.8641823667203
 20
105.4823857307383
 30
0.0
 10
-148.2990291378264
 20
105.4151279398647
 30
0.0
 10
-143.7908146083864
 20
106.2739751384942
 30
0.0
  0
LINE
  5
C19
330
1F
100
AcDbEntity
  8
ceco.net 155
100
AcDbLine
 10
-91.99809479682153
 20
0.0
 30
0.0
 11
91.99809479682153
 21
0.0
 31
0.0
  0
SPLINE
  5
C1A
330
1F
100
AcDbEntity
  8
ceco.net 155
100
AcDbSpline
210
0.0
220
0.0
230
1.0
 70
     8
 71
     3
 72
    12
 73
     8
 74
     0
 42
0.0000000001
 43
0.0000000001
 40
0.0
 40
0.0
 40
0.0
 40
0.0
 40
15.18202140623579
 40
58.39631936978999
 40
117.257003982279
 40
180.0511427827086
 40
218.2967421267431
 40
218.2967421267431
 40
218.2967421267431
 40
218.2967421267431
 10
-88.13836198083299
 20
190.7750524046605
 30
0.0
 10
-89.81012667982941
 20
185.9278880429192
 30
0.0
 10
-96.2404235857357
 20
167.2836936677194
 30
0.0
 10
-130.8254747679638
 20
144.3550868162929
 30
0.0
 10
-152.9504364677523
 20
90.69242562111686
 30
0.0
 10
-140.9823162187858
 20
32.85679975061066
 30
0.0
 10
-114.341207295376
 20
11.61992369634754
 30
0.0
 10
-103.8616522815391
 20
3.898571373727463
 30
0.0
  0
ELLIPSE
  5
C1B
330
1F
100
AcDbEntity
  8
ceco.net 155
100
AcDbEllipse
 10
-140.1111922232812
 20
125.3700314989619
 30
0.0
 11
15.63297876126377
 21
8.960363071414823
 31
0.0
210
0.0
220
0.0
230
1.0
 40
0.5153880988495968
 41
0.5761140699274213
 42
4.356842127502297
  0
SPLINE
  5
C1C
330
1F
100
AcDbEntity
  8
ceco.net 155
100
AcDbSpline
210
0.0
220
0.0
230
1.0
 70
     8
 71
     3
 72
    12
 73
     8
 74
     0
 42
0.0000000001
 43
0.0000000001
 40
0.0
 40
0.0
 40
0.0
 40
0.0
 40
15.18202140623579
 40
58.39631936978999
 40
117.2570039822805
 40
180.05114278271
 40
218.2967421267577
 40
218.2967421267577
 40
218.2967421267577
 40
218.2967421267577
 10
88.13836198084391
 20
190.7750524046605
 30
0.0
 10
89.81012667984396
 20
185.9278880429192
 30
0.0
 10
96.24042358574662
 20
167.2836936677194
 30
0.0
 10
130.825474767982
 20
144.3550868162856
 30
0.0
 10
152.9504364677632
 20
90.6924256211205
 30
0.0
 10
140.9823162188185
 20
32.85679975060338
 30
0.0
 10
114.3412072953869
 20
11.61992369635117
 30
0.0
 10
103.8616522815391
 20
3.898571373731101
 30
0.0
  0
LINE
  5
C1D
330
1F
100
AcDbEntity
  8
ceco.net 155
100
AcDbLine
 10
19.45908223685182
 20
425.9952764813897
 30
0.0
 11
20.3597352882025
 21
442.8953210726831
 31
0.0
  0
LINE
  5
C1E
330
1F
100
AcDbEntity
  8
ceco.net 155
100
AcDbLine
 10
20.3597352882025
 20
442.8953210726831
 30
0.0
 11
27.77550903778683
 21
457.5781014780223
 31
0.0
  0
LINE
  5
C1F
330
1F
100
AcDbEntity
  8
ceco.net 155
100
AcDbLine
 10
27.77550903778683
 20
457.5781014780223
 30
0.0
 11
42.30612160524105
 21
472.6182320669067
 31
0.0
  0
LINE
  5
C20
330
1F
100
AcDbEntity
  8
ceco.net 155
100
AcDbLine
 10
42.30612160524105
 20
472.6182320669067
 30
0.0
 11
60.92353813148292
 21
486.6332423725907
 31
0.0
  0
LINE
  5
C21
330
1F
100
AcDbEntity
  8
ceco.net 155
100
AcDbLine
 10
60.92353813148292
 20
486.6332423725907
 30
0.0
 11
89.31285044213291
 21
496.6692337560525
 31
0.0
  0
LINE
  5
C22
330
1F
100
AcDbEntity
  8
ceco.net 155
100
AcDbLine
 10
89.31285044213291
 20
496.6692337560525
 30
0.0
 11
109.5217162481458
 21
500.0692976466344
 31
0.0
  0
LINE
  5
C23
330
1F
100
AcDbEntity
  8
ceco.net 155
100
AcDbLine
 10
109.5217162481458
 20
500.0692976466344
 30
0.0
 11
137.2553403753663
 21
493.6609232123628
 31
0.0
  0
LINE
  5
C24
330
1F
100
AcDbEntity
  8
ceco.net 155
100
AcDbLine
 10
137.2553403753663
 20
493.6609232123628
 30
0.0
 11
111.594871646339
 21
506.9130044171288
 31
0.0
  0
LINE
  5
C25
330
1F
100
AcDbEntity
  8
ceco.net 155
100
AcDbLine
 10
111.594871646339
 20
506.9130044171288
 30
0.0
 11
97.61470969233052
 21
505.3418235718273
 31
0.0
  0
LINE
  5
C26
330
1F
100
AcDbEntity
  8
ceco.net 155
100
AcDbLine
 10
97.61470969233052
 20
505.3418235718273
 30
0.0
 11
65.99103010689214
 21
496.8151565911975
 31
0.0
  0
LINE
  5
C27
330
1F
100
AcDbEntity
  8
ceco.net 155
100
AcDbLine
 10
65.99103010689214
 20
496.8151565911975
 30
0.0
 11
38.02786194018699
 21
480.2132806759145
 31
0.0
  0
LINE
  5
C28
330
1F
100
AcDbEntity
  8
ceco.net 155
100
AcDbLine
 10
38.02786194018699
 20
480.2132806759145
 30
0.0
 11
31.45348016605931
 21
472.4332169551526
 31
0.0
  0
LINE
  5
C29
330
1F
100
AcDbEntity
  8
ceco.net 155
100
AcDbLine
 10
18.88959982313099
 20
446.4696143552392
 30
0.0
 11
33.17084510496715
 21
475.9821986053793
 31
0.0
  0
LINE
  5
C2A
330
1F
100
AcDbEntity
  8
ceco.net 155
100
AcDbLine
 10
33.17084510496715
 20
475.9821986053793
 30
0.0
 11
46.77223837103883
 21
499.5358631198323
 31
0.0
  0
LINE
  5
C2B
330
1F
100
AcDbEntity
  8
ceco.net 155
100
AcDbLine
 10
46.77223837103883
 20
499.5358631198323
 30
0.0
 11
56.31542398446981
 21
507.501380135076
 31
0.0
  0
LINE
  5
C2C
330
1F
100
AcDbEntity
  8
ceco.net 155
100
AcDbLine
 10
81.79937625615275
 20
523.6863911247929
 30
0.0
 11
90.96410335161635
 21
527.998767531586
 31
0.0
  0
LINE
  5
C2D
330
1F
100
AcDbEntity
  8
ceco.net 155
100
AcDbLine
 10
106.9389618703717
 20
533.7997386018941
 30
0.0
 11
108.3837159954491
 21
534.3243740391008
 31
0.0
  0
LINE
  5
C2E
330
1F
100
AcDbEntity
  8
ceco.net 155
100
AcDbLine
 10
108.3837159954491
 20
534.3243740391008
 30
0.0
 11
124.0621105920981
 21
546.3324259751535
 31
0.0
  0
LINE
  5
C2F
330
1F
100
AcDbEntity
  8
ceco.net 155
100
AcDbLine
 10
124.0621105920981
 20
546.3324259751535
 30
0.0
 11
112.3465456644517
 21
542.1075489145041
 31
0.0
  0
LINE
  5
C30
330
1F
100
AcDbEntity
  8
ceco.net 155
100
AcDbLine
 10
94.66525057002218
 20
535.7313051304117
 30
0.0
 11
83.24509549797586
 21
532.0530975237161
 31
0.0
  0
LINE
  5
C31
330
1F
100
AcDbEntity
  8
ceco.net 155
100
AcDbLine
 10
56.25663850380442
 20
513.106785031141
 30
0.0
 11
48.56482620272799
 21
504.4966706631166
 31
0.0
  0
LINE
  5
C32
330
1F
100
AcDbEntity
  8
ceco.net 155
100
AcDbLine
 10
48.56482620272799
 20
504.4966706631166
 30
0.0
 11
34.96078653945005
 21
485.6381228349855
 31
0.0
  0
LINE
  5
C33
330
1F
100
AcDbEntity
  8
ceco.net 155
100
AcDbLine
 10
34.96078653945005
 20
485.6381228349855
 30
0.0
 11
29.35107993443671
 21
475.1338551805019
 31
0.0
  0
LINE
  5
C34
330
1F
100
AcDbEntity
  8
ceco.net 155
100
AcDbLine
 10
29.35107993443671
 20
475.1338551805019
 30
0.0
 11
44.67496860599567
 21
507.7162601592135
 31
0.0
  0
LINE
  5
C35
330
1F
100
AcDbEntity
  8
ceco.net 155
100
AcDbLine
 10
44.67496860599567
 20
507.7162601592135
 30
0.0
 11
53.16304023341945
 21
523.7478127495487
 31
0.0
  0
LINE
  5
C36
330
1F
100
AcDbEntity
  8
ceco.net 155
100
AcDbLine
 10
53.16304023341945
 20
523.7478127495487
 30
0.0
 11
59.32439698705639
 21
534.0268274851514
 31
0.0
  0
LINE
  5
C37
330
1F
100
AcDbEntity
  8
ceco.net 155
100
AcDbLine
 10
59.32439698705639
 20
534.0268274851514
 30
0.0
 11
70.70686041590306
 21
541.0309380771431
 31
0.0
  0
LINE
  5
C38
330
1F
100
AcDbEntity
  8
ceco.net 155
100
AcDbLine
 10
70.70686041590306
 20
541.0309380771431
 30
0.0
 11
55.6692278279952
 21
537.2504607751143
 31
0.0
  0
LINE
  5
C39
330
1F
100
AcDbEntity
  8
ceco.net 155
100
AcDbLine
 10
55.6692278279952
 20
537.2504607751143
 30
0.0
 11
47.82466353737618
 21
533.8286815879219
 31
0.0
  0
LINE
  5
C3A
330
1F
100
AcDbEntity
  8
ceco.net 155
100
AcDbLine
 10
47.82466353737618
 20
533.8286815879219
 30
0.0
 11
47.64590464666253
 21
533.6090976789673
 31
0.0
  0
LINE
  5
C3B
330
1F
100
AcDbEntity
  8
ceco.net 155
100
AcDbLine
 10
34.64417108620546
 20
517.6380236418954
 30
0.0
 11
26.6888785695919
 21
502.4764308421945
 31
0.0
  0
LINE
  5
C3C
330
1F
100
AcDbEntity
  8
ceco.net 155
100
AcDbLine
 10
26.6888785695919
 20
502.4764308421945
 30
0.0
 11
23.97091736890434
 21
487.6398378755766
 31
0.0
  0
LINE
  5
C3D
330
1F
100
AcDbEntity
  8
ceco.net 155
100
AcDbLine
 10
23.97091736890434
 20
487.6398378755766
 30
0.0
 11
18.88959982313099
 21
446.4696143552392
 31
0.0
  0
LINE
  5
C3E
330
1F
100
AcDbEntity
  8
ceco.net 155
100
AcDbLine
 10
18.88959982313099
 20
446.4696143552392
 30
0.0
 11
21.36378332483582
 21
493.6203739771372
 31
0.0
  0
LINE
  5
C3F
330
1F
100
AcDbEntity
  8
ceco.net 155
100
AcDbLine
 10
21.36378332483582
 20
493.6203739771372
 30
0.0
 11
19.62411107030493
 21
517.3792208373706
 31
0.0
  0
LINE
  5
C40
330
1F
100
AcDbEntity
  8
ceco.net 155
100
AcDbLine
 10
19.62411107030493
 20
517.3792208373706
 30
0.0
 11
15.19353517125637
 21
533.8142006014568
 31
0.0
  0
LINE
  5
C41
330
1F
100
AcDbEntity
  8
ceco.net 155
100
AcDbLine
 10
15.19353517125637
 20
533.8142006014568
 30
0.0
 11
7.385513421075302
 21
541.8961986579233
 31
0.0
  0
LINE
  5
C42
330
1F
100
AcDbEntity
  8
ceco.net 155
100
AcDbLine
 10
7.385513421075302
 20
541.8961986579233
 30
0.0
 11
1.258052810790104
 21
547.8160778520759
 31
0.0
  0
LINE
  5
C43
330
1F
100
AcDbEntity
  8
ceco.net 155
100
AcDbLine
 10
1.258052810790104
 20
547.8160778520759
 30
0.0
 11
-0.3942017723893514
 21
548.3353776500043
 31
0.0
  0
LINE
  5
C44
330
1F
100
AcDbEntity
  8
ceco.net 155
100
AcDbLine
 10
-0.3942017723893514
 20
548.3353776500043
 30
0.0
 11
0.1546041175461141
 21
534.6506105064472
 31
0.0
  0
LINE
  5
C45
330
1F
100
AcDbEntity
  8
ceco.net 155
100
AcDbLine
 10
0.1546041175461141
 20
534.6506105064472
 30
0.0
 11
6.566478226610342
 21
512.22431119061
 31
0.0
  0
LINE
  5
C46
330
1F
100
AcDbEntity
  8
ceco.net 155
100
AcDbLine
 10
6.566478226610342
 20
512.22431119061
 30
0.0
 11
13.35726941972097
 21
481.431501388899
 31
0.0
  0
LINE
  5
C47
330
1F
100
AcDbEntity
  8
ceco.net 155
100
AcDbLine
 10
13.35726941972097
 20
481.431501388899
 30
0.0
 11
18.85879526532153
 21
466.423523288995
 31
0.0
  0
LINE
  5
C48
330
1F
100
AcDbEntity
  8
ceco.net 155
100
AcDbLine
 10
18.85879526532153
 20
466.423523288995
 30
0.0
 11
18.88959982313099
 21
446.4696143552392
 31
0.0
  0
LINE
  5
C49
330
1F
100
AcDbEntity
  8
ceco.net 155
100
AcDbLine
 10
18.88959982313099
 20
446.4696143552392
 30
0.0
 11
13.59315739268277
 21
467.7413425201848
 31
0.0
  0
LINE
  5
C4A
330
1F
100
AcDbEntity
  8
ceco.net 155
100
AcDbLine
 10
13.59315739268277
 20
467.7413425201848
 30
0.0
 11
6.612110028476308
 21
491.4098779851229
 31
0.0
  0
LINE
  5
C4B
330
1F
100
AcDbEntity
  8
ceco.net 155
100
AcDbLine
 10
6.612110028476308
 20
491.4098779851229
 30
0.0
 11
-2.479834809655585
 21
510.4251320985895
 31
0.0
  0
LINE
  5
C4C
330
1F
100
AcDbEntity
  8
ceco.net 155
100
AcDbLine
 10
-2.479834809655585
 20
510.4251320985895
 30
0.0
 11
-10.0706417633155
 21
524.066814906746
 31
0.0
  0
LINE
  5
C4D
330
1F
100
AcDbEntity
  8
ceco.net 155
100
AcDbLine
 10
-10.0706417633155
 20
524.066814906746
 30
0.0
 11
-20.59782424935838
 21
531.006422659062
 31
0.0
  0
LINE
  5
C4E
330
1F
100
AcDbEntity
  8
ceco.net 155
100
AcDbLine
 10
-20.59782424935838
 20
531.006422659062
 30
0.0
 11
-41.6050116270344
 21
542.1476063900191
 31
0.0
  0
LINE
  5
C4F
330
1F
100
AcDbEntity
  8
ceco.net 155
100
AcDbLine
 10
-41.6050116270344
 20
542.1476063900191
 30
0.0
 11
-51.50371188204371
 21
544.4028809062038
 31
0.0
  0
LINE
  5
C50
330
1F
100
AcDbEntity
  8
ceco.net 155
100
AcDbLine
 10
-51.50371188204371
 20
544.4028809062038
 30
0.0
 11
-27.92044234495915
 21
524.5417813688399
 31
0.0
  0
LINE
  5
C51
330
1F
100
AcDbEntity
  8
ceco.net 155
100
AcDbLine
 10
-27.92044234495915
 20
524.5417813688399
 30
0.0
 11
-12.79539208569985
 21
505.0827116086802
 31
0.0
  0
LINE
  5
C52
330
1F
100
AcDbEntity
  8
ceco.net 155
100
AcDbLine
 10
-12.79539208569985
 20
505.0827116086802
 30
0.0
 11
0.3616414147181786
 21
472.6780356966192
 31
0.0
  0
LINE
  5
C53
330
1F
100
AcDbEntity
  8
ceco.net 155
100
AcDbLine
 10
0.3616414147181786
 20
472.6780356966192
 30
0.0
 11
9.761112444557511
 21
453.981091225276
 31
0.0
  0
LINE
  5
C54
330
1F
100
AcDbEntity
  8
ceco.net 155
100
AcDbLine
 10
9.761112444557511
 20
453.981091225276
 30
0.0
 11
16.55884115559092
 21
440.9517649382905
 31
0.0
  0
LINE
  5
C55
330
1F
100
AcDbEntity
  8
ceco.net 155
100
AcDbLine
 10
16.55884115559092
 20
440.9517649382905
 30
0.0
 11
18.06397336844747
 21
430.8048474674724
 31
0.0
  0
LINE
  5
C56
330
1F
100
AcDbEntity
  8
ceco.net 155
100
AcDbLine
 10
18.06397336844747
 20
430.8048474674724
 30
0.0
 11
18.80125636265802
 21
426.0852529940711
 31
0.0
  0
LINE
  5
C57
330
1F
100
AcDbEntity
  8
ceco.net 155
100
AcDbLine
 10
11.12348760586246
 20
215.959837753191
 30
0.0
 11
16.9949896702019
 21
238.519532799728
 31
0.0
  0
LINE
  5
C58
330
1F
100
AcDbEntity
  8
ceco.net 155
100
AcDbLine
 10
16.9949896702019
 20
238.519532799728
 30
0.0
 11
38.38148985489169
 21
255.3211004050135
 31
0.0
  0
LINE
  5
C59
330
1F
100
AcDbEntity
  8
ceco.net 155
100
AcDbLine
 10
38.38148985489169
 20
255.3211004050135
 30
0.0
 11
69.73693111678585
 21
279.4154337564141
 31
0.0
  0
LINE
  5
C5A
330
1F
100
AcDbEntity
  8
ceco.net 155
100
AcDbLine
 10
69.73693111678585
 20
279.4154337564141
 30
0.0
 11
41.26929039609239
 21
260.3007789862203
 31
0.0
  0
LINE
  5
C5B
330
1F
100
AcDbEntity
  8
ceco.net 155
100
AcDbLine
 10
41.26929039609239
 20
260.3007789862203
 30
0.0
 11
16.05552948979675
 21
241.3908876727291
 31
0.0
  0
LINE
  5
C5C
330
1F
100
AcDbEntity
  8
ceco.net 155
100
AcDbLine
 10
16.13036461556112
 20
241.6037447667804
 30
0.0
 11
37.8138129271465
 21
270.1010802582022
 31
0.0
  0
LINE
  5
C5D
330
1F
100
AcDbEntity
  8
ceco.net 155
100
AcDbLine
 10
37.8138129271465
 20
270.1010802582022
 30
0.0
 11
55.58288602851098
 21
287.9358557343039
 31
0.0
  0
LINE
  5
C5E
330
1F
100
AcDbEntity
  8
ceco.net 155
100
AcDbLine
 10
55.58288602851098
 20
287.9358557343039
 30
0.0
 11
28.19817823962512
 21
255.9281641320012
 31
0.0
  0
LINE
  5
C5F
330
1F
100
AcDbEntity
  8
ceco.net 155
100
AcDbLine
 10
28.19817823962512
 20
255.9281641320012
 30
0.0
 11
17.2810137502056
 21
244.876590620508
 31
0.0
  0
LINE
  5
C60
330
1F
100
AcDbEntity
  8
ceco.net 155
100
AcDbLine
 10
20.37281328880272
 20
253.6707425438216
 30
0.0
 11
26.9236906708029
 21
266.3138138343601
 31
0.0
  0
LINE
  5
C61
330
1F
100
AcDbEntity
  8
ceco.net 155
100
AcDbLine
 10
26.9236906708029
 20
266.3138138343601
 30
0.0
 11
26.59760167641798
 21
267.8923156356359
 31
0.0
  0
LINE
  5
C62
330
1F
100
AcDbEntity
  8
ceco.net 155
100
AcDbLine
 10
26.06995552077569
 20
270.4464969218643
 30
0.0
 11
20.4523591895122
 21
278.5662370538375
 31
0.0
  0
LINE
  5
C63
330
1F
100
AcDbEntity
  8
ceco.net 155
100
AcDbLine
 10
20.4523591895122
 20
278.5662370538375
 30
0.0
 11
14.71594704475501
 21
275.4155404488774
 31
0.0
  0
LINE
  5
C64
330
1F
100
AcDbEntity
  8
ceco.net 155
100
AcDbLine
 10
14.71594704475501
 20
275.4155404488774
 30
0.0
 11
7.842387924887589
 21
261.0551134795278
 31
0.0
  0
LINE
  5
C65
330
1F
100
AcDbEntity
  8
ceco.net 155
100
AcDbLine
 10
7.842387924887589
 20
261.0551134795278
 30
0.0
 11
8.563877413911541
 21
250.9729461752395
 31
0.0
  0
LINE
  5
C66
330
1F
100
AcDbEntity
  8
ceco.net 155
100
AcDbLine
 10
8.563877413911541
 20
250.9729461752395
 30
0.0
 11
8.384256296900275
 21
229.6068628211287
 31
0.0
  0
LINE
  5
C67
330
1F
100
AcDbEntity
  8
ceco.net 155
100
AcDbLine
 10
8.384256296900275
 20
229.6068628211287
 30
0.0
 11
7.813697469715407
 21
217.9482543434569
 31
0.0
  0
LINE
  5
C68
330
1F
100
AcDbEntity
  8
ceco.net 155
100
AcDbLine
 10
7.803130519772821
 20
217.9181982670488
 30
0.0
 11
7.28115386124773
 21
248.2119995697757
 31
0.0
  0
LINE
  5
C69
330
1F
100
AcDbEntity
  8
ceco.net 155
100
AcDbLine
 10
7.28115386124773
 20
248.2119995697757
 30
0.0
 11
6.161826784882578
 21
263.2172323417325
 31
0.0
  0
LINE
  5
C6A
330
1F
100
AcDbEntity
  8
ceco.net 155
100
AcDbLine
 10
6.161826784882578
 20
263.2172323417325
 30
0.0
 11
12.74408435353325
 21
280.8592536457581
 31
0.0
  0
LINE
  5
C6B
330
1F
100
AcDbEntity
  8
ceco.net 155
100
AcDbLine
 10
12.74408435353325
 20
280.8592536457581
 30
0.0
 11
27.91126673986946
 21
290.7456741231726
 31
0.0
  0
LINE
  5
C6C
330
1F
100
AcDbEntity
  8
ceco.net 155
100
AcDbLine
 10
27.91126673986946
 20
290.7456741231726
 30
0.0
 11
34.71523301229535
 21
290.7295040699245
 31
0.0
  0
LINE
  5
C6D
330
1F
100
AcDbEntity
  8
ceco.net 155
100
AcDbLine
 10
55.8486263508421
 20
290.6792792331325
 30
0.0
 11
79.02736810973874
 21
280.671050287423
 31
0.0
  0
LINE
  5
C6E
330
1F
100
AcDbEntity
  8
ceco.net 155
100
AcDbLine
 10
79.02736810973874
 20
280.671050287423
 30
0.0
 11
95.89498434736015
 21
255.4513056195464
 31
0.0
  0
LINE
  5
C6F
330
1F
100
AcDbEntity
  8
ceco.net 155
100
AcDbLine
 10
95.89498434736015
 20
255.4513056195464
 30
0.0
 11
81.30271319891472
 21
275.7803351703405
 31
0.0
  0
LINE
  5
C70
330
1F
100
AcDbEntity
  8
ceco.net 155
100
AcDbLine
 10
81.30271319891472
 20
275.7803351703405
 30
0.0
 11
62.73546692200034
 21
286.1027804990517
 31
0.0
  0
LINE
  5
C71
330
1F
100
AcDbEntity
  8
ceco.net 155
100
AcDbLine
 10
62.73546692200034
 20
286.1027804990517
 30
0.0
 11
42.19620955786377
 21
288.2529658412531
 31
0.0
  0
LINE
  5
C72
330
1F
100
AcDbEntity
  8
ceco.net 155
100
AcDbLine
 10
42.19620955786377
 20
288.2529658412531
 30
0.0
 11
34.72553183690616
 21
289.2802145545246
 31
0.0
  0
LINE
  5
C73
330
1F
100
AcDbEntity
  8
ceco.net 155
100
AcDbLine
 10
22.97876575330155
 20
290.895442890589
 30
0.0
 11
18.80516828997497
 21
288.7769534013786
 31
0.0
  0
LINE
  5
C74
330
1F
100
AcDbEntity
  8
ceco.net 155
100
AcDbLine
 10
11.80807593045028
 20
285.2252772397623
 30
0.0
 11
8.382104553398676
 21
279.688556785004
 31
0.0
  0
LINE
  5
C75
330
1F
100
AcDbEntity
  8
ceco.net 155
100
AcDbLine
 10
8.382104553398676
 20
279.688556785004
 30
0.0
 11
16.35087638277764
 21
294.0678547921597
 31
0.0
  0
LINE
  5
C76
330
1F
100
AcDbEntity
  8
ceco.net 155
100
AcDbLine
 10
19.80961686854425
 20
296.4178570376789
 30
0.0
 11
33.36725971434498
 21
305.629444684313
 31
0.0
  0
LINE
  5
C77
330
1F
100
AcDbEntity
  8
ceco.net 155
100
AcDbLine
 10
33.36725971434498
 20
305.629444684313
 30
0.0
 11
45.13812521151339
 21
308.2580961634012
 31
0.0
  0
LINE
  5
C78
330
1F
100
AcDbEntity
  8
ceco.net 155
100
AcDbLine
 10
45.13812521151339
 20
308.2580961634012
 30
0.0
 11
45.27392946821055
 21
308.1175266601676
 31
0.0
  0
LINE
  5
C79
330
1F
100
AcDbEntity
  8
ceco.net 155
100
AcDbLine
 10
52.94614696169446
 20
300.1760981070438
 30
0.0
 11
63.08897117339075
 21
297.377261029851
 31
0.0
  0
LINE
  5
C7A
330
1F
100
AcDbEntity
  8
ceco.net 155
100
AcDbLine
 10
63.08897117339075
 20
297.377261029851
 30
0.0
 11
57.94349704553315
 21
309.8872875187917
 31
0.0
  0
LINE
  5
C7B
330
1F
100
AcDbEntity
  8
ceco.net 155
100
AcDbLine
 10
57.94349704553315
 20
309.8872875187917
 30
0.0
 11
50.05456903062077
 21
319.9337144774653
 31
0.0
  0
LINE
  5
C7C
330
1F
100
AcDbEntity
  8
ceco.net 155
100
AcDbLine
 10
39.15241994024473
 20
319.7500361283637
 30
0.0
 11
35.87883903407419
 21
318.8191747929085
 31
0.0
  0
LINE
  5
C7D
330
1F
100
AcDbEntity
  8
ceco.net 155
100
AcDbLine
 10
35.87883903407419
 20
318.8191747929085
 30
0.0
 11
21.20264988907001
 21
312.2278279629426
 31
0.0
  0
LINE
  5
C7E
330
1F
100
AcDbEntity
  8
ceco.net 155
100
AcDbLine
 10
17.49226026831456
 20
312.3956148392426
 30
0.0
 11
12.43151269415466
 21
312.6244660149968
 31
0.0
  0
LINE
  5
C7F
330
1F
100
AcDbEntity
  8
ceco.net 155
100
AcDbLine
 10
12.43151269415466
 20
312.6244660149968
 30
0.0
 11
7.838888250098534
 21
311.2150369225892
 31
0.0
  0
LINE
  5
C80
330
1F
100
AcDbEntity
  8
ceco.net 155
100
AcDbLine
 10
7.838888250098534
 20
311.2150369225892
 30
0.0
 11
5.010347219529649
 21
298.2546035266313
 31
0.0
  0
LINE
  5
C81
330
1F
100
AcDbEntity
  8
ceco.net 155
100
AcDbLine
 10
5.010347219529649
 20
298.2546035266313
 30
0.0
 11
0.5552117654078757
 21
288.8657675507602
 31
0.0
  0
LINE
  5
C82
330
1F
100
AcDbEntity
  8
ceco.net 155
100
AcDbLine
 10
0.5552117654078757
 20
288.8657675507602
 30
0.0
 11
0.3784349070847384
 21
280.9591984215549
 31
0.0
  0
LINE
  5
C83
330
1F
100
AcDbEntity
  8
ceco.net 155
100
AcDbLine
 10
0.3784349070847384
 20
280.9591984215549
 30
0.0
 11
1.997992882086691
 21
250.5468020311818
 31
0.0
  0
LINE
  5
C84
330
1F
100
AcDbEntity
  8
ceco.net 155
100
AcDbLine
 10
1.997992882086691
 20
250.5468020311818
 30
0.0
 11
1.239037465569708
 21
233.4210785853283
 31
0.0
  0
LINE
  5
C85
330
1F
100
AcDbEntity
  8
ceco.net 155
100
AcDbLine
 10
0.7940615703919321
 20
230.5307961113649
 30
0.0
 11
-2.660680194418091
 21
252.9706174220809
 31
0.0
  0
LINE
  5
C86
330
1F
100
AcDbEntity
  8
ceco.net 155
100
AcDbLine
 10
-2.660680194418091
 20
252.9706174220809
 30
0.0
 11
-5.695256848463031
 21
270.1339252623729
 31
0.0
  0
LINE
  5
C87
330
1F
100
AcDbEntity
  8
ceco.net 155
100
AcDbLine
 10
-5.695256848463031
 20
270.1339252623729
 30
0.0
 11
-8.553106109440705
 21
290.6651445042625
 31
0.0
  0
LINE
  5
C88
330
1F
100
AcDbEntity
  8
ceco.net 155
100
AcDbLine
 10
-8.553106109440705
 20
290.6651445042625
 30
0.0
 11
-12.50912764504028
 21
294.5100953390938
 31
0.0
  0
LINE
  5
C89
330
1F
100
AcDbEntity
  8
ceco.net 155
100
AcDbLine
 10
-15.66791577453477
 20
302.5749474288095
 30
0.0
 11
-18.2571601418931
 21
331.5806090138285
 31
0.0
  0
LINE
  5
C8A
330
1F
100
AcDbEntity
  8
ceco.net 155
100
AcDbLine
 10
-18.2571601418931
 20
331.5806090138285
 30
0.0
 11
-20.41236779449172
 21
345.1571021114032
 31
0.0
  0
LINE
  5
C8B
330
1F
100
AcDbEntity
  8
ceco.net 155
100
AcDbLine
 10
-26.16299312062983
 20
346.5152573587474
 30
0.0
 11
-33.19350002271312
 21
340.087551679062
 31
0.0
  0
LINE
  5
C8C
330
1F
100
AcDbEntity
  8
ceco.net 155
100
AcDbLine
 10
-33.19350002271312
 20
340.087551679062
 30
0.0
 11
-44.12830187259896
 21
320.7272271595247
 31
0.0
  0
LINE
  5
C8D
330
1F
100
AcDbEntity
  8
ceco.net 155
100
AcDbLine
 10
-44.12830187259896
 20
320.7272271595247
 30
0.0
 11
-50.95468339794024
 21
303.6287684163871
 31
0.0
  0
LINE
  5
C8E
330
1F
100
AcDbEntity
  8
ceco.net 155
100
AcDbLine
 10
-50.95468339794024
 20
303.6287684163871
 30
0.0
 11
-52.03352307062596
 21
320.825774538549
 31
0.0
  0
LINE
  5
C8F
330
1F
100
AcDbEntity
  8
ceco.net 155
100
AcDbLine
 10
-52.03352307062596
 20
320.825774538549
 30
0.0
 11
-46.72445460499147
 21
344.2365583380269
 31
0.0
  0
LINE
  5
C90
330
1F
100
AcDbEntity
  8
ceco.net 155
100
AcDbLine
 10
-46.72445460499147
 20
344.2365583380269
 30
0.0
 11
-39.22241325397408
 21
353.9126520712452
 31
0.0
  0
LINE
  5
C91
330
1F
100
AcDbEntity
  8
ceco.net 155
100
AcDbLine
 10
-39.22241325397408
 20
353.9126520712452
 30
0.0
 11
-26.91472485224221
 21
357.1765749032929
 31
0.0
  0
LINE
  5
C92
330
1F
100
AcDbEntity
  8
ceco.net 155
100
AcDbLine
 10
-26.91472485224221
 20
357.1765749032929
 30
0.0
 11
-29.53129441521742
 21
363.7047173594983
 31
0.0
  0
LINE
  5
C93
330
1F
100
AcDbEntity
  8
ceco.net 155
100
AcDbLine
 10
-29.53129441521742
 20
363.7047173594983
 30
0.0
 11
-33.87877458926595
 21
378.7474858624664
 31
0.0
  0
LINE
  5
C94
330
1F
100
AcDbEntity
  8
ceco.net 155
100
AcDbLine
 10
-30.21888776088963
 20
389.9857785935419
 30
0.0
 11
-30.11629658799938
 21
397.6563113537849
 31
0.0
  0
LINE
  5
C95
330
1F
100
AcDbEntity
  8
ceco.net 155
100
AcDbLine
 10
-30.11629658799938
 20
397.6563113537849
 30
0.0
 11
-38.51790275239909
 21
394.7727030025598
 31
0.0
  0
LINE
  5
C96
330
1F
100
AcDbEntity
  8
ceco.net 155
100
AcDbLine
 10
-38.51790275239909
 20
394.7727030025598
 30
0.0
 11
-48.17382698200162
 21
396.5626444370391
 31
0.0
  0
LINE
  5
C97
330
1F
100
AcDbEntity
  8
ceco.net 155
100
AcDbLine
 10
-48.17382698200162
 20
396.5626444370391
 30
0.0
 11
-54.14088377068037
 21
393.1732156005418
 31
0.0
  0
LINE
  5
C98
330
1F
100
AcDbEntity
  8
ceco.net 155
100
AcDbLine
 10
-54.14088377068037
 20
393.1732156005418
 30
0.0
 11
-62.29177471817092
 21
375.7389241087621
 31
0.0
  0
LINE
  5
C99
330
1F
100
AcDbEntity
  8
ceco.net 155
100
AcDbLine
 10
-62.29177471817092
 20
375.7389241087621
 30
0.0
 11
-68.17950142311019
 21
349.5793250854148
 31
0.0
  0
LINE
  5
C9A
330
1F
100
AcDbEntity
  8
ceco.net 155
100
AcDbLine
 10
-68.17950142311019
 20
349.5793250854148
 30
0.0
 11
-69.0052762740197
 21
320.2985850143704
 31
0.0
  0
LINE
  5
C9B
330
1F
100
AcDbEntity
  8
ceco.net 155
100
AcDbLine
 10
-69.0052762740197
 20
320.2985850143704
 30
0.0
 11
-59.16843246159988
 21
335.2578397268662
 31
0.0
  0
LINE
  5
C9C
330
1F
100
AcDbEntity
  8
ceco.net 155
100
AcDbLine
 10
-59.16843246159988
 20
335.2578397268662
 30
0.0
 11
-46.90372946441129
 21
354.6410790781919
 31
0.0
  0
LINE
  5
C9D
330
1F
100
AcDbEntity
  8
ceco.net 155
100
AcDbLine
 10
-46.90372946441129
 20
354.6410790781919
 30
0.0
 11
-35.42132125988428
 21
374.0108391166359
 31
0.0
  0
LINE
  5
C9E
330
1F
100
AcDbEntity
  8
ceco.net 155
100
AcDbLine
 10
-35.42132125988428
 20
374.0108391166359
 30
0.0
 11
-30.21888776088963
 21
389.9857785935419
 31
0.0
  0
LINE
  5
C9F
330
1F
100
AcDbEntity
  8
ceco.net 155
100
AcDbLine
 10
-2.435140911609778
 20
283.0619917608637
 30
0.0
 11
-6.810193873370735
 21
316.6750736908179
 31
0.0
  0
LINE
  5
CA0
330
1F
100
AcDbEntity
  8
ceco.net 155
100
AcDbLine
 10
-6.810193873370735
 20
316.6750736908179
 30
0.0
 11
-8.347676436806068
 21
328.6994986635836
 31
0.0
  0
LINE
  5
CA1
330
1F
100
AcDbEntity
  8
ceco.net 155
100
AcDbLine
 10
-8.347676436806068
 20
328.6994986635836
 30
0.0
 11
-15.57978527551313
 21
335.1481131746841
 31
0.0
  0
LINE
  5
CA2
330
1F
100
AcDbEntity
  8
ceco.net 155
100
AcDbLine
 10
-15.57978527551313
 20
335.1481131746841
 30
0.0
 11
-19.75124263884208
 21
346.5065089694362
 31
0.0
  0
LINE
  5
CA3
330
1F
100
AcDbEntity
  8
ceco.net 155
100
AcDbLine
 10
-25.6842514459422
 20
356.6094261331381
 30
0.0
 11
-26.37655401638767
 21
357.7336167769572
 31
0.0
  0
LINE
  5
CA4
330
1F
100
AcDbEntity
  8
ceco.net 155
100
AcDbLine
 10
-26.37655401638767
 20
357.7336167769572
 30
0.0
 11
-37.00348341674907
 21
370.4622059937064
 31
0.0
  0
LINE
  5
CA5
330
1F
100
AcDbEntity
  8
ceco.net 155
100
AcDbLine
 10
-39.9219895850183
 20
394.5137518018127
 30
0.0
 11
-48.86735617190424
 21
373.2313885827825
 31
0.0
  0
LINE
  5
CA6
330
1F
100
AcDbEntity
  8
ceco.net 155
100
AcDbLine
 10
-48.86735617190424
 20
373.2313885827825
 30
0.0
 11
-56.76064384993515
 21
354.4712397376788
 31
0.0
  0
LINE
  5
CA7
330
1F
100
AcDbEntity
  8
ceco.net 155
100
AcDbLine
 10
-56.76064384993515
 20
354.4712397376788
 30
0.0
 11
-67.50803378730052
 21
328.7756753301219
 31
0.0
  0
LINE
  5
CA8
330
1F
100
AcDbEntity
  8
ceco.net 155
100
AcDbLine
 10
-28.52384563464511
 20
355.1925313652209
 30
0.0
 11
-38.47666100198694
 21
342.4223541404681
 31
0.0
  0
LINE
  5
CA9
330
1F
100
AcDbEntity
  8
ceco.net 155
100
AcDbLine
 10
-38.47666100198694
 20
342.4223541404681
 30
0.0
 11
-46.1284711205335
 21
327.8137594206782
 31
0.0
  0
LINE
  5
CAA
330
1F
100
AcDbEntity
  8
ceco.net 155
100
AcDbLine
 10
-46.1284711205335
 20
327.8137594206782
 30
0.0
 11
-50.59578742150915
 21
314.5903310303328
 31
0.0
  0
LINE
  5
CAB
330
1F
100
AcDbEntity
  8
ceco.net 155
100
AcDbLine
 10
3.089359659221372
 20
268.9549924177772
 30
0.0
 11
12.57304547795502
 21
304.4103706937458
 31
0.0
  0
LINE
  5
CAC
330
1F
100
AcDbEntity
  8
ceco.net 155
100
AcDbLine
 10
12.57304547795502
 20
304.4103706937458
 30
0.0
 11
16.85603928588898
 21
305.2684349012597
 31
0.0
  0
LINE
  5
CAD
330
1F
100
AcDbEntity
  8
ceco.net 155
100
AcDbLine
 10
23.25678585322748
 20
306.550774259449
 30
0.0
 11
40.61978538363109
 21
316.162018895513
 31
0.0
  0
LINE
  5
CAE
330
1F
100
AcDbEntity
  8
ceco.net 155
100
AcDbLine
 10
40.61978538363109
 20
316.162018895513
 30
0.0
 11
41.34999155736295
 21
315.8591837611165
 31
0.0
  0
LINE
  5
CAF
330
1F
100
AcDbEntity
  8
ceco.net 155
100
AcDbLine
 10
-7.413979261211352
 20
226.8933967788725
 30
0.0
 11
-22.43232161406922
 21
269.6107795320604
 31
0.0
  0
LINE
  5
CB0
330
1F
100
AcDbEntity
  8
ceco.net 155
100
AcDbLine
 10
-22.43232161406922
 20
269.6107795320604
 30
0.0
 11
-40.43539063791832
 21
315.3131684506443
 31
0.0
  0
LINE
  5
CB1
330
1F
100
AcDbEntity
  8
ceco.net 155
100
AcDbLine
 10
-40.43539063791832
 20
315.3131684506443
 30
0.0
 11
-43.03713295694615
 21
320.9807866351184
 31
0.0
  0
LINE
  5
CB2
330
1F
100
AcDbEntity
  8
ceco.net 155
100
AcDbLine
 10
-8.095857410458847
 20
215.1196166050394
 30
0.0
 11
-21.78376880981886
 21
250.1370309239537
 31
0.0
  0
LINE
  5
CB3
330
1F
100
AcDbEntity
  8
ceco.net 155
100
AcDbLine
 10
-21.78376880981886
 20
250.1370309239537
 30
0.0
 11
-24.30443739097609
 21
269.2655112645079
 31
0.0
  0
LINE
  5
CB4
330
1F
100
AcDbEntity
  8
ceco.net 155
100
AcDbLine
 10
-24.30443739097609
 20
269.2655112645079
 30
0.0
 11
-35.0083967353421
 21
268.2985498875059
 31
0.0
  0
LINE
  5
CB5
330
1F
100
AcDbEntity
  8
ceco.net 155
100
AcDbLine
 10
-35.0083967353421
 20
268.2985498875059
 30
0.0
 11
-41.58140255836406
 21
264.046479630997
 31
0.0
  0
LINE
  5
CB6
330
1F
100
AcDbEntity
  8
ceco.net 155
100
AcDbLine
 10
-52.78148244488694
 20
256.5352685174184
 30
0.0
 11
-69.26511785132607
 21
240.0068327475564
 31
0.0
  0
LINE
  5
CB7
330
1F
100
AcDbEntity
  8
ceco.net 155
100
AcDbLine
 10
-69.26511785132607
 20
240.0068327475564
 30
0.0
 11
-59.21510303613104
 21
260.7604606496352
 31
0.0
  0
LINE
  5
CB8
330
1F
100
AcDbEntity
  8
ceco.net 155
100
AcDbLine
 10
-59.21510303613104
 20
260.7604606496352
 30
0.0
 11
-58.6652898212451
 21
261.0565385297486
 31
0.0
  0
LINE
  5
CB9
330
1F
100
AcDbEntity
  8
ceco.net 155
100
AcDbLine
 10
-45.10404335240309
 20
268.3593551909107
 30
0.0
 11
-24.09805550990495
 21
270.3921840311304
 31
0.0
  0
LINE
  5
CBA
330
1F
100
AcDbEntity
  8
ceco.net 155
100
AcDbLine
 10
-24.09805550990495
 20
270.3921840311304
 30
0.0
 11
-50.10798469646033
 21
272.6552863586003
 31
0.0
  0
LINE
  5
CBB
330
1F
100
AcDbEntity
  8
ceco.net 155
100
AcDbLine
 10
-50.10798469646033
 20
272.6552863586003
 30
0.0
 11
-50.14527845587145
 21
272.6420210510259
 31
0.0
  0
LINE
  5
CBC
330
1F
100
AcDbEntity
  8
ceco.net 155
100
AcDbLine
 10
-66.98538271069264
 20
266.6520332869586
 30
0.0
 11
-82.66782110109124
 21
254.8786697886971
 31
0.0
  0
LINE
  5
CBD
330
1F
100
AcDbEntity
  8
ceco.net 155
100
AcDbLine
 10
-82.66782110109124
 20
254.8786697886971
 30
0.0
 11
-67.12382267142675
 21
267.5562942963115
 31
0.0
  0
LINE
  5
CBE
330
1F
100
AcDbEntity
  8
ceco.net 155
100
AcDbLine
 10
-58.35982209333088
 20
274.7041789938303
 30
0.0
 11
-53.38108947703222
 21
275.5367929821332
 31
0.0
  0
LINE
  5
CBF
330
1F
100
AcDbEntity
  8
ceco.net 155
100
AcDbLine
 10
-40.10130154352373
 20
277.7576266856849
 30
0.0
 11
-24.08861999099826
 21
270.3647677677763
 31
0.0
  0
LINE
  5
CC0
330
1F
100
AcDbEntity
  8
ceco.net 155
100
AcDbLine
 10
-24.08861999099826
 20
270.3647677677763
 30
0.0
 11
-31.58492335938353
 21
292.1463602117473
 31
0.0
  0
LINE
  5
CC1
330
1F
100
AcDbEntity
  8
ceco.net 155
100
AcDbLine
 10
-31.58492335938353
 20
292.1463602117473
 30
0.0
 11
-39.5681761752312
 21
310.398190570595
 31
0.0
  0
LINE
  5
CC2
330
1F
100
AcDbEntity
  8
ceco.net 155
100
AcDbLine
 10
-39.5681761752312
 20
310.398190570595
 30
0.0
 11
-44.62140392409128
 21
319.492124044882
 31
0.0
  0
LINE
  5
CC3
330
1F
100
AcDbEntity
  8
ceco.net 155
100
AcDbLine
 10
-67.45280640137571
 20
352.8080840501934
 30
0.0
 11
-77.63169016896426
 21
357.7112460643547
 31
0.0
  0
LINE
  5
CC4
330
1F
100
AcDbEntity
  8
ceco.net 155
100
AcDbLine
 10
-77.63169016896426
 20
357.7112460643547
 30
0.0
 11
-95.45318419377872
 21
356.543393462176
 31
0.0
  0
LINE
  5
CC5
330
1F
100
AcDbEntity
  8
ceco.net 155
100
AcDbLine
 10
-95.45318419377872
 20
356.543393462176
 30
0.0
 11
-109.0624671861005
 21
351.6137367342926
 31
0.0
  0
LINE
  5
CC6
330
1F
100
AcDbEntity
  8
ceco.net 155
100
AcDbLine
 10
-109.0624671861005
 20
351.6137367342926
 30
0.0
 11
-127.1134063197751
 21
336.5129492380001
 31
0.0
  0
LINE
  5
CC7
330
1F
100
AcDbEntity
  8
ceco.net 155
100
AcDbLine
 10
-127.1134063197751
 20
336.5129492380001
 30
0.0
 11
-114.8691201532819
 21
338.9149998670291
 31
0.0
  0
LINE
  5
CC8
330
1F
100
AcDbEntity
  8
ceco.net 155
100
AcDbLine
 10
-114.8691201532819
 20
338.9149998670291
 30
0.0
 11
-105.1685657955022
 21
348.1594588004118
 31
0.0
  0
LINE
  5
CC9
330
1F
100
AcDbEntity
  8
ceco.net 155
100
AcDbLine
 10
-105.1685657955022
 20
348.1594588004118
 30
0.0
 11
-96.45808550799849
 21
351.2831473145743
 31
0.0
  0
LINE
  5
CCA
330
1F
100
AcDbEntity
  8
ceco.net 155
100
AcDbLine
 10
-96.45808550799849
 20
351.2831473145743
 30
0.0
 11
-79.30026832348812
 21
345.5533264300356
 31
0.0
  0
LINE
  5
CCB
330
1F
100
AcDbEntity
  8
ceco.net 155
100
AcDbLine
 10
-79.30026832348812
 20
345.5533264300356
 30
0.0
 11
-68.83509067591148
 21
342.2122747232388
 31
0.0
  0
LINE
  5
CCC
330
1F
100
AcDbEntity
  8
ceco.net 155
100
AcDbLine
 10
-68.83509067591148
 20
342.2122747232388
 30
0.0
 11
-68.39201700974445
 21
342.0438405083332
 31
0.0
  0
LINE
  5
CCD
330
1F
100
AcDbEntity
  8
ceco.net 155
100
AcDbLine
 10
-70.21895853943715
 20
340.7798813337904
 30
0.0
 11
-84.82625479342095
 21
343.814804245314
 31
0.0
  0
LINE
  5
CCE
330
1F
100
AcDbEntity
  8
ceco.net 155
100
AcDbLine
 10
-84.82625479342095
 20
343.814804245314
 30
0.0
 11
-102.8743496684037
 21
342.1735309739233
 31
0.0
  0
LINE
  5
CCF
330
1F
100
AcDbEntity
  8
ceco.net 155
100
AcDbLine
 10
-102.8743496684037
 20
342.1735309739233
 30
0.0
 11
-115.6514149457107
 21
338.90152055426
 31
0.0
  0
LINE
  5
CD0
330
1F
100
AcDbEntity
  8
ceco.net 155
100
AcDbLine
 10
-115.6514149457107
 20
338.90152055426
 30
0.0
 11
-132.9820641255355
 21
327.4127684162522
 31
0.0
  0
LINE
  5
CD1
330
1F
100
AcDbEntity
  8
ceco.net 155
100
AcDbLine
 10
-132.9820641255355
 20
327.4127684162522
 30
0.0
 11
-140.7161475171342
 21
313.037514202846
 31
0.0
  0
LINE
  5
CD2
330
1F
100
AcDbEntity
  8
ceco.net 155
100
AcDbLine
 10
-140.7161475171342
 20
313.037514202846
 30
0.0
 11
-144.9500738462411
 21
304.4350168132732
 31
0.0
  0
LINE
  5
CD3
330
1F
100
AcDbEntity
  8
ceco.net 155
100
AcDbLine
 10
-144.9500738462411
 20
304.4350168132732
 30
0.0
 11
-130.9441528018687
 21
318.1358107360683
 31
0.0
  0
LINE
  5
CD4
330
1F
100
AcDbEntity
  8
ceco.net 155
100
AcDbLine
 10
-130.9441528018687
 20
318.1358107360683
 30
0.0
 11
-110.3750430882501
 21
332.4192077612933
 31
0.0
  0
LINE
  5
CD5
330
1F
100
AcDbEntity
  8
ceco.net 155
100
AcDbLine
 10
-110.3750430882501
 20
332.4192077612933
 30
0.0
 11
-92.37951753294328
 21
337.1114307235548
 31
0.0
  0
LINE
  5
CD6
330
1F
100
AcDbEntity
  8
ceco.net 155
100
AcDbLine
 10
-92.37951753294328
 20
337.1114307235548
 30
0.0
 11
-68.52599878301044
 21
337.2930473920823
 31
0.0
  0
LINE
  5
CD7
330
1F
100
AcDbEntity
  8
ceco.net 155
100
AcDbLine
 10
-67.46417037236824
 20
516.9741860390786
 30
0.0
 11
-67.31420374347362
 21
540.0613179366482
 31
0.0
  0
LINE
  5
CD8
330
1F
100
AcDbEntity
  8
ceco.net 155
100
AcDbLine
 10
-67.31420374347362
 20
540.0613179366482
 30
0.0
 11
-73.97159920577178
 21
558.5707515648428
 31
0.0
  0
LINE
  5
CD9
330
1F
100
AcDbEntity
  8
ceco.net 155
100
AcDbLine
 10
-73.97159920577178
 20
558.5707515648428
 30
0.0
 11
-79.10763781472269
 21
570.5331716990258
 31
0.0
  0
LINE
  5
CDA
330
1F
100
AcDbEntity
  8
ceco.net 155
100
AcDbLine
 10
-71.77612831929582
 20
526.5249716292164
 30
0.0
 11
-78.4685205294918
 21
551.6070294456767
 31
0.0
  0
LINE
  5
CDB
330
1F
100
AcDbEntity
  8
ceco.net 155
100
AcDbLine
 10
-78.4685205294918
 20
551.6070294456767
 30
0.0
 11
-84.78064772423749
 21
568.2443472970808
 31
0.0
  0
LINE
  5
CDC
330
1F
100
AcDbEntity
  8
ceco.net 155
100
AcDbLine
 10
-62.15884884809566
 20
508.4429178656464
 30
0.0
 11
-63.28760404556305
 21
526.604612199244
 31
0.0
  0
LINE
  5
CDD
330
1F
100
AcDbEntity
  8
ceco.net 155
100
AcDbLine
 10
-63.66582370622563
 20
532.6901743152375
 30
0.0
 11
-64.8821523688457
 21
557.8665873208592
 31
0.0
  0
LINE
  5
CDE
330
1F
100
AcDbEntity
  8
ceco.net 155
100
AcDbLine
 10
-64.8821523688457
 20
557.8665873208592
 30
0.0
 11
-71.60035313466505
 21
566.2803743321092
 31
0.0
  0
LINE
  5
CDF
330
1F
100
AcDbEntity
  8
ceco.net 155
100
AcDbLine
 10
-40.12812601188852
 20
397.1492262803621
 30
0.0
 11
-47.87404212009278
 21
429.1209350490134
 31
0.0
  0
LINE
  5
CE0
330
1F
100
AcDbEntity
  8
ceco.net 155
100
AcDbLine
 10
-47.87404212009278
 20
429.1209350490134
 30
0.0
 11
-62.66026697590496
 21
474.3309827949815
 31
0.0
  0
LINE
  5
CE1
330
1F
100
AcDbEntity
  8
ceco.net 155
100
AcDbLine
 10
-62.66026697590496
 20
474.3309827949815
 30
0.0
 11
-67.94715720450767
 21
488.396920075389
 31
0.0
  0
LINE
  5
CE2
330
1F
100
AcDbEntity
  8
ceco.net 155
100
AcDbLine
 10
-24.95436159255041
 20
380.9073565917278
 30
0.0
 11
-20.75981096271061
 21
395.0786834017235
 31
0.0
  0
LINE
  5
CE3
330
1F
100
AcDbEntity
  8
ceco.net 155
100
AcDbLine
 10
-20.75981096271061
 20
395.0786834017235
 30
0.0
 11
-12.11672723882657
 21
402.1138458783752
 31
0.0
  0
LINE
  5
CE4
330
1F
100
AcDbEntity
  8
ceco.net 155
100
AcDbLine
 10
-12.11672723882657
 20
402.1138458783752
 30
0.0
 11
2.367907269166607
 21
406.1978055784748
 31
0.0
  0
LINE
  5
CE5
330
1F
100
AcDbEntity
  8
ceco.net 155
100
AcDbLine
 10
2.367907269166607
 20
406.1978055784748
 30
0.0
 11
13.42382507215734
 21
400.3628460545769
 31
0.0
  0
LINE
  5
CE6
330
1F
100
AcDbEntity
  8
ceco.net 155
100
AcDbLine
 10
13.42382507215734
 20
400.3628460545769
 30
0.0
 11
22.50229059752018
 21
382.129886733539
 31
0.0
  0
LINE
  5
CE7
330
1F
100
AcDbEntity
  8
ceco.net 155
100
AcDbLine
 10
22.50229059752018
 20
382.129886733539
 30
0.0
 11
25.74324913241071
 21
366.6134417512694
 31
0.0
  0
LINE
  5
CE8
330
1F
100
AcDbEntity
  8
ceco.net 155
100
AcDbLine
 10
25.74324913241071
 20
366.6134417512694
 30
0.0
 11
26.60357554277288
 21
348.4736380843278
 31
0.0
  0
LINE
  5
CE9
330
1F
100
AcDbEntity
  8
ceco.net 155
100
AcDbLine
 10
26.60357554277288
 20
348.4736380843278
 30
0.0
 11
27.03376348058009
 21
341.673065114719
 31
0.0
  0
LINE
  5
CEA
330
1F
100
AcDbEntity
  8
ceco.net 155
100
AcDbLine
 10
27.03376348058009
 20
341.673065114719
 30
0.0
 11
18.51773155403498
 21
359.0549356828232
 31
0.0
  0
LINE
  5
CEB
330
1F
100
AcDbEntity
  8
ceco.net 155
100
AcDbLine
 10
18.51773155403498
 20
359.0549356828232
 30
0.0
 11
5.587150507672049
 21
378.3170590809277
 31
0.0
  0
LINE
  5
CEC
330
1F
100
AcDbEntity
  8
ceco.net 155
100
AcDbLine
 10
5.587150507672049
 20
378.3170590809277
 30
0.0
 11
-1.781099389681912
 21
392.6668509961928
 31
0.0
  0
LINE
  5
CED
330
1F
100
AcDbEntity
  8
ceco.net 155
100
AcDbLine
 10
-1.781099389681912
 20
392.6668509961928
 30
0.0
 11
-6.569223333877744
 21
398.0620386672635
 31
0.0
  0
LINE
  5
CEE
330
1F
100
AcDbEntity
  8
ceco.net 155
100
AcDbLine
 10
-6.569223333877744
 20
398.0620386672635
 30
0.0
 11
-13.88100851379931
 21
395.5102192708181
 31
0.0
  0
LINE
  5
CEF
330
1F
100
AcDbEntity
  8
ceco.net 155
100
AcDbLine
 10
-13.88100851379931
 20
395.5102192708181
 30
0.0
 11
-17.34207556938054
 21
387.4688075486592
 31
0.0
  0
LINE
  5
CF0
330
1F
100
AcDbEntity
  8
ceco.net 155
100
AcDbLine
 10
-17.34207556938054
 20
387.4688075486592
 30
0.0
 11
-23.55642451474705
 21
375.5086326381533
 31
0.0
  0
LINE
  5
CF1
330
1F
100
AcDbEntity
  8
ceco.net 155
100
AcDbLine
 10
-18.27514379769854
 20
349.4208171313585
 30
0.0
 11
-13.52337094118047
 21
333.3144815725281
 31
0.0
  0
LINE
  5
CF2
330
1F
100
AcDbEntity
  8
ceco.net 155
100
AcDbLine
 10
4.289884753980004
 20
405.1834473832532
 30
0.0
 11
4.090402674653887
 21
415.2265460427334
 31
0.0
  0
LINE
  5
CF3
330
1F
100
AcDbEntity
  8
ceco.net 155
100
AcDbLine
 10
4.090402674653887
 20
415.2265460427334
 30
0.0
 11
6.4751280585333
 21
422.1538740174546
 31
0.0
  0
LINE
  5
CF4
330
1F
100
AcDbEntity
  8
ceco.net 155
100
AcDbLine
 10
6.4751280585333
 20
422.1538740174546
 30
0.0
 11
13.0086622398885
 21
424.4575256634561
 31
0.0
  0
LINE
  5
CF5
330
1F
100
AcDbEntity
  8
ceco.net 155
100
AcDbLine
 10
13.0086622398885
 20
424.4575256634561
 30
0.0
 11
19.23871402306758
 21
426.2081792296631
 31
0.0
  0
LINE
  5
CF6
330
1F
100
AcDbEntity
  8
ceco.net 155
100
AcDbLine
 10
19.23871402306758
 20
426.2081792296631
 30
0.0
 11
24.01335865449073
 21
421.595286351021
 31
0.0
  0
LINE
  5
CF7
330
1F
100
AcDbEntity
  8
ceco.net 155
100
AcDbLine
 10
24.01335865449073
 20
421.595286351021
 30
0.0
 11
27.76957319367284
 21
407.9657843897185
 31
0.0
  0
LINE
  5
CF8
330
1F
100
AcDbEntity
  8
ceco.net 155
100
AcDbLine
 10
27.76957319367284
 20
407.9657843897185
 30
0.0
 11
26.33433554553266
 21
395.8901380285642
 31
0.0
  0
LINE
  5
CF9
330
1F
100
AcDbEntity
  8
ceco.net 155
100
AcDbLine
 10
26.33433554553266
 20
395.8901380285642
 30
0.0
 11
22.62239043745285
 21
381.5548955576559
 31
0.0
  0
LINE
  5
CFA
330
1F
100
AcDbEntity
  8
ceco.net 155
100
AcDbLine
 10
23.23536549187701
 20
378.6202101538256
 30
0.0
 11
28.80398059966683
 21
397.8890088105799
 31
0.0
  0
LINE
  5
CFB
330
1F
100
AcDbEntity
  8
ceco.net 155
100
AcDbLine
 10
28.80398059966683
 20
397.8890088105799
 30
0.0
 11
40.01124179992621
 21
411.5517811092249
 31
0.0
  0
LINE
  5
CFC
330
1F
100
AcDbEntity
  8
ceco.net 155
100
AcDbLine
 10
48.77465054815911
 20
421.7789071255319
 30
0.0
 11
52.65213718161612
 21
426.2361395287844
 31
0.0
  0
LINE
  5
CFD
330
1F
100
AcDbEntity
  8
ceco.net 155
100
AcDbLine
 10
52.65213718161612
 20
426.2361395287844
 30
0.0
 11
62.25549209142991
 21
427.4971477849503
 31
0.0
  0
LINE
  5
CFE
330
1F
100
AcDbEntity
  8
ceco.net 155
100
AcDbLine
 10
62.25549209142991
 20
427.4971477849503
 30
0.0
 11
76.82100247593189
 21
426.887338730241
 31
0.0
  0
LINE
  5
CFF
330
1F
100
AcDbEntity
  8
ceco.net 155
100
AcDbLine
 10
76.82100247593189
 20
426.887338730241
 30
0.0
 11
84.31610630913928
 21
418.7999489487301
 31
0.0
  0
LINE
  5
D00
330
1F
100
AcDbEntity
  8
ceco.net 155
100
AcDbLine
 10
84.31610630913928
 20
418.7999489487301
 30
0.0
 11
79.18531102922861
 21
416.8334779826655
 31
0.0
  0
LINE
  5
D01
330
1F
100
AcDbEntity
  8
ceco.net 155
100
AcDbLine
 10
79.18531102922861
 20
416.8334779826655
 30
0.0
 11
69.66163246062933
 21
424.5729036340454
 31
0.0
  0
LINE
  5
D02
330
1F
100
AcDbEntity
  8
ceco.net 155
100
AcDbLine
 10
69.66163246062933
 20
424.5729036340454
 30
0.0
 11
62.56566468056917
 21
423.1203407408647
 31
0.0
  0
LINE
  5
D03
330
1F
100
AcDbEntity
  8
ceco.net 155
100
AcDbLine
 10
62.56566468056917
 20
423.1203407408647
 30
0.0
 11
54.02637166475324
 21
410.0615083619922
 31
0.0
  0
LINE
  5
D04
330
1F
100
AcDbEntity
  8
ceco.net 155
100
AcDbLine
 10
54.02637166475324
 20
410.0615083619922
 30
0.0
 11
45.94841740214905
 21
402.0187981740273
 31
0.0
  0
LINE
  5
D05
330
1F
100
AcDbEntity
  8
ceco.net 155
100
AcDbLine
 10
45.94841740214905
 20
402.0187981740273
 30
0.0
 11
43.00487023227105
 21
398.859051631949
 31
0.0
  0
LINE
  5
D06
330
1F
100
AcDbEntity
  8
ceco.net 155
100
AcDbLine
 10
33.74547689606333
 20
389.420617876105
 30
0.0
 11
31.5036766872945
 21
387.3017958491691
 31
0.0
  0
LINE
  5
D07
330
1F
100
AcDbEntity
  8
ceco.net 155
100
AcDbLine
 10
25.25380168396441
 20
381.3947695357455
 30
0.0
 11
30.20996173503226
 21
385.5318899928897
 31
0.0
  0
LINE
  5
D08
330
1F
100
AcDbEntity
  8
ceco.net 155
100
AcDbLine
 10
48.70532021374675
 20
400.9707630591511
 30
0.0
 11
62.52507834626158
 21
411.8512519351061
 31
0.0
  0
LINE
  5
D09
330
1F
100
AcDbEntity
  8
ceco.net 155
100
AcDbLine
 10
62.52507834626158
 20
411.8512519351061
 30
0.0
 11
83.54729082936319
 21
418.0041748434196
 31
0.0
  0
LINE
  5
D0A
330
1F
100
AcDbEntity
  8
ceco.net 155
100
AcDbLine
 10
83.54729082936319
 20
418.0041748434196
 30
0.0
 11
100.5419588644326
 21
417.2014632204081
 31
0.0
  0
LINE
  5
D0B
330
1F
100
AcDbEntity
  8
ceco.net 155
100
AcDbLine
 10
100.5419588644326
 20
417.2014632204081
 30
0.0
 11
113.699338622333
 21
416.5673914026228
 31
0.0
  0
LINE
  5
D0C
330
1F
100
AcDbEntity
  8
ceco.net 155
100
AcDbLine
 10
113.699338622333
 20
416.5673914026228
 30
0.0
 11
131.9442314633706
 21
406.787160703745
 31
0.0
  0
LINE
  5
D0D
330
1F
100
AcDbEntity
  8
ceco.net 155
100
AcDbLine
 10
131.9442314633706
 20
406.787160703745
 30
0.0
 11
107.6797125139782
 21
416.2289122567708
 31
0.0
  0
LINE
  5
D0E
330
1F
100
AcDbEntity
  8
ceco.net 155
100
AcDbLine
 10
107.6797125139782
 20
416.2289122567708
 30
0.0
 11
93.4419472905065
 21
415.9835887650151
 31
0.0
  0
LINE
  5
D0F
330
1F
100
AcDbEntity
  8
ceco.net 155
100
AcDbLine
 10
93.4419472905065
 20
415.9835887650151
 30
0.0
 11
66.98141333556122
 21
407.545885248397
 31
0.0
  0
LINE
  5
D10
330
1F
100
AcDbEntity
  8
ceco.net 155
100
AcDbLine
 10
66.98141333556122
 20
407.545885248397
 30
0.0
 11
52.9134874526062
 21
397.4436473711211
 31
0.0
  0
LINE
  5
D11
330
1F
100
AcDbEntity
  8
ceco.net 155
100
AcDbLine
 10
52.9134874526062
 20
397.4436473711211
 30
0.0
 11
39.08968552634178
 21
386.79784693295
 31
0.0
  0
LINE
  5
D12
330
1F
100
AcDbEntity
  8
ceco.net 155
100
AcDbLine
 10
39.08968552634178
 20
386.79784693295
 30
0.0
 11
37.06412521966194
 21
385.3933326920487
 31
0.0
  0
LINE
  5
D13
330
1F
100
AcDbEntity
  8
ceco.net 155
100
AcDbLine
 10
23.76112148596439
 20
376.1030955814021
 30
0.0
 11
30.27903903314291
 21
380.367121297746
 31
0.0
  0
LINE
  5
D14
330
1F
100
AcDbEntity
  8
ceco.net 155
100
AcDbLine
 10
57.82711740136438
 20
398.3890913131072
 30
0.0
 11
75.61221728185046
 21
401.6691398550173
 31
0.0
  0
LINE
  5
D15
330
1F
100
AcDbEntity
  8
ceco.net 155
100
AcDbLine
 10
75.61221728185046
 20
401.6691398550173
 30
0.0
 11
99.7864248359474
 21
397.4687634116671
 31
0.0
  0
LINE
  5
D16
330
1F
100
AcDbEntity
  8
ceco.net 155
100
AcDbLine
 10
99.7864248359474
 20
397.4687634116671
 30
0.0
 11
110.5860378353972
 21
388.3427740341867
 31
0.0
  0
LINE
  5
D17
330
1F
100
AcDbEntity
  8
ceco.net 155
100
AcDbLine
 10
110.5860378353972
 20
388.3427740341867
 30
0.0
 11
127.4482623480871
 21
363.4359472832802
 31
0.0
  0
LINE
  5
D18
330
1F
100
AcDbEntity
  8
ceco.net 155
100
AcDbLine
 10
127.4482623480871
 20
363.4359472832802
 30
0.0
 11
113.4656023928691
 21
380.1758563075745
 31
0.0
  0
LINE
  5
D19
330
1F
100
AcDbEntity
  8
ceco.net 155
100
AcDbLine
 10
113.4656023928691
 20
380.1758563075745
 30
0.0
 11
95.71574658702592
 21
393.0164722161171
 31
0.0
  0
LINE
  5
D1A
330
1F
100
AcDbEntity
  8
ceco.net 155
100
AcDbLine
 10
95.71574658702592
 20
393.0164722161171
 30
0.0
 11
76.20700123113056
 21
398.9405436002489
 31
0.0
  0
LINE
  5
D1B
330
1F
100
AcDbEntity
  8
ceco.net 155
100
AcDbLine
 10
76.20700123113056
 20
398.9405436002489
 30
0.0
 11
60.026978339185
 21
397.8792270340818
 31
0.0
  0
LINE
  5
D1C
330
1F
100
AcDbEntity
  8
ceco.net 155
100
AcDbLine
 10
60.026978339185
 20
397.8792270340818
 30
0.0
 11
40.19837754851323
 21
386.0344231782182
 31
0.0
  0
LINE
  5
D1D
330
1F
100
AcDbEntity
  8
ceco.net 155
100
AcDbLine
 10
40.19837754851323
 20
386.0344231782182
 30
0.0
 11
38.77212232508827
 21
384.9077043298821
 31
0.0
  0
LINE
  5
D1E
330
1F
100
AcDbEntity
  8
ceco.net 155
100
AcDbLine
 10
30.86650582102811
 20
378.2931543689628
 30
0.0
 11
24.64332094650308
 21
371.8794687607696
 31
0.0
  0
LINE
  5
D1F
330
1F
100
AcDbEntity
  8
ceco.net 155
100
AcDbLine
 10
-4.296185375260392
 20
297.3602049664805
 30
0.0
 11
2.82026805809437
 21
329.9874655452877
 31
0.0
  0
LINE
  5
D20
330
1F
100
AcDbEntity
  8
ceco.net 155
100
AcDbLine
 10
2.82026805809437
 20
329.9874655452877
 30
0.0
 11
11.18567793952752
 21
353.1379007473551
 31
0.0
  0
LINE
  5
D21
330
1F
100
AcDbEntity
  8
ceco.net 155
100
AcDbLine
 10
11.18567793952752
 20
353.1379007473551
 30
0.0
 11
16.18154402507934
 21
362.5350524929454
 31
0.0
  0
LINE
  5
D22
330
1F
100
AcDbEntity
  8
ceco.net 155
100
AcDbLine
 10
2.778991541454161
 20
293.5522027397637
 30
0.0
 11
7.655569596812711
 21
321.8542461005454
 31
0.0
  0
LINE
  5
D23
330
1F
100
AcDbEntity
  8
ceco.net 155
100
AcDbLine
 10
7.655569596812711
 20
321.8542461005454
 30
0.0
 11
13.79281198359967
 21
347.157364645911
 31
0.0
  0
LINE
  5
D24
330
1F
100
AcDbEntity
  8
ceco.net 155
100
AcDbLine
 10
13.79281198359967
 20
347.157364645911
 30
0.0
 11
20.05866287135722
 21
355.9097773575122
 31
0.0
  0
LINE
  5
D25
330
1F
100
AcDbEntity
  8
ceco.net 155
100
AcDbLine
 10
-6.743905573723168
 20
316.1657875025412
 30
0.0
 11
-1.058608226965588
 21
350.7358501183261
 31
0.0
  0
LINE
  5
D26
330
1F
100
AcDbEntity
  8
ceco.net 155
100
AcDbLine
 10
-1.058608226965588
 20
350.7358501183261
 30
0.0
 11
5.985853963189583
 21
377.7231279086663
 31
0.0
  0
LINE
  5
D27
330
1F
100
AcDbEntity
  8
ceco.net 155
100
AcDbLine
 10
-1.25012628796685
 20
311.3256674699878
 30
0.0
 11
1.446033574957255
 21
346.1620967120798
 31
0.0
  0
LINE
  5
D28
330
1F
100
AcDbEntity
  8
ceco.net 155
100
AcDbLine
 10
1.446033574957255
 20
346.1620967120798
 30
0.0
 11
10.1315757291959
 21
371.5474267590944
 31
0.0
  0
LINE
  5
D29
330
1F
100
AcDbEntity
  8
ceco.net 155
100
AcDbLine
 10
-8.777488424522744
 20
230.771690497706
 30
0.0
 11
-16.6482743415072
 21
284.4130713801896
 31
0.0
  0
LINE
  5
D2A
330
1F
100
AcDbEntity
  8
ceco.net 155
100
AcDbLine
 10
-19.26599044246177
 20
302.4122395272352
 30
0.0
 11
-23.69330998388613
 21
338.4604489083903
 31
0.0
  0
LINE
  5
D2B
330
1F
100
AcDbEntity
  8
ceco.net 155
100
AcDbLine
 10
-21.32344920397008
 20
319.1645212485819
 30
0.0
 11
-28.31781001116906
 21
325.0687901290802
 31
0.0
  0
LINE
  5
D2C
330
1F
100
AcDbEntity
  8
ceco.net 155
100
AcDbLine
 10
-28.31781001116906
 20
325.0687901290802
 30
0.0
 11
-41.07284341014019
 21
326.1369884154919
 31
0.0
  0
LINE
  5
D2D
330
1F
100
AcDbEntity
  8
ceco.net 155
100
AcDbLine
 10
-19.40492545230154
 20
303.543478932057
 30
0.0
 11
-32.39672424381933
 21
307.4699026258276
 31
0.0
  0
LINE
  5
D2E
330
1F
100
AcDbEntity
  8
ceco.net 155
100
AcDbLine
 10
-32.39672424381933
 20
307.4699026258276
 30
0.0
 11
-36.93797890337737
 21
316.7037265052385
 31
0.0
  0
LINE
  5
D2F
330
1F
100
AcDbEntity
  8
ceco.net 155
100
AcDbLine
 10
-36.93797890337737
 20
316.7037265052385
 30
0.0
 11
-41.96079128524433
 21
322.0948703824433
 31
0.0
  0
POINT
  5
D30
330
1F
100
AcDbEntity
  8
ceco.net 155
100
AcDbPoint
 10
-93.83149903981758
 20
176.8693520436972
 30
0.0
  0
POINT
  5
D31
330
1F
100
AcDbEntity
  8
ceco.net 155
100
AcDbPoint
 10
51.14498402014579
 20
262.7228109743118
 30
0.0
  0
POINT
  5
D32
330
1F
100
AcDbEntity
  8
ceco.net 155
100
AcDbPoint
 10
22.95515252723635
 20
250.649662428259
 30
0.0
  0
POINT
  5
D33
330
1F
100
AcDbEntity
  8
ceco.net 155
100
AcDbPoint
 10
65.91105176227575
 20
237.2350947741797
 30
0.0
  0
POINT
  5
D34
330
1F
100
AcDbEntity
  8
ceco.net 155
100
AcDbPoint
 10
8.188981379767938
 20
223.8204643576864
 30
0.0
  0
POINT
  5
D35
330
1F
100
AcDbEntity
  8
ceco.net 155
100
AcDbPoint
 10
75.3075933230939
 20
250.6497251905566
 30
0.0
  0
POINT
  5
D36
330
1F
100
AcDbEntity
  8
ceco.net 155
100
AcDbPoint
 10
-56.24512598608998
 20
253.3326261689144
 30
0.0
  0
LINE
  5
D37
330
1F
100
AcDbEntity
  8
ceco.net 155
100
AcDbLine
 10
14.66577134198814
 20
255.4318375526927
 30
0.0
 11
20.07210980452146
 21
256.2849030332472
 31
0.0
  0
SPLINE
  5
D38
330
1F
100
AcDbEntity
  8
ceco.net 155
100
AcDbSpline
210
0.0
220
0.0
230
1.0
 70
     8
 71
     3
 72
    16
 73
    12
 74
     0
 42
0.0000000001
 43
0.0000000001
 40
0.3859899892264884
 40
0.3859899892264884
 40
0.3859899892264884
 40
0.3859899892264884
 40
0.5428831364818847
 40
0.5428831364818847
 40
1.085766272963769
 40
1.085766272963769
 40
2.715856199195814
 40
2.715856199195814
 40
3.453273035541654
 40
3.453273035541654
 40
4.111663599854418
 40
4.111663599854418
 40
4.111663599854418
 40
4.111663599854418
 10
124.5242779344334
 20
143.6202462516594
 30
0.0
 10
125.5794290964949
 20
144.0586770343106
 30
0.0
 10
126.6616805454032
 20
144.3745258384296
 30
0.0
 10
131.3871928425141
 20
145.2660529523673
 30
0.0
 10
135.1038360497295
 20
144.8972820473973
 30
0.0
 10
149.9044300554196
 20
141.0353972129341
 30
0.0
 10
161.3085214389175
 20
133.2981054307565
 30
0.0
 10
164.6434981384518
 20
116.9401914206682
 30
0.0
 10
161.8769015730722
 20
110.3087791676698
 30
0.0
 10
152.8641823668476
 20
105.4823857307383
 30
0.0
 10
148.2990291379501
 20
105.4151279398647
 30
0.0
 10
143.7908146085137
 20
106.2739751384942
 30
0.0
  0
ELLIPSE
  5
D39
330
1F
100
AcDbEntity
  8
ceco.net 155
100
AcDbEllipse
 10
140.1111922232921
 20
125.3700314989619
 30
0.0
 11
-15.63297876126377
 21
8.960363071414823
 31
0.0
210
0.0
220
0.0
230
-1.0
 40
0.5153880988495968
 41
0.5761140699274213
 42
4.356842127502297
  0
SPLINE
  5
D3A
330
1F
100
AcDbEntity
  8
ceco.net 155
100
AcDbSpline
210
0.0
220
0.0
230
1.0
 70
     8
 71
     3
 72
    10
 73
     6
 74
     0
 42
0.0000000001
 43
0.0000000001
 40
0.5107933460274646
 40
0.5107933460274646
 40
0.5107933460274646
 40
0.5107933460274646
 40
1.124479075742176
 40
1.124479075742176
 40
1.467534607574157
 40
1.467534607574157
 40
1.467534607574157
 40
1.467534607574157
 10
83.99948989614859
 20
205.2776501354856
 30
0.0
 10
74.69051442143973
 20
206.9948875420123
 30
0.0
 10
59.60473619388358
 20
208.4747834392146
 30
0.0
 10
31.81781127974682
 20
209.8493591609876
 30
0.0
 10
21.05711814887399
 20
210.1248012504001
 30
0.0
 10
10.10919652475058
 20
210.2064931030472
 30
0.0
  0
SPLINE
  5
D3B
330
1F
100
AcDbEntity
  8
ceco.net 155
100
AcDbSpline
210
0.0
220
0.0
230
1.0
 70
     8
 71
     3
 72
    10
 73
     6
 74
     0
 42
0.0000000001
 43
0.0000000001
 40
3.652385999617258
 40
3.652385999617258
 40
3.652385999617258
 40
3.652385999617258
 40
4.266071729331896
 40
4.266071729331896
 40
5.772391961152122
 40
5.772391961152122
 40
5.772391961152122
 40
5.772391961152122
 10
-83.93557197990231
 20
205.2776501358275
 30
0.0
 10
-74.62659650519345
 20
203.5604127293045
 30
0.0
 10
-59.54081827763366
 20
202.0805168322112
 30
0.0
 10
2.031154039577813
 20
199.034647649114
 30
0.0
 10
61.1501756362195
 20
201.0626108688047
 30
0.0
 10
83.99948989614859
 20
205.2776501358275
 30
0.0
  0
ARC
  5
D3C
330
1F
100
AcDbEntity
  8
ceco.net 155
100
AcDbCircle
 10
94.69085341181198
 20
199.1314525616871
 30
0.0
 40
6.55557015848107
100
AcDbArc
 50
301.6337644439452
 51
66.39350961824177
  0
ARC
  5
D3D
330
1F
100
AcDbEntity
  8
ceco.net 155
100
AcDbCircle
 10
-92.56342913550179
 20
199.3460475935098
 30
0.0
 40
8.021175197578083
100
AcDbArc
 50
123.4132722242232
 51
226.0835171626322
  0
SPLINE
  5
D3E
330
1F
100
AcDbEntity
  8
ceco.net 155
100
AcDbSpline
210
0.0
220
0.0
230
1.0
 70
     8
 71
     3
 72
    18
 73
    14
 74
     0
 42
0.0000000001
 43
0.0000000001
 40
3.387834750978655
 40
3.387834750978655
 40
3.387834750978655
 40
3.387834750978655
 40
3.432488270087177
 40
3.432488270087177
 40
3.807632387195683
 40
3.807632387195683
 40
4.570826119688813
 40
4.570826119688813
 40
5.382859398742862
 40
5.382859398742862
 40
5.775170660249038
 40
5.775170660249038
 40
6.035239867722381
 40
6.035239867722381
 40
6.035239867722381
 40
6.035239867722381
 10
-98.12698914554857
 20
193.5679811724657
 30
0.0
 10
-97.57020374075365
 20
193.3419423618288
 30
0.0
 10
-97.01109499149607
 20
193.1385229112274
 30
0.0
 10
-91.6211369987468
 20
191.2773893350276
 30
0.0
 10
-85.61899970964441
 20
190.1808163437417
 30
0.0
 10
-61.80709774212664
 20
187.0482983348447
 30
0.0
 10
-38.61442400551095
 20
185.686336609935
 30
0.0
 10
12.51460277155274
 20
184.9330525931254
 30
0.0
 10
40.21712374305207
 20
185.7017530518314
 30
0.0
 10
71.48966403389568
 20
188.2654963652639
 30
0.0
 10
80.13190742719235
 20
189.3030603033585
 30
0.0
 10
91.32675249822568
 20
191.3817088610594
 30
0.0
 10
94.86142222051057
 20
192.2034276442463
 30
0.0
 10
98.12916959203358
 20
193.5499221281133
 30
0.0
  0
ELLIPSE
  5
D3F
330
1F
100
AcDbEntity
  8
ceco.net 155
100
AcDbEllipse
 10
0.0319589581231412
 20
205.2776501357147
 30
0.0
 11
97.29341126755741
 21
0.0
 31
0.0
210
0.0
220
0.0
230
1.0
 40
0.1033777701942968
 41
1.709798801156353
 42
7.729791172354062
  0
LINE
  5
D40
330
1F
100
AcDbEntity
  8
ceco.net 155
100
AcDbLine
 10
-37.33480746273562
 20
395.1787662470014
 30
0.0
 11
-52.71912543530925
 21
406.0311567542412
 31
0.0
  0
LINE
  5
D41
330
1F
100
AcDbEntity
  8
ceco.net 155
100
AcDbLine
 10
-52.71912543530925
 20
406.0311567542412
 30
0.0
 11
-75.39339464022487
 21
418.5521645547415
 31
0.0
  0
LINE
  5
D42
330
1F
100
AcDbEntity
  8
ceco.net 155
100
AcDbLine
 10
-75.39339464022487
 20
418.5521645547415
 30
0.0
 11
-104.0915316087266
 21
412.8147507362882
 31
0.0
  0
LINE
  5
D43
330
1F
100
AcDbEntity
  8
ceco.net 155
100
AcDbLine
 10
-104.0915316087266
 20
412.8147507362882
 30
0.0
 11
-113.635420789531
 21
406.6671160479709
 31
0.0
  0
LINE
  5
D44
330
1F
100
AcDbEntity
  8
ceco.net 155
100
AcDbLine
 10
-118.9377084903571
 20
402.4643451085685
 30
0.0
 11
-140.9513429749094
 21
390.2688812601154
 31
0.0
  0
LINE
  5
D45
330
1F
100
AcDbEntity
  8
ceco.net 155
100
AcDbLine
 10
-140.9513429749094
 20
390.2688812601154
 30
0.0
 11
-162.5442250405576
 21
365.2813155749754
 31
0.0
  0
LINE
  5
D46
330
1F
100
AcDbEntity
  8
ceco.net 155
100
AcDbLine
 10
-32.98179900860486
 20
396.6728105149304
 30
0.0
 11
-38.3531088794407
 21
416.9993106283982
 31
0.0
  0
LINE
  5
D47
330
1F
100
AcDbEntity
  8
ceco.net 155
100
AcDbLine
 10
-38.3531088794407
 20
416.9993106283982
 30
0.0
 11
-50.43784450202292
 21
450.752758725459
 31
0.0
  0
LINE
  5
D48
330
1F
100
AcDbEntity
  8
ceco.net 155
100
AcDbLine
 10
-50.43784450202292
 20
450.752758725459
 30
0.0
 11
-60.56419674603603
 21
479.8447884181769
 31
0.0
  0
LINE
  5
D49
330
1F
100
AcDbEntity
  8
ceco.net 155
100
AcDbLine
 10
-60.56419674603603
 20
479.8447884181769
 30
0.0
 11
-61.44623845278329
 21
485.620290569841
 31
0.0
  0
LINE
  5
D4A
330
1F
100
AcDbEntity
  8
ceco.net 155
100
AcDbLine
 10
-61.44623845278329
 20
485.620290569841
 30
0.0
 11
-58.30765952206639
 21
499.3173372128331
 31
0.0
  0
LINE
  5
D4B
330
1F
100
AcDbEntity
  8
ceco.net 155
100
AcDbLine
 10
-56.35163945583554
 20
507.8535883867516
 30
0.0
 11
-56.23393263215621
 21
519.0773531405029
 31
0.0
  0
LINE
  5
D4C
330
1F
100
AcDbEntity
  8
ceco.net 155
100
AcDbLine
 10
-55.93713203966763
 20
547.3783464456137
 30
0.0
 11
-62.00917907158873
 21
563.7067901737973
 31
0.0
  0
LINE
  5
D4D
330
1F
100
AcDbEntity
  8
ceco.net 155
100
AcDbLine
 10
-62.00917907158873
 20
563.7067901737973
 30
0.0
 11
-68.19325279541954
 21
572.9123074963827
 31
0.0
  0
LINE
  5
D4E
330
1F
100
AcDbEntity
  8
ceco.net 155
100
AcDbLine
 10
-68.19325279541954
 20
572.9123074963827
 30
0.0
 11
-80.49819586931699
 21
574.0305834336831
 31
0.0
  0
LINE
  5
D4F
330
1F
100
AcDbEntity
  8
ceco.net 155
100
AcDbLine
 10
-80.49819586931699
 20
574.0305834336831
 30
0.0
 11
-95.06775004757219
 21
574.8750809261764
 31
0.0
  0
LINE
  5
D50
330
1F
100
AcDbEntity
  8
ceco.net 155
100
AcDbLine
 10
-95.06775004757219
 20
574.8750809261764
 30
0.0
 11
-97.3352054106108
 21
561.141788256693
 31
0.0
  0
LINE
  5
D51
330
1F
100
AcDbEntity
  8
ceco.net 155
100
AcDbLine
 10
-97.3352054106108
 20
561.141788256693
 30
0.0
 11
-96.13215819916149
 21
554.9023009546108
 31
0.0
  0
LINE
  5
D52
330
1F
100
AcDbEntity
  8
ceco.net 155
100
AcDbLine
 10
-96.13215819916149
 20
554.9023009546108
 30
0.0
 11
-89.3894968090135
 21
563.2350142279865
 31
0.0
  0
LINE
  5
D53
330
1F
100
AcDbEntity
  8
ceco.net 155
100
AcDbLine
 10
-89.3894968090135
 20
563.2350142279865
 30
0.0
 11
-95.06864025621689
 21
574.8696892011394
 31
0.0
  0
LINE
  5
D54
330
1F
100
AcDbEntity
  8
ceco.net 155
100
AcDbLine
 10
-95.06864025621689
 20
574.8696892011394
 30
0.0
 11
-87.75611326364742
 21
563.8109271394569
 31
0.0
  0
LINE
  5
D55
330
1F
100
AcDbEntity
  8
ceco.net 155
100
AcDbLine
 10
-87.75611326364742
 20
563.8109271394569
 30
0.0
 11
-83.84618509392749
 21
545.801922271381
 31
0.0
  0
LINE
  5
D56
330
1F
100
AcDbEntity
  8
ceco.net 155
100
AcDbLine
 10
-83.84618509392749
 20
545.801922271381
 30
0.0
 11
-80.54322172034153
 21
526.6869212435958
 31
0.0
  0
LINE
  5
D57
330
1F
100
AcDbEntity
  8
ceco.net 155
100
AcDbLine
 10
-80.54322172034153
 20
526.6869212435958
 30
0.0
 11
-78.95268355872758
 21
520.7909072835755
 31
0.0
  0
LINE
  5
D58
330
1F
100
AcDbEntity
  8
ceco.net 155
100
AcDbLine
 10
-75.82441187563745
 20
511.0047282387276
 30
0.0
 11
-70.25631725860512
 21
501.9015567033894
 31
0.0
  0
LINE
  5
D59
330
1F
100
AcDbEntity
  8
ceco.net 155
100
AcDbLine
 10
-70.25631725860512
 20
501.9015567033894
 30
0.0
 11
-61.2250293278812
 21
486.4066291561357
 31
0.0
  0
LINE
  5
D5A
330
1F
100
AcDbEntity
  8
ceco.net 155
100
AcDbLine
 10
-61.2250293278812
 20
486.4066291561357
 30
0.0
 11
-76.65081665714388
 21
509.6948996057363
 31
0.0
  0
LINE
  5
D5B
330
1F
100
AcDbEntity
  8
ceco.net 155
100
AcDbLine
 10
-76.65081665714388
 20
509.6948996057363
 30
0.0
 11
-77.74575143277252
 21
511.9087965529506
 31
0.0
  0
LINE
  5
D5C
330
1F
100
AcDbEntity
  8
ceco.net 155
100
AcDbLine
 10
-87.43410608536214
 20
531.4981084154642
 30
0.0
 11
-102.2353560465999
 21
559.4140495222745
 31
0.0
  0
LINE
  5
D5D
330
1F
100
AcDbEntity
  8
ceco.net 155
100
AcDbLine
 10
-102.2353560465999
 20
559.4140495222745
 30
0.0
 11
-113.9574981564728
 21
572.123767701214
 31
0.0
  0
LINE
  5
D5E
330
1F
100
AcDbEntity
  8
ceco.net 155
100
AcDbLine
 10
-113.9574981564728
 20
572.123767701214
 30
0.0
 11
-130.4086036305379
 21
573.1706032809161
 31
0.0
  0
LINE
  5
D5F
330
1F
100
AcDbEntity
  8
ceco.net 155
100
AcDbLine
 10
-130.4086036305379
 20
573.1706032809161
 30
0.0
 11
-145.9344841318234
 21
570.4772511006703
 31
0.0
  0
LINE
  5
D60
330
1F
100
AcDbEntity
  8
ceco.net 155
100
AcDbLine
 10
-145.9344841318234
 20
570.4772511006703
 30
0.0
 11
-128.714563177873
 21
570.2261896261697
 31
0.0
  0
LINE
  5
D61
330
1F
100
AcDbEntity
  8
ceco.net 155
100
AcDbLine
 10
-128.714563177873
 20
570.2261896261697
 30
0.0
 11
-120.3966771485575
 21
564.3440525077494
 31
0.0
  0
LINE
  5
D62
330
1F
100
AcDbEntity
  8
ceco.net 155
100
AcDbLine
 10
-120.3966771485575
 20
564.3440525077494
 30
0.0
 11
-109.7090908409009
 21
548.0951367246707
 31
0.0
  0
LINE
  5
D63
330
1F
100
AcDbEntity
  8
ceco.net 155
100
AcDbLine
 10
-109.7090908409009
 20
548.0951367246707
 30
0.0
 11
-99.57854640691222
 21
532.3843917775556
 31
0.0
  0
LINE
  5
D64
330
1F
100
AcDbEntity
  8
ceco.net 155
100
AcDbLine
 10
-99.57854640691222
 20
532.3843917775556
 30
0.0
 11
-95.2064114497225
 21
526.0492337794203
 31
0.0
  0
LINE
  5
D65
330
1F
100
AcDbEntity
  8
ceco.net 155
100
AcDbLine
 10
-88.90443941191188
 20
516.9177707870185
 30
0.0
 11
-83.535010831205
 21
509.576281653608
 31
0.0
  0
LINE
  5
D66
330
1F
100
AcDbEntity
  8
ceco.net 155
100
AcDbLine
 10
-83.535010831205
 20
509.576281653608
 30
0.0
 11
-62.51718839944806
 21
484.1932889055461
 31
0.0
  0
LINE
  5
D67
330
1F
100
AcDbEntity
  8
ceco.net 155
100
AcDbLine
 10
-62.51718839944806
 20
484.1932889055461
 30
0.0
 11
-100.5862919797036
 21
513.664631405165
 31
0.0
  0
LINE
  5
D68
330
1F
100
AcDbEntity
  8
ceco.net 155
100
AcDbLine
 10
-100.5862919797036
 20
513.664631405165
 30
0.0
 11
-123.4373380428296
 21
518.2790700764599
 31
0.0
  0
LINE
  5
D69
330
1F
100
AcDbEntity
  8
ceco.net 155
100
AcDbLine
 10
-123.4373380428296
 20
518.2790700764599
 30
0.0
 11
-142.8705992473696
 21
519.8222906226438
 31
0.0
  0
LINE
  5
D6A
330
1F
100
AcDbEntity
  8
ceco.net 155
100
AcDbLine
 10
-142.8705992473696
 20
519.8222906226438
 30
0.0
 11
-162.282759260328
 21
524.2044822508651
 31
0.0
  0
LINE
  5
D6B
330
1F
100
AcDbEntity
  8
ceco.net 155
100
AcDbLine
 10
-96.11873301073865
 20
526.3782359623182
 30
0.0
 11
-112.0209784706312
 21
541.4820745982069
 31
0.0
  0
LINE
  5
D6C
330
1F
100
AcDbEntity
  8
ceco.net 155
100
AcDbLine
 10
-112.0209784706312
 20
541.4820745982069
 30
0.0
 11
-131.7831843713793
 21
557.5746303535452
 31
0.0
  0
LINE
  5
D6D
330
1F
100
AcDbEntity
  8
ceco.net 155
100
AcDbLine
 10
-131.7831843713793
 20
557.5746303535452
 30
0.0
 11
-162.282759260328
 21
558.611851809248
 31
0.0
  0
LINE
  5
D6E
330
1F
100
AcDbEntity
  8
ceco.net 155
100
AcDbLine
 10
-162.282759260328
 20
534.7873021996747
 30
0.0
 11
-153.8293176025108
 21
533.6407008237547
 31
0.0
  0
LINE
  5
D6F
330
1F
100
AcDbEntity
  8
ceco.net 155
100
AcDbLine
 10
-106.1379095858646
 20
523.6317866587778
 30
0.0
 11
-83.33733391812348
 21
509.3375494220708
 31
0.0
  0
LINE
  5
D70
330
1F
100
AcDbEntity
  8
ceco.net 155
100
AcDbLine
 10
-162.282759260328
 20
524.2044822508651
 30
0.0
 11
-133.6138605362793
 21
523.033644134899
 31
0.0
  0
LINE
  5
D71
330
1F
100
AcDbEntity
  8
ceco.net 155
100
AcDbLine
 10
-133.6138605362793
 20
523.033644134899
 30
0.0
 11
-114.1374655310792
 21
518.9870802528275
 31
0.0
  0
LINE
  5
D72
330
1F
100
AcDbEntity
  8
ceco.net 155
100
AcDbLine
 10
-114.1374655310792
 20
518.9870802528275
 30
0.0
 11
-102.5892065554726
 21
516.368964897083
 31
0.0
  0
LINE
  5
D73
330
1F
100
AcDbEntity
  8
ceco.net 155
100
AcDbLine
 10
-102.5892065554726
 20
516.368964897083
 30
0.0
 11
-83.33733391812348
 21
509.3375494220708
 31
0.0
  0
LINE
  5
D74
330
1F
100
AcDbEntity
  8
ceco.net 155
100
AcDbLine
 10
-162.282759260328
 20
365.2813155749754
 30
0.0
 11
-148.5977613683026
 21
375.3473686232391
 31
0.0
  0
LINE
  5
D75
330
1F
100
AcDbEntity
  8
ceco.net 155
100
AcDbLine
 10
-148.5977613683026
 20
375.3473686232391
 30
0.0
 11
-121.2429059290152
 21
390.9214778581154
 31
0.0
  0
LINE
  5
D76
330
1F
100
AcDbEntity
  8
ceco.net 155
100
AcDbLine
 10
-121.2429059290152
 20
390.9214778581154
 30
0.0
 11
-97.80905890186842
 21
397.8984814284558
 31
0.0
  0
LINE
  5
D77
330
1F
100
AcDbEntity
  8
ceco.net 155
100
AcDbLine
 10
-97.80905890186842
 20
397.8984814284558
 30
0.0
 11
-71.5063813020679
 21
401.8730608339646
 31
0.0
  0
LINE
  5
D78
330
1F
100
AcDbEntity
  8
ceco.net 155
100
AcDbLine
 10
-71.5063813020679
 20
401.8730608339646
 30
0.0
 11
-55.35875822607341
 21
400.2732271743552
 31
0.0
  0
LINE
  5
D79
330
1F
100
AcDbEntity
  8
ceco.net 155
100
AcDbLine
 10
-55.35875822607341
 20
400.2732271743552
 30
0.0
 11
-43.3630265961765
 21
395.6708550299481
 31
0.0
  0
LINE
  5
D7A
330
1F
100
AcDbEntity
  8
ceco.net 155
100
AcDbLine
 10
-162.282759260328
 20
558.611851809248
 30
0.0
 11
-159.172937627598
 21
557.6504607623755
 31
0.0
  0
LINE
  5
D7B
330
1F
100
AcDbEntity
  8
ceco.net 155
100
AcDbLine
 10
-159.172937627598
 20
557.6504607623755
 30
0.0
 11
-136.7764906612428
 21
547.6287525040134
 31
0.0
  0
LINE
  5
D7C
330
1F
100
AcDbEntity
  8
ceco.net 155
100
AcDbLine
 10
-136.7764906612428
 20
547.6287525040134
 30
0.0
 11
-115.16508381538
 21
533.2113661635267
 31
0.0
  0
LINE
  5
D7D
330
1F
100
AcDbEntity
  8
ceco.net 155
100
AcDbLine
 10
-123.1433263744293
 20
536.1238679724883
 30
0.0
 11
-137.2674839025712
 21
544.3336788565611
 31
0.0
  0
LINE
  5
D7E
330
1F
100
AcDbEntity
  8
ceco.net 155
100
AcDbLine
 10
-137.2674839025712
 20
544.3336788565611
 30
0.0
 11
-162.282759260328
 21
558.611851809248
 31
0.0
  0
LINE
  5
D7F
330
1F
100
AcDbEntity
  8
ceco.net 155
100
AcDbLine
 10
6.263018477191508
 20
200.366919606
 30
0.0
 11
21.8476866427336
 21
240.2367555693017
 31
0.0
  0
LINE
  5
D80
330
1F
100
AcDbEntity
  8
ceco.net 155
100
AcDbLine
 10
21.8476866427336
 20
240.2367555693017
 30
0.0
 11
22.15565663804227
 21
242.5738331387147
 31
0.0
  0
LINE
  5
D81
330
1F
100
AcDbEntity
  8
ceco.net 155
100
AcDbLine
 10
24.36835522377805
 20
259.3652359097432
 30
0.0
 11
29.3056043302713
 21
258.919220651187
 31
0.0
  0
LINE
  5
D82
330
1F
100
AcDbEntity
  8
ceco.net 155
100
AcDbLine
 10
35.07231456825684
 20
258.3982745327412
 30
0.0
 11
37.03749282703211
 21
257.127002872894
 31
0.0
  0
LINE
  5
D83
330
1F
100
AcDbEntity
  8
ceco.net 155
100
AcDbLine
 10
52.09813341861445
 20
247.3842909953418
 30
0.0
 11
69.32903568412439
 21
230.1065573927881
 31
0.0
  0
LINE
  5
D84
330
1F
100
AcDbEntity
  8
ceco.net 155
100
AcDbLine
 10
69.32903568412439
 20
230.1065573927881
 30
0.0
 11
59.27902086893301
 21
250.8601852948704
 31
0.0
  0
LINE
  5
D85
330
1F
100
AcDbEntity
  8
ceco.net 155
100
AcDbLine
 10
59.27902086893301
 20
250.8601852948704
 30
0.0
 11
45.16796118520505
 21
258.4590798362587
 31
0.0
  0
LINE
  5
D86
330
1F
100
AcDbEntity
  8
ceco.net 155
100
AcDbLine
 10
45.16796118520505
 20
258.4590798362587
 30
0.0
 11
42.83424664727135
 21
258.7427140762192
 31
0.0
  0
LINE
  5
D87
330
1F
100
AcDbEntity
  8
ceco.net 155
100
AcDbLine
 10
24.16197334281969
 20
261.0120987678783
 30
0.0
 11
50.17190252937507
 21
262.7550110039483
 31
0.0
  0
LINE
  5
D88
330
1F
100
AcDbEntity
  8
ceco.net 155
100
AcDbLine
 10
50.17190252937507
 20
262.7550110039483
 30
0.0
 11
67.04930054349097
 21
256.7517579323066
 31
0.0
  0
LINE
  5
D89
330
1F
100
AcDbEntity
  8
ceco.net 155
100
AcDbLine
 10
67.04930054349097
 20
256.7517579323066
 30
0.0
 11
82.73173893389321
 21
244.9783944340452
 31
0.0
  0
LINE
  5
D8A
330
1F
100
AcDbEntity
  8
ceco.net 155
100
AcDbLine
 10
82.73173893389321
 20
244.9783944340452
 30
0.0
 11
58.42373992624562
 21
264.8039036391783
 31
0.0
  0
LINE
  5
D8B
330
1F
100
AcDbEntity
  8
ceco.net 155
100
AcDbLine
 10
58.42373992624562
 20
264.8039036391783
 30
0.0
 11
40.16521937632569
 21
267.8573513310329
 31
0.0
  0
LINE
  5
D8C
330
1F
100
AcDbEntity
  8
ceco.net 155
100
AcDbLine
 10
40.16521937632569
 20
267.8573513310329
 30
0.0
 11
24.17579135731648
 21
261.0104193585175
 31
0.0
  0
LINE
  5
D8D
330
1F
100
AcDbEntity
  8
ceco.net 155
100
AcDbLine
 10
24.17579135731648
 20
261.0104193585175
 30
0.0
 11
31.6488411921855
 21
282.2460848570954
 31
0.0
  0
LINE
  5
D8E
330
1F
100
AcDbEntity
  8
ceco.net 155
100
AcDbLine
 10
31.6488411921855
 20
282.2460848570954
 30
0.0
 11
39.63209400803316
 21
300.497915215943
 31
0.0
  0
LINE
  5
D8F
330
1F
100
AcDbEntity
  8
ceco.net 155
100
AcDbLine
 10
39.63209400803316
 20
300.497915215943
 30
0.0
 11
44.68532175691144
 21
309.5918486900882
 31
0.0
  0
LINE
  5
D90
330
1F
100
AcDbEntity
  8
ceco.net 155
100
AcDbLine
 10
-56.32008783891433
 20
339.7593874275516
 30
0.0
 11
-49.54156769111796
 21
331.8142613145755
 31
0.0
  0
LINE
  5
D91
330
1F
100
AcDbEntity
  8
ceco.net 155
100
AcDbLine
 10
-58.76718075982717
 20
335.8919812774074
 30
0.0
 11
-49.90184895940547
 21
330.2255707686417
 31
0.0
  0
LINE
  5
D92
330
1F
100
AcDbEntity
  8
ceco.net 155
100
AcDbLine
 10
-70.21895853943715
 20
340.7798813337904
 30
0.0
 11
-68.4544467447813
 21
339.830175557865
 31
0.0
  0
LINE
  5
D93
330
1F
100
AcDbEntity
  8
ceco.net 155
100
AcDbLine
 10
-60.15877246901436
 20
333.7517927970402
 30
0.0
 11
-50.07044798673814
 21
329.4821191813862
 31
0.0
  0
LINE
  5
D94
330
1F
100
AcDbEntity
  8
ceco.net 155
100
AcDbLine
 10
-59.37515625691594
 20
334.9434671528724
 30
0.0
 11
-49.97882888447566
 21
329.8861213164054
 31
0.0
  0
LINE
  5
D95
330
1F
100
AcDbEntity
  8
ceco.net 155
100
AcDbLine
 10
51.97817683915127
 20
311.4514041038455
 30
0.0
 11
52.75743658336796
 21
311.12822520197
 31
0.0
  0
LINE
  5
D96
330
1F
100
AcDbEntity
  8
ceco.net 155
100
AcDbLine
 10
51.51595635153717
 20
301.656472791099
 30
0.0
 11
52.94614696169446
 21
300.1760981070438
 31
0.0
  0
SPLINE
  5
D97
330
1F
100
AcDbEntity
  8
ceco.net 155
100
AcDbSpline
210
0.0
220
0.0
230
1.0
 70
     8
 71
     3
 72
     8
 73
     4
 74
     0
 42
0.0000000001
 43
0.0000000001
 40
1.69895357085715
 40
1.69895357085715
 40
1.69895357085715
 40
1.69895357085715
 40
2.630799307562328
 40
2.630799307562328
 40
2.630799307562328
 40
2.630799307562328
 10
-12.11495026174452
 20
210.1145830259665
 30
0.0
 10
-41.78505090078397
 20
209.6557141221383
 30
0.0
 10
-69.80043946965452
 20
207.8851742780534
 30
0.0
 10
-83.93557197990231
 20
205.2776501354856
 30
0.0
  0
ELLIPSE
  5
D98
330
1F
100
AcDbEntity
  8
ceco.net 155
100
AcDbEllipse
 10
0.0319589581231412
 20
205.2776501357147
 30
0.0
 11
97.29341126755741
 21
0.0
 31
0.0
210
0.0
220
0.0
230
1.0
 40
0.1033777701942968
 41
7.932645861222626
 42
7.937709584284194
  0
SPLINE
  5
D99
330
1F
100
AcDbEntity
  8
ceco.net 155
100
AcDbSpline
210
0.0
220
0.0
230
1.0
 70
     8
 71
     3
 72
     8
 73
     4
 74
     0
 42
0.0000000001
 43
0.0000000001
 40
1.652867021017828
 40
1.652867021017828
 40
1.652867021017828
 40
1.652867021017828
 40
1.654447220376102
 40
1.654447220376102
 40
1.654447220376102
 40
1.654447220376102
 10
-7.702079960978153
 20
210.1729836889135
 30
0.0
 10
-7.752620578608912
 20
210.1724275354317
 30
0.0
 10
-7.803158176611759
 20
210.17186754254
 30
0.0
 10
-7.853692695363861
 20
210.1713037125445
 30
0.0
  0
LINE
  5
D9A
330
1F
100
AcDbEntity
  8
ceco.net 155
100
AcDbLine
 10
20.99854274146855
 20
306.0983529688856
 30
0.0
 11
23.25678585322748
 21
306.550774259449
 31
0.0
  0
LINE
  5
D9B
330
1F
100
AcDbEntity
  8
ceco.net 155
100
AcDbLine
 10
13.57123802714704
 20
286.1202462449073
 30
0.0
 11
11.80807593045028
 21
285.2252772397623
 31
0.0
  0
LINE
  5
D9C
330
1F
100
AcDbEntity
  8
ceco.net 155
100
AcDbLine
 10
-9.572372434457065
 20
200.3453996405151
 30
0.0
 11
-16.93107183739994
 21
228.619257445076
 31
0.0
  0
LINE
  5
D9D
330
1F
100
AcDbEntity
  8
ceco.net 155
100
AcDbLine
 10
-16.93107183739994
 20
228.619257445076
 30
0.0
 11
-38.31757202208973
 21
245.4208250503616
 31
0.0
  0
LINE
  5
D9E
330
1F
100
AcDbEntity
  8
ceco.net 155
100
AcDbLine
 10
-38.31757202208973
 20
245.4208250503616
 30
0.0
 11
-69.67301328398389
 21
269.5151584016457
 31
0.0
  0
LINE
  5
D9F
330
1F
100
AcDbEntity
  8
ceco.net 155
100
AcDbLine
 10
-69.67301328398389
 20
269.5151584016457
 30
0.0
 11
-41.20537256329408
 21
250.4005036314556
 31
0.0
  0
LINE
  5
DA0
330
1F
100
AcDbEntity
  8
ceco.net 155
100
AcDbLine
 10
-41.20537256329408
 20
250.4005036314556
 30
0.0
 11
-15.78868153336225
 21
231.3384181810543
 31
0.0
  0
LINE
  5
DA1
330
1F
100
AcDbEntity
  8
ceco.net 155
100
AcDbLine
 10
-15.78868153336225
 20
231.3384181810543
 30
0.0
 11
-37.74989509423176
 21
260.2008049034375
 31
0.0
  0
LINE
  5
DA2
330
1F
100
AcDbEntity
  8
ceco.net 155
100
AcDbLine
 10
-37.74989509423176
 20
260.2008049034375
 30
0.0
 11
-55.51896819559624
 21
278.0355803796519
 31
0.0
  0
LINE
  5
DA3
330
1F
100
AcDbEntity
  8
ceco.net 155
100
AcDbLine
 10
-55.51896819559624
 20
278.0355803796519
 30
0.0
 11
-28.1342604068268
 21
246.0278887772365
 31
0.0
  0
LINE
  5
DA4
330
1F
100
AcDbEntity
  8
ceco.net 155
100
AcDbLine
 10
-28.1342604068268
 20
246.0278887772365
 30
0.0
 11
-14.96741498885239
 21
232.6989369058792
 31
0.0
  0
LINE
  5
DA5
330
1F
100
AcDbEntity
  8
ceco.net 155
100
AcDbLine
 10
-16.18113876229836
 20
235.8039736790633
 30
0.0
 11
-26.85977283788815
 21
256.4135384795918
 31
0.0
  0
LINE
  5
DA6
330
1F
100
AcDbEntity
  8
ceco.net 155
100
AcDbLine
 10
-26.85977283788815
 20
256.4135384795918
 30
0.0
 11
-26.00603768786095
 21
260.5462215670995
 31
0.0
  0
LINE
  5
DA7
330
1F
100
AcDbEntity
  8
ceco.net 155
100
AcDbLine
 10
-26.00603768786095
 20
260.5462215670995
 30
0.0
 11
-23.61152934503843
 21
264.0072722268014
 31
0.0
  0
LINE
  5
DA8
330
1F
100
AcDbEntity
  8
ceco.net 155
100
AcDbLine
 10
-20.38844135671024
 20
268.6659616991855
 30
0.0
 11
-14.65202921195305
 21
265.5152650942254
 31
0.0
  0
LINE
  5
DA9
330
1F
100
AcDbEntity
  8
ceco.net 155
100
AcDbLine
 10
-14.65202921195305
 20
265.5152650942254
 30
0.0
 11
-7.778470091972849
 21
251.1548381248758
 31
0.0
  0
LINE
  5
DAA
330
1F
100
AcDbEntity
  8
ceco.net 155
100
AcDbLine
 10
-7.778470091972849
 20
251.1548381248758
 30
0.0
 11
-8.499959581109578
 21
241.0726708205875
 31
0.0
  0
LINE
  5
DAB
330
1F
100
AcDbEntity
  8
ceco.net 155
100
AcDbLine
 10
-8.499959581109578
 20
241.0726708205875
 30
0.0
 11
-8.320338464098313
 21
219.7065874664767
 31
0.0
  0
LINE
  5
DAC
330
1F
100
AcDbEntity
  8
ceco.net 155
100
AcDbLine
 10
-8.320338464098313
 20
219.7065874664767
 30
0.0
 11
-7.741581293936178
 21
207.8804567870538
 31
0.0
  0
LINE
  5
DAD
330
1F
100
AcDbEntity
  8
ceco.net 155
100
AcDbLine
 10
-7.741581293936178
 20
207.8804567870538
 30
0.0
 11
-7.217236028445768
 21
238.3117242151238
 31
0.0
  0
LINE
  5
DAE
330
1F
100
AcDbEntity
  8
ceco.net 155
100
AcDbLine
 10
-7.217236028445768
 20
238.3117242151238
 30
0.0
 11
-6.097908952080615
 21
253.3169569870806
 31
0.0
  0
LINE
  5
DAF
330
1F
100
AcDbEntity
  8
ceco.net 155
100
AcDbLine
 10
-6.097908952080615
 20
253.3169569870806
 30
0.0
 11
-12.68016652073129
 21
270.9589782911062
 31
0.0
  0
LINE
  5
DB0
330
1F
100
AcDbEntity
  8
ceco.net 155
100
AcDbLine
 10
-12.68016652073129
 20
270.9589782911062
 30
0.0
 11
-26.51601395223042
 21
279.9775950575203
 31
0.0
  0
LINE
  5
DB1
330
1F
100
AcDbEntity
  8
ceco.net 155
100
AcDbLine
 10
-27.84734890695472
 20
280.8453987684078
 30
0.0
 11
-55.78470851804013
 21
280.7790038784805
 31
0.0
  0
LINE
  5
DB2
330
1F
100
AcDbEntity
  8
ceco.net 155
100
AcDbLine
 10
-55.78470851804013
 20
280.7790038784805
 30
0.0
 11
-78.963450276824
 21
270.770774932771
 31
0.0
  0
LINE
  5
DB3
330
1F
100
AcDbEntity
  8
ceco.net 155
100
AcDbLine
 10
-78.963450276824
 20
270.770774932771
 30
0.0
 11
-95.83106651455819
 21
245.5510302648945
 31
0.0
  0
LINE
  5
DB4
330
1F
100
AcDbEntity
  8
ceco.net 155
100
AcDbLine
 10
-95.83106651455819
 20
245.5510302648945
 30
0.0
 11
-81.23879536611275
 21
265.8800598156886
 31
0.0
  0
LINE
  5
DB5
330
1F
100
AcDbEntity
  8
ceco.net 155
100
AcDbLine
 10
-81.23879536611275
 20
265.8800598156886
 30
0.0
 11
-62.67154908919838
 21
276.2025051442869
 31
0.0
  0
LINE
  5
DB6
330
1F
100
AcDbEntity
  8
ceco.net 155
100
AcDbLine
 10
-62.67154908919838
 20
276.2025051442869
 30
0.0
 11
-54.6675403950976
 21
277.0404177264499
 31
0.0
  0
LINE
  5
DB7
330
1F
100
AcDbEntity
  8
ceco.net 155
100
AcDbLine
 10
-42.13229172494902
 20
278.3526904866012
 30
0.0
 11
-27.52880738619933
 21
280.3607292558554
 31
0.0
  0
LINE
  5
DB8
330
1F
100
AcDbEntity
  8
ceco.net 155
100
AcDbLine
 10
-22.91484792038681
 20
280.995167535937
 30
0.0
 11
-11.74415809765196
 21
275.3250018851104
 31
0.0
  0
LINE
  5
DB9
330
1F
100
AcDbEntity
  8
ceco.net 155
100
AcDbLine
 10
-11.74415809765196
 20
275.3250018851104
 30
0.0
 11
-8.318186720596713
 21
269.7882814302392
 31
0.0
  0
LINE
  5
DBA
330
1F
100
AcDbEntity
  8
ceco.net 155
100
AcDbLine
 10
-8.318186720596713
 20
269.7882814302392
 30
0.0
 11
-16.28695854997931
 21
284.167579437395
 31
0.0
  0
LINE
  5
DBB
330
1F
100
AcDbEntity
  8
ceco.net 155
100
AcDbLine
 10
-16.28695854997931
 20
284.167579437395
 30
0.0
 11
-32.5079998277979
 21
295.1887831342501
 31
0.0
  0
LINE
  5
DBC
330
1F
100
AcDbEntity
  8
ceco.net 155
100
AcDbLine
 10
-33.30334188143024
 20
295.729169329661
 30
0.0
 11
-45.07420737871143
 21
298.3578208087492
 31
0.0
  0
LINE
  5
DBD
330
1F
100
AcDbEntity
  8
ceco.net 155
100
AcDbLine
 10
-45.07420737871143
 20
298.3578208087492
 30
0.0
 11
-52.8822291288925
 21
290.2758227523918
 31
0.0
  0
LINE
  5
DBE
330
1F
100
AcDbEntity
  8
ceco.net 155
100
AcDbLine
 10
-52.8822291288925
 20
290.2758227523918
 30
0.0
 11
-63.02505334047601
 21
287.4769856751991
 31
0.0
  0
LINE
  5
DBF
330
1F
100
AcDbEntity
  8
ceco.net 155
100
AcDbLine
 10
-63.02505334047601
 20
287.4769856751991
 30
0.0
 11
-57.87957921273482
 21
299.9870121641397
 31
0.0
  0
LINE
  5
DC0
330
1F
100
AcDbEntity
  8
ceco.net 155
100
AcDbLine
 10
-57.87957921273482
 20
299.9870121641397
 30
0.0
 11
-51.25543056049355
 21
308.4227623030347
 31
0.0
  0
LINE
  5
DC1
330
1F
100
AcDbEntity
  8
ceco.net 155
100
AcDbLine
 10
-47.51445222288384
 20
312.2457275762462
 30
0.0
 11
-39.36235677291915
 21
309.9276329041495
 31
0.0
  0
LINE
  5
DC2
330
1F
100
AcDbEntity
  8
ceco.net 155
100
AcDbLine
 10
-35.81492120115945
 20
308.9188994381438
 30
0.0
 11
-21.13873205615527
 21
302.3275526081779
 31
0.0
  0
LINE
  5
DC3
330
1F
100
AcDbEntity
  8
ceco.net 155
100
AcDbLine
 10
-21.13873205615527
 20
302.3275526081779
 30
0.0
 11
-12.36759486135269
 21
302.7241906602321
 31
0.0
  0
LINE
  5
DC4
330
1F
100
AcDbEntity
  8
ceco.net 155
100
AcDbLine
 10
-12.36759486135269
 20
302.7241906602321
 30
0.0
 11
-7.774970417296572
 21
301.3147615678244
 31
0.0
  0
LINE
  5
DC5
330
1F
100
AcDbEntity
  8
ceco.net 155
100
AcDbLine
 10
-7.774970417296572
 20
301.3147615678244
 30
0.0
 11
-4.946429386727686
 21
288.3543281719794
 31
0.0
  0
LINE
  5
DC6
330
1F
100
AcDbEntity
  8
ceco.net 155
100
AcDbLine
 10
-4.946429386727686
 20
288.3543281719794
 30
0.0
 11
-0.4912939324931358
 21
278.9654921961082
 31
0.0
  0
LINE
  5
DC7
330
1F
100
AcDbEntity
  8
ceco.net 155
100
AcDbLine
 10
-0.4912939324931358
 20
278.9654921961082
 30
0.0
 11
-0.3145170741699985
 21
271.0589230667901
 31
0.0
  0
LINE
  5
DC8
330
1F
100
AcDbEntity
  8
ceco.net 155
100
AcDbLine
 10
-0.3145170741699985
 20
271.0589230667901
 30
0.0
 11
-1.934075049171951
 21
240.6465266765299
 31
0.0
  0
LINE
  5
DC9
330
1F
100
AcDbEntity
  8
ceco.net 155
100
AcDbLine
 10
-1.934075049171951
 20
240.6465266765299
 30
0.0
 11
-0.9762029335943225
 21
219.0322755719789
 31
0.0
  0
LINE
  5
DCA
330
1F
100
AcDbEntity
  8
ceco.net 155
100
AcDbLine
 10
-0.9762029335943225
 20
219.0322755719789
 30
0.0
 11
2.724598027332831
 21
243.070342067429
 31
0.0
  0
LINE
  5
DCB
330
1F
100
AcDbEntity
  8
ceco.net 155
100
AcDbLine
 10
2.724598027332831
 20
243.070342067429
 30
0.0
 11
5.759174681264994
 21
260.2336499077209
 31
0.0
  0
LINE
  5
DCC
330
1F
100
AcDbEntity
  8
ceco.net 155
100
AcDbLine
 10
5.759174681264994
 20
260.2336499077209
 30
0.0
 11
8.617023942242667
 21
280.7648691496106
 31
0.0
  0
LINE
  5
DCD
330
1F
100
AcDbEntity
  8
ceco.net 155
100
AcDbLine
 10
8.617023942242667
 20
280.7648691496106
 30
0.0
 11
15.31500573896119
 21
288.0052139720428
 31
0.0
  0
LINE
  5
DCE
330
1F
100
AcDbEntity
  8
ceco.net 155
100
AcDbLine
 10
15.31500573896119
 20
288.0052139720428
 30
0.0
 11
18.32107797469507
 21
321.6803336591765
 31
0.0
  0
LINE
  5
DCF
330
1F
100
AcDbEntity
  8
ceco.net 155
100
AcDbLine
 10
18.32107797469507
 20
321.6803336591765
 30
0.0
 11
21.09474011946076
 21
339.152712674735
 31
0.0
  0
LINE
  5
DD0
330
1F
100
AcDbEntity
  8
ceco.net 155
100
AcDbLine
 10
21.94356481102659
 20
340.5310706604468
 30
0.0
 11
33.25741785562786
 21
330.18727632441
 31
0.0
  0
LINE
  5
DD1
330
1F
100
AcDbEntity
  8
ceco.net 155
100
AcDbLine
 10
33.25741785562786
 20
330.18727632441
 30
0.0
 11
44.19221970540093
 21
310.8269518047563
 31
0.0
  0
LINE
  5
DD2
330
1F
100
AcDbEntity
  8
ceco.net 155
100
AcDbLine
 10
44.19221970540093
 20
310.8269518047563
 30
0.0
 11
51.01860123074221
 21
293.7284930617352
 31
0.0
  0
LINE
  5
DD3
330
1F
100
AcDbEntity
  8
ceco.net 155
100
AcDbLine
 10
51.01860123074221
 20
293.7284930617352
 30
0.0
 11
52.0974409035407
 21
310.925499183897
 31
0.0
  0
LINE
  5
DD4
330
1F
100
AcDbEntity
  8
ceco.net 155
100
AcDbLine
 10
52.0974409035407
 20
310.925499183897
 30
0.0
 11
46.78837243790622
 21
334.3362829832585
 31
0.0
  0
LINE
  5
DD5
330
1F
100
AcDbEntity
  8
ceco.net 155
100
AcDbLine
 10
46.78837243790622
 20
334.3362829832585
 30
0.0
 11
39.28633108677604
 21
344.0123767165932
 31
0.0
  0
LINE
  5
DD6
330
1F
100
AcDbEntity
  8
ceco.net 155
100
AcDbLine
 10
39.28633108677604
 20
344.0123767165932
 30
0.0
 11
26.97864268504054
 21
347.2762995485282
 31
0.0
  0
LINE
  5
DD7
330
1F
100
AcDbEntity
  8
ceco.net 155
100
AcDbLine
 10
26.97864268504054
 20
347.2762995485282
 30
0.0
 11
29.59521224801574
 21
353.8044420047335
 31
0.0
  0
LINE
  5
DD8
330
1F
100
AcDbEntity
  8
ceco.net 155
100
AcDbLine
 10
29.59521224801574
 20
353.8044420047335
 30
0.0
 11
34.13281065910996
 21
368.2634207620431
 31
0.0
  0
LINE
  5
DD9
330
1F
100
AcDbEntity
  8
ceco.net 155
100
AcDbLine
 10
30.28280559380437
 20
380.0855032388899
 30
0.0
 11
30.18021442091412
 21
387.756035999133
 31
0.0
  0
LINE
  5
DDA
330
1F
100
AcDbEntity
  8
ceco.net 155
100
AcDbLine
 10
30.18021442091412
 20
387.756035999133
 30
0.0
 11
38.58182058519742
 21
384.8724276477951
 31
0.0
  0
LINE
  5
DDB
330
1F
100
AcDbEntity
  8
ceco.net 155
100
AcDbLine
 10
38.58182058519742
 20
384.8724276477951
 30
0.0
 11
48.23774481480359
 21
386.6623690823871
 31
0.0
  0
LINE
  5
DDC
330
1F
100
AcDbEntity
  8
ceco.net 155
100
AcDbLine
 10
48.23774481480359
 20
386.6623690823871
 30
0.0
 11
54.20480160348233
 21
383.2729402457771
 31
0.0
  0
LINE
  5
DDD
330
1F
100
AcDbEntity
  8
ceco.net 155
100
AcDbLine
 10
54.20480160348233
 20
383.2729402457771
 30
0.0
 11
62.35569255096925
 21
365.8386487541101
 31
0.0
  0
LINE
  5
DDE
330
1F
100
AcDbEntity
  8
ceco.net 155
100
AcDbLine
 10
62.35569255096925
 20
365.8386487541101
 30
0.0
 11
68.24341925602493
 21
339.6790497307629
 31
0.0
  0
LINE
  5
DDF
330
1F
100
AcDbEntity
  8
ceco.net 155
100
AcDbLine
 10
68.24341925602493
 20
339.6790497307629
 30
0.0
 11
69.06919410682167
 21
310.3983096597185
 31
0.0
  0
LINE
  5
DE0
330
1F
100
AcDbEntity
  8
ceco.net 155
100
AcDbLine
 10
69.06919410682167
 20
310.3983096597185
 30
0.0
 11
59.2323502943982
 21
325.3575643722142
 31
0.0
  0
LINE
  5
DE1
330
1F
100
AcDbEntity
  8
ceco.net 155
100
AcDbLine
 10
59.2323502943982
 20
325.3575643722142
 30
0.0
 11
46.96764729732604
 21
344.74080372354
 31
0.0
  0
LINE
  5
DE2
330
1F
100
AcDbEntity
  8
ceco.net 155
100
AcDbLine
 10
46.96764729732604
 20
344.74080372354
 30
0.0
 11
35.4852390926826
 21
364.1105637619839
 31
0.0
  0
LINE
  5
DE3
330
1F
100
AcDbEntity
  8
ceco.net 155
100
AcDbLine
 10
35.4852390926826
 20
364.1105637619839
 30
0.0
 11
30.28280559380437
 21
380.0855032388899
 31
0.0
  0
LINE
  5
DE4
330
1F
100
AcDbEntity
  8
ceco.net 155
100
AcDbLine
 10
37.65304742347143
 20
385.1912021765347
 30
0.0
 11
57.82711740136438
 21
398.3890913131072
 31
0.0
  0
LINE
  5
DE5
330
1F
100
AcDbEntity
  8
ceco.net 155
100
AcDbLine
 10
30.27477905530031
 20
380.6856311524934
 30
0.0
 11
23.74908076757856
 21
376.160741843265
 31
0.0
  0
LINE
  5
DE6
330
1F
100
AcDbEntity
  8
ceco.net 155
100
AcDbLine
 10
32.08942132860829
 20
387.1007559400786
 30
0.0
 11
33.42763603273124
 21
388.2178214447085
 31
0.0
  0
LINE
  5
DE7
330
1F
100
AcDbEntity
  8
ceco.net 155
100
AcDbLine
 10
30.20273497963717
 20
386.0722197544091
 30
0.0
 11
25.25380168396441
 21
381.3947695357455
 31
0.0
  0
LINE
  5
DE8
330
1F
100
AcDbEntity
  8
ceco.net 155
100
AcDbLine
 10
-56.14574820592316
 20
527.4860521784212
 30
0.0
 11
-55.93713203966763
 21
547.3783464456137
 31
0.0
  0
LINE
  5
DE9
330
1F
100
AcDbEntity
  8
ceco.net 155
100
AcDbLine
 10
-63.45661564188413
 20
529.3240122588468
 30
0.0
 11
-63.66582370622563
 21
532.6901743152375
 31
0.0
  0
LINE
  5
DEA
330
1F
100
AcDbEntity
  8
ceco.net 155
100
AcDbLine
 10
-82.7422586281682
 20
522.0114549695426
 30
0.0
 11
-87.43410608536214
 21
531.4981084154642
 31
0.0
  0
LINE
  5
DEB
330
1F
100
AcDbEntity
  8
ceco.net 155
100
AcDbLine
 10
-89.15140467188757
 20
517.275619745782
 30
0.0
 11
-88.90443941191188
 21
516.9177707870185
 31
0.0
  0
LINE
  5
DEC
330
1F
100
AcDbEntity
  8
ceco.net 155
100
AcDbLine
 10
42.20108958613127
 20
395.5414013536683
 30
0.0
 11
48.70532021374675
 21
400.9707630591511
 31
0.0
  0
LINE
  5
DED
330
1F
100
AcDbEntity
  8
ceco.net 155
100
AcDbLine
 10
95.06887595981243
 20
535.8768608642531
 30
0.0
 11
94.66525057002218
 21
535.7313051304117
 31
0.0
  0
LINE
  5
DEE
330
1F
100
AcDbEntity
  8
ceco.net 155
100
AcDbLine
 10
-52.49768372103062
 20
394.1065919416178
 30
0.0
 11
-62.46116051334684
 21
401.9509765803413
 31
0.0
  0
LINE
  5
DEF
330
1F
100
AcDbEntity
  8
ceco.net 155
100
AcDbLine
 10
-62.46116051334684
 20
401.9509765803413
 30
0.0
 11
-83.48337299656122
 21
408.1038994887676
 31
0.0
  0
LINE
  5
DF0
330
1F
100
AcDbEntity
  8
ceco.net 155
100
AcDbLine
 10
-83.48337299656122
 20
408.1038994887676
 30
0.0
 11
-100.4780410315179
 21
407.3011878656434
 31
0.0
  0
LINE
  5
DF1
330
1F
100
AcDbEntity
  8
ceco.net 155
100
AcDbLine
 10
-100.4780410315179
 20
407.3011878656434
 30
0.0
 11
-113.635420789531
 21
406.6671160479709
 31
0.0
  0
LINE
  5
DF2
330
1F
100
AcDbEntity
  8
ceco.net 155
100
AcDbLine
 10
-107.6157946810635
 20
406.3286369021189
 30
0.0
 11
-93.37802945770453
 21
406.0833134102503
 31
0.0
  0
LINE
  5
DF3
330
1F
100
AcDbEntity
  8
ceco.net 155
100
AcDbLine
 10
-93.37802945770453
 20
406.0833134102503
 30
0.0
 11
-66.91749550275926
 21
397.6456098937451
 31
0.0
  0
LINE
  5
DF4
330
1F
100
AcDbEntity
  8
ceco.net 155
100
AcDbLine
 10
-66.91749550275926
 20
397.6456098937451
 30
0.0
 11
-55.78682967706118
 21
389.6526310538502
 31
0.0
  0
LINE
  5
DF5
330
1F
100
AcDbEntity
  8
ceco.net 155
100
AcDbLine
 10
-118.9377084903571
 20
402.4643451085685
 30
0.0
 11
-107.6157946810635
 21
406.3286369021189
 31
0.0
  0
LINE
  5
DF6
330
1F
100
AcDbEntity
  8
ceco.net 155
100
AcDbLine
 10
22.65166620934542
 20
246.3378778864935
 30
0.0
 11
23.25617967506332
 21
250.9253210876449
 31
0.0
  0
LINE
  5
DF7
330
1F
100
AcDbEntity
  8
ceco.net 155
100
AcDbLine
 10
39.04315582661002
 20
255.8295416786277
 30
0.0
 11
52.09813341861445
 21
247.3842909953418
 31
0.0
  0
LINE
  5
DF8
330
1F
100
AcDbEntity
  8
ceco.net 155
100
AcDbLine
 10
39.69977650002693
 20
259.1236702914975
 30
0.0
 11
31.75796409923714
 21
260.088899709066
 31
0.0
  0
LINE
  5
DF9
330
1F
100
AcDbEntity
  8
ceco.net 155
100
AcDbLine
 10
30.32785826205872
 20
260.2627114480783
 30
0.0
 11
24.16197334281969
 21
261.0120987678783
 31
0.0
  0
LINE
  5
DFA
330
1F
100
AcDbEntity
  8
ceco.net 155
100
AcDbLine
 10
30.65308063881821
 20
258.7974939606356
 30
0.0
 11
35.07231456825684
 21
258.3982745327412
 31
0.0
  0
LINE
  5
DFB
330
1F
100
AcDbEntity
  8
ceco.net 155
100
AcDbLine
 10
-45.60800367425691
 20
268.0879693825772
 30
0.0
 11
-45.10404335240309
 21
268.3593551909107
 31
0.0
  0
LINE
  5
DFC
330
1F
100
AcDbEntity
  8
ceco.net 155
100
AcDbLine
 10
-57.78305963222374
 20
261.5316250447031
 30
0.0
 11
-46.56651349621824
 21
267.5718058047059
 31
0.0
  0
LINE
  5
DFD
330
1F
100
AcDbEntity
  8
ceco.net 155
100
AcDbLine
 10
-42.84886596710566
 20
263.2265589422604
 30
0.0
 11
-52.03421558581613
 21
257.2845663499938
 31
0.0
  0
LINE
  5
DFE
330
1F
100
AcDbEntity
  8
ceco.net 155
100
AcDbLine
 10
-50.72729775247353
 20
272.4349980770384
 30
0.0
 11
-65.95485128693326
 21
267.0185910306317
 31
0.0
  0
LINE
  5
DFF
330
1F
100
AcDbEntity
  8
ceco.net 155
100
AcDbLine
 10
-66.27560302675556
 20
266.9045003475912
 30
0.0
 11
-66.98538271069264
 21
266.6520332869586
 31
0.0
  0
LINE
  5
E00
330
1F
100
AcDbEntity
  8
ceco.net 155
100
AcDbLine
 10
-66.95758398356701
 20
267.6918779219049
 30
0.0
 11
-58.35982209333088
 21
274.7041789938303
 31
0.0
  0
LINE
  5
E01
330
1F
100
AcDbEntity
  8
ceco.net 155
100
AcDbLine
 10
-53.07961696005441
 20
275.587209474459
 30
0.0
 11
-40.10130154352373
 21
277.7576266856849
 31
0.0
  0
LINE
  5
E02
330
1F
100
AcDbEntity
  8
ceco.net 155
100
AcDbLine
 10
-54.54070112624322
 20
277.0536961002398
 30
0.0
 11
-42.13229172494902
 21
278.3526904866012
 31
0.0
  0
LINE
  5
E03
330
1F
100
AcDbEntity
  8
ceco.net 155
100
AcDbLine
 10
-57.16666715549945
 20
504.2967326682664
 30
0.0
 11
-56.35163945583554
 21
507.8535883867516
 31
0.0
  0
LINE
  5
E04
330
1F
100
AcDbEntity
  8
ceco.net 155
100
AcDbLine
 10
-71.77612831929582
 20
526.5249716292164
 30
0.0
 11
-67.46417037236824
 21
516.9741860390786
 31
0.0
  0
LINE
  5
E05
330
1F
100
AcDbEntity
  8
ceco.net 155
100
AcDbLine
 10
41.40774557641998
 20
525.9462656494833
 30
0.0
 11
34.64417108620546
 21
517.6380236418954
 31
0.0
  0
LINE
  5
E06
330
1F
100
AcDbEntity
  8
ceco.net 155
100
AcDbLine
 10
112.9013367268562
 20
506.2382941645227
 30
0.0
 11
123.5012558756279
 21
508.3787947218079
 31
0.0
  0
LINE
  5
E07
330
1F
100
AcDbEntity
  8
ceco.net 155
100
AcDbLine
 10
123.5012558756279
 20
508.3787947218079
 30
0.0
 11
142.9345170801679
 21
509.922015267879
 31
0.0
  0
LINE
  5
E08
330
1F
100
AcDbEntity
  8
ceco.net 155
100
AcDbLine
 10
142.9345170801679
 20
509.922015267879
 30
0.0
 11
171.3817409702824
 21
507.788549219982
 31
0.0
  0
LINE
  5
E09
330
1F
100
AcDbEntity
  8
ceco.net 155
100
AcDbLine
 10
171.3817409702824
 20
507.788549219982
 30
0.0
 11
195.9391072636608
 21
502.4354936759919
 31
0.0
  0
LINE
  5
E0A
330
1F
100
AcDbEntity
  8
ceco.net 155
100
AcDbLine
 10
195.9391072636608
 20
502.4354936759919
 30
0.0
 11
216.9424487089527
 21
495.1873580580468
 31
0.0
  0
LINE
  5
E0B
330
1F
100
AcDbEntity
  8
ceco.net 155
100
AcDbLine
 10
216.9424487089527
 20
495.1873580580468
 30
0.0
 11
225.0675805660794
 21
489.8826796438697
 31
0.0
  0
LINE
  5
E0C
330
1F
100
AcDbEntity
  8
ceco.net 155
100
AcDbLine
 10
225.0675805660794
 20
489.8826796438697
 30
0.0
 11
215.3899410400918
 21
500.4570397245515
 31
0.0
  0
LINE
  5
E0D
330
1F
100
AcDbEntity
  8
ceco.net 155
100
AcDbLine
 10
215.3899410400918
 20
500.4570397245515
 30
0.0
 11
193.6326113590839
 21
509.3614737194257
 31
0.0
  0
LINE
  5
E0E
330
1F
100
AcDbEntity
  8
ceco.net 155
100
AcDbLine
 10
193.6326113590839
 20
509.3614737194257
 30
0.0
 11
227.1001001645963
 21
498.8467194069707
 31
0.0
  0
LINE
  5
E0F
330
1F
100
AcDbEntity
  8
ceco.net 155
100
AcDbLine
 10
227.1001001645963
 20
498.8467194069707
 30
0.0
 11
255.4988479942658
 21
489.358334378383
 31
0.0
  0
LINE
  5
E10
330
1F
100
AcDbEntity
  8
ceco.net 155
100
AcDbLine
 10
255.4988479942658
 20
489.358334378383
 30
0.0
 11
218.7699343577987
 21
505.8764901585854
 31
0.0
  0
LINE
  5
E11
330
1F
100
AcDbEntity
  8
ceco.net 155
100
AcDbLine
 10
218.7699343577987
 20
505.8764901585854
 30
0.0
 11
199.3474071380842
 21
509.4977631741821
 31
0.0
  0
LINE
  5
E12
330
1F
100
AcDbEntity
  8
ceco.net 155
100
AcDbLine
 10
199.3474071380842
 20
509.4977631741821
 30
0.0
 11
188.9577136418592
 21
510.537562305446
 31
0.0
  0
LINE
  5
E13
330
1F
100
AcDbEntity
  8
ceco.net 155
100
AcDbLine
 10
188.9577136418592
 20
510.537562305446
 30
0.0
 11
166.0189036497904
 21
514.4541806661218
 31
0.0
  0
LINE
  5
E14
330
1F
100
AcDbEntity
  8
ceco.net 155
100
AcDbLine
 10
166.0189036497904
 20
514.4541806661218
 30
0.0
 11
133.6777783691941
 21
513.1333687802471
 31
0.0
  0
LINE
  5
E15
330
1F
100
AcDbEntity
  8
ceco.net 155
100
AcDbLine
 10
133.6777783691941
 20
513.1333687802471
 30
0.0
 11
114.2013833638811
 21
509.0868048981755
 31
0.0
  0
LINE
  5
E16
330
1F
100
AcDbEntity
  8
ceco.net 155
100
AcDbLine
 10
114.2013833638811
 20
509.0868048981755
 30
0.0
 11
102.6531243883873
 21
506.468689542431
 31
0.0
  0
LINE
  5
E17
330
1F
100
AcDbEntity
  8
ceco.net 155
100
AcDbLine
 10
102.6531243883873
 20
506.468689542431
 30
0.0
 11
100.6717152561213
 21
505.6853895907043
 31
0.0
  0
ARC
  5
E18
330
1F
100
AcDbEntity
  8
ceco.net 155
100
AcDbCircle
 10
-91.99809479678515
 20
20.00000000010913
 30
0.0
 40
20.0
100
AcDbArc
 50
233.6171543971442
 51
269.9999999997915
  0
ARC
  5
E19
330
1F
100
AcDbEntity
  8
ceco.net 155
100
AcDbCircle
 10
91.99809479679606
 20
20.00000000006912
 30
0.0
 40
20.0
100
AcDbArc
 50
270.0
 51
306.3828456028557
  0
LINE
  5
E1A
330
1F
100
AcDbEntity
  8
ceco.net 155
100
AcDbLine
 10
-18.82568199033267
 20
436.5693390005872
 30
0.0
 11
-33.10692727205241
 21
466.0819232507273
 31
0.0
  0
LINE
  5
E1B
330
1F
100
AcDbEntity
  8
ceco.net 155
100
AcDbLine
 10
-33.10692727205241
 20
466.0819232507273
 30
0.0
 11
-46.7083205381241
 21
489.6355877651804
 31
0.0
  0
LINE
  5
E1C
330
1F
100
AcDbEntity
  8
ceco.net 155
100
AcDbLine
 10
-46.7083205381241
 20
489.6355877651804
 30
0.0
 11
-67.76842349307116
 21
507.2140584378539
 31
0.0
  0
LINE
  5
E1D
330
1F
100
AcDbEntity
  8
ceco.net 155
100
AcDbLine
 10
-67.76842349307116
 20
507.2140584378539
 30
0.0
 11
-90.9001855188144
 21
518.0984921768213
 31
0.0
  0
LINE
  5
E1E
330
1F
100
AcDbEntity
  8
ceco.net 155
100
AcDbLine
 10
-90.9001855188144
 20
518.0984921768213
 30
0.0
 11
-108.3197981626508
 21
524.4240986844488
 31
0.0
  0
LINE
  5
E1F
330
1F
100
AcDbEntity
  8
ceco.net 155
100
AcDbLine
 10
-123.9981927591834
 20
536.4321506205015
 30
0.0
 11
-94.60133273722021
 21
525.8310297757597
 31
0.0
  0
LINE
  5
E20
330
1F
100
AcDbEntity
  8
ceco.net 155
100
AcDbLine
 10
-94.60133273722021
 20
525.8310297757597
 30
0.0
 11
-77.40292921840228
 21
520.2917618545398
 31
0.0
  0
LINE
  5
E21
330
1F
100
AcDbEntity
  8
ceco.net 155
100
AcDbLine
 10
-77.40292921840228
 20
520.2917618545398
 30
0.0
 11
-57.94385945824251
 21
505.1667115952804
 31
0.0
  0
LINE
  5
E22
330
1F
100
AcDbEntity
  8
ceco.net 155
100
AcDbLine
 10
-57.94385945824251
 20
505.1667115952804
 30
0.0
 11
-48.50090836992603
 21
494.5963953084647
 31
0.0
  0
LINE
  5
E23
330
1F
100
AcDbEntity
  8
ceco.net 155
100
AcDbLine
 10
-48.50090836992603
 20
494.5963953084647
 30
0.0
 11
-34.89686870664809
 21
475.7378474803336
 31
0.0
  0
LINE
  5
E24
330
1F
100
AcDbEntity
  8
ceco.net 155
100
AcDbLine
 10
-34.89686870664809
 20
475.7378474803336
 30
0.0
 11
-29.28716210163475
 21
465.23357982585
 31
0.0
  0
LINE
  5
E25
330
1F
100
AcDbEntity
  8
ceco.net 155
100
AcDbLine
 10
-29.28716210163475
 20
465.23357982585
 30
0.0
 11
-44.61105077319371
 21
497.8159848044488
 31
0.0
  0
LINE
  5
E26
330
1F
100
AcDbEntity
  8
ceco.net 155
100
AcDbLine
 10
-44.61105077319371
 20
497.8159848044488
 30
0.0
 11
-53.09912240050471
 21
513.8475373948968
 31
0.0
  0
LINE
  5
E27
330
1F
100
AcDbEntity
  8
ceco.net 155
100
AcDbLine
 10
-53.09912240050471
 20
513.8475373948968
 30
0.0
 11
-59.26047915414165
 21
524.1265521304995
 31
0.0
  0
LINE
  5
E28
330
1F
100
AcDbEntity
  8
ceco.net 155
100
AcDbLine
 10
-59.26047915414165
 20
524.1265521304995
 30
0.0
 11
-70.6429425831011
 21
531.1306627224912
 31
0.0
  0
LINE
  5
E29
330
1F
100
AcDbEntity
  8
ceco.net 155
100
AcDbLine
 10
-70.6429425831011
 20
531.1306627224912
 30
0.0
 11
-55.60530999519688
 21
527.3501854203459
 31
0.0
  0
LINE
  5
E2A
330
1F
100
AcDbEntity
  8
ceco.net 155
100
AcDbLine
 10
-55.60530999519688
 20
527.3501854203459
 30
0.0
 11
-47.76074570446144
 21
523.9284062332699
 31
0.0
  0
LINE
  5
E2B
330
1F
100
AcDbEntity
  8
ceco.net 155
100
AcDbLine
 10
-47.76074570446144
 20
523.9284062332699
 30
0.0
 11
-34.58025325340349
 21
507.7377482872434
 31
0.0
  0
LINE
  5
E2C
330
1F
100
AcDbEntity
  8
ceco.net 155
100
AcDbLine
 10
-34.58025325340349
 20
507.7377482872434
 30
0.0
 11
-26.62496073679358
 21
492.5761554875426
 31
0.0
  0
LINE
  5
E2D
330
1F
100
AcDbEntity
  8
ceco.net 155
100
AcDbLine
 10
-26.62496073679358
 20
492.5761554875426
 30
0.0
 11
-23.90699953598959
 21
477.7395625209246
 31
0.0
  0
LINE
  5
E2E
330
1F
100
AcDbEntity
  8
ceco.net 155
100
AcDbLine
 10
-23.90699953598959
 20
477.7395625209246
 30
0.0
 11
-18.82568199033267
 21
436.5693390005872
 31
0.0
  0
LINE
  5
E2F
330
1F
100
AcDbEntity
  8
ceco.net 155
100
AcDbLine
 10
-18.82568199033267
 20
436.5693390005872
 30
0.0
 11
-21.29986549192108
 21
483.7200986223725
 31
0.0
  0
LINE
  5
E30
330
1F
100
AcDbEntity
  8
ceco.net 155
100
AcDbLine
 10
-21.29986549192108
 20
483.7200986223725
 30
0.0
 11
-19.56019323750661
 21
507.4789454826059
 31
0.0
  0
LINE
  5
E31
330
1F
100
AcDbEntity
  8
ceco.net 155
100
AcDbLine
 10
-19.56019323750661
 20
507.4789454826059
 30
0.0
 11
-18.29778259056911
 21
512.1617889569606
 31
0.0
  0
LINE
  5
E32
330
1F
100
AcDbEntity
  8
ceco.net 155
100
AcDbLine
 10
-108.3197981626508
 20
524.4240986844488
 30
0.0
 11
-153.8293176025108
 21
533.6407008237547
 31
0.0
  0
LINE
  5
E33
330
1F
100
AcDbEntity
  8
ceco.net 155
100
AcDbLine
 10
-123.9981927591834
 20
536.4321506205015
 30
0.0
 11
-162.282759260328
 21
534.7873021996747
 31
0.0
  0
LINE
  5
E34
330
1F
100
AcDbEntity
  8
ceco.net 155
100
AcDbLine
 10
-5.122627632488729
 20
266.8951830480109
 30
0.0
 11
-12.50912764504028
 21
294.5100953390938
 31
0.0
  0
LINE
  5
E35
330
1F
100
AcDbEntity
  8
ceco.net 155
100
AcDbLine
 10
-12.50912764504028
 20
294.5100953390938
 30
0.0
 11
-23.19286802042552
 21
296.6504989047971
 31
0.0
  0
LINE
  5
E36
330
1F
100
AcDbEntity
  8
ceco.net 155
100
AcDbLine
 10
-23.19286802042552
 20
296.6504989047971
 30
0.0
 11
-35.84197757905712
 21
303.6523816258304
 31
0.0
  0
LINE
  5
E37
330
1F
100
AcDbEntity
  8
ceco.net 155
100
AcDbLine
 10
-40.55586755071636
 20
306.261743540861
 30
0.0
 11
-52.69351875056599
 21
299.0206510474745
 31
0.0
  0
LINE
  5
E38
330
1F
100
AcDbEntity
  8
ceco.net 155
100
AcDbLine
 10
34.17419297344895
 20
289.3560259011282
 30
0.0
 11
22.97876575330155
 21
290.895442890589
 31
0.0
  0
LINE
  5
E39
330
1F
100
AcDbEntity
  8
ceco.net 155
100
AcDbLine
 10
35.35877434791109
 20
290.7279746535132
 30
0.0
 11
55.8486263508421
 21
290.6792792331325
 31
0.0
  0
LINE
  5
E3A
330
1F
100
AcDbEntity
  8
ceco.net 155
100
AcDbLine
 10
-38.1816697206159
 20
309.5918978306253
 30
0.0
 11
-35.81492120115945
 21
308.9188994381438
 31
0.0
  0
LINE
  5
E3B
330
1F
100
AcDbEntity
  8
ceco.net 155
100
AcDbLine
 10
-36.86538046053101
 20
304.2188837119356
 30
0.0
 11
-40.55586755071636
 21
306.261743540861
 31
0.0
  0
LINE
  5
E3C
330
1F
100
AcDbEntity
  8
ceco.net 155
100
AcDbLine
 10
-33.08804120062268
 20
295.5828857083724
 30
0.0
 11
-33.30334188143024
 21
295.729169329661
 31
0.0
  0
LINE
  5
E3D
330
1F
100
AcDbEntity
  8
ceco.net 155
100
AcDbLine
 10
-26.7112229607701
 20
280.47315045516
 30
0.0
 11
-22.91484792038681
 21
280.995167535937
 31
0.0
  0
LINE
  5
E3E
330
1F
100
AcDbEntity
  8
ceco.net 155
100
AcDbLine
 10
-27.65172550938586
 20
280.7178856209939
 30
0.0
 11
-27.84734890695472
 21
280.8453987684078
 31
0.0
  0
LINE
  5
E3F
330
1F
100
AcDbEntity
  8
ceco.net 155
100
AcDbLine
 10
-21.52339728267179
 20
267.0254829896257
 30
0.0
 11
-20.38844135671024
 21
268.6659616991855
 31
0.0
  0
LINE
  5
E40
330
1F
100
AcDbEntity
  8
ceco.net 155
100
AcDbLine
 10
26.29542376699464
 20
269.3550708421353
 30
0.0
 11
26.06995552077569
 21
270.4464969218643
 31
0.0
  0
LINE
  5
E41
330
1F
100
AcDbEntity
  8
ceco.net 155
100
AcDbLine
 10
19.4688432851035
 20
293.643203577405
 30
0.0
 11
32.46064207662129
 21
297.5696272710592
 31
0.0
  0
LINE
  5
E42
330
1F
100
AcDbEntity
  8
ceco.net 155
100
AcDbLine
 10
32.46064207662129
 20
297.5696272710592
 30
0.0
 11
37.00189673617569
 21
306.8034511504738
 31
0.0
  0
LINE
  5
E43
330
1F
100
AcDbEntity
  8
ceco.net 155
100
AcDbLine
 10
37.00189673617569
 20
306.8034511504738
 30
0.0
 11
42.02470911815908
 21
312.1945950276785
 31
0.0
  0
LINE
  5
E44
330
1F
100
AcDbEntity
  8
ceco.net 155
100
AcDbLine
 10
21.38736703688482
 20
309.2642458938171
 30
0.0
 11
28.38172784396738
 21
315.1685147744283
 31
0.0
  0
LINE
  5
E45
330
1F
100
AcDbEntity
  8
ceco.net 155
100
AcDbLine
 10
28.38172784396738
 20
315.1685147744283
 30
0.0
 11
41.13676124298581
 21
316.2367130607308
 31
0.0
  0
LINE
  5
E46
330
1F
100
AcDbEntity
  8
ceco.net 155
100
AcDbLine
 10
8.841406257321068
 20
220.871415143054
 30
0.0
 11
19.21025506084697
 21
291.5377213851133
 31
0.0
  0
LINE
  5
E47
330
1F
100
AcDbEntity
  8
ceco.net 155
100
AcDbLine
 10
19.21025506084697
 20
291.5377213851133
 30
0.0
 11
24.89594175284946
 21
337.8318328527711
 31
0.0
  0
LINE
  5
E48
330
1F
100
AcDbEntity
  8
ceco.net 155
100
AcDbLine
 10
1.314044120765174
 20
301.4253921152231
 30
0.0
 11
-1.382115742042515
 21
336.2618213574278
 31
0.0
  0
LINE
  5
E49
330
1F
100
AcDbEntity
  8
ceco.net 155
100
AcDbLine
 10
-1.382115742042515
 20
336.2618213574278
 30
0.0
 11
-10.06765789639394
 21
361.6471514044424
 31
0.0
  0
LINE
  5
E4A
330
1F
100
AcDbEntity
  8
ceco.net 155
100
AcDbLine
 10
6.80782340652513
 20
306.2655121478892
 30
0.0
 11
1.122526059763913
 21
340.8355747636742
 31
0.0
  0
LINE
  5
E4B
330
1F
100
AcDbEntity
  8
ceco.net 155
100
AcDbLine
 10
1.122526059763913
 20
340.8355747636742
 30
0.0
 11
-5.921936130274843
 21
367.8228525539016
 31
0.0
  0
LINE
  5
E4C
330
1F
100
AcDbEntity
  8
ceco.net 155
100
AcDbLine
 10
-2.715073708539421
 20
283.6519273851117
 30
0.0
 11
-7.591651764010748
 21
311.953970745777
 31
0.0
  0
LINE
  5
E4D
330
1F
100
AcDbEntity
  8
ceco.net 155
100
AcDbLine
 10
-7.591651764010748
 20
311.953970745777
 30
0.0
 11
-13.72889415079771
 21
337.257089291259
 31
0.0
  0
LINE
  5
E4E
330
1F
100
AcDbEntity
  8
ceco.net 155
100
AcDbLine
 10
-13.72889415079771
 20
337.257089291259
 30
0.0
 11
-19.99474503855526
 21
346.0095020027474
 31
0.0
  0
LINE
  5
E4F
330
1F
100
AcDbEntity
  8
ceco.net 155
100
AcDbLine
 10
4.360103208175132
 20
287.4599296118285
 30
0.0
 11
-2.756350225292408
 21
320.0871901906357
 31
0.0
  0
LINE
  5
E50
330
1F
100
AcDbEntity
  8
ceco.net 155
100
AcDbLine
 10
-2.756350225292408
 20
320.0871901906357
 30
0.0
 11
-11.12176010672556
 21
343.2376253927031
 31
0.0
  0
LINE
  5
E51
330
1F
100
AcDbEntity
  8
ceco.net 155
100
AcDbLine
 10
-11.12176010672556
 20
343.2376253927031
 30
0.0
 11
-16.1176261921646
 21
352.6347771382934
 31
0.0
  0
LINE
  5
E52
330
1F
100
AcDbEntity
  8
ceco.net 155
100
AcDbLine
 10
-36.06729037458717
 20
372.9211489992667
 30
0.0
 11
-32.33707301961476
 21
369.9743368626986
 31
0.0
  0
LINE
  5
E53
330
1F
100
AcDbEntity
  8
ceco.net 155
100
AcDbLine
 10
-32.33707301961476
 20
369.9743368626986
 30
0.0
 11
-24.57940311370112
 21
361.9791934061177
 31
0.0
  0
LINE
  5
E54
330
1F
100
AcDbEntity
  8
ceco.net 155
100
AcDbLine
 10
-56.66639686092094
 20
387.7712869444949
 30
0.0
 11
-57.76319956844964
 21
388.4888159584552
 31
0.0
  0
LINE
  5
E55
330
1F
100
AcDbEntity
  8
ceco.net 155
100
AcDbLine
 10
-57.76319956844964
 20
388.4888159584552
 30
0.0
 11
-75.5482994490485
 21
391.7688645003654
 31
0.0
  0
LINE
  5
E56
330
1F
100
AcDbEntity
  8
ceco.net 155
100
AcDbLine
 10
-75.5482994490485
 20
391.7688645003654
 30
0.0
 11
-99.72250700303266
 21
387.5684880569024
 31
0.0
  0
LINE
  5
E57
330
1F
100
AcDbEntity
  8
ceco.net 155
100
AcDbLine
 10
-99.72250700303266
 20
387.5684880569024
 30
0.0
 11
-110.5221200025953
 21
378.442498679422
 31
0.0
  0
LINE
  5
E58
330
1F
100
AcDbEntity
  8
ceco.net 155
100
AcDbLine
 10
-110.5221200025953
 20
378.442498679422
 30
0.0
 11
-127.3843445151724
 21
353.5356719286283
 31
0.0
  0
LINE
  5
E59
330
1F
100
AcDbEntity
  8
ceco.net 155
100
AcDbLine
 10
-127.3843445151724
 20
353.5356719286283
 30
0.0
 11
-113.4016845600708
 21
370.2755809528098
 31
0.0
  0
LINE
  5
E5A
330
1F
100
AcDbEntity
  8
ceco.net 155
100
AcDbLine
 10
-113.4016845600708
 20
370.2755809528098
 30
0.0
 11
-95.65182875411119
 21
383.1161968614651
 31
0.0
  0
LINE
  5
E5B
330
1F
100
AcDbEntity
  8
ceco.net 155
100
AcDbLine
 10
-95.65182875411119
 20
383.1161968614651
 30
0.0
 11
-76.14308339833224
 21
389.0402682454841
 31
0.0
  0
LINE
  5
E5C
330
1F
100
AcDbEntity
  8
ceco.net 155
100
AcDbLine
 10
-76.14308339833224
 20
389.0402682454841
 30
0.0
 11
-59.96306050638668
 21
387.978951679317
 31
0.0
  0
LINE
  5
E5D
330
1F
100
AcDbEntity
  8
ceco.net 155
100
AcDbLine
 10
-59.96306050638668
 20
387.978951679317
 30
0.0
 11
-57.31019581635701
 21
386.3942376472477
 31
0.0
  0
LINE
  5
E5E
330
1F
100
AcDbEntity
  8
ceco.net 155
100
AcDbLine
 10
-23.69720365312241
 20
366.2028202266156
 30
0.0
 11
-35.48030779504552
 21
373.9113342905366
 31
0.0
  0
LINE
  5
E5F
330
1F
100
AcDbEntity
  8
ceco.net 155
100
AcDbLine
 10
-35.31839367934662
 20
374.3268954141167
 30
0.0
 11
-23.68516293473658
 21
366.2604664884675
 31
0.0
  0
LINE
  5
E60
330
1F
100
AcDbEntity
  8
ceco.net 155
100
AcDbLine
 10
-33.63990532205207
 20
379.4809737748764
 30
0.0
 11
-25.18988385116244
 21
371.4944941809808
 31
0.0
  0
LINE
  5
E61
330
1F
100
AcDbEntity
  8
ceco.net 155
100
AcDbLine
 10
-25.18988385116244
 20
371.4944941809808
 30
0.0
 11
-33.87877458926595
 21
378.7474858624664
 31
0.0
  0
LINE
  5
E62
330
1F
100
AcDbEntity
  8
ceco.net 155
100
AcDbLine
 10
-23.17144765896228
 20
368.7199347991736
 30
0.0
 11
-28.7400627668685
 21
387.9887334558152
 31
0.0
  0
LINE
  5
E63
330
1F
100
AcDbEntity
  8
ceco.net 155
100
AcDbLine
 10
-28.7400627668685
 20
387.9887334558152
 30
0.0
 11
-30.26416051732303
 21
389.8467610464468
 31
0.0
  0
LINE
  5
E64
330
1F
100
AcDbEntity
  8
ceco.net 155
100
AcDbLine
 10
-4.045088489117915
 20
404.3896538975132
 30
0.0
 11
-4.026484841851925
 21
405.3262706880814
 31
0.0
  0
LINE
  5
E65
330
1F
100
AcDbEntity
  8
ceco.net 155
100
AcDbLine
 10
-4.026484841851925
 20
405.3262706880814
 30
0.0
 11
-6.411210225731338
 21
412.2535986628027
 31
0.0
  0
LINE
  5
E66
330
1F
100
AcDbEntity
  8
ceco.net 155
100
AcDbLine
 10
-6.411210225731338
 20
412.2535986628027
 30
0.0
 11
-12.94474440697376
 21
414.5572503088041
 31
0.0
  0
LINE
  5
E67
330
1F
100
AcDbEntity
  8
ceco.net 155
100
AcDbLine
 10
-12.94474440697376
 20
414.5572503088041
 30
0.0
 11
-19.17479619026562
 21
416.3079038748946
 31
0.0
  0
LINE
  5
E68
330
1F
100
AcDbEntity
  8
ceco.net 155
100
AcDbLine
 10
-19.17479619026562
 20
416.3079038748946
 30
0.0
 11
-23.9494408216924
 21
411.695010996369
 31
0.0
  0
LINE
  5
E69
330
1F
100
AcDbEntity
  8
ceco.net 155
100
AcDbLine
 10
-23.9494408216924
 20
411.695010996369
 30
0.0
 11
-27.7056553607581
 21
398.0655090350665
 31
0.0
  0
LINE
  5
E6A
330
1F
100
AcDbEntity
  8
ceco.net 155
100
AcDbLine
 10
-27.7056553607581
 20
398.0655090350665
 30
0.0
 11
-26.2704177127307
 21
385.9898626737958
 31
0.0
  0
LINE
  5
E6B
330
1F
100
AcDbEntity
  8
ceco.net 155
100
AcDbLine
 10
-26.2704177127307
 20
385.9898626737958
 30
0.0
 11
-22.55847260465088
 21
371.6546202028912
 31
0.0
  0
LINE
  5
E6C
330
1F
100
AcDbEntity
  8
ceco.net 155
100
AcDbLine
 10
21.8978625769123
 20
352.1558305068829
 30
0.0
 11
21.55514845725702
 21
350.4216044284512
 31
0.0
  0
LINE
  5
E6D
330
1F
100
AcDbEntity
  8
ceco.net 155
100
AcDbLine
 10
21.55514845725702
 20
350.4216044284512
 30
0.0
 11
13.58728877398243
 21
323.4142062178761
 31
0.0
  0
LINE
  5
E6E
330
1F
100
AcDbEntity
  8
ceco.net 155
100
AcDbLine
 10
-4.142246583171072
 20
395.3273569430675
 30
0.0
 11
-13.35990723935537
 21
390.4625706999249
 31
0.0
  0
LINE
  5
E6F
330
1F
100
AcDbEntity
  8
ceco.net 155
100
AcDbLine
 10
-13.35990723935537
 20
390.4625706999249
 30
0.0
 11
-22.43837276460544
 21
372.229611378887
 31
0.0
  0
LINE
  5
E70
330
1F
100
AcDbEntity
  8
ceco.net 155
100
AcDbLine
 10
-22.43837276460544
 20
372.229611378887
 30
0.0
 11
-25.67933129960874
 21
356.7131663966174
 31
0.0
  0
LINE
  5
E71
330
1F
100
AcDbEntity
  8
ceco.net 155
100
AcDbLine
 10
-25.67933129960874
 20
356.7131663966174
 30
0.0
 11
-26.53965770985815
 21
338.5733627295631
 31
0.0
  0
LINE
  5
E72
330
1F
100
AcDbEntity
  8
ceco.net 155
100
AcDbLine
 10
-26.53965770985815
 20
338.5733627295631
 30
0.0
 11
-26.96984564777813
 21
331.7727897599543
 31
0.0
  0
LINE
  5
E73
330
1F
100
AcDbEntity
  8
ceco.net 155
100
AcDbLine
 10
-26.96984564777813
 20
331.7727897599543
 30
0.0
 11
-18.45381372123301
 21
349.1546603281713
 31
0.0
  0
LINE
  5
E74
330
1F
100
AcDbEntity
  8
ceco.net 155
100
AcDbLine
 10
-18.45381372123301
 20
349.1546603281713
 30
0.0
 11
-5.523232674757309
 21
368.4167837262757
 31
0.0
  0
LINE
  5
E75
330
1F
100
AcDbEntity
  8
ceco.net 155
100
AcDbLine
 10
-5.523232674757309
 20
368.4167837262757
 30
0.0
 11
1.845017222596652
 21
382.7665756415408
 31
0.0
  0
LINE
  5
E76
330
1F
100
AcDbEntity
  8
ceco.net 155
100
AcDbLine
 10
1.845017222596652
 20
382.7665756415408
 30
0.0
 11
2.768267880597704
 21
383.806880910477
 31
0.0
  0
LINE
  5
E77
330
1F
100
AcDbEntity
  8
ceco.net 155
100
AcDbLine
 10
24.44939186267947
 20
373.0650196100687
 30
0.0
 11
24.27166846383988
 21
373.658795844829
 31
0.0
  0
LINE
  5
E78
330
1F
100
AcDbEntity
  8
ceco.net 155
100
AcDbLine
 10
40.19204384469048
 20
387.2489509255974
 30
0.0
 11
47.93795995300752
 21
419.2206596942487
 31
0.0
  0
LINE
  5
E79
330
1F
100
AcDbEntity
  8
ceco.net 155
100
AcDbLine
 10
47.93795995300752
 20
419.2206596942487
 30
0.0
 11
62.72418480870692
 21
464.4307074403295
 31
0.0
  0
LINE
  5
E7A
330
1F
100
AcDbEntity
  8
ceco.net 155
100
AcDbLine
 10
62.72418480870692
 20
464.4307074403295
 30
0.0
 11
68.01107503742241
 21
478.4966447207371
 31
0.0
  0
LINE
  5
E7B
330
1F
100
AcDbEntity
  8
ceco.net 155
100
AcDbLine
 10
64.53605781032092
 20
539.4795915437498
 30
0.0
 11
64.94607020164767
 21
547.9663119662072
 31
0.0
  0
LINE
  5
E7C
330
1F
100
AcDbEntity
  8
ceco.net 155
100
AcDbLine
 10
64.94607020164767
 20
547.9663119662072
 30
0.0
 11
71.66427096746338
 21
556.3800989773445
 31
0.0
  0
LINE
  5
E7D
330
1F
100
AcDbEntity
  8
ceco.net 155
100
AcDbLine
 10
62.21397427209012
 20
498.4011724724296
 30
0.0
 11
63.7297415390276
 21
522.7898989605855
 31
0.0
  0
LINE
  5
E7E
330
1F
100
AcDbEntity
  8
ceco.net 155
100
AcDbLine
 10
63.7297415390276
 20
522.7898989605855
 30
0.0
 11
64.42423339064408
 21
537.1649722633082
 31
0.0
  0
LINE
  5
E7F
330
1F
100
AcDbEntity
  8
ceco.net 155
100
AcDbLine
 10
71.84004615221056
 20
516.6246962745645
 30
0.0
 11
78.53243836229376
 21
541.7067540910247
 31
0.0
  0
LINE
  5
E80
330
1F
100
AcDbEntity
  8
ceco.net 155
100
AcDbLine
 10
78.53243836229376
 20
541.7067540910247
 30
0.0
 11
84.84456555715224
 21
558.3440719424288
 31
0.0
  0
LINE
  5
E81
330
1F
100
AcDbEntity
  8
ceco.net 155
100
AcDbLine
 10
67.52808820528298
 20
507.0739106843139
 30
0.0
 11
67.37812157627195
 21
530.1610425818835
 31
0.0
  0
LINE
  5
E82
330
1F
100
AcDbEntity
  8
ceco.net 155
100
AcDbLine
 10
67.37812157627195
 20
530.1610425818835
 30
0.0
 11
74.03551703868652
 21
548.6704762101908
 31
0.0
  0
LINE
  5
E83
330
1F
100
AcDbEntity
  8
ceco.net 155
100
AcDbLine
 10
74.03551703868652
 20
548.6704762101908
 30
0.0
 11
79.17155564752466
 21
560.6328963443738
 31
0.0
  0
LINE
  5
E84
330
1F
100
AcDbEntity
  8
ceco.net 155
100
AcDbLine
 10
147.4261603475351
 20
531.207610506608
 30
0.0
 11
178.8969153764737
 21
530.6653543734682
 31
0.0
  0
LINE
  5
E85
330
1F
100
AcDbEntity
  8
ceco.net 155
100
AcDbLine
 10
178.8969153764737
 20
530.6653543734682
 30
0.0
 11
213.1897338445633
 21
531.7177795398056
 31
0.0
  0
LINE
  5
E86
330
1F
100
AcDbEntity
  8
ceco.net 155
100
AcDbLine
 10
213.1897338445633
 20
531.7177795398056
 30
0.0
 11
237.4112673894087
 21
525.0402145736662
 31
0.0
  0
LINE
  5
E87
330
1F
100
AcDbEntity
  8
ceco.net 155
100
AcDbLine
 10
237.4112673894087
 20
525.0402145736662
 30
0.0
 11
263.0423289572863
 21
513.8779585960292
 31
0.0
  0
LINE
  5
E88
330
1F
100
AcDbEntity
  8
ceco.net 155
100
AcDbLine
 10
263.0423289572863
 20
513.8779585960292
 30
0.0
 11
225.0577987896976
 21
521.1056773833916
 31
0.0
  0
LINE
  5
E89
330
1F
100
AcDbEntity
  8
ceco.net 155
100
AcDbLine
 10
225.0577987896976
 20
521.1056773833916
 30
0.0
 11
197.7489214097586
 21
525.7236157294792
 31
0.0
  0
LINE
  5
E8A
330
1F
100
AcDbEntity
  8
ceco.net 155
100
AcDbLine
 10
197.7489214097586
 20
525.7236157294792
 30
0.0
 11
173.3453676776589
 21
526.3788587246854
 31
0.0
  0
LINE
  5
E8B
330
1F
100
AcDbEntity
  8
ceco.net 155
100
AcDbLine
 10
173.3453676776589
 20
526.3788587246854
 30
0.0
 11
153.8932354354255
 21
523.7404254691027
 31
0.0
  0
LINE
  5
E8C
330
1F
100
AcDbEntity
  8
ceco.net 155
100
AcDbLine
 10
153.8932354354255
 20
523.7404254691027
 30
0.0
 11
128.8477201594032
 21
518.9290404357525
 31
0.0
  0
LINE
  5
E8D
330
1F
100
AcDbEntity
  8
ceco.net 155
100
AcDbLine
 10
128.8477201594032
 20
518.9290404357525
 30
0.0
 11
108.5161926075161
 21
515.2102217145984
 31
0.0
  0
LINE
  5
E8E
330
1F
100
AcDbEntity
  8
ceco.net 155
100
AcDbLine
 10
108.5161926075161
 20
515.2102217145984
 30
0.0
 11
89.75344913717709
 21
503.2221982884802
 31
0.0
  0
LINE
  5
E8F
330
1F
100
AcDbEntity
  8
ceco.net 155
100
AcDbLine
 10
106.0347270467791
 20
513.6247463644576
 30
0.0
 11
119.9416414410225
 21
524.3254276418847
 31
0.0
  0
LINE
  5
E90
330
1F
100
AcDbEntity
  8
ceco.net 155
100
AcDbLine
 10
119.9416414410225
 20
524.3254276418847
 30
0.0
 11
137.3314017353695
 21
534.4334035019092
 31
0.0
  0
LINE
  5
E91
330
1F
100
AcDbEntity
  8
ceco.net 155
100
AcDbLine
 10
137.3314017353695
 20
534.4334035019092
 30
0.0
 11
163.5139155903889
 21
541.6510313541512
 31
0.0
  0
LINE
  5
E92
330
1F
100
AcDbEntity
  8
ceco.net 155
100
AcDbLine
 10
163.5139155903889
 20
541.6510313541512
 30
0.0
 11
183.8980124619556
 21
548.4207997659504
 31
0.0
  0
LINE
  5
E93
330
1F
100
AcDbEntity
  8
ceco.net 155
100
AcDbLine
 10
183.8980124619556
 20
548.4207997659504
 30
0.0
 11
212.6271023843801
 21
549.0213216979791
 31
0.0
  0
LINE
  5
E94
330
1F
100
AcDbEntity
  8
ceco.net 155
100
AcDbLine
 10
212.6271023843801
 20
549.0213216979791
 30
0.0
 11
236.1216063188221
 21
545.5646446938553
 31
0.0
  0
LINE
  5
E95
330
1F
100
AcDbEntity
  8
ceco.net 155
100
AcDbLine
 10
236.1216063188221
 20
545.5646446938553
 30
0.0
 11
249.2669041607259
 21
540.9559934705648
 31
0.0
  0
LINE
  5
E96
330
1F
100
AcDbEntity
  8
ceco.net 155
100
AcDbLine
 10
249.2669041607259
 20
540.9559934705648
 30
0.0
 11
226.7651206935334
 21
542.9870167416774
 31
0.0
  0
LINE
  5
E97
330
1F
100
AcDbEntity
  8
ceco.net 155
100
AcDbLine
 10
226.7651206935334
 20
542.9870167416774
 30
0.0
 11
202.6475262529784
 21
542.07227842676
 31
0.0
  0
LINE
  5
E98
330
1F
100
AcDbEntity
  8
ceco.net 155
100
AcDbLine
 10
202.6475262529784
 20
542.07227842676
 30
0.0
 11
177.9674982137221
 21
540.3064513590179
 31
0.0
  0
LINE
  5
E99
330
1F
100
AcDbEntity
  8
ceco.net 155
100
AcDbLine
 10
177.9674982137221
 20
540.3064513590179
 30
0.0
 11
159.0050112814133
 21
534.294714976797
 31
0.0
  0
LINE
  5
E9A
330
1F
100
AcDbEntity
  8
ceco.net 155
100
AcDbLine
 10
159.0050112814133
 20
534.294714976797
 30
0.0
 11
138.8798656104809
 21
528.9290333976205
 31
0.0
  0
LINE
  5
E9B
330
1F
100
AcDbEntity
  8
ceco.net 155
100
AcDbLine
 10
138.8798656104809
 20
528.9290333976205
 30
0.0
 11
117.6767809736011
 21
522.5827297786017
 31
0.0
  0
LINE
  5
E9C
330
1F
100
AcDbEntity
  8
ceco.net 155
100
AcDbLine
 10
94.19356103643805
 20
514.5887373809054
 30
0.0
 11
112.0848963034331
 21
531.5817992435549
 31
0.0
  0
LINE
  5
E9D
330
1F
100
AcDbEntity
  8
ceco.net 155
100
AcDbLine
 10
112.0848963034331
 20
531.5817992435549
 30
0.0
 11
131.8471022041812
 21
547.6743549987768
 31
0.0
  0
LINE
  5
E9E
330
1F
100
AcDbEntity
  8
ceco.net 155
100
AcDbLine
 10
131.8471022041812
 20
547.6743549987768
 30
0.0
 11
159.008857213681
 21
552.6840343255826
 31
0.0
  0
LINE
  5
E9F
330
1F
100
AcDbEntity
  8
ceco.net 155
100
AcDbLine
 10
159.008857213681
 20
552.6840343255826
 30
0.0
 11
172.7461936770341
 21
555.1861781264051
 31
0.0
  0
LINE
  5
EA0
330
1F
100
AcDbEntity
  8
ceco.net 155
100
AcDbLine
 10
172.7461936770341
 20
555.1861781264051
 30
0.0
 11
193.4554882431657
 21
549.0386469430196
 31
0.0
  0
LINE
  5
EA1
330
1F
100
AcDbEntity
  8
ceco.net 155
100
AcDbLine
 10
193.4554882431657
 20
549.0386469430196
 30
0.0
 11
174.341835146668
 21
552.4198397959044
 31
0.0
  0
LINE
  5
EA2
330
1F
100
AcDbEntity
  8
ceco.net 155
100
AcDbLine
 10
174.341835146668
 20
552.4198397959044
 30
0.0
 11
159.2368554605127
 21
547.7501854077236
 31
0.0
  0
LINE
  5
EA3
330
1F
100
AcDbEntity
  8
ceco.net 155
100
AcDbLine
 10
159.2368554605127
 20
547.7501854077236
 30
0.0
 11
136.8404084941575
 21
537.7284771492449
 31
0.0
  0
LINE
  5
EA4
330
1F
100
AcDbEntity
  8
ceco.net 155
100
AcDbLine
 10
136.8404084941575
 20
537.7284771492449
 30
0.0
 11
115.2290016481783
 21
523.3110908088747
 31
0.0
  0
LINE
  5
EA5
330
1F
100
AcDbEntity
  8
ceco.net 155
100
AcDbLine
 10
115.2290016481783
 20
523.3110908088747
 30
0.0
 11
101.2528340997087
 21
510.5694658421161
 31
0.0
  0
LINE
  5
EA6
330
1F
100
AcDbEntity
  8
ceco.net 155
100
AcDbLine
 10
77.71405434984626
 20
492.568908381243
 30
0.0
 11
62.58110623225002
 21
474.2930135508941
 31
0.0
  0
LINE
  5
EA7
330
1F
100
AcDbEntity
  8
ceco.net 155
100
AcDbLine
 10
62.58110623225002
 20
474.2930135508941
 30
0.0
 11
92.08841836848661
 21
497.136212376863
 31
0.0
  0
LINE
  5
EA8
330
1F
100
AcDbEntity
  8
ceco.net 155
100
AcDbLine
 10
76.64373518594584
 20
499.6874367889067
 30
0.0
 11
76.71473449005862
 21
499.7946242510843
 31
0.0
  0
LINE
  5
EA9
330
1F
100
AcDbEntity
  8
ceco.net 155
100
AcDbLine
 10
76.71473449005862
 20
499.7946242510843
 30
0.0
 11
87.49802391816411
 21
521.5978330608122
 31
0.0
  0
LINE
  5
EAA
330
1F
100
AcDbEntity
  8
ceco.net 155
100
AcDbLine
 10
87.49802391816411
 20
521.5978330608122
 30
0.0
 11
102.2992738794018
 21
549.5137741675098
 31
0.0
  0
LINE
  5
EAB
330
1F
100
AcDbEntity
  8
ceco.net 155
100
AcDbLine
 10
102.2992738794018
 20
549.5137741675098
 30
0.0
 11
114.0214159892748
 21
562.2234923464493
 31
0.0
  0
LINE
  5
EAC
330
1F
100
AcDbEntity
  8
ceco.net 155
100
AcDbLine
 10
114.0214159892748
 20
562.2234923464493
 30
0.0
 11
130.4725214634527
 21
563.2703279262641
 31
0.0
  0
LINE
  5
EAD
330
1F
100
AcDbEntity
  8
ceco.net 155
100
AcDbLine
 10
130.4725214634527
 20
563.2703279262641
 30
0.0
 11
145.9984019646217
 21
560.5769757460184
 31
0.0
  0
LINE
  5
EAE
330
1F
100
AcDbEntity
  8
ceco.net 155
100
AcDbLine
 10
145.9984019646217
 20
560.5769757460184
 30
0.0
 11
128.7784810107877
 21
560.3259142715178
 31
0.0
  0
LINE
  5
EAF
330
1F
100
AcDbEntity
  8
ceco.net 155
100
AcDbLine
 10
128.7784810107877
 20
560.3259142715178
 30
0.0
 11
120.4605949814722
 21
554.4437771529847
 31
0.0
  0
LINE
  5
EB0
330
1F
100
AcDbEntity
  8
ceco.net 155
100
AcDbLine
 10
120.4605949814722
 20
554.4437771529847
 30
0.0
 11
109.7730086737028
 21
538.1948613700187
 31
0.0
  0
LINE
  5
EB1
330
1F
100
AcDbEntity
  8
ceco.net 155
100
AcDbLine
 10
109.7730086737028
 20
538.1948613700187
 30
0.0
 11
99.64246423971054
 21
522.4841164229037
 31
0.0
  0
LINE
  5
EB2
330
1F
100
AcDbEntity
  8
ceco.net 155
100
AcDbLine
 10
99.64246423971054
 20
522.4841164229037
 30
0.0
 11
88.96835724471385
 21
507.0174954323666
 31
0.0
  0
LINE
  5
EB3
330
1F
100
AcDbEntity
  8
ceco.net 155
100
AcDbLine
 10
88.96835724471385
 20
507.0174954323666
 30
0.0
 11
85.3178369362031
 21
502.0262277819238
 31
0.0
  0
LINE
  5
EB4
330
1F
100
AcDbEntity
  8
ceco.net 155
100
AcDbLine
 10
68.81809686226915
 20
489.4240716301428
 30
0.0
 11
61.28894716068316
 21
476.5063538014837
 31
0.0
  0
LINE
  5
EB5
330
1F
100
AcDbEntity
  8
ceco.net 155
100
AcDbLine
 10
61.28894716068316
 20
476.5063538014837
 30
0.0
 11
70.15956146792451
 21
489.8982968271593
 31
0.0
  0
LINE
  5
EB6
330
1F
100
AcDbEntity
  8
ceco.net 155
100
AcDbLine
 10
56.00255805664346
 20
537.3342603596647
 30
0.0
 11
56.00104987246959
 21
537.4780710908489
 31
0.0
  0
LINE
  5
EB7
330
1F
100
AcDbEntity
  8
ceco.net 155
100
AcDbLine
 10
56.00104987246959
 20
537.4780710908489
 30
0.0
 11
62.07309690450347
 21
553.8065148190326
 31
0.0
  0
LINE
  5
EB8
330
1F
100
AcDbEntity
  8
ceco.net 155
100
AcDbLine
 10
62.07309690450347
 20
553.8065148190326
 30
0.0
 11
68.25717062821786
 21
563.0120321417307
 31
0.0
  0
LINE
  5
EB9
330
1F
100
AcDbEntity
  8
ceco.net 155
100
AcDbLine
 10
68.25717062821786
 20
563.0120321417307
 30
0.0
 11
80.56211370211896
 21
564.1303080789184
 31
0.0
  0
LINE
  5
EBA
330
1F
100
AcDbEntity
  8
ceco.net 155
100
AcDbLine
 10
80.56211370211896
 20
564.1303080789184
 30
0.0
 11
95.13166788037052
 21
564.9748055715244
 31
0.0
  0
LINE
  5
EBB
330
1F
100
AcDbEntity
  8
ceco.net 155
100
AcDbLine
 10
95.13166788037052
 20
564.9748055715244
 30
0.0
 11
97.39912324341275
 21
551.241512902041
 31
0.0
  0
LINE
  5
EBC
330
1F
100
AcDbEntity
  8
ceco.net 155
100
AcDbLine
 10
97.39912324341275
 20
551.241512902041
 30
0.0
 11
96.19607603207624
 21
545.0020255999588
 31
0.0
  0
LINE
  5
EBD
330
1F
100
AcDbEntity
  8
ceco.net 155
100
AcDbLine
 10
96.19607603207624
 20
545.0020255999588
 30
0.0
 11
89.45341464181547
 21
553.3347388732181
 31
0.0
  0
LINE
  5
EBE
330
1F
100
AcDbEntity
  8
ceco.net 155
100
AcDbLine
 10
89.45341464181547
 20
553.3347388732181
 30
0.0
 11
95.44458579734419
 21
564.969413846371
 31
0.0
  0
LINE
  5
EBF
330
1F
100
AcDbEntity
  8
ceco.net 155
100
AcDbLine
 10
95.44458579734419
 20
564.969413846371
 30
0.0
 11
87.82003109656216
 21
553.9106517846922
 31
0.0
  0
LINE
  5
EC0
330
1F
100
AcDbEntity
  8
ceco.net 155
100
AcDbLine
 10
87.82003109656216
 20
553.9106517846922
 30
0.0
 11
83.91010292684223
 21
535.9016469166163
 31
0.0
  0
LINE
  5
EC1
330
1F
100
AcDbEntity
  8
ceco.net 155
100
AcDbLine
 10
83.91010292684223
 20
535.9016469166163
 30
0.0
 11
80.60713955325628
 21
516.7866458889439
 31
0.0
  0
LINE
  5
EC2
330
1F
100
AcDbEntity
  8
ceco.net 155
100
AcDbLine
 10
80.60713955325628
 20
516.7866458889439
 30
0.0
 11
76.76191208458476
 21
502.5326560247558
 31
0.0
  0
LINE
  5
EC3
330
1F
100
AcDbEntity
  8
ceco.net 155
100
AcDbLine
 10
76.76191208458476
 20
502.5326560247558
 30
0.0
 11
74.70122593633641
 21
499.1636796014026
 31
0.0
  0
LINE
  5
EC4
330
1F
100
AcDbEntity
  8
ceco.net 155
100
AcDbLine
 10
57.79180639738843
 20
491.9472355525177
 30
0.0
 11
56.41555728875028
 21
497.9533130319869
 31
0.0
  0
LINE
  5
EC5
330
1F
100
AcDbEntity
  8
ceco.net 155
100
AcDbLine
 10
56.41555728875028
 20
497.9533130319869
 30
0.0
 11
56.09376707800038
 21
528.6371554099424
 31
0.0
  0
LINE
  5
EC6
330
1F
100
AcDbEntity
  8
ceco.net 155
100
AcDbLine
 10
33.04571684140682
 20
386.7725351602785
 30
0.0
 11
38.41702671224266
 21
407.0990352736335
 31
0.0
  0
LINE
  5
EC7
330
1F
100
AcDbEntity
  8
ceco.net 155
100
AcDbLine
 10
38.41702671224266
 20
407.0990352736335
 30
0.0
 11
50.50176233482488
 21
440.8524833706942
 31
0.0
  0
LINE
  5
EC8
330
1F
100
AcDbEntity
  8
ceco.net 155
100
AcDbLine
 10
50.50176233482488
 20
440.8524833706942
 30
0.0
 11
60.62811457895077
 21
469.9445130634122
 31
0.0
  0
LINE
  5
EC9
330
1F
100
AcDbEntity
  8
ceco.net 155
100
AcDbLine
 10
60.62811457895077
 20
469.9445130634122
 30
0.0
 11
61.51015628569803
 21
475.720015215189
 31
0.0
  0
LINE
  5
ECA
330
1F
100
AcDbEntity
  8
ceco.net 155
100
AcDbLine
 10
61.51015628569803
 20
475.720015215189
 30
0.0
 11
59.29106517371474
 21
485.4043325883249
 31
0.0
  0
LINE
  5
ECB
330
1F
100
AcDbEntity
  8
ceco.net 155
100
AcDbLine
 10
105.9955289364588
 20
385.5798632534097
 30
0.0
 11
97.87297673478315
 21
387.9982060738038
 31
0.0
  0
LINE
  5
ECC
330
1F
100
AcDbEntity
  8
ceco.net 155
100
AcDbLine
 10
97.87297673478315
 20
387.9982060738038
 30
0.0
 11
71.57029913498263
 21
391.9727854793127
 31
0.0
  0
LINE
  5
ECD
330
1F
100
AcDbEntity
  8
ceco.net 155
100
AcDbLine
 10
71.57029913498263
 20
391.9727854793127
 30
0.0
 11
55.42267605898814
 21
390.3729518197033
 31
0.0
  0
LINE
  5
ECE
330
1F
100
AcDbEntity
  8
ceco.net 155
100
AcDbLine
 10
55.42267605898814
 20
390.3729518197033
 30
0.0
 11
43.42694442897846
 21
385.7705796752961
 31
0.0
  0
LINE
  5
ECF
330
1F
100
AcDbEntity
  8
ceco.net 155
100
AcDbLine
 10
37.39872529565036
 20
385.2784908922367
 30
0.0
 11
52.78304326822399
 21
396.1308813994728
 31
0.0
  0
LINE
  5
ED0
330
1F
100
AcDbEntity
  8
ceco.net 155
100
AcDbLine
 10
52.78304326822399
 20
396.1308813994728
 30
0.0
 11
75.45731247302319
 21
408.6518892000895
 31
0.0
  0
LINE
  5
ED1
330
1F
100
AcDbEntity
  8
ceco.net 155
100
AcDbLine
 10
75.45731247302319
 20
408.6518892000895
 30
0.0
 11
104.1554494415249
 21
402.9144753816362
 31
0.0
  0
LINE
  5
ED2
330
1F
100
AcDbEntity
  8
ceco.net 155
100
AcDbLine
 10
104.1554494415249
 20
402.9144753816362
 30
0.0
 11
119.0016263231591
 21
392.5640697538037
 31
0.0
  0
LINE
  5
ED3
330
1F
100
AcDbEntity
  8
ceco.net 155
100
AcDbLine
 10
119.0016263231591
 20
392.5640697538037
 30
0.0
 11
141.0152608077114
 21
380.368605905347
 31
0.0
  0
LINE
  5
ED4
330
1F
100
AcDbEntity
  8
ceco.net 155
100
AcDbLine
 10
141.0152608077114
 20
380.368605905347
 30
0.0
 11
162.6081428733596
 21
361.9201754420391
 31
0.0
  0
LINE
  5
ED5
330
1F
100
AcDbEntity
  8
ceco.net 155
100
AcDbLine
 10
162.6081428733596
 20
361.9201754420391
 30
0.0
 11
177.6391842009324
 21
344.13257756046
 31
0.0
  0
LINE
  5
ED6
330
1F
100
AcDbEntity
  8
ceco.net 155
100
AcDbLine
 10
177.6391842009324
 20
344.13257756046
 30
0.0
 11
148.6616792012173
 21
365.4470932685871
 31
0.0
  0
LINE
  5
ED7
330
1F
100
AcDbEntity
  8
ceco.net 155
100
AcDbLine
 10
148.6616792012173
 20
365.4470932685871
 30
0.0
 11
121.3068237619299
 21
381.0212025033506
 31
0.0
  0
LINE
  5
ED8
330
1F
100
AcDbEntity
  8
ceco.net 155
100
AcDbLine
 10
121.3068237619299
 20
381.0212025033506
 30
0.0
 11
114.0876820215126
 21
383.1705712194707
 31
0.0
  0
LINE
  5
ED9
330
1F
100
AcDbEntity
  8
ceco.net 155
100
AcDbLine
 10
70.28287637235189
 20
330.8796059791384
 30
0.0
 11
84.89017262622292
 21
333.914528890662
 31
0.0
  0
LINE
  5
EDA
330
1F
100
AcDbEntity
  8
ceco.net 155
100
AcDbLine
 10
84.89017262622292
 20
333.914528890662
 30
0.0
 11
102.9382675013184
 21
332.2732556191585
 31
0.0
  0
LINE
  5
EDB
330
1F
100
AcDbEntity
  8
ceco.net 155
100
AcDbLine
 10
102.9382675013184
 20
332.2732556191585
 30
0.0
 11
115.7153327785126
 21
329.0012451994953
 31
0.0
  0
LINE
  5
EDC
330
1F
100
AcDbEntity
  8
ceco.net 155
100
AcDbLine
 10
115.7153327785126
 20
329.0012451994953
 30
0.0
 11
133.0459819583375
 21
317.5124930614874
 31
0.0
  0
LINE
  5
EDD
330
1F
100
AcDbEntity
  8
ceco.net 155
100
AcDbLine
 10
133.0459819583375
 20
317.5124930614874
 30
0.0
 11
140.7800653499361
 21
303.1372388480813
 31
0.0
  0
LINE
  5
EDE
330
1F
100
AcDbEntity
  8
ceco.net 155
100
AcDbLine
 10
140.7800653499361
 20
303.1372388480813
 30
0.0
 11
145.0139916790431
 21
294.5347414586212
 31
0.0
  0
LINE
  5
EDF
330
1F
100
AcDbEntity
  8
ceco.net 155
100
AcDbLine
 10
145.0139916790431
 20
294.5347414586212
 30
0.0
 11
131.0080706347835
 21
308.2355353814164
 31
0.0
  0
LINE
  5
EE0
330
1F
100
AcDbEntity
  8
ceco.net 155
100
AcDbLine
 10
131.0080706347835
 20
308.2355353814164
 30
0.0
 11
110.4389609210484
 21
322.5189324066414
 31
0.0
  0
LINE
  5
EE1
330
1F
100
AcDbEntity
  8
ceco.net 155
100
AcDbLine
 10
110.4389609210484
 20
322.5189324066414
 30
0.0
 11
92.44343536574161
 21
327.2111553689028
 31
0.0
  0
LINE
  5
EE2
330
1F
100
AcDbEntity
  8
ceco.net 155
100
AcDbLine
 10
92.44343536574161
 20
327.2111553689028
 30
0.0
 11
68.58991661587424
 21
327.3927720374267
 31
0.0
  0
LINE
  5
EE3
330
1F
100
AcDbEntity
  8
ceco.net 155
100
AcDbLine
 10
67.51672423427226
 20
342.9078086955705
 30
0.0
 11
77.69560800176623
 21
347.81097070959
 31
0.0
  0
LINE
  5
EE4
330
1F
100
AcDbEntity
  8
ceco.net 155
100
AcDbLine
 10
77.69560800176623
 20
347.81097070959
 30
0.0
 11
95.51710202669346
 21
346.6431181074113
 31
0.0
  0
LINE
  5
EE5
330
1F
100
AcDbEntity
  8
ceco.net 155
100
AcDbLine
 10
95.51710202669346
 20
346.6431181074113
 30
0.0
 11
109.1263850189025
 21
341.7134613795278
 31
0.0
  0
LINE
  5
EE6
330
1F
100
AcDbEntity
  8
ceco.net 155
100
AcDbLine
 10
109.1263850189025
 20
341.7134613795278
 30
0.0
 11
127.1773241525734
 21
326.6126738833481
 31
0.0
  0
LINE
  5
EE7
330
1F
100
AcDbEntity
  8
ceco.net 155
100
AcDbLine
 10
127.1773241525734
 20
326.6126738833481
 30
0.0
 11
114.9330379860839
 21
329.0147245122643
 31
0.0
  0
LINE
  5
EE8
330
1F
100
AcDbEntity
  8
ceco.net 155
100
AcDbLine
 10
114.9330379860839
 20
329.0147245122643
 30
0.0
 11
105.2324836283041
 21
338.2591834457598
 31
0.0
  0
LINE
  5
EE9
330
1F
100
AcDbEntity
  8
ceco.net 155
100
AcDbLine
 10
105.2324836283041
 20
338.2591834457598
 30
0.0
 11
96.52200334080044
 21
341.3828719599223
 31
0.0
  0
LINE
  5
EEA
330
1F
100
AcDbEntity
  8
ceco.net 155
100
AcDbLine
 10
96.52200334080044
 20
341.3828719599223
 30
0.0
 11
79.36418615628645
 21
335.6530510753837
 31
0.0
  0
LINE
  5
EEB
330
1F
100
AcDbEntity
  8
ceco.net 155
100
AcDbLine
 10
79.36418615628645
 20
335.6530510753837
 30
0.0
 11
68.89900850882622
 21
332.3119993685868
 31
0.0
  0
LINE
  5
EEC
330
1F
100
AcDbEntity
  8
ceco.net 155
100
AcDbLine
 10
68.89900850882622
 20
332.3119993685868
 30
0.0
 11
68.45593484262645
 21
332.1435651536594
 31
0.0
  0
LINE
  5
EED
330
1F
100
AcDbEntity
  8
ceco.net 155
100
AcDbLine
 10
1.620912092395883
 20
200.3338214681316
 30
0.0
 11
22.49623944687118
 21
259.7105041774084
 31
0.0
  0
LINE
  5
EEE
330
1F
100
AcDbEntity
  8
ceco.net 155
100
AcDbLine
 10
22.49623944687118
 20
259.7105041774084
 30
0.0
 11
40.49930847083305
 21
305.4128930958795
 31
0.0
  0
LINE
  5
EEF
330
1F
100
AcDbEntity
  8
ceco.net 155
100
AcDbLine
 10
40.49930847083305
 20
305.4128930958795
 30
0.0
 11
43.10105078974811
 21
311.0805112803536
 31
0.0
  0
LINE
  5
EF0
330
1F
100
AcDbEntity
  8
ceco.net 155
100
AcDbLine
 10
28.58776346744707
 20
345.2922560105689
 30
0.0
 11
38.5405788347889
 21
332.5220787858161
 31
0.0
  0
LINE
  5
EF1
330
1F
100
AcDbEntity
  8
ceco.net 155
100
AcDbLine
 10
38.5405788347889
 20
332.5220787858161
 30
0.0
 11
46.19238895333547
 21
317.9134840659135
 31
0.0
  0
LINE
  5
EF2
330
1F
100
AcDbEntity
  8
ceco.net 155
100
AcDbLine
 10
46.19238895333547
 20
317.9134840659135
 30
0.0
 11
50.65970525430748
 21
304.6900556755681
 31
0.0
  0
LINE
  5
EF3
330
1F
100
AcDbEntity
  8
ceco.net 155
100
AcDbLine
 10
39.98590741793305
 20
384.6134764471607
 30
0.0
 11
48.93127400470621
 21
363.3311132281305
 31
0.0
  0
LINE
  5
EF4
330
1F
100
AcDbEntity
  8
ceco.net 155
100
AcDbLine
 10
48.93127400470621
 20
363.3311132281305
 30
0.0
 11
56.82456168273711
 21
344.5709643830269
 31
0.0
  0
LINE
  5
EF5
330
1F
100
AcDbEntity
  8
ceco.net 155
100
AcDbLine
 10
56.82456168273711
 20
344.5709643830269
 30
0.0
 11
67.57195162021526
 21
318.8753999754699
 31
0.0
  0
LINE
  5
EF6
330
1F
100
AcDbEntity
  8
ceco.net 155
100
AcDbLine
 10
1.823339025071618
 20
267.9702313004127
 30
0.0
 11
6.874111706172698
 21
306.7747983361659
 31
0.0
  0
LINE
  5
EF7
330
1F
100
AcDbEntity
  8
ceco.net 155
100
AcDbLine
 10
6.874111706172698
 20
306.7747983361659
 30
0.0
 11
8.411594269608031
 21
318.7992233089317
 31
0.0
  0
LINE
  5
EF8
330
1F
100
AcDbEntity
  8
ceco.net 155
100
AcDbLine
 10
8.411594269608031
 20
318.7992233089317
 30
0.0
 11
15.64370310831509
 21
325.2478378200321
 31
0.0
  0
LINE
  5
EF9
330
1F
100
AcDbEntity
  8
ceco.net 155
100
AcDbLine
 10
15.64370310831509
 20
325.2478378200321
 30
0.0
 11
20.2415708814151
 21
337.7672998278758
 31
0.0
  0
LINE
  5
EFA
330
1F
100
AcDbEntity
  8
ceco.net 155
100
AcDbLine
 10
20.2415708814151
 20
337.7672998278758
 30
0.0
 11
26.44047184918963
 21
347.8333414221888
 31
0.0
  0
LINE
  5
EFB
330
1F
100
AcDbEntity
  8
ceco.net 155
100
AcDbLine
 10
26.44047184918963
 20
347.8333414221888
 30
0.0
 11
37.06740124955103
 21
360.5619306390544
 31
0.0
  0
LINE
  5
EFC
330
1F
100
AcDbEntity
  8
ceco.net 155
100
AcDbLine
 10
-19.39516440395891
 20
416.0950011267195
 30
0.0
 11
-20.29581745540053
 21
432.9950457180311
 31
0.0
  0
LINE
  5
EFD
330
1F
100
AcDbEntity
  8
ceco.net 155
100
AcDbLine
 10
-20.29581745540053
 20
432.9950457180311
 30
0.0
 11
-27.71159120498487
 21
447.6778261233703
 31
0.0
  0
LINE
  5
EFE
330
1F
100
AcDbEntity
  8
ceco.net 155
100
AcDbLine
 10
-27.71159120498487
 20
447.6778261233703
 30
0.0
 11
-42.24220377232632
 21
462.7179567122547
 31
0.0
  0
LINE
  5
EFF
330
1F
100
AcDbEntity
  8
ceco.net 155
100
AcDbLine
 10
-42.24220377232632
 20
462.7179567122547
 30
0.0
 11
-58.9915383420157
 21
475.3266930681639
 31
0.0
  0
LINE
  5
F00
330
1F
100
AcDbEntity
  8
ceco.net 155
100
AcDbLine
 10
2.220624623350886
 20
468.9802418830513
 30
0.0
 11
-0.2977235818034387
 21
462.7777603419672
 31
0.0
  0
LINE
  5
F01
330
1F
100
AcDbEntity
  8
ceco.net 155
100
AcDbLine
 10
-0.2977235818034387
 20
462.7777603419672
 30
0.0
 11
-9.697194611755548
 21
444.080815870624
 31
0.0
  0
LINE
  5
F02
330
1F
100
AcDbEntity
  8
ceco.net 155
100
AcDbLine
 10
-9.697194611755548
 20
444.080815870624
 30
0.0
 11
-16.49492332267618
 21
431.0514895836385
 31
0.0
  0
LINE
  5
F03
330
1F
100
AcDbEntity
  8
ceco.net 155
100
AcDbLine
 10
-16.49492332267618
 20
431.0514895836385
 30
0.0
 11
-18.00005553553273
 21
420.9045721128204
 31
0.0
  0
LINE
  5
F04
330
1F
100
AcDbEntity
  8
ceco.net 155
100
AcDbLine
 10
-18.00005553553273
 20
420.9045721128204
 30
0.0
 11
-18.73733852975783
 21
416.1849776392846
 31
0.0
  0
LINE
  5
F05
330
1F
100
AcDbEntity
  8
ceco.net 155
100
AcDbLine
 10
11.21685405804237
 20
491.13720448807
 30
0.0
 11
8.596246010944014
 21
484.6828654871024
 31
0.0
  0
LINE
  5
F06
330
1F
100
AcDbEntity
  8
ceco.net 155
100
AcDbLine
 10
18.92757814176366
 20
519.9629717642128
 30
0.0
 11
20.66174208227312
 21
521.1061473044101
 31
0.0
  0
LINE
  5
F07
330
1F
100
AcDbEntity
  8
ceco.net 155
100
AcDbLine
 10
20.66174208227312
 20
521.1061473044101
 30
0.0
 11
41.66892945983636
 21
532.2473310352543
 31
0.0
  0
LINE
  5
F08
330
1F
100
AcDbEntity
  8
ceco.net 155
100
AcDbLine
 10
41.66892945983636
 20
532.2473310352543
 30
0.0
 11
51.56762971484567
 21
534.5026055515518
 31
0.0
  0
LINE
  5
F09
330
1F
100
AcDbEntity
  8
ceco.net 155
100
AcDbLine
 10
51.56762971484567
 20
534.5026055515518
 30
0.0
 11
27.98436017776111
 21
514.641506014188
 31
0.0
  0
LINE
  5
F0A
330
1F
100
AcDbEntity
  8
ceco.net 155
100
AcDbLine
 10
27.98436017776111
 20
514.641506014188
 30
0.0
 11
20.52707507611557
 21
505.0473672491571
 31
0.0
  0
LINE
  5
F0B
330
1F
100
AcDbEntity
  8
ceco.net 155
100
AcDbLine
 10
2.398815464035578
 20
500.2217293793001
 30
0.0
 11
2.543752642457548
 21
500.5248567439375
 31
0.0
  0
LINE
  5
F0C
330
1F
100
AcDbEntity
  8
ceco.net 155
100
AcDbLine
 10
2.543752642457548
 20
500.5248567439375
 30
0.0
 11
7.272471331794804
 21
509.0229888717512
 31
0.0
  0
LINE
  5
F0D
330
1F
100
AcDbEntity
  8
ceco.net 155
100
AcDbLine
 10
-8.323239838606241
 20
494.0681737045379
 30
0.0
 11
-13.29335158691901
 21
471.5312260342471
 31
0.0
  0
LINE
  5
F0E
330
1F
100
AcDbEntity
  8
ceco.net 155
100
AcDbLine
 10
-13.29335158691901
 20
471.5312260342471
 30
0.0
 11
-18.79487743251956
 21
456.523247934343
 31
0.0
  0
LINE
  5
F0F
330
1F
100
AcDbEntity
  8
ceco.net 155
100
AcDbLine
 10
-18.79487743251956
 20
456.523247934343
 30
0.0
 11
-18.82568199033267
 21
436.5693390005872
 31
0.0
  0
LINE
  5
F10
330
1F
100
AcDbEntity
  8
ceco.net 155
100
AcDbLine
 10
-18.82568199033267
 20
436.5693390005872
 30
0.0
 11
-13.52923955976803
 21
457.8410671655328
 31
0.0
  0
LINE
  5
F11
330
1F
100
AcDbEntity
  8
ceco.net 155
100
AcDbLine
 10
-13.52923955976803
 20
457.8410671655328
 30
0.0
 11
-6.548192195561568
 21
481.5096026303544
 31
0.0
  0
LINE
  5
F12
330
1F
100
AcDbEntity
  8
ceco.net 155
100
AcDbLine
 10
-6.548192195561568
 20
481.5096026303544
 30
0.0
 11
-4.750621613715338
 21
485.2691130552302
 31
0.0
  0
LINE
  5
F13
330
1F
100
AcDbEntity
  8
ceco.net 155
100
AcDbLine
 10
0.2876821688259952
 20
534.1851540486969
 30
0.0
 11
-0.0906862846313743
 21
524.7503351516825
 31
0.0
  0
LINE
  5
F14
330
1F
100
AcDbEntity
  8
ceco.net 155
100
AcDbLine
 10
-0.0906862846313743
 20
524.7503351516825
 30
0.0
 11
-3.607152798260358
 21
512.4510714378921
 31
0.0
  0
LINE
  5
F15
330
1F
100
AcDbEntity
  8
ceco.net 155
100
AcDbLine
 10
-13.07105969241456
 20
526.0447157884446
 30
0.0
 11
-7.321595588276977
 21
531.9959233031586
 31
0.0
  0
LINE
  5
F16
330
1F
100
AcDbEntity
  8
ceco.net 155
100
AcDbLine
 10
-7.321595588276977
 20
531.9959233031586
 30
0.0
 11
-1.194134977875364
 21
537.9158024973112
 31
0.0
  0
LINE
  5
F17
330
1F
100
AcDbEntity
  8
ceco.net 155
100
AcDbLine
 10
-1.194134977875364
 20
537.9158024973112
 30
0.0
 11
0.0085002612286189
 21
538.2937879743585
 31
0.0
  0
LINE
  5
F18
330
1F
100
AcDbEntity
  8
ceco.net 155
100
AcDbLine
 10
-61.2168653921617
 20
484.1183835794836
 30
0.0
 11
-37.96394410727225
 21
470.3130053212626
 31
0.0
  0
LINE
  5
F19
330
1F
100
AcDbEntity
  8
ceco.net 155
100
AcDbLine
 10
-37.96394410727225
 20
470.3130053212626
 30
0.0
 11
-31.38956233310818
 21
462.5329416003878
 31
0.0
  0
LINE
  5
F1A
330
1F
100
AcDbEntity
  8
ceco.net 155
100
AcDbLine
 10
-63.97735067281246
 20
477.8351252819011
 30
0.0
 11
-89.24893260933094
 21
486.7689584012878
 31
0.0
  0
LINE
  5
F1B
330
1F
100
AcDbEntity
  8
ceco.net 155
100
AcDbLine
 10
-89.24893260933094
 20
486.7689584012878
 30
0.0
 11
-109.4577984153438
 21
490.1690222919824
 31
0.0
  0
LINE
  5
F1C
330
1F
100
AcDbEntity
  8
ceco.net 155
100
AcDbLine
 10
-109.4577984153438
 20
490.1690222919824
 30
0.0
 11
-137.1914225425644
 21
483.7606478577108
 31
0.0
  0
LINE
  5
F1D
330
1F
100
AcDbEntity
  8
ceco.net 155
100
AcDbLine
 10
-137.1914225425644
 20
483.7606478577108
 30
0.0
 11
-111.5309538134242
 21
497.0127290623641
 31
0.0
  0
LINE
  5
F1E
330
1F
100
AcDbEntity
  8
ceco.net 155
100
AcDbLine
 10
-111.5309538134242
 20
497.0127290623641
 30
0.0
 11
-97.55079185941577
 21
495.4415482171753
 31
0.0
  0
LINE
  5
F1F
330
1F
100
AcDbEntity
  8
ceco.net 155
100
AcDbLine
 10
-97.55079185941577
 20
495.4415482171753
 30
0.0
 11
-67.55509776489271
 21
487.3538336390593
 31
0.0
  0
ENDSEC
  0
SECTION
  2
OBJECTS
  0
DICTIONARY
  5
C
330
0
100
AcDbDictionary
281
     1
  3
ACAD_GROUP
350
D
  3
ACAD_LAYOUT
350
1A
  3
ACAD_MLINESTYLE
350
17
  3
ACAD_PLOTSETTINGS
350
19
  3
ACAD_PLOTSTYLENAME
350
E
  3
AcDbVariableDictionary
350
115
  3
DWGPROPS
350
8E3
  0
DICTIONARY
  5
90A
330
2
100
AcDbDictionary
280
     1
281
     1
  3
ACAD_LAYERFILTERS
360
F20
  3
ACAD_LAYERSTATES
360
90B
  0
DICTIONARY
  5
8F6
330
8F5
100
AcDbDictionary
280
     1
281
     1
  3
ACAD_XREC_ROUNDTRIP
360
8F7
  0
DICTIONARY
  5
D
102
{ACAD_REACTORS
330
C
102
}
330
C
100
AcDbDictionary
281
     1
  0
DICTIONARY
  5
1A
102
{ACAD_REACTORS
330
C
102
}
330
C
100
AcDbDictionary
281
     1
  3
Layout1
350
1E
  3
Layout2
350
26
  3
Model
350
22
  0
DICTIONARY
  5
17
102
{ACAD_REACTORS
330
C
102
}
330
C
100
AcDbDictionary
281
     1
  3
Standard
350
18
  0
DICTIONARY
  5
19
102
{ACAD_REACTORS
330
C
102
}
330
C
100
AcDbDictionary
281
     1
  0
ACDBDICTIONARYWDFLT
  5
E
102
{ACAD_REACTORS
330
C
102
}
330
C
100
AcDbDictionary
281
     1
  3
Normal
350
F
100
AcDbDictionaryWithDefault
340
F
  0
DICTIONARY
  5
115
102
{ACAD_REACTORS
330
C
102
}
330
C
100
AcDbDictionary
281
     1
  3
DIMASSOC
350
117
  3
HIDETEXT
350
116
  0
XRECORD
  5
8E3
102
{ACAD_REACTORS
330
C
102
}
330
C
100
AcDbXrecord
280
     1
  1
DWGPROPS COOKIE
  2
Ceco.NET-Trees-and-Plants - T - xx . 67 . dwg
  3

  4
ceco.net
  6

  7

  8
peacosta
  9

300
=
301
=
302
=
303
=
304
=
305
=
306
=
307
=
308
=
309
=
 40
0.0450312037037037
 41
2455079.811409143
 42
2455838.656599502
  1

 90
        0
  0
DICTIONARY
  5
F20
102
{ACAD_REACTORS
330
90A
102
}
330
90A
100
AcDbDictionary
280
     1
281
     1
  0
DICTIONARY
  5
90B
102
{ACAD_REACTORS
330
90A
102
}
330
90A
100
AcDbDictionary
281
     1
  0
XRECORD
  5
8F7
102
{ACAD_REACTORS
330
8F6
102
}
330
8F6
100
AcDbXrecord
280
     1
102
MATERIAL
340
0
  0
LAYOUT
  5
1E
102
{ACAD_REACTORS
330
1A
102
}
330
1A
100
AcDbPlotSettings
  1

  2
Microsoft Office Document Image Writer
  4

  6

 40
0.0
 41
0.0
 42
0.0
 43
0.0
 44
0.0
 45
0.0
 46
0.0
 47
0.0
 48
0.0
 49
0.0
140
0.0
141
0.0
142
1.0
143
1.0
 70
   688
 72
     0
 73
     0
 74
     5
  7

 75
    16
147
1.0
148
0.0
149
0.0
100
AcDbLayout
  1
Layout1
 70
     1
 71
     1
 10
0.0
 20
0.0
 11
420.0
 21
297.0
 12
0.0
 22
0.0
 32
0.0
 14
1.000000000000000E+20
 24
1.000000000000000E+20
 34
1.000000000000000E+20
 15
-1.000000000000000E+20
 25
-1.000000000000000E+20
 35
-1.000000000000000E+20
146
0.0
 13
0.0
 23
0.0
 33
0.0
 16
1.0
 26
0.0
 36
0.0
 17
0.0
 27
1.0
 37
0.0
 76
     0
330
1B
  0
LAYOUT
  5
26
102
{ACAD_REACTORS
330
1A
102
}
330
1A
100
AcDbPlotSettings
  1

  2
Microsoft Office Document Image Writer
  4

  6

 40
0.0
 41
0.0
 42
0.0
 43
0.0
 44
0.0
 45
0.0
 46
0.0
 47
0.0
 48
0.0
 49
0.0
140
0.0
141
0.0
142
1.0
143
1.0
 70
   688
 72
     0
 73
     0
 74
     5
  7

 75
    16
147
1.0
148
0.0
149
0.0
100
AcDbLayout
  1
Layout2
 70
     1
 71
     2
 10
0.0
 20
0.0
 11
12.0
 21
9.0
 12
0.0
 22
0.0
 32
0.0
 14
0.0
 24
0.0
 34
0.0
 15
0.0
 25
0.0
 35
0.0
146
0.0
 13
0.0
 23
0.0
 33
0.0
 16
1.0
 26
0.0
 36
0.0
 17
0.0
 27
1.0
 37
0.0
 76
     0
330
23
  0
LAYOUT
  5
22
102
{ACAD_REACTORS
330
1A
102
}
330
1A
100
AcDbPlotSettings
  1

  2
Microsoft Office Document Image Writer
  4

  6

 40
0.0
 41
0.0
 42
0.0
 43
0.0
 44
0.0
 45
0.0
 46
0.0
 47
0.0
 48
0.0
 49
0.0
140
0.0
141
0.0
142
1.0
143
1.0
 70
  1712
 72
     0
 73
     0
 74
     0
  7

 75
     0
147
1.0
148
0.0
149
0.0
100
AcDbLayout
  1
Model
 70
     1
 71
     0
 10
0.0
 20
0.0
 11
12.0
 21
9.0
 12
0.0
 22
0.0
 32
0.0
 14
0.0
 24
0.0
 34
0.0
 15
0.0
 25
0.0
 35
0.0
146
0.0
 13
0.0
 23
0.0
 33
0.0
 16
1.0
 26
0.0
 36
0.0
 17
0.0
 27
1.0
 37
0.0
 76
     0
330
1F
  0
MLINESTYLE
  5
18
102
{ACAD_REACTORS
330
17
102
}
330
17
100
AcDbMlineStyle
  2
STANDARD
 70
     0
  3

 62
   256
 51
90.0
 52
90.0
 71
     2
 49
0.5
 62
   256
  6
BYLAYER
 49
-0.5
 62
   256
  6
BYLAYER
  0
ACDBPLACEHOLDER
  5
F
102
{ACAD_REACTORS
330
E
102
}
330
E
  0
DICTIONARYVAR
  5
117
102
{ACAD_REACTORS
330
115
102
}
330
115
100
DictionaryVariables
280
     0
  1
2
  0
DICTIONARYVAR
  5
116
102
{ACAD_REACTORS
330
115
102
}
330
115
100
DictionaryVariables
280
     0
  1
1
  0
ENDSEC
  0
EOF
