  0
SECTION
  2
HEADER
  9
$ACADVER
  1
AC1015
  9
$ACADMAINTVER
 70
    13
  9
$DWGCODEPAGE
  3
ANSI_1252
  9
$INSBASE
 10
0.0
 20
0.0
 30
0.0
  9
$EXTMIN
 10
-348.7585877721984
 20
-326.7138537633803
 30
0.0
  9
$EXTMAX
 10
395.1322473915272
 20
363.3248058954991
 30
0.0
  9
$LIMMIN
 10
0.0
 20
0.0
  9
$LIMMAX
 10
420.0
 20
297.0
  9
$ORTHOMODE
 70
     0
  9
$REGENMODE
 70
     1
  9
$FILLMODE
 70
     1
  9
$QTEXTMODE
 70
     0
  9
$MIRRTEXT
 70
     1
  9
$LTSCALE
 40
1.0
  9
$ATTMODE
 70
     1
  9
$TEXTSIZE
 40
2.5
  9
$TRACEWID
 40
1.0
  9
$TEXTSTYLE
  7
Standard
  9
$CLAYER
  8
ceco.net 290 plantpot
  9
$CELTYPE
  6
ByLayer
  9
$CECOLOR
 62
   256
  9
$CELTSCALE
 40
1.0
  9
$DISPSILH
 70
     0
  9
$DIMSCALE
 40
1.0
  9
$DIMASZ
 40
2.5
  9
$DIMEXO
 40
0.625
  9
$DIMDLI
 40
3.75
  9
$DIMRND
 40
0.0
  9
$DIMDLE
 40
0.0
  9
$DIMEXE
 40
1.25
  9
$DIMTP
 40
0.0
  9
$DIMTM
 40
0.0
  9
$DIMTXT
 40
2.5
  9
$DIMCEN
 40
2.5
  9
$DIMTSZ
 40
0.0
  9
$DIMTOL
 70
     0
  9
$DIMLIM
 70
     0
  9
$DIMTIH
 70
     0
  9
$DIMTOH
 70
     0
  9
$DIMSE1
 70
     0
  9
$DIMSE2
 70
     0
  9
$DIMTAD
 70
     1
  9
$DIMZIN
 70
     8
  9
$DIMBLK
  1

  9
$DIMASO
 70
     1
  9
$DIMSHO
 70
     1
  9
$DIMPOST
  1

  9
$DIMAPOST
  1

  9
$DIMALT
 70
     0
  9
$DIMALTD
 70
     3
  9
$DIMALTF
 40
0.03937007874016
  9
$DIMLFAC
 40
1.0
  9
$DIMTOFL
 70
     1
  9
$DIMTVP
 40
0.0
  9
$DIMTIX
 70
     0
  9
$DIMSOXD
 70
     0
  9
$DIMSAH
 70
     0
  9
$DIMBLK1
  1

  9
$DIMBLK2
  1

  9
$DIMSTYLE
  2
ISO-25
  9
$DIMCLRD
 70
     0
  9
$DIMCLRE
 70
     0
  9
$DIMCLRT
 70
     0
  9
$DIMTFAC
 40
1.0
  9
$DIMGAP
 40
0.625
  9
$DIMJUST
 70
     0
  9
$DIMSD1
 70
     0
  9
$DIMSD2
 70
     0
  9
$DIMTOLJ
 70
     0
  9
$DIMTZIN
 70
     8
  9
$DIMALTZ
 70
     0
  9
$DIMALTTZ
 70
     0
  9
$DIMUPT
 70
     0
  9
$DIMDEC
 70
     2
  9
$DIMTDEC
 70
     2
  9
$DIMALTU
 70
     2
  9
$DIMALTTD
 70
     3
  9
$DIMTXSTY
  7
Standard
  9
$DIMAUNIT
 70
     0
  9
$DIMADEC
 70
     0
  9
$DIMALTRND
 40
0.0
  9
$DIMAZIN
 70
     0
  9
$DIMDSEP
 70
    44
  9
$DIMATFIT
 70
     3
  9
$DIMFRAC
 70
     0
  9
$DIMLDRBLK
  1

  9
$DIMLUNIT
 70
     2
  9
$DIMLWD
 70
    -2
  9
$DIMLWE
 70
    -2
  9
$DIMTMOVE
 70
     0
  9
$LUNITS
 70
     2
  9
$LUPREC
 70
     2
  9
$SKETCHINC
 40
1.0
  9
$FILLETRAD
 40
10.0
  9
$AUNITS
 70
     0
  9
$AUPREC
 70
     0
  9
$MENU
  1
.
  9
$ELEVATION
 40
0.0
  9
$PELEVATION
 40
0.0
  9
$THICKNESS
 40
0.0
  9
$LIMCHECK
 70
     0
  9
$CHAMFERA
 40
10.0
  9
$CHAMFERB
 40
10.0
  9
$CHAMFERC
 40
20.0
  9
$CHAMFERD
 40
0.0
  9
$SKPOLY
 70
     0
  9
$TDCREATE
 40
2455079.811409143
  9
$TDUCREATE
 40
2455079.936409144
  9
$TDUPDATE
 40
2457606.035522800
  9
$TDUUPDATE
 40
2457606.160522801
  9
$TDINDWG
 40
0.0526802315
  9
$TDUSRTIMER
 40
0.0526802315
  9
$USRTIMER
 70
     1
  9
$ANGBASE
 50
0.0
  9
$ANGDIR
 70
     0
  9
$PDMODE
 70
     0
  9
$PDSIZE
 40
0.0
  9
$PLINEWID
 40
0.0
  9
$SPLFRAME
 70
     0
  9
$SPLINETYPE
 70
     6
  9
$SPLINESEGS
 70
     8
  9
$HANDSEED
  5
A3A
  9
$SURFTAB1
 70
     6
  9
$SURFTAB2
 70
     6
  9
$SURFTYPE
 70
     6
  9
$SURFU
 70
     6
  9
$SURFV
 70
     6
  9
$UCSBASE
  2

  9
$UCSNAME
  2

  9
$UCSORG
 10
0.0
 20
0.0
 30
0.0
  9
$UCSXDIR
 10
1.0
 20
0.0
 30
0.0
  9
$UCSYDIR
 10
0.0
 20
1.0
 30
0.0
  9
$UCSORTHOREF
  2

  9
$UCSORTHOVIEW
 70
     0
  9
$UCSORGTOP
 10
0.0
 20
0.0
 30
0.0
  9
$UCSORGBOTTOM
 10
0.0
 20
0.0
 30
0.0
  9
$UCSORGLEFT
 10
0.0
 20
0.0
 30
0.0
  9
$UCSORGRIGHT
 10
0.0
 20
0.0
 30
0.0
  9
$UCSORGFRONT
 10
0.0
 20
0.0
 30
0.0
  9
$UCSORGBACK
 10
0.0
 20
0.0
 30
0.0
  9
$PUCSBASE
  2

  9
$PUCSNAME
  2

  9
$PUCSORG
 10
0.0
 20
0.0
 30
0.0
  9
$PUCSXDIR
 10
1.0
 20
0.0
 30
0.0
  9
$PUCSYDIR
 10
0.0
 20
1.0
 30
0.0
  9
$PUCSORTHOREF
  2

  9
$PUCSORTHOVIEW
 70
     0
  9
$PUCSORGTOP
 10
0.0
 20
0.0
 30
0.0
  9
$PUCSORGBOTTOM
 10
0.0
 20
0.0
 30
0.0
  9
$PUCSORGLEFT
 10
0.0
 20
0.0
 30
0.0
  9
$PUCSORGRIGHT
 10
0.0
 20
0.0
 30
0.0
  9
$PUCSORGFRONT
 10
0.0
 20
0.0
 30
0.0
  9
$PUCSORGBACK
 10
0.0
 20
0.0
 30
0.0
  9
$USERI1
 70
     0
  9
$USERI2
 70
     0
  9
$USERI3
 70
     0
  9
$USERI4
 70
     0
  9
$USERI5
 70
     0
  9
$USERR1
 40
0.0
  9
$USERR2
 40
0.0
  9
$USERR3
 40
0.0
  9
$USERR4
 40
0.0
  9
$USERR5
 40
0.0
  9
$WORLDVIEW
 70
     1
  9
$SHADEDGE
 70
     3
  9
$SHADEDIF
 70
    70
  9
$TILEMODE
 70
     1
  9
$MAXACTVP
 70
    64
  9
$PINSBASE
 10
0.0
 20
0.0
 30
0.0
  9
$PLIMCHECK
 70
     0
  9
$PEXTMIN
 10
1.000000000000000E+20
 20
1.000000000000000E+20
 30
1.000000000000000E+20
  9
$PEXTMAX
 10
-1.000000000000000E+20
 20
-1.000000000000000E+20
 30
-1.000000000000000E+20
  9
$PLIMMIN
 10
0.0
 20
0.0
  9
$PLIMMAX
 10
420.0
 20
297.0
  9
$UNITMODE
 70
     0
  9
$VISRETAIN
 70
     1
  9
$PLINEGEN
 70
     0
  9
$PSLTSCALE
 70
     1
  9
$TREEDEPTH
 70
  3020
  9
$CMLSTYLE
  2
Standard
  9
$CMLJUST
 70
     0
  9
$CMLSCALE
 40
20.0
  9
$PROXYGRAPHICS
 70
     1
  9
$MEASUREMENT
 70
     1
  9
$CELWEIGHT
370
    -1
  9
$ENDCAPS
280
     0
  9
$JOINSTYLE
280
     0
  9
$LWDISPLAY
290
     0
  9
$INSUNITS
 70
     4
  9
$HYPERLINKBASE
  1

  9
$STYLESHEET
  1

  9
$XEDIT
290
     1
  9
$CEPSNTYPE
380
     0
  9
$PSTYLEMODE
290
     1
  9
$FINGERPRINTGUID
  2
{81085373-3A21-4932-80AA-8F6C3258C50C}
  9
$VERSIONGUID
  2
{49351D7F-1101-4353-8E23-6830B2B80F02}
  9
$EXTNAMES
290
     1
  9
$PSVPSCALE
 40
0.0
  9
$OLESTARTUP
290
     0
  0
ENDSEC
  0
SECTION
  2
CLASSES
  0
CLASS
  1
ACDBDICTIONARYWDFLT
  2
AcDbDictionaryWithDefault
  3
AutoCAD 2000
 90
        0
280
     0
281
     0
  0
CLASS
  1
ACDBPLACEHOLDER
  2
AcDbPlaceHolder
  3
AutoCAD 2000
 90
        0
280
     0
281
     0
  0
CLASS
  1
LAYOUT
  2
AcDbLayout
  3
AutoCAD 2000
 90
        0
280
     0
281
     0
  0
CLASS
  1
DICTIONARYVAR
  2
AcDbDictionaryVar
  3
AutoCAD 2000
 90
        0
280
     0
281
     0
  0
ENDSEC
  0
SECTION
  2
TABLES
  0
TABLE
  2
VPORT
  5
8
330
0
100
AcDbSymbolTable
 70
     2
  0
VPORT
  5
A39
330
8
100
AcDbSymbolTableRecord
100
AcDbViewportTableRecord
  2
*Active
 70
     0
 10
0.0
 20
0.0
 11
1.0
 21
1.0
 12
24.95150565433709
 22
19.49937810910251
 13
0.0
 23
0.0
 14
10.0
 24
10.0
 15
10.0
 25
10.0
 16
0.0
 26
0.0
 36
1.0
 17
0.0
 27
0.0
 37
0.0
 40
691.4526255644714
 41
2.187425860023724
 42
50.0
 43
0.0
 44
0.0
 50
0.0
 51
0.0
 71
     0
 72
   100
 73
     1
 74
     3
 75
     0
 76
     0
 77
     0
 78
     0
281
     0
 65
     1
110
0.0
120
0.0
130
0.0
111
1.0
121
0.0
131
0.0
112
0.0
122
1.0
132
0.0
 79
     0
146
0.0
  0
ENDTAB
  0
TABLE
  2
LTYPE
  5
5
330
0
100
AcDbSymbolTable
 70
     1
  0
LTYPE
  5
14
330
5
100
AcDbSymbolTableRecord
100
AcDbLinetypeTableRecord
  2
ByBlock
 70
     0
  3

 72
    65
 73
     0
 40
0.0
  0
LTYPE
  5
15
330
5
100
AcDbSymbolTableRecord
100
AcDbLinetypeTableRecord
  2
ByLayer
 70
     0
  3

 72
    65
 73
     0
 40
0.0
  0
LTYPE
  5
16
330
5
100
AcDbSymbolTableRecord
100
AcDbLinetypeTableRecord
  2
Continuous
 70
     0
  3
Solid line
 72
    65
 73
     0
 40
0.0
  0
ENDTAB
  0
TABLE
  2
LAYER
  5
2
102
{ACAD_XDICTIONARY
360
9A0
102
}
330
0
100
AcDbSymbolTable
 70
     4
  0
LAYER
  5
10
330
2
100
AcDbSymbolTableRecord
100
AcDbLayerTableRecord
  2
0
 70
     0
 62
     7
  6
Continuous
370
    -3
390
F
  0
LAYER
  5
999
330
2
100
AcDbSymbolTableRecord
100
AcDbLayerTableRecord
  2
ceco.net 290 plantpot
 70
     0
 62
     7
  6
Continuous
370
    -3
390
F
  0
LAYER
  5
99A
330
2
100
AcDbSymbolTableRecord
100
AcDbLayerTableRecord
  2
ceco.net 290 potting soil
 70
     0
 62
    27
  6
Continuous
370
    -3
390
F
  0
LAYER
  5
99B
330
2
100
AcDbSymbolTableRecord
100
AcDbLayerTableRecord
  2
ceco.net 290 pot plant
 70
     0
 62
    93
  6
Continuous
370
    -3
390
F
  0
ENDTAB
  0
TABLE
  2
STYLE
  5
3
330
0
100
AcDbSymbolTable
 70
     1
  0
STYLE
  5
11
330
3
100
AcDbSymbolTableRecord
100
AcDbTextStyleTableRecord
  2
Standard
 70
     0
 40
0.0
 41
1.0
 50
0.0
 71
     0
 42
2.5
  3
txt
  4

  0
ENDTAB
  0
TABLE
  2
VIEW
  5
6
330
0
100
AcDbSymbolTable
 70
     0
  0
ENDTAB
  0
TABLE
  2
UCS
  5
7
330
0
100
AcDbSymbolTable
 70
     0
  0
ENDTAB
  0
TABLE
  2
APPID
  5
9
330
0
100
AcDbSymbolTable
 70
     8
  0
APPID
  5
12
330
9
100
AcDbSymbolTableRecord
100
AcDbRegAppTableRecord
  2
ACAD
 70
     0
  0
APPID
  5
2C
330
9
100
AcDbSymbolTableRecord
100
AcDbRegAppTableRecord
  2
ACAD_DSTYLE_DIMJOGGED_JOGANGLE_SYMBOL
 70
     0
  0
APPID
  5
11B
330
9
100
AcDbSymbolTableRecord
100
AcDbRegAppTableRecord
  2
ACAD_NAV_VCDISPLAY
 70
     0
  0
APPID
  5
11C
330
9
100
AcDbSymbolTableRecord
100
AcDbRegAppTableRecord
  2
ACAD_MLEADERVER
 70
     0
  0
APPID
  5
99C
330
9
100
AcDbSymbolTableRecord
100
AcDbRegAppTableRecord
  2
AcAecLayerStandard
 70
     0
  0
APPID
  5
99D
330
9
100
AcDbSymbolTableRecord
100
AcDbRegAppTableRecord
  2
AcDbBlockRepETag
 70
     0
  0
APPID
  5
99E
330
9
100
AcDbSymbolTableRecord
100
AcDbRegAppTableRecord
  2
AcCmTransparency
 70
     0
  0
APPID
  5
99F
330
9
100
AcDbSymbolTableRecord
100
AcDbRegAppTableRecord
  2
ACAD_EXEMPT_FROM_CAD_STANDARDS
 70
     0
  0
ENDTAB
  0
TABLE
  2
DIMSTYLE
  5
A
330
0
100
AcDbSymbolTable
 70
     2
100
AcDbDimStyleTable
 71
     0
  0
DIMSTYLE
105
27
330
A
100
AcDbSymbolTableRecord
100
AcDbDimStyleTableRecord
  2
ISO-25
 70
     0
 41
2.5
 42
0.625
 43
3.75
 44
1.25
 73
     0
 74
     0
 77
     1
 78
     8
140
2.5
141
2.5
143
0.03937007874016
147
0.625
171
     3
172
     1
271
     2
272
     2
274
     3
278
    44
283
     0
284
     8
340
11
  0
DIMSTYLE
105
2B
330
A
100
AcDbSymbolTableRecord
100
AcDbDimStyleTableRecord
  2
Standard
 70
     0
340
11
  0
ENDTAB
  0
TABLE
  2
BLOCK_RECORD
  5
1
330
0
100
AcDbSymbolTable
 70
     6
  0
BLOCK_RECORD
  5
1F
330
1
100
AcDbSymbolTableRecord
100
AcDbBlockTableRecord
  2
*Model_Space
340
22
  0
BLOCK_RECORD
  5
1B
330
1
100
AcDbSymbolTableRecord
100
AcDbBlockTableRecord
  2
*Paper_Space
340
1E
  0
BLOCK_RECORD
  5
23
330
1
100
AcDbSymbolTableRecord
100
AcDbBlockTableRecord
  2
*Paper_Space0
340
26
  0
BLOCK_RECORD
  5
8F6
330
1
100
AcDbSymbolTableRecord
100
AcDbBlockTableRecord
  2
*X1
340
0
102
{BLKREFS
331
A29
102
}
  0
BLOCK_RECORD
  5
911
330
1
100
AcDbSymbolTableRecord
100
AcDbBlockTableRecord
  2
*X2
340
0
102
{BLKREFS
331
A2A
102
}
  0
BLOCK_RECORD
  5
93D
330
1
100
AcDbSymbolTableRecord
100
AcDbBlockTableRecord
  2
*X3
340
0
102
{BLKREFS
331
A2B
102
}
  0
BLOCK_RECORD
  5
96B
330
1
100
AcDbSymbolTableRecord
100
AcDbBlockTableRecord
  2
*X4
340
0
102
{BLKREFS
331
A2C
102
}
  0
BLOCK_RECORD
  5
981
330
1
100
AcDbSymbolTableRecord
100
AcDbBlockTableRecord
  2
*X5
340
0
102
{BLKREFS
331
A2D
102
}
  0
ENDTAB
  0
ENDSEC
  0
SECTION
  2
BLOCKS
  0
BLOCK
  5
20
330
1F
100
AcDbEntity
  8
0
100
AcDbBlockBegin
  2
*Model_Space
 70
     0
 10
0.0
 20
0.0
 30
0.0
  3
*Model_Space
  1

  0
ENDBLK
  5
21
330
1F
100
AcDbEntity
  8
0
100
AcDbBlockEnd
  0
BLOCK
  5
1C
330
1B
100
AcDbEntity
 67
     1
  8
0
100
AcDbBlockBegin
  2
*Paper_Space
 70
     0
 10
0.0
 20
0.0
 30
0.0
  3
*Paper_Space
  1

  0
ENDBLK
  5
1D
330
1B
100
AcDbEntity
 67
     1
  8
0
100
AcDbBlockEnd
  0
BLOCK
  5
24
330
23
100
AcDbEntity
  8
0
100
AcDbBlockBegin
  2
*Paper_Space0
 70
     0
 10
0.0
 20
0.0
 30
0.0
  3
*Paper_Space0
  1

  0
ENDBLK
  5
25
330
23
100
AcDbEntity
  8
0
100
AcDbBlockEnd
  0
BLOCK
  5
90F
330
8F6
100
AcDbEntity
  8
0
100
AcDbBlockBegin
  2
*X1
 70
     1
 10
0.0
 20
0.0
 30
0.0
  3
*X1
  1

  0
LINE
  5
8F7
330
8F6
100
AcDbEntity
  8
0
 62
     0
100
AcDbLine
 10
93.62933425115791
 20
44.30863626339623
 30
0.0
 11
93.6469624935615
 21
44.32626450579983
 31
0.0
  0
LINE
  5
8F8
330
8F6
100
AcDbEntity
  8
0
 62
     0
100
AcDbLine
 10
93.6573697157352
 20
44.33667172797351
 30
0.0
 11
93.73876309150345
 21
44.41806510374178
 31
0.0
  0
LINE
  5
8F9
330
8F6
100
AcDbEntity
  8
0
 62
     0
100
AcDbLine
 10
93.59738452294818
 20
44.32088070901067
 30
0.0
 11
93.71799725838318
 21
44.44149344444564
 31
0.0
  0
LINE
  5
8FA
330
8F6
100
AcDbEntity
  8
0
 62
     0
100
AcDbLine
 10
93.65825937623812
 20
44.42594973612474
 30
0.0
 11
93.68476153320056
 21
44.4524518930872
 31
0.0
  0
LINE
  5
8FB
330
8F6
100
AcDbEntity
  8
0
 62
     0
100
AcDbLine
 10
93.61996427399894
 20
44.43184880770973
 30
0.0
 11
93.64645956427024
 21
44.45834409798103
 31
0.0
  0
LINE
  5
8FC
330
8F6
100
AcDbEntity
  8
0
 62
     0
100
AcDbLine
 10
93.60304659223213
 20
44.45912529976708
 30
0.0
 11
93.62211304076462
 21
44.47819174829957
 31
0.0
  0
LINE
  5
8FD
330
8F6
100
AcDbEntity
  8
0
 62
     0
100
AcDbLine
 10
93.61448301677471
 20
44.24959085518888
 30
0.0
 11
93.75797149026208
 21
44.39307932867623
 31
0.0
  0
LINE
  5
8FE
330
8F6
100
AcDbEntity
  8
0
 62
     0
100
AcDbLine
 10
93.67205827802942
 20
44.26297194261942
 30
0.0
 11
93.69109731144749
 21
44.28201097603749
 31
0.0
  0
LINE
  5
8FF
330
8F6
100
AcDbEntity
  8
0
 62
     0
100
AcDbLine
 10
93.70351123418933
 20
44.29442489877931
 30
0.0
 11
93.77557883316262
 21
44.3664924977526
 31
0.0
  0
LINE
  5
900
330
8F6
100
AcDbEntity
  8
0
 62
     0
100
AcDbLine
 10
93.73219243943669
 20
44.27891193020253
 30
0.0
 11
93.75412136270529
 21
44.30084085347113
 31
0.0
  0
LINE
  5
901
330
8F6
100
AcDbEntity
  8
0
 62
     0
100
AcDbLine
 10
93.77389868628702
 20
44.32061817705287
 30
0.0
 11
93.79151400951958
 21
44.33823350028542
 31
0.0
  0
LINE
  5
902
330
8F6
100
AcDbEntity
  8
0
 62
     0
100
AcDbLine
 10
93.79013194620844
 20
44.29265726315011
 30
0.0
 11
93.80567235529451
 21
44.30819767223617
 31
0.0
  0
LINE
  5
903
330
8F6
100
AcDbEntity
  8
0
 62
     0
100
AcDbLine
 10
93.80923263461816
 20
44.26756377773569
 30
0.0
 11
93.81790564612945
 21
44.27623678924696
 31
0.0
  0
LINE
  5
904
330
8F6
100
AcDbEntity
  8
0
 62
     0
100
AcDbLine
 10
93.71374559412961
 20
44.30465925871962
 30
0.0
 11
93.65850287684942
 21
44.35990197599983
 31
0.0
  0
LINE
  5
905
330
8F6
100
AcDbEntity
  8
0
 62
     0
100
AcDbLine
 10
93.63752252453229
 20
44.33668815449278
 30
0.0
 11
93.60811674316535
 21
44.36609393585971
 31
0.0
  0
LINE
  5
906
330
8F6
100
AcDbEntity
  8
0
 62
     0
100
AcDbLine
 10
93.66672690000497
 20
44.26328960519594
 30
0.0
 11
93.62612040046274
 21
44.30389610473818
 31
0.0
  0
LINE
  5
907
330
8F6
100
AcDbEntity
  8
0
 62
     0
100
AcDbLine
 10
93.75501382485181
 20
44.30758520182159
 30
0.0
 11
93.72479413758565
 21
44.33780488908775
 31
0.0
  0
LINE
  5
908
330
8F6
100
AcDbEntity
  8
0
 62
     0
100
AcDbLine
 10
93.69164850721752
 20
44.37095051945586
 30
0.0
 11
93.66598399419208
 21
44.39661503248131
 31
0.0
  0
LINE
  5
909
330
8F6
100
AcDbEntity
  8
0
 62
     0
100
AcDbLine
 10
93.63795676666617
 20
44.42464226000722
 30
0.0
 11
93.63640578993733
 21
44.42619323673606
 31
0.0
  0
LINE
  5
90A
330
8F6
100
AcDbEntity
  8
0
 62
     0
100
AcDbLine
 10
93.60326015956919
 20
44.45933886710418
 30
0.0
 11
93.60297010219717
 21
44.4596289244762
 31
0.0
  0
LINE
  5
90B
330
8F6
100
AcDbEntity
  8
0
 62
     0
100
AcDbLine
 10
93.81059214673992
 20
44.29620105375763
 30
0.0
 11
93.79108539832188
 21
44.31570780217566
 31
0.0
  0
LINE
  5
90C
330
8F6
100
AcDbEntity
  8
0
 62
     0
100
AcDbLine
 10
93.75793976795376
 20
44.34885343254378
 30
0.0
 11
93.70269705067356
 21
44.40409614982399
 31
0.0
  0
LINE
  5
90D
330
8F6
100
AcDbEntity
  8
0
 62
     0
100
AcDbLine
 10
93.66955142030544
 20
44.4372417801921
 30
0.0
 11
93.65062060271169
 21
44.45617259778583
 31
0.0
  0
LINE
  5
90E
330
8F6
100
AcDbEntity
  8
0
 62
     0
100
AcDbLine
 10
93.73584268104169
 20
44.41514469328001
 30
0.0
 11
93.6950881247213
 21
44.45589924960041
 31
0.0
  0
ENDBLK
  5
910
330
8F6
100
AcDbEntity
  8
0
100
AcDbBlockEnd
  0
BLOCK
  5
93B
330
911
100
AcDbEntity
  8
0
100
AcDbBlockBegin
  2
*X2
 70
     1
 10
0.0
 20
0.0
 30
0.0
  3
*X2
  1

  0
LINE
  5
912
330
911
100
AcDbEntity
  8
0
 62
     0
100
AcDbLine
 10
93.5670062127537
 20
43.80436648675042
 30
0.0
 11
93.66778807277878
 21
43.90514834677548
 31
0.0
  0
LINE
  5
913
330
911
100
AcDbEntity
  8
0
 62
     0
100
AcDbLine
 10
93.53822731693192
 20
43.8197817647528
 30
0.0
 11
93.64129639692894
 21
43.92285084474982
 31
0.0
  0
LINE
  5
914
330
911
100
AcDbEntity
  8
0
 62
     0
100
AcDbLine
 10
93.64345993780895
 20
43.92501438562984
 30
0.0
 11
93.67217976017482
 21
43.9537342079957
 31
0.0
  0
LINE
  5
915
330
911
100
AcDbEntity
  8
0
 62
     0
100
AcDbLine
 10
93.5180456331023
 20
43.84379425474735
 30
0.0
 11
93.53112158513031
 21
43.85687020677535
 31
0.0
  0
LINE
  5
916
330
911
100
AcDbEntity
  8
0
 62
     0
100
AcDbLine
 10
93.57391949200055
 20
43.89966811364558
 30
0.0
 11
93.6337800234885
 21
43.95952864513356
 31
0.0
  0
LINE
  5
917
330
911
100
AcDbEntity
  8
0
 62
     0
100
AcDbLine
 10
93.53742135862082
 20
43.90736415409003
 30
0.0
 11
93.58534501961726
 21
43.95528781508645
 31
0.0
  0
LINE
  5
918
330
911
100
AcDbEntity
  8
0
 62
     0
100
AcDbLine
 10
93.62890466387407
 20
43.99884745934326
 30
0.0
 11
93.64902530646368
 21
44.01896810193288
 31
0.0
  0
LINE
  5
919
330
911
100
AcDbEntity
  8
0
 62
     0
100
AcDbLine
 10
93.52599049040987
 20
43.94012745970322
 30
0.0
 11
93.58984409797669
 21
44.00398106727004
 31
0.0
  0
LINE
  5
91A
330
911
100
AcDbEntity
  8
0
 62
     0
100
AcDbLine
 10
93.53016511492446
 20
43.72333121509703
 30
0.0
 11
93.56961101801406
 21
43.76277711818662
 31
0.0
  0
LINE
  5
91B
330
911
100
AcDbEntity
  8
0
 62
     0
100
AcDbLine
 10
93.75785007691112
 20
43.95101617708369
 30
0.0
 11
93.79540215033465
 21
43.98856825050721
 31
0.0
  0
LINE
  5
91C
330
911
100
AcDbEntity
  8
0
 62
     0
100
AcDbLine
 10
93.60927872176679
 20
43.80244482193936
 30
0.0
 11
93.68215017364809
 21
43.87531627382066
 31
0.0
  0
LINE
  5
91D
330
911
100
AcDbEntity
  8
0
 62
     0
100
AcDbLine
 10
93.69781274454691
 20
43.89097884471946
 30
0.0
 11
93.71755898728213
 21
43.91072508745469
 31
0.0
  0
LINE
  5
91E
330
911
100
AcDbEntity
  8
0
 62
     0
100
AcDbLine
 10
93.5687330788996
 20
43.717705005248
 30
0.0
 11
93.70690098237849
 21
43.8558729087269
 31
0.0
  0
LINE
  5
91F
330
911
100
AcDbEntity
  8
0
 62
     0
100
AcDbLine
 10
93.75609993032096
 20
43.90507185666936
 30
0.0
 11
93.80023762104357
 21
43.94920954739197
 31
0.0
  0
LINE
  5
920
330
911
100
AcDbEntity
  8
0
 62
     0
100
AcDbLine
 10
93.70714782576504
 20
43.85611975211346
 30
0.0
 11
93.7437107021438
 21
43.89268262849221
 31
0.0
  0
LINE
  5
921
330
911
100
AcDbEntity
  8
0
 62
     0
100
AcDbLine
 10
93.68722983109382
 20
43.79200758361806
 30
0.0
 11
93.73129198263011
 21
43.83606973515436
 31
0.0
  0
LINE
  5
922
330
911
100
AcDbEntity
  8
0
 62
     0
100
AcDbLine
 10
93.69192430527958
 20
43.79615046167976
 30
0.0
 11
93.6585028768494
 21
43.82957189010991
 31
0.0
  0
LINE
  5
923
330
911
100
AcDbEntity
  8
0
 62
     0
100
AcDbLine
 10
93.62535724648129
 20
43.86271752047803
 30
0.0
 11
93.59468022279118
 21
43.89339454416813
 31
0.0
  0
LINE
  5
924
330
911
100
AcDbEntity
  8
0
 62
     0
100
AcDbLine
 10
93.58552934502261
 20
43.90254542193671
 30
0.0
 11
93.5701145292011
 21
43.91796023775824
 31
0.0
  0
LINE
  5
925
330
911
100
AcDbEntity
  8
0
 62
     0
100
AcDbLine
 10
93.53696889883297
 20
43.95110586812635
 30
0.0
 11
93.52921447880325
 21
43.95886028815606
 31
0.0
  0
LINE
  5
926
330
911
100
AcDbEntity
  8
0
 62
     0
100
AcDbLine
 10
93.64745433339336
 20
43.79642625974179
 30
0.0
 11
93.59221161611317
 21
43.85166897702199
 31
0.0
  0
LINE
  5
927
330
911
100
AcDbEntity
  8
0
 62
     0
100
AcDbLine
 10
93.53481136968559
 20
43.90906922344957
 30
0.0
 11
93.53128020764243
 21
43.91260038549273
 31
0.0
  0
LINE
  5
928
330
911
100
AcDbEntity
  8
0
 62
     0
100
AcDbLine
 10
93.64215758673916
 20
43.75752883257185
 30
0.0
 11
93.61430870302525
 21
43.78537771628576
 31
0.0
  0
LINE
  5
929
330
911
100
AcDbEntity
  8
0
 62
     0
100
AcDbLine
 10
93.58116307265714
 20
43.81852334665388
 30
0.0
 11
93.54297030868458
 21
43.85671611062642
 31
0.0
  0
LINE
  5
92A
330
911
100
AcDbEntity
  8
0
 62
     0
100
AcDbLine
 10
93.60326015956919
 20
43.75223208591765
 30
0.0
 11
93.58793357208972
 21
43.76755867339714
 31
0.0
  0
LINE
  5
92B
330
911
100
AcDbEntity
  8
0
 62
     0
100
AcDbLine
 10
93.58584877536651
 20
43.72544929629617
 30
0.0
 11
93.5701145292011
 21
43.74118354246159
 31
0.0
  0
LINE
  5
92C
330
911
100
AcDbEntity
  8
0
 62
     0
100
AcDbLine
 10
93.55500330977335
 20
43.71210058806517
 30
0.0
 11
93.52661569092893
 21
43.7404882069096
 31
0.0
  0
LINE
  5
92D
330
911
100
AcDbEntity
  8
0
 62
     0
100
AcDbLine
 10
93.69164850721753
 20
43.84062043356595
 30
0.0
 11
93.63640578993734
 21
43.89586315084615
 31
0.0
  0
LINE
  5
92E
330
911
100
AcDbEntity
  8
0
 62
     0
100
AcDbLine
 10
93.60326015956921
 20
43.92900878121427
 30
0.0
 11
93.57848291580484
 21
43.95378602497864
 31
0.0
  0
LINE
  5
92F
330
911
100
AcDbEntity
  8
0
 62
     0
100
AcDbLine
 10
93.57314783602848
 20
43.959121104755
 30
0.0
 11
93.548017442289
 21
43.98425149849447
 31
0.0
  0
LINE
  5
930
330
911
100
AcDbEntity
  8
0
 62
     0
100
AcDbLine
 10
93.73549403587942
 20
43.84096907872823
 30
0.0
 11
93.70269705067356
 21
43.87376606393408
 31
0.0
  0
LINE
  5
931
330
911
100
AcDbEntity
  8
0
 62
     0
100
AcDbLine
 10
93.58116307265708
 20
43.99530004195054
 30
0.0
 11
93.57457365800014
 21
44.0018894566075
 31
0.0
  0
LINE
  5
932
330
911
100
AcDbEntity
  8
0
 62
     0
100
AcDbLine
 10
93.66698262174322
 20
43.90948049286442
 30
0.0
 11
93.64389086885399
 21
43.93257224575366
 31
0.0
  0
LINE
  5
933
330
911
100
AcDbEntity
  8
0
 62
     0
100
AcDbLine
 10
93.63381107591488
 20
43.94265203869276
 30
0.0
 11
93.61430870302521
 21
43.96215441158243
 31
0.0
  0
LINE
  5
934
330
911
100
AcDbEntity
  8
0
 62
     0
100
AcDbLine
 10
93.73584268104169
 20
43.88481460739011
 30
0.0
 11
93.7123095036088
 21
43.90834778482299
 31
0.0
  0
LINE
  5
935
330
911
100
AcDbEntity
  8
0
 62
     0
100
AcDbLine
 10
93.64123382514124
 20
43.97942346329056
 30
0.0
 11
93.62715462756938
 21
43.99350266086242
 31
0.0
  0
LINE
  5
936
330
911
100
AcDbEntity
  8
0
 62
     0
100
AcDbLine
 10
93.77282935980048
 20
43.89202210245548
 30
0.0
 11
93.75684792816121
 21
43.90800353409474
 31
0.0
  0
LINE
  5
937
330
911
100
AcDbEntity
  8
0
 62
     0
100
AcDbLine
 10
93.659546066509
 20
44.00530539574694
 30
0.0
 11
93.6585028768494
 21
44.00634858540656
 31
0.0
  0
LINE
  5
938
330
911
100
AcDbEntity
  8
0
 62
     0
100
AcDbLine
 10
93.78003685486584
 20
43.92900878121427
 30
0.0
 11
93.75788387617257
 21
43.95116175990754
 31
0.0
  0
LINE
  5
939
330
911
100
AcDbEntity
  8
0
 62
     0
100
AcDbLine
 10
93.79861593078942
 20
43.95462387911486
 30
0.0
 11
93.79108539832188
 21
43.9621544115824
 31
0.0
  0
LINE
  5
93A
330
911
100
AcDbEntity
  8
0
 62
     0
100
AcDbLine
 10
93.79699526729323
 20
44.00043871643521
 30
0.0
 11
93.7931324379603
 21
44.00430154576812
 31
0.0
  0
ENDBLK
  5
93C
330
911
100
AcDbEntity
  8
0
100
AcDbBlockEnd
  0
BLOCK
  5
969
330
93D
100
AcDbEntity
  8
0
100
AcDbBlockBegin
  2
*X3
 70
     1
 10
0.0
 20
0.0
 30
0.0
  3
*X3
  1

  0
LINE
  5
93E
330
93D
100
AcDbEntity
  8
0
 62
     0
100
AcDbLine
 10
93.18506606596292
 20
43.73178555672876
 30
0.0
 11
93.19657177280321
 21
43.74329126356904
 31
0.0
  0
LINE
  5
93F
330
93D
100
AcDbEntity
  8
0
 62
     0
100
AcDbLine
 10
93.39439096338784
 20
43.94111045415368
 30
0.0
 11
93.39551713222457
 21
43.94223662299041
 31
0.0
  0
LINE
  5
940
330
93D
100
AcDbEntity
  8
0
 62
     0
100
AcDbLine
 10
93.22967118014124
 20
43.77639067090709
 30
0.0
 11
93.37291182265698
 21
43.91963131342281
 31
0.0
  0
LINE
  5
941
330
93D
100
AcDbEntity
  8
0
 62
     0
100
AcDbLine
 10
93.19038495494131
 20
43.78129861953129
 30
0.0
 11
93.21670003265145
 21
43.80761369724145
 31
0.0
  0
LINE
  5
942
330
93D
100
AcDbEntity
  8
0
 62
     0
100
AcDbLine
 10
93.28651087583695
 20
43.87742454042696
 30
0.0
 11
93.37300006447573
 21
43.96391372906573
 31
0.0
  0
LINE
  5
943
330
93D
100
AcDbEntity
  8
0
 62
     0
100
AcDbLine
 10
93.22612322467788
 20
43.81703688926788
 30
0.0
 11
93.272170332515
 21
43.86308399710499
 31
0.0
  0
LINE
  5
944
330
93D
100
AcDbEntity
  8
0
 62
     0
100
AcDbLine
 10
93.16316019264883
 20
43.79826803106299
 30
0.0
 11
93.16721872943782
 21
43.80232656785197
 31
0.0
  0
LINE
  5
945
330
93D
100
AcDbEntity
  8
0
 62
     0
100
AcDbLine
 10
93.26849245283144
 20
43.90360029124559
 30
0.0
 11
93.34031224689759
 21
43.97542008531176
 31
0.0
  0
LINE
  5
946
330
93D
100
AcDbEntity
  8
0
 62
     0
100
AcDbLine
 10
93.209250041466
 20
43.84435787988015
 30
0.0
 11
93.24064442522471
 21
43.87575226363888
 31
0.0
  0
LINE
  5
947
330
93D
100
AcDbEntity
  8
0
 62
     0
100
AcDbLine
 10
93.16447641892121
 20
43.84377843115953
 30
0.0
 11
93.19156343910952
 21
43.87086545134784
 31
0.0
  0
LINE
  5
948
330
93D
100
AcDbEntity
  8
0
 62
     0
100
AcDbLine
 10
93.19630606481247
 20
43.87560807705078
 30
0.0
 11
93.21953460925746
 21
43.89883662149578
 31
0.0
  0
LINE
  5
949
330
93D
100
AcDbEntity
  8
0
 62
     0
100
AcDbLine
 10
93.14965627854302
 20
43.87315246460549
 30
0.0
 11
93.15197737097916
 21
43.87547355704163
 31
0.0
  0
LINE
  5
94A
330
93D
100
AcDbEntity
  8
0
 62
     0
100
AcDbLine
 10
93.19188871496818
 20
43.91538490103064
 30
0.0
 11
93.20964429167544
 21
43.9331404777379
 31
0.0
  0
LINE
  5
94B
330
93D
100
AcDbEntity
  8
0
 62
     0
100
AcDbLine
 10
93.21510189401216
 20
43.71762721095385
 30
0.0
 11
93.40832929664648
 21
43.91085461358815
 31
0.0
  0
LINE
  5
94C
330
93D
100
AcDbEntity
  8
0
 62
     0
100
AcDbLine
 10
93.25838971547295
 20
43.71672085859046
 30
0.0
 11
93.32436123115762
 21
43.78269237427515
 31
0.0
  0
LINE
  5
94D
330
93D
100
AcDbEntity
  8
0
 62
     0
100
AcDbLine
 10
93.39820798668295
 20
43.85653912980046
 30
0.0
 11
93.43240830596412
 21
43.89073944908164
 31
0.0
  0
LINE
  5
94E
330
93D
100
AcDbEntity
  8
0
 62
     0
100
AcDbLine
 10
93.34624975239982
 20
43.80458089551734
 30
0.0
 11
93.3832510920839
 21
43.84158223520142
 31
0.0
  0
LINE
  5
94F
330
93D
100
AcDbEntity
  8
0
 62
     0
100
AcDbLine
 10
93.30658702423411
 20
43.72072399352747
 30
0.0
 11
93.3425798082392
 21
43.75671677753257
 31
0.0
  0
LINE
  5
950
330
93D
100
AcDbEntity
  8
0
 62
     0
100
AcDbLine
 10
93.41326652863576
 20
43.82740349792912
 30
0.0
 11
93.44666567102329
 21
43.86080264031664
 31
0.0
  0
LINE
  5
951
330
93D
100
AcDbEntity
  8
0
 62
     0
100
AcDbLine
 10
93.37278436485695
 20
43.78692133415031
 30
0.0
 11
93.38265641238796
 21
43.79679338168133
 31
0.0
  0
LINE
  5
952
330
93D
100
AcDbEntity
  8
0
 62
     0
100
AcDbLine
 10
93.33836094873154
 20
43.70830374420073
 30
0.0
 11
93.36949968699251
 21
43.73944248246171
 31
0.0
  0
LINE
  5
953
330
93D
100
AcDbEntity
  8
0
 62
     0
100
AcDbLine
 10
93.43983980268365
 20
43.80978259815285
 30
0.0
 11
93.45691139841468
 21
43.82685419388388
 31
0.0
  0
LINE
  5
954
330
93D
100
AcDbEntity
  8
0
 62
     0
100
AcDbLine
 10
93.36888151163948
 20
43.72144569090241
 30
0.0
 11
93.32704657316822
 21
43.76328062937367
 31
0.0
  0
LINE
  5
955
330
93D
100
AcDbEntity
  8
0
 62
     0
100
AcDbLine
 10
93.29390094280009
 20
43.79642625974179
 30
0.0
 11
93.2386582255199
 21
43.85166897702199
 31
0.0
  0
LINE
  5
956
330
93D
100
AcDbEntity
  8
0
 62
     0
100
AcDbLine
 10
93.20551259515177
 20
43.88481460739011
 30
0.0
 11
93.19111909524647
 21
43.89920810729541
 31
0.0
  0
LINE
  5
957
330
93D
100
AcDbEntity
  8
0
 62
     0
100
AcDbLine
 10
93.31599802971219
 20
43.73013499900555
 30
0.0
 11
93.26075531243199
 21
43.78537771628575
 31
0.0
  0
LINE
  5
958
330
93D
100
AcDbEntity
  8
0
 62
     0
100
AcDbLine
 10
93.22760968206386
 20
43.81852334665388
 30
0.0
 11
93.22690742441382
 21
43.81922560430392
 31
0.0
  0
LINE
  5
959
330
93D
100
AcDbEntity
  8
0
 62
     0
100
AcDbLine
 10
93.20253023687072
 20
43.843602791847
 30
0.0
 11
93.17870286589327
 21
43.86743016282446
 31
0.0
  0
LINE
  5
95A
330
93D
100
AcDbEntity
  8
0
 62
     0
100
AcDbLine
 10
93.24970676897594
 20
43.75223208591764
 30
0.0
 11
93.23468324880876
 21
43.76725560608483
 31
0.0
  0
LINE
  5
95B
330
93D
100
AcDbEntity
  8
0
 62
     0
100
AcDbLine
 10
93.22589854668077
 20
43.7760403082128
 30
0.0
 11
93.1986908472335
 21
43.80324800766007
 31
0.0
  0
LINE
  5
95C
330
93D
100
AcDbEntity
  8
0
 62
     0
100
AcDbLine
 10
93.24652554950811
 20
43.7112191315613
 30
0.0
 11
93.21656113860781
 21
43.74118354246159
 31
0.0
  0
LINE
  5
95D
330
93D
100
AcDbEntity
  8
0
 62
     0
100
AcDbLine
 10
93.178064609168
 20
43.73548589807724
 30
0.0
 11
93.16449605980793
 21
43.74905444743732
 31
0.0
  0
LINE
  5
95E
330
93D
100
AcDbEntity
  8
0
 62
     0
100
AcDbLine
 10
93.32229131343408
 20
43.81223006293196
 30
0.0
 11
93.30494948625613
 21
43.82957189010991
 31
0.0
  0
LINE
  5
95F
330
93D
100
AcDbEntity
  8
0
 62
     0
100
AcDbLine
 10
93.27180385588802
 20
43.86271752047803
 30
0.0
 11
93.27130197587001
 21
43.86321940049604
 31
0.0
  0
LINE
  5
960
330
93D
100
AcDbEntity
  8
0
 62
     0
100
AcDbLine
 10
93.38279457665427
 20
43.79592097353593
 30
0.0
 11
93.37124074699238
 21
43.80747480319783
 31
0.0
  0
LINE
  5
961
330
93D
100
AcDbEntity
  8
0
 62
     0
100
AcDbLine
 10
93.33809511662424
 20
43.84062043356595
 30
0.0
 11
93.28285239934405
 21
43.89586315084615
 31
0.0
  0
LINE
  5
962
330
93D
100
AcDbEntity
  8
0
 62
     0
100
AcDbLine
 10
93.38296326458044
 20
43.83994645943392
 30
0.0
 11
93.34914366008026
 21
43.87376606393408
 31
0.0
  0
LINE
  5
963
330
93D
100
AcDbEntity
  8
0
 62
     0
100
AcDbLine
 10
93.31599802971215
 20
43.90691169430221
 30
0.0
 11
93.273302914713
 21
43.94960680930135
 31
0.0
  0
LINE
  5
964
330
93D
100
AcDbEntity
  8
0
 62
     0
100
AcDbLine
 10
93.45271943249143
 20
43.8143844653471
 30
0.0
 11
93.41543492081653
 21
43.851668977022
 31
0.0
  0
LINE
  5
965
330
93D
100
AcDbEntity
  8
0
 62
     0
100
AcDbLine
 10
93.33931663932808
 20
43.92778725851044
 30
0.0
 11
93.32704657316822
 21
43.94005732467031
 31
0.0
  0
LINE
  5
966
330
93D
100
AcDbEntity
  8
0
 62
     0
100
AcDbLine
 10
93.38228929044841
 20
43.88481460739011
 30
0.0
 11
93.3508022321677
 21
43.91630166567082
 31
0.0
  0
LINE
  5
967
330
93D
100
AcDbEntity
  8
0
 62
     0
100
AcDbLine
 10
93.44528592933555
 20
43.86601214232714
 30
0.0
 11
93.39492128731533
 21
43.91637678434734
 31
0.0
  0
LINE
  5
968
330
93D
100
AcDbEntity
  8
0
 62
     0
100
AcDbLine
 10
93.36019220353632
 20
43.95110586812634
 30
0.0
 11
93.33548064434323
 21
43.97581742731945
 31
0.0
  0
ENDBLK
  5
96A
330
93D
100
AcDbEntity
  8
0
100
AcDbBlockEnd
  0
BLOCK
  5
97F
330
96B
100
AcDbEntity
  8
0
100
AcDbBlockBegin
  2
*X4
 70
     1
 10
0.0
 20
0.0
 30
0.0
  3
*X4
  1

  0
LINE
  5
96C
330
96B
100
AcDbEntity
  8
0
 62
     0
100
AcDbLine
 10
92.97449168387291
 20
43.96315291288034
 30
0.0
 11
93.04544554246071
 21
44.03410677146815
 31
0.0
  0
LINE
  5
96D
330
96B
100
AcDbEntity
  8
0
 62
     0
100
AcDbLine
 10
92.9628089836591
 20
43.99566438649069
 30
0.0
 11
92.9819402452227
 21
44.01479564805429
 31
0.0
  0
LINE
  5
96E
330
96B
100
AcDbEntity
  8
0
 62
     0
100
AcDbLine
 10
92.95332911347857
 20
44.03037869013433
 30
0.0
 11
93.01385393819918
 21
44.09090351485493
 31
0.0
  0
LINE
  5
96F
330
96B
100
AcDbEntity
  8
0
 62
     0
100
AcDbLine
 10
92.98814868144372
 20
43.93261573662698
 30
0.0
 11
93.04742266682936
 21
43.99188972201264
 31
0.0
  0
LINE
  5
970
330
96B
100
AcDbEntity
  8
0
 62
     0
100
AcDbLine
 10
93.006763357986
 20
43.90703623934512
 30
0.0
 11
93.03575272476548
 21
43.93602560612458
 31
0.0
  0
LINE
  5
971
330
96B
100
AcDbEntity
  8
0
 62
     0
100
AcDbLine
 10
93.03585259684316
 20
43.93612547820228
 30
0.0
 11
93.08147863005968
 21
43.98175151141879
 31
0.0
  0
LINE
  5
972
330
96B
100
AcDbEntity
  8
0
 62
     0
100
AcDbLine
 10
93.03625630720274
 20
43.8923350147377
 30
0.0
 11
93.07095096977253
 21
43.92702967730747
 31
0.0
  0
LINE
  5
973
330
96B
100
AcDbEntity
  8
0
 62
     0
100
AcDbLine
 10
93.07355649021625
 20
43.92963519775119
 30
0.0
 11
93.10080249118341
 21
43.95688119871834
 31
0.0
  0
LINE
  5
974
330
96B
100
AcDbEntity
  8
0
 62
     0
100
AcDbLine
 10
93.09273071381102
 20
43.90461524752181
 30
0.0
 11
93.09625472719991
 21
43.9081392609107
 31
0.0
  0
LINE
  5
975
330
96B
100
AcDbEntity
  8
0
 62
     0
100
AcDbLine
 10
92.98055337805321
 20
44.02138547684036
 30
0.0
 11
92.94867486204053
 21
44.05326399285303
 31
0.0
  0
LINE
  5
976
330
96B
100
AcDbEntity
  8
0
 62
     0
100
AcDbLine
 10
93.07240082275027
 20
43.92953803214329
 30
0.0
 11
93.01921439223837
 21
43.98272446265519
 31
0.0
  0
LINE
  5
977
330
96B
100
AcDbEntity
  8
0
 62
     0
100
AcDbLine
 10
93.01863665209735
 20
43.98330220279621
 30
0.0
 11
93.01768735639909
 21
43.98425149849447
 31
0.0
  0
LINE
  5
978
330
96B
100
AcDbEntity
  8
0
 62
     0
100
AcDbLine
 10
93.05948727583929
 20
43.8982574052301
 30
0.0
 11
93.04745487071432
 21
43.9102898103551
 31
0.0
  0
LINE
  5
979
330
96B
100
AcDbEntity
  8
0
 62
     0
100
AcDbLine
 10
93.00663881294305
 20
43.95110586812635
 30
0.0
 11
92.96314864167921
 21
43.99459603939019
 31
0.0
  0
LINE
  5
97A
330
96B
100
AcDbEntity
  8
0
 62
     0
100
AcDbLine
 10
93.0065495473649
 20
43.90700095988036
 30
0.0
 11
92.99583924034019
 21
43.91771126690506
 31
0.0
  0
LINE
  5
97B
330
96B
100
AcDbEntity
  8
0
 62
     0
100
AcDbLine
 10
93.10429637963233
 20
43.9418366490854
 30
0.0
 11
93.08397861713535
 21
43.96215441158239
 31
0.0
  0
LINE
  5
97C
330
96B
100
AcDbEntity
  8
0
 62
     0
100
AcDbLine
 10
93.03588071791887
 20
44.01025231079886
 30
0.0
 11
93.01668880570533
 21
44.0294442230124
 31
0.0
  0
LINE
  5
97D
330
96B
100
AcDbEntity
  8
0
 62
     0
100
AcDbLine
 10
93.07136583251901
 20
44.01896137002287
 30
0.0
 11
93.06276709164761
 21
44.02756011089429
 31
0.0
  0
LINE
  5
97E
330
96B
100
AcDbEntity
  8
0
 62
     0
100
AcDbLine
 10
93.01127501467119
 20
44.0790521878707
 30
0.0
 11
92.98688161596617
 21
44.10344558657572
 31
0.0
  0
ENDBLK
  5
980
330
96B
100
AcDbEntity
  8
0
100
AcDbBlockEnd
  0
BLOCK
  5
997
330
981
100
AcDbEntity
  8
0
100
AcDbBlockBegin
  2
*X5
 70
     1
 10
0.0
 20
0.0
 30
0.0
  3
*X5
  1

  0
LINE
  5
982
330
981
100
AcDbEntity
  8
0
 62
     0
100
AcDbLine
 10
92.9623902324541
 20
44.26041067823065
 30
0.0
 11
92.98271545709244
 21
44.28073590286898
 31
0.0
  0
LINE
  5
983
330
981
100
AcDbEntity
  8
0
 62
     0
100
AcDbLine
 10
93.05103812389656
 20
44.3490585696731
 30
0.0
 11
93.08617460316165
 21
44.38419504893819
 31
0.0
  0
LINE
  5
984
330
981
100
AcDbEntity
  8
0
 62
     0
100
AcDbLine
 10
92.99991974930538
 20
44.29794019508192
 30
0.0
 11
93.04726768116665
 21
44.3452881269432
 31
0.0
  0
LINE
  5
985
330
981
100
AcDbEntity
  8
0
 62
     0
100
AcDbLine
 10
92.98818055250643
 20
44.33039517210715
 30
0.0
 11
93.05560779406308
 21
44.39782241366378
 31
0.0
  0
LINE
  5
986
330
981
100
AcDbEntity
  8
0
 62
     0
100
AcDbLine
 10
93.01034511732606
 20
44.26417138927843
 30
0.0
 11
93.07974676617261
 21
44.33357303812498
 31
0.0
  0
LINE
  5
987
330
981
100
AcDbEntity
  8
0
 62
     0
100
AcDbLine
 10
93.08824357375963
 20
44.34206984571201
 30
0.0
 11
93.09652996954879
 21
44.35035624150118
 31
0.0
  0
LINE
  5
988
330
981
100
AcDbEntity
  8
0
 62
     0
100
AcDbLine
 10
93.04213539007402
 20
44.25176748820224
 30
0.0
 11
93.04901728829738
 21
44.25864938642561
 31
0.0
  0
LINE
  5
989
330
981
100
AcDbEntity
  8
0
 62
     0
100
AcDbLine
 10
93.07118148883731
 20
44.28081358696553
 30
0.0
 11
93.13521849282254
 21
44.34485059095076
 31
0.0
  0
LINE
  5
98A
330
981
100
AcDbEntity
  8
0
 62
     0
100
AcDbLine
 10
93.09701981224653
 20
44.2624577365506
 30
0.0
 11
93.10755798287489
 21
44.27299590717896
 31
0.0
  0
LINE
  5
98B
330
981
100
AcDbEntity
  8
0
 62
     0
100
AcDbLine
 10
93.12551008788101
 20
44.29094801218508
 30
0.0
 11
93.14021916607956
 21
44.30565709038362
 31
0.0
  0
LINE
  5
98C
330
981
100
AcDbEntity
  8
0
 62
     0
100
AcDbLine
 10
93.07293007367929
 20
44.28256217180755
 30
0.0
 11
93.06619313385855
 21
44.2892991116283
 31
0.0
  0
LINE
  5
98D
330
981
100
AcDbEntity
  8
0
 62
     0
100
AcDbLine
 10
93.06323844902845
 20
44.2922537964584
 30
0.0
 11
93.01768735639909
 21
44.33780488908775
 31
0.0
  0
LINE
  5
98E
330
981
100
AcDbEntity
  8
0
 62
     0
100
AcDbLine
 10
93.04848374335223
 20
44.26281432831045
 30
0.0
 11
93.03978444331118
 21
44.27151362835151
 31
0.0
  0
LINE
  5
98F
330
981
100
AcDbEntity
  8
0
 62
     0
100
AcDbLine
 10
93.00663881294305
 20
44.30465925871962
 30
0.0
 11
93.00304257686262
 21
44.30825549480005
 31
0.0
  0
LINE
  5
990
330
981
100
AcDbEntity
  8
0
 62
     0
100
AcDbLine
 10
93.00259436256309
 20
44.30870370909958
 30
0.0
 11
92.98580263856152
 21
44.32549543310115
 31
0.0
  0
LINE
  5
991
330
981
100
AcDbEntity
  8
0
 62
     0
100
AcDbLine
 10
92.98370504628756
 20
44.28339885155096
 30
0.0
 11
92.97349318257493
 21
44.29361071526359
 31
0.0
  0
LINE
  5
992
330
981
100
AcDbEntity
  8
0
 62
     0
100
AcDbLine
 10
92.96244463911888
 20
44.26046508489547
 30
0.0
 11
92.96111150592087
 21
44.26179821809349
 31
0.0
  0
LINE
  5
993
330
981
100
AcDbEntity
  8
0
 62
     0
100
AcDbLine
 10
93.1125245675159
 20
44.28716185179509
 30
0.0
 11
93.08397861713535
 21
44.31570780217565
 31
0.0
  0
LINE
  5
994
330
981
100
AcDbEntity
  8
0
 62
     0
100
AcDbLine
 10
93.04364021048076
 20
44.35604620883025
 30
0.0
 11
93.01788217483721
 21
44.3818042444738
 31
0.0
  0
LINE
  5
995
330
981
100
AcDbEntity
  8
0
 62
     0
100
AcDbLine
 10
93.11712424750346
 20
44.3267563456317
 30
0.0
 11
93.09477773155867
 21
44.34910286157649
 31
0.0
  0
LINE
  5
996
330
981
100
AcDbEntity
  8
0
 62
     0
100
AcDbLine
 10
93.08017270219758
 20
44.36370789093758
 30
0.0
 11
93.06757194441409
 21
44.37630864872107
 31
0.0
  0
ENDBLK
  5
998
330
981
100
AcDbEntity
  8
0
100
AcDbBlockEnd
  0
ENDSEC
  0
SECTION
  2
ENTITIES
  0
ARC
  5
9EA
330
1F
100
AcDbEntity
  8
ceco.net 290 pot plant
100
AcDbCircle
 10
391.2704755107619
 20
213.4497415639617
 30
0.0
 40
8.656943717941796
100
AcDbArc
 50
64.37588900055103
 51
123.8994277497991
  0
ARC
  5
9EB
330
1F
100
AcDbEntity
  8
ceco.net 290 pot plant
100
AcDbCircle
 10
390.3796607493384
 20
225.763752120072
 30
0.0
 40
6.46577323472423
100
AcDbArc
 50
232.4847169694474
 51
315.7905997808259
  0
ARC
  5
9EC
330
1F
100
AcDbEntity
  8
ceco.net 290 pot plant
100
AcDbCircle
 10
377.172895659359
 20
229.6521032336726
 30
0.0
 40
12.93154646944846
100
AcDbArc
 50
232.4847169694474
 51
315.7905997808259
  0
ARC
  5
9ED
330
1F
100
AcDbEntity
  8
ceco.net 290 pot plant
100
AcDbCircle
 10
378.9545251820928
 20
205.0240821214629
 30
0.0
 40
17.31388743588359
100
AcDbArc
 50
64.37588900055103
 51
123.8994277497991
  0
ARC
  5
9EE
330
1F
100
AcDbEntity
  8
ceco.net 290 pot plant
100
AcDbCircle
 10
276.2772043120732
 20
194.870453931943
 30
0.0
 40
16.756778833907
100
AcDbArc
 50
19.50084140342077
 51
94.56853997037629
  0
ARC
  5
9EF
330
1F
100
AcDbEntity
  8
ceco.net 290 pot plant
100
AcDbCircle
 10
307.4093795513244
 20
242.8734042585587
 30
0.0
 40
45.09713337028595
100
AcDbArc
 50
223.9511150675872
 51
250.1182663060987
  0
ARC
  5
9F0
330
1F
100
AcDbEntity
  8
ceco.net 290 pot plant
100
AcDbCircle
 10
371.9214337031412
 20
182.5176836849004
 30
0.0
 40
28.44422897670115
100
AcDbArc
 50
220.5307318095371
 51
257.4168584138025
  0
ARC
  5
9F1
330
1F
100
AcDbEntity
  8
ceco.net 290 pot plant
100
AcDbCircle
 10
352.1142065080121
 20
149.5870469886695
 30
0.0
 40
14.5591904730622
100
AcDbArc
 50
20.79807385904766
 51
97.14951636431697
  0
ARC
  5
9F2
330
1F
100
AcDbEntity
  8
ceco.net 290 pot plant
100
AcDbCircle
 10
192.4412759079887
 20
-182.7566436115203
 30
0.0
 40
3.673274983470323
100
AcDbArc
 50
322.7092297324792
 51
176.031980074422
  0
ARC
  5
9F3
330
1F
100
AcDbEntity
  8
ceco.net 290 pot plant
100
AcDbCircle
 10
200.9422895044832
 20
-189.2080990870672
 30
0.0
 40
6.998588811980509
100
AcDbArc
 50
142.8552388875942
 51
256.6140244160224
  0
ARC
  5
9F4
330
1F
100
AcDbEntity
  8
ceco.net 290 pot plant
100
AcDbCircle
 10
214.9301910764276
 20
-196.7027819053529
 30
0.0
 40
15.62322144402807
100
AcDbArc
 50
75.40959142251091
 51
177.4825549516731
  0
ARC
  5
9F5
330
1F
100
AcDbEntity
  8
ceco.net 290 pot plant
100
AcDbCircle
 10
247.7713188031525
 20
-204.0876647215061
 30
0.0
 40
36.63293242388533
100
AcDbArc
 50
142.0976049873021
 51
178.9449479781154
  0
ARC
  5
9F6
330
1F
100
AcDbEntity
  8
ceco.net 290 pot plant
100
AcDbCircle
 10
233.8558524597092
 20
-219.3944682471324
 30
0.0
 40
27.77056003236687
100
AcDbArc
 50
118.2191058982002
 51
144.8669299538102
  0
ARC
  5
9F7
330
1F
100
AcDbEntity
  8
ceco.net 290 pot plant
100
AcDbCircle
 10
207.2350226451609
 20
-196.4075279306172
 30
0.0
 40
13.57093966224453
100
AcDbArc
 50
257.4446087574593
 51
6.273559479020716
  0
ARC
  5
9F8
330
1F
100
AcDbEntity
  8
ceco.net 290 pot plant
100
AcDbCircle
 10
217.7295898251097
 20
-188.750021603785
 30
0.0
 40
24.85422757512072
100
AcDbArc
 50
237.2522997472936
 51
297.5732267033368
  0
ARC
  5
9F9
330
1F
100
AcDbEntity
  8
ceco.net 290 pot plant
100
AcDbCircle
 10
220.0324038011244
 20
-215.7137041066671
 30
0.0
 40
10.44034959471925
100
AcDbArc
 50
264.3369117821994
 51
28.19255018348916
  0
ARC
  5
9FA
330
1F
100
AcDbEntity
  8
ceco.net 290 pot plant
100
AcDbCircle
 10
225.1953426700868
 20
-216.9819738686118
 30
0.0
 40
11.02498839336359
100
AcDbArc
 50
235.8237725518045
 51
346.436266922208
  0
ARC
  5
9FB
330
1F
100
AcDbEntity
  8
ceco.net 290 pot plant
100
AcDbCircle
 10
257.1196654138511
 20
-205.9255783646954
 30
0.0
 40
25.21576876200013
100
AcDbArc
 50
212.7526044119975
 51
294.5588288333448
  0
ARC
  5
9FC
330
1F
100
AcDbEntity
  8
ceco.net 290 pot plant
100
AcDbCircle
 10
262.4872999643009
 20
-212.2266849052252
 30
0.0
 40
17.40154884526837
100
AcDbArc
 50
186.4622587504725
 51
287.0861214877736
  0
ARC
  5
9FD
330
1F
100
AcDbEntity
  8
ceco.net 290 pot plant
100
AcDbCircle
 10
243.5151273267605
 20
-199.9733392068388
 30
0.0
 40
14.31096015756799
100
AcDbArc
 50
276.7464385218077
 51
19.25226649918654
  0
ARC
  5
9FE
330
1F
100
AcDbEntity
  8
ceco.net 290 pot plant
100
AcDbCircle
 10
245.6252022545249
 20
-193.2292660198131
 30
0.0
 40
11.57906641969743
100
AcDbArc
 50
259.9392481529328
 51
349.9263052140029
  0
ARC
  5
9FF
330
1F
100
AcDbEntity
  8
ceco.net 290 pot plant
100
AcDbCircle
 10
240.3610771399064
 20
-197.7354784747528
 30
0.0
 40
7.618705623556226
100
AcDbArc
 50
130.4592767985019
 51
295.1789272843979
  0
ARC
  5
A00
330
1F
100
AcDbEntity
  8
ceco.net 290 pot plant
100
AcDbCircle
 10
243.1004433899643
 20
-200.9474842622969
 30
0.0
 40
11.84021111701695
100
AcDbArc
 50
47.79112558607089
 51
130.4592767984929
  0
ARC
  5
A01
330
1F
100
AcDbEntity
  8
ceco.net 290 pot plant
100
AcDbCircle
 10
235.2481482874248
 20
-194.5170664560438
 30
0.0
 40
15.97917687336246
100
AcDbArc
 50
8.419379000798347
 51
73.5761445941539
  0
ARC
  5
A02
330
1F
100
AcDbEntity
  8
ceco.net 290 pot plant
100
AcDbCircle
 10
237.924915926326
 20
-175.3317097866253
 30
0.0
 40
4.275000801759502
100
AcDbArc
 50
137.5201063785997
 51
295.511331755776
  0
ARC
  5
A03
330
1F
100
AcDbEntity
  8
ceco.net 290 pot plant
100
AcDbCircle
 10
241.8296227654535
 20
-178.9071944018964
 30
0.0
 40
9.569415380643331
100
AcDbArc
 50
10.58079195229217
 51
137.5201063785579
  0
ARC
  5
A04
330
1F
100
AcDbEntity
  8
ceco.net 290 pot plant
100
AcDbCircle
 10
251.6395570973919
 20
-170.1954523843951
 30
0.0
 40
6.966268377913874
100
AcDbArc
 50
82.02043604267055
 51
266.6816972263915
  0
ARC
  5
A05
330
1F
100
AcDbEntity
  8
ceco.net 290 pot plant
100
AcDbCircle
 10
-215.2305499280056
 20
228.4146060610867
 30
0.0
 40
13.74109081949303
100
AcDbArc
 50
154.8803534595391
 51
217.9776626724936
  0
ARC
  5
A06
330
1F
100
AcDbEntity
  8
ceco.net 290 pot plant
100
AcDbCircle
 10
-231.6617757579048
 20
227.4974830654965
 30
0.0
 40
7.84124601451944
100
AcDbArc
 50
59.41525202101406
 51
182.2273078765961
  0
ARC
  5
A07
330
1F
100
AcDbEntity
  8
ceco.net 290 pot plant
100
AcDbCircle
 10
-277.2048523315228
 20
199.2048393311536
 30
0.0
 40
27.97100724846646
100
AcDbArc
 50
349.166262254945
 51
99.69085907918222
  0
ARC
  5
A08
330
1F
100
AcDbEntity
  8
ceco.net 290 pot plant
100
AcDbCircle
 10
-266.0296990271822
 20
184.9765952866005
 30
0.0
 40
44.71618761569136
100
AcDbArc
 50
68.92754984245318
 51
110.8062265535409
  0
ARC
  5
A09
330
1F
100
AcDbEntity
  8
ceco.net 290 pot plant
100
AcDbCircle
 10
-271.7279896373072
 20
217.28321367397
 30
0.0
 40
23.72577836096863
100
AcDbArc
 50
23.39105271596015
 51
73.61377596497319
  0
ARC
  5
A0A
330
1F
100
AcDbEntity
  8
ceco.net 290 pot plant
100
AcDbCircle
 10
-260.7518862490064
 20
216.7576366415674
 30
0.0
 40
23.67820565908225
100
AcDbArc
 50
26.14887182635759
 51
100.4207541872651
  0
ARC
  5
A0B
330
1F
100
AcDbEntity
  8
ceco.net 290 pot plant
100
AcDbCircle
 10
52.96537886986594
 20
-324.0085473535579
 30
0.0
 40
4.536500812023457
100
AcDbArc
 50
109.5900131918607
 51
176.681750901262
  0
ARC
  5
A0C
330
1F
100
AcDbEntity
  8
ceco.net 290 pot plant
100
AcDbCircle
 10
46.59640101300655
 20
-319.2328177419586
 30
0.0
 40
4.873849434210071
100
AcDbArc
 50
292.1815105432236
 51
354.0902535496976
  0
ARC
  5
A0D
330
1F
100
AcDbEntity
  8
ceco.net 290 pot plant
100
AcDbCircle
 10
57.62150692066581
 20
-318.5124525832248
 30
0.0
 40
6.296906808773744
100
AcDbArc
 50
112.4317648692283
 51
191.1917408333307
  0
ARC
  5
A0E
330
1F
100
AcDbEntity
  8
ceco.net 290 pot plant
100
AcDbCircle
 10
49.26576702974625
 20
-314.034350678305
 30
0.0
 40
6.102416382570429
100
AcDbArc
 50
290.9162486006515
 51
12.70725710197977
  0
ARC
  5
A0F
330
1F
100
AcDbEntity
  8
ceco.net 290 plantpot
100
AcDbCircle
 10
0.0
 20
-0.0000000000035527
 30
0.0
 40
225.0
100
AcDbArc
 50
282.6525241771263
 51
319.3693694382062
  0
ARC
  5
A10
330
1F
100
AcDbEntity
  8
ceco.net 290 plantpot
100
AcDbCircle
 10
0.0
 20
-0.0000000000035527
 30
0.0
 40
250.0
100
AcDbArc
 50
287.8460328543181
 51
316.0630194056392
  0
LWPOLYLINE
  5
A11
330
1F
100
AcDbEntity
  8
ceco.net 290 pot plant
100
AcDbPolyline
 90
      233
 70
     1
 43
0.0
 10
111.3506727260731
 20
362.7852698599342
 42
0.3705292071362229
 10
108.438427077559
 20
318.5632151728732
 42
-0.9750821637284278
 10
92.81953163240032
 20
305.6568762048293
 42
-0.3741659027155197
 10
92.82660945526044
 20
333.1414089565635
 42
0.377573301072945
 10
74.92160521864764
 20
309.9824984165101
 42
-0.268802391945301
 10
68.38967101183527
 20
351.1791086607054
 42
0.3449768494159022
 10
55.1739400461837
 20
322.3374755453343
 42
-1.401012793527779
 10
43.0138322313608
 20
318.26270076082
 42
0.4101577070598647
 10
19.19578638477777
 20
342.7856590514402
 42
-0.3696823587057574
 10
29.24464789850377
 20
297.3267171741303
 42
0.2838946959521794
 10
-4.330341283287284
 20
301.8396065328417
 42
-0.3480829465893267
 10
28.49512621866793
 20
262.0602032390499
 42
-0.5663996324755322
 10
8.995034672943935
 20
277.0094576233404
 42
0.2804011771701579
 10
12.43947257343629
 20
230.871974824923
 42
-1.161260919203852
 10
16.26250135111647
 20
216.1099875876063
 42
-0.4531933121238456
 10
-8.97540879341864
 20
239.4596389681378
 42
0.3835576800953358
 10
-4.169440355211724
 20
207.5893774180449
 42
-2.026436599446132
 10
-10.59153548778475
 20
195.1141871157764
 42
0.4640619658391861
 10
-48.85599202430444
 20
205.3098175714644
 42
-0.6425301184398746
 10
-41.0279941560663
 20
163.989230758783
 42
0.4185562713135898
 10
-56.57440019491691
 20
192.9580429560527
 42
-0.8784560948605685
 10
-100.2194843593539
 20
160.4762759369035
 42
0.6416956213051184
 10
-85.4040492787092
 20
169.5330680117069
 42
-0.5568582672260356
 10
-101.8168754637835
 20
189.4228272029634
 42
0.5976542324500029
 10
-80.29749925624477
 20
186.4964867263329
 42
-0.6808819050603617
 10
-84.15701166952541
 20
219.1490617980917
 42
0.2849895976014881
 10
-109.9189138894045
 20
205.0291393800933
 42
-0.3070519329158615
 10
-107.8123861368415
 20
236.2398342074432
 42
0.5353903601625975
 10
-124.6034889416062
 20
224.7539704012262
 42
-0.4139966242260304
 10
-127.1084376819142
 20
244.1890284874031
 42
0.3729984877271094
 10
-142.1088847358785
 20
219.8002959676176
 42
-0.2239433245607674
 10
-148.0989214066439
 20
255.7099704975027
 42
0.3249019510095359
 10
-159.8467387888006
 20
223.063481016621
 42
-1.01846346802933
 10
-172.9576985314243
 20
217.2470604807837
 42
0.2585656356125954
 10
-201.4301560719414
 20
239.5965813820837
 42
-0.4330288723663902
 10
-192.4036216910281
 20
202.6117120941894
 42
0.2589147081859297
 10
-226.0619745974198
 20
219.958967910124
 42
-0.3581386410878254
 10
-212.4395008875803
 20
198.2413661303074
 42
0.414417447799118
 10
-249.7323795109642
 20
193.9474175659315
 42
-0.1401534757292493
 10
-232.7723021850243
 20
190.7582613807766
 42
-0.345678055675863
 10
-243.6287988459039
 20
167.4503851345154
 42
0.6069284329006726
 10
-222.6276178725986
 20
181.9373142200051
 42
-0.3165629968396323
 10
-214.3044541337539
 20
145.8047929085438
 42
0.1953575399469872
 10
-207.113549129368
 20
171.8185433494721
 42
-0.257514991766539
 10
-198.6461451932216
 20
120.7518157390121
 42
0.1321891538697076
 10
-188.7900522336469
 20
141.799486658251
 42
-0.532689626440125
 10
-183.3155839458702
 20
116.9329405291768
 42
0.5974903739155158
 10
-168.9154813290697
 20
95.14112909876898
 42
-0.2593590053555669
 10
-152.056174665839
 20
132.0115645524208
 42
0.1293534294050237
 10
-152.619470484734
 20
101.439017797093
 42
0.9201892254237284
 10
-134.6195559080657
 20
109.1447514983306
 42
-0.6358500205647978
 10
-115.1344764081263
 20
132.4146160052955
 42
0.3473519085652649
 10
-118.9176849057498
 20
109.2167610522321
 42
-0.3015291000211676
 10
-78.19771770739539
 20
97.365540646284
 42
0.5964564818921911
 10
-128.3473500824275
 20
56.59525516695644
 42
-0.2802762645374608
 10
-92.20259604600016
 20
73.71964634857436
 42
-0.579925981724602
 10
-95.68481416421942
 20
6.452653676242812
 42
0.5178745619358669
 10
-109.2241223408119
 20
41.5442730791948
 42
-0.6294119925569795
 10
-148.3241365898651
 20
-14.24107708306915
 42
-0.9906937899349825
 10
-161.5239890303332
 20
-6.368483927479082
 42
-0.3318310994535417
 10
-124.7905196079993
 20
9.230230759430012
 42
0.1896896701598412
 10
-172.9865220867808
 20
19.70778260070723
 42
-0.2704182911650459
 10
-146.3338417911455
 20
45.08567861247931
 42
0.5184487079527737
 10
-191.001951527553
 20
30.97911438503366
 42
-0.8082087857414908
 10
-206.9366313047792
 20
48.6648011694884
 42
0.38248989893258
 10
-213.0894492034802
 20
107.2991646081474
 42
-0.7055399465559809
 10
-244.7333775656667
 20
75.7844695269301
 42
0.4648190877742016
 10
-277.0196450249319
 20
106.7871439318227
 42
-0.3026038650081594
 10
-269.5425889238641
 20
77.41728178997248
 42
0.3328254900256233
 10
-345.111291240285
 20
55.50011113316626
 42
-0.315627575489163
 10
-278.2494919709037
 20
54.12235390619921
 42
0.2307052696030647
 10
-313.3585637341239
 20
42.46410828750446
 42
0.646364551481149
 10
-298.7347745743916
 20
28.06079107826784
 42
-0.3212521964066497
 10
-243.1063402599404
 20
13.74689530977631
 42
0.6722901248991371
 10
-273.3611511030261
 20
-20.38778654532171
 42
-0.4155876144138348
 10
-238.7252016174236
 20
-13.6872998806123
 42
0.2770949060373585
 10
-259.2211697956733
 20
-81.77267114937917
 42
-0.1912856433395634
 10
-230.0965927573362
 20
-38.52489352373984
 42
0.3316357359401529
 10
-224.0227332387092
 20
-90.13459099993573
 42
-0.4931379278776581
 10
-204.9961570778323
 20
-47.92431807872016
 42
-0.4625301894680685
 10
-191.2476464009391
 20
-64.21525704706247
 42
0.3647549207846554
 10
-172.7896788499833
 20
-99.31729386111125
 42
-0.4443388698747107
 10
-139.2439089937131
 20
-46.14279778226204
 42
0.5118517288768532
 10
-120.0743163573892
 20
-92.8303509417333
 42
-0.3396801888898231
 10
-116.2636307269408
 20
-59.24730874678004
 42
-0.5366420154901171
 10
-72.79195851382437
 20
-92.4930098555734
 42
-0.4143106102863764
 10
-96.62888064441215
 20
-75.66965124607209
 42
0.4188753022210965
 10
-72.33973388694805
 20
-113.1465152997573
 42
-1.386493635725874
 10
-81.2329256094668
 20
-123.8154375050608
 42
0.4237762548189871
 10
-118.6508074082764
 20
-116.001408327916
 42
-0.5872915649497326
 10
-102.0176272727556
 20
-132.137308984577
 42
0.4311906428377851
 10
-152.4866087272346
 20
-144.3217518218828
 42
-0.5912290080748292
 10
-125.3406816517793
 20
-151.6700395773575
 42
1.071669421143501
 10
-125.1854291520449
 20
-171.3951878140446
 42
-0.3064273883118909
 10
-80.73632534581589
 20
-196.7067084392252
 42
0.2366104799503842
 10
-125.9944470413857
 20
-201.2233750718857
 42
-0.21313021811276
 10
-95.96712011992517
 20
-221.0806697705965
 42
0.171845436920635
 10
-141.8983242737
 20
-225.5331036907183
 42
-0.5735328629174471
 10
-110.0142342689515
 20
-254.4030753312825
 42
-0.1084139403542925
 10
-126.2624340142981
 20
-246.7355796203359
 42
0.4861420087723957
 10
-155.4955207008102
 20
-254.1409064534134
 42
-0.8493678953790107
 10
-147.0669584671145
 20
-258.3436031582706
 42
-0.14137317525448
 10
-169.3194885446042
 20
-292.2423406589911
 42
0.2710760693309509
 10
-137.9690682756187
 20
-276.8831803157082
 42
-0.0805966793429079
 10
-146.708506149328
 20
-323.7865136417291
 42
0.2437281213519537
 10
-122.6871490288341
 20
-290.2035259965137
 42
-0.236870015494787
 10
-117.6198319040917
 20
-321.9333613184053
 42
0.1621910232768065
 10
-102.7408825682647
 20
-293.2642876724593
 42
0.3632999532172266
 10
-75.2391308487156
 20
-308.0401966538003
 42
-0.4450448541846043
 10
-87.32100198325808
 20
-283.1630569979056
 42
0.4590169066921665
 10
-53.26514859764179
 20
-277.7334598327969
 42
-0.1927061403750989
 10
-81.47827938042501
 20
-270.4119576431496
 42
-1.02337228113003
 10
-74.9273470681987
 20
-262.357742219248
 42
0.3290614321527724
 10
-51.95185183490808
 20
-263.9716711977412
 42
-0.4525910437623758
 10
-58.21987186668478
 20
-232.7056951086579
 42
0.3983393289283909
 10
-36.83142854826693
 20
-250.9486730441187
 42
-0.5477496945409046
 10
-33.13610784097442
 20
-206.1677498319681
 42
0.3212679773696156
 10
-24.98484047710988
 20
-235.8773365493713
 42
-0.3806100369891711
 10
-11.63507066685183
 20
-211.1127983651249
 42
-0.2495535059667295
 10
-7.247110182508273
 20
-231.7836799691263
 42
0.3201565681471296
 10
0.2112929171773077
 20
-252.8853654977764
 42
-0.6284391722917125
 10
26.80160742895624
 20
-233.9306558995084
 42
0.2897391245021008
 10
11.90388899315334
 20
-260.2009465054904
 42
1.20287264722463
 10
17.57437446307982
 20
-265.7017277885142
 42
-0.2919752115464718
 10
46.03418871450478
 20
-253.1251744954128
 42
0.3692875580860491
 10
40.93901536552502
 20
-284.8772030674693
 42
-0.3092381670429133
 10
45.93097057533859
 20
-275.8474763070193
 42
-0.2296069157121823
 10
55.21871503813552
 20
-312.6920035861449
 42
0.2650562883866904
 10
66.80576522299272
 20
-275.9988054260027
 42
0.4832331244884886
 10
86.03410038493777
 20
-257.5126506241803
 42
-0.6994224258371409
 10
66.3149488203768
 20
-247.0958792807941
 42
0.7806355013376468
 10
74.13818448108748
 20
-233.2112361318558
 42
0.1421328750616888
 10
54.78311567718345
 20
-223.2357567389672
 42
-0.9061697510861451
 10
56.39738972059952
 20
-206.3200840479708
 42
0.290357830604525
 10
84.07757323469189
 20
-188.6402999364231
 42
-0.2702832408701887
 10
52.45598650871506
 20
-179.5263702294505
 42
0.3290260735237836
 10
67.04885997832566
 20
-150.0309339091119
 42
-0.2636928347692792
 10
44.65332716999217
 20
-160.1932302632092
 42
0.430525744418752
 10
42.17993418098813
 20
-117.151817126599
 42
-0.3835842530076026
 10
88.72611735159486
 20
-145.0146554306273
 42
0.2269039081886566
 10
83.03427038034504
 20
-109.0094852474413
 42
-0.4025519504601919
 10
118.1942094693658
 20
-145.6777276205454
 42
1.079820544187117
 10
133.878844154101
 20
-144.487919638849
 42
-0.4607682076989211
 10
154.4087824123028
 20
-120.6564939623022
 42
-0.7563741267364501
 10
158.4085233041659
 20
-135.0081389855332
 42
0.4240877085441518
 10
150.0121391601596
 20
-172.355463018777
 42
-0.4223762950098012
 10
182.6545393677472
 20
-145.381567459307
 42
0.4602632383168736
 10
188.7768063892103
 20
-182.5024542133684
 42
-0.7374412974040361
 10
208.7748257728195
 20
-158.6202671601891
 42
0.9600110785674111
 10
218.8902044753806
 20
-137.0187020406732
 42
-0.512890604497247
 10
252.6066136866539
 20
-163.2966338865445
 42
0.3100941316272868
 10
245.1416865074514
 20
-122.1631991104757
 42
-0.1485514933080464
 10
262.3914353035987
 20
-127.7035159818925
 42
0.7277373839471179
 10
228.7241304827311
 20
-117.7124305908859
 42
-0.3399386131599394
 10
237.8919064972309
 20
-100.5117496992007
 42
0.2984797305602265
 10
201.6228626001302
 20
-125.6700572188607
 42
-0.1892058475458087
 10
209.7974678604786
 20
-103.1027353774794
 42
0.4057542435153341
 10
188.8765220353988
 20
-109.3907570354858
 42
-0.3151626788029634
 10
198.7565249363479
 20
-84.72678517163126
 42
0.1469553212049728
 10
177.7979158056783
 20
-99.29573421054092
 42
-0.4603024540422882
 10
184.1287801274295
 20
-64.50221423490053
 42
0.4268151125048881
 10
204.0861474203508
 20
-76.19761066941343
 42
-0.3876617165092853
 10
198.1611570711598
 20
-51.53149256643223
 42
0.2229004506216738
 10
243.9734184201734
 20
-68.33046230037836
 42
0.3530201276039398
 10
211.7494727491065
 20
-39.2715587371797
 42
-0.3629881490841456
 10
243.0240657476663
 20
-30.95893298552617
 42
0.4335095016978498
 10
205.627570986801
 20
-20.61196848565566
 42
-0.4726146971002293
 10
249.9562956750596
 20
-5.637021984693806
 42
0.4927401181872487
 10
254.9716329522985
 20
23.25691527621552
 42
-0.296032883320777
 10
280.162520697474
 20
-8.519622392847919
 42
0.3286267575081841
 10
275.6996658579409
 20
39.35419816972631
 42
-0.1926181123299208
 10
302.3299513073153
 20
10.82939371060979
 42
0.3549409569897915
 10
285.0266715490223
 20
54.28028639759274
 42
-0.499717144978278
 10
299.3628503395143
 20
74.37693647896906
 42
0.3510293402834891
 10
334.3645693368157
 20
74.42579475216676
 42
-0.2705750610587556
 10
302.8319365270905
 20
98.89944409312951
 42
0.3088472455546019
 10
344.0685748498763
 20
105.1317839590153
 42
-0.297442763721465
 10
305.3960307286715
 20
125.7681027572089
 42
-0.4217845820903191
 10
338.1098273477651
 20
137.3324802403443
 42
0.3308988851173778
 10
305.0816900428997
 20
146.1329682569245
 42
-0.3261076517252325
 10
350.3021838257428
 20
164.0330360870295
 42
0.1814505913709677
 10
327.1707114697911
 20
173.1014120645389
 42
-0.2401603704837482
 10
369.297932677703
 20
219.394917843386
 42
0.3727261149000371
 10
320.3255263177099
 20
185.1895260020559
 42
0.2044974773945657
 10
292.072757153857
 20
200.4642136077683
 42
-0.2360504995728041
 10
306.8957725989824
 20
176.1796043037747
 42
0.3357729337878376
 10
265.4299434175882
 20
184.7109579862422
 42
-0.3551324129719892
 10
290.5526436252259
 20
160.5870763255236
 42
-0.2999557049700297
 10
247.9034129112396
 20
180.6659437797267
 42
0.1925533962170578
 10
264.558635904672
 20
151.6325363524402
 42
-1.396300183440971
 10
241.4209952316714
 20
136.6881208642096
 42
0.3761247140738997
 10
253.9222114999323
 20
100.046867953604
 42
-0.3732284739130992
 10
205.7761917033277
 20
134.3724380008796
 42
-0.1789133191595593
 10
229.2382353841291
 20
152.716211313337
 42
0.4320076143749723
 10
194.6686529753176
 20
137.7194125676323
 42
-0.3249781248770439
 10
211.2342557998659
 20
179.5913568297401
 42
0.9294539243210778
 10
203.4726757478534
 20
194.0538976112613
 42
-0.5623464493943419
 10
207.2513842823124
 20
209.7021155378825
 42
0.4548260562876667
 10
218.9630574529937
 20
248.6069577558463
 42
-0.229056747024907
 10
200.7304357005555
 20
225.1898955227418
 42
-1.095049111032192
 10
195.2338407018285
 20
239.4365795942576
 42
-0.6182235687120032
 10
221.3932034803947
 20
262.0968952499817
 42
0.5235030026403899
 10
179.1131302862658
 20
250.1228884967801
 42
-0.1495906335564247
 10
163.682833829219
 20
272.4091325188451
 42
0.2809687297294042
 10
175.2824789445899
 20
233.6081624088655
 42
-0.3432943304746039
 10
140.6743017520856
 20
228.6653985568516
 42
0.2415666156785784
 10
167.4449290316417
 20
213.1532803019109
 42
-0.4891582145926672
 10
146.8346544142961
 20
206.8746871746984
 42
0.2953904020039443
 10
171.2722008894169
 20
191.585216393056
 42
-0.6059840247338361
 10
142.6604748662333
 20
175.4685024371956
 42
0.1577612216851365
 10
161.6607769590596
 20
160.3156284711814
 42
0.6386841814480029
 10
148.3752502933414
 20
149.0086713982562
 42
0.4879106546129237
 10
119.9923806881044
 20
159.9627132922791
 42
-0.4615288662595009
 10
139.9280275685041
 20
134.5014494343221
 42
0.4098735869333603
 10
111.4339922964017
 20
144.2885550195407
 42
-0.6178393180063221
 10
120.8710666825662
 20
119.8291770091022
 42
-0.8348114803695857
 10
91.99013339291864
 20
137.8983577149548
 42
0.4201453628095701
 10
78.76555574593014
 20
122.669204687254
 42
-0.4397034264175197
 10
95.9941633870072
 20
155.1852710815535
 42
0.3664740351038259
 10
76.83203551856158
 20
164.081534115122
 42
-0.6546263285619725
 10
107.0559762210109
 20
184.7560347303411
 42
0.2791206819774323
 10
79.0073241002328
 20
199.2122784938917
 42
-0.590297648914087
 10
117.2266069383999
 20
204.9882693640539
 42
0.535384197669969
 10
90.56736705602123
 20
221.6675951078581
 42
-1.900968611114404
 10
93.07059741453858
 20
235.5642190053964
 42
0.3759256651786854
 10
121.4596874343318
 20
249.3459200590359
 42
-0.3874842130825273
 10
97.52001055984365
 20
257.5202705503944
 42
-0.8547860708114816
 10
127.7966041490775
 20
266.410204473882
 42
0.1567333484649429
 10
115.1397774254754
 20
291.4303042711206
 42
0.1478696771800729
 10
156.469183953761
 20
299.359886580132
 42
-0.3954380462580079
 10
137.9098722259486
 20
315.7124143931247
 42
0.2020721076453807
 10
146.3156820891281
 20
351.1122869760978
 42
-0.3431001023112591
 10
126.1542467406125
 20
326.0345135223317
 42
-0.5144128871058362
  0
ARC
  5
A12
330
1F
100
AcDbEntity
  8
ceco.net 290 plantpot
100
AcDbCircle
 10
0.0
 20
-0.0000000000035527
 30
0.0
 40
225.0
100
AcDbArc
 50
333.203464129977
 51
343.562197616617
  0
ARC
  5
A13
330
1F
100
AcDbEntity
  8
ceco.net 290 plantpot
100
AcDbCircle
 10
0.0
 20
-0.0000000000035527
 30
0.0
 40
250.0
100
AcDbArc
 50
335.9358089779384
 51
344.0903702844122
  0
ARC
  5
A14
330
1F
100
AcDbEntity
  8
ceco.net 290 plantpot
100
AcDbCircle
 10
0.0
 20
-0.0000000000035527
 30
0.0
 40
225.0
100
AcDbArc
 50
45.75289661485901
 51
67.73682793444894
  0
ARC
  5
A15
330
1F
100
AcDbEntity
  8
ceco.net 290 plantpot
100
AcDbCircle
 10
0.0
 20
-0.0000000000035527
 30
0.0
 40
250.0
100
AcDbArc
 50
25.18550308571055
 51
33.53864234211603
  0
ARC
  5
A16
330
1F
100
AcDbEntity
  8
ceco.net 290 plantpot
100
AcDbCircle
 10
0.0
 20
-0.0000000000035527
 30
0.0
 40
225.0
100
AcDbArc
 50
84.08973130348813
 51
91.09036902031583
  0
ARC
  5
A17
330
1F
100
AcDbEntity
  8
ceco.net 290 plantpot
100
AcDbCircle
 10
0.0
 20
-0.0000000000035527
 30
0.0
 40
250.0
100
AcDbArc
 50
88.93422115545867
 51
116.9945309381403
  0
ARC
  5
A18
330
1F
100
AcDbEntity
  8
ceco.net 290 plantpot
100
AcDbCircle
 10
0.0
 20
-0.0000000000035527
 30
0.0
 40
225.0
100
AcDbArc
 50
143.3847422469062
 51
154.9169387423534
  0
ARC
  5
A19
330
1F
100
AcDbEntity
  8
ceco.net 290 plantpot
100
AcDbCircle
 10
0.0
 20
-0.0000000000035527
 30
0.0
 40
250.0
100
AcDbArc
 50
142.2208717338749
 51
162.8142581190328
  0
ARC
  5
A1A
330
1F
100
AcDbEntity
  8
ceco.net 290 plantpot
100
AcDbCircle
 10
0.0
 20
-0.0000000000035527
 30
0.0
 40
225.0
100
AcDbArc
 50
194.1383374313997
 51
240.1284484276117
  0
ARC
  5
A1B
330
1F
100
AcDbEntity
  8
ceco.net 290 plantpot
100
AcDbCircle
 10
0.0
 20
-0.0000000000035527
 30
0.0
 40
250.0
100
AcDbArc
 50
175.4444746361364
 51
176.5416182395894
  0
ARC
  5
A1C
330
1F
100
AcDbEntity
  8
ceco.net 290 plantpot
100
AcDbCircle
 10
0.0
 20
-0.0000000000035527
 30
0.0
 40
250.0
100
AcDbArc
 50
182.1905866866962
 51
185.7472761586389
  0
ARC
  5
A1D
330
1F
100
AcDbEntity
  8
ceco.net 290 plantpot
100
AcDbCircle
 10
0.0
 20
-0.0000000000035527
 30
0.0
 40
250.0
100
AcDbArc
 50
47.24284300968768
 51
70.90412941503227
  0
ARC
  5
A1E
330
1F
100
AcDbEntity
  8
ceco.net 290 plantpot
100
AcDbCircle
 10
0.0
 20
-0.0000000000035527
 30
0.0
 40
250.0
100
AcDbArc
 50
36.29599480695548
 51
38.85625240935676
  0
ARC
  5
A1F
330
1F
100
AcDbEntity
  8
ceco.net 290 plantpot
100
AcDbCircle
 10
0.0
 20
-0.0000000000035527
 30
0.0
 40
225.0
100
AcDbArc
 50
349.4646241511254
 51
352.2300765922981
  0
ARC
  5
A20
330
1F
100
AcDbEntity
  8
ceco.net 290 plantpot
100
AcDbCircle
 10
0.0
 20
-0.0000000000035527
 30
0.0
 40
225.0
100
AcDbArc
 50
355.6244981796938
 51
359.3858381312309
  0
ARC
  5
A21
330
1F
100
AcDbEntity
  8
ceco.net 290 plantpot
100
AcDbCircle
 10
0.0
 20
-0.0000000000035527
 30
0.0
 40
250.0
100
AcDbArc
 50
345.6965525059483
 51
358.7107747654741
  0
ARC
  5
A22
330
1F
100
AcDbEntity
  8
ceco.net 290 plantpot
100
AcDbCircle
 10
0.0
 20
-0.0000000000035527
 30
0.0
 40
250.0
100
AcDbArc
 50
255.5722746066571
 51
257.7634584447622
  0
ARC
  5
A23
330
1F
100
AcDbEntity
  8
ceco.net 290 plantpot
100
AcDbCircle
 10
0.0
 20
-0.0000000000035527
 30
0.0
 40
225.0
100
AcDbArc
 50
258.301423851577
 51
261.3599110567585
  0
ARC
  5
A24
330
1F
100
AcDbEntity
  8
ceco.net 290 plantpot
100
AcDbCircle
 10
0.0
 20
-0.0000000000035527
 30
0.0
 40
225.0
100
AcDbArc
 50
263.8114330311425
 51
268.3747731509392
  0
ARC
  5
A25
330
1F
100
AcDbEntity
  8
ceco.net 290 plantpot
100
AcDbCircle
 10
0.0
 20
-0.0000000000035527
 30
0.0
 40
250.0
100
AcDbArc
 50
260.4755266433599
 51
269.2974824566748
  0
ARC
  5
A26
330
1F
100
AcDbEntity
  8
ceco.net 290 plantpot
100
AcDbCircle
 10
0.0
 20
-0.0000000000035527
 30
0.0
 40
250.0
100
AcDbArc
 50
269.9883446913299
 51
273.0752319913262
  0
ARC
  5
A27
330
1F
100
AcDbEntity
  8
ceco.net 290 plantpot
100
AcDbCircle
 10
0.0
 20
-0.0000000000035527
 30
0.0
 40
250.0
100
AcDbArc
 50
191.9442483263114
 51
241.3598594345225
  0
ARC
  5
A28
330
1F
100
AcDbEntity
  8
ceco.net 290 plantpot
100
AcDbCircle
 10
0.0
 20
-0.0000000000035527
 30
0.0
 40
225.0
100
AcDbArc
 50
93.28750327487064
 51
114.5350841749562
  0
INSERT
  5
A29
330
1F
100
AcDbEntity
  8
ceco.net 290 potting soil
100
AcDbBlockReference
  2
*X1
 10
-17529.87261069797
 20
48580.94902455913
 30
0.0
 41
499.9999999999999
 42
500.0
 43
500.0
 50
264.5487334080602
1001
ACAD
1000
HATCH
1002
{
1070
    16
1000
ANSI38
1040
0.25
1040
0.0
1002
}
  0
INSERT
  5
A2A
330
1F
100
AcDbEntity
  8
ceco.net 290 potting soil
100
AcDbBlockReference
  2
*X2
 10
-17529.87261069797
 20
48580.94902455913
 30
0.0
 41
499.9999999999999
 42
500.0
 43
500.0
 50
264.5487334080602
1001
ACAD
1000
HATCH
1002
{
1070
    16
1000
ANSI38
1040
0.25
1040
0.0
1002
}
  0
INSERT
  5
A2B
330
1F
100
AcDbEntity
  8
ceco.net 290 potting soil
100
AcDbBlockReference
  2
*X3
 10
-17529.87261069797
 20
48580.94902455913
 30
0.0
 41
499.9999999999999
 42
500.0
 43
500.0
 50
264.5487334080602
1001
ACAD
1000
HATCH
1002
{
1070
    16
1000
ANSI38
1040
0.25
1040
0.0
1002
}
  0
INSERT
  5
A2C
330
1F
100
AcDbEntity
  8
ceco.net 290 potting soil
100
AcDbBlockReference
  2
*X4
 10
-17529.87261069797
 20
48580.94902455913
 30
0.0
 41
499.9999999999999
 42
500.0
 43
500.0
 50
264.5487334080602
1001
ACAD
1000
HATCH
1002
{
1070
    16
1000
ANSI38
1040
0.25
1040
0.0
1002
}
  0
INSERT
  5
A2D
330
1F
100
AcDbEntity
  8
ceco.net 290 potting soil
100
AcDbBlockReference
  2
*X5
 10
-17529.87261069797
 20
48580.94902455913
 30
0.0
 41
499.9999999999999
 42
500.0
 43
500.0
 50
264.5487334080602
1001
ACAD
1000
HATCH
1002
{
1070
    16
1000
ANSI38
1040
0.25
1040
0.0
1002
}
  0
ENDSEC
  0
SECTION
  2
OBJECTS
  0
DICTIONARY
  5
C
330
0
100
AcDbDictionary
281
     1
  3
ACAD_GROUP
350
D
  3
ACAD_LAYOUT
350
1A
  3
ACAD_MLINESTYLE
350
17
  3
ACAD_PLOTSETTINGS
350
19
  3
ACAD_PLOTSTYLENAME
350
E
  3
AcDbVariableDictionary
350
115
  3
DWGPROPS
350
8E3
  0
DICTIONARY
  5
9A0
330
2
100
AcDbDictionary
280
     1
281
     1
  3
ACAD_LAYERFILTERS
360
A2E
  3
ACAD_LAYERSTATES
360
9A1
  0
DICTIONARY
  5
D
102
{ACAD_REACTORS
330
C
102
}
330
C
100
AcDbDictionary
281
     1
  0
DICTIONARY
  5
1A
102
{ACAD_REACTORS
330
C
102
}
330
C
100
AcDbDictionary
281
     1
  3
Layout1
350
1E
  3
Layout2
350
26
  3
Model
350
22
  0
DICTIONARY
  5
17
102
{ACAD_REACTORS
330
C
102
}
330
C
100
AcDbDictionary
281
     1
  3
Standard
350
18
  0
DICTIONARY
  5
19
102
{ACAD_REACTORS
330
C
102
}
330
C
100
AcDbDictionary
281
     1
  0
ACDBDICTIONARYWDFLT
  5
E
102
{ACAD_REACTORS
330
C
102
}
330
C
100
AcDbDictionary
281
     1
  3
Normal
350
F
100
AcDbDictionaryWithDefault
340
F
  0
DICTIONARY
  5
115
102
{ACAD_REACTORS
330
C
102
}
330
C
100
AcDbDictionary
281
     1
  3
DIMASSOC
350
117
  3
HIDETEXT
350
116
  0
XRECORD
  5
8E3
102
{ACAD_REACTORS
330
C
102
}
330
C
100
AcDbXrecord
280
     1
  1
DWGPROPS COOKIE
  2
Ceco.NET-Trees-and-Plants - T - xx . 67 . dwg
  3

  4
ceco.net
  6

  7

  8
peacosta
  9

300
=
301
=
302
=
303
=
304
=
305
=
306
=
307
=
308
=
309
=
 40
0.0450312037037037
 41
2455079.811409143
 42
2455838.656599502
  1

 90
        0
  0
DICTIONARY
  5
A2E
102
{ACAD_REACTORS
330
9A0
102
}
330
9A0
100
AcDbDictionary
280
     1
281
     1
  0
DICTIONARY
  5
9A1
102
{ACAD_REACTORS
330
9A0
102
}
330
9A0
100
AcDbDictionary
281
     1
  0
LAYOUT
  5
1E
102
{ACAD_REACTORS
330
1A
102
}
330
1A
100
AcDbPlotSettings
  1

  2
Microsoft Office Document Image Writer
  4

  6

 40
0.0
 41
0.0
 42
0.0
 43
0.0
 44
0.0
 45
0.0
 46
0.0
 47
0.0
 48
0.0
 49
0.0
140
0.0
141
0.0
142
1.0
143
1.0
 70
   688
 72
     0
 73
     0
 74
     5
  7

 75
    16
147
1.0
148
0.0
149
0.0
100
AcDbLayout
  1
Layout1
 70
     1
 71
     1
 10
0.0
 20
0.0
 11
420.0
 21
297.0
 12
0.0
 22
0.0
 32
0.0
 14
1.000000000000000E+20
 24
1.000000000000000E+20
 34
1.000000000000000E+20
 15
-1.000000000000000E+20
 25
-1.000000000000000E+20
 35
-1.000000000000000E+20
146
0.0
 13
0.0
 23
0.0
 33
0.0
 16
1.0
 26
0.0
 36
0.0
 17
0.0
 27
1.0
 37
0.0
 76
     0
330
1B
  0
LAYOUT
  5
26
102
{ACAD_REACTORS
330
1A
102
}
330
1A
100
AcDbPlotSettings
  1

  2
Microsoft Office Document Image Writer
  4

  6

 40
0.0
 41
0.0
 42
0.0
 43
0.0
 44
0.0
 45
0.0
 46
0.0
 47
0.0
 48
0.0
 49
0.0
140
0.0
141
0.0
142
1.0
143
1.0
 70
   688
 72
     0
 73
     0
 74
     5
  7

 75
    16
147
1.0
148
0.0
149
0.0
100
AcDbLayout
  1
Layout2
 70
     1
 71
     2
 10
0.0
 20
0.0
 11
12.0
 21
9.0
 12
0.0
 22
0.0
 32
0.0
 14
0.0
 24
0.0
 34
0.0
 15
0.0
 25
0.0
 35
0.0
146
0.0
 13
0.0
 23
0.0
 33
0.0
 16
1.0
 26
0.0
 36
0.0
 17
0.0
 27
1.0
 37
0.0
 76
     0
330
23
  0
LAYOUT
  5
22
102
{ACAD_REACTORS
330
1A
102
}
330
1A
100
AcDbPlotSettings
  1

  2
Microsoft Office Document Image Writer
  4

  6

 40
0.0
 41
0.0
 42
0.0
 43
0.0
 44
0.0
 45
0.0
 46
0.0
 47
0.0
 48
0.0
 49
0.0
140
0.0
141
0.0
142
1.0
143
1.0
 70
  1712
 72
     0
 73
     0
 74
     0
  7

 75
     0
147
1.0
148
0.0
149
0.0
100
AcDbLayout
  1
Model
 70
     1
 71
     0
 10
0.0
 20
0.0
 11
12.0
 21
9.0
 12
0.0
 22
0.0
 32
0.0
 14
0.0
 24
0.0
 34
0.0
 15
0.0
 25
0.0
 35
0.0
146
0.0
 13
0.0
 23
0.0
 33
0.0
 16
1.0
 26
0.0
 36
0.0
 17
0.0
 27
1.0
 37
0.0
 76
     0
330
1F
  0
MLINESTYLE
  5
18
102
{ACAD_REACTORS
330
17
102
}
330
17
100
AcDbMlineStyle
  2
STANDARD
 70
     0
  3

 62
   256
 51
90.0
 52
90.0
 71
     2
 49
0.5
 62
   256
  6
BYLAYER
 49
-0.5
 62
   256
  6
BYLAYER
  0
ACDBPLACEHOLDER
  5
F
102
{ACAD_REACTORS
330
E
102
}
330
E
  0
DICTIONARYVAR
  5
117
102
{ACAD_REACTORS
330
115
102
}
330
115
100
DictionaryVariables
280
     0
  1
2
  0
DICTIONARYVAR
  5
116
102
{ACAD_REACTORS
330
115
102
}
330
115
100
DictionaryVariables
280
     0
  1
1
  0
ENDSEC
  0
EOF
