  0
SECTION
  2
HEADER
  9
$ACADVER
  1
AC1015
  9
$ACADMAINTVER
 70
    13
  9
$DWGCODEPAGE
  3
ANSI_1252
  9
$INSBASE
 10
0.0
 20
0.0
 30
0.0
  9
$EXTMIN
 10
-259.2392910970084
 20
-229.2926753873325
 30
-0.0015258207003583
  9
$EXTMAX
 10
250.3941083742829
 20
260.9195133955799
 30
0.0000000349246037
  9
$LIMMIN
 10
0.0
 20
0.0
  9
$LIMMAX
 10
420.0
 20
297.0
  9
$ORTHOMODE
 70
     0
  9
$REGENMODE
 70
     1
  9
$FILLMODE
 70
     1
  9
$QTEXTMODE
 70
     0
  9
$MIRRTEXT
 70
     1
  9
$LTSCALE
 40
1.0
  9
$ATTMODE
 70
     1
  9
$TEXTSIZE
 40
2.5
  9
$TRACEWID
 40
1.0
  9
$TEXTSTYLE
  7
Standard
  9
$CLAYER
  8
ceco.net 226
  9
$CELTYPE
  6
ByLayer
  9
$CECOLOR
 62
   256
  9
$CELTSCALE
 40
1.0
  9
$DISPSILH
 70
     0
  9
$DIMSCALE
 40
1.0
  9
$DIMASZ
 40
2.5
  9
$DIMEXO
 40
0.625
  9
$DIMDLI
 40
3.75
  9
$DIMRND
 40
0.0
  9
$DIMDLE
 40
0.0
  9
$DIMEXE
 40
1.25
  9
$DIMTP
 40
0.0
  9
$DIMTM
 40
0.0
  9
$DIMTXT
 40
2.5
  9
$DIMCEN
 40
2.5
  9
$DIMTSZ
 40
0.0
  9
$DIMTOL
 70
     0
  9
$DIMLIM
 70
     0
  9
$DIMTIH
 70
     0
  9
$DIMTOH
 70
     0
  9
$DIMSE1
 70
     0
  9
$DIMSE2
 70
     0
  9
$DIMTAD
 70
     1
  9
$DIMZIN
 70
     8
  9
$DIMBLK
  1

  9
$DIMASO
 70
     1
  9
$DIMSHO
 70
     1
  9
$DIMPOST
  1

  9
$DIMAPOST
  1

  9
$DIMALT
 70
     0
  9
$DIMALTD
 70
     3
  9
$DIMALTF
 40
0.03937007874016
  9
$DIMLFAC
 40
1.0
  9
$DIMTOFL
 70
     1
  9
$DIMTVP
 40
0.0
  9
$DIMTIX
 70
     0
  9
$DIMSOXD
 70
     0
  9
$DIMSAH
 70
     0
  9
$DIMBLK1
  1

  9
$DIMBLK2
  1

  9
$DIMSTYLE
  2
ISO-25
  9
$DIMCLRD
 70
     0
  9
$DIMCLRE
 70
     0
  9
$DIMCLRT
 70
     0
  9
$DIMTFAC
 40
1.0
  9
$DIMGAP
 40
0.625
  9
$DIMJUST
 70
     0
  9
$DIMSD1
 70
     0
  9
$DIMSD2
 70
     0
  9
$DIMTOLJ
 70
     0
  9
$DIMTZIN
 70
     8
  9
$DIMALTZ
 70
     0
  9
$DIMALTTZ
 70
     0
  9
$DIMUPT
 70
     0
  9
$DIMDEC
 70
     2
  9
$DIMTDEC
 70
     2
  9
$DIMALTU
 70
     2
  9
$DIMALTTD
 70
     3
  9
$DIMTXSTY
  7
Standard
  9
$DIMAUNIT
 70
     0
  9
$DIMADEC
 70
     0
  9
$DIMALTRND
 40
0.0
  9
$DIMAZIN
 70
     0
  9
$DIMDSEP
 70
    44
  9
$DIMATFIT
 70
     3
  9
$DIMFRAC
 70
     0
  9
$DIMLDRBLK
  1

  9
$DIMLUNIT
 70
     2
  9
$DIMLWD
 70
    -2
  9
$DIMLWE
 70
    -2
  9
$DIMTMOVE
 70
     0
  9
$LUNITS
 70
     2
  9
$LUPREC
 70
     2
  9
$SKETCHINC
 40
1.0
  9
$FILLETRAD
 40
10.0
  9
$AUNITS
 70
     0
  9
$AUPREC
 70
     0
  9
$MENU
  1
.
  9
$ELEVATION
 40
0.0
  9
$PELEVATION
 40
0.0
  9
$THICKNESS
 40
0.0
  9
$LIMCHECK
 70
     0
  9
$CHAMFERA
 40
10.0
  9
$CHAMFERB
 40
10.0
  9
$CHAMFERC
 40
20.0
  9
$CHAMFERD
 40
0.0
  9
$SKPOLY
 70
     0
  9
$TDCREATE
 40
2455079.811409143
  9
$TDUCREATE
 40
2455079.936409144
  9
$TDUPDATE
 40
2456959.914877442
  9
$TDUUPDATE
 40
2456960.039877442
  9
$TDINDWG
 40
0.0482975000
  9
$TDUSRTIMER
 40
0.0482975000
  9
$USRTIMER
 70
     1
  9
$ANGBASE
 50
0.0
  9
$ANGDIR
 70
     0
  9
$PDMODE
 70
     0
  9
$PDSIZE
 40
0.0
  9
$PLINEWID
 40
0.0
  9
$SPLFRAME
 70
     0
  9
$SPLINETYPE
 70
     6
  9
$SPLINESEGS
 70
     8
  9
$HANDSEED
  5
7BA4
  9
$SURFTAB1
 70
     6
  9
$SURFTAB2
 70
     6
  9
$SURFTYPE
 70
     6
  9
$SURFU
 70
     6
  9
$SURFV
 70
     6
  9
$UCSBASE
  2

  9
$UCSNAME
  2

  9
$UCSORG
 10
0.0
 20
0.0
 30
0.0
  9
$UCSXDIR
 10
1.0
 20
0.0
 30
0.0
  9
$UCSYDIR
 10
0.0
 20
1.0
 30
0.0
  9
$UCSORTHOREF
  2

  9
$UCSORTHOVIEW
 70
     0
  9
$UCSORGTOP
 10
0.0
 20
0.0
 30
0.0
  9
$UCSORGBOTTOM
 10
0.0
 20
0.0
 30
0.0
  9
$UCSORGLEFT
 10
0.0
 20
0.0
 30
0.0
  9
$UCSORGRIGHT
 10
0.0
 20
0.0
 30
0.0
  9
$UCSORGFRONT
 10
0.0
 20
0.0
 30
0.0
  9
$UCSORGBACK
 10
0.0
 20
0.0
 30
0.0
  9
$PUCSBASE
  2

  9
$PUCSNAME
  2

  9
$PUCSORG
 10
0.0
 20
0.0
 30
0.0
  9
$PUCSXDIR
 10
1.0
 20
0.0
 30
0.0
  9
$PUCSYDIR
 10
0.0
 20
1.0
 30
0.0
  9
$PUCSORTHOREF
  2

  9
$PUCSORTHOVIEW
 70
     0
  9
$PUCSORGTOP
 10
0.0
 20
0.0
 30
0.0
  9
$PUCSORGBOTTOM
 10
0.0
 20
0.0
 30
0.0
  9
$PUCSORGLEFT
 10
0.0
 20
0.0
 30
0.0
  9
$PUCSORGRIGHT
 10
0.0
 20
0.0
 30
0.0
  9
$PUCSORGFRONT
 10
0.0
 20
0.0
 30
0.0
  9
$PUCSORGBACK
 10
0.0
 20
0.0
 30
0.0
  9
$USERI1
 70
     0
  9
$USERI2
 70
     0
  9
$USERI3
 70
     0
  9
$USERI4
 70
     0
  9
$USERI5
 70
     0
  9
$USERR1
 40
0.0
  9
$USERR2
 40
0.0
  9
$USERR3
 40
0.0
  9
$USERR4
 40
0.0
  9
$USERR5
 40
0.0
  9
$WORLDVIEW
 70
     1
  9
$SHADEDGE
 70
     3
  9
$SHADEDIF
 70
    70
  9
$TILEMODE
 70
     1
  9
$MAXACTVP
 70
    64
  9
$PINSBASE
 10
0.0
 20
0.0
 30
0.0
  9
$PLIMCHECK
 70
     0
  9
$PEXTMIN
 10
1.000000000000000E+20
 20
1.000000000000000E+20
 30
1.000000000000000E+20
  9
$PEXTMAX
 10
-1.000000000000000E+20
 20
-1.000000000000000E+20
 30
-1.000000000000000E+20
  9
$PLIMMIN
 10
0.0
 20
0.0
  9
$PLIMMAX
 10
420.0
 20
297.0
  9
$UNITMODE
 70
     0
  9
$VISRETAIN
 70
     1
  9
$PLINEGEN
 70
     0
  9
$PSLTSCALE
 70
     1
  9
$TREEDEPTH
 70
  3020
  9
$CMLSTYLE
  2
Standard
  9
$CMLJUST
 70
     0
  9
$CMLSCALE
 40
20.0
  9
$PROXYGRAPHICS
 70
     1
  9
$MEASUREMENT
 70
     1
  9
$CELWEIGHT
370
    -1
  9
$ENDCAPS
280
     0
  9
$JOINSTYLE
280
     0
  9
$LWDISPLAY
290
     0
  9
$INSUNITS
 70
     4
  9
$HYPERLINKBASE
  1

  9
$STYLESHEET
  1

  9
$XEDIT
290
     1
  9
$CEPSNTYPE
380
     0
  9
$PSTYLEMODE
290
     1
  9
$FINGERPRINTGUID
  2
{81085373-3A21-4932-80AA-8F6C3258C50C}
  9
$VERSIONGUID
  2
{C965439C-90D8-44C4-A7CA-45C3DB3C129D}
  9
$EXTNAMES
290
     1
  9
$PSVPSCALE
 40
0.0
  9
$OLESTARTUP
290
     0
  0
ENDSEC
  0
SECTION
  2
CLASSES
  0
CLASS
  1
ACDBDICTIONARYWDFLT
  2
AcDbDictionaryWithDefault
  3
AutoCAD 2000
 90
        0
280
     0
281
     0
  0
CLASS
  1
ACDBPLACEHOLDER
  2
AcDbPlaceHolder
  3
AutoCAD 2000
 90
        0
280
     0
281
     0
  0
CLASS
  1
LAYOUT
  2
AcDbLayout
  3
AutoCAD 2000
 90
        0
280
     0
281
     0
  0
CLASS
  1
DICTIONARYVAR
  2
AcDbDictionaryVar
  3
AutoCAD 2000
 90
        0
280
     0
281
     0
  0
ENDSEC
  0
SECTION
  2
TABLES
  0
TABLE
  2
VPORT
  5
8
330
0
100
AcDbSymbolTable
 70
     3
  0
VPORT
  5
7BA3
330
8
100
AcDbSymbolTableRecord
100
AcDbViewportTableRecord
  2
*Active
 70
     0
 10
0.0
 20
0.0
 11
1.0
 21
1.0
 12
-4.422591361362663
 22
15.81341900412374
 13
0.0
 23
0.0
 14
10.0
 24
10.0
 15
10.0
 25
10.0
 16
0.0
 26
0.0
 36
1.0
 17
0.0
 27
0.0
 37
0.0
 40
493.6929853896551
 41
2.184834123222748
 42
50.0
 43
0.0
 44
0.0
 50
0.0
 51
0.0
 71
     0
 72
   100
 73
     1
 74
     3
 75
     0
 76
     0
 77
     0
 78
     0
281
     0
 65
     1
110
0.0
120
0.0
130
0.0
111
1.0
121
0.0
131
0.0
112
0.0
122
1.0
132
0.0
 79
     0
146
0.0
  0
ENDTAB
  0
TABLE
  2
LTYPE
  5
5
330
0
100
AcDbSymbolTable
 70
     1
  0
LTYPE
  5
14
330
5
100
AcDbSymbolTableRecord
100
AcDbLinetypeTableRecord
  2
ByBlock
 70
     0
  3

 72
    65
 73
     0
 40
0.0
  0
LTYPE
  5
15
330
5
100
AcDbSymbolTableRecord
100
AcDbLinetypeTableRecord
  2
ByLayer
 70
     0
  3

 72
    65
 73
     0
 40
0.0
  0
LTYPE
  5
16
330
5
100
AcDbSymbolTableRecord
100
AcDbLinetypeTableRecord
  2
Continuous
 70
     0
  3
Solid line
 72
    65
 73
     0
 40
0.0
  0
ENDTAB
  0
TABLE
  2
LAYER
  5
2
102
{ACAD_XDICTIONARY
360
90B
102
}
330
0
100
AcDbSymbolTable
 70
     2
  0
LAYER
  5
10
330
2
100
AcDbSymbolTableRecord
100
AcDbLayerTableRecord
  2
0
 70
     0
 62
     7
  6
Continuous
370
    -3
390
F
  0
LAYER
  5
7A71
102
{ACAD_XDICTIONARY
360
7A72
102
}
330
2
100
AcDbSymbolTableRecord
100
AcDbLayerTableRecord
  2
ceco.net 226
 70
     0
 62
   102
  6
Continuous
370
    -3
390
F
1001
AcAecLayerStandard
1000

1000

  0
ENDTAB
  0
TABLE
  2
STYLE
  5
3
330
0
100
AcDbSymbolTable
 70
     1
  0
STYLE
  5
11
330
3
100
AcDbSymbolTableRecord
100
AcDbTextStyleTableRecord
  2
Standard
 70
     0
 40
0.0
 41
1.0
 50
0.0
 71
     0
 42
2.5
  3
txt
  4

  0
ENDTAB
  0
TABLE
  2
VIEW
  5
6
330
0
100
AcDbSymbolTable
 70
     0
  0
ENDTAB
  0
TABLE
  2
UCS
  5
7
330
0
100
AcDbSymbolTable
 70
     0
  0
ENDTAB
  0
TABLE
  2
APPID
  5
9
330
0
100
AcDbSymbolTable
 70
    23
  0
APPID
  5
12
330
9
100
AcDbSymbolTableRecord
100
AcDbRegAppTableRecord
  2
ACAD
 70
     0
  0
APPID
  5
2C
330
9
100
AcDbSymbolTableRecord
100
AcDbRegAppTableRecord
  2
ACAD_DSTYLE_DIMJOGGED_JOGANGLE_SYMBOL
 70
     0
  0
APPID
  5
11B
330
9
100
AcDbSymbolTableRecord
100
AcDbRegAppTableRecord
  2
ACAD_NAV_VCDISPLAY
 70
     0
  0
APPID
  5
11C
330
9
100
AcDbSymbolTableRecord
100
AcDbRegAppTableRecord
  2
ACAD_MLEADERVER
 70
     0
  0
APPID
  5
8F8
330
9
100
AcDbSymbolTableRecord
100
AcDbRegAppTableRecord
  2
RAK
 70
     0
  0
APPID
  5
8F9
330
9
100
AcDbSymbolTableRecord
100
AcDbRegAppTableRecord
  2
AcAecLayerStandard
 70
     0
  0
APPID
  5
8FA
330
9
100
AcDbSymbolTableRecord
100
AcDbRegAppTableRecord
  2
ACAD_PSEXT
 70
     0
  0
APPID
  5
8FB
330
9
100
AcDbSymbolTableRecord
100
AcDbRegAppTableRecord
  2
AcDbBlockRepETag
 70
     0
  0
APPID
  5
8FC
330
9
100
AcDbSymbolTableRecord
100
AcDbRegAppTableRecord
  2
AcadAnnoPO
 70
     0
  0
APPID
  5
8FD
330
9
100
AcDbSymbolTableRecord
100
AcDbRegAppTableRecord
  2
ACAUTHENVIRON
 70
     0
  0
APPID
  5
8FE
330
9
100
AcDbSymbolTableRecord
100
AcDbRegAppTableRecord
  2
AcDbDynamicBlockTrueName
 70
     0
  0
APPID
  5
8FF
330
9
100
AcDbSymbolTableRecord
100
AcDbRegAppTableRecord
  2
AcDbDynamicBlockGUID
 70
     0
  0
APPID
  5
900
330
9
100
AcDbSymbolTableRecord
100
AcDbRegAppTableRecord
  2
AcLayerTools
 70
     0
  0
APPID
  5
901
330
9
100
AcDbSymbolTableRecord
100
AcDbRegAppTableRecord
  2
ACAD_EXEMPT_FROM_CAD_STANDARDS
 70
     0
  0
APPID
  5
902
330
9
100
AcDbSymbolTableRecord
100
AcDbRegAppTableRecord
  2
AcadAnnotative
 70
     0
  0
APPID
  5
903
330
9
100
AcDbSymbolTableRecord
100
AcDbRegAppTableRecord
  2
ACAD_DSTYLE_DIMJAG
 70
     0
  0
APPID
  5
904
330
9
100
AcDbSymbolTableRecord
100
AcDbRegAppTableRecord
  2
ACAD_DSTYLE_DIMTALN
 70
     0
  0
APPID
  5
905
330
9
100
AcDbSymbolTableRecord
100
AcDbRegAppTableRecord
  2
ACAD_DSTYLE_DIMBREAK
 70
     0
  0
APPID
  5
906
330
9
100
AcDbSymbolTableRecord
100
AcDbRegAppTableRecord
  2
AcadAnnoAV
 70
     0
  0
APPID
  5
907
330
9
100
AcDbSymbolTableRecord
100
AcDbRegAppTableRecord
  2
AcCmTransparency
 70
     0
  0
APPID
  5
908
330
9
100
AcDbSymbolTableRecord
100
AcDbRegAppTableRecord
  2
GradientColor1ACI
 70
     0
  0
APPID
  5
909
330
9
100
AcDbSymbolTableRecord
100
AcDbRegAppTableRecord
  2
GradientColor2ACI
 70
     0
  0
APPID
  5
90A
330
9
100
AcDbSymbolTableRecord
100
AcDbRegAppTableRecord
  2
ADE
 70
     0
  0
ENDTAB
  0
TABLE
  2
DIMSTYLE
  5
A
330
0
100
AcDbSymbolTable
 70
     2
100
AcDbDimStyleTable
 71
     0
  0
DIMSTYLE
105
27
330
A
100
AcDbSymbolTableRecord
100
AcDbDimStyleTableRecord
  2
ISO-25
 70
     0
 41
2.5
 42
0.625
 43
3.75
 44
1.25
 73
     0
 74
     0
 77
     1
 78
     8
140
2.5
141
2.5
143
0.03937007874016
147
0.625
171
     3
172
     1
271
     2
272
     2
274
     3
278
    44
283
     0
284
     8
340
11
  0
DIMSTYLE
105
2B
330
A
100
AcDbSymbolTableRecord
100
AcDbDimStyleTableRecord
  2
Standard
 70
     0
340
11
  0
ENDTAB
  0
TABLE
  2
BLOCK_RECORD
  5
1
330
0
100
AcDbSymbolTable
 70
     2
  0
BLOCK_RECORD
  5
1F
330
1
100
AcDbSymbolTableRecord
100
AcDbBlockTableRecord
  2
*Model_Space
340
22
  0
BLOCK_RECORD
  5
1B
330
1
100
AcDbSymbolTableRecord
100
AcDbBlockTableRecord
  2
*Paper_Space
340
1E
  0
BLOCK_RECORD
  5
23
330
1
100
AcDbSymbolTableRecord
100
AcDbBlockTableRecord
  2
*Paper_Space0
340
26
  0
ENDTAB
  0
ENDSEC
  0
SECTION
  2
BLOCKS
  0
BLOCK
  5
20
330
1F
100
AcDbEntity
  8
0
100
AcDbBlockBegin
  2
*Model_Space
 70
     0
 10
0.0
 20
0.0
 30
0.0
  3
*Model_Space
  1

  0
ENDBLK
  5
21
330
1F
100
AcDbEntity
  8
0
100
AcDbBlockEnd
  0
BLOCK
  5
1C
330
1B
100
AcDbEntity
 67
     1
  8
0
100
AcDbBlockBegin
  2
*Paper_Space
 70
     0
 10
0.0
 20
0.0
 30
0.0
  3
*Paper_Space
  1

  0
ENDBLK
  5
1D
330
1B
100
AcDbEntity
 67
     1
  8
0
100
AcDbBlockEnd
  0
BLOCK
  5
24
330
23
100
AcDbEntity
  8
0
100
AcDbBlockBegin
  2
*Paper_Space0
 70
     0
 10
0.0
 20
0.0
 30
0.0
  3
*Paper_Space0
  1

  0
ENDBLK
  5
25
330
23
100
AcDbEntity
  8
0
100
AcDbBlockEnd
  0
ENDSEC
  0
SECTION
  2
ENTITIES
  0
ARC
  5
7B0D
330
1F
100
AcDbEntity
  8
ceco.net 226
100
AcDbCircle
 10
133.4322585289013
 20
204.5373684488285
 30
0.0
 40
95.25082135226988
100
AcDbArc
 50
297.3825930693466
 51
316.8448408468872
  0
ARC
  5
7B0E
330
1F
100
AcDbEntity
  8
ceco.net 226
100
AcDbCircle
 10
180.6640962510686
 20
87.36144782006821
 30
0.0
 40
32.77670433417382
100
AcDbArc
 50
62.56489710511261
 51
95.9947714365647
  0
ARC
  5
7B0F
330
1F
100
AcDbEntity
  8
ceco.net 226
100
AcDbCircle
 10
157.5125594495715
 20
134.2101633729558
 30
0.0
 40
24.33738867436156
100
AcDbArc
 50
324.1567079778826
 51
6.563029882098024
  0
ARC
  5
7B10
330
1F
100
AcDbEntity
  8
ceco.net 226
100
AcDbCircle
 10
124.5022597743406
 20
124.8867150060959
 30
0.0
 40
44.95653517327126
100
AcDbArc
 50
345.6468491810969
 51
7.284081011399144
  0
ARC
  5
7B11
330
1F
100
AcDbEntity
  8
ceco.net 226
100
AcDbCircle
 10
160.5865052276592
 20
35.12191233671579
 30
0.0
 40
77.07948877401182
100
AcDbArc
 50
70.97362981601468
 51
86.31282582478647
  0
ARC
  5
7B12
330
1F
100
AcDbEntity
  8
ceco.net 226
100
AcDbCircle
 10
131.2569442325273
 20
114.4531246901887
 30
0.0
 40
21.44888607451425
100
AcDbArc
 50
312.5671316327901
 51
18.32812530844606
  0
ARC
  5
7B13
330
1F
100
AcDbEntity
  8
ceco.net 226
100
AcDbCircle
 10
147.7098943000314
 20
39.95639178444284
 30
0.0
 40
58.73211838242663
100
AcDbArc
 50
67.93107200585211
 51
91.89658397635991
  0
ARC
  5
7B14
330
1F
100
AcDbEntity
  8
ceco.net 226
100
AcDbCircle
 10
16.57682688471465
 20
118.0117316348512
 30
0.0
 40
115.8254272582632
100
AcDbArc
 50
344.3111115831827
 51
357.783110062313
  0
ARC
  5
7B15
330
1F
100
AcDbEntity
  8
ceco.net 226
100
AcDbCircle
 10
91.08602580636828
 20
-38.66405604250728
 30
0.0
 40
129.2335569646773
100
AcDbArc
 50
58.63081548662579
 51
74.09296812115676
  0
ARC
  5
7B16
330
1F
100
AcDbEntity
  8
ceco.net 226
100
AcDbCircle
 10
85.17820595755257
 20
91.0921075027389
 30
0.0
 40
28.2017582185575
100
AcDbArc
 50
314.9642517717144
 51
34.70596211125796
  0
ARC
  5
7B17
330
1F
100
AcDbEntity
  8
ceco.net 226
100
AcDbCircle
 10
94.99184467416524
 20
-10.48091000942818
 30
0.0
 40
82.24338054473475
100
AcDbArc
 50
53.50145918714989
 51
82.93498400461631
  0
ARC
  5
7B18
330
1F
100
AcDbEntity
  8
ceco.net 226
100
AcDbCircle
 10
77.36486072179385
 20
-27.42344405368911
 30
0.0
 40
88.12466118477695
100
AcDbArc
 50
54.72567696545104
 51
82.66191503419033
  0
ARC
  5
7B19
330
1F
100
AcDbEntity
  8
ceco.net 226
100
AcDbCircle
 10
7.341271859763288
 20
88.20232149908703
 30
0.0
 40
84.92675663465044
100
AcDbArc
 50
339.8339699929723
 51
7.440740054048541
  0
ARC
  5
7B1A
330
1F
100
AcDbEntity
  8
ceco.net 226
100
AcDbCircle
 10
-40.81122570058997
 20
81.24808318211734
 30
0.0
 40
113.4324808125816
100
AcDbArc
 50
341.4505489409758
 51
4.303364114322462
  0
ARC
  5
7B1B
330
1F
100
AcDbEntity
  8
ceco.net 226
100
AcDbCircle
 10
51.8712073943166
 20
-51.85843368472328
 30
0.0
 40
98.1520062626577
100
AcDbArc
 50
54.77205668257863
 51
81.29373194575848
  0
LINE
  5
7B1C
330
1F
100
AcDbEntity
  8
ceco.net 226
100
AcDbLine
 10
-0.000000011700049
 20
0.0000000169347195
 30
0.0
 11
177.2409724043281
 21
119.9589104535267
 31
0.0
  0
ARC
  5
7B1D
330
1F
100
AcDbEntity
  8
ceco.net 226
100
AcDbCircle
 10
-152.6817893726424
 20
75.28914149032653
 30
0.0
 40
203.0584351006093
100
AcDbArc
 50
347.3292347609852
 51
359.7940163167431
  0
ARC
  5
7B1E
330
1F
100
AcDbEntity
  8
ceco.net 226
100
AcDbCircle
 10
-652.6030202219885
 20
-2131.671195820391
 30
0.0
 40
2272.292128629402
100
AcDbArc
 50
71.09177824157967
 51
71.21255075341223
  0
ARC
  5
7B1F
330
1F
100
AcDbEntity
  8
ceco.net 226
100
AcDbCircle
 10
-161.404690273591
 20
65.96553082709085
 30
0.0
 40
193.1450714470755
100
AcDbArc
 50
345.3931357997699
 51
353.6623609011239
  0
ARC
  5
7B20
330
1F
100
AcDbEntity
  8
ceco.net 226
100
AcDbCircle
 10
9.121695517818373
 20
-162.0923417223361
 30
0.0
 40
180.0956058850157
100
AcDbArc
 50
79.02338290989149
 51
84.78290646901843
  0
LWPOLYLINE
  5
7B21
330
1F
100
AcDbEntity
  8
ceco.net 226
100
AcDbPolyline
 90
       36
 70
     0
 43
0.0
 10
108.5866100141481
 20
12.82194767520314
 10
116.2534496591392
 20
22.50381239843344
 10
125.4821508973569
 20
22.11298527243394
 10
133.6739263614248
 20
37.17043789194885
 10
146.0366333203267
 20
36.02461996817206
 10
151.1383200355425
 20
50.29960473838357
 10
156.5306742168808
 20
51.51630407779451
 10
163.4134211089577
 20
62.04580292600742
 10
169.0259634344627
 20
66.26518496653743
 10
176.1801930351445
 20
78.114885530302
 10
183.5767008943412
 20
82.4052293248633
 10
187.7440383966281
 20
93.22549253665858
 10
196.1261900331743
 20
99.288076904065
 10
199.2639667862811
 20
109.8735581900989
 10
207.1611929509566
 20
116.194535226285
 10
207.1751154818298
 20
123.646197049754
 10
211.0021270206494
 20
128.2319214050136
 10
214.2753234412119
 20
145.0253021795865
 10
198.8330745221247
 20
146.2117333506205
 10
192.107492695124
 20
145.0551050245222
 10
185.7436605535117
 20
147.8390042505891
 10
174.6693495882371
 20
141.7746736218201
 10
167.4072261366288
 20
141.7204330957197
 10
157.4068743686703
 20
132.344407630795
 10
150.5310780195619
 20
133.4442845074085
 10
141.0136563437683
 20
124.7860923235248
 10
131.1127195602824
 20
124.4961649273206
 10
121.836998847566
 20
117.7617595533102
 10
111.2617989223028
 20
118.4012045155061
 10
99.20956313998321
 20
113.0983594917942
 10
91.46507820558001
 20
114.4402107941282
 10
81.27974918032467
 20
105.4950436724214
 10
70.91059578260227
 20
100.5285760983899
 10
59.62707101566696
 20
88.24248290969192
 10
50.35611335962459
 20
86.61694140265154
 10
41.08598872251066
 20
74.66044164813665
  0
ARC
  5
7B22
330
1F
100
AcDbEntity
  8
ceco.net 226
100
AcDbCircle
 10
-99.29616393563691
 20
223.1142634207336
 30
0.0
 40
95.25082135223977
100
AcDbArc
 50
354.4927414086651
 51
13.95498918621309
  0
ARC
  5
7B23
330
1F
100
AcDbEntity
  8
ceco.net 226
100
AcDbCircle
 10
24.74644138505908
 20
199.1460566659789
 30
0.0
 40
32.77670433408622
100
AcDbArc
 50
119.6750454444158
 51
153.1049197759541
  0
ARC
  5
7B24
330
1F
100
AcDbEntity
  8
ceco.net 226
100
AcDbCircle
 10
-27.16505751776327
 20
205.1453972032344
 30
0.0
 40
24.33738867436564
100
AcDbArc
 50
21.26685631720222
 51
63.67317822142048
  0
ARC
  5
7B25
330
1F
100
AcDbEntity
  8
ceco.net 226
100
AcDbCircle
 10
-35.72278472704857
 20
174.9157306163102
 30
0.0
 40
41.99072087176158
100
AcDbArc
 50
41.44927966612202
 51
64.78232992087978
  0
ARC
  5
7B26
330
1F
100
AcDbEntity
  8
ceco.net 226
100
AcDbCircle
 10
56.36167050553897
 20
155.4228897118692
 30
0.0
 40
75.06424336225714
100
AcDbArc
 50
127.9815716487293
 51
143.7683894317816
  0
ARC
  5
7B27
330
1F
100
AcDbEntity
  8
ceco.net 226
100
AcDbCircle
 10
-24.83222937183711
 20
172.3695551731904
 30
0.0
 40
21.44888607450066
100
AcDbArc
 50
9.677279972093073
 51
75.43827364777894
  0
ARC
  5
7B28
330
1F
100
AcDbEntity
  8
ceco.net 226
100
AcDbCircle
 10
46.65824878815687
 20
145.7317190747536
 30
0.0
 40
58.73211838242094
100
AcDbArc
 50
125.0412203451752
 51
149.0067323156829
  0
ARC
  5
7B29
330
1F
100
AcDbEntity
  8
ceco.net 226
100
AcDbCircle
 10
-117.5476813331729
 20
43.48612526064134
 30
0.0
 40
159.8727767484142
100
AcDbArc
 50
44.36499715840642
 51
53.95857133544651
  0
ARC
  5
7B2A
330
1F
100
AcDbEntity
  8
ceco.net 226
100
AcDbCircle
 10
81.90591408669467
 20
55.53125294067051
 30
0.0
 40
129.1871618072797
100
AcDbArc
 50
115.7395751249969
 51
131.207578220226
  0
ARC
  5
7B2B
330
1F
100
AcDbEntity
  8
ceco.net 226
100
AcDbCircle
 10
-30.23754839434286
 20
120.9908653172603
 30
0.0
 40
28.20175821855191
100
AcDbArc
 50
12.0744001110287
 51
91.81611045058602
  0
ARC
  5
7B2C
330
1F
100
AcDbEntity
  8
ceco.net 226
100
AcDbCircle
 10
60.38400391185179
 20
74.0747737387568
 30
0.0
 40
82.24338054473319
100
AcDbArc
 50
110.6116075264738
 51
140.0451323439442
  0
ARC
  5
7B2D
330
1F
100
AcDbEntity
  8
ceco.net 226
100
AcDbCircle
 10
56.80682422987525
 20
64.79633328154713
 30
0.0
 40
71.42843961827122
100
AcDbArc
 50
110.0987630099932
 51
145.7024743259115
  0
ARC
  5
7B2E
330
1F
100
AcDbEntity
  8
ceco.net 226
100
AcDbCircle
 10
-69.77843104570322
 20
54.54116219795283
 30
0.0
 40
84.36404967472238
100
AcDbArc
 50
36.77316257485957
 51
64.59463556995128
  0
ARC
  5
7B2F
330
1F
100
AcDbEntity
  8
ceco.net 226
100
AcDbCircle
 10
-90.35794159720323
 20
9.884412448583216
 30
0.0
 40
113.3883869032679
100
AcDbArc
 50
38.55619393997657
 51
61.41801579395838
  0
ARC
  5
7B30
330
1F
100
AcDbEntity
  8
ceco.net 226
100
AcDbCircle
 10
71.71375966426018
 20
15.3966222723778
 30
0.0
 40
98.15200626265973
100
AcDbArc
 50
111.882205021903
 51
138.4038802850898
  0
LINE
  5
7B31
330
1F
100
AcDbEntity
  8
ceco.net 226
100
AcDbLine
 10
-0.0000000117425871
 20
0.0000000167901355
 30
0.0
 11
-4.485015799483463
 21
213.9728654214853
 31
0.0
  0
ARC
  5
7B32
330
1F
100
AcDbEntity
  8
ceco.net 226
100
AcDbCircle
 10
-146.1316407771865
 20
-87.32540976520169
 30
0.0
 40
203.05843510103
100
AcDbArc
 50
44.43938310032877
 51
56.90416465606083
  0
ARC
  5
7B33
330
1F
100
AcDbEntity
  8
ceco.net 226
100
AcDbCircle
 10
1435.618307592189
 20
-1705.55353594668
 30
0.0
 40
2272.292128632755
100
AcDbArc
 50
128.0245429966561
 51
129.2199395242636
  0
ARC
  5
7B34
330
1F
100
AcDbEntity
  8
ceco.net 226
100
AcDbCircle
 10
-132.4378754236081
 20
-88.57844823663725
 30
0.0
 40
177.8094806116909
100
AcDbArc
 50
42.16612887717836
 51
57.41774387240414
  0
ARC
  5
7B35
330
1F
100
AcDbEntity
  8
ceco.net 226
100
AcDbCircle
 10
141.0648578046587
 20
-80.36067736396859
 30
0.0
 40
180.0956058850236
100
AcDbArc
 50
126.3649179858778
 51
141.8930548083407
  0
LWPOLYLINE
  5
7B36
330
1F
100
AcDbEntity
  8
ceco.net 226
100
AcDbPolyline
 90
       41
 70
     0
 43
0.0
 10
-0.0000000117496173
 20
0.0000000168089644
 10
46.79586236443682
 20
68.36356586927305
 10
38.81834595963525
 20
77.16120886018441
 10
50.09161760627848
 20
92.56299267225118
 10
44.23180127874807
 20
109.8400377383346
 10
49.57140728594301
 20
117.3772971921778
 10
41.37576732794954
 20
132.4326467504345
 10
49.05119696561309
 20
142.1916017120824
 10
39.83461013939809
 20
154.2272539505269
 10
41.7411152105298
 20
159.415999397481
 10
36.63683455973834
 20
170.9133412560535
 10
36.14150657215966
 20
177.9175161785041
 10
30.07605343410495
 20
190.3597299228592
 10
30.48987690173699
 20
198.9004634115177
 10
23.66689958914125
 20
208.2755249271719
 10
23.12777411461552
 20
218.6062915489041
 10
15.94286898191751
 20
226.9893217434982
 10
14.92344002717982
 20
237.0532025254887
 10
8.673720216699308
 20
241.1113375723551
 10
6.901179551837969
 20
246.8151069200894
 10
-5.423062113702357
 20
258.6829003129943
 10
-14.80486585704072
 20
246.3600585496521
 10
-17.48579043340983
 20
240.0844005433464
 10
-23.2791998924777
 20
236.2523173935248
 10
-24.20051982913841
 20
223.6599530839502
 10
-28.09849305034191
 20
217.5323773946724
 10
-25.65574217582553
 20
204.0434983765032
 10
-30.31306075917841
 20
198.8670432002951
 10
-28.2108425547173
 20
186.1734902749414
 10
-33.34384925230416
 20
177.70207661911
 10
-32.7258158860581
 20
166.2561496037965
 10
-39.00537371053681
 20
157.7232194594571
 10
-41.09716367289202
 20
144.7231822498411
 10
-46.42939231749488
 20
138.9486736561556
 10
-44.44888752263753
 20
125.5384334291693
 10
-45.90918199715996
 20
114.1343691362448
 10
-41.71959647063043
 20
97.98774750436514
 10
-45.38897167683647
 20
89.32006461634315
 10
-39.50855871002253
 20
72.54980411066537
 10
-44.86876135650009
 20
64.50576009643561
 10
-0.00000001168905
 20
0.0000000168047612
  0
ARC
  5
7B37
330
1F
100
AcDbEntity
  8
ceco.net 226
100
AcDbCircle
 10
-232.0198528208699
 20
76.20033208084163
 30
0.0
 40
95.25082135207831
100
AcDbArc
 50
42.32016856221092
 51
61.78241633978822
  0
ARC
  5
7B38
330
1F
100
AcDbEntity
  8
ceco.net 226
100
AcDbCircle
 10
-130.9784156203338
 20
152.0401029020566
 30
0.0
 40
32.77670433417792
100
AcDbArc
 50
167.5024725980051
 51
200.9323469294492
  0
ARC
  5
7B39
330
1F
100
AcDbEntity
  8
ceco.net 226
100
AcDbCircle
 10
-170.2762930829627
 20
117.5948908667378
 30
0.0
 40
24.33738867434572
100
AcDbArc
 50
69.09428347074376
 51
111.5006053749958
  0
ARC
  5
7B3A
330
1F
100
AcDbEntity
  8
ceco.net 226
100
AcDbCircle
 10
-151.3222987744615
 20
83.32847956758797
 30
0.0
 40
49.92238638900495
100
AcDbArc
 50
92.37461691728988
 51
111.6755015948595
  0
ARC
  5
7B3B
330
1F
100
AcDbEntity
  8
ceco.net 226
100
AcDbCircle
 10
-51.07560032579012
 20
145.9848488225309
 30
0.0
 40
101.2924683919768
100
AcDbArc
 50
176.8207375507775
 51
188.2765215883662
  0
ARC
  5
7B3C
330
1F
100
AcDbEntity
  8
ceco.net 226
100
AcDbCircle
 10
-144.419081159948
 20
97.31922812771493
 30
0.0
 40
21.44888607450647
100
AcDbArc
 50
57.5047071256565
 51
123.2657008013426
  0
ARC
  5
7B3D
330
1F
100
AcDbEntity
  8
ceco.net 226
100
AcDbCircle
 10
-76.68081789171137
 20
132.4189499066204
 30
0.0
 40
58.73211838242596
100
AcDbArc
 50
172.8686474987435
 51
196.8341594692544
  0
ARC
  5
7B3E
330
1F
100
AcDbEntity
  8
ceco.net 226
100
AcDbCircle
 10
-111.1462047890792
 20
-57.92254858340054
 30
0.0
 40
159.8727767484142
100
AcDbArc
 50
92.19242431197532
 51
101.7859984890139
  0
ARC
  5
7B3F
330
1F
100
AcDbEntity
  8
ceco.net 226
100
AcDbCircle
 10
13.83317850278401
 20
97.98439667153463
 30
0.0
 40
129.1871618072797
100
AcDbArc
 50
163.5670022785644
 51
179.0350053737942
  0
ARC
  5
7B40
330
1F
100
AcDbEntity
  8
ceco.net 226
100
AcDbCircle
 10
-109.9699420092701
 20
58.81930531191201
 30
0.0
 40
28.20175821854682
100
AcDbArc
 50
59.90182726458156
 51
139.6435376041571
  0
ARC
  5
7B41
330
1F
100
AcDbEntity
  8
ceco.net 226
100
AcDbCircle
 10
-14.35898446239725
 20
94.48343558810671
 30
0.0
 40
82.24338054473498
100
AcDbArc
 50
158.4390346800416
 51
187.8725594975107
  0
ARC
  5
7B42
330
1F
100
AcDbEntity
  8
ceco.net 226
100
AcDbCircle
 10
-9.884086876059711
 20
85.60306603572687
 30
0.0
 40
71.42843961827131
100
AcDbArc
 50
157.9261901635608
 51
193.5299014794786
  0
ARC
  5
7B43
330
1F
100
AcDbEntity
  8
ceco.net 226
100
AcDbCircle
 10
-87.26873535479947
 20
-15.0975375719969
 30
0.0
 40
84.36404967472322
100
AcDbArc
 50
84.60058972842324
 51
112.4220627235184
  0
ARC
  5
7B44
330
1F
100
AcDbEntity
  8
ceco.net 226
100
AcDbCircle
 10
-67.98271925776828
 20
-60.37513595943218
 30
0.0
 40
113.4324808125883
100
AcDbArc
 50
86.38812443386717
 51
109.2409396072137
  0
ARC
  5
7B45
330
1F
100
AcDbEntity
  8
ceco.net 226
100
AcDbCircle
 10
36.73533434255596
 20
63.48570323915328
 30
0.0
 40
98.15200626265845
100
AcDbArc
 50
159.7096321754704
 51
186.2313074386548
  0
LINE
  5
7B46
330
1F
100
AcDbEntity
  8
ceco.net 226
100
AcDbLine
 10
-0.0000000116778053
 20
0.0000000168465249
 30
0.0
 11
-161.5919533500699
 21
140.3301219165835
 31
0.0
  0
ARC
  5
7B47
330
1F
100
AcDbEntity
  8
ceco.net 226
100
AcDbCircle
 10
-90.67274742050811
 20
442.511105814025
 30
0.0
 40
409.5134472926485
100
AcDbArc
 50
273.8681550806078
 51
276.9077326174437
  0
ARC
  5
7B48
330
1F
100
AcDbEntity
  8
ceco.net 226
100
AcDbCircle
 10
2227.855340305225
 20
-81.07633354370637
 30
0.0
 40
2272.29212865005
100
AcDbArc
 50
176.4965689774226
 51
177.0473666778299
  0
ARC
  5
7B49
330
1F
100
AcDbEntity
  8
ceco.net 226
100
AcDbCircle
 10
-15.69351920360718
 20
-331.0717056782601
 30
0.0
 40
351.340669698241
100
AcDbArc
 50
91.23181303205084
 51
93.39743687107118
  0
ARC
  5
7B4A
330
1F
100
AcDbEntity
  8
ceco.net 226
100
AcDbCircle
 10
154.2635265205279
 20
50.59542433254089
 30
0.0
 40
180.0956058849673
100
AcDbArc
 50
184.545312585469
 51
189.7204819619084
  0
LWPOLYLINE
  5
7B4B
330
1F
100
AcDbEntity
  8
ceco.net 226
100
AcDbPolyline
 90
       34
 70
     0
 43
0.0
 10
-42.94915215199388
 20
102.726443071406
 10
-51.70959161270338
 20
106.524195712127
 10
-53.7108216574206
 20
115.5417758029706
 10
-70.37100670271813
 20
119.5754216599127
 10
-72.45060086701196
 20
131.8157121049084
 10
-87.55823844142314
 20
133.0653858424387
 10
-90.12379043074792
 20
137.9618931578236
 10
-102.0716100441491
 20
141.8979009398867
 10
-107.5951329257011
 20
146.2331646154529
 10
-120.8885201428849
 20
150.0911771768479
 10
-126.9404533416031
 20
156.1318297032626
 10
-138.4692700061436
 20
157.3692399610432
 10
-146.4876208262943
 20
163.9054043863612
 10
-157.524203220702
 20
164.2085645104859
 10
-165.6672173651263
 20
170.2095854595829
 10
-172.870655728848
 20
168.3022487016236
 10
-178.2878911806062
 20
170.817888827096
 10
-195.3574976582429
 20
169.6517038735655
 10
-192.5233415462487
 20
154.4254689569608
 10
-189.6721691772633
 20
148.2253031431604
 10
-190.7216100086885
 20
141.3589264881201
 10
-182.007623443075
 20
132.2220283566414
 10
-180.0832836892334
 20
125.2192934928291
 10
-168.4463443036714
 20
117.9737065091178
 10
-167.7367033259315
 20
111.0467508819446
 10
-156.9178228543526
 20
104.082741075112
 10
-154.0855630562746
 20
94.5911178460793
 10
-145.1877617399995
 20
87.36475346156357
 10
-143.0796657909781
 20
76.98209124087252
 10
-134.8493558698337
 20
66.70402958996326
 10
-134.1495935154202
 20
58.87536786115095
 10
-122.8812716396501
 20
51.33999366393367
 10
-115.4098143058238
 20
42.60143155920696
 10
-104.2676870918092
 20
36.76984723225153
  0
ARC
  5
7B4C
330
1F
100
AcDbEntity
  8
ceco.net 226
100
AcDbCircle
 10
-211.2910612406066
 20
-122.4572992715942
 30
0.0
 40
95.25082135212297
100
AcDbArc
 50
90.5966260555242
 51
110.058873833094
  0
ARC
  5
7B4D
330
1F
100
AcDbEntity
  8
ceco.net 226
100
AcDbCircle
 10
-200.6483712351735
 20
3.430650982705088
 30
0.0
 40
32.77670433420194
100
AcDbArc
 50
215.7789300913191
 51
249.2088044227456
  0
ARC
  5
7B4E
330
1F
100
AcDbEntity
  8
ceco.net 226
100
AcDbCircle
 10
-201.0938730590569
 20
-48.82446678917763
 30
0.0
 40
24.33738867435613
100
AcDbArc
 50
117.3707409640773
 51
159.7770628682998
  0
ARC
  5
7B4F
330
1F
100
AcDbEntity
  8
ceco.net 226
100
AcDbCircle
 10
-175.3279931081405
 20
-51.69582651567331
 30
0.0
 40
36.28634312141277
100
AcDbArc
 50
134.2927084369809
 51
161.8121601527589
  0
ARC
  5
7B50
330
1F
100
AcDbEntity
  8
ceco.net 226
100
AcDbCircle
 10
-66.25658373845304
 20
144.1813883970557
 30
0.0
 40
215.8167376605714
100
AcDbArc
 50
226.6321190794649
 51
231.8670445648022
  0
ARC
  5
7B51
330
1F
100
AcDbEntity
  8
ceco.net 226
100
AcDbCircle
 10
-168.7518989782591
 20
-43.01976003571559
 30
0.0
 40
21.44888607449531
100
AcDbArc
 50
105.7811646189371
 51
171.542158294658
  0
ARC
  5
7B52
330
1F
100
AcDbEntity
  8
ceco.net 226
100
AcDbCircle
 10
-149.8667686292953
 20
30.89786053783473
 30
0.0
 40
58.73211838242474
100
AcDbArc
 50
221.1451049920513
 51
245.110616962565
  0
ARC
  5
7B53
330
1F
100
AcDbEntity
  8
ceco.net 226
100
AcDbCircle
 10
-30.7405712233537
 20
-121.5052169672224
 30
0.0
 40
159.8727767484142
100
AcDbArc
 50
140.4688818052845
 51
150.062455982322
  0
ARC
  5
7B54
330
1F
100
AcDbEntity
  8
ceco.net 226
100
AcDbCircle
 10
-63.92560931372596
 20
75.53684725683962
 30
0.0
 40
129.1871618072797
100
AcDbArc
 50
211.8434597718724
 51
227.3114628671022
  0
ARC
  5
7B55
330
1F
100
AcDbEntity
  8
ceco.net 226
100
AcDbCircle
 10
-117.089732809838
 20
-42.93126238714943
 30
0.0
 40
28.20175821854908
100
AcDbArc
 50
108.1782847578846
 51
187.9199950974636
  0
ARC
  5
7B56
330
1F
100
AcDbEntity
  8
ceco.net 226
100
AcDbCircle
 10
-80.07554530459657
 20
52.16519030544615
 30
0.0
 40
82.24338054473546
100
AcDbArc
 50
206.7154921733497
 51
236.1490169908215
  0
ARC
  5
7B57
330
1F
100
AcDbEntity
  8
ceco.net 226
100
AcDbCircle
 10
-70.46933992997011
 20
49.59488096695334
 30
0.0
 40
71.42843961827174
100
AcDbArc
 50
206.2026476568688
 51
241.8063589727888
  0
ARC
  5
7B58
330
1F
100
AcDbEntity
  8
ceco.net 226
100
AcDbCircle
 10
-46.81230967047741
 20
-75.18228163276302
 30
0.0
 40
84.36404967470043
100
AcDbArc
 50
132.8770472217264
 51
160.6985202168285
  0
ARC
  5
7B59
330
1F
100
AcDbEntity
  8
ceco.net 226
100
AcDbCircle
 10
-0.1831459251502352
 20
-90.92179944739026
 30
0.0
 40
113.4324808125358
100
AcDbArc
 50
134.6645819271695
 51
157.5173971005245
  0
ARC
  5
7B5A
330
1F
100
AcDbEntity
  8
ceco.net 226
100
AcDbCircle
 10
-22.9347654794938
 20
69.6700497992654
 30
0.0
 40
98.15200626265868
100
AcDbArc
 50
207.9860896687784
 51
234.5077649319613
  0
LINE
  5
7B5B
330
1F
100
AcDbEntity
  8
ceco.net 226
100
AcDbLine
 10
-0.0000000116669145
 20
0.0000000168532414
 30
0.0
 11
-212.2828986027537
 21
-27.21164201153281
 31
0.0
  0
ARC
  5
7B5C
330
1F
100
AcDbEntity
  8
ceco.net 226
100
AcDbCircle
 10
102.3687337418188
 20
-136.0177413850212
 30
0.0
 40
203.058435100922
100
AcDbArc
 50
140.5432677471992
 51
153.008049302938
  0
ARC
  5
7B5D
330
1F
100
AcDbEntity
  8
ceco.net 226
100
AcDbCircle
 10
1543.232875129707
 20
1608.83345387029
 30
0.0
 40
2272.292128630517
100
AcDbArc
 50
224.1284276435313
 51
225.32382417114
  0
ARC
  5
7B5E
330
1F
100
AcDbEntity
  8
ceco.net 226
100
AcDbCircle
 10
124.3348333139578
 20
-139.5875208717832
 30
0.0
 40
205.8955620195529
100
AcDbArc
 50
138.7808980817536
 51
145.1815191964283
  0
ARC
  5
7B5F
330
1F
100
AcDbEntity
  8
ceco.net 226
100
AcDbCircle
 10
64.90545545991293
 20
148.8099944052767
 30
0.0
 40
180.095605885025
100
AcDbArc
 50
222.4688026327535
 51
237.9969394552165
  0
LWPOLYLINE
  5
7B60
330
1F
100
AcDbEntity
  8
ceco.net 226
100
AcDbPolyline
 90
       38
 70
     0
 43
0.0
 10
-0.0000000116842813
 20
0.0000000168494492
 10
-72.95186847624293
 20
39.26136472981815
 10
-80.85137413408293
 20
30.39360850029378
 10
-97.36454492395367
 20
39.96527443040227
 10
-113.9205588962597
 20
32.3015850475564
 10
-121.9828558923213
 20
36.80947141855887
 10
-136.0813981324004
 20
27.05943699055639
 10
-146.6011668606765
 20
33.65366840672544
 10
-157.588572440016
 20
23.20956403320698
 10
-162.9506230445542
 20
24.553533606505
 10
-173.8400376980426
 20
18.25566100702242
 10
-180.7518351503392
 20
17.01837682869819
 10
-192.4785620626223
 20
9.66431124870327
 10
-201.0148783529638
 20
9.167639749693933
 10
-209.6112928567294
 20
1.386479456400024
 10
-219.8261656336816
 20
-0.2480753517081098
 10
-227.3976885793647
 20
-8.283627435560248
 10
-237.2961171792476
 20
-10.36738438898787
 10
-240.666703590572
 20
-17.01318042948509
 10
-246.1496598858623
 20
-19.3821623721428
 10
-256.6397166951899
 20
-32.89845479220391
 10
-243.3891552172181
 20
-40.91676453438466
 10
-236.8640088687019
 20
-42.91519019642949
 10
-232.4376289624294
 20
-48.26828419456176
 10
-219.8186887569948
 20
-47.84541610340535
 10
-213.3113746156745
 20
-51.06973645461183
 10
-200.1587089311857
 20
-47.20654161177558
 10
-194.5163808291786
 20
-51.28703645522524
 10
-182.1183229796247
 20
-47.84701191939094
 10
-173.1491357590978
 20
-52.05014024111397
 10
-161.8338151194184
 20
-50.21854822787008
 10
-152.6815456771915
 20
-55.55518643707669
 10
-139.5327859581239
 20
-56.25280420368431
 10
-133.2240307701962
 20
-60.94079095662117
 10
-120.1004067398636
 20
-57.5455833785256
 10
-108.6057198018395
 20
-57.78498794478451
 10
-92.99612247131888
 20
-51.90225999031058
 10
-85.0982028307831
 20
-54.29294915288621
  0
ARC
  5
7B61
330
1F
100
AcDbEntity
  8
ceco.net 226
100
AcDbCircle
 10
-83.5079554322252
 20
139.2248324330778
 30
0.0
 40
180.0956058850271
100
AcDbArc
 50
276.9894674545941
 51
292.5176042770575
  0
ARC
  5
7B62
330
1F
100
AcDbEntity
  8
ceco.net 226
100
AcDbCircle
 10
158.8599756253935
 20
12.2245850465347
 30
0.0
 40
177.8094806115314
100
AcDbArc
 50
192.7906783458855
 51
208.0422933411236
  0
ARC
  5
7B63
330
1F
100
AcDbEntity
  8
ceco.net 226
100
AcDbCircle
 10
-414.4064530059771
 20
2190.474852844999
 30
0.0
 40
2272.292128630696
100
AcDbArc
 50
278.649092465372
 51
279.8444889929807
  0
ARC
  5
7B64
330
1F
100
AcDbEntity
  8
ceco.net 226
100
AcDbCircle
 10
170.1783988506226
 20
4.415448688262848
 30
0.0
 40
203.0584351007072
100
AcDbArc
 50
195.0639325690304
 51
207.5287141247819
  0
ARC
  5
7B65
330
1F
100
AcDbEntity
  8
ceco.net 226
100
AcDbCircle
 10
-70.04560780308295
 20
21.76079349673567
 30
0.0
 40
98.15200626266006
100
AcDbArc
 50
262.5067544906193
 51
289.0284297538036
  0
ARC
  5
7B66
330
1F
100
AcDbEntity
  8
ceco.net 226
100
AcDbCircle
 10
73.93358629682873
 20
-52.92099747756306
 30
0.0
 40
113.4324808124499
100
AcDbArc
 50
189.1852467489993
 51
212.0380619223694
  0
ARC
  5
7B67
330
1F
100
AcDbEntity
  8
ceco.net 226
100
AcDbCircle
 10
34.05250501936983
 20
-81.75692452627156
 30
0.0
 40
84.36404967469549
100
AcDbArc
 50
187.3977120435665
 51
215.2191850386695
  0
ARC
  5
7B68
330
1F
100
AcDbEntity
  8
ceco.net 226
100
AcDbCircle
 10
-81.28740649142505
 20
-28.59960894491547
 30
0.0
 40
71.42843961827058
100
AcDbArc
 50
260.7233124787093
 51
296.3270237946317
  0
ARC
  5
7B69
330
1F
100
AcDbEntity
  8
ceco.net 226
100
AcDbCircle
 10
-88.95600426078464
 20
-34.9303498215305
 30
0.0
 40
82.24338054473504
100
AcDbArc
 50
261.2361569951902
 51
290.6696818126694
  0
ARC
  5
7B6A
330
1F
100
AcDbEntity
  8
ceco.net 226
100
AcDbCircle
 10
-32.99997260815776
 20
-120.2667893598611
 30
0.0
 40
28.20175821853659
100
AcDbArc
 50
162.6989495796896
 51
242.440659919313
  0
ARC
  5
7B6B
330
1F
100
AcDbEntity
  8
ceco.net 226
100
AcDbCircle
 10
-98.61455372818099
 20
-8.213927842745981
 30
0.0
 40
129.1871618072801
100
AcDbArc
 50
266.3641245937131
 51
281.832127688943
  0
ARC
  5
7B6C
330
1F
100
AcDbEntity
  8
ceco.net 226
100
AcDbCircle
 10
-2.512024557997989
 20
-129.5551734012692
 30
0.0
 40
69.80000216641911
100
AcDbArc
 50
184.190941680417
 51
207.7589433952443
  0
ARC
  5
7B6D
330
1F
100
AcDbEntity
  8
ceco.net 226
100
AcDbCircle
 10
-112.144962412116
 20
-104.1068370730326
 30
0.0
 40
58.73211838242548
100
AcDbArc
 50
275.6657698138921
 51
299.6312817844182
  0
ARC
  5
7B6E
330
1F
100
AcDbEntity
  8
ceco.net 226
100
AcDbCircle
 10
-62.91310803554199
 20
-162.3879428809792
 30
0.0
 40
21.44888607448449
100
AcDbArc
 50
160.3018294407247
 51
226.0628231165059
  0
ARC
  5
7B6F
330
1F
100
AcDbEntity
  8
ceco.net 226
100
AcDbCircle
 10
-125.6973171938635
 20
-106.2473224586105
 30
0.0
 40
76.64302431318503
100
AcDbArc
 50
278.6866486128335
 51
293.9781365878202
  0
ARC
  5
7B70
330
1F
100
AcDbEntity
  8
ceco.net 226
100
AcDbCircle
 10
-47.74082355819122
 20
-166.0207437900344
 30
0.0
 40
49.92238638900513
100
AcDbArc
 50
194.752206465882
 51
214.4726239100084
  0
ARC
  5
7B71
330
1F
100
AcDbEntity
  8
ceco.net 226
100
AcDbCircle
 10
-76.95777301225668
 20
-192.0939236530148
 30
0.0
 40
24.33738867434779
100
AcDbArc
 50
171.8914057858941
 51
214.2977276901437
  0
ARC
  5
7B72
330
1F
100
AcDbEntity
  8
ceco.net 226
100
AcDbCircle
 10
-119.251843537255
 20
-161.4017845347225
 30
0.0
 40
32.77670433422392
100
AcDbArc
 50
270.2995949131651
 51
303.7294692445787
  0
ARC
  5
7B73
330
1F
100
AcDbEntity
  8
ceco.net 226
100
AcDbCircle
 10
-22.91526631302643
 20
-243.1349281086618
 30
0.0
 40
95.25082135200923
100
AcDbArc
 50
145.1172908773443
 51
164.5795386549401
  0
LWPOLYLINE
  5
7B74
330
1F
100
AcDbEntity
  8
ceco.net 226
100
AcDbPolyline
 90
       41
 70
     0
 43
0.0
 10
-0.0000000116419664
 20
0.0000000168223619
 10
-74.31344947686411
 20
-36.61886261126065
 10
-71.67716119205393
 20
-48.1985549329006
 10
-89.0560049207321
 20
-56.09015735997709
 10
-92.42453611721648
 20
-74.02020842477831
 10
-100.774852355237
 20
-77.96911854170888
 10
-101.0180813895774
 20
-95.10892321619239
 10
-112.493699789741
 20
-99.84807972342151
 10
-110.3659977549674
 20
-114.8572529711779
 10
-114.572609645578
 20
-118.4436519034384
 10
-115.7644125709816
 20
-130.9665172529446
 10
-118.7685327102327
 20
-137.3130973043187
 10
-119.5862351998963
 20
-151.13083110073
 10
-124.1363405183254
 20
-158.3704388233791
 10
-122.7893867378494
 20
-169.8869709986392
 10
-127.3871351176103
 20
-179.1539071215636
 10
-125.238167182767
 20
-189.9834959329799
 10
-129.2864519266603
 20
-199.2534647797592
 10
-125.8309343548153
 20
-205.8554990176924
 10
-127.0841721335975
 20
-211.6953860243552
 10
-122.1660450060768
 20
-228.0826822688494
 10
-107.9457866701548
 20
-221.9463215018684
 10
-102.5311633090992
 20
-217.792637130823
 10
-95.6028935109667
 20
-217.2951112202023
 10
-88.62309538498719
 20
-206.7737573410077
 10
-82.22054542387217
 20
-203.3461148485027
 10
-77.73251183300793
 20
-190.3933374054629
 10
-71.13480359235676
 20
-188.1670062195347
 10
-66.74015327946647
 20
-176.074336709651
 10
-58.11164159889172
 20
-171.2100388914798
 10
-53.03563535847097
 20
-160.9326184403695
 10
-43.37781572151841
 20
-156.5771318798151
 10
-35.178065884983
 20
-146.2746731773353
 10
-27.69886137878589
 20
-143.8582477654264
 10
-22.84659014797028
 20
-131.2007438215013
 10
-15.98001394427539
 20
-121.9792865837167
 10
-11.7105105107473
 20
-105.8536127237321
 10
-4.261166509777865
 20
-100.1003254020011
 10
-1.159176963953395
 20
-82.60179532241965
 10
7.457680924719721
 20
-78.22136422028558
 10
-0.0000000116842813
 20
0.0000000168494492
  0
LINE
  5
7B75
330
1F
100
AcDbEntity
  8
ceco.net 226
100
AcDbLine
 10
-0.0000000116331173
 20
0.0000000168417562
 30
0.0
 11
-101.0518489297908
 21
-188.6611415209284
 31
0.0
  0
LWPOLYLINE
  5
7B76
330
1F
100
AcDbEntity
  8
ceco.net 226
100
AcDbPolyline
 90
       35
 70
     0
 43
0.0
 10
-1.217818143460792
 20
-82.93259413020223
 10
9.883080053478472
 20
-85.80816312948657
 10
8.908835436871733
 20
-104.8699690680572
 10
23.28735727160523
 20
-116.099031515841
 10
22.95878084509158
 20
-125.33015874487
 10
38.07113940039354
 20
-133.4201948102093
 10
37.00872625329499
 20
-145.7903484216675
 10
51.3177940418469
 20
-150.7956432733753
 10
52.57083376137114
 20
-156.1796689383247
 10
63.14651294912426
 20
-162.9912444163311
 10
67.40365210925924
 20
-168.5752020030989
 10
79.30133396735415
 20
-175.6493500813938
 10
83.64146499798057
 20
-183.0167540355436
 10
94.48958820040328
 20
-187.1110208582648
 10
100.6085670468789
 20
-195.4520935198778
 10
111.2149699207952
 20
-198.5184064663378
 10
117.589065040655
 20
-206.3728219882537
 10
125.0406512856386
 20
-206.3364874098334
 10
129.6520821415572
 20
-210.1324840697246
 10
146.4671566352017
 20
-213.2923452091458
 10
147.5494125238169
 20
-197.8424457662893
 10
146.3474506657905
 20
-191.124817636647
 10
149.0883665134481
 20
-184.7423545741907
 10
142.9494845165315
 20
-173.7091955905437
 10
142.8462667490221
 20
-166.4476031237628
 10
133.4030084178884
 20
-156.510714219627
 10
134.4564873387644
 20
-149.627656269747
 10
125.7343030236492
 20
-140.1688451382644
 10
125.3776066029402
 20
-130.2700889159291
 10
118.580795465597
 20
-121.0399985130714
 10
119.1489027834166
 20
-110.4607264495228
 10
113.7648935821606
 20
-98.44452914676129
 10
115.054482664876
 20
-90.69117040266796
 10
106.0408253219477
 20
-80.56640257855463
 10
105.1914361155887
 20
-78.82329423148151
  0
ARC
  5
7B77
330
1F
100
AcDbEntity
  8
ceco.net 226
100
AcDbCircle
 10
-162.0271350718098
 20
-10.21469939308568
 30
0.0
 40
180.0956058850254
100
AcDbArc
 50
339.6411967293997
 51
355.1693335518637
  0
ARC
  5
7B78
330
1F
100
AcDbEntity
  8
ceco.net 226
100
AcDbCircle
 10
9.613273923117365
 20
-70.51547205982322
 30
0.0
 40
45.80637179088216
100
AcDbArc
 50
74.68575769779571
 51
80.17612903183747
  0
ARC
  5
7B79
330
1F
100
AcDbEntity
  8
ceco.net 226
100
AcDbCircle
 10
-2136.024112788681
 20
638.2113903919631
 30
0.0
 40
2272.29212863377
100
AcDbArc
 50
341.3008217401789
 51
342.4962182677862
  0
ARC
  5
7B7A
330
1F
100
AcDbEntity
  8
ceco.net 226
100
AcDbCircle
 10
33.36633227804842
 20
-56.92777346469272
 30
0.0
 40
11.9308684461275
100
AcDbArc
 50
68.18290040527742
 51
101.1737850927301
  0
LINE
  5
7B7B
330
1F
100
AcDbEntity
  8
ceco.net 226
100
AcDbLine
 10
-0.0000000115965901
 20
0.000000016887575
 30
0.0
 11
121.1515615015859
 21
-176.427893579992
 31
0.0
  0
ARC
  5
7B7C
330
1F
100
AcDbEntity
  8
ceco.net 226
100
AcDbCircle
 10
-51.5074154571474
 20
-52.21978031459507
 30
0.0
 40
98.15200626265834
100
AcDbArc
 50
325.1584837654245
 51
351.6801590286119
  0
ARC
  5
7B7D
330
1F
100
AcDbEntity
  8
ceco.net 226
100
AcDbCircle
 10
82.28852680481358
 20
47.82753810098833
 30
0.0
 40
119.992554256216
100
AcDbArc
 50
252.2021300111599
 51
265.8099131327611
  0
ARC
  5
7B7E
330
1F
100
AcDbEntity
  8
ceco.net 226
100
AcDbCircle
 10
88.26264895726389
 20
-7.312496590569605
 30
0.0
 40
84.36404967462296
100
AcDbArc
 50
250.0494413183578
 51
277.8709143134807
  0
ARC
  5
7B7F
330
1F
100
AcDbEntity
  8
ceco.net 226
100
AcDbCircle
 10
-11.94022961462995
 20
-85.3405589337294
 30
0.0
 40
71.42843961827113
100
AcDbArc
 50
323.3750417535149
 51
358.9787530694398
  0
ARC
  5
7B80
330
1F
100
AcDbEntity
  8
ceco.net 226
100
AcDbCircle
 10
-9.840011157916073
 20
-95.06037139226602
 30
0.0
 40
82.24338054473383
100
AcDbArc
 50
323.8878862699956
 51
353.3214110874679
  0
ARC
  5
7B81
330
1F
100
AcDbEntity
  8
ceco.net 226
100
AcDbCircle
 10
91.66450937582132
 20
-84.56190947617228
 30
0.0
 40
28.20175821854943
100
AcDbArc
 50
225.3506788545373
 51
305.0923891941094
  0
ARC
  5
7B82
330
1F
100
AcDbEntity
  8
ceco.net 226
100
AcDbCircle
 10
-38.00747101547051
 20
-91.36591793661649
 30
0.0
 40
129.1871618072739
100
AcDbArc
 50
329.0158538685182
 51
344.4838569637495
  0
ARC
  5
7B83
330
1F
100
AcDbEntity
  8
ceco.net 226
100
AcDbCircle
 10
113.9208389711411
 20
-61.74864913572326
 30
0.0
 40
69.80000216655854
100
AcDbArc
 50
246.8426709552553
 51
270.4106726700384
  0
ARC
  5
7B84
330
1F
100
AcDbEntity
  8
ceco.net 226
100
AcDbCircle
 10
40.95169374461193
 20
-147.437054006724
 30
0.0
 40
58.73211838242494
100
AcDbArc
 50
338.3174990886975
 51
2.283011059216796
  0
ARC
  5
7B85
330
1F
100
AcDbEntity
  8
ceco.net 226
100
AcDbCircle
 10
115.3357674852758
 20
-130.482044325304
 30
0.0
 40
21.44888607449841
100
AcDbArc
 50
222.9535587155738
 51
288.7145523913023
  0
ARC
  5
7B86
330
1F
100
AcDbEntity
  8
ceco.net 226
100
AcDbCircle
 10
178.0496769021419
 20
-197.9258251343477
 30
0.0
 40
70.0159985914901
100
AcDbArc
 50
154.2191094701274
 51
169.3465742535776
  0
ARC
  5
7B87
330
1F
100
AcDbEntity
  8
ceco.net 226
100
AcDbCircle
 10
125.5326497996614
 20
-118.6744599079626
 30
0.0
 40
49.92238638900533
100
AcDbArc
 50
257.8234685072574
 51
277.1243531848138
  0
ARC
  5
7B88
330
1F
100
AcDbEntity
  8
ceco.net 226
100
AcDbCircle
 10
135.2694345058358
 20
-156.603813542797
 30
0.0
 40
24.33738867432666
100
AcDbArc
 50
234.543135060683
 51
276.9494569649576
  0
ARC
  5
7B89
330
1F
100
AcDbEntity
  8
ceco.net 226
100
AcDbCircle
 10
88.57792707678312
 20
-180.0707890451501
 30
0.0
 40
32.77670433418782
100
AcDbArc
 50
332.951324187962
 51
6.381198519400215
  0
ARC
  5
7B8A
330
1F
100
AcDbEntity
  8
ceco.net 226
100
AcDbCircle
 10
205.4326335411738
 20
-132.0497473355155
 30
0.0
 40
95.25082135204064
100
AcDbArc
 50
207.7690201521575
 51
227.2312679297442
  0
LWPOLYLINE
  5
7B8B
330
1F
100
AcDbEntity
  8
ceco.net 226
100
AcDbPolyline
 90
       41
 70
     0
 43
0.0
 10
-0.0000000115672272
 20
0.0000000168663364
 10
52.69920820608906
 20
-63.92357407616564
 10
63.36456481091913
 20
-58.69964273317204
 10
75.03463964017946
 20
-73.80298513450828
 10
93.25915469563296
 20
-72.96585635011405
 10
99.01937872385053
 20
-80.18676290894807
 10
115.7573572937695
 20
-76.4891774758089
 10
123.0041178074927
 20
-86.57054068338258
 10
137.1241255794107
 20
-81.05440271819766
 10
141.5803602215222
 20
-84.32545969018518
 10
154.0424167996513
 20
-82.61090534035988
 10
160.9091083258613
 20
-84.07799894455882
 10
174.5455864025908
 20
-81.70210536678085
 10
182.6363303385511
 20
-84.46891597634779
 10
193.5361708026396
 20
-80.51439000120097
 10
203.6110466609495
 20
-82.86221276059363
 10
213.6581895151882
 20
-78.28477051891747
 10
223.6098916610931
 20
-80.09710497672683
 10
229.2424526190745
 20
-75.21840486062791
 10
235.2140779819621
 20
-75.09767497178891
 10
250.0348886966079
 20
-66.54928199954082
 10
240.7982187803032
 20
-54.11728298651013
 10
235.5125556257858
 20
-49.80068652479213
 10
233.4379794661922
 20
-43.17161508261113
 10
221.5953980939979
 20
-38.79328940104789
 10
216.7896189450342
 20
-33.34848767532151
 10
203.1525033122077
 20
-31.95350874408958
 10
199.4711615281153
 20
-26.04300730624535
 10
186.6926231669688
 20
-24.5414865436158
 10
179.9775958347463
 20
-17.25993348034164
 10
168.8094363620962
 20
-14.67857250691454
 10
162.3533639913643
 20
-6.278401504906476
 10
150.4438017649092
 20
-0.6624527629404895
 10
146.3751003660181
 20
6.062372940639711
 10
132.9417658504304
 20
7.879641765062785
 10
122.3903612823729
 20
12.44615071506773
 10
105.7152321984247
 20
12.90011882111714
 10
98.40562219871777
 20
18.82992848950814
 10
80.66228862815755
 20
17.83242766634227
 10
74.42088311507548
 20
25.21370626394263
 10
-0.0000000115828866
 20
0.0000000168149319
  0
ARC
  5
7B8C
330
1F
100
AcDbEntity
  8
ceco.net 226
100
AcDbCircle
 10
-116.3386723947651
 20
-113.2362392706279
 30
0.0
 40
180.0956058850276
100
AcDbArc
 50
20.25962735788026
 51
35.78776418034122
  0
ARC
  5
7B8D
330
1F
100
AcDbEntity
  8
ceco.net 226
100
AcDbCircle
 10
-48.36334514280637
 20
151.8121180653293
 30
0.0
 40
177.8094806118474
100
AcDbArc
 50
296.0608382491923
 51
311.3124532444031
  0
ARC
  5
7B8E
330
1F
100
AcDbEntity
  8
ceco.net 226
100
AcDbCircle
 10
-2036.861958382661
 20
-906.1490780558676
 30
0.0
 40
2272.292128629669
100
AcDbArc
 50
21.91925236865801
 51
23.11464889626719
  0
ARC
  5
7B8F
330
1F
100
AcDbEntity
  8
ceco.net 226
100
AcDbCircle
 10
-43.36078734271579
 20
164.6208545533895
 30
0.0
 40
203.0584351007632
100
AcDbArc
 50
298.3340924723176
 51
310.798874028067
  0
LINE
  5
7B90
330
1F
100
AcDbEntity
  8
ceco.net 226
100
AcDbLine
 10
-0.0000000115816443
 20
0.000000016869009
 30
0.0
 11
206.8193470525766
 21
-55.04779899514471
 31
0.0
  0
ARC
  5
7B91
330
1F
100
AcDbEntity
  8
ceco.net 226
100
AcDbCircle
 10
-5.101279192861841
 20
-73.17032357447655
 30
0.0
 40
98.15200626265866
100
AcDbArc
 50
5.776914393905187
 51
32.29858965708636
  0
ARC
  5
7B92
330
1F
100
AcDbEntity
  8
ceco.net 226
100
AcDbCircle
 10
34.5370028984731
 20
84.10709002859217
 30
0.0
 40
113.4324808126207
100
AcDbArc
 50
292.4554066523084
 51
315.3082218256469
  0
ARC
  5
7B93
330
1F
100
AcDbEntity
  8
ceco.net 226
100
AcDbCircle
 10
71.75738668025393
 20
51.9099727079563
 30
0.0
 40
84.36404967482143
100
AcDbArc
 50
290.6678719468885
 51
318.4893449419455
  0
ARC
  5
7B94
330
1F
100
AcDbEntity
  8
ceco.net 226
100
AcDbCircle
 10
46.49490230593881
 20
-72.55207881936705
 30
0.0
 40
71.42843961827089
100
AcDbArc
 50
3.993472381995459
 51
39.59718369791147
  0
ARC
  5
7B95
330
1F
100
AcDbEntity
  8
ceco.net 226
100
AcDbCircle
 10
54.41687515329672
 20
-78.56273751877203
 30
0.0
 40
82.24338054473458
100
AcDbArc
 50
4.506316898476336
 51
33.93984171594485
  0
ARC
  5
7B96
330
1F
100
AcDbEntity
  8
ceco.net 226
100
AcDbCircle
 10
124.6304003165239
 20
-4.512441938401309
 30
0.0
 40
28.20175821855999
100
AcDbArc
 50
265.9691094830452
 51
345.7108198225825
  0
ARC
  5
7B97
330
1F
100
AcDbEntity
  8
ceco.net 226
100
AcDbCircle
 10
-2691.317455502686
 20
-748.4294021013473
 30
0.0
 40
2928.395629498972
100
AcDbArc
 50
13.34579106297741
 51
14.00080471236753
  0
ARC
  5
7B98
330
1F
100
AcDbEntity
  8
ceco.net 226
100
AcDbCircle
 10
74.38757175622217
 20
100.8711536697193
 30
0.0
 40
159.8727767484085
100
AcDbArc
 50
298.2597065304096
 51
307.8532807074485
  0
ARC
  5
7B99
330
1F
100
AcDbEntity
  8
ceco.net 226
100
AcDbCircle
 10
127.0691099940015
 20
-85.25354772779028
 30
0.0
 40
58.73211838242396
100
AcDbArc
 50
18.93592971717777
 51
42.90144168769297
  0
ARC
  5
7B9A
330
1F
100
AcDbEntity
  8
ceco.net 226
100
AcDbCircle
 10
172.4932049279128
 20
-23.95824302189156
 30
0.0
 40
21.44888607451456
100
AcDbArc
 50
263.5719893441056
 51
329.3329830197719
  0
ARC
  5
7B9B
330
1F
100
AcDbEntity
  8
ceco.net 226
100
AcDbCircle
 10
126.6589674004968
 20
-100.6594845706425
 30
0.0
 40
82.8539662989071
100
AcDbArc
 50
22.24375982480544
 51
36.43236088517707
  0
ARC
  5
7B9C
330
1F
100
AcDbEntity
  8
ceco.net 226
100
AcDbCircle
 10
172.5463151205214
 20
-8.357196966800366
 30
0.0
 40
49.92238638900282
100
AcDbArc
 50
298.4418991357272
 51
317.7427838132946
  0
ARC
  5
7B9D
330
1F
100
AcDbEntity
  8
ceco.net 226
100
AcDbCircle
 10
204.6298456755119
 20
-30.80909912890181
 30
0.0
 40
24.33738867434162
100
AcDbArc
 50
275.1615656891684
 51
317.567887593432
  0
ARC
  5
7B9E
330
1F
100
AcDbEntity
  8
ceco.net 226
100
AcDbCircle
 10
184.4655332921012
 20
-79.01901835022755
 30
0.0
 40
32.77670433413827
100
AcDbArc
 50
13.56975481643085
 51
46.9996291479181
  0
ARC
  5
7B9F
330
1F
100
AcDbEntity
  8
ceco.net 226
100
AcDbCircle
 10
241.9029095182042
 20
33.50649289965936
 30
0.0
 40
95.25082135220545
100
AcDbArc
 50
248.3874507806621
 51
267.8496985582167
  0
ARC
  5
7BA0
330
1F
100
AcDbEntity
  8
ceco.net 226
100
AcDbCircle
 10
-652.6030202253126
 20
-2131.671195830637
 30
0.0
 40
2272.292128640175
100
AcDbArc
 50
71.49915660463371
 51
72.10979118494059
  0
ARC
  5
7BA1
330
1F
100
AcDbEntity
  8
ceco.net 226
100
AcDbCircle
 10
-46.90678961776902
 20
-101.5036410989461
 30
0.0
 40
136.3925146466284
100
AcDbArc
 50
104.3089318728644
 51
104.5164575478624
  0
ENDSEC
  0
SECTION
  2
OBJECTS
  0
DICTIONARY
  5
C
330
0
100
AcDbDictionary
281
     1
  3
ACAD_GROUP
350
D
  3
ACAD_LAYOUT
350
1A
  3
ACAD_MLINESTYLE
350
17
  3
ACAD_PLOTSETTINGS
350
19
  3
ACAD_PLOTSTYLENAME
350
E
  3
AcDbVariableDictionary
350
115
  3
DWGPROPS
350
8E3
  0
DICTIONARY
  5
90B
330
2
100
AcDbDictionary
280
     1
281
     1
  3
ACAD_LAYERFILTERS
360
7A67
  3
ACAD_LAYERSTATES
360
90C
  0
DICTIONARY
  5
7A72
330
7A71
100
AcDbDictionary
280
     1
281
     1
  3
ACAD_XREC_ROUNDTRIP
360
7A73
  0
DICTIONARY
  5
D
102
{ACAD_REACTORS
330
C
102
}
330
C
100
AcDbDictionary
281
     1
  0
DICTIONARY
  5
1A
102
{ACAD_REACTORS
330
C
102
}
330
C
100
AcDbDictionary
281
     1
  3
Layout1
350
1E
  3
Layout2
350
26
  3
Model
350
22
  0
DICTIONARY
  5
17
102
{ACAD_REACTORS
330
C
102
}
330
C
100
AcDbDictionary
281
     1
  3
Standard
350
18
  0
DICTIONARY
  5
19
102
{ACAD_REACTORS
330
C
102
}
330
C
100
AcDbDictionary
281
     1
  0
ACDBDICTIONARYWDFLT
  5
E
102
{ACAD_REACTORS
330
C
102
}
330
C
100
AcDbDictionary
281
     1
  3
Normal
350
F
100
AcDbDictionaryWithDefault
340
F
  0
DICTIONARY
  5
115
102
{ACAD_REACTORS
330
C
102
}
330
C
100
AcDbDictionary
281
     1
  3
DIMASSOC
350
117
  3
HIDETEXT
350
116
  0
XRECORD
  5
8E3
102
{ACAD_REACTORS
330
C
102
}
330
C
100
AcDbXrecord
280
     1
  1
DWGPROPS COOKIE
  2
Ceco.NET-Trees-and-Plants - T - xx . 67 . dwg
  3

  4
ceco.net
  6

  7

  8
peacosta
  9

300
=
301
=
302
=
303
=
304
=
305
=
306
=
307
=
308
=
309
=
 40
0.0450312037037037
 41
2455079.811409143
 42
2455838.656599502
  1

 90
        0
  0
DICTIONARY
  5
7A67
102
{ACAD_REACTORS
330
90B
102
}
330
90B
100
AcDbDictionary
280
     1
281
     1
  0
DICTIONARY
  5
90C
102
{ACAD_REACTORS
330
90B
102
}
330
90B
100
AcDbDictionary
281
     1
  0
XRECORD
  5
7A73
102
{ACAD_REACTORS
330
7A72
102
}
330
7A72
100
AcDbXrecord
280
     1
102
MATERIAL
340
0
  0
LAYOUT
  5
1E
102
{ACAD_REACTORS
330
1A
102
}
330
1A
100
AcDbPlotSettings
  1

  2
Microsoft Office Document Image Writer
  4

  6

 40
0.0
 41
0.0
 42
0.0
 43
0.0
 44
0.0
 45
0.0
 46
0.0
 47
0.0
 48
0.0
 49
0.0
140
0.0
141
0.0
142
1.0
143
1.0
 70
   688
 72
     0
 73
     0
 74
     5
  7

 75
    16
147
1.0
148
0.0
149
0.0
100
AcDbLayout
  1
Layout1
 70
     1
 71
     1
 10
0.0
 20
0.0
 11
420.0
 21
297.0
 12
0.0
 22
0.0
 32
0.0
 14
1.000000000000000E+20
 24
1.000000000000000E+20
 34
1.000000000000000E+20
 15
-1.000000000000000E+20
 25
-1.000000000000000E+20
 35
-1.000000000000000E+20
146
0.0
 13
0.0
 23
0.0
 33
0.0
 16
1.0
 26
0.0
 36
0.0
 17
0.0
 27
1.0
 37
0.0
 76
     0
330
1B
  0
LAYOUT
  5
26
102
{ACAD_REACTORS
330
1A
102
}
330
1A
100
AcDbPlotSettings
  1

  2
Microsoft Office Document Image Writer
  4

  6

 40
0.0
 41
0.0
 42
0.0
 43
0.0
 44
0.0
 45
0.0
 46
0.0
 47
0.0
 48
0.0
 49
0.0
140
0.0
141
0.0
142
1.0
143
1.0
 70
   688
 72
     0
 73
     0
 74
     5
  7

 75
    16
147
1.0
148
0.0
149
0.0
100
AcDbLayout
  1
Layout2
 70
     1
 71
     2
 10
0.0
 20
0.0
 11
12.0
 21
9.0
 12
0.0
 22
0.0
 32
0.0
 14
0.0
 24
0.0
 34
0.0
 15
0.0
 25
0.0
 35
0.0
146
0.0
 13
0.0
 23
0.0
 33
0.0
 16
1.0
 26
0.0
 36
0.0
 17
0.0
 27
1.0
 37
0.0
 76
     0
330
23
  0
LAYOUT
  5
22
102
{ACAD_REACTORS
330
1A
102
}
330
1A
100
AcDbPlotSettings
  1

  2
Microsoft Office Document Image Writer
  4

  6

 40
0.0
 41
0.0
 42
0.0
 43
0.0
 44
0.0
 45
0.0
 46
0.0
 47
0.0
 48
0.0
 49
0.0
140
0.0
141
0.0
142
1.0
143
1.0
 70
  1712
 72
     0
 73
     0
 74
     0
  7

 75
     0
147
1.0
148
0.0
149
0.0
100
AcDbLayout
  1
Model
 70
     1
 71
     0
 10
0.0
 20
0.0
 11
12.0
 21
9.0
 12
0.0
 22
0.0
 32
0.0
 14
0.0
 24
0.0
 34
0.0
 15
0.0
 25
0.0
 35
0.0
146
0.0
 13
0.0
 23
0.0
 33
0.0
 16
1.0
 26
0.0
 36
0.0
 17
0.0
 27
1.0
 37
0.0
 76
     0
330
1F
  0
MLINESTYLE
  5
18
102
{ACAD_REACTORS
330
17
102
}
330
17
100
AcDbMlineStyle
  2
STANDARD
 70
     0
  3

 62
   256
 51
90.0
 52
90.0
 71
     2
 49
0.5
 62
   256
  6
BYLAYER
 49
-0.5
 62
   256
  6
BYLAYER
  0
ACDBPLACEHOLDER
  5
F
102
{ACAD_REACTORS
330
E
102
}
330
E
  0
DICTIONARYVAR
  5
117
102
{ACAD_REACTORS
330
115
102
}
330
115
100
DictionaryVariables
280
     0
  1
2
  0
DICTIONARYVAR
  5
116
102
{ACAD_REACTORS
330
115
102
}
330
115
100
DictionaryVariables
280
     0
  1
1
  0
ENDSEC
  0
EOF
