  0
SECTION
  2
HEADER
  9
$ACADVER
  1
AC1015
  9
$ACADMAINTVER
 70
    13
  9
$DWGCODEPAGE
  3
ANSI_1252
  9
$INSBASE
 10
0.0
 20
0.0
 30
0.0
  9
$EXTMIN
 10
-1557.001062666676
 20
-2.045600546478965
 30
0.0
  9
$EXTMAX
 10
372.1296794415084
 20
2123.961040615769
 30
0.0
  9
$LIMMIN
 10
0.0
 20
0.0
  9
$LIMMAX
 10
420.0
 20
297.0
  9
$ORTHOMODE
 70
     0
  9
$REGENMODE
 70
     1
  9
$FILLMODE
 70
     1
  9
$QTEXTMODE
 70
     0
  9
$MIRRTEXT
 70
     1
  9
$LTSCALE
 40
1.0
  9
$ATTMODE
 70
     1
  9
$TEXTSIZE
 40
2.5
  9
$TRACEWID
 40
1.0
  9
$TEXTSTYLE
  7
Standard
  9
$CLAYER
  8
ceco.net 407
  9
$CELTYPE
  6
ByLayer
  9
$CECOLOR
 62
   256
  9
$CELTSCALE
 40
1.0
  9
$DISPSILH
 70
     0
  9
$DIMSCALE
 40
1.0
  9
$DIMASZ
 40
2.5
  9
$DIMEXO
 40
0.625
  9
$DIMDLI
 40
3.75
  9
$DIMRND
 40
0.0
  9
$DIMDLE
 40
0.0
  9
$DIMEXE
 40
1.25
  9
$DIMTP
 40
0.0
  9
$DIMTM
 40
0.0
  9
$DIMTXT
 40
2.5
  9
$DIMCEN
 40
2.5
  9
$DIMTSZ
 40
0.0
  9
$DIMTOL
 70
     0
  9
$DIMLIM
 70
     0
  9
$DIMTIH
 70
     0
  9
$DIMTOH
 70
     0
  9
$DIMSE1
 70
     0
  9
$DIMSE2
 70
     0
  9
$DIMTAD
 70
     1
  9
$DIMZIN
 70
     8
  9
$DIMBLK
  1

  9
$DIMASO
 70
     1
  9
$DIMSHO
 70
     1
  9
$DIMPOST
  1

  9
$DIMAPOST
  1

  9
$DIMALT
 70
     0
  9
$DIMALTD
 70
     3
  9
$DIMALTF
 40
0.03937007874016
  9
$DIMLFAC
 40
1.0
  9
$DIMTOFL
 70
     1
  9
$DIMTVP
 40
0.0
  9
$DIMTIX
 70
     0
  9
$DIMSOXD
 70
     0
  9
$DIMSAH
 70
     0
  9
$DIMBLK1
  1

  9
$DIMBLK2
  1

  9
$DIMSTYLE
  2
ISO-25
  9
$DIMCLRD
 70
     0
  9
$DIMCLRE
 70
     0
  9
$DIMCLRT
 70
     0
  9
$DIMTFAC
 40
1.0
  9
$DIMGAP
 40
0.625
  9
$DIMJUST
 70
     0
  9
$DIMSD1
 70
     0
  9
$DIMSD2
 70
     0
  9
$DIMTOLJ
 70
     0
  9
$DIMTZIN
 70
     8
  9
$DIMALTZ
 70
     0
  9
$DIMALTTZ
 70
     0
  9
$DIMUPT
 70
     0
  9
$DIMDEC
 70
     2
  9
$DIMTDEC
 70
     2
  9
$DIMALTU
 70
     2
  9
$DIMALTTD
 70
     3
  9
$DIMTXSTY
  7
Standard
  9
$DIMAUNIT
 70
     0
  9
$DIMADEC
 70
     0
  9
$DIMALTRND
 40
0.0
  9
$DIMAZIN
 70
     0
  9
$DIMDSEP
 70
    44
  9
$DIMATFIT
 70
     3
  9
$DIMFRAC
 70
     0
  9
$DIMLDRBLK
  1

  9
$DIMLUNIT
 70
     2
  9
$DIMLWD
 70
    -2
  9
$DIMLWE
 70
    -2
  9
$DIMTMOVE
 70
     0
  9
$LUNITS
 70
     2
  9
$LUPREC
 70
     4
  9
$SKETCHINC
 40
1.0
  9
$FILLETRAD
 40
10.0
  9
$AUNITS
 70
     0
  9
$AUPREC
 70
     0
  9
$MENU
  1
.
  9
$ELEVATION
 40
0.0
  9
$PELEVATION
 40
0.0
  9
$THICKNESS
 40
0.0
  9
$LIMCHECK
 70
     0
  9
$CHAMFERA
 40
10.0
  9
$CHAMFERB
 40
10.0
  9
$CHAMFERC
 40
20.0
  9
$CHAMFERD
 40
0.0
  9
$SKPOLY
 70
     0
  9
$TDCREATE
 40
2457858.695660799
  9
$TDUCREATE
 40
2457858.820660799
  9
$TDUPDATE
 40
2458292.697020208
  9
$TDUUPDATE
 40
2458292.822020208
  9
$TDINDWG
 40
0.0019393981
  9
$TDUSRTIMER
 40
0.0019393866
  9
$USRTIMER
 70
     1
  9
$ANGBASE
 50
0.0
  9
$ANGDIR
 70
     0
  9
$PDMODE
 70
     0
  9
$PDSIZE
 40
0.0
  9
$PLINEWID
 40
0.0
  9
$SPLFRAME
 70
     0
  9
$SPLINETYPE
 70
     6
  9
$SPLINESEGS
 70
     8
  9
$HANDSEED
  5
231
  9
$SURFTAB1
 70
     6
  9
$SURFTAB2
 70
     6
  9
$SURFTYPE
 70
     6
  9
$SURFU
 70
     6
  9
$SURFV
 70
     6
  9
$UCSBASE
  2

  9
$UCSNAME
  2

  9
$UCSORG
 10
0.0
 20
0.0
 30
0.0
  9
$UCSXDIR
 10
1.0
 20
0.0
 30
0.0
  9
$UCSYDIR
 10
0.0
 20
1.0
 30
0.0
  9
$UCSORTHOREF
  2

  9
$UCSORTHOVIEW
 70
     0
  9
$UCSORGTOP
 10
0.0
 20
0.0
 30
0.0
  9
$UCSORGBOTTOM
 10
0.0
 20
0.0
 30
0.0
  9
$UCSORGLEFT
 10
0.0
 20
0.0
 30
0.0
  9
$UCSORGRIGHT
 10
0.0
 20
0.0
 30
0.0
  9
$UCSORGFRONT
 10
0.0
 20
0.0
 30
0.0
  9
$UCSORGBACK
 10
0.0
 20
0.0
 30
0.0
  9
$PUCSBASE
  2

  9
$PUCSNAME
  2

  9
$PUCSORG
 10
0.0
 20
0.0
 30
0.0
  9
$PUCSXDIR
 10
1.0
 20
0.0
 30
0.0
  9
$PUCSYDIR
 10
0.0
 20
1.0
 30
0.0
  9
$PUCSORTHOREF
  2

  9
$PUCSORTHOVIEW
 70
     0
  9
$PUCSORGTOP
 10
0.0
 20
0.0
 30
0.0
  9
$PUCSORGBOTTOM
 10
0.0
 20
0.0
 30
0.0
  9
$PUCSORGLEFT
 10
0.0
 20
0.0
 30
0.0
  9
$PUCSORGRIGHT
 10
0.0
 20
0.0
 30
0.0
  9
$PUCSORGFRONT
 10
0.0
 20
0.0
 30
0.0
  9
$PUCSORGBACK
 10
0.0
 20
0.0
 30
0.0
  9
$USERI1
 70
     0
  9
$USERI2
 70
     0
  9
$USERI3
 70
     0
  9
$USERI4
 70
     0
  9
$USERI5
 70
     0
  9
$USERR1
 40
0.0
  9
$USERR2
 40
0.0
  9
$USERR3
 40
0.0
  9
$USERR4
 40
0.0
  9
$USERR5
 40
0.0
  9
$WORLDVIEW
 70
     1
  9
$SHADEDGE
 70
     3
  9
$SHADEDIF
 70
    70
  9
$TILEMODE
 70
     1
  9
$MAXACTVP
 70
    64
  9
$PINSBASE
 10
0.0
 20
0.0
 30
0.0
  9
$PLIMCHECK
 70
     0
  9
$PEXTMIN
 10
0.0
 20
0.0
 30
0.0
  9
$PEXTMAX
 10
0.0
 20
0.0
 30
0.0
  9
$PLIMMIN
 10
0.0
 20
0.0
  9
$PLIMMAX
 10
12.0
 20
9.0
  9
$UNITMODE
 70
     0
  9
$VISRETAIN
 70
     1
  9
$PLINEGEN
 70
     0
  9
$PSLTSCALE
 70
     1
  9
$TREEDEPTH
 70
  3020
  9
$CMLSTYLE
  2
Standard
  9
$CMLJUST
 70
     0
  9
$CMLSCALE
 40
20.0
  9
$PROXYGRAPHICS
 70
     1
  9
$MEASUREMENT
 70
     1
  9
$CELWEIGHT
370
    -1
  9
$ENDCAPS
280
     0
  9
$JOINSTYLE
280
     0
  9
$LWDISPLAY
290
     0
  9
$INSUNITS
 70
     4
  9
$HYPERLINKBASE
  1

  9
$STYLESHEET
  1

  9
$XEDIT
290
     1
  9
$CEPSNTYPE
380
     0
  9
$PSTYLEMODE
290
     1
  9
$FINGERPRINTGUID
  2
{FDEAD578-A652-11D2-9A35-0060089B3A3F}
  9
$VERSIONGUID
  2
{55894292-03BB-4C46-ACC3-FE7709FC6107}
  9
$EXTNAMES
290
     1
  9
$PSVPSCALE
 40
0.0
  9
$OLESTARTUP
290
     0
  0
ENDSEC
  0
SECTION
  2
CLASSES
  0
CLASS
  1
ACDBDICTIONARYWDFLT
  2
AcDbDictionaryWithDefault
  3
AutoCAD 2000
 90
        0
280
     0
281
     0
  0
CLASS
  1
ACDBPLACEHOLDER
  2
AcDbPlaceHolder
  3
AutoCAD 2000
 90
        0
280
     0
281
     0
  0
CLASS
  1
LAYOUT
  2
AcDbLayout
  3
AutoCAD 2000
 90
        0
280
     0
281
     0
  0
CLASS
  1
DICTIONARYVAR
  2
AcDbDictionaryVar
  3
AutoCAD 2000
 90
        0
280
     0
281
     0
  0
ENDSEC
  0
SECTION
  2
TABLES
  0
TABLE
  2
VPORT
  5
8
330
0
100
AcDbSymbolTable
 70
     3
  0
VPORT
  5
230
330
8
100
AcDbSymbolTableRecord
100
AcDbViewportTableRecord
  2
*Active
 70
     0
 10
0.0
 20
0.0
 11
1.0
 21
1.0
 12
-592.4356916125841
 22
1060.957720034645
 13
0.0
 23
0.0
 14
10.0
 24
10.0
 15
10.0
 25
10.0
 16
0.0
 26
0.0
 36
1.0
 17
0.0
 27
0.0
 37
0.0
 40
2141.120432450132
 41
2.187425860023724
 42
50.0
 43
0.0
 44
0.0
 50
0.0
 51
0.0
 71
     0
 72
   100
 73
     1
 74
     3
 75
     0
 76
     0
 77
     0
 78
     0
281
     0
 65
     1
110
0.0
120
0.0
130
0.0
111
1.0
121
0.0
131
0.0
112
0.0
122
1.0
132
0.0
 79
     0
146
0.0
  0
ENDTAB
  0
TABLE
  2
LTYPE
  5
5
330
0
100
AcDbSymbolTable
 70
     1
  0
LTYPE
  5
14
330
5
100
AcDbSymbolTableRecord
100
AcDbLinetypeTableRecord
  2
ByBlock
 70
     0
  3

 72
    65
 73
     0
 40
0.0
  0
LTYPE
  5
15
330
5
100
AcDbSymbolTableRecord
100
AcDbLinetypeTableRecord
  2
ByLayer
 70
     0
  3

 72
    65
 73
     0
 40
0.0
  0
LTYPE
  5
16
330
5
100
AcDbSymbolTableRecord
100
AcDbLinetypeTableRecord
  2
Continuous
 70
     0
  3
Solid line
 72
    65
 73
     0
 40
0.0
  0
ENDTAB
  0
TABLE
  2
LAYER
  5
2
102
{ACAD_XDICTIONARY
360
8C
102
}
330
0
100
AcDbSymbolTable
 70
     2
  0
LAYER
  5
10
330
2
100
AcDbSymbolTableRecord
100
AcDbLayerTableRecord
  2
0
 70
     0
 62
     7
  6
Continuous
370
    -3
390
F
  0
LAYER
  5
76
102
{ACAD_XDICTIONARY
360
77
102
}
330
2
100
AcDbSymbolTableRecord
100
AcDbLayerTableRecord
  2
ceco.net 407
 70
     0
 62
     7
  6
Continuous
370
    -3
390
F
1001
AcAecLayerStandard
1000

1000

  0
ENDTAB
  0
TABLE
  2
STYLE
  5
3
330
0
100
AcDbSymbolTable
 70
     1
  0
STYLE
  5
11
330
3
100
AcDbSymbolTableRecord
100
AcDbTextStyleTableRecord
  2
Standard
 70
     0
 40
0.0
 41
1.0
 50
0.0
 71
     0
 42
2.5
  3
txt
  4

  0
ENDTAB
  0
TABLE
  2
VIEW
  5
6
330
0
100
AcDbSymbolTable
 70
     0
  0
ENDTAB
  0
TABLE
  2
UCS
  5
7
330
0
100
AcDbSymbolTable
 70
     0
  0
ENDTAB
  0
TABLE
  2
APPID
  5
9
330
0
100
AcDbSymbolTable
 70
    18
  0
APPID
  5
12
330
9
100
AcDbSymbolTableRecord
100
AcDbRegAppTableRecord
  2
ACAD
 70
     0
  0
APPID
  5
7B
330
9
100
AcDbSymbolTableRecord
100
AcDbRegAppTableRecord
  2
ACAD_PSEXT
 70
     0
  0
APPID
  5
7C
330
9
100
AcDbSymbolTableRecord
100
AcDbRegAppTableRecord
  2
AcadAnnoPO
 70
     0
  0
APPID
  5
7D
330
9
100
AcDbSymbolTableRecord
100
AcDbRegAppTableRecord
  2
AcadAnnotative
 70
     0
  0
APPID
  5
7E
330
9
100
AcDbSymbolTableRecord
100
AcDbRegAppTableRecord
  2
ACAD_DSTYLE_DIMJAG
 70
     0
  0
APPID
  5
7F
330
9
100
AcDbSymbolTableRecord
100
AcDbRegAppTableRecord
  2
ACAD_DSTYLE_DIMTALN
 70
     0
  0
APPID
  5
80
330
9
100
AcDbSymbolTableRecord
100
AcDbRegAppTableRecord
  2
ACAD_MLEADERVER
 70
     0
  0
APPID
  5
81
330
9
100
AcDbSymbolTableRecord
100
AcDbRegAppTableRecord
  2
ACAD_NAV_VCDISPLAY
 70
     0
  0
APPID
  5
82
330
9
100
AcDbSymbolTableRecord
100
AcDbRegAppTableRecord
  2
AcAecLayerStandard
 70
     0
  0
APPID
  5
83
330
9
100
AcDbSymbolTableRecord
100
AcDbRegAppTableRecord
  2
AcCmTransparency
 70
     0
  0
APPID
  5
84
330
9
100
AcDbSymbolTableRecord
100
AcDbRegAppTableRecord
  2
ACAD_EXEMPT_FROM_CAD_STANDARDS
 70
     0
  0
APPID
  5
85
330
9
100
AcDbSymbolTableRecord
100
AcDbRegAppTableRecord
  2
ACAD_DSTYLE_DIMJOGGED_JOGANGLE_SYMBOL
 70
     0
  0
APPID
  5
86
330
9
100
AcDbSymbolTableRecord
100
AcDbRegAppTableRecord
  2
ACAUTHENVIRON
 70
     0
  0
APPID
  5
87
330
9
100
AcDbSymbolTableRecord
100
AcDbRegAppTableRecord
  2
AcDbDynamicBlockTrueName
 70
     0
  0
APPID
  5
88
330
9
100
AcDbSymbolTableRecord
100
AcDbRegAppTableRecord
  2
AcDbDynamicBlockGUID
 70
     0
  0
APPID
  5
89
330
9
100
AcDbSymbolTableRecord
100
AcDbRegAppTableRecord
  2
RAK
 70
     0
  0
APPID
  5
8A
330
9
100
AcDbSymbolTableRecord
100
AcDbRegAppTableRecord
  2
AcadAnnoMonitorAlertIconDisabled
 70
     0
  0
APPID
  5
8B
330
9
100
AcDbSymbolTableRecord
100
AcDbRegAppTableRecord
  2
ADE_PROJECTION
 70
     0
  0
ENDTAB
  0
TABLE
  2
DIMSTYLE
  5
A
330
0
100
AcDbSymbolTable
 70
     3
100
AcDbDimStyleTable
 71
     1
340
27
  0
DIMSTYLE
105
27
330
A
100
AcDbSymbolTableRecord
100
AcDbDimStyleTableRecord
  2
ISO-25
 70
     0
 41
2.5
 42
0.625
 43
3.75
 44
1.25
 73
     0
 74
     0
 77
     1
 78
     8
140
2.5
141
2.5
143
0.03937007874016
147
0.625
171
     3
172
     1
271
     2
272
     2
274
     3
278
    44
283
     0
284
     8
340
11
  0
DIMSTYLE
105
7A
330
A
100
AcDbSymbolTableRecord
100
AcDbDimStyleTableRecord
  2
Standard
 70
     0
340
11
  0
ENDTAB
  0
TABLE
  2
BLOCK_RECORD
  5
1
330
0
100
AcDbSymbolTable
 70
     2
  0
BLOCK_RECORD
  5
1F
330
1
100
AcDbSymbolTableRecord
100
AcDbBlockTableRecord
  2
*Model_Space
340
22
  0
BLOCK_RECORD
  5
50
330
1
100
AcDbSymbolTableRecord
100
AcDbBlockTableRecord
  2
*Paper_Space
340
51
  0
BLOCK_RECORD
  5
55
330
1
100
AcDbSymbolTableRecord
100
AcDbBlockTableRecord
  2
*Paper_Space0
340
56
  0
ENDTAB
  0
ENDSEC
  0
SECTION
  2
BLOCKS
  0
BLOCK
  5
20
330
1F
100
AcDbEntity
  8
0
100
AcDbBlockBegin
  2
*Model_Space
 70
     0
 10
0.0
 20
0.0
 30
0.0
  3
*Model_Space
  1

  0
ENDBLK
  5
21
330
1F
100
AcDbEntity
  8
0
100
AcDbBlockEnd
  0
BLOCK
  5
52
330
50
100
AcDbEntity
 67
     1
  8
0
100
AcDbBlockBegin
  2
*Paper_Space
 70
     0
 10
0.0
 20
0.0
 30
0.0
  3
*Paper_Space
  1

  0
ENDBLK
  5
53
330
50
100
AcDbEntity
 67
     1
  8
0
100
AcDbBlockEnd
  0
BLOCK
  5
57
330
55
100
AcDbEntity
  8
0
100
AcDbBlockBegin
  2
*Paper_Space0
 70
     0
 10
0.0
 20
0.0
 30
0.0
  3
*Paper_Space0
  1

  0
ENDBLK
  5
58
330
55
100
AcDbEntity
  8
0
100
AcDbBlockEnd
  0
ENDSEC
  0
SECTION
  2
ENTITIES
  0
ARC
  5
160
330
1F
100
AcDbEntity
  8
ceco.net 407
100
AcDbCircle
 10
0.0
 20
372.4087770206675
 30
0.0
 40
309.7130940819898
100
AcDbArc
 50
119.0482974520211
 51
102.0302275236854
  0
ARC
  5
161
330
1F
100
AcDbEntity
  8
ceco.net 407
100
AcDbCircle
 10
0.0
 20
372.4087770206675
 30
0.0
 40
324.4650269069633
100
AcDbArc
 50
118.7061709688264
 51
102.6854760990905
  0
ARC
  5
162
330
1F
100
AcDbEntity
  8
ceco.net 407
100
AcDbCircle
 10
0.0
 20
372.4087770206675
 30
0.0
 40
372.4087770206675
100
AcDbArc
 50
117.7826968191915
 51
104.4478309774568
  0
ARC
  5
163
330
1F
100
AcDbEntity
  8
ceco.net 407
100
AcDbCircle
 10
0.0
 20
372.4087770206675
 30
0.0
 40
367.2252854370775
100
AcDbArc
 50
117.8708395783211
 51
104.2799910972418
  0
CIRCLE
  5
164
330
1F
100
AcDbEntity
  8
ceco.net 407
100
AcDbCircle
 10
0.0
 20
372.4087770206675
 30
0.0
 40
23.1342296584736
  0
LWPOLYLINE
  5
165
330
1F
100
AcDbEntity
  8
ceco.net 407
100
AcDbPolyline
 90
        2
 70
     0
 43
0.0
 10
-19.95027763545112
 20
384.1211211143998
 42
-0.2829101338223668
 10
-55.74867430748963
 20
403.7031225619001
 42
-0.0666035700694211
  0
LWPOLYLINE
  5
166
330
1F
100
AcDbEntity
  8
ceco.net 407
100
AcDbPolyline
 90
        5
 70
     0
 43
0.0
 10
3.731301298834296
 20
395.2401145309623
 10
-98.93303035076224
 20
610.6406365961348
 42
-0.4843020388792031
 10
-82.36683475665087
 20
644.3097110758039
 42
0.0421311376073055
 10
-61.6764197390803
 20
650.6134753001957
 42
0.4335179209358151
 10
-57.57143784507843
 20
661.1122341445427
 42
-47.56274208853844
  0
LWPOLYLINE
  5
167
330
1F
100
AcDbEntity
  8
ceco.net 407
100
AcDbPolyline
 90
        4
 70
     0
 43
0.0
 10
-57.57143784507843
 20
661.1122341445427
 10
-119.1669322252209
 20
786.4643558162627
 10
-192.7265582633745
 20
750.3186450630362
 10
-55.74867430748963
 20
403.7031225619001
  0
LWPOLYLINE
  5
168
330
1F
100
AcDbEntity
  8
ceco.net 407
100
AcDbPolyline
 90
        2
 70
     0
 43
0.0
 10
-20.58511372671091
 20
361.8519936680738
 10
-275.5864084702607
 20
231.0781996059205
  0
LWPOLYLINE
  5
169
330
1F
100
AcDbEntity
  8
ceco.net 407
100
AcDbPolyline
 90
        2
 70
     0
 43
0.0
 10
-16.46010023512553
 20
356.1527725255509
 10
-234.3417930566056
 20
169.9090864703756
  0
LWPOLYLINE
  5
16A
330
1F
100
AcDbEntity
  8
ceco.net 407
100
AcDbPolyline
 90
        2
 70
     0
 43
0.0
 10
-22.95431202236887
 20
369.5291691521612
 10
-307.3044187720397
 20
333.8575792561972
  0
LWPOLYLINE
  5
16B
330
1F
100
AcDbEntity
  8
ceco.net 407
100
AcDbPolyline
 90
        2
 70
     0
 43
0.0
 10
-21.02731571573804
 20
362.7628153946957
 10
-289.4682268623673
 20
262.2709257474825
  0
LWPOLYLINE
  5
16C
330
1F
100
AcDbEntity
  8
ceco.net 407
100
AcDbPolyline
 90
        2
 70
     0
 43
0.0
 10
-22.5548815186039
 20
377.5536678436616
 10
-301.9569808399319
 20
441.2868023119133
  0
LWPOLYLINE
  5
16D
330
1F
100
AcDbEntity
  8
ceco.net 407
100
AcDbPolyline
 90
        2
 70
     0
 43
0.0
 10
-23.05832659087809
 20
370.5363035951317
 10
-309.6805204126258
 20
367.9170153496788
  0
LWPOLYLINE
  5
16E
330
1F
100
AcDbEntity
  8
ceco.net 407
100
AcDbPolyline
 90
        2
 70
     0
 43
0.0
 10
-58.24320110549435
 20
410.015394912099
 10
-260.1890746077988
 20
540.4083189861313
  0
LWPOLYLINE
  5
16F
330
1F
100
AcDbEntity
  8
ceco.net 407
100
AcDbPolyline
 90
        2
 70
     0
 43
0.0
 10
-22.30816297441197
 20
378.5356397254734
 10
-292.5407728034051
 20
474.1048777007373
  0
LWPOLYLINE
  5
170
330
1F
100
AcDbEntity
  8
ceco.net 407
100
AcDbPolyline
 90
        2
 70
     0
 43
0.0
 10
-90.67612967991713
 20
492.0852602028062
 10
-187.0385259965169
 20
619.2666114901376
  0
LWPOLYLINE
  5
171
330
1F
100
AcDbEntity
  8
ceco.net 407
100
AcDbPolyline
 90
        2
 70
     0
 43
0.0
 10
-63.0547482409359
 20
422.1907686018184
 10
-240.1162905520586
 20
568.0266894351874
  0
LWPOLYLINE
  5
172
330
1F
100
AcDbEntity
  8
ceco.net 407
100
AcDbPolyline
 90
        2
 70
     0
 43
0.0
 10
-26.84044393540015
 20
459.3828384749839
 10
-83.80004418143332
 20
643.9553360153998
  0
LWPOLYLINE
  5
173
330
1F
100
AcDbEntity
  8
ceco.net 407
100
AcDbPolyline
 90
        2
 70
     0
 43
0.0
 10
-127.6430416975154
 20
585.6281384703666
 10
-158.7302399211139
 20
638.3540939195344
  0
LWPOLYLINE
  5
174
330
1F
100
AcDbEntity
  8
ceco.net 407
100
AcDbPolyline
 90
        2
 70
     0
 43
0.0
 10
1.38183079878796
 20
400.1695497511126
 10
15.39733386231182
 20
681.7388964008408
  0
LWPOLYLINE
  5
175
330
1F
100
AcDbEntity
  8
ceco.net 407
100
AcDbPolyline
 90
        2
 70
     0
 43
0.0
 10
-12.10276177463981
 20
428.4616375042977
 10
-58.1989797469505
 20
676.6045682510103
  0
LWPOLYLINE
  5
176
330
1F
100
AcDbEntity
  8
ceco.net 407
100
AcDbPolyline
 90
        2
 70
     0
 43
0.0
 10
8.983342443880246
 20
393.7275982925496
 10
120.2658927753727
 20
657.8178092545892
  0
LWPOLYLINE
  5
177
330
1F
100
AcDbEntity
  8
ceco.net 407
100
AcDbPolyline
 90
        2
 70
     0
 43
0.0
 10
2.542615439509374
 20
397.7341019807027
 10
49.35193631015772
 20
678.1645407083725
  0
LWPOLYLINE
  5
178
330
1F
100
AcDbEntity
  8
ceco.net 407
100
AcDbPolyline
 90
        2
 70
     0
 43
0.0
 10
15.73304691147586
 20
389.3694319834456
 10
210.6286100844363
 20
599.4721806322285
  0
LWPOLYLINE
  5
179
330
1F
100
AcDbEntity
  8
ceco.net 407
100
AcDbPolyline
 90
        2
 70
     0
 43
0.0
 10
9.907553740866205
 20
393.3141103296648
 10
150.9502804913618
 20
642.8458555905043
  0
LWPOLYLINE
  5
17A
330
1F
100
AcDbEntity
  8
ceco.net 407
100
AcDbPolyline
 90
        2
 70
     0
 43
0.0
 10
20.58511372640987
 20
382.9655603732047
 10
275.5864084699596
 20
513.7393544353581
  0
LWPOLYLINE
  5
17B
330
1F
100
AcDbEntity
  8
ceco.net 407
100
AcDbPolyline
 90
        2
 70
     0
 43
0.0
 10
16.46010023482449
 20
388.6647815157278
 10
234.3417930563045
 20
574.9084675709029
  0
LWPOLYLINE
  5
17C
330
1F
100
AcDbEntity
  8
ceco.net 407
100
AcDbPolyline
 90
        2
 70
     0
 43
0.0
 10
22.95431202206782
 20
375.2883848891362
 10
307.3044187717387
 20
410.9599747851002
  0
LWPOLYLINE
  5
17D
330
1F
100
AcDbEntity
  8
ceco.net 407
100
AcDbPolyline
 90
        2
 70
     0
 43
0.0
 10
21.02731571543699
 20
382.0547386466017
 10
289.4682268620663
 20
482.5466282938149
  0
LWPOLYLINE
  5
17E
330
1F
100
AcDbEntity
  8
ceco.net 407
100
AcDbPolyline
 90
        2
 70
     0
 43
0.0
 10
22.55488151830286
 20
367.263886197617
 10
301.9569808396308
 20
303.5307517293653
  0
LWPOLYLINE
  5
17F
330
1F
100
AcDbEntity
  8
ceco.net 407
100
AcDbPolyline
 90
        2
 70
     0
 43
0.0
 10
23.05832659057705
 20
374.2812504461469
 10
309.6805204123247
 20
376.9005386915997
  0
LWPOLYLINE
  5
180
330
1F
100
AcDbEntity
  8
ceco.net 407
100
AcDbPolyline
 90
        2
 70
     0
 43
0.0
 10
19.43499942870494
 20
359.859937269887
 10
260.1890746074977
 20
204.4092350551472
  0
LWPOLYLINE
  5
181
330
1F
100
AcDbEntity
  8
ceco.net 407
100
AcDbPolyline
 90
        2
 70
     0
 43
0.0
 10
22.30816297411092
 20
366.2819143158052
 10
292.5407728031041
 20
270.7126763405413
  0
LWPOLYLINE
  5
182
330
1F
100
AcDbEntity
  8
ceco.net 407
100
AcDbPolyline
 90
        2
 70
     0
 43
0.0
 10
13.97096957803751
 20
353.9695636172165
 10
187.0385259962158
 20
125.550942551141
  0
LWPOLYLINE
  5
183
330
1F
100
AcDbEntity
  8
ceco.net 407
100
AcDbPolyline
 90
        2
 70
     0
 43
0.0
 10
18.86730566968253
 20
359.0215682505304
 10
240.1162905517576
 20
176.7908646060912
  0
LWPOLYLINE
  5
184
330
1F
100
AcDbEntity
  8
ceco.net 407
100
AcDbPolyline
 90
        2
 70
     0
 43
0.0
 10
6.821834606676929
 20
350.3032312348201
 10
91.32837075489351
 20
76.46734811778554
  0
LWPOLYLINE
  5
185
330
1F
100
AcDbEntity
  8
ceco.net 407
100
AcDbPolyline
 90
        2
 70
     0
 43
0.0
 10
13.15077284955987
 20
353.375917137112
 10
158.7302399208128
 20
106.4634601217442
  0
LWPOLYLINE
  5
186
330
1F
100
AcDbEntity
  8
ceco.net 407
100
AcDbPolyline
 90
        2
 70
     0
 43
0.0
 10
-1.150114297855907
 20
349.3031539173121
 10
-15.39733386261286
 20
63.07865764045669
  0
LWPOLYLINE
  5
187
330
1F
100
AcDbEntity
  8
ceco.net 407
100
AcDbPolyline
 90
        2
 70
     0
 43
0.0
 10
5.848062739136366
 20
350.025909820745
 10
58.19897974664946
 20
68.21298579028709
  0
LWPOLYLINE
  5
188
330
1F
100
AcDbEntity
  8
ceco.net 407
100
AcDbPolyline
 90
        2
 70
     0
 43
0.0
 10
-8.983342444181289
 20
351.0899557487291
 10
-120.2658927756738
 20
86.99974478668952
  0
LWPOLYLINE
  5
189
330
1F
100
AcDbEntity
  8
ceco.net 407
100
AcDbPolyline
 90
        2
 70
     0
 43
0.0
 10
-2.160010045905437
 20
349.3756066245962
 10
-49.35193631045876
 20
66.6530133329062
  0
LWPOLYLINE
  5
18A
330
1F
100
AcDbEntity
  8
ceco.net 407
100
AcDbPolyline
 90
        2
 70
     0
 43
0.0
 10
-15.73304691177691
 20
355.4481220578517
 10
-210.6286100847373
 20
145.3453734090689
  0
LWPOLYLINE
  5
18B
330
1F
100
AcDbEntity
  8
ceco.net 407
100
AcDbPolyline
 90
        2
 70
     0
 43
0.0
 10
-9.907553741167248
 20
351.5034437116326
 10
-150.9502804916628
 20
101.9716984507932
  0
ARC
  5
18C
330
1F
100
AcDbEntity
  8
ceco.net 407
100
AcDbCircle
 10
-1184.638469677193
 20
370.260066636186
 30
0.0
 40
309.7130940819898
100
AcDbArc
 50
357.0457108970649
 51
42.99807804665548
  0
ARC
  5
18D
330
1F
100
AcDbEntity
  8
ceco.net 407
100
AcDbCircle
 10
-1184.638469677193
 20
370.260066636186
 30
0.0
 40
324.4650269069633
100
AcDbArc
 50
356.9459700648724
 51
43.08118809988469
  0
ARC
  5
18E
330
1F
100
AcDbEntity
  8
ceco.net 407
100
AcDbCircle
 10
-1184.638469677193
 20
370.260066636186
 30
0.0
 40
372.4087770206675
100
AcDbArc
 50
356.6764158533771
 51
43.30580464283881
  0
ARC
  5
18F
330
1F
100
AcDbEntity
  8
ceco.net 407
100
AcDbCircle
 10
-1184.638469677193
 20
370.260066636186
 30
0.0
 40
367.2252854370775
100
AcDbArc
 50
356.7021635879175
 51
43.28434878312733
  0
CIRCLE
  5
190
330
1F
100
AcDbEntity
  8
ceco.net 407
100
AcDbCircle
 10
-1184.638469677193
 20
370.260066636186
 30
0.0
 40
23.1342296584736
  0
LWPOLYLINE
  5
191
330
1F
100
AcDbEntity
  8
ceco.net 407
100
AcDbPolyline
 90
        2
 70
     0
 43
0.0
 10
-1205.223583403753
 20
359.7032832836299
 10
-1460.224878147154
 20
228.929489221439
  0
LWPOLYLINE
  5
192
330
1F
100
AcDbEntity
  8
ceco.net 407
100
AcDbPolyline
 90
        2
 70
     0
 43
0.0
 10
-1201.098569912168
 20
354.0040621410881
 10
-1418.980262733348
 20
167.7603760859881
  0
LWPOLYLINE
  5
193
330
1F
100
AcDbEntity
  8
ceco.net 407
100
AcDbPolyline
 90
        2
 70
     0
 43
0.0
 10
-1207.592781699562
 20
367.3804587676984
 10
-1491.942888449083
 20
331.7088688716968
  0
LWPOLYLINE
  5
194
330
1F
100
AcDbEntity
  8
ceco.net 407
100
AcDbPolyline
 90
        2
 70
     0
 43
0.0
 10
-1205.665785392631
 20
360.6141050102142
 10
-1474.10669653941
 20
260.1222153630386
  0
LWPOLYLINE
  5
195
330
1F
100
AcDbEntity
  8
ceco.net 407
100
AcDbPolyline
 90
        2
 70
     0
 43
0.0
 10
-1207.193351195496
 20
375.4049574592928
 10
-1486.595450516824
 20
439.138091927507
  0
LWPOLYLINE
  5
196
330
1F
100
AcDbEntity
  8
ceco.net 407
100
AcDbPolyline
 90
        2
 70
     0
 43
0.0
 10
-1207.696796267771
 20
368.3875932106877
 10
-1494.318990089819
 20
365.7683049651974
  0
LWPOLYLINE
  5
197
330
1F
100
AcDbEntity
  8
ceco.net 407
100
AcDbPolyline
 90
        2
 70
     0
 43
0.0
 10
-1204.0734691062
 20
382.8089063869478
 10
-1444.827544284841
 20
538.2596086016874
  0
LWPOLYLINE
  5
198
330
1F
100
AcDbEntity
  8
ceco.net 407
100
AcDbPolyline
 90
        2
 70
     0
 43
0.0
 10
-1206.946632651455
 20
376.3869293410107
 10
-1477.179242480147
 20
471.9561673162746
  0
LWPOLYLINE
  5
199
330
1F
100
AcDbEntity
  8
ceco.net 407
100
AcDbPolyline
 90
        2
 70
     0
 43
0.0
 10
-1198.609439255532
 20
388.6992800396369
 10
-1371.67699567356
 20
617.1179011056185
  0
LWPOLYLINE
  5
19A
330
1F
100
AcDbEntity
  8
ceco.net 407
100
AcDbPolyline
 90
        2
 70
     0
 43
0.0
 10
-1203.505775346876
 20
383.6472754063418
 10
-1424.754760228951
 20
565.8779790507812
  0
LWPOLYLINE
  5
19B
330
1F
100
AcDbEntity
  8
ceco.net 407
100
AcDbPolyline
 90
        2
 70
     0
 43
0.0
 10
-1191.460304284021
 20
392.3656124220709
 10
-1275.966840432388
 20
666.2014955390681
  0
LWPOLYLINE
  5
19C
330
1F
100
AcDbEntity
  8
ceco.net 407
100
AcDbPolyline
 90
        2
 70
     0
 43
0.0
 10
-1197.789242527054
 20
389.2929265197603
 10
-1343.368709598308
 20
636.2053835350528
  0
LWPOLYLINE
  5
19D
330
1F
100
AcDbEntity
  8
ceco.net 407
100
AcDbPolyline
 90
        2
 70
     0
 43
0.0
 10
-1183.488355379187
 20
393.3656897395226
 10
-1169.241135814581
 20
679.5901860163406
  0
LWPOLYLINE
  5
19E
330
1F
100
AcDbEntity
  8
ceco.net 407
100
AcDbPolyline
 90
        2
 70
     0
 43
0.0
 10
-1190.48653241648
 20
392.6429338361085
 10
-1242.837449423693
 20
674.4558578664725
  0
LWPOLYLINE
  5
19F
330
1F
100
AcDbEntity
  8
ceco.net 407
100
AcDbPolyline
 90
        2
 70
     0
 43
0.0
 10
-1175.655127233162
 20
391.5788879080304
 10
-1064.372576901369
 20
655.6690988702016
  0
LWPOLYLINE
  5
1A0
330
1F
100
AcDbEntity
  8
ceco.net 407
100
AcDbPolyline
 90
        2
 70
     0
 43
0.0
 10
-1182.478459631438
 20
393.2932370322197
 10
-1135.286533366735
 20
676.0158303238158
  0
LWPOLYLINE
  5
1A1
330
1F
100
AcDbEntity
  8
ceco.net 407
100
AcDbPolyline
 90
        2
 70
     0
 43
0.0
 10
-1168.905422765717
 20
387.2207215990581
 10
-974.0098595924564
 20
597.3234702477282
  0
LWPOLYLINE
  5
1A2
330
1F
100
AcDbEntity
  8
ceco.net 407
100
AcDbPolyline
 90
        2
 70
     0
 43
0.0
 10
-1174.730915936026
 20
391.1653999451457
 10
-1033.688189185681
 20
640.6971452060227
  0
LWPOLYLINE
  5
1A3
330
1F
100
AcDbEntity
  8
ceco.net 407
100
AcDbPolyline
 90
        2
 70
     0
 43
0.0
 10
-1155.693875015435
 20
385.1038911168476
 10
-909.0520612069331
 20
511.590644050933
  0
LWPOLYLINE
  5
1A4
330
1F
100
AcDbEntity
  8
ceco.net 407
100
AcDbPolyline
 90
        2
 70
     0
 43
0.0
 10
-1068.843542514956
 20
471.4267585827346
 10
-950.2966766207391
 20
572.7597571864778
  0
LWPOLYLINE
  5
1A5
330
1F
100
AcDbEntity
  8
ceco.net 407
100
AcDbPolyline
 90
        2
 70
     0
 43
0.0
 10
-1129.432987227595
 20
377.1855689772455
 10
-877.334050905004
 20
408.8112644006751
  0
LWPOLYLINE
  5
1A6
330
1F
100
AcDbEntity
  8
ceco.net 407
100
AcDbPolyline
 90
        2
 70
     0
 43
0.0
 10
-1159.299583132581
 20
381.5200814185333
 10
-895.1702428149774
 20
480.3979179093334
  0
LWPOLYLINE
  5
1A7
330
1F
100
AcDbEntity
  8
ceco.net 407
100
AcDbPolyline
 90
        2
 70
     0
 43
0.0
 10
-1097.366042351086
 20
350.3527525550576
 10
-882.6814888372618
 20
301.3820413448649
  0
LWPOLYLINE
  5
1A8
330
1F
100
AcDbEntity
  8
ceco.net 407
100
AcDbPolyline
 90
        2
 70
     0
 43
0.0
 10
-1081.463498061341
 20
372.8646835980413
 10
-874.957949264718
 20
374.7518283071558
  0
LWPOLYLINE
  5
1A9
330
1F
100
AcDbEntity
  8
ceco.net 407
100
AcDbPolyline
 90
        2
 70
     0
 43
0.0
 10
-1165.203470248338
 20
357.7112268855182
 10
-924.449395069395
 20
202.2605246706846
  0
LWPOLYLINE
  5
1AA
330
1F
100
AcDbEntity
  8
ceco.net 407
100
AcDbPolyline
 90
        2
 70
     0
 43
0.0
 10
-1132.981656815277
 20
353.7538936505362
 10
-892.0976968739395
 20
268.5639659560786
  0
LWPOLYLINE
  5
1AB
330
1F
100
AcDbEntity
  8
ceco.net 407
100
AcDbPolyline
 90
        2
 70
     0
 43
0.0
 10
-1170.667500099006
 20
351.8208532327162
 10
-997.5999436809779
 20
123.4022321667535
  0
LWPOLYLINE
  5
1AC
330
1F
100
AcDbEntity
  8
ceco.net 407
100
AcDbPolyline
 90
        2
 70
     0
 43
0.0
 10
-1165.771164007661
 20
356.8728578661241
 10
-944.5221791251361
 20
174.6421542215909
  0
LWPOLYLINE
  5
1AD
330
1F
100
AcDbEntity
  8
ceco.net 407
100
AcDbPolyline
 90
        2
 70
     0
 43
0.0
 10
-1177.816635070516
 20
348.154520850301
 10
-1093.310098922149
 20
74.31863773330403
  0
LWPOLYLINE
  5
1AE
330
1F
100
AcDbEntity
  8
ceco.net 407
100
AcDbPolyline
 90
        2
 70
     0
 43
0.0
 10
-1171.487696827482
 20
351.2272067526117
 10
-1025.90822975623
 20
104.3147497374131
  0
LWPOLYLINE
  5
1AF
330
1F
100
AcDbEntity
  8
ceco.net 407
100
AcDbPolyline
 90
        2
 70
     0
 43
0.0
 10
-1185.788583974898
 20
347.1544435328494
 10
-1200.035803539505
 20
60.92994725603157
  0
LWPOLYLINE
  5
1B0
330
1F
100
AcDbEntity
  8
ceco.net 407
100
AcDbPolyline
 90
        2
 70
     0
 43
0.0
 10
-1178.790406937907
 20
347.8771994362634
 10
-1126.439489930394
 20
66.06427540588076
  0
LWPOLYLINE
  5
1B1
330
1F
100
AcDbEntity
  8
ceco.net 407
100
AcDbPolyline
 90
        2
 70
     0
 43
0.0
 10
-1193.621812121225
 20
348.9412453643227
 10
-1304.904362452716
 20
84.8510344022644
  0
LWPOLYLINE
  5
1B2
330
1F
100
AcDbEntity
  8
ceco.net 407
100
AcDbPolyline
 90
        2
 70
     0
 43
0.0
 10
-1186.798479723099
 20
347.2268962401523
 10
-1233.990405987652
 20
64.50430294853745
  0
LWPOLYLINE
  5
1B3
330
1F
100
AcDbEntity
  8
ceco.net 407
100
AcDbPolyline
 90
        2
 70
     0
 43
0.0
 10
-1200.371516588969
 20
353.2994116734078
 10
-1395.26707976178
 20
143.196663024625
  0
LWPOLYLINE
  5
1B4
330
1F
100
AcDbEntity
  8
ceco.net 407
100
AcDbPolyline
 90
        2
 70
     0
 43
0.0
 10
-1194.54602341806
 20
349.3547333272262
 10
-1335.588750168405
 20
99.82298806633053
  0
LWPOLYLINE
  5
1B5
330
1F
100
AcDbEntity
  8
ceco.net 407
100
AcDbPolyline
 90
        2
 70
     0
 43
0.0
 10
-102.3133297137519
 20
752.1658271025073
 42
-0.0285502627508886
 10
11.83149199304625
 20
768.7102863250185
 42
55.56830625023635
  0
LWPOLYLINE
  5
1B6
330
1F
100
AcDbEntity
  8
ceco.net 407
100
AcDbPolyline
 90
        3
 70
     0
 43
0.0
 10
11.83149199304625
 20
768.7102863250185
 10
19.47024185040208
 20
776.9623298133212
 42
0.0642838444411189
 10
-110.6570971731653
 20
769.1461105522429
 42
14.52068295345502
  0
LWPOLYLINE
  5
1B7
330
1F
100
AcDbEntity
  8
ceco.net 407
100
AcDbPolyline
 90
        3
 70
     0
 43
0.0
 10
-181.0261375900772
 20
720.711329575338
 42
0.0898283469739236
 10
-386.6930789880561
 20
564.855544609795
 42
-0.3215724832046663
 10
-444.8198584616175
 20
552.7456967207995
 42
-0.0421952460393924
  0
LWPOLYLINE
  5
1B8
330
1F
100
AcDbEntity
  8
ceco.net 407
100
AcDbPolyline
 90
        2
 70
     0
 43
0.0
 10
-188.6410782492293
 20
739.9805470520515
 42
0.0648795483116557
 10
-444.8198584616175
 20
552.7456967207995
 42
0.4591884709878359
  0
LWPOLYLINE
  5
1B9
330
1F
100
AcDbEntity
  8
ceco.net 407
100
AcDbPolyline
 90
        4
 70
     0
 43
0.0
 10
-141.6458809190107
 20
775.4186555959904
 10
-167.1762657624813
 20
825.633301662388
 10
-208.1155928662801
 20
804.8187214937838
 10
-183.5508668142856
 20
754.8273940457725
  0
LWPOLYLINE
  5
1BA
330
1F
100
AcDbEntity
  8
ceco.net 407
100
AcDbPolyline
 90
        8
 70
     0
 43
0.0
 10
-176.3713130719897
 20
820.9583091083327
 10
-213.8385621277921
 20
849.9468958553253
 10
-252.8393740174897
 20
940.4039124631541
 10
-264.0710160485832
 20
1010.883018659721
 10
-266.550849172263
 20
1026.444093488428
 10
-206.4472247751873
 20
1027.140847411659
 10
-177.9344906745382
 20
1058.932536629079
 10
-162.2272985956606
 20
1055.498095225575
  0
LWPOLYLINE
  5
1BB
330
1F
100
AcDbEntity
  8
ceco.net 407
100
AcDbPolyline
 90
        3
 70
     0
 43
0.0
 10
-156.9984812190214
 20
1079.411747907248
 10
-316.3012553221897
 20
1114.243947089261
 42
0.8126712826847505
 10
-326.4486306522576
 20
1091.595592455479
  0
LWPOLYLINE
  5
1BC
330
1F
100
AcDbEntity
  8
ceco.net 407
100
AcDbPolyline
 90
        6
 70
     0
 43
0.0
 10
-326.4486306522576
 20
1091.595592455479
 10
-270.100922010929
 20
1080.350607355242
 10
-274.5151503486549
 20
1058.231267040371
 10
-278.0323138336953
 20
1040.60704597471
 10
-310.3031591877806
 20
1034.433626276923
 10
-287.0073066938412
 20
927.0616780387642
  0
LWPOLYLINE
  5
1BD
330
1F
100
AcDbEntity
  8
ceco.net 407
100
AcDbPolyline
 90
        2
 70
     0
 43
0.0
 10
-162.2272985956606
 20
1055.498095225575
 42
0.547472575933658
 10
-156.9984812190214
 20
1079.411747907248
 42
0.0248702964378266
  0
ARC
  5
1BE
330
1F
100
AcDbEntity
  8
ceco.net 407
100
AcDbCircle
 10
-1184.638469677193
 20
370.260066636186
 30
0.0
 40
74.71937683201665
100
AcDbArc
 50
3.978348416310804
 51
37.22990983696998
  0
LWPOLYLINE
  5
1BF
330
1F
100
AcDbEntity
  8
ceco.net 407
100
AcDbPolyline
 90
        2
 70
     0
 43
0.0
 10
-755.5351201856037
 20
317.9468878193408
 10
-1112.240213099104
 20
351.7809508934405
  0
LWPOLYLINE
  5
1C0
330
1F
100
AcDbEntity
  8
ceco.net 407
100
AcDbPolyline
 90
        2
 70
     0
 43
0.0
 10
-748.4078420064597
 20
342.9042054871377
 10
-1110.09914116593
 20
375.4440592337794
  0
LWPOLYLINE
  5
1C1
330
1F
100
AcDbEntity
  8
ceco.net 407
100
AcDbPolyline
 90
        3
 70
     0
 43
0.0
 10
-1162.838395012797
 20
378.0027616786129
 10
-842.2615626696169
 20
696.6326461507474
 10
-757.2177018610282
 20
406.876784814407
  0
LWPOLYLINE
  5
1C2
330
1F
100
AcDbEntity
  8
ceco.net 407
100
AcDbPolyline
 90
        6
 70
     0
 43
0.0
 10
-1133.863514183601
 20
425.0769360177616
 10
-845.3469906435438
 20
711.0065965216347
 10
-865.4791778815106
 20
764.6460055503808
 10
-822.1308831578562
 20
779.8978271234662
 10
-806.3594088472392
 20
735.0725901277615
 10
-723.313994656929
 20
764.2915905007481
  0
LWPOLYLINE
  5
1C3
330
1F
100
AcDbEntity
  8
ceco.net 407
100
AcDbPolyline
 90
        3
 70
     0
 43
0.0
 10
-746.6082725313736
 20
719.450056982814
 10
-799.8647350289684
 20
696.5501403508233
 10
-743.8278786186502
 20
490.9472449939342
  0
LWPOLYLINE
  5
1C4
330
1F
100
AcDbEntity
  8
ceco.net 407
100
AcDbPolyline
 90
        2
 70
     0
 43
0.0
 10
-830.7730721369352
 20
776.8571279414507
 10
-878.7527568713294
 20
928.9954144887198
  0
LWPOLYLINE
  5
1C5
330
1F
100
AcDbEntity
  8
ceco.net 407
100
AcDbPolyline
 90
        2
 70
     0
 43
0.0
 10
-855.1719607633341
 20
768.2725342848242
 10
-919.6156580615943
 20
964.4887749881858
  0
LWPOLYLINE
  5
1C6
330
1F
100
AcDbEntity
  8
ceco.net 407
100
AcDbPolyline
 90
        2
 70
     0
 43
0.0
 10
-1112.240213099104
 20
351.7809508934405
 10
-1165.771164007661
 20
356.8728578661241
  0
LWPOLYLINE
  5
1C7
330
1F
100
AcDbEntity
  8
ceco.net 407
100
AcDbPolyline
 90
        2
 70
     0
 43
0.0
 10
-1110.09914116593
 20
375.4440592337794
 10
-1160.816422775023
 20
380.0124539443286
  0
LWPOLYLINE
  5
1C8
330
1F
100
AcDbEntity
  8
ceco.net 407
100
AcDbPolyline
 90
        2
 70
     0
 43
0.0
 10
-820.1386426220834
 20
500.6577485094767
 42
0.0493405114835245
 10
-910.2667709496072
 20
629.0404514824366
 42
0.4898427012365999
  0
LWPOLYLINE
  5
1C9
330
1F
100
AcDbEntity
  8
ceco.net 407
100
AcDbPolyline
 90
        3
 70
     0
 43
0.0
 10
-820.1386426220834
 20
500.6577485094767
 10
-814.2117632272775
 20
506.2950742928688
 42
0.0831817229188501
 10
-896.4666862672821
 20
642.7567246013877
 42
2.931121108162662
  0
LWPOLYLINE
  5
1CA
330
1F
100
AcDbEntity
  8
ceco.net 407
100
AcDbPolyline
 90
        4
 70
     0
 43
0.0
 10
-905.2605894557327
 20
651.6301879969404
 42
0.0392144496528303
 10
-1016.981200114125
 20
771.1040716622899
 42
0.1402841202902272
 10
-1148.071756312895
 20
836.3441592282581
 42
0.0776588474892858
 10
-1367.949964000829
 20
842.5084407359902
 42
-0.0380741379596946
  0
LWPOLYLINE
  5
1CB
330
1F
100
AcDbEntity
  8
ceco.net 407
100
AcDbPolyline
 90
        4
 70
     0
 43
0.0
 10
-918.407251659064
 20
638.6013998552547
 10
-979.6076633298062
 20
706.1115542655293
 42
0.1309118056253326
 10
-1164.708740497646
 20
811.2997425282713
 42
0.1126168471663776
 10
-1348.567836988692
 20
817.2097694364806
 42
-0.9999999999999545
  0
LWPOLYLINE
  5
1CC
330
1F
100
AcDbEntity
  8
ceco.net 407
100
AcDbPolyline
 90
        2
 70
     0
 43
0.0
 10
-1348.567836988692
 20
817.2097694364806
 42
-0.6194562519138093
 10
-1367.949964000829
 20
842.5084407359902
 42
-0.5889226876937711
  0
LWPOLYLINE
  5
1CD
330
1F
100
AcDbEntity
  8
ceco.net 407
100
AcDbPolyline
 90
        3
 70
     0
 43
0.0
 10
-452.9464452491465
 20
249.7181163372826
 10
-774.0499964497794
 20
226.8231682484761
 42
-0.7688649976412698
 10
-784.0962145978182
 20
256.0533755308818
 42
3.61296506152268
  0
LWPOLYLINE
  5
1CE
330
1F
100
AcDbEntity
  8
ceco.net 407
100
AcDbPolyline
 90
        2
 70
     0
 43
0.0
 10
-452.9464452491465
 20
249.7181163372826
 42
0.3003114076894573
 10
-446.9058885600261
 20
264.1499456870267
 42
0.8722849128854289
  0
LWPOLYLINE
  5
1CF
330
1F
100
AcDbEntity
  8
ceco.net 407
100
AcDbPolyline
 90
        3
 70
     0
 43
0.0
 10
-446.9058885600261
 20
264.1499456870267
 10
-740.6260579170002
 20
245.2838867963849
 42
-0.1547160137554626
 10
-784.0962145978182
 20
256.0533755308818
 42
1.897420069655349
  0
LWPOLYLINE
  5
1D0
330
1F
100
AcDbEntity
  8
ceco.net 407
100
AcDbPolyline
 90
        3
 70
     0
 43
0.0
 10
-516.969354687686
 20
259.6496708813941
 42
-0.3388882580678568
 10
-524.65094749546
 20
303.8646992209696
 42
-0.3414720634738972
 10
-514.9822391307289
 20
308.3131852678879
 42
-7.15388769557892
  0
LWPOLYLINE
  5
1D1
330
1F
100
AcDbEntity
  8
ceco.net 407
100
AcDbPolyline
 90
        2
 70
     0
 43
0.0
 10
-514.9822391307289
 20
308.3131852678879
 42
0.2067699842665847
 10
-454.342405098876
 20
287.8274328653501
 42
64.22769983242154
  0
LWPOLYLINE
  5
1D2
330
1F
100
AcDbEntity
  8
ceco.net 407
100
AcDbPolyline
 90
        3
 70
     0
 43
0.0
 10
-454.342405098876
 20
287.8274328653501
 42
-0.8011329870593794
 10
-449.6473984026152
 20
272.7532726234238
 42
0.0768554810879722
 10
-461.5653664965621
 20
263.2083468357116
 42
-0.4097827698160346
  0
LWPOLYLINE
  5
1D3
330
1F
100
AcDbEntity
  8
ceco.net 407
100
AcDbPolyline
 90
        2
 70
     0
 43
0.0
 10
-481.1243016743774
 20
281.8286623879767
 42
-0.4296161953952721
 10
-470.8637547689977
 20
262.6110983010308
 42
-5.314120004275647
  0
LWPOLYLINE
  5
1D4
330
1F
100
AcDbEntity
  8
ceco.net 407
100
AcDbPolyline
 90
        2
 70
     0
 43
0.0
 10
-496.1954536613847
 20
280.0280351784447
 42
-0.1990577094144914
 10
-496.0773841865293
 20
260.9915914811849
 42
-4.496750683517594
  0
LWPOLYLINE
  5
1D5
330
1F
100
AcDbEntity
  8
ceco.net 407
100
AcDbPolyline
 90
        3
 70
     0
 43
0.0
 10
-514.9822391307289
 20
308.3131852678879
 10
-517.9202504116265
 20
319.4428321157893
 42
0.5278741246029241
 10
-551.6235864886011
 20
331.4145840030488
 42
-0.2979875856435559
  0
LWPOLYLINE
  5
1D6
330
1F
100
AcDbEntity
  8
ceco.net 407
100
AcDbPolyline
 90
        3
 70
     0
 43
0.0
 10
-551.6235864886011
 20
331.4145840030488
 10
-553.7253740798796
 20
305.4531788182216
 42
-0.4712427609441882
 10
-562.5414916610043
 20
299.3011633982175
 42
0.0969901757318523
  0
LWPOLYLINE
  5
1D7
330
1F
100
AcDbEntity
  8
ceco.net 407
100
AcDbPolyline
 90
        4
 70
     0
 43
0.0
 10
-562.5414916610043
 20
299.3011633982175
 10
-619.1182714835686
 20
304.7854125194035
 42
-0.3831129720005425
 10
-628.7839558799296
 20
315.3194792655245
 42
-0.310178138245183
 10
-607.9242275574979
 20
346.4181833236899
 42
6.051017456972635
  0
LWPOLYLINE
  5
1D8
330
1F
100
AcDbEntity
  8
ceco.net 407
100
AcDbPolyline
 90
        4
 70
     0
 43
0.0
 10
-607.9242275574979
 20
346.4181833236899
 10
-606.8700236184968
 20
355.5969557495446
 10
-625.8218699463005
 20
376.6843394415748
 42
-0.191102842440071
 10
-639.4948441032393
 20
413.6292061377614
 42
1.076943879999386
  0
LWPOLYLINE
  5
1D9
330
1F
100
AcDbEntity
  8
ceco.net 407
100
AcDbPolyline
 90
        2
 70
     0
 43
0.0
 10
-551.6235864886011
 20
331.4145840030488
 10
-607.9242275574979
 20
346.4181833236899
  0
LWPOLYLINE
  5
1DA
330
1F
100
AcDbEntity
  8
ceco.net 407
100
AcDbPolyline
 90
        3
 70
     0
 43
0.0
 10
-582.7370623693632
 20
255.4253186725274
 10
-597.6196806736407
 20
278.5047021923397
 10
-663.4816037612336
 20
250.2389834054753
  0
LWPOLYLINE
  5
1DB
330
1F
100
AcDbEntity
  8
ceco.net 407
100
AcDbPolyline
 90
        5
 70
     0
 43
0.0
 10
-719.6059623828696
 20
246.634037046879
 10
-717.7754464111394
 20
270.1061613572087
 42
0.2082308457112994
 10
-722.6825965598009
 20
284.3043821282766
 42
0.1598517291386682
 10
-746.958721584383
 20
297.8966923401505
 42
-0.3317097185479815
 10
-757.8398001252317
 20
309.8897140241243
 42
-0.1731383862082145
  0
LWPOLYLINE
  5
1DC
330
1F
100
AcDbEntity
  8
ceco.net 407
100
AcDbPolyline
 90
        9
 70
     0
 43
0.0
 10
-757.8398001252317
 20
309.8897140241243
 10
-749.1211104129789
 20
340.3703014013574
 42
0.1223363367800059
 10
-743.8278786186502
 20
490.9472449939342
 42
-0.0146591475617473
 10
-757.3751055032389
 20
600.6077090088766
 42
0.0063446944978662
 10
-763.9858067022124
 20
638.4624007453012
 42
-0.1155908435683713
 10
-723.313994656929
 20
764.2915905007481
 42
0.3430986710513848
 10
-724.6489288308785
 20
802.2145733995849
 42
0.1361931252920205
 10
-793.3283839565965
 20
849.5911458610905
 42
-0.0800164813522013
 10
-878.7527568713294
 20
928.9954144887198
 42
-4.969474074013574
  0
LWPOLYLINE
  5
1DD
330
1F
100
AcDbEntity
  8
ceco.net 407
100
AcDbPolyline
 90
        2
 70
     0
 43
0.0
 10
-754.3883617785049
 20
302.0885234319014
 42
0.0677352436539355
 10
-735.9358534096891
 20
245.5851452173916
 42
-1.508581006790941
  0
LWPOLYLINE
  5
1DE
330
1F
100
AcDbEntity
  8
ceco.net 407
100
AcDbPolyline
 90
        2
 70
     0
 43
0.0
 10
-784.0962145978182
 20
256.0533755308818
 10
-742.7129130400471
 20
261.0691324599863
  0
LWPOLYLINE
  5
1DF
330
1F
100
AcDbEntity
  8
ceco.net 407
100
AcDbPolyline
 90
        5
 70
     0
 43
0.0
 10
-629.0690306381994
 20
380.6671812092968
 42
-0.2276785916252784
 10
-642.169000937045
 20
346.4377910472973
 42
-0.0404090953226883
 10
-678.7464087258667
 20
317.0531596256381
 42
-0.253646430263132
 10
-699.7165152943662
 20
314.9662100035473
 42
-0.0386819078370555
 10
-749.1211104129789
 20
340.3703014013574
 42
0.3110571234898885
  0
LWPOLYLINE
  5
1E0
330
1F
100
AcDbEntity
  8
ceco.net 407
100
AcDbPolyline
 90
        5
 70
     0
 43
0.0
 10
-639.4948441032393
 20
413.6292061377614
 42
-0.0703666568191786
 10
-600.5419495422638
 20
729.9869326089342
 42
0.0542040548989511
 10
-582.7494146694907
 20
844.0719638080636
 42
0.1373281706072229
 10
-590.9755254244346
 20
879.7607759834296
 42
0.0746848912525077
 10
-808.9301044786843
 20
1167.31204902715
 42
0.4370050120977801
  0
LWPOLYLINE
  5
1E1
330
1F
100
AcDbEntity
  8
ceco.net 407
100
AcDbPolyline
 90
        2
 70
     0
 43
0.0
 10
-590.9755254244346
 20
879.7607759834296
 42
-0.1832575127187634
 10
-719.9524708043981
 20
794.5618363784732
 42
-0.0854133691208722
  0
LWPOLYLINE
  5
1E2
330
1F
100
AcDbEntity
  8
ceco.net 407
100
AcDbPolyline
 90
        3
 70
     0
 43
0.0
 10
-208.1155928662801
 20
804.8187214937838
 10
-237.3574633919997
 20
789.9514214820666
 42
-0.1508650857579738
 10
-249.591951851431
 20
843.23119250234
 42
1.133090337076848
  0
LWPOLYLINE
  5
1E3
330
1F
100
AcDbEntity
  8
ceco.net 407
100
AcDbPolyline
 90
        2
 70
     0
 43
0.0
 10
-249.591951851431
 20
843.23119250234
 42
0.2321644921015092
 10
-290.4768673240259
 20
824.8205024529333
 42
-0.4396854236715664
  0
LWPOLYLINE
  5
1E4
330
1F
100
AcDbEntity
  8
ceco.net 407
100
AcDbPolyline
 90
        2
 70
     0
 43
0.0
 10
-290.4768673240259
 20
824.8205024529333
 10
-639.2711071790126
 20
407.3525467370601
  0
LWPOLYLINE
  5
1E5
330
1F
100
AcDbEntity
  8
ceco.net 407
100
AcDbPolyline
 90
        2
 70
     0
 43
0.0
 10
-287.0073066938412
 20
927.0616780387642
 10
-584.0492595500645
 20
824.1371454884218
  0
LWPOLYLINE
  5
1E6
330
1F
100
AcDbEntity
  8
ceco.net 407
100
AcDbPolyline
 90
        2
 70
     0
 43
0.0
 10
-588.5537464588142
 20
786.547234439916
 10
-336.2270085568697
 20
876.2735558786578
  0
LWPOLYLINE
  5
1E7
330
1F
100
AcDbEntity
  8
ceco.net 407
100
AcDbPolyline
 90
        2
 70
     0
 43
0.0
 10
-336.2270085568697
 20
876.2735558786578
 42
-0.7427102748670472
 10
-329.6863387114117
 20
867.3928813142872
 42
-0.4690097956383993
  0
LWPOLYLINE
  5
1E8
330
1F
100
AcDbEntity
  8
ceco.net 407
100
AcDbPolyline
 90
        2
 70
     0
 43
0.0
 10
-329.6863387114117
 20
867.3928813142872
 10
-638.9060486735615
 20
476.0374118608138
  0
LWPOLYLINE
  5
1E9
330
1F
100
AcDbEntity
  8
ceco.net 407
100
AcDbPolyline
 90
        2
 70
     0
 43
0.0
 10
-237.3574633919997
 20
789.9514214820666
 10
-192.1509561907378
 20
750.6014842662895
  0
ARC
  5
1EA
330
1F
100
AcDbEntity
  8
ceco.net 407
100
AcDbCircle
 10
-745.2685848768578
 20
339.8228472628318
 30
0.0
 40
68.11029245172543
100
AcDbArc
 50
194.4047106768167
 51
268.8930421856211
  0
ARC
  5
1EB
330
1F
100
AcDbEntity
  8
ceco.net 407
100
AcDbCircle
 10
-745.2685848768578
 20
339.8228472628318
 30
0.0
 40
68.11029245172543
100
AcDbArc
 50
83.56718732789211
 51
172.540867397829
  0
LWPOLYLINE
  5
1EC
330
1F
100
AcDbEntity
  8
ceco.net 407
100
AcDbPolyline
 90
        6
 70
     1
 43
0.0
 10
-589.144472516793
 20
240.0070846391608
 10
-482.4361831386149
 20
245.4397478382275
 10
-481.5643159293513
 20
228.3145451358873
 42
-0.4142135623730951
 10
-488.4905234448388
 20
220.6452614407804
 10
-580.6033216118021
 20
215.9556744209948
 42
-0.4142135623730951
 10
-588.2726053069273
 20
222.8818819367077
  0
LWPOLYLINE
  5
1ED
330
1F
100
AcDbEntity
  8
ceco.net 407
100
AcDbPolyline
 90
        5
 70
     0
 43
0.0
 10
-584.4119304035594
 20
862.4812082662909
 42
0.4415047974584402
 10
-565.3980299468921
 20
978.2553887053987
 42
0.0734569781465018
 10
-804.3285955635738
 20
1203.260602813915
 42
-0.1851316366296244
 10
-825.5300725925307
 20
1234.522498077511
 42
0.2607819975249947
 10
-840.0675623774786
 20
1250.443067142601
 42
0.1878866717684897
  0
LWPOLYLINE
  5
1EE
330
1F
100
AcDbEntity
  8
ceco.net 407
100
AcDbPolyline
 90
        3
 70
     0
 43
0.0
 10
-878.7527568713294
 20
928.9954144887198
 10
-919.6156580615943
 20
964.4887749881858
 42
0.1794581491554971
 10
-1031.159038259006
 20
1017.265369301963
 42
0.0689429333897114
  0
LWPOLYLINE
  5
1EF
330
1F
100
AcDbEntity
  8
ceco.net 407
100
AcDbPolyline
 90
        2
 70
     0
 43
0.0
 10
-622.5524056799886
 20
934.2256401596278
 42
-0.1017612651841231
 10
-565.3980299468921
 20
978.2553887053987
 42
4.898974556920475
  0
LWPOLYLINE
  5
1F0
330
1F
100
AcDbEntity
  8
ceco.net 407
100
AcDbPolyline
 90
        4
 70
     0
 43
0.0
 10
-1064.283595924086
 20
1142.958835999419
 42
-0.191067526328679
 10
-1043.655304324599
 20
977.0349330523504
 42
-0.1637716447243568
 10
-1062.711335437227
 20
947.8574219562521
 42
-0.3944341229724359
 10
-1077.618493029229
 20
949.10986008838
 42
0.4745023936939036
  0
LWPOLYLINE
  5
1F1
330
1F
100
AcDbEntity
  8
ceco.net 407
100
AcDbPolyline
 90
        4
 70
     0
 43
0.0
 10
-1053.472706419225
 20
1007.570190007474
 42
-0.2267158549481318
 10
-1077.618493029229
 20
949.10986008838
 42
-0.2662014430771062
 10
-1094.128174848394
 20
945.5412234111394
 42
-0.40035408777468
 10
-1098.561250579541
 20
953.6229170914207
 42
1.371494656806656
  0
LWPOLYLINE
  5
1F2
330
1F
100
AcDbEntity
  8
ceco.net 407
100
AcDbPolyline
 90
        4
 70
     0
 43
0.0
 10
-1079.844839612833
 20
1017.819362845425
 42
-0.2283233863962021
 10
-1098.561250579541
 20
953.6229170914207
 42
-0.5501150588743426
 10
-1105.863055091707
 20
954.8590642425018
 42
0.0140660773794364
 10
-1112.508202724871
 20
969.5277058254815
 42
0.6610249338315598
  0
LWPOLYLINE
  5
1F3
330
1F
100
AcDbEntity
  8
ceco.net 407
100
AcDbPolyline
 90
        2
 70
     0
 43
0.0
 10
-1098.957667606419
 20
1017.044152594322
 42
-0.1406100974381202
 10
-1112.508202724871
 20
969.5277058254815
 42
-0.5223526043429435
  0
LWPOLYLINE
  5
1F4
330
1F
100
AcDbEntity
  8
ceco.net 407
100
AcDbPolyline
 90
        3
 70
     0
 43
0.0
 10
-1100.834508042589
 20
998.6597046246455
 42
-0.4310499068551997
 10
-1137.739506336571
 20
988.6061506247198
 42
-0.4639588390595339
 10
-1138.66269152284
 20
994.5538040756321
 42
2.348455968644565
  0
LWPOLYLINE
  5
1F5
330
1F
100
AcDbEntity
  8
ceco.net 407
100
AcDbPolyline
 90
        3
 70
     0
 43
0.0
 10
-1138.66269152284
 20
994.5538040756321
 10
-1120.91884705568
 20
1004.580078699562
 42
0.4454017646595164
 10
-1116.959244164961
 20
1022.419258089547
 42
0.5476256228353517
  0
LWPOLYLINE
  5
1F6
330
1F
100
AcDbEntity
  8
ceco.net 407
100
AcDbPolyline
 90
        2
 70
     0
 43
0.0
 10
-1116.959244164961
 20
1022.419258089547
 42
-0.166540720529957
 10
-1121.007491486134
 20
1138.407048600454
 42
1.423546362046306
  0
LWPOLYLINE
  5
1F7
330
1F
100
AcDbEntity
  8
ceco.net 407
100
AcDbPolyline
 90
        3
 70
     0
 43
0.0
 10
-1121.007491486134
 20
1138.407048600454
 42
-0.0646856215106547
 10
-1171.697675918971
 20
1408.16327769761
 42
-0.1245718173506971
 10
-1144.702590391338
 20
1547.541874022191
 42
1.666836359094911
  0
LWPOLYLINE
  5
1F8
330
1F
100
AcDbEntity
  8
ceco.net 407
100
AcDbPolyline
 90
        4
 70
     0
 43
0.0
 10
-1064.283595924086
 20
1142.958835999419
 10
-1082.6845560606
 20
1400.768753805915
 10
-1032.203305837285
 20
1514.082963938626
 42
0.3757551913802517
 10
-1144.702590391338
 20
1547.541874022191
 42
-0.1917571893587528
  0
LWPOLYLINE
  5
1F9
330
1F
100
AcDbEntity
  8
ceco.net 407
100
AcDbPolyline
 90
        8
 70
     0
 43
0.0
 10
-840.0675623774786
 20
1250.443067142601
 10
-830.0209303428973
 20
1292.665504009417
 42
0.2211699138846897
 10
-841.420791085361
 20
1348.407183078665
 42
-0.1983550389164785
 10
-866.02923751465
 20
1446.650125060415
 42
0.0841614524751772
 10
-869.4010855373608
 20
1601.752198888661
 42
-0.306627785962258
 10
-862.1020245960071
 20
1618.759975968816
 42
0.3268432636892475
 10
-851.7982534024778
 20
1645.432588368073
 42
0.0618287738626392
 10
-879.7845378492384
 20
1714.170294429811
 42
-0.3520734027555599
  0
LWPOLYLINE
  5
1FA
330
1F
100
AcDbEntity
  8
ceco.net 407
100
AcDbPolyline
 90
        3
 70
     0
 43
0.0
 10
-879.7845378492384
 20
1714.170294429811
 10
-870.2209782592481
 20
1751.130955646869
 10
-1029.165080470463
 20
1865.757124253505
 42
0.8948324260859287
  0
LWPOLYLINE
  5
1FB
330
1F
100
AcDbEntity
  8
ceco.net 407
100
AcDbPolyline
 90
        2
 70
     0
 43
0.0
 10
-1029.165080470463
 20
1865.757124253505
 42
0.4179979115274114
 10
-1042.242528214676
 20
1824.732590413051
 42
-1.562886120172984
  0
LWPOLYLINE
  5
1FC
330
1F
100
AcDbEntity
  8
ceco.net 407
100
AcDbPolyline
 90
       11
 70
     0
 43
0.0
 10
-863.9517138813452
 20
1617.382023618547
 10
-904.033916889557
 20
1737.520348543736
 42
0.1416424791428586
 10
-984.5970911514077
 20
1811.394003686574
 42
0.2458693004372825
 10
-1025.674575393626
 20
1810.511619070006
 42
0.089272146522938
 10
-1055.87345242684
 20
1786.004710427662
 42
-0.1919795422755181
 10
-1084.150742048907
 20
1771.266965483927
 42
0.2051446931292341
 10
-1111.794149512795
 20
1755.957029531827
 42
0.1179767764814827
 10
-1156.374315726827
 20
1657.578381364919
 42
0.1213245405946872
 10
-1154.195021883878
 20
1614.772724271816
 42
-0.174950135136125
 10
-1156.064519157026
 20
1580.223381128922
 42
0.3850117005232364
 10
-1144.702590391338
 20
1547.541874022191
 42
-1.265547706117176
  0
LWPOLYLINE
  5
1FD
330
1F
100
AcDbEntity
  8
ceco.net 407
100
AcDbPolyline
 90
        3
 70
     0
 43
0.0
 10
-869.4010855373608
 20
1601.752198888661
 10
-903.1837762807281
 20
1697.064873685742
 42
0.3160898471128308
 10
-938.8954687538607
 20
1733.327648610319
 42
0.1163295851521853
  0
LWPOLYLINE
  5
1FE
330
1F
100
AcDbEntity
  8
ceco.net 407
100
AcDbPolyline
 90
        2
 70
     0
 43
0.0
 10
-938.8954687538607
 20
1733.327648610319
 42
0.1681509212830063
 10
-1036.302655212647
 20
1803.83581717618
 42
0.1738381971086109
  0
LWPOLYLINE
  5
1FF
330
1F
100
AcDbEntity
  8
ceco.net 407
100
AcDbPolyline
 90
        6
 70
     0
 43
0.0
 10
-1004.483394891927
 20
1847.957363121885
 10
-1016.661630569621
 20
2036.027631957659
 42
-0.3194013369052952
 10
-992.6787574104501
 20
2074.82563338707
 42
0.091281638404842
 10
-967.5600798784417
 20
2091.314182295124
 42
-0.1812046447642453
 10
-910.6188717966842
 20
2115.685692724607
 42
0.158577046235941
 10
-888.6624907052965
 20
2123.961040615769
 42
3.099903125783824
  0
LWPOLYLINE
  5
200
330
1F
100
AcDbEntity
  8
ceco.net 407
100
AcDbPolyline
 90
        5
 70
     0
 43
0.0
 10
-888.6624907052965
 20
2123.961040615769
 10
-848.3504866912353
 20
2123.329323100342
 42
-0.182607856932719
 10
-796.2799864321141
 20
2102.718339400657
 42
-0.1549331384351262
 10
-772.2383187136929
 20
2061.233730411611
 42
-0.4008753710929403
 10
-789.1651517772652
 20
2033.294747368031
 42
-0.1067514880993607
  0
LWPOLYLINE
  5
201
330
1F
100
AcDbEntity
  8
ceco.net 407
100
AcDbPolyline
 90
        4
 70
     0
 43
0.0
 10
-789.1651517772652
 20
2033.294747368031
 42
-0.1473714737120414
 10
-776.0545197118562
 20
1976.155773056782
 42
-0.243442994554739
 10
-781.1776151773192
 20
1967.699249368743
 42
-0.0543008997100848
 10
-794.9758282747453
 20
1961.20297495939
 42
-0.141257316506137
  0
LWPOLYLINE
  5
202
330
1F
100
AcDbEntity
  8
ceco.net 407
100
AcDbPolyline
 90
        9
 70
     0
 43
0.0
 10
-781.1776151773192
 20
1967.699249368743
 42
0.0724373006714063
 10
-783.2197039281054
 20
1917.734767247893
 42
-0.108275063536477
 10
-786.6988161719209
 20
1886.783386540161
 42
0.033027432988839
 10
-798.6683358389718
 20
1842.079522867191
 42
0.0200269814280462
 10
-803.0184071625944
 20
1814.337033436267
 42
-0.2632293518007711
 10
-809.6593878539742
 20
1805.233875786057
 42
-0.1206662478648198
 10
-836.5150712786917
 20
1800.192091675647
 42
-0.1055743243217456
 10
-884.9758393413486
 20
1813.341655554136
 42
-0.1097741679262723
 10
-925.0737393657963
 20
1846.706898134099
 42
0.522867069661351
  0
LWPOLYLINE
  5
203
330
1F
100
AcDbEntity
  8
ceco.net 407
100
AcDbPolyline
 90
        2
 70
     0
 43
0.0
 10
-827.906379708501
 20
1965.066010824883
 42
0.1714287926398489
 10
-860.9537366765962
 20
1964.302156472013
 42
-0.1571751141875996
  0
LWPOLYLINE
  5
204
330
1F
100
AcDbEntity
  8
ceco.net 407
100
AcDbPolyline
 90
        4
 70
     0
 43
0.0
 10
-789.1651517772652
 20
2033.294747368031
 10
-824.388296709024
 20
2035.08601098435
 42
0.1236676960529443
 10
-879.4777967183481
 20
2029.411199824838
 42
-0.4038581445659919
 10
-905.9204906484492
 20
2041.185582607685
 42
0.7119817973819563
  0
LWPOLYLINE
  5
205
330
1F
100
AcDbEntity
  8
ceco.net 407
100
AcDbPolyline
 90
        2
 70
     0
 43
0.0
 10
-895.0767338751166
 20
2029.958842562289
 42
0.5133791948882831
 10
-910.002801962787
 20
1984.395116786113
 42
-1.853226386140986
  0
LWPOLYLINE
  5
206
330
1F
100
AcDbEntity
  8
ceco.net 407
100
AcDbPolyline
 90
        4
 70
     0
 43
0.0
 10
-952.6638392728383
 20
1944.091408768251
 42
0.6522899098989447
 10
-974.5143770485965
 20
1922.068008956285
 42
-0.0213419938652504
 10
-967.2944229229333
 20
1901.11460342832
 42
0.4162569568197086
 10
-949.1596372858184
 20
1891.377360344686
 42
8.113776998527338
  0
LWPOLYLINE
  5
207
330
1F
100
AcDbEntity
  8
ceco.net 407
100
AcDbPolyline
 90
        5
 70
     0
 43
0.0
 10
-910.002801962787
 20
1984.395116786113
 10
-930.348915624917
 20
1973.108782862356
 10
-939.6271835961242
 20
1961.97594007914
 10
-954.1275615132754
 20
1956.727481012429
 10
-960.7385607374544
 20
1945.099575640989
  0
LWPOLYLINE
  5
208
330
1F
100
AcDbEntity
  8
ceco.net 407
100
AcDbPolyline
 90
        2
 70
     0
 43
0.0
 10
-799.9688311066911
 20
1946.89505908591
 42
0.0158185845393543
 10
-790.9120723310406
 20
1900.092523108334
 42
-1.188589939229597
  0
LWPOLYLINE
  5
209
330
1F
100
AcDbEntity
  8
ceco.net 407
100
AcDbPolyline
 90
        2
 70
     0
 43
0.0
 10
-790.9120723310406
 20
1900.092523108334
 10
-807.7516836727145
 20
1891.056764079668
  0
LWPOLYLINE
  5
20A
330
1F
100
AcDbEntity
  8
ceco.net 407
100
AcDbPolyline
 90
        6
 70
     0
 43
0.0
 10
-840.0675623774786
 20
1250.443067142601
 10
-892.5144625742786
 20
1181.845695403445
 42
-0.269813980676469
 10
-917.0466737769402
 20
1171.733953499049
 42
0.1246900481870746
 10
-959.7537828235562
 20
1166.931231194702
 42
-0.0337161101810255
 10
-1026.229336447384
 20
1146.899928652779
 42
0.241025674706269
 10
-1054.616026034165
 20
1123.07242537142
 42
-0.6272726156383804
  0
LWPOLYLINE
  5
20B
330
1F
100
AcDbEntity
  8
ceco.net 407
100
AcDbPolyline
 90
        3
 70
     0
 43
0.0
 10
-1165.158612864948
 20
1336.11808535258
 10
-1260.893199230223
 20
1394.254134573049
 42
-0.3636030216409151
 10
-1272.49873349268
 20
1428.406878398308
 42
1.54307391327824
  0
LWPOLYLINE
  5
20C
330
1F
100
AcDbEntity
  8
ceco.net 407
100
AcDbPolyline
 90
        2
 70
     0
 43
0.0
 10
-1272.49873349268
 20
1428.406878398308
 10
-1156.064519157026
 20
1580.223381128922
  0
LWPOLYLINE
  5
20D
330
1F
100
AcDbEntity
  8
ceco.net 407
100
AcDbPolyline
 90
        2
 70
     0
 43
0.0
 10
-1272.904986787748
 20
1409.220602822836
 10
-1156.674936087538
 20
1561.695389817929
  0
LWPOLYLINE
  5
20E
330
1F
100
AcDbEntity
  8
ceco.net 407
100
AcDbPolyline
 90
        3
 70
     0
 43
0.0
 10
-1227.667747709216
 20
1486.861203996736
 10
-1191.468446415493
 20
1580.091781349886
 10
-1157.88135714588
 20
1636.043351906202
  0
LWPOLYLINE
  5
20F
330
1F
100
AcDbEntity
  8
ceco.net 407
100
AcDbPolyline
 90
        3
 70
     0
 43
0.0
 10
-798.0288900640862
 20
1845.231269338598
 10
-822.6569609930674
 20
1845.650779155388
 10
-834.6884789384448
 20
1854.378385958767
  0
LWPOLYLINE
  5
210
330
1F
100
AcDbEntity
  8
ceco.net 407
100
AcDbPolyline
 90
        3
 70
     0
 43
0.0
 10
-808.8063694564807
 20
1856.256491573594
 10
-823.9527573268642
 20
1856.419401215226
 10
-837.8545374073128
 20
1861.502523573122
  0
LWPOLYLINE
  5
211
330
1F
100
AcDbEntity
  8
ceco.net 407
100
AcDbPolyline
 90
        2
 70
     0
 43
0.0
 10
-824.8724746900734
 20
1863.47111090796
 10
-793.4218029362355
 20
1864.629115958059
  0
LWPOLYLINE
  5
212
330
1F
100
AcDbEntity
  8
ceco.net 407
100
AcDbPolyline
 90
        2
 70
     0
 43
0.0
 10
-804.0598457917349
 20
857.0439539834925
 10
-839.5764212906579
 20
804.7715768076079
  0
LWPOLYLINE
  5
213
330
1F
100
AcDbEntity
  8
ceco.net 407
100
AcDbPolyline
 90
        2
 70
     0
 43
0.0
 10
-857.7258416796739
 20
776.0485144602151
 10
-928.7367038754956
 20
680.0097038756902
  0
LWPOLYLINE
  5
214
330
1F
100
AcDbEntity
  8
ceco.net 407
100
AcDbPolyline
 90
        2
 70
     0
 43
0.0
 10
-870.0289457858207
 20
608.9672337415641
 10
-828.226140938049
 20
648.812078336177
  0
LWPOLYLINE
  5
215
330
1F
100
AcDbEntity
  8
ceco.net 407
100
AcDbPolyline
 90
        2
 70
     0
 43
0.0
 10
-795.6897466251939
 20
681.2318345261823
 10
-762.6885436418188
 20
712.5356497805606
  0
LWPOLYLINE
  5
216
330
1F
100
AcDbEntity
  8
ceco.net 407
100
AcDbPolyline
 90
        3
 70
     0
 43
0.0
 10
-1005.750474004387
 20
623.0866586908049
 10
-1029.965915714589
 20
583.0679634131542
 42
0.4005832087803098
 10
-1021.732957117958
 20
545.8766656058877
 42
1.9957320710547
  0
LWPOLYLINE
  5
217
330
1F
100
AcDbEntity
  8
ceco.net 407
100
AcDbPolyline
 90
        3
 70
     0
 43
0.0
 10
-1029.965915714589
 20
583.0679634131542
 42
0.6001192446847475
 10
-1074.278312271134
 20
551.8423336325565
 42
0.1781023403360866
 10
-1069.068137326259
 20
541.7504075335593
 42
-2.389919632937465
  0
LWPOLYLINE
  5
218
330
1F
100
AcDbEntity
  8
ceco.net 407
100
AcDbPolyline
 90
        2
 70
     0
 43
0.0
 10
-885.9455879438746
 20
452.1426841307253
 10
-1016.606018594633
 20
516.0790140307634
  0
LWPOLYLINE
  5
219
330
1F
100
AcDbEntity
  8
ceco.net 407
100
AcDbPolyline
 90
        2
 70
     0
 43
0.0
 10
-1039.1436908988
 20
527.1074183031811
 10
-1069.068137326259
 20
541.7504075335593
  0
LWPOLYLINE
  5
21A
330
1F
100
AcDbEntity
  8
ceco.net 407
100
AcDbPolyline
 90
        3
 70
     0
 43
0.0
 10
-893.1473088783723
 20
474.9266984821034
 10
-953.5699062374588
 20
502.9289080181487
 42
-0.0210905204308231
 10
-1002.480550499244
 20
528.1533614040006
 42
0.2925362876798454
  0
LWPOLYLINE
  5
21B
330
1F
100
AcDbEntity
  8
ceco.net 407
100
AcDbPolyline
 90
        4
 70
     0
 43
0.0
 10
-978.2912267931905
 20
515.0253592399984
 10
-967.687381220483
 20
526.6097221169347
 42
-0.382509195482003
 10
-939.954307144224
 20
529.3610756344125
 42
-0.0714900323068807
 10
-898.5127749888716
 20
488.8108468314857
 42
-0.3107961567553014
  0
LWPOLYLINE
  5
21C
330
1F
100
AcDbEntity
  8
ceco.net 407
100
AcDbPolyline
 90
        7
 70
     0
 43
0.0
 10
-683.7185799243315
 20
1106.179977271128
 10
-679.4944676872383
 20
1142.663088344891
 10
-703.5484601763755
 20
1177.004588979616
 42
0.1767204698581659
 10
-718.4167556762313
 20
1187.39520047823
 42
-0.020710286099274
 10
-775.617552697513
 20
1205.185729121856
 42
-0.1564818415520604
 10
-797.7225694730787
 20
1222.108808865636
 42
-0.018359012087713
 10
-833.525544266793
 20
1277.936852692887
 42
-1.771446190282403
  0
LWPOLYLINE
  5
21D
330
1F
100
AcDbEntity
  8
ceco.net 407
100
AcDbPolyline
 90
        4
 70
     0
 43
0.0
 10
-731.8833515153437
 20
1170.253648187498
 10
-692.6294900971852
 20
1139.871010150548
 42
-0.3836572219058727
 10
-691.6927553168916
 20
1134.706577606583
 42
-0.1936787807517354
 10
-704.7066722497475
 20
1125.119328567587
 42
0.8164267225844451
  0
LWPOLYLINE
  5
21E
330
1F
100
AcDbEntity
  8
ceco.net 407
100
AcDbPolyline
 90
        2
 70
     0
 43
0.0
 10
-1153.329774499631
 20
1671.155824393452
 42
-0.2869488117135326
 10
-1013.311345813195
 20
1750.049485154351
 42
-20.68003033886972
  0
LWPOLYLINE
  5
21F
330
1F
100
AcDbEntity
  8
ceco.net 407
100
AcDbPolyline
 90
        2
 70
     0
 43
0.0
 10
-1016.870675754504
 20
1516.131515481288
 42
-0.0966651411584346
 10
-949.6236303722753
 20
1625.055004750547
 42
2.45333095481687
  0
LWPOLYLINE
  5
220
330
1F
100
AcDbEntity
  8
ceco.net 407
100
AcDbPolyline
 90
        4
 70
     0
 43
0.0
 10
-941.9797672814594
 20
1653.638115930717
 42
0.4208490219536288
 10
-945.0740429546067
 20
1714.415832463275
 42
-0.048624336391539
 10
-960.3647600312479
 20
1730.816318546098
 42
0.10501905310053
 10
-976.9472712636762
 20
1745.020608718143
 42
0.2820944324870433
  0
LWPOLYLINE
  5
221
330
1F
100
AcDbEntity
  8
ceco.net 407
100
AcDbPolyline
 90
        2
 70
     0
 43
0.0
 10
-892.1964408827498
 20
1817.378121472727
 10
-900.454993052811
 20
1772.934905772525
  0
LWPOLYLINE
  5
222
330
1F
100
AcDbEntity
  8
ceco.net 407
100
AcDbPolyline
 90
        2
 70
     0
 43
0.0
 10
-1042.242528214676
 20
1824.732590413051
 10
-1036.302655212647
 20
1803.83581717618
  0
ARC
  5
223
330
1F
100
AcDbEntity
  8
ceco.net 407
100
AcDbCircle
 10
-1184.638469677193
 20
370.260066636186
 30
0.0
 40
324.4650269069633
100
AcDbArc
 50
45.30605522956315
 51
352.4886520403029
  0
ARC
  5
224
330
1F
100
AcDbEntity
  8
ceco.net 407
100
AcDbCircle
 10
-1184.638469677193
 20
370.260066636186
 30
0.0
 40
309.7130940819898
100
AcDbArc
 50
45.33292333549844
 51
352.3920751188608
  0
ARC
  5
225
330
1F
100
AcDbEntity
  8
ceco.net 407
100
AcDbCircle
 10
-1184.638469677193
 20
370.260066636186
 30
0.0
 40
74.71937683201665
100
AcDbArc
 50
47.19213557772434
 51
345.6814002092635
  0
ARC
  5
226
330
1F
100
AcDbEntity
  8
ceco.net 407
100
AcDbCircle
 10
-1184.638469677193
 20
370.260066636186
 30
0.0
 40
372.4087770206675
100
AcDbArc
 50
45.2334352413477
 51
352.7496564425344
  0
ARC
  5
227
330
1F
100
AcDbEntity
  8
ceco.net 407
100
AcDbCircle
 10
-1184.638469677193
 20
370.260066636186
 30
0.0
 40
367.2252854370775
100
AcDbArc
 50
45.24037236819109
 51
352.7247252354392
  0
CIRCLE
  5
228
330
1F
100
AcDbEntity
  8
ceco.net 407
100
AcDbCircle
 10
-1184.638469677193
 20
370.260066636186
 30
0.0
 40
4.712875600966981
  0
CIRCLE
  5
229
330
1F
100
AcDbEntity
  8
ceco.net 407
100
AcDbCircle
 10
0.0
 20
372.4087770206675
 30
0.0
 40
4.712875600966981
  0
CIRCLE
  5
22A
330
1F
100
AcDbEntity
  8
ceco.net 407
100
AcDbCircle
 10
-535.738356522117
 20
231.8795134861529
 30
0.0
 40
7.506853135338293
  0
LINE
  5
22B
330
1F
100
AcDbEntity
  8
ceco.net 407
100
AcDbLine
 10
-834.6884789384448
 20
1854.378385958767
 30
0.0
 11
-837.8545374073128
 21
1861.502523573122
 31
0.0
  0
LINE
  5
22C
330
1F
100
AcDbEntity
  8
ceco.net 407
100
AcDbLine
 10
-837.8545374073128
 20
1861.502523573122
 30
0.0
 11
-824.8724746900734
 21
1863.47111090796
 31
0.0
  0
LINE
  5
22D
330
1F
100
AcDbEntity
  8
ceco.net 407
100
AcDbLine
 10
-808.8063694564807
 20
1856.256491573594
 30
0.0
 11
-795.5877152432754
 21
1856.114316010737
 31
0.0
  0
ENDSEC
  0
SECTION
  2
OBJECTS
  0
DICTIONARY
  5
C
330
0
100
AcDbDictionary
281
     1
  3
ACAD_GROUP
350
D
  3
ACAD_LAYOUT
350
1A
  3
ACAD_MLINESTYLE
350
17
  3
ACAD_PLOTSETTINGS
350
19
  3
ACAD_PLOTSTYLENAME
350
E
  3
AcDbVariableDictionary
350
5E
  0
DICTIONARY
  5
8C
330
2
100
AcDbDictionary
280
     1
281
     1
  3
ACAD_LAYERFILTERS
360
22E
  3
ACAD_LAYERSTATES
360
8D
  0
DICTIONARY
  5
77
330
76
100
AcDbDictionary
280
     1
281
     1
  3
ACAD_XREC_ROUNDTRIP
360
78
  0
DICTIONARY
  5
D
102
{ACAD_REACTORS
330
C
102
}
330
C
100
AcDbDictionary
281
     1
  0
DICTIONARY
  5
1A
102
{ACAD_REACTORS
330
C
102
}
330
C
100
AcDbDictionary
281
     1
  3
Layout1
350
51
  3
Layout2
350
56
  3
Model
350
22
  0
DICTIONARY
  5
17
102
{ACAD_REACTORS
330
C
102
}
330
C
100
AcDbDictionary
281
     1
  3
Standard
350
18
  0
DICTIONARY
  5
19
102
{ACAD_REACTORS
330
C
102
}
330
C
100
AcDbDictionary
281
     1
  0
ACDBDICTIONARYWDFLT
  5
E
102
{ACAD_REACTORS
330
C
102
}
330
C
100
AcDbDictionary
281
     1
  3
Normal
350
F
100
AcDbDictionaryWithDefault
340
F
  0
DICTIONARY
  5
5E
102
{ACAD_REACTORS
330
C
102
}
330
C
100
AcDbDictionary
281
     1
  3
DIMASSOC
350
5F
  3
HIDETEXT
350
63
  0
DICTIONARY
  5
22E
102
{ACAD_REACTORS
330
8C
102
}
330
8C
100
AcDbDictionary
280
     1
281
     1
  0
DICTIONARY
  5
8D
102
{ACAD_REACTORS
330
8C
102
}
330
8C
100
AcDbDictionary
281
     1
  0
XRECORD
  5
78
102
{ACAD_REACTORS
330
77
102
}
330
77
100
AcDbXrecord
280
     1
102
MATERIAL
340
0
  0
LAYOUT
  5
51
102
{ACAD_REACTORS
330
1A
102
}
330
1A
100
AcDbPlotSettings
  1

  2
None
  4

  6

 40
0.0
 41
0.0
 42
0.0
 43
0.0
 44
0.0
 45
0.0
 46
0.0
 47
0.0
 48
0.0
 49
0.0
140
0.0
141
0.0
142
1.0
143
1.0
 70
   688
 72
     0
 73
     0
 74
     5
  7

 75
    16
147
1.0
148
0.0
149
0.0
100
AcDbLayout
  1
Layout1
 70
     1
 71
     1
 10
0.0
 20
0.0
 11
12.0
 21
9.0
 12
0.0
 22
0.0
 32
0.0
 14
0.0
 24
0.0
 34
0.0
 15
0.0
 25
0.0
 35
0.0
146
0.0
 13
0.0
 23
0.0
 33
0.0
 16
1.0
 26
0.0
 36
0.0
 17
0.0
 27
1.0
 37
0.0
 76
     0
330
50
  0
LAYOUT
  5
56
102
{ACAD_REACTORS
330
1A
102
}
330
1A
100
AcDbPlotSettings
  1

  2
None
  4

  6

 40
0.0
 41
0.0
 42
0.0
 43
0.0
 44
0.0
 45
0.0
 46
0.0
 47
0.0
 48
0.0
 49
0.0
140
0.0
141
0.0
142
1.0
143
1.0
 70
   688
 72
     0
 73
     0
 74
     5
  7

 75
    16
147
1.0
148
0.0
149
0.0
100
AcDbLayout
  1
Layout2
 70
     1
 71
     2
 10
0.0
 20
0.0
 11
12.0
 21
9.0
 12
0.0
 22
0.0
 32
0.0
 14
0.0
 24
0.0
 34
0.0
 15
0.0
 25
0.0
 35
0.0
146
0.0
 13
0.0
 23
0.0
 33
0.0
 16
1.0
 26
0.0
 36
0.0
 17
0.0
 27
1.0
 37
0.0
 76
     0
330
55
  0
LAYOUT
  5
22
102
{ACAD_REACTORS
330
1A
102
}
330
1A
100
AcDbPlotSettings
  1

  2
none_device
  4
ANSI_A_(8.50_x_11.00_Inches)
  6

 40
6.349999904632568
 41
19.04999923706054
 42
6.350006103515625
 43
19.04998779296875
 44
215.8999938964843
 45
279.3999938964843
 46
0.0
 47
0.0
 48
0.0
 49
0.0
140
0.0
141
0.0
142
1.0
143
78.436453180766
 70
 11952
 72
     0
 73
     1
 74
     0
  7

 75
     0
147
0.0127491741332998
148
0.0
149
0.0
100
AcDbLayout
  1
Model
 70
     1
 71
     0
 10
0.0
 20
0.0
 11
12.0
 21
9.0
 12
0.0
 22
0.0
 32
0.0
 14
0.0
 24
0.0
 34
0.0
 15
0.0
 25
0.0
 35
0.0
146
0.0
 13
0.0
 23
0.0
 33
0.0
 16
1.0
 26
0.0
 36
0.0
 17
0.0
 27
1.0
 37
0.0
 76
     0
330
1F
  0
MLINESTYLE
  5
18
102
{ACAD_REACTORS
330
17
102
}
330
17
100
AcDbMlineStyle
  2
STANDARD
 70
     0
  3

 62
   256
 51
90.0
 52
90.0
 71
     2
 49
0.5
 62
   256
  6
BYLAYER
 49
-0.5
 62
   256
  6
BYLAYER
  0
ACDBPLACEHOLDER
  5
F
102
{ACAD_REACTORS
330
E
102
}
330
E
  0
DICTIONARYVAR
  5
5F
102
{ACAD_REACTORS
330
5E
102
}
330
5E
100
DictionaryVariables
280
     0
  1
2
  0
DICTIONARYVAR
  5
63
102
{ACAD_REACTORS
330
5E
102
}
330
5E
100
DictionaryVariables
280
     0
  1
1
  0
ENDSEC
  0
EOF
