  0
SECTION
  2
HEADER
  9
$ACADVER
  1
AC1015
  9
$ACADMAINTVER
 70
    13
  9
$DWGCODEPAGE
  3
ANSI_1252
  9
$INSBASE
 10
0.0
 20
0.0
 30
0.0
  9
$EXTMIN
 10
-278.043751948679
 20
1.762377319700135
 30
0.0
  9
$EXTMAX
 10
311.8964757872972
 20
1727.98162427353
 30
0.0
  9
$LIMMIN
 10
0.0
 20
0.0
  9
$LIMMAX
 10
420.0
 20
297.0
  9
$ORTHOMODE
 70
     0
  9
$REGENMODE
 70
     1
  9
$FILLMODE
 70
     1
  9
$QTEXTMODE
 70
     0
  9
$MIRRTEXT
 70
     1
  9
$LTSCALE
 40
1.0
  9
$ATTMODE
 70
     1
  9
$TEXTSIZE
 40
2.5
  9
$TRACEWID
 40
1.0
  9
$TEXTSTYLE
  7
Standard
  9
$CLAYER
  8
ceco.net 126
  9
$CELTYPE
  6
ByLayer
  9
$CECOLOR
 62
   256
  9
$CELTSCALE
 40
1.0
  9
$DISPSILH
 70
     0
  9
$DIMSCALE
 40
1.0
  9
$DIMASZ
 40
2.5
  9
$DIMEXO
 40
0.625
  9
$DIMDLI
 40
3.75
  9
$DIMRND
 40
0.0
  9
$DIMDLE
 40
0.0
  9
$DIMEXE
 40
1.25
  9
$DIMTP
 40
0.0
  9
$DIMTM
 40
0.0
  9
$DIMTXT
 40
2.5
  9
$DIMCEN
 40
2.5
  9
$DIMTSZ
 40
0.0
  9
$DIMTOL
 70
     0
  9
$DIMLIM
 70
     0
  9
$DIMTIH
 70
     0
  9
$DIMTOH
 70
     0
  9
$DIMSE1
 70
     0
  9
$DIMSE2
 70
     0
  9
$DIMTAD
 70
     1
  9
$DIMZIN
 70
     8
  9
$DIMBLK
  1

  9
$DIMASO
 70
     1
  9
$DIMSHO
 70
     1
  9
$DIMPOST
  1

  9
$DIMAPOST
  1

  9
$DIMALT
 70
     0
  9
$DIMALTD
 70
     3
  9
$DIMALTF
 40
0.03937007874016
  9
$DIMLFAC
 40
1.0
  9
$DIMTOFL
 70
     1
  9
$DIMTVP
 40
0.0
  9
$DIMTIX
 70
     0
  9
$DIMSOXD
 70
     0
  9
$DIMSAH
 70
     0
  9
$DIMBLK1
  1

  9
$DIMBLK2
  1

  9
$DIMSTYLE
  2
ISO-25
  9
$DIMCLRD
 70
     0
  9
$DIMCLRE
 70
     0
  9
$DIMCLRT
 70
     0
  9
$DIMTFAC
 40
1.0
  9
$DIMGAP
 40
0.625
  9
$DIMJUST
 70
     0
  9
$DIMSD1
 70
     0
  9
$DIMSD2
 70
     0
  9
$DIMTOLJ
 70
     0
  9
$DIMTZIN
 70
     8
  9
$DIMALTZ
 70
     0
  9
$DIMALTTZ
 70
     0
  9
$DIMUPT
 70
     0
  9
$DIMDEC
 70
     2
  9
$DIMTDEC
 70
     2
  9
$DIMALTU
 70
     2
  9
$DIMALTTD
 70
     3
  9
$DIMTXSTY
  7
Standard
  9
$DIMAUNIT
 70
     0
  9
$DIMADEC
 70
     0
  9
$DIMALTRND
 40
0.0
  9
$DIMAZIN
 70
     0
  9
$DIMDSEP
 70
    44
  9
$DIMATFIT
 70
     3
  9
$DIMFRAC
 70
     0
  9
$DIMLDRBLK
  1

  9
$DIMLUNIT
 70
     2
  9
$DIMLWD
 70
    -2
  9
$DIMLWE
 70
    -2
  9
$DIMTMOVE
 70
     0
  9
$LUNITS
 70
     2
  9
$LUPREC
 70
     2
  9
$SKETCHINC
 40
1.0
  9
$FILLETRAD
 40
10.0
  9
$AUNITS
 70
     0
  9
$AUPREC
 70
     0
  9
$MENU
  1
.
  9
$ELEVATION
 40
0.0
  9
$PELEVATION
 40
0.0
  9
$THICKNESS
 40
0.0
  9
$LIMCHECK
 70
     0
  9
$CHAMFERA
 40
10.0
  9
$CHAMFERB
 40
10.0
  9
$CHAMFERC
 40
20.0
  9
$CHAMFERD
 40
0.0
  9
$SKPOLY
 70
     0
  9
$TDCREATE
 40
2455079.811409143
  9
$TDUCREATE
 40
2455079.936409144
  9
$TDUPDATE
 40
2456675.641573715
  9
$TDUUPDATE
 40
2456675.766573715
  9
$TDINDWG
 40
0.0474711111
  9
$TDUSRTIMER
 40
0.0474711111
  9
$USRTIMER
 70
     1
  9
$ANGBASE
 50
0.0
  9
$ANGDIR
 70
     0
  9
$PDMODE
 70
     0
  9
$PDSIZE
 40
0.0
  9
$PLINEWID
 40
0.0
  9
$SPLFRAME
 70
     0
  9
$SPLINETYPE
 70
     6
  9
$SPLINESEGS
 70
     8
  9
$HANDSEED
  5
973
  9
$SURFTAB1
 70
     6
  9
$SURFTAB2
 70
     6
  9
$SURFTYPE
 70
     6
  9
$SURFU
 70
     6
  9
$SURFV
 70
     6
  9
$UCSBASE
  2

  9
$UCSNAME
  2

  9
$UCSORG
 10
0.0
 20
0.0
 30
0.0
  9
$UCSXDIR
 10
1.0
 20
0.0
 30
0.0
  9
$UCSYDIR
 10
0.0
 20
1.0
 30
0.0
  9
$UCSORTHOREF
  2

  9
$UCSORTHOVIEW
 70
     0
  9
$UCSORGTOP
 10
0.0
 20
0.0
 30
0.0
  9
$UCSORGBOTTOM
 10
0.0
 20
0.0
 30
0.0
  9
$UCSORGLEFT
 10
0.0
 20
0.0
 30
0.0
  9
$UCSORGRIGHT
 10
0.0
 20
0.0
 30
0.0
  9
$UCSORGFRONT
 10
0.0
 20
0.0
 30
0.0
  9
$UCSORGBACK
 10
0.0
 20
0.0
 30
0.0
  9
$PUCSBASE
  2

  9
$PUCSNAME
  2

  9
$PUCSORG
 10
0.0
 20
0.0
 30
0.0
  9
$PUCSXDIR
 10
1.0
 20
0.0
 30
0.0
  9
$PUCSYDIR
 10
0.0
 20
1.0
 30
0.0
  9
$PUCSORTHOREF
  2

  9
$PUCSORTHOVIEW
 70
     0
  9
$PUCSORGTOP
 10
0.0
 20
0.0
 30
0.0
  9
$PUCSORGBOTTOM
 10
0.0
 20
0.0
 30
0.0
  9
$PUCSORGLEFT
 10
0.0
 20
0.0
 30
0.0
  9
$PUCSORGRIGHT
 10
0.0
 20
0.0
 30
0.0
  9
$PUCSORGFRONT
 10
0.0
 20
0.0
 30
0.0
  9
$PUCSORGBACK
 10
0.0
 20
0.0
 30
0.0
  9
$USERI1
 70
     0
  9
$USERI2
 70
     0
  9
$USERI3
 70
     0
  9
$USERI4
 70
     0
  9
$USERI5
 70
     0
  9
$USERR1
 40
0.0
  9
$USERR2
 40
0.0
  9
$USERR3
 40
0.0
  9
$USERR4
 40
0.0
  9
$USERR5
 40
0.0
  9
$WORLDVIEW
 70
     1
  9
$SHADEDGE
 70
     3
  9
$SHADEDIF
 70
    70
  9
$TILEMODE
 70
     1
  9
$MAXACTVP
 70
    64
  9
$PINSBASE
 10
0.0
 20
0.0
 30
0.0
  9
$PLIMCHECK
 70
     0
  9
$PEXTMIN
 10
1.000000000000000E+20
 20
1.000000000000000E+20
 30
1.000000000000000E+20
  9
$PEXTMAX
 10
-1.000000000000000E+20
 20
-1.000000000000000E+20
 30
-1.000000000000000E+20
  9
$PLIMMIN
 10
0.0
 20
0.0
  9
$PLIMMAX
 10
420.0
 20
297.0
  9
$UNITMODE
 70
     0
  9
$VISRETAIN
 70
     1
  9
$PLINEGEN
 70
     0
  9
$PSLTSCALE
 70
     1
  9
$TREEDEPTH
 70
  3020
  9
$CMLSTYLE
  2
Standard
  9
$CMLJUST
 70
     0
  9
$CMLSCALE
 40
20.0
  9
$PROXYGRAPHICS
 70
     1
  9
$MEASUREMENT
 70
     1
  9
$CELWEIGHT
370
    -1
  9
$ENDCAPS
280
     0
  9
$JOINSTYLE
280
     0
  9
$LWDISPLAY
290
     0
  9
$INSUNITS
 70
     4
  9
$HYPERLINKBASE
  1

  9
$STYLESHEET
  1

  9
$XEDIT
290
     1
  9
$CEPSNTYPE
380
     0
  9
$PSTYLEMODE
290
     1
  9
$FINGERPRINTGUID
  2
{81085373-3A21-4932-80AA-8F6C3258C50C}
  9
$VERSIONGUID
  2
{91E6B670-60A9-4B6F-B88F-42F00D4CFF72}
  9
$EXTNAMES
290
     1
  9
$PSVPSCALE
 40
0.0
  9
$OLESTARTUP
290
     0
  0
ENDSEC
  0
SECTION
  2
CLASSES
  0
CLASS
  1
ACDBDICTIONARYWDFLT
  2
AcDbDictionaryWithDefault
  3
AutoCAD 2000
 90
        0
280
     0
281
     0
  0
CLASS
  1
ACDBPLACEHOLDER
  2
AcDbPlaceHolder
  3
AutoCAD 2000
 90
        0
280
     0
281
     0
  0
CLASS
  1
LAYOUT
  2
AcDbLayout
  3
AutoCAD 2000
 90
        0
280
     0
281
     0
  0
CLASS
  1
DICTIONARYVAR
  2
AcDbDictionaryVar
  3
AutoCAD 2000
 90
        0
280
     0
281
     0
  0
ENDSEC
  0
SECTION
  2
TABLES
  0
TABLE
  2
VPORT
  5
8
330
0
100
AcDbSymbolTable
 70
     3
  0
VPORT
  5
972
330
8
100
AcDbSymbolTableRecord
100
AcDbViewportTableRecord
  2
*Active
 70
     0
 10
0.0
 20
0.0
 11
1.0
 21
1.0
 12
16.9263619193091
 22
864.8720007966151
 13
0.0
 23
0.0
 14
10.0
 24
10.0
 15
10.0
 25
10.0
 16
0.0
 26
0.0
 36
1.0
 17
0.0
 27
0.0
 37
0.0
 40
1738.476425038709
 41
2.184834123222748
 42
50.0
 43
0.0
 44
0.0
 50
0.0
 51
0.0
 71
     0
 72
   100
 73
     1
 74
     3
 75
     0
 76
     0
 77
     0
 78
     0
281
     0
 65
     1
110
0.0
120
0.0
130
0.0
111
1.0
121
0.0
131
0.0
112
0.0
122
1.0
132
0.0
 79
     0
146
0.0
  0
ENDTAB
  0
TABLE
  2
LTYPE
  5
5
330
0
100
AcDbSymbolTable
 70
     1
  0
LTYPE
  5
14
330
5
100
AcDbSymbolTableRecord
100
AcDbLinetypeTableRecord
  2
ByBlock
 70
     0
  3

 72
    65
 73
     0
 40
0.0
  0
LTYPE
  5
15
330
5
100
AcDbSymbolTableRecord
100
AcDbLinetypeTableRecord
  2
ByLayer
 70
     0
  3

 72
    65
 73
     0
 40
0.0
  0
LTYPE
  5
16
330
5
100
AcDbSymbolTableRecord
100
AcDbLinetypeTableRecord
  2
Continuous
 70
     0
  3
Solid line
 72
    65
 73
     0
 40
0.0
  0
ENDTAB
  0
TABLE
  2
LAYER
  5
2
102
{ACAD_XDICTIONARY
360
900
102
}
330
0
100
AcDbSymbolTable
 70
     2
  0
LAYER
  5
10
330
2
100
AcDbSymbolTableRecord
100
AcDbLayerTableRecord
  2
0
 70
     0
 62
     7
  6
Continuous
370
    -3
390
F
  0
LAYER
  5
8F5
102
{ACAD_XDICTIONARY
360
8F6
102
}
330
2
100
AcDbSymbolTableRecord
100
AcDbLayerTableRecord
  2
ceco.net 126
 70
     0
 62
     7
  6
Continuous
370
    -3
390
F
1001
AcAecLayerStandard
1000

1000

  0
ENDTAB
  0
TABLE
  2
STYLE
  5
3
330
0
100
AcDbSymbolTable
 70
     1
  0
STYLE
  5
11
330
3
100
AcDbSymbolTableRecord
100
AcDbTextStyleTableRecord
  2
Standard
 70
     0
 40
0.0
 41
1.0
 50
0.0
 71
     0
 42
2.5
  3
txt
  4

  0
ENDTAB
  0
TABLE
  2
VIEW
  5
6
330
0
100
AcDbSymbolTable
 70
     0
  0
ENDTAB
  0
TABLE
  2
UCS
  5
7
330
0
100
AcDbSymbolTable
 70
     0
  0
ENDTAB
  0
TABLE
  2
APPID
  5
9
330
0
100
AcDbSymbolTable
 70
    12
  0
APPID
  5
12
330
9
100
AcDbSymbolTableRecord
100
AcDbRegAppTableRecord
  2
ACAD
 70
     0
  0
APPID
  5
2C
330
9
100
AcDbSymbolTableRecord
100
AcDbRegAppTableRecord
  2
ACAD_DSTYLE_DIMJOGGED_JOGANGLE_SYMBOL
 70
     0
  0
APPID
  5
11B
330
9
100
AcDbSymbolTableRecord
100
AcDbRegAppTableRecord
  2
ACAD_NAV_VCDISPLAY
 70
     0
  0
APPID
  5
11C
330
9
100
AcDbSymbolTableRecord
100
AcDbRegAppTableRecord
  2
ACAD_MLEADERVER
 70
     0
  0
APPID
  5
8F8
330
9
100
AcDbSymbolTableRecord
100
AcDbRegAppTableRecord
  2
ACAD_PSEXT
 70
     0
  0
APPID
  5
8F9
330
9
100
AcDbSymbolTableRecord
100
AcDbRegAppTableRecord
  2
ACAD_DSTYLE_DIMEXT_LENGTH
 70
     0
  0
APPID
  5
8FA
330
9
100
AcDbSymbolTableRecord
100
AcDbRegAppTableRecord
  2
ACAD_DSTYLE_DIMEXT_ENABLED
 70
     0
  0
APPID
  5
8FB
330
9
100
AcDbSymbolTableRecord
100
AcDbRegAppTableRecord
  2
ACAD_DSTYLE_DIMARC_LENGTH_SYMBOL
 70
     0
  0
APPID
  5
8FC
330
9
100
AcDbSymbolTableRecord
100
AcDbRegAppTableRecord
  2
AcAecLayerStandard
 70
     0
  0
APPID
  5
8FD
330
9
100
AcDbSymbolTableRecord
100
AcDbRegAppTableRecord
  2
ACAD_DSTYLE_DIM_LINETYPE
 70
     0
  0
APPID
  5
8FE
330
9
100
AcDbSymbolTableRecord
100
AcDbRegAppTableRecord
  2
ACAD_DSTYLE_DIM_EXT1_LINETYPE
 70
     0
  0
APPID
  5
8FF
330
9
100
AcDbSymbolTableRecord
100
AcDbRegAppTableRecord
  2
ACAD_DSTYLE_DIM_EXT2_LINETYPE
 70
     0
  0
ENDTAB
  0
TABLE
  2
DIMSTYLE
  5
A
330
0
100
AcDbSymbolTable
 70
     2
100
AcDbDimStyleTable
 71
     0
  0
DIMSTYLE
105
27
330
A
100
AcDbSymbolTableRecord
100
AcDbDimStyleTableRecord
  2
ISO-25
 70
     0
 41
2.5
 42
0.625
 43
3.75
 44
1.25
 73
     0
 74
     0
 77
     1
 78
     8
140
2.5
141
2.5
143
0.03937007874016
147
0.625
171
     3
172
     1
271
     2
272
     2
274
     3
278
    44
283
     0
284
     8
340
11
  0
DIMSTYLE
105
2B
330
A
100
AcDbSymbolTableRecord
100
AcDbDimStyleTableRecord
  2
Standard
 70
     0
340
11
  0
ENDTAB
  0
TABLE
  2
BLOCK_RECORD
  5
1
330
0
100
AcDbSymbolTable
 70
     2
  0
BLOCK_RECORD
  5
1F
330
1
100
AcDbSymbolTableRecord
100
AcDbBlockTableRecord
  2
*Model_Space
340
22
  0
BLOCK_RECORD
  5
1B
330
1
100
AcDbSymbolTableRecord
100
AcDbBlockTableRecord
  2
*Paper_Space
340
1E
  0
BLOCK_RECORD
  5
23
330
1
100
AcDbSymbolTableRecord
100
AcDbBlockTableRecord
  2
*Paper_Space0
340
26
  0
ENDTAB
  0
ENDSEC
  0
SECTION
  2
BLOCKS
  0
BLOCK
  5
20
330
1F
100
AcDbEntity
  8
0
100
AcDbBlockBegin
  2
*Model_Space
 70
     0
 10
0.0
 20
0.0
 30
0.0
  3
*Model_Space
  1

  0
ENDBLK
  5
21
330
1F
100
AcDbEntity
  8
0
100
AcDbBlockEnd
  0
BLOCK
  5
1C
330
1B
100
AcDbEntity
 67
     1
  8
0
100
AcDbBlockBegin
  2
*Paper_Space
 70
     0
 10
0.0
 20
0.0
 30
0.0
  3
*Paper_Space
  1

  0
ENDBLK
  5
1D
330
1B
100
AcDbEntity
 67
     1
  8
0
100
AcDbBlockEnd
  0
BLOCK
  5
24
330
23
100
AcDbEntity
  8
0
100
AcDbBlockBegin
  2
*Paper_Space0
 70
     0
 10
0.0
 20
0.0
 30
0.0
  3
*Paper_Space0
  1

  0
ENDBLK
  5
25
330
23
100
AcDbEntity
  8
0
100
AcDbBlockEnd
  0
ENDSEC
  0
SECTION
  2
ENTITIES
  0
LWPOLYLINE
  5
93B
330
1F
100
AcDbEntity
  8
ceco.net 126
100
AcDbPolyline
 90
       58
 70
     0
 43
0.0
 10
-111.5202682036738
 20
1620.280169042688
 10
-110.7948878960082
 20
1623.905664595447
 10
-108.4115204342692
 20
1627.013246207527
 10
-104.7846363804942
 20
1629.810062038665
 10
-99.91425321888847
 20
1631.674602297622
 10
-92.45324108792919
 20
1632.917632765386
 10
-84.99222895708454
 20
1632.710462835002
 10
-78.36022788771288
 20
1631.674602297622
 10
-69.13759784898729
 20
1629.395711292509
 10
-67.27234918741351
 20
1628.670616536101
 10
-63.33459035665192
 20
1629.706477073451
 10
-57.8424576411885
 20
1629.913647003864
 10
-53.4902107640687
 20
1629.602892108253
 10
-47.58357251792631
 20
1632.710462835002
 10
-39.1899360561224
 20
1635.507278666125
 10
-31.10717437142056
 20
1637.268233959899
 10
-20.33017044810776
 20
1635.921618526936
 10
-9.96765457103811
 20
1633.642727521809
 10
-0.0196442247620326
 20
1631.363847402026
 10
5.576119244623441
 20
1629.499296257693
 10
7.752242683068743
 20
1626.909661242328
 10
8.373992237040965
 20
1622.559060047816
 10
8.063117460054854
 20
1616.136737778602
 10
5.576119244623441
 20
1610.232351220743
 10
1.741973683118885
 20
1606.399674852241
 10
-4.786396632446212
 20
1602.152658622941
 10
-12.97278907107056
 20
1598.423567219652
 10
-21.26279477895195
 20
1596.351857030267
 10
-31.52167990221414
 20
1595.730347239072
 10
-38.87906127925134
 20
1597.180547637234
 10
-45.20018757175193
 20
1601.531148831732
 10
-48.30895282559095
 20
1605.156644384477
 10
-51.62494461794494
 20
1611.371796723307
 10
-53.69745478724735
 20
1617.276183281166
 10
-55.35545942564204
 20
1623.180569839039
 10
-55.35545942564204
 20
1625.66663077455
 10
-57.11707733340836
 20
1627.013246207527
 10
-60.43308661042693
 20
1627.220416137939
 10
-63.54183437971596
 20
1626.806076277115
 10
-64.99259499504614
 20
1625.045110098011
 10
-65.1998390182257
 20
1622.662645013029
 10
-66.23609410287691
 20
1617.483353211578
 10
-68.51584829512922
 20
1613.443506912678
 10
-69.96659142602402
 20
1609.092905718165
 10
-72.24634561839093
 20
1604.017198881913
 10
-73.17896994912053
 20
1600.909628155178
 10
-78.56747191077693
 20
1596.869781856292
 10
-85.82124001855708
 20
1594.798071666906
 10
-91.7278607802641
 20
1594.590901736508
 10
-98.04900455720009
 20
1595.626751388529
 10
-103.437506518971
 20
1598.734333000609
 10
-106.960759818939
 20
1600.806043189979
 10
-109.4477580343705
 20
1604.84588948888
 10
-111.1057626728802
 20
1610.12876625553
 10
-111.6238989574808
 20
1615.204462206451
 10
-114.2145104422838
 20
1615.722397917805
 10
-114.3181411959762
 20
1619.865829181891
 10
-111.5202682036738
 20
1620.280169042688
  0
LWPOLYLINE
  5
93C
330
1F
100
AcDbEntity
  8
ceco.net 126
100
AcDbPolyline
 90
       10
 70
     0
 43
0.0
 10
-84.0891884352286
 20
1550.61217181297
 10
-79.95525328284748
 20
1552.201541376757
 10
-74.70834096929365
 20
1553.949847896931
 10
-68.18946474841095
 20
1554.585595722446
 10
-63.89654284987455
 20
1555.06240659159
 10
-54.99269059150583
 20
1554.744532678818
 10
-49.26880055505034
 20
1554.267721809689
 10
-41.31893871158445
 20
1552.678352245901
 10
-37.18500355920332
 20
1552.360478333143
 10
-35.91303965187535
 20
1551.883667464
  0
LWPOLYLINE
  5
93D
330
1F
100
AcDbEntity
  8
ceco.net 126
100
AcDbPolyline
 90
       15
 70
     0
 43
0.0
 10
-102.7698576860161
 20
1598.349295888012
 10
-104.1228297897619
 20
1594.160854319506
 10
-104.9178159741891
 20
1587.008702167769
 10
-104.1228297897619
 20
1575.406315237442
 10
-102.214866444277
 20
1566.98266743469
 10
-101.5788670061201
 20
1561.102000048653
 10
-101.7378712368258
 20
1547.751306598137
 10
-99.35291268377433
 20
1532.334432714704
 10
-95.69597273895942
 20
1517.553317542117
 10
-87.90511512619877
 20
1499.116641487466
 10
-83.77117997381764
 20
1487.355317600752
 10
-84.74230521909476
 20
1475.346395603651
 10
-86.17329084156381
 20
1463.585071716923
 10
-85.21930042654593
 20
1454.525676088655
 10
-84.58331847293948
 20
1451.188000004679
  0
LWPOLYLINE
  5
93E
330
1F
100
AcDbEntity
  8
ceco.net 126
100
AcDbPolyline
 90
        6
 70
     0
 43
0.0
 10
-82.3573466660432
 20
1494.418808598458
 10
-76.47445239888248
 20
1492.352628165527
 10
-66.29863623318533
 20
1491.081143399827
 10
-56.44081104423412
 20
1492.511565121898
 10
-40.85907833427746
 20
1497.438610769662
 10
-25.75435831643744
 20
1502.20671946104
  0
LWPOLYLINE
  5
93F
330
1F
100
AcDbEntity
  8
ceco.net 126
100
AcDbPolyline
 90
        5
 70
     0
 43
0.0
 10
-83.6295378721793
 20
1532.15421490428
 10
-70.90975892272536
 20
1534.379332293597
 10
-60.25694754957704
 20
1533.743584468082
 10
-55.6460346741801
 20
1534.061458380825
 10
-53.89705807485007
 20
1534.061458380825
  0
LWPOLYLINE
  5
940
330
1F
100
AcDbEntity
  8
ceco.net 126
100
AcDbPolyline
 90
       15
 70
     0
 43
0.0
 10
-73.17896994912053
 20
1600.909628155178
 10
-75.67749046372774
 20
1594.798191405727
 10
-77.42646706305777
 20
1589.871156643323
 10
-76.4724766480399
 20
1585.261984908331
 10
-73.45153614138189
 20
1584.46730012643
 10
-69.47660521970601
 20
1582.242182737113
 10
-66.29666048234276
 20
1581.288571884185
 10
-62.79872476811852
 20
1581.924308824356
 10
-61.20875239949419
 20
1584.94411099556
 10
-58.50580286958211
 20
1585.73879577746
 10
-51.35092721054298
 20
1585.420921864703
 10
-46.10401489698915
 20
1583.036867519014
 10
-44.35505578220954
 20
1583.672615344514
 10
-42.60607918276446
 20
1585.103047951931
 10
-41.65208876786209
 20
1588.122850123134
  0
LWPOLYLINE
  5
941
330
1F
100
AcDbEntity
  8
ceco.net 126
100
AcDbPolyline
 90
        4
 70
     0
 43
0.0
 10
8.182633340795746
 20
1623.898065821605
 10
13.52381300742445
 20
1624.198415126565
 10
20.20192075770546
 20
1622.377808129424
 10
52.88423151636971
 20
1610.442677901865
  0
LWPOLYLINE
  5
942
330
1F
100
AcDbEntity
  8
ceco.net 126
100
AcDbPolyline
 90
        4
 70
     0
 43
0.0
 10
8.296831269868107
 20
1620.965001494695
 10
13.22026424468504
 20
1621.366352540758
 10
50.25345808773545
 20
1608.419777609922
 10
52.88423151636971
 20
1610.442677901865
  0
LWPOLYLINE
  5
943
330
1F
100
AcDbEntity
  8
ceco.net 126
100
AcDbPolyline
 90
       16
 70
     0
 43
0.0
 10
51.77120190166125
 20
1608.116337667719
 10
56.32446831242351
 20
1610.746117844068
 10
59.46115634573789
 20
1612.465578193808
 10
64.72270320300641
 20
1613.274740487657
 10
68.26412291997304
 20
1613.173593840256
 10
72.10910888434364
 20
1611.959855842162
 10
74.33515062932565
 20
1608.318630962521
 10
77.16828989978603
 20
1601.137327850641
 10
76.46069134958953
 20
1589.775463554934
 10
75.65122798216998
 20
1583.605605146359
 10
72.51452246430517
 20
1576.222008739691
 10
68.46718814265887
 20
1567.624674334914
 10
64.01510465280944
 20
1562.466271514977
 10
59.56303864751044
 20
1555.689544107355
 10
53.59319385907065
 20
1553.363203873224
 10
48.8375790910327
 20
1552.452894931974
  0
LWPOLYLINE
  5
944
330
1F
100
AcDbEntity
  8
ceco.net 126
100
AcDbPolyline
 90
        8
 70
     0
 43
0.0
 10
56.02160144587879
 20
1600.294551604252
 10
58.55119195359975
 20
1603.126625075375
 10
61.99144623420352
 20
1605.655247718963
 10
65.22931718854625
 20
1606.565556660227
 10
67.55654185432604
 20
1606.666703307628
 10
71.70505909688609
 20
1605.756394366364
 10
73.42518623718797
 20
1602.216316134139
 10
74.23464960472211
 20
1599.080813606143
  0
LWPOLYLINE
  5
945
330
1F
100
AcDbEntity
  8
ceco.net 126
100
AcDbPolyline
 90
        7
 70
     0
 43
0.0
 10
44.99259312666163
 20
1565.601763157626
 10
45.19495896848775
 20
1569.849867921659
 10
46.8139031878768
 20
1573.389946153899
 10
48.33164700180214
 20
1576.222008739691
 10
48.63521324909152
 20
1579.762086971917
 10
48.63521324909152
 20
1583.302165204156
 10
50.25413998393014
 20
1587.145683378584
  0
LWPOLYLINE
  5
946
330
1F
100
AcDbEntity
  8
ceco.net 126
100
AcDbPolyline
 90
        8
 70
     0
 43
0.0
 10
67.86009061718004
 20
1591.494923904674
 10
68.66955398459959
 20
1587.853699025047
 10
68.97310274733854
 20
1584.212474145406
 10
67.86009061718004
 20
1580.571249265765
 10
65.33050010934449
 20
1576.424302034493
 10
63.40800712721602
 20
1573.491092801286
 10
59.15828947919317
 20
1570.659030215508
 10
57.53936274435455
 20
1569.546427979471
  0
LWPOLYLINE
  5
947
330
1F
100
AcDbEntity
  8
ceco.net 126
100
AcDbPolyline
 90
       35
 70
     0
 43
0.0
 10
53.07879773634931
 20
1553.264739339667
 10
50.42066255847567
 20
1547.282561771377
 10
47.93894466836309
 20
1536.570193494848
 10
45.68286451689118
 20
1528.789630241709
 10
43.76517977791581
 20
1521.009077873929
 10
44.34320054567296
 20
1507.533649228356
 10
45.58405949078633
 20
1493.212908050436
 10
47.95294976930335
 20
1487.123775377674
 10
50.77306307191202
 20
1483.966447728288
 10
55.96208413770227
 20
1479.794257376541
 10
63.40718535484985
 20
1476.74969104016
 10
65.55047286359604
 20
1474.156169955771
 10
67.35534747541123
 20
1468.179798596015
 10
65.55047286359604
 20
1461.188564533883
 10
62.1519191645998
 20
1453.690203910302
 10
56.62448520199314
 20
1446.586208535165
 10
49.51779688189208
 20
1439.933269297392
 10
39.02697959236547
 20
1431.927183418243
 10
27.74650889726717
 20
1427.41670912751
 10
12.29229079638616
 20
1425.048721554476
 10
-4.966819400975509
 20
1423.131768348116
 10
-25.27164567060117
 20
1423.357290974112
 10
-44.93499984715845
 20
1424.824091526964
 10
-59.9380124086133
 20
1428.545225741361
 10
-71.55689600064261
 20
1435.085414551473
 10
-81.59649026596298
 20
1442.865977804612
 10
-90.39526055538408
 20
1450.195484920386
 10
-97.1635359786692
 20
1456.397389791511
 10
-99.19401336025522
 20
1459.441956127892
 10
-99.64523638434684
 20
1461.47167064727
 10
-98.74279033616359
 20
1463.501374281304
 10
-97.38913874843957
 20
1464.403475670646
 10
-94.90743834264732
 20
1465.982134052673
 10
-89.9440375312929
 20
1468.801177763058
 10
-85.07085162509929
 20
1472.646060510907
  0
LWPOLYLINE
  5
948
330
1F
100
AcDbEntity
  8
ceco.net 126
100
AcDbPolyline
 90
       51
 70
     0
 43
0.0
 10
-95.71386938546856
 20
1465.469147423727
 10
-98.33302311043645
 20
1465.862569397592
 10
-100.4763106191826
 20
1465.298751947236
 10
-104.9884884065609
 20
1464.05837750421
 10
-107.2445860424682
 20
1461.690379045831
 10
-109.6134763210998
 20
1460.111709778472
 10
-112.9976227749598
 20
1459.09685796147
 10
-117.1713876652925
 20
1458.64581270945
 10
-120.7811368889233
 20
1458.420290083454
 10
-123.7140603186921
 20
1457.179904755097
 10
-127.0981892881168
 20
1453.571531853705
 10
-130.7079385117481
 20
1450.865249456311
 10
-139.393898674009
 20
1445.790968600552
 10
-154.171290981028
 20
1440.829449057798
 10
-163.7596797069213
 20
1434.965839011033
 10
-181.7673896552273
 20
1424.884058905402
 10
-198.3496740587265
 20
1413.38236143788
 10
-219.5569288919851
 20
1396.693621801595
 10
-225.7611886485688
 20
1392.408670136843
 10
-240.9898039796789
 20
1378.426212897938
 10
-250.6910028327329
 20
1367.601083308418
 10
-251.7062415235259
 20
1364.669278285028
 10
-251.2550184994347
 20
1360.046053566634
 10
-254.5668839449453
 20
1345.747300790319
 10
-260.0494001741048
 20
1321.229579875965
 10
-264.3776932578698
 20
1288.92386101627
 10
-269.5716624429846
 20
1257.771923661535
 10
-271.3029796764681
 20
1228.350647678956
 10
-272.168638293152
 20
1197.487150257826
 10
-272.7436517234423
 20
1172.500194676083
 10
-273.4544849099143
 20
1160.989179351231
 10
-273.4544849099143
 20
1157.152181499844
 10
-274.1653006119509
 20
1153.599400067281
 10
-273.3123182725735
 20
1147.914951952226
 10
-272.7436517234423
 20
1133.988042640756
 10
-261.7969255582943
 20
1134.982821877289
 10
-234.6433775858699
 20
1139.814609850554
 10
-201.6610499376361
 20
1145.925393479161
 10
-181.1892639803986
 20
1152.604620830734
 10
-175.076151029908
 20
1156.015283168568
 10
-173.5123355041737
 20
1158.146960736391
 10
-173.228002229493
 20
1162.836629614884
 10
-170.8112043644973
 20
1177.047755345178
 10
-171.5220200664189
 20
1179.605757541223
 10
-174.0810020533058
 20
1179.605757541223
 10
-178.6302819935122
 20
1177.331971763988
 10
-185.4542106459243
 20
1174.631861358546
 10
-206.494663152408
 20
1168.663185939351
 10
-233.2217286973614
 20
1164.541960783808
 10
-257.5319788927686
 20
1159.141739972908
 10
-270.469003011121
 20
1157.720625222823
  0
LWPOLYLINE
  5
949
330
1F
100
AcDbEntity
  8
ceco.net 126
100
AcDbPolyline
 90
       16
 70
     0
 43
0.0
 10
-173.3251811953
 20
1179.605757541223
 10
-173.4673478325257
 20
1181.940065849606
 10
-173.4673478325257
 20
1185.066511768602
 10
-173.1830145579601
 20
1189.045617829401
 10
-174.035996897222
 20
1192.598399261979
 10
-173.0408479206194
 20
1197.714403654054
 10
-172.8986812833941
 20
1203.398851769094
 10
-173.1830145579601
 20
1208.656975255926
 10
-174.8889967210343
 20
1217.041533776409
 10
-176.0263123349773
 20
1221.304867141363
 10
-176.3106456095429
 20
1228.978873729483
 10
-176.0263123349773
 20
1234.236997216315
 10
-177.1636454333552
 20
1240.774116358476
 10
-183.7032408112017
 20
1259.81701917669
 10
-182.9924076247298
 20
1266.35412743352
 10
-182.1394252853528
 20
1271.470131825581
  0
LWPOLYLINE
  5
94A
330
1F
100
AcDbEntity
  8
ceco.net 126
100
AcDbPolyline
 90
       29
 70
     0
 43
0.0
 10
55.94074411368774
 20
1479.811415649926
 10
59.19220944928156
 20
1479.844003413847
 10
66.8633155801649
 20
1476.932031493299
 10
83.07945663685178
 20
1468.681449827763
 10
98.90717906766349
 20
1461.013256015117
 10
115.9972489193846
 20
1456.25703412302
 10
129.8829131894649
 20
1448.297646383943
 10
150.6628813074362
 20
1439.5617306223
 10
170.5689031459373
 20
1430.340480764551
 10
182.6665828511036
 20
1422.322747563778
 10
194.1246962758432
 20
1413.87802572858
 10
206.3596294680114
 20
1403.1037307111
 10
215.9727762750758
 20
1390.388121079912
 10
218.8858547738973
 20
1388.25267718193
 10
219.6626745413254
 20
1383.108185835884
 10
219.953984139594
 20
1365.248095744009
 10
221.89604230044
 20
1354.862059295118
 10
231.1498822084518
 20
1333.228628863053
 10
236.4905115524993
 20
1306.147288913442
 10
244.2587267111039
 20
1274.503856356036
 10
253.9097799589276
 20
1241.95708147967
 10
263.3832778996315
 20
1212.305417120844
 10
270.3719282210195
 20
1188.087304506436
 10
275.3416409443175
 20
1175.823001375585
 10
280.0007411585379
 20
1162.471981364655
 10
278.2923985852053
 20
1160.298569375157
 10
269.5954056904852
 20
1159.211852495064
 10
259.5007002159459
 20
1156.262217272768
 10
253.9878968310426
 20
1154.707909670826
  0
LWPOLYLINE
  5
94B
330
1F
100
AcDbEntity
  8
ceco.net 126
100
AcDbPolyline
 90
       25
 70
     0
 43
0.0
 10
251.790748713061
 20
1163.493157196737
 10
255.3075100231822
 20
1149.431465886336
 10
260.3002848292671
 20
1136.924375968639
 10
270.8609178096981
 20
1116.121628162074
 10
283.1568544942833
 20
1081.267965167267
 10
290.7048870843778
 20
1045.924820758999
 10
293.0884818448102
 20
1010.184557109419
 10
294.280279224969
 20
965.3106706481249
 10
294.6775275338818
 20
924.4079221733645
 10
293.8830134316208
 20
900.5810833687743
 10
295.4812734630309
 20
876.5898758194612
 10
301.0429945707064
 20
850.7774625789171
 10
308.1937613673385
 20
821.7881389491312
 10
310.9178496826157
 20
808.7612301549789
 10
311.8964757872972
 20
802.10908554756
 10
311.5050323392906
 20
796.6308603376951
 10
310.9178496826157
 20
788.0222051716946
 10
309.3520409214888
 20
773.9353356812025
 10
304.6546321225437
 20
763.9571187700672
 10
297.9999711144651
 20
752.2180554186343
 10
292.2960833695642
 20
744.8706092504498
 10
283.2927092196805
 20
737.8271690625243
 10
276.0549219637983
 20
733.6012050949807
 10
273.7406008741336
 20
733.3120249577732
 10
271.7449176885388
 20
737.0445670161662
  0
LWPOLYLINE
  5
94C
330
1F
100
AcDbEntity
  8
ceco.net 126
100
AcDbPolyline
 90
        7
 70
     0
 43
0.0
 10
241.0699522908171
 20
725.7933087346728
 10
248.1865193651315
 20
730.9985729748827
 10
257.5595687347677
 20
740.3680594925599
 10
271.792702883396
 20
761.1891273386736
 10
275.0906156815021
 20
767.2619428757935
 10
282.554337913149
 20
786.6949438863053
 10
285.331544202138
 20
793.8088122714557
  0
LWPOLYLINE
  5
94D
330
1F
100
AcDbEntity
  8
ceco.net 126
100
AcDbPolyline
 90
        9
 70
     0
 43
0.0
 10
241.7484251062742
 20
726.2895634945834
 10
243.3264171015894
 20
723.5376906021606
 10
246.7979162205792
 20
722.6701393052222
 10
251.6580184841213
 20
724.0582170261687
 10
269.36265175174
 20
734.9892828159276
 10
273.1813060279478
 20
737.765427372462
 10
284.2900962149192
 20
752.5136796814554
 10
291.0595081319002
 20
763.0977314836427
 10
297.6553512126624
 20
784.6128381902153
  0
LWPOLYLINE
  5
94E
330
1F
100
AcDbEntity
  8
ceco.net 126
100
AcDbPolyline
 90
       14
 70
     0
 43
0.0
 10
241.0699522908171
 20
725.7933087346728
 10
238.8134699953802
 20
727.3548880067401
 10
237.0777291781601
 20
731.1720854113336
 10
236.9041603418259
 20
740.194547056109
 10
242.8056931080368
 20
752.3401781303491
 10
249.4015361886845
 20
765.5268511672898
 10
253.0466216285585
 20
769.691073444771
 10
253.7409144585594
 20
770.3851014199139
 10
254.6087936094445
 20
777.1519558174932
 10
257.0388447412156
 20
789.4710884428396
 10
259.1217407156536
 20
796.5849568280045
 10
255.2889414622181
 20
803.4082408661738
 10
247.9987880670196
 20
806.5313994102652
 10
246.2630472497999
 20
807.7459646947612
  0
LWPOLYLINE
  5
94F
330
1F
100
AcDbEntity
  8
ceco.net 126
100
AcDbPolyline
 90
       32
 70
     0
 43
0.0
 10
246.4366160861336
 20
824.9233475727464
 10
246.0894784134657
 20
817.1154512124667
 10
245.3951680989143
 20
810.175095263767
 10
245.3951680989143
 20
805.4903465622347
 10
246.0894784134657
 20
799.0705170375431
 10
246.0894784134657
 20
794.5592807725047
 10
243.4858409608104
 20
782.9341870076173
 10
241.2293761499236
 20
777.7289118820909
 10
236.3692738864961
 20
768.0124113768283
 10
230.1205859630672
 20
764.8892528327078
 10
221.7889845805352
 20
763.8481999846772
 10
220.053243763315
 20
765.5832916931813
 10
220.053243763315
 20
772.35013520543
 10
223.3511565614212
 20
792.1301610888576
 10
221.7889845805352
 20
804.6228061506694
 10
223.0040188886382
 20
814.8598330799263
 10
227.169810837629
 20
829.7815978253707
 10
232.3770507738395
 20
842.2742428871679
 10
239.3200490118192
 20
852.3377682653327
 10
242.4255796293837
 20
863.364744850419
 10
244.682044440156
 20
881.0626650377571
 10
242.7727347866016
 20
903.2718106048173
 10
233.2132654578222
 20
941.1542344116964
 10
217.4179593283079
 20
979.8467348815847
 10
206.0813982911308
 20
1014.237542022562
 10
198.863525904167
 20
1044.20813617283
 10
193.588918109946
 20
1076.121274981064
 10
189.7023539555893
 20
1108.866925153163
 10
188.0046769397363
 20
1121.497465794949
 10
183.8755849996073
 20
1137.244296326683
 10
177.8349628717242
 20
1156.138429102905
 10
175.8863829847919
 20
1160.813261253016
  0
LWPOLYLINE
  5
950
330
1F
100
AcDbEntity
  8
ceco.net 126
100
AcDbPolyline
 90
       18
 70
     0
 43
0.0
 10
178.8269821191229
 20
1151.145342052912
 10
176.9069194853386
 20
1152.776783484134
 10
173.4507892600236
 20
1158.150933888143
 10
173.1627842360017
 20
1162.277514634594
 10
174.6028268402019
 20
1162.949292959772
 10
177.4829295331533
 20
1161.413816750615
 10
179.5950071726133
 20
1159.782375319393
 10
183.6271649304085
 20
1158.438840439713
 10
191.3074504345299
 20
1158.91866655007
 10
204.4599188162115
 20
1159.302538323692
 10
229.7088604710475
 20
1160.933979754914
 10
243.3082856536907
 20
1162.675885690853
 10
259.2448841945283
 20
1164.211351014679
 10
267.501179746579
 20
1163.635548796897
 10
273.9334201677416
 20
1163.347653130701
 10
276.7175153577968
 20
1162.196048695166
 10
277.3895503930566
 20
1161.428305147922
 10
277.2935428901614
 20
1160.564607263944
  0
LWPOLYLINE
  5
951
330
1F
100
AcDbEntity
  8
ceco.net 126
100
AcDbPolyline
 90
       20
 70
     0
 43
0.0
 10
183.3624318034312
 20
1334.153513284382
 10
187.0460880958239
 20
1310.341641832339
 10
188.519543618961
 20
1278.919791405225
 10
184.3447471418894
 20
1248.479875504752
 10
179.4332054186988
 20
1222.949632237717
 10
172.311497895238
 20
1195.455509031968
 10
166.9088159873686
 20
1169.434293058926
 10
165.4462708050691
 20
1151.835897602233
 10
167.4108839974351
 20
1131.460791550936
 10
169.1299096130264
 20
1109.858275505281
 10
171.0945228053929
 20
1095.129279375714
 10
173.7958637593274
 20
1079.909321425485
 10
173.3047235745338
 20
1064.934849828274
 10
176.2813408214174
 20
1031.954326516815
 10
178.7370941985777
 20
987.2763871928126
 10
180.4561372984894
 20
974.756746469634
 10
182.1751803986312
 20
964.4464502674692
 10
182.6663205833096
 20
956.5909849393651
 10
182.6663205833096
 20
944.8077923898527
 10
181.6840227294019
 20
939.1616824681218
  0
LWPOLYLINE
  5
952
330
1F
100
AcDbEntity
  8
ceco.net 126
100
AcDbPolyline
 90
        5
 70
     0
 43
0.0
 10
130.5354704686433
 20
1227.394032470173
 10
137.2125291477495
 20
1203.051641845288
 10
151.3521910490126
 20
1157.115203974958
 10
163.1352368053299
 20
1108.037799132306
 10
169.4195232127963
 20
1074.665174724642
  0
LWPOLYLINE
  5
953
330
1F
100
AcDbEntity
  8
ceco.net 126
100
AcDbPolyline
 90
       14
 70
     0
 43
0.0
 10
116.0608925745182
 20
1084.70602592431
 10
135.3065415529922
 20
1036.806491860275
 10
151.0172750562655
 20
1002.648620266862
 10
171.4412233651096
 20
957.4974186969511
 10
188.7230284701631
 20
924.5174069968248
 10
200.5060742263653
 20
895.4635876841093
 10
212.2891374672331
 20
858.9500071894395
 10
219.3589684178646
 20
833.0371439637305
 10
219.7517232049544
 20
822.8290502876657
 10
218.573423874699
 20
816.1545145207711
 10
214.2529813406531
 20
815.3692782203666
 10
199.3277748961104
 20
811.4430858329555
 10
190.6868723435832
 20
810.6578495325507
 10
173.7978395101699
 20
810.6578495325507
  0
LWPOLYLINE
  5
954
330
1F
100
AcDbEntity
  8
ceco.net 126
100
AcDbPolyline
 90
       17
 70
     0
 43
0.0
 10
177.3325102021276
 20
828.5325042191466
 10
172.619277912006
 20
813.2203582623697
 10
165.9422192330148
 20
793.9820199181963
 10
164.7639199026448
 20
777.0994013605818
 10
166.33499150454
 20
746.4750985616979
 10
156.5157896217583
 20
712.3172378536155
 10
153.3736289335324
 20
695.4346084106705
 10
148.2843920270502
 20
634.3702808578519
 10
144.7494765517344
 20
557.0243038882336
 10
135.6631208669218
 20
493.2800364785739
 10
131.342660848441
 20
462.2631209721389
 10
130.5571163051604
 20
426.9274003707696
 10
130.9498885768007
 20
383.3466714016967
 10
127.8077453731252
 20
354.2928520889813
 10
117.2029989470629
 20
320.1349804955398
 10
103.4561093173251
 20
276.554251526481
 10
89.70921968758739
 20
241.2185309251122
  0
LWPOLYLINE
  5
955
330
1F
100
AcDbEntity
  8
ceco.net 126
100
AcDbPolyline
 90
        3
 70
     0
 43
0.0
 10
-272.7436517234423
 20
1133.988042640756
 10
-264.6969081511779
 20
1132.899137805851
 10
-259.8112959720697
 20
1132.239170082526
  0
LWPOLYLINE
  5
956
330
1F
100
AcDbEntity
  8
ceco.net 126
100
AcDbPolyline
 90
       29
 70
     0
 43
0.0
 10
-259.5472097724164
 20
1135.275017255695
 10
-260.8676407709113
 20
1122.339654232592
 10
-266.4134859337605
 20
1102.408637696355
 10
-270.7709257134479
 20
1080.101730824915
 10
-272.8901545217681
 20
1051.265749082979
 10
-276.1912495027286
 20
1015.099530906999
 10
-278.043751948679
 20
986.938527782358
 10
-277.1194327651705
 20
962.5197220191994
 10
-273.1570732138457
 20
925.0830314148252
 10
-269.0637196339262
 20
889.0487980752427
 10
-268.1363581438504
 20
871.6636792288031
 10
-268.1363581438504
 20
860.9722108191604
 10
-267.7402288443131
 20
838.269327667866
 10
-265.3634355624258
 20
832.4616138796395
 10
-264.4391338633531
 20
826.3899086479565
 10
-264.4391338633531
 20
817.1503605213475
 10
-267.4761426445452
 20
803.0270577733368
 10
-269.7216271765087
 20
784.3376892657347
 10
-271.4381874745408
 20
772.9862422474079
 10
-271.5702305744248
 20
762.5587543958913
 10
-269.4575409767407
 20
753.979184877981
 10
-268.6652823775521
 20
749.2274150929484
 10
-267.873006293928
 20
734.0481574563845
 10
-264.0437389136613
 20
719.3968827067769
 10
-257.573609536405
 20
704.6136122354123
 10
-250.9714195747142
 20
692.7341932154886
 10
-248.5946437773768
 20
692.9981737736288
 10
-245.8217211958376
 20
696.9579801136083
 10
-243.8410746981521
 20
699.2018747270544
  0
LWPOLYLINE
  5
957
330
1F
100
AcDbEntity
  8
ceco.net 126
100
AcDbPolyline
 90
        7
 70
     0
 43
0.0
 10
-261.9666827691148
 20
747.5340360354011
 10
-257.2379591936974
 20
726.2628046504219
 10
-248.4560090132058
 20
704.6539315619398
 10
-239.3363103475426
 20
693.8494950176846
 10
-232.6062211173607
 20
688.864702602329
 10
-221.0968955316662
 20
675.2793754901086
 10
-216.7059379259703
 20
678.3181181656705
  0
LWPOLYLINE
  5
958
330
1F
100
AcDbEntity
  8
ceco.net 126
100
AcDbPolyline
 90
        4
 70
     0
 43
0.0
 10
-252.5092181338445
 20
735.7166852659538
 10
-249.131558437085
 20
724.236976200038
 10
-243.3895194681813
 20
710.0561552767185
 10
-232.6062211173607
 20
688.864702602329
  0
LWPOLYLINE
  5
959
330
1F
100
AcDbEntity
  8
ceco.net 126
100
AcDbPolyline
 90
       20
 70
     0
 43
0.0
 10
-235.2831187114538
 20
737.7425137163236
 10
-227.8522324096206
 20
712.757256248763
 10
-220.421363592337
 20
692.1613082708176
 10
-211.6394308963958
 20
675.9546480117838
 10
-207.5862217757571
 20
672.2406328145471
 10
-199.4798210191443
 20
674.9417337865915
 10
-197.4532252010426
 20
680.3439575013844
 10
-198.877147077288
 20
694.2681237053461
 10
-202.7046135518694
 20
703.2509409151402
 10
-205.5336089910519
 20
711.5683803839915
 10
-206.1992621761678
 20
719.5531092116598
 10
-208.3626219146694
 20
728.2032375509757
 10
-210.858799503454
 20
732.6946515985596
 10
-210.3595639856971
 20
740.3466806704186
 10
-210.3595639856971
 20
749.3295087655432
 10
-210.3595639856971
 20
752.6564845530897
 10
-208.5290220975934
 20
756.981548722762
 10
-204.701555622897
 20
761.6393017628984
 10
-202.2053780341125
 20
764.1345390462161
 10
-201.7061425163556
 20
766.1307158104537
  0
LWPOLYLINE
  5
95A
330
1F
100
AcDbEntity
  8
ceco.net 126
100
AcDbPolyline
 90
       35
 70
     0
 43
0.0
 10
-203.3702667371003
 20
778.1078199373296
 10
-202.2053780341125
 20
768.6259530938
 10
-199.8756181128019
 20
763.8018392903927
 10
-198.5443117424551
 20
760.9739131365959
 10
-198.2114938920572
 20
756.981548722762
 10
-193.7183742322449
 20
739.1822424103666
 10
-189.7244900901896
 20
730.8648138268745
 10
-183.4008460268237
 20
725.5416612750909
 10
-177.7428376640236
 20
722.0483356096329
 10
-169.9214870472719
 20
720.5511975937715
 10
-165.2619672045361
 20
722.3810353654562
 10
-164.2634961690223
 20
724.8762617634579
 10
-166.2604382401646
 20
729.700375566837
 10
-171.2527934176191
 20
740.5130305483162
 10
-178.4084908491399
 20
755.6507605848123
 10
-182.2359573238359
 20
766.4634155662915
 10
-182.0695571409119
 20
775.4462436614308
 10
-184.3993170622229
 20
782.1001843511639
 10
-193.7275710901481
 20
801.3115052632807
 10
-199.2191617854746
 20
811.2924217405316
 10
-204.7107524808002
 20
818.4454120640003
 10
-207.2069300695852
 20
825.0993636390926
 10
-210.2023256915763
 20
834.5812304826221
 10
-212.1992677626039
 20
849.386260763295
 10
-214.8678077558256
 20
878.9230955931111
 10
-215.2006430907736
 20
903.3763425952251
 10
-213.5365188700288
 20
932.4873426374901
 10
-207.870485112237
 20
957.0092652958942
 10
-201.5468410488706
 20
993.9386551732605
 10
-197.9701026002107
 20
1031.82285329175
 10
-194.5100908112963
 20
1069.868502881851
 10
-192.3808608570266
 20
1091.950943005981
 10
-188.3885328372975
 20
1119.886554128777
 10
-187.5900672333523
 20
1126.803941994629
 10
-185.9582329879635
 20
1151.048673132759
  0
LWPOLYLINE
  5
95B
330
1F
100
AcDbEntity
  8
ceco.net 126
100
AcDbPolyline
 90
       19
 70
     0
 43
0.0
 10
-101.5317462230218
 20
1631.157254395028
 10
-100.1870641943933
 20
1635.458577622174
 10
-98.30452334183839
 20
1640.700819387241
 10
-96.28750904117033
 20
1647.824887342834
 10
-93.73263591657588
 20
1656.696380105489
 10
-88.35392528649618
 20
1667.315275904473
 10
-79.88248270789654
 20
1679.143925664441
 10
-73.42803694564373
 20
1682.638753507819
 10
-65.22552377906413
 20
1684.655002852555
 10
-55.81278454753328
 20
1685.99916908236
 10
-44.51752194788332
 20
1688.821913810836
 10
-35.64265902482884
 20
1691.779070808149
 10
-25.96100786582837
 20
1695.408310920377
 10
-21.3891029560159
 20
1696.886900304378
 10
-0.2777157493660525
 20
1695.27389865154
 10
7.655868005307638
 20
1695.542734074559
 10
19.75795380966019
 20
1695.811569497606
 10
27.96046697635484
 20
1695.811569497606
 10
30.3808841371565
 20
1695.677146343424
  0
LWPOLYLINE
  5
95C
330
1F
100
AcDbEntity
  8
ceco.net 126
100
AcDbPolyline
 90
       12
 70
     0
 43
0.0
 10
17.28415640735329
 20
1693.917682342227
 10
14.99821269466474
 20
1687.600109770358
 10
17.28415640735329
 20
1678.728627893063
 10
17.6875592674869
 20
1662.733067174815
 10
17.82201523116464
 20
1658.16290852465
 10
14.59480983453113
 20
1651.576500529764
 10
15.13266865845753
 20
1642.167347806388
 10
17.82201523116464
 20
1635.984198388731
 10
20.78030870044267
 20
1633.027030506074
 10
24.81433730189337
 20
1627.650376472156
 10
27.10028101446733
 20
1623.752300936893
 10
28.44496304321092
 20
1620.257473093516
  0
LWPOLYLINE
  5
95D
330
1F
100
AcDbEntity
  8
ceco.net 126
100
AcDbPolyline
 90
       10
 70
     0
 43
0.0
 10
29.78962758728949
 20
1613.402229675596
 10
30.20026903891948
 20
1602.871592272772
 10
31.41047761943491
 20
1594.537770356182
 10
32.48623023615801
 20
1582.977956019248
 10
34.36877108859835
 20
1578.67663279213
 10
37.86492338168727
 20
1579.886386753098
 10
40.41981399083169
 20
1585.397453055838
 10
42.16788139504433
 20
1593.865698126624
 10
46.06743654838192
 20
1600.720930659198
 10
49.56360632590667
 20
1607.710586345954
  0
LWPOLYLINE
  5
95E
330
1F
100
AcDbEntity
  8
ceco.net 126
100
AcDbPolyline
 90
       54
 70
     0
 43
0.0
 10
78.33964787532432
 20
1598.167021353756
 10
79.81878586774564
 20
1603.274839964626
 10
81.8358001684137
 20
1609.726835690676
 10
83.8528144691968
 20
1621.958733142527
 10
86.00428473354213
 20
1628.948388829283
 10
86.00428473354213
 20
1636.475704476775
 10
86.67663449013208
 20
1644.271866432643
 10
88.14886609682208
 20
1654.426186492883
 10
88.41781299339254
 20
1660.340511372867
 10
88.14886609682208
 20
1670.152911788098
 10
85.86292238424812
 20
1676.739319782999
 10
83.57697867155957
 20
1683.863387738591
 10
79.13954720997526
 20
1687.89588642805
 10
74.8365891966182
 20
1692.734869615888
 10
64.75151769304876
 20
1697.842699112118
 10
60.98643598805347
 20
1700.262196148723
 10
55.60772535797378
 20
1702.412857762283
 10
51.30476734461717
 20
1705.101190221921
 10
47.40521219127958
 20
1707.655099527363
 10
43.6401304862843
 20
1712.897341292431
 10
37.05121127580378
 20
1717.736335365642
 10
30.46230954975863
 20
1720.693492362954
 10
23.73893437548531
 20
1722.978577130709
 10
9.619851755015133
 20
1725.666909590333
 10
-3.7408222983845
 20
1726.637458043725
 10
-18.93564005114285
 20
1727.98162427353
 10
-25.39008581350981
 20
1725.293291813906
 10
-29.69304382686686
 20
1725.427714968088
 10
-39.240239022075
 20
1722.873794777286
 10
-45.15680847608064
 20
1723.81471331525
 10
-51.20785137819985
 20
1721.798463970514
 10
-60.08269681681895
 20
1718.706883819005
 10
-63.98226945459192
 20
1716.42180993661
 10
-70.03329487227574
 20
1715.346479129809
 10
-74.47072633386006
 20
1712.792569824381
 10
-78.23582552340531
 20
1710.910732748495
 10
-81.32857495624604
 20
1708.894483403774
 10
-83.61451866893503
 20
1704.458747907806
 10
-89.53108812282563
 20
1700.157413795315
 10
-91.68257587183644
 20
1697.065844529166
 10
-92.67914109459388
 20
1689.363231248254
 10
-93.08254395472749
 20
1685.599567981843
 10
-96.57869624781689
 20
1682.239152407302
 10
-99.26804282063905
 20
1675.65275529776
 10
-100.2093219891344
 20
1668.797511879827
 10
-101.6884599814406
 20
1666.243602574399
 10
-105.3190857227577
 20
1662.076691616118
 10
-106.9326971634072
 20
1657.10328527407
 10
-107.3361000234258
 20
1653.070786584612
 10
-109.2186408759812
 20
1647.425297127676
 10
-107.3361000234258
 20
1642.586303054463
 10
-107.7395028836745
 20
1639.763558326003
 10
-106.3948208549309
 20
1634.118068869052
 10
-105.2852010822011
 20
1629.424059271158
  0
LWPOLYLINE
  5
95F
330
1F
100
AcDbEntity
  8
ceco.net 126
100
AcDbPolyline
 90
       39
 70
     0
 43
0.0
 10
-184.6305167484306
 20
1151.481860478511
 10
-184.8428119282161
 20
1144.796680929075
 10
-185.1830956689182
 20
1139.014025210406
 10
-184.3323863172777
 20
1131.19042129392
 10
-182.6309676141122
 20
1123.706984481537
 10
-181.2698151669833
 20
1120.645578512823
 10
-180.7593895560453
 20
1112.141662158852
 10
-180.7593895560453
 20
1104.828298013161
 10
-182.8011094843482
 20
1096.664548763277
 10
-182.1205245185087
 20
1089.351184617586
 10
-181.6100989075707
 20
1081.697664253137
 10
-185.0129537985671
 20
1073.363831451217
 10
-186.2039643753446
 20
1062.478832451377
 10
-186.6918874082989
 20
1041.949894671587
 10
-188.3933235960143
 20
1034.466457859204
 10
-187.8828979849618
 20
1023.581447974019
 10
-187.3724723740233
 20
1008.614563463893
 10
-188.2231817256638
 20
995.0083038287385
 10
-186.0113199270094
 20
978.3406491102292
 10
-181.4174719437855
 20
959.9722024126608
 10
-178.8653264044292
 20
948.9171198607705
 10
-176.8236064760117
 20
937.0116413193432
 10
-178.5327183682898
 20
923.6246343501152
 10
-177.5118671464128
 20
916.4813428711296
 10
-177.6820090167643
 20
893.8609379965546
 10
-178.7028602386403
 20
885.5271160799793
 10
-179.7237114605172
 20
879.2342205905301
 10
-181.4251476483477
 20
872.4310853302732
 10
-183.8071338328027
 20
864.7775649658388
 10
-186.3592793721586
 20
852.191784872285
 10
-188.2308574302255
 20
844.0280247370429
 10
-189.421850522453
 20
835.0138794976373
 10
-187.5502899489365
 20
820.8973909770334
 10
-185.3384281502826
 20
819.366693435356
 10
-180.7445801670587
 20
815.2848079250839
 10
-177.5118671464128
 20
812.2234019563707
 10
-173.428427289577
 20
807.4612148939431
 10
-167.6435687295756
 20
804.7399651439869
 10
-163.3900044870538
 20
804.2297253731931
  0
LWPOLYLINE
  5
960
330
1F
100
AcDbEntity
  8
ceco.net 126
100
AcDbPolyline
 90
       33
 70
     0
 43
0.0
 10
-185.6787118908696
 20
821.4076307478412
 10
-178.5327183682898
 20
820.3871620916128
 10
-170.1957142690466
 20
825.4895053727686
 10
-166.2824337671122
 20
829.0611511122756
 10
-159.8170077258214
 20
836.3745043726225
 10
-151.8202873670507
 20
839.9461501121153
 10
-139.2297190251711
 20
844.5382645078366
 10
-123.0661539220586
 20
849.3004515702777
 10
-100.9475883884792
 20
852.8720973097707
 10
-80.87074278343242
 20
853.5524097472562
 10
-64.1967520692674
 20
853.7224824139626
 10
-58.07160976867862
 20
852.02170132022
 10
-50.07488940990788
 20
848.9602953515349
 10
-39.76094553119173
 20
848.3782993711269
 10
-29.8926645989045
 20
849.7389242461121
 10
-24.78837352019218
 20
845.4869660691198
 10
-18.49308934925238
 20
838.5137581421703
 10
-11.51723769702357
 20
831.5405502152216
 10
-4.711527915145325
 20
827.798831809037
 10
13.6638989867356
 20
822.6964885278672
 10
30.16774783055007
 20
820.315394996639
 10
46.16117106342608
 20
819.6350825591535
 10
62.66501990724055
 20
821.1657801008309
 10
83.76273421882842
 20
821.5059363195736
 10
98.39502248912641
 20
822.6964885278672
 10
122.0448648555207
 20
824.3972696215809
 10
142.9209978371095
 20
827.4677430846095
 10
163.1679853125074
 20
828.6582952929029
 10
177.4599898421024
 20
828.148055522095
 10
191.2415512763245
 20
825.0866495534106
 10
203.6619777478531
 20
823.2157957929763
 10
213.1899749394383
 20
820.8346913764035
 10
218.4644078885016
 20
820.1543789389178
  0
LWPOLYLINE
  5
961
330
1F
100
AcDbEntity
  8
ceco.net 126
100
AcDbPolyline
 90
        8
 70
     0
 43
0.0
 10
-133.772642773607
 20
1008.137284524811
 10
-119.1091446340237
 20
1004.472808543272
 10
-107.5005244556218
 20
998.6707007089272
 10
-92.53153677132786
 20
987.371873459609
 10
-73.28567797859569
 20
978.8214113604354
 10
-58.62216235446203
 20
971.7978151606967
 10
-52.2068819182864
 20
965.6903406776828
 10
-49.45747601715038
 20
964.7742189609585
  0
LWPOLYLINE
  5
962
330
1F
100
AcDbEntity
  8
ceco.net 126
100
AcDbPolyline
 90
        8
 70
     0
 43
0.0
 10
-81.83938522671496
 20
993.1739704086098
 10
-59.84412053273217
 20
987.6772509936227
 10
-46.67096796318628
 20
983.3346178733759
 10
-30.26545206342552
 20
978.5201484877134
 10
-21.53590299123561
 20
970.9975244249291
 10
-15.24262954023879
 20
964.1634747782617
 10
-4.855967540107485
 20
948.5894055940192
 10
-3.023030272645428
 20
941.8711869282942
  0
LWPOLYLINE
  5
963
330
1F
100
AcDbEntity
  8
ceco.net 126
100
AcDbPolyline
 90
        8
 70
     0
 43
0.0
 10
-9.043615139873963
 20
984.6886897692716
 10
3.599179465150427
 20
984.387786112998
 10
12.62974204466354
 20
983.9364251859228
 10
24.82101638870199
 20
981.2282813941456
 10
32.79801420814738
 20
978.0687875606522
 10
43.78519955401998
 20
968.4398379039826
 10
52.36424187254806
 20
957.0054663096867
 10
63.50193397208295
 20
944.2170228195092
  0
LWPOLYLINE
  5
964
330
1F
100
AcDbEntity
  8
ceco.net 126
100
AcDbPolyline
 90
        5
 70
     0
 43
0.0
 10
-178.6967931099411
 20
1148.13578299353
 10
-173.2333000392473
 20
1137.941132721418
 10
-157.2070583612226
 20
1116.459552884626
 10
-143.3662069175179
 20
1097.890739598708
 10
-132.0750007268538
 20
1086.96790313156
  0
LWPOLYLINE
  5
965
330
1F
100
AcDbEntity
  8
ceco.net 126
100
AcDbPolyline
 90
        8
 70
     0
 43
0.0
 10
-175.7829278076233
 20
1025.071826189184
 10
-162.3063138979746
 20
1015.605372997465
 10
-154.2931930589052
 20
1010.872140958934
 10
-143.7304444514597
 20
1004.682536530304
 10
-130.6180680756378
 20
996.3083626311671
 10
-115.6845215147732
 20
987.9341887320448
 10
-102.9363651884577
 20
984.6573399689424
 10
-96.38017700048976
 20
977.7395384599326
  0
LWPOLYLINE
  5
966
330
1F
100
AcDbEntity
  8
ceco.net 126
100
AcDbPolyline
 90
        7
 70
     0
 43
0.0
 10
-149.8374727887003
 20
914.9536387999765
 10
-135.3214216116607
 20
917.4476351537055
 10
-117.629989157052
 20
916.7674533403856
 10
-99.93857418699327
 20
911.5527297333628
 10
-67.05064546579206
 20
897.268922538949
 10
-32.57505233245956
 20
874.1427626566938
 10
-16.92493766241796
 20
859.6322354480603
  0
LWPOLYLINE
  5
967
330
1F
100
AcDbEntity
  8
ceco.net 126
100
AcDbPolyline
 90
        4
 70
     0
 43
0.0
 10
-148.9302184973653
 20
929.917616922351
 10
-127.836595563634
 20
929.917616922351
 10
-119.4444977398366
 20
926.5167187411112
 10
-108.1038453246878
 20
922.435627861178
  0
LWPOLYLINE
  5
968
330
1F
100
AcDbEntity
  8
ceco.net 126
100
AcDbPolyline
 90
       17
 70
     0
 43
0.0
 10
-122.1355403110428
 20
1452.2976523116
 10
-116.6818210874903
 20
1442.569743962356
 10
-105.2933485083835
 20
1430.891170486038
 10
-84.76337406648871
 20
1416.902105841305
 10
-56.54444179804113
 20
1404.683532054585
 10
-27.59400963980851
 20
1399.138242219826
 10
0.6049203369698262
 20
1399.860038716
 10
22.75931165327983
 20
1402.660109265979
 10
43.89512473533523
 20
1409.278443984596
 10
57.64612322736548
 20
1415.387681893875
 10
69.61459232507195
 20
1425.060641009804
 10
79.29122542654795
 20
1435.2427078204
 10
83.62023537560844
 20
1444.152005394342
 10
86.42137797340229
 20
1453.824964510257
 10
86.65449908701294
 20
1459.414448855178
 10
85.91207137172432
 20
1464.770681977508
 10
85.40278225459724
 20
1467.06164483282
  0
LWPOLYLINE
  5
969
330
1F
100
AcDbEntity
  8
ceco.net 126
100
AcDbPolyline
 90
       87
 70
     0
 43
0.0
 10
-166.2222170779609
 20
825.9167661408692
 10
-163.6213072105442
 20
803.1674134418135
 10
-161.6706116965974
 20
790.3844343960067
 10
-156.6855300796246
 20
763.301864402138
 10
-150.8334785067695
 20
740.1191877965352
 10
-141.7134301507917
 20
692.9681411003302
 10
-134.3441767841486
 20
652.2359551329046
 10
-124.3739960656535
 20
602.6206943932684
 10
-107.8697625624235
 20
527.2625342411534
 10
-102.2344491074304
 20
496.9300567188542
 10
-97.03261188804617
 20
454.8979099171165
 10
-90.74246816625281
 20
399.9180669937604
 10
-90.52573004839132
 20
390.1683444084551
 10
-88.57503453444451
 20
381.068596797626
 10
-88.35829641658255
 20
369.1522764502587
 10
-84.45692287323936
 20
353.9860376891019
 10
-79.25508565396967
 20
299.8208977013932
 10
-74.03899855028567
 20
264.8351192460081
 10
-69.92088688908052
 20
245.9856599352328
 10
-62.5516335224379
 20
219.769726869114
 10
-57.34981378771817
 20
195.2870894292136
 10
-53.66517836212188
 20
177.5209181141031
 10
-51.28100661256621
 20
166.254572741212
 10
-49.33032858305478
 20
157.3714870836565
 10
-47.16289495136106
 20
151.7383198399052
 10
-44.76583711001103
 20
144.0707573773988
 10
-46.71651513952247
 20
131.0711272636631
 10
-44.76583711001103
 20
120.2381057973338
 10
-37.6133218612299
 20
110.0550593054667
 10
-33.27845459772788
 20
107.0218028449507
 10
-27.64314114273429
 20
96.83875635309824
 10
-25.04223127531759
 20
88.17234353417552
 10
-22.0078276878562
 20
85.57241098022132
 10
-17.02274607076879
 20
92.72221189691753
 10
-9.653492704240761
 20
97.92206611948087
 10
0.9669198522751685
 20
107.6717887047861
 10
8.769649454412046
 20
108.9717495390982
 10
23.94164990785657
 20
109.4050734456454
 10
42.79828578666775
 20
103.9885572697944
 10
52.76844902072799
 20
97.05541830638594
 10
60.78793422527633
 20
91.42225106260594
 10
74.00925664909436
 20
72.13945695990969
 10
73.575762928936
 20
64.33968106875136
 10
78.34410642816147
 20
51.12338900172744
 10
83.32918804513383
 20
57.40654210531466
 10
95.46680239543775
 20
68.23956357167253
 10
92.64913692560867
 20
74.08940365405669
 10
100.0183902922517
 20
87.089033767807
 10
105.8704593495417
 20
97.70540416620725
 10
105.2202275115214
 20
111.571682093052
 10
103.4862875999865
 20
132.1544261447011
 10
99.36815845423144
 20
149.9205974597975
 10
95.68354051318465
 20
177.6531424281283
 10
90.91519701407424
 20
220.9852609495224
 10
88.55221650341945
 20
251.7063127154947
 10
80.31597569657378
 20
303.0548581959756
 10
68.82861066884061
 20
357.2199981836988
 10
59.50526979125379
 20
397.6678697641828
 10
50.83555274879973
 20
438.183393778349
 10
44.98350117594464
 20
447.2831413891781
 10
43.68303750001859
 20
453.5662944927794
 10
41.73235947050716
 20
491.4818859529773
 10
36.53052225123747
 20
516.3978581847699
 10
35.01333794199945
 20
530.0474741583411
 10
32.41241059003232
 20
537.63058809624
 10
30.2326154021307
 20
557.2749063544897
 10
25.68102750531716
 20
592.8072380993381
 10
23.29685575576195
 20
619.456484186645
 10
14.84387683105433
 20
646.3223922272399
 10
12.89319880154289
 20
659.7553462475375
 10
11.3759970077549
 20
663.0052537759679
 10
13.75908471715001
 20
686.2976655680036
 10
16.14325646670522
 20
695.8307262000494
 10
13.97582283489691
 20
702.1138901889813
 10
14.40931655517078
 20
708.6137052458561
 10
16.79348830472599
 20
717.4967909034116
 10
17.01022642247289
 20
725.9465526544195
 10
19.1776600542812
 20
740.6794675090146
 10
21.56183180383686
 20
750.8625140008676
 10
15.4930246286849
 20
761.6955354671968
 10
13.10885287912924
 20
767.3287135963073
 10
14.84387683105433
 20
779.9953827059166
 10
12.45970508138407
 20
787.1451727372396
 10
1.622571891671668
 20
797.3282192291066
 10
-0.9783554602959156
 20
804.0446962392552
 10
-3.796003445459973
 20
807.0779526997567
 10
-14.6331541198374
 20
816.3943513785293
  0
LWPOLYLINE
  5
96A
330
1F
100
AcDbEntity
  8
ceco.net 126
100
AcDbPolyline
 90
       13
 70
     0
 43
0.0
 10
-70.33860844414539
 20
247.8976589540498
 10
-78.98098082393153
 20
232.9033556085
 10
-82.45213025249176
 20
222.4938503507733
 10
-87.41093263495214
 20
212.0843450930465
 10
-84.68359219873446
 20
201.1791428885426
 10
-75.75776189796897
 20
170.9419883528253
 10
-75.26188340810904
 20
162.0195521646692
 10
-76.00570988511617
 20
149.8751293639975
 10
-77.49334535446678
 20
137.9785441513267
 10
-71.7907339795488
 20
123.6035068609476
 10
-59.39375425022217
 20
111.9547701216652
 10
-42.28592012546823
 20
101.793102451968
 10
-28.64923542927454
 20
97.82758130464571
  0
LWPOLYLINE
  5
96B
330
1F
100
AcDbEntity
  8
ceco.net 126
100
AcDbPolyline
 90
       15
 70
     0
 43
0.0
 10
-21.68221345996926
 20
83.55138296802079
 10
-22.17809194982919
 20
74.13324983310167
 10
-26.64101584242962
 20
65.95434817972364
 10
-31.84774872760272
 20
57.03191199158164
 10
-41.02150953096589
 20
47.8616273300513
 10
-45.48441593913094
 20
35.96505300273975
 10
-45.48441593913094
 20
22.33355024713819
 10
-41.51738802082582
 20
11.18049956926006
 10
-35.07096765345022
 20
1.762377319700135
 10
40.30268518712136
 20
3.249446389270815
 10
64.35283565343116
 20
11.67619651602308
 10
72.28689149015645
 20
13.41111405898209
 10
78.23745085222208
 20
19.11155274924931
 10
78.98125984467924
 20
34.47797304782443
 10
78.34410642816147
 20
51.12338900172744
  0
LWPOLYLINE
  5
96C
330
1F
100
AcDbEntity
  8
ceco.net 126
100
AcDbPolyline
 90
        5
 70
     0
 43
0.0
 10
-15.97960208505128
 20
70.91126322057153
 10
-4.326448832617643
 20
75.86816737606068
 10
2.615867509053259
 20
75.86816737606068
 10
10.30199284318086
 20
75.62032978803109
 10
16.25253472069653
 20
75.12463284126852
  0
LWPOLYLINE
  5
96D
330
1F
100
AcDbEntity
  8
ceco.net 126
100
AcDbPolyline
 90
        5
 70
     0
 43
0.0
 10
-10.2769907101333
 20
80.08154788211641
 10
-3.582622355610055
 20
84.04706902942463
 10
3.359676501510421
 20
86.27768351914665
 10
14.02109025888921
 20
85.2863005109798
 10
22.6989725725075
 20
85.2863005109798
  0
LWPOLYLINE
  5
96E
330
1F
100
AcDbEntity
  8
ceco.net 126
100
AcDbPolyline
 90
        5
 70
     0
 43
0.0
 10
-6.06203228911545
 20
87.51690411532853
 10
3.359676501510421
 20
93.46520216432919
 10
14.02109025888921
 20
94.20873669913589
 10
23.44279904951463
 20
93.71303975235878
 10
27.16187898067255
 20
92.47381915617689
  0
LWPOLYLINE
  5
96F
330
1F
100
AcDbEntity
  8
ceco.net 126
100
AcDbPolyline
 90
       13
 70
     0
 43
0.0
 10
-41.76533600797347
 20
23.57277084333464
 10
-31.10392225059467
 20
26.05123380643135
 10
-19.45076899816149
 20
32.99090397825375
 10
-6.557910778975383
 20
36.21289059078344
 10
16.00460421809884
 20
36.46073906415768
 10
29.39334092703029
 20
31.9995209700869
 10
36.58358777129842
 20
28.52968588416842
 10
45.75734857477664
 20
25.80338533304256
 10
54.43524837305995
 20
24.81200232487572
 10
57.41051931176025
 20
29.02537194557226
 10
64.84871414329109
 20
30.76028948853172
 10
70.30337753094636
 20
30.76028948853172
 10
77.98950286507443
 20
31.50383490865442
  0
ENDSEC
  0
SECTION
  2
OBJECTS
  0
DICTIONARY
  5
C
330
0
100
AcDbDictionary
281
     1
  3
ACAD_GROUP
350
D
  3
ACAD_LAYOUT
350
1A
  3
ACAD_MLINESTYLE
350
17
  3
ACAD_PLOTSETTINGS
350
19
  3
ACAD_PLOTSTYLENAME
350
E
  3
AcDbVariableDictionary
350
115
  3
DWGPROPS
350
8E3
  0
DICTIONARY
  5
900
330
2
100
AcDbDictionary
280
     1
281
     1
  3
ACAD_LAYERFILTERS
360
970
  3
ACAD_LAYERSTATES
360
901
  0
DICTIONARY
  5
8F6
330
8F5
100
AcDbDictionary
280
     1
281
     1
  3
ACAD_XREC_ROUNDTRIP
360
8F7
  0
DICTIONARY
  5
D
102
{ACAD_REACTORS
330
C
102
}
330
C
100
AcDbDictionary
281
     1
  0
DICTIONARY
  5
1A
102
{ACAD_REACTORS
330
C
102
}
330
C
100
AcDbDictionary
281
     1
  3
Layout1
350
1E
  3
Layout2
350
26
  3
Model
350
22
  0
DICTIONARY
  5
17
102
{ACAD_REACTORS
330
C
102
}
330
C
100
AcDbDictionary
281
     1
  3
Standard
350
18
  0
DICTIONARY
  5
19
102
{ACAD_REACTORS
330
C
102
}
330
C
100
AcDbDictionary
281
     1
  0
ACDBDICTIONARYWDFLT
  5
E
102
{ACAD_REACTORS
330
C
102
}
330
C
100
AcDbDictionary
281
     1
  3
Normal
350
F
100
AcDbDictionaryWithDefault
340
F
  0
DICTIONARY
  5
115
102
{ACAD_REACTORS
330
C
102
}
330
C
100
AcDbDictionary
281
     1
  3
DIMASSOC
350
117
  3
HIDETEXT
350
116
  0
XRECORD
  5
8E3
102
{ACAD_REACTORS
330
C
102
}
330
C
100
AcDbXrecord
280
     1
  1
DWGPROPS COOKIE
  2
Ceco.NET-Trees-and-Plants - T - xx . 67 . dwg
  3

  4
ceco.net
  6

  7

  8
peacosta
  9

300
=
301
=
302
=
303
=
304
=
305
=
306
=
307
=
308
=
309
=
 40
0.0450312037037037
 41
2455079.811409143
 42
2455838.656599502
  1

 90
        0
  0
DICTIONARY
  5
970
102
{ACAD_REACTORS
330
900
102
}
330
900
100
AcDbDictionary
280
     1
281
     1
  0
DICTIONARY
  5
901
102
{ACAD_REACTORS
330
900
102
}
330
900
100
AcDbDictionary
281
     1
  0
XRECORD
  5
8F7
102
{ACAD_REACTORS
330
8F6
102
}
330
8F6
100
AcDbXrecord
280
     1
102
MATERIAL
340
0
  0
LAYOUT
  5
1E
102
{ACAD_REACTORS
330
1A
102
}
330
1A
100
AcDbPlotSettings
  1

  2
Microsoft Office Document Image Writer
  4

  6

 40
0.0
 41
0.0
 42
0.0
 43
0.0
 44
0.0
 45
0.0
 46
0.0
 47
0.0
 48
0.0
 49
0.0
140
0.0
141
0.0
142
1.0
143
1.0
 70
   688
 72
     0
 73
     0
 74
     5
  7

 75
    16
147
1.0
148
0.0
149
0.0
100
AcDbLayout
  1
Layout1
 70
     1
 71
     1
 10
0.0
 20
0.0
 11
420.0
 21
297.0
 12
0.0
 22
0.0
 32
0.0
 14
1.000000000000000E+20
 24
1.000000000000000E+20
 34
1.000000000000000E+20
 15
-1.000000000000000E+20
 25
-1.000000000000000E+20
 35
-1.000000000000000E+20
146
0.0
 13
0.0
 23
0.0
 33
0.0
 16
1.0
 26
0.0
 36
0.0
 17
0.0
 27
1.0
 37
0.0
 76
     0
330
1B
  0
LAYOUT
  5
26
102
{ACAD_REACTORS
330
1A
102
}
330
1A
100
AcDbPlotSettings
  1

  2
Microsoft Office Document Image Writer
  4

  6

 40
0.0
 41
0.0
 42
0.0
 43
0.0
 44
0.0
 45
0.0
 46
0.0
 47
0.0
 48
0.0
 49
0.0
140
0.0
141
0.0
142
1.0
143
1.0
 70
   688
 72
     0
 73
     0
 74
     5
  7

 75
    16
147
1.0
148
0.0
149
0.0
100
AcDbLayout
  1
Layout2
 70
     1
 71
     2
 10
0.0
 20
0.0
 11
12.0
 21
9.0
 12
0.0
 22
0.0
 32
0.0
 14
0.0
 24
0.0
 34
0.0
 15
0.0
 25
0.0
 35
0.0
146
0.0
 13
0.0
 23
0.0
 33
0.0
 16
1.0
 26
0.0
 36
0.0
 17
0.0
 27
1.0
 37
0.0
 76
     0
330
23
  0
LAYOUT
  5
22
102
{ACAD_REACTORS
330
1A
102
}
330
1A
100
AcDbPlotSettings
  1

  2
Microsoft Office Document Image Writer
  4

  6

 40
0.0
 41
0.0
 42
0.0
 43
0.0
 44
0.0
 45
0.0
 46
0.0
 47
0.0
 48
0.0
 49
0.0
140
0.0
141
0.0
142
1.0
143
1.0
 70
  1712
 72
     0
 73
     0
 74
     0
  7

 75
     0
147
1.0
148
0.0
149
0.0
100
AcDbLayout
  1
Model
 70
     1
 71
     0
 10
0.0
 20
0.0
 11
12.0
 21
9.0
 12
0.0
 22
0.0
 32
0.0
 14
0.0
 24
0.0
 34
0.0
 15
0.0
 25
0.0
 35
0.0
146
0.0
 13
0.0
 23
0.0
 33
0.0
 16
1.0
 26
0.0
 36
0.0
 17
0.0
 27
1.0
 37
0.0
 76
     0
330
1F
  0
MLINESTYLE
  5
18
102
{ACAD_REACTORS
330
17
102
}
330
17
100
AcDbMlineStyle
  2
STANDARD
 70
     0
  3

 62
   256
 51
90.0
 52
90.0
 71
     2
 49
0.5
 62
   256
  6
BYLAYER
 49
-0.5
 62
   256
  6
BYLAYER
  0
ACDBPLACEHOLDER
  5
F
102
{ACAD_REACTORS
330
E
102
}
330
E
  0
DICTIONARYVAR
  5
117
102
{ACAD_REACTORS
330
115
102
}
330
115
100
DictionaryVariables
280
     0
  1
2
  0
DICTIONARYVAR
  5
116
102
{ACAD_REACTORS
330
115
102
}
330
115
100
DictionaryVariables
280
     0
  1
1
  0
ENDSEC
  0
EOF
