  0
SECTION
  2
HEADER
  9
$ACADVER
  1
AC1015
  9
$ACADMAINTVER
 70
    13
  9
$DWGCODEPAGE
  3
ANSI_1252
  9
$INSBASE
 10
0.0
 20
0.0
 30
0.0
  9
$EXTMIN
 10
-13.82354640148526
 20
-0.1450188399118133
 30
-0.0015258207003583
  9
$EXTMAX
 10
5.370483893633945
 20
7.037979479923365
 30
0.0000000349246037
  9
$LIMMIN
 10
0.0
 20
0.0
  9
$LIMMAX
 10
420.0
 20
297.0
  9
$ORTHOMODE
 70
     0
  9
$REGENMODE
 70
     1
  9
$FILLMODE
 70
     1
  9
$QTEXTMODE
 70
     0
  9
$MIRRTEXT
 70
     1
  9
$LTSCALE
 40
1.0
  9
$ATTMODE
 70
     1
  9
$TEXTSIZE
 40
2.5
  9
$TRACEWID
 40
1.0
  9
$TEXTSTYLE
  7
Standard
  9
$CLAYER
  8
Ceco.net 41
  9
$CELTYPE
  6
ByLayer
  9
$CECOLOR
 62
   256
  9
$CELTSCALE
 40
1.0
  9
$DISPSILH
 70
     0
  9
$DIMSCALE
 40
1.0
  9
$DIMASZ
 40
2.5
  9
$DIMEXO
 40
0.625
  9
$DIMDLI
 40
3.75
  9
$DIMRND
 40
0.0
  9
$DIMDLE
 40
0.0
  9
$DIMEXE
 40
1.25
  9
$DIMTP
 40
0.0
  9
$DIMTM
 40
0.0
  9
$DIMTXT
 40
2.5
  9
$DIMCEN
 40
2.5
  9
$DIMTSZ
 40
0.0
  9
$DIMTOL
 70
     0
  9
$DIMLIM
 70
     0
  9
$DIMTIH
 70
     0
  9
$DIMTOH
 70
     0
  9
$DIMSE1
 70
     0
  9
$DIMSE2
 70
     0
  9
$DIMTAD
 70
     1
  9
$DIMZIN
 70
     8
  9
$DIMBLK
  1

  9
$DIMASO
 70
     1
  9
$DIMSHO
 70
     1
  9
$DIMPOST
  1

  9
$DIMAPOST
  1

  9
$DIMALT
 70
     0
  9
$DIMALTD
 70
     3
  9
$DIMALTF
 40
0.03937007874016
  9
$DIMLFAC
 40
1.0
  9
$DIMTOFL
 70
     1
  9
$DIMTVP
 40
0.0
  9
$DIMTIX
 70
     0
  9
$DIMSOXD
 70
     0
  9
$DIMSAH
 70
     0
  9
$DIMBLK1
  1

  9
$DIMBLK2
  1

  9
$DIMSTYLE
  2
ISO-25
  9
$DIMCLRD
 70
     0
  9
$DIMCLRE
 70
     0
  9
$DIMCLRT
 70
     0
  9
$DIMTFAC
 40
1.0
  9
$DIMGAP
 40
0.625
  9
$DIMJUST
 70
     0
  9
$DIMSD1
 70
     0
  9
$DIMSD2
 70
     0
  9
$DIMTOLJ
 70
     0
  9
$DIMTZIN
 70
     8
  9
$DIMALTZ
 70
     0
  9
$DIMALTTZ
 70
     0
  9
$DIMUPT
 70
     0
  9
$DIMDEC
 70
     2
  9
$DIMTDEC
 70
     2
  9
$DIMALTU
 70
     2
  9
$DIMALTTD
 70
     3
  9
$DIMTXSTY
  7
Standard
  9
$DIMAUNIT
 70
     0
  9
$DIMADEC
 70
     0
  9
$DIMALTRND
 40
0.0
  9
$DIMAZIN
 70
     0
  9
$DIMDSEP
 70
    44
  9
$DIMATFIT
 70
     3
  9
$DIMFRAC
 70
     0
  9
$DIMLDRBLK
  1

  9
$DIMLUNIT
 70
     2
  9
$DIMLWD
 70
    -2
  9
$DIMLWE
 70
    -2
  9
$DIMTMOVE
 70
     0
  9
$LUNITS
 70
     2
  9
$LUPREC
 70
     2
  9
$SKETCHINC
 40
1.0
  9
$FILLETRAD
 40
10.0
  9
$AUNITS
 70
     0
  9
$AUPREC
 70
     0
  9
$MENU
  1
.
  9
$ELEVATION
 40
0.0
  9
$PELEVATION
 40
0.0
  9
$THICKNESS
 40
0.0
  9
$LIMCHECK
 70
     0
  9
$CHAMFERA
 40
10.0
  9
$CHAMFERB
 40
10.0
  9
$CHAMFERC
 40
20.0
  9
$CHAMFERD
 40
0.0
  9
$SKPOLY
 70
     0
  9
$TDCREATE
 40
2455087.930526794
  9
$TDUCREATE
 40
2455088.055526794
  9
$TDUPDATE
 40
2455087.931377847
  9
$TDUUPDATE
 40
2455088.056377847
  9
$TDINDWG
 40
0.0008512384
  9
$TDUSRTIMER
 40
0.0008512384
  9
$USRTIMER
 70
     1
  9
$ANGBASE
 50
0.0
  9
$ANGDIR
 70
     0
  9
$PDMODE
 70
     0
  9
$PDSIZE
 40
0.0
  9
$PLINEWID
 40
0.0
  9
$SPLFRAME
 70
     0
  9
$SPLINETYPE
 70
     6
  9
$SPLINESEGS
 70
     8
  9
$HANDSEED
  5
350
  9
$SURFTAB1
 70
     6
  9
$SURFTAB2
 70
     6
  9
$SURFTYPE
 70
     6
  9
$SURFU
 70
     6
  9
$SURFV
 70
     6
  9
$UCSBASE
  2

  9
$UCSNAME
  2

  9
$UCSORG
 10
0.0
 20
0.0
 30
0.0
  9
$UCSXDIR
 10
1.0
 20
0.0
 30
0.0
  9
$UCSYDIR
 10
0.0
 20
1.0
 30
0.0
  9
$UCSORTHOREF
  2

  9
$UCSORTHOVIEW
 70
     0
  9
$UCSORGTOP
 10
0.0
 20
0.0
 30
0.0
  9
$UCSORGBOTTOM
 10
0.0
 20
0.0
 30
0.0
  9
$UCSORGLEFT
 10
0.0
 20
0.0
 30
0.0
  9
$UCSORGRIGHT
 10
0.0
 20
0.0
 30
0.0
  9
$UCSORGFRONT
 10
0.0
 20
0.0
 30
0.0
  9
$UCSORGBACK
 10
0.0
 20
0.0
 30
0.0
  9
$PUCSBASE
  2

  9
$PUCSNAME
  2

  9
$PUCSORG
 10
0.0
 20
0.0
 30
0.0
  9
$PUCSXDIR
 10
1.0
 20
0.0
 30
0.0
  9
$PUCSYDIR
 10
0.0
 20
1.0
 30
0.0
  9
$PUCSORTHOREF
  2

  9
$PUCSORTHOVIEW
 70
     0
  9
$PUCSORGTOP
 10
0.0
 20
0.0
 30
0.0
  9
$PUCSORGBOTTOM
 10
0.0
 20
0.0
 30
0.0
  9
$PUCSORGLEFT
 10
0.0
 20
0.0
 30
0.0
  9
$PUCSORGRIGHT
 10
0.0
 20
0.0
 30
0.0
  9
$PUCSORGFRONT
 10
0.0
 20
0.0
 30
0.0
  9
$PUCSORGBACK
 10
0.0
 20
0.0
 30
0.0
  9
$USERI1
 70
     0
  9
$USERI2
 70
     0
  9
$USERI3
 70
     0
  9
$USERI4
 70
     0
  9
$USERI5
 70
     0
  9
$USERR1
 40
0.0
  9
$USERR2
 40
0.0
  9
$USERR3
 40
0.0
  9
$USERR4
 40
0.0
  9
$USERR5
 40
0.0
  9
$WORLDVIEW
 70
     1
  9
$SHADEDGE
 70
     3
  9
$SHADEDIF
 70
    70
  9
$TILEMODE
 70
     1
  9
$MAXACTVP
 70
    64
  9
$PINSBASE
 10
0.0
 20
0.0
 30
0.0
  9
$PLIMCHECK
 70
     0
  9
$PEXTMIN
 10
1.000000000000000E+20
 20
1.000000000000000E+20
 30
1.000000000000000E+20
  9
$PEXTMAX
 10
-1.000000000000000E+20
 20
-1.000000000000000E+20
 30
-1.000000000000000E+20
  9
$PLIMMIN
 10
0.0
 20
0.0
  9
$PLIMMAX
 10
420.0
 20
297.0
  9
$UNITMODE
 70
     0
  9
$VISRETAIN
 70
     1
  9
$PLINEGEN
 70
     0
  9
$PSLTSCALE
 70
     1
  9
$TREEDEPTH
 70
  3020
  9
$CMLSTYLE
  2
Standard
  9
$CMLJUST
 70
     0
  9
$CMLSCALE
 40
20.0
  9
$PROXYGRAPHICS
 70
     1
  9
$MEASUREMENT
 70
     1
  9
$CELWEIGHT
370
    -1
  9
$ENDCAPS
280
     0
  9
$JOINSTYLE
280
     0
  9
$LWDISPLAY
290
     0
  9
$INSUNITS
 70
     6
  9
$HYPERLINKBASE
  1

  9
$STYLESHEET
  1

  9
$XEDIT
290
     1
  9
$CEPSNTYPE
380
     0
  9
$PSTYLEMODE
290
     1
  9
$FINGERPRINTGUID
  2
{9D2CDE52-15BB-4448-942F-2EA36E7AEF22}
  9
$VERSIONGUID
  2
{CAAC5BF7-EFDA-4ED6-93DC-766FCC4DC487}
  9
$EXTNAMES
290
     1
  9
$PSVPSCALE
 40
0.0
  9
$OLESTARTUP
290
     0
  0
ENDSEC
  0
SECTION
  2
CLASSES
  0
CLASS
  1
ACDBDICTIONARYWDFLT
  2
AcDbDictionaryWithDefault
  3
AutoCAD 2000
 90
        0
280
     0
281
     0
  0
CLASS
  1
ACDBPLACEHOLDER
  2
AcDbPlaceHolder
  3
AutoCAD 2000
 90
        0
280
     0
281
     0
  0
CLASS
  1
LAYOUT
  2
AcDbLayout
  3
AutoCAD 2000
 90
        0
280
     0
281
     0
  0
CLASS
  1
DICTIONARYVAR
  2
AcDbDictionaryVar
  3
AutoCAD 2000
 90
        0
280
     0
281
     0
  0
ENDSEC
  0
SECTION
  2
TABLES
  0
TABLE
  2
VPORT
  5
8
330
0
100
AcDbSymbolTable
 70
     4
  0
VPORT
  5
34F
330
8
100
AcDbSymbolTableRecord
100
AcDbViewportTableRecord
  2
*Active
 70
     0
 10
0.0
 20
0.0
 11
1.0
 21
1.0
 12
-4.226531253925656
 22
3.446480320005775
 13
0.0
 23
0.0
 14
10.0
 24
10.0
 15
10.0
 25
10.0
 16
0.0
 26
0.0
 36
1.0
 17
0.0
 27
0.0
 37
0.0
 40
9.132078931282856
 41
2.112280701754385
 42
50.0
 43
0.0
 44
0.0
 50
0.0
 51
0.0
 71
     0
 72
   100
 73
     1
 74
     3
 75
     0
 76
     0
 77
     0
 78
     0
281
     0
 65
     1
110
0.0
120
0.0
130
0.0
111
1.0
121
0.0
131
0.0
112
0.0
122
1.0
132
0.0
 79
     0
146
0.0
  0
ENDTAB
  0
TABLE
  2
LTYPE
  5
5
330
0
100
AcDbSymbolTable
 70
     1
  0
LTYPE
  5
14
330
5
100
AcDbSymbolTableRecord
100
AcDbLinetypeTableRecord
  2
ByBlock
 70
     0
  3

 72
    65
 73
     0
 40
0.0
  0
LTYPE
  5
15
330
5
100
AcDbSymbolTableRecord
100
AcDbLinetypeTableRecord
  2
ByLayer
 70
     0
  3

 72
    65
 73
     0
 40
0.0
  0
LTYPE
  5
16
330
5
100
AcDbSymbolTableRecord
100
AcDbLinetypeTableRecord
  2
Continuous
 70
     0
  3
Solid line
 72
    65
 73
     0
 40
0.0
  0
ENDTAB
  0
TABLE
  2
LAYER
  5
2
330
0
100
AcDbSymbolTable
 70
     3
  0
LAYER
  5
10
330
2
100
AcDbSymbolTableRecord
100
AcDbLayerTableRecord
  2
0
 70
     0
 62
     7
  6
Continuous
370
    -3
390
F
  0
LAYER
  5
34A
330
2
100
AcDbSymbolTableRecord
100
AcDbLayerTableRecord
  2
Ceco.net 41
 70
     0
 62
     7
  6
Continuous
370
    -3
390
F
  0
ENDTAB
  0
TABLE
  2
STYLE
  5
3
330
0
100
AcDbSymbolTable
 70
     1
  0
STYLE
  5
11
330
3
100
AcDbSymbolTableRecord
100
AcDbTextStyleTableRecord
  2
Standard
 70
     0
 40
0.0
 41
1.0
 50
0.0
 71
     0
 42
2.5
  3
txt
  4

  0
ENDTAB
  0
TABLE
  2
VIEW
  5
6
330
0
100
AcDbSymbolTable
 70
     0
  0
ENDTAB
  0
TABLE
  2
UCS
  5
7
330
0
100
AcDbSymbolTable
 70
     0
  0
ENDTAB
  0
TABLE
  2
APPID
  5
9
330
0
100
AcDbSymbolTable
 70
     1
  0
APPID
  5
12
330
9
100
AcDbSymbolTableRecord
100
AcDbRegAppTableRecord
  2
ACAD
 70
     0
  0
ENDTAB
  0
TABLE
  2
DIMSTYLE
  5
A
330
0
100
AcDbSymbolTable
 70
     2
100
AcDbDimStyleTable
 71
     0
  0
DIMSTYLE
105
27
330
A
100
AcDbSymbolTableRecord
100
AcDbDimStyleTableRecord
  2
ISO-25
 70
     0
 41
2.5
 42
0.625
 43
3.75
 44
1.25
 73
     0
 74
     0
 77
     1
 78
     8
140
2.5
141
2.5
143
0.03937007874016
147
0.625
171
     3
172
     1
271
     2
272
     2
274
     3
278
    44
283
     0
284
     8
340
11
  0
DIMSTYLE
105
199
330
A
100
AcDbSymbolTableRecord
100
AcDbDimStyleTableRecord
  2
Standard
 70
     0
340
11
  0
ENDTAB
  0
TABLE
  2
BLOCK_RECORD
  5
1
330
0
100
AcDbSymbolTable
 70
     7
  0
BLOCK_RECORD
  5
1F
330
1
100
AcDbSymbolTableRecord
100
AcDbBlockTableRecord
  2
*Model_Space
340
22
  0
BLOCK_RECORD
  5
1B
330
1
100
AcDbSymbolTableRecord
100
AcDbBlockTableRecord
  2
*Paper_Space
340
1E
  0
BLOCK_RECORD
  5
23
330
1
100
AcDbSymbolTableRecord
100
AcDbBlockTableRecord
  2
*Paper_Space0
340
26
  0
BLOCK_RECORD
  5
2B
330
1
100
AcDbSymbolTableRecord
100
AcDbBlockTableRecord
  2
*X1
340
0
102
{BLKREFS
331
19F
331
278
102
}
  0
BLOCK_RECORD
  5
A7
330
1
100
AcDbSymbolTableRecord
100
AcDbBlockTableRecord
  2
*X2
340
0
102
{BLKREFS
331
19E
331
277
102
}
  0
BLOCK_RECORD
  5
B5
330
1
100
AcDbSymbolTableRecord
100
AcDbBlockTableRecord
  2
*X3
340
0
102
{BLKREFS
331
19D
331
276
102
}
  0
BLOCK_RECORD
  5
11D
330
1
100
AcDbSymbolTableRecord
100
AcDbBlockTableRecord
  2
*X4
340
0
102
{BLKREFS
331
19C
331
275
102
}
  0
BLOCK_RECORD
  5
145
330
1
100
AcDbSymbolTableRecord
100
AcDbBlockTableRecord
  2
*X5
340
0
102
{BLKREFS
331
19B
331
274
102
}
  0
ENDTAB
  0
ENDSEC
  0
SECTION
  2
BLOCKS
  0
BLOCK
  5
20
330
1F
100
AcDbEntity
  8
0
100
AcDbBlockBegin
  2
*Model_Space
 70
     0
 10
0.0
 20
0.0
 30
0.0
  3
*Model_Space
  1

  0
ENDBLK
  5
21
330
1F
100
AcDbEntity
  8
0
100
AcDbBlockEnd
  0
BLOCK
  5
1C
330
1B
100
AcDbEntity
 67
     1
  8
0
100
AcDbBlockBegin
  2
*Paper_Space
 70
     0
 10
0.0
 20
0.0
 30
0.0
  3
*Paper_Space
  1

  0
ENDBLK
  5
1D
330
1B
100
AcDbEntity
 67
     1
  8
0
100
AcDbBlockEnd
  0
BLOCK
  5
24
330
23
100
AcDbEntity
  8
0
100
AcDbBlockBegin
  2
*Paper_Space0
 70
     0
 10
0.0
 20
0.0
 30
0.0
  3
*Paper_Space0
  1

  0
ENDBLK
  5
25
330
23
100
AcDbEntity
  8
0
100
AcDbBlockEnd
  0
BLOCK
  5
A5
330
2B
100
AcDbEntity
  8
0
100
AcDbBlockBegin
  2
*X1
 70
     1
 10
0.0
 20
0.0
 30
0.0
  3
*X1
  1

  0
LINE
  5
2C
330
2B
100
AcDbEntity
  8
0
 62
     0
100
AcDbLine
 10
-775.6644828611415
 20
-613.0299231882356
 30
0.0
 11
-724.7506443108295
 21
-562.1160846379236
 31
0.0
  0
LINE
  5
2D
330
2B
100
AcDbEntity
  8
0
 62
     0
100
AcDbLine
 10
-781.9937569457485
 20
-612.2881294609773
 30
0.0
 11
-731.5133735206311
 21
-561.8077460358597
 31
0.0
  0
LINE
  5
2E
330
2B
100
AcDbEntity
  8
0
 62
     0
100
AcDbLine
 10
-788.3320701861777
 20
-611.555374889541
 30
0.0
 11
-738.3371534638599
 21
-561.5604581672231
 31
0.0
  0
LINE
  5
2F
330
2B
100
AcDbEntity
  8
0
 62
     0
100
AcDbLine
 10
-794.6794564596753
 20
-610.831693351173
 30
0.0
 11
-745.4811966442337
 21
-561.6334335357313
 31
0.0
  0
LINE
  5
30
330
2B
100
AcDbEntity
  8
0
 62
     0
100
AcDbLine
 10
-801.035949923478
 20
-610.1171190031102
 30
0.0
 11
-752.8342995861789
 21
-561.915468665811
 31
0.0
  0
LINE
  5
31
330
2B
100
AcDbEntity
  8
0
 62
     0
100
AcDbLine
 10
-807.4015850179618
 20
-609.4116862857285
 30
0.0
 11
-760.1874025281242
 21
-562.1975037958909
 31
0.0
  0
LINE
  5
32
330
2B
100
AcDbEntity
  8
0
 62
     0
100
AcDbLine
 10
-813.7763964698336
 20
-608.715429925735
 30
0.0
 11
-767.5405054700694
 21
-562.4795389259706
 31
0.0
  0
LINE
  5
33
330
2B
100
AcDbEntity
  8
0
 62
     0
100
AcDbLine
 10
-820.160419295372
 20
-608.0283849394078
 30
0.0
 11
-774.8936084120146
 21
-562.7615740560505
 31
0.0
  0
LINE
  5
34
330
2B
100
AcDbEntity
  8
0
 62
     0
100
AcDbLine
 10
-826.5536888037143
 20
-607.3505866358845
 30
0.0
 11
-782.24671135396
 21
-563.0436091861303
 31
0.0
  0
LINE
  5
35
330
2B
100
AcDbEntity
  8
0
 62
     0
100
AcDbLine
 10
-832.9562406001945
 20
-606.6820706204995
 30
0.0
 11
-789.5998142959053
 21
-563.3256443162101
 31
0.0
  0
LINE
  5
36
330
2B
100
AcDbEntity
  8
0
 62
     0
100
AcDbLine
 10
-839.36811058973
 20
-606.0228727981695
 30
0.0
 11
-796.9529172378505
 21
-563.6076794462899
 31
0.0
  0
LINE
  5
37
330
2B
100
AcDbEntity
  8
0
 62
     0
100
AcDbLine
 10
-845.7893349802594
 20
-605.3730293768333
 30
0.0
 11
-804.3060201797958
 21
-563.8897145763697
 31
0.0
  0
LINE
  5
38
330
2B
100
AcDbEntity
  8
0
 62
     0
100
AcDbLine
 10
-852.2199502862305
 20
-604.7325768709391
 30
0.0
 11
-811.6591231217411
 21
-564.1717497064495
 31
0.0
  0
LINE
  5
39
330
2B
100
AcDbEntity
  8
0
 62
     0
100
AcDbLine
 10
-858.6599933321441
 20
-604.101552104987
 30
0.0
 11
-819.0122260636863
 21
-564.4537848365293
 31
0.0
  0
LINE
  5
3A
330
2B
100
AcDbEntity
  8
0
 62
     0
100
AcDbLine
 10
-865.1095012561473
 20
-603.479992217125
 30
0.0
 11
-826.3653290056316
 21
-564.735819966609
 31
0.0
  0
LINE
  5
3B
330
2B
100
AcDbEntity
  8
0
 62
     0
100
AcDbLine
 10
-871.5685115136864
 20
-602.8679346627986
 30
0.0
 11
-833.7184319475769
 21
-565.0178550966889
 31
0.0
  0
LINE
  5
3C
330
2B
100
AcDbEntity
  8
0
 62
     0
100
AcDbLine
 10
-878.0370618812098
 20
-602.2654172184563
 30
0.0
 11
-841.0715348895221
 21
-565.2998902267686
 31
0.0
  0
LINE
  5
3D
330
2B
100
AcDbEntity
  8
0
 62
     0
100
AcDbLine
 10
-884.5151904599315
 20
-601.6724779853126
 30
0.0
 11
-848.4246378314674
 21
-565.5819253568485
 31
0.0
  0
LINE
  5
3E
330
2B
100
AcDbEntity
  8
0
 62
     0
100
AcDbLine
 10
-891.0029356796515
 20
-601.0891553931672
 30
0.0
 11
-855.7777407734127
 21
-565.8639604869282
 31
0.0
  0
LINE
  5
3F
330
2B
100
AcDbEntity
  8
0
 62
     0
100
AcDbLine
 10
-897.500336302634
 20
-600.5154882042842
 30
0.0
 11
-863.1308437153579
 21
-566.1459956170079
 31
0.0
  0
LINE
  5
40
330
2B
100
AcDbEntity
  8
0
 62
     0
100
AcDbLine
 10
-904.0074314275463
 20
-599.951515517331
 30
0.0
 11
-870.4839466573032
 21
-566.4280307470878
 31
0.0
  0
LINE
  5
41
330
2B
100
AcDbEntity
  8
0
 62
     0
100
AcDbLine
 10
-910.5242604934586
 20
-599.3972767713777
 30
0.0
 11
-877.8370495992485
 21
-566.7100658771675
 31
0.0
  0
LINE
  5
42
330
2B
100
AcDbEntity
  8
0
 62
     0
100
AcDbLine
 10
-917.0508632839057
 20
-598.8528117499595
 30
0.0
 11
-885.1901525411937
 21
-566.9921010072474
 31
0.0
  0
LINE
  5
43
330
2B
100
AcDbEntity
  8
0
 62
     0
100
AcDbLine
 10
-923.5872799310135
 20
-598.3181605852016
 30
0.0
 11
-892.543255483139
 21
-567.2741361373272
 31
0.0
  0
LINE
  5
44
330
2B
100
AcDbEntity
  8
0
 62
     0
100
AcDbLine
 10
-930.1335509196867
 20
-597.7933637620095
 30
0.0
 11
-899.8963584250843
 21
-567.556171267407
 31
0.0
  0
LINE
  5
45
330
2B
100
AcDbEntity
  8
0
 62
     0
100
AcDbLine
 10
-936.6897170918674
 20
-597.2784621223246
 30
0.0
 11
-907.2494613670297
 21
-567.8382063974868
 31
0.0
  0
LINE
  5
46
330
2B
100
AcDbEntity
  8
0
 62
     0
100
AcDbLine
 10
-943.2558196508555
 20
-596.7734968694474
 30
0.0
 11
-914.6025643089748
 21
-568.1202415275666
 31
0.0
  0
LINE
  5
47
330
2B
100
AcDbEntity
  8
0
 62
     0
100
AcDbLine
 10
-949.8319001657023
 20
-596.2785095724286
 30
0.0
 11
-921.9556672509201
 21
-568.4022766576464
 31
0.0
  0
LINE
  5
48
330
2B
100
AcDbEntity
  8
0
 62
     0
100
AcDbLine
 10
-956.4180005756693
 20
-595.7935421705302
 30
0.0
 11
-929.2137432476682
 21
-568.5892848425289
 31
0.0
  0
LINE
  5
49
330
2B
100
AcDbEntity
  8
0
 62
     0
100
AcDbLine
 10
-963.0141631947624
 20
-595.3186369777579
 30
0.0
 11
-936.0442940905684
 21
-568.3487678735636
 31
0.0
  0
LINE
  5
4A
330
2B
100
AcDbEntity
  8
0
 62
     0
100
AcDbLine
 10
-969.6204307163355
 20
-594.8538366874656
 30
0.0
 11
-942.8748449334685
 21
-568.1082509045984
 31
0.0
  0
LINE
  5
4B
330
2B
100
AcDbEntity
  8
0
 62
     0
100
AcDbLine
 10
-976.2368462177693
 20
-594.3991843770338
 30
0.0
 11
-949.7053957763688
 21
-567.8677339356331
 31
0.0
  0
LINE
  5
4C
330
2B
100
AcDbEntity
  8
0
 62
     0
100
AcDbLine
 10
-982.8634531652259
 20
-593.9547235126248
 30
0.0
 11
-956.535946619269
 21
-567.6272169666678
 31
0.0
  0
LINE
  5
4D
330
2B
100
AcDbEntity
  8
0
 62
     0
100
AcDbLine
 10
-989.5002954184784
 20
-593.5204979540118
 30
0.0
 11
-963.3664974621693
 21
-567.3866999977026
 31
0.0
  0
LINE
  5
4E
330
2B
100
AcDbEntity
  8
0
 62
     0
100
AcDbLine
 10
-996.7271652366886
 20
-593.6762999603566
 30
0.0
 11
-970.1970483050693
 21
-567.1461830287373
 31
0.0
  0
LINE
  5
4F
330
2B
100
AcDbEntity
  8
0
 62
     0
100
AcDbLine
 10
-1005.050762633657
 20
-594.9288295454595
 30
0.0
 11
-977.0275991479696
 21
-566.905666059772
 31
0.0
  0
LINE
  5
50
330
2B
100
AcDbEntity
  8
0
 62
     0
100
AcDbLine
 10
-1013.911582820319
 20
-596.7185819202564
 30
0.0
 11
-983.8581499908698
 21
-566.6651490908068
 31
0.0
  0
LINE
  5
51
330
2B
100
AcDbEntity
  8
0
 62
     0
100
AcDbLine
 10
-1023.453293871148
 20
-599.1892251592198
 30
0.0
 11
-990.6887008337699
 21
-566.4246321218415
 31
0.0
  0
LINE
  5
52
330
2B
100
AcDbEntity
  8
0
 62
     0
100
AcDbLine
 10
-1033.907974826387
 20
-602.572838302593
 30
0.0
 11
-997.5192516766702
 21
-566.1841151528762
 31
0.0
  0
LINE
  5
53
330
2B
100
AcDbEntity
  8
0
 62
     0
100
AcDbLine
 10
-1045.699545671086
 20
-607.2933413354271
 30
0.0
 11
-1004.34980251957
 21
-565.943598183911
 31
0.0
  0
LINE
  5
54
330
2B
100
AcDbEntity
  8
0
 62
     0
100
AcDbLine
 10
-1059.790065689716
 20
-614.312793542191
 30
0.0
 11
-1011.18035336247
 21
-565.7030812149457
 31
0.0
  0
LINE
  5
55
330
2B
100
AcDbEntity
  8
0
 62
     0
100
AcDbLine
 10
-1079.973765975819
 20
-627.4254260164292
 30
0.0
 11
-1018.01090420537
 21
-565.4625642459804
 31
0.0
  0
LINE
  5
56
330
2B
100
AcDbEntity
  8
0
 62
     0
100
AcDbLine
 10
-1075.932995240167
 20
-616.3135874689112
 30
0.0
 11
-1024.841455048271
 21
-565.2220472770152
 31
0.0
  0
LINE
  5
57
330
2B
100
AcDbEntity
  8
0
 62
     0
100
AcDbLine
 10
-1074.059229836476
 20
-607.3687542533547
 30
0.0
 11
-1031.672005891171
 21
-564.9815303080499
 31
0.0
  0
LINE
  5
58
330
2B
100
AcDbEntity
  8
0
 62
     0
100
AcDbLine
 10
-1073.935561338201
 20
-600.174017943215
 30
0.0
 11
-1038.502556734071
 21
-564.7410133390847
 31
0.0
  0
LINE
  5
59
330
2B
100
AcDbEntity
  8
0
 62
     0
100
AcDbLine
 10
-1074.801903977998
 20
-593.9692927711458
 30
0.0
 11
-1045.333107576971
 21
-564.5004963701194
 31
0.0
  0
LINE
  5
5A
330
2B
100
AcDbEntity
  8
0
 62
     0
100
AcDbLine
 10
-1076.369765763076
 20
-588.4660867443589
 30
0.0
 11
-1052.163658419871
 21
-564.2599794011541
 31
0.0
  0
LINE
  5
5B
330
2B
100
AcDbEntity
  8
0
 62
     0
100
AcDbLine
 10
-1078.49616002145
 20
-583.5214131908669
 30
0.0
 11
-1058.994209262772
 21
-564.0194624321889
 31
0.0
  0
LINE
  5
5C
330
2B
100
AcDbEntity
  8
0
 62
     0
100
AcDbLine
 10
-1081.102178797965
 20
-579.0563641555166
 30
0.0
 11
-1065.824760105672
 21
-563.7789454632235
 31
0.0
  0
LINE
  5
5D
330
2B
100
AcDbEntity
  8
0
 62
     0
100
AcDbLine
 10
-1084.143876260345
 20
-575.0269938060307
 30
0.0
 11
-1072.655310948572
 21
-563.5384284942582
 31
0.0
  0
LINE
  5
5E
330
2B
100
AcDbEntity
  8
0
 62
     0
100
AcDbLine
 10
-1087.60010696034
 20
-571.4121566941606
 30
0.0
 11
-1079.485861791472
 21
-563.2979115252929
 31
0.0
  0
LINE
  5
5F
330
2B
100
AcDbEntity
  8
0
 62
     0
100
AcDbLine
 10
-1091.467605486648
 20
-568.2085874086036
 30
0.0
 11
-1086.316412634372
 21
-563.0573945563277
 31
0.0
  0
LINE
  5
60
330
2B
100
AcDbEntity
  8
0
 62
     0
100
AcDbLine
 10
-1095.760277894604
 20
-565.4301920046934
 30
0.0
 11
-1093.146963477273
 21
-562.8168775873624
 31
0.0
  0
LINE
  5
61
330
2B
100
AcDbEntity
  8
0
 62
     0
100
AcDbLine
 10
-1100.512313616308
 20
-563.1111599145322
 30
0.0
 11
-1099.977514320173
 21
-562.5763606183972
 31
0.0
  0
LINE
  5
62
330
2B
100
AcDbEntity
  8
0
 62
     0
100
AcDbLine
 10
-769.3442143320019
 20
-613.7807224709616
 30
0.0
 11
-718.0474305609894
 21
-562.4839386999489
 31
0.0
  0
LINE
  5
63
330
2B
100
AcDbEntity
  8
0
 62
     0
100
AcDbLine
 10
-763.0329180318102
 20
-614.5404939826354
 30
0.0
 11
-711.4022749780775
 21
-562.9098509289026
 31
0.0
  0
LINE
  5
64
330
2B
100
AcDbEntity
  8
0
 62
     0
100
AcDbLine
 10
-756.7305609048684
 20
-615.309204667559
 30
0.0
 11
-704.8137929003404
 21
-563.392436663031
 31
0.0
  0
LINE
  5
65
330
2B
100
AcDbEntity
  8
0
 62
     0
100
AcDbLine
 10
-750.4371101633321
 20
-616.0868217378882
 30
0.0
 11
-698.2806674156843
 21
-563.9303789902403
 31
0.0
  0
LINE
  5
66
330
2B
100
AcDbEntity
  8
0
 62
     0
100
AcDbLine
 10
-744.1525332842836
 20
-616.8733126707052
 30
0.0
 11
-691.8016448985358
 21
-564.5224242849574
 31
0.0
  0
LINE
  5
67
330
2B
100
AcDbEntity
  8
0
 62
     0
100
AcDbLine
 10
-737.8767980068468
 20
-617.668645205134
 30
0.0
 11
-685.3755309221126
 21
-565.1673781203994
 31
0.0
  0
LINE
  5
68
330
2B
100
AcDbEntity
  8
0
 62
     0
100
AcDbLine
 10
-731.6098723293431
 20
-618.4727873394956
 30
0.0
 11
-679.0011865081761
 21
-565.8641015183286
 31
0.0
  0
LINE
  5
69
330
2B
100
AcDbEntity
  8
0
 62
     0
100
AcDbLine
 10
-725.3517245064879
 20
-619.2857073285059
 30
0.0
 11
-672.6775246808041
 21
-566.611507502822
 31
0.0
  0
LINE
  5
6A
330
2B
100
AcDbEntity
  8
0
 62
     0
100
AcDbLine
 10
-719.1023230466261
 20
-620.1073736805096
 30
0.0
 11
-666.4035072945666
 21
-567.4085579284501
 31
0.0
  0
LINE
  5
6B
330
2B
100
AcDbEntity
  8
0
 62
     0
100
AcDbLine
 10
-712.8616367090066
 20
-620.9377551547556
 30
0.0
 11
-660.178142110856
 21
-568.2542605566048
 31
0.0
  0
LINE
  5
6C
330
2B
100
AcDbEntity
  8
0
 62
     0
100
AcDbLine
 10
-706.6296345010963
 20
-621.7768207587107
 30
0.0
 11
-654.0004800990368
 21
-569.1476663566511
 31
0.0
  0
LINE
  5
6D
330
2B
100
AcDbEntity
  8
0
 62
     0
100
AcDbLine
 10
-700.4062856759288
 20
-622.6245397454087
 30
0.0
 11
-647.8696129416407
 21
-570.0878670111205
 31
0.0
  0
LINE
  5
6E
330
2B
100
AcDbEntity
  8
0
 62
     0
100
AcDbLine
 10
-694.1915597294933
 20
-623.4808816108386
 30
0.0
 11
-641.7846707250641
 21
-571.0739926064092
 31
0.0
  0
LINE
  5
6F
330
2B
100
AcDbEntity
  8
0
 62
     0
100
AcDbLine
 10
-687.9854263981574
 20
-624.3458160913682
 30
0.0
 11
-635.7448197991906
 21
-572.1052094924013
 31
0.0
  0
LINE
  5
70
330
2B
100
AcDbEntity
  8
0
 62
     0
100
AcDbLine
 10
-681.7878556561266
 20
-625.2193131612029
 30
0.0
 11
-629.74926079109
 21
-573.1807182961662
 31
0.0
  0
LINE
  5
71
330
2B
100
AcDbEntity
  8
0
 62
     0
100
AcDbLine
 10
-675.5988177129394
 20
-626.1013430298812
 30
0.0
 11
-623.7972267594609
 21
-574.2997520764025
 31
0.0
  0
LINE
  5
72
330
2B
100
AcDbEntity
  8
0
 62
     0
100
AcDbLine
 10
-669.4182830109946
 20
-626.9918761398018
 30
0.0
 11
-617.8879814778382
 21
-575.4615746066454
 31
0.0
  0
LINE
  5
73
330
2B
100
AcDbEntity
  8
0
 62
     0
100
AcDbLine
 10
-663.2462222231159
 20
-627.8908831637886
 30
0.0
 11
-612.0208178357695
 21
-576.6654787764422
 31
0.0
  0
LINE
  5
74
330
2B
100
AcDbEntity
  8
0
 62
     0
100
AcDbLine
 10
-657.082606250147
 20
-628.7983350026852
 30
0.0
 11
-606.1950563482255
 21
-577.9107851007636
 31
0.0
  0
LINE
  5
75
330
2B
100
AcDbEntity
  8
0
 62
     0
100
AcDbLine
 10
-650.9274062185808
 20
-629.7142027829846
 30
0.0
 11
-600.4100437644451
 21
-579.1968403288486
 31
0.0
  0
LINE
  5
76
330
2B
100
AcDbEntity
  8
0
 62
     0
100
AcDbLine
 10
-644.780593478221
 20
-630.6384578544902
 30
0.0
 11
-594.6651517682546
 21
-580.5230161445236
 31
0.0
  0
LINE
  5
77
330
2B
100
AcDbEntity
  8
0
 62
     0
100
AcDbLine
 10
-638.6421395998739
 20
-631.5710717880086
 30
0.0
 11
-588.9597757626424
 21
-581.8887079507769
 31
0.0
  0
LINE
  5
78
330
2B
100
AcDbEntity
  8
0
 62
     0
100
AcDbLine
 10
-632.5120163730737
 20
-632.5120163730738
 30
0.0
 11
-583.2933337320389
 21
-583.2933337320389
 31
0.0
  0
LINE
  5
79
330
2B
100
AcDbEntity
  8
0
 62
     0
100
AcDbLine
 10
-626.3901958038368
 20
-633.4612636157024
 30
0.0
 11
-577.6652651763465
 21
-584.7363329882121
 31
0.0
  0
LINE
  5
7A
330
2B
100
AcDbEntity
  8
0
 62
     0
100
AcDbLine
 10
-620.2766501124463
 20
-634.4187857361774
 30
0.0
 11
-572.0750301112996
 21
-586.2171657350305
 31
0.0
  0
LINE
  5
7B
330
2B
100
AcDbEntity
  8
0
 62
     0
100
AcDbLine
 10
-613.6467473130003
 20
-634.8599507485968
 30
0.0
 11
-566.5221081302117
 21
-587.7353115658081
 31
0.0
  0
LINE
  5
7C
330
2B
100
AcDbEntity
  8
0
 62
     0
100
AcDbLine
 10
-606.4593483391903
 20
-634.7436195866522
 30
0.0
 11
-561.0059975226025
 21
-589.2902687700645
 31
0.0
  0
LINE
  5
7D
330
2B
100
AcDbEntity
  8
0
 62
     0
100
AcDbLine
 10
-599.2719493653803
 20
-634.6272884247078
 30
0.0
 11
-555.5262144455818
 21
-590.8815535049093
 31
0.0
  0
LINE
  5
7E
330
2B
100
AcDbEntity
  8
0
 62
     0
100
AcDbLine
 10
-592.0845503915703
 20
-634.5109572627632
 30
0.0
 11
-550.0822921442213
 21
-592.5086990154142
 31
0.0
  0
LINE
  5
7F
330
2B
100
AcDbEntity
  8
0
 62
     0
100
AcDbLine
 10
-584.8971514177604
 20
-634.3946261008186
 30
0.0
 11
-544.6737802174574
 21
-594.1712549005158
 31
0.0
  0
LINE
  5
80
330
2B
100
AcDbEntity
  8
0
 62
     0
100
AcDbLine
 10
-583.7676191877469
 20
-640.3361616826706
 30
0.0
 11
-582.7926766489704
 21
-639.3612191438942
 31
0.0
  0
LINE
  5
81
330
2B
100
AcDbEntity
  8
0
 62
     0
100
AcDbLine
 10
-577.7097524439503
 20
-634.2782949388741
 30
0.0
 11
-539.3002439263604
 21
-595.8687864212842
 31
0.0
  0
LINE
  5
82
330
2B
100
AcDbEntity
  8
0
 62
     0
100
AcDbLine
 10
-577.711237355971
 20
-641.3508476627602
 30
0.0
 11
-575.6052776751604
 21
-639.2448879819497
 31
0.0
  0
LINE
  5
83
330
2B
100
AcDbEntity
  8
0
 62
     0
100
AcDbLine
 10
-570.5223534701402
 20
-634.1619637769296
 30
0.0
 11
-533.9612635418584
 21
-597.6008738486476
 31
0.0
  0
LINE
  5
84
330
2B
100
AcDbEntity
  8
0
 62
     0
100
AcDbLine
 10
-571.6629156216863
 20
-642.3735937403409
 30
0.0
 11
-568.4178787013503
 21
-639.1285568200051
 31
0.0
  0
LINE
  5
85
330
2B
100
AcDbEntity
  8
0
 62
     0
100
AcDbLine
 10
-563.3349544963302
 20
-634.045632614985
 30
0.0
 11
-528.6564337292439
 21
-599.3671118478987
 31
0.0
  0
LINE
  5
86
330
2B
100
AcDbEntity
  8
0
 62
     0
100
AcDbLine
 10
-565.6226280386427
 20
-643.4043739691628
 30
0.0
 11
-561.2304797275403
 21
-639.0122256580606
 31
0.0
  0
LINE
  5
87
330
2B
100
AcDbEntity
  8
0
 62
     0
100
AcDbLine
 10
-556.1475555225203
 20
-633.9293014530405
 30
0.0
 11
-523.3853629670025
 21
-601.1671088975226
 31
0.0
  0
LINE
  5
88
330
2B
100
AcDbEntity
  8
0
 62
     0
100
AcDbLine
 10
-559.5903488542607
 20
-644.4431625966463
 30
0.0
 11
-554.0430807537303
 21
-638.895894496116
 31
0.0
  0
LINE
  5
89
330
2B
100
AcDbEntity
  8
0
 62
     0
100
AcDbLine
 10
-548.9601565487102
 20
-633.812970291096
 30
0.0
 11
-518.147672997696
 21
-603.0004867400817
 31
0.0
  0
LINE
  5
8A
330
2B
100
AcDbEntity
  8
0
 62
     0
100
AcDbLine
 10
-553.5660525077188
 20
-645.4899340619699
 30
0.0
 11
-546.8556817799203
 21
-638.7795633341716
 31
0.0
  0
LINE
  5
8B
330
2B
100
AcDbEntity
  8
0
 62
     0
100
AcDbLine
 10
-541.7727575749003
 20
-633.6966391291514
 30
0.0
 11
-512.9429983088138
 21
-604.8668798630651
 31
0.0
  0
LINE
  5
8C
330
2B
100
AcDbEntity
  8
0
 62
     0
100
AcDbLine
 10
-547.5497136280644
 20
-646.5446629941809
 30
0.0
 11
-539.6682828061103
 21
-638.663232172227
 31
0.0
  0
LINE
  5
8D
330
2B
100
AcDbEntity
  8
0
 62
     0
100
AcDbLine
 10
-534.5853586010902
 20
-633.5803079672068
 30
0.0
 11
-507.7709856416602
 21
-606.7659350077768
 31
0.0
  0
LINE
  5
8E
330
2B
100
AcDbEntity
  8
0
 62
     0
100
AcDbLine
 10
-541.5413070323491
 20
-647.6073242103312
 30
0.0
 11
-532.4808838323003
 21
-638.5469010102824
 31
0.0
  0
LINE
  5
8F
330
2B
100
AcDbEntity
  8
0
 62
     0
100
AcDbLine
 10
-527.3979596272802
 20
-633.4639768052624
 30
0.0
 11
-502.6312935264979
 21
-608.69731070448
 31
0.0
  0
LINE
  5
90
330
2B
100
AcDbEntity
  8
0
 62
     0
100
AcDbLine
 10
-535.5408077237885
 20
-648.6778927136359
 30
0.0
 11
-525.2934848584904
 21
-638.4305698483379
 31
0.0
  0
LINE
  5
91
330
2B
100
AcDbEntity
  8
0
 62
     0
100
AcDbLine
 10
-520.2105606534701
 20
-633.3476456433178
 30
0.0
 11
-497.5235918423005
 21
-610.6606768321482
 31
0.0
  0
LINE
  5
92
330
2B
100
AcDbEntity
  8
0
 62
     0
100
AcDbLine
 10
-529.5481908899445
 20
-649.7563436916575
 30
0.0
 11
-518.1060858846803
 21
-638.3142386863934
 31
0.0
  0
LINE
  5
93
330
2B
100
AcDbEntity
  8
0
 62
     0
100
AcDbLine
 10
-513.0231616796602
 20
-633.2313144813732
 30
0.0
 11
-492.4475613995882
 21
-612.6557142013012
 31
0.0
  0
LINE
  5
94
330
2B
100
AcDbEntity
  8
0
 62
     0
100
AcDbLine
 10
-523.5634319009331
 20
-650.8426525145116
 30
0.0
 11
-510.9186869108704
 21
-638.197907524449
 31
0.0
  0
LINE
  5
95
330
2B
100
AcDbEntity
  8
0
 62
     0
100
AcDbLine
 10
-505.8357627058502
 20
-633.1149833194288
 30
0.0
 11
-487.4028935449343
 21
-614.6821141585129
 31
0.0
  0
LINE
  5
96
330
2B
100
AcDbEntity
  8
0
 62
     0
100
AcDbLine
 10
-517.5865063076531
 20
-651.9367947330971
 30
0.0
 11
-503.7312879370603
 21
-638.0815763625044
 31
0.0
  0
LINE
  5
97
330
2B
100
AcDbEntity
  8
0
 62
     0
100
AcDbLine
 10
-498.6483637320402
 20
-632.9986521574842
 30
0.0
 11
-482.3892897858329
 21
-616.739578211277
 31
0.0
  0
LINE
  5
98
330
2B
100
AcDbEntity
  8
0
 62
     0
100
AcDbLine
 10
-511.617389840038
 20
-653.0387460773474
 30
0.0
 11
-496.5438889632503
 21
-637.9652452005599
 31
0.0
  0
LINE
  5
99
330
2B
100
AcDbEntity
  8
0
 62
     0
100
AcDbLine
 10
-491.4609647582302
 20
-632.8823209955396
 30
0.0
 11
-477.4064614347134
 21
-618.8278176720229
 31
0.0
  0
LINE
  5
9A
330
2B
100
AcDbEntity
  8
0
 62
     0
100
AcDbLine
 10
-505.6560584053311
 20
-654.148482454506
 30
0.0
 11
-489.3564899894403
 21
-637.8489140386153
 31
0.0
  0
LINE
  5
9B
330
2B
100
AcDbEntity
  8
0
 62
     0
100
AcDbLine
 10
-484.2735657844202
 20
-632.7659898335951
 30
0.0
 11
-472.4541292709715
 21
-620.9465533201465
 31
0.0
  0
LINE
  5
9C
330
2B
100
AcDbEntity
  8
0
 62
     0
100
AcDbLine
 10
-499.7024880863802
 20
-655.2659799474205
 30
0.0
 11
-482.1690910156304
 21
-637.7325828766707
 31
0.0
  0
LINE
  5
9D
330
2B
100
AcDbEntity
  8
0
 62
     0
100
AcDbLine
 10
-477.0861668106102
 20
-632.6496586716506
 30
0.0
 11
-467.5320232199699
 21
-623.0955150810103
 31
0.0
  0
LINE
  5
9E
330
2B
100
AcDbEntity
  8
0
 62
     0
100
AcDbLine
 10
-493.7566551399568
 20
-656.3912148128626
 30
0.0
 11
-474.9816920418203
 21
-637.6162517147263
 31
0.0
  0
LINE
  5
9F
330
2B
100
AcDbEntity
  8
0
 62
     0
100
AcDbLine
 10
-469.8987678368001
 20
-632.533327509706
 30
0.0
 11
-462.6398820480313
 21
-625.2744417209371
 31
0.0
  0
LINE
  5
A0
330
2B
100
AcDbEntity
  8
0
 62
     0
100
AcDbLine
 10
-487.8185359950945
 20
-657.5241634798658
 30
0.0
 11
-467.7942930680104
 21
-637.4999205527817
 31
0.0
  0
LINE
  5
A1
330
2B
100
AcDbEntity
  8
0
 62
     0
100
AcDbLine
 10
-462.7113688629902
 20
-632.4169963477616
 30
0.0
 11
-457.777453072517
 21
-627.4830805572884
 31
0.0
  0
LINE
  5
A2
330
2B
100
AcDbEntity
  8
0
 62
     0
100
AcDbLine
 10
-481.8881072514487
 20
-658.6648025480855
 30
0.0
 11
-460.6068940942003
 21
-637.3835893908372
 31
0.0
  0
LINE
  5
A3
330
2B
100
AcDbEntity
  8
0
 62
     0
100
AcDbLine
 10
-455.5239698891802
 20
-632.300665185817
 30
0.0
 11
-452.9444918861453
 21
-629.7211871827821
 31
0.0
  0
LINE
  5
A4
330
2B
100
AcDbEntity
  8
0
 62
     0
100
AcDbLine
 10
-448.3365709153701
 20
-632.1843340238724
 30
0.0
 11
-448.1407620947596
 21
-631.9885252032619
 31
0.0
  0
ENDBLK
  5
A6
330
2B
100
AcDbEntity
  8
0
100
AcDbBlockEnd
  0
BLOCK
  5
B3
330
A7
100
AcDbEntity
  8
0
100
AcDbBlockBegin
  2
*X2
 70
     1
 10
0.0
 20
0.0
 30
0.0
  3
*X2
  1

  0
LINE
  5
A8
330
A7
100
AcDbEntity
  8
0
 62
     0
100
AcDbLine
 10
-452.3505122805543
 20
-664.4825466365188
 30
0.0
 11
-429.2136958142335
 21
-641.3457301701977
 31
0.0
  0
LINE
  5
A9
330
A7
100
AcDbEntity
  8
0
 62
     0
100
AcDbLine
 10
-458.242834163768
 20
-663.3038007078671
 30
0.0
 11
-433.9027121895843
 21
-638.963678733683
 31
0.0
  0
LINE
  5
AA
330
A7
100
AcDbEntity
  8
0
 62
     0
100
AcDbLine
 10
-464.1427319498202
 20
-662.1326306820537
 30
0.0
 11
-439.0446971727705
 21
-637.0345959050037
 31
0.0
  0
LINE
  5
AB
330
A7
100
AcDbEntity
  8
0
 62
     0
100
AcDbLine
 10
-470.0502282098391
 20
-660.9690591302072
 30
0.0
 11
-446.2320961465805
 21
-637.1509270669483
 31
0.0
  0
LINE
  5
AC
330
A7
100
AcDbEntity
  8
0
 62
     0
100
AcDbLine
 10
-446.4657438902524
 20
-665.6688460580824
 30
0.0
 11
-424.5568971853464
 21
-643.7599993531762
 31
0.0
  0
LINE
  5
AD
330
A7
100
AcDbEntity
  8
0
 62
     0
100
AcDbLine
 10
-440.5885067426362
 20
-666.8626767223316
 30
0.0
 11
-419.9365556498464
 21
-646.2107256295417
 31
0.0
  0
LINE
  5
AE
330
A7
100
AcDbEntity
  8
0
 62
     0
100
AcDbLine
 10
-434.7187787456948
 20
-668.0640165372558
 30
0.0
 11
-415.3162141143464
 21
-648.661451905907
 31
0.0
  0
LINE
  5
AF
330
A7
100
AcDbEntity
  8
0
 62
     0
100
AcDbLine
 10
-428.8565379641669
 20
-669.2728435675933
 30
0.0
 11
-410.7373440276695
 21
-651.1536496310957
 31
0.0
  0
LINE
  5
B0
330
A7
100
AcDbEntity
  8
0
 62
     0
100
AcDbLine
 10
-423.0017626180939
 20
-670.4891360333858
 30
0.0
 11
-406.1872666768705
 21
-653.6746400921621
 31
0.0
  0
LINE
  5
B1
330
A7
100
AcDbEntity
  8
0
 62
     0
100
AcDbLine
 10
-417.1544310813884
 20
-671.7128723085457
 30
0.0
 11
-402.070435607434
 21
-656.6288768345912
 31
0.0
  0
LINE
  5
B2
330
A7
100
AcDbEntity
  8
0
 62
     0
100
AcDbLine
 10
-411.3275371829338
 20
-672.9570462219563
 30
0.0
 11
-399.8357963723978
 21
-661.4653054114204
 31
0.0
  0
ENDBLK
  5
B4
330
A7
100
AcDbEntity
  8
0
100
AcDbBlockEnd
  0
BLOCK
  5
11B
330
B5
100
AcDbEntity
  8
0
100
AcDbBlockBegin
  2
*X3
 70
     1
 10
0.0
 20
0.0
 30
0.0
  3
*X3
  1

  0
LINE
  5
B6
330
B5
100
AcDbEntity
  8
0
 62
     0
100
AcDbLine
 10
-826.8077163246035
 20
-678.3152922754285
 30
0.0
 11
-791.2272468894608
 21
-642.7348228402859
 31
0.0
  0
LINE
  5
B7
330
B5
100
AcDbEntity
  8
0
 62
     0
100
AcDbLine
 10
-786.1443226844406
 20
-637.6518986352656
 30
0.0
 11
-773.3145535749854
 21
-624.8221295258104
 31
0.0
  0
LINE
  5
B8
330
B5
100
AcDbEntity
  8
0
 62
     0
100
AcDbLine
 10
-833.9951152984136
 20
-678.4316234373731
 30
0.0
 11
-798.4146458632708
 21
-642.8511540022305
 31
0.0
  0
LINE
  5
B9
330
B5
100
AcDbEntity
  8
0
 62
     0
100
AcDbLine
 10
-793.3317216582507
 20
-637.7682297972102
 30
0.0
 11
-779.7834064481676
 21
-624.2199145871271
 31
0.0
  0
LINE
  5
BA
330
B5
100
AcDbEntity
  8
0
 62
     0
100
AcDbLine
 10
-841.1825142722236
 20
-678.5479545993176
 30
0.0
 11
-805.6020448370809
 21
-642.9674851641749
 31
0.0
  0
LINE
  5
BB
330
B5
100
AcDbEntity
  8
0
 62
     0
100
AcDbLine
 10
-800.5191206320606
 20
-637.8845609591548
 30
0.0
 11
-786.3270502094111
 21
-623.6924905365052
 31
0.0
  0
LINE
  5
BC
330
B5
100
AcDbEntity
  8
0
 62
     0
100
AcDbLine
 10
-848.3699132460335
 20
-678.6642857612621
 30
0.0
 11
-812.7894438108908
 21
-643.0838163261195
 31
0.0
  0
LINE
  5
BD
330
B5
100
AcDbEntity
  8
0
 62
     0
100
AcDbLine
 10
-807.7065196058706
 20
-638.0008921210992
 30
0.0
 11
-792.947903498266
 21
-623.2422760134945
 31
0.0
  0
LINE
  5
BE
330
B5
100
AcDbEntity
  8
0
 62
     0
100
AcDbLine
 10
-855.5573122198435
 20
-678.7806169232067
 30
0.0
 11
-819.9768427847009
 21
-643.200147488064
 31
0.0
  0
LINE
  5
BF
330
B5
100
AcDbEntity
  8
0
 62
     0
100
AcDbLine
 10
-814.8939185796805
 20
-638.1172232830437
 30
0.0
 11
-799.6485566361805
 21
-622.8718613395435
 31
0.0
  0
LINE
  5
C0
330
B5
100
AcDbEntity
  8
0
 62
     0
100
AcDbLine
 10
-862.7447111936534
 20
-678.8969480851513
 30
0.0
 11
-827.1642417585109
 21
-643.3164786500086
 31
0.0
  0
LINE
  5
C1
330
B5
100
AcDbEntity
  8
0
 62
     0
100
AcDbLine
 10
-822.0813175534907
 20
-638.2335544449882
 30
0.0
 11
-806.4317888072835
 21
-622.5840256987811
 31
0.0
  0
LINE
  5
C2
330
B5
100
AcDbEntity
  8
0
 62
     0
100
AcDbLine
 10
-869.9321101674636
 20
-679.0132792470957
 30
0.0
 11
-834.3516407323209
 21
-643.432809811953
 31
0.0
  0
LINE
  5
C3
330
B5
100
AcDbEntity
  8
0
 62
     0
100
AcDbLine
 10
-829.2687165273006
 20
-638.3498856069328
 30
0.0
 11
-813.3005875448644
 21
-622.3817566244966
 31
0.0
  0
LINE
  5
C4
330
B5
100
AcDbEntity
  8
0
 62
     0
100
AcDbLine
 10
-877.1195091412735
 20
-679.1296104090402
 30
0.0
 11
-841.5390397061308
 21
-643.5491409738975
 31
0.0
  0
LINE
  5
C5
330
B5
100
AcDbEntity
  8
0
 62
     0
100
AcDbLine
 10
-836.4561155011108
 20
-638.4662167688774
 30
0.0
 11
-820.2581709140392
 21
-622.268272181806
 31
0.0
  0
LINE
  5
C6
330
B5
100
AcDbEntity
  8
0
 62
     0
100
AcDbLine
 10
-884.3069081150837
 20
-679.2459415709848
 30
0.0
 11
-848.7264386799408
 21
-643.6654721358421
 31
0.0
  0
LINE
  5
C7
330
B5
100
AcDbEntity
  8
0
 62
     0
100
AcDbLine
 10
-843.6435144749207
 20
-638.5825479308218
 30
0.0
 11
-827.3080128618921
 21
-622.2470463177934
 31
0.0
  0
LINE
  5
C8
330
B5
100
AcDbEntity
  8
0
 62
     0
100
AcDbLine
 10
-891.4943070888936
 20
-679.3622727329293
 30
0.0
 11
-855.9138376537509
 21
-643.7818032977867
 31
0.0
  0
LINE
  5
C9
330
B5
100
AcDbEntity
  8
0
 62
     0
100
AcDbLine
 10
-850.8309134487307
 20
-638.6988790927664
 30
0.0
 11
-834.4538723071377
 21
-622.3218379511734
 31
0.0
  0
LINE
  5
CA
330
B5
100
AcDbEntity
  8
0
 62
     0
100
AcDbLine
 10
-898.6817060627036
 20
-679.4786038948739
 30
0.0
 11
-863.101236627561
 21
-643.8981344597311
 31
0.0
  0
LINE
  5
CB
330
B5
100
AcDbEntity
  8
0
 62
     0
100
AcDbLine
 10
-858.0183124225406
 20
-638.815210254711
 30
0.0
 11
-841.6998266678206
 21
-622.4967244999908
 31
0.0
  0
LINE
  5
CC
330
B5
100
AcDbEntity
  8
0
 62
     0
100
AcDbLine
 10
-905.8691050365137
 20
-679.5949350568185
 30
0.0
 11
-870.288635601371
 21
-644.0144656216757
 31
0.0
  0
LINE
  5
CD
330
B5
100
AcDbEntity
  8
0
 62
     0
100
AcDbLine
 10
-865.2057113963506
 20
-638.9315414166555
 30
0.0
 11
-849.050310685498
 21
-622.7761407058027
 31
0.0
  0
LINE
  5
CE
330
B5
100
AcDbEntity
  8
0
 62
     0
100
AcDbLine
 10
-913.0565040103236
 20
-679.711266218763
 30
0.0
 11
-877.4760345751809
 21
-644.1307967836203
 31
0.0
  0
LINE
  5
CF
330
B5
100
AcDbEntity
  8
0
 62
     0
100
AcDbLine
 10
-872.3931103701607
 20
-639.0478725786
 30
0.0
 11
-856.5101616080927
 21
-623.164923816532
 31
0.0
  0
LINE
  5
D0
330
B5
100
AcDbEntity
  8
0
 62
     0
100
AcDbLine
 10
-920.2439029841336
 20
-679.8275973807075
 30
0.0
 11
-884.6634335489909
 21
-644.2471279455648
 31
0.0
  0
LINE
  5
D1
330
B5
100
AcDbEntity
  8
0
 62
     0
100
AcDbLine
 10
-879.5805093439707
 20
-639.1642037405446
 30
0.0
 11
-864.0846720553522
 21
-623.668366451926
 31
0.0
  0
LINE
  5
D2
330
B5
100
AcDbEntity
  8
0
 62
     0
100
AcDbLine
 10
-927.4313019579436
 20
-679.9439285426521
 30
0.0
 11
-891.8508325228009
 21
-644.3634591075094
 31
0.0
  0
LINE
  5
D3
330
B5
100
AcDbEntity
  8
0
 62
     0
100
AcDbLine
 10
-886.7679083177808
 20
-639.280534902489
 30
0.0
 11
-871.7796522300087
 21
-624.292278814717
 31
0.0
  0
LINE
  5
D4
330
B5
100
AcDbEntity
  8
0
 62
     0
100
AcDbLine
 10
-934.6187009317537
 20
-680.0602597045966
 30
0.0
 11
-899.038231496611
 21
-644.4797902694538
 31
0.0
  0
LINE
  5
D5
330
B5
100
AcDbEntity
  8
0
 62
     0
100
AcDbLine
 10
-893.9553072915908
 20
-639.3968660644336
 30
0.0
 11
-879.6015035814017
 21
-625.0430623542446
 31
0.0
  0
LINE
  5
D6
330
B5
100
AcDbEntity
  8
0
 62
     0
100
AcDbLine
 10
-941.8060999055638
 20
-680.176590866541
 30
0.0
 11
-906.2256304704209
 21
-644.5961214313983
 31
0.0
  0
LINE
  5
D7
330
B5
100
AcDbEntity
  8
0
 62
     0
100
AcDbLine
 10
-901.1427062654007
 20
-639.5131972263782
 30
0.0
 11
-887.5573066145364
 21
-625.9277975755138
 31
0.0
  0
LINE
  5
D8
330
B5
100
AcDbEntity
  8
0
 62
     0
100
AcDbLine
 10
-948.9934988793738
 20
-680.2929220284856
 30
0.0
 11
-913.4130294442311
 21
-644.7124525933429
 31
0.0
  0
LINE
  5
D9
330
B5
100
AcDbEntity
  8
0
 62
     0
100
AcDbLine
 10
-908.3301052392107
 20
-639.6295283883226
 30
0.0
 11
-895.6549263206303
 21
-626.9543494697423
 31
0.0
  0
LINE
  5
DA
330
B5
100
AcDbEntity
  8
0
 62
     0
100
AcDbLine
 10
-956.1808978531837
 20
-680.4092531904302
 30
0.0
 11
-920.600428418041
 21
-644.8287837552874
 31
0.0
  0
LINE
  5
DB
330
B5
100
AcDbEntity
  8
0
 62
     0
100
AcDbLine
 10
-915.5175042130208
 20
-639.7458595502672
 30
0.0
 11
-903.9031397636103
 21
-628.1314951008567
 31
0.0
  0
LINE
  5
DC
330
B5
100
AcDbEntity
  8
0
 62
     0
100
AcDbLine
 10
-963.3682968269937
 20
-680.5255843523748
 30
0.0
 11
-927.787827391851
 21
-644.9451149172319
 31
0.0
  0
LINE
  5
DD
330
B5
100
AcDbEntity
  8
0
 62
     0
100
AcDbLine
 10
-922.7049031868308
 20
-639.8621907122117
 30
0.0
 11
-912.3117918060101
 21
-629.469079331391
 31
0.0
  0
LINE
  5
DE
330
B5
100
AcDbEntity
  8
0
 62
     0
100
AcDbLine
 10
-970.5556958008036
 20
-680.6419155143193
 30
0.0
 11
-934.9752263656609
 21
-645.0614460791765
 31
0.0
  0
LINE
  5
DF
330
B5
100
AcDbEntity
  8
0
 62
     0
100
AcDbLine
 10
-929.8923021606409
 20
-639.9785218741563
 30
0.0
 11
-920.8919869692202
 21
-630.9782066827357
 31
0.0
  0
LINE
  5
E0
330
B5
100
AcDbEntity
  8
0
 62
     0
100
AcDbLine
 10
-977.7430947746138
 20
-680.7582466762639
 30
0.0
 11
-942.1626253394709
 21
-645.177777241121
 31
0.0
  0
LINE
  5
E1
330
B5
100
AcDbEntity
  8
0
 62
     0
100
AcDbLine
 10
-937.0797011344508
 20
-640.0948530361008
 30
0.0
 11
-929.6563282582971
 21
-632.6714801599471
 31
0.0
  0
LINE
  5
E2
330
B5
100
AcDbEntity
  8
0
 62
     0
100
AcDbLine
 10
-984.9304937484237
 20
-680.8745778382084
 30
0.0
 11
-967.4399407048424
 21
-663.384024794627
 31
0.0
  0
LINE
  5
E3
330
B5
100
AcDbEntity
  8
0
 62
     0
100
AcDbLine
 10
-944.2671001082608
 20
-640.2111841980453
 30
0.0
 11
-938.6192178453448
 21
-634.5633019351293
 31
0.0
  0
LINE
  5
E4
330
B5
100
AcDbEntity
  8
0
 62
     0
100
AcDbLine
 10
-970.8396602700624
 20
-659.7126765479815
 30
0.0
 11
-956.537423287091
 21
-645.4104395650102
 31
0.0
  0
LINE
  5
E5
330
B5
100
AcDbEntity
  8
0
 62
     0
100
AcDbLine
 10
-951.4544990820708
 20
-640.3275153599898
 30
0.0
 11
-947.7972404387795
 21
-636.6702567166986
 31
0.0
  0
LINE
  5
E6
330
B5
100
AcDbEntity
  8
0
 62
     0
100
AcDbLine
 10
-999.4129471315156
 20
-681.2148955975695
 30
0.0
 11
-963.7248222609009
 21
-645.5267707269546
 31
0.0
  0
LINE
  5
E7
330
B5
100
AcDbEntity
  8
0
 62
     0
100
AcDbLine
 10
-958.6418980558807
 20
-640.4438465219344
 30
0.0
 11
-957.209659008043
 21
-639.0116074740965
 31
0.0
  0
LINE
  5
E8
330
B5
100
AcDbEntity
  8
0
 62
     0
100
AcDbLine
 10
-1006.125945095772
 20
-680.8568257499614
 30
0.0
 11
-970.9122212347111
 21
-645.6431018888991
 31
0.0
  0
LINE
  5
E9
330
B5
100
AcDbEntity
  8
0
 62
     0
100
AcDbLine
 10
-1012.834738243195
 20
-680.4945510855187
 30
0.0
 11
-978.099620208521
 21
-645.7594330508437
 31
0.0
  0
LINE
  5
EA
330
B5
100
AcDbEntity
  8
0
 62
     0
100
AcDbLine
 10
-1019.539334018158
 20
-680.1280790486158
 30
0.0
 11
-987.1014065546162
 21
-647.6901515850735
 31
0.0
  0
LINE
  5
EB
330
B5
100
AcDbEntity
  8
0
 62
     0
100
AcDbLine
 10
-1026.125090411547
 20
-679.6427676301387
 30
0.0
 11
-997.7257560400671
 21
-651.2434332586588
 31
0.0
  0
LINE
  5
EC
330
B5
100
AcDbEntity
  8
0
 62
     0
100
AcDbLine
 10
-1030.78830764825
 20
-677.2349170549773
 30
0.0
 11
-1008.753974890961
 21
-655.2005842976872
 31
0.0
  0
LINE
  5
ED
330
B5
100
AcDbEntity
  8
0
 62
     0
100
AcDbLine
 10
-1033.549681094525
 20
-672.9252226893866
 30
0.0
 11
-1018.713899340375
 21
-658.0894409352362
 31
0.0
  0
LINE
  5
EE
330
B5
100
AcDbEntity
  8
0
 62
     0
100
AcDbLine
 10
-1032.851401067576
 20
-665.155874850572
 30
0.0
 11
-1028.738432300636
 21
-661.0429060836317
 31
0.0
  0
LINE
  5
EF
330
B5
100
AcDbEntity
  8
0
 62
     0
100
AcDbLine
 10
-819.6203173507935
 20
-678.1989611134839
 30
0.0
 11
-784.0398479156508
 21
-642.6184916783413
 31
0.0
  0
LINE
  5
F0
330
B5
100
AcDbEntity
  8
0
 62
     0
100
AcDbLine
 10
-778.9569237106307
 20
-637.5355674733212
 30
0.0
 11
-766.9182294318594
 21
-625.4968731945499
 31
0.0
  0
LINE
  5
F1
330
B5
100
AcDbEntity
  8
0
 62
     0
100
AcDbLine
 10
-812.4329183769834
 20
-678.0826299515394
 30
0.0
 11
-776.8524489418409
 21
-642.5021605163968
 31
0.0
  0
LINE
  5
F2
330
B5
100
AcDbEntity
  8
0
 62
     0
100
AcDbLine
 10
-771.7695247368205
 20
-637.4192363113766
 30
0.0
 11
-760.5923148500863
 21
-626.2420264246424
 31
0.0
  0
LINE
  5
F3
330
B5
100
AcDbEntity
  8
0
 62
     0
100
AcDbLine
 10
-805.2455194031734
 20
-677.9662987895949
 30
0.0
 11
-769.6650499680308
 21
-642.3858293544522
 31
0.0
  0
LINE
  5
F4
330
B5
100
AcDbEntity
  8
0
 62
     0
100
AcDbLine
 10
-764.5821257630106
 20
-637.302905149432
 30
0.0
 11
-754.334821637061
 21
-627.0556010234825
 31
0.0
  0
LINE
  5
F5
330
B5
100
AcDbEntity
  8
0
 62
     0
100
AcDbLine
 10
-798.0581204293635
 20
-677.8499676276503
 30
0.0
 11
-762.4776509942209
 21
-642.2694981925077
 31
0.0
  0
LINE
  5
F6
330
B5
100
AcDbEntity
  8
0
 62
     0
100
AcDbLine
 10
-757.3947267892005
 20
-637.1865739874875
 30
0.0
 11
-748.1438818485427
 21
-627.9357290468297
 31
0.0
  0
LINE
  5
F7
330
B5
100
AcDbEntity
  8
0
 62
     0
100
AcDbLine
 10
-790.8707214555533
 20
-677.7336364657059
 30
0.0
 11
-755.2902520204108
 21
-642.1531670305633
 31
0.0
  0
LINE
  5
F8
330
B5
100
AcDbEntity
  8
0
 62
     0
100
AcDbLine
 10
-750.2073278153906
 20
-637.0702428255429
 30
0.0
 11
-742.0177381821174
 21
-628.8806531922698
 31
0.0
  0
LINE
  5
F9
330
B5
100
AcDbEntity
  8
0
 62
     0
100
AcDbLine
 10
-783.6833224817434
 20
-677.6173053037613
 30
0.0
 11
-748.1028530466008
 21
-642.0368358686187
 31
0.0
  0
LINE
  5
FA
330
B5
100
AcDbEntity
  8
0
 62
     0
100
AcDbLine
 10
-743.0199288415806
 20
-636.9539116635984
 30
0.0
 11
-735.9547353518783
 21
-629.8887181738962
 31
0.0
  0
LINE
  5
FB
330
B5
100
AcDbEntity
  8
0
 62
     0
100
AcDbLine
 10
-776.4959235079333
 20
-677.5009741418167
 30
0.0
 11
-740.9154540727907
 21
-641.9205047066741
 31
0.0
  0
LINE
  5
FC
330
B5
100
AcDbEntity
  8
0
 62
     0
100
AcDbLine
 10
-735.8325298677706
 20
-636.8375805016539
 30
0.0
 11
-729.953312324581
 21
-630.9583629584643
 31
0.0
  0
LINE
  5
FD
330
B5
100
AcDbEntity
  8
0
 62
     0
100
AcDbLine
 10
-769.3085245341234
 20
-677.3846429798723
 30
0.0
 11
-733.7280550989808
 21
-641.8041735447296
 31
0.0
  0
LINE
  5
FE
330
B5
100
AcDbEntity
  8
0
 62
     0
100
AcDbLine
 10
-728.6451308939606
 20
-636.7212493397094
 30
0.0
 11
-724.011995314466
 21
-632.0881137602148
 31
0.0
  0
LINE
  5
FF
330
B5
100
AcDbEntity
  8
0
 62
     0
100
AcDbLine
 10
-753.497758174439
 20
-668.6449444320532
 30
0.0
 11
-726.5406561251708
 21
-641.6878423827851
 31
0.0
  0
LINE
  5
100
330
B5
100
AcDbEntity
  8
0
 62
     0
100
AcDbLine
 10
-721.4577319201505
 20
-636.6049181777648
 30
0.0
 11
-718.1293914481633
 21
-633.2765777057776
 31
0.0
  0
LINE
  5
101
330
B5
100
AcDbEntity
  8
0
 62
     0
100
AcDbLine
 10
-754.9337265865037
 20
-677.1519806559836
 30
0.0
 11
-750.098038609211
 21
-672.3162926786908
 31
0.0
  0
LINE
  5
102
330
B5
100
AcDbEntity
  8
0
 62
     0
100
AcDbLine
 10
-714.2703329463405
 20
-636.4885870158204
 30
0.0
 11
-712.3041830230994
 21
-634.5224370925792
 31
0.0
  0
LINE
  5
103
330
B5
100
AcDbEntity
  8
0
 62
     0
100
AcDbLine
 10
-747.7463276126938
 20
-677.035649494039
 30
0.0
 11
-712.1658581775506
 21
-641.4551800588959
 31
0.0
  0
LINE
  5
104
330
B5
100
AcDbEntity
  8
0
 62
     0
100
AcDbLine
 10
-707.0829339725305
 20
-636.3722558538758
 30
0.0
 11
-706.535122292984
 21
-635.8244441743293
 31
0.0
  0
LINE
  5
105
330
B5
100
AcDbEntity
  8
0
 62
     0
100
AcDbLine
 10
-740.5589286388837
 20
-676.9193183320944
 30
0.0
 11
-704.9784592037406
 21
-641.3388488969514
 31
0.0
  0
LINE
  5
106
330
B5
100
AcDbEntity
  8
0
 62
     0
100
AcDbLine
 10
-733.3715296650737
 20
-676.8029871701498
 30
0.0
 11
-697.7910602299306
 21
-641.2225177350068
 31
0.0
  0
LINE
  5
107
330
B5
100
AcDbEntity
  8
0
 62
     0
100
AcDbLine
 10
-726.1841306912637
 20
-676.6866560082054
 30
0.0
 11
-690.6036612561206
 21
-641.1061865730623
 31
0.0
  0
LINE
  5
108
330
B5
100
AcDbEntity
  8
0
 62
     0
100
AcDbLine
 10
-718.9967317174537
 20
-676.5703248462608
 30
0.0
 11
-683.9975955151989
 21
-641.571188644006
 31
0.0
  0
LINE
  5
109
330
B5
100
AcDbEntity
  8
0
 62
     0
100
AcDbLine
 10
-711.8093327436437
 20
-676.4539936843163
 30
0.0
 11
-678.4926956348804
 21
-643.1373565755531
 31
0.0
  0
LINE
  5
10A
330
B5
100
AcDbEntity
  8
0
 62
     0
100
AcDbLine
 10
-704.6219337698337
 20
-676.3376625223718
 30
0.0
 11
-673.0376873183391
 21
-644.7534160708771
 31
0.0
  0
LINE
  5
10B
330
B5
100
AcDbEntity
  8
0
 62
     0
100
AcDbLine
 10
-697.4345347960237
 20
-676.2213313604272
 30
0.0
 11
-667.1005673390184
 21
-645.8873639034219
 31
0.0
  0
LINE
  5
10C
330
B5
100
AcDbEntity
  8
0
 62
     0
100
AcDbLine
 10
-690.2471358222136
 20
-676.1050001984827
 30
0.0
 11
-661.1753187324584
 21
-647.0331831087275
 31
0.0
  0
LINE
  5
10D
330
B5
100
AcDbEntity
  8
0
 62
     0
100
AcDbLine
 10
-683.0597368484036
 20
-675.9886690365382
 30
0.0
 11
-655.2886727728076
 21
-648.2176049609421
 31
0.0
  0
LINE
  5
10E
330
B5
100
AcDbEntity
  8
0
 62
     0
100
AcDbLine
 10
-675.8723378745936
 20
-675.8723378745936
 30
0.0
 11
-649.4400550858249
 21
-649.4400550858248
 31
0.0
  0
LINE
  5
10F
330
B5
100
AcDbEntity
  8
0
 62
     0
100
AcDbLine
 10
-668.6849389007837
 20
-675.756006712649
 30
0.0
 11
-643.628911655036
 21
-650.6999794669014
 31
0.0
  0
LINE
  5
110
330
B5
100
AcDbEntity
  8
0
 62
     0
100
AcDbLine
 10
-661.4975399269736
 20
-675.6396755507046
 30
0.0
 11
-637.8547078925833
 21
-651.9968435163142
 31
0.0
  0
LINE
  5
111
330
B5
100
AcDbEntity
  8
0
 62
     0
100
AcDbLine
 10
-654.3101409531637
 20
-675.52334438876
 30
0.0
 11
-632.1169277655742
 21
-653.3301312011706
 31
0.0
  0
LINE
  5
112
330
B5
100
AcDbEntity
  8
0
 62
     0
100
AcDbLine
 10
-647.1227419793535
 20
-675.4070132268155
 30
0.0
 11
-626.4150729739465
 21
-654.6993442214084
 31
0.0
  0
LINE
  5
113
330
B5
100
AcDbEntity
  8
0
 62
     0
100
AcDbLine
 10
-639.9353430055436
 20
-675.290682064871
 30
0.0
 11
-620.7486621762029
 21
-656.1040012355302
 31
0.0
  0
LINE
  5
114
330
B5
100
AcDbEntity
  8
0
 62
     0
100
AcDbLine
 10
-632.7479440317335
 20
-675.1743509029264
 30
0.0
 11
-615.1172302596706
 21
-657.5436371308635
 31
0.0
  0
LINE
  5
115
330
B5
100
AcDbEntity
  8
0
 62
     0
100
AcDbLine
 10
-625.5605450579236
 20
-675.0580197409818
 30
0.0
 11
-609.5203276522152
 21
-659.0178023352734
 31
0.0
  0
LINE
  5
116
330
B5
100
AcDbEntity
  8
0
 62
     0
100
AcDbLine
 10
-618.3731460841136
 20
-674.9416885790374
 30
0.0
 11
-603.9575196725853
 21
-660.5260621675092
 31
0.0
  0
LINE
  5
117
330
B5
100
AcDbEntity
  8
0
 62
     0
100
AcDbLine
 10
-611.1857471103036
 20
-674.8253574170928
 30
0.0
 11
-598.4283859167943
 21
-662.0679962235836
 31
0.0
  0
LINE
  5
118
330
B5
100
AcDbEntity
  8
0
 62
     0
100
AcDbLine
 10
-603.9983481364934
 20
-674.7090262551482
 30
0.0
 11
-592.9325196781426
 21
-663.6431977967973
 31
0.0
  0
LINE
  5
119
330
B5
100
AcDbEntity
  8
0
 62
     0
100
AcDbLine
 10
-596.8109491626835
 20
-674.5926950932037
 30
0.0
 11
-587.727118379446
 21
-665.5088643099662
 31
0.0
  0
LINE
  5
11A
330
B5
100
AcDbEntity
  8
0
 62
     0
100
AcDbLine
 10
-589.4771428354638
 20
-674.3299565778495
 30
0.0
 11
-585.9109137131185
 21
-670.7637274555042
 31
0.0
  0
ENDBLK
  5
11C
330
B5
100
AcDbEntity
  8
0
100
AcDbBlockEnd
  0
BLOCK
  5
143
330
11D
100
AcDbEntity
  8
0
100
AcDbBlockBegin
  2
*X4
 70
     1
 10
0.0
 20
0.0
 30
0.0
  3
*X4
  1

  0
LINE
  5
11E
330
11D
100
AcDbEntity
  8
0
 62
     0
100
AcDbLine
 10
-841.101421819714
 20
-537.0455059094986
 30
0.0
 11
-809.3646060578775
 21
-505.308690147662
 31
0.0
  0
LINE
  5
11F
330
11D
100
AcDbEntity
  8
0
 62
     0
100
AcDbLine
 10
-848.1724896315794
 20
-537.0455059094986
 30
0.0
 11
-817.561655841424
 21
-506.4346721193431
 31
0.0
  0
LINE
  5
120
330
11D
100
AcDbEntity
  8
0
 62
     0
100
AcDbLine
 10
-855.2435574434449
 20
-537.0455059094986
 30
0.0
 11
-825.7587056249706
 21
-507.5606540910242
 31
0.0
  0
LINE
  5
121
330
11D
100
AcDbEntity
  8
0
 62
     0
100
AcDbLine
 10
-862.3146252553105
 20
-537.0455059094986
 30
0.0
 11
-833.9557554085171
 21
-508.6866360627053
 31
0.0
  0
LINE
  5
122
330
11D
100
AcDbEntity
  8
0
 62
     0
100
AcDbLine
 10
-869.3856930671758
 20
-537.0455059094986
 30
0.0
 11
-842.1528051920637
 21
-509.8126180343864
 31
0.0
  0
LINE
  5
123
330
11D
100
AcDbEntity
  8
0
 62
     0
100
AcDbLine
 10
-876.4567608790414
 20
-537.0455059094986
 30
0.0
 11
-850.3498549756102
 21
-510.9386000060674
 31
0.0
  0
LINE
  5
124
330
11D
100
AcDbEntity
  8
0
 62
     0
100
AcDbLine
 10
-883.5278286909069
 20
-537.0455059094986
 30
0.0
 11
-858.5469047591567
 21
-512.0645819777485
 31
0.0
  0
LINE
  5
125
330
11D
100
AcDbEntity
  8
0
 62
     0
100
AcDbLine
 10
-890.5988965027722
 20
-537.0455059094986
 30
0.0
 11
-866.7439545427033
 21
-513.1905639494296
 31
0.0
  0
LINE
  5
126
330
11D
100
AcDbEntity
  8
0
 62
     0
100
AcDbLine
 10
-897.6699643146378
 20
-537.0455059094986
 30
0.0
 11
-874.9410043262498
 21
-514.3165459211107
 31
0.0
  0
LINE
  5
127
330
11D
100
AcDbEntity
  8
0
 62
     0
100
AcDbLine
 10
-904.7410321265031
 20
-537.0455059094986
 30
0.0
 11
-883.1380541097965
 21
-515.4425278927917
 31
0.0
  0
LINE
  5
128
330
11D
100
AcDbEntity
  8
0
 62
     0
100
AcDbLine
 10
-911.8120999383688
 20
-537.0455059094986
 30
0.0
 11
-891.3351038933429
 21
-516.5685098644728
 31
0.0
  0
LINE
  5
129
330
11D
100
AcDbEntity
  8
0
 62
     0
100
AcDbLine
 10
-918.8831677502342
 20
-537.0455059094986
 30
0.0
 11
-899.5321536768896
 21
-517.6944918361539
 31
0.0
  0
LINE
  5
12A
330
11D
100
AcDbEntity
  8
0
 62
     0
100
AcDbLine
 10
-925.9542355620997
 20
-537.0455059094986
 30
0.0
 11
-907.7292034604361
 21
-518.820473807835
 31
0.0
  0
LINE
  5
12B
330
11D
100
AcDbEntity
  8
0
 62
     0
100
AcDbLine
 10
-933.0253033739651
 20
-537.0455059094986
 30
0.0
 11
-915.9262532439827
 21
-519.9464557795161
 31
0.0
  0
LINE
  5
12C
330
11D
100
AcDbEntity
  8
0
 62
     0
100
AcDbLine
 10
-940.0963711858306
 20
-537.0455059094986
 30
0.0
 11
-924.1233030275292
 21
-521.0724377511971
 31
0.0
  0
LINE
  5
12D
330
11D
100
AcDbEntity
  8
0
 62
     0
100
AcDbLine
 10
-947.1674389976961
 20
-537.0455059094986
 30
0.0
 11
-932.3203528110758
 21
-522.1984197228782
 31
0.0
  0
LINE
  5
12E
330
11D
100
AcDbEntity
  8
0
 62
     0
100
AcDbLine
 10
-954.2385068095615
 20
-537.0455059094986
 30
0.0
 11
-940.5174025946223
 21
-523.3244016945593
 31
0.0
  0
LINE
  5
12F
330
11D
100
AcDbEntity
  8
0
 62
     0
100
AcDbLine
 10
-834.0303540078485
 20
-537.0455059094986
 30
0.0
 11
-801.1675562743308
 21
-504.182708175981
 31
0.0
  0
LINE
  5
130
330
11D
100
AcDbEntity
  8
0
 62
     0
100
AcDbLine
 10
-826.959286195983
 20
-537.0455059094986
 30
0.0
 11
-792.9705064907843
 21
-503.0567262042999
 31
0.0
  0
LINE
  5
131
330
11D
100
AcDbEntity
  8
0
 62
     0
100
AcDbLine
 10
-819.8882183841176
 20
-537.0455059094986
 30
0.0
 11
-784.7734567072377
 21
-501.9307442326187
 31
0.0
  0
LINE
  5
132
330
11D
100
AcDbEntity
  8
0
 62
     0
100
AcDbLine
 10
-812.8171505722521
 20
-537.0455059094986
 30
0.0
 11
-776.5764069236912
 21
-500.8047622609376
 31
0.0
  0
LINE
  5
133
330
11D
100
AcDbEntity
  8
0
 62
     0
100
AcDbLine
 10
-805.7460827603867
 20
-537.0455059094986
 30
0.0
 11
-768.3793571401446
 21
-499.6787802892566
 31
0.0
  0
LINE
  5
134
330
11D
100
AcDbEntity
  8
0
 62
     0
100
AcDbLine
 10
-798.6750149485211
 20
-537.0455059094986
 30
0.0
 11
-760.1823073565981
 21
-498.5527983175755
 31
0.0
  0
LINE
  5
135
330
11D
100
AcDbEntity
  8
0
 62
     0
100
AcDbLine
 10
-791.6039471366557
 20
-537.0455059094986
 30
0.0
 11
-754.4298868790681
 21
-499.8714456519109
 31
0.0
  0
LINE
  5
136
330
11D
100
AcDbEntity
  8
0
 62
     0
100
AcDbLine
 10
-784.5328793247902
 20
-537.0455059094986
 30
0.0
 11
-750.4284535857213
 21
-502.9410801704297
 31
0.0
  0
LINE
  5
137
330
11D
100
AcDbEntity
  8
0
 62
     0
100
AcDbLine
 10
-777.4618115129247
 20
-537.0455059094986
 30
0.0
 11
-746.4270202923747
 21
-506.0107146889484
 31
0.0
  0
LINE
  5
138
330
11D
100
AcDbEntity
  8
0
 62
     0
100
AcDbLine
 10
-770.3907437010593
 20
-537.0455059094986
 30
0.0
 11
-742.4255869990278
 21
-509.0803492074671
 31
0.0
  0
LINE
  5
139
330
11D
100
AcDbEntity
  8
0
 62
     0
100
AcDbLine
 10
-763.3196758891938
 20
-537.0455059094986
 30
0.0
 11
-738.424153705681
 21
-512.1499837259859
 31
0.0
  0
LINE
  5
13A
330
11D
100
AcDbEntity
  8
0
 62
     0
100
AcDbLine
 10
-756.2486080773282
 20
-537.0455059094986
 30
0.0
 11
-734.4227204123343
 21
-515.2196182445046
 31
0.0
  0
LINE
  5
13B
330
11D
100
AcDbEntity
  8
0
 62
     0
100
AcDbLine
 10
-749.186914333917
 20
-537.0548799779527
 30
0.0
 11
-730.4212871189876
 21
-518.2892527630233
 31
0.0
  0
LINE
  5
13C
330
11D
100
AcDbEntity
  8
0
 62
     0
100
AcDbLine
 10
-742.4366468033299
 20
-537.3756802592311
 30
0.0
 11
-726.4198538256408
 21
-521.3588872815421
 31
0.0
  0
LINE
  5
13D
330
11D
100
AcDbEntity
  8
0
 62
     0
100
AcDbLine
 10
-736.0876270330102
 20
-538.0977283007768
 30
0.0
 11
-722.4184205322941
 21
-524.4285218000608
 31
0.0
  0
LINE
  5
13E
330
11D
100
AcDbEntity
  8
0
 62
     0
100
AcDbLine
 10
-729.8541070098892
 20
-538.9352760895213
 30
0.0
 11
-718.4169872389474
 21
-527.4981563185796
 31
0.0
  0
LINE
  5
13F
330
11D
100
AcDbEntity
  8
0
 62
     0
100
AcDbLine
 10
-723.2538011138633
 20
-539.4060380053609
 30
0.0
 11
-714.4155539456006
 21
-530.5677908370983
 31
0.0
  0
LINE
  5
140
330
11D
100
AcDbEntity
  8
0
 62
     0
100
AcDbLine
 10
-716.6959608901064
 20
-539.9192655934696
 30
0.0
 11
-710.4141206522539
 21
-533.637425355617
 31
0.0
  0
LINE
  5
141
330
11D
100
AcDbEntity
  8
0
 62
     0
100
AcDbLine
 10
-710.1798437498796
 20
-540.4742162651082
 30
0.0
 11
-706.4126873589072
 21
-536.7070598741357
 31
0.0
  0
LINE
  5
142
330
11D
100
AcDbEntity
  8
0
 62
     0
100
AcDbLine
 10
-703.7047342184666
 20
-541.0701745455607
 30
0.0
 11
-702.4112540655604
 21
-539.7766943926545
 31
0.0
  0
ENDBLK
  5
144
330
11D
100
AcDbEntity
  8
0
100
AcDbBlockEnd
  0
BLOCK
  5
194
330
145
100
AcDbEntity
  8
0
100
AcDbBlockBegin
  2
*X5
 70
     1
 10
0.0
 20
0.0
 30
0.0
  3
*X5
  1

  0
LINE
  5
146
330
145
100
AcDbEntity
  8
0
 62
     0
100
AcDbLine
 10
-191.855606426626
 20
-708.0435566928056
 30
0.0
 11
-171.5239096065442
 21
-687.7118598727239
 31
0.0
  0
LINE
  5
147
330
145
100
AcDbEntity
  8
0
 62
     0
100
AcDbLine
 10
-199.043005400436
 20
-708.1598878547501
 30
0.0
 11
-178.7113085803542
 21
-687.8281910346685
 31
0.0
  0
LINE
  5
148
330
145
100
AcDbEntity
  8
0
 62
     0
100
AcDbLine
 10
-206.230404374246
 20
-708.2762190166947
 30
0.0
 11
-185.8987075541643
 21
-687.9445221966131
 31
0.0
  0
LINE
  5
149
330
145
100
AcDbEntity
  8
0
 62
     0
100
AcDbLine
 10
-213.2287535418118
 20
-708.2035003723951
 30
0.0
 11
-193.0861065279743
 21
-688.0608533585575
 31
0.0
  0
LINE
  5
14A
330
145
100
AcDbEntity
  8
0
 62
     0
100
AcDbLine
 10
-216.7797977882683
 20
-704.683476806986
 30
0.0
 11
-200.2735055017843
 21
-688.1771845205021
 31
0.0
  0
LINE
  5
14B
330
145
100
AcDbEntity
  8
0
 62
     0
100
AcDbLine
 10
-216.955884947655
 20
-697.7884961545073
 30
0.0
 11
-207.4609044755943
 21
-688.2935156824466
 31
0.0
  0
LINE
  5
14C
330
145
100
AcDbEntity
  8
0
 62
     0
100
AcDbLine
 10
-315.9412279831802
 20
-775.5606357544361
 30
0.0
 11
-305.2779827811374
 21
-764.8973905523932
 31
0.0
  0
LINE
  5
14D
330
145
100
AcDbEntity
  8
0
 62
     0
100
AcDbLine
 10
-325.2066270158
 20
-777.7549669751904
 30
0.0
 11
-308.588124770117
 21
-761.1364647295074
 31
0.0
  0
LINE
  5
14E
330
145
100
AcDbEntity
  8
0
 62
     0
100
AcDbLine
 10
-333.0561442810483
 20
-778.5334164285732
 30
0.0
 11
-313.0469205588376
 21
-758.5241927063625
 31
0.0
  0
LINE
  5
14F
330
145
100
AcDbEntity
  8
0
 62
     0
100
AcDbLine
 10
-340.2231218692897
 20
-778.6293262049491
 30
0.0
 11
-318.2708972941515
 21
-756.6771016298109
 31
0.0
  0
LINE
  5
150
330
145
100
AcDbEntity
  8
0
 62
     0
100
AcDbLine
 10
-346.8616216977765
 20
-778.1967582215704
 30
0.0
 11
-324.0522004323134
 21
-755.3873369561074
 31
0.0
  0
LINE
  5
151
330
145
100
AcDbEntity
  8
0
 62
     0
100
AcDbLine
 10
-353.055089566331
 20
-777.3191582782596
 30
0.0
 11
-330.3571120147967
 21
-754.6211807267252
 31
0.0
  0
LINE
  5
152
330
145
100
AcDbEntity
  8
0
 62
     0
100
AcDbLine
 10
-358.6954943561209
 20
-775.888495256184
 30
0.0
 11
-337.1145524100579
 21
-754.3075533101209
 31
0.0
  0
LINE
  5
153
330
145
100
AcDbEntity
  8
0
 62
     0
100
AcDbLine
 10
-363.7551540184634
 20
-773.8770871066609
 30
0.0
 11
-344.43140449839
 21
-754.5533375865875
 31
0.0
  0
LINE
  5
154
330
145
100
AcDbEntity
  8
0
 62
     0
100
AcDbLine
 10
-368.0226688603358
 20
-771.0735341366679
 30
0.0
 11
-352.491886256355
 21
-755.5427515326871
 31
0.0
  0
LINE
  5
155
330
145
100
AcDbEntity
  8
0
 62
     0
100
AcDbLine
 10
-370.6054797872125
 20
-766.5852772516791
 30
0.0
 11
-362.5084119579929
 21
-758.4882094224594
 31
0.0
  0
LINE
  5
156
330
145
100
AcDbEntity
  8
0
 62
     0
100
AcDbLine
 10
-483.6250931907476
 20
-773.538873477232
 30
0.0
 11
-477.4865390394825
 21
-767.4003193259671
 31
0.0
  0
LINE
  5
157
330
145
100
AcDbEntity
  8
0
 62
     0
100
AcDbLine
 10
-494.357498923782
 20
-777.200211398401
 30
0.0
 11
-479.4786197026989
 21
-762.3213321773179
 31
0.0
  0
LINE
  5
158
330
145
100
AcDbEntity
  8
0
 62
     0
100
AcDbLine
 10
-502.5591460731418
 20
-778.3307907358954
 30
0.0
 11
-483.6452354744623
 21
-759.4168801372157
 31
0.0
  0
LINE
  5
159
330
145
100
AcDbEntity
  8
0
 62
     0
100
AcDbLine
 10
-509.96128820056
 20
-778.6618650514481
 30
0.0
 11
-488.6078376745962
 21
-757.3084145254843
 31
0.0
  0
LINE
  5
15A
330
145
100
AcDbEntity
  8
0
 62
     0
100
AcDbLine
 10
-516.7856957698667
 20
-778.4152048088892
 30
0.0
 11
-494.1749882609598
 21
-755.8044972999824
 31
0.0
  0
LINE
  5
15B
330
145
100
AcDbEntity
  8
0
 62
     0
100
AcDbLine
 10
-523.1463891512686
 20
-777.7048303784257
 30
0.0
 11
-500.3031848445596
 21
-754.8616260717167
 31
0.0
  0
LINE
  5
15C
330
145
100
AcDbEntity
  8
0
 62
     0
100
AcDbLine
 10
-529.0064878483954
 20
-776.493861263687
 30
0.0
 11
-506.8797145703481
 21
-754.3670879856397
 31
0.0
  0
LINE
  5
15D
330
145
100
AcDbEntity
  8
0
 62
     0
100
AcDbLine
 10
-534.3108775204123
 20
-774.7271831238385
 30
0.0
 11
-513.969391046568
 21
-754.3856966499942
 31
0.0
  0
LINE
  5
15E
330
145
100
AcDbEntity
  8
0
 62
     0
100
AcDbLine
 10
-538.8764069267757
 20
-772.2216447183365
 30
0.0
 11
-521.7162547629144
 21
-755.061492554475
 31
0.0
  0
LINE
  5
15F
330
145
100
AcDbEntity
  8
0
 62
     0
100
AcDbLine
 10
-542.4645885347381
 20
-768.7387585144334
 30
0.0
 11
-530.6829697712071
 21
-756.9571397509022
 31
0.0
  0
LINE
  5
160
330
145
100
AcDbEntity
  8
0
 62
     0
100
AcDbLine
 10
-184.668207452816
 20
-707.9272255308612
 30
0.0
 11
-164.3365106327342
 21
-687.5955287107793
 31
0.0
  0
LINE
  5
161
330
145
100
AcDbEntity
  8
0
 62
     0
100
AcDbLine
 10
-177.480808479006
 20
-707.8108943689166
 30
0.0
 11
-157.1491116589242
 21
-687.4791975488347
 31
0.0
  0
LINE
  5
162
330
145
100
AcDbEntity
  8
0
 62
     0
100
AcDbLine
 10
-170.293409505196
 20
-707.694563206972
 30
0.0
 11
-149.9617126851141
 21
-687.3628663868903
 31
0.0
  0
LINE
  5
163
330
145
100
AcDbEntity
  8
0
 62
     0
100
AcDbLine
 10
-153.6774836381441
 20
-698.1497051517857
 30
0.0
 11
-142.7743137113042
 21
-687.2465352249458
 31
0.0
  0
LINE
  5
164
330
145
100
AcDbEntity
  8
0
 62
     0
100
AcDbLine
 10
-155.9186115575759
 20
-707.4619008830829
 30
0.0
 11
-150.2777640729327
 21
-701.8210533984397
 31
0.0
  0
LINE
  5
165
330
145
100
AcDbEntity
  8
0
 62
     0
100
AcDbLine
 10
-148.731212583766
 20
-707.3455697211384
 30
0.0
 11
-128.3995157636843
 21
-687.0138729010569
 31
0.0
  0
LINE
  5
166
330
145
100
AcDbEntity
  8
0
 62
     0
100
AcDbLine
 10
-199.0492896427815
 20
-764.7347145920194
 30
0.0
 11
-188.2392294059959
 21
-753.9246543552338
 31
0.0
  0
LINE
  5
167
330
145
100
AcDbEntity
  8
0
 62
     0
100
AcDbLine
 10
-141.5438136099559
 20
-707.2292385591939
 30
0.0
 11
-121.2121167898743
 21
-686.8975417391124
 31
0.0
  0
LINE
  5
168
330
145
100
AcDbEntity
  8
0
 62
     0
100
AcDbLine
 10
-195.7010371260889
 20
-768.4575298871924
 30
0.0
 11
-179.0137075647559
 21
-751.7702003258594
 31
0.0
  0
LINE
  5
169
330
145
100
AcDbEntity
  8
0
 62
     0
100
AcDbLine
 10
-134.3564146361459
 20
-707.1129073972493
 30
0.0
 11
-114.0247178160643
 21
-686.7812105771678
 31
0.0
  0
LINE
  5
16A
330
145
100
AcDbEntity
  8
0
 62
     0
100
AcDbLine
 10
-191.2291260731912
 20
-771.0566866461602
 30
0.0
 11
-171.1771759103082
 21
-751.0047364832773
 31
0.0
  0
LINE
  5
16B
330
145
100
AcDbEntity
  8
0
 62
     0
100
AcDbLine
 10
-127.1690156623359
 20
-706.9965762353049
 30
0.0
 11
-106.8373188422543
 21
-686.6648794152232
 31
0.0
  0
LINE
  5
16C
330
145
100
AcDbEntity
  8
0
 62
     0
100
AcDbLine
 10
-185.9948326712592
 20
-772.8934610560936
 30
0.0
 11
-164.0199335658187
 21
-750.9185619506531
 31
0.0
  0
LINE
  5
16D
330
145
100
AcDbEntity
  8
0
 62
     0
100
AcDbLine
 10
-119.9816166885259
 20
-706.8802450733604
 30
0.0
 11
-99.64991986844433
 21
-686.5485482532788
 31
0.0
  0
LINE
  5
16E
330
145
100
AcDbEntity
  8
0
 62
     0
100
AcDbLine
 10
-180.2037846473963
 20
-774.1734808440961
 30
0.0
 11
-157.3892149514599
 21
-751.3589111481599
 31
0.0
  0
LINE
  5
16F
330
145
100
AcDbEntity
  8
0
 62
     0
100
AcDbLine
 10
-112.7942177147159
 20
-706.7639139114158
 30
0.0
 11
-92.4625208946343
 21
-686.4322170913342
 31
0.0
  0
LINE
  5
170
330
145
100
AcDbEntity
  8
0
 62
     0
100
AcDbLine
 10
-173.8918343014906
 20
-774.932598310056
 30
0.0
 11
-151.2036670044887
 21
-752.2444310130541
 31
0.0
  0
LINE
  5
171
330
145
100
AcDbEntity
  8
0
 62
     0
100
AcDbLine
 10
-105.6068187409059
 20
-706.6475827494713
 30
0.0
 11
-85.27512192082431
 21
-686.3158859293896
 31
0.0
  0
LINE
  5
172
330
145
100
AcDbEntity
  8
0
 62
     0
100
AcDbLine
 10
-167.1261835954011
 20
-775.238015415832
 30
0.0
 11
-145.5724650092976
 21
-753.6842968297285
 31
0.0
  0
LINE
  5
173
330
145
100
AcDbEntity
  8
0
 62
     0
100
AcDbLine
 10
-98.41941976709597
 20
-706.5312515875267
 30
0.0
 11
-78.0877229470143
 21
-686.1995547674451
 31
0.0
  0
LINE
  5
174
330
145
100
AcDbEntity
  8
0
 62
     0
100
AcDbLine
 10
-159.7989105626815
 20
-774.9818101949779
 30
0.0
 11
-140.5245503692071
 21
-755.7074500015034
 31
0.0
  0
LINE
  5
175
330
145
100
AcDbEntity
  8
0
 62
     0
100
AcDbLine
 10
-91.23202079328596
 20
-706.4149204255823
 30
0.0
 11
-70.90032397320428
 21
-686.0832236055006
 31
0.0
  0
LINE
  5
176
330
145
100
AcDbEntity
  8
0
 62
     0
100
AcDbLine
 10
-151.7221012526414
 20
-773.9760686968032
 30
0.0
 11
-136.2696507598023
 21
-758.5236182039641
 31
0.0
  0
LINE
  5
177
330
145
100
AcDbEntity
  8
0
 62
     0
100
AcDbLine
 10
-84.04462181947595
 20
-706.2985892636377
 30
0.0
 11
-63.71292499939428
 21
-685.9668924435561
 31
0.0
  0
LINE
  5
178
330
145
100
AcDbEntity
  8
0
 62
     0
100
AcDbLine
 10
-141.6346286398797
 20
-770.959663895907
 30
0.0
 11
-133.7498315254662
 21
-763.0748667814934
 31
0.0
  0
LINE
  5
179
330
145
100
AcDbEntity
  8
0
 62
     0
100
AcDbLine
 10
-76.85722284566596
 20
-706.1822581016931
 30
0.0
 11
-56.52552602558427
 21
-685.8505612816116
 31
0.0
  0
LINE
  5
17A
330
145
100
AcDbEntity
  8
0
 62
     0
100
AcDbLine
 10
-69.66982387185595
 20
-706.0659269397486
 30
0.0
 11
-49.33812705177426
 21
-685.734230119667
 31
0.0
  0
LINE
  5
17B
330
145
100
AcDbEntity
  8
0
 62
     0
100
AcDbLine
 10
-62.48242489804594
 20
-705.949595777804
 30
0.0
 11
-42.15072807796424
 21
-685.6178989577225
 31
0.0
  0
LINE
  5
17C
330
145
100
AcDbEntity
  8
0
 62
     0
100
AcDbLine
 10
-55.29502592423594
 20
-705.8332646158596
 30
0.0
 11
-34.96332910415424
 21
-685.501567795778
 31
0.0
  0
LINE
  5
17D
330
145
100
AcDbEntity
  8
0
 62
     0
100
AcDbLine
 10
-48.10762695042594
 20
-705.7169334539151
 30
0.0
 11
-27.77593013034422
 21
-685.3852366338334
 31
0.0
  0
LINE
  5
17E
330
145
100
AcDbEntity
  8
0
 62
     0
100
AcDbLine
 10
-40.92022797661593
 20
-705.6006022919705
 30
0.0
 11
-20.58853115653421
 21
-685.2689054718889
 31
0.0
  0
LINE
  5
17F
330
145
100
AcDbEntity
  8
0
 62
     0
100
AcDbLine
 10
-33.73282900280592
 20
-705.484271130026
 30
0.0
 11
-13.40113218272421
 21
-685.1525743099443
 31
0.0
  0
LINE
  5
180
330
145
100
AcDbEntity
  8
0
 62
     0
100
AcDbLine
 10
-26.54543002899592
 20
-705.3679399680815
 30
0.0
 11
-6.213733208914201
 21
-685.0362431479998
 31
0.0
  0
LINE
  5
181
330
145
100
AcDbEntity
  8
0
 62
     0
100
AcDbLine
 10
-19.358031055186
 20
-705.2516088061369
 30
0.0
 11
0.9736657648957265
 21
-684.9199119860553
 31
0.0
  0
LINE
  5
182
330
145
100
AcDbEntity
  8
0
 62
     0
100
AcDbLine
 10
-12.170632081376
 20
-705.1352776441924
 30
0.0
 11
8.161064738705736
 21
-684.8035808241108
 31
0.0
  0
LINE
  5
183
330
145
100
AcDbEntity
  8
0
 62
     0
100
AcDbLine
 10
-4.983233107565998
 20
-705.0189464822478
 30
0.0
 11
15.34846371251574
 21
-684.6872496621662
 31
0.0
  0
LINE
  5
184
330
145
100
AcDbEntity
  8
0
 62
     0
100
AcDbLine
 10
2.204165866244005
 20
-704.9026153203034
 30
0.0
 11
22.53586268632575
 21
-684.5709185002217
 31
0.0
  0
LINE
  5
185
330
145
100
AcDbEntity
  8
0
 62
     0
100
AcDbLine
 10
9.391564840054009
 20
-704.7862841583588
 30
0.0
 11
29.72326166013576
 21
-684.4545873382771
 31
0.0
  0
LINE
  5
186
330
145
100
AcDbEntity
  8
0
 62
     0
100
AcDbLine
 10
23.76636278767411
 20
-704.5536218344697
 30
0.0
 11
44.09805960775574
 21
-684.2219250143881
 31
0.0
  0
LINE
  5
187
330
145
100
AcDbEntity
  8
0
 62
     0
100
AcDbLine
 10
30.95376176148412
 20
-704.4372906725251
 30
0.0
 11
51.28545858156574
 21
-684.1055938524435
 31
0.0
  0
LINE
  5
188
330
145
100
AcDbEntity
  8
0
 62
     0
100
AcDbLine
 10
38.14116073529413
 20
-704.3209595105807
 30
0.0
 11
58.47285755537575
 21
-683.989262690499
 31
0.0
  0
LINE
  5
189
330
145
100
AcDbEntity
  8
0
 62
     0
100
AcDbLine
 10
45.32855970910413
 20
-704.2046283486361
 30
0.0
 11
65.66025652918574
 21
-683.8729315285545
 31
0.0
  0
LINE
  5
18A
330
145
100
AcDbEntity
  8
0
 62
     0
100
AcDbLine
 10
52.51595868291414
 20
-704.0882971866915
 30
0.0
 11
72.84765550299574
 21
-683.7566003666101
 31
0.0
  0
LINE
  5
18B
330
145
100
AcDbEntity
  8
0
 62
     0
100
AcDbLine
 10
59.70335765672416
 20
-703.971966024747
 30
0.0
 11
80.03505447680575
 21
-683.6402692046655
 31
0.0
  0
LINE
  5
18C
330
145
100
AcDbEntity
  8
0
 62
     0
100
AcDbLine
 10
66.89075663053417
 20
-703.8556348628024
 30
0.0
 11
87.22245345061576
 21
-683.5239380427209
 31
0.0
  0
LINE
  5
18D
330
145
100
AcDbEntity
  8
0
 62
     0
100
AcDbLine
 10
74.07815560434418
 20
-703.7393037008579
 30
0.0
 11
94.40985242442577
 21
-683.4076068807765
 31
0.0
  0
LINE
  5
18E
330
145
100
AcDbEntity
  8
0
 62
     0
100
AcDbLine
 10
81.26555457815419
 20
-703.6229725389135
 30
0.0
 11
101.5972513982357
 21
-683.2912757188319
 31
0.0
  0
LINE
  5
18F
330
145
100
AcDbEntity
  8
0
 62
     0
100
AcDbLine
 10
88.45295355196419
 20
-703.5066413769689
 30
0.0
 11
108.7846503720457
 21
-683.1749445568874
 31
0.0
  0
LINE
  5
190
330
145
100
AcDbEntity
  8
0
 62
     0
100
AcDbLine
 10
95.6403525257742
 20
-703.3903102150243
 30
0.0
 11
115.9262500514164
 21
-683.1044126893822
 31
0.0
  0
LINE
  5
191
330
145
100
AcDbEntity
  8
0
 62
     0
100
AcDbLine
 10
102.8277514995842
 20
-703.2739790530798
 30
0.0
 11
119.9531094268254
 21
-686.1486211258386
 31
0.0
  0
LINE
  5
192
330
145
100
AcDbEntity
  8
0
 62
     0
100
AcDbLine
 10
110.0151504733942
 20
-703.1576478911353
 30
0.0
 11
120.3368301983896
 21
-692.8359681661398
 31
0.0
  0
LINE
  5
193
330
145
100
AcDbEntity
  8
0
 62
     0
100
AcDbLine
 10
117.8512193542319
 20
-702.3926468221631
 30
0.0
 11
119.6586176958237
 21
-700.5852484805712
 31
0.0
  0
ENDBLK
  5
195
330
145
100
AcDbEntity
  8
0
100
AcDbBlockEnd
  0
ENDSEC
  0
SECTION
  2
ENTITIES
  0
INSERT
  5
274
330
1F
100
AcDbEntity
  8
Ceco.net 41
100
AcDbBlockReference
  2
*X5
 10
1.463922476113513
 20
8.432776414324147
 30
0.0
 41
0.0099999999999998
 42
0.01
 43
0.01
1001
ACAD
1000
HATCH
1002
{
1070
    16
1000
_U
1040
5.0
1040
0.7853981633974483
1070
     0
1002
}
  0
INSERT
  5
275
330
1F
100
AcDbEntity
  8
Ceco.net 41
100
AcDbBlockReference
  2
*X4
 10
1.463922476113513
 20
8.432776414324147
 30
0.0
 41
0.0099999999999998
 42
0.01
 43
0.01
1001
ACAD
1000
HATCH
1002
{
1070
    16
1000
_U
1040
5.0
1040
0.7853981633974483
1070
     0
1002
}
  0
INSERT
  5
276
330
1F
100
AcDbEntity
  8
Ceco.net 41
100
AcDbBlockReference
  2
*X3
 10
1.463922476113513
 20
8.432776414324147
 30
0.0
 41
0.0099999999999998
 42
0.01
 43
0.01
1001
ACAD
1000
HATCH
1002
{
1070
    16
1000
_U
1040
5.0
1040
0.7853981633974483
1070
     0
1002
}
  0
INSERT
  5
277
330
1F
100
AcDbEntity
  8
Ceco.net 41
100
AcDbBlockReference
  2
*X2
 10
1.463922476113513
 20
8.432776414324147
 30
0.0
 41
0.0099999999999998
 42
0.01
 43
0.01
1001
ACAD
1000
HATCH
1002
{
1070
    16
1000
_U
1040
5.0
1040
0.7853981633974483
1070
     0
1002
}
  0
INSERT
  5
278
330
1F
100
AcDbEntity
  8
Ceco.net 41
100
AcDbBlockReference
  2
*X1
 10
1.463922476113513
 20
8.432776414324147
 30
0.0
 41
0.0099999999999998
 42
0.01
 43
0.01
1001
ACAD
1000
HATCH
1002
{
1070
    16
1000
_U
1040
5.0
1040
0.7853981633974483
1070
     0
1002
}
  0
LINE
  5
279
330
1F
100
AcDbEntity
  8
Ceco.net 41
100
AcDbLine
 10
-7.09368519356831
 20
0.626486595841393
 30
0.0
 11
-7.09368519356831
 21
0.5764865958413923
 31
0.0
  0
LINE
  5
27A
330
1F
100
AcDbEntity
  8
Ceco.net 41
100
AcDbLine
 10
-7.72467816803179
 20
0.3854626392121467
 30
0.0
 11
-7.72467816803179
 21
0.3354626392121478
 31
0.0
  0
LINE
  5
27B
330
1F
100
AcDbEntity
  8
Ceco.net 41
100
AcDbLine
 10
-9.78468513307656
 20
0.3854626392121467
 30
0.0
 11
-9.78468513307656
 21
0.3354626392121478
 31
0.0
  0
LINE
  5
27C
330
1F
100
AcDbEntity
  8
Ceco.net 41
100
AcDbLine
 10
-9.153692158613081
 20
0.626486595841393
 30
0.0
 11
-9.153692158613081
 21
0.5764865958413923
 31
0.0
  0
LINE
  5
27D
330
1F
100
AcDbEntity
  8
Ceco.net 41
100
AcDbLine
 10
-9.78468513307656
 20
0.3854626392121467
 30
0.0
 11
-7.72467816803179
 21
0.3854626392121467
 31
0.0
  0
LINE
  5
27E
330
1F
100
AcDbEntity
  8
Ceco.net 41
100
AcDbLine
 10
-9.153692158613081
 20
0.626486595841393
 30
0.0
 11
-7.09368519356831
 21
0.626486595841393
 31
0.0
  0
LINE
  5
27F
330
1F
100
AcDbEntity
  8
Ceco.net 41
100
AcDbLine
 10
-9.78468513307656
 20
0.3354626392121478
 30
0.0
 11
-7.72467816803179
 21
0.3354626392121478
 31
0.0
  0
LINE
  5
280
330
1F
100
AcDbEntity
  8
Ceco.net 41
100
AcDbLine
 10
-9.153692158613081
 20
0.5764865958413923
 30
0.0
 11
-7.09368519356831
 21
0.5764865958413923
 31
0.0
  0
LINE
  5
281
330
1F
100
AcDbEntity
  8
Ceco.net 41
100
AcDbLine
 10
-11.08256241649595
 20
0.9802970261389596
 30
0.0
 11
-11.08175325084488
 21
0.9303035740582208
 31
0.0
  0
ARC
  5
282
330
1F
100
AcDbEntity
  8
Ceco.net 41
100
AcDbCircle
 10
-9.974033466617898
 20
-7.395185164517297
 30
0.0
 40
11.0082060544056
100
AcDbArc
 50
76.00123539533322
 51
91.78163941405484
  0
ARC
  5
283
330
1F
100
AcDbEntity
  8
Ceco.net 41
100
AcDbCircle
 10
-9.974033466617898
 20
-7.395185164517297
 30
0.0
 40
10.9582060544056
100
AcDbArc
 50
76.66376752714075
 51
90.8847773341964
  0
LINE
  5
284
330
1F
100
AcDbEntity
  8
Ceco.net 41
100
AcDbLine
 10
-13.81234019818347
 20
7.016095463785341
 30
0.0
 11
-13.81234019818347
 21
7.016095463785341
 31
0.0
  0
LINE
  5
285
330
1F
100
AcDbEntity
  8
Ceco.net 41
100
AcDbLine
 10
-12.79038117098597
 20
4.582797172052903
 30
0.0
 11
-12.03808381137108
 21
4.582797172052903
 31
0.0
  0
LINE
  5
286
330
1F
100
AcDbEntity
  8
Ceco.net 41
100
AcDbLine
 10
-12.64700559700754
 20
4.032535814093971
 30
0.0
 11
-13.76548841804183
 21
7.033557156073319
 31
0.0
  0
LINE
  5
287
330
1F
100
AcDbEntity
  8
Ceco.net 41
100
AcDbLine
 10
-12.70036536247306
 20
4.032535814093971
 30
0.0
 11
-13.81234019818347
 21
7.016095463785341
 31
0.0
  0
LINE
  5
288
330
1F
100
AcDbEntity
  8
Ceco.net 41
100
AcDbLine
 10
1.645632029116958
 20
1.386334555069677
 30
0.0
 11
2.618099943748482
 21
1.402074368996117
 31
0.0
  0
LINE
  5
289
330
1F
100
AcDbEntity
  8
Ceco.net 41
100
AcDbLine
 10
1.88349644552942
 20
1.590210688666393
 30
0.0
 11
2.616481612446335
 21
1.602074370711352
 31
0.0
  0
LINE
  5
28A
330
1F
100
AcDbEntity
  8
Ceco.net 41
100
AcDbLine
 10
0.1330158963536778
 20
1.561878403650778
 30
0.0
 11
1.805186462801223
 21
1.588943207715937
 31
0.0
  0
LINE
  5
28B
330
1F
100
AcDbEntity
  8
Ceco.net 41
100
AcDbLine
 10
-0.1048485200587841
 20
1.358002270054062
 30
0.0
 11
1.567322046388763
 21
1.38506707411922
 31
0.0
  0
ARC
  5
28C
330
1F
100
AcDbEntity
  8
Ceco.net 41
100
AcDbCircle
 10
2.617290778097409
 20
1.452067821076856
 30
0.0
 40
0.05
100
AcDbArc
 50
270.9272760132129
 51
0.0
  0
ARC
  5
28D
330
1F
100
AcDbEntity
  8
Ceco.net 41
100
AcDbCircle
 10
2.617290778097409
 20
1.552080918630612
 30
0.0
 40
0.05
100
AcDbArc
 50
0.0
 51
90.92727601321291
  0
ARC
  5
28E
330
1F
100
AcDbEntity
  8
Ceco.net 41
100
AcDbCircle
 10
-0.6556363733630377
 20
1.399094079132575
 30
0.0
 40
0.05
100
AcDbArc
 50
179.9999999999999
 51
270.9272760132129
  0
ARC
  5
28F
330
1F
100
AcDbEntity
  8
Ceco.net 41
100
AcDbCircle
 10
-0.6556363733630377
 20
1.499107176686332
 30
0.0
 40
0.05
100
AcDbArc
 50
90.92727601321291
 51
180.0
  0
LINE
  5
290
330
1F
100
AcDbEntity
  8
Ceco.net 41
100
AcDbLine
 10
2.667290778097409
 20
1.552080918630612
 30
0.0
 11
2.667290778097409
 21
1.452067821076856
 31
0.0
  0
LINE
  5
291
330
1F
100
AcDbEntity
  8
Ceco.net 41
100
AcDbLine
 10
-0.7056363733630385
 20
1.499107176686332
 30
0.0
 11
-0.7056363733630385
 21
1.399094079132575
 31
0.0
  0
LINE
  5
292
330
1F
100
AcDbEntity
  8
Ceco.net 41
100
AcDbLine
 10
-0.6548272077119642
 20
1.349100627051836
 30
0.0
 11
-0.1831585027869806
 21
1.356734789103607
 31
0.0
  0
LINE
  5
293
330
1F
100
AcDbEntity
  8
Ceco.net 41
100
AcDbLine
 10
-0.6564455390141113
 20
1.549100628767072
 30
0.0
 11
0.0547059136254742
 21
1.560610922700323
 31
0.0
  0
LINE
  5
294
330
1F
100
AcDbEntity
  8
Ceco.net 41
100
AcDbLine
 10
-12.43923249117853
 20
4.582797172052903
 30
0.0
 11
-12.43923249117853
 21
4.032535814093972
 31
0.0
  0
LINE
  5
295
330
1F
100
AcDbEntity
  8
Ceco.net 41
100
AcDbLine
 10
-12.38923249117853
 20
4.582797172052903
 30
0.0
 11
-12.38923249117853
 21
4.032535814093972
 31
0.0
  0
LINE
  5
296
330
1F
100
AcDbEntity
  8
Ceco.net 41
100
AcDbLine
 10
-12.21423249117853
 20
4.582797172052903
 30
0.0
 11
-12.21423249117853
 21
4.032535814093973
 31
0.0
  0
LINE
  5
297
330
1F
100
AcDbEntity
  8
Ceco.net 41
100
AcDbLine
 10
-12.61423249117853
 20
4.582797172052903
 30
0.0
 11
-12.61423249117853
 21
4.032535814093971
 31
0.0
  0
LINE
  5
298
330
1F
100
AcDbEntity
  8
Ceco.net 41
100
AcDbLine
 10
-12.56423249117853
 20
4.582797172052903
 30
0.0
 11
-12.56423249117853
 21
4.032535814093972
 31
0.0
  0
LINE
  5
299
330
1F
100
AcDbEntity
  8
Ceco.net 41
100
AcDbLine
 10
-12.26423249117853
 20
4.582797172052903
 30
0.0
 11
-12.26423249117853
 21
4.032535814093973
 31
0.0
  0
LINE
  5
29A
330
1F
100
AcDbEntity
  8
Ceco.net 41
100
AcDbLine
 10
-12.79038117098597
 20
4.882797172052903
 30
0.0
 11
-12.79038117098597
 21
4.582797172052903
 31
0.0
  0
LINE
  5
29B
330
1F
100
AcDbEntity
  8
Ceco.net 41
100
AcDbLine
 10
-12.03808381137108
 20
4.882797172052903
 30
0.0
 11
-12.03808381137108
 21
4.582797172052903
 31
0.0
  0
LINE
  5
29C
330
1F
100
AcDbEntity
  8
Ceco.net 41
100
AcDbLine
 10
-12.79038117098597
 20
4.882797172052903
 30
0.0
 11
-12.03808381137108
 21
4.882797172052903
 31
0.0
  0
LINE
  5
29D
330
1F
100
AcDbEntity
  8
Ceco.net 41
100
AcDbLine
 10
-12.88218686829949
 20
4.032535814093971
 30
0.0
 11
-12.00539646681821
 21
4.032535814093974
 31
0.0
  0
LWPOLYLINE
  5
29E
330
1F
100
AcDbEntity
  8
Ceco.net 41
100
AcDbPolyline
 90
       16
 70
     1
 43
0.0
 10
-0.5293533622322127
 20
0.8021637870885092
 42
0.2130911553944242
 10
-0.5121667925825691
 20
0.7636681381119983
 42
0.0941157051343455
 10
-0.4333169412415821
 20
0.7160472930825934
 42
0.0507890564041913
 10
-0.3354391939828822
 20
0.6906224367662848
 42
0.0381819398212515
 10
-0.2014645112042253
 20
0.6803766733213222
 42
0.0381819398212509
 10
-0.0674898284255683
 20
0.6906224367662848
 42
0.0507890564041893
 10
0.0303879188331315
 20
0.7160472930825934
 42
0.0941157051343457
 10
0.1092377701741185
 20
0.7636681381119983
 42
0.2130911553944352
 10
0.1264243398237621
 20
0.8021637870885092
 42
0.2130911553944268
 10
0.1092377701741185
 20
0.8406594360650183
 42
0.0941157051343462
 10
0.0303879188331315
 20
0.8882802810944232
 42
0.0507890564041902
 10
-0.0674898284255683
 20
0.9137051374107318
 42
0.0381819398212512
 10
-0.2014645112042253
 20
0.9239509008556954
 42
0.0381819398212513
 10
-0.3354391939828858
 20
0.9137051374107327
 42
0.0507890564041893
 10
-0.4333169412415821
 20
0.8882802810944232
 42
0.0941157051343463
 10
-0.5121667925825691
 20
0.8406594360650192
 42
0.2130911553944356
  0
LINE
  5
29F
330
1F
100
AcDbEntity
  8
Ceco.net 41
100
AcDbLine
 10
-11.08175325084488
 20
0.9303035740582208
 30
0.0
 11
3.482280056909196
 21
1.166028754121767
 31
0.0
  0
LINE
  5
2A0
330
1F
100
AcDbEntity
  8
Ceco.net 41
100
AcDbLine
 10
-11.08256241649595
 20
0.9802970261389596
 30
0.0
 11
3.604133842648234
 21
1.21800755913961
 31
0.0
  0
ARC
  5
2A1
330
1F
100
AcDbEntity
  8
Ceco.net 41
100
AcDbCircle
 10
-6.789765714703815
 20
-3.05654742666552
 30
0.0
 40
5.266889077113602
100
AcDbArc
 50
76.71957699146915
 51
105.1349750349567
  0
ARC
  5
2A2
330
1F
100
AcDbEntity
  8
Ceco.net 41
100
AcDbCircle
 10
-6.789765714703815
 20
-3.05654742666552
 30
0.0
 40
5.266889077113602
100
AcDbArc
 50
107.204025201253
 51
110.6982101676911
  0
LINE
  5
2A3
330
1F
100
AcDbEntity
  8
Ceco.net 41
100
AcDbLine
 10
-8.415102261976311
 20
1.623549608111298
 30
0.0
 11
-6.171941532814136
 21
1.659856134992951
 31
0.0
  0
ARC
  5
2A4
330
1F
100
AcDbEntity
  8
Ceco.net 41
100
AcDbCircle
 10
-4.443547304597327
 20
1.737837492125303
 30
0.0
 40
0.05
100
AcDbArc
 50
270.9272760132128
 51
73.53275871288726
  0
ARC
  5
2A5
330
1F
100
AcDbEntity
  8
Ceco.net 41
100
AcDbCircle
 10
-6.789765714703815
 20
-3.05654742666552
 30
0.0
 40
5.266889077113602
100
AcDbArc
 50
73.15806025315187
 51
74.65052682517288
  0
LINE
  5
2A6
330
1F
100
AcDbEntity
  8
Ceco.net 41
100
AcDbLine
 10
-6.093631550085968
 20
1.661123615943402
 30
0.0
 11
-4.442738138946253
 21
1.687844040044565
 31
0.0
  0
LINE
  5
2A7
330
1F
100
AcDbEntity
  8
Ceco.net 41
100
AcDbLine
 10
-8.535652801484687
 20
1.621598445474417
 30
0.0
 11
-8.493412244704501
 21
1.622282127160842
 31
0.0
  0
ARC
  5
2A8
330
1F
100
AcDbEntity
  8
Ceco.net 41
100
AcDbCircle
 10
10.66631903854644
 20
35.08293386256889
 30
0.0
 40
35.46690529783692
100
AcDbArc
 50
250.0549572507114
 51
250.5444784739644
  0
ARC
  5
2A9
330
1F
100
AcDbEntity
  8
Ceco.net 41
100
AcDbCircle
 10
-6.481976130401161
 20
-6.497887754362693
 30
0.0
 40
9.563247103385384
100
AcDbArc
 50
64.33584432846045
 51
86.24261063661705
  0
ARC
  5
2AA
330
1F
100
AcDbEntity
  8
Ceco.net 41
100
AcDbCircle
 10
10.66631903854644
 20
35.08293386256889
 30
0.0
 40
35.46690529783692
100
AcDbArc
 50
249.0178775169327
 51
249.9622357679494
  0
ARC
  5
2AB
330
1F
100
AcDbEntity
  8
Ceco.net 41
100
AcDbCircle
 10
-8.284959609421187
 20
0.7618888273378213
 30
0.0
 40
1.74782209834599
100
AcDbArc
 50
136.9493818245928
 51
155.0199051218237
  0
ARC
  5
2AC
330
1F
100
AcDbEntity
  8
Ceco.net 41
100
AcDbCircle
 10
-9.467440386260179
 20
0.9983628256770993
 30
0.0
 40
1.085800557020544
100
AcDbArc
 50
113.2648778994923
 51
153.4924178116793
  0
ARC
  5
2AD
330
1F
100
AcDbEntity
  8
Ceco.net 41
100
AcDbCircle
 10
-9.467440386260179
 20
0.9983628256770993
 30
0.0
 40
1.035800557020544
100
AcDbArc
 50
113.2648778994923
 51
151.8648806422607
  0
LINE
  5
2AE
330
1F
100
AcDbEntity
  8
Ceco.net 41
100
AcDbLine
 10
-5.677368821364165
 20
2.017906849737657
 30
0.0
 11
-3.090824209932174
 21
2.05977119331531
 31
0.0
  0
LINE
  5
2AF
330
1F
100
AcDbEntity
  8
Ceco.net 41
100
AcDbLine
 10
-6.705940646593248
 20
1.202159787202208
 30
0.0
 11
-6.6326005915679
 21
1.199167490000094
 31
0.0
  0
LINE
  5
2B0
330
1F
100
AcDbEntity
  8
Ceco.net 41
100
AcDbLine
 10
-7.998839533254516
 20
1.98033284190555
 30
0.0
 11
-5.755678804092335
 21
2.016639368787202
 31
0.0
  0
LINE
  5
2B1
330
1F
100
AcDbEntity
  8
Ceco.net 41
100
AcDbLine
 10
-8.53403447018254
 20
1.52161154131294
 30
0.0
 11
-6.290873741020366
 21
1.557918068194592
 31
0.0
  0
ARC
  5
2B2
330
1F
100
AcDbEntity
  8
Ceco.net 41
100
AcDbCircle
 10
-11.04623017311661
 20
-37.98258174978228
 30
0.0
 40
40.56453882116065
100
AcDbArc
 50
81.00970017071423
 51
86.35723862834437
  0
LINE
  5
2B3
330
1F
100
AcDbEntity
  8
Ceco.net 41
100
AcDbLine
 10
-6.290873741020366
 20
1.557918068194592
 30
0.0
 11
-5.755678804092337
 21
2.016639368787201
 31
0.0
  0
LINE
  5
2B4
330
1F
100
AcDbEntity
  8
Ceco.net 41
100
AcDbLine
 10
-6.212563758292194
 20
1.559185549145046
 30
0.0
 11
-3.626019146860205
 21
1.601049892722699
 31
0.0
  0
LINE
  5
2B5
330
1F
100
AcDbEntity
  8
Ceco.net 41
100
AcDbLine
 10
-4.042281875582006
 20
1.244266658928446
 30
0.0
 11
-3.963971892853814
 21
1.245534139878901
 31
0.0
  0
LINE
  5
2B6
330
1F
100
AcDbEntity
  8
Ceco.net 41
100
AcDbLine
 10
-2.687115020381131
 20
1.945034939080388
 30
0.0
 11
-2.788225116503769
 21
1.998665859537173
 31
0.0
  0
ARC
  5
2B7
330
1F
100
AcDbEntity
  8
Ceco.net 41
100
AcDbCircle
 10
-6.148985051006601
 20
-4.459484040859731
 30
0.0
 40
7.280275233351829
100
AcDbArc
 50
64.48981518796931
 51
88.42649973798238
  0
LINE
  5
2B8
330
1F
100
AcDbEntity
  8
Ceco.net 41
100
AcDbLine
 10
-3.012514227203974
 20
2.061038674265765
 30
0.0
 11
-1.10218051658332
 21
2.091958251858173
 31
0.0
  0
LINE
  5
2B9
330
1F
100
AcDbEntity
  8
Ceco.net 41
100
AcDbLine
 10
-3.547709164132008
 20
1.602317373673154
 30
0.0
 11
-1.637375453511356
 21
1.633236951265564
 31
0.0
  0
LINE
  5
2BA
330
1F
100
AcDbEntity
  8
Ceco.net 41
100
AcDbLine
 10
-1.023870533855136
 20
2.09322573280863
 30
0.0
 11
0.7088330587597245
 21
2.12127029009129
 31
0.0
  0
LINE
  5
2BB
330
1F
100
AcDbEntity
  8
Ceco.net 41
100
AcDbLine
 10
-1.559065470783167
 20
1.634504432216018
 30
0.0
 11
0.1736381218317007
 21
1.66254898949868
 31
0.0
  0
LINE
  5
2BC
330
1F
100
AcDbEntity
  8
Ceco.net 41
100
AcDbLine
 10
-2.053638182233164
 20
1.27645371747131
 30
0.0
 11
-1.975328199504971
 21
1.277721198421765
 31
0.0
  0
LINE
  5
2BD
330
1F
100
AcDbEntity
  8
Ceco.net 41
100
AcDbLine
 10
1.507855942285649
 20
1.334098040720042
 30
0.0
 11
1.586165925013842
 21
1.335365521670497
 31
0.0
  0
LINE
  5
2BE
330
1F
100
AcDbEntity
  8
Ceco.net 41
100
AcDbLine
 10
0.2519481045599079
 20
1.663816470449136
 30
0.0
 11
3.811027493919649
 21
1.721421710164607
 31
0.0
  0
LINE
  5
2BF
330
1F
100
AcDbEntity
  8
Ceco.net 41
100
AcDbLine
 10
0.7871430414879459
 20
2.122537771041745
 30
0.0
 11
4.346222430847685
 21
2.180143010757216
 31
0.0
  0
LINE
  5
2C0
330
1F
100
AcDbEntity
  8
Ceco.net 41
100
AcDbLine
 10
-0.2426246068900966
 20
1.305765755704427
 30
0.0
 11
-0.1643146241619018
 21
1.307033236654882
 31
0.0
  0
LINE
  5
2C1
330
1F
100
AcDbEntity
  8
Ceco.net 41
100
AcDbLine
 10
3.394764765197844
 20
1.364638476370354
 30
0.0
 11
3.473074747926034
 21
1.365905957320809
 31
0.0
  0
LINE
  5
2C2
330
1F
100
AcDbEntity
  8
Ceco.net 41
100
AcDbLine
 10
5.352848759927738
 20
2.186207451842011
 30
0.0
 11
5.352039594276664
 21
2.23620090392275
 31
0.0
  0
LINE
  5
2C3
330
1F
100
AcDbEntity
  8
Ceco.net 41
100
AcDbLine
 10
4.424532413575871
 20
2.181410491707672
 30
0.0
 11
5.352848759927738
 21
2.186207451842011
 31
0.0
  0
LINE
  5
2C4
330
1F
100
AcDbEntity
  8
Ceco.net 41
100
AcDbLine
 10
3.889337476647838
 20
1.722689191115061
 30
0.0
 11
4.728190061105888
 21
1.736266383115363
 31
0.0
  0
LINE
  5
2C5
330
1F
100
AcDbEntity
  8
Ceco.net 41
100
AcDbLine
 10
-9.87656340110883
 20
1.949941068726624
 30
0.0
 11
-8.077149515982696
 21
1.979065360955094
 31
0.0
  0
LINE
  5
2C6
330
1F
100
AcDbEntity
  8
Ceco.net 41
100
AcDbLine
 10
-9.877372566759904
 20
1.999934520807363
 30
0.0
 11
5.352039594276664
 21
2.23620090392275
 31
0.0
  0
LINE
  5
2C7
330
1F
100
AcDbEntity
  8
Ceco.net 41
100
AcDbLine
 10
-9.028607181632533
 20
1.163560826568232
 30
0.0
 11
-8.950297198904337
 21
1.164828307518687
 31
0.0
  0
LINE
  5
2C8
330
1F
100
AcDbEntity
  8
Ceco.net 41
100
AcDbLine
 10
-9.869280910249164
 20
1.499999999999976
 30
0.0
 11
-8.612344452910729
 21
1.520344060362484
 31
0.0
  0
LINE
  5
2C9
330
1F
100
AcDbEntity
  8
Ceco.net 41
100
AcDbLine
 10
3.473074747926034
 20
1.365905957320809
 30
0.0
 11
4.424532413575871
 21
2.181410491707672
 31
0.0
  0
LINE
  5
2CA
330
1F
100
AcDbEntity
  8
Ceco.net 41
100
AcDbLine
 10
3.38520295276006
 20
1.356442944733492
 30
0.0
 11
4.346222430847685
 21
2.180143010757216
 31
0.0
  0
LINE
  5
2CB
330
1F
100
AcDbEntity
  8
Ceco.net 41
100
AcDbLine
 10
-0.2426246068900966
 20
1.305765755704427
 30
0.0
 11
0.7088330587597227
 21
2.121270290091288
 31
0.0
  0
LINE
  5
2CC
330
1F
100
AcDbEntity
  8
Ceco.net 41
100
AcDbLine
 10
-0.1643146241619
 20
1.307033236654882
 30
0.0
 11
0.7871430414879459
 21
2.122537771041745
 31
0.0
  0
LINE
  5
2CD
330
1F
100
AcDbEntity
  8
Ceco.net 41
100
AcDbLine
 10
1.507855942285649
 20
1.334098040720043
 30
0.0
 11
2.5187797120386
 21
2.200571608506083
 31
0.0
  0
LINE
  5
2CE
330
1F
100
AcDbEntity
  8
Ceco.net 41
100
AcDbLine
 10
1.586165925013844
 20
1.335365521670498
 30
0.0
 11
2.5970896947668
 21
2.201839089456538
 31
0.0
  0
ARC
  5
2CF
330
1F
100
AcDbEntity
  8
Ceco.net 41
100
AcDbCircle
 10
-5.786086563278278
 20
23.06265816935336
 30
0.0
 40
23.77740523173609
100
AcDbArc
 50
284.083984573392
 51
296.2440871703207
  0
ARC
  5
2D0
330
1F
100
AcDbEntity
  8
Ceco.net 41
100
AcDbCircle
 10
-6.041638729954557
 20
2.06232135522916
 30
0.0
 40
1.0
100
AcDbArc
 50
79.25958966090672
 51
90.0
  0
LINE
  5
2D1
330
1F
100
AcDbEntity
  8
Ceco.net 41
100
AcDbLine
 10
-5.53900185787684
 20
3.018755282011329
 30
0.0
 11
-6.103691252645504
 21
3.451947573709777
 31
0.0
  0
LINE
  5
2D2
330
1F
100
AcDbEntity
  8
Ceco.net 41
100
AcDbLine
 10
-7.989093509283655
 20
3.192960620305807
 30
0.0
 11
-8.108964408884116
 21
3.06232135522916
 31
0.0
  0
LINE
  5
2D3
330
1F
100
AcDbEntity
  8
Ceco.net 41
100
AcDbLine
 10
-7.815793489072143
 20
2.746446181896943
 30
0.0
 11
-5.949073728139104
 21
2.818045961575533
 31
0.0
  0
LINE
  5
2D4
330
1F
100
AcDbEntity
  8
Ceco.net 41
100
AcDbLine
 10
-6.103691252645504
 20
3.451947573709777
 30
0.0
 11
-7.989093509283655
 21
3.192960620305807
 31
0.0
  0
LINE
  5
2D5
330
1F
100
AcDbEntity
  8
Ceco.net 41
100
AcDbLine
 10
-12.88218686829949
 20
3.807295043483175
 30
0.0
 11
-12.88218686829949
 21
4.032535814093971
 31
0.0
  0
LINE
  5
2D6
330
1F
100
AcDbEntity
  8
Ceco.net 41
100
AcDbLine
 10
-10.85454304087023
 20
2.85344645880766
 30
0.0
 11
-11.23088921071126
 21
3.06232135522916
 31
0.0
  0
LINE
  5
2D7
330
1F
100
AcDbEntity
  8
Ceco.net 41
100
AcDbLine
 10
-11.3209781051377
 20
3.11232135522916
 30
0.0
 11
-12.88218686829949
 21
3.807295043483175
 31
0.0
  0
LINE
  5
2D8
330
1F
100
AcDbEntity
  8
Ceco.net 41
100
AcDbLine
 10
-7.815793489072143
 20
2.746446181896943
 30
0.0
 11
-10.85454304087023
 21
2.85344645880766
 31
0.0
  0
ARC
  5
2D9
330
1F
100
AcDbEntity
  8
Ceco.net 41
100
AcDbCircle
 10
-28.71498167655081
 20
-65.97360319984551
 30
0.0
 40
71.97270133543921
100
AcDbArc
 50
73.71743842822103
 51
76.57539687248702
  0
LINE
  5
2DA
330
1F
100
AcDbEntity
  8
Ceco.net 41
100
AcDbLine
 10
-11.23088921071126
 20
3.06232135522916
 30
0.0
 11
-6.041638729954557
 21
3.06232135522916
 31
0.0
  0
LINE
  5
2DB
330
1F
100
AcDbEntity
  8
Ceco.net 41
100
AcDbLine
 10
-11.3209781051377
 20
3.11232135522916
 30
0.0
 11
-8.535666378680447
 21
3.112321355229168
 31
0.0
  0
ARC
  5
2DC
330
1F
100
AcDbEntity
  8
Ceco.net 41
100
AcDbCircle
 10
-2.633107021323201
 20
1.801877485817323
 30
0.0
 40
0.1
100
AcDbArc
 50
253.9582710173464
 51
67.39204499497676
  0
ARC
  5
2DD
330
1F
100
AcDbEntity
  8
Ceco.net 41
100
AcDbCircle
 10
-11.04623017311661
 20
-37.98258174978228
 30
0.0
 40
40.56453882116065
100
AcDbArc
 50
78.06981262329784
 51
78.96263358515715
  0
ARC
  5
2DE
330
1F
100
AcDbEntity
  8
Ceco.net 41
100
AcDbCircle
 10
-6.148985051006601
 20
-4.459484040859731
 30
0.0
 40
7.280275233351829
100
AcDbArc
 50
60.77684700405191
 51
61.60720295955371
  0
LINE
  5
2DF
330
1F
100
AcDbEntity
  8
Ceco.net 41
100
AcDbLine
 10
-4.042281875582006
 20
1.244266658928446
 30
0.0
 11
-3.090824209932176
 21
2.059771193315309
 31
0.0
  0
LINE
  5
2E0
330
1F
100
AcDbEntity
  8
Ceco.net 41
100
AcDbLine
 10
-3.963971892853814
 20
1.245534139878901
 30
0.0
 11
-3.012514227203974
 21
2.061038674265765
 31
0.0
  0
LINE
  5
2E1
330
1F
100
AcDbEntity
  8
Ceco.net 41
100
AcDbLine
 10
-1.975328199504971
 20
1.277721198421765
 30
0.0
 11
-1.023870533855138
 21
2.093225732808627
 31
0.0
  0
LINE
  5
2E2
330
1F
100
AcDbEntity
  8
Ceco.net 41
100
AcDbLine
 10
-2.053638182233163
 20
1.276453717471311
 30
0.0
 11
-1.10218051658332
 21
2.091958251858172
 31
0.0
  0
LINE
  5
2E3
330
1F
100
AcDbEntity
  8
Ceco.net 41
100
AcDbLine
 10
-6.705940646593248
 20
1.202159787202208
 30
0.0
 11
-6.326176180182552
 21
1.527659970276984
 31
0.0
  0
LINE
  5
2E4
330
1F
100
AcDbEntity
  8
Ceco.net 41
100
AcDbLine
 10
-6.6326005915679
 20
1.199167490000094
 30
0.0
 11
-5.677368821364165
 21
2.017906849737657
 31
0.0
  0
ARC
  5
2E5
330
1F
100
AcDbEntity
  8
Ceco.net 41
100
AcDbCircle
 10
-6.694775748607602
 20
-5.878169819241065
 30
0.0
 40
7.991762831632968
100
AcDbArc
 50
73.53275871288556
 51
79.68503340036348
  0
LWPOLYLINE
  5
2E6
330
1F
100
AcDbEntity
  8
Ceco.net 41
100
AcDbPolyline
 90
       16
 70
     1
 43
0.0
 10
-3.965901226168327
 20
0.7679418178689632
 42
0.2130911553944242
 10
-3.948714656518681
 20
0.7294461688924532
 42
0.0941157051343455
 10
-3.869864805177693
 20
0.6818253238630483
 42
0.0507890564041913
 10
-3.771987057918995
 20
0.6564004675467397
 42
0.0381819398212515
 10
-3.638012375140338
 20
0.646154704101777
 42
0.0381819398212509
 10
-3.504037692361679
 20
0.6564004675467397
 42
0.0507890564041893
 10
-3.406159945102981
 20
0.6818253238630483
 42
0.0941157051343457
 10
-3.327310093761994
 20
0.7294461688924532
 42
0.2130911553944352
 10
-3.310123524112349
 20
0.7679418178689632
 42
0.2130911553944268
 10
-3.327310093761992
 20
0.8064374668454723
 42
0.0941157051343462
 10
-3.406159945102981
 20
0.8540583118748781
 42
0.0507890564041902
 10
-3.504037692361679
 20
0.8794831681911858
 42
0.0381819398212512
 10
-3.638012375140338
 20
0.8897289316361502
 42
0.0381819398212513
 10
-3.771987057918998
 20
0.8794831681911876
 42
0.0507890564041893
 10
-3.869864805177693
 20
0.8540583118748781
 42
0.0941157051343463
 10
-3.948714656518681
 20
0.8064374668454741
 42
0.2130911553944356
  0
LWPOLYLINE
  5
2E7
330
1F
100
AcDbEntity
  8
Ceco.net 41
100
AcDbPolyline
 90
       16
 70
     1
 43
0.0
 10
-2.242142347534766
 20
0.7679418178689632
 42
0.2130911553944242
 10
-2.224955777885124
 20
0.7294461688924532
 42
0.0941157051343455
 10
-2.146105926544136
 20
0.6818253238630483
 42
0.0507890564041913
 10
-2.048228179285437
 20
0.6564004675467397
 42
0.0381819398212515
 10
-1.914253496506779
 20
0.646154704101777
 42
0.0381819398212509
 10
-1.780278813728122
 20
0.6564004675467397
 42
0.0507890564041893
 10
-1.682401066469422
 20
0.6818253238630483
 42
0.0941157051343457
 10
-1.603551215128435
 20
0.7294461688924532
 42
0.2130911553944352
 10
-1.586364645478791
 20
0.7679418178689632
 42
0.2130911553944268
 10
-1.603551215128435
 20
0.8064374668454723
 42
0.0941157051343462
 10
-1.682401066469422
 20
0.8540583118748781
 42
0.0507890564041902
 10
-1.780278813728122
 20
0.8794831681911858
 42
0.0381819398212512
 10
-1.914253496506779
 20
0.8897289316361502
 42
0.0381819398212513
 10
-2.048228179285439
 20
0.8794831681911876
 42
0.0507890564041893
 10
-2.146105926544136
 20
0.8540583118748781
 42
0.0941157051343463
 10
-2.224955777885124
 20
0.8064374668454741
 42
0.2130911553944356
  0
ARC
  5
2E8
330
1F
100
AcDbEntity
  8
Ceco.net 41
100
AcDbCircle
 10
-6.694775748607602
 20
-5.878169819241065
 30
0.0
 40
7.991762831632968
100
AcDbArc
 50
104.1712370204795
 51
105.3054554931839
  0
ARC
  5
2E9
330
1F
100
AcDbEntity
  8
Ceco.net 41
100
AcDbCircle
 10
-8.776372517182547
 20
1.734128336108123
 30
0.0
 40
0.1
100
AcDbArc
 50
106.2291905519287
 51
266.8241414188136
  0
LINE
  5
2EA
330
1F
100
AcDbEntity
  8
Ceco.net 41
100
AcDbLine
 10
-11.62699296103832
 20
2.066772411621311
 30
0.0
 11
-11.57861816556763
 21
2.054128078377956
 31
0.0
  0
ARC
  5
2EB
330
1F
100
AcDbEntity
  8
Ceco.net 41
100
AcDbCircle
 10
-11.34718214354645
 20
1.310167059451861
 30
0.0
 40
0.05
100
AcDbArc
 50
106.3041379380929
 51
166.0086621254424
  0
ARC
  5
2EC
330
1F
100
AcDbEntity
  8
Ceco.net 41
100
AcDbCircle
 10
-11.79347386554942
 20
1.33098986568209
 30
0.0
 40
0.0250000000000008
100
AcDbArc
 50
165.3516038710054
 51
345.351603871006
  0
LINE
  5
2ED
330
1F
100
AcDbEntity
  8
Ceco.net 41
100
AcDbLine
 10
-12.3207492912321
 20
0.9611513856624069
 30
0.0
 11
-12.08419341010734
 21
0.9611513856624069
 31
0.0
  0
ARC
  5
2EE
330
1F
100
AcDbEntity
  8
Ceco.net 41
100
AcDbCircle
 10
-12.08419341010734
 20
0.9111513856624071
 30
0.0
 40
0.05
100
AcDbArc
 50
48.25689045883806
 51
90.0
  0
LINE
  5
2EF
330
1F
100
AcDbEntity
  8
Ceco.net 41
100
AcDbLine
 10
-11.38873459538488
 20
1.350000000000003
 30
0.0
 11
-11.76266504333498
 21
1.350000000000003
 31
0.0
  0
LINE
  5
2F0
330
1F
100
AcDbEntity
  8
Ceco.net 41
100
AcDbLine
 10
-12.10631794883719
 20
0.8031265233316249
 30
0.0
 11
-12.01530919031915
 21
0.7219177622798627
 31
0.0
  0
ARC
  5
2F1
330
1F
100
AcDbEntity
  8
Ceco.net 41
100
AcDbCircle
 10
-12.1728898589463
 20
0.7295556735638229
 30
0.0
 40
0.05
100
AcDbArc
 50
0.0
 51
90.0
  0
ARC
  5
2F2
330
1F
100
AcDbEntity
  8
Ceco.net 41
100
AcDbCircle
 10
-12.13960754580895
 20
0.7658196508621007
 30
0.0
 40
0.05
100
AcDbArc
 50
48.25689045883787
 51
90.0
  0
LINE
  5
2F3
330
1F
100
AcDbEntity
  8
Ceco.net 41
100
AcDbLine
 10
-12.4728898589463
 20
0.7795556735638228
 30
0.0
 11
-12.1728898589463
 21
0.7795556735638228
 31
0.0
  0
LINE
  5
2F4
330
1F
100
AcDbEntity
  8
Ceco.net 41
100
AcDbLine
 10
-12.12982784101857
 20
0.6041457815531866
 30
0.0
 11
-12.0228898589463
 21
0.54711219111464
 31
0.0
  0
ARC
  5
2F5
330
1F
100
AcDbEntity
  8
Ceco.net 41
100
AcDbCircle
 10
-12.1728898589463
 20
0.6295556735638224
 30
0.0
 40
0.05
100
AcDbArc
 50
270.0
 51
0.0
  0
LINE
  5
2F6
330
1F
100
AcDbEntity
  8
Ceco.net 41
100
AcDbLine
 10
-12.4728898589463
 20
0.5795556735638226
 30
0.0
 11
-12.1728898589463
 21
0.5795556735638226
 31
0.0
  0
LINE
  5
2F7
330
1F
100
AcDbEntity
  8
Ceco.net 41
100
AcDbLine
 10
-12.1228898589463
 20
0.6295556735638224
 30
0.0
 11
-12.1228898589463
 21
0.7295556735638229
 31
0.0
  0
LINE
  5
2F8
330
1F
100
AcDbEntity
  8
Ceco.net 41
100
AcDbLine
 10
-12.32706240339134
 20
0.7010870199391306
 30
0.0
 11
-12.32706240339134
 21
0.6710870199391304
 31
0.0
  0
LINE
  5
2F9
330
1F
100
AcDbEntity
  8
Ceco.net 41
100
AcDbLine
 10
-12.0228898589463
 20
0.54711219111464
 30
0.0
 11
-11.97129661476799
 21
0.54711219111464
 31
0.0
  0
LINE
  5
2FA
330
1F
100
AcDbEntity
  8
Ceco.net 41
100
AcDbLine
 10
-12.1228898589463
 20
0.7219177622798627
 30
0.0
 11
-11.7728898589463
 21
0.7219177622798627
 31
0.0
  0
LINE
  5
2FB
330
1F
100
AcDbEntity
  8
Ceco.net 41
100
AcDbLine
 10
-12.22288985894629
 20
0.4297462371138128
 30
0.0
 11
-12.22288985894629
 21
0.5297462371138133
 31
0.0
  0
LINE
  5
2FC
330
1F
100
AcDbEntity
  8
Ceco.net 41
100
AcDbLine
 10
-12.3728898589463
 20
0.4795556735638229
 30
0.0
 11
-12.2728898589463
 21
0.4795556735638229
 31
0.0
  0
LINE
  5
2FD
330
1F
100
AcDbEntity
  8
Ceco.net 41
100
AcDbLine
 10
-12.3728898589463
 20
0.5095556735638223
 30
0.0
 11
-12.2728898589463
 21
0.5095556735638223
 31
0.0
  0
LINE
  5
2FE
330
1F
100
AcDbEntity
  8
Ceco.net 41
100
AcDbLine
 10
-12.22288985894629
 20
0.4297462371138128
 30
0.0
 11
-12.2728898589463
 21
0.4297462371138128
 31
0.0
  0
LINE
  5
2FF
330
1F
100
AcDbEntity
  8
Ceco.net 41
100
AcDbLine
 10
-12.22288985894629
 20
0.5297462371138133
 30
0.0
 11
-12.2728898589463
 21
0.5297462371138133
 31
0.0
  0
LINE
  5
300
330
1F
100
AcDbEntity
  8
Ceco.net 41
100
AcDbLine
 10
-12.20288985894629
 20
0.3295556735638225
 30
0.0
 11
-12.1728898589463
 21
0.3295556735638225
 31
0.0
  0
LINE
  5
301
330
1F
100
AcDbEntity
  8
Ceco.net 41
100
AcDbLine
 10
-12.3728898589463
 20
0.2795556735638218
 30
0.0
 11
-12.2728898589463
 21
0.2795556735638218
 31
0.0
  0
LINE
  5
302
330
1F
100
AcDbEntity
  8
Ceco.net 41
100
AcDbLine
 10
-12.4728898589463
 20
0.3295556735638225
 30
0.0
 11
-12.3728898589463
 21
0.3295556735638225
 31
0.0
  0
LINE
  5
303
330
1F
100
AcDbEntity
  8
Ceco.net 41
100
AcDbLine
 10
-12.2728898589463
 20
0.3000000000000025
 30
0.0
 11
-12.2528898589463
 21
0.3000000000000025
 31
0.0
  0
LINE
  5
304
330
1F
100
AcDbEntity
  8
Ceco.net 41
100
AcDbLine
 10
-12.2728898589463
 20
0.3295556735638225
 30
0.0
 11
-12.2528898589463
 21
0.3295556735638225
 31
0.0
  0
LINE
  5
305
330
1F
100
AcDbEntity
  8
Ceco.net 41
100
AcDbLine
 10
-12.2928898589463
 20
0.2745556735638228
 30
0.0
 11
-12.2528898589463
 21
0.2745556735638228
 31
0.0
  0
LINE
  5
306
330
1F
100
AcDbEntity
  8
Ceco.net 41
100
AcDbLine
 10
-12.2528898589463
 20
0.3545556735638229
 30
0.0
 11
-12.20288985894629
 21
0.3545556735638229
 31
0.0
  0
LINE
  5
307
330
1F
100
AcDbEntity
  8
Ceco.net 41
100
AcDbLine
 10
-12.1728898589463
 20
0.3295556735638225
 30
0.0
 11
-12.0228898589463
 21
0.4095556735638226
 31
0.0
  0
LINE
  5
308
330
1F
100
AcDbEntity
  8
Ceco.net 41
100
AcDbLine
 10
-12.0228898589463
 20
0.4095556735638226
 30
0.0
 11
-11.93834305782552
 21
0.4095556735638226
 31
0.0
  0
LINE
  5
309
330
1F
100
AcDbEntity
  8
Ceco.net 41
100
AcDbLine
 10
-12.3728898589463
 20
0.2795556735638218
 30
0.0
 11
-12.3728898589463
 21
0.5795556735638226
 31
0.0
  0
CIRCLE
  5
30A
330
1F
100
AcDbEntity
  8
Ceco.net 41
100
AcDbCircle
 10
-11.7728898589463
 20
0.5219177622798635
 30
0.0
 40
0.2
  0
LINE
  5
30B
330
1F
100
AcDbEntity
  8
Ceco.net 41
100
AcDbLine
 10
-12.2728898589463
 20
0.2795556735638218
 30
0.0
 11
-12.2728898589463
 21
0.5795556735638226
 31
0.0
  0
CIRCLE
  5
30C
330
1F
100
AcDbEntity
  8
Ceco.net 41
100
AcDbCircle
 10
-11.7728898589463
 20
0.5219177622798635
 30
0.0
 40
0.03
  0
LINE
  5
30D
330
1F
100
AcDbEntity
  8
Ceco.net 41
100
AcDbLine
 10
-12.20288985894629
 20
0.3000000000000025
 30
0.0
 11
-11.43547061583342
 21
0.3000000000000025
 31
0.0
  0
ARC
  5
30E
330
1F
100
AcDbEntity
  8
Ceco.net 41
100
AcDbCircle
 10
-3.407663019088467
 20
-0.6681025011502939
 30
0.0
 40
8.232268290763826
100
AcDbArc
 50
166.0086621254419
 51
173.2464739424818
  0
LINE
  5
30F
330
1F
100
AcDbEntity
  8
Ceco.net 41
100
AcDbLine
 10
-12.05090381313557
 20
0.9484582581319322
 30
0.0
 11
-11.79557829629948
 21
0.7206266820858716
 31
0.0
  0
LINE
  5
310
330
1F
100
AcDbEntity
  8
Ceco.net 41
100
AcDbLine
 10
-11.76928646781408
 20
1.324667699060412
 30
0.0
 11
-11.57861816556763
 21
2.054128078377956
 31
0.0
  0
LINE
  5
311
330
1F
100
AcDbEntity
  8
Ceco.net 41
100
AcDbLine
 10
-11.81766126328477
 20
1.337312032303768
 30
0.0
 11
-11.62699296103832
 21
2.066772411621311
 31
0.0
  0
LINE
  5
312
330
1F
100
AcDbEntity
  8
Ceco.net 41
100
AcDbLine
 10
-11.60971749039981
 20
2.040099567182947
 30
0.0
 11
-11.38873459538488
 21
1.350000000000003
 31
0.0
  0
ARC
  5
313
330
1F
100
AcDbEntity
  8
Ceco.net 41
100
AcDbCircle
 10
-9.940139703456317
 20
-5.671855442251841
 30
0.0
 40
7.172205480403648
100
AcDbArc
 50
89.43392923526166
 51
101.4280366727953
  0
LINE
  5
314
330
1F
100
AcDbEntity
  8
Ceco.net 41
100
AcDbLine
 10
-13.03816002810328
 20
2.078767585343307
 30
0.0
 11
-13.08166743777685
 21
2.054128078377956
 31
0.0
  0
LINE
  5
315
330
1F
100
AcDbEntity
  8
Ceco.net 41
100
AcDbLine
 10
-12.68289930099603
 20
1.350000000000003
 30
0.0
 11
-12.68289930099603
 21
1.290000000000002
 31
0.0
  0
ARC
  5
316
330
1F
100
AcDbEntity
  8
Ceco.net 41
100
AcDbCircle
 10
-12.63872951141008
 20
1.322738369657468
 30
0.0
 40
0.0249999999999992
100
AcDbArc
 50
209.5241348968396
 51
29.5241348968391
  0
ARC
  5
317
330
1F
100
AcDbEntity
  8
Ceco.net 41
100
AcDbCircle
 10
-12.56158630778526
 20
0.9111513856624071
 30
0.0
 40
0.05
100
AcDbArc
 50
90.0
 51
131.743109541162
  0
LINE
  5
318
330
1F
100
AcDbEntity
  8
Ceco.net 41
100
AcDbLine
 10
-12.5228898589463
 20
0.7010870199391306
 30
0.0
 11
-12.5228898589463
 21
0.7295556735638229
 31
0.0
  0
LINE
  5
319
330
1F
100
AcDbEntity
  8
Ceco.net 41
100
AcDbLine
 10
-12.64292043264595
 20
0.7110870199391304
 30
0.0
 11
-12.7222430947021
 21
0.7110870199391304
 31
0.0
  0
LINE
  5
31A
330
1F
100
AcDbEntity
  8
Ceco.net 41
100
AcDbLine
 10
-12.53946176905541
 20
0.803126523331624
 30
0.0
 11
-12.63047052757345
 21
0.7219177622798619
 31
0.0
  0
ARC
  5
31B
330
1F
100
AcDbEntity
  8
Ceco.net 41
100
AcDbCircle
 10
-12.50617217208365
 20
0.7658196508620989
 30
0.0
 40
0.05
100
AcDbArc
 50
90.0
 51
131.743109541162
  0
LINE
  5
31C
330
1F
100
AcDbEntity
  8
Ceco.net 41
100
AcDbLine
 10
-12.8728898589463
 20
0.7219177622798619
 30
0.0
 11
-12.5228898589463
 21
0.7219177622798619
 31
0.0
  0
LINE
  5
31D
330
1F
100
AcDbEntity
  8
Ceco.net 41
100
AcDbLine
 10
-12.51595187687402
 20
0.6041457815531866
 30
0.0
 11
-12.6228898589463
 21
0.54711219111464
 31
0.0
  0
LINE
  5
31E
330
1F
100
AcDbEntity
  8
Ceco.net 41
100
AcDbLine
 10
-12.6744831031246
 20
0.54711219111464
 30
0.0
 11
-12.6228898589463
 21
0.54711219111464
 31
0.0
  0
LINE
  5
31F
330
1F
100
AcDbEntity
  8
Ceco.net 41
100
AcDbLine
 10
-12.5228898589463
 20
0.6295556735638224
 30
0.0
 11
-12.5228898589463
 21
0.6710870199391304
 31
0.0
  0
LINE
  5
320
330
1F
100
AcDbEntity
  8
Ceco.net 41
100
AcDbLine
 10
-12.64292043264594
 20
0.6610870199391306
 30
0.0
 11
-12.7222430947021
 21
0.6610870199391306
 31
0.0
  0
LINE
  5
321
330
1F
100
AcDbEntity
  8
Ceco.net 41
100
AcDbLine
 10
-12.64292043264595
 20
0.7110870199391304
 30
0.0
 11
-12.64292043264594
 21
0.6610870199391306
 31
0.0
  0
LINE
  5
322
330
1F
100
AcDbEntity
  8
Ceco.net 41
100
AcDbLine
 10
-12.7222430947021
 20
0.7110870199391304
 30
0.0
 11
-12.7222430947021
 21
0.6610870199391306
 31
0.0
  0
LINE
  5
323
330
1F
100
AcDbEntity
  8
Ceco.net 41
100
AcDbLine
 10
-12.70743666006707
 20
0.4095556735638226
 30
0.0
 11
-12.6228898589463
 21
0.4095556735638226
 31
0.0
  0
ARC
  5
324
330
1F
100
AcDbEntity
  8
Ceco.net 41
100
AcDbCircle
 10
-12.55280942501797
 20
0.2700000000000031
 30
0.0
 40
0.03
100
AcDbArc
 50
90.0
 51
179.9999999999982
  0
CIRCLE
  5
325
330
1F
100
AcDbEntity
  8
Ceco.net 41
100
AcDbCircle
 10
-12.8728898589463
 20
0.5219177622798617
 30
0.0
 40
0.2
  0
CIRCLE
  5
326
330
1F
100
AcDbEntity
  8
Ceco.net 41
100
AcDbCircle
 10
-12.8728898589463
 20
0.5219177622798617
 30
0.0
 40
0.03
  0
LINE
  5
327
330
1F
100
AcDbEntity
  8
Ceco.net 41
100
AcDbLine
 10
-12.59487590475703
 20
0.9484582581319314
 30
0.0
 11
-12.85020142159311
 21
0.7206266820858707
 31
0.0
  0
LINE
  5
328
330
1F
100
AcDbEntity
  8
Ceco.net 41
100
AcDbLine
 10
-12.66048321624686
 20
1.310418616174794
 30
0.0
 11
-13.08166743777685
 21
2.054128078377956
 31
0.0
  0
LINE
  5
329
330
1F
100
AcDbEntity
  8
Ceco.net 41
100
AcDbLine
 10
-12.61697580657329
 20
1.335058123140143
 30
0.0
 11
-13.03816002810328
 21
2.078767585343307
 31
0.0
  0
ARC
  5
32A
330
1F
100
AcDbEntity
  8
Ceco.net 41
100
AcDbCircle
 10
-12.42742037373141
 20
1.921158115654624
 30
0.0
 40
0.6342798735774088
100
AcDbArc
 50
168.6405603303875
 51
250.911955869208
  0
LINE
  5
32B
330
1F
100
AcDbEntity
  8
Ceco.net 41
100
AcDbLine
 10
-12.5228898589463
 20
0.7295556735638229
 30
0.0
 11
-12.1228898589463
 21
0.7295556735638229
 31
0.0
  0
LINE
  5
32C
330
1F
100
AcDbEntity
  8
Ceco.net 41
100
AcDbLine
 10
-12.50617217208365
 20
0.8158196508620987
 30
0.0
 11
-12.13960754580895
 21
0.8158196508621005
 31
0.0
  0
LINE
  5
32D
330
1F
100
AcDbEntity
  8
Ceco.net 41
100
AcDbLine
 10
-12.4728898589463
 20
0.3295556735638225
 30
0.0
 11
-12.6228898589463
 21
0.4095556735638226
 31
0.0
  0
LINE
  5
32E
330
1F
100
AcDbEntity
  8
Ceco.net 41
100
AcDbLine
 10
-12.55280942501797
 20
0.3000000000000025
 30
0.0
 11
-12.3728898589463
 21
0.3000000000000025
 31
0.0
  0
ARC
  5
32F
330
1F
100
AcDbEntity
  8
Ceco.net 41
100
AcDbCircle
 10
-12.4728898589463
 20
0.6295556735638224
 30
0.0
 40
0.05
100
AcDbArc
 50
180.0
 51
270.0
  0
LINE
  5
330
330
1F
100
AcDbEntity
  8
Ceco.net 41
100
AcDbLine
 10
-12.32706240339134
 20
0.7010870199391306
 30
0.0
 11
-12.64292043264594
 21
0.7010870199391306
 31
0.0
  0
LINE
  5
331
330
1F
100
AcDbEntity
  8
Ceco.net 41
100
AcDbLine
 10
-12.32706240339134
 20
0.6710870199391304
 30
0.0
 11
-12.64292043264594
 21
0.6710870199391304
 31
0.0
  0
ARC
  5
332
330
1F
100
AcDbEntity
  8
Ceco.net 41
100
AcDbCircle
 10
-12.4728898589463
 20
0.7295556735638229
 30
0.0
 40
0.05
100
AcDbArc
 50
90.0
 51
180.0
  0
LINE
  5
333
330
1F
100
AcDbEntity
  8
Ceco.net 41
100
AcDbLine
 10
-11.40366675883899
 20
1.290000000000002
 30
0.0
 11
-12.68289930099603
 21
1.290000000000002
 31
0.0
  0
LINE
  5
334
330
1F
100
AcDbEntity
  8
Ceco.net 41
100
AcDbLine
 10
-11.8143448484003
 20
1.350000000000003
 30
0.0
 11
-12.62543782446233
 21
1.350000000000003
 31
0.0
  0
ARC
  5
335
330
1F
100
AcDbEntity
  8
Ceco.net 41
100
AcDbCircle
 10
-12.31343185369412
 20
5.904836913876431
 30
0.0
 40
3.928283170041856
100
AcDbArc
 50
259.2036151712284
 51
280.3196966972172
  0
LINE
  5
336
330
1F
100
AcDbEntity
  8
Ceco.net 41
100
AcDbLine
 10
-12.3250304266605
 20
0.9611513856624069
 30
0.0
 11
-12.56158630778526
 21
0.9611513856624069
 31
0.0
  0
LINE
  5
337
330
1F
100
AcDbEntity
  8
Ceco.net 41
100
AcDbLine
 10
-12.3528898589463
 20
0.2295556735638229
 30
0.0
 11
-12.2928898589463
 21
0.2295556735638229
 31
0.0
  0
LINE
  5
338
330
1F
100
AcDbEntity
  8
Ceco.net 41
100
AcDbLine
 10
-12.2928898589463
 20
0.2345556735638219
 30
0.0
 11
-12.2528898589463
 21
0.2345556735638219
 31
0.0
  0
LINE
  5
339
330
1F
100
AcDbEntity
  8
Ceco.net 41
100
AcDbLine
 10
-12.2528898589463
 20
0.1545556735638218
 30
0.0
 11
-12.20288985894629
 21
0.1545556735638218
 31
0.0
  0
ARC
  5
33A
330
1F
100
AcDbEntity
  8
Ceco.net 41
100
AcDbCircle
 10
-12.55280942501797
 20
0.2251275861147519
 30
0.0
 40
0.03
100
AcDbArc
 50
179.9999999999986
 51
259.9405302531874
  0
ARC
  5
33B
330
1F
100
AcDbEntity
  8
Ceco.net 41
100
AcDbCircle
 10
-9.586996245049077
 20
16.94359884976671
 30
0.0
 40
17.00949731917979
100
AcDbArc
 50
259.9405302531784
 51
264.9548989796749
  0
LINE
  5
33C
330
1F
100
AcDbEntity
  8
Ceco.net 41
100
AcDbLine
 10
-12.58280942501797
 20
0.2251275861147519
 30
0.0
 11
-12.58280942501797
 21
0.2700000000000031
 31
0.0
  0
LINE
  5
33D
330
1F
100
AcDbEntity
  8
Ceco.net 41
100
AcDbLine
 10
-12.2528898589463
 20
0.1545556735638218
 30
0.0
 11
-12.2528898589463
 21
0.3545556735638229
 31
0.0
  0
LINE
  5
33E
330
1F
100
AcDbEntity
  8
Ceco.net 41
100
AcDbLine
 10
-12.20288985894629
 20
0.1545556735638218
 30
0.0
 11
-12.20288985894629
 21
0.3545556735638229
 31
0.0
  0
LINE
  5
33F
330
1F
100
AcDbEntity
  8
Ceco.net 41
100
AcDbLine
 10
-12.3528898589463
 20
0.2295556735638229
 30
0.0
 11
-12.3528898589463
 21
0.2795556735638218
 31
0.0
  0
LINE
  5
340
330
1F
100
AcDbEntity
  8
Ceco.net 41
100
AcDbLine
 10
-12.2928898589463
 20
0.2295556735638229
 30
0.0
 11
-12.2928898589463
 21
0.2795556735638218
 31
0.0
  0
ARC
  5
341
330
1F
100
AcDbEntity
  8
Ceco.net 41
100
AcDbCircle
 10
-3.126045167633655
 20
103.5674693083737
 30
0.0
 40
102.0899776092277
100
AcDbArc
 50
266.8241414188368
 51
266.984069576034
  0
LINE
  5
342
330
1F
100
AcDbEntity
  8
Ceco.net 41
100
AcDbLine
 10
-9.028607181632533
 20
1.163560826568232
 30
0.0
 11
-8.077149515982696
 21
1.979065360955094
 31
0.0
  0
LINE
  5
343
330
1F
100
AcDbEntity
  8
Ceco.net 41
100
AcDbLine
 10
-8.950297198904337
 20
1.164828307518687
 30
0.0
 11
-7.998839533254516
 21
1.98033284190555
 31
0.0
  0
ARC
  5
344
330
1F
100
AcDbEntity
  8
Ceco.net 41
100
AcDbCircle
 10
-8.284959609421187
 20
0.7618888273378213
 30
0.0
 40
1.74782209834599
100
AcDbArc
 50
96.04255506186541
 51
133.5045301811
  0
ARC
  5
345
330
1F
100
AcDbEntity
  8
Ceco.net 41
100
AcDbCircle
 10
-9.706595649002837
 20
2.40246306790581
 30
0.0
 40
0.4321082473138726
100
AcDbArc
 50
300.3620507934126
 51
69.70575989190726
  0
ARC
  5
346
330
1F
100
AcDbEntity
  8
Ceco.net 41
100
AcDbCircle
 10
-11.04623017311661
 20
-37.98258174978228
 30
0.0
 40
40.56453882116065
100
AcDbArc
 50
79.05275847873109
 51
80.60771467866416
  0
ARC
  5
347
330
1F
100
AcDbEntity
  8
Ceco.net 41
100
AcDbCircle
 10
-6.148985051006601
 20
-4.459484040859731
 30
0.0
 40
7.280275233351829
100
AcDbArc
 50
62.50795886172142
 51
63.61925142614592
  0
ARC
  5
348
330
1F
100
AcDbEntity
  8
Ceco.net 41
100
AcDbCircle
 10
-6.481976130401161
 20
-6.497887754362693
 30
0.0
 40
9.563247103385384
100
AcDbArc
 50
62.27952374022191
 51
63.67423489593555
  0
LINE
  5
349
330
1F
100
AcDbEntity
  8
Ceco.net 41
 62
     5
100
AcDbLine
 10
4.518365656717985
 20
0.0000000000000036
 30
0.0
 11
-13.2657143155442
 21
0.0000000000000036
 31
0.0
  0
ENDSEC
  0
SECTION
  2
OBJECTS
  0
DICTIONARY
  5
C
330
0
100
AcDbDictionary
281
     1
  3
ACAD_GROUP
350
D
  3
ACAD_LAYOUT
350
1A
  3
ACAD_MLINESTYLE
350
17
  3
ACAD_PLOTSETTINGS
350
19
  3
ACAD_PLOTSTYLENAME
350
E
  3
AcDbVariableDictionary
350
34C
  0
DICTIONARY
  5
D
102
{ACAD_REACTORS
330
C
102
}
330
C
100
AcDbDictionary
281
     1
  0
DICTIONARY
  5
1A
102
{ACAD_REACTORS
330
C
102
}
330
C
100
AcDbDictionary
281
     1
  3
Layout1
350
1E
  3
Layout2
350
26
  3
Model
350
22
  0
DICTIONARY
  5
17
102
{ACAD_REACTORS
330
C
102
}
330
C
100
AcDbDictionary
281
     1
  3
Standard
350
18
  0
DICTIONARY
  5
19
102
{ACAD_REACTORS
330
C
102
}
330
C
100
AcDbDictionary
281
     1
  0
ACDBDICTIONARYWDFLT
  5
E
102
{ACAD_REACTORS
330
C
102
}
330
C
100
AcDbDictionary
281
     1
  3
Normal
350
F
100
AcDbDictionaryWithDefault
340
F
  0
DICTIONARY
  5
34C
102
{ACAD_REACTORS
330
C
102
}
330
C
100
AcDbDictionary
281
     1
  3
DIMASSOC
350
34E
  3
HIDETEXT
350
34D
  0
LAYOUT
  5
1E
102
{ACAD_REACTORS
330
1A
102
}
330
1A
100
AcDbPlotSettings
  1

  2
Microsoft Office Document Image Writer
  4

  6

 40
0.0
 41
0.0
 42
0.0
 43
0.0
 44
0.0
 45
0.0
 46
0.0
 47
0.0
 48
0.0
 49
0.0
140
0.0
141
0.0
142
1.0
143
1.0
 70
   688
 72
     0
 73
     0
 74
     5
  7

 75
    16
147
1.0
148
0.0
149
0.0
100
AcDbLayout
  1
Layout1
 70
     1
 71
     1
 10
0.0
 20
0.0
 11
420.0
 21
297.0
 12
0.0
 22
0.0
 32
0.0
 14
1.000000000000000E+20
 24
1.000000000000000E+20
 34
1.000000000000000E+20
 15
-1.000000000000000E+20
 25
-1.000000000000000E+20
 35
-1.000000000000000E+20
146
0.0
 13
0.0
 23
0.0
 33
0.0
 16
1.0
 26
0.0
 36
0.0
 17
0.0
 27
1.0
 37
0.0
 76
     0
330
1B
  0
LAYOUT
  5
26
102
{ACAD_REACTORS
330
1A
102
}
330
1A
100
AcDbPlotSettings
  1

  2
Microsoft Office Document Image Writer
  4

  6

 40
0.0
 41
0.0
 42
0.0
 43
0.0
 44
0.0
 45
0.0
 46
0.0
 47
0.0
 48
0.0
 49
0.0
140
0.0
141
0.0
142
1.0
143
1.0
 70
   688
 72
     0
 73
     0
 74
     5
  7

 75
    16
147
1.0
148
0.0
149
0.0
100
AcDbLayout
  1
Layout2
 70
     1
 71
     2
 10
0.0
 20
0.0
 11
12.0
 21
9.0
 12
0.0
 22
0.0
 32
0.0
 14
0.0
 24
0.0
 34
0.0
 15
0.0
 25
0.0
 35
0.0
146
0.0
 13
0.0
 23
0.0
 33
0.0
 16
1.0
 26
0.0
 36
0.0
 17
0.0
 27
1.0
 37
0.0
 76
     0
330
23
  0
LAYOUT
  5
22
102
{ACAD_REACTORS
330
1A
102
}
330
1A
100
AcDbPlotSettings
  1

  2
Microsoft Office Document Image Writer
  4

  6

 40
0.0
 41
0.0
 42
0.0
 43
0.0
 44
0.0
 45
0.0
 46
0.0
 47
0.0
 48
0.0
 49
0.0
140
0.0
141
0.0
142
1.0
143
1.0
 70
  1712
 72
     0
 73
     0
 74
     0
  7

 75
     0
147
1.0
148
0.0
149
0.0
100
AcDbLayout
  1
Model
 70
     1
 71
     0
 10
0.0
 20
0.0
 11
12.0
 21
9.0
 12
0.0
 22
0.0
 32
0.0
 14
0.0
 24
0.0
 34
0.0
 15
0.0
 25
0.0
 35
0.0
146
0.0
 13
0.0
 23
0.0
 33
0.0
 16
1.0
 26
0.0
 36
0.0
 17
0.0
 27
1.0
 37
0.0
 76
     0
330
1F
  0
MLINESTYLE
  5
18
102
{ACAD_REACTORS
330
17
102
}
330
17
100
AcDbMlineStyle
  2
STANDARD
 70
     0
  3

 62
   256
 51
90.0
 52
90.0
 71
     2
 49
0.5
 62
   256
  6
BYLAYER
 49
-0.5
 62
   256
  6
BYLAYER
  0
ACDBPLACEHOLDER
  5
F
102
{ACAD_REACTORS
330
E
102
}
330
E
  0
DICTIONARYVAR
  5
34E
102
{ACAD_REACTORS
330
34C
102
}
330
34C
100
DictionaryVariables
280
     0
  1
2
  0
DICTIONARYVAR
  5
34D
102
{ACAD_REACTORS
330
34C
102
}
330
34C
100
DictionaryVariables
280
     0
  1
1
  0
ENDSEC
  0
EOF
