  0
SECTION
  2
HEADER
  9
$ACADVER
  1
AC1015
  9
$ACADMAINTVER
 70
    13
  9
$DWGCODEPAGE
  3
ANSI_1252
  9
$INSBASE
 10
0.0
 20
0.0
 30
0.0
  9
$EXTMIN
 10
-31.67371598269979
 20
-0.0000000000001137
 30
0.0
  9
$EXTMAX
 10
493.2182369046244
 20
867.2610102820959
 30
0.0
  9
$LIMMIN
 10
0.0
 20
0.0
  9
$LIMMAX
 10
420.0
 20
297.0
  9
$ORTHOMODE
 70
     0
  9
$REGENMODE
 70
     1
  9
$FILLMODE
 70
     1
  9
$QTEXTMODE
 70
     0
  9
$MIRRTEXT
 70
     1
  9
$LTSCALE
 40
1.0
  9
$ATTMODE
 70
     1
  9
$TEXTSIZE
 40
2.5
  9
$TRACEWID
 40
1.0
  9
$TEXTSTYLE
  7
Standard
  9
$CLAYER
  8
ceco.net 305
  9
$CELTYPE
  6
ByLayer
  9
$CECOLOR
 62
   256
  9
$CELTSCALE
 40
1.0
  9
$DISPSILH
 70
     0
  9
$DIMSCALE
 40
1.0
  9
$DIMASZ
 40
2.5
  9
$DIMEXO
 40
0.625
  9
$DIMDLI
 40
3.75
  9
$DIMRND
 40
0.0
  9
$DIMDLE
 40
0.0
  9
$DIMEXE
 40
1.25
  9
$DIMTP
 40
0.0
  9
$DIMTM
 40
0.0
  9
$DIMTXT
 40
2.5
  9
$DIMCEN
 40
2.5
  9
$DIMTSZ
 40
0.0
  9
$DIMTOL
 70
     0
  9
$DIMLIM
 70
     0
  9
$DIMTIH
 70
     0
  9
$DIMTOH
 70
     0
  9
$DIMSE1
 70
     0
  9
$DIMSE2
 70
     0
  9
$DIMTAD
 70
     1
  9
$DIMZIN
 70
     8
  9
$DIMBLK
  1

  9
$DIMASO
 70
     1
  9
$DIMSHO
 70
     1
  9
$DIMPOST
  1

  9
$DIMAPOST
  1

  9
$DIMALT
 70
     0
  9
$DIMALTD
 70
     3
  9
$DIMALTF
 40
0.03937007874016
  9
$DIMLFAC
 40
1.0
  9
$DIMTOFL
 70
     1
  9
$DIMTVP
 40
0.0
  9
$DIMTIX
 70
     0
  9
$DIMSOXD
 70
     0
  9
$DIMSAH
 70
     0
  9
$DIMBLK1
  1

  9
$DIMBLK2
  1

  9
$DIMSTYLE
  2
ISO-25
  9
$DIMCLRD
 70
     0
  9
$DIMCLRE
 70
     0
  9
$DIMCLRT
 70
     0
  9
$DIMTFAC
 40
1.0
  9
$DIMGAP
 40
0.625
  9
$DIMJUST
 70
     0
  9
$DIMSD1
 70
     0
  9
$DIMSD2
 70
     0
  9
$DIMTOLJ
 70
     0
  9
$DIMTZIN
 70
     8
  9
$DIMALTZ
 70
     0
  9
$DIMALTTZ
 70
     0
  9
$DIMUPT
 70
     0
  9
$DIMDEC
 70
     2
  9
$DIMTDEC
 70
     2
  9
$DIMALTU
 70
     2
  9
$DIMALTTD
 70
     3
  9
$DIMTXSTY
  7
Standard
  9
$DIMAUNIT
 70
     0
  9
$DIMADEC
 70
     0
  9
$DIMALTRND
 40
0.0
  9
$DIMAZIN
 70
     0
  9
$DIMDSEP
 70
    44
  9
$DIMATFIT
 70
     3
  9
$DIMFRAC
 70
     0
  9
$DIMLDRBLK
  1

  9
$DIMLUNIT
 70
     2
  9
$DIMLWD
 70
    -2
  9
$DIMLWE
 70
    -2
  9
$DIMTMOVE
 70
     0
  9
$LUNITS
 70
     2
  9
$LUPREC
 70
     4
  9
$SKETCHINC
 40
1.0
  9
$FILLETRAD
 40
10.0
  9
$AUNITS
 70
     0
  9
$AUPREC
 70
     0
  9
$MENU
  1
.
  9
$ELEVATION
 40
0.0
  9
$PELEVATION
 40
0.0
  9
$THICKNESS
 40
0.0
  9
$LIMCHECK
 70
     0
  9
$CHAMFERA
 40
10.0
  9
$CHAMFERB
 40
10.0
  9
$CHAMFERC
 40
20.0
  9
$CHAMFERD
 40
0.0
  9
$SKPOLY
 70
     0
  9
$TDCREATE
 40
2457858.695660799
  9
$TDUCREATE
 40
2457858.820660799
  9
$TDUPDATE
 40
2457862.021704143
  9
$TDUUPDATE
 40
2457862.146704143
  9
$TDINDWG
 40
0.0024659259
  9
$TDUSRTIMER
 40
0.0024659144
  9
$USRTIMER
 70
     1
  9
$ANGBASE
 50
0.0
  9
$ANGDIR
 70
     0
  9
$PDMODE
 70
     0
  9
$PDSIZE
 40
0.0
  9
$PLINEWID
 40
0.0
  9
$SPLFRAME
 70
     0
  9
$SPLINETYPE
 70
     6
  9
$SPLINESEGS
 70
     8
  9
$HANDSEED
  5
104
  9
$SURFTAB1
 70
     6
  9
$SURFTAB2
 70
     6
  9
$SURFTYPE
 70
     6
  9
$SURFU
 70
     6
  9
$SURFV
 70
     6
  9
$UCSBASE
  2

  9
$UCSNAME
  2

  9
$UCSORG
 10
0.0
 20
0.0
 30
0.0
  9
$UCSXDIR
 10
1.0
 20
0.0
 30
0.0
  9
$UCSYDIR
 10
0.0
 20
1.0
 30
0.0
  9
$UCSORTHOREF
  2

  9
$UCSORTHOVIEW
 70
     0
  9
$UCSORGTOP
 10
0.0
 20
0.0
 30
0.0
  9
$UCSORGBOTTOM
 10
0.0
 20
0.0
 30
0.0
  9
$UCSORGLEFT
 10
0.0
 20
0.0
 30
0.0
  9
$UCSORGRIGHT
 10
0.0
 20
0.0
 30
0.0
  9
$UCSORGFRONT
 10
0.0
 20
0.0
 30
0.0
  9
$UCSORGBACK
 10
0.0
 20
0.0
 30
0.0
  9
$PUCSBASE
  2

  9
$PUCSNAME
  2

  9
$PUCSORG
 10
0.0
 20
0.0
 30
0.0
  9
$PUCSXDIR
 10
1.0
 20
0.0
 30
0.0
  9
$PUCSYDIR
 10
0.0
 20
1.0
 30
0.0
  9
$PUCSORTHOREF
  2

  9
$PUCSORTHOVIEW
 70
     0
  9
$PUCSORGTOP
 10
0.0
 20
0.0
 30
0.0
  9
$PUCSORGBOTTOM
 10
0.0
 20
0.0
 30
0.0
  9
$PUCSORGLEFT
 10
0.0
 20
0.0
 30
0.0
  9
$PUCSORGRIGHT
 10
0.0
 20
0.0
 30
0.0
  9
$PUCSORGFRONT
 10
0.0
 20
0.0
 30
0.0
  9
$PUCSORGBACK
 10
0.0
 20
0.0
 30
0.0
  9
$USERI1
 70
     0
  9
$USERI2
 70
     0
  9
$USERI3
 70
     0
  9
$USERI4
 70
     0
  9
$USERI5
 70
     0
  9
$USERR1
 40
0.0
  9
$USERR2
 40
0.0
  9
$USERR3
 40
0.0
  9
$USERR4
 40
0.0
  9
$USERR5
 40
0.0
  9
$WORLDVIEW
 70
     1
  9
$SHADEDGE
 70
     3
  9
$SHADEDIF
 70
    70
  9
$TILEMODE
 70
     1
  9
$MAXACTVP
 70
    64
  9
$PINSBASE
 10
0.0
 20
0.0
 30
0.0
  9
$PLIMCHECK
 70
     0
  9
$PEXTMIN
 10
0.0
 20
0.0
 30
0.0
  9
$PEXTMAX
 10
0.0
 20
0.0
 30
0.0
  9
$PLIMMIN
 10
0.0
 20
0.0
  9
$PLIMMAX
 10
12.0
 20
9.0
  9
$UNITMODE
 70
     0
  9
$VISRETAIN
 70
     1
  9
$PLINEGEN
 70
     0
  9
$PSLTSCALE
 70
     1
  9
$TREEDEPTH
 70
  3020
  9
$CMLSTYLE
  2
Standard
  9
$CMLJUST
 70
     0
  9
$CMLSCALE
 40
20.0
  9
$PROXYGRAPHICS
 70
     1
  9
$MEASUREMENT
 70
     1
  9
$CELWEIGHT
370
    -1
  9
$ENDCAPS
280
     0
  9
$JOINSTYLE
280
     0
  9
$LWDISPLAY
290
     0
  9
$INSUNITS
 70
     4
  9
$HYPERLINKBASE
  1

  9
$STYLESHEET
  1

  9
$XEDIT
290
     1
  9
$CEPSNTYPE
380
     0
  9
$PSTYLEMODE
290
     1
  9
$FINGERPRINTGUID
  2
{FDEAD578-A652-11D2-9A35-0060089B3A3F}
  9
$VERSIONGUID
  2
{26114C49-5665-49FD-AED8-1518FDA10685}
  9
$EXTNAMES
290
     1
  9
$PSVPSCALE
 40
0.0
  9
$OLESTARTUP
290
     0
  0
ENDSEC
  0
SECTION
  2
CLASSES
  0
CLASS
  1
ACDBDICTIONARYWDFLT
  2
AcDbDictionaryWithDefault
  3
AutoCAD 2000
 90
        0
280
     0
281
     0
  0
CLASS
  1
ACDBPLACEHOLDER
  2
AcDbPlaceHolder
  3
AutoCAD 2000
 90
        0
280
     0
281
     0
  0
CLASS
  1
LAYOUT
  2
AcDbLayout
  3
AutoCAD 2000
 90
        0
280
     0
281
     0
  0
CLASS
  1
DICTIONARYVAR
  2
AcDbDictionaryVar
  3
AutoCAD 2000
 90
        0
280
     0
281
     0
  0
ENDSEC
  0
SECTION
  2
TABLES
  0
TABLE
  2
VPORT
  5
8
330
0
100
AcDbSymbolTable
 70
     2
  0
VPORT
  5
103
330
8
100
AcDbSymbolTableRecord
100
AcDbViewportTableRecord
  2
*Active
 70
     0
 10
0.0
 20
0.0
 11
1.0
 21
1.0
 12
230.7641611583114
 22
433.6333246928794
 13
0.0
 23
0.0
 14
10.0
 24
10.0
 15
10.0
 25
10.0
 16
0.0
 26
0.0
 36
1.0
 17
0.0
 27
0.0
 37
0.0
 40
873.4503070231593
 41
2.187425860023724
 42
50.0
 43
0.0
 44
0.0
 50
0.0
 51
0.0
 71
     0
 72
   100
 73
     1
 74
     3
 75
     0
 76
     0
 77
     0
 78
     0
281
     0
 65
     1
110
0.0
120
0.0
130
0.0
111
1.0
121
0.0
131
0.0
112
0.0
122
1.0
132
0.0
 79
     0
146
0.0
  0
ENDTAB
  0
TABLE
  2
LTYPE
  5
5
330
0
100
AcDbSymbolTable
 70
     1
  0
LTYPE
  5
14
330
5
100
AcDbSymbolTableRecord
100
AcDbLinetypeTableRecord
  2
ByBlock
 70
     0
  3

 72
    65
 73
     0
 40
0.0
  0
LTYPE
  5
15
330
5
100
AcDbSymbolTableRecord
100
AcDbLinetypeTableRecord
  2
ByLayer
 70
     0
  3

 72
    65
 73
     0
 40
0.0
  0
LTYPE
  5
16
330
5
100
AcDbSymbolTableRecord
100
AcDbLinetypeTableRecord
  2
Continuous
 70
     0
  3
Solid line
 72
    65
 73
     0
 40
0.0
  0
ENDTAB
  0
TABLE
  2
LAYER
  5
2
102
{ACAD_XDICTIONARY
360
8D
102
}
330
0
100
AcDbSymbolTable
 70
     2
  0
LAYER
  5
10
330
2
100
AcDbSymbolTableRecord
100
AcDbLayerTableRecord
  2
0
 70
     0
 62
     7
  6
Continuous
370
    -3
390
F
  0
LAYER
  5
76
102
{ACAD_XDICTIONARY
360
77
102
}
330
2
100
AcDbSymbolTableRecord
100
AcDbLayerTableRecord
  2
ceco.net 305
 70
     0
 62
     7
  6
Continuous
370
    -3
390
F
1001
AcAecLayerStandard
1000

1000

  0
ENDTAB
  0
TABLE
  2
STYLE
  5
3
330
0
100
AcDbSymbolTable
 70
     1
  0
STYLE
  5
11
330
3
100
AcDbSymbolTableRecord
100
AcDbTextStyleTableRecord
  2
Standard
 70
     0
 40
0.0
 41
1.0
 50
0.0
 71
     0
 42
2.5
  3
txt
  4

  0
ENDTAB
  0
TABLE
  2
VIEW
  5
6
330
0
100
AcDbSymbolTable
 70
     0
  0
ENDTAB
  0
TABLE
  2
UCS
  5
7
330
0
100
AcDbSymbolTable
 70
     0
  0
ENDTAB
  0
TABLE
  2
APPID
  5
9
330
0
100
AcDbSymbolTable
 70
    20
  0
APPID
  5
12
330
9
100
AcDbSymbolTableRecord
100
AcDbRegAppTableRecord
  2
ACAD
 70
     0
  0
APPID
  5
7A
330
9
100
AcDbSymbolTableRecord
100
AcDbRegAppTableRecord
  2
ACAD_DSTYLE_DIMJOGGED_JOGANGLE_SYMBOL
 70
     0
  0
APPID
  5
7B
330
9
100
AcDbSymbolTableRecord
100
AcDbRegAppTableRecord
  2
ACAD_NAV_VCDISPLAY
 70
     0
  0
APPID
  5
7C
330
9
100
AcDbSymbolTableRecord
100
AcDbRegAppTableRecord
  2
ACAD_MLEADERVER
 70
     0
  0
APPID
  5
7D
330
9
100
AcDbSymbolTableRecord
100
AcDbRegAppTableRecord
  2
ODA
 70
     0
  0
APPID
  5
7E
330
9
100
AcDbSymbolTableRecord
100
AcDbRegAppTableRecord
  2
AcAecLayerStandard
 70
     0
  0
APPID
  5
7F
330
9
100
AcDbSymbolTableRecord
100
AcDbRegAppTableRecord
  2
ACAD_EXEMPT_FROM_CAD_STANDARDS
 70
     0
  0
APPID
  5
80
330
9
100
AcDbSymbolTableRecord
100
AcDbRegAppTableRecord
  2
DCO15
 70
     0
  0
APPID
  5
81
330
9
100
AcDbSymbolTableRecord
100
AcDbRegAppTableRecord
  2
AcCmTransparency
 70
     0
  0
APPID
  5
82
330
9
100
AcDbSymbolTableRecord
100
AcDbRegAppTableRecord
  2
ACAD_PSEXT
 70
     0
  0
APPID
  5
83
330
9
100
AcDbSymbolTableRecord
100
AcDbRegAppTableRecord
  2
RAK
 70
     0
  0
APPID
  5
84
330
9
100
AcDbSymbolTableRecord
100
AcDbRegAppTableRecord
  2
ACAD_DSTYLE_DIMJAG
 70
     0
  0
APPID
  5
85
330
9
100
AcDbSymbolTableRecord
100
AcDbRegAppTableRecord
  2
ACAD_DSTYLE_DIMTALN
 70
     0
  0
APPID
  5
86
330
9
100
AcDbSymbolTableRecord
100
AcDbRegAppTableRecord
  2
ACAD_DSTYLE_DIMTEXT_FILL
 70
     0
  0
APPID
  5
87
330
9
100
AcDbSymbolTableRecord
100
AcDbRegAppTableRecord
  2
ACAD_DSTYLE_DIMBREAK
 70
     0
  0
APPID
  5
88
330
9
100
AcDbSymbolTableRecord
100
AcDbRegAppTableRecord
  2
REVIT
 70
     0
  0
APPID
  5
89
330
9
100
AcDbSymbolTableRecord
100
AcDbRegAppTableRecord
  2
AcadAnnoPO
 70
     0
  0
APPID
  5
8A
330
9
100
AcDbSymbolTableRecord
100
AcDbRegAppTableRecord
  2
ACAD_DSTYLE_DIM_LINETYPE
 70
     0
  0
APPID
  5
8B
330
9
100
AcDbSymbolTableRecord
100
AcDbRegAppTableRecord
  2
ACAD_DSTYLE_DIM_EXT1_LINETYPE
 70
     0
  0
APPID
  5
8C
330
9
100
AcDbSymbolTableRecord
100
AcDbRegAppTableRecord
  2
ACAD_DSTYLE_DIM_EXT2_LINETYPE
 70
     0
  0
ENDTAB
  0
TABLE
  2
DIMSTYLE
  5
A
330
0
100
AcDbSymbolTable
 70
     2
100
AcDbDimStyleTable
 71
     0
  0
DIMSTYLE
105
27
330
A
100
AcDbSymbolTableRecord
100
AcDbDimStyleTableRecord
  2
ISO-25
 70
     0
 41
2.5
 42
0.625
 43
3.75
 44
1.25
 73
     0
 74
     0
 77
     1
 78
     8
140
2.5
141
2.5
143
0.03937007874016
147
0.625
171
     3
172
     1
271
     2
272
     2
274
     3
278
    44
283
     0
284
     8
340
11
  0
DIMSTYLE
105
79
330
A
100
AcDbSymbolTableRecord
100
AcDbDimStyleTableRecord
  2
Standard
 70
     0
340
11
  0
ENDTAB
  0
TABLE
  2
BLOCK_RECORD
  5
1
330
0
100
AcDbSymbolTable
 70
     1
  0
BLOCK_RECORD
  5
1F
330
1
100
AcDbSymbolTableRecord
100
AcDbBlockTableRecord
  2
*Model_Space
340
22
  0
BLOCK_RECORD
  5
50
330
1
100
AcDbSymbolTableRecord
100
AcDbBlockTableRecord
  2
*Paper_Space
340
51
  0
BLOCK_RECORD
  5
55
330
1
100
AcDbSymbolTableRecord
100
AcDbBlockTableRecord
  2
*Paper_Space0
340
56
  0
ENDTAB
  0
ENDSEC
  0
SECTION
  2
BLOCKS
  0
BLOCK
  5
20
330
1F
100
AcDbEntity
  8
0
100
AcDbBlockBegin
  2
*Model_Space
 70
     0
 10
0.0
 20
0.0
 30
0.0
  3
*Model_Space
  1

  0
ENDBLK
  5
21
330
1F
100
AcDbEntity
  8
0
100
AcDbBlockEnd
  0
BLOCK
  5
52
330
50
100
AcDbEntity
 67
     1
  8
0
100
AcDbBlockBegin
  2
*Paper_Space
 70
     0
 10
0.0
 20
0.0
 30
0.0
  3
*Paper_Space
  1

  0
ENDBLK
  5
53
330
50
100
AcDbEntity
 67
     1
  8
0
100
AcDbBlockEnd
  0
BLOCK
  5
57
330
55
100
AcDbEntity
  8
0
100
AcDbBlockBegin
  2
*Paper_Space0
 70
     0
 10
0.0
 20
0.0
 30
0.0
  3
*Paper_Space0
  1

  0
ENDBLK
  5
58
330
55
100
AcDbEntity
  8
0
100
AcDbBlockEnd
  0
ENDSEC
  0
SECTION
  2
ENTITIES
  0
LWPOLYLINE
  5
C9
330
1F
100
AcDbEntity
  8
ceco.net 305
100
AcDbPolyline
 90
        6
 70
     1
 43
0.0
 10
-25.30201913512928
 20
857.4242871832353
 10
464.1410078664957
 20
857.4242871832353
 42
-0.4142135623730951
 10
469.4194943656839
 20
852.1458006840484
 10
469.4194943656839
 20
821.8412627064097
 10
-30.58050563431652
 20
821.8412627064097
 10
-30.58050563431652
 20
852.1458006840484
 42
-0.4142135623730951
  0
LINE
  5
CA
330
1F
100
AcDbEntity
  8
ceco.net 305
100
AcDbLine
 10
467.9417608721723
 20
818.2933917021701
 30
0.0
 11
467.9417608721723
 21
677.2356404105124
 31
0.0
  0
LINE
  5
CB
330
1F
100
AcDbEntity
  8
ceco.net 305
100
AcDbLine
 10
467.9417608721723
 20
677.2356404105124
 30
0.0
 11
451.8965320425268
 21
677.2356404105124
 31
0.0
  0
LINE
  5
CC
330
1F
100
AcDbEntity
  8
ceco.net 305
100
AcDbLine
 10
451.8965320425268
 20
677.2356404105124
 30
0.0
 11
451.8965320425268
 21
672.6636446018694
 31
0.0
  0
LINE
  5
CD
330
1F
100
AcDbEntity
  8
ceco.net 305
100
AcDbLine
 10
-27.32771820071139
 20
818.2933917021701
 30
0.0
 11
-27.32771820071139
 21
4.570328207372085
 31
0.0
  0
LINE
  5
CE
330
1F
100
AcDbEntity
  8
ceco.net 305
100
AcDbLine
 10
-27.32771820071139
 20
4.570328207372085
 30
0.0
 11
451.4626852510573
 21
4.570328207372085
 31
0.0
  0
LINE
  5
CF
330
1F
100
AcDbEntity
  8
ceco.net 305
100
AcDbLine
 10
451.4626852510573
 20
4.570328207372085
 30
0.0
 11
451.4626852510573
 21
206.1351643746456
 31
0.0
  0
LINE
  5
D0
330
1F
100
AcDbEntity
  8
ceco.net 305
100
AcDbLine
 10
451.4626852510573
 20
206.1351643746456
 30
0.0
 11
445.4096897441377
 21
206.1351643746456
 31
0.0
  0
LINE
  5
D1
330
1F
100
AcDbEntity
  8
ceco.net 305
100
AcDbLine
 10
445.4096897441377
 20
206.1351643746456
 30
0.0
 11
445.4096897441377
 21
672.3771065699919
 31
0.0
  0
LINE
  5
D2
330
1F
100
AcDbEntity
  8
ceco.net 305
100
AcDbLine
 10
445.4096897441377
 20
672.3771065699919
 30
0.0
 11
461.9386691276149
 21
672.3771065699919
 31
0.0
  0
LINE
  5
D3
330
1F
100
AcDbEntity
  8
ceco.net 305
100
AcDbLine
 10
461.9386691276149
 20
672.3771065699919
 30
0.0
 11
461.938669127614
 21
206.1351643746455
 31
0.0
  0
LINE
  5
D4
330
1F
100
AcDbEntity
  8
ceco.net 305
100
AcDbLine
 10
461.9386691276149
 20
206.1351643746456
 30
0.0
 11
451.4626852510573
 21
206.1351643746456
 31
0.0
  0
LWPOLYLINE
  5
D5
330
1F
100
AcDbEntity
  8
ceco.net 305
100
AcDbPolyline
 90
        4
 70
     1
 43
0.0
 10
451.4626852510573
 20
199.9731158023693
 10
458.834075468876
 20
199.9731158023693
 10
458.834075468876
 20
30.6394968037905
 10
451.4626852510573
 20
30.6394968037905
  0
LINE
  5
D6
330
1F
100
AcDbEntity
  8
ceco.net 305
100
AcDbLine
 10
461.9386691276149
 20
657.1303267007912
 30
0.0
 11
480.6891868853681
 21
657.1303267007912
 31
0.0
  0
LINE
  5
D7
330
1F
100
AcDbEntity
  8
ceco.net 305
100
AcDbLine
 10
461.9386691276149
 20
645.4594863760872
 30
0.0
 11
477.8482174388591
 21
645.4594863760872
 31
0.0
  0
LINE
  5
D8
330
1F
100
AcDbEntity
  8
ceco.net 305
100
AcDbLine
 10
477.8482174388591
 20
645.4594863760872
 30
0.0
 11
477.8482174388591
 21
632.5278770627659
 31
0.0
  0
LINE
  5
D9
330
1F
100
AcDbEntity
  8
ceco.net 305
100
AcDbLine
 10
477.8482174388591
 20
632.5278770627659
 30
0.0
 11
491.5269232845402
 21
632.5278770627659
 31
0.0
  0
LINE
  5
DA
330
1F
100
AcDbEntity
  8
ceco.net 305
100
AcDbLine
 10
491.5269232845402
 20
632.5278770627659
 30
0.0
 11
491.5269232845402
 21
647.5623397770403
 31
0.0
  0
ARC
  5
DB
330
1F
100
AcDbEntity
  8
ceco.net 305
100
AcDbCircle
 10
479.9703743021701
 20
645.3941324305134
 30
0.0
 40
11.75818640265029
100
AcDbArc
 50
10.62614207211912
 51
86.49515477312863
  0
LWPOLYLINE
  5
DC
330
1F
100
AcDbEntity
  8
ceco.net 305
100
AcDbPolyline
 90
        4
 70
     1
 43
0.0
 10
467.9417608721723
 20
760.4564610946357
 10
479.0398003707777
 20
760.4564610946357
 10
479.0398003707777
 20
717.0451554462057
 10
467.9417608721723
 20
717.0451554462057
  0
ARC
  5
DD
330
1F
100
AcDbEntity
  8
ceco.net 305
100
AcDbCircle
 10
478.1645994260716
 20
738.0274473088753
 30
0.0
 40
7.663756379690633
100
AcDbArc
 50
276.5574841816623
 51
83.44251581833756
  0
ARC
  5
DE
330
1F
100
AcDbEntity
  8
ceco.net 305
100
AcDbCircle
 10
478.1645994260716
 20
738.0274473088753
 30
0.0
 40
15.05363747855277
100
AcDbArc
 50
273.3329893225222
 51
86.66701067747776
  0
LINE
  5
DF
330
1F
100
AcDbEntity
  8
ceco.net 305
100
AcDbLine
 10
467.9417608721723
 20
818.2933917021701
 30
0.0
 11
467.9417608721723
 21
821.8412627064097
 31
0.0
  0
LINE
  5
E0
330
1F
100
AcDbEntity
  8
ceco.net 305
100
AcDbLine
 10
-27.32771820071139
 20
818.2933917021701
 30
0.0
 11
-27.32771820071139
 21
821.8412627064097
 31
0.0
  0
LWPOLYLINE
  5
E1
330
1F
100
AcDbEntity
  8
ceco.net 305
100
AcDbPolyline
 90
        4
 70
     1
 43
0.0
 10
470.9708023243884
 20
704.4005194784857
 10
467.9417608721723
 20
704.4005194784857
 10
467.9417608721723
 20
717.0451554462057
 10
470.9708023243884
 20
717.0451554462057
  0
ARC
  5
E2
330
1F
100
AcDbEntity
  8
ceco.net 305
100
AcDbCircle
 10
41.56961202275943
 20
721.9066900560102
 30
0.0
 40
143.5197930250928
100
AcDbArc
 50
90.68922763557528
 51
109.2231773979298
  0
LINE
  5
E3
330
1F
100
AcDbEntity
  8
ceco.net 305
100
AcDbLine
 10
39.84321222801736
 20
865.4160992726678
 30
0.0
 11
83.07041066900728
 21
865.4160992726678
 31
0.0
  0
LINE
  5
E4
330
1F
100
AcDbEntity
  8
ceco.net 305
100
AcDbLine
 10
83.07041066900728
 20
865.4160992726678
 30
0.0
 11
83.07041066900728
 21
861.3919598032957
 31
0.0
  0
LINE
  5
E5
330
1F
100
AcDbEntity
  8
ceco.net 305
100
AcDbLine
 10
83.07041066900728
 20
861.3919598032957
 30
0.0
 11
66.773956483657
 21
861.3919598032957
 31
0.0
  0
ARC
  5
E6
330
1F
100
AcDbEntity
  8
ceco.net 305
100
AcDbCircle
 10
67.06551252061444
 20
666.2191953553941
 30
0.0
 40
195.1729822161835
100
AcDbArc
 50
90.0855904153996
 51
101.5730050818891
  0
ARC
  5
E7
330
1F
100
AcDbEntity
  8
ceco.net 305
100
AcDbCircle
 10
176.0586365528706
 20
760.9600692738123
 30
0.0
 40
104.4928193289063
100
AcDbArc
 50
67.39340824606824
 51
88.47956419205578
  0
LINE
  5
E8
330
1F
100
AcDbEntity
  8
ceco.net 305
100
AcDbLine
 10
178.8311964136873
 20
865.4160992726678
 30
0.0
 11
157.3552929600018
 21
865.4160992726678
 31
0.0
  0
LINE
  5
E9
330
1F
100
AcDbEntity
  8
ceco.net 305
100
AcDbLine
 10
157.3552929600018
 20
865.4160992726678
 30
0.0
 11
157.3552929600018
 21
861.3919598032957
 31
0.0
  0
LINE
  5
EA
330
1F
100
AcDbEntity
  8
ceco.net 305
100
AcDbLine
 10
157.3552929600018
 20
861.3919598032957
 30
0.0
 11
173.6517471453517
 21
861.3919598032957
 31
0.0
  0
ARC
  5
EB
330
1F
100
AcDbEntity
  8
ceco.net 305
100
AcDbCircle
 10
173.5390343092976
 20
790.7532072523669
 30
0.0
 40
70.63884247448239
100
AcDbArc
 50
70.70508840596132
 51
89.90857759956183
  0
ARC
  5
EC
330
1F
100
AcDbEntity
  8
ceco.net 305
100
AcDbCircle
 10
262.7803521784962
 20
760.9600692738123
 30
0.0
 40
104.4928193289063
100
AcDbArc
 50
91.52043580794421
 51
112.6065917539317
  0
LINE
  5
ED
330
1F
100
AcDbEntity
  8
ceco.net 305
100
AcDbLine
 10
260.0077923176795
 20
865.4160992726678
 30
0.0
 11
281.4836957713651
 21
865.4160992726678
 31
0.0
  0
LINE
  5
EE
330
1F
100
AcDbEntity
  8
ceco.net 305
100
AcDbLine
 10
281.4836957713651
 20
865.4160992726678
 30
0.0
 11
281.4836957713651
 21
861.3919598032957
 31
0.0
  0
LINE
  5
EF
330
1F
100
AcDbEntity
  8
ceco.net 305
100
AcDbLine
 10
281.4836957713651
 20
861.3919598032957
 30
0.0
 11
265.1872415860152
 21
861.3919598032957
 31
0.0
  0
ARC
  5
F0
330
1F
100
AcDbEntity
  8
ceco.net 305
100
AcDbCircle
 10
265.2999544220692
 20
790.7532072523669
 30
0.0
 40
70.63884247448239
100
AcDbArc
 50
90.09142240043813
 51
109.2949115940387
  0
LWPOLYLINE
  5
F1
330
1F
100
AcDbEntity
  8
ceco.net 305
100
AcDbPolyline
 90
        4
 70
     1
 43
0.0
 10
117.483864339998
 20
866.0242819621101
 10
128.0804171431664
 20
866.0242819621101
 10
128.0804171431664
 20
857.4242871832353
 10
117.483864339998
 20
857.4242871832353
  0
ARC
  5
F2
330
1F
100
AcDbEntity
  8
ceco.net 305
100
AcDbCircle
 10
397.2693767086075
 20
721.9066900560102
 30
0.0
 40
143.5197930250928
100
AcDbArc
 50
70.77682260207011
 51
89.31077236442474
  0
LINE
  5
F3
330
1F
100
AcDbEntity
  8
ceco.net 305
100
AcDbLine
 10
398.9957765033496
 20
865.4160992726678
 30
0.0
 11
355.7685780623596
 21
865.4160992726678
 31
0.0
  0
LINE
  5
F4
330
1F
100
AcDbEntity
  8
ceco.net 305
100
AcDbLine
 10
355.7685780623596
 20
865.4160992726678
 30
0.0
 11
355.7685780623596
 21
861.3919598032957
 31
0.0
  0
LINE
  5
F5
330
1F
100
AcDbEntity
  8
ceco.net 305
100
AcDbLine
 10
355.7685780623596
 20
861.3919598032957
 30
0.0
 11
372.0650322477104
 21
861.3919598032957
 31
0.0
  0
ARC
  5
F6
330
1F
100
AcDbEntity
  8
ceco.net 305
100
AcDbCircle
 10
371.773476210752
 20
666.2191953553941
 30
0.0
 40
195.1729822161835
100
AcDbArc
 50
78.42699491811086
 51
89.91440958460039
  0
LWPOLYLINE
  5
F7
330
1F
100
AcDbEntity
  8
ceco.net 305
100
AcDbPolyline
 90
        4
 70
     1
 43
0.0
 10
323.1301783314638
 20
866.0242819621101
 10
312.5336255282955
 20
866.0242819621101
 10
312.5336255282955
 20
857.4242871832353
 10
323.1301783314638
 20
857.4242871832353
  0
LINE
  5
F8
330
1F
100
AcDbEntity
  8
ceco.net 305
100
AcDbLine
 10
-0.0000000000004547
 20
4.570328207372085
 30
0.0
 11
-0.0000000000004547
 21
-0.0000000000001137
 31
0.0
  0
LINE
  5
F9
330
1F
100
AcDbEntity
  8
ceco.net 305
100
AcDbLine
 10
18.87171663573008
 20
4.570328207372085
 30
0.0
 11
18.87171663573008
 21
-0.0000000000001137
 31
0.0
  0
LINE
  5
FA
330
1F
100
AcDbEntity
  8
ceco.net 305
100
AcDbLine
 10
0.0
 20
0.0
 30
0.0
 11
18.87171663573008
 21
-0.0000000000001137
 31
0.0
  0
LINE
  5
FB
330
1F
100
AcDbEntity
  8
ceco.net 305
100
AcDbLine
 10
407.0436432983597
 20
4.570328207372085
 30
0.0
 11
407.0436432983597
 21
-0.0000000000001137
 31
0.0
  0
LINE
  5
FC
330
1F
100
AcDbEntity
  8
ceco.net 305
100
AcDbLine
 10
388.1719266626296
 20
4.570328207372085
 30
0.0
 11
388.1719266626296
 21
-0.0000000000001137
 31
0.0
  0
LINE
  5
FD
330
1F
100
AcDbEntity
  8
ceco.net 305
100
AcDbLine
 10
407.0436432983597
 20
0.0
 30
0.0
 11
388.1719266626296
 21
-0.0000000000001137
 31
0.0
  0
ENDSEC
  0
SECTION
  2
OBJECTS
  0
DICTIONARY
  5
C
330
0
100
AcDbDictionary
281
     1
  3
ACAD_GROUP
350
D
  3
ACAD_IMAGE_DICT
350
C7
  3
ACAD_LAYOUT
350
1A
  3
ACAD_MLINESTYLE
350
17
  3
ACAD_PLOTSETTINGS
350
19
  3
ACAD_PLOTSTYLENAME
350
E
  3
AcDbVariableDictionary
350
5E
  0
DICTIONARY
  5
8D
330
2
100
AcDbDictionary
280
     1
281
     1
  3
ACAD_LAYERFILTERS
360
FE
  3
ACAD_LAYERSTATES
360
8E
  0
DICTIONARY
  5
77
330
76
100
AcDbDictionary
280
     1
281
     1
  3
ADSK_XREC_LAYER_RECONCILED
360
78
  0
DICTIONARY
  5
D
102
{ACAD_REACTORS
330
C
102
}
330
C
100
AcDbDictionary
281
     1
  0
DICTIONARY
  5
C7
102
{ACAD_REACTORS
330
C
102
}
330
C
100
AcDbDictionary
281
     1
  0
DICTIONARY
  5
1A
102
{ACAD_REACTORS
330
C
102
}
330
C
100
AcDbDictionary
281
     1
  3
Layout1
350
51
  3
Layout2
350
56
  3
Model
350
22
  0
DICTIONARY
  5
17
102
{ACAD_REACTORS
330
C
102
}
330
C
100
AcDbDictionary
281
     1
  3
Standard
350
18
  0
DICTIONARY
  5
19
102
{ACAD_REACTORS
330
C
102
}
330
C
100
AcDbDictionary
281
     1
  0
ACDBDICTIONARYWDFLT
  5
E
102
{ACAD_REACTORS
330
C
102
}
330
C
100
AcDbDictionary
281
     1
  3
Normal
350
F
100
AcDbDictionaryWithDefault
340
F
  0
DICTIONARY
  5
5E
102
{ACAD_REACTORS
330
C
102
}
330
C
100
AcDbDictionary
281
     1
  3
DIMASSOC
350
5F
  3
HIDETEXT
350
63
  0
DICTIONARY
  5
FE
102
{ACAD_REACTORS
330
8D
102
}
330
8D
100
AcDbDictionary
280
     1
281
     1
  0
DICTIONARY
  5
8E
102
{ACAD_REACTORS
330
8D
102
}
330
8D
100
AcDbDictionary
281
     1
  0
XRECORD
  5
78
102
{ACAD_REACTORS
330
77
102
}
330
77
100
AcDbXrecord
280
     1
290
     1
  0
LAYOUT
  5
51
102
{ACAD_REACTORS
330
1A
102
}
330
1A
100
AcDbPlotSettings
  1

  2
None
  4

  6

 40
0.0
 41
0.0
 42
0.0
 43
0.0
 44
0.0
 45
0.0
 46
0.0
 47
0.0
 48
0.0
 49
0.0
140
0.0
141
0.0
142
1.0
143
1.0
 70
   688
 72
     0
 73
     0
 74
     5
  7

 75
    16
147
1.0
148
0.0
149
0.0
100
AcDbLayout
  1
Layout1
 70
     1
 71
     1
 10
0.0
 20
0.0
 11
12.0
 21
9.0
 12
0.0
 22
0.0
 32
0.0
 14
0.0
 24
0.0
 34
0.0
 15
0.0
 25
0.0
 35
0.0
146
0.0
 13
0.0
 23
0.0
 33
0.0
 16
1.0
 26
0.0
 36
0.0
 17
0.0
 27
1.0
 37
0.0
 76
     0
330
50
  0
LAYOUT
  5
56
102
{ACAD_REACTORS
330
1A
102
}
330
1A
100
AcDbPlotSettings
  1

  2
None
  4

  6

 40
0.0
 41
0.0
 42
0.0
 43
0.0
 44
0.0
 45
0.0
 46
0.0
 47
0.0
 48
0.0
 49
0.0
140
0.0
141
0.0
142
1.0
143
1.0
 70
   688
 72
     0
 73
     0
 74
     5
  7

 75
    16
147
1.0
148
0.0
149
0.0
100
AcDbLayout
  1
Layout2
 70
     1
 71
     2
 10
0.0
 20
0.0
 11
12.0
 21
9.0
 12
0.0
 22
0.0
 32
0.0
 14
0.0
 24
0.0
 34
0.0
 15
0.0
 25
0.0
 35
0.0
146
0.0
 13
0.0
 23
0.0
 33
0.0
 16
1.0
 26
0.0
 36
0.0
 17
0.0
 27
1.0
 37
0.0
 76
     0
330
55
  0
LAYOUT
  5
22
102
{ACAD_REACTORS
330
1A
102
}
330
1A
100
AcDbPlotSettings
  1

  2
none_device
  4
ANSI_A_(8.50_x_11.00_Inches)
  6

 40
6.349999904632568
 41
19.04999923706054
 42
6.350006103515625
 43
19.04998779296875
 44
215.8999938964843
 45
279.3999938964843
 46
0.0
 47
0.0
 48
0.0
 49
0.0
140
0.0
141
0.0
142
1.0
143
78.436453180766
 70
 11952
 72
     0
 73
     1
 74
     0
  7

 75
     0
147
0.0127491741332998
148
0.0
149
0.0
100
AcDbLayout
  1
Model
 70
     1
 71
     0
 10
0.0
 20
0.0
 11
12.0
 21
9.0
 12
0.0
 22
0.0
 32
0.0
 14
0.0
 24
0.0
 34
0.0
 15
0.0
 25
0.0
 35
0.0
146
0.0
 13
0.0
 23
0.0
 33
0.0
 16
1.0
 26
0.0
 36
0.0
 17
0.0
 27
1.0
 37
0.0
 76
     0
330
1F
  0
MLINESTYLE
  5
18
102
{ACAD_REACTORS
330
17
102
}
330
17
100
AcDbMlineStyle
  2
STANDARD
 70
     0
  3

 62
   256
 51
90.0
 52
90.0
 71
     2
 49
0.5
 62
   256
  6
BYLAYER
 49
-0.5
 62
   256
  6
BYLAYER
  0
ACDBPLACEHOLDER
  5
F
102
{ACAD_REACTORS
330
E
102
}
330
E
  0
DICTIONARYVAR
  5
5F
102
{ACAD_REACTORS
330
5E
102
}
330
5E
100
DictionaryVariables
280
     0
  1
2
  0
DICTIONARYVAR
  5
63
102
{ACAD_REACTORS
330
5E
102
}
330
5E
100
DictionaryVariables
280
     0
  1
1
  0
ENDSEC
  0
EOF
