  0
SECTION
  2
HEADER
  9
$ACADVER
  1
AC1015
  9
$ACADMAINTVER
 70
    13
  9
$DWGCODEPAGE
  3
ANSI_1252
  9
$INSBASE
 10
0.0
 20
0.0
 30
0.0
  9
$EXTMIN
 10
-434.5532019157544
 20
-59.29971803611261
 30
-0.0015258207003583
  9
$EXTMAX
 10
3760.749392442725
 20
1435.056916495916
 30
0.0000000349246037
  9
$LIMMIN
 10
0.0
 20
0.0
  9
$LIMMAX
 10
420.0
 20
297.0
  9
$ORTHOMODE
 70
     0
  9
$REGENMODE
 70
     1
  9
$FILLMODE
 70
     1
  9
$QTEXTMODE
 70
     0
  9
$MIRRTEXT
 70
     1
  9
$LTSCALE
 40
1.0
  9
$ATTMODE
 70
     1
  9
$TEXTSIZE
 40
2.5
  9
$TRACEWID
 40
1.0
  9
$TEXTSTYLE
  7
Standard
  9
$CLAYER
  8
ceco.net 222 Nissan Z350 - sideway 2
  9
$CELTYPE
  6
ByLayer
  9
$CECOLOR
 62
   256
  9
$CELTSCALE
 40
1.0
  9
$DISPSILH
 70
     0
  9
$DIMSCALE
 40
1.0
  9
$DIMASZ
 40
2.5
  9
$DIMEXO
 40
0.625
  9
$DIMDLI
 40
3.75
  9
$DIMRND
 40
0.0
  9
$DIMDLE
 40
0.0
  9
$DIMEXE
 40
1.25
  9
$DIMTP
 40
0.0
  9
$DIMTM
 40
0.0
  9
$DIMTXT
 40
2.5
  9
$DIMCEN
 40
2.5
  9
$DIMTSZ
 40
0.0
  9
$DIMTOL
 70
     0
  9
$DIMLIM
 70
     0
  9
$DIMTIH
 70
     0
  9
$DIMTOH
 70
     0
  9
$DIMSE1
 70
     0
  9
$DIMSE2
 70
     0
  9
$DIMTAD
 70
     1
  9
$DIMZIN
 70
     8
  9
$DIMBLK
  1

  9
$DIMASO
 70
     1
  9
$DIMSHO
 70
     1
  9
$DIMPOST
  1

  9
$DIMAPOST
  1

  9
$DIMALT
 70
     0
  9
$DIMALTD
 70
     3
  9
$DIMALTF
 40
0.03937007874016
  9
$DIMLFAC
 40
1.0
  9
$DIMTOFL
 70
     1
  9
$DIMTVP
 40
0.0
  9
$DIMTIX
 70
     0
  9
$DIMSOXD
 70
     0
  9
$DIMSAH
 70
     0
  9
$DIMBLK1
  1

  9
$DIMBLK2
  1

  9
$DIMSTYLE
  2
ISO-25
  9
$DIMCLRD
 70
     0
  9
$DIMCLRE
 70
     0
  9
$DIMCLRT
 70
     0
  9
$DIMTFAC
 40
1.0
  9
$DIMGAP
 40
0.625
  9
$DIMJUST
 70
     0
  9
$DIMSD1
 70
     0
  9
$DIMSD2
 70
     0
  9
$DIMTOLJ
 70
     0
  9
$DIMTZIN
 70
     8
  9
$DIMALTZ
 70
     0
  9
$DIMALTTZ
 70
     0
  9
$DIMUPT
 70
     0
  9
$DIMDEC
 70
     2
  9
$DIMTDEC
 70
     2
  9
$DIMALTU
 70
     2
  9
$DIMALTTD
 70
     3
  9
$DIMTXSTY
  7
Standard
  9
$DIMAUNIT
 70
     0
  9
$DIMADEC
 70
     0
  9
$DIMALTRND
 40
0.0
  9
$DIMAZIN
 70
     0
  9
$DIMDSEP
 70
    44
  9
$DIMATFIT
 70
     3
  9
$DIMFRAC
 70
     0
  9
$DIMLDRBLK
  1

  9
$DIMLUNIT
 70
     2
  9
$DIMLWD
 70
    -2
  9
$DIMLWE
 70
    -2
  9
$DIMTMOVE
 70
     0
  9
$LUNITS
 70
     2
  9
$LUPREC
 70
     2
  9
$SKETCHINC
 40
1.0
  9
$FILLETRAD
 40
10.0
  9
$AUNITS
 70
     0
  9
$AUPREC
 70
     0
  9
$MENU
  1
.
  9
$ELEVATION
 40
0.0
  9
$PELEVATION
 40
0.0
  9
$THICKNESS
 40
0.0
  9
$LIMCHECK
 70
     0
  9
$CHAMFERA
 40
10.0
  9
$CHAMFERB
 40
10.0
  9
$CHAMFERC
 40
20.0
  9
$CHAMFERD
 40
0.0
  9
$SKPOLY
 70
     0
  9
$TDCREATE
 40
2455079.811409143
  9
$TDUCREATE
 40
2455079.936409144
  9
$TDUPDATE
 40
2456936.049091990
  9
$TDUUPDATE
 40
2456936.174091990
  9
$TDINDWG
 40
0.0486419676
  9
$TDUSRTIMER
 40
0.0486419676
  9
$USRTIMER
 70
     1
  9
$ANGBASE
 50
0.0
  9
$ANGDIR
 70
     0
  9
$PDMODE
 70
     0
  9
$PDSIZE
 40
0.0
  9
$PLINEWID
 40
0.0
  9
$SPLFRAME
 70
     0
  9
$SPLINETYPE
 70
     6
  9
$SPLINESEGS
 70
     8
  9
$HANDSEED
  5
7F67
  9
$SURFTAB1
 70
     6
  9
$SURFTAB2
 70
     6
  9
$SURFTYPE
 70
     6
  9
$SURFU
 70
     6
  9
$SURFV
 70
     6
  9
$UCSBASE
  2

  9
$UCSNAME
  2

  9
$UCSORG
 10
0.0
 20
0.0
 30
0.0
  9
$UCSXDIR
 10
1.0
 20
0.0
 30
0.0
  9
$UCSYDIR
 10
0.0
 20
1.0
 30
0.0
  9
$UCSORTHOREF
  2

  9
$UCSORTHOVIEW
 70
     0
  9
$UCSORGTOP
 10
0.0
 20
0.0
 30
0.0
  9
$UCSORGBOTTOM
 10
0.0
 20
0.0
 30
0.0
  9
$UCSORGLEFT
 10
0.0
 20
0.0
 30
0.0
  9
$UCSORGRIGHT
 10
0.0
 20
0.0
 30
0.0
  9
$UCSORGFRONT
 10
0.0
 20
0.0
 30
0.0
  9
$UCSORGBACK
 10
0.0
 20
0.0
 30
0.0
  9
$PUCSBASE
  2

  9
$PUCSNAME
  2

  9
$PUCSORG
 10
0.0
 20
0.0
 30
0.0
  9
$PUCSXDIR
 10
1.0
 20
0.0
 30
0.0
  9
$PUCSYDIR
 10
0.0
 20
1.0
 30
0.0
  9
$PUCSORTHOREF
  2

  9
$PUCSORTHOVIEW
 70
     0
  9
$PUCSORGTOP
 10
0.0
 20
0.0
 30
0.0
  9
$PUCSORGBOTTOM
 10
0.0
 20
0.0
 30
0.0
  9
$PUCSORGLEFT
 10
0.0
 20
0.0
 30
0.0
  9
$PUCSORGRIGHT
 10
0.0
 20
0.0
 30
0.0
  9
$PUCSORGFRONT
 10
0.0
 20
0.0
 30
0.0
  9
$PUCSORGBACK
 10
0.0
 20
0.0
 30
0.0
  9
$USERI1
 70
     0
  9
$USERI2
 70
     0
  9
$USERI3
 70
     0
  9
$USERI4
 70
     0
  9
$USERI5
 70
     0
  9
$USERR1
 40
0.0
  9
$USERR2
 40
0.0
  9
$USERR3
 40
0.0
  9
$USERR4
 40
0.0
  9
$USERR5
 40
0.0
  9
$WORLDVIEW
 70
     1
  9
$SHADEDGE
 70
     3
  9
$SHADEDIF
 70
    70
  9
$TILEMODE
 70
     1
  9
$MAXACTVP
 70
    64
  9
$PINSBASE
 10
0.0
 20
0.0
 30
0.0
  9
$PLIMCHECK
 70
     0
  9
$PEXTMIN
 10
1.000000000000000E+20
 20
1.000000000000000E+20
 30
1.000000000000000E+20
  9
$PEXTMAX
 10
-1.000000000000000E+20
 20
-1.000000000000000E+20
 30
-1.000000000000000E+20
  9
$PLIMMIN
 10
0.0
 20
0.0
  9
$PLIMMAX
 10
420.0
 20
297.0
  9
$UNITMODE
 70
     0
  9
$VISRETAIN
 70
     1
  9
$PLINEGEN
 70
     0
  9
$PSLTSCALE
 70
     1
  9
$TREEDEPTH
 70
  3020
  9
$CMLSTYLE
  2
Standard
  9
$CMLJUST
 70
     0
  9
$CMLSCALE
 40
20.0
  9
$PROXYGRAPHICS
 70
     1
  9
$MEASUREMENT
 70
     1
  9
$CELWEIGHT
370
    -1
  9
$ENDCAPS
280
     0
  9
$JOINSTYLE
280
     0
  9
$LWDISPLAY
290
     0
  9
$INSUNITS
 70
     4
  9
$HYPERLINKBASE
  1

  9
$STYLESHEET
  1

  9
$XEDIT
290
     1
  9
$CEPSNTYPE
380
     0
  9
$PSTYLEMODE
290
     1
  9
$FINGERPRINTGUID
  2
{81085373-3A21-4932-80AA-8F6C3258C50C}
  9
$VERSIONGUID
  2
{C21F9409-82FC-493C-AB10-C3EEB8B406A1}
  9
$EXTNAMES
290
     1
  9
$PSVPSCALE
 40
0.0
  9
$OLESTARTUP
290
     0
  0
ENDSEC
  0
SECTION
  2
CLASSES
  0
CLASS
  1
ACDBDICTIONARYWDFLT
  2
AcDbDictionaryWithDefault
  3
AutoCAD 2000
 90
        0
280
     0
281
     0
  0
CLASS
  1
ACDBPLACEHOLDER
  2
AcDbPlaceHolder
  3
AutoCAD 2000
 90
        0
280
     0
281
     0
  0
CLASS
  1
LAYOUT
  2
AcDbLayout
  3
AutoCAD 2000
 90
        0
280
     0
281
     0
  0
CLASS
  1
DICTIONARYVAR
  2
AcDbDictionaryVar
  3
AutoCAD 2000
 90
        0
280
     0
281
     0
  0
CLASS
  1
IMAGEDEF
  2
AcDbRasterImageDef
  3
ISM
 90
        0
280
     0
281
     0
  0
ENDSEC
  0
SECTION
  2
TABLES
  0
TABLE
  2
VPORT
  5
8
330
0
100
AcDbSymbolTable
 70
     3
  0
VPORT
  5
7F66
330
8
100
AcDbSymbolTableRecord
100
AcDbViewportTableRecord
  2
*Active
 70
     0
 10
0.0
 20
0.0
 11
1.0
 21
1.0
 12
1663.098095263485
 22
687.8785992299018
 13
0.0
 23
0.0
 14
10.0
 24
10.0
 15
10.0
 25
10.0
 16
0.0
 26
0.0
 36
1.0
 17
0.0
 27
0.0
 37
0.0
 40
1926.433249186225
 41
2.184834123222748
 42
50.0
 43
0.0
 44
0.0
 50
0.0
 51
0.0
 71
     0
 72
   100
 73
     1
 74
     3
 75
     0
 76
     0
 77
     0
 78
     0
281
     0
 65
     1
110
0.0
120
0.0
130
0.0
111
1.0
121
0.0
131
0.0
112
0.0
122
1.0
132
0.0
 79
     0
146
0.0
  0
ENDTAB
  0
TABLE
  2
LTYPE
  5
5
330
0
100
AcDbSymbolTable
 70
     1
  0
LTYPE
  5
14
330
5
100
AcDbSymbolTableRecord
100
AcDbLinetypeTableRecord
  2
ByBlock
 70
     0
  3

 72
    65
 73
     0
 40
0.0
  0
LTYPE
  5
15
330
5
100
AcDbSymbolTableRecord
100
AcDbLinetypeTableRecord
  2
ByLayer
 70
     0
  3

 72
    65
 73
     0
 40
0.0
  0
LTYPE
  5
16
330
5
100
AcDbSymbolTableRecord
100
AcDbLinetypeTableRecord
  2
Continuous
 70
     0
  3
Solid line
 72
    65
 73
     0
 40
0.0
  0
ENDTAB
  0
TABLE
  2
LAYER
  5
2
102
{ACAD_XDICTIONARY
360
90B
102
}
330
0
100
AcDbSymbolTable
 70
     2
  0
LAYER
  5
10
330
2
100
AcDbSymbolTableRecord
100
AcDbLayerTableRecord
  2
0
 70
     0
 62
     7
  6
Continuous
370
    -3
390
F
  0
LAYER
  5
7A71
102
{ACAD_XDICTIONARY
360
7A72
102
}
330
2
100
AcDbSymbolTableRecord
100
AcDbLayerTableRecord
  2
ceco.net 222 Nissan Z350 - sideway 2
 70
     0
 62
     7
  6
Continuous
370
    -3
390
F
1001
AcAecLayerStandard
1000

1000

  0
ENDTAB
  0
TABLE
  2
STYLE
  5
3
330
0
100
AcDbSymbolTable
 70
     1
  0
STYLE
  5
11
330
3
100
AcDbSymbolTableRecord
100
AcDbTextStyleTableRecord
  2
Standard
 70
     0
 40
0.0
 41
1.0
 50
0.0
 71
     0
 42
2.5
  3
txt
  4

  0
ENDTAB
  0
TABLE
  2
VIEW
  5
6
330
0
100
AcDbSymbolTable
 70
     0
  0
ENDTAB
  0
TABLE
  2
UCS
  5
7
330
0
100
AcDbSymbolTable
 70
     0
  0
ENDTAB
  0
TABLE
  2
APPID
  5
9
330
0
100
AcDbSymbolTable
 70
    23
  0
APPID
  5
12
330
9
100
AcDbSymbolTableRecord
100
AcDbRegAppTableRecord
  2
ACAD
 70
     0
  0
APPID
  5
2C
330
9
100
AcDbSymbolTableRecord
100
AcDbRegAppTableRecord
  2
ACAD_DSTYLE_DIMJOGGED_JOGANGLE_SYMBOL
 70
     0
  0
APPID
  5
11B
330
9
100
AcDbSymbolTableRecord
100
AcDbRegAppTableRecord
  2
ACAD_NAV_VCDISPLAY
 70
     0
  0
APPID
  5
11C
330
9
100
AcDbSymbolTableRecord
100
AcDbRegAppTableRecord
  2
ACAD_MLEADERVER
 70
     0
  0
APPID
  5
8F8
330
9
100
AcDbSymbolTableRecord
100
AcDbRegAppTableRecord
  2
RAK
 70
     0
  0
APPID
  5
8F9
330
9
100
AcDbSymbolTableRecord
100
AcDbRegAppTableRecord
  2
AcAecLayerStandard
 70
     0
  0
APPID
  5
8FA
330
9
100
AcDbSymbolTableRecord
100
AcDbRegAppTableRecord
  2
ACAD_PSEXT
 70
     0
  0
APPID
  5
8FB
330
9
100
AcDbSymbolTableRecord
100
AcDbRegAppTableRecord
  2
AcDbBlockRepETag
 70
     0
  0
APPID
  5
8FC
330
9
100
AcDbSymbolTableRecord
100
AcDbRegAppTableRecord
  2
AcadAnnoPO
 70
     0
  0
APPID
  5
8FD
330
9
100
AcDbSymbolTableRecord
100
AcDbRegAppTableRecord
  2
ACAUTHENVIRON
 70
     0
  0
APPID
  5
8FE
330
9
100
AcDbSymbolTableRecord
100
AcDbRegAppTableRecord
  2
AcDbDynamicBlockTrueName
 70
     0
  0
APPID
  5
8FF
330
9
100
AcDbSymbolTableRecord
100
AcDbRegAppTableRecord
  2
AcDbDynamicBlockGUID
 70
     0
  0
APPID
  5
900
330
9
100
AcDbSymbolTableRecord
100
AcDbRegAppTableRecord
  2
AcLayerTools
 70
     0
  0
APPID
  5
901
330
9
100
AcDbSymbolTableRecord
100
AcDbRegAppTableRecord
  2
ACAD_EXEMPT_FROM_CAD_STANDARDS
 70
     0
  0
APPID
  5
902
330
9
100
AcDbSymbolTableRecord
100
AcDbRegAppTableRecord
  2
AcadAnnotative
 70
     0
  0
APPID
  5
903
330
9
100
AcDbSymbolTableRecord
100
AcDbRegAppTableRecord
  2
ACAD_DSTYLE_DIMJAG
 70
     0
  0
APPID
  5
904
330
9
100
AcDbSymbolTableRecord
100
AcDbRegAppTableRecord
  2
ACAD_DSTYLE_DIMTALN
 70
     0
  0
APPID
  5
905
330
9
100
AcDbSymbolTableRecord
100
AcDbRegAppTableRecord
  2
ACAD_DSTYLE_DIMBREAK
 70
     0
  0
APPID
  5
906
330
9
100
AcDbSymbolTableRecord
100
AcDbRegAppTableRecord
  2
AcadAnnoAV
 70
     0
  0
APPID
  5
907
330
9
100
AcDbSymbolTableRecord
100
AcDbRegAppTableRecord
  2
AcCmTransparency
 70
     0
  0
APPID
  5
908
330
9
100
AcDbSymbolTableRecord
100
AcDbRegAppTableRecord
  2
GradientColor1ACI
 70
     0
  0
APPID
  5
909
330
9
100
AcDbSymbolTableRecord
100
AcDbRegAppTableRecord
  2
GradientColor2ACI
 70
     0
  0
APPID
  5
90A
330
9
100
AcDbSymbolTableRecord
100
AcDbRegAppTableRecord
  2
ADE
 70
     0
  0
ENDTAB
  0
TABLE
  2
DIMSTYLE
  5
A
330
0
100
AcDbSymbolTable
 70
     2
100
AcDbDimStyleTable
 71
     0
  0
DIMSTYLE
105
27
330
A
100
AcDbSymbolTableRecord
100
AcDbDimStyleTableRecord
  2
ISO-25
 70
     0
 41
2.5
 42
0.625
 43
3.75
 44
1.25
 73
     0
 74
     0
 77
     1
 78
     8
140
2.5
141
2.5
143
0.03937007874016
147
0.625
171
     3
172
     1
271
     2
272
     2
274
     3
278
    44
283
     0
284
     8
340
11
  0
DIMSTYLE
105
2B
330
A
100
AcDbSymbolTableRecord
100
AcDbDimStyleTableRecord
  2
Standard
 70
     0
340
11
  0
ENDTAB
  0
TABLE
  2
BLOCK_RECORD
  5
1
330
0
100
AcDbSymbolTable
 70
     2
  0
BLOCK_RECORD
  5
1F
330
1
100
AcDbSymbolTableRecord
100
AcDbBlockTableRecord
  2
*Model_Space
340
22
  0
BLOCK_RECORD
  5
1B
330
1
100
AcDbSymbolTableRecord
100
AcDbBlockTableRecord
  2
*Paper_Space
340
1E
  0
BLOCK_RECORD
  5
23
330
1
100
AcDbSymbolTableRecord
100
AcDbBlockTableRecord
  2
*Paper_Space0
340
26
  0
ENDTAB
  0
ENDSEC
  0
SECTION
  2
BLOCKS
  0
BLOCK
  5
20
330
1F
100
AcDbEntity
  8
0
100
AcDbBlockBegin
  2
*Model_Space
 70
     0
 10
0.0
 20
0.0
 30
0.0
  3
*Model_Space
  1

  0
ENDBLK
  5
21
330
1F
100
AcDbEntity
  8
0
100
AcDbBlockEnd
  0
BLOCK
  5
1C
330
1B
100
AcDbEntity
 67
     1
  8
0
100
AcDbBlockBegin
  2
*Paper_Space
 70
     0
 10
0.0
 20
0.0
 30
0.0
  3
*Paper_Space
  1

  0
ENDBLK
  5
1D
330
1B
100
AcDbEntity
 67
     1
  8
0
100
AcDbBlockEnd
  0
BLOCK
  5
24
330
23
100
AcDbEntity
  8
0
100
AcDbBlockBegin
  2
*Paper_Space0
 70
     0
 10
0.0
 20
0.0
 30
0.0
  3
*Paper_Space0
  1

  0
ENDBLK
  5
25
330
23
100
AcDbEntity
  8
0
100
AcDbBlockEnd
  0
ENDSEC
  0
SECTION
  2
ENTITIES
  0
LINE
  5
7CF8
330
1F
100
AcDbEntity
  8
ceco.net 222 Nissan Z350 - sideway 2
100
AcDbLine
 10
2408.33602858477
 20
1108.446734576788
 30
0.0
 11
2408.336028584599
 21
1372.098592124658
 31
0.0
  0
ARC
  5
7CF9
330
1F
100
AcDbEntity
  8
ceco.net 222 Nissan Z350 - sideway 2
100
AcDbCircle
 10
2409.016143806711
 20
980.7647771144454
 30
0.0
 40
8.761555882810931
100
AcDbArc
 50
195.9873925072701
 51
265.6222612707754
  0
LINE
  5
7CFA
330
1F
100
AcDbEntity
  8
ceco.net 222 Nissan Z350 - sideway 2
100
AcDbLine
 10
2416.101255303558
 20
978.3516183049991
 30
0.0
 11
2416.101255303558
 21
1099.472341727641
 31
0.0
  0
LINE
  5
7CFB
330
1F
100
AcDbEntity
  8
ceco.net 222 Nissan Z350 - sideway 2
100
AcDbLine
 10
2422.48052626094
 20
967.8999755338477
 30
0.0
 11
2418.349076684036
 21
943.4732712955817
 31
0.0
  0
LINE
  5
7CFC
330
1F
100
AcDbEntity
  8
ceco.net 222 Nissan Z350 - sideway 2
100
AcDbLine
 10
2416.101255303558
 20
978.3516183049991
 30
0.0
 11
2422.48052626094
 21
967.8999755338477
 31
0.0
  0
ARC
  5
7CFD
330
1F
100
AcDbEntity
  8
ceco.net 222 Nissan Z350 - sideway 2
100
AcDbCircle
 10
2407.678576035734
 20
980.7647771144454
 30
0.0
 40
8.761555882810931
100
AcDbArc
 50
274.3777387290165
 51
344.0126074928226
  0
LINE
  5
7CFE
330
1F
100
AcDbEntity
  8
ceco.net 222 Nissan Z350 - sideway 2
100
AcDbLine
 10
2396.065766098745
 20
956.952773247651
 30
0.0
 11
2398.306021407464
 21
943.7075301856632
 31
0.0
  0
LINE
  5
7CFF
330
1F
100
AcDbEntity
  8
ceco.net 222 Nissan Z350 - sideway 2
100
AcDbLine
 10
2400.593464538887
 20
996.5059081484506
 30
0.0
 11
2400.593464538887
 21
1096.780475755253
 31
0.0
  0
LINE
  5
7D00
330
1F
100
AcDbEntity
  8
ceco.net 222 Nissan Z350 - sideway 2
100
AcDbLine
 10
2416.101255303558
 20
1099.472341727641
 30
0.0
 11
2416.101255303503
 21
1104.197276611565
 31
0.0
  0
LINE
  5
7D01
330
1F
100
AcDbEntity
  8
ceco.net 222 Nissan Z350 - sideway 2
100
AcDbLine
 10
2416.101255303503
 20
1104.197276611565
 30
0.0
 11
2411.718222250401
 21
1108.464685272651
 31
0.0
  0
LINE
  5
7D02
330
1F
100
AcDbEntity
  8
ceco.net 222 Nissan Z350 - sideway 2
100
AcDbLine
 10
2411.718222250401
 20
1108.464685272651
 30
0.0
 11
2408.33602858477
 21
1108.446734576788
 31
0.0
  0
LINE
  5
7D03
330
1F
100
AcDbEntity
  8
ceco.net 222 Nissan Z350 - sideway 2
100
AcDbLine
 10
2408.33602858477
 20
1108.446734576788
 30
0.0
 11
2404.95378728356
 21
1108.446734576788
 31
0.0
  0
LINE
  5
7D04
330
1F
100
AcDbEntity
  8
ceco.net 222 Nissan Z350 - sideway 2
100
AcDbLine
 10
2404.95378728356
 20
1108.446734576788
 30
0.0
 11
2400.593464538887
 21
1104.156123782545
 31
0.0
  0
LINE
  5
7D05
330
1F
100
AcDbEntity
  8
ceco.net 222 Nissan Z350 - sideway 2
100
AcDbLine
 10
2400.593464538887
 20
1104.156123782545
 30
0.0
 11
2400.593464538887
 21
1096.780475755253
 31
0.0
  0
LINE
  5
7D06
330
1F
100
AcDbEntity
  8
ceco.net 222 Nissan Z350 - sideway 2
100
AcDbLine
 10
2400.593464538887
 20
996.5059081484577
 30
0.0
 11
2400.593464538887
 21
978.3516183050064
 31
0.0
  0
LINE
  5
7D07
330
1F
100
AcDbEntity
  8
ceco.net 222 Nissan Z350 - sideway 2
100
AcDbLine
 10
2400.593464538887
 20
978.3516183050064
 30
0.0
 11
2394.214193581505
 21
967.8999755338404
 31
0.0
  0
LINE
  5
7D08
330
1F
100
AcDbEntity
  8
ceco.net 222 Nissan Z350 - sideway 2
100
AcDbLine
 10
2394.214193581505
 20
967.8999755338404
 30
0.0
 11
2396.065766098745
 21
956.952773247651
 31
0.0
  0
ELLIPSE
  5
7D09
330
1F
100
AcDbEntity
  8
ceco.net 222 Nissan Z350 - sideway 2
100
AcDbEllipse
 10
2408.347359921281
 20
943.4732712955817
 30
0.0
 11
-12.63202385584385
 21
15.70919455246815
 31
0.0
210
0.0
220
0.0
230
1.0
 40
0.5461520756454548
 41
0.002742540680874
 42
4.534461285625443
  0
SPLINE
  5
7D0A
330
1F
100
AcDbEntity
  8
ceco.net 222 Nissan Z350 - sideway 2
100
AcDbSpline
210
0.0
220
0.0
230
1.0
 70
     8
 71
     3
 72
    10
 73
     6
 74
     0
 42
0.0000000001
 43
0.0000000001
 40
1.21890504768117
 40
1.21890504768117
 40
1.21890504768117
 40
1.21890504768117
 40
2.827647417515301
 40
2.827647417515301
 40
4.357200412620686
 40
4.357200412620686
 40
4.357200412620686
 40
4.357200412620686
 10
2398.306021407464
 20
943.7075301856632
 30
0.0
 10
2402.912905466692
 20
935.6448886747026
 30
0.0
 10
2412.943987700389
 20
928.3511202079361
 30
0.0
 10
2421.534001101707
 20
929.5694066380528
 30
0.0
 10
2422.233157530529
 20
936.0954486848962
 30
0.0
 10
2418.349076684036
 20
943.4732712955817
 30
0.0
  0
ARC
  5
7D0B
330
1F
100
AcDbEntity
  8
ceco.net 222 Nissan Z350 - sideway 2
100
AcDbCircle
 10
-96.01424693288208
 20
545.1131135997977
 30
0.0
 40
246.2517924114967
100
AcDbArc
 50
24.65662929544562
 51
116.6601657347327
  0
ARC
  5
7D0C
330
1F
100
AcDbEntity
  8
ceco.net 222 Nissan Z350 - sideway 2
100
AcDbCircle
 10
273.0920536681515
 20
363.1658118403331
 30
0.0
 40
645.0193230678752
100
AcDbArc
 50
166.3146517530244
 51
193.2671670892796
  0
ARC
  5
7D0D
330
1F
100
AcDbEntity
  8
ceco.net 222 Nissan Z350 - sideway 2
100
AcDbCircle
 10
-69.75280903743987
 20
456.8300437913004
 30
0.0
 40
289.9167438904977
100
AcDbArc
 50
110.0595015028011
 51
168.2698746624429
  0
ARC
  5
7D0E
330
1F
100
AcDbEntity
  8
ceco.net 222 Nissan Z350 - sideway 2
100
AcDbCircle
 10
-111.5074002609762
 20
531.8498522272685
 30
0.0
 40
205.5693373325262
100
AcDbArc
 50
42.05989178987485
 51
106.296821048946
  0
ARC
  5
7D0F
330
1F
100
AcDbEntity
  8
ceco.net 222 Nissan Z350 - sideway 2
100
AcDbCircle
 10
-366.0427935671614
 20
340.6186001254676
 30
0.0
 40
523.4334725697865
100
AcDbArc
 50
2.42099964947003
 51
38.93470984322179
  0
ARC
  5
7D10
330
1F
100
AcDbEntity
  8
ceco.net 222 Nissan Z350 - sideway 2
100
AcDbCircle
 10
-1020.356717758815
 20
195.1043031917061
 30
0.0
 40
1189.153821857423
100
AcDbArc
 50
3.515565508291756
 51
8.103496908621357
  0
ARC
  5
7D11
330
1F
100
AcDbEntity
  8
ceco.net 222 Nissan Z350 - sideway 2
100
AcDbCircle
 10
244.8918466850082
 20
269.9350723801936
 30
0.0
 40
78.35585662736725
100
AcDbArc
 50
181.3983977099638
 51
222.8401239877506
  0
ARC
  5
7D12
330
1F
100
AcDbEntity
  8
ceco.net 222 Nissan Z350 - sideway 2
100
AcDbCircle
 10
149.8775449318127
 20
184.3598010888607
 30
0.0
 40
49.53590111177344
100
AcDbArc
 50
357.7885236920962
 51
40.69164546166762
  0
ARC
  5
7D13
330
1F
100
AcDbEntity
  8
ceco.net 222 Nissan Z350 - sideway 2
100
AcDbCircle
 10
-359.5786054809323
 20
213.9915599986972
 30
0.0
 40
5.0
100
AcDbArc
 50
228.8926415737037
 51
13.2671670892575
  0
ARC
  5
7D14
330
1F
100
AcDbEntity
  8
ceco.net 222 Nissan Z350 - sideway 2
100
AcDbCircle
 10
-13.3227175364118
 20
619.7165922654912
 30
0.0
 40
236.5997910414922
100
AcDbArc
 50
33.65367766231499
 51
112.2497069090372
  0
ARC
  5
7D15
330
1F
100
AcDbEntity
  8
ceco.net 222 Nissan Z350 - sideway 2
100
AcDbCircle
 10
526.5298374076665
 20
-1354.186563583815
 30
0.0
 40
1546.309058398795
100
AcDbArc
 50
92.33036869761543
 51
101.3505752194157
  0
ARC
  5
7D16
330
1F
100
AcDbEntity
  8
ceco.net 222 Nissan Z350 - sideway 2
100
AcDbCircle
 10
219.3616562128845
 20
181.6765525155768
 30
0.0
 40
20.0
100
AcDbArc
 50
177.7885236920983
 51
278.1535458506993
  0
ARC
  5
7D17
330
1F
100
AcDbEntity
  8
ceco.net 222 Nissan Z350 - sideway 2
100
AcDbCircle
 10
972.8358600758765
 20
-8271.251261949322
 30
0.0
 40
8477.400312852919
100
AcDbArc
 50
85.20062739725753
 51
93.44344929699024
  0
ARC
  5
7D18
330
1F
100
AcDbEntity
  8
ceco.net 222 Nissan Z350 - sideway 2
100
AcDbCircle
 10
2544.163602886572
 20
-23349.1898904672
 30
0.0
 40
24155.99489416753
100
AcDbArc
 50
92.21413611754716
 51
95.47905832917034
  0
ARC
  5
7D19
330
1F
100
AcDbEntity
  8
ceco.net 222 Nissan Z350 - sideway 2
100
AcDbCircle
 10
2492.466652438241
 20
-12212.60120107679
 30
0.0
 40
13339.05780089336
100
AcDbArc
 50
95.64682730948762
 51
98.04540388608614
  0
ARC
  5
7D1A
330
1F
100
AcDbEntity
  8
ceco.net 222 Nissan Z350 - sideway 2
100
AcDbCircle
 10
1920.421897564851
 20
-6998.806659872683
 30
0.0
 40
8094.472559328618
100
AcDbArc
 50
90.45954604085412
 51
95.24865844157364
  0
ARC
  5
7D1B
330
1F
100
AcDbEntity
  8
ceco.net 222 Nissan Z350 - sideway 2
100
AcDbCircle
 10
1469.432565506183
 20
6.017339079662967
 30
0.0
 40
1281.988697994479
100
AcDbArc
 50
129.1669951266872
 51
142.4255004877417
  0
LINE
  5
7D1C
330
1F
100
AcDbEntity
  8
ceco.net 222 Nissan Z350 - sideway 2
100
AcDbLine
 10
414.3603345685987
 20
429.982362998559
 30
0.0
 11
428.5250702991325
 21
299.2013557854856
 31
0.0
  0
ARC
  5
7D1D
330
1F
100
AcDbEntity
  8
ceco.net 222 Nissan Z350 - sideway 2
100
AcDbCircle
 10
611.8903905004226
 20
665.8059117894703
 30
0.0
 40
200.0
100
AcDbArc
 50
142.4255004877404
 51
180.311530535082
  0
ARC
  5
7D1E
330
1F
100
AcDbEntity
  8
ceco.net 222 Nissan Z350 - sideway 2
100
AcDbCircle
 10
4933.281131176006
 20
589.671438031865
 30
0.0
 40
4522.010565376766
100
AcDbArc
 50
179.0490788186768
 51
181.9299293744899
  0
ARC
  5
7D1F
330
1F
100
AcDbEntity
  8
ceco.net 222 Nissan Z350 - sideway 2
100
AcDbCircle
 10
513.7789051161562
 20
440.7502704226837
 30
0.0
 40
100.0
100
AcDbArc
 50
181.9299293744895
 51
186.1815415806335
  0
ARC
  5
7D20
330
1F
100
AcDbEntity
  8
ceco.net 222 Nissan Z350 - sideway 2
100
AcDbCircle
 10
-341.149470076587
 20
21863.8980819085
 30
0.0
 40
21596.9939774198
100
AcDbArc
 50
272.0970695745951
 51
273.5994900584718
  0
ARC
  5
7D21
330
1F
100
AcDbEntity
  8
ceco.net 222 Nissan Z350 - sideway 2
100
AcDbCircle
 10
1014.897372772466
 20
669.4541866922715
 30
0.0
 40
359.9454283246787
100
AcDbArc
 50
269.975822773385
 51
323.5388711717908
  0
ARC
  5
7D22
330
1F
100
AcDbEntity
  8
ceco.net 222 Nissan Z350 - sideway 2
100
AcDbCircle
 10
894.5293158661952
 20
782.9276106166966
 30
0.0
 40
524.5585325710478
100
AcDbArc
 50
321.3833032890076
 51
345.9589999929487
  0
LINE
  5
7D23
330
1F
100
AcDbEntity
  8
ceco.net 222 Nissan Z350 - sideway 2
100
AcDbLine
 10
425.8425414136182
 20
323.9687666433264
 30
0.0
 11
1198.564767691794
 21
359.8948233782346
 31
0.0
  0
ARC
  5
7D24
330
1F
100
AcDbEntity
  8
ceco.net 222 Nissan Z350 - sideway 2
100
AcDbCircle
 10
448.4087844086134
 20
301.354937270319
 30
0.0
 40
20.0
100
AcDbArc
 50
186.1815415806663
 51
272.0970695745951
  0
ARC
  5
7D25
330
1F
100
AcDbEntity
  8
ceco.net 222 Nissan Z350 - sideway 2
100
AcDbCircle
 10
2079.670100872208
 20
437.6811236876969
 30
0.0
 40
429.2815041391785
100
AcDbArc
 50
133.1373719101748
 51
169.9258377342462
  0
LINE
  5
7D26
330
1F
100
AcDbEntity
  8
ceco.net 222 Nissan Z350 - sideway 2
100
AcDbLine
 10
1670.675273311771
 20
213.3941922359606
 30
0.0
 11
1685.110373860952
 21
180.6242242055384
 31
0.0
  0
ARC
  5
7D27
330
1F
100
AcDbEntity
  8
ceco.net 222 Nissan Z350 - sideway 2
100
AcDbCircle
 10
1762.189973379874
 20
253.7062211038057
 30
0.0
 40
100.0
100
AcDbArc
 50
187.9637674268538
 51
203.7733882773822
  0
ARC
  5
7D28
330
1F
100
AcDbEntity
  8
ceco.net 222 Nissan Z350 - sideway 2
100
AcDbCircle
 10
1682.364932858905
 20
179.4148633395105
 30
0.0
 40
3.0
100
AcDbArc
 50
265.2006273970494
 51
23.77338827715809
  0
ARC
  5
7D29
330
1F
100
AcDbEntity
  8
ceco.net 222 Nissan Z350 - sideway 2
100
AcDbCircle
 10
2349.529209566142
 20
391.8408395071191
 30
0.0
 40
703.0015275326201
100
AcDbArc
 50
170.0946253894481
 51
192.4859693316576
  0
ARC
  5
7D2A
330
1F
100
AcDbEntity
  8
ceco.net 222 Nissan Z350 - sideway 2
100
AcDbCircle
 10
2026.688731841332
 20
-3585.49542280999
 30
0.0
 40
4684.030250039218
100
AcDbArc
 50
82.28878316995411
 51
85.2311418043611
  0
ARC
  5
7D2B
330
1F
100
AcDbEntity
  8
ceco.net 222 Nissan Z350 - sideway 2
100
AcDbCircle
 10
2583.408980341759
 20
562.9738462772958
 30
0.0
 40
498.3996148041907
100
AcDbArc
 50
41.68664610368139
 51
81.71896682234878
  0
LINE
  5
7D2C
330
1F
100
AcDbEntity
  8
ceco.net 222 Nissan Z350 - sideway 2
100
AcDbLine
 10
1403.415278573746
 20
655.6612322903712
 30
0.0
 11
1437.177673082616
 21
781.4269992491498
 31
0.0
  0
LINE
  5
7D2D
330
1F
100
AcDbEntity
  8
ceco.net 222 Nissan Z350 - sideway 2
100
AcDbLine
 10
1437.177673082616
 20
781.4269992491498
 30
0.0
 11
1477.669242567131
 21
874.7382347065917
 31
0.0
  0
ARC
  5
7D2E
330
1F
100
AcDbEntity
  8
ceco.net 222 Nissan Z350 - sideway 2
100
AcDbCircle
 10
1469.940094601341
 20
950.6979655716074
 30
0.0
 40
71.70791522623338
100
AcDbArc
 50
281.938811935367
 51
31.14519183343533
  0
LINE
  5
7D2F
330
1F
100
AcDbEntity
  8
ceco.net 222 Nissan Z350 - sideway 2
100
AcDbLine
 10
1530.697060912261
 20
996.9387645056295
 30
0.0
 11
1570.250469994407
 21
1088.088046072074
 31
0.0
  0
ARC
  5
7D30
330
1F
100
AcDbEntity
  8
ceco.net 222 Nissan Z350 - sideway 2
100
AcDbCircle
 10
1539.870582306222
 20
992.9579975902608
 30
0.0
 40
10.0
100
AcDbArc
 50
156.542001884402
 51
211.1451918335071
  0
ARC
  5
7D31
330
1F
100
AcDbEntity
  8
ceco.net 222 Nissan Z350 - sideway 2
100
AcDbCircle
 10
1486.842763961038
 20
870.7574677912299
 30
0.0
 40
10.0
100
AcDbArc
 50
101.9388119353702
 51
156.542001884324
  0
ARC
  5
7D32
330
1F
100
AcDbEntity
  8
ceco.net 222 Nissan Z350 - sideway 2
100
AcDbCircle
 10
1796.989399975431
 20
768.4631802970267
 30
0.0
 40
401.1769795721411
100
AcDbArc
 50
137.5766169165104
 51
169.167625583213
  0
ARC
  5
7D33
330
1F
100
AcDbEntity
  8
ceco.net 222 Nissan Z350 - sideway 2
100
AcDbCircle
 10
1836.989399975453
 20
768.4631802970267
 30
0.0
 40
401.1769795721411
100
AcDbArc
 50
138.5473644222674
 51
170.2885722322342
  0
LINE
  5
7D34
330
1F
100
AcDbEntity
  8
ceco.net 222 Nissan Z350 - sideway 2
100
AcDbLine
 10
1508.23034262568
 20
1042.35261953825
 30
0.0
 11
1532.558441955658
 21
1042.35261953825
 31
0.0
  0
LINE
  5
7D35
330
1F
100
AcDbEntity
  8
ceco.net 222 Nissan Z350 - sideway 2
100
AcDbLine
 10
1412.782718527934
 20
831.9795408957102
 30
0.0
 11
1436.632999918474
 21
831.9795408957102
 31
0.0
  0
ARC
  5
7D36
330
1F
100
AcDbEntity
  8
ceco.net 222 Nissan Z350 - sideway 2
100
AcDbCircle
 10
1508.23034262568
 20
1032.352619538259
 30
0.0
 40
10.0
100
AcDbArc
 50
90.0
 51
137.576616916529
  0
ARC
  5
7D37
330
1F
100
AcDbEntity
  8
ceco.net 222 Nissan Z350 - sideway 2
100
AcDbCircle
 10
1532.558441955658
 20
1037.352619538247
 30
0.0
 40
5.0
100
AcDbArc
 50
318.5473644220178
 51
90.0
  0
ARC
  5
7D38
330
1F
100
AcDbEntity
  8
ceco.net 222 Nissan Z350 - sideway 2
100
AcDbCircle
 10
1436.632999918474
 20
836.9795408957125
 30
0.0
 40
5.0
100
AcDbArc
 50
270.0
 51
350.2885722322113
  0
ARC
  5
7D39
330
1F
100
AcDbEntity
  8
ceco.net 222 Nissan Z350 - sideway 2
100
AcDbCircle
 10
1412.782718527934
 20
841.979540895708
 30
0.0
 40
10.0
100
AcDbArc
 50
169.1676255832046
 51
270.0
  0
ARC
  5
7D3A
330
1F
100
AcDbEntity
  8
ceco.net 222 Nissan Z350 - sideway 2
100
AcDbCircle
 10
1516.280413052882
 20
900.9013442090614
 30
0.0
 40
102.984685132809
100
AcDbArc
 50
122.3796172111357
 51
187.104618195458
  0
ARC
  5
7D3B
330
1F
100
AcDbEntity
  8
ceco.net 222 Nissan Z350 - sideway 2
100
AcDbCircle
 10
1986.8956128022
 20
517.1403838673508
 30
0.0
 40
308.1543588085054
100
AcDbArc
 50
31.95331024939489
 51
130.6509009775375
  0
ARC
  5
7D3C
330
1F
100
AcDbEntity
  8
ceco.net 222 Nissan Z350 - sideway 2
100
AcDbCircle
 10
1626.453078484035
 20
276.8714566120716
 30
0.0
 40
741.2554491336176
100
AcDbArc
 50
7.750613131379113
 51
32.96647664332752
  0
ARC
  5
7D3D
330
1F
100
AcDbEntity
  8
ceco.net 222 Nissan Z350 - sideway 2
100
AcDbCircle
 10
1989.270850703022
 20
530.3699934448724
 30
0.0
 40
347.2452516303135
100
AcDbArc
 50
49.60003638236057
 51
130.6997941031976
  0
ARC
  5
7D3E
330
1F
100
AcDbEntity
  8
ceco.net 222 Nissan Z350 - sideway 2
100
AcDbCircle
 10
1813.210712347387
 20
375.0632823180959
 30
0.0
 40
580.5879451995476
100
AcDbArc
 50
19.10924677522333
 51
46.3002007725612
  0
ARC
  5
7D3F
330
1F
100
AcDbEntity
  8
ceco.net 222 Nissan Z350 - sideway 2
100
AcDbCircle
 10
2071.817170725538
 20
451.814608885571
 30
0.0
 40
460.7690227613899
100
AcDbArc
 50
132.1120056925455
 51
178.5619842423491
  0
ARC
  5
7D40
330
1F
100
AcDbEntity
  8
ceco.net 222 Nissan Z350 - sideway 2
100
AcDbCircle
 10
2338.724489294138
 20
418.1254827298852
 30
0.0
 40
728.9372125124084
100
AcDbArc
 50
176.4407955402824
 51
191.0819742363072
  0
ARC
  5
7D41
330
1F
100
AcDbEntity
  8
ceco.net 222 Nissan Z350 - sideway 2
100
AcDbCircle
 10
19181.2384350916
 20
-66099.74809131452
 30
0.0
 40
68501.68233609832
100
AcDbArc
 50
103.7633126939083
 51
104.1112251754818
  0
LINE
  5
7D42
330
1F
100
AcDbEntity
  8
ceco.net 222 Nissan Z350 - sideway 2
100
AcDbLine
 10
2689.758457106465
 20
335.1774449407054
 30
0.0
 11
2467.883250528204
 21
269.2902735252014
 31
0.0
  0
ARC
  5
7D43
330
1F
100
AcDbEntity
  8
ceco.net 222 Nissan Z350 - sideway 2
100
AcDbCircle
 10
3085.534171677594
 20
520.7419255612544
 30
0.0
 40
738.7487186988087
100
AcDbArc
 50
191.2326744272315
 51
195.694981107347
  0
ARC
  5
7D44
330
1F
100
AcDbEntity
  8
ceco.net 222 Nissan Z350 - sideway 2
100
AcDbCircle
 10
2446.53302772123
 20
341.1871996492843
 30
0.0
 40
75.0
100
AcDbArc
 50
195.694981107347
 51
286.539102244823
  0
ARC
  5
7D45
330
1F
100
AcDbEntity
  8
ceco.net 222 Nissan Z350 - sideway 2
100
AcDbCircle
 10
1592.298142482333
 20
280.418886162388
 30
0.0
 40
820.4895395053931
100
AcDbArc
 50
7.348378285355284
 51
20.30406751088916
  0
ARC
  5
7D46
330
1F
100
AcDbEntity
  8
ceco.net 222 Nissan Z350 - sideway 2
100
AcDbCircle
 10
2917.591519374939
 20
288.8667347832561
 30
0.0
 40
150.0
100
AcDbArc
 50
89.21823755864373
 51
102.9818646417381
  0
LINE
  5
7D47
330
1F
100
AcDbEntity
  8
ceco.net 222 Nissan Z350 - sideway 2
100
AcDbLine
 10
2734.505488503444
 20
341.3696303314788
 30
0.0
 11
3575.993793701869
 21
329.8873748555673
 31
0.0
  0
ARC
  5
7D48
330
1F
100
AcDbEntity
  8
ceco.net 222 Nissan Z350 - sideway 2
100
AcDbCircle
 10
2732.458902720409
 20
191.3835926925253
 30
0.0
 40
150.0
100
AcDbArc
 50
89.21823755864373
 51
106.5391022448223
  0
ARC
  5
7D49
330
1F
100
AcDbEntity
  8
ceco.net 222 Nissan Z350 - sideway 2
100
AcDbCircle
 10
-270.8432692449641
 20
-5309.485392592448
 30
0.0
 40
6855.127887425533
100
AcDbArc
 50
64.49726964144069
 51
66.92341046925555
  0
LINE
  5
7D4A
330
1F
100
AcDbEntity
  8
ceco.net 222 Nissan Z350 - sideway 2
100
AcDbLine
 10
2948.883522390261
 20
877.8145897045854
 30
0.0
 11
2756.358731045125
 21
863.5086411639685
 31
0.0
  0
ARC
  5
7D4B
330
1F
100
AcDbEntity
  8
ceco.net 222 Nissan Z350 - sideway 2
100
AcDbCircle
 10
2745.243318970795
 20
1013.096232943568
 30
0.0
 40
150.0
100
AcDbArc
 50
244.497269641441
 51
274.2496700412335
  0
ARC
  5
7D4C
330
1F
100
AcDbEntity
  8
ceco.net 222 Nissan Z350 - sideway 2
100
AcDbCircle
 10
3459.061220869971
 20
-5734.570142691665
 30
0.0
 40
6645.927083609331
100
AcDbArc
 50
96.51147680094217
 51
98.63319098397367
  0
ARC
  5
7D4D
330
1F
100
AcDbEntity
  8
ceco.net 222 Nissan Z350 - sideway 2
100
AcDbCircle
 10
2361.880097843783
 20
1319.751687451941
 30
0.0
 40
493.8385980661214
100
AcDbArc
 50
266.1647762092992
 51
281.6324092400281
  0
ARC
  5
7D4E
330
1F
100
AcDbEntity
  8
ceco.net 222 Nissan Z350 - sideway 2
100
AcDbCircle
 10
2321.680187514986
 20
186.8060166000456
 30
0.0
 40
640.2531367211715
100
AcDbArc
 50
89.35849391173041
 51
108.2911049202585
  0
ARC
  5
7D4F
330
1F
100
AcDbEntity
  8
ceco.net 222 Nissan Z350 - sideway 2
100
AcDbCircle
 10
1800.077404784602
 20
-160.8170581165557
 30
0.0
 40
1627.186143630816
100
AcDbArc
 50
116.3436152409018
 51
128.5047698279109
  0
ARC
  5
7D50
330
1F
100
AcDbEntity
  8
ceco.net 222 Nissan Z350 - sideway 2
100
AcDbCircle
 10
1321.356763579289
 20
839.6200501129353
 30
0.0
 40
518.4269670087252
100
AcDbArc
 50
80.3546378494765
 51
117.9952658762376
  0
ARC
  5
7D51
330
1F
100
AcDbEntity
  8
ceco.net 222 Nissan Z350 - sideway 2
100
AcDbCircle
 10
1244.545860183123
 20
-13.2096610152592
 30
0.0
 40
1373.713411031868
100
AcDbArc
 50
64.08312918293967
 51
83.15715916885441
  0
ARC
  5
7D52
330
1F
100
AcDbEntity
  8
ceco.net 222 Nissan Z350 - sideway 2
100
AcDbCircle
 10
1823.096840199312
 20
1177.376731510698
 30
0.0
 40
50.0
100
AcDbArc
 50
340.0955772703641
 51
64.08312918293415
  0
ARC
  5
7D53
330
1F
100
AcDbEntity
  8
ceco.net 222 Nissan Z350 - sideway 2
100
AcDbCircle
 10
2909.639530714303
 20
606.8114275043479
 30
0.0
 40
1413.02620374779
100
AcDbArc
 50
151.005403546556
 51
160.0663144212674
  0
ARC
  5
7D54
330
1F
100
AcDbEntity
  8
ceco.net 222 Nissan Z350 - sideway 2
100
AcDbCircle
 10
2909.639530714303
 20
606.8114275043479
 30
0.0
 40
1433.02620374779
100
AcDbArc
 50
151.1639103576708
 51
160.3957045001568
  0
ARC
  5
7D55
330
1F
100
AcDbEntity
  8
ceco.net 222 Nissan Z350 - sideway 2
100
AcDbCircle
 10
1404.291530200298
 20
154.2937113915465
 30
0.0
 40
1261.268741177526
100
AcDbArc
 50
75.87332322197396
 51
89.27626471079468
  0
LINE
  5
7D56
330
1F
100
AcDbEntity
  8
ceco.net 222 Nissan Z350 - sideway 2
100
AcDbLine
 10
1712.125047365207
 20
1377.419773243482
 30
0.0
 11
2506.697171543252
 21
1154.325569849249
 31
0.0
  0
ARC
  5
7D57
330
1F
100
AcDbEntity
  8
ceco.net 222 Nissan Z350 - sideway 2
100
AcDbCircle
 10
3044.227884058062
 20
-5641.282021518697
 30
0.0
 40
6574.531292268233
100
AcDbArc
 50
84.92340083258579
 51
91.09701988179095
  0
ARC
  5
7D58
330
1F
100
AcDbEntity
  8
ceco.net 222 Nissan Z350 - sideway 2
100
AcDbCircle
 10
2657.33669228611
 20
-4859.755527943788
 30
0.0
 40
6011.608269811091
100
AcDbArc
 50
86.00850945547161
 51
91.15888867173486
  0
ARC
  5
7D59
330
1F
100
AcDbEntity
  8
ceco.net 222 Nissan Z350 - sideway 2
100
AcDbCircle
 10
2533.729146848785
 20
1250.602629999016
 30
0.0
 40
100.0
100
AcDbArc
 50
254.3167050990944
 51
271.1588886717348
  0
ARC
  5
7D5A
330
1F
100
AcDbEntity
  8
ceco.net 222 Nissan Z350 - sideway 2
100
AcDbCircle
 10
3068.833793182719
 20
1037.513541011144
 30
0.0
 40
100.0
100
AcDbArc
 50
81.14367446355045
 51
86.0085094554717
  0
ARC
  5
7D5B
330
1F
100
AcDbEntity
  8
ceco.net 222 Nissan Z350 - sideway 2
100
AcDbCircle
 10
3265.581010569364
 20
778.3857906171087
 30
0.0
 40
382.8260375424412
100
AcDbArc
 50
11.97215099394908
 51
22.79057679175958
  0
ARC
  5
7D5C
330
1F
100
AcDbEntity
  8
ceco.net 222 Nissan Z350 - sideway 2
100
AcDbCircle
 10
3172.754904439174
 20
-2284.859575933011
 30
0.0
 40
3170.718354728072
100
AcDbArc
 50
80.85863237237868
 51
81.37307614803317
  0
ARC
  5
7D5D
330
1F
100
AcDbEntity
  8
ceco.net 222 Nissan Z350 - sideway 2
100
AcDbCircle
 10
3649.862509088976
 20
859.8721432585287
 30
0.0
 40
10.0
100
AcDbArc
 50
191.9721509939721
 51
261.3730761480329
  0
ARC
  5
7D5E
330
1F
100
AcDbEntity
  8
ceco.net 222 Nissan Z350 - sideway 2
100
AcDbCircle
 10
3042.404313207913
 20
-930.2010623853282
 30
0.0
 40
2028.184335976953
100
AcDbArc
 50
77.30732202882101
 51
96.29548848520053
  0
ARC
  5
7D5F
330
1F
100
AcDbEntity
  8
ceco.net 222 Nissan Z350 - sideway 2
100
AcDbCircle
 10
3123.723681265302
 20
-8834.216689669933
 30
0.0
 40
9275.314990401183
100
AcDbArc
 50
86.20834884806154
 51
87.45100845863939
  0
ARC
  5
7D60
330
1F
100
AcDbEntity
  8
ceco.net 222 Nissan Z350 - sideway 2
100
AcDbCircle
 10
2203.144263137761
 20
463.1583510977472
 30
0.0
 40
644.4925333136181
100
AcDbArc
 50
143.1262135240492
 51
197.5205363885939
  0
ARC
  5
7D61
330
1F
100
AcDbEntity
  8
ceco.net 222 Nissan Z350 - sideway 2
100
AcDbCircle
 10
2059.995691348787
 20
570.9924810128592
 30
0.0
 40
465.2733166308073
100
AcDbArc
 50
57.4872773491216
 51
143.1712839567889
  0
ARC
  5
7D62
330
1F
100
AcDbEntity
  8
ceco.net 222 Nissan Z350 - sideway 2
100
AcDbCircle
 10
1605.715277131039
 20
274.5542658379216
 30
0.0
 40
18.0
100
AcDbArc
 50
197.5205363885835
 51
11.08197423630118
  0
ARC
  5
7D63
330
1F
100
AcDbEntity
  8
ceco.net 222 Nissan Z350 - sideway 2
100
AcDbCircle
 10
2983.119392807013
 20
606.8114275043479
 30
0.0
 40
1413.02620374779
100
AcDbArc
 50
152.0155534326935
 51
159.9463465427313
  0
ARC
  5
7D64
330
1F
100
AcDbEntity
  8
ceco.net 222 Nissan Z350 - sideway 2
100
AcDbCircle
 10
2099.101250767107
 20
1055.033563513547
 30
0.0
 40
252.050479893281
100
AcDbArc
 50
155.300759398874
 51
170.7929873661388
  0
ARC
  5
7D65
330
1F
100
AcDbEntity
  8
ceco.net 222 Nissan Z350 - sideway 2
100
AcDbCircle
 10
3044.227884058062
 20
-5631.2820215187
 30
0.0
 40
6574.531292268233
100
AcDbArc
 50
84.9572881865793
 51
91.19378145939057
  0
ARC
  5
7D66
330
1F
100
AcDbEntity
  8
ceco.net 222 Nissan Z350 - sideway 2
100
AcDbCircle
 10
3154.896604232435
 20
-4970.247782484348
 30
0.0
 40
5855.078940067791
100
AcDbArc
 50
86.96426954090576
 51
89.20830171767832
  0
ARC
  5
7D67
330
1F
100
AcDbEntity
  8
ceco.net 222 Nissan Z350 - sideway 2
100
AcDbCircle
 10
3154.896604232435
 20
-4980.247782484346
 30
0.0
 40
5834.657822757129
100
AcDbArc
 50
87.39938239832268
 51
89.24948354635537
  0
LINE
  5
7D68
330
1F
100
AcDbEntity
  8
ceco.net 222 Nissan Z350 - sideway 2
100
AcDbLine
 10
3492.756478155242
 20
852.7667228344537
 30
0.0
 11
3512.784045977314
 21
756.4907982724529
 31
0.0
  0
LINE
  5
7D69
330
1F
100
AcDbEntity
  8
ceco.net 222 Nissan Z350 - sideway 2
100
AcDbLine
 10
3513.183995705746
 20
753.2943259389961
 30
0.0
 11
3516.387360594151
 21
680.2935534766456
 31
0.0
  0
LINE
  5
7D6A
330
1F
100
AcDbEntity
  8
ceco.net 222 Nissan Z350 - sideway 2
100
AcDbLine
 10
3283.303908831683
 20
664.6359675870111
 30
0.0
 11
3501.401781499637
 21
664.6359675870111
 31
0.0
  0
ARC
  5
7D6B
330
1F
100
AcDbEntity
  8
ceco.net 222 Nissan Z350 - sideway 2
100
AcDbCircle
 10
3235.659825211612
 20
874.2731660412712
 30
0.0
 40
10.0
100
AcDbArc
 50
89.2083017176783
 51
195.0117589743416
  0
ARC
  5
7D6C
330
1F
100
AcDbEntity
  8
ceco.net 222 Nissan Z350 - sideway 2
100
AcDbCircle
 10
3463.385244558951
 20
846.6568425550216
 30
0.0
 40
30.0
100
AcDbArc
 50
11.75122456800589
 51
86.96426954090568
  0
ARC
  5
7D6D
330
1F
100
AcDbEntity
  8
ceco.net 222 Nissan Z350 - sideway 2
100
AcDbCircle
 10
3493.203223579727
 20
752.4175447528174
 30
0.0
 40
20.0
100
AcDbArc
 50
2.512598326588438
 51
11.75122456802064
  0
ARC
  5
7D6E
330
1F
100
AcDbEntity
  8
ceco.net 222 Nissan Z350 - sideway 2
100
AcDbCircle
 10
3283.303908831683
 20
674.635967587009
 30
0.0
 40
10.0
100
AcDbArc
 50
190.0738666622244
 51
270.0
  0
LINE
  5
7D6F
330
1F
100
AcDbEntity
  8
ceco.net 222 Nissan Z350 - sideway 2
100
AcDbLine
 10
3264.313137071342
 20
735.3829661616311
 30
0.0
 11
3273.458078185984
 21
672.8867909532576
 31
0.0
  0
LINE
  5
7D70
330
1F
100
AcDbEntity
  8
ceco.net 222 Nissan Z350 - sideway 2
100
AcDbLine
 10
3226.001098333781
 20
871.6829932479592
 30
0.0
 11
3254.832077206531
 21
775.3874274184804
 31
0.0
  0
ARC
  5
7D71
330
1F
100
AcDbEntity
  8
ceco.net 222 Nissan Z350 - sideway 2
100
AcDbCircle
 10
3060.771318349525
 20
708.2692786899977
 30
0.0
 40
205.3397769963102
100
AcDbArc
 50
7.587667516396899
 51
19.07853368561145
  0
LINE
  5
7D72
330
1F
100
AcDbEntity
  8
ceco.net 222 Nissan Z350 - sideway 2
100
AcDbLine
 10
3447.904130438717
 20
823.138947994054
 30
0.0
 11
3473.086424645331
 21
664.6359675870111
 31
0.0
  0
ARC
  5
7D73
330
1F
100
AcDbEntity
  8
ceco.net 222 Nissan Z350 - sideway 2
100
AcDbCircle
 10
3418.275733175124
 20
818.4317114812253
 30
0.0
 40
30.0
100
AcDbArc
 50
9.027464053445868
 51
87.39938239832271
  0
ARC
  5
7D74
330
1F
100
AcDbEntity
  8
ceco.net 222 Nissan Z350 - sideway 2
100
AcDbCircle
 10
3501.401781499637
 20
679.6359675870116
 30
0.0
 40
15.0
100
AcDbArc
 50
270.0
 51
2.512598326588031
  0
ARC
  5
7D75
330
1F
100
AcDbEntity
  8
ceco.net 222 Nissan Z350 - sideway 2
100
AcDbCircle
 10
1731.959649947286
 20
-15726.00096290671
 30
0.0
 40
17086.91275889618
100
AcDbArc
 50
88.27217674587675
 51
89.86882387478718
  0
ARC
  5
7D76
330
1F
100
AcDbEntity
  8
ceco.net 222 Nissan Z350 - sideway 2
100
AcDbCircle
 10
1783.201398775545
 20
1240.658041217252
 30
0.0
 40
125.818631109444
100
AcDbArc
 50
100.9618549869368
 51
155.262726485922
  0
ARC
  5
7D77
330
1F
100
AcDbEntity
  8
ceco.net 222 Nissan Z350 - sideway 2
100
AcDbCircle
 10
1783.201398775545
 20
1240.658041217252
 30
0.0
 40
115.818631109444
100
AcDbArc
 50
88.15524756656758
 51
154.6959167379274
  0
LINE
  5
7D78
330
1F
100
AcDbEntity
  8
ceco.net 222 Nissan Z350 - sideway 2
100
AcDbLine
 10
2918.1182011733
 20
535.5874010485957
 30
0.0
 11
3715.914370092392
 21
515.5045858211987
 31
0.0
  0
ARC
  5
7D79
330
1F
100
AcDbEntity
  8
ceco.net 222 Nissan Z350 - sideway 2
100
AcDbCircle
 10
2052.095909470852
 20
558.3974021192199
 30
0.0
 40
480.1404366694941
100
AcDbArc
 50
12.64400696912887
 51
57.50016796579158
  0
LINE
  5
7D7A
330
1F
100
AcDbEntity
  8
ceco.net 222 Nissan Z350 - sideway 2
100
AcDbLine
 10
682.009835883422
 20
1123.859412555952
 30
0.0
 11
682.0098358833639
 21
1067.31162648844
 31
0.0
  0
LINE
  5
7D7B
330
1F
100
AcDbEntity
  8
ceco.net 222 Nissan Z350 - sideway 2
100
AcDbLine
 10
787.0242037242169
 20
1120.828886222803
 30
0.0
 11
787.0242037242169
 21
1058.875655071944
 31
0.0
  0
LINE
  5
7D7C
330
1F
100
AcDbEntity
  8
ceco.net 222 Nissan Z350 - sideway 2
100
AcDbLine
 10
767.024203724206
 20
1038.875655071941
 30
0.0
 11
741.0866009003184
 21
1038.875655071941
 31
0.0
  0
ARC
  5
7D7D
330
1F
100
AcDbEntity
  8
ceco.net 222 Nissan Z350 - sideway 2
100
AcDbCircle
 10
752.605924799569
 20
1144.696057889562
 30
0.0
 40
106.4455376029598
100
AcDbArc
 50
229.7132160296241
 51
263.7873983647895
  0
ARC
  5
7D7E
330
1F
100
AcDbEntity
  8
ceco.net 222 Nissan Z350 - sideway 2
100
AcDbCircle
 10
1836.989399975453
 20
768.4631802970267
 30
0.0
 40
396.1769795721411
100
AcDbArc
 50
139.2388479544879
 51
170.4078439856461
  0
LINE
  5
7D7F
330
1F
100
AcDbEntity
  8
ceco.net 222 Nissan Z350 - sideway 2
100
AcDbLine
 10
1537.63762008414
 20
1037.352619538247
 30
0.0
 11
1537.63762008414
 21
1029.088701329166
 31
0.0
  0
LINE
  5
7D80
330
1F
100
AcDbEntity
  8
ceco.net 222 Nissan Z350 - sideway 2
100
AcDbLine
 10
1436.632999918474
 20
831.9795408957102
 30
0.0
 11
1443.393370029258
 21
831.9795408957102
 31
0.0
  0
ARC
  5
7D81
330
1F
100
AcDbEntity
  8
ceco.net 222 Nissan Z350 - sideway 2
100
AcDbCircle
 10
1443.393370029258
 20
834.9795408957101
 30
0.0
 40
3.0
100
AcDbArc
 50
270.0
 51
350.4078439856036
  0
ARC
  5
7D82
330
1F
100
AcDbEntity
  8
ceco.net 222 Nissan Z350 - sideway 2
100
AcDbCircle
 10
1534.637620084155
 20
1029.088701329166
 30
0.0
 40
3.0
100
AcDbArc
 50
319.2388479545583
 51
0.0
  0
ARC
  5
7D83
330
1F
100
AcDbEntity
  8
ceco.net 222 Nissan Z350 - sideway 2
100
AcDbCircle
 10
1804.484304358895
 20
796.6482861610951
 30
0.0
 40
1001.243011986993
100
AcDbArc
 50
157.4057719823755
 51
166.9735953090581
  0
ARC
  5
7D84
330
1F
100
AcDbEntity
  8
ceco.net 222 Nissan Z350 - sideway 2
100
AcDbCircle
 10
1811.984304358888
 20
796.6482861610951
 30
0.0
 40
1001.243011986993
100
AcDbArc
 50
156.9625212756707
 51
166.916697402137
  0
ARC
  5
7D85
330
1F
100
AcDbEntity
  8
ceco.net 222 Nissan Z350 - sideway 2
100
AcDbCircle
 10
2990.619392807006
 20
606.8114275043479
 30
0.0
 40
1413.02620374779
100
AcDbArc
 50
152.1256766121152
 51
159.9357830589997
  0
ARC
  5
7D86
330
1F
100
AcDbEntity
  8
ceco.net 222 Nissan Z350 - sideway 2
100
AcDbCircle
 10
687.0098358833892
 20
1123.859412555945
 30
0.0
 40
5.0
100
AcDbArc
 50
124.4140001484179
 51
179.9999999999185
  0
ARC
  5
7D87
330
1F
100
AcDbEntity
  8
ceco.net 222 Nissan Z350 - sideway 2
100
AcDbCircle
 10
687.0098358833602
 20
1067.31162648844
 30
0.0
 40
5.0
100
AcDbArc
 50
180.0
 51
229.7132160296409
  0
LINE
  5
7D88
330
1F
100
AcDbEntity
  8
ceco.net 222 Nissan Z350 - sideway 2
100
AcDbLine
 10
741.0866009003184
 20
1038.875655071941
 30
0.0
 11
695.8841340223662
 21
1038.875655071941
 31
0.0
  0
ARC
  5
7D89
330
1F
100
AcDbEntity
  8
ceco.net 222 Nissan Z350 - sideway 2
100
AcDbCircle
 10
1800.077404784602
 20
-160.8170581165557
 30
0.0
 40
1627.186143630816
100
AcDbArc
 50
132.4997265418945
 51
134.4909665345858
  0
ARC
  5
7D8A
330
1F
100
AcDbEntity
  8
ceco.net 222 Nissan Z350 - sideway 2
100
AcDbCircle
 10
794.1378442081513
 20
1081.344575396692
 30
0.0
 40
40.43442732915127
100
AcDbArc
 50
321.0087793024658
 51
38.99122069753893
  0
LINE
  5
7D8B
330
1F
100
AcDbEntity
  8
ceco.net 222 Nissan Z350 - sideway 2
100
AcDbLine
 10
817.7927709131873
 20
1110.493956676472
 30
0.0
 11
787.0242037242714
 21
1110.493956676472
 31
0.0
  0
ARC
  5
7D8C
330
1F
100
AcDbEntity
  8
ceco.net 222 Nissan Z350 - sideway 2
100
AcDbCircle
 10
817.7927709131873
 20
1100.493956676474
 30
0.0
 40
10.0
100
AcDbArc
 50
38.99122069754398
 51
90.0
  0
LINE
  5
7D8D
330
1F
100
AcDbEntity
  8
ceco.net 222 Nissan Z350 - sideway 2
100
AcDbLine
 10
817.7927709131873
 20
1052.195194116912
 30
0.0
 11
785.8755018606171
 21
1052.195194116912
 31
0.0
  0
ARC
  5
7D8E
330
1F
100
AcDbEntity
  8
ceco.net 222 Nissan Z350 - sideway 2
100
AcDbCircle
 10
817.7927709131873
 20
1062.195194116917
 30
0.0
 40
10.0
100
AcDbArc
 50
270.0
 51
321.0087793024559
  0
ARC
  5
7D8F
330
1F
100
AcDbEntity
  8
ceco.net 222 Nissan Z350 - sideway 2
100
AcDbCircle
 10
767.024203724206
 20
1120.828886222803
 30
0.0
 40
20.0
100
AcDbArc
 50
0.0
 51
83.82339391746278
  0
ARC
  5
7D90
330
1F
100
AcDbEntity
  8
ceco.net 222 Nissan Z350 - sideway 2
100
AcDbCircle
 10
767.024203724206
 20
1058.875655071944
 30
0.0
 40
20.0
100
AcDbArc
 50
270.0
 51
0.0
  0
LINE
  5
7D91
330
1F
100
AcDbEntity
  8
ceco.net 222 Nissan Z350 - sideway 2
100
AcDbLine
 10
777.0242037242241
 20
1125.828886222792
 30
0.0
 11
777.0242037241951
 21
1053.875655071949
 31
0.0
  0
LINE
  5
7D92
330
1F
100
AcDbEntity
  8
ceco.net 222 Nissan Z350 - sideway 2
100
AcDbLine
 10
732.767204269563
 20
1135.828886222804
 30
0.0
 11
767.0242037242351
 21
1135.82888622279
 31
0.0
  0
ARC
  5
7D93
330
1F
100
AcDbEntity
  8
ceco.net 222 Nissan Z350 - sideway 2
100
AcDbCircle
 10
726.5067406462876
 20
1066.205863387851
 30
0.0
 40
69.88517170845179
100
AcDbArc
 50
85.20442719934207
 51
121.1717815264861
  0
LINE
  5
7D94
330
1F
100
AcDbEntity
  8
ceco.net 222 Nissan Z350 - sideway 2
100
AcDbLine
 10
767.024203724206
 20
1043.875655071951
 30
0.0
 11
741.0866009003184
 21
1043.875655071944
 31
0.0
  0
ARC
  5
7D95
330
1F
100
AcDbEntity
  8
ceco.net 222 Nissan Z350 - sideway 2
100
AcDbCircle
 10
752.605924799569
 20
1144.696057889562
 30
0.0
 40
101.4455376029598
100
AcDbArc
 50
231.3638465532179
 51
263.7873983647895
  0
ARC
  5
7D96
330
1F
100
AcDbEntity
  8
ceco.net 222 Nissan Z350 - sideway 2
100
AcDbCircle
 10
767.0242037242351
 20
1125.828886222792
 30
0.0
 40
10.0
100
AcDbArc
 50
0.0000000000199484
 51
90.0
  0
ARC
  5
7D97
330
1F
100
AcDbEntity
  8
ceco.net 222 Nissan Z350 - sideway 2
100
AcDbCircle
 10
767.024203724206
 20
1053.875655071949
 30
0.0
 40
10.0
100
AcDbArc
 50
270.0
 51
0.0
  0
LINE
  5
7D98
330
1F
100
AcDbEntity
  8
ceco.net 222 Nissan Z350 - sideway 2
100
AcDbLine
 10
685.509835883422
 20
1117.444771381393
 30
0.0
 11
685.5098358833674
 21
1073.265511368675
 31
0.0
  0
ARC
  5
7D99
330
1F
100
AcDbEntity
  8
ceco.net 222 Nissan Z350 - sideway 2
100
AcDbCircle
 10
695.5098358833857
 20
1117.444771381387
 30
0.0
 40
10.0
100
AcDbArc
 50
121.1717815264918
 51
179.9999999999593
  0
ARC
  5
7D9A
330
1F
100
AcDbEntity
  8
ceco.net 222 Nissan Z350 - sideway 2
100
AcDbCircle
 10
695.5098358833565
 20
1073.265511368668
 30
0.0
 40
10.0
100
AcDbArc
 50
179.9999999999593
 51
231.3638465533866
  0
LINE
  5
7D9B
330
1F
100
AcDbEntity
  8
ceco.net 222 Nissan Z350 - sideway 2
100
AcDbLine
 10
2917.866552242641
 20
525.5905679092629
 30
0.0
 11
3715.662721161734
 21
505.5077526818658
 31
0.0
  0
LINE
  5
7D9C
330
1F
100
AcDbEntity
  8
ceco.net 222 Nissan Z350 - sideway 2
100
AcDbLine
 10
2918.1182011733
 20
535.5874010485957
 30
0.0
 11
2917.866552242641
 21
525.5905679092629
 31
0.0
  0
LINE
  5
7D9D
330
1F
100
AcDbEntity
  8
ceco.net 222 Nissan Z350 - sideway 2
100
AcDbLine
 10
3090.324390810808
 20
519.2288710619843
 30
0.0
 11
3090.324390810808
 21
490.9741258560496
 31
0.0
  0
LINE
  5
7D9E
330
1F
100
AcDbEntity
  8
ceco.net 222 Nissan Z350 - sideway 2
100
AcDbLine
 10
3088.324390810798
 20
488.9741258560471
 30
0.0
 11
2954.085323614508
 21
488.9741258560471
 31
0.0
  0
ARC
  5
7D9F
330
1F
100
AcDbEntity
  8
ceco.net 222 Nissan Z350 - sideway 2
100
AcDbCircle
 10
2938.506437150823
 20
-159.3914662201702
 30
0.0
 40
648.5527293071801
100
AcDbArc
 50
88.6235655701002
 51
94.8968477940417
  0
LINE
  5
7DA0
330
1F
100
AcDbEntity
  8
ceco.net 222 Nissan Z350 - sideway 2
100
AcDbLine
 10
3088.324390810798
 20
521.2288710619867
 30
0.0
 11
2954.897267959964
 21
521.2288710619867
 31
0.0
  0
ARC
  5
7DA1
330
1F
100
AcDbEntity
  8
ceco.net 222 Nissan Z350 - sideway 2
100
AcDbCircle
 10
2939.318381496279
 20
-127.1367210142306
 30
0.0
 40
648.5527293071801
100
AcDbArc
 50
88.6235655701002
 51
94.99944074778568
  0
LINE
  5
7DA2
330
1F
100
AcDbEntity
  8
ceco.net 222 Nissan Z350 - sideway 2
100
AcDbLine
 10
2880.9738850032
 20
516.9562299528971
 30
0.0
 11
2880.9738850032
 21
488.7867417316167
 31
0.0
  0
ARC
  5
7DA3
330
1F
100
AcDbEntity
  8
ceco.net 222 Nissan Z350 - sideway 2
100
AcDbCircle
 10
2882.973885003211
 20
488.7867417316167
 30
0.0
 40
2.0
100
AcDbArc
 50
180.0
 51
274.8968477944594
  0
ARC
  5
7DA4
330
1F
100
AcDbEntity
  8
ceco.net 222 Nissan Z350 - sideway 2
100
AcDbCircle
 10
3088.324390810798
 20
490.9741258560496
 30
0.0
 40
2.0
100
AcDbArc
 50
270.0
 51
0.0
  0
ARC
  5
7DA5
330
1F
100
AcDbEntity
  8
ceco.net 222 Nissan Z350 - sideway 2
100
AcDbCircle
 10
3088.324390810798
 20
519.2288710619843
 30
0.0
 40
2.0
100
AcDbArc
 50
0.0
 51
90.0
  0
LINE
  5
7DA6
330
1F
100
AcDbEntity
  8
ceco.net 222 Nissan Z350 - sideway 2
100
AcDbLine
 10
3080.324390810816
 20
521.2288710619867
 30
0.0
 11
3080.324390810874
 21
488.9741258560542
 31
0.0
  0
LINE
  5
7DA7
330
1F
100
AcDbEntity
  8
ceco.net 222 Nissan Z350 - sideway 2
100
AcDbLine
 10
3661.724866256878
 20
477.1615801983424
 30
0.0
 11
3728.128772101129
 21
475.5172532638676
 31
0.0
  0
LINE
  5
7DA8
330
1F
100
AcDbEntity
  8
ceco.net 222 Nissan Z350 - sideway 2
100
AcDbLine
 10
3659.774376086446
 20
506.9146224453939
 30
0.0
 11
3659.774376086446
 21
479.1609672986263
 31
0.0
  0
ARC
  5
7DA9
330
1F
100
AcDbEntity
  8
ceco.net 222 Nissan Z350 - sideway 2
100
AcDbCircle
 10
3661.774376086457
 20
479.1609672986263
 30
0.0
 40
2.0
100
AcDbArc
 50
180.0
 51
268.5815029581797
  0
ARC
  5
7DAA
330
1F
100
AcDbEntity
  8
ceco.net 222 Nissan Z350 - sideway 2
100
AcDbCircle
 10
2882.973885003211
 20
516.9562299528971
 30
0.0
 40
2.0
100
AcDbArc
 50
94.9994407484141
 51
180.0
  0
ARC
  5
7DAB
330
1F
100
AcDbEntity
  8
ceco.net 222 Nissan Z350 - sideway 2
100
AcDbCircle
 10
3369.775714471885
 20
592.4285843264422
 30
0.0
 40
199.939543160205
100
AcDbArc
 50
235.0994034475285
 51
258.9919932192284
  0
ARC
  5
7DAC
330
1F
100
AcDbEntity
  8
ceco.net 222 Nissan Z350 - sideway 2
100
AcDbCircle
 10
3386.66754811551
 20
750.5878964209395
 30
0.0
 40
358.6728856952075
100
AcDbArc
 50
261.1680535633852
 51
293.5950016256318
  0
ARC
  5
7DAD
330
1F
100
AcDbEntity
  8
ceco.net 222 Nissan Z350 - sideway 2
100
AcDbCircle
 10
3123.723681265302
 20
-8791.810533094713
 30
0.0
 40
9275.314990401183
100
AcDbArc
 50
87.51015442670166
 51
89.12538185198203
  0
LINE
  5
7DAE
330
1F
100
AcDbEntity
  8
ceco.net 222 Nissan Z350 - sideway 2
100
AcDbLine
 10
3251.164499003851
 20
437.7758807243816
 30
0.0
 11
3255.216442631096
 21
473.550417674752
 31
0.0
  0
LINE
  5
7DAF
330
1F
100
AcDbEntity
  8
ceco.net 222 Nissan Z350 - sideway 2
100
AcDbLine
 10
3536.230526538377
 20
464.7574113902317
 30
0.0
 11
3536.230526538318
 21
431.0648827318539
 31
0.0
  0
ARC
  5
7DB0
330
1F
100
AcDbEntity
  8
ceco.net 222 Nissan Z350 - sideway 2
100
AcDbCircle
 10
3265.152910330373
 20
472.4249801316213
 30
0.0
 40
10.0
100
AcDbArc
 50
89.12538185198204
 51
173.5380272625409
  0
ARC
  5
7DB1
330
1F
100
AcDbEntity
  8
ceco.net 222 Nissan Z350 - sideway 2
100
AcDbCircle
 10
3526.230526538383
 20
464.7574113902317
 30
0.0
 40
10.0
100
AcDbArc
 50
0.0
 51
87.51015442670164
  0
ARC
  5
7DB2
330
1F
100
AcDbEntity
  8
ceco.net 222 Nissan Z350 - sideway 2
100
AcDbCircle
 10
3526.230526538383
 20
431.0648827318539
 30
0.0
 40
10.0
100
AcDbArc
 50
293.5950016254214
 51
0.0
  0
ARC
  5
7DB3
330
1F
100
AcDbEntity
  8
ceco.net 222 Nissan Z350 - sideway 2
100
AcDbCircle
 10
3261.100966702954
 20
436.6504431812794
 30
0.0
 40
10.0
100
AcDbArc
 50
173.5380272625922
 51
235.0994034475212
  0
ARC
  5
7DB4
330
1F
100
AcDbEntity
  8
ceco.net 222 Nissan Z350 - sideway 2
100
AcDbCircle
 10
3123.723681265302
 20
-8834.216689669933
 30
0.0
 40
9275.314990401183
100
AcDbArc
 50
89.21103417210792
 51
91.26078585025354
  0
ARC
  5
7DB5
330
1F
100
AcDbEntity
  8
ceco.net 222 Nissan Z350 - sideway 2
100
AcDbCircle
 10
3123.723681265302
 20
-8791.810533094713
 30
0.0
 40
9265.314990401183
100
AcDbArc
 50
87.63138568789532
 51
88.17233360336329
  0
ARC
  5
7DB6
330
1F
100
AcDbEntity
  8
ceco.net 222 Nissan Z350 - sideway 2
100
AcDbCircle
 10
3386.66754811551
 20
750.5878964209395
 30
0.0
 40
348.6728856952075
100
AcDbArc
 50
261.1680535633852
 51
266.848943342488
  0
ARC
  5
7DB7
330
1F
100
AcDbEntity
  8
ceco.net 222 Nissan Z350 - sideway 2
100
AcDbCircle
 10
3369.775714471885
 20
592.4285843264422
 30
0.0
 40
189.939543160205
100
AcDbArc
 50
242.1532370205743
 51
258.9919932192284
  0
LINE
  5
7DB8
330
1F
100
AcDbEntity
  8
ceco.net 222 Nissan Z350 - sideway 2
100
AcDbLine
 10
3408.907022612496
 20
458.7960614233574
 30
0.0
 11
3408.907022612496
 21
438.4559049874434
 31
0.0
  0
LINE
  5
7DB9
330
1F
100
AcDbEntity
  8
ceco.net 222 Nissan Z350 - sideway 2
100
AcDbLine
 10
3406.804091755264
 20
432.3210619613471
 30
0.0
 11
3385.690411096577
 21
405.1425024922474
 31
0.0
  0
ARC
  5
7DBA
330
1F
100
AcDbEntity
  8
ceco.net 222 Nissan Z350 - sideway 2
100
AcDbCircle
 10
3398.907022612508
 20
438.4559049874434
 30
0.0
 40
10.0
100
AcDbArc
 50
322.1581306101515
 51
0.0
  0
LINE
  5
7DBB
330
1F
100
AcDbEntity
  8
ceco.net 222 Nissan Z350 - sideway 2
100
AcDbLine
 10
3393.907022612511
 20
459.3965709863434
 30
0.0
 11
3393.907022612511
 21
438.4559049874434
 31
0.0
  0
LINE
  5
7DBC
330
1F
100
AcDbEntity
  8
ceco.net 222 Nissan Z350 - sideway 2
100
AcDbLine
 10
3391.804091755275
 20
432.3210619613471
 30
0.0
 11
3369.190840772219
 21
403.2121824358094
 31
0.0
  0
ARC
  5
7DBD
330
1F
100
AcDbEntity
  8
ceco.net 222 Nissan Z350 - sideway 2
100
AcDbCircle
 10
3383.907022612518
 20
438.4559049874434
 30
0.0
 40
10.0
100
AcDbArc
 50
322.1581306101515
 51
0.0
  0
ARC
  5
7DBE
330
1F
100
AcDbEntity
  8
ceco.net 222 Nissan Z350 - sideway 2
100
AcDbCircle
 10
3386.66754811551
 20
750.5878964209395
 30
0.0
 40
348.6728856952075
100
AcDbArc
 50
270.0995403392971
 51
290.6729890281223
  0
LINE
  5
7DBF
330
1F
100
AcDbEntity
  8
ceco.net 222 Nissan Z350 - sideway 2
100
AcDbLine
 10
3516.230526538395
 20
455.5968919552393
 30
0.0
 11
3516.230526538336
 21
433.7219662671438
 31
0.0
  0
LINE
  5
7DC0
330
1F
100
AcDbEntity
  8
ceco.net 222 Nissan Z350 - sideway 2
100
AcDbLine
 10
3275.787965390024
 20
434.4514722630856
 30
0.0
 11
3278.987828847519
 21
462.7030088158514
 31
0.0
  0
ARC
  5
7DC1
330
1F
100
AcDbEntity
  8
ceco.net 222 Nissan Z350 - sideway 2
100
AcDbCircle
 10
3123.723681265302
 20
-8802.264538136757
 30
0.0
 40
9275.314990401183
100
AcDbArc
 50
88.39084075203142
 51
88.97836181194866
  0
ARC
  5
7DC2
330
1F
100
AcDbEntity
  8
ceco.net 222 Nissan Z350 - sideway 2
100
AcDbCircle
 10
3288.924296546683
 20
461.5775712727421
 30
0.0
 40
10.0
100
AcDbArc
 50
88.97836181194866
 51
173.5380272625882
  0
ARC
  5
7DC3
330
1F
100
AcDbEntity
  8
ceco.net 222 Nissan Z350 - sideway 2
100
AcDbCircle
 10
3383.907022612518
 20
459.3965709863434
 30
0.0
 40
10.0
100
AcDbArc
 50
0.0
 51
88.39084075203144
  0
ARC
  5
7DC4
330
1F
100
AcDbEntity
  8
ceco.net 222 Nissan Z350 - sideway 2
100
AcDbCircle
 10
3418.907022612486
 20
458.7960614233574
 30
0.0
 40
10.0
100
AcDbArc
 50
88.17233360336334
 51
180.0
  0
ARC
  5
7DC5
330
1F
100
AcDbEntity
  8
ceco.net 222 Nissan Z350 - sideway 2
100
AcDbCircle
 10
3506.230526538402
 20
455.5968919552606
 30
0.0
 40
10.0
100
AcDbArc
 50
359.9999999998778
 51
87.63138568810374
  0
ARC
  5
7DC6
330
1F
100
AcDbEntity
  8
ceco.net 222 Nissan Z350 - sideway 2
100
AcDbCircle
 10
3506.230526538347
 20
433.7219662671651
 30
0.0
 40
10.0
100
AcDbArc
 50
290.6729890281276
 51
359.9999999998778
  0
ARC
  5
7DC7
330
1F
100
AcDbEntity
  8
ceco.net 222 Nissan Z350 - sideway 2
100
AcDbCircle
 10
3285.724433089188
 20
433.3260347199763
 30
0.0
 40
10.0
100
AcDbArc
 50
173.5380272625882
 51
242.1532370205558
  0
ARC
  5
7DC8
330
1F
100
AcDbEntity
  8
ceco.net 222 Nissan Z350 - sideway 2
100
AcDbCircle
 10
3367.611426943669
 20
404.4391510410259
 30
0.0
 40
2.0
100
AcDbArc
 50
266.8489433422797
 51
322.1581306102499
  0
ARC
  5
7DC9
330
1F
100
AcDbEntity
  8
ceco.net 222 Nissan Z350 - sideway 2
100
AcDbCircle
 10
3387.269824925184
 20
403.9155338870239
 30
0.0
 40
2.0
100
AcDbArc
 50
142.1581306111563
 51
270.0995403395056
  0
LINE
  5
7DCA
330
1F
100
AcDbEntity
  8
ceco.net 222 Nissan Z350 - sideway 2
100
AcDbLine
 10
3389.047429787879
 20
464.3945991797773
 30
0.0
 11
3388.907022612515
 21
438.4559049873866
 31
0.0
  0
LINE
  5
7DCB
330
1F
100
AcDbEntity
  8
ceco.net 222 Nissan Z350 - sideway 2
100
AcDbLine
 10
3386.804091755224
 20
432.321061961276
 30
0.0
 11
3369.10018740953
 21
409.5317328587535
 31
0.0
  0
LINE
  5
7DCC
330
1F
100
AcDbEntity
  8
ceco.net 222 Nissan Z350 - sideway 2
100
AcDbLine
 10
3510.844493681321
 20
460.5926200502077
 30
0.0
 11
3511.229497468506
 21
433.793596904473
 31
0.0
  0
ARC
  5
7DCD
330
1F
100
AcDbEntity
  8
ceco.net 222 Nissan Z350 - sideway 2
100
AcDbCircle
 10
3505.844493681325
 20
460.5926200502219
 30
0.0
 40
5.0
100
AcDbArc
 50
359.9999999998778
 51
87.63138568810374
  0
ARC
  5
7DCE
330
1F
100
AcDbEntity
  8
ceco.net 222 Nissan Z350 - sideway 2
100
AcDbCircle
 10
3384.047429787886
 20
464.3945991797773
 30
0.0
 40
5.0
100
AcDbArc
 50
0.0
 51
88.39084075203144
  0
ARC
  5
7DCF
330
1F
100
AcDbEntity
  8
ceco.net 222 Nissan Z350 - sideway 2
100
AcDbCircle
 10
3378.907022612522
 20
438.4559049873866
 30
0.0
 40
10.0
100
AcDbArc
 50
322.1581306101139
 51
0.0
  0
ARC
  5
7DD0
330
1F
100
AcDbEntity
  8
ceco.net 222 Nissan Z350 - sideway 2
100
AcDbCircle
 10
3386.66754811551
 20
750.5878964209395
 30
0.0
 40
343.6728856952075
100
AcDbArc
 50
270.0995403392971
 51
290.6728962364928
  0
ARC
  5
7DD1
330
1F
100
AcDbEntity
  8
ceco.net 222 Nissan Z350 - sideway 2
100
AcDbCircle
 10
3506.230013367727
 20
433.721772633036
 30
0.0
 40
5.0
100
AcDbArc
 50
290.6728962365042
 51
0.8230738323943024
  0
ARC
  5
7DD2
330
1F
100
AcDbEntity
  8
ceco.net 222 Nissan Z350 - sideway 2
100
AcDbCircle
 10
3386.66754811551
 20
750.5878964209395
 30
0.0
 40
343.6728856952075
100
AcDbArc
 50
252.942289394676
 51
266.3575449644714
  0
ARC
  5
7DD3
330
1F
100
AcDbEntity
  8
ceco.net 222 Nissan Z350 - sideway 2
100
AcDbCircle
 10
3365.151652838179
 20
412.5991543717839
 30
0.0
 40
5.0
100
AcDbArc
 50
266.3575449642629
 51
322.1581306101853
  0
ARC
  5
7DD4
330
1F
100
AcDbEntity
  8
ceco.net 222 Nissan Z350 - sideway 2
100
AcDbCircle
 10
1094.70233982104
 20
961.4948052204121
 30
0.0
 40
112.2152372241614
100
AcDbArc
 50
60.11870265692111
 51
131.9940825471749
  0
ARC
  5
7DD5
330
1F
100
AcDbEntity
  8
ceco.net 222 Nissan Z350 - sideway 2
100
AcDbCircle
 10
1755.950308795563
 20
-46.78455217375353
 30
0.0
 40
1471.618971749029
100
AcDbArc
 50
115.3601393379197
 51
127.1971812140195
  0
ARC
  5
7DD6
330
1F
100
AcDbEntity
  8
ceco.net 222 Nissan Z350 - sideway 2
100
AcDbCircle
 10
1275.019318406819
 20
-890.5769567834189
 30
0.0
 40
2202.621126176212
100
AcDbArc
 50
80.3305914447683
 51
85.4787890083076
  0
ARC
  5
7DD7
330
1F
100
AcDbEntity
  8
ceco.net 222 Nissan Z350 - sideway 2
100
AcDbCircle
 10
1254.138194558621
 20
1011.929581559848
 30
0.0
 40
300.0
100
AcDbArc
 50
90.62882949748757
 51
115.3601393379192
  0
ARC
  5
7DD8
330
1F
100
AcDbEntity
  8
ceco.net 222 Nissan Z350 - sideway 2
100
AcDbCircle
 10
1976.244105647099
 20
1018.431621610738
 30
0.0
 40
279.0818833742898
100
AcDbArc
 50
149.3563724615024
 51
164.532822895261
  0
ARC
  5
7DD9
330
1F
100
AcDbEntity
  8
ceco.net 222 Nissan Z350 - sideway 2
100
AcDbCircle
 10
1945.035372902694
 20
1018.431621610738
 30
0.0
 40
279.0818833742898
100
AcDbArc
 50
146.0874234902007
 51
164.7222631909481
  0
ARC
  5
7DDA
330
1F
100
AcDbEntity
  8
ceco.net 222 Nissan Z350 - sideway 2
100
AcDbCircle
 10
1786.172571949762
 20
995.7330091246925
 30
0.0
 40
178.195976109276
100
AcDbArc
 50
62.87025225848486
 51
101.9777298446342
  0
ARC
  5
7DDB
330
1F
100
AcDbEntity
  8
ceco.net 222 Nissan Z350 - sideway 2
100
AcDbCircle
 10
1764.800296266359
 20
974.1692451774079
 30
0.0
 40
211.9868093993103
100
AcDbArc
 50
60.46123734708157
 51
100.4355177790855
  0
ARC
  5
7DDC
330
1F
100
AcDbEntity
  8
ceco.net 222 Nissan Z350 - sideway 2
100
AcDbCircle
 10
1753.341926685396
 20
1150.484796153762
 30
0.0
 40
20.0
100
AcDbArc
 50
101.9777298446342
 51
149.3563724615024
  0
ARC
  5
7DDD
330
1F
100
AcDbEntity
  8
ceco.net 222 Nissan Z350 - sideway 2
100
AcDbCircle
 10
1730.025950366736
 20
1162.980473261385
 30
0.0
 40
20.0
100
AcDbArc
 50
100.4355177790873
 51
146.087423490174
  0
ARC
  5
7DDE
330
1F
100
AcDbEntity
  8
ceco.net 222 Nissan Z350 - sideway 2
100
AcDbCircle
 10
1819.707016396492
 20
1164.620793510438
 30
0.0
 40
30.87812436127051
100
AcDbArc
 50
6.489478367691003
 51
62.01106192278071
  0
ARC
  5
7DDF
330
1F
100
AcDbEntity
  8
ceco.net 222 Nissan Z350 - sideway 2
100
AcDbCircle
 10
1369.924505409999
 20
396.058711031821
 30
0.0
 40
921.3540333659066
100
AcDbArc
 50
59.7413996501976
 51
67.02360844374034
  0
ELLIPSE
  5
7DE0
330
1F
100
AcDbEntity
  8
ceco.net 222 Nissan Z350 - sideway 2
100
AcDbEllipse
 10
312.9648371838848
 20
607.2174018478202
 30
0.0
 11
0.0000000000000025
 21
40.49489775482583
 31
0.0
210
0.0
220
0.0
230
1.0
 40
0.6878091034191156
 41
1.869863301252533
 42
2.138783255861345
  0
LINE
  5
7DE1
330
1F
100
AcDbEntity
  8
ceco.net 222 Nissan Z350 - sideway 2
100
AcDbLine
 10
1377.041280659414
 20
1296.522683637634
 30
0.0
 11
1500.254456642112
 21
1286.158335732687
 31
0.0
  0
LINE
  5
7DE2
330
1F
100
AcDbEntity
  8
ceco.net 222 Nissan Z350 - sideway 2
100
AcDbLine
 10
1375.364857056254
 20
1236.451802751674
 30
0.0
 11
1498.578033038898
 21
1226.08745484672
 31
0.0
  0
LINE
  5
7DE3
330
1F
100
AcDbEntity
  8
ceco.net 222 Nissan Z350 - sideway 2
100
AcDbLine
 10
1509.416244840522
 20
1276.193527607305
 30
0.0
 11
1509.416244840409
 21
1233.484501873598
 31
0.0
  0
LINE
  5
7DE4
330
1F
100
AcDbEntity
  8
ceco.net 222 Nissan Z350 - sideway 2
100
AcDbLine
 10
1366.203068857841
 20
1286.557875512252
 30
0.0
 11
1366.203068857841
 21
1246.416610877056
 31
0.0
  0
LINE
  5
7DE5
330
1F
100
AcDbEntity
  8
ceco.net 222 Nissan Z350 - sideway 2
100
AcDbLine
 10
1360.40857139325
 20
1235.142122590887
 30
0.0
 11
1498.57803303884
 21
1224.563899127645
 31
0.0
  0
ARC
  5
7DE6
330
1F
100
AcDbEntity
  8
ceco.net 222 Nissan Z350 - sideway 2
100
AcDbCircle
 10
1376.203068857834
 20
1286.557875512252
 30
0.0
 40
10.0
100
AcDbArc
 50
85.19175845102425
 51
180.0
  0
ARC
  5
7DE7
330
1F
100
AcDbEntity
  8
ceco.net 222 Nissan Z350 - sideway 2
100
AcDbCircle
 10
1376.203068857834
 20
1246.416610877056
 30
0.0
 40
10.0
100
AcDbArc
 50
180.0
 51
265.1917584510242
  0
ARC
  5
7DE8
330
1F
100
AcDbEntity
  8
ceco.net 222 Nissan Z350 - sideway 2
100
AcDbCircle
 10
1499.416244840475
 20
1236.052262972102
 30
0.0
 40
10.0
100
AcDbArc
 50
265.1917584510242
 51
0.0
  0
ARC
  5
7DE9
330
1F
100
AcDbEntity
  8
ceco.net 222 Nissan Z350 - sideway 2
100
AcDbCircle
 10
1499.416244840533
 20
1276.193527607305
 30
0.0
 40
10.0
100
AcDbArc
 50
0.0
 51
85.19175845102425
  0
ARC
  5
7DEA
330
1F
100
AcDbEntity
  8
ceco.net 222 Nissan Z350 - sideway 2
100
AcDbCircle
 10
1415.778193486076
 20
1248.784801520899
 30
0.0
 40
64.65529660376254
100
AcDbArc
 50
135.3442600815178
 51
183.858470253142
  0
ARC
  5
7DEB
330
1F
100
AcDbEntity
  8
ceco.net 222 Nissan Z350 - sideway 2
100
AcDbCircle
 10
1361.24678319483
 20
1245.106930716255
 30
0.0
 40
10.0
100
AcDbArc
 50
183.8584702531583
 51
265.1917584510238
  0
ARC
  5
7DEC
330
1F
100
AcDbEntity
  8
ceco.net 222 Nissan Z350 - sideway 2
100
AcDbCircle
 10
1499.412786900578
 20
1234.594023503256
 30
0.0
 40
10.0648004947891
100
AcDbArc
 50
265.2425409775244
 51
353.6709751771429
  0
LINE
  5
7DED
330
1F
100
AcDbEntity
  8
ceco.net 222 Nissan Z350 - sideway 2
100
AcDbLine
 10
1428.647868650801
 20
1292.181681728835
 30
0.0
 11
1428.647868650801
 21
1309.641567654844
 31
0.0
  0
LINE
  5
7DEE
330
1F
100
AcDbEntity
  8
ceco.net 222 Nissan Z350 - sideway 2
100
AcDbLine
 10
1448.647868650725
 20
1290.499337641478
 30
0.0
 11
1448.647868650838
 21
1305.915842371178
 31
0.0
  0
LINE
  5
7DEF
330
1F
100
AcDbEntity
  8
ceco.net 222 Nissan Z350 - sideway 2
100
AcDbLine
 10
1425.433733325419
 20
1308.981113408372
 30
0.0
 11
1420.724647363742
 21
1292.848160953078
 31
0.0
  0
ARC
  5
7DF0
330
1F
100
AcDbEntity
  8
ceco.net 222 Nissan Z350 - sideway 2
100
AcDbCircle
 10
1277.565193643924
 20
-880.7802441420937
 30
0.0
 40
2202.621126176212
100
AcDbArc
 50
85.78692383221056
 51
85.88163089749214
  0
ARC
  5
7DF1
330
1F
100
AcDbEntity
  8
ceco.net 222 Nissan Z350 - sideway 2
100
AcDbCircle
 10
1275.019318406819
 20
-890.5769567834189
 30
0.0
 40
2202.621126176212
100
AcDbArc
 50
86.09980216468839
 51
90.62882949748757
  0
ARC
  5
7DF2
330
1F
100
AcDbEntity
  8
ceco.net 222 Nissan Z350 - sideway 2
100
AcDbCircle
 10
1435.033150692634
 20
1306.179116582961
 30
0.0
 40
10.0
100
AcDbArc
 50
85.88163089749162
 51
163.7278772562494
  0
ARC
  5
7DF3
330
1F
100
AcDbEntity
  8
ceco.net 222 Nissan Z350 - sideway 2
100
AcDbCircle
 10
1436.305402128382
 20
1308.418526031773
 30
0.0
 40
7.754588949265924
100
AcDbArc
 50
94.09737719464718
 51
170.9255093152014
  0
ARC
  5
7DF4
330
1F
100
AcDbEntity
  8
ceco.net 222 Nissan Z350 - sideway 2
100
AcDbCircle
 10
1438.64786865079
 20
1305.915842371228
 30
0.0
 40
10.0
100
AcDbArc
 50
359.999999999715
 51
85.78692383200204
  0
LINE
  5
7DF5
330
1F
100
AcDbEntity
  8
ceco.net 222 Nissan Z350 - sideway 2
100
AcDbLine
 10
293.2120001840848
 20
633.9875219633919
 30
0.0
 11
332.7176741813527
 21
633.9875219633919
 31
0.0
  0
LINE
  5
7DF6
330
1F
100
AcDbEntity
  8
ceco.net 222 Nissan Z350 - sideway 2
100
AcDbLine
 10
288.8352662655088
 20
618.9875219633913
 30
0.0
 11
303.4767934988885
 21
618.9875219633913
 31
0.0
  0
LINE
  5
7DF7
330
1F
100
AcDbEntity
  8
ceco.net 222 Nissan Z350 - sideway 2
100
AcDbLine
 10
313.7040347882466
 20
599.2375416295923
 30
0.0
 11
337.9269988582673
 21
599.2375416295923
 31
0.0
  0
LINE
  5
7DF8
330
1F
100
AcDbEntity
  8
ceco.net 222 Nissan Z350 - sideway 2
100
AcDbLine
 10
291.3167256452179
 20
584.2375416295917
 30
0.0
 11
334.6129487226389
 21
584.2375416295917
 31
0.0
  0
LINE
  5
7DF9
330
1F
100
AcDbEntity
  8
ceco.net 222 Nissan Z350 - sideway 2
100
AcDbLine
 10
312.2722067922586
 20
602.6339185808078
 30
0.0
 11
335.9812606420709
 21
626.9448949482532
 31
0.0
  0
LINE
  5
7DFA
330
1F
100
AcDbEntity
  8
ceco.net 222 Nissan Z350 - sideway 2
100
AcDbLine
 10
286.8730757138436
 20
597.0977150325333
 30
0.0
 11
304.9086214948765
 21
615.5911450121758
 31
0.0
  0
ARC
  5
7DFB
330
1F
100
AcDbEntity
  8
ceco.net 222 Nissan Z350 - sideway 2
100
AcDbCircle
 10
303.4767934988885
 20
616.9875219633889
 30
0.0
 40
2.0
100
AcDbArc
 50
315.7181547702477
 51
90.0
  0
ARC
  5
7DFC
330
1F
100
AcDbEntity
  8
ceco.net 222 Nissan Z350 - sideway 2
100
AcDbCircle
 10
313.7040347882466
 20
601.2375416295948
 30
0.0
 40
2.0
100
AcDbArc
 50
135.7181547702587
 51
270.0
  0
ELLIPSE
  5
7DFD
330
1F
100
AcDbEntity
  8
ceco.net 222 Nissan Z350 - sideway 2
100
AcDbEllipse
 10
312.9648371838848
 20
607.2174018478202
 30
0.0
 11
0.0000000000000025
 21
40.49489775482583
 31
0.0
210
0.0
220
0.0
230
1.0
 40
0.6878091034191156
 41
7.164622216537184
 42
7.49381517012111
  0
ELLIPSE
  5
7DFE
330
1F
100
AcDbEntity
  8
ceco.net 222 Nissan Z350 - sideway 2
100
AcDbEllipse
 10
312.9648371838848
 20
607.2174018478202
 30
0.0
 11
0.0000000000000025
 21
40.49489775482583
 31
0.0
210
0.0
220
0.0
230
1.0
 40
0.6878091034191156
 41
5.284793190678215
 42
5.401748397881167
  0
ELLIPSE
  5
7DFF
330
1F
100
AcDbEntity
  8
ceco.net 222 Nissan Z350 - sideway 2
100
AcDbEllipse
 10
312.9648371838848
 20
607.2174018478202
 30
0.0
 11
0.0000000000000025
 21
40.49489775482583
 31
0.0
210
0.0
220
0.0
230
1.0
 40
0.6878091034191156
 41
4.144402051319168
 42
4.454260179641403
  0
ARC
  5
7E00
330
1F
100
AcDbEntity
  8
ceco.net 222 Nissan Z350 - sideway 2
100
AcDbCircle
 10
293.2120001845687
 20
631.9875219627641
 30
0.0
 40
2.0
100
AcDbArc
 50
90.00000001375708
 51
150.4496530734106
  0
ARC
  5
7E01
330
1F
100
AcDbEntity
  8
ceco.net 222 Nissan Z350 - sideway 2
100
AcDbCircle
 10
288.8352662656798
 20
620.9875219632801
 30
0.0
 40
2.0
100
AcDbArc
 50
165.4781742718151
 51
269.9999999952058
  0
ARC
  5
7E02
330
1F
100
AcDbEntity
  8
ceco.net 222 Nissan Z350 - sideway 2
100
AcDbCircle
 10
288.3049037099153
 20
595.7013380812563
 30
0.0
 40
2.0
100
AcDbArc
 50
135.718154771683
 51
191.9728496889352
  0
ARC
  5
7E03
330
1F
100
AcDbEntity
  8
ceco.net 222 Nissan Z350 - sideway 2
100
AcDbCircle
 10
291.3167256451888
 20
586.2375416296439
 30
0.0
 40
2.0
100
AcDbArc
 50
203.6972976433071
 51
270.0000000008337
  0
ARC
  5
7E04
330
1F
100
AcDbEntity
  8
ceco.net 222 Nissan Z350 - sideway 2
100
AcDbCircle
 10
337.9269988582673
 20
597.2375416296253
 30
0.0
 40
2.0
100
AcDbArc
 50
349.7075535749914
 51
90.0
  0
ARC
  5
7E05
330
1F
100
AcDbEntity
  8
ceco.net 222 Nissan Z350 - sideway 2
100
AcDbCircle
 10
334.6129487225807
 20
586.2375416296723
 30
0.0
 40
2.0
100
AcDbArc
 50
270.0000000016675
 51
336.3027023574088
  0
ARC
  5
7E06
330
1F
100
AcDbEntity
  8
ceco.net 222 Nissan Z350 - sideway 2
100
AcDbCircle
 10
334.5494326461703
 20
628.3412718994521
 30
0.0
 40
2.0
100
AcDbArc
 50
315.7181547690057
 51
23.90295127867272
  0
ARC
  5
7E07
330
1F
100
AcDbEntity
  8
ceco.net 222 Nissan Z350 - sideway 2
100
AcDbCircle
 10
332.7176741814109
 20
631.9875219634178
 30
0.0
 40
2.0
100
AcDbArc
 50
29.55034694583608
 51
90.0000000016675
  0
SPLINE
  5
7E08
330
1F
100
AcDbEntity
  8
ceco.net 222 Nissan Z350 - sideway 2
100
AcDbSpline
210
0.0
220
0.0
230
1.0
 70
    11
 71
     3
 72
    16
 73
    12
 74
     0
 42
0.0000000001
 43
0.0000000001
 40
0.0
 40
0.0
 40
0.0
 40
0.0
 40
0.8121054890186234
 40
0.8121054890186234
 40
2.495579440103442
 40
2.495579440103442
 40
4.118486803646904
 40
4.118486803646904
 40
5.741394167190366
 40
5.741394167190366
 40
6.283185307179586
 40
6.283185307179586
 40
6.283185307179586
 40
6.283185307179586
 10
312.9648371838848
 20
655.7122996026558
 30
0.0
 10
302.1639356959604
 20
655.7122996026558
 30
0.0
 10
292.4146146472303
 20
649.1221560069257
 30
0.0
 10
272.9042554192201
 20
619.4358147816894
 30
0.0
 10
274.5028165171425
 20
586.9982017840849
 30
0.0
 10
305.447987076448
 20
552.7028255867643
 30
0.0
 10
332.8760706645407
 20
560.096668184884
 30
0.0
 10
353.5576096011136
 20
602.4304772282613
 30
0.0
 10
348.5815197084739
 20
633.3571375643893
 30
0.0
 10
327.062365833015
 20
652.7097289902964
 30
0.0
 10
320.1705916199425
 20
655.7122996026558
 30
0.0
 10
312.9648371838848
 20
655.7122996026558
 30
0.0
  0
SPLINE
  5
7E09
330
1F
100
AcDbEntity
  8
ceco.net 222 Nissan Z350 - sideway 2
100
AcDbSpline
210
0.0
220
0.0
230
1.0
 70
    11
 71
     3
 72
    16
 73
    12
 74
     0
 42
0.0000000001
 43
0.0000000001
 40
0.0
 40
0.0
 40
0.0
 40
0.0
 40
0.9363589993149414
 40
0.9363589993149414
 40
2.809076997944824
 40
2.809076997944824
 40
4.279542985144155
 40
4.279542985144155
 40
5.750008972343486
 40
5.750008972343486
 40
6.283185307179586
 40
6.283185307179586
 40
6.283185307179586
 40
6.283185307179586
 10
312.9648371838848
 20
649.7122996026556
 30
0.0
 10
303.3591301025771
 20
649.7122996026556
 30
0.0
 10
294.0556893052671
 20
642.7435085705407
 30
0.0
 10
278.1798697397316
 20
610.9138182167806
 30
0.0
 10
285.277160110767
 20
575.2193526243596
 30
0.0
 10
316.6775137650729
 20
561.6428032075626
 30
0.0
 10
334.4982101961468
 20
571.0513370689876
 30
0.0
 10
345.5567574087144
 20
608.1547824920159
 30
0.0
 10
340.4292090901181
 20
632.5829799110716
 30
0.0
 10
323.8413934599448
 20
647.5043776697697
 30
0.0
 10
318.4344654982997
 20
649.7122996026556
 30
0.0
 10
312.9648371838848
 20
649.7122996026556
 30
0.0
  0
LINE
  5
7E0A
330
1F
100
AcDbEntity
  8
ceco.net 222 Nissan Z350 - sideway 2
100
AcDbLine
 10
3581.393708140938
 20
311.56071358948
 30
0.0
 11
3513.144432441793
 21
266.1871996492744
 31
0.0
  0
ARC
  5
7E0B
330
1F
100
AcDbEntity
  8
ceco.net 222 Nissan Z350 - sideway 2
100
AcDbCircle
 10
3575.85735464967
 20
319.8883056796342
 30
0.0
 40
10.0
100
AcDbArc
 50
303.6167723695731
 51
89.21823755864373
  0
LINE
  5
7E0C
330
1F
100
AcDbEntity
  8
ceco.net 222 Nissan Z350 - sideway 2
100
AcDbLine
 10
3513.144432441793
 20
266.1871996492815
 30
0.0
 11
3525.327345110625
 21
266.1871996492815
 31
0.0
  0
LINE
  5
7E0D
330
1F
100
AcDbEntity
  8
ceco.net 222 Nissan Z350 - sideway 2
100
AcDbLine
 10
3513.144432441793
 20
266.1871996492744
 30
0.0
 11
2446.53302772123
 21
266.1871996492815
 31
0.0
  0
LINE
  5
7E0E
330
1F
100
AcDbEntity
  8
ceco.net 222 Nissan Z350 - sideway 2
100
AcDbLine
 10
3581.393708140938
 20
321.5607135894851
 30
0.0
 11
3513.144432441793
 21
276.1871996492795
 31
0.0
  0
ARC
  5
7E0F
330
1F
100
AcDbEntity
  8
ceco.net 222 Nissan Z350 - sideway 2
100
AcDbCircle
 10
3575.85735464967
 20
329.8883056796393
 30
0.0
 40
10.0
100
AcDbArc
 50
303.6167723695731
 51
330.0000000000739
  0
LINE
  5
7E10
330
1F
100
AcDbEntity
  8
ceco.net 222 Nissan Z350 - sideway 2
100
AcDbLine
 10
3513.144432441793
 20
276.1871996492795
 30
0.0
 11
3513.144432441793
 21
266.1871996492744
 31
0.0
  0
LINE
  5
7E11
330
1F
100
AcDbEntity
  8
ceco.net 222 Nissan Z350 - sideway 2
100
AcDbLine
 10
3513.144432441793
 20
276.1871996492795
 30
0.0
 11
2491.108665668395
 21
276.1871996492795
 31
0.0
  0
ARC
  5
7E12
330
1F
100
AcDbEntity
  8
ceco.net 222 Nissan Z350 - sideway 2
100
AcDbCircle
 10
1870.751937121625
 20
-15750.40618734002
 30
0.0
 40
17086.91275889618
100
AcDbArc
 50
88.20970141251992
 51
89.69634872814593
  0
ARC
  5
7E13
330
1F
100
AcDbEntity
  8
ceco.net 222 Nissan Z350 - sideway 2
100
AcDbCircle
 10
2623.923773603975
 20
-4846.910674878265
 30
0.0
 40
6011.608269811091
100
AcDbArc
 50
86.50015006199071
 51
90.57731100592057
  0
LINE
  5
7E14
330
1F
100
AcDbEntity
  8
ceco.net 222 Nissan Z350 - sideway 2
100
AcDbLine
 10
1959.240126198794
 20
1321.545938099732
 30
0.0
 11
2479.233298570037
 21
1175.546023138438
 31
0.0
  0
ARC
  5
7E15
330
1F
100
AcDbEntity
  8
ceco.net 222 Nissan Z350 - sideway 2
100
AcDbCircle
 10
1961.267524346695
 20
1328.766717610961
 30
0.0
 40
7.5
100
AcDbArc
 50
89.69634872814593
 51
254.3167050991008
  0
ARC
  5
7E16
330
1F
100
AcDbEntity
  8
ceco.net 222 Nissan Z350 - sideway 2
100
AcDbCircle
 10
2560.329224486638
 20
1464.377203587724
 30
0.0
 40
300.0
100
AcDbArc
 50
254.3167050990943
 51
270.5773110059205
  0
ARC
  5
7E17
330
1F
100
AcDbEntity
  8
ceco.net 222 Nissan Z350 - sideway 2
100
AcDbCircle
 10
2323.819255908874
 20
1128.141214698964
 30
0.0
 40
220.4329001146493
100
AcDbArc
 50
9.623291912317622
 51
13.14717254442702
  0
ARC
  5
7E18
330
1F
100
AcDbEntity
  8
ceco.net 222 Nissan Z350 - sideway 2
100
AcDbCircle
 10
2446.137168522185
 20
1031.125205488962
 30
0.0
 40
299.1022097826611
100
AcDbArc
 50
33.66153351417714
 51
39.1079722260434
  0
ARC
  5
7E19
330
1F
100
AcDbEntity
  8
ceco.net 222 Nissan Z350 - sideway 2
100
AcDbCircle
 10
2244.141383757622
 20
-230.2821337236613
 30
0.0
 40
1522.791930609045
100
AcDbArc
 50
65.90501529098054
 51
73.22853136763932
  0
ARC
  5
7E1A
330
1F
100
AcDbEntity
  8
ceco.net 222 Nissan Z350 - sideway 2
100
AcDbCircle
 10
2028.162330706225
 20
-850.442097323742
 30
0.0
 40
2119.490673312384
100
AcDbArc
 50
77.11111714170559
 51
86.40473893498443
  0
ARC
  5
7E1B
330
1F
100
AcDbEntity
  8
ceco.net 222 Nissan Z350 - sideway 2
100
AcDbCircle
 10
2489.784944647013
 20
1166.906709706268
 30
0.0
 40
50.0
100
AcDbArc
 50
13.147172544429
 51
77.11111714170559
  0
ARC
  5
7E1C
330
1F
100
AcDbEntity
  8
ceco.net 222 Nissan Z350 - sideway 2
100
AcDbCircle
 10
2682.107907567413
 20
1222.947947386658
 30
0.0
 40
5.0
100
AcDbArc
 50
73.22853136741963
 51
219.1079722260734
  0
ARC
  5
7E1D
330
1F
100
AcDbEntity
  8
ceco.net 222 Nissan Z350 - sideway 2
100
AcDbCircle
 10
2451.806185417539
 20
187.5826739784054
 30
0.0
 40
1025.466881617319
100
AcDbArc
 50
72.01847714997642
 51
74.63861315152762
  0
ARC
  5
7E1E
330
1F
100
AcDbEntity
  8
ceco.net 222 Nissan Z350 - sideway 2
100
AcDbCircle
 10
2736.704167551081
 20
1224.627587775253
 30
0.0
 40
50.0
100
AcDbArc
 50
213.6615335141625
 51
254.6386131517306
  0
ARC
  5
7E1F
330
1F
100
AcDbEntity
  8
ceco.net 222 Nissan Z350 - sideway 2
100
AcDbCircle
 10
1788.941536868678
 20
-1848.024996719203
 30
0.0
 40
3238.032417070353
100
AcDbArc
 50
70.32895041867874
 51
78.42883929847133
  0
ARC
  5
7E20
330
1F
100
AcDbEntity
  8
ceco.net 222 Nissan Z350 - sideway 2
100
AcDbCircle
 10
2398.324769769729
 20
1128.263470924587
 30
0.0
 40
200.0
100
AcDbArc
 50
78.42883929847157
 51
88.20970141251992
  0
LINE
  5
7E21
330
1F
100
AcDbEntity
  8
ceco.net 222 Nissan Z350 - sideway 2
100
AcDbLine
 10
2878.926419408075
 20
1201.038284000639
 30
0.0
 11
2992.789174718454
 21
1163.221502041204
 31
0.0
  0
ARC
  5
7E22
330
1F
100
AcDbEntity
  8
ceco.net 222 Nissan Z350 - sideway 2
100
AcDbCircle
 10
2991.213192864976
 20
1158.476369672407
 30
0.0
 40
5.0
100
AcDbArc
 50
266.5001500621996
 51
71.62733108310033
  0
ARC
  5
7E23
330
1F
100
AcDbEntity
  8
ceco.net 222 Nissan Z350 - sideway 2
100
AcDbCircle
 10
2182.005814527899
 20
-94.10463317882909
 30
0.0
 40
1448.713394870124
100
AcDbArc
 50
83.85712802484761
 51
87.42239951187261
  0
ELLIPSE
  5
7E24
330
1F
100
AcDbEntity
  8
ceco.net 222 Nissan Z350 - sideway 2
100
AcDbEllipse
 10
-36.51886950301195
 20
333.7810217134498
 30
0.0
 11
0.0
 21
288.1850413525413
 31
0.0
210
0.0
220
0.0
230
1.0
 40
0.9183499534546475
 41
5.747158427007554
 42
10.50787448941363
  0
SPLINE
  5
7E25
330
1F
100
AcDbEntity
  8
ceco.net 222 Nissan Z350 - sideway 2
100
AcDbSpline
210
0.0
220
0.0
230
1.0
 70
     8
 71
     3
 72
     8
 73
     4
 74
     0
 42
0.0000000001
 43
0.0000000001
 40
7.871153966583467
 40
7.871153966583467
 40
7.871153966583467
 40
7.871153966583467
 40
8.232341124403927
 40
8.232341124403927
 40
8.232341124403927
 40
8.232341124403927
 10
-349.4682248193748
 20
329.2364456501042
 30
0.0
 10
-347.528370046788
 20
288.963046412662
 30
0.0
 10
-339.4660169894486
 20
249.0744586770726
 30
0.0
 10
-318.1686444464576
 20
193.1268938251529
 30
0.0
  0
SPLINE
  5
7E26
330
1F
100
AcDbEntity
  8
ceco.net 222 Nissan Z350 - sideway 2
100
AcDbSpline
210
0.0
220
0.0
230
1.0
 70
     8
 71
     3
 72
    18
 73
    14
 74
     0
 42
0.0000000001
 43
0.0000000001
 40
5.747158427007555
 40
5.747158427007555
 40
5.747158427007555
 40
5.747158427007555
 40
6.299997323085856
 40
6.299997323085856
 40
7.225745204937127
 40
7.225745204937127
 40
8.151493086788399
 40
8.151493086788399
 40
9.077240968639671
 40
9.077240968639671
 40
10.00298885049094
 40
10.00298885049094
 40
10.50787448941363
 40
10.50787448941363
 40
10.50787448941363
 40
10.50787448941363
 10
93.21536842888599
 20
573.1500916385181
 30
0.0
 10
52.89223287995628
 20
599.2334207398366
 30
0.0
 10
5.972400156610092
 20
612.7830698116705
 30
0.0
 10
-119.0818462454335
 20
610.4935155167164
 30
0.0
 10
-195.987870382778
 20
567.060265694729
 30
0.0
 10
-288.6581034214687
 20
428.1462740985455
 30
0.0
 10
-303.0830441091275
 20
334.2694304709406
 30
0.0
 10
-256.7596339731171
 20
169.7551368528076
 30
0.0
 10
-196.7118687507099
 20
101.208482467876
 30
0.0
 10
-49.26105826520142
 20
43.04704591076193
 30
0.0
 10
36.5322671173235
 20
53.83634251230608
 30
0.0
 10
138.2137465943342
 20
126.095064337357
 30
0.0
 10
168.1201455916016
 20
161.7115015510188
 30
0.0
 10
188.2904806819133
 20
203.1182354339132
 30
0.0
  0
ARC
  5
7E27
330
1F
100
AcDbEntity
  8
ceco.net 222 Nissan Z350 - sideway 2
100
AcDbCircle
 10
34.72863942711774
 20
477.4596846718931
 30
0.0
 40
112.148791588499
100
AcDbArc
 50
49.09219530028401
 51
58.5663984762963
  0
ARC
  5
7E28
330
1F
100
AcDbEntity
  8
ceco.net 222 Nissan Z350 - sideway 2
100
AcDbCircle
 10
131.1588312872663
 20
230.5622449436777
 30
0.0
 40
63.38137755307514
100
AcDbArc
 50
334.3420284421076
 51
342.2139089952194
  0
ELLIPSE
  5
7E29
330
1F
100
AcDbEntity
  8
ceco.net 222 Nissan Z350 - sideway 2
100
AcDbEllipse
 10
-36.51886950301195
 20
333.7810217134498
 30
0.0
 11
-0.0000000000000031
 21
-50.87839046003495
 31
0.0
210
0.0
220
0.0
230
1.0
 40
0.9292449913492866
 41
-3.141592653589793
 42
3.141592653589793
  0
LINE
  5
7E2A
330
1F
100
AcDbEntity
  8
ceco.net 222 Nissan Z350 - sideway 2
100
AcDbLine
 10
16.34638461028953
 20
377.4685073347195
 30
0.0
 11
138.8484711589371
 21
478.703396572194
 31
0.0
  0
LINE
  5
7E2B
330
1F
100
AcDbEntity
  8
ceco.net 222 Nissan Z350 - sideway 2
100
AcDbLine
 10
-103.5392602800711
 20
319.566366674132
 30
0.0
 11
-286.4260353781137
 21
280.7770909159766
 31
0.0
  0
LINE
  5
7E2C
330
1F
100
AcDbEntity
  8
ceco.net 222 Nissan Z350 - sideway 2
100
AcDbLine
 10
-68.00116382983469
 20
269.5500541816651
 30
0.0
 11
-156.6572838360261
 21
88.67161163596028
 31
0.0
  0
LINE
  5
7E2D
330
1F
100
AcDbEntity
  8
ceco.net 222 Nissan Z350 - sideway 2
100
AcDbLine
 10
28.55134571602684
 20
316.1735519502651
 30
0.0
 11
165.8320852651086
 21
279.0265029887573
 31
0.0
  0
LINE
  5
7E2E
330
1F
100
AcDbEntity
  8
ceco.net 222 Nissan Z350 - sideway 2
100
AcDbLine
 10
-88.29230726893001
 20
381.1089390632256
 30
0.0
 11
-231.7845523073592
 21
512.280238605137
 31
0.0
  0
LINE
  5
7E2F
330
1F
100
AcDbEntity
  8
ceco.net 222 Nissan Z350 - sideway 2
100
AcDbLine
 10
-35.11078723987157
 20
406.2964126068004
 30
0.0
 11
-31.11845022796478
 21
611.8993710305541
 31
0.0
  0
LINE
  5
7E30
330
1F
100
AcDbEntity
  8
ceco.net 222 Nissan Z350 - sideway 2
100
AcDbLine
 10
-8.994299672351189
 20
268.1070053962609
 30
0.0
 11
69.43469613817433
 21
80.97430242234883
 31
0.0
  0
ARC
  5
7E31
330
1F
100
AcDbEntity
  8
ceco.net 222 Nissan Z350 - sideway 2
100
AcDbCircle
 10
-18.53307440235585
 20
354.4156162005487
 30
0.0
 40
331.8916455881335
100
AcDbArc
 50
81.98360020274309
 51
184.3509612687467
  0
ARC
  5
7E32
330
1F
100
AcDbEntity
  8
ceco.net 222 Nissan Z350 - sideway 2
100
AcDbCircle
 10
-34.48077676783578
 20
367.1331539625209
 30
0.0
 40
214.9494090128476
100
AcDbArc
 50
54.95825126431997
 51
78.0289248668325
  0
LINE
  5
7E33
330
1F
100
AcDbEntity
  8
ceco.net 222 Nissan Z350 - sideway 2
100
AcDbLine
 10
-125.2920074889079
 20
374.2858931430044
 30
0.0
 11
-223.1750872849297
 21
463.7642532911749
 31
0.0
  0
LINE
  5
7E34
330
1F
100
AcDbEntity
  8
ceco.net 222 Nissan Z350 - sideway 2
100
AcDbLine
 10
-86.47239518948845
 20
420.0910645681981
 30
0.0
 11
-182.692568188726
 21
508.0493032248449
 31
0.0
  0
ARC
  5
7E35
330
1F
100
AcDbEntity
  8
ceco.net 222 Nissan Z350 - sideway 2
100
AcDbCircle
 10
50.18720744063102
 20
345.1134309926909
 30
0.0
 40
301.6554305397386
100
AcDbArc
 50
158.9722355905892
 51
182.720197516949
  0
ARC
  5
7E36
330
1F
100
AcDbEntity
  8
ceco.net 222 Nissan Z350 - sideway 2
100
AcDbCircle
 10
-222.2197221305032
 20
449.342330112274
 30
0.0
 40
10.00000000003594
100
AcDbArc
 50
47.56847058448381
 51
156.3518261390802
  0
ARC
  5
7E37
330
1F
100
AcDbEntity
  8
ceco.net 222 Nissan Z350 - sideway 2
100
AcDbCircle
 10
-175.9454816726538
 20
515.4301448803488
 30
0.0
 40
10.0
100
AcDbArc
 50
133.6492740892344
 51
227.5684705848313
  0
LINE
  5
7E38
330
1F
100
AcDbEntity
  8
ceco.net 222 Nissan Z350 - sideway 2
100
AcDbLine
 10
-86.47239518948845
 20
420.0910645681981
 30
0.0
 11
-87.07861742250679
 21
384.2906709354787
 31
0.0
  0
SPLINE
  5
7E39
330
1F
100
AcDbEntity
  8
ceco.net 222 Nissan Z350 - sideway 2
100
AcDbSpline
210
0.0
220
0.0
230
1.0
 70
    11
 71
     3
 72
    16
 73
    12
 74
     0
 42
0.0000000001
 43
0.0000000001
 40
-3.141592653589793
 40
-3.141592653589793
 40
-3.141592653589793
 40
-3.141592653589793
 40
-2.207366699152918
 40
-2.207366699152918
 40
-0.7273184772427526
 40
-0.7273184772427526
 40
0.7527297446674131
 40
0.7527297446674131
 40
2.232777966577578
 40
2.232777966577578
 40
3.141592653589793
 40
3.141592653589793
 40
3.141592653589793
 40
3.141592653589793
 10
-36.51886950301195
 20
374.6594121734867
 30
0.0
 10
-47.89059941002415
 20
374.6594121734867
 30
0.0
 10
-59.26429433823432
 20
368.5978325011954
 30
0.0
 10
-77.43266565874728
 20
342.1488962294683
 30
0.0
 10
-74.87465626139965
 20
316.2545672811499
 30
0.0
 10
-47.19643871540393
 20
289.7423113655018
 30
0.0
 10
-24.83820065920372
 20
290.0414507998556
 30
0.0
 10
2.244197443007578
 20
317.3413630230337
 30
0.0
 10
4.176139509938366
 20
343.305965953399
 30
0.0
 10
-14.38903399518676
 20
368.9432744689478
 30
0.0
 10
-25.45645456247075
 20
374.6594121734867
 30
0.0
 10
-36.51886950301195
 20
374.6594121734867
 30
0.0
  0
LINE
  5
7E3A
330
1F
100
AcDbEntity
  8
ceco.net 222 Nissan Z350 - sideway 2
100
AcDbLine
 10
-132.950275014351
 20
343.995791438588
 30
0.0
 11
-239.0647960301212
 21
321.4894871122036
 31
0.0
  0
LINE
  5
7E3B
330
1F
100
AcDbEntity
  8
ceco.net 222 Nissan Z350 - sideway 2
100
AcDbLine
 10
-121.4992303878971
 20
285.0898174361243
 30
0.0
 11
-233.0081931490167
 21
261.4393817841938
 31
0.0
  0
LINE
  5
7E3C
330
1F
100
AcDbEntity
  8
ceco.net 222 Nissan Z350 - sideway 2
100
AcDbLine
 10
-91.32888439175804
 20
379.4317466566719
 30
0.0
 11
-125.292007488937
 21
374.2858931430257
 31
0.0
  0
LINE
  5
7E3D
330
1F
100
AcDbEntity
  8
ceco.net 222 Nissan Z350 - sideway 2
100
AcDbLine
 10
-104.0823958753244
 20
316.1463771947561
 30
0.0
 11
-121.4992303879262
 21
285.0898174361314
 31
0.0
  0
ARC
  5
7E3E
330
1F
100
AcDbEntity
  8
ceco.net 222 Nissan Z350 - sideway 2
100
AcDbCircle
 10
-210.0760784048107
 20
477.2407520472735
 30
0.0
 40
41.21921223671519
100
AcDbArc
 50
48.36840199510804
 51
121.7800014620445
  0
ARC
  5
7E3F
330
1F
100
AcDbEntity
  8
ceco.net 222 Nissan Z350 - sideway 2
100
AcDbCircle
 10
-194.9421001559821
 20
493.7962677955605
 30
0.0
 40
41.21921223671519
100
AcDbArc
 50
153.3569397072629
 51
226.7685391742746
  0
LINE
  5
7E40
330
1F
100
AcDbEntity
  8
ceco.net 222 Nissan Z350 - sideway 2
100
AcDbLine
 10
-105.3729569457136
 20
322.5382539756945
 30
0.0
 11
-132.950275014351
 21
343.995791438588
 31
0.0
  0
SPLINE
  5
7E41
330
1F
100
AcDbEntity
  8
ceco.net 222 Nissan Z350 - sideway 2
100
AcDbSpline
210
0.0
220
0.0
230
1.0
 70
     8
 71
     3
 72
     8
 73
     4
 74
     0
 42
0.0000000001
 43
0.0000000001
 40
-1.997351511184215
 40
-1.997351511184215
 40
-1.997351511184215
 40
-1.997351511184215
 40
-1.673888706374216
 40
-1.673888706374216
 40
-1.673888706374216
 40
-1.673888706374216
 10
-125.292007461936
 20
374.2858931471114
 30
0.0
 10
-129.3411586972724
 20
364.634283612518
 30
0.0
 10
-131.9115166468945
 20
354.3957486323146
 30
0.0
 10
-132.9502750144638
 20
343.995791437977
 30
0.0
  0
ARC
  5
7E42
330
1F
100
AcDbEntity
  8
ceco.net 222 Nissan Z350 - sideway 2
100
AcDbCircle
 10
-238.8206279761798
 20
273.3012844209748
 30
0.0
 40
48.18882128304775
100
AcDbArc
 50
90.29031336466827
 51
171.0753335423417
  0
ARC
  5
7E43
330
1F
100
AcDbEntity
  8
ceco.net 222 Nissan Z350 - sideway 2
100
AcDbCircle
 10
-247.367915694027
 20
305.2212498214653
 30
0.0
 40
46.07660578212488
100
AcDbArc
 50
212.0400053737552
 51
288.1586277295704
  0
ARC
  5
7E44
330
1F
100
AcDbEntity
  8
ceco.net 222 Nissan Z350 - sideway 2
100
AcDbCircle
 10
-92.07790072689022
 20
384.3753257780884
 30
0.0
 40
5.0
100
AcDbArc
 50
278.6155257712031
 51
359.0298806081661
  0
LINE
  5
7E45
330
1F
100
AcDbEntity
  8
ceco.net 222 Nissan Z350 - sideway 2
100
AcDbLine
 10
-96.93056891297965
 20
255.969907959618
 30
0.0
 11
-150.9763953827532
 21
145.704255489357
 31
0.0
  0
LINE
  5
7E46
330
1F
100
AcDbEntity
  8
ceco.net 222 Nissan Z350 - sideway 2
100
AcDbLine
 10
-51.27202542310261
 20
235.5177336525154
 30
0.0
 11
-107.0656237280745
 21
121.6862331907871
 31
0.0
  0
ARC
  5
7E47
330
1F
100
AcDbEntity
  8
ceco.net 222 Nissan Z350 - sideway 2
100
AcDbCircle
 10
-13.33224322051683
 20
304.0622041584493
 30
0.0
 40
207.8047144054431
100
AcDbArc
 50
265.4506260737496
 51
281.1026333063679
  0
ARC
  5
7E48
330
1F
100
AcDbEntity
  8
ceco.net 222 Nissan Z350 - sideway 2
100
AcDbCircle
 10
-108.4434189051098
 20
318.5920832551128
 30
0.0
 40
5.0
100
AcDbArc
 50
330.715848446057
 51
52.11399856761842
  0
SPLINE
  5
7E49
330
1F
100
AcDbEntity
  8
ceco.net 222 Nissan Z350 - sideway 2
100
AcDbSpline
210
0.0
220
0.0
230
1.0
 70
     8
 71
     3
 72
    10
 73
     6
 74
     0
 42
0.0000000001
 43
0.0000000001
 40
-1.050229800182092
 40
-1.050229800182092
 40
-1.050229800182092
 40
-1.050229800182092
 40
-1.024097767320788
 40
-1.024097767320788
 40
-0.6626444008637012
 40
-0.6626444008637012
 40
-0.6626444008637012
 40
-0.6626444008637012
 10
-121.4992303096223
 20
285.0898174527367
 30
0.0
 10
-121.0901496085462
 20
284.3271239127825
 30
0.0
 10
-120.6704080062627
 20
283.5687313630908
 30
0.0
 10
-114.286346000099
 20
272.3875147972743
 30
0.0
 10
-106.2790082317369
 20
263.3438785950242
 30
0.0
 10
-96.93056891295055
 20
255.9699079595825
 30
0.0
  0
ARC
  5
7E4A
330
1F
100
AcDbEntity
  8
ceco.net 222 Nissan Z350 - sideway 2
100
AcDbCircle
 10
-33.24039739062573
 20
314.2508826519625
 30
0.0
 40
217.3656661710901
100
AcDbArc
 50
197.5689172152621
 51
232.3329283924785
  0
ARC
  5
7E4B
330
1F
100
AcDbEntity
  8
ceco.net 222 Nissan Z350 - sideway 2
100
AcDbCircle
 10
-169.9940327334115
 20
162.458327880949
 30
0.0
 40
74.98232035202433
100
AcDbArc
 50
280.2454410780647
 51
327.0602986637967
  0
ARC
  5
7E4C
330
1F
100
AcDbEntity
  8
ceco.net 222 Nissan Z350 - sideway 2
100
AcDbCircle
 10
-101.4487005845839
 20
111.9716655398983
 30
0.0
 40
59.92395328013011
100
AcDbArc
 50
145.7417940359134
 51
202.8815346189296
  0
ARC
  5
7E4D
330
1F
100
AcDbEntity
  8
ceco.net 222 Nissan Z350 - sideway 2
100
AcDbCircle
 10
-33.24039739062573
 20
314.2508826519625
 30
0.0
 40
217.3656661710901
100
AcDbArc
 50
251.7772279282572
 51
270.9029625217636
  0
LINE
  5
7E4E
330
1F
100
AcDbEntity
  8
ceco.net 222 Nissan Z350 - sideway 2
100
AcDbLine
 10
-71.72478814040005
 20
269.179519309227
 30
0.0
 11
-96.93056891297965
 21
255.9699079595754
 31
0.0
  0
LINE
  5
7E4F
330
1F
100
AcDbEntity
  8
ceco.net 222 Nissan Z350 - sideway 2
100
AcDbLine
 10
-64.81686540148075
 20
266.7407148101768
 30
0.0
 11
-51.27202542315718
 21
235.5177336524798
 31
0.0
  0
ARC
  5
7E50
330
1F
100
AcDbEntity
  8
ceco.net 222 Nissan Z350 - sideway 2
100
AcDbCircle
 10
-69.40384555828496
 20
264.7508371654519
 30
0.0
 40
5.0
100
AcDbArc
 50
23.45167987571835
 51
117.6577168609008
  0
SPLINE
  5
7E51
330
1F
100
AcDbEntity
  8
ceco.net 222 Nissan Z350 - sideway 2
100
AcDbSpline
210
0.0
220
0.0
230
1.0
 70
     8
 71
     3
 72
    10
 73
     6
 74
     0
 42
0.0000000001
 43
0.0000000001
 40
-0.151827805685887
 40
-0.151827805685887
 40
-0.151827805685887
 40
-0.151827805685887
 40
0.185099911241839
 40
0.185099911241839
 40
0.1973009737522936
 40
0.1973009737522936
 40
0.1973009737522936
 40
0.1973009737522936
 10
-51.2720254231317
 20
235.5177336527285
 30
0.0
 10
-40.35119331747774
 20
233.5754934483427
 30
0.0
 10
-29.14012512557746
 20
233.4351587943155
 30
0.0
 10
-17.82039602455915
 20
235.3968912666398
 30
0.0
 10
-17.4256787809245
 20
235.4683909819153
 30
0.0
 10
-17.03185221522653
 20
235.5428067360501
 30
0.0
  0
ARC
  5
7E52
330
1F
100
AcDbEntity
  8
ceco.net 222 Nissan Z350 - sideway 2
100
AcDbCircle
 10
-41.63505764712681
 20
373.4069784401521
 30
0.0
 40
214.1296676866004
100
AcDbArc
 50
38.55201795279373
 51
52.42624278974871
  0
LINE
  5
7E53
330
1F
100
AcDbEntity
  8
ceco.net 222 Nissan Z350 - sideway 2
100
AcDbLine
 10
-17.03185221522653
 20
235.5428067360501
 30
0.0
 11
33.98118265151788
 21
113.8249777257281
 31
0.0
  0
LINE
  5
7E54
330
1F
100
AcDbEntity
  8
ceco.net 222 Nissan Z350 - sideway 2
100
AcDbLine
 10
27.36419506895618
 20
258.9679887583935
 30
0.0
 11
80.77577471472251
 21
131.5271976845915
 31
0.0
  0
ARC
  5
7E55
330
1F
100
AcDbEntity
  8
ceco.net 222 Nissan Z350 - sideway 2
100
AcDbCircle
 10
79.75835425482
 20
127.6725569124304
 30
0.0
 40
47.82577641116172
100
AcDbArc
 50
196.8305485267573
 51
257.5340306570018
  0
ARC
  5
7E56
330
1F
100
AcDbEntity
  8
ceco.net 222 Nissan Z350 - sideway 2
100
AcDbCircle
 10
32.61738936565598
 20
115.7825087830497
 30
0.0
 40
50.66680676765558
100
AcDbArc
 50
316.6067291233491
 51
18.10440943341991
  0
ARC
  5
7E57
330
1F
100
AcDbEntity
  8
ceco.net 222 Nissan Z350 - sideway 2
100
AcDbCircle
 10
-13.33224322051683
 20
304.0622041584493
 30
0.0
 40
207.8047144054431
100
AcDbArc
 50
301.492557338091
 51
338.1458760588394
  0
ARC
  5
7E58
330
1F
100
AcDbEntity
  8
ceco.net 222 Nissan Z350 - sideway 2
100
AcDbCircle
 10
97.3646805478711
 20
227.2808225123919
 30
0.0
 40
114.6944945999068
100
AcDbArc
 50
160.3661772242126
 51
175.8691375819063
  0
ARC
  5
7E59
330
1F
100
AcDbEntity
  8
ceco.net 222 Nissan Z350 - sideway 2
100
AcDbCircle
 10
-7.475985521279653
 20
204.5058225817309
 30
0.0
 40
64.65265445607538
100
AcDbArc
 50
57.39240551802041
 51
88.53615963068584
  0
ARC
  5
7E5A
330
1F
100
AcDbEntity
  8
ceco.net 222 Nissan Z350 - sideway 2
100
AcDbCircle
 10
-5.952095542212191
 20
264.139009172653
 30
0.0
 40
5.0
100
AcDbArc
 50
88.53615963047738
 51
160.3661772242126
  0
SPLINE
  5
7E5B
330
1F
100
AcDbEntity
  8
ceco.net 222 Nissan Z350 - sideway 2
100
AcDbSpline
210
0.0
220
0.0
230
1.0
 70
     8
 71
     3
 72
     8
 73
     4
 74
     0
 42
0.0000000001
 43
0.0000000001
 40
0.7185722147772023
 40
0.7185722147772023
 40
0.7185722147772023
 40
0.7185722147772023
 40
1.106419942827392
 40
1.106419942827392
 40
1.106419942827392
 40
1.106419942827392
 10
27.36419506892707
 20
258.967988758422
 30
0.0
 10
36.56840501618353
 20
267.7059953580363
 30
0.0
 10
44.20630499664912
 20
278.2387970705509
 30
0.0
 10
49.7821406496987
 20
289.7094060402674
 30
0.0
  0
LINE
  5
7E5C
330
1F
100
AcDbEntity
  8
ceco.net 222 Nissan Z350 - sideway 2
100
AcDbLine
 10
59.88320037825179
 20
338.7743063485908
 30
0.0
 11
163.152585272528
 21
310.8304526842369
 31
0.0
  0
LINE
  5
7E5D
330
1F
100
AcDbEntity
  8
ceco.net 222 Nissan Z350 - sideway 2
100
AcDbLine
 10
49.78214064443818
 20
289.7094060290053
 30
0.0
 11
167.4714302729262
 21
257.8636436996726
 31
0.0
  0
ARC
  5
7E5E
330
1F
100
AcDbEntity
  8
ceco.net 222 Nissan Z350 - sideway 2
100
AcDbCircle
 10
75.5006006922813
 20
282.6736335962261
 30
0.0
 40
58.23391345111004
100
AcDbArc
 50
105.5562291982561
 51
142.1166131727185
  0
ARC
  5
7E5F
330
1F
100
AcDbEntity
  8
ceco.net 222 Nissan Z350 - sideway 2
100
AcDbCircle
 10
68.15574361262043
 20
327.000646536491
 30
0.0
 40
41.57193650309575
100
AcDbArc
 50
198.5560844542013
 51
243.7702741466205
  0
ARC
  5
7E60
330
1F
100
AcDbEntity
  8
ceco.net 222 Nissan Z350 - sideway 2
100
AcDbCircle
 10
33.48508683278487
 20
315.3622575568926
 30
0.0
 40
5.0
100
AcDbArc
 50
142.1166131727519
 51
198.5560844542333
  0
LINE
  5
7E61
330
1F
100
AcDbEntity
  8
ceco.net 222 Nissan Z350 - sideway 2
100
AcDbLine
 10
16.98434975422424
 20
416.9140051609625
 30
0.0
 11
125.8234778930636
 21
506.8579187077526
 31
0.0
  0
LINE
  5
7E62
330
1F
100
AcDbEntity
  8
ceco.net 222 Nissan Z350 - sideway 2
100
AcDbLine
 10
53.33449937693149
 20
369.1169454528174
 30
0.0
 11
146.6287140966232
 21
446.2146485184144
 31
0.0
  0
ARC
  5
7E63
330
1F
100
AcDbEntity
  8
ceco.net 222 Nissan Z350 - sideway 2
100
AcDbCircle
 10
97.54922136558526
 20
416.5818795596871
 30
0.0
 40
94.60019464274992
100
AcDbArc
 50
69.37660579524808
 51
72.6095588250232
  0
ARC
  5
7E64
330
1F
100
AcDbEntity
  8
ceco.net 222 Nissan Z350 - sideway 2
100
AcDbCircle
 10
72.05544745365114
 20
395.679613516692
 30
0.0
 40
59.02309031492026
100
AcDbArc
 50
158.9142879060668
 51
196.0762071375776
  0
ARC
  5
7E65
330
1F
100
AcDbEntity
  8
ceco.net 222 Nissan Z350 - sideway 2
100
AcDbCircle
 10
49.85505265320171
 20
443.4049836302174
 30
0.0
 40
74.36947737982817
100
AcDbArc
 50
244.6410695597622
 51
272.6816164491937
  0
SPLINE
  5
7E66
330
1F
100
AcDbEntity
  8
ceco.net 222 Nissan Z350 - sideway 2
100
AcDbSpline
210
0.0
220
0.0
230
1.0
 70
     8
 71
     3
 72
    10
 73
     6
 74
     0
 42
0.0000000001
 43
0.0000000001
 40
2.567151060841549
 40
2.567151060841549
 40
2.567151060841549
 40
2.567151060841549
 40
2.603495268367093
 40
2.603495268367093
 40
2.816967989500438
 40
2.816967989500438
 40
2.816967989500438
 40
2.816967989500438
 10
16.98434975416967
 20
416.9140051609199
 30
0.0
 10
16.01712580357343
 20
417.6029139320585
 30
0.0
 10
15.03641559465177
 20
418.2740287693968
 30
0.0
 10
8.204694274598296
 20
422.7602566265895
 30
0.0
 10
1.92354909570713
 20
425.9967481715571
 30
0.0
 10
-4.673861997885978
 20
428.5065633831317
 30
0.0
  0
ARC
  5
7E67
330
1F
100
AcDbEntity
  8
ceco.net 222 Nissan Z350 - sideway 2
100
AcDbCircle
 10
20.14497168072193
 20
380.7197742059936
 30
0.0
 40
5.0
100
AcDbArc
 50
196.0762071375897
 51
244.6410695597838
  0
SPLINE
  5
7E68
330
1F
100
AcDbEntity
  8
ceco.net 222 Nissan Z350 - sideway 2
100
AcDbSpline
210
0.0
220
0.0
230
1.0
 70
     8
 71
     3
 72
     8
 73
     4
 74
     0
 42
0.0000000001
 43
0.0000000001
 40
1.624962843547493
 40
1.624962843547493
 40
1.624962843547493
 40
1.624962843547493
 40
1.944640523709614
 40
1.944640523709614
 40
1.944640523709614
 40
1.944640523709614
 10
59.88320037813901
 20
338.7743063477453
 30
0.0
 10
59.26783157038153
 20
349.1100521153507
 30
0.0
 10
57.018092525268
 20
359.3715665253976
 30
0.0
 10
53.33449937696059
 20
369.1169454528316
 30
0.0
  0
SPLINE
  5
7E69
330
1F
100
AcDbEntity
  8
ceco.net 222 Nissan Z350 - sideway 2
100
AcDbSpline
210
0.0
220
0.0
230
1.0
 70
     8
 71
     3
 72
    18
 73
    14
 74
     0
 42
0.0000000001
 43
0.0000000001
 40
5.778713053510529
 40
5.778713053510529
 40
5.778713053510529
 40
5.778713053510529
 40
6.289940577524295
 40
6.289940577524295
 40
7.201293625474626
 40
7.201293625474626
 40
8.112646673424958
 40
8.112646673424958
 40
9.02399972137529
 40
9.02399972137529
 40
9.935352769325621
 40
9.935352769325621
 40
10.48610697310271
 40
10.48610697310271
 40
10.48610697310271
 40
10.48610697310271
 10
93.97610899067514
 20
590.3488736123998
 30
0.0
 10
53.72257167955831
 20
614.5128211365369
 30
0.0
 10
7.682882119595888
 20
627.297921581552
 30
0.0
 10
-120.3934858917673
 20
626.3557930952653
 30
0.0
 10
-201.1889108277791
 20
582.4386693681313
 30
0.0
 10
-300.5454033222304
 20
440.9126199991684
 30
0.0
 10
-318.1255443409863
 20
344.8886572204808
 30
0.0
 10
-276.3299745892727
 20
172.8823701081134
 30
0.0
 10
-217.3522315919872
 20
98.72104288318531
 30
0.0
 10
-66.37707779979973
 20
29.06370355805966
 30
0.0
 10
23.91942086153358
 20
34.47475275790969
 30
0.0
 10
138.6229321489772
 20
104.4339203328102
 30
0.0
 10
174.8575954008083
 20
143.9998180366055
 30
0.0
 10
198.9733312554599
 20
190.9483721433469
 30
0.0
  0
LINE
  5
7E6A
330
1F
100
AcDbEntity
  8
ceco.net 222 Nissan Z350 - sideway 2
100
AcDbLine
 10
-4.673861972278245
 20
428.5065634033538
 30
0.0
 11
-1.9687238279148
 21
567.8195532046155
 31
0.0
  0
LINE
  5
7E6B
330
1F
100
AcDbEntity
  8
ceco.net 222 Nissan Z350 - sideway 2
100
AcDbLine
 10
-59.62518985192946
 20
431.5470848519149
 30
0.0
 11
-56.95033798902295
 21
569.300349346876
 31
0.0
  0
ARC
  5
7E6C
330
1F
100
AcDbEntity
  8
ceco.net 222 Nissan Z350 - sideway 2
100
AcDbCircle
 10
-10.06303152338659
 20
569.9997527049456
 30
0.0
 40
46.89252256657475
100
AcDbArc
 50
116.6804675659534
 51
180.854599929931
  0
ARC
  5
7E6D
330
1F
100
AcDbEntity
  8
ceco.net 222 Nissan Z350 - sideway 2
100
AcDbCircle
 10
-49.89979659815436
 20
567.8011953036454
 30
0.0
 40
47.93107628583515
100
AcDbArc
 50
0.021944641212209
 51
66.93091843400131
  0
ARC
  5
7E6E
330
1F
100
AcDbEntity
  8
ceco.net 222 Nissan Z350 - sideway 2
100
AcDbCircle
 10
-34.48077676783578
 20
367.1331539625209
 30
0.0
 40
214.9494090128476
100
AcDbArc
 50
99.1150834990541
 51
133.6492740892389
  0
LINE
  5
7E6F
330
1F
100
AcDbEntity
  8
ceco.net 222 Nissan Z350 - sideway 2
100
AcDbLine
 10
-59.62518985192946
 20
431.5470848519149
 30
0.0
 11
-38.28340260584082
 21
407.9161423722874
 31
0.0
  0
LINE
  5
7E70
330
1F
100
AcDbEntity
  8
ceco.net 222 Nissan Z350 - sideway 2
100
AcDbLine
 10
-31.47401902581987
 20
407.3433329675433
 30
0.0
 11
-4.673861972278245
 21
428.5065634033538
 31
0.0
  0
SPLINE
  5
7E71
330
1F
100
AcDbEntity
  8
ceco.net 222 Nissan Z350 - sideway 2
100
AcDbSpline
210
0.0
220
0.0
230
1.0
 70
     8
 71
     3
 72
     8
 73
     4
 74
     0
 42
0.0000000001
 43
0.0000000001
 40
3.37296730856597
 40
3.37296730856597
 40
3.37296730856597
 40
3.37296730856597
 40
3.666925749902372
 40
3.666925749902372
 40
3.666925749902372
 40
3.666925749902372
 10
-59.62518985175847
 20
431.5470848511404
 30
0.0
 10
-69.12563704621061
 20
429.1220768011578
 30
0.0
 10
-78.18064157872504
 20
425.2360817154832
 30
0.0
 10
-86.47239518951755
 20
420.091064568191
 30
0.0
  0
ARC
  5
7E72
330
1F
100
AcDbEntity
  8
ceco.net 222 Nissan Z350 - sideway 2
100
AcDbCircle
 10
-34.57271054206285
 20
411.267375638979
 30
0.0
 40
5.0
100
AcDbArc
 50
222.0861044789525
 51
308.2970265081038
  0
SPLINE
  5
7E73
330
1F
100
AcDbEntity
  8
ceco.net 222 Nissan Z350 - sideway 2
100
AcDbSpline
210
0.0
220
0.0
230
1.0
 70
    11
 71
     3
 72
    16
 73
    12
 74
     0
 42
0.0000000001
 43
0.0000000001
 40
-3.141592653589793
 40
-3.141592653589793
 40
-3.141592653589793
 40
-3.141592653589793
 40
-2.329452074741664
 40
-2.329452074741664
 40
-0.8976742782556533
 40
-0.8976742782556533
 40
0.5341035182303578
 40
0.5341035182303578
 40
1.965881314716368
 40
1.965881314716368
 40
3.141592653589793
 40
3.141592653589793
 40
3.141592653589793
 40
3.141592653589793
 10
-36.51886950301195
 20
389.6594121734873
 30
0.0
 10
-50.77442772751601
 20
389.6594121734873
 30
0.0
 10
-64.8900305707939
 20
383.0928163760996
 30
0.0
 10
-91.67360754248875
 20
352.6855346830411
 30
0.0
 10
-92.96355884494188
 20
319.952510068803
 30
0.0
 10
-62.04114252274303
 20
278.2180266892391
 30
0.0
 10
-31.26874931585553
 20
272.084685843617
 30
0.0
 10
11.73652810870044
 20
299.4565333750154
 30
0.0
 10
21.28204455887316
 20
330.648170624678
 30
0.0
 10
3.976740508918737
 20
375.3063355830557
 30
0.0
 10
-15.88152926534166
 20
389.6594121734873
 30
0.0
 10
-36.51886950301195
 20
389.6594121734873
 30
0.0
  0
ARC
  5
7E74
330
1F
100
AcDbEntity
  8
ceco.net 222 Nissan Z350 - sideway 2
100
AcDbCircle
 10
19.96056877392766
 20
327.088608252823
 30
0.0
 40
176.8570644740051
100
AcDbArc
 50
195.7791805331809
 51
219.2749047944883
  0
ARC
  5
7E75
330
1F
100
AcDbEntity
  8
ceco.net 222 Nissan Z350 - sideway 2
100
AcDbCircle
 10
24.16726560436291
 20
317.2758100348441
 30
0.0
 40
166.2447242833528
100
AcDbArc
 50
299.6865618512801
 51
332.771534764165
  0
ARC
  5
7E76
330
1F
100
AcDbEntity
  8
ceco.net 222 Nissan Z350 - sideway 2
100
AcDbCircle
 10
19.96056877392766
 20
327.088608252823
 30
0.0
 40
176.8570644740051
100
AcDbArc
 50
236.2002924125133
 51
269.5984319326594
  0
ARC
  5
7E77
330
1F
100
AcDbEntity
  8
ceco.net 222 Nissan Z350 - sideway 2
100
AcDbCircle
 10
19.96056877392766
 20
327.088608252823
 30
0.0
 40
176.8570644740051
100
AcDbArc
 50
286.4078823575887
 51
299.2961109237435
  0
LINE
  5
7E78
330
1F
100
AcDbEntity
  8
ceco.net 222 Nissan Z350 - sideway 2
100
AcDbLine
 10
-61.773625600792
 20
170.2512953318242
 30
0.0
 11
-71.57901007504188
 21
147.0202965706102
 31
0.0
  0
ARC
  5
7E79
330
1F
100
AcDbEntity
  8
ceco.net 222 Nissan Z350 - sideway 2
100
AcDbCircle
 10
54.68794165598592
 20
344.3705536966854
 30
0.0
 40
242.8061946280683
100
AcDbArc
 50
239.8148537531064
 51
264.5432176507044
  0
ARC
  5
7E7A
330
1F
100
AcDbEntity
  8
ceco.net 222 Nissan Z350 - sideway 2
100
AcDbCircle
 10
136.529557048776
 20
190.470975476857
 30
0.0
 40
50.66845446189899
100
AcDbArc
 50
209.2510256425762
 51
248.84328355488
  0
ARC
  5
7E7B
330
1F
100
AcDbEntity
  8
ceco.net 222 Nissan Z350 - sideway 2
100
AcDbCircle
 10
131.0455304521128
 20
17.04225061032451
 30
0.0
 40
167.8968422694937
100
AcDbArc
 50
81.57106471975501
 51
92.19153133776211
  0
ARC
  5
7E7C
330
1F
100
AcDbEntity
  8
ceco.net 222 Nissan Z350 - sideway 2
100
AcDbCircle
 10
-62.36605132384648
 20
143.1316732862493
 30
0.0
 40
10.0
100
AcDbArc
 50
157.1162713394959
 51
239.8148537533042
  0
CIRCLE
  5
7E7D
330
1F
100
AcDbEntity
  8
ceco.net 222 Nissan Z350 - sideway 2
100
AcDbCircle
 10
-67.85469094457221
 20
401.4714700095831
 30
0.0
 40
5.0
  0
CIRCLE
  5
7E7E
330
1F
100
AcDbEntity
  8
ceco.net 222 Nissan Z350 - sideway 2
100
AcDbCircle
 10
-108.9789581449585
 20
351.4859941773247
 30
0.0
 40
5.0
  0
CIRCLE
  5
7E7F
330
1F
100
AcDbEntity
  8
ceco.net 222 Nissan Z350 - sideway 2
100
AcDbCircle
 10
-95.53930068146655
 20
288.1683129641397
 30
0.0
 40
5.0
  0
CIRCLE
  5
7E80
330
1F
100
AcDbEntity
  8
ceco.net 222 Nissan Z350 - sideway 2
100
AcDbCircle
 10
-37.65605474320909
 20
259.1979317688535
 30
0.0
 40
5.0
  0
CIRCLE
  5
7E81
330
1F
100
AcDbEntity
  8
ceco.net 222 Nissan Z350 - sideway 2
100
AcDbCircle
 10
21.08351487531399
 20
286.3901385196934
 30
0.0
 40
5.0
  0
CIRCLE
  5
7E82
330
1F
100
AcDbEntity
  8
ceco.net 222 Nissan Z350 - sideway 2
100
AcDbCircle
 10
36.44731418249648
 20
349.2686469132531
 30
0.0
 40
5.0
  0
CIRCLE
  5
7E83
330
1F
100
AcDbEntity
  8
ceco.net 222 Nissan Z350 - sideway 2
100
AcDbCircle
 10
-3.133911064382118
 20
400.484657641372
 30
0.0
 40
5.0
  0
ARC
  5
7E84
330
1F
100
AcDbEntity
  8
ceco.net 222 Nissan Z350 - sideway 2
100
AcDbCircle
 10
17.36949237958833
 20
351.4461240213444
 30
0.0
 40
182.5905372124269
100
AcDbArc
 50
55.69490421363777
 51
96.29340890090254
  0
ARC
  5
7E85
330
1F
100
AcDbEntity
  8
ceco.net 222 Nissan Z350 - sideway 2
100
AcDbCircle
 10
17.36949237958833
 20
351.4461240213444
 30
0.0
 40
182.5905372124269
100
AcDbArc
 50
180.2213334433889
 51
184.4534081100319
  0
ARC
  5
7E86
330
1F
100
AcDbEntity
  8
ceco.net 222 Nissan Z350 - sideway 2
100
AcDbCircle
 10
17.36949237958833
 20
351.4461240213444
 30
0.0
 40
182.5905372124269
100
AcDbArc
 50
114.3625591294638
 51
143.6667230307026
  0
ARC
  5
7E87
330
1F
100
AcDbEntity
  8
ceco.net 222 Nissan Z350 - sideway 2
100
AcDbCircle
 10
1047.707576976521
 20
278.71477549622
 30
0.0
 40
166.6498391777007
100
AcDbArc
 50
244.2127940302085
 51
279.2336129595126
  0
ARC
  5
7E88
330
1F
100
AcDbEntity
  8
ceco.net 222 Nissan Z350 - sideway 2
100
AcDbCircle
 10
1040.837918191999
 20
296.5377651253798
 30
0.0
 40
146.3573272620434
100
AcDbArc
 50
248.0811081027593
 51
281.8117093272766
  0
LINE
  5
7E89
330
1F
100
AcDbEntity
  8
ceco.net 222 Nissan Z350 - sideway 2
100
AcDbLine
 10
972.6854189495535
 20
153.5440737885247
 30
0.0
 11
969.7748947516666
 21
139.7258322405656
 31
0.0
  0
LINE
  5
7E8A
330
1F
100
AcDbEntity
  8
ceco.net 222 Nissan Z350 - sideway 2
100
AcDbLine
 10
1082.84365252162
 20
143.4912141721733
 30
0.0
 11
1082.84365252162
 21
124.0947579785834
 31
0.0
  0
LINE
  5
7E8B
330
1F
100
AcDbEntity
  8
ceco.net 222 Nissan Z350 - sideway 2
100
AcDbLine
 10
1145.569707402002
 20
192.2661180799503
 30
0.0
 11
1171.14512634278
 21
192.2661180799432
 31
0.0
  0
LINE
  5
7E8C
330
1F
100
AcDbEntity
  8
ceco.net 222 Nissan Z350 - sideway 2
100
AcDbLine
 10
1135.730471624145
 20
179.3969601678791
 30
0.0
 11
1138.232444703491
 21
157.3903422829028
 31
0.0
  0
ARC
  5
7E8D
330
1F
100
AcDbEntity
  8
ceco.net 222 Nissan Z350 - sideway 2
100
AcDbCircle
 10
1047.707576976521
 20
278.71477549622
 30
0.0
 40
166.6498391777007
100
AcDbArc
 50
309.8894532536531
 51
321.9974998818896
  0
ARC
  5
7E8E
330
1F
100
AcDbEntity
  8
ceco.net 222 Nissan Z350 - sideway 2
100
AcDbCircle
 10
1040.837918191999
 20
296.5377651253798
 30
0.0
 40
146.3573272620434
100
AcDbArc
 50
312.1012000468127
 51
313.7847125789984
  0
ARC
  5
7E8F
330
1F
100
AcDbEntity
  8
ceco.net 222 Nissan Z350 - sideway 2
100
AcDbCircle
 10
982.4707139370767
 20
151.4830056167193
 30
0.0
 40
10.0
100
AcDbArc
 50
68.08110810297094
 51
168.10570125523
  0
ARC
  5
7E90
330
1F
100
AcDbEntity
  8
ceco.net 222 Nissan Z350 - sideway 2
100
AcDbCircle
 10
979.5601897391316
 20
137.6647640687816
 30
0.0
 40
10.0
100
AcDbArc
 50
168.1057012552801
 51
244.2127940301828
  0
ARC
  5
7E91
330
1F
100
AcDbEntity
  8
ceco.net 222 Nissan Z350 - sideway 2
100
AcDbCircle
 10
1072.843652521627
 20
124.0947579785834
 30
0.0
 40
10.0
100
AcDbArc
 50
279.2336129597208
 51
0.0
  0
ARC
  5
7E92
330
1F
100
AcDbEntity
  8
ceco.net 222 Nissan Z350 - sideway 2
100
AcDbCircle
 10
1072.843652521627
 20
143.4912141721733
 30
0.0
 40
10.0
100
AcDbArc
 50
0.0
 51
101.811709327486
  0
ARC
  5
7E93
330
1F
100
AcDbEntity
  8
ceco.net 222 Nissan Z350 - sideway 2
100
AcDbCircle
 10
1145.666462307828
 20
180.5266013211701
 30
0.0
 40
10.0
100
AcDbArc
 50
132.1012000468198
 51
186.4862122263788
  0
ARC
  5
7E94
330
1F
100
AcDbEntity
  8
ceco.net 222 Nissan Z350 - sideway 2
100
AcDbCircle
 10
1171.145126342835
 20
182.2661180799523
 30
0.0
 40
10.0
100
AcDbArc
 50
321.9974998819107
 51
90.00000000041687
  0
ARC
  5
7E95
330
1F
100
AcDbEntity
  8
ceco.net 222 Nissan Z350 - sideway 2
100
AcDbCircle
 10
1148.168435387233
 20
158.5199834362081
 30
0.0
 40
10.0
100
AcDbArc
 50
186.4862122264225
 51
309.8894532536583
  0
ARC
  5
7E96
330
1F
100
AcDbEntity
  8
ceco.net 222 Nissan Z350 - sideway 2
100
AcDbCircle
 10
1145.569707402002
 20
187.2661180799477
 30
0.0
 40
5.0
100
AcDbArc
 50
90.0
 51
133.784712578836
  0
LWPOLYLINE
  5
7E97
330
1F
100
AcDbEntity
  8
ceco.net 222 Nissan Z350 - sideway 2
100
AcDbPolyline
 90
       16
 70
     0
 43
0.0
 10
-167.7899733644917
 20
413.1347759540711
 10
-172.4934818244182
 20
401.717587208652
 42
-0.1349990840370758
 10
-174.1174879892787
 20
399.6214280952097
 10
-182.2597745908024
 20
393.5177195799904
 42
0.2221032741133385
 10
-184.2536170945131
 20
389.7834304095875
 10
-185.8805592764984
 20
359.2933715476443
 42
0.1824443349583878
 10
-184.8113337272661
 20
355.9277902193125
 10
-180.8413099486024
 20
350.9015698266973
 42
0.2699991334769364
 10
-176.1577111209771
 20
349.0588177394978
 10
-157.0305553016587
 20
352.0000365312166
 42
0.200980150787099
 10
-153.7352815701487
 20
354.0169982003869
 10
-142.1501216868964
 20
370.0788527777101
 42
0.247521674520778
 10
-141.5011487449228
 20
374.6981325024885
 10
-144.2788294488782
 20
382.4101548168182
 42
-0.1432913752069012
 10
-144.4502056785531
 20
385.2130895897909
 10
-143.2103838963448
 20
390.6657101736508
  0
LINE
  5
7E98
330
1F
100
AcDbEntity
  8
ceco.net 222 Nissan Z350 - sideway 2
100
AcDbLine
 10
-150.061439866462
 20
354.2122355968909
 30
0.0
 11
-156.7948776689554
 21
352.0420756105418
 31
0.0
  0
LWPOLYLINE
  5
7E99
330
1F
100
AcDbEntity
  8
ceco.net 222 Nissan Z350 - sideway 2
100
AcDbPolyline
 90
        7
 70
     0
 43
0.0
 10
-150.0614398664911
 20
354.2122355968837
 42
0.0994952926586727
 10
-148.6164876309157
 20
355.5518587372015
 10
-137.0313277476634
 20
371.6137133145247
 42
0.247521674520778
 10
-136.3823548056898
 20
376.2329930393031
 10
-139.1600355096452
 20
383.9450153536328
 42
-0.1432913752069012
 10
-139.3314117393201
 20
386.7479501266056
 10
-139.2614093921765
 20
387.0558139215498
  0
ELLIPSE
  5
7E9A
330
1F
100
AcDbEntity
  8
ceco.net 222 Nissan Z350 - sideway 2
100
AcDbEllipse
 10
1969.795637305553
 20
389.1283850873828
 30
0.0
 11
0.0000000000000034
 21
55.22320380398325
 31
0.0
210
0.0
220
0.0
230
1.0
 40
0.7302988592962795
 41
0.0
 42
6.283185307179586
  0
SPLINE
  5
7E9B
330
1F
100
AcDbEntity
  8
ceco.net 222 Nissan Z350 - sideway 2
100
AcDbSpline
210
0.0
220
0.0
230
1.0
 70
    11
 71
     3
 72
    22
 73
    18
 74
     0
 42
0.0000000001
 43
0.0000000001
 40
-3.141592653589793
 40
-3.141592653589793
 40
-3.141592653589793
 40
-3.141592653589793
 40
-2.574974215830259
 40
-2.574974215830259
 40
-1.640194572855294
 40
-1.640194572855294
 40
-0.7054149298803299
 40
-0.7054149298803299
 40
0.2293647130946352
 40
0.2293647130946352
 40
1.1641443560696
 40
1.1641443560696
 40
2.098923999044565
 40
2.098923999044565
 40
3.03370364201953
 40
3.03370364201953
 40
3.141592653589793
 40
3.141592653589793
 40
3.141592653589793
 40
3.141592653589793
 10
1992.316812163564
 20
703.7634485354625
 30
0.0
 10
1947.13005086801
 20
704.9787332779341
 30
0.0
 10
1901.529224650646
 20
689.0337308649856
 30
0.0
 10
1797.903256827525
 20
607.4328119470004
 30
0.0
 10
1752.852966198661
 20
515.2692064729231
 30
0.0
 10
1737.166076437872
 20
319.5830177113459
 30
0.0
 10
1766.732890319886
 20
218.5466592363179
 30
0.0
 10
1877.332243274468
 20
88.51151045541262
 30
0.0
 10
1956.777492666973
 20
61.00028914694012
 30
0.0
 10
2103.264182229751
 20
101.4527940647847
 30
0.0
 10
2168.74987452941
 20
169.1903934766197
 30
0.0
 10
2232.978398907747
 20
347.9003544763239
 30
0.0
 10
2230.842010283668
 20
456.5850458282207
 30
0.0
 10
2159.785607855283
 20
628.109391408878
 30
0.0
 10
2091.874614049131
 20
688.7587763180684
 30
0.0
 10
2009.508359954696
 20
702.6931577955233
 30
0.0
 10
2000.920759171564
 20
703.5320478945631
 30
0.0
 10
1992.316812163564
 20
703.7634485354625
 30
0.0
  0
SPLINE
  5
7E9C
330
1F
100
AcDbEntity
  8
ceco.net 222 Nissan Z350 - sideway 2
100
AcDbSpline
210
0.0
220
0.0
230
1.0
 70
    11
 71
     3
 72
    22
 73
    18
 74
     0
 42
0.0000000001
 43
0.0000000001
 40
-3.141592653589793
 40
-3.141592653589793
 40
-3.141592653589793
 40
-3.141592653589793
 40
-2.586557871063863
 40
-2.586557871063863
 40
-1.644727599708923
 40
-1.644727599708923
 40
-0.7028973283539842
 40
-0.7028973283539842
 40
0.2389329430009555
 40
0.2389329430009555
 40
1.180763214355895
 40
1.180763214355895
 40
2.122593485710834
 40
2.122593485710834
 40
3.064423757065774
 40
3.064423757065774
 40
3.141592653589793
 40
3.141592653589793
 40
3.141592653589793
 40
3.141592653589793
 10
1992.451237094897
 20
708.7616412025933
 30
0.0
 10
1946.978987295679
 20
709.9846040749549
 30
0.0
 10
1901.148970182661
 20
694.2769165835054
 30
0.0
 10
1794.98717955569
 20
612.8274239096791
 30
0.0
 10
1748.487674584754
 20
519.0044891384326
 30
0.0
 10
1731.799320236023
 20
319.5276565397629
 30
0.0
 10
1761.806982093632
 20
216.2794149832985
 30
0.0
 10
1875.551865909201
 20
83.23144889120561
 30
0.0
 10
1958.10254661275
 20
55.210728745835
 30
0.0
 10
2109.211040080212
 20
98.90617970535323
 30
0.0
 10
2175.64222128216
 20
169.7919860688381
 30
0.0
 10
2238.907089959368
 20
353.6118185686385
 30
0.0
 10
2235.038546404623
 20
464.3458053105868
 30
0.0
 10
2159.232231746686
 20
637.3047162246701
 30
0.0
 10
2088.088691249893
 20
697.4484353838201
 30
0.0
 10
2005.087055973221
 20
708.1024029020649
 30
0.0
 10
1998.773441486337
 20
708.5916073626927
 30
0.0
 10
1992.451237094897
 20
708.7616412025933
 30
0.0
  0
SPLINE
  5
7E9D
330
1F
100
AcDbEntity
  8
ceco.net 222 Nissan Z350 - sideway 2
100
AcDbSpline
210
0.0
220
0.0
230
1.0
 70
    11
 71
     3
 72
    20
 73
    16
 74
     0
 42
0.0000000001
 43
0.0000000001
 40
-3.141592653589793
 40
-3.141592653589793
 40
-3.141592653589793
 40
-3.141592653589793
 40
-2.558454252405955
 40
-2.558454252405955
 40
-1.643122408481256
 40
-1.643122408481256
 40
-0.717285535599414
 40
-0.717285535599414
 40
0.2150317992451736
 40
0.2150317992451736
 40
1.141104427567207
 40
1.141104427567207
 40
2.058786870711823
 40
2.058786870711823
 40
3.141592653589793
 40
3.141592653589793
 40
3.141592653589793
 40
3.141592653589793
 10
1992.04796230073
 20
693.7670632011938
 30
0.0
 10
1948.148201018699
 20
694.947734454332
 30
0.0
 10
1903.451251066272
 20
678.9602315752398
 30
0.0
 10
1805.554422848177
 20
598.8078553898584
 30
0.0
 10
1762.753430507658
 20
510.8086444364952
 30
0.0
 10
1747.258956485111
 20
323.1654732828924
 30
0.0
 10
1775.611913410346
 20
225.1715413421644
 30
0.0
 10
1880.027034469108
 20
99.19896010652799
 30
0.0
 10
1954.977772565103
 20
72.33537067379194
 30
0.0
 10
2092.901677607827
 20
107.5830099873025
 30
0.0
 10
2156.620312877537
 20
170.6124403142945
 30
0.0
 10
2221.262126887737
 20
339.7154114077816
 30
0.0
 10
2221.451334982775
 20
444.1724890696727
 30
0.0
 10
2153.61943266329
 20
626.2244663186473
 30
0.0
 10
2073.563628713102
 20
691.574723170107
 30
0.0
 10
1992.04796230073
 20
693.7670632011938
 30
0.0
  0
SPLINE
  5
7E9E
330
1F
100
AcDbEntity
  8
ceco.net 222 Nissan Z350 - sideway 2
100
AcDbSpline
210
0.0
220
0.0
230
1.0
 70
    11
 71
     3
 72
    18
 73
    14
 74
     0
 42
0.0000000001
 43
0.0000000001
 40
0.0
 40
0.0
 40
0.0
 40
0.0
 40
1.242866227793359
 40
1.242866227793359
 40
2.485732455586719
 40
2.485732455586719
 40
3.728598683380079
 40
3.728598683380079
 40
4.971464911173439
 40
4.971464911173439
 40
6.2143311389668
 40
6.2143311389668
 40
6.283185307179586
 40
6.283185307179586
 40
6.283185307179586
 40
6.283185307179586
 10
1969.795637305495
 20
434.351588891368
 30
0.0
 10
1958.760468985659
 20
434.351588891368
 30
0.0
 10
1945.934983087867
 20
423.0771720380284
 30
0.0
 10
1936.705506276681
 20
385.9300995424641
 30
0.0
 10
1942.159319610498
 20
363.0942845736493
 30
0.0
 10
1962.749601653926
 20
341.3989571997584
 30
0.0
 10
1974.794054854683
 20
340.8822116470143
 30
0.0
 10
1996.003732794535
 20
360.2020752070709
 30
0.0
 10
2002.648670449405
 20
382.3250499269557
 30
0.0
 10
1995.274089967224
 20
420.4261799899322
 30
0.0
 10
1982.674160290869
 20
433.2221264922191
 30
0.0
 10
1971.018329782753
 20
434.3228035462169
 30
0.0
 10
1970.406980118426
 20
434.351588891368
 30
0.0
 10
1969.795637305495
 20
434.351588891368
 30
0.0
  0
SPLINE
  5
7E9F
330
1F
100
AcDbEntity
  8
ceco.net 222 Nissan Z350 - sideway 2
100
AcDbSpline
210
0.0
220
0.0
230
1.0
 70
    11
 71
     3
 72
    16
 73
    12
 74
     0
 42
0.0000000001
 43
0.0000000001
 40
0.0
 40
0.0
 40
0.0
 40
0.0
 40
0.7805002016745627
 40
0.7805002016745627
 40
2.525925240050996
 40
2.525925240050996
 40
3.783585008056471
 40
3.783585008056471
 40
5.041244776061946
 40
5.041244776061946
 40
6.283185307179586
 40
6.283185307179586
 40
6.283185307179586
 40
6.283185307179586
 10
1969.795637305553
 20
449.3515888913686
 30
0.0
 10
1957.522023207118
 20
449.3515888913686
 30
0.0
 10
1945.587541869841
 20
442.4450875261181
 30
0.0
 10
1919.072140606047
 20
406.4914200085363
 30
0.0
 10
1921.655904305127
 20
361.1535563275021
 30
0.0
 10
1958.424990791016
 20
325.5379668461424
 30
0.0
 10
1982.453939248287
 20
325.9807537541244
 30
0.0
 10
2012.588823076228
 20
356.8314143964608
 30
0.0
 10
2018.664903266726
 20
384.7009435629127
 30
0.0
 10
2007.03927939857
 20
431.3504338842415
 30
0.0
 10
1989.325547457341
 20
449.3515888913686
 30
0.0
 10
1969.795637305553
 20
449.3515888913686
 30
0.0
  0
LINE
  5
7EA0
330
1F
100
AcDbEntity
  8
ceco.net 222 Nissan Z350 - sideway 2
100
AcDbLine
 10
2034.821112120782
 20
377.0263764428003
 30
0.0
 11
2210.55122384645
 21
344.3209277358443
 31
0.0
  0
LINE
  5
7EA1
330
1F
100
AcDbEntity
  8
ceco.net 222 Nissan Z350 - sideway 2
100
AcDbLine
 10
2021.559196014794
 20
443.7805479770782
 30
0.0
 11
2157.608759698705
 21
587.4221966760666
 31
0.0
  0
LINE
  5
7EA2
330
1F
100
AcDbEntity
  8
ceco.net 222 Nissan Z350 - sideway 2
100
AcDbLine
 10
1972.036940049875
 20
468.6099665912886
 30
0.0
 11
1978.380962282372
 21
693.5831084015627
 31
0.0
  0
LINE
  5
7EA3
330
1F
100
AcDbEntity
  8
ceco.net 222 Nissan Z350 - sideway 2
100
AcDbLine
 10
1922.886086152473
 20
438.01302110574
 30
0.0
 11
1799.56790390436
 21
566.5234055681845
 31
0.0
  0
LINE
  5
7EA4
330
1F
100
AcDbEntity
  8
ceco.net 222 Nissan Z350 - sideway 2
100
AcDbLine
 10
1912.260382713229
 20
366.0060412919543
 30
0.0
 11
1762.11961641856
 21
305.6672726435403
 31
0.0
  0
LINE
  5
7EA5
330
1F
100
AcDbEntity
  8
ceco.net 222 Nissan Z350 - sideway 2
100
AcDbLine
 10
2003.927975868762
 20
322.1505086126664
 30
0.0
 11
2101.553779089059
 21
130.5794278111145
 31
0.0
  0
LINE
  5
7EA6
330
1F
100
AcDbEntity
  8
ceco.net 222 Nissan Z350 - sideway 2
100
AcDbLine
 10
1947.176922015573
 20
318.4338113110821
 30
0.0
 11
1881.902511337743
 21
114.4192781151014
 31
0.0
  0
ARC
  5
7EA7
330
1F
100
AcDbEntity
  8
ceco.net 222 Nissan Z350 - sideway 2
100
AcDbCircle
 10
2110.905353426987
 20
385.4999478089604
 30
0.0
 40
317.2983876755496
100
AcDbArc
 50
135.3850943450345
 51
143.0512871885254
  0
ARC
  5
7EA8
330
1F
100
AcDbEntity
  8
ceco.net 222 Nissan Z350 - sideway 2
100
AcDbCircle
 10
2001.470599766053
 20
298.9104051926583
 30
0.0
 40
177.8397688379467
100
AcDbArc
 50
215.6091257046306
 51
220.7720537074884
  0
ARC
  5
7EA9
330
1F
100
AcDbEntity
  8
ceco.net 222 Nissan Z350 - sideway 2
100
AcDbCircle
 10
2002.16974018481
 20
502.4453670202726
 30
0.0
 40
157.9102668649616
100
AcDbArc
 50
43.74006489959708
 51
80.28780273048059
  0
ARC
  5
7EAA
330
1F
100
AcDbEntity
  8
ceco.net 222 Nissan Z350 - sideway 2
100
AcDbCircle
 10
1891.465523235027
 20
387.7036719252098
 30
0.0
 40
317.2870223763078
100
AcDbArc
 50
328.1497071144461
 51
345.0003519520556
  0
LINE
  5
7EAB
330
1F
100
AcDbEntity
  8
ceco.net 222 Nissan Z350 - sideway 2
100
AcDbLine
 10
1935.880012164616
 20
482.2436994755188
 30
0.0
 11
1858.105179020938
 21
563.2931726885255
 31
0.0
  0
LINE
  5
7EAC
330
1F
100
AcDbEntity
  8
ceco.net 222 Nissan Z350 - sideway 2
100
AcDbLine
 10
1897.567038564218
 20
421.0693280925648
 30
0.0
 11
1827.958726236276
 21
493.6084364054744
 31
0.0
  0
ARC
  5
7EAD
330
1F
100
AcDbEntity
  8
ceco.net 222 Nissan Z350 - sideway 2
100
AcDbCircle
 10
1825.36224270855
 20
501.9481281784345
 30
0.0
 40
69.53642473051196
100
AcDbArc
 50
61.90891617665194
 51
111.7740425387593
  0
ARC
  5
7EAE
330
1F
100
AcDbEntity
  8
ceco.net 222 Nissan Z350 - sideway 2
100
AcDbCircle
 10
1882.598644481975
 20
556.868258420736
 30
0.0
 40
83.59022518994555
100
AcDbArc
 50
173.3672063246201
 51
229.181577633792
  0
ARC
  5
7EAF
330
1F
100
AcDbEntity
  8
ceco.net 222 Nissan Z350 - sideway 2
100
AcDbCircle
 10
1978.937253338997
 20
395.6089533949489
 30
0.0
 40
104.9206423102499
100
AcDbArc
 50
307.3883230505807
 51
325.2365915162523
  0
ARC
  5
7EB0
330
1F
100
AcDbEntity
  8
ceco.net 222 Nissan Z350 - sideway 2
100
AcDbCircle
 10
1987.729011681909
 20
405.0078798946197
 30
0.0
 40
93.02521473922006
100
AcDbArc
 50
70.81899175632255
 51
74.37425427815927
  0
ARC
  5
7EB1
330
1F
100
AcDbEntity
  8
ceco.net 222 Nissan Z350 - sideway 2
100
AcDbCircle
 10
1978.908103680354
 20
388.6962282176478
 30
0.0
 40
98.50644659305128
100
AcDbArc
 50
270.7166606903828
 51
277.4785838940177
  0
ARC
  5
7EB2
330
1F
100
AcDbEntity
  8
ceco.net 222 Nissan Z350 - sideway 2
100
AcDbCircle
 10
2110.905353426987
 20
385.4999478089604
 30
0.0
 40
317.2983876755496
100
AcDbArc
 50
160.7754192219668
 51
183.6931292094011
  0
ARC
  5
7EB3
330
1F
100
AcDbEntity
  8
ceco.net 222 Nissan Z350 - sideway 2
100
AcDbCircle
 10
1991.155814804031
 20
381.6887172231427
 30
0.0
 40
97.81891844261862
100
AcDbArc
 50
216.7817710141984
 51
226.433526364722
  0
ARC
  5
7EB4
330
1F
100
AcDbEntity
  8
ceco.net 222 Nissan Z350 - sideway 2
100
AcDbCircle
 10
2016.741721619851
 20
389.0159924993393
 30
0.0
 40
123.4099728711548
100
AcDbArc
 50
164.9459276397747
 51
179.2015226680663
  0
LINE
  5
7EB5
330
1F
100
AcDbEntity
  8
ceco.net 222 Nissan Z350 - sideway 2
100
AcDbLine
 10
1935.880012164616
 20
482.2436994754975
 30
0.0
 11
1924.415216915305
 21
441.1845569248891
 31
0.0
  0
LINE
  5
7EB6
330
1F
100
AcDbEntity
  8
ceco.net 222 Nissan Z350 - sideway 2
100
AcDbLine
 10
1920.151202954246
 20
435.4365697490871
 30
0.0
 11
1897.567038564218
 21
421.0693280925648
 31
0.0
  0
LINE
  5
7EB7
330
1F
100
AcDbEntity
  8
ceco.net 222 Nissan Z350 - sideway 2
100
AcDbLine
 10
1893.34373251002
 20
390.7357854247815
 30
0.0
 11
1807.974067403123
 21
356.4273121193588
 31
0.0
  0
LINE
  5
7EB8
330
1F
100
AcDbEntity
  8
ceco.net 222 Nissan Z350 - sideway 2
100
AcDbLine
 10
1912.810499491584
 20
323.1177997480339
 30
0.0
 11
1819.864370366773
 21
285.7644871172775
 31
0.0
  0
ARC
  5
7EB9
330
1F
100
AcDbEntity
  8
ceco.net 222 Nissan Z350 - sideway 2
100
AcDbCircle
 10
1833.353433809195
 20
287.4091811168862
 30
0.0
 40
73.53648513661825
100
AcDbArc
 50
110.1894986172569
 51
165.6238808778004
  0
ARC
  5
7EBA
330
1F
100
AcDbEntity
  8
ceco.net 222 Nissan Z350 - sideway 2
100
AcDbCircle
 10
1811.670008021978
 20
355.7098372764225
 30
0.0
 40
70.42371463598711
100
AcDbArc
 50
225.2831446008633
 51
276.681958405206
  0
ARC
  5
7EBB
330
1F
100
AcDbEntity
  8
ceco.net 222 Nissan Z350 - sideway 2
100
AcDbCircle
 10
2110.905353426987
 20
385.4999478089604
 30
0.0
 40
317.2983876755496
100
AcDbArc
 50
200.7781417838781
 51
216.8153283930352
  0
LINE
  5
7EBC
330
1F
100
AcDbEntity
  8
ceco.net 222 Nissan Z350 - sideway 2
100
AcDbLine
 10
1893.34373251002
 20
390.7357854247815
 30
0.0
 11
1910.640040519596
 21
368.9577791087908
 31
0.0
  0
LINE
  5
7EBD
330
1F
100
AcDbEntity
  8
ceco.net 222 Nissan Z350 - sideway 2
100
AcDbLine
 10
1912.809283831578
 20
362.7388215235152
 30
0.0
 11
1912.810499491584
 21
323.1177997480339
 31
0.0
  0
ARC
  5
7EBE
330
1F
100
AcDbEntity
  8
ceco.net 222 Nissan Z350 - sideway 2
100
AcDbCircle
 10
1902.809283836304
 20
362.7385147015412
 30
0.0
 40
10.0
100
AcDbArc
 50
0.00175796042428
 51
38.45695025876755
  0
ARC
  5
7EBF
330
1F
100
AcDbEntity
  8
ceco.net 222 Nissan Z350 - sideway 2
100
AcDbCircle
 10
1914.783644514402
 20
443.8739459049267
 30
0.0
 40
10.0
100
AcDbArc
 50
302.4630669606168
 51
344.3988651377158
  0
LINE
  5
7EC0
330
1F
100
AcDbEntity
  8
ceco.net 222 Nissan Z350 - sideway 2
100
AcDbLine
 10
1923.739438807799
 20
310.8115484533735
 30
0.0
 11
1883.887627910171
 21
186.2551026293113
 31
0.0
  0
LINE
  5
7EC1
330
1F
100
AcDbEntity
  8
ceco.net 222 Nissan Z350 - sideway 2
100
AcDbLine
 10
1980.140198920667
 20
290.1974873033177
 30
0.0
 11
1933.556899946623
 21
144.6018412267884
 31
0.0
  0
ARC
  5
7EC2
330
1F
100
AcDbEntity
  8
ceco.net 222 Nissan Z350 - sideway 2
100
AcDbCircle
 10
1986.44711545201
 20
147.4756253567983
 30
0.0
 40
109.6462326866455
100
AcDbArc
 50
159.2875467163906
 51
197.5466272195889
  0
ARC
  5
7EC3
330
1F
100
AcDbEntity
  8
ceco.net 222 Nissan Z350 - sideway 2
100
AcDbCircle
 10
1879.128532815641
 20
178.4585595605046
 30
0.0
 40
64.09933326393489
100
AcDbArc
 50
272.4803208713355
 51
328.1166618818425
  0
ARC
  5
7EC4
330
1F
100
AcDbEntity
  8
ceco.net 222 Nissan Z350 - sideway 2
100
AcDbCircle
 10
2001.470599766053
 20
298.9104051926583
 30
0.0
 40
177.8397688379467
100
AcDbArc
 50
249.6418543360361
 51
289.3828214457989
  0
LINE
  5
7EC5
330
1F
100
AcDbEntity
  8
ceco.net 222 Nissan Z350 - sideway 2
100
AcDbLine
 10
1952.320249250606
 20
315.9132873986374
 30
0.0
 11
1980.140198920667
 21
290.1974873033177
 31
0.0
  0
LINE
  5
7EC6
330
1F
100
AcDbEntity
  8
ceco.net 222 Nissan Z350 - sideway 2
100
AcDbLine
 10
1941.902102628221
 20
317.8877691499489
 30
0.0
 11
1923.739438807799
 21
310.8115484533735
 31
0.0
  0
ARC
  5
7EC7
330
1F
100
AcDbEntity
  8
ceco.net 222 Nissan Z350 - sideway 2
100
AcDbCircle
 10
1945.532340982725
 20
308.5699706176053
 30
0.0
 40
10.0
100
AcDbArc
 50
47.2507739086643
 51
111.2860166599626
  0
ARC
  5
7EC8
330
1F
100
AcDbEntity
  8
ceco.net 222 Nissan Z350 - sideway 2
100
AcDbCircle
 10
-241.1395878838084
 20
331.2718814389663
 30
0.0
 40
10.0
100
AcDbArc
 50
182.7201975169559
 51
281.9746668362237
  0
ARC
  5
7EC9
330
1F
100
AcDbEntity
  8
ceco.net 222 Nissan Z350 - sideway 2
100
AcDbCircle
 10
-230.9334012953586
 20
251.6569874574523
 30
0.0
 40
10.0
100
AcDbArc
 50
101.974666836218
 51
197.5689172152745
  0
ARC
  5
7ECA
330
1F
100
AcDbEntity
  8
ceco.net 222 Nissan Z350 - sideway 2
100
AcDbCircle
 10
-98.08622455967999
 20
117.2850526020363
 30
0.0
 40
10.0
100
AcDbArc
 50
153.8885860008132
 51
251.777227928252
  0
ARC
  5
7ECB
330
1F
100
AcDbEntity
  8
ceco.net 222 Nissan Z350 - sideway 2
100
AcDbCircle
 10
24.75843035416983
 20
109.9596394401354
 30
0.0
 40
10.0
100
AcDbArc
 50
281.1026333063677
 51
22.73899527386756
  0
ARC
  5
7ECC
330
1F
100
AcDbEntity
  8
ceco.net 222 Nissan Z350 - sideway 2
100
AcDbCircle
 10
89.99852701201598
 20
135.3925359701557
 30
0.0
 40
10.0
100
AcDbArc
 50
202.7389952738469
 51
301.4925573380729
  0
ARC
  5
7ECD
330
1F
100
AcDbEntity
  8
ceco.net 222 Nissan Z350 - sideway 2
100
AcDbCircle
 10
8.029391469266556
 20
567.6254127795142
 30
0.0
 40
10.0
100
AcDbArc
 50
78.02892486683528
 51
178.8875874144342
  0
ARC
  5
7ECE
330
1F
100
AcDbEntity
  8
ceco.net 222 Nissan Z350 - sideway 2
100
AcDbCircle
 10
-66.94845328617157
 20
569.4944897719773
 30
0.0
 40
10.0
100
AcDbArc
 50
358.887587414431
 51
99.11508349905551
  0
ARC
  5
7ECF
330
1F
100
AcDbEntity
  8
ceco.net 222 Nissan Z350 - sideway 2
100
AcDbCircle
 10
-159.9557945512096
 20
150.1054360781149
 30
0.0
 40
10.0
100
AcDbArc
 50
232.33292839247
 51
333.8885860008991
  0
LINE
  5
7ED0
330
1F
100
AcDbEntity
  8
ceco.net 222 Nissan Z350 - sideway 2
100
AcDbLine
 10
2042.646528311779
 20
312.2454753890702
 30
0.0
 11
2111.899297187974
 21
176.3507903314769
 31
0.0
  0
LINE
  5
7ED1
330
1F
100
AcDbEntity
  8
ceco.net 222 Nissan Z350 - sideway 2
100
AcDbLine
 10
1991.729269271574
 20
291.0277187927912
 30
0.0
 11
2066.082754225433
 21
145.1239002926891
 31
0.0
  0
LINE
  5
7ED2
330
1F
100
AcDbEntity
  8
ceco.net 222 Nissan Z350 - sideway 2
100
AcDbLine
 10
1998.976946528175
 20
316.0791881885752
 30
0.0
 11
1991.729269271516
 21
291.0277187927912
 31
0.0
  0
LINE
  5
7ED3
330
1F
100
AcDbEntity
  8
ceco.net 222 Nissan Z350 - sideway 2
100
AcDbLine
 10
2011.811705553227
 20
322.7644784129007
 30
0.0
 11
2042.646528311779
 21
312.2454753890489
 31
0.0
  0
ARC
  5
7ED4
330
1F
100
AcDbEntity
  8
ceco.net 222 Nissan Z350 - sideway 2
100
AcDbCircle
 10
2062.143003413399
 20
163.5421472020732
 30
0.0
 40
51.37849850866556
100
AcDbArc
 50
320.0912770382664
 51
14.43607461266748
  0
ARC
  5
7ED5
330
1F
100
AcDbEntity
  8
ceco.net 222 Nissan Z350 - sideway 2
100
AcDbCircle
 10
2092.194376554078
 20
158.2793009281227
 30
0.0
 40
29.23835471622908
100
AcDbArc
 50
206.7396047701653
 51
288.6693969922316
  0
ARC
  5
7ED6
330
1F
100
AcDbEntity
  8
ceco.net 222 Nissan Z350 - sideway 2
100
AcDbCircle
 10
2001.470599766053
 20
298.9104051926583
 30
0.0
 40
177.8397688379467
100
AcDbArc
 50
315.3184706061481
 51
333.7560754341966
  0
ARC
  5
7ED7
330
1F
100
AcDbEntity
  8
ceco.net 222 Nissan Z350 - sideway 2
100
AcDbCircle
 10
2008.583005277403
 20
313.3000452799033
 30
0.0
 40
10.0
100
AcDbArc
 50
71.16341891302392
 51
163.8642375681361
  0
LINE
  5
7ED8
330
1F
100
AcDbEntity
  8
ceco.net 222 Nissan Z350 - sideway 2
100
AcDbLine
 10
2083.032906723718
 20
408.7404471866102
 30
0.0
 11
2202.816256024179
 21
386.4473515524702
 31
0.0
  0
LINE
  5
7ED9
330
1F
100
AcDbEntity
  8
ceco.net 222 Nissan Z350 - sideway 2
100
AcDbLine
 10
2065.130979896781
 20
335.7843540659156
 30
0.0
 11
2194.026969661266
 21
311.7952884449062
 31
0.0
  0
ARC
  5
7EDA
330
1F
100
AcDbEntity
  8
ceco.net 222 Nissan Z350 - sideway 2
100
AcDbCircle
 10
2152.445597403031
 20
355.4253002930574
 30
0.0
 40
59.15717128355421
100
AcDbArc
 50
349.180847298884
 51
31.62789517700279
  0
ARC
  5
7EDB
330
1F
100
AcDbEntity
  8
ceco.net 222 Nissan Z350 - sideway 2
100
AcDbCircle
 10
2151.392576256301
 20
353.9154643230598
 30
0.0
 40
59.93163369220024
100
AcDbArc
 50
315.3476170404382
 51
350.7878010324362
  0
ARC
  5
7EDC
330
1F
100
AcDbEntity
  8
ceco.net 222 Nissan Z350 - sideway 2
100
AcDbCircle
 10
1891.465523235027
 20
387.7036719252098
 30
0.0
 40
317.2870223763078
100
AcDbArc
 50
0.6713876443460118
 51
26.39761275123535
  0
LINE
  5
7EDD
330
1F
100
AcDbEntity
  8
ceco.net 222 Nissan Z350 - sideway 2
100
AcDbLine
 10
2083.032906723718
 20
408.7404471866102
 30
0.0
 11
2039.723327260406
 21
384.0311738952247
 31
0.0
  0
LINE
  5
7EDE
330
1F
100
AcDbEntity
  8
ceco.net 222 Nissan Z350 - sideway 2
100
AcDbLine
 10
2037.053701397853
 20
368.8756166999392
 30
0.0
 11
2065.130979896781
 21
335.7843540659156
 31
0.0
  0
ARC
  5
7EDF
330
1F
100
AcDbEntity
  8
ceco.net 222 Nissan Z350 - sideway 2
100
AcDbCircle
 10
2044.678810537632
 20
375.3453702197271
 30
0.0
 40
10.0
100
AcDbArc
 50
119.7059141880736
 51
220.3139426486154
  0
ARC
  5
7EE0
330
1F
100
AcDbEntity
  8
ceco.net 222 Nissan Z350 - sideway 2
100
AcDbCircle
 10
1978.937253338997
 20
395.6089533949489
 30
0.0
 40
104.9206423102499
100
AcDbArc
 50
7.189789925180268
 51
25.42666420109791
  0
LINE
  5
7EE1
330
1F
100
AcDbEntity
  8
ceco.net 222 Nissan Z350 - sideway 2
100
AcDbLine
 10
2033.352314904234
 20
485.3159333777422
 30
0.0
 11
2128.0807122035
 21
585.330536866615
 31
0.0
  0
LINE
  5
7EE2
330
1F
100
AcDbEntity
  8
ceco.net 222 Nissan Z350 - sideway 2
100
AcDbLine
 10
2073.694818279324
 20
440.6572060733262
 30
0.0
 11
2159.451481189549
 21
531.1994181452002
 31
0.0
  0
ARC
  5
7EE3
330
1F
100
AcDbEntity
  8
ceco.net 222 Nissan Z350 - sideway 2
100
AcDbCircle
 10
1891.465523235027
 20
387.7036719252098
 30
0.0
 40
317.2870223763078
100
AcDbArc
 50
41.72168112988134
 51
44.88853833193397
  0
LINE
  5
7EE4
330
1F
100
AcDbEntity
  8
ceco.net 222 Nissan Z350 - sideway 2
100
AcDbLine
 10
2073.694818279324
 20
440.6572060733262
 30
0.0
 11
2030.921102830136
 21
438.454300919127
 31
0.0
  0
LINE
  5
7EE5
330
1F
100
AcDbEntity
  8
ceco.net 222 Nissan Z350 - sideway 2
100
AcDbLine
 10
2021.024902390778
 20
451.9023578724281
 30
0.0
 11
2033.352314904234
 21
485.315933377806
 31
0.0
  0
ARC
  5
7EE6
330
1F
100
AcDbEntity
  8
ceco.net 222 Nissan Z350 - sideway 2
100
AcDbCircle
 10
1978.937253338997
 20
395.6089533949489
 30
0.0
 40
104.9206423102499
100
AcDbArc
 50
58.75955663397046
 51
67.96962755430179
  0
ARC
  5
7EE7
330
1F
100
AcDbEntity
  8
ceco.net 222 Nissan Z350 - sideway 2
100
AcDbCircle
 10
2030.406770734731
 20
448.4410652848049
 30
0.0
 40
10.0
100
AcDbArc
 50
159.7492548356564
 51
272.9482066611524
  0
LINE
  5
7EE8
330
1F
100
AcDbEntity
  8
ceco.net 222 Nissan Z350 - sideway 2
100
AcDbLine
 10
1952.665211278501
 20
491.1717962317831
 30
0.0
 11
1956.843356325535
 21
639.3381146512533
 31
0.0
  0
LINE
  5
7EE9
330
1F
100
AcDbEntity
  8
ceco.net 222 Nissan Z350 - sideway 2
100
AcDbLine
 10
2012.785594044617
 20
494.5950344290688
 30
0.0
 11
2017.126059614853
 21
648.5175997137568
 31
0.0
  0
ARC
  5
7EEA
330
1F
100
AcDbEntity
  8
ceco.net 222 Nissan Z350 - sideway 2
100
AcDbCircle
 10
2026.810109460046
 20
642.9564679038373
 30
0.0
 40
70.0602528145773
100
AcDbArc
 50
133.7291359057565
 51
182.960432435431
  0
ARC
  5
7EEB
330
1F
100
AcDbEntity
  8
ceco.net 222 Nissan Z350 - sideway 2
100
AcDbCircle
 10
1958.762094509907
 20
637.5274610728435
 30
0.0
 40
59.3896924568377
100
AcDbArc
 50
10.66412217956963
 51
70.7105081355527
  0
ARC
  5
7EEC
330
1F
100
AcDbEntity
  8
ceco.net 222 Nissan Z350 - sideway 2
100
AcDbCircle
 10
2002.16974018481
 20
502.4453670202726
 30
0.0
 40
157.9102668649616
100
AcDbArc
 50
111.964178622499
 51
137.8813493945685
  0
LINE
  5
7EED
330
1F
100
AcDbEntity
  8
ceco.net 222 Nissan Z350 - sideway 2
100
AcDbLine
 10
1952.665211278556
 20
491.1717962317547
 30
0.0
 11
1965.996733883872
 21
472.5651589290942
 31
0.0
  0
LINE
  5
7EEE
330
1F
100
AcDbEntity
  8
ceco.net 222 Nissan Z350 - sideway 2
100
AcDbLine
 10
1980.079948233666
 20
470.3553978594152
 30
0.0
 11
2012.785594044617
 21
494.5950344290688
 31
0.0
  0
ARC
  5
7EEF
330
1F
100
AcDbEntity
  8
ceco.net 222 Nissan Z350 - sideway 2
100
AcDbCircle
 10
1987.729011681909
 20
405.0078798946197
 30
0.0
 40
93.02521473922006
100
AcDbArc
 50
112.1435200888077
 51
123.8737656203075
  0
ARC
  5
7EF0
330
1F
100
AcDbEntity
  8
ceco.net 222 Nissan Z350 - sideway 2
100
AcDbCircle
 10
1974.12557409787
 20
478.3894148279524
 30
0.0
 40
10.0
100
AcDbArc
 50
215.6213271774266
 51
306.5438206054658
  0
ARC
  5
7EF1
330
1F
100
AcDbEntity
  8
ceco.net 222 Nissan Z350 - sideway 2
100
AcDbCircle
 10
1865.320504670209
 20
570.2169776955523
 30
0.0
 40
10.0
100
AcDbArc
 50
143.0512871885163
 51
223.818842781869
  0
ARC
  5
7EF2
330
1F
100
AcDbEntity
  8
ceco.net 222 Nissan Z350 - sideway 2
100
AcDbCircle
 10
1820.743400587005
 20
486.6846313984618
 30
0.0
 40
10.0
100
AcDbArc
 50
43.81884278183846
 51
160.7754192219307
  0
ARC
  5
7EF3
330
1F
100
AcDbEntity
  8
ceco.net 222 Nissan Z350 - sideway 2
100
AcDbCircle
 10
2027.122086060688
 20
648.2357215593319
 30
0.0
 40
10.0
100
AcDbArc
 50
80.28780273068818
 51
178.3847431921008
  0
ARC
  5
7EF4
330
1F
100
AcDbEntity
  8
ceco.net 222 Nissan Z350 - sideway 2
100
AcDbCircle
 10
1946.847329879703
 20
639.6199928056782
 30
0.0
 40
10.0
100
AcDbArc
 50
358.3847431921008
 51
111.9641786225082
  0
ARC
  5
7EF5
330
1F
100
AcDbEntity
  8
ceco.net 222 Nissan Z350 - sideway 2
100
AcDbCircle
 10
1804.245117045768
 20
365.7060474444416
 30
0.0
 40
10.0
100
AcDbArc
 50
183.6931292094072
 51
291.8942728086946
  0
ARC
  5
7EF6
330
1F
100
AcDbEntity
  8
ceco.net 222 Nissan Z350 - sideway 2
100
AcDbCircle
 10
1823.593320724128
 20
276.4857517922232
 30
0.0
 40
10.0
100
AcDbArc
 50
111.8942728087033
 51
200.7781417838663
  0
ARC
  5
7EF7
330
1F
100
AcDbEntity
  8
ceco.net 222 Nissan Z350 - sideway 2
100
AcDbCircle
 10
1943.081280175036
 20
141.5545176036028
 30
0.0
 40
10.0
100
AcDbArc
 50
162.2579370877518
 51
249.6418543360487
  0
ARC
  5
7EF8
330
1F
100
AcDbEntity
  8
ceco.net 222 Nissan Z350 - sideway 2
100
AcDbCircle
 10
1874.3632476817
 20
189.3024262524969
 30
0.0
 40
10.0
100
AcDbArc
 50
220.7720537075195
 51
342.2579370878422
  0
ARC
  5
7EF9
330
1F
100
AcDbEntity
  8
ceco.net 222 Nissan Z350 - sideway 2
100
AcDbCircle
 10
2120.809071517684
 20
180.8912662311082
 30
0.0
 40
10.0
100
AcDbArc
 50
207.0036712211913
 51
315.3184706061154
  0
ARC
  5
7EFA
330
1F
100
AcDbEntity
  8
ceco.net 222 Nissan Z350 - sideway 2
100
AcDbCircle
 10
2057.17297989584
 20
140.583424393065
 30
0.0
 40
10.0
100
AcDbArc
 50
289.3828214458029
 51
27.00367122149276
  0
ARC
  5
7EFB
330
1F
100
AcDbEntity
  8
ceco.net 222 Nissan Z350 - sideway 2
100
AcDbCircle
 10
2203.73110583263
 20
391.3629440730242
 30
0.0
 40
5.0
100
AcDbArc
 50
259.4572003036067
 51
0.6713876443240291
  0
ARC
  5
7EFC
330
1F
100
AcDbEntity
  8
ceco.net 222 Nissan Z350 - sideway 2
100
AcDbCircle
 10
2193.112119852812
 20
306.8796959243594
 30
0.0
 40
5.0
100
AcDbArc
 50
345.0003519520132
 51
79.45720030360627
  0
ARC
  5
7EFD
330
1F
100
AcDbEntity
  8
ceco.net 222 Nissan Z350 - sideway 2
100
AcDbCircle
 10
2120.820377923126
 20
592.2071309463214
 30
0.0
 40
10.0
100
AcDbArc
 50
316.5548848827823
 51
41.72168112985977
  0
ARC
  5
7EFE
330
1F
100
AcDbEntity
  8
ceco.net 222 Nissan Z350 - sideway 2
100
AcDbCircle
 10
2166.711815469923
 20
524.3228240654937
 30
0.0
 40
10.0
100
AcDbArc
 50
26.39761275110548
 51
136.5548848827823
  0
ARC
  5
7EFF
330
1F
100
AcDbEntity
  8
ceco.net 222 Nissan Z350 - sideway 2
100
AcDbCircle
 10
2081.096741724381
 20
558.5486670749384
 30
0.0
 40
82.99064172348181
100
AcDbArc
 50
340.7587672311814
 51
17.09502126468016
  0
ARC
  5
7F00
330
1F
100
AcDbEntity
  8
ceco.net 222 Nissan Z350 - sideway 2
100
AcDbCircle
 10
2147.818718448903
 20
547.2871263998664
 30
0.0
 40
42.85895437929779
100
AcDbArc
 50
84.68488268521181
 51
117.4215717424569
  0
ARC
  5
7F01
330
1F
100
AcDbEntity
  8
ceco.net 222 Nissan Z350 - sideway 2
100
AcDbCircle
 10
2150.862551930076
 20
580.0047968646149
 30
0.0
 40
10.0
100
AcDbArc
 50
17.09502126462957
 51
84.68488268521111
  0
CIRCLE
  5
7F02
330
1F
100
AcDbEntity
  8
ceco.net 222 Nissan Z350 - sideway 2
100
AcDbCircle
 10
2032.755852290407
 20
411.8278383202289
 30
0.0
 40
5.0
  0
CIRCLE
  5
7F03
330
1F
100
AcDbEntity
  8
ceco.net 222 Nissan Z350 - sideway 2
100
AcDbCircle
 10
1998.842825467607
 20
461.9077061016492
 30
0.0
 40
5.0
  0
CIRCLE
  5
7F04
330
1F
100
AcDbEntity
  8
ceco.net 222 Nissan Z350 - sideway 2
100
AcDbCircle
 10
1946.352696160673
 20
459.4593492624037
 30
0.0
 40
5.0
  0
CIRCLE
  5
7F05
330
1F
100
AcDbEntity
  8
ceco.net 222 Nissan Z350 - sideway 2
100
AcDbCircle
 10
2020.888753737508
 20
343.6877113818477
 30
0.0
 40
5.0
  0
CIRCLE
  5
7F06
330
1F
100
AcDbEntity
  8
ceco.net 222 Nissan Z350 - sideway 2
100
AcDbCircle
 10
1977.496862027765
 20
311.1597275005744
 30
0.0
 40
5.0
  0
CIRCLE
  5
7F07
330
1F
100
AcDbEntity
  8
ceco.net 222 Nissan Z350 - sideway 2
100
AcDbCircle
 10
1927.106246529507
 20
337.7417409791983
 30
0.0
 40
5.0
  0
CIRCLE
  5
7F08
330
1F
100
AcDbEntity
  8
ceco.net 222 Nissan Z350 - sideway 2
100
AcDbCircle
 10
1911.359240367306
 20
402.797708741752
 30
0.0
 40
5.0
  0
SPLINE
  5
7F09
330
1F
100
AcDbEntity
  8
ceco.net 222 Nissan Z350 - sideway 2
100
AcDbSpline
210
0.0
220
0.0
230
1.0
 70
     8
 71
     3
 72
    16
 73
    12
 74
     0
 42
0.0000000001
 43
0.0000000001
 40
-0.0024927356839992
 40
-0.0024927356839992
 40
-0.0024927356839992
 40
-0.0024927356839992
 40
0.6162105351300817
 40
0.6162105351300817
 40
1.343341308274722
 40
1.343341308274722
 40
2.070472081419363
 40
2.070472081419363
 40
2.797602854564004
 40
2.797602854564004
 40
3.046168708165239
 40
3.046168708165239
 40
3.046168708165239
 40
3.046168708165239
 10
1972.484080423742
 20
-0.340142451469724
 30
0.0
 10
2041.156419345796
 20
-2.130767760973192
 30
0.0
 10
2110.428096500145
 20
24.84039249417071
 30
0.0
 10
2228.116219980976
 20
127.3834972176226
 30
0.0
 10
2271.356363802071
 20
208.8938295044125
 30
0.0
 10
2307.267153368018
 20
384.940795182346
 30
0.0
 10
2300.153176688541
 20
479.685935909246
 30
0.0
 10
2243.029027233449
 20
645.3717824863298
 30
0.0
 10
2184.809901783879
 20
717.8132229218273
 30
0.0
 10
2085.214906521472
 20
766.980438176895
 30
0.0
 10
2054.218043349024
 20
772.14893052711
 30
0.0
 10
2026.561626491813
 20
776.5440394000941
 30
0.0
  0
ARC
  5
7F0A
330
1F
100
AcDbEntity
  8
ceco.net 222 Nissan Z350 - sideway 2
100
AcDbCircle
 10
2072.397182705983
 20
351.2875250973133
 30
0.0
 40
383.4960533587695
100
AcDbArc
 50
187.7436209865526
 51
208.5772434408536
  0
ARC
  5
7F0B
330
1F
100
AcDbEntity
  8
ceco.net 222 Nissan Z350 - sideway 2
100
AcDbCircle
 10
2156.591931664039
 20
372.8419519770805
 30
0.0
 40
469.9339748095815
100
AcDbArc
 50
133.3007572699818
 51
188.9645797753519
  0
ARC
  5
7F0C
330
1F
100
AcDbEntity
  8
ceco.net 222 Nissan Z350 - sideway 2
100
AcDbCircle
 10
2006.804025113935
 20
507.7082636870793
 30
0.0
 40
269.5608226642538
100
AcDbArc
 50
85.79670663930611
 51
129.7882322370828
  0
LINE
  5
7F0D
330
1F
100
AcDbEntity
  8
ceco.net 222 Nissan Z350 - sideway 2
100
AcDbLine
 10
2026.561626491813
 20
776.5440394001013
 30
0.0
 11
2153.235182204425
 21
776.5440394001013
 31
0.0
  0
ARC
  5
7F0E
330
1F
100
AcDbEntity
  8
ceco.net 222 Nissan Z350 - sideway 2
100
AcDbCircle
 10
3079.34641179135
 20
284.3246510048809
 30
0.0
 40
202.547590968547
100
AcDbArc
 50
185.1375247879703
 51
292.8774193632057
  0
ARC
  5
7F0F
330
1F
100
AcDbEntity
  8
ceco.net 222 Nissan Z350 - sideway 2
100
AcDbCircle
 10
3037.271437452163
 20
337.3332809888092
 30
0.0
 40
268.358589684452
100
AcDbArc
 50
296.7571180391464
 51
344.626170853073
  0
LWPOLYLINE
  5
7F10
330
1F
100
AcDbEntity
  8
ceco.net 222 Nissan Z350 - sideway 2
100
AcDbPolyline
 90
        2
 70
     0
 43
0.0
 10
2867.574101786387
 20
266.1871996485638
 42
0.5094276822193487
 10
3161.976599195284
 20
88.49633191869179
  0
LWPOLYLINE
  5
7F11
330
1F
100
AcDbEntity
  8
ceco.net 222 Nissan Z350 - sideway 2
100
AcDbPolyline
 90
        2
 70
     0
 43
0.0
 10
3161.976599195284
 20
88.49633191869179
 42
0.215291964135152
 10
3306.384191366094
 20
266.1871996506315
  0
LWPOLYLINE
  5
7F12
330
1F
100
AcDbEntity
  8
ceco.net 222 Nissan Z350 - sideway 2
100
AcDbPolyline
 90
        2
 70
     0
 43
0.0
 10
3078.360615664067
 20
-0.4541948746767801
 42
0.3833590248618186
 10
3372.87278259352
 20
266.1871996492744
 42
0.2145604317123576
  0
LWPOLYLINE
  5
7F13
330
1F
100
AcDbEntity
  8
ceco.net 222 Nissan Z350 - sideway 2
100
AcDbPolyline
 90
        2
 70
     0
 43
0.0
 10
2818.603647269428
 20
266.1871996492815
 42
0.0930131887909934
 10
2842.001578685158
 20
164.9208699649813
 42
0.0866911618282067
  0
LWPOLYLINE
  5
7F14
330
1F
100
AcDbEntity
  8
ceco.net 222 Nissan Z350 - sideway 2
100
AcDbPolyline
 90
       16
 70
     0
 43
0.0
 10
3251.153993719487
 20
183.6713179493552
 10
3247.007817963055
 20
203.1170994258966
 42
0.504376760078702
 10
3231.786793558415
 20
208.3131774104254
 10
3217.576146017862
 20
198.4798595173211
 42
-0.0874516123127092
 10
3214.421897381969
 20
197.0299862177009
 10
3194.988328055802
 20
191.9351525328716
 42
0.1985411133566295
 10
3188.898398025019
 20
187.3210972476764
 10
3173.037217065612
 20
160.2770894718626
 42
-0.2792043309512964
 10
3163.924346230731
 20
155.3479995898579
 10
3155.289790542116
 20
155.7689814926428
 42
0.2115408712131521
 10
3151.511634657381
 20
154.3113135473968
 10
3149.590522024667
 20
152.3911419001047
 42
0.4454204985011167
 10
3149.980124098208
 20
144.9677686248316
 10
3161.817638918153
 20
135.3896837255286
 42
0.1448651238885329
 10
3164.439534845103
 20
134.3041030970946
 10
3200.33333762025
 20
130.5276633809677
  0
ARC
  5
7F15
330
1F
100
AcDbEntity
  8
ceco.net 222 Nissan Z350 - sideway 2
100
AcDbCircle
 10
3037.271437452163
 20
337.3332809888092
 30
0.0
 40
263.358589684452
100
AcDbArc
 50
308.2550396101106
 51
324.3049901458025
  0
LINE
  5
7F16
330
1F
100
AcDbEntity
  8
ceco.net 222 Nissan Z350 - sideway 2
100
AcDbLine
 10
3101.313719939371
 20
201.5957894421314
 30
0.0
 11
3091.718954521086
 21
201.5957894421314
 31
0.0
  0
LINE
  5
7F17
330
1F
100
AcDbEntity
  8
ceco.net 222 Nissan Z350 - sideway 2
100
AcDbLine
 10
3090.966540192155
 20
201.9370993195375
 30
0.0
 11
3085.809201054602
 21
207.8282698915581
 31
0.0
  0
LINE
  5
7F18
330
1F
100
AcDbEntity
  8
ceco.net 222 Nissan Z350 - sideway 2
100
AcDbLine
 10
3085.021113526083
 20
208.1689432778129
 30
0.0
 11
3074.957110531515
 21
207.8096994347129
 31
0.0
  0
LINE
  5
7F19
330
1F
100
AcDbEntity
  8
ceco.net 222 Nissan Z350 - sideway 2
100
AcDbLine
 10
3073.993420222239
 20
206.7746627262617
 30
0.0
 11
3074.283246414452
 21
198.6553540118274
 31
0.0
  0
LINE
  5
7F1A
330
1F
100
AcDbEntity
  8
ceco.net 222 Nissan Z350 - sideway 2
100
AcDbLine
 10
3074.532345532094
 20
198.0298892959888
 30
0.0
 11
3085.609595019221
 21
185.4593413827112
 31
0.0
  0
LINE
  5
7F1B
330
1F
100
AcDbEntity
  8
ceco.net 222 Nissan Z350 - sideway 2
100
AcDbLine
 10
3086.359859410451
 20
185.1204792981429
 30
0.0
 11
3100.2275446764
 21
185.1204792981358
 31
0.0
  0
ARC
  5
7F1C
330
1F
100
AcDbEntity
  8
ceco.net 222 Nissan Z350 - sideway 2
100
AcDbCircle
 10
3100.227544676458
 20
186.1204792981263
 30
0.0
 40
0.9999999999905639
100
AcDbArc
 50
270.0
 51
355.7087723794984
  0
LINE
  5
7F1D
330
1F
100
AcDbEntity
  8
ceco.net 222 Nissan Z350 - sideway 2
100
AcDbLine
 10
3101.22474127799
 20
186.0456532481089
 30
0.0
 11
3102.310916540958
 21
200.5209633921021
 31
0.0
  0
ARC
  5
7F1E
330
1F
100
AcDbEntity
  8
ceco.net 222 Nissan Z350 - sideway 2
100
AcDbCircle
 10
3074.992783731104
 20
206.8103359258595
 30
0.0
 40
1.0
100
AcDbArc
 50
92.0443575354875
 51
182.0443575354996
  0
ARC
  5
7F1F
330
1F
100
AcDbEntity
  8
ceco.net 222 Nissan Z350 - sideway 2
100
AcDbCircle
 10
3075.28260992332
 20
198.6910272114253
 30
0.0
 40
1.0
100
AcDbArc
 50
182.0443575355374
 51
221.3867145327967
  0
ARC
  5
7F20
330
1F
100
AcDbEntity
  8
ceco.net 222 Nissan Z350 - sideway 2
100
AcDbCircle
 10
3086.359859410451
 20
186.1204792981405
 30
0.0
 40
1.0
100
AcDbArc
 50
221.3867145325774
 51
270.0
  0
ARC
  5
7F21
330
1F
100
AcDbEntity
  8
ceco.net 222 Nissan Z350 - sideway 2
100
AcDbCircle
 10
3100.2275446764
 20
186.1204792981334
 30
0.0
 40
1.0
100
AcDbArc
 50
270.0
 51
355.7087723789487
  0
ARC
  5
7F22
330
1F
100
AcDbEntity
  8
ceco.net 222 Nissan Z350 - sideway 2
100
AcDbCircle
 10
3101.313719939371
 20
200.5957894421337
 30
0.0
 40
1.0
100
AcDbArc
 50
355.7087723787416
 51
90.0
  0
ARC
  5
7F23
330
1F
100
AcDbEntity
  8
ceco.net 222 Nissan Z350 - sideway 2
100
AcDbCircle
 10
3091.718954521086
 20
202.5957894421291
 30
0.0
 40
1.0
100
AcDbArc
 50
221.2000504470036
 51
270.0
  0
ARC
  5
7F24
330
1F
100
AcDbEntity
  8
ceco.net 222 Nissan Z350 - sideway 2
100
AcDbCircle
 10
3085.056786725672
 20
207.1695797689594
 30
0.0
 40
1.0
100
AcDbArc
 50
41.20005044705266
 51
92.0443575354875
  0
SPLINE
  5
7F25
330
1F
100
AcDbEntity
  8
ceco.net 222 Nissan Z350 - sideway 2
100
AcDbSpline
210
0.0
220
0.0
230
1.0
 70
     8
 71
     3
 72
    12
 73
     8
 74
     0
 42
0.0000000001
 43
0.0000000001
 40
1.589523374111132
 40
1.589523374111132
 40
1.589523374111132
 40
1.589523374111132
 40
2.636373849146359
 40
2.636373849146359
 40
3.888538398636607
 40
3.888538398636607
 40
4.128395058127711
 40
4.128395058127711
 40
4.128395058127711
 40
4.128395058127711
 10
3279.779430085527
 20
993.2774199235305
 30
0.0
 10
3292.437777144827
 20
978.9066262872561
 30
0.0
 10
3308.528402214066
 20
967.8863098931824
 30
0.0
 10
3331.26918400457
 20
963.7097613730398
 30
0.0
 10
3335.064040488378
 20
969.6409960438581
 30
0.0
 10
3330.274811821327
 20
988.6905162124586
 30
0.0
 10
3329.080539079841
 20
991.9922411552956
 30
0.0
 10
3327.53556988827
 20
995.4210089366039
 30
0.0
  0
SPLINE
  5
7F26
330
1F
100
AcDbEntity
  8
ceco.net 222 Nissan Z350 - sideway 2
100
AcDbSpline
210
0.0
220
0.0
230
1.0
 70
     8
 71
     3
 72
    12
 73
     8
 74
     0
 42
0.0000000001
 43
0.0000000001
 40
1.394394962232707
 40
1.394394962232707
 40
1.394394962232707
 40
1.394394962232707
 40
1.858120742616814
 40
1.858120742616814
 40
3.096749275923601
 40
3.096749275923601
 40
4.027476897389346
 40
4.027476897389346
 40
4.027476897389346
 40
4.027476897389346
 10
3265.092699282392
 20
995.7617387432557
 30
0.0
 10
3270.377371641716
 20
988.3620212233887
 30
0.0
 10
3276.577256197885
 20
981.3266168521517
 30
0.0
 10
3300.982436144652
 20
959.2452656156575
 30
0.0
 10
3321.542838293866
 20
950.2147818095433
 30
0.0
 10
3343.631979123201
 20
965.4398072353993
 30
0.0
 10
3344.076907533592
 20
979.3135851058289
 30
0.0
 10
3338.731947959233
 20
994.4213132629196
 30
0.0
  0
LINE
  5
7F27
330
1F
100
AcDbEntity
  8
ceco.net 222 Nissan Z350 - sideway 2
100
AcDbLine
 10
3248.773293233924
 20
1021.599384702867
 30
0.0
 11
3249.855393830687
 21
1021.599384702867
 31
0.0
  0
LINE
  5
7F28
330
1F
100
AcDbEntity
  8
ceco.net 222 Nissan Z350 - sideway 2
100
AcDbLine
 10
3261.475002862043
 20
996.5993847028553
 30
0.0
 11
3263.465144900936
 21
996.5993847028553
 31
0.0
  0
LINE
  5
7F29
330
1F
100
AcDbEntity
  8
ceco.net 222 Nissan Z350 - sideway 2
100
AcDbLine
 10
3244.957541415558
 20
1013.368279928863
 30
0.0
 11
3257.659251043678
 21
998.3682799288555
 31
0.0
  0
ARC
  5
7F2A
330
1F
100
AcDbEntity
  8
ceco.net 222 Nissan Z350 - sideway 2
100
AcDbCircle
 10
3261.475002862043
 20
1001.599384702857
 30
0.0
 40
5.0
100
AcDbArc
 50
220.257280306319
 51
270.0
  0
ARC
  5
7F2B
330
1F
100
AcDbEntity
  8
ceco.net 222 Nissan Z350 - sideway 2
100
AcDbCircle
 10
3248.773293233924
 20
1016.599384702865
 30
0.0
 40
5.0
100
AcDbArc
 50
90.0
 51
220.2572803063165
  0
LINE
  5
7F2C
330
1F
100
AcDbEntity
  8
ceco.net 222 Nissan Z350 - sideway 2
100
AcDbLine
 10
3329.161104998733
 20
1019.830489476867
 30
0.0
 11
3341.862814626908
 21
1004.83048947686
 31
0.0
  0
ARC
  5
7F2D
330
1F
100
AcDbEntity
  8
ceco.net 222 Nissan Z350 - sideway 2
100
AcDbCircle
 10
3325.233372154074
 20
1016.45242605531
 30
0.0
 40
5.180578903855773
100
AcDbArc
 50
40.69731858135047
 51
96.53106705587005
  0
ARC
  5
7F2E
330
1F
100
AcDbEntity
  8
ceco.net 222 Nissan Z350 - sideway 2
100
AcDbCircle
 10
3338.047062808542
 20
1001.599384702857
 30
0.0
 40
5.0
100
AcDbArc
 50
291.542712877912
 51
40.25728030629295
  0
LINE
  5
7F2F
330
1F
100
AcDbEntity
  8
ceco.net 222 Nissan Z350 - sideway 2
100
AcDbLine
 10
3263.286563251498
 20
1021.599384702867
 30
0.0
 11
3306.267236959527
 21
1021.599384702875
 31
0.0
  0
LINE
  5
7F30
330
1F
100
AcDbEntity
  8
ceco.net 222 Nissan Z350 - sideway 2
100
AcDbLine
 10
3281.280232911471
 20
996.5993847028553
 30
0.0
 11
3325.712129837499
 21
996.5993847028553
 31
0.0
  0
SPLINE
  5
7F31
330
1F
100
AcDbEntity
  8
ceco.net 222 Nissan Z350 - sideway 2
100
AcDbSpline
210
0.0
220
0.0
230
1.0
 70
     8
 71
     3
 72
    15
 73
    11
 74
     0
 42
0.0000000001
 43
0.0000000001
 40
4.600079963906786
 40
4.600079963906786
 40
4.600079963906786
 40
4.600079963906786
 40
5.574006342537176
 40
5.574006342537176
 40
6.283185307179586
 40
6.283185307179586
 40
6.283185307179586
 40
6.91008832045224
 40
6.91008832045224
 40
7.119621405750328
 40
7.119621405750328
 40
7.119621405750328
 40
7.119621405750328
 10
3323.057114650921
 20
1022.382255205294
 30
0.0
 10
3311.35670676015
 20
1037.638352523893
 30
0.0
 10
3295.83711715044
 20
1050.842244820175
 30
0.0
 10
3271.635231946518
 20
1060.572928651176
 30
0.0
 10
3261.528366564122
 20
1060.924290639527
 30
0.0
 10
3254.834949651653
 20
1055.263178825854
 30
0.0
 10
3248.918074729106
 20
1050.258845319917
 30
0.0
 10
3247.172517059552
 20
1041.726336708202
 30
0.0
 10
3248.932666296881
 20
1029.445617881109
 30
0.0
 10
3249.718273640112
 20
1026.221901490885
 30
0.0
 10
3250.805471437518
 20
1022.911398390754
 30
0.0
  0
SPLINE
  5
7F32
330
1F
100
AcDbEntity
  8
ceco.net 222 Nissan Z350 - sideway 2
100
AcDbSpline
210
0.0
220
0.0
230
1.0
 70
     8
 71
     3
 72
    15
 73
    11
 74
     0
 42
0.0000000001
 43
0.0000000001
 40
4.804759693573009
 40
4.804759693573009
 40
4.804759693573009
 40
4.804759693573009
 40
5.140702948126856
 40
5.140702948126856
 40
6.283185307179586
 40
6.283185307179586
 40
6.283185307179586
 40
6.975289957007641
 40
6.975289957007641
 40
7.195914623237772
 40
7.195914623237772
 40
7.195914623237772
 40
7.195914623237772
 10
3307.75156714323
 20
1024.939818925717
 30
0.0
 10
3303.637906662701
 20
1029.495081923905
 30
0.0
 10
3299.243766945735
 20
1033.678410661743
 30
0.0
 10
3279.562288842513
 20
1049.093930695435
 30
0.0
 10
3265.668582543883
 20
1051.328905101954
 30
0.0
 10
3261.292677659145
 20
1047.627882565515
 30
0.0
 10
3258.641797237218
 20
1045.38583927593
 30
0.0
 10
3257.068431259838
 20
1040.088552364722
 30
0.0
 10
3259.347482839261
 20
1028.908809159191
 30
0.0
 10
3260.233536049967
 20
1025.966905854396
 30
0.0
 10
3261.419793634006
 20
1022.881630430632
 30
0.0
  0
ARC
  5
7F33
330
1F
100
AcDbEntity
  8
ceco.net 222 Nissan Z350 - sideway 2
100
AcDbCircle
 10
3263.286563251498
 20
1023.599384702905
 30
0.0
 40
2.0
100
AcDbArc
 50
201.0312531159469
 51
270.0
  0
ARC
  5
7F34
330
1F
100
AcDbEntity
  8
ceco.net 222 Nissan Z350 - sideway 2
100
AcDbCircle
 10
3306.267236959527
 20
1023.599384702877
 30
0.0
 40
2.0
100
AcDbArc
 50
270.0
 51
42.08382377585776
  0
ARC
  5
7F35
330
1F
100
AcDbEntity
  8
ceco.net 222 Nissan Z350 - sideway 2
100
AcDbCircle
 10
3325.712129837444
 20
994.5993847028386
 30
0.0
 40
2.0
100
AcDbArc
 50
24.25586092807497
 51
90.0
  0
ARC
  5
7F36
330
1F
100
AcDbEntity
  8
ceco.net 222 Nissan Z350 - sideway 2
100
AcDbCircle
 10
3281.280232911413
 20
994.5993847028386
 30
0.0
 40
2.0
100
AcDbArc
 50
90.0
 51
221.3748385105366
  0
ARC
  5
7F37
330
1F
100
AcDbEntity
  8
ceco.net 222 Nissan Z350 - sideway 2
100
AcDbCircle
 10
3263.465144922309
 20
994.599384711628
 30
0.0
 40
2.0
100
AcDbArc
 50
35.53336984915883
 51
90.00000061073164
  0
ARC
  5
7F38
330
1F
100
AcDbEntity
  8
ceco.net 222 Nissan Z350 - sideway 2
100
AcDbCircle
 10
3324.644123090154
 20
1023.59938470292
 30
0.0
 40
2.0
100
AcDbArc
 50
217.4857971566066
 51
270.0
  0
ARC
  5
7F39
330
1F
100
AcDbEntity
  8
ceco.net 222 Nissan Z350 - sideway 2
100
AcDbCircle
 10
3340.617425938333
 20
995.0883760722328
 30
0.0
 40
2.0
100
AcDbArc
 50
111.5427128678204
 51
199.4832581401196
  0
ARC
  5
7F3A
330
1F
100
AcDbEntity
  8
ceco.net 222 Nissan Z350 - sideway 2
100
AcDbCircle
 10
3249.8553938308
 20
1022.599384702851
 30
0.0
 40
1.0
100
AcDbArc
 50
269.9999999966649
 51
18.18062665475383
  0
LWPOLYLINE
  5
7F3B
330
1F
100
AcDbEntity
  8
ceco.net 222 Nissan Z350 - sideway 2
100
AcDbPolyline
 90
        2
 70
     0
 43
0.0
 10
2996.551697131468
 20
266.1871996492744
 42
0.3254609954643243
 10
3205.06476514005
 20
127.9013544908816
 42
0.3254609954643243
  0
ARC
  5
7F3C
330
1F
100
AcDbEntity
  8
ceco.net 222 Nissan Z350 - sideway 2
100
AcDbCircle
 10
2052.435471382992
 20
815.5277258297681
 30
0.0
 40
538.0958578681782
100
AcDbArc
 50
11.7459283610727
 51
28.45286116423562
  0
ARC
  5
7F3D
330
1F
100
AcDbEntity
  8
ceco.net 222 Nissan Z350 - sideway 2
100
AcDbCircle
 10
2948.142494918629
 20
887.787095823236
 30
0.0
 40
10.0
100
AcDbArc
 50
274.2496700412339
 51
41.68664610370207
  0
ARC
  5
7F3E
330
1F
100
AcDbEntity
  8
ceco.net 222 Nissan Z350 - sideway 2
100
AcDbCircle
 10
2120.978365839804
 20
252.9537270982027
 30
0.0
 40
141.8543780371187
100
AcDbArc
 50
218.8283521240455
 51
241.2297467901244
  0
ARC
  5
7F3F
330
1F
100
AcDbEntity
  8
ceco.net 222 Nissan Z350 - sideway 2
100
AcDbCircle
 10
2031.21104587565
 20
244.5659488015091
 30
0.0
 40
69.80030571006601
100
AcDbArc
 50
258.8875600246859
 51
285.3649402332782
  0
ARC
  5
7F40
330
1F
100
AcDbEntity
  8
ceco.net 222 Nissan Z350 - sideway 2
100
AcDbCircle
 10
2016.312570000893
 20
168.714958831182
 30
0.0
 40
7.5
100
AcDbArc
 50
78.8875600244787
 51
218.8283521241052
  0
LINE
  5
7F41
330
1F
100
AcDbEntity
  8
ceco.net 222 Nissan Z350 - sideway 2
100
AcDbLine
 10
2035.525680683251
 20
569.9174795954613
 30
0.0
 11
2032.181732183246
 21
508.5583299641323
 31
0.0
  0
LINE
  5
7F42
330
1F
100
AcDbEntity
  8
ceco.net 222 Nissan Z350 - sideway 2
100
AcDbLine
 10
2034.513173767678
 20
502.7049501796563
 30
0.0
 11
2042.582961743406
 21
495.0616855480385
 31
0.0
  0
ARC
  5
7F43
330
1F
100
AcDbEntity
  8
ceco.net 222 Nissan Z350 - sideway 2
100
AcDbCircle
 10
2039.67061932748
 20
508.1502008899301
 30
0.0
 40
7.5
100
AcDbArc
 50
176.8805826931146
 51
226.5548848827266
  0
ARC
  5
7F44
330
1F
100
AcDbEntity
  8
ceco.net 222 Nissan Z350 - sideway 2
100
AcDbCircle
 10
2033.081766389743
 20
425.6730551317895
 30
0.0
 40
151.6788487075729
100
AcDbArc
 50
62.16590979307311
 51
86.04963732438958
  0
ARC
  5
7F45
330
1F
100
AcDbEntity
  8
ceco.net 222 Nissan Z350 - sideway 2
100
AcDbCircle
 10
2099.449422343426
 20
385.6393053916784
 30
0.0
 40
228.9344350739508
100
AcDbArc
 50
165.7648201924594
 51
181.0170249620273
  0
ARC
  5
7F46
330
1F
100
AcDbEntity
  8
ceco.net 222 Nissan Z350 - sideway 2
100
AcDbCircle
 10
1998.92119056615
 20
319.6770067048442
 30
0.0
 40
110.0438407988003
100
AcDbArc
 50
200.8610563927272
 51
213.4910150018384
  0
LINE
  5
7F47
330
1F
100
AcDbEntity
  8
ceco.net 222 Nissan Z350 - sideway 2
100
AcDbLine
 10
2000.145549493212
 20
211.3507455109422
 30
0.0
 11
1994.829054422512
 21
215.4373578121786
 31
0.0
  0
ARC
  5
7F48
330
1F
100
AcDbEntity
  8
ceco.net 222 Nissan Z350 - sideway 2
100
AcDbCircle
 10
1999.3997773076
 20
221.3836585368165
 30
0.0
 40
7.500000000008547
100
AcDbArc
 50
181.7622308065953
 51
232.4517207219044
  0
LINE
  5
7F49
330
1F
100
AcDbEntity
  8
ceco.net 222 Nissan Z350 - sideway 2
100
AcDbLine
 10
1991.90332443955
 20
221.1530194308588
 30
0.0
 11
1990.995469878456
 21
250.6609768964063
 31
0.0
  0
ARC
  5
7F4A
330
1F
100
AcDbEntity
  8
ceco.net 222 Nissan Z350 - sideway 2
100
AcDbCircle
 10
1998.49192274651
 20
250.8916160023782
 30
0.0
 40
7.500000000010463
100
AcDbArc
 50
117.0036712216838
 51
181.762230806704
  0
LINE
  5
7F4B
330
1F
100
AcDbEntity
  8
ceco.net 222 Nissan Z350 - sideway 2
100
AcDbLine
 10
1995.086565821751
 20
257.5739467495888
 30
0.0
 11
2005.955001778049
 21
263.1125686832343
 31
0.0
  0
ARC
  5
7F4C
330
1F
100
AcDbEntity
  8
ceco.net 222 Nissan Z350 - sideway 2
100
AcDbCircle
 10
2099.449422343426
 20
385.6393053916784
 30
0.0
 40
228.9344350739508
100
AcDbArc
 50
198.9937186603082
 51
207.3418479094921
  0
ARC
  5
7F4D
330
1F
100
AcDbEntity
  8
ceco.net 222 Nissan Z350 - sideway 2
100
AcDbCircle
 10
2033.081766389743
 20
425.6730551317895
 30
0.0
 40
151.6788487075729
100
AcDbArc
 50
121.214043856276
 51
145.5988131418964
  0
ARC
  5
7F4E
330
1F
100
AcDbEntity
  8
ceco.net 222 Nissan Z350 - sideway 2
100
AcDbCircle
 10
1998.92119056615
 20
319.6770067048442
 30
0.0
 40
110.0438407988003
100
AcDbArc
 50
273.2396945557935
 51
286.841285402297
  0
ARC
  5
7F4F
330
1F
100
AcDbEntity
  8
ceco.net 222 Nissan Z350 - sideway 2
100
AcDbCircle
 10
2004.716272378304
 20
217.2970462355588
 30
0.0
 40
7.5
100
AcDbArc
 50
232.4517207217025
 51
273.2396945560016
  0
ARC
  5
7F50
330
1F
100
AcDbEntity
  8
ceco.net 222 Nissan Z350 - sideway 2
100
AcDbCircle
 10
2043.01456782754
 20
569.509350521252
 30
0.0
 40
7.5
100
AcDbArc
 50
86.04963732418074
 51
176.8805826930736
  0
SPLINE
  5
7F51
330
1F
100
AcDbEntity
  8
ceco.net 222 Nissan Z350 - sideway 2
100
AcDbSpline
210
0.0
220
0.0
230
1.0
 70
     8
 71
     3
 72
    10
 73
     6
 74
     0
 42
0.0000000001
 43
0.0000000001
 40
8.293353392080145
 40
8.293353392080145
 40
8.293353392080145
 40
8.293353392080145
 40
8.633182606885597
 40
8.633182606885597
 40
9.43515296855462
 40
9.43515296855462
 40
9.43515296855462
 40
9.43515296855462
 10
-318.1686444464867
 20
193.1268938251458
 30
0.0
 10
-303.3593619833118
 20
158.9326658241399
 30
0.0
 10
-283.5189484400907
 20
127.3740768675901
 30
0.0
 10
-201.0036990677253
 20
36.40182244677793
 30
0.0
 10
-117.1509927883525
 20
-0.7866632723283331
 30
0.0
 10
-36.51886950301195
 20
-0.4541948746767801
 30
0.0
  0
LWPOLYLINE
  5
7F52
330
1F
100
AcDbEntity
  8
ceco.net 222 Nissan Z350 - sideway 2
100
AcDbPolyline
 90
        2
 70
     0
 43
0.0
 10
-206.5068803386056
 20
765.1842912421865
 42
0.1272601347154405
 10
-338.2117350710541
 20
627.2977976382927
 42
0.1272601347154405
  0
LWPOLYLINE
  5
7F53
330
1F
100
AcDbEntity
  8
ceco.net 222 Nissan Z350 - sideway 2
100
AcDbPolyline
 90
        2
 70
     0
 43
0.0
 10
625.5615693436193
 20
995.1665295539068
 42
0.0015470107266015
 10
594.4184272657803
 20
991.8604787361584
 42
0.0015470107266015
  0
SPLINE
  5
7F54
330
1F
100
AcDbEntity
  8
ceco.net 222 Nissan Z350 - sideway 2
100
AcDbSpline
210
0.0
220
0.0
230
1.0
 70
     8
 71
     3
 72
     8
 73
     4
 74
     0
 42
0.0000000001
 43
0.0000000001
 40
9.657214358127774
 40
9.657214358127774
 40
9.657214358127774
 40
9.657214358127774
 40
10.45638828691881
 40
10.45638828691881
 40
10.45638828691881
 40
10.45638828691881
 10
35.88026470144905
 20
8.790638825325395
 30
0.0
 10
116.9976713897703
 20
30.14608763435779
 30
0.0
 10
189.0719719676635
 20
87.47597701073408
 30
0.0
 10
230.9897762282998
 20
163.6170391014113
 30
0.0
  0
ARC
  5
7F55
330
1F
100
AcDbEntity
  8
ceco.net 222 Nissan Z350 - sideway 2
100
AcDbCircle
 10
-33.61811563924129
 20
264.9414631829368
 30
0.0
 40
265.4115100915405
100
AcDbArc
 50
269.3737865203524
 51
285.1799471566781
  0
LWPOLYLINE
  5
7F56
330
1F
100
AcDbEntity
  8
ceco.net 222 Nissan Z350 - sideway 2
100
AcDbPolyline
 90
        2
 70
     0
 43
0.0
 10
340.5472959024809
 20
170.9937314557246
 42
0.0052641424090852
 10
345.8862546070085
 20
181.5346350974787
  0
LINE
  5
7F57
330
1F
100
AcDbEntity
  8
ceco.net 222 Nissan Z350 - sideway 2
100
AcDbLine
 10
722.6544960999344
 20
198.6962063551738
 30
0.0
 11
725.9981212047132
 21
202.5546831397955
 31
0.0
  0
LWPOLYLINE
  5
7F58
330
1F
100
AcDbEntity
  8
ceco.net 222 Nissan Z350 - sideway 2
100
AcDbPolyline
 90
        2
 70
     0
 43
0.0
 10
1327.939587584878
 20
153.4436014932518
 42
0.0345672438017544
 10
1355.64494911678
 20
197.5014954351204
  0
LWPOLYLINE
  5
7F59
330
1F
100
AcDbEntity
  8
ceco.net 222 Nissan Z350 - sideway 2
100
AcDbPolyline
 90
        2
 70
     0
 43
0.0
 10
2416.847252328538
 20
178.7707780480341
 42
0.0753391606314763
 10
2438.974475570958
 20
266.5690497835067
  0
ARC
  5
7F5A
330
1F
100
AcDbEntity
  8
ceco.net 222 Nissan Z350 - sideway 2
100
AcDbCircle
 10
3736.094468953768
 20
405.8285342362504
 30
0.0
 40
15.0
100
AcDbArc
 50
2.249334744227103
 51
86.20834884826971
  0
ARC
  5
7F5B
330
1F
100
AcDbEntity
  8
ceco.net 222 Nissan Z350 - sideway 2
100
AcDbCircle
 10
3716.250765658871
 20
393.5036463378134
 30
0.0
 40
82.86928718206571
100
AcDbArc
 50
67.69563152014217
 51
81.75916930405726
  0
ARC
  5
7F5C
330
1F
100
AcDbEntity
  8
ceco.net 222 Nissan Z350 - sideway 2
100
AcDbCircle
 10
3717.958274082051
 20
445.1891874696878
 30
0.0
 40
60.36223051267978
100
AcDbArc
 50
66.32337471902558
 51
92.17946249982752
  0
ARC
  5
7F5D
330
1F
100
AcDbEntity
  8
ceco.net 222 Nissan Z350 - sideway 2
100
AcDbCircle
 10
3718.046135657078
 20
445.4135394295173
 30
0.0
 40
70.12345690786088
100
AcDbArc
 50
70.16126898125742
 51
91.74207028864881
  0
LWPOLYLINE
  5
7F5E
330
1F
100
AcDbEntity
  8
ceco.net 222 Nissan Z350 - sideway 2
100
AcDbPolyline
 90
        2
 70
     0
 43
0.0
 10
3086.64748754508
 20
1135.943729007117
 42
0.0001629478622788
 10
3084.229518781583
 20
1136.321291887697
  0
ARC
  5
7F5F
330
1F
100
AcDbEntity
  8
ceco.net 222 Nissan Z350 - sideway 2
100
AcDbCircle
 10
726.5067406462876
 20
1066.205863387851
 30
0.0
 40
74.88517170845179
100
AcDbArc
 50
104.165357691553
 51
124.4140001484331
  0
LWPOLYLINE
  5
7F60
330
1F
100
AcDbEntity
  8
ceco.net 222 Nissan Z350 - sideway 2
100
AcDbPolyline
 90
       67
 70
     0
 43
0.0
 10
-36.51886950301195
 20
-0.4541948746767801
 10
95.79083496755993
 20
-0.4480567174089814
 42
0.050323684995472
 10
113.7716293366829
 20
1.352916549209673
 42
0.2245987664848045
 10
340.5472959049256
 20
170.9937314603573
 42
-0.0683383622878352
 10
696.7149929228508
 20
175.5328549408199
 42
0.2501512306907273
 10
705.5063150647947
 20
178.9075469368635
 10
722.6544960999054
 20
198.6962063552164
 42
0.305624582939676
 10
999.9206451551144
 20
-0.4541948746767801
 10
1047.980300598639
 20
-0.4541948746696747
 42
0.2224170620240479
 10
1327.939587575045
 20
153.4436014798226
 42
0.1938248135694626
 10
1420.394670209319
 20
152.5156444664057
 42
-0.0991051552081842
 10
1556.523262209979
 20
172.9248038624016
 10
1735.621290954852
 20
167.8448319286198
 42
0.0584172227117915
 10
1787.181531291895
 20
94.92595401031513
 42
0.1994952599098547
 10
1972.484080423742
 20
-0.340142451469724
 10
2187.184180037391
 20
-0.4485970787788532
 42
0.0614261936172397
 10
2211.479781283869
 20
2.535021598739653
 42
0.2364199396046502
 10
2416.847252328425
 20
178.7707780478209
 42
-0.0117243521316636
 10
2730.678970797344
 20
170.8708269869641
 42
-0.0831353927315742
 10
2762.948577716786
 20
163.8435614258222
 42
0.1162392014352162
 10
2811.116626702769
 20
158.8410482968507
 10
2842.122064013394
 20
164.9445879655724
 42
0.2789508308486611
 10
3078.360615664409
 20
-0.4541948746767801
 10
3232.671965845966
 20
-0.4541948746767801
 42
0.0893341052999245
 10
3302.450705391791
 20
12.11334394122422
 42
0.2523213385311546
 10
3525.327345110625
 20
266.1871996492815
 10
3550.123657282726
 20
266.1871996492815
 42
0.1477419324887421
 10
3555.66001077399
 20
267.8596075591253
 10
3744.398999190667
 20
393.3371461010333
 42
0.2615643714914309
 10
3751.082911333997
 20
406.4172574432953
 42
0.0133024951357726
 10
3752.706154933509
 20
466.6649088013139
 42
0.2905321808609615
 10
3751.558280507212
 20
468.4749618744783
 42
0.0127135799495029
 10
3747.701872791269
 20
470.172718447821
 42
0.0059019854715927
 10
3747.313693545111
 20
496.7957345528981
 42
0.2704596142761723
 10
3746.251849149263
 20
498.5096571073635
 42
0.0186564618058342
 10
3742.198187555816
 20
500.4705176567521
 10
3741.844204112069
 20
511.3752794498802
 42
-0.0277481005444365
 10
3749.00220415914
 20
508.3342914244264
 42
0.5679637568987428
 10
3751.883653939119
 20
510.2050630850182
 42
0.0526635567892193
 10
3717.887739195263
 20
745.7489676738697
 42
0.1032795909214444
 10
3633.662446523103
 20
908.3380135553946
 42
0.053007903072073
 10
3504.963459970738
 20
1037.822944767854
 42
0.1003378521294455
 10
3469.348749326982
 20
1055.443120395069
 42
0.0260569198156384
 10
3086.64748754508
 20
1135.943729007117
 10
2884.436109121183
 20
1203.103386146339
 42
0.0579788704299821
 10
2155.28624676746
 20
1371.90461814393
 42
0.0310700125597893
 10
1420.222902992649
 20
1415.461832155963
 42
0.1042736985553544
 10
1094.52177860085
 20
1344.954067982976
 42
0.0454053631572113
 10
769.1760724041378
 20
1140.71278576953
 42
0.0269570550793192
 10
767.024203724206
 20
1140.828886222806
 10
732.767204269563
 20
1140.828886222806
 42
0.0829219447524405
 10
708.1807521059199
 20
1138.814038449774
 10
654.0905633208203
 20
1125.16190934754
 42
0.2546122235917641
 10
647.0654424211243
 20
1118.671424610028
 10
631.3718650418559
 20
1072.29578930707
 42
0.2922880669299138
 10
633.9576342522995
 20
1061.839460514407
 42
0.0768250774090871
 10
655.021652280866
 20
1047.233585178056
 42
0.0096840779329577
 10
594.4184272657803
 20
991.8604787361584
 42
0.0423963101260264
 10
15.81882317488271
 20
877.5832063031723
 42
0.1458206303298181
 10
-268.4175248819956
 20
723.9838000798224
 42
0.0884230457481494
 10
-338.2117350860316
 20
627.2977976114058
 42
0.0710011130822324
 10
-376.8629677464741
 20
526.9169240385105
 42
0.096778295522431
 10
-383.3762943309448
 20
232.5805428614922
 42
0.172302145452874
 10
-378.4567156449593
 20
223.8283697931687
 10
-362.8659655789051
 20
210.2241651976948
 42
0.1542614616908086
 10
-335.7947114505877
 20
195.5710736191926
 10
-318.1686444464576
 20
193.1268938251529
  0
ARC
  5
7F61
330
1F
100
AcDbEntity
  8
ceco.net 222 Nissan Z350 - sideway 2
100
AcDbCircle
 10
691.7387661260509
 20
1122.677346731152
 30
0.0
 40
83.90415722675625
100
AcDbArc
 50
244.0486511787852
 51
272.8319075603842
  0
ARC
  5
7F62
330
1F
100
AcDbEntity
  8
ceco.net 222 Nissan Z350 - sideway 2
100
AcDbCircle
 10
-270.8432692449641
 20
-5309.485392592448
 30
0.0
 40
6855.127887425533
100
AcDbArc
 50
67.06422611878274
 51
69.14064564712821
  0
ARC
  5
7F63
330
1F
100
AcDbEntity
  8
ceco.net 222 Nissan Z350 - sideway 2
100
AcDbCircle
 10
2026.688731841332
 20
-3585.49542280999
 30
0.0
 40
4684.030250039218
100
AcDbArc
 50
85.42146843182827
 51
92.09447171507314
  0
ARC
  5
7F64
330
1F
100
AcDbEntity
  8
ceco.net 222 Nissan Z350 - sideway 2
100
AcDbCircle
 10
2465.556045918726
 20
393.0353292970164
 30
0.0
 40
60.0
100
AcDbArc
 50
187.3483782853549
 51
284.1112251754836
  0
ENDSEC
  0
SECTION
  2
OBJECTS
  0
DICTIONARY
  5
C
330
0
100
AcDbDictionary
281
     1
  3
ACAD_GROUP
350
D
  3
ACAD_IMAGE_DICT
350
7CE4
  3
ACAD_LAYOUT
350
1A
  3
ACAD_MLINESTYLE
350
17
  3
ACAD_PLOTSETTINGS
350
19
  3
ACAD_PLOTSTYLENAME
350
E
  3
AcDbVariableDictionary
350
115
  3
DWGPROPS
350
8E3
  0
DICTIONARY
  5
90B
330
2
100
AcDbDictionary
280
     1
281
     1
  3
ACAD_LAYERFILTERS
360
7A67
  3
ACAD_LAYERSTATES
360
90C
  0
DICTIONARY
  5
7A72
330
7A71
100
AcDbDictionary
280
     1
281
     1
  3
ACAD_XREC_ROUNDTRIP
360
7A73
  0
DICTIONARY
  5
D
102
{ACAD_REACTORS
330
C
102
}
330
C
100
AcDbDictionary
281
     1
  0
DICTIONARY
  5
7CE4
102
{ACAD_REACTORS
330
C
102
}
330
C
100
AcDbDictionary
281
     1
  3
3350z_gal_med15
350
7CE5
  3
350z3
350
7CE6
  3
frontal 3
350
7CE7
  3
frontal 4
350
7CE8
  3
latera3
350
7CE9
  3
lateral2
350
7CEA
  3
lateral3
350
7CEB
  3
nissan_350_z_11
350
7CEC
  3
nissan_z350_02
350
7CED
  3
nissan_z350_05
350
7CEE
  3
pho_gallery_MZ3_ext18_popup
350
7CEF
  3
pho_gallery_MZ3_ext19_popup
350
7CF0
  3
rear1
350
7CF1
  3
sideview
350
7CF2
  3
sideview_1
350
7CF3
  3
sideview_2
350
7CF4
  3
skidazzle2
350
7CF5
  3
skidazzle3
350
7CF6
  0
DICTIONARY
  5
1A
102
{ACAD_REACTORS
330
C
102
}
330
C
100
AcDbDictionary
281
     1
  3
Layout1
350
1E
  3
Layout2
350
26
  3
Model
350
22
  0
DICTIONARY
  5
17
102
{ACAD_REACTORS
330
C
102
}
330
C
100
AcDbDictionary
281
     1
  3
Standard
350
18
  0
DICTIONARY
  5
19
102
{ACAD_REACTORS
330
C
102
}
330
C
100
AcDbDictionary
281
     1
  0
ACDBDICTIONARYWDFLT
  5
E
102
{ACAD_REACTORS
330
C
102
}
330
C
100
AcDbDictionary
281
     1
  3
Normal
350
F
100
AcDbDictionaryWithDefault
340
F
  0
DICTIONARY
  5
115
102
{ACAD_REACTORS
330
C
102
}
330
C
100
AcDbDictionary
281
     1
  3
DIMASSOC
350
117
  3
HIDETEXT
350
116
  0
XRECORD
  5
8E3
102
{ACAD_REACTORS
330
C
102
}
330
C
100
AcDbXrecord
280
     1
  1
DWGPROPS COOKIE
  2
Ceco.NET-Trees-and-Plants - T - xx . 67 . dwg
  3

  4
ceco.net
  6

  7

  8
peacosta
  9

300
=
301
=
302
=
303
=
304
=
305
=
306
=
307
=
308
=
309
=
 40
0.0450312037037037
 41
2455079.811409143
 42
2455838.656599502
  1

 90
        0
  0
DICTIONARY
  5
7A67
102
{ACAD_REACTORS
330
90B
102
}
330
90B
100
AcDbDictionary
280
     1
281
     1
  0
DICTIONARY
  5
90C
102
{ACAD_REACTORS
330
90B
102
}
330
90B
100
AcDbDictionary
281
     1
  0
XRECORD
  5
7A73
102
{ACAD_REACTORS
330
7A72
102
}
330
7A72
100
AcDbXrecord
280
     1
102
MATERIAL
340
0
  0
IMAGEDEF
  5
7CE5
102
{ACAD_REACTORS
330
7CE4
102
}
330
7CE4
100
AcDbRasterImageDef
 90
        0
  1
C:\Documents and Settings\Edwin Quiroga Prada\Mis documentos\Fotos Bloques\3350z_gal_med15.jpg
 10
329.0
 20
227.0
 11
0.3527777777777778
 21
0.3527777777777778
280
     1
281
     5
  0
IMAGEDEF
  5
7CE6
102
{ACAD_REACTORS
330
7CE4
102
}
330
7CE4
100
AcDbRasterImageDef
 90
        0
  1
C:\Documents and Settings\Edwin Quiroga Prada\Mis documentos\Fotos Bloques\350z3.jpg
 10
800.0
 20
600.0
 11
0.00125
 21
0.00125
280
     1
281
     0
  0
IMAGEDEF
  5
7CE7
102
{ACAD_REACTORS
330
7CE4
102
}
330
7CE4
100
AcDbRasterImageDef
 90
        0
  1
C:\Documents and Settings\Edwin Quiroga Prada\Mis documentos\Fotos Bloques\frontal 3.jpg
 10
444.0
 20
333.0
 11
0.254
 21
0.254
280
     1
281
     5
  0
IMAGEDEF
  5
7CE8
102
{ACAD_REACTORS
330
7CE4
102
}
330
7CE4
100
AcDbRasterImageDef
 90
        0
  1
C:\Documents and Settings\Edwin Quiroga Prada\Mis documentos\Fotos Bloques\frontal 4.jpg
 10
2272.0
 20
1712.0
 11
0.3527777777777778
 21
0.3527777777777778
280
     1
281
     5
  0
IMAGEDEF
  5
7CE9
102
{ACAD_REACTORS
330
7CE4
102
}
330
7CE4
100
AcDbRasterImageDef
 90
        0
  1
C:\Documents and Settings\Edwin Quiroga Prada\Mis documentos\Fotos Bloques\latera3.4.jpg
 10
1024.0
 20
768.0
 11
0.3527777777777778
 21
0.3527777777777778
280
     1
281
     5
  0
IMAGEDEF
  5
7CEA
102
{ACAD_REACTORS
330
7CE4
102
}
330
7CE4
100
AcDbRasterImageDef
 90
        0
  1
C:\Documents and Settings\Edwin Quiroga Prada\Mis documentos\Fotos Bloques\lateral2.jpg
 10
640.0
 20
480.0
 11
0.3527777777777778
 21
0.3527777777777778
280
     1
281
     5
  0
IMAGEDEF
  5
7CEB
102
{ACAD_REACTORS
330
7CE4
102
}
330
7CE4
100
AcDbRasterImageDef
 90
        0
  1
C:\Documents and Settings\Edwin Quiroga Prada\Mis documentos\Fotos Bloques\lateral3.jpg
 10
3600.0
 20
2400.0
 11
0.0846666666666667
 21
0.0846666666666667
280
     1
281
     5
  0
IMAGEDEF
  5
7CEC
102
{ACAD_REACTORS
330
7CE4
102
}
330
7CE4
100
AcDbRasterImageDef
 90
        0
  1
C:\Documents and Settings\Fernando\Mis documentos\Mis imgenes\nissan_350_z_11.jpg
 10
639.0
 20
480.0
 11
0.0015649452269171
 21
0.0015649452269171
280
     1
281
     0
  0
IMAGEDEF
  5
7CED
102
{ACAD_REACTORS
330
7CE4
102
}
330
7CE4
100
AcDbRasterImageDef
 90
        0
  1
C:\Documents and Settings\Edwin Quiroga Prada\Mis documentos\Fotos Bloques\nissan_z350_02.jpg
 10
800.0
 20
600.0
 11
0.0846666666666667
 21
0.0846666666666667
280
     1
281
     5
  0
IMAGEDEF
  5
7CEE
102
{ACAD_REACTORS
330
7CE4
102
}
330
7CE4
100
AcDbRasterImageDef
 90
        0
  1
C:\Documents and Settings\Edwin Quiroga Prada\Mis documentos\Fotos Bloques\nissan_z350_05.jpg
 10
1024.0
 20
768.0
 11
0.0846666666666667
 21
0.0846666666666667
280
     1
281
     5
  0
IMAGEDEF
  5
7CEF
102
{ACAD_REACTORS
330
7CE4
102
}
330
7CE4
100
AcDbRasterImageDef
 90
        0
  1
C:\Documents and Settings\Edwin Quiroga Prada\Mis documentos\Fotos Bloques\pho_gallery_MZ3_ext18_popup.jpg
 10
675.0
 20
455.0
 11
0.01
 21
0.01
280
     1
281
     0
  0
IMAGEDEF
  5
7CF0
102
{ACAD_REACTORS
330
7CE4
102
}
330
7CE4
100
AcDbRasterImageDef
 90
        0
  1
C:\Documents and Settings\Edwin Quiroga Prada\Mis documentos\Fotos Bloques\pho_gallery_MZ3_ext19_popup.jpg
 10
675.0
 20
455.0
 11
0.01
 21
0.01
280
     1
281
     0
  0
IMAGEDEF
  5
7CF1
102
{ACAD_REACTORS
330
7CE4
102
}
330
7CE4
100
AcDbRasterImageDef
 90
        0
  1
C:\Documents and Settings\Edwin Quiroga Prada\Mis documentos\Fotos Bloques\rear1.jpg
 10
640.0
 20
480.0
 11
0.3527777777777778
 21
0.3527777777777778
280
     1
281
     5
  0
IMAGEDEF
  5
7CF2
102
{ACAD_REACTORS
330
7CE4
102
}
330
7CE4
100
AcDbRasterImageDef
 90
        0
  1
C:\Documents and Settings\Edwin Quiroga\Mis documentos\Mis imgenes\z nissan\sideview.jpg
 10
1239.0
 20
463.0
 11
0.0008071025020178
 21
0.0008071025020178
280
     1
281
     0
  0
IMAGEDEF
  5
7CF3
102
{ACAD_REACTORS
330
7CE4
102
}
330
7CE4
100
AcDbRasterImageDef
 90
        0
  1
C:\Documents and Settings\Edwin Quiroga Prada\Mis documentos\Download\Fotos Bloques\sideview.jpg
 10
1239.0
 20
463.0
 11
0.3527777777777778
 21
0.3527777777777778
280
     1
281
     5
  0
IMAGEDEF
  5
7CF4
102
{ACAD_REACTORS
330
7CE4
102
}
330
7CE4
100
AcDbRasterImageDef
 90
        0
  1
C:\Documents and Settings\Edwin Quiroga Prada\Mis documentos\Fotos Bloques\sideview.jpg
 10
1239.0
 20
463.0
 11
0.0008071025020178
 21
0.0008071025020178
280
     1
281
     0
  0
IMAGEDEF
  5
7CF5
102
{ACAD_REACTORS
330
7CE4
102
}
330
7CE4
100
AcDbRasterImageDef
 90
        0
  1
C:\Documents and Settings\Edwin Quiroga\Mis documentos\Mis imgenes\z nissan\skidazzle2.jpg
 10
1024.0
 20
768.0
 11
0.0009765625
 21
0.0009765625
280
     1
281
     0
  0
IMAGEDEF
  5
7CF6
102
{ACAD_REACTORS
330
7CE4
102
}
330
7CE4
100
AcDbRasterImageDef
 90
        0
  1
C:\Documents and Settings\Edwin Quiroga Prada\Mis documentos\Fotos Bloques\skidazzle3.jpg
 10
1024.0
 20
768.0
 11
0.0009765625
 21
0.0009765625
280
     1
281
     0
  0
LAYOUT
  5
1E
102
{ACAD_REACTORS
330
1A
102
}
330
1A
100
AcDbPlotSettings
  1

  2
Microsoft Office Document Image Writer
  4

  6

 40
0.0
 41
0.0
 42
0.0
 43
0.0
 44
0.0
 45
0.0
 46
0.0
 47
0.0
 48
0.0
 49
0.0
140
0.0
141
0.0
142
1.0
143
1.0
 70
   688
 72
     0
 73
     0
 74
     5
  7

 75
    16
147
1.0
148
0.0
149
0.0
100
AcDbLayout
  1
Layout1
 70
     1
 71
     1
 10
0.0
 20
0.0
 11
420.0
 21
297.0
 12
0.0
 22
0.0
 32
0.0
 14
1.000000000000000E+20
 24
1.000000000000000E+20
 34
1.000000000000000E+20
 15
-1.000000000000000E+20
 25
-1.000000000000000E+20
 35
-1.000000000000000E+20
146
0.0
 13
0.0
 23
0.0
 33
0.0
 16
1.0
 26
0.0
 36
0.0
 17
0.0
 27
1.0
 37
0.0
 76
     0
330
1B
  0
LAYOUT
  5
26
102
{ACAD_REACTORS
330
1A
102
}
330
1A
100
AcDbPlotSettings
  1

  2
Microsoft Office Document Image Writer
  4

  6

 40
0.0
 41
0.0
 42
0.0
 43
0.0
 44
0.0
 45
0.0
 46
0.0
 47
0.0
 48
0.0
 49
0.0
140
0.0
141
0.0
142
1.0
143
1.0
 70
   688
 72
     0
 73
     0
 74
     5
  7

 75
    16
147
1.0
148
0.0
149
0.0
100
AcDbLayout
  1
Layout2
 70
     1
 71
     2
 10
0.0
 20
0.0
 11
12.0
 21
9.0
 12
0.0
 22
0.0
 32
0.0
 14
0.0
 24
0.0
 34
0.0
 15
0.0
 25
0.0
 35
0.0
146
0.0
 13
0.0
 23
0.0
 33
0.0
 16
1.0
 26
0.0
 36
0.0
 17
0.0
 27
1.0
 37
0.0
 76
     0
330
23
  0
LAYOUT
  5
22
102
{ACAD_REACTORS
330
1A
102
}
330
1A
100
AcDbPlotSettings
  1

  2
Microsoft Office Document Image Writer
  4

  6

 40
0.0
 41
0.0
 42
0.0
 43
0.0
 44
0.0
 45
0.0
 46
0.0
 47
0.0
 48
0.0
 49
0.0
140
0.0
141
0.0
142
1.0
143
1.0
 70
  1712
 72
     0
 73
     0
 74
     0
  7

 75
     0
147
1.0
148
0.0
149
0.0
100
AcDbLayout
  1
Model
 70
     1
 71
     0
 10
0.0
 20
0.0
 11
12.0
 21
9.0
 12
0.0
 22
0.0
 32
0.0
 14
0.0
 24
0.0
 34
0.0
 15
0.0
 25
0.0
 35
0.0
146
0.0
 13
0.0
 23
0.0
 33
0.0
 16
1.0
 26
0.0
 36
0.0
 17
0.0
 27
1.0
 37
0.0
 76
     0
330
1F
  0
MLINESTYLE
  5
18
102
{ACAD_REACTORS
330
17
102
}
330
17
100
AcDbMlineStyle
  2
STANDARD
 70
     0
  3

 62
   256
 51
90.0
 52
90.0
 71
     2
 49
0.5
 62
   256
  6
BYLAYER
 49
-0.5
 62
   256
  6
BYLAYER
  0
ACDBPLACEHOLDER
  5
F
102
{ACAD_REACTORS
330
E
102
}
330
E
  0
DICTIONARYVAR
  5
117
102
{ACAD_REACTORS
330
115
102
}
330
115
100
DictionaryVariables
280
     0
  1
2
  0
DICTIONARYVAR
  5
116
102
{ACAD_REACTORS
330
115
102
}
330
115
100
DictionaryVariables
280
     0
  1
1
  0
ENDSEC
  0
EOF
