  0
SECTION
  2
HEADER
  9
$ACADVER
  1
AC1015
  9
$ACADMAINTVER
 70
    13
  9
$DWGCODEPAGE
  3
ANSI_1252
  9
$INSBASE
 10
0.0
 20
0.0
 30
0.0
  9
$EXTMIN
 10
-10.10699118758987
 20
-10.33265246043936
 30
-0.0000000349181948
  9
$EXTMAX
 10
10.33585493853206
 20
10.37096440159336
 30
0.0000000814935746
  9
$LIMMIN
 10
0.0
 20
0.0
  9
$LIMMAX
 10
420.0
 20
297.0
  9
$ORTHOMODE
 70
     0
  9
$REGENMODE
 70
     1
  9
$FILLMODE
 70
     1
  9
$QTEXTMODE
 70
     0
  9
$MIRRTEXT
 70
     1
  9
$LTSCALE
 40
1.0
  9
$ATTMODE
 70
     1
  9
$TEXTSIZE
 40
2.5
  9
$TRACEWID
 40
1.0
  9
$TEXTSTYLE
  7
Standard
  9
$CLAYER
  8
Ceco.net 43
  9
$CELTYPE
  6
ByLayer
  9
$CECOLOR
 62
   256
  9
$CELTSCALE
 40
1.0
  9
$DISPSILH
 70
     0
  9
$DIMSCALE
 40
1.0
  9
$DIMASZ
 40
2.5
  9
$DIMEXO
 40
0.625
  9
$DIMDLI
 40
3.75
  9
$DIMRND
 40
0.0
  9
$DIMDLE
 40
0.0
  9
$DIMEXE
 40
1.25
  9
$DIMTP
 40
0.0
  9
$DIMTM
 40
0.0
  9
$DIMTXT
 40
2.5
  9
$DIMCEN
 40
2.5
  9
$DIMTSZ
 40
0.0
  9
$DIMTOL
 70
     0
  9
$DIMLIM
 70
     0
  9
$DIMTIH
 70
     0
  9
$DIMTOH
 70
     0
  9
$DIMSE1
 70
     0
  9
$DIMSE2
 70
     0
  9
$DIMTAD
 70
     1
  9
$DIMZIN
 70
     8
  9
$DIMBLK
  1

  9
$DIMASO
 70
     1
  9
$DIMSHO
 70
     1
  9
$DIMPOST
  1

  9
$DIMAPOST
  1

  9
$DIMALT
 70
     0
  9
$DIMALTD
 70
     3
  9
$DIMALTF
 40
0.03937007874016
  9
$DIMLFAC
 40
1.0
  9
$DIMTOFL
 70
     1
  9
$DIMTVP
 40
0.0
  9
$DIMTIX
 70
     0
  9
$DIMSOXD
 70
     0
  9
$DIMSAH
 70
     0
  9
$DIMBLK1
  1

  9
$DIMBLK2
  1

  9
$DIMSTYLE
  2
ISO-25
  9
$DIMCLRD
 70
     0
  9
$DIMCLRE
 70
     0
  9
$DIMCLRT
 70
     0
  9
$DIMTFAC
 40
1.0
  9
$DIMGAP
 40
0.625
  9
$DIMJUST
 70
     0
  9
$DIMSD1
 70
     0
  9
$DIMSD2
 70
     0
  9
$DIMTOLJ
 70
     0
  9
$DIMTZIN
 70
     8
  9
$DIMALTZ
 70
     0
  9
$DIMALTTZ
 70
     0
  9
$DIMUPT
 70
     0
  9
$DIMDEC
 70
     2
  9
$DIMTDEC
 70
     2
  9
$DIMALTU
 70
     2
  9
$DIMALTTD
 70
     3
  9
$DIMTXSTY
  7
Standard
  9
$DIMAUNIT
 70
     0
  9
$DIMADEC
 70
     0
  9
$DIMALTRND
 40
0.0
  9
$DIMAZIN
 70
     0
  9
$DIMDSEP
 70
    44
  9
$DIMATFIT
 70
     3
  9
$DIMFRAC
 70
     0
  9
$DIMLDRBLK
  1

  9
$DIMLUNIT
 70
     2
  9
$DIMLWD
 70
    -2
  9
$DIMLWE
 70
    -2
  9
$DIMTMOVE
 70
     0
  9
$LUNITS
 70
     2
  9
$LUPREC
 70
     2
  9
$SKETCHINC
 40
1.0
  9
$FILLETRAD
 40
10.0
  9
$AUNITS
 70
     0
  9
$AUPREC
 70
     0
  9
$MENU
  1
.
  9
$ELEVATION
 40
0.0
  9
$PELEVATION
 40
0.0
  9
$THICKNESS
 40
0.0
  9
$LIMCHECK
 70
     0
  9
$CHAMFERA
 40
10.0
  9
$CHAMFERB
 40
10.0
  9
$CHAMFERC
 40
20.0
  9
$CHAMFERD
 40
0.0
  9
$SKPOLY
 70
     0
  9
$TDCREATE
 40
2455088.552681204
  9
$TDUCREATE
 40
2455088.677681203
  9
$TDUPDATE
 40
2455088.559691111
  9
$TDUUPDATE
 40
2455088.684691111
  9
$TDINDWG
 40
0.0070115394
  9
$TDUSRTIMER
 40
0.0070106366
  9
$USRTIMER
 70
     1
  9
$ANGBASE
 50
0.0
  9
$ANGDIR
 70
     0
  9
$PDMODE
 70
     0
  9
$PDSIZE
 40
0.0
  9
$PLINEWID
 40
0.0
  9
$SPLFRAME
 70
     0
  9
$SPLINETYPE
 70
     6
  9
$SPLINESEGS
 70
     8
  9
$HANDSEED
  5
EF
  9
$SURFTAB1
 70
     6
  9
$SURFTAB2
 70
     6
  9
$SURFTYPE
 70
     6
  9
$SURFU
 70
     6
  9
$SURFV
 70
     6
  9
$UCSBASE
  2

  9
$UCSNAME
  2

  9
$UCSORG
 10
0.0
 20
0.0
 30
0.0
  9
$UCSXDIR
 10
1.0
 20
0.0
 30
0.0
  9
$UCSYDIR
 10
0.0
 20
1.0
 30
0.0
  9
$UCSORTHOREF
  2

  9
$UCSORTHOVIEW
 70
     0
  9
$UCSORGTOP
 10
0.0
 20
0.0
 30
0.0
  9
$UCSORGBOTTOM
 10
0.0
 20
0.0
 30
0.0
  9
$UCSORGLEFT
 10
0.0
 20
0.0
 30
0.0
  9
$UCSORGRIGHT
 10
0.0
 20
0.0
 30
0.0
  9
$UCSORGFRONT
 10
0.0
 20
0.0
 30
0.0
  9
$UCSORGBACK
 10
0.0
 20
0.0
 30
0.0
  9
$PUCSBASE
  2

  9
$PUCSNAME
  2

  9
$PUCSORG
 10
0.0
 20
0.0
 30
0.0
  9
$PUCSXDIR
 10
1.0
 20
0.0
 30
0.0
  9
$PUCSYDIR
 10
0.0
 20
1.0
 30
0.0
  9
$PUCSORTHOREF
  2

  9
$PUCSORTHOVIEW
 70
     0
  9
$PUCSORGTOP
 10
0.0
 20
0.0
 30
0.0
  9
$PUCSORGBOTTOM
 10
0.0
 20
0.0
 30
0.0
  9
$PUCSORGLEFT
 10
0.0
 20
0.0
 30
0.0
  9
$PUCSORGRIGHT
 10
0.0
 20
0.0
 30
0.0
  9
$PUCSORGFRONT
 10
0.0
 20
0.0
 30
0.0
  9
$PUCSORGBACK
 10
0.0
 20
0.0
 30
0.0
  9
$USERI1
 70
     0
  9
$USERI2
 70
     0
  9
$USERI3
 70
     0
  9
$USERI4
 70
     0
  9
$USERI5
 70
     0
  9
$USERR1
 40
0.0
  9
$USERR2
 40
0.0
  9
$USERR3
 40
0.0
  9
$USERR4
 40
0.0
  9
$USERR5
 40
0.0
  9
$WORLDVIEW
 70
     1
  9
$SHADEDGE
 70
     3
  9
$SHADEDIF
 70
    70
  9
$TILEMODE
 70
     1
  9
$MAXACTVP
 70
    64
  9
$PINSBASE
 10
0.0
 20
0.0
 30
0.0
  9
$PLIMCHECK
 70
     0
  9
$PEXTMIN
 10
1.000000000000000E+20
 20
1.000000000000000E+20
 30
1.000000000000000E+20
  9
$PEXTMAX
 10
-1.000000000000000E+20
 20
-1.000000000000000E+20
 30
-1.000000000000000E+20
  9
$PLIMMIN
 10
0.0
 20
0.0
  9
$PLIMMAX
 10
420.0
 20
297.0
  9
$UNITMODE
 70
     0
  9
$VISRETAIN
 70
     1
  9
$PLINEGEN
 70
     0
  9
$PSLTSCALE
 70
     1
  9
$TREEDEPTH
 70
  3020
  9
$CMLSTYLE
  2
Standard
  9
$CMLJUST
 70
     0
  9
$CMLSCALE
 40
20.0
  9
$PROXYGRAPHICS
 70
     1
  9
$MEASUREMENT
 70
     1
  9
$CELWEIGHT
370
    -1
  9
$ENDCAPS
280
     0
  9
$JOINSTYLE
280
     0
  9
$LWDISPLAY
290
     0
  9
$INSUNITS
 70
     4
  9
$HYPERLINKBASE
  1

  9
$STYLESHEET
  1

  9
$XEDIT
290
     1
  9
$CEPSNTYPE
380
     0
  9
$PSTYLEMODE
290
     1
  9
$FINGERPRINTGUID
  2
{711F8B3C-CB6E-4089-93F3-5BAD88A8D743}
  9
$VERSIONGUID
  2
{B6CE93BA-0760-4DA3-9081-22E258FFA386}
  9
$EXTNAMES
290
     1
  9
$PSVPSCALE
 40
0.0
  9
$OLESTARTUP
290
     0
  0
ENDSEC
  0
SECTION
  2
CLASSES
  0
CLASS
  1
ACDBDICTIONARYWDFLT
  2
AcDbDictionaryWithDefault
  3
AutoCAD 2000
 90
        0
280
     0
281
     0
  0
CLASS
  1
ACDBPLACEHOLDER
  2
AcDbPlaceHolder
  3
AutoCAD 2000
 90
        0
280
     0
281
     0
  0
CLASS
  1
LAYOUT
  2
AcDbLayout
  3
AutoCAD 2000
 90
        0
280
     0
281
     0
  0
CLASS
  1
DICTIONARYVAR
  2
AcDbDictionaryVar
  3
AutoCAD 2000
 90
        0
280
     0
281
     0
  0
ENDSEC
  0
SECTION
  2
TABLES
  0
TABLE
  2
VPORT
  5
8
330
0
100
AcDbSymbolTable
 70
     5
  0
VPORT
  5
EE
330
8
100
AcDbSymbolTableRecord
100
AcDbViewportTableRecord
  2
*Active
 70
     0
 10
0.0
 20
0.0
 11
1.0
 21
1.0
 12
0.1144318754710962
 22
0.0191559705770033
 13
0.0
 23
0.0
 14
10.0
 24
10.0
 15
10.0
 25
10.0
 16
0.0
 26
0.0
 36
1.0
 17
0.0
 27
0.0
 37
0.0
 40
20.92116800243938
 41
2.112280701754385
 42
50.0
 43
0.0
 44
0.0
 50
0.0
 51
0.0
 71
     0
 72
   100
 73
     1
 74
     3
 75
     0
 76
     0
 77
     0
 78
     0
281
     0
 65
     1
110
0.0
120
0.0
130
0.0
111
1.0
121
0.0
131
0.0
112
0.0
122
1.0
132
0.0
 79
     0
146
0.0
  0
ENDTAB
  0
TABLE
  2
LTYPE
  5
5
330
0
100
AcDbSymbolTable
 70
     2
  0
LTYPE
  5
14
330
5
100
AcDbSymbolTableRecord
100
AcDbLinetypeTableRecord
  2
ByBlock
 70
     0
  3

 72
    65
 73
     0
 40
0.0
  0
LTYPE
  5
15
330
5
100
AcDbSymbolTableRecord
100
AcDbLinetypeTableRecord
  2
ByLayer
 70
     0
  3

 72
    65
 73
     0
 40
0.0
  0
LTYPE
  5
16
330
5
100
AcDbSymbolTableRecord
100
AcDbLinetypeTableRecord
  2
Continuous
 70
     0
  3
Solid line
 72
    65
 73
     0
 40
0.0
  0
LTYPE
  5
2B
330
5
100
AcDbSymbolTableRecord
100
AcDbLinetypeTableRecord
  2
PTS_EXT
 70
     0
  3
.                                             .
 72
    65
 73
     2
 40
999999.0
 49
0.0
 74
     0
 49
-999999.0
 74
     0
  0
ENDTAB
  0
TABLE
  2
LAYER
  5
2
330
0
100
AcDbSymbolTable
 70
     2
  0
LAYER
  5
10
330
2
100
AcDbSymbolTableRecord
100
AcDbLayerTableRecord
  2
0
 70
     0
 62
     7
  6
Continuous
370
    -3
390
F
  0
LAYER
  5
E8
330
2
100
AcDbSymbolTableRecord
100
AcDbLayerTableRecord
  2
Ceco.net 43
 70
     0
 62
     7
  6
Continuous
370
    -3
390
F
  0
ENDTAB
  0
TABLE
  2
STYLE
  5
3
330
0
100
AcDbSymbolTable
 70
     1
  0
STYLE
  5
11
330
3
100
AcDbSymbolTableRecord
100
AcDbTextStyleTableRecord
  2
Standard
 70
     0
 40
0.0
 41
1.0
 50
0.0
 71
     0
 42
2.5
  3
txt
  4

  0
ENDTAB
  0
TABLE
  2
VIEW
  5
6
330
0
100
AcDbSymbolTable
 70
     0
  0
ENDTAB
  0
TABLE
  2
UCS
  5
7
330
0
100
AcDbSymbolTable
 70
     0
  0
ENDTAB
  0
TABLE
  2
APPID
  5
9
330
0
100
AcDbSymbolTable
 70
     2
  0
APPID
  5
12
330
9
100
AcDbSymbolTableRecord
100
AcDbRegAppTableRecord
  2
ACAD
 70
     0
  0
APPID
  5
2D
330
9
100
AcDbSymbolTableRecord
100
AcDbRegAppTableRecord
  2
ACAD_EXEMPT_FROM_CAD_STANDARDS
 70
     0
  0
ENDTAB
  0
TABLE
  2
DIMSTYLE
  5
A
330
0
100
AcDbSymbolTable
 70
     2
100
AcDbDimStyleTable
 71
     0
  0
DIMSTYLE
105
27
330
A
100
AcDbSymbolTableRecord
100
AcDbDimStyleTableRecord
  2
ISO-25
 70
     0
 41
2.5
 42
0.625
 43
3.75
 44
1.25
 73
     0
 74
     0
 77
     1
 78
     8
140
2.5
141
2.5
143
0.03937007874016
147
0.625
171
     3
172
     1
271
     2
272
     2
274
     3
278
    44
283
     0
284
     8
340
11
  0
DIMSTYLE
105
2C
330
A
100
AcDbSymbolTableRecord
100
AcDbDimStyleTableRecord
  2
STANDARD
 70
     0
340
11
  0
ENDTAB
  0
TABLE
  2
BLOCK_RECORD
  5
1
330
0
100
AcDbSymbolTable
 70
     2
  0
BLOCK_RECORD
  5
1F
330
1
100
AcDbSymbolTableRecord
100
AcDbBlockTableRecord
  2
*Model_Space
340
22
  0
BLOCK_RECORD
  5
1B
330
1
100
AcDbSymbolTableRecord
100
AcDbBlockTableRecord
  2
*Paper_Space
340
1E
  0
BLOCK_RECORD
  5
23
330
1
100
AcDbSymbolTableRecord
100
AcDbBlockTableRecord
  2
*Paper_Space0
340
26
  0
ENDTAB
  0
ENDSEC
  0
SECTION
  2
BLOCKS
  0
BLOCK
  5
20
330
1F
100
AcDbEntity
  8
0
100
AcDbBlockBegin
  2
*Model_Space
 70
     0
 10
0.0
 20
0.0
 30
0.0
  3
*Model_Space
  1

  0
ENDBLK
  5
21
330
1F
100
AcDbEntity
  8
0
100
AcDbBlockEnd
  0
BLOCK
  5
1C
330
1B
100
AcDbEntity
 67
     1
  8
0
100
AcDbBlockBegin
  2
*Paper_Space
 70
     0
 10
0.0
 20
0.0
 30
0.0
  3
*Paper_Space
  1

  0
ENDBLK
  5
1D
330
1B
100
AcDbEntity
 67
     1
  8
0
100
AcDbBlockEnd
  0
BLOCK
  5
24
330
23
100
AcDbEntity
  8
0
100
AcDbBlockBegin
  2
*Paper_Space0
 70
     0
 10
0.0
 20
0.0
 30
0.0
  3
*Paper_Space0
  1

  0
ENDBLK
  5
25
330
23
100
AcDbEntity
  8
0
100
AcDbBlockEnd
  0
ENDSEC
  0
SECTION
  2
ENTITIES
  0
LWPOLYLINE
  5
8D
330
1F
100
AcDbEntity
  8
Ceco.net 43
  6
PTS_EXT
100
AcDbPolyline
 90
       49
 70
     1
 43
0.0
 10
-6.999876789391531
 20
0.0000342550640188
 42
-0.4999994289048816
 10
-4.999909350194928
 20
0.0000325097631818
 42
0.276215593979698
 10
-6.761361911920984
 20
-1.811775160227666
 42
-0.4999220572797209
 10
-4.82956793246794
 20
-1.294000454995585
 42
0.2763605993554065
 10
-6.062074810550027
 20
-3.500030845380664
 42
-0.4998853525610315
 10
-4.330042560990309
 20
-2.49984366786061
 42
0.2763233477709956
 10
-4.949681622152836
 20
-4.949667122044755
 42
-0.4999583023371367
 10
-3.535492745430301
 20
-3.535401232506446
 42
0.2763146897199802
 10
-3.499951820128492
 20
-6.062217015682302
 42
-0.4999033313828716
 10
-2.4999642834519
 20
-4.329987736955792
 42
0.2762855543328114
 10
-1.811694789876
 20
-6.761562658498378
 42
-0.4999978637128797
 10
-1.294096115882861
 20
-4.829775536740322
 42
0.2763807844406451
 10
0.0000010369752182
 20
-6.999982665509195
 42
-0.4999452833482144
 10
-0.0000195319950923
 20
-4.999843243351731
 42
0.2762400006532229
 10
1.811704576149011
 20
-6.76157366415675
 42
-0.4999988834898581
 10
1.294075252088481
 20
-4.829754727275313
 42
0.2762440399957344
 10
3.49992496926282
 20
-6.062251270746321
 42
-0.5000070530218562
 10
2.499949543978462
 20
-4.330113145068775
 42
0.2763098108632804
 10
4.949667122044764
 20
-4.949787498270751
 42
-0.4999988834898581
 10
3.535477509223857
 20
-3.535597885449844
 42
0.276241980894305
 10
6.062075847524994
 20
-3.499951820128539
 42
-0.4999988834898581
 10
4.330054372047332
 20
-2.499968755019297
 42
0.2763459928925898
 10
6.76136403772718
 20
-1.811757321721214
 42
-0.5000791358551182
 10
4.829531969381251
 20
-1.29427721805122
 42
0.2763287871874041
 10
6.999876789391343
 20
-0.0000342550640658
 42
-0.4999988834898581
 10
4.999910659172861
 20
-0.0000342550640664
 42
0.2764094150343388
 10
6.761361911920795
 20
1.811775160227618
 42
-0.4999988834898592
 10
4.829542975039357
 20
1.294145836167087
 42
0.2763854534475949
 10
6.062074810549839
 20
3.500030845380868
 42
-0.4999988834898581
 10
4.330053335072177
 20
2.500047780271626
 42
0.2763754631500053
 10
4.949646268408409
 20
4.949667553985276
 42
-0.4999989925728436
 10
3.535456717292551
 20
3.535477509224053
 42
0.276349540156078
 10
3.499951820128586
 20
6.061864095289455
 42
-0.4999988834898547
 10
2.499968755019345
 20
4.329842619811793
 42
0.2763332744691517
 10
1.811712653247371
 20
6.761302289506961
 42
-0.4999787293278973
 10
1.294065465815532
 20
4.829390801224092
 42
0.2762678225598829
 10
-0.0000027822759611
 20
6.999983974487268
 42
-0.4999994289048806
 10
-0.0000010369751241
 20
5.000016535290665
 42
0.2763189890880466
 10
-1.811706600768789
 20
6.761221556422336
 42
-0.4999994289048805
 10
-1.294075252088636
 20
4.829401806882222
 42
0.2764914458950652
 10
-3.49996242726612
 20
6.061898611311407
 42
-0.4999994289048784
 10
-2.499977196192956
 20
4.329876874875859
 42
0.2765447168213681
 10
-4.949669281746283
 20
4.949434269351159
 42
-0.4999666705886347
 10
-3.535475532452934
 20
3.535424314407578
 42
0.2763107273093428
 10
-6.062075847525182
 20
3.499951820128531
 42
-0.4999928223790851
 10
-4.330062467539017
 20
2.500000693446073
 42
0.276399632395112
 10
-6.761386198302036
 20
1.811553621718942
 42
-0.4999994289048817
 10
-4.829566448761922
 20
1.293922273038791
 42
0.2762399422921808
 10
-6.999876789391531
 20
0.0000342550640188
  0
ARC
  5
8E
330
1F
100
AcDbEntity
  8
Ceco.net 43
  6
Continuous
100
AcDbCircle
 10
0.0
 20
0.0
 30
0.0
 40
4.999929082921414
100
AcDbArc
 50
90.0
 51
270.0
  0
ARC
  5
8F
330
1F
100
AcDbEntity
  8
Ceco.net 43
  6
Continuous
100
AcDbCircle
 10
-0.7499911270401262
 20
5.999999600399906
 30
0.0
 40
1.249980506128389
100
AcDbArc
 50
306.87
 51
53.13009999999999
  0
ARC
  5
90
330
1F
100
AcDbEntity
  8
Ceco.net 43
  6
Continuous
100
AcDbCircle
 10
-1.166543066829101
 20
4.833244781335054
 30
0.0
 40
2.460606859239861
100
AcDbArc
 50
359.911
 51
61.70029999999999
  0
ARC
  5
91
330
1F
100
AcDbEntity
  8
Ceco.net 43
  6
Continuous
100
AcDbCircle
 10
-2.277324711573553
 20
5.601199556375964
 30
0.0
 40
1.249980506128389
100
AcDbArc
 50
321.87
 51
68.1301
  0
ARC
  5
92
330
1F
100
AcDbEntity
  8
Ceco.net 43
  6
Continuous
100
AcDbCircle
 10
-2.377765855404702
 20
4.366684021866381
 30
0.0
 40
2.460606859239861
100
AcDbArc
 50
14.91109999999999
 51
76.7003
  0
ARC
  5
93
330
1F
100
AcDbEntity
  8
Ceco.net 43
  6
Continuous
100
AcDbCircle
 10
-3.649479199330448
 20
4.820892567582189
 30
0.0
 40
1.249980506128389
100
AcDbArc
 50
336.87
 51
83.1301
  0
ARC
  5
94
330
1F
100
AcDbEntity
  8
Ceco.net 43
  6
Continuous
100
AcDbCircle
 10
-3.426927599541389
 20
3.602611371147792
 30
0.0
 40
2.460606859239861
100
AcDbArc
 50
29.91109999999999
 51
91.70030000000002
  0
ARC
  5
95
330
1F
100
AcDbEntity
  8
Ceco.net 43
  6
Continuous
100
AcDbCircle
 10
-4.77289539414214
 20
3.712016692959785
 30
0.0
 40
1.249980506128389
100
AcDbArc
 50
351.8699999999999
 51
98.13009999999998
  0
ARC
  5
96
330
1F
100
AcDbEntity
  8
Ceco.net 43
  6
Continuous
100
AcDbCircle
 10
-4.242561919668752
 20
2.592906126941883
 30
0.0
 40
2.460606859239861
100
AcDbArc
 50
44.91109999999999
 51
106.7
  0
ARC
  5
97
330
1F
100
AcDbEntity
  8
Ceco.net 43
  6
Continuous
100
AcDbCircle
 10
-5.571060154818852
 20
2.350449816991039
 30
0.0
 40
1.249980506128389
100
AcDbArc
 50
6.86993
 51
113.1299999999999
  0
ARC
  5
98
330
1F
100
AcDbEntity
  8
Ceco.net 43
  6
Continuous
100
AcDbCircle
 10
-4.769083853898247
 20
1.406387765872272
 30
0.0
 40
2.460606859239861
100
AcDbArc
 50
59.91109999999999
 51
121.7
  0
ARC
  5
99
330
1F
100
AcDbEntity
  8
Ceco.net 43
  6
Continuous
100
AcDbCircle
 10
-5.989588448808294
 20
0.828304162234027
 30
0.0
 40
1.249980506128389
100
AcDbArc
 50
21.8699
 51
128.1299999999999
  0
ARC
  5
9A
330
1F
100
AcDbEntity
  8
Ceco.net 43
  6
Continuous
100
AcDbCircle
 10
-4.970601398267877
 20
0.1242279783154816
 30
0.0
 40
2.460606859239861
100
AcDbArc
 50
74.9111
 51
136.6999999999999
  0
ARC
  5
9B
330
1F
100
AcDbEntity
  8
Ceco.net 43
  6
Continuous
100
AcDbCircle
 10
-5.99989372428229
 20
-0.7499558350009833
 30
0.0
 40
1.249980506128389
100
AcDbArc
 50
36.8699
 51
143.13
  0
ARC
  5
9C
330
1F
100
AcDbEntity
  8
Ceco.net 43
  6
Continuous
100
AcDbCircle
 10
-4.833385949492316
 20
-1.166754819064899
 30
0.0
 40
2.460606859239861
100
AcDbArc
 50
89.9111
 51
151.6999999999999
  0
ARC
  5
9D
330
1F
100
AcDbEntity
  8
Ceco.net 43
  6
Continuous
100
AcDbCircle
 10
-5.601340724533288
 20
-2.27739529565205
 30
0.0
 40
1.249980506128389
100
AcDbArc
 50
51.86990000000001
 51
158.1299999999999
  0
ARC
  5
9E
330
1F
100
AcDbEntity
  8
Ceco.net 43
  6
Continuous
100
AcDbCircle
 10
-4.366754605945012
 20
-2.377977607640453
 30
0.0
 40
2.460606859239861
100
AcDbArc
 50
104.9109999999999
 51
166.6999999999999
  0
ARC
  5
9F
330
1F
100
AcDbEntity
  8
Ceco.net 43
  6
Continuous
100
AcDbCircle
 10
-4.821069027778695
 20
-3.649549783408914
 30
0.0
 40
1.249980506128389
100
AcDbArc
 50
66.8699
 51
173.13
  0
ARC
  5
A0
330
1F
100
AcDbEntity
  8
Ceco.net 43
  6
Continuous
100
AcDbCircle
 10
-3.602576079108556
 20
-3.426857015462782
 30
0.0
 40
2.460606859239861
100
AcDbArc
 50
119.911
 51
181.6999999999999
  0
ARC
  5
A1
330
1F
100
AcDbEntity
  8
Ceco.net 43
  6
Continuous
100
AcDbCircle
 10
-3.71226373723471
 20
-4.772895394141975
 30
0.0
 40
1.249980506128389
100
AcDbArc
 50
81.86989999999999
 51
188.1299999999999
  0
ARC
  5
A2
330
1F
100
AcDbEntity
  8
Ceco.net 43
  6
Continuous
100
AcDbCircle
 10
-2.592835542863425
 20
-4.2424560435509
 30
0.0
 40
2.460606859239861
100
AcDbArc
 50
134.911
 51
196.6999999999999
  0
ARC
  5
A3
330
1F
100
AcDbEntity
  8
Ceco.net 43
  6
Continuous
100
AcDbCircle
 10
-2.350449816990999
 20
-5.571201322975972
 30
0.0
 40
1.249980506128389
100
AcDbArc
 50
96.86989999999996
 51
203.1299999999999
  0
ARC
  5
A4
330
1F
100
AcDbEntity
  8
Ceco.net 43
  6
Continuous
100
AcDbCircle
 10
-1.406458349950926
 20
-4.769013269819648
 30
0.0
 40
2.460606859239861
100
AcDbArc
 50
149.9109999999999
 51
211.6999999999999
  0
ARC
  5
A5
330
1F
100
AcDbEntity
  8
Ceco.net 43
  6
Continuous
100
AcDbCircle
 10
-0.8284453303910845
 20
-5.989764909004636
 30
0.0
 40
1.249980506128389
100
AcDbArc
 50
111.87
 51
218.1299999999999
  0
ARC
  5
A6
330
1F
100
AcDbEntity
  8
Ceco.net 43
  6
Continuous
100
AcDbCircle
 10
-0.1241926862762604
 20
-4.970530814189293
 30
0.0
 40
2.460606859239861
100
AcDbArc
 50
164.9109999999999
 51
226.6999999999999
  0
ARC
  5
A7
330
1F
100
AcDbEntity
  8
Ceco.net 43
  6
Continuous
100
AcDbCircle
 10
0.7499911270402203
 20
-5.999999600399954
 30
0.0
 40
1.249980506128389
100
AcDbArc
 50
126.8699999999999
 51
233.13
  0
ARC
  5
A8
330
1F
100
AcDbEntity
  8
Ceco.net 43
  6
Continuous
100
AcDbCircle
 10
1.166507774789723
 20
-4.833597701728145
 30
0.0
 40
2.460606859239861
100
AcDbArc
 50
179.9109999999999
 51
241.6999999999999
  0
ARC
  5
A9
330
1F
100
AcDbEntity
  8
Ceco.net 43
  6
Continuous
100
AcDbCircle
 10
2.277324711573396
 20
-5.601552476769054
 30
0.0
 40
1.249980506128389
100
AcDbArc
 50
141.87
 51
248.13
  0
ARC
  5
AA
330
1F
100
AcDbEntity
  8
Ceco.net 43
  6
Continuous
100
AcDbCircle
 10
2.377730563365293
 20
-4.366684021866381
 30
0.0
 40
2.460606859239861
100
AcDbArc
 50
194.9109999999999
 51
256.6999999999999
  0
ARC
  5
AB
330
1F
100
AcDbEntity
  8
Ceco.net 43
  6
Continuous
100
AcDbCircle
 10
3.64944390729107
 20
-4.821245487974989
 30
0.0
 40
1.249980506128389
100
AcDbArc
 50
156.8699999999999
 51
263.1299999999999
  0
ARC
  5
AC
330
1F
100
AcDbEntity
  8
Ceco.net 43
  6
Continuous
100
AcDbCircle
 10
3.426927599541484
 20
-3.6026113711478
 30
0.0
 40
2.460606859239861
100
AcDbArc
 50
209.9109999999999
 51
271.7
  0
ARC
  5
AD
330
1F
100
AcDbEntity
  8
Ceco.net 43
  6
Continuous
100
AcDbCircle
 10
4.772895394141984
 20
-3.712369613352625
 30
0.0
 40
1.249980506128389
100
AcDbArc
 50
171.87
 51
278.1299999999999
  0
ARC
  5
AE
330
1F
100
AcDbEntity
  8
Ceco.net 43
  6
Continuous
100
AcDbCircle
 10
4.242561919668752
 20
-2.592906126941891
 30
0.0
 40
2.460606859239861
100
AcDbArc
 50
224.9109999999999
 51
286.6999999999999
  0
ARC
  5
AF
330
1F
100
AcDbEntity
  8
Ceco.net 43
  6
Continuous
100
AcDbCircle
 10
5.571060154818664
 20
-2.350449816991047
 30
0.0
 40
1.249980506128389
100
AcDbArc
 50
186.87
 51
293.1299999999999
  0
ARC
  5
B0
330
1F
100
AcDbEntity
  8
Ceco.net 43
  6
Continuous
100
AcDbCircle
 10
4.76908385389831
 20
-1.406387765872319
 30
0.0
 40
2.460606859239861
100
AcDbArc
 50
239.9109999999999
 51
301.6999999999999
  0
ARC
  5
B1
330
1F
100
AcDbEntity
  8
Ceco.net 43
  6
Continuous
100
AcDbCircle
 10
5.989553156768948
 20
-0.8286570826268356
 30
0.0
 40
1.249980506128389
100
AcDbArc
 50
201.87
 51
308.13
  0
ARC
  5
B2
330
1F
100
AcDbEntity
  8
Ceco.net 43
  6
Continuous
100
AcDbCircle
 10
4.97060139826794
 20
-0.1242279783155287
 30
0.0
 40
2.460606859239861
100
AcDbArc
 50
254.9109999999999
 51
316.6999999999999
  0
ARC
  5
B3
330
1F
100
AcDbEntity
  8
Ceco.net 43
  6
Continuous
100
AcDbCircle
 10
5.999893724282102
 20
0.7499558350009363
 30
0.0
 40
1.249980506128389
100
AcDbArc
 50
216.87
 51
323.13
  0
ARC
  5
B4
330
1F
100
AcDbEntity
  8
Ceco.net 43
  6
Continuous
100
AcDbCircle
 10
4.833350657452969
 20
1.166401898672059
 30
0.0
 40
2.460606859239861
100
AcDbArc
 50
269.911
 51
331.7
  0
ARC
  5
B5
330
1F
100
AcDbEntity
  8
Ceco.net 43
  6
Continuous
100
AcDbCircle
 10
5.601340724533098
 20
2.277395295652003
 30
0.0
 40
1.249980506128389
100
AcDbArc
 50
231.87
 51
338.1299999999999
  0
ARC
  5
B6
330
1F
100
AcDbEntity
  8
Ceco.net 43
  6
Continuous
100
AcDbCircle
 10
4.366754605944793
 20
2.377624687247394
 30
0.0
 40
2.460606859239861
100
AcDbArc
 50
284.9109999999999
 51
346.7
  0
ARC
  5
B7
330
1F
100
AcDbEntity
  8
Ceco.net 43
  6
Continuous
100
AcDbCircle
 10
4.821069027778507
 20
3.649549783409118
 30
0.0
 40
1.249980506128389
100
AcDbArc
 50
246.87
 51
353.1299999999999
  0
ARC
  5
B8
330
1F
100
AcDbEntity
  8
Ceco.net 43
  6
Continuous
100
AcDbCircle
 10
3.602540787069146
 20
3.426857015462735
 30
0.0
 40
2.460606859239861
100
AcDbArc
 50
299.9109999999999
 51
1.700299999999999
  0
ARC
  5
B9
330
1F
100
AcDbEntity
  8
Ceco.net 43
  6
Continuous
100
AcDbCircle
 10
3.712228445195332
 20
4.772895394142179
 30
0.0
 40
1.249980506128389
100
AcDbArc
 50
261.8699999999999
 51
8.13002
  0
ARC
  5
BA
330
1F
100
AcDbEntity
  8
Ceco.net 43
  6
Continuous
100
AcDbCircle
 10
2.592835542863237
 20
4.242456043550852
 30
0.0
 40
2.460606859239861
100
AcDbArc
 50
314.911
 51
16.70029999999999
  0
ARC
  5
BB
330
1F
100
AcDbEntity
  8
Ceco.net 43
  6
Continuous
100
AcDbCircle
 10
2.350449816991094
 20
5.570848402583124
 30
0.0
 40
1.249980506128389
100
AcDbArc
 50
276.8699999999999
 51
23.13
  0
ARC
  5
BC
330
1F
100
AcDbEntity
  8
Ceco.net 43
  6
Continuous
100
AcDbCircle
 10
1.406423057911517
 20
4.769013269819851
 30
0.0
 40
2.460606859239861
100
AcDbArc
 50
329.911
 51
31.7003
  0
ARC
  5
BD
330
1F
100
AcDbEntity
  8
Ceco.net 43
  6
Continuous
100
AcDbCircle
 10
0.1241926862760723
 20
4.970530814189285
 30
0.0
 40
2.460606859239861
100
AcDbArc
 50
344.911
 51
46.7003
  0
ARC
  5
BE
330
1F
100
AcDbEntity
  8
Ceco.net 43
  6
Continuous
100
AcDbCircle
 10
0.8284453303911474
 20
5.989411988611789
 30
0.0
 40
1.249980506128389
100
AcDbArc
 50
291.87
 51
38.13
  0
ARC
  5
BF
330
1F
100
AcDbEntity
  8
Ceco.net 43
  6
Continuous
100
AcDbCircle
 10
0.0
 20
0.0
 30
0.0
 40
4.999929082921414
100
AcDbArc
 50
0.0000025044700004
 51
90.0
  0
ARC
  5
C0
330
1F
100
AcDbEntity
  8
Ceco.net 43
  6
Continuous
100
AcDbCircle
 10
0.0
 20
0.0
 30
0.0
 40
4.999929082921414
100
AcDbArc
 50
270.0
 51
0.0000100179000001
  0
LINE
  5
C1
330
1F
100
AcDbEntity
  8
Ceco.net 43
  6
Continuous
100
AcDbLine
 10
0.0
 20
4.949708511005882
 30
0.0
 11
0.0499735276405398
 21
4.999470286410639
 31
0.0
  0
LINE
  5
C2
330
1F
100
AcDbEntity
  8
Ceco.net 43
  6
Continuous
100
AcDbLine
 10
0.0
 20
4.596082277278226
 30
0.0
 11
0.3886712287465406
 21
4.984647629907142
 31
0.0
  0
LINE
  5
C3
330
1F
100
AcDbEntity
  8
Ceco.net 43
  6
Continuous
100
AcDbLine
 10
0.0
 20
4.242456043550852
 30
0.0
 11
0.7070760072584834
 21
4.949708511005882
 31
0.0
  0
LINE
  5
C4
330
1F
100
AcDbEntity
  8
Ceco.net 43
  6
Continuous
100
AcDbLine
 10
0.0
 20
3.888829809823487
 30
0.0
 11
1.008187686516133
 21
4.897123372457449
 31
0.0
  0
LINE
  5
C5
330
1F
100
AcDbEntity
  8
Ceco.net 43
  6
Continuous
100
AcDbLine
 10
0.0
 20
3.535556496488915
 30
0.0
 11
1.294053204799027
 21
4.829362657012727
 31
0.0
  0
LINE
  5
C6
330
1F
100
AcDbEntity
  8
Ceco.net 43
  6
Continuous
100
AcDbLine
 10
0.0
 20
3.181930262761259
 30
0.0
 11
1.566295995914166
 21
4.748190966636204
 31
0.0
  0
LINE
  5
C7
330
1F
100
AcDbEntity
  8
Ceco.net 43
  6
Continuous
100
AcDbLine
 10
0.0
 20
2.828304029033886
 30
0.0
 11
1.826115989197518
 21
4.654314142113765
 31
0.0
  0
LINE
  5
C8
330
1F
100
AcDbEntity
  8
Ceco.net 43
  6
Continuous
100
AcDbLine
 10
0.0
 20
2.47467779530652
 30
0.0
 11
2.074430777671471
 21
4.549143865017152
 31
0.0
  0
LINE
  5
C9
330
1F
100
AcDbEntity
  8
Ceco.net 43
  6
Continuous
100
AcDbLine
 10
0.0
 20
2.121404481971948
 30
0.0
 11
2.311981494160267
 21
4.433385976132169
 31
0.0
  0
LINE
  5
CA
330
1F
100
AcDbEntity
  8
Ceco.net 43
  6
Continuous
100
AcDbLine
 10
0.0
 20
1.767778248244332
 30
0.0
 11
2.539332811293233
 21
4.307040475459099
 31
0.0
  0
LINE
  5
CB
330
1F
100
AcDbEntity
  8
Ceco.net 43
  6
Continuous
100
AcDbLine
 10
0.0
 20
1.414152014516966
 30
0.0
 11
2.75694352558103
 21
4.171166124176604
 31
0.0
  0
LINE
  5
CC
330
1F
100
AcDbEntity
  8
Ceco.net 43
  6
Continuous
100
AcDbLine
 10
0.0
 20
1.060525780789554
 30
0.0
 11
2.965131265377276
 21
4.025762922284627
 31
0.0
  0
LINE
  5
CD
330
1F
100
AcDbEntity
  8
Ceco.net 43
  6
Continuous
100
AcDbLine
 10
0.0
 20
0.7068995470619381
 30
0.0
 11
3.164178366996275
 21
3.871183790176316
 31
0.0
  0
LINE
  5
CE
330
1F
100
AcDbEntity
  8
Ceco.net 43
  6
Continuous
100
AcDbLine
 10
0.0
 20
0.3536262337273655
 30
0.0
 11
3.354261290634696
 21
3.707781648244406
 31
0.0
  0
LINE
  5
CF
330
1F
100
AcDbEntity
  8
Ceco.net 43
  6
Continuous
100
AcDbLine
 10
0.0
 20
0.0
 30
0.0
 11
3.535450620370859
 21
3.535556496488915
 31
0.0
  0
LINE
  5
D0
330
1F
100
AcDbEntity
  8
Ceco.net 43
  6
Continuous
100
AcDbLine
 10
0.0
 20
-0.3536262337274124
 30
0.0
 11
3.707816940283674
 21
3.35415541451679
 31
0.0
  0
LINE
  5
D1
330
1F
100
AcDbEntity
  8
Ceco.net 43
  6
Continuous
100
AcDbLine
 10
0.0
 20
-0.7072524674550286
 30
0.0
 11
3.871289666294261
 21
3.164284243114377
 31
0.0
  0
LINE
  5
D2
330
1F
100
AcDbEntity
  8
Ceco.net 43
  6
Continuous
100
AcDbLine
 10
0.0
 20
-1.060525780789601
 30
0.0
 11
4.025798214323927
 21
2.965237141495324
 31
0.0
  0
LINE
  5
D3
330
1F
100
AcDbEntity
  8
Ceco.net 43
  6
Continuous
100
AcDbLine
 10
0.0
 20
-1.414152014516966
 30
0.0
 11
4.171130832137405
 21
2.757014109659637
 31
0.0
  0
LINE
  5
D4
330
1F
100
AcDbEntity
  8
Ceco.net 43
  6
Continuous
100
AcDbLine
 10
0.0
 20
-1.767778248244379
 30
0.0
 11
4.307075767498368
 21
2.539262227214767
 31
0.0
  0
LINE
  5
D5
330
1F
100
AcDbEntity
  8
Ceco.net 43
  6
Continuous
100
AcDbLine
 10
0.0
 20
-2.121404481971995
 30
0.0
 11
4.433244807975126
 21
2.311981494160463
 31
0.0
  0
LINE
  5
D6
330
1F
100
AcDbEntity
  8
Ceco.net 43
  6
Continuous
100
AcDbLine
 10
0.0
 20
-2.475030715699368
 30
0.0
 11
4.549249741135058
 21
2.07446606971063
 31
0.0
  0
LINE
  5
D7
330
1F
100
AcDbEntity
  8
Ceco.net 43
  6
Continuous
100
AcDbLine
 10
0.0
 20
-2.828304029033933
 30
0.0
 11
4.654490602310114
 21
1.82601011307987
 31
0.0
  0
LINE
  5
D8
330
1F
100
AcDbEntity
  8
Ceco.net 43
  6
Continuous
100
AcDbLine
 10
0.0
 20
-3.181930262761306
 30
0.0
 11
4.748226258675488
 21
1.566260703874898
 31
0.0
  0
LINE
  5
D9
330
1F
100
AcDbEntity
  8
Ceco.net 43
  6
Continuous
100
AcDbLine
 10
0.0
 20
-3.535556496488961
 30
0.0
 11
4.829539117209296
 21
1.294159080916816
 31
0.0
  0
LINE
  5
DA
330
1F
100
AcDbEntity
  8
Ceco.net 43
  6
Continuous
100
AcDbLine
 10
0.0
 20
-3.889182730216335
 30
0.0
 11
4.897193956536158
 21
1.008293562634173
 31
0.0
  0
LINE
  5
DB
330
1F
100
AcDbEntity
  8
Ceco.net 43
  6
Continuous
100
AcDbLine
 10
0.0
 20
-4.2424560435509
 30
0.0
 11
4.949637926927235
 21
0.7068995470619381
 31
0.0
  0
LINE
  5
DC
330
1F
100
AcDbEntity
  8
Ceco.net 43
  6
Continuous
100
AcDbLine
 10
0.0
 20
-4.596082277278273
 30
0.0
 11
4.984788798064238
 21
0.388565352628626
 31
0.0
  0
LINE
  5
DD
330
1F
100
AcDbEntity
  8
Ceco.net 43
  6
Continuous
100
AcDbLine
 10
0.0
 20
-4.949708511005889
 30
0.0
 11
4.999646746606933
 21
0.0501146957978011
 31
0.0
  0
LINE
  5
DE
330
1F
100
AcDbEntity
  8
Ceco.net 43
  6
Continuous
100
AcDbLine
 10
0.3131109726176525
 20
-4.990294356194045
 30
0.0
 11
4.99008260395831
 21
-0.3130403885392569
 31
0.0
  0
LINE
  5
DF
330
1F
100
AcDbEntity
  8
Ceco.net 43
  6
Continuous
100
AcDbLine
 10
0.7070760072584834
 20
-4.949708511005889
 30
0.0
 11
4.949673218966488
 21
-0.7072524674550286
 31
0.0
  0
LINE
  5
E0
330
1F
100
AcDbEntity
  8
Ceco.net 43
  6
Continuous
100
AcDbLine
 10
1.142720940305578
 20
-4.86747805945051
 30
0.0
 11
4.86758393556837
 21
-1.142756232344768
 31
0.0
  0
LINE
  5
E1
330
1F
100
AcDbEntity
  8
Ceco.net 43
  6
Continuous
100
AcDbLine
 10
1.640832782903317
 20
-4.723133618737477
 30
0.0
 11
4.722992450580137
 21
-1.641079827178477
 31
0.0
  0
LINE
  5
E2
330
1F
100
AcDbEntity
  8
Ceco.net 43
  6
Continuous
100
AcDbLine
 10
2.254737806425252
 20
-4.4626783687464
 30
0.0
 11
4.462643076707211
 21
-2.254808390503867
 31
0.0
  0
LINE
  5
E3
330
1F
100
AcDbEntity
  8
Ceco.net 43
  6
Continuous
100
AcDbLine
 10
3.531497911970112
 20
-3.539438620811289
 30
0.0
 11
3.539403328771856
 21
-3.531674372166595
 31
0.0
  0
TEXT
  5
E4
330
1F
100
AcDbEntity
  8
Ceco.net 43
  6
Continuous
100
AcDbText
 10
-0.8310412211470591
 20
7.527487364157694
 30
0.0
 40
2.823363143532735
  1
N
 50
0.0000025044700004
 41
0.85
100
AcDbText
  0
TEXT
  5
E5
330
1F
100
AcDbEntity
  8
Ceco.net 43
  6
Continuous
100
AcDbText
 10
-7.270503622252114
 20
-1.137514430604525
 30
0.0
 40
2.823363143532735
  1
W
 50
90.0
 41
0.85
100
AcDbText
  0
TEXT
  5
E6
330
1F
100
AcDbEntity
  8
Ceco.net 43
  6
Continuous
100
AcDbText
 10
0.8586294425106842
 20
-7.499911270401873
 30
0.0
 40
2.823363143532735
  1
S
 50
180.0
 41
0.85
100
AcDbText
  0
TEXT
  5
E7
330
1F
100
AcDbEntity
  8
Ceco.net 43
  6
Continuous
100
AcDbText
 10
7.499875978362386
 20
0.5000881967982375
 30
0.0
 40
2.823363143532735
  1
E
 50
270.0
 41
0.85
100
AcDbText
  0
ENDSEC
  0
SECTION
  2
OBJECTS
  0
DICTIONARY
  5
C
330
0
100
AcDbDictionary
281
     1
  3
ACAD_GROUP
350
D
  3
ACAD_LAYOUT
350
1A
  3
ACAD_MLINESTYLE
350
17
  3
ACAD_PLOTSETTINGS
350
19
  3
ACAD_PLOTSTYLENAME
350
E
  3
AcDbVariableDictionary
350
EA
  0
DICTIONARY
  5
D
102
{ACAD_REACTORS
330
C
102
}
330
C
100
AcDbDictionary
281
     1
  0
DICTIONARY
  5
1A
102
{ACAD_REACTORS
330
C
102
}
330
C
100
AcDbDictionary
281
     1
  3
Layout1
350
1E
  3
Layout2
350
26
  3
Model
350
22
  0
DICTIONARY
  5
17
102
{ACAD_REACTORS
330
C
102
}
330
C
100
AcDbDictionary
281
     1
  3
Standard
350
18
  0
DICTIONARY
  5
19
102
{ACAD_REACTORS
330
C
102
}
330
C
100
AcDbDictionary
281
     1
  0
ACDBDICTIONARYWDFLT
  5
E
102
{ACAD_REACTORS
330
C
102
}
330
C
100
AcDbDictionary
281
     1
  3
Normal
350
F
100
AcDbDictionaryWithDefault
340
F
  0
DICTIONARY
  5
EA
102
{ACAD_REACTORS
330
C
102
}
330
C
100
AcDbDictionary
281
     1
  3
DIMASSOC
350
EC
  3
HIDETEXT
350
EB
  0
LAYOUT
  5
1E
102
{ACAD_REACTORS
330
1A
102
}
330
1A
100
AcDbPlotSettings
  1

  2
Microsoft Office Document Image Writer
  4

  6

 40
0.0
 41
0.0
 42
0.0
 43
0.0
 44
0.0
 45
0.0
 46
0.0
 47
0.0
 48
0.0
 49
0.0
140
0.0
141
0.0
142
1.0
143
1.0
 70
   688
 72
     0
 73
     0
 74
     5
  7

 75
    16
147
1.0
148
0.0
149
0.0
100
AcDbLayout
  1
Layout1
 70
     1
 71
     1
 10
0.0
 20
0.0
 11
420.0
 21
297.0
 12
0.0
 22
0.0
 32
0.0
 14
1.000000000000000E+20
 24
1.000000000000000E+20
 34
1.000000000000000E+20
 15
-1.000000000000000E+20
 25
-1.000000000000000E+20
 35
-1.000000000000000E+20
146
0.0
 13
0.0
 23
0.0
 33
0.0
 16
1.0
 26
0.0
 36
0.0
 17
0.0
 27
1.0
 37
0.0
 76
     0
330
1B
  0
LAYOUT
  5
26
102
{ACAD_REACTORS
330
1A
102
}
330
1A
100
AcDbPlotSettings
  1

  2
Microsoft Office Document Image Writer
  4

  6

 40
0.0
 41
0.0
 42
0.0
 43
0.0
 44
0.0
 45
0.0
 46
0.0
 47
0.0
 48
0.0
 49
0.0
140
0.0
141
0.0
142
1.0
143
1.0
 70
   688
 72
     0
 73
     0
 74
     5
  7

 75
    16
147
1.0
148
0.0
149
0.0
100
AcDbLayout
  1
Layout2
 70
     1
 71
     2
 10
0.0
 20
0.0
 11
12.0
 21
9.0
 12
0.0
 22
0.0
 32
0.0
 14
0.0
 24
0.0
 34
0.0
 15
0.0
 25
0.0
 35
0.0
146
0.0
 13
0.0
 23
0.0
 33
0.0
 16
1.0
 26
0.0
 36
0.0
 17
0.0
 27
1.0
 37
0.0
 76
     0
330
23
  0
LAYOUT
  5
22
102
{ACAD_REACTORS
330
1A
102
}
330
1A
100
AcDbPlotSettings
  1

  2
Microsoft Office Document Image Writer
  4

  6

 40
0.0
 41
0.0
 42
0.0
 43
0.0
 44
0.0
 45
0.0
 46
0.0
 47
0.0
 48
0.0
 49
0.0
140
0.0
141
0.0
142
1.0
143
1.0
 70
  1712
 72
     0
 73
     0
 74
     0
  7

 75
     0
147
1.0
148
0.0
149
0.0
100
AcDbLayout
  1
Model
 70
     1
 71
     0
 10
0.0
 20
0.0
 11
12.0
 21
9.0
 12
0.0
 22
0.0
 32
0.0
 14
0.0
 24
0.0
 34
0.0
 15
0.0
 25
0.0
 35
0.0
146
0.0
 13
0.0
 23
0.0
 33
0.0
 16
1.0
 26
0.0
 36
0.0
 17
0.0
 27
1.0
 37
0.0
 76
     0
330
1F
  0
MLINESTYLE
  5
18
102
{ACAD_REACTORS
330
17
102
}
330
17
100
AcDbMlineStyle
  2
STANDARD
 70
     0
  3

 62
   256
 51
90.0
 52
90.0
 71
     2
 49
0.5
 62
   256
  6
BYLAYER
 49
-0.5
 62
   256
  6
BYLAYER
  0
ACDBPLACEHOLDER
  5
F
102
{ACAD_REACTORS
330
E
102
}
330
E
  0
DICTIONARYVAR
  5
EC
102
{ACAD_REACTORS
330
EA
102
}
330
EA
100
DictionaryVariables
280
     0
  1
2
  0
DICTIONARYVAR
  5
EB
102
{ACAD_REACTORS
330
EA
102
}
330
EA
100
DictionaryVariables
280
     0
  1
1
  0
ENDSEC
  0
EOF
