  0
SECTION
  2
HEADER
  9
$ACADVER
  1
AC1015
  9
$ACADMAINTVER
 70
    13
  9
$DWGCODEPAGE
  3
ANSI_1252
  9
$INSBASE
 10
0.0
 20
0.0
 30
0.0
  9
$EXTMIN
 10
0.0
 20
0.0
 30
0.0
  9
$EXTMAX
 10
3.629942730840411
 20
7.314246122259646
 30
0.0
  9
$LIMMIN
 10
0.0
 20
0.0
  9
$LIMMAX
 10
420.0
 20
297.0
  9
$ORTHOMODE
 70
     0
  9
$REGENMODE
 70
     1
  9
$FILLMODE
 70
     1
  9
$QTEXTMODE
 70
     0
  9
$MIRRTEXT
 70
     1
  9
$LTSCALE
 40
1.0
  9
$ATTMODE
 70
     1
  9
$TEXTSIZE
 40
2.5
  9
$TRACEWID
 40
1.0
  9
$TEXTSTYLE
  7
Standard
  9
$CLAYER
  8
Ceco.NEt 22
  9
$CELTYPE
  6
ByLayer
  9
$CECOLOR
 62
   256
  9
$CELTSCALE
 40
1.0
  9
$DISPSILH
 70
     0
  9
$DIMSCALE
 40
1.0
  9
$DIMASZ
 40
2.5
  9
$DIMEXO
 40
0.625
  9
$DIMDLI
 40
3.75
  9
$DIMRND
 40
0.0
  9
$DIMDLE
 40
0.0
  9
$DIMEXE
 40
1.25
  9
$DIMTP
 40
0.0
  9
$DIMTM
 40
0.0
  9
$DIMTXT
 40
2.5
  9
$DIMCEN
 40
2.5
  9
$DIMTSZ
 40
0.0
  9
$DIMTOL
 70
     0
  9
$DIMLIM
 70
     0
  9
$DIMTIH
 70
     0
  9
$DIMTOH
 70
     0
  9
$DIMSE1
 70
     0
  9
$DIMSE2
 70
     0
  9
$DIMTAD
 70
     1
  9
$DIMZIN
 70
     8
  9
$DIMBLK
  1

  9
$DIMASO
 70
     1
  9
$DIMSHO
 70
     1
  9
$DIMPOST
  1

  9
$DIMAPOST
  1

  9
$DIMALT
 70
     0
  9
$DIMALTD
 70
     3
  9
$DIMALTF
 40
0.03937007874016
  9
$DIMLFAC
 40
1.0
  9
$DIMTOFL
 70
     1
  9
$DIMTVP
 40
0.0
  9
$DIMTIX
 70
     0
  9
$DIMSOXD
 70
     0
  9
$DIMSAH
 70
     0
  9
$DIMBLK1
  1

  9
$DIMBLK2
  1

  9
$DIMSTYLE
  2
ISO-25
  9
$DIMCLRD
 70
     0
  9
$DIMCLRE
 70
     0
  9
$DIMCLRT
 70
     0
  9
$DIMTFAC
 40
1.0
  9
$DIMGAP
 40
0.625
  9
$DIMJUST
 70
     0
  9
$DIMSD1
 70
     0
  9
$DIMSD2
 70
     0
  9
$DIMTOLJ
 70
     0
  9
$DIMTZIN
 70
     8
  9
$DIMALTZ
 70
     0
  9
$DIMALTTZ
 70
     0
  9
$DIMUPT
 70
     0
  9
$DIMDEC
 70
     2
  9
$DIMTDEC
 70
     2
  9
$DIMALTU
 70
     2
  9
$DIMALTTD
 70
     3
  9
$DIMTXSTY
  7
Standard
  9
$DIMAUNIT
 70
     0
  9
$DIMADEC
 70
     0
  9
$DIMALTRND
 40
0.0
  9
$DIMAZIN
 70
     0
  9
$DIMDSEP
 70
    44
  9
$DIMATFIT
 70
     3
  9
$DIMFRAC
 70
     0
  9
$DIMLDRBLK
  1

  9
$DIMLUNIT
 70
     2
  9
$DIMLWD
 70
    -2
  9
$DIMLWE
 70
    -2
  9
$DIMTMOVE
 70
     0
  9
$LUNITS
 70
     2
  9
$LUPREC
 70
     2
  9
$SKETCHINC
 40
1.0
  9
$FILLETRAD
 40
10.0
  9
$AUNITS
 70
     0
  9
$AUPREC
 70
     0
  9
$MENU
  1
.
  9
$ELEVATION
 40
0.0
  9
$PELEVATION
 40
0.0
  9
$THICKNESS
 40
0.0
  9
$LIMCHECK
 70
     0
  9
$CHAMFERA
 40
10.0
  9
$CHAMFERB
 40
10.0
  9
$CHAMFERC
 40
20.0
  9
$CHAMFERD
 40
0.0
  9
$SKPOLY
 70
     0
  9
$TDCREATE
 40
2455079.846020682
  9
$TDUCREATE
 40
2455079.971020682
  9
$TDUPDATE
 40
2455079.847569976
  9
$TDUUPDATE
 40
2455079.972569977
  9
$TDINDWG
 40
0.0015492940
  9
$TDUSRTIMER
 40
0.0015492940
  9
$USRTIMER
 70
     1
  9
$ANGBASE
 50
0.0
  9
$ANGDIR
 70
     0
  9
$PDMODE
 70
     0
  9
$PDSIZE
 40
0.0
  9
$PLINEWID
 40
0.0
  9
$SPLFRAME
 70
     0
  9
$SPLINETYPE
 70
     6
  9
$SPLINESEGS
 70
     8
  9
$HANDSEED
  5
110
  9
$SURFTAB1
 70
     6
  9
$SURFTAB2
 70
     6
  9
$SURFTYPE
 70
     6
  9
$SURFU
 70
     6
  9
$SURFV
 70
     6
  9
$UCSBASE
  2

  9
$UCSNAME
  2

  9
$UCSORG
 10
0.0
 20
0.0
 30
0.0
  9
$UCSXDIR
 10
1.0
 20
0.0
 30
0.0
  9
$UCSYDIR
 10
0.0
 20
1.0
 30
0.0
  9
$UCSORTHOREF
  2

  9
$UCSORTHOVIEW
 70
     0
  9
$UCSORGTOP
 10
0.0
 20
0.0
 30
0.0
  9
$UCSORGBOTTOM
 10
0.0
 20
0.0
 30
0.0
  9
$UCSORGLEFT
 10
0.0
 20
0.0
 30
0.0
  9
$UCSORGRIGHT
 10
0.0
 20
0.0
 30
0.0
  9
$UCSORGFRONT
 10
0.0
 20
0.0
 30
0.0
  9
$UCSORGBACK
 10
0.0
 20
0.0
 30
0.0
  9
$PUCSBASE
  2

  9
$PUCSNAME
  2

  9
$PUCSORG
 10
0.0
 20
0.0
 30
0.0
  9
$PUCSXDIR
 10
1.0
 20
0.0
 30
0.0
  9
$PUCSYDIR
 10
0.0
 20
1.0
 30
0.0
  9
$PUCSORTHOREF
  2

  9
$PUCSORTHOVIEW
 70
     0
  9
$PUCSORGTOP
 10
0.0
 20
0.0
 30
0.0
  9
$PUCSORGBOTTOM
 10
0.0
 20
0.0
 30
0.0
  9
$PUCSORGLEFT
 10
0.0
 20
0.0
 30
0.0
  9
$PUCSORGRIGHT
 10
0.0
 20
0.0
 30
0.0
  9
$PUCSORGFRONT
 10
0.0
 20
0.0
 30
0.0
  9
$PUCSORGBACK
 10
0.0
 20
0.0
 30
0.0
  9
$USERI1
 70
     0
  9
$USERI2
 70
     0
  9
$USERI3
 70
     0
  9
$USERI4
 70
     0
  9
$USERI5
 70
     0
  9
$USERR1
 40
0.0
  9
$USERR2
 40
0.0
  9
$USERR3
 40
0.0
  9
$USERR4
 40
0.0
  9
$USERR5
 40
0.0
  9
$WORLDVIEW
 70
     1
  9
$SHADEDGE
 70
     3
  9
$SHADEDIF
 70
    70
  9
$TILEMODE
 70
     1
  9
$MAXACTVP
 70
    64
  9
$PINSBASE
 10
0.0
 20
0.0
 30
0.0
  9
$PLIMCHECK
 70
     0
  9
$PEXTMIN
 10
1.000000000000000E+20
 20
1.000000000000000E+20
 30
1.000000000000000E+20
  9
$PEXTMAX
 10
-1.000000000000000E+20
 20
-1.000000000000000E+20
 30
-1.000000000000000E+20
  9
$PLIMMIN
 10
0.0
 20
0.0
  9
$PLIMMAX
 10
420.0
 20
297.0
  9
$UNITMODE
 70
     0
  9
$VISRETAIN
 70
     1
  9
$PLINEGEN
 70
     0
  9
$PSLTSCALE
 70
     1
  9
$TREEDEPTH
 70
  3020
  9
$CMLSTYLE
  2
Standard
  9
$CMLJUST
 70
     0
  9
$CMLSCALE
 40
20.0
  9
$PROXYGRAPHICS
 70
     1
  9
$MEASUREMENT
 70
     1
  9
$CELWEIGHT
370
    -1
  9
$ENDCAPS
280
     0
  9
$JOINSTYLE
280
     0
  9
$LWDISPLAY
290
     0
  9
$INSUNITS
 70
     6
  9
$HYPERLINKBASE
  1

  9
$STYLESHEET
  1

  9
$XEDIT
290
     1
  9
$CEPSNTYPE
380
     0
  9
$PSTYLEMODE
290
     1
  9
$FINGERPRINTGUID
  2
{56BDECA7-C186-4E74-945C-C09383DDBF20}
  9
$VERSIONGUID
  2
{A4F45B55-D974-4C39-9FC0-7E9F7C9A3AA2}
  9
$EXTNAMES
290
     1
  9
$PSVPSCALE
 40
0.0
  9
$OLESTARTUP
290
     0
  0
ENDSEC
  0
SECTION
  2
CLASSES
  0
CLASS
  1
ACDBDICTIONARYWDFLT
  2
AcDbDictionaryWithDefault
  3
AutoCAD 2000
 90
        0
280
     0
281
     0
  0
CLASS
  1
ACDBPLACEHOLDER
  2
AcDbPlaceHolder
  3
AutoCAD 2000
 90
        0
280
     0
281
     0
  0
CLASS
  1
LAYOUT
  2
AcDbLayout
  3
AutoCAD 2000
 90
        0
280
     0
281
     0
  0
CLASS
  1
DICTIONARYVAR
  2
AcDbDictionaryVar
  3
AutoCAD 2000
 90
        0
280
     0
281
     0
  0
ENDSEC
  0
SECTION
  2
TABLES
  0
TABLE
  2
VPORT
  5
8
330
0
100
AcDbSymbolTable
 70
     5
  0
VPORT
  5
10F
330
8
100
AcDbSymbolTableRecord
100
AcDbViewportTableRecord
  2
*Active
 70
     0
 10
0.0
 20
0.0
 11
1.0
 21
1.0
 12
1.814971365420205
 22
3.657123061129823
 13
0.0
 23
0.0
 14
10.0
 24
10.0
 15
10.0
 25
10.0
 16
0.0
 26
0.0
 36
1.0
 17
0.0
 27
0.0
 37
0.0
 40
7.391103349463776
 41
2.112280701754385
 42
50.0
 43
0.0
 44
0.0
 50
0.0
 51
0.0
 71
     0
 72
   100
 73
     1
 74
     3
 75
     0
 76
     0
 77
     0
 78
     0
281
     0
 65
     1
110
0.0
120
0.0
130
0.0
111
1.0
121
0.0
131
0.0
112
0.0
122
1.0
132
0.0
 79
     0
146
0.0
  0
ENDTAB
  0
TABLE
  2
LTYPE
  5
5
330
0
100
AcDbSymbolTable
 70
     1
  0
LTYPE
  5
14
330
5
100
AcDbSymbolTableRecord
100
AcDbLinetypeTableRecord
  2
ByBlock
 70
     0
  3

 72
    65
 73
     0
 40
0.0
  0
LTYPE
  5
15
330
5
100
AcDbSymbolTableRecord
100
AcDbLinetypeTableRecord
  2
ByLayer
 70
     0
  3

 72
    65
 73
     0
 40
0.0
  0
LTYPE
  5
16
330
5
100
AcDbSymbolTableRecord
100
AcDbLinetypeTableRecord
  2
Continuous
 70
     0
  3
Solid line
 72
    65
 73
     0
 40
0.0
  0
ENDTAB
  0
TABLE
  2
LAYER
  5
2
330
0
100
AcDbSymbolTable
 70
     2
  0
LAYER
  5
10
330
2
100
AcDbSymbolTableRecord
100
AcDbLayerTableRecord
  2
0
 70
     0
 62
     7
  6
Continuous
370
    -3
390
F
  0
LAYER
  5
2B
102
{ACAD_XDICTIONARY
360
2C
102
}
330
2
100
AcDbSymbolTableRecord
100
AcDbLayerTableRecord
  2
Ceco.NEt 22
 70
     0
 62
     7
  6
Continuous
370
    -3
390
F
1001
AcAecLayerStandard
1000

1000

  0
ENDTAB
  0
TABLE
  2
STYLE
  5
3
330
0
100
AcDbSymbolTable
 70
     2
  0
STYLE
  5
11
330
3
100
AcDbSymbolTableRecord
100
AcDbTextStyleTableRecord
  2
Standard
 70
     0
 40
0.0
 41
1.0
 50
0.0
 71
     0
 42
2.5
  3
txt
  4

  0
ENDTAB
  0
TABLE
  2
VIEW
  5
6
330
0
100
AcDbSymbolTable
 70
     0
  0
ENDTAB
  0
TABLE
  2
UCS
  5
7
330
0
100
AcDbSymbolTable
 70
     0
  0
ENDTAB
  0
TABLE
  2
APPID
  5
9
330
0
100
AcDbSymbolTable
 70
     3
  0
APPID
  5
12
330
9
100
AcDbSymbolTableRecord
100
AcDbRegAppTableRecord
  2
ACAD
 70
     0
  0
APPID
  5
30
330
9
100
AcDbSymbolTableRecord
100
AcDbRegAppTableRecord
  2
CONTENTBLOCKICON
 70
     0
  0
APPID
  5
31
330
9
100
AcDbSymbolTableRecord
100
AcDbRegAppTableRecord
  2
AcAecLayerStandard
 70
     0
  0
ENDTAB
  0
TABLE
  2
DIMSTYLE
  5
A
330
0
100
AcDbSymbolTable
 70
     2
100
AcDbDimStyleTable
 71
     0
  0
DIMSTYLE
105
27
330
A
100
AcDbSymbolTableRecord
100
AcDbDimStyleTableRecord
  2
ISO-25
 70
     0
 41
2.5
 42
0.625
 43
3.75
 44
1.25
 73
     0
 74
     0
 77
     1
 78
     8
140
2.5
141
2.5
143
0.03937007874016
147
0.625
171
     3
172
     1
271
     2
272
     2
274
     3
278
    44
283
     0
284
     8
340
11
  0
ENDTAB
  0
TABLE
  2
BLOCK_RECORD
  5
1
330
0
100
AcDbSymbolTable
 70
     2
  0
BLOCK_RECORD
  5
1F
330
1
100
AcDbSymbolTableRecord
100
AcDbBlockTableRecord
  2
*Model_Space
340
22
  0
BLOCK_RECORD
  5
1B
330
1
100
AcDbSymbolTableRecord
100
AcDbBlockTableRecord
  2
*Paper_Space
340
1E
  0
BLOCK_RECORD
  5
23
330
1
100
AcDbSymbolTableRecord
100
AcDbBlockTableRecord
  2
*Paper_Space0
340
26
  0
ENDTAB
  0
ENDSEC
  0
SECTION
  2
BLOCKS
  0
BLOCK
  5
20
330
1F
100
AcDbEntity
  8
0
100
AcDbBlockBegin
  2
*Model_Space
 70
     0
 10
0.0
 20
0.0
 30
0.0
  3
*Model_Space
  1

  0
ENDBLK
  5
21
330
1F
100
AcDbEntity
  8
0
100
AcDbBlockEnd
  0
BLOCK
  5
1C
330
1B
100
AcDbEntity
 67
     1
  8
0
100
AcDbBlockBegin
  2
*Paper_Space
 70
     0
 10
0.0
 20
0.0
 30
0.0
  3
*Paper_Space
  1

  0
ENDBLK
  5
1D
330
1B
100
AcDbEntity
 67
     1
  8
0
100
AcDbBlockEnd
  0
BLOCK
  5
24
330
23
100
AcDbEntity
  8
0
100
AcDbBlockBegin
  2
*Paper_Space0
 70
     0
 10
0.0
 20
0.0
 30
0.0
  3
*Paper_Space0
  1

  0
ENDBLK
  5
25
330
23
100
AcDbEntity
  8
0
100
AcDbBlockEnd
  0
ENDSEC
  0
SECTION
  2
ENTITIES
  0
LINE
  5
A0
330
1F
100
AcDbEntity
  8
Ceco.NEt 22
100
AcDbLine
 10
0.0
 20
0.0
 30
0.0
 11
3.629942730840411
 21
0.0
 31
0.0
  0
LWPOLYLINE
  5
A1
330
1F
100
AcDbEntity
  8
Ceco.NEt 22
100
AcDbPolyline
 90
        7
 70
     0
 43
0.0
 10
1.808424689690582
 20
5.492728081113455
 10
2.043051027198089
 20
5.310119385459984
 10
2.303746957783005
 20
5.223162863720062
 10
2.477544244829914
 20
4.988380255024821
 10
2.825138818938285
 20
4.884032428937643
 10
3.051075292096356
 20
4.710119385461439
 10
3.29439149396785
 20
4.692728081110544
  0
LWPOLYLINE
  5
A2
330
1F
100
AcDbEntity
  8
Ceco.NEt 22
100
AcDbPolyline
 90
        3
 70
     0
 43
0.0
 10
2.50175175719778
 20
4.981113164340058
 10
2.596403656934853
 20
4.771214103213424
 10
2.752821215282892
 20
4.562518451042706
  0
LWPOLYLINE
  5
A3
330
1F
100
AcDbEntity
  8
Ceco.NEt 22
100
AcDbPolyline
 90
        3
 70
     0
 43
0.0
 10
2.082122833802714
 20
5.297086775430216
 10
2.398173397799837
 20
5.33854396641982
 10
2.614478098228573
 20
5.314493291531107
  0
LWPOLYLINE
  5
A4
330
1F
100
AcDbEntity
  8
Ceco.NEt 22
100
AcDbPolyline
 90
        3
 70
     0
 43
0.0
 10
2.297038102333317
 20
5.232225850886607
 10
2.61308866633044
 20
5.273683041879849
 10
2.829393366773729
 20
5.249632366987498
  0
LWPOLYLINE
  5
A5
330
1F
100
AcDbEntity
  8
Ceco.NEt 22
100
AcDbPolyline
 90
        3
 70
     0
 43
0.0
 10
2.41594398257439
 20
5.071595997433178
 10
2.731994546556961
 20
5.11305318842642
 10
2.94829924700025
 20
5.089002513534069
  0
LWPOLYLINE
  5
A6
330
1F
100
AcDbEntity
  8
Ceco.NEt 22
100
AcDbPolyline
 90
        7
 70
     0
 43
0.0
 10
1.808424689690582
 20
5.492728081113455
 10
2.103454410986159
 20
5.529510108415706
 10
2.349281817514565
 20
5.652362422562873
 10
2.638191432459279
 20
5.609239288074604
 10
2.957762968333554
 20
5.781240713098668
 10
3.24049927300075
 20
5.818026833010662
 10
3.424847318558022
 20
5.977779860088048
  0
LWPOLYLINE
  5
A7
330
1F
100
AcDbEntity
  8
Ceco.NEt 22
100
AcDbPolyline
 90
        3
 70
     0
 43
0.0
 10
2.246170038284617
 20
5.600832282478222
 10
2.46152008791978
 20
5.519340233142429
 10
2.719694114974117
 20
5.482374038489069
  0
LWPOLYLINE
  5
A8
330
1F
100
AcDbEntity
  8
Ceco.NEt 22
100
AcDbPolyline
 90
        3
 70
     0
 43
0.0
 10
2.338129440657212
 20
5.654027045071416
 10
2.53229627678229
 20
5.906823202945815
 10
2.702253192561329
 20
6.042767328122863
  0
LWPOLYLINE
  5
A9
330
1F
100
AcDbEntity
  8
Ceco.NEt 22
100
AcDbPolyline
 90
        3
 70
     0
 43
0.0
 10
2.535791053524008
 20
5.624523740665608
 10
2.729957889649085
 20
5.877319898540008
 10
2.899914805442676
 20
6.013264023717056
  0
LWPOLYLINE
  5
AA
330
1F
100
AcDbEntity
  8
Ceco.NEt 22
100
AcDbPolyline
 90
        7
 70
     0
 43
0.0
 10
1.808424689690582
 20
5.492728081113455
 10
1.991033385333139
 20
5.727354418631875
 10
2.077989907076698
 20
5.988050349205877
 10
2.312772515768301
 20
6.161847636256425
 10
2.417120341866393
 20
6.509442210357519
 10
2.59103338533896
 20
6.735378683522867
 10
2.608424689693492
 20
6.978694885390723
  0
LWPOLYLINE
  5
AB
330
1F
100
AcDbEntity
  8
Ceco.NEt 22
100
AcDbPolyline
 90
        3
 70
     0
 43
0.0
 10
2.320039606463978
 20
6.186055148631567
 10
2.529938667590613
 20
6.280707048361364
 10
2.738634319757693
 20
6.437124606705765
  0
LWPOLYLINE
  5
AC
330
1F
100
AcDbEntity
  8
Ceco.NEt 22
100
AcDbPolyline
 90
        3
 70
     0
 43
0.0
 10
2.400982935127103
 20
6.455686658078775
 10
2.610881996253738
 20
6.550338557808572
 10
2.81957764843537
 20
6.706756116156611
  0
LWPOLYLINE
  5
AD
330
1F
100
AcDbEntity
  8
Ceco.NEt 22
100
AcDbPolyline
 90
        3
 70
     0
 43
0.0
 10
2.535428057715762
 20
6.663139871747262
 10
2.745327118842396
 20
6.757791771477059
 10
2.954022771009476
 20
6.914209329825098
  0
LWPOLYLINE
  5
AE
330
1F
100
AcDbEntity
  8
Ceco.NEt 22
100
AcDbPolyline
 90
        3
 70
     0
 43
0.0
 10
2.593422033998649
 20
6.768797506367263
 10
2.551964843005407
 20
7.084848070360749
 10
2.576015517901396
 20
7.301152770800399
  0
ARC
  5
AF
330
1F
100
AcDbEntity
  8
Ceco.NEt 22
100
AcDbCircle
 10
-77.5149554762611
 20
0.1460702568183478
 30
0.0
 40
79.57773246968979
100
AcDbArc
 50
359.8948297009149
 51
3.338995099507899
  0
LWPOLYLINE
  5
B0
330
1F
100
AcDbEntity
  8
Ceco.NEt 22
100
AcDbPolyline
 90
        3
 70
     0
 43
0.0
 10
1.284123275952879
 20
4.164484742814238
 10
1.325580466946121
 20
3.848434178820753
 10
1.301529792050132
 20
3.632129478381102
  0
LWPOLYLINE
  5
B1
330
1F
100
AcDbEntity
  8
Ceco.NEt 22
100
AcDbPolyline
 90
        3
 70
     0
 43
0.0
 10
2.121961792145157
 20
4.151052955698105
 10
2.04046974281664
 20
3.935702906059304
 10
2.003503548156004
 20
3.677528878997691
  0
LWPOLYLINE
  5
B2
330
1F
100
AcDbEntity
  8
Ceco.NEt 22
100
AcDbPolyline
 90
        3
 70
     0
 43
0.0
 10
2.155665088183013
 20
4.035333791875018
 10
2.408461246057413
 20
3.841166955753578
 10
2.544405371227185
 20
3.671210039963625
  0
ARC
  5
B3
330
1F
100
AcDbEntity
  8
Ceco.NEt 22
100
AcDbCircle
 10
-78.90142945109983
 20
1.279047844745946
 30
0.0
 40
80.78720950810994
100
AcDbArc
 50
359.0928377688618
 51
2.550894965306801
  0
LWPOLYLINE
  5
B4
330
1F
100
AcDbEntity
  8
Ceco.NEt 22
100
AcDbPolyline
 90
        3
 70
     0
 43
0.0
 10
2.485102993930922
 20
6.597760834069049
 10
2.44364580293768
 20
6.913811398062534
 10
2.467696477833669
 20
7.130116098502185
  0
LWPOLYLINE
  5
B5
330
1F
100
AcDbEntity
  8
Ceco.NEt 22
100
AcDbPolyline
 90
        7
 70
     0
 43
0.0
 10
1.808424689690582
 20
5.492728081113455
 10
1.771642662381054
 20
5.787757802416308
 10
1.648790348233887
 20
6.033585208944714
 10
1.691913482718518
 20
6.322494823882152
 10
1.519912057701731
 20
6.642066359760065
 10
1.48312593778246
 20
6.924802664434537
 10
1.323372910715988
 20
7.109150709984533
  0
LWPOLYLINE
  5
B6
330
1F
100
AcDbEntity
  8
Ceco.NEt 22
100
AcDbPolyline
 90
        3
 70
     0
 43
0.0
 10
1.494887587221455
 20
6.834403206528804
 10
1.576379636564524
 20
7.049753256167605
 10
1.613345831210608
 20
7.307927283225581
  0
LWPOLYLINE
  5
B7
330
1F
100
AcDbEntity
  8
Ceco.NEt 22
100
AcDbPolyline
 90
        3
 70
     0
 43
0.0
 10
1.505532354247407
 20
6.752588051775092
 10
1.252736196373007
 20
6.946754887892893
 10
1.116792071203235
 20
7.116711803682846
  0
LWPOLYLINE
  5
B8
330
1F
100
AcDbEntity
  8
Ceco.NEt 22
100
AcDbPolyline
 90
        3
 70
     0
 43
0.0
 10
1.461184291198151
 20
6.950122370351891
 10
1.208388133323751
 20
7.144289206469693
 10
1.072444008153979
 20
7.314246122259646
  0
LWPOLYLINE
  5
B9
330
1F
100
AcDbEntity
  8
Ceco.NEt 22
100
AcDbPolyline
 90
        7
 70
     0
 43
0.0
 10
1.808424689690582
 20
5.492728081113455
 10
1.513394968380453
 20
5.455946053807565
 10
1.267567561852047
 20
5.333093739660398
 10
0.978657946921885
 20
5.376216874148667
 10
0.8763330198562471
 20
5.11725892738832
 10
0.593596715174499
 20
5.080472807476326
 10
0.4092486696317792
 20
4.92071978039894
  0
LWPOLYLINE
  5
BA
330
1F
100
AcDbEntity
  8
Ceco.NEt 22
100
AcDbPolyline
 90
        3
 70
     0
 43
0.0
 10
1.370679341096547
 20
5.384623879745049
 10
1.155329291461384
 20
5.466115929080842
 10
0.8971552643924951
 20
5.503082123734202
  0
LWPOLYLINE
  5
BB
330
1F
100
AcDbEntity
  8
Ceco.NEt 22
100
AcDbPolyline
 90
        3
 70
     0
 43
0.0
 10
0.9564020416582934
 20
5.364238187095907
 10
0.7410519920231309
 20
5.4457302364317
 10
0.7001245737774298
 20
5.395739909345138
  0
LWPOLYLINE
  5
BC
330
1F
100
AcDbEntity
  8
Ceco.NEt 22
100
AcDbPolyline
 90
        3
 70
     0
 43
0.0
 10
1.692996565398061
 20
5.478337393960828
 10
1.498829729272983
 20
5.225541236086428
 10
1.328872813493944
 20
5.08959711090938
  0
LWPOLYLINE
  5
BD
330
1F
100
AcDbEntity
  8
Ceco.NEt 22
100
AcDbPolyline
 90
        3
 70
     0
 43
0.0
 10
1.476551582061802
 20
5.437533561340387
 10
1.282384745936724
 20
5.184737403462349
 10
1.112427830143133
 20
5.04879327828894
  0
LWPOLYLINE
  5
BE
330
1F
100
AcDbEntity
  8
Ceco.NEt 22
100
AcDbPolyline
 90
        7
 70
     0
 43
0.0
 10
1.808424689690582
 20
5.492728081113455
 10
1.625815994033473
 20
5.258101743595034
 10
1.538859472289914
 20
4.997405813017394
 10
1.304076863598311
 20
4.823608525966847
 10
1.460424968085135
 20
4.423840038823982
 10
1.286511924612568
 20
4.197903565658634
 10
1.269120620258036
 20
3.95458736378714
  0
LWPOLYLINE
  5
BF
330
1F
100
AcDbEntity
  8
Ceco.NEt 22
100
AcDbPolyline
 90
        3
 70
     0
 43
0.0
 10
1.736980432731797
 20
5.400932319218554
 10
1.778437623725039
 20
5.084881755225069
 10
1.754386948829051
 20
4.868577054785419
  0
LWPOLYLINE
  5
C0
330
1F
100
AcDbEntity
  8
Ceco.NEt 22
100
AcDbPolyline
 90
        7
 70
     0
 43
0.0
 10
1.808424689690582
 20
5.492728081113455
 10
1.84520671700011
 20
5.197698359810601
 10
1.968059031147276
 20
4.951870953282195
 10
1.924935896648094
 20
4.662961338341119
 10
2.096937321679433
 20
4.343389802463207
 10
2.133723441584152
 20
4.060653497792372
 10
2.293476468665176
 20
3.876305452238739
  0
LWPOLYLINE
  5
C1
330
1F
100
AcDbEntity
  8
Ceco.NEt 22
100
AcDbPolyline
 90
        3
 70
     0
 43
0.0
 10
1.380973866936983
 20
4.642812982405303
 10
1.171074805810349
 20
4.548161082675505
 10
0.962379153643269
 20
4.391743524331104
  0
LWPOLYLINE
  5
C2
330
1F
100
AcDbEntity
  8
Ceco.NEt 22
100
AcDbPolyline
 90
        3
 70
     0
 43
0.0
 10
1.296809772917185
 20
4.799401013595343
 10
1.086910711790551
 20
4.704749113861907
 10
0.8782150596089195
 20
4.548331555517506
  0
LWPOLYLINE
  5
C3
330
1F
100
AcDbEntity
  8
Ceco.NEt 22
100
AcDbPolyline
 90
        3
 70
     0
 43
0.0
 10
1.547922459460096
 20
5.004114668463444
 10
1.589379650453338
 20
4.688064104469958
 10
1.565328975557349
 20
4.471759404030308
  0
LWPOLYLINE
  5
C4
330
1F
100
AcDbEntity
  8
Ceco.NEt 22
100
AcDbPolyline
 90
        3
 70
     0
 43
0.0
 10
1.387292606013943
 20
4.885208788233285
 10
1.497258758899988
 20
4.586019712725828
 10
1.521379695623181
 20
4.369722836170694
  0
LWPOLYLINE
  5
C5
330
1F
100
AcDbEntity
  8
Ceco.NEt 22
100
AcDbPolyline
 90
        3
 70
     0
 43
0.0
 10
1.936914583697216
 20
4.640705433084804
 10
1.855422534368699
 20
4.425355383446003
 10
1.818456339708063
 20
4.167181356388027
  0
LWPOLYLINE
  5
C6
330
1F
100
AcDbEntity
  8
Ceco.NEt 22
100
AcDbPolyline
 90
        3
 70
     0
 43
0.0
 10
1.94022034923546
 20
4.765361717269115
 10
2.193016507109859
 20
4.571194881151313
 10
2.328960632294183
 20
4.40123796536136
  0
LWPOLYLINE
  5
C7
330
1F
100
AcDbEntity
  8
Ceco.NEt 22
100
AcDbPolyline
 90
        3
 70
     0
 43
0.0
 10
1.476562374824425
 20
4.477595591102726
 10
1.26666331369779
 20
4.382943691369291
 10
1.057967661516158
 20
4.22652613302489
  0
LWPOLYLINE
  5
C8
330
1F
100
AcDbEntity
  8
Ceco.NEt 22
100
AcDbPolyline
 90
        3
 70
     0
 43
0.0
 10
1.342117252235766
 20
4.27014237743424
 10
1.132218191109132
 20
4.175490477704443
 10
0.923522538942052
 20
4.019072919356403
  0
LWPOLYLINE
  5
C9
330
1F
100
AcDbEntity
  8
Ceco.NEt 22
100
AcDbPolyline
 90
        3
 70
     0
 43
0.0
 10
1.392442316020606
 20
4.335521415112452
 10
1.433899507013848
 20
4.019470851118967
 10
1.409848832117859
 20
3.803166150679317
  0
LWPOLYLINE
  5
CA
330
1F
100
AcDbEntity
  8
Ceco.NEt 22
100
AcDbPolyline
 90
        3
 70
     0
 43
0.0
 10
2.070337275858037
 20
4.392811587738833
 10
1.98884522652952
 20
4.177461538100033
 10
1.951879031868884
 20
3.919287511038419
  0
LWPOLYLINE
  5
CB
330
1F
100
AcDbEntity
  8
Ceco.NEt 22
100
AcDbPolyline
 90
        3
 70
     0
 43
0.0
 10
1.987101229446125
 20
4.547460720383242
 10
2.239897387320525
 20
4.35329388426544
 10
2.375841512504848
 20
4.183336968471849
  0
LWPOLYLINE
  5
CC
330
1F
100
AcDbEntity
  8
Ceco.NEt 22
100
AcDbPolyline
 90
        3
 70
     0
 43
0.0
 10
2.111317025119205
 20
4.23286811044818
 10
2.364113182993605
 20
4.038701274330378
 10
2.500057308177929
 20
3.868744358540425
  0
LWPOLYLINE
  5
CD
330
1F
100
AcDbEntity
  8
Ceco.NEt 22
100
AcDbPolyline
 90
        3
 70
     0
 43
0.0
 10
1.278719938723952
 20
5.331429117155494
 10
1.084553102598874
 20
5.078632959277456
 10
0.9145961868052836
 20
4.942688834104046
  0
LWPOLYLINE
  5
CE
330
1F
100
AcDbEntity
  8
Ceco.NEt 22
100
AcDbPolyline
 90
        3
 70
     0
 43
0.0
 10
1.57533319912909
 20
5.10675416282902
 10
1.365434138002456
 20
5.012102263095584
 10
1.156738485820824
 20
4.855684704751183
  0
LWPOLYLINE
  5
CF
330
1F
100
AcDbEntity
  8
Ceco.NEt 22
100
AcDbPolyline
 90
        3
 70
     0
 43
0.0
 10
0.9257548051245976
 20
5.143858973198803
 10
0.7104047554894351
 20
5.225351022534596
 10
0.4522307284350973
 20
5.262317217187955
  0
LWPOLYLINE
  5
D0
330
1F
100
AcDbEntity
  8
Ceco.NEt 22
100
AcDbPolyline
 90
        3
 70
     0
 43
0.0
 10
0.6839961730875075
 20
5.092234456911683
 10
0.4686461234523449
 20
5.173726506247476
 10
0.2104720963834552
 20
5.210692700900835
  0
LWPOLYLINE
  5
D1
330
1F
100
AcDbEntity
  8
Ceco.NEt 22
100
AcDbPolyline
 90
        3
 70
     0
 43
0.0
 10
1.081058325842604
 20
5.360932421557663
 10
0.8868914897320792
 20
5.108136263683263
 10
0.9341811827471246
 20
4.885235616769932
  0
LWPOLYLINE
  5
D2
330
1F
100
AcDbEntity
  8
Ceco.NEt 22
100
AcDbPolyline
 90
        3
 70
     0
 43
0.0
 10
0.7658113278448582
 20
5.102879223937634
 10
0.5716444917197805
 20
4.850083066063234
 10
0.4016875759261893
 20
4.714138940886186
  0
LWPOLYLINE
  5
D3
330
1F
100
AcDbEntity
  8
Ceco.NEt 22
100
AcDbPolyline
 90
        3
 70
     0
 43
0.0
 10
0.5682770092680585
 20
5.05853116088474
 10
0.3741101731429808
 20
4.80573500301034
 10
0.2041532573493896
 20
4.669790877833293
  0
LWPOLYLINE
  5
D4
330
1F
100
AcDbEntity
  8
Ceco.NEt 22
100
AcDbPolyline
 90
        3
 70
     0
 43
0.0
 10
1.679193316027522
 20
5.32668405026925
 10
1.469294254900887
 20
5.232032150535815
 10
1.260598602733807
 20
5.075614592191413
  0
LWPOLYLINE
  5
D5
330
1F
100
AcDbEntity
  8
Ceco.NEt 22
100
AcDbPolyline
 90
        3
 70
     0
 43
0.0
 10
1.612783384000067
 20
5.219029936997685
 10
1.654240574993309
 20
4.902979373007838
 10
1.630189900111872
 20
4.686674672568187
  0
LWPOLYLINE
  5
D6
330
1F
100
AcDbEntity
  8
Ceco.NEt 22
100
AcDbPolyline
 90
        3
 70
     0
 43
0.0
 10
1.83445516921347
 20
5.283936840271053
 10
1.752963119884952
 20
5.068586790632252
 10
1.715996925224317
 20
4.810412763574277
  0
LWPOLYLINE
  5
D7
330
1F
100
AcDbEntity
  8
Ceco.NEt 22
100
AcDbPolyline
 90
        3
 70
     0
 43
0.0
 10
1.916528891058987
 20
5.05498273251942
 10
1.835036841715918
 20
4.839632682880619
 10
1.798070647069835
 20
4.581458655822643
  0
LWPOLYLINE
  5
D8
330
1F
100
AcDbEntity
  8
Ceco.NEt 22
100
AcDbPolyline
 90
        3
 70
     0
 43
0.0
 10
1.822815376843209
 20
5.377299956824572
 10
2.075611534717609
 20
5.183133120703132
 10
2.21155565988738
 20
5.013176204913179
  0
LWPOLYLINE
  5
D9
330
1F
100
AcDbEntity
  8
Ceco.NEt 22
100
AcDbPolyline
 90
        3
 70
     0
 43
0.0
 10
1.863619209456373
 20
5.160854973484674
 10
2.116415367330773
 20
4.966688137363235
 10
2.252359492515097
 20
4.796731221573281
  0
LWPOLYLINE
  5
DA
330
1F
100
AcDbEntity
  8
Ceco.NEt 22
100
AcDbPolyline
 90
        3
 70
     0
 43
0.0
 10
1.969723653644905
 20
4.963023330143187
 10
2.222519811519305
 20
4.768856494025385
 10
2.358463936689076
 20
4.598899578231794
  0
LWPOLYLINE
  5
DB
330
1F
100
AcDbEntity
  8
Ceco.NEt 22
100
AcDbPolyline
 90
        3
 70
     0
 43
0.0
 10
1.974468720538425
 20
5.36349670745767
 10
2.069120620260946
 20
5.153597646331036
 10
2.225538178608985
 20
4.94490199415668
  0
LWPOLYLINE
  5
DC
330
1F
100
AcDbEntity
  8
Ceco.NEt 22
100
AcDbPolyline
 90
        3
 70
     0
 43
0.0
 10
2.194398607971379
 20
5.259636590551963
 10
2.289050507708452
 20
5.049737529425328
 10
2.445468066041939
 20
4.841041877250972
  0
LWPOLYLINE
  5
DD
330
1F
100
AcDbEntity
  8
Ceco.NEt 22
100
AcDbPolyline
 90
        3
 70
     0
 43
0.0
 10
2.004065995366545
 20
5.766426225225586
 10
1.962608804373303
 20
6.082476789219072
 10
1.986659479269292
 20
6.298781489658722
  0
LWPOLYLINE
  5
DE
330
1F
100
AcDbEntity
  8
Ceco.NEt 22
100
AcDbPolyline
 90
        3
 70
     0
 43
0.0
 10
2.068926919906516
 20
5.981341493763466
 10
2.027469728927826
 20
6.297392057756951
 10
2.051520403809263
 20
6.513696758192963
  0
LWPOLYLINE
  5
DF
330
1F
100
AcDbEntity
  8
Ceco.NEt 22
100
AcDbPolyline
 90
        3
 70
     0
 43
0.0
 10
2.229556773367221
 20
6.100247373993624
 10
2.188099582373979
 20
6.41629793798711
 10
2.212150257269968
 20
6.632602638423122
  0
LWPOLYLINE
  5
E0
330
1F
100
AcDbEntity
  8
Ceco.NEt 22
100
AcDbPolyline
 90
        3
 70
     0
 43
0.0
 10
1.700320488322176
 20
5.930473429703852
 10
1.781812537650694
 20
6.145823479342652
 10
1.818778732311329
 20
6.403997506404266
  0
LWPOLYLINE
  5
E1
330
1F
100
AcDbEntity
  8
Ceco.NEt 22
100
AcDbPolyline
 90
        3
 70
     0
 43
0.0
 10
1.647125725721707
 20
6.022432832080085
 10
1.394329567847307
 20
6.216599668201524
 10
1.258385442677536
 20
6.386556583991477
  0
LWPOLYLINE
  5
E2
330
1F
100
AcDbEntity
  8
Ceco.NEt 22
100
AcDbPolyline
 90
        3
 70
     0
 43
0.0
 10
1.676629030131152
 20
6.220094444954156
 10
1.423832872256753
 20
6.414261281071958
 10
1.287888747086981
 20
6.584218196861911
  0
LWPOLYLINE
  5
E3
330
1F
100
AcDbEntity
  8
Ceco.NEt 22
100
AcDbPolyline
 90
        3
 70
     0
 43
0.0
 10
0.5323552644258598
 20
6.277725425421522
 10
0.2163047004432883
 20
6.236268234431918
 10
0.0
 20
6.260318909324269
  0
LWPOLYLINE
  5
E4
330
1F
100
AcDbEntity
  8
Ceco.NEt 22
100
AcDbPolyline
 90
        3
 70
     0
 43
0.0
 10
0.6380128990567755
 20
6.219731449138635
 10
0.5433609993197024
 20
6.429630510265269
 10
0.3869434409716632
 20
6.638326162439625
  0
LWPOLYLINE
  5
E5
330
1F
100
AcDbEntity
  8
Ceco.NEt 22
100
AcDbPolyline
 90
        3
 70
     0
 43
0.0
 10
0.8454661127179861
 20
6.085286326553614
 10
0.750814212995465
 20
6.295185387680248
 10
0.5943966546474258
 20
6.503881039854604
  0
LWPOLYLINE
  5
E6
330
1F
100
AcDbEntity
  8
Ceco.NEt 22
100
AcDbPolyline
 90
        3
 70
     0
 43
0.0
 10
1.115097622168832
 20
6.004342997883213
 10
1.020445722446311
 20
6.214242059009848
 10
0.8640281640982721
 20
6.422937711184204
  0
LWPOLYLINE
  5
E7
330
1F
100
AcDbEntity
  8
Ceco.NEt 22
100
AcDbPolyline
 90
        7
 70
     0
 43
0.0
 10
1.808424689690582
 20
5.492728081113455
 10
1.573798352168523
 20
5.675336776763288
 10
1.313102421598159
 20
5.762293298503209
 10
1.139305134536698
 20
5.99707590719845
 10
0.7917105604428798
 20
6.101423733285628
 10
0.5657740872702562
 20
6.27533677676547
 10
0.3224578854133142
 20
6.292728081112727
  0
LWPOLYLINE
  5
E8
330
1F
100
AcDbEntity
  8
Ceco.NEt 22
100
AcDbPolyline
 90
        3
 70
     0
 43
0.0
 10
1.599633448844542
 20
5.466697601579653
 10
1.38428339920938
 20
5.548189650915446
 10
1.126109372155042
 20
5.585155845568806
  0
LWPOLYLINE
  5
E9
330
1F
100
AcDbEntity
  8
Ceco.NEt 22
100
AcDbPolyline
 90
        3
 70
     0
 43
0.0
 10
1.200905396806774
 20
5.913860164790094
 10
0.8848548328096512
 20
5.87240297380049
 10
0.6685501323809149
 20
5.896453648689202
  0
LWPOLYLINE
  5
EA
330
1F
100
AcDbEntity
  8
Ceco.NEt 22
100
AcDbPolyline
 90
        3
 70
     0
 43
0.0
 10
1.319811277033295
 20
5.753230311336665
 10
1.003760713036172
 20
5.711773120347061
 10
0.7874560126074357
 20
5.735823795235774
  0
LWPOLYLINE
  5
EB
330
1F
100
AcDbEntity
  8
Ceco.NEt 22
100
AcDbPolyline
 90
        3
 70
     0
 43
0.0
 10
1.53472654557845
 20
5.688369386793056
 10
1.218675981581327
 20
5.646912195803452
 10
1.002371281138039
 20
5.670962870695802
  0
LWPOLYLINE
  5
EC
330
1F
100
AcDbEntity
  8
Ceco.NEt 22
100
AcDbPolyline
 90
        3
 70
     0
 43
0.0
 10
1.716628927795682
 20
5.564172338064963
 10
1.400578363798558
 20
5.522715147075359
 10
1.18427366335527
 20
5.54676582196771
  0
LWPOLYLINE
  5
ED
330
1F
100
AcDbEntity
  8
Ceco.NEt 22
100
AcDbPolyline
 90
        3
 70
     0
 43
0.0
 10
1.422450771409785
 20
5.725819571674946
 10
1.327798871672712
 20
5.935718632801581
 10
1.171381313324673
 20
6.144414284975937
  0
LWPOLYLINE
  5
EE
330
1F
100
AcDbEntity
  8
Ceco.NEt 22
100
AcDbPolyline
 90
        3
 70
     0
 43
0.0
 10
0.7033919367240742
 20
6.169406385357433
 10
0.3873413727415027
 20
6.127949194367829
 10
0.1710366722982144
 20
6.15199986926018
  0
LWPOLYLINE
  5
EF
330
1F
100
AcDbEntity
  8
Ceco.NEt 22
100
AcDbPolyline
 90
        3
 70
     0
 43
0.0
 10
1.013676335976924
 20
6.034789649016602
 10
0.6976257719798014
 20
5.99333245802336
 10
0.481321071551065
 20
6.017383132915711
  0
LWPOLYLINE
  5
F0
330
1F
100
AcDbEntity
  8
Ceco.NEt 22
100
AcDbPolyline
 90
        3
 70
     0
 43
0.0
 10
1.900220451585482
 20
5.421283824158308
 10
2.216271015582606
 20
5.462741015147912
 10
2.432575716011342
 20
5.438690340255561
  0
LWPOLYLINE
  5
F1
330
1F
100
AcDbEntity
  8
Ceco.NEt 22
100
AcDbPolyline
 90
        3
 70
     0
 43
0.0
 10
2.01721593052207
 20
5.518758560643618
 10
2.232565980171784
 20
5.437266511307825
 10
2.490740007226122
 20
5.400300316654465
  0
LWPOLYLINE
  5
F2
330
1F
100
AcDbEntity
  8
Ceco.NEt 22
100
AcDbPolyline
 90
        3
 70
     0
 43
0.0
 10
1.923852813983103
 20
5.507118768262444
 10
2.118019650093629
 20
5.759914926136843
 10
2.28797656588722
 20
5.895859051313891
  0
LWPOLYLINE
  5
F3
330
1F
100
AcDbEntity
  8
Ceco.NEt 22
100
AcDbPolyline
 90
        3
 70
     0
 43
0.0
 10
2.140297797319362
 20
5.547922600886522
 10
2.334464633429888
 20
5.800718758760922
 10
2.504421549223479
 20
5.936662883934332
  0
LWPOLYLINE
  5
F4
330
1F
100
AcDbEntity
  8
Ceco.NEt 22
100
AcDbPolyline
 90
        3
 70
     0
 43
0.0
 10
1.93765606333909
 20
5.658772111957659
 10
2.147555124465725
 20
5.753424011687457
 10
2.356250776647357
 20
5.909841570031858
  0
LWPOLYLINE
  5
F5
330
1F
100
AcDbEntity
  8
Ceco.NEt 22
100
AcDbPolyline
 90
        3
 70
     0
 43
0.0
 10
2.041516180252074
 20
5.87870199939789
 10
2.251415241378708
 20
5.973353899127687
 10
2.460110893545788
 20
6.129771457472088
  0
LWPOLYLINE
  5
F6
330
1F
100
AcDbEntity
  8
Ceco.NEt 22
100
AcDbPolyline
 90
        3
 70
     0
 43
0.0
 10
1.879868946649366
 20
5.584523843008355
 10
1.838411755656125
 20
5.900574406998202
 10
1.862462430537561
 20
6.116879107437853
  0
LWPOLYLINE
  5
F7
330
1F
100
AcDbEntity
  8
Ceco.NEt 22
100
AcDbPolyline
 90
        3
 70
     0
 43
0.0
 10
1.782394210153142
 20
5.701519321952218
 10
1.863886259496212
 20
5.916869371591019
 10
1.900852454142295
 20
6.175043398648995
  0
LWPOLYLINE
  5
F8
330
1F
100
AcDbEntity
  8
Ceco.NEt 22
100
AcDbPolyline
 90
        3
 70
     0
 43
0.0
 10
1.794034002537955
 20
5.608156205402337
 10
1.541237844663555
 20
5.802323041520139
 10
1.405293719493784
 20
5.972279957310092
  0
LWPOLYLINE
  5
F9
330
1F
100
AcDbEntity
  8
Ceco.NEt 22
100
AcDbPolyline
 90
        3
 70
     0
 43
0.0
 10
1.753230169910239
 20
5.824601188742235
 10
1.500434012035839
 20
6.018768024860037
 10
1.364489886866067
 20
6.18872494064999
  0
LWPOLYLINE
  5
FA
330
1F
100
AcDbEntity
  8
Ceco.NEt 22
100
AcDbPolyline
 90
        3
 70
     0
 43
0.0
 10
1.642380658842739
 20
5.621959454769239
 10
1.547728759120218
 20
5.831858515895874
 10
1.391311200772179
 20
6.040554168070229
  0
LWPOLYLINE
  5
FB
330
1F
100
AcDbEntity
  8
Ceco.NEt 22
100
AcDbPolyline
 90
        3
 70
     0
 43
0.0
 10
2.350486257593729
 20
6.287476434819836
 10
2.309029066600487
 20
6.603526998813322
 10
2.333079741496476
 20
6.819831699252972
  0
LWPOLYLINE
  5
FC
330
1F
100
AcDbEntity
  8
Ceco.NEt 22
100
AcDbPolyline
 90
        3
 70
     0
 43
0.0
 10
1.679934795669396
 20
6.344750729138468
 10
1.761426845012465
 20
6.560100778777268
 10
1.798393039658549
 20
6.818274805838882
  0
LWPOLYLINE
  5
FD
330
1F
100
AcDbEntity
  8
Ceco.NEt 22
100
AcDbPolyline
 90
        3
 70
     0
 43
0.0
 10
1.546512103508575
 20
6.592644574488076
 10
1.628004152851644
 20
6.807994624126877
 10
1.664970347497728
 20
7.066168651184852
  0
LWPOLYLINE
  5
FE
330
1F
100
AcDbEntity
  8
Ceco.NEt 22
100
AcDbPolyline
 90
        3
 70
     0
 43
0.0
 10
1.629748149920487
 20
6.43799544184003
 10
1.376951992046087
 20
6.632162277961469
 10
1.241007866876316
 20
6.802119193751423
  0
LWPOLYLINE
  5
FF
330
1F
100
AcDbEntity
  8
Ceco.NEt 22
100
AcDbPolyline
 90
        3
 70
     0
 43
0.0
 10
2.771383266648626
 20
4.900169835669657
 10
2.866035166385699
 20
4.690270774543023
 10
3.022452724733739
 20
4.481575122368667
  0
LWPOLYLINE
  5
100
330
1F
100
AcDbEntity
  8
Ceco.NEt 22
100
AcDbPolyline
 90
        3
 70
     0
 43
0.0
 10
2.978836480324389
 20
4.765724713084637
 10
3.073488380061462
 20
4.555825651958002
 10
3.229905938394949
 20
4.347129999787284
  0
LWPOLYLINE
  5
101
330
1F
100
AcDbEntity
  8
Ceco.NEt 22
100
AcDbPolyline
 90
        3
 70
     0
 43
0.0
 10
2.60317304340424
 20
4.950666513210308
 10
2.919223607386811
 20
4.992123704199912
 10
3.135528307830099
 20
4.968073029307561
  0
LWPOLYLINE
  5
102
330
1F
100
AcDbEntity
  8
Ceco.NEt 22
100
AcDbPolyline
 90
        3
 70
     0
 43
0.0
 10
2.913457442642538
 20
4.816049776865838
 10
3.229508006639662
 20
4.85750696785908
 10
3.445812707068398
 20
4.833456292966729
  0
LWPOLYLINE
  5
103
330
1F
100
AcDbEntity
  8
Ceco.NEt 22
100
AcDbPolyline
 90
        3
 70
     0
 43
0.0
 10
3.084494114940753
 20
4.70773073680175
 10
3.400544678937876
 20
4.749187927791354
 10
3.616849379381164
 20
4.725137252902641
  0
LWPOLYLINE
  5
104
330
1F
100
AcDbEntity
  8
Ceco.NEt 22
100
AcDbPolyline
 90
        3
 70
     0
 43
0.0
 10
2.660447337708319
 20
5.621217975131003
 10
2.875797387358034
 20
5.53972592579521
 10
3.133971414412371
 20
5.50275973114185
  0
LWPOLYLINE
  5
105
330
1F
100
AcDbEntity
  8
Ceco.NEt 22
100
AcDbPolyline
 90
        3
 70
     0
 43
0.0
 10
2.908341183065203
 20
5.754640667288185
 10
3.123691232700366
 20
5.673148617952392
 10
3.381865259754704
 20
5.636182423299032
  0
LWPOLYLINE
  5
106
330
1F
100
AcDbEntity
  8
Ceco.NEt 22
100
AcDbPolyline
 90
        3
 70
     0
 43
0.0
 10
3.150099815102294
 20
5.806265183575305
 10
3.365449864737456
 20
5.724773134239512
 10
3.623623891806346
 20
5.687806939586153
  0
LWPOLYLINE
  5
107
330
1F
100
AcDbEntity
  8
Ceco.NEt 22
100
AcDbPolyline
 90
        3
 70
     0
 43
0.0
 10
2.753692050420795
 20
5.671404620872635
 10
2.947858886531321
 20
5.924200778747035
 10
3.117815802324912
 20
6.060144903924083
  0
LWPOLYLINE
  5
108
330
1F
100
AcDbEntity
  8
Ceco.NEt 22
100
AcDbPolyline
 90
        3
 70
     0
 43
0.0
 10
3.068284660344943
 20
5.795620416545716
 10
3.262451496470021
 20
6.048416574423754
 10
3.432408412263612
 20
6.184360699597164
  0
LWPOLYLINE
  5
109
330
1F
100
AcDbEntity
  8
Ceco.NEt 22
100
AcDbPolyline
 90
        3
 70
     0
 43
0.0
 10
3.265818978921743
 20
5.83996847959861
 10
3.45998581504682
 20
6.092764637476648
 10
3.629942730840411
 20
6.228708762650057
  0
ENDSEC
  0
SECTION
  2
OBJECTS
  0
DICTIONARY
  5
C
330
0
100
AcDbDictionary
281
     1
  3
ACAD_GROUP
350
D
  3
ACAD_LAYOUT
350
1A
  3
ACAD_MLINESTYLE
350
17
  3
ACAD_PLOTSETTINGS
350
19
  3
ACAD_PLOTSTYLENAME
350
E
  3
AcDbVariableDictionary
350
10C
  0
DICTIONARY
  5
2C
330
2B
100
AcDbDictionary
280
     1
281
     1
  3
ACAD_XREC_ROUNDTRIP
360
2D
  0
DICTIONARY
  5
D
102
{ACAD_REACTORS
330
C
102
}
330
C
100
AcDbDictionary
281
     1
  0
DICTIONARY
  5
1A
102
{ACAD_REACTORS
330
C
102
}
330
C
100
AcDbDictionary
281
     1
  3
Layout1
350
1E
  3
Layout2
350
26
  3
Model
350
22
  0
DICTIONARY
  5
17
102
{ACAD_REACTORS
330
C
102
}
330
C
100
AcDbDictionary
281
     1
  3
Standard
350
18
  0
DICTIONARY
  5
19
102
{ACAD_REACTORS
330
C
102
}
330
C
100
AcDbDictionary
281
     1
  0
ACDBDICTIONARYWDFLT
  5
E
102
{ACAD_REACTORS
330
C
102
}
330
C
100
AcDbDictionary
281
     1
  3
Normal
350
F
100
AcDbDictionaryWithDefault
340
F
  0
DICTIONARY
  5
10C
102
{ACAD_REACTORS
330
C
102
}
330
C
100
AcDbDictionary
281
     1
  3
DIMASSOC
350
10E
  3
HIDETEXT
350
10D
  0
XRECORD
  5
2D
102
{ACAD_REACTORS
330
2C
102
}
330
2C
100
AcDbXrecord
280
     1
102
MATERIAL
340
0
  0
LAYOUT
  5
1E
102
{ACAD_REACTORS
330
1A
102
}
330
1A
100
AcDbPlotSettings
  1

  2
Microsoft Office Document Image Writer
  4

  6

 40
0.0
 41
0.0
 42
0.0
 43
0.0
 44
0.0
 45
0.0
 46
0.0
 47
0.0
 48
0.0
 49
0.0
140
0.0
141
0.0
142
1.0
143
1.0
 70
   688
 72
     0
 73
     0
 74
     5
  7

 75
    16
147
1.0
148
0.0
149
0.0
100
AcDbLayout
  1
Layout1
 70
     1
 71
     1
 10
0.0
 20
0.0
 11
420.0
 21
297.0
 12
0.0
 22
0.0
 32
0.0
 14
1.000000000000000E+20
 24
1.000000000000000E+20
 34
1.000000000000000E+20
 15
-1.000000000000000E+20
 25
-1.000000000000000E+20
 35
-1.000000000000000E+20
146
0.0
 13
0.0
 23
0.0
 33
0.0
 16
1.0
 26
0.0
 36
0.0
 17
0.0
 27
1.0
 37
0.0
 76
     0
330
1B
  0
LAYOUT
  5
26
102
{ACAD_REACTORS
330
1A
102
}
330
1A
100
AcDbPlotSettings
  1

  2
Microsoft Office Document Image Writer
  4

  6

 40
0.0
 41
0.0
 42
0.0
 43
0.0
 44
0.0
 45
0.0
 46
0.0
 47
0.0
 48
0.0
 49
0.0
140
0.0
141
0.0
142
1.0
143
1.0
 70
   688
 72
     0
 73
     0
 74
     5
  7

 75
    16
147
1.0
148
0.0
149
0.0
100
AcDbLayout
  1
Layout2
 70
     1
 71
     2
 10
0.0
 20
0.0
 11
12.0
 21
9.0
 12
0.0
 22
0.0
 32
0.0
 14
0.0
 24
0.0
 34
0.0
 15
0.0
 25
0.0
 35
0.0
146
0.0
 13
0.0
 23
0.0
 33
0.0
 16
1.0
 26
0.0
 36
0.0
 17
0.0
 27
1.0
 37
0.0
 76
     0
330
23
  0
LAYOUT
  5
22
102
{ACAD_REACTORS
330
1A
102
}
330
1A
100
AcDbPlotSettings
  1

  2
Microsoft Office Document Image Writer
  4

  6

 40
0.0
 41
0.0
 42
0.0
 43
0.0
 44
0.0
 45
0.0
 46
0.0
 47
0.0
 48
0.0
 49
0.0
140
0.0
141
0.0
142
1.0
143
1.0
 70
  1712
 72
     0
 73
     0
 74
     0
  7

 75
     0
147
1.0
148
0.0
149
0.0
100
AcDbLayout
  1
Model
 70
     1
 71
     0
 10
0.0
 20
0.0
 11
12.0
 21
9.0
 12
0.0
 22
0.0
 32
0.0
 14
0.0
 24
0.0
 34
0.0
 15
0.0
 25
0.0
 35
0.0
146
0.0
 13
0.0
 23
0.0
 33
0.0
 16
1.0
 26
0.0
 36
0.0
 17
0.0
 27
1.0
 37
0.0
 76
     0
330
1F
  0
MLINESTYLE
  5
18
102
{ACAD_REACTORS
330
17
102
}
330
17
100
AcDbMlineStyle
  2
STANDARD
 70
     0
  3

 62
   256
 51
90.0
 52
90.0
 71
     2
 49
0.5
 62
   256
  6
BYLAYER
 49
-0.5
 62
   256
  6
BYLAYER
  0
ACDBPLACEHOLDER
  5
F
102
{ACAD_REACTORS
330
E
102
}
330
E
  0
DICTIONARYVAR
  5
10E
102
{ACAD_REACTORS
330
10C
102
}
330
10C
100
DictionaryVariables
280
     0
  1
2
  0
DICTIONARYVAR
  5
10D
102
{ACAD_REACTORS
330
10C
102
}
330
10C
100
DictionaryVariables
280
     0
  1
1
  0
ENDSEC
  0
EOF
