  0
SECTION
  2
HEADER
  9
$ACADVER
  1
AC1015
  9
$ACADMAINTVER
 70
    13
  9
$DWGCODEPAGE
  3
ANSI_1252
  9
$INSBASE
 10
0.0
 20
0.0
 30
0.0
  9
$EXTMIN
 10
-0.205077147350039
 20
-0.0090630292066862
 30
-0.0015258207003583
  9
$EXTMAX
 10
1.813660159024493
 20
1.327835430307118
 30
0.0000000349246037
  9
$LIMMIN
 10
0.0
 20
0.0
  9
$LIMMAX
 10
420.0
 20
297.0
  9
$ORTHOMODE
 70
     0
  9
$REGENMODE
 70
     1
  9
$FILLMODE
 70
     1
  9
$QTEXTMODE
 70
     0
  9
$MIRRTEXT
 70
     1
  9
$LTSCALE
 40
1.0
  9
$ATTMODE
 70
     1
  9
$TEXTSIZE
 40
2.5
  9
$TRACEWID
 40
1.0
  9
$TEXTSTYLE
  7
Standard
  9
$CLAYER
  8
Ceco.NET 29
  9
$CELTYPE
  6
ByLayer
  9
$CECOLOR
 62
   256
  9
$CELTSCALE
 40
1.0
  9
$DISPSILH
 70
     0
  9
$DIMSCALE
 40
1.0
  9
$DIMASZ
 40
2.5
  9
$DIMEXO
 40
0.625
  9
$DIMDLI
 40
3.75
  9
$DIMRND
 40
0.0
  9
$DIMDLE
 40
0.0
  9
$DIMEXE
 40
1.25
  9
$DIMTP
 40
0.0
  9
$DIMTM
 40
0.0
  9
$DIMTXT
 40
2.5
  9
$DIMCEN
 40
2.5
  9
$DIMTSZ
 40
0.0
  9
$DIMTOL
 70
     0
  9
$DIMLIM
 70
     0
  9
$DIMTIH
 70
     0
  9
$DIMTOH
 70
     0
  9
$DIMSE1
 70
     0
  9
$DIMSE2
 70
     0
  9
$DIMTAD
 70
     1
  9
$DIMZIN
 70
     8
  9
$DIMBLK
  1

  9
$DIMASO
 70
     1
  9
$DIMSHO
 70
     1
  9
$DIMPOST
  1

  9
$DIMAPOST
  1

  9
$DIMALT
 70
     0
  9
$DIMALTD
 70
     3
  9
$DIMALTF
 40
0.03937007874016
  9
$DIMLFAC
 40
1.0
  9
$DIMTOFL
 70
     1
  9
$DIMTVP
 40
0.0
  9
$DIMTIX
 70
     0
  9
$DIMSOXD
 70
     0
  9
$DIMSAH
 70
     0
  9
$DIMBLK1
  1

  9
$DIMBLK2
  1

  9
$DIMSTYLE
  2
ISO-25
  9
$DIMCLRD
 70
     0
  9
$DIMCLRE
 70
     0
  9
$DIMCLRT
 70
     0
  9
$DIMTFAC
 40
1.0
  9
$DIMGAP
 40
0.625
  9
$DIMJUST
 70
     0
  9
$DIMSD1
 70
     0
  9
$DIMSD2
 70
     0
  9
$DIMTOLJ
 70
     0
  9
$DIMTZIN
 70
     8
  9
$DIMALTZ
 70
     0
  9
$DIMALTTZ
 70
     0
  9
$DIMUPT
 70
     0
  9
$DIMDEC
 70
     2
  9
$DIMTDEC
 70
     2
  9
$DIMALTU
 70
     2
  9
$DIMALTTD
 70
     3
  9
$DIMTXSTY
  7
Standard
  9
$DIMAUNIT
 70
     0
  9
$DIMADEC
 70
     0
  9
$DIMALTRND
 40
0.0
  9
$DIMAZIN
 70
     0
  9
$DIMDSEP
 70
    44
  9
$DIMATFIT
 70
     3
  9
$DIMFRAC
 70
     0
  9
$DIMLDRBLK
  1

  9
$DIMLUNIT
 70
     2
  9
$DIMLWD
 70
    -2
  9
$DIMLWE
 70
    -2
  9
$DIMTMOVE
 70
     0
  9
$LUNITS
 70
     2
  9
$LUPREC
 70
     2
  9
$SKETCHINC
 40
1.0
  9
$FILLETRAD
 40
10.0
  9
$AUNITS
 70
     0
  9
$AUPREC
 70
     0
  9
$MENU
  1
.
  9
$ELEVATION
 40
0.0
  9
$PELEVATION
 40
0.0
  9
$THICKNESS
 40
0.0
  9
$LIMCHECK
 70
     0
  9
$CHAMFERA
 40
10.0
  9
$CHAMFERB
 40
10.0
  9
$CHAMFERC
 40
20.0
  9
$CHAMFERD
 40
0.0
  9
$SKPOLY
 70
     0
  9
$TDCREATE
 40
2455085.907985023
  9
$TDUCREATE
 40
2455086.032985023
  9
$TDUPDATE
 40
2455085.909439919
  9
$TDUUPDATE
 40
2455086.034439919
  9
$TDINDWG
 40
0.0014563426
  9
$TDUSRTIMER
 40
0.0014554398
  9
$USRTIMER
 70
     1
  9
$ANGBASE
 50
0.0
  9
$ANGDIR
 70
     0
  9
$PDMODE
 70
     0
  9
$PDSIZE
 40
0.0
  9
$PLINEWID
 40
0.0
  9
$SPLFRAME
 70
     0
  9
$SPLINETYPE
 70
     6
  9
$SPLINESEGS
 70
     8
  9
$HANDSEED
  5
76
  9
$SURFTAB1
 70
     6
  9
$SURFTAB2
 70
     6
  9
$SURFTYPE
 70
     6
  9
$SURFU
 70
     6
  9
$SURFV
 70
     6
  9
$UCSBASE
  2

  9
$UCSNAME
  2

  9
$UCSORG
 10
0.0
 20
0.0
 30
0.0
  9
$UCSXDIR
 10
1.0
 20
0.0
 30
0.0
  9
$UCSYDIR
 10
0.0
 20
1.0
 30
0.0
  9
$UCSORTHOREF
  2

  9
$UCSORTHOVIEW
 70
     0
  9
$UCSORGTOP
 10
0.0
 20
0.0
 30
0.0
  9
$UCSORGBOTTOM
 10
0.0
 20
0.0
 30
0.0
  9
$UCSORGLEFT
 10
0.0
 20
0.0
 30
0.0
  9
$UCSORGRIGHT
 10
0.0
 20
0.0
 30
0.0
  9
$UCSORGFRONT
 10
0.0
 20
0.0
 30
0.0
  9
$UCSORGBACK
 10
0.0
 20
0.0
 30
0.0
  9
$PUCSBASE
  2

  9
$PUCSNAME
  2

  9
$PUCSORG
 10
0.0
 20
0.0
 30
0.0
  9
$PUCSXDIR
 10
1.0
 20
0.0
 30
0.0
  9
$PUCSYDIR
 10
0.0
 20
1.0
 30
0.0
  9
$PUCSORTHOREF
  2

  9
$PUCSORTHOVIEW
 70
     0
  9
$PUCSORGTOP
 10
0.0
 20
0.0
 30
0.0
  9
$PUCSORGBOTTOM
 10
0.0
 20
0.0
 30
0.0
  9
$PUCSORGLEFT
 10
0.0
 20
0.0
 30
0.0
  9
$PUCSORGRIGHT
 10
0.0
 20
0.0
 30
0.0
  9
$PUCSORGFRONT
 10
0.0
 20
0.0
 30
0.0
  9
$PUCSORGBACK
 10
0.0
 20
0.0
 30
0.0
  9
$USERI1
 70
     0
  9
$USERI2
 70
     0
  9
$USERI3
 70
     0
  9
$USERI4
 70
     0
  9
$USERI5
 70
     0
  9
$USERR1
 40
0.0
  9
$USERR2
 40
0.0
  9
$USERR3
 40
0.0
  9
$USERR4
 40
0.0
  9
$USERR5
 40
0.0
  9
$WORLDVIEW
 70
     1
  9
$SHADEDGE
 70
     3
  9
$SHADEDIF
 70
    70
  9
$TILEMODE
 70
     1
  9
$MAXACTVP
 70
    64
  9
$PINSBASE
 10
0.0
 20
0.0
 30
0.0
  9
$PLIMCHECK
 70
     0
  9
$PEXTMIN
 10
1.000000000000000E+20
 20
1.000000000000000E+20
 30
1.000000000000000E+20
  9
$PEXTMAX
 10
-1.000000000000000E+20
 20
-1.000000000000000E+20
 30
-1.000000000000000E+20
  9
$PLIMMIN
 10
0.0
 20
0.0
  9
$PLIMMAX
 10
420.0
 20
297.0
  9
$UNITMODE
 70
     0
  9
$VISRETAIN
 70
     1
  9
$PLINEGEN
 70
     0
  9
$PSLTSCALE
 70
     1
  9
$TREEDEPTH
 70
  3020
  9
$CMLSTYLE
  2
Standard
  9
$CMLJUST
 70
     0
  9
$CMLSCALE
 40
20.0
  9
$PROXYGRAPHICS
 70
     1
  9
$MEASUREMENT
 70
     1
  9
$CELWEIGHT
370
    -1
  9
$ENDCAPS
280
     0
  9
$JOINSTYLE
280
     0
  9
$LWDISPLAY
290
     0
  9
$INSUNITS
 70
     6
  9
$HYPERLINKBASE
  1

  9
$STYLESHEET
  1

  9
$XEDIT
290
     1
  9
$CEPSNTYPE
380
     0
  9
$PSTYLEMODE
290
     1
  9
$FINGERPRINTGUID
  2
{C982745C-6686-4B49-B598-33FBC5A86E99}
  9
$VERSIONGUID
  2
{2813AE9C-8B12-4577-857A-39CC0E2CAD93}
  9
$EXTNAMES
290
     1
  9
$PSVPSCALE
 40
0.0
  9
$OLESTARTUP
290
     0
  0
ENDSEC
  0
SECTION
  2
CLASSES
  0
CLASS
  1
ACDBDICTIONARYWDFLT
  2
AcDbDictionaryWithDefault
  3
AutoCAD 2000
 90
        0
280
     0
281
     0
  0
CLASS
  1
ACDBPLACEHOLDER
  2
AcDbPlaceHolder
  3
AutoCAD 2000
 90
        0
280
     0
281
     0
  0
CLASS
  1
LAYOUT
  2
AcDbLayout
  3
AutoCAD 2000
 90
        0
280
     0
281
     0
  0
CLASS
  1
DICTIONARYVAR
  2
AcDbDictionaryVar
  3
AutoCAD 2000
 90
        0
280
     0
281
     0
  0
ENDSEC
  0
SECTION
  2
TABLES
  0
TABLE
  2
VPORT
  5
8
330
0
100
AcDbSymbolTable
 70
     4
  0
VPORT
  5
75
330
8
100
AcDbSymbolTableRecord
100
AcDbViewportTableRecord
  2
*Active
 70
     0
 10
0.0
 20
0.0
 11
1.0
 21
1.0
 12
0.8042915058372271
 22
0.6593862005502161
 13
0.0
 23
0.0
 14
10.0
 24
10.0
 15
10.0
 25
10.0
 16
0.0
 26
0.0
 36
1.0
 17
0.0
 27
0.0
 37
0.0
 40
1.350946429316051
 41
2.112280701754385
 42
50.0
 43
0.0
 44
0.0
 50
0.0
 51
0.0
 71
     0
 72
   100
 73
     1
 74
     3
 75
     0
 76
     0
 77
     0
 78
     0
281
     0
 65
     1
110
0.0
120
0.0
130
0.0
111
1.0
121
0.0
131
0.0
112
0.0
122
1.0
132
0.0
 79
     0
146
0.0
  0
ENDTAB
  0
TABLE
  2
LTYPE
  5
5
330
0
100
AcDbSymbolTable
 70
     1
  0
LTYPE
  5
14
330
5
100
AcDbSymbolTableRecord
100
AcDbLinetypeTableRecord
  2
ByBlock
 70
     0
  3

 72
    65
 73
     0
 40
0.0
  0
LTYPE
  5
15
330
5
100
AcDbSymbolTableRecord
100
AcDbLinetypeTableRecord
  2
ByLayer
 70
     0
  3

 72
    65
 73
     0
 40
0.0
  0
LTYPE
  5
16
330
5
100
AcDbSymbolTableRecord
100
AcDbLinetypeTableRecord
  2
Continuous
 70
     0
  3
Solid line
 72
    65
 73
     0
 40
0.0
  0
ENDTAB
  0
TABLE
  2
LAYER
  5
2
330
0
100
AcDbSymbolTable
 70
     2
  0
LAYER
  5
10
330
2
100
AcDbSymbolTableRecord
100
AcDbLayerTableRecord
  2
0
 70
     0
 62
     7
  6
Continuous
370
    -3
390
F
  0
LAYER
  5
70
330
2
100
AcDbSymbolTableRecord
100
AcDbLayerTableRecord
  2
Ceco.NET 29
 70
     0
 62
     7
  6
Continuous
370
    -3
390
F
  0
ENDTAB
  0
TABLE
  2
STYLE
  5
3
330
0
100
AcDbSymbolTable
 70
     1
  0
STYLE
  5
11
330
3
100
AcDbSymbolTableRecord
100
AcDbTextStyleTableRecord
  2
Standard
 70
     0
 40
0.0
 41
1.0
 50
0.0
 71
     0
 42
2.5
  3
txt
  4

  0
ENDTAB
  0
TABLE
  2
VIEW
  5
6
330
0
100
AcDbSymbolTable
 70
     0
  0
ENDTAB
  0
TABLE
  2
UCS
  5
7
330
0
100
AcDbSymbolTable
 70
     0
  0
ENDTAB
  0
TABLE
  2
APPID
  5
9
330
0
100
AcDbSymbolTable
 70
     1
  0
APPID
  5
12
330
9
100
AcDbSymbolTableRecord
100
AcDbRegAppTableRecord
  2
ACAD
 70
     0
  0
ENDTAB
  0
TABLE
  2
DIMSTYLE
  5
A
330
0
100
AcDbSymbolTable
 70
     2
100
AcDbDimStyleTable
 71
     0
  0
DIMSTYLE
105
27
330
A
100
AcDbSymbolTableRecord
100
AcDbDimStyleTableRecord
  2
ISO-25
 70
     0
 41
2.5
 42
0.625
 43
3.75
 44
1.25
 73
     0
 74
     0
 77
     1
 78
     8
140
2.5
141
2.5
143
0.03937007874016
147
0.625
171
     3
172
     1
271
     2
272
     2
274
     3
278
    44
283
     0
284
     8
340
11
  0
DIMSTYLE
105
2B
330
A
100
AcDbSymbolTableRecord
100
AcDbDimStyleTableRecord
  2
Standard
 70
     0
340
11
  0
ENDTAB
  0
TABLE
  2
BLOCK_RECORD
  5
1
330
0
100
AcDbSymbolTable
 70
     2
  0
BLOCK_RECORD
  5
1F
330
1
100
AcDbSymbolTableRecord
100
AcDbBlockTableRecord
  2
*Model_Space
340
22
  0
BLOCK_RECORD
  5
1B
330
1
100
AcDbSymbolTableRecord
100
AcDbBlockTableRecord
  2
*Paper_Space
340
1E
  0
BLOCK_RECORD
  5
23
330
1
100
AcDbSymbolTableRecord
100
AcDbBlockTableRecord
  2
*Paper_Space0
340
26
  0
ENDTAB
  0
ENDSEC
  0
SECTION
  2
BLOCKS
  0
BLOCK
  5
20
330
1F
100
AcDbEntity
  8
0
100
AcDbBlockBegin
  2
*Model_Space
 70
     0
 10
0.0
 20
0.0
 30
0.0
  3
*Model_Space
  1

  0
ENDBLK
  5
21
330
1F
100
AcDbEntity
  8
0
100
AcDbBlockEnd
  0
BLOCK
  5
1C
330
1B
100
AcDbEntity
 67
     1
  8
0
100
AcDbBlockBegin
  2
*Paper_Space
 70
     0
 10
0.0
 20
0.0
 30
0.0
  3
*Paper_Space
  1

  0
ENDBLK
  5
1D
330
1B
100
AcDbEntity
 67
     1
  8
0
100
AcDbBlockEnd
  0
BLOCK
  5
24
330
23
100
AcDbEntity
  8
0
100
AcDbBlockBegin
  2
*Paper_Space0
 70
     0
 10
0.0
 20
0.0
 30
0.0
  3
*Paper_Space0
  1

  0
ENDBLK
  5
25
330
23
100
AcDbEntity
  8
0
100
AcDbBlockEnd
  0
ENDSEC
  0
SECTION
  2
ENTITIES
  0
LWPOLYLINE
  5
50
330
1F
100
AcDbEntity
  8
Ceco.NET 29
100
AcDbPolyline
 90
        6
 70
     1
 43
0.0
 10
0.8076890751530072
 20
0.6515259529516584
 10
0.8262141058572751
 20
0.6515259529516584
 10
0.8262141058572751
 20
0.634300961222948
 42
-0.2982903402773814
 10
0.8076890751530072
 20
0.607494507509415
 42
-0.2982903402773814
 10
0.7891640444487394
 20
0.634300961222948
 10
0.7891640444487394
 20
0.6515259529516584
  0
LWPOLYLINE
  5
51
330
1F
100
AcDbEntity
  8
Ceco.NET 29
100
AcDbPolyline
 90
       14
 70
     1
 43
0.0
 10
0.8076890751530072
 20
1.254323907159488
 42
0.0380251164435367
 10
0.3295513599638298
 20
1.216915485878757
 42
0.168729504368188
 10
0.243542825102395
 20
1.171215892593039
 42
0.0111788016455666
 10
0.140114840314709
 20
0.9383655612135726
 42
0.1421626861312887
 10
0.1346712664599181
 20
0.8904897942931313
 42
0.2731686390387217
 10
0.1466471425313784
 20
0.8763446833486057
 42
-0.0043024214084192
 10
0.2452146178089833
 20
0.8890511295225564
 42
-0.0285775636313807
 10
0.8076890751530072
 20
0.924228890360041
 42
-0.0285775636313807
 10
1.370163532497258
 20
0.8890511295225564
 42
-0.0043024214084192
 10
1.468731007774749
 20
0.8763446833486057
 42
0.2731686390387217
 10
1.480706883846323
 20
0.8904897942931313
 42
0.1421626861312887
 10
1.475263309991419
 20
0.9383655612135726
 42
0.0111788016455666
 10
1.371835325203619
 20
1.171215892593039
 42
0.168729504368188
 10
1.285826790342298
 20
1.216915485878757
 42
0.0380251164435367
  0
LWPOLYLINE
  5
52
330
1F
100
AcDbEntity
  8
Ceco.NET 29
100
AcDbPolyline
 90
        3
 70
     0
 43
0.0
 10
-0.0228268184365561
 20
0.8380622196872593
 42
0.0033122741596945
 10
-0.0208344718739682
 20
0.8387776587101143
 42
0.2375464050425557
 10
0.0297580108430111
 20
0.8927624376448193
 42
0.2375464050425557
  0
LWPOLYLINE
  5
53
330
1F
100
AcDbEntity
  8
Ceco.NET 29
100
AcDbPolyline
 90
        2
 70
     0
 43
0.0
 10
0.0018109316636128
 20
0.7874010806405068
 42
-0.0252586584889475
 10
0.0394246939938512
 20
0.8211906049475885
 42
-0.0434210194245927
  0
LWPOLYLINE
  5
54
330
1F
100
AcDbEntity
  8
Ceco.NET 29
100
AcDbPolyline
 90
        3
 70
     0
 43
0.0
 10
1.418800025280233
 20
0.8475461530450729
 42
0.0559039096217576
 10
0.8076890751530072
 20
0.8993972093507238
 42
0.0559039096217576
 10
0.1965781250258942
 20
0.8475461530450729
 42
0.0559039096217576
  0
LWPOLYLINE
  5
55
330
1F
100
AcDbEntity
  8
Ceco.NET 29
100
AcDbPolyline
 90
        9
 70
     0
 43
0.0
 10
0.5257826262079562
 20
0.8925673217505902
 42
-0.1044640316220035
 10
0.5412240354929736
 20
0.8537569692532827
 42
-0.0530475288003604
 10
0.5504251449282265
 20
0.711298990671196
 10
0.5570658098799868
 20
0.8667088491941683
 10
0.8076890751530072
 20
0.8667088491941683
 10
1.058312340426027
 20
0.8667088491941683
 10
1.064953005377788
 20
0.711298990671196
 42
-0.0530475288003604
 10
1.074154114813154
 20
0.8537569692532827
 42
-0.1044640316220035
 10
1.089595524098058
 20
0.8925673217505902
  0
LWPOLYLINE
  5
56
330
1F
100
AcDbEntity
  8
Ceco.NET 29
100
AcDbPolyline
 90
        3
 70
     0
 43
0.0
 10
1.638204968742684
 20
0.8380622196872593
 42
-0.0033122741596945
 10
1.636212622179982
 20
0.8387776587101143
 42
-0.2375464050425557
 10
1.585620139463117
 20
0.8927624376448193
 42
-0.2375464050425557
  0
LWPOLYLINE
  5
57
330
1F
100
AcDbEntity
  8
Ceco.NET 29
100
AcDbPolyline
 90
        2
 70
     0
 43
0.0
 10
1.613567218642629
 20
0.7874010806405068
 42
0.0252586584889475
 10
1.575953456312277
 20
0.8211906049475885
 42
0.0434210194245927
  0
LWPOLYLINE
  5
58
330
1F
100
AcDbEntity
  8
Ceco.NET 29
100
AcDbPolyline
 90
        5
 70
     0
 43
0.0
 10
0.2034760682724936
 20
0.1512872470972866
 42
-0.0346090766771748
 10
0.1964994362006109
 20
0.1514129524038026
 42
-0.0476609983480833
 10
0.086542288700116
 20
0.171700988287256
 42
-0.2840627810625017
 10
-0.0264732522082341
 20
0.2955866791425023
 42
-0.0005396300155581
 10
-0.0269229554323829
 20
0.2979907483761224
 42
0.0522978626107944
  0
LWPOLYLINE
  5
59
330
1F
100
AcDbEntity
  8
Ceco.NET 29
100
AcDbPolyline
 90
        6
 70
     1
 43
0.0
 10
0.1024774055715625
 20
0.1791941975201894
 42
0.012503454141616
 10
0.1214118496835681
 20
0.1725153139925908
 42
0.689365283071088
 10
0.1409031956064837
 20
0.2114754384344906
 42
0.1499113844546362
 10
0.1247532197755845
 20
0.2209371886251574
 42
0.1884475900616067
 10
0.0774171094952863
 20
0.2142583050975872
 42
0.5679837226622206
 10
0.0768602076846037
 20
0.1919953806339265
 42
0.0496904034567904
  0
LWPOLYLINE
  5
5A
330
1F
100
AcDbEntity
  8
Ceco.NET 29
100
AcDbPolyline
 90
        5
 70
     1
 43
0.0
 10
0.0397561488581459
 20
0.4602522783882819
 42
0.3778190211649679
 10
0.044871613524947
 20
0.3676040896968686
 10
0.4063654154851975
 20
0.3676040896968686
 42
0.4119255093423562
 10
0.437401125558381
 20
0.4199111339321178
 42
0.2039631662313177
 10
0.4068359753075584
 20
0.4602522783882819
  0
LWPOLYLINE
  5
5B
330
1F
100
AcDbEntity
  8
Ceco.NET 29
100
AcDbPolyline
 90
        2
 70
     0
 43
0.0
 10
0.2673407946789439
 20
0.2979907483761224
 10
-0.0269229554323829
 20
0.2979907483761224
  0
LWPOLYLINE
  5
5C
330
1F
100
AcDbEntity
  8
Ceco.NET 29
100
AcDbPolyline
 90
       12
 70
     0
 43
0.0
 10
1.331889756976806
 20
0.2544057178500907
 42
0.1121061923142383
 10
1.348793920509933
 20
0.3037097351966906
 42
0.244043649993835
 10
1.338444429858896
 20
0.3302580474690728
 42
0.1480104916655072
 10
1.289137064394139
 20
0.3526608467452945
 10
0.3262410859119882
 20
0.3526608467452945
 42
0.1480104916655073
 10
0.2769337204472322
 20
0.3302580474690728
 42
0.2440436499938348
 10
0.2665842297961944
 20
0.3037097351966906
 42
0.1121061923142383
 10
0.2834883933293213
 20
0.2544057178500907
 42
0.1796764554576409
 10
0.3100520769396553
 20
0.2337187188630878
 42
0.0864641944301085
 10
0.3590183509180633
 20
0.2271374906037806
 10
1.256359799388064
 20
0.2271374906037806
 42
0.0864641944301085
 10
1.305326073366359
 20
0.2337187188630878
  0
LWPOLYLINE
  5
5D
330
1F
100
AcDbEntity
  8
Ceco.NET 29
100
AcDbPolyline
 90
        5
 70
     0
 43
0.0
 10
1.411902082033634
 20
0.1512872470972866
 42
0.0346090766771748
 10
1.418878714105517
 20
0.1514129524038026
 42
0.0476609983480833
 10
1.528835861606012
 20
0.171700988287256
 42
0.2840627810625017
 10
1.641851402514475
 20
0.2955866791425023
 42
0.0005396300155581
 10
1.642301105738511
 20
0.2979907483761224
 42
-0.0522978626107944
  0
ARC
  5
5E
330
1F
100
AcDbEntity
  8
Ceco.NET 29
100
AcDbCircle
 10
1.290753476003487
 20
0.2798294415131295
 30
0.0
 40
0.0483586531781609
100
AcDbArc
 50
287.5383539383339
 51
328.2824209216049
  0
LWPOLYLINE
  5
5F
330
1F
100
AcDbEntity
  8
Ceco.NET 29
100
AcDbPolyline
 90
        6
 70
     1
 43
0.0
 10
1.512900744734565
 20
0.1791941975201894
 42
-0.012503454141616
 10
1.493966300622446
 20
0.1725153139925908
 42
-0.689365283071088
 10
1.474474954699758
 20
0.2114754384344906
 42
-0.1499113844546362
 10
1.490624930530543
 20
0.2209371886251574
 42
-0.1884475900616067
 10
1.537961040810728
 20
0.2142583050975872
 42
-0.5679837226622206
 10
1.538517942621638
 20
0.1919953806339265
 42
-0.0496904034567904
  0
LWPOLYLINE
  5
60
330
1F
100
AcDbEntity
  8
Ceco.NET 29
100
AcDbPolyline
 90
        2
 70
     0
 43
0.0
 10
1.341973581135675
 20
0.2749559174837941
 10
0.273404569170566
 20
0.2749559174837941
  0
LWPOLYLINE
  5
61
330
1F
100
AcDbEntity
  8
Ceco.NET 29
100
AcDbPolyline
 90
        2
 70
     0
 43
0.0
 10
1.348579626798255
 20
0.3018537712749776
 10
0.2667985235078731
 20
0.3018537712749776
  0
LINE
  5
62
330
1F
100
AcDbEntity
  8
Ceco.NET 29
100
AcDbLine
 10
0.3939001298215316
 20
0.5827869859394071
 30
0.0
 11
1.221478020484482
 21
0.5827869859394071
 31
0.0
  0
LWPOLYLINE
  5
63
330
1F
100
AcDbEntity
  8
Ceco.NET 29
100
AcDbPolyline
 90
        2
 70
     0
 43
0.0
 10
0.186933141040754
 20
0.4602522783882819
 42
0.1799882069529886
 10
0.170732374461636
 20
0.3676040896968686
 42
0.1799882069529886
  0
LWPOLYLINE
  5
64
330
1F
100
AcDbEntity
  8
Ceco.NET 29
100
AcDbPolyline
 90
        3
 70
     0
 43
0.0
 10
0.3889425785121148
 20
0.3676040896968686
 42
0.2077338199500836
 10
0.4108914658813774
 20
0.4128029018155246
 42
0.2695990304973596
 10
0.3859319140042316
 20
0.4602522783882819
 42
0.2695990304973596
  0
LWPOLYLINE
  5
65
330
1F
100
AcDbEntity
  8
Ceco.NET 29
100
AcDbPolyline
 90
        5
 70
     1
 43
0.0
 10
1.208542174998569
 20
0.4602522783882819
 10
1.575622001448095
 20
0.4602522783882819
 42
-0.3778190211649681
 10
1.570506536781294
 20
0.3676040896968686
 10
1.209012734820817
 20
0.3676040896968686
 42
-0.4119255093423562
 10
1.177977024747747
 20
0.4199111339321178
 42
-0.2039631662313177
  0
LWPOLYLINE
  5
66
330
1F
100
AcDbEntity
  8
Ceco.NET 29
100
AcDbPolyline
 90
        3
 70
     0
 43
0.0
 10
1.22944623630201
 20
0.4602522783882819
 42
0.2695990304973596
 10
1.204486684424864
 20
0.4128029018155246
 42
0.2077338199500836
 10
1.226435571794013
 20
0.3676040896968686
  0
LWPOLYLINE
  5
67
330
1F
100
AcDbEntity
  8
Ceco.NET 29
100
AcDbPolyline
 90
        2
 70
     0
 43
0.0
 10
1.444645775844492
 20
0.3676040896968686
 42
0.1799882069529886
 10
1.428445009265374
 20
0.4602522783882819
 42
0.1799882069529886
  0
LWPOLYLINE
  5
68
330
1F
100
AcDbEntity
  8
Ceco.NET 29
100
AcDbPolyline
 90
        2
 70
     0
 43
0.0
 10
1.348037355627184
 20
0.2979907483761224
 10
1.642301105738511
 20
0.2979907483761224
  0
LWPOLYLINE
  5
69
330
1F
100
AcDbEntity
  8
Ceco.NET 29
100
AcDbPolyline
 90
       46
 70
     1
 43
0.0
 10
0.8076890751530072
 20
0.1838032267706921
 42
0.000556841656115
 10
0.2675486691338165
 20
0.1767729950479406
 42
0.1837164122194792
 10
0.2345615194471975
 20
0.1640929737259
 42
-0.1717439623328855
 10
0.2034179876538928
 20
0.1512843058097815
 10
0.2034179876538928
 20
0.0179319080201879
 10
0.191452236729674
 20
0.0
 10
0.0
 20
0.0
 10
-0.0209400799702735
 20
0.0089659622492206
 10
-0.0269229554323829
 20
0.0298865188597688
 10
-0.0269229554323829
 20
0.2979907483761224
 42
-0.0428386551618833
 10
-0.0459272094919925
 20
0.490858996893536
 42
0.0522978626107944
 10
-0.066275775932013
 20
0.6638446617424734
 42
-0.1948347902904164
 10
-0.0512156429190327
 20
0.725304579519559
 42
-0.0408340726534861
 10
0.0018109316636128
 20
0.7874010806405068
 42
0.0925354897042508
 10
-0.0228268184365561
 20
0.8380622196872593
 42
-0.2008102227605271
 10
-0.1459843046950482
 20
0.8452406258248856
 42
-0.6300854004307813
 10
-0.1452235253933622
 20
0.937242863056241
 42
-0.1530005308153707
 10
-0.0018147446969579
 20
0.9566317555598402
 42
-0.3911041496153225
 10
0.0297580108430111
 20
0.8927624376448193
 42
0.1798261892781047
 10
0.0394246939938512
 20
0.8211906049475885
 42
-0.0123145304499328
 10
0.0589571246329115
 20
0.8362485643367278
 42
-0.0434210194245927
 10
0.2119499685819619
 20
1.190438588779869
 42
-0.1782739053141265
 10
0.2915918202588727
 20
1.250003573266354
 42
-0.0568970143663492
 10
0.8076890751530072
 20
1.299965284883285
 42
-0.0568970143663492
 10
1.323786330047369
 20
1.250003573266354
 42
-0.1782739053141265
 10
1.403428181724166
 20
1.190438588779869
 42
-0.0434210194245927
 10
1.556421025673216
 20
0.8362485643367278
 42
-0.0123145304499328
 10
1.575953456312277
 20
0.8211906049475885
 42
0.1798261892781047
 10
1.585620139463117
 20
0.8927624376448193
 42
-0.3911041496153225
 10
1.617192895003086
 20
0.9566317555598402
 42
-0.1530005308153707
 10
1.760601675699604
 20
0.937242863056241
 42
-0.6300854004307813
 10
1.76136245500129
 20
0.8452406258248856
 42
-0.2008102227605271
 10
1.638204968742684
 20
0.8380622196872593
 42
0.0925354897042508
 10
1.613567218642629
 20
0.7874010806405068
 42
-0.0408340726534861
 10
1.66659379322516
 20
0.725304579519559
 42
-0.1948347902904164
 10
1.681653926238141
 20
0.6638446617424734
 42
0.0522978626107944
 10
1.66130535979812
 20
0.490858996893536
 42
-0.0428386551618833
 10
1.642301105738511
 20
0.2979907483761224
 10
1.642301105738511
 20
0.0298865188597688
 10
1.636318230276515
 20
0.0089659622492206
 10
1.615378150306128
 20
0.0
 10
1.423925913576454
 20
0.0
 10
1.411960162652349
 20
0.0179319080201879
 10
1.411960162652349
 20
0.1512843058097815
 42
-0.1717439623328855
 10
1.380816630858817
 20
0.1640929737259
 42
0.1837164122194792
 10
1.347829481172311
 20
0.1767729950479406
 42
0.000556841656115
  0
LWPOLYLINE
  5
6A
330
1F
100
AcDbEntity
  8
Ceco.NET 29
100
AcDbPolyline
 90
        8
 70
     0
 43
0.0
 10
-0.0467670436844401
 20
0.519230898008658
 10
0.1960557196269974
 20
0.519230898008658
 42
0.0565065180829783
 10
0.3704677552636895
 20
0.5340262777910994
 42
0.154980889418485
 10
0.3836453546614393
 20
0.5459419764062546
 42
0.2099964490924948
 10
0.3905479144931405
 20
0.6061476022085231
 42
0.1878457840991439
 10
0.1997863746312305
 20
0.8463429726911328
 42
0.1155841103985951
 10
0.1477034565333497
 20
0.853868671496059
 42
0.0547296380334685
 10
0.0589571246329115
 20
0.8362485643367278
 42
0.0547296380334685
  0
LWPOLYLINE
  5
6B
330
1F
100
AcDbEntity
  8
Ceco.NET 29
100
AcDbPolyline
 90
        8
 70
     1
 43
0.0
 10
0.2355541599577009
 20
0.7434916938055381
 42
0.1430652132232449
 10
0.1025230982669427
 20
0.7303217120561954
 42
0.2295969229911112
 10
0.0661277926748198
 20
0.690184625241102
 42
0.175365098577993
 10
0.0717753391569431
 20
0.5992490449706907
 42
0.1749280519700109
 10
0.1345258435446794
 20
0.5578576750214382
 42
0.1854771674276147
 10
0.2738319719832134
 20
0.5609933828568217
 42
0.2277468635724204
 10
0.3309349298885991
 20
0.6243347253351601
 42
0.1719482203137212
 10
0.3284249167803637
 20
0.6701160862539269
 42
0.2463816439798532
  0
LWPOLYLINE
  5
6C
330
1F
100
AcDbEntity
  8
Ceco.NET 29
100
AcDbPolyline
 90
        7
 70
     1
 43
0.0
 10
0.2895195980801191
 20
0.6889303421069713
 42
0.2370189830632738
 10
0.1935113214743751
 20
0.7290674289220363
 42
0.1002265568043248
 10
0.1094256445078372
 20
0.7058631732587628
 42
0.2330746797702488
 10
0.0774228856390664
 20
0.6632175201753796
 42
0.3401406981232217
 10
0.1194657241225059
 20
0.5804347891176463
 42
0.1594347735973945
 10
0.2355541599577009
 20
0.5653833826670791
 42
0.246077699151652
 10
0.3020697043939435
 20
0.6180633008236783
 42
0.3058691365043423
  0
LWPOLYLINE
  5
6D
330
1F
100
AcDbEntity
  8
Ceco.NET 29
100
AcDbPolyline
 90
        8
 70
     1
 43
0.0
 10
1.379823990348427
 20
0.7434916938055381
 42
-0.1430652132232449
 10
1.512855052039185
 20
0.7303217120561954
 42
-0.2295969229911112
 10
1.549250357631194
 20
0.690184625241102
 42
-0.175365098577993
 10
1.543602811149071
 20
0.5992490449706907
 42
-0.1749280519700109
 10
1.480852306761562
 20
0.5578576750214382
 42
-0.1854771674276147
 10
1.341546178322914
 20
0.5609933828568217
 42
-0.2277468635724204
 10
1.284443220417529
 20
0.6243347253351601
 42
-0.1719482203137212
 10
1.28695323352565
 20
0.6701160862539269
 42
-0.2463816439798532
  0
LWPOLYLINE
  5
6E
330
1F
100
AcDbEntity
  8
Ceco.NET 29
100
AcDbPolyline
 90
        7
 70
     1
 43
0.0
 10
1.325858552226009
 20
0.6889303421069713
 42
-0.2370189830632738
 10
1.421866828831753
 20
0.7290674289220363
 42
-0.1002265568043248
 10
1.505952505798404
 20
0.7058631732587628
 42
-0.2330746797702488
 10
1.537955264666948
 20
0.6632175201753796
 42
-0.3401406981232217
 10
1.495912426183622
 20
0.5804347891176463
 42
-0.1594347735973945
 10
1.379823990348427
 20
0.5653833826670791
 42
-0.246077699151652
 10
1.31330844591207
 20
0.6180633008236783
 42
-0.3058691365043423
  0
LWPOLYLINE
  5
6F
330
1F
100
AcDbEntity
  8
Ceco.NET 29
100
AcDbPolyline
 90
        8
 70
     0
 43
0.0
 10
1.662145193990454
 20
0.519230898008658
 10
1.41932243067913
 20
0.519230898008658
 42
-0.0565065180829783
 10
1.244910395042438
 20
0.5340262777910994
 42
-0.154980889418485
 10
1.231732795644688
 20
0.5459419764062546
 42
-0.2099964490924948
 10
1.224830235812873
 20
0.6061476022085231
 42
-0.1878457840991439
 10
1.415591775674784
 20
0.8463429726911328
 42
-0.1155841103985951
 10
1.467674693772892
 20
0.853868671496059
 42
-0.0547296380334685
 10
1.556421025673216
 20
0.8362485643367278
 42
-0.0547296380334685
  0
ENDSEC
  0
SECTION
  2
OBJECTS
  0
DICTIONARY
  5
C
330
0
100
AcDbDictionary
281
     1
  3
ACAD_GROUP
350
D
  3
ACAD_LAYOUT
350
1A
  3
ACAD_MLINESTYLE
350
17
  3
ACAD_PLOTSETTINGS
350
19
  3
ACAD_PLOTSTYLENAME
350
E
  3
AcDbVariableDictionary
350
72
  0
DICTIONARY
  5
D
102
{ACAD_REACTORS
330
C
102
}
330
C
100
AcDbDictionary
281
     1
  0
DICTIONARY
  5
1A
102
{ACAD_REACTORS
330
C
102
}
330
C
100
AcDbDictionary
281
     1
  3
Layout1
350
1E
  3
Layout2
350
26
  3
Model
350
22
  0
DICTIONARY
  5
17
102
{ACAD_REACTORS
330
C
102
}
330
C
100
AcDbDictionary
281
     1
  3
Standard
350
18
  0
DICTIONARY
  5
19
102
{ACAD_REACTORS
330
C
102
}
330
C
100
AcDbDictionary
281
     1
  0
ACDBDICTIONARYWDFLT
  5
E
102
{ACAD_REACTORS
330
C
102
}
330
C
100
AcDbDictionary
281
     1
  3
Normal
350
F
100
AcDbDictionaryWithDefault
340
F
  0
DICTIONARY
  5
72
102
{ACAD_REACTORS
330
C
102
}
330
C
100
AcDbDictionary
281
     1
  3
DIMASSOC
350
74
  3
HIDETEXT
350
73
  0
LAYOUT
  5
1E
102
{ACAD_REACTORS
330
1A
102
}
330
1A
100
AcDbPlotSettings
  1

  2
Microsoft Office Document Image Writer
  4

  6

 40
0.0
 41
0.0
 42
0.0
 43
0.0
 44
0.0
 45
0.0
 46
0.0
 47
0.0
 48
0.0
 49
0.0
140
0.0
141
0.0
142
1.0
143
1.0
 70
   688
 72
     0
 73
     0
 74
     5
  7

 75
    16
147
1.0
148
0.0
149
0.0
100
AcDbLayout
  1
Layout1
 70
     1
 71
     1
 10
0.0
 20
0.0
 11
420.0
 21
297.0
 12
0.0
 22
0.0
 32
0.0
 14
1.000000000000000E+20
 24
1.000000000000000E+20
 34
1.000000000000000E+20
 15
-1.000000000000000E+20
 25
-1.000000000000000E+20
 35
-1.000000000000000E+20
146
0.0
 13
0.0
 23
0.0
 33
0.0
 16
1.0
 26
0.0
 36
0.0
 17
0.0
 27
1.0
 37
0.0
 76
     0
330
1B
  0
LAYOUT
  5
26
102
{ACAD_REACTORS
330
1A
102
}
330
1A
100
AcDbPlotSettings
  1

  2
Microsoft Office Document Image Writer
  4

  6

 40
0.0
 41
0.0
 42
0.0
 43
0.0
 44
0.0
 45
0.0
 46
0.0
 47
0.0
 48
0.0
 49
0.0
140
0.0
141
0.0
142
1.0
143
1.0
 70
   688
 72
     0
 73
     0
 74
     5
  7

 75
    16
147
1.0
148
0.0
149
0.0
100
AcDbLayout
  1
Layout2
 70
     1
 71
     2
 10
0.0
 20
0.0
 11
12.0
 21
9.0
 12
0.0
 22
0.0
 32
0.0
 14
0.0
 24
0.0
 34
0.0
 15
0.0
 25
0.0
 35
0.0
146
0.0
 13
0.0
 23
0.0
 33
0.0
 16
1.0
 26
0.0
 36
0.0
 17
0.0
 27
1.0
 37
0.0
 76
     0
330
23
  0
LAYOUT
  5
22
102
{ACAD_REACTORS
330
1A
102
}
330
1A
100
AcDbPlotSettings
  1

  2
Microsoft Office Document Image Writer
  4

  6

 40
0.0
 41
0.0
 42
0.0
 43
0.0
 44
0.0
 45
0.0
 46
0.0
 47
0.0
 48
0.0
 49
0.0
140
0.0
141
0.0
142
1.0
143
1.0
 70
  1712
 72
     0
 73
     0
 74
     0
  7

 75
     0
147
1.0
148
0.0
149
0.0
100
AcDbLayout
  1
Model
 70
     1
 71
     0
 10
0.0
 20
0.0
 11
12.0
 21
9.0
 12
0.0
 22
0.0
 32
0.0
 14
0.0
 24
0.0
 34
0.0
 15
0.0
 25
0.0
 35
0.0
146
0.0
 13
0.0
 23
0.0
 33
0.0
 16
1.0
 26
0.0
 36
0.0
 17
0.0
 27
1.0
 37
0.0
 76
     0
330
1F
  0
MLINESTYLE
  5
18
102
{ACAD_REACTORS
330
17
102
}
330
17
100
AcDbMlineStyle
  2
STANDARD
 70
     0
  3

 62
   256
 51
90.0
 52
90.0
 71
     2
 49
0.5
 62
   256
  6
BYLAYER
 49
-0.5
 62
   256
  6
BYLAYER
  0
ACDBPLACEHOLDER
  5
F
102
{ACAD_REACTORS
330
E
102
}
330
E
  0
DICTIONARYVAR
  5
74
102
{ACAD_REACTORS
330
72
102
}
330
72
100
DictionaryVariables
280
     0
  1
2
  0
DICTIONARYVAR
  5
73
102
{ACAD_REACTORS
330
72
102
}
330
72
100
DictionaryVariables
280
     0
  1
1
  0
ENDSEC
  0
EOF
