  0
SECTION
  2
HEADER
  9
$ACADVER
  1
AC1015
  9
$ACADMAINTVER
 70
    13
  9
$DWGCODEPAGE
  3
ANSI_1252
  9
$INSBASE
 10
0.0
 20
0.0
 30
0.0
  9
$EXTMIN
 10
-159.7411670310559
 20
-0.0484839221348921
 30
-0.0015258207003583
  9
$EXTMAX
 10
634.9402085892611
 20
1769.848059703036
 30
0.0000000349246037
  9
$LIMMIN
 10
0.0
 20
0.0
  9
$LIMMAX
 10
420.0
 20
297.0
  9
$ORTHOMODE
 70
     0
  9
$REGENMODE
 70
     1
  9
$FILLMODE
 70
     1
  9
$QTEXTMODE
 70
     0
  9
$MIRRTEXT
 70
     1
  9
$LTSCALE
 40
1.0
  9
$ATTMODE
 70
     1
  9
$TEXTSIZE
 40
2.5
  9
$TRACEWID
 40
1.0
  9
$TEXTSTYLE
  7
Standard
  9
$CLAYER
  8
ceco.net 255
  9
$CELTYPE
  6
ByLayer
  9
$CECOLOR
 62
   256
  9
$CELTSCALE
 40
1.0
  9
$DISPSILH
 70
     0
  9
$DIMSCALE
 40
1.0
  9
$DIMASZ
 40
2.5
  9
$DIMEXO
 40
0.625
  9
$DIMDLI
 40
3.75
  9
$DIMRND
 40
0.0
  9
$DIMDLE
 40
0.0
  9
$DIMEXE
 40
1.25
  9
$DIMTP
 40
0.0
  9
$DIMTM
 40
0.0
  9
$DIMTXT
 40
2.5
  9
$DIMCEN
 40
2.5
  9
$DIMTSZ
 40
0.0
  9
$DIMTOL
 70
     0
  9
$DIMLIM
 70
     0
  9
$DIMTIH
 70
     0
  9
$DIMTOH
 70
     0
  9
$DIMSE1
 70
     0
  9
$DIMSE2
 70
     0
  9
$DIMTAD
 70
     1
  9
$DIMZIN
 70
     8
  9
$DIMBLK
  1

  9
$DIMASO
 70
     1
  9
$DIMSHO
 70
     1
  9
$DIMPOST
  1

  9
$DIMAPOST
  1

  9
$DIMALT
 70
     0
  9
$DIMALTD
 70
     3
  9
$DIMALTF
 40
0.03937007874016
  9
$DIMLFAC
 40
1.0
  9
$DIMTOFL
 70
     1
  9
$DIMTVP
 40
0.0
  9
$DIMTIX
 70
     0
  9
$DIMSOXD
 70
     0
  9
$DIMSAH
 70
     0
  9
$DIMBLK1
  1

  9
$DIMBLK2
  1

  9
$DIMSTYLE
  2
ISO-25
  9
$DIMCLRD
 70
     0
  9
$DIMCLRE
 70
     0
  9
$DIMCLRT
 70
     0
  9
$DIMTFAC
 40
1.0
  9
$DIMGAP
 40
0.625
  9
$DIMJUST
 70
     0
  9
$DIMSD1
 70
     0
  9
$DIMSD2
 70
     0
  9
$DIMTOLJ
 70
     0
  9
$DIMTZIN
 70
     8
  9
$DIMALTZ
 70
     0
  9
$DIMALTTZ
 70
     0
  9
$DIMUPT
 70
     0
  9
$DIMDEC
 70
     2
  9
$DIMTDEC
 70
     2
  9
$DIMALTU
 70
     2
  9
$DIMALTTD
 70
     3
  9
$DIMTXSTY
  7
Standard
  9
$DIMAUNIT
 70
     0
  9
$DIMADEC
 70
     0
  9
$DIMALTRND
 40
0.0
  9
$DIMAZIN
 70
     0
  9
$DIMDSEP
 70
    44
  9
$DIMATFIT
 70
     3
  9
$DIMFRAC
 70
     0
  9
$DIMLDRBLK
  1

  9
$DIMLUNIT
 70
     2
  9
$DIMLWD
 70
    -2
  9
$DIMLWE
 70
    -2
  9
$DIMTMOVE
 70
     0
  9
$LUNITS
 70
     2
  9
$LUPREC
 70
     2
  9
$SKETCHINC
 40
1.0
  9
$FILLETRAD
 40
10.0
  9
$AUNITS
 70
     0
  9
$AUPREC
 70
     0
  9
$MENU
  1
.
  9
$ELEVATION
 40
0.0
  9
$PELEVATION
 40
0.0
  9
$THICKNESS
 40
0.0
  9
$LIMCHECK
 70
     0
  9
$CHAMFERA
 40
10.0
  9
$CHAMFERB
 40
10.0
  9
$CHAMFERC
 40
20.0
  9
$CHAMFERD
 40
0.0
  9
$SKPOLY
 70
     0
  9
$TDCREATE
 40
2455079.811409143
  9
$TDUCREATE
 40
2455079.936409144
  9
$TDUPDATE
 40
2457129.887752708
  9
$TDUUPDATE
 40
2457130.012752708
  9
$TDINDWG
 40
0.0482523264
  9
$TDUSRTIMER
 40
0.0482523264
  9
$USRTIMER
 70
     1
  9
$ANGBASE
 50
0.0
  9
$ANGDIR
 70
     0
  9
$PDMODE
 70
     0
  9
$PDSIZE
 40
0.0
  9
$PLINEWID
 40
0.0
  9
$SPLFRAME
 70
     0
  9
$SPLINETYPE
 70
     6
  9
$SPLINESEGS
 70
     8
  9
$HANDSEED
  5
9F6
  9
$SURFTAB1
 70
     6
  9
$SURFTAB2
 70
     6
  9
$SURFTYPE
 70
     6
  9
$SURFU
 70
     6
  9
$SURFV
 70
     6
  9
$UCSBASE
  2

  9
$UCSNAME
  2

  9
$UCSORG
 10
0.0
 20
0.0
 30
0.0
  9
$UCSXDIR
 10
1.0
 20
0.0
 30
0.0
  9
$UCSYDIR
 10
0.0
 20
1.0
 30
0.0
  9
$UCSORTHOREF
  2

  9
$UCSORTHOVIEW
 70
     0
  9
$UCSORGTOP
 10
0.0
 20
0.0
 30
0.0
  9
$UCSORGBOTTOM
 10
0.0
 20
0.0
 30
0.0
  9
$UCSORGLEFT
 10
0.0
 20
0.0
 30
0.0
  9
$UCSORGRIGHT
 10
0.0
 20
0.0
 30
0.0
  9
$UCSORGFRONT
 10
0.0
 20
0.0
 30
0.0
  9
$UCSORGBACK
 10
0.0
 20
0.0
 30
0.0
  9
$PUCSBASE
  2

  9
$PUCSNAME
  2

  9
$PUCSORG
 10
0.0
 20
0.0
 30
0.0
  9
$PUCSXDIR
 10
1.0
 20
0.0
 30
0.0
  9
$PUCSYDIR
 10
0.0
 20
1.0
 30
0.0
  9
$PUCSORTHOREF
  2

  9
$PUCSORTHOVIEW
 70
     0
  9
$PUCSORGTOP
 10
0.0
 20
0.0
 30
0.0
  9
$PUCSORGBOTTOM
 10
0.0
 20
0.0
 30
0.0
  9
$PUCSORGLEFT
 10
0.0
 20
0.0
 30
0.0
  9
$PUCSORGRIGHT
 10
0.0
 20
0.0
 30
0.0
  9
$PUCSORGFRONT
 10
0.0
 20
0.0
 30
0.0
  9
$PUCSORGBACK
 10
0.0
 20
0.0
 30
0.0
  9
$USERI1
 70
     0
  9
$USERI2
 70
     0
  9
$USERI3
 70
     0
  9
$USERI4
 70
     0
  9
$USERI5
 70
     0
  9
$USERR1
 40
0.0
  9
$USERR2
 40
0.0
  9
$USERR3
 40
0.0
  9
$USERR4
 40
0.0
  9
$USERR5
 40
0.0
  9
$WORLDVIEW
 70
     1
  9
$SHADEDGE
 70
     3
  9
$SHADEDIF
 70
    70
  9
$TILEMODE
 70
     1
  9
$MAXACTVP
 70
    64
  9
$PINSBASE
 10
0.0
 20
0.0
 30
0.0
  9
$PLIMCHECK
 70
     0
  9
$PEXTMIN
 10
1.000000000000000E+20
 20
1.000000000000000E+20
 30
1.000000000000000E+20
  9
$PEXTMAX
 10
-1.000000000000000E+20
 20
-1.000000000000000E+20
 30
-1.000000000000000E+20
  9
$PLIMMIN
 10
0.0
 20
0.0
  9
$PLIMMAX
 10
420.0
 20
297.0
  9
$UNITMODE
 70
     0
  9
$VISRETAIN
 70
     1
  9
$PLINEGEN
 70
     0
  9
$PSLTSCALE
 70
     1
  9
$TREEDEPTH
 70
  3020
  9
$CMLSTYLE
  2
Standard
  9
$CMLJUST
 70
     0
  9
$CMLSCALE
 40
20.0
  9
$PROXYGRAPHICS
 70
     1
  9
$MEASUREMENT
 70
     1
  9
$CELWEIGHT
370
    -1
  9
$ENDCAPS
280
     0
  9
$JOINSTYLE
280
     0
  9
$LWDISPLAY
290
     0
  9
$INSUNITS
 70
     4
  9
$HYPERLINKBASE
  1

  9
$STYLESHEET
  1

  9
$XEDIT
290
     1
  9
$CEPSNTYPE
380
     0
  9
$PSTYLEMODE
290
     1
  9
$FINGERPRINTGUID
  2
{81085373-3A21-4932-80AA-8F6C3258C50C}
  9
$VERSIONGUID
  2
{522B614F-85AD-44D5-B694-03710EF3067F}
  9
$EXTNAMES
290
     1
  9
$PSVPSCALE
 40
0.0
  9
$OLESTARTUP
290
     0
  0
ENDSEC
  0
SECTION
  2
CLASSES
  0
CLASS
  1
ACDBDICTIONARYWDFLT
  2
AcDbDictionaryWithDefault
  3
AutoCAD 2000
 90
        0
280
     0
281
     0
  0
CLASS
  1
ACDBPLACEHOLDER
  2
AcDbPlaceHolder
  3
AutoCAD 2000
 90
        0
280
     0
281
     0
  0
CLASS
  1
LAYOUT
  2
AcDbLayout
  3
AutoCAD 2000
 90
        0
280
     0
281
     0
  0
CLASS
  1
DICTIONARYVAR
  2
AcDbDictionaryVar
  3
AutoCAD 2000
 90
        0
280
     0
281
     0
  0
CLASS
  1
IMAGEDEF
  2
AcDbRasterImageDef
  3
ISM
 90
        0
280
     0
281
     0
  0
ENDSEC
  0
SECTION
  2
TABLES
  0
TABLE
  2
VPORT
  5
8
330
0
100
AcDbSymbolTable
 70
     3
  0
VPORT
  5
9F5
330
8
100
AcDbSymbolTableRecord
100
AcDbViewportTableRecord
  2
*Active
 70
     0
 10
0.0
 20
0.0
 11
1.0
 21
1.0
 12
237.5995207791024
 22
884.8997878904508
 13
0.0
 23
0.0
 14
10.0
 24
10.0
 15
10.0
 25
10.0
 16
0.0
 26
0.0
 36
1.0
 17
0.0
 27
0.0
 37
0.0
 40
1782.463856360971
 41
2.184834123222748
 42
50.0
 43
0.0
 44
0.0
 50
0.0
 51
0.0
 71
     0
 72
   100
 73
     1
 74
     3
 75
     0
 76
     0
 77
     0
 78
     0
281
     0
 65
     1
110
0.0
120
0.0
130
0.0
111
1.0
121
0.0
131
0.0
112
0.0
122
1.0
132
0.0
 79
     0
146
0.0
  0
ENDTAB
  0
TABLE
  2
LTYPE
  5
5
330
0
100
AcDbSymbolTable
 70
     2
  0
LTYPE
  5
14
330
5
100
AcDbSymbolTableRecord
100
AcDbLinetypeTableRecord
  2
ByBlock
 70
     0
  3

 72
    65
 73
     0
 40
0.0
  0
LTYPE
  5
15
330
5
100
AcDbSymbolTableRecord
100
AcDbLinetypeTableRecord
  2
ByLayer
 70
     0
  3

 72
    65
 73
     0
 40
0.0
  0
LTYPE
  5
16
330
5
100
AcDbSymbolTableRecord
100
AcDbLinetypeTableRecord
  2
Continuous
 70
     0
  3
Solid line
 72
    65
 73
     0
 40
0.0
  0
ENDTAB
  0
TABLE
  2
LAYER
  5
2
102
{ACAD_XDICTIONARY
360
913
102
}
330
0
100
AcDbSymbolTable
 70
     2
  0
LAYER
  5
10
330
2
100
AcDbSymbolTableRecord
100
AcDbLayerTableRecord
  2
0
 70
     0
 62
     7
  6
Continuous
370
    -3
390
F
  0
LAYER
  5
8FD
102
{ACAD_XDICTIONARY
360
8FE
102
}
330
2
100
AcDbSymbolTableRecord
100
AcDbLayerTableRecord
  2
ceco.net 255
 70
     0
 62
     7
  6
Continuous
290
     0
370
    -3
390
F
1001
AcAecLayerStandard
1000

1000

  0
ENDTAB
  0
TABLE
  2
STYLE
  5
3
330
0
100
AcDbSymbolTable
 70
     1
  0
STYLE
  5
11
330
3
100
AcDbSymbolTableRecord
100
AcDbTextStyleTableRecord
  2
Standard
 70
     0
 40
0.0
 41
1.0
 50
0.0
 71
     0
 42
2.5
  3
txt
  4

  0
ENDTAB
  0
TABLE
  2
VIEW
  5
6
330
0
100
AcDbSymbolTable
 70
     0
  0
ENDTAB
  0
TABLE
  2
UCS
  5
7
330
0
100
AcDbSymbolTable
 70
     0
  0
ENDTAB
  0
TABLE
  2
APPID
  5
9
330
0
100
AcDbSymbolTable
 70
    22
  0
APPID
  5
12
330
9
100
AcDbSymbolTableRecord
100
AcDbRegAppTableRecord
  2
ACAD
 70
     0
  0
APPID
  5
2C
330
9
100
AcDbSymbolTableRecord
100
AcDbRegAppTableRecord
  2
ACAD_DSTYLE_DIMJOGGED_JOGANGLE_SYMBOL
 70
     0
  0
APPID
  5
11B
330
9
100
AcDbSymbolTableRecord
100
AcDbRegAppTableRecord
  2
ACAD_NAV_VCDISPLAY
 70
     0
  0
APPID
  5
11C
330
9
100
AcDbSymbolTableRecord
100
AcDbRegAppTableRecord
  2
ACAD_MLEADERVER
 70
     0
  0
APPID
  5
901
330
9
100
AcDbSymbolTableRecord
100
AcDbRegAppTableRecord
  2
DCO15
 70
     0
  0
APPID
  5
902
330
9
100
AcDbSymbolTableRecord
100
AcDbRegAppTableRecord
  2
AcAecLayerStandard
 70
     0
  0
APPID
  5
903
330
9
100
AcDbSymbolTableRecord
100
AcDbRegAppTableRecord
  2
AcCmTransparency
 70
     0
  0
APPID
  5
904
330
9
100
AcDbSymbolTableRecord
100
AcDbRegAppTableRecord
  2
ACAD_PSEXT
 70
     0
  0
APPID
  5
905
330
9
100
AcDbSymbolTableRecord
100
AcDbRegAppTableRecord
  2
RAK
 70
     0
  0
APPID
  5
906
330
9
100
AcDbSymbolTableRecord
100
AcDbRegAppTableRecord
  2
ACAD_DSTYLE_DIMJAG
 70
     0
  0
APPID
  5
907
330
9
100
AcDbSymbolTableRecord
100
AcDbRegAppTableRecord
  2
ACAD_DSTYLE_DIMTALN
 70
     0
  0
APPID
  5
908
330
9
100
AcDbSymbolTableRecord
100
AcDbRegAppTableRecord
  2
ACAD_DSTYLE_DIMTEXT_FILL
 70
     0
  0
APPID
  5
909
330
9
100
AcDbSymbolTableRecord
100
AcDbRegAppTableRecord
  2
ACAD_DSTYLE_DIMBREAK
 70
     0
  0
APPID
  5
90A
330
9
100
AcDbSymbolTableRecord
100
AcDbRegAppTableRecord
  2
REVIT
 70
     0
  0
APPID
  5
90B
330
9
100
AcDbSymbolTableRecord
100
AcDbRegAppTableRecord
  2
ACAD_EXEMPT_FROM_CAD_STANDARDS
 70
     0
  0
APPID
  5
90C
330
9
100
AcDbSymbolTableRecord
100
AcDbRegAppTableRecord
  2
AcadAnnoPO
 70
     0
  0
APPID
  5
90D
330
9
100
AcDbSymbolTableRecord
100
AcDbRegAppTableRecord
  2
ACAD_DSTYLE_DIM_LINETYPE
 70
     0
  0
APPID
  5
90E
330
9
100
AcDbSymbolTableRecord
100
AcDbRegAppTableRecord
  2
ACAD_DSTYLE_DIM_EXT1_LINETYPE
 70
     0
  0
APPID
  5
90F
330
9
100
AcDbSymbolTableRecord
100
AcDbRegAppTableRecord
  2
ACAD_DSTYLE_DIM_EXT2_LINETYPE
 70
     0
  0
APPID
  5
910
330
9
100
AcDbSymbolTableRecord
100
AcDbRegAppTableRecord
  2
AcDbDynamicBlockGUID
 70
     0
  0
APPID
  5
911
330
9
100
AcDbSymbolTableRecord
100
AcDbRegAppTableRecord
  2
ACAUTHENVIRON
 70
     0
  0
APPID
  5
912
330
9
100
AcDbSymbolTableRecord
100
AcDbRegAppTableRecord
  2
AcDbDynamicBlockTrueName
 70
     0
  0
ENDTAB
  0
TABLE
  2
DIMSTYLE
  5
A
330
0
100
AcDbSymbolTable
 70
     3
100
AcDbDimStyleTable
 71
     0
  0
DIMSTYLE
105
27
330
A
100
AcDbSymbolTableRecord
100
AcDbDimStyleTableRecord
  2
ISO-25
 70
     0
 41
2.5
 42
0.625
 43
3.75
 44
1.25
 73
     0
 74
     0
 77
     1
 78
     8
140
2.5
141
2.5
143
0.03937007874016
147
0.625
171
     3
172
     1
271
     2
272
     2
274
     3
278
    44
283
     0
284
     8
340
11
  0
DIMSTYLE
105
2B
330
A
100
AcDbSymbolTableRecord
100
AcDbDimStyleTableRecord
  2
Standard
 70
     0
340
11
  0
ENDTAB
  0
TABLE
  2
BLOCK_RECORD
  5
1
330
0
100
AcDbSymbolTable
 70
     3
  0
BLOCK_RECORD
  5
1F
330
1
100
AcDbSymbolTableRecord
100
AcDbBlockTableRecord
  2
*Model_Space
340
22
  0
BLOCK_RECORD
  5
1B
330
1
100
AcDbSymbolTableRecord
100
AcDbBlockTableRecord
  2
*Paper_Space
340
1E
  0
BLOCK_RECORD
  5
23
330
1
100
AcDbSymbolTableRecord
100
AcDbBlockTableRecord
  2
*Paper_Space0
340
26
  0
ENDTAB
  0
ENDSEC
  0
SECTION
  2
BLOCKS
  0
BLOCK
  5
20
330
1F
100
AcDbEntity
  8
0
100
AcDbBlockBegin
  2
*Model_Space
 70
     0
 10
0.0
 20
0.0
 30
0.0
  3
*Model_Space
  1

  0
ENDBLK
  5
21
330
1F
100
AcDbEntity
  8
0
100
AcDbBlockEnd
  0
BLOCK
  5
1C
330
1B
100
AcDbEntity
 67
     1
  8
0
100
AcDbBlockBegin
  2
*Paper_Space
 70
     0
 10
0.0
 20
0.0
 30
0.0
  3
*Paper_Space
  1

  0
ENDBLK
  5
1D
330
1B
100
AcDbEntity
 67
     1
  8
0
100
AcDbBlockEnd
  0
BLOCK
  5
24
330
23
100
AcDbEntity
  8
0
100
AcDbBlockBegin
  2
*Paper_Space0
 70
     0
 10
0.0
 20
0.0
 30
0.0
  3
*Paper_Space0
  1

  0
ENDBLK
  5
25
330
23
100
AcDbEntity
  8
0
100
AcDbBlockEnd
  0
ENDSEC
  0
SECTION
  2
ENTITIES
  0
LINE
  5
988
330
1F
100
AcDbEntity
  8
ceco.net 255
100
AcDbLine
 10
-66.50985385949389
 20
83.24438839293861
 30
0.0
 11
-66.50985385949389
 21
14.21669425960988
 31
0.0
  0
LINE
  5
989
330
1F
100
AcDbEntity
  8
ceco.net 255
100
AcDbLine
 10
-66.50985385949389
 20
14.21669425960988
 30
0.0
 11
-62.08917276290595
 21
14.21669425960988
 31
0.0
  0
LINE
  5
98A
330
1F
100
AcDbEntity
  8
ceco.net 255
100
AcDbLine
 10
-62.08917276290595
 20
14.21669425960988
 30
0.0
 11
-33.37050037242807
 21
14.21669561487067
 31
0.0
  0
LINE
  5
98B
330
1F
100
AcDbEntity
  8
ceco.net 255
100
AcDbLine
 10
-33.37050037242807
 20
14.21669561487067
 30
0.0
 11
-32.86577625867721
 21
13.44860063437357
 31
0.0
  0
LINE
  5
98C
330
1F
100
AcDbEntity
  8
ceco.net 255
100
AcDbLine
 10
-32.86577625867721
 20
13.44860063437357
 30
0.0
 11
-32.8754017434112
 21
13.55346767293571
 31
0.0
  0
LINE
  5
98D
330
1F
100
AcDbEntity
  8
ceco.net 255
100
AcDbLine
 10
-32.8754017434112
 20
13.55346767293571
 30
0.0
 11
-21.30180189888779
 21
13.34958632064064
 31
0.0
  0
LINE
  5
98E
330
1F
100
AcDbEntity
  8
ceco.net 255
100
AcDbLine
 10
-21.30180189888779
 20
13.34958632064064
 30
0.0
 11
622.3095249984762
 21
13.34958562418796
 31
0.0
  0
LINE
  5
98F
330
1F
100
AcDbEntity
  8
ceco.net 255
100
AcDbLine
 10
622.3095249984762
 20
13.34958562418796
 30
0.0
 11
634.5023708633561
 21
13.56437567099965
 31
0.0
  0
LINE
  5
990
330
1F
100
AcDbEntity
  8
ceco.net 255
100
AcDbLine
 10
634.5023708633561
 20
13.56437567099965
 30
0.0
 11
634.7350725748328
 21
15.48479000264609
 31
0.0
  0
LINE
  5
991
330
1F
100
AcDbEntity
  8
ceco.net 255
100
AcDbLine
 10
634.7350725748328
 20
15.48479000264609
 30
0.0
 11
634.8427820455436
 21
16.37288316051132
 31
0.0
  0
LINE
  5
992
330
1F
100
AcDbEntity
  8
ceco.net 255
100
AcDbLine
 10
634.8427820455436
 20
16.37288316051132
 30
0.0
 11
634.8546762547739
 21
27.55212285229976
 31
0.0
  0
LINE
  5
993
330
1F
100
AcDbEntity
  8
ceco.net 255
100
AcDbLine
 10
634.8546762547739
 20
27.55212285229976
 30
0.0
 11
634.8666671648897
 21
38.73136802128204
 31
0.0
  0
LINE
  5
994
330
1F
100
AcDbEntity
  8
ceco.net 255
100
AcDbLine
 10
634.8666671648897
 20
38.73136802128204
 30
0.0
 11
634.8786097245647
 21
49.91060714646244
 31
0.0
  0
LINE
  5
995
330
1F
100
AcDbEntity
  8
ceco.net 255
100
AcDbLine
 10
634.8786097245647
 20
49.91060714646244
 30
0.0
 11
634.8906006346806
 21
61.08984929354551
 31
0.0
  0
LINE
  5
996
330
1F
100
AcDbEntity
  8
ceco.net 255
100
AcDbLine
 10
634.8906006346806
 20
61.08984929354551
 30
0.0
 11
634.9025915447982
 21
72.26908539681961
 31
0.0
  0
LINE
  5
997
330
1F
100
AcDbEntity
  8
ceco.net 255
100
AcDbLine
 10
634.9025915447982
 20
72.26908539681961
 30
0.0
 11
634.9145341044714
 21
83.44833056590493
 31
0.0
  0
LINE
  5
998
330
1F
100
AcDbEntity
  8
ceco.net 255
100
AcDbLine
 10
634.9145341044714
 20
83.44833056590493
 30
0.0
 11
634.9145341044714
 21
1738.257652531392
 31
0.0
  0
LINE
  5
999
330
1F
100
AcDbEntity
  8
ceco.net 255
100
AcDbLine
 10
634.9145341044714
 20
1738.257652531392
 30
0.0
 11
634.8387089419047
 21
1768.568927214055
 31
0.0
  0
LINE
  5
99A
330
1F
100
AcDbEntity
  8
ceco.net 255
100
AcDbLine
 10
634.8387089419047
 20
1768.568927214055
 30
0.0
 11
634.639281679807
 21
1768.570106768042
 31
0.0
  0
LINE
  5
99B
330
1F
100
AcDbEntity
  8
ceco.net 255
100
AcDbLine
 10
634.639281679807
 20
1768.570106768042
 30
0.0
 11
634.5156738696678
 21
1769.548317229557
 31
0.0
  0
LINE
  5
99C
330
1F
100
AcDbEntity
  8
ceco.net 255
100
AcDbLine
 10
634.5156738696678
 20
1769.548317229557
 30
0.0
 11
622.3095249984689
 21
1769.732631176634
 31
0.0
  0
LINE
  5
99D
330
1F
100
AcDbEntity
  8
ceco.net 255
100
AcDbLine
 10
622.3095249984689
 20
1769.732631176634
 30
0.0
 11
300.5038449293278
 21
1769.788524289919
 31
0.0
  0
LINE
  5
99E
330
1F
100
AcDbEntity
  8
ceco.net 255
100
AcDbLine
 10
300.5038449293278
 20
1769.788524289919
 30
0.0
 11
-21.30175354843595
 21
1769.732631176634
 31
0.0
  0
LINE
  5
99F
330
1F
100
AcDbEntity
  8
ceco.net 255
100
AcDbLine
 10
-21.30175354843595
 20
1769.732631176634
 30
0.0
 11
-33.44321006947939
 21
1769.549294883561
 31
0.0
  0
LINE
  5
9A0
330
1F
100
AcDbEntity
  8
ceco.net 255
100
AcDbLine
 10
-33.44321006947939
 20
1769.549294883561
 30
0.0
 11
-33.54007664972232
 21
1768.768639221865
 31
0.0
  0
LINE
  5
9A1
330
1F
100
AcDbEntity
  8
ceco.net 255
100
AcDbLine
 10
-33.54007664972232
 20
1768.768639221865
 30
0.0
 11
-33.76143351701648
 21
1768.479986291034
 31
0.0
  0
LINE
  5
9A2
330
1F
100
AcDbEntity
  8
ceco.net 255
100
AcDbLine
 10
-33.76143351701648
 20
1768.479986291034
 30
0.0
 11
-33.76513192515995
 21
1766.959848338595
 31
0.0
  0
LINE
  5
9A3
330
1F
100
AcDbEntity
  8
ceco.net 255
100
AcDbLine
 10
-33.76513192515995
 20
1766.959848338595
 30
0.0
 11
-81.53451258594214
 21
1767.079545733616
 31
0.0
  0
LINE
  5
9A4
330
1F
100
AcDbEntity
  8
ceco.net 255
100
AcDbLine
 10
-81.53451258594214
 20
1767.079545733616
 30
0.0
 11
-81.53451258594214
 21
1767.350951830708
 31
0.0
  0
LINE
  5
9A5
330
1F
100
AcDbEntity
  8
ceco.net 255
100
AcDbLine
 10
-81.53451258594214
 20
1767.350951830708
 30
0.0
 11
-85.34189556262209
 21
1765.785423537914
 31
0.0
  0
LINE
  5
9A6
330
1F
100
AcDbEntity
  8
ceco.net 255
100
AcDbLine
 10
-85.34189556262209
 20
1765.785423537914
 30
0.0
 11
-87.67096968327496
 21
1762.318719477961
 31
0.0
  0
LINE
  5
9A7
330
1F
100
AcDbEntity
  8
ceco.net 255
100
AcDbLine
 10
-87.67096968327496
 20
1762.318719477961
 30
0.0
 11
-87.71885978957653
 21
1743.168529567953
 31
0.0
  0
LINE
  5
9A8
330
1F
100
AcDbEntity
  8
ceco.net 255
100
AcDbLine
 10
-87.71885978957653
 20
1743.168529567953
 30
0.0
 11
-85.43517903503198
 21
1739.732237088152
 31
0.0
  0
LINE
  5
9A9
330
1F
100
AcDbEntity
  8
ceco.net 255
100
AcDbLine
 10
-85.43517903503198
 20
1739.732237088152
 30
0.0
 11
-85.00327020596159
 21
1739.552080026365
 31
0.0
  0
LINE
  5
9AA
330
1F
100
AcDbEntity
  8
ceco.net 255
100
AcDbLine
 10
-85.00308750089606
 20
696.6323111398374
 30
0.0
 11
-89.68262611278442
 21
710.912639879713
 31
0.0
  0
LINE
  5
9AB
330
1F
100
AcDbEntity
  8
ceco.net 255
100
AcDbLine
 10
-89.68262611278442
 20
710.912639879713
 30
0.0
 11
-97.20788921978238
 21
735.1029472273687
 31
0.0
  0
LINE
  5
9AC
330
1F
100
AcDbEntity
  8
ceco.net 255
100
AcDbLine
 10
-97.20788921978238
 20
735.1029472273687
 30
0.0
 11
-104.3834819156418
 21
759.8547482814098
 31
0.0
  0
LINE
  5
9AD
330
1F
100
AcDbEntity
  8
ceco.net 255
100
AcDbLine
 10
-104.3834819156418
 20
759.8547482814098
 30
0.0
 11
-111.1332039005938
 21
785.3376563994495
 31
0.0
  0
LINE
  5
9AE
330
1F
100
AcDbEntity
  8
ceco.net 255
100
AcDbLine
 10
-111.1332039005938
 20
785.3376563994495
 30
0.0
 11
-117.3808065244102
 21
811.7213816399919
 31
0.0
  0
LINE
  5
9AF
330
1F
100
AcDbEntity
  8
ceco.net 255
100
AcDbLine
 10
-117.3808065244102
 20
811.7213816399919
 30
0.0
 11
-123.0490257775563
 21
839.1774713784172
 31
0.0
  0
LINE
  5
9B0
330
1F
100
AcDbEntity
  8
ceco.net 255
100
AcDbLine
 10
-123.0490257775563
 20
839.1774713784172
 30
0.0
 11
-128.0604525991584
 21
867.8774246396521
 31
0.0
  0
LINE
  5
9B1
330
1F
100
AcDbEntity
  8
ceco.net 255
100
AcDbLine
 10
-128.0604525991584
 20
867.8774246396521
 30
0.0
 11
-132.335018653921
 21
897.9925953973058
 31
0.0
  0
LINE
  5
9B2
330
1F
100
AcDbEntity
  8
ceco.net 255
100
AcDbLine
 10
-132.335018653921
 20
897.9925953973058
 30
0.0
 11
-135.7926556065522
 21
929.69433762497
 31
0.0
  0
LINE
  5
9B3
330
1F
100
AcDbEntity
  8
ceco.net 255
100
AcDbLine
 10
-135.7926556065522
 20
929.69433762497
 30
0.0
 11
-138.3503457446786
 21
963.1507174660578
 31
0.0
  0
LINE
  5
9B4
330
1F
100
AcDbEntity
  8
ceco.net 255
100
AcDbLine
 10
-138.3503457446786
 20
963.1507174660578
 30
0.0
 11
-139.9251197063495
 21
998.5302845684183
 31
0.0
  0
LINE
  5
9B5
330
1F
100
AcDbEntity
  8
ceco.net 255
100
AcDbLine
 10
-139.9251197063495
 20
998.5302845684183
 30
0.0
 11
-140.4618579853959
 21
1034.865063042798
 31
0.0
  0
LINE
  5
9B6
330
1F
100
AcDbEntity
  8
ceco.net 255
100
AcDbLine
 10
-140.4618579853959
 20
1034.865063042798
 30
0.0
 11
-139.9054410756361
 21
1071.18717370085
 31
0.0
  0
LINE
  5
9B7
330
1F
100
AcDbEntity
  8
ceco.net 255
100
AcDbLine
 10
-139.9054410756361
 20
1071.18717370085
 30
0.0
 11
-138.3133576550026
 21
1106.529994465753
 31
0.0
  0
LINE
  5
9B8
330
1F
100
AcDbEntity
  8
ceco.net 255
100
AcDbLine
 10
-138.3133576550026
 20
1106.529994465753
 30
0.0
 11
-135.7429997005492
 21
1139.926419756258
 31
0.0
  0
LINE
  5
9B9
330
1F
100
AcDbEntity
  8
ceco.net 255
100
AcDbLine
 10
-135.7429997005492
 20
1139.926419756258
 30
0.0
 11
-132.2770464715449
 21
1171.546643135308
 31
0.0
  0
LINE
  5
9BA
330
1F
100
AcDbEntity
  8
ceco.net 255
100
AcDbLine
 10
-132.2770464715449
 20
1171.546643135308
 30
0.0
 11
-127.998177227264
 21
1201.560568063187
 31
0.0
  0
LINE
  5
9BB
330
1F
100
AcDbEntity
  8
ceco.net 255
100
AcDbLine
 10
-127.998177227264
 20
1201.560568063187
 30
0.0
 11
-122.9861218498845
 21
1230.141482531252
 31
0.0
  0
LINE
  5
9BC
330
1F
100
AcDbEntity
  8
ceco.net 255
100
AcDbLine
 10
-122.9861218498845
 20
1230.141482531252
 30
0.0
 11
-117.3206102216063
 21
1257.462674530864
 31
0.0
  0
LINE
  5
9BD
330
1F
100
AcDbEntity
  8
ceco.net 255
100
AcDbLine
 10
-117.3206102216063
 20
1257.462674530864
 30
0.0
 11
-111.0785678988522
 21
1283.697915557827
 31
0.0
  0
LINE
  5
9BE
330
1F
100
AcDbEntity
  8
ceco.net 255
100
AcDbLine
 10
-111.0785678988522
 20
1283.697915557827
 30
0.0
 11
-104.3369204380524
 21
1309.020783706167
 31
0.0
  0
LINE
  5
9BF
330
1F
100
AcDbEntity
  8
ceco.net 255
100
AcDbLine
 10
-104.3369204380524
 20
1309.020783706167
 30
0.0
 11
-97.17128793366283
 21
1333.60321315481
 31
0.0
  0
LINE
  5
9C0
330
1F
100
AcDbEntity
  8
ceco.net 255
100
AcDbLine
 10
-97.17128793366283
 20
1333.60321315481
 30
0.0
 11
-89.65743553145149
 21
1357.617041381801
 31
0.0
  0
LINE
  5
9C1
330
1F
100
AcDbEntity
  8
ceco.net 255
100
AcDbLine
 10
-89.65743553145149
 20
1357.617041381801
 30
0.0
 11
-85.00321424297544
 21
1371.733888214873
 31
0.0
  0
LINE
  5
9C2
330
1F
100
AcDbEntity
  8
ceco.net 255
100
AcDbLine
 10
-85.00327014069808
 20
1739.123125479339
 30
0.0
 11
-33.76513192515995
 21
1739.123125479339
 31
0.0
  0
LINE
  5
9C3
330
1F
100
AcDbEntity
  8
ceco.net 255
100
AcDbLine
 10
-33.76513192515995
 20
1766.959848338595
 30
0.0
 11
-33.76513192515995
 21
14.21669559624734
 31
0.0
  0
LINE
  5
9C4
330
1F
100
AcDbEntity
  8
ceco.net 255
100
AcDbLine
 10
-85.00298003803619
 20
83.24438839293861
 30
0.0
 11
-33.76513192515995
 21
83.24438839293861
 31
0.0
  0
LINE
  5
9C5
330
1F
100
AcDbEntity
  8
ceco.net 255
100
AcDbLine
 10
-85.00311380463973
 20
846.7715855176978
 30
0.0
 11
-85.00311380463973
 21
1233.013498905934
 31
0.0
  0
LINE
  5
9C6
330
1F
100
AcDbEntity
  8
ceco.net 255
100
AcDbLine
 10
-85.00327020596159
 20
1739.552080026365
 30
0.0
 11
-85.00319313687942
 21
1233.013498905934
 31
0.0
  0
LINE
  5
9C7
330
1F
100
AcDbEntity
  8
ceco.net 255
100
AcDbLine
 10
-85.00319313687942
 20
1233.013498905934
 30
0.0
 11
-92.10188892968472
 21
1233.013498905934
 31
0.0
  0
LINE
  5
9C8
330
1F
100
AcDbEntity
  8
ceco.net 255
100
AcDbLine
 10
-92.10188892968472
 20
1233.013498905934
 30
0.0
 11
-92.10188892968472
 21
1229.37174346248
 31
0.0
  0
LINE
  5
9C9
330
1F
100
AcDbEntity
  8
ceco.net 255
100
AcDbLine
 10
-92.10188892968472
 20
1229.37174346248
 30
0.0
 11
-92.10188050472243
 21
1163.338091553445
 31
0.0
  0
LINE
  5
9CA
330
1F
100
AcDbEntity
  8
ceco.net 255
100
AcDbLine
 10
-92.10188050472243
 20
1163.338091553445
 30
0.0
 11
-94.59227524973176
 21
1163.338091553445
 31
0.0
  0
LINE
  5
9CB
330
1F
100
AcDbEntity
  8
ceco.net 255
100
AcDbLine
 10
-94.59227524973176
 20
1163.338091553445
 30
0.0
 11
-94.59227524973176
 21
1162.848494957317
 31
0.0
  0
LINE
  5
9CC
330
1F
100
AcDbEntity
  8
ceco.net 255
100
AcDbLine
 10
-94.59227524973176
 20
1162.848494957317
 30
0.0
 11
-94.84777851499165
 21
1161.673299610787
 31
0.0
  0
LINE
  5
9CD
330
1F
100
AcDbEntity
  8
ceco.net 255
100
AcDbLine
 10
-94.84777851499165
 20
1161.673299610787
 30
0.0
 11
-94.61988335326168
 21
1161.926516457147
 31
0.0
  0
LINE
  5
9CE
330
1F
100
AcDbEntity
  8
ceco.net 255
100
AcDbLine
 10
-94.61988335326168
 20
1161.926516457147
 30
0.0
 11
-94.61988335326168
 21
1151.237211317003
 31
0.0
  0
LINE
  5
9CF
330
1F
100
AcDbEntity
  8
ceco.net 255
100
AcDbLine
 10
-94.61988335326168
 20
1151.237211317003
 30
0.0
 11
-93.88945503545256
 21
1151.103011694627
 31
0.0
  0
LINE
  5
9D0
330
1F
100
AcDbEntity
  8
ceco.net 255
100
AcDbLine
 10
-93.88945503545256
 20
1151.103011694627
 30
0.0
 11
-92.10187894369665
 21
1151.103011694627
 31
0.0
  0
LINE
  5
9D1
330
1F
100
AcDbEntity
  8
ceco.net 255
100
AcDbLine
 10
-92.10187894369665
 20
1151.103011694627
 30
0.0
 11
-92.10184057924198
 21
850.4078290105326
 31
0.0
  0
LINE
  5
9D2
330
1F
100
AcDbEntity
  8
ceco.net 255
100
AcDbLine
 10
-92.10184057924198
 20
850.4078290105326
 30
0.0
 11
-92.10184057924198
 21
846.7715855176978
 31
0.0
  0
LINE
  5
9D3
330
1F
100
AcDbEntity
  8
ceco.net 255
100
AcDbLine
 10
-92.10184057924198
 20
846.7715855176978
 30
0.0
 11
-85.00311380463973
 21
846.7715855176978
 31
0.0
  0
LINE
  5
9D4
330
1F
100
AcDbEntity
  8
ceco.net 255
100
AcDbLine
 10
-85.00322331400457
 20
1431.353479898629
 30
0.0
 11
-92.1260158012501
 21
1410.833860889593
 31
0.0
  0
LINE
  5
9D5
330
1F
100
AcDbEntity
  8
ceco.net 255
100
AcDbLine
 10
-92.1260158012501
 20
1410.833860889593
 30
0.0
 11
-100.1514642516121
 21
1387.312723687149
 31
0.0
  0
LINE
  5
9D6
330
1F
100
AcDbEntity
  8
ceco.net 255
100
AcDbLine
 10
-100.1514642516121
 20
1387.312723687149
 30
0.0
 11
-108.0105871745636
 21
1363.468992322215
 31
0.0
  0
LINE
  5
9D7
330
1F
100
AcDbEntity
  8
ceco.net 255
100
AcDbLine
 10
-108.0105871745636
 20
1363.468992322215
 30
0.0
 11
-115.6201251054808
 21
1339.141176311774
 31
0.0
  0
LINE
  5
9D8
330
1F
100
AcDbEntity
  8
ceco.net 255
100
AcDbLine
 10
-115.6201251054808
 20
1339.141176311774
 30
0.0
 11
-122.8970119815585
 21
1314.167978574574
 31
0.0
  0
LINE
  5
9D9
330
1F
100
AcDbEntity
  8
ceco.net 255
100
AcDbLine
 10
-122.8970119815585
 20
1314.167978574574
 30
0.0
 11
-129.7579399877504
 21
1288.388102029373
 31
0.0
  0
LINE
  5
9DA
330
1F
100
AcDbEntity
  8
ceco.net 255
100
AcDbLine
 10
-129.7579399877504
 20
1288.388102029373
 30
0.0
 11
-136.1197947107812
 21
1261.640152894039
 31
0.0
  0
LINE
  5
9DB
330
1F
100
AcDbEntity
  8
ceco.net 255
100
AcDbLine
 10
-136.1197947107812
 20
1261.640152894039
 30
0.0
 11
-141.899523281063
 21
1233.762304025828
 31
0.0
  0
LINE
  5
9DC
330
1F
100
AcDbEntity
  8
ceco.net 255
100
AcDbLine
 10
-141.899523281063
 20
1233.762304025828
 30
0.0
 11
-147.0136332525362
 21
1204.594848527997
 31
0.0
  0
LINE
  5
9DD
330
1F
100
AcDbEntity
  8
ceco.net 255
100
AcDbLine
 10
-147.0136332525362
 20
1204.594848527997
 30
0.0
 11
-151.3792431933834
 21
1173.974802433904
 31
0.0
  0
LINE
  5
9DE
330
1F
100
AcDbEntity
  8
ceco.net 255
100
AcDbLine
 10
-151.3792431933834
 20
1173.974802433904
 30
0.0
 11
-154.9130320953445
 21
1141.741398723817
 31
0.0
  0
LINE
  5
9DF
330
1F
100
AcDbEntity
  8
ceco.net 255
100
AcDbLine
 10
-154.9130320953445
 20
1141.741398723817
 30
0.0
 11
-157.531837194705
 21
1107.733243615592
 31
0.0
  0
LINE
  5
9E0
330
1F
100
AcDbEntity
  8
ceco.net 255
100
AcDbLine
 10
-157.531837194705
 20
1107.733243615592
 30
0.0
 11
-159.1525440781988
 21
1071.7889433271
 31
0.0
  0
LINE
  5
9E1
330
1F
100
AcDbEntity
  8
ceco.net 255
100
AcDbLine
 10
-159.1525440781988
 20
1071.7889433271
 30
0.0
 11
-159.7183409740973
 21
1034.870381591642
 31
0.0
  0
LINE
  5
9E2
330
1F
100
AcDbEntity
  8
ceco.net 255
100
AcDbLine
 10
-159.7183409740973
 20
1034.870381591642
 30
0.0
 11
-159.1725128115813
 21
997.9390553389615
 31
0.0
  0
LINE
  5
9E3
330
1F
100
AcDbEntity
  8
ceco.net 255
100
AcDbLine
 10
-159.1725128115813
 20
997.9390553389615
 30
0.0
 11
-157.5695021905994
 21
961.9581054139068
 31
0.0
  0
LINE
  5
9E4
330
1F
100
AcDbEntity
  8
ceco.net 255
100
AcDbLine
 10
-157.5695021905994
 20
961.9581054139068
 30
0.0
 11
-154.9637033606813
 21
927.8902858577609
 31
0.0
  0
LINE
  5
9E5
330
1F
100
AcDbEntity
  8
ceco.net 255
100
AcDbLine
 10
-154.9637033606813
 20
927.8902858577609
 30
0.0
 11
-151.4387625899708
 21
895.5763303079365
 31
0.0
  0
LINE
  5
9E6
330
1F
100
AcDbEntity
  8
ceco.net 255
100
AcDbLine
 10
-151.4387625899708
 20
895.5763303079365
 30
0.0
 11
-147.078132744853
 21
864.8566822991703
 31
0.0
  0
LINE
  5
9E7
330
1F
100
AcDbEntity
  8
ceco.net 255
100
AcDbLine
 10
-147.078132744853
 20
864.8566822991703
 30
0.0
 11
-141.9655084439182
 21
835.5719787679738
 31
0.0
  0
LINE
  5
9E8
330
1F
100
AcDbEntity
  8
ceco.net 255
100
AcDbLine
 10
-141.9655084439182
 20
835.5719787679738
 30
0.0
 11
-136.1843425535498
 21
807.5628083004255
 31
0.0
  0
LINE
  5
9E9
330
1F
100
AcDbEntity
  8
ceco.net 255
100
AcDbLine
 10
-136.1843425535498
 20
807.5628083004255
 30
0.0
 11
-129.818184640997
 21
780.6696627817054
 31
0.0
  0
LINE
  5
9EA
330
1F
100
AcDbEntity
  8
ceco.net 255
100
AcDbLine
 10
-129.818184640997
 20
780.6696627817054
 30
0.0
 11
-122.9507293248643
 21
754.7330824474486
 31
0.0
  0
LINE
  5
9EB
330
1F
100
AcDbEntity
  8
ceco.net 255
100
AcDbLine
 10
-122.9507293248643
 20
754.7330824474486
 30
0.0
 11
-115.6653811210853
 21
729.5937525845992
 31
0.0
  0
LINE
  5
9EC
330
1F
100
AcDbEntity
  8
ceco.net 255
100
AcDbLine
 10
-115.6653811210853
 20
729.5937525845992
 30
0.0
 11
-108.0458346482519
 21
705.0922134287993
 31
0.0
  0
LINE
  5
9ED
330
1F
100
AcDbEntity
  8
ceco.net 255
100
AcDbLine
 10
-108.0458346482519
 20
705.0922134287993
 30
0.0
 11
-100.175542772733
 21
681.0689085147751
 31
0.0
  0
LINE
  5
9EE
330
1F
100
AcDbEntity
  8
ceco.net 255
100
AcDbLine
 10
-100.175542772733
 20
681.0689085147751
 30
0.0
 11
-92.13815176269781
 21
657.3644747790661
 31
0.0
  0
LINE
  5
9EF
330
1F
100
AcDbEntity
  8
ceco.net 255
100
AcDbLine
 10
-92.13815176269781
 20
657.3644747790661
 30
0.0
 11
-85.00307699713449
 21
636.6778131738513
 31
0.0
  0
LINE
  5
9F0
330
1F
100
AcDbEntity
  8
ceco.net 255
100
AcDbLine
 10
-85.00311380463973
 20
846.7715855176978
 30
0.0
 11
-85.00298003803619
 21
83.24438839293861
 31
0.0
  0
ARC
  5
9F1
330
1F
100
AcDbEntity
  8
ceco.net 255
100
AcDbCircle
 10
590.5675233537658
 20
14.88133125588865
 30
0.0
 40
14.88133125588865
100
AcDbArc
 50
185.9079573695982
 51
354.0920425064129
  0
ARC
  5
9F2
330
1F
100
AcDbEntity
  8
ceco.net 255
100
AcDbCircle
 10
0.0
 20
14.88133125588865
 30
0.0
 40
14.88133125588865
100
AcDbArc
 50
185.9079548959883
 51
354.0920449800228
  0
ENDSEC
  0
SECTION
  2
OBJECTS
  0
DICTIONARY
  5
C
330
0
100
AcDbDictionary
281
     1
  3
ACAD_GROUP
350
D
  3
ACAD_IMAGE_DICT
350
983
  3
ACAD_LAYOUT
350
1A
  3
ACAD_MLINESTYLE
350
17
  3
ACAD_PLOTSETTINGS
350
19
  3
ACAD_PLOTSTYLENAME
350
E
  3
AcDbVariableDictionary
350
115
  3
DWGPROPS
350
8E3
  0
DICTIONARY
  5
913
330
2
100
AcDbDictionary
280
     1
281
     1
  3
ACAD_LAYERFILTERS
360
9F3
  3
ACAD_LAYERSTATES
360
914
  0
DICTIONARY
  5
8FE
330
8FD
100
AcDbDictionary
280
     1
281
     1
  3
ACAD_XREC_ROUNDTRIP
360
8FF
  0
DICTIONARY
  5
D
102
{ACAD_REACTORS
330
C
102
}
330
C
100
AcDbDictionary
281
     1
  0
DICTIONARY
  5
983
102
{ACAD_REACTORS
330
C
102
}
330
C
100
AcDbDictionary
281
     1
  3
E1
350
984
  3
E2
350
985
  3
E3
350
986
  0
DICTIONARY
  5
1A
102
{ACAD_REACTORS
330
C
102
}
330
C
100
AcDbDictionary
281
     1
  3
Layout1
350
1E
  3
Layout2
350
26
  3
Model
350
22
  0
DICTIONARY
  5
17
102
{ACAD_REACTORS
330
C
102
}
330
C
100
AcDbDictionary
281
     1
  3
Standard
350
18
  0
DICTIONARY
  5
19
102
{ACAD_REACTORS
330
C
102
}
330
C
100
AcDbDictionary
281
     1
  0
ACDBDICTIONARYWDFLT
  5
E
102
{ACAD_REACTORS
330
C
102
}
330
C
100
AcDbDictionary
281
     1
  3
Normal
350
F
100
AcDbDictionaryWithDefault
340
F
  0
DICTIONARY
  5
115
102
{ACAD_REACTORS
330
C
102
}
330
C
100
AcDbDictionary
281
     1
  3
DIMASSOC
350
117
  3
HIDETEXT
350
116
  0
XRECORD
  5
8E3
102
{ACAD_REACTORS
330
C
102
}
330
C
100
AcDbXrecord
280
     1
  1
DWGPROPS COOKIE
  2
Ceco.NET-Trees-and-Plants - T - xx . 67 . dwg
  3

  4
ceco.net
  6

  7

  8
peacosta
  9

300
=
301
=
302
=
303
=
304
=
305
=
306
=
307
=
308
=
309
=
 40
0.0450312037037037
 41
2455079.811409143
 42
2455838.656599502
  1

 90
        0
  0
DICTIONARY
  5
9F3
102
{ACAD_REACTORS
330
913
102
}
330
913
100
AcDbDictionary
280
     1
281
     1
  0
DICTIONARY
  5
914
102
{ACAD_REACTORS
330
913
102
}
330
913
100
AcDbDictionary
281
     1
  0
XRECORD
  5
8FF
102
{ACAD_REACTORS
330
8FE
102
}
330
8FE
100
AcDbXrecord
280
     1
102
MATERIAL
340
0
  0
IMAGEDEF
  5
984
102
{ACAD_REACTORS
330
983
102
}
330
983
100
AcDbRasterImageDef
 90
        0
  1
F:\BLOQUES\BLOQUES AUTOCAD\WEB dwgautocad\CL\E1.jpg
 10
711.0
 20
760.0
 11
0.2116666666666666
 21
0.2116666666666666
280
     1
281
     5
  0
IMAGEDEF
  5
985
102
{ACAD_REACTORS
330
983
102
}
330
983
100
AcDbRasterImageDef
 90
        0
  1
F:\BLOQUES\BLOQUES AUTOCAD\WEB dwgautocad\CL\E2.jpg
 10
458.0
 20
772.0
 11
0.2116666666666666
 21
0.2116666666666666
280
     1
281
     5
  0
IMAGEDEF
  5
986
102
{ACAD_REACTORS
330
983
102
}
330
983
100
AcDbRasterImageDef
 90
        0
  1
F:\BLOQUES\BLOQUES AUTOCAD\WEB dwgautocad\CL\E3.jpg
 10
488.0
 20
773.0
 11
0.2116666666666666
 21
0.2116666666666666
280
     1
281
     5
  0
LAYOUT
  5
1E
102
{ACAD_REACTORS
330
1A
102
}
330
1A
100
AcDbPlotSettings
  1

  2
Microsoft Office Document Image Writer
  4

  6

 40
0.0
 41
0.0
 42
0.0
 43
0.0
 44
0.0
 45
0.0
 46
0.0
 47
0.0
 48
0.0
 49
0.0
140
0.0
141
0.0
142
1.0
143
1.0
 70
   688
 72
     0
 73
     0
 74
     5
  7

 75
    16
147
1.0
148
0.0
149
0.0
100
AcDbLayout
  1
Layout1
 70
     1
 71
     1
 10
0.0
 20
0.0
 11
420.0
 21
297.0
 12
0.0
 22
0.0
 32
0.0
 14
1.000000000000000E+20
 24
1.000000000000000E+20
 34
1.000000000000000E+20
 15
-1.000000000000000E+20
 25
-1.000000000000000E+20
 35
-1.000000000000000E+20
146
0.0
 13
0.0
 23
0.0
 33
0.0
 16
1.0
 26
0.0
 36
0.0
 17
0.0
 27
1.0
 37
0.0
 76
     0
330
1B
  0
LAYOUT
  5
26
102
{ACAD_REACTORS
330
1A
102
}
330
1A
100
AcDbPlotSettings
  1

  2
Microsoft Office Document Image Writer
  4

  6

 40
0.0
 41
0.0
 42
0.0
 43
0.0
 44
0.0
 45
0.0
 46
0.0
 47
0.0
 48
0.0
 49
0.0
140
0.0
141
0.0
142
1.0
143
1.0
 70
   688
 72
     0
 73
     0
 74
     5
  7

 75
    16
147
1.0
148
0.0
149
0.0
100
AcDbLayout
  1
Layout2
 70
     1
 71
     2
 10
0.0
 20
0.0
 11
12.0
 21
9.0
 12
0.0
 22
0.0
 32
0.0
 14
0.0
 24
0.0
 34
0.0
 15
0.0
 25
0.0
 35
0.0
146
0.0
 13
0.0
 23
0.0
 33
0.0
 16
1.0
 26
0.0
 36
0.0
 17
0.0
 27
1.0
 37
0.0
 76
     0
330
23
  0
LAYOUT
  5
22
102
{ACAD_REACTORS
330
1A
102
}
330
1A
100
AcDbPlotSettings
  1

  2
Microsoft Office Document Image Writer
  4

  6

 40
0.0
 41
0.0
 42
0.0
 43
0.0
 44
0.0
 45
0.0
 46
0.0
 47
0.0
 48
0.0
 49
0.0
140
0.0
141
0.0
142
1.0
143
1.0
 70
  1712
 72
     0
 73
     0
 74
     0
  7

 75
     0
147
1.0
148
0.0
149
0.0
100
AcDbLayout
  1
Model
 70
     1
 71
     0
 10
0.0
 20
0.0
 11
12.0
 21
9.0
 12
0.0
 22
0.0
 32
0.0
 14
0.0
 24
0.0
 34
0.0
 15
0.0
 25
0.0
 35
0.0
146
0.0
 13
0.0
 23
0.0
 33
0.0
 16
1.0
 26
0.0
 36
0.0
 17
0.0
 27
1.0
 37
0.0
 76
     0
330
1F
  0
MLINESTYLE
  5
18
102
{ACAD_REACTORS
330
17
102
}
330
17
100
AcDbMlineStyle
  2
STANDARD
 70
     0
  3

 62
   256
 51
90.0
 52
90.0
 71
     2
 49
0.5
 62
   256
  6
BYLAYER
 49
-0.5
 62
   256
  6
BYLAYER
  0
ACDBPLACEHOLDER
  5
F
102
{ACAD_REACTORS
330
E
102
}
330
E
  0
DICTIONARYVAR
  5
117
102
{ACAD_REACTORS
330
115
102
}
330
115
100
DictionaryVariables
280
     0
  1
2
  0
DICTIONARYVAR
  5
116
102
{ACAD_REACTORS
330
115
102
}
330
115
100
DictionaryVariables
280
     0
  1
1
  0
ENDSEC
  0
EOF
