  0
SECTION
  2
HEADER
  9
$ACADVER
  1
AC1015
  9
$ACADMAINTVER
 70
    13
  9
$DWGCODEPAGE
  3
ANSI_1252
  9
$INSBASE
 10
0.0
 20
0.0
 30
0.0
  9
$EXTMIN
 10
-1041.271220587508
 20
-0.0000000000000355
 30
0.0
  9
$EXTMAX
 10
1041.285761171661
 20
1440.147631060445
 30
0.0
  9
$LIMMIN
 10
0.0
 20
0.0
  9
$LIMMAX
 10
297.0
 20
210.0
  9
$ORTHOMODE
 70
     0
  9
$REGENMODE
 70
     1
  9
$FILLMODE
 70
     1
  9
$QTEXTMODE
 70
     0
  9
$MIRRTEXT
 70
     1
  9
$LTSCALE
 40
1.0
  9
$ATTMODE
 70
     1
  9
$TEXTSIZE
 40
2.5
  9
$TRACEWID
 40
1.0
  9
$TEXTSTYLE
  7
Standard
  9
$CLAYER
  8
ceco.net 437 - Tesla 3 front view
  9
$CELTYPE
  6
ByLayer
  9
$CECOLOR
 62
   256
  9
$CELTSCALE
 40
1.0
  9
$DISPSILH
 70
     0
  9
$DIMSCALE
 40
1.0
  9
$DIMASZ
 40
2.5
  9
$DIMEXO
 40
0.625
  9
$DIMDLI
 40
3.75
  9
$DIMRND
 40
0.0
  9
$DIMDLE
 40
0.0
  9
$DIMEXE
 40
1.25
  9
$DIMTP
 40
0.0
  9
$DIMTM
 40
0.0
  9
$DIMTXT
 40
2.5
  9
$DIMCEN
 40
2.5
  9
$DIMTSZ
 40
0.0
  9
$DIMTOL
 70
     0
  9
$DIMLIM
 70
     0
  9
$DIMTIH
 70
     0
  9
$DIMTOH
 70
     0
  9
$DIMSE1
 70
     0
  9
$DIMSE2
 70
     0
  9
$DIMTAD
 70
     1
  9
$DIMZIN
 70
     8
  9
$DIMBLK
  1

  9
$DIMASO
 70
     1
  9
$DIMSHO
 70
     1
  9
$DIMPOST
  1

  9
$DIMAPOST
  1

  9
$DIMALT
 70
     0
  9
$DIMALTD
 70
     3
  9
$DIMALTF
 40
0.03937007874016
  9
$DIMLFAC
 40
1.0
  9
$DIMTOFL
 70
     1
  9
$DIMTVP
 40
0.0
  9
$DIMTIX
 70
     0
  9
$DIMSOXD
 70
     0
  9
$DIMSAH
 70
     0
  9
$DIMBLK1
  1

  9
$DIMBLK2
  1

  9
$DIMSTYLE
  2
ISO-25
  9
$DIMCLRD
 70
     0
  9
$DIMCLRE
 70
     0
  9
$DIMCLRT
 70
     0
  9
$DIMTFAC
 40
1.0
  9
$DIMGAP
 40
0.625
  9
$DIMJUST
 70
     0
  9
$DIMSD1
 70
     0
  9
$DIMSD2
 70
     0
  9
$DIMTOLJ
 70
     0
  9
$DIMTZIN
 70
     8
  9
$DIMALTZ
 70
     0
  9
$DIMALTTZ
 70
     0
  9
$DIMUPT
 70
     0
  9
$DIMDEC
 70
     2
  9
$DIMTDEC
 70
     2
  9
$DIMALTU
 70
     2
  9
$DIMALTTD
 70
     3
  9
$DIMTXSTY
  7
Standard
  9
$DIMAUNIT
 70
     0
  9
$DIMADEC
 70
     0
  9
$DIMALTRND
 40
0.0
  9
$DIMAZIN
 70
     0
  9
$DIMDSEP
 70
    44
  9
$DIMATFIT
 70
     3
  9
$DIMFRAC
 70
     0
  9
$DIMLDRBLK
  1

  9
$DIMLUNIT
 70
     2
  9
$DIMLWD
 70
    -2
  9
$DIMLWE
 70
    -2
  9
$DIMTMOVE
 70
     0
  9
$LUNITS
 70
     2
  9
$LUPREC
 70
     4
  9
$SKETCHINC
 40
1.0
  9
$FILLETRAD
 40
10.0
  9
$AUNITS
 70
     0
  9
$AUPREC
 70
     0
  9
$MENU
  1
.
  9
$ELEVATION
 40
0.0
  9
$PELEVATION
 40
0.0
  9
$THICKNESS
 40
0.0
  9
$LIMCHECK
 70
     0
  9
$CHAMFERA
 40
10.0
  9
$CHAMFERB
 40
10.0
  9
$CHAMFERC
 40
20.0
  9
$CHAMFERD
 40
0.0
  9
$SKPOLY
 70
     0
  9
$TDCREATE
 40
2457858.695660799
  9
$TDUCREATE
 40
2457858.820660799
  9
$TDUPDATE
 40
2458353.986637419
  9
$TDUUPDATE
 40
2458354.111637419
  9
$TDINDWG
 40
0.0137114931
  9
$TDUSRTIMER
 40
0.0137114815
  9
$USRTIMER
 70
     1
  9
$ANGBASE
 50
0.0
  9
$ANGDIR
 70
     0
  9
$PDMODE
 70
     0
  9
$PDSIZE
 40
0.0
  9
$PLINEWID
 40
0.0
  9
$SPLFRAME
 70
     0
  9
$SPLINETYPE
 70
     6
  9
$SPLINESEGS
 70
     8
  9
$HANDSEED
  5
4A5
  9
$SURFTAB1
 70
     6
  9
$SURFTAB2
 70
     6
  9
$SURFTYPE
 70
     6
  9
$SURFU
 70
     6
  9
$SURFV
 70
     6
  9
$UCSBASE
  2

  9
$UCSNAME
  2

  9
$UCSORG
 10
0.0
 20
0.0
 30
0.0
  9
$UCSXDIR
 10
1.0
 20
0.0
 30
0.0
  9
$UCSYDIR
 10
0.0
 20
1.0
 30
0.0
  9
$UCSORTHOREF
  2

  9
$UCSORTHOVIEW
 70
     0
  9
$UCSORGTOP
 10
0.0
 20
0.0
 30
0.0
  9
$UCSORGBOTTOM
 10
0.0
 20
0.0
 30
0.0
  9
$UCSORGLEFT
 10
0.0
 20
0.0
 30
0.0
  9
$UCSORGRIGHT
 10
0.0
 20
0.0
 30
0.0
  9
$UCSORGFRONT
 10
0.0
 20
0.0
 30
0.0
  9
$UCSORGBACK
 10
0.0
 20
0.0
 30
0.0
  9
$PUCSBASE
  2

  9
$PUCSNAME
  2

  9
$PUCSORG
 10
0.0
 20
0.0
 30
0.0
  9
$PUCSXDIR
 10
1.0
 20
0.0
 30
0.0
  9
$PUCSYDIR
 10
0.0
 20
1.0
 30
0.0
  9
$PUCSORTHOREF
  2

  9
$PUCSORTHOVIEW
 70
     0
  9
$PUCSORGTOP
 10
0.0
 20
0.0
 30
0.0
  9
$PUCSORGBOTTOM
 10
0.0
 20
0.0
 30
0.0
  9
$PUCSORGLEFT
 10
0.0
 20
0.0
 30
0.0
  9
$PUCSORGRIGHT
 10
0.0
 20
0.0
 30
0.0
  9
$PUCSORGFRONT
 10
0.0
 20
0.0
 30
0.0
  9
$PUCSORGBACK
 10
0.0
 20
0.0
 30
0.0
  9
$USERI1
 70
     0
  9
$USERI2
 70
     0
  9
$USERI3
 70
     0
  9
$USERI4
 70
     0
  9
$USERI5
 70
     0
  9
$USERR1
 40
0.0
  9
$USERR2
 40
0.0
  9
$USERR3
 40
0.0
  9
$USERR4
 40
0.0
  9
$USERR5
 40
0.0
  9
$WORLDVIEW
 70
     1
  9
$SHADEDGE
 70
     3
  9
$SHADEDIF
 70
    70
  9
$TILEMODE
 70
     1
  9
$MAXACTVP
 70
    64
  9
$PINSBASE
 10
0.0
 20
0.0
 30
0.0
  9
$PLIMCHECK
 70
     0
  9
$PEXTMIN
 10
28.68718404769896
 20
19.99191598892213
 30
0.0
  9
$PEXTMAX
 10
258.1846564292908
 20
179.927243900299
 30
0.0
  9
$PLIMMIN
 10
-5.027069091796875
 20
-5.027083396911621
  9
$PLIMMAX
 10
291.89892578125
 20
204.9462442398071
  9
$UNITMODE
 70
     0
  9
$VISRETAIN
 70
     1
  9
$PLINEGEN
 70
     0
  9
$PSLTSCALE
 70
     1
  9
$TREEDEPTH
 70
  3020
  9
$CMLSTYLE
  2
Standard
  9
$CMLJUST
 70
     0
  9
$CMLSCALE
 40
20.0
  9
$PROXYGRAPHICS
 70
     1
  9
$MEASUREMENT
 70
     1
  9
$CELWEIGHT
370
    -1
  9
$ENDCAPS
280
     0
  9
$JOINSTYLE
280
     0
  9
$LWDISPLAY
290
     0
  9
$INSUNITS
 70
     4
  9
$HYPERLINKBASE
  1

  9
$STYLESHEET
  1

  9
$XEDIT
290
     1
  9
$CEPSNTYPE
380
     0
  9
$PSTYLEMODE
290
     1
  9
$FINGERPRINTGUID
  2
{FDEAD578-A652-11D2-9A35-0060089B3A3F}
  9
$VERSIONGUID
  2
{6CC73F44-846E-40A8-8D0C-8B9046659090}
  9
$EXTNAMES
290
     1
  9
$PSVPSCALE
 40
0.0
  9
$OLESTARTUP
290
     0
  0
ENDSEC
  0
SECTION
  2
CLASSES
  0
CLASS
  1
ACDBDICTIONARYWDFLT
  2
AcDbDictionaryWithDefault
  3
AutoCAD 2000
 90
        0
280
     0
281
     0
  0
CLASS
  1
ACDBPLACEHOLDER
  2
AcDbPlaceHolder
  3
AutoCAD 2000
 90
        0
280
     0
281
     0
  0
CLASS
  1
LAYOUT
  2
AcDbLayout
  3
AutoCAD 2000
 90
        0
280
     0
281
     0
  0
CLASS
  1
DICTIONARYVAR
  2
AcDbDictionaryVar
  3
AutoCAD 2000
 90
        0
280
     0
281
     0
  0
CLASS
  1
IMAGEDEF
  2
AcDbRasterImageDef
  3
ISM
 90
        0
280
     0
281
     0
  0
ENDSEC
  0
SECTION
  2
TABLES
  0
TABLE
  2
VPORT
  5
8
330
0
100
AcDbSymbolTable
 70
     3
  0
VPORT
  5
4A4
330
8
100
AcDbSymbolTableRecord
100
AcDbViewportTableRecord
  2
*Active
 70
     0
 10
0.0
 20
0.0
 11
1.0
 21
1.0
 12
0.0072702920764414
 22
720.0738155302224
 13
0.0
 23
0.0
 14
10.0
 24
10.0
 15
10.0
 25
10.0
 16
0.0
 26
0.0
 36
1.0
 17
0.0
 27
0.0
 37
0.0
 40
1450.711061117123
 41
2.25703794369645
 42
50.0
 43
0.0
 44
0.0
 50
0.0
 51
0.0
 71
     0
 72
   100
 73
     1
 74
     3
 75
     0
 76
     0
 77
     0
 78
     0
281
     0
 65
     1
110
0.0
120
0.0
130
0.0
111
1.0
121
0.0
131
0.0
112
0.0
122
1.0
132
0.0
 79
     0
146
0.0
  0
ENDTAB
  0
TABLE
  2
LTYPE
  5
5
330
0
100
AcDbSymbolTable
 70
     1
  0
LTYPE
  5
14
330
5
100
AcDbSymbolTableRecord
100
AcDbLinetypeTableRecord
  2
ByBlock
 70
     0
  3

 72
    65
 73
     0
 40
0.0
  0
LTYPE
  5
15
330
5
100
AcDbSymbolTableRecord
100
AcDbLinetypeTableRecord
  2
ByLayer
 70
     0
  3

 72
    65
 73
     0
 40
0.0
  0
LTYPE
  5
16
330
5
100
AcDbSymbolTableRecord
100
AcDbLinetypeTableRecord
  2
Continuous
 70
     0
  3
Solid line
 72
    65
 73
     0
 40
0.0
  0
ENDTAB
  0
TABLE
  2
LAYER
  5
2
102
{ACAD_XDICTIONARY
360
AF
102
}
330
0
100
AcDbSymbolTable
 70
     2
  0
LAYER
  5
10
330
2
100
AcDbSymbolTableRecord
100
AcDbLayerTableRecord
  2
0
 70
     0
 62
     7
  6
Continuous
370
    -3
390
F
  0
LAYER
  5
2D5
102
{ACAD_XDICTIONARY
360
2D6
102
}
330
2
100
AcDbSymbolTableRecord
100
AcDbLayerTableRecord
  2
ceco.net 437 - Tesla 3 front view
 70
     0
 62
     7
  6
Continuous
370
    -3
390
F
1001
AcAecLayerStandard
1000

1000

  0
ENDTAB
  0
TABLE
  2
STYLE
  5
3
330
0
100
AcDbSymbolTable
 70
     1
  0
STYLE
  5
11
330
3
100
AcDbSymbolTableRecord
100
AcDbTextStyleTableRecord
  2
Standard
 70
     0
 40
0.0
 41
1.0
 50
0.0
 71
     0
 42
2.5
  3
txt
  4

  0
ENDTAB
  0
TABLE
  2
VIEW
  5
6
330
0
100
AcDbSymbolTable
 70
     0
  0
ENDTAB
  0
TABLE
  2
UCS
  5
7
330
0
100
AcDbSymbolTable
 70
     0
  0
ENDTAB
  0
TABLE
  2
APPID
  5
9
330
0
100
AcDbSymbolTable
 70
    17
  0
APPID
  5
12
330
9
100
AcDbSymbolTableRecord
100
AcDbRegAppTableRecord
  2
ACAD
 70
     0
  0
APPID
  5
9F
330
9
100
AcDbSymbolTableRecord
100
AcDbRegAppTableRecord
  2
ACAD_PSEXT
 70
     0
  0
APPID
  5
A0
330
9
100
AcDbSymbolTableRecord
100
AcDbRegAppTableRecord
  2
AcadAnnoPO
 70
     0
  0
APPID
  5
A1
330
9
100
AcDbSymbolTableRecord
100
AcDbRegAppTableRecord
  2
AcadAnnotative
 70
     0
  0
APPID
  5
A2
330
9
100
AcDbSymbolTableRecord
100
AcDbRegAppTableRecord
  2
ACAD_DSTYLE_DIMJAG
 70
     0
  0
APPID
  5
A3
330
9
100
AcDbSymbolTableRecord
100
AcDbRegAppTableRecord
  2
ACAD_DSTYLE_DIMTALN
 70
     0
  0
APPID
  5
A4
330
9
100
AcDbSymbolTableRecord
100
AcDbRegAppTableRecord
  2
ACAD_MLEADERVER
 70
     0
  0
APPID
  5
A5
330
9
100
AcDbSymbolTableRecord
100
AcDbRegAppTableRecord
  2
ACAD_NAV_VCDISPLAY
 70
     0
  0
APPID
  5
A6
330
9
100
AcDbSymbolTableRecord
100
AcDbRegAppTableRecord
  2
AcAecLayerStandard
 70
     0
  0
APPID
  5
A7
330
9
100
AcDbSymbolTableRecord
100
AcDbRegAppTableRecord
  2
AcCmTransparency
 70
     0
  0
APPID
  5
A8
330
9
100
AcDbSymbolTableRecord
100
AcDbRegAppTableRecord
  2
AcDbDynamicBlockTrueName2
 70
     0
  0
APPID
  5
A9
330
9
100
AcDbSymbolTableRecord
100
AcDbRegAppTableRecord
  2
AcDbDynamicBlockGUID
 70
     0
  0
APPID
  5
AA
330
9
100
AcDbSymbolTableRecord
100
AcDbRegAppTableRecord
  2
ACAD_EXEMPT_FROM_CAD_STANDARDS
 70
     0
  0
APPID
  5
AB
330
9
100
AcDbSymbolTableRecord
100
AcDbRegAppTableRecord
  2
ACAD_DSTYLE_DIM_LINETYPE
 70
     0
  0
APPID
  5
AC
330
9
100
AcDbSymbolTableRecord
100
AcDbRegAppTableRecord
  2
ACAD_DSTYLE_DIM_EXT1_LINETYPE
 70
     0
  0
APPID
  5
AD
330
9
100
AcDbSymbolTableRecord
100
AcDbRegAppTableRecord
  2
ACAD_DSTYLE_DIM_EXT2_LINETYPE
 70
     0
  0
APPID
  5
AE
330
9
100
AcDbSymbolTableRecord
100
AcDbRegAppTableRecord
  2
ACAUTHENVIRON
 70
     0
  0
ENDTAB
  0
TABLE
  2
DIMSTYLE
  5
A
330
0
100
AcDbSymbolTable
 70
     1
100
AcDbDimStyleTable
 71
     0
  0
DIMSTYLE
105
27
330
A
100
AcDbSymbolTableRecord
100
AcDbDimStyleTableRecord
  2
ISO-25
 70
     0
 41
2.5
 42
0.625
 43
3.75
 44
1.25
 73
     0
 74
     0
 77
     1
 78
     8
140
2.5
141
2.5
143
0.03937007874016
147
0.625
171
     3
172
     1
271
     2
272
     2
274
     3
278
    44
283
     0
284
     8
340
11
  0
ENDTAB
  0
TABLE
  2
BLOCK_RECORD
  5
1
330
0
100
AcDbSymbolTable
 70
     1
  0
BLOCK_RECORD
  5
1F
330
1
100
AcDbSymbolTableRecord
100
AcDbBlockTableRecord
  2
*Model_Space
340
22
  0
BLOCK_RECORD
  5
8A
330
1
100
AcDbSymbolTableRecord
100
AcDbBlockTableRecord
  2
*Paper_Space
340
8B
  0
ENDTAB
  0
ENDSEC
  0
SECTION
  2
BLOCKS
  0
BLOCK
  5
20
330
1F
100
AcDbEntity
  8
0
100
AcDbBlockBegin
  2
*Model_Space
 70
     0
 10
0.0
 20
0.0
 30
0.0
  3
*Model_Space
  1

  0
ENDBLK
  5
21
330
1F
100
AcDbEntity
  8
0
100
AcDbBlockEnd
  0
BLOCK
  5
8C
330
8A
100
AcDbEntity
 67
     1
  8
0
100
AcDbBlockBegin
  2
*Paper_Space
 70
     0
 10
0.0
 20
0.0
 30
0.0
  3
*Paper_Space
  1

  0
ENDBLK
  5
8D
330
8A
100
AcDbEntity
 67
     1
  8
0
100
AcDbBlockEnd
  0
ENDSEC
  0
SECTION
  2
ENTITIES
  0
LWPOLYLINE
  5
3C0
330
1F
100
AcDbEntity
  8
ceco.net 437 - Tesla 3 front view
100
AcDbPolyline
 90
        2
 70
     0
 43
0.0
 10
-860.2772511843095
 20
923.8414431495103
 10
-791.9696909669719
 20
920.6095797905302
  0
LWPOLYLINE
  5
3C1
330
1F
100
AcDbEntity
  8
ceco.net 437 - Tesla 3 front view
100
AcDbPolyline
 90
        2
 70
     0
 43
0.0
 10
-1041.271220587508
 20
960.3414900371179
 10
-848.4511805449837
 20
952.3923791932745
  0
LWPOLYLINE
  5
3C2
330
1F
100
AcDbEntity
  8
ceco.net 437 - Tesla 3 front view
100
AcDbPolyline
 90
        2
 70
     0
 43
0.0
 10
-874.6978877696337
 20
953.177487782634
 42
-0.0984253071168613
 10
-873.6938855320568
 20
1045.610165237841
 42
-9.623556973352233
  0
LWPOLYLINE
  5
3C3
330
1F
100
AcDbEntity
  8
ceco.net 437 - Tesla 3 front view
100
AcDbPolyline
 90
        4
 70
     0
 43
0.0
 10
-1040.242746760417
 20
956.2248590247733
 10
-797.2198709216873
 20
945.1022750265453
 10
-781.5118743099283
 20
938.8219993352784
 42
-0.0904910146023422
 10
-788.5788497033154
 20
916.7918559737334
  0
LWPOLYLINE
  5
3C4
330
1F
100
AcDbEntity
  8
ceco.net 437 - Tesla 3 front view
100
AcDbPolyline
 90
       10
 70
     0
 43
0.0
 10
-518.5303787413486
 20
242.8573656233661
 42
-0.0659062117867159
 10
-769.67073883601
 20
255.3959474246394
 42
-0.1950090975747137
 10
-825.8010301949216
 20
302.2710768623951
 42
-0.0942656375020353
 10
-870.2683089802267
 20
460.7719369957163
 10
-597.6206233917401
 20
438.894442567491
 42
-0.5196052470020556
 10
-596.2881370594886
 20
434.4260885608605
 42
0.005519852972234
 10
-601.2478042978446
 20
430.6467991672163
 42
-0.0353893653138029
 10
-622.5839324014123
 20
415.4861428704614
 42
-0.1239721004718177
 10
-636.6344270287027
 20
411.1345018692049
 42
-0.0299673651450655
 10
-864.8999380149671
 20
420.306621469607
  0
LWPOLYLINE
  5
3C5
330
1F
100
AcDbEntity
  8
ceco.net 437 - Tesla 3 front view
100
AcDbPolyline
 90
        6
 70
     0
 43
0.0
 10
-839.9482814754165
 20
417.9666190195919
 42
0.049270680688114
 10
-804.1241001128693
 20
301.6063146657732
 42
0.1236447756225917
 10
-790.593495603267
 20
283.5529232602692
 42
0.1167822742415974
 10
-767.4024170794064
 20
272.376721881529
 42
0.0519922649689318
 10
-635.7101848498714
 20
257.4751289427485
 42
-0.0047076461138904
 10
-529.6935387937046
 20
255.5454494958703
 42
-0.9727595125262292
  0
LWPOLYLINE
  5
3C6
330
1F
100
AcDbEntity
  8
ceco.net 437 - Tesla 3 front view
100
AcDbPolyline
 90
        5
 70
     0
 43
0.0
 10
-866.5525025382949
 20
456.6387040329955
 10
-862.5170152052952
 20
425.5974965982129
 10
-784.0882214386074
 20
419.4594043931881
 10
-783.386399359635
 20
449.4483659243314
 10
-866.5525025382949
 20
456.6387040329955
  0
LWPOLYLINE
  5
3C7
330
1F
100
AcDbEntity
  8
ceco.net 437 - Tesla 3 front view
100
AcDbPolyline
 90
        5
 70
     0
 43
0.0
 10
-780.6598901215429
 20
438.4545428001293
 10
-620.2441206939047
 20
424.9518506115507
 10
-626.117277557506
 20
420.626280810053
 10
-780.9830583272924
 20
432.67608096966
 10
-780.6598901215429
 20
438.4545428001293
  0
LWPOLYLINE
  5
3C8
330
1F
100
AcDbEntity
  8
ceco.net 437 - Tesla 3 front view
100
AcDbPolyline
 90
        4
 70
     0
 43
0.0
 10
-466.3495109784189
 20
540.7544385194387
 42
-0.027183700865376
 10
-664.9052671901472
 20
575.0290900835555
 42
-0.0064729387730762
 10
-875.1746286071401
 20
626.0923248171698
 42
-0.0016350811730491
 10
-928.0751536771541
 20
639.8511353442866
 42
1.297737364465246
  0
LWPOLYLINE
  5
3C9
330
1F
100
AcDbEntity
  8
ceco.net 437 - Tesla 3 front view
100
AcDbPolyline
 90
       21
 70
     0
 43
0.0
 10
-492.0048904570048
 20
653.1533824859705
 42
-0.0487903566142538
 10
-590.2768057306848
 20
630.5253832517753
 42
-0.0600316404941033
 10
-634.1834986814829
 20
630.1349693715124
 42
-0.0382745009165903
 10
-778.7394591408201
 20
657.5672646387249
 42
-0.0362550893743076
 10
-808.9769060657335
 20
668.1454370146962
 42
-0.2280844281681624
 10
-825.1035465014702
 20
686.7831610323118
 42
-0.0864257324184409
 10
-832.6629134221548
 20
768.3861898191678
 42
-0.1320444001493557
 10
-812.0006569855714
 20
826.3142664690608
 42
-0.077879938626983
 10
-792.3463071433579
 20
846.9668884090699
 42
-0.1523006837912476
 10
-788.0412275521248
 20
848.5502565806108
 42
-0.0411422664177024
 10
-774.4734976716763
 20
848.114835506294
 42
-0.1047537291733223
 10
-731.093845909435
 20
833.5915352755405
 42
-0.0336542467979791
 10
-679.9226924643344
 20
798.6514152924585
 42
-0.0128127774414152
 10
-646.6488219671328
 20
771.0771034053605
 42
0.060176130223596
 10
-627.4495874482409
 20
758.0148182578759
 42
0.0349313568714024
 10
-590.8258398353236
 20
742.2110590177546
 42
-0.075392646548899
 10
-544.3058300686898
 20
717.5146177842452
 42
-0.0432539473287215
 10
-506.3634623509324
 20
683.8995768746313
 42
-0.0001019885250051
 10
-484.0810680157174
 20
660.4151594197801
 42
-0.4598596212868693
 10
-484.4254610980069
 20
657.0869364901689
 42
-0.0635487486541845
 10
-492.0048904570048
 20
653.1533824859705
 42
96.65568148552191
  0
LWPOLYLINE
  5
3CA
330
1F
100
AcDbEntity
  8
ceco.net 437 - Tesla 3 front view
100
AcDbPolyline
 90
        8
 70
     0
 43
0.0
 10
-558.0292948357209
 20
726.7324005946948
 42
-0.292368091970868
 10
-567.8881313290885
 20
717.1843291900611
 42
-0.0619636830545909
 10
-591.5372001350951
 20
715.3660131865879
 42
-0.0341400367365296
 10
-641.2609000316079
 20
721.1240038522696
 42
-0.0306741488156986
 10
-716.452832663318
 20
739.9132158242455
 42
-0.1146694578425051
 10
-755.8679577189086
 20
763.2482011182662
 42
-0.0848404037741163
 10
-773.1246022783961
 20
786.4916101550663
 42
-0.0339070619953193
 10
-797.1333379330035
 20
843.0289917135949
 42
-0.1684610199291749
  0
LWPOLYLINE
  5
3CB
330
1F
100
AcDbEntity
  8
ceco.net 437 - Tesla 3 front view
100
AcDbPolyline
 90
        7
 70
     0
 43
0.0
 10
-788.0412275521248
 20
848.5502565806108
 42
0.0714714140358808
 10
-751.7702176673338
 20
773.4865067711118
 42
0.1255995551731346
 10
-737.4088019513155
 20
760.6836454129345
 42
0.0732706102618358
 10
-714.8962967419093
 20
752.9243397463935
 42
0.0258428370844321
 10
-645.8061995580329
 20
743.6131636020332
 42
0.3809823498773417
 10
-644.4264580361105
 20
744.6527677103961
 42
0.101689335422682
 10
-644.5650011420757
 20
769.3093695144344
  0
LWPOLYLINE
  5
3CC
330
1F
100
AcDbEntity
  8
ceco.net 437 - Tesla 3 front view
100
AcDbPolyline
 90
       13
 70
     1
 43
0.0
 10
-818.9179962200078
 20
707.399858603723
 42
-0.0295968525396062
 10
-819.5866354385033
 20
698.6003161157266
 42
0.3634717954333385
 10
-816.6955477812125
 20
694.0117782834802
 42
0.0242300339667734
 10
-654.370899102726
 20
656.6806903298672
 42
0.0380413373534164
 10
-621.2072215220068
 20
654.5307107534265
 42
0.0312428542526265
 10
-576.9071989153871
 20
657.8047822125681
 42
0.0285859662056513
 10
-508.8885168928827
 20
671.1257035401481
 42
0.5211603165104011
 10
-508.5721780117118
 20
676.3573843636877
 10
-523.2997410111038
 20
690.4474594813973
 42
-0.1543456743824565
 10
-546.0419938327595
 20
678.4288633307185
 42
-0.0515034584454322
 10
-618.0184977842855
 20
670.6675552678868
 42
-0.0494511180774529
 10
-666.8098599500372
 20
675.283332364399
 42
-0.0153146735978479
 10
-815.6815902807203
 20
709.1638042522037
 42
0.3956019797427672
  0
LWPOLYLINE
  5
3CD
330
1F
100
AcDbEntity
  8
ceco.net 437 - Tesla 3 front view
100
AcDbPolyline
 90
        3
 70
     0
 43
0.0
 10
-493.8039116336176
 20
670.6648611965679
 10
-449.1364727992249
 20
677.6986361245652
 10
-411.2752996832277
 20
683.6606294055143
  0
LWPOLYLINE
  5
3CE
330
1F
100
AcDbEntity
  8
ceco.net 437 - Tesla 3 front view
100
AcDbPolyline
 90
        3
 70
     0
 43
0.0
 10
-926.8093097335295
 20
693.7231146201057
 42
-0.1266093245955344
 10
-868.4041317065156
 20
703.2958820299366
 42
-0.0588380629782551
 10
-827.0870028954778
 20
694.6206361764841
 42
0.1636896628529514
  0
LWPOLYLINE
  5
3CF
330
1F
100
AcDbEntity
  8
ceco.net 437 - Tesla 3 front view
100
AcDbPolyline
 90
        3
 70
     0
 43
0.0
 10
-670.4117569116861
 20
159.297271091013
 10
-670.4389447185767
 20
43.60212592330697
 42
-0.3640603531918903
 10
-704.2796491557492
 20
0.0
 42
-0.2552121390687386
  0
LWPOLYLINE
  5
3D0
330
1F
100
AcDbEntity
  8
ceco.net 437 - Tesla 3 front view
100
AcDbPolyline
 90
        4
 70
     0
 43
0.0
 10
-925.4806002668793
 20
463.4584234253752
 10
-927.2344660760518
 20
43.60212592330697
 42
0.3640603531918903
 10
-893.3937616388774
 20
0.0
 10
-704.2796491557492
 20
0.0
  0
LWPOLYLINE
  5
3D1
330
1F
100
AcDbEntity
  8
ceco.net 437 - Tesla 3 front view
100
AcDbPolyline
 90
        3
 70
     0
 43
0.0
 10
-931.4294959193775
 20
955.6174063566926
 42
0.1733282138917132
 10
-934.7469814204714
 20
951.2323892560683
 42
0.1497713095602558
 10
-934.9323575017333
 20
925.1283139850059
 42
3.284796798193091
  0
LWPOLYLINE
  5
3D2
330
1F
100
AcDbEntity
  8
ceco.net 437 - Tesla 3 front view
100
AcDbPolyline
 90
        5
 70
     0
 43
0.0
 10
-449.1364727992249
 20
677.6986361245652
 42
-0.0501918748103689
 10
-490.045382869841
 20
710.5251200239565
 42
-0.0149725918181579
 10
-581.2893107969175
 20
805.6963660808079
 42
0.0811172875055032
 10
-717.903451780292
 20
914.9394053771947
 42
0.0377474751824934
 10
-776.0345899357735
 20
945.2654636499239
  0
LWPOLYLINE
  5
3D3
330
1F
100
AcDbEntity
  8
ceco.net 437 - Tesla 3 front view
100
AcDbPolyline
 90
        4
 70
     0
 43
0.0
 10
-792.3463071433579
 20
846.9668884090699
 10
-809.9688199116881
 20
876.0887117188579
 42
-0.1041454513972332
 10
-814.3886442492721
 20
886.1778515050616
 42
0.176945603592613
 10
-818.3057011657975
 20
893.3397434348787
 42
1.116517164356057
  0
LWPOLYLINE
  5
3D4
330
1F
100
AcDbEntity
  8
ceco.net 437 - Tesla 3 front view
100
AcDbPolyline
 90
       18
 70
     0
 43
0.0
 10
-787.1836371632089
 20
913.4376573617965
 42
0.3284315841277092
 10
-799.3802104702199
 20
923.2950647082668
 10
-859.1577763102904
 20
925.9906305285168
 42
-0.3407209851722054
 10
-868.0553587230534
 20
920.238279945735
 10
-1013.692159961694
 20
931.6688056778842
 42
-0.1321689988757378
 10
-1022.0458250738
 20
934.9043643816212
 42
-0.0678742824333317
 10
-1038.227193516375
 20
952.4260061017178
 42
-0.2478778272914803
 10
-1040.265840313121
 20
968.7623093111103
 42
-0.0131274248830204
 10
-1025.471769240934
 20
1004.951957955453
 42
-0.2077382919779928
 10
-979.7161544529744
 20
1036.471978392264
 42
-0.0330480243793873
 10
-879.6725380180287
 20
1053.489910649735
 42
-0.3055865643186588
 10
-863.0205273986858
 20
1040.253089966534
 42
-0.0709645487843606
 10
-848.4511805449837
 20
952.3923791932745
 10
-789.2464061408036
 20
949.6571859503502
 42
0.0098222277398308
 10
-776.0345899357735
 20
945.2654636499239
 42
-0.4484090876958779
 10
-772.5000927203709
 20
937.486147369743
 42
-0.0695062334959922
 10
-788.1677257405099
 20
912.2378790906408
 42
-0.0719278059463113
 10
-817.4062830948797
 20
892.4625590989061
  0
LWPOLYLINE
  5
3D5
330
1F
100
AcDbEntity
  8
ceco.net 437 - Tesla 3 front view
100
AcDbPolyline
 90
        9
 70
     0
 43
0.0
 10
-789.2464061408036
 20
949.6571859503502
 42
-0.1497275019557281
 10
-771.6276724528125
 20
970.9969835761722
 42
0.2000149970136887
 10
-769.0341482235617
 20
974.8487797396528
 42
-0.0280823456074679
 10
-764.1857740664318
 20
993.5299357329046
 42
-0.0283901946856873
 10
-684.2653956142176
 20
1257.416080397141
 42
-0.071527151240485
 10
-624.7582108297483
 20
1361.23556258236
 42
-0.1720898434924666
 10
-559.1112764292293
 20
1404.495458954912
 42
-0.0327910236022022
 10
0.000000000001819
 20
1440.147631060444
 42
-0.0327910236022022
 10
559.1112764292311
 20
1404.495458954912
  0
LWPOLYLINE
  5
3D6
330
1F
100
AcDbEntity
  8
ceco.net 437 - Tesla 3 front view
100
AcDbPolyline
 90
        3
 70
     0
 43
0.0
 10
597.2031863872571
 20
1362.940050508717
 42
0.0198666624772322
 10
0.000000000001819
 20
1383.691943104776
 42
0.0198666624772322
 10
-597.2031863872553
 20
1362.940050508717
  0
LWPOLYLINE
  5
3D7
330
1F
100
AcDbEntity
  8
ceco.net 437 - Tesla 3 front view
100
AcDbPolyline
 90
       29
 70
     0
 43
0.0
 10
-559.1112764292293
 20
1404.495458954912
 42
0.1281066295422116
 10
-566.9422491172118
 20
1401.330711658815
 42
0.0990618810389608
 10
-611.4013285614592
 20
1334.992370330885
 42
0.0525331467993547
 10
-716.6622687433455
 20
981.1547661993472
 42
0.0474988835862449
 10
-721.7865455376422
 20
946.1571707679473
 42
0.2733136665100003
 10
-715.2790710434837
 20
933.5195471520242
 42
-0.0429851709921835
 10
-604.566523917545
 20
857.1164011355449
 42
-0.0121502842112997
 10
-452.9592962103424
 20
717.0814260444688
 42
0.0646575344383023
 10
-410.0214332474734
 20
682.8975911179904
 42
0.1113837215106402
 10
-371.3127800237607
 20
670.0104555744217
 42
0.0248633523071582
 10
-274.8386896346892
 20
668.0558097565383
 42
-0.008239003023652
 10
0.000000000001819
 20
671.6236260774833
 42
-0.008239003023652
 10
274.8386896346901
 20
668.0558097565383
 42
0.0248633523071582
 10
371.3127800237589
 20
670.0104555744217
 42
0.1113837215106402
 10
410.0214332474743
 20
682.8975911179904
 42
0.0646575344383023
 10
452.9592962103424
 20
717.0814260444688
 42
-0.0121502842112997
 10
604.5665239175478
 20
857.1164011355449
 42
-0.0429851709921835
 10
715.2790710434883
 20
933.5195471520242
 42
0.2733136665100003
 10
721.7865455376422
 20
946.1571707679473
 42
0.0474988835862449
 10
716.6622687433473
 20
981.1547661993472
 42
0.0525331467993547
 10
611.4013285614592
 20
1334.992370330885
 42
0.0990618810389608
 10
566.9422491172126
 20
1401.330711658813
 42
0.1281066295422116
 10
559.1112764292311
 20
1404.495458954912
 42
-0.1720898434924666
 10
624.7582108297493
 20
1361.23556258236
 42
-0.071527151240485
 10
684.2653956142212
 20
1257.416080397141
 42
-0.0283901946856873
 10
764.1857740664372
 20
993.5299357329046
 42
-0.0280823456074679
 10
769.0341482235626
 20
974.8487797396528
 42
0.2000149970136887
 10
771.6276724528151
 20
970.9969835761722
 42
-0.1497275019557281
 10
789.2464061408018
 20
949.6571859503502
  0
LWPOLYLINE
  5
3D8
330
1F
100
AcDbEntity
  8
ceco.net 437 - Tesla 3 front view
100
AcDbPolyline
 90
        2
 70
     0
 43
0.0
 10
860.277251184315
 20
923.8414431495103
 10
791.9696909669737
 20
920.6095797905302
  0
LWPOLYLINE
  5
3D9
330
1F
100
AcDbEntity
  8
ceco.net 437 - Tesla 3 front view
100
AcDbPolyline
 90
        2
 70
     0
 43
0.0
 10
1041.285761171659
 20
960.3414900371179
 10
848.4511805449884
 20
952.3923791932745
  0
LWPOLYLINE
  5
3DA
330
1F
100
AcDbEntity
  8
ceco.net 437 - Tesla 3 front view
100
AcDbPolyline
 90
        2
 70
     0
 43
0.0
 10
874.7124283537896
 20
953.177487782634
 42
0.0984253071168613
 10
873.7084261162117
 20
1045.610165237841
 42
9.623556973352233
  0
LWPOLYLINE
  5
3DB
330
1F
100
AcDbEntity
  8
ceco.net 437 - Tesla 3 front view
100
AcDbPolyline
 90
        4
 70
     0
 43
0.0
 10
1040.25728734457
 20
956.2248590247733
 10
797.2198709216891
 20
945.1022750265453
 10
781.511874309931
 20
938.8219993352784
 42
0.0904910146023422
 10
788.5788497033181
 20
916.7918559737334
  0
LWPOLYLINE
  5
3DC
330
1F
100
AcDbEntity
  8
ceco.net 437 - Tesla 3 front view
100
AcDbPolyline
 90
       37
 70
     0
 43
0.0
 10
800.6392282314273
 20
921.0197651307073
 10
810.4994821846858
 20
900.9451315728865
 42
0.0616598545171085
 10
813.6710703374856
 20
896.1014083568221
 42
0.1667814082227622
 10
818.3057011657975
 20
893.3397434348787
 42
-0.1796078947403872
 10
822.4055792733953
 20
890.7562450605997
 42
-0.0477486810733251
 10
830.0207847445827
 20
878.546359991872
 42
0.0610829572245647
 10
845.8219424770241
 20
854.6506903859832
 42
0.050145296797638
 10
911.1725277822888
 20
791.9975792230773
 42
-0.2100617459583631
 10
922.6124975212742
 20
770.6820706643093
 42
-0.026268451369544
 10
927.0924825498704
 20
548.8287691367522
 42
0.0049181753838441
 10
925.0127560165319
 20
438.937474063867
 10
907.3324546182165
 20
268.3919465801082
 42
-0.1490815353349172
 10
883.7990172789604
 20
192.9060449090693
 42
-0.1349805909267199
 10
849.240455342645
 20
163.544968109451
 42
-0.1123884645079614
 10
828.179866614303
 20
159.0100944979049
 42
0.0066583363961344
 10
616.6208837746389
 20
158.6788514281563
 10
582.7285650044514
 20
164.5698279064322
 42
0.0312862330768032
 10
551.7459017664268
 20
167.9774058012067
 10
0.000000000001819
 20
162.9376346385657
 10
-551.7459017664241
 20
167.9774058012067
 42
0.0312862330768032
 10
-582.7285650044486
 20
164.5698279064322
 10
-616.6208837746389
 20
158.6788514281563
 42
0.0066583363961344
 10
-828.1798666142995
 20
159.0100944979049
 42
-0.1123884645079614
 10
-849.2404553426432
 20
163.544968109451
 42
-0.1349805909267199
 10
-883.7990172789615
 20
192.9060449090693
 42
-0.1490815353349172
 10
-907.3324546182139
 20
268.3919465801082
 10
-925.0127560165301
 20
438.937474063867
 42
0.0049181753838441
 10
-927.0924825498704
 20
548.8287691367522
 42
-0.026268451369544
 10
-922.6124975212734
 20
770.6820706643093
 42
-0.2100617459583631
 10
-911.1725277822896
 20
791.9975792230773
 42
0.050145296797638
 10
-845.8219424770222
 20
854.6506903859832
 42
0.0610829572245647
 10
-830.0207847445781
 20
878.546359991872
 42
-0.0477486810733251
 10
-822.4055792733906
 20
890.7562450605997
 42
-0.1796078947403872
 10
-818.3057011657975
 20
893.3397434348787
 42
0.1667814082227622
 10
-813.6710703374811
 20
896.1014083568221
 42
0.0616598545171085
 10
-810.4994821846821
 20
900.9451315728865
 10
-800.6392282314273
 20
921.0197651307073
  0
LWPOLYLINE
  5
3DD
330
1F
100
AcDbEntity
  8
ceco.net 437 - Tesla 3 front view
100
AcDbPolyline
 90
        5
 70
     0
 43
0.0
 10
901.1925130072185
 20
228.8947952594669
 42
-0.0081539114634461
 10
716.4912450193415
 20
222.1794434495926
 10
0.000000000001819
 20
217.0786459225384
 10
-716.4912450193415
 20
222.1794434495926
 42
-0.0081539114634461
 10
-901.1925130072159
 20
228.8947952594669
  0
LWPOLYLINE
  5
3DE
330
1F
100
AcDbEntity
  8
ceco.net 437 - Tesla 3 front view
100
AcDbPolyline
 90
        3
 70
     0
 43
0.0
 10
-486.2092334142662
 20
307.1532429838053
 10
0.000000000001819
 20
300.2751750061863
 10
486.2092334142643
 20
307.1532429838053
  0
LWPOLYLINE
  5
3DF
330
1F
100
AcDbEntity
  8
ceco.net 437 - Tesla 3 front view
100
AcDbPolyline
 90
        3
 70
     0
 43
0.0
 10
-502.5425660580049
 20
294.2546408099317
 42
0.0085116991156531
 10
0.000000000001819
 20
284.6156483711845
 42
0.0085116991156531
 10
502.5425660580049
 20
294.2546408099317
  0
LWPOLYLINE
  5
3E0
330
1F
100
AcDbEntity
  8
ceco.net 437 - Tesla 3 front view
100
AcDbPolyline
 90
        3
 70
     0
 43
0.0
 10
-517.9496478712044
 20
278.4058875564301
 42
0.0101550425046392
 10
0.000000000001819
 20
270.3186389457117
 42
0.0101550425046392
 10
517.9496478712072
 20
278.4058875564301
  0
LWPOLYLINE
  5
3E1
330
1F
100
AcDbEntity
  8
ceco.net 437 - Tesla 3 front view
100
AcDbPolyline
 90
        3
 70
     0
 43
0.0
 10
-526.3942091281988
 20
263.4155232382187
 42
0.008212931932159
 10
0.000000000001819
 20
255.8689868506818
 42
0.008212931932159
 10
526.3942091282033
 20
263.4155232382187
  0
LWPOLYLINE
  5
3E2
330
1F
100
AcDbEntity
  8
ceco.net 437 - Tesla 3 front view
100
AcDbPolyline
 90
       23
 70
     0
 43
0.0
 10
-524.0153047705335
 20
270.8135245153323
 42
0.3330437788326181
 10
-523.8623611125095
 20
256.0684588949208
 42
0.2361510085669316
 10
-506.1566832725602
 20
246.7589981367176
 42
0.0041429984082395
 10
0.000000000001819
 20
240.697524288587
 42
0.0041429984082395
 10
506.1566832725648
 20
246.7589981367176
 42
0.2361510085669316
 10
523.862361112514
 20
256.0684588949208
 42
0.3330437788326181
 10
524.0153047705416
 20
270.8135245153216
 42
-0.4916296330328334
 10
524.4985780841006
 20
247.2188150725608
 42
-0.1031523888784549
 10
495.4777161729534
 20
232.4099597808484
 42
-0.0614497550948255
 10
453.4338408583017
 20
226.3341621245586
 10
0.000000000001819
 20
223.3156965524542
 10
-453.4338408582989
 20
226.3341621245586
 42
-0.0614497550948255
 10
-495.4777161729516
 20
232.4099597808484
 42
-0.1031523888784549
 10
-524.498578084098
 20
247.2188150725608
 42
-0.4916296330328334
 10
-524.0153047705335
 20
270.8135245153323
 42
-0.0974960794851447
 10
-476.946406204046
 20
313.1067240286144
 42
-0.1165315464621693
 10
-442.30983635963
 20
322.2724928286978
 42
-0.010361422603673
 10
-287.3164779945355
 20
326.1739951428726
 10
0.000000000001819
 20
326.1739951428726
 10
287.3164779945373
 20
326.1739951428726
 42
-0.010361422603673
 10
442.3098363596355
 20
322.2724928286978
 42
-0.1165315464621693
 10
476.9464062040488
 20
313.1067240286144
 42
-0.0974960794851447
 10
524.0153047705343
 20
270.8135245153323
  0
LWPOLYLINE
  5
3E3
330
1F
100
AcDbEntity
  8
ceco.net 437 - Tesla 3 front view
100
AcDbPolyline
 90
       10
 70
     0
 43
0.0
 10
518.5303787413495
 20
242.8573656233661
 42
0.0659062117867159
 10
769.6707388360128
 20
255.3959474246394
 42
0.1950090975747137
 10
825.8010301949225
 20
302.2710768623951
 42
0.0942656375020353
 10
870.2683089802293
 20
460.7719369957163
 10
597.6206233917428
 20
438.894442567491
 42
0.5196052470020556
 10
596.2881370594905
 20
434.4260885608605
 42
-0.005519852972234
 10
601.24780429785
 20
430.6467991672163
 42
0.0353893653138029
 10
622.5839324014186
 20
415.4861428704614
 42
0.1239721004718177
 10
636.6344270287054
 20
411.1345018692049
 42
0.0299673651450655
 10
864.8999380149698
 20
420.306621469607
  0
LWPOLYLINE
  5
3E4
330
1F
100
AcDbEntity
  8
ceco.net 437 - Tesla 3 front view
100
AcDbPolyline
 90
        6
 70
     0
 43
0.0
 10
839.9482814754147
 20
417.9666190195919
 42
-0.049270680688114
 10
804.1241001128719
 20
301.6063146657732
 42
-0.1236447756225917
 10
790.5934956032661
 20
283.5529232602692
 42
-0.1167822742415974
 10
767.40241707941
 20
272.376721881529
 42
-0.0519922649689318
 10
635.710184849876
 20
257.4751289427485
 42
0.0047076461138904
 10
529.6935387937091
 20
255.5454494958703
 42
0.9727595125262292
  0
LWPOLYLINE
  5
3E5
330
1F
100
AcDbEntity
  8
ceco.net 437 - Tesla 3 front view
100
AcDbPolyline
 90
        5
 70
     0
 43
0.0
 10
828.048338165111
 20
369.4535872895132
 42
-0.0216330949014562
 10
523.4254607810353
 20
352.9621061727211
 42
-0.0001926037847818
 10
0.000000000001819
 20
347.4973864683871
 42
-0.0001926037847818
 10
-523.4254607810353
 20
352.9621061727211
 42
-0.0216330949014562
 10
-828.0483381651102
 20
369.4535872895132
  0
LWPOLYLINE
  5
3E6
330
1F
100
AcDbEntity
  8
ceco.net 437 - Tesla 3 front view
100
AcDbPolyline
 90
        5
 70
     0
 43
0.0
 10
866.5525025382985
 20
456.6387040329955
 10
862.5170152052932
 20
425.5974965982129
 10
784.0882214386101
 20
419.4594043931881
 10
783.3863993596342
 20
449.4483659243314
 10
866.5525025382985
 20
456.6387040329955
  0
LWPOLYLINE
  5
3E7
330
1F
100
AcDbEntity
  8
ceco.net 437 - Tesla 3 front view
100
AcDbPolyline
 90
        5
 70
     0
 43
0.0
 10
780.6598901215448
 20
438.4545428001293
 10
620.2441206939101
 20
424.9518506115507
 10
626.1172775575078
 20
420.626280810053
 10
780.9830583272951
 20
432.67608096966
 10
780.6598901215448
 20
438.4545428001293
  0
LWPOLYLINE
  5
3E8
330
1F
100
AcDbEntity
  8
ceco.net 437 - Tesla 3 front view
100
AcDbPolyline
 90
        7
 70
     0
 43
0.0
 10
595.7934901319613
 20
437.006449009073
 10
449.2934746121363
 20
554.4246724970187
 42
0.127370198165776
 10
340.9143665412794
 20
603.1195062663446
 42
0.0270193783300075
 10
0.000000000001819
 20
618.0607600010707
 42
0.0270193783300075
 10
-340.9143665412766
 20
603.1195062663446
 42
0.127370198165776
 10
-449.2934746121318
 20
554.4246724970187
 10
-595.7934901319604
 20
437.006449009073
  0
LWPOLYLINE
  5
3E9
330
1F
100
AcDbEntity
  8
ceco.net 437 - Tesla 3 front view
100
AcDbPolyline
 90
        4
 70
     0
 43
0.0
 10
466.3495109784226
 20
540.7544385194387
 42
0.027183700865376
 10
664.9052671901508
 20
575.0290900835555
 42
0.0064729387730762
 10
875.1746286071421
 20
626.0923248171698
 42
0.0016350811730491
 10
928.0751536771559
 20
639.8511353442866
 42
-1.297737364465246
  0
LWPOLYLINE
  5
3EA
330
1F
100
AcDbEntity
  8
ceco.net 437 - Tesla 3 front view
100
AcDbPolyline
 90
       21
 70
     0
 43
0.0
 10
492.0048904570058
 20
653.1533824859705
 42
0.0487903566142538
 10
590.2768057306866
 20
630.5253832517753
 42
0.0600316404941033
 10
634.1834986814838
 20
630.1349693715124
 42
0.0382745009165903
 10
778.739459140822
 20
657.5672646387249
 42
0.0362550893743076
 10
808.9769060657372
 20
668.1454370146962
 42
0.2280844281681624
 10
825.1035465014748
 20
686.7831610323118
 42
0.0864257324184409
 10
832.6629134221574
 20
768.3861898191678
 42
0.1320444001493557
 10
812.0006569855732
 20
826.3142664690608
 42
0.077879938626983
 10
792.3463071433588
 20
846.9668884090699
 42
0.1523006837912476
 10
788.0412275521294
 20
848.5502565806108
 42
0.0411422664177024
 10
774.4734976716763
 20
848.114835506294
 42
0.1047537291733223
 10
731.0938459094368
 20
833.5915352755405
 42
0.0336542467979791
 10
679.9226924643344
 20
798.6514152924585
 42
0.0128127774414152
 10
646.6488219671364
 20
771.0771034053605
 42
-0.060176130223596
 10
627.4495874482409
 20
758.0148182578759
 42
-0.0349313568714024
 10
590.8258398353255
 20
742.2110590177546
 42
0.075392646548899
 10
544.3058300686925
 20
717.5146177842452
 42
0.0432539473287215
 10
506.3634623509342
 20
683.8995768746313
 42
0.0001019885250051
 10
484.0810680157201
 20
660.4151594197801
 42
0.4598596212868693
 10
484.4254610980105
 20
657.0869364901689
 42
0.0635487486541845
 10
492.0048904570058
 20
653.1533824859705
 42
-96.65568148552191
  0
LWPOLYLINE
  5
3EB
330
1F
100
AcDbEntity
  8
ceco.net 437 - Tesla 3 front view
100
AcDbPolyline
 90
        8
 70
     0
 43
0.0
 10
558.0292948357209
 20
726.7324005946948
 42
0.292368091970868
 10
567.8881313290903
 20
717.1843291900611
 42
0.0619636830545909
 10
591.537200135096
 20
715.3660131865879
 42
0.0341400367365296
 10
641.2609000316088
 20
721.1240038522696
 42
0.0306741488156986
 10
716.4528326633199
 20
739.9132158242455
 42
0.1146694578425051
 10
755.8679577189113
 20
763.2482011182662
 42
0.0848404037741163
 10
773.1246022783989
 20
786.4916101550663
 42
0.0339070619953193
 10
797.1333379330054
 20
843.0289917135949
 42
0.1684610199291749
  0
LWPOLYLINE
  5
3EC
330
1F
100
AcDbEntity
  8
ceco.net 437 - Tesla 3 front view
100
AcDbPolyline
 90
        7
 70
     0
 43
0.0
 10
788.0412275521294
 20
848.5502565806108
 42
-0.0714714140358808
 10
751.7702176673346
 20
773.4865067711118
 42
-0.1255995551731346
 10
737.408801951321
 20
760.6836454129345
 42
-0.0732706102618358
 10
714.8962967419111
 20
752.9243397463935
 42
-0.0258428370844321
 10
645.8061995580329
 20
743.6131636020332
 42
-0.3809823498773417
 10
644.4264580361132
 20
744.6527677103961
 42
-0.101689335422682
 10
644.5650011420757
 20
769.3093695144344
  0
LWPOLYLINE
  5
3ED
330
1F
100
AcDbEntity
  8
ceco.net 437 - Tesla 3 front view
100
AcDbPolyline
 90
       13
 70
     1
 43
0.0
 10
818.9179962200059
 20
707.399858603723
 42
0.0295968525396062
 10
819.586635438508
 20
698.6003161157266
 42
-0.3634717954333385
 10
816.6955477812143
 20
694.0117782834802
 42
-0.0242300339667734
 10
654.370899102726
 20
656.6806903298672
 42
-0.0380413373534164
 10
621.2072215220114
 20
654.5307107534265
 42
-0.0312428542526265
 10
576.907198915388
 20
657.8047822125681
 42
-0.0285859662056513
 10
508.8885168928872
 20
671.1257035401481
 42
-0.5211603165104011
 10
508.5721780117137
 20
676.3573843636877
 10
523.2997410111083
 20
690.4474594813973
 42
0.1543456743824565
 10
546.0419938327622
 20
678.4288633307185
 42
0.0515034584454322
 10
618.0184977842846
 20
670.6675552678868
 42
0.0494511180774529
 10
666.8098599500381
 20
675.283332364399
 42
0.0153146735978479
 10
815.6815902807256
 20
709.1638042522037
 42
-0.3956019797427672
  0
LWPOLYLINE
  5
3EE
330
1F
100
AcDbEntity
  8
ceco.net 437 - Tesla 3 front view
100
AcDbPolyline
 90
        2
 70
     0
 43
0.0
 10
-717.903451780292
 20
914.9394053771947
 42
-0.3109829463382847
 10
-724.7272430751627
 20
934.7068320174946
 42
-0.3109829463382847
  0
LWPOLYLINE
  5
3EF
330
1F
100
AcDbEntity
  8
ceco.net 437 - Tesla 3 front view
100
AcDbPolyline
 90
        5
 70
     0
 43
0.0
 10
-721.2500155068491
 20
941.4295952411746
 42
0.0093829775423507
 10
-315.9370563783277
 20
936.6661327137277
 10
0.000000000001819
 20
937.8759738804271
 10
315.9370563783259
 20
936.6661327137277
 42
0.0093829775423507
 10
721.250015506851
 20
941.4295952411764
  0
LWPOLYLINE
  5
3F0
330
1F
100
AcDbEntity
  8
ceco.net 437 - Tesla 3 front view
100
AcDbPolyline
 90
        3
 70
     0
 43
0.0
 10
493.8039116336212
 20
670.6648611965679
 10
449.1364727992268
 20
677.6986361245652
 10
411.2752996832305
 20
683.6606294055143
  0
LWPOLYLINE
  5
3F1
330
1F
100
AcDbEntity
  8
ceco.net 437 - Tesla 3 front view
100
AcDbPolyline
 90
        3
 70
     0
 43
0.0
 10
926.8093097335322
 20
693.7231146201057
 42
0.1266093245955344
 10
868.4041317065176
 20
703.2958820299366
 42
0.0588380629782551
 10
827.0870028954805
 20
694.6206361764841
 42
-0.1636896628529514
  0
LWPOLYLINE
  5
3F2
330
1F
100
AcDbEntity
  8
ceco.net 437 - Tesla 3 front view
100
AcDbPolyline
 90
        3
 70
     0
 43
0.0
 10
670.411756911687
 20
159.297271091013
 10
670.4389447185776
 20
43.60212592330697
 42
0.3640603531918903
 10
704.2796491557501
 20
0.0
 42
0.2552121390687386
  0
LWPOLYLINE
  5
3F3
330
1F
100
AcDbEntity
  8
ceco.net 437 - Tesla 3 front view
100
AcDbPolyline
 90
        4
 70
     0
 43
0.0
 10
925.4806002668837
 20
463.4584234253752
 10
927.2344660760545
 20
43.60212592330697
 42
-0.3640603531918903
 10
893.3937616388785
 20
0.0
 10
704.2796491557501
 20
0.0
  0
LWPOLYLINE
  5
3F4
330
1F
100
AcDbEntity
  8
ceco.net 437 - Tesla 3 front view
100
AcDbPolyline
 90
        3
 70
     0
 43
0.0
 10
931.4440365035325
 20
955.6174063566926
 42
-0.1733282138917132
 10
934.7615220046273
 20
951.2323892560683
 42
-0.1497713095602558
 10
934.9468980858864
 20
925.1283139850059
 42
-3.284796798193091
  0
LWPOLYLINE
  5
3F5
330
1F
100
AcDbEntity
  8
ceco.net 437 - Tesla 3 front view
100
AcDbPolyline
 90
        5
 70
     0
 43
0.0
 10
449.1364727992268
 20
677.6986361245652
 42
0.0501918748103689
 10
490.0453828698437
 20
710.5251200239565
 42
0.0149725918181579
 10
581.2893107969184
 20
805.6963660808079
 42
-0.0811172875055032
 10
717.9034517802911
 20
914.9394053771947
 42
-0.0377474751824934
 10
776.0345899357753
 20
945.2654636499239
  0
LWPOLYLINE
  5
3F6
330
1F
100
AcDbEntity
  8
ceco.net 437 - Tesla 3 front view
100
AcDbPolyline
 90
        4
 70
     0
 43
0.0
 10
792.3463071433588
 20
846.9668884090699
 10
809.968819911689
 20
876.0887117188579
 42
0.1041454513972332
 10
814.3886442492757
 20
886.1778515050616
 42
-0.176945603592613
 10
818.3057011657975
 20
893.3397434348787
 42
-1.116517164356057
  0
LWPOLYLINE
  5
3F7
330
1F
100
AcDbEntity
  8
ceco.net 437 - Tesla 3 front view
100
AcDbPolyline
 90
       18
 70
     0
 43
0.0
 10
787.1836371632116
 20
913.4376573617965
 42
-0.3284315841277092
 10
799.3802104702235
 20
923.2950647082668
 10
859.1577763102932
 20
925.9906305285168
 42
0.3407209851722054
 10
868.0553587230578
 20
920.238279945735
 10
1013.706700545851
 20
931.6688056778842
 42
0.1321689988757378
 10
1022.060365657956
 20
934.9043643816212
 42
0.0678742824333317
 10
1038.24173410053
 20
952.4260061017178
 42
0.2478778272914803
 10
1040.280380897274
 20
968.7623093111103
 42
0.0131274248830204
 10
1025.48630982509
 20
1004.951957955453
 42
0.234648482662752
 10
987.7225009219827
 20
1036.471978392264
 42
0.0306607991699197
 10
879.6725380180314
 20
1053.489910649735
 42
0.3055865643186588
 10
863.0205273986893
 20
1040.253089966534
 42
0.0709645487843606
 10
848.4511805449884
 20
952.3923791932745
 10
789.2464061408018
 20
949.6571859503502
 42
-0.0098222277398308
 10
776.0345899357753
 20
945.2654636499239
 42
0.4484090876958779
 10
772.5000927203701
 20
937.486147369743
 42
0.0695062334959922
 10
788.1677257405126
 20
912.2378790906408
 42
0.0719278059463113
 10
817.4062830948797
 20
892.4625590989061
  0
LWPOLYLINE
  5
3F8
330
1F
100
AcDbEntity
  8
ceco.net 437 - Tesla 3 front view
100
AcDbPolyline
 90
        2
 70
     0
 43
0.0
 10
-917.9805549966323
 20
784.5035100571339
 42
-0.046410422569854
 10
-842.9526264144733
 20
923.0217561364835
  0
LWPOLYLINE
  5
3F9
330
1F
100
AcDbEntity
  8
ceco.net 437 - Tesla 3 front view
100
AcDbPolyline
 90
        2
 70
     0
 43
0.0
 10
717.9034517802947
 20
914.9394053771947
 42
0.3109829463382847
 10
724.7272430751664
 20
934.7068320174946
 42
0.3109829463382847
  0
LWPOLYLINE
  5
3FA
330
1F
100
AcDbEntity
  8
ceco.net 437 - Tesla 3 front view
100
AcDbPolyline
 90
        3
 70
     0
 43
0.0
 10
-823.2639197371799
 20
951.2287563898338
 42
-0.0200454010443476
 10
-780.9535985187176
 20
1004.66674415818
 42
-0.0062790765349308
 10
-684.2653956142449
 20
1257.416080397074
  0
LINE
  5
3FB
330
1F
100
AcDbEntity
  8
ceco.net 437 - Tesla 3 front view
100
AcDbLine
 10
721.2500155068528
 20
941.4295952411766
 30
0.0
 11
724.7272430751664
 21
934.7068320174946
 31
0.0
  0
LINE
  5
3FC
330
1F
100
AcDbEntity
  8
ceco.net 437 - Tesla 3 front view
100
AcDbLine
 10
-721.2500155068501
 20
941.4295952411741
 30
0.0
 11
-724.7272430751627
 21
934.7068320174946
 31
0.0
  0
SPLINE
  5
3FD
330
1F
100
AcDbEntity
  8
ceco.net 437 - Tesla 3 front view
100
AcDbSpline
210
0.0
220
0.0
230
1.0
 70
     8
 71
     3
 72
    14
 73
    10
 74
     0
 42
0.0000000001
 43
0.0000000001
 40
0.0398926192598812
 40
0.0398926192598812
 40
0.0398926192598812
 40
0.0398926192598812
 40
3.283926549009178
 40
5.49154628169681
 40
6.716027631868422
 40
7.80142217359354
 40
8.675297825160171
 40
9.443739123078888
 40
9.761746680426792
 40
9.761746680426792
 40
9.761746680426792
 40
9.761746680426792
 10
-15.10210588239988
 20
730.1728541862807
 30
0.0
 10
-17.21132458191914
 20
730.1593932382672
 30
0.0
 10
-20.75573321405772
 20
730.1349672514104
 30
0.0
 10
-25.06762502740366
 20
729.7993303574838
 30
0.0
 10
-27.79461074320443
 20
729.2933600423534
 30
0.0
 10
-29.58003886616552
 20
728.817033050009
 30
0.0
 10
-30.82872294882054
 20
728.2133318198873
 30
0.0
 10
-31.15180803863859
 20
727.6452264084225
 30
0.0
 10
-31.26955438288951
 20
727.3322474795102
 30
0.0
 10
-31.33676657912747
 20
727.1579683864272
 30
0.0
  0
LINE
  5
3FE
330
1F
100
AcDbEntity
  8
ceco.net 437 - Tesla 3 front view
100
AcDbLine
 10
0.0000000209693098
 20
696.7999540682578
 30
0.0
 11
-15.10210588239988
 21
730.1728541862807
 31
0.0
  0
SPLINE
  5
3FF
330
1F
100
AcDbEntity
  8
ceco.net 437 - Tesla 3 front view
100
AcDbSpline
210
0.0
220
0.0
230
1.0
 70
     8
 71
     3
 72
    11
 73
     7
 74
     0
 42
0.0000000001
 43
0.0000000001
 40
0.0
 40
0.0
 40
0.0
 40
0.0
 40
4.055050179776919
 40
8.828208849125068
 40
15.47270437702447
 40
19.84881455246897
 40
19.84881455246897
 40
19.84881455246897
 40
19.84881455246897
 10
-5.241887051432968
 20
732.6563830394727
 30
0.0
 10
-7.878523287951793
 20
732.6731766947993
 30
0.0
 10
-13.61871744664222
 20
732.7097379924396
 30
0.0
 10
-23.65772599888168
 20
732.4340741441106
 30
0.0
 10
-33.90180838211836
 20
731.9246790971049
 30
0.0
 10
-40.81042188158881
 20
731.062455296498
 30
0.0
 10
-43.54940437986897
 20
730.7109398327625
 30
0.0
  0
LINE
  5
400
330
1F
100
AcDbEntity
  8
ceco.net 437 - Tesla 3 front view
100
AcDbLine
 10
-5.241887051432968
 20
732.6563830394727
 30
0.0
 11
0.0000000209702193
 21
729.9534700618887
 31
0.0
  0
SPLINE
  5
401
330
1F
100
AcDbEntity
  8
ceco.net 437 - Tesla 3 front view
100
AcDbSpline
210
0.0
220
0.0
230
1.0
 70
     8
 71
     3
 72
    12
 73
     8
 74
     0
 42
0.0000000001
 43
0.0000000001
 40
0.3647307288261141
 40
0.3647307288261141
 40
0.3647307288261141
 40
0.3647307288261141
 40
1.03492835247565
 40
2.664172240393274
 40
4.425816095922836
 40
6.277684059438925
 40
7.925629657407767
 40
7.925629657407767
 40
7.925629657407767
 40
7.925629657407767
 10
-43.54940437986897
 20
730.7109398327625
 30
0.0
 10
-43.29460575976463
 20
730.5515870756228
 30
0.0
 10
-42.3953536163508
 20
730.0144473306491
 30
0.0
 10
-40.37662042173451
 20
729.2308233748685
 30
0.0
 10
-37.53796182528367
 20
728.3799197663322
 30
0.0
 10
-34.45677067554516
 20
727.7019095637963
 30
0.0
 10
-32.34008078221359
 20
727.326988188177
 30
0.0
 10
-31.33676657912747
 20
727.1579683864272
 30
0.0
  0
SPLINE
  5
402
330
1F
100
AcDbEntity
  8
ceco.net 437 - Tesla 3 front view
100
AcDbSpline
210
0.0
220
0.0
230
1.0
 70
     8
 71
     3
 72
    12
 73
     8
 74
     0
 42
0.0000000001
 43
0.0000000001
 40
0.0
 40
0.0
 40
0.0
 40
0.0
 40
6.544078463586602
 40
11.0170401607154
 40
15.15300300352132
 40
20.15685519764107
 40
23.76824663719733
 40
23.76824663719733
 40
23.76824663719733
 40
23.76824663719733
 10
0.0000000209702193
 20
734.712833399586
 30
0.0
 10
-4.254963866392245
 20
734.71456237349
 30
0.0
 10
-11.41825023135697
 20
734.717473123268
 30
0.0
 10
-21.25046025210667
 20
734.3861662801803
 30
0.0
 10
-30.00818328518198
 20
733.8095251708558
 30
0.0
 10
-38.15923134966124
 20
733.114097684052
 30
0.0
 10
-43.56988367770191
 20
732.4640939852086
 30
0.0
 10
-45.83299926712697
 20
732.1823741204098
 30
0.0
  0
SPLINE
  5
403
330
1F
100
AcDbEntity
  8
ceco.net 437 - Tesla 3 front view
100
AcDbSpline
210
0.0
220
0.0
230
1.0
 70
     8
 71
     3
 72
    12
 73
     8
 74
     0
 42
0.0000000001
 43
0.0000000001
 40
0.0
 40
0.0
 40
0.0
 40
0.0
 40
7.669465964596072
 40
13.80442892326917
 40
18.29654664136882
 40
22.95741896937044
 40
25.23242074388203
 40
25.23242074388203
 40
25.23242074388203
 40
25.23242074388203
 10
0.0000000209702193
 20
736.5845422349025
 30
0.0
 10
-4.985295216188205
 20
736.5532641931199
 30
0.0
 10
-13.95843025330486
 20
736.4969662048858
 30
0.0
 10
-25.82924719827952
 20
736.0961362339906
 30
0.0
 10
-35.66763785697821
 20
735.4561407065057
 30
0.0
 10
-42.94931992513648
 20
734.7664569689591
 30
0.0
 10
-47.26717196097069
 20
734.1835970092402
 30
0.0
 10
-48.67891995136506
 20
733.9850885591642
 30
0.0
  0
SPLINE
  5
404
330
1F
100
AcDbEntity
  8
ceco.net 437 - Tesla 3 front view
100
AcDbSpline
210
0.0
220
0.0
230
1.0
 70
     8
 71
     3
 72
     8
 73
     4
 74
     0
 42
0.0000000001
 43
0.0000000001
 40
2.045295791483826
 40
2.045295791483826
 40
2.045295791483826
 40
2.045295791483826
 40
4.565309919474094
 40
4.565309919474094
 40
4.565309919474094
 40
4.565309919474094
 10
-45.83299926712697
 20
732.1823741204098
 30
0.0
 10
-46.77546423961849
 20
732.7852374692979
 30
0.0
 10
-47.72641338987432
 20
733.3854099874841
 30
0.0
 10
-48.67891995136506
 20
733.9850885591642
 30
0.0
  0
SPLINE
  5
405
330
1F
100
AcDbEntity
  8
ceco.net 437 - Tesla 3 front view
100
AcDbSpline
210
0.0
220
0.0
230
1.0
 70
     8
 71
     3
 72
    14
 73
    10
 74
     0
 42
0.0000000001
 43
0.0000000001
 40
0.0398926192598812
 40
0.0398926192598812
 40
0.0398926192598812
 40
0.0398926192598812
 40
3.283926549009178
 40
5.49154628169681
 40
6.716027631868422
 40
7.80142217359354
 40
8.675297825160171
 40
9.443739123078888
 40
9.761746680426792
 40
9.761746680426792
 40
9.761746680426792
 40
9.761746680426792
 10
15.1021059243385
 20
730.1728541862807
 30
0.0
 10
17.21132462385958
 20
730.1593932382672
 30
0.0
 10
20.75573325599634
 20
730.1349672514104
 30
0.0
 10
25.0676250693441
 20
729.7993303574838
 30
0.0
 10
27.79461078514486
 20
729.2933600423534
 30
0.0
 10
29.58003890810596
 20
728.817033050009
 30
0.0
 10
30.82872299076098
 20
728.2133318198873
 30
0.0
 10
31.15180808057721
 20
727.6452264084225
 30
0.0
 10
31.26955442483176
 20
727.3322474795102
 30
0.0
 10
31.33676662106973
 20
727.1579683864272
 30
0.0
  0
LINE
  5
406
330
1F
100
AcDbEntity
  8
ceco.net 437 - Tesla 3 front view
100
AcDbLine
 10
0.0000000209693098
 20
696.7999540682578
 30
0.0
 11
15.1021059243385
 21
730.1728541862807
 31
0.0
  0
SPLINE
  5
407
330
1F
100
AcDbEntity
  8
ceco.net 437 - Tesla 3 front view
100
AcDbSpline
210
0.0
220
0.0
230
1.0
 70
     8
 71
     3
 72
    11
 73
     7
 74
     0
 42
0.0000000001
 43
0.0000000001
 40
0.0
 40
0.0
 40
0.0
 40
0.0
 40
4.055050179776919
 40
8.828208849125068
 40
15.47270437702447
 40
19.84881455246897
 40
19.84881455246897
 40
19.84881455246897
 40
19.84881455246897
 10
5.241887093373406
 20
732.6563830394727
 30
0.0
 10
7.878523329890413
 20
732.6731766947993
 30
0.0
 10
13.61871748858084
 20
732.7097379924396
 30
0.0
 10
23.65772604082212
 20
732.4340741441106
 30
0.0
 10
33.90180842406062
 20
731.9246790971049
 30
0.0
 10
40.81042192353106
 20
731.062455296498
 30
0.0
 10
43.54940442181123
 20
730.7109398327625
 30
0.0
  0
LINE
  5
408
330
1F
100
AcDbEntity
  8
ceco.net 437 - Tesla 3 front view
100
AcDbLine
 10
5.241887093373406
 20
732.6563830394727
 30
0.0
 11
0.0000000209702193
 21
729.9534700618887
 31
0.0
  0
SPLINE
  5
409
330
1F
100
AcDbEntity
  8
ceco.net 437 - Tesla 3 front view
100
AcDbSpline
210
0.0
220
0.0
230
1.0
 70
     8
 71
     3
 72
    12
 73
     8
 74
     0
 42
0.0000000001
 43
0.0000000001
 40
0.3647307288261141
 40
0.3647307288261141
 40
0.3647307288261141
 40
0.3647307288261141
 40
1.03492835247565
 40
2.664172240393274
 40
4.425816095922836
 40
6.277684059438925
 40
7.925629657407767
 40
7.925629657407767
 40
7.925629657407767
 40
7.925629657407767
 10
43.54940442181123
 20
730.7109398327625
 30
0.0
 10
43.29460580170507
 20
730.5515870756228
 30
0.0
 10
42.39535365829124
 20
730.0144473306491
 30
0.0
 10
40.37662046367495
 20
729.2308233748685
 30
0.0
 10
37.53796186722411
 20
728.3799197663322
 30
0.0
 10
34.45677071748377
 20
727.7019095637963
 30
0.0
 10
32.34008082415221
 20
727.326988188177
 30
0.0
 10
31.33676662106973
 20
727.1579683864272
 30
0.0
  0
SPLINE
  5
40A
330
1F
100
AcDbEntity
  8
ceco.net 437 - Tesla 3 front view
100
AcDbSpline
210
0.0
220
0.0
230
1.0
 70
     8
 71
     3
 72
    12
 73
     8
 74
     0
 42
0.0000000001
 43
0.0000000001
 40
0.0
 40
0.0
 40
0.0
 40
0.0
 40
6.544078463586602
 40
11.0170401607154
 40
15.15300300352132
 40
20.15685519764107
 40
23.76824663719733
 40
23.76824663719733
 40
23.76824663719733
 40
23.76824663719733
 10
0.0000000209702193
 20
734.712833399586
 30
0.0
 10
4.254963908332683
 20
734.71456237349
 30
0.0
 10
11.41825027329559
 20
734.717473123268
 30
0.0
 10
21.25046029404893
 20
734.3861662801803
 30
0.0
 10
30.00818332712242
 20
733.8095251708558
 30
0.0
 10
38.15923139160167
 20
733.114097684052
 30
0.0
 10
43.56988371964416
 20
732.4640939852086
 30
0.0
 10
45.83299930906742
 20
732.1823741204098
 30
0.0
  0
SPLINE
  5
40B
330
1F
100
AcDbEntity
  8
ceco.net 437 - Tesla 3 front view
100
AcDbSpline
210
0.0
220
0.0
230
1.0
 70
     8
 71
     3
 72
    12
 73
     8
 74
     0
 42
0.0000000001
 43
0.0000000001
 40
0.0
 40
0.0
 40
0.0
 40
0.0
 40
7.669465964596072
 40
13.80442892326917
 40
18.29654664136882
 40
22.95741896937044
 40
25.23242074388203
 40
25.23242074388203
 40
25.23242074388203
 40
25.23242074388203
 10
0.0000000209702193
 20
736.5845422349025
 30
0.0
 10
4.985295258128644
 20
736.5532641931199
 30
0.0
 10
13.9584302952453
 20
736.4969662048858
 30
0.0
 10
25.82924724021995
 20
736.0961362339906
 30
0.0
 10
35.66763789892047
 20
735.4561407065057
 30
0.0
 10
42.9493199670751
 20
734.7664569689591
 30
0.0
 10
47.26717200291296
 20
734.1835970092402
 30
0.0
 10
48.6789199933055
 20
733.9850885591642
 30
0.0
  0
SPLINE
  5
40C
330
1F
100
AcDbEntity
  8
ceco.net 437 - Tesla 3 front view
100
AcDbSpline
210
0.0
220
0.0
230
1.0
 70
     8
 71
     3
 72
     8
 73
     4
 74
     0
 42
0.0000000001
 43
0.0000000001
 40
2.045295791483826
 40
2.045295791483826
 40
2.045295791483826
 40
2.045295791483826
 40
4.565309919474094
 40
4.565309919474094
 40
4.565309919474094
 40
4.565309919474094
 10
45.83299930906742
 20
732.1823741204098
 30
0.0
 10
46.7754642815571
 20
732.7852374692979
 30
0.0
 10
47.72641343181476
 20
733.3854099874841
 30
0.0
 10
48.6789199933055
 20
733.9850885591642
 30
0.0
  0
LINE
  5
40D
330
1F
100
AcDbEntity
  8
ceco.net 437 - Tesla 3 front view
100
AcDbLine
 10
-706.5465656441829
 20
0.0000000000001137
 30
0.0
 11
-714.2796491557483
 21
15.46616702313144
 31
0.0
  0
LINE
  5
40E
330
1F
100
AcDbEntity
  8
ceco.net 437 - Tesla 3 front view
100
AcDbLine
 10
-714.2796491557483
 20
15.46616702313144
 30
0.0
 11
-704.2796491557482
 21
35.46616702313144
 31
0.0
  0
LINE
  5
40F
330
1F
100
AcDbEntity
  8
ceco.net 437 - Tesla 3 front view
100
AcDbLine
 10
-704.2796491557482
 20
35.46616702313144
 30
0.0
 11
-714.2796491557483
 21
55.46616702313144
 31
0.0
  0
LINE
  5
410
330
1F
100
AcDbEntity
  8
ceco.net 437 - Tesla 3 front view
100
AcDbLine
 10
-714.2796491557483
 20
55.46616702313144
 30
0.0
 11
-704.2796491557482
 21
75.46616702313144
 31
0.0
  0
LINE
  5
411
330
1F
100
AcDbEntity
  8
ceco.net 437 - Tesla 3 front view
100
AcDbLine
 10
-704.2796491557482
 20
75.46616702313144
 30
0.0
 11
-714.2796491557483
 21
95.46616702313144
 31
0.0
  0
LINE
  5
412
330
1F
100
AcDbEntity
  8
ceco.net 437 - Tesla 3 front view
100
AcDbLine
 10
-714.2796491557483
 20
95.46616702313144
 30
0.0
 11
-704.2796491557482
 21
115.4661670231314
 31
0.0
  0
LINE
  5
413
330
1F
100
AcDbEntity
  8
ceco.net 437 - Tesla 3 front view
100
AcDbLine
 10
-704.2796491557482
 20
115.4661670231314
 30
0.0
 11
-714.2796491557483
 21
135.4661670231314
 31
0.0
  0
LINE
  5
414
330
1F
100
AcDbEntity
  8
ceco.net 437 - Tesla 3 front view
100
AcDbLine
 10
-714.2796491557483
 20
135.4661670231314
 30
0.0
 11
-704.2796491557482
 21
155.4661670231314
 31
0.0
  0
LINE
  5
415
330
1F
100
AcDbEntity
  8
ceco.net 437 - Tesla 3 front view
100
AcDbLine
 10
-704.2796491557482
 20
155.4661670231314
 30
0.0
 11
-706.3001996923003
 21
159.5072680962361
 31
0.0
  0
LINE
  5
416
330
1F
100
AcDbEntity
  8
ceco.net 437 - Tesla 3 front view
100
AcDbLine
 10
-716.5465656441829
 20
0.0000000000001137
 30
0.0
 11
-724.2796491557482
 21
15.46616702313144
 31
0.0
  0
LINE
  5
417
330
1F
100
AcDbEntity
  8
ceco.net 437 - Tesla 3 front view
100
AcDbLine
 10
-724.2796491557482
 20
15.46616702313144
 30
0.0
 11
-714.2796491557483
 21
35.46616702313144
 31
0.0
  0
LINE
  5
418
330
1F
100
AcDbEntity
  8
ceco.net 437 - Tesla 3 front view
100
AcDbLine
 10
-714.2796491557483
 20
35.46616702313144
 30
0.0
 11
-724.2796491557482
 21
55.46616702313144
 31
0.0
  0
LINE
  5
419
330
1F
100
AcDbEntity
  8
ceco.net 437 - Tesla 3 front view
100
AcDbLine
 10
-724.2796491557482
 20
55.46616702313144
 30
0.0
 11
-714.2796491557483
 21
75.46616702313144
 31
0.0
  0
LINE
  5
41A
330
1F
100
AcDbEntity
  8
ceco.net 437 - Tesla 3 front view
100
AcDbLine
 10
-714.2796491557483
 20
75.46616702313144
 30
0.0
 11
-724.2796491557482
 21
95.46616702313144
 31
0.0
  0
LINE
  5
41B
330
1F
100
AcDbEntity
  8
ceco.net 437 - Tesla 3 front view
100
AcDbLine
 10
-724.2796491557482
 20
95.46616702313144
 30
0.0
 11
-714.2796491557483
 21
115.4661670231314
 31
0.0
  0
LINE
  5
41C
330
1F
100
AcDbEntity
  8
ceco.net 437 - Tesla 3 front view
100
AcDbLine
 10
-714.2796491557483
 20
115.4661670231314
 30
0.0
 11
-724.2796491557482
 21
135.4661670231314
 31
0.0
  0
LINE
  5
41D
330
1F
100
AcDbEntity
  8
ceco.net 437 - Tesla 3 front view
100
AcDbLine
 10
-724.2796491557482
 20
135.4661670231314
 30
0.0
 11
-714.2796491557483
 21
155.4661670231314
 31
0.0
  0
LINE
  5
41E
330
1F
100
AcDbEntity
  8
ceco.net 437 - Tesla 3 front view
100
AcDbLine
 10
-714.2796491557483
 20
155.4661670231314
 30
0.0
 11
-716.315031712932
 21
159.5369321374995
 31
0.0
  0
LINE
  5
41F
330
1F
100
AcDbEntity
  8
ceco.net 437 - Tesla 3 front view
100
AcDbLine
 10
-756.5465656441829
 20
0.0000000000001137
 30
0.0
 11
-764.2796491557483
 21
15.46616702313144
 31
0.0
  0
LINE
  5
420
330
1F
100
AcDbEntity
  8
ceco.net 437 - Tesla 3 front view
100
AcDbLine
 10
-764.2796491557483
 20
15.46616702313144
 30
0.0
 11
-754.2796491557482
 21
35.46616702313144
 31
0.0
  0
LINE
  5
421
330
1F
100
AcDbEntity
  8
ceco.net 437 - Tesla 3 front view
100
AcDbLine
 10
-754.2796491557482
 20
35.46616702313144
 30
0.0
 11
-764.2796491557483
 21
55.46616702313144
 31
0.0
  0
LINE
  5
422
330
1F
100
AcDbEntity
  8
ceco.net 437 - Tesla 3 front view
100
AcDbLine
 10
-764.2796491557483
 20
55.46616702313144
 30
0.0
 11
-754.2796491557482
 21
75.46616702313144
 31
0.0
  0
LINE
  5
423
330
1F
100
AcDbEntity
  8
ceco.net 437 - Tesla 3 front view
100
AcDbLine
 10
-754.2796491557482
 20
75.46616702313144
 30
0.0
 11
-764.2796491557483
 21
95.46616702313144
 31
0.0
  0
LINE
  5
424
330
1F
100
AcDbEntity
  8
ceco.net 437 - Tesla 3 front view
100
AcDbLine
 10
-764.2796491557483
 20
95.46616702313144
 30
0.0
 11
-754.2796491557482
 21
115.4661670231314
 31
0.0
  0
LINE
  5
425
330
1F
100
AcDbEntity
  8
ceco.net 437 - Tesla 3 front view
100
AcDbLine
 10
-754.2796491557482
 20
115.4661670231314
 30
0.0
 11
-764.2796491557483
 21
135.4661670231314
 31
0.0
  0
LINE
  5
426
330
1F
100
AcDbEntity
  8
ceco.net 437 - Tesla 3 front view
100
AcDbLine
 10
-764.2796491557483
 20
135.4661670231314
 30
0.0
 11
-754.2796491557482
 21
155.4661670231314
 31
0.0
  0
LINE
  5
427
330
1F
100
AcDbEntity
  8
ceco.net 437 - Tesla 3 front view
100
AcDbLine
 10
-754.2796491557482
 20
155.4661670231314
 30
0.0
 11
-756.3113154288376
 21
159.5294995693094
 31
0.0
  0
LINE
  5
428
330
1F
100
AcDbEntity
  8
ceco.net 437 - Tesla 3 front view
100
AcDbLine
 10
-766.5465656441829
 20
0.0000000000001137
 30
0.0
 11
-774.2796491557482
 21
15.46616702313144
 31
0.0
  0
LINE
  5
429
330
1F
100
AcDbEntity
  8
ceco.net 437 - Tesla 3 front view
100
AcDbLine
 10
-774.2796491557482
 20
15.46616702313144
 30
0.0
 11
-764.2796491557483
 21
35.46616702313144
 31
0.0
  0
LINE
  5
42A
330
1F
100
AcDbEntity
  8
ceco.net 437 - Tesla 3 front view
100
AcDbLine
 10
-764.2796491557483
 20
35.46616702313144
 30
0.0
 11
-774.2796491557482
 21
55.46616702313144
 31
0.0
  0
LINE
  5
42B
330
1F
100
AcDbEntity
  8
ceco.net 437 - Tesla 3 front view
100
AcDbLine
 10
-774.2796491557482
 20
55.46616702313144
 30
0.0
 11
-764.2796491557483
 21
75.46616702313144
 31
0.0
  0
LINE
  5
42C
330
1F
100
AcDbEntity
  8
ceco.net 437 - Tesla 3 front view
100
AcDbLine
 10
-764.2796491557483
 20
75.46616702313144
 30
0.0
 11
-774.2796491557482
 21
95.46616702313144
 31
0.0
  0
LINE
  5
42D
330
1F
100
AcDbEntity
  8
ceco.net 437 - Tesla 3 front view
100
AcDbLine
 10
-774.2796491557482
 20
95.46616702313144
 30
0.0
 11
-764.2796491557483
 21
115.4661670231314
 31
0.0
  0
LINE
  5
42E
330
1F
100
AcDbEntity
  8
ceco.net 437 - Tesla 3 front view
100
AcDbLine
 10
-764.2796491557483
 20
115.4661670231314
 30
0.0
 11
-774.2796491557482
 21
135.4661670231314
 31
0.0
  0
LINE
  5
42F
330
1F
100
AcDbEntity
  8
ceco.net 437 - Tesla 3 front view
100
AcDbLine
 10
-774.2796491557482
 20
135.4661670231314
 30
0.0
 11
-764.2796491557483
 21
155.4661670231314
 31
0.0
  0
LINE
  5
430
330
1F
100
AcDbEntity
  8
ceco.net 437 - Tesla 3 front view
100
AcDbLine
 10
-764.2796491557483
 20
155.4661670231314
 30
0.0
 11
-766.2946846440209
 21
159.496237999676
 31
0.0
  0
LINE
  5
431
330
1F
100
AcDbEntity
  8
ceco.net 437 - Tesla 3 front view
100
AcDbLine
 10
-891.1268451504438
 20
0.0000000000001137
 30
0.0
 11
-883.3937616388784
 21
15.46616702313144
 31
0.0
  0
LINE
  5
432
330
1F
100
AcDbEntity
  8
ceco.net 437 - Tesla 3 front view
100
AcDbLine
 10
-883.3937616388784
 20
15.46616702313144
 30
0.0
 11
-893.3937616388785
 21
35.46616702313144
 31
0.0
  0
LINE
  5
433
330
1F
100
AcDbEntity
  8
ceco.net 437 - Tesla 3 front view
100
AcDbLine
 10
-893.3937616388785
 20
35.46616702313144
 30
0.0
 11
-883.3937616388784
 21
55.46616702313144
 31
0.0
  0
LINE
  5
434
330
1F
100
AcDbEntity
  8
ceco.net 437 - Tesla 3 front view
100
AcDbLine
 10
-883.3937616388784
 20
55.46616702313144
 30
0.0
 11
-893.3937616388785
 21
75.46616702313144
 31
0.0
  0
LINE
  5
435
330
1F
100
AcDbEntity
  8
ceco.net 437 - Tesla 3 front view
100
AcDbLine
 10
-893.3937616388785
 20
75.46616702313144
 30
0.0
 11
-883.3937616388784
 21
95.46616702313144
 31
0.0
  0
LINE
  5
436
330
1F
100
AcDbEntity
  8
ceco.net 437 - Tesla 3 front view
100
AcDbLine
 10
-883.3937616388784
 20
95.46616702313144
 30
0.0
 11
-893.3937616388785
 21
115.4661670231314
 31
0.0
  0
LINE
  5
437
330
1F
100
AcDbEntity
  8
ceco.net 437 - Tesla 3 front view
100
AcDbLine
 10
-893.3937616388785
 20
115.4661670231314
 30
0.0
 11
-883.3937616388784
 21
135.4661670231314
 31
0.0
  0
LINE
  5
438
330
1F
100
AcDbEntity
  8
ceco.net 437 - Tesla 3 front view
100
AcDbLine
 10
-883.3937616388784
 20
135.4661670231314
 30
0.0
 11
-893.3937616388785
 21
155.4661670231314
 31
0.0
  0
LINE
  5
439
330
1F
100
AcDbEntity
  8
ceco.net 437 - Tesla 3 front view
100
AcDbLine
 10
-893.3937616388785
 20
155.4661670231314
 30
0.0
 11
-883.3937616388784
 21
175.4661670231314
 31
0.0
  0
LINE
  5
43A
330
1F
100
AcDbEntity
  8
ceco.net 437 - Tesla 3 front view
100
AcDbLine
 10
-881.1268451504439
 20
0.0000000000001137
 30
0.0
 11
-873.3937616388784
 21
15.46616702313144
 31
0.0
  0
LINE
  5
43B
330
1F
100
AcDbEntity
  8
ceco.net 437 - Tesla 3 front view
100
AcDbLine
 10
-873.3937616388784
 20
15.46616702313144
 30
0.0
 11
-883.3937616388784
 21
35.46616702313144
 31
0.0
  0
LINE
  5
43C
330
1F
100
AcDbEntity
  8
ceco.net 437 - Tesla 3 front view
100
AcDbLine
 10
-883.3937616388784
 20
35.46616702313144
 30
0.0
 11
-873.3937616388784
 21
55.46616702313144
 31
0.0
  0
LINE
  5
43D
330
1F
100
AcDbEntity
  8
ceco.net 437 - Tesla 3 front view
100
AcDbLine
 10
-873.3937616388784
 20
55.46616702313144
 30
0.0
 11
-883.3937616388784
 21
75.46616702313144
 31
0.0
  0
LINE
  5
43E
330
1F
100
AcDbEntity
  8
ceco.net 437 - Tesla 3 front view
100
AcDbLine
 10
-883.3937616388784
 20
75.46616702313144
 30
0.0
 11
-873.3937616388784
 21
95.46616702313144
 31
0.0
  0
LINE
  5
43F
330
1F
100
AcDbEntity
  8
ceco.net 437 - Tesla 3 front view
100
AcDbLine
 10
-873.3937616388784
 20
95.46616702313144
 30
0.0
 11
-883.3937616388784
 21
115.4661670231314
 31
0.0
  0
LINE
  5
440
330
1F
100
AcDbEntity
  8
ceco.net 437 - Tesla 3 front view
100
AcDbLine
 10
-883.3937616388784
 20
115.4661670231314
 30
0.0
 11
-873.3937616388784
 21
135.4661670231314
 31
0.0
  0
LINE
  5
441
330
1F
100
AcDbEntity
  8
ceco.net 437 - Tesla 3 front view
100
AcDbLine
 10
-873.3937616388784
 20
135.4661670231314
 30
0.0
 11
-883.3937616388784
 21
155.4661670231314
 31
0.0
  0
LINE
  5
442
330
1F
100
AcDbEntity
  8
ceco.net 437 - Tesla 3 front view
100
AcDbLine
 10
-883.3937616388784
 20
155.4661670231314
 30
0.0
 11
-873.3937616388784
 21
175.4661670231314
 31
0.0
  0
LINE
  5
443
330
1F
100
AcDbEntity
  8
ceco.net 437 - Tesla 3 front view
100
AcDbLine
 10
-841.1268451504438
 20
0.0000000000001137
 30
0.0
 11
-833.3937616388784
 21
15.46616702313144
 31
0.0
  0
LINE
  5
444
330
1F
100
AcDbEntity
  8
ceco.net 437 - Tesla 3 front view
100
AcDbLine
 10
-833.3937616388784
 20
15.46616702313144
 30
0.0
 11
-843.3937616388785
 21
35.46616702313144
 31
0.0
  0
LINE
  5
445
330
1F
100
AcDbEntity
  8
ceco.net 437 - Tesla 3 front view
100
AcDbLine
 10
-843.3937616388785
 20
35.46616702313144
 30
0.0
 11
-833.3937616388784
 21
55.46616702313144
 31
0.0
  0
LINE
  5
446
330
1F
100
AcDbEntity
  8
ceco.net 437 - Tesla 3 front view
100
AcDbLine
 10
-833.3937616388784
 20
55.46616702313144
 30
0.0
 11
-843.3937616388785
 21
75.46616702313144
 31
0.0
  0
LINE
  5
447
330
1F
100
AcDbEntity
  8
ceco.net 437 - Tesla 3 front view
100
AcDbLine
 10
-843.3937616388785
 20
75.46616702313144
 30
0.0
 11
-833.3937616388784
 21
95.46616702313144
 31
0.0
  0
LINE
  5
448
330
1F
100
AcDbEntity
  8
ceco.net 437 - Tesla 3 front view
100
AcDbLine
 10
-833.3937616388784
 20
95.46616702313144
 30
0.0
 11
-843.3937616388785
 21
115.4661670231314
 31
0.0
  0
LINE
  5
449
330
1F
100
AcDbEntity
  8
ceco.net 437 - Tesla 3 front view
100
AcDbLine
 10
-843.3937616388785
 20
115.4661670231314
 30
0.0
 11
-833.3937616388784
 21
135.4661670231314
 31
0.0
  0
LINE
  5
44A
330
1F
100
AcDbEntity
  8
ceco.net 437 - Tesla 3 front view
100
AcDbLine
 10
-833.3937616388784
 20
135.4661670231314
 30
0.0
 11
-843.3937616388785
 21
155.4661670231314
 31
0.0
  0
LINE
  5
44B
330
1F
100
AcDbEntity
  8
ceco.net 437 - Tesla 3 front view
100
AcDbLine
 10
-843.3937616388785
 20
155.4661670231314
 30
0.0
 11
-840.8562954057996
 21
160.541099489289
 31
0.0
  0
LINE
  5
44C
330
1F
100
AcDbEntity
  8
ceco.net 437 - Tesla 3 front view
100
AcDbLine
 10
-831.1268451504439
 20
0.0000000000001137
 30
0.0
 11
-823.3937616388784
 21
15.46616702313144
 31
0.0
  0
LINE
  5
44D
330
1F
100
AcDbEntity
  8
ceco.net 437 - Tesla 3 front view
100
AcDbLine
 10
-823.3937616388784
 20
15.46616702313144
 30
0.0
 11
-833.3937616388784
 21
35.46616702313144
 31
0.0
  0
LINE
  5
44E
330
1F
100
AcDbEntity
  8
ceco.net 437 - Tesla 3 front view
100
AcDbLine
 10
-833.3937616388784
 20
35.46616702313144
 30
0.0
 11
-823.3937616388784
 21
55.46616702313144
 31
0.0
  0
LINE
  5
44F
330
1F
100
AcDbEntity
  8
ceco.net 437 - Tesla 3 front view
100
AcDbLine
 10
-823.3937616388784
 20
55.46616702313144
 30
0.0
 11
-833.3937616388784
 21
75.46616702313144
 31
0.0
  0
LINE
  5
450
330
1F
100
AcDbEntity
  8
ceco.net 437 - Tesla 3 front view
100
AcDbLine
 10
-833.3937616388784
 20
75.46616702313144
 30
0.0
 11
-823.3937616388784
 21
95.46616702313144
 31
0.0
  0
LINE
  5
451
330
1F
100
AcDbEntity
  8
ceco.net 437 - Tesla 3 front view
100
AcDbLine
 10
-823.3937616388784
 20
95.46616702313144
 30
0.0
 11
-833.3937616388784
 21
115.4661670231314
 31
0.0
  0
LINE
  5
452
330
1F
100
AcDbEntity
  8
ceco.net 437 - Tesla 3 front view
100
AcDbLine
 10
-833.3937616388784
 20
115.4661670231314
 30
0.0
 11
-823.3937616388784
 21
135.4661670231314
 31
0.0
  0
LINE
  5
453
330
1F
100
AcDbEntity
  8
ceco.net 437 - Tesla 3 front view
100
AcDbLine
 10
-823.3937616388784
 20
135.4661670231314
 30
0.0
 11
-833.3937616388784
 21
155.4661670231314
 31
0.0
  0
LINE
  5
454
330
1F
100
AcDbEntity
  8
ceco.net 437 - Tesla 3 front view
100
AcDbLine
 10
-833.3937616388784
 20
155.4661670231314
 30
0.0
 11
-831.5821181420051
 21
159.0894540168778
 31
0.0
  0
LINE
  5
455
330
1F
100
AcDbEntity
  8
ceco.net 437 - Tesla 3 front view
100
AcDbLine
 10
-883.3937616388784
 20
175.4661670231314
 30
0.0
 11
-893.3937616388785
 21
195.4661670231314
 31
0.0
  0
LINE
  5
456
330
1F
100
AcDbEntity
  8
ceco.net 437 - Tesla 3 front view
100
AcDbLine
 10
-893.3937616388785
 20
195.4661670231314
 30
0.0
 11
-889.8254085929474
 21
202.6028731149935
 31
0.0
  0
LINE
  5
457
330
1F
100
AcDbEntity
  8
ceco.net 437 - Tesla 3 front view
100
AcDbLine
 10
-873.3937616388784
 20
175.4661670231314
 30
0.0
 11
-878.8081312570266
 21
186.2949062594283
 31
0.0
  0
LINE
  5
458
330
1F
100
AcDbEntity
  8
ceco.net 437 - Tesla 3 front view
100
AcDbLine
 10
706.5465656441856
 20
0.0000000000001137
 30
0.0
 11
714.2796491557501
 21
15.4661670231294
 31
0.0
  0
LINE
  5
459
330
1F
100
AcDbEntity
  8
ceco.net 437 - Tesla 3 front view
100
AcDbLine
 10
714.2796491557501
 20
15.4661670231294
 30
0.0
 11
704.2796491557501
 21
35.4661670231294
 31
0.0
  0
LINE
  5
45A
330
1F
100
AcDbEntity
  8
ceco.net 437 - Tesla 3 front view
100
AcDbLine
 10
704.2796491557501
 20
35.4661670231294
 30
0.0
 11
714.2796491557501
 21
55.4661670231294
 31
0.0
  0
LINE
  5
45B
330
1F
100
AcDbEntity
  8
ceco.net 437 - Tesla 3 front view
100
AcDbLine
 10
714.2796491557501
 20
55.4661670231294
 30
0.0
 11
704.2796491557501
 21
75.4661670231294
 31
0.0
  0
LINE
  5
45C
330
1F
100
AcDbEntity
  8
ceco.net 437 - Tesla 3 front view
100
AcDbLine
 10
704.2796491557501
 20
75.4661670231294
 30
0.0
 11
714.2796491557501
 21
95.4661670231294
 31
0.0
  0
LINE
  5
45D
330
1F
100
AcDbEntity
  8
ceco.net 437 - Tesla 3 front view
100
AcDbLine
 10
714.2796491557501
 20
95.4661670231294
 30
0.0
 11
704.2796491557501
 21
115.4661670231293
 31
0.0
  0
LINE
  5
45E
330
1F
100
AcDbEntity
  8
ceco.net 437 - Tesla 3 front view
100
AcDbLine
 10
704.2796491557501
 20
115.4661670231293
 30
0.0
 11
714.2796491557501
 21
135.4661670231294
 31
0.0
  0
LINE
  5
45F
330
1F
100
AcDbEntity
  8
ceco.net 437 - Tesla 3 front view
100
AcDbLine
 10
714.2796491557501
 20
135.4661670231294
 30
0.0
 11
704.2796491557501
 21
155.4661670231294
 31
0.0
  0
LINE
  5
460
330
1F
100
AcDbEntity
  8
ceco.net 437 - Tesla 3 front view
100
AcDbLine
 10
704.2796491557501
 20
155.4661670231294
 30
0.0
 11
706.3001996923039
 21
159.5072680962366
 31
0.0
  0
LINE
  5
461
330
1F
100
AcDbEntity
  8
ceco.net 437 - Tesla 3 front view
100
AcDbLine
 10
716.5465656441856
 20
0.0000000000001137
 30
0.0
 11
724.2796491557501
 21
15.4661670231294
 31
0.0
  0
LINE
  5
462
330
1F
100
AcDbEntity
  8
ceco.net 437 - Tesla 3 front view
100
AcDbLine
 10
724.2796491557501
 20
15.4661670231294
 30
0.0
 11
714.2796491557501
 21
35.4661670231294
 31
0.0
  0
LINE
  5
463
330
1F
100
AcDbEntity
  8
ceco.net 437 - Tesla 3 front view
100
AcDbLine
 10
714.2796491557501
 20
35.4661670231294
 30
0.0
 11
724.2796491557501
 21
55.4661670231294
 31
0.0
  0
LINE
  5
464
330
1F
100
AcDbEntity
  8
ceco.net 437 - Tesla 3 front view
100
AcDbLine
 10
724.2796491557501
 20
55.4661670231294
 30
0.0
 11
714.2796491557501
 21
75.4661670231294
 31
0.0
  0
LINE
  5
465
330
1F
100
AcDbEntity
  8
ceco.net 437 - Tesla 3 front view
100
AcDbLine
 10
714.2796491557501
 20
75.4661670231294
 30
0.0
 11
724.2796491557501
 21
95.4661670231294
 31
0.0
  0
LINE
  5
466
330
1F
100
AcDbEntity
  8
ceco.net 437 - Tesla 3 front view
100
AcDbLine
 10
724.2796491557501
 20
95.4661670231294
 30
0.0
 11
714.2796491557501
 21
115.4661670231293
 31
0.0
  0
LINE
  5
467
330
1F
100
AcDbEntity
  8
ceco.net 437 - Tesla 3 front view
100
AcDbLine
 10
714.2796491557501
 20
115.4661670231293
 30
0.0
 11
724.2796491557501
 21
135.4661670231294
 31
0.0
  0
LINE
  5
468
330
1F
100
AcDbEntity
  8
ceco.net 437 - Tesla 3 front view
100
AcDbLine
 10
724.2796491557501
 20
135.4661670231294
 30
0.0
 11
714.2796491557501
 21
155.4661670231294
 31
0.0
  0
LINE
  5
469
330
1F
100
AcDbEntity
  8
ceco.net 437 - Tesla 3 front view
100
AcDbLine
 10
714.2796491557501
 20
155.4661670231294
 30
0.0
 11
716.3150317129357
 21
159.5369321375001
 31
0.0
  0
LINE
  5
46A
330
1F
100
AcDbEntity
  8
ceco.net 437 - Tesla 3 front view
100
AcDbLine
 10
756.5465656441856
 20
0.0000000000001137
 30
0.0
 11
764.2796491557501
 21
15.46616702312928
 31
0.0
  0
LINE
  5
46B
330
1F
100
AcDbEntity
  8
ceco.net 437 - Tesla 3 front view
100
AcDbLine
 10
764.2796491557501
 20
15.46616702312928
 30
0.0
 11
754.2796491557501
 21
35.46616702312928
 31
0.0
  0
LINE
  5
46C
330
1F
100
AcDbEntity
  8
ceco.net 437 - Tesla 3 front view
100
AcDbLine
 10
754.2796491557501
 20
35.46616702312928
 30
0.0
 11
764.2796491557501
 21
55.46616702312928
 31
0.0
  0
LINE
  5
46D
330
1F
100
AcDbEntity
  8
ceco.net 437 - Tesla 3 front view
100
AcDbLine
 10
764.2796491557501
 20
55.46616702312928
 30
0.0
 11
754.2796491557501
 21
75.46616702312928
 31
0.0
  0
LINE
  5
46E
330
1F
100
AcDbEntity
  8
ceco.net 437 - Tesla 3 front view
100
AcDbLine
 10
754.2796491557501
 20
75.46616702312928
 30
0.0
 11
764.2796491557501
 21
95.46616702312929
 31
0.0
  0
LINE
  5
46F
330
1F
100
AcDbEntity
  8
ceco.net 437 - Tesla 3 front view
100
AcDbLine
 10
764.2796491557501
 20
95.46616702312929
 30
0.0
 11
754.2796491557501
 21
115.4661670231292
 31
0.0
  0
LINE
  5
470
330
1F
100
AcDbEntity
  8
ceco.net 437 - Tesla 3 front view
100
AcDbLine
 10
754.2796491557501
 20
115.4661670231292
 30
0.0
 11
764.2796491557501
 21
135.4661670231292
 31
0.0
  0
LINE
  5
471
330
1F
100
AcDbEntity
  8
ceco.net 437 - Tesla 3 front view
100
AcDbLine
 10
764.2796491557501
 20
135.4661670231292
 30
0.0
 11
754.2796491557501
 21
155.4661670231292
 31
0.0
  0
LINE
  5
472
330
1F
100
AcDbEntity
  8
ceco.net 437 - Tesla 3 front view
100
AcDbLine
 10
754.2796491557501
 20
155.4661670231292
 30
0.0
 11
756.3113154288412
 21
159.5294995693105
 31
0.0
  0
LINE
  5
473
330
1F
100
AcDbEntity
  8
ceco.net 437 - Tesla 3 front view
100
AcDbLine
 10
766.5465656441856
 20
0.0000000000001137
 30
0.0
 11
774.2796491557501
 21
15.46616702312928
 31
0.0
  0
LINE
  5
474
330
1F
100
AcDbEntity
  8
ceco.net 437 - Tesla 3 front view
100
AcDbLine
 10
774.2796491557501
 20
15.46616702312928
 30
0.0
 11
764.2796491557501
 21
35.46616702312928
 31
0.0
  0
LINE
  5
475
330
1F
100
AcDbEntity
  8
ceco.net 437 - Tesla 3 front view
100
AcDbLine
 10
764.2796491557501
 20
35.46616702312928
 30
0.0
 11
774.2796491557501
 21
55.46616702312928
 31
0.0
  0
LINE
  5
476
330
1F
100
AcDbEntity
  8
ceco.net 437 - Tesla 3 front view
100
AcDbLine
 10
774.2796491557501
 20
55.46616702312928
 30
0.0
 11
764.2796491557501
 21
75.46616702312928
 31
0.0
  0
LINE
  5
477
330
1F
100
AcDbEntity
  8
ceco.net 437 - Tesla 3 front view
100
AcDbLine
 10
764.2796491557501
 20
75.46616702312928
 30
0.0
 11
774.2796491557501
 21
95.46616702312929
 31
0.0
  0
LINE
  5
478
330
1F
100
AcDbEntity
  8
ceco.net 437 - Tesla 3 front view
100
AcDbLine
 10
774.2796491557501
 20
95.46616702312929
 30
0.0
 11
764.2796491557501
 21
115.4661670231292
 31
0.0
  0
LINE
  5
479
330
1F
100
AcDbEntity
  8
ceco.net 437 - Tesla 3 front view
100
AcDbLine
 10
764.2796491557501
 20
115.4661670231292
 30
0.0
 11
774.2796491557501
 21
135.4661670231292
 31
0.0
  0
LINE
  5
47A
330
1F
100
AcDbEntity
  8
ceco.net 437 - Tesla 3 front view
100
AcDbLine
 10
774.2796491557501
 20
135.4661670231292
 30
0.0
 11
764.2796491557501
 21
155.4661670231292
 31
0.0
  0
LINE
  5
47B
330
1F
100
AcDbEntity
  8
ceco.net 437 - Tesla 3 front view
100
AcDbLine
 10
764.2796491557501
 20
155.4661670231292
 30
0.0
 11
766.2946846440235
 21
159.4962379996759
 31
0.0
  0
LINE
  5
47C
330
1F
100
AcDbEntity
  8
ceco.net 437 - Tesla 3 front view
100
AcDbLine
 10
891.1268451504447
 20
0.0
 30
0.0
 11
883.3937616388803
 21
15.46616702312894
 31
0.0
  0
LINE
  5
47D
330
1F
100
AcDbEntity
  8
ceco.net 437 - Tesla 3 front view
100
AcDbLine
 10
883.3937616388803
 20
15.46616702312894
 30
0.0
 11
893.3937616388803
 21
35.46616702312894
 31
0.0
  0
LINE
  5
47E
330
1F
100
AcDbEntity
  8
ceco.net 437 - Tesla 3 front view
100
AcDbLine
 10
893.3937616388803
 20
35.46616702312894
 30
0.0
 11
883.3937616388803
 21
55.46616702312895
 31
0.0
  0
LINE
  5
47F
330
1F
100
AcDbEntity
  8
ceco.net 437 - Tesla 3 front view
100
AcDbLine
 10
883.3937616388803
 20
55.46616702312895
 30
0.0
 11
893.3937616388803
 21
75.46616702312895
 31
0.0
  0
LINE
  5
480
330
1F
100
AcDbEntity
  8
ceco.net 437 - Tesla 3 front view
100
AcDbLine
 10
893.3937616388803
 20
75.46616702312895
 30
0.0
 11
883.3937616388803
 21
95.46616702312894
 31
0.0
  0
LINE
  5
481
330
1F
100
AcDbEntity
  8
ceco.net 437 - Tesla 3 front view
100
AcDbLine
 10
883.3937616388803
 20
95.46616702312894
 30
0.0
 11
893.3937616388803
 21
115.4661670231289
 31
0.0
  0
LINE
  5
482
330
1F
100
AcDbEntity
  8
ceco.net 437 - Tesla 3 front view
100
AcDbLine
 10
893.3937616388803
 20
115.4661670231289
 30
0.0
 11
883.3937616388803
 21
135.4661670231289
 31
0.0
  0
LINE
  5
483
330
1F
100
AcDbEntity
  8
ceco.net 437 - Tesla 3 front view
100
AcDbLine
 10
883.3937616388803
 20
135.4661670231289
 30
0.0
 11
893.3937616388803
 21
155.4661670231289
 31
0.0
  0
LINE
  5
484
330
1F
100
AcDbEntity
  8
ceco.net 437 - Tesla 3 front view
100
AcDbLine
 10
893.3937616388803
 20
155.4661670231289
 30
0.0
 11
883.3937616388803
 21
175.4661670231289
 31
0.0
  0
LINE
  5
485
330
1F
100
AcDbEntity
  8
ceco.net 437 - Tesla 3 front view
100
AcDbLine
 10
881.1268451504448
 20
0.0
 30
0.0
 11
873.3937616388802
 21
15.46616702312894
 31
0.0
  0
LINE
  5
486
330
1F
100
AcDbEntity
  8
ceco.net 437 - Tesla 3 front view
100
AcDbLine
 10
873.3937616388802
 20
15.46616702312894
 30
0.0
 11
883.3937616388803
 21
35.46616702312894
 31
0.0
  0
LINE
  5
487
330
1F
100
AcDbEntity
  8
ceco.net 437 - Tesla 3 front view
100
AcDbLine
 10
883.3937616388803
 20
35.46616702312894
 30
0.0
 11
873.3937616388802
 21
55.46616702312895
 31
0.0
  0
LINE
  5
488
330
1F
100
AcDbEntity
  8
ceco.net 437 - Tesla 3 front view
100
AcDbLine
 10
873.3937616388802
 20
55.46616702312895
 30
0.0
 11
883.3937616388803
 21
75.46616702312895
 31
0.0
  0
LINE
  5
489
330
1F
100
AcDbEntity
  8
ceco.net 437 - Tesla 3 front view
100
AcDbLine
 10
883.3937616388803
 20
75.46616702312895
 30
0.0
 11
873.3937616388802
 21
95.46616702312894
 31
0.0
  0
LINE
  5
48A
330
1F
100
AcDbEntity
  8
ceco.net 437 - Tesla 3 front view
100
AcDbLine
 10
873.3937616388802
 20
95.46616702312894
 30
0.0
 11
883.3937616388803
 21
115.4661670231289
 31
0.0
  0
LINE
  5
48B
330
1F
100
AcDbEntity
  8
ceco.net 437 - Tesla 3 front view
100
AcDbLine
 10
883.3937616388803
 20
115.4661670231289
 30
0.0
 11
873.3937616388802
 21
135.4661670231289
 31
0.0
  0
LINE
  5
48C
330
1F
100
AcDbEntity
  8
ceco.net 437 - Tesla 3 front view
100
AcDbLine
 10
873.3937616388802
 20
135.4661670231289
 30
0.0
 11
883.3937616388803
 21
155.4661670231289
 31
0.0
  0
LINE
  5
48D
330
1F
100
AcDbEntity
  8
ceco.net 437 - Tesla 3 front view
100
AcDbLine
 10
883.3937616388803
 20
155.4661670231289
 30
0.0
 11
873.3937616388802
 21
175.4661670231289
 31
0.0
  0
LINE
  5
48E
330
1F
100
AcDbEntity
  8
ceco.net 437 - Tesla 3 front view
100
AcDbLine
 10
841.1268451504447
 20
0.0
 30
0.0
 11
833.3937616388803
 21
15.46616702312905
 31
0.0
  0
LINE
  5
48F
330
1F
100
AcDbEntity
  8
ceco.net 437 - Tesla 3 front view
100
AcDbLine
 10
833.3937616388803
 20
15.46616702312905
 30
0.0
 11
843.3937616388803
 21
35.46616702312906
 31
0.0
  0
LINE
  5
490
330
1F
100
AcDbEntity
  8
ceco.net 437 - Tesla 3 front view
100
AcDbLine
 10
843.3937616388803
 20
35.46616702312906
 30
0.0
 11
833.3937616388803
 21
55.46616702312906
 31
0.0
  0
LINE
  5
491
330
1F
100
AcDbEntity
  8
ceco.net 437 - Tesla 3 front view
100
AcDbLine
 10
833.3937616388803
 20
55.46616702312906
 30
0.0
 11
843.3937616388803
 21
75.46616702312906
 31
0.0
  0
LINE
  5
492
330
1F
100
AcDbEntity
  8
ceco.net 437 - Tesla 3 front view
100
AcDbLine
 10
843.3937616388803
 20
75.46616702312906
 30
0.0
 11
833.3937616388803
 21
95.46616702312906
 31
0.0
  0
LINE
  5
493
330
1F
100
AcDbEntity
  8
ceco.net 437 - Tesla 3 front view
100
AcDbLine
 10
833.3937616388803
 20
95.46616702312906
 30
0.0
 11
843.3937616388803
 21
115.466167023129
 31
0.0
  0
LINE
  5
494
330
1F
100
AcDbEntity
  8
ceco.net 437 - Tesla 3 front view
100
AcDbLine
 10
843.3937616388803
 20
115.466167023129
 30
0.0
 11
833.3937616388803
 21
135.466167023129
 31
0.0
  0
LINE
  5
495
330
1F
100
AcDbEntity
  8
ceco.net 437 - Tesla 3 front view
100
AcDbLine
 10
833.3937616388803
 20
135.466167023129
 30
0.0
 11
843.3937616388803
 21
155.466167023129
 31
0.0
  0
LINE
  5
496
330
1F
100
AcDbEntity
  8
ceco.net 437 - Tesla 3 front view
100
AcDbLine
 10
843.3937616388803
 20
155.466167023129
 30
0.0
 11
840.8562954058007
 21
160.5410994892886
 31
0.0
  0
LINE
  5
497
330
1F
100
AcDbEntity
  8
ceco.net 437 - Tesla 3 front view
100
AcDbLine
 10
831.1268451504448
 20
0.0
 30
0.0
 11
823.3937616388802
 21
15.46616702312905
 31
0.0
  0
LINE
  5
498
330
1F
100
AcDbEntity
  8
ceco.net 437 - Tesla 3 front view
100
AcDbLine
 10
823.3937616388802
 20
15.46616702312905
 30
0.0
 11
833.3937616388803
 21
35.46616702312906
 31
0.0
  0
LINE
  5
499
330
1F
100
AcDbEntity
  8
ceco.net 437 - Tesla 3 front view
100
AcDbLine
 10
833.3937616388803
 20
35.46616702312906
 30
0.0
 11
823.3937616388802
 21
55.46616702312906
 31
0.0
  0
LINE
  5
49A
330
1F
100
AcDbEntity
  8
ceco.net 437 - Tesla 3 front view
100
AcDbLine
 10
823.3937616388802
 20
55.46616702312906
 30
0.0
 11
833.3937616388803
 21
75.46616702312906
 31
0.0
  0
LINE
  5
49B
330
1F
100
AcDbEntity
  8
ceco.net 437 - Tesla 3 front view
100
AcDbLine
 10
833.3937616388803
 20
75.46616702312906
 30
0.0
 11
823.3937616388802
 21
95.46616702312906
 31
0.0
  0
LINE
  5
49C
330
1F
100
AcDbEntity
  8
ceco.net 437 - Tesla 3 front view
100
AcDbLine
 10
823.3937616388802
 20
95.46616702312906
 30
0.0
 11
833.3937616388803
 21
115.466167023129
 31
0.0
  0
LINE
  5
49D
330
1F
100
AcDbEntity
  8
ceco.net 437 - Tesla 3 front view
100
AcDbLine
 10
833.3937616388803
 20
115.466167023129
 30
0.0
 11
823.3937616388802
 21
135.466167023129
 31
0.0
  0
LINE
  5
49E
330
1F
100
AcDbEntity
  8
ceco.net 437 - Tesla 3 front view
100
AcDbLine
 10
823.3937616388802
 20
135.466167023129
 30
0.0
 11
833.3937616388803
 21
155.466167023129
 31
0.0
  0
LINE
  5
49F
330
1F
100
AcDbEntity
  8
ceco.net 437 - Tesla 3 front view
100
AcDbLine
 10
833.3937616388803
 20
155.466167023129
 30
0.0
 11
831.582118142006
 21
159.0894540168777
 31
0.0
  0
LINE
  5
4A0
330
1F
100
AcDbEntity
  8
ceco.net 437 - Tesla 3 front view
100
AcDbLine
 10
883.3937616388803
 20
175.4661670231289
 30
0.0
 11
893.3937616388803
 21
195.4661670231289
 31
0.0
  0
LINE
  5
4A1
330
1F
100
AcDbEntity
  8
ceco.net 437 - Tesla 3 front view
100
AcDbLine
 10
893.3937616388803
 20
195.4661670231289
 30
0.0
 11
889.8254085929465
 21
202.6028731149951
 31
0.0
  0
LINE
  5
4A2
330
1F
100
AcDbEntity
  8
ceco.net 437 - Tesla 3 front view
100
AcDbLine
 10
873.3937616388802
 20
175.4661670231289
 30
0.0
 11
878.8081312570348
 21
186.294906259439
 31
0.0
  0
VIEWPORT
  5
91
330
8A
100
AcDbEntity
 67
     1
  8
0
100
AcDbViewport
 10
143.4359283447265
 20
99.95958042144776
 30
0.0
 40
501.404998163417
 41
222.1517806396484
 68
     2
 69
     1
 12
143.4359283447265
 22
99.95958042144776
 13
0.0
 23
0.0
 14
10.0
 24
10.0
 15
10.0
 25
10.0
 16
0.0
 26
0.0
 36
1.0
 17
0.0
 27
0.0
 37
0.0
 42
50.0
 43
0.0
 44
0.0
 45
222.1517806396484
 50
0.0
 51
0.0
 72
   100
 90
    32800
  1

281
     0
 71
     1
 74
     0
110
0.0
120
0.0
130
0.0
111
1.0
121
0.0
131
0.0
112
0.0
122
1.0
132
0.0
 79
     0
146
0.0
  0
VIEWPORT
  5
93
330
8A
100
AcDbEntity
 67
     1
  8
0
100
AcDbViewport
 10
143.4359202384948
 20
99.95957994461059
 30
0.0
 40
229.4974723815918
 41
159.9353279113769
 68
     1
 69
     2
 12
148.4999999999999
 22
105.0
 13
0.0
 23
0.0
 14
10.0
 24
10.0
 15
10.0
 25
10.0
 16
0.0
 26
0.0
 36
1.0
 17
0.0
 27
0.0
 37
0.0
 42
50.0
 43
0.0
 44
0.0
 45
212.1428571428571
 50
0.0
 51
0.0
 72
   100
 90
    33376
  1

281
     0
 71
     1
 74
     0
110
0.0
120
0.0
130
0.0
111
1.0
121
0.0
131
0.0
112
0.0
122
1.0
132
0.0
 79
     0
146
0.0
  0
ENDSEC
  0
SECTION
  2
OBJECTS
  0
DICTIONARY
  5
C
330
0
100
AcDbDictionary
281
     1
  3
ACAD_GROUP
350
D
  3
ACAD_IMAGE_DICT
350
17B
  3
ACAD_LAYOUT
350
1A
  3
ACAD_MLINESTYLE
350
17
  3
ACAD_PLOTSETTINGS
350
19
  3
ACAD_PLOTSTYLENAME
350
E
  3
AcDbVariableDictionary
350
5E
  0
DICTIONARY
  5
AF
330
2
100
AcDbDictionary
280
     1
281
     1
  3
ACAD_LAYERFILTERS
360
246
  3
ACAD_LAYERSTATES
360
B0
  0
DICTIONARY
  5
2D6
330
2D5
100
AcDbDictionary
280
     1
281
     1
  3
ACAD_XREC_ROUNDTRIP
360
2D7
  3
ADSK_XREC_LAYER_RECONCILED
360
2D8
  0
DICTIONARY
  5
D
102
{ACAD_REACTORS
330
C
102
}
330
C
100
AcDbDictionary
281
     1
  0
DICTIONARY
  5
17B
102
{ACAD_REACTORS
330
C
102
}
330
C
100
AcDbDictionary
281
     1
  3
Tesla-Motors-Logo-Stencil
350
17C
  3
Tesla_Motors_Logo.svg
350
17D
  0
DICTIONARY
  5
1A
102
{ACAD_REACTORS
330
C
102
}
330
C
100
AcDbDictionary
281
     1
  3
Model
350
22
  3
www.ceco.net
350
8B
  0
DICTIONARY
  5
17
102
{ACAD_REACTORS
330
C
102
}
330
C
100
AcDbDictionary
281
     1
  3
Standard
350
18
  0
DICTIONARY
  5
19
102
{ACAD_REACTORS
330
C
102
}
330
C
100
AcDbDictionary
281
     1
  0
ACDBDICTIONARYWDFLT
  5
E
102
{ACAD_REACTORS
330
C
102
}
330
C
100
AcDbDictionary
281
     1
  3
Normal
350
F
100
AcDbDictionaryWithDefault
340
F
  0
DICTIONARY
  5
5E
102
{ACAD_REACTORS
330
C
102
}
330
C
100
AcDbDictionary
281
     1
  3
DIMASSOC
350
5F
  3
HIDETEXT
350
63
  0
DICTIONARY
  5
246
102
{ACAD_REACTORS
330
AF
102
}
330
AF
100
AcDbDictionary
280
     1
281
     1
  0
DICTIONARY
  5
B0
102
{ACAD_REACTORS
330
AF
102
}
330
AF
100
AcDbDictionary
281
     1
  0
XRECORD
  5
2D7
102
{ACAD_REACTORS
330
2D6
102
}
330
2D6
100
AcDbXrecord
280
     1
102
MATERIAL
340
0
  0
XRECORD
  5
2D8
102
{ACAD_REACTORS
330
2D6
102
}
330
2D6
100
AcDbXrecord
280
     1
290
     1
  0
IMAGEDEF
  5
17C
102
{ACAD_REACTORS
330
17B
102
}
330
17B
100
AcDbRasterImageDef
 90
        0
  1
C:\Users\peter\Desktop\auxiliar\Tesla-Motors-Logo-Stencil.jpg
 10
850.0
 20
1100.0
 11
0.0011764705882353
 21
0.0011764705882353
280
     1
281
     0
  0
IMAGEDEF
  5
17D
102
{ACAD_REACTORS
330
17B
102
}
330
17B
100
AcDbRasterImageDef
 90
        0
  1
C:\Users\peter\Desktop\auxiliar\Tesla_Motors_Logo.svg.png
 10
2000.0
 20
261.0
 11
0.0005
 21
0.0005
280
     1
281
     0
  0
LAYOUT
  5
22
102
{ACAD_REACTORS
330
1A
102
}
330
1A
100
AcDbPlotSettings
  1

  2
none_device
  4
ANSI_A_(8.50_x_11.00_Inches)
  6

 40
6.349999904632568
 41
19.04999923706054
 42
6.350006103515625
 43
19.04998779296875
 44
215.8999938964843
 45
279.3999938964843
 46
0.0
 47
0.0
 48
0.0
 49
0.0
140
0.0
141
0.0
142
1.0
143
78.436453180766
 70
 11952
 72
     0
 73
     1
 74
     0
  7

 75
     0
147
0.0127491741332998
148
0.0
149
0.0
100
AcDbLayout
  1
Model
 70
     1
 71
     0
 10
0.0
 20
0.0
 11
12.0
 21
9.0
 12
0.0
 22
0.0
 32
0.0
 14
0.0
 24
0.0
 34
0.0
 15
0.0
 25
0.0
 35
0.0
146
0.0
 13
0.0
 23
0.0
 33
0.0
 16
1.0
 26
0.0
 36
0.0
 17
0.0
 27
1.0
 37
0.0
 76
     0
330
1F
  0
LAYOUT
  5
8B
102
{ACAD_REACTORS
330
1A
102
}
330
1A
100
AcDbPlotSettings
  1

  2
Brother HL-L2360D series Printer
  4
A4
  6

 40
5.027083396911621
 41
5.027085304260253
 42
5.027084350585937
 43
5.027069091796875
 44
209.9733276367187
 45
296.9259948730469
 46
0.0
 47
0.0
 48
0.0
 49
0.0
140
0.0
141
0.0
142
1.0
143
1.0
 70
   688
 72
     1
 73
     1
 74
     5
  7

 75
    16
147
1.0
148
0.0
149
0.0
100
AcDbLayout
  1
www.ceco.net
 70
     1
 71
     1
 10
-5.027069091796875
 20
-5.027083396911621
 11
291.89892578125
 21
204.9462442398071
 12
0.0
 22
0.0
 32
0.0
 14
28.68718404769896
 24
19.99191598892213
 34
0.0
 15
258.1846564292908
 25
179.927243900299
 35
0.0
146
0.0
 13
0.0
 23
0.0
 33
0.0
 16
1.0
 26
0.0
 36
0.0
 17
0.0
 27
1.0
 37
0.0
 76
     0
330
8A
331
93
  0
MLINESTYLE
  5
18
102
{ACAD_REACTORS
330
17
102
}
330
17
100
AcDbMlineStyle
  2
STANDARD
 70
     0
  3

 62
   256
 51
90.0
 52
90.0
 71
     2
 49
0.5
 62
   256
  6
BYLAYER
 49
-0.5
 62
   256
  6
BYLAYER
  0
ACDBPLACEHOLDER
  5
F
102
{ACAD_REACTORS
330
E
102
}
330
E
  0
DICTIONARYVAR
  5
5F
102
{ACAD_REACTORS
330
5E
102
}
330
5E
100
DictionaryVariables
280
     0
  1
2
  0
DICTIONARYVAR
  5
63
102
{ACAD_REACTORS
330
5E
102
}
330
5E
100
DictionaryVariables
280
     0
  1
1
  0
ENDSEC
  0
EOF
