  0
SECTION
  2
HEADER
  9
$ACADVER
  1
AC1015
  9
$ACADMAINTVER
 70
    13
  9
$DWGCODEPAGE
  3
ANSI_1252
  9
$INSBASE
 10
0.0
 20
0.0
 30
0.0
  9
$EXTMIN
 10
-1.830257445744109
 20
-1.797811976974344
 30
-0.0015258207003583
  9
$EXTMAX
 10
1.838223023575665
 20
1.872586397662644
 30
0.0000000349246037
  9
$LIMMIN
 10
0.0
 20
0.0
  9
$LIMMAX
 10
420.0
 20
297.0
  9
$ORTHOMODE
 70
     0
  9
$REGENMODE
 70
     1
  9
$FILLMODE
 70
     1
  9
$QTEXTMODE
 70
     0
  9
$MIRRTEXT
 70
     1
  9
$LTSCALE
 40
1.0
  9
$ATTMODE
 70
     1
  9
$TEXTSIZE
 40
2.5
  9
$TRACEWID
 40
1.0
  9
$TEXTSTYLE
  7
Standard
  9
$CLAYER
  8
ceco.net 74
  9
$CELTYPE
  6
ByLayer
  9
$CECOLOR
 62
   256
  9
$CELTSCALE
 40
1.0
  9
$DISPSILH
 70
     0
  9
$DIMSCALE
 40
1.0
  9
$DIMASZ
 40
2.5
  9
$DIMEXO
 40
0.625
  9
$DIMDLI
 40
3.75
  9
$DIMRND
 40
0.0
  9
$DIMDLE
 40
0.0
  9
$DIMEXE
 40
1.25
  9
$DIMTP
 40
0.0
  9
$DIMTM
 40
0.0
  9
$DIMTXT
 40
2.5
  9
$DIMCEN
 40
2.5
  9
$DIMTSZ
 40
0.0
  9
$DIMTOL
 70
     0
  9
$DIMLIM
 70
     0
  9
$DIMTIH
 70
     0
  9
$DIMTOH
 70
     0
  9
$DIMSE1
 70
     0
  9
$DIMSE2
 70
     0
  9
$DIMTAD
 70
     1
  9
$DIMZIN
 70
     8
  9
$DIMBLK
  1

  9
$DIMASO
 70
     1
  9
$DIMSHO
 70
     1
  9
$DIMPOST
  1

  9
$DIMAPOST
  1

  9
$DIMALT
 70
     0
  9
$DIMALTD
 70
     3
  9
$DIMALTF
 40
0.03937007874016
  9
$DIMLFAC
 40
1.0
  9
$DIMTOFL
 70
     1
  9
$DIMTVP
 40
0.0
  9
$DIMTIX
 70
     0
  9
$DIMSOXD
 70
     0
  9
$DIMSAH
 70
     0
  9
$DIMBLK1
  1

  9
$DIMBLK2
  1

  9
$DIMSTYLE
  2
ISO-25
  9
$DIMCLRD
 70
     0
  9
$DIMCLRE
 70
     0
  9
$DIMCLRT
 70
     0
  9
$DIMTFAC
 40
1.0
  9
$DIMGAP
 40
0.625
  9
$DIMJUST
 70
     0
  9
$DIMSD1
 70
     0
  9
$DIMSD2
 70
     0
  9
$DIMTOLJ
 70
     0
  9
$DIMTZIN
 70
     8
  9
$DIMALTZ
 70
     0
  9
$DIMALTTZ
 70
     0
  9
$DIMUPT
 70
     0
  9
$DIMDEC
 70
     2
  9
$DIMTDEC
 70
     2
  9
$DIMALTU
 70
     2
  9
$DIMALTTD
 70
     3
  9
$DIMTXSTY
  7
Standard
  9
$DIMAUNIT
 70
     0
  9
$DIMADEC
 70
     0
  9
$DIMALTRND
 40
0.0
  9
$DIMAZIN
 70
     0
  9
$DIMDSEP
 70
    44
  9
$DIMATFIT
 70
     3
  9
$DIMFRAC
 70
     0
  9
$DIMLDRBLK
  1

  9
$DIMLUNIT
 70
     2
  9
$DIMLWD
 70
    -2
  9
$DIMLWE
 70
    -2
  9
$DIMTMOVE
 70
     0
  9
$LUNITS
 70
     2
  9
$LUPREC
 70
     2
  9
$SKETCHINC
 40
1.0
  9
$FILLETRAD
 40
10.0
  9
$AUNITS
 70
     0
  9
$AUPREC
 70
     0
  9
$MENU
  1
.
  9
$ELEVATION
 40
0.0
  9
$PELEVATION
 40
0.0
  9
$THICKNESS
 40
0.0
  9
$LIMCHECK
 70
     0
  9
$CHAMFERA
 40
10.0
  9
$CHAMFERB
 40
10.0
  9
$CHAMFERC
 40
20.0
  9
$CHAMFERD
 40
0.0
  9
$SKPOLY
 70
     0
  9
$TDCREATE
 40
2455079.811409143
  9
$TDUCREATE
 40
2455079.936409144
  9
$TDUPDATE
 40
2455839.498857916
  9
$TDUUPDATE
 40
2455839.623857916
  9
$TDINDWG
 40
0.0565762847
  9
$TDUSRTIMER
 40
0.0565762847
  9
$USRTIMER
 70
     1
  9
$ANGBASE
 50
0.0
  9
$ANGDIR
 70
     0
  9
$PDMODE
 70
     0
  9
$PDSIZE
 40
0.0
  9
$PLINEWID
 40
0.0
  9
$SPLFRAME
 70
     0
  9
$SPLINETYPE
 70
     6
  9
$SPLINESEGS
 70
     8
  9
$HANDSEED
  5
9DC
  9
$SURFTAB1
 70
     6
  9
$SURFTAB2
 70
     6
  9
$SURFTYPE
 70
     6
  9
$SURFU
 70
     6
  9
$SURFV
 70
     6
  9
$UCSBASE
  2

  9
$UCSNAME
  2

  9
$UCSORG
 10
0.0
 20
0.0
 30
0.0
  9
$UCSXDIR
 10
1.0
 20
0.0
 30
0.0
  9
$UCSYDIR
 10
0.0
 20
1.0
 30
0.0
  9
$UCSORTHOREF
  2

  9
$UCSORTHOVIEW
 70
     0
  9
$UCSORGTOP
 10
0.0
 20
0.0
 30
0.0
  9
$UCSORGBOTTOM
 10
0.0
 20
0.0
 30
0.0
  9
$UCSORGLEFT
 10
0.0
 20
0.0
 30
0.0
  9
$UCSORGRIGHT
 10
0.0
 20
0.0
 30
0.0
  9
$UCSORGFRONT
 10
0.0
 20
0.0
 30
0.0
  9
$UCSORGBACK
 10
0.0
 20
0.0
 30
0.0
  9
$PUCSBASE
  2

  9
$PUCSNAME
  2

  9
$PUCSORG
 10
0.0
 20
0.0
 30
0.0
  9
$PUCSXDIR
 10
1.0
 20
0.0
 30
0.0
  9
$PUCSYDIR
 10
0.0
 20
1.0
 30
0.0
  9
$PUCSORTHOREF
  2

  9
$PUCSORTHOVIEW
 70
     0
  9
$PUCSORGTOP
 10
0.0
 20
0.0
 30
0.0
  9
$PUCSORGBOTTOM
 10
0.0
 20
0.0
 30
0.0
  9
$PUCSORGLEFT
 10
0.0
 20
0.0
 30
0.0
  9
$PUCSORGRIGHT
 10
0.0
 20
0.0
 30
0.0
  9
$PUCSORGFRONT
 10
0.0
 20
0.0
 30
0.0
  9
$PUCSORGBACK
 10
0.0
 20
0.0
 30
0.0
  9
$USERI1
 70
     0
  9
$USERI2
 70
     0
  9
$USERI3
 70
     0
  9
$USERI4
 70
     0
  9
$USERI5
 70
     0
  9
$USERR1
 40
0.0
  9
$USERR2
 40
0.0
  9
$USERR3
 40
0.0
  9
$USERR4
 40
0.0
  9
$USERR5
 40
0.0
  9
$WORLDVIEW
 70
     1
  9
$SHADEDGE
 70
     3
  9
$SHADEDIF
 70
    70
  9
$TILEMODE
 70
     1
  9
$MAXACTVP
 70
    64
  9
$PINSBASE
 10
0.0
 20
0.0
 30
0.0
  9
$PLIMCHECK
 70
     0
  9
$PEXTMIN
 10
1.000000000000000E+20
 20
1.000000000000000E+20
 30
1.000000000000000E+20
  9
$PEXTMAX
 10
-1.000000000000000E+20
 20
-1.000000000000000E+20
 30
-1.000000000000000E+20
  9
$PLIMMIN
 10
0.0
 20
0.0
  9
$PLIMMAX
 10
420.0
 20
297.0
  9
$UNITMODE
 70
     0
  9
$VISRETAIN
 70
     1
  9
$PLINEGEN
 70
     0
  9
$PSLTSCALE
 70
     1
  9
$TREEDEPTH
 70
  3020
  9
$CMLSTYLE
  2
Standard
  9
$CMLJUST
 70
     0
  9
$CMLSCALE
 40
20.0
  9
$PROXYGRAPHICS
 70
     1
  9
$MEASUREMENT
 70
     1
  9
$CELWEIGHT
370
    -1
  9
$ENDCAPS
280
     0
  9
$JOINSTYLE
280
     0
  9
$LWDISPLAY
290
     0
  9
$INSUNITS
 70
     6
  9
$HYPERLINKBASE
  1

  9
$STYLESHEET
  1

  9
$XEDIT
290
     1
  9
$CEPSNTYPE
380
     0
  9
$PSTYLEMODE
290
     1
  9
$FINGERPRINTGUID
  2
{81085373-3A21-4932-80AA-8F6C3258C50C}
  9
$VERSIONGUID
  2
{C5ED981A-8E5B-4897-855D-6DE421D9D12E}
  9
$EXTNAMES
290
     1
  9
$PSVPSCALE
 40
0.0
  9
$OLESTARTUP
290
     0
  0
ENDSEC
  0
SECTION
  2
CLASSES
  0
CLASS
  1
ACDBDICTIONARYWDFLT
  2
AcDbDictionaryWithDefault
  3
AutoCAD 2000
 90
        0
280
     0
281
     0
  0
CLASS
  1
ACDBPLACEHOLDER
  2
AcDbPlaceHolder
  3
AutoCAD 2000
 90
        0
280
     0
281
     0
  0
CLASS
  1
LAYOUT
  2
AcDbLayout
  3
AutoCAD 2000
 90
        0
280
     0
281
     0
  0
CLASS
  1
DICTIONARYVAR
  2
AcDbDictionaryVar
  3
AutoCAD 2000
 90
        0
280
     0
281
     0
  0
ENDSEC
  0
SECTION
  2
TABLES
  0
TABLE
  2
VPORT
  5
8
330
0
100
AcDbSymbolTable
 70
     5
  0
VPORT
  5
9DB
330
8
100
AcDbSymbolTableRecord
100
AcDbViewportTableRecord
  2
*Active
 70
     0
 10
0.0
 20
0.0
 11
1.0
 21
1.0
 12
0.0039827889157782
 22
0.0373872103441499
 13
0.0
 23
0.0
 14
10.0
 24
10.0
 15
10.0
 25
10.0
 16
0.0
 26
0.0
 36
1.0
 17
0.0
 27
0.0
 37
0.0
 40
3.703514750949502
 41
2.295180722891566
 42
50.0
 43
0.0
 44
0.0
 50
0.0
 51
0.0
 71
     0
 72
   100
 73
     1
 74
     3
 75
     0
 76
     0
 77
     0
 78
     0
281
     0
 65
     1
110
0.0
120
0.0
130
0.0
111
1.0
121
0.0
131
0.0
112
0.0
122
1.0
132
0.0
 79
     0
146
0.0
  0
ENDTAB
  0
TABLE
  2
LTYPE
  5
5
330
0
100
AcDbSymbolTable
 70
     1
  0
LTYPE
  5
14
330
5
100
AcDbSymbolTableRecord
100
AcDbLinetypeTableRecord
  2
ByBlock
 70
     0
  3

 72
    65
 73
     0
 40
0.0
  0
LTYPE
  5
15
330
5
100
AcDbSymbolTableRecord
100
AcDbLinetypeTableRecord
  2
ByLayer
 70
     0
  3

 72
    65
 73
     0
 40
0.0
  0
LTYPE
  5
16
330
5
100
AcDbSymbolTableRecord
100
AcDbLinetypeTableRecord
  2
Continuous
 70
     0
  3
Solid line
 72
    65
 73
     0
 40
0.0
  0
ENDTAB
  0
TABLE
  2
LAYER
  5
2
330
0
100
AcDbSymbolTable
 70
     3
  0
LAYER
  5
10
330
2
100
AcDbSymbolTableRecord
100
AcDbLayerTableRecord
  2
0
 70
     0
 62
     7
  6
Continuous
370
    -3
390
F
  0
LAYER
  5
9A3
330
2
100
AcDbSymbolTableRecord
100
AcDbLayerTableRecord
  2
ceco.net 74
 70
     0
 62
     7
  6
Continuous
370
    -3
390
F
  0
ENDTAB
  0
TABLE
  2
STYLE
  5
3
330
0
100
AcDbSymbolTable
 70
     3
  0
STYLE
  5
11
330
3
100
AcDbSymbolTableRecord
100
AcDbTextStyleTableRecord
  2
Standard
 70
     0
 40
0.0
 41
1.0
 50
0.0
 71
     0
 42
2.5
  3
txt
  4

  0
ENDTAB
  0
TABLE
  2
VIEW
  5
6
330
0
100
AcDbSymbolTable
 70
     0
  0
ENDTAB
  0
TABLE
  2
UCS
  5
7
330
0
100
AcDbSymbolTable
 70
     0
  0
ENDTAB
  0
TABLE
  2
APPID
  5
9
330
0
100
AcDbSymbolTable
 70
     4
  0
APPID
  5
12
330
9
100
AcDbSymbolTableRecord
100
AcDbRegAppTableRecord
  2
ACAD
 70
     0
  0
APPID
  5
2C
330
9
100
AcDbSymbolTableRecord
100
AcDbRegAppTableRecord
  2
ACAD_DSTYLE_DIMJOGGED_JOGANGLE_SYMBOL
 70
     0
  0
APPID
  5
11B
330
9
100
AcDbSymbolTableRecord
100
AcDbRegAppTableRecord
  2
ACAD_NAV_VCDISPLAY
 70
     0
  0
APPID
  5
11C
330
9
100
AcDbSymbolTableRecord
100
AcDbRegAppTableRecord
  2
ACAD_MLEADERVER
 70
     0
  0
ENDTAB
  0
TABLE
  2
DIMSTYLE
  5
A
330
0
100
AcDbSymbolTable
 70
     3
100
AcDbDimStyleTable
 71
     0
  0
DIMSTYLE
105
27
330
A
100
AcDbSymbolTableRecord
100
AcDbDimStyleTableRecord
  2
ISO-25
 70
     0
 41
2.5
 42
0.625
 43
3.75
 44
1.25
 73
     0
 74
     0
 77
     1
 78
     8
140
2.5
141
2.5
143
0.03937007874016
147
0.625
171
     3
172
     1
271
     2
272
     2
274
     3
278
    44
283
     0
284
     8
340
11
  0
DIMSTYLE
105
2B
330
A
100
AcDbSymbolTableRecord
100
AcDbDimStyleTableRecord
  2
Standard
 70
     0
340
11
  0
ENDTAB
  0
TABLE
  2
BLOCK_RECORD
  5
1
330
0
100
AcDbSymbolTable
 70
     5
  0
BLOCK_RECORD
  5
1F
330
1
100
AcDbSymbolTableRecord
100
AcDbBlockTableRecord
  2
*Model_Space
340
22
  0
BLOCK_RECORD
  5
1B
330
1
100
AcDbSymbolTableRecord
100
AcDbBlockTableRecord
  2
*Paper_Space
340
1E
  0
BLOCK_RECORD
  5
23
330
1
100
AcDbSymbolTableRecord
100
AcDbBlockTableRecord
  2
*Paper_Space0
340
26
  0
ENDTAB
  0
ENDSEC
  0
SECTION
  2
BLOCKS
  0
BLOCK
  5
20
330
1F
100
AcDbEntity
  8
0
100
AcDbBlockBegin
  2
*Model_Space
 70
     0
 10
0.0
 20
0.0
 30
0.0
  3
*Model_Space
  1

  0
ENDBLK
  5
21
330
1F
100
AcDbEntity
  8
0
100
AcDbBlockEnd
  0
BLOCK
  5
1C
330
1B
100
AcDbEntity
 67
     1
  8
0
100
AcDbBlockBegin
  2
*Paper_Space
 70
     0
 10
0.0
 20
0.0
 30
0.0
  3
*Paper_Space
  1

  0
ENDBLK
  5
1D
330
1B
100
AcDbEntity
 67
     1
  8
0
100
AcDbBlockEnd
  0
BLOCK
  5
24
330
23
100
AcDbEntity
  8
0
100
AcDbBlockBegin
  2
*Paper_Space0
 70
     0
 10
0.0
 20
0.0
 30
0.0
  3
*Paper_Space0
  1

  0
ENDBLK
  5
25
330
23
100
AcDbEntity
  8
0
100
AcDbBlockEnd
  0
ENDSEC
  0
SECTION
  2
ENTITIES
  0
HATCH
  5
9C6
330
1F
100
AcDbEntity
  8
ceco.net 74
 62
    82
380
     1
100
AcDbHatch
 10
0.0
 20
0.0
 30
0.0
210
0.0
220
0.0
230
1.0
  2
ANSI31
 70
     0
 71
     0
 91
        2
 92
        7
 72
     1
 73
     1
 93
      152
 10
-0.2444221370518168
 20
1.65802377634308
 42
0.5046405816137185
 10
-0.3532270174472826
 20
1.627536735224011
 42
0.0
 10
-0.3421474052046683
 20
1.544801998427788
 42
0.0
 10
-0.3959098943383796
 20
1.478476051100304
 42
0.0
 10
-0.449400550478973
 20
1.493229493254202
 42
0.0
 10
-0.4475769823646794
 20
1.553223418681155
 42
0.0
 10
-0.4847891549128872
 20
1.584144510838258
 42
0.0
 10
-0.5400490125691223
 20
1.55511990546153
 42
0.0
 10
-0.5933540832256012
 20
1.411968676355549
 42
0.0
 10
-0.5703064322442568
 20
1.312479429584892
 42
0.0
 10
-0.4836518190961144
 20
1.245345470713604
 42
0.0
 10
-0.4385847754093346
 20
1.257186876449106
 42
0.0
 10
-0.28266541723098
 20
1.467944968023623
 42
0.0
 10
-0.2166674942565246
 20
1.461204944604592
 42
0.0
 10
-0.1360604306919377
 20
1.527335789812864
 42
0.0
 10
-0.065849297675465
 20
1.54738922975845
 42
0.0
 10
0.0083935350633895
 20
1.478599466984335
 42
0.0
 10
0.0052809287462735
 20
1.355771043153239
 42
0.0
 10
0.0563955220166088
 20
1.23434764480918
 42
0.0
 10
0.1292635619165729
 20
1.21978033620382
 42
0.0
 10
0.2213208203569904
 20
1.272865706101535
 42
0.0
 10
0.2517323840564792
 20
1.248748323103041
 42
0.0
 10
0.3087484612751874
 20
1.266008209527311
 42
-0.1342797468875949
 10
0.704372818920364
 20
0.3933334908860894
 42
-0.5417265781678362
 10
0.6818346401165957
 20
0.372897104305844
 42
0.0
 10
0.631917537813159
 20
0.3859843662273124
 42
0.0
 10
0.6054594234021367
 20
0.3899738097011892
 42
0.0
 10
0.5846842748230412
 20
0.3900720510540839
 42
0.0
 10
0.5686002687206946
 20
0.3870852267276537
 42
0.0
 10
0.5562155817400989
 20
0.3818194731635618
 42
0.0
 10
0.5465383905261702
 20
0.3750809268034994
 42
0.0
 10
0.5385768717238048
 20
0.3676757240890773
 42
0.0
 10
0.5313392019779004
 20
0.3604100014619412
 42
0.0
 10
0.5240388970821322
 20
0.3539217295938173
 42
0.0
 10
0.5167108294248564
 20
0.3481762160763244
 42
0.0
 10
0.5095952105430194
 20
0.3429706027309793
 42
0.0
 10
0.502932251973766
 20
0.3381020313794994
 42
0.0
 10
0.4969621652540713
 20
0.3333676438434303
 42
0.0
 10
0.491925161921023
 20
0.3285645819444321
 42
0.0
 10
0.4880614535116415
 20
0.3234899875040893
 42
0.0
 10
0.4856112515629478
 20
0.3179410023440215
 42
0.0
 10
0.4847214442080029
 20
0.3117656518574833
 42
0.0
 10
0.4851656259637015
 20
0.3050154957243142
 42
0.0
 10
0.4866240679429125
 20
0.297792977195983
 42
0.0
 10
0.4887770412586022
 20
0.2902005395239493
 42
0.0
 10
0.491304817023636
 20
0.2823406259597256
 42
0.0
 10
0.4938876663508488
 20
0.2743156797548749
 42
0.0
 10
0.4962058603533748
 20
0.2662281441604668
 42
0.0
 10
0.4979396701437996
 20
0.2581804624285875
 42
0.0
 10
0.4988635452830274
 20
0.2502602551943532
 42
0.0
 10
0.4991286491230171
 20
0.242495852629178
 42
0.0
 10
0.4989803234635814
 20
0.2349007622885733
 42
0.0
 10
0.4986639101045287
 20
0.2274884917278306
 42
0.0
 10
0.4984247508455601
 20
0.2202725485026449
 42
0.0
 10
0.4985081874866668
 20
0.2132664401680073
 42
0.0
 10
0.4991595618275379
 20
0.2064836742795941
 42
0.0
 10
0.5006242156680604
 20
0.1999377583927561
 42
0.0
 10
0.5030800821701952
 20
0.1936431572741852
 42
0.0
 10
0.5064354599448157
 20
0.1876181645355228
 42
0.0
 10
0.5105312389650348
 20
0.1818820309997036
 42
0.0
 10
0.5152083092038736
 20
0.1764540074896637
 42
0.0
 10
0.5203075606345027
 20
0.171353344828281
 42
0.0
 10
0.525669883229916
 20
0.1665992938384982
 42
0.0
 10
0.531136166963124
 20
0.1622111053433819
 42
0.0
 10
0.5365473018073934
 20
0.1582080301656514
 42
0.0
 10
0.5417846908271934
 20
0.1546275557889543
 42
0.0
 10
0.5468917894540353
 20
0.1515801163395352
 42
0.0
 10
0.5519525662110345
 20
0.1491943826039423
 42
0.0
 10
0.557050989621035
 20
0.1475990253690961
 42
0.0
 10
0.5622710282071026
 20
0.1469227154217773
 42
0.0
 10
0.5676966504922197
 20
0.1472941235487162
 42
0.0
 10
0.5734118249994149
 20
0.1488419205367169
 42
0.0
 10
0.5795005202516773
 20
0.1516947771725362
 42
0.0
 10
0.5860917267737404
 20
0.1559354973605059
 42
0.0
 10
0.5934945230970945
 20
0.161463417475054
 42
0.0
 10
0.6020630097550156
 20
0.1681320070082302
 42
0.0
 10
0.6121512872801742
 20
0.1757947354516488
 42
0.0
 10
0.6241134562062687
 20
0.1843050722976049
 42
0.0
 10
0.6383036170663236
 20
0.193516487037996
 42
0.0
 10
0.6550758703935678
 20
0.2032824491647981
 42
0.0
 10
0.6977539872915049
 20
0.2253139303927865
 42
-0.5431042967910278
 10
0.7242153589380851
 20
0.2102149572357252
 42
-0.022198954341821
 10
0.7262806509055063
 20
0.0490488847033208
 42
0.1001919703254641
 10
0.9227391206710771
 20
0.7423367557194746
 42
0.0
 10
0.9206900272746857
 20
0.742993698195074
 42
0.0
 10
0.916683279221856
 20
0.7438938847763059
 42
0.0
 10
0.9128312181419209
 20
0.7445467471049547
 42
0.0
 10
0.9091996668765101
 20
0.7451178338745275
 42
0.0
 10
0.9058544482659533
 20
0.7457726937796167
 42
0.0
 10
0.9028613851512929
 20
0.7466768755140927
 42
0.0
 10
0.9002863003734209
 20
0.747995927772112
 42
0.0
 10
0.8981950167731659
 20
0.7498953992477469
 42
0.0
 10
0.8966414204315084
 20
0.7524996306869918
 42
0.0
 10
0.8956316503895097
 20
0.7557681310436805
 42
0.0
 10
0.8951599089282737
 20
0.7596192013236737
 42
0.0
 10
0.8952203983288528
 20
0.7639711425326529
 42
0.0
 10
0.895807320872378
 20
0.7687422556764724
 42
0.0
 10
0.8969148788399925
 20
0.7738508417610404
 42
0.0
 10
0.8985372745126824
 20
0.7792152017919977
 42
0.0
 10
0.9006687101716588
 20
0.7847536367751787
 42
0.0
 10
0.9032836259700436
 20
0.7903881899917256
 42
0.0
 10
0.9062774135496594
 20
0.7960558738242615
 42
0.0
 10
0.909525702424448
 20
0.8016974429307513
 42
0.0
 10
0.9129041221081378
 20
0.8072536519690206
 42
0.0
 10
0.9162883021150189
 20
0.8126652555974398
 42
0.0
 10
0.9195538719580749
 20
0.8178730084727639
 42
0.0
 10
0.922576461151972
 20
0.8228176652540614
 42
0.0
 10
0.9252316992103953
 20
0.8274399805988906
 42
0.0
 10
0.9274358293125329
 20
0.8317026872012746
 42
0.0
 10
0.9292675492986594
 20
0.8356564298988924
 42
0.0
 10
0.9308461706744301
 20
0.8393738315657113
 42
0.0
 10
0.9322910049456025
 20
0.8429275150757947
 42
0.0
 10
0.9337213636169007
 20
0.8463901033017435
 42
0.0
 10
0.9352565581949095
 20
0.8498342191185932
 42
0.0
 10
0.9370159001848405
 20
0.8533324853998006
 42
0.0
 10
0.9391187010923061
 20
0.8569575250191018
 42
0.0
 10
1.031904158078405
 20
0.9584077008039413
 42
0.0
 10
1.035239582722084
 20
0.962265720624185
 42
0.0
 10
1.039598294601763
 20
0.9660596365237756
 42
0.0
 10
1.045260552123862
 20
0.9696576984364016
 42
0.0
 10
1.05250661369489
 20
0.9729281562958378
 42
0.0
 10
1.061616737721241
 20
0.9757392600357437
 42
0.0
 10
1.072871182609383
 20
0.9779592595898817
 42
0.0
 10
1.08655020676575
 20
0.9794564048919236
 42
0.0563879878528493
 10
0.8221992876070089
 20
1.392795281610003
 42
0.0
 10
0.5608784406178037
 20
1.204953008649007
 42
0.0
 10
0.526232669533052
 20
1.165805796421555
 42
0.0
 10
0.4810659781784796
 20
1.182589053589075
 42
0.0
 10
0.498279241137561
 20
1.347850399008382
 42
0.0
 10
0.4710648121003054
 20
1.394314930472521
 42
0.0
 10
0.5151343222408482
 20
1.40489003627663
 42
0.0
 10
0.5069693367349604
 20
1.453677479065761
 42
0.0
 10
0.5118427785987099
 20
1.486965125191484
 42
0.0
 10
0.5108263835525701
 20
1.538110337831787
 42
0.0
 10
0.6370216606713596
 20
1.593847520564176
 42
0.0285924839000197
 10
0.4473590006334404
 20
1.75576244610579
 42
0.8087036811191378
 10
0.3793354570513233
 20
1.692935468816367
 42
-0.3171145029224577
 10
0.3144086204678086
 20
1.60243485629533
 42
0.8616245048494258
 10
0.327193637749519
 20
1.545830017173384
 42
-0.7335825464444042
 10
0.352990769469586
 20
1.481002237949963
 42
0.0
 10
0.2727556249248249
 20
1.532087418618624
 42
0.0
 10
0.2348632144565511
 20
1.452916835991873
 42
0.0
 10
0.2004668429024661
 20
1.44492222647259
 42
0.0
 10
0.1701080582340653
 20
1.348859454031535
 42
0.0
 10
0.0874709029676807
 20
1.352556175653773
 42
0.0
 10
0.0573743034208019
 20
1.387550193245737
 42
0.0
 10
0.031801453169609
 20
1.616009504167484
 42
0.0
 10
-0.0147685159454019
 20
1.657570514286251
 42
0.0
 10
-0.058369327896647
 20
1.63659841560406
 42
0.0
 10
-0.0711515294905422
 20
1.577953622048154
 42
0.0
 10
-0.1266233387211318
 20
1.576614693214099
 42
0.0
 10
-0.1610711675246751
 20
1.650519793084818
 42
-0.2939130520217972
 97
        0
 92
        7
 72
     1
 73
     1
 93
      114
 10
0.0584598796455936
 20
-0.6992694687918388
 42
-0.1176921684285058
 10
-0.9383644341446752
 20
-0.8811598372723693
 42
0.0
 10
-0.9641680015951749
 20
-1.02784224696015
 42
0.0
 10
-0.9095064068110156
 20
-1.104856570115103
 42
0.0
 10
-0.9317661015640576
 20
-1.192619310572883
 42
0.0
 10
-1.171786462805543
 20
-1.271783556250052
 42
0.0
 10
-1.206711074699763
 20
-1.30721116913566
 42
0.0581404064913869
 10
-0.7663623027075721
 20
-1.556041042887338
 42
0.0
 10
-0.766032281093215
 20
-1.453380420510501
 42
0.0
 10
-0.7017785037534546
 20
-1.439083761308731
 42
0.0
 10
-0.6581035721449036
 20
-1.383304459920831
 42
0.0
 10
-0.6044387973923558
 20
-1.441457468742632
 42
0.0
 10
-0.5423028205700593
 20
-1.441650743145564
 42
0.0
 10
-0.5155702931009876
 20
-1.501790910595356
 42
0.0
 10
-0.5094831846345609
 20
-1.541157544551566
 42
0.0
 10
-0.5696345074823533
 20
-1.567892553929071
 42
0.0
 10
-0.6127869461204917
 20
-1.613948577664427
 42
0.0063683045515843
 10
-0.559854566320432
 20
-1.630917478740746
 42
0.0350183552087888
 10
-0.3225753052986081
 20
-1.540085949820746
 42
0.5080610491826072
 10
-0.3045264824655476
 20
-1.481564938315486
 42
-0.282007838847049
 10
-0.304726209091331
 20
-1.317998247242825
 42
-0.3319483222919831
 10
-0.2188763252864118
 20
-1.283582110287538
 42
0.5046405816137104
 10
-0.1306579401797802
 20
-1.212974191445199
 42
0.0
 10
-0.1732090451347807
 20
-1.141160558009097
 42
0.0
 10
-0.1496648546684758
 20
-1.059092247303758
 42
0.0
 10
-0.0946643918607698
 20
-1.051753075642286
 42
0.0
 10
-0.0728818513519473
 20
-1.107682651161711
 42
0.0
 10
-0.0265411443142289
 20
-1.121589433578532
 42
0.0
 10
0.0129680324529503
 20
-1.073266514206426
 42
0.0
 10
0.0025542981923196
 20
-0.8436163856291457
 42
0.0
 10
0.0439582760008687
 20
-0.7663400407473981
 42
0.0
 10
0.1250045816604691
 20
-0.7497852372086406
 42
0.0
 10
0.169990763459103
 20
-0.8399293191152715
 42
0.0
 10
0.1440114961491531
 20
-0.9036671813500998
 42
0.0
 10
0.193801256093119
 20
-0.9759499298401475
 42
0.0
 10
0.3227646561153914
 20
-0.9742679932526458
 42
0.3723405477462983
 10
0.3805893260435616
 20
-0.9607391653397675
 42
0.0871387694220034
 10
0.6562510627642919
 20
-0.396221331903651
 42
0.5293802227879128
 10
0.6370538827985839
 20
-0.3731187688299141
 42
0.0
 10
0.5932013646986747
 20
-0.3773542329202627
 42
0.0
 10
0.5817306935705866
 20
-0.3774751942014979
 42
0.0
 10
0.5722388093068364
 20
-0.376580321508985
 42
0.0
 10
0.5644781976410725
 20
-0.3748557318550715
 42
0.0
 10
0.5582013443069087
 20
-0.3724875422521598
 42
0.0
 10
0.5531607350379197
 20
-0.3696618697125505
 42
0.0
 10
0.5491088555678909
 20
-0.3665648312487022
 42
0.0
 10
0.5457981916303264
 20
-0.3633825438729125
 42
0.0
 10
0.5430005461850652
 20
-0.3602623092886375
 42
0.0
 10
0.5405649910967128
 20
-0.3571961679638929
 42
0.0
 10
0.5383599154560393
 20
-0.354137345057647
 42
0.0
 10
0.5362537083532956
 20
-0.3510390657280513
 42
0.0
 10
0.5341147588808857
 20
-0.3478545551368797
 42
0.0
 10
0.5318114561285743
 20
-0.3445370384413321
 42
0.0
 10
0.5292121891866176
 20
-0.3410397407998316
 42
0.0
 10
0.5261853471464476
 20
-0.3373158873723627
 42
0.0
 10
0.5226435603329805
 20
-0.3333319402766
 42
0.0
 10
0.51867642400748
 20
-0.3291073094646121
 42
0.0
 10
0.514417774665234
 20
-0.3246746418456923
 42
0.0
 10
0.5100014488041201
 20
-0.3200665843367906
 42
0.0
 10
0.5055612829173415
 20
-0.3153157838427476
 42
0.0
 10
0.5012311135013644
 20
-0.3104548872766816
 42
0.0
 10
0.4971447770520794
 20
-0.3055165415496694
 42
0.0
 10
0.4934361100649604
 20
-0.3005333935725156
 42
0.0
 10
0.490220364818385
 20
-0.295545782667417
 42
0.0
 10
0.487538456721352
 20
-0.2906248178008015
 42
0.0
 10
0.4854127169652087
 20
-0.2858493003497627
 42
0.0
 10
0.4838654767417426
 20
-0.2812980316921567
 42
0.0
 10
0.4829190672423142
 20
-0.2770498132050234
 42
0.0
 10
0.4825958196585879
 20
-0.2731834462660537
 42
0.0
 10
0.4829180651820558
 20
-0.2697777322525049
 42
0.0
 10
0.4839081350043057
 20
-0.2669114725418283
 42
0.0
 10
0.4855682735434422
 20
-0.2646255593732971
 42
0.0
 10
0.4878203781242197
 20
-0.2628092484334863
 42
0.0
 10
0.4905662592979235
 20
-0.2613138862708531
 42
0.0
 10
0.4937077276158992
 20
-0.2599908194338407
 42
0.0
 10
0.4971465936293953
 20
-0.2586913944708829
 42
0.0
 10
0.5007846678897458
 20
-0.2572669579304418
 42
0.0
 10
0.5045237609482194
 20
-0.2555688563609847
 42
0.0
 10
0.5082656833562801
 20
-0.2534484363108487
 42
0.0
 10
0.5119318357712606
 20
-0.2507919796546052
 42
0.0
 10
0.5155219792755258
 20
-0.2476255095707146
 42
0.0
 10
0.5190554650575061
 20
-0.2440099845637062
 42
0.0
 10
0.5225516443055966
 20
-0.2400063631381647
 42
0.0
 10
0.5260298682082885
 20
-0.2356756037986059
 42
0.0
 10
0.5295094879540983
 20
-0.2310786650494378
 42
0.0
 10
0.5330098547314533
 20
-0.2262765053952601
 42
0.0
 10
0.5365503197287904
 20
-0.2213300833405753
 42
0.0
 10
0.540134739962722
 20
-0.2162853710008497
 42
0.0
 10
0.5437049957665105
 20
-0.2111283949298158
 42
0.0
 10
0.5471874733007618
 20
-0.2058301952930986
 42
0.0
 10
0.5505085587264587
 20
-0.2003618122558879
 42
0.0
 10
0.5535946382046653
 20
-0.1946942859832444
 42
0.0
 10
0.5563720978964878
 20
-0.1887986566402603
 42
0.0
 10
0.5583645143249094
 20
-0.1836806741306955
 42
0.1256811602615189
 10
0.4809966617200034
 20
-0.1797095318651786
 42
0.3508021785107088
 10
0.41489157941758
 20
-0.1223513587267851
 42
-0.5046405816136728
 10
0.318329206879015
 20
-0.181034149081289
 42
0.0
 10
0.2654439692692927
 20
-0.1164512866242014
 42
0.0
 10
0.1802764826119628
 20
-0.1104483087620315
 42
0.0
 10
0.1545350174704071
 20
-0.1596040950145637
 42
0.0
 10
0.1996144597258489
 20
-0.1992328771651427
 42
0.0
 10
0.196800062225144
 20
-0.2475333832976204
 42
0.0
 10
0.1378643591312951
 20
-0.268092140222504
 42
0.0
 10
-0.0743139884554015
 20
-0.1796162890981021
 42
0.0
 10
-0.119515227960123
 20
-0.1889562312151183
 42
0.0
 10
-0.162839340345461
 20
-0.2594231487530494
 42
0.0
 10
-0.0935678190009614
 20
-0.33257482943247
 42
0.0
 10
-0.1032645660078979
 20
-0.3665306427040834
 42
0.0
 10
-0.0524190328726307
 20
-0.4380746689029444
 42
0.0
 10
-0.1360156847025151
 20
-0.483450586600546
 42
0.7335825464443675
 10
-0.0668128112972343
 20
-0.4923441391233487
 42
-0.8616245048497866
 10
-0.0111131761868121
 20
-0.5086264954479502
 42
0.2799778283021079
 10
0.0340349140078368
 20
-0.6125134057551655
 42
0.0
 10
0.0384706255306598
 20
-0.6123479342721434
 42
-0.8270561609404419
 97
        0
 75
     0
 76
     1
 52
121.2565632672354
 41
0.4540155660649378
 77
     0
 78
     1
 53
166.2565632672355
 43
-18.03536836578793
 44
-21.23740018399512
 45
-0.0134828221139029
 46
-0.055127097285973
 79
     0
 47
0.0133352559642302
 98
        2
 10
-0.2400834250519475
 20
1.575572074103777
 10
0.2134716788837656
 20
-0.4792450946885071
  0
HATCH
  5
9C7
330
1F
100
AcDbEntity
  8
ceco.net 74
 62
    85
380
     1
100
AcDbHatch
 10
0.0
 20
0.0
 30
0.0
210
0.0
220
0.0
230
1.0
  2
ANSI31
 70
     0
 71
     0
 91
        3
 92
        7
 72
     1
 73
     1
 93
       23
 10
-0.0486739868888043
 20
1.853549631049352
 42
0.5121558898008628
 10
-0.0896881007559138
 20
1.792336306435059
 42
-0.2797061098355841
 10
-0.1519501068473905
 20
1.656127289562695
 42
-0.0346542636171452
 10
-0.1610711675246751
 20
1.650519793084818
 42
0.0
 10
-0.1266233387211318
 20
1.576614693214099
 42
0.0
 10
-0.0711515294905422
 20
1.577953622048154
 42
0.0
 10
-0.058369327896647
 20
1.63659841560406
 42
0.0
 10
-0.0147685159453851
 20
1.657570514286262
 42
0.0
 10
0.031801453169609
 20
1.616009504167484
 42
0.0
 10
0.0573743034207968
 20
1.387550193245745
 42
0.0
 10
0.0874709029676807
 20
1.352556175653773
 42
0.0
 10
0.1701080582340653
 20
1.348859454031535
 42
0.0
 10
0.2004668429024878
 20
1.444922226472591
 42
0.0
 10
0.2348632144565511
 20
1.452916835991873
 42
0.0
 10
0.2727556249248416
 20
1.532087418618634
 42
0.0
 10
0.352990769469586
 20
1.481002237949963
 42
0.7335825464443675
 10
0.327193637749519
 20
1.545830017173384
 42
-0.8861238118520244
 10
0.3159437874210125
 20
1.6029826425255
 42
0.3124799252858232
 10
0.3793354570513233
 20
1.692935468816367
 42
-0.8087036811201402
 10
0.4473590006335347
 20
1.75576244610571
 42
-0.0285924839000052
 10
0.6370216606713596
 20
1.593847520564176
 42
0.0
 10
0.7583698343546807
 20
1.647443863353333
 42
0.0091713495844446
 10
0.7291511017110058
 20
1.707311541341989
 42
0.1102767209555559
 97
        0
 92
        7
 72
     1
 73
     1
 93
       11
 10
0.6370216606713544
 20
1.593847520564185
 42
0.0
 10
0.5108263835525701
 20
1.538110337831787
 42
0.0
 10
0.511842778598688
 20
1.486965125191482
 42
0.0
 10
0.5069693367349553
 20
1.45367747906577
 42
0.0
 10
0.5151343222408482
 20
1.40489003627663
 42
0.0
 10
0.471064812100317
 20
1.394314930472539
 42
0.0
 10
0.498279241137561
 20
1.347850399008382
 42
0.0
 10
0.4810659781784796
 20
1.182589053589075
 42
0.0
 10
0.526232669533052
 20
1.165805796421555
 42
0.0
 10
0.5608784406178203
 20
1.204953008649017
 42
0.0
 10
0.8221992876070089
 20
1.392795281610003
 42
0.0313448551106308
 97
        0
 92
        7
 72
     1
 73
     1
 93
      190
 10
1.093487409399675
 20
0.2646635801308911
 42
0.0
 10
1.118302554471247
 20
0.3398027114763444
 42
0.0
 10
1.088326160113614
 20
0.3942300277060661
 42
0.0
 10
1.127945172032345
 20
0.4467828740643183
 42
0.0
 10
1.159415355814995
 20
0.4712044278889711
 42
0.0
 10
1.211975784492613
 20
0.4315768654610509
 42
0.0
 10
1.27318403930294
 20
0.4161872642379644
 42
0.0409974157489475
 10
1.179433818412917
 20
0.760927462603045
 42
0.0
 10
1.15081772279223
 20
0.7540807985224064
 42
0.0
 10
1.128961271729456
 20
0.7508135485979534
 42
0.0
 10
1.112833926010768
 20
0.7505548959035365
 42
0.0
 10
1.101405146422361
 20
0.7527340235128848
 42
0.0
 10
1.093644393750404
 20
0.7567801144998576
 42
0.0
 10
1.088521128781097
 20
0.7621223519381405
 42
0.0
 10
1.0850048123006
 20
0.7681899189016005
 42
0.0
 10
1.082064905095092
 20
0.7744119984639656
 42
0.0
 10
1.078853651846833
 20
0.7803201362957879
 42
0.0
 10
1.075254432822854
 20
0.785855328453923
 42
0.0
 10
1.07133341218615
 20
0.7910609335922089
 42
0.0
 10
0.976963692927695
 20
0.6983205082540849
 42
0.0
 10
0.9725975615547099
 20
0.7029970153137414
 42
0.0
 10
0.9681081210578462
 20
0.7074740113149606
 42
0.0
 10
0.9635615356006688
 20
0.7117948549109068
 42
0.0
 10
0.9590239693461219
 20
0.7160029047558427
 42
0.0
 10
0.954549472803152
 20
0.7201236891743546
 42
0.0
 10
0.950143641866421
 20
0.7241114151773845
 42
0.0
 10
0.9457999587767989
 20
0.7279024594471003
 42
0.0
 10
0.9415119057751008
 20
0.7314331986652715
 42
0.0
 10
0.9372729651017188
 20
0.7346400095144392
 42
0.0
 10
0.9330766189975403
 20
0.7374592686764048
 42
0.0
 10
0.9289163497034868
 20
0.7398273528331388
 42
0.0
 10
0.9247856394600288
 20
0.7416806386669786
 42
0.0
 10
0.9227391206710887
 20
0.7423367557194931
 42
-0.1001919703254665
 10
0.7262806509055063
 20
0.0490488847033208
 42
-0.024541161089303
 10
0.7119273091035545
 20
-0.1285378118924423
 42
-0.3851675971199829
 10
0.6933828056169827
 20
-0.1443412860781009
 42
0.0
 10
0.6238709671459728
 20
-0.1422870001077246
 42
0.0
 10
0.6018074399417212
 20
-0.1435440372733753
 42
0.0
 10
0.5859660413167232
 20
-0.1465785505372996
 42
0.0
 10
0.5752215062904737
 20
-0.1510417967872991
 42
0.0
 10
0.5684485698825982
 20
-0.1565850329111643
 42
0.0
 10
0.5645219671126752
 20
-0.162859515796646
 42
0.0
 10
0.5623164330002865
 20
-0.1695165023315385
 42
0.0
 10
0.5607067025649859
 20
-0.1762072494036646
 42
0.0
 10
0.5584478538801453
 20
-0.1837066014476696
 42
0.0001393939918058
 10
0.5583645143249094
 20
-0.1836806741306955
 42
0.0
 10
0.5563720978965226
 20
-0.1887986566402047
 42
0.0
 10
0.5535946382046704
 20
-0.1946942859832527
 42
0.0
 10
0.5505085587264471
 20
-0.2003618122559064
 42
0.0
 10
0.5471874733007385
 20
-0.2058301952931356
 42
0.0
 10
0.5437049957665271
 20
-0.2111283949298057
 42
0.0
 10
0.5401347399627606
 20
-0.2162853710008377
 42
0.0
 10
0.5365503197279673
 20
-0.2213300833415553
 42
0.0
 10
0.5330098547311885
 20
-0.2262765053956151
 42
0.0
 10
0.5295094879540983
 20
-0.2310786650494378
 42
0.0
 10
0.5260298682083118
 20
-0.2356756037985689
 42
0.0
 10
0.5225516443055851
 20
-0.2400063631381832
 42
0.0
 10
0.5171591226542695
 20
-0.2461815657490647
 42
0.0
 10
0.5100957144923355
 20
-0.2524114199620121
 42
0.0
 10
0.5031869687556512
 20
-0.2563263709908647
 42
0.0
 10
0.4971465936294774
 20
-0.2586913944708675
 42
0.0
 10
0.4937077276158556
 20
-0.2599908194338443
 42
0.0
 10
0.4905662592979401
 20
-0.2613138862708429
 42
0.0
 10
0.4878203781242197
 20
-0.2628092484334863
 42
0.0
 10
0.4855682735434473
 20
-0.2646255593733055
 42
0.0
 10
0.483908135004289
 20
-0.2669114725418384
 42
0.0
 10
0.4829180651820726
 20
-0.2697777322524948
 42
0.0
 10
0.4825958196585879
 20
-0.2731834462660537
 42
0.0
 10
0.482919067242341
 20
-0.2770498132050299
 42
0.0
 10
0.4838654767417273
 20
-0.2812980316921316
 42
0.0
 10
0.4854127169652558
 20
-0.2858493003498026
 42
0.0
 10
0.4875384567213229
 20
-0.2906248178007162
 42
0.0
 10
0.4902203648183799
 20
-0.2955457826674087
 42
0.0
 10
0.4934361100649502
 20
-0.300533393572499
 42
0.0
 10
0.4971447770520844
 20
-0.3055165415496778
 42
0.0
 10
0.5012311135013237
 20
-0.3104548872766146
 42
0.0
 10
0.5055612829172594
 20
-0.3153157838427632
 42
0.0
 10
0.5100014488040172
 20
-0.3200665843366587
 42
0.0
 10
0.5144177746670609
 20
-0.3246746418491919
 42
0.0
 10
0.518676424007454
 20
-0.3291073094644563
 42
0.0
 10
0.522643560333048
 20
-0.3333319402766733
 42
0.0
 10
0.5277658566738089
 20
-0.3390937093229809
 42
0.0
 10
0.5325907024805239
 20
-0.3455855096024906
 42
0.0
 10
0.5362537083539348
 20
-0.3510390657291043
 42
0.0
 10
0.538359915456166
 20
-0.3541373450578559
 42
0.0
 10
0.5405649910966773
 20
-0.3571961679638344
 42
0.0
 10
0.5430005461850586
 20
-0.3602623092886644
 42
0.0
 10
0.5457981916302895
 20
-0.3633825438728892
 42
0.0
 10
0.5491088555679164
 20
-0.3665648312487439
 42
0.0
 10
0.5531607350379618
 20
-0.3696618697125821
 42
0.0
 10
0.5582013443068817
 20
-0.3724875422521532
 42
0.0
 10
0.5644781976410557
 20
-0.3748557318550816
 42
0.0
 10
0.5722388093068799
 20
-0.3765803215089814
 42
0.0
 10
0.5817306935705817
 20
-0.3774751942014895
 42
0.0
 10
0.5932013646986696
 20
-0.3773542329202544
 42
0.0
 10
0.6370538827985789
 20
-0.3731187688299058
 42
-0.5293802227879926
 10
0.6562510627642919
 20
-0.396221331903651
 42
-0.0871387694220039
 10
0.3805893260435616
 20
-0.9607391653397675
 42
-0.3723405477462983
 10
0.3227646561153914
 20
-0.9742679932526458
 42
0.0
 10
0.1938012560931241
 20
-0.9759499298401559
 42
0.0
 10
0.1440114961491531
 20
-0.9036671813500998
 42
0.0
 10
0.169990763459103
 20
-0.8399293191152715
 42
0.0
 10
0.1250045816604574
 20
-0.7497852372086591
 42
0.0
 10
0.0439582760008687
 20
-0.7663400407473981
 42
0.0
 10
0.0025542981923247
 20
-0.8436163856291543
 42
0.0
 10
0.0129680324529503
 20
-1.073266514206426
 42
0.0
 10
-0.0265411443142289
 20
-1.121589433578532
 42
0.0
 10
-0.0728818513519473
 20
-1.107682651161711
 42
0.0
 10
-0.0946643918607698
 20
-1.051753075642286
 42
0.0
 10
-0.1496648546684758
 20
-1.059092247303758
 42
0.0
 10
-0.1732090451348025
 20
-1.141160558009099
 42
0.0
 10
-0.1306579401797802
 20
-1.212974191445199
 42
-0.5046405816137104
 10
-0.2188763252864118
 20
-1.283582110287538
 42
0.3319483222919831
 10
-0.304726209091331
 20
-1.317998247242825
 42
0.2820078388470463
 10
-0.3045264824655476
 20
-1.481564938315486
 42
-0.5080610491826941
 10
-0.3225753052986081
 20
-1.540085949820746
 42
-0.035018355208787
 10
-0.559854566320432
 20
-1.630917478740746
 42
0.0098943916439532
 10
-0.4768048019144683
 20
-1.654592272735177
 42
0.0320458208498561
 10
-0.2447194065016211
 20
-1.639899536621979
 42
0.0
 10
-0.2426117372221302
 20
-1.635952819426189
 42
0.0
 10
-0.2351615467926413
 20
-1.62701636248941
 42
0.0
 10
-0.2278583789198727
 20
-1.622193098725936
 42
0.0
 10
-0.220701404667665
 20
-1.620304960927442
 42
0.0
 10
-0.2136897950997595
 20
-1.620173881885548
 42
0.0
 10
-0.2068227212801749
 20
-1.620621794392014
 42
0.0
 10
-0.2000985233593162
 20
-1.620680124349186
 42
0.0
 10
-0.193512217834537
 20
-1.620218270102753
 42
0.0
 10
-0.187057990289961
 20
-1.61931512310907
 42
0.0
 10
-0.2223693134385237
 20
-1.491802218419716
 42
0.0
 10
-0.2161617986064578
 20
-1.490253160300699
 42
0.0
 10
-0.2100689185067361
 20
-1.488499483803575
 42
0.0
 10
-0.2040848587232824
 20
-1.486620080384727
 42
0.0
 10
-0.1982038048399845
 20
-1.484693841500447
 42
0.0
 10
-0.1924296568480862
 20
-1.482780415646738
 42
0.0
 10
-0.1868051723597214
 20
-1.480862479475176
 42
0.0
 10
-0.1813828233950426
 20
-1.478903466677312
 42
0.0
 10
-0.1762150819734032
 20
-1.476866810944283
 42
0.0
 10
-0.1713544201145744
 20
-1.474715945967478
 42
0.0
 10
-0.1668533098380945
 20
-1.472414305438178
 42
0.0
 10
-0.1627642231634191
 20
-1.469925323047615
 42
0.0
 10
-0.1591396321101637
 20
-1.467212432487096
 42
0.0
 10
-0.1560044589246717
 20
-1.464268140790691
 42
0.0
 10
-0.1532734267605506
 20
-1.46120124836367
 42
0.0
 10
-0.1508337089981174
 20
-1.45814962895402
 42
0.0
 10
-0.1470432658381855
 20
-1.453290991883037
 42
0.0
 10
-0.1428735405597486
 20
-1.449240584342982
 42
0.0
 10
-0.1377237964576979
 20
-1.44749455484095
 42
0.0
 10
-0.1310104034069702
 20
-1.448903713500117
 42
0.0
 10
-0.1233909767087808
 20
-1.453270714641045
 42
0.0
 10
-0.1154639127059689
 20
-1.460223795360233
 42
0.0
 10
-0.1097749409690375
 20
-1.467020826451253
 42
0.0
 10
-0.1061165516954255
 20
-1.472041001996484
 42
0.0
 10
-0.1026130024622938
 20
-1.477408547699083
 42
0.0
 10
-0.0992557605596727
 20
-1.482985967299944
 42
0.0
 10
-0.0960362932775941
 20
-1.488635764539731
 42
0.0
 10
-0.0929460679069968
 20
-1.494220443157578
 42
0.0
 10
-0.089976551733559
 20
-1.499602506902189
 42
0.0
 10
-0.087119212051594
 20
-1.504644459506535
 42
0.0
 10
-0.0843655161496709
 20
-1.509208804714029
 42
0.0
 10
-0.0817074168729676
 20
-1.513204222754779
 42
0.0
 10
-0.0791388092889846
 20
-1.516724099813263
 42
0.0
 10
-0.0766540740205779
 20
-1.519907998562718
 42
0.0
 10
-0.0742475916911755
 20
-1.522895481676042
 42
0.0
 10
-0.0704362236275898
 20
-1.527681443095913
 42
0.0
 10
-0.0674414685630698
 20
-1.532075063934931
 42
0.0
 10
-0.0652918042172347
 20
-1.535672511237986
 42
0.0
 10
-0.0429303865454602
 20
-1.602380701189293
 42
0.1318900793446542
 10
0.7822968882122994
 20
-1.148727035894578
 42
0.0
 10
0.7379290164700925
 20
-1.101873952215776
 42
0.0
 10
0.7812531288554138
 20
-1.031407034677855
 42
0.0
 10
0.8171878637246997
 20
-1.023981832463326
 42
0.0
 10
0.75940370321755
 20
-0.9335661075132398
 42
0.0
 10
0.766271443964107
 20
-0.8595742710993159
 42
0.0
 10
0.8816841816721211
 20
-0.796042835688591
 42
0.0
 10
1.004164701669273
 20
-0.7862943875993944
 42
0.0
 10
1.064813871718742
 20
-0.7052653320210541
 42
0.0
 10
1.037528494789302
 20
-0.6375360779359146
 42
0.0
 10
0.9633312362392247
 20
-0.5642861345358324
 42
0.0
 10
0.9631330016323559
 20
-0.4979452387349016
 42
0.0
 10
0.7372260919686111
 20
-0.3649193480779917
 42
0.0
 10
0.7207370092082774
 20
-0.3213376149070709
 42
0.0
 10
0.7784415711265593
 20
-0.2281379692671661
 42
0.0
 10
0.9311484623128805
 20
-0.1754215094556155
 42
0.0
 10
0.9719728930642993
 20
-0.0902601228464962
 42
0.0
 10
1.059514584700938
 20
-0.0671463856204735
 42
0.0
 10
1.245184539690929
 20
-0.2386206385511722
 42
0.0
 10
1.293107248133233
 20
-0.2519719787943414
 42
0.0581404064913871
 10
1.297055372010935
 20
0.2538024367153329
 42
0.0
 10
1.207125755554305
 20
0.2042850015532598
 42
0.0
 10
1.163451476339359
 20
0.2535343640040587
 42
0.0
 97
        0
 75
     0
 76
     1
 52
121.2565632672354
 41
0.4540155660649378
 77
     0
 78
     1
 53
166.2565632672355
 43
-18.03536836578793
 44
-21.23740018399512
 45
-0.0134828221139029
 46
-0.055127097285973
 79
     0
 47
0.0134222225199611
 98
        3
 10
0.1500069115746406
 20
1.719980440797255
 10
0.6689587644966741
 20
1.429038802964628
 10
0.9720403311239721
 20
0.1658956610120481
  0
HATCH
  5
9C8
330
1F
100
AcDbEntity
  8
ceco.net 74
 62
    87
380
     1
100
AcDbHatch
 10
0.0
 20
0.0
 30
0.0
210
0.0
220
0.0
230
1.0
  2
ANSI31
 70
     0
 71
     0
 91
        2
 92
        7
 72
     1
 73
     1
 93
      127
 10
1.08655020676575
 20
0.9794564048919236
 42
0.0
 10
1.072871182609395
 20
0.9779592595899002
 42
0.0
 10
1.061616737721236
 20
0.9757392600357521
 42
0.0
 10
1.05250661369489
 20
0.9729281562958378
 42
0.0
 10
1.045260552123879
 20
0.9696576984364119
 42
0.0
 10
1.039598294601763
 20
0.9660596365237756
 42
0.0
 10
1.035239582722084
 20
0.962265720624185
 42
0.0
 10
1.031904158078416
 20
0.9584077008039599
 42
0.0
 10
0.9391187010923111
 20
0.8569575250190936
 42
0.0
 10
0.9370159001848053
 20
0.8533324853997452
 42
0.0
 10
0.9352565581949045
 20
0.8498342191186015
 42
0.0
 10
0.9337213636168973
 20
0.846390103301673
 42
0.0
 10
0.9322910049453366
 20
0.8429275150756673
 42
0.0
 10
0.9308461706743662
 20
0.839373831565741
 42
0.0
 10
0.9292675492986194
 20
0.8356564298988454
 42
0.0
 10
0.9274358293125315
 20
0.8317026872012394
 42
0.0
 10
0.9252316992104002
 20
0.8274399805988821
 42
0.0
 10
0.9225764611519485
 20
0.8228176652540245
 42
0.0
 10
0.9195538719579914
 20
0.8178730084727131
 42
0.0
 10
0.9162883021145191
 20
0.8126652555965304
 42
0.0
 10
0.912904122107948
 20
0.8072536519687682
 42
0.0
 10
0.9095257024243847
 20
0.8016974429306673
 42
0.0
 10
0.9062774135496876
 20
0.7960558738242901
 42
0.0
 10
0.9032836259700834
 20
0.7903881899917727
 42
0.0
 10
0.9006687101716471
 20
0.7847536367751602
 42
0.0
 10
0.8985372745126875
 20
0.7792152017919893
 42
0.0
 10
0.8969148788399888
 20
0.7738508417610842
 42
0.0
 10
0.8958073208723792
 20
0.7687422556765077
 42
0.0
 10
0.8952203983288644
 20
0.7639711425326715
 42
0.0
 10
0.8951599089282721
 20
0.7596192013236385
 42
0.0
 10
0.8956316503895097
 20
0.7557681310436805
 42
0.0
 10
0.8966414204315185
 20
0.7524996306869751
 42
0.0
 10
0.8981950167731659
 20
0.7498953992477469
 42
0.0
 10
0.9002863003734056
 20
0.7479959277721371
 42
0.0
 10
0.9028613851513146
 20
0.7466768755140946
 42
0.0
 10
0.9058544482659735
 20
0.7457726937795833
 42
0.0
 10
0.9091996668765304
 20
0.7451178338744942
 42
0.0
 10
0.9128312181419151
 20
0.744546747104814
 42
0.0
 10
0.916683279221819
 20
0.743893884776329
 42
0.0
 10
0.9206900272747628
 20
0.742993698195098
 42
0.0
 10
0.9247856394600322
 20
0.741680638666935
 42
0.0
 10
0.9289163497034651
 20
0.7398273528331371
 42
0.0
 10
0.9330766189975287
 20
0.7374592686763863
 42
0.0
 10
0.9372729651016936
 20
0.7346400095144811
 42
0.0
 10
0.9415119057750535
 20
0.7314331986653116
 42
0.0
 10
0.9457999587768902
 20
0.72790245944695
 42
0.0
 10
0.9501436418665674
 20
0.724111415177256
 42
0.0
 10
0.9545494728028211
 20
0.7201236891744852
 42
0.0
 10
0.9590239693465651
 20
0.7160029047550368
 42
0.0
 10
0.963561535600526
 20
0.7117948549109915
 42
0.0
 10
0.9681081210579577
 20
0.7074740113147767
 42
0.0
 10
0.9725975615546362
 20
0.7029970153137882
 42
0.0
 10
0.976963692927695
 20
0.6983205082540849
 42
0.0
 10
1.07133341218615
 20
0.7910609335922089
 42
0.0
 10
1.075254432822906
 20
0.7858553284538749
 42
0.0
 10
1.078853651846875
 20
0.7803201362957562
 42
0.0
 10
1.082064905095039
 20
0.774411998464014
 42
0.0
 10
1.08500481230057
 20
0.7681899189016506
 42
0.0
 10
1.088521128781108
 20
0.7621223519381588
 42
0.0
 10
1.093644393750399
 20
0.7567801144998658
 42
0.0
 10
1.101405146422334
 20
0.7527340235128914
 42
0.0
 10
1.112833926010724
 20
0.7505548959035328
 42
0.0
 10
1.128961271729407
 20
0.7508135485979581
 42
0.0
 10
1.15081772279218
 20
0.754080798522376
 42
0.0
 10
1.179433818412917
 20
0.760927462603045
 42
-0.0409974157489475
 10
1.27318403930294
 20
0.4161872642379644
 42
0.0
 10
1.211975784492629
 20
0.4315768654610256
 42
0.0
 10
1.159415355814995
 20
0.4712044278889711
 42
0.0
 10
1.12794517203235
 20
0.4467828740643098
 42
0.0
 10
1.088326160113597
 20
0.394230027706056
 42
0.0
 10
1.118302554471247
 20
0.3398027114763444
 42
0.0
 10
1.093487409399692
 20
0.2646635801309012
 42
0.0
 10
1.163451476339354
 20
0.253534364004067
 42
0.0
 10
1.207125755554305
 20
0.2042850015532598
 42
0.0
 10
1.297055372010935
 20
0.2538024367153329
 42
-0.0581404064913873
 10
1.293107248133233
 20
-0.2519719787943414
 42
0.0
 10
1.245184539690934
 20
-0.2386206385511805
 42
0.0
 10
1.059514584700943
 20
-0.0671463856204819
 42
0.0
 10
0.9719728930642993
 20
-0.0902601228464962
 42
0.0
 10
0.9311484623128805
 20
-0.1754215094556155
 42
0.0
 10
0.7784415711265593
 20
-0.2281379692671661
 42
0.0
 10
0.7207370092082606
 20
-0.3213376149070811
 42
0.0
 10
0.7372260919686163
 20
-0.364919348078
 42
0.0
 10
0.9631330016323559
 20
-0.4979452387349016
 42
0.0
 10
0.9633312362392247
 20
-0.5642861345358324
 42
0.0
 10
1.037528494789307
 20
-0.637536077935923
 42
0.0
 10
1.064813871718742
 20
-0.7052653320210541
 42
0.0
 10
1.004164701669273
 20
-0.7862943875993944
 42
0.0
 10
0.8816841816721211
 20
-0.796042835688591
 42
0.0
 10
0.766271443964107
 20
-0.8595742710993159
 42
0.0
 10
0.7594037032175552
 20
-0.9335661075132483
 42
0.0
 10
0.8171878637246997
 20
-1.023981832463326
 42
0.0
 10
0.826454368360152
 20
-1.022067092560829
 42
0.0
 10
1.038632715946848
 20
-1.110542943685231
 42
0.0
 10
1.097568419040697
 20
-1.089984186760347
 42
0.0
 10
1.100382816541397
 20
-1.041683680627861
 42
0.0
 10
1.05530337428596
 20
-1.002054898477291
 42
0.0
 10
1.081044839427516
 20
-0.9528991122247589
 42
0.0
 10
1.166212326084862
 20
-0.9589020900869185
 42
0.0
 10
1.219097563694568
 20
-1.023484952544016
 42
0.5046405816136971
 10
1.315659936233133
 20
-0.9648021621895123
 42
-0.3508021785107076
 10
1.381765018535556
 20
-1.022160335327905
 42
-0.1596250317494848
 10
1.478552891915433
 20
-1.033616068840012
 42
0.2362982773808743
 10
1.749481019589127
 20
0.5694027841054053
 42
0.0
 10
1.461646797433357
 20
0.3625022051862797
 42
0.0
 10
1.427001026348605
 20
0.3233549929588286
 42
0.0
 10
1.381834334994032
 20
0.3401382501263479
 42
0.0
 10
1.399047597953114
 20
0.5053995955456556
 42
0.0
 10
1.371833168915858
 20
0.5518641270097943
 42
0.0
 10
1.415902679056385
 20
0.5624392328138931
 42
0.0
 10
1.407737693550519
 20
0.6112266756030263
 42
0.0
 10
1.412611135414236
 20
0.6445143217287641
 42
0.0
 10
1.411594740368123
 20
0.6956595343690598
 42
0.0
 10
1.659138191170234
 20
0.8049930598906062
 42
0.1063709693447932
 10
1.198170737722128
 20
1.414334303991402
 42
0.0
 10
1.210335875811347
 20
1.354384076849497
 42
0.0
 10
1.18053838514318
 20
1.344556177834523
 42
0.0
 10
1.093599912192271
 20
1.307632130233673
 42
0.0
 10
1.062750173009714
 20
1.351080459339759
 42
0.0
 10
1.114983157185221
 20
1.393057309037503
 42
0.0
 10
1.075369670302604
 20
1.412990812246266
 42
0.0
 10
1.091626478422814
 20
1.45135162610811
 42
0.0
 10
1.054510678346902
 20
1.476233791971695
 42
0.0
 10
1.043799520946
 20
1.533520758050082
 42
0.0496043055744158
 10
0.7291511017110058
 20
1.707311541341989
 42
-0.0091713495844446
 10
0.7583698343546807
 20
1.647443863353333
 42
0.0
 10
0.6370216606713596
 20
1.593847520564176
 42
-0.0878881829810952
 97
        0
 92
        7
 72
     1
 73
     1
 93
       19
 10
0.7647526721130383
 20
-1.325901390063273
 42
0.0
 10
0.8483493239429227
 20
-1.280525472365671
 42
0.0
 10
0.7975037908076556
 20
-1.20898144616681
 42
0.0
 10
0.8072005378145753
 20
-1.175025632895207
 42
0.0
 10
0.7822968882122994
 20
-1.148727035894578
 42
-0.1318900793446534
 10
-0.0429303865454436
 20
-1.602380701189283
 42
0.0
 10
-0.0215958077144327
 20
-1.66602564347692
 42
0.0
 10
-0.0198404285283745
 20
-1.670813964518893
 42
0.0
 10
-0.0186375536648328
 20
-1.676465978245488
 42
0.0
 10
-0.0182383572583784
 20
-1.683162832133954
 42
0.0
 10
-0.0188940134436001
 20
-1.691085673661317
 42
0.0
 10
-0.0208556963550719
 20
-1.700415650304783
 42
0.0
 10
-0.0243745801273611
 20
-1.711333909541379
 42
0.0
 10
-0.0297018388951041
 20
-1.724021598848242
 42
0.1167741133917434
 10
0.959228236461147
 20
-1.541720272254565
 42
0.8270561609404918
 10
0.9392389823462131
 20
-1.45479873773487
 42
0.0
 10
0.9348032708233901
 20
-1.454964209217892
 42
-0.2799778283021056
 10
0.8896551806287412
 20
-1.351077298910677
 42
0.8616245048498472
 10
0.8339555455183191
 20
-1.334794942586075
 42
-0.7335825464443675
 97
        0
 75
     0
 76
     1
 52
121.2565632672354
 41
0.4540155660649378
 77
     0
 78
     1
 53
166.2565632672355
 43
-18.03536836578793
 44
-21.23740018399512
 45
-0.0134828221139029
 46
-0.055127097285973
 79
     0
 47
0.0168703920513024
 98
        2
 10
1.057306739003095
 20
1.206894527241145
 10
0.7218401640101531
 20
-1.415906077237695
  0
HATCH
  5
9C9
330
1F
100
AcDbEntity
  8
ceco.net 74
 62
    87
380
     1
100
AcDbHatch
 10
0.0
 20
0.0
 30
0.0
210
0.0
220
0.0
230
1.0
  2
ANSI31
 70
     0
 71
     0
 91
        3
 92
        7
 72
     1
 73
     1
 93
       34
 10
-1.474842021038514
 20
0.8482089932967133
 42
-0.0259128597512806
 10
-1.343411683971197
 20
0.9827893524515925
 42
0.0
 10
-1.344798329321485
 20
0.98199340484826
 42
0.0
 10
-1.349897859303583
 20
0.9789424871373968
 42
0.0
 10
-1.355090708843057
 20
0.9757744755861049
 42
0.0
 10
-1.360362450213682
 20
0.9725331897388166
 42
0.0
 10
-1.365665056336534
 20
0.9691830409352002
 42
0.0
 10
-1.370942100298493
 20
0.9656685884613624
 42
0.0
 10
-1.376137155185325
 20
0.9619343916040623
 42
0.0
 10
-1.381193794083121
 20
0.9579250096498739
 42
0.0
 10
-1.386055590077847
 20
0.95358500188547
 42
0.0
 10
-1.390666116255477
 20
0.9488589275974611
 42
0.0
 10
-1.394968945702005
 20
0.9436913460724907
 42
0.0
 10
-1.399066935954911
 20
0.9381628920078719
 42
0.0
 10
-1.403700082357866
 20
0.9328985017434835
 42
0.0
 10
-1.40976766470604
 20
0.9286591870298634
 42
0.0
 10
-1.418168962794641
 20
0.9262059596175301
 42
0.0
 10
-1.429803256418821
 20
0.9262998312570662
 42
0.0
 10
-1.445569825373718
 20
0.9297018136989514
 42
0.0
 10
-1.466367949454655
 20
0.9371729186938253
 42
0.0
 10
-1.529541050887399
 20
0.9662465327421907
 42
0.3851675971200484
 10
-1.552788829181216
 20
0.9589534394134153
 42
0.0467655927702336
 10
-1.696569139710392
 20
0.6519816865355937
 42
0.5431042967910346
 10
-1.678119473530989
 20
0.6277372439211772
 42
0.0
 10
-1.639066968502945
 20
0.6306624811534409
 42
-0.0106977647865412
 10
-1.595648974400987
 20
0.695102613876056
 42
0.0
 10
-1.538252291748599
 20
0.7052093539951113
 42
0.0
 10
-1.512980296137017
 20
0.742060826572825
 42
0.0
 10
-1.474792965006801
 20
0.7254005867320599
 42
0.0
 10
-1.454443030760509
 20
0.7648017677974253
 42
0.0
 10
-1.413019064646053
 20
0.7121292362674616
 42
0.0
 10
-1.369247983365501
 20
0.7425193029550086
 42
0.0
 10
-1.405253621525861
 20
0.8298421372592496
 42
0.0
 10
-1.414766899863947
 20
0.8597415617425276
 42
0.0
 97
        0
 92
        7
 72
     1
 73
     1
 93
       58
 10
-1.509649884700434
 20
0.5029147864319583
 42
0.0
 10
-1.508620808154228
 20
0.5112648317540842
 42
0.0
 10
-1.507069468384943
 20
0.5193496708105646
 42
0.0
 10
-1.504822540533822
 20
0.5270004579033191
 42
0.0
 10
-1.502030229082394
 20
0.5342502319686583
 42
0.0
 10
-1.498923620847433
 20
0.5411825031013564
 42
0.0
 10
-1.495733802645606
 20
0.5478807813961608
 42
0.0
 10
-1.492691861293314
 20
0.5544285769484372
 42
0.0
 10
-1.490028883607594
 20
0.5609093998525607
 42
0.0
 10
-1.487975956405011
 20
0.5674067602034894
 42
0.0
 10
-1.486764166502255
 20
0.5740041680960825
 42
0.0
 10
-1.48656293431618
 20
0.5807578921891759
 42
0.0
 10
-1.487295014664507
 20
0.5876152353973887
 42
0.0
 10
-1.48882149596512
 20
0.5944962591992724
 42
0.0
 10
-1.491003466635903
 20
0.6013210250733432
 42
0.0
 10
-1.493702015094829
 20
0.6080095944983737
 42
0.0
 10
-1.49677822975966
 20
0.6144820289526796
 42
0.0
 10
-1.500093199048303
 20
0.6206583899148895
 42
0.0
 10
-1.503508011378853
 20
0.6264587388638266
 42
0.0
 10
-1.506928173630954
 20
0.6318021956734296
 42
0.0
 10
-1.510436866532746
 20
0.6366041138010182
 42
0.0
 10
-1.514161689274257
 20
0.6407789050994284
 42
0.0
 10
-1.518230241045408
 20
0.6442409814214712
 42
0.0
 10
-1.522770121036304
 20
0.6469047546200026
 42
0.0
 10
-1.527908928436924
 20
0.648684636547854
 42
0.0
 10
-1.533774262437264
 20
0.6494950390578477
 42
0.0
 10
-1.540493722227342
 20
0.6492503740028813
 42
0.0
 10
-1.548218407335824
 20
0.6479248736806566
 42
0.0
 10
-1.557193418645861
 20
0.6457320521685234
 42
0.0
 10
-1.567687357378639
 20
0.6429452439890166
 42
0.0
 10
-1.579968824756924
 20
0.6398377836640341
 42
0.0
 10
-1.594306422001574
 20
0.6366830057161029
 42
0.0
 10
-1.610968750334405
 20
0.6337542446675144
 42
0.0
 10
-1.630224410977333
 20
0.6313248350404633
 42
0.0
 10
-1.639066968502938
 20
0.6306624811534677
 42
0.0229276541658098
 10
-1.722596856112563
 20
0.4866720345599363
 42
-0.0238045660660706
 10
-1.721180884803472
 20
0.4856811504371256
 42
0.0
 10
-1.680356637011455
 20
0.4541157529393819
 42
0.0
 10
-1.657565537317586
 20
0.4400974344895811
 42
0.0
 10
-1.638483182829356
 20
0.431882801385489
 42
0.0
 10
-1.62251197480222
 20
0.428342054852685
 42
0.0
 10
-1.609054314491426
 20
0.4283453961167825
 42
0.0
 10
-1.597512603152278
 20
0.4307630264034171
 42
0.0
 10
-1.587289242040133
 20
0.4344651469381937
 42
0.0
 10
-1.577786632410414
 20
0.4383219589466766
 42
0.0
 10
-1.568530401025743
 20
0.4414387367633779
 42
0.0
 10
-1.559539076678295
 20
0.4438610471583033
 42
0.0
 10
-1.550954413667708
 20
0.4458695300103497
 42
0.0
 10
-1.542918166293531
 20
0.4477448251983419
 42
0.0
 10
-1.535572088855506
 20
0.4497675726011242
 42
0.0
 10
-1.529057935653003
 20
0.4522184120976771
 42
0.0
 10
-1.523517460985773
 20
0.4553779835667834
 42
0.0
 10
-1.519092419153338
 20
0.4595269268873399
 42
0.0
 10
-1.515858570873066
 20
0.4648625558156596
 42
0.0
 10
-1.513627702533261
 20
0.471248879617728
 42
0.0
 10
-1.51214560694001
 20
0.4784665814369238
 42
0.0
 10
-1.511158076899413
 20
0.4862963444167573
 42
0.0
 10
-1.510410905217518
 20
0.4945188517006547
 42
0.0
 97
        0
 92
        7
 72
     1
 73
     1
 93
       10
 10
-0.9361787761374403
 20
-0.8687352923380093
 42
0.0
 10
-0.9896798330458594
 20
-0.7730607015457474
 42
0.0
 10
-1.035788711563817
 20
-0.76633547751416
 42
0.0
 10
-1.261709722519334
 20
-0.8993374182057662
 42
0.0
 10
-1.319816351593688
 20
-0.8673253359516461
 42
0.0
 10
-1.363110169404709
 20
-0.8800228028368595
 42
0.0501568458087059
 10
-1.166870751444771
 20
-1.270162241375641
 42
0.0
 10
-0.9317661015640743
 20
-1.192619310572893
 42
0.0
 10
-0.9095064068109991
 20
-1.104856570115093
 42
0.0
 10
-0.9641680015951749
 20
-1.02784224696015
 42
0.0
 97
        0
 75
     0
 76
     1
 52
121.2565632672354
 41
0.4540155660649378
 77
     0
 78
     1
 53
166.2565632672355
 43
-18.03536836578793
 44
-21.23740018399512
 45
-0.0134828221139029
 46
-0.055127097285973
 79
     0
 47
0.0131480698585987
 98
        3
 10
-1.46623368645849
 20
0.8219097474257225
 10
-1.547658202454671
 20
0.5071336549472268
 10
-1.071289597928722
 20
-0.9913702621956371
  0
HATCH
  5
9CA
330
1F
100
AcDbEntity
  8
ceco.net 74
 62
    85
380
     1
100
AcDbHatch
 10
0.0
 20
0.0
 30
0.0
210
0.0
220
0.0
230
1.0
  2
ANSI31
 70
     0
 71
     0
 91
        2
 92
        7
 72
     1
 73
     1
 93
      188
 10
-1.727059579477469
 20
-0.4822063347910602
 42
0.0
 10
-1.667834277311232
 20
-0.4886172882384177
 42
0.0
 10
-1.649275672207231
 20
-0.5227067227590787
 42
0.0
 10
-1.543789888728241
 20
-0.5098480753742266
 42
0.0
 10
-1.482421122048579
 20
-0.5517507267829693
 42
0.0
 10
-1.482680334677164
 20
-0.6295482527050248
 42
0.0
 10
-1.427389003993886
 20
-0.6350940472920114
 42
0.0
 10
-1.415918855896892
 20
-0.6352572355075476
 42
0.0
 10
-1.406423741597493
 20
-0.634397311991558
 42
0.0
 10
-1.398656833671589
 20
-0.6327013036861629
 42
0.0
 10
-1.392371304695158
 20
-0.6303562375335065
 42
0.0
 10
-1.387320327244074
 20
-0.6275491404756722
 42
0.0
 10
-1.383257073894316
 20
-0.6244670394548038
 42
0.0
 10
-1.271443162641953
 20
-0.5444737369518004
 42
0.0
 10
-1.268634049424589
 20
-0.5413638226715799
 42
0.0
 10
-1.266187223247692
 20
-0.5383066682967308
 42
0.0
 10
-1.263970901898459
 20
-0.5352559838112392
 42
0.0
 10
-1.261853303164282
 20
-0.5321654791995283
 42
0.0
 10
-1.259702644832226
 20
-0.5289888644453101
 42
0.0
 10
-1.257387144689782
 20
-0.5256798495331479
 42
0.0
 10
-1.254775020523883
 20
-0.5221921444467074
 42
0.0
 10
-1.251734490122088
 20
-0.5184794591705133
 42
0.0
 10
-1.248178060935968
 20
-0.5145085776892194
 42
0.0
 10
-1.244195399074995
 20
-0.5102985799904721
 42
0.0
 10
-1.239920460313363
 20
-0.5058816200630263
 42
0.0
 10
-1.235487200425299
 20
-0.5012898518952447
 42
0.0
 10
-1.231029575184481
 20
-0.4965554294754888
 42
0.0
 10
-1.226681540365091
 20
-0.4917105067923461
 42
0.0
 10
-1.222577051741197
 20
-0.4867872378342537
 42
0.0
 10
-1.218850065086799
 20
-0.4818177765897226
 42
0.0
 10
-1.215615980403117
 20
-0.4768420378214456
 42
0.0
 10
-1.212915974600013
 20
-0.4719309793892889
 42
0.0
 10
-1.210772668814601
 20
-0.4671633199274348
 42
0.0
 10
-1.209208684183827
 20
-0.4626177780698941
 42
0.0
 10
-1.208246641844818
 20
-0.4583730724509029
 42
0.0
 10
-1.207909162934535
 20
-0.4545079217044822
 42
0.0
 10
-1.208218868590087
 20
-0.4511010444647522
 42
0.0
 10
-1.209198379948496
 20
-0.4482311593658963
 42
0.0
 10
-1.210850091952079
 20
-0.4459391501075153
 42
0.0
 10
-1.213095494764234
 20
-0.4441145606512617
 42
0.0
 10
-1.215835852353758
 20
-0.4426091000243362
 42
0.0
 10
-1.218972428689379
 20
-0.4412744772538987
 42
0.0
 10
-1.222406487739581
 20
-0.4399624013670981
 42
0.0
 10
-1.226039293473238
 20
-0.4385245813914219
 42
0.0
 10
-1.229772109859114
 20
-0.4368127263535947
 42
0.0
 10
-1.233506200865748
 20
-0.4346785452811291
 42
0.0
 10
-1.237162549045224
 20
-0.432008610172011
 42
0.0
 10
-1.240741011282284
 20
-0.4288289449078447
 42
0.0
 10
-1.244261163044728
 20
-0.4252004363415179
 42
0.0
 10
-1.247742579800767
 20
-0.4211839713254262
 42
0.0
 10
-1.251204837018113
 20
-0.4168404367124852
 42
0.0
 10
-1.254667510164819
 20
-0.4122307193550866
 42
0.0
 10
-1.258150174709054
 20
-0.4074157061057357
 42
0.0
 10
-1.261672406118441
 20
-0.4024562838174555
 42
0.0
 10
-1.265238230624696
 20
-0.3973984100939537
 42
0.0
 10
-1.268789477512306
 20
-0.3922283255448028
 42
0.0
 10
-1.272252426829362
 20
-0.3869173415309484
 42
0.0
 10
-1.275553358623952
 20
-0.3814367694134153
 42
0.0
 10
-1.387110107524014
 20
-0.4525811450144594
 42
0.0
 10
-1.389865844417779
 20
-0.4466753307724183
 42
0.0
 10
-1.392238403933309
 20
-0.4405138625094177
 42
0.0
 10
-1.394154066118644
 20
-0.4340680515864871
 42
0.0
 10
-1.395739154548298
 20
-0.4273714238434902
 42
0.0
 10
-1.397920166902708
 20
-0.420706363036798
 42
0.0
 10
-1.401823644388648
 20
-0.4144174674016492
 42
0.0
 10
-1.408576128213022
 20
-0.4088493351733364
 42
0.0
 10
-1.419304159582587
 20
-0.4043465645872374
 42
0.0
 10
-1.435134279704278
 20
-0.4012537538785594
 42
0.0
 10
-1.457193029784864
 20
-0.3999155012826985
 42
0.0
 10
-1.486606951031195
 20
-0.4006764050348468
 42
-0.0409974157489475
 10
-1.506796412123232
 20
-0.0439870528717386
 42
0.0
 10
-1.450112661008268
 20
-0.071740298488531
 42
0.0
 10
-1.406917075796015
 20
-0.1214100456685365
 42
0.0
 10
-1.37106501507476
 20
-0.1040487524976861
 42
0.0
 10
-1.321405205423063
 20
-0.0608588107157214
 42
0.0
 10
-1.33943771371069
 20
-0.0013966747339754
 42
0.0
 10
-1.299573849486269
 20
0.0669593989783475
 42
0.0
 10
-1.365706784858664
 20
0.0923614652991498
 42
0.0
 10
-1.398213386274311
 20
0.1496001168482639
 42
0.0
 10
-1.496459443293599
 20
0.1198171589490307
 42
-0.0581404064913869
 10
-1.387667481580191
 20
0.613768225485851
 42
0.0
 10
-1.343557355172884
 20
0.5907651600582989
 42
0.0
 10
-1.197501717953747
 20
0.3845019727450031
 42
0.0
 10
-1.107069435079283
 20
0.3889511116810815
 42
0.0
 10
-1.04946535080112
 20
0.4637900413222527
 42
0.0
 10
-0.8891441986306361
 20
0.4836784278225884
 42
0.0
 10
-0.8133596028419438
 20
0.5628787147837336
 42
0.0
 10
-0.8204483090457436
 20
0.6089331126282059
 42
0.0
 10
-1.013842088092395
 20
0.7859321681198636
 42
0.0
 10
-1.000272694217489
 20
0.8508707953189293
 42
0.0
 10
-1.057658934172324
 20
0.937920245910589
 42
0.0
 10
-1.070299307368083
 20
1.009836618306459
 42
0.0
 10
-0.994159123401477
 20
1.076520214948666
 42
0.0
 10
-0.8723209946423359
 20
1.060646324455459
 42
0.0
 10
-0.7700844450177213
 20
1.091625903701886
 42
0.0
 10
-0.860675887234748
 20
1.302728195299518
 42
0.0694539362561951
 10
-1.285060320254574
 20
1.034379739062213
 42
0.0
 10
-1.28443698072904
 20
1.031810625792663
 42
0.0
 10
-1.283427740811008
 20
1.025962659067531
 42
0.0
 10
-1.282883765040315
 20
1.020384790601721
 42
0.0
 10
-1.282794790688841
 20
1.015158279337103
 42
0.0
 10
-1.283150555028494
 20
1.010364384215337
 42
0.0
 10
-1.283940795331114
 20
1.006084364178193
 42
0.0
 10
-1.285155248868529
 20
1.002399478167347
 42
0.0
 10
-1.286783652912649
 20
0.9993909851245373
 42
0.0
 10
-1.288815744735296
 20
0.9971401439914991
 42
0.0
 10
-1.291237598932683
 20
0.9956854683472879
 42
0.0
 10
-1.294020639398388
 20
0.9948944903203848
 42
0.0
 10
-1.297132627350298
 20
0.994591996676675
 42
0.0
 10
-1.300541324006411
 20
0.9946027741818856
 42
0.0
 10
-1.304214490584309
 20
0.9947516096020754
 42
0.0
 10
-1.308119888302641
 20
0.9948632897029526
 42
0.0
 10
-1.31222527837873
 20
0.9947626012502999
 42
0.0
 10
-1.31649842203047
 20
0.994274331010089
 42
0.0
 10
-1.320911448957898
 20
0.9932630798866558
 42
0.0
 10
-1.325453962788244
 20
0.991752705338736
 42
0.0
 10
-1.330119935630618
 20
0.9898068789636429
 42
0.0
 10
-1.33490333959415
 20
0.9874892723586807
 42
0.0
 10
-1.339798146788058
 20
0.9848635571211104
 42
0.0
 10
-1.343411683971197
 20
0.9827893524515925
 42
0.0259128597512806
 10
-1.474842021038514
 20
0.8482089932967133
 42
0.0
 10
-1.414766899863963
 20
0.8597415617425173
 42
0.0
 10
-1.405253621525861
 20
0.8298421372592496
 42
0.0
 10
-1.369247983365501
 20
0.7425193029550086
 42
0.0
 10
-1.413019064646058
 20
0.71212923626747
 42
0.0
 10
-1.454443030760526
 20
0.7648017677974151
 42
0.0
 10
-1.474792965006806
 20
0.7254005867320681
 42
0.0
 10
-1.512980296137017
 20
0.742060826572825
 42
0.0
 10
-1.538252291748599
 20
0.7052093539951113
 42
0.0
 10
-1.595648974400987
 20
0.695102613876056
 42
0.010697764786542
 10
-1.639066968502945
 20
0.6306624811534409
 42
0.0
 10
-1.630224410977345
 20
0.6313248350404449
 42
0.0
 10
-1.610968750334318
 20
0.6337542446675215
 42
0.0
 10
-1.594306422001471
 20
0.6366830057161202
 42
0.0
 10
-1.579968824756936
 20
0.6398377836640153
 42
0.0
 10
-1.567687357378772
 20
0.6429452439889707
 42
0.0
 10
-1.55719341864552
 20
0.6457320521687531
 42
0.0
 10
-1.548218407335807
 20
0.647924873680667
 42
0.0
 10
-1.540493722227359
 20
0.6492503740028712
 42
0.0
 10
-1.533774262437247
 20
0.6494950390578578
 42
0.0
 10
-1.527908928436919
 20
0.6486846365478457
 42
0.0
 10
-1.52277012103633
 20
0.6469047546200092
 42
0.0
 10
-1.518230241045429
 20
0.6442409814214694
 42
0.0
 10
-1.514161689274267
 20
0.6407789050994451
 42
0.0
 10
-1.510436866532793
 20
0.6366041138010579
 42
0.0
 10
-1.506928173630979
 20
0.6318021956734713
 42
0.0
 10
-1.503508011378884
 20
0.626458738863877
 42
0.0
 10
-1.500093199048354
 20
0.6206583899149729
 42
0.0
 10
-1.496778229759645
 20
0.6144820289526545
 42
0.0
 10
-1.493702015094804
 20
0.608009594498332
 42
0.0
 10
-1.491003466635909
 20
0.6013210250733517
 42
0.0
 10
-1.48882149596512
 20
0.5944962591992724
 42
0.0
 10
-1.48729501466451
 20
0.5876152353974323
 42
0.0
 10
-1.486562934316178
 20
0.5807578921892112
 42
0.0
 10
-1.486764166502243
 20
0.5740041680961009
 42
0.0
 10
-1.487975956405001
 20
0.5674067602034727
 42
0.0
 10
-1.490028883607566
 20
0.5609093998525897
 42
0.0
 10
-1.492691861293285
 20
0.5544285769485012
 42
0.0
 10
-1.495733802645241
 20
0.5478807813966908
 42
0.0
 10
-1.498923620847436
 20
0.5411825031012857
 42
0.0
 10
-1.502030229082412
 20
0.534250231968613
 42
0.0
 10
-1.504822540533798
 20
0.5270004579033559
 42
0.0
 10
-1.507069468384948
 20
0.5193496708105731
 42
0.0
 10
-1.508620808154205
 20
0.5112648317541212
 42
0.0
 10
-1.509649884700379
 20
0.5029147864319804
 42
0.0
 10
-1.510410905217518
 20
0.4945188517006547
 42
0.0
 10
-1.511158076899375
 20
0.4862963444167693
 42
0.0
 10
-1.512145606940031
 20
0.4784665814369572
 42
0.0
 10
-1.513627702533256
 20
0.4712488796177197
 42
0.0
 10
-1.515858570873066
 20
0.4648625558156596
 42
0.0
 10
-1.519092419153338
 20
0.4595269268873399
 42
0.0
 10
-1.523517460985784
 20
0.4553779835667649
 42
0.0
 10
-1.529057935653025
 20
0.4522184120976757
 42
0.0
 10
-1.535572088855478
 20
0.4497675726011528
 42
0.0
 10
-1.542918166293574
 20
0.4477448251983383
 42
0.0
 10
-1.550954413667708
 20
0.4458695300103497
 42
0.0
 10
-1.559539076678228
 20
0.443861047158344
 42
0.0
 10
-1.568530401025726
 20
0.4414387367633881
 42
0.0
 10
-1.577786632410397
 20
0.4383219589466867
 42
0.0
 10
-1.58728924204026
 20
0.4344651469381394
 42
0.0
 10
-1.597512603152245
 20
0.4307630264034374
 42
0.0
 10
-1.609054314491382
 20
0.428345396116786
 42
0.0
 10
-1.622511974802193
 20
0.4283420548526782
 42
0.0
 10
-1.638483182829373
 20
0.4318828013854789
 42
0.0
 10
-1.657565537317579
 20
0.4400974344896078
 42
0.0
 10
-1.680356637011443
 20
0.4541157529394003
 42
0.0
 10
-1.721180884803472
 20
0.4856811504371256
 42
0.5417265781678418
 10
-1.749916033343263
 20
0.4756858195950013
 42
0.1342797468875948
 97
        0
 92
        7
 72
     0
 73
     1
 93
       20
 10
-0.688596399409267
 20
1.284753618420916
 10
-0.74036207454267
 20
1.295262417666125
 10
-0.7402399807868524
 20
1.294626640316373
 10
-0.7673902972138146
 20
1.266889090185531
 10
-0.724169940989447
 20
1.169808731015481
 10
-0.7462388651026253
 20
1.098851558669407
 10
-0.7700844450177213
 20
1.091625903701886
 10
-0.7539576194866962
 20
1.054046086641
 10
-0.7028045348762092
 20
1.054523338928361
 10
-0.6695701054774924
 20
1.049299305742166
 10
-0.6206993113969553
 20
1.056949603001452
 10
-0.610589299259512
 20
1.012771076075188
 10
-0.5638405004615727
 20
1.039494242858985
 10
-0.3987697685019608
 20
1.020540030614376
 10
-0.3815113728129782
 20
1.065527312231683
 10
-0.4202912332892065
 20
1.100583782400277
 10
-0.5679725471358158
 20
1.310671297955329
 10
-0.5703064322442517
 20
1.312479429584884
 10
-0.5933540832256012
 20
1.411968676355549
 10
-0.6202702616002133
 20
1.339685046117206
 97
        0
 75
     0
 76
     1
 52
121.2565632672354
 41
0.4540155660649378
 77
     0
 78
     1
 53
166.2565632672355
 43
-18.03536836578793
 44
-21.23740018399512
 45
-0.0134828221139029
 46
-0.055127097285973
 79
     0
 47
0.0034673366850673
 98
        2
 10
-1.675445210520349
 20
0.0385229724297317
 10
-0.6232173107527924
 20
1.240397731713848
  0
HATCH
  5
9CB
330
1F
100
AcDbEntity
  8
ceco.net 74
 62
    83
380
     1
100
AcDbHatch
 10
0.0
 20
0.0
 30
0.0
210
0.0
220
0.0
230
1.0
  2
ANSI31
 70
     0
 71
     0
 91
        1
 92
        7
 72
     1
 73
     1
 93
       36
 10
-0.8638895815509519
 20
1.585152239123859
 42
0.372340547746278
 10
-0.922400039041935
 20
1.595313341485015
 42
0.0871387694220043
 10
-1.396867379702482
 20
1.183548214251282
 42
0.5293802227879486
 10
-1.38823327939091
 20
1.154778222054172
 42
0.0
 10
-1.346216548354292
 20
1.141527681961129
 42
0.0
 10
-1.335612012635039
 20
1.137153353448148
 42
0.0
 10
-1.32722593452477
 20
1.13261789779947
 42
0.0
 10
-1.320757728037451
 20
1.127995819507312
 42
0.0
 10
-1.313856026470579
 20
1.121402464999575
 42
0.0
 10
-1.30895117970372
 20
1.112763993789325
 42
0.0
 10
-1.306140808123796
 20
1.104536697855598
 42
0.0
 10
-1.304821327145459
 20
1.098713617705009
 42
0.0
 10
-1.30409443853066
 20
1.095038420282985
 42
0.0
 10
-1.303371136022444
 20
1.091271054353766
 42
0.0
 10
-1.302548580725221
 20
1.087317002838771
 42
0.0
 10
-1.301523933742125
 20
1.083081748656722
 42
0.0
 10
-1.300194356176783
 20
1.078470774726769
 42
0.0
 10
-1.298492550956286
 20
1.073419047568073
 42
0.0
 10
-1.296493388301296
 20
1.067979468098791
 42
0.0
 10
-1.294307280254696
 20
1.0622344208356
 42
0.0
 10
-1.292044638865476
 20
1.056266290303284
 42
0.0
 10
-1.289815876173007
 20
1.050157461013037
 42
0.0
 10
-1.287731404223346
 20
1.04399031748575
 42
0.0
 10
-1.285901635060578
 20
1.037847244239555
 42
0.0
 10
-1.285060320254574
 20
1.034379739062213
 42
-0.0694539362561943
 10
-0.860675887234748
 20
1.302728195299518
 42
0.0
 10
-0.7700844450177213
 20
1.091625903701886
 42
0.0
 10
-0.7462388651026202
 20
1.098851558669398
 42
0.0
 10
-0.724169940989447
 20
1.169808731015481
 42
0.0
 10
-0.7673902972138095
 20
1.266889090185522
 42
0.0
 10
-0.7402399807868524
 20
1.294626640316373
 42
0.0
 10
-0.7514746760160968
 20
1.353128933979897
 42
-0.004022034380741
 10
-0.7270413933717296
 20
1.369148411034285
 42
0.0
 10
-0.7758151916653384
 20
1.40176836989698
 42
0.0
 10
-0.7269797408882294
 20
1.450271319906485
 42
0.0
 10
-0.7445381266086251
 20
1.536268523439199
 42
0.0
 97
        0
 75
     0
 76
     1
 52
121.2565632672354
 41
0.4540155660649378
 77
     0
 78
     1
 53
166.2565632672355
 43
-18.03536836578793
 44
-21.23740018399512
 45
-0.0134828221139029
 46
-0.055127097285973
 79
     0
 47
0.0135824275751765
 98
        1
 10
-1.004853172025146
 20
1.395587244732275
  0
HATCH
  5
9CC
330
1F
100
AcDbEntity
  8
ceco.net 74
 62
    87
380
     1
100
AcDbHatch
 10
0.0
 20
0.0
 30
0.0
210
0.0
220
0.0
230
1.0
  2
ANSI31
 70
     0
 71
     0
 91
        1
 92
        7
 72
     1
 73
     1
 93
        5
 10
-0.5769649272356621
 20
1.455981896769226
 42
0.0279068453020032
 10
-0.7514746760160968
 20
1.353128933979897
 42
0.0
 10
-0.7403620745426866
 20
1.295262417666114
 42
0.0
 10
-0.6885963994092503
 20
1.284753618420927
 42
0.0
 10
-0.6202702616002184
 20
1.339685046117214
 42
0.0
 97
        0
 75
     0
 76
     1
 52
121.2565632672354
 41
0.4540155660649378
 77
     0
 78
     1
 53
166.2565632672355
 43
-18.03536836578793
 44
-21.23740018399512
 45
-0.0134828221139029
 46
-0.055127097285973
 79
     0
 47
0.0069750031500802
 98
        1
 10
-0.6905438594308285
 20
1.346064285690758
  0
HATCH
  5
9CD
330
1F
100
AcDbEntity
  8
ceco.net 74
 62
    81
380
     1
100
AcDbHatch
 10
0.0
 20
0.0
 30
0.0
210
0.0
220
0.0
230
1.0
  2
ANSI31
 70
     0
 71
     0
 91
        1
 92
        7
 72
     1
 73
     1
 93
      208
 10
0.3087484612751874
 20
1.266008209527311
 42
0.0
 10
0.2517323840564792
 20
1.248748323103041
 42
0.0
 10
0.2213208203569904
 20
1.272865706101535
 42
0.0
 10
0.1292635619165729
 20
1.21978033620382
 42
0.0
 10
0.0563955220166088
 20
1.23434764480918
 42
0.0
 10
0.0052809287462785
 20
1.355771043153231
 42
0.0
 10
0.0083935350633895
 20
1.478599466984335
 42
0.0
 10
-0.065849297675465
 20
1.54738922975845
 42
0.0
 10
-0.1360604306919544
 20
1.527335789812854
 42
0.0
 10
-0.2166674942565246
 20
1.461204944604592
 42
0.0
 10
-0.28266541723098
 20
1.467944968023623
 42
0.0
 10
-0.4385847754093346
 20
1.257186876449106
 42
0.0
 10
-0.4836518190961144
 20
1.245345470713604
 42
0.0
 10
-0.5679725471358158
 20
1.310671297955329
 42
0.0
 10
-0.4202912332892065
 20
1.100583782400277
 42
0.0
 10
-0.3815113728129731
 20
1.065527312231674
 42
0.0
 10
-0.3987697685019441
 20
1.020540030614386
 42
0.0
 10
-0.5638405004615727
 20
1.039494242858985
 42
0.0
 10
-0.6105892992595287
 20
1.012771076075178
 42
0.0
 10
-0.620699311396972
 20
1.056949603001442
 42
0.0
 10
-0.6695701054774874
 20
1.049299305742158
 42
0.0
 10
-0.7028045348762042
 20
1.054523338928352
 42
0.0
 10
-0.7539576194866795
 20
1.05404608664101
 42
0.0
 10
-0.7700844450177213
 20
1.091625903701886
 42
0.0
 10
-0.8723209946423359
 20
1.060646324455459
 42
0.0
 10
-0.9941591234014936
 20
1.076520214948656
 42
0.0
 10
-1.070299307368083
 20
1.009836618306459
 42
0.0
 10
-1.057658934172324
 20
0.937920245910589
 42
0.0
 10
-1.000272694217494
 20
0.8508707953189375
 42
0.0
 10
-1.0138420880924
 20
0.785932168119872
 42
0.0
 10
-0.8204483090457603
 20
0.6089331126281959
 42
0.0
 10
-0.8133596028419489
 20
0.5628787147837419
 42
0.0
 10
-0.8891441986306361
 20
0.4836784278225884
 42
0.0
 10
-1.04946535080112
 20
0.4637900413222527
 42
0.0
 10
-1.107069435079283
 20
0.3889511116810815
 42
0.0
 10
-1.197501717953747
 20
0.3845019727450031
 42
0.0
 10
-1.343557355172884
 20
0.5907651600582989
 42
0.0
 10
-1.387667481580191
 20
0.613768225485851
 42
0.0581404064913869
 10
-1.496459443293599
 20
0.1198171589490307
 42
0.0
 10
-1.398213386274311
 20
0.1496001168482639
 42
0.0
 10
-1.365706784858669
 20
0.0923614652991581
 42
0.0
 10
-1.299573849486269
 20
0.0669593989783475
 42
0.0
 10
-1.339437713710685
 20
-0.0013966747339838
 42
0.0
 10
-1.321405205423063
 20
-0.0608588107157214
 42
0.0
 10
-1.37106501507476
 20
-0.1040487524976861
 42
0.0
 10
-1.406917075796015
 20
-0.1214100456685365
 42
0.0
 10
-1.450112661008263
 20
-0.0717402984885395
 42
0.0
 10
-1.506796412123232
 20
-0.0439870528717386
 42
0.0409974157489475
 10
-1.486606951031195
 20
-0.4006764050348468
 42
0.0
 10
-1.457193029784841
 20
-0.3999155012826616
 42
0.0
 10
-1.435134279704261
 20
-0.4012537538785493
 42
0.0
 10
-1.419304159582566
 20
-0.4043465645872356
 42
0.0
 10
-1.408576128213016
 20
-0.4088493351733448
 42
0.0
 10
-1.401823644388653
 20
-0.4144174674016409
 42
0.0
 10
-1.397920166902701
 20
-0.4207063630367711
 42
0.0
 10
-1.395739154548298
 20
-0.4273714238434902
 42
0.0
 10
-1.394154066118641
 20
-0.4340680515864167
 42
0.0
 10
-1.392238403933319
 20
-0.4405138625094009
 42
0.0
 10
-1.389865844417808
 20
-0.446675330772333
 42
0.0
 10
-1.387110107524014
 20
-0.4525811450144594
 42
0.0
 10
-1.275553358623952
 20
-0.3814367694134153
 42
0.0
 10
-1.272252426829423
 20
-0.3869173415308482
 42
0.0
 10
-1.268789477512448
 20
-0.3922283255445688
 42
0.0
 10
-1.265238230624838
 20
-0.3973984100937197
 42
0.0
 10
-1.261672406119483
 20
-0.4024562838160409
 42
0.0
 10
-1.258150174709277
 20
-0.4074157061054821
 42
0.0
 10
-1.254667510164923
 20
-0.4122307193549546
 42
0.0
 10
-1.251204837018132
 20
-0.4168404367124165
 42
0.0
 10
-1.24774257980072
 20
-0.421183971325466
 42
0.0
 10
-1.244261163044762
 20
-0.4252004363415382
 42
0.0
 10
-1.240741011282207
 20
-0.4288289449079348
 42
0.0
 10
-1.237162549045224
 20
-0.432008610172011
 42
0.0
 10
-1.233506200865729
 20
-0.4346785452811977
 42
0.0
 10
-1.229772109858993
 20
-0.4368127263536814
 42
0.0
 10
-1.226039293473231
 20
-0.4385245813913951
 42
0.0
 10
-1.222406487739764
 20
-0.4399624013672097
 42
0.0
 10
-1.216650060595725
 20
-0.4421618013013173
 42
0.0
 10
-1.211555146569966
 20
-0.4449607763302362
 42
0.0
 10
-1.20837602082332
 20
-0.4493723115307566
 42
0.0
 10
-1.207754994287166
 20
-0.4562038340859205
 42
0.0
 10
-1.209696195893872
 20
-0.4647687683236269
 42
0.0
 10
-1.212915974600053
 20
-0.4719309793893359
 42
0.0
 10
-1.215615980403117
 20
-0.4768420378214456
 42
0.0
 10
-1.218850065086787
 20
-0.4818177765897041
 42
0.0
 10
-1.222577051741197
 20
-0.4867872378342537
 42
0.0
 10
-1.226681540365108
 20
-0.4917105067923562
 42
0.0
 10
-1.231029575184537
 20
-0.4965554294755461
 42
0.0
 10
-1.235487200425292
 20
-0.5012898518952177
 42
0.0
 10
-1.23992046031331
 20
-0.5058816200629254
 42
0.0
 10
-1.24419539907508
 20
-0.5102985799905581
 42
0.0
 10
-1.24817806093594
 20
-0.5145085776891908
 42
0.0
 10
-1.251734490122088
 20
-0.5184794591705133
 42
0.0
 10
-1.254775020523895
 20
-0.5221921444467258
 42
0.0
 10
-1.257387144689741
 20
-0.5256798495331006
 42
0.0
 10
-1.259702644832324
 20
-0.5289888644454499
 42
0.0
 10
-1.261853303164325
 20
-0.5321654791995318
 42
0.0
 10
-1.265311517036977
 20
-0.5372125288362017
 42
0.0
 10
-1.268634049424601
 20
-0.5413638226715984
 42
0.0
 10
-1.271443162641953
 20
-0.5444737369518004
 42
0.0
 10
-1.383257073894283
 20
-0.6244670394547835
 42
0.0
 10
-1.387320327244091
 20
-0.6275491404756824
 42
0.0
 10
-1.392371304695141
 20
-0.6303562375334964
 42
0.0
 10
-1.398656833671584
 20
-0.6327013036861713
 42
0.0
 10
-1.406423741597465
 20
-0.6343973119915294
 42
0.0
 10
-1.41591885589687
 20
-0.635257235507546
 42
0.0
 10
-1.427389003993913
 20
-0.6350940472920048
 42
0.0
 10
-1.482680334677164
 20
-0.6295482527050248
 42
0.0
 10
-1.482860074092334
 20
-0.6834934709160347
 42
0.0
 10
-1.533757421461126
 20
-0.7953235654780281
 42
0.0
 10
-1.492327273783063
 20
-0.887668422069945
 42
0.0
 10
-1.419865239063854
 20
-0.8966682652608824
 42
0.0
 10
-1.319816351593688
 20
-0.8673253359516461
 42
0.0
 10
-1.261709722519329
 20
-0.8993374182057745
 42
0.0
 10
-1.035788711563817
 20
-0.76633547751416
 42
0.0
 10
-0.9896798330458761
 20
-0.7730607015457576
 42
0.0
 10
-0.9361787761374236
 20
-0.8687352923379991
 42
0.0
 10
-0.9383644341446752
 20
-0.8811598372723693
 42
0.1176921684285055
 10
0.0584598796455936
 20
-0.6992694687918388
 42
0.8270561609405422
 10
0.0384706255306598
 20
-0.6123479342721434
 42
0.0
 10
0.0340349140078368
 20
-0.6125134057551655
 42
-0.2799778283021079
 10
-0.0111131761868121
 20
-0.5086264954479502
 42
0.8616245048497866
 10
-0.0668128112972343
 20
-0.4923441391233487
 42
-0.7335825464443675
 10
-0.1360156847025151
 20
-0.483450586600546
 42
0.0
 10
-0.0524190328726307
 20
-0.4380746689029444
 42
0.0
 10
-0.1032645660078812
 20
-0.3665306427040733
 42
0.0
 10
-0.0935678190009614
 20
-0.33257482943247
 42
0.0
 10
-0.162839340345461
 20
-0.2594231487530494
 42
0.0
 10
-0.119515227960123
 20
-0.1889562312151183
 42
0.0
 10
-0.0743139884554015
 20
-0.1796162890981021
 42
0.0
 10
0.1378643591312951
 20
-0.268092140222504
 42
0.0
 10
0.196800062225144
 20
-0.2475333832976204
 42
0.0
 10
0.1996144597258489
 20
-0.1992328771651427
 42
0.0
 10
0.1545350174704071
 20
-0.1596040950145637
 42
0.0
 10
0.1802764826119577
 20
-0.1104483087620232
 42
0.0
 10
0.2654439692693094
 20
-0.1164512866241913
 42
0.0
 10
0.318329206879015
 20
-0.181034149081289
 42
0.5046405816136971
 10
0.41489157941758
 20
-0.1223513587267851
 42
-0.3508021785107036
 10
0.4809966617200034
 20
-0.1797095318651786
 42
-0.1256811602615205
 10
0.5583645143249094
 20
-0.1836806741306955
 42
0.0
 10
0.5587673239629066
 20
-0.1826459643920468
 42
0.0
 10
0.5607067025649895
 20
-0.1762072494037082
 42
0.0
 10
0.5623164330002633
 20
-0.1695165023315755
 42
0.0
 10
0.5645219671126752
 20
-0.162859515796646
 42
0.0
 10
0.5684485698825982
 20
-0.1565850329111643
 42
0.0
 10
0.5752215062904737
 20
-0.1510417967872991
 42
0.0
 10
0.5859660413167232
 20
-0.1465785505372996
 42
0.0
 10
0.6018074399417111
 20
-0.1435440372733586
 42
0.0
 10
0.6238709671459794
 20
-0.1422870001076978
 42
0.0
 10
0.6933828056169777
 20
-0.1443412860780925
 42
0.3851675971201811
 10
0.7119273091035545
 20
-0.1285378118924423
 42
0.0467655927702327
 10
0.7242153589380851
 20
0.2102149572357252
 42
0.5431042967910278
 10
0.6977539872915049
 20
0.2253139303927865
 42
0.0
 10
0.6550758703935511
 20
0.2032824491647879
 42
0.0
 10
0.6383036170663737
 20
0.1935164870380264
 42
0.0
 10
0.624113456206302
 20
0.1843050722976251
 42
0.0
 10
0.6121512872801408
 20
0.1757947354516285
 42
0.0
 10
0.6020630097548086
 20
0.1681320070080816
 42
0.0
 10
0.5934945230970444
 20
0.1614634174750235
 42
0.0
 10
0.5860917267737236
 20
0.1559354973604958
 42
0.0
 10
0.5795005202516941
 20
0.1516947771725464
 42
0.0
 10
0.5734118249994149
 20
0.1488419205367169
 42
0.0
 10
0.5650133337330299
 20
0.1465674213994727
 42
0.0
 10
0.5570509896210401
 20
0.1475990253690877
 42
0.0
 10
0.5519525662110664
 20
0.1491943826039274
 42
0.0
 10
0.5468917894540657
 20
0.1515801163394851
 42
0.0
 10
0.5417846908271057
 20
0.1546275557890611
 42
0.0
 10
0.5365473018072576
 20
0.1582080301656492
 42
0.0
 10
0.531136166963087
 20
0.1622111053434053
 42
0.0
 10
0.525669883229813
 20
0.1665992938386301
 42
0.0
 10
0.5203075606344454
 20
0.1713533448283377
 42
0.0
 10
0.5152083092038788
 20
0.1764540074896553
 42
0.0
 10
0.5105312389650348
 20
0.1818820309997036
 42
0.0
 10
0.506435459944841
 20
0.187618164535481
 42
0.0
 10
0.5030800821701952
 20
0.1936431572741852
 42
0.0
 10
0.5006242156680604
 20
0.1999377583927561
 42
0.0
 10
0.4991595618275582
 20
0.2064836742795606
 42
0.0
 10
0.4985081874866755
 20
0.2132664401679553
 42
0.0
 10
0.4984247508455724
 20
0.2202725485025494
 42
0.0
 10
0.4986639101046069
 20
0.2274884917276264
 42
0.0
 10
0.498980323463624
 20
0.2349007622884277
 42
0.0
 10
0.4991286491229917
 20
0.2424958526292198
 42
0.0
 10
0.4988635452830223
 20
0.2502602551943616
 42
0.0
 10
0.4979396701438027
 20
0.2581804624286579
 42
0.0
 10
0.496205860353327
 20
0.2662281441606208
 42
0.0
 10
0.4938876663508808
 20
0.27431567975486
 42
0.0
 10
0.491304817023636
 20
0.2823406259597256
 42
0.0
 10
0.4887770412586007
 20
0.290200539523914
 42
0.0
 10
0.4866240679429277
 20
0.2977929771959578
 42
0.0
 10
0.4851656259636746
 20
0.3050154957243207
 42
0.0
 10
0.4847214442080029
 20
0.3117656518574833
 42
0.0
 10
0.4856112515629311
 20
0.3179410023440114
 42
0.0
 10
0.4880614535116415
 20
0.3234899875040893
 42
0.0
 10
0.491925161921023
 20
0.3285645819444321
 42
0.0
 10
0.4969621652540713
 20
0.3333676438434303
 42
0.0
 10
0.502932251973766
 20
0.3381020313794994
 42
0.0
 10
0.5095952105430194
 20
0.3429706027309793
 42
0.0
 10
0.5167108294248281
 20
0.3481762160762958
 42
0.0
 10
0.524038897082127
 20
0.3539217295938257
 42
0.0
 10
0.5313392019779122
 20
0.3604100014619597
 42
0.0
 10
0.5385768717237714
 20
0.367675724089057
 42
0.0
 10
0.5465383905261535
 20
0.3750809268034894
 42
0.0
 10
0.5562155817401106
 20
0.3818194731635804
 42
0.0
 10
0.5686002687207113
 20
0.3870852267276639
 42
0.0
 10
0.5846842748230412
 20
0.3900720510540839
 42
0.0
 10
0.6054594234021535
 20
0.3899738097011993
 42
0.0
 10
0.6319175378132345
 20
0.385984366227301
 42
0.0
 10
0.6818346401165957
 20
0.372897104305844
 42
0.541726578167856
 10
0.7043728189203589
 20
0.3933334908860978
 42
0.1342797468875946
 97
        0
 75
     0
 76
     1
 52
121.2565632672354
 41
0.4540155660649378
 77
     0
 78
     1
 53
166.2565632672355
 43
-18.03536836578793
 44
-21.23740018399512
 45
-0.0134828221139029
 46
-0.055127097285973
 79
     0
 47
0.012273634511544
 98
        1
 10
-0.4341614379383639
 20
0.2297701527518084
  0
HATCH
  5
9CE
330
1F
100
AcDbEntity
  8
ceco.net 74
 62
    82
380
     1
100
AcDbHatch
 10
0.0
 20
0.0
 30
0.0
210
0.0
220
0.0
230
1.0
  2
ANSI31
 70
     0
 71
     0
 91
        2
 92
        7
 72
     1
 73
     1
 93
      152
 10
1.462645940164306
 20
0.8102801621856336
 42
0.5046405816137185
 10
1.398390230772117
 20
0.9032272734079558
 42
0.0
 10
1.32377268158267
 20
0.8658104879614432
 42
0.0
 10
1.243554948685726
 20
0.8950449172463383
 42
0.0
 10
1.240086029330113
 20
0.9504243443672773
 42
0.0
 10
1.297403900011126
 20
0.968236087386864
 42
0.0
 10
1.314522229967755
 20
1.01348896028396
 42
0.0
 10
1.269085202639418
 20
1.056285643952531
 42
0.0
 10
1.116378368400624
 20
1.060070842627059
 42
0.0
 10
1.029816657280816
 20
1.005882517253746
 42
0.0
 10
0.994559204240614
 20
0.902089923978982
 42
0.0
 10
1.020430470028761
 20
0.8633351188191303
 42
0.0
 10
1.270473829727282
 20
0.7845433826435703
 42
0.0
 10
1.285592172027288
 20
0.7199477985938058
 42
0.0
 10
1.374366879464808
 20
0.6652683810416188
 42
0.0
 10
1.416190307782956
 20
0.6054140203247272
 42
0.0
 10
1.375325629115969
 20
0.5128175424594783
 42
0.0
 10
1.258178195200311
 20
0.475763679693316
 42
0.0
 10
1.160017300510735
 20
0.387895698810887
 42
0.0
 10
1.169972097889213
 20
0.314255630043815
 42
0.0
 10
1.250140897124159
 20
0.2445020712960987
 42
0.0
 10
1.237240958350422
 20
0.2078946547117739
 42
0.0
 10
1.272126363265255
 20
0.1596065064275854
 42
-0.1342797468875949
 10
0.5758430973718058
 20
-0.4986255275501375
 42
-0.5417265781678362
 10
0.549181416810277
 20
-0.4839704878066899
 42
0.0
 10
0.5453007917416346
 20
-0.432512405098048
 42
0.0
 10
0.5404571980861176
 20
-0.4061972558885366
 42
0.0
 10
0.5337850391387074
 20
-0.3865224307348695
 42
0.0
 10
0.5257235451824178
 20
-0.3722876603801973
 42
0.0
 10
0.5167119465003799
 20
-0.3622926755678619
 42
0.0
 10
0.5071894733756698
 20
-0.355337207041079
 42
0.0
 10
0.4975953560913241
 20
-0.3502209855431104
 42
0.0
 10
0.4883688249303856
 20
-0.345743741817192
 42
0.0
 10
0.479856974918409
 20
-0.3409541141928802
 42
0.0
 10
0.4720383600506024
 20
-0.335896371344707
 42
0.0
 10
0.4647993990644284
 20
-0.330863689533441
 42
0.0
 10
0.4580265106976284
 20
-0.3261492450199333
 42
0.0
 10
0.4516061136877473
 20
-0.3220462140649374
 42
0.0
 10
0.4454246267723906
 20
-0.3188477729293066
 42
0.0
 10
0.4393684686891623
 20
-0.3168470978738156
 42
0.0
 10
0.4333240581756421
 20
-0.3163373651592765
 42
0.0
 10
0.4271955351654926
 20
-0.3175069447736957
 42
0.0
 10
0.4209579243763273
 20
-0.3201249816139961
 42
0.0
 10
0.4146039717218199
 20
-0.3238558143042967
 42
0.0
 10
0.4081264231155775
 20
-0.328363781468758
 42
0.0
 10
0.4015180244713608
 20
-0.333313221731492
 42
0.0
 10
0.3947715217028263
 20
-0.3383684737165144
 42
0.0
 10
0.3878796607233817
 20
-0.3431938760483347
 42
0.0
 10
0.3808351874470968
 20
-0.3474537673505574
 42
0.0
 10
0.3736475005356788
 20
-0.3509063583731836
 42
0.0
 10
0.3663926096441048
 20
-0.3536853483679985
 42
0.0
 10
0.3591631771757124
 20
-0.3560183087123787
 42
0.0
 10
0.3520518655337288
 20
-0.3581328107837454
 42
0.0
 10
0.3451513371216079
 20
-0.36025642595929
 42
0.0
 10
0.3385542543423201
 20
-0.3626167256167268
 42
0.0
 10
0.332353279599316
 20
-0.3654412811332039
 42
0.0
 10
0.3266410752958734
 20
-0.3689576638862256
 42
0.0
 10
0.3214892584896872
 20
-0.3733293989094917
 42
0.0
 10
0.316885264856135
 20
-0.378463825862297
 42
0.0
 10
0.312795484725081
 20
-0.3842042380602837
 42
0.0
 10
0.3091863084263742
 20
-0.3903939288190685
 42
0.0
 10
0.3060241262897887
 20
-0.3968761914543713
 42
0.0
 10
0.3032753286452017
 20
-0.4034943192817807
 42
0.0
 10
0.3009063058225374
 20
-0.4100916056168108
 42
0.0
 10
0.2988834481515031
 20
-0.4165113437753359
 42
0.0
 10
0.2972035810093115
 20
-0.4226291936338779
 42
0.0
 10
0.2959852699628289
 20
-0.4284502813137027
 42
0.0
 10
0.2953775156259417
 20
-0.4340120994972807
 42
0.0
 10
0.2955293186128913
 20
-0.4393521408667641
 42
0.0
 10
0.2965896795377238
 20
-0.444507898104435
 42
0.0
 10
0.2987075990145208
 20
-0.4495168638926339
 42
0.0
 10
0.3020320776573654
 20
-0.4544165309136664
 42
0.0
 10
0.306712116080369
 20
-0.459244391849809
 42
0.0
 10
0.3128680084996124
 20
-0.464095443246346
 42
0.0
 10
0.3205052235390387
 20
-0.4692946971004521
 42
0.0
 10
0.3296005234246861
 20
-0.4752246692722903
 42
0.0
 10
0.3401306703820123
 20
-0.4822678756216328
 42
0.0
 10
0.3520724266374441
 20
-0.4908068320089438
 42
0.0
 10
0.3654025544167556
 20
-0.5012240542942151
 42
0.0
 10
0.3800978159459028
 20
-0.5139020583376253
 42
0.0
 10
0.4148258544391403
 20
-0.5470799300214435
 42
-0.5431042967910278
 10
0.4091664849730533
 20
-0.5770157733712206
 42
-0.022198954341821
 10
0.2574570178279418
 20
-0.6314492735799795
 42
0.1001919703254641
 10
0.9769315147630603
 20
-0.5914436402180327
 42
0.0
 10
0.9768854020582658
 20
-0.5892923078908766
 42
0.0
 10
0.9764318015476906
 20
-0.5852108115455741
 42
0.0
 10
0.9757947277432574
 20
-0.5813561078278547
 42
0.0
 10
0.975152140390462
 20
-0.5777365241244795
 42
0.0
 10
0.9746819992354467
 20
-0.5743603878206384
 42
0.0
 10
0.9745622640238861
 20
-0.5712360263024462
 42
0.0
 10
0.9749708945017122
 20
-0.5683717669557246
 42
0.0
 10
0.9760858504147284
 20
-0.5657759371663495
 42
0.0
 10
0.9780422425425868
 20
-0.5634589967648886
 42
0.0
 10
0.9808037858003878
 20
-0.561439935360477
 42
0.0
 10
0.9842913461370445
 20
-0.559739875006883
 42
0.0
 10
0.988425789501381
 20
-0.558379937757918
 42
0.0
 10
0.9931279818423533
 20
-0.5573812456673466
 42
0.0
 10
0.9983187891089919
 20
-0.5567649207889801
 42
0.0
 10
1.003919077250014
 20
-0.556552085176568
 42
0.0
 10
1.009849712214418
 20
-0.5567638608839422
 42
0.0
 10
1.016028663085879
 20
-0.557401466334653
 42
0.0
 10
1.022362311487478
 20
-0.5583865054315521
 42
0.0
 10
1.028754142177092
 20
-0.5596206784472871
 42
0.0
 10
1.035107639912386
 20
-0.5610056856543842
 42
0.0
 10
1.041326289451731
 20
-0.5624432273257403
 42
0.0
 10
1.047313575551555
 20
-0.5638350037334649
 42
0.0
 10
1.052972982971012
 20
-0.565082715150575
 42
0.0
 10
1.058207996467529
 20
-0.5660880618496595
 42
0.0
 10
1.062956106054432
 20
-0.5667839874462202
 42
0.0
 10
1.067290822766445
 20
-0.5672284089276176
 42
0.0
 10
1.071319662894026
 20
-0.567510486624086
 42
0.0
 10
1.075150142727766
 20
-0.5677193808659631
 42
0.0
 10
1.078889778556535
 20
-0.5679442519830518
 42
0.0
 10
1.082646086672067
 20
-0.5682742603061401
 42
0.0
 10
1.086526583364248
 20
-0.5687985661652375
 42
0.0
 10
1.090638784923241
 20
-0.5696063298906548
 42
0.0
 10
1.216773473562529
 20
-0.6242992866288225
 42
0.0
 10
1.221507338431213
 20
-0.6261966263169283
 42
0.0
 10
1.226513807960502
 20
-0.6290823549866751
 42
0.0
 10
1.231759573902151
 20
-0.6332643580305807
 42
0.0
 10
1.23721132800791
 20
-0.6390505208412694
 42
0.0
 10
1.242835762029508
 20
-0.6467487288112172
 42
0.0
 10
1.248599567718712
 20
-0.656666867333038
 42
0.0
 10
1.254469436827205
 20
-0.6691128217992476
 42
0.0563879878528493
 10
1.559198960581239
 20
-0.2845736783830365
 42
0.0
 10
1.296500371749663
 20
-0.0986630654309786
 42
0.0
 10
1.24820505187015
 20
-0.0786531739526929
 42
0.0
 10
1.249365862287475
 20
-0.0304830561591154
 42
0.0
 10
1.411225104048722
 20
0.0070561842163499
 42
0.0
 10
1.446295286427637
 20
0.0479176592254153
 42
0.0
 10
1.470644441304627
 20
0.0096936714223079
 42
0.0
 10
1.514114030350829
 20
0.0333003736563741
 42
0.0
 10
1.547174337187494
 20
0.0395320613936947
 42
0.0
 10
1.595200997150762
 20
0.057147559334019
 42
0.0
 10
1.688993495906641
 20
-0.0440198696298413
 42
0.0285924839000197
 10
1.780323361397162
 20
0.1880301753934109
 42
0.8087036811191378
 10
1.698770042533589
 20
0.2318877601323476
 42
-0.3171145029224577
 10
1.592059778362778
 20
0.2638060072022764
 42
0.8616245048494258
 10
1.542703295343043
 20
0.2332854884839159
 42
-0.7335825464444042
 10
1.489809205739235
 20
0.1877844088372966
 42
0.0
 10
1.51198297389345
 20
0.2802814255995107
 42
0.0
 10
1.42478848039678
 20
0.2903281279645172
 42
0.0
 10
1.406029056308779
 20
0.3202464862974649
 42
0.0
 10
1.305316239862479
 20
0.3176695386734738
 42
0.0
 10
1.281902205125794
 20
0.3970064667626166
 42
0.0
 10
1.305188528434066
 20
0.43685786219985
 42
0.0
 10
1.512868726282672
 20
0.5354304894265639
 42
0.0
 10
1.536999868984465
 20
0.5929958222004654
 42
0.0
 10
1.502973014495627
 20
0.6273910675047231
 42
0.0
 10
1.443362265706263
 20
0.620379996433032
 42
0.0
 10
1.424032936361729
 20
0.6723924120357611
 42
0.0
 10
1.48269266205722
 20
0.7290285601878808
 42
-0.2939130520217972
 97
        0
 92
        7
 72
     1
 73
     1
 93
      114
 10
-0.6675391013200717
 20
-0.2437030675830561
 42
-0.1176921684285058
 10
-1.164113388423222
 20
0.6395617828992034
 42
0.0
 10
-1.311203582538583
 20
0.6161945365896442
 42
0.0
 10
-1.366220826740251
 20
0.5394338776827757
 42
0.0
 10
-1.456448670263336
 20
0.5319020202533943
 42
0.0
 10
-1.609456429467012
 20
0.7330620988664119
 42
0.0
 10
-1.654325679792837
 20
0.7545468526684449
 42
0.0581404064913869
 10
-1.746202011772552
 20
0.2571716555704532
 42
0.0
 10
-1.649029265444265
 20
0.2902891686425829
 42
0.0
 10
-1.614588757921233
 20
0.2341928781385406
 42
0.0
 10
-1.547627672035352
 20
0.2110618796447357
 42
0.0
 10
-1.585136201709941
 20
0.1413855516278067
 42
0.0
 10
-1.565085501626415
 20
0.0825732536212256
 42
0.0
 10
-1.613242875256742
 20
0.0377141951067622
 42
0.0
 10
-1.648481743052883
 20
0.0191398322651852
 42
0.0
 10
-1.693346780754195
 20
0.0673069450997029
 42
0.0
 10
-1.750944399349735
 20
0.0931101351127986
 42
0.0063683045515843
 10
-1.749751981563092
 20
0.0375371329007742
 42
0.0350183552087888
 10
-1.586605433398195
 20
-0.1572320078245775
 42
0.5080610491826072
 10
-1.52539674158874
 20
-0.1552408171675442
 42
-0.282007838847049
 10
-1.37081001039598
 20
-0.1017894854880115
 42
-0.3319483222919831
 10
-1.310314227130947
 20
-0.171753284980293
 42
0.5046405816137104
 10
-1.214827974135329
 20
-0.2321713051640227
 42
0.0
 10
-1.160784406225313
 20
-0.1685545837164065
 42
0.0
 10
-1.075522354853315
 20
-0.1640914992919062
 42
0.0
 10
-1.050673300959322
 20
-0.2137043894547709
 42
0.0
 10
-1.096461446167026
 20
-0.2525121495968024
 42
0.0
 10
-1.094520262508057
 20
-0.3008556241507403
 42
0.0
 10
-1.035965662901987
 20
-0.3224759490890572
 42
0.0
 10
-0.8222232629873952
 20
-0.2378484482660316
 42
0.0
 10
-0.7356762875968464
 20
-0.2518321497575236
 42
0.0
 10
-0.6936325333954451
 20
-0.323070397307048
 42
0.0
 10
-0.7642145419724466
 20
-0.3949584500059581
 42
0.0
 10
-0.8329381526774637
 20
-0.3911502031791561
 42
0.0
 10
-0.8850681321908286
 20
-0.4617638078208318
 42
0.0
 10
-0.8414833024816539
 20
-0.5831505866528321
 42
0.3723405477462983
 10
-0.8098622977445947
 20
-0.6334182074083408
 42
0.0871387694220034
 10
-0.1863483576961765
 20
-0.7102306017506861
 42
0.5293802227879128
 10
-0.1707561695921186
 20
-0.684556805589245
 42
0.0
 10
-0.1890405546020181
 20
-0.6444735950819405
 42
0.0
 10
-0.1928901366135051
 20
-0.6336675020739482
 42
0.0
 10
-0.1951348953201272
 20
-0.6244015578500101
 42
0.0
 10
-0.1960314022229661
 20
-0.6165023440742915
 42
0.0
 10
-0.1958362288231002
 20
-0.6097964424110015
 42
0.0
 10
-0.1948059466215198
 20
-0.6041104345241927
 42
0.0
 10
-0.1931971271192775
 20
-0.59927090207823
 42
0.0
 10
-0.1912663418174337
 20
-0.5951044267371629
 42
0.0
 10
-0.1892271721699313
 20
-0.591443215046073
 42
0.0
 10
-0.1871212394425669
 20
-0.5881419730737852
 42
0.0
 10
-0.1849471748539476
 20
-0.5850610317700097
 42
0.0
 10
-0.1827036096221119
 20
-0.5820607220835859
 42
0.0
 10
-0.1803891749677163
 20
-0.5790013749667257
 42
0.0
 10
-0.1780025021080952
 20
-0.5757433213675441
 42
0.0
 10
-0.175542222261484
 20
-0.5721468922350452
 42
0.0
 10
-0.1730069666472078
 20
-0.5680724185198672
 42
0.0
 10
-0.1703934756389481
 20
-0.5634263714857103
 42
0.0
 10
-0.1676909262301186
 20
-0.5582997836521086
 42
0.0
 10
-0.1648866045679296
 20
-0.5528298278520174
 42
0.0
 10
-0.1619677968058914
 20
-0.5471536769233469
 42
0.0
 10
-0.1589217890876221
 20
-0.5414085036956249
 42
0.0
 10
-0.1557358675634665
 20
-0.5357314810041773
 42
0.0
 10
-0.1523973183821445
 20
-0.530259781683127
 42
0.0
 10
-0.1488934276920831
 20
-0.5251305785660981
 42
0.0
 10
-0.1452248064006989
 20
-0.5204659780631595
 42
0.0
 10
-0.1414453644499425
 20
-0.5163278208887309
 42
0.0
 10
-0.1376223365401286
 20
-0.5127628813328967
 42
0.0
 10
-0.133822957372112
 20
-0.5098179336864347
 42
0.0
 10
-0.1301144616461425
 20
-0.5075397522394241
 42
0.0
 10
-0.12656408406299
 20
-0.5059751112824427
 42
0.0
 10
-0.1232390593230875
 20
-0.5051707851057952
 42
0.0
 10
-0.1202066221269814
 20
-0.5051735479999007
 42
0.0
 10
-0.1175047050988443
 20
-0.5059988378619196
 42
0.0
 10
-0.1150540325572409
 20
-0.5075367470161254
 42
0.0
 10
-0.1127460267443733
 20
-0.5096460313936657
 42
0.0
 10
-0.1104721099024188
 20
-0.5121854469256155
 42
0.0
 10
-0.1081237042735851
 20
-0.5150137495429999
 42
0.0
 10
-0.105592232100086
 20
-0.5179896951769847
 42
0.0
 10
-0.1027691156241176
 20
-0.5209720397585764
 42
0.0
 10
-0.0995457770877695
 20
-0.5238195392189569
 42
0.0
 10
-0.095840290810697
 20
-0.5264208479178475
 42
0.0
 10
-0.0916773394217163
 20
-0.5287842139297722
 42
0.0
 10
-0.0871082576270365
 20
-0.5309477837579293
 42
0.0
 10
-0.0821843801329571
 20
-0.5329497039054806
 42
0.0
 10
-0.0769570416456998
 20
-0.5348281208756779
 42
0.0
 10
-0.0714775768712943
 20
-0.5366211811717136
 42
0.0
 10
-0.0657973205160748
 20
-0.538367031296805
 42
0.0
 10
-0.0599676072862269
 20
-0.5401038177541132
 42
0.0
 10
-0.0540306476990945
 20
-0.5418501573157858
 42
0.0
 10
-0.0479921555098995
 20
-0.5435465478317382
 42
0.0
 10
-0.0418487202861362
 20
-0.5451139574203936
 42
0.0
 10
-0.0355969315948251
 20
-0.5464733542003905
 42
0.0
 10
-0.0292333790027533
 20
-0.5475457062903745
 42
0.0
 10
-0.0227546520767868
 20
-0.5482519818090507
 42
0.0
 10
-0.0172668226043097
 20
-0.5484692279221053
 42
0.1256811602615189
 10
-0.0387055418273805
 20
-0.4740250481249954
 42
0.3508021785107088
 10
-0.0059994844992295
 20
-0.3928452738826858
 42
-0.5046405816136728
 10
-0.0929276340866588
 20
-0.3206548418063035
 42
0.0
 10
-0.0490858569823822
 20
-0.2496217997728394
 42
0.0
 10
-0.0711432900038409
 20
-0.1671414616597868
 42
0.0
 10
-0.1260021599108232
 20
-0.1588096705998978
 42
0.0
 10
-0.1487917501374239
 20
-0.2143365205565075
 42
0.0
 10
-0.1953761767343863
 20
-0.2274036902798179
 42
0.0
 10
-0.234005743791902
 20
-0.1783747586739562
 42
0.0
 10
-0.2194441020433823
 20
0.0510497082130775
 42
0.0
 10
-0.242993940611636
 20
0.0907459507924594
 42
0.0
 10
-0.3237278814245187
 20
0.1087624982446373
 42
0.0
 10
-0.3703355554374665
 20
0.0194460004477221
 42
0.0
 10
-0.4055982329052086
 20
0.0175571554939575
 42
0.0
 10
-0.4566859597597418
 20
-0.0538141278726011
 42
0.0
 10
-0.5268104560378202
 20
0.0104503967565807
 42
0.7335825464443675
 10
-0.5126846351398126
 20
-0.0578767146120562
 42
-0.8616245048497866
 10
-0.5099419856471151
 20
-0.1158425869221914
 42
0.2799778283021079
 10
-0.5934650707846778
 20
-0.1923588233071064
 42
0.0
 10
-0.5918642099981765
 20
-0.196498891213266
 42
-0.8270561609404419
 97
        0
 75
     0
 76
     1
 52
50.26041070926836
 41
0.4540155660649378
 77
     0
 78
     1
 53
95.26041070926835
 43
-21.87156487137499
 44
-23.66723971974165
 45
-0.05651292274748
 46
-0.0052031634482913
 79
     0
 47
0.0133352559642302
 98
        2
 10
1.386100948777435
 20
0.7793290407590749
 10
-0.4090300318750931
 20
-0.3186193149349692
  0
HATCH
  5
9CF
330
1F
100
AcDbEntity
  8
ceco.net 74
 62
    85
380
     1
100
AcDbHatch
 10
0.0
 20
0.0
 30
0.0
210
0.0
220
0.0
230
1.0
  2
ANSI31
 70
     0
 71
     0
 91
        3
 92
        7
 72
     1
 73
     1
 93
       23
 10
1.711256785080831
 20
0.688870335809245
 42
0.5121558898008628
 10
1.64002429456509
 20
0.70771604995241
 42
-0.2797061098355841
 10
1.49096463753596
 20
0.7222306056199798
 42
-0.0346542636171452
 10
1.48269266205722
 20
0.7290285601878808
 42
0.0
 10
1.424032936361734
 20
0.6723924120357527
 42
0.0
 10
1.443362265706263
 20
0.620379996433032
 42
0.0
 10
1.502973014495627
 20
0.6273910675047231
 42
0.0
 10
1.53699986898447
 20
0.5929958222004571
 42
0.0
 10
1.512868726282672
 20
0.5354304894265639
 42
0.0
 10
1.305188528434061
 20
0.4368578621998582
 42
0.0
 10
1.281902205125794
 20
0.3970064667626166
 42
0.0
 10
1.305316239862479
 20
0.3176695386734738
 42
0.0
 10
1.406029056308779
 20
0.3202464862974649
 42
0.0
 10
1.42478848039678
 20
0.2903281279645172
 42
0.0
 10
1.511982973893455
 20
0.2802814255995023
 42
0.0
 10
1.489809205739235
 20
0.1877844088372966
 42
0.7335825464443675
 10
1.542703295343043
 20
0.2332854884839159
 42
-0.8861238118520244
 10
1.593077607383497
 20
0.2625328884282712
 42
0.3124799252858232
 10
1.698770042533589
 20
0.2318877601323476
 42
-0.8087036811201402
 10
1.780323361397119
 20
0.1880301753932934
 42
-0.0285924839000052
 10
1.688993495906641
 20
-0.0440198696298413
 42
0.0
 10
1.779183467267531
 20
-0.1413015034698047
 42
0.0091713495844446
 10
1.826273615925657
 20
-0.0941804773306042
 42
0.1102767209555559
 97
        0
 92
        7
 72
     1
 73
     1
 93
       11
 10
1.688993495906641
 20
-0.0440198696298413
 42
0.0
 10
1.595200997150752
 20
0.0571475593340356
 42
0.0
 10
1.547174337187501
 20
0.0395320613937216
 42
0.0
 10
1.514114030350846
 20
0.0333003736563842
 42
0.0
 10
1.470644441304622
 20
0.0096936714223163
 42
0.0
 10
1.446295286427659
 20
0.047917659225417
 42
0.0
 10
1.411225104048717
 20
0.0070561842163582
 42
0.0
 10
1.249365862287458
 20
-0.0304830561591255
 42
0.0
 10
1.24820505187015
 20
-0.0786531739526929
 42
0.0
 10
1.296500371749668
 20
-0.0986630654309869
 42
0.0
 10
1.559198960581239
 20
-0.2845736783830365
 42
0.0313448551106308
 97
        0
 92
        7
 72
     1
 73
     1
 93
      190
 10
0.58089414439923
 20
-0.9084310880072406
 42
0.0
 10
0.6600185425136429
 20
-0.9074260470613193
 42
0.0
 10
0.7017181283890439
 20
-0.8613602082165336
 42
0.0
 10
0.7643078758510857
 20
-0.8817069838433386
 42
0.0
 10
0.7976460624180937
 20
-0.9035095083519163
 42
0.0
 10
0.7772936713561
 20
-0.9661092091883503
 42
0.0
 10
0.7826741987603228
 20
-1.028992753996068
 42
0.0409974157489475
 10
1.078096883877162
 20
-0.8280939102859179
 42
0.0
 10
1.062305079191646
 20
-0.8032669764764593
 42
0.0
 10
1.052098753001924
 20
-0.7836656938440145
 42
0.0
 10
1.046602623601218
 20
-0.7685015670060704
 42
0.0
 10
1.044941409282757
 20
-0.7569861005801564
 42
0.0
 10
1.046239828339714
 20
-0.7483307991837548
 42
0.0
 10
1.04962259906528
 20
-0.7417471674344068
 42
0.0
 10
1.054214439752688
 20
-0.7364467099495809
 42
0.0
 10
1.059140068695112
 20
-0.7316409313467939
 42
0.0
 10
1.063680507905258
 20
-0.726680825315349
 42
0.0
 10
1.067741994273347
 20
-0.7214753418323237
 42
0.0
 10
1.071387068409267
 20
-0.7160729199464571
 42
0.0
 10
0.9529715342432684
 20
-0.6570458780673466
 42
0.0
 10
0.9559714057442327
 20
-0.6513948965222485
 42
0.0
 10
0.9587424868425911
 20
-0.6456922937203769
 42
0.0
 10
0.9613473181478246
 20
-0.639986508711162
 42
0.0
 10
0.9638484402702012
 20
-0.6343259805431448
 42
0.0
 10
0.9662875907128483
 20
-0.6287535009644485
 42
0.0
 10
0.9686232945556266
 20
-0.6232892725214671
 42
0.0
 10
0.970793273772108
 20
-0.6179478504600353
 42
0.0
 10
0.9727352503354502
 20
-0.6127437900261724
 42
0.0
 10
0.9743869462194842
 20
-0.6076916464651215
 42
0.0
 10
0.9756860833974482
 20
-0.6028059750229219
 42
0.0
 10
0.9765703838427572
 20
-0.5981013309455263
 42
0.0
 10
0.9769775695290256
 20
-0.5935922694784248
 42
0.0
 10
0.9769315147630821
 20
-0.5914436402180307
 42
-0.1001919703254665
 10
0.2574570178279418
 20
-0.6314492735799795
 42
-0.024541161089303
 10
0.0848754778958092
 20
-0.6757060843930002
 42
-0.3851675971199829
 10
0.063894667833867
 20
-0.6633184286404069
 42
0.0
 10
0.0432017340993698
 20
-0.5969262734417128
 42
0.0
 10
0.0348286269175284
 20
-0.576474612109444
 42
0.0
 10
0.0268010438998022
 20
-0.562484755353961
 42
0.0
 10
0.0190822986243635
 20
-0.553779207043189
 42
0.0
 10
0.0116357046694085
 20
-0.5491804710451299
 42
0.0
 10
0.004424575613118
 20
-0.5475110512277608
 42
0.0
 10
-0.0025877749662933
 20
-0.5475934514590384
 42
0.0
 10
-0.0094380334906833
 20
-0.5482501756069515
 42
0.0
 10
-0.0172641988007285
 20
-0.5485564679523957
 42
0.0001393939918058
 10
-0.0172668226043097
 20
-0.5484692279221053
 42
0.0
 10
-0.022754652076728
 20
-0.5482519818090721
 42
0.0
 10
-0.029233379002765
 20
-0.547545706290393
 42
0.0
 10
-0.0355969315948469
 20
-0.5464733542003923
 42
0.0
 10
-0.04184872028619
 20
-0.5451139574203804
 42
0.0
 10
-0.0479921555098945
 20
-0.5435465478317465
 42
0.0
 10
-0.0540306476990793
 20
-0.5418501573158108
 42
0.0
 10
-0.0599676072874498
 20
-0.5401038177536434
 42
0.0
 10
-0.0657973205165081
 20
-0.5383670312966564
 42
0.0
 10
-0.0714775768712943
 20
-0.5366211811717136
 42
0.0
 10
-0.0769570416456512
 20
-0.5348281208756827
 42
0.0
 10
-0.0821843801329738
 20
-0.5329497039054907
 42
0.0
 10
-0.0897789895940684
 20
-0.5298619338073538
 42
0.0
 10
-0.0979693654895995
 20
-0.5252121422994687
 42
0.0
 10
-0.1039206450572677
 20
-0.5199547778723255
 42
0.0
 10
-0.1081237042735344
 20
-0.5150137495430835
 42
0.0
 10
-0.1104721099024275
 20
-0.5121854469255636
 42
0.0
 10
-0.1127460267443682
 20
-0.5096460313936741
 42
0.0
 10
-0.1150540325572358
 20
-0.5075367470161338
 42
0.0
 10
-0.1175047050988494
 20
-0.5059988378619112
 42
0.0
 10
-0.1202066221269814
 20
-0.5051735479999007
 42
0.0
 10
-0.1232390593230825
 20
-0.5051707851058035
 42
0.0
 10
-0.126564084062995
 20
-0.5059751112824343
 42
0.0
 10
-0.130114461646149
 20
-0.5075397522394509
 42
0.0
 10
-0.1338229573721055
 20
-0.5098179336864078
 42
0.0
 10
-0.1376223365401686
 20
-0.5127628813329438
 42
0.0
 10
-0.1414453644499075
 20
-0.5163278208886753
 42
0.0
 10
-0.145224806400704
 20
-0.5204659780631511
 42
0.0
 10
-0.1488934276920715
 20
-0.5251305785660798
 42
0.0
 10
-0.1523973183821344
 20
-0.5302597816831436
 42
0.0
 10
-0.1557358675634367
 20
-0.5357314810041136
 42
0.0
 10
-0.158921789087646
 20
-0.5414085036955479
 42
0.0
 10
-0.1619677968057983
 20
-0.5471536769231989
 42
0.0
 10
-0.1648866045706293
 20
-0.5528298278548797
 42
0.0
 10
-0.167690926229985
 20
-0.5582997836520276
 42
0.0
 10
-0.1703934756389794
 20
-0.5634263714858092
 42
0.0
 10
-0.1741732275363511
 20
-0.5701457001680295
 42
0.0
 10
-0.178740080870898
 20
-0.5768215116204586
 42
0.0
 10
-0.182703609622885
 20
-0.5820607220845354
 42
0.0
 10
-0.1849471748541077
 20
-0.5850610317701984
 42
0.0
 10
-0.187121239442532
 20
-0.5881419730737296
 42
0.0
 10
-0.1892271721699582
 20
-0.5914432150460664
 42
0.0
 10
-0.1912663418174206
 20
-0.5951044267371091
 42
0.0
 10
-0.1931971271193008
 20
-0.599270902078267
 42
0.0
 10
-0.1948059466215163
 20
-0.6041104345242364
 42
0.0
 10
-0.1958362288230937
 20
-0.6097964424109747
 42
0.0
 10
-0.1960314022229661
 20
-0.6165023440742915
 42
0.0
 10
-0.1951348953201069
 20
-0.6244015578500435
 42
0.0
 10
-0.1928901366134768
 20
-0.6336675020739195
 42
0.0
 10
-0.1890405546020283
 20
-0.6444735950819239
 42
0.0
 10
-0.1707561695921186
 20
-0.684556805589245
 42
-0.5293802227879926
 10
-0.1863483576961765
 20
-0.7102306017506861
 42
-0.0871387694220039
 10
-0.8098622977445947
 20
-0.6334182074083408
 42
-0.3723405477462983
 10
-0.8414833024816539
 20
-0.5831505866528321
 42
0.0
 10
-0.8850681321908234
 20
-0.4617638078208401
 42
0.0
 10
-0.8329381526774637
 20
-0.3911502031791561
 42
0.0
 10
-0.7642145419724633
 20
-0.3949584500059682
 42
0.0
 10
-0.6936325333954502
 20
-0.3230703973070396
 42
0.0
 10
-0.7356762875968464
 20
-0.2518321497575236
 42
0.0
 10
-0.8222232629873902
 20
-0.23784844826604
 42
0.0
 10
-1.035965662901987
 20
-0.3224759490890572
 42
0.0
 10
-1.094520262508052
 20
-0.3008556241507487
 42
0.0
 10
-1.096461446167031
 20
-0.2525121495967941
 42
0.0
 10
-1.050673300959322
 20
-0.2137043894547709
 42
0.0
 10
-1.075522354853315
 20
-0.1640914992919062
 42
0.0
 10
-1.160784406225313
 20
-0.1685545837164065
 42
0.0
 10
-1.214827974135329
 20
-0.2321713051640227
 42
-0.5046405816137104
 10
-1.310314227130947
 20
-0.171753284980293
 42
0.3319483222919831
 10
-1.37081001039598
 20
-0.1017894854880115
 42
0.2820078388470463
 10
-1.52539674158874
 20
-0.1552408171675442
 42
-0.5080610491826941
 10
-1.5866054333982
 20
-0.1572320078245691
 42
-0.035018355208787
 10
-1.749751981563075
 20
0.0375371329007843
 42
0.0098943916439532
 10
-1.745092789961089
 20
-0.0486954083593612
 42
0.0320458208498561
 10
-1.655626507010784
 20
-0.2633469666427424
 42
0.0
 10
-1.651208575065088
 20
-0.2640545849992476
 42
0.0
 10
-1.640333166648806
 20
-0.2681887223696498
 42
0.0
 10
-1.633394644048326
 20
-0.2735232362586883
 42
0.0
 10
-1.629278878664494
 20
-0.2796752944588548
 42
0.0
 10
-1.626871741898161
 20
-0.2862620647627389
 42
0.0
 10
-1.625059105150346
 20
-0.2929007149626975
 42
0.0
 10
-1.62292464429738
 20
-0.299277416063586
 42
0.0
 10
-1.620343253118464
 20
-0.305354351919106
 42
0.0
 10
-1.617387629868345
 20
-0.3111627095951511
 42
0.0
 10
-1.508323082096546
 20
-0.2362537326687951
 42
0.0
 10
-1.504837089468178
 20
-0.2416184951837063
 42
0.0
 10
-1.501194959532792
 20
-0.2468082407169518
 42
0.0
 10
-1.497469390545054
 20
-0.2518541563345944
 42
0.0
 10
-1.49373308075955
 20
-0.2567874291026817
 42
0.0
 10
-1.490043697593697
 20
-0.2616237950302558
 42
0.0
 10
-1.486398785110127
 20
-0.266317185905215
 42
0.0
 10
-1.482780856534698
 20
-0.2708060824578358
 42
0.0
 10
-1.479172425092705
 20
-0.2750289654190674
 42
0.0
 10
-1.475556004009732
 20
-0.2789243155194882
 42
0.0
 10
-1.471914106511219
 20
-0.2824306134899191
 42
0.0
 10
-1.468229245822536
 20
-0.2854863400612193
 42
0.0
 10
-1.464483935169187
 20
-0.2880299759641361
 42
0.0
 10
-1.460679205448605
 20
-0.2900355173498506
 42
0.0
 10
-1.456890158246324
 20
-0.2916190220512494
 42
0.0
 10
-1.453210412819813
 20
-0.2929320633216359
 42
0.0
 10
-1.447382299202871
 20
-0.2949337888783137
 42
0.0
 10
-1.442194857689
 20
-0.2975573095430762
 42
0.0
 10
-1.438867072889464
 20
-0.301857813195721
 42
0.0
 10
-1.438013334539531
 20
-0.3086641709008376
 42
0.0
 10
-1.439661193301169
 20
-0.317290347555404
 42
0.0
 10
-1.443654005357621
 20
-0.3270495036190213
 42
0.0
 10
-1.448228066671821
 20
-0.3346417361082011
 42
0.0
 10
-1.451783338820317
 20
-0.33973545916039
 42
0.0
 10
-1.455717469127482
 20
-0.3447958961795536
 42
0.0
 10
-1.459897676812042
 20
-0.349786341681766
 42
0.0
 10
-1.464191181092636
 20
-0.3546700901830064
 42
0.0
 10
-1.468465201186677
 20
-0.3594104361979693
 42
0.0
 10
-1.472586956318946
 20
-0.3639706742493229
 42
0.0
 10
-1.476423665702106
 20
-0.3683140988465467
 42
0.0
 10
-1.479842548556893
 20
-0.3724040045078973
 42
0.0
 10
-1.482754641932904
 20
-0.3762182631848259
 42
0.0
 10
-1.485246254201219
 20
-0.3797930565679056
 42
0.0
 10
-1.487447511563418
 20
-0.3831791437826871
 42
0.0
 10
-1.489488540220915
 20
-0.3864272839541642
 42
0.0
 10
-1.492772548948961
 20
-0.3915893804180838
 42
0.0
 10
-1.495951515982936
 20
-0.3958516134678234
 42
0.0
 10
-1.498652891838556
 20
-0.3990555567233778
 42
0.0
 10
-1.554443680821646
 20
-0.4419205012761614
 42
0.1318900793446542
 10
-0.8567955165375435
 20
-1.074446186059359
 42
0.0
 10
-0.8269436630965781
 20
-1.017239662486572
 42
0.0
 10
-0.7462097222836955
 20
-1.03525620993875
 42
0.0
 10
-0.7274877311516503
 20
-1.06681450276494
 42
0.0
 10
-0.6608163118401082
 20
-0.9827375477133351
 42
0.0
 10
-0.5886209201186095
 20
-0.9651368905368375
 42
0.0
 10
-0.4909701171417865
 20
-1.053571408619943
 42
0.0
 10
-0.4418694582274389
 20
-1.166201934291701
 42
0.0
 10
-0.3455074635913424
 20
-1.197159900396777
 42
0.0
 10
-0.2903546587844977
 20
-1.149306877764471
 42
0.0
 10
-0.2452580536053431
 20
-1.055301114187037
 42
0.0
 10
-0.1825975062559755
 20
-1.033510988934807
 42
0.0
 10
-0.1303844029006295
 20
-0.7765993090584413
 42
0.0
 10
-0.0945473846676574
 20
-0.7468173440354994
 42
0.0
 10
0.0123630052553532
 20
-0.7710280635641223
 42
0.0
 10
0.1119324409451395
 20
-0.8982457794187777
 42
0.0
 10
0.2057459784960578
 20
-0.9091139019587837
 42
0.0
 10
0.2561062861548131
 20
-0.9843577192175844
 42
0.0
 10
0.15443795693886
 20
-1.21574549425887
 42
0.0
 10
0.1574194590674049
 20
-1.265403876389081
 42
0.0581404064913871
 10
0.6369131397146502
 20
-1.10444065920683
 42
0.0
 10
0.5608106385995542
 20
-1.035536946497753
 42
0.0
 10
0.5931540214151993
 20
-0.9782059081782184
 42
0.0
 97
        0
 75
     0
 76
     1
 52
50.26041070926836
 41
0.4540155660649378
 77
     0
 78
     1
 53
95.26041070926835
 43
-21.87156487137499
 44
-23.66723971974165
 45
-0.05651292274748
 46
-0.0052031634482913
 79
     0
 47
0.0134222225199611
 98
        3
 10
1.649664342909282
 20
0.4575238444458022
 10
1.543567127088014
 20
-0.1278832302218532
 10
0.4479623897049709
 20
-0.8257652349439654
  0
HATCH
  5
9D0
330
1F
100
AcDbEntity
  8
ceco.net 74
 62
    87
380
     1
100
AcDbHatch
 10
0.0
 20
0.0
 30
0.0
210
0.0
220
0.0
230
1.0
  2
ANSI31
 70
     0
 71
     0
 91
        2
 92
        7
 72
     1
 73
     1
 93
      127
 10
1.254469436827205
 20
-0.6691128217992476
 42
0.0
 10
1.248599567718722
 20
-0.6566668673330549
 42
0.0
 10
1.242835762029508
 20
-0.6467487288112172
 42
0.0
 10
1.23721132800791
 20
-0.6390505208412694
 42
0.0
 10
1.231759573902162
 20
-0.6332643580305973
 42
0.0
 10
1.226513807960502
 20
-0.6290823549866751
 42
0.0
 10
1.221507338431213
 20
-0.6261966263169283
 42
0.0
 10
1.216773473562555
 20
-0.6242992866288289
 42
0.0
 10
1.090638784923219
 20
-0.5696063298906566
 42
0.0
 10
1.086526583364177
 20
-0.5687985661652343
 42
0.0
 10
1.082646086672083
 20
-0.5682742603061301
 42
0.0
 10
1.078889778556453
 20
-0.5679442519830673
 42
0.0
 10
1.075150142727553
 20
-0.5677193808657261
 42
0.0
 10
1.071319662894029
 20
-0.5675104866240157
 42
0.0
 10
1.067290822766381
 20
-0.5672284089275879
 42
0.0
 10
1.062956106054393
 20
-0.5667839874462322
 42
0.0
 10
1.058207996467529
 20
-0.5660880618496595
 42
0.0
 10
1.052972982970968
 20
-0.5650827151505787
 42
0.0
 10
1.047313575551476
 20
-0.56383500373341
 42
0.0
 10
1.041326289450724
 20
-0.562443227325551
 42
0.0
 10
1.035107639912075
 20
-0.5610056856542869
 42
0.0
 10
1.02875414217698
 20
-0.5596206784472525
 42
0.0
 10
1.022362311487521
 20
-0.5583865054315483
 42
0.0
 10
1.016028663085933
 20
-0.5574014663346661
 42
0.0
 10
1.009849712214397
 20
-0.5567638608839438
 42
0.0
 10
1.003919077249998
 20
-0.5565520851765782
 42
0.0
 10
0.9983187891090254
 20
-0.5567649207889599
 42
0.0
 10
0.9931279818423867
 20
-0.5573812456673264
 42
0.0
 10
0.988425789501381
 20
-0.558379937757918
 42
0.0
 10
0.9842913461370226
 20
-0.559739875006885
 42
0.0
 10
0.9808037858003775
 20
-0.5614399353604602
 42
0.0
 10
0.9780422425425868
 20
-0.5634589967648886
 42
0.0
 10
0.9760858504147234
 20
-0.5657759371663414
 42
0.0
 10
0.9749708945017236
 20
-0.5683717669557061
 42
0.0
 10
0.9745622640238964
 20
-0.571236026302463
 42
0.0
 10
0.9746819992353966
 20
-0.5743603878206688
 42
0.0
 10
0.9751521403904334
 20
-0.5777365241245082
 42
0.0
 10
0.9757947277431252
 20
-0.5813561078279007
 42
0.0
 10
0.9764318015477138
 20
-0.5852108115455371
 42
0.0
 10
0.9768854020583011
 20
-0.5892923078909349
 42
0.0
 10
0.9769775695289924
 20
-0.5935922694784451
 42
0.0
 10
0.9765703838427521
 20
-0.5981013309455179
 42
0.0
 10
0.9756860833974211
 20
-0.6028059750229153
 42
0.0
 10
0.9743869462195075
 20
-0.6076916464650846
 42
0.0
 10
0.9727352503354683
 20
-0.6127437900261271
 42
0.0
 10
0.9707932737719763
 20
-0.6179478504601953
 42
0.0
 10
0.9686232945555538
 20
-0.6232892725216485
 42
0.0
 10
0.9662875907128903
 20
-0.6287535009641032
 42
0.0
 10
0.963848440269591
 20
-0.6343259805438353
 42
0.0
 10
0.9613473181478639
 20
-0.6399865087110009
 42
0.0
 10
0.9587424868424545
 20
-0.6456922937205285
 42
0.0
 10
0.9559714057442525
 20
-0.651394896522168
 42
0.0
 10
0.9529715342432632
 20
-0.6570458780673383
 42
0.0
 10
1.071387068409267
 20
-0.7160729199464571
 42
0.0
 10
1.067741994273312
 20
-0.721475341832379
 42
0.0
 10
1.063680507905234
 20
-0.7266808253153858
 42
0.0
 10
1.059140068695147
 20
-0.7316409313467381
 42
0.0
 10
1.054214439752728
 20
-0.7364467099495338
 42
0.0
 10
1.049622599065296
 20
-0.7417471674343967
 42
0.0
 10
1.046239828339714
 20
-0.7483307991837548
 42
0.0
 10
1.044941409282737
 20
-0.7569861005801231
 42
0.0
 10
1.046602623601215
 20
-0.7685015670060269
 42
0.0
 10
1.052098753001899
 20
-0.7836656938439728
 42
0.0
 10
1.062305079191594
 20
-0.8032669764764111
 42
0.0
 10
1.078096883877162
 20
-0.8280939102859179
 42
-0.0409974157489475
 10
0.7826741987603228
 20
-1.028992753996068
 42
0.0
 10
0.7772936713561034
 20
-0.9661092091883938
 42
0.0
 10
0.7976460624180886
 20
-0.9035095083519077
 42
0.0
 10
0.7643078758510857
 20
-0.8817069838433386
 42
0.0
 10
0.7017181283890337
 20
-0.8613602082165169
 42
0.0
 10
0.6600185425136481
 20
-0.9074260470613277
 42
0.0
 10
0.58089414439924
 20
-0.9084310880072573
 42
0.0
 10
0.5931540214151993
 20
-0.9782059081782184
 42
0.0
 10
0.5608106385995542
 20
-1.035536946497753
 42
0.0
 10
0.6369131397146502
 20
-1.10444065920683
 42
-0.0581404064913873
 10
0.1574194590674049
 20
-1.265403876389081
 42
0.0
 10
0.1544379569388433
 20
-1.21574549425888
 42
0.0
 10
0.2561062861548131
 20
-0.9843577192175844
 42
0.0
 10
0.2057459784960411
 20
-0.9091139019587938
 42
0.0
 10
0.1119324409451395
 20
-0.8982457794187777
 42
0.0
 10
0.0123630052553532
 20
-0.7710280635641223
 42
0.0
 10
-0.0945473846676676
 20
-0.7468173440354827
 42
0.0
 10
-0.1303844029006295
 20
-0.7765993090584413
 42
0.0
 10
-0.1825975062559755
 20
-1.033510988934807
 42
0.0
 10
-0.2452580536053431
 20
-1.055301114187037
 42
0.0
 10
-0.2903546587844977
 20
-1.149306877764471
 42
0.0
 10
-0.3455074635913424
 20
-1.197159900396777
 42
0.0
 10
-0.4418694582274389
 20
-1.166201934291701
 42
0.0
 10
-0.4909701171417865
 20
-1.053571408619943
 42
0.0
 10
-0.5886209201186095
 20
-0.9651368905368375
 42
0.0
 10
-0.6608163118401133
 20
-0.9827375477133266
 42
0.0
 10
-0.7274877311516503
 20
-1.06681450276494
 42
0.0
 10
-0.7226598837154201
 20
-1.07495245251813
 42
0.0
 10
-0.7372215254639566
 20
-1.304376919405174
 42
0.0
 10
-0.6985919584064408
 20
-1.353405851011036
 42
0.0
 10
-0.6520075318094834
 20
-1.340338681287717
 42
0.0
 10
-0.6292179415828829
 20
-1.284811831331107
 42
0.0
 10
-0.5743590716758737
 20
-1.293143622391002
 42
0.0
 10
-0.5523016386544266
 20
-1.375623960504074
 42
0.0
 10
-0.5961434157587132
 20
-1.446657002537521
 42
0.5046405816136971
 10
-0.509215266171284
 20
-1.518847434613904
 42
-0.3508021785107076
 10
-0.5419213234994182
 20
-1.600027208856203
 42
-0.1596250317494848
 10
-0.5212354873597635
 20
-1.695270174196983
 42
0.2362982773808743
 10
1.082636338508444
 20
-1.429438160606913
 42
0.0
 10
0.7932845900776088
 20
-1.224665226162196
 42
0.0
 10
0.744989270198086
 20
-1.204655334683893
 42
0.0
 10
0.7461500806154043
 20
-1.156485216890343
 42
0.0
 10
0.9080093223766795
 20
-1.118945976514849
 42
0.0
 10
0.9430795047556001
 20
-1.078084501505792
 42
0.0
 10
0.967428659632568
 20
-1.116308489308901
 42
0.0
 10
1.010898248678774
 20
-1.092701787074843
 42
0.0
 10
1.043958555515446
 20
-1.086470099337496
 42
0.0
 10
1.091985215478703
 20
-1.06885460139719
 42
0.0
 10
1.275967685595476
 20
-1.267303664201022
 42
0.1063709693447932
 10
1.701992237483404
 20
-0.6330396607376141
 42
0.0
 10
1.649270848810826
 20
-0.6640634499247935
 42
0.0
 10
1.630275596685358
 20
-0.6390902954212426
 42
0.0
 10
1.567054113077277
 20
-0.5689138935424087
 42
0.0
 10
1.598088714020162
 20
-0.5255974156839826
 42
0.0
 10
1.654786399966014
 20
-0.5613145397956984
 42
0.0
 10
1.660734056767071
 20
-0.5173691387649834
 42
0.0
 10
1.702297811303414
 20
-0.5202484024284134
 42
0.0
 10
1.713737738235948
 20
-0.4770531148947596
 42
0.0
 10
1.764414484455893
 20
-0.4482713017501162
 42
0.0496043055744158
 10
1.826273615925657
 20
-0.0941804773306042
 42
-0.0091713495844446
 10
1.779183467267531
 20
-0.1413015034698047
 42
0.0
 10
1.688993495906641
 20
-0.0440198696298413
 42
-0.0878881829810952
 97
        0
 92
        7
 72
     1
 73
     1
 93
       19
 10
-1.030026237709869
 20
-1.115551763974645
 42
0.0
 10
-0.9599017414317962
 20
-1.179816288603819
 42
0.0
 10
-0.908814014577263
 20
-1.10844500523726
 42
0.0
 10
-0.873551337109521
 20
-1.106556160283495
 42
0.0
 10
-0.8567955165375485
 20
-1.074446186059351
 42
-0.1318900793446534
 10
-1.554443680821641
 20
-0.4419205012761698
 42
0.0
 10
-1.607672550434234
 20
-0.482817082703669
 42
0.0
 10
-1.611628285219191
 20
-0.4860360168128427
 42
0.0
 10
-1.61658055148893
 20
-0.4890138055723964
 42
0.0
 10
-1.62278241383433
 20
-0.4915719520152672
 42
0.0
 10
-1.63048693684599
 20
-0.4935319591742897
 42
0.0
 10
-1.63994718511477
 20
-0.4947153300823556
 42
0.0
 10
-1.651416223231241
 20
-0.4949435677723416
 42
0.0
 10
-1.665147115786177
 20
-0.4940381752770617
 42
0.1167741133917434
 10
-1.170754882992121
 20
-1.369705228314282
 42
0.8270561609404918
 10
-1.09507999167023
 20
-1.322501051944483
 42
0.0
 10
-1.096680852456732
 20
-1.318360984038324
 42
-0.2799778283021056
 10
-1.013157767319186
 20
-1.241844747653419
 42
0.8616245048498472
 10
-1.015900416811883
 20
-1.183878875343284
 42
-0.7335825464443675
 97
        0
 75
     0
 76
     1
 52
50.26041070926836
 41
0.4540155660649378
 77
     0
 78
     1
 53
95.26041070926835
 43
-21.87156487137499
 44
-23.66723971974165
 45
-0.05651292274748
 46
-0.0052031634482913
 79
     0
 47
0.0168703920513024
 98
        2
 10
1.459988835017402
 20
-0.5674021691022018
 10
-1.129099044082082
 20
-1.104286503099853
  0
HATCH
  5
9D1
330
1F
100
AcDbEntity
  8
ceco.net 74
 62
    87
380
     1
100
AcDbHatch
 10
0.0
 20
0.0
 30
0.0
210
0.0
220
0.0
230
1.0
  2
ANSI31
 70
     0
 71
     0
 91
        3
 92
        7
 72
     1
 73
     1
 93
       34
 10
0.2963050741116271
 20
1.709936795532918
 42
-0.0259128597512806
 10
0.4663482380776659
 20
1.629493467902158
 42
0.0
 10
0.4651441366286754
 20
1.630545350792685
 42
0.0
 10
0.4605989356254625
 20
1.634373464265026
 42
0.0
 10
0.4559126349801641
 20
1.638251681612016
 42
0.0
 10
0.4511313640521308
 20
1.642180630496291
 42
0.0
 10
0.4462371130168185
 20
1.646103312678666
 42
0.0
 10
0.4411958372502022
 20
1.649948323447438
 42
0.0
 10
0.4359734921291009
 20
1.653644258090075
 42
0.0
 10
0.4305360330302073
 20
1.657119711894256
 42
0.0
 10
0.4248494153302458
 20
1.660303280147644
 42
0.0
 10
0.4188795944059373
 20
1.663123558137832
 42
0.0
 10
0.4125925256339449
 20
1.665509141152435
 42
0.0
 10
0.4060309551862527
 20
1.667583537864094
 42
0.0
 10
0.3995447924153483
 20
1.670249910485576
 42
0.0
 10
0.3935607374690169
 20
1.674606334614636
 42
0.0
 10
0.3885054904949422
 20
1.68175088584905
 42
0.0
 10
0.3848057516408765
 20
1.692781639786552
 42
0.0
 10
0.3828882210545234
 20
1.708796672024884
 42
0.0
 10
0.383179598883671
 20
1.730894058161987
 42
0.0
 10
0.3900974443650304
 20
1.800091306606987
 42
0.3851675971200484
 10
0.3756316362998148
 20
1.819697142547375
 42
0.0467655927702336
 10
0.038571434312366
 20
1.855681236212754
 42
0.5431042967910346
 10
0.0216561887132815
 20
1.830342379763859
 42
0.0
 10
0.037138722381259
 20
1.794370914502473
 42
-0.0106977647865412
 10
0.1122049288288777
 20
1.774303090337681
 42
0.0
 10
0.140450994609768
 20
1.723325790063601
 42
0.0
 10
0.1835233022655772
 20
1.711431206988052
 42
0.0
 10
0.1802061037696739
 20
1.669900109668833
 42
0.0
 10
0.2240863734724746
 20
1.66348958519858
 42
0.0
 10
0.1877736223914617
 20
1.60717151833408
 42
0.0
 10
0.2307605797392922
 20
1.575682072360565
 42
0.0
 10
0.3015994571913109
 20
1.638160363083001
 42
0.0
 10
0.3267714402306356
 20
1.656891335269126
 42
0.0
 97
        0
 92
        7
 72
     1
 73
     1
 93
       58
 10
-0.0415040048730044
 20
1.630408795290091
 42
0.0
 10
-0.0332739645915605
 20
1.632154845800611
 42
0.0
 10
-0.025124610529246
 20
1.633320738598474
 42
0.0
 10
-0.0171591456793324
 20
1.633687614097167
 42
0.0
 10
-0.0093952431687067
 20
1.633408248663218
 42
0.0
 10
-0.0018291936578406
 20
1.632728327651534
 42
0.0
 10
0.0055427121927339
 20
1.631893536416895
 42
0.0
 10
0.012724183723269
 20
1.631149560314108
 42
0.0
 10
0.019718930272757
 20
1.630742084698133
 42
0.0
 10
0.0265306611809719
 20
1.630916794923774
 42
0.0
 10
0.0331630857875428
 20
1.631919376345884
 42
0.0
 10
0.0396142372751519
 20
1.633928338267432
 42
0.0
 10
0.045859444198716
 20
1.636853485783923
 42
0.0
 10
0.0518683589562293
 20
1.640537447939053
 42
0.0
 10
0.0576106339455666
 20
1.644822853776371
 42
0.0
 10
0.0630559215649191
 20
1.649552332339737
 42
0.0
 10
0.0681738742120302
 20
1.654568512672543
 42
0.0
 10
0.0729341442849492
 20
1.659714023818505
 42
0.0
 10
0.0773063841818309
 20
1.664831494821503
 42
0.0
 10
0.0812448919597265
 20
1.669805245618455
 42
0.0
 10
0.084642548313528
 20
1.674686359721252
 42
0.0
 10
0.0873768795973182
 20
1.679567611535241
 42
0.0
 10
0.0893254121651092
 20
1.68454177546562
 42
0.0
 10
0.0903656723710792
 20
1.689701625917804
 42
0.0
 10
0.0903751865692263
 20
1.695139937297053
 42
0.0
 10
0.0892314811136541
 20
1.70094948400868
 42
0.0
 10
0.0868120823584674
 20
1.70722304045803
 42
0.0
 10
0.0830434242377143
 20
1.714095079973216
 42
0.0
 10
0.078047571005378
 20
1.721866871573627
 42
0.0
 10
0.0719954944959213
 20
1.730881383201021
 42
0.0
 10
0.0650581665426495
 20
1.741481582798387
 42
0.0
 10
0.0574065589801475
 20
1.754010438307169
 42
0.0
 10
0.049211643642412
 20
1.76881091766963
 42
0.0
 10
0.0406443923633297
 20
1.786225988828026
 42
0.0
 10
0.0371387223812758
 20
1.794370914502483
 42
0.0229276541658098
 10
-0.1262037461205421
 20
1.826460302437008
 42
-0.0238045660660706
 10
-0.126679538732259
 20
1.824798842993116
 42
0.0
 10
-0.1432308512632175
 20
1.775920958623227
 42
0.0
 10
-0.1490636219539062
 20
1.749807240705505
 42
0.0
 10
-0.1506167120414365
 20
1.72908999279395
 42
0.0
 10
-0.1487637454888133
 20
1.712836289006494
 42
0.0
 10
-0.1443783462590108
 20
1.700113203460908
 42
0.0
 10
-0.1383341383149494
 20
1.689987810275061
 42
0.0
 10
-0.131504745619599
 20
1.68152718356683
 42
0.0
 10
-0.1247637921360296
 20
1.673798397454143
 42
0.0
 10
-0.1188027671005017
 20
1.666061582610081
 42
0.0
 10
-0.1135846208429784
 20
1.658349095929031
 42
0.0
 10
-0.1088901689667281
 20
1.650886350860758
 42
0.0
 10
-0.1045002270750923
 20
1.643898760854961
 42
0.0
 10
-0.1001956107714723
 20
1.637611739361474
 42
0.0
 10
-0.0957571356590263
 20
1.632250699829846
 42
0.0
 10
-0.0909656173411874
 20
1.628041055709924
 42
0.0
 10
-0.085601871421233
 20
1.625208220451379
 42
0.0
 10
-0.079504008478527
 20
1.623888077166518
 42
0.0
 10
-0.0727393189967134
 20
1.623858387617958
 42
0.0
 10
-0.0654323884355917
 20
1.624807383230845
 42
0.0
 10
-0.0577078022547809
 20
1.626423295430364
 42
0.0
 10
-0.0496901459139904
 20
1.62839435564174
 42
0.0
 97
        0
 92
        7
 72
     1
 73
     1
 93
       10
 10
-1.151654302633176
 20
0.641541075456396
 42
0.0
 10
-1.078615928888227
 20
0.7232808232800679
 42
0.0
 10
-1.087271761680668
 20
0.7690665620545845
 42
0.0
 10
-1.28659168983121
 20
0.9393644941059072
 42
0.0
 10
-1.275245728592346
 20
1.004728267835658
 42
0.0
 10
-1.301348978921994
 20
1.041527733160338
 42
0.0501568458087059
 10
-1.606322770404466
 20
0.7289422613715534
 42
0.0
 10
-1.456448670263341
 20
0.5319020202534027
 42
0.0
 10
-1.366220826740246
 20
0.5394338776827674
 42
0.0
 10
-1.311203582538577
 20
0.6161945365896358
 42
0.0
 97
        0
 75
     0
 76
     1
 52
50.26041070926836
 41
0.4540155660649378
 77
     0
 78
     1
 53
95.26041070926835
 43
-21.87156487137499
 44
-23.66723971974165
 45
-0.05651292274748
 46
-0.0052031634482913
 79
     0
 47
0.0131480698585987
 98
        3
 10
0.2742423697853663
 20
1.693233776780729
 10
-0.0498917896303335
 20
1.667719331830341
 10
-1.311601622600338
 20
0.7293540860665713
  0
HATCH
  5
9D2
330
1F
100
AcDbEntity
  8
ceco.net 74
 62
    85
380
     1
100
AcDbHatch
 10
0.0
 20
0.0
 30
0.0
210
0.0
220
0.0
230
1.0
  2
ANSI31
 70
     0
 71
     0
 91
        2
 92
        7
 72
     1
 73
     1
 93
      188
 10
-1.043728262035817
 20
1.51518233471278
 42
0.0
 10
-1.03050416481992
 20
1.457097396961136
 42
0.0
 10
-1.056692343928726
 20
1.428449698199994
 42
0.0
 10
-1.010185025830864
 20
1.332900419332545
 42
0.0
 10
-1.029820232442001
 20
1.261231622913164
 42
0.0
 10
-1.103461945190672
 20
1.236143371196047
 42
0.0
 10
-1.090700868725996
 20
1.182059713647847
 42
0.0
 10
-1.08712011944475
 20
1.171161587095755
 42
0.0
 10
-1.083215154891973
 20
1.162464006061141
 42
0.0
 10
-1.079082433606062
 20
1.155672694135269
 42
0.0
 10
-1.074818414125424
 20
1.150493374909486
 42
0.0
 10
-1.070519554988394
 20
1.146631771975022
 42
0.0
 10
-1.06628231473341
 20
1.143793608923206
 42
0.0
 10
-0.9542387623391713
 20
1.064122274292954
 42
0.0
 10
-0.9503836124542871
 20
1.06247895348937
 42
0.0
 10
-0.9466963190116837
 20
1.061160993596307
 42
0.0
 10
-0.9430902024946004
 20
1.060058868459016
 42
0.0
 10
-0.9394785833867437
 20
1.059063051922879
 42
0.0
 10
-0.9357747821710358
 20
1.058064017833078
 42
0.0
 10
-0.9318921193314007
 20
1.056952240034977
 42
0.0
 10
-0.9277439153506971
 20
1.055618192373727
 42
0.0
 10
-0.9232434907127874
 20
1.05395234869474
 42
0.0
 10
-0.9183309494418651
 20
1.051882801266993
 42
0.0
 10
-0.9130535297262778
 20
1.049488116054304
 42
0.0
 10
-0.9074852532958846
 20
1.046884477444381
 42
0.0
 10
-0.9017001418801646
 20
1.04418806982506
 42
0.0
 10
-0.8957722172084114
 20
1.041515077583681
 42
0.0
 10
-0.8897755010103358
 20
1.038981685108008
 42
0.0
 10
-0.8837840150153921
 20
1.036704076785684
 42
0.0
 10
-0.8778717809531604
 20
1.034798437004336
 42
0.0
 10
-0.8721141159927976
 20
1.033360878575719
 42
0.0
 10
-0.866591519062419
 20
1.032407228008026
 42
0.0
 10
-0.8613857845298374
 20
1.031933240233555
 42
0.0
 10
-0.8565787067627177
 20
1.031934670184623
 42
0.0
 10
-0.8522520801289443
 20
1.032407272793495
 42
0.0
 10
-0.8484876989961986
 20
1.033346802992479
 42
0.0
 10
-0.8453673577322435
 20
1.034749015713903
 42
0.0
 10
-0.8429728507049192
 20
1.036609665890035
 42
0.0
 10
-0.8413436131867356
 20
1.038917704904581
 42
0.0
 10
-0.8403496440694034
 20
1.04163486994678
 42
0.0
 10
-0.8398185831494844
 20
1.044716094657343
 42
0.0
 10
-0.8395780702234167
 20
1.048116312676967
 42
0.0
 10
-0.8394557450876336
 20
1.051790457646078
 42
0.0
 10
-0.8392792475389727
 20
1.055693463205428
 42
0.0
 10
-0.8388762173735189
 20
1.059780262995846
 42
0.0
 10
-0.8380742943880267
 20
1.064005790657725
 42
0.0
 10
-0.8367405021980049
 20
1.068332271200877
 42
0.0
 10
-0.8348993996950833
 20
1.072751095110915
 42
0.0
 10
-0.8326149295902411
 20
1.077260944242159
 42
0.0
 10
-0.829951034594065
 20
1.081860500449455
 42
0.0
 10
-0.8269716574175745
 20
1.086548445587041
 42
0.0
 10
-0.8237407407713304
 20
1.09132346150964
 42
0.0
 10
-0.820322227366041
 20
1.096184230072033
 42
0.0
 10
-0.8167800599127875
 20
1.101129433128297
 42
0.0
 10
-0.813159002243182
 20
1.106147912217201
 42
0.0
 10
-0.8094271026729646
 20
1.111189147611415
 42
0.0
 10
-0.8055332306390459
 20
1.116192779267664
 42
0.0
 10
-0.8014262555782897
 20
1.121098447142517
 42
0.0
 10
-0.9050194364873757
 20
1.203408126245002
 42
0.0
 10
-0.9003328636835117
 20
1.207936786426925
 42
0.0
 10
-0.8952797961632896
 20
1.21218640269747
 42
0.0
 10
-0.8898091033636179
 20
1.216096615013168
 42
0.0
 10
-0.8839936188092647
 20
1.219775944823947
 42
0.0
 10
-0.8784020323777696
 20
1.224008439552352
 42
0.0
 10
-0.8737269980345194
 20
1.229747028114227
 42
0.0
 10
-0.8706611697450037
 20
1.237944639425438
 42
0.0
 10
-0.8698972014747246
 20
1.249554202401679
 42
0.0
 10
-0.8721277471891346
 20
1.265528645958905
 42
0.0
 10
-0.8780454608537072
 20
1.28682089901284
 42
0.0
 10
-0.8883429964338633
 20
1.31438389047931
 42
-0.0409974157489475
 10
-0.5576687144178988
 20
1.449622300330032
 42
0.0
 10
-0.5654512937135007
 20
1.386990665014977
 42
0.0
 10
-0.5983480268240525
 20
1.329975339729506
 42
0.0
 10
-0.5702584156875899
 20
1.301730720689312
 42
0.0
 10
-0.5132516622205963
 20
1.268841545799584
 42
0.0
 10
-0.4629023635490181
 20
1.30525397628609
 42
0.0
 10
-0.3852909849350144
 20
1.28982172454169
 42
0.0
 10
-0.3828083913528553
 20
1.360621914113783
 42
0.0
 10
-0.3392746126668667
 20
1.409995515158026
 42
0.0
 10
-0.3994263266564693
 20
1.493188565379641
 42
-0.0581404064913869
 10
0.1030288878854626
 20
1.551172222093556
 42
0.0
 10
0.0956432182301261
 20
1.501975716582727
 42
0.0
 10
-0.0518176095303393
 20
1.296714770759306
 42
0.0
 10
-0.0181633501920812
 20
1.212660125131878
 42
0.0
 10
0.0713543244359962
 20
1.182565576712857
 42
0.0
 10
0.1423643691044289
 20
1.037458742597298
 42
0.0
 10
0.2419258426203835
 20
0.9915947762956466
 42
0.0
 10
0.2831618172597833
 20
1.013293894065692
 42
0.0
 10
0.3875387075888227
 20
1.253783569902566
 42
0.0
 10
0.4533565901078632
 20
1.262099824668925
 42
0.0
 10
0.516974783608225
 20
1.344704381687384
 42
0.0
 10
0.5808553716765833
 20
1.380074059677825
 42
0.0
 10
0.6686981464220504
 20
1.329798055454856
 42
0.0
 10
0.6933637855524611
 20
1.209431464304289
 42
0.0
 10
0.7559463317652538
 20
1.122855074226178
 42
0.0
 10
0.9260434138140142
 20
1.277250571567335
 42
0.0694539362561951
 10
0.534127829559063
 20
1.591121907902152
 42
0.0
 10
0.5319017204871077
 20
1.589695957848471
 42
0.0
 10
0.5267011276356538
 20
1.586837441795698
 42
0.0
 10
0.5216044070701483
 20
1.584506784004857
 42
0.0
 10
0.5166917307219084
 20
1.582720741583278
 42
0.0
 10
0.51204327052206
 20
1.581496071638154
 42
0.0
 10
0.5077391984019445
 20
1.580849531276739
 42
0.0
 10
0.5038596862926829
 20
1.580797877606235
 42
0.0
 10
0.5004849061255492
 20
1.581357867733856
 42
0.0
 10
0.4976950298317807
 20
1.582546258766837
 42
0.0
 10
0.4955310064258458
 20
1.584362425521822
 42
0.0
 10
0.493876893255453
 20
1.58673621365313
 42
0.0
 10
0.4925775247516407
 20
1.58958008652451
 42
0.0
 10
0.4914777353452166
 20
1.592806507499756
 42
0.0
 10
0.4904223594674919
 20
1.596327939942394
 42
0.0
 10
0.4892562315490868
 20
1.600056847216789
 42
0.0
 10
0.4878241860210997
 20
1.603905692686179
 42
0.0
 10
0.485971057314667
 20
1.607786939714304
 42
0.0
 10
0.4835779014817476
 20
1.611630146793829
 42
0.0
 10
0.4806706610590768
 20
1.615433252932068
 42
0.0
 10
0.4773115002045815
 20
1.619211292265022
 42
0.0
 10
0.4735625830761102
 20
1.622979298928718
 42
0.0
 10
0.4694860738315238
 20
1.626752307059267
 42
0.0
 10
0.4663482380776659
 20
1.629493467902158
 42
0.0259128597512806
 10
0.2963050741116271
 20
1.709936795532918
 42
0.0
 10
0.3267714402306356
 20
1.656891335269126
 42
0.0
 10
0.3015994571913109
 20
1.638160363083001
 42
0.0
 10
0.2307605797392973
 20
1.575682072360556
 42
0.0
 10
0.1877736223914617
 20
1.60717151833408
 42
0.0
 10
0.2240863734724644
 20
1.663489585198597
 42
0.0
 10
0.1802061037696739
 20
1.669900109668833
 42
0.0
 10
0.1835233022655772
 20
1.711431206988052
 42
0.0
 10
0.140450994609768
 20
1.723325790063601
 42
0.0
 10
0.1122049288288777
 20
1.774303090337681
 42
0.010697764786542
 10
0.037138722381259
 20
1.794370914502473
 42
0.0
 10
0.040644392363308
 20
1.786225988828024
 42
0.0
 10
0.049211643642446
 20
1.768810917669536
 42
0.0
 10
0.0574065589802034
 20
1.754010438307076
 42
0.0
 10
0.0650581665426495
 20
1.741481582798387
 42
0.0
 10
0.0719954944958335
 20
1.730881383201128
 42
0.0
 10
0.0780475710057095
 20
1.721866871573382
 42
0.0
 10
0.0830434242377462
 20
1.714095079973201
 42
0.0
 10
0.0868120823584623
 20
1.707223040458039
 42
0.0
 10
0.0892314811136592
 20
1.700949484008671
 42
0.0
 10
0.0903751865692263
 20
1.695139937297053
 42
0.0
 10
0.090365672371064
 20
1.689701625917829
 42
0.0
 10
0.0893254121651158
 20
1.684541775465646
 42
0.0
 10
0.0873768795973131
 20
1.679567611535249
 42
0.0
 10
0.084642548313541
 20
1.674686359721306
 42
0.0
 10
0.0812448919597498
 20
1.669805245618492
 42
0.0
 10
0.0773063841818592
 20
1.664831494821532
 42
0.0
 10
0.0729341442850174
 20
1.65971402381858
 42
0.0
 10
0.0681738742120184
 20
1.654568512672525
 42
0.0
 10
0.0630559215648792
 20
1.64955233233969
 42
0.0
 10
0.0576106339455832
 20
1.644822853776381
 42
0.0
 10
0.0518683589562293
 20
1.640537447939053
 42
0.0
 10
0.0458594441987496
 20
1.636853485783944
 42
0.0
 10
0.0396142372751687
 20
1.633928338267442
 42
0.0
 10
0.0331630857875529
 20
1.631919376345868
 42
0.0
 10
0.0265306611809604
 20
1.630916794923756
 42
0.0
 10
0.0197189302727839
 20
1.630742084698127
 42
0.0
 10
0.0127241837233226
 20
1.631149560314095
 42
0.0
 10
0.0055427121933519
 20
1.631893536416744
 42
0.0
 10
-0.0018291936579126
 20
1.632728327651502
 42
0.0
 10
-0.0093952431687503
 20
1.633408248663214
 42
0.0
 10
-0.0171591456792838
 20
1.633687614097161
 42
0.0
 10
-0.0251246105292293
 20
1.633320738598484
 42
0.0
 10
-0.0332739645915119
 20
1.632154845800607
 42
0.0
 10
-0.0415040048729621
 20
1.630408795290059
 42
0.0
 10
-0.0496901459139904
 20
1.62839435564174
 42
0.0
 10
-0.0577078022547708
 20
1.626423295430348
 42
0.0
 10
-0.065432388435575
 20
1.624807383230855
 42
0.0
 10
-0.07273931899673
 20
1.623858387617948
 42
0.0
 10
-0.079504008478527
 20
1.623888077166518
 42
0.0
 10
-0.085601871421233
 20
1.625208220451379
 42
0.0
 10
-0.0909656173411925
 20
1.628041055709932
 42
0.0
 10
-0.0957571356590364
 20
1.632250699829862
 42
0.0
 10
-0.1001956107714353
 20
1.637611739361451
 42
0.0
 10
-0.1045002270751227
 20
1.643898760855011
 42
0.0
 10
-0.1088901689667281
 20
1.650886350860758
 42
0.0
 10
-0.1135846208429044
 20
1.658349095928984
 42
0.0
 10
-0.1188027671004915
 20
1.666061582610065
 42
0.0
 10
-0.1247637921360026
 20
1.673798397454136
 42
0.0
 10
-0.1315047456196868
 20
1.681527183566937
 42
0.0
 10
-0.1383341383149176
 20
1.689987810275046
 42
0.0
 10
-0.1443783462589956
 20
1.700113203460883
 42
0.0
 10
-0.14876374548882
 20
1.712836289006467
 42
0.0
 10
-0.1506167120414415
 20
1.729089992793958
 42
0.0
 10
-0.1490636219538727
 20
1.749807240705526
 42
0.0
 10
-0.1432308512631906
 20
1.77592095862322
 42
0.0
 10
-0.126679538732259
 20
1.824798842993116
 42
0.5417265781678418
 10
-0.145487164884026
 20
1.848713035406467
 42
0.1342797468875948
 97
        0
 92
        7
 72
     0
 73
     1
 93
       20
 10
0.965083037315281
 20
1.108696890678645
 10
0.9581625304527779
 20
1.161063163873909
 10
0.9576011626500669
 20
1.160740695404534
 10
0.9225343979972169
 20
1.177379006199998
 10
0.8448191533903804
 20
1.104901864393444
 10
0.7705430402074536
 20
1.102662058754223
 10
0.7559463317652538
 20
1.122855074226178
 10
0.7256661430585938
 20
1.095370036043062
 10
0.7427744466561459
 20
1.047160371214046
 10
0.7486573224006516
 20
1.014036216988407
 10
0.7718045304083623
 20
0.9703202207894779
 10
0.7333260183767237
 20
0.94637531112946
 10
0.7738155729804712
 20
0.9108763843851717
 10
0.8096466817571968
 20
0.7486304588420938
 10
0.8578018883728915
 20
0.7469619850272684
 10
0.8783197158396657
 20
0.7950437116526706
 10
1.028867061620261
 20
1.003087051680608
 10
1.029816657280816
 20
1.005882517253746
 10
1.116378368400619
 20
1.060070842627067
 10
1.039269674260004
 20
1.061982163284763
 97
        0
 75
     0
 76
     1
 52
50.26041070926836
 41
0.4540155660649378
 77
     0
 78
     1
 53
95.26041070926835
 43
-21.87156487137499
 44
-23.66723971974165
 45
-0.05651292274748
 46
-0.0052031634482913
 79
     0
 47
0.0034673366850673
 98
        2
 10
-0.5345731426222751
 20
1.635947059928619
 10
0.9444341925427741
 20
1.032437496970855
  0
HATCH
  5
9D3
330
1F
100
AcDbEntity
  8
ceco.net 74
 62
    83
380
     1
100
AcDbHatch
 10
0.0
 20
0.0
 30
0.0
210
0.0
220
0.0
230
1.0
  2
ANSI31
 70
     0
 71
     0
 91
        1
 92
        7
 72
     1
 73
     1
 93
       36
 10
1.192027937899007
 20
1.372255315178107
 42
0.372340547746278
 10
1.182582370196414
 20
1.430885536802927
 42
0.0871387694220043
 10
0.6387582155140156
 20
1.745409090997637
 42
0.5293802227879486
 10
0.6143678187992939
 20
1.727877157638462
 42
0.0
 10
0.6155214539956413
 20
1.683835681441644
 42
0.0
 10
0.6148387131912417
 20
1.672384708000297
 42
0.0
 10
0.6132812272075693
 20
1.662978810838223
 42
0.0
 10
0.6110173201063592
 20
1.655358047914598
 42
0.0
 10
0.6070307375422781
 20
1.646685506900409
 42
0.0
 10
0.6004602647465967
 20
1.639235030815088
 42
0.0
 10
0.5935965294204763
 20
1.633898765813102
 42
0.0
 10
0.5885204910504882
 20
1.630755021714305
 42
0.0
 10
0.585282301910198
 20
1.628870990334291
 42
0.0
 10
0.5819557999996549
 20
1.626960336623581
 42
0.0
 10
0.5784851073307483
 20
1.624895048992715
 42
0.0
 10
0.5748143459131755
 20
1.622547115850191
 42
0.0
 10
0.5708876377569072
 20
1.619788525605077
 42
0.0
 10
0.5666654079762669
 20
1.616534472136863
 42
0.0
 10
0.5621732941022782
 20
1.612872971205999
 42
0.0
 10
0.5574532367692227
 20
1.608935244041696
 42
0.0
 10
0.5525471766172016
 20
1.604852511881553
 42
0.0
 10
0.5474970542764418
 20
1.600755995949667
 42
0.0
 10
0.5423448103843005
 20
1.596776917479602
 42
0.0
 10
0.5371323855760716
 20
1.593046497702182
 42
0.0
 10
0.5341278295590679
 20
1.591121907902144
 42
-0.0694539362561943
 10
0.9260434138140142
 20
1.277250571567335
 42
0.0
 10
0.7559463317652538
 20
1.122855074226178
 42
0.0
 10
0.7705430402074435
 20
1.10266205875424
 42
0.0
 10
0.8448191533903804
 20
1.104901864393444
 42
0.0
 10
0.9225343979972169
 20
1.177379006199998
 42
0.0
 10
0.9576011626500669
 20
1.160740695404534
 42
0.0
 10
1.009256516620343
 20
1.190413260965875
 42
-0.004022034380741
 10
1.03235912953322
 20
1.172528121255144
 42
0.0
 10
1.047318901153518
 20
1.229265678034215
 42
0.0
 10
1.109080649090192
 20
1.198886015362701
 42
0.0
 10
1.184673156179703
 20
1.243490822239063
 42
0.0
 97
        0
 75
     0
 76
     1
 52
50.26041070926836
 41
0.4540155660649378
 77
     0
 78
     1
 53
95.26041070926835
 43
-21.87156487137499
 44
-23.66723971974165
 45
-0.05651292274748
 46
-0.0052031634482913
 79
     0
 47
0.0135824275751765
 98
        1
 10
0.9668926531428333
 20
1.443807565288233
  0
HATCH
  5
9D4
330
1F
100
AcDbEntity
  8
ceco.net 74
 62
    87
380
     1
100
AcDbHatch
 10
0.0
 20
0.0
 30
0.0
210
0.0
220
0.0
230
1.0
  2
ANSI31
 70
     0
 71
     0
 91
        1
 92
        7
 72
     1
 73
     1
 93
        5
 10
1.163329551397813
 20
1.058907046936205
 42
0.0279068453020032
 10
1.009256516620343
 20
1.190413260965875
 42
0.0
 10
0.9581625304527779
 20
1.161063163873909
 42
0.0
 10
0.965083037315281
 20
1.108696890678645
 42
0.0
 10
1.039269674259999
 20
1.061982163284771
 42
0.0
 97
        0
 75
     0
 76
     1
 52
50.26041070926836
 41
0.4540155660649378
 77
     0
 78
     1
 53
95.26041070926835
 43
-21.87156487137499
 44
-23.66723971974165
 45
-0.05651292274748
 46
-0.0052031634482913
 79
     0
 47
0.0069750031500802
 98
        1
 10
1.022417916980286
 20
1.130502901212645
  0
HATCH
  5
9D5
330
1F
100
AcDbEntity
  8
ceco.net 74
 62
    81
380
     1
100
AcDbHatch
 10
0.0
 20
0.0
 30
0.0
210
0.0
220
0.0
230
1.0
  2
ANSI31
 70
     0
 71
     0
 91
        1
 92
        7
 72
     1
 73
     1
 93
      208
 10
1.27212636326526
 20
0.159606506427577
 42
0.0
 10
1.237240958350418
 20
0.2078946547117822
 42
0.0
 10
1.250140897124159
 20
0.2445020712960987
 42
0.0
 10
1.169972097889213
 20
0.314255630043815
 42
0.0
 10
1.160017300510735
 20
0.387895698810887
 42
0.0
 10
1.258178195200316
 20
0.4757636796933077
 42
0.0
 10
1.375325629115969
 20
0.5128175424594783
 42
0.0
 10
1.416190307782956
 20
0.6054140203247272
 42
0.0
 10
1.374366879464808
 20
0.6652683810416188
 42
0.0
 10
1.285592172027288
 20
0.7199477985938058
 42
0.0
 10
1.270473829727282
 20
0.7845433826435703
 42
0.0
 10
1.020430470028761
 20
0.8633351188191303
 42
0.0
 10
0.994559204240614
 20
0.902089923978982
 42
0.0
 10
1.028867061620254
 20
1.003087051680581
 42
0.0
 10
0.8783197158396657
 20
0.7950437116526706
 42
0.0
 10
0.8578018883728915
 20
0.7469619850272684
 42
0.0
 10
0.8096466817572018
 20
0.7486304588420854
 42
0.0
 10
0.7738155729804712
 20
0.9108763843851717
 42
0.0
 10
0.7333260183767237
 20
0.94637531112946
 42
0.0
 10
0.7718045304083521
 20
0.9703202207894946
 42
0.0
 10
0.7486573224006618
 20
1.01403621698839
 42
0.0
 10
0.7427744466561343
 20
1.047160371214028
 42
0.0
 10
0.725666143058599
 20
1.095370036043054
 42
0.0
 10
0.7559463317652538
 20
1.122855074226178
 42
0.0
 10
0.6933637855524877
 20
1.209431464304282
 42
0.0
 10
0.6686981464220504
 20
1.329798055454856
 42
0.0
 10
0.5808553716766101
 20
1.380074059677818
 42
0.0
 10
0.5169747836082149
 20
1.344704381687401
 42
0.0
 10
0.4533565901078799
 20
1.262099824668935
 42
0.0
 10
0.3875387075888227
 20
1.253783569902566
 42
0.0
 10
0.2831618172597616
 20
1.01329389406569
 42
0.0
 10
0.2419258426203835
 20
0.9915947762956466
 42
0.0
 10
0.142364369104434
 20
1.03745874259729
 42
0.0
 10
0.0713543244359962
 20
1.182565576712857
 42
0.0
 10
-0.0181633501920761
 20
1.21266012513187
 42
0.0
 10
-0.0518176095303227
 20
1.296714770759316
 42
0.0
 10
0.0956432182301261
 20
1.501975716582727
 42
0.0
 10
0.1030288878854626
 20
1.551172222093556
 42
0.0581404064913869
 10
-0.3994263266564693
 20
1.493188565379641
 42
0.0
 10
-0.3392746126668617
 20
1.409995515158017
 42
0.0
 10
-0.3828083913528553
 20
1.360621914113783
 42
0.0
 10
-0.3852909849349977
 20
1.289821724541701
 42
0.0
 10
-0.4629023635490181
 20
1.30525397628609
 42
0.0
 10
-0.5132516622205963
 20
1.268841545799584
 42
0.0
 10
-0.5702584156875848
 20
1.301730720689303
 42
0.0
 10
-0.5983480268240525
 20
1.329975339729506
 42
0.0
 10
-0.5654512937135058
 20
1.386990665014985
 42
0.0
 10
-0.5576687144178988
 20
1.449622300330032
 42
0.0409974157489475
 10
-0.8883429964338633
 20
1.31438389047931
 42
0.0
 10
-0.8780454608536651
 20
1.286820899012809
 42
0.0
 10
-0.8721277471891244
 20
1.265528645958888
 42
0.0
 10
-0.8698972014747411
 20
1.249554202401669
 42
0.0
 10
-0.8706611697450206
 20
1.237944639425428
 42
0.0
 10
-0.8737269980345194
 20
1.229747028114227
 42
0.0
 10
-0.8784020323777529
 20
1.224008439552362
 42
0.0
 10
-0.8839936188092714
 20
1.219775944823921
 42
0.0
 10
-0.8898091033635459
 20
1.2160966150132
 42
0.0
 10
-0.8952797961632946
 20
1.212186402697479
 42
0.0
 10
-0.9003328636834549
 20
1.207936786426983
 42
0.0
 10
-0.9050194364873757
 20
1.203408126245002
 42
0.0
 10
-0.8014262555782897
 20
1.121098447142517
 42
0.0
 10
-0.8055332306389825
 20
1.116192779267748
 42
0.0
 10
-0.8094271026728032
 20
1.111189147611639
 42
0.0
 10
-0.8131590022429888
 20
1.10614791221741
 42
0.0
 10
-0.8167800599117974
 20
1.101129433129756
 42
0.0
 10
-0.820322227365888
 20
1.096184230072309
 42
0.0
 10
-0.8237407407712321
 20
1.091323461509779
 42
0.0
 10
-0.8269716574175129
 20
1.08654844558709
 42
0.0
 10
-0.8299510345940998
 20
1.0818605004494
 42
0.0
 10
-0.8326149295902679
 20
1.077260944242166
 42
0.0
 10
-0.8348993996951415
 20
1.072751095110822
 42
0.0
 10
-0.8367405021980049
 20
1.068332271200877
 42
0.0
 10
-0.8380742943880836
 20
1.064005790657667
 42
0.0
 10
-0.8388762173735464
 20
1.059780262995704
 42
0.0
 10
-0.839279247538924
 20
1.055693463205423
 42
0.0
 10
-0.8394557450877954
 20
1.051790457646232
 42
0.0
 10
-0.8396607956476989
 20
1.045631580491851
 42
0.0
 10
-0.8406481520934029
 20
1.03990292119046
 42
0.0
 10
-0.8437840201686229
 20
1.035460532784059
 42
0.0
 10
-0.8500409763852816
 20
1.03264879430348
 42
0.0
 10
-0.858771210214331
 20
1.031695180406804
 42
0.0
 10
-0.8665915190624676
 20
1.032407228008031
 42
0.0
 10
-0.8721141159928194
 20
1.033360878575717
 42
0.0
 10
-0.8778717809531503
 20
1.034798437004319
 42
0.0
 10
-0.8837840150153921
 20
1.036704076785684
 42
0.0
 10
-0.8897755010103409
 20
1.038981685108016
 42
0.0
 10
-0.8957722172085023
 20
1.041515077583717
 42
0.0
 10
-0.9017001418801545
 20
1.044188069825043
 42
0.0
 10
-0.907485253295777
 20
1.046884477444355
 42
0.0
 10
-0.9130535297263685
 20
1.049488116054341
 42
0.0
 10
-0.9183309494418114
 20
1.05188280126698
 42
0.0
 10
-0.9232434907127874
 20
1.05395234869474
 42
0.0
 10
-0.9277439153507456
 20
1.055618192373732
 42
0.0
 10
-0.9318921193313469
 20
1.056952240034964
 42
0.0
 10
-0.9357747821712019
 20
1.058064017833126
 42
0.0
 10
-0.9394785833867471
 20
1.059063051922922
 42
0.0
 10
-0.9453766560953246
 20
1.060689302687196
 42
0.0
 10
-0.9503836124543308
 20
1.062478953489367
 42
0.0
 10
-0.9542387623391764
 20
1.064122274292963
 42
0.0
 10
-1.066282314733383
 20
1.143793608923199
 42
0.0
 10
-1.070519554988399
 20
1.14663177197503
 42
0.0
 10
-1.074818414125414
 20
1.150493374909469
 42
0.0
 10
-1.079082433606062
 20
1.155672694135269
 42
0.0
 10
-1.083215154891962
 20
1.162464006061125
 42
0.0
 10
-1.08712011944474
 20
1.171161587095738
 42
0.0
 10
-1.090700868725995
 20
1.182059713647882
 42
0.0
 10
-1.103461945190672
 20
1.236143371196047
 42
0.0
 10
-1.154525500446143
 20
1.218747044033047
 42
0.0
 10
-1.276834274079721
 20
1.230454900846923
 42
0.0
 10
-1.350655065127379
 20
1.161212424831802
 42
0.0
 10
-1.335568455643995
 20
1.089769175553754
 42
0.0
 10
-1.275245728592346
 20
1.004728267835658
 42
0.0
 10
-1.286591689831205
 20
0.9393644941058987
 42
0.0
 10
-1.087271761680668
 20
0.7690665620545845
 42
0.0
 10
-1.078615928888227
 20
0.7232808232800679
 42
0.0
 10
-1.151654302633172
 20
0.6415410754563875
 42
0.0
 10
-1.164113388423222
 20
0.6395617828992034
 42
0.1176921684285055
 10
-0.6675391013200666
 20
-0.2437030675830645
 42
0.8270561609405422
 10
-0.5918642099981765
 20
-0.196498891213266
 42
0.0
 10
-0.5934650707846778
 20
-0.1923588233071064
 42
-0.2799778283021079
 10
-0.5099419856471151
 20
-0.1158425869221914
 42
0.8616245048497866
 10
-0.5126846351398126
 20
-0.0578767146120562
 42
-0.7335825464443675
 10
-0.5268104560378202
 20
0.0104503967565807
 42
0.0
 10
-0.4566859597597418
 20
-0.0538141278726011
 42
0.0
 10
-0.4055982329051869
 20
0.0175571554939593
 42
0.0
 10
-0.3703355554374665
 20
0.0194460004477221
 42
0.0
 10
-0.3237278814245187
 20
0.1087624982446373
 42
0.0
 10
-0.242993940611636
 20
0.0907459507924594
 42
0.0
 10
-0.2194441020433873
 20
0.0510497082130859
 42
0.0
 10
-0.234005743791902
 20
-0.1783747586739562
 42
0.0
 10
-0.1953761767343812
 20
-0.2274036902798263
 42
0.0
 10
-0.1487917501374239
 20
-0.2143365205565075
 42
0.0
 10
-0.1260021599108232
 20
-0.1588096705998978
 42
0.0
 10
-0.0711432900038242
 20
-0.1671414616597766
 42
0.0
 10
-0.0490858569823822
 20
-0.2496217997728394
 42
0.0
 10
-0.0929276340866755
 20
-0.3206548418063137
 42
0.5046405816136971
 10
-0.0059994844992295
 20
-0.3928452738826858
 42
-0.3508021785107036
 10
-0.0387055418273805
 20
-0.4740250481249954
 42
-0.1256811602615205
 10
-0.0172668226043097
 20
-0.5484692279221053
 42
0.0
 10
-0.0161573403838137
 20
-0.5485131488750114
 42
0.0
 10
-0.0094380334907167
 20
-0.5482501756069718
 42
0.0
 10
-0.0025877749663303
 20
-0.5475934514590151
 42
0.0
 10
0.004424575613118
 20
-0.5475110512277608
 42
0.0
 10
0.0116357046693917
 20
-0.54918047104514
 42
0.0
 10
0.0190822986243685
 20
-0.5537792070431973
 42
0.0
 10
0.0268010438998022
 20
-0.562484755353961
 42
0.0
 10
0.0348286269175233
 20
-0.5764746121094357
 42
0.0
 10
0.0432017340993967
 20
-0.5969262734417195
 42
0.0
 10
0.063894667833867
 20
-0.6633184286404069
 42
0.3851675971201811
 10
0.0848754778958259
 20
-0.6757060843929902
 42
0.0467655927702327
 10
0.4091664849730533
 20
-0.5770157733712206
 42
0.5431042967910278
 10
0.4148258544391236
 20
-0.5470799300214538
 42
0.0
 10
0.3800978159458927
 20
-0.5139020583376085
 42
0.0
 10
0.3654025544167976
 20
-0.5012240542942469
 42
0.0
 10
0.3520724266374709
 20
-0.4908068320089503
 42
0.0
 10
0.340130670381992
 20
-0.4822678756215994
 42
0.0
 10
0.3296005234244808
 20
-0.4752246692721405
 42
0.0
 10
0.32050522353898
 20
-0.4692946971004306
 42
0.0
 10
0.3128680084995855
 20
-0.4640954432463394
 42
0.0
 10
0.3067121160803741
 20
-0.4592443918498173
 42
0.0
 10
0.3020320776573704
 20
-0.4544165309136747
 42
0.0
 10
0.2971467316697416
 20
-0.4472164339380571
 42
0.0
 10
0.2955293186128862
 20
-0.4393521408667559
 42
0.0
 10
0.2953775156259453
 20
-0.4340120994973243
 42
0.0
 10
0.2959852699627838
 20
-0.4284502813137414
 42
0.0
 10
0.2972035810093929
 20
-0.4226291936337485
 42
0.0
 10
0.298883448151454
 20
-0.416511343775217
 42
0.0
 10
0.3009063058225337
 20
-0.4100916056167671
 42
0.0
 10
0.3032753286452949
 20
-0.4034943192816327
 42
0.0
 10
0.3060241262898185
 20
-0.3968761914543075
 42
0.0
 10
0.3091863084263626
 20
-0.390393928819087
 42
0.0
 10
0.312795484725086
 20
-0.384204238060292
 42
0.0
 10
0.3168852648561117
 20
-0.3784638258623341
 42
0.0
 10
0.3214892584896872
 20
-0.3733293989094917
 42
0.0
 10
0.3266410752958516
 20
-0.3689576638862274
 42
0.0
 10
0.3323532795993095
 20
-0.3654412811332307
 42
0.0
 10
0.3385542543422598
 20
-0.3626167256167405
 42
0.0
 10
0.3451513371215243
 20
-0.3602564259593408
 42
0.0
 10
0.3520518655335652
 20
-0.3581328107838904
 42
0.0
 10
0.3591631771756055
 20
-0.3560183087124664
 42
0.0
 10
0.3663926096441281
 20
-0.3536853483679614
 42
0.0
 10
0.3736475005356788
 20
-0.3509063583731836
 42
0.0
 10
0.3808351874471739
 20
-0.3474537673505335
 42
0.0
 10
0.3878796607235052
 20
-0.3431938760482367
 42
0.0
 10
0.3947715217028416
 20
-0.3383684737165394
 42
0.0
 10
0.4015180244713608
 20
-0.333313221731492
 42
0.0
 10
0.4081264231155608
 20
-0.3283637814687681
 42
0.0
 10
0.4146039717218083
 20
-0.3238558143043153
 42
0.0
 10
0.420957924376344
 20
-0.3201249816139859
 42
0.0
 10
0.4271955351654926
 20
-0.3175069447736957
 42
0.0
 10
0.4333240581756321
 20
-0.3163373651592598
 42
0.0
 10
0.4393684686891623
 20
-0.3168470978738156
 42
0.0
 10
0.4454246267723906
 20
-0.3188477729293066
 42
0.0
 10
0.4516061136877524
 20
-0.3220462140649457
 42
0.0
 10
0.4580265106976284
 20
-0.3261492450199333
 42
0.0
 10
0.4647993990644284
 20
-0.330863689533441
 42
0.0
 10
0.4720383600505654
 20
-0.3358963713446838
 42
0.0
 10
0.479856974918404
 20
-0.3409541141928719
 42
0.0
 10
0.4883688249303957
 20
-0.3457437418172087
 42
0.0
 10
0.4975953560912921
 20
-0.3502209855430955
 42
0.0
 10
0.5071894733756648
 20
-0.3553372070410706
 42
0.0
 10
0.5167119465004017
 20
-0.3622926755678601
 42
0.0
 10
0.5257235451824279
 20
-0.3722876603802139
 42
0.0
 10
0.5337850391387074
 20
-0.3865224307348695
 42
0.0
 10
0.5404571980861278
 20
-0.4061972558885532
 42
0.0
 10
0.5453007917416483
 20
-0.4325124050981083
 42
0.0
 10
0.549181416810277
 20
-0.4839704878066899
 42
0.541726578167856
 10
0.5758430973718058
 20
-0.4986255275501375
 42
0.1342797468875946
 97
        0
 75
     0
 76
     1
 52
50.26041070926836
 41
0.4540155660649378
 77
     0
 78
     1
 53
95.26041070926835
 43
-21.87156487137499
 44
-23.66723971974165
 45
-0.05651292274748
 46
-0.0052031634482913
 79
     0
 47
0.012273634511544
 98
        1
 10
0.0504517152033659
 20
0.5245934691292659
  0
ENDSEC
  0
SECTION
  2
OBJECTS
  0
DICTIONARY
  5
C
330
0
100
AcDbDictionary
281
     1
  3
ACAD_GROUP
350
D
  3
ACAD_LAYOUT
350
1A
  3
ACAD_MLINESTYLE
350
17
  3
ACAD_PLOTSETTINGS
350
19
  3
ACAD_PLOTSTYLENAME
350
E
  3
AcDbVariableDictionary
350
115
  3
DWGPROPS
350
9DA
  0
DICTIONARY
  5
D
102
{ACAD_REACTORS
330
C
102
}
330
C
100
AcDbDictionary
281
     1
  0
DICTIONARY
  5
1A
102
{ACAD_REACTORS
330
C
102
}
330
C
100
AcDbDictionary
281
     1
  3
Layout1
350
1E
  3
Layout2
350
26
  3
Model
350
22
  0
DICTIONARY
  5
17
102
{ACAD_REACTORS
330
C
102
}
330
C
100
AcDbDictionary
281
     1
  3
Standard
350
18
  0
DICTIONARY
  5
19
102
{ACAD_REACTORS
330
C
102
}
330
C
100
AcDbDictionary
281
     1
  0
ACDBDICTIONARYWDFLT
  5
E
102
{ACAD_REACTORS
330
C
102
}
330
C
100
AcDbDictionary
281
     1
  3
Normal
350
F
100
AcDbDictionaryWithDefault
340
F
  0
DICTIONARY
  5
115
102
{ACAD_REACTORS
330
C
102
}
330
C
100
AcDbDictionary
281
     1
  3
DIMASSOC
350
117
  3
HIDETEXT
350
116
  0
XRECORD
  5
9DA
102
{ACAD_REACTORS
330
C
102
}
330
C
100
AcDbXrecord
280
     1
  1
DWGPROPS COOKIE
  2
Ceco.NET-Trees-and-Plants - T - xx . 74 . dwg
  3

  4
ceco.net
  6

  7

  8
peacosta
  9

300
=
301
=
302
=
303
=
304
=
305
=
306
=
307
=
308
=
309
=
 40
0.056576099537037
 41
2455079.811409143
 42
2455839.498857916
  1

 90
        0
  0
LAYOUT
  5
1E
102
{ACAD_REACTORS
330
1A
102
}
330
1A
100
AcDbPlotSettings
  1

  2
Microsoft Office Document Image Writer
  4

  6

 40
0.0
 41
0.0
 42
0.0
 43
0.0
 44
0.0
 45
0.0
 46
0.0
 47
0.0
 48
0.0
 49
0.0
140
0.0
141
0.0
142
1.0
143
1.0
 70
   688
 72
     0
 73
     0
 74
     5
  7

 75
    16
147
1.0
148
0.0
149
0.0
100
AcDbLayout
  1
Layout1
 70
     1
 71
     1
 10
0.0
 20
0.0
 11
420.0
 21
297.0
 12
0.0
 22
0.0
 32
0.0
 14
1.000000000000000E+20
 24
1.000000000000000E+20
 34
1.000000000000000E+20
 15
-1.000000000000000E+20
 25
-1.000000000000000E+20
 35
-1.000000000000000E+20
146
0.0
 13
0.0
 23
0.0
 33
0.0
 16
1.0
 26
0.0
 36
0.0
 17
0.0
 27
1.0
 37
0.0
 76
     0
330
1B
  0
LAYOUT
  5
26
102
{ACAD_REACTORS
330
1A
102
}
330
1A
100
AcDbPlotSettings
  1

  2
Microsoft Office Document Image Writer
  4

  6

 40
0.0
 41
0.0
 42
0.0
 43
0.0
 44
0.0
 45
0.0
 46
0.0
 47
0.0
 48
0.0
 49
0.0
140
0.0
141
0.0
142
1.0
143
1.0
 70
   688
 72
     0
 73
     0
 74
     5
  7

 75
    16
147
1.0
148
0.0
149
0.0
100
AcDbLayout
  1
Layout2
 70
     1
 71
     2
 10
0.0
 20
0.0
 11
12.0
 21
9.0
 12
0.0
 22
0.0
 32
0.0
 14
0.0
 24
0.0
 34
0.0
 15
0.0
 25
0.0
 35
0.0
146
0.0
 13
0.0
 23
0.0
 33
0.0
 16
1.0
 26
0.0
 36
0.0
 17
0.0
 27
1.0
 37
0.0
 76
     0
330
23
  0
LAYOUT
  5
22
102
{ACAD_REACTORS
330
1A
102
}
330
1A
100
AcDbPlotSettings
  1

  2
Microsoft Office Document Image Writer
  4

  6

 40
0.0
 41
0.0
 42
0.0
 43
0.0
 44
0.0
 45
0.0
 46
0.0
 47
0.0
 48
0.0
 49
0.0
140
0.0
141
0.0
142
1.0
143
1.0
 70
  1712
 72
     0
 73
     0
 74
     0
  7

 75
     0
147
1.0
148
0.0
149
0.0
100
AcDbLayout
  1
Model
 70
     1
 71
     0
 10
0.0
 20
0.0
 11
12.0
 21
9.0
 12
0.0
 22
0.0
 32
0.0
 14
0.0
 24
0.0
 34
0.0
 15
0.0
 25
0.0
 35
0.0
146
0.0
 13
0.0
 23
0.0
 33
0.0
 16
1.0
 26
0.0
 36
0.0
 17
0.0
 27
1.0
 37
0.0
 76
     0
330
1F
  0
MLINESTYLE
  5
18
102
{ACAD_REACTORS
330
17
102
}
330
17
100
AcDbMlineStyle
  2
STANDARD
 70
     0
  3

 62
   256
 51
90.0
 52
90.0
 71
     2
 49
0.5
 62
   256
  6
BYLAYER
 49
-0.5
 62
   256
  6
BYLAYER
  0
ACDBPLACEHOLDER
  5
F
102
{ACAD_REACTORS
330
E
102
}
330
E
  0
DICTIONARYVAR
  5
117
102
{ACAD_REACTORS
330
115
102
}
330
115
100
DictionaryVariables
280
     0
  1
2
  0
DICTIONARYVAR
  5
116
102
{ACAD_REACTORS
330
115
102
}
330
115
100
DictionaryVariables
280
     0
  1
1
  0
ENDSEC
  0
EOF
