  0
SECTION
  2
HEADER
  9
$ACADVER
  1
AC1015
  9
$ACADMAINTVER
 70
    13
  9
$DWGCODEPAGE
  3
ANSI_1252
  9
$INSBASE
 10
0.0
 20
0.0
 30
0.0
  9
$EXTMIN
 10
-1799.457781034261
 20
-0.2334069041044131
 30
-0.0015258207003583
  9
$EXTMAX
 10
2313.593070769711
 20
7555.724532234751
 30
0.0000000349246037
  9
$LIMMIN
 10
0.0
 20
0.0
  9
$LIMMAX
 10
420.0
 20
297.0
  9
$ORTHOMODE
 70
     0
  9
$REGENMODE
 70
     1
  9
$FILLMODE
 70
     1
  9
$QTEXTMODE
 70
     0
  9
$MIRRTEXT
 70
     1
  9
$LTSCALE
 40
1.0
  9
$ATTMODE
 70
     1
  9
$TEXTSIZE
 40
2.5
  9
$TRACEWID
 40
1.0
  9
$TEXTSTYLE
  7
Standard
  9
$CLAYER
  8
ceco.net 160
  9
$CELTYPE
  6
ByLayer
  9
$CECOLOR
 62
   256
  9
$CELTSCALE
 40
1.0
  9
$DISPSILH
 70
     0
  9
$DIMSCALE
 40
1.0
  9
$DIMASZ
 40
2.5
  9
$DIMEXO
 40
0.625
  9
$DIMDLI
 40
3.75
  9
$DIMRND
 40
0.0
  9
$DIMDLE
 40
0.0
  9
$DIMEXE
 40
1.25
  9
$DIMTP
 40
0.0
  9
$DIMTM
 40
0.0
  9
$DIMTXT
 40
2.5
  9
$DIMCEN
 40
2.5
  9
$DIMTSZ
 40
0.0
  9
$DIMTOL
 70
     0
  9
$DIMLIM
 70
     0
  9
$DIMTIH
 70
     0
  9
$DIMTOH
 70
     0
  9
$DIMSE1
 70
     0
  9
$DIMSE2
 70
     0
  9
$DIMTAD
 70
     1
  9
$DIMZIN
 70
     8
  9
$DIMBLK
  1

  9
$DIMASO
 70
     1
  9
$DIMSHO
 70
     1
  9
$DIMPOST
  1

  9
$DIMAPOST
  1

  9
$DIMALT
 70
     0
  9
$DIMALTD
 70
     3
  9
$DIMALTF
 40
0.03937007874016
  9
$DIMLFAC
 40
1.0
  9
$DIMTOFL
 70
     1
  9
$DIMTVP
 40
0.0
  9
$DIMTIX
 70
     0
  9
$DIMSOXD
 70
     0
  9
$DIMSAH
 70
     0
  9
$DIMBLK1
  1

  9
$DIMBLK2
  1

  9
$DIMSTYLE
  2
ISO-25
  9
$DIMCLRD
 70
     0
  9
$DIMCLRE
 70
     0
  9
$DIMCLRT
 70
     0
  9
$DIMTFAC
 40
1.0
  9
$DIMGAP
 40
0.625
  9
$DIMJUST
 70
     0
  9
$DIMSD1
 70
     0
  9
$DIMSD2
 70
     0
  9
$DIMTOLJ
 70
     0
  9
$DIMTZIN
 70
     8
  9
$DIMALTZ
 70
     0
  9
$DIMALTTZ
 70
     0
  9
$DIMUPT
 70
     0
  9
$DIMDEC
 70
     2
  9
$DIMTDEC
 70
     2
  9
$DIMALTU
 70
     2
  9
$DIMALTTD
 70
     3
  9
$DIMTXSTY
  7
Standard
  9
$DIMAUNIT
 70
     0
  9
$DIMADEC
 70
     0
  9
$DIMALTRND
 40
0.0
  9
$DIMAZIN
 70
     0
  9
$DIMDSEP
 70
    44
  9
$DIMATFIT
 70
     3
  9
$DIMFRAC
 70
     0
  9
$DIMLDRBLK
  1

  9
$DIMLUNIT
 70
     2
  9
$DIMLWD
 70
    -2
  9
$DIMLWE
 70
    -2
  9
$DIMTMOVE
 70
     0
  9
$LUNITS
 70
     2
  9
$LUPREC
 70
     2
  9
$SKETCHINC
 40
1.0
  9
$FILLETRAD
 40
10.0
  9
$AUNITS
 70
     0
  9
$AUPREC
 70
     0
  9
$MENU
  1
.
  9
$ELEVATION
 40
0.0
  9
$PELEVATION
 40
0.0
  9
$THICKNESS
 40
0.0
  9
$LIMCHECK
 70
     0
  9
$CHAMFERA
 40
10.0
  9
$CHAMFERB
 40
10.0
  9
$CHAMFERC
 40
20.0
  9
$CHAMFERD
 40
0.0
  9
$SKPOLY
 70
     0
  9
$TDCREATE
 40
2455079.811409143
  9
$TDUCREATE
 40
2455079.936409144
  9
$TDUPDATE
 40
2456789.635383750
  9
$TDUUPDATE
 40
2456789.760383749
  9
$TDINDWG
 40
0.0476798032
  9
$TDUSRTIMER
 40
0.0476798032
  9
$USRTIMER
 70
     1
  9
$ANGBASE
 50
0.0
  9
$ANGDIR
 70
     0
  9
$PDMODE
 70
     0
  9
$PDSIZE
 40
0.0
  9
$PLINEWID
 40
0.0
  9
$SPLFRAME
 70
     0
  9
$SPLINETYPE
 70
     6
  9
$SPLINESEGS
 70
     8
  9
$HANDSEED
  5
A8B
  9
$SURFTAB1
 70
     6
  9
$SURFTAB2
 70
     6
  9
$SURFTYPE
 70
     6
  9
$SURFU
 70
     6
  9
$SURFV
 70
     6
  9
$UCSBASE
  2

  9
$UCSNAME
  2

  9
$UCSORG
 10
0.0
 20
0.0
 30
0.0
  9
$UCSXDIR
 10
1.0
 20
0.0
 30
0.0
  9
$UCSYDIR
 10
0.0
 20
1.0
 30
0.0
  9
$UCSORTHOREF
  2

  9
$UCSORTHOVIEW
 70
     0
  9
$UCSORGTOP
 10
0.0
 20
0.0
 30
0.0
  9
$UCSORGBOTTOM
 10
0.0
 20
0.0
 30
0.0
  9
$UCSORGLEFT
 10
0.0
 20
0.0
 30
0.0
  9
$UCSORGRIGHT
 10
0.0
 20
0.0
 30
0.0
  9
$UCSORGFRONT
 10
0.0
 20
0.0
 30
0.0
  9
$UCSORGBACK
 10
0.0
 20
0.0
 30
0.0
  9
$PUCSBASE
  2

  9
$PUCSNAME
  2

  9
$PUCSORG
 10
0.0
 20
0.0
 30
0.0
  9
$PUCSXDIR
 10
1.0
 20
0.0
 30
0.0
  9
$PUCSYDIR
 10
0.0
 20
1.0
 30
0.0
  9
$PUCSORTHOREF
  2

  9
$PUCSORTHOVIEW
 70
     0
  9
$PUCSORGTOP
 10
0.0
 20
0.0
 30
0.0
  9
$PUCSORGBOTTOM
 10
0.0
 20
0.0
 30
0.0
  9
$PUCSORGLEFT
 10
0.0
 20
0.0
 30
0.0
  9
$PUCSORGRIGHT
 10
0.0
 20
0.0
 30
0.0
  9
$PUCSORGFRONT
 10
0.0
 20
0.0
 30
0.0
  9
$PUCSORGBACK
 10
0.0
 20
0.0
 30
0.0
  9
$USERI1
 70
     0
  9
$USERI2
 70
     0
  9
$USERI3
 70
     0
  9
$USERI4
 70
     0
  9
$USERI5
 70
     0
  9
$USERR1
 40
0.0
  9
$USERR2
 40
0.0
  9
$USERR3
 40
0.0
  9
$USERR4
 40
0.0
  9
$USERR5
 40
0.0
  9
$WORLDVIEW
 70
     1
  9
$SHADEDGE
 70
     3
  9
$SHADEDIF
 70
    70
  9
$TILEMODE
 70
     1
  9
$MAXACTVP
 70
    64
  9
$PINSBASE
 10
0.0
 20
0.0
 30
0.0
  9
$PLIMCHECK
 70
     0
  9
$PEXTMIN
 10
1.000000000000000E+20
 20
1.000000000000000E+20
 30
1.000000000000000E+20
  9
$PEXTMAX
 10
-1.000000000000000E+20
 20
-1.000000000000000E+20
 30
-1.000000000000000E+20
  9
$PLIMMIN
 10
0.0
 20
0.0
  9
$PLIMMAX
 10
420.0
 20
297.0
  9
$UNITMODE
 70
     0
  9
$VISRETAIN
 70
     1
  9
$PLINEGEN
 70
     0
  9
$PSLTSCALE
 70
     1
  9
$TREEDEPTH
 70
  3020
  9
$CMLSTYLE
  2
Standard
  9
$CMLJUST
 70
     0
  9
$CMLSCALE
 40
20.0
  9
$PROXYGRAPHICS
 70
     1
  9
$MEASUREMENT
 70
     1
  9
$CELWEIGHT
370
    -1
  9
$ENDCAPS
280
     0
  9
$JOINSTYLE
280
     0
  9
$LWDISPLAY
290
     0
  9
$INSUNITS
 70
     4
  9
$HYPERLINKBASE
  1

  9
$STYLESHEET
  1

  9
$XEDIT
290
     1
  9
$CEPSNTYPE
380
     0
  9
$PSTYLEMODE
290
     1
  9
$FINGERPRINTGUID
  2
{81085373-3A21-4932-80AA-8F6C3258C50C}
  9
$VERSIONGUID
  2
{0ADD35CD-AF41-41F0-B604-362CF96CC6B1}
  9
$EXTNAMES
290
     1
  9
$PSVPSCALE
 40
0.0
  9
$OLESTARTUP
290
     0
  0
ENDSEC
  0
SECTION
  2
CLASSES
  0
CLASS
  1
ACDBDICTIONARYWDFLT
  2
AcDbDictionaryWithDefault
  3
AutoCAD 2000
 90
        0
280
     0
281
     0
  0
CLASS
  1
ACDBPLACEHOLDER
  2
AcDbPlaceHolder
  3
AutoCAD 2000
 90
        0
280
     0
281
     0
  0
CLASS
  1
LAYOUT
  2
AcDbLayout
  3
AutoCAD 2000
 90
        0
280
     0
281
     0
  0
CLASS
  1
DICTIONARYVAR
  2
AcDbDictionaryVar
  3
AutoCAD 2000
 90
        0
280
     0
281
     0
  0
ENDSEC
  0
SECTION
  2
TABLES
  0
TABLE
  2
VPORT
  5
8
330
0
100
AcDbSymbolTable
 70
     3
  0
VPORT
  5
A8A
330
8
100
AcDbSymbolTableRecord
100
AcDbViewportTableRecord
  2
*Active
 70
     0
 10
0.0
 20
0.0
 11
1.0
 21
1.0
 12
257.067644867724
 22
3777.745562665323
 13
0.0
 23
0.0
 14
10.0
 24
10.0
 15
10.0
 25
10.0
 16
0.0
 26
0.0
 36
1.0
 17
0.0
 27
0.0
 37
0.0
 40
7609.60971148777
 41
2.184834123222748
 42
50.0
 43
0.0
 44
0.0
 50
0.0
 51
0.0
 71
     0
 72
   100
 73
     1
 74
     3
 75
     0
 76
     0
 77
     0
 78
     0
281
     0
 65
     1
110
0.0
120
0.0
130
0.0
111
1.0
121
0.0
131
0.0
112
0.0
122
1.0
132
0.0
 79
     0
146
0.0
  0
ENDTAB
  0
TABLE
  2
LTYPE
  5
5
330
0
100
AcDbSymbolTable
 70
     1
  0
LTYPE
  5
14
330
5
100
AcDbSymbolTableRecord
100
AcDbLinetypeTableRecord
  2
ByBlock
 70
     0
  3

 72
    65
 73
     0
 40
0.0
  0
LTYPE
  5
15
330
5
100
AcDbSymbolTableRecord
100
AcDbLinetypeTableRecord
  2
ByLayer
 70
     0
  3

 72
    65
 73
     0
 40
0.0
  0
LTYPE
  5
16
330
5
100
AcDbSymbolTableRecord
100
AcDbLinetypeTableRecord
  2
Continuous
 70
     0
  3
Solid line
 72
    65
 73
     0
 40
0.0
  0
ENDTAB
  0
TABLE
  2
LAYER
  5
2
330
0
100
AcDbSymbolTable
 70
     2
  0
LAYER
  5
10
330
2
100
AcDbSymbolTableRecord
100
AcDbLayerTableRecord
  2
0
 70
     0
 62
     7
  6
Continuous
370
    -3
390
F
  0
LAYER
  5
8F5
102
{ACAD_XDICTIONARY
360
8F6
102
}
330
2
100
AcDbSymbolTableRecord
100
AcDbLayerTableRecord
  2
ceco.net 160
 70
     0
 62
     7
  6
Continuous
370
    -3
390
F
1001
AcAecLayerStandard
1000

1000

  0
ENDTAB
  0
TABLE
  2
STYLE
  5
3
330
0
100
AcDbSymbolTable
 70
     1
  0
STYLE
  5
11
330
3
100
AcDbSymbolTableRecord
100
AcDbTextStyleTableRecord
  2
Standard
 70
     0
 40
0.0
 41
1.0
 50
0.0
 71
     0
 42
2.5
  3
txt
  4

  0
ENDTAB
  0
TABLE
  2
VIEW
  5
6
330
0
100
AcDbSymbolTable
 70
     0
  0
ENDTAB
  0
TABLE
  2
UCS
  5
7
330
0
100
AcDbSymbolTable
 70
     0
  0
ENDTAB
  0
TABLE
  2
APPID
  5
9
330
0
100
AcDbSymbolTable
 70
     7
  0
APPID
  5
12
330
9
100
AcDbSymbolTableRecord
100
AcDbRegAppTableRecord
  2
ACAD
 70
     0
  0
APPID
  5
2C
330
9
100
AcDbSymbolTableRecord
100
AcDbRegAppTableRecord
  2
ACAD_DSTYLE_DIMJOGGED_JOGANGLE_SYMBOL
 70
     0
  0
APPID
  5
11B
330
9
100
AcDbSymbolTableRecord
100
AcDbRegAppTableRecord
  2
ACAD_NAV_VCDISPLAY
 70
     0
  0
APPID
  5
11C
330
9
100
AcDbSymbolTableRecord
100
AcDbRegAppTableRecord
  2
ACAD_MLEADERVER
 70
     0
  0
APPID
  5
8F8
330
9
100
AcDbSymbolTableRecord
100
AcDbRegAppTableRecord
  2
CADARQ
 70
     0
  0
APPID
  5
8F9
330
9
100
AcDbSymbolTableRecord
100
AcDbRegAppTableRecord
  2
AcAecLayerStandard
 70
     0
  0
APPID
  5
8FA
330
9
100
AcDbSymbolTableRecord
100
AcDbRegAppTableRecord
  2
ACAD_EXEMPT_FROM_CAD_STANDARDS
 70
     0
  0
ENDTAB
  0
TABLE
  2
DIMSTYLE
  5
A
330
0
100
AcDbSymbolTable
 70
     2
100
AcDbDimStyleTable
 71
     0
  0
DIMSTYLE
105
27
330
A
100
AcDbSymbolTableRecord
100
AcDbDimStyleTableRecord
  2
ISO-25
 70
     0
 41
2.5
 42
0.625
 43
3.75
 44
1.25
 73
     0
 74
     0
 77
     1
 78
     8
140
2.5
141
2.5
143
0.03937007874016
147
0.625
171
     3
172
     1
271
     2
272
     2
274
     3
278
    44
283
     0
284
     8
340
11
  0
DIMSTYLE
105
2B
330
A
100
AcDbSymbolTableRecord
100
AcDbDimStyleTableRecord
  2
Standard
 70
     0
340
11
  0
ENDTAB
  0
TABLE
  2
BLOCK_RECORD
  5
1
330
0
100
AcDbSymbolTable
 70
     2
  0
BLOCK_RECORD
  5
1F
330
1
100
AcDbSymbolTableRecord
100
AcDbBlockTableRecord
  2
*Model_Space
340
22
  0
BLOCK_RECORD
  5
1B
330
1
100
AcDbSymbolTableRecord
100
AcDbBlockTableRecord
  2
*Paper_Space
340
1E
  0
BLOCK_RECORD
  5
23
330
1
100
AcDbSymbolTableRecord
100
AcDbBlockTableRecord
  2
*Paper_Space0
340
26
  0
ENDTAB
  0
ENDSEC
  0
SECTION
  2
BLOCKS
  0
BLOCK
  5
20
330
1F
100
AcDbEntity
  8
0
100
AcDbBlockBegin
  2
*Model_Space
 70
     0
 10
0.0
 20
0.0
 30
0.0
  3
*Model_Space
  1

  0
ENDBLK
  5
21
330
1F
100
AcDbEntity
  8
0
100
AcDbBlockEnd
  0
BLOCK
  5
1C
330
1B
100
AcDbEntity
 67
     1
  8
0
100
AcDbBlockBegin
  2
*Paper_Space
 70
     0
 10
0.0
 20
0.0
 30
0.0
  3
*Paper_Space
  1

  0
ENDBLK
  5
1D
330
1B
100
AcDbEntity
 67
     1
  8
0
100
AcDbBlockEnd
  0
BLOCK
  5
24
330
23
100
AcDbEntity
  8
0
100
AcDbBlockBegin
  2
*Paper_Space0
 70
     0
 10
0.0
 20
0.0
 30
0.0
  3
*Paper_Space0
  1

  0
ENDBLK
  5
25
330
23
100
AcDbEntity
  8
0
100
AcDbBlockEnd
  0
ENDSEC
  0
SECTION
  2
ENTITIES
  0
ARC
  5
9C4
330
1F
100
AcDbEntity
  8
ceco.net 160
100
AcDbCircle
 10
34186.65308918325
 20
-2084.13275464953
 30
0.0
 40
34370.78297020239
100
AcDbArc
 50
166.6940271415592
 51
176.523637293029
  0
ARC
  5
9C5
330
1F
100
AcDbEntity
  8
ceco.net 160
100
AcDbCircle
 10
195.5701367442525
 20
6485.891552218266
 30
0.0
 40
857.3688805862548
100
AcDbArc
 50
34.82003071013669
 51
173.1806341545662
  0
ARC
  5
9C6
330
1F
100
AcDbEntity
  8
ceco.net 160
100
AcDbCircle
 10
271.584721092935
 20
5644.731004398083
 30
0.0
 40
1322.535445968193
100
AcDbArc
 50
68.45712217841811
 51
134.5206918426222
  0
ARC
  5
9C7
330
1F
100
AcDbEntity
  8
ceco.net 160
100
AcDbCircle
 10
474.8515500809444
 20
6096.438215176109
 30
0.0
 40
813.8205124905544
100
AcDbArc
 50
70.23218774130907
 51
163.0686171420931
  0
ARC
  5
9C8
330
1F
100
AcDbEntity
  8
ceco.net 160
100
AcDbCircle
 10
1280.006234823537
 20
6049.35684055902
 30
0.0
 40
1085.536022756234
100
AcDbArc
 50
128.4294722818666
 51
200.5402603759184
  0
ARC
  5
9C9
330
1F
100
AcDbEntity
  8
ceco.net 160
100
AcDbCircle
 10
228.2296198103722
 20
6248.170158253401
 30
0.0
 40
946.9253159758963
100
AcDbArc
 50
50.12766303926982
 51
158.988506302192
  0
ARC
  5
9CA
330
1F
100
AcDbEntity
  8
ceco.net 160
100
AcDbCircle
 10
39518.5482053948
 20
-1919.383242835611
 30
0.0
 40
39444.39077542779
100
AcDbArc
 50
168.8625940630863
 51
177.2108580496916
  0
LINE
  5
9CB
330
1F
100
AcDbEntity
  8
ceco.net 160
100
AcDbLine
 10
-108.053354572723
 20
201.4376164739369
 30
0.0
 11
133.0576167205727
 21
235.4009073998313
 31
0.0
  0
LINE
  5
9CC
330
1F
100
AcDbEntity
  8
ceco.net 160
100
AcDbLine
 10
144.5557876504753
 20
436.1813884289877
 30
0.0
 11
-91.50293211468669
 21
437.5218141425285
 31
0.0
  0
LINE
  5
9CD
330
1F
100
AcDbEntity
  8
ceco.net 160
100
AcDbLine
 10
-76.07188959537598
 20
639.1738776145502
 30
0.0
 11
156.0876743190601
 21
621.6135269692167
 31
0.0
  0
LINE
  5
9CE
330
1F
100
AcDbEntity
  8
ceco.net 160
100
AcDbLine
 10
168.3588446230714
 20
805.0544819179339
 30
0.0
 11
-60.95396283404261
 21
823.1225137043802
 31
0.0
  0
LINE
  5
9CF
330
1F
100
AcDbEntity
  8
ceco.net 160
100
AcDbLine
 10
-46.20297089057567
 20
991.9504618812061
 30
0.0
 11
178.0299950648186
 21
941.3143272245362
 31
0.0
  0
LINE
  5
9D0
330
1F
100
AcDbEntity
  8
ceco.net 160
100
AcDbLine
 10
188.026412702733
 20
1075.615782077075
 30
0.0
 11
-30.81999281242315
 21
1158.591079977195
 31
0.0
  0
LINE
  5
9D1
330
1F
100
AcDbEntity
  8
ceco.net 160
100
AcDbLine
 10
-12.61311762641708
 20
1345.285986262839
 30
0.0
 11
209.4242140020214
 21
1344.469491887866
 31
0.0
  0
LINE
  5
9D2
330
1F
100
AcDbEntity
  8
ceco.net 160
100
AcDbLine
 10
220.8030451751692
 20
1478.732259481592
 30
0.0
 11
6.169935424040886
 21
1527.69411832455
 31
0.0
  0
LINE
  5
9D3
330
1F
100
AcDbEntity
  8
ceco.net 160
100
AcDbLine
 10
22.65391741644998
 20
1680.423338208231
 30
0.0
 11
238.601281308729
 21
1678.634723438793
 31
0.0
  0
LINE
  5
9D4
330
1F
100
AcDbEntity
  8
ceco.net 160
100
AcDbLine
 10
251.2023380289465
 20
1813.646649533213
 30
0.0
 11
47.57619439992413
 21
1900.10503404052
 31
0.0
  0
LINE
  5
9D5
330
1F
100
AcDbEntity
  8
ceco.net 160
100
AcDbLine
 10
65.03927226994711
 20
2046.992093885754
 30
0.0
 11
269.1452040703006
 21
1997.80039905227
 31
0.0
  0
LINE
  5
9D6
330
1F
100
AcDbEntity
  8
ceco.net 160
100
AcDbLine
 10
284.5152583268791
 20
2148.862368363742
 30
0.0
 11
83.86839383938058
 21
2199.65038736118
 31
0.0
  0
ARC
  5
9D7
330
1F
100
AcDbEntity
  8
ceco.net 160
100
AcDbCircle
 10
364.2194639834487
 20
6344.232687274256
 30
0.0
 40
667.9998625640402
100
AcDbArc
 50
113.8146979258301
 51
180.9254009514035
  0
ARC
  5
9D8
330
1F
100
AcDbEntity
  8
ceco.net 160
100
AcDbCircle
 10
-1052.533061983718
 20
4127.909666899853
 30
0.0
 40
1318.430556617469
100
AcDbArc
 50
2.464935100592017
 51
42.95791913408495
  0
ARC
  5
9D9
330
1F
100
AcDbEntity
  8
ceco.net 160
100
AcDbCircle
 10
-170.179982278365
 20
4509.503791366848
 30
0.0
 40
684.1213161432562
100
AcDbArc
 50
21.01149369780284
 51
129.8723369607301
  0
ARC
  5
9DA
330
1F
100
AcDbEntity
  8
ceco.net 160
100
AcDbCircle
 10
-1594.936133591909
 20
3680.994688576524
 30
0.0
 40
1628.720869088824
100
AcDbArc
 50
6.634064782576347
 51
48.8843010151521
  0
ARC
  5
9DB
330
1F
100
AcDbEntity
  8
ceco.net 160
100
AcDbCircle
 10
-1280.522143477937
 20
3974.724922653142
 30
0.0
 40
1308.886045030341
100
AcDbArc
 50
354.7529698351697
 51
45.73830584321348
  0
ARC
  5
9DC
330
1F
100
AcDbEntity
  8
ceco.net 160
100
AcDbCircle
 10
-666.6153311956004
 20
4013.951347802213
 30
0.0
 40
946.8008211691532
100
AcDbArc
 50
10.38435175264279
 51
82.7547963611467
  0
ARC
  5
9DD
330
1F
100
AcDbEntity
  8
ceco.net 160
100
AcDbCircle
 10
-201.5025675451179
 20
4073.539538238343
 30
0.0
 40
955.4868527402113
100
AcDbArc
 50
45.47930815737776
 51
111.5428778215818
  0
ARC
  5
9DE
330
1F
100
AcDbEntity
  8
ceco.net 160
100
AcDbCircle
 10
-146.584617192173
 20
4681.249408651347
 30
0.0
 40
619.4198392535639
100
AcDbArc
 50
6.81936584543376
 51
145.179969289861
  0
ARC
  5
9DF
330
1F
100
AcDbEntity
  8
ceco.net 160
100
AcDbCircle
 10
-28556.09807842223
 20
-1391.275592342659
 30
0.0
 40
28497.23001010207
100
AcDbArc
 50
3.279426438194751
 51
11.13740593691361
  0
ARC
  5
9E0
330
1F
100
AcDbEntity
  8
ceco.net 160
100
AcDbCircle
 10
-24703.98530574694
 20
-1510.301508066477
 30
0.0
 40
24831.7210298841
100
AcDbArc
 50
6.336300614551044
 51
13.30597285844078
  0
LINE
  5
9E1
330
1F
100
AcDbEntity
  8
ceco.net 160
100
AcDbLine
 10
-390.7085008799477
 20
3537.365310960333
 30
0.0
 11
-487.8824592342862
 21
3534.91869974893
 31
0.0
  0
LINE
  5
9E2
330
1F
100
AcDbEntity
  8
ceco.net 160
100
AcDbLine
 10
-474.9127438476571
 20
3460.440439530735
 30
0.0
 11
-374.9328482534474
 21
3460.772402721632
 31
0.0
  0
LINE
  5
9E3
330
1F
100
AcDbEntity
  8
ceco.net 160
100
AcDbLine
 10
-355.5602307058434
 20
3365.000089896348
 30
0.0
 11
-462.4143906014069
 21
3387.537555012299
 31
0.0
  0
LINE
  5
9E4
330
1F
100
AcDbEntity
  8
ceco.net 160
100
AcDbLine
 10
-438.3780519246502
 20
3244.017144924292
 30
0.0
 11
-336.2353904160118
 21
3267.473431157617
 31
0.0
  0
LINE
  5
9E5
330
1F
100
AcDbEntity
  8
ceco.net 160
100
AcDbLine
 10
-320.3504788239806
 20
3185.731065634289
 30
0.0
 11
-426.5337355182127
 21
3171.588434459583
 31
0.0
  0
LINE
  5
9E6
330
1F
100
AcDbEntity
  8
ceco.net 160
100
AcDbLine
 10
-416.3845108086388
 20
3108.573136373102
 30
0.0
 11
-306.0348569209891
 21
3110.778798812243
 31
0.0
  0
LINE
  5
9E7
330
1F
100
AcDbEntity
  8
ceco.net 160
100
AcDbLine
 10
-285.9118700475228
 20
3003.240227065544
 30
0.0
 11
-399.5924353466689
 21
3002.277436825883
 31
0.0
  0
LINE
  5
9E8
330
1F
100
AcDbEntity
  8
ceco.net 160
100
AcDbLine
 10
-386.5167659541039
 20
2917.646190297237
 30
0.0
 11
-270.1061436762247
 21
2916.878000301629
 31
0.0
  0
LINE
  5
9E9
330
1F
100
AcDbEntity
  8
ceco.net 160
100
AcDbLine
 10
-254.9950677759625
 20
2832.652054843056
 30
0.0
 11
-371.6108461559488
 21
2819.044787733088
 31
0.0
  0
LINE
  5
9EA
330
1F
100
AcDbEntity
  8
ceco.net 160
100
AcDbLine
 10
-359.0755734173726
 20
2734.259536693571
 30
0.0
 11
-240.152266275094
 21
2748.247813338035
 31
0.0
  0
LINE
  5
9EB
330
1F
100
AcDbEntity
  8
ceco.net 160
100
AcDbLine
 10
-219.2408305474236
 20
2626.322391948459
 30
0.0
 11
-346.8077759000443
 21
2649.523694517644
 31
0.0
  0
LINE
  5
9EC
330
1F
100
AcDbEntity
  8
ceco.net 160
100
AcDbLine
 10
-321.3489770874584
 20
2467.618217201379
 30
0.0
 11
-198.94284348168
 21
2504.32963670438
 31
0.0
  0
LINE
  5
9ED
330
1F
100
AcDbEntity
  8
ceco.net 160
100
AcDbLine
 10
-177.7285101005545
 20
2372.622248588683
 30
0.0
 11
-306.9262118891201
 21
2360.578229934704
 31
0.0
  0
LINE
  5
9EE
330
1F
100
AcDbEntity
  8
ceco.net 160
100
AcDbLine
 10
-287.7044324574963
 20
2212.894065906322
 30
0.0
 11
-158.6983421261393
 21
2250.450701198919
 31
0.0
  0
LINE
  5
9EF
330
1F
100
AcDbEntity
  8
ceco.net 160
100
AcDbLine
 10
-144.0509757177642
 20
2153.575538266246
 30
0.0
 11
-279.96323299715
 21
2151.649251906725
 31
0.0
  0
LINE
  5
9F0
330
1F
100
AcDbEntity
  8
ceco.net 160
100
AcDbLine
 10
-263.8425385906739
 20
2020.526675892266
 30
0.0
 11
-129.6289250706468
 21
2055.561330224183
 31
0.0
  0
LINE
  5
9F1
330
1F
100
AcDbEntity
  8
ceco.net 160
100
AcDbLine
 10
-112.6629333430755
 20
1936.614980985148
 30
0.0
 11
-252.1171658689417
 21
1921.847217104863
 31
0.0
  0
LINE
  5
9F2
330
1F
100
AcDbEntity
  8
ceco.net 160
100
AcDbLine
 10
-242.6043057315255
 20
1839.542977689707
 30
0.0
 11
-100.9168181873537
 21
1851.749993984121
 31
0.0
  0
LINE
  5
9F3
330
1F
100
AcDbEntity
  8
ceco.net 160
100
AcDbLine
 10
-84.48659604786371
 20
1729.243612642981
 30
0.0
 11
-231.5758248506899
 21
1741.38419697262
 31
0.0
  0
LINE
  5
9F4
330
1F
100
AcDbEntity
  8
ceco.net 160
100
AcDbLine
 10
-210.8444406598136
 20
1547.89341599599
 30
0.0
 11
-65.8839092458511
 21
1584.586031363462
 31
0.0
  0
LINE
  5
9F5
330
1F
100
AcDbEntity
  8
ceco.net 160
100
AcDbLine
 10
-52.28050968247408
 20
1474.295609415101
 30
0.0
 11
-199.7400995150819
 21
1438.756283931841
 31
0.0
  0
LINE
  5
9F6
330
1F
100
AcDbEntity
  8
ceco.net 160
100
AcDbLine
 10
-186.776989410675
 20
1305.711466808279
 30
0.0
 11
-39.6640302042797
 21
1368.174707364698
 31
0.0
  0
LINE
  5
9F7
330
1F
100
AcDbEntity
  8
ceco.net 160
100
AcDbLine
 10
-25.96431222006504
 20
1209.42649484775
 30
0.0
 11
-177.6731547546951
 21
1208.169944772234
 31
0.0
  0
LINE
  5
9F8
330
1F
100
AcDbEntity
  8
ceco.net 160
100
AcDbLine
 10
-164.8145348368416
 20
1063.747217408847
 30
0.0
 11
-36.98101276751549
 21
1092.908453856536
 31
0.0
  0
LINE
  5
9F9
330
1F
100
AcDbEntity
  8
ceco.net 160
100
AcDbLine
 10
-48.42289741056447
 20
967.144711740897
 30
0.0
 11
-156.5937165452487
 21
966.7469368950404
 31
0.0
  0
LINE
  5
9FA
330
1F
100
AcDbEntity
  8
ceco.net 160
100
AcDbLine
 10
-141.1345332913479
 20
772.509280870232
 30
0.0
 11
-62.7202576748532
 21
802.2399399760178
 31
0.0
  0
LINE
  5
9FB
330
1F
100
AcDbEntity
  8
ceco.net 160
100
AcDbLine
 10
-72.03838855602953
 20
689.4534109179512
 30
0.0
 11
-133.9124617342749
 21
675.4810501285247
 31
0.0
  0
LINE
  5
9FC
330
1F
100
AcDbEntity
  8
ceco.net 160
100
AcDbLine
 10
-126.9253846573265
 20
577.0379489293845
 30
0.0
 11
-80.67073272696871
 21
580.682448905718
 31
0.0
  0
LINE
  5
9FD
330
1F
100
AcDbEntity
  8
ceco.net 160
100
AcDbLine
 10
-90.83630798316153
 20
446.5672694345412
 30
0.0
 11
-118.0598817107529
 21
444.5081016258918
 31
0.0
  0
LINE
  5
9FE
330
1F
100
AcDbEntity
  8
ceco.net 160
100
AcDbLine
 10
-109.7284860322979
 20
310.5396919391933
 30
0.0
 11
-100.6042773252556
 21
310.5915024547139
 31
0.0
  0
ARC
  5
9FF
330
1F
100
AcDbEntity
  8
ceco.net 160
100
AcDbCircle
 10
377.3954701915936
 20
6469.692401934823
 30
0.0
 40
694.5829509676355
100
AcDbArc
 50
142.8513154935546
 51
191.3124043195301
  0
LINE
  5
A00
330
1F
100
AcDbEntity
  8
ceco.net 160
100
AcDbLine
 10
-426.5951291435485
 20
3707.235795963934
 30
0.0
 11
-513.7515436643298
 21
3680.10677080194
 31
0.0
  0
LINE
  5
A01
330
1F
100
AcDbEntity
  8
ceco.net 160
100
AcDbLine
 10
-500.4056453725352
 20
3605.747556571208
 30
0.0
 11
-412.7377102176397
 21
3642.334667589573
 31
0.0
  0
ARC
  5
A02
330
1F
100
AcDbEntity
  8
ceco.net 160
100
AcDbCircle
 10
-248.7614051892742
 20
3821.892149316729
 30
0.0
 40
172.1976436212986
100
AcDbArc
 50
133.3024616849357
 51
194.9175598982014
  0
ARC
  5
A03
330
1F
100
AcDbEntity
  8
ceco.net 160
100
AcDbCircle
 10
-941.3447583747183
 20
3535.844088268873
 30
0.0
 40
459.6005434748072
100
AcDbArc
 50
28.25494887313611
 51
57.40594813182299
  0
ARC
  5
A04
330
1F
100
AcDbEntity
  8
ceco.net 160
100
AcDbCircle
 10
-797.672790347613
 20
3705.232220869103
 30
0.0
 40
301.5703468853647
100
AcDbArc
 50
9.194108024772837
 51
67.44554629740793
  0
ARC
  5
A05
330
1F
100
AcDbEntity
  8
ceco.net 160
100
AcDbCircle
 10
-747.218297406609
 20
3755.854089989792
 30
0.0
 40
271.7920360039643
100
AcDbArc
 50
356.874314256342
 51
68.0159109620176
  0
ARC
  5
A06
330
1F
100
AcDbEntity
  8
ceco.net 160
100
AcDbCircle
 10
288.4117297664779
 20
3792.412900316266
 30
0.0
 40
727.7728350271307
100
AcDbArc
 50
161.754863631469
 51
179.2680462862097
  0
ARC
  5
A07
330
1F
100
AcDbEntity
  8
ceco.net 160
100
AcDbCircle
 10
-109.4822440215939
 20
3886.742170054262
 30
0.0
 40
378.9202555345871
100
AcDbArc
 50
147.0741099399578
 51
194.8003612272196
  0
ARC
  5
A08
330
1F
100
AcDbEntity
  8
ceco.net 160
100
AcDbCircle
 10
-190.1851158227509
 20
3983.064144764444
 30
0.0
 40
289.8120029548529
100
AcDbArc
 50
140.9197001488155
 51
199.4561291781154
  0
ARC
  5
A09
330
1F
100
AcDbEntity
  8
ceco.net 160
100
AcDbCircle
 10
117.6734611124993
 20
4006.511308350861
 30
0.0
 40
617.6517932936481
100
AcDbArc
 50
163.9258082813715
 51
191.20094530471
  0
ARC
  5
A0A
330
1F
100
AcDbEntity
  8
ceco.net 160
100
AcDbCircle
 10
-222.664470702366
 20
4030.63634825882
 30
0.0
 40
328.9650391264502
100
AcDbArc
 50
162.558991345907
 51
208.2820883436836
  0
ARC
  5
A0B
330
1F
100
AcDbEntity
  8
ceco.net 160
100
AcDbCircle
 10
-718.3141051658167
 20
3865.65782191322
 30
0.0
 40
170.2887692956474
100
AcDbArc
 50
3.066851395260941
 51
77.68782627382911
  0
ARC
  5
A0C
330
1F
100
AcDbEntity
  8
ceco.net 160
100
AcDbCircle
 10
910.8378640549927
 20
4425.021201326017
 30
0.0
 40
2217.784943948858
100
AcDbArc
 50
157.7865492416933
 51
163.7931042445307
  0
ARC
  5
A0D
330
1F
100
AcDbEntity
  8
ceco.net 160
100
AcDbCircle
 10
-722.9859095926658
 20
4120.015106443897
 30
0.0
 40
183.5861300627439
100
AcDbArc
 50
2.68519971157887
 51
20.16268659326585
  0
ARC
  5
A0E
330
1F
100
AcDbEntity
  8
ceco.net 160
100
AcDbCircle
 10
-227.5180031037161
 20
4167.931212142138
 30
0.0
 40
292.7075254285501
100
AcDbArc
 50
151.6493607303191
 51
186.131945775131
  0
ARC
  5
A0F
330
1F
100
AcDbEntity
  8
ceco.net 160
100
AcDbCircle
 10
-1332.832682258493
 20
3907.648538052337
 30
0.0
 40
808.345112663145
100
AcDbArc
 50
32.00179834766454
 51
46.04604289350849
  0
ARC
  5
A10
330
1F
100
AcDbEntity
  8
ceco.net 160
100
AcDbCircle
 10
-1102.382323183599
 20
4229.803500410984
 30
0.0
 40
493.7931743502643
100
AcDbArc
 50
15.38315122089865
 51
51.08648979464466
  0
ARC
  5
A11
330
1F
100
AcDbEntity
  8
ceco.net 160
100
AcDbCircle
 10
-929.7233127105428
 20
4287.19040225001
 30
0.0
 40
288.2338775394013
100
AcDbArc
 50
14.79481369952704
 51
54.68621289001529
  0
ARC
  5
A12
330
1F
100
AcDbEntity
  8
ceco.net 160
100
AcDbCircle
 10
-966.9706397720583
 20
4313.976805276033
 30
0.0
 40
368.6780347654843
100
AcDbArc
 50
41.89255785593212
 51
63.2232798433139
  0
ARC
  5
A13
330
1F
100
AcDbEntity
  8
ceco.net 160
100
AcDbCircle
 10
-813.3730007525738
 20
4427.28047927827
 30
0.0
 40
152.7041721061214
100
AcDbArc
 50
22.30624755674756
 51
77.30907914650586
  0
ARC
  5
A14
330
1F
100
AcDbEntity
  8
ceco.net 160
100
AcDbCircle
 10
-888.8077752805694
 20
4468.7884828081
 30
0.0
 40
234.7107290732396
100
AcDbArc
 50
5.991852757722998
 51
66.85215091626684
  0
ARC
  5
A15
330
1F
100
AcDbEntity
  8
ceco.net 160
100
AcDbCircle
 10
-912.4490984482253
 20
4610.192564500467
 30
0.0
 40
228.3344932195778
100
AcDbArc
 50
356.7643520139678
 51
46.42586541186433
  0
ARC
  5
A16
330
1F
100
AcDbEntity
  8
ceco.net 160
100
AcDbCircle
 10
-949.7521265142568
 20
4533.607248470594
 30
0.0
 40
254.1179692796197
100
AcDbArc
 50
15.5284086425889
 51
55.16346283162644
  0
ARC
  5
A17
330
1F
100
AcDbEntity
  8
ceco.net 160
100
AcDbCircle
 10
-994.2034593395218
 20
4542.103837903908
 30
0.0
 40
312.7946028387943
100
AcDbArc
 50
26.21327316106132
 51
51.82495108421701
  0
ARC
  5
A18
330
1F
100
AcDbEntity
  8
ceco.net 160
100
AcDbCircle
 10
-203.4086051176564
 20
4448.228139520768
 30
0.0
 40
862.0352817984038
100
AcDbArc
 50
138.5531872422112
 51
141.7622473277941
  0
ARC
  5
A19
330
1F
100
AcDbEntity
  8
ceco.net 160
100
AcDbCircle
 10
-1248.886009770838
 20
4475.602996727539
 30
0.0
 40
737.4833899829106
100
AcDbArc
 50
324.5918933664319
 51
46.11322238579169
  0
ARC
  5
A1A
330
1F
100
AcDbEntity
  8
ceco.net 160
100
AcDbCircle
 10
-1377.635625674869
 20
4469.97582863993
 30
0.0
 40
844.3814680815695
100
AcDbArc
 50
330.4623678775762
 51
330.4685373234751
  0
ARC
  5
A1B
330
1F
100
AcDbEntity
  8
ceco.net 160
100
AcDbCircle
 10
-1032.305326922462
 20
4966.930908071081
 30
0.0
 40
386.7642998889571
100
AcDbArc
 50
10.72792253289912
 51
74.51372742572201
  0
ARC
  5
A1C
330
1F
100
AcDbEntity
  8
ceco.net 160
100
AcDbCircle
 10
-256.3322091960726
 20
3715.63048435116
 30
0.0
 40
1378.255100180759
100
AcDbArc
 50
106.5343005306849
 51
116.8746165477145
  0
ARC
  5
A1D
330
1F
100
AcDbEntity
  8
ceco.net 160
100
AcDbCircle
 10
-631.8998584234941
 20
4980.743947058974
 30
0.0
 40
58.57213345314965
100
AcDbArc
 50
45.10584167222387
 51
106.5343005306849
  0
ARC
  5
A1E
330
1F
100
AcDbEntity
  8
ceco.net 160
100
AcDbCircle
 10
-1552.011694388537
 20
4293.078204278426
 30
0.0
 40
936.7526394833147
100
AcDbArc
 50
344.8529743168069
 51
44.10466429459416
  0
ARC
  5
A1F
330
1F
100
AcDbEntity
  8
ceco.net 160
100
AcDbCircle
 10
-1232.107181702493
 20
4571.297672995017
 30
0.0
 40
784.1744649646494
100
AcDbArc
 50
318.1693910328288
 51
35.10312831763571
  0
ARC
  5
A20
330
1F
100
AcDbEntity
  8
ceco.net 160
100
AcDbCircle
 10
-316.2419657309219
 20
4716.875767449004
 30
0.0
 40
904.7006901076722
100
AcDbArc
 50
171.8625882912361
 51
183.1006140158302
  0
ARC
  5
A21
330
1F
100
AcDbEntity
  8
ceco.net 160
100
AcDbCircle
 10
-1078.970770068073
 20
4980.460712383036
 30
0.0
 40
339.6006702038165
100
AcDbArc
 50
4.330662337996867
 51
96.85505413334144
  0
ARC
  5
A22
330
1F
100
AcDbEntity
  8
ceco.net 160
100
AcDbCircle
 10
-457.1156985825364
 20
5166.68026675281
 30
0.0
 40
247.7401177110015
100
AcDbArc
 50
34.18083402488937
 51
178.6214003701665
  0
ARC
  5
A23
330
1F
100
AcDbEntity
  8
ceco.net 160
100
AcDbCircle
 10
-122.396537884706
 20
4604.704288146691
 30
0.0
 40
680.7395148112784
100
AcDbArc
 50
162.3894128224844
 51
217.5732756021966
  0
ARC
  5
A24
330
1F
100
AcDbEntity
  8
ceco.net 160
100
AcDbCircle
 10
24.55892060477344
 20
4162.291416689637
 30
0.0
 40
1213.790431184035
100
AcDbArc
 50
143.908139999767
 51
201.3827046591681
  0
ARC
  5
A25
330
1F
100
AcDbEntity
  8
ceco.net 160
100
AcDbCircle
 10
-1098.715972387537
 20
4282.024308218737
 30
0.0
 40
679.6256987334227
100
AcDbArc
 50
68.68029878585677
 51
184.1889404669688
  0
ARC
  5
A26
330
1F
100
AcDbEntity
  8
ceco.net 160
100
AcDbCircle
 10
-236.3899245497159
 20
4665.408221068151
 30
0.0
 40
638.3374907813645
100
AcDbArc
 50
169.1476511788953
 51
228.1915123708434
  0
ARC
  5
A27
330
1F
100
AcDbEntity
  8
ceco.net 160
100
AcDbCircle
 10
218.3551532948476
 20
4571.111308368388
 30
0.0
 40
959.4027771166418
100
AcDbArc
 50
170.5217706252711
 51
203.4312736997127
  0
ARC
  5
A28
330
1F
100
AcDbEntity
  8
ceco.net 160
100
AcDbCircle
 10
-393.4663620253122
 20
5110.870705255918
 30
0.0
 40
240.8047575701108
100
AcDbArc
 50
54.07149757717707
 51
190.2540349549541
  0
ARC
  5
A29
330
1F
100
AcDbEntity
  8
ceco.net 160
100
AcDbCircle
 10
-500.6173016317334
 20
5171.890902735176
 30
0.0
 40
282.2682253964614
100
AcDbArc
 50
28.33490448374134
 51
67.69067052459982
  0
ARC
  5
A2A
330
1F
100
AcDbEntity
  8
ceco.net 160
100
AcDbCircle
 10
-501.7950367932935
 20
5190.468731498491
 30
0.0
 40
265.652858919108
100
AcDbArc
 50
65.93436841944257
 51
168.456464325236
  0
ARC
  5
A2B
330
1F
100
AcDbEntity
  8
ceco.net 160
100
AcDbCircle
 10
602.6484476066398
 20
4541.851085557835
 30
0.0
 40
1987.076563508916
100
AcDbArc
 50
159.1749449080812
 51
165.9395187255734
  0
ARC
  5
A2C
330
1F
100
AcDbEntity
  8
ceco.net 160
100
AcDbCircle
 10
4474.827738451175
 20
2915.744353524962
 30
0.0
 40
5975.023077924354
100
AcDbArc
 50
157.4515530559952
 51
159.0961696028242
  0
ARC
  5
A2D
330
1F
100
AcDbEntity
  8
ceco.net 160
100
AcDbCircle
 10
1242.104677122042
 20
4489.471465016016
 30
0.0
 40
2421.851648038888
100
AcDbArc
 50
171.1939912910832
 51
172.3692730702594
  0
ARC
  5
A2E
330
1F
100
AcDbEntity
  8
ceco.net 160
100
AcDbCircle
 10
-954.8353159159741
 20
4728.038476598769
 30
0.0
 40
612.1589217665406
100
AcDbArc
 50
87.58459916210439
 51
114.6765090059428
  0
ARC
  5
A2F
330
1F
100
AcDbEntity
  8
ceco.net 160
100
AcDbCircle
 10
-1191.685834327756
 20
5216.171507617051
 30
0.0
 40
70.64913571826067
100
AcDbArc
 50
61.59600434101569
 51
152.9613094897225
  0
ARC
  5
A30
330
1F
100
AcDbEntity
  8
ceco.net 160
100
AcDbCircle
 10
-188.5427389614487
 20
4310.895656488429
 30
0.0
 40
1091.145298054678
100
AcDbArc
 50
149.5023607784035
 51
212.8040398516048
  0
ARC
  5
A31
330
1F
100
AcDbEntity
  8
ceco.net 160
100
AcDbCircle
 10
407.2458334737893
 20
3936.192793569615
 30
0.0
 40
1528.331365902894
100
AcDbArc
 50
142.8131351234604
 51
188.1416708425889
  0
ARC
  5
A32
330
1F
100
AcDbEntity
  8
ceco.net 160
100
AcDbCircle
 10
-2046.942942036388
 20
3176.006542362622
 30
0.0
 40
2178.355578078722
100
AcDbArc
 50
18.16246638844713
 51
42.97180979005015
  0
ARC
  5
A33
330
1F
100
AcDbEntity
  8
ceco.net 160
100
AcDbCircle
 10
-122.2315969932096
 20
5030.649071063614
 30
0.0
 40
1208.008572612971
100
AcDbArc
 50
190.5645563663112
 51
201.6745059387482
  0
ARC
  5
A34
330
1F
100
AcDbEntity
  8
ceco.net 160
100
AcDbCircle
 10
-1632.395296575516
 20
4401.23225020949
 30
0.0
 40
997.1213821340498
100
AcDbArc
 50
35.11543941283182
 51
61.59600434101569
  0
ARC
  5
A35
330
1F
100
AcDbEntity
  8
ceco.net 160
100
AcDbCircle
 10
-983.5577164102142
 20
4067.931846047082
 30
0.0
 40
809.840891197086
100
AcDbArc
 50
77.23203913591908
 51
168.2838666342817
  0
ARC
  5
A36
330
1F
100
AcDbEntity
  8
ceco.net 160
100
AcDbCircle
 10
-1157.691193272025
 20
4402.825809880073
 30
0.0
 40
641.8786782670514
100
AcDbArc
 50
60.69356339287789
 51
195.3991129545957
  0
ARC
  5
A37
330
1F
100
AcDbEntity
  8
ceco.net 160
100
AcDbCircle
 10
-28404.47152000609
 20
-1543.252291316806
 30
0.0
 40
28378.37605831275
100
AcDbArc
 50
11.72210859802887
 51
12.80270881738305
  0
ARC
  5
A38
330
1F
100
AcDbEntity
  8
ceco.net 160
100
AcDbCircle
 10
-70.9286649228452
 20
3691.471519574727
 30
0.0
 40
1644.55596249952
100
AcDbArc
 50
121.1086052090838
 51
125.4673418002246
  0
LINE
  5
A39
330
1F
100
AcDbEntity
  8
ceco.net 160
100
AcDbLine
 10
109.6172700435418
 20
2399.877923953172
 30
0.0
 11
313.2105672762409
 21
2416.682292390702
 31
0.0
  0
LINE
  5
A3A
330
1F
100
AcDbEntity
  8
ceco.net 160
100
AcDbLine
 10
328.4756196819798
 20
2552.548596002365
 30
0.0
 11
132.3591331076895
 21
2569.444916127133
 31
0.0
  0
LINE
  5
A3B
330
1F
100
AcDbEntity
  8
ceco.net 160
100
AcDbLine
 10
148.6174977322662
 20
2686.910638558183
 30
0.0
 11
341.642828302618
 21
2666.469864168321
 31
0.0
  0
LINE
  5
A3C
330
1F
100
AcDbEntity
  8
ceco.net 160
100
AcDbLine
 10
357.8724823237134
 20
2803.056863414822
 30
0.0
 11
172.1009453290753
 21
2851.550018562178
 31
0.0
  0
LINE
  5
A3D
330
1F
100
AcDbEntity
  8
ceco.net 160
100
AcDbLine
 10
192.0632013555878
 20
2987.216212160129
 30
0.0
 11
380.1859131208184
 21
2984.549946285028
 31
0.0
  0
LINE
  5
A3E
330
1F
100
AcDbEntity
  8
ceco.net 160
100
AcDbLine
 10
390.9008807326172
 20
3069.321847817628
 30
0.0
 11
212.3373277965438
 21
3121.305798474088
 31
0.0
  0
LINE
  5
A3F
330
1F
100
AcDbEntity
  8
ceco.net 160
100
AcDbLine
 10
238.6779013133054
 20
3290.409330823488
 30
0.0
 11
417.5066729107202
 21
3273.738623595912
 31
0.0
  0
LINE
  5
A40
330
1F
100
AcDbEntity
  8
ceco.net 160
100
AcDbLine
 10
437.4699179820163
 20
3421.897833626077
 30
0.0
 11
268.0416835345531
 21
3472.711880334594
 31
0.0
  0
ARC
  5
A41
330
1F
100
AcDbEntity
  8
ceco.net 160
100
AcDbCircle
 10
39308.67457136164
 20
-2129.74152330606
 30
0.0
 40
39279.87928719123
100
AcDbArc
 50
167.1972911826169
 51
168.2778914019711
  0
ARC
  5
A42
330
1F
100
AcDbEntity
  8
ceco.net 160
100
AcDbCircle
 10
1667.549625494473
 20
6473.409990409447
 30
0.0
 40
647.2055179251866
100
AcDbArc
 50
338.4675931104526
 51
141.6183626129983
  0
ARC
  5
A43
330
1F
100
AcDbEntity
  8
ceco.net 160
100
AcDbCircle
 10
1524.287730003809
 20
6097.872147351562
 30
0.0
 40
757.9666452000952
100
AcDbArc
 50
10.48979240233723
 51
122.5168766198704
  0
ARC
  5
A44
330
1F
100
AcDbEntity
  8
ceco.net 160
100
AcDbCircle
 10
2252.152374215206
 20
6098.306295072514
 30
0.0
 40
1380.163806569537
100
AcDbArc
 50
118.4039956589843
 51
144.8845605871681
  0
ARC
  5
A45
330
1F
100
AcDbEntity
  8
ceco.net 160
100
AcDbCircle
 10
208.1228552624961
 20
7122.530905961699
 30
0.0
 40
1672.062940198801
100
AcDbArc
 50
331.0778429069833
 51
348.3107105743039
  0
ARC
  5
A46
330
1F
100
AcDbEntity
  8
ceco.net 160
100
AcDbCircle
 10
1623.063050937475
 20
5529.682616054778
 30
0.0
 40
1366.64724455662
100
AcDbArc
 50
137.2327402951219
 51
174.1709729439924
  0
ARC
  5
A47
330
1F
100
AcDbEntity
  8
ceco.net 160
100
AcDbCircle
 10
-47.03290073374228
 20
5982.963090807083
 30
0.0
 40
1382.593741784489
100
AcDbArc
 50
336.596275801755
 51
32.86423259227563
  0
ARC
  5
A48
330
1F
100
AcDbEntity
  8
ceco.net 160
100
AcDbCircle
 10
503.5187302884732
 20
6296.314807462593
 30
0.0
 40
1122.453635208575
100
AcDbArc
 50
309.7867808314525
 51
29.64851413261975
  0
ARC
  5
A49
330
1F
100
AcDbEntity
  8
ceco.net 160
100
AcDbCircle
 10
1642.145147506919
 20
7226.303034265264
 30
0.0
 40
97.78887689187463
100
AcDbArc
 50
27.03869051027746
 51
118.4039956589843
  0
ARC
  5
A4A
330
1F
100
AcDbEntity
  8
ceco.net 160
100
AcDbCircle
 10
1315.13006287576
 20
6556.770924175537
 30
0.0
 40
841.2430600772017
100
AcDbArc
 50
65.27087783069167
 51
92.48883429131813
  0
ARC
  5
A4B
330
1F
100
AcDbEntity
  8
ceco.net 160
100
AcDbCircle
 10
-1725.143197231125
 20
6368.834800940095
 30
0.0
 40
3397.229649728007
100
AcDbArc
 50
359.0732291563148
 51
8.055690956038004
  0
ARC
  5
A4C
330
1F
100
AcDbEntity
  8
ceco.net 160
100
AcDbCircle
 10
-739.1111131409561
 20
5841.411640252045
 30
0.0
 40
2572.544197185194
100
AcDbArc
 50
29.28496728460008
 51
32.20584594932549
  0
ARC
  5
A4D
330
1F
100
AcDbEntity
  8
ceco.net 160
100
AcDbCircle
 10
781.7632616773916
 20
6787.184483286285
 30
0.0
 40
1063.75062110201
100
AcDbArc
 50
17.53762155708193
 51
27.03869051027746
  0
ARC
  5
A4E
330
1F
100
AcDbEntity
  8
ceco.net 160
100
AcDbCircle
 10
562.5123954769369
 20
6306.476065941591
 30
0.0
 40
1066.351316232645
100
AcDbArc
 50
42.96569053543239
 51
47.04708003093034
  0
ARC
  5
A4F
330
1F
100
AcDbEntity
  8
ceco.net 160
100
AcDbCircle
 10
687.2340140152227
 20
7190.72658192675
 30
0.0
 40
367.7029372363673
100
AcDbArc
 50
11.54353567476711
 51
114.0656315805574
  0
ARC
  5
A50
330
1F
100
AcDbEntity
  8
ceco.net 160
100
AcDbCircle
 10
685.6038539642322
 20
7165.012112932396
 30
0.0
 40
390.7010675108742
100
AcDbArc
 50
112.3093294754316
 51
151.6650955162047
  0
ARC
  5
A51
330
1F
100
AcDbEntity
  8
ceco.net 160
100
AcDbCircle
 10
537.2910694477177
 20
7080.551113961934
 30
0.0
 40
333.309481476287
100
AcDbArc
 50
349.7459650450507
 51
125.9285024228229
  0
ARC
  5
A52
330
1F
100
AcDbEntity
  8
ceco.net 160
100
AcDbCircle
 10
-309.5606044359301
 20
6333.444094508013
 30
0.0
 40
1327.955665803461
100
AcDbArc
 50
336.5687263002872
 51
7.61694829379529
  0
ARC
  5
A53
330
1F
100
AcDbEntity
  8
ceco.net 160
100
AcDbCircle
 10
319.8739949038863
 20
6463.965000298864
 30
0.0
 40
883.5537146614884
100
AcDbArc
 50
311.8084876291519
 51
2.951782474754482
  0
ARC
  5
A54
330
1F
100
AcDbEntity
  8
ceco.net 160
100
AcDbCircle
 10
1623.664541801917
 20
6337.38088155369
 30
0.0
 40
653.8504424617892
100
AcDbArc
 50
351.0684576378215
 51
128.6324016420527
  0
ARC
  5
A55
330
1F
100
AcDbEntity
  8
ceco.net 160
100
AcDbCircle
 10
267.032486436874
 20
6161.275954618613
 30
0.0
 40
1200.352964058275
100
AcDbArc
 50
322.6946260495067
 51
32.80902703461496
  0
ARC
  5
A56
330
1F
100
AcDbEntity
  8
ceco.net 160
100
AcDbCircle
 10
162.0902493313915
 20
6379.941758358764
 30
0.0
 40
942.2444016129793
100
AcDbArc
 50
322.4267243978079
 51
17.6105871775088
  0
ARC
  5
A57
330
1F
100
AcDbEntity
  8
ceco.net 160
100
AcDbCircle
 10
1529.658702135304
 20
5816.858030542643
 30
0.0
 40
1274.840781552681
100
AcDbArc
 50
129.5526298570582
 51
186.6837856216162
  0
ARC
  5
A58
330
1F
100
AcDbEntity
  8
ceco.net 160
100
AcDbCircle
 10
625.39118664751
 20
7157.799820306625
 30
0.0
 40
342.9090480120043
100
AcDbArc
 50
1.378599629825343
 51
145.8191659751105
  0
ARC
  5
A59
330
1F
100
AcDbEntity
  8
ceco.net 160
100
AcDbCircle
 10
1486.130789642702
 20
6900.044351793244
 30
0.0
 40
470.0576701092689
100
AcDbArc
 50
83.11647557189656
 51
175.6693376620031
  0
ARC
  5
A5A
330
1F
100
AcDbEntity
  8
ceco.net 160
100
AcDbCircle
 10
476.661965774736
 20
6688.222139871708
 30
0.0
 40
1252.2398683225
100
AcDbArc
 50
342.6064720840214
 51
6.424512742098188
  0
ARC
  5
A5B
330
1F
100
AcDbEntity
  8
ceco.net 160
100
AcDbCircle
 10
1698.09428435126
 20
6333.702050777967
 30
0.0
 40
1085.413705865893
100
AcDbArc
 50
144.896871682362
 51
221.8306089671711
  0
ARC
  5
A5C
330
1F
100
AcDbEntity
  8
ceco.net 160
100
AcDbCircle
 10
2117.460945677638
 20
5948.487929319846
 30
0.0
 40
1273.97341948091
100
AcDbArc
 50
135.0747200024125
 51
195.4172649836041
  0
ARC
  5
A5D
330
1F
100
AcDbEntity
  8
ceco.net 160
100
AcDbCircle
 10
867.3183739452943
 20
6900.436390571616
 30
0.0
 40
81.07251545703009
100
AcDbArc
 50
73.46569946931511
 51
134.8941583277519
  0
ARC
  5
A5E
330
1F
100
AcDbEntity
  8
ceco.net 160
100
AcDbCircle
 10
347.477073107133
 20
5149.331817228405
 30
0.0
 40
1907.709371769973
100
AcDbArc
 50
62.93618407604309
 51
73.46569946931511
  0
ARC
  5
A5F
330
1F
100
AcDbEntity
  8
ceco.net 160
100
AcDbCircle
 10
1210.898503798249
 20
6850.466285799979
 30
0.0
 40
0.0
100
AcDbArc
 50
306.1792874770115
 51
0.0
  0
ARC
  5
A60
330
1F
100
AcDbEntity
  8
ceco.net 160
100
AcDbCircle
 10
1421.538898624116
 20
6881.317096961604
 30
0.0
 40
535.3391251499438
100
AcDbArc
 50
105.4862725742779
 51
169.272077467096
  0
ARC
  5
A61
330
1F
100
AcDbEntity
  8
ceco.net 160
100
AcDbCircle
 10
1899.527224007193
 20
6193.45759819739
 30
0.0
 40
1168.749123291353
100
AcDbArc
 50
209.5314626765234
 51
209.5376321224238
  0
ARC
  5
A62
330
1F
100
AcDbEntity
  8
ceco.net 160
100
AcDbCircle
 10
1721.318669698506
 20
6201.246433004475
 30
0.0
 40
1020.786336586508
100
AcDbArc
 50
133.8867776142151
 51
215.4081066335657
  0
ARC
  5
A63
330
1F
100
AcDbEntity
  8
ceco.net 160
100
AcDbCircle
 10
274.2229596451361
 20
6163.355572569824
 30
0.0
 40
1193.184618484274
100
AcDbArc
 50
39.27555980890451
 51
41.44681275778999
  0
ARC
  5
A64
330
1F
100
AcDbEntity
  8
ceco.net 160
100
AcDbCircle
 10
1368.800265652316
 20
6293.293455305422
 30
0.0
 40
432.9540991332984
100
AcDbArc
 50
128.1750489157829
 51
153.7867268389386
  0
ARC
  5
A65
330
1F
100
AcDbEntity
  8
ceco.net 160
100
AcDbCircle
 10
1307.273031537755
 20
6281.532915991702
 30
0.0
 40
351.7369400383898
100
AcDbArc
 50
124.8365371683712
 51
164.471591357411
  0
ARC
  5
A66
330
1F
100
AcDbEntity
  8
ceco.net 160
100
AcDbCircle
 10
1255.640110877706
 20
6387.538346416724
 30
0.0
 40
316.0487870178802
100
AcDbArc
 50
133.5741345881356
 51
183.2356479860321
  0
ARC
  5
A67
330
1F
100
AcDbEntity
  8
ceco.net 160
100
AcDbCircle
 10
1222.917015013881
 20
6191.814135553519
 30
0.0
 40
324.8744426552517
100
AcDbArc
 50
113.1478490837331
 51
174.008147242277
  0
ARC
  5
A68
330
1F
100
AcDbEntity
  8
ceco.net 160
100
AcDbCircle
 10
1118.504104584237
 20
6134.360905504233
 30
0.0
 40
211.365211126022
100
AcDbArc
 50
102.6909208534941
 51
157.6937524432524
  0
ARC
  5
A69
330
1F
100
AcDbEntity
  8
ceco.net 160
100
AcDbCircle
 10
1331.106006366215
 20
5977.531824500504
 30
0.0
 40
510.3050531034552
100
AcDbArc
 50
116.776720156686
 51
138.107442144069
  0
ARC
  5
A6A
330
1F
100
AcDbEntity
  8
ceco.net 160
100
AcDbCircle
 10
1279.550184153587
 20
5940.45547188475
 30
0.0
 40
398.9584144266175
100
AcDbArc
 50
125.3137871099847
 51
165.2051863004729
  0
ARC
  5
A6B
330
1F
100
AcDbEntity
  8
ceco.net 160
100
AcDbCircle
 10
1518.535849693129
 20
5861.023492680921
 30
0.0
 40
683.4829534100746
100
AcDbArc
 50
128.9135102053553
 51
164.6168487791013
  0
ARC
  5
A6C
330
1F
100
AcDbEntity
  8
ceco.net 160
100
AcDbCircle
 10
1837.513308711597
 20
5415.113268388465
 30
0.0
 40
1118.869465347663
100
AcDbArc
 50
133.9539571064914
 51
147.9982016523354
  0
ARC
  5
A6D
330
1F
100
AcDbEntity
  8
ceco.net 160
100
AcDbCircle
 10
307.5939404452074
 20
5775.383073742588
 30
0.0
 40
405.1506062806573
100
AcDbArc
 50
353.8680542248688
 51
28.35063926968082
  0
ARC
  5
A6E
330
1F
100
AcDbEntity
  8
ceco.net 160
100
AcDbCircle
 10
993.3949713981856
 20
5709.060080352443
 30
0.0
 40
254.1104188925149
100
AcDbArc
 50
159.8373134067202
 51
177.3148002884211
  0
ARC
  5
A6F
330
1F
100
AcDbEntity
  8
ceco.net 160
100
AcDbCircle
 10
476.661965774736
 20
6688.222139871708
 30
0.0
 40
1252.2398683225
100
AcDbArc
 50
20.19069734411174
 51
29.15370067629859
  0
ARC
  5
A70
330
1F
100
AcDbEntity
  8
ceco.net 160
100
AcDbCircle
 10
986.9285015212225
 20
5356.99189253038
 30
0.0
 40
235.7049003844611
100
AcDbArc
 50
102.3121737261708
 51
176.9331486047373
  0
ARC
  5
A71
330
1F
100
AcDbEntity
  8
ceco.net 160
100
AcDbCircle
 10
300.8759321120596
 20
5585.346629479289
 30
0.0
 40
455.3363800677383
100
AcDbArc
 50
331.7179116563163
 51
17.44100865409294
  0
ARC
  5
A72
330
1F
100
AcDbEntity
  8
ceco.net 160
100
AcDbCircle
 10
-170.2022173588775
 20
5551.953997940582
 30
0.0
 40
854.9216428818494
100
AcDbArc
 50
348.7990546952898
 51
16.07419171862848
  0
ARC
  5
A73
330
1F
100
AcDbEntity
  8
ceco.net 160
100
AcDbCircle
 10
255.9196902053518
 20
5519.499647719495
 30
0.0
 40
401.1427739435825
100
AcDbArc
 50
340.5438708218845
 51
39.08029985118449
  0
ARC
  5
A74
330
1F
100
AcDbEntity
  8
ceco.net 160
100
AcDbCircle
 10
144.2149522046529
 20
5386.175755910284
 30
0.0
 40
524.4818049590384
100
AcDbArc
 50
345.1996387727803
 51
32.92589006004218
  0
ARC
  5
A75
330
1F
100
AcDbEntity
  8
ceco.net 160
100
AcDbCircle
 10
-406.5292914892343
 20
5255.610063181986
 30
0.0
 40
1007.345489030857
100
AcDbArc
 50
0.7319537137902623
 51
18.24513636853099
  0
ARC
  5
A76
330
1F
100
AcDbEntity
  8
ceco.net 160
100
AcDbCircle
 10
1026.936188352163
 20
5205.00725019662
 30
0.0
 40
376.2004683960196
100
AcDbArc
 50
111.9840890379823
 51
183.1256857436579
  0
ARC
  5
A77
330
1F
100
AcDbEntity
  8
ceco.net 160
100
AcDbCircle
 10
1096.772685977936
 20
5134.939079126285
 30
0.0
 40
417.4180650052953
100
AcDbArc
 50
112.554453702592
 51
170.8058919752271
  0
ARC
  5
A78
330
1F
100
AcDbEntity
  8
ceco.net 160
100
AcDbCircle
 10
1295.635987720816
 20
4900.480793439055
 30
0.0
 40
636.1552835483589
100
AcDbArc
 50
122.594051868177
 51
151.7450511268638
  0
ARC
  5
A79
330
1F
100
AcDbEntity
  8
ceco.net 160
100
AcDbCircle
 10
336.9979580625804
 20
5296.41371381501
 30
0.0
 40
238.347065423501
100
AcDbArc
 50
345.0824401017985
 51
46.69753831506423
  0
LINE
  5
A7A
330
1F
100
AcDbEntity
  8
ceco.net 160
100
AcDbLine
 10
296.1371066157444
 20
3641.567937850137
 30
0.0
 11
472.7086695617908
 21
3673.68197997674
 31
0.0
  0
LINE
  5
A7B
330
1F
100
AcDbEntity
  8
ceco.net 160
100
AcDbLine
 10
489.6891199092642
 20
3790.968946825393
 30
0.0
 11
325.0816335829294
 21
3810.330795329384
 31
0.0
  0
LINE
  5
A7C
330
1F
100
AcDbEntity
  8
ceco.net 160
100
AcDbLine
 10
345.6262711633316
 20
3927.158777692879
 30
0.0
 11
507.0397956135711
 21
3908.324302865571
 31
0.0
  0
LINE
  5
A7D
330
1F
100
AcDbEntity
  8
ceco.net 160
100
AcDbLine
 10
527.6717982741102
 20
4044.803260728076
 30
0.0
 11
366.5422402815456
 21
4043.739971897331
 31
0.0
  0
LINE
  5
A7E
330
1F
100
AcDbEntity
  8
ceco.net 160
100
AcDbLine
 10
388.4197086269996
 20
4163.278096111666
 30
0.0
 11
545.7704630562075
 21
4161.945451695588
 31
0.0
  0
LINE
  5
A7F
330
1F
100
AcDbEntity
  8
ceco.net 160
100
AcDbLine
 10
569.0131847599259
 20
4309.074457188457
 30
0.0
 11
416.272905500009
 21
4312.127420972537
 31
0.0
  0
LINE
  5
A80
330
1F
100
AcDbEntity
  8
ceco.net 160
100
AcDbLine
 10
436.0878483675914
 20
4415.872469210037
 30
0.0
 11
583.0612162833713
 21
4396.296971154574
 31
0.0
  0
LINE
  5
A81
330
1F
100
AcDbEntity
  8
ceco.net 160
100
AcDbLine
 10
599.4555059963459
 20
4496.549043300503
 30
0.0
 11
458.0749207969784
 21
4529.016020617186
 31
0.0
  0
LINE
  5
A82
330
1F
100
AcDbEntity
  8
ceco.net 160
100
AcDbLine
 10
484.823364480646
 20
4664.007373704808
 30
0.0
 11
632.7253618819959
 21
4695.202566388645
 31
0.0
  0
LINE
  5
A83
330
1F
100
AcDbEntity
  8
ceco.net 160
100
AcDbLine
 10
650.0249355360137
 20
4796.110965716623
 30
0.0
 11
511.6379389715294
 21
4796.570451983163
 31
0.0
  0
LINE
  5
A84
330
1F
100
AcDbEntity
  8
ceco.net 160
100
AcDbLine
 10
533.4737807960046
 20
4902.586391150689
 30
0.0
 11
667.9769442671531
 21
4899.199918547441
 31
0.0
  0
LINE
  5
A85
330
1F
100
AcDbEntity
  8
ceco.net 160
100
AcDbLine
 10
685.3108903249522
 20
4997.23755608921
 30
0.0
 11
563.965472138676
 21
5047.879541427479
 31
0.0
  0
LINE
  5
A86
330
1F
100
AcDbEntity
  8
ceco.net 160
100
AcDbLine
 10
583.1461941618035
 20
5137.712324068358
 30
0.0
 11
703.7835919624049
 21
5100.161731625965
 31
0.0
  0
ARC
  5
A87
330
1F
100
AcDbEntity
  8
ceco.net 160
100
AcDbCircle
 10
-1569.005006904
 20
4259.561939792125
 30
0.0
 40
1835.213681427504
100
AcDbArc
 50
357.6594165094198
 51
22.86258391383629
  0
LINE
  5
A88
330
1F
100
AcDbEntity
  8
ceco.net 160
100
AcDbLine
 10
-632.9519018558348
 20
0.0
 30
0.0
 11
632.9519018558348
 21
0.0
 31
0.0
  0
ENDSEC
  0
SECTION
  2
OBJECTS
  0
DICTIONARY
  5
C
330
0
100
AcDbDictionary
281
     1
  3
ACAD_GROUP
350
D
  3
ACAD_LAYOUT
350
1A
  3
ACAD_MLINESTYLE
350
17
  3
ACAD_PLOTSETTINGS
350
19
  3
ACAD_PLOTSTYLENAME
350
E
  3
AcDbVariableDictionary
350
115
  3
DWGPROPS
350
8E3
  0
DICTIONARY
  5
8F6
330
8F5
100
AcDbDictionary
280
     1
281
     1
  3
ACAD_XREC_ROUNDTRIP
360
8F7
  0
DICTIONARY
  5
D
102
{ACAD_REACTORS
330
C
102
}
330
C
100
AcDbDictionary
281
     1
  0
DICTIONARY
  5
1A
102
{ACAD_REACTORS
330
C
102
}
330
C
100
AcDbDictionary
281
     1
  3
Layout1
350
1E
  3
Layout2
350
26
  3
Model
350
22
  0
DICTIONARY
  5
17
102
{ACAD_REACTORS
330
C
102
}
330
C
100
AcDbDictionary
281
     1
  3
Standard
350
18
  0
DICTIONARY
  5
19
102
{ACAD_REACTORS
330
C
102
}
330
C
100
AcDbDictionary
281
     1
  0
ACDBDICTIONARYWDFLT
  5
E
102
{ACAD_REACTORS
330
C
102
}
330
C
100
AcDbDictionary
281
     1
  3
Normal
350
F
100
AcDbDictionaryWithDefault
340
F
  0
DICTIONARY
  5
115
102
{ACAD_REACTORS
330
C
102
}
330
C
100
AcDbDictionary
281
     1
  3
DIMASSOC
350
117
  3
HIDETEXT
350
116
  0
XRECORD
  5
8E3
102
{ACAD_REACTORS
330
C
102
}
330
C
100
AcDbXrecord
280
     1
  1
DWGPROPS COOKIE
  2
Ceco.NET-Trees-and-Plants - T - xx . 67 . dwg
  3

  4
ceco.net
  6

  7

  8
peacosta
  9

300
=
301
=
302
=
303
=
304
=
305
=
306
=
307
=
308
=
309
=
 40
0.0450312037037037
 41
2455079.811409143
 42
2455838.656599502
  1

 90
        0
  0
XRECORD
  5
8F7
102
{ACAD_REACTORS
330
8F6
102
}
330
8F6
100
AcDbXrecord
280
     1
102
MATERIAL
340
0
  0
LAYOUT
  5
1E
102
{ACAD_REACTORS
330
1A
102
}
330
1A
100
AcDbPlotSettings
  1

  2
Microsoft Office Document Image Writer
  4

  6

 40
0.0
 41
0.0
 42
0.0
 43
0.0
 44
0.0
 45
0.0
 46
0.0
 47
0.0
 48
0.0
 49
0.0
140
0.0
141
0.0
142
1.0
143
1.0
 70
   688
 72
     0
 73
     0
 74
     5
  7

 75
    16
147
1.0
148
0.0
149
0.0
100
AcDbLayout
  1
Layout1
 70
     1
 71
     1
 10
0.0
 20
0.0
 11
420.0
 21
297.0
 12
0.0
 22
0.0
 32
0.0
 14
1.000000000000000E+20
 24
1.000000000000000E+20
 34
1.000000000000000E+20
 15
-1.000000000000000E+20
 25
-1.000000000000000E+20
 35
-1.000000000000000E+20
146
0.0
 13
0.0
 23
0.0
 33
0.0
 16
1.0
 26
0.0
 36
0.0
 17
0.0
 27
1.0
 37
0.0
 76
     0
330
1B
  0
LAYOUT
  5
26
102
{ACAD_REACTORS
330
1A
102
}
330
1A
100
AcDbPlotSettings
  1

  2
Microsoft Office Document Image Writer
  4

  6

 40
0.0
 41
0.0
 42
0.0
 43
0.0
 44
0.0
 45
0.0
 46
0.0
 47
0.0
 48
0.0
 49
0.0
140
0.0
141
0.0
142
1.0
143
1.0
 70
   688
 72
     0
 73
     0
 74
     5
  7

 75
    16
147
1.0
148
0.0
149
0.0
100
AcDbLayout
  1
Layout2
 70
     1
 71
     2
 10
0.0
 20
0.0
 11
12.0
 21
9.0
 12
0.0
 22
0.0
 32
0.0
 14
0.0
 24
0.0
 34
0.0
 15
0.0
 25
0.0
 35
0.0
146
0.0
 13
0.0
 23
0.0
 33
0.0
 16
1.0
 26
0.0
 36
0.0
 17
0.0
 27
1.0
 37
0.0
 76
     0
330
23
  0
LAYOUT
  5
22
102
{ACAD_REACTORS
330
1A
102
}
330
1A
100
AcDbPlotSettings
  1

  2
Microsoft Office Document Image Writer
  4

  6

 40
0.0
 41
0.0
 42
0.0
 43
0.0
 44
0.0
 45
0.0
 46
0.0
 47
0.0
 48
0.0
 49
0.0
140
0.0
141
0.0
142
1.0
143
1.0
 70
  1712
 72
     0
 73
     0
 74
     0
  7

 75
     0
147
1.0
148
0.0
149
0.0
100
AcDbLayout
  1
Model
 70
     1
 71
     0
 10
0.0
 20
0.0
 11
12.0
 21
9.0
 12
0.0
 22
0.0
 32
0.0
 14
0.0
 24
0.0
 34
0.0
 15
0.0
 25
0.0
 35
0.0
146
0.0
 13
0.0
 23
0.0
 33
0.0
 16
1.0
 26
0.0
 36
0.0
 17
0.0
 27
1.0
 37
0.0
 76
     0
330
1F
  0
MLINESTYLE
  5
18
102
{ACAD_REACTORS
330
17
102
}
330
17
100
AcDbMlineStyle
  2
STANDARD
 70
     0
  3

 62
   256
 51
90.0
 52
90.0
 71
     2
 49
0.5
 62
   256
  6
BYLAYER
 49
-0.5
 62
   256
  6
BYLAYER
  0
ACDBPLACEHOLDER
  5
F
102
{ACAD_REACTORS
330
E
102
}
330
E
  0
DICTIONARYVAR
  5
117
102
{ACAD_REACTORS
330
115
102
}
330
115
100
DictionaryVariables
280
     0
  1
2
  0
DICTIONARYVAR
  5
116
102
{ACAD_REACTORS
330
115
102
}
330
115
100
DictionaryVariables
280
     0
  1
1
  0
ENDSEC
  0
EOF
