  0
SECTION
  2
HEADER
  9
$ACADVER
  1
AC1015
  9
$ACADMAINTVER
 70
    13
  9
$DWGCODEPAGE
  3
ANSI_1252
  9
$INSBASE
 10
0.0
 20
0.0
 30
0.0
  9
$EXTMIN
 10
-814.6900898638877
 20
-0.0425672255191785
 30
-0.0015258207003583
  9
$EXTMAX
 10
3132.342714255805
 20
1394.991844080766
 30
0.0000000349246037
  9
$LIMMIN
 10
0.0
 20
0.0
  9
$LIMMAX
 10
420.0
 20
297.0
  9
$ORTHOMODE
 70
     0
  9
$REGENMODE
 70
     1
  9
$FILLMODE
 70
     1
  9
$QTEXTMODE
 70
     0
  9
$MIRRTEXT
 70
     1
  9
$LTSCALE
 40
1.0
  9
$ATTMODE
 70
     1
  9
$TEXTSIZE
 40
2.5
  9
$TRACEWID
 40
1.0
  9
$TEXTSTYLE
  7
Standard
  9
$CLAYER
  8
ceco.net 109
  9
$CELTYPE
  6
ByLayer
  9
$CECOLOR
 62
   256
  9
$CELTSCALE
 40
1.0
  9
$DISPSILH
 70
     0
  9
$DIMSCALE
 40
1.0
  9
$DIMASZ
 40
2.5
  9
$DIMEXO
 40
0.625
  9
$DIMDLI
 40
3.75
  9
$DIMRND
 40
0.0
  9
$DIMDLE
 40
0.0
  9
$DIMEXE
 40
1.25
  9
$DIMTP
 40
0.0
  9
$DIMTM
 40
0.0
  9
$DIMTXT
 40
2.5
  9
$DIMCEN
 40
2.5
  9
$DIMTSZ
 40
0.0
  9
$DIMTOL
 70
     0
  9
$DIMLIM
 70
     0
  9
$DIMTIH
 70
     0
  9
$DIMTOH
 70
     0
  9
$DIMSE1
 70
     0
  9
$DIMSE2
 70
     0
  9
$DIMTAD
 70
     1
  9
$DIMZIN
 70
     8
  9
$DIMBLK
  1

  9
$DIMASO
 70
     1
  9
$DIMSHO
 70
     1
  9
$DIMPOST
  1

  9
$DIMAPOST
  1

  9
$DIMALT
 70
     0
  9
$DIMALTD
 70
     3
  9
$DIMALTF
 40
0.03937007874016
  9
$DIMLFAC
 40
1.0
  9
$DIMTOFL
 70
     1
  9
$DIMTVP
 40
0.0
  9
$DIMTIX
 70
     0
  9
$DIMSOXD
 70
     0
  9
$DIMSAH
 70
     0
  9
$DIMBLK1
  1

  9
$DIMBLK2
  1

  9
$DIMSTYLE
  2
ISO-25
  9
$DIMCLRD
 70
     0
  9
$DIMCLRE
 70
     0
  9
$DIMCLRT
 70
     0
  9
$DIMTFAC
 40
1.0
  9
$DIMGAP
 40
0.625
  9
$DIMJUST
 70
     0
  9
$DIMSD1
 70
     0
  9
$DIMSD2
 70
     0
  9
$DIMTOLJ
 70
     0
  9
$DIMTZIN
 70
     8
  9
$DIMALTZ
 70
     0
  9
$DIMALTTZ
 70
     0
  9
$DIMUPT
 70
     0
  9
$DIMDEC
 70
     2
  9
$DIMTDEC
 70
     2
  9
$DIMALTU
 70
     2
  9
$DIMALTTD
 70
     3
  9
$DIMTXSTY
  7
Standard
  9
$DIMAUNIT
 70
     0
  9
$DIMADEC
 70
     0
  9
$DIMALTRND
 40
0.0
  9
$DIMAZIN
 70
     0
  9
$DIMDSEP
 70
    44
  9
$DIMATFIT
 70
     3
  9
$DIMFRAC
 70
     0
  9
$DIMLDRBLK
  1

  9
$DIMLUNIT
 70
     2
  9
$DIMLWD
 70
    -2
  9
$DIMLWE
 70
    -2
  9
$DIMTMOVE
 70
     0
  9
$LUNITS
 70
     2
  9
$LUPREC
 70
     2
  9
$SKETCHINC
 40
1.0
  9
$FILLETRAD
 40
10.0
  9
$AUNITS
 70
     0
  9
$AUPREC
 70
     0
  9
$MENU
  1
.
  9
$ELEVATION
 40
0.0
  9
$PELEVATION
 40
0.0
  9
$THICKNESS
 40
0.0
  9
$LIMCHECK
 70
     0
  9
$CHAMFERA
 40
10.0
  9
$CHAMFERB
 40
10.0
  9
$CHAMFERC
 40
20.0
  9
$CHAMFERD
 40
0.0
  9
$SKPOLY
 70
     0
  9
$TDCREATE
 40
2455079.811409143
  9
$TDUCREATE
 40
2455079.936409144
  9
$TDUPDATE
 40
2456630.879232939
  9
$TDUUPDATE
 40
2456631.004232940
  9
$TDINDWG
 40
0.0476845255
  9
$TDUSRTIMER
 40
0.0476845255
  9
$USRTIMER
 70
     1
  9
$ANGBASE
 50
0.0
  9
$ANGDIR
 70
     0
  9
$PDMODE
 70
     0
  9
$PDSIZE
 40
0.0
  9
$PLINEWID
 40
0.0
  9
$SPLFRAME
 70
     0
  9
$SPLINETYPE
 70
     6
  9
$SPLINESEGS
 70
     8
  9
$HANDSEED
  5
D2F
  9
$SURFTAB1
 70
     6
  9
$SURFTAB2
 70
     6
  9
$SURFTYPE
 70
     6
  9
$SURFU
 70
     6
  9
$SURFV
 70
     6
  9
$UCSBASE
  2

  9
$UCSNAME
  2

  9
$UCSORG
 10
0.0
 20
0.0
 30
0.0
  9
$UCSXDIR
 10
1.0
 20
0.0
 30
0.0
  9
$UCSYDIR
 10
0.0
 20
1.0
 30
0.0
  9
$UCSORTHOREF
  2

  9
$UCSORTHOVIEW
 70
     0
  9
$UCSORGTOP
 10
0.0
 20
0.0
 30
0.0
  9
$UCSORGBOTTOM
 10
0.0
 20
0.0
 30
0.0
  9
$UCSORGLEFT
 10
0.0
 20
0.0
 30
0.0
  9
$UCSORGRIGHT
 10
0.0
 20
0.0
 30
0.0
  9
$UCSORGFRONT
 10
0.0
 20
0.0
 30
0.0
  9
$UCSORGBACK
 10
0.0
 20
0.0
 30
0.0
  9
$PUCSBASE
  2

  9
$PUCSNAME
  2

  9
$PUCSORG
 10
0.0
 20
0.0
 30
0.0
  9
$PUCSXDIR
 10
1.0
 20
0.0
 30
0.0
  9
$PUCSYDIR
 10
0.0
 20
1.0
 30
0.0
  9
$PUCSORTHOREF
  2

  9
$PUCSORTHOVIEW
 70
     0
  9
$PUCSORGTOP
 10
0.0
 20
0.0
 30
0.0
  9
$PUCSORGBOTTOM
 10
0.0
 20
0.0
 30
0.0
  9
$PUCSORGLEFT
 10
0.0
 20
0.0
 30
0.0
  9
$PUCSORGRIGHT
 10
0.0
 20
0.0
 30
0.0
  9
$PUCSORGFRONT
 10
0.0
 20
0.0
 30
0.0
  9
$PUCSORGBACK
 10
0.0
 20
0.0
 30
0.0
  9
$USERI1
 70
     0
  9
$USERI2
 70
     0
  9
$USERI3
 70
     0
  9
$USERI4
 70
     0
  9
$USERI5
 70
     0
  9
$USERR1
 40
0.0
  9
$USERR2
 40
0.0
  9
$USERR3
 40
0.0
  9
$USERR4
 40
0.0
  9
$USERR5
 40
0.0
  9
$WORLDVIEW
 70
     1
  9
$SHADEDGE
 70
     3
  9
$SHADEDIF
 70
    70
  9
$TILEMODE
 70
     1
  9
$MAXACTVP
 70
    64
  9
$PINSBASE
 10
0.0
 20
0.0
 30
0.0
  9
$PLIMCHECK
 70
     0
  9
$PEXTMIN
 10
1.000000000000000E+20
 20
1.000000000000000E+20
 30
1.000000000000000E+20
  9
$PEXTMAX
 10
-1.000000000000000E+20
 20
-1.000000000000000E+20
 30
-1.000000000000000E+20
  9
$PLIMMIN
 10
0.0
 20
0.0
  9
$PLIMMAX
 10
420.0
 20
297.0
  9
$UNITMODE
 70
     0
  9
$VISRETAIN
 70
     1
  9
$PLINEGEN
 70
     0
  9
$PSLTSCALE
 70
     1
  9
$TREEDEPTH
 70
  3020
  9
$CMLSTYLE
  2
Standard
  9
$CMLJUST
 70
     0
  9
$CMLSCALE
 40
20.0
  9
$PROXYGRAPHICS
 70
     1
  9
$MEASUREMENT
 70
     1
  9
$CELWEIGHT
370
    -1
  9
$ENDCAPS
280
     0
  9
$JOINSTYLE
280
     0
  9
$LWDISPLAY
290
     0
  9
$INSUNITS
 70
     4
  9
$HYPERLINKBASE
  1

  9
$STYLESHEET
  1

  9
$XEDIT
290
     1
  9
$CEPSNTYPE
380
     0
  9
$PSTYLEMODE
290
     1
  9
$FINGERPRINTGUID
  2
{81085373-3A21-4932-80AA-8F6C3258C50C}
  9
$VERSIONGUID
  2
{4D0B886C-0987-4A73-A529-D090508ED3F9}
  9
$EXTNAMES
290
     1
  9
$PSVPSCALE
 40
0.0
  9
$OLESTARTUP
290
     0
  0
ENDSEC
  0
SECTION
  2
CLASSES
  0
CLASS
  1
ACDBDICTIONARYWDFLT
  2
AcDbDictionaryWithDefault
  3
AutoCAD 2000
 90
        0
280
     0
281
     0
  0
CLASS
  1
ACDBPLACEHOLDER
  2
AcDbPlaceHolder
  3
AutoCAD 2000
 90
        0
280
     0
281
     0
  0
CLASS
  1
LAYOUT
  2
AcDbLayout
  3
AutoCAD 2000
 90
        0
280
     0
281
     0
  0
CLASS
  1
DICTIONARYVAR
  2
AcDbDictionaryVar
  3
AutoCAD 2000
 90
        0
280
     0
281
     0
  0
ENDSEC
  0
SECTION
  2
TABLES
  0
TABLE
  2
VPORT
  5
8
330
0
100
AcDbSymbolTable
 70
     3
  0
VPORT
  5
D2E
330
8
100
AcDbSymbolTableRecord
100
AcDbViewportTableRecord
  2
*Active
 70
     0
 10
0.0
 20
0.0
 11
1.0
 21
1.0
 12
1158.826312195958
 22
697.4746384276234
 13
0.0
 23
0.0
 14
10.0
 24
10.0
 15
10.0
 25
10.0
 16
0.0
 26
0.0
 36
1.0
 17
0.0
 27
0.0
 37
0.0
 40
1812.430702784057
 41
2.184834123222748
 42
50.0
 43
0.0
 44
0.0
 50
0.0
 51
0.0
 71
     0
 72
   100
 73
     1
 74
     3
 75
     0
 76
     0
 77
     0
 78
     0
281
     0
 65
     1
110
0.0
120
0.0
130
0.0
111
1.0
121
0.0
131
0.0
112
0.0
122
1.0
132
0.0
 79
     0
146
0.0
  0
ENDTAB
  0
TABLE
  2
LTYPE
  5
5
330
0
100
AcDbSymbolTable
 70
     1
  0
LTYPE
  5
14
330
5
100
AcDbSymbolTableRecord
100
AcDbLinetypeTableRecord
  2
ByBlock
 70
     0
  3

 72
    65
 73
     0
 40
0.0
  0
LTYPE
  5
15
330
5
100
AcDbSymbolTableRecord
100
AcDbLinetypeTableRecord
  2
ByLayer
 70
     0
  3

 72
    65
 73
     0
 40
0.0
  0
LTYPE
  5
16
330
5
100
AcDbSymbolTableRecord
100
AcDbLinetypeTableRecord
  2
Continuous
 70
     0
  3
Solid line
 72
    65
 73
     0
 40
0.0
  0
ENDTAB
  0
TABLE
  2
LAYER
  5
2
102
{ACAD_XDICTIONARY
360
8F1
102
}
330
0
100
AcDbSymbolTable
 70
     2
  0
LAYER
  5
10
330
2
100
AcDbSymbolTableRecord
100
AcDbLayerTableRecord
  2
0
 70
     0
 62
     7
  6
Continuous
370
    -3
390
F
  0
LAYER
  5
925
102
{ACAD_XDICTIONARY
360
926
102
}
330
2
100
AcDbSymbolTableRecord
100
AcDbLayerTableRecord
  2
ceco.net 109
 70
     0
 62
   250
  6
Continuous
370
    -3
390
F
1001
AcAecLayerStandard
1000

1000

  0
ENDTAB
  0
TABLE
  2
STYLE
  5
3
330
0
100
AcDbSymbolTable
 70
     1
  0
STYLE
  5
11
330
3
100
AcDbSymbolTableRecord
100
AcDbTextStyleTableRecord
  2
Standard
 70
     0
 40
0.0
 41
1.0
 50
0.0
 71
     0
 42
2.5
  3
txt
  4

  0
ENDTAB
  0
TABLE
  2
VIEW
  5
6
330
0
100
AcDbSymbolTable
 70
     0
  0
ENDTAB
  0
TABLE
  2
UCS
  5
7
330
0
100
AcDbSymbolTable
 70
     0
  0
ENDTAB
  0
TABLE
  2
APPID
  5
9
330
0
100
AcDbSymbolTable
 70
     6
  0
APPID
  5
12
330
9
100
AcDbSymbolTableRecord
100
AcDbRegAppTableRecord
  2
ACAD
 70
     0
  0
APPID
  5
2C
330
9
100
AcDbSymbolTableRecord
100
AcDbRegAppTableRecord
  2
ACAD_DSTYLE_DIMJOGGED_JOGANGLE_SYMBOL
 70
     0
  0
APPID
  5
11B
330
9
100
AcDbSymbolTableRecord
100
AcDbRegAppTableRecord
  2
ACAD_NAV_VCDISPLAY
 70
     0
  0
APPID
  5
11C
330
9
100
AcDbSymbolTableRecord
100
AcDbRegAppTableRecord
  2
ACAD_MLEADERVER
 70
     0
  0
APPID
  5
928
330
9
100
AcDbSymbolTableRecord
100
AcDbRegAppTableRecord
  2
RAK
 70
     0
  0
APPID
  5
929
330
9
100
AcDbSymbolTableRecord
100
AcDbRegAppTableRecord
  2
AcAecLayerStandard
 70
     0
  0
ENDTAB
  0
TABLE
  2
DIMSTYLE
  5
A
330
0
100
AcDbSymbolTable
 70
     2
100
AcDbDimStyleTable
 71
     0
  0
DIMSTYLE
105
27
330
A
100
AcDbSymbolTableRecord
100
AcDbDimStyleTableRecord
  2
ISO-25
 70
     0
 41
2.5
 42
0.625
 43
3.75
 44
1.25
 73
     0
 74
     0
 77
     1
 78
     8
140
2.5
141
2.5
143
0.03937007874016
147
0.625
171
     3
172
     1
271
     2
272
     2
274
     3
278
    44
283
     0
284
     8
340
11
  0
DIMSTYLE
105
2B
330
A
100
AcDbSymbolTableRecord
100
AcDbDimStyleTableRecord
  2
Standard
 70
     0
340
11
  0
ENDTAB
  0
TABLE
  2
BLOCK_RECORD
  5
1
330
0
100
AcDbSymbolTable
 70
     2
  0
BLOCK_RECORD
  5
1F
330
1
100
AcDbSymbolTableRecord
100
AcDbBlockTableRecord
  2
*Model_Space
340
22
  0
BLOCK_RECORD
  5
1B
330
1
100
AcDbSymbolTableRecord
100
AcDbBlockTableRecord
  2
*Paper_Space
340
1E
  0
BLOCK_RECORD
  5
23
330
1
100
AcDbSymbolTableRecord
100
AcDbBlockTableRecord
  2
*Paper_Space0
340
26
  0
ENDTAB
  0
ENDSEC
  0
SECTION
  2
BLOCKS
  0
BLOCK
  5
20
330
1F
100
AcDbEntity
  8
0
100
AcDbBlockBegin
  2
*Model_Space
 70
     0
 10
0.0
 20
0.0
 30
0.0
  3
*Model_Space
  1

  0
ENDBLK
  5
21
330
1F
100
AcDbEntity
  8
0
100
AcDbBlockEnd
  0
BLOCK
  5
1C
330
1B
100
AcDbEntity
 67
     1
  8
0
100
AcDbBlockBegin
  2
*Paper_Space
 70
     0
 10
0.0
 20
0.0
 30
0.0
  3
*Paper_Space
  1

  0
ENDBLK
  5
1D
330
1B
100
AcDbEntity
 67
     1
  8
0
100
AcDbBlockEnd
  0
BLOCK
  5
24
330
23
100
AcDbEntity
  8
0
100
AcDbBlockBegin
  2
*Paper_Space0
 70
     0
 10
0.0
 20
0.0
 30
0.0
  3
*Paper_Space0
  1

  0
ENDBLK
  5
25
330
23
100
AcDbEntity
  8
0
100
AcDbBlockEnd
  0
ENDSEC
  0
SECTION
  2
ENTITIES
  0
LINE
  5
B2E
330
1F
100
AcDbEntity
  8
ceco.net 109
100
AcDbLine
 10
1904.304113866655
 20
250.1968800352702
 30
0.0
 11
488.9114250853065
 21
250.1968800351912
 31
0.0
  0
LINE
  5
B2F
330
1F
100
AcDbEntity
  8
ceco.net 109
100
AcDbLine
 10
1960.33441554856
 20
205.9232877489726
 30
0.0
 11
477.89978802952
 21
205.9232877489726
 31
0.0
  0
LWPOLYLINE
  5
B30
330
1F
100
AcDbEntity
  8
ceco.net 109
100
AcDbPolyline
 90
       60
 70
     0
 43
0.0
 10
130.5251609529245
 20
797.2486997239205
 10
198.0679803742938
 20
809.4064072197065
 10
232.1245898252544
 20
814.8554647319015
 10
264.8189348981949
 20
820.304522244039
 10
296.832147782068
 20
825.0724475671667
 10
328.845360666056
 20
829.8403728902943
 10
360.1774413607468
 20
834.6082982134218
 10
390.1472576776472
 20
838.6950913475395
 10
420.1170739944328
 20
842.1007522926469
 10
449.4057581222658
 20
845.5064132376971
 10
477.3321778720787
 20
848.230941993852
 10
505.2585976220065
 20
850.9554707498921
 10
532.5038851826372
 20
853.6799995059897
 10
559.0680405543151
 20
855.0422638840098
 10
610.1529547308135
 20
858.4479248291172
 10
636.035977913424
 20
859.1290570181273
 10
663.9623976632369
 20
860.4913213961474
 10
694.61334616909
 20
861.1724535852149
 10
727.3076912419156
 20
861.8535857741674
 10
762.7265650708963
 20
863.2158501522448
 10
800.1888354670793
 20
863.896982341255
 10
840.3756346191874
 20
864.5781145302649
 10
882.6058303383833
 20
864.5781145302649
 10
926.8794226245516
 20
865.259246719275
 10
973.8775436668749
 20
865.9403789082849
 10
1022.919061276285
 20
865.9403789082849
 10
1074.685107641736
 20
866.6215110973523
 10
1127.813418385207
 20
866.6215110973523
 10
1184.34739007367
 20
866.6215110973523
 10
1303.54552315209
 20
867.3026432863624
 10
1363.485155785661
 20
866.6215110973523
 10
1421.381391852145
 20
866.6215110973523
 10
1476.553099162818
 20
866.6215110973523
 10
1528.319145528269
 20
865.9403789082849
 10
1578.041795326518
 20
865.9403789082849
 10
1624.358784180004
 20
865.259246719275
 10
1667.951244277104
 20
864.5781145302649
 10
1709.500307807233
 20
863.896982341255
 10
1747.643710392253
 20
863.2158501522448
 10
1783.062584221234
 20
861.8535857741674
 10
1815.756929294289
 20
861.1724535852149
 10
1846.407877800028
 20
859.8101892071372
 10
1873.653165360888
 20
858.4479248291172
 10
1898.173924165594
 20
857.0856604510398
 10
1939.041855506769
 20
854.3611316949423
 10
1956.75129242126
 20
852.3177351279695
 10
1975.141861524702
 20
850.2743385608821
 10
1994.894695006166
 20
848.230941993852
 10
2015.328660676811
 20
846.1875454267646
 10
2036.443758536409
 20
843.4630166706671
 10
2058.239988584959
 20
840.7384879146269
 10
2080.717350822462
 20
838.0139591585294
 10
2103.875845249147
 20
835.2894304024895
 10
2128.396604053853
 20
831.8837694573819
 10
2152.917362858558
 20
828.4781085122743
 10
2178.800386041399
 20
825.0724475671667
 10
2205.364541413076
 20
821.6667866221166
 10
2231.92869678464
 20
817.5799934879991
 10
2259.855116534568
 20
813.493200353824
 10
2349.912037936535
 20
800.9271182978155
  0
LWPOLYLINE
  5
B31
330
1F
100
AcDbEntity
  8
ceco.net 109
100
AcDbPolyline
 90
       11
 70
     0
 43
0.0
 10
-568.2027305038254
 20
267.5657645867132
 10
-585.9151691864076
 20
269.9497135167618
 10
-610.4359279911129
 20
271.9931100838494
 10
-632.2321580396634
 20
275.3987710289569
 10
-649.9415949541537
 20
278.123299784997
 10
-664.2453709236514
 20
281.5289607300471
 10
-675.8246181368792
 20
285.6157538641647
 10
-687.4038653502219
 20
293.7893401324572
 10
-689.4472619174242
 20
299.2383976445949
 10
-689.4472619174242
 20
307.41198391283
 10
-689.0852381770533
 20
310.4891857057693
  0
LINE
  5
B32
330
1F
100
AcDbEntity
  8
ceco.net 109
100
AcDbLine
 10
384.0170679764996
 20
268.5874491387059
 30
0.0
 11
341.2498514432201
 21
268.5874491387059
 31
0.0
  0
LINE
  5
B33
330
1F
100
AcDbEntity
  8
ceco.net 109
100
AcDbLine
 10
-334.1229518763668
 20
268.6365574366107
 30
0.0
 11
-568.2057322718024
 21
267.5657508551909
 31
0.0
  0
LWPOLYLINE
  5
B34
330
1F
100
AcDbEntity
  8
ceco.net 109
100
AcDbPolyline
 90
        2
 70
     0
 43
0.0
 10
-461.5647003196984
 20
647.7083786183678
 10
-517.6975022948878
 20
506.2828775378982
  0
LWPOLYLINE
  5
B35
330
1F
100
AcDbEntity
  8
ceco.net 109
100
AcDbPolyline
 90
        3
 70
     0
 43
0.0
 10
-513.0807269395423
 20
506.262475117511
 10
-550.4962953575417
 20
447.725214850675
 10
-591.7693052329407
 20
380.4184602848587
  0
LINE
  5
B36
330
1F
100
AcDbEntity
  8
ceco.net 109
100
AcDbLine
 10
-536.0802501161415
 20
506.3025831063411
 30
0.0
 11
-511.5598020180887
 21
506.2762981693477
 31
0.0
  0
LINE
  5
B37
330
1F
100
AcDbEntity
  8
ceco.net 109
100
AcDbLine
 10
-536.0802501161415
 20
506.3025831063411
 30
0.0
 11
-560.8099085453729
 21
529.1299601181114
 31
0.0
  0
LWPOLYLINE
  5
B38
330
1F
100
AcDbEntity
  8
ceco.net 109
100
AcDbPolyline
 90
       14
 70
     0
 43
0.0
 10
-390.1446490681403
 20
959.5483087980804
 10
-350.2434317859532
 20
955.8498278588141
 10
-344.1132420848056
 20
953.8064312917265
 10
-338.6641845726106
 20
951.7630347246964
 10
-332.533994871463
 20
947.6762415905788
 10
-327.0849373592679
 20
943.5894484564613
 10
-322.3170120361403
 20
938.1403909443237
 10
-317.5490867128978
 20
932.0102012431187
 10
-313.4622935788377
 20
925.1988793529609
 10
-309.3755004447776
 20
917.7064252737357
 10
-305.9698394995552
 20
909.5328390055007
 10
-302.5641785545625
 20
901.3592527372656
 10
-300.520781987475
 20
891.8234020910677
 10
-299.8593356998989
 20
888.7366527488952
  0
LWPOLYLINE
  5
B39
330
1F
100
AcDbEntity
  8
ceco.net 109
100
AcDbPolyline
 90
       45
 70
     0
 43
0.0
 10
1942.848293126688
 20
994.8512312123508
 10
1927.462608293427
 20
980.3705866634619
 10
1916.564493269151
 20
970.1536038281968
 10
1907.709774811734
 20
961.2988853709516
 10
1899.536188543499
 20
952.4441669137065
 10
1893.405998842466
 20
944.2705806454712
 10
1887.956941330156
 20
937.4592587552562
 10
1883.189016007029
 20
930.6479368650986
 10
1880.464487251103
 20
925.1988793529609
 10
1878.421090683901
 20
919.7498218408235
 10
1877.739958494949
 20
915.6630287066484
 10
1878.421090683901
 20
911.5762355725882
 10
1880.464487251103
 20
908.8517068164907
 10
1883.189016007029
 20
906.1271780604506
 10
1887.275809141319
 20
904.7649136823732
 10
1899.536188543499
 20
903.402649304353
 10
1907.028642622781
 20
902.721517115343
 10
1915.202228891016
 20
902.721517115343
 10
1924.738079537272
 20
902.721517115343
 10
1934.95506237248
 20
902.0403849263331
 10
1945.853177396984
 20
901.3592527372656
 10
1958.11355679905
 20
901.3592527372656
 10
1971.055068390528
 20
900.6781205483131
 10
1985.358844360025
 20
899.3158561702355
 10
1999.662620329293
 20
898.6347239812255
 10
2015.328660676811
 20
897.953591792158
 10
2031.675833213281
 20
896.591327414138
 10
2049.385270127772
 20
895.2290630361179
 10
2067.775839231329
 20
893.8667986580979
 10
2086.847540523725
 20
892.5045342800205
 10
2128.396604053853
 20
889.7800055239803
 10
2149.511701913565
 20
887.7366089569502
 10
2171.307931962116
 20
885.6932123898628
 10
2192.423029821599
 20
882.9686836337653
 10
2213.538127681312
 20
880.2441548777251
 10
2235.334357729862
 20
876.8384939326177
 10
2256.44945558946
 20
873.4328329875101
 10
2277.564553449173
 20
869.3460398533925
 10
2297.998519119588
 20
865.259246719275
 10
2319.113616979301
 20
860.4913213961474
 10
2340.228714838784
 20
855.7233960730197
 10
2360.662680509314
 20
850.9554707498921
 10
2381.777778369027
 20
844.8252810487444
 10
2402.211744039442
 20
839.376223536607
 10
2495.334790801667
 20
808.3352079491989
  0
LWPOLYLINE
  5
B3A
330
1F
100
AcDbEntity
  8
ceco.net 109
100
AcDbPolyline
 90
      134
 70
     0
 43
0.0
 10
2891.306372135705
 20
568.3242124341745
 10
2927.364661773005
 20
536.272399423184
 10
2953.928817144912
 20
515.1573015635862
 10
2966.189196547093
 20
504.9403187282636
 10
2977.087311571483
 20
496.0856002710184
 10
2986.623162217738
 20
489.9554105698708
 10
2994.11561629702
 20
484.5063530577331
 10
3000.926938187236
 20
481.1006921126256
 10
3006.375995699316
 20
479.7384277345481
 10
3009.781656644308
 20
480.4195599236156
 10
3011.825053211511
 20
481.7818243016356
 10
3012.506185400578
 20
485.8686174357532
 10
3011.825053211511
 20
491.3176749478908
 10
3009.100524455356
 20
498.1289968381059
 10
3005.694863510248
 20
506.983715295351
 10
3000.245805998168
 20
517.2006981306736
 10
2993.434484107953
 20
529.461077532969
 10
2975.725047193463
 20
559.430893849812
 10
2964.826932169188
 20
575.0969341972148
 10
2954.609949333979
 20
591.444106733685
 10
2944.392966498542
 20
606.4290148920779
 10
2933.494851474267
 20
620.732790861518
 10
2923.277868638944
 20
635.0365668309008
 10
2913.060885803736
 20
648.659210611331
 10
2902.843902968299
 20
661.6007222026363
 10
2892.626920133091
 20
673.8611016049889
 10
2882.409937297883
 20
686.1214810073416
 10
2872.192954462676
 20
697.019596031617
 10
2861.975971627238
 20
707.9177110559497
 10
2851.758988791916
 20
718.1346938912148
 10
2842.223138145775
 20
727.67054453747
 10
2832.006155310338
 20
736.5252629947151
 10
2812.253321828875
 20
753.5535677201955
 10
2802.036338993667
 20
761.0460217993631
 10
2791.81935615823
 20
768.5384758785882
 10
2781.602373323022
 20
776.0309299578133
 10
2770.704258298747
 20
783.5233840370384
 10
2759.806143274472
 20
790.334705927196
 10
2748.908028250196
 20
797.1460278174112
 10
2738.009913225921
 20
803.9573497075688
 10
2727.111798201416
 20
810.7686715977839
 10
2715.532550988303
 20
817.5799934879991
 10
2703.953303774731
 20
823.7101831890893
 10
2692.374056561618
 20
830.5215050793616
 10
2680.79480934816
 20
836.651694780452
 10
2668.53442994598
 20
842.1007522926469
 10
2656.27405054357
 20
848.230941993852
 10
2631.753291738864
 20
859.8101892071372
 10
2618.811780147502
 20
864.5781145302649
 10
2606.551400745091
 20
870.0271720424598
 10
2594.291021342796
 20
874.7950973655301
 10
2582.030641940386
 20
879.5630226886578
 10
2570.451394727158
 20
884.3309480118428
 10
2558.872147513815
 20
888.4177411459603
 10
2547.292900300472
 20
893.1856664690879
 10
2536.394785276197
 20
896.591327414138
 10
2525.496670251922
 20
900.6781205483131
 10
2514.598555227647
 20
904.0837814933631
 10
2503.700440203372
 20
907.4894424384707
 10
2493.483457368164
 20
910.8951033835781
 10
2483.266474532727
 20
913.6196321396182
 10
2473.730623886472
 20
916.3441608957159
 10
2454.658922593961
 20
921.7932184078534
 10
2445.123071947706
 20
923.836614974941
 10
2435.587221301336
 20
925.880011541971
 10
2426.051370655196
 20
927.9234081090585
 10
2417.196652198008
 20
929.9668046760885
 10
2407.660801551638
 20
932.0102012431187
 10
2398.124950905383
 20
934.0535978102062
 10
2388.589100259242
 20
936.0969943772362
 10
2379.734381801824
 20
938.1403909443237
 10
2370.198531155684
 20
939.5026553223438
 10
2360.662680509314
 20
941.5460518894313
 10
2351.126829863059
 20
943.5894484564613
 10
2341.590979216919
 20
944.9517128344814
 10
2332.736260759502
 20
946.9951094015687
 10
2323.200410113361
 20
949.0385059685989
 10
2304.809841009804
 20
952.4441669137065
 10
2294.592858174596
 20
953.8064312917265
 10
2284.375875339158
 20
955.1686956697464
 10
2272.796628125815
 20
956.530960047824
 10
2261.217380912473
 20
957.8932244258441
 10
2248.27586932134
 20
959.2554888038641
 10
2235.334357729862
 20
960.6177531819415
 10
2221.030581760365
 20
961.2988853709516
 10
2206.045673602029
 20
961.980017560019
 10
2190.379633254512
 20
963.3422819380392
 10
2174.032460718156
 20
964.0234141270491
 10
2157.685288181686
 20
964.0234141270491
 10
2139.294719078128
 20
964.7045463160591
 10
2120.90414997457
 20
965.3856785050692
 10
2101.832448682175
 20
965.3856785050692
 10
2016.012975726358
 20
966.8402458432908
 10
1998.300355951388
 20
958.5743566149115
 10
1989.445637494085
 20
954.4875634807938
 10
1982.63431560387
 20
950.4007703466189
 10
1977.866390280743
 20
946.3139772125014
 10
1975.141861524702
 20
942.9083162674512
 10
1974.46072933575
 20
940.1837875114111
 10
1975.141861524702
 20
937.4592587552562
 10
1977.866390280743
 20
934.7347299992161
 10
1982.63431560387
 20
932.691333432186
 10
1989.445637494085
 20
930.6479368650986
 10
1998.300355951388
 20
928.6045402980111
 10
2008.517338786595
 20
927.242275919991
 10
2035.762626347341
 20
925.880011541971
 10
2050.747534505791
 20
925.1988793529609
 10
2065.732442664127
 20
924.5177471639509
 10
2080.717350822462
 20
923.836614974941
 10
2095.702258981027
 20
923.1554827858735
 10
2110.006034950295
 20
921.7932184078534
 10
2124.99094310886
 20
921.1120862188433
 10
2139.294719078128
 20
919.7498218408235
 10
2152.917362858558
 20
919.068689651756
 10
2167.221138827826
 20
917.7064252737357
 10
2180.843782608371
 20
916.3441608957159
 10
2194.466426388801
 20
914.9818965176958
 10
2208.089070169231
 20
913.6196321396182
 10
2221.711713949432
 20
912.2573677615983
 10
2234.65322554091
 20
910.8951033835781
 10
2260.536248723635
 20
908.1705746274806
 10
2273.477760314883
 20
906.1271780604506
 10
2286.419271906246
 20
903.402649304353
 10
2300.723047875743
 20
899.9969883592454
 10
2315.707956034079
 20
896.591327414138
 10
2330.692864192414
 20
892.5045342800205
 10
2347.040036728999
 20
887.7366089569502
 10
2363.387209265469
 20
882.2875514447552
 10
2380.415513990892
 20
876.1573617435502
 10
2398.124950905383
 20
869.3460398533925
 10
2416.515520008941
 20
861.8535857741674
 10
2435.587221301336
 20
854.3611316949423
 10
2454.658922593961
 20
846.1875454267646
 10
2462.382645338824
 20
842.4588516878481
  0
LWPOLYLINE
  5
B3B
330
1F
100
AcDbEntity
  8
ceco.net 109
100
AcDbPolyline
 90
        2
 70
     0
 43
0.0
 10
1806.221078647919
 20
875.8265261090532
 10
1806.221078647919
 20
307.1407666445401
  0
LWPOLYLINE
  5
B3C
330
1F
100
AcDbEntity
  8
ceco.net 109
100
AcDbPolyline
 90
        4
 70
     0
 43
0.0
 10
2068.564896411335
 20
259.0515984924866
 10
2061.645649530182
 20
259.0515984924866
 10
2028.951304457126
 20
259.0515984924866
 10
2005.031544642728
 20
259.0515984924866
  0
ARC
  5
B3D
330
1F
100
AcDbEntity
  8
ceco.net 109
100
AcDbCircle
 10
1950.474832757598
 20
249.6111996257289
 30
0.0
 40
44.78666114997906
100
AcDbArc
 50
282.717580202579
 51
349.8033305909551
  0
LWPOLYLINE
  5
B3E
330
1F
100
AcDbEntity
  8
ceco.net 109
100
AcDbPolyline
 90
       63
 70
     0
 43
0.0
 10
2936.773521672187
 20
380.4778419518029
 10
2938.26277679728
 20
380.9742603268314
 10
2940.306173364482
 20
381.6553925158988
 10
2942.34956993157
 20
382.3365247048514
 10
2945.074098687495
 20
382.3365247048514
 10
2950.52315619969
 20
383.0176568939189
 10
2952.566552766777
 20
383.0176568939189
 10
2955.291081522817
 20
383.0176568939189
 10
2957.334478089905
 20
383.6987890829289
 10
2959.377874656992
 20
384.3799212719389
 10
2961.421271223965
 20
385.061053460949
 10
2963.464667791052
 20
386.423317838969
 10
2964.826932169188
 20
387.7855822170465
 10
2966.189196547093
 20
389.1478465951239
 10
2967.551460925113
 20
390.5101109730865
 10
2968.913725303247
 20
392.553507540174
 10
2969.594857492315
 20
394.5969041072615
 10
2970.275989681267
 20
397.3214328633016
 10
2970.957121870335
 20
399.3648294303317
 10
2971.638254059402
 20
402.0893581864292
 10
2972.31938624824
 20
408.2195478875768
 10
2972.31938624824
 20
410.9440766436744
 10
2972.31938624824
 20
414.3497375887819
 10
2972.31938624824
 20
417.074266344822
 10
2972.31938624824
 20
419.7987951009195
 10
2973.000518437308
 20
422.523323857017
 10
2973.000518437308
 20
425.2478526131146
 10
2973.681650626375
 20
427.9723813691547
 10
2974.362782815328
 20
430.0157779361848
 10
2974.362782815328
 20
432.0591745032722
 10
2975.043915004395
 20
434.1025710703597
 10
2975.725047193463
 20
436.1459676373898
 10
2977.087311571483
 20
438.1893642044198
 10
2977.76844376055
 20
439.5516285824974
 10
2978.449575949388
 20
440.9138929605174
 10
2981.174104705543
 20
443.6384217165574
 10
2981.85523689461
 20
444.3195539056249
 10
2983.898633461698
 20
445.681818283645
 10
2985.94203002867
 20
446.362950472655
 10
2987.985426595758
 20
447.0440826617225
 10
2990.709955351798
 20
448.4063470397425
 10
2994.11561629702
 20
449.0874792286951
 10
2997.521277242013
 20
449.7686114177626
 10
3001.608070376073
 20
449.7686114177626
 10
3005.694863510248
 20
450.4497436067725
 10
3010.462788833376
 20
451.1308757957826
 10
3015.230714156504
 20
451.1308757957826
 10
3020.679771668584
 20
451.8120079847927
 10
3026.809961369846
 20
451.8120079847927
 10
3032.940151070994
 20
451.8120079847927
 10
3046.562794851424
 20
452.4931401738601
 10
3053.374116741639
 20
451.8120079847927
 10
3060.185438631739
 20
451.8120079847927
 10
3066.315628332887
 20
451.8120079847927
 10
3072.445818034035
 20
451.8120079847927
 10
3077.894875546229
 20
451.8120079847927
 10
3083.34393305831
 20
451.8120079847927
 10
3088.111858381667
 20
451.1308757957826
 10
3092.87978370468
 20
451.1308757957826
 10
3096.96657683874
 20
451.1308757957826
 10
3101.0533699728
 20
450.4497436067725
 10
3104.459030918022
 20
450.4497436067725
 10
3105.5069265935
 20
450.2401644716699
  0
LWPOLYLINE
  5
B3F
330
1F
100
AcDbEntity
  8
ceco.net 109
100
AcDbPolyline
 90
       15
 70
     0
 43
0.0
 10
3066.961247580042
 20
308.5018655353493
 10
3065.634496144049
 20
304.6874551567325
 10
3057.460909875699
 20
291.0648113763597
 10
3046.562794851424
 20
278.804431974007
 10
3033.621283260061
 20
269.2685813277519
 10
3017.274110723591
 20
261.0949950595167
 10
2998.883541620033
 20
255.6459375473791
 10
2977.76844376055
 20
251.5591444132615
 10
2928.045793962072
 20
250.1968800352415
 10
2899.438242023306
 20
250.8780122242515
 10
2869.468425706406
 20
251.5591444132615
 10
2837.455212822648
 20
252.9214087912816
 10
2804.07973556064
 20
253.6025409802916
 10
2768.660861731544
 20
254.283673169359
 10
2736.962417917479
 20
254.8706813881326
  0
LWPOLYLINE
  5
B40
330
1F
100
AcDbEntity
  8
ceco.net 109
100
AcDbPolyline
 90
       16
 70
     0
 43
0.0
 10
3105.94580333058
 20
314.1280937765753
 10
3098.328841216875
 20
313.5421736139777
 10
3088.792990570619
 20
312.8610414249676
 10
3078.576007735182
 20
312.1799092359001
 10
3066.996760521954
 20
312.1799092359001
 10
3042.476001717134
 20
312.1799092359001
 10
3029.534490126001
 20
312.1799092359001
 10
3017.274110723591
 20
312.1799092359001
 10
3006.375995699316
 20
312.1799092359001
 10
2995.477880674926
 20
312.8610414249676
 10
2985.94203002867
 20
313.5421736139777
 10
2976.40617938253
 20
314.2233058029877
 10
2968.23259311418
 20
315.5855701810651
 10
2960.740139034898
 20
316.2667023700752
 10
2953.928817144912
 20
317.6289667480378
 10
2953.371527172034
 20
317.752808964241
  0
LWPOLYLINE
  5
B41
330
1F
100
AcDbEntity
  8
ceco.net 109
100
AcDbPolyline
 90
        2
 70
     0
 43
0.0
 10
2458.520783966393
 20
844.3231985573063
 10
2550.816320724368
 20
799.0181727643094
  0
LWPOLYLINE
  5
B42
330
1F
100
AcDbEntity
  8
ceco.net 109
100
AcDbPolyline
 90
       11
 70
     0
 43
0.0
 10
2911.536625045961
 20
482.8488068320885
 10
2919.872207693837
 20
477.013898978508
 10
2926.683529584051
 20
472.9271058443905
 10
2934.175983663219
 20
468.8403127102729
 10
2942.34956993157
 20
464.7535195762127
 10
2950.52315619969
 20
461.3478586311052
 10
2959.377874656992
 20
457.9421976859976
 10
2968.23259311418
 20
455.2176689299002
 10
2978.449575949388
 20
452.4931401738601
 10
2988.666558784825
 20
450.4497436067725
 10
2994.796748486088
 20
449.2237056665244
  0
LWPOLYLINE
  5
B43
330
1F
100
AcDbEntity
  8
ceco.net 109
100
AcDbPolyline
 90
        4
 70
     1
 43
0.0
 10
2795.225017103452
 20
638.442227775951
 10
2874.236351029534
 20
408.9006800766443
 10
2900.800506401441
 20
417.7553985338894
 10
2821.108040286063
 20
646.6158140442435
  0
ARC
  5
B44
330
1F
100
AcDbEntity
  8
ceco.net 109
100
AcDbCircle
 10
3012.910363700749
 20
381.8848552715216
 30
0.0
 40
115.0937520258983
100
AcDbArc
 50
323.9345308126985
 51
36.43495438416362
  0
ARC
  5
B45
330
1F
100
AcDbEntity
  8
ceco.net 109
100
AcDbCircle
 10
-356.4518393915135
 20
505.2352005406015
 30
0.0
 40
205.7502854519543
100
AcDbArc
 50
143.1931642551699
 51
173.3309195376628
  0
LINE
  5
B46
330
1F
100
AcDbEntity
  8
ceco.net 109
100
AcDbLine
 10
-681.6142417435505
 20
289.702546998311
 30
0.0
 11
-734.7082218814988
 21
289.702546998311
 31
0.0
  0
LINE
  5
B47
330
1F
100
AcDbEntity
  8
ceco.net 109
100
AcDbLine
 10
-734.7082218814988
 20
228.0752575778753
 30
0.0
 11
-586.161850214523
 21
228.0752575778753
 31
0.0
  0
LINE
  5
B48
330
1F
100
AcDbEntity
  8
ceco.net 109
100
AcDbLine
 10
-602.4323894699693
 20
207.2298805225464
 30
0.0
 11
-314.3954160413763
 21
207.2298805225464
 31
0.0
  0
ELLIPSE
  5
B49
330
1F
100
AcDbEntity
  8
ceco.net 109
100
AcDbEllipse
 10
-734.7082218814988
 20
258.8889022880925
 30
0.0
 11
0.0
 21
-30.8136447102177
 31
0.0
210
0.0
220
0.0
230
1.0
 40
0.3925200441331078
 41
3.141592653589793
 42
6.283185307179586
  0
ELLIPSE
  5
B4A
330
1F
100
AcDbEntity
  8
ceco.net 109
100
AcDbEllipse
 10
-722.6132486999423
 20
258.8889022880925
 30
0.0
 11
0.0
 21
-30.8136447102177
 31
0.0
210
0.0
220
0.0
230
1.0
 40
0.3925200441331078
 41
6.283185307179586
 42
9.424777960769379
  0
ARC
  5
B4B
330
1F
100
AcDbEntity
  8
ceco.net 109
100
AcDbCircle
 10
2715.916036938725
 20
481.6812203979246
 30
0.0
 40
195.6240725204909
100
AcDbArc
 50
340.926615191128
 51
57.47107937665013
  0
ARC
  5
B4C
330
1F
100
AcDbEntity
  8
ceco.net 109
100
AcDbCircle
 10
0.0000000000000628
 20
342.1048659867189
 30
0.0
 40
342.1048659867189
100
AcDbArc
 50
150.7799300128129
 51
12.7396705141281
  0
CIRCLE
  5
B4D
330
1F
100
AcDbEntity
  8
ceco.net 109
100
AcDbCircle
 10
0.0000000000000628
 20
342.1048659867189
 30
0.0
 40
281.6108949102693
  0
LINE
  5
B4E
330
1F
100
AcDbEntity
  8
ceco.net 109
100
AcDbLine
 10
90.74936835552589
 20
350.0243450658294
 30
0.0
 11
249.5153104856243
 21
378.0615855461058
 31
0.0
  0
LINE
  5
B4F
330
1F
100
AcDbEntity
  8
ceco.net 109
100
AcDbLine
 10
88.56178534889876
 20
361.1864124163674
 30
0.0
 11
243.0378785024994
 21
409.0510461354918
 31
0.0
  0
LINE
  5
B50
330
1F
100
AcDbEntity
  8
ceco.net 109
100
AcDbLine
 10
84.9772026894132
 20
371.9121850108018
 30
0.0
 11
232.7350256812501
 21
438.9835171639305
 31
0.0
  0
LINE
  5
B51
330
1F
100
AcDbEntity
  8
ceco.net 109
100
AcDbLine
 10
80.08201860231279
 20
382.0265907908703
 30
0.0
 11
218.7540859743749
 21
467.3893716578267
 31
0.0
  0
LINE
  5
B52
330
1F
100
AcDbEntity
  8
ceco.net 109
100
AcDbLine
 10
73.9809554506759
 20
391.3765641339498
 30
0.0
 11
201.3265841643748
 21
493.8193726101552
 31
0.0
  0
LINE
  5
B53
330
1F
100
AcDbEntity
  8
ceco.net 109
100
AcDbLine
 10
66.79801518181155
 20
399.8236339670468
 30
0.0
 11
180.72614044875
 21
517.8571700567413
 31
0.0
  0
LINE
  5
B54
330
1F
100
AcDbEntity
  8
ceco.net 109
100
AcDbLine
 10
58.67097992003376
 20
407.2508036166509
 30
0.0
 11
157.2737323668745
 21
539.1219320404677
 31
0.0
  0
LINE
  5
B55
330
1F
100
AcDbEntity
  8
ceco.net 109
100
AcDbLine
 10
49.74645110923926
 20
413.5637712962049
 30
0.0
 11
131.337694799999
 21
557.2795262042423
 31
0.0
  0
LINE
  5
B56
330
1F
100
AcDbEntity
  8
ceco.net 109
100
AcDbLine
 10
40.17202044562959
 20
418.6918968339211
 30
0.0
 11
103.3337199712496
 21
572.0444930154924
 31
0.0
  0
LINE
  5
B57
330
1F
100
AcDbEntity
  8
ceco.net 109
100
AcDbLine
 10
30.10867572790816
 20
422.5790319617749
 30
0.0
 11
73.70380973812538
 21
583.1826767282811
 31
0.0
  0
LINE
  5
B58
330
1F
100
AcDbEntity
  8
ceco.net 109
100
AcDbLine
 10
19.71050543081126
 20
425.1930946094286
 30
0.0
 11
42.90575173875004
 21
590.519776014545
 31
0.0
  0
LINE
  5
B59
330
1F
100
AcDbEntity
  8
ceco.net 109
100
AcDbLine
 10
9.134542357038787
 20
426.5188962025835
 30
0.0
 11
11.43416709937507
 21
593.9380552607803
 31
0.0
  0
LINE
  5
B5A
330
1F
100
AcDbEntity
  8
ceco.net 109
100
AcDbLine
 10
-1.467706316521784
 20
426.5592480906486
 30
0.0
 11
-20.22158498062533
 21
593.3855529389052
 31
0.0
  0
LINE
  5
B5B
330
1F
100
AcDbEntity
  8
ceco.net 109
100
AcDbLine
 10
-11.94400874513157
 20
425.3335730416289
 30
0.0
 11
-51.55635952125054
 21
588.8708196801543
 31
0.0
  0
LINE
  5
B5C
330
1F
100
AcDbEntity
  8
ceco.net 109
100
AcDbLine
 10
-22.16586416065152
 20
422.8728843626918
 30
0.0
 11
-82.0755353962509
 21
580.4629182747019
 31
0.0
  0
LINE
  5
B5D
330
1F
100
AcDbEntity
  8
ceco.net 109
100
AcDbLine
 10
-31.98926974297899
 20
419.2244805368543
 30
0.0
 11
-111.305539186875
 21
568.2966855989051
 31
0.0
  0
LINE
  5
B5E
330
1F
100
AcDbEntity
  8
ceco.net 109
100
AcDbLine
 10
-41.29381931413099
 20
414.443096746289
 30
0.0
 11
-138.7727974743757
 21
552.5635242426544
 31
0.0
  0
LINE
  5
B5F
330
1F
100
AcDbEntity
  8
ceco.net 109
100
AcDbLine
 10
-49.94512922345926
 20
408.6063679192957
 30
0.0
 11
-164.0563561087505
 21
533.5114025098658
 31
0.0
  0
LINE
  5
B60
330
1F
100
AcDbEntity
  8
ceco.net 109
100
AcDbLine
 10
-57.84337721347696
 20
401.7873248871826
 30
0.0
 11
-186.7563086475009
 21
511.4402502326785
 31
0.0
  0
LINE
  5
B61
330
1F
100
AcDbEntity
  8
ceco.net 109
100
AcDbLine
 10
-64.88507762180391
 20
394.0733021142031
 30
0.0
 11
-206.5043202093755
 21
486.6986700664304
 31
0.0
  0
LINE
  5
B62
330
1F
100
AcDbEntity
  8
ceco.net 109
100
AcDbLine
 10
-70.96578702602283
 20
385.5746815058178
 30
0.0
 11
-223.0004609625005
 21
459.6760445998661
 31
0.0
  0
LINE
  5
B63
330
1F
100
AcDbEntity
  8
ceco.net 109
100
AcDbLine
 10
-76.00910812543633
 20
376.387256098433
 30
0.0
 11
-235.9763726362505
 21
430.7999053917177
 31
0.0
  0
LINE
  5
B64
330
1F
100
AcDbEntity
  8
ceco.net 109
100
AcDbLine
 10
-79.93307110728541
 20
366.6385773751401
 30
0.0
 11
-245.2321020093756
 21
400.525409116405
 31
0.0
  0
LINE
  5
B65
330
1F
100
AcDbEntity
  8
ceco.net 109
100
AcDbLine
 10
-82.675191256303
 20
356.4502718117811
 30
0.0
 11
-250.6203151293756
 21
369.3294178970423
 31
0.0
  0
LINE
  5
B66
330
1F
100
AcDbEntity
  8
ceco.net 109
100
AcDbLine
 10
-84.18211548816307
 20
345.9568817215168
 30
0.0
 11
-252.0568211662501
 21
337.7045796373664
 31
0.0
  0
LINE
  5
B67
330
1F
100
AcDbEntity
  8
ceco.net 109
100
AcDbLine
 10
-84.41385783824593
 20
335.3028359099251
 30
0.0
 11
-249.5153104856254
 21
306.1488041679928
 31
0.0
  0
LINE
  5
B68
330
1F
100
AcDbEntity
  8
ceco.net 109
100
AcDbLine
 10
-83.34555530756484
 20
324.6356690369948
 30
0.0
 11
-243.0431404293753
 21
275.158685837678
 31
0.0
  0
LINE
  5
B69
330
1F
100
AcDbEntity
  8
ceco.net 109
100
AcDbLine
 10
-80.96940434441473
 20
314.1144736471257
 30
0.0
 11
-232.7350256812506
 21
245.2248993276574
 31
0.0
  0
LINE
  5
B6A
330
1F
100
AcDbEntity
  8
ceco.net 109
100
AcDbLine
 10
-77.29594023579274
 20
303.8987487705647
 30
0.0
 11
-218.7593479012509
 21
216.8197025745536
 31
0.0
  0
LINE
  5
B6B
330
1F
100
AcDbEntity
  8
ceco.net 109
100
AcDbLine
 10
-72.35208555158751
 20
294.1447383282021
 30
0.0
 11
-201.3318460912502
 21
190.3903593632827
 31
0.0
  0
LINE
  5
B6C
330
1F
100
AcDbEntity
  8
ceco.net 109
100
AcDbLine
 10
-66.19015347246464
 20
285.0193216473936
 30
0.0
 11
-180.7314023756254
 21
166.3525619164286
 31
0.0
  0
LINE
  5
B6D
330
1F
100
AcDbEntity
  8
ceco.net 109
100
AcDbLine
 10
-58.88271963570982
 20
276.6807988460468
 30
0.0
 11
-157.2789942937504
 21
145.0877999329701
 31
0.0
  0
LINE
  5
B6E
330
1F
100
AcDbEntity
  8
ceco.net 109
100
AcDbLine
 10
-50.5247680850831
 20
269.2809980507606
 30
0.0
 11
-131.342956726875
 21
126.9288902873456
 31
0.0
  0
LINE
  5
B6F
330
1F
100
AcDbEntity
  8
ceco.net 109
100
AcDbLine
 10
-41.23015930047201
 20
262.9595450990235
 30
0.0
 11
-103.3389818981255
 21
112.1652389576792
 31
0.0
  0
LINE
  5
B70
330
1F
100
AcDbEntity
  8
ceco.net 109
100
AcDbLine
 10
-31.14281570930875
 20
257.8479335158835
 30
0.0
 11
-73.70380973812586
 21
101.0270552451568
 31
0.0
  0
LINE
  5
B71
330
1F
100
AcDbEntity
  8
ceco.net 109
100
AcDbLine
 10
-20.41202573298091
 20
254.0523422105688
 30
0.0
 11
-42.91101366562538
 21
93.68929821796998
 31
0.0
  0
LINE
  5
B72
330
1F
100
AcDbEntity
  8
ceco.net 109
100
AcDbLine
 10
-9.222577654884837
 20
251.6653371718289
 30
0.0
 11
-11.43942902625102
 21
90.27036123080391
 31
0.0
  0
LINE
  5
B73
330
1F
100
AcDbEntity
  8
ceco.net 109
100
AcDbLine
 10
2.238086415077473
 20
250.749738709467
 30
0.0
 11
20.21632305374938
 21
90.82417903453261
 31
0.0
  0
LINE
  5
B74
330
1F
100
AcDbEntity
  8
ceco.net 109
100
AcDbLine
 10
13.77134599627027
 20
251.3424283820488
 30
0.0
 11
51.5510975943752
 21
95.33891229328354
 31
0.0
  0
LINE
  5
B75
330
1F
100
AcDbEntity
  8
ceco.net 109
100
AcDbLine
 10
25.16587095245692
 20
253.4503541403729
 30
0.0
 11
82.07027346937495
 21
103.7461559576791
 31
0.0
  0
LINE
  5
B76
330
1F
100
AcDbEntity
  8
ceco.net 109
100
AcDbLine
 10
36.21356972643297
 20
257.0491503432676
 30
0.0
 11
111.300277259999
 21
115.9117308926785
 31
0.0
  0
LINE
  5
B77
330
1F
100
AcDbEntity
  8
ceco.net 109
100
AcDbLine
 10
46.70934222713833
 20
262.0829188182849
 30
0.0
 11
138.7727974743753
 21
131.6448922489292
 31
0.0
  0
LINE
  5
B78
330
1F
100
AcDbEntity
  8
ceco.net 109
100
AcDbLine
 10
56.46544965331085
 20
268.4708980991376
 30
0.0
 11
164.0510941818746
 21
150.6983294633041
 31
0.0
  0
LINE
  5
B79
330
1F
100
AcDbEntity
  8
ceco.net 109
100
AcDbLine
 10
65.28675049144907
 20
276.0888559922069
 30
0.0
 11
186.7510467206249
 21
172.7688239996982
 31
0.0
  0
LINE
  5
B7A
330
1F
100
AcDbEntity
  8
ceco.net 109
100
AcDbLine
 10
73.02568191464368
 20
284.8086661875228
 30
0.0
 11
206.4990582824996
 21
197.5110619067413
 31
0.0
  0
LINE
  5
B7B
330
1F
100
AcDbEntity
  8
ceco.net 109
100
AcDbLine
 10
79.53327988354556
 20
294.4573228018688
 30
0.0
 11
222.9951990356245
 21
224.5323718917211
 31
0.0
  0
LINE
  5
B7C
330
1F
100
AcDbEntity
  8
ceco.net 109
100
AcDbLine
 10
84.70347694858467
 20
304.8639245251377
 30
0.0
 11
235.9711107093746
 21
253.4085110998659
 31
0.0
  0
LINE
  5
B7D
330
1F
100
AcDbEntity
  8
ceco.net 109
100
AcDbLine
 10
88.44692830002086
 20
315.8233923610433
 30
0.0
 11
245.2268400824997
 21
283.6830073751804
 31
0.0
  0
LINE
  5
B7E
330
1F
100
AcDbEntity
  8
ceco.net 109
100
AcDbLine
 10
90.71364386333895
 20
327.1435212776765
 30
0.0
 11
250.6150532024996
 21
314.8796563354702
 31
0.0
  0
LINE
  5
B7F
330
1F
100
AcDbEntity
  8
ceco.net 109
100
AcDbLine
 10
91.47854455621102
 20
338.6104676990758
 30
0.0
 11
252.0515592393742
 21
346.5038368542189
 31
0.0
  0
CIRCLE
  5
B80
330
1F
100
AcDbEntity
  8
ceco.net 109
100
AcDbCircle
 10
0.0000000000000628
 20
342.1048659867189
 30
0.0
 40
252.0930380223191
  0
LWPOLYLINE
  5
B81
330
1F
100
AcDbEntity
  8
ceco.net 109
100
AcDbPolyline
 90
       61
 70
     1
 43
0.0
 10
2.248037539937752
 20
630.542712492535
 10
31.30967760467169
 20
628.7263599884318
 10
59.46314141746883
 20
624.1854787283649
 10
87.61660523041912
 20
616.9200687121814
 10
113.9537165388832
 20
607.8383061918946
 10
139.3826515957168
 20
595.1238386635544
 10
162.9952341483706
 20
580.5930186311108
 10
184.7914641969976
 20
564.2458460947172
 10
205.6795179936878
 20
546.0823210541435
 10
223.8430430339551
 20
525.1942672576064
 10
240.190215570502
 20
503.3980372089795
 10
254.7210356028689
 20
479.7854546563256
 10
267.4355031313623
 20
454.3565195995687
 10
276.517265651496
 20
428.0194082908748
 10
283.7826756679092
 20
399.8659444780777
 10
290.1399094320793
 20
342.6508406005466
 10
288.3235569278994
 20
312.6810242836461
 10
283.7826756679092
 20
284.5275604709256
 10
276.517265651496
 20
256.3740966581284
 10
267.4355031313623
 20
230.0369853494346
 10
254.7210356028689
 20
204.6080502926775
 10
240.190215570502
 20
180.9954677400238
 10
223.8430430339551
 20
158.2910614393834
 10
205.6795179936878
 20
138.3111838948597
 10
184.7914641969976
 20
119.2394826023493
 10
162.9952341483706
 20
102.892310065879
 10
139.3826515957168
 20
88.36149003343553
 10
113.9537165388832
 20
76.55519875718522
 10
87.61660523041912
 20
66.56525998488509
 10
59.46314141746883
 20
59.2998499687016
 10
2.248037539937752
 20
53.85079245646827
 10
-27.72177877673297
 20
54.7589687085582
 10
-55.87524258968326
 20
59.2998499687016
 10
-84.02870640248041
 20
66.56525998488509
 10
-110.3658177112508
 20
76.55519875718522
 10
-135.7947527677781
 20
88.36149003343553
 10
-159.4073353207381
 20
102.892310065879
 10
-181.203565369212
 20
119.2394826023493
 10
-202.0916191657491
 20
138.3111838948597
 10
-220.2551442063227
 20
158.2910614393834
 10
-236.6023167425633
 20
180.9954677400238
 10
-251.1331367752365
 20
204.6080502926775
 10
-263.8476043034236
 20
230.0369853494346
 10
-272.9293668237104
 20
256.3740966581284
 10
-280.1947768399704
 20
284.5275604709256
 10
-285.6438343520506
 20
342.6508406005466
 10
-284.7356580999607
 20
371.7124806653571
 10
-280.1947768399704
 20
399.8659444780777
 10
-272.9293668237104
 20
428.0194082908748
 10
-263.8476043034236
 20
454.3565195995687
 10
-251.1331367752365
 20
479.7854546563256
 10
-236.6023167425633
 20
503.3980372089795
 10
-220.2551442063227
 20
525.1942672576064
 10
-202.0916191657491
 20
546.0823210541435
 10
-181.203565369212
 20
564.2458460947172
 10
-159.4073353207381
 20
580.5930186311108
 10
-135.7947527677781
 20
595.1238386635544
 10
-110.3658177112508
 20
607.8383061918946
 10
-84.02870640248041
 20
616.9200687121814
 10
-55.87524258968326
 20
624.1854787283649
 10
2.248037539937752
 20
630.542712492535
  0
LINE
  5
B82
330
1F
100
AcDbEntity
  8
ceco.net 109
100
AcDbLine
 10
1541.941789308699
 20
1390.412164452894
 30
0.0
 11
1550.11537557682
 21
1383.600842562679
 31
0.0
  0
LINE
  5
B83
330
1F
100
AcDbEntity
  8
ceco.net 109
100
AcDbLine
 10
1829.379573074605
 20
1007.275308129731
 30
0.0
 11
1836.190894964705
 21
1006.253609846187
 31
0.0
  0
LINE
  5
B84
330
1F
100
AcDbEntity
  8
ceco.net 109
100
AcDbLine
 10
1836.190894964705
 20
1006.253609846187
 30
0.0
 11
1851.856935312338
 21
1003.529081090147
 31
0.0
  0
LINE
  5
B85
330
1F
100
AcDbEntity
  8
ceco.net 109
100
AcDbLine
 10
1851.856935312338
 20
1003.529081090147
 30
0.0
 11
1869.566372226828
 21
1001.485684523117
 31
0.0
  0
LINE
  5
B86
330
1F
100
AcDbEntity
  8
ceco.net 109
100
AcDbLine
 10
1869.566372226828
 20
1001.485684523117
 30
0.0
 11
1890.000337897244
 21
999.4422879560298
 31
0.0
  0
LINE
  5
B87
330
1F
100
AcDbEntity
  8
ceco.net 109
100
AcDbLine
 10
1890.000337897244
 20
999.4422879560298
 30
0.0
 11
1913.158832323929
 21
997.3988913889423
 31
0.0
  0
LINE
  5
B88
330
1F
100
AcDbEntity
  8
ceco.net 109
100
AcDbLine
 10
1913.158832323929
 20
997.3988913889423
 30
0.0
 11
1937.679591128635
 21
995.3554948219121
 31
0.0
  0
LINE
  5
B89
330
1F
100
AcDbEntity
  8
ceco.net 109
100
AcDbLine
 10
1937.679591128635
 20
995.3554948219121
 30
0.0
 11
1965.606010878333
 21
992.6309660658722
 31
0.0
  0
LINE
  5
B8A
330
1F
100
AcDbEntity
  8
ceco.net 109
100
AcDbLine
 10
1965.606010878333
 20
992.6309660658722
 30
0.0
 11
1994.894695006166
 21
990.5875694987846
 31
0.0
  0
LINE
  5
B8B
330
1F
100
AcDbEntity
  8
ceco.net 109
100
AcDbLine
 10
1994.894695006166
 20
990.5875694987846
 30
0.0
 11
2026.907907890153
 21
988.5441729316971
 31
0.0
  0
LINE
  5
B8C
330
1F
100
AcDbEntity
  8
ceco.net 109
100
AcDbLine
 10
2026.907907890153
 20
988.5441729316971
 30
0.0
 11
2061.645649530182
 21
986.5007763646671
 31
0.0
  0
LINE
  5
B8D
330
1F
100
AcDbEntity
  8
ceco.net 109
100
AcDbLine
 10
2061.645649530182
 20
986.5007763646671
 30
0.0
 11
2137.932454700108
 21
982.413983230492
 31
0.0
  0
LINE
  5
B8E
330
1F
100
AcDbEntity
  8
ceco.net 109
100
AcDbLine
 10
2137.932454700108
 20
982.413983230492
 30
0.0
 11
2177.438121663264
 21
979.6894544744519
 31
0.0
  0
LINE
  5
B8F
330
1F
100
AcDbEntity
  8
ceco.net 109
100
AcDbLine
 10
2177.438121663264
 20
979.6894544744519
 30
0.0
 11
2216.943788626419
 21
976.2837935294017
 31
0.0
  0
LINE
  5
B90
330
1F
100
AcDbEntity
  8
ceco.net 109
100
AcDbLine
 10
2216.943788626419
 20
976.2837935294017
 30
0.0
 11
2255.087191211325
 21
972.1970003952842
 31
0.0
  0
LINE
  5
B91
330
1F
100
AcDbEntity
  8
ceco.net 109
100
AcDbLine
 10
2255.087191211325
 20
972.1970003952842
 30
0.0
 11
2293.230593796461
 21
966.7479428830892
 31
0.0
  0
LINE
  5
B92
330
1F
100
AcDbEntity
  8
ceco.net 109
100
AcDbLine
 10
2293.230593796461
 20
966.7479428830892
 30
0.0
 11
2330.011732003576
 21
961.2988853709516
 31
0.0
  0
LINE
  5
B93
330
1F
100
AcDbEntity
  8
ceco.net 109
100
AcDbLine
 10
2330.011732003576
 20
961.2988853709516
 30
0.0
 11
2366.792870210462
 21
955.1686956697464
 31
0.0
  0
LINE
  5
B94
330
1F
100
AcDbEntity
  8
ceco.net 109
100
AcDbLine
 10
2366.792870210462
 20
955.1686956697464
 30
0.0
 11
2402.211744039442
 21
947.6762415905788
 31
0.0
  0
LINE
  5
B95
330
1F
100
AcDbEntity
  8
ceco.net 109
100
AcDbLine
 10
2402.211744039442
 20
947.6762415905788
 30
0.0
 11
2437.630617868423
 21
940.1837875114111
 31
0.0
  0
LINE
  5
B96
330
1F
100
AcDbEntity
  8
ceco.net 109
100
AcDbLine
 10
2437.630617868423
 20
940.1837875114111
 30
0.0
 11
2471.687227319383
 21
931.3290690541661
 31
0.0
  0
LINE
  5
B97
330
1F
100
AcDbEntity
  8
ceco.net 109
100
AcDbLine
 10
2471.687227319383
 20
931.3290690541661
 30
0.0
 11
2505.743836770459
 21
921.7932184078534
 31
0.0
  0
LINE
  5
B98
330
1F
100
AcDbEntity
  8
ceco.net 109
100
AcDbLine
 10
2505.743836770459
 20
921.7932184078534
 30
0.0
 11
2538.438181843285
 21
911.5762355725882
 31
0.0
  0
LINE
  5
B99
330
1F
100
AcDbEntity
  8
ceco.net 109
100
AcDbLine
 10
2538.438181843285
 20
911.5762355725882
 30
0.0
 11
2571.132526916111
 21
900.6781205483131
 31
0.0
  0
LINE
  5
B9A
330
1F
100
AcDbEntity
  8
ceco.net 109
100
AcDbLine
 10
2571.132526916111
 20
900.6781205483131
 30
0.0
 11
2602.464607611031
 21
889.0988733349129
 31
0.0
  0
LINE
  5
B9B
330
1F
100
AcDbEntity
  8
ceco.net 109
100
AcDbLine
 10
2602.464607611031
 20
889.0988733349129
 30
0.0
 11
2633.796688306066
 21
876.8384939326177
 31
0.0
  0
LINE
  5
B9C
330
1F
100
AcDbEntity
  8
ceco.net 109
100
AcDbLine
 10
2633.796688306066
 20
876.8384939326177
 30
0.0
 11
2693.736320939523
 21
849.5932063718722
 31
0.0
  0
LINE
  5
B9D
330
1F
100
AcDbEntity
  8
ceco.net 109
100
AcDbLine
 10
2693.736320939523
 20
849.5932063718722
 30
0.0
 11
2722.343872878288
 21
834.6082982134218
 31
0.0
  0
LINE
  5
B9E
330
1F
100
AcDbEntity
  8
ceco.net 109
100
AcDbLine
 10
2722.343872878288
 20
834.6082982134218
 30
0.0
 11
2750.270292628101
 21
818.2611256769517
 31
0.0
  0
LINE
  5
B9F
330
1F
100
AcDbEntity
  8
ceco.net 109
100
AcDbLine
 10
2750.270292628101
 20
818.2611256769517
 30
0.0
 11
2776.834447999894
 21
801.9139531405388
 31
0.0
  0
LINE
  5
BA0
330
1F
100
AcDbEntity
  8
ceco.net 109
100
AcDbLine
 10
2776.834447999894
 20
801.9139531405388
 30
0.0
 11
2802.717471182505
 21
783.5233840370384
 31
0.0
  0
LINE
  5
BA1
330
1F
100
AcDbEntity
  8
ceco.net 109
100
AcDbLine
 10
2802.717471182505
 20
783.5233840370384
 30
0.0
 11
2827.919362176277
 21
764.4516827444706
 31
0.0
  0
LINE
  5
BA2
330
1F
100
AcDbEntity
  8
ceco.net 109
100
AcDbLine
 10
2827.919362176277
 20
764.4516827444706
 30
0.0
 11
2851.758988791916
 21
744.6988492629502
 31
0.0
  0
LINE
  5
BA3
330
1F
100
AcDbEntity
  8
ceco.net 109
100
AcDbLine
 10
2851.758988791916
 20
744.6988492629502
 30
0.0
 11
2874.917483218601
 21
723.5837514033524
 31
0.0
  0
LINE
  5
BA4
330
1F
100
AcDbEntity
  8
ceco.net 109
100
AcDbLine
 10
2874.917483218601
 20
723.5837514033524
 30
0.0
 11
2896.713713267151
 21
701.7875213547445
 31
0.0
  0
LINE
  5
BA5
330
1F
100
AcDbEntity
  8
ceco.net 109
100
AcDbLine
 10
2896.713713267151
 20
701.7875213547445
 30
0.0
 11
2917.828811126864
 21
678.6290269281167
 31
0.0
  0
LINE
  5
BA6
330
1F
100
AcDbEntity
  8
ceco.net 109
100
AcDbLine
 10
2917.828811126864
 20
678.6290269281167
 30
0.0
 11
2937.581644608327
 21
654.1082681234686
 31
0.0
  0
LINE
  5
BA7
330
1F
100
AcDbEntity
  8
ceco.net 109
100
AcDbLine
 10
2937.581644608327
 20
654.1082681234686
 30
0.0
 11
2956.653345900837
 21
628.9063771297532
 31
0.0
  0
LINE
  5
BA8
330
1F
100
AcDbEntity
  8
ceco.net 109
100
AcDbLine
 10
2956.653345900837
 20
628.9063771297532
 30
0.0
 11
2975.043915004395
 21
603.0233539470278
 31
0.0
  0
LINE
  5
BA9
330
1F
100
AcDbEntity
  8
ceco.net 109
100
AcDbLine
 10
2975.043915004395
 20
603.0233539470278
 30
0.0
 11
2992.072219729818
 21
575.7780663862822
 31
0.0
  0
LINE
  5
BAA
330
1F
100
AcDbEntity
  8
ceco.net 109
100
AcDbLine
 10
2992.072219729818
 20
575.7780663862822
 30
0.0
 11
3008.419392266288
 21
547.1705144474594
 31
0.0
  0
LINE
  5
BAB
330
1F
100
AcDbEntity
  8
ceco.net 109
100
AcDbLine
 10
3008.419392266288
 20
547.1705144474594
 30
0.0
 11
3038.389208583188
 21
487.9120140028407
 31
0.0
  0
LINE
  5
BAC
330
1F
100
AcDbEntity
  8
ceco.net 109
100
AcDbLine
 10
3038.389208583188
 20
487.9120140028407
 30
0.0
 11
3050.649587985484
 21
457.9421976859976
 31
0.0
  0
LINE
  5
BAD
330
1F
100
AcDbEntity
  8
ceco.net 109
100
AcDbLine
 10
3050.649587985484
 20
457.9421976859976
 30
0.0
 11
3052.720505045027
 21
451.8773691544581
 31
0.0
  0
LINE
  5
BAE
330
1F
100
AcDbEntity
  8
ceco.net 109
100
AcDbLine
 10
1790.018229410731
 20
283.0219907640645
 30
0.0
 11
870.1639749471008
 21
283.0219907640131
 31
0.0
  0
ARC
  5
BAF
330
1F
100
AcDbEntity
  8
ceco.net 109
100
AcDbCircle
 10
3062.545038011637
 20
516.4596823516426
 30
0.0
 40
69.67722052419929
100
AcDbArc
 50
315.9280348743802
 51
44.07196512561905
  0
LINE
  5
BB0
330
1F
100
AcDbEntity
  8
ceco.net 109
100
AcDbLine
 10
3112.60580227572
 20
564.9244627728267
 30
0.0
 11
3083.684499152901
 21
564.9244627728267
 31
0.0
  0
LINE
  5
BB1
330
1F
100
AcDbEntity
  8
ceco.net 109
100
AcDbLine
 10
3112.60580227572
 20
467.9949019304573
 30
0.0
 11
3103.888924622084
 21
467.9949019304573
 31
0.0
  0
LINE
  5
BB2
330
1F
100
AcDbEntity
  8
ceco.net 109
100
AcDbLine
 10
3112.60580227572
 20
467.9949019304573
 30
0.0
 11
3112.60580227572
 21
564.9244627728267
 31
0.0
  0
LINE
  5
BB3
330
1F
100
AcDbEntity
  8
ceco.net 109
100
AcDbLine
 10
3103.888924622084
 20
450.5420458219234
 30
0.0
 11
3103.888924622083
 21
564.9244627728267
 31
0.0
  0
LINE
  5
BB4
330
1F
100
AcDbEntity
  8
ceco.net 109
100
AcDbLine
 10
3083.684499152901
 20
451.9914428289484
 30
0.0
 11
3083.684499152901
 21
564.9244627728267
 31
0.0
  0
ARC
  5
BB5
330
1F
100
AcDbEntity
  8
ceco.net 109
100
AcDbCircle
 10
806.6315586714024
 20
965.9988703253846
 30
0.0
 40
5.573678896965271
100
AcDbArc
 50
186.9407235031595
 51
204.9096953087913
  0
LINE
  5
BB6
330
1F
100
AcDbEntity
  8
ceco.net 109
100
AcDbLine
 10
800.6255044640674
 20
969.2126520476255
 30
0.0
 11
801.0987253498244
 21
965.3253334799689
 31
0.0
  0
ARC
  5
BB7
330
1F
100
AcDbEntity
  8
ceco.net 109
100
AcDbCircle
 10
801.6945346960131
 20
1113.350014962813
 30
0.0
 40
37.05044248179442
100
AcDbArc
 50
15.13627805305442
 51
74.88834436818788
  0
ARC
  5
BB8
330
1F
100
AcDbEntity
  8
ceco.net 109
100
AcDbCircle
 10
522.3437687366421
 20
1017.934887811183
 30
0.0
 40
332.1773775088704
100
AcDbArc
 50
355.553667657191
 51
18.44328924018427
  0
ARC
  5
BB9
330
1F
100
AcDbEntity
  8
ceco.net 109
100
AcDbCircle
 10
837.652625149983
 20
992.5370782629636
 30
0.0
 40
15.87275124162351
100
AcDbArc
 50
283.7973009930422
 51
358.720864058444
  0
ARC
  5
BBA
330
1F
100
AcDbEntity
  8
ceco.net 109
100
AcDbCircle
 10
689.1618527438821
 20
1653.593933872109
 30
0.0
 40
693.3987918698168
100
AcDbArc
 50
278.0233563606516
 51
282.6860359700054
  0
ARC
  5
BBB
330
1F
100
AcDbEntity
  8
ceco.net 109
100
AcDbCircle
 10
847.969898841414
 20
946.1384214196909
 30
0.0
 40
25.45096615273286
100
AcDbArc
 50
50.67040627495959
 51
113.0762653343784
  0
ARC
  5
BBC
330
1F
100
AcDbEntity
  8
ceco.net 109
100
AcDbCircle
 10
820.1455201490299
 20
904.1354187051689
 30
0.0
 40
75.74714219379514
100
AcDbArc
 50
35.152099498184
 51
54.52961947999614
  0
ARC
  5
BBD
330
1F
100
AcDbEntity
  8
ceco.net 109
100
AcDbCircle
 10
825.5368697358635
 20
908.4011264889449
 30
0.0
 40
68.88412355227001
100
AcDbArc
 50
26.20709458575667
 51
34.83295427305172
  0
ARC
  5
BBE
330
1F
100
AcDbEntity
  8
ceco.net 109
100
AcDbCircle
 10
1634.416973794212
 20
1085.830673343805
 30
0.0
 40
23.8987718007363
100
AcDbArc
 50
123.7016354626998
 51
156.4567555248539
  0
ARC
  5
BBF
330
1F
100
AcDbEntity
  8
ceco.net 109
100
AcDbCircle
 10
1647.192191461275
 20
940.8247010878236
 30
0.0
 40
17.65714070078999
100
AcDbArc
 50
0.9276307356035903
 51
50.70829953301236
  0
ARC
  5
BC0
330
1F
100
AcDbEntity
  8
ceco.net 109
100
AcDbCircle
 10
1472.565273419987
 20
766.7624211733246
 30
0.0
 40
264.1335641820392
100
AcDbArc
 50
45.29435884088349
 51
56.68521046246133
  0
LINE
  5
BC1
330
1F
100
AcDbEntity
  8
ceco.net 109
100
AcDbLine
 10
1648.318594713258
 20
1057.905811972123
 30
0.0
 11
1596.432364430076
 21
938.8215231333337
 31
0.0
  0
LINE
  5
BC2
330
1F
100
AcDbEntity
  8
ceco.net 109
100
AcDbLine
 10
1612.507563146915
 20
1095.376825378626
 30
0.0
 11
1545.296700055646
 21
941.1209122050443
 31
0.0
  0
ARC
  5
BC3
330
1F
100
AcDbEntity
  8
ceco.net 109
100
AcDbCircle
 10
798.5568722469281
 20
1103.33315517113
 30
0.0
 40
47.54074239174332
100
AcDbArc
 50
74.38486067849947
 51
122.1078449546274
  0
ARC
  5
BC4
330
1F
100
AcDbEntity
  8
ceco.net 109
100
AcDbCircle
 10
709.4567544345096
 20
1449.526903327737
 30
0.0
 40
488.5686141143203
100
AcDbArc
 50
277.4791408598271
 51
279.0069449167776
  0
ARC
  5
BC5
330
1F
100
AcDbEntity
  8
ceco.net 109
100
AcDbCircle
 10
1104.278833891301
 20
208.1814493040253
 30
0.0
 40
806.5940577719088
100
AcDbArc
 50
109.2769445029053
 51
113.7613737851568
  0
LINE
  5
BC6
330
1F
100
AcDbEntity
  8
ceco.net 109
100
AcDbLine
 10
801.5763837627977
 20
963.6512964522212
 30
0.0
 11
804.6399709196791
 21
957.054286192924
 31
0.0
  0
LWPOLYLINE
  5
BC7
330
1F
100
AcDbEntity
  8
ceco.net 109
100
AcDbPolyline
 90
       16
 70
     0
 43
0.0
 10
-792.2925000458749
 20
312.2100293565827
 10
-784.6755379321697
 20
311.624109193985
 10
-775.1396872859145
 20
310.9429770049749
 10
-764.9227044504771
 20
310.2618448159075
 10
-753.3434572372492
 20
310.2618448159075
 10
-728.8226984324289
 20
310.2618448159075
 10
-715.881186841296
 20
310.2618448159075
 10
-703.6208074388858
 20
310.2618448159075
 10
-692.7226924146106
 20
310.2618448159075
 10
-681.8245773902205
 20
310.9429770049749
 10
-672.2887267439654
 20
311.624109193985
 10
-662.752876097825
 20
312.305241382995
 10
-654.5792898294751
 20
313.6675057610724
 10
-647.0868357501924
 20
314.3486379500824
 10
-640.2755138602072
 20
315.7109023280451
 10
-607.0223352911089
 20
323.1004975660986
  0
ARC
  5
BC8
330
1F
100
AcDbEntity
  8
ceco.net 109
100
AcDbCircle
 10
-699.2570604160432
 20
379.9667908515289
 30
0.0
 40
115.0937520258983
100
AcDbArc
 50
143.5650456158363
 51
216.0654691873014
  0
LINE
  5
BC9
330
1F
100
AcDbEntity
  8
ceco.net 109
100
AcDbLine
 10
-579.5364529180431
 20
380.4184602848587
 30
0.0
 11
-636.8698529149846
 21
381.0995924739261
 31
0.0
  0
LINE
  5
BCA
330
1F
100
AcDbEntity
  8
ceco.net 109
100
AcDbLine
 10
-636.8698529149846
 20
381.0995924739261
 30
0.0
 11
-638.9132494820723
 21
381.0995924739261
 31
0.0
  0
LINE
  5
BCB
330
1F
100
AcDbEntity
  8
ceco.net 109
100
AcDbLine
 10
-638.9132494820723
 20
381.0995924739261
 30
0.0
 11
-641.6377782381123
 21
381.0995924739261
 31
0.0
  0
LINE
  5
BCC
330
1F
100
AcDbEntity
  8
ceco.net 109
100
AcDbLine
 10
-641.6377782381123
 20
381.0995924739261
 30
0.0
 11
-643.6811748051998
 21
381.7807246629362
 31
0.0
  0
LINE
  5
BCD
330
1F
100
AcDbEntity
  8
ceco.net 109
100
AcDbLine
 10
-643.6811748051998
 20
381.7807246629362
 30
0.0
 11
-645.7245713722873
 21
382.4618568519462
 31
0.0
  0
LINE
  5
BCE
330
1F
100
AcDbEntity
  8
ceco.net 109
100
AcDbLine
 10
-645.7245713722873
 20
382.4618568519462
 30
0.0
 11
-647.76796793926
 21
383.1429890409562
 31
0.0
  0
LINE
  5
BCF
330
1F
100
AcDbEntity
  8
ceco.net 109
100
AcDbLine
 10
-647.76796793926
 20
383.1429890409562
 30
0.0
 11
-649.8113645063474
 21
384.5052534189763
 31
0.0
  0
LINE
  5
BD0
330
1F
100
AcDbEntity
  8
ceco.net 109
100
AcDbLine
 10
-649.8113645063474
 20
384.5052534189763
 30
0.0
 11
-651.1736288844823
 21
385.8675177970537
 31
0.0
  0
LINE
  5
BD1
330
1F
100
AcDbEntity
  8
ceco.net 109
100
AcDbLine
 10
-651.1736288844823
 20
385.8675177970537
 30
0.0
 11
-652.5358932623874
 21
387.2297821751312
 31
0.0
  0
LINE
  5
BD2
330
1F
100
AcDbEntity
  8
ceco.net 109
100
AcDbLine
 10
-652.5358932623874
 20
387.2297821751312
 30
0.0
 11
-653.8981576404076
 21
388.5920465530939
 31
0.0
  0
LINE
  5
BD3
330
1F
100
AcDbEntity
  8
ceco.net 109
100
AcDbLine
 10
-653.8981576404076
 20
388.5920465530939
 30
0.0
 11
-655.2604220185425
 21
390.6354431201813
 31
0.0
  0
LINE
  5
BD4
330
1F
100
AcDbEntity
  8
ceco.net 109
100
AcDbLine
 10
-655.2604220185425
 20
390.6354431201813
 30
0.0
 11
-655.9415542076099
 21
392.6788396872688
 31
0.0
  0
LINE
  5
BD5
330
1F
100
AcDbEntity
  8
ceco.net 109
100
AcDbLine
 10
-655.9415542076099
 20
392.6788396872688
 30
0.0
 11
-656.6226863965625
 21
395.4033684433089
 31
0.0
  0
LINE
  5
BD6
330
1F
100
AcDbEntity
  8
ceco.net 109
100
AcDbLine
 10
-656.6226863965625
 20
395.4033684433089
 30
0.0
 11
-657.3038185856299
 21
397.446765010339
 31
0.0
  0
LINE
  5
BD7
330
1F
100
AcDbEntity
  8
ceco.net 109
100
AcDbLine
 10
-657.3038185856299
 20
397.446765010339
 30
0.0
 11
-657.9849507746975
 21
400.1712937664366
 31
0.0
  0
LINE
  5
BD8
330
1F
100
AcDbEntity
  8
ceco.net 109
100
AcDbLine
 10
-657.9849507746975
 20
400.1712937664366
 30
0.0
 11
-658.6660829635351
 21
406.3014834675842
 31
0.0
  0
LINE
  5
BD9
330
1F
100
AcDbEntity
  8
ceco.net 109
100
AcDbLine
 10
-658.6660829635351
 20
406.3014834675842
 30
0.0
 11
-658.6660829635351
 21
409.0260122236817
 31
0.0
  0
LINE
  5
BDA
330
1F
100
AcDbEntity
  8
ceco.net 109
100
AcDbLine
 10
-658.6660829635351
 20
409.0260122236817
 30
0.0
 11
-658.6660829635351
 21
412.4316731687892
 31
0.0
  0
LINE
  5
BDB
330
1F
100
AcDbEntity
  8
ceco.net 109
100
AcDbLine
 10
-658.6660829635351
 20
412.4316731687892
 30
0.0
 11
-658.6660829635351
 21
415.1562019248293
 31
0.0
  0
LINE
  5
BDC
330
1F
100
AcDbEntity
  8
ceco.net 109
100
AcDbLine
 10
-658.6660829635351
 20
415.1562019248293
 30
0.0
 11
-658.6660829635351
 21
417.8807306809268
 31
0.0
  0
LINE
  5
BDD
330
1F
100
AcDbEntity
  8
ceco.net 109
100
AcDbLine
 10
-658.6660829635351
 20
417.8807306809268
 30
0.0
 11
-659.3472151526026
 21
420.6052594370244
 31
0.0
  0
LINE
  5
BDE
330
1F
100
AcDbEntity
  8
ceco.net 109
100
AcDbLine
 10
-659.3472151526026
 20
420.6052594370244
 30
0.0
 11
-659.3472151526026
 21
423.3297881931219
 31
0.0
  0
LINE
  5
BDF
330
1F
100
AcDbEntity
  8
ceco.net 109
100
AcDbLine
 10
-659.3472151526026
 20
423.3297881931219
 30
0.0
 11
-660.02834734167
 21
426.054316949162
 31
0.0
  0
LINE
  5
BE0
330
1F
100
AcDbEntity
  8
ceco.net 109
100
AcDbLine
 10
-660.02834734167
 20
426.054316949162
 30
0.0
 11
-660.7094795306227
 21
428.097713516192
 31
0.0
  0
LINE
  5
BE1
330
1F
100
AcDbEntity
  8
ceco.net 109
100
AcDbLine
 10
-660.7094795306227
 20
428.097713516192
 30
0.0
 11
-660.7094795306227
 21
430.1411100832795
 31
0.0
  0
LINE
  5
BE2
330
1F
100
AcDbEntity
  8
ceco.net 109
100
AcDbLine
 10
-660.7094795306227
 20
430.1411100832795
 30
0.0
 11
-661.3906117196901
 21
432.184506650367
 31
0.0
  0
LINE
  5
BE3
330
1F
100
AcDbEntity
  8
ceco.net 109
100
AcDbLine
 10
-661.3906117196901
 20
432.184506650367
 30
0.0
 11
-662.0717439087576
 21
434.2279032173971
 31
0.0
  0
LINE
  5
BE4
330
1F
100
AcDbEntity
  8
ceco.net 109
100
AcDbLine
 10
-662.0717439087576
 20
434.2279032173971
 30
0.0
 11
-663.4340082867776
 21
436.2712997844272
 31
0.0
  0
LINE
  5
BE5
330
1F
100
AcDbEntity
  8
ceco.net 109
100
AcDbLine
 10
-663.4340082867776
 20
436.2712997844272
 30
0.0
 11
-664.1151404758451
 21
437.6335641625046
 31
0.0
  0
LINE
  5
BE6
330
1F
100
AcDbEntity
  8
ceco.net 109
100
AcDbLine
 10
-664.1151404758451
 20
437.6335641625046
 30
0.0
 11
-664.7962726646828
 21
438.9958285405247
 31
0.0
  0
LINE
  5
BE7
330
1F
100
AcDbEntity
  8
ceco.net 109
100
AcDbLine
 10
-664.7962726646828
 20
438.9958285405247
 30
0.0
 11
-667.5208014208378
 21
441.7203572965648
 31
0.0
  0
LINE
  5
BE8
330
1F
100
AcDbEntity
  8
ceco.net 109
100
AcDbLine
 10
-667.5208014208378
 20
441.7203572965648
 30
0.0
 11
-668.2019336099052
 21
442.4014894856322
 31
0.0
  0
LINE
  5
BE9
330
1F
100
AcDbEntity
  8
ceco.net 109
100
AcDbLine
 10
-668.2019336099052
 20
442.4014894856322
 30
0.0
 11
-670.2453301769927
 21
443.7637538636523
 31
0.0
  0
LINE
  5
BEA
330
1F
100
AcDbEntity
  8
ceco.net 109
100
AcDbLine
 10
-670.2453301769927
 20
443.7637538636523
 30
0.0
 11
-672.2887267439654
 21
444.4448860526623
 31
0.0
  0
LINE
  5
BEB
330
1F
100
AcDbEntity
  8
ceco.net 109
100
AcDbLine
 10
-672.2887267439654
 20
444.4448860526623
 30
0.0
 11
-674.3321233110529
 21
445.1260182417298
 31
0.0
  0
LINE
  5
BEC
330
1F
100
AcDbEntity
  8
ceco.net 109
100
AcDbLine
 10
-674.3321233110529
 20
445.1260182417298
 30
0.0
 11
-677.056652067093
 21
446.4882826197498
 31
0.0
  0
LINE
  5
BED
330
1F
100
AcDbEntity
  8
ceco.net 109
100
AcDbLine
 10
-677.056652067093
 20
446.4882826197498
 30
0.0
 11
-680.4623130123153
 21
447.1694148087023
 31
0.0
  0
LINE
  5
BEE
330
1F
100
AcDbEntity
  8
ceco.net 109
100
AcDbLine
 10
-680.4623130123153
 20
447.1694148087023
 30
0.0
 11
-683.867973957308
 21
447.8505469977698
 31
0.0
  0
LINE
  5
BEF
330
1F
100
AcDbEntity
  8
ceco.net 109
100
AcDbLine
 10
-683.867973957308
 20
447.8505469977698
 30
0.0
 11
-687.9547670913681
 21
447.8505469977698
 31
0.0
  0
LINE
  5
BF0
330
1F
100
AcDbEntity
  8
ceco.net 109
100
AcDbLine
 10
-687.9547670913681
 20
447.8505469977698
 30
0.0
 11
-692.0415602255432
 21
448.5316791867798
 31
0.0
  0
LINE
  5
BF1
330
1F
100
AcDbEntity
  8
ceco.net 109
100
AcDbLine
 10
-692.0415602255432
 20
448.5316791867798
 30
0.0
 11
-696.8094855486707
 21
449.2128113757899
 31
0.0
  0
LINE
  5
BF2
330
1F
100
AcDbEntity
  8
ceco.net 109
100
AcDbLine
 10
-696.8094855486707
 20
449.2128113757899
 30
0.0
 11
-701.5774108717984
 21
449.2128113757899
 31
0.0
  0
LINE
  5
BF3
330
1F
100
AcDbEntity
  8
ceco.net 109
100
AcDbLine
 10
-701.5774108717984
 20
449.2128113757899
 30
0.0
 11
-707.0264683838785
 21
449.8939435647999
 31
0.0
  0
LINE
  5
BF4
330
1F
100
AcDbEntity
  8
ceco.net 109
100
AcDbLine
 10
-707.0264683838785
 20
449.8939435647999
 30
0.0
 11
-713.1566580851409
 21
449.8939435647999
 31
0.0
  0
LINE
  5
BF5
330
1F
100
AcDbEntity
  8
ceco.net 109
100
AcDbLine
 10
-713.1566580851409
 20
449.8939435647999
 30
0.0
 11
-719.2868477862887
 21
449.8939435647999
 31
0.0
  0
LINE
  5
BF6
330
1F
100
AcDbEntity
  8
ceco.net 109
100
AcDbLine
 10
-719.2868477862887
 20
449.8939435647999
 30
0.0
 11
-732.9094915667188
 21
450.5750757538674
 31
0.0
  0
LINE
  5
BF7
330
1F
100
AcDbEntity
  8
ceco.net 109
100
AcDbLine
 10
-732.9094915667188
 20
450.5750757538674
 30
0.0
 11
-739.7208134569339
 21
449.8939435647999
 31
0.0
  0
LINE
  5
BF8
330
1F
100
AcDbEntity
  8
ceco.net 109
100
AcDbLine
 10
-739.7208134569339
 20
449.8939435647999
 30
0.0
 11
-746.5321353470341
 21
449.8939435647999
 31
0.0
  0
LINE
  5
BF9
330
1F
100
AcDbEntity
  8
ceco.net 109
100
AcDbLine
 10
-746.5321353470341
 20
449.8939435647999
 30
0.0
 11
-752.6623250481817
 21
449.8939435647999
 31
0.0
  0
LINE
  5
BFA
330
1F
100
AcDbEntity
  8
ceco.net 109
100
AcDbLine
 10
-752.6623250481817
 20
449.8939435647999
 30
0.0
 11
-758.7925147493295
 21
449.8939435647999
 31
0.0
  0
LINE
  5
BFB
330
1F
100
AcDbEntity
  8
ceco.net 109
100
AcDbLine
 10
-758.7925147493295
 20
449.8939435647999
 30
0.0
 11
-764.2415722615244
 21
449.8939435647999
 31
0.0
  0
LINE
  5
BFC
330
1F
100
AcDbEntity
  8
ceco.net 109
100
AcDbLine
 10
-764.2415722615244
 20
449.8939435647999
 30
0.0
 11
-769.6906297736046
 21
449.8939435647999
 31
0.0
  0
LINE
  5
BFD
330
1F
100
AcDbEntity
  8
ceco.net 109
100
AcDbLine
 10
-769.6906297736046
 20
449.8939435647999
 30
0.0
 11
-774.4585550969619
 21
449.2128113757899
 31
0.0
  0
LINE
  5
BFE
330
1F
100
AcDbEntity
  8
ceco.net 109
100
AcDbLine
 10
-774.4585550969619
 20
449.2128113757899
 30
0.0
 11
-779.2264804199747
 21
449.2128113757899
 31
0.0
  0
LINE
  5
BFF
330
1F
100
AcDbEntity
  8
ceco.net 109
100
AcDbLine
 10
-779.2264804199747
 20
449.2128113757899
 30
0.0
 11
-783.3132735540348
 21
449.2128113757899
 31
0.0
  0
LINE
  5
C00
330
1F
100
AcDbEntity
  8
ceco.net 109
100
AcDbLine
 10
-783.3132735540348
 20
449.2128113757899
 30
0.0
 11
-787.400066688095
 21
448.5316791867798
 31
0.0
  0
LINE
  5
C01
330
1F
100
AcDbEntity
  8
ceco.net 109
100
AcDbLine
 10
-787.400066688095
 20
448.5316791867798
 30
0.0
 11
-790.8057276333173
 21
448.5316791867798
 31
0.0
  0
LINE
  5
C02
330
1F
100
AcDbEntity
  8
ceco.net 109
100
AcDbLine
 10
-790.8057276333173
 20
448.5316791867798
 30
0.0
 11
-791.8536233087946
 21
448.3221000516772
 31
0.0
  0
ARC
  5
C03
330
1F
100
AcDbEntity
  8
ceco.net 109
100
AcDbCircle
 10
367.8703742797559
 20
248.0666203320085
 30
0.0
 40
1039.611931753211
100
AcDbArc
 50
130.0935322812056
 51
170.9032350870249
  0
ARC
  5
C04
330
1F
100
AcDbEntity
  8
ceco.net 109
100
AcDbCircle
 10
-566.7605224794956
 20
712.1616038158264
 30
0.0
 40
213.1569342540896
100
AcDbArc
 50
285.008806655566
 51
342.3997218740843
  0
LWPOLYLINE
  5
C05
330
1F
100
AcDbEntity
  8
ceco.net 109
100
AcDbPolyline
 90
        8
 70
     1
 43
0.0
 10
1880.938292724717
 20
693.7221274078876
 10
1994.343673900507
 20
693.722127407888
 42
0.4142135623730951
 10
2005.120100140507
 20
704.4985536478881
 10
2005.120100140507
 20
776.3461322389844
 42
0.4142135623730951
 10
1994.343673900507
 20
787.1225584789838
 10
1880.938292724717
 20
787.1225584789838
 42
0.4142135623730951
 10
1870.161866484717
 20
776.3461322389837
 10
1870.161866484717
 20
704.4985536478874
 42
0.4142135623730951
  0
LINE
  5
C06
330
1F
100
AcDbEntity
  8
ceco.net 109
100
AcDbLine
 10
827.43412302771
 20
938.8215231333347
 30
0.0
 11
827.43412302771
 21
314.8135721766178
 31
0.0
  0
LINE
  5
C07
330
1F
100
AcDbEntity
  8
ceco.net 109
100
AcDbLine
 10
-250.117000000159
 20
943.5894484564613
 30
0.0
 11
-263.7396437805892
 21
929.2856724870786
 31
0.0
  0
LINE
  5
C08
330
1F
100
AcDbEntity
  8
ceco.net 109
100
AcDbLine
 10
-179.2783877677043
 20
1022.637587029173
 30
0.0
 11
-276.6811553717222
 21
914.9818965176958
 31
0.0
  0
LINE
  5
C09
330
1F
100
AcDbEntity
  8
ceco.net 109
100
AcDbLine
 10
-276.6811553717222
 20
914.9818965176958
 30
0.0
 11
-289.6226669631997
 21
899.9969883592454
 31
0.0
  0
LINE
  5
C0A
330
1F
100
AcDbEntity
  8
ceco.net 109
100
AcDbLine
 10
-289.6226669631997
 20
899.9969883592454
 30
0.0
 11
-303.24531074363
 21
885.0120802007953
 31
0.0
  0
LINE
  5
C0B
330
1F
100
AcDbEntity
  8
ceco.net 109
100
AcDbLine
 10
-303.24531074363
 20
885.0120802007953
 30
0.0
 11
-316.1868223349927
 21
869.3460398533925
 31
0.0
  0
LINE
  5
C0C
330
1F
100
AcDbEntity
  8
ceco.net 109
100
AcDbLine
 10
-316.1868223349927
 20
869.3460398533925
 30
0.0
 11
-328.4472017374028
 21
853.6799995059897
 31
0.0
  0
LINE
  5
C0D
330
1F
100
AcDbEntity
  8
ceco.net 109
100
AcDbLine
 10
-328.4472017374028
 20
853.6799995059897
 30
0.0
 11
-341.3887133285358
 21
837.3328269695194
 31
0.0
  0
LINE
  5
C0E
330
1F
100
AcDbEntity
  8
ceco.net 109
100
AcDbLine
 10
-341.3887133285358
 20
837.3328269695194
 30
0.0
 11
-354.3302249200134
 21
820.9856544330492
 31
0.0
  0
LINE
  5
C0F
330
1F
100
AcDbEntity
  8
ceco.net 109
100
AcDbLine
 10
-354.3302249200134
 20
820.9856544330492
 30
0.0
 11
-366.5906043223086
 21
803.2762175185588
 31
0.0
  0
LINE
  5
C10
330
1F
100
AcDbEntity
  8
ceco.net 109
100
AcDbLine
 10
-366.5906043223086
 20
803.2762175185588
 30
0.0
 11
-379.5321159137863
 21
786.2479127930785
 31
0.0
  0
LINE
  5
C11
330
1F
100
AcDbEntity
  8
ceco.net 109
100
AcDbLine
 10
-379.5321159137863
 20
786.2479127930785
 30
0.0
 11
-391.7924953160815
 21
768.5384758785882
 31
0.0
  0
LINE
  5
C12
330
1F
100
AcDbEntity
  8
ceco.net 109
100
AcDbLine
 10
-391.7924953160815
 20
768.5384758785882
 30
0.0
 11
-404.0528747184916
 21
750.1479067750879
 31
0.0
  0
LINE
  5
C13
330
1F
100
AcDbEntity
  8
ceco.net 109
100
AcDbLine
 10
-404.0528747184916
 20
750.1479067750879
 30
0.0
 11
-416.9943863096246
 21
731.7573376715876
 31
0.0
  0
LINE
  5
C14
330
1F
100
AcDbEntity
  8
ceco.net 109
100
AcDbLine
 10
-416.9943863096246
 20
731.7573376715876
 30
0.0
 11
-429.2547657120348
 21
712.6856363790771
 31
0.0
  0
LINE
  5
C15
330
1F
100
AcDbEntity
  8
ceco.net 109
100
AcDbLine
 10
-429.2547657120348
 20
712.6856363790771
 30
0.0
 11
-469.1530818808376
 21
647.7083786183678
 31
0.0
  0
LINE
  5
C16
330
1F
100
AcDbEntity
  8
ceco.net 109
100
AcDbLine
 10
1449.669237446285
 20
1334.292312959878
 30
0.0
 11
1553.521036522042
 21
1194.246094015423
 31
0.0
  0
LINE
  5
C17
330
1F
100
AcDbEntity
  8
ceco.net 109
100
AcDbLine
 10
1553.521036522042
 20
1194.246094015423
 30
0.0
 11
1561.694622790162
 21
1185.391375558178
 31
0.0
  0
LINE
  5
C18
330
1F
100
AcDbEntity
  8
ceco.net 109
100
AcDbLine
 10
1561.694622790162
 20
1185.391375558178
 30
0.0
 11
1569.868209058397
 21
1175.855524911922
 31
0.0
  0
LINE
  5
C19
330
1F
100
AcDbEntity
  8
ceco.net 109
100
AcDbLine
 10
1569.868209058397
 20
1175.855524911922
 30
0.0
 11
1577.36066313768
 21
1166.31967426561
 31
0.0
  0
LINE
  5
C1A
330
1F
100
AcDbEntity
  8
ceco.net 109
100
AcDbLine
 10
1577.36066313768
 20
1166.31967426561
 30
0.0
 11
1584.853117216733
 21
1156.783823619412
 31
0.0
  0
LINE
  5
C1B
330
1F
100
AcDbEntity
  8
ceco.net 109
100
AcDbLine
 10
1584.853117216733
 20
1156.783823619412
 30
0.0
 11
1592.345571296015
 21
1146.56684078409
 31
0.0
  0
LINE
  5
C1C
330
1F
100
AcDbEntity
  8
ceco.net 109
100
AcDbLine
 10
1592.345571296015
 20
1146.56684078409
 30
0.0
 11
1599.838025375298
 21
1136.349857948824
 31
0.0
  0
LINE
  5
C1D
330
1F
100
AcDbEntity
  8
ceco.net 109
100
AcDbLine
 10
1599.838025375298
 20
1136.349857948824
 30
0.0
 11
1607.330479454351
 21
1126.132875113559
 31
0.0
  0
LINE
  5
C1E
330
1F
100
AcDbEntity
  8
ceco.net 109
100
AcDbLine
 10
1607.330479454351
 20
1126.132875113559
 30
0.0
 11
1614.141801344566
 21
1115.915892278237
 31
0.0
  0
LINE
  5
C1F
330
1F
100
AcDbEntity
  8
ceco.net 109
100
AcDbLine
 10
1614.141801344566
 20
1115.915892278237
 30
0.0
 11
1621.634255423848
 21
1105.017777253904
 31
0.0
  0
LINE
  5
C20
330
1F
100
AcDbEntity
  8
ceco.net 109
100
AcDbLine
 10
1621.634255423848
 20
1105.017777253904
 30
0.0
 11
1628.445577314064
 21
1093.438530040619
 31
0.0
  0
LINE
  5
C21
330
1F
100
AcDbEntity
  8
ceco.net 109
100
AcDbLine
 10
1628.445577314064
 20
1093.438530040619
 30
0.0
 11
1634.575767015211
 21
1082.540415016343
 31
0.0
  0
LINE
  5
C22
330
1F
100
AcDbEntity
  8
ceco.net 109
100
AcDbLine
 10
1634.575767015211
 20
1082.540415016343
 30
0.0
 11
1641.387088905426
 21
1070.961167803001
 31
0.0
  0
LINE
  5
C23
330
1F
100
AcDbEntity
  8
ceco.net 109
100
AcDbLine
 10
1641.387088905426
 20
1070.961167803001
 30
0.0
 11
1647.517278606574
 21
1059.381920589715
 31
0.0
  0
LINE
  5
C24
330
1F
100
AcDbEntity
  8
ceco.net 109
100
AcDbLine
 10
1647.517278606574
 20
1059.381920589715
 30
0.0
 11
1660.458790197822
 21
1035.54229397402
 31
0.0
  0
LINE
  5
C25
330
1F
100
AcDbEntity
  8
ceco.net 109
100
AcDbLine
 10
1660.458790197822
 20
1035.54229397402
 30
0.0
 11
1665.907847710017
 21
1023.281914571667
 31
0.0
  0
LINE
  5
C26
330
1F
100
AcDbEntity
  8
ceco.net 109
100
AcDbLine
 10
1665.907847710017
 20
1023.281914571667
 30
0.0
 11
1670.675773033259
 21
1012.383799547392
 31
0.0
  0
LINE
  5
C27
330
1F
100
AcDbEntity
  8
ceco.net 109
100
AcDbLine
 10
1670.675773033259
 20
1012.383799547392
 30
0.0
 11
1674.762566167319
 21
1002.166816712069
 31
0.0
  0
LINE
  5
C28
330
1F
100
AcDbEntity
  8
ceco.net 109
100
AcDbLine
 10
1674.762566167319
 20
1002.166816712069
 30
0.0
 11
1677.487094923474
 21
992.6309660658722
 31
0.0
  0
LINE
  5
C29
330
1F
100
AcDbEntity
  8
ceco.net 109
100
AcDbLine
 10
1677.487094923474
 20
992.6309660658722
 30
0.0
 11
1679.530491490447
 21
983.7762476086268
 31
0.0
  0
LINE
  5
C2A
330
1F
100
AcDbEntity
  8
ceco.net 109
100
AcDbLine
 10
1679.530491490447
 20
983.7762476086268
 30
0.0
 11
1680.892755868467
 21
976.2837935294017
 31
0.0
  0
LINE
  5
C2B
330
1F
100
AcDbEntity
  8
ceco.net 109
100
AcDbLine
 10
1680.892755868467
 20
976.2837935294017
 30
0.0
 11
1681.573888057535
 21
968.7913394501768
 31
0.0
  0
LINE
  5
C2C
330
1F
100
AcDbEntity
  8
ceco.net 109
100
AcDbLine
 10
1681.573888057535
 20
968.7913394501768
 30
0.0
 11
1681.573888057535
 21
962.6611497489717
 31
0.0
  0
LINE
  5
C2D
330
1F
100
AcDbEntity
  8
ceco.net 109
100
AcDbLine
 10
1681.573888057535
 20
962.6611497489717
 30
0.0
 11
1680.211623679514
 21
957.2120922368341
 31
0.0
  0
LINE
  5
C2E
330
1F
100
AcDbEntity
  8
ceco.net 109
100
AcDbLine
 10
1680.211623679514
 20
957.2120922368341
 30
0.0
 11
1678.168227112312
 21
951.7630347246964
 31
0.0
  0
LINE
  5
C2F
330
1F
100
AcDbEntity
  8
ceco.net 109
100
AcDbLine
 10
1678.168227112312
 20
951.7630347246964
 30
0.0
 11
1674.762566167319
 21
947.6762415905788
 31
0.0
  0
LINE
  5
C30
330
1F
100
AcDbEntity
  8
ceco.net 109
100
AcDbLine
 10
1674.762566167319
 20
947.6762415905788
 30
0.0
 11
1671.356905222327
 21
944.2705806454712
 31
0.0
  0
LINE
  5
C31
330
1F
100
AcDbEntity
  8
ceco.net 109
100
AcDbLine
 10
1671.356905222327
 20
944.2705806454712
 30
0.0
 11
1666.588979898969
 21
941.5460518894313
 31
0.0
  0
LINE
  5
C32
330
1F
100
AcDbEntity
  8
ceco.net 109
100
AcDbLine
 10
1666.588979898969
 20
941.5460518894313
 30
0.0
 11
1661.139922386889
 21
940.1837875114111
 31
0.0
  0
LINE
  5
C33
330
1F
100
AcDbEntity
  8
ceco.net 109
100
AcDbLine
 10
1661.139922386889
 20
940.1837875114111
 30
0.0
 11
1647.517278606574
 21
938.8215231333337
 31
0.0
  0
LINE
  5
C34
330
1F
100
AcDbEntity
  8
ceco.net 109
100
AcDbLine
 10
1647.517278606574
 20
938.8215231333337
 30
0.0
 11
1638.662560149271
 21
938.8215231333337
 31
0.0
  0
LINE
  5
C35
330
1F
100
AcDbEntity
  8
ceco.net 109
100
AcDbLine
 10
1638.662560149271
 20
938.8215231333337
 30
0.0
 11
1629.807841692083
 21
938.8215231333337
 31
0.0
  0
LINE
  5
C36
330
1F
100
AcDbEntity
  8
ceco.net 109
100
AcDbLine
 10
1629.807841692083
 20
938.8215231333337
 30
0.0
 11
1619.590858856646
 21
938.8215231333337
 31
0.0
  0
LINE
  5
C37
330
1F
100
AcDbEntity
  8
ceco.net 109
100
AcDbLine
 10
1619.590858856646
 20
938.8215231333337
 30
0.0
 11
1608.692743832371
 21
938.8215231333337
 31
0.0
  0
LINE
  5
C38
330
1F
100
AcDbEntity
  8
ceco.net 109
100
AcDbLine
 10
1608.692743832371
 20
938.8215231333337
 30
0.0
 11
1596.432364430076
 21
938.8215231333337
 31
0.0
  0
LINE
  5
C39
330
1F
100
AcDbEntity
  8
ceco.net 109
100
AcDbLine
 10
1596.432364430076
 20
938.8215231333337
 30
0.0
 11
1583.490852838828
 21
938.8215231333337
 31
0.0
  0
LINE
  5
C3A
330
1F
100
AcDbEntity
  8
ceco.net 109
100
AcDbLine
 10
1583.490852838828
 20
938.8215231333337
 30
0.0
 11
1569.868209058397
 21
938.8215231333337
 31
0.0
  0
LINE
  5
C3B
330
1F
100
AcDbEntity
  8
ceco.net 109
100
AcDbLine
 10
1569.868209058397
 20
938.8215231333337
 30
0.0
 11
1555.5644330889
 21
938.8215231333337
 31
0.0
  0
LINE
  5
C3C
330
1F
100
AcDbEntity
  8
ceco.net 109
100
AcDbLine
 10
1555.5644330889
 20
938.8215231333337
 30
0.0
 11
1539.898392741497
 21
938.8215231333337
 31
0.0
  0
LINE
  5
C3D
330
1F
100
AcDbEntity
  8
ceco.net 109
100
AcDbLine
 10
1539.898392741497
 20
938.8215231333337
 30
0.0
 11
1522.870088016074
 21
938.8215231333337
 31
0.0
  0
LINE
  5
C3E
330
1F
100
AcDbEntity
  8
ceco.net 109
100
AcDbLine
 10
1522.870088016074
 20
938.8215231333337
 30
0.0
 11
1505.160651101584
 21
938.8215231333337
 31
0.0
  0
LINE
  5
C3F
330
1F
100
AcDbEntity
  8
ceco.net 109
100
AcDbLine
 10
1505.160651101584
 20
938.8215231333337
 30
0.0
 11
1497.613188449025
 21
938.8215231333337
 31
0.0
  0
LINE
  5
C40
330
1F
100
AcDbEntity
  8
ceco.net 109
100
AcDbLine
 10
1404.353087126722
 20
938.8215231333337
 30
0.0
 11
1381.875724889104
 21
938.8215231333337
 31
0.0
  0
LINE
  5
C41
330
1F
100
AcDbEntity
  8
ceco.net 109
100
AcDbLine
 10
1381.875724889104
 20
938.8215231333337
 30
0.0
 11
1360.079494840554
 21
938.8215231333337
 31
0.0
  0
LINE
  5
C42
330
1F
100
AcDbEntity
  8
ceco.net 109
100
AcDbLine
 10
1360.079494840554
 20
938.8215231333337
 30
0.0
 11
1338.283264792003
 21
938.8215231333337
 31
0.0
  0
LINE
  5
C43
330
1F
100
AcDbEntity
  8
ceco.net 109
100
AcDbLine
 10
1338.283264792003
 20
938.8215231333337
 30
0.0
 11
1317.849299121358
 21
938.8215231333337
 31
0.0
  0
LINE
  5
C44
330
1F
100
AcDbEntity
  8
ceco.net 109
100
AcDbLine
 10
1317.849299121358
 20
938.8215231333337
 30
0.0
 11
1296.734201261875
 21
938.8215231333337
 31
0.0
  0
LINE
  5
C45
330
1F
100
AcDbEntity
  8
ceco.net 109
100
AcDbLine
 10
1296.734201261875
 20
938.8215231333337
 30
0.0
 11
1276.981367780182
 21
938.8215231333337
 31
0.0
  0
LINE
  5
C46
330
1F
100
AcDbEntity
  8
ceco.net 109
100
AcDbLine
 10
1276.981367780182
 20
938.8215231333337
 30
0.0
 11
1257.228534298834
 21
938.8215231333337
 31
0.0
  0
LINE
  5
C47
330
1F
100
AcDbEntity
  8
ceco.net 109
100
AcDbLine
 10
1257.228534298834
 20
938.8215231333337
 30
0.0
 11
1238.156833006209
 21
938.8215231333337
 31
0.0
  0
LINE
  5
C48
330
1F
100
AcDbEntity
  8
ceco.net 109
100
AcDbLine
 10
1238.156833006209
 20
938.8215231333337
 30
0.0
 11
1219.085131713699
 21
938.8215231333337
 31
0.0
  0
LINE
  5
C49
330
1F
100
AcDbEntity
  8
ceco.net 109
100
AcDbLine
 10
1219.085131713699
 20
938.8215231333337
 30
0.0
 11
1200.694562610141
 21
938.8215231333337
 31
0.0
  0
LINE
  5
C4A
330
1F
100
AcDbEntity
  8
ceco.net 109
100
AcDbLine
 10
1200.694562610141
 20
938.8215231333337
 30
0.0
 11
1182.985125695651
 21
938.8215231333337
 31
0.0
  0
LINE
  5
C4B
330
1F
100
AcDbEntity
  8
ceco.net 109
100
AcDbLine
 10
1182.985125695651
 20
938.8215231333337
 30
0.0
 11
1165.27568878116
 21
938.8215231333337
 31
0.0
  0
LINE
  5
C4C
330
1F
100
AcDbEntity
  8
ceco.net 109
100
AcDbLine
 10
1165.27568878116
 20
938.8215231333337
 30
0.0
 11
1148.92851624469
 21
938.8215231333337
 31
0.0
  0
LINE
  5
C4D
330
1F
100
AcDbEntity
  8
ceco.net 109
100
AcDbLine
 10
1148.92851624469
 20
938.8215231333337
 30
0.0
 11
827.4341230277101
 21
938.8215231333344
 31
0.0
  0
LINE
  5
C4E
330
1F
100
AcDbEntity
  8
ceco.net 109
100
AcDbLine
 10
-143.4082902383092
 20
1017.004391333603
 30
0.0
 11
-212.654729603976
 21
938.1403909443237
 31
0.0
  0
LINE
  5
C4F
330
1F
100
AcDbEntity
  8
ceco.net 109
100
AcDbLine
 10
-212.654729603976
 20
938.1403909443237
 30
0.0
 11
-237.8566205977489
 21
906.1271780604506
 31
0.0
  0
LINE
  5
C50
330
1F
100
AcDbEntity
  8
ceco.net 109
100
AcDbLine
 10
-237.8566205977489
 20
906.1271780604506
 30
0.0
 11
-265.7830403474469
 21
870.7083042314124
 31
0.0
  0
LINE
  5
C51
330
1F
100
AcDbEntity
  8
ceco.net 109
100
AcDbLine
 10
-265.7830403474469
 20
870.7083042314124
 30
0.0
 11
-295.07172447528
 21
831.2026372683144
 31
0.0
  0
LINE
  5
C52
330
1F
100
AcDbEntity
  8
ceco.net 109
100
AcDbLine
 10
-295.07172447528
 20
831.2026372683144
 30
0.0
 11
-325.7226729812478
 21
788.291309360166
 31
0.0
  0
LINE
  5
C53
330
1F
100
AcDbEntity
  8
ceco.net 109
100
AcDbLine
 10
-325.7226729812478
 20
788.291309360166
 30
0.0
 11
-359.0981502430261
 21
740.6120561288327
 31
0.0
  0
LINE
  5
C54
330
1F
100
AcDbEntity
  8
ceco.net 109
100
AcDbLine
 10
-359.0981502430261
 20
740.6120561288327
 30
0.0
 11
-393.8358918830541
 21
690.2082741414593
 31
0.0
  0
LINE
  5
C55
330
1F
100
AcDbEntity
  8
ceco.net 109
100
AcDbLine
 10
-393.8358918830541
 20
690.2082741414593
 30
0.0
 11
-421.6444654969451
 21
647.7083786183674
 31
0.0
  0
ARC
  5
C56
330
1F
100
AcDbEntity
  8
ceco.net 109
100
AcDbCircle
 10
878.7264729526329
 20
7642.599179111977
 30
0.0
 40
6703.973878675196
100
AcDbArc
 50
259.8587537023413
 51
269.5616236133403
  0
ARC
  5
C57
330
1F
100
AcDbEntity
  8
ceco.net 109
100
AcDbCircle
 10
839.5417211559713
 20
1054.270606679539
 30
0.0
 40
111.2191817532822
100
AcDbArc
 50
126.5626645755216
 51
233.2852608657924
  0
ARC
  5
C58
330
1F
100
AcDbEntity
  8
ceco.net 109
100
AcDbCircle
 10
785.1826439586059
 20
941.0545253831333
 30
0.0
 40
7.965141780534803
100
AcDbArc
 50
137.8303550915472
 51
192.0535947939576
  0
LINE
  5
C59
330
1F
100
AcDbEntity
  8
ceco.net 109
100
AcDbLine
 10
817.9615511895729
 20
968.1318037841831
 30
0.0
 11
820.2859666802192
 21
963.1264972420735
 31
0.0
  0
LINE
  5
C5A
330
1F
100
AcDbEntity
  8
ceco.net 109
100
AcDbLine
 10
817.2022527630186
 20
972.1193998435353
 30
0.0
 11
817.4838927765996
 21
969.8058408119308
 31
0.0
  0
ARC
  5
C5B
330
1F
100
AcDbEntity
  8
ceco.net 109
100
AcDbCircle
 10
823.0167260981774
 20
970.4793776573465
 30
0.0
 40
5.573678896965271
100
AcDbArc
 50
186.9407235031595
 51
204.9096953087913
  0
ARC
  5
C5C
330
1F
100
AcDbEntity
  8
ceco.net 109
100
AcDbCircle
 10
1532.242370331171
 20
784.6133994321973
 30
0.0
 40
605.8764085431146
100
AcDbArc
 50
89.08271801997486
 51
101.8073921147781
  0
ARC
  5
C5D
330
1F
100
AcDbEntity
  8
ceco.net 109
100
AcDbCircle
 10
-1221.079939462787
 20
-736.414801325728
 30
0.0
 40
3429.8503687687
100
AcDbArc
 50
28.0383023016009
 51
38.26077744077169
  0
LINE
  5
C5E
330
1F
100
AcDbEntity
  8
ceco.net 109
100
AcDbLine
 10
1431.795426815429
 20
1333.904852643846
 30
0.0
 11
1431.795426815429
 21
1057.017462570451
 31
0.0
  0
LINE
  5
C5F
330
1F
100
AcDbEntity
  8
ceco.net 109
100
AcDbLine
 10
1408.266521609566
 20
1377.670067350922
 30
0.0
 11
1408.266521609567
 21
1056.603609088742
 31
0.0
  0
ARC
  5
C60
330
1F
100
AcDbEntity
  8
ceco.net 109
100
AcDbCircle
 10
-1220.646242866585
 20
-2821.804520449421
 30
0.0
 40
4169.011025875753
100
AcDbArc
 50
64.65831973809113
 51
77.92160892561866
  0
ARC
  5
C61
330
1F
100
AcDbEntity
  8
ceco.net 109
100
AcDbCircle
 10
958.1926065482972
 20
-82.05680837354263
 30
0.0
 40
896.1961046097549
100
AcDbArc
 50
82.9994850656597
 51
85.35648711768585
  0
ARC
  5
C62
330
1F
100
AcDbEntity
  8
ceco.net 109
100
AcDbCircle
 10
927.3885747519269
 20
815.0037530750603
 30
0.0
 40
2.932622955898887
100
AcDbArc
 50
130.1656642462691
 51
210.4127214211304
  0
ARC
  5
C63
330
1F
100
AcDbEntity
  8
ceco.net 109
100
AcDbCircle
 10
1027.074842384986
 20
810.6032931019203
 30
0.0
 40
3.719902603627607
100
AcDbArc
 50
276.7169806670129
 51
39.25531995142444
  0
ARC
  5
C64
330
1F
100
AcDbEntity
  8
ceco.net 109
100
AcDbCircle
 10
974.9589742192544
 20
747.68514809716
 30
0.0
 40
85.35239038044004
100
AcDbArc
 50
49.88347888436816
 51
125.4155729347696
  0
ARC
  5
C65
330
1F
100
AcDbEntity
  8
ceco.net 109
100
AcDbCircle
 10
913.4917799886673
 20
1628.09135115981
 30
0.0
 40
857.0350434819355
100
AcDbArc
 50
267.863621082033
 51
270.8189430908325
  0
ARC
  5
C66
330
1F
100
AcDbEntity
  8
ceco.net 109
100
AcDbCircle
 10
728.3034705440591
 20
763.5781998370636
 30
0.0
 40
183.8244393390955
100
AcDbArc
 50
2.329933608105045
 51
15.46256291955673
  0
ARC
  5
C67
330
1F
100
AcDbEntity
  8
ceco.net 109
100
AcDbCircle
 10
927.7794048018897
 20
773.2523872212035
 30
0.0
 40
2.932622955898887
100
AcDbArc
 50
103.39413113546
 51
230.9069836959822
  0
ARC
  5
C68
330
1F
100
AcDbEntity
  8
ceco.net 109
100
AcDbCircle
 10
1028.120610857203
 20
779.1921952761013
 30
0.0
 40
2.932622955898382
100
AcDbArc
 50
317.7047361130408
 51
90.62548083485125
  0
ARC
  5
C69
330
1F
100
AcDbEntity
  8
ceco.net 109
100
AcDbCircle
 10
974.0812541336095
 20
841.449720234412
 30
0.0
 40
85.35239038044004
100
AcDbArc
 50
235.6570750074818
 51
311.1891690578833
  0
LINE
  5
C6A
330
1F
100
AcDbEntity
  8
ceco.net 109
100
AcDbLine
 10
1028.088596928176
 20
782.1246434870249
 30
0.0
 11
927.1000677973217
 21
776.1052416927277
 31
0.0
  0
LINE
  5
C6B
330
1F
100
AcDbEntity
  8
ceco.net 109
100
AcDbLine
 10
1050.252562346982
 20
778.7217410215983
 30
0.0
 11
1030.289833124628
 21
777.2186826321341
 31
0.0
  0
ARC
  5
C6C
330
1F
100
AcDbEntity
  8
ceco.net 109
100
AcDbCircle
 10
1044.051445755045
 20
846.0878535601834
 30
0.0
 40
67.65091991649727
100
AcDbArc
 50
275.259311278928
 51
295.1036790243584
  0
ARC
  5
C6D
330
1F
100
AcDbEntity
  8
ceco.net 109
100
AcDbCircle
 10
958.1926065482972
 20
-82.05680837354263
 30
0.0
 40
896.1961046097549
100
AcDbArc
 50
92.13155162748726
 51
94.90636808249886
  0
ARC
  5
C6E
330
1F
100
AcDbEntity
  8
ceco.net 109
100
AcDbCircle
 10
1067.078504866215
 20
795.4338633164937
 30
0.0
 40
12.02917362661215
100
AcDbArc
 50
298.1457547914985
 51
88.37592451763596
  0
LINE
  5
C6F
330
1F
100
AcDbEntity
  8
ceco.net 109
100
AcDbLine
 10
1027.509941077647
 20
806.9089238041755
 30
0.0
 11
926.3505274768604
 21
808.208636818443
 31
0.0
  0
ARC
  5
C70
330
1F
100
AcDbEntity
  8
ceco.net 109
100
AcDbCircle
 10
926.8959816697353
 20
811.0900873429098
 30
0.0
 40
2.932622955898887
100
AcDbArc
 50
131.7679792423618
 51
259.2808318028839
  0
LINE
  5
C71
330
1F
100
AcDbEntity
  8
ceco.net 109
100
AcDbLine
 10
-363.58163484043
 20
647.7083786183678
 30
0.0
 11
-475.6606023651234
 21
647.7083786183678
 31
0.0
  0
LINE
  5
C72
330
1F
100
AcDbEntity
  8
ceco.net 109
100
AcDbLine
 10
-475.6606023651237
 20
647.7083786183678
 30
0.0
 11
-536.0802501161415
 21
506.3025831063411
 31
0.0
  0
ARC
  5
C73
330
1F
100
AcDbEntity
  8
ceco.net 109
100
AcDbCircle
 10
-475.3769271184719
 20
583.468354807066
 30
0.0
 40
64.24065014398755
100
AcDbArc
 50
90.25300875958784
 51
135.4888570613995
  0
SPLINE
  5
C74
330
1F
100
AcDbEntity
  8
ceco.net 109
100
AcDbSpline
210
0.0
220
0.0
230
1.0
 70
     8
 71
     3
 72
    12
 73
     8
 74
     0
 42
0.0000000001
 43
0.0000000001
 40
3.141592653589793
 40
3.141592653589793
 40
3.141592653589793
 40
3.141592653589793
 40
3.808154646779776
 40
3.808154646779776
 40
5.083312679284881
 40
5.083312679284881
 40
6.283185307179586
 40
6.283185307179586
 40
6.283185307179586
 40
6.283185307179586
 10
-734.7082218814988
 20
285.6613871583102
 30
0.0
 10
-735.1080591619425
 20
285.6613871583102
 30
0.0
 10
-736.7878127648634
 20
284.8752205817366
 30
0.0
 10
-741.9804672827514
 20
274.4683041146673
 30
0.0
 10
-743.7347925009766
 20
259.7863939375552
 30
0.0
 10
-740.3400188511128
 20
237.5491079174334
 30
0.0
 10
-735.4279656012391
 20
232.1164174178748
 30
0.0
 10
-734.7082218814988
 20
232.1164174178748
 30
0.0
  0
LINE
  5
C75
330
1F
100
AcDbEntity
  8
ceco.net 109
100
AcDbLine
 10
-722.613248698682
 20
285.6613871583108
 30
0.0
 11
-734.7082218814988
 21
285.6613871583108
 31
0.0
  0
SPLINE
  5
C76
330
1F
100
AcDbEntity
  8
ceco.net 109
100
AcDbSpline
210
0.0
220
0.0
230
1.0
 70
     8
 71
     3
 72
    12
 73
     8
 74
     0
 42
0.0000000001
 43
0.0000000001
 40
6.283185307179586
 40
6.283185307179586
 40
6.283185307179586
 40
6.283185307179586
 40
6.949747300369566
 40
6.949747300369566
 40
8.224905332874666
 40
8.224905332874666
 40
9.424777960769379
 40
9.424777960769379
 40
9.424777960769379
 40
9.424777960769379
 10
-722.6132486999423
 20
232.1164174178748
 30
0.0
 10
-722.2134114194989
 20
232.1164174178748
 30
0.0
 10
-720.533657816578
 20
232.9025839944484
 30
0.0
 10
-715.3410032986898
 20
243.3095004615177
 30
0.0
 10
-713.5866780804647
 20
257.9914106386292
 30
0.0
 10
-716.9814517303284
 20
280.2286966587515
 30
0.0
 10
-721.8935049802022
 20
285.6613871583102
 30
0.0
 10
-722.6132486999423
 20
285.6613871583102
 30
0.0
  0
LINE
  5
C77
330
1F
100
AcDbEntity
  8
ceco.net 109
100
AcDbLine
 10
-734.7082218814988
 20
232.1164174178754
 30
0.0
 11
-722.6132486954194
 21
232.1164174178754
 31
0.0
  0
LINE
  5
C78
330
1F
100
AcDbEntity
  8
ceco.net 109
100
AcDbLine
 10
2910.336357047553
 20
465.4346517652228
 30
0.0
 11
2910.336357047581
 21
465.4346517651654
 31
0.0
  0
LINE
  5
C79
330
1F
100
AcDbEntity
  8
ceco.net 109
100
AcDbLine
 10
2910.336357047581
 20
465.4346517651654
 30
0.0
 11
2912.379753614669
 21
457.9421976859976
 31
0.0
  0
LINE
  5
C7A
330
1F
100
AcDbEntity
  8
ceco.net 109
100
AcDbLine
 10
2912.379753614669
 20
457.9421976859976
 30
0.0
 11
2915.785414559776
 21
449.7686114177626
 31
0.0
  0
LINE
  5
C7B
330
1F
100
AcDbEntity
  8
ceco.net 109
100
AcDbLine
 10
2915.785414559776
 20
449.7686114177626
 30
0.0
 11
2918.509943315931
 21
441.5950251495273
 31
0.0
  0
LINE
  5
C7C
330
1F
100
AcDbEntity
  8
ceco.net 109
100
AcDbLine
 10
2918.509943315931
 20
441.5950251495273
 30
0.0
 11
2921.234472071857
 21
432.7403066922823
 31
0.0
  0
LINE
  5
C7D
330
1F
100
AcDbEntity
  8
ceco.net 109
100
AcDbLine
 10
2921.234472071857
 20
432.7403066922823
 30
0.0
 11
2924.640133017079
 21
423.2044560460271
 31
0.0
  0
LINE
  5
C7E
330
1F
100
AcDbEntity
  8
ceco.net 109
100
AcDbLine
 10
2924.640133017079
 20
423.2044560460271
 30
0.0
 11
2927.364661773005
 21
412.3063410217518
 31
0.0
  0
LINE
  5
C7F
330
1F
100
AcDbEntity
  8
ceco.net 109
100
AcDbLine
 10
2927.364661773005
 20
412.3063410217518
 30
0.0
 11
2930.770322718227
 21
401.4082259974192
 31
0.0
  0
LINE
  5
C80
330
1F
100
AcDbEntity
  8
ceco.net 109
100
AcDbLine
 10
2930.770322718227
 20
401.4082259974192
 30
0.0
 11
2934.175983663219
 21
389.8289787840766
 31
0.0
  0
LINE
  5
C81
330
1F
100
AcDbEntity
  8
ceco.net 109
100
AcDbLine
 10
2934.175983663219
 20
389.8289787840766
 30
0.0
 11
2937.581644608327
 21
377.5685993817238
 31
0.0
  0
LINE
  5
C82
330
1F
100
AcDbEntity
  8
ceco.net 109
100
AcDbLine
 10
2937.581644608327
 20
377.5685993817238
 30
0.0
 11
2941.668437742502
 21
365.3082199794285
 31
0.0
  0
LINE
  5
C83
330
1F
100
AcDbEntity
  8
ceco.net 109
100
AcDbLine
 10
2941.668437742502
 20
365.3082199794285
 30
0.0
 11
2949.160891821555
 21
338.0629324186256
 31
0.0
  0
LINE
  5
C84
330
1F
100
AcDbEntity
  8
ceco.net 109
100
AcDbLine
 10
2949.160891821555
 20
338.0629324186256
 30
0.0
 11
2951.88542057771
 21
324.4402886383103
 31
0.0
  0
LINE
  5
C85
330
1F
100
AcDbEntity
  8
ceco.net 109
100
AcDbLine
 10
2951.88542057771
 20
324.4402886383103
 30
0.0
 11
2954.609949333979
 21
312.1799092359001
 31
0.0
  0
LINE
  5
C86
330
1F
100
AcDbEntity
  8
ceco.net 109
100
AcDbLine
 10
2954.609949333979
 20
312.1799092359001
 30
0.0
 11
2955.97221371177
 21
301.2817942116249
 31
0.0
  0
LINE
  5
C87
330
1F
100
AcDbEntity
  8
ceco.net 109
100
AcDbLine
 10
2955.97221371177
 20
301.2817942116249
 30
0.0
 11
2955.97221371177
 21
291.7459435653698
 31
0.0
  0
LINE
  5
C88
330
1F
100
AcDbEntity
  8
ceco.net 109
100
AcDbLine
 10
2955.97221371177
 20
291.7459435653698
 30
0.0
 11
2955.291081522817
 21
284.2534894861447
 31
0.0
  0
LINE
  5
C89
330
1F
100
AcDbEntity
  8
ceco.net 109
100
AcDbLine
 10
2955.291081522817
 20
284.2534894861447
 30
0.0
 11
2953.247684955845
 21
278.123299784997
 31
0.0
  0
LINE
  5
C8A
330
1F
100
AcDbEntity
  8
ceco.net 109
100
AcDbLine
 10
2953.247684955845
 20
278.123299784997
 30
0.0
 11
2950.52315619969
 21
272.674242272802
 31
0.0
  0
LINE
  5
C8B
330
1F
100
AcDbEntity
  8
ceco.net 109
100
AcDbLine
 10
2950.52315619969
 20
272.674242272802
 30
0.0
 11
2946.436363065629
 21
269.2685813277519
 31
0.0
  0
LINE
  5
C8C
330
1F
100
AcDbEntity
  8
ceco.net 109
100
AcDbLine
 10
2946.436363065629
 20
269.2685813277519
 30
0.0
 11
2941.668437742502
 21
267.2251847606644
 31
0.0
  0
LINE
  5
C8D
330
1F
100
AcDbEntity
  8
ceco.net 109
100
AcDbLine
 10
2941.668437742502
 20
267.2251847606644
 30
0.0
 11
2936.219380230422
 21
266.5440525717118
 31
0.0
  0
LINE
  5
C8E
330
1F
100
AcDbEntity
  8
ceco.net 109
100
AcDbLine
 10
2936.219380230422
 20
266.5440525717118
 30
0.0
 11
2928.726926151139
 21
267.2251847606644
 31
0.0
  0
LINE
  5
C8F
330
1F
100
AcDbEntity
  8
ceco.net 109
100
AcDbLine
 10
2928.726926151139
 20
267.2251847606644
 30
0.0
 11
2921.234472071857
 21
269.9497135167618
 31
0.0
  0
LINE
  5
C90
330
1F
100
AcDbEntity
  8
ceco.net 109
100
AcDbLine
 10
2009.198470975663
 20
267.9063169497318
 30
0.0
 11
2003.749413463353
 21
256.3270697363892
 31
0.0
  0
LINE
  5
C91
330
1F
100
AcDbEntity
  8
ceco.net 109
100
AcDbLine
 10
2003.749413463353
 20
256.3270697363892
 30
0.0
 11
1997.61922376232
 21
246.1100869011239
 31
0.0
  0
LINE
  5
C92
330
1F
100
AcDbEntity
  8
ceco.net 109
100
AcDbLine
 10
1997.61922376232
 20
246.1100869011239
 30
0.0
 11
1991.489034061173
 21
237.2553684438788
 31
0.0
  0
LINE
  5
C93
330
1F
100
AcDbEntity
  8
ceco.net 109
100
AcDbLine
 10
1991.489034061173
 20
237.2553684438788
 30
0.0
 11
1985.358844360025
 21
229.7629143646537
 31
0.0
  0
LINE
  5
C94
330
1F
100
AcDbEntity
  8
ceco.net 109
100
AcDbLine
 10
1985.358844360025
 20
229.7629143646537
 30
0.0
 11
1979.228654658763
 21
223.632724663506
 31
0.0
  0
LINE
  5
C95
330
1F
100
AcDbEntity
  8
ceco.net 109
100
AcDbLine
 10
1979.228654658763
 20
223.632724663506
 30
0.0
 11
1972.417332768548
 21
218.1836671513684
 31
0.0
  0
LINE
  5
C96
330
1F
100
AcDbEntity
  8
ceco.net 109
100
AcDbLine
 10
1972.417332768548
 20
218.1836671513684
 30
0.0
 11
1966.2871430674
 21
214.7780062062609
 31
0.0
  0
LINE
  5
C97
330
1F
100
AcDbEntity
  8
ceco.net 109
100
AcDbLine
 10
1966.2871430674
 20
214.7780062062609
 30
0.0
 11
1959.475821177185
 21
212.7346096391734
 31
0.0
  0
LINE
  5
C98
330
1F
100
AcDbEntity
  8
ceco.net 109
100
AcDbLine
 10
1959.475821177185
 20
212.7346096391734
 30
0.0
 11
1952.66449928697
 21
212.0534774501634
 31
0.0
  0
LINE
  5
C99
330
1F
100
AcDbEntity
  8
ceco.net 109
100
AcDbLine
 10
1952.66449928697
 20
212.0534774501634
 30
0.0
 11
1945.853177396984
 21
212.7346096391734
 31
0.0
  0
LINE
  5
C9A
330
1F
100
AcDbEntity
  8
ceco.net 109
100
AcDbLine
 10
1945.853177396984
 20
212.7346096391734
 30
0.0
 11
1939.041855506769
 21
214.7780062062609
 31
0.0
  0
LINE
  5
C9B
330
1F
100
AcDbEntity
  8
ceco.net 109
100
AcDbLine
 10
1939.041855506769
 20
214.7780062062609
 30
0.0
 11
1925.419211726224
 21
223.632724663506
 31
0.0
  0
LINE
  5
C9C
330
1F
100
AcDbEntity
  8
ceco.net 109
100
AcDbLine
 10
1925.419211726224
 20
223.632724663506
 30
0.0
 11
1918.607889836009
 21
229.0817821756437
 31
0.0
  0
LINE
  5
C9D
330
1F
100
AcDbEntity
  8
ceco.net 109
100
AcDbLine
 10
1918.607889836009
 20
229.0817821756437
 30
0.0
 11
1912.477700134862
 21
235.8931040658587
 31
0.0
  0
LINE
  5
C9E
330
1F
100
AcDbEntity
  8
ceco.net 109
100
AcDbLine
 10
1912.477700134862
 20
235.8931040658587
 30
0.0
 11
1907.709774811734
 21
243.3855581450838
 31
0.0
  0
LINE
  5
C9F
330
1F
100
AcDbEntity
  8
ceco.net 109
100
AcDbLine
 10
1907.709774811734
 20
243.3855581450838
 30
0.0
 11
1903.622981677674
 21
251.5591444132615
 31
0.0
  0
LINE
  5
CA0
330
1F
100
AcDbEntity
  8
ceco.net 109
100
AcDbLine
 10
1903.622981677674
 20
251.5591444132615
 30
0.0
 11
1900.217320732567
 21
260.4138628705067
 31
0.0
  0
ARC
  5
CA1
330
1F
100
AcDbEntity
  8
ceco.net 109
100
AcDbCircle
 10
2407.715613935589
 20
232.18229450187
 30
0.0
 40
400.115132196719
100
AcDbArc
 50
17.4343290503358
 51
176.149465373726
  0
ARC
  5
CA2
330
1F
100
AcDbEntity
  8
ceco.net 109
100
AcDbCircle
 10
2946.937996326919
 20
458.0676954451115
 30
0.0
 40
189.8414336379284
100
AcDbArc
 50
213.9446584447789
 51
262.1854211903646
  0
ARC
  5
CA3
330
1F
100
AcDbEntity
  8
ceco.net 109
100
AcDbCircle
 10
908.1506599511653
 20
791.2537308373139
 30
0.0
 40
33.04833321852814
100
AcDbArc
 50
143.6210727241324
 51
216.3789272760409
  0
ARC
  5
CA4
330
1F
100
AcDbEntity
  8
ceco.net 109
100
AcDbCircle
 10
2434.647319248792
 20
277.0999679533864
 30
0.0
 40
534.6904239061043
100
AcDbArc
 50
43.71595586719096
 51
181.7883219925668
  0
LINE
  5
CA5
330
1F
100
AcDbEntity
  8
ceco.net 109
100
AcDbLine
 10
488.9114250853065
 20
256.3270697363892
 30
0.0
 11
488.9114250853065
 21
243.3855581450838
 31
0.0
  0
LINE
  5
CA6
330
1F
100
AcDbEntity
  8
ceco.net 109
100
AcDbLine
 10
488.9114250853065
 20
243.3855581450838
 30
0.0
 11
488.230292896354
 21
232.4874431207512
 31
0.0
  0
LINE
  5
CA7
330
1F
100
AcDbEntity
  8
ceco.net 109
100
AcDbLine
 10
488.230292896354
 20
232.4874431207512
 30
0.0
 11
486.1868963293813
 21
222.951592474496
 31
0.0
  0
LINE
  5
CA8
330
1F
100
AcDbEntity
  8
ceco.net 109
100
AcDbLine
 10
486.1868963293813
 20
222.951592474496
 30
0.0
 11
484.1434997622938
 21
215.4591383952709
 31
0.0
  0
LINE
  5
CA9
330
1F
100
AcDbEntity
  8
ceco.net 109
100
AcDbLine
 10
484.1434997622938
 20
215.4591383952709
 30
0.0
 11
480.7378388171862
 21
209.3289486940658
 31
0.0
  0
LINE
  5
CAA
330
1F
100
AcDbEntity
  8
ceco.net 109
100
AcDbLine
 10
480.7378388171862
 20
209.3289486940658
 30
0.0
 11
477.3321778720787
 21
205.2421555600057
 31
0.0
  0
LINE
  5
CAB
330
1F
100
AcDbEntity
  8
ceco.net 109
100
AcDbLine
 10
477.3321778720787
 20
205.2421555600057
 30
0.0
 11
472.5642525489512
 21
202.5176268039082
 31
0.0
  0
LINE
  5
CAC
330
1F
100
AcDbEntity
  8
ceco.net 109
100
AcDbLine
 10
472.5642525489512
 20
202.5176268039082
 30
0.0
 11
467.1151950367561
 21
201.1553624258307
 31
0.0
  0
LINE
  5
CAD
330
1F
100
AcDbEntity
  8
ceco.net 109
100
AcDbLine
 10
467.1151950367561
 20
201.1553624258307
 30
0.0
 11
460.9850053356084
 21
201.8364946148981
 31
0.0
  0
LINE
  5
CAE
330
1F
100
AcDbEntity
  8
ceco.net 109
100
AcDbLine
 10
460.9850053356084
 20
201.8364946148981
 30
0.0
 11
453.4925512563259
 21
204.5610233709382
 31
0.0
  0
LINE
  5
CAF
330
1F
100
AcDbEntity
  8
ceco.net 109
100
AcDbLine
 10
453.4925512563259
 20
204.5610233709382
 30
0.0
 11
437.8265109089231
 21
214.7780062062609
 31
0.0
  0
LINE
  5
CB0
330
1F
100
AcDbEntity
  8
ceco.net 109
100
AcDbLine
 10
437.8265109089231
 20
214.7780062062609
 30
0.0
 11
428.9717924518503
 21
220.9081959074085
 31
0.0
  0
LINE
  5
CB1
330
1F
100
AcDbEntity
  8
ceco.net 109
100
AcDbLine
 10
428.9717924518503
 20
220.9081959074085
 30
0.0
 11
420.7982061835002
 21
227.7195177975662
 31
0.0
  0
LINE
  5
CB2
330
1F
100
AcDbEntity
  8
ceco.net 109
100
AcDbLine
 10
420.7982061835002
 20
227.7195177975662
 30
0.0
 11
413.3057521042177
 21
235.2119718767913
 31
0.0
  0
LINE
  5
CB3
330
1F
100
AcDbEntity
  8
ceco.net 109
100
AcDbLine
 10
413.3057521042177
 20
235.2119718767913
 30
0.0
 11
405.8132980251649
 21
242.0232937669489
 31
0.0
  0
LINE
  5
CB4
330
1F
100
AcDbEntity
  8
ceco.net 109
100
AcDbLine
 10
405.8132980251649
 20
242.0232937669489
 30
0.0
 11
399.0019761349498
 21
249.5157478461741
 31
0.0
  0
LINE
  5
CB5
330
1F
100
AcDbEntity
  8
ceco.net 109
100
AcDbLine
 10
399.0019761349498
 20
249.5157478461741
 30
0.0
 11
392.8717864338021
 21
257.0082019253991
 31
0.0
  0
LINE
  5
CB6
330
1F
100
AcDbEntity
  8
ceco.net 109
100
AcDbLine
 10
392.8717864338021
 20
257.0082019253991
 30
0.0
 11
386.7415967326545
 21
264.5006560046243
 31
0.0
  0
LINE
  5
CB7
330
1F
100
AcDbEntity
  8
ceco.net 109
100
AcDbLine
 10
386.7415967326545
 20
264.5006560046243
 30
0.0
 11
381.2925392204594
 21
272.674242272802
 31
0.0
  0
LINE
  5
CB8
330
1F
100
AcDbEntity
  8
ceco.net 109
100
AcDbLine
 10
381.2925392204594
 20
272.674242272802
 30
0.0
 11
376.5246138973318
 21
280.8478285410945
 31
0.0
  0
LINE
  5
CB9
330
1F
100
AcDbEntity
  8
ceco.net 109
100
AcDbLine
 10
376.5246138973318
 20
280.8478285410945
 30
0.0
 11
371.7566885740894
 21
289.0214148092723
 31
0.0
  0
LINE
  5
CBA
330
1F
100
AcDbEntity
  8
ceco.net 109
100
AcDbLine
 10
371.7566885740894
 20
289.0214148092723
 30
0.0
 11
367.6698954400293
 21
297.1950010775074
 31
0.0
  0
LINE
  5
CBB
330
1F
100
AcDbEntity
  8
ceco.net 109
100
AcDbLine
 10
367.6698954400293
 20
297.1950010775074
 30
0.0
 11
364.2642344950366
 21
305.3685873457425
 31
0.0
  0
LINE
  5
CBC
330
1F
100
AcDbEntity
  8
ceco.net 109
100
AcDbLine
 10
364.2642344950366
 20
305.3685873457425
 30
0.0
 11
360.8585735498142
 21
314.2233058029877
 31
0.0
  0
LINE
  5
CBD
330
1F
100
AcDbEntity
  8
ceco.net 109
100
AcDbLine
 10
360.8585735498142
 20
314.2233058029877
 30
0.0
 11
358.1340447937741
 21
323.0780242602329
 31
0.0
  0
LINE
  5
CBE
330
1F
100
AcDbEntity
  8
ceco.net 109
100
AcDbLine
 10
358.1340447937741
 20
323.0780242602329
 30
0.0
 11
354.0472516595991
 21
342.1497255528006
 31
0.0
  0
LINE
  5
CBF
330
1F
100
AcDbEntity
  8
ceco.net 109
100
AcDbLine
 10
354.0472516595991
 20
342.1497255528006
 30
0.0
 11
352.0038550926265
 21
351.0044440100458
 31
0.0
  0
LINE
  5
CC0
330
1F
100
AcDbEntity
  8
ceco.net 109
100
AcDbLine
 10
352.0038550926265
 20
351.0044440100458
 30
0.0
 11
349.960458525539
 21
360.5402946563009
 31
0.0
  0
LINE
  5
CC1
330
1F
100
AcDbEntity
  8
ceco.net 109
100
AcDbLine
 10
349.960458525539
 20
360.5402946563009
 30
0.0
 11
347.9170619585663
 21
370.0761453025561
 31
0.0
  0
LINE
  5
CC2
330
1F
100
AcDbEntity
  8
ceco.net 109
100
AcDbLine
 10
347.9170619585663
 20
370.0761453025561
 30
0.0
 11
345.1925332024114
 21
380.2931281378787
 31
0.0
  0
LINE
  5
CC3
330
1F
100
AcDbEntity
  8
ceco.net 109
100
AcDbLine
 10
345.1925332024114
 20
380.2931281378787
 30
0.0
 11
342.4680044462565
 21
389.8289787840766
 31
0.0
  0
LINE
  5
CC4
330
1F
100
AcDbEntity
  8
ceco.net 109
100
AcDbLine
 10
342.4680044462565
 20
389.8289787840766
 30
0.0
 11
339.7434756903312
 21
400.0459616193992
 31
0.0
  0
LINE
  5
CC5
330
1F
100
AcDbEntity
  8
ceco.net 109
100
AcDbLine
 10
339.7434756903312
 20
400.0459616193992
 30
0.0
 11
336.3378147451088
 21
409.5818122656543
 31
0.0
  0
LINE
  5
CC6
330
1F
100
AcDbEntity
  8
ceco.net 109
100
AcDbLine
 10
-555.2642206806694
 20
273.3553744618694
 30
0.0
 11
-567.5246000829646
 21
271.9931100838494
 31
0.0
  0
LINE
  5
CC7
330
1F
100
AcDbEntity
  8
ceco.net 109
100
AcDbLine
 10
-567.5246000829646
 20
271.9931100838494
 30
0.0
 11
-578.4227151072399
 21
271.3119778947819
 31
0.0
  0
LINE
  5
CC8
330
1F
100
AcDbEntity
  8
ceco.net 109
100
AcDbLine
 10
-578.4227151072399
 20
271.3119778947819
 30
0.0
 11
-587.2774335644276
 21
272.674242272802
 31
0.0
  0
LINE
  5
CC9
330
1F
100
AcDbEntity
  8
ceco.net 109
100
AcDbLine
 10
-587.2774335644276
 20
272.674242272802
 30
0.0
 11
-594.7698876437101
 21
274.7176388398894
 31
0.0
  0
LINE
  5
CCA
330
1F
100
AcDbEntity
  8
ceco.net 109
100
AcDbLine
 10
-594.7698876437101
 20
274.7176388398894
 30
0.0
 11
-600.9000773448579
 21
277.442167595987
 31
0.0
  0
LINE
  5
CCB
330
1F
100
AcDbEntity
  8
ceco.net 109
100
AcDbLine
 10
-600.9000773448579
 20
277.442167595987
 30
0.0
 11
-605.6680026679854
 21
282.2100929191146
 31
0.0
  0
LINE
  5
CCC
330
1F
100
AcDbEntity
  8
ceco.net 109
100
AcDbLine
 10
-605.6680026679854
 20
282.2100929191146
 30
0.0
 11
-609.073663612978
 21
287.6591504312522
 31
0.0
  0
LINE
  5
CCD
330
1F
100
AcDbEntity
  8
ceco.net 109
100
AcDbLine
 10
-609.073663612978
 20
287.6591504312522
 30
0.0
 11
-610.4359279911129
 21
294.4704723214099
 31
0.0
  0
LINE
  5
CCE
330
1F
100
AcDbEntity
  8
ceco.net 109
100
AcDbLine
 10
-610.4359279911129
 20
294.4704723214099
 30
0.0
 11
-611.1170601800656
 21
302.6440585897024
 31
0.0
  0
LINE
  5
CCF
330
1F
100
AcDbEntity
  8
ceco.net 109
100
AcDbLine
 10
-611.1170601800656
 20
302.6440585897024
 30
0.0
 11
-609.7547958020456
 21
312.1799092359001
 31
0.0
  0
LINE
  5
CD0
330
1F
100
AcDbEntity
  8
ceco.net 109
100
AcDbLine
 10
-609.7547958020456
 20
312.1799092359001
 30
0.0
 11
-607.0302670461203
 21
323.0780242602329
 31
0.0
  0
LINE
  5
CD1
330
1F
100
AcDbEntity
  8
ceco.net 109
100
AcDbLine
 10
-607.0302670461203
 20
323.0780242602329
 30
0.0
 11
-602.9434739120602
 21
334.6572714735755
 31
0.0
  0
LINE
  5
CD2
330
1F
100
AcDbEntity
  8
ceco.net 109
100
AcDbLine
 10
-602.9434739120602
 20
334.6572714735755
 30
0.0
 11
-597.4944163996354
 21
347.5987830649382
 31
0.0
  0
LINE
  5
CD3
330
1F
100
AcDbEntity
  8
ceco.net 109
100
AcDbLine
 10
-597.4944163996354
 20
347.5987830649382
 30
0.0
 11
-579.5364529180422
 21
380.4184602848587
 31
0.0
  0
ARC
  5
CD4
330
1F
100
AcDbEntity
  8
ceco.net 109
100
AcDbCircle
 10
-13.65270159031526
 20
312.5392463654479
 30
0.0
 40
505.6980425338888
100
AcDbArc
 50
353.6179500393647
 51
138.4873714699724
  0
ARC
  5
CD5
330
1F
100
AcDbEntity
  8
ceco.net 109
100
AcDbCircle
 10
-9.898719369892804
 20
273.7522588746819
 30
0.0
 40
372.4582105943381
100
AcDbArc
 50
22.71004581206588
 51
162.8701545099905
  0
ARC
  5
CD6
330
1F
100
AcDbEntity
  8
ceco.net 109
100
AcDbCircle
 10
-537.759124789239
 20
461.2464950825534
 30
0.0
 40
188.7048001251282
100
AcDbArc
 50
264.6773363648394
 51
335.6545695006169
  0
ARC
  5
CD7
330
1F
100
AcDbEntity
  8
ceco.net 109
100
AcDbCircle
 10
871.4052799618466
 20
329.3019542315498
 30
0.0
 40
46.2966073994212
100
AcDbArc
 50
198.2369174083047
 51
268.4636009733508
  0
ARC
  5
CD8
330
1F
100
AcDbEntity
  8
ceco.net 109
100
AcDbCircle
 10
1779.275651301362
 20
307.7406669177439
 30
0.0
 40
26.95210446748823
100
AcDbArc
 50
293.489456653779
 51
1.275395490137182
  0
LINE
  5
CD9
330
1F
100
AcDbEntity
  8
ceco.net 109
100
AcDbLine
 10
563.7548130412169
 20
946.0285179890783
 30
0.0
 11
-323.4138024968156
 21
1079.767503984999
 31
0.0
  0
LINE
  5
CDA
330
1F
100
AcDbEntity
  8
ceco.net 109
100
AcDbLine
 10
563.7548130412169
 20
946.0285179890783
 30
0.0
 11
-341.9663084789366
 21
1133.673804176947
 31
0.0
  0
LINE
  5
CDB
330
1F
100
AcDbEntity
  8
ceco.net 109
100
AcDbLine
 10
563.7548130412318
 20
946.0285179890766
 30
0.0
 11
-357.300676140795
 21
1215.96002464102
 31
0.0
  0
ARC
  5
CDC
330
1F
100
AcDbEntity
  8
ceco.net 109
100
AcDbCircle
 10
1440.874409732503
 20
1327.544445406009
 30
0.0
 40
11.08524745053781
100
AcDbArc
 50
35.62047275150805
 51
144.9863034659303
  0
ARC
  5
CDD
330
1F
100
AcDbEntity
  8
ceco.net 109
100
AcDbCircle
 10
1873.611054830321
 20
740.2062256579695
 30
0.0
 40
11.15048967518439
100
AcDbArc
 50
251.9811023247119
 51
108.0188976752899
  0
ARC
  5
CDE
330
1F
100
AcDbEntity
  8
ceco.net 109
100
AcDbCircle
 10
248.1126463530699
 20
-0.0666659242363834
 30
0.0
 40
910.9181976394115
100
AcDbArc
 50
146.1673073785326
 51
155.3109103639871
  0
ARC
  5
CDF
330
1F
100
AcDbEntity
  8
ceco.net 109
100
AcDbCircle
 10
137.2214484094591
 20
43.33731403265383
 30
0.0
 40
1947.453613140544
100
AcDbArc
 50
29.66800504978039
 51
43.48884402565737
  0
ARC
  5
CE0
330
1F
100
AcDbEntity
  8
ceco.net 109
100
AcDbCircle
 10
10720.26809725092
 20
7435.952285849428
 30
0.0
 40
11012.48761666379
100
AcDbArc
 50
213.4408710956503
 51
215.7358062286824
  0
ARC
  5
CE1
330
1F
100
AcDbEntity
  8
ceco.net 109
100
AcDbCircle
 10
1563.469532928419
 20
1363.874182166722
 30
0.0
 40
32.79896208147649
100
AcDbArc
 50
128.5762921913346
 51
174.1217796474649
  0
ARC
  5
CE2
330
1F
100
AcDbEntity
  8
ceco.net 109
100
AcDbCircle
 10
1802.68030266245
 20
1026.20678369365
 30
0.0
 40
30.78830177917833
100
AcDbArc
 50
225.8266771231021
 51
326.3548172468779
  0
LINE
  5
CE3
330
1F
100
AcDbEntity
  8
ceco.net 109
100
AcDbLine
 10
1408.266521609566
 20
938.8215231333337
 30
0.0
 11
1404.353087126722
 21
938.8215231333337
 31
0.0
  0
LWPOLYLINE
  5
CE4
330
1F
100
AcDbEntity
  8
ceco.net 109
100
AcDbPolyline
 90
        8
 70
     0
 43
0.0
 10
3072.786384128568
 20
312.1799092359001
 10
3056.289186560417
 20
301.7634300535135
 10
3045.371798848441
 20
294.0165669210827
 10
3031.436420777022
 20
286.7474811935413
 10
3015.089248240552
 20
278.5738949253062
 10
2996.698679136994
 20
273.1248374131686
 10
2975.583581277511
 20
269.038044279051
 10
2925.860931479033
 20
267.6757799010309
  0
ELLIPSE
  5
CE5
330
1F
100
AcDbEntity
  8
ceco.net 109
100
AcDbEllipse
 10
-655.8434266535552
 20
248.4662137604281
 30
0.0
 11
51.33864620861914
 21
51.33864620861914
 31
0.0
210
0.0
220
0.0
230
1.0
 40
0.9999999999999948
 41
4.893757405430821
 42
5.798895416075776
  0
ELLIPSE
  5
CE6
330
1F
100
AcDbEntity
  8
ceco.net 109
100
AcDbEllipse
 10
-557.0033162173863
 20
251.8334722014221
 30
0.0
 11
45.01822457207979
 21
45.01822457207977
 31
0.0
210
0.0
220
0.0
230
1.0
 40
0.9999999999999948
 41
2.738621436878469
 42
3.132424220730807
  0
CIRCLE
  5
CE7
330
1F
100
AcDbEntity
  8
ceco.net 109
100
AcDbCircle
 10
3.499181371874871
 20
338.7201315242419
 30
0.0
 40
87.97943153076104
  0
CIRCLE
  5
CE8
330
1F
100
AcDbEntity
  8
ceco.net 109
100
AcDbCircle
 10
2403.934374872784
 20
338.7201315242419
 30
0.0
 40
87.97943153076104
  0
LWPOLYLINE
  5
CE9
330
1F
100
AcDbEntity
  8
ceco.net 109
100
AcDbPolyline
 90
       61
 70
     1
 43
0.0
 10
2402.683231040847
 20
630.542712492535
 10
2431.744871105582
 20
628.7263599884318
 10
2459.898334918378
 20
624.1854787283649
 10
2488.051798731329
 20
616.9200687121814
 10
2514.388910039793
 20
607.8383061918946
 10
2539.817845096627
 20
595.1238386635544
 10
2563.430427649281
 20
580.5930186311108
 10
2585.226657697907
 20
564.2458460947172
 10
2606.114711494598
 20
546.0823210541435
 10
2624.278236534865
 20
525.1942672576064
 10
2640.625409071412
 20
503.3980372089795
 10
2655.156229103779
 20
479.7854546563256
 10
2667.870696632272
 20
454.3565195995687
 10
2676.952459152406
 20
428.0194082908748
 10
2684.217869168818
 20
399.8659444780777
 10
2690.575102932989
 20
342.6508406005466
 10
2688.758750428809
 20
312.6810242836461
 10
2684.217869168818
 20
284.5275604709256
 10
2676.952459152406
 20
256.3740966581284
 10
2667.870696632272
 20
230.0369853494346
 10
2655.156229103779
 20
204.6080502926775
 10
2640.625409071412
 20
180.9954677400238
 10
2624.278236534865
 20
158.2910614393834
 10
2606.114711494598
 20
138.3111838948597
 10
2585.226657697907
 20
119.2394826023493
 10
2563.430427649281
 20
102.892310065879
 10
2539.817845096627
 20
88.36149003343553
 10
2514.388910039793
 20
76.55519875718522
 10
2488.051798731329
 20
66.56525998488509
 10
2459.898334918378
 20
59.2998499687016
 10
2402.683231040847
 20
53.85079245646827
 10
2372.713414724176
 20
54.7589687085582
 10
2344.559950911226
 20
59.2998499687016
 10
2316.406487098429
 20
66.56525998488509
 10
2290.069375789658
 20
76.55519875718522
 10
2264.640440733131
 20
88.36149003343553
 10
2241.027858180171
 20
102.892310065879
 10
2219.231628131697
 20
119.2394826023493
 10
2198.34357433516
 20
138.3111838948597
 10
2180.180049294587
 20
158.2910614393834
 10
2163.832876758346
 20
180.9954677400238
 10
2149.302056725673
 20
204.6080502926775
 10
2136.587589197486
 20
230.0369853494346
 10
2127.505826677199
 20
256.3740966581284
 10
2120.240416660939
 20
284.5275604709256
 10
2114.791359148859
 20
342.6508406005466
 10
2115.699535400949
 20
371.7124806653571
 10
2120.240416660939
 20
399.8659444780777
 10
2127.505826677199
 20
428.0194082908748
 10
2136.587589197486
 20
454.3565195995687
 10
2149.302056725673
 20
479.7854546563256
 10
2163.832876758346
 20
503.3980372089795
 10
2180.180049294587
 20
525.1942672576064
 10
2198.34357433516
 20
546.0823210541435
 10
2219.231628131697
 20
564.2458460947172
 10
2241.027858180171
 20
580.5930186311108
 10
2264.640440733131
 20
595.1238386635544
 10
2290.069375789658
 20
607.8383061918946
 10
2316.406487098429
 20
616.9200687121814
 10
2344.559950911226
 20
624.1854787283649
 10
2402.683231040847
 20
630.542712492535
  0
CIRCLE
  5
CEA
330
1F
100
AcDbEntity
  8
ceco.net 109
100
AcDbCircle
 10
2400.43519350091
 20
342.1048659867189
 30
0.0
 40
252.0930380223191
  0
LINE
  5
CEB
330
1F
100
AcDbEntity
  8
ceco.net 109
100
AcDbLine
 10
2491.913738057121
 20
338.6104676990758
 30
0.0
 11
2652.486752740284
 21
346.5038368542189
 31
0.0
  0
LINE
  5
CEC
330
1F
100
AcDbEntity
  8
ceco.net 109
100
AcDbLine
 10
2491.148837364248
 20
327.1435212776765
 30
0.0
 11
2651.050246703409
 21
314.8796563354702
 31
0.0
  0
LINE
  5
CED
330
1F
100
AcDbEntity
  8
ceco.net 109
100
AcDbLine
 10
2488.88212180093
 20
315.8233923610433
 30
0.0
 11
2645.662033583409
 21
283.6830073751804
 31
0.0
  0
LINE
  5
CEE
330
1F
100
AcDbEntity
  8
ceco.net 109
100
AcDbLine
 10
2485.138670449495
 20
304.8639245251377
 30
0.0
 11
2636.406304210284
 21
253.4085110998659
 31
0.0
  0
LINE
  5
CEF
330
1F
100
AcDbEntity
  8
ceco.net 109
100
AcDbLine
 10
2479.968473384455
 20
294.4573228018688
 30
0.0
 11
2623.430392536534
 21
224.5323718917211
 31
0.0
  0
LINE
  5
CF0
330
1F
100
AcDbEntity
  8
ceco.net 109
100
AcDbLine
 10
2473.460875415554
 20
284.8086661875228
 30
0.0
 11
2606.934251783409
 21
197.5110619067413
 31
0.0
  0
LINE
  5
CF1
330
1F
100
AcDbEntity
  8
ceco.net 109
100
AcDbLine
 10
2465.721943992359
 20
276.0888559922069
 30
0.0
 11
2587.186240221535
 21
172.7688239996982
 31
0.0
  0
LINE
  5
CF2
330
1F
100
AcDbEntity
  8
ceco.net 109
100
AcDbLine
 10
2456.90064315422
 20
268.4708980991376
 30
0.0
 11
2564.486287682784
 21
150.6983294633041
 31
0.0
  0
LINE
  5
CF3
330
1F
100
AcDbEntity
  8
ceco.net 109
100
AcDbLine
 10
2447.144535728048
 20
262.0829188182849
 30
0.0
 11
2539.207990975285
 21
131.6448922489292
 31
0.0
  0
LINE
  5
CF4
330
1F
100
AcDbEntity
  8
ceco.net 109
100
AcDbLine
 10
2436.648763227342
 20
257.0491503432676
 30
0.0
 11
2511.735470760909
 21
115.9117308926785
 31
0.0
  0
LINE
  5
CF5
330
1F
100
AcDbEntity
  8
ceco.net 109
100
AcDbLine
 10
2425.601064453366
 20
253.4503541403729
 30
0.0
 11
2482.505466970285
 21
103.7461559576791
 31
0.0
  0
LINE
  5
CF6
330
1F
100
AcDbEntity
  8
ceco.net 109
100
AcDbLine
 10
2414.20653949718
 20
251.3424283820488
 30
0.0
 11
2451.986291095285
 21
95.33891229328354
 31
0.0
  0
LINE
  5
CF7
330
1F
100
AcDbEntity
  8
ceco.net 109
100
AcDbLine
 10
2402.673279915987
 20
250.749738709467
 30
0.0
 11
2420.651516554659
 21
90.82417903453261
 31
0.0
  0
LINE
  5
CF8
330
1F
100
AcDbEntity
  8
ceco.net 109
100
AcDbLine
 10
2391.212615846024
 20
251.6653371718289
 30
0.0
 11
2388.995764474658
 21
90.27036123080391
 31
0.0
  0
LINE
  5
CF9
330
1F
100
AcDbEntity
  8
ceco.net 109
100
AcDbLine
 10
2380.023167767928
 20
254.0523422105688
 30
0.0
 11
2357.524179835284
 21
93.68929821796998
 31
0.0
  0
LINE
  5
CFA
330
1F
100
AcDbEntity
  8
ceco.net 109
100
AcDbLine
 10
2369.292377791601
 20
257.8479335158835
 30
0.0
 11
2326.731383762783
 21
101.0270552451568
 31
0.0
  0
LINE
  5
CFB
330
1F
100
AcDbEntity
  8
ceco.net 109
100
AcDbLine
 10
2359.205034200437
 20
262.9595450990235
 30
0.0
 11
2297.096211602784
 21
112.1652389576792
 31
0.0
  0
LINE
  5
CFC
330
1F
100
AcDbEntity
  8
ceco.net 109
100
AcDbLine
 10
2349.910425415826
 20
269.2809980507606
 30
0.0
 11
2269.092236774035
 21
126.9288902873456
 31
0.0
  0
LINE
  5
CFD
330
1F
100
AcDbEntity
  8
ceco.net 109
100
AcDbLine
 10
2341.5524738652
 20
276.6807988460468
 30
0.0
 11
2243.156199207159
 21
145.0877999329701
 31
0.0
  0
LINE
  5
CFE
330
1F
100
AcDbEntity
  8
ceco.net 109
100
AcDbLine
 10
2334.245040028445
 20
285.0193216473936
 30
0.0
 11
2219.703791125284
 21
166.3525619164286
 31
0.0
  0
LINE
  5
CFF
330
1F
100
AcDbEntity
  8
ceco.net 109
100
AcDbLine
 10
2328.083107949321
 20
294.1447383282021
 30
0.0
 11
2199.103347409659
 21
190.3903593632827
 31
0.0
  0
LINE
  5
D00
330
1F
100
AcDbEntity
  8
ceco.net 109
100
AcDbLine
 10
2323.139253265117
 20
303.8987487705647
 30
0.0
 11
2181.675845599658
 21
216.8197025745536
 31
0.0
  0
LINE
  5
D01
330
1F
100
AcDbEntity
  8
ceco.net 109
100
AcDbLine
 10
2319.465789156494
 20
314.1144736471257
 30
0.0
 11
2167.700167819659
 21
245.2248993276574
 31
0.0
  0
LINE
  5
D02
330
1F
100
AcDbEntity
  8
ceco.net 109
100
AcDbLine
 10
2317.089638193345
 20
324.6356690369948
 30
0.0
 11
2157.392053071534
 21
275.158685837678
 31
0.0
  0
LINE
  5
D03
330
1F
100
AcDbEntity
  8
ceco.net 109
100
AcDbLine
 10
2316.021335662664
 20
335.3028359099251
 30
0.0
 11
2150.919883015284
 21
306.1488041679928
 31
0.0
  0
LINE
  5
D04
330
1F
100
AcDbEntity
  8
ceco.net 109
100
AcDbLine
 10
2316.253078012747
 20
345.9568817215168
 30
0.0
 11
2148.378372334659
 21
337.7045796373664
 31
0.0
  0
LINE
  5
D05
330
1F
100
AcDbEntity
  8
ceco.net 109
100
AcDbLine
 10
2317.760002244606
 20
356.4502718117811
 30
0.0
 11
2149.814878371534
 21
369.3294178970423
 31
0.0
  0
LINE
  5
D06
330
1F
100
AcDbEntity
  8
ceco.net 109
100
AcDbLine
 10
2320.502122393624
 20
366.6385773751401
 30
0.0
 11
2155.203091491534
 21
400.525409116405
 31
0.0
  0
LINE
  5
D07
330
1F
100
AcDbEntity
  8
ceco.net 109
100
AcDbLine
 10
2324.426085375473
 20
376.387256098433
 30
0.0
 11
2164.458820864659
 21
430.7999053917177
 31
0.0
  0
LINE
  5
D08
330
1F
100
AcDbEntity
  8
ceco.net 109
100
AcDbLine
 10
2329.469406474887
 20
385.5746815058178
 30
0.0
 11
2177.434732538409
 21
459.6760445998661
 31
0.0
  0
LINE
  5
D09
330
1F
100
AcDbEntity
  8
ceco.net 109
100
AcDbLine
 10
2335.550115879105
 20
394.0733021142031
 30
0.0
 11
2193.930873291534
 21
486.6986700664304
 31
0.0
  0
LINE
  5
D0A
330
1F
100
AcDbEntity
  8
ceco.net 109
100
AcDbLine
 10
2342.591816287432
 20
401.7873248871826
 30
0.0
 11
2213.678884853409
 21
511.4402502326785
 31
0.0
  0
LINE
  5
D0B
330
1F
100
AcDbEntity
  8
ceco.net 109
100
AcDbLine
 10
2350.49006427745
 20
408.6063679192957
 30
0.0
 11
2236.378837392159
 21
533.5114025098658
 31
0.0
  0
LINE
  5
D0C
330
1F
100
AcDbEntity
  8
ceco.net 109
100
AcDbLine
 10
2359.141374186779
 20
414.443096746289
 30
0.0
 11
2261.662396026534
 21
552.5635242426544
 31
0.0
  0
LINE
  5
D0D
330
1F
100
AcDbEntity
  8
ceco.net 109
100
AcDbLine
 10
2368.44592375793
 20
419.2244805368543
 30
0.0
 11
2289.129654314034
 21
568.2966855989051
 31
0.0
  0
LINE
  5
D0E
330
1F
100
AcDbEntity
  8
ceco.net 109
100
AcDbLine
 10
2378.269329340258
 20
422.8728843626918
 30
0.0
 11
2318.359658104658
 21
580.4629182747019
 31
0.0
  0
LINE
  5
D0F
330
1F
100
AcDbEntity
  8
ceco.net 109
100
AcDbLine
 10
2388.491184755778
 20
425.3335730416289
 30
0.0
 11
2348.878833979659
 21
588.8708196801543
 31
0.0
  0
LINE
  5
D10
330
1F
100
AcDbEntity
  8
ceco.net 109
100
AcDbLine
 10
2398.967487184387
 20
426.5592480906486
 30
0.0
 11
2380.213608520284
 21
593.3855529389052
 31
0.0
  0
LINE
  5
D11
330
1F
100
AcDbEntity
  8
ceco.net 109
100
AcDbLine
 10
2409.569735857948
 20
426.5188962025835
 30
0.0
 11
2411.869360600285
 21
593.9380552607803
 31
0.0
  0
LINE
  5
D12
330
1F
100
AcDbEntity
  8
ceco.net 109
100
AcDbLine
 10
2420.145698931721
 20
425.1930946094286
 30
0.0
 11
2443.340945239659
 21
590.519776014545
 31
0.0
  0
LINE
  5
D13
330
1F
100
AcDbEntity
  8
ceco.net 109
100
AcDbLine
 10
2430.543869228818
 20
422.5790319617749
 30
0.0
 11
2474.139003239035
 21
583.1826767282811
 31
0.0
  0
LINE
  5
D14
330
1F
100
AcDbEntity
  8
ceco.net 109
100
AcDbLine
 10
2440.607213946539
 20
418.6918968339211
 30
0.0
 11
2503.768913472159
 21
572.0444930154924
 31
0.0
  0
LINE
  5
D15
330
1F
100
AcDbEntity
  8
ceco.net 109
100
AcDbLine
 10
2450.181644610149
 20
413.5637712962049
 30
0.0
 11
2531.772888300909
 21
557.2795262042423
 31
0.0
  0
LINE
  5
D16
330
1F
100
AcDbEntity
  8
ceco.net 109
100
AcDbLine
 10
2459.106173420944
 20
407.2508036166509
 30
0.0
 11
2557.708925867784
 21
539.1219320404677
 31
0.0
  0
LINE
  5
D17
330
1F
100
AcDbEntity
  8
ceco.net 109
100
AcDbLine
 10
2467.233208682721
 20
399.8236339670468
 30
0.0
 11
2581.16133394966
 21
517.8571700567413
 31
0.0
  0
LINE
  5
D18
330
1F
100
AcDbEntity
  8
ceco.net 109
100
AcDbLine
 10
2474.416148951585
 20
391.3765641339498
 30
0.0
 11
2601.761777665285
 21
493.8193726101552
 31
0.0
  0
LINE
  5
D19
330
1F
100
AcDbEntity
  8
ceco.net 109
100
AcDbLine
 10
2480.517212103222
 20
382.0265907908703
 30
0.0
 11
2619.189279475285
 21
467.3893716578267
 31
0.0
  0
LINE
  5
D1A
330
1F
100
AcDbEntity
  8
ceco.net 109
100
AcDbLine
 10
2485.412396190323
 20
371.9121850108018
 30
0.0
 11
2633.17021918216
 21
438.9835171639305
 31
0.0
  0
LINE
  5
D1B
330
1F
100
AcDbEntity
  8
ceco.net 109
100
AcDbLine
 10
2488.996978849808
 20
361.1864124163674
 30
0.0
 11
2643.473072003409
 21
409.0510461354918
 31
0.0
  0
LINE
  5
D1C
330
1F
100
AcDbEntity
  8
ceco.net 109
100
AcDbLine
 10
2491.184561856436
 20
350.0243450658294
 30
0.0
 11
2649.950503986534
 21
378.0615855461058
 31
0.0
  0
CIRCLE
  5
D1D
330
1F
100
AcDbEntity
  8
ceco.net 109
100
AcDbCircle
 10
2400.43519350091
 20
342.1048659867189
 30
0.0
 40
281.6108949102693
  0
ARC
  5
D1E
330
1F
100
AcDbEntity
  8
ceco.net 109
100
AcDbCircle
 10
2400.43519350091
 20
342.1048659867189
 30
0.0
 40
342.1048659867189
100
AcDbArc
 50
159.5705372263735
 51
28.00805204574976
  0
ARC
  5
D1F
330
1F
100
AcDbEntity
  8
ceco.net 109
100
AcDbCircle
 10
-351.249084934567
 20
1235.079913979239
 30
0.0
 40
20.05472324498773
100
AcDbArc
 50
81.49073991249347
 51
252.4370223214723
  0
ARC
  5
D20
330
1F
100
AcDbEntity
  8
ceco.net 109
100
AcDbCircle
 10
-333.5923143105691
 20
1172.813304686703
 30
0.0
 40
40.02529548279471
100
AcDbArc
 50
103.4515988982467
 51
258.6668629583555
  0
ARC
  5
D21
330
1F
100
AcDbEntity
  8
ceco.net 109
100
AcDbCircle
 10
-300.3896051260965
 20
1059.892269047966
 30
0.0
 40
16.57882253886039
100
AcDbArc
 50
93.35114131603832
 51
265.5412486309911
  0
ARC
  5
D22
330
1F
100
AcDbEntity
  8
ceco.net 109
100
AcDbCircle
 10
-316.8962542141474
 20
1103.681935665368
 30
0.0
 40
24.78665927897474
100
AcDbArc
 50
89.87379546576331
 51
254.7550716544039
  0
ARC
  5
D23
330
1F
100
AcDbEntity
  8
ceco.net 109
100
AcDbCircle
 10
1396.038464479403
 20
963.3075788603546
 30
0.0
 40
23.02397808645326
100
AcDbArc
 50
186.2619824481844
 51
270.5249656586453
  0
ARC
  5
D24
330
1F
100
AcDbEntity
  8
ceco.net 109
100
AcDbCircle
 10
1421.876882213682
 20
1387.712245088806
 30
0.0
 40
448.1610134514194
100
AcDbArc
 50
266.7218320371375
 51
279.8297413724217
  0
ARC
  5
D25
330
1F
100
AcDbEntity
  8
ceco.net 109
100
AcDbCircle
 10
1488.269732112134
 20
1016.030018341078
 30
0.0
 40
70.6279654971419
100
AcDbArc
 50
278.2361048143381
 51
310.231990802068
  0
ARC
  5
D26
330
1F
100
AcDbEntity
  8
ceco.net 109
100
AcDbCircle
 10
1504.046163401259
 20
990.6304307951584
 30
0.0
 40
41.27827585747898
100
AcDbArc
 50
316.2963993056465
 51
25.03158758662572
  0
ARC
  5
D27
330
1F
100
AcDbEntity
  8
ceco.net 109
100
AcDbCircle
 10
1493.302385365568
 20
980.1176373886894
 30
0.0
 40
55.68418083673006
100
AcDbArc
 50
30.16204754723401
 51
67.99663968425725
  0
ARC
  5
D28
330
1F
100
AcDbEntity
  8
ceco.net 109
100
AcDbCircle
 10
2199.312545638603
 20
985.1030634281729
 30
0.0
 40
826.5181810147391
100
AcDbArc
 50
178.3147630271
 51
181.6852369729
  0
ARC
  5
D29
330
1F
100
AcDbEntity
  8
ceco.net 109
100
AcDbCircle
 10
1415.908481321767
 20
1014.257121348163
 30
0.0
 40
43.03050745931176
100
AcDbArc
 50
96.17311233803393
 51
186.4679004543709
  0
ARC
  5
D2A
330
1F
100
AcDbEntity
  8
ceco.net 109
100
AcDbCircle
 10
1421.356204152307
 20
876.1193290523536
 30
0.0
 40
181.1990951416201
100
AcDbArc
 50
59.18999878434721
 51
93.18736640250365
  0
ARC
  5
D2B
330
1F
100
AcDbEntity
  8
ceco.net 109
100
AcDbCircle
 10
1452.520111761549
 20
947.2933787994602
 30
0.0
 40
45.88199977736716
100
AcDbArc
 50
189.4124801607617
 51
358.5476817917522
  0
LINE
  5
D2C
330
1F
100
AcDbEntity
  8
ceco.net 109
100
AcDbLine
 10
1408.266521609566
 20
939.7579482436606
 30
0.0
 11
1408.266521609566
 21
938.8215231333337
 31
0.0
  0
ENDSEC
  0
SECTION
  2
OBJECTS
  0
DICTIONARY
  5
C
330
0
100
AcDbDictionary
281
     1
  3
ACAD_GROUP
350
D
  3
ACAD_LAYOUT
350
1A
  3
ACAD_MLINESTYLE
350
17
  3
ACAD_PLOTSETTINGS
350
19
  3
ACAD_PLOTSTYLENAME
350
E
  3
AcDbVariableDictionary
350
115
  3
DWGPROPS
350
8E3
  0
DICTIONARY
  5
8F1
330
2
100
AcDbDictionary
280
     1
281
     1
  3
ACAD_LAYERFILTERS
360
8F2
  3
ACAD_LAYERSTATES
360
92A
  0
DICTIONARY
  5
926
330
925
100
AcDbDictionary
280
     1
281
     1
  3
ACAD_XREC_ROUNDTRIP
360
927
  0
DICTIONARY
  5
D
102
{ACAD_REACTORS
330
C
102
}
330
C
100
AcDbDictionary
281
     1
  0
DICTIONARY
  5
1A
102
{ACAD_REACTORS
330
C
102
}
330
C
100
AcDbDictionary
281
     1
  3
Layout1
350
1E
  3
Layout2
350
26
  3
Model
350
22
  0
DICTIONARY
  5
17
102
{ACAD_REACTORS
330
C
102
}
330
C
100
AcDbDictionary
281
     1
  3
Standard
350
18
  0
DICTIONARY
  5
19
102
{ACAD_REACTORS
330
C
102
}
330
C
100
AcDbDictionary
281
     1
  0
ACDBDICTIONARYWDFLT
  5
E
102
{ACAD_REACTORS
330
C
102
}
330
C
100
AcDbDictionary
281
     1
  3
Normal
350
F
100
AcDbDictionaryWithDefault
340
F
  0
DICTIONARY
  5
115
102
{ACAD_REACTORS
330
C
102
}
330
C
100
AcDbDictionary
281
     1
  3
DIMASSOC
350
117
  3
HIDETEXT
350
116
  0
XRECORD
  5
8E3
102
{ACAD_REACTORS
330
C
102
}
330
C
100
AcDbXrecord
280
     1
  1
DWGPROPS COOKIE
  2
Ceco.NET-Trees-and-Plants - T - xx . 67 . dwg
  3

  4
ceco.net
  6

  7

  8
peacosta
  9

300
=
301
=
302
=
303
=
304
=
305
=
306
=
307
=
308
=
309
=
 40
0.0450312037037037
 41
2455079.811409143
 42
2455838.656599502
  1

 90
        0
  0
DICTIONARY
  5
8F2
102
{ACAD_REACTORS
330
8F1
102
}
330
8F1
100
AcDbDictionary
280
     1
281
     1
  3
1
360
8F3
  3
16-20---27
360
8F4
  3
\U+0393\U+03A1\U+0391\U+039C\U+039C\U+0395\U+03A3
360
8F5
  3
Acabados
360
8F6
  3
Aguas pluviais
360
8F7
  3
Arquitectura
360
8F8
  3
ARRANJOS EXTERIORES
360
8F9
  3
AUXILIARES
360
8FA
  3
BETAR
360
8FB
  3
CAD
360
8FC
  3
coords
360
8FD
  3
COTAS
360
8FE
  3
dim
360
8FF
  3
Diseo
360
900
  3
e
360
901
  3
eba
360
902
  3
ENGENHEIROS
360
903
  3
equipamento
360
904
  3
Especialidades
360
905
  3
Estabilidade
360
906
  3
GENERAL
360
907
  3
H_P
360
908
  3
HATCH
360
909
  3
HEIGHT
360
90A
  3
Levantamento
360
90B
  3
LUNAR
360
90C
  3
LUNAR2
360
90D
  3
Mediciones
360
90E
  3
NONE
360
90F
  3
NOTES
360
910
  3
paredes
360
911
  3
PAREDES CORTE
360
912
  3
PAREDES VISTA
360
913
  3
PAVIMENTOS ACABAMENTO
360
914
  3
POINT
360
915
  3
Proposta
360
916
  3
PUBLIC
360
917
  3
REVESTIMENTOS ACABAMENTOS
360
918
  3
S
360
919
  3
text
360
91A
  3
texto
360
91B
  3
TEXTOS
360
91C
  3
TEXTOS1
360
91D
  3
TR
360
91E
  3
Trama
360
91F
  3
Traados
360
920
  3
WSP
360
921
  3
XE
360
922
  3
xref
360
923
  3
xrefreeze
360
924
  0
DICTIONARY
  5
92A
102
{ACAD_REACTORS
330
8F1
102
}
330
8F1
100
AcDbDictionary
281
     1
  0
XRECORD
  5
927
102
{ACAD_REACTORS
330
926
102
}
330
926
100
AcDbXrecord
280
     1
102
MATERIAL
340
0
  0
LAYOUT
  5
1E
102
{ACAD_REACTORS
330
1A
102
}
330
1A
100
AcDbPlotSettings
  1

  2
Microsoft Office Document Image Writer
  4

  6

 40
0.0
 41
0.0
 42
0.0
 43
0.0
 44
0.0
 45
0.0
 46
0.0
 47
0.0
 48
0.0
 49
0.0
140
0.0
141
0.0
142
1.0
143
1.0
 70
   688
 72
     0
 73
     0
 74
     5
  7

 75
    16
147
1.0
148
0.0
149
0.0
100
AcDbLayout
  1
Layout1
 70
     1
 71
     1
 10
0.0
 20
0.0
 11
420.0
 21
297.0
 12
0.0
 22
0.0
 32
0.0
 14
1.000000000000000E+20
 24
1.000000000000000E+20
 34
1.000000000000000E+20
 15
-1.000000000000000E+20
 25
-1.000000000000000E+20
 35
-1.000000000000000E+20
146
0.0
 13
0.0
 23
0.0
 33
0.0
 16
1.0
 26
0.0
 36
0.0
 17
0.0
 27
1.0
 37
0.0
 76
     0
330
1B
  0
LAYOUT
  5
26
102
{ACAD_REACTORS
330
1A
102
}
330
1A
100
AcDbPlotSettings
  1

  2
Microsoft Office Document Image Writer
  4

  6

 40
0.0
 41
0.0
 42
0.0
 43
0.0
 44
0.0
 45
0.0
 46
0.0
 47
0.0
 48
0.0
 49
0.0
140
0.0
141
0.0
142
1.0
143
1.0
 70
   688
 72
     0
 73
     0
 74
     5
  7

 75
    16
147
1.0
148
0.0
149
0.0
100
AcDbLayout
  1
Layout2
 70
     1
 71
     2
 10
0.0
 20
0.0
 11
12.0
 21
9.0
 12
0.0
 22
0.0
 32
0.0
 14
0.0
 24
0.0
 34
0.0
 15
0.0
 25
0.0
 35
0.0
146
0.0
 13
0.0
 23
0.0
 33
0.0
 16
1.0
 26
0.0
 36
0.0
 17
0.0
 27
1.0
 37
0.0
 76
     0
330
23
  0
LAYOUT
  5
22
102
{ACAD_REACTORS
330
1A
102
}
330
1A
100
AcDbPlotSettings
  1

  2
Microsoft Office Document Image Writer
  4

  6

 40
0.0
 41
0.0
 42
0.0
 43
0.0
 44
0.0
 45
0.0
 46
0.0
 47
0.0
 48
0.0
 49
0.0
140
0.0
141
0.0
142
1.0
143
1.0
 70
  1712
 72
     0
 73
     0
 74
     0
  7

 75
     0
147
1.0
148
0.0
149
0.0
100
AcDbLayout
  1
Model
 70
     1
 71
     0
 10
0.0
 20
0.0
 11
12.0
 21
9.0
 12
0.0
 22
0.0
 32
0.0
 14
0.0
 24
0.0
 34
0.0
 15
0.0
 25
0.0
 35
0.0
146
0.0
 13
0.0
 23
0.0
 33
0.0
 16
1.0
 26
0.0
 36
0.0
 17
0.0
 27
1.0
 37
0.0
 76
     0
330
1F
  0
MLINESTYLE
  5
18
102
{ACAD_REACTORS
330
17
102
}
330
17
100
AcDbMlineStyle
  2
STANDARD
 70
     0
  3

 62
   256
 51
90.0
 52
90.0
 71
     2
 49
0.5
 62
   256
  6
BYLAYER
 49
-0.5
 62
   256
  6
BYLAYER
  0
ACDBPLACEHOLDER
  5
F
102
{ACAD_REACTORS
330
E
102
}
330
E
  0
DICTIONARYVAR
  5
117
102
{ACAD_REACTORS
330
115
102
}
330
115
100
DictionaryVariables
280
     0
  1
2
  0
DICTIONARYVAR
  5
116
102
{ACAD_REACTORS
330
115
102
}
330
115
100
DictionaryVariables
280
     0
  1
1
  0
XRECORD
  5
8F3
102
{ACAD_REACTORS
330
8F2
102
}
330
8F2
100
AcDbXrecord
280
     1
  1
1
  1
*Grueso
  1
*
  1
*
 70
     0
  1
*
  1
*
  0
XRECORD
  5
8F4
102
{ACAD_REACTORS
330
8F2
102
}
330
8F2
100
AcDbXrecord
280
     1
  1
16-20---27
  1
*
  1
*
  1
*
 70
     0
  1
*
  1
*
  0
XRECORD
  5
8F5
102
{ACAD_REACTORS
330
8F2
102
}
330
8F2
100
AcDbXrecord
280
     1
  1
\U+0393\U+03A1\U+0391\U+039C\U+039C\U+0395\U+03A3
  1
*\U+0393\U+03A1\U+0391\U+039C\U+039C*
  1
*
  1
*
 70
     0
  1
*
  1
*
  0
XRECORD
  5
8F6
102
{ACAD_REACTORS
330
8F2
102
}
330
8F2
100
AcDbXrecord
280
     1
  1
Acabados
  1
[13]*
  1
*
  1
*
 70
     0
  1
*
  1
*
  0
XRECORD
  5
8F7
102
{ACAD_REACTORS
330
8F2
102
}
330
8F2
100
AcDbXrecord
280
     1
  1
Aguas pluviais
  1
Esp_Aguas pluviais*
  1
*
  1
*
 70
     0
  1
*
  1
*
  0
XRECORD
  5
8F8
102
{ACAD_REACTORS
330
8F2
102
}
330
8F2
100
AcDbXrecord
280
     1
  1
Arquitectura
  1
Arq_*
  1
*
  1
*
 70
     0
  1
*
  1
*
  0
XRECORD
  5
8F9
102
{ACAD_REACTORS
330
8F2
102
}
330
8F2
100
AcDbXrecord
280
     1
  1
ARRANJOS EXTERIORES
  1
ARV*
  1
*
  1
*
 70
     0
  1
*
  1
*
  0
XRECORD
  5
8FA
102
{ACAD_REACTORS
330
8F2
102
}
330
8F2
100
AcDbXrecord
280
     1
  1
AUXILIARES
  1
AUX*
  1
*
  1
*
 70
     0
  1
*
  1
*
  0
XRECORD
  5
8FB
102
{ACAD_REACTORS
330
8F2
102
}
330
8F2
100
AcDbXrecord
280
     1
  1
BETAR
  1
est*
  1
*
  1
*
 70
     0
  1
*
  1
*
  0
XRECORD
  5
8FC
102
{ACAD_REACTORS
330
8F2
102
}
330
8F2
100
AcDbXrecord
280
     1
  1
CAD
  1
*HEIGHT*,*POINT*,*TEXT*
  1
*
  1
*
 70
     0
  1
*
  1
*
  0
XRECORD
  5
8FD
102
{ACAD_REACTORS
330
8F2
102
}
330
8F2
100
AcDbXrecord
280
     1
  1
coords
  1
*co-ords,*coords
  1
*
  1
*
 70
     0
  1
*
  1
*
  0
XRECORD
  5
8FE
102
{ACAD_REACTORS
330
8F2
102
}
330
8F2
100
AcDbXrecord
280
     1
  1
COTAS
  1
C*
  1
*
  1
*
 70
     0
  1
*
  1
*
  0
XRECORD
  5
8FF
102
{ACAD_REACTORS
330
8F2
102
}
330
8F2
100
AcDbXrecord
280
     1
  1
dim
  1
*dim
  1
*
  1
*
 70
     0
  1
*
  1
*
  0
XRECORD
  5
900
102
{ACAD_REACTORS
330
8F2
102
}
330
8F2
100
AcDbXrecord
280
     1
  1
Diseo
  1
1*
  1
*
  1
*
 70
     0
  1
*
  1
*
  0
XRECORD
  5
901
102
{ACAD_REACTORS
330
8F2
102
}
330
8F2
100
AcDbXrecord
280
     1
  1
e
  1
*
  1
*
  1
*
 70
     0
  1
*
  1
*
  0
XRECORD
  5
902
102
{ACAD_REACTORS
330
8F2
102
}
330
8F2
100
AcDbXrecord
280
     1
  1
eba
  1
*
  1
*
  1
*
 70
     0
  1
*
  1
*
  0
XRECORD
  5
903
102
{ACAD_REACTORS
330
8F2
102
}
330
8F2
100
AcDbXrecord
280
     1
  1
ENGENHEIROS
  1
*
  1
*
  1
*
 70
     0
  1
*
  1
*
  0
XRECORD
  5
904
102
{ACAD_REACTORS
330
8F2
102
}
330
8F2
100
AcDbXrecord
280
     1
  1
equipamento
  1
eq*
  1
*
  1
*
 70
     0
  1
*
  1
*
  0
XRECORD
  5
905
102
{ACAD_REACTORS
330
8F2
102
}
330
8F2
100
AcDbXrecord
280
     1
  1
Especialidades
  1
Esp_vent*
  1
*
  1
*
 70
     0
  1
*
  1
*
  0
XRECORD
  5
906
102
{ACAD_REACTORS
330
8F2
102
}
330
8F2
100
AcDbXrecord
280
     1
  1
Estabilidade
  1
Est_*
  1
*
  1
*
 70
     0
  1
*
  1
*
  0
XRECORD
  5
907
102
{ACAD_REACTORS
330
8F2
102
}
330
8F2
100
AcDbXrecord
280
     1
  1
GENERAL
  1
*GENERAL
  1
*
  1
*
 70
     0
  1
*
  1
*
  0
XRECORD
  5
908
102
{ACAD_REACTORS
330
8F2
102
}
330
8F2
100
AcDbXrecord
280
     1
  1
H_P
  1
*HEIGHT*,*POINT*
  1
*
  1
*
 70
     0
  1
*
  1
*
  0
XRECORD
  5
909
102
{ACAD_REACTORS
330
8F2
102
}
330
8F2
100
AcDbXrecord
280
     1
  1
HATCH
  1
H*
  1
*
  1
*
 70
     0
  1
*
  1
*
  0
XRECORD
  5
90A
102
{ACAD_REACTORS
330
8F2
102
}
330
8F2
100
AcDbXrecord
280
     1
  1
HEIGHT
  1
*HEIGHT*
  1
*
  1
*
 70
     0
  1
*
  1
*
  0
XRECORD
  5
90B
102
{ACAD_REACTORS
330
8F2
102
}
330
8F2
100
AcDbXrecord
280
     1
  1
Levantamento
  1
Lev_*
  1
*
  1
*
 70
     0
  1
*
  1
*
  0
XRECORD
  5
90C
102
{ACAD_REACTORS
330
8F2
102
}
330
8F2
100
AcDbXrecord
280
     1
  1
LUNAR
  1
*
  1
*
  1
*
 70
    48
  1
*
  1
*
  0
XRECORD
  5
90D
102
{ACAD_REACTORS
330
8F2
102
}
330
8F2
100
AcDbXrecord
280
     1
  1
LUNAR2
  1
*
  1
*
  1
*
 70
    12
  1
*
  1
*
  0
XRECORD
  5
90E
102
{ACAD_REACTORS
330
8F2
102
}
330
8F2
100
AcDbXrecord
280
     1
  1
Mediciones
  1
[12]*
  1
*
  1
*
 70
     0
  1
*
  1
*
  0
XRECORD
  5
90F
102
{ACAD_REACTORS
330
8F2
102
}
330
8F2
100
AcDbXrecord
280
     1
  1
NONE
  1
*
  1
*
  1
*
 70
     0
  1
*
  1
*
  0
XRECORD
  5
910
102
{ACAD_REACTORS
330
8F2
102
}
330
8F2
100
AcDbXrecord
280
     1
  1
NOTES
  1
*|NOTES
  1
*
  1
*
 70
     0
  1
*
  1
*
  0
XRECORD
  5
911
102
{ACAD_REACTORS
330
8F2
102
}
330
8F2
100
AcDbXrecord
280
     1
  1
paredes
  1
pa*
  1
*
  1
*
 70
     0
  1
*
  1
*
  0
XRECORD
  5
912
102
{ACAD_REACTORS
330
8F2
102
}
330
8F2
100
AcDbXrecord
280
     1
  1
PAREDES CORTE
  1
PAC*
  1
*
  1
*
 70
     0
  1
*
  1
*
  0
XRECORD
  5
913
102
{ACAD_REACTORS
330
8F2
102
}
330
8F2
100
AcDbXrecord
280
     1
  1
PAREDES VISTA
  1
PAV*
  1
*
  1
*
 70
     0
  1
*
  1
*
  0
XRECORD
  5
914
102
{ACAD_REACTORS
330
8F2
102
}
330
8F2
100
AcDbXrecord
280
     1
  1
PAVIMENTOS ACABAMENTO
  1
PV*
  1
*
  1
*
 70
     0
  1
*
  1
*
  0
XRECORD
  5
915
102
{ACAD_REACTORS
330
8F2
102
}
330
8F2
100
AcDbXrecord
280
     1
  1
POINT
  1
*POINT*
  1
*
  1
*
 70
     0
  1
*
  1
*
  0
XRECORD
  5
916
102
{ACAD_REACTORS
330
8F2
102
}
330
8F2
100
AcDbXrecord
280
     1
  1
Proposta
  1
Prop_*
  1
*
  1
*
 70
     0
  1
*
  1
*
  0
XRECORD
  5
917
102
{ACAD_REACTORS
330
8F2
102
}
330
8F2
100
AcDbXrecord
280
     1
  1
PUBLIC
  1
*P*
  1
*
  1
*
 70
     0
  1
*
  1
*
  0
XRECORD
  5
918
102
{ACAD_REACTORS
330
8F2
102
}
330
8F2
100
AcDbXrecord
280
     1
  1
REVESTIMENTOS ACABAMENTOS
  1
REV*
  1
*
  1
*
 70
     0
  1
*
  1
*
  0
XRECORD
  5
919
102
{ACAD_REACTORS
330
8F2
102
}
330
8F2
100
AcDbXrecord
280
     1
  1
S
  1
S
  1
*
  1
*
 70
     0
  1
*
  1
*
  0
XRECORD
  5
91A
102
{ACAD_REACTORS
330
8F2
102
}
330
8F2
100
AcDbXrecord
280
     1
  1
text
  1
*text
  1
*
  1
*
 70
     0
  1
*
  1
*
  0
XRECORD
  5
91B
102
{ACAD_REACTORS
330
8F2
102
}
330
8F2
100
AcDbXrecord
280
     1
  1
texto
  1
Texto*
  1
*
  1
*
 70
     0
  1
*
  1
*
  0
XRECORD
  5
91C
102
{ACAD_REACTORS
330
8F2
102
}
330
8F2
100
AcDbXrecord
280
     1
  1
TEXTOS
  1
T*
  1
*
  1
*
 70
     0
  1
*
  1
*
  0
XRECORD
  5
91D
102
{ACAD_REACTORS
330
8F2
102
}
330
8F2
100
AcDbXrecord
280
     1
  1
TEXTOS1
  1
*TEXTOS 1
  1
*
  1
*
 70
     1
  1
*
  1
*
  0
XRECORD
  5
91E
102
{ACAD_REACTORS
330
8F2
102
}
330
8F2
100
AcDbXrecord
280
     1
  1
TR
  1
*TR
  1
*
  1
*
 70
     0
  1
*
  1
*
  0
XRECORD
  5
91F
102
{ACAD_REACTORS
330
8F2
102
}
330
8F2
100
AcDbXrecord
280
     1
  1
Trama
  1
Trama_*
  1
*
  1
*
 70
     0
  1
*
  1
*
  0
XRECORD
  5
920
102
{ACAD_REACTORS
330
8F2
102
}
330
8F2
100
AcDbXrecord
280
     1
  1
Traados
  1
Esp_Traados*
  1
*
  1
*
 70
     0
  1
*
  1
*
  0
XRECORD
  5
921
102
{ACAD_REACTORS
330
8F2
102
}
330
8F2
100
AcDbXrecord
280
     1
  1
WSP
  1
S*
  1
*
  1
*
 70
     0
  1
*
  1
*
  0
XRECORD
  5
922
102
{ACAD_REACTORS
330
8F2
102
}
330
8F2
100
AcDbXrecord
280
     1
  1
XE
  1
XE*
  1
*
  1
*
 70
     0
  1
*
  1
*
  0
XRECORD
  5
923
102
{ACAD_REACTORS
330
8F2
102
}
330
8F2
100
AcDbXrecord
280
     1
  1
xref
  1
plan*
  1
*
  1
*
 70
     0
  1
*
  1
*
  0
XRECORD
  5
924
102
{ACAD_REACTORS
330
8F2
102
}
330
8F2
100
AcDbXrecord
280
     1
  1
xrefreeze
  1
plan*
  1
*
  1
*
 70
     4
  1
*
  1
*
  0
ENDSEC
  0
EOF
