  0
SECTION
  2
HEADER
  9
$ACADVER
  1
AC1015
  9
$ACADMAINTVER
 70
    13
  9
$DWGCODEPAGE
  3
ANSI_1252
  9
$INSBASE
 10
0.0
 20
0.0
 30
0.0
  9
$EXTMIN
 10
-316.0697560118742
 20
1.823742102152209
 30
0.0
  9
$EXTMAX
 10
489.2443516798684
 20
1991.064857791799
 30
0.0
  9
$LIMMIN
 10
0.0
 20
0.0
  9
$LIMMAX
 10
420.0
 20
297.0
  9
$ORTHOMODE
 70
     0
  9
$REGENMODE
 70
     1
  9
$FILLMODE
 70
     1
  9
$QTEXTMODE
 70
     0
  9
$MIRRTEXT
 70
     1
  9
$LTSCALE
 40
1.0
  9
$ATTMODE
 70
     1
  9
$TEXTSIZE
 40
2.5
  9
$TRACEWID
 40
1.0
  9
$TEXTSTYLE
  7
Standard
  9
$CLAYER
  8
ceco.net 123
  9
$CELTYPE
  6
ByLayer
  9
$CECOLOR
 62
   256
  9
$CELTSCALE
 40
1.0
  9
$DISPSILH
 70
     0
  9
$DIMSCALE
 40
1.0
  9
$DIMASZ
 40
2.5
  9
$DIMEXO
 40
0.625
  9
$DIMDLI
 40
3.75
  9
$DIMRND
 40
0.0
  9
$DIMDLE
 40
0.0
  9
$DIMEXE
 40
1.25
  9
$DIMTP
 40
0.0
  9
$DIMTM
 40
0.0
  9
$DIMTXT
 40
2.5
  9
$DIMCEN
 40
2.5
  9
$DIMTSZ
 40
0.0
  9
$DIMTOL
 70
     0
  9
$DIMLIM
 70
     0
  9
$DIMTIH
 70
     0
  9
$DIMTOH
 70
     0
  9
$DIMSE1
 70
     0
  9
$DIMSE2
 70
     0
  9
$DIMTAD
 70
     1
  9
$DIMZIN
 70
     8
  9
$DIMBLK
  1

  9
$DIMASO
 70
     1
  9
$DIMSHO
 70
     1
  9
$DIMPOST
  1

  9
$DIMAPOST
  1

  9
$DIMALT
 70
     0
  9
$DIMALTD
 70
     3
  9
$DIMALTF
 40
0.03937007874016
  9
$DIMLFAC
 40
1.0
  9
$DIMTOFL
 70
     1
  9
$DIMTVP
 40
0.0
  9
$DIMTIX
 70
     0
  9
$DIMSOXD
 70
     0
  9
$DIMSAH
 70
     0
  9
$DIMBLK1
  1

  9
$DIMBLK2
  1

  9
$DIMSTYLE
  2
ISO-25
  9
$DIMCLRD
 70
     0
  9
$DIMCLRE
 70
     0
  9
$DIMCLRT
 70
     0
  9
$DIMTFAC
 40
1.0
  9
$DIMGAP
 40
0.625
  9
$DIMJUST
 70
     0
  9
$DIMSD1
 70
     0
  9
$DIMSD2
 70
     0
  9
$DIMTOLJ
 70
     0
  9
$DIMTZIN
 70
     8
  9
$DIMALTZ
 70
     0
  9
$DIMALTTZ
 70
     0
  9
$DIMUPT
 70
     0
  9
$DIMDEC
 70
     2
  9
$DIMTDEC
 70
     2
  9
$DIMALTU
 70
     2
  9
$DIMALTTD
 70
     3
  9
$DIMTXSTY
  7
Standard
  9
$DIMAUNIT
 70
     0
  9
$DIMADEC
 70
     0
  9
$DIMALTRND
 40
0.0
  9
$DIMAZIN
 70
     0
  9
$DIMDSEP
 70
    44
  9
$DIMATFIT
 70
     3
  9
$DIMFRAC
 70
     0
  9
$DIMLDRBLK
  1

  9
$DIMLUNIT
 70
     2
  9
$DIMLWD
 70
    -2
  9
$DIMLWE
 70
    -2
  9
$DIMTMOVE
 70
     0
  9
$LUNITS
 70
     2
  9
$LUPREC
 70
     2
  9
$SKETCHINC
 40
1.0
  9
$FILLETRAD
 40
10.0
  9
$AUNITS
 70
     0
  9
$AUPREC
 70
     0
  9
$MENU
  1
.
  9
$ELEVATION
 40
0.0
  9
$PELEVATION
 40
0.0
  9
$THICKNESS
 40
0.0
  9
$LIMCHECK
 70
     0
  9
$CHAMFERA
 40
10.0
  9
$CHAMFERB
 40
10.0
  9
$CHAMFERC
 40
20.0
  9
$CHAMFERD
 40
0.0
  9
$SKPOLY
 70
     0
  9
$TDCREATE
 40
2455079.811409143
  9
$TDUCREATE
 40
2455079.936409144
  9
$TDUPDATE
 40
2456674.587251111
  9
$TDUUPDATE
 40
2456674.712251111
  9
$TDINDWG
 40
0.0474267708
  9
$TDUSRTIMER
 40
0.0474267708
  9
$USRTIMER
 70
     1
  9
$ANGBASE
 50
0.0
  9
$ANGDIR
 70
     0
  9
$PDMODE
 70
     0
  9
$PDSIZE
 40
0.0
  9
$PLINEWID
 40
0.0
  9
$SPLFRAME
 70
     0
  9
$SPLINETYPE
 70
     6
  9
$SPLINESEGS
 70
     8
  9
$HANDSEED
  5
995
  9
$SURFTAB1
 70
     6
  9
$SURFTAB2
 70
     6
  9
$SURFTYPE
 70
     6
  9
$SURFU
 70
     6
  9
$SURFV
 70
     6
  9
$UCSBASE
  2

  9
$UCSNAME
  2

  9
$UCSORG
 10
0.0
 20
0.0
 30
0.0
  9
$UCSXDIR
 10
1.0
 20
0.0
 30
0.0
  9
$UCSYDIR
 10
0.0
 20
1.0
 30
0.0
  9
$UCSORTHOREF
  2

  9
$UCSORTHOVIEW
 70
     0
  9
$UCSORGTOP
 10
0.0
 20
0.0
 30
0.0
  9
$UCSORGBOTTOM
 10
0.0
 20
0.0
 30
0.0
  9
$UCSORGLEFT
 10
0.0
 20
0.0
 30
0.0
  9
$UCSORGRIGHT
 10
0.0
 20
0.0
 30
0.0
  9
$UCSORGFRONT
 10
0.0
 20
0.0
 30
0.0
  9
$UCSORGBACK
 10
0.0
 20
0.0
 30
0.0
  9
$PUCSBASE
  2

  9
$PUCSNAME
  2

  9
$PUCSORG
 10
0.0
 20
0.0
 30
0.0
  9
$PUCSXDIR
 10
1.0
 20
0.0
 30
0.0
  9
$PUCSYDIR
 10
0.0
 20
1.0
 30
0.0
  9
$PUCSORTHOREF
  2

  9
$PUCSORTHOVIEW
 70
     0
  9
$PUCSORGTOP
 10
0.0
 20
0.0
 30
0.0
  9
$PUCSORGBOTTOM
 10
0.0
 20
0.0
 30
0.0
  9
$PUCSORGLEFT
 10
0.0
 20
0.0
 30
0.0
  9
$PUCSORGRIGHT
 10
0.0
 20
0.0
 30
0.0
  9
$PUCSORGFRONT
 10
0.0
 20
0.0
 30
0.0
  9
$PUCSORGBACK
 10
0.0
 20
0.0
 30
0.0
  9
$USERI1
 70
     0
  9
$USERI2
 70
     0
  9
$USERI3
 70
     0
  9
$USERI4
 70
     0
  9
$USERI5
 70
     0
  9
$USERR1
 40
0.0
  9
$USERR2
 40
0.0
  9
$USERR3
 40
0.0
  9
$USERR4
 40
0.0
  9
$USERR5
 40
0.0
  9
$WORLDVIEW
 70
     1
  9
$SHADEDGE
 70
     3
  9
$SHADEDIF
 70
    70
  9
$TILEMODE
 70
     1
  9
$MAXACTVP
 70
    64
  9
$PINSBASE
 10
0.0
 20
0.0
 30
0.0
  9
$PLIMCHECK
 70
     0
  9
$PEXTMIN
 10
1.000000000000000E+20
 20
1.000000000000000E+20
 30
1.000000000000000E+20
  9
$PEXTMAX
 10
-1.000000000000000E+20
 20
-1.000000000000000E+20
 30
-1.000000000000000E+20
  9
$PLIMMIN
 10
0.0
 20
0.0
  9
$PLIMMAX
 10
420.0
 20
297.0
  9
$UNITMODE
 70
     0
  9
$VISRETAIN
 70
     1
  9
$PLINEGEN
 70
     0
  9
$PSLTSCALE
 70
     1
  9
$TREEDEPTH
 70
  3020
  9
$CMLSTYLE
  2
Standard
  9
$CMLJUST
 70
     0
  9
$CMLSCALE
 40
20.0
  9
$PROXYGRAPHICS
 70
     1
  9
$MEASUREMENT
 70
     1
  9
$CELWEIGHT
370
    -1
  9
$ENDCAPS
280
     0
  9
$JOINSTYLE
280
     0
  9
$LWDISPLAY
290
     0
  9
$INSUNITS
 70
     4
  9
$HYPERLINKBASE
  1

  9
$STYLESHEET
  1

  9
$XEDIT
290
     1
  9
$CEPSNTYPE
380
     0
  9
$PSTYLEMODE
290
     1
  9
$FINGERPRINTGUID
  2
{81085373-3A21-4932-80AA-8F6C3258C50C}
  9
$VERSIONGUID
  2
{57F5725C-FCEF-481D-B448-EAC85946C6CD}
  9
$EXTNAMES
290
     1
  9
$PSVPSCALE
 40
0.0
  9
$OLESTARTUP
290
     0
  0
ENDSEC
  0
SECTION
  2
CLASSES
  0
CLASS
  1
ACDBDICTIONARYWDFLT
  2
AcDbDictionaryWithDefault
  3
AutoCAD 2000
 90
        0
280
     0
281
     0
  0
CLASS
  1
ACDBPLACEHOLDER
  2
AcDbPlaceHolder
  3
AutoCAD 2000
 90
        0
280
     0
281
     0
  0
CLASS
  1
LAYOUT
  2
AcDbLayout
  3
AutoCAD 2000
 90
        0
280
     0
281
     0
  0
CLASS
  1
DICTIONARYVAR
  2
AcDbDictionaryVar
  3
AutoCAD 2000
 90
        0
280
     0
281
     0
  0
ENDSEC
  0
SECTION
  2
TABLES
  0
TABLE
  2
VPORT
  5
8
330
0
100
AcDbSymbolTable
 70
     3
  0
VPORT
  5
994
330
8
100
AcDbSymbolTableRecord
100
AcDbViewportTableRecord
  2
*Active
 70
     0
 10
0.0
 20
0.0
 11
1.0
 21
1.0
 12
-35.35682699294784
 22
782.7027382553201
 13
0.0
 23
0.0
 14
10.0
 24
10.0
 15
10.0
 25
10.0
 16
0.0
 26
0.0
 36
1.0
 17
0.0
 27
0.0
 37
0.0
 40
1285.194263549909
 41
2.184834123222748
 42
50.0
 43
0.0
 44
0.0
 50
0.0
 51
0.0
 71
     0
 72
   100
 73
     1
 74
     3
 75
     0
 76
     0
 77
     0
 78
     0
281
     0
 65
     1
110
0.0
120
0.0
130
0.0
111
1.0
121
0.0
131
0.0
112
0.0
122
1.0
132
0.0
 79
     0
146
0.0
  0
ENDTAB
  0
TABLE
  2
LTYPE
  5
5
330
0
100
AcDbSymbolTable
 70
     1
  0
LTYPE
  5
14
330
5
100
AcDbSymbolTableRecord
100
AcDbLinetypeTableRecord
  2
ByBlock
 70
     0
  3

 72
    65
 73
     0
 40
0.0
  0
LTYPE
  5
15
330
5
100
AcDbSymbolTableRecord
100
AcDbLinetypeTableRecord
  2
ByLayer
 70
     0
  3

 72
    65
 73
     0
 40
0.0
  0
LTYPE
  5
16
330
5
100
AcDbSymbolTableRecord
100
AcDbLinetypeTableRecord
  2
Continuous
 70
     0
  3
Solid line
 72
    65
 73
     0
 40
0.0
  0
ENDTAB
  0
TABLE
  2
LAYER
  5
2
102
{ACAD_XDICTIONARY
360
8FC
102
}
330
0
100
AcDbSymbolTable
 70
     2
  0
LAYER
  5
10
330
2
100
AcDbSymbolTableRecord
100
AcDbLayerTableRecord
  2
0
 70
     0
 62
     7
  6
Continuous
370
    -3
390
F
  0
LAYER
  5
8F1
102
{ACAD_XDICTIONARY
360
8F2
102
}
330
2
100
AcDbSymbolTableRecord
100
AcDbLayerTableRecord
  2
ceco.net 123
 70
     0
 62
     7
  6
Continuous
370
    -3
390
F
1001
AcAecLayerStandard
1000

1000

  0
ENDTAB
  0
TABLE
  2
STYLE
  5
3
330
0
100
AcDbSymbolTable
 70
     1
  0
STYLE
  5
11
330
3
100
AcDbSymbolTableRecord
100
AcDbTextStyleTableRecord
  2
Standard
 70
     0
 40
0.0
 41
1.0
 50
0.0
 71
     0
 42
2.5
  3
txt
  4

  0
ENDTAB
  0
TABLE
  2
VIEW
  5
6
330
0
100
AcDbSymbolTable
 70
     0
  0
ENDTAB
  0
TABLE
  2
UCS
  5
7
330
0
100
AcDbSymbolTable
 70
     0
  0
ENDTAB
  0
TABLE
  2
APPID
  5
9
330
0
100
AcDbSymbolTable
 70
    12
  0
APPID
  5
12
330
9
100
AcDbSymbolTableRecord
100
AcDbRegAppTableRecord
  2
ACAD
 70
     0
  0
APPID
  5
2C
330
9
100
AcDbSymbolTableRecord
100
AcDbRegAppTableRecord
  2
ACAD_DSTYLE_DIMJOGGED_JOGANGLE_SYMBOL
 70
     0
  0
APPID
  5
11B
330
9
100
AcDbSymbolTableRecord
100
AcDbRegAppTableRecord
  2
ACAD_NAV_VCDISPLAY
 70
     0
  0
APPID
  5
11C
330
9
100
AcDbSymbolTableRecord
100
AcDbRegAppTableRecord
  2
ACAD_MLEADERVER
 70
     0
  0
APPID
  5
8F4
330
9
100
AcDbSymbolTableRecord
100
AcDbRegAppTableRecord
  2
ACAD_PSEXT
 70
     0
  0
APPID
  5
8F5
330
9
100
AcDbSymbolTableRecord
100
AcDbRegAppTableRecord
  2
ACAD_DSTYLE_DIMEXT_LENGTH
 70
     0
  0
APPID
  5
8F6
330
9
100
AcDbSymbolTableRecord
100
AcDbRegAppTableRecord
  2
ACAD_DSTYLE_DIMEXT_ENABLED
 70
     0
  0
APPID
  5
8F7
330
9
100
AcDbSymbolTableRecord
100
AcDbRegAppTableRecord
  2
ACAD_DSTYLE_DIMARC_LENGTH_SYMBOL
 70
     0
  0
APPID
  5
8F8
330
9
100
AcDbSymbolTableRecord
100
AcDbRegAppTableRecord
  2
AcAecLayerStandard
 70
     0
  0
APPID
  5
8F9
330
9
100
AcDbSymbolTableRecord
100
AcDbRegAppTableRecord
  2
ACAD_DSTYLE_DIM_LINETYPE
 70
     0
  0
APPID
  5
8FA
330
9
100
AcDbSymbolTableRecord
100
AcDbRegAppTableRecord
  2
ACAD_DSTYLE_DIM_EXT1_LINETYPE
 70
     0
  0
APPID
  5
8FB
330
9
100
AcDbSymbolTableRecord
100
AcDbRegAppTableRecord
  2
ACAD_DSTYLE_DIM_EXT2_LINETYPE
 70
     0
  0
ENDTAB
  0
TABLE
  2
DIMSTYLE
  5
A
330
0
100
AcDbSymbolTable
 70
     2
100
AcDbDimStyleTable
 71
     0
  0
DIMSTYLE
105
27
330
A
100
AcDbSymbolTableRecord
100
AcDbDimStyleTableRecord
  2
ISO-25
 70
     0
 41
2.5
 42
0.625
 43
3.75
 44
1.25
 73
     0
 74
     0
 77
     1
 78
     8
140
2.5
141
2.5
143
0.03937007874016
147
0.625
171
     3
172
     1
271
     2
272
     2
274
     3
278
    44
283
     0
284
     8
340
11
  0
DIMSTYLE
105
2B
330
A
100
AcDbSymbolTableRecord
100
AcDbDimStyleTableRecord
  2
Standard
 70
     0
340
11
  0
ENDTAB
  0
TABLE
  2
BLOCK_RECORD
  5
1
330
0
100
AcDbSymbolTable
 70
     2
  0
BLOCK_RECORD
  5
1F
330
1
100
AcDbSymbolTableRecord
100
AcDbBlockTableRecord
  2
*Model_Space
340
22
  0
BLOCK_RECORD
  5
1B
330
1
100
AcDbSymbolTableRecord
100
AcDbBlockTableRecord
  2
*Paper_Space
340
1E
  0
BLOCK_RECORD
  5
23
330
1
100
AcDbSymbolTableRecord
100
AcDbBlockTableRecord
  2
*Paper_Space0
340
26
  0
ENDTAB
  0
ENDSEC
  0
SECTION
  2
BLOCKS
  0
BLOCK
  5
20
330
1F
100
AcDbEntity
  8
0
100
AcDbBlockBegin
  2
*Model_Space
 70
     0
 10
0.0
 20
0.0
 30
0.0
  3
*Model_Space
  1

  0
ENDBLK
  5
21
330
1F
100
AcDbEntity
  8
0
100
AcDbBlockEnd
  0
BLOCK
  5
1C
330
1B
100
AcDbEntity
 67
     1
  8
0
100
AcDbBlockBegin
  2
*Paper_Space
 70
     0
 10
0.0
 20
0.0
 30
0.0
  3
*Paper_Space
  1

  0
ENDBLK
  5
1D
330
1B
100
AcDbEntity
 67
     1
  8
0
100
AcDbBlockEnd
  0
BLOCK
  5
24
330
23
100
AcDbEntity
  8
0
100
AcDbBlockBegin
  2
*Paper_Space0
 70
     0
 10
0.0
 20
0.0
 30
0.0
  3
*Paper_Space0
  1

  0
ENDBLK
  5
25
330
23
100
AcDbEntity
  8
0
100
AcDbBlockEnd
  0
ENDSEC
  0
SECTION
  2
ENTITIES
  0
LWPOLYLINE
  5
94A
330
1F
100
AcDbEntity
  8
ceco.net 123
100
AcDbPolyline
 90
       21
 70
     0
 43
0.0
 10
-311.8204931736308
 20
1532.94970508505
 10
-316.0697560118742
 20
1516.383504737637
 10
-316.0697560118742
 20
1493.870458500899
 10
-307.1462748934018
 20
1467.959225614341
 10
-300.3474251941079
 20
1451.817788972098
 10
-295.6732069138788
 20
1429.729521842224
 10
-293.1236443513435
 20
1418.260609170408
 10
-293.1236443513435
 20
1400.420086904111
 10
-296.9480003444041
 20
1322.261593735808
 10
-298.6186882810707
 20
1274.109154758824
 10
-296.4940568618922
 20
1231.631706123158
 10
-292.2447697252473
 20
1198.924069133502
 10
-285.4459200258397
 20
1176.835802003628
 10
-280.7717017457243
 20
1171.313735221152
 10
-272.6980829143067
 20
1169.614634195389
 10
-225.1061107207342
 20
1178.534903029392
 10
-171.9901065566809
 20
1195.101103376805
 10
-130.3471460738628
 20
1218.463692425578
 10
-91.25374815358009
 20
1246.074041739637
 10
-49.05080578976503
 20
1281.411813004146
 10
-38.42760009729682
 20
1289.482539026115
  0
LWPOLYLINE
  5
94B
330
1F
100
AcDbEntity
  8
ceco.net 123
100
AcDbPolyline
 90
       18
 70
     0
 43
0.0
 10
-221.3692488184087
 20
1266.156092457398
 10
-199.9003169036122
 20
1286.084336974587
 10
-178.6539055186758
 20
1302.650537321986
 10
-155.2828384161593
 20
1317.092872938465
 10
-144.2347258786221
 20
1323.46448253296
 10
-137.010945035744
 20
1328.561785610267
 10
-127.2375773318153
 20
1336.632496230541
 10
-114.4897402202823
 20
1351.499595552175
 10
-93.24332883534589
 20
1370.189676032231
 10
-73.69664202440526
 20
1383.357689729797
 10
-46.07631208364546
 20
1395.676145213633
 10
-29.92902582389342
 20
1400.348653782364
 10
-23.98003841165427
 20
1402.897313021872
 10
-11.23220130000754
 20
1417.339633236627
 10
8.739416654403612
 20
1443.250881524909
 10
14.26349722157374
 20
1455.569337008745
 10
14.71957896694311
 20
1484.992205526344
 10
15.56944125399786
 20
1510.903438412916
  0
LWPOLYLINE
  5
94C
330
1F
100
AcDbEntity
  8
ceco.net 123
100
AcDbPolyline
 90
       20
 70
     0
 43
0.0
 10
66.75551740988431
 20
1568.522028960833
 10
62.83015279575102
 20
1564.38009383128
 10
58.25057694493898
 20
1564.38009383128
 10
54.97947216440116
 20
1566.124060032469
 10
53.45292258231984
 20
1570.265995162023
 10
53.67100109401326
 20
1575.279913392185
 10
53.45292258231984
 20
1580.293816220622
 10
55.41560488938649
 20
1581.383795096377
 10
61.95786304726516
 20
1582.037797823522
 10
73.07969705618325
 20
1582.037797823522
 10
82.89308429311494
 20
1583.563768249567
 10
90.96186773467342
 20
1585.743726001075
 10
95.97757631047079
 20
1589.231673805164
 10
98.81257266442482
 20
1591.847623106963
 10
101.6475447199773
 20
1596.207538609965
 10
108.6259356029549
 20
1601.439452615272
 10
120.1839266351462
 20
1605.581387744825
 10
126.944263304832
 20
1607.761345496305
 10
143.7360414247414
 20
1610.159299022959
 10
156.8205577406124
 20
1609.069320147205
  0
LWPOLYLINE
  5
94D
330
1F
100
AcDbEntity
  8
ceco.net 123
100
AcDbPolyline
 90
        4
 70
     0
 43
0.0
 10
99.68486241291067
 20
1588.577671078019
 10
98.5944941527314
 20
1585.52573022593
 10
98.15833712923087
 20
1581.165799321232
 10
94.66912953859809
 20
1568.958020511123
  0
LWPOLYLINE
  5
94E
330
1F
100
AcDbEntity
  8
ceco.net 123
100
AcDbPolyline
 90
        4
 70
     0
 43
0.0
 10
93.38735467576588
 20
1583.740084898471
 10
93.96090286656635
 20
1579.956010558879
 10
93.08861311808049
 20
1574.724096553586
 10
90.90785229932043
 20
1569.492197949989
  0
LWPOLYLINE
  5
94F
330
1F
100
AcDbEntity
  8
ceco.net 123
100
AcDbPolyline
 90
        3
 70
     0
 43
0.0
 10
91.80713761622518
 20
1581.189517951548
 10
88.09987581218683
 20
1579.445551750359
 10
87.00948325360604
 20
1577.483589773995
  0
LWPOLYLINE
  5
950
330
1F
100
AcDbEntity
  8
ceco.net 123
100
AcDbPolyline
 90
        4
 70
     0
 43
0.0
 10
39.79034634505387
 20
1557.203852805306
 10
41.74318778336419
 20
1554.690417272018
 10
43.00503014462356
 20
1552.041539118496
 10
44.51923611849998
 20
1549.014225597508
  0
LWPOLYLINE
  5
951
330
1F
100
AcDbEntity
  8
ceco.net 123
100
AcDbPolyline
 90
       13
 70
     0
 43
0.0
 10
15.56944125399786
 20
1510.903438412916
 10
12.76921596967986
 20
1514.522008102636
 10
10.52250918086974
 20
1523.34510756082
 10
11.32491661189396
 20
1529.280633194778
 10
14.21351532757944
 20
1534.093220297839
 10
17.26258095049706
 20
1535.85784018947
 10
20.31167087170251
 20
1537.622460081115
 10
23.84218581277855
 20
1540.189185524104
 10
27.37270075396827
 20
1543.397576926159
 10
31.06368260216277
 20
1548.370588219844
 10
33.63132320520981
 20
1553.504023704141
 10
36.51992192100897
 20
1556.712415106181
 10
39.79034634505387
 20
1557.203852805306
  0
LWPOLYLINE
  5
952
330
1F
100
AcDbEntity
  8
ceco.net 123
100
AcDbPolyline
 90
        7
 70
     0
 43
0.0
 10
39.79034634505387
 20
1557.203852805306
 10
40.09733285397124
 20
1559.59680077685
 10
42.25753719128625
 20
1561.961887058606
 10
44.82921133569198
 20
1562.476026875336
 10
48.53241529997013
 20
1562.784523086739
 10
51.92702905821625
 20
1563.915639924579
 10
55.76267226967593
 20
1565.706502478042
  0
LWPOLYLINE
  5
953
330
1F
100
AcDbEntity
  8
ceco.net 123
100
AcDbPolyline
 90
        9
 70
     0
 43
0.0
 10
78.09533273666239
 20
1469.709337097034
 10
96.98365327733064
 20
1467.563709752687
 10
109.0034847857132
 20
1470.56758187407
 10
113.7255709954806
 20
1474.42969877253
 10
119.3061940358538
 20
1480.008320626799
 10
120.5940357294784
 20
1487.732569825444
 10
118.0183523422292
 20
1496.315048399386
 10
112.7814793526304
 20
1501.583880298801
 10
108.1449236565922
 20
1501.89367025367
  0
LWPOLYLINE
  5
954
330
1F
100
AcDbEntity
  8
ceco.net 123
100
AcDbPolyline
 90
       17
 70
     0
 43
0.0
 10
147.452876814551
 20
1607.485947555408
 10
148.2783920633855
 20
1600.059043731596
 10
149.1038830135912
 20
1594.007497031219
 10
144.7011755177491
 20
1587.130742217473
 10
141.67429437202
 20
1581.079195517082
 10
135.3454008280968
 20
1574.202440703337
 10
126.2647816890839
 20
1566.500477776207
 10
117.4593666975133
 20
1562.649496312621
 10
116.0835160491124
 20
1556.873008715575
 10
116.0835160491124
 20
1552.471893643675
 10
110.5801134555085
 20
1540.368800242907
 10
101.7746741654227
 20
1530.466272078959
 10
94.0699299732123
 20
1523.589517265213
 10
94.0699299732123
 20
1516.987821554783
 10
99.57330826841463
 20
1510.386141246036
 10
107.5532323096658
 20
1507.910501504218
 10
111.6807842548687
 20
1502.959237422237
  0
LWPOLYLINE
  5
955
330
1F
100
AcDbEntity
  8
ceco.net 123
100
AcDbPolyline
 90
       38
 70
     0
 43
0.0
 10
94.0699299732123
 20
1459.498127901175
 10
81.13693873803731
 20
1452.62137308743
 10
78.6604172902762
 20
1452.346298582403
 10
84.71415528356009
 20
1444.094202046903
 10
91.04304882736959
 20
1440.243205181635
 10
94.89542092353167
 20
1433.36645036789
 10
108.6539274074275
 20
1423.463922203942
 10
116.6338514487924
 20
1418.237583616934
 10
127.9158121865257
 20
1414.661676658402
 10
136.7212514764978
 20
1408.335055452985
 10
148.2783920633855
 20
1411.085754298147
 10
170.0167982901311
 20
1412.73618592661
 10
186.5269817723137
 20
1412.73618592661
 10
198.9096376079223
 20
1417.137300998524
 10
205.5137110007726
 20
1420.988297863806
 10
212.3929642427774
 20
1428.690260790935
 10
217.3460071381859
 20
1431.716034141123
 10
227.2521172276319
 20
1449.595599737227
 10
233.5810350698429
 20
1455.922220942644
 10
236.8830717663249
 20
1457.847711674423
 10
237.1582516153657
 20
1464.174332879826
 10
240.735443862487
 20
1468.300388848425
 10
247.8898769535326
 20
1475.177143662184
 10
251.4670692005402
 20
1481.503749465878
 10
255.594621145743
 20
1501.858954803827
 10
256.970471794144
 20
1520.838803018341
 10
250.9167338008601
 20
1536.517818779335
 10
248.7153679037382
 20
1552.471893643675
 10
238.809257814406
 20
1571.726816363201
 10
224.7755957798708
 20
1585.480325990721
 10
212.3929642427774
 20
1595.107779649629
 10
204.4130402015261
 20
1600.334118236622
 10
195.8827564620796
 20
1601.984549865099
 10
182.9497895253061
 20
1607.761022060435
 10
177.7215667807431
 20
1607.485947555408
 10
170.842313538852
 20
1607.485947555408
 10
160.6610236003652
 20
1609.961587297254
 10
156.8205577406124
 20
1609.069320147205
  0
LWPOLYLINE
  5
956
330
1F
100
AcDbEntity
  8
ceco.net 123
100
AcDbPolyline
 90
       11
 70
     0
 43
0.0
 10
236.8830717663249
 20
1457.847711674423
 10
242.4307218217299
 20
1454.908249495906
 10
243.6781309088437
 20
1451.915497407702
 10
243.9276273053073
 20
1446.428808348519
 10
241.6822569307405
 20
1441.19150374542
 10
236.9420440836583
 20
1437.201183029506
 10
230.7049014545973
 20
1432.462678141951
 10
227.4615940910925
 20
1427.47477339663
 10
223.9687903310104
 20
1425.978389651666
 10
219.9770180765162
 20
1426.47718936721
 10
217.3460071381859
 20
1431.716034141123
  0
LWPOLYLINE
  5
957
330
1F
100
AcDbEntity
  8
ceco.net 123
100
AcDbPolyline
 90
       34
 70
     0
 43
0.0
 10
242.4788950812589
 20
1443.049654498585
 10
246.726078803359
 20
1438.344066772265
 10
254.2106548179353
 20
1431.859793683676
 10
257.4539621814401
 20
1422.881568222442
 10
259.6993325560069
 20
1412.157574560145
 10
260.1983010505327
 20
1398.939613123508
 10
256.2065287959248
 20
1385.472282632511
 10
252.7137250359564
 20
1376.244657313497
 10
247.7240157924106
 20
1365.520663651201
 10
248.4724806832864
 20
1359.784559332544
 10
249.470417672338
 20
1349.808749841889
 10
247.9735121888743
 20
1342.576292581687
 10
244.7302048252558
 20
1332.600483091047
 10
245.4786454178438
 20
1324.370441801425
 10
245.4786454178438
 20
1317.137984541224
 10
244.7302048252558
 20
1312.399464251958
 10
246.2271103088332
 20
1309.157327707672
 10
240.9879046688238
 20
1296.936965702135
 10
241.4868974617511
 20
1292.198460814594
 10
242.235338054339
 20
1280.47688312292
 10
235.9883545565216
 20
1272.903262628622
 10
227.0068730583679
 20
1263.426252853511
 10
227.7553379493574
 20
1256.443180049393
 10
230.49967681845
 20
1245.469786529332
 10
234.9904175674701
 20
1236.242161210319
 10
248.7121119125922
 20
1211.801437199247
 10
255.1987509381169
 20
1195.590739076086
 10
262.1843341597659
 20
1181.624608869517
 10
267.6730118978375
 20
1173.145167722117
 10
269.4194137778786
 20
1165.91271046193
 10
259.4399952906733
 20
1165.91271046193
 10
254.2007896506638
 20
1171.149999663319
 10
244.9698360545617
 20
1190.852234188545
 10
234.9904175674701
 20
1207.811101081623
  0
LWPOLYLINE
  5
958
330
1F
100
AcDbEntity
  8
ceco.net 123
100
AcDbPolyline
 90
        5
 70
     0
 43
0.0
 10
253.2028526617259
 20
1165.663310604136
 10
243.9718990655101
 20
1172.646383408283
 10
231.497613807388
 20
1183.120977212785
 10
222.2666602112858
 20
1202.573811880233
 10
220.021289836719
 20
1211.053237625909
  0
LWPOLYLINE
  5
959
330
1F
100
AcDbEntity
  8
ceco.net 123
100
AcDbPolyline
 90
        3
 70
     0
 43
0.0
 10
243.2234341745206
 20
1167.907863119031
 10
229.2522434329348
 20
1176.387304266432
 10
220.7697304293069
 20
1193.096786703427
  0
LWPOLYLINE
  5
95A
330
1F
100
AcDbEntity
  8
ceco.net 123
100
AcDbPolyline
 90
       33
 70
     0
 43
0.0
 10
234.2419526764806
 20
1163.917542403103
 10
226.0089360693164
 20
1171.399399521084
 10
218.5243843532552
 20
1183.61976152662
 10
212.78621021872
 20
1195.84013893388
 10
202.8067917315147
 20
1204.568964537335
 10
197.3181139934431
 20
1216.539942086802
 10
195.3222157169384
 20
1229.508488263951
 10
196.5696491024536
 20
1239.983097470163
 10
201.0603898515873
 20
1254.69741184836
 10
205.3016342041437
 20
1262.678068681884
 10
211.2892804367411
 20
1266.917773853882
 10
215.0315805931731
 20
1270.658710113726
 10
215.2810526912353
 20
1281.632103633788
 10
216.7779824732142
 20
1288.61516103621
 10
220.2707619347811
 20
1295.348833982578
 10
218.7738564513174
 20
1299.83795441405
 10
218.7738564513174
 20
1304.327074845537
 10
222.5161323093479
 20
1308.816179875285
 10
223.0151008038737
 20
1313.55468476284
 10
223.7635656948632
 20
1322.532925625784
 10
223.7635656948632
 20
1326.523246341713
 10
219.023352847781
 20
1336.499055832353
 10
219.5223213423068
 20
1348.470033381821
 10
222.2666602112858
 20
1359.194027044088
 10
228.496756292312
 20
1367.529138785747
 10
228.2472841942499
 20
1373.514627560473
 10
224.7544804342815
 20
1383.241037193334
 10
225.752417423333
 20
1390.47350985526
 10
227.249347205312
 20
1399.202335458715
 10
226.2513859178588
 20
1407.681776606116
 10
222.5091100597146
 20
1414.415449552469
 10
222.5091100597146
 20
1420.650338184975
 10
223.9687903310104
 20
1425.978389651666
  0
LWPOLYLINE
  5
95B
330
1F
100
AcDbEntity
  8
ceco.net 123
100
AcDbPolyline
 90
        4
 70
     0
 43
0.0
 10
-33.59772600140695
 20
1371.363748233696
 10
-26.26382462210949
 20
1371.363748233696
 10
-19.76333548498496
 20
1372.696704454972
 10
-15.42965986118724
 20
1372.696704454972
  0
LWPOLYLINE
  5
95C
330
1F
100
AcDbEntity
  8
ceco.net 123
100
AcDbPolyline
 90
       32
 70
     0
 43
0.0
 10
-48.26552876000187
 20
1389.858488851066
 10
-42.09838994063739
 20
1390.191735607237
 10
-28.09731211607777
 20
1389.691873173836
 10
-14.42958460927821
 20
1388.025670196361
 10
7.738806836751791
 20
1385.526388832735
 10
24.40676009916478
 20
1378.195145017363
 10
40.24132541780637
 20
1371.696979588156
 10
50.74213986085488
 20
1362.033070086388
 10
56.90930297862087
 20
1351.869282749509
 10
63.74316673202065
 20
1338.039888906626
 10
64.94771336849317
 20
1326.3066675237
 10
66.11447592842615
 20
1304.979398786505
 10
66.28116323656377
 20
1283.985361403798
 10
66.28116323656377
 20
1270.822445671561
 10
63.11884257831571
 20
1254.921922545994
 10
59.95192951456465
 20
1245.257997642516
 10
52.28465351899195
 20
1228.096213246422
 10
47.28427725956044
 20
1219.598628887004
 10
38.95030062846763
 20
1208.268516407747
 10
33.78321276249698
 20
1201.437119624094
 10
22.28232306753943
 20
1192.606303910201
 10
16.28187155642626
 20
1189.44052903422
 10
4.614294553331092
 20
1184.441950905244
 10
-2.719606825966366
 20
1182.942379006709
 10
-16.05398401500588
 20
1182.775763329479
 10
-39.11082367301697
 20
1185.943001367723
 10
-54.77870168363461
 20
1191.60805760733
 10
-64.94616580892307
 20
1198.772685745487
 10
-75.78033056973163
 20
1209.10308875961
 10
-85.44775706900873
 20
1222.599251248019
 10
-90.44815762684175
 20
1233.096269939357
 10
-95.39162098588258
 20
1243.151601624509
  0
LWPOLYLINE
  5
95D
330
1F
100
AcDbEntity
  8
ceco.net 123
100
AcDbPolyline
 90
       17
 70
     0
 43
0.0
 10
-23.54939713439216
 20
1400.879550657412
 10
-16.37192912096816
 20
1401.983375668654
 10
-6.249878782686209
 20
1404.742930495919
 10
9.025190623898197
 20
1406.398660311941
 10
24.48432072423747
 20
1404.374983691601
 10
35.15848024835213
 20
1401.799402266496
 10
48.0411008144265
 20
1394.624547394235
 10
60.00351510567361
 20
1385.977920706414
 10
73.62228125304773
 20
1374.939685995647
 10
80.98376136330989
 20
1369.236587537249
 10
85.58469554418115
 20
1367.21291091691
 10
90.18562972505241
 20
1367.948804525545
 10
99.01942529620193
 20
1371.996157766224
 10
104.0718245186517
 20
1383.257116576493
 10
107.7525767230972
 20
1391.351823057851
 10
108.3046859089299
 20
1396.503001309758
 10
113.0896564851545
 20
1404.781681193276
  0
LWPOLYLINE
  5
95E
330
1F
100
AcDbEntity
  8
ceco.net 123
100
AcDbPolyline
 90
       17
 70
     0
 43
0.0
 10
-190.4346160648665
 20
1480.62036910135
 10
-205.7072799258357
 20
1459.576460988108
 10
-210.6605901041157
 20
1456.275459115806
 10
-215.2011183595768
 20
1448.022946734218
 10
-222.2182895551477
 20
1441.833570148864
 10
-226.34603588779
 20
1439.357807193351
 10
-234.8988928793041
 20
1431.322505099791
 10
-236.881767191111
 20
1427.02783123193
 10
-239.1951246047519
 20
1420.751003748526
 10
-240.8475158149522
 20
1405.554492696017
 10
-242.1694239233183
 20
1371.857850428318
 10
-240.1865496115115
 20
1336.839787818624
 10
-237.8732164963857
 20
1325.937935232266
 10
-233.9074678725446
 20
1305.78601703832
 10
-224.6540625166098
 20
1277.375133147123
 10
-220.6883138927687
 20
1263.830409073383
 10
-215.070174058841
 20
1255.901794611182
  0
LWPOLYLINE
  5
95F
330
1F
100
AcDbEntity
  8
ceco.net 123
100
AcDbPolyline
 90
       14
 70
     0
 43
0.0
 10
-241.1835875582291
 20
1543.690671429564
 10
-243.4969206733549
 20
1521.886966256849
 10
-244.4883699785159
 20
1490.502859643191
 10
-241.1835875582291
 20
1475.306333188944
 10
-238.8702301445882
 20
1467.377703325061
 10
-231.5996991004603
 20
1466.05626758137
 10
-223.3377187511714
 20
1466.05626758137
 10
-220.0329363308846
 20
1466.05626758137
 10
-216.7281539104842
 20
1469.690223577378
 10
-207.1442654528291
 20
1478.940289184981
 10
-200.2042175104215
 20
1482.904596416068
 10
-195.2470438799346
 20
1482.904596416068
 10
-191.6117783579275
 20
1482.904596416068
 10
-190.4346160648665
 20
1480.62036910135
  0
LWPOLYLINE
  5
960
330
1F
100
AcDbEntity
  8
ceco.net 123
100
AcDbPolyline
 90
        9
 70
     0
 43
0.0
 10
-250.1065098124436
 20
1547.65499406236
 10
-254.4027172394899
 20
1539.06564632661
 10
-259.0294320667717
 20
1515.61015417514
 10
-261.0123063786923
 20
1497.770756233512
 10
-262.9951806904991
 20
1495.788602617983
 10
-266.2999631108996
 20
1498.101107468576
 10
-268.1562668414053
 20
1517.414433464898
 10
-263.9866056972587
 20
1536.753141476003
 10
-257.7075239582918
 20
1547.324627425572
  0
LWPOLYLINE
  5
961
330
1F
100
AcDbEntity
  8
ceco.net 123
100
AcDbPolyline
 90
        5
 70
     0
 43
0.0
 10
-271.8225614730763
 20
1547.684411324644
 10
-279.5191170906755
 20
1532.788818843206
 10
-282.4934164092419
 20
1517.922659025748
 10
-283.8153245177218
 20
1504.708301588783
 10
-285.1372569246032
 20
1500.083261084133
  0
LWPOLYLINE
  5
962
330
1F
100
AcDbEntity
  8
ceco.net 123
100
AcDbPolyline
 90
        4
 70
     0
 43
0.0
 10
-290.0944305550901
 20
1553.60145490899
 10
-297.0344784974977
 20
1539.726364198463
 10
-300.6697440195048
 20
1521.886966256849
 10
-302.6526183314254
 20
1502.395781336451
  0
LWPOLYLINE
  5
963
330
1F
100
AcDbEntity
  8
ceco.net 123
100
AcDbPolyline
 90
        6
 70
     0
 43
0.0
 10
-311.8204931736308
 20
1532.94970508505
 10
-310.5841155789939
 20
1534.110254586897
 10
-306.2878838534325
 20
1534.110254586897
 10
-304.6354926432322
 20
1530.145947355796
 10
-306.2878838534325
 20
1518.5833768976
 10
-304.3050095415119
 20
1503.717217080156
  0
LWPOLYLINE
  5
964
330
1F
100
AcDbEntity
  8
ceco.net 123
100
AcDbPolyline
 90
        7
 70
     0
 43
0.0
 10
-290.0944305550901
 20
1553.60145490899
 10
-286.4591650329693
 20
1553.931806144069
 10
-282.6856899761232
 20
1548.36311839144
 10
-286.8951519673182
 20
1535.603573391957
 10
-289.7639474533698
 20
1523.538768637314
 10
-290.7553967585308
 20
1506.029737332488
 10
-289.1030055483306
 20
1500.743978955986
  0
LWPOLYLINE
  5
965
330
1F
100
AcDbEntity
  8
ceco.net 123
100
AcDbPolyline
 90
        4
 70
     0
 43
0.0
 10
-271.8225614730763
 20
1547.684411324644
 10
-264.9780550024197
 20
1553.271088272216
 10
-259.0294320667717
 20
1552.2800191653
 10
-257.7075239582918
 20
1547.324627425572
  0
LWPOLYLINE
  5
966
330
1F
100
AcDbEntity
  8
ceco.net 123
100
AcDbPolyline
 90
        3
 70
     0
 43
0.0
 10
-250.1065098124436
 20
1547.65499406236
 10
-244.1578868767956
 20
1549.30678104113
 10
-241.1835875582291
 20
1543.690671429564
  0
LWPOLYLINE
  5
967
330
1F
100
AcDbEntity
  8
ceco.net 123
100
AcDbPolyline
 90
        2
 70
     0
 43
0.0
 10
-289.1030055483306
 20
1500.743978955986
 10
-285.1372569246032
 20
1500.083261084133
  0
LWPOLYLINE
  5
968
330
1F
100
AcDbEntity
  8
ceco.net 123
100
AcDbPolyline
 90
        2
 70
     0
 43
0.0
 10
-304.3050095415119
 20
1503.717217080156
 10
-302.6526183314254
 20
1502.395781336451
  0
LWPOLYLINE
  5
969
330
1F
100
AcDbEntity
  8
ceco.net 123
100
AcDbPolyline
 90
       10
 70
     0
 43
0.0
 10
79.74818561728716
 20
1254.584193892787
 10
100.3345055427153
 20
1290.330079616103
 10
111.6360508242414
 20
1315.614909636286
 10
119.1704386436604
 20
1340.361742594018
 10
122.3994585236559
 20
1352.1972005147
 10
129.3956601641602
 20
1364.0326430337
 10
138.0063717447192
 20
1376.406067213414
 10
145.5407352656229
 20
1386.627595553624
 10
151.9987750257278
 20
1402.228863492601
 10
157.1130157016077
 20
1411.756499987879
  0
LWPOLYLINE
  5
96A
330
1F
100
AcDbEntity
  8
ceco.net 123
100
AcDbPolyline
 90
        3
 70
     0
 43
0.0
 10
199.5833920665254
 20
1601.268554215513
 10
210.1210842686177
 20
1609.887181645865
 10
226.2661836685956
 20
1617.956798744876
  0
LWPOLYLINE
  5
96B
330
1F
100
AcDbEntity
  8
ceco.net 123
100
AcDbPolyline
 90
       14
 70
     0
 43
0.0
 10
226.2661836685956
 20
1617.956798744876
 10
235.6427335257612
 20
1619.453582934232
 10
245.9836885227523
 20
1617.730717073007
 10
261.4951331673828
 20
1604.809192310403
 10
313.6307681154412
 20
1556.138162423087
 10
333.0200496228562
 20
1535.463725883252
 10
356.7180765530756
 20
1500.575638287449
 10
367.489915811685
 20
1481.193358844399
 10
370.0751484863039
 20
1476.024761260708
 10
388.6026857688839
 20
1462.67252773365
 10
403.2523861886793
 20
1438.983068235819
 10
415.747689598671
 20
1414.001482444624
 10
423.5034119209294
 20
1397.20350179339
 10
429.1047615318993
 20
1383.851268266331
  0
LWPOLYLINE
  5
96C
330
1F
100
AcDbEntity
  8
ceco.net 123
100
AcDbPolyline
 90
        4
 70
     0
 43
0.0
 10
366.6281715868499
 20
1462.67252773365
 10
370.9368927112527
 20
1450.612435901638
 10
379.1234749968416
 20
1440.275225332589
 10
382.5704761946972
 20
1437.260202374579
  0
LWPOLYLINE
  5
96D
330
1F
100
AcDbEntity
  8
ceco.net 123
100
AcDbPolyline
 90
       11
 70
     0
 43
0.0
 10
338.6214235322277
 20
1407.110003598012
 10
338.1905392706094
 20
1417.016490000909
 10
338.1905392706094
 20
1431.230156458587
 10
336.8979107840423
 20
1438.121635305199
 10
331.2965611730724
 20
1443.720957055026
 10
325.6952115622161
 20
1450.612435901638
 10
322.2482346626484
 20
1461.380370636865
 10
314.0616523771732
 20
1467.841125317312
 10
287.3475085106028
 20
1491.099860648992
 10
266.6655985166207
 20
1505.744235871111
 10
256.3106830067417
 20
1511.737022202103
  0
LWPOLYLINE
  5
96E
330
1F
100
AcDbEntity
  8
ceco.net 123
100
AcDbPolyline
 90
        6
 70
     0
 43
0.0
 10
338.6214235322277
 20
1407.110003598012
 10
343.6813552714247
 20
1402.238073713979
 10
349.4813689394468
 20
1407.483803051368
 10
352.7956520504139
 20
1417.423079690612
 10
355.0051822237455
 20
1432.332010051217
 10
353.3480528175195
 20
1443.375666163197
  0
LWPOLYLINE
  5
96F
330
1F
100
AcDbEntity
  8
ceco.net 123
100
AcDbPolyline
 90
        6
 70
     0
 43
0.0
 10
353.9004292863373
 20
1420.736187305413
 10
361.6337727440813
 20
1419.90791425214
 10
373.7862008472311
 20
1408.588167122394
 10
398.0910084565002
 20
1383.739944720849
 10
413.8339200541131
 20
1366.346195200454
 10
413.9726203331938
 20
1366.145391773704
  0
LWPOLYLINE
  5
970
330
1F
100
AcDbEntity
  8
ceco.net 123
100
AcDbPolyline
 90
        3
 70
     0
 43
0.0
 10
429.1047615318993
 20
1383.851268266331
 10
432.2636318115619
 20
1375.58917602235
 10
432.0464915650709
 20
1366.025123498863
  0
LWPOLYLINE
  5
971
330
1F
100
AcDbEntity
  8
ceco.net 123
100
AcDbPolyline
 90
        7
 70
     0
 43
0.0
 10
392.4819562396314
 20
1415.498205027168
 10
404.8596551931459
 20
1401.062753974164
 10
413.3693338542307
 20
1388.947308403592
 10
423.6840951313033
 20
1374.254094365374
 10
424.4577089092408
 20
1366.520819765844
 10
419.3003404199052
 20
1364.716386458999
 10
413.9726203331938
 20
1366.145391773704
  0
LWPOLYLINE
  5
972
330
1F
100
AcDbEntity
  8
ceco.net 123
100
AcDbPolyline
 90
        4
 70
     0
 43
0.0
 10
418.0414796633121
 20
1365.054039091324
 10
422.8957807964625
 20
1357.889610187745
 10
428.1852113149361
 20
1352.436851091317
 10
430.9885206333738
 20
1351.354731391344
  0
LWPOLYLINE
  5
973
330
1F
100
AcDbEntity
  8
ceco.net 123
100
AcDbPolyline
 90
        6
 70
     0
 43
0.0
 10
430.9885206333738
 20
1351.354731391344
 10
432.8911147626931
 20
1352.817735330353
 10
434.5482441689191
 20
1359.44391975652
 10
429.3006312681163
 20
1373.248486046085
 10
408.8624832385185
 20
1405.275074909317
 10
394.5005249620371
 20
1421.288369340933
  0
LWPOLYLINE
  5
974
330
1F
100
AcDbEntity
  8
ceco.net 123
100
AcDbPolyline
 90
        4
 70
     0
 43
0.0
 10
402.592464818209
 20
1422.564231430618
 10
409.5676726053588
 20
1413.177922314011
 10
419.2256470109859
 20
1395.478033043522
 10
424.3169755800372
 20
1381.057877167483
  0
CIRCLE
  5
975
330
1F
100
AcDbEntity
  8
ceco.net 123
 62
     5
100
AcDbCircle
 10
-91.57498464128735
 20
1887.778466523636
 30
0.0
 40
103.2863912681629
  0
ARC
  5
976
330
1F
100
AcDbEntity
  8
ceco.net 123
 62
     5
100
AcDbCircle
 10
-60.44446434862408
 20
1920.25613558692
 30
0.0
 40
89.95464807926106
100
AcDbArc
 50
144.3635339375078
 51
210.5640390255941
  0
ARC
  5
977
330
1F
100
AcDbEntity
  8
ceco.net 123
 62
     5
100
AcDbCircle
 10
-167.7251034421979
 20
1595.666319487159
 30
0.0
 40
280.4381671013747
100
AcDbArc
 50
59.33669594715127
 51
83.89513710396789
  0
ARC
  5
978
330
1F
100
AcDbEntity
  8
ceco.net 123
 62
     5
100
AcDbCircle
 10
-103.2752206915611
 20
1854.380462329453
 30
0.0
 40
80.49384240244478
100
AcDbArc
 50
309.6663060635087
 51
347.452574424875
  0
ARC
  5
979
330
1F
100
AcDbEntity
  8
ceco.net 123
 62
     5
100
AcDbCircle
 10
-247.7328314365686
 20
1918.785464392864
 30
0.0
 40
118.4187450190529
100
AcDbArc
 50
308.3388809716947
 51
338.0464767489524
  0
ARC
  5
97A
330
1F
100
AcDbEntity
  8
ceco.net 123
 62
     5
100
AcDbCircle
 10
-101.3674189297299
 20
1817.985852048204
 30
0.0
 40
157.9946064613226
100
AcDbArc
 50
51.88452777844422
 51
101.7542957927616
  0
ARC
  5
97B
330
1F
100
AcDbEntity
  8
ceco.net 123
 62
     5
100
AcDbCircle
 10
-92.50889628072314
 20
1929.105017333379
 30
0.0
 40
114.4574728560929
100
AcDbArc
 50
306.3277771711487
 51
335.3415527480604
  0
ARC
  5
97C
330
1F
100
AcDbEntity
  8
ceco.net 123
 62
     5
100
AcDbCircle
 10
-358.1422119133358
 20
1758.238917436864
 30
0.0
 40
310.5152534618385
100
AcDbArc
 50
43.67420217789823
 51
45.33432559820615
  0
LWPOLYLINE
  5
97D
330
1F
100
AcDbEntity
  8
ceco.net 123
100
AcDbPolyline
 90
        8
 70
     0
 43
0.0
 10
48.21510195347037
 20
1157.964412616911
 10
43.1539309936361
 20
1131.359764032387
 10
41.48365613059104
 20
1109.562558380451
 10
44.30234823041337
 20
1090.684115011461
 10
49.376008589089
 20
1072.932753232811
 10
58.11397110721464
 20
1060.253204704727
 10
71.92559398412959
 20
1048.41894811725
 10
78.78662165705555
 20
1043.647792119577
  0
LWPOLYLINE
  5
97E
330
1F
100
AcDbEntity
  8
ceco.net 123
100
AcDbPolyline
 90
       15
 70
     0
 43
0.0
 10
-149.0211959096577
 20
1207.987152162053
 10
-146.299097163027
 20
1196.607944881512
 10
-143.0354520039181
 20
1185.080644334624
 10
-139.1191021115255
 20
1173.988334227052
 10
-138.4663973782417
 20
1163.766004998015
 10
-137.1609393146436
 20
1141.363897264062
 10
-135.3273060299252
 20
1107.806116795762
 10
-131.3674619274288
 20
1078.574629901885
 10
-126.7983830032371
 20
1058.7824802053
 10
-122.2293040790455
 20
1048.429652304326
 10
-109.7405126514595
 20
1022.547605654414
 10
-97.25169692535837
 20
997.8835414755362
 10
-83.8490897128886
 20
979.3093588482602
 10
-75.62474764938906
 20
960.7351762209701
 10
-73.18790555644136
 20
933.635147100068
  0
LWPOLYLINE
  5
97F
330
1F
100
AcDbEntity
  8
ceco.net 123
100
AcDbPolyline
 90
        5
 70
     0
 43
0.0
 10
-145.6045156381869
 20
1194.154660409586
 10
-142.2819087387133
 20
1192.876942723321
 10
-135.7825373298774
 20
1189.569364321704
 10
-127.8060393688101
 20
1185.966473570735
 10
-120.2232308193097
 20
1182.425379158436
  0
LWPOLYLINE
  5
980
330
1F
100
AcDbEntity
  8
ceco.net 123
100
AcDbPolyline
 90
       27
 70
     0
 43
0.0
 10
-120.2232308193097
 20
1182.425379158436
 10
-114.3198941147184
 20
1178.32020321976
 10
-103.3978418912547
 20
1169.252617048647
 10
-92.4757896677911
 20
1163.145886028493
 10
-77.29597015157105
 20
1156.854088084875
 10
-61.37567993164703
 20
1151.30251162987
 10
-46.38101453895524
 20
1147.60146579376
 10
-25.46248632257084
 20
1146.121038218302
 10
-7.505889518032745
 20
1144.640626044525
 10
9.525106757560934
 20
1145.380832131414
 10
29.5180344451146
 20
1149.822099456107
 10
40.81032202054394
 20
1153.708196813928
 10
48.21510195347037
 20
1157.964412616911
 10
51.91750406913434
 20
1163.886092115353
 10
61.23624793405816
 20
1196.107574191719
 10
71.26929308139643
 20
1224.660970087134
 10
79.74818561728716
 20
1254.584193892787
 10
91.623903069486
 20
1286.890785807605
 10
100.1394133564835
 20
1308.541937062491
 10
105.3227568796692
 20
1329.267830708792
 10
113.4680318149285
 20
1351.659203452277
 10
119.0216106899661
 20
1373.6804577506
 10
119.2067405150928
 20
1384.598559138899
 10
118.2811399862621
 20
1398.292464156417
 10
116.6150687535
 20
1409.395617066442
 10
112.912666637836
 20
1413.096662902552
 10
113.0896564851545
 20
1404.781681193276
  0
LWPOLYLINE
  5
981
330
1F
100
AcDbEntity
  8
ceco.net 123
100
AcDbPolyline
 90
        8
 70
     0
 43
0.0
 10
-68.02944363721872
 20
937.9349497367057
 10
-58.7436970556646
 20
948.1456044710707
 10
-42.33884731695889
 20
958.6656641175945
 10
-21.60063783424357
 20
972.2798498944822
 10
-2.410044682282205
 20
981.2528387749834
 10
22.97103809109648
 20
991.4634935093486
 10
43.39973402704436
 20
1000.436482389864
 10
64.44745705652713
 20
1009.718891584276
  0
LWPOLYLINE
  5
982
330
1F
100
AcDbEntity
  8
ceco.net 123
100
AcDbPolyline
 90
       12
 70
     0
 43
0.0
 10
78.78662165705555
 20
1043.647792119577
 10
89.2095127364846
 20
1035.709628087593
 10
105.9238760219577
 20
1022.404847222892
 10
128.8287532274771
 20
1005.077679286207
 10
144.9240894194153
 20
988.3693519773032
 10
159.162271435317
 20
969.1857237641469
 10
166.2813502940671
 20
953.0962216812977
 10
170.6147100380767
 20
935.45964883244
 10
172.7813777608807
 20
910.3971578690899
 10
170.9242235848441
 20
891.5229191663824
 10
168.4480180168711
 20
884.0970010518899
 10
167.2099152328846
 20
877.9087333895231
  0
LWPOLYLINE
  5
983
330
1F
100
AcDbEntity
  8
ceco.net 123
100
AcDbPolyline
 90
       26
 70
     0
 43
0.0
 10
-55.43587733018648
 20
929.4346392749643
 10
-40.45314247230544
 20
941.4996904569274
 10
-24.22185650062056
 20
951.9006024903319
 10
-5.077260298325199
 20
962.7175454604412
 10
11.98639308256224
 20
970.2061947316506
 10
34.04429951558177
 20
977.2788130661551
 10
58.59933247461049
 20
981.8552149768947
 10
82.32197372592144
 20
983.1033231887769
 10
99.80181081141019
 20
979.7750294898774
 10
115.2007293738924
 20
966.8779010327652
 10
125.6053948842427
 20
951.0685252151828
 10
132.2644070532951
 20
931.5148247619813
 10
133.9291418717002
 20
907.8007533347458
 10
128.5187051149669
 20
881.5904654837877
 10
119.7787987214232
 20
857.4603631198325
 10
105.2122475681435
 20
828.753874246834
 10
96.47231687619843
 20
812.5284520908079
 10
91.06190441798025
 20
799.2152926969479
 10
86.06765136584817
 20
766.7644637866342
 10
85.28354066129031
 20
726.2159558653333
 10
84.86735695668903
 20
662.1463599181306
 10
79.87310390455696
 20
624.2870672236104
 10
72.79793232941847
 20
588.5079446144118
 10
69.05225468960543
 20
569.7863214363733
 10
67.38751987120031
 20
550.2326055814619
 10
66.35128853849528
 20
527.8734532111484
  0
LWPOLYLINE
  5
984
330
1F
100
AcDbEntity
  8
ceco.net 123
100
AcDbPolyline
 90
       33
 70
     0
 43
0.0
 10
-55.43587733018648
 20
929.4346392749643
 10
-64.89091115304654
 20
916.596653376578
 10
-70.63955791580065
 20
893.6103742595859
 10
-77.4334264347126
 20
819.9497496929152
 10
-77.4334264347126
 20
763.5288575665468
 10
-76.3429852792151
 20
723.6309948000662
 10
-70.51276864854481
 20
695.3960138160282
 10
-60.47087886850386
 20
652.7334828552024
 10
-55.03155126496404
 20
633.9117793785276
 10
-52.93947975735955
 20
611.7439932301977
 10
-52.52106059618109
 20
572.0092961583473
 10
-46.18798772037644
 20
541.7092233611297
 10
-36.56454140002916
 20
516.1953699428691
 10
-26.94107078128036
 20
494.4458325772184
 10
-17.31760016241787
 20
472.2780618306269
 10
-9.786201051273565
 20
440.0720276673751
 10
0.6740835914306445
 20
389.4625542118374
 10
14.9499038931217
 20
341.152910001233
 10
35.03363485628688
 20
285.9425767226239
 10
44.65710547503568
 20
247.8809055848842
 10
53.44373777142755
 20
197.6896963137219
 10
54.28057609389816
 20
152.0993468656597
 10
51.35169056233826
 20
120.7298410711728
 10
43.26363845666128
 20
101.2802253607019
 10
38.23874506997162
 20
82.52749073247924
 10
32.87889766829357
 20
71.14190130099541
 10
18.80924964200039
 20
59.42143253229506
 10
2.72965884016321
 20
39.32922676029284
 10
-11.67496749951988
 20
26.93901471884009
 10
-14.01991288696899
 20
19.57186952210167
 10
-14.3549154988741
 20
7.851416155096558
 10
-3.970174710392711
 20
1.823742102152209
 10
7.754527928337665
 20
2.493485374890042
  0
LWPOLYLINE
  5
985
330
1F
100
AcDbEntity
  8
ceco.net 123
100
AcDbPolyline
 90
       21
 70
     0
 43
0.0
 10
31.53893581781721
 20
17.22777576836688
 10
45.94356215750031
 20
23.59031375684662
 10
56.99828387116304
 20
34.30617531728876
 10
66.37804112255799
 20
46.02662868427933
 10
77.76774114949694
 20
63.43987676702591
 10
85.80753655041553
 20
77.50443928947515
 10
96.86225826407827
 20
87.21567823994837
 10
110.9319062903714
 20
94.91768737222219
 10
130.0264234049527
 20
103.9591830499571
 10
141.0811451185018
 20
113.3355580649235
 10
149.120940519534
 20
119.6980960534033
 10
152.1358668321645
 20
126.060634041883
 10
152.8058477573458
 20
134.4323864468801
 10
152.1358668321645
 20
145.4831119428431
 10
146.441016818695
 20
156.5338220371099
 10
140.076161581529
 20
168.2542908058108
 10
133.0413497175832
 20
177.630650419067
 10
127.3464997041137
 20
189.6859831232886
 10
124.3315733914832
 20
201.0715725547725
 10
121.3166470787391
 20
213.461769194515
 10
118.6864865859397
 20
234.0566251090677
  0
LWPOLYLINE
  5
986
330
1F
100
AcDbEntity
  8
ceco.net 123
100
AcDbPolyline
 90
        4
 70
     0
 43
0.0
 10
7.754527928337665
 20
2.493485374890042
 10
19.1442279553903
 20
8.856023363369786
 10
27.51902596810032
 20
14.21395414360495
 10
31.53893581781721
 20
17.22777576836688
  0
LWPOLYLINE
  5
987
330
1F
100
AcDbEntity
  8
ceco.net 123
100
AcDbPolyline
 90
       15
 70
     0
 43
0.0
 10
66.35128853849528
 20
527.8734532111484
 10
65.82760852904448
 20
518.4831550521435
 10
68.30536919732913
 20
507.7500743821501
 10
74.91272287984066
 20
499.9066775703568
 10
86.47559789880778
 20
481.3302000885978
 10
96.38664057171901
 20
460.2768507283399
 10
103.8199225764592
 20
440.874749287067
 10
111.2532045811994
 20
417.7573554297905
 10
117.0346542398838
 20
396.7040214712283
 10
119.5124149081684
 20
371.109755735466
 10
118.2735345740829
 20
342.2130095634429
 10
116.6216779296255
 20
314.554699330662
 10
115.7957739057983
 20
283.5939086616063
 10
116.6216779296255
 20
260.4765148043298
 10
118.6864865859397
 20
234.0566251090677
  0
LWPOLYLINE
  5
988
330
1F
100
AcDbEntity
  8
ceco.net 123
100
AcDbPolyline
 90
        3
 70
     0
 43
0.0
 10
-73.18790555644136
 20
933.635147100068
 10
-72.00969843052371
 20
918.4546692255876
 10
-68.12074154993661
 20
903.6819995342908
  0
LWPOLYLINE
  5
989
330
1F
100
AcDbEntity
  8
ceco.net 123
100
AcDbPolyline
 90
        2
 70
     0
 43
0.0
 10
-68.02944363721872
 20
937.9349497367057
 10
-73.18026600910707
 20
933.5367162077458
  0
LWPOLYLINE
  5
98A
330
1F
100
AcDbEntity
  8
ceco.net 123
100
AcDbPolyline
 90
        7
 70
     0
 43
0.0
 10
149.288809789592
 20
982.4886031047753
 10
150.2259850382151
 20
971.2466417144495
 10
150.4566258441818
 20
959.0271730079875
 10
149.5340626204288
 20
948.6521666474683
 10
145.8438340239317
 20
939.4299319262472
 10
138.463376830824
 20
922.5993458591601
 10
133.5057894773362
 20
913.8313888487401
  0
LWPOLYLINE
  5
98B
330
1F
100
AcDbEntity
  8
ceco.net 123
100
AcDbPolyline
 90
        6
 70
     0
 43
0.0
 10
64.44745705652713
 20
1009.718891584276
 10
78.00533130966505
 20
1014.725694225324
 10
84.87122040889607
 20
1018.15739499178
 10
89.80606377167168
 20
1021.160127386798
 10
94.74090713456098
 20
1026.951107991086
 10
96.2990608691107
 20
1030.06628513018
  0
LWPOLYLINE
  5
98C
330
1F
100
AcDbEntity
  8
ceco.net 123
100
AcDbPolyline
 90
        5
 70
     0
 43
0.0
 10
130.6224884713137
 20
873.7753924130284
 10
137.9889740605867
 20
877.1943097618386
 10
147.1971114202651
 20
880.3502429464115
 10
155.3528832820311
 20
880.8762266765965
 10
160.351582948916
 20
881.6652099727434
  0
LWPOLYLINE
  5
98D
330
1F
100
AcDbEntity
  8
ceco.net 123
100
AcDbPolyline
 90
       30
 70
     0
 43
0.0
 10
167.2099152328846
 20
877.9087333895231
 10
172.6133297399846
 20
856.6502332785772
 10
177.7698720823045
 20
830.8768148752587
 10
188.4512968404087
 20
803.6306235453789
 10
199.8693774470402
 20
777.8572051420606
 10
213.8657170755741
 20
743.247179982623
 10
221.9688828116622
 20
711.2145074447425
 10
229.7037084743997
 20
669.6088416874545
 10
234.4919350417703
 20
649.3582909554247
 10
240.7534490075668
 20
634.9988165280306
 10
259.5380152033576
 20
611.8027353445313
 10
272.4294075069301
 20
593.3931507707425
 10
304.5877143667858
 20
570.8016328316944
 10
331.1071305238292
 20
549.4465178064215
 10
357.2582066074082
 20
518.5184095617696
 10
371.669733704376
 20
490.7907762412319
 10
383.4561543843583
 20
461.7036187531112
 10
399.6624372598453
 20
411.2613616414137
 10
412.1854894899533
 20
372.9694195672318
 10
423.6035700964712
 20
347.9323876272019
 10
431.7406321584903
 20
330.5440441063237
 10
445.3056258549822
 20
310.2039324422262
 10
451.7932125196439
 20
304.0134623356093
 10
460.639934861656
 20
298.7073583028404
 10
472.7304748345177
 20
295.4647289038857
 10
481.8720830614856
 20
293.1064501770688
 10
488.6545799097311
 20
281.0202986551271
 10
489.2443516798684
 20
270.1132864965866
 10
481.577197176417
 20
248.2992467778103
 10
473.0253607194717
 20
227.074784441575
  0
LWPOLYLINE
  5
98E
330
1F
100
AcDbEntity
  8
ceco.net 123
100
AcDbPolyline
 90
       35
 70
     0
 43
0.0
 10
91.29601990093396
 20
668.01157675504
 10
106.3354430226545
 20
637.6487882028295
 10
124.3237978901524
 20
609.3495050878541
 10
138.1836774717121
 20
587.2406920794815
 10
145.5559460899812
 20
578.1023812652165
 10
152.0435327547565
 20
566.3110184345383
 10
161.4800511653093
 20
553.9300782213045
 10
172.6859091845617
 20
539.7804366638238
 10
181.2377456413932
 20
534.7691059206226
 10
187.4304464212136
 20
532.4108271938057
 10
198.0465326703288
 20
528.5786358140057
 10
209.252366391066
 20
522.093377016125
 10
221.0480204788573
 20
512.0707155297223
 10
231.9589683146396
 20
498.8054246443653
 10
242.280168678686
 20
485.8349224502858
 10
252.8962306293997
 20
472.5696315649283
 10
270.672508700155
 20
448.8122505347774
 10
288.3659533841828
 20
423.7555968187562
 10
303.7002866893735
 20
408.1320272065823
 10
321.6886415568715
 20
386.9075648703469
 10
337.022950563547
 20
368.9257319330663
 10
347.049240744237
 20
354.7760903755857
 10
360.3193485556594
 20
332.3724886759346
 10
373.0345771588154
 20
301.8726711275885
 10
381.2915277306919
 20
281.2377861739091
 10
386.3046849702377
 20
264.4350771983194
 10
393.3820677035519
 20
250.5802243321168
 10
396.3309751509277
 20
238.1992841188971
 10
399.8696543683272
 20
218.1539611460775
 10
404.5879257228043
 20
196.0451481377331
 10
408.1266049402038
 20
179.5372278534214
 10
408.4214908252724
 20
164.7980243150809
 10
409.6010586638349
 20
152.1222954105692
 10
407.8317190551351
 20
143.5735465771499
 10
405.7835791296574
 20
136.6448572039953
  0
LWPOLYLINE
  5
98F
330
1F
100
AcDbEntity
  8
ceco.net 123
100
AcDbPolyline
 90
       11
 70
     0
 43
0.0
 10
406.0623794464354
 20
107.0203187217284
 10
422.2813704067184
 20
112.03164946493
 10
434.3718860811768
 20
120.5803828966677
 10
444.3981762617531
 20
129.7186937109472
 10
451.7704691785383
 20
142.9839845963042
 10
457.6682840731755
 20
155.9544867903837
 10
463.271213082744
 20
168.9249889844486
 10
467.1047781852121
 20
188.3807499764229
 10
467.6945742537518
 20
200.7616901896426
 10
468.5792319089578
 20
212.2582797307386
 10
473.0253607194717
 20
227.074784441575
  0
LWPOLYLINE
  5
990
330
1F
100
AcDbEntity
  8
ceco.net 123
100
AcDbPolyline
 90
        6
 70
     0
 43
0.0
 10
405.7835791296574
 20
136.6448572039953
 10
402.2287900455657
 20
128.8343430388235
 10
397.8054288745588
 20
119.9908209158079
 10
395.4462931973202
 20
112.9160001370673
 10
398.9849967131212
 20
108.4942313747119
 10
406.0623794464354
 20
107.0203187217284
  0
LWPOLYLINE
  5
991
330
1F
100
AcDbEntity
  8
ceco.net 123
100
AcDbPolyline
 90
        4
 70
     0
 43
0.0
 10
444.3448897796961
 20
242.083256041019
 10
439.4302141232592
 20
212.6058654770786
 10
439.4302141232592
 20
193.7100797848697
 10
435.6496925183782
 20
176.3259717336804
  0
ENDSEC
  0
SECTION
  2
OBJECTS
  0
DICTIONARY
  5
C
330
0
100
AcDbDictionary
281
     1
  3
ACAD_GROUP
350
D
  3
ACAD_LAYOUT
350
1A
  3
ACAD_MLINESTYLE
350
17
  3
ACAD_PLOTSETTINGS
350
19
  3
ACAD_PLOTSTYLENAME
350
E
  3
AcDbVariableDictionary
350
115
  3
DWGPROPS
350
8E3
  0
DICTIONARY
  5
8FC
330
2
100
AcDbDictionary
280
     1
281
     1
  3
ACAD_LAYERFILTERS
360
992
  3
ACAD_LAYERSTATES
360
8FD
  0
DICTIONARY
  5
8F2
330
8F1
100
AcDbDictionary
280
     1
281
     1
  3
ACAD_XREC_ROUNDTRIP
360
8F3
  0
DICTIONARY
  5
D
102
{ACAD_REACTORS
330
C
102
}
330
C
100
AcDbDictionary
281
     1
  0
DICTIONARY
  5
1A
102
{ACAD_REACTORS
330
C
102
}
330
C
100
AcDbDictionary
281
     1
  3
Layout1
350
1E
  3
Layout2
350
26
  3
Model
350
22
  0
DICTIONARY
  5
17
102
{ACAD_REACTORS
330
C
102
}
330
C
100
AcDbDictionary
281
     1
  3
Standard
350
18
  0
DICTIONARY
  5
19
102
{ACAD_REACTORS
330
C
102
}
330
C
100
AcDbDictionary
281
     1
  0
ACDBDICTIONARYWDFLT
  5
E
102
{ACAD_REACTORS
330
C
102
}
330
C
100
AcDbDictionary
281
     1
  3
Normal
350
F
100
AcDbDictionaryWithDefault
340
F
  0
DICTIONARY
  5
115
102
{ACAD_REACTORS
330
C
102
}
330
C
100
AcDbDictionary
281
     1
  3
DIMASSOC
350
117
  3
HIDETEXT
350
116
  0
XRECORD
  5
8E3
102
{ACAD_REACTORS
330
C
102
}
330
C
100
AcDbXrecord
280
     1
  1
DWGPROPS COOKIE
  2
Ceco.NET-Trees-and-Plants - T - xx . 67 . dwg
  3

  4
ceco.net
  6

  7

  8
peacosta
  9

300
=
301
=
302
=
303
=
304
=
305
=
306
=
307
=
308
=
309
=
 40
0.0450312037037037
 41
2455079.811409143
 42
2455838.656599502
  1

 90
        0
  0
DICTIONARY
  5
992
102
{ACAD_REACTORS
330
8FC
102
}
330
8FC
100
AcDbDictionary
280
     1
281
     1
  0
DICTIONARY
  5
8FD
102
{ACAD_REACTORS
330
8FC
102
}
330
8FC
100
AcDbDictionary
281
     1
  0
XRECORD
  5
8F3
102
{ACAD_REACTORS
330
8F2
102
}
330
8F2
100
AcDbXrecord
280
     1
102
MATERIAL
340
0
  0
LAYOUT
  5
1E
102
{ACAD_REACTORS
330
1A
102
}
330
1A
100
AcDbPlotSettings
  1

  2
Microsoft Office Document Image Writer
  4

  6

 40
0.0
 41
0.0
 42
0.0
 43
0.0
 44
0.0
 45
0.0
 46
0.0
 47
0.0
 48
0.0
 49
0.0
140
0.0
141
0.0
142
1.0
143
1.0
 70
   688
 72
     0
 73
     0
 74
     5
  7

 75
    16
147
1.0
148
0.0
149
0.0
100
AcDbLayout
  1
Layout1
 70
     1
 71
     1
 10
0.0
 20
0.0
 11
420.0
 21
297.0
 12
0.0
 22
0.0
 32
0.0
 14
1.000000000000000E+20
 24
1.000000000000000E+20
 34
1.000000000000000E+20
 15
-1.000000000000000E+20
 25
-1.000000000000000E+20
 35
-1.000000000000000E+20
146
0.0
 13
0.0
 23
0.0
 33
0.0
 16
1.0
 26
0.0
 36
0.0
 17
0.0
 27
1.0
 37
0.0
 76
     0
330
1B
  0
LAYOUT
  5
26
102
{ACAD_REACTORS
330
1A
102
}
330
1A
100
AcDbPlotSettings
  1

  2
Microsoft Office Document Image Writer
  4

  6

 40
0.0
 41
0.0
 42
0.0
 43
0.0
 44
0.0
 45
0.0
 46
0.0
 47
0.0
 48
0.0
 49
0.0
140
0.0
141
0.0
142
1.0
143
1.0
 70
   688
 72
     0
 73
     0
 74
     5
  7

 75
    16
147
1.0
148
0.0
149
0.0
100
AcDbLayout
  1
Layout2
 70
     1
 71
     2
 10
0.0
 20
0.0
 11
12.0
 21
9.0
 12
0.0
 22
0.0
 32
0.0
 14
0.0
 24
0.0
 34
0.0
 15
0.0
 25
0.0
 35
0.0
146
0.0
 13
0.0
 23
0.0
 33
0.0
 16
1.0
 26
0.0
 36
0.0
 17
0.0
 27
1.0
 37
0.0
 76
     0
330
23
  0
LAYOUT
  5
22
102
{ACAD_REACTORS
330
1A
102
}
330
1A
100
AcDbPlotSettings
  1

  2
Microsoft Office Document Image Writer
  4

  6

 40
0.0
 41
0.0
 42
0.0
 43
0.0
 44
0.0
 45
0.0
 46
0.0
 47
0.0
 48
0.0
 49
0.0
140
0.0
141
0.0
142
1.0
143
1.0
 70
  1712
 72
     0
 73
     0
 74
     0
  7

 75
     0
147
1.0
148
0.0
149
0.0
100
AcDbLayout
  1
Model
 70
     1
 71
     0
 10
0.0
 20
0.0
 11
12.0
 21
9.0
 12
0.0
 22
0.0
 32
0.0
 14
0.0
 24
0.0
 34
0.0
 15
0.0
 25
0.0
 35
0.0
146
0.0
 13
0.0
 23
0.0
 33
0.0
 16
1.0
 26
0.0
 36
0.0
 17
0.0
 27
1.0
 37
0.0
 76
     0
330
1F
  0
MLINESTYLE
  5
18
102
{ACAD_REACTORS
330
17
102
}
330
17
100
AcDbMlineStyle
  2
STANDARD
 70
     0
  3

 62
   256
 51
90.0
 52
90.0
 71
     2
 49
0.5
 62
   256
  6
BYLAYER
 49
-0.5
 62
   256
  6
BYLAYER
  0
ACDBPLACEHOLDER
  5
F
102
{ACAD_REACTORS
330
E
102
}
330
E
  0
DICTIONARYVAR
  5
117
102
{ACAD_REACTORS
330
115
102
}
330
115
100
DictionaryVariables
280
     0
  1
2
  0
DICTIONARYVAR
  5
116
102
{ACAD_REACTORS
330
115
102
}
330
115
100
DictionaryVariables
280
     0
  1
1
  0
ENDSEC
  0
EOF
