  0
SECTION
  2
HEADER
  9
$ACADVER
  1
AC1015
  9
$ACADMAINTVER
 70
    13
  9
$DWGCODEPAGE
  3
ANSI_1252
  9
$INSBASE
 10
0.0
 20
0.0
 30
0.0
  9
$EXTMIN
 10
-1300.248695545746
 20
0.010601874513327
 30
0.0
  9
$EXTMAX
 10
311.3702529575062
 20
1016.955345898071
 30
0.0
  9
$LIMMIN
 10
0.0
 20
0.0
  9
$LIMMAX
 10
420.0
 20
297.0
  9
$ORTHOMODE
 70
     0
  9
$REGENMODE
 70
     1
  9
$FILLMODE
 70
     1
  9
$QTEXTMODE
 70
     0
  9
$MIRRTEXT
 70
     1
  9
$LTSCALE
 40
1.0
  9
$ATTMODE
 70
     1
  9
$TEXTSIZE
 40
2.5
  9
$TRACEWID
 40
1.0
  9
$TEXTSTYLE
  7
Standard
  9
$CLAYER
  8
ceco.net 416
  9
$CELTYPE
  6
ByLayer
  9
$CECOLOR
 62
   256
  9
$CELTSCALE
 40
1.0
  9
$DISPSILH
 70
     0
  9
$DIMSCALE
 40
1.0
  9
$DIMASZ
 40
2.5
  9
$DIMEXO
 40
0.625
  9
$DIMDLI
 40
3.75
  9
$DIMRND
 40
0.0
  9
$DIMDLE
 40
0.0
  9
$DIMEXE
 40
1.25
  9
$DIMTP
 40
0.0
  9
$DIMTM
 40
0.0
  9
$DIMTXT
 40
2.5
  9
$DIMCEN
 40
2.5
  9
$DIMTSZ
 40
0.0
  9
$DIMTOL
 70
     0
  9
$DIMLIM
 70
     0
  9
$DIMTIH
 70
     0
  9
$DIMTOH
 70
     0
  9
$DIMSE1
 70
     0
  9
$DIMSE2
 70
     0
  9
$DIMTAD
 70
     1
  9
$DIMZIN
 70
     8
  9
$DIMBLK
  1

  9
$DIMASO
 70
     1
  9
$DIMSHO
 70
     1
  9
$DIMPOST
  1

  9
$DIMAPOST
  1

  9
$DIMALT
 70
     0
  9
$DIMALTD
 70
     3
  9
$DIMALTF
 40
0.03937007874016
  9
$DIMLFAC
 40
1.0
  9
$DIMTOFL
 70
     1
  9
$DIMTVP
 40
0.0
  9
$DIMTIX
 70
     0
  9
$DIMSOXD
 70
     0
  9
$DIMSAH
 70
     0
  9
$DIMBLK1
  1

  9
$DIMBLK2
  1

  9
$DIMSTYLE
  2
ISO-25
  9
$DIMCLRD
 70
     0
  9
$DIMCLRE
 70
     0
  9
$DIMCLRT
 70
     0
  9
$DIMTFAC
 40
1.0
  9
$DIMGAP
 40
0.625
  9
$DIMJUST
 70
     0
  9
$DIMSD1
 70
     0
  9
$DIMSD2
 70
     0
  9
$DIMTOLJ
 70
     0
  9
$DIMTZIN
 70
     8
  9
$DIMALTZ
 70
     0
  9
$DIMALTTZ
 70
     0
  9
$DIMUPT
 70
     0
  9
$DIMDEC
 70
     2
  9
$DIMTDEC
 70
     2
  9
$DIMALTU
 70
     2
  9
$DIMALTTD
 70
     3
  9
$DIMTXSTY
  7
Standard
  9
$DIMAUNIT
 70
     0
  9
$DIMADEC
 70
     0
  9
$DIMALTRND
 40
0.0
  9
$DIMAZIN
 70
     0
  9
$DIMDSEP
 70
    44
  9
$DIMATFIT
 70
     3
  9
$DIMFRAC
 70
     0
  9
$DIMLDRBLK
  1

  9
$DIMLUNIT
 70
     2
  9
$DIMLWD
 70
    -2
  9
$DIMLWE
 70
    -2
  9
$DIMTMOVE
 70
     0
  9
$LUNITS
 70
     2
  9
$LUPREC
 70
     4
  9
$SKETCHINC
 40
1.0
  9
$FILLETRAD
 40
10.0
  9
$AUNITS
 70
     0
  9
$AUPREC
 70
     0
  9
$MENU
  1
.
  9
$ELEVATION
 40
0.0
  9
$PELEVATION
 40
0.0
  9
$THICKNESS
 40
0.0
  9
$LIMCHECK
 70
     0
  9
$CHAMFERA
 40
10.0
  9
$CHAMFERB
 40
10.0
  9
$CHAMFERC
 40
20.0
  9
$CHAMFERD
 40
0.0
  9
$SKPOLY
 70
     0
  9
$TDCREATE
 40
2457858.695660799
  9
$TDUCREATE
 40
2457858.820660799
  9
$TDUPDATE
 40
2458311.018811886
  9
$TDUUPDATE
 40
2458311.143811886
  9
$TDINDWG
 40
0.0039660417
  9
$TDUSRTIMER
 40
0.0039660301
  9
$USRTIMER
 70
     1
  9
$ANGBASE
 50
0.0
  9
$ANGDIR
 70
     0
  9
$PDMODE
 70
     0
  9
$PDSIZE
 40
0.0
  9
$PLINEWID
 40
0.0
  9
$SPLFRAME
 70
     0
  9
$SPLINETYPE
 70
     6
  9
$SPLINESEGS
 70
     8
  9
$HANDSEED
  5
4C2
  9
$SURFTAB1
 70
     6
  9
$SURFTAB2
 70
     6
  9
$SURFTYPE
 70
     6
  9
$SURFU
 70
     6
  9
$SURFV
 70
     6
  9
$UCSBASE
  2

  9
$UCSNAME
  2

  9
$UCSORG
 10
0.0
 20
0.0
 30
0.0
  9
$UCSXDIR
 10
1.0
 20
0.0
 30
0.0
  9
$UCSYDIR
 10
0.0
 20
1.0
 30
0.0
  9
$UCSORTHOREF
  2

  9
$UCSORTHOVIEW
 70
     0
  9
$UCSORGTOP
 10
0.0
 20
0.0
 30
0.0
  9
$UCSORGBOTTOM
 10
0.0
 20
0.0
 30
0.0
  9
$UCSORGLEFT
 10
0.0
 20
0.0
 30
0.0
  9
$UCSORGRIGHT
 10
0.0
 20
0.0
 30
0.0
  9
$UCSORGFRONT
 10
0.0
 20
0.0
 30
0.0
  9
$UCSORGBACK
 10
0.0
 20
0.0
 30
0.0
  9
$PUCSBASE
  2

  9
$PUCSNAME
  2

  9
$PUCSORG
 10
0.0
 20
0.0
 30
0.0
  9
$PUCSXDIR
 10
1.0
 20
0.0
 30
0.0
  9
$PUCSYDIR
 10
0.0
 20
1.0
 30
0.0
  9
$PUCSORTHOREF
  2

  9
$PUCSORTHOVIEW
 70
     0
  9
$PUCSORGTOP
 10
0.0
 20
0.0
 30
0.0
  9
$PUCSORGBOTTOM
 10
0.0
 20
0.0
 30
0.0
  9
$PUCSORGLEFT
 10
0.0
 20
0.0
 30
0.0
  9
$PUCSORGRIGHT
 10
0.0
 20
0.0
 30
0.0
  9
$PUCSORGFRONT
 10
0.0
 20
0.0
 30
0.0
  9
$PUCSORGBACK
 10
0.0
 20
0.0
 30
0.0
  9
$USERI1
 70
     0
  9
$USERI2
 70
     0
  9
$USERI3
 70
     0
  9
$USERI4
 70
     0
  9
$USERI5
 70
     0
  9
$USERR1
 40
0.0
  9
$USERR2
 40
0.0
  9
$USERR3
 40
0.0
  9
$USERR4
 40
0.0
  9
$USERR5
 40
0.0
  9
$WORLDVIEW
 70
     1
  9
$SHADEDGE
 70
     3
  9
$SHADEDIF
 70
    70
  9
$TILEMODE
 70
     1
  9
$MAXACTVP
 70
    64
  9
$PINSBASE
 10
0.0
 20
0.0
 30
0.0
  9
$PLIMCHECK
 70
     0
  9
$PEXTMIN
 10
26.66076962115562
 20
20.31135699206657
 30
-0.0015258207003583
  9
$PEXTMAX
 10
240.039213369355
 20
182.8886381005154
 30
0.0000000349246037
  9
$PLIMMIN
 10
-6.350006103515625
 20
-6.349999904632568
  9
$PLIMMAX
 10
273.0499877929687
 20
209.5499939918517
  9
$UNITMODE
 70
     0
  9
$VISRETAIN
 70
     1
  9
$PLINEGEN
 70
     0
  9
$PSLTSCALE
 70
     1
  9
$TREEDEPTH
 70
  3020
  9
$CMLSTYLE
  2
Standard
  9
$CMLJUST
 70
     0
  9
$CMLSCALE
 40
20.0
  9
$PROXYGRAPHICS
 70
     1
  9
$MEASUREMENT
 70
     1
  9
$CELWEIGHT
370
    -1
  9
$ENDCAPS
280
     0
  9
$JOINSTYLE
280
     0
  9
$LWDISPLAY
290
     0
  9
$INSUNITS
 70
     4
  9
$HYPERLINKBASE
  1

  9
$STYLESHEET
  1

  9
$XEDIT
290
     1
  9
$CEPSNTYPE
380
     0
  9
$PSTYLEMODE
290
     1
  9
$FINGERPRINTGUID
  2
{FDEAD578-A652-11D2-9A35-0060089B3A3F}
  9
$VERSIONGUID
  2
{677A4B10-DA82-42B2-A80E-63F9B270CF04}
  9
$EXTNAMES
290
     1
  9
$PSVPSCALE
 40
0.0
  9
$OLESTARTUP
290
     0
  0
ENDSEC
  0
SECTION
  2
CLASSES
  0
CLASS
  1
ACDBDICTIONARYWDFLT
  2
AcDbDictionaryWithDefault
  3
AutoCAD 2000
 90
        0
280
     0
281
     0
  0
CLASS
  1
ACDBPLACEHOLDER
  2
AcDbPlaceHolder
  3
AutoCAD 2000
 90
        0
280
     0
281
     0
  0
CLASS
  1
LAYOUT
  2
AcDbLayout
  3
AutoCAD 2000
 90
        0
280
     0
281
     0
  0
CLASS
  1
DICTIONARYVAR
  2
AcDbDictionaryVar
  3
AutoCAD 2000
 90
        0
280
     0
281
     0
  0
ENDSEC
  0
SECTION
  2
TABLES
  0
TABLE
  2
VPORT
  5
8
330
0
100
AcDbSymbolTable
 70
     3
  0
VPORT
  5
4C1
330
8
100
AcDbSymbolTableRecord
100
AcDbViewportTableRecord
  2
*Active
 70
     0
 10
0.0
 20
0.0
 11
1.0
 21
1.0
 12
-494.4392212941202
 22
508.4829738862921
 13
0.0
 23
0.0
 14
10.0
 24
10.0
 15
10.0
 25
10.0
 16
0.0
 26
0.0
 36
1.0
 17
0.0
 27
0.0
 37
0.0
 40
1024.403996424708
 41
2.25703794369645
 42
50.0
 43
0.0
 44
0.0
 50
0.0
 51
0.0
 71
     0
 72
   100
 73
     1
 74
     3
 75
     0
 76
     0
 77
     0
 78
     0
281
     0
 65
     1
110
0.0
120
0.0
130
0.0
111
1.0
121
0.0
131
0.0
112
0.0
122
1.0
132
0.0
 79
     0
146
0.0
  0
ENDTAB
  0
TABLE
  2
LTYPE
  5
5
330
0
100
AcDbSymbolTable
 70
     1
  0
LTYPE
  5
14
330
5
100
AcDbSymbolTableRecord
100
AcDbLinetypeTableRecord
  2
ByBlock
 70
     0
  3

 72
    65
 73
     0
 40
0.0
  0
LTYPE
  5
15
330
5
100
AcDbSymbolTableRecord
100
AcDbLinetypeTableRecord
  2
ByLayer
 70
     0
  3

 72
    65
 73
     0
 40
0.0
  0
LTYPE
  5
16
330
5
100
AcDbSymbolTableRecord
100
AcDbLinetypeTableRecord
  2
Continuous
 70
     0
  3
Solid line
 72
    65
 73
     0
 40
0.0
  0
ENDTAB
  0
TABLE
  2
LAYER
  5
2
102
{ACAD_XDICTIONARY
360
9B
102
}
330
0
100
AcDbSymbolTable
 70
     2
  0
LAYER
  5
10
330
2
100
AcDbSymbolTableRecord
100
AcDbLayerTableRecord
  2
0
 70
     0
 62
     7
  6
Continuous
370
    -3
390
F
  0
LAYER
  5
88
102
{ACAD_XDICTIONARY
360
89
102
}
330
2
100
AcDbSymbolTableRecord
100
AcDbLayerTableRecord
  2
ceco.net 416
 70
     0
 62
     7
  6
Continuous
370
    -3
390
F
1001
AcAecLayerStandard
1000

1000

  0
ENDTAB
  0
TABLE
  2
STYLE
  5
3
330
0
100
AcDbSymbolTable
 70
     1
  0
STYLE
  5
11
330
3
100
AcDbSymbolTableRecord
100
AcDbTextStyleTableRecord
  2
Standard
 70
     0
 40
0.0
 41
1.0
 50
0.0
 71
     0
 42
2.5
  3
txt
  4

  0
ENDTAB
  0
TABLE
  2
VIEW
  5
6
330
0
100
AcDbSymbolTable
 70
     0
  0
ENDTAB
  0
TABLE
  2
UCS
  5
7
330
0
100
AcDbSymbolTable
 70
     0
  0
ENDTAB
  0
TABLE
  2
APPID
  5
9
330
0
100
AcDbSymbolTable
 70
    15
  0
APPID
  5
12
330
9
100
AcDbSymbolTableRecord
100
AcDbRegAppTableRecord
  2
ACAD
 70
     0
  0
APPID
  5
8D
330
9
100
AcDbSymbolTableRecord
100
AcDbRegAppTableRecord
  2
ACAD_PSEXT
 70
     0
  0
APPID
  5
8E
330
9
100
AcDbSymbolTableRecord
100
AcDbRegAppTableRecord
  2
AcadAnnoPO
 70
     0
  0
APPID
  5
8F
330
9
100
AcDbSymbolTableRecord
100
AcDbRegAppTableRecord
  2
AcadAnnotative
 70
     0
  0
APPID
  5
90
330
9
100
AcDbSymbolTableRecord
100
AcDbRegAppTableRecord
  2
ACAD_DSTYLE_DIMJAG
 70
     0
  0
APPID
  5
91
330
9
100
AcDbSymbolTableRecord
100
AcDbRegAppTableRecord
  2
ACAD_DSTYLE_DIMTALN
 70
     0
  0
APPID
  5
92
330
9
100
AcDbSymbolTableRecord
100
AcDbRegAppTableRecord
  2
ACAD_MLEADERVER
 70
     0
  0
APPID
  5
93
330
9
100
AcDbSymbolTableRecord
100
AcDbRegAppTableRecord
  2
ACAD_NAV_VCDISPLAY
 70
     0
  0
APPID
  5
94
330
9
100
AcDbSymbolTableRecord
100
AcDbRegAppTableRecord
  2
AcAecLayerStandard
 70
     0
  0
APPID
  5
95
330
9
100
AcDbSymbolTableRecord
100
AcDbRegAppTableRecord
  2
AcCmTransparency
 70
     0
  0
APPID
  5
96
330
9
100
AcDbSymbolTableRecord
100
AcDbRegAppTableRecord
  2
AcDbDynamicBlockGUID
 70
     0
  0
APPID
  5
97
330
9
100
AcDbSymbolTableRecord
100
AcDbRegAppTableRecord
  2
GradientColor1ACI
 70
     0
  0
APPID
  5
98
330
9
100
AcDbSymbolTableRecord
100
AcDbRegAppTableRecord
  2
GradientColor2ACI
 70
     0
  0
APPID
  5
99
330
9
100
AcDbSymbolTableRecord
100
AcDbRegAppTableRecord
  2
ACAD_EXEMPT_FROM_CAD_STANDARDS
 70
     0
  0
APPID
  5
9A
330
9
100
AcDbSymbolTableRecord
100
AcDbRegAppTableRecord
  2
ACAD_DSTYLE_DIMJOGGED_JOGANGLE_SYMBOL
 70
     0
  0
ENDTAB
  0
TABLE
  2
DIMSTYLE
  5
A
330
0
100
AcDbSymbolTable
 70
     3
100
AcDbDimStyleTable
 71
     0
  0
DIMSTYLE
105
27
330
A
100
AcDbSymbolTableRecord
100
AcDbDimStyleTableRecord
  2
ISO-25
 70
     0
 41
2.5
 42
0.625
 43
3.75
 44
1.25
 73
     0
 74
     0
 77
     1
 78
     8
140
2.5
141
2.5
143
0.03937007874016
147
0.625
171
     3
172
     1
271
     2
272
     2
274
     3
278
    44
283
     0
284
     8
340
11
  0
DIMSTYLE
105
8C
330
A
100
AcDbSymbolTableRecord
100
AcDbDimStyleTableRecord
  2
Standard
 70
     0
340
11
  0
ENDTAB
  0
TABLE
  2
BLOCK_RECORD
  5
1
330
0
100
AcDbSymbolTable
 70
     1
  0
BLOCK_RECORD
  5
1F
330
1
100
AcDbSymbolTableRecord
100
AcDbBlockTableRecord
  2
*Model_Space
340
22
  0
BLOCK_RECORD
  5
55
330
1
100
AcDbSymbolTableRecord
100
AcDbBlockTableRecord
  2
*Paper_Space
340
56
  0
ENDTAB
  0
ENDSEC
  0
SECTION
  2
BLOCKS
  0
BLOCK
  5
20
330
1F
100
AcDbEntity
  8
0
100
AcDbBlockBegin
  2
*Model_Space
 70
     0
 10
0.0
 20
0.0
 30
0.0
  3
*Model_Space
  1

  0
ENDBLK
  5
21
330
1F
100
AcDbEntity
  8
0
100
AcDbBlockEnd
  0
BLOCK
  5
57
330
55
100
AcDbEntity
 67
     1
  8
0
100
AcDbBlockBegin
  2
*Paper_Space
 70
     0
 10
0.0
 20
0.0
 30
0.0
  3
*Paper_Space
  1

  0
ENDBLK
  5
58
330
55
100
AcDbEntity
 67
     1
  8
0
100
AcDbBlockEnd
  0
ENDSEC
  0
SECTION
  2
ENTITIES
  0
ARC
  5
2B0
330
1F
100
AcDbEntity
  8
ceco.net 416
100
AcDbCircle
 10
-988.9130902910256
 20
311.4530429700291
 30
0.0
 40
311.4530429700274
100
AcDbArc
 50
357.9270919759055
 51
2.840376980260255
  0
ARC
  5
2B1
330
1F
100
AcDbEntity
  8
ceco.net 416
100
AcDbCircle
 10
-988.9130902910256
 20
311.4530429700291
 30
0.0
 40
311.4530429700274
100
AcDbArc
 50
3.763993350442409
 51
41.23395454653802
  0
ARC
  5
2B2
330
1F
100
AcDbEntity
  8
ceco.net 416
100
AcDbCircle
 10
-988.9130902910256
 20
311.4530429700291
 30
0.0
 40
311.4530429700274
100
AcDbArc
 50
44.26401293114229
 51
332.6138751968479
  0
ARC
  5
2B3
330
1F
100
AcDbEntity
  8
ceco.net 416
100
AcDbCircle
 10
-988.9130902910256
 20
311.4530429700291
 30
0.0
 40
311.4530429700274
100
AcDbArc
 50
333.7364248753607
 51
345.9926655425405
  0
ARC
  5
2B4
330
1F
100
AcDbEntity
  8
ceco.net 416
100
AcDbCircle
 10
-988.9130902910256
 20
311.4530429700291
 30
0.0
 40
287.1427515862928
100
AcDbArc
 50
44.8272443493697
 51
329.1123474503758
  0
ARC
  5
2B5
330
1F
100
AcDbEntity
  8
ceco.net 416
100
AcDbCircle
 10
-988.9130902910256
 20
311.4530429700291
 30
0.0
 40
287.1427515862928
100
AcDbArc
 50
330.3756246321966
 51
347.923088176315
  0
ARC
  5
2B6
330
1F
100
AcDbEntity
  8
ceco.net 416
100
AcDbCircle
 10
-988.9130902910256
 20
311.4530429700291
 30
0.0
 40
287.1427515862928
100
AcDbArc
 50
348.6796156537808
 51
349.8074542965625
  0
ARC
  5
2B7
330
1F
100
AcDbEntity
  8
ceco.net 416
100
AcDbCircle
 10
-988.9130902910256
 20
311.4530429700291
 30
0.0
 40
287.1427515862928
100
AcDbArc
 50
354.6974582659014
 51
3.24204150846702
  0
ARC
  5
2B8
330
1F
100
AcDbEntity
  8
ceco.net 416
100
AcDbCircle
 10
-988.9130902910256
 20
311.4530429700291
 30
0.0
 40
287.1427515862928
100
AcDbArc
 50
4.244587041008581
 51
41.53826637080139
  0
ARC
  5
2B9
330
1F
100
AcDbEntity
  8
ceco.net 416
100
AcDbCircle
 10
-988.9130902910256
 20
311.4530429700291
 30
0.0
 40
259.2408823865563
100
AcDbArc
 50
45.60504086120218
 51
324.101866146973
  0
ARC
  5
2BA
330
1F
100
AcDbEntity
  8
ceco.net 416
100
AcDbCircle
 10
-988.9130902910256
 20
311.4530429700291
 30
0.0
 40
259.2408823865563
100
AcDbArc
 50
325.5900165718799
 51
347.3039406223439
  0
ARC
  5
2BB
330
1F
100
AcDbEntity
  8
ceco.net 416
100
AcDbCircle
 10
-988.9130902910256
 20
311.4530429700291
 30
0.0
 40
259.2408823865563
100
AcDbArc
 50
348.142729282165
 51
349.2928770425586
  0
ARC
  5
2BC
330
1F
100
AcDbEntity
  8
ceco.net 416
100
AcDbCircle
 10
-988.9130902910256
 20
311.4530429700291
 30
0.0
 40
259.2408823865563
100
AcDbArc
 50
354.6283698593364
 51
3.796315410010177
  0
ARC
  5
2BD
330
1F
100
AcDbEntity
  8
ceco.net 416
100
AcDbCircle
 10
-988.9130902910256
 20
311.4530429700291
 30
0.0
 40
259.2408823865563
100
AcDbArc
 50
4.907995602608298
 51
41.95806370023761
  0
ARC
  5
2BE
330
1F
100
AcDbEntity
  8
ceco.net 416
100
AcDbCircle
 10
-988.9130902910256
 20
311.4530429700291
 30
0.0
 40
279.4083171027299
100
AcDbArc
 50
45.02715540467231
 51
327.8469860834828
  0
ARC
  5
2BF
330
1F
100
AcDbEntity
  8
ceco.net 416
100
AcDbCircle
 10
-988.9130902910256
 20
311.4530429700291
 30
0.0
 40
279.4083171027299
100
AcDbArc
 50
329.1642424510894
 51
347.7639146988341
  0
ARC
  5
2C0
330
1F
100
AcDbEntity
  8
ceco.net 416
100
AcDbCircle
 10
-988.9130902910256
 20
311.4530429700291
 30
0.0
 40
279.4083171027299
100
AcDbArc
 50
348.5415758639078
 51
349.6751470335794
  0
ARC
  5
2C1
330
1F
100
AcDbEntity
  8
ceco.net 416
100
AcDbCircle
 10
-988.9130902910256
 20
311.4530429700291
 30
0.0
 40
279.4083171027299
100
AcDbArc
 50
354.6796892929498
 51
3.384548866405247
  0
ARC
  5
2C2
330
1F
100
AcDbEntity
  8
ceco.net 416
100
AcDbCircle
 10
-988.9130902910256
 20
311.4530429700291
 30
0.0
 40
279.4083171027299
100
AcDbArc
 50
4.415128720006718
 51
41.64621447545478
  0
LWPOLYLINE
  5
2C3
330
1F
100
AcDbEntity
  8
ceco.net 416
100
AcDbPolyline
 90
        3
 70
     0
 43
0.0
 10
-661.5235728314583
 20
268.8566681881359
 10
-661.3569924911534
 20
270.9305496981644
 42
0.1359662413630301
 10
-659.2120161009879
 20
270.6932254680898
 42
0.1359662413630301
  0
ARC
  5
2C4
330
1F
100
AcDbEntity
  8
ceco.net 416
100
AcDbCircle
 10
-664.1894185589353
 20
263.1120346430027
 30
0.0
 40
6.333052029675823
100
AcDbArc
 50
4.206635011809638
 51
65.10594436180497
  0
LWPOLYLINE
  5
2C5
330
1F
100
AcDbEntity
  8
ceco.net 416
100
AcDbPolyline
 90
        3
 70
     0
 43
0.0
 10
-662.6060866748176
 20
258.1568039061178
 10
-662.7659837595055
 20
260.2312113997716
 42
0.4364980410959315
 10
-657.8734278389729
 20
263.5765873697157
 42
-0.6892846909190295
  0
LWPOLYLINE
  5
2C6
330
1F
100
AcDbEntity
  8
ceco.net 416
100
AcDbPolyline
 90
        3
 70
     0
 43
0.0
 10
-537.7570160802916
 20
295.6679477571717
 10
-536.4083504894133
 20
294.083701989811
 42
0.4364980410959315
 10
-538.4001487165478
 20
288.5014637614469
 42
-0.6892846909190295
  0
ARC
  5
2C7
330
1F
100
AcDbEntity
  8
ceco.net 416
100
AcDbCircle
 10
-539.9340478239865
 20
301.6150546838646
 30
0.0
 40
6.333052029675831
100
AcDbArc
 50
229.2066350164822
 51
290.1059443797501
  0
LWPOLYLINE
  5
2C8
330
1F
100
AcDbEntity
  8
ceco.net 416
100
AcDbPolyline
 90
        3
 70
     0
 43
0.0
 10
-544.5575097925138
 20
303.9993472281323
 10
-542.9776178739302
 20
302.6455839352995
 42
0.4364980410959315
 10
-544.0716393087077
 20
296.8204864325882
 42
-0.6892846909190295
  0
ARC
  5
2C9
330
1F
100
AcDbEntity
  8
ceco.net 416
100
AcDbCircle
 10
-547.6380711534784
 20
309.5326726036976
 30
0.0
 40
6.333052029675831
100
AcDbArc
 50
238.2066350070088
 51
299.10594436081
  0
LWPOLYLINE
  5
2CA
330
1F
100
AcDbEntity
  8
ceco.net 416
100
AcDbPolyline
 90
        2
 70
     0
 43
0.0
 10
-551.7297744010793
 20
305.1708148834434
 42
0.0790430395739593
 10
-550.9746863015971
 20
304.1498715332575
  0
LWPOLYLINE
  5
2CB
330
1F
100
AcDbEntity
  8
ceco.net 416
100
AcDbPolyline
 90
        3
 70
     0
 43
0.0
 10
-581.8602432420812
 20
324.0654909719971
 10
-579.7863617320508
 20
323.8989106316923
 42
0.3083522862024462
 10
-578.8030745815649
 20
319.4545138214337
 42
0.3083522862024462
  0
ARC
  5
2CC
330
1F
100
AcDbEntity
  8
ceco.net 416
100
AcDbCircle
 10
-587.6048767872125
 20
326.731336699476
 30
0.0
 40
6.333052029675831
100
AcDbArc
 50
274.206635028165
 51
335.1059443699066
  0
LWPOLYLINE
  5
2CD
330
1F
100
AcDbEntity
  8
ceco.net 416
100
AcDbPolyline
 90
        3
 70
     0
 43
0.0
 10
-592.5601075240974
 20
325.1480048153582
 10
-590.4857000304437
 20
325.3079019000463
 42
0.4364980410959315
 10
-587.1403240604977
 20
320.41534597951
 42
-0.6892846909190295
  0
ARC
  5
2CE
330
1F
100
AcDbEntity
  8
ceco.net 416
100
AcDbCircle
 10
-598.6510452478723
 20
326.8823708827305
 30
0.0
 40
6.333052029675831
100
AcDbArc
 50
283.2066350092705
 51
344.1059443702042
  0
LWPOLYLINE
  5
2CF
330
1F
100
AcDbEntity
  8
ceco.net 416
100
AcDbPolyline
 90
        3
 70
     0
 43
0.0
 10
-603.297581195382
 20
324.5433635720194
 10
-601.2737265151627
 20
325.0258008848061
 42
0.4364980410959315
 10
-597.2041733066308
 20
320.7168125466007
 42
-0.6892846909190295
  0
ARC
  5
2D0
330
1F
100
AcDbEntity
  8
ceco.net 416
100
AcDbCircle
 10
-609.5848439963811
 20
325.303544130674
 30
0.0
 40
6.333052029675833
100
AcDbArc
 50
292.2066350279428
 51
353.1059443767717
  0
LWPOLYLINE
  5
2D1
330
1F
100
AcDbEntity
  8
ceco.net 416
100
AcDbPolyline
 90
        3
 70
     0
 43
0.0
 10
-613.8082720185121
 20
322.2664555160783
 10
-611.8848041707424
 20
323.0595538492045
 42
0.4364980410959315
 10
-607.1912796296946
 20
319.4402346869294
 42
-0.6892846909190295
  0
ARC
  5
2D2
330
1F
100
AcDbEntity
  8
ceco.net 416
100
AcDbCircle
 10
-620.1370466203443
 20
322.0337323977685
 30
0.0
 40
6.333052029675833
100
AcDbArc
 50
301.2066350136467
 51
2.105944365945738
  0
LWPOLYLINE
  5
2D3
330
1F
100
AcDbEntity
  8
ceco.net 416
100
AcDbPolyline
 90
        4
 70
     0
 43
0.0
 10
-625.9595456217994
 20
312.3167627129125
 42
0.2721593469367266
 10
-623.8333719024431
 20
318.3733456804996
 10
-622.057653049158
 20
319.4575763208624
 42
0.4364980410959315
 10
-616.855727326707
 20
316.6170459841225
 42
-0.6892846909190295
  0
LWPOLYLINE
  5
2D4
330
1F
100
AcDbEntity
  8
ceco.net 416
100
AcDbPolyline
 90
        3
 70
     0
 43
0.0
 10
-633.126029616631
 20
312.9598953499255
 10
-631.541783849274
 20
314.3085609408037
 42
0.4364980410959315
 10
-625.9595456209062
 20
312.3167627136674
 42
-0.6892846909190295
  0
ARC
  5
2D5
330
1F
100
AcDbEntity
  8
ceco.net 416
100
AcDbCircle
 10
-639.0731365433239
 20
310.7828636062288
 30
0.0
 40
6.333052029675836
100
AcDbArc
 50
319.2066350065626
 51
20.1059443596089
  0
LWPOLYLINE
  5
2D6
330
1F
100
AcDbEntity
  8
ceco.net 416
100
AcDbPolyline
 90
        3
 70
     0
 43
0.0
 10
-641.4574290875898
 20
306.1594016377032
 10
-640.1036657947607
 20
307.739293556285
 42
0.4364980410959315
 10
-634.2785682920493
 20
306.6452721215075
 42
-0.6892846909190295
  0
ARC
  5
2D7
330
1F
100
AcDbEntity
  8
ceco.net 416
100
AcDbCircle
 10
-646.9907544631569
 20
303.078840276735
 30
0.0
 40
6.333052029675836
100
AcDbArc
 50
328.206635019763
 51
29.10594436230946
  0
LWPOLYLINE
  5
2D8
330
1F
100
AcDbEntity
  8
ceco.net 416
100
AcDbPolyline
 90
        2
 70
     0
 43
0.0
 10
-644.1225951578926
 20
298.5491003607141
 42
0.1776090838981248
 10
-641.6079533927186
 20
299.7422251286163
  0
LWPOLYLINE
  5
2D9
330
1F
100
AcDbEntity
  8
ceco.net 416
100
AcDbPolyline
 90
        3
 70
     0
 43
0.0
 10
-606.3147500467858
 20
189.1933385983822
 10
-608.3886315568161
 20
189.3599189386889
 42
0.2106268453516607
 10
-608.5017922361366
 20
192.6182044737718
 42
0.2106268453516607
  0
ARC
  5
2DA
330
1F
100
AcDbEntity
  8
ceco.net 416
100
AcDbCircle
 10
-600.5701165016525
 20
186.5274928709034
 30
0.0
 40
6.333052029675823
100
AcDbArc
 50
94.20663501175859
 51
155.1059443618049
  0
LWPOLYLINE
  5
2DB
330
1F
100
AcDbEntity
  8
ceco.net 416
100
AcDbPolyline
 90
        3
 70
     0
 43
0.0
 10
-595.6148857647677
 20
188.110824755023
 10
-597.6892932584214
 20
187.9509276703331
 42
0.4364980410959315
 10
-601.0346692283692
 20
192.8434835908676
 42
-0.6892846909190295
  0
ARC
  5
2DC
330
1F
100
AcDbEntity
  8
ceco.net 416
100
AcDbCircle
 10
-664.3404527413785
 20
252.0658661819664
 30
0.0
 40
6.333052029675831
100
AcDbArc
 50
13.20663500932425
 51
74.1059443702042
  0
LWPOLYLINE
  5
2DD
330
1F
100
AcDbEntity
  8
ceco.net 416
100
AcDbPolyline
 90
        3
 70
     0
 43
0.0
 10
-662.001445430671
 20
247.4193302344585
 10
-662.4838827434559
 20
249.4431849146778
 42
0.4364980410959315
 10
-658.1748944052506
 20
253.512738123208
 42
-0.6892846909190295
  0
ARC
  5
2DE
330
1F
100
AcDbEntity
  8
ceco.net 416
100
AcDbCircle
 10
-662.7616259893256
 20
241.1320674334595
 30
0.0
 40
6.333052029675833
100
AcDbArc
 50
22.20663502788966
 51
83.10594437682501
  0
LWPOLYLINE
  5
2DF
330
1F
100
AcDbEntity
  8
ceco.net 416
100
AcDbPolyline
 90
        3
 70
     0
 43
0.0
 10
-659.7245373747282
 20
236.9086394113267
 10
-660.5176357078562
 20
238.8321072590981
 42
0.4364980410959315
 10
-656.8983165455811
 20
243.5256318001459
 42
-0.6892846909190295
  0
ARC
  5
2E0
330
1F
100
AcDbEntity
  8
ceco.net 416
100
AcDbCircle
 10
-659.4918142564165
 20
230.5798648094944
 30
0.0
 40
6.333052029675833
100
AcDbArc
 50
31.20663501361775
 51
92.10594436599828
  0
LWPOLYLINE
  5
2E1
330
1F
100
AcDbEntity
  8
ceco.net 416
100
AcDbPolyline
 90
        4
 70
     0
 43
0.0
 10
-649.7748445715679
 20
224.7573658080448
 42
0.2721593469362942
 10
-655.8314275391531
 20
226.8835395273956
 10
-656.9156581795123
 20
228.6592583806825
 42
0.4364980410959315
 10
-654.0751278427724
 20
233.8611841031318
 42
-0.6892846909190295
  0
LWPOLYLINE
  5
2E2
330
1F
100
AcDbEntity
  8
ceco.net 416
100
AcDbPolyline
 90
        3
 70
     0
 43
0.0
 10
-650.4179772085771
 20
217.5908818132095
 10
-651.7666427994554
 20
219.1751275805684
 42
0.4364980410959315
 10
-649.7748445723173
 20
224.7573658089343
 42
-0.6892846909190295
  0
ARC
  5
2E3
330
1F
100
AcDbEntity
  8
ceco.net 416
100
AcDbCircle
 10
-648.2409454648786
 20
211.6437748865148
 30
0.0
 40
6.333052029675836
100
AcDbArc
 50
49.2066350065994
 51
110.1059443595509
  0
LWPOLYLINE
  5
2E4
330
1F
100
AcDbEntity
  8
ceco.net 416
100
AcDbPolyline
 90
        3
 70
     0
 43
0.0
 10
-643.6174834963549
 20
209.2594823422489
 10
-645.1973754149348
 20
210.613245635078
 42
0.4364980410959315
 10
-644.1033539801574
 20
216.4383431377912
 42
-0.6892846909190295
  0
ARC
  5
2E5
330
1F
100
AcDbEntity
  8
ceco.net 416
100
AcDbCircle
 10
-640.5369221353867
 20
203.7261569666818
 30
0.0
 40
6.333052029675836
100
AcDbArc
 50
58.20663501985009
 51
119.1059443623676
  0
LWPOLYLINE
  5
2E6
330
1F
100
AcDbEntity
  8
ceco.net 416
100
AcDbPolyline
 90
        2
 70
     0
 43
0.0
 10
-636.0174706842189
 20
205.7572573196296
 42
0.2316697200803986
 10
-637.200306987268
 20
209.1089580371219
  0
LWPOLYLINE
  5
2E7
330
1F
100
AcDbEntity
  8
ceco.net 416
100
AcDbPolyline
 90
        3
 70
     0
 43
0.0
 10
-526.651420457034
 20
244.402161383053
 10
-526.8180007973369
 20
242.3282798730226
 42
0.3449379834489217
 10
-531.6017813056751
 20
240.9327336231374
 42
0.3449379834489217
  0
ARC
  5
2E8
330
1F
100
AcDbEntity
  8
ceco.net 416
100
AcDbCircle
 10
-523.9855747295532
 20
250.1467949281861
 30
0.0
 40
6.333052029675823
100
AcDbArc
 50
184.2066350118096
 51
245.1059443618049
  0
LWPOLYLINE
  5
2E9
330
1F
100
AcDbEntity
  8
ceco.net 416
100
AcDbPolyline
 90
        3
 70
     0
 43
0.0
 10
-525.5689066136729
 20
255.1020256650729
 10
-525.4090095289829
 20
253.0276181714173
 42
0.4364980410959315
 10
-530.3015654495175
 20
249.6822422014731
 42
-0.6892846909190295
  0
ARC
  5
2EA
330
1F
100
AcDbEntity
  8
ceco.net 416
100
AcDbCircle
 10
-589.523948040618
 20
186.3764586884601
 30
0.0
 40
6.333052029675831
100
AcDbArc
 50
103.2066350092705
 51
164.1059443702041
  0
LWPOLYLINE
  5
2EB
330
1F
100
AcDbEntity
  8
ceco.net 416
100
AcDbPolyline
 90
        2
 70
     0
 43
0.0
 10
-590.8256482987162
 20
192.5407406954884
 42
0.0089814156234258
 10
-590.9708199818578
 20
192.5420170245899
  0
LWPOLYLINE
  5
2EC
330
1F
100
AcDbEntity
  8
ceco.net 416
100
AcDbPolyline
 90
        3
 70
     0
 43
0.0
 10
-555.0489636718594
 20
200.2989342212633
 10
-556.6332094392183
 20
198.9502686303851
 42
0.2227513246485782
 10
-559.195314845736
 20
201.2317277409958
 42
0.2227513246485782
  0
ARC
  5
2ED
330
1F
100
AcDbEntity
  8
ceco.net 416
100
AcDbCircle
 10
-549.1018567451646
 20
202.4759659649619
 30
0.0
 40
6.333052029675836
100
AcDbArc
 50
139.2066350065061
 51
200.1059443596088
  0
LWPOLYLINE
  5
2EE
330
1F
100
AcDbEntity
  8
ceco.net 416
100
AcDbPolyline
 90
        3
 70
     0
 43
0.0
 10
-546.7175642008969
 20
207.0994279334838
 10
-548.0713274937297
 20
205.5195360149038
 42
0.4364980410959315
 10
-553.8964249964428
 20
206.6135574496831
 42
-0.6892846909190295
  0
ARC
  5
2EF
330
1F
100
AcDbEntity
  8
ceco.net 416
100
AcDbCircle
 10
-541.1842388253317
 20
210.1799892944538
 30
0.0
 40
6.333052029675836
100
AcDbArc
 50
148.206635019763
 51
209.1059443623676
  0
LWPOLYLINE
  5
2F0
330
1F
100
AcDbEntity
  8
ceco.net 416
100
AcDbPolyline
 90
        2
 70
     0
 43
0.0
 10
-544.9650913329715
 20
214.5179546666561
 42
0.1185051859423875
 10
-546.5670398957718
 20
213.5166044425725
  0
ARC
  5
2F1
330
1F
100
AcDbEntity
  8
ceco.net 416
100
AcDbCircle
 10
-523.8345405471118
 20
261.1929633892225
 30
0.0
 40
6.333052029675831
100
AcDbArc
 50
193.2066350093242
 51
254.1059443702042
  0
LWPOLYLINE
  5
2F2
330
1F
100
AcDbEntity
  8
ceco.net 416
100
AcDbPolyline
 90
        3
 70
     0
 43
0.0
 10
-526.173547857823
 20
265.8394993367321
 10
-525.6911105450381
 20
263.8156446565128
 42
0.4364980410959315
 10
-530.0000988832435
 20
259.7460914479809
 42
-0.6892846909190295
  0
ARC
  5
2F3
330
1F
100
AcDbEntity
  8
ceco.net 416
100
AcDbCircle
 10
-525.4133672991647
 20
272.1267621377312
 30
0.0
 40
6.333052029675833
100
AcDbArc
 50
202.2066350278896
 51
263.105944376825
  0
LWPOLYLINE
  5
2F4
330
1F
100
AcDbEntity
  8
ceco.net 416
100
AcDbPolyline
 90
        3
 70
     0
 43
0.0
 10
-528.4504559137622
 20
276.3501901598622
 10
-527.6573575806342
 20
274.4267223120907
 42
0.4364980410959315
 10
-531.2766767429093
 20
269.7331977710448
 42
-0.6892846909190295
  0
ARC
  5
2F5
330
1F
100
AcDbEntity
  8
ceco.net 416
100
AcDbCircle
 10
-528.6831790320738
 20
282.6789647616944
 30
0.0
 40
6.333052029675833
100
AcDbArc
 50
211.2066350136177
 51
272.1059443659983
  0
LWPOLYLINE
  5
2F6
330
1F
100
AcDbEntity
  8
ceco.net 416
100
AcDbPolyline
 90
        4
 70
     0
 43
0.0
 10
-538.4001487169244
 20
288.501463763144
 42
0.2721593469362942
 10
-532.3435657493409
 20
286.375290043795
 10
-531.2593351089817
 20
284.5995711905081
 42
0.4364980410959315
 10
-534.0998654457216
 20
279.3976454680571
 42
-0.6892846909190295
  0
LWPOLYLINE
  5
2F7
330
1F
100
AcDbEntity
  8
ceco.net 416
100
AcDbPolyline
 90
        2
 70
     0
 43
0.0
 10
-631.0793128988953
 20
343.0255114928779
 10
-696.3783522640333
 20
544.834059924314
  0
LWPOLYLINE
  5
2F8
330
1F
100
AcDbEntity
  8
ceco.net 416
100
AcDbPolyline
 90
        2
 70
     0
 43
0.0
 10
-708.2832640279648
 20
581.6265301603445
 10
-714.7945549712276
 20
601.7498610155938
  0
LWPOLYLINE
  5
2F9
330
1F
100
AcDbEntity
  8
ceco.net 416
100
AcDbPolyline
 90
        2
 70
     0
 43
0.0
 10
-717.6488552276205
 20
600.8262972406657
 10
-721.4993588628713
 20
612.7263888333539
  0
LWPOLYLINE
  5
2FA
330
1F
100
AcDbEntity
  8
ceco.net 416
100
AcDbPolyline
 90
        2
 70
     0
 43
0.0
 10
-713.8878915124914
 20
615.1892255664964
 10
-755.0784551174583
 20
742.4898402617375
  0
LWPOLYLINE
  5
2FB
330
1F
100
AcDbEntity
  8
ceco.net 416
100
AcDbPolyline
 90
        2
 70
     0
 43
0.0
 10
-599.2033097450603
 20
350.5244755710366
 10
-615.5584387825838
 20
401.0704695482993
  0
LWPOLYLINE
  5
2FC
330
1F
100
AcDbEntity
  8
ceco.net 416
100
AcDbPolyline
 90
        2
 70
     0
 43
0.0
 10
-632.901071501441
 20
454.6683718911128
 10
-683.7431122967245
 20
611.7971528340342
  0
LWPOLYLINE
  5
2FD
330
1F
100
AcDbEntity
  8
ceco.net 416
100
AcDbPolyline
 90
        2
 70
     0
 43
0.0
 10
-680.8888120403334
 20
612.7207166089622
 10
-684.7393156755824
 20
624.6208082016521
  0
LWPOLYLINE
  5
2FE
330
1F
100
AcDbEntity
  8
ceco.net 416
100
AcDbPolyline
 90
        2
 70
     0
 43
0.0
 10
-692.3507830259623
 20
622.1579714685097
 10
-737.1280704764303
 20
760.5434587732499
  0
LWPOLYLINE
  5
2FF
330
1F
100
AcDbEntity
  8
ceco.net 416
100
AcDbPolyline
 90
        8
 70
     0
 43
0.0
 10
-622.4530353258069
 20
447.7906031982959
 10
-613.0781247363775
 20
448.6697811868409
 42
0.0683133842097105
 10
-557.4438743753126
 20
461.6915491070442
 42
0.1384404869172725
 10
-469.6774707830627
 20
527.2379955509434
 42
0.0604282857109795
 10
-370.0063629667274
 20
695.9977195821022
 42
-0.0703032979889937
 10
-325.1392051326693
 20
768.6629147670949
 42
-0.1232728887050842
 10
-240.1420534394874
 20
830.8582066292849
 10
-245.2689051068737
 20
843.0004181551241
  0
LWPOLYLINE
  5
300
330
1F
100
AcDbEntity
  8
ceco.net 416
100
AcDbPolyline
 90
       18
 70
     0
 43
0.0
 10
-238.4794381277643
 20
851.8056521994633
 10
-251.1722353074365
 20
885.1073210870392
 10
-253.4153708451686
 20
884.4238253040504
 42
-0.8090970227883552
 10
-263.9007833177001
 20
900.2482098041303
 10
-263.9007833177001
 20
900.2482098041303
 10
-265.6187325686078
 20
903.4690502710994
 10
-265.6187325686078
 20
903.4690502710994
 42
-1.068133454715904
 10
-267.9817338493776
 20
922.697349436604
 10
-266.6331150717342
 20
922.684530947937
 10
-264.7002321752952
 20
924.0822562688165
 42
-0.3203707379197091
 10
-263.9406458103912
 20
926.2594095991856
 10
-236.1217527795233
 20
934.7664475658868
 42
-0.4581064942718779
 10
-233.2360317328129
 20
932.9476659216645
 10
-232.7725603006547
 20
930.9808763525554
 10
-231.421333353559
 20
931.3158122881189
 10
-230.8591630967203
 20
933.4138602491414
 42
-0.2057481094483847
 10
-227.930123563623
 20
937.1289944232751
 42
0.0146955880461936
 10
-194.1915836521657
 20
956.7486236279412
  0
LWPOLYLINE
  5
301
330
1F
100
AcDbEntity
  8
ceco.net 416
100
AcDbPolyline
 90
       20
 70
     0
 43
0.0
 10
-194.1915836521657
 20
956.7486236279412
 10
-197.1453669370966
 20
958.0294989966544
 10
-205.4120632454905
 20
955.0206676046812
 42
-0.2395096896836347
 10
-230.1369900777936
 20
958.0294989966544
 42
-0.3158895290100165
 10
-234.1122962205554
 20
968.3522496402341
 42
-0.3484220525288012
 10
-229.5368048856616
 20
971.8734711668123
 10
-196.7443595504737
 20
963.2757591650927
 42
-0.2991368464782786
 10
-194.9989019763888
 20
961.3372877946142
 42
0.3769403972321588
 10
-193.5631705211544
 20
960.132566060057
 42
0.0863926693035311
 10
-188.6806048429571
 20
961.0977688436152
 42
0.1043202202851916
 10
-178.5578937667887
 20
967.6636849680555
 10
-175.1924959931056
 20
970.9622668639978
 10
-148.0300647237454
 20
961.4409351915867
 42
-0.894008267520452
 10
-150.1367530516581
 20
952.2509124933323
 42
0.1450391029159034
 10
-170.3995619157685
 20
948.67803258565
 42
0.0387018689548386
 10
-177.1374260144657
 20
944.6394549957087
 42
0.077069508275121
 10
-195.002732318826
 20
927.2755167856132
 42
-0.0287014051971724
 10
-207.3493991291615
 20
912.7113137802565
 42
-0.2866137984054267
 10
-217.4152443525963
 20
910.1199893575588
 42
-0.354059768761665
 10
-231.421333353559
 20
931.3158122881189
 42
-1.141309533283938
  0
CIRCLE
  5
302
330
1F
100
AcDbEntity
  8
ceco.net 416
100
AcDbCircle
 10
-213.611714335042
 20
926.2979111894431
 30
0.0
 40
7.87413251709116
  0
CIRCLE
  5
303
330
1F
100
AcDbEntity
  8
ceco.net 416
100
AcDbCircle
 10
-213.611714335042
 20
926.2979111894431
 30
0.0
 40
2.869103515109866
  0
CIRCLE
  5
304
330
1F
100
AcDbEntity
  8
ceco.net 416
100
AcDbCircle
 10
-256.9694226160645
 20
893.4549387097844
 30
0.0
 40
4.904511609275817
  0
CIRCLE
  5
305
330
1F
100
AcDbEntity
  8
ceco.net 416
100
AcDbCircle
 10
-256.9694226160645
 20
893.4549387097844
 30
0.0
 40
6.543810568898501
  0
CIRCLE
  5
306
330
1F
100
AcDbEntity
  8
ceco.net 416
100
AcDbCircle
 10
-267.3994450105819
 20
913.0095616062655
 30
0.0
 40
4.904511609275817
  0
CIRCLE
  5
307
330
1F
100
AcDbEntity
  8
ceco.net 416
100
AcDbCircle
 10
-267.3994450105819
 20
913.0095616062655
 30
0.0
 40
6.543810568898501
  0
LWPOLYLINE
  5
308
330
1F
100
AcDbEntity
  8
ceco.net 416
100
AcDbPolyline
 90
        4
 70
     0
 43
0.0
 10
-207.3493991291615
 20
912.7113137802565
 10
-210.0692368851159
 20
907.8676463273779
 42
-0.1193946881117096
 10
-220.294777923089
 20
896.8761398007966
 10
-251.1722353074365
 20
885.1073210870392
  0
LWPOLYLINE
  5
309
330
1F
100
AcDbEntity
  8
ceco.net 416
100
AcDbPolyline
 90
        7
 70
     0
 43
0.0
 10
-608.2806352645639
 20
413.8957036490458
 10
-588.4110142291174
 20
418.4551002364653
 42
0.0846419494019393
 10
-506.8910151896416
 20
452.3883931127686
 42
0.0855559720733045
 10
-437.4625232273246
 20
515.0255980172853
 42
0.0738929343308108
 10
-363.6641998536069
 20
644.3478362486833
 42
-0.0596944825084572
 10
-321.7036826286348
 20
722.9604111406854
 42
-0.1319259316993324
 10
-236.1736381043793
 20
794.8056122400624
 42
-0.1319259316993324
  0
LWPOLYLINE
  5
30A
330
1F
100
AcDbEntity
  8
ceco.net 416
100
AcDbPolyline
 90
        6
 70
     0
 43
0.0
 10
-560.3605328030535
 20
345.5277873409698
 10
-519.4124045424396
 20
401.9921829375573
 10
-426.3456609006206
 20
529.7131670589708
 42
0.0066000663730075
 10
-324.7685458436608
 20
673.051050784333
 42
-0.1118523619011781
 10
-231.5792613177327
 20
758.9489356448659
 42
-0.0195394479931349
 10
-222.2248154638709
 20
763.8529424240853
 42
-0.0195394479931349
  0
LWPOLYLINE
  5
30B
330
1F
100
AcDbEntity
  8
ceco.net 416
100
AcDbPolyline
 90
        6
 70
     0
 43
0.0
 10
-529.4389804603561
 20
325.673897544749
 10
-489.7369462694769
 20
380.4200229421178
 10
-396.6947260732358
 20
508.1073520920465
 42
0.0066000663730075
 10
-294.5576183662633
 20
652.2354547688876
 42
-0.1118523619011783
 10
-213.2885203928908
 20
727.1458230150758
 42
-0.0124408890681057
 10
-208.9806025269881
 20
729.4827587538559
  0
LWPOLYLINE
  5
30C
330
1F
100
AcDbEntity
  8
ceco.net 416
100
AcDbPolyline
 90
        5
 70
     0
 43
0.0
 10
-525.7078994041476
 20
322.0584160341961
 10
-485.576955496097
 20
377.3959757406367
 10
-392.538173066725
 20
505.0785870402298
 42
0.0066000663730075
 10
-290.322563985459
 20
649.317464873998
 42
-0.0506857300557212
 10
-258.2330475449471
 20
687.0620413033023
  0
LWPOLYLINE
  5
30D
330
1F
100
AcDbEntity
  8
ceco.net 416
100
AcDbPolyline
 90
        5
 70
     0
 43
0.0
 10
-522.6498301705087
 20
318.7771561858037
 10
-482.0163653784548
 20
374.807654475647
 10
-388.9805253783815
 20
502.486227705883
 42
0.0066000663730076
 10
-286.6977259515678
 20
646.8199194348082
 42
-0.0503644993135334
 10
-255.4071160501353
 20
683.672629715161
  0
LWPOLYLINE
  5
30E
330
1F
100
AcDbEntity
  8
ceco.net 416
100
AcDbPolyline
 90
        2
 70
     0
 43
0.0
 10
-207.6861161932611
 20
857.4583591607909
 10
-188.1837295690747
 20
807.4410264373211
  0
LWPOLYLINE
  5
30F
330
1F
100
AcDbEntity
  8
ceco.net 416
100
AcDbPolyline
 90
        3
 70
     0
 43
0.0
 10
-175.9093178154798
 20
775.9611184396447
 10
-159.0906204080092
 20
732.8265831432556
 10
-192.297610448948
 20
717.5455179040539
  0
LWPOLYLINE
  5
310
330
1F
100
AcDbEntity
  8
ceco.net 416
100
AcDbPolyline
 90
        2
 70
     0
 43
0.0
 10
-188.4268643577943
 20
709.2446761240418
 10
-155.2198743168573
 20
724.5257413632455
  0
ARC
  5
311
330
1F
100
AcDbEntity
  8
ceco.net 416
100
AcDbCircle
 10
-190.3622374033711
 20
713.3950970140479
 30
0.0
 40
4.579482764433504
100
AcDbArc
 50
114.9999999999761
 51
294.9999999999761
  0
ARC
  5
312
330
1F
100
AcDbEntity
  8
ceco.net 416
100
AcDbCircle
 10
-157.1552473624324
 20
728.6761622532496
 30
0.0
 40
4.579482764433504
100
AcDbArc
 50
294.9999999999761
 51
114.9999999999761
  0
LWPOLYLINE
  5
313
330
1F
100
AcDbEntity
  8
ceco.net 416
100
AcDbPolyline
 90
        2
 70
     0
 43
0.0
 10
-222.7350854956057
 20
789.632304163136
 10
-217.3059198548689
 20
776.7741054292048
  0
LWPOLYLINE
  5
314
330
1F
100
AcDbEntity
  8
ceco.net 416
100
AcDbPolyline
 90
        2
 70
     0
 43
0.0
 10
-195.2199756039481
 20
724.4667198755226
 10
-192.297610448948
 20
717.5455179040539
  0
LWPOLYLINE
  5
315
330
1F
100
AcDbEntity
  8
ceco.net 416
100
AcDbPolyline
 90
        2
 70
     0
 43
0.0
 10
-188.7373593236352
 20
709.1135746661286
 10
-167.0535734170371
 20
657.7586433671106
  0
LWPOLYLINE
  5
316
330
1F
100
AcDbEntity
  8
ceco.net 416
100
AcDbPolyline
 90
        9
 70
     0
 43
0.0
 10
-129.6739300097378
 20
569.230328826817
 10
-21.89158486338783
 20
313.9633309842567
 42
-0.113171618061356
 10
-21.51330812354172
 20
311.8790500014286
 42
0.5626807193914729
 10
9.204101013670879
 20
292.003404594486
 10
9.204101013670879
 20
292.003404594486
 42
0.5231489978154354
 10
14.86791788322261
 20
327.007750496273
 42
0.1983449293221309
 10
-0.4544197959476151
 20
332.9648053438006
 42
-0.2520286229958326
 10
-12.22523396230826
 20
338.4941912259575
 10
-80.68119762163041
 20
523.2707866007833
  0
LWPOLYLINE
  5
317
330
1F
100
AcDbEntity
  8
ceco.net 416
100
AcDbPolyline
 90
        2
 70
     0
 43
0.0
 10
-98.99389705508657
 20
572.7368274114426
 10
-101.5534902570907
 20
579.6467628400781
  0
LWPOLYLINE
  5
318
330
1F
100
AcDbEntity
  8
ceco.net 416
100
AcDbPolyline
 90
        2
 70
     0
 43
0.0
 10
-134.8997681584769
 20
669.6691253402616
 10
-155.2198743168573
 20
724.5257413632437
  0
CIRCLE
  5
319
330
1F
100
AcDbEntity
  8
ceco.net 416
100
AcDbCircle
 10
-593.698359969654
 20
255.6269925800636
 30
0.0
 40
9.427061965339817
  0
ARC
  5
31A
330
1F
100
AcDbEntity
  8
ceco.net 416
100
AcDbCircle
 10
-593.698359969654
 20
255.6269925800636
 30
0.0
 40
95.05701841553673
100
AcDbArc
 50
295.1064939045835
 51
278.1555774801329
  0
LWPOLYLINE
  5
31B
330
1F
100
AcDbEntity
  8
ceco.net 416
100
AcDbPolyline
 90
        2
 70
     0
 43
0.0
 10
-721.4993588628713
 20
612.7263888333539
 10
-684.7393156755824
 20
624.6208082016521
  0
LWPOLYLINE
  5
31C
330
1F
100
AcDbEntity
  8
ceco.net 416
100
AcDbPolyline
 90
        2
 70
     0
 43
0.0
 10
-717.6488552276205
 20
600.8262972406657
 10
-680.8888120403334
 20
612.7207166089622
  0
LWPOLYLINE
  5
31D
330
1F
100
AcDbEntity
  8
ceco.net 416
100
AcDbPolyline
 90
        8
 70
     0
 43
0.0
 10
-711.6899436540789
 20
570.6298685745799
 10
-936.7479515905143
 20
397.0309182361427
 42
0.0525762327699309
 10
-951.5782809747543
 20
382.8765045630182
 10
-994.916014753684
 20
336.2324535674481
 10
-994.916014753684
 20
336.2324535674481
 42
0.5555570648949592
 10
-1003.782479543762
 20
327.4546386783961
 10
-1016.05607520655
 20
315.3160358594079
 42
0.049201630082758
 10
-1018.631602233186
 20
312.2119557176004
 42
0.049201630082758
  0
LWPOLYLINE
  5
31E
330
1F
100
AcDbEntity
  8
ceco.net 416
100
AcDbPolyline
 90
       16
 70
     0
 43
0.0
 10
-1020.465650650389
 20
308.8647346986938
 42
0.1581413221438438
 10
-1021.662517934339
 20
296.2429618382204
 10
-1019.4530605954
 20
283.7125066006767
 10
-1019.053760108421
 20
282.2042497405102
 10
-1009.587111529373
 20
283.0324741727611
 10
-1008.733049793576
 20
276.8296509378753
 10
-1003.922669006486
 20
277.2505047239894
 10
-1004.504417128882
 20
283.8999161900185
 42
0.2083840345421835
 10
-1006.747459214297
 20
288.0238488073712
 10
-1002.732376438798
 20
287.8784913542961
 42
0.4024103204368823
 10
-996.8672382771037
 20
293.1165211103118
 42
-0.5779855728460223
 10
-993.9703208449063
 20
294.50160187006
 10
-992.4482016977272
 20
290.5660697526375
 10
-989.5692574107087
 20
290.2958611282422
 10
-989.1146252303151
 20
286.7399044713286
 10
-955.4155595903866
 20
284.2114482023055
  0
LWPOLYLINE
  5
31F
330
1F
100
AcDbEntity
  8
ceco.net 416
100
AcDbPolyline
 90
        2
 70
     0
 43
0.0
 10
-932.7562053103248
 20
282.1448191257688
 10
-690.5394340251805
 20
259.1444476467342
  0
LWPOLYLINE
  5
320
330
1F
100
AcDbEntity
  8
ceco.net 416
100
AcDbPolyline
 90
        4
 70
     0
 43
0.0
 10
-712.0003410138651
 20
549.6736296772244
 10
-926.7290696431464
 20
384.0421898571469
 42
0.053662033097823
 10
-939.298060968853
 20
371.9939307995057
 10
-953.4166460903051
 20
356.7982122658679
  0
LWPOLYLINE
  5
321
330
1F
100
AcDbEntity
  8
ceco.net 416
100
AcDbPolyline
 90
        9
 70
     0
 43
0.0
 10
-953.4166460903051
 20
356.7982122658679
 42
-0.1663954238336883
 10
-961.479293993616
 20
342.0207946629573
 10
-973.9273175570415
 20
328.6426080358407
 42
0.5459098918035283
 10
-963.5792483362493
 20
306.1602885839649
 10
-956.2069549917069
 20
305.5592714122297
 10
-955.7758617027467
 20
309.9578020325182
 42
-0.8952689355463828
 10
-947.2006613977718
 20
310.1562647705479
 10
-947.2383755384944
 20
304.8281189735619
 10
-684.6024286636493
 20
283.4170455654214
  0
CIRCLE
  5
322
330
1F
100
AcDbEntity
  8
ceco.net 416
100
AcDbCircle
 10
-994.2039717321749
 20
312.4148852339324
 30
0.0
 40
1.915369274461817
  0
ARC
  5
323
330
1F
100
AcDbEntity
  8
ceco.net 416
100
AcDbCircle
 10
-994.2039717321749
 20
312.4148852339324
 30
0.0
 40
9.304253036030885
100
AcDbArc
 50
270.0
 51
229.1309082903042
  0
CIRCLE
  5
324
330
1F
100
AcDbEntity
  8
ceco.net 416
100
AcDbCircle
 10
-1005.618981410632
 20
296.576084293066
 30
0.0
 40
4.281891239753011
  0
CIRCLE
  5
325
330
1F
100
AcDbEntity
  8
ceco.net 416
100
AcDbCircle
 10
-1005.618981410632
 20
296.576084293066
 30
0.0
 40
2.485016235617394
  0
CIRCLE
  5
326
330
1F
100
AcDbEntity
  8
ceco.net 416
100
AcDbCircle
 10
-997.4612359930761
 20
330.2965024348134
 30
0.0
 40
2.188252314938754
  0
ARC
  5
327
330
1F
100
AcDbEntity
  8
ceco.net 416
100
AcDbCircle
 10
-606.0441045946063
 20
404.1490154647265
 30
0.0
 40
10.0
100
AcDbArc
 50
102.9236862983764
 51
197.9299856875397
  0
ARC
  5
328
330
1F
100
AcDbEntity
  8
ceco.net 416
100
AcDbCircle
 10
-623.3867373134653
 20
457.74691780754
 30
0.0
 40
10.0
100
AcDbArc
 50
197.9299856875397
 51
275.3575221109351
  0
ARC
  5
329
330
1F
100
AcDbEntity
  8
ceco.net 416
100
AcDbCircle
 10
-231.9475430099173
 20
785.742493557592
 30
0.0
 40
10.0
100
AcDbArc
 50
22.89111286175532
 51
114.9994466908448
  0
ARC
  5
32A
330
1F
100
AcDbEntity
  8
ceco.net 416
100
AcDbCircle
 10
-226.5183773691787
 20
772.884294823659
 30
0.0
 40
10.0
100
AcDbArc
 50
295.4267093157203
 51
22.89111286175532
  0
ARC
  5
32B
330
1F
100
AcDbEntity
  8
ceco.net 416
100
AcDbCircle
 10
-988.9130902910256
 20
311.4530429700291
 30
0.0
 40
46.75364391514021
100
AcDbArc
 50
159.4135358949527
 51
173.9458770881583
  0
ARC
  5
32C
330
1F
100
AcDbEntity
  8
ceco.net 416
100
AcDbCircle
 10
-988.9130902910256
 20
311.4530429700291
 30
0.0
 40
46.75364391514021
100
AcDbArc
 50
178.5836747515283
 51
214.8818323358542
  0
ARC
  5
32D
330
1F
100
AcDbEntity
  8
ceco.net 416
100
AcDbCircle
 10
-988.9130902910256
 20
311.4530429700291
 30
0.0
 40
46.75364391514021
100
AcDbArc
 50
288.1503030533614
 51
322.8504672029534
  0
LWPOLYLINE
  5
32E
330
1F
100
AcDbEntity
  8
ceco.net 416
100
AcDbPolyline
 90
        2
 70
     0
 43
0.0
 10
-1001.523642874348
 20
361.7165755217986
 10
-967.0020817284076
 20
569.7663078333146
  0
LWPOLYLINE
  5
32F
330
1F
100
AcDbEntity
  8
ceco.net 416
100
AcDbPolyline
 90
        2
 70
     0
 43
0.0
 10
-985.6377257993772
 20
362.5110721547291
 10
-1016.892025869212
 20
569.179669969398
  0
LWPOLYLINE
  5
330
330
1F
100
AcDbEntity
  8
ceco.net 416
100
AcDbPolyline
 90
        2
 70
     0
 43
0.0
 10
-981.9612596135703
 20
358.2254303121396
 10
-1043.31231963854
 20
564.9220922580182
  0
LWPOLYLINE
  5
331
330
1F
100
AcDbEntity
  8
ceco.net 416
100
AcDbPolyline
 90
        2
 70
     0
 43
0.0
 10
-988.9130902910256
 20
570.6939253565862
 10
-1001.167688867442
 20
361.1405316843968
  0
LWPOLYLINE
  5
332
330
1F
100
AcDbEntity
  8
ceco.net 416
100
AcDbPolyline
 90
        2
 70
     0
 43
0.0
 10
-1000.921939813892
 20
257.563250292603
 10
-998.7706738073011
 20
244.5983002166242
  0
LWPOLYLINE
  5
333
330
1F
100
AcDbEntity
  8
ceco.net 416
100
AcDbPolyline
 90
        2
 70
     0
 43
0.0
 10
-981.7391333047325
 20
141.9549861604475
 10
-967.0020817284076
 20
53.13977810674555
  0
LWPOLYLINE
  5
334
330
1F
100
AcDbEntity
  8
ceco.net 416
100
AcDbPolyline
 90
        2
 70
     0
 43
0.0
 10
-985.9695251642042
 20
258.2009953836489
 10
-986.9266660679677
 20
251.8719152874739
  0
LWPOLYLINE
  5
335
330
1F
100
AcDbEntity
  8
ceco.net 416
100
AcDbPolyline
 90
        2
 70
     0
 43
0.0
 10
-1003.61074432038
 20
141.5486941450465
 10
-1016.892025869212
 20
53.72641597066035
  0
LWPOLYLINE
  5
336
330
1F
100
AcDbEntity
  8
ceco.net 416
100
AcDbPolyline
 90
        2
 70
     0
 43
0.0
 10
-983.888291893214
 20
258.1883286900895
 10
-985.6189692726839
 20
252.357537223793
  0
LWPOLYLINE
  5
337
330
1F
100
AcDbEntity
  8
ceco.net 416
100
AcDbPolyline
 90
        2
 70
     0
 43
0.0
 10
-995.8886695547917
 20
217.758089934173
 10
-1001.781923897167
 20
197.9032414593232
  0
LWPOLYLINE
  5
338
330
1F
100
AcDbEntity
  8
ceco.net 416
100
AcDbPolyline
 90
        2
 70
     0
 43
0.0
 10
-1016.314183046801
 20
148.9428900727464
 10
-1043.31231963854
 20
57.98399368204013
  0
LWPOLYLINE
  5
339
330
1F
100
AcDbEntity
  8
ceco.net 416
100
AcDbPolyline
 90
        2
 70
     0
 43
0.0
 10
-988.9130902910256
 20
52.21216058347386
 10
-994.0418357400904
 20
139.9136064880797
  0
LWPOLYLINE
  5
33A
330
1F
100
AcDbEntity
  8
ceco.net 416
100
AcDbPolyline
 90
        2
 70
     0
 43
0.0
 10
-997.5400582455622
 20
199.7331422542458
 10
-998.5906354847193
 20
217.6979922986786
  0
LWPOLYLINE
  5
33B
330
1F
100
AcDbEntity
  8
ceco.net 416
100
AcDbPolyline
 90
        2
 70
     0
 43
0.0
 10
-1000.177842732986
 20
244.8392049023798
 10
-1000.921939813892
 20
257.5632502926012
  0
LWPOLYLINE
  5
33C
330
1F
100
AcDbEntity
  8
ceco.net 416
100
AcDbPolyline
 90
        2
 70
     0
 43
0.0
 10
-1036.278391017125
 20
342.1408062365783
 10
-1156.074728809028
 20
509.601526962558
  0
LWPOLYLINE
  5
33D
330
1F
100
AcDbEntity
  8
ceco.net 416
100
AcDbPolyline
 90
        2
 70
     0
 43
0.0
 10
-1027.158805695069
 20
353.1595187417253
 10
-1190.937431012333
 20
473.9091935359022
  0
LWPOLYLINE
  5
33E
330
1F
100
AcDbEntity
  8
ceco.net 416
100
AcDbPolyline
 90
        2
 70
     0
 43
0.0
 10
-1023.274113478235
 20
352.8056484979017
 10
-1025.677516943656
 20
354.1088646594555
  0
LWPOLYLINE
  5
33F
330
1F
100
AcDbEntity
  8
ceco.net 416
100
AcDbPolyline
 90
        2
 70
     0
 43
0.0
 10
-1026.372251592867
 20
354.4855760339171
 10
-1206.608837826421
 20
452.2166625795228
  0
LWPOLYLINE
  5
340
330
1F
100
AcDbEntity
  8
ceco.net 416
100
AcDbPolyline
 90
        2
 70
     0
 43
0.0
 10
-1248.15397267758
 20
311.4530429700291
 10
-1087.494512078011
 20
302.0577420271529
  0
LWPOLYLINE
  5
341
330
1F
100
AcDbEntity
  8
ceco.net 416
100
AcDbPolyline
 90
        2
 70
     0
 43
0.0
 10
-1048.044868816834
 20
300.3139928599314
 10
-1077.485510028797
 20
305.1990599277062
  0
LWPOLYLINE
  5
342
330
1F
100
AcDbEntity
  8
ceco.net 416
100
AcDbPolyline
 90
        2
 70
     0
 43
0.0
 10
-1082.833769016773
 20
306.0864931756434
 10
-1247.226355154309
 20
333.3640515326472
  0
LWPOLYLINE
  5
343
330
1F
100
AcDbEntity
  8
ceco.net 416
100
AcDbPolyline
 90
        2
 70
     0
 43
0.0
 10
-1055.23382285387
 20
312.6025946472557
 10
-1074.649758574609
 20
306.8396170227981
  0
LWPOLYLINE
  5
344
330
1F
100
AcDbEntity
  8
ceco.net 416
100
AcDbPolyline
 90
        2
 70
     0
 43
0.0
 10
-1085.994570642868
 20
303.4722852061197
 10
-1242.382139579014
 20
257.0538136225143
  0
LWPOLYLINE
  5
345
330
1F
100
AcDbEntity
  8
ceco.net 416
100
AcDbPolyline
 90
        2
 70
     0
 43
0.0
 10
-948.5230007284801
 20
332.3903087656631
 10
-892.9130758388801
 20
410.126225181629
  0
LWPOLYLINE
  5
346
330
1F
100
AcDbEntity
  8
ceco.net 416
100
AcDbPolyline
 90
        2
 70
     0
 43
0.0
 10
-859.8469321227094
 20
456.348675386723
 10
-821.7514517730233
 20
509.601526962558
  0
LWPOLYLINE
  5
347
330
1F
100
AcDbEntity
  8
ceco.net 416
100
AcDbPolyline
 90
        2
 70
     0
 43
0.0
 10
-955.9326837879343
 20
349.2775449112007
 10
-786.8887495697181
 20
473.9091935359022
  0
LWPOLYLINE
  5
348
330
1F
100
AcDbEntity
  8
ceco.net 416
100
AcDbPolyline
 90
        2
 70
     0
 43
0.0
 10
-954.4049318071246
 20
352.8854308146613
 10
-771.2173427556299
 20
452.2166625795228
  0
LWPOLYLINE
  5
349
330
1F
100
AcDbEntity
  8
ceco.net 416
100
AcDbPolyline
 90
        2
 70
     0
 43
0.0
 10
-854.6009545847391
 20
439.6783575227121
 10
-940.294443766068
 20
343.3397013496626
  0
LWPOLYLINE
  5
34A
330
1F
100
AcDbEntity
  8
ceco.net 416
100
AcDbPolyline
 90
        2
 70
     0
 43
0.0
 10
-944.2569251889908
 20
338.8849856058889
 10
-949.7145919968245
 20
332.7493469345015
  0
LWPOLYLINE
  5
34B
330
1F
100
AcDbEntity
  8
ceco.net 416
100
AcDbPolyline
 90
        2
 70
     0
 43
0.0
 10
-917.2902180853979
 20
302.3866321729285
 10
-754.398271938211
 20
329.4151902807636
  0
LWPOLYLINE
  5
34C
330
1F
100
AcDbEntity
  8
ceco.net 416
100
AcDbPolyline
 90
        2
 70
     0
 43
0.0
 10
-941.5916891923044
 20
315.2934942561084
 10
-784.850167149083
 20
291.5896194771514
  0
LWPOLYLINE
  5
34D
330
1F
100
AcDbEntity
  8
ceco.net 416
100
AcDbPolyline
 90
        2
 70
     0
 43
0.0
 10
-945.8811679941074
 20
319.5151068430689
 10
-877.1486748430852
 20
299.1141420994856
  0
LWPOLYLINE
  5
34E
330
1F
100
AcDbEntity
  8
ceco.net 416
100
AcDbPolyline
 90
        2
 70
     0
 43
0.0
 10
-766.9247966540224
 20
266.3978335568129
 10
-741.686782566534
 20
258.9067647479798
  0
LWPOLYLINE
  5
34F
330
1F
100
AcDbEntity
  8
ceco.net 416
100
AcDbPolyline
 90
        2
 70
     0
 43
0.0
 10
-729.6722079044703
 20
311.4530429700291
 10
-903.6804364629006
 20
301.2771114205126
  0
LWPOLYLINE
  5
350
330
1F
100
AcDbEntity
  8
ceco.net 416
100
AcDbPolyline
 90
        2
 70
     0
 43
0.0
 10
-1047.716520983614
 20
264.7761641491044
 10
-1050.815148671676
 20
260.4446592344422
  0
LWPOLYLINE
  5
351
330
1F
100
AcDbEntity
  8
ceco.net 416
100
AcDbPolyline
 90
        2
 70
     0
 43
0.0
 10
-1058.116870553683
 20
250.2377394617717
 10
-1156.074728809028
 20
113.3045589775004
  0
LWPOLYLINE
  5
352
330
1F
100
AcDbEntity
  8
ceco.net 416
100
AcDbPolyline
 90
        2
 70
     0
 43
0.0
 10
-1057.996557541255
 20
247.0107034701007
 10
-1190.937431012333
 20
148.9968924041561
  0
LWPOLYLINE
  5
353
330
1F
100
AcDbEntity
  8
ceco.net 416
100
AcDbPolyline
 90
        2
 70
     0
 43
0.0
 10
-1057.974443583832
 20
251.2846074512556
 10
-1206.608837826421
 20
170.6894233605355
  0
LWPOLYLINE
  5
354
330
1F
100
AcDbEntity
  8
ceco.net 416
100
AcDbPolyline
 90
        2
 70
     0
 43
0.0
 10
-1172.224076187343
 20
128.1420570737111
 10
-1048.215632986339
 20
267.555294721403
  0
LWPOLYLINE
  5
355
330
1F
100
AcDbEntity
  8
ceco.net 416
100
AcDbPolyline
 90
        2
 70
     0
 43
0.0
 10
-941.3646757433015
 20
280.50930883568
 10
-852.6687223758798
 20
156.5231457345355
  0
LWPOLYLINE
  5
356
330
1F
100
AcDbEntity
  8
ceco.net 416
100
AcDbPolyline
 90
        2
 70
     0
 43
0.0
 10
-849.3064551600145
 20
151.8231048015634
 10
-821.7514517730233
 20
113.3045589775004
  0
LWPOLYLINE
  5
357
330
1F
100
AcDbEntity
  8
ceco.net 416
100
AcDbPolyline
 90
        2
 70
     0
 43
0.0
 10
-957.3534017988349
 20
274.6759990683797
 10
-803.9514411188665
 20
161.5767663143317
  0
LWPOLYLINE
  5
358
330
1F
100
AcDbEntity
  8
ceco.net 416
100
AcDbPolyline
 90
        2
 70
     0
 43
0.0
 10
-798.032325846958
 20
157.2127582347195
 10
-786.8887495697181
 20
148.9968924041561
  0
LWPOLYLINE
  5
359
330
1F
100
AcDbEntity
  8
ceco.net 416
100
AcDbPolyline
 90
        2
 70
     0
 43
0.0
 10
-958.7472386857644
 20
272.3752179710002
 10
-771.2173427556299
 20
170.6894233605355
  0
LWPOLYLINE
  5
35A
330
1F
100
AcDbEntity
  8
ceco.net 416
100
AcDbPolyline
 90
        2
 70
     0
 43
0.0
 10
-805.6021043947076
 20
128.1420570737111
 10
-828.5160178939914
 20
153.9024229460276
  0
LWPOLYLINE
  5
35B
330
1F
100
AcDbEntity
  8
ceco.net 416
100
AcDbPolyline
 90
        2
 70
     0
 43
0.0
 10
-832.6121337313907
 20
158.5073736730221
 10
-941.0623137057754
 20
280.4296422172458
  0
ARC
  5
35C
330
1F
100
AcDbEntity
  8
ceco.net 416
100
AcDbCircle
 10
-705.8926864520089
 20
541.7555140078868
 30
0.0
 40
10.0
100
AcDbArc
 50
17.92998568753978
 51
127.6448710321211
  0
ARC
  5
35D
330
1F
100
AcDbEntity
  8
ceco.net 416
100
AcDbCircle
 10
-717.7975982159368
 20
578.5479842439192
 30
0.0
 40
10.0
100
AcDbArc
 50
307.6448710321212
 51
17.92998568753978
  0
ARC
  5
35E
330
1F
100
AcDbEntity
  8
ceco.net 416
100
AcDbCircle
 10
-204.4324331182597
 20
720.5769092699767
 30
0.0
 40
10.0
100
AcDbArc
 50
22.89111286175532
 51
117.0531565022322
  0
ARC
  5
35F
330
1F
100
AcDbEntity
  8
ceco.net 416
100
AcDbCircle
 10
-232.1447378318316
 20
739.1052819158442
 30
0.0
 40
32.44890149650793
100
AcDbArc
 50
343.6525592461958
 51
63.5726606389616
  0
LWPOLYLINE
  5
360
330
1F
100
AcDbEntity
  8
ceco.net 416
100
AcDbPolyline
 90
        4
 70
     0
 43
0.0
 10
-240.1420534394874
 20
830.8582066292849
 42
-0.172077147252976
 10
-231.9673044684459
 20
821.7405654059886
 10
-229.227981391723
 20
813.3540327789061
 42
-0.1297982381102275
 10
-228.7119658186784
 20
803.4127991755024
 42
-2.701796426955064
  0
LWPOLYLINE
  5
361
330
1F
100
AcDbEntity
  8
ceco.net 416
100
AcDbPolyline
 90
        2
 70
     0
 43
0.0
 10
-247.7178377299151
 20
848.2521711130969
 10
-209.7610182800453
 20
862.8519769043862
  0
ARC
  5
362
330
1F
100
AcDbEntity
  8
ceco.net 416
100
AcDbCircle
 10
-244.9897843123199
 20
846.3274288163768
 30
0.0
 40
3.338698602455184
100
AcDbArc
 50
144.795620514591
 51
265.2043794854456
  0
ARC
  5
363
330
1F
100
AcDbEntity
  8
ceco.net 416
100
AcDbCircle
 10
-210.6857604091146
 20
859.3904502303496
 30
0.0
 40
3.582919887514611
100
AcDbArc
 50
327.5385396992419
 51
75.04280446221284
  0
LWPOLYLINE
  5
364
330
1F
100
AcDbEntity
  8
ceco.net 416
100
AcDbPolyline
 90
        2
 70
     0
 43
0.0
 10
-245.2689051068737
 20
843.0004181551241
 10
-207.6626621994782
 20
857.4673818136664
  0
LWPOLYLINE
  5
365
330
1F
100
AcDbEntity
  8
ceco.net 416
100
AcDbPolyline
 90
        2
 70
     0
 43
0.0
 10
-222.4203975805139
 20
896.065968416174
 10
-209.7610182800472
 20
862.8519769043862
  0
ELLIPSE
  5
366
330
1F
100
AcDbEntity
  8
ceco.net 416
100
AcDbEllipse
 10
-182.0465236922773
 20
791.7010724384829
 30
0.0
 11
-6.137205876797451
 21
15.73995399883824
 31
0.0
210
0.0
220
0.0
230
1.0
 40
0.307936230954803
 41
2.445340000167676
 42
7.215336661330725
  0
ARC
  5
367
330
1F
100
AcDbEntity
  8
ceco.net 416
100
AcDbCircle
 10
-109.649153478489
 20
821.5922827453297
 30
0.0
 40
82.92603426991545
100
AcDbArc
 50
195.4031279990471
 51
211.3793632680584
  0
ARC
  5
368
330
1F
100
AcDbEntity
  8
ceco.net 416
100
AcDbCircle
 10
0.0
 20
311.4530429700273
 30
0.0
 40
311.4530429700274
100
AcDbArc
 50
118.6552418359191
 51
101.5461636300102
  0
ARC
  5
369
330
1F
100
AcDbEntity
  8
ceco.net 416
100
AcDbCircle
 10
0.0
 20
311.4530429700273
 30
0.0
 40
311.4530429700274
100
AcDbArc
 50
103.5920231624367
 51
104.9427038319849
  0
ARC
  5
36A
330
1F
100
AcDbEntity
  8
ceco.net 416
100
AcDbCircle
 10
0.0
 20
311.4530429700273
 30
0.0
 40
311.4530429700274
100
AcDbArc
 50
108.1522448568521
 51
109.3683787639846
  0
ARC
  5
36B
330
1F
100
AcDbEntity
  8
ceco.net 416
100
AcDbCircle
 10
0.0
 20
311.4530429700273
 30
0.0
 40
287.1427515862928
100
AcDbArc
 50
116.7233107915945
 51
100.8864039126679
  0
ARC
  5
36C
330
1F
100
AcDbEntity
  8
ceco.net 416
100
AcDbCircle
 10
0.0
 20
311.4530429700273
 30
0.0
 40
287.1427515862928
100
AcDbArc
 50
103.9192816316349
 51
104.4747495316425
  0
ARC
  5
36D
330
1F
100
AcDbEntity
  8
ceco.net 416
100
AcDbCircle
 10
0.0
 20
311.4530429700273
 30
0.0
 40
287.1427515862928
100
AcDbArc
 50
108.7284192879285
 51
109.2396018521326
  0
ARC
  5
36E
330
1F
100
AcDbEntity
  8
ceco.net 416
100
AcDbCircle
 10
0.0
 20
311.4530429700273
 30
0.0
 40
259.2408823865563
100
AcDbArc
 50
117.1364864188427
 51
98.70282046068723
  0
ARC
  5
36F
330
1F
100
AcDbEntity
  8
ceco.net 416
100
AcDbCircle
 10
0.0
 20
311.4530429700273
 30
0.0
 40
259.2408823865563
100
AcDbArc
 50
103.4406224421946
 51
104.1353017341567
  0
ARC
  5
370
330
1F
100
AcDbEntity
  8
ceco.net 416
100
AcDbCircle
 10
0.0
 20
311.4530429700273
 30
0.0
 40
279.4083171027299
100
AcDbArc
 50
116.8295568131162
 51
100.6521595300254
  0
ARC
  5
371
330
1F
100
AcDbEntity
  8
ceco.net 416
100
AcDbCircle
 10
0.0
 20
311.4530429700273
 30
0.0
 40
279.4083171027299
100
AcDbArc
 50
103.7962047395448
 51
104.3544183848704
  0
LWPOLYLINE
  5
372
330
1F
100
AcDbEntity
  8
ceco.net 416
100
AcDbPolyline
 90
        2
 70
     0
 43
0.0
 10
-15.15254774849563
 20
346.3968334216235
 10
21.91100856261801
 20
569.7663078333127
  0
LWPOLYLINE
  5
373
330
1F
100
AcDbEntity
  8
ceco.net 416
100
AcDbPolyline
 90
        2
 70
     0
 43
0.0
 10
7.974818998347473
 20
331.435998605709
 10
-27.97893557818679
 20
569.1796699693961
  0
LWPOLYLINE
  5
374
330
1F
100
AcDbEntity
  8
ceco.net 416
100
AcDbPolyline
 90
        2
 70
     0
 43
0.0
 10
16.87977539900202
 20
324.7773850282949
 10
-50.610047592716
 20
552.1560337758266
  0
LWPOLYLINE
  5
375
330
1F
100
AcDbEntity
  8
ceco.net 416
100
AcDbPolyline
 90
        2
 70
     0
 43
0.0
 10
0.0
 20
570.6939253565844
 10
-13.3943723058619
 20
341.650423417371
  0
LWPOLYLINE
  5
376
330
1F
100
AcDbEntity
  8
ceco.net 416
100
AcDbPolyline
 90
        2
 70
     0
 43
0.0
 10
-19.36703174100694
 20
301.9085171335657
 10
21.91100856261801
 20
53.13977810674373
  0
LWPOLYLINE
  5
377
330
1F
100
AcDbEntity
  8
ceco.net 416
100
AcDbPolyline
 90
        2
 70
     0
 43
0.0
 10
7.972461279487106
 20
291.45449695319
 10
-27.97893557818679
 20
53.72641597065854
  0
LWPOLYLINE
  5
378
330
1F
100
AcDbEntity
  8
ceco.net 416
100
AcDbPolyline
 90
        2
 70
     0
 43
0.0
 10
16.89736009260923
 20
298.1879451606539
 10
-54.39922934751485
 20
57.98399368203831
  0
LWPOLYLINE
  5
379
330
1F
100
AcDbEntity
  8
ceco.net 416
100
AcDbPolyline
 90
        2
 70
     0
 43
0.0
 10
0.0
 20
52.21216058347204
 10
-14.20725175036932
 20
295.155884972318
  0
LWPOLYLINE
  5
37A
330
1F
100
AcDbEntity
  8
ceco.net 416
100
AcDbPolyline
 90
        2
 70
     0
 43
0.0
 10
-20.41104011151219
 20
304.4620257967628
 10
-167.1616385180023
 20
509.6015269625561
  0
LWPOLYLINE
  5
37B
330
1F
100
AcDbEntity
  8
ceco.net 416
100
AcDbPolyline
 90
        2
 70
     0
 43
0.0
 10
-38.53005379570095
 20
353.36915396279
 10
-202.0243407213074
 20
473.9091935359003
  0
LWPOLYLINE
  5
37C
330
1F
100
AcDbEntity
  8
ceco.net 416
100
AcDbPolyline
 90
        2
 70
     0
 43
0.0
 10
-39.45940225154845
 20
355.5701822476323
 10
-217.6957475353956
 20
452.2166625795209
  0
LWPOLYLINE
  5
37D
330
1F
100
AcDbEntity
  8
ceco.net 416
100
AcDbPolyline
 90
        2
 70
     0
 43
0.0
 10
-183.310985896318
 20
494.7640288663453
 10
-21.58557827150252
 20
312.9484838528308
  0
LWPOLYLINE
  5
37E
330
1F
100
AcDbEntity
  8
ceco.net 416
100
AcDbPolyline
 90
        2
 70
     0
 43
0.0
 10
-9.646446086944706
 20
292.1029227920401
 10
-258.3132648632836
 20
333.3640515326453
  0
LWPOLYLINE
  5
37F
330
1F
100
AcDbEntity
  8
ceco.net 416
100
AcDbPolyline
 90
        2
 70
     0
 43
0.0
 10
-23.94584775371368
 20
318.828557474558
 10
-257.7266269993669
 20
283.4741073918405
  0
LWPOLYLINE
  5
380
330
1F
100
AcDbEntity
  8
ceco.net 416
100
AcDbPolyline
 90
        2
 70
     0
 43
0.0
 10
-26.32903944092504
 20
324.4728045583626
 10
-253.469049287989
 20
257.0538136225124
  0
LWPOLYLINE
  5
381
330
1F
100
AcDbEntity
  8
ceco.net 416
100
AcDbPolyline
 90
        2
 70
     0
 43
0.0
 10
-259.2408823865553
 20
311.4530429700273
 10
-16.28826761073105
 20
297.2452713133873
  0
LWPOLYLINE
  5
382
330
1F
100
AcDbEntity
  8
ceco.net 416
100
AcDbPolyline
 90
        2
 70
     0
 43
0.0
 10
20.19142514059422
 20
304.1550307584359
 10
167.1616385180023
 20
509.6015269625561
  0
LWPOLYLINE
  5
383
330
1F
100
AcDbEntity
  8
ceco.net 416
100
AcDbPolyline
 90
        2
 70
     0
 43
0.0
 10
8.491076337604681
 20
331.2222055915456
 10
202.0243407213074
 20
473.9091935359003
  0
LWPOLYLINE
  5
384
330
1F
100
AcDbEntity
  8
ceco.net 416
100
AcDbPolyline
 90
        2
 70
     0
 43
0.0
 10
-2.200458429011632
 20
332.980631842068
 10
217.6957475353956
 20
452.2166625795209
  0
LWPOLYLINE
  5
385
330
1F
100
AcDbEntity
  8
ceco.net 416
100
AcDbPolyline
 90
        2
 70
     0
 43
0.0
 10
183.310985896318
 20
494.7640288663453
 10
21.43002908728703
 20
312.7736117648885
  0
LWPOLYLINE
  5
386
330
1F
100
AcDbEntity
  8
ceco.net 416
100
AcDbPolyline
 90
        2
 70
     0
 43
0.0
 10
9.28694170932431
 20
292.0432704569168
 10
258.3132648632836
 20
333.3640515326453
  0
LWPOLYLINE
  5
387
330
1F
100
AcDbEntity
  8
ceco.net 416
100
AcDbPolyline
 90
        2
 70
     0
 43
0.0
 10
13.3547228936186
 20
328.3238008240161
 10
253.469049287989
 20
257.0538136225124
  0
LWPOLYLINE
  5
388
330
1F
100
AcDbEntity
  8
ceco.net 416
100
AcDbPolyline
 90
        2
 70
     0
 43
0.0
 10
259.2408823865553
 20
311.4530429700273
 10
16.1079924955502
 20
297.2347288968151
  0
LWPOLYLINE
  5
389
330
1F
100
AcDbEntity
  8
ceco.net 416
100
AcDbPolyline
 90
        2
 70
     0
 43
0.0
 10
-22.53177531231085
 20
315.4795300771777
 10
-167.1616385180023
 20
113.3045589774985
  0
LWPOLYLINE
  5
38A
330
1F
100
AcDbEntity
  8
ceco.net 416
100
AcDbPolyline
 90
        2
 70
     0
 43
0.0
 10
-8.588111521132304
 20
291.6123388586977
 10
-202.0243407213074
 20
148.9968924041543
  0
LWPOLYLINE
  5
38B
330
1F
100
AcDbEntity
  8
ceco.net 416
100
AcDbPolyline
 90
        2
 70
     0
 43
0.0
 10
2.355009187323958
 20
290.0092573582035
 10
-217.6957475353956
 20
170.6894233605337
  0
LWPOLYLINE
  5
38C
330
1F
100
AcDbEntity
  8
ceco.net 416
100
AcDbPolyline
 90
        2
 70
     0
 43
0.0
 10
-183.310985896318
 20
128.1420570737093
 10
-21.48830646690293
 20
310.066957360633
  0
LWPOLYLINE
  5
38D
330
1F
100
AcDbEntity
  8
ceco.net 416
100
AcDbPolyline
 90
        2
 70
     0
 43
0.0
 10
20.2178065499138
 20
318.7141771776707
 10
167.1616385180023
 20
113.3045589774985
  0
LWPOLYLINE
  5
38E
330
1F
100
AcDbEntity
  8
ceco.net 416
100
AcDbPolyline
 90
        2
 70
     0
 43
0.0
 10
8.499202956658336
 20
291.6778888059263
 10
202.0243407213074
 20
148.9968924041543
  0
LWPOLYLINE
  5
38F
330
1F
100
AcDbEntity
  8
ceco.net 416
100
AcDbPolyline
 90
        2
 70
     0
 43
0.0
 10
-2.294573150122232
 20
289.976486655508
 10
217.6957475353956
 20
170.6894233605337
  0
LWPOLYLINE
  5
390
330
1F
100
AcDbEntity
  8
ceco.net 416
100
AcDbPolyline
 90
        2
 70
     0
 43
0.0
 10
183.310985896318
 20
128.1420570737093
 10
21.42792297308187
 20
310.1348419187881
  0
CIRCLE
  5
391
330
1F
100
AcDbEntity
  8
ceco.net 416
100
AcDbCircle
 10
0.0
 20
311.4530429700273
 30
0.0
 40
10.8381011824822
  0
LWPOLYLINE
  5
392
330
1F
100
AcDbEntity
  8
ceco.net 416
100
AcDbPolyline
 90
        2
 70
     0
 43
0.0
 10
-174.4199943555231
 20
655.0299578168626
 10
-127.5333472199909
 20
672.3978108905096
  0
LWPOLYLINE
  5
393
330
1F
100
AcDbEntity
  8
ceco.net 416
100
AcDbPolyline
 90
        2
 70
     0
 43
0.0
 10
-173.0305661096317
 20
651.2790260460199
 10
-126.1439189740995
 20
668.6468791196668
  0
LWPOLYLINE
  5
394
330
1F
100
AcDbEntity
  8
ceco.net 416
100
AcDbPolyline
 90
        2
 70
     0
 43
0.0
 10
-171.6411378637403
 20
647.5280942751772
 10
-124.7544907282081
 20
664.8959473488242
  0
LWPOLYLINE
  5
395
330
1F
100
AcDbEntity
  8
ceco.net 416
100
AcDbPolyline
 90
       11
 70
     0
 43
0.0
 10
-80.68119762163041
 20
523.2707866007778
 10
-80.68119762163041
 20
523.2707866007778
 42
-0.135854475517515
 10
-77.03024844633183
 20
538.7847061689438
 42
-0.0449601415334978
 10
-68.8393228492805
 20
548.623540997348
 42
0.2899868945400137
 10
-63.30987285597803
 20
562.8445605268473
 42
0.0005007218980489
 10
-66.43964631215204
 20
573.4000072871906
 42
0.0462037569273726
 10
-106.6435095774941
 20
669.1596001977934
 42
0.2956006060812865
 10
-112.2508362305234
 20
672.1599342677412
 42
0.0455378431807725
 10
-117.9328592107031
 20
671.1580403113287
 10
-92.62456159405701
 20
593.965634498086
 42
-0.3138909856016685
 10
-98.99389705508657
 20
572.7368274114407
 42
2.509966347881837
  0
LWPOLYLINE
  5
396
330
1F
100
AcDbEntity
  8
ceco.net 416
100
AcDbPolyline
 90
       18
 70
     0
 43
0.0
 10
-771.4804620766662
 20
750.990824336409
 10
-736.5097304746159
 20
760.7154053458118
 42
0.0700487670382302
 10
-716.6809317202424
 20
769.3594308546646
 42
-0.0807878811082155
 10
-647.778080593911
 20
797.6611686628942
 42
0.0002251415436388
 10
-635.8447961225756
 20
800.4422110665812
 42
0.4244000233107201
 10
-630.687976665853
 20
809.0713102342899
 42
0.2012892889826528
 10
-647.7380093194078
 20
830.9795520831587
 42
0.1537417610982113
 10
-676.5760680742096
 20
837.0386701010332
 42
0.0280295696486747
 10
-722.6948639526381
 20
829.8776533097454
 42
-0.1136591555038339
 10
-766.8587119910516
 20
830.5957916672097
 42
0.0262624513746159
 10
-800.5268325304495
 20
837.0741027239466
 42
0.110863668343446
 10
-834.8891289720777
 20
834.2069897362428
 42
0.1435524585283589
 10
-851.1801645441446
 20
823.3174566244462
 42
0.085700265859619
 10
-864.6081664822414
 20
800.1574945965888
 42
0.2116875764964655
 10
-863.6579469217103
 20
785.0390639894223
 42
0.1490103683651159
 10
-844.2224948691437
 20
765.2280428215792
 42
0.1131770311718609
 10
-797.6440579010523
 20
752.149917501146
 42
0.0020303703695633
 10
-771.4804620766662
 20
750.990824336409
 42
0.2309940766915034
  0
LWPOLYLINE
  5
397
330
1F
100
AcDbEntity
  8
ceco.net 416
100
AcDbPolyline
 90
        6
 70
     0
 43
0.0
 10
-779.4942757781137
 20
751.3232330716284
 10
-793.2161820699693
 20
767.5292103321746
 42
0.0829834605009777
 10
-818.1994431472267
 20
788.6845786932438
 42
-0.0527862621888754
 10
-838.2247679316206
 20
803.672578188479
 42
-0.1102313083969368
 10
-849.9694848004564
 20
820.7211455355839
 42
-0.2329379959031526
 10
-849.6498411175744
 20
825.0295925779767
 42
-1.972454063324638
  0
LWPOLYLINE
  5
398
330
1F
100
AcDbEntity
  8
ceco.net 416
100
AcDbPolyline
 90
        3
 70
     0
 43
0.0
 10
-771.4804620766662
 20
750.990824336409
 10
-788.5600067845826
 20
771.471681675762
 42
0.0946136190577481
 10
-820.8702689240398
 20
797.3754368206057
  0
LWPOLYLINE
  5
399
330
1F
100
AcDbEntity
  8
ceco.net 416
100
AcDbPolyline
 90
        3
 70
     0
 43
0.0
 10
-824.418090357347
 20
800.1374629564354
 42
-0.0278517277157355
 10
-834.0750485419011
 20
808.1450358539962
 42
-0.1444876324196416
 10
-846.0475019091827
 20
828.3086394571212
  0
LWPOLYLINE
  5
39A
330
1F
100
AcDbEntity
  8
ceco.net 416
100
AcDbPolyline
 90
        8
 70
     0
 43
0.0
 10
-644.2362964509375
 20
798.485396297324
 10
-648.0485616966616
 20
806.3883352869499
 42
0.2614373026257499
 10
-674.4785136397113
 20
824.8572412378027
 42
0.1127771459190549
 10
-704.3740415426436
 20
821.0666480779229
 42
-0.1031181263337164
 10
-764.2334542285534
 20
812.3124187418772
 42
-0.013487621794119
 10
-789.5829570625392
 20
814.5302128658688
 42
0.1547678310491382
 10
-806.3427655242266
 20
811.2572519711296
 42
0.1226152071931391
 10
-821.0369112722601
 20
797.7328024896189
 42
1.883803927797853
  0
LWPOLYLINE
  5
39B
330
1F
100
AcDbEntity
  8
ceco.net 416
100
AcDbPolyline
 90
        8
 70
     0
 43
0.0
 10
-640.501426994544
 20
800.2870441456263
 10
-644.3136922402682
 20
808.1899831352522
 42
0.2614373026257488
 10
-674.0707906676016
 20
828.9838556859443
 42
0.1127771459190546
 10
-705.7987697231801
 20
824.9609175135386
 42
-0.103118126333716
 10
-763.9835888341986
 20
816.4515916194334
 42
-0.0134876217941194
 10
-789.1102666128753
 20
818.6498910771362
 42
0.1547678310491316
 10
-808.3306510229631
 20
814.896413422549
 42
0.1217962830449322
 10
-824.418090357347
 20
800.1374629564354
 42
0.1217962830449322
  0
LWPOLYLINE
  5
39C
330
1F
100
AcDbEntity
  8
ceco.net 416
100
AcDbPolyline
 90
        7
 70
     0
 43
0.0
 10
-839.8181780631349
 20
762.9561808641021
 42
0.4768171705780905
 10
-838.4089190092053
 20
758.5116077989852
 42
-0.3389156961917776
 10
-837.2156200262834
 20
756.5360298234057
 42
0.0206811030873837
 10
-837.3909318521619
 20
753.9919953974506
 42
0.236136902923952
 10
-835.0594101918741
 20
748.9920310616446
 42
0.2076567264826079
 10
-814.8455364007968
 20
743.5888936089661
 42
0.1788020656495929
 10
-799.1079918579361
 20
752.2306716340456
 42
6.581461114007186
  0
ARC
  5
39D
330
1F
100
AcDbEntity
  8
ceco.net 416
100
AcDbCircle
 10
-765.2489980043883
 20
752.7236556042146
 30
0.0
 40
14.42812943796916
100
AcDbArc
 50
185.5503626571279
 51
15.54006368019978
  0
ARC
  5
39E
330
1F
100
AcDbEntity
  8
ceco.net 416
100
AcDbCircle
 10
-765.2489980043883
 20
752.7236556042146
 30
0.0
 40
9.086838110262823
100
AcDbArc
 50
190.2867832900319
 51
15.54006368019978
  0
ARC
  5
39F
330
1F
100
AcDbEntity
  8
ceco.net 416
100
AcDbCircle
 10
-593.698359969654
 20
255.6269925800636
 30
0.0
 40
81.02081466741076
100
AcDbArc
 50
85.61366035771845
 51
130.9562730768018
  0
ARC
  5
3A0
330
1F
100
AcDbEntity
  8
ceco.net 416
100
AcDbCircle
 10
-593.698359969654
 20
255.6269925800636
 30
0.0
 40
81.02081466741076
100
AcDbArc
 50
175.6136603577184
 51
220.9562730768386
  0
ARC
  5
3A1
330
1F
100
AcDbEntity
  8
ceco.net 416
100
AcDbCircle
 10
-593.698359969654
 20
255.6269925800636
 30
0.0
 40
81.02081466741076
100
AcDbArc
 50
265.6136603577184
 51
276.2371271184118
  0
ARC
  5
3A2
330
1F
100
AcDbEntity
  8
ceco.net 416
100
AcDbCircle
 10
-593.698359969654
 20
255.6269925800636
 30
0.0
 40
81.02081466741076
100
AcDbArc
 50
297.5477201670585
 51
310.9562730768018
  0
ARC
  5
3A3
330
1F
100
AcDbEntity
  8
ceco.net 416
100
AcDbCircle
 10
-593.698359969654
 20
255.6269925800636
 30
0.0
 40
81.02081466741076
100
AcDbArc
 50
355.6136603577184
 51
40.95627307691216
  0
ARC
  5
3A4
330
1F
100
AcDbEntity
  8
ceco.net 416
100
AcDbCircle
 10
-593.698359969654
 20
255.6269925800636
 30
0.0
 40
17.57219987689921
100
AcDbArc
 50
16.30509161628873
 51
198.763267118778
  0
LWPOLYLINE
  5
3A5
330
1F
100
AcDbEntity
  8
ceco.net 416
100
AcDbPolyline
 90
        3
 70
     0
 43
0.0
 10
-610.3366971141349
 20
249.974741207355
 10
-577.5487524252384
 20
153.458000879332
 42
0.0305481020922512
 10
-560.9684476187514
 20
111.931594560204
 42
0.0305481020922512
  0
LWPOLYLINE
  5
3A6
330
1F
100
AcDbEntity
  8
ceco.net 416
100
AcDbPolyline
 90
        6
 70
     0
 43
0.0
 10
-576.8842500549162
 20
260.732667490279
 10
-559.8944095954066
 20
203.7345213283162
 42
-0.0375200029135221
 10
-557.4974991691415
 20
192.7418988136098
 42
0.069870786677957
 10
-542.8829750076983
 20
137.4724475002342
 42
0.047799729742603
 10
-542.8829750076983
 20
137.4724475002342
 42
0.0419737292931278
 10
-531.6338887445206
 20
111.931594560204
 42
1.750997305977854
  0
LWPOLYLINE
  5
3A7
330
1F
100
AcDbEntity
  8
ceco.net 416
100
AcDbPolyline
 90
        2
 70
     0
 43
0.0
 10
-581.906650846824
 20
106.6690877068369
 10
-581.906650846824
 20
110.931594560204
  0
LWPOLYLINE
  5
3A8
330
1F
100
AcDbEntity
  8
ceco.net 416
100
AcDbPolyline
 90
        2
 70
     0
 43
0.0
 10
-580.906650846824
 20
111.931594560204
 10
-511.7153174487175
 20
111.931594560204
  0
LWPOLYLINE
  5
3A9
330
1F
100
AcDbEntity
  8
ceco.net 416
100
AcDbPolyline
 90
        2
 70
     0
 43
0.0
 10
-510.7153174487175
 20
110.931594560204
 10
-510.7153174487175
 20
106.6690877068369
  0
LWPOLYLINE
  5
3AA
330
1F
100
AcDbEntity
  8
ceco.net 416
100
AcDbPolyline
 90
        2
 70
     0
 43
0.0
 10
-511.7153174487175
 20
105.6690877068369
 10
-580.906650846824
 20
105.6690877068369
  0
LWPOLYLINE
  5
3AB
330
1F
100
AcDbEntity
  8
ceco.net 416
100
AcDbPolyline
 90
        2
 70
     0
 43
0.0
 10
-581.906650846824
 20
106.6690877068369
 10
-581.906650846824
 20
110.931594560204
  0
LWPOLYLINE
  5
3AC
330
1F
100
AcDbEntity
  8
ceco.net 416
100
AcDbPolyline
 90
        2
 70
     0
 43
0.0
 10
-580.906650846824
 20
111.931594560204
 10
-511.7153174487175
 20
111.931594560204
  0
LWPOLYLINE
  5
3AD
330
1F
100
AcDbEntity
  8
ceco.net 416
100
AcDbPolyline
 90
        2
 70
     0
 43
0.0
 10
-510.7153174487175
 20
110.931594560204
 10
-510.7153174487175
 20
106.6690877068369
  0
LINE
  5
3AE
330
1F
100
AcDbEntity
  8
ceco.net 416
100
AcDbLine
 10
-577.1325709898373
 20
105.6690877068369
 30
0.0
 11
-577.1325709898373
 21
92.12559533892386
 31
0.0
  0
LINE
  5
3AF
330
1F
100
AcDbEntity
  8
ceco.net 416
100
AcDbLine
 10
-515.4893973057041
 20
105.6690877068369
 30
0.0
 11
-515.4893973057041
 21
92.12559533892386
 31
0.0
  0
ARC
  5
3B0
330
1F
100
AcDbEntity
  8
ceco.net 416
100
AcDbCircle
 10
-593.698359969654
 20
255.6269925800636
 30
0.0
 40
40.78474260818345
100
AcDbArc
 50
76.3141602089075
 51
140.2177288417117
  0
ARC
  5
3B1
330
1F
100
AcDbEntity
  8
ceco.net 416
100
AcDbCircle
 10
-593.698359969654
 20
255.6269925800636
 30
0.0
 40
40.78474260818345
100
AcDbArc
 50
166.3141602088507
 51
230.2177288417567
  0
ARC
  5
3B2
330
1F
100
AcDbEntity
  8
ceco.net 416
100
AcDbCircle
 10
-593.698359969654
 20
255.6269925800636
 30
0.0
 40
40.78474260818345
100
AcDbArc
 50
256.3141602089074
 51
263.2416061500541
  0
ARC
  5
3B3
330
1F
100
AcDbEntity
  8
ceco.net 416
100
AcDbCircle
 10
-593.698359969654
 20
255.6269925800636
 30
0.0
 40
40.78474260818345
100
AcDbArc
 50
312.1194154104248
 51
320.2177288417117
  0
ARC
  5
3B4
330
1F
100
AcDbEntity
  8
ceco.net 416
100
AcDbCircle
 10
-593.698359969654
 20
255.6269925800636
 30
0.0
 40
40.78474260818345
100
AcDbArc
 50
346.3141602088506
 51
50.21772884175677
  0
ARC
  5
3B5
330
1F
100
AcDbEntity
  8
ceco.net 416
100
AcDbCircle
 10
-593.698359969654
 20
255.6269925800636
 30
0.0
 40
57.36880262956741
100
AcDbArc
 50
76.15818523644057
 51
140.3737038142197
  0
ARC
  5
3B6
330
1F
100
AcDbEntity
  8
ceco.net 416
100
AcDbCircle
 10
-593.698359969654
 20
255.6269925800636
 30
0.0
 40
57.36880262956741
100
AcDbArc
 50
166.1581852364405
 51
230.3737038142197
  0
ARC
  5
3B7
330
1F
100
AcDbEntity
  8
ceco.net 416
100
AcDbCircle
 10
-593.698359969654
 20
255.6269925800636
 30
0.0
 40
57.36880262956741
100
AcDbArc
 50
256.1581852364405
 51
270.926732698498
  0
ARC
  5
3B8
330
1F
100
AcDbEntity
  8
ceco.net 416
100
AcDbCircle
 10
-593.698359969654
 20
255.6269925800636
 30
0.0
 40
57.36880262956741
100
AcDbArc
 50
304.4344055025322
 51
320.3737038142197
  0
ARC
  5
3B9
330
1F
100
AcDbEntity
  8
ceco.net 416
100
AcDbCircle
 10
-593.698359969654
 20
255.6269925800636
 30
0.0
 40
57.36880262956741
100
AcDbArc
 50
346.1581852364405
 51
50.37370381421975
  0
ARC
  5
3BA
330
1F
100
AcDbEntity
  8
ceco.net 416
100
AcDbCircle
 10
-593.698359969654
 20
255.6269925800636
 30
0.0
 40
71.9372400247893
100
AcDbArc
 50
77.62501060010492
 51
138.9068858815164
  0
ARC
  5
3BB
330
1F
100
AcDbEntity
  8
ceco.net 416
100
AcDbCircle
 10
-593.698359969654
 20
255.6269925800636
 30
0.0
 40
71.9372400247893
100
AcDbArc
 50
167.6250106001586
 51
228.9068858814601
  0
ARC
  5
3BC
330
1F
100
AcDbEntity
  8
ceco.net 416
100
AcDbCircle
 10
-593.698359969654
 20
255.6269925800636
 30
0.0
 40
71.9372400247893
100
AcDbArc
 50
257.6250106001048
 51
274.6244958743282
  0
ARC
  5
3BD
330
1F
100
AcDbEntity
  8
ceco.net 416
100
AcDbCircle
 10
-593.698359969654
 20
255.6269925800636
 30
0.0
 40
71.9372400247893
100
AcDbArc
 50
300.1249915911206
 51
318.9068858815165
  0
ARC
  5
3BE
330
1F
100
AcDbEntity
  8
ceco.net 416
100
AcDbCircle
 10
-593.698359969654
 20
255.6269925800636
 30
0.0
 40
71.9372400247893
100
AcDbArc
 50
347.6250106001586
 51
48.90688588146011
  0
ARC
  5
3BF
330
1F
100
AcDbEntity
  8
ceco.net 416
100
AcDbCircle
 10
-664.5111557435284
 20
261.0587575519978
 30
0.0
 40
10.0
100
AcDbArc
 50
86.8646354710801
 51
180.0
  0
LWPOLYLINE
  5
3C0
330
1F
100
AcDbEntity
  8
ceco.net 416
100
AcDbPolyline
 90
        5
 70
     0
 43
0.0
 10
-654.8860935238008
 20
202.5192372906742
 42
0.4011993424733399
 10
-640.9816055303527
 20
201.4120390005293
 42
0.0664121110526627
 10
-619.795372403465
 20
224.2846702084637
 42
0.4707163457325981
 10
-633.3251267916039
 20
265.2765822529265
 42
0.0664121110526625
 10
-663.9642024749901
 20
271.0437976770838
  0
ARC
  5
3C1
330
1F
100
AcDbEntity
  8
ceco.net 416
100
AcDbCircle
 10
-599.1301249415864
 20
184.8141968061893
 30
0.0
 40
10.0
100
AcDbArc
 50
176.8646354710801
 51
270.0
  0
LWPOLYLINE
  5
3C2
330
1F
100
AcDbEntity
  8
ceco.net 416
100
AcDbPolyline
 90
        4
 70
     0
 43
0.0
 10
-540.5906046802629
 20
194.4392590259169
 42
0.401199342473296
 10
-539.4834063901198
 20
208.343747019365
 42
0.0664121110526627
 10
-562.3560375980523
 20
229.5299801462526
 42
0.0602520399432111
 10
-568.4386385788821
 20
232.3990172429232
 42
0.0602520399432111
  0
LWPOLYLINE
  5
3C3
330
1F
100
AcDbEntity
  8
ceco.net 416
100
AcDbPolyline
 90
        3
 70
     0
 43
0.0
 10
-600.5957308830129
 20
221.3005953530184
 42
0.0534651007954529
 10
-603.3479496425152
 20
216.0002257581138
 42
0.0664121110526625
 10
-609.1151650666724
 20
185.3611500747276
  0
ARC
  5
3C4
330
1F
100
AcDbEntity
  8
ceco.net 416
100
AcDbCircle
 10
-522.8855641957779
 20
250.1952276081313
 30
0.0
 40
10.0
100
AcDbArc
 50
266.864635471028
 51
0.0
  0
LWPOLYLINE
  5
3C5
330
1F
100
AcDbEntity
  8
ceco.net 416
100
AcDbPolyline
 90
        5
 70
     0
 43
0.0
 10
-532.5106264155074
 20
308.7347478694548
 42
0.4011993424733399
 10
-546.4151144089555
 20
309.8419461595979
 42
0.0664121110526627
 10
-567.6013475358413
 20
286.9693149516653
 42
0.4707163457325981
 10
-554.0715931477024
 20
245.9774029072025
 42
0.0664121110526625
 10
-523.4325174643163
 20
240.2101874830453
  0
ARC
  5
3C6
330
1F
100
AcDbEntity
  8
ceco.net 416
100
AcDbCircle
 10
-588.2665949977199
 20
326.4397883539397
 30
0.0
 40
10.0
100
AcDbArc
 50
356.864635471028
 51
90.0
  0
LWPOLYLINE
  5
3C7
330
1F
100
AcDbEntity
  8
ceco.net 416
100
AcDbPolyline
 90
        5
 70
     0
 43
0.0
 10
-646.8061152590453
 20
316.8147261342103
 42
0.4011993424733399
 10
-647.9133135491865
 20
302.9102381407621
 42
0.0664121110526627
 10
-625.0406823412559
 20
281.7240050138764
 42
0.4707163457325981
 10
-584.0487702967911
 20
295.2537594020152
 42
0.0664121110526625
 10
-578.2815548726357
 20
325.8928350854014
  0
ARC
  5
3C8
330
1F
100
AcDbEntity
  8
ceco.net 416
100
AcDbCircle
 10
-580.906650846824
 20
110.931594560204
 30
0.0
 40
1.0
100
AcDbArc
 50
90.0
 51
180.0
  0
ARC
  5
3C9
330
1F
100
AcDbEntity
  8
ceco.net 416
100
AcDbCircle
 10
-580.906650846824
 20
106.6690877068369
 30
0.0
 40
1.0
100
AcDbArc
 50
180.0
 51
270.0
  0
ARC
  5
3CA
330
1F
100
AcDbEntity
  8
ceco.net 416
100
AcDbCircle
 10
-511.7153174487175
 20
110.931594560204
 30
0.0
 40
1.0
100
AcDbArc
 50
0.0
 51
90.0
  0
ARC
  5
3CB
330
1F
100
AcDbEntity
  8
ceco.net 416
100
AcDbCircle
 10
-511.7153174487175
 20
106.6690877068369
 30
0.0
 40
1.0
100
AcDbArc
 50
270.0
 51
0.0
  0
LWPOLYLINE
  5
3CC
330
1F
100
AcDbEntity
  8
ceco.net 416
100
AcDbPolyline
 90
        2
 70
     0
 43
0.0
 10
-581.906650846824
 20
91.12559533892385
 10
-581.906650846824
 20
86.86308848555677
  0
LWPOLYLINE
  5
3CD
330
1F
100
AcDbEntity
  8
ceco.net 416
100
AcDbPolyline
 90
        2
 70
     0
 43
0.0
 10
-580.906650846824
 20
85.86308848555677
 10
-511.7153174487175
 20
85.86308848555677
  0
LWPOLYLINE
  5
3CE
330
1F
100
AcDbEntity
  8
ceco.net 416
100
AcDbPolyline
 90
        2
 70
     0
 43
0.0
 10
-510.7153174487175
 20
86.86308848555677
 10
-510.7153174487175
 20
91.12559533892385
  0
LWPOLYLINE
  5
3CF
330
1F
100
AcDbEntity
  8
ceco.net 416
100
AcDbPolyline
 90
        2
 70
     0
 43
0.0
 10
-511.7153174487175
 20
92.12559533892386
 10
-580.906650846824
 20
92.12559533892386
  0
LWPOLYLINE
  5
3D0
330
1F
100
AcDbEntity
  8
ceco.net 416
100
AcDbPolyline
 90
        2
 70
     0
 43
0.0
 10
-581.906650846824
 20
91.12559533892385
 10
-581.906650846824
 20
86.86308848555677
  0
LWPOLYLINE
  5
3D1
330
1F
100
AcDbEntity
  8
ceco.net 416
100
AcDbPolyline
 90
        2
 70
     0
 43
0.0
 10
-580.906650846824
 20
85.86308848555677
 10
-511.7153174487175
 20
85.86308848555677
  0
LWPOLYLINE
  5
3D2
330
1F
100
AcDbEntity
  8
ceco.net 416
100
AcDbPolyline
 90
        2
 70
     0
 43
0.0
 10
-510.7153174487175
 20
86.86308848555677
 10
-510.7153174487175
 20
91.12559533892385
  0
ARC
  5
3D3
330
1F
100
AcDbEntity
  8
ceco.net 416
100
AcDbCircle
 10
-580.906650846824
 20
86.86308848555677
 30
0.0
 40
1.0
100
AcDbArc
 50
180.0
 51
270.0
  0
ARC
  5
3D4
330
1F
100
AcDbEntity
  8
ceco.net 416
100
AcDbCircle
 10
-511.7153174487175
 20
86.86308848555677
 30
0.0
 40
1.0
100
AcDbArc
 50
270.0
 51
0.0
  0
ARC
  5
3D5
330
1F
100
AcDbEntity
  8
ceco.net 416
100
AcDbCircle
 10
-511.7153174487175
 20
91.12559533892385
 30
0.0
 40
1.0
100
AcDbArc
 50
0.0
 51
90.0
  0
ARC
  5
3D6
330
1F
100
AcDbEntity
  8
ceco.net 416
100
AcDbCircle
 10
-580.906650846824
 20
91.12559533892385
 30
0.0
 40
1.0
100
AcDbArc
 50
90.0
 51
180.0
  0
ARC
  5
3D7
330
1F
100
AcDbEntity
  8
ceco.net 416
100
AcDbCircle
 10
-511.7153174487175
 20
91.12559533892385
 30
0.0
 40
1.0
100
AcDbArc
 50
0.0
 51
90.0
  0
LWPOLYLINE
  5
3D8
330
1F
100
AcDbEntity
  8
ceco.net 416
100
AcDbPolyline
 90
        2
 70
     0
 43
0.0
 10
-581.906650846824
 20
106.6690877068369
 10
-581.906650846824
 20
110.931594560204
  0
LWPOLYLINE
  5
3D9
330
1F
100
AcDbEntity
  8
ceco.net 416
100
AcDbPolyline
 90
        2
 70
     0
 43
0.0
 10
-580.906650846824
 20
111.931594560204
 10
-511.7153174487175
 20
111.931594560204
  0
LWPOLYLINE
  5
3DA
330
1F
100
AcDbEntity
  8
ceco.net 416
100
AcDbPolyline
 90
        2
 70
     0
 43
0.0
 10
-510.7153174487175
 20
110.931594560204
 10
-510.7153174487175
 20
106.6690877068369
  0
LWPOLYLINE
  5
3DB
330
1F
100
AcDbEntity
  8
ceco.net 416
100
AcDbPolyline
 90
        2
 70
     0
 43
0.0
 10
-675.6814024905906
 20
405.5848974532903
 10
-651.3216060933063
 20
405.5848974532903
  0
LWPOLYLINE
  5
3DC
330
1F
100
AcDbEntity
  8
ceco.net 416
100
AcDbPolyline
 90
        2
 70
     0
 43
0.0
 10
-615.940479835821
 20
405.5848974532903
 10
-606.4900690924842
 20
405.5848974532903
  0
LWPOLYLINE
  5
3DD
330
1F
100
AcDbEntity
  8
ceco.net 416
100
AcDbPolyline
 90
        2
 70
     0
 43
0.0
 10
-605.4900690924841
 20
404.5848974532902
 10
-605.4900690924841
 20
400.3223905999232
  0
LWPOLYLINE
  5
3DE
330
1F
100
AcDbEntity
  8
ceco.net 416
100
AcDbPolyline
 90
        2
 70
     0
 43
0.0
 10
-606.4900690924842
 20
399.3223905999231
 10
-614.9928141995296
 20
399.3223905999231
  0
LWPOLYLINE
  5
3DF
330
1F
100
AcDbEntity
  8
ceco.net 416
100
AcDbPolyline
 90
        2
 70
     0
 43
0.0
 10
-649.2952514878107
 20
399.3223905999231
 10
-675.6814024905906
 20
399.3223905999231
  0
LWPOLYLINE
  5
3E0
330
1F
100
AcDbEntity
  8
ceco.net 416
100
AcDbPolyline
 90
        2
 70
     0
 43
0.0
 10
-676.6814024905906
 20
400.3223905999232
 10
-676.6814024905906
 20
404.5848974532902
  0
LINE
  5
3E1
330
1F
100
AcDbEntity
  8
ceco.net 416
100
AcDbLine
 10
-610.2641489494708
 20
405.5848974532903
 30
0.0
 11
-610.2641489494708
 21
413.214953124064
 31
0.0
  0
LINE
  5
3E2
330
1F
100
AcDbEntity
  8
ceco.net 416
100
AcDbLine
 10
-671.907322633604
 20
405.5848974532903
 30
0.0
 11
-671.907322633604
 21
419.1283898212033
 31
0.0
  0
ARC
  5
3E3
330
1F
100
AcDbEntity
  8
ceco.net 416
100
AcDbCircle
 10
-606.4900690924842
 20
400.3223905999232
 30
0.0
 40
1.0
100
AcDbArc
 50
270.0
 51
0.0
  0
ARC
  5
3E4
330
1F
100
AcDbEntity
  8
ceco.net 416
100
AcDbCircle
 10
-606.4900690924842
 20
404.5848974532902
 30
0.0
 40
1.0
100
AcDbArc
 50
0.0
 51
90.0
  0
ARC
  5
3E5
330
1F
100
AcDbEntity
  8
ceco.net 416
100
AcDbCircle
 10
-675.6814024905906
 20
400.3223905999232
 30
0.0
 40
1.0
100
AcDbArc
 50
180.0
 51
270.0
  0
ARC
  5
3E6
330
1F
100
AcDbEntity
  8
ceco.net 416
100
AcDbCircle
 10
-675.6814024905906
 20
404.5848974532902
 30
0.0
 40
1.0
100
AcDbArc
 50
90.0
 51
180.0
  0
LWPOLYLINE
  5
3E7
330
1F
100
AcDbEntity
  8
ceco.net 416
100
AcDbPolyline
 90
        2
 70
     0
 43
0.0
 10
-581.906650846824
 20
91.12559533892385
 10
-581.906650846824
 20
86.86308848555677
  0
LWPOLYLINE
  5
3E8
330
1F
100
AcDbEntity
  8
ceco.net 416
100
AcDbPolyline
 90
        2
 70
     0
 43
0.0
 10
-580.906650846824
 20
85.86308848555677
 10
-511.7153174487175
 20
85.86308848555677
  0
LWPOLYLINE
  5
3E9
330
1F
100
AcDbEntity
  8
ceco.net 416
100
AcDbPolyline
 90
        2
 70
     0
 43
0.0
 10
-510.7153174487175
 20
86.86308848555677
 10
-510.7153174487175
 20
91.12559533892385
  0
LWPOLYLINE
  5
3EA
330
1F
100
AcDbEntity
  8
ceco.net 416
100
AcDbPolyline
 90
        2
 70
     0
 43
0.0
 10
-675.6814024905906
 20
419.1283898212033
 10
-655.7038636743055
 20
419.1283898212033
  0
LWPOLYLINE
  5
3EB
330
1F
100
AcDbEntity
  8
ceco.net 416
100
AcDbPolyline
 90
        2
 70
     0
 43
0.0
 10
-657.7302182798011
 20
425.3908966745704
 10
-675.6814024905906
 20
425.3908966745704
  0
LWPOLYLINE
  5
3EC
330
1F
100
AcDbEntity
  8
ceco.net 416
100
AcDbPolyline
 90
        2
 70
     0
 43
0.0
 10
-676.6814024905906
 20
424.3908966745705
 10
-676.6814024905906
 20
420.1283898212034
  0
ARC
  5
3ED
330
1F
100
AcDbEntity
  8
ceco.net 416
100
AcDbCircle
 10
-675.6814024905906
 20
424.3908966745705
 30
0.0
 40
1.0
100
AcDbArc
 50
90.0
 51
180.0
  0
ARC
  5
3EE
330
1F
100
AcDbEntity
  8
ceco.net 416
100
AcDbCircle
 10
-511.7153174487175
 20
91.12559533892385
 30
0.0
 40
1.0
100
AcDbArc
 50
0.0
 51
90.0
  0
ARC
  5
3EF
330
1F
100
AcDbEntity
  8
ceco.net 416
100
AcDbCircle
 10
-675.6814024905906
 20
420.1283898212034
 30
0.0
 40
1.0
100
AcDbArc
 50
180.0
 51
270.0
  0
LWPOLYLINE
  5
3F0
330
1F
100
AcDbEntity
  8
ceco.net 416
100
AcDbPolyline
 90
       25
 70
     0
 43
0.0
 10
-141.0737164541424
 20
565.0075953166754
 42
0.487852732511424
 10
-142.4631447000319
 20
568.7585270875199
 42
-0.4878527325109977
 10
-143.8525729459342
 20
572.5094588583426
 42
0.487852732511424
 10
-145.2420011918238
 20
576.2603906291872
 42
-0.4878527325109977
 10
-146.6314294377116
 20
580.0113224000317
 42
0.487852732511424
 10
-148.0208576836012
 20
583.7622541708762
 42
-0.4878527325109977
 10
-149.4102859294889
 20
587.5131859417208
 42
0.487852732511424
 10
-150.7997141753785
 20
591.2641177125654
 42
-0.4878527325109977
 10
-152.1891424212899
 20
595.0150494833717
 42
0.487852732511424
 10
-153.5785706671795
 20
598.765981254218
 42
-0.4878527325109977
 10
-154.9679989130672
 20
602.5169130250608
 42
0.487852732511424
 10
-156.3574271589568
 20
606.2678447959072
 42
-0.4878527325109977
 10
-157.7468554048446
 20
610.0187765667499
 42
0.487852732511424
 10
-159.1362836507341
 20
613.7697083375963
 42
-0.4878527325109977
 10
-160.5257118966219
 20
617.5206401084389
 42
0.487852732511424
 10
-161.9151401425115
 20
621.2715718792853
 42
-0.4878527325109977
 10
-163.3045683883992
 20
625.0225036501281
 42
0.487852732511424
 10
-164.6939966342888
 20
628.7734354209744
 42
-0.4878527325109977
 10
-166.0834248801893
 20
632.5243671917972
 42
0.487852732511424
 10
-167.4728531260789
 20
636.2752989626417
 42
-0.4878527325109977
 10
-168.8622813719666
 20
640.0262307334863
 42
0.487852732511424
 10
-170.2517096178562
 20
643.7771625043308
 42
-0.4878527325109977
 10
-171.641137863744
 20
647.5280942751753
 42
0.487852732511424
 10
-173.0305661096335
 20
651.2790260460199
 42
-0.4878527325109977
 10
-174.4199943555231
 20
655.0299578168626
  0
LWPOLYLINE
  5
3F1
330
1F
100
AcDbEntity
  8
ceco.net 416
100
AcDbPolyline
 90
        2
 70
     0
 43
0.0
 10
-170.2517096178544
 20
643.7771625043308
 10
-123.3650624823221
 20
661.1450155779778
  0
LWPOLYLINE
  5
3F2
330
1F
100
AcDbEntity
  8
ceco.net 416
100
AcDbPolyline
 90
        2
 70
     0
 43
0.0
 10
-168.862281371963
 20
640.026230733488
 10
-121.9756342364307
 20
657.3940838071351
  0
LWPOLYLINE
  5
3F3
330
1F
100
AcDbEntity
  8
ceco.net 416
100
AcDbPolyline
 90
        2
 70
     0
 43
0.0
 10
-167.472853126077
 20
636.2752989626417
 10
-120.5862059905448
 20
653.6431520362887
  0
LWPOLYLINE
  5
3F4
330
1F
100
AcDbEntity
  8
ceco.net 416
100
AcDbPolyline
 90
        2
 70
     0
 43
0.0
 10
-166.0834248801856
 20
632.524367191799
 10
-119.1967777446534
 20
649.8922202654459
  0
LWPOLYLINE
  5
3F5
330
1F
100
AcDbEntity
  8
ceco.net 416
100
AcDbPolyline
 90
        2
 70
     0
 43
0.0
 10
-164.693996634287
 20
628.7734354209744
 10
-117.8073494987547
 20
646.1412884946196
  0
LWPOLYLINE
  5
3F6
330
1F
100
AcDbEntity
  8
ceco.net 416
100
AcDbPolyline
 90
        2
 70
     0
 43
0.0
 10
-163.3045683883956
 20
625.0225036501317
 10
-116.4179212528633
 20
642.3903567237768
  0
LWPOLYLINE
  5
3F7
330
1F
100
AcDbEntity
  8
ceco.net 416
100
AcDbPolyline
 90
        2
 70
     0
 43
0.0
 10
-161.9151401425096
 20
621.2715718792853
 10
-115.0284930069774
 20
638.6394249529305
  0
LWPOLYLINE
  5
3F8
330
1F
100
AcDbEntity
  8
ceco.net 416
100
AcDbPolyline
 90
        2
 70
     0
 43
0.0
 10
-160.5257118966183
 20
617.5206401084426
 10
-113.639064761086
 20
634.8884931820878
  0
LWPOLYLINE
  5
3F9
330
1F
100
AcDbEntity
  8
ceco.net 416
100
AcDbPolyline
 90
        2
 70
     0
 43
0.0
 10
-159.1362836507323
 20
613.7697083375963
 10
-112.2496365152001
 20
631.1375614112414
  0
LWPOLYLINE
  5
3FA
330
1F
100
AcDbEntity
  8
ceco.net 416
100
AcDbPolyline
 90
        2
 70
     0
 43
0.0
 10
-157.7468554048409
 20
610.0187765667535
 10
-110.8602082693087
 20
627.3866296403987
  0
LWPOLYLINE
  5
3FB
330
1F
100
AcDbEntity
  8
ceco.net 416
100
AcDbPolyline
 90
        2
 70
     0
 43
0.0
 10
-156.357427158955
 20
606.2678447959072
 10
-109.4707800234227
 20
623.6356978695523
  0
LWPOLYLINE
  5
3FC
330
1F
100
AcDbEntity
  8
ceco.net 416
100
AcDbPolyline
 90
        2
 70
     0
 43
0.0
 10
-154.9679989130636
 20
602.5169130250644
 10
-108.0813517775313
 20
619.8847660987096
  0
LWPOLYLINE
  5
3FD
330
1F
100
AcDbEntity
  8
ceco.net 416
100
AcDbPolyline
 90
        2
 70
     0
 43
0.0
 10
-153.5785706671777
 20
598.765981254218
 10
-106.6919235316454
 20
616.1338343278632
  0
LWPOLYLINE
  5
3FE
330
1F
100
AcDbEntity
  8
ceco.net 416
100
AcDbPolyline
 90
        2
 70
     0
 43
0.0
 10
-152.1891424212863
 20
595.0150494833754
 10
-105.302495285754
 20
612.3829025570205
  0
LWPOLYLINE
  5
3FF
330
1F
100
AcDbEntity
  8
ceco.net 416
100
AcDbPolyline
 90
        2
 70
     0
 43
0.0
 10
-150.7997141753767
 20
591.2641177125654
 10
-103.9130670398444
 20
608.6319707862124
  0
LWPOLYLINE
  5
400
330
1F
100
AcDbEntity
  8
ceco.net 416
100
AcDbPolyline
 90
        2
 70
     0
 43
0.0
 10
-149.4102859294853
 20
587.5131859417226
 10
-102.523638793953
 20
604.8810390153696
  0
LWPOLYLINE
  5
401
330
1F
100
AcDbEntity
  8
ceco.net 416
100
AcDbPolyline
 90
        2
 70
     0
 43
0.0
 10
-148.0208576835993
 20
583.7622541708762
 10
-101.1342105480671
 20
601.1301072445233
  0
LWPOLYLINE
  5
402
330
1F
100
AcDbEntity
  8
ceco.net 416
100
AcDbPolyline
 90
        2
 70
     0
 43
0.0
 10
-146.6314294377079
 20
580.0113224000336
 10
-99.74478230217574
 20
597.3791754736805
  0
LWPOLYLINE
  5
403
330
1F
100
AcDbEntity
  8
ceco.net 416
100
AcDbPolyline
 90
        2
 70
     0
 43
0.0
 10
-145.242001191822
 20
576.2603906291872
 10
-98.35535405628981
 20
593.6282437028341
  0
LWPOLYLINE
  5
404
330
1F
100
AcDbEntity
  8
ceco.net 416
100
AcDbPolyline
 90
        2
 70
     0
 43
0.0
 10
-143.8525729459306
 20
572.5094588583444
 10
-96.96592581039841
 20
589.8773119319915
  0
LWPOLYLINE
  5
405
330
1F
100
AcDbEntity
  8
ceco.net 416
100
AcDbPolyline
 90
        2
 70
     0
 43
0.0
 10
-142.4631447000301
 20
568.7585270875199
 10
-95.57649756449791
 20
586.1263801611669
  0
LWPOLYLINE
  5
406
330
1F
100
AcDbEntity
  8
ceco.net 416
100
AcDbPolyline
 90
        2
 70
     0
 43
0.0
 10
-141.0737164541387
 20
565.0075953166772
 10
-94.18706931860652
 20
582.3754483903242
  0
LWPOLYLINE
  5
407
330
1F
100
AcDbEntity
  8
ceco.net 416
100
AcDbPolyline
 90
       25
 70
     0
 43
0.0
 10
-94.18706931860105
 20
582.3754483903224
 42
-0.487852732511424
 10
-95.57649756449427
 20
586.1263801611669
 42
0.4878527325109977
 10
-96.96592581036567
 20
589.8773119319987
 42
-0.487852732511424
 10
-98.35535405625888
 20
593.6282437028433
 42
0.4878527325109977
 10
-99.74478230215574
 20
597.3791754736842
 42
-0.487852732511424
 10
-101.1342105480489
 20
601.1301072445287
 42
0.4878527325109977
 10
-102.5236387939457
 20
604.8810390153696
 42
-0.487852732511424
 10
-103.9130670398408
 20
608.6319707862124
 42
0.4878527325109977
 10
-105.302495285694
 20
612.3829025570405
 42
-0.487852732511424
 10
-106.6919235315872
 20
616.1338343278832
 42
0.4878527325109977
 10
-108.081351777484
 20
619.8847660987241
 42
-0.487852732511424
 10
-109.4707800233773
 20
623.6356978695687
 42
0.4878527325109977
 10
-110.8602082692741
 20
627.3866296404096
 42
-0.487852732511424
 10
-112.2496365151673
 20
631.1375614112523
 42
0.4878527325109977
 10
-113.6390647610642
 20
634.8884931820933
 42
-0.487852732511424
 10
-115.0284930069574
 20
638.6394249529359
 42
0.4878527325109977
 10
-116.4179212528542
 20
642.3903567237768
 42
-0.487852732511424
 10
-117.8073494987474
 20
646.1412884946214
 42
0.4878527325109977
 10
-119.1967777446206
 20
649.8922202654532
 42
-0.487852732511424
 10
-120.5862059905157
 20
653.6431520362977
 42
0.4878527325109977
 10
-121.9756342364107
 20
657.3940838071386
 42
-0.487852732511424
 10
-123.3650624823058
 20
661.1450155779814
 42
0.4878527325109977
 10
-124.7544907282008
 20
664.8959473488223
 42
-0.487852732511424
 10
-126.1439189740958
 20
668.6468791196668
 42
0.4878527325109977
 10
-127.533347219989
 20
672.3978108905078
  0
ELLIPSE
  5
408
330
1F
100
AcDbEntity
  8
ceco.net 416
100
AcDbEllipse
 10
-278.9818111883942
 20
1001.19905832908
 30
0.0
 11
0.0
 21
15.75628756899095
 31
0.0
210
0.0
220
0.0
230
1.0
 40
0.7313489656882141
 41
0.0
 42
6.283185307179586
  0
LWPOLYLINE
  5
409
330
1F
100
AcDbEntity
  8
ceco.net 416
100
AcDbPolyline
 90
        9
 70
     0
 43
0.0
 10
-278.9818111883942
 20
1016.955345898071
 10
-187.5695109010557
 20
1003.065618214842
 10
-180.4285740736522
 20
1004.902116170521
 42
-0.2489920419517925
 10
-139.0290546915494
 20
994.9315992784152
 42
-0.003498409962984
 10
-132.4791691628633
 20
989.0535503335753
 10
-132.3633749652654
 20
987.7810448758003
 10
-114.3589977670344
 20
978.2034953016603
 42
-0.0805317916472447
 10
-92.87048218038398
 20
961.8813320048113
 42
-0.0054848029579371
 10
-90.97513577454083
 20
959.8448110995571
 42
-0.0054848029579371
  0
LWPOLYLINE
  5
40A
330
1F
100
AcDbEntity
  8
ceco.net 416
100
AcDbPolyline
 90
        6
 70
     0
 43
0.0
 10
-82.29202241224811
 20
949.2023145062097
 42
-0.2137558511303682
 10
-60.77869486535201
 20
847.7702908933473
 42
-0.1902852723494369
 10
-116.6787120616063
 20
763.9650232628384
 42
-0.0215346894294047
 10
-160.4504082261501
 20
736.3140004037115
 42
-0.0070400624502807
 10
-255.3922054665163
 20
683.6717702568905
 42
-0.512165967132982
 10
-258.0416238504112
 20
687.8141786726967
  0
LWPOLYLINE
  5
40B
330
1F
100
AcDbEntity
  8
ceco.net 416
100
AcDbPolyline
 90
        3
 70
     0
 43
0.0
 10
-127.7773069389422
 20
978.2790571254748
 10
-117.2872555013509
 20
972.6988036919586
 42
-0.0455088307814921
 10
-105.4219383674189
 20
964.9277375929461
 42
-0.0455088307814921
  0
LWPOLYLINE
  5
40C
330
1F
100
AcDbEntity
  8
ceco.net 416
100
AcDbPolyline
 90
        5
 70
     0
 43
0.0
 10
-95.20640569143507
 20
955.2287265855568
 42
-0.2410178683228967
 10
-66.87396294756945
 20
849.0833141537743
 42
-0.1902852723494376
 10
-120.2325425940507
 20
769.0881679634306
 42
-0.0215346894294053
 10
-163.5503786272329
 20
741.7238531363594
 42
0.0045320287940551
 10
-258.0416238504112
 20
687.8141786726967
  0
LWPOLYLINE
  5
40D
330
1F
100
AcDbEntity
  8
ceco.net 416
100
AcDbPolyline
 90
        3
 70
     0
 43
0.0
 10
-644.328567018194
 20
265.5026890498477
 10
-644.2042180222397
 20
267.0508014083145
 42
0.2784234097786859
 10
-641.1272726296138
 20
267.5556432222577
 42
0.2784234097786859
  0
ARC
  5
40E
330
1F
100
AcDbEntity
  8
ceco.net 416
100
AcDbCircle
 10
-646.3185691935905
 20
261.2144314309491
 30
0.0
 40
4.727500614925942
100
AcDbArc
 50
4.206635011809638
 51
65.10594436183409
  0
LWPOLYLINE
  5
40F
330
1F
100
AcDbEntity
  8
ceco.net 416
100
AcDbPolyline
 90
        3
 70
     0
 43
0.0
 10
-645.1366426247386
 20
257.5154477109438
 10
-645.2560026998871
 20
259.0639527059913
 42
0.4364980410959315
 10
-641.603804515742
 20
261.5612110390932
 42
-0.6892846909190295
  0
LWPOLYLINE
  5
410
330
1F
100
AcDbEntity
  8
ceco.net 416
100
AcDbPolyline
 90
        3
 70
     0
 43
0.0
 10
-551.9392308171537
 20
285.5167896849973
 10
-550.9324780887164
 20
284.3341809200148
 42
0.4364980410959315
 10
-552.4193168671554
 20
280.1671482581016
 42
-0.6892846909190295
  0
ARC
  5
411
330
1F
100
AcDbEntity
  8
ceco.net 416
100
AcDbCircle
 10
-553.5643428261519
 20
289.9561897595951
 30
0.0
 40
4.727500614925948
100
AcDbArc
 50
229.2066350164454
 51
290.1059443798613
  0
LWPOLYLINE
  5
412
330
1F
100
AcDbEntity
  8
ceco.net 416
100
AcDbPolyline
 90
        3
 70
     0
 43
0.0
 10
-557.0156675897687
 20
291.7360179398103
 10
-555.8363088885271
 20
290.725459875651
 42
0.4364980410959315
 10
-556.6529746890628
 20
286.3771374716936
 42
-0.6892846909190295
  0
ARC
  5
413
330
1F
100
AcDbEntity
  8
ceco.net 416
100
AcDbCircle
 10
-559.315246948985
 20
295.8665381049697
 30
0.0
 40
4.727500614925948
100
AcDbArc
 50
238.2066350069439
 51
299.1059443608745
  0
LWPOLYLINE
  5
414
330
1F
100
AcDbEntity
  8
ceco.net 416
100
AcDbPolyline
 90
        2
 70
     0
 43
0.0
 10
-562.6632362924137
 20
293.4763358130778
 42
0.1561884008364696
 10
-561.8059654983644
 20
291.8483814166477
  0
LWPOLYLINE
  5
415
330
1F
100
AcDbEntity
  8
ceco.net 416
100
AcDbPolyline
 90
        3
 70
     0
 43
0.0
 10
-584.8614352378008
 20
306.7150053922734
 10
-583.3133228793339
 20
306.5906563963192
 42
0.3918445870302937
 10
-581.8446286442413
 20
302.7637116321522
 42
0.3918445870302937
  0
ARC
  5
416
330
1F
100
AcDbEntity
  8
ceco.net 416
100
AcDbCircle
 10
-589.1496928566976
 20
308.7050075676718
 30
0.0
 40
4.727500614925949
100
AcDbArc
 50
274.2066350282699
 51
335.1059443699066
  0
LWPOLYLINE
  5
417
330
1F
100
AcDbEntity
  8
ceco.net 416
100
AcDbPolyline
 90
        3
 70
     0
 43
0.0
 10
-592.8486765767047
 20
307.5230809988181
 10
-591.3001715816553
 20
307.6424410739684
 42
0.4364980410959315
 10
-588.8029132485534
 20
303.9902428898215
 42
-0.6892846909190295
  0
ARC
  5
418
330
1F
100
AcDbEntity
  8
ceco.net 416
100
AcDbCircle
 10
-597.3954435540945
 20
308.8177516586504
 30
0.0
 40
4.727500614925949
100
AcDbArc
 50
283.2066350092705
 51
344.1059443702042
  0
LWPOLYLINE
  5
419
330
1F
100
AcDbEntity
  8
ceco.net 416
100
AcDbPolyline
 90
        3
 70
     0
 43
0.0
 10
-600.8639925958814
 20
307.0717280277233
 10
-599.3532242964229
 20
307.4318581327945
 42
0.4364980410959315
 10
-596.3153816882059
 20
304.2152818401748
 42
-0.6892846909190295
  0
ARC
  5
41A
330
1F
100
AcDbEntity
  8
ceco.net 416
100
AcDbCircle
 10
-605.5573124389284
 20
307.6391880835792
 30
0.0
 40
4.72750061492595
100
AcDbArc
 50
292.2066350278315
 51
353.1059443768266
  0
LWPOLYLINE
  5
41B
330
1F
100
AcDbEntity
  8
ceco.net 416
100
AcDbPolyline
 90
        3
 70
     0
 43
0.0
 10
-608.7100196136307
 20
305.37206028709
 10
-607.2741881392467
 20
305.9640928236906
 42
0.4364980410959315
 10
-603.770563022952
 20
303.2623412061305
 42
-0.6892846909190295
  0
ARC
  5
41C
330
1F
100
AcDbEntity
  8
ceco.net 416
100
AcDbCircle
 10
-613.4343272115621
 20
305.1983369891033
 30
0.0
 40
4.72750061492595
100
AcDbArc
 50
301.2066350136826
 51
2.105944365945738
  0
LWPOLYLINE
  5
41D
330
1F
100
AcDbEntity
  8
ceco.net 416
100
AcDbPolyline
 90
        4
 70
     0
 43
0.0
 10
-617.7807098846878
 20
297.9448074199292
 42
0.2721593469367266
 10
-616.1935624053057
 20
302.4659292375702
 10
-614.868022692146
 20
303.2752863998059
 42
0.4364980410959315
 10
-610.9848859459998
 20
301.1548855487264
 42
-0.6892846909190295
  0
LWPOLYLINE
  5
41E
330
1F
100
AcDbEntity
  8
ceco.net 416
100
AcDbPolyline
 90
        3
 70
     0
 43
0.0
 10
-623.1303513109178
 20
298.4248934704949
 10
-621.9477425459354
 20
299.4316461989321
 42
0.4364980410959315
 10
-617.7807098840203
 20
297.9448074204931
 42
-0.6892846909190295
  0
ARC
  5
41F
330
1F
100
AcDbEntity
  8
ceco.net 416
100
AcDbCircle
 10
-627.5697513855138
 20
296.7997814614966
 30
0.0
 40
4.727500614925951
100
AcDbArc
 50
319.2066350065061
 51
20.1059443596089
  0
LWPOLYLINE
  5
420
330
1F
100
AcDbEntity
  8
ceco.net 416
100
AcDbPolyline
 90
        3
 70
     0
 43
0.0
 10
-629.3495795657291
 20
293.3484566978815
 10
-628.3390215015715
 20
294.5278153991214
 42
0.4364980410959315
 10
-623.9906990976123
 20
293.7111495985857
 42
-0.6892846909190295
  0
ARC
  5
421
330
1F
100
AcDbEntity
  8
ceco.net 416
100
AcDbCircle
 10
-633.4800997308884
 20
291.0488773386616
 30
0.0
 40
4.727500614925951
100
AcDbArc
 50
328.206635019763
 51
29.10594436223859
  0
LWPOLYLINE
  5
422
330
1F
100
AcDbEntity
  8
ceco.net 416
100
AcDbPolyline
 90
        3
 70
     0
 43
0.0
 10
-633.9115042397479
 20
288.6406103256679
 10
-633.8844850597288
 20
288.684542589551
 42
0.4364980410959315
 10
-629.4619430425682
 20
288.5581587892841
  0
LWPOLYLINE
  5
423
330
1F
100
AcDbEntity
  8
ceco.net 416
100
AcDbPolyline
 90
        3
 70
     0
 43
0.0
 10
-603.1162506751643
 20
206.0355572691744
 10
-604.6643630336311
 20
206.1599062651305
 42
0.2977785473225758
 10
-605.3148215931632
 20
209.3958622437178
 42
0.2977785473225758
  0
ARC
  5
424
330
1F
100
AcDbEntity
  8
ceco.net 416
100
AcDbCircle
 10
-598.8279930562657
 20
204.045555093776
 30
0.0
 40
4.727500614925942
100
AcDbArc
 50
94.20663501186258
 51
155.1059443618049
  0
LWPOLYLINE
  5
425
330
1F
100
AcDbEntity
  8
ceco.net 416
100
AcDbPolyline
 90
        3
 70
     0
 43
0.0
 10
-595.1290093362586
 20
205.2274816626297
 10
-596.6775143313079
 20
205.1081215874794
 42
0.4364980410959315
 10
-599.1747726644098
 20
208.7603197716264
 42
-0.6892846909190295
  0
ARC
  5
426
330
1F
100
AcDbEntity
  8
ceco.net 416
100
AcDbCircle
 10
-646.4313132839651
 20
252.968680733272
 30
0.0
 40
4.727500614925949
100
AcDbArc
 50
13.20663500932425
 51
74.1059443702042
  0
LWPOLYLINE
  5
427
330
1F
100
AcDbEntity
  8
ceco.net 416
100
AcDbPolyline
 90
        3
 70
     0
 43
0.0
 10
-644.6852896530399
 20
249.5001316914851
 10
-645.0454197581075
 20
251.0108999909455
 42
0.4364980410959315
 10
-641.8288434654896
 20
254.0487425991607
 42
-0.6892846909190295
  0
ARC
  5
428
330
1F
100
AcDbEntity
  8
ceco.net 416
100
AcDbCircle
 10
-645.2527497088958
 20
244.8068118484381
 30
0.0
 40
4.72750061492595
100
AcDbArc
 50
22.20663502793791
 51
83.10594437677329
  0
LWPOLYLINE
  5
429
330
1F
100
AcDbEntity
  8
ceco.net 416
100
AcDbPolyline
 90
        3
 70
     0
 43
0.0
 10
-642.9856219124048
 20
241.6541046737358
 10
-643.5776544490072
 20
243.0899361481217
 42
0.4364980410959315
 10
-640.875902831447
 20
246.5935612644163
 42
-0.6892846909190295
  0
ARC
  5
42A
330
1F
100
AcDbEntity
  8
ceco.net 416
100
AcDbCircle
 10
-642.8118986144181
 20
236.9297970758045
 30
0.0
 40
4.72750061492595
100
AcDbArc
 50
31.20663501355968
 51
92.10594436605033
  0
LWPOLYLINE
  5
42B
330
1F
100
AcDbEntity
  8
ceco.net 416
100
AcDbPolyline
 90
        4
 70
     0
 43
0.0
 10
-635.5583690452476
 20
232.5834144026841
 42
0.2721593469362942
 10
-640.0794908628868
 20
234.1705618820626
 10
-640.8888480251207
 20
235.4961015952223
 42
0.4364980410959315
 10
-638.7684471740413
 20
239.3792383413667
 42
-0.6892846909190295
  0
LWPOLYLINE
  5
42C
330
1F
100
AcDbEntity
  8
ceco.net 416
100
AcDbPolyline
 90
        3
 70
     0
 43
0.0
 10
-636.0384550958115
 20
227.2337729764505
 10
-637.0452078242488
 20
228.416381741433
 42
0.4364980410959315
 10
-635.5583690458079
 20
232.5834144033481
 42
-0.6892846909190295
  0
ARC
  5
42D
330
1F
100
AcDbEntity
  8
ceco.net 416
100
AcDbCircle
 10
-634.4133430868114
 20
222.7943729018527
 30
0.0
 40
4.727500614925951
100
AcDbArc
 50
49.20663500664465
 51
110.1059443594397
  0
LWPOLYLINE
  5
42E
330
1F
100
AcDbEntity
  8
ceco.net 416
100
AcDbPolyline
 90
        3
 70
     0
 43
0.0
 10
-630.9620183231963
 20
221.0145447216375
 10
-632.1413770244362
 20
222.025102785795
 42
0.4364980410959315
 10
-631.3247112239005
 20
226.3734251897542
 42
-0.6892846909190295
  0
ARC
  5
42F
330
1F
100
AcDbEntity
  8
ceco.net 416
100
AcDbCircle
 10
-628.6624389639783
 20
216.8840245564799
 30
0.0
 40
4.727500614925951
100
AcDbArc
 50
58.20663501976307
 51
119.1059443623676
  0
LWPOLYLINE
  5
430
330
1F
100
AcDbEntity
  8
ceco.net 416
100
AcDbPolyline
 90
        3
 70
     0
 43
0.0
 10
-625.9743380520013
 20
216.2805168636761
 10
-626.2981042148658
 20
216.4796392276377
 42
0.4364980410959315
 10
-626.1717204145988
 20
220.9021812448002
  0
LWPOLYLINE
  5
431
330
1F
100
AcDbEntity
  8
ceco.net 416
100
AcDbPolyline
 90
        3
 70
     0
 43
0.0
 10
-543.6491188944891
 20
247.2478736122041
 10
-543.7734678904434
 20
245.6997612537372
 42
0.4092699921508227
 10
-547.6755117959491
 20
244.0661909029743
 42
0.4092699921508227
  0
ARC
  5
432
330
1F
100
AcDbEntity
  8
ceco.net 416
100
AcDbCircle
 10
-541.6591167190908
 20
251.5361312311026
 30
0.0
 40
4.727500614925942
100
AcDbArc
 50
184.2066350118096
 51
245.105944361834
  0
LWPOLYLINE
  5
433
330
1F
100
AcDbEntity
  8
ceco.net 416
100
AcDbPolyline
 90
        3
 70
     0
 43
0.0
 10
-542.8410432879445
 20
255.2351149511098
 10
-542.7216832127942
 20
253.6866099560604
 42
0.4364980410959315
 10
-546.3738813969412
 20
251.1893516229586
 42
-0.6892846909190295
  0
ARC
  5
434
330
1F
100
AcDbEntity
  8
ceco.net 416
100
AcDbCircle
 10
-560.4079345271675
 20
215.9507812005569
 30
0.0
 40
4.727500614925951
100
AcDbArc
 50
139.2066350065061
 51
145.9485888568907
  0
LWPOLYLINE
  5
435
330
1F
100
AcDbEntity
  8
ceco.net 416
100
AcDbPolyline
 90
        3
 70
     0
 43
0.0
 10
-558.6281063469523
 20
219.4021059641702
 10
-559.6386644111117
 20
218.2227472629303
 42
0.4364980410959315
 10
-563.9869868150708
 20
219.0394130634679
 42
-0.6892846909190295
  0
ARC
  5
436
330
1F
100
AcDbEntity
  8
ceco.net 416
100
AcDbCircle
 10
-554.4975861817929
 20
221.7016853233901
 30
0.0
 40
4.727500614925951
100
AcDbArc
 50
148.206635019763
 51
209.1059443622385
  0
LWPOLYLINE
  5
437
330
1F
100
AcDbEntity
  8
ceco.net 416
100
AcDbPolyline
 90
        2
 70
     0
 43
0.0
 10
-556.4691468933306
 20
225.0937928520427
 42
0.1921638060476013
 10
-558.5157428701149
 20
224.1924038727695
  0
ARC
  5
438
330
1F
100
AcDbEntity
  8
ceco.net 416
100
AcDbCircle
 10
-541.546372628718
 20
259.7818819287797
 30
0.0
 40
4.727500614925949
100
AcDbArc
 50
193.2066350093242
 51
254.1059443702042
  0
LWPOLYLINE
  5
439
330
1F
100
AcDbEntity
  8
ceco.net 416
100
AcDbPolyline
 90
        3
 70
     0
 43
0.0
 10
-543.2923962596451
 20
263.2504309705666
 10
-542.9322661545775
 20
261.7396626711081
 42
0.4364980410959315
 10
-546.1488424471954
 20
258.701820062891
 42
-0.6892846909190295
  0
ARC
  5
43A
330
1F
100
AcDbEntity
  8
ceco.net 416
100
AcDbCircle
 10
-542.7249362037874
 20
267.9437508136136
 30
0.0
 40
4.72750061492595
100
AcDbArc
 50
202.2066350279379
 51
263.1059443767733
  0
LWPOLYLINE
  5
43B
330
1F
100
AcDbEntity
  8
ceco.net 416
100
AcDbPolyline
 90
        3
 70
     0
 43
0.0
 10
-544.9920640002783
 20
271.0964579883159
 10
-544.400031463676
 20
269.66062651393
 42
0.4364980410959315
 10
-547.1017830812361
 20
266.1570013976372
 42
-0.6892846909190295
  0
ARC
  5
43C
330
1F
100
AcDbEntity
  8
ceco.net 416
100
AcDbCircle
 10
-545.165787298265
 20
275.8207655862472
 30
0.0
 40
4.72750061492595
100
AcDbArc
 50
211.2066350135596
 51
272.1059443660503
  0
LWPOLYLINE
  5
43D
330
1F
100
AcDbEntity
  8
ceco.net 416
100
AcDbPolyline
 90
        4
 70
     0
 43
0.0
 10
-552.4193168674355
 20
280.1671482593694
 42
0.2721593469362942
 10
-547.8981950497982
 20
278.580000779991
 10
-547.0888378875643
 20
277.2544610668312
 42
0.4364980410959315
 10
-549.2092387386438
 20
273.371324320685
 42
-0.6892846909190295
  0
LWPOLYLINE
  5
43E
330
1F
100
AcDbEntity
  8
ceco.net 416
100
AcDbPolyline
 90
        3
 70
     0
 43
0.0
 10
-1050.03629133351
 20
318.3976617947093
 10
-1049.903027061265
 20
320.0567670027333
 42
0.4364980410959315
 10
-1045.618505030353
 20
322.0878265805834
 42
-0.6892846909190295
  0
ARC
  5
43F
330
1F
100
AcDbEntity
  8
ceco.net 416
100
AcDbCircle
 10
-1052.168967915491
 20
313.8019549586035
 30
0.0
 40
5.066441623740658
100
AcDbArc
 50
38.9795553534775
 51
65.10594436174674
  0
LWPOLYLINE
  5
440
330
1F
100
AcDbEntity
  8
ceco.net 416
100
AcDbPolyline
 90
        3
 70
     0
 43
0.0
 10
-1050.902302408198
 20
309.8377703690942
 10
-1051.030220075947
 20
311.4972963640168
 42
0.3487944580887588
 10
-1047.405251849613
 20
313.2385824651639
 42
0.3487944580887588
  0
LWPOLYLINE
  5
441
330
1F
100
AcDbEntity
  8
ceco.net 416
100
AcDbPolyline
 90
        3
 70
     0
 43
0.0
 10
-951.0230459325757
 20
339.8466854499377
 10
-949.9441134598747
 20
338.5792888360494
 42
0.4364980410959315
 10
-951.5375520415819
 20
334.1134982533578
 42
-0.6892846909190295
  0
ARC
  5
442
330
1F
100
AcDbEntity
  8
ceco.net 416
100
AcDbCircle
 10
-952.7646713275334
 20
344.6043709912912
 30
0.0
 40
5.066441623740664
100
AcDbArc
 50
229.2066350164822
 51
290.1059443798613
  0
LWPOLYLINE
  5
443
330
1F
100
AcDbEntity
  8
ceco.net 416
100
AcDbPolyline
 90
        2
 70
     0
 43
0.0
 10
-956.1758883153506
 20
340.9133729328434
 42
0.0136511723637587
 10
-956.0747445153101
 20
340.7687163902712
  0
LWPOLYLINE
  5
444
330
1F
100
AcDbEntity
  8
ceco.net 416
100
AcDbPolyline
 90
        3
 70
     0
 43
0.0
 10
-986.3056276620081
 20
362.5647200217983
 10
-984.6465224539842
 20
362.4314557495556
 42
0.4364980410959315
 10
-982.6154628761342
 20
358.1469337186438
 42
-0.6892846909190295
  0
ARC
  5
445
330
1F
100
AcDbEntity
  8
ceco.net 416
100
AcDbCircle
 10
-990.901334498114
 20
364.6973966037815
 30
0.0
 40
5.066441623740666
100
AcDbArc
 50
274.2066350282699
 51
335.1059443699066
  0
LWPOLYLINE
  5
446
330
1F
100
AcDbEntity
  8
ceco.net 416
100
AcDbPolyline
 90
        3
 70
     0
 43
0.0
 10
-994.8655190876216
 20
363.4307310964861
 10
-993.2059930926989
 20
363.558648764237
 42
0.4364980410959315
 10
-990.5296923167407
 20
359.644604027809
 42
-0.6892846909190295
  0
ARC
  5
447
330
1F
100
AcDbEntity
  8
ceco.net 416
100
AcDbCircle
 10
-999.7382692666414
 20
364.8182239503851
 30
0.0
 40
5.066441623740666
100
AcDbArc
 50
283.2066350092168
 51
344.1059443702042
  0
LWPOLYLINE
  5
448
330
1F
100
AcDbEntity
  8
ceco.net 416
100
AcDbPolyline
 90
        3
 70
     0
 43
0.0
 10
-1003.455498024648
 20
362.9470181018161
 10
-1001.836414280472
 20
363.3329679520459
 42
0.4364980410959315
 10
-998.5807717136486
 20
359.8857772814801
 42
-0.6892846909190295
  0
ARC
  5
449
330
1F
100
AcDbEntity
  8
ceco.net 416
100
AcDbCircle
 10
-1008.485308265448
 20
363.5551625487398
 30
0.0
 40
5.066441623740667
100
AcDbArc
 50
292.2066350278847
 51
353.1059443767717
  0
LWPOLYLINE
  5
44A
330
1F
100
AcDbEntity
  8
ceco.net 416
100
AcDbPolyline
 90
        3
 70
     0
 43
0.0
 10
-1011.864050683154
 20
361.1254916570626
 10
-1010.325276404937
 20
361.7599703235639
 42
0.4364980410959315
 10
-1006.5704567721
 20
358.8645149937431
 42
-0.6892846909190295
  0
ARC
  5
44B
330
1F
100
AcDbEntity
  8
ceco.net 416
100
AcDbCircle
 10
-1016.927070364619
 20
360.939313162414
 30
0.0
 40
5.066441623740667
100
AcDbArc
 50
301.2066350136826
 51
2.105944365945738
  0
LWPOLYLINE
  5
44C
330
1F
100
AcDbEntity
  8
ceco.net 416
100
AcDbPolyline
 90
        4
 70
     0
 43
0.0
 10
-1021.585069565782
 20
353.16573741453
 42
0.2721593469367266
 10
-1019.884130590298
 20
358.0110037885999
 10
-1018.463555507669
 20
358.8783883008902
 42
0.4364980410959315
 10
-1014.302014929709
 20
356.6059640314972
 42
-0.6892846909190295
  0
LWPOLYLINE
  5
44D
330
1F
100
AcDbEntity
  8
ceco.net 416
100
AcDbPolyline
 90
        3
 70
     0
 43
0.0
 10
-1027.318256761649
 20
353.68024352414
 10
-1026.050860147763
 20
354.7591759968429
 42
0.4364980410959315
 10
-1021.585069565068
 20
353.1657374151338
 42
-0.6892846909190295
  0
ARC
  5
44E
330
1F
100
AcDbEntity
  8
ceco.net 416
100
AcDbCircle
 10
-1032.075942303001
 20
351.9386181291822
 30
0.0
 40
5.066441623740669
100
AcDbArc
 50
319.2066350065061
 51
20.1059443596089
  0
LWPOLYLINE
  5
44F
330
1F
100
AcDbEntity
  8
ceco.net 416
100
AcDbPolyline
 90
        3
 70
     0
 43
0.0
 10
-1033.983376338415
 20
348.2398485543628
 10
-1032.900365704152
 20
349.5037620892283
 42
0.4364980410959315
 10
-1028.240287701983
 20
348.6285449414056
 42
-0.6892846909190295
  0
ARC
  5
450
330
1F
100
AcDbEntity
  8
ceco.net 416
100
AcDbCircle
 10
-1038.410036638868
 20
345.7753994655879
 30
0.0
 40
5.066441623740669
100
AcDbArc
 50
328.206635019763
 51
29.10594436230946
  0
LWPOLYLINE
  5
451
330
1F
100
AcDbEntity
  8
ceco.net 416
100
AcDbPolyline
 90
        3
 70
     0
 43
0.0
 10
-1039.715371956359
 20
341.8237794590615
 10
-1038.843414617836
 20
343.2415523101728
 42
0.4364980410959315
 10
-1034.103795782519
 20
343.1061073470948
 42
-0.6892846909190295
  0
ARC
  5
452
330
1F
100
AcDbEntity
  8
ceco.net 416
100
AcDbCircle
 10
-1043.70200794807
 20
338.6971895920717
 30
0.0
 40
5.066441623740667
100
AcDbArc
 50
337.2066350188273
 51
38.1059443648601
  0
LWPOLYLINE
  5
453
330
1F
100
AcDbEntity
  8
ceco.net 416
100
AcDbPolyline
 90
        3
 70
     0
 43
0.0
 10
-1044.373102859957
 20
334.5900211530745
 10
-1043.733669300714
 20
336.1267430475174
 42
0.4364980410959315
 10
-1039.031214777865
 20
336.7344053736899
 42
-0.6892846909190295
  0
ARC
  5
454
330
1F
100
AcDbEntity
  8
ceco.net 416
100
AcDbCircle
 10
-1047.821550333925
 20
330.8782775269512
 30
0.0
 40
5.066441623740669
100
AcDbArc
 50
346.2066350179592
 51
47.10594438564061
  0
LWPOLYLINE
  5
455
330
1F
100
AcDbEntity
  8
ceco.net 416
100
AcDbPolyline
 90
        3
 70
     0
 43
0.0
 10
-1047.841880256244
 20
326.7166927733608
 10
-1047.45071545267
 20
328.3345245180091
 42
0.4364980410959315
 10
-1042.901215279189
 20
329.6703314702474
 42
-0.6892846909190295
  0
ARC
  5
456
330
1F
100
AcDbEntity
  8
ceco.net 416
100
AcDbCircle
 10
-1050.667226990917
 20
322.5111908347528
 30
0.0
 40
5.066441623740669
100
AcDbArc
 50
355.2066350197695
 51
56.10594435928015
  0
LWPOLYLINE
  5
457
330
1F
100
AcDbEntity
  8
ceco.net 416
100
AcDbPolyline
 90
        3
 70
     0
 43
0.0
 10
-1005.869233105771
 20
254.6669981229072
 10
-1007.528338313797
 20
254.8002623951517
 42
0.4364980410959315
 10
-1009.559397891645
 20
259.0847844260617
 42
-0.6892846909190295
  0
ARC
  5
458
330
1F
100
AcDbEntity
  8
ceco.net 416
100
AcDbCircle
 10
-1001.273526269666
 20
252.5343215409241
 30
0.0
 40
5.066441623740658
100
AcDbArc
 50
94.20663501175859
 51
155.1059443618049
  0
LWPOLYLINE
  5
459
330
1F
100
AcDbEntity
  8
ceco.net 416
100
AcDbPolyline
 90
        3
 70
     0
 43
0.0
 10
-997.3093416801585
 20
253.8009870482176
 10
-998.9688676750811
 20
253.6730693804668
 42
0.4364980410959315
 10
-1001.645168451039
 20
257.5871141168947
 42
-0.6892846909190295
  0
ARC
  5
45A
330
1F
100
AcDbEntity
  8
ceco.net 416
100
AcDbCircle
 10
-1052.289795261447
 20
304.9650201897741
 30
0.0
 40
5.066441623740666
100
AcDbArc
 50
13.20663500932425
 51
74.10594437026145
  0
LWPOLYLINE
  5
45B
330
1F
100
AcDbEntity
  8
ceco.net 416
100
AcDbPolyline
 90
        3
 70
     0
 43
0.0
 10
-1050.41858941288
 20
301.2477914317671
 10
-1050.804539263108
 20
302.8668751759425
 42
0.4364980410959315
 10
-1047.357348592544
 20
306.122517742767
 42
-0.6892846909190295
  0
ARC
  5
45C
330
1F
100
AcDbEntity
  8
ceco.net 416
100
AcDbCircle
 10
-1051.026733859804
 20
296.2179811909675
 30
0.0
 40
5.066441623740667
100
AcDbArc
 50
22.20663502788966
 51
83.10594437693003
  0
LWPOLYLINE
  5
45D
330
1F
100
AcDbEntity
  8
ceco.net 416
100
AcDbPolyline
 90
        3
 70
     0
 43
0.0
 10
-1048.597062968126
 20
292.839238773263
 10
-1049.231541634628
 20
294.3780130514799
 42
0.4364980410959315
 10
-1046.336086304807
 20
298.132832684317
 42
-0.6892846909190295
  0
ARC
  5
45E
330
1F
100
AcDbEntity
  8
ceco.net 416
100
AcDbCircle
 10
-1048.410884473478
 20
287.7762190917958
 30
0.0
 40
5.066441623740667
100
AcDbArc
 50
31.20663501367582
 51
92.10594436589367
  0
LWPOLYLINE
  5
45F
330
1F
100
AcDbEntity
  8
ceco.net 416
100
AcDbPolyline
 90
        4
 70
     0
 43
0.0
 10
-1040.637308725598
 20
283.1182198906365
 42
0.2721593469362942
 10
-1045.482575099666
 20
284.8191588661168
 10
-1046.349959611952
 20
286.2397339487463
 42
0.4364980410959315
 10
-1044.077535342561
 20
290.4012745267057
 42
-0.6892846909190295
  0
LWPOLYLINE
  5
460
330
1F
100
AcDbEntity
  8
ceco.net 416
100
AcDbPolyline
 90
        2
 70
     0
 43
0.0
 10
-1041.257718261666
 20
279.299165202686
 42
0.3321963547262056
 10
-1040.637308726198
 20
283.1182198913477
  0
ARC
  5
461
330
1F
100
AcDbEntity
  8
ceco.net 416
100
AcDbCircle
 10
-1026.168760903137
 20
261.0012815083457
 30
0.0
 40
5.066441623740667
100
AcDbArc
 50
67.20663501876924
 51
128.1059443649332
  0
LWPOLYLINE
  5
462
330
1F
100
AcDbEntity
  8
ceco.net 416
100
AcDbPolyline
 90
        3
 70
     0
 43
0.0
 10
-1022.061592464136
 20
260.3301865964579
 10
-1023.598314358581
 20
260.969620155701
 42
0.4364980410959315
 10
-1024.205976684754
 20
265.6720746785515
 42
-0.6892846909190295
  0
ARC
  5
463
330
1F
100
AcDbEntity
  8
ceco.net 416
100
AcDbCircle
 10
-1018.349848838015
 20
256.8817391224904
 30
0.0
 40
5.066441623740669
100
AcDbArc
 50
76.20663501800989
 51
137.105944385751
  0
LWPOLYLINE
  5
464
330
1F
100
AcDbEntity
  8
ceco.net 416
100
AcDbPolyline
 90
        3
 70
     0
 43
0.0
 10
-1014.188264084423
 20
256.8614092001709
 10
-1015.806095829073
 20
257.2525740037465
 42
0.4364980410959315
 10
-1017.14190278131
 20
261.8020741772263
 42
-0.6892846909190295
  0
ARC
  5
465
330
1F
100
AcDbEntity
  8
ceco.net 416
100
AcDbCircle
 10
-1009.982762145817
 20
254.0360624654979
 30
0.0
 40
5.066441623740669
100
AcDbArc
 50
85.20663501982145
 51
146.105944359309
  0
LWPOLYLINE
  5
466
330
1F
100
AcDbEntity
  8
ceco.net 416
100
AcDbPolyline
 90
        3
 70
     0
 43
0.0
 10
-941.2725583592818
 20
307.3939477762589
 10
-941.1446406915292
 20
305.7344217813345
 42
0.2879890078947034
 10
-944.3898726942297
 20
304.5958982732825
 42
0.2879890078947034
  0
ARC
  5
467
330
1F
100
AcDbEntity
  8
ceco.net 416
100
AcDbCircle
 10
-992.4365915008383
 20
252.413494194968
 30
0.0
 40
5.066441623740666
100
AcDbArc
 50
103.2066350092168
 51
164.1059443702041
  0
LWPOLYLINE
  5
468
330
1F
100
AcDbEntity
  8
ceco.net 416
100
AcDbPolyline
 90
        3
 70
     0
 43
0.0
 10
-988.7193627428315
 20
254.284700043537
 10
-990.3384464870068
 20
253.898750193309
 42
0.4364980410959315
 10
-993.5940890538295
 20
257.345940863873
 42
-0.6892846909190295
  0
ARC
  5
469
330
1F
100
AcDbEntity
  8
ceco.net 416
100
AcDbCircle
 10
-983.6895525020318
 20
253.6765555966133
 30
0.0
 40
5.066441623740667
100
AcDbArc
 50
112.2066350278847
 51
173.1059443768265
  0
LWPOLYLINE
  5
46A
330
1F
100
AcDbEntity
  8
ceco.net 416
100
AcDbPolyline
 90
        3
 70
     0
 43
0.0
 10
-980.3108100843255
 20
256.1062264882905
 10
-981.8495843625424
 20
255.4717478217873
 42
0.4364980410959315
 10
-985.6044039953795
 20
258.3672031516082
 42
-0.6892846909190295
  0
ARC
  5
46B
330
1F
100
AcDbEntity
  8
ceco.net 416
100
AcDbCircle
 10
-975.2477904028582
 20
256.2924049829373
 30
0.0
 40
5.066441623740667
100
AcDbArc
 50
121.2066350136825
 51
182.1059443659457
  0
LWPOLYLINE
  5
46C
330
1F
100
AcDbEntity
  8
ceco.net 416
100
AcDbPolyline
 90
        4
 70
     0
 43
0.0
 10
-970.5897912017007
 20
264.0659807308195
 42
0.272159346936321
 10
-972.290730177181
 20
259.2207143567514
 10
-973.7113052598106
 20
258.3533298444629
 42
0.4364980410959315
 10
-977.8728458377699
 20
260.6257541138559
 42
-0.6892846909190295
  0
LWPOLYLINE
  5
46D
330
1F
100
AcDbEntity
  8
ceco.net 416
100
AcDbPolyline
 90
        3
 70
     0
 43
0.0
 10
-964.8566040058303
 20
263.5514746212113
 10
-966.1240006197186
 20
262.4725421485084
 42
0.4364980410959315
 10
-970.589791202412
 20
264.0659807302192
 42
-0.6892846909190295
  0
ARC
  5
46E
330
1F
100
AcDbEntity
  8
ceco.net 416
100
AcDbCircle
 10
-960.0989184644749
 20
265.293100016169
 30
0.0
 40
5.066441623740669
100
AcDbArc
 50
139.2066350065061
 51
200.1059443596088
  0
LWPOLYLINE
  5
46F
330
1F
100
AcDbEntity
  8
ceco.net 416
100
AcDbPolyline
 90
        3
 70
     0
 43
0.0
 10
-958.1914844290622
 20
268.9918695909884
 10
-959.2744950633278
 20
267.727956056123
 42
0.4364980410959315
 10
-963.9345730654968
 20
268.6031732039475
 42
-0.6892846909190295
  0
ARC
  5
470
330
1F
100
AcDbEntity
  8
ceco.net 416
100
AcDbCircle
 10
-953.7648241286097
 20
271.4563186797633
 30
0.0
 40
5.066441623740669
100
AcDbArc
 50
148.206635019763
 51
209.1059443623094
  0
LWPOLYLINE
  5
471
330
1F
100
AcDbEntity
  8
ceco.net 416
100
AcDbPolyline
 90
        3
 70
     0
 43
0.0
 10
-952.4594888111206
 20
275.4079386862915
 10
-953.3314461496429
 20
273.9901658351802
 42
0.4364980410959315
 10
-958.0710649849606
 20
274.1256107982583
 42
-0.6892846909190295
  0
ARC
  5
472
330
1F
100
AcDbEntity
  8
ceco.net 416
100
AcDbCircle
 10
-948.47285281941
 20
278.5345285532796
 30
0.0
 40
5.066441623740667
100
AcDbArc
 50
157.2066350188273
 51
218.10594436486
  0
LWPOLYLINE
  5
473
330
1F
100
AcDbEntity
  8
ceco.net 416
100
AcDbPolyline
 90
        3
 70
     0
 43
0.0
 10
-947.9653811701481
 20
282.2484685692718
 10
-948.4411914667653
 20
281.1049750978357
 42
0.4364980410959315
 10
-953.143645989614
 20
280.4973127716632
  0
ARC
  5
474
330
1F
100
AcDbEntity
  8
ceco.net 416
100
AcDbCircle
 10
-939.8850655060323
 20
312.266697955579
 30
0.0
 40
5.066441623740666
100
AcDbArc
 50
193.2066350093242
 51
254.1059443702614
  0
LWPOLYLINE
  5
475
330
1F
100
AcDbEntity
  8
ceco.net 416
100
AcDbPolyline
 90
        3
 70
     0
 43
0.0
 10
-941.7562713546013
 20
315.983926713586
 10
-941.3703215043733
 20
314.3648429694105
 42
0.4364980410959315
 10
-944.8175121749372
 20
311.1092004025861
 42
-0.6892846909190295
  0
ARC
  5
476
330
1F
100
AcDbEntity
  8
ceco.net 416
100
AcDbCircle
 10
-941.1481269076757
 20
321.0137369543856
 30
0.0
 40
5.066441623740667
100
AcDbArc
 50
202.2066350278896
 51
263.10594437693
  0
LWPOLYLINE
  5
477
330
1F
100
AcDbEntity
  8
ceco.net 416
100
AcDbPolyline
 90
        3
 70
     0
 43
0.0
 10
-943.5777977993529
 20
324.39247937209
 10
-942.9433191328516
 20
322.8537050938732
 42
0.4364980410959315
 10
-945.8387744626724
 20
319.0988854610361
 42
-0.6892846909190295
  0
ARC
  5
478
330
1F
100
AcDbEntity
  8
ceco.net 416
100
AcDbCircle
 10
-943.7639762940035
 20
329.4554990535573
 30
0.0
 40
5.066441623740667
100
AcDbArc
 50
211.2066350136758
 51
272.1059443658936
  0
LWPOLYLINE
  5
479
330
1F
100
AcDbEntity
  8
ceco.net 416
100
AcDbPolyline
 90
        4
 70
     0
 43
0.0
 10
-951.5375520418819
 20
334.1134982547166
 42
0.2721593469362942
 10
-946.6922856678156
 20
332.4125592792363
 10
-945.824901155529
 20
330.9919841966068
 42
0.4364980410959315
 10
-948.0973254249201
 20
326.8304436186474
 42
-0.6892846909190295
  0
CIRCLE
  5
47A
330
1F
100
AcDbEntity
  8
ceco.net 416
100
AcDbCircle
 10
-991.7722197898511
 20
308.728699478773
 30
0.0
 40
1.0
  0
ARC
  5
47B
330
1F
100
AcDbEntity
  8
ceco.net 416
100
AcDbCircle
 10
-996.2532598191137
 20
307.6813761565984
 30
0.0
 40
46.18100432725888
100
AcDbArc
 50
84.46359173420901
 51
129.7164020987905
  0
ARC
  5
47C
330
1F
100
AcDbEntity
  8
ceco.net 416
100
AcDbCircle
 10
-996.2532598191137
 20
307.6813761565984
 30
0.0
 40
46.18100432725888
100
AcDbArc
 50
151.8084800673165
 51
168.4346275123018
  0
ARC
  5
47D
330
1F
100
AcDbEntity
  8
ceco.net 416
100
AcDbCircle
 10
-996.2532598191137
 20
307.6813761565984
 30
0.0
 40
46.18100432725888
100
AcDbArc
 50
173.1490478049766
 51
216.251318102657
  0
ARC
  5
47E
330
1F
100
AcDbEntity
  8
ceco.net 416
100
AcDbCircle
 10
-996.2532598191156
 20
307.6813761565965
 30
0.0
 40
46.1810043272565
100
AcDbArc
 50
237.0078144560336
 51
298.3148892736059
  0
LWPOLYLINE
  5
47F
330
1F
100
AcDbEntity
  8
ceco.net 416
100
AcDbPolyline
 90
        2
 70
     0
 43
0.0
 10
-1036.95596780257
 20
329.4982211046583
 10
-1032.681169504077
 20
327.8925825421604
  0
LWPOLYLINE
  5
480
330
1F
100
AcDbEntity
  8
ceco.net 416
100
AcDbPolyline
 90
        7
 70
     0
 43
0.0
 10
-1025.762369621152
 20
343.2045742018974
 10
-1021.877017109596
 20
335.5080274729018
 10
-1021.877017109596
 20
335.5080274729018
 42
-0.1864740478455203
 10
-996.3045907346732
 20
346.1421502775622
 42
-0.0240040548514106
 10
-996.3045907346732
 20
346.1421502775622
 42
0.2550416607326144
 10
-991.48177684244
 20
349.0245966273407
 10
-991.7977972561294
 20
353.6469503836663
  0
LWPOLYLINE
  5
481
330
1F
100
AcDbEntity
  8
ceco.net 416
100
AcDbPolyline
 90
       32
 70
     0
 43
0.0
 10
-146.2580930264812
 20
960.331687854353
 10
-141.3947330950177
 20
964.4267614159373
 10
-133.3021034984849
 20
963.883554196834
 42
-0.1070124487163581
 10
-82.29202241224811
 20
949.2023145062097
 42
0.0193436074390286
 10
-67.05456359050003
 20
941.751975224751
 42
-0.2034738351478319
 10
0.3344183569424786
 20
869.8837350584264
 42
-0.1629047500373773
 10
1.855064295465126
 20
817.1061457262451
 42
-0.1099173539480259
 10
-80.66524339764146
 20
670.6551637817658
 10
-85.5085640597972
 20
670.2637309474568
 10
-95.88570499085291
 20
667.483184415237
 10
-97.65516913944157
 20
664.861371940254
 10
-95.86151508741568
 20
658.1673638868953
 10
-91.68896886636503
 20
656.0541331683391
 10
-81.01734025805489
 20
629.7289498252841
 10
-81.58865056122886
 20
625.9096199712269
 42
0.193570799995641
 10
-80.71091286488808
 20
622.226161671196
 42
0.1131181609017408
 10
-76.77125837077619
 20
618.706335129774
 42
0.2113821430079747
 10
-74.82487937676342
 20
618.5360490328742
 10
-69.82213330583181
 20
605.1878129961162
 10
-70.6854335576645
 20
603.667837171951
 42
0.2065040205554462
 10
-71.39817188848974
 20
597.1699963230396
 10
-60.25731265306058
 20
563.5936612218113
 10
-57.66609969100682
 20
553.5518795142463
 42
0.3920963424532851
 10
-53.65484725794522
 20
550.9756209312083
 42
0.2067571937545945
 10
-48.03455636906438
 20
554.6917218838546
 42
-0.089124818930854
 10
-42.81379965820815
 20
560.2221405282228
 42
0.1552132934230972
 10
-39.62076729320688
 20
564.6346180699086
 42
0.2985459192470849
 10
-41.94224356831364
 20
573.2984854771723
 42
0.2614856937257337
 10
-47.62588829762535
 20
574.5529625172541
 10
-76.4468578324304
 20
656.9205584477069
 10
-75.29687118291622
 20
658.750778970197
 10
-77.02665570514728
 20
665.2064226933137
  0
LWPOLYLINE
  5
482
330
1F
100
AcDbEntity
  8
ceco.net 416
100
AcDbPolyline
 90
        8
 70
     0
 43
0.0
 10
-150.0418496301445
 20
964.8253239221606
 10
-143.3657530580403
 20
970.4467681402068
 10
-132.9086716418114
 20
969.7448501729644
 42
-0.1070124487163588
 10
-79.50947109365916
 20
954.3759966867376
 42
0.019343607439029
 10
-64.68019696419287
 20
947.125238876347
 42
-0.2034738351478322
 10
5.849161864425695
 20
871.9078850509806
 42
-0.1629047500373784
 10
7.47720351074895
 20
815.4028754042967
 42
-0.1082991994571199
 10
-77.02665570514728
 20
665.2064226933155
 42
-0.106483493951608
  0
ARC
  5
483
330
1F
100
AcDbEntity
  8
ceco.net 416
100
AcDbCircle
 10
-111.2891024284526
 20
991.9644508637622
 30
0.0
 40
21.42780646150308
100
AcDbArc
 50
189.5285898075302
 51
219.6930517222253
  0
ARC
  5
484
330
1F
100
AcDbEntity
  8
ceco.net 416
100
AcDbCircle
 10
-130.3023905643895
 20
976.1832095385337
 30
0.0
 40
3.281558230962833
100
AcDbArc
 50
276.3308286611199
 51
39.69305172222537
  0
ARC
  5
485
330
1F
100
AcDbEntity
  8
ceco.net 416
100
AcDbCircle
 10
-129.5665228815032
 20
933.2424074437232
 30
0.0
 40
39.68101823667248
100
AcDbArc
 50
90.54004900297744
 51
110.3499970437364
  0
LWPOLYLINE
  5
486
330
1F
100
AcDbEntity
  8
ceco.net 416
100
AcDbPolyline
 90
        3
 70
     0
 43
0.0
 10
-279.9075309777599
 20
985.4936954380111
 10
-188.3491329032112
 20
972.8420093594806
 10
-179.8050702162963
 20
966.4923963768936
  0
ARC
  5
487
330
1F
100
AcDbEntity
  8
ceco.net 416
100
AcDbCircle
 10
-243.4544809832514
 20
989.3853187818105
 30
0.0
 40
57.53503692242929
100
AcDbArc
 50
343.2895910328626
 51
13.75515983874149
  0
LWPOLYLINE
  5
488
330
1F
100
AcDbEntity
  8
ceco.net 416
100
AcDbPolyline
 90
        8
 70
     0
 43
0.0
 10
-688.7194962028952
 20
253.0153993890392
 10
-919.7117670979933
 20
278.7078589496716
 10
-955.8595923882094
 20
288.2321200909111
 10
-994.2039717321749
 20
303.1106321979016
 10
-1018.631602233186
 20
312.2119557176004
 42
0.167076768669848
 10
-1068.501712828408
 20
313.4866523280118
 42
0.3986669443616953
 10
-1100.123546593356
 20
256.4927203668533
 42
0.28530976442384
 10
-1059.39256928343
 20
217.5642646498938
 42
0.9465759854490189
  0
LWPOLYLINE
  5
489
330
1F
100
AcDbEntity
  8
ceco.net 416
100
AcDbPolyline
 90
        8
 70
     0
 43
0.0
 10
-689.1367859151869
 20
249.2636878008281
 10
-920.4050309699923
 20
274.9868429986356
 10
-957.0269372618895
 20
284.6360154236347
 10
-995.5457687515336
 20
299.5822190255978
 10
-1019.949541427875
 20
308.6746535218292
 42
0.1670767686698488
 10
-1067.366205786027
 20
309.8866392305619
 42
0.3986669443616979
 10
-1096.46808640169
 20
257.4345703189421
 42
0.2853097644238353
 10
-1058.617029068478
 20
221.258585686309
 42
0.2853097644238353
  0
LWPOLYLINE
  5
48A
330
1F
100
AcDbEntity
  8
ceco.net 416
100
AcDbPolyline
 90
       11
 70
     0
 43
0.0
 10
-1059.39256928343
 20
217.5642646498938
 10
-1058.617029068478
 20
221.258585686309
 10
-1056.387812980159
 20
223.0044277547906
 10
-1046.517849017045
 20
222.140917798609
 42
0.5390999921579666
 10
-1041.914127562951
 20
227.9615075007216
 42
-0.1891040751756598
 10
-1041.529030829435
 20
235.0711888383277
 10
-1048.94201312472
 20
237.0574914578548
 42
-0.7056944781598586
 10
-1050.815148671676
 20
260.4446592344422
 42
0.4220069088607425
 10
-1048.215632986339
 20
267.555294721403
 42
-0.5069390154463353
 10
-1042.005747256462
 20
279.1923347810454
 42
-0.0021823304036751
 10
-1033.495053358483
 20
280.3732459634677
 42
-0.0021823304036751
  0
LWPOLYLINE
  5
48B
330
1F
100
AcDbEntity
  8
ceco.net 416
100
AcDbPolyline
 90
        2
 70
     0
 43
0.0
 10
-1027.266659132499
 20
284.715298553828
 42
0.0112710558497983
 10
-1019.053760108421
 20
282.2042497405102
  0
LWPOLYLINE
  5
48C
330
1F
100
AcDbEntity
  8
ceco.net 416
100
AcDbPolyline
 90
       52
 70
     0
 43
0.0
 10
-1059.39256928343
 20
217.5642646498938
 10
-1058.440287230885
 20
216.1416587895121
 10
-1047.549365641867
 20
214.2212954685885
 42
0.0413171858567809
 10
-1032.585475933447
 20
212.8415424098832
 42
0.4508124162929545
 10
-1031.093115600408
 20
214.4987847732457
 10
-1030.791107833152
 20
217.9682523505955
 10
-1032.179164995788
 20
218.4966727270559
 10
-1031.854021771378
 20
220.3406515844283
 10
-1016.932045052526
 20
219.1895618532191
 10
-1017.1542049126
 20
215.9279470638623
 10
-1015.20827798396
 20
215.5848276438566
 10
-1014.599864595185
 20
208.630630788469
 42
0.9417188079600617
 10
-1009.38509192923
 20
208.7727892102313
 42
-0.1594855951185543
 10
-1008.584128659338
 20
210.9734177080783
 10
-1004.893573485722
 20
211.9258741545829
 10
-1000.01666366693
 20
215.2739780235035
 10
-998.5906354847193
 20
217.6979922986786
 10
-995.8886695547917
 20
217.758089934173
 10
-995.7832619944182
 20
213.0190076967385
 10
-996.0139558438678
 20
203.4871904604417
 42
-0.4095415334493343
 10
-1001.781923897167
 20
197.9032414593232
 42
0.2699245359034423
 10
-1007.583947069244
 20
194.5884406624147
 42
-0.2111385131407703
 10
-1011.863618113042
 20
191.4668823825534
 42
0.4492002557002574
 10
-1016.726974412508
 20
182.8211828915129
 10
-1014.590821912163
 20
182.4538833003655
 10
-1015.081445430105
 20
179.6004996325329
 10
-1018.475972220414
 20
179.3035170203468
 42
0.4823606693554779
 10
-1022.344024242425
 20
173.4591585237114
 42
-0.2474548726396197
 10
-1024.329614821705
 20
161.9572269291722
 42
0.0181483155237329
 10
-1029.434577334963
 20
154.8037430577289
 42
0.5033138748915591
 10
-1027.493703458902
 20
149.471235909242
 42
0.113658701852848
 10
-1021.11802002805
 20
149.0703540734005
 42
-0.157114295124306
 10
-1013.4037104054
 20
147.9192123240402
 42
-0.0585323450425177
 10
-1003.61074432038
 20
141.5486941450465
 42
0.2683953974333168
 10
-994.0418357400904
 20
139.9136064880779
 10
-981.7391333047325
 20
141.9549861604475
 42
0.5667283615425802
 10
-979.9913388825952
 20
146.3929590666859
 42
-0.0653757044728194
 10
-983.4714269194501
 20
152.3949318310162
 42
-0.0052386430869665
 10
-985.1843992713838
 20
156.6293601292175
 42
-0.2597425382366279
 10
-984.2338850691449
 20
163.6631542744192
 42
0.0340599002706361
 10
-974.8813674600096
 20
178.1114340134274
 42
-0.0155244783419021
 10
-961.0838847997365
 20
201.2635841244384
 42
0.1464476316534044
 10
-953.6017528557568
 20
227.5152517498547
 42
0.1916094946707125
 10
-960.618645517272
 20
244.4984985113308
 42
0.1550553447427728
 10
-976.4005401898756
 20
252.9712198432437
 42
0.2735883963505739
 10
-994.1591397543234
 20
246.5076181995311
 42
-0.1599551986598485
 10
-996.8757828871021
 20
244.7818199961814
 42
-0.2148466819276921
 10
-1001.955629685
 20
245.6775340445158
 42
0.1695948698244748
 10
-1013.408001609253
 20
248.7461878530405
 42
-0.3154458953980516
 10
-1018.423226818675
 20
251.7316360350862
 10
-1033.048358082131
 20
262.6713886124391
 42
-0.9130523810203282
 10
-1030.984667282471
 20
266.0268793682237
 42
-0.0612671286638018
  0
LWPOLYLINE
  5
48D
330
1F
100
AcDbEntity
  8
ceco.net 416
100
AcDbPolyline
 90
       10
 70
     0
 43
0.0
 10
-1000.439769182878
 20
147.1585269193794
 42
-0.2772017838543215
 10
-1015.120587732235
 20
168.0143919678278
 42
-0.3647836214967982
 10
-1010.651756701467
 20
174.1817608336616
 42
-0.1957033849610442
 10
-1005.403892952017
 20
173.4297243369558
 42
0.0190628170522486
 10
-1001.361997779575
 20
171.2700083210122
 42
-0.2213847769747652
 10
-998.4471072021987
 20
167.6833619907022
 42
-0.0822725594481059
 10
-998.0080910331453
 20
162.3755829769554
 42
0.1237762874154949
 10
-997.197531649901
 20
157.4971803937271
 42
0.0776772224418566
 10
-994.2384448139346
 20
152.8396039604169
 42
-0.6850117827366648
 10
-1000.439769182878
 20
147.1585269193794
 42
-2.375648587609579
  0
LWPOLYLINE
  5
48E
330
1F
100
AcDbEntity
  8
ceco.net 416
100
AcDbPolyline
 90
       19
 70
     0
 43
0.0
 10
-1014.590821912163
 20
182.4538833003655
 10
-1007.325299256564
 20
181.8182324334095
 42
0.1782527603472045
 10
-994.3094534694683
 20
185.3579633946694
 42
0.0829381414893666
 10
-988.6561627074843
 20
190.9935639196821
 10
-979.5004657700774
 20
211.527326895991
 42
-1.030347587385162
 10
-975.8710690115112
 20
209.7771785213601
 10
-984.5821515871211
 20
189.1993340141682
 42
-0.1427106884132927
 10
-990.7295565205858
 20
181.658602263885
 42
0.3223189776481148
 10
-991.6939188838586
 20
178.9654439249181
 42
0.3500494350860636
 10
-990.5118162864237
 20
178.1258023605234
 42
-0.0198394946913495
 10
-982.4336241343408
 20
178.2563729709702
 42
0.2805895523448841
 10
-977.9137491308883
 20
180.8659240209174
 10
-965.70092061779
 20
203.9751562674402
 42
0.2847710897625514
 10
-965.922196552623
 20
207.1918525348203
 42
0.1296259384319393
 10
-969.0003186452086
 20
209.7294700290706
 42
-0.4691724198090367
 10
-969.6295345782891
 20
212.0777358602619
 42
-0.0046429485159689
 10
-961.6104095608461
 20
223.1959592164687
 42
0.3929341137718186
 10
-962.2070590523653
 20
228.3766550826596
 42
0.0544429608856707
 10
-975.6936946935603
 20
237.5747686948063
 42
-17.05788195818707
  0
CIRCLE
  5
48F
330
1F
100
AcDbEntity
  8
ceco.net 416
100
AcDbCircle
 10
-992.0722388576832
 20
171.0915897197748
 30
0.0
 40
2.186504485044027
  0
ARC
  5
490
330
1F
100
AcDbEntity
  8
ceco.net 416
100
AcDbCircle
 10
-992.0722388576832
 20
171.0915897197748
 30
0.0
 40
17.48228366100121
100
AcDbArc
 50
295.144094560905
 51
19.32557805650815
  0
ARC
  5
491
330
1F
100
AcDbEntity
  8
ceco.net 416
100
AcDbCircle
 10
-992.0722388576832
 20
171.0915897197748
 30
0.0
 40
17.48228366100121
100
AcDbArc
 50
35.09245267117548
 51
68.00832035733238
  0
ARC
  5
492
330
1F
100
AcDbEntity
  8
ceco.net 416
100
AcDbCircle
 10
-992.0722388576832
 20
171.0915897197748
 30
0.0
 40
17.48228366100121
100
AcDbArc
 50
85.46034537828939
 51
142.4493241856328
  0
ARC
  5
493
330
1F
100
AcDbEntity
  8
ceco.net 416
100
AcDbCircle
 10
-992.0722388576832
 20
171.0915897197748
 30
0.0
 40
17.48228366100121
100
AcDbArc
 50
169.1434720597354
 51
260.1000163482142
  0
LWPOLYLINE
  5
494
330
1F
100
AcDbEntity
  8
ceco.net 416
100
AcDbPolyline
 90
       10
 70
     0
 43
0.0
 10
-970.0582620686146
 20
186.5819449757502
 10
-968.6037308844388
 20
183.4098666266411
 42
-0.1219719068784077
 10
-967.9301799029344
 20
179.8537704711973
 42
0.1600224023500075
 10
-967.441424939634
 20
178.0297121157066
 42
-0.2658429047885147
 10
-967.0276923017809
 20
171.0829408118199
 42
0.1356588291307083
 10
-967.9519833905505
 20
166.2900508185459
 42
-0.2174479968909662
 10
-969.7969756232597
 20
161.2209763201092
 42
0.1924732151677295
 10
-971.4517377904266
 20
157.2741222675442
 42
-0.3800005926320288
 10
-976.1503893660847
 20
152.1591302021308
 42
0.1823868937738782
 10
-981.9275744998703
 20
149.2801888453334
 42
-5.825844449929341
  0
ARC
  5
495
330
1F
100
AcDbEntity
  8
ceco.net 416
100
AcDbCircle
 10
-1141.146381097774
 20
3174.815334966887
 30
0.0
 40
3037.04668485871
100
AcDbArc
 50
273.0086996784736
 51
279.3345704611244
  0
ARC
  5
496
330
1F
100
AcDbEntity
  8
ceco.net 416
100
AcDbCircle
 10
-1141.146381097774
 20
3174.815334966887
 30
0.0
 40
3032.046684858709
100
AcDbArc
 50
273.0377546346374
 51
279.2452933445711
  0
LWPOLYLINE
  5
497
330
1F
100
AcDbEntity
  8
ceco.net 416
100
AcDbPolyline
 90
        4
 70
     0
 43
0.0
 10
-982.6154628761342
 20
358.1469337186438
 10
-978.9960391382336
 20
358.5812214241643
 10
-977.4122447732862
 20
358.8604871025993
 10
-975.5229193787618
 20
357.1050846617302
  0
LWPOLYLINE
  5
498
330
1F
100
AcDbEntity
  8
ceco.net 416
100
AcDbPolyline
 90
        2
 70
     0
 43
0.0
 10
-1033.495053358483
 20
280.3732459634677
 10
-1027.266659132499
 20
284.715298553828
  0
LWPOLYLINE
  5
499
330
1F
100
AcDbEntity
  8
ceco.net 416
100
AcDbPolyline
 90
        3
 70
     0
 43
0.0
 10
-1030.984667282471
 20
266.0268793682237
 10
-1029.295350769578
 20
264.9879175004891
 10
-1021.399954822743
 20
268.9472969618029
  0
LWPOLYLINE
  5
49A
330
1F
100
AcDbEntity
  8
ceco.net 416
100
AcDbPolyline
 90
        3
 70
     0
 43
0.0
 10
-651.5895104544942
 20
331.0222937970058
 10
-886.3659846048104
 20
338.7766171880405
 42
-0.0416835977167134
 10
-957.7345508178224
 20
346.2927027798152
 42
25.01755809632914
  0
LWPOLYLINE
  5
49B
330
1F
100
AcDbEntity
  8
ceco.net 416
100
AcDbPolyline
 90
        3
 70
     0
 43
0.0
 10
-657.3679479219427
 20
326.210420663697
 10
-886.5026131946088
 20
333.7784033632044
 42
-0.0433540144317441
 10
-961.554032471626
 20
341.9404714452232
  0
LWPOLYLINE
  5
49C
330
1F
100
AcDbEntity
  8
ceco.net 416
100
AcDbPolyline
 90
        2
 70
     0
 43
0.0
 10
-1051.116536739889
 20
313.0428963619706
 10
-1061.486256319718
 20
311.4746933025069
  0
LWPOLYLINE
  5
49D
330
1F
100
AcDbEntity
  8
ceco.net 416
100
AcDbPolyline
 90
        2
 70
     0
 43
0.0
 10
-1172.224076187343
 20
494.7640288663471
 10
-1036.463282050292
 20
342.1385191210968
  0
CIRCLE
  5
49E
330
1F
100
AcDbEntity
  8
ceco.net 416
100
AcDbCircle
 10
-546.3109841477708
 20
98.89734152288042
 30
0.0
 40
5.466484228633265
  0
LWPOLYLINE
  5
49F
330
1F
100
AcDbEntity
  8
ceco.net 416
100
AcDbPolyline
 90
        2
 70
     0
 43
0.0
 10
-1082.223329190539
 20
301.749485361981
 10
-1047.356411097497
 20
299.7104819493451
  0
LWPOLYLINE
  5
4A0
330
1F
100
AcDbEntity
  8
ceco.net 416
100
AcDbPolyline
 90
        2
 70
     0
 43
0.0
 10
-1078.728536532292
 20
308.8671592825819
 10
-1246.639717290396
 20
283.4741073918424
  0
CIRCLE
  5
4A1
330
1F
100
AcDbEntity
  8
ceco.net 416
100
AcDbCircle
 10
0.0
 20
311.4530429700273
 30
0.0
 40
1.915369274461817
  0
CIRCLE
  5
4A2
330
1F
100
AcDbEntity
  8
ceco.net 416
100
AcDbCircle
 10
2.431751942323899
 20
307.7668572148679
 30
0.0
 40
1.0
  0
LINE
  5
4A3
330
1F
100
AcDbEntity
  8
ceco.net 416
100
AcDbLine
 10
-1092.909981224339
 20
515.8125858583218
 30
0.0
 11
-1094.705414387094
 21
514.9314480949185
 31
0.0
  0
LINE
  5
4A4
330
1F
100
AcDbEntity
  8
ceco.net 416
100
AcDbLine
 10
-1106.95660579166
 20
533.0854984550117
 30
0.0
 11
-1102.5055906063
 21
524.0159742515991
 31
0.0
  0
LINE
  5
4A5
330
1F
100
AcDbEntity
  8
ceco.net 416
100
AcDbLine
 10
-1099.77487314064
 20
536.6100495086236
 30
0.0
 11
-1095.323857955279
 21
527.5405253052102
 31
0.0
  0
LINE
  5
4A6
330
1F
100
AcDbEntity
  8
ceco.net 416
100
AcDbLine
 10
-1112.5147300466
 20
539.3312335681937
 30
0.0
 11
-1108.965653059078
 21
532.099526126715
 31
0.0
  0
LINE
  5
4A7
330
1F
100
AcDbEntity
  8
ceco.net 416
100
AcDbLine
 10
-1097.765825873222
 20
537.5960218369202
 30
0.0
 11
-1108.965653059078
 21
532.0995261267146
 31
0.0
  0
LINE
  5
4A8
330
1F
100
AcDbEntity
  8
ceco.net 416
100
AcDbLine
 10
-1094.622520297221
 20
526.1114583172031
 30
0.0
 11
-1101.804252948242
 21
522.5869072635912
 31
0.0
  0
LINE
  5
4A9
330
1F
100
AcDbEntity
  8
ceco.net 416
100
AcDbLine
 10
-1095.323857955279
 20
527.5405253052106
 30
0.0
 11
-1102.5055906063
 21
524.0159742515991
 31
0.0
  0
LINE
  5
4AA
330
1F
100
AcDbEntity
  8
ceco.net 416
100
AcDbLine
 10
-1096.221574536657
 20
527.0999564235092
 30
0.0
 11
-1095.520236878599
 21
525.6708894355012
 31
0.0
  0
LINE
  5
4AB
330
1F
100
AcDbEntity
  8
ceco.net 416
100
AcDbLine
 10
-1101.607874024922
 20
524.4565431332996
 30
0.0
 11
-1100.906536366864
 21
523.0274761452927
 31
0.0
  0
LINE
  5
4AC
330
1F
100
AcDbEntity
  8
ceco.net 416
100
AcDbLine
 10
-1101.804252948242
 20
522.5869072635912
 30
0.0
 11
-1098.720270776331
 21
516.3028911939475
 31
0.0
  0
LINE
  5
4AD
330
1F
100
AcDbEntity
  8
ceco.net 416
100
AcDbLine
 10
-1094.622520297221
 20
526.1114583172031
 30
0.0
 11
-1091.538538125311
 21
519.827442247559
 31
0.0
  0
LINE
  5
4AE
330
1F
100
AcDbEntity
  8
ceco.net 416
100
AcDbLine
 10
-1101.406648028226
 20
545.0146720279446
 30
0.0
 11
-1097.765825873222
 21
537.5960218369202
 31
0.0
  0
ARC
  5
4AF
330
1F
100
AcDbEntity
  8
ceco.net 416
100
AcDbCircle
 10
-1094.231687869444
 20
518.5057356024542
 30
0.0
 40
2.999993999999999
100
AcDbArc
 50
296.140239895947
 51
26.14023989595277
  0
ARC
  5
4B0
330
1F
100
AcDbEntity
  8
ceco.net 416
100
AcDbCircle
 10
-1096.027121032198
 20
517.6245978390518
 30
0.0
 40
2.999993999999999
100
AcDbArc
 50
206.1402398959527
 51
296.140239895947
  0
LINE
  5
4B1
330
1F
100
AcDbEntity
  8
ceco.net 416
100
AcDbLine
 10
83.68274223744355
 20
97.98987804384466
 30
0.0
 11
85.54088475719623
 21
98.72966880906558
 31
0.0
  0
LINE
  5
4B2
330
1F
100
AcDbEntity
  8
ceco.net 416
100
AcDbLine
 10
96.35289471247785
 20
79.68336533476895
 30
0.0
 11
92.61588551057014
 21
89.06966213816565
 31
0.0
  0
LINE
  5
4B3
330
1F
100
AcDbEntity
  8
ceco.net 416
100
AcDbLine
 10
88.92032463346925
 20
76.72420227388727
 30
0.0
 11
85.18331543156126
 21
86.11049907728505
 31
0.0
  0
LINE
  5
4B4
330
1F
100
AcDbEntity
  8
ceco.net 416
100
AcDbLine
 10
101.4503986610089
 20
72.930102757496
 30
0.0
 11
98.4321122680069
 21
80.5111737133579
 31
0.0
  0
LINE
  5
4B5
330
1F
100
AcDbEntity
  8
ceco.net 416
100
AcDbLine
 10
86.84110707793974
 20
75.89639389529736
 30
0.0
 11
98.43211226800731
 21
80.5111737133588
 31
0.0
  0
LINE
  5
4B6
330
1F
100
AcDbEntity
  8
ceco.net 416
100
AcDbLine
 10
84.59448228391796
 20
87.58947929725326
 30
0.0
 11
92.0270523629262
 21
90.54864235813459
 31
0.0
  0
LINE
  5
4B7
330
1F
100
AcDbEntity
  8
ceco.net 416
100
AcDbLine
 10
85.18331543156188
 20
86.11049907728437
 30
0.0
 11
92.61588551057014
 21
89.06966213816565
 31
0.0
  0
LINE
  5
4B8
330
1F
100
AcDbEntity
  8
ceco.net 416
100
AcDbLine
 10
86.11238669143739
 20
86.48039445989434
 30
0.0
 11
85.52355354379313
 21
87.95937467986362
 31
0.0
  0
LINE
  5
4B9
330
1F
100
AcDbEntity
  8
ceco.net 416
100
AcDbLine
 10
91.68681425069365
 20
88.69976675555609
 30
0.0
 11
91.09798110305002
 21
90.17874697552462
 31
0.0
  0
LINE
  5
4BA
330
1F
100
AcDbEntity
  8
ceco.net 416
100
AcDbLine
 10
92.0270523629262
 20
90.54864235813459
 30
0.0
 11
89.4377846846549
 21
97.05214117726734
 31
0.0
  0
LINE
  5
4BB
330
1F
100
AcDbEntity
  8
ceco.net 416
100
AcDbLine
 10
84.59448228391796
 20
87.58947929725326
 30
0.0
 11
82.0052146056463
 21
94.09297811638635
 31
0.0
  0
LINE
  5
4BC
330
1F
100
AcDbEntity
  8
ceco.net 416
100
AcDbLine
 10
89.85938120801444
 20
68.31535374039862
 30
0.0
 11
86.84110707793974
 21
75.89639389529736
 31
0.0
  0
ARC
  5
4BD
330
1F
100
AcDbEntity
  8
ceco.net 416
100
AcDbCircle
 10
84.79242838527444
 20
95.20266426421722
 30
0.0
 40
2.999993999999999
100
AcDbArc
 50
111.7092110270721
 51
201.7092110270748
  0
ARC
  5
4BE
330
1F
100
AcDbEntity
  8
ceco.net 416
100
AcDbCircle
 10
86.65057090502642
 20
95.94245502943682
 30
0.0
 40
2.999993999999999
100
AcDbArc
 50
21.70921102707489
 51
111.7092110270721
  0
VIEWPORT
  5
7A
330
55
100
AcDbEntity
 67
     1
  8
0
100
AcDbViewport
 10
133.3499908447265
 20
101.5999970436096
 30
0.0
 40
499.656613158166
 41
228.4221935424804
 68
     1
 69
     1
 12
133.3499908447265
 22
101.5999970436096
 13
0.0
 23
0.0
 14
10.0
 24
10.0
 15
10.0
 25
10.0
 16
0.0
 26
0.0
 36
1.0
 17
0.0
 27
0.0
 37
0.0
 42
50.0
 43
0.0
 44
0.0
 45
228.4221935424804
 50
0.0
 51
0.0
 72
   100
 90
    32800
  1

281
     0
 71
     1
 74
     0
110
0.0
120
0.0
130
0.0
111
1.0
121
0.0
131
0.0
112
0.0
122
1.0
132
0.0
 79
     0
146
0.0
  0
VIEWPORT
  5
7C
330
55
100
AcDbEntity
 67
     1
  8
0
100
AcDbViewport
 10
133.349993944168
 20
101.599993944168
 30
0.0
 40
213.3599903106689
 41
162.5599903106689
 68
     2
 69
     2
 12
210.0
 22
148.5
 13
0.0
 23
0.0
 14
10.0
 24
10.0
 15
10.0
 25
10.0
 16
0.0
 26
0.0
 36
1.0
 17
0.0
 27
0.0
 37
0.0
 42
50.0
 43
0.0
 44
0.0
 45
322.4396396426225
 50
0.0
 51
0.0
 72
   100
 90
    32864
  1

281
     0
 71
     1
 74
     0
110
0.0
120
0.0
130
0.0
111
1.0
121
0.0
131
0.0
112
0.0
122
1.0
132
0.0
 79
     0
146
0.0
  0
ENDSEC
  0
SECTION
  2
OBJECTS
  0
DICTIONARY
  5
C
330
0
100
AcDbDictionary
281
     1
  3
ACAD_GROUP
350
D
  3
ACAD_LAYOUT
350
1A
  3
ACAD_MLINESTYLE
350
17
  3
ACAD_PLOTSETTINGS
350
19
  3
ACAD_PLOTSTYLENAME
350
E
  3
AcDbVariableDictionary
350
5E
  0
DICTIONARY
  5
9B
330
2
100
AcDbDictionary
280
     1
281
     1
  3
ACAD_LAYERFILTERS
360
4BF
  3
ACAD_LAYERSTATES
360
9C
  0
DICTIONARY
  5
89
330
88
100
AcDbDictionary
280
     1
281
     1
  3
ACAD_XREC_ROUNDTRIP
360
8A
  0
DICTIONARY
  5
D
102
{ACAD_REACTORS
330
C
102
}
330
C
100
AcDbDictionary
281
     1
  0
DICTIONARY
  5
1A
102
{ACAD_REACTORS
330
C
102
}
330
C
100
AcDbDictionary
281
     1
  3
Model
350
22
  3
www.ceco.net
350
56
  0
DICTIONARY
  5
17
102
{ACAD_REACTORS
330
C
102
}
330
C
100
AcDbDictionary
281
     1
  3
Standard
350
18
  0
DICTIONARY
  5
19
102
{ACAD_REACTORS
330
C
102
}
330
C
100
AcDbDictionary
281
     1
  0
ACDBDICTIONARYWDFLT
  5
E
102
{ACAD_REACTORS
330
C
102
}
330
C
100
AcDbDictionary
281
     1
  3
Normal
350
F
100
AcDbDictionaryWithDefault
340
F
  0
DICTIONARY
  5
5E
102
{ACAD_REACTORS
330
C
102
}
330
C
100
AcDbDictionary
281
     1
  3
DIMASSOC
350
5F
  3
HIDETEXT
350
63
  0
DICTIONARY
  5
4BF
102
{ACAD_REACTORS
330
9B
102
}
330
9B
100
AcDbDictionary
280
     1
281
     1
  0
DICTIONARY
  5
9C
102
{ACAD_REACTORS
330
9B
102
}
330
9B
100
AcDbDictionary
281
     1
  0
XRECORD
  5
8A
102
{ACAD_REACTORS
330
89
102
}
330
89
100
AcDbXrecord
280
     1
102
MATERIAL
340
0
  0
LAYOUT
  5
22
102
{ACAD_REACTORS
330
1A
102
}
330
1A
100
AcDbPlotSettings
  1

  2
none_device
  4
ANSI_A_(8.50_x_11.00_Inches)
  6

 40
6.349999904632568
 41
19.04999923706054
 42
6.350006103515625
 43
19.04998779296875
 44
215.8999938964843
 45
279.3999938964843
 46
0.0
 47
0.0
 48
0.0
 49
0.0
140
0.0
141
0.0
142
1.0
143
78.436453180766
 70
 11952
 72
     0
 73
     1
 74
     0
  7

 75
     0
147
0.0127491741332998
148
0.0
149
0.0
100
AcDbLayout
  1
Model
 70
     1
 71
     0
 10
0.0
 20
0.0
 11
12.0
 21
9.0
 12
0.0
 22
0.0
 32
0.0
 14
0.0
 24
0.0
 34
0.0
 15
0.0
 25
0.0
 35
0.0
146
0.0
 13
0.0
 23
0.0
 33
0.0
 16
1.0
 26
0.0
 36
0.0
 17
0.0
 27
1.0
 37
0.0
 76
     0
330
1F
  0
LAYOUT
  5
56
102
{ACAD_REACTORS
330
1A
102
}
330
1A
100
AcDbPlotSettings
  1

  2
none_device
  4
Letter_(8.50_x_11.00_Inches)
  6

 40
6.349999904632568
 41
6.349999904632568
 42
6.350006103515625
 43
6.350006103515625
 44
215.8999938964843
 45
279.3999938964843
 46
0.0
 47
0.0
 48
0.0
 49
0.0
140
0.0
141
0.0
142
1.0
143
1.0
 70
   688
 72
     1
 73
     1
 74
     5
  7

 75
    16
147
1.0
148
0.0
149
0.0
100
AcDbLayout
  1
www.ceco.net
 70
     1
 71
     1
 10
-6.350006103515625
 20
-6.349999904632568
 11
273.0499877929687
 21
209.5499939918517
 12
0.0
 22
0.0
 32
0.0
 14
26.66076962115562
 24
20.31135699206657
 34
-0.0015258207003583
 15
240.039213369355
 25
182.8886381005154
 35
0.0000000349246037
146
0.0
 13
0.0
 23
0.0
 33
0.0
 16
1.0
 26
0.0
 36
0.0
 17
0.0
 27
1.0
 37
0.0
 76
     0
330
55
331
7A
  0
MLINESTYLE
  5
18
102
{ACAD_REACTORS
330
17
102
}
330
17
100
AcDbMlineStyle
  2
STANDARD
 70
     0
  3

 62
   256
 51
90.0
 52
90.0
 71
     2
 49
0.5
 62
   256
  6
BYLAYER
 49
-0.5
 62
   256
  6
BYLAYER
  0
ACDBPLACEHOLDER
  5
F
102
{ACAD_REACTORS
330
E
102
}
330
E
  0
DICTIONARYVAR
  5
5F
102
{ACAD_REACTORS
330
5E
102
}
330
5E
100
DictionaryVariables
280
     0
  1
2
  0
DICTIONARYVAR
  5
63
102
{ACAD_REACTORS
330
5E
102
}
330
5E
100
DictionaryVariables
280
     0
  1
1
  0
ENDSEC
  0
EOF
