  0
SECTION
  2
HEADER
  9
$ACADVER
  1
AC1015
  9
$ACADMAINTVER
 70
    13
  9
$DWGCODEPAGE
  3
ANSI_1252
  9
$INSBASE
 10
0.0
 20
0.0
 30
0.0
  9
$EXTMIN
 10
-247.1408970538441
 20
-0.0612984027961829
 30
-0.0015258207003583
  9
$EXTMAX
 10
1706.608735678414
 20
2008.840625944777
 30
0.0000000349246037
  9
$LIMMIN
 10
0.0
 20
0.0
  9
$LIMMAX
 10
420.0
 20
297.0
  9
$ORTHOMODE
 70
     0
  9
$REGENMODE
 70
     1
  9
$FILLMODE
 70
     1
  9
$QTEXTMODE
 70
     0
  9
$MIRRTEXT
 70
     1
  9
$LTSCALE
 40
1.0
  9
$ATTMODE
 70
     1
  9
$TEXTSIZE
 40
2.5
  9
$TRACEWID
 40
1.0
  9
$TEXTSTYLE
  7
Standard
  9
$CLAYER
  8
ceco.net 104
  9
$CELTYPE
  6
ByLayer
  9
$CECOLOR
 62
   256
  9
$CELTSCALE
 40
1.0
  9
$DISPSILH
 70
     0
  9
$DIMSCALE
 40
1.0
  9
$DIMASZ
 40
2.5
  9
$DIMEXO
 40
0.625
  9
$DIMDLI
 40
3.75
  9
$DIMRND
 40
0.0
  9
$DIMDLE
 40
0.0
  9
$DIMEXE
 40
1.25
  9
$DIMTP
 40
0.0
  9
$DIMTM
 40
0.0
  9
$DIMTXT
 40
2.5
  9
$DIMCEN
 40
2.5
  9
$DIMTSZ
 40
0.0
  9
$DIMTOL
 70
     0
  9
$DIMLIM
 70
     0
  9
$DIMTIH
 70
     0
  9
$DIMTOH
 70
     0
  9
$DIMSE1
 70
     0
  9
$DIMSE2
 70
     0
  9
$DIMTAD
 70
     1
  9
$DIMZIN
 70
     8
  9
$DIMBLK
  1

  9
$DIMASO
 70
     1
  9
$DIMSHO
 70
     1
  9
$DIMPOST
  1

  9
$DIMAPOST
  1

  9
$DIMALT
 70
     0
  9
$DIMALTD
 70
     3
  9
$DIMALTF
 40
0.03937007874016
  9
$DIMLFAC
 40
1.0
  9
$DIMTOFL
 70
     1
  9
$DIMTVP
 40
0.0
  9
$DIMTIX
 70
     0
  9
$DIMSOXD
 70
     0
  9
$DIMSAH
 70
     0
  9
$DIMBLK1
  1

  9
$DIMBLK2
  1

  9
$DIMSTYLE
  2
ISO-25
  9
$DIMCLRD
 70
     0
  9
$DIMCLRE
 70
     0
  9
$DIMCLRT
 70
     0
  9
$DIMTFAC
 40
1.0
  9
$DIMGAP
 40
0.625
  9
$DIMJUST
 70
     0
  9
$DIMSD1
 70
     0
  9
$DIMSD2
 70
     0
  9
$DIMTOLJ
 70
     0
  9
$DIMTZIN
 70
     8
  9
$DIMALTZ
 70
     0
  9
$DIMALTTZ
 70
     0
  9
$DIMUPT
 70
     0
  9
$DIMDEC
 70
     2
  9
$DIMTDEC
 70
     2
  9
$DIMALTU
 70
     2
  9
$DIMALTTD
 70
     3
  9
$DIMTXSTY
  7
Standard
  9
$DIMAUNIT
 70
     0
  9
$DIMADEC
 70
     0
  9
$DIMALTRND
 40
0.0
  9
$DIMAZIN
 70
     0
  9
$DIMDSEP
 70
    44
  9
$DIMATFIT
 70
     3
  9
$DIMFRAC
 70
     0
  9
$DIMLDRBLK
  1

  9
$DIMLUNIT
 70
     2
  9
$DIMLWD
 70
    -2
  9
$DIMLWE
 70
    -2
  9
$DIMTMOVE
 70
     0
  9
$LUNITS
 70
     2
  9
$LUPREC
 70
     2
  9
$SKETCHINC
 40
1.0
  9
$FILLETRAD
 40
10.0
  9
$AUNITS
 70
     0
  9
$AUPREC
 70
     0
  9
$MENU
  1
.
  9
$ELEVATION
 40
0.0
  9
$PELEVATION
 40
0.0
  9
$THICKNESS
 40
0.0
  9
$LIMCHECK
 70
     0
  9
$CHAMFERA
 40
10.0
  9
$CHAMFERB
 40
10.0
  9
$CHAMFERC
 40
20.0
  9
$CHAMFERD
 40
0.0
  9
$SKPOLY
 70
     0
  9
$TDCREATE
 40
2455079.811409143
  9
$TDUCREATE
 40
2455079.936409144
  9
$TDUPDATE
 40
2456623.960385324
  9
$TDUUPDATE
 40
2456624.085385324
  9
$TDINDWG
 40
0.0474939699
  9
$TDUSRTIMER
 40
0.0474939699
  9
$USRTIMER
 70
     1
  9
$ANGBASE
 50
0.0
  9
$ANGDIR
 70
     0
  9
$PDMODE
 70
     0
  9
$PDSIZE
 40
0.0
  9
$PLINEWID
 40
0.0
  9
$SPLFRAME
 70
     0
  9
$SPLINETYPE
 70
     6
  9
$SPLINESEGS
 70
     8
  9
$HANDSEED
  5
C0A
  9
$SURFTAB1
 70
     6
  9
$SURFTAB2
 70
     6
  9
$SURFTYPE
 70
     6
  9
$SURFU
 70
     6
  9
$SURFV
 70
     6
  9
$UCSBASE
  2

  9
$UCSNAME
  2

  9
$UCSORG
 10
0.0
 20
0.0
 30
0.0
  9
$UCSXDIR
 10
1.0
 20
0.0
 30
0.0
  9
$UCSYDIR
 10
0.0
 20
1.0
 30
0.0
  9
$UCSORTHOREF
  2

  9
$UCSORTHOVIEW
 70
     0
  9
$UCSORGTOP
 10
0.0
 20
0.0
 30
0.0
  9
$UCSORGBOTTOM
 10
0.0
 20
0.0
 30
0.0
  9
$UCSORGLEFT
 10
0.0
 20
0.0
 30
0.0
  9
$UCSORGRIGHT
 10
0.0
 20
0.0
 30
0.0
  9
$UCSORGFRONT
 10
0.0
 20
0.0
 30
0.0
  9
$UCSORGBACK
 10
0.0
 20
0.0
 30
0.0
  9
$PUCSBASE
  2

  9
$PUCSNAME
  2

  9
$PUCSORG
 10
0.0
 20
0.0
 30
0.0
  9
$PUCSXDIR
 10
1.0
 20
0.0
 30
0.0
  9
$PUCSYDIR
 10
0.0
 20
1.0
 30
0.0
  9
$PUCSORTHOREF
  2

  9
$PUCSORTHOVIEW
 70
     0
  9
$PUCSORGTOP
 10
0.0
 20
0.0
 30
0.0
  9
$PUCSORGBOTTOM
 10
0.0
 20
0.0
 30
0.0
  9
$PUCSORGLEFT
 10
0.0
 20
0.0
 30
0.0
  9
$PUCSORGRIGHT
 10
0.0
 20
0.0
 30
0.0
  9
$PUCSORGFRONT
 10
0.0
 20
0.0
 30
0.0
  9
$PUCSORGBACK
 10
0.0
 20
0.0
 30
0.0
  9
$USERI1
 70
     0
  9
$USERI2
 70
     0
  9
$USERI3
 70
     0
  9
$USERI4
 70
     0
  9
$USERI5
 70
     0
  9
$USERR1
 40
0.0
  9
$USERR2
 40
0.0
  9
$USERR3
 40
0.0
  9
$USERR4
 40
0.0
  9
$USERR5
 40
0.0
  9
$WORLDVIEW
 70
     1
  9
$SHADEDGE
 70
     3
  9
$SHADEDIF
 70
    70
  9
$TILEMODE
 70
     1
  9
$MAXACTVP
 70
    64
  9
$PINSBASE
 10
0.0
 20
0.0
 30
0.0
  9
$PLIMCHECK
 70
     0
  9
$PEXTMIN
 10
1.000000000000000E+20
 20
1.000000000000000E+20
 30
1.000000000000000E+20
  9
$PEXTMAX
 10
-1.000000000000000E+20
 20
-1.000000000000000E+20
 30
-1.000000000000000E+20
  9
$PLIMMIN
 10
0.0
 20
0.0
  9
$PLIMMAX
 10
420.0
 20
297.0
  9
$UNITMODE
 70
     0
  9
$VISRETAIN
 70
     1
  9
$PLINEGEN
 70
     0
  9
$PSLTSCALE
 70
     1
  9
$TREEDEPTH
 70
  3020
  9
$CMLSTYLE
  2
Standard
  9
$CMLJUST
 70
     0
  9
$CMLSCALE
 40
20.0
  9
$PROXYGRAPHICS
 70
     1
  9
$MEASUREMENT
 70
     1
  9
$CELWEIGHT
370
    -1
  9
$ENDCAPS
280
     0
  9
$JOINSTYLE
280
     0
  9
$LWDISPLAY
290
     0
  9
$INSUNITS
 70
     4
  9
$HYPERLINKBASE
  1

  9
$STYLESHEET
  1

  9
$XEDIT
290
     1
  9
$CEPSNTYPE
380
     0
  9
$PSTYLEMODE
290
     1
  9
$FINGERPRINTGUID
  2
{81085373-3A21-4932-80AA-8F6C3258C50C}
  9
$VERSIONGUID
  2
{14369983-54C9-4903-8D1B-BF357996EB73}
  9
$EXTNAMES
290
     1
  9
$PSVPSCALE
 40
0.0
  9
$OLESTARTUP
290
     0
  0
ENDSEC
  0
SECTION
  2
CLASSES
  0
CLASS
  1
ACDBDICTIONARYWDFLT
  2
AcDbDictionaryWithDefault
  3
AutoCAD 2000
 90
        0
280
     0
281
     0
  0
CLASS
  1
ACDBPLACEHOLDER
  2
AcDbPlaceHolder
  3
AutoCAD 2000
 90
        0
280
     0
281
     0
  0
CLASS
  1
LAYOUT
  2
AcDbLayout
  3
AutoCAD 2000
 90
        0
280
     0
281
     0
  0
CLASS
  1
DICTIONARYVAR
  2
AcDbDictionaryVar
  3
AutoCAD 2000
 90
        0
280
     0
281
     0
  0
CLASS
  1
PLOTSETTINGS
  2
AcDbPlotSettings
  3
AutoCAD 2000
 90
        0
280
     0
281
     0
  0
ENDSEC
  0
SECTION
  2
TABLES
  0
TABLE
  2
VPORT
  5
8
330
0
100
AcDbSymbolTable
 70
     3
  0
VPORT
  5
C09
330
8
100
AcDbSymbolTableRecord
100
AcDbViewportTableRecord
  2
*Active
 70
     0
 10
0.0
 20
0.0
 11
1.0
 21
1.0
 12
729.7339193122854
 22
1004.38966377099
 13
0.0
 23
0.0
 14
10.0
 24
10.0
 15
10.0
 25
10.0
 16
0.0
 26
0.0
 36
1.0
 17
0.0
 27
0.0
 37
0.0
 40
2023.166316709805
 41
2.184834123222748
 42
50.0
 43
0.0
 44
0.0
 50
0.0
 51
0.0
 71
     0
 72
   100
 73
     1
 74
     3
 75
     0
 76
     0
 77
     0
 78
     0
281
     0
 65
     1
110
0.0
120
0.0
130
0.0
111
1.0
121
0.0
131
0.0
112
0.0
122
1.0
132
0.0
 79
     0
146
0.0
  0
ENDTAB
  0
TABLE
  2
LTYPE
  5
5
330
0
100
AcDbSymbolTable
 70
     1
  0
LTYPE
  5
14
330
5
100
AcDbSymbolTableRecord
100
AcDbLinetypeTableRecord
  2
ByBlock
 70
     0
  3

 72
    65
 73
     0
 40
0.0
  0
LTYPE
  5
15
330
5
100
AcDbSymbolTableRecord
100
AcDbLinetypeTableRecord
  2
ByLayer
 70
     0
  3

 72
    65
 73
     0
 40
0.0
  0
LTYPE
  5
16
330
5
100
AcDbSymbolTableRecord
100
AcDbLinetypeTableRecord
  2
Continuous
 70
     0
  3
Solid line
 72
    65
 73
     0
 40
0.0
  0
ENDTAB
  0
TABLE
  2
LAYER
  5
2
102
{ACAD_XDICTIONARY
360
969
102
}
330
0
100
AcDbSymbolTable
 70
     2
  0
LAYER
  5
10
330
2
100
AcDbSymbolTableRecord
100
AcDbLayerTableRecord
  2
0
 70
     0
 62
     7
  6
Continuous
370
    -3
390
F
  0
LAYER
  5
8F5
102
{ACAD_XDICTIONARY
360
8F6
102
}
330
2
100
AcDbSymbolTableRecord
100
AcDbLayerTableRecord
  2
ceco.net 104
 70
     0
 62
     7
  6
Continuous
370
    -3
390
F
1001
AcAecLayerStandard
1000

1000

  0
ENDTAB
  0
TABLE
  2
STYLE
  5
3
330
0
100
AcDbSymbolTable
 70
     1
  0
STYLE
  5
11
330
3
100
AcDbSymbolTableRecord
100
AcDbTextStyleTableRecord
  2
Standard
 70
     0
 40
0.0
 41
1.0
 50
0.0
 71
     0
 42
2.5
  3
txt
  4

  0
ENDTAB
  0
TABLE
  2
VIEW
  5
6
330
0
100
AcDbSymbolTable
 70
     0
  0
ENDTAB
  0
TABLE
  2
UCS
  5
7
330
0
100
AcDbSymbolTable
 70
     0
  0
ENDTAB
  0
TABLE
  2
APPID
  5
9
330
0
100
AcDbSymbolTable
 70
   113
  0
APPID
  5
12
330
9
100
AcDbSymbolTableRecord
100
AcDbRegAppTableRecord
  2
ACAD
 70
     0
  0
APPID
  5
2C
330
9
100
AcDbSymbolTableRecord
100
AcDbRegAppTableRecord
  2
ACAD_DSTYLE_DIMJOGGED_JOGANGLE_SYMBOL
 70
     0
  0
APPID
  5
11B
330
9
100
AcDbSymbolTableRecord
100
AcDbRegAppTableRecord
  2
ACAD_NAV_VCDISPLAY
 70
     0
  0
APPID
  5
11C
330
9
100
AcDbSymbolTableRecord
100
AcDbRegAppTableRecord
  2
ACAD_MLEADERVER
 70
     0
  0
APPID
  5
8F9
330
9
100
AcDbSymbolTableRecord
100
AcDbRegAppTableRecord
  2
AcAecLayerStandard
 70
     0
  0
APPID
  5
8FA
330
9
100
AcDbSymbolTableRecord
100
AcDbRegAppTableRecord
  2
RAK
 70
     0
  0
APPID
  5
8FB
330
9
100
AcDbSymbolTableRecord
100
AcDbRegAppTableRecord
  2
AcDbDynamicBlockGUID
 70
     0
  0
APPID
  5
8FC
330
9
100
AcDbSymbolTableRecord
100
AcDbRegAppTableRecord
  2
AcDbBlockRepETag
 70
     0
  0
APPID
  5
8FD
330
9
100
AcDbSymbolTableRecord
100
AcDbRegAppTableRecord
  2
CDEB_LibraryEquip
 70
     0
  0
APPID
  5
8FE
330
9
100
AcDbSymbolTableRecord
100
AcDbRegAppTableRecord
  2
AECBLK
 70
     0
  0
APPID
  5
8FF
330
9
100
AcDbSymbolTableRecord
100
AcDbRegAppTableRecord
  2
ACAD_DSTYLE_DIMEXT_LENGTH
 70
     0
  0
APPID
  5
900
330
9
100
AcDbSymbolTableRecord
100
AcDbRegAppTableRecord
  2
ACAD_DSTYLE_DIMEXT_ENABLED
 70
     0
  0
APPID
  5
901
330
9
100
AcDbSymbolTableRecord
100
AcDbRegAppTableRecord
  2
ACAD_DSTYLE_DIMARC_LENGTH_SYMBOL
 70
     0
  0
APPID
  5
902
330
9
100
AcDbSymbolTableRecord
100
AcDbRegAppTableRecord
  2
AcDbDynamicBlockTrueName
 70
     0
  0
APPID
  5
903
330
9
100
AcDbSymbolTableRecord
100
AcDbRegAppTableRecord
  2
MICROGDS
 70
     0
  0
APPID
  5
904
330
9
100
AcDbSymbolTableRecord
100
AcDbRegAppTableRecord
  2
ACAD_PSEXT
 70
     0
  0
APPID
  5
905
330
9
100
AcDbSymbolTableRecord
100
AcDbRegAppTableRecord
  2
CONTENTBLOCKICON
 70
     0
  0
APPID
  5
906
330
9
100
AcDbSymbolTableRecord
100
AcDbRegAppTableRecord
  2
EPDC99021615502601
 70
     0
  0
APPID
  5
907
330
9
100
AcDbSymbolTableRecord
100
AcDbRegAppTableRecord
  2
EPNODE
 70
     0
  0
APPID
  5
908
330
9
100
AcDbSymbolTableRecord
100
AcDbRegAppTableRecord
  2
EPDC99022115544502
 70
     0
  0
APPID
  5
909
330
9
100
AcDbSymbolTableRecord
100
AcDbRegAppTableRecord
  2
AVE_RENDER
 70
     0
  0
APPID
  5
90A
330
9
100
AcDbSymbolTableRecord
100
AcDbRegAppTableRecord
  2
AVE_ENTITY_MATERIAL
 70
     0
  0
APPID
  5
90B
330
9
100
AcDbSymbolTableRecord
100
AcDbRegAppTableRecord
  2
AVE_FINISH
 70
     0
  0
APPID
  5
90C
330
9
100
AcDbSymbolTableRecord
100
AcDbRegAppTableRecord
  2
AVE_MATERIAL
 70
     0
  0
APPID
  5
90D
330
9
100
AcDbSymbolTableRecord
100
AcDbRegAppTableRecord
  2
AVE_GLOBAL
 70
     0
  0
APPID
  5
90E
330
9
100
AcDbSymbolTableRecord
100
AcDbRegAppTableRecord
  2
EPDC99040916161102
 70
     0
  0
APPID
  5
90F
330
9
100
AcDbSymbolTableRecord
100
AcDbRegAppTableRecord
  2
EPDC99041015565303
 70
     0
  0
APPID
  5
910
330
9
100
AcDbSymbolTableRecord
100
AcDbRegAppTableRecord
  2
DCO15
 70
     0
  0
APPID
  5
911
330
9
100
AcDbSymbolTableRecord
100
AcDbRegAppTableRecord
  2
AECIGV
 70
     0
  0
APPID
  5
912
330
9
100
AcDbSymbolTableRecord
100
AcDbRegAppTableRecord
  2
AEC_ID
 70
     0
  0
APPID
  5
913
330
9
100
AcDbSymbolTableRecord
100
AcDbRegAppTableRecord
  2
AECMISCDATA
 70
     0
  0
APPID
  5
914
330
9
100
AcDbSymbolTableRecord
100
AcDbRegAppTableRecord
  2
AECTXTLS
 70
     0
  0
APPID
  5
915
330
9
100
AcDbSymbolTableRecord
100
AcDbRegAppTableRecord
  2
AEC_OBJ
 70
     0
  0
APPID
  5
916
330
9
100
AcDbSymbolTableRecord
100
AcDbRegAppTableRecord
  2
AECLAYSTY
 70
     0
  0
APPID
  5
917
330
9
100
AcDbSymbolTableRecord
100
AcDbRegAppTableRecord
  2
CS_ARTISAN
 70
     0
  0
APPID
  5
918
330
9
100
AcDbSymbolTableRecord
100
AcDbRegAppTableRecord
  2
CS_MAINT
 70
     0
  0
APPID
  5
919
330
9
100
AcDbSymbolTableRecord
100
AcDbRegAppTableRecord
  2
ADCADD_ZZ
 70
     0
  0
APPID
  5
91A
330
9
100
AcDbSymbolTableRecord
100
AcDbRegAppTableRecord
  2
SDSK_PMN
 70
     0
  0
APPID
  5
91B
330
9
100
AcDbSymbolTableRecord
100
AcDbRegAppTableRecord
  2
AEC_DWGVARSSETUP_DATA
 70
     0
  0
APPID
  5
91C
330
9
100
AcDbSymbolTableRecord
100
AcDbRegAppTableRecord
  2
AEC_ROUNDTRIP_15
 70
     0
  0
APPID
  5
91D
330
9
100
AcDbSymbolTableRecord
100
AcDbRegAppTableRecord
  2
CONTENTBLOCKDESCRIPTION
 70
     0
  0
APPID
  5
91E
330
9
100
AcDbSymbolTableRecord
100
AcDbRegAppTableRecord
  2
AECBASE
 70
     0
  0
APPID
  5
91F
330
9
100
AcDbSymbolTableRecord
100
AcDbRegAppTableRecord
  2
ADBWADS
 70
     0
  0
APPID
  5
920
330
9
100
AcDbSymbolTableRecord
100
AcDbRegAppTableRecord
  2
AEC_DISPREPCONFIG_DATA
 70
     0
  0
APPID
  5
921
330
9
100
AcDbSymbolTableRecord
100
AcDbRegAppTableRecord
  2
AEC_DISPREPSET_DATA
 70
     0
  0
APPID
  5
922
330
9
100
AcDbSymbolTableRecord
100
AcDbRegAppTableRecord
  2
ACAUTHENVIRON
 70
     0
  0
APPID
  5
923
330
9
100
AcDbSymbolTableRecord
100
AcDbRegAppTableRecord
  2
ACAD_EXEMPT_FROM_CAD_STANDARDS
 70
     0
  0
APPID
  5
924
330
9
100
AcDbSymbolTableRecord
100
AcDbRegAppTableRecord
  2
AcDbBlockRepBTag
 70
     0
  0
APPID
  5
925
330
9
100
AcDbSymbolTableRecord
100
AcDbRegAppTableRecord
  2
ACAD_DSTYLE_DIMTEXT_FILL
 70
     0
  0
APPID
  5
926
330
9
100
AcDbSymbolTableRecord
100
AcDbRegAppTableRecord
  2
AECLAY
 70
     0
  0
APPID
  5
927
330
9
100
AcDbSymbolTableRecord
100
AcDbRegAppTableRecord
  2
CONTENTTABDATA
 70
     0
  0
APPID
  5
928
330
9
100
AcDbSymbolTableRecord
100
AcDbRegAppTableRecord
  2
CONTENTCURRENTTAB
 70
     0
  0
APPID
  5
929
330
9
100
AcDbSymbolTableRecord
100
AcDbRegAppTableRecord
  2
AME_SOL
 70
     0
  0
APPID
  5
92A
330
9
100
AcDbSymbolTableRecord
100
AcDbRegAppTableRecord
  2
DRAWINGVARIABLESXDATA
 70
     0
  0
APPID
  5
92B
330
9
100
AcDbSymbolTableRecord
100
AcDbRegAppTableRecord
  2
ACAD_DSTYLE_DIM_LINETYPE
 70
     0
  0
APPID
  5
92C
330
9
100
AcDbSymbolTableRecord
100
AcDbRegAppTableRecord
  2
ACAD_DSTYLE_DIM_EXT1_LINETYPE
 70
     0
  0
APPID
  5
92D
330
9
100
AcDbSymbolTableRecord
100
AcDbRegAppTableRecord
  2
ACAD_DSTYLE_DIM_EXT2_LINETYPE
 70
     0
  0
APPID
  5
92E
330
9
100
AcDbSymbolTableRecord
100
AcDbRegAppTableRecord
  2
GENIUS_GENDIM_13
 70
     0
  0
APPID
  5
92F
330
9
100
AcDbSymbolTableRecord
100
AcDbRegAppTableRecord
  2
GENIUS_GENDTOL_13
 70
     0
  0
APPID
  5
930
330
9
100
AcDbSymbolTableRecord
100
AcDbRegAppTableRecord
  2
GENIUS_GE3DTOL_13
 70
     0
  0
APPID
  5
931
330
9
100
AcDbSymbolTableRecord
100
AcDbRegAppTableRecord
  2
MCAD_NO_VIS
 70
     0
  0
APPID
  5
932
330
9
100
AcDbSymbolTableRecord
100
AcDbRegAppTableRecord
  2
ACAD_TEMP_GRAPHIC
 70
     0
  0
APPID
  5
933
330
9
100
AcDbSymbolTableRecord
100
AcDbRegAppTableRecord
  2
AD_DRAW
 70
     0
  0
APPID
  5
934
330
9
100
AcDbSymbolTableRecord
100
AcDbRegAppTableRecord
  2
ACATTRIBSERVICES
 70
     0
  0
APPID
  5
935
330
9
100
AcDbSymbolTableRecord
100
AcDbRegAppTableRecord
  2
ASURF_PCURVE_APPNAME
 70
     0
  0
APPID
  5
936
330
9
100
AcDbSymbolTableRecord
100
AcDbRegAppTableRecord
  2
AMG_3D2D_5.0
 70
     0
  0
APPID
  5
937
330
9
100
AcDbSymbolTableRecord
100
AcDbRegAppTableRecord
  2
DESIGNERASSEMBLIES
 70
     0
  0
APPID
  5
938
330
9
100
AcDbSymbolTableRecord
100
AcDbRegAppTableRecord
  2
ACADM_DIM_EDIT
 70
     0
  0
APPID
  5
939
330
9
100
AcDbSymbolTableRecord
100
AcDbRegAppTableRecord
  2
AMDT_DM_ADJ
 70
     0
  0
APPID
  5
93A
330
9
100
AcDbSymbolTableRecord
100
AcDbRegAppTableRecord
  2
GENIUS_GENSCREG_15
 70
     0
  0
APPID
  5
93B
330
9
100
AcDbSymbolTableRecord
100
AcDbRegAppTableRecord
  2
GENIUS_GENOBJ-N-SDF_13
 70
     0
  0
APPID
  5
93C
330
9
100
AcDbSymbolTableRecord
100
AcDbRegAppTableRecord
  2
GENIUS_GENODEF_13
 70
     0
  0
APPID
  5
93D
330
9
100
AcDbSymbolTableRecord
100
AcDbRegAppTableRecord
  2
QUANTUM
 70
     0
  0
APPID
  5
93E
330
9
100
AcDbSymbolTableRecord
100
AcDbRegAppTableRecord
  2
GENIUS_GENCFG_13
 70
     0
1001
GENIUS_GE3CFG0_13
1000
GE3
1001
GENIUS_GENCFG0_13
1000
GEN@INFO_POS@XLATE
1001
GENIUS_GENCFG1_13
1000
GEN@INFO_POS
1001
GENIUS_GENCFG2_13
1000
GEN@LAYER@DEFS
1001
GENIUS_GENCFG3_13
1000
GEN@LAYER@ENTSORT
1001
GENIUS_GENCFG4_13
1000
GEN
1001
GENIUS_GEVCFG0_13
1000
GEV
  0
APPID
  5
93F
330
9
100
AcDbSymbolTableRecord
100
AcDbRegAppTableRecord
  2
GENIUS_GE3CFG0_13
 70
     0
1001
GENIUS_GENCFG_13
1071
931430709
1000
28C
1000
GE3
1070
     2
1000
GenCfgObject
1000
GenCfgShort
1000
Dimension
1070
     0
1002
{
1000
RefDimEnhance
1070
     1
1070
     1
1002
{
1002
}
1000
RefDim
1070
     0
1002
{
1000
DIMCLRD
1070
     1
1070
     4
1002
{
1002
}
1002
}
1002
}
1000
Drawing
1070
     0
1002
{
1000
MSpace3D
1070
     1
1070
     1
1002
{
1002
}
1000
UpdateList
1070
     1
1070
     1
1002
{
1002
}
1002
}
1000
Shaft
1070
     0
1002
{
1002
}
1000
View
1070
     0
1002
{
1002
}
  0
APPID
  5
940
330
9
100
AcDbSymbolTableRecord
100
AcDbRegAppTableRecord
  2
GENIUS_GENCFG0_13
 70
     0
1001
GENIUS_GENCFG_13
1071
931430709
1000
28D
1000
GEN@INFO_POS@XLATE
1070
     7
1000
GenCfgObject
1000
GenCfgShort
1000
GenCfgReal
1000
GenCfgBool
1000
GenCfgString
1000
GenCfgDim
1000
GenCfgAttrInf
1000
ACADM_BOM
1070
     0
1002
{
1000
ACADM_BOM1
1070
     0
1002
{
1000
ITEM
1070
     4
1000
1
1002
{
1002
}
1000
QTY
1070
     4
1000
2
1002
{
1002
}
1000
PALINAME
1070
     4
1000
3
1002
{
1002
}
1000
DESCR
1070
     4
1000
5
1002
{
1002
}
1000
STANDARD
1070
     4
1000
7
1002
{
1002
}
1000
MATERIAL
1070
     4
1000
9
1002
{
1002
}
1000
MASS
1070
     4
1000
12
1002
{
1002
}
1000
NOTE
1070
     4
1000
24
1002
{
1002
}
1000
VENDOR
1070
     4
1000
25
1002
{
1002
}
1000
NAME
1070
     4
1000
28
1002
{
1002
}
1002
}
1002
}
1000
INFOPOINTS
1070
     0
1002
{
1000
GENINF14
1070
     0
1002
{
1000
2GENINF
1070
     4
1000
2
1002
{
1002
}
1000
3GENINF
1070
     4
1000
3
1002
{
1002
}
1000
4GENINF
1070
     4
1000
4
1002
{
1002
}
1000
5GENINF
1070
     4
1000
5
1002
{
1002
}
1000
6GENINF
1070
     4
1000
6
1002
{
1002
}
1000
7GENINF
1070
     4
1000
7
1002
{
1002
}
1000
8GENINF
1070
     4
1000
8
1002
{
1002
}
1000
9GENINF
1070
     4
1000
9
1002
{
1002
}
1000
10GENINF
1070
     4
1000
10
1002
{
1002
}
1000
11GENINF
1070
     4
1000
11
1002
{
1002
}
1000
12GENINF
1070
     4
1000
12
1002
{
1002
}
1000
13GENINF
1070
     4
1000
13
1002
{
1002
}
1000
14GENINF
1070
     4
1000
14
1002
{
1002
}
1000
15GENINF
1070
     4
1000
15
1002
{
1002
}
1000
16GENINF
1070
     4
1000
16
1002
{
1002
}
1000
17GENINF
1070
     4
1000
17
1002
{
1002
}
1000
18GENINF
1070
     4
1000
18
1002
{
1002
}
1000
19GENINF
1070
     4
1000
19
1002
{
1002
}
1000
20GENINF
1070
     4
1000
20
1002
{
1002
}
1000
21GENINF
1070
     4
1000
21
1002
{
1002
}
1000
22GENINF
1070
     4
1000
22
1002
{
1002
}
1000
23GENINF
1070
     4
1000
23
1002
{
1002
}
1000
24GENINF
1070
     4
1000
24
1002
{
1002
}
1000
25GENINF
1070
     4
1000
25
1002
{
1002
}
1000
26GENINF
1070
     4
1000
26
1002
{
1002
}
1000
27GENINF
1070
     4
1000
27
1002
{
1002
}
1000
0GENINF
1070
     4
1000
0
1002
{
1002
}
1002
}
1000
GENINF13
1070
     0
1002
{
1000
2GENINF
1070
     4
1000
2
1002
{
1002
}
1000
3GENINF
1070
     4
1000
3
1002
{
1002
}
1000
4GENINF
1070
     4
1000
4
1002
{
1002
}
1000
5GENINF
1070
     4
1000
5
1002
{
1002
}
1000
6GENINF
1070
     4
1000
6
1002
{
1002
}
1000
7GENINF
1070
     4
1000
7
1002
{
1002
}
1000
8GENINF
1070
     4
1000
8
1002
{
1002
}
1000
9GENINF
1070
     4
1000
9
1002
{
1002
}
1000
10GENINF
1070
     4
1000
10
1002
{
1002
}
1000
11GENINF
1070
     4
1000
11
1002
{
1002
}
1000
12GENINF
1070
     4
1000
12
1002
{
1002
}
1000
13GENINF
1070
     4
1000
13
1002
{
1002
}
1000
14GENINF
1070
     4
1000
14
1002
{
1002
}
1000
15GENINF
1070
     4
1000
15
1002
{
1002
}
1000
16GENINF
1070
     4
1000
16
1002
{
1002
}
1000
17GENINF
1070
     4
1000
17
1002
{
1002
}
1000
18GENINF
1070
     4
1000
18
1002
{
1002
}
1000
19GENINF
1070
     4
1000
19
1002
{
1002
}
1000
20GENINF
1070
     4
1000
20
1002
{
1002
}
1000
21GENINF
1070
     4
1000
21
1002
{
1002
}
1000
22GENINF
1070
     4
1000
22
1002
{
1002
}
1000
23GENINF
1070
     4
1000
23
1002
{
1002
}
1000
24GENINF
1070
     4
1000
24
1002
{
1002
}
1000
0GENINF
1070
     4
1000
0
1002
{
1002
}
1002
}
1000
GENINFO
1070
     0
1002
{
1000
3GENINF
1070
     4
1000
3
1002
{
1002
}
1000
4GENINF
1070
     4
1000
4
1002
{
1002
}
1000
5GENINF
1070
     4
1000
5
1002
{
1002
}
1000
6GENINF
1070
     4
1000
6
1002
{
1002
}
1000
7GENINF
1070
     4
1000
7
1002
{
1002
}
1000
8GENINF
1070
     4
1000
8
1002
{
1002
}
1000
9GENINF
1070
     4
1000
9
1002
{
1002
}
1000
10GENINF
1070
     4
1000
10
1002
{
1002
}
1000
11GENINF
1070
     4
1000
11
1002
{
1002
}
1000
12GENINF
1070
     4
1000
12
1002
{
1002
}
1000
13GENINF
1070
     4
1000
13
1002
{
1002
}
1000
14GENINF
1070
     4
1000
14
1002
{
1002
}
1000
15GENINF
1070
     4
1000
15
1002
{
1002
}
1000
16GENINF
1070
     4
1000
16
1002
{
1002
}
1000
17GENINF
1070
     4
1000
17
1002
{
1002
}
1000
18GENINF
1070
     4
1000
18
1002
{
1002
}
1000
19GENINF
1070
     4
1000
19
1002
{
1002
}
1000
20GENINF
1070
     4
1000
20
1002
{
1002
}
1000
21GENINF
1070
     4
1000
21
1002
{
1002
}
1000
22GENINF
1070
     4
1000
22
1002
{
1002
}
1002
}
1000
DININFO
1070
     0
1002
{
1000
ST-NAME1
1070
     4
1000
5
1002
{
1002
}
1000
ST-NAME2
1070
     4
1000
6
1002
{
1002
}
1000
ST-NORM1
1070
     4
1000
7
1002
{
1002
}
1000
ST-NORM2
1070
     4
1000
8
1002
{
1002
}
1000
ST-MAT1
1070
     4
1000
9
1002
{
1002
}
1000
ST-MAT2
1070
     4
1000
10
1002
{
1002
}
1002
}
1002
}
1000
POS_NUMBERS
1070
     0
1002
{
1000
GENPOS14
1070
     0
1002
{
1000
1GENPOS
1070
     4
1000
1
1002
{
1002
}
1000
2GENPOS
1070
     4
1000
2
1002
{
1002
}
1000
3GENPOS
1070
     4
1000
3
1002
{
1002
}
1000
4GENPOS
1070
     4
1000
4
1002
{
1002
}
1000
5GENPOS
1070
     4
1000
5
1002
{
1002
}
1000
6GENPOS
1070
     4
1000
6
1002
{
1002
}
1000
7GENPOS
1070
     4
1000
7
1002
{
1002
}
1000
8GENPOS
1070
     4
1000
8
1002
{
1002
}
1000
9GENPOS
1070
     4
1000
9
1002
{
1002
}
1000
10GENPOS
1070
     4
1000
10
1002
{
1002
}
1000
11GENPOS
1070
     4
1000
11
1002
{
1002
}
1000
12GENPOS
1070
     4
1000
12
1002
{
1002
}
1000
13GENPOS
1070
     4
1000
13
1002
{
1002
}
1000
14GENPOS
1070
     4
1000
14
1002
{
1002
}
1000
15GENPOS
1070
     4
1000
15
1002
{
1002
}
1000
16GENPOS
1070
     4
1000
16
1002
{
1002
}
1000
17GENPOS
1070
     4
1000
17
1002
{
1002
}
1000
18GENPOS
1070
     4
1000
18
1002
{
1002
}
1000
19GENPOS
1070
     4
1000
19
1002
{
1002
}
1000
20GENPOS
1070
     4
1000
20
1002
{
1002
}
1000
21GENPOS
1070
     4
1000
21
1002
{
1002
}
1000
22GENPOS
1070
     4
1000
22
1002
{
1002
}
1000
23GENPOS
1070
     4
1000
23
1002
{
1002
}
1000
24GENPOS
1070
     4
1000
24
1002
{
1002
}
1000
25GENPOS
1070
     4
1000
25
1002
{
1002
}
1000
26GENPOS
1070
     4
1000
26
1002
{
1002
}
1000
27GENPOS
1070
     4
1000
27
1002
{
1002
}
1000
0GENPOS
1070
     4
1000
0
1002
{
1002
}
1002
}
1000
GENPOS13
1070
     0
1002
{
1000
1GENPOS
1070
     4
1000
1
1002
{
1002
}
1000
2GENPOS
1070
     4
1000
2
1002
{
1002
}
1000
3GENPOS
1070
     4
1000
3
1002
{
1002
}
1000
4GENPOS
1070
     4
1000
4
1002
{
1002
}
1000
5GENPOS
1070
     4
1000
5
1002
{
1002
}
1000
6GENPOS
1070
     4
1000
6
1002
{
1002
}
1000
7GENPOS
1070
     4
1000
7
1002
{
1002
}
1000
8GENPOS
1070
     4
1000
8
1002
{
1002
}
1000
9GENPOS
1070
     4
1000
9
1002
{
1002
}
1000
10GENPOS
1070
     4
1000
10
1002
{
1002
}
1000
11GENPOS
1070
     4
1000
11
1002
{
1002
}
1000
12GENPOS
1070
     4
1000
12
1002
{
1002
}
1000
13GENPOS
1070
     4
1000
13
1002
{
1002
}
1000
14GENPOS
1070
     4
1000
14
1002
{
1002
}
1000
15GENPOS
1070
     4
1000
15
1002
{
1002
}
1000
16GENPOS
1070
     4
1000
16
1002
{
1002
}
1000
17GENPOS
1070
     4
1000
17
1002
{
1002
}
1000
18GENPOS
1070
     4
1000
18
1002
{
1002
}
1000
19GENPOS
1070
     4
1000
19
1002
{
1002
}
1000
20GENPOS
1070
     4
1000
20
1002
{
1002
}
1000
21GENPOS
1070
     4
1000
21
1002
{
1002
}
1000
22GENPOS
1070
     4
1000
22
1002
{
1002
}
1000
23GENPOS
1070
     4
1000
23
1002
{
1002
}
1000
24GENPOS
1070
     4
1000
24
1002
{
1002
}
1000
0GENPOS
1070
     4
1000
0
1002
{
1002
}
1002
}
1000
GENPOS
1070
     0
1002
{
1000
1GENPOS
1070
     4
1000
1
1002
{
1002
}
1000
2GENPOS
1070
     4
1000
2
1002
{
1002
}
1000
3GENPOS
1070
     4
1000
3
1002
{
1002
}
1000
4GENPOS
1070
     4
1000
4
1002
{
1002
}
1000
5GENPOS
1070
     4
1000
5
1002
{
1002
}
1000
6GENPOS
1070
     4
1000
6
1002
{
1002
}
1000
7GENPOS
1070
     4
1000
7
1002
{
1002
}
1000
8GENPOS
1070
     4
1000
8
1002
{
1002
}
1000
9GENPOS
1070
     4
1000
9
1002
{
1002
}
1000
10GENPOS
1070
     4
1000
10
1002
{
1002
}
1000
11GENPOS
1070
     4
1000
11
1002
{
1002
}
1000
12GENPOS
1070
     4
1000
12
1002
{
1002
}
1000
13GENPOS
1070
     4
1000
13
1002
{
1002
}
1000
14GENPOS
1070
     4
1000
14
1002
{
1002
}
1000
15GENPOS
1070
     4
1000
15
1002
{
1002
}
1000
16GENPOS
1070
     4
1000
16
1002
{
1002
}
1000
17GENPOS
1070
     4
1000
17
1002
{
1002
}
1000
18GENPOS
1070
     4
1000
18
1002
{
1002
}
1000
19GENPOS
1070
     4
1000
19
1002
{
1002
}
1000
20GENPOS
1070
     4
1000
20
1002
{
1002
}
1000
21GENPOS
1070
     4
1000
21
1002
{
1002
}
1000
22GENPOS
1070
     4
1000
22
1002
{
1002
}
1000
23GENPOS
1070
     4
1000
23
1002
{
1002
}
1002
}
1000
DIN985
1070
     0
1002
{
1000
POSITION
1070
     4
1000
1
1002
{
1002
}
1000
MENGE
1070
     4
1000
2
1002
{
1002
}
1000
BLATT
1070
     4
1000
3
1002
{
1002
}
1000
BENENN
1070
     4
1000
5
1002
{
1002
}
1000
BENENN2
1070
     4
1000
6
1002
{
1002
}
1000
NORM
1070
     4
1000
7
1002
{
1002
}
1000
NORM2
1070
     4
1000
8
1002
{
1002
}
1000
WERKSTOFF
1070
     4
1000
9
1002
{
1002
}
1000
WERKSTOFF2
1070
     4
1000
10
1002
{
1002
}
1002
}
1000
DIN986
1070
     0
1002
{
1000
POSITION
1070
     4
1000
1
1002
{
1002
}
1000
MENGE
1070
     4
1000
2
1002
{
1002
}
1000
BLATT
1070
     4
1000
3
1002
{
1002
}
1000
BENENN
1070
     4
1000
5
1002
{
1002
}
1000
BENENN2
1070
     4
1000
6
1002
{
1002
}
1000
NORM
1070
     4
1000
7
1002
{
1002
}
1000
NORM2
1070
     4
1000
8
1002
{
1002
}
1000
WERKSTOFF
1070
     4
1000
9
1002
{
1002
}
1000
WERKSTOFF2
1070
     4
1000
10
1002
{
1002
}
1002
}
1000
DIN987
1070
     0
1002
{
1000
POSITION
1070
     4
1000
1
1002
{
1002
}
1000
MENGE
1070
     4
1000
2
1002
{
1002
}
1000
BLATT
1070
     4
1000
3
1002
{
1002
}
1000
BENENN
1070
     4
1000
5
1002
{
1002
}
1000
BENENN2
1070
     4
1000
6
1002
{
1002
}
1000
NORM
1070
     4
1000
7
1002
{
1002
}
1000
NORM2
1070
     4
1000
8
1002
{
1002
}
1000
WERKSTOFF
1070
     4
1000
9
1002
{
1002
}
1000
WERKSTOFF2
1070
     4
1000
10
1002
{
1002
}
1002
}
1002
}
  0
APPID
  5
941
330
9
100
AcDbSymbolTableRecord
100
AcDbRegAppTableRecord
  2
GENIUS_GENCFG1_13
 70
     0
1001
GENIUS_GENCFG_13
1071
931430709
1000
28E
1000
GEN@INFO_POS
1070
     7
1000
GenCfgObject
1000
GenCfgShort
1000
GenCfgReal
1000
GenCfgBool
1000
GenCfgString
1000
GenCfgDim
1000
GenCfgAttrInf
1000
DescrText
1070
     4
1000
5, ,6, ,7, ,8
1002
{
1002
}
1000
DescrText2
1070
     4
1000
26
1002
{
1002
}
1000
VisibleAttr1
1070
     4
1000
1
1002
{
1002
}
1000
VisibleAttr2
1070
     4
1000
26
1002
{
1002
}
1000
UpdateBlock
1070
     3
1070
     1
1002
{
1002
}
1000
UsedAcadMBom
1070
     4
1000
ACADM_BOM1
1002
{
1002
}
1000
AutoUpdAcadMBom
1070
     3
1070
     1
1002
{
1002
}
1000
Attrib
1070
     0
1002
{
1000
0
1070
     6
1002
{
1000
Prompt
1070
     4
1000
(genmsg gendwg 103)
1002
{
1002
}
1000
Value
1070
     4
1000

1002
{
1002
}
1000
EditFlag
1070
     1
1070
     0
1002
{
1002
}
1000
PosInDDATTE
1070
     1
1070
    27
1002
{
1002
}
1000
FieldLen
1070
     1
1070
    -1
1002
{
1002
}
1002
}
1000
1
1070
     6
1002
{
1000
Prompt
1070
     4
1000
(genmsg gendwg 31)
1002
{
1002
}
1000
Value
1070
     4
1000
1
1002
{
1002
}
1000
EditFlag
1070
     1
1070
     1
1002
{
1002
}
1000
PosInDDATTE
1070
     1
1070
     1
1002
{
1002
}
1000
FieldLen
1070
     1
1070
    -1
1002
{
1002
}
1002
}
1000
2
1070
     6
1002
{
1000
Prompt
1070
     4
1000
(genmsg gendwg 32)
1002
{
1002
}
1000
Value
1070
     4
1000
1
1002
{
1002
}
1000
EditFlag
1070
     1
1070
     1
1002
{
1002
}
1000
PosInDDATTE
1070
     1
1070
     2
1002
{
1002
}
1000
FieldLen
1070
     1
1070
    -1
1002
{
1002
}
1002
}
1000
3
1070
     6
1002
{
1000
Prompt
1070
     4
1000
(genmsg gendwg 33)
1002
{
1002
}
1000
Value
1070
     4
1000

1002
{
1002
}
1000
EditFlag
1070
     1
1070
     1
1002
{
1002
}
1000
PosInDDATTE
1070
     1
1070
     3
1002
{
1002
}
1000
FieldLen
1070
     1
1070
    -1
1002
{
1002
}
1002
}
1000
4
1070
     6
1002
{
1000
Prompt
1070
     4
1000
(genmsg gendwg 34)
1002
{
1002
}
1000
Value
1070
     4
1000

1002
{
1002
}
1000
EditFlag
1070
     1
1070
     1
1002
{
1002
}
1000
PosInDDATTE
1070
     1
1070
     4
1002
{
1002
}
1000
FieldLen
1070
     1
1070
    -1
1002
{
1002
}
1002
}
1000
5
1070
     6
1002
{
1000
Prompt
1070
     4
1000
(genmsg gendwg 35)
1002
{
1002
}
1000
Value
1070
     4
1000

1002
{
1002
}
1000
EditFlag
1070
     1
1070
     1
1002
{
1002
}
1000
PosInDDATTE
1070
     1
1070
     5
1002
{
1002
}
1000
FieldLen
1070
     1
1070
    -1
1002
{
1002
}
1002
}
1000
6
1070
     6
1002
{
1000
Prompt
1070
     4
1000
(genmsg gendwg 36)
1002
{
1002
}
1000
Value
1070
     4
1000

1002
{
1002
}
1000
EditFlag
1070
     1
1070
     1
1002
{
1002
}
1000
PosInDDATTE
1070
     1
1070
     6
1002
{
1002
}
1000
FieldLen
1070
     1
1070
    -1
1002
{
1002
}
1002
}
1000
7
1070
     6
1002
{
1000
Prompt
1070
     4
1000
(genmsg gendwg 37)
1002
{
1002
}
1000
Value
1070
     4
1000

1002
{
1002
}
1000
EditFlag
1070
     1
1070
     1
1002
{
1002
}
1000
PosInDDATTE
1070
     1
1070
     7
1002
{
1002
}
1000
FieldLen
1070
     1
1070
    -1
1002
{
1002
}
1002
}
1000
8
1070
     6
1002
{
1000
Prompt
1070
     4
1000
(genmsg gendwg 38)
1002
{
1002
}
1000
Value
1070
     4
1000

1002
{
1002
}
1000
EditFlag
1070
     1
1070
     1
1002
{
1002
}
1000
PosInDDATTE
1070
     1
1070
     8
1002
{
1002
}
1000
FieldLen
1070
     1
1070
    -1
1002
{
1002
}
1002
}
1000
9
1070
     6
1002
{
1000
Prompt
1070
     4
1000
(genmsg gendwg 39)
1002
{
1002
}
1000
Value
1070
     4
1000

1002
{
1002
}
1000
EditFlag
1070
     1
1070
     1
1002
{
1002
}
1000
PosInDDATTE
1070
     1
1070
     9
1002
{
1002
}
1000
FieldLen
1070
     1
1070
    -1
1002
{
1002
}
1002
}
1000
10
1070
     6
1002
{
1000
Prompt
1070
     4
1000
(genmsg gendwg 40)
1002
{
1002
}
1000
Value
1070
     4
1000

1002
{
1002
}
1000
EditFlag
1070
     1
1070
     1
1002
{
1002
}
1000
PosInDDATTE
1070
     1
1070
    10
1002
{
1002
}
1000
FieldLen
1070
     1
1070
    -1
1002
{
1002
}
1002
}
1000
11
1070
     6
1002
{
1000
Prompt
1070
     4
1000
(genmsg gendwg 41)
1002
{
1002
}
1000
Value
1070
     4
1000

1002
{
1002
}
1000
EditFlag
1070
     1
1070
     1
1002
{
1002
}
1000
PosInDDATTE
1070
     1
1070
    11
1002
{
1002
}
1000
FieldLen
1070
     1
1070
    -1
1002
{
1002
}
1002
}
1000
12
1070
     6
1002
{
1000
Prompt
1070
     4
1000
(genmsg gendwg 42)
1002
{
1002
}
1000
Value
1070
     4
1000

1002
{
1002
}
1000
EditFlag
1070
     1
1070
     1
1002
{
1002
}
1000
PosInDDATTE
1070
     1
1070
    12
1002
{
1002
}
1000
FieldLen
1070
     1
1070
    -1
1002
{
1002
}
1002
}
1000
13
1070
     6
1002
{
1000
Prompt
1070
     4
1000
(genmsg gendwg 43)
1002
{
1002
}
1000
Value
1070
     4
1000

1002
{
1002
}
1000
EditFlag
1070
     1
1070
     1
1002
{
1002
}
1000
PosInDDATTE
1070
     1
1070
    13
1002
{
1002
}
1000
FieldLen
1070
     1
1070
    -1
1002
{
1002
}
1002
}
1000
14
1070
     6
1002
{
1000
Prompt
1070
     4
1000
(genmsg gendwg 44)
1002
{
1002
}
1000
Value
1070
     4
1000

1002
{
1002
}
1000
EditFlag
1070
     1
1070
     1
1002
{
1002
}
1000
PosInDDATTE
1070
     1
1070
    14
1002
{
1002
}
1000
FieldLen
1070
     1
1070
    -1
1002
{
1002
}
1002
}
1000
15
1070
     6
1002
{
1000
Prompt
1070
     4
1000
(genmsg gendwg 45)
1002
{
1002
}
1000
Value
1070
     4
1000

1002
{
1002
}
1000
EditFlag
1070
     1
1070
     1
1002
{
1002
}
1000
PosInDDATTE
1070
     1
1070
    15
1002
{
1002
}
1000
FieldLen
1070
     1
1070
    -1
1002
{
1002
}
1002
}
1000
16
1070
     6
1002
{
1000
Prompt
1070
     4
1000
(genmsg gendwg 46)
1002
{
1002
}
1000
Value
1070
     4
1000

1002
{
1002
}
1000
EditFlag
1070
     1
1070
     1
1002
{
1002
}
1000
PosInDDATTE
1070
     1
1070
    16
1002
{
1002
}
1000
FieldLen
1070
     1
1070
    -1
1002
{
1002
}
1002
}
1000
17
1070
     6
1002
{
1000
Prompt
1070
     4
1000
(genmsg gendwg 47)
1002
{
1002
}
1000
Value
1070
     4
1000

1002
{
1002
}
1000
EditFlag
1070
     1
1070
     1
1002
{
1002
}
1000
PosInDDATTE
1070
     1
1070
    17
1002
{
1002
}
1000
FieldLen
1070
     1
1070
    -1
1002
{
1002
}
1002
}
1000
18
1070
     6
1002
{
1000
Prompt
1070
     4
1000
(genmsg gendwg 48)
1002
{
1002
}
1000
Value
1070
     4
1000

1002
{
1002
}
1000
EditFlag
1070
     1
1070
     1
1002
{
1002
}
1000
PosInDDATTE
1070
     1
1070
    18
1002
{
1002
}
1000
FieldLen
1070
     1
1070
    -1
1002
{
1002
}
1002
}
1000
19
1070
     6
1002
{
1000
Prompt
1070
     4
1000
(genmsg gendwg 99)
1002
{
1002
}
1000
Value
1070
     4
1000

1002
{
1002
}
1000
EditFlag
1070
     1
1070
     1
1002
{
1002
}
1000
PosInDDATTE
1070
     1
1070
    19
1002
{
1002
}
1000
FieldLen
1070
     1
1070
    -1
1002
{
1002
}
1002
}
1000
20
1070
     6
1002
{
1000
Prompt
1070
     4
1000
(genmsg gendwg 100)
1002
{
1002
}
1000
Value
1070
     4
1000

1002
{
1002
}
1000
EditFlag
1070
     1
1070
     1
1002
{
1002
}
1000
PosInDDATTE
1070
     1
1070
    20
1002
{
1002
}
1000
FieldLen
1070
     1
1070
    -1
1002
{
1002
}
1002
}
1000
21
1070
     6
1002
{
1000
Prompt
1070
     4
1000
(genmsg gendwg 101)
1002
{
1002
}
1000
Value
1070
     4
1000

1002
{
1002
}
1000
EditFlag
1070
     1
1070
     1
1002
{
1002
}
1000
PosInDDATTE
1070
     1
1070
    21
1002
{
1002
}
1000
FieldLen
1070
     1
1070
    -1
1002
{
1002
}
1002
}
1000
22
1070
     6
1002
{
1000
Prompt
1070
     4
1000
(genmsg gendwg 102)
1002
{
1002
}
1000
Value
1070
     4
1000

1002
{
1002
}
1000
EditFlag
1070
     1
1070
     1
1002
{
1002
}
1000
PosInDDATTE
1070
     1
1070
    22
1002
{
1002
}
1000
FieldLen
1070
     1
1070
    -1
1002
{
1002
}
1002
}
1000
23
1070
     6
1002
{
1000
Prompt
1070
     4
1000
(genmsg gendwg 30)
1002
{
1002
}
1000
Value
1070
     4
1000

1002
{
1002
}
1000
EditFlag
1070
     1
1070
     1
1002
{
1002
}
1000
PosInDDATTE
1070
     1
1070
    23
1002
{
1002
}
1000
FieldLen
1070
     1
1070
    -1
1002
{
1002
}
1002
}
1000
24
1070
     6
1002
{
1000
Prompt
1070
     4
1000
(genmsg gendwg 104)
1002
{
1002
}
1000
Value
1070
     4
1000

1002
{
1002
}
1000
EditFlag
1070
     1
1070
     1
1002
{
1002
}
1000
PosInDDATTE
1070
     1
1070
    24
1002
{
1002
}
1000
FieldLen
1070
     1
1070
    -1
1002
{
1002
}
1002
}
1000
25
1070
     6
1002
{
1000
Prompt
1070
     4
1000
(genmsg gendwg 105)
1002
{
1002
}
1000
Value
1070
     4
1000

1002
{
1002
}
1000
EditFlag
1070
     1
1070
     1
1002
{
1002
}
1000
PosInDDATTE
1070
     1
1070
    25
1002
{
1002
}
1000
FieldLen
1070
     1
1070
    -1
1002
{
1002
}
1002
}
1000
26
1070
     6
1002
{
1000
Prompt
1070
     4
1000
(genmsg gendwg 106)
1002
{
1002
}
1000
Value
1070
     4
1000

1002
{
1002
}
1000
EditFlag
1070
     1
1070
     1
1002
{
1002
}
1000
PosInDDATTE
1070
     1
1070
    26
1002
{
1002
}
1000
FieldLen
1070
     1
1070
    -1
1002
{
1002
}
1002
}
1000
27
1070
     6
1002
{
1000
Prompt
1070
     4
1000
(genmsg gendwg 109)
1002
{
1002
}
1000
Value
1070
     4
1000

1002
{
1002
}
1000
EditFlag
1070
     1
1070
     2
1002
{
1002
}
1000
PosInDDATTE
1070
     1
1070
    27
1002
{
1002
}
1000
FieldLen
1070
     1
1070
    -1
1002
{
1002
}
1002
}
1000
28
1070
     6
1002
{
1000
Prompt
1070
     4
1000
(genmsg gendwg 110)
1002
{
1002
}
1000
Value
1070
     4
1000

1002
{
1002
}
1000
EditFlag
1070
     1
1070
     1
1002
{
1002
}
1000
PosInDDATTE
1070
     1
1070
    28
1002
{
1002
}
1000
FieldLen
1070
     1
1070
    -1
1002
{
1002
}
1002
}
1002
}
1000
Xlate
1070
     0
1002
{
1000
>
1002
}
  0
APPID
  5
942
330
9
100
AcDbSymbolTableRecord
100
AcDbRegAppTableRecord
  2
GENIUS_GENCFG2_13
 70
     0
1001
GENIUS_GENCFG_13
1071
931430709
1000
28F
1000
GEN@LAYER@DEFS
1070
     9
1000
GenCfgObject
1000
GenCfgShort
1000
GenCfgReal
1000
GenCfgBool
1000
GenCfgString
1000
GenCfgDim
1000
GenCfgAttrInf
1000
GenCfgLaySection
1000
GenCfgLayer
1000
Basic
1070
     0
1002
{
1000
0
1070
     8
1000
0
1002
{
1000
Color
1070
     1
1070
     7
1002
{
1002
}
1000
LType
1070
     4
1000
CONTINUOUS
1002
{
1002
}
1000
Base
1070
     3
1070
     0
1002
{
1002
}
1002
}
1000
1
1070
     8
1000
1
1002
{
1000
Color
1070
     1
1070
    14
1002
{
1002
}
1000
LType
1070
     4
1000
CONTINUOUS
1002
{
1002
}
1000
Base
1070
     3
1070
     0
1002
{
1002
}
1002
}
1000
2
1070
     8
1000
2
1002
{
1000
Color
1070
     1
1070
     5
1002
{
1002
}
1000
LType
1070
     4
1000
CONTINUOUS
1002
{
1002
}
1000
Base
1070
     3
1070
     0
1002
{
1002
}
1002
}
1000
3
1070
     8
1000
3
1002
{
1000
Color
1070
     1
1070
     6
1002
{
1002
}
1000
LType
1070
     4
1000
GEN3
1002
{
1002
}
1000
Base
1070
     3
1070
     0
1002
{
1002
}
1002
}
1000
4
1070
     8
1000
4
1002
{
1000
Color
1070
     1
1070
     3
1002
{
1002
}
1000
LType
1070
     4
1000
CONTINUOUS
1002
{
1002
}
1000
Base
1070
     3
1070
     0
1002
{
1002
}
1002
}
1000
5
1070
     8
1000
5
1002
{
1000
Color
1070
     1
1070
     3
1002
{
1002
}
1000
LType
1070
     4
1000
CONTINUOUS
1002
{
1002
}
1000
Base
1070
     3
1070
     0
1002
{
1002
}
1002
}
1000
6
1070
     8
1000
6
1002
{
1000
Color
1070
     1
1070
     2
1002
{
1002
}
1000
LType
1070
     4
1000
CONTINUOUS
1002
{
1002
}
1000
Base
1070
     3
1070
     0
1002
{
1002
}
1002
}
1000
7
1070
     8
1000
7
1002
{
1000
Color
1070
     1
1070
     4
1002
{
1002
}
1000
LType
1070
     4
1000
GEN7
1002
{
1002
}
1000
Base
1070
     3
1070
     0
1002
{
1002
}
1002
}
1000
8
1070
     8
1000
8
1002
{
1000
Color
1070
     1
1070
     1
1002
{
1002
}
1000
LType
1070
     4
1000
CONTINUOUS
1002
{
1002
}
1000
Base
1070
     3
1070
     0
1002
{
1002
}
1002
}
1000
3A
1070
     8
1000
3A
1002
{
1000
Color
1070
     1
1070
     6
1002
{
1002
}
1000
LType
1070
     4
1000
GEN3A
1002
{
1002
}
1000
Base
1070
     3
1070
     0
1002
{
1002
}
1002
}
1000
7A
1070
     8
1000
7A
1002
{
1000
Color
1070
     1
1070
     4
1002
{
1002
}
1000
LType
1070
     4
1000
GEN7A
1002
{
1002
}
1000
Base
1070
     3
1070
     0
1002
{
1002
}
1002
}
1000
2A
1070
     8
1000
2A
1002
{
1000
Color
1070
     1
1070
     7
1002
{
1002
}
1000
LType
1070
     4
1000
GEN7
1002
{
1002
}
1000
Base
1070
     3
1070
     0
1002
{
1002
}
1002
}
1000
4A
1070
     8
1000
4A
1002
{
1000
Color
1070
     1
1070
     3
1002
{
1002
}
1000
LType
1070
     4
1000
GEN4A
1002
{
1002
}
1000
Base
1070
     3
1070
     0
1002
{
1002
}
1002
}
1000
9
1070
     8
1000
9
1002
{
1000
Color
1070
     1
1070
   253
1002
{
1002
}
1000
LType
1070
     4
1000
CONTINUOUS
1002
{
1002
}
1000
Base
1070
     3
1070
     0
1002
{
1002
}
1002
}
1000
IP
1070
     8
1000
IP
1002
{
1000
Color
1070
     1
1070
     7
1002
{
1002
}
1000
LType
1070
     4
1000
CONTINUOUS
1002
{
1002
}
1000
Base
1070
     3
1070
     0
1002
{
1002
}
1002
}
1002
}
1000
Standard
1070
     0
1002
{
1000
0N
1070
     8
1000
0N
1002
{
1000
Color
1070
     1
1070
     7
1002
{
1002
}
1000
LType
1070
     4
1000
CONTINUOUS
1002
{
1002
}
1000
Base
1070
     3
1070
     0
1002
{
1002
}
1002
}
1000
1N
1070
     8
1000
1N
1002
{
1000
Color
1070
     1
1070
    14
1002
{
1002
}
1000
LType
1070
     4
1000
CONTINUOUS
1002
{
1002
}
1000
Base
1070
     3
1070
     0
1002
{
1002
}
1002
}
1000
2N
1070
     8
1000
2N
1002
{
1000
Color
1070
     1
1070
     5
1002
{
1002
}
1000
LType
1070
     4
1000
CONTINUOUS
1002
{
1002
}
1000
Base
1070
     3
1070
     0
1002
{
1002
}
1002
}
1000
3N
1070
     8
1000
3N
1002
{
1000
Color
1070
     1
1070
     6
1002
{
1002
}
1000
LType
1070
     4
1000
GEN3
1002
{
1002
}
1000
Base
1070
     3
1070
     0
1002
{
1002
}
1002
}
1000
4N
1070
     8
1000
4N
1002
{
1000
Color
1070
     1
1070
     3
1002
{
1002
}
1000
LType
1070
     4
1000
CONTINUOUS
1002
{
1002
}
1000
Base
1070
     3
1070
     0
1002
{
1002
}
1002
}
1000
5N
1070
     8
1000
5N
1002
{
1000
Color
1070
     1
1070
     3
1002
{
1002
}
1000
LType
1070
     4
1000
CONTINUOUS
1002
{
1002
}
1000
Base
1070
     3
1070
     0
1002
{
1002
}
1002
}
1000
6N
1070
     8
1000
6N
1002
{
1000
Color
1070
     1
1070
     2
1002
{
1002
}
1000
LType
1070
     4
1000
CONTINUOUS
1002
{
1002
}
1000
Base
1070
     3
1070
     0
1002
{
1002
}
1002
}
1000
7N
1070
     8
1000
7N
1002
{
1000
Color
1070
     1
1070
     4
1002
{
1002
}
1000
LType
1070
     4
1000
GEN7
1002
{
1002
}
1000
Base
1070
     3
1070
     0
1002
{
1002
}
1002
}
1000
8N
1070
     8
1000
8N
1002
{
1000
Color
1070
     1
1070
     1
1002
{
1002
}
1000
LType
1070
     4
1000
CONTINUOUS
1002
{
1002
}
1000
Base
1070
     3
1070
     0
1002
{
1002
}
1002
}
1000
3AN
1070
     8
1000
3AN
1002
{
1000
Color
1070
     1
1070
     6
1002
{
1002
}
1000
LType
1070
     4
1000
GEN3A
1002
{
1002
}
1000
Base
1070
     3
1070
     0
1002
{
1002
}
1002
}
1000
7AN
1070
     8
1000
7AN
1002
{
1000
Color
1070
     1
1070
     4
1002
{
1002
}
1000
LType
1070
     4
1000
GEN7A
1002
{
1002
}
1000
Base
1070
     3
1070
     0
1002
{
1002
}
1002
}
1000
2AN
1070
     8
1000
2AN
1002
{
1000
Color
1070
     1
1070
     7
1002
{
1002
}
1000
LType
1070
     4
1000
GEN7
1002
{
1002
}
1000
Base
1070
     3
1070
     0
1002
{
1002
}
1002
}
1000
4AN
1070
     8
1000
4AN
1002
{
1000
Color
1070
     1
1070
     3
1002
{
1002
}
1000
LType
1070
     4
1000
GEN4A
1002
{
1002
}
1000
Base
1070
     3
1070
     0
1002
{
1002
}
1002
}
1000
9N
1070
     8
1000
9N
1002
{
1000
Color
1070
     1
1070
   253
1002
{
1002
}
1000
LType
1070
     4
1000
CONTINUOUS
1002
{
1002
}
1000
Base
1070
     3
1070
     0
1002
{
1002
}
1002
}
1000
IPN
1070
     8
1000
IPN
1002
{
1000
Color
1070
     1
1070
     7
1002
{
1002
}
1000
LType
1070
     4
1000
CONTINUOUS
1002
{
1002
}
1000
Base
1070
     3
1070
     0
1002
{
1002
}
1002
}
1002
}
1000
Extra
1070
     0
1002
{
1000
Klin
1070
     8
1000
KLIN
1002
{
1000
Color
1070
     1
1070
     1
1002
{
1002
}
1000
LType
1070
     4
1000
CONTINUOUS
1002
{
1002
}
1000
Base
1070
     3
1070
     1
1002
{
1002
}
1002
}
1000
Info
1070
     8
1000
INFO
1002
{
1000
Color
1070
     1
1070
     4
1002
{
1002
}
1000
LType
1070
     4
1000
CONTINUOUS
1002
{
1002
}
1000
Base
1070
     3
1070
     1
1002
{
1002
}
1002
}
1000
Rahm2
1070
     8
1000
RAHM2
1002
{
1000
Color
1070
     1
1070
     1
1002
{
1002
}
1000
LType
1070
     4
1000
CONTINUOUS
1002
{
1002
}
1000
Base
1070
     3
1070
     1
1002
{
1002
}
1002
}
1000
Rahm3
1070
     8
1000
RAHM3
1002
{
1000
Color
1070
     1
1070
     2
1002
{
1002
}
1000
LType
1070
     4
1000
CONTINUOUS
1002
{
1002
}
1000
Base
1070
     3
1070
     1
1002
{
1002
}
1002
}
1000
Rahm5
1070
     8
1000
RAHM5
1002
{
1000
Color
1070
     1
1070
     7
1002
{
1002
}
1000
LType
1070
     4
1000
CONTINUOUS
1002
{
1002
}
1000
Base
1070
     3
1070
     1
1002
{
1002
}
1002
}
1000
View
1070
     8
1000
VIEW
1002
{
1000
Color
1070
     1
1070
     1
1002
{
1002
}
1000
LType
1070
     4
1000
CONTINUOUS
1002
{
1002
}
1000
Base
1070
     3
1070
     1
1002
{
1002
}
1002
}
1000
Behind
1070
     8
1000
BEHIND
1002
{
1000
Color
1070
     1
1070
   253
1002
{
1002
}
1000
LType
1070
     4
1000
CONTINUOUS
1002
{
1002
}
1000
Base
1070
     3
1070
     1
1002
{
1002
}
1002
}
1002
}
  0
APPID
  5
943
330
9
100
AcDbSymbolTableRecord
100
AcDbRegAppTableRecord
  2
GENIUS_GENCFG3_13
 70
     0
1001
GENIUS_GENCFG_13
1071
931430709
1000
290
1000
GEN@LAYER@ENTSORT
1070
    10
1000
GenCfgObject
1000
GenCfgShort
1000
GenCfgReal
1000
GenCfgBool
1000
GenCfgString
1000
GenCfgDim
1000
GenCfgAttrInf
1000
GenCfgLaySection
1000
GenCfgLayer
1000
GenCfgEntSort
1000
ADDL
1070
     9
1000
5
1002
{
1000
Class
1070
     4
1000
SYM
1002
{
1002
}
1000
Color
1070
     1
1070
     1
1002
{
1002
}
1000
LType
1070
     4
1000
BYLAYER
1002
{
1002
}
1002
}
1000
ALTR
1070
     9
1000
4
1002
{
1000
Class
1070
     4
1000

1002
{
1002
}
1000
Color
1070
     1
1070
     7
1002
{
1002
}
1000
LType
1070
     4
1000
GEN3A
1002
{
1002
}
1002
}
1000
BELI
1070
     9
1000
4
1002
{
1000
Class
1070
     4
1000

1002
{
1002
}
1000
Color
1070
     1
1070
   256
1002
{
1002
}
1000
LType
1070
     4
1000
BYLAYER
1002
{
1002
}
1002
}
1000
BHNV
1070
     9
1000
9
1002
{
1000
Class
1070
     4
1000
INV
1002
{
1002
}
1000
Color
1070
     1
1070
   256
1002
{
1002
}
1000
LType
1070
     4
1000
BYLAYER
1002
{
1002
}
1002
}
1000
BHNVS
1070
     9
1000
BEHIND
1002
{
1000
Class
1070
     4
1000
INV
1002
{
1002
}
1000
Color
1070
     1
1070
   256
1002
{
1002
}
1000
LType
1070
     4
1000
BYLAYER
1002
{
1002
}
1002
}
1000
BLID
1070
     9
1000
4A
1002
{
1000
Class
1070
     4
1000

1002
{
1002
}
1000
Color
1070
     1
1070
   256
1002
{
1002
}
1000
LType
1070
     4
1000
BYLAYER
1002
{
1002
}
1002
}
1000
BOAP
1070
     9
1000
4A
1002
{
1000
Class
1070
     4
1000

1002
{
1002
}
1000
Color
1070
     1
1070
   256
1002
{
1002
}
1000
LType
1070
     4
1000
BYLAYER
1002
{
1002
}
1002
}
1000
BOR2
1070
     9
1000
RAHM2
1002
{
1000
Class
1070
     4
1000
SPZ,SYM
1002
{
1002
}
1000
Color
1070
     1
1070
   256
1002
{
1002
}
1000
LType
1070
     4
1000
BYLAYER
1002
{
1002
}
1002
}
1000
BOR3
1070
     9
1000
RAHM3
1002
{
1000
Class
1070
     4
1000
SPZ,SYM
1002
{
1002
}
1000
Color
1070
     1
1070
   256
1002
{
1002
}
1000
LType
1070
     4
1000
BYLAYER
1002
{
1002
}
1002
}
1000
BOR5
1070
     9
1000
RAHM5
1002
{
1000
Class
1070
     4
1000
SPZ,SYM
1002
{
1002
}
1000
Color
1070
     1
1070
   256
1002
{
1002
}
1000
LType
1070
     4
1000
BYLAYER
1002
{
1002
}
1002
}
1000
BOR7
1070
     9
1000
RAHM5
1002
{
1000
Class
1070
     4
1000
SPZ,SYM
1002
{
1002
}
1000
Color
1070
     1
1070
     7
1002
{
1002
}
1000
LType
1070
     4
1000
CONTINUOUS
1002
{
1002
}
1002
}
1000
BPAP
1070
     9
1000
4A
1002
{
1000
Class
1070
     4
1000

1002
{
1002
}
1000
Color
1070
     1
1070
   256
1002
{
1002
}
1000
LType
1070
     4
1000
BYLAYER
1002
{
1002
}
1002
}
1000
BPEX
1070
     9
1000
4A
1002
{
1000
Class
1070
     4
1000

1002
{
1002
}
1000
Color
1070
     1
1070
   256
1002
{
1002
}
1000
LType
1070
     4
1000
BYLAYER
1002
{
1002
}
1002
}
1000
BTDI
1070
     9
1000
5
1002
{
1000
Class
1070
     4
1000
DIM,SYM
1002
{
1002
}
1000
Color
1070
     1
1070
   256
1002
{
1002
}
1000
LType
1070
     4
1000
BYLAYER
1002
{
1002
}
1002
}
1000
CAL2
1070
     9
1000
4
1002
{
1000
Class
1070
     4
1000
SYM
1002
{
1002
}
1000
Color
1070
     1
1070
   256
1002
{
1002
}
1000
LType
1070
     4
1000
BYLAYER
1002
{
1002
}
1002
}
1000
CAL3
1070
     9
1000
4
1002
{
1000
Class
1070
     4
1000
SYM
1002
{
1002
}
1000
Color
1070
     1
1070
     2
1002
{
1002
}
1000
LType
1070
     4
1000
BYLAYER
1002
{
1002
}
1002
}
1000
CAL5
1070
     9
1000
4
1002
{
1000
Class
1070
     4
1000
SYM
1002
{
1002
}
1000
Color
1070
     1
1070
     7
1002
{
1002
}
1000
LType
1070
     4
1000
BYLAYER
1002
{
1002
}
1002
}
1000
CAL7
1070
     9
1000
4
1002
{
1000
Class
1070
     4
1000
SYM
1002
{
1002
}
1000
Color
1070
     1
1070
     5
1002
{
1002
}
1000
LType
1070
     4
1000
BYLAYER
1002
{
1002
}
1002
}
1000
CENN
1070
     9
1000
7A
1002
{
1000
Class
1070
     4
1000
CEN
1002
{
1002
}
1000
Color
1070
     1
1070
   256
1002
{
1002
}
1000
LType
1070
     4
1000
BYLAYER
1002
{
1002
}
1002
}
1000
CENW
1070
     9
1000
7
1002
{
1000
Class
1070
     4
1000
CEN
1002
{
1002
}
1000
Color
1070
     1
1070
   256
1002
{
1002
}
1000
LType
1070
     4
1000
BYLAYER
1002
{
1002
}
1002
}
1000
CLIN
1070
     9
1000
KLIN
1002
{
1000
Class
1070
     4
1000
SPZ
1002
{
1002
}
1000
Color
1070
     1
1070
   256
1002
{
1002
}
1000
LType
1070
     4
1000
BYLAYER
1002
{
1002
}
1002
}
1000
CON1
1070
     9
1000
0
1002
{
1000
Class
1070
     4
1000
CON,BGD
1002
{
1002
}
1000
Color
1070
     1
1070
   256
1002
{
1002
}
1000
LType
1070
     4
1000
BYLAYER
1002
{
1002
}
1002
}
1000
CON2
1070
     9
1000
1
1002
{
1000
Class
1070
     4
1000
CON,BGD
1002
{
1002
}
1000
Color
1070
     1
1070
   256
1002
{
1002
}
1000
LType
1070
     4
1000
BYLAYER
1002
{
1002
}
1002
}
1000
CON3
1070
     9
1000
2
1002
{
1000
Class
1070
     4
1000
CON,BGD
1002
{
1002
}
1000
Color
1070
     1
1070
   256
1002
{
1002
}
1000
LType
1070
     4
1000
BYLAYER
1002
{
1002
}
1002
}
1000
CON4
1070
     9
1000
2
1002
{
1000
Class
1070
     4
1000
CON,BGD
1002
{
1002
}
1000
Color
1070
     1
1070
   256
1002
{
1002
}
1000
LType
1070
     4
1000
BYLAYER
1002
{
1002
}
1002
}
1000
DERP
1070
     9
1000
4
1002
{
1000
Class
1070
     4
1000

1002
{
1002
}
1000
Color
1070
     1
1070
   256
1002
{
1002
}
1000
LType
1070
     4
1000
BYLAYER
1002
{
1002
}
1002
}
1000
DETA
1070
     9
1000
4
1002
{
1000
Class
1070
     4
1000

1002
{
1002
}
1000
Color
1070
     1
1070
   256
1002
{
1002
}
1000
LType
1070
     4
1000
BYLAYER
1002
{
1002
}
1002
}
1000
DIAG
1070
     9
1000
5
1002
{
1000
Class
1070
     4
1000
SYM
1002
{
1002
}
1000
Color
1070
     1
1070
   256
1002
{
1002
}
1000
LType
1070
     4
1000
BYLAYER
1002
{
1002
}
1002
}
1000
DILI
1070
     9
1000
5
1002
{
1000
Class
1070
     4
1000
DIM,SYM
1002
{
1002
}
1000
Color
1070
     1
1070
   256
1002
{
1002
}
1000
LType
1070
     4
1000
BYLAYER
1002
{
1002
}
1002
}
1000
DITO2
1070
     9
1000
5
1002
{
1000
Class
1070
     4
1000
DIM,SYM
1002
{
1002
}
1000
Color
1070
     1
1070
     3
1002
{
1002
}
1000
LType
1070
     4
1000
BYLAYER
1002
{
1002
}
1002
}
1000
DITO3
1070
     9
1000
5
1002
{
1000
Class
1070
     4
1000
DIM,SYM
1002
{
1002
}
1000
Color
1070
     1
1070
     2
1002
{
1002
}
1000
LType
1070
     4
1000
BYLAYER
1002
{
1002
}
1002
}
1000
DITX
1070
     9
1000
5
1002
{
1000
Class
1070
     4
1000
DIM,SYM
1002
{
1002
}
1000
Color
1070
     1
1070
     2
1002
{
1002
}
1000
LType
1070
     4
1000
CONTINUOUS
1002
{
1002
}
1002
}
1000
DIXL
1070
     9
1000
5
1002
{
1000
Class
1070
     4
1000
DIM,SYM
1002
{
1002
}
1000
Color
1070
     1
1070
   256
1002
{
1002
}
1000
LType
1070
     4
1000
BYLAYER
1002
{
1002
}
1002
}
1000
EXMP
1070
     9
1000
4A
1002
{
1000
Class
1070
     4
1000

1002
{
1002
}
1000
Color
1070
     1
1070
   256
1002
{
1002
}
1000
LType
1070
     4
1000
BYLAYER
1002
{
1002
}
1002
}
1000
FEMN
1070
     9
1000
8
1002
{
1000
Class
1070
     4
1000

1002
{
1002
}
1000
Color
1070
     1
1070
   256
1002
{
1002
}
1000
LType
1070
     4
1000
BYLAYER
1002
{
1002
}
1002
}
1000
FEMPN
1070
     9
1000
8
1002
{
1000
Class
1070
     4
1000
SYM
1002
{
1002
}
1000
Color
1070
     1
1070
     3
1002
{
1002
}
1000
LType
1070
     4
1000
BYLAYER
1002
{
1002
}
1002
}
1000
FEMSP
1070
     9
1000
4A
1002
{
1000
Class
1070
     4
1000

1002
{
1002
}
1000
Color
1070
     1
1070
   256
1002
{
1002
}
1000
LType
1070
     4
1000
CONTINUOUS
1002
{
1002
}
1002
}
1000
FEMST
1070
     9
1000
4A
1002
{
1000
Class
1070
     4
1000
SYM
1002
{
1002
}
1000
Color
1070
     1
1070
     3
1002
{
1002
}
1000
LType
1070
     4
1000
BYLAYER
1002
{
1002
}
1002
}
1000
FEMVN
1070
     9
1000
2
1002
{
1000
Class
1070
     4
1000
CON
1002
{
1002
}
1000
Color
1070
     1
1070
   256
1002
{
1002
}
1000
LType
1070
     4
1000
BYLAYER
1002
{
1002
}
1002
}
1000
FEMVT
1070
     9
1000
2
1002
{
1000
Class
1070
     4
1000
SYM
1002
{
1002
}
1000
Color
1070
     1
1070
     3
1002
{
1002
}
1000
LType
1070
     4
1000
BYLAYER
1002
{
1002
}
1002
}
1000
FLAT
1070
     9
1000
0
1002
{
1000
Class
1070
     4
1000

1002
{
1002
}
1000
Color
1070
     1
1070
   256
1002
{
1002
}
1000
LType
1070
     4
1000
BYLAYER
1002
{
1002
}
1002
}
1000
FRAR
1070
     9
1000
4A
1002
{
1000
Class
1070
     4
1000

1002
{
1002
}
1000
Color
1070
     1
1070
   256
1002
{
1002
}
1000
LType
1070
     4
1000
BYLAYER
1002
{
1002
}
1002
}
1000
GRLI
1070
     9
1000
5
1002
{
1000
Class
1070
     4
1000
SYM
1002
{
1002
}
1000
Color
1070
     1
1070
   256
1002
{
1002
}
1000
LType
1070
     4
1000
BYLAYER
1002
{
1002
}
1002
}
1000
GVLI
1070
     9
1000
4A
1002
{
1000
Class
1070
     4
1000

1002
{
1002
}
1000
Color
1070
     1
1070
   256
1002
{
1002
}
1000
LType
1070
     4
1000
BYLAYER
1002
{
1002
}
1002
}
1000
HATC
1070
     9
1000
8
1002
{
1000
Class
1070
     4
1000
HTC,BGD
1002
{
1002
}
1000
Color
1070
     1
1070
   256
1002
{
1002
}
1000
LType
1070
     4
1000
BYLAYER
1002
{
1002
}
1002
}
1000
HIDN
1070
     9
1000
3A
1002
{
1000
Class
1070
     4
1000
HID,BGD
1002
{
1002
}
1000
Color
1070
     1
1070
   256
1002
{
1002
}
1000
LType
1070
     4
1000
BYLAYER
1002
{
1002
}
1002
}
1000
HIDW
1070
     9
1000
3
1002
{
1000
Class
1070
     4
1000
HID,BGD
1002
{
1002
}
1000
Color
1070
     1
1070
   256
1002
{
1002
}
1000
LType
1070
     4
1000
BYLAYER
1002
{
1002
}
1002
}
1000
HLIN
1070
     9
1000
4
1002
{
1000
Class
1070
     4
1000
BGD
1002
{
1002
}
1000
Color
1070
     1
1070
   256
1002
{
1002
}
1000
LType
1070
     4
1000
BYLAYER
1002
{
1002
}
1002
}
1000
HOCN
1070
     9
1000
7A
1002
{
1000
Class
1070
     4
1000
CEN
1002
{
1002
}
1000
Color
1070
     1
1070
   256
1002
{
1002
}
1000
LType
1070
     4
1000
BYLAYER
1002
{
1002
}
1002
}
1000
HOCW
1070
     9
1000
7
1002
{
1000
Class
1070
     4
1000
CEN
1002
{
1002
}
1000
Color
1070
     1
1070
   256
1002
{
1002
}
1000
LType
1070
     4
1000
BYLAYER
1002
{
1002
}
1002
}
1000
INFO
1070
     9
1000
INFO
1002
{
1000
Class
1070
     4
1000
SPZ,SYM
1002
{
1002
}
1000
Color
1070
     1
1070
   256
1002
{
1002
}
1000
LType
1070
     4
1000
BYLAYER
1002
{
1002
}
1002
}
1000
LADI
1070
     9
1000
4
1002
{
1000
Class
1070
     4
1000
BGD
1002
{
1002
}
1000
Color
1070
     1
1070
   256
1002
{
1002
}
1000
LType
1070
     4
1000
BYLAYER
1002
{
1002
}
1002
}
1000
LEAD
1070
     9
1000
5
1002
{
1000
Class
1070
     4
1000
SYM
1002
{
1002
}
1000
Color
1070
     1
1070
   256
1002
{
1002
}
1000
LType
1070
     4
1000
BYLAYER
1002
{
1002
}
1002
}
1000
N_ADDL
1070
     9
1000
5N
1002
{
1000
Class
1070
     4
1000
SYM
1002
{
1002
}
1000
Color
1070
     1
1070
     1
1002
{
1002
}
1000
LType
1070
     4
1000
BYLAYER
1002
{
1002
}
1002
}
1000
N_BHNV
1070
     9
1000
9N
1002
{
1000
Class
1070
     4
1000
INV
1002
{
1002
}
1000
Color
1070
     1
1070
   256
1002
{
1002
}
1000
LType
1070
     4
1000
BYLAYER
1002
{
1002
}
1002
}
1000
N_CON1
1070
     9
1000
0N
1002
{
1000
Class
1070
     4
1000
CON,BGD
1002
{
1002
}
1000
Color
1070
     1
1070
   256
1002
{
1002
}
1000
LType
1070
     4
1000
BYLAYER
1002
{
1002
}
1002
}
1000
N_CON2
1070
     9
1000
1N
1002
{
1000
Class
1070
     4
1000
CON,BGD
1002
{
1002
}
1000
Color
1070
     1
1070
   256
1002
{
1002
}
1000
LType
1070
     4
1000
BYLAYER
1002
{
1002
}
1002
}
1000
N_CON3
1070
     9
1000
2N
1002
{
1000
Class
1070
     4
1000
CON,BGD
1002
{
1002
}
1000
Color
1070
     1
1070
   256
1002
{
1002
}
1000
LType
1070
     4
1000
BYLAYER
1002
{
1002
}
1002
}
1000
N_CON4
1070
     9
1000
2N
1002
{
1000
Class
1070
     4
1000
CON,BGD
1002
{
1002
}
1000
Color
1070
     1
1070
   256
1002
{
1002
}
1000
LType
1070
     4
1000
BYLAYER
1002
{
1002
}
1002
}
1000
N_CENN
1070
     9
1000
7AN
1002
{
1000
Class
1070
     4
1000
CEN
1002
{
1002
}
1000
Color
1070
     1
1070
   256
1002
{
1002
}
1000
LType
1070
     4
1000
BYLAYER
1002
{
1002
}
1002
}
1000
N_CENW
1070
     9
1000
7N
1002
{
1000
Class
1070
     4
1000
CEN
1002
{
1002
}
1000
Color
1070
     1
1070
   256
1002
{
1002
}
1000
LType
1070
     4
1000
BYLAYER
1002
{
1002
}
1002
}
1000
N_DILI
1070
     9
1000
5N
1002
{
1000
Class
1070
     4
1000
DIM,SYM
1002
{
1002
}
1000
Color
1070
     1
1070
   256
1002
{
1002
}
1000
LType
1070
     4
1000
BYLAYER
1002
{
1002
}
1002
}
1000
N_DITX
1070
     9
1000
5N
1002
{
1000
Class
1070
     4
1000
DIM,SYM
1002
{
1002
}
1000
Color
1070
     1
1070
     2
1002
{
1002
}
1000
LType
1070
     4
1000
CONTINUOUS
1002
{
1002
}
1002
}
1000
N_DIXL
1070
     9
1000
5N
1002
{
1000
Class
1070
     4
1000
DIM,SYM
1002
{
1002
}
1000
Color
1070
     1
1070
   256
1002
{
1002
}
1000
LType
1070
     4
1000
BYLAYER
1002
{
1002
}
1002
}
1000
N_HATC
1070
     9
1000
8N
1002
{
1000
Class
1070
     4
1000
HTC,BGD
1002
{
1002
}
1000
Color
1070
     1
1070
   256
1002
{
1002
}
1000
LType
1070
     4
1000
BYLAYER
1002
{
1002
}
1002
}
1000
N_HIDN
1070
     9
1000
3AN
1002
{
1000
Class
1070
     4
1000
HID,BGD
1002
{
1002
}
1000
Color
1070
     1
1070
   256
1002
{
1002
}
1000
LType
1070
     4
1000
BYLAYER
1002
{
1002
}
1002
}
1000
N_HIDW
1070
     9
1000
3N
1002
{
1000
Class
1070
     4
1000
HID,BGD
1002
{
1002
}
1000
Color
1070
     1
1070
   256
1002
{
1002
}
1000
LType
1070
     4
1000
BYLAYER
1002
{
1002
}
1002
}
1000
N_NGIP
1070
     9
1000
IPN
1002
{
1000
Class
1070
     4
1000

1002
{
1002
}
1000
Color
1070
     1
1070
   256
1002
{
1002
}
1000
LType
1070
     4
1000
BYLAYER
1002
{
1002
}
1002
}
1000
N_PHAN
1070
     9
1000
4AN
1002
{
1000
Class
1070
     4
1000

1002
{
1002
}
1000
Color
1070
     1
1070
   256
1002
{
1002
}
1000
LType
1070
     4
1000
BYLAYER
1002
{
1002
}
1002
}
1000
N_POSL
1070
     9
1000
5N
1002
{
1000
Class
1070
     4
1000
SYM
1002
{
1002
}
1000
Color
1070
     1
1070
   256
1002
{
1002
}
1000
LType
1070
     4
1000
BYLAYER
1002
{
1002
}
1002
}
1000
N_TCON
1070
     9
1000
0N
1002
{
1000
Class
1070
     4
1000
CON,BGD
1002
{
1002
}
1000
Color
1070
     1
1070
   256
1002
{
1002
}
1000
LType
1070
     4
1000
BYLAYER
1002
{
1002
}
1002
}
1000
N_THLI
1070
     9
1000
4N
1002
{
1000
Class
1070
     4
1000
BGD
1002
{
1002
}
1000
Color
1070
     1
1070
   256
1002
{
1002
}
1000
LType
1070
     4
1000
BYLAYER
1002
{
1002
}
1002
}
1000
N_TLEN
1070
     9
1000
0N
1002
{
1000
Class
1070
     4
1000
CON,BGD
1002
{
1002
}
1000
Color
1070
     1
1070
   256
1002
{
1002
}
1000
LType
1070
     4
1000
BYLAYER
1002
{
1002
}
1002
}
1000
N_TXT3
1070
     9
1000
6N
1002
{
1000
Class
1070
     4
1000
SYM
1002
{
1002
}
1000
Color
1070
     1
1070
   256
1002
{
1002
}
1000
LType
1070
     4
1000
BYLAYER
1002
{
1002
}
1002
}
1000
N_VPLI
1070
     9
1000
2AN
1002
{
1000
Class
1070
     4
1000

1002
{
1002
}
1000
Color
1070
     1
1070
   256
1002
{
1002
}
1000
LType
1070
     4
1000
BYLAYER
1002
{
1002
}
1002
}
1000
NGIP
1070
     9
1000
IP
1002
{
1000
Class
1070
     4
1000

1002
{
1002
}
1000
Color
1070
     1
1070
   256
1002
{
1002
}
1000
LType
1070
     4
1000
BYLAYER
1002
{
1002
}
1002
}
1000
PAL2
1070
     9
1000
RAHM2
1002
{
1000
Class
1070
     4
1000
SPZ,SYM
1002
{
1002
}
1000
Color
1070
     1
1070
   256
1002
{
1002
}
1000
LType
1070
     4
1000
BYLAYER
1002
{
1002
}
1002
}
1000
PAL3
1070
     9
1000
RAHM3
1002
{
1000
Class
1070
     4
1000
SPZ,SYM
1002
{
1002
}
1000
Color
1070
     1
1070
   256
1002
{
1002
}
1000
LType
1070
     4
1000
BYLAYER
1002
{
1002
}
1002
}
1000
PAL5
1070
     9
1000
RAHM5
1002
{
1000
Class
1070
     4
1000
SPZ,SYM
1002
{
1002
}
1000
Color
1070
     1
1070
   256
1002
{
1002
}
1000
LType
1070
     4
1000
BYLAYER
1002
{
1002
}
1002
}
1000
PAL7
1070
     9
1000
RAHM5
1002
{
1000
Class
1070
     4
1000
SPZ,SYM
1002
{
1002
}
1000
Color
1070
     1
1070
     7
1002
{
1002
}
1000
LType
1070
     4
1000
CONTINUOUS
1002
{
1002
}
1002
}
1000
PHAN
1070
     9
1000
4A
1002
{
1000
Class
1070
     4
1000

1002
{
1002
}
1000
Color
1070
     1
1070
   256
1002
{
1002
}
1000
LType
1070
     4
1000
BYLAYER
1002
{
1002
}
1002
}
1000
POSL
1070
     9
1000
5
1002
{
1000
Class
1070
     4
1000
SYM
1002
{
1002
}
1000
Color
1070
     1
1070
   256
1002
{
1002
}
1000
LType
1070
     4
1000
BYLAYER
1002
{
1002
}
1002
}
1000
POSN
1070
     9
1000
6
1002
{
1000
Class
1070
     4
1000
SYM
1002
{
1002
}
1000
Color
1070
     1
1070
     7
1002
{
1002
}
1000
LType
1070
     4
1000
BYLAYER
1002
{
1002
}
1002
}
1000
POSREF
1070
     9
1000
6
1002
{
1000
Class
1070
     4
1000
SYM
1002
{
1002
}
1000
Color
1070
     1
1070
     5
1002
{
1002
}
1000
LType
1070
     4
1000
BYLAYER
1002
{
1002
}
1002
}
1000
POSX
1070
     9
1000
5
1002
{
1000
Class
1070
     4
1000
SYM
1002
{
1002
}
1000
Color
1070
     1
1070
     2
1002
{
1002
}
1000
LType
1070
     4
1000
CONTINUOUS
1002
{
1002
}
1002
}
1000
PSEC
1070
     9
1000
4A
1002
{
1000
Class
1070
     4
1000

1002
{
1002
}
1000
Color
1070
     1
1070
   256
1002
{
1002
}
1000
LType
1070
     4
1000
BYLAYER
1002
{
1002
}
1002
}
1000
RCGN
1070
     9
1000
7A
1002
{
1000
Class
1070
     4
1000
CEN
1002
{
1002
}
1000
Color
1070
     1
1070
   256
1002
{
1002
}
1000
LType
1070
     4
1000
BYLAYER
1002
{
1002
}
1002
}
1000
RCGW
1070
     9
1000
7
1002
{
1000
Class
1070
     4
1000
CEN
1002
{
1002
}
1000
Color
1070
     1
1070
   256
1002
{
1002
}
1000
LType
1070
     4
1000
BYLAYER
1002
{
1002
}
1002
}
1000
RFDI
1070
     9
1000
4
1002
{
1000
Class
1070
     4
1000
BGD
1002
{
1002
}
1000
Color
1070
     1
1070
   256
1002
{
1002
}
1000
LType
1070
     4
1000
BYLAYER
1002
{
1002
}
1002
}
1000
RQTR
1070
     9
1000
4
1002
{
1000
Class
1070
     4
1000

1002
{
1002
}
1000
Color
1070
     1
1070
     7
1002
{
1002
}
1000
LType
1070
     4
1000
GEN7A
1002
{
1002
}
1002
}
1000
RSBO
1070
     9
1000
4
1002
{
1000
Class
1070
     4
1000
BGD
1002
{
1002
}
1000
Color
1070
     1
1070
   256
1002
{
1002
}
1000
LType
1070
     4
1000
BYLAYER
1002
{
1002
}
1002
}
1000
SBRK
1070
     9
1000
4
1002
{
1000
Class
1070
     4
1000
BGD
1002
{
1002
}
1000
Color
1070
     1
1070
   256
1002
{
1002
}
1000
LType
1070
     4
1000
BYLAYER
1002
{
1002
}
1002
}
1000
SCEN
1070
     9
1000
7
1002
{
1000
Class
1070
     4
1000

1002
{
1002
}
1000
Color
1070
     1
1070
   256
1002
{
1002
}
1000
LType
1070
     4
1000
CONTINUOUS
1002
{
1002
}
1002
}
1000
SECT
1070
     9
1000
4
1002
{
1000
Class
1070
     4
1000
BGD
1002
{
1002
}
1000
Color
1070
     1
1070
   256
1002
{
1002
}
1000
LType
1070
     4
1000
BYLAYER
1002
{
1002
}
1002
}
1000
SELN
1070
     9
1000
7A
1002
{
1000
Class
1070
     4
1000

1002
{
1002
}
1000
Color
1070
     1
1070
   256
1002
{
1002
}
1000
LType
1070
     4
1000
BYLAYER
1002
{
1002
}
1002
}
1000
SELW
1070
     9
1000
7
1002
{
1000
Class
1070
     4
1000

1002
{
1002
}
1000
Color
1070
     1
1070
   256
1002
{
1002
}
1000
LType
1070
     4
1000
BYLAYER
1002
{
1002
}
1002
}
1000
SSYS
1070
     9
1000
0
1002
{
1000
Class
1070
     4
1000

1002
{
1002
}
1000
Color
1070
     1
1070
   256
1002
{
1002
}
1000
LType
1070
     4
1000
BYLAYER
1002
{
1002
}
1002
}
1000
STLI
1070
     9
1000
4
1002
{
1000
Class
1070
     4
1000

1002
{
1002
}
1000
Color
1070
     1
1070
     7
1002
{
1002
}
1000
LType
1070
     4
1000
GEN3A
1002
{
1002
}
1002
}
1000
SYB1
1070
     9
1000
5
1002
{
1000
Class
1070
     4
1000
SYM
1002
{
1002
}
1000
Color
1070
     1
1070
   256
1002
{
1002
}
1000
LType
1070
     4
1000
BYLAYER
1002
{
1002
}
1002
}
1000
SYB2
1070
     9
1000
5
1002
{
1000
Class
1070
     4
1000
SYM
1002
{
1002
}
1000
Color
1070
     1
1070
   256
1002
{
1002
}
1000
LType
1070
     4
1000
BYLAYER
1002
{
1002
}
1002
}
1000
SYB3
1070
     9
1000
6
1002
{
1000
Class
1070
     4
1000
SYM
1002
{
1002
}
1000
Color
1070
     1
1070
   256
1002
{
1002
}
1000
LType
1070
     4
1000
CONTINUOUS
1002
{
1002
}
1002
}
1000
SYB5
1070
     9
1000
5
1002
{
1000
Class
1070
     4
1000
SYM
1002
{
1002
}
1000
Color
1070
     1
1070
     7
1002
{
1002
}
1000
LType
1070
     4
1000
BYLAYER
1002
{
1002
}
1002
}
1000
SYMN
1070
     9
1000
7A
1002
{
1000
Class
1070
     4
1000
CEN
1002
{
1002
}
1000
Color
1070
     1
1070
   256
1002
{
1002
}
1000
LType
1070
     4
1000
BYLAYER
1002
{
1002
}
1002
}
1000
SYMW
1070
     9
1000
7
1002
{
1000
Class
1070
     4
1000
CEN
1002
{
1002
}
1000
Color
1070
     1
1070
   256
1002
{
1002
}
1000
LType
1070
     4
1000
BYLAYER
1002
{
1002
}
1002
}
1000
TCON
1070
     9
1000
0
1002
{
1000
Class
1070
     4
1000
CON,BGD
1002
{
1002
}
1000
Color
1070
     1
1070
   256
1002
{
1002
}
1000
LType
1070
     4
1000
BYLAYER
1002
{
1002
}
1002
}
1000
THLI
1070
     9
1000
4
1002
{
1000
Class
1070
     4
1000
BGD
1002
{
1002
}
1000
Color
1070
     1
1070
   256
1002
{
1002
}
1000
LType
1070
     4
1000
BYLAYER
1002
{
1002
}
1002
}
1000
TIT2
1070
     9
1000
RAHM2
1002
{
1000
Class
1070
     4
1000
SPZ,SYM
1002
{
1002
}
1000
Color
1070
     1
1070
   256
1002
{
1002
}
1000
LType
1070
     4
1000
BYLAYER
1002
{
1002
}
1002
}
1000
TIT3
1070
     9
1000
RAHM3
1002
{
1000
Class
1070
     4
1000
SPZ,SYM
1002
{
1002
}
1000
Color
1070
     1
1070
   256
1002
{
1002
}
1000
LType
1070
     4
1000
BYLAYER
1002
{
1002
}
1002
}
1000
TIT5
1070
     9
1000
RAHM5
1002
{
1000
Class
1070
     4
1000
SPZ,SYM
1002
{
1002
}
1000
Color
1070
     1
1070
   256
1002
{
1002
}
1000
LType
1070
     4
1000
BYLAYER
1002
{
1002
}
1002
}
1000
TIT7
1070
     9
1000
RAHM5
1002
{
1000
Class
1070
     4
1000
SPZ,SYM
1002
{
1002
}
1000
Color
1070
     1
1070
     7
1002
{
1002
}
1000
LType
1070
     4
1000
CONTINUOUS
1002
{
1002
}
1002
}
1000
TLEN
1070
     9
1000
0
1002
{
1000
Class
1070
     4
1000
CON,BGD
1002
{
1002
}
1000
Color
1070
     1
1070
   256
1002
{
1002
}
1000
LType
1070
     4
1000
BYLAYER
1002
{
1002
}
1002
}
1000
TRKN
1070
     9
1000
7A
1002
{
1000
Class
1070
     4
1000

1002
{
1002
}
1000
Color
1070
     1
1070
   256
1002
{
1002
}
1000
LType
1070
     4
1000
BYLAYER
1002
{
1002
}
1002
}
1000
TRKW
1070
     9
1000
7
1002
{
1000
Class
1070
     4
1000

1002
{
1002
}
1000
Color
1070
     1
1070
   256
1002
{
1002
}
1000
LType
1070
     4
1000
BYLAYER
1002
{
1002
}
1002
}
1000
TRLI
1070
     9
1000
4
1002
{
1000
Class
1070
     4
1000
BGD
1002
{
1002
}
1000
Color
1070
     1
1070
   256
1002
{
1002
}
1000
LType
1070
     4
1000
BYLAYER
1002
{
1002
}
1002
}
1000
TXT1
1070
     9
1000
6
1002
{
1000
Class
1070
     4
1000
SYM
1002
{
1002
}
1000
Color
1070
     1
1070
     2
1002
{
1002
}
1000
LType
1070
     4
1000
BYLAYER
1002
{
1002
}
1002
}
1000
TXT2
1070
     9
1000
6
1002
{
1000
Class
1070
     4
1000
SYM
1002
{
1002
}
1000
Color
1070
     1
1070
     2
1002
{
1002
}
1000
LType
1070
     4
1000
BYLAYER
1002
{
1002
}
1002
}
1000
TXT3
1070
     9
1000
6
1002
{
1000
Class
1070
     4
1000
SYM
1002
{
1002
}
1000
Color
1070
     1
1070
   256
1002
{
1002
}
1000
LType
1070
     4
1000
BYLAYER
1002
{
1002
}
1002
}
1000
TXT5
1070
     9
1000
6
1002
{
1000
Class
1070
     4
1000
SYM
1002
{
1002
}
1000
Color
1070
     1
1070
     7
1002
{
1002
}
1000
LType
1070
     4
1000
BYLAYER
1002
{
1002
}
1002
}
1000
TXT7
1070
     9
1000
6
1002
{
1000
Class
1070
     4
1000
SYM
1002
{
1002
}
1000
Color
1070
     1
1070
     7
1002
{
1002
}
1000
LType
1070
     4
1000
BYLAYER
1002
{
1002
}
1002
}
1000
VIEW
1070
     9
1000
VIEW
1002
{
1000
Class
1070
     4
1000
SPZ
1002
{
1002
}
1000
Color
1070
     1
1070
   256
1002
{
1002
}
1000
LType
1070
     4
1000
BYLAYER
1002
{
1002
}
1002
}
1000
VPLI
1070
     9
1000
2A
1002
{
1000
Class
1070
     4
1000

1002
{
1002
}
1000
Color
1070
     1
1070
   256
1002
{
1002
}
1000
LType
1070
     4
1000
BYLAYER
1002
{
1002
}
1002
}
1000
ZIZA
1070
     9
1000
4
1002
{
1000
Class
1070
     4
1000
BGD
1002
{
1002
}
1000
Color
1070
     1
1070
   256
1002
{
1002
}
1000
LType
1070
     4
1000
GENZIGZAG
1002
{
1002
}
1002
}
  0
APPID
  5
944
330
9
100
AcDbSymbolTableRecord
100
AcDbRegAppTableRecord
  2
GENIUS_GENCFG4_13
 70
     0
1001
GENIUS_GENCFG_13
1071
931430709
1000
291
1000
GEN
1070
    12
1000
GenCfgObject
1000
GenCfgShort
1000
GenCfgReal
1000
GenCfgBool
1000
GenCfgString
1000
GenCfgDim
1000
GenCfgAttrInf
1000
GenCfgLaySection
1000
GenCfgLayer
1000
GenCfgEntSort
1000
GenCfgLType
1000
GenCfgFilter
1000
Balloon
1070
     0
1002
{
1000
GenIF
1070
     1
1070
     3
1002
{
1002
}
1000
GenPosInc
1070
     1
1070
     1
1002
{
1002
}
1000
GenPosBlk
1070
     1
1070
     8
1002
{
1002
}
1000
GenPosVar
1070
     1
1070
     0
1002
{
1002
}
1000
GenZiCir
1070
     2
1040
1.5
1002
{
1002
}
1000
MaxCharForCenteredText
1070
     1
1070
    30
1002
{
1002
}
1000
Snap
1070
     0
1002
{
1000
ActivationRadius
1070
     2
1040
1.0
1002
{
1002
}
1000
M
1070
     0
1002
{
1000
SnapStepX
1070
     2
1040
20.0
1002
{
1002
}
1000
SnapStepY
1070
     2
1040
10.0
1002
{
1002
}
1002
}
1000
I
1070
     0
1002
{
1000
SnapStepX
1070
     2
1040
1.0
1002
{
1002
}
1000
SnapStepY
1070
     2
1040
0.5
1002
{
1002
}
1002
}
1002
}
1002
}
1000
Centerline
1070
     0
1002
{
1000
ScaleNot
1070
     3
1070
     0
1002
{
1002
}
1000
M
1070
     0
1002
{
1000
GenCenAng
1070
     4
1000
45|90|135
1002
{
1002
}
1000
GenCenDia
1070
     2
1040
10.0
1002
{
1002
}
1000
GenCenDias
1070
     4
1000
10|20|30
1002
{
1002
}
1000
GenCenDist
1070
     2
1040
3.0
1002
{
1002
}
1000
GenCenLen
1070
     2
1040
10.0
1002
{
1002
}
1000
GenCenOff
1070
     2
1040
10.0
1002
{
1002
}
1002
}
1000
I
1070
     0
1002
{
1000
GenCenAng
1070
     4
1000
45|90|135
1002
{
1002
}
1000
GenCenDia
1070
     2
1040
0.5
1002
{
1002
}
1000
GenCenDias
1070
     4
1000
0.5|1.0|1.5
1002
{
1002
}
1000
GenCenDist
1070
     2
1040
0.125
1002
{
1002
}
1000
GenCenLen
1070
     2
1040
0.5
1002
{
1002
}
1000
GenCenOff
1070
     2
1040
0.5
1002
{
1002
}
1002
}
1002
}
1000
CLine
1070
     0
1002
{
1000
CAngArray
1070
     4
1000
30|45|60
1002
{
1002
}
1000
Typ
1070
     4
1000
XLINE
1002
{
1002
}
1000
M
1070
     0
1002
{
1000
CLinArray
1070
     4
1000
817
1002
{
1002
}
1002
}
1000
I
1070
     0
1002
{
1000
CLinArray
1070
     4
1000
0.125|0.25|0.5
1002
{
1002
}
1002
}
1002
}
1000
Detail
1070
     0
1002
{
1002
}
1000
Dimension
1070
     5
1002
{
1000
DIMALT
1070
     1
1070
     0
1002
{
1002
}
1000
DIMALTD
1070
     1
1070
     2
1002
{
1002
}
1000
DIMALTTD
1070
     1
1070
     4
1002
{
1002
}
1000
DIMALTTZ
1070
     1
1070
     0
1002
{
1002
}
1000
DIMALTU
1070
     1
1070
     2
1002
{
1002
}
1000
DIMALTZ
1070
     1
1070
     0
1002
{
1002
}
1000
DIMAUNIT
1070
     1
1070
     0
1002
{
1002
}
1000
DIMBLK
1070
     4
1000

1002
{
1002
}
1000
DIMBLK1
1070
     4
1000

1002
{
1002
}
1000
DIMBLK2
1070
     4
1000

1002
{
1002
}
1000
DIMCLRD
1070
     1
1070
   256
1002
{
1002
}
1000
DIMCLRE
1070
     1
1070
   256
1002
{
1002
}
1000
DIMCLRT
1070
     1
1070
     2
1002
{
1002
}
1000
DIMDLE
1070
     2
1040
0.0
1002
{
1002
}
1000
DIMFIT
1070
     1
1070
     3
1002
{
1002
}
1000
DIMJUST
1070
     1
1070
     0
1002
{
1002
}
1000
DIMLFAC
1070
     2
1040
1.0
1002
{
1002
}
1000
DIMLIM
1070
     1
1070
     0
1002
{
1002
}
1000
DIMPOST
1070
     4
1000

1002
{
1002
}
1000
DIMRND
1070
     2
1040
0.0
1002
{
1002
}
1000
DIMSAH
1070
     1
1070
     0
1002
{
1002
}
1000
DIMSCALE
1070
     2
1040
1.0
1002
{
1002
}
1000
DIMSD1
1070
     1
1070
     0
1002
{
1002
}
1000
DIMSD2
1070
     1
1070
     0
1002
{
1002
}
1000
DIMSE1
1070
     1
1070
     0
1002
{
1002
}
1000
DIMSE2
1070
     1
1070
     0
1002
{
1002
}
1000
DIMSOXD
1070
     1
1070
     0
1002
{
1002
}
1000
DIMTAD
1070
     1
1070
     0
1002
{
1002
}
1000
DIMTFAC
1070
     2
1040
0.71
1002
{
1002
}
1000
DIMTIH
1070
     1
1070
     0
1002
{
1002
}
1000
DIMTIX
1070
     1
1070
     0
1002
{
1002
}
1000
DIMTM
1070
     2
1040
0.1
1002
{
1002
}
1000
DIMTOFL
1070
     1
1070
     0
1002
{
1002
}
1000
DIMTOH
1070
     1
1070
     0
1002
{
1002
}
1000
DIMTOL
1070
     1
1070
     0
1002
{
1002
}
1000
DIMTOLJ
1070
     1
1070
     1
1002
{
1002
}
1000
DIMTP
1070
     2
1040
0.1
1002
{
1002
}
1000
DIMTSZ
1070
     2
1040
0.0
1002
{
1002
}
1000
DIMTVP
1070
     2
1040
0.0
1002
{
1002
}
1000
DIMTXSTY
1070
     4
1000
STANDARD
1002
{
1002
}
1000
DIMTZIN
1070
     1
1070
     0
1002
{
1002
}
1000
DIMUNIT
1070
     1
1070
     2
1002
{
1002
}
1000
DIMUPT
1070
     1
1070
     0
1002
{
1002
}
1000
M
1070
     0
1002
{
1000
DIMALTF
1070
     2
1040
0.0393701
1002
{
1002
}
1000
DIMAPOST
1070
     4
1000
"
1002
{
1002
}
1000
DIMASZ
1070
     2
1040
2.5
1002
{
1002
}
1000
DIMCEN
1070
     2
1040
0.0
1002
{
1002
}
1000
DIMDEC
1070
     1
1070
     2
1002
{
1002
}
1000
DIMDLI
1070
     2
1040
10.0
1002
{
1002
}
1000
DIMEXE
1070
     2
1040
1.0
1002
{
1002
}
1000
DIMEXO
1070
     2
1040
1.0
1002
{
1002
}
1000
DIMGAP
1070
     2
1040
1.5
1002
{
1002
}
1000
DIMTDEC
1070
     1
1070
     3
1002
{
1002
}
1000
DIMTXT
1070
     2
1040
3.5
1002
{
1002
}
1000
DIMZIN
1070
     1
1070
     8
1002
{
1002
}
1002
}
1000
I
1070
     0
1002
{
1000
DIMALTF
1070
     2
1040
25.4
1002
{
1002
}
1000
DIMAPOST
1070
     4
1000
mm
1002
{
1002
}
1000
DIMASZ
1070
     2
1040
0.1
1002
{
1002
}
1000
DIMCEN
1070
     2
1040
0.0
1002
{
1002
}
1000
DIMDEC
1070
     1
1070
     4
1002
{
1002
}
1000
DIMDLI
1070
     2
1040
0.5
1002
{
1002
}
1000
DIMEXE
1070
     2
1040
0.1
1002
{
1002
}
1000
DIMEXO
1070
     2
1040
0.05
1002
{
1002
}
1000
DIMGAP
1070
     2
1040
0.06
1002
{
1002
}
1000
DIMTDEC
1070
     1
1070
     4
1002
{
1002
}
1000
DIMTXT
1070
     2
1040
0.12
1002
{
1002
}
1000
DIMZIN
1070
     1
1070
     7
1002
{
1002
}
1002
}
1000
GEN-ISO
1070
     5
1002
{
1000
NAME
1070
     4
1000
GEN-ISO
1002
{
1002
}
1000
DIMTOLJ
1070
     1
1070
     0
1002
{
1002
}
1000
M
1070
     0
1002
{
1002
}
1000
I
1070
     0
1002
{
1002
}
1000
DIMTAD
1070
     1
1070
     1
1002
{
1002
}
1000
DIMTOFL
1070
     1
1070
     1
1002
{
1002
}
1002
}
1000
GEN-ISO-POS
1070
     5
1002
{
1000
NAME
1070
     4
1000
GEN-ISO-POS
1002
{
1002
}
1000
DIMTOLJ
1070
     1
1070
     0
1002
{
1002
}
1000
DIMTXSTY
1070
     4
1000
STANDARD
1002
{
1002
}
1000
M
1070
     0
1002
{
1000
DIMASZ
1070
     2
1040
2.5
1002
{
1002
}
1000
DIMGAP
1070
     2
1040
1.5
1002
{
1002
}
1000
DIMTXT
1070
     2
1040
5.0
1002
{
1002
}
1002
}
1000
I
1070
     0
1002
{
1000
DIMASZ
1070
     2
1040
0.1
1002
{
1002
}
1000
DIMGAP
1070
     2
1040
0.06
1002
{
1002
}
1000
DIMTXT
1070
     2
1040
0.2
1002
{
1002
}
1002
}
1002
}
1000
GEN-ISO-CIR
1070
     5
1002
{
1000
NAME
1070
     4
1000
GEN-ISO$3
1002
{
1002
}
1000
DIMFIT
1070
     1
1070
     0
1002
{
1002
}
1000
DIMTAD
1070
     1
1070
     1
1002
{
1002
}
1000
DIMTIH
1070
     1
1070
     0
1002
{
1002
}
1000
DIMTIX
1070
     1
1070
     0
1002
{
1002
}
1000
DIMTOH
1070
     1
1070
     1
1002
{
1002
}
1000
DIMTOLJ
1070
     1
1070
     0
1002
{
1002
}
1000
DIMTOFL
1070
     1
1070
     0
1002
{
1002
}
1000
DIMUPT
1070
     1
1070
     1
1002
{
1002
}
1000
M
1070
     0
1002
{
1002
}
1000
I
1070
     0
1002
{
1002
}
1002
}
1000
GEN-ISO-RAD
1070
     5
1002
{
1000
NAME
1070
     4
1000
GEN-ISO$4
1002
{
1002
}
1000
DIMFIT
1070
     1
1070
     0
1002
{
1002
}
1000
DIMTAD
1070
     1
1070
     1
1002
{
1002
}
1000
DIMTIH
1070
     1
1070
     0
1002
{
1002
}
1000
DIMTIX
1070
     1
1070
     0
1002
{
1002
}
1000
DIMTOH
1070
     1
1070
     1
1002
{
1002
}
1000
DIMTOLJ
1070
     1
1070
     0
1002
{
1002
}
1000
DIMTOFL
1070
     1
1070
     0
1002
{
1002
}
1000
DIMUPT
1070
     1
1070
     1
1002
{
1002
}
1000
M
1070
     0
1002
{
1002
}
1000
I
1070
     0
1002
{
1002
}
1002
}
1000
GEN-ISO-ORD
1070
     5
1002
{
1000
NAME
1070
     4
1000
GEN-ISO$6
1002
{
1002
}
1000
DIMTOLJ
1070
     1
1070
     0
1002
{
1002
}
1000
M
1070
     0
1002
{
1002
}
1000
I
1070
     0
1002
{
1002
}
1002
}
1000
GEN-ISO-AXE-F
1070
     5
1002
{
1000
NAME
1070
     4
1000
GEN-ISO-AXE-F
1002
{
1002
}
1000
DIMSE1
1070
     1
1070
     1
1002
{
1002
}
1000
DIMSE2
1070
     1
1070
     1
1002
{
1002
}
1000
DIMTAD
1070
     1
1070
     1
1002
{
1002
}
1000
DIMTOLJ
1070
     1
1070
     0
1002
{
1002
}
1000
DIMTOFL
1070
     1
1070
     1
1002
{
1002
}
1000
M
1070
     0
1002
{
1002
}
1000
I
1070
     0
1002
{
1002
}
1002
}
1000
GEN-ISO-AXE-H
1070
     5
1002
{
1000
NAME
1070
     4
1000
GEN-ISO-AXE-H
1002
{
1002
}
1000
DIMBLK1
1070
     4
1000
GENAXEH
1002
{
1002
}
1000
DIMLFAC
1070
     2
1040
2.0
1002
{
1002
}
1000
DIMSAH
1070
     1
1070
     1
1002
{
1002
}
1000
DIMSE1
1070
     1
1070
     1
1002
{
1002
}
1000
DIMSE2
1070
     1
1070
     1
1002
{
1002
}
1000
DIMTAD
1070
     1
1070
     1
1002
{
1002
}
1000
DIMTOLJ
1070
     1
1070
     0
1002
{
1002
}
1000
DIMTOFL
1070
     1
1070
     1
1002
{
1002
}
1000
M
1070
     0
1002
{
1002
}
1000
I
1070
     0
1002
{
1002
}
1002
}
1000
GEN-ANSI
1070
     5
1002
{
1000
NAME
1070
     4
1000
GEN-ANSI
1002
{
1002
}
1000
DIMTIH
1070
     1
1070
     1
1002
{
1002
}
1000
DIMTOH
1070
     1
1070
     1
1002
{
1002
}
1000
DIMTAD
1070
     1
1070
     0
1002
{
1002
}
1000
DIMTOLJ
1070
     1
1070
     1
1002
{
1002
}
1000
M
1070
     0
1002
{
1002
}
1000
I
1070
     0
1002
{
1002
}
1002
}
1000
GEN-ANSI-POS
1070
     5
1002
{
1000
NAME
1070
     4
1000
GEN-ANSI-POS
1002
{
1002
}
1000
DIMTOLJ
1070
     1
1070
     1
1002
{
1002
}
1000
DIMTXSTY
1070
     4
1000
STANDARD
1002
{
1002
}
1000
M
1070
     0
1002
{
1000
DIMASZ
1070
     2
1040
2.5
1002
{
1002
}
1000
DIMGAP
1070
     2
1040
1.5
1002
{
1002
}
1000
DIMTXT
1070
     2
1040
5.0
1002
{
1002
}
1002
}
1000
I
1070
     0
1002
{
1000
DIMASZ
1070
     2
1040
0.1
1002
{
1002
}
1000
DIMGAP
1070
     2
1040
0.06
1002
{
1002
}
1000
DIMTXT
1070
     2
1040
0.2
1002
{
1002
}
1002
}
1002
}
1000
GEN-ANSI-CIR
1070
     5
1002
{
1000
NAME
1070
     4
1000
GEN-ANSI$3
1002
{
1002
}
1000
DIMFIT
1070
     1
1070
     0
1002
{
1002
}
1000
DIMTAD
1070
     1
1070
     0
1002
{
1002
}
1000
DIMTIH
1070
     1
1070
     1
1002
{
1002
}
1000
DIMTIX
1070
     1
1070
     0
1002
{
1002
}
1000
DIMTOFL
1070
     1
1070
     0
1002
{
1002
}
1000
DIMTOH
1070
     1
1070
     1
1002
{
1002
}
1000
DIMTOLJ
1070
     1
1070
     1
1002
{
1002
}
1000
DIMUPT
1070
     1
1070
     1
1002
{
1002
}
1000
M
1070
     0
1002
{
1002
}
1000
I
1070
     0
1002
{
1002
}
1002
}
1000
GEN-ANSI-RAD
1070
     5
1002
{
1000
NAME
1070
     4
1000
GEN-ANSI$4
1002
{
1002
}
1000
DIMFIT
1070
     1
1070
     0
1002
{
1002
}
1000
DIMTAD
1070
     1
1070
     0
1002
{
1002
}
1000
DIMTIH
1070
     1
1070
     1
1002
{
1002
}
1000
DIMTIX
1070
     1
1070
     0
1002
{
1002
}
1000
DIMTOFL
1070
     1
1070
     0
1002
{
1002
}
1000
DIMTOH
1070
     1
1070
     1
1002
{
1002
}
1000
DIMTOLJ
1070
     1
1070
     1
1002
{
1002
}
1000
DIMUPT
1070
     1
1070
     1
1002
{
1002
}
1000
M
1070
     0
1002
{
1002
}
1000
I
1070
     0
1002
{
1002
}
1002
}
1000
GEN-ANSI-ORD
1070
     5
1002
{
1000
NAME
1070
     4
1000
GEN-ANSI$6
1002
{
1002
}
1000
DIMTAD
1070
     1
1070
     0
1002
{
1002
}
1000
DIMTIH
1070
     1
1070
     1
1002
{
1002
}
1000
DIMTOH
1070
     1
1070
     1
1002
{
1002
}
1000
DIMTOLJ
1070
     1
1070
     1
1002
{
1002
}
1000
M
1070
     0
1002
{
1002
}
1000
I
1070
     0
1002
{
1002
}
1002
}
1000
GEN-ANSI-AXE-F
1070
     5
1002
{
1000
NAME
1070
     4
1000
GEN-ANSI-AXE-F
1002
{
1002
}
1000
DIMBLK1
1070
     4
1000
GENAXEH
1002
{
1002
}
1000
DIMSAH
1070
     1
1070
     1
1002
{
1002
}
1000
DIMSE1
1070
     1
1070
     1
1002
{
1002
}
1000
DIMSE2
1070
     1
1070
     1
1002
{
1002
}
1000
DIMTAD
1070
     1
1070
     0
1002
{
1002
}
1000
DIMTIH
1070
     1
1070
     1
1002
{
1002
}
1000
DIMTOH
1070
     1
1070
     1
1002
{
1002
}
1000
DIMTOLJ
1070
     1
1070
     1
1002
{
1002
}
1000
M
1070
     0
1002
{
1002
}
1000
I
1070
     0
1002
{
1002
}
1002
}
1000
GEN-ANSI-AXE-H
1070
     5
1002
{
1000
NAME
1070
     4
1000
GEN-ANSI-AXE-H
1002
{
1002
}
1000
DIMBLK1
1070
     4
1000
GENAXEH
1002
{
1002
}
1000
DIMLFAC
1070
     2
1040
2.0
1002
{
1002
}
1000
DIMSAH
1070
     1
1070
     1
1002
{
1002
}
1000
DIMSE1
1070
     1
1070
     1
1002
{
1002
}
1000
DIMSE2
1070
     1
1070
     1
1002
{
1002
}
1000
DIMTAD
1070
     1
1070
     0
1002
{
1002
}
1000
DIMTOFL
1070
     1
1070
     1
1002
{
1002
}
1000
DIMTOLJ
1070
     1
1070
     1
1002
{
1002
}
1000
M
1070
     0
1002
{
1002
}
1000
I
1070
     0
1002
{
1002
}
1002
}
1002
}
1000
DimSet
1070
     0
1002
{
1000
ChainSum
1070
     3
1070
     0
1002
{
1002
}
1000
DimDclTyp0
1070
     4
1000
dim23
1002
{
1002
}
1000
HorBra
1070
     3
1070
     0
1002
{
1002
}
1000
StrDia
1070
     4
1000
%%c<>
1002
{
1002
}
1000
StrRad
1070
     4
1000
R<>
1002
{
1002
}
1000
TextMinus
1070
     4
1000
<>
1002
{
1002
}
1000
TextPlus
1070
     4
1000
<>
1002
{
1002
}
1000
M
1070
     0
1002
{
1000
DimdliFirst
1070
     2
1040
12.0
1002
{
1002
}
1000
PointMakeDist
1070
     2
1040
10.0
1002
{
1002
}
1002
}
1000
I
1070
     0
1002
{
1000
DimdliFirst
1070
     2
1040
0.5
1002
{
1002
}
1000
PointMakeDist
1070
     2
1040
0.5
1002
{
1002
}
1002
}
1000
FitGrade
1070
     4
1000
h7
1002
{
1002
}
1002
}
1000
Drawing
1070
     0
1002
{
1000
ChamferDimMode
1070
     1
1070
     2
1002
{
1002
}
1000
Gen_Fiso
1070
    -3
1040
1.0
1002
{
1002
}
1000
GenDimStil
1070
     4
1000
ISO
1002
{
1002
}
1000
GenDwgUScale
1070
     2
1040
1.0
1002
{
1002
}
1000
GenInch
1070
     4
1000
M
1002
{
1002
}
1000
GenPlotScale
1070
     4
1000
1:1
1002
{
1002
}
1000
Revisi
1070
     4
1000
0
1002
{
1002
}
1000
Version
1070
    -5
1000
14.01a/Sep 23 1998
1002
{
1002
}
1000
Platform
1070
    -5
1000
WINNT
1002
{
1002
}
1002
}
1000
DwgVar
1070
     0
1002
{
1000
M
1070
     0
1002
{
1002
}
1000
I
1070
     0
1002
{
1002
}
1002
}
1000
Hatch
1070
     0
1002
{
1000
GenHtcFlag
1070
     3
1070
     0
1002
{
1002
}
1002
}
1000
Info_Pos
1070
     0
1002
{
1000
>
1002
}
1000
Layer
1070
     7
1002
{
1000
Defs
1070
     0
1002
{
1000
>
1002
}
1000
EntSort
1070
     0
1002
{
1000
>
1002
}
1000
Match
1070
     0
1002
{
1002
}
1000
Settings
1070
     0
1002
{
1000
FocGrNC
1070
     3
1070
     0
1002
{
1002
}
1000
FocGrLo
1070
     3
1070
     0
1002
{
1002
}
1000
FocLoNC
1070
     3
1070
     0
1002
{
1002
}
1000
FocusCol
1070
     1
1070
   253
1002
{
1002
}
1000
GenStdLG
1070
     4
1000

1002
{
1002
}
1000
LayMatch
1070
     3
1070
     0
1002
{
1002
}
1000
LgOff
1070
     3
1070
     0
1002
{
1002
}
1000
CurLG
1070
    -5
1000

1002
{
1002
}
1002
}
1002
}
1000
LType
1070
     0
1002
{
1000
GEN3
1070
    10
1000
genius.lin
1002
{
1002
}
1000
GEN7
1070
    10
1000
genius.lin
1002
{
1002
}
1000
GEN4A
1070
    10
1000
genius.lin
1002
{
1002
}
1000
GEN3A
1070
    10
1000
genius.lin
1002
{
1002
}
1000
GEN7A
1070
    10
1000
genius.lin
1002
{
1002
}
1000
GENZIGZAG
1070
    10
1000
genius.lin
1002
{
1002
}
1002
}
1000
Objecter
1070
     0
1002
{
1000
CreateGroups
1070
     3
1070
     0
1002
{
1002
}
1000
LaySwitch
1070
     3
1070
     1
1002
{
1002
}
1000
LastObj
1070
    -5
1000
0
1002
{
1002
}
1000
TimeStamp
1070
    -5
1000
19990708.11450939
1002
{
1002
}
1002
}
1000
OSWiz
1070
     0
1002
{
1000
Filter
1070
     0
1002
{
1000
HATCH
1070
    11
1002
{
1000
EntityType
1070
     4
1000
LINE
1002
{
1002
}
1000
Layer
1070
     4
1000
8,8N,*-8,*-8N
1002
{
1002
}
1000
Linetype
1070
     4
1000
*
1002
{
1002
}
1000
Color
1070
     4
1000
*
1002
{
1002
}
1000
ApplyInDims
1070
     3
1070
     1
1002
{
1002
}
1002
}
1000
SYMBOLS
1070
    11
1002
{
1000
EntityType
1070
     4
1000
*
1002
{
1002
}
1000
Layer
1070
     4
1000
[5-6],[5-6]N,*-[5-6],*-[5-6]N,AM_PARDIM,AM_REFDIM
1002
{
1002
}
1000
Linetype
1070
     4
1000
*
1002
{
1002
}
1000
Color
1070
     4
1000
*
1002
{
1002
}
1000
ApplyInDims
1070
     3
1070
     1
1002
{
1002
}
1002
}
1000
FEM
1070
    11
1002
{
1000
EntityType
1070
     4
1000
*
1002
{
1002
}
1000
Layer
1070
     4
1000
4A,4AN,*-4A,*-4AN
1002
{
1002
}
1000
Linetype
1070
     4
1000
*
1002
{
1002
}
1000
Color
1070
     4
1000
*
1002
{
1002
}
1000
ApplyInDims
1070
     3
1070
     1
1002
{
1002
}
1002
}
1002
}
1002
}
1000
PaList
1070
     0
1002
{
1000
AcadMBomWarning
1070
     3
1070
     1
1002
{
1002
}
1000
AutoUpdatePartList
1070
     1
1070
     0
1002
{
1002
}
1000
ReadInfoPoint
1070
     3
1070
     0
1002
{
1002
}
1000
ReadPosNr
1070
     3
1070
     1
1002
{
1002
}
1000
RevStr
1070
     4
1000
0
1002
{
1002
}
1002
}
1000
Paper
1070
     0
1002
{
1000
Layer
1070
    -5
1000
KLIN,5
1002
{
1002
}
1002
}
1000
PartDB
1070
     0
1002
{
1000
GenDbOwner
1070
     4
1000

1002
{
1002
}
1002
}
1000
System
1070
     0
1002
{
1000
Menu
1070
     4
1000
GEV
1002
{
1002
}
1002
}
1000
Title
1070
     0
1002
{
1000
MakeView
1070
     1
1070
     2
1002
{
1002
}
1002
}
1000
Tools
1070
     0
1002
{
1000
Trans
1070
     0
1002
{
1000
Drawingtranslation
1070
    -4
1070
     1
1002
{
1002
}
1000
upreserve
1070
     3
1070
     0
1002
{
1002
}
1000
originally_on
1070
    -4
1070
     0
1002
{
1002
}
1000
sourcelang
1070
    -5
1000
GB
1002
{
1002
}
1002
}
1002
}
  0
APPID
  5
945
330
9
100
AcDbSymbolTableRecord
100
AcDbRegAppTableRecord
  2
GENIUS_GEVCFG0_13
 70
     0
1001
GENIUS_GENCFG_13
1071
923390832
1000
292
1000
GEV
1070
     1
1000
GenCfgObject
1000
VED
1070
     0
1002
{
1002
}
  0
APPID
  5
946
330
9
100
AcDbSymbolTableRecord
100
AcDbRegAppTableRecord
  2
GENIUS_GENOENT_13
 70
     0
  0
APPID
  5
947
330
9
100
AcDbSymbolTableRecord
100
AcDbRegAppTableRecord
  2
GENIUS_GENOREF_13
 70
     0
  0
APPID
  5
948
330
9
100
AcDbSymbolTableRecord
100
AcDbRegAppTableRecord
  2
GENIUS_GENOLIS_13
 70
     0
  0
APPID
  5
949
330
9
100
AcDbSymbolTableRecord
100
AcDbRegAppTableRecord
  2
GENIUS_GENREC_14
 70
     0
  0
APPID
  5
94A
330
9
100
AcDbSymbolTableRecord
100
AcDbRegAppTableRecord
  2
GENIUS_GENOBJ-N-REC_13
 70
     0
  0
APPID
  5
94B
330
9
100
AcDbSymbolTableRecord
100
AcDbRegAppTableRecord
  2
RAIL
 70
     0
  0
APPID
  5
94C
330
9
100
AcDbSymbolTableRecord
100
AcDbRegAppTableRecord
  2
AEC_MATERIAL
 70
     0
  0
APPID
  5
94D
330
9
100
AcDbSymbolTableRecord
100
AcDbRegAppTableRecord
  2
UNIBILL_V5-0-564732
 70
     0
  0
APPID
  5
94E
330
9
100
AcDbSymbolTableRecord
100
AcDbRegAppTableRecord
  2
UNIBILLB_V5-0-564732
 70
     0
  0
APPID
  5
94F
330
9
100
AcDbSymbolTableRecord
100
AcDbRegAppTableRecord
  2
UNIBILLT_V5-0-564732
 70
     0
  0
APPID
  5
950
330
9
100
AcDbSymbolTableRecord
100
AcDbRegAppTableRecord
  2
UNIBILLD_V5-0-564732
 70
     0
  0
APPID
  5
951
330
9
100
AcDbSymbolTableRecord
100
AcDbRegAppTableRecord
  2
ZELEV
 70
     0
  0
APPID
  5
952
330
9
100
AcDbSymbolTableRecord
100
AcDbRegAppTableRecord
  2
BLKREF
 70
     0
  0
APPID
  5
953
330
9
100
AcDbSymbolTableRecord
100
AcDbRegAppTableRecord
  2
AEC_APER
 70
     0
  0
APPID
  5
954
330
9
100
AcDbSymbolTableRecord
100
AcDbRegAppTableRecord
  2
CADS-DE-603031
 70
     0
  0
APPID
  5
955
330
9
100
AcDbSymbolTableRecord
100
AcDbRegAppTableRecord
  2
AECGCB
 70
     0
  0
APPID
  5
956
330
9
100
AcDbSymbolTableRecord
100
AcDbRegAppTableRecord
  2
CADS-CFG-603031
 70
     0
  0
APPID
  5
957
330
9
100
AcDbSymbolTableRecord
100
AcDbRegAppTableRecord
  2
AME_SOLVIEW
 70
     0
  0
APPID
  5
958
330
9
100
AcDbSymbolTableRecord
100
AcDbRegAppTableRecord
  2
MStation
 70
     0
  0
APPID
  5
959
330
9
100
AcDbSymbolTableRecord
100
AcDbRegAppTableRecord
  2
WARDS
 70
     0
  0
APPID
  5
95A
330
9
100
AcDbSymbolTableRecord
100
AcDbRegAppTableRecord
  2
KTSDETAIL
 70
     0
  0
APPID
  5
95B
330
9
100
AcDbSymbolTableRecord
100
AcDbRegAppTableRecord
  2
AcDbAttr
 70
     0
  0
APPID
  5
95C
330
9
100
AcDbSymbolTableRecord
100
AcDbRegAppTableRecord
  2
PascadCntrData
 70
     0
  0
APPID
  5
95D
330
9
100
AcDbSymbolTableRecord
100
AcDbRegAppTableRecord
  2
ADE
 70
     0
  0
APPID
  5
95E
330
9
100
AcDbSymbolTableRecord
100
AcDbRegAppTableRecord
  2
AcadAnnotative
 70
     0
  0
APPID
  5
95F
330
9
100
AcDbSymbolTableRecord
100
AcDbRegAppTableRecord
  2
AEC_MESH_DATA
 70
     0
  0
APPID
  5
960
330
9
100
AcDbSymbolTableRecord
100
AcDbRegAppTableRecord
  2
ACAD_DSTYLE_DIMJAG
 70
     0
  0
APPID
  5
961
330
9
100
AcDbSymbolTableRecord
100
AcDbRegAppTableRecord
  2
ACAD_DSTYLE_DIMTALN
 70
     0
  0
APPID
  5
962
330
9
100
AcDbSymbolTableRecord
100
AcDbRegAppTableRecord
  2
AEC_DTLCOMP_INFO
 70
     0
  0
APPID
  5
963
330
9
100
AcDbSymbolTableRecord
100
AcDbRegAppTableRecord
  2
AEC_DTLSUBCOMP_INFO
 70
     0
  0
APPID
  5
964
330
9
100
AcDbSymbolTableRecord
100
AcDbRegAppTableRecord
  2
AEC_ISOLATEDOBJECTS_XDATA
 70
     0
  0
APPID
  5
965
330
9
100
AcDbSymbolTableRecord
100
AcDbRegAppTableRecord
  2
AcCmTransparency
 70
     0
  0
ENDTAB
  0
TABLE
  2
DIMSTYLE
  5
A
330
0
100
AcDbSymbolTable
 70
     3
100
AcDbDimStyleTable
 71
     0
  0
DIMSTYLE
105
27
330
A
100
AcDbSymbolTableRecord
100
AcDbDimStyleTableRecord
  2
ISO-25
 70
     0
 41
2.5
 42
0.625
 43
3.75
 44
1.25
 73
     0
 74
     0
 77
     1
 78
     8
140
2.5
141
2.5
143
0.03937007874016
147
0.625
171
     3
172
     1
271
     2
272
     2
274
     3
278
    44
283
     0
284
     8
340
11
  0
DIMSTYLE
105
2B
330
A
100
AcDbSymbolTableRecord
100
AcDbDimStyleTableRecord
  2
Standard
 70
     0
340
11
  0
ENDTAB
  0
TABLE
  2
BLOCK_RECORD
  5
1
330
0
100
AcDbSymbolTable
 70
     3
  0
BLOCK_RECORD
  5
1F
330
1
100
AcDbSymbolTableRecord
100
AcDbBlockTableRecord
  2
*Model_Space
340
22
  0
BLOCK_RECORD
  5
1B
330
1
100
AcDbSymbolTableRecord
100
AcDbBlockTableRecord
  2
*Paper_Space
340
1E
  0
BLOCK_RECORD
  5
23
330
1
100
AcDbSymbolTableRecord
100
AcDbBlockTableRecord
  2
*Paper_Space0
340
26
  0
ENDTAB
  0
ENDSEC
  0
SECTION
  2
BLOCKS
  0
BLOCK
  5
20
330
1F
100
AcDbEntity
  8
0
100
AcDbBlockBegin
  2
*Model_Space
 70
     0
 10
0.0
 20
0.0
 30
0.0
  3
*Model_Space
  1

  0
ENDBLK
  5
21
330
1F
100
AcDbEntity
  8
0
100
AcDbBlockEnd
  0
BLOCK
  5
1C
330
1B
100
AcDbEntity
 67
     1
  8
0
100
AcDbBlockBegin
  2
*Paper_Space
 70
     0
 10
0.0
 20
0.0
 30
0.0
  3
*Paper_Space
  1

  0
ENDBLK
  5
1D
330
1B
100
AcDbEntity
 67
     1
  8
0
100
AcDbBlockEnd
  0
BLOCK
  5
24
330
23
100
AcDbEntity
  8
0
100
AcDbBlockBegin
  2
*Paper_Space0
 70
     0
 10
0.0
 20
0.0
 30
0.0
  3
*Paper_Space0
  1

  0
ENDBLK
  5
25
330
23
100
AcDbEntity
  8
0
100
AcDbBlockEnd
  0
ENDSEC
  0
SECTION
  2
ENTITIES
  0
LINE
  5
ABB
330
1F
100
AcDbEntity
  8
ceco.net 104
370
     5
100
AcDbLine
 10
1398.930506212419
 20
0.0
 30
0.0
 11
0.0
 21
0.0
 31
0.0
  0
LINE
  5
ABC
330
1F
100
AcDbEntity
  8
ceco.net 104
370
     5
100
AcDbLine
 10
1345.003631212419
 20
53.926875
 30
0.0
 11
1174.345264792627
 21
53.926875
 31
0.0
  0
LINE
  5
ABD
330
1F
100
AcDbEntity
  8
ceco.net 104
370
     5
100
AcDbLine
 10
1398.930506212419
 20
0.0
 30
0.0
 11
1398.930506212419
 21
341.6338917962972
 31
0.0
  0
LINE
  5
ABE
330
1F
100
AcDbEntity
  8
ceco.net 104
370
     5
100
AcDbLine
 10
1345.003631212419
 20
0.0
 30
0.0
 11
1345.003631212419
 21
326.5501916298849
 31
0.0
  0
LINE
  5
ABF
330
1F
100
AcDbEntity
  8
ceco.net 104
370
     5
100
AcDbLine
 10
0.0
 20
0.0
 30
0.0
 11
0.0
 21
53.926875
 31
0.0
  0
LINE
  5
AC0
330
1F
100
AcDbEntity
  8
ceco.net 104
370
     5
100
AcDbLine
 10
53.926875
 20
0.0
 30
0.0
 11
53.926875
 21
53.926875
 31
0.0
  0
LINE
  5
AC1
330
1F
100
AcDbEntity
  8
ceco.net 104
370
     5
100
AcDbLine
 10
742.5548463809284
 20
53.926875
 30
0.0
 11
742.5548463809284
 21
0.0
 31
0.0
  0
LINE
  5
AC2
330
1F
100
AcDbEntity
  8
ceco.net 104
370
     5
100
AcDbLine
 10
472.9204713809285
 20
53.926875
 30
0.0
 11
472.9204713809285
 21
0.0
 31
0.0
  0
LINE
  5
AC3
330
1F
100
AcDbEntity
  8
ceco.net 104
370
     5
100
AcDbLine
 10
1174.345264792627
 20
64.71225
 30
0.0
 11
1049.040997972858
 21
64.71225
 31
0.0
  0
LINE
  5
AC4
330
1F
100
AcDbEntity
  8
ceco.net 104
370
     5
100
AcDbLine
 10
1174.345264792627
 20
64.71225
 30
0.0
 11
1174.345264792627
 21
0.0
 31
0.0
  0
LINE
  5
AC5
330
1F
100
AcDbEntity
  8
ceco.net 104
370
     5
100
AcDbLine
 10
1049.040997972858
 20
64.71225
 30
0.0
 11
1049.040997972858
 21
0.0
 31
0.0
  0
LINE
  5
AC6
330
1F
100
AcDbEntity
  8
ceco.net 104
370
     5
100
AcDbLine
 10
1049.040997972858
 20
53.926875
 30
0.0
 11
0.0
 21
53.926875
 31
0.0
  0
LWPOLYLINE
  5
AC7
330
1F
100
AcDbEntity
  8
ceco.net 104
370
     5
100
AcDbPolyline
 90
        4
 70
     1
 43
0.0
 10
730.4307519438343
 20
58.35061782981898
 10
486.8879616555491
 20
58.35061782981898
 10
486.8879616555491
 20
84.15060442010345
 10
730.4307519438343
 20
84.15060442010345
  0
LWPOLYLINE
  5
AC8
330
1F
100
AcDbEntity
  8
ceco.net 104
370
     5
100
AcDbPolyline
 90
        4
 70
     1
 43
0.0
 10
623.4391722312474
 20
63.74330532941719
 10
593.8795413601003
 20
63.74330532941719
 10
593.8795413601003
 20
74.9971477454434
 10
623.4391722312474
 20
74.9971477454434
  0
LWPOLYLINE
  5
AC9
330
1F
100
AcDbEntity
  8
ceco.net 104
370
     5
100
AcDbPolyline
 90
        4
 70
     1
 43
0.0
 10
730.4307519438343
 20
84.15060442010345
 10
486.8879616555491
 20
84.15060442010345
 10
486.8879616555491
 20
109.9505910103879
 10
730.4307519438343
 20
109.9505910103879
  0
LWPOLYLINE
  5
ACA
330
1F
100
AcDbEntity
  8
ceco.net 104
370
     5
100
AcDbPolyline
 90
        4
 70
     1
 43
0.0
 10
623.4391722312474
 20
89.54329192010346
 10
593.8795413601003
 20
89.54329192010346
 10
593.8795413601003
 20
100.7971343357278
 10
623.4391722312474
 20
100.7971343357278
  0
LWPOLYLINE
  5
ACB
330
1F
100
AcDbEntity
  8
ceco.net 104
370
     5
100
AcDbPolyline
 90
        4
 70
     1
 43
0.0
 10
730.4307519438343
 20
109.9505910103879
 10
486.8879616555491
 20
109.9505910103879
 10
486.8879616555491
 20
135.7505776016099
 10
730.4307519438343
 20
135.7505776016099
  0
LWPOLYLINE
  5
ACC
330
1F
100
AcDbEntity
  8
ceco.net 104
370
     5
100
AcDbPolyline
 90
        4
 70
     1
 43
0.0
 10
623.4391722312474
 20
115.3432785109236
 10
593.8795413601003
 20
115.3432785109236
 10
593.8795413601003
 20
126.5971209264141
 10
623.4391722312474
 20
126.5971209264141
  0
LWPOLYLINE
  5
ACD
330
1F
100
AcDbEntity
  8
ceco.net 104
370
     5
100
AcDbPolyline
 90
        4
 70
     1
 43
0.0
 10
730.4307519438343
 20
135.7505776016099
 10
486.8879616555491
 20
135.7505776016099
 10
486.8879616555491
 20
161.5505641924301
 10
730.4307519438343
 20
161.5505641924301
  0
LWPOLYLINE
  5
ACE
330
1F
100
AcDbEntity
  8
ceco.net 104
370
     5
100
AcDbPolyline
 90
        4
 70
     1
 43
0.0
 10
623.4391722312474
 20
141.1432651016099
 10
593.8795413601003
 20
141.1432651016099
 10
593.8795413601003
 20
152.3971075176361
 10
623.4391722312474
 20
152.3971075176361
  0
LWPOLYLINE
  5
ACF
330
1F
100
AcDbEntity
  8
ceco.net 104
370
     5
100
AcDbPolyline
 90
        4
 70
     1
 43
0.0
 10
730.4307519438343
 20
161.5505641924301
 10
486.8879616555491
 20
161.5505641924301
 10
486.8879616555491
 20
187.3505507825806
 10
730.4307519438343
 20
187.3505507825806
  0
LWPOLYLINE
  5
AD0
330
1F
100
AcDbEntity
  8
ceco.net 104
370
     5
100
AcDbPolyline
 90
        4
 70
     1
 43
0.0
 10
623.4391722312474
 20
166.9432516918943
 10
593.8795413601003
 20
166.9432516918943
 10
593.8795413601003
 20
178.1970941079206
 10
623.4391722312474
 20
178.1970941079206
  0
LWPOLYLINE
  5
AD1
330
1F
100
AcDbEntity
  8
ceco.net 104
370
     5
100
AcDbPolyline
 90
        4
 70
     1
 43
0.0
 10
730.4307519438343
 20
187.3505507825806
 10
486.8879616555491
 20
187.3505507825806
 10
486.8879616555491
 20
213.1505373734008
 10
730.4307519438343
 20
213.1505373734008
  0
LWPOLYLINE
  5
AD2
330
1F
100
AcDbEntity
  8
ceco.net 104
370
     5
100
AcDbPolyline
 90
        4
 70
     1
 43
0.0
 10
623.4391722312474
 20
192.7432382831163
 10
593.8795413601003
 20
192.7432382831163
 10
593.8795413601003
 20
203.997080698205
 10
623.4391722312474
 20
203.997080698205
  0
LWPOLYLINE
  5
AD3
330
1F
100
AcDbEntity
  8
ceco.net 104
370
     5
100
AcDbPolyline
 90
        4
 70
     1
 43
0.0
 10
730.4307519438343
 20
213.1505373734008
 10
486.8879616555491
 20
213.1505373734008
 10
486.8879616555491
 20
238.950523964087
 10
730.4307519438343
 20
238.950523964087
  0
LWPOLYLINE
  5
AD4
330
1F
100
AcDbEntity
  8
ceco.net 104
370
     5
100
AcDbPolyline
 90
        4
 70
     1
 43
0.0
 10
623.4391722312474
 20
218.5432248734008
 10
593.8795413601003
 20
218.5432248734008
 10
593.8795413601003
 20
229.797067289427
 10
623.4391722312474
 20
229.797067289427
  0
LWPOLYLINE
  5
AD5
330
1F
100
AcDbEntity
  8
ceco.net 104
370
     5
100
AcDbPolyline
 90
        4
 70
     1
 43
0.0
 10
730.4307519438343
 20
238.950523964087
 10
486.8879616555491
 20
238.950523964087
 10
486.8879616555491
 20
264.7505105549072
 10
730.4307519438343
 20
264.7505105549072
  0
LWPOLYLINE
  5
AD6
330
1F
100
AcDbEntity
  8
ceco.net 104
370
     5
100
AcDbPolyline
 90
        4
 70
     1
 43
0.0
 10
623.4391722312474
 20
244.3432114640871
 10
593.8795413601003
 20
244.3432114640871
 10
593.8795413601003
 20
255.5970538801132
 10
623.4391722312474
 20
255.5970538801132
  0
LWPOLYLINE
  5
AD7
330
1F
100
AcDbEntity
  8
ceco.net 104
370
     5
100
AcDbPolyline
 90
        4
 70
     1
 43
0.0
 10
730.4307519438343
 20
264.7505105549072
 10
486.8879616555491
 20
264.7505105549072
 10
486.8879616555491
 20
290.5504971455935
 10
730.4307519438343
 20
290.5504971455935
  0
LWPOLYLINE
  5
AD8
330
1F
100
AcDbEntity
  8
ceco.net 104
370
     5
100
AcDbPolyline
 90
        4
 70
     1
 43
0.0
 10
623.4391722312474
 20
270.1431980549072
 10
593.8795413601003
 20
270.1431980549072
 10
593.8795413601003
 20
281.3970404703977
 10
623.4391722312474
 20
281.3970404703977
  0
LWPOLYLINE
  5
AD9
330
1F
100
AcDbEntity
  8
ceco.net 104
370
     5
100
AcDbPolyline
 90
        4
 70
     1
 43
0.0
 10
730.4307519438343
 20
290.5504971455935
 10
486.8879616555491
 20
290.5504971455935
 10
486.8879616555491
 20
316.350483735878
 10
730.4307519438343
 20
316.350483735878
  0
LWPOLYLINE
  5
ADA
330
1F
100
AcDbEntity
  8
ceco.net 104
370
     5
100
AcDbPolyline
 90
        4
 70
     1
 43
0.0
 10
623.4391722312474
 20
295.9431846455935
 10
593.8795413601003
 20
295.9431846455935
 10
593.8795413601003
 20
307.1970270612179
 10
623.4391722312474
 20
307.1970270612179
  0
LWPOLYLINE
  5
ADB
330
1F
100
AcDbEntity
  8
ceco.net 104
370
     5
100
AcDbPolyline
 90
        4
 70
     1
 43
0.0
 10
730.4307519438343
 20
316.350483735878
 10
486.8879616555491
 20
316.350483735878
 10
486.8879616555491
 20
342.1504703266982
 10
730.4307519438343
 20
342.1504703266982
  0
LWPOLYLINE
  5
ADC
330
1F
100
AcDbEntity
  8
ceco.net 104
370
     5
100
AcDbPolyline
 90
        4
 70
     1
 43
0.0
 10
623.4391722312474
 20
321.743171235878
 10
593.8795413601003
 20
321.743171235878
 10
593.8795413601003
 20
332.9970136519042
 10
623.4391722312474
 20
332.9970136519042
  0
LWPOLYLINE
  5
ADD
330
1F
100
AcDbEntity
  8
ceco.net 104
370
     5
100
AcDbPolyline
 90
        4
 70
     1
 43
0.0
 10
730.4307519438343
 20
342.1504703266982
 10
486.8879616555491
 20
342.1504703266982
 10
486.8879616555491
 20
367.9504569179201
 10
730.4307519438343
 20
367.9504569179201
  0
LWPOLYLINE
  5
ADE
330
1F
100
AcDbEntity
  8
ceco.net 104
370
     5
100
AcDbPolyline
 90
        4
 70
     1
 43
0.0
 10
623.4391722312474
 20
347.5431578270999
 10
593.8795413601003
 20
347.5431578270999
 10
593.8795413601003
 20
358.7970002427244
 10
623.4391722312474
 20
358.7970002427244
  0
LWPOLYLINE
  5
ADF
330
1F
100
AcDbEntity
  8
ceco.net 104
370
     5
100
AcDbPolyline
 90
        4
 70
     1
 43
0.0
 10
730.4307519438343
 20
367.9504569179201
 10
486.8879616555491
 20
367.9504569179201
 10
486.8879616555491
 20
393.7504435080707
 10
730.4307519438343
 20
393.7504435080707
  0
LWPOLYLINE
  5
AE0
330
1F
100
AcDbEntity
  8
ceco.net 104
370
     5
100
AcDbPolyline
 90
        4
 70
     1
 43
0.0
 10
623.4391722312474
 20
373.3431444173844
 10
593.8795413601003
 20
373.3431444173844
 10
593.8795413601003
 20
384.5969868328749
 10
623.4391722312474
 20
384.5969868328749
  0
LWPOLYLINE
  5
AE1
330
1F
100
AcDbEntity
  8
ceco.net 104
370
     5
100
AcDbPolyline
 90
        4
 70
     1
 43
0.0
 10
730.4307519438343
 20
393.7504435080707
 10
486.8879616555491
 20
393.7504435080707
 10
486.8879616555491
 20
419.5504300983552
 10
730.4307519438343
 20
419.5504300983552
  0
LWPOLYLINE
  5
AE2
330
1F
100
AcDbEntity
  8
ceco.net 104
370
     5
100
AcDbPolyline
 90
        4
 70
     1
 43
0.0
 10
623.4391722312474
 20
399.1431310080707
 10
593.8795413601003
 20
399.1431310080707
 10
593.8795413601003
 20
410.3969734236951
 10
623.4391722312474
 20
410.3969734236951
  0
LWPOLYLINE
  5
AE3
330
1F
100
AcDbEntity
  8
ceco.net 104
370
     5
100
AcDbPolyline
 90
        4
 70
     1
 43
0.0
 10
730.4307519438343
 20
419.5504300983552
 10
486.8879616555491
 20
419.5504300983552
 10
486.8879616555491
 20
445.3504166895771
 10
730.4307519438343
 20
445.3504166895771
  0
LWPOLYLINE
  5
AE4
330
1F
100
AcDbEntity
  8
ceco.net 104
370
     5
100
AcDbPolyline
 90
        4
 70
     1
 43
0.0
 10
623.4391722312474
 20
424.9431175983552
 10
593.8795413601003
 20
424.9431175983552
 10
593.8795413601003
 20
436.1969600143814
 10
623.4391722312474
 20
436.1969600143814
  0
LWPOLYLINE
  5
AE5
330
1F
100
AcDbEntity
  8
ceco.net 104
370
     5
100
AcDbPolyline
 90
        4
 70
     1
 43
0.0
 10
730.4307519438343
 20
445.3504166895771
 10
486.8879616555491
 20
445.3504166895771
 10
486.8879616555491
 20
471.1504032803973
 10
730.4307519438343
 20
471.1504032803973
  0
LWPOLYLINE
  5
AE6
330
1F
100
AcDbEntity
  8
ceco.net 104
370
     5
100
AcDbPolyline
 90
        4
 70
     1
 43
0.0
 10
623.4391722312474
 20
450.7431041895771
 10
593.8795413601003
 20
450.7431041895771
 10
593.8795413601003
 20
461.9969466052016
 10
623.4391722312474
 20
461.9969466052016
  0
LWPOLYLINE
  5
AE7
330
1F
100
AcDbEntity
  8
ceco.net 104
370
     5
100
AcDbPolyline
 90
        4
 70
     1
 43
0.0
 10
730.4307519438343
 20
471.1504032803973
 10
486.8879616555491
 20
471.1504032803973
 10
486.8879616555491
 20
496.9503898706818
 10
730.4307519438343
 20
496.9503898706818
  0
LWPOLYLINE
  5
AE8
330
1F
100
AcDbEntity
  8
ceco.net 104
370
     5
100
AcDbPolyline
 90
        4
 70
     1
 43
0.0
 10
623.4391722312474
 20
476.5430907798616
 10
593.8795413601003
 20
476.5430907798616
 10
593.8795413601003
 20
487.7969331958878
 10
623.4391722312474
 20
487.7969331958878
  0
LWPOLYLINE
  5
AE9
330
1F
100
AcDbEntity
  8
ceco.net 104
370
     5
100
AcDbPolyline
 90
        4
 70
     1
 43
0.0
 10
730.4307519438343
 20
496.9503898706818
 10
486.8879616555491
 20
496.9503898706818
 10
486.8879616555491
 20
522.7503764613681
 10
730.4307519438343
 20
522.7503764613681
  0
LWPOLYLINE
  5
AEA
330
1F
100
AcDbEntity
  8
ceco.net 104
370
     5
100
AcDbPolyline
 90
        4
 70
     1
 43
0.0
 10
623.4391722312474
 20
502.3430773706818
 10
593.8795413601003
 20
502.3430773706818
 10
593.8795413601003
 20
513.5969197861722
 10
623.4391722312474
 20
513.5969197861722
  0
LINE
  5
AEB
330
1F
100
AcDbEntity
  8
ceco.net 104
370
     5
100
AcDbLine
 10
1160.681822929712
 20
64.71225
 30
0.0
 11
1106.132313288445
 21
259.7363193632896
 31
0.0
  0
LINE
  5
AEC
330
1F
100
AcDbEntity
  8
ceco.net 104
370
     5
100
AcDbLine
 10
1062.191324013773
 20
64.71225
 30
0.0
 11
683.1755597357871
 21
1419.760117390282
 31
0.0
  0
LINE
  5
AED
330
1F
100
AcDbEntity
  8
ceco.net 104
370
     5
100
AcDbLine
 10
193.5255170720178
 20
1006.237218019677
 30
0.0
 11
53.926875
 21
53.926875
 31
0.0
  0
LINE
  5
AEE
330
1F
100
AcDbEntity
  8
ceco.net 104
370
     5
100
AcDbLine
 10
136.0401581123443
 20
981.9620457780375
 30
0.0
 11
59.09785765784605
 21
457.0790852616588
 31
0.0
  0
LINE
  5
AEF
330
1F
100
AcDbEntity
  8
ceco.net 104
370
     5
100
AcDbLine
 10
1488.032372658932
 20
422.5529268189692
 30
0.0
 11
1091.606146495922
 21
311.6699147101405
 31
0.0
  0
LINE
  5
AF0
330
1F
100
AcDbEntity
  8
ceco.net 104
370
     5
100
AcDbLine
 10
1345.003631212419
 20
326.5501916298849
 30
0.0
 11
1106.132313288445
 21
259.7363193632896
 31
0.0
  0
LWPOLYLINE
  5
AF1
330
1F
100
AcDbEntity
  8
ceco.net 104
370
     5
100
AcDbPolyline
 90
        4
 70
     1
 43
0.0
 10
1398.930506212419
 20
326.5501916298849
 10
1345.003631212419
 20
326.5501916298849
 10
1345.003631212419
 20
380.4770666298849
 10
1398.930506212419
 20
380.4770666298849
  0
LINE
  5
AF2
330
1F
100
AcDbEntity
  8
ceco.net 104
370
     5
100
AcDbLine
 10
1091.606146495922
 20
311.6699147101405
 30
0.0
 11
1023.164773098474
 21
556.3598347969405
 31
0.0
  0
LINE
  5
AF3
330
1F
100
AcDbEntity
  8
ceco.net 104
370
     5
100
AcDbLine
 10
1398.930506212419
 20
326.5501916298849
 30
0.0
 11
1488.032372658932
 21
326.5501916298849
 31
0.0
  0
LINE
  5
AF4
330
1F
100
AcDbEntity
  8
ceco.net 104
370
     5
100
AcDbLine
 10
1488.032372658932
 20
326.5501916298849
 30
0.0
 11
1488.032372658932
 21
422.5529268189692
 31
0.0
  0
CIRCLE
  5
AF5
330
1F
100
AcDbEntity
  8
ceco.net 104
370
     5
100
AcDbCircle
 10
1010.470143205159
 20
601.7453643339175
 30
0.0
 40
47.12748581733899
  0
LINE
  5
AF6
330
1F
100
AcDbEntity
  8
ceco.net 104
370
     5
100
AcDbLine
 10
997.7755133118447
 20
647.1308938710284
 30
0.0
 11
714.217565369975
 21
1660.900316805168
 31
0.0
  0
LWPOLYLINE
  5
AF7
330
1F
100
AcDbEntity
  8
ceco.net 104
370
     5
100
AcDbPolyline
 90
        8
 70
     0
 43
0.0
 10
891.9614337569539
 20
1025.43479663679
 10
912.8297235583804
 20
1031.271793985645
 42
-0.3746463844322656
 10
951.2238908278337
 20
1012.999903157167
 10
1019.074815256383
 20
856.7561248816794
 42
-0.1013400042818302
 10
1021.751945679054
 20
844.0525974558241
 10
1022.606290330072
 20
694.4207443342231
 42
-0.3379974123264915
 10
998.9663928002261
 20
663.0758481722828
 10
993.725620891127
 20
661.6099699424498
  0
LINE
  5
AF8
330
1F
100
AcDbEntity
  8
ceco.net 104
370
     5
100
AcDbLine
 10
1486.722441403393
 20
433.3858623353978
 30
0.0
 11
1151.839717990175
 21
339.7169710631167
 31
0.0
  0
CIRCLE
  5
AF9
330
1F
100
AcDbEntity
  8
ceco.net 104
370
     5
100
AcDbCircle
 10
1520.310130506366
 20
466.4444022325401
 30
0.0
 40
47.12748581733899
  0
LINE
  5
AFA
330
1F
100
AcDbEntity
  8
ceco.net 104
370
     5
100
AcDbLine
 10
1477.691277693218
 20
486.559901336878
 30
0.0
 11
1121.456085346465
 21
419.1727676858591
 31
0.0
  0
LINE
  5
AFB
330
1F
100
AcDbEntity
  8
ceco.net 104
370
     5
100
AcDbLine
 10
1095.113943622519
 20
387.3804599659651
 30
0.0
 11
1095.113943622519
 21
366.5794545966083
 31
0.0
  0
LINE
  5
AFC
330
1F
100
AcDbEntity
  8
ceco.net 104
370
     5
100
AcDbLine
 10
1095.113943622519
 20
366.5794545966083
 30
0.0
 11
1111.377634497835
 21
364.2572897654825
 31
0.0
  0
LINE
  5
AFD
330
1F
100
AcDbEntity
  8
ceco.net 104
370
     5
100
AcDbLine
 10
1111.377634497835
 20
364.2572897654825
 30
0.0
 11
1111.96386070639
 21
362.1614281961419
 31
0.0
  0
ARC
  5
AFE
330
1F
100
AcDbEntity
  8
ceco.net 104
370
     5
100
AcDbCircle
 10
1143.124017913054
 20
370.877128271254
 30
0.0
 40
32.356125
100
AcDbArc
 50
195.6266541685663
 51
285.6266541814134
  0
ARC
  5
AFF
330
1F
100
AcDbEntity
  8
ceco.net 104
370
     5
100
AcDbCircle
 10
1127.470068622519
 20
387.3804599659651
 30
0.0
 40
32.356125
100
AcDbArc
 50
100.7117699960442
 51
180.0
  0
LWPOLYLINE
  5
B00
330
1F
100
AcDbEntity
  8
ceco.net 104
370
     5
100
AcDbPolyline
 90
        4
 70
     1
 43
0.0
 10
736.6678826042509
 20
1673.460139704173
 10
467.033507604251
 20
1673.460139704173
 10
467.033507604251
 20
1727.387014704174
 10
736.6678826042509
 20
1727.387014704174
  0
LINE
  5
B01
330
1F
100
AcDbEntity
  8
ceco.net 104
370
     5
100
AcDbLine
 10
683.1755597357871
 20
1641.763334505678
 30
0.0
 11
683.1755597357871
 21
1419.760117390282
 31
0.0
  0
LWPOLYLINE
  5
B02
330
1F
100
AcDbEntity
  8
ceco.net 104
370
     5
100
AcDbPolyline
 90
        4
 70
     1
 43
0.0
 10
730.4307519438343
 20
1017.101080270253
 10
486.8879616555491
 20
1017.101080270253
 10
486.8879616555491
 20
1042.901066861073
 10
730.4307519438343
 20
1042.901066861073
  0
LWPOLYLINE
  5
B03
330
1F
100
AcDbEntity
  8
ceco.net 104
370
     5
100
AcDbPolyline
 90
        4
 70
     1
 43
0.0
 10
623.4391722312474
 20
1022.493767770253
 10
593.8795413601003
 20
1022.493767770253
 10
593.8795413601003
 20
1033.747610186413
 10
623.4391722312474
 20
1033.747610186413
  0
LWPOLYLINE
  5
B04
330
1F
100
AcDbEntity
  8
ceco.net 104
370
     5
100
AcDbPolyline
 90
        4
 70
     1
 43
0.0
 10
703.8250039687113
 20
1042.901066861073
 10
514.0726984183097
 20
1042.901066861073
 10
514.0726984183097
 20
1066.715709260272
 10
703.8250039687113
 20
1066.715709260272
  0
LWPOLYLINE
  5
B05
330
1F
100
AcDbEntity
  8
ceco.net 104
370
     5
100
AcDbPolyline
 90
        4
 70
     1
 43
0.0
 10
689.131863502093
 20
1066.715709260272
 10
640.5730797799259
 20
1066.715709260272
 10
640.5730797799259
 20
1099.923377943427
 10
689.131863502093
 20
1099.923377943427
  0
LWPOLYLINE
  5
B06
330
1F
100
AcDbEntity
  8
ceco.net 104
370
     5
100
AcDbPolyline
 90
        4
 70
     1
 43
0.0
 10
528.1868501053263
 20
1066.715709260272
 10
576.7456338114218
 20
1066.715709260272
 10
576.7456338114218
 20
1099.923377943427
 10
528.1868501053263
 20
1099.923377943427
  0
LWPOLYLINE
  5
B07
330
1F
100
AcDbEntity
  8
ceco.net 104
370
     5
100
AcDbPolyline
 90
        4
 70
     1
 43
0.0
 10
584.669459336445
 20
1066.715709260272
 10
633.2282430505762
 20
1066.715709260272
 10
633.2282430505762
 20
1099.923377943427
 10
584.669459336445
 20
1099.923377943427
  0
LINE
  5
B08
330
1F
100
AcDbEntity
  8
ceco.net 104
370
     5
100
AcDbLine
 10
615.4200761854748
 20
1673.460139704173
 30
0.0
 11
615.4200761854748
 21
1099.923377943427
 31
0.0
  0
LINE
  5
B09
330
1F
100
AcDbEntity
  8
ceco.net 104
370
     5
100
AcDbLine
 10
602.4776261935105
 20
1673.460139704173
 30
0.0
 11
602.4776261935105
 21
1099.923377943427
 31
0.0
  0
LINE
  5
B0A
330
1F
100
AcDbEntity
  8
ceco.net 104
370
     5
100
AcDbLine
 10
658.3812466450273
 20
1673.460139704173
 30
0.0
 11
658.3812466450273
 21
1099.923377943427
 31
0.0
  0
LINE
  5
B0B
330
1F
100
AcDbEntity
  8
ceco.net 104
370
     5
100
AcDbLine
 10
671.3236966369915
 20
1673.460139704173
 30
0.0
 11
671.3236966369915
 21
1099.923377943427
 31
0.0
  0
LINE
  5
B0C
330
1F
100
AcDbEntity
  8
ceco.net 104
370
     5
100
AcDbLine
 10
545.9950169623919
 20
1673.460139704173
 30
0.0
 11
545.9950169623919
 21
1099.923377943427
 31
0.0
  0
LINE
  5
B0D
330
1F
100
AcDbEntity
  8
ceco.net 104
370
     5
100
AcDbLine
 10
558.9374669623919
 20
1673.460139704173
 30
0.0
 11
558.9374669623919
 21
1099.923377943427
 31
0.0
  0
LINE
  5
B0E
330
1F
100
AcDbEntity
  8
ceco.net 104
370
     5
100
AcDbLine
 10
658.3812466450273
 20
1017.101080270253
 30
0.0
 11
658.3812466450273
 21
522.7503764613681
 31
0.0
  0
LINE
  5
B0F
330
1F
100
AcDbEntity
  8
ceco.net 104
370
     5
100
AcDbLine
 10
671.3236966369915
 20
1017.101080270253
 30
0.0
 11
671.3236966369915
 21
522.7503764613681
 31
0.0
  0
LINE
  5
B10
330
1F
100
AcDbEntity
  8
ceco.net 104
370
     5
100
AcDbLine
 10
545.9950169623919
 20
1017.101080270253
 30
0.0
 11
545.9950169623919
 21
522.7503764613681
 31
0.0
  0
LINE
  5
B11
330
1F
100
AcDbEntity
  8
ceco.net 104
370
     5
100
AcDbLine
 10
558.9374669623919
 20
1017.101080270253
 30
0.0
 11
558.9374669623919
 21
522.7503764613681
 31
0.0
  0
LINE
  5
B12
330
1F
100
AcDbEntity
  8
ceco.net 104
370
     5
100
AcDbLine
 10
602.4776261935105
 20
1017.101080270253
 30
0.0
 11
602.4776261935105
 21
522.7503764613681
 31
0.0
  0
LINE
  5
B13
330
1F
100
AcDbEntity
  8
ceco.net 104
370
     5
100
AcDbLine
 10
615.4200761854748
 20
1017.101080270253
 30
0.0
 11
615.4200761854748
 21
522.7503764613681
 31
0.0
  0
LINE
  5
B14
330
1F
100
AcDbEntity
  8
ceco.net 104
370
     5
100
AcDbLine
 10
1093.539926213938
 20
2008.779318187873
 30
0.0
 11
637.094843454575
 21
1727.387014704174
 31
0.0
  0
LINE
  5
B15
330
1F
100
AcDbEntity
  8
ceco.net 104
370
     5
100
AcDbLine
 10
1144.479243246991
 20
1926.150900525867
 30
0.0
 11
942.0812330998797
 21
1801.375227730671
 31
0.0
  0
LINE
  5
B16
330
1F
100
AcDbEntity
  8
ceco.net 104
370
     5
100
AcDbLine
 10
1027.847234951128
 20
1443.451966520947
 30
0.0
 11
995.8746293033511
 21
1434.509019296556
 31
0.0
  0
LINE
  5
B17
330
1F
100
AcDbEntity
  8
ceco.net 104
370
     5
100
AcDbLine
 10
1013.321068158605
 20
1495.385561867262
 30
0.0
 11
788.5439428222715
 21
1432.513927585628
 31
0.0
  0
LINE
  5
B18
330
1F
100
AcDbEntity
  8
ceco.net 104
370
     5
100
AcDbLine
 10
1027.847234951128
 20
1443.451966520947
 30
0.0
 11
1013.321068158605
 21
1495.385561867262
 31
0.0
  0
LINE
  5
B19
330
1F
100
AcDbEntity
  8
ceco.net 104
370
     5
100
AcDbLine
 10
991.1715958438291
 20
1489.190209378431
 30
0.0
 11
931.3849302757912
 21
1869.39724481836
 31
0.0
  0
LINE
  5
B1A
330
1F
100
AcDbEntity
  8
ceco.net 104
370
     5
100
AcDbLine
 10
931.3849302757912
 20
1869.39724481836
 30
0.0
 11
878.9976101279247
 21
1868.951426313322
 31
0.0
  0
LINE
  5
B1B
330
1F
100
AcDbEntity
  8
ceco.net 104
370
     5
100
AcDbLine
 10
940.9242124835527
 20
1475.135687123953
 30
0.0
 11
878.9976101279247
 21
1868.951426313322
 31
0.0
  0
LINE
  5
B1C
330
1F
100
AcDbEntity
  8
ceco.net 104
370
     5
100
AcDbLine
 10
1144.479243246991
 20
1926.150900525867
 30
0.0
 11
1093.539926213938
 21
2008.779318187873
 31
0.0
  0
ARC
  5
B1D
330
1F
100
AcDbEntity
  8
ceco.net 104
370
     5
100
AcDbCircle
 10
928.7638792640901
 20
1687.279273828946
 30
0.0
 40
48.38227442667979
100
AcDbArc
 50
124.5839043888771
 51
253.2889954073323
  0
CIRCLE
  5
B1E
330
1F
100
AcDbEntity
  8
ceco.net 104
370
     5
100
AcDbCircle
 10
928.7638792640901
 20
1687.279273828946
 30
0.0
 40
12.4338999455434
  0
CIRCLE
  5
B1F
330
1F
100
AcDbEntity
  8
ceco.net 104
370
     5
100
AcDbCircle
 10
953.6430618920212
 20
1541.805965232448
 30
0.0
 40
12.4338999455434
  0
ARC
  5
B20
330
1F
100
AcDbEntity
  8
ceco.net 104
370
     5
100
AcDbCircle
 10
953.6430618920212
 20
1541.805965232448
 30
0.0
 40
48.38227442667979
100
AcDbArc
 50
315.6146648604428
 51
62.25823494220965
  0
ARC
  5
B21
330
1F
100
AcDbEntity
  8
ceco.net 104
370
     5
100
AcDbCircle
 10
953.6430618920212
 20
1541.805965232448
 30
0.0
 40
48.38227442667979
100
AcDbArc
 50
127.2142303093168
 51
250.6586694927424
  0
ARC
  5
B22
330
1F
100
AcDbEntity
  8
ceco.net 104
370
     5
100
AcDbCircle
 10
928.7638792640901
 20
1687.279273828946
 30
0.0
 40
48.38227442667979
100
AcDbArc
 50
318.5967416929385
 51
59.27615811690148
  0
CIRCLE
  5
B23
330
1F
100
AcDbEntity
  8
ceco.net 104
370
     5
100
AcDbCircle
 10
906.374001692477
 20
1840.212447998039
 30
0.0
 40
12.4338999455434
  0
CIRCLE
  5
B24
330
1F
100
AcDbEntity
  8
ceco.net 104
370
     5
100
AcDbCircle
 10
1059.379588072782
 20
1917.301678869987
 30
0.0
 40
12.4338999455434
  0
CIRCLE
  5
B25
330
1F
100
AcDbEntity
  8
ceco.net 104
370
     5
100
AcDbCircle
 10
811.8358812853527
 20
1769.342539074748
 30
0.0
 40
12.4338999455434
  0
ARC
  5
B26
330
1F
100
AcDbEntity
  8
ceco.net 104
370
     5
100
AcDbCircle
 10
741.0501689459043
 20
1451.708816141486
 30
0.0
 40
51.22599245772526
100
AcDbArc
 50
322.17993421816
 51
69.07337414661244
  0
CIRCLE
  5
B27
330
1F
100
AcDbEntity
  8
ceco.net 104
370
     5
100
AcDbCircle
 10
739.6529684751167
 20
1451.708816141486
 30
0.0
 40
8.493529540081217
  0
CIRCLE
  5
B28
330
1F
100
AcDbEntity
  8
ceco.net 104
370
     5
100
AcDbCircle
 10
710.3152255241732
 20
1567.60120786986
 30
0.0
 40
8.493529540081217
  0
ARC
  5
B29
330
1F
100
AcDbEntity
  8
ceco.net 104
370
     5
100
AcDbCircle
 10
711.7124259949608
 20
1567.60120786986
 30
0.0
 40
51.22599245772526
100
AcDbArc
 50
318.154001847208
 51
73.09930648487299
  0
LINE
  5
B2A
330
1F
100
AcDbEntity
  8
ceco.net 104
370
     5
100
AcDbLine
 10
993.1925479626116
 20
1465.693020209889
 30
0.0
 11
1040.241755290719
 21
918.661690411327
 31
0.0
  0
LINE
  5
B2B
330
1F
100
AcDbEntity
  8
ceco.net 104
370
     5
100
AcDbLine
 10
960.9554389707684
 20
1462.920362883405
 30
0.0
 11
1008.935471425422
 21
905.0665231442746
 31
0.0
  0
LINE
  5
B2C
330
1F
100
AcDbEntity
  8
ceco.net 104
370
     5
100
AcDbLine
 10
960.9554389707684
 20
1462.920362883405
 30
0.0
 11
993.1925479626116
 21
1465.693020209889
 31
0.0
  0
LINE
  5
B2D
330
1F
100
AcDbEntity
  8
ceco.net 104
370
     5
100
AcDbLine
 10
964.1619627689614
 20
1425.638778744018
 30
0.0
 11
793.3827955168599
 21
1377.870727033821
 31
0.0
  0
LINE
  5
B2E
330
1F
100
AcDbEntity
  8
ceco.net 104
370
     5
100
AcDbLine
 10
1040.241755290719
 20
918.661690411327
 30
0.0
 11
1008.935471425422
 21
905.0665231442746
 31
0.0
  0
LINE
  5
B2F
330
1F
100
AcDbEntity
  8
ceco.net 104
370
     5
100
AcDbLine
 10
1053.13002166127
 20
888.9832232215391
 30
0.0
 11
1021.823737812044
 21
875.3880559544867
 31
0.0
  0
LINE
  5
B30
330
1F
100
AcDbEntity
  8
ceco.net 104
370
     5
100
AcDbLine
 10
1053.13002166127
 20
888.9832232215391
 30
0.0
 11
1040.241755290719
 21
918.661690411327
 31
0.0
  0
LINE
  5
B31
330
1F
100
AcDbEntity
  8
ceco.net 104
370
     5
100
AcDbLine
 10
1008.935471425422
 20
905.0665231442746
 30
0.0
 11
1021.823737812044
 21
875.3880559544867
 31
0.0
  0
CIRCLE
  5
B32
330
1F
100
AcDbEntity
  8
ceco.net 104
370
     5
100
AcDbCircle
 10
1567.305297811566
 20
221.2460926029613
 30
0.0
 40
47.12748581733899
  0
LINE
  5
B33
330
1F
100
AcDbEntity
  8
ceco.net 104
370
     5
100
AcDbLine
 10
1674.1928675598
 20
417.9279982864366
 30
0.0
 11
1576.972515833061
 21
267.3714090272812
 31
0.0
  0
LINE
  5
B34
330
1F
100
AcDbEntity
  8
ceco.net 104
370
     5
100
AcDbLine
 10
1706.5489925598
 20
408.3891369767155
 30
0.0
 11
1604.154096040318
 21
249.8191862991233
 31
0.0
  0
LINE
  5
B35
330
1F
100
AcDbEntity
  8
ceco.net 104
370
     5
100
AcDbLine
 10
1674.1928675598
 20
417.9279982864366
 30
0.0
 11
1674.1928675598
 21
505.3424421430738
 31
0.0
  0
LINE
  5
B36
330
1F
100
AcDbEntity
  8
ceco.net 104
370
     5
100
AcDbLine
 10
1706.5489925598
 20
408.3891369767155
 30
0.0
 11
1706.5489925598
 21
546.8951690860629
 31
0.0
  0
LINE
  5
B37
330
1F
100
AcDbEntity
  8
ceco.net 104
370
     5
100
AcDbLine
 10
1674.1928675598
 20
505.3424421430738
 30
0.0
 11
1663.263284046125
 21
502.57969315725
 31
0.0
  0
LINE
  5
B38
330
1F
100
AcDbEntity
  8
ceco.net 104
370
     5
100
AcDbLine
 10
1706.5489925598
 20
546.8951690860629
 30
0.0
 11
1664.796920711266
 21
536.341199300018
 31
0.0
  0
CIRCLE
  5
B39
330
1F
100
AcDbEntity
  8
ceco.net 104
370
     5
100
AcDbCircle
 10
1157.426311156349
 20
33.46858607990867
 30
0.0
 40
8.493529540081217
  0
CIRCLE
  5
B3A
330
1F
100
AcDbEntity
  8
ceco.net 104
370
     5
100
AcDbCircle
 10
1064.604355104803
 20
33.46858607990867
 30
0.0
 40
8.493529540081217
  0
CIRCLE
  5
B3B
330
1F
100
AcDbEntity
  8
ceco.net 104
370
     5
100
AcDbCircle
 10
440.4232451476578
 20
28.63924226325139
 30
0.0
 40
8.493529540081217
  0
CIRCLE
  5
B3C
330
1F
100
AcDbEntity
  8
ceco.net 104
370
     5
100
AcDbCircle
 10
70.36273849834045
 20
24.31275742874525
 30
0.0
 40
8.493529540081217
  0
CIRCLE
  5
B3D
330
1F
100
AcDbEntity
  8
ceco.net 104
370
     5
100
AcDbCircle
 10
1268.05477250088
 20
21.58972859707721
 30
0.0
 40
8.493529540081217
  0
LINE
  5
B3E
330
1F
100
AcDbEntity
  8
ceco.net 104
370
     5
100
AcDbLine
 10
1291.076756220455
 20
0.0
 30
0.0
 11
1291.076756220455
 21
53.926875
 31
0.0
  0
LINE
  5
B3F
330
1F
100
AcDbEntity
  8
ceco.net 104
370
     5
100
AcDbLine
 10
38.76190316915419
 20
318.351806032335
 30
0.0
 11
-14.03054322115089
 21
326.0906213053713
 31
0.0
  0
LINE
  5
B40
330
1F
100
AcDbEntity
  8
ceco.net 104
370
     5
100
AcDbLine
 10
-224.2858465880523
 20
444.1169461697935
 30
0.0
 11
-232.1073675396783
 21
390.7603003125363
 31
0.0
  0
LINE
  5
B41
330
1F
100
AcDbEntity
  8
ceco.net 104
370
     5
100
AcDbLine
 10
-9.337630643746722
 20
358.1046088195113
 30
0.0
 11
-232.1073675396783
 21
390.7603003125363
 31
0.0
  0
LINE
  5
B42
330
1F
100
AcDbEntity
  8
ceco.net 104
370
     5
100
AcDbLine
 10
51.27633669818434
 20
403.7224394044017
 30
0.0
 11
-224.2858465880523
 21
444.1169461697935
 31
0.0
  0
LINE
  5
B43
330
1F
100
AcDbEntity
  8
ceco.net 104
370
     5
100
AcDbLine
 10
-14.03054322115089
 20
326.0906213053713
 30
0.0
 11
-9.337630643746722
 21
358.1046088195113
 31
0.0
  0
LINE
  5
B44
330
1F
100
AcDbEntity
  8
ceco.net 104
370
     5
100
AcDbLine
 10
59.09785765784605
 20
457.0790852616588
 30
0.0
 11
-216.4643256203549
 21
497.4735920271845
 31
0.0
  0
ARC
  5
B45
330
1F
100
AcDbEntity
  8
ceco.net 104
370
     5
100
AcDbCircle
 10
55.18709718605093
 20
430.4007623327623
 30
0.0
 40
26.9634375
100
AcDbArc
 50
261.6604399346243
 51
81.66043993462439
  0
ARC
  5
B46
330
1F
100
AcDbEntity
  8
ceco.net 104
370
     5
100
AcDbCircle
 10
-220.3750861082215
 20
470.7952690982881
 30
0.0
 40
26.9634375
100
AcDbArc
 50
81.66043993462439
 51
261.6604399346243
  0
LINE
  5
B47
330
1F
100
AcDbEntity
  8
ceco.net 104
370
     5
100
AcDbLine
 10
51.27633669818434
 20
403.7224394044017
 30
0.0
 11
0.0
 21
53.926875
 31
0.0
  0
LINE
  5
B48
330
1F
100
AcDbEntity
  8
ceco.net 104
370
     5
100
AcDbLine
 10
127.0213437611245
 20
927.8739050260005
 30
0.0
 11
78.42637608437882
 21
596.3700332722608
 31
0.0
  0
LINE
  5
B49
330
1F
100
AcDbEntity
  8
ceco.net 104
370
     5
100
AcDbLine
 10
84.33602707489029
 20
934.1311217929263
 30
0.0
 11
35.74105939814457
 21
602.6272500391867
 31
0.0
  0
ARC
  5
B4A
330
1F
100
AcDbEntity
  8
ceco.net 104
370
     5
100
AcDbCircle
 10
57.0837177412617
 20
599.4986416559917
 30
0.0
 40
21.57074999999978
100
AcDbArc
 50
171.6604399214252
 51
351.6604399214252
  0
ARC
  5
B4B
330
1F
100
AcDbEntity
  8
ceco.net 104
370
     5
100
AcDbCircle
 10
105.6786854180074
 20
931.0025134091956
 30
0.0
 40
21.57074999999977
100
AcDbArc
 50
351.6604399214252
 51
171.6604399214252
  0
LINE
  5
B4C
330
1F
100
AcDbEntity
  8
ceco.net 104
370
     5
100
AcDbLine
 10
349.1926415041085
 20
1549.899148485639
 30
0.0
 11
286.6826550492569
 21
1549.899148485639
 31
0.0
  0
LINE
  5
B4D
330
1F
100
AcDbEntity
  8
ceco.net 104
370
     5
100
AcDbLine
 10
286.6826550492569
 20
1549.899148485639
 30
0.0
 11
286.6826550492569
 21
1448.447348681322
 31
0.0
  0
LINE
  5
B4E
330
1F
100
AcDbEntity
  8
ceco.net 104
370
     5
100
AcDbLine
 10
286.6826550492569
 20
1448.447348681322
 30
0.0
 11
369.5986421865384
 21
1448.447348681322
 31
0.0
  0
ARC
  5
B4F
330
1F
100
AcDbEntity
  8
ceco.net 104
370
     5
100
AcDbCircle
 10
414.0393850847027
 20
1415.460273797177
 30
0.0
 40
51.41970298000495
100
AcDbArc
 50
145.1718314534104
 51
90.69954232930482
  0
ARC
  5
B50
330
1F
100
AcDbEntity
  8
ceco.net 104
370
     5
100
AcDbCircle
 10
558.9374669623919
 20
1505.706857397003
 30
0.0
 40
51.41970298000495
100
AcDbArc
 50
32.13897730075029
 51
90.69954232930482
  0
LINE
  5
B51
330
1F
100
AcDbEntity
  8
ceco.net 104
370
     5
100
AcDbLine
 10
434.0231655650521
 20
1433.442226388973
 30
0.0
 11
409.5782326680444
 21
1473.094232788309
 31
0.0
  0
LINE
  5
B52
330
1F
100
AcDbEntity
  8
ceco.net 104
370
     5
100
AcDbLine
 10
394.0435750835462
 20
1408.795342282522
 30
0.0
 11
369.5986421865384
 21
1448.447348681322
 31
0.0
  0
ARC
  5
B53
330
1F
100
AcDbEntity
  8
ceco.net 104
370
     5
100
AcDbCircle
 10
414.0333703242991
 20
1421.118784336283
 30
0.0
 40
23.48316711295507
100
AcDbArc
 50
211.6532782671041
 51
31.65327826710413
  0
LINE
  5
B54
330
1F
100
AcDbEntity
  8
ceco.net 104
370
     5
100
AcDbLine
 10
578.9212474347055
 20
1523.688809988799
 30
0.0
 11
558.3096831133684
 21
1557.122727923585
 31
0.0
  0
ARC
  5
B55
330
1F
100
AcDbEntity
  8
ceco.net 104
370
     5
100
AcDbCircle
 10
558.9314522019884
 20
1511.365367935574
 30
0.0
 40
23.48316711295507
100
AcDbArc
 50
270.0146752218815
 51
31.65327826710413
  0
LINE
  5
B56
330
1F
100
AcDbEntity
  8
ceco.net 104
370
     5
100
AcDbLine
 10
538.9416569612355
 20
1499.041925882348
 30
0.0
 11
514.4967240642277
 21
1538.693932281684
 31
0.0
  0
ARC
  5
B57
330
1F
100
AcDbEntity
  8
ceco.net 104
370
     5
100
AcDbCircle
 10
558.9314522019884
 20
1511.365367935574
 30
0.0
 40
23.48316711295507
100
AcDbArc
 50
211.6532782671041
 51
236.5725121334534
  0
LINE
  5
B58
330
1F
100
AcDbEntity
  8
ceco.net 104
370
     5
100
AcDbLine
 10
545.9950169623919
 20
1557.193360188734
 30
0.0
 11
409.5782326680444
 21
1473.094232788309
 31
0.0
  0
ARC
  5
B59
330
1F
100
AcDbEntity
  8
ceco.net 104
370
     5
100
AcDbCircle
 10
558.9374669623919
 20
1505.706857397003
 30
0.0
 40
51.41970298000495
100
AcDbArc
 50
145.1718314534104
 51
327.8610226992497
  0
LINE
  5
B5A
330
1F
100
AcDbEntity
  8
ceco.net 104
370
     5
100
AcDbLine
 10
602.4776261935105
 20
1592.014135170801
 30
0.0
 11
558.9374669623919
 21
1565.172207931022
 31
0.0
  0
ELLIPSE
  5
B5B
330
1F
100
AcDbEntity
  8
ceco.net 104
370
     5
100
AcDbEllipse
 10
308.4450058509391
 20
1396.335028611919
 30
0.0
 11
0.0
 21
-46.17051935150739
 31
0.0
210
0.0
220
0.0
230
-1.0
 40
0.5504934271086693
 41
0.0
 42
6.283185307179585
  0
ELLIPSE
  5
B5C
330
1F
100
AcDbEntity
  8
ceco.net 104
370
     5
100
AcDbEllipse
 10
294.6740870318239
 20
1396.335028611919
 30
0.0
 11
0.0
 21
-46.17051935150739
 31
0.0
210
0.0
220
0.0
230
-1.0
 40
0.5504934271086693
 41
6.268565369123566
 42
9.424777960769381
  0
LINE
  5
B5D
330
1F
100
AcDbEntity
  8
ceco.net 104
370
     5
100
AcDbLine
 10
308.4450058509391
 20
1442.505547963336
 30
0.0
 11
294.6740870318239
 21
1442.505547963336
 31
0.0
  0
LINE
  5
B5E
330
1F
100
AcDbEntity
  8
ceco.net 104
370
     5
100
AcDbLine
 10
310.8974451129036
 20
1350.379942091463
 30
0.0
 11
294.6740870318239
 21
1350.164509260502
 31
0.0
  0
LINE
  5
B5F
330
1F
100
AcDbEntity
  8
ceco.net 104
370
     5
100
AcDbLine
 10
286.6826550492569
 20
1521.411712708291
 30
0.0
 11
37.25444161866652
 21
1528.083451414866
 31
0.0
  0
LINE
  5
B60
330
1F
100
AcDbEntity
  8
ceco.net 104
370
     5
100
AcDbLine
 10
34.34755606252792
 20
1419.407242418198
 30
0.0
 11
37.25444161866652
 21
1528.083451414866
 31
0.0
  0
LINE
  5
B61
330
1F
100
AcDbEntity
  8
ceco.net 104
370
     5
100
AcDbLine
 10
285.2407276137205
 20
1467.504118692454
 30
0.0
 11
89.72010821102045
 21
1472.733929974073
 31
0.0
  0
LINE
  5
B62
330
1F
100
AcDbEntity
  8
ceco.net 104
370
     5
100
AcDbLine
 10
88.25515007434681
 20
1417.965314992706
 30
0.0
 11
89.72010821102045
 21
1472.733929974073
 31
0.0
  0
LINE
  5
B63
330
1F
100
AcDbEntity
  8
ceco.net 104
370
     5
100
AcDbLine
 10
34.34755606252792
 20
1419.407242418198
 30
0.0
 11
88.25515007434681
 21
1417.965314992706
 31
0.0
  0
ARC
  5
B64
330
1F
100
AcDbEntity
  8
ceco.net 104
370
     5
100
AcDbCircle
 10
284.8659477292089
 20
378.7856448145383
 30
0.0
 40
45.67173888786773
100
AcDbArc
 50
300.2892239445248
 51
243.3477965445151
  0
ARC
  5
B65
330
1F
100
AcDbEntity
  8
ceco.net 104
370
     5
100
AcDbCircle
 10
281.2464010886457
 20
272.433341902882
 30
0.0
 40
45.67173888786773
100
AcDbArc
 50
112.6967823358066
 51
55.73599383253007
  0
LINE
  5
B66
330
1F
100
AcDbEntity
  8
ceco.net 104
370
     5
100
AcDbLine
 10
307.901184795285
 20
339.3485355626676
 30
0.0
 11
306.9599085904167
 21
310.1788484587269
 31
0.0
  0
LINE
  5
B67
330
1F
100
AcDbEntity
  8
ceco.net 104
370
     5
100
AcDbLine
 10
264.3788120430688
 20
337.9667153275132
 30
0.0
 11
263.6237673173943
 21
314.5682503740415
 31
0.0
  0
ARC
  5
B68
330
1F
100
AcDbEntity
  8
ceco.net 104
370
     5
100
AcDbCircle
 10
363.1438442528645
 20
109.5852996904179
 30
0.0
 40
45.76870409590692
100
AcDbArc
 50
302.5822490471138
 51
238.7624555990534
  0
LINE
  5
B69
330
1F
100
AcDbEntity
  8
ceco.net 104
370
     5
100
AcDbLine
 10
387.7907379770139
 20
108.4230382516397
 30
0.0
 11
387.7907379770139
 21
53.926875
 31
0.0
  0
LINE
  5
B6A
330
1F
100
AcDbEntity
  8
ceco.net 104
370
     5
100
AcDbLine
 10
339.4087711846045
 20
108.4230382516397
 30
0.0
 11
339.4087711846045
 21
53.926875
 31
0.0
  0
ARC
  5
B6B
330
1F
100
AcDbEntity
  8
ceco.net 104
370
     5
100
AcDbCircle
 10
363.599754584827
 20
108.4230382516397
 30
0.0
 40
24.19098339071936
100
AcDbArc
 50
0.0
 51
180.0
  0
LINE
  5
B6C
330
1F
100
AcDbEntity
  8
ceco.net 104
370
     5
100
AcDbLine
 10
-14.14048237341279
 20
1003.976942111293
 30
0.0
 11
188.8326045026494
 21
974.2232305050011
 31
0.0
  0
LINE
  5
B6D
330
1F
100
AcDbEntity
  8
ceco.net 104
370
     5
100
AcDbLine
 10
-9.447569796008615
 20
1035.990929625433
 30
0.0
 11
193.5255170720178
 21
1006.237218019677
 31
0.0
  0
LINE
  5
B6E
330
1F
100
AcDbEntity
  8
ceco.net 104
370
     5
100
AcDbLine
 10
-9.447569796008615
 20
1035.990929625433
 30
0.0
 11
-14.14048237341279
 21
1003.976942111293
 31
0.0
  0
LINE
  5
B6F
330
1F
100
AcDbEntity
  8
ceco.net 104
370
     5
100
AcDbLine
 10
42.00523315265122
 20
1171.519830606911
 30
0.0
 11
25.38443750453581
 21
1058.136524226637
 31
0.0
  0
LINE
  5
B70
330
1F
100
AcDbEntity
  8
ceco.net 104
370
     5
100
AcDbLine
 10
15.32691022777268
 20
1175.430591086206
 30
0.0
 11
-1.293885420342721
 21
1062.047284706467
 31
0.0
  0
LINE
  5
B71
330
1F
100
AcDbEntity
  8
ceco.net 104
370
     5
100
AcDbLine
 10
15.32691022777268
 20
1175.430591086206
 30
0.0
 11
42.00523315265122
 21
1171.519830606911
 31
0.0
  0
LINE
  5
B72
330
1F
100
AcDbEntity
  8
ceco.net 104
370
     5
100
AcDbLine
 10
-1.293885420342721
 20
1062.047284706467
 30
0.0
 11
25.38443750453581
 21
1058.136524226637
 31
0.0
  0
LINE
  5
B73
330
1F
100
AcDbEntity
  8
ceco.net 104
370
     5
100
AcDbLine
 10
22.71660520963724
 20
1058.527600274352
 30
0.0
 11
18.80584472980638
 21
1031.849277345991
 31
0.0
  0
LINE
  5
B74
330
1F
100
AcDbEntity
  8
ceco.net 104
370
     5
100
AcDbLine
 10
1.373946866520121
 20
1061.656208658217
 30
0.0
 11
-2.536813613310735
 21
1034.977885729722
 31
0.0
  0
LINE
  5
B75
330
1F
100
AcDbEntity
  8
ceco.net 104
370
     5
100
AcDbLine
 10
-11.14048666251003
 20
976.285575286686
 30
0.0
 11
-7.229726182679179
 21
1002.963898215582
 31
0.0
  0
LINE
  5
B76
330
1F
100
AcDbEntity
  8
ceco.net 104
370
     5
100
AcDbLine
 10
10.20217168060708
 20
973.1569669029553
 30
0.0
 11
14.11293215240221
 21
999.8352898318517
 31
0.0
  0
LINE
  5
B77
330
1F
100
AcDbEntity
  8
ceco.net 104
370
     5
100
AcDbLine
 10
-13.8083189574086
 20
976.6766513345352
 30
0.0
 11
12.87000396746993
 21
972.7658908551061
 31
0.0
  0
LINE
  5
B78
330
1F
100
AcDbEntity
  8
ceco.net 104
370
     5
100
AcDbLine
 10
-30.42911460552401
 20
863.2933449542614
 30
0.0
 11
-13.8083189574086
 21
976.6766513345352
 31
0.0
  0
LINE
  5
B79
330
1F
100
AcDbEntity
  8
ceco.net 104
370
     5
100
AcDbLine
 10
-3.750791672609746
 20
859.3825844749661
 30
0.0
 11
12.87000396746993
 21
972.7658908551061
 31
0.0
  0
LINE
  5
B7A
330
1F
100
AcDbEntity
  8
ceco.net 104
370
     5
100
AcDbLine
 10
-3.750791672609746
 20
859.3825844749661
 30
0.0
 11
-30.42911460552401
 21
863.2933449542614
 31
0.0
  0
ARC
  5
B7B
330
1F
100
AcDbEntity
  8
ceco.net 104
370
     5
100
AcDbCircle
 10
1062.554919214011
 20
1909.105395275581
 30
0.0
 40
47.88689133910255
100
AcDbArc
 50
248.1503588713275
 51
355.1561976706355
  0
LINE
  5
B7C
330
1F
100
AcDbEntity
  8
ceco.net 104
370
     5
100
AcDbLine
 10
1110.270787151178
 20
1905.061843765482
 30
0.0
 11
1158.095441900772
 21
1408.145098781108
 31
0.0
  0
CIRCLE
  5
B7D
330
1F
100
AcDbEntity
  8
ceco.net 104
370
     5
100
AcDbCircle
 10
1159.340094440984
 20
1390.490478923338
 30
0.0
 40
17.69843954279028
  0
LINE
  5
B7E
330
1F
100
AcDbEntity
  8
ceco.net 104
370
     5
100
AcDbLine
 10
1161.41155478266
 20
1372.913681311896
 30
0.0
 11
1165.064109279401
 21
1335.583970731586
 31
0.0
  0
LINE
  5
B7F
330
1F
100
AcDbEntity
  8
ceco.net 104
370
     5
100
AcDbLine
 10
1165.064109279401
 20
1335.583970731586
 30
0.0
 11
1182.229219818993
 21
1311.562966391862
 31
0.0
  0
LINE
  5
B80
330
1F
100
AcDbEntity
  8
ceco.net 104
370
     5
100
AcDbLine
 10
1182.229219818993
 20
1311.562966391862
 30
0.0
 11
1158.195984865242
 21
1308.130716636178
 31
0.0
  0
LINE
  5
B81
330
1F
100
AcDbEntity
  8
ceco.net 104
370
     5
100
AcDbLine
 10
1158.195984865242
 20
1308.130716636178
 30
0.0
 11
1165.064109279401
 21
1335.583970731586
 31
0.0
  0
LINE
  5
B82
330
1F
100
AcDbEntity
  8
ceco.net 104
370
     5
100
AcDbLine
 10
1158.195984865242
 20
1308.130716636178
 30
0.0
 11
1157.088215900645
 21
1229.496240128242
 31
0.0
  0
LINE
  5
B83
330
1F
100
AcDbEntity
  8
ceco.net 104
370
     5
100
AcDbLine
 10
924.3816109947948
 20
1580.336627961241
 30
0.0
 11
750.3659994561862
 21
1531.663321584041
 31
0.0
  0
LINE
  5
B84
330
1F
100
AcDbEntity
  8
ceco.net 104
370
     5
100
AcDbLine
 10
759.346663943486
 20
1499.555870117857
 30
0.0
 11
937.6190886801843
 21
1496.154275657379
 31
0.0
  0
LINE
  5
B85
330
1F
100
AcDbEntity
  8
ceco.net 104
370
     5
100
AcDbLine
 10
726.6045276228205
 20
1616.614753061617
 30
0.0
 11
914.8518233241317
 21
1640.940314214301
 31
0.0
  0
LINE
  5
B86
330
1F
100
AcDbEntity
  8
ceco.net 104
370
     5
100
AcDbLine
 10
901.3014961895573
 20
1727.112199841398
 30
0.0
 11
828.8030712667048
 21
1731.540752354893
 31
0.0
  0
LWPOLYLINE
  5
B87
330
1F
100
AcDbEntity
  8
ceco.net 104
370
     5
100
AcDbPolyline
 90
        6
 70
     0
 43
0.0
 10
520.4589100094183
 20
1329.001736403896
 10
520.4589100094183
 20
1208.97736189956
 10
469.6569781422838
 20
1208.97736189956
 10
469.6569781422838
 20
1241.290795505365
 42
-0.6578205737109056
 10
470.908564674227
 20
1319.252913668543
 10
520.4589100094183
 20
1329.001736403896
  0
LINE
  5
B88
330
1F
100
AcDbEntity
  8
ceco.net 104
370
     5
100
AcDbLine
 10
333.854912225839
 20
1397.392002442415
 30
0.0
 11
408.9125483439993
 21
109.5852996904179
 31
0.0
  0
LINE
  5
B89
330
1F
100
AcDbEntity
  8
ceco.net 104
370
     5
100
AcDbLine
 10
283.0285902771338
 20
1396.175427188254
 30
0.0
 11
317.375140153694
 21
109.5852996904179
 31
0.0
  0
LINE
  5
B8A
330
1F
100
AcDbEntity
  8
ceco.net 104
370
     5
100
AcDbLine
 10
362.6196821058002
 20
1415.460273797177
 30
0.0
 11
408.6026535847309
 21
114.9023410536794
 31
0.0
  0
LINE
  5
B8B
330
1F
100
AcDbEntity
  8
ceco.net 104
370
     5
100
AcDbLine
 10
461.6222401130262
 20
1395.970333783291
 30
0.0
 11
486.8879616555491
 21
522.7503764613681
 31
0.0
  0
LWPOLYLINE
  5
B8C
330
1F
100
AcDbEntity
  8
ceco.net 104
370
     5
100
AcDbPolyline
 90
       22
 70
     0
 43
0.0
 10
1437.240841791447
 20
1215.142128393461
 10
1440.399277600223
 20
1196.216129220021
 10
1440.399277600223
 20
1185.174579382878
 10
1436.453833083138
 20
1175.710393808375
 10
1434.87634868271
 20
1171.768169140227
 10
1438.031317491603
 20
1160.726619303083
 10
1454.641708242739
 20
1139.440503676473
 10
1450.654659735092
 20
1131.5465664351
 10
1439.608801900067
 20
1126.814473648385
 10
1439.608801900067
 20
1119.717520455223
 10
1440.399277600223
 20
1114.985427667972
 10
1438.329479377094
 20
1109.52513814575
 10
1439.608801900067
 20
1107.098606355306
 10
1438.821793199794
 20
1102.368885544558
 10
1437.240841791447
 20
1102.368885544558
 10
1437.240841791447
 20
1098.424288899906
 10
1438.821793199794
 20
1088.960103325002
 10
1434.87634868271
 20
1081.075653989241
 10
1425.407975248113
 20
1078.708421607899
 10
1407.261704079075
 20
1081.075653989241
 10
1365.442765831639
 20
1086.595242919628
 10
1338.618596920125
 20
1111.830699142558
  0
LWPOLYLINE
  5
B8D
330
1F
100
AcDbEntity
  8
ceco.net 104
370
     5
100
AcDbPolyline
 90
        6
 70
     1
 43
0.0
 10
1438.821793199794
 20
1185.174579382878
 10
1434.085872974518
 20
1188.329307907355
 10
1430.14042846547
 20
1188.329307907355
 10
1418.307561914101
 20
1178.865122332852
 10
1430.14042846547
 20
1181.232354715131
 10
1435.663357382983
 20
1180.442486595626
  0
LWPOLYLINE
  5
B8E
330
1F
100
AcDbEntity
  8
ceco.net 104
370
     5
100
AcDbPolyline
 90
        7
 70
     0
 43
0.0
 10
1426.985459648542
 20
1170.978301020722
 10
1419.094570622409
 20
1167.823572495709
 10
1410.416672896004
 20
1163.093851684827
 10
1408.839188479504
 20
1162.303983565322
 10
1415.149126105325
 20
1160.726619303083
 10
1420.672055030873
 20
1159.939123159948
 10
1424.617499539921
 20
1156.784394634935
  0
LWPOLYLINE
  5
B8F
330
1F
100
AcDbEntity
  8
ceco.net 104
370
     5
100
AcDbPolyline
 90
        3
 70
     0
 43
0.0
 10
1423.040015139493
 20
1167.823572495709
 10
1423.830490839649
 20
1163.881347828096
 10
1423.040015139493
 20
1159.939123159948
  0
LWPOLYLINE
  5
B90
330
1F
100
AcDbEntity
  8
ceco.net 104
370
     5
100
AcDbPolyline
 90
        6
 70
     0
 43
0.0
 10
1440.173922688172
 20
1138.418181876513
 10
1434.151745956228
 20
1138.847509592819
 10
1432.428647600883
 20
1135.408143908027
 10
1432.733743486141
 20
1129.35723227852
 10
1432.733743486141
 20
1129.35723227852
 10
1438.846062190941
 20
1127.613829672564
  0
LWPOLYLINE
  5
B91
330
1F
100
AcDbEntity
  8
ceco.net 104
370
     5
100
AcDbPolyline
 90
        3
 70
     0
 43
0.0
 10
1435.663357382983
 20
1116.562791930211
 10
1432.872423433255
 20
1115.523866295397
 10
1426.326729895733
 20
1113.614425346258
  0
LWPOLYLINE
  5
B92
330
1F
100
AcDbEntity
  8
ceco.net 104
370
     5
100
AcDbPolyline
 90
        3
 70
     0
 43
0.0
 10
1438.329479377094
 20
1109.52513814575
 10
1433.964528018785
 20
1109.52513814575
 10
1432.328104644449
 20
1111.161801816555
  0
LWPOLYLINE
  5
B93
330
1F
100
AcDbEntity
  8
ceco.net 104
370
     5
100
AcDbPolyline
 90
        4
 70
     0
 43
0.0
 10
1436.419163092342
 20
1102.162523603497
 10
1433.69063512444
 20
1102.9808554389
 10
1430.417788359698
 20
1107.070142639007
 10
1427.963153286141
 20
1108.979583588681
  0
LWPOLYLINE
  5
B94
330
1F
100
AcDbEntity
  8
ceco.net 104
370
     5
100
AcDbPolyline
 90
        2
 70
     0
 43
0.0
 10
1439.14769106828
 20
1114.70553446053
 10
1435.874844303537
 20
1116.887752687868
  0
LWPOLYLINE
  5
B95
330
1F
100
AcDbEntity
  8
ceco.net 104
370
     5
100
AcDbPolyline
 90
       76
 70
     0
 43
0.0
 10
1438.755415469741
 20
1206.066490381995
 10
1446.986575120272
 20
1215.142128393461
 10
1444.781563949912
 20
1231.65345565817
 10
1440.378475608959
 20
1238.257037773452
 10
1426.063238001038
 20
1256.969559076723
 10
1410.09424201133
 20
1271.829990812143
 10
1390.824663265849
 20
1285.037155043378
 10
1378.159717031797
 20
1291.09281062482
 10
1350.07702761268
 20
1302.098780816957
 10
1318.693755429754
 20
1300.998183798145
 10
1295.568874140045
 20
1297.696392740102
 10
1283.4551807026
 20
1296.045497211483
 10
1277.949586776468
 20
1286.688050571596
 10
1269.687728883368
 20
1285.037155043378
 10
1250.969402934495
 20
1299.897586778798
 10
1228.943560230082
 20
1304.85027336546
 10
1209.122728687993
 20
1294.394601682193
 10
1189.298430154057
 20
1291.643109134628
 10
1174.983192546136
 20
1283.936558023494
 10
1168.375093034824
 20
1264.12343970101
 10
1168.926345823396
 20
1244.860619888869
 10
1174.431939757564
 20
1234.404948206137
 10
1182.14254484602
 20
1226.150470561566
 10
1187.09688598358
 20
1222.296009018283
 10
1194.256238283464
 20
1221.745710508341
 10
1203.065881965253
 20
1226.150470561566
 10
1207.468970314241
 20
1226.700769071507
 10
1205.267426143765
 20
1221.195411998935
 10
1203.065881965253
 20
1214.041531373711
 10
1212.426778451685
 20
1204.136158200922
 10
1212.426778451685
 20
1191.476920503661
 10
1215.727361199422
 20
1162.308727518195
 10
1214.628322614125
 20
1152.400982368366
 10
1218.480158166506
 20
1129.286072988374
 10
1228.392307433474
 20
1119.930998324991
 10
1242.707545049431
 20
1117.727432310462
 10
1251.517188731219
 20
1102.319074041603
 10
1249.315644552707
 20
1082.505955719521
 10
1250.969402934495
 20
1078.653866152206
 10
1255.372491275447
 20
1075.900001627199
 10
1265.835893339023
 20
1090.760433363155
 10
1284.554219287897
 20
1094.062224420528
 10
1290.611066002601
 20
1093.511925911122
 10
1288.960774628733
 20
1088.008940815054
 10
1291.162318791173
 20
1092.961627401716
 10
1292.81607717296
 20
1101.218477022256
 10
1297.219165521949
 20
1108.372357647078
 10
1297.219165521949
 20
1116.076536781708
 10
1296.116659936769
 20
1127.084878950215
 10
1299.971962472961
 20
1143.045907705518
 10
1301.625720854749
 20
1151.850683858558
 10
1308.781606162786
 20
1176.0661902583
 10
1315.94095846267
 20
1178.267384296459
 10
1331.906487452495
 20
1173.864996219738
 10
1337.963334175235
 20
1164.509921556221
 10
1345.122686475119
 20
1160.655460013072
 10
1352.829824579764
 20
1163.409324537409
 10
1345.122686475119
 20
1138.090849142352
 10
1339.617092548987
 20
1127.084878950215
 10
1345.673939263691
 20
1130.386670007722
 10
1360.54042966822
 20
1143.045907705518
 10
1380.912513998881
 20
1156.253071935681
 10
1391.372449062574
 20
1167.811712613728
 10
1405.691153670377
 20
1187.624830936212
 10
1408.443950637462
 20
1203.033189205606
 10
1411.19674759651
 20
1215.692426902867
 10
1411.748000385082
 20
1203.033189205606
 10
1415.599835937462
 20
1179.367981315807
 10
1411.748000385082
 20
1165.610518575568
 10
1417.25359431925
 20
1183.222442859491
 10
1422.759188237347
 20
1196.979905600132
 10
1425.511985204431
 20
1211.840337335551
 10
1427.713529374907
 20
1221.195411998935
 10
1433.219123301039
 20
1222.846307528225
 10
1435.971920268123
 20
1222.296009018283
 10
1437.240841791447
 20
1215.142128393461
  0
LWPOLYLINE
  5
B96
330
1F
100
AcDbEntity
  8
ceco.net 104
370
     5
100
AcDbPolyline
 90
        5
 70
     0
 43
0.0
 10
1424.960732415859
 20
1245.96358888405
 10
1417.25359431925
 20
1232.754052676982
 10
1418.903885701154
 20
1213.491232864305
 10
1419.455138489726
 20
1193.678114542223
 10
1415.599835937462
 20
1186.5242339174
  0
LWPOLYLINE
  5
B97
330
1F
100
AcDbEntity
  8
ceco.net 104
370
     5
100
AcDbPolyline
 90
        7
 70
     0
 43
0.0
 10
1421.105429863595
 20
1255.318663547568
 10
1407.341445052282
 20
1250.365976960771
 10
1402.387103914722
 20
1215.142128393461
 10
1397.429295785314
 20
1200.831995167447
 10
1377.608464243225
 20
1177.166787277647
 10
1362.741973846732
 20
1160.655460013072
 10
1353.932330164943
 20
1154.051877897656
  0
LWPOLYLINE
  5
B98
330
1F
100
AcDbEntity
  8
ceco.net 104
370
     5
100
AcDbPolyline
 90
        8
 70
     0
 43
0.0
 10
1413.949544555558
 20
1256.969559076723
 10
1412.847038970378
 20
1263.573141191604
 10
1409.542989214722
 20
1264.12343970101
 10
1401.284598329542
 20
1249.815678451499
 10
1398.531801370493
 20
1232.754052676982
 10
1394.676498818229
 20
1206.887650749425
 10
1386.418107933049
 20
1192.027219013067
 10
1373.205375902272
 20
1179.367981315807
  0
LWPOLYLINE
  5
B99
330
1F
100
AcDbEntity
  8
ceco.net 104
370
     5
100
AcDbPolyline
 90
        9
 70
     0
 43
0.0
 10
1403.486142500018
 20
1270.729393793331
 10
1393.026207436325
 20
1265.774335230165
 10
1388.071866306801
 20
1253.117469509408
 10
1374.855667284176
 20
1217.893620941026
 10
1368.798820561436
 20
1189.275726465502
 10
1358.886671294468
 20
1173.864996219738
 10
1346.225192060299
 20
1173.314697710332
 10
1336.313042793331
 20
1177.717085787053
 10
1325.301854941066
 20
1176.616488768241
  0
LWPOLYLINE
  5
B9A
330
1F
100
AcDbEntity
  8
ceco.net 104
370
     5
100
AcDbPolyline
 90
        5
 70
     0
 43
0.0
 10
1391.372449062574
 20
1276.232378888864
 10
1368.798820561436
 20
1280.084468456179
 10
1335.210537208151
 20
1274.031184850705
 10
1313.188161503622
 20
1267.427602735422
 10
1294.466368554865
 20
1259.170753114883
  0
LWPOLYLINE
  5
B9B
330
1F
100
AcDbEntity
  8
ceco.net 104
370
     5
100
AcDbPolyline
 90
       14
 70
     0
 43
0.0
 10
1270.23898167194
 20
1278.983871437367
 10
1277.39833397986
 20
1263.573141191604
 10
1279.048625353728
 20
1245.96358888405
 10
1264.182134957236
 20
1230.552858638822
 10
1251.517188731219
 20
1219.544516470182
 10
1257.026249649199
 20
1198.630801128885
 10
1268.588690298072
 20
1195.329010070976
 10
1281.801422320812
 20
1201.382293676451
 10
1268.588690298072
 20
1209.088844787986
 10
1265.835893339023
 20
1218.443919450968
 10
1282.35267511742
 20
1227.801366090721
 10
1282.903927905992
 20
1241.008530321554
 10
1281.801422320812
 20
1255.86896205684
 10
1276.29582839468
 20
1263.022842682198
  0
LWPOLYLINE
  5
B9C
330
1F
100
AcDbEntity
  8
ceco.net 104
370
     5
100
AcDbPolyline
 90
        7
 70
     0
 43
0.0
 10
1251.517188731219
 20
1282.835961004682
 10
1261.980590786759
 20
1270.729393793331
 10
1260.326832404972
 20
1247.61448441334
 10
1246.011594797051
 20
1233.30435118679
 10
1235.000406944786
 20
1227.801366090721
 10
1219.031410963114
 20
1222.296009018283
 10
1207.468970314241
 20
1226.700769071507
  0
LWPOLYLINE
  5
B9D
330
1F
100
AcDbEntity
  8
ceco.net 104
370
     5
100
AcDbPolyline
 90
       10
 70
     1
 43
0.0
 10
1239.403495285739
 20
1270.17909528339
 10
1248.213138967527
 20
1271.279692302737
 10
1250.418150137887
 20
1250.916275470713
 10
1237.75320391187
 20
1241.008530321554
 10
1224.53700488121
 20
1233.854649696196
 10
1215.727361199422
 20
1234.404948206137
 10
1224.53700488121
 20
1241.55882883096
 10
1238.304456700442
 20
1253.667768018814
 10
1238.855709489014
 20
1260.821648644038
 10
1231.145104400558
 20
1265.224036720893
  0
LWPOLYLINE
  5
B9E
330
1F
100
AcDbEntity
  8
ceco.net 104
370
     5
100
AcDbPolyline
 90
       16
 70
     1
 43
0.0
 10
1236.65069832669
 20
1286.688050571596
 10
1220.133916548293
 20
1277.332975908748
 10
1218.480158166506
 20
1256.969559076723
 10
1208.571475899421
 20
1252.567170999467
 10
1210.773020069897
 20
1266.324633739705
 10
1198.659326632453
 20
1256.969559076723
 10
1201.412123591501
 20
1244.310321378927
 10
1193.704985494892
 20
1244.860619888869
 10
1191.503441324416
 20
1251.466573980654
 10
1195.906529665369
 20
1269.628796773984
 10
1212.426778451685
 20
1285.037155043378
 10
1217.932372369782
 20
1287.238349081537
 10
1229.494813018654
 20
1289.441915096468
 10
1234.449154148179
 20
1296.045497211483
 10
1242.159759252706
 20
1291.09281062482
 10
1257.026249649199
 20
1289.992213606008
  0
LWPOLYLINE
  5
B9F
330
1F
100
AcDbEntity
  8
ceco.net 104
370
     5
100
AcDbPolyline
 90
        9
 70
     0
 43
0.0
 10
1201.412123591501
 20
1286.688050571596
 10
1185.9943803984
 20
1285.587453552248
 10
1178.287242301792
 20
1271.829990812143
 10
1178.287242301792
 20
1249.815678451499
 10
1176.085698131315
 20
1242.659425850709
 10
1187.09688598358
 20
1234.955246716079
 10
1202.514629176681
 20
1236.055843734891
 10
1202.514629176681
 20
1239.90793330167
 10
1215.727361199422
 20
1230.002560128881
  0
LWPOLYLINE
  5
BA0
330
1F
100
AcDbEntity
  8
ceco.net 104
370
     5
100
AcDbPolyline
 90
       11
 70
     0
 43
0.0
 10
1248.764391764135
 20
1212.390635845493
 10
1247.665353170803
 20
1194.77871156157
 10
1240.506000870919
 20
1171.113503671637
 10
1236.102912529966
 20
1179.918279825614
 10
1228.943560230082
 20
1181.018876844962
 10
1226.74201605157
 20
1163.959623046413
 10
1222.335460710734
 20
1168.362011123669
 10
1223.437966295914
 20
1189.826024974908
 10
1217.932372369782
 20
1203.585859691516
 10
1214.077069825553
 20
1211.840337335551
 10
1208.571475899421
 20
1216.242725412808
  0
LWPOLYLINE
  5
BA1
330
1F
100
AcDbEntity
  8
ceco.net 104
370
     5
100
AcDbPolyline
 90
        7
 70
     0
 43
0.0
 10
1253.170947104971
 20
1226.150470561566
 10
1241.608506456098
 20
1204.686456710729
 10
1228.392307433474
 20
1204.136158200922
 10
1220.685169336865
 20
1205.787053730077
 10
1231.69635718913
 20
1182.119473863774
 10
1242.707545049431
 20
1189.275726465502
 10
1246.011594797051
 20
1195.329010070976
  0
LWPOLYLINE
  5
BA2
330
1F
100
AcDbEntity
  8
ceco.net 104
370
     5
100
AcDbPolyline
 90
       11
 70
     0
 43
0.0
 10
1247.114100382231
 20
1187.074532426806
 10
1262.531843575331
 20
1174.965593238952
 10
1292.81607717296
 20
1166.160817084974
 10
1297.219165521949
 20
1165.060220066162
 10
1285.105472076469
 20
1153.501579387714
 10
1286.759230458256
 20
1136.439953613732
 10
1284.554219287897
 20
1132.037565537012
 10
1284.554219287897
 20
1116.076536781708
 10
1284.554219287897
 20
1111.123850195045
 10
1253.722199893543
 20
1155.702773425874
 10
1245.460342000443
 20
1168.362011123669
  0
LWPOLYLINE
  5
BA3
330
1F
100
AcDbEntity
  8
ceco.net 104
370
     5
100
AcDbPolyline
 90
        8
 70
     0
 43
0.0
 10
1368.798820561436
 20
1195.329010070976
 10
1348.977989027383
 20
1189.826024974908
 10
1324.750602144458
 20
1186.5242339174
 10
1308.230353374214
 20
1176.0661902583
 10
1307.131314780881
 20
1176.616488768241
 10
1340.168345345595
 20
1200.281696657639
 10
1345.673939263691
 20
1203.585859691516
 10
1357.787632709171
 20
1204.136158200922
  0
LWPOLYLINE
  5
BA4
330
1F
100
AcDbEntity
  8
ceco.net 104
370
     5
100
AcDbPolyline
 90
       16
 70
     0
 43
0.0
 10
1337.963334175235
 20
1203.033189205606
 10
1326.400893526363
 20
1203.033189205606
 10
1308.781606162786
 20
1204.686456710729
 10
1310.983150333262
 20
1209.63914329699
 10
1332.457740241067
 20
1211.840337335551
 10
1350.628280409287
 20
1219.544516470182
 10
1350.628280409287
 20
1222.296009018283
 10
1318.693755429754
 20
1211.840337335551
 10
1322.549057982018
 20
1223.396606037631
 10
1306.028809203737
 20
1226.700769071507
 10
1301.074468058141
 20
1230.552858638822
 10
1300.523215269569
 20
1233.854649696196
 10
1328.602437696839
 20
1242.659425850709
 10
1339.065839760415
 20
1242.109127340366
 10
1347.875483442203
 20
1242.659425850709
 10
1364.3922652206
 20
1247.064185903933
  0
LWPOLYLINE
  5
BA5
330
1F
100
AcDbEntity
  8
ceco.net 104
370
     5
100
AcDbPolyline
 90
        7
 70
     0
 43
0.0
 10
1363.293226635304
 20
1253.667768018814
 10
1344.571433678511
 20
1252.016872489525
 10
1327.503399111542
 20
1249.815678451499
 10
1310.983150333262
 20
1253.117469509408
 10
1297.219165521949
 20
1255.318663547568
 10
1293.363862969685
 20
1255.86896205684
 10
1286.207977661648
 20
1258.070156095535
  0
LWPOLYLINE
  5
BA6
330
1F
100
AcDbEntity
  8
ceco.net 104
370
     5
100
AcDbPolyline
 90
        7
 70
     0
 43
0.0
 10
1364.943518009172
 20
1288.89161658666
 10
1341.267383930891
 20
1292.743706153975
 10
1287.307016254981
 20
1288.89161658666
 10
1285.105472076469
 20
1282.285662494339
 10
1292.264824376353
 20
1277.883274418154
 10
1302.173506651473
 20
1273.480886341299
 10
1307.131314780881
 20
1272.930587831357
  0
LWPOLYLINE
  5
BA7
330
1F
100
AcDbEntity
  8
ceco.net 104
370
     5
100
AcDbPolyline
 90
       10
 70
     0
 43
0.0
 10
1305.477556407129
 20
1295.495198702077
 10
1336.313042793331
 20
1292.193407644034
 10
1358.886671294468
 20
1274.581483360111
 10
1369.901326146616
 20
1259.170753114883
 10
1369.901326146616
 20
1242.659425850709
 10
1368.798820561436
 20
1229.452261619475
 10
1364.943518009172
 20
1215.142128393461
 10
1360.54042966822
 20
1203.033189205606
 10
1296.667912725341
 20
1178.267384296459
 10
1293.363862969685
 20
1182.119473863774
  0
LWPOLYLINE
  5
BA8
330
1F
100
AcDbEntity
  8
ceco.net 104
370
     5
100
AcDbPolyline
 90
        7
 70
     0
 43
0.0
 10
1366.046023594352
 20
1288.89161658666
 10
1375.958172869356
 20
1278.433572927559
 10
1377.608464243225
 20
1259.721051624289
 10
1375.958172869356
 20
1247.61448441334
 10
1369.350073350008
 20
1228.901963109533
 10
1359.989176879648
 20
1205.236755220671
 10
1350.628280409287
 20
1199.731398147697
  0
LWPOLYLINE
  5
BA9
330
1F
100
AcDbEntity
  8
ceco.net 104
370
     5
100
AcDbPolyline
 90
       31
 70
     0
 43
0.0
 10
1355.582621538812
 20
1291.09281062482
 10
1340.168345345595
 20
1274.031184850705
 10
1299.420709684389
 20
1260.271350134231
 10
1309.332858959393
 20
1259.170753114883
 10
1334.659284419579
 20
1270.17909528339
 10
1353.381077368336
 20
1267.977901244694
 10
1337.963334175235
 20
1264.12343970101
 10
1324.750602144458
 20
1260.271350134231
 10
1355.034835750123
 20
1256.419260566782
 10
1362.741973846732
 20
1255.318663547568
 10
1354.483582953515
 20
1247.61448441334
 10
1333.560245826246
 20
1239.3576347928
 10
1329.153690493447
 20
1230.002560128881
 10
1330.807448867198
 20
1230.002560128881
 10
1353.381077368336
 20
1238.257037773452
 10
1359.989176879648
 20
1231.65345565817
 10
1345.122686475119
 20
1230.002560128881
 10
1331.906487452495
 20
1228.351664600127
 10
1315.94095846267
 20
1228.901963109533
 10
1312.085655918442
 20
1230.552858638822
 10
1327.503399111542
 20
1223.396606037631
 10
1340.716131142319
 20
1225.60017205216
 10
1352.282038783039
 20
1216.793023922214
 10
1337.963334175235
 20
1212.390635845493
 10
1310.983150333262
 20
1204.136158200922
 10
1286.207977661648
 20
1196.429607090324
 10
1285.656724873076
 20
1190.926621994255
 10
1309.332858959393
 20
1193.678114542223
 10
1317.591249844574
 20
1199.181099638291
 10
1286.759230458256
 20
1170.563205162231
 10
1295.568874140045
 20
1151.300385349554
  0
LWPOLYLINE
  5
BAA
330
1F
100
AcDbEntity
  8
ceco.net 104
370
     5
100
AcDbPolyline
 90
       11
 70
     0
 43
0.0
 10
1334.111498622854
 20
1132.587864046283
 10
1329.153690493447
 20
1129.83637149778
 10
1323.648096559279
 20
1129.83637149778
 10
1317.591249844574
 20
1134.238759575037
 10
1314.287200088918
 20
1149.099191310993
 10
1314.287200088918
 20
1162.859026028002
 10
1319.245008226362
 20
1175.515891748358
 10
1327.503399111542
 20
1173.864996219738
 10
1333.008993037675
 20
1165.610518575568
 10
1336.864295589939
 20
1158.454265974912
 10
1336.864295589939
 20
1152.951280878308
  0
LWPOLYLINE
  5
BAB
330
1F
100
AcDbEntity
  8
ceco.net 104
370
     5
100
AcDbPolyline
 90
        4
 70
     0
 43
0.0
 10
1334.659284419579
 20
1139.1914461617
 10
1330.807448867198
 20
1141.945310685635
 10
1330.256196078626
 20
1146.347698762891
 10
1335.210537208151
 20
1150.750086840148
  0
LWPOLYLINE
  5
BAC
330
1F
100
AcDbEntity
  8
ceco.net 104
370
     5
100
AcDbPolyline
 90
        6
 70
     0
 43
0.0
 10
1331.358701663806
 20
1156.803370445623
 10
1329.704943282019
 20
1162.308727518195
 10
1325.84964073779
 20
1165.060220066162
 10
1321.99780518541
 20
1158.454265974912
 10
1320.344046811658
 20
1147.998594291645
 10
1323.096843770706
 20
1143.596206214924
  0
LWPOLYLINE
  5
BAD
330
1F
100
AcDbEntity
  8
ceco.net 104
370
     5
100
AcDbPolyline
 90
        4
 70
     0
 43
0.0
 10
1327.503399111542
 20
1155.702773425874
 10
1329.704943282019
 20
1150.199788330206
 10
1326.400893526363
 20
1145.79740025295
 10
1325.84964073779
 20
1143.596206214924
  0
LWPOLYLINE
  5
BAE
330
1F
100
AcDbEntity
  8
ceco.net 104
370
     5
100
AcDbPolyline
 90
       46
 70
     0
 43
0.0
 10
1373.983723306421
 20
1085.467940879955
 10
1356.504843186315
 20
1066.485627555249
 10
1347.747204494739
 20
1047.227551695445
 10
1345.119219475236
 20
1021.840288986747
 10
1345.119219475236
 20
1013.962955580094
 10
1365.262481893963
 20
990.3285833824281
 10
1383.654909966315
 20
972.8210260576886
 10
1396.791368015733
 20
956.1887279996113
 10
1407.299841069755
 20
942.1822077447336
 10
1409.050675408093
 20
929.9285780007542
 10
1404.671856050252
 20
929.0509467562497
 10
1381.026924954848
 20
950.9371723957567
 10
1345.119219475236
 20
990.3285833824281
 10
1322.351439052961
 20
1021.840288986747
 10
1297.829357284428
 20
1048.97807023051
 10
1276.812411200492
 20
1065.607996311816
 10
1261.047968131571
 20
1068.236146090314
 10
1248.785193755399
 20
1063.857477776618
 10
1240.027555047751
 20
1054.2296258349
 10
1235.648735697945
 20
1044.599401916814
 10
1226.017413333123
 20
1030.595253637234
 10
1197.993662879878
 20
1022.715548254748
 10
1178.724084134397
 20
1013.962955580094
 10
1167.341927423201
 20
1002.582213126809
 10
1152.451168027526
 20
992.0791019176267
 10
1135.813041293395
 20
986.8251743367329
 10
1117.420613221042
 20
980.698359464877
 10
1116.546929547797
 20
1003.457472394944
 10
1120.04859823251
 20
1052.479107300371
 10
1126.17825192869
 20
1069.111405357913
 10
1135.813041293395
 20
1078.73925729963
 10
1141.069011316329
 20
1090.995259020515
 10
1141.069011316329
 20
1099.747851694633
 10
1137.563875639769
 20
1111.128594147918
 10
1134.935890628302
 20
1113.754371950582
 10
1134.935890628302
 20
1113.754371950582
 10
1123.55373390907
 20
1107.627557078057
 10
1106.038456501811
 20
1111.128594147918
 10
1100.782486486912
 20
1122.5069646247
 10
1101.65963716004
 20
1133.88770707745
 10
1113.91894453633
 20
1143.515559019703
 10
1124.427417582316
 20
1145.268449530735
 10
1137.563875639769
 20
1142.640299752103
 10
1143.693529327914
 20
1133.88770707745
 10
1143.693529327914
 20
1121.631705357101
 10
1137.563875639769
 20
1111.128594147918
  0
LWPOLYLINE
  5
BAF
330
1F
100
AcDbEntity
  8
ceco.net 104
370
     5
100
AcDbPolyline
 90
        2
 70
     0
 43
0.0
 10
1290.611066002601
 20
1093.511925911122
 10
1268.999296619473
 20
1066.910550121824
  0
LWPOLYLINE
  5
BB0
330
1F
100
AcDbEntity
  8
ceco.net 104
370
     5
100
AcDbPolyline
 90
        8
 70
     0
 43
0.0
 10
1403.798172385042
 20
922.92413188426
 10
1423.937967803885
 20
895.7887226179375
 10
1430.071088491913
 20
877.4059060246614
 10
1429.193937818784
 20
851.1457560252686
 10
1422.187133457511
 20
838.0144950369187
 10
1406.422690396626
 20
823.1327155139059
 10
1387.156578651028
 20
815.2553821072533
 10
1378.398939951416
 20
814.380122839788
  0
LINE
  5
BB1
330
1F
100
AcDbEntity
  8
ceco.net 104
370
     5
100
AcDbLine
 10
1395.914217358676
 20
799.4983433171769
 30
0.0
 11
1372.269286255236
 21
774.9887118524469
 31
0.0
  0
LINE
  5
BB2
330
1F
100
AcDbEntity
  8
ceco.net 104
370
     5
100
AcDbLine
 10
1372.269286255236
 20
774.9887118524469
 30
0.0
 11
1332.859912098947
 21
764.4832286667609
 31
0.0
  0
LINE
  5
BB3
330
1F
100
AcDbEntity
  8
ceco.net 104
370
     5
100
AcDbLine
 10
1332.859912098947
 20
764.4832286667609
 30
0.0
 11
1264.549636816284
 21
764.4832286667609
 31
0.0
  0
LINE
  5
BB4
330
1F
100
AcDbEntity
  8
ceco.net 104
370
     5
100
AcDbLine
 10
1264.549636816284
 20
764.4832286667609
 30
0.0
 11
1210.252970264203
 21
774.9887118524469
 31
0.0
  0
LINE
  5
BB5
330
1F
100
AcDbEntity
  8
ceco.net 104
370
     5
100
AcDbLine
 10
1210.252970264203
 20
774.9887118524469
 30
0.0
 11
1197.993662879878
 21
781.1155267244367
 31
0.0
  0
LINE
  5
BB6
330
1F
100
AcDbEntity
  8
ceco.net 104
370
     5
100
AcDbLine
 10
1197.993662879878
 20
781.1155267244367
 30
0.0
 11
1198.867346553123
 21
810.0014545259577
 31
0.0
  0
LINE
  5
BB7
330
1F
100
AcDbEntity
  8
ceco.net 104
370
     5
100
AcDbLine
 10
1198.867346553123
 20
810.0014545259577
 30
0.0
 11
1198.867346553123
 21
851.1457560252686
 31
0.0
  0
LINE
  5
BB8
330
1F
100
AcDbEntity
  8
ceco.net 104
370
     5
100
AcDbLine
 10
1198.867346553123
 20
851.1457560252686
 30
0.0
 11
1193.614843530072
 21
880.9069430949246
 31
0.0
  0
LINE
  5
BB9
330
1F
100
AcDbEntity
  8
ceco.net 104
370
     5
100
AcDbLine
 10
1193.614843530072
 20
880.9069430949246
 30
0.0
 11
1189.236024180266
 21
901.0402782217921
 31
0.0
  0
LINE
  5
BBA
330
1F
100
AcDbEntity
  8
ceco.net 104
370
     5
100
AcDbLine
 10
1189.236024180266
 20
901.0402782217921
 30
0.0
 11
1182.229219818993
 21
922.92413188426
 31
0.0
  0
LINE
  5
BBB
330
1F
100
AcDbEntity
  8
ceco.net 104
370
     5
100
AcDbLine
 10
1182.229219818993
 20
922.92413188426
 30
0.0
 11
1161.208806727137
 21
914.1715392096063
 31
0.0
  0
LINE
  5
BBC
330
1F
100
AcDbEntity
  8
ceco.net 104
370
     5
100
AcDbLine
 10
1161.208806727137
 20
914.1715392096063
 30
0.0
 11
1119.1749145673
 21
896.663981885001
 31
0.0
  0
LINE
  5
BBD
330
1F
100
AcDbEntity
  8
ceco.net 104
370
     5
100
AcDbLine
 10
1119.1749145673
 20
896.663981885001
 30
0.0
 11
1087.646028429458
 21
896.663981885001
 31
0.0
  0
LINE
  5
BBE
330
1F
100
AcDbEntity
  8
ceco.net 104
370
     5
100
AcDbLine
 10
1087.646028429458
 20
896.663981885001
 30
0.0
 11
1062.250262995716
 21
896.663981885001
 31
0.0
  0
LINE
  5
BBF
330
1F
100
AcDbEntity
  8
ceco.net 104
370
     5
100
AcDbLine
 10
1062.250262995716
 20
896.663981885001
 30
0.0
 11
1049.987488619543
 21
902.7907967568568
 31
0.0
  0
LINE
  5
BC0
330
1F
100
AcDbEntity
  8
ceco.net 104
370
     5
100
AcDbLine
 10
1049.987488619543
 20
902.7907967568568
 30
0.0
 11
1043.857834923363
 21
913.2962799426767
 31
0.0
  0
LINE
  5
BC1
330
1F
100
AcDbEntity
  8
ceco.net 104
370
     5
100
AcDbLine
 10
1043.857834923363
 20
913.2962799426767
 30
0.0
 11
1043.857834923363
 21
934.3048743375453
 31
0.0
  0
LINE
  5
BC2
330
1F
100
AcDbEntity
  8
ceco.net 104
370
     5
100
AcDbLine
 10
1043.857834923363
 20
934.3048743375453
 30
0.0
 11
1047.35950360004
 21
976.3220631275501
 31
0.0
  0
LINE
  5
BC3
330
1F
100
AcDbEntity
  8
ceco.net 104
370
     5
100
AcDbLine
 10
1047.35950360004
 20
976.3220631275501
 30
0.0
 11
1064.001097334054
 21
1016.588733382356
 31
0.0
  0
LINE
  5
BC4
330
1F
100
AcDbEntity
  8
ceco.net 104
370
     5
100
AcDbLine
 10
1064.001097334054
 20
1016.588733382356
 30
0.0
 11
1085.89519409112
 21
1053.354366567435
 31
0.0
  0
LINE
  5
BC5
330
1F
100
AcDbEntity
  8
ceco.net 104
370
     5
100
AcDbLine
 10
1085.89519409112
 20
1053.354366567435
 30
0.0
 11
1098.154501475444
 21
1076.988738765102
 31
0.0
  0
LINE
  5
BC6
330
1F
100
AcDbEntity
  8
ceco.net 104
370
     5
100
AcDbLine
 10
1098.154501475444
 20
1076.988738765102
 30
0.0
 11
1091.147697114171
 21
1099.747851694633
 31
0.0
  0
LINE
  5
BC7
330
1F
100
AcDbEntity
  8
ceco.net 104
370
     5
100
AcDbLine
 10
1091.147697114171
 20
1099.747851694633
 30
0.0
 11
1076.260404718379
 21
1122.5069646247
 31
0.0
  0
LINE
  5
BC8
330
1F
100
AcDbEntity
  8
ceco.net 104
370
     5
100
AcDbLine
 10
1076.260404718379
 20
1122.5069646247
 30
0.0
 11
1092.0248477873
 21
1148.769486600061
 31
0.0
  0
LINE
  5
BC9
330
1F
100
AcDbEntity
  8
ceco.net 104
370
     5
100
AcDbLine
 10
1092.0248477873
 20
1148.769486600061
 30
0.0
 11
1122.676583243977
 21
1157.522079274714
 31
0.0
  0
LINE
  5
BCA
330
1F
100
AcDbEntity
  8
ceco.net 104
370
     5
100
AcDbLine
 10
1122.676583243977
 20
1157.522079274714
 30
0.0
 11
1143.693529327914
 21
1150.520005135125
 31
0.0
  0
LINE
  5
BCB
330
1F
100
AcDbEntity
  8
ceco.net 104
370
     5
100
AcDbLine
 10
1143.693529327914
 20
1150.520005135125
 30
0.0
 11
1143.693529327914
 21
1145.268449530735
 31
0.0
  0
LINE
  5
BCC
330
1F
100
AcDbEntity
  8
ceco.net 104
370
     5
100
AcDbLine
 10
1143.693529327914
 20
1145.268449530735
 30
0.0
 11
1140.191860643201
 21
1143.515559019703
 31
0.0
  0
LINE
  5
BCD
330
1F
100
AcDbEntity
  8
ceco.net 104
370
     5
100
AcDbLine
 10
1140.191860643201
 20
1143.515559019703
 30
0.0
 11
1131.332930008851
 21
1143.886895928621
 31
0.0
  0
LINE
  5
BCE
330
1F
100
AcDbEntity
  8
ceco.net 104
370
     5
100
AcDbLine
 10
1254.041163778333
 20
978.9478409296785
 30
0.0
 11
1254.918314451462
 21
963.1908021396021
 31
0.0
  0
LINE
  5
BCF
330
1F
100
AcDbEntity
  8
ceco.net 104
370
     5
100
AcDbLine
 10
1254.918314451462
 20
963.1908021396021
 30
0.0
 11
1243.532690732347
 21
952.6876909304196
 31
0.0
  0
LINE
  5
BD0
330
1F
100
AcDbEntity
  8
ceco.net 104
370
     5
100
AcDbLine
 10
1243.532690732347
 20
952.6876909304196
 30
0.0
 11
1219.010608963814
 21
938.6811706748721
 31
0.0
  0
LINE
  5
BD1
330
1F
100
AcDbEntity
  8
ceco.net 104
370
     5
100
AcDbLine
 10
1219.010608963814
 20
938.6811706748721
 30
0.0
 11
1204.123316568022
 21
935.1801336046088
 31
0.0
  0
LINE
  5
BD2
330
1F
100
AcDbEntity
  8
ceco.net 104
370
     5
100
AcDbLine
 10
1204.123316568022
 20
935.1801336046088
 30
0.0
 11
1182.229219818993
 21
922.92413188426
 31
0.0
  0
LINE
  5
BD3
330
1F
100
AcDbEntity
  8
ceco.net 104
370
     5
100
AcDbLine
 10
1243.532690732347
 20
942.1822077447336
 30
0.0
 11
1253.164013105205
 21
927.3004282221226
 31
0.0
  0
LINE
  5
BD4
330
1F
100
AcDbEntity
  8
ceco.net 104
370
     5
100
AcDbLine
 10
1253.164013105205
 20
927.3004282221226
 30
0.0
 11
1253.164013105205
 21
915.0467984777414
 31
0.0
  0
LINE
  5
BD5
330
1F
100
AcDbEntity
  8
ceco.net 104
370
     5
100
AcDbLine
 10
1253.164013105205
 20
915.0467984777414
 30
0.0
 11
1255.791998116672
 21
907.1670930937818
 31
0.0
  0
LINE
  5
BD6
330
1F
100
AcDbEntity
  8
ceco.net 104
370
     5
100
AcDbLine
 10
1187.954958851975
 20
905.0413384259149
 30
0.0
 11
1207.624985252735
 21
894.9134633498024
 31
0.0
  0
LINE
  5
BD7
330
1F
100
AcDbEntity
  8
ceco.net 104
370
     5
100
AcDbLine
 10
1207.624985252735
 20
894.9134633498024
 30
0.0
 11
1253.164013105205
 21
888.7842765014434
 31
0.0
  0
LINE
  5
BD8
330
1F
100
AcDbEntity
  8
ceco.net 104
370
     5
100
AcDbLine
 10
1253.164013105205
 20
888.7842765014434
 30
0.0
 11
1289.948869249909
 21
888.7842765014434
 31
0.0
  0
LINE
  5
BD9
330
1F
100
AcDbEntity
  8
ceco.net 104
370
     5
100
AcDbLine
 10
1289.948869249909
 20
888.7842765014434
 30
0.0
 11
1314.467484018559
 21
902.7907967568568
 31
0.0
  0
LINE
  5
BDA
330
1F
100
AcDbEntity
  8
ceco.net 104
370
     5
100
AcDbLine
 10
1314.467484018559
 20
902.7907967568568
 30
0.0
 11
1323.225122726206
 21
922.92413188426
 31
0.0
  0
LINE
  5
BDB
330
1F
100
AcDbEntity
  8
ceco.net 104
370
     5
100
AcDbLine
 10
1323.225122726206
 20
922.92413188426
 30
0.0
 11
1323.225122726206
 21
959.6897650698746
 31
0.0
  0
LINE
  5
BDC
330
1F
100
AcDbEntity
  8
ceco.net 104
370
     5
100
AcDbLine
 10
1323.225122726206
 20
959.6897650698746
 30
0.0
 11
1322.351439052961
 21
987.7004336039304
 31
0.0
  0
LINE
  5
BDD
330
1F
100
AcDbEntity
  8
ceco.net 104
370
     5
100
AcDbLine
 10
1322.351439052961
 20
987.7004336039304
 30
0.0
 11
1307.464146657169
 21
1010.461918510366
 31
0.0
  0
LINE
  5
BDE
330
1F
100
AcDbEntity
  8
ceco.net 104
370
     5
100
AcDbLine
 10
1307.464146657169
 20
1010.461918510366
 30
0.0
 11
1286.443733573349
 21
1041.098364847086
 31
0.0
  0
LINE
  5
BDF
330
1F
100
AcDbEntity
  8
ceco.net 104
370
     5
100
AcDbLine
 10
1286.443733573349
 20
1041.098364847086
 30
0.0
 11
1269.805606839218
 21
1057.730662904762
 31
0.0
  0
LINE
  5
BE0
330
1F
100
AcDbEntity
  8
ceco.net 104
370
     5
100
AcDbLine
 10
1269.805606839218
 20
1057.730662904762
 30
0.0
 11
1255.791998116672
 21
1062.982218509554
 31
0.0
  0
LINE
  5
BE1
330
1F
100
AcDbEntity
  8
ceco.net 104
370
     5
100
AcDbLine
 10
1255.791998116672
 20
1062.982218509554
 30
0.0
 11
1244.188537803421
 21
1058.804069613292
 31
0.0
  0
LWPOLYLINE
  5
BE2
330
1F
100
AcDbEntity
  8
ceco.net 104
370
     5
100
AcDbPolyline
 90
        9
 70
     0
 43
0.0
 10
1407.299841069755
 20
942.1822077447336
 10
1416.314037672331
 20
920.4288127807098
 10
1429.374221748425
 20
898.6730458404505
 10
1432.855088441874
 20
885.6224320473222
 10
1434.595521788599
 20
868.219241681365
 10
1434.595521788599
 20
844.7248160878881
 10
1422.409021377714
 20
824.7124517530496
 10
1407.60840394686
 20
808.1774047253155
 10
1395.914217358676
 20
799.4983433171769
  0
LWPOLYLINE
  5
BE3
330
1F
100
AcDbEntity
  8
ceco.net 104
370
     5
100
AcDbPolyline
 90
       17
 70
     0
 43
0.0
 10
1399.913843303418
 20
802.4667412462772
 10
1387.534481509726
 20
771.4022836342231
 10
1372.733864078871
 20
738.3345615548567
 10
1356.19628030921
 20
720.9337431647331
 10
1343.13609622508
 20
703.5305527982402
 10
1332.690029152884
 20
689.6070517144178
 10
1326.595045455536
 20
682.6453011727075
 10
1310.053994685992
 20
686.1273624317473
 10
1269.139943086643
 20
684.3863318017587
 10
1226.481991148723
 20
684.3863318017587
 10
1184.697722892083
 20
677.424581260584
 10
1159.451038397068
 20
672.2038613479249
 10
1164.218161605221
 20
693.0416734468725
 10
1172.258131570081
 20
711.7945183474862
 10
1182.978091536622
 20
735.9056577885792
 10
1191.756532227497
 20
763.0173472914752
 10
1197.993662879878
 20
781.1155267244367
  0
LWPOLYLINE
  5
BE4
330
1F
100
AcDbEntity
  8
ceco.net 104
370
     5
100
AcDbPolyline
 90
       22
 70
     0
 43
0.0
 10
1326.595045455536
 20
682.6453011727075
 10
1332.991658046294
 20
650.590412987823
 10
1333.76479875507
 20
627.4826195369395
 10
1339.929122434011
 20
616.6996151201812
 10
1358.422093470833
 20
616.6996151201812
 10
1396.181176253254
 20
619.0099200703973
 10
1411.591985446588
 20
618.2413997379495
 10
1410.052638020767
 20
609.7687002707377
 10
1408.509823603099
 20
565.8634183183836
 10
1406.197335484575
 20
508.8671989763618
 10
1412.365126155363
 20
483.4491005749943
 10
1380.770367051884
 20
474.9764011077825
 10
1289.841392293709
 20
454.1789126071154
 10
1232.81619776569
 20
442.6250158820754
 42
-0.3402622699519902
 10
1134.759073690508
 20
502.2802206948618
 10
1129.617514623541
 20
531.2515396448792
 10
1130.550137278729
 20
550.8772718371245
 10
1132.886894396436
 20
572.3721213806295
 10
1138.031920463287
 20
612.0908651018638
 10
1146.446326286962
 20
639.1930667007552
 10
1152.829070886223
 20
658.8852142297375
 10
1159.451038397068
 20
672.2038613479249
  0
LWPOLYLINE
  5
BE5
330
1F
100
AcDbEntity
  8
ceco.net 104
370
     5
100
AcDbPolyline
 90
       22
 70
     0
 43
0.0
 10
1411.591985446588
 20
618.2413997379495
 10
1505.610056048017
 20
628.9437569589506
 10
1561.002294185512
 20
628.9437569589506
 10
1594.046258741956
 20
620.2006521899087
 10
1625.145237038923
 20
609.5172707790595
 10
1654.299229052307
 20
584.2604667690728
 10
1662.072240130625
 20
567.7467675279939
 10
1664.987986027934
 20
540.5473148996966
 10
1663.046466760305
 20
497.8066733279952
 10
1650.412723517166
 20
455.066031756294
 10
1617.368758960721
 20
399.6969881794653
 10
1594.965013397611
 20
356.498555175025
 10
1568.723300281654
 20
309.8726163668365
 10
1561.921048841168
 20
298.2167246588483
 10
1544.430040425055
 20
298.2167246588483
 10
1507.49957033347
 20
299.1868629800197
 10
1491.950081193022
 20
310.8451266638417
 10
1500.697318892984
 20
349.7004710001273
 10
1498.752332625472
 20
378.84020026983
 10
1506.528810695637
 20
396.3264098073782
 10
1509.441089609135
 20
411.8675987518536
 10
1517.069200208982
 20
419.4284869463648
  0
LWPOLYLINE
  5
BE6
330
1F
100
AcDbEntity
  8
ceco.net 104
370
     5
100
AcDbPolyline
 90
        9
 70
     0
 43
0.0
 10
1412.365126155363
 20
483.4491005749943
 10
1443.360094487978
 20
489.5782874237552
 10
1470.569100233849
 20
499.2915305130311
 10
1495.836586728163
 20
514.8350914333402
 10
1521.104073214441
 20
518.7203886694256
 10
1554.148037762849
 20
509.9772839003836
 10
1560.950289203335
 20
507.064496961973
 10
1564.836794746512
 20
496.3787435751562
 10
1563.415929025087
 20
485.4940755605408
  0
LWPOLYLINE
  5
BE7
330
1F
100
AcDbEntity
  8
ceco.net 104
370
     5
100
AcDbPolyline
 90
        3
 70
     0
 43
0.0
 10
1564.836794746512
 20
496.3787435751562
 10
1574.554792084307
 20
503.176827750054
 10
1590.104281224755
 20
505.1218483436626
  0
LWPOLYLINE
  5
BE8
330
1F
100
AcDbEntity
  8
ceco.net 104
370
     5
100
AcDbPolyline
 90
        5
 70
     0
 43
0.0
 10
1639.668494559479
 20
501.2341791317434
 10
1639.668494559479
 20
516.7777400516508
 10
1621.203259521722
 20
532.3189289955904
 10
1595.935773027408
 20
542.0321720858038
 10
1569.697526919369
 20
545.919841297589
  0
LWPOLYLINE
  5
BE9
330
1F
100
AcDbEntity
  8
ceco.net 104
370
     5
100
AcDbPolyline
 90
       10
 70
     0
 43
0.0
 10
1334.118867050287
 20
626.8632620484746
 10
1368.528394666975
 20
631.5292111638699
 10
1427.810605339494
 20
635.416880375789
 10
1452.103865188057
 20
635.416880375789
 10
1507.49957033347
 20
635.416880375789
 10
1567.752540643821
 20
632.5017214604732
 10
1610.511035546212
 20
627.6439139273827
 10
1628.976270592004
 20
615.0178838987588
 10
1641.610013827108
 20
600.4468332759905
 10
1646.550344893419
 20
590.9735113627045
  0
LWPOLYLINE
  5
BEA
330
1F
100
AcDbEntity
  8
ceco.net 104
370
     5
100
AcDbPolyline
 90
        3
 70
     0
 43
0.0
 10
1451.13310555826
 20
635.416880375789
 10
1449.188119290748
 20
628.6164242249236
 10
1448.150539596072
 20
622.402968928647
  0
LWPOLYLINE
  5
BEB
330
1F
100
AcDbEntity
  8
ceco.net 104
370
     5
100
AcDbPolyline
 90
       15
 70
     0
 43
0.0
 10
1491.950081193022
 20
310.8451266638417
 10
1491.901543202693
 20
300.9990528996183
 10
1492.872302840525
 20
291.2858098094049
 10
1485.095824770359
 20
290.3132995123998
 10
1484.125065140563
 20
284.4853536581378
 10
1482.180078873051
 20
276.7147591866367
 10
1477.322813692041
 20
268.9441647147338
 10
1471.491321889388
 20
263.1162188604718
 10
1470.520562259591
 20
255.3432524120656
 10
1472.46208152722
 20
249.5153065583393
 10
1482.180078873051
 20
239.8020634686616
 10
1488.011570675704
 20
227.1736614631325
 10
1490.927316573013
 20
202.8893677506866
 10
1500.645313910808
 20
197.0614218969603
 10
1525.378081445592
 20
199.7261379812133
  0
LWPOLYLINE
  5
BEC
330
1F
100
AcDbEntity
  8
ceco.net 104
370
     5
100
AcDbPolyline
 90
        5
 70
     0
 43
0.0
 10
1561.921048841168
 20
298.2167246588483
 10
1562.843270488671
 20
285.4578639551429
 10
1555.070259418388
 20
274.77211056846
 10
1538.546543640225
 20
263.1162188604718
 10
1532.821922618436
 20
253.3692424271638
  0
LWPOLYLINE
  5
BED
330
1F
100
AcDbEntity
  8
ceco.net 104
370
     5
100
AcDbPolyline
 90
        6
 70
     0
 43
0.0
 10
1497.729568013498
 20
290.3132995123998
 10
1509.392551618805
 20
285.4578639551429
 10
1525.912800405121
 20
280.6000564221863
 10
1526.887027026766
 20
286.4280022763144
 10
1539.52077027794
 20
283.5152153379038
 10
1543.407275813081
 20
283.5152153379038
  0
LWPOLYLINE
  5
BEE
330
1F
100
AcDbEntity
  8
ceco.net 104
370
     5
100
AcDbPolyline
 90
        6
 70
     0
 43
0.0
 10
1518.139789326803
 20
258.2584113273813
 10
1506.476805721496
 20
244.6598710017521
 10
1510.363311256638
 20
230.0888203784482
 10
1510.363311256638
 20
222.3182259065453
 10
1508.421791989009
 20
215.5177697551442
 10
1508.421791989009
 20
211.6324725197285
  0
LWPOLYLINE
  5
BEF
330
1F
100
AcDbEntity
  8
ceco.net 104
370
     5
100
AcDbPolyline
 90
        5
 70
     0
 43
0.0
 10
1500.645313910808
 20
237.859414850351
 10
1493.843062478357
 20
254.3731140914299
 10
1488.985797297348
 20
259.2309216245204
 10
1485.095824770359
 20
259.2309216245204
 10
1480.238559597386
 20
259.2309216245204
  0
LWPOLYLINE
  5
BF0
330
1F
100
AcDbEntity
  8
ceco.net 104
370
     5
100
AcDbPolyline
 90
        5
 70
     0
 43
0.0
 10
1481.209319227183
 20
270.8868133325086
 10
1488.985797297348
 20
264.0863571816432
 10
1503.561059816152
 20
264.0863571816432
 10
1515.224043421459
 20
263.1162188604718
 10
1523.971281129457
 20
262.1437085638684
  0
LWPOLYLINE
  5
BF1
330
1F
100
AcDbEntity
  8
ceco.net 104
370
     5
100
AcDbPolyline
 90
       22
 70
     0
 43
0.0
 10
1471.491321889388
 20
263.1162188604718
 10
1451.084567584002
 20
244.6598710017521
 10
1432.619332530174
 20
223.2883642275829
 10
1429.703586624829
 20
203.8618780476917
 10
1457.886819016452
 20
183.4628815706615
 10
1468.575575992079
 20
166.9491823291809
 10
1483.154305494695
 20
147.5203241733222
 10
1489.956556943216
 20
132.9492735506879
 10
1502.590300186355
 20
114.4929256912986
 10
1518.139789326803
 20
101.8668956626746
 10
1534.660038105084
 20
87.2958450399064
 10
1552.15451352108
 20
70.78214579842584
 10
1565.759016394015
 20
59.12625409043759
 10
1580.337745904667
 20
52.32579793970617
 10
1585.19501107764
 20
53.29593626087762
 10
1588.110756982985
 20
65.92433826533531
 10
1588.110756982985
 20
77.58022997332355
 10
1568.674762291324
 20
97.97922645035377
 10
1557.011778686018
 20
121.2933818426996
 10
1557.011778686018
 20
144.6075372349116
 10
1557.011778686018
 20
168.8918309480272
 10
1556.918581431969
 20
175.2774506582935
  0
LWPOLYLINE
  5
BF2
330
1F
100
AcDbEntity
  8
ceco.net 104
370
     5
100
AcDbPolyline
 90
       15
 70
     0
 43
0.0
 10
1580.337745904667
 20
52.32579793970617
 10
1573.532027472333
 20
41.64004455288937
 10
1543.407275813081
 20
43.5826931706642
 10
1510.363311256638
 20
75.63758135554872
 10
1488.011570675704
 20
98.95173674789464
 10
1481.209319227183
 20
116.4355743096091
 10
1471.491321889388
 20
125.1786790786511
 10
1456.912592378737
 20
135.8644324654679
 10
1440.392343608492
 20
163.0638850937652
 10
1420.956348924867
 20
176.6624254193944
 10
1412.209111216869
 20
179.5775843347101
 10
1409.293365311524
 20
176.6624254193944
 10
1416.099083751894
 20
160.1487261788513
 10
1430.674346262662
 20
146.5501858526865
 10
1456.912592378737
 20
135.8644324654679
  0
LWPOLYLINE
  5
BF3
330
1F
100
AcDbEntity
  8
ceco.net 104
370
     5
100
AcDbPolyline
 90
        3
 70
     0
 43
0.0
 10
1409.293365311524
 20
176.6624254193944
 10
1420.956348924867
 20
197.0614218969603
 10
1429.703586624829
 20
203.8618780476917
  0
LWPOLYLINE
  5
BF4
330
1F
100
AcDbEntity
  8
ceco.net 104
370
     5
100
AcDbPolyline
 90
        6
 70
     0
 43
0.0
 10
1228.392307433474
 20
1119.930998324991
 10
1221.000666221772
 20
1102.399721236691
 10
1207.475904305972
 20
1077.292351735568
 10
1192.020024130228
 20
1051.221959842918
 10
1173.665733040519
 20
1024.183801606001
 10
1175.993722597601
 20
1011.232933289209
  0
LWPOLYLINE
  5
BF5
330
1F
100
AcDbEntity
  8
ceco.net 104
370
     5
100
AcDbPolyline
 90
        7
 70
     0
 43
0.0
 10
1250.788908983
 20
1095.764814118373
 10
1243.220660855359
 20
1075.361562999373
 10
1221.000666221772
 20
1069.569196790652
 10
1207.475904305972
 20
1060.878275500934
 10
1193.951142406243
 20
1045.427221657828
 10
1182.357498766457
 20
1031.909328527286
 10
1178.408217726419
 20
1013.647128419161
  0
LWPOLYLINE
  5
BF6
330
1F
100
AcDbEntity
  8
ceco.net 104
370
     5
100
AcDbPolyline
 90
        4
 70
     0
 43
0.0
 10
1243.220660855359
 20
1075.361562999373
 10
1251.91589358118
 20
1074.396168631476
 10
1259.643833661017
 20
1073.430774263043
 10
1277.640047260776
 20
1092.842609406725
  0
LWPOLYLINE
  5
BF7
330
1F
100
AcDbEntity
  8
ceco.net 104
370
     5
100
AcDbPolyline
 90
        5
 70
     0
 43
0.0
 10
1117.420613221042
 20
980.698359464877
 10
1118.380971859225
 20
963.5133909208903
 10
1117.160588318195
 20
947.6828208642988
 10
1113.506371694871
 20
939.1579379177629
 10
1108.631771530518
 20
926.9802114162663
  0
LWPOLYLINE
  5
BF8
330
1F
100
AcDbEntity
  8
ceco.net 104
370
     5
100
AcDbPolyline
 90
        3
 70
     0
 43
0.0
 10
1062.336937968689
 20
911.1496413602106
 10
1052.587737631945
 20
913.5856610551945
 10
1050.153904549651
 20
916.0216807507142
  0
LWPOLYLINE
  5
BF9
330
1F
100
AcDbEntity
  8
ceco.net 104
370
     5
100
AcDbPolyline
 90
       10
 70
     0
 43
0.0
 10
1140.232618431156
 20
1151.673053470188
 10
1140.008109713677
 20
1157.600354493968
 10
1132.807153431266
 20
1161.798752606534
 10
1135.206316522763
 20
1161.798752606534
 10
1133.406944202131
 20
1163.599082644151
 10
1131.00431411075
 20
1165.999522694665
 10
1125.602730140935
 20
1165.999522694665
 10
1111.79714133906
 20
1164.799302669408
 10
1085.988803055823
 20
1151.601626344187
 10
1076.260404718379
 20
1122.5069646247
  0
LWPOLYLINE
  5
BFA
330
1F
100
AcDbEntity
  8
ceco.net 104
370
     5
100
AcDbPolyline
 90
        4
 70
     0
 43
0.0
 10
1132.807153431266
 20
1161.798752606534
 10
1119.601355400255
 20
1161.798752606534
 10
1093.793017117019
 20
1151.601626344187
 10
1092.0248477873
 20
1148.769486600061
  0
LINE
  5
BFB
330
1F
100
AcDbEntity
  8
ceco.net 104
370
     5
100
AcDbLine
 10
1178.411101967086
 20
1230.145113198754
 30
0.0
 11
1133.302532523571
 21
1228.772422097949
 31
0.0
  0
LINE
  5
BFC
330
1F
100
AcDbEntity
  8
ceco.net 104
370
     5
100
AcDbLine
 10
1118.021171862214
 20
1216.197418585188
 30
0.0
 11
1105.580223634784
 21
1161.620141472381
 31
0.0
  0
LINE
  5
BFD
330
1F
100
AcDbEntity
  8
ceco.net 104
370
     5
100
AcDbLine
 10
1205.255919548125
 20
1211.724110223047
 30
0.0
 11
1148.7466326558
 21
1210.004485855189
 31
0.0
  0
LINE
  5
BFE
330
1F
100
AcDbEntity
  8
ceco.net 104
370
     5
100
AcDbLine
 10
1133.465271994442
 20
1197.429482342562
 30
0.0
 11
1126.300779342177
 21
1165.999522694665
 31
0.0
  0
ARC
  5
BFF
330
1F
100
AcDbEntity
  8
ceco.net 104
370
     5
100
AcDbCircle
 10
1149.238716696784
 20
1193.833908884913
 30
0.0
 40
16.1780625
100
AcDbArc
 50
91.74302007249492
 51
167.1587826091155
  0
ARC
  5
C00
330
1F
100
AcDbEntity
  8
ceco.net 104
370
     5
100
AcDbCircle
 10
1133.794616564556
 20
1212.601845128074
 30
0.0
 40
16.1780625
100
AcDbArc
 50
91.74302007249492
 51
167.1587826091155
  0
LINE
  5
C01
330
1F
100
AcDbEntity
  8
ceco.net 104
370
     5
100
AcDbLine
 10
1182.229219818993
 20
1311.562966391862
 30
0.0
 11
1190.28698527081
 21
1291.780314596566
 31
0.0
  0
LINE
  5
C02
330
1F
100
AcDbEntity
  8
ceco.net 104
370
     5
100
AcDbLine
 10
239.7640349081125
 20
371.5936219376419
 30
0.0
 11
284.1461791937735
 21
1354.311575462745
 31
0.0
  0
LINE
  5
C03
330
1F
100
AcDbEntity
  8
ceco.net 104
370
     5
100
AcDbLine
 10
330.2956965486111
 20
374.0903647331845
 30
0.0
 11
362.7480781499303
 21
1411.828788170901
 31
0.0
  0
LINE
  5
C04
330
1F
100
AcDbEntity
  8
ceco.net 104
370
     5
100
AcDbLine
 10
549.6203225896706
 20
1673.460139704173
 30
0.0
 11
349.1926415041085
 21
1549.899148485639
 31
0.0
  0
LINE
  5
C05
330
1F
100
AcDbEntity
  8
ceco.net 104
370
     5
100
AcDbLine
 10
658.3812466450273
 20
1626.47797129929
 30
0.0
 11
615.4200761854748
 21
1599.992982912955
 31
0.0
  0
LINE
  5
C06
330
1F
100
AcDbEntity
  8
ceco.net 104
370
     5
100
AcDbLine
 10
894.2596819757723
 20
1771.893879513435
 30
0.0
 11
671.3236966369915
 21
1634.45681903689
 31
0.0
  0
ENDSEC
  0
SECTION
  2
OBJECTS
  0
DICTIONARY
  5
C
330
0
100
AcDbDictionary
281
     1
  3
ACAD_GROUP
350
D
  3
ACAD_LAYOUT
350
1A
  3
ACAD_MLINESTYLE
350
17
  3
ACAD_PLOTSETTINGS
350
19
  3
ACAD_PLOTSTYLENAME
350
E
  3
AcDbVariableDictionary
350
115
  3
DWGPROPS
350
8E3
  0
DICTIONARY
  5
969
330
2
100
AcDbDictionary
280
     1
281
     1
  3
ACAD_LAYERFILTERS
360
C07
  3
ACAD_LAYERSTATES
360
96A
  0
DICTIONARY
  5
8F6
330
8F5
100
AcDbDictionary
280
     1
281
     1
  3
ACAD_XREC_ROUNDTRIP
360
8F7
  0
DICTIONARY
  5
D
102
{ACAD_REACTORS
330
C
102
}
330
C
100
AcDbDictionary
281
     1
  0
DICTIONARY
  5
1A
102
{ACAD_REACTORS
330
C
102
}
330
C
100
AcDbDictionary
281
     1
  3
Layout1
350
1E
  3
Layout2
350
26
  3
Model
350
22
  0
DICTIONARY
  5
17
102
{ACAD_REACTORS
330
C
102
}
330
C
100
AcDbDictionary
281
     1
  3
Standard
350
18
  0
DICTIONARY
  5
19
102
{ACAD_REACTORS
330
C
102
}
330
C
100
AcDbDictionary
281
     1
  3
PKL A3 Scale To Fit
350
966
  0
ACDBDICTIONARYWDFLT
  5
E
102
{ACAD_REACTORS
330
C
102
}
330
C
100
AcDbDictionary
281
     1
  3
Normal
350
F
100
AcDbDictionaryWithDefault
340
F
  0
DICTIONARY
  5
115
102
{ACAD_REACTORS
330
C
102
}
330
C
100
AcDbDictionary
281
     1
  3
DIMASSOC
350
117
  3
HIDETEXT
350
116
  0
XRECORD
  5
8E3
102
{ACAD_REACTORS
330
C
102
}
330
C
100
AcDbXrecord
280
     1
  1
DWGPROPS COOKIE
  2
Ceco.NET-Trees-and-Plants - T - xx . 67 . dwg
  3

  4
ceco.net
  6

  7

  8
peacosta
  9

300
=
301
=
302
=
303
=
304
=
305
=
306
=
307
=
308
=
309
=
 40
0.0450312037037037
 41
2455079.811409143
 42
2455838.656599502
  1

 90
        0
  0
DICTIONARY
  5
C07
102
{ACAD_REACTORS
330
969
102
}
330
969
100
AcDbDictionary
280
     1
281
     1
  0
DICTIONARY
  5
96A
102
{ACAD_REACTORS
330
969
102
}
330
969
100
AcDbDictionary
281
     1
  0
XRECORD
  5
8F7
102
{ACAD_REACTORS
330
8F6
102
}
330
8F6
100
AcDbXrecord
280
     1
102
MATERIAL
340
0
  0
LAYOUT
  5
1E
102
{ACAD_REACTORS
330
1A
102
}
330
1A
100
AcDbPlotSettings
  1

  2
Microsoft Office Document Image Writer
  4

  6

 40
0.0
 41
0.0
 42
0.0
 43
0.0
 44
0.0
 45
0.0
 46
0.0
 47
0.0
 48
0.0
 49
0.0
140
0.0
141
0.0
142
1.0
143
1.0
 70
   688
 72
     0
 73
     0
 74
     5
  7

 75
    16
147
1.0
148
0.0
149
0.0
100
AcDbLayout
  1
Layout1
 70
     1
 71
     1
 10
0.0
 20
0.0
 11
420.0
 21
297.0
 12
0.0
 22
0.0
 32
0.0
 14
1.000000000000000E+20
 24
1.000000000000000E+20
 34
1.000000000000000E+20
 15
-1.000000000000000E+20
 25
-1.000000000000000E+20
 35
-1.000000000000000E+20
146
0.0
 13
0.0
 23
0.0
 33
0.0
 16
1.0
 26
0.0
 36
0.0
 17
0.0
 27
1.0
 37
0.0
 76
     0
330
1B
  0
LAYOUT
  5
26
102
{ACAD_REACTORS
330
1A
102
}
330
1A
100
AcDbPlotSettings
  1

  2
Microsoft Office Document Image Writer
  4

  6

 40
0.0
 41
0.0
 42
0.0
 43
0.0
 44
0.0
 45
0.0
 46
0.0
 47
0.0
 48
0.0
 49
0.0
140
0.0
141
0.0
142
1.0
143
1.0
 70
   688
 72
     0
 73
     0
 74
     5
  7

 75
    16
147
1.0
148
0.0
149
0.0
100
AcDbLayout
  1
Layout2
 70
     1
 71
     2
 10
0.0
 20
0.0
 11
12.0
 21
9.0
 12
0.0
 22
0.0
 32
0.0
 14
0.0
 24
0.0
 34
0.0
 15
0.0
 25
0.0
 35
0.0
146
0.0
 13
0.0
 23
0.0
 33
0.0
 16
1.0
 26
0.0
 36
0.0
 17
0.0
 27
1.0
 37
0.0
 76
     0
330
23
  0
LAYOUT
  5
22
102
{ACAD_REACTORS
330
1A
102
}
330
1A
100
AcDbPlotSettings
  1

  2
Microsoft Office Document Image Writer
  4

  6

 40
0.0
 41
0.0
 42
0.0
 43
0.0
 44
0.0
 45
0.0
 46
0.0
 47
0.0
 48
0.0
 49
0.0
140
0.0
141
0.0
142
1.0
143
1.0
 70
  1712
 72
     0
 73
     0
 74
     0
  7

 75
     0
147
1.0
148
0.0
149
0.0
100
AcDbLayout
  1
Model
 70
     1
 71
     0
 10
0.0
 20
0.0
 11
12.0
 21
9.0
 12
0.0
 22
0.0
 32
0.0
 14
0.0
 24
0.0
 34
0.0
 15
0.0
 25
0.0
 35
0.0
146
0.0
 13
0.0
 23
0.0
 33
0.0
 16
1.0
 26
0.0
 36
0.0
 17
0.0
 27
1.0
 37
0.0
 76
     0
330
1F
  0
MLINESTYLE
  5
18
102
{ACAD_REACTORS
330
17
102
}
330
17
100
AcDbMlineStyle
  2
STANDARD
 70
     0
  3

 62
   256
 51
90.0
 52
90.0
 71
     2
 49
0.5
 62
   256
  6
BYLAYER
 49
-0.5
 62
   256
  6
BYLAYER
  0
PLOTSETTINGS
  5
966
102
{ACAD_XDICTIONARY
360
967
102
}
102
{ACAD_REACTORS
330
19
102
}
330
19
100
AcDbPlotSettings
  1
PKL A3 Scale To Fit
  2
CopierCAD
  4
A3
  6

 40
6.805083274841308
 41
5.027085304260253
 42
7.228424072265625
 43
5.027069091796875
 44
296.9259948730469
 45
419.9466552734374
 46
7.84267912534915
 47
0.0
 48
0.0
 49
0.0
140
0.0
141
0.0
142
1.0
143
0.9858994474396954
 70
  2742
 72
     1
 73
     1
 74
     1
  7
PKL-A1-Std2.ctb
 75
     0
147
1.014302221790388
148
7.426264844891875
149
-9.288533315355948
1001
ACAD_PSEXT
1000
CopierCAD
1000
NRG DSc338 PCL 5c
1000
IP_192.168.0.152
1000

1070
     0
  0
ACDBPLACEHOLDER
  5
F
102
{ACAD_REACTORS
330
E
102
}
330
E
  0
DICTIONARYVAR
  5
117
102
{ACAD_REACTORS
330
115
102
}
330
115
100
DictionaryVariables
280
     0
  1
2
  0
DICTIONARYVAR
  5
116
102
{ACAD_REACTORS
330
115
102
}
330
115
100
DictionaryVariables
280
     0
  1
1
  0
DICTIONARY
  5
967
330
966
100
AcDbDictionary
280
     1
281
     1
  3
ACAD_XREC_ROUNDTRIP
360
968
  0
XRECORD
  5
968
102
{ACAD_REACTORS
330
967
102
}
330
967
100
AcDbXrecord
280
     1
102
SHADEPLOT
 70
     1
102
SHADEPLOTRESLEVEL
 70
     2
102
SHADEPLOTCUSTOMDPI
 70
   300
  0
ENDSEC
  0
EOF
