  0
SECTION
  2
HEADER
  9
$ACADVER
  1
AC1015
  9
$ACADMAINTVER
 70
    13
  9
$DWGCODEPAGE
  3
ANSI_1252
  9
$INSBASE
 10
0.0
 20
0.0
 30
0.0
  9
$EXTMIN
 10
-255.1487717209695
 20
-1.604788457143513
 30
-0.0000000349181948
  9
$EXTMAX
 10
308.608386110427
 20
1678.869131745518
 30
0.0000000814935746
  9
$LIMMIN
 10
0.0
 20
0.0
  9
$LIMMAX
 10
420.0
 20
297.0
  9
$ORTHOMODE
 70
     0
  9
$REGENMODE
 70
     1
  9
$FILLMODE
 70
     1
  9
$QTEXTMODE
 70
     0
  9
$MIRRTEXT
 70
     1
  9
$LTSCALE
 40
1.0
  9
$ATTMODE
 70
     1
  9
$TEXTSIZE
 40
2.5
  9
$TRACEWID
 40
1.0
  9
$TEXTSTYLE
  7
Standard
  9
$CLAYER
  8
ceco.net 128
  9
$CELTYPE
  6
ByLayer
  9
$CECOLOR
 62
   256
  9
$CELTSCALE
 40
1.0
  9
$DISPSILH
 70
     0
  9
$DIMSCALE
 40
1.0
  9
$DIMASZ
 40
2.5
  9
$DIMEXO
 40
0.625
  9
$DIMDLI
 40
3.75
  9
$DIMRND
 40
0.0
  9
$DIMDLE
 40
0.0
  9
$DIMEXE
 40
1.25
  9
$DIMTP
 40
0.0
  9
$DIMTM
 40
0.0
  9
$DIMTXT
 40
2.5
  9
$DIMCEN
 40
2.5
  9
$DIMTSZ
 40
0.0
  9
$DIMTOL
 70
     0
  9
$DIMLIM
 70
     0
  9
$DIMTIH
 70
     0
  9
$DIMTOH
 70
     0
  9
$DIMSE1
 70
     0
  9
$DIMSE2
 70
     0
  9
$DIMTAD
 70
     1
  9
$DIMZIN
 70
     8
  9
$DIMBLK
  1

  9
$DIMASO
 70
     1
  9
$DIMSHO
 70
     1
  9
$DIMPOST
  1

  9
$DIMAPOST
  1

  9
$DIMALT
 70
     0
  9
$DIMALTD
 70
     3
  9
$DIMALTF
 40
0.03937007874016
  9
$DIMLFAC
 40
1.0
  9
$DIMTOFL
 70
     1
  9
$DIMTVP
 40
0.0
  9
$DIMTIX
 70
     0
  9
$DIMSOXD
 70
     0
  9
$DIMSAH
 70
     0
  9
$DIMBLK1
  1

  9
$DIMBLK2
  1

  9
$DIMSTYLE
  2
ISO-25
  9
$DIMCLRD
 70
     0
  9
$DIMCLRE
 70
     0
  9
$DIMCLRT
 70
     0
  9
$DIMTFAC
 40
1.0
  9
$DIMGAP
 40
0.625
  9
$DIMJUST
 70
     0
  9
$DIMSD1
 70
     0
  9
$DIMSD2
 70
     0
  9
$DIMTOLJ
 70
     0
  9
$DIMTZIN
 70
     8
  9
$DIMALTZ
 70
     0
  9
$DIMALTTZ
 70
     0
  9
$DIMUPT
 70
     0
  9
$DIMDEC
 70
     2
  9
$DIMTDEC
 70
     2
  9
$DIMALTU
 70
     2
  9
$DIMALTTD
 70
     3
  9
$DIMTXSTY
  7
Standard
  9
$DIMAUNIT
 70
     0
  9
$DIMADEC
 70
     0
  9
$DIMALTRND
 40
0.0
  9
$DIMAZIN
 70
     0
  9
$DIMDSEP
 70
    44
  9
$DIMATFIT
 70
     3
  9
$DIMFRAC
 70
     0
  9
$DIMLDRBLK
  1

  9
$DIMLUNIT
 70
     2
  9
$DIMLWD
 70
    -2
  9
$DIMLWE
 70
    -2
  9
$DIMTMOVE
 70
     0
  9
$LUNITS
 70
     2
  9
$LUPREC
 70
     2
  9
$SKETCHINC
 40
1.0
  9
$FILLETRAD
 40
10.0
  9
$AUNITS
 70
     0
  9
$AUPREC
 70
     0
  9
$MENU
  1
.
  9
$ELEVATION
 40
0.0
  9
$PELEVATION
 40
0.0
  9
$THICKNESS
 40
0.0
  9
$LIMCHECK
 70
     0
  9
$CHAMFERA
 40
10.0
  9
$CHAMFERB
 40
10.0
  9
$CHAMFERC
 40
20.0
  9
$CHAMFERD
 40
0.0
  9
$SKPOLY
 70
     0
  9
$TDCREATE
 40
2455079.811409143
  9
$TDUCREATE
 40
2455079.936409144
  9
$TDUPDATE
 40
2456676.616969155
  9
$TDUUPDATE
 40
2456676.741969155
  9
$TDINDWG
 40
0.0478130093
  9
$TDUSRTIMER
 40
0.0478130093
  9
$USRTIMER
 70
     1
  9
$ANGBASE
 50
0.0
  9
$ANGDIR
 70
     0
  9
$PDMODE
 70
     0
  9
$PDSIZE
 40
0.0
  9
$PLINEWID
 40
0.0
  9
$SPLFRAME
 70
     0
  9
$SPLINETYPE
 70
     6
  9
$SPLINESEGS
 70
     8
  9
$HANDSEED
  5
9DC
  9
$SURFTAB1
 70
     6
  9
$SURFTAB2
 70
     6
  9
$SURFTYPE
 70
     6
  9
$SURFU
 70
     6
  9
$SURFV
 70
     6
  9
$UCSBASE
  2

  9
$UCSNAME
  2

  9
$UCSORG
 10
0.0
 20
0.0
 30
0.0
  9
$UCSXDIR
 10
1.0
 20
0.0
 30
0.0
  9
$UCSYDIR
 10
0.0
 20
1.0
 30
0.0
  9
$UCSORTHOREF
  2

  9
$UCSORTHOVIEW
 70
     0
  9
$UCSORGTOP
 10
0.0
 20
0.0
 30
0.0
  9
$UCSORGBOTTOM
 10
0.0
 20
0.0
 30
0.0
  9
$UCSORGLEFT
 10
0.0
 20
0.0
 30
0.0
  9
$UCSORGRIGHT
 10
0.0
 20
0.0
 30
0.0
  9
$UCSORGFRONT
 10
0.0
 20
0.0
 30
0.0
  9
$UCSORGBACK
 10
0.0
 20
0.0
 30
0.0
  9
$PUCSBASE
  2

  9
$PUCSNAME
  2

  9
$PUCSORG
 10
0.0
 20
0.0
 30
0.0
  9
$PUCSXDIR
 10
1.0
 20
0.0
 30
0.0
  9
$PUCSYDIR
 10
0.0
 20
1.0
 30
0.0
  9
$PUCSORTHOREF
  2

  9
$PUCSORTHOVIEW
 70
     0
  9
$PUCSORGTOP
 10
0.0
 20
0.0
 30
0.0
  9
$PUCSORGBOTTOM
 10
0.0
 20
0.0
 30
0.0
  9
$PUCSORGLEFT
 10
0.0
 20
0.0
 30
0.0
  9
$PUCSORGRIGHT
 10
0.0
 20
0.0
 30
0.0
  9
$PUCSORGFRONT
 10
0.0
 20
0.0
 30
0.0
  9
$PUCSORGBACK
 10
0.0
 20
0.0
 30
0.0
  9
$USERI1
 70
     0
  9
$USERI2
 70
     0
  9
$USERI3
 70
     0
  9
$USERI4
 70
     0
  9
$USERI5
 70
     0
  9
$USERR1
 40
0.0
  9
$USERR2
 40
0.0
  9
$USERR3
 40
0.0
  9
$USERR4
 40
0.0
  9
$USERR5
 40
0.0
  9
$WORLDVIEW
 70
     1
  9
$SHADEDGE
 70
     3
  9
$SHADEDIF
 70
    70
  9
$TILEMODE
 70
     1
  9
$MAXACTVP
 70
    64
  9
$PINSBASE
 10
0.0
 20
0.0
 30
0.0
  9
$PLIMCHECK
 70
     0
  9
$PEXTMIN
 10
1.000000000000000E+20
 20
1.000000000000000E+20
 30
1.000000000000000E+20
  9
$PEXTMAX
 10
-1.000000000000000E+20
 20
-1.000000000000000E+20
 30
-1.000000000000000E+20
  9
$PLIMMIN
 10
0.0
 20
0.0
  9
$PLIMMAX
 10
420.0
 20
297.0
  9
$UNITMODE
 70
     0
  9
$VISRETAIN
 70
     1
  9
$PLINEGEN
 70
     0
  9
$PSLTSCALE
 70
     1
  9
$TREEDEPTH
 70
  3020
  9
$CMLSTYLE
  2
Standard
  9
$CMLJUST
 70
     0
  9
$CMLSCALE
 40
20.0
  9
$PROXYGRAPHICS
 70
     1
  9
$MEASUREMENT
 70
     1
  9
$CELWEIGHT
370
    -1
  9
$ENDCAPS
280
     0
  9
$JOINSTYLE
280
     0
  9
$LWDISPLAY
290
     0
  9
$INSUNITS
 70
     4
  9
$HYPERLINKBASE
  1

  9
$STYLESHEET
  1

  9
$XEDIT
290
     1
  9
$CEPSNTYPE
380
     0
  9
$PSTYLEMODE
290
     1
  9
$FINGERPRINTGUID
  2
{81085373-3A21-4932-80AA-8F6C3258C50C}
  9
$VERSIONGUID
  2
{3028B280-AE7F-4DA6-84A9-DEB160F94CE1}
  9
$EXTNAMES
290
     1
  9
$PSVPSCALE
 40
0.0
  9
$OLESTARTUP
290
     0
  0
ENDSEC
  0
SECTION
  2
CLASSES
  0
CLASS
  1
ACDBDICTIONARYWDFLT
  2
AcDbDictionaryWithDefault
  3
AutoCAD 2000
 90
        0
280
     0
281
     0
  0
CLASS
  1
ACDBPLACEHOLDER
  2
AcDbPlaceHolder
  3
AutoCAD 2000
 90
        0
280
     0
281
     0
  0
CLASS
  1
LAYOUT
  2
AcDbLayout
  3
AutoCAD 2000
 90
        0
280
     0
281
     0
  0
CLASS
  1
DICTIONARYVAR
  2
AcDbDictionaryVar
  3
AutoCAD 2000
 90
        0
280
     0
281
     0
  0
ENDSEC
  0
SECTION
  2
TABLES
  0
TABLE
  2
VPORT
  5
8
330
0
100
AcDbSymbolTable
 70
     3
  0
VPORT
  5
9DB
330
8
100
AcDbSymbolTableRecord
100
AcDbViewportTableRecord
  2
*Active
 70
     0
 10
0.0
 20
0.0
 11
1.0
 21
1.0
 12
26.72980719472866
 22
838.6321716441871
 13
0.0
 23
0.0
 14
10.0
 24
10.0
 15
10.0
 25
10.0
 16
0.0
 26
0.0
 36
1.0
 17
0.0
 27
0.0
 37
0.0
 40
1692.406279399366
 41
2.184834123222748
 42
50.0
 43
0.0
 44
0.0
 50
0.0
 51
0.0
 71
     0
 72
   100
 73
     1
 74
     3
 75
     0
 76
     0
 77
     0
 78
     0
281
     0
 65
     1
110
0.0
120
0.0
130
0.0
111
1.0
121
0.0
131
0.0
112
0.0
122
1.0
132
0.0
 79
     0
146
0.0
  0
ENDTAB
  0
TABLE
  2
LTYPE
  5
5
330
0
100
AcDbSymbolTable
 70
     1
  0
LTYPE
  5
14
330
5
100
AcDbSymbolTableRecord
100
AcDbLinetypeTableRecord
  2
ByBlock
 70
     0
  3

 72
    65
 73
     0
 40
0.0
  0
LTYPE
  5
15
330
5
100
AcDbSymbolTableRecord
100
AcDbLinetypeTableRecord
  2
ByLayer
 70
     0
  3

 72
    65
 73
     0
 40
0.0
  0
LTYPE
  5
16
330
5
100
AcDbSymbolTableRecord
100
AcDbLinetypeTableRecord
  2
Continuous
 70
     0
  3
Solid line
 72
    65
 73
     0
 40
0.0
  0
ENDTAB
  0
TABLE
  2
LAYER
  5
2
102
{ACAD_XDICTIONARY
360
901
102
}
330
0
100
AcDbSymbolTable
 70
     2
  0
LAYER
  5
10
330
2
100
AcDbSymbolTableRecord
100
AcDbLayerTableRecord
  2
0
 70
     0
 62
     7
  6
Continuous
370
    -3
390
F
  0
LAYER
  5
8F5
102
{ACAD_XDICTIONARY
360
8F6
102
}
330
2
100
AcDbSymbolTableRecord
100
AcDbLayerTableRecord
  2
ceco.net 128
 70
     0
 62
     7
  6
Continuous
370
    -3
390
F
1001
AcAecLayerStandard
1000

1000

  0
ENDTAB
  0
TABLE
  2
STYLE
  5
3
330
0
100
AcDbSymbolTable
 70
     1
  0
STYLE
  5
11
330
3
100
AcDbSymbolTableRecord
100
AcDbTextStyleTableRecord
  2
Standard
 70
     0
 40
0.0
 41
1.0
 50
0.0
 71
     0
 42
2.5
  3
txt
  4

  0
ENDTAB
  0
TABLE
  2
VIEW
  5
6
330
0
100
AcDbSymbolTable
 70
     0
  0
ENDTAB
  0
TABLE
  2
UCS
  5
7
330
0
100
AcDbSymbolTable
 70
     0
  0
ENDTAB
  0
TABLE
  2
APPID
  5
9
330
0
100
AcDbSymbolTable
 70
    13
  0
APPID
  5
12
330
9
100
AcDbSymbolTableRecord
100
AcDbRegAppTableRecord
  2
ACAD
 70
     0
  0
APPID
  5
2C
330
9
100
AcDbSymbolTableRecord
100
AcDbRegAppTableRecord
  2
ACAD_DSTYLE_DIMJOGGED_JOGANGLE_SYMBOL
 70
     0
  0
APPID
  5
11B
330
9
100
AcDbSymbolTableRecord
100
AcDbRegAppTableRecord
  2
ACAD_NAV_VCDISPLAY
 70
     0
  0
APPID
  5
11C
330
9
100
AcDbSymbolTableRecord
100
AcDbRegAppTableRecord
  2
ACAD_MLEADERVER
 70
     0
  0
APPID
  5
8F8
330
9
100
AcDbSymbolTableRecord
100
AcDbRegAppTableRecord
  2
ACAD_PSEXT
 70
     0
  0
APPID
  5
8F9
330
9
100
AcDbSymbolTableRecord
100
AcDbRegAppTableRecord
  2
ACAD_DSTYLE_DIMEXT_LENGTH
 70
     0
  0
APPID
  5
8FA
330
9
100
AcDbSymbolTableRecord
100
AcDbRegAppTableRecord
  2
ACAD_DSTYLE_DIMEXT_ENABLED
 70
     0
  0
APPID
  5
8FB
330
9
100
AcDbSymbolTableRecord
100
AcDbRegAppTableRecord
  2
ACAD_DSTYLE_DIMARC_LENGTH_SYMBOL
 70
     0
  0
APPID
  5
8FC
330
9
100
AcDbSymbolTableRecord
100
AcDbRegAppTableRecord
  2
AcAecLayerStandard
 70
     0
  0
APPID
  5
8FD
330
9
100
AcDbSymbolTableRecord
100
AcDbRegAppTableRecord
  2
ACAD_DSTYLE_DIM_LINETYPE
 70
     0
  0
APPID
  5
8FE
330
9
100
AcDbSymbolTableRecord
100
AcDbRegAppTableRecord
  2
ACAD_DSTYLE_DIM_EXT1_LINETYPE
 70
     0
  0
APPID
  5
8FF
330
9
100
AcDbSymbolTableRecord
100
AcDbRegAppTableRecord
  2
ACAD_DSTYLE_DIM_EXT2_LINETYPE
 70
     0
  0
APPID
  5
900
330
9
100
AcDbSymbolTableRecord
100
AcDbRegAppTableRecord
  2
ACAD_EXEMPT_FROM_CAD_STANDARDS
 70
     0
  0
ENDTAB
  0
TABLE
  2
DIMSTYLE
  5
A
330
0
100
AcDbSymbolTable
 70
     2
100
AcDbDimStyleTable
 71
     0
  0
DIMSTYLE
105
27
330
A
100
AcDbSymbolTableRecord
100
AcDbDimStyleTableRecord
  2
ISO-25
 70
     0
 41
2.5
 42
0.625
 43
3.75
 44
1.25
 73
     0
 74
     0
 77
     1
 78
     8
140
2.5
141
2.5
143
0.03937007874016
147
0.625
171
     3
172
     1
271
     2
272
     2
274
     3
278
    44
283
     0
284
     8
340
11
  0
DIMSTYLE
105
2B
330
A
100
AcDbSymbolTableRecord
100
AcDbDimStyleTableRecord
  2
Standard
 70
     0
340
11
  0
ENDTAB
  0
TABLE
  2
BLOCK_RECORD
  5
1
330
0
100
AcDbSymbolTable
 70
     2
  0
BLOCK_RECORD
  5
1F
330
1
100
AcDbSymbolTableRecord
100
AcDbBlockTableRecord
  2
*Model_Space
340
22
  0
BLOCK_RECORD
  5
1B
330
1
100
AcDbSymbolTableRecord
100
AcDbBlockTableRecord
  2
*Paper_Space
340
1E
  0
BLOCK_RECORD
  5
23
330
1
100
AcDbSymbolTableRecord
100
AcDbBlockTableRecord
  2
*Paper_Space0
340
26
  0
ENDTAB
  0
ENDSEC
  0
SECTION
  2
BLOCKS
  0
BLOCK
  5
20
330
1F
100
AcDbEntity
  8
0
100
AcDbBlockBegin
  2
*Model_Space
 70
     0
 10
0.0
 20
0.0
 30
0.0
  3
*Model_Space
  1

  0
ENDBLK
  5
21
330
1F
100
AcDbEntity
  8
0
100
AcDbBlockEnd
  0
BLOCK
  5
1C
330
1B
100
AcDbEntity
 67
     1
  8
0
100
AcDbBlockBegin
  2
*Paper_Space
 70
     0
 10
0.0
 20
0.0
 30
0.0
  3
*Paper_Space
  1

  0
ENDBLK
  5
1D
330
1B
100
AcDbEntity
 67
     1
  8
0
100
AcDbBlockEnd
  0
BLOCK
  5
24
330
23
100
AcDbEntity
  8
0
100
AcDbBlockBegin
  2
*Paper_Space0
 70
     0
 10
0.0
 20
0.0
 30
0.0
  3
*Paper_Space0
  1

  0
ENDBLK
  5
25
330
23
100
AcDbEntity
  8
0
100
AcDbBlockEnd
  0
ENDSEC
  0
SECTION
  2
ENTITIES
  0
LWPOLYLINE
  5
970
330
1F
100
AcDbEntity
  8
ceco.net 128
100
AcDbPolyline
 90
        5
 70
     0
 43
0.0
 10
36.96963397510444
 20
1590.240779571914
 10
33.42327115899479
 20
1591.283434182656
 10
22.99275053735527
 20
1591.909029104599
 10
4.426422791880213
 20
1591.283434182656
 10
-6.838524938075352
 20
1589.823719883142
  0
LWPOLYLINE
  5
971
330
1F
100
AcDbEntity
  8
ceco.net 128
100
AcDbPolyline
 90
        5
 70
     0
 43
0.0
 10
62.83732442454947
 20
1589.198124961171
 10
71.39035375803359
 20
1589.823719883142
 10
83.07252369775142
 20
1589.198124961171
 10
92.45999745076005
 20
1585.44456620703
 10
94.33748873902914
 20
1584.401911596302
  0
LWPOLYLINE
  5
972
330
1F
100
AcDbEntity
  8
ceco.net 128
100
AcDbPolyline
 90
        6
 70
     0
 43
0.0
 10
32.38020697892807
 20
1574.600949633378
 10
26.33051090413118
 20
1577.311853776791
 10
19.86359261957204
 20
1579.397162998262
 10
12.56222991548838
 20
1579.188627765077
 10
2.548931503611129
 20
1576.894794088019
 10
-5.169653410348473
 20
1574.809474088965
  0
LWPOLYLINE
  5
973
330
1F
100
AcDbEntity
  8
ceco.net 128
100
AcDbPolyline
 90
        5
 70
     0
 43
0.0
 10
63.67176884418768
 20
1570.847390879237
 10
69.51284515832867
 20
1573.14122455628
 10
78.27449425235499
 20
1572.932700100693
 10
83.90696811727593
 20
1570.430320412881
 10
87.66195069392779
 20
1569.179141346552
  0
LWPOLYLINE
  5
974
330
1F
100
AcDbEntity
  8
ceco.net 128
100
AcDbPolyline
 90
       20
 70
     0
 43
0.0
 10
99.55274039418782
 20
1596.913777702653
 10
99.55274039418782
 20
1590.449314805098
 10
99.96996260395007
 20
1582.316602374845
 10
99.34413794496776
 20
1573.558295022635
 10
98.50969352544325
 20
1565.634107047998
 10
100.387184813826
 20
1556.458740007016
 10
101.2216292333505
 20
1544.363933589465
 10
99.96996260395007
 20
1530.392353183586
 10
93.92026652926688
 20
1508.705109258698
 10
89.95666419195913
 20
1495.150588541605
 10
83.48974590751367
 20
1484.932566889909
 10
76.39215577012237
 20
1475.895594646033
 10
61.37222546362863
 20
1466.094632683095
 10
46.35227784569906
 20
1461.924003462598
 10
27.36872789046174
 20
1461.924003462598
 10
11.93157537420574
 20
1465.67756221674
 10
3.169926280065737
 20
1467.762882215779
 10
-5.800307951631111
 20
1471.30790573675
 10
-12.0586237869702
 20
1476.729714023576
 10
-19.35998649105385
 20
1482.777117232373
  0
LWPOLYLINE
  5
975
330
1F
100
AcDbEntity
  8
ceco.net 128
100
AcDbPolyline
 90
       14
 70
     0
 43
0.0
 10
68.4649684070564
 20
1511.971478665572
 10
64.29276362064229
 20
1515.307977730927
 10
60.32916128344822
 20
1519.478596173854
 10
55.5311318380518
 20
1521.772440628495
 10
50.73308508121954
 20
1521.772440628495
 10
47.81254692420588
 20
1520.938310473368
 10
44.89200876707855
 20
1521.772440628495
 10
42.38867550839131
 20
1523.232154927995
 10
39.0509151416154
 20
1522.815095239238
 10
34.67009059454539
 20
1521.146845706539
 10
29.45483893938671
 20
1517.810346641169
 10
22.57069844506531
 20
1516.142097108485
 10
17.14682702936443
 20
1514.265323120213
 10
14.01766911169488
 20
1514.056787887028
  0
LWPOLYLINE
  5
976
330
1F
100
AcDbEntity
  8
ceco.net 128
100
AcDbPolyline
 90
        9
 70
     0
 43
0.0
 10
64.6047324785286
 20
1504.73148326975
 10
57.28340972268597
 20
1502.389549290555
 10
52.1584889869473
 20
1501.07220671208
 10
44.83716623110467
 20
1501.07220671208
 10
37.9551377284315
 20
1501.950438690272
 10
30.63381497258887
 20
1505.756074670458
 10
26.9731449388928
 20
1508.537119249936
 10
22.87321527489893
 20
1510.732683029004
 10
18.6268484227412
 20
1512.196395807592
  0
LWPOLYLINE
  5
977
330
1F
100
AcDbEntity
  8
ceco.net 128
100
AcDbPolyline
 90
       10
 70
     0
 43
0.0
 10
65.62972355015972
 20
1509.561721428212
 10
58.89411492432827
 20
1511.318163829429
 10
53.62275700042573
 20
1513.0746170082
 10
50.10852415500721
 20
1512.196395807592
 10
45.42288036100217
 20
1512.050025607493
 10
42.05506739242537
 20
1512.050025607493
 10
38.24797748200126
 20
1514.099208408907
 10
31.95164579778975
 20
1513.220987208313
 10
26.09459105542555
 20
1513.367357408398
 10
20.67681325468129
 20
1513.952838208794
  0
LWPOLYLINE
  5
978
330
1F
100
AcDbEntity
  8
ceco.net 128
100
AcDbPolyline
 90
       10
 70
     0
 43
0.0
 10
54.21525720169029
 20
1582.660579350502
 10
52.60456931148382
 20
1576.659368813665
 10
52.60456931148382
 20
1571.975511632871
 10
53.3366860067872
 20
1567.145273474395
 10
54.06882001352641
 20
1563.778748094506
 10
56.55807909863597
 20
1558.216658935535
 10
58.75446380753146
 20
1554.264641977667
 10
61.53656264621076
 20
1548.995293218922
 10
63.00083065968919
 20
1545.48239763892
 10
62.85441078284748
 20
1542.554982859343
  0
LWPOLYLINE
  5
979
330
1F
100
AcDbEntity
  8
ceco.net 128
100
AcDbPolyline
 90
        6
 70
     0
 43
0.0
 10
42.61495290370476
 20
1544.108796136612
 10
41.27572517995758
 20
1545.268527507787
 10
39.31803014495471
 20
1545.268527507787
 10
36.81651458396117
 20
1544.290042558472
 10
33.77119580829912
 20
1542.550520944686
 10
33.00985745875095
 20
1541.028436838232
  0
LWPOLYLINE
  5
97A
330
1F
100
AcDbEntity
  8
ceco.net 128
100
AcDbPolyline
 90
        6
 70
     0
 43
0.0
 10
59.33012001025872
 20
1542.115635152456
 10
58.24251358092169
 20
1543.855156766227
 10
55.84976558736798
 20
1543.855156766227
 10
53.56576784993194
 20
1542.876682594467
 10
52.6956792442661
 20
1541.680760137794
 10
51.49930524748924
 20
1540.158676031367
  0
LWPOLYLINE
  5
97B
330
1F
100
AcDbEntity
  8
ceco.net 128
100
AcDbPolyline
 90
        3
 70
     0
 43
0.0
 10
14.41867053347323
 20
1577.840698438351
 10
12.79183110091253
 20
1575.672412693038
 10
12.79183110091253
 20
1573.368598984643
  0
LWPOLYLINE
  5
97C
330
1F
100
AcDbEntity
  8
ceco.net 128
100
AcDbPolyline
 90
        3
 70
     0
 43
0.0
 10
25.26423212782447
 20
1576.214481434974
 10
25.39979775269785
 20
1574.317230060614
 10
24.72195231689511
 20
1572.826530242721
  0
LWPOLYLINE
  5
97D
330
1F
100
AcDbEntity
  8
ceco.net 128
100
AcDbPolyline
 90
        3
 70
     0
 43
0.0
 10
72.17134055406404
 20
1571.3358304248
 10
71.76462636812175
 20
1569.438579050455
 10
72.03575761786851
 20
1567.676834084011
  0
LWPOLYLINE
  5
97E
330
1F
100
AcDbEntity
  8
ceco.net 128
100
AcDbPolyline
 90
        2
 70
     0
 43
0.0
 10
82.06792546297947
 20
1569.709613421423
 10
80.16993746923617
 20
1567.134765342075
  0
LWPOLYLINE
  5
97F
330
1F
100
AcDbEntity
  8
ceco.net 128
100
AcDbPolyline
 90
        5
 70
     0
 43
0.0
 10
83.28805070948419
 20
1567.270282527559
 10
79.35652640867374
 20
1566.592696600139
 10
75.28943648298991
 20
1566.999248156577
 10
70.95121530755932
 20
1567.947879232548
 10
67.42638788125532
 20
1568.896499530936
  0
LWPOLYLINE
  5
980
330
1F
100
AcDbEntity
  8
ceco.net 128
100
AcDbPolyline
 90
        7
 70
     0
 43
0.0
 10
30.55144730001302
 20
1572.013416352234
 10
24.72195231689511
 20
1570.793761682878
 10
20.38373114146452
 20
1570.522716534341
 10
14.14752197229063
 20
1570.929278868362
 10
8.046895739425963
 20
1572.419978686255
 10
2.75968056723741
 20
1573.504116170127
 10
-0.087284111941699
 20
1573.368598984643
  0
LWPOLYLINE
  5
981
330
1F
100
AcDbEntity
  8
ceco.net 128
100
AcDbPolyline
 90
       40
 70
     0
 43
0.0
 10
97.21921472259964
 20
1598.95944701573
 10
95.46536150003248
 20
1602.582726484186
 10
92.77608642332779
 20
1605.855368437744
 10
91.48991816061879
 20
1612.400652344831
 10
89.26836266675763
 20
1616.49145209239
 10
83.53906610477679
 20
1624.088659321799
 10
80.96672957947248
 20
1627.127535747035
 10
72.08045566960663
 20
1633.906585182458
 10
63.07727783109839
 20
1638.114267694177
 10
57.81568354052524
 20
1639.516828531412
 10
54.07409999259016
 20
1640.101220797077
 10
52.9048529698457
 20
1640.919389368633
 10
49.74789293328285
 20
1643.841383029709
 10
47.52632012798585
 20
1645.828346910178
 10
45.53860711394008
 20
1643.256990764029
 10
36.30156948406693
 20
1642.672587720795
 10
26.94762792566507
 20
1641.737547162634
 10
17.12596678441968
 20
1639.16618023893
 10
9.87664216847861
 20
1634.958497727211
 10
0.4638418276954326
 20
1625.729921815178
 10
-7.487027539582413
 20
1621.171601788546
 10
-15.08711587541711
 20
1615.21071014711
 10
-19.17946314335949
 20
1611.938068193566
 10
-23.15490648265949
 20
1592.886619515496
 10
-28.29957953326811
 20
1581.43237806685
 10
-31.59653691488983
 20
1569.480945684475
 10
-33.35040744889283
 20
1563.636947584768
 10
-34.5196544715236
 20
1561.065580661065
 10
-37.20891223679245
 20
1558.727979265668
 10
-38.37815925942322
 20
1558.26045898658
 10
-40.01510855346168
 20
1558.844862029829
 10
-42.82128755869507
 20
1560.130540102903
 10
-45.97824759537161
 20
1563.636947584768
 10
-49.95369093467161
 20
1565.857666216004
 10
-53.69527448260669
 20
1566.792706774165
 10
-57.67070051058453
 20
1566.442069259253
 10
-60.82766054714738
 20
1564.338222614594
 10
-62.23075004982092
 20
1560.013657338729
 10
-62.46460984118584
 20
1554.403413989803
 10
-61.06150302707646
 20
1544.585498906698
  0
LWPOLYLINE
  5
982
330
1F
100
AcDbEntity
  8
ceco.net 128
100
AcDbPolyline
 90
        7
 70
     0
 43
0.0
 10
-40.24895103339076
 20
1531.102034719296
 10
-38.26123801945868
 20
1521.751629137725
 10
-34.98735674281761
 20
1511.81683129046
 10
-30.54422844354576
 20
1499.310666519491
 10
-25.98416159287353
 20
1490.544653203585
 10
-22.00873556500937
 20
1485.518812897893
 10
-19.35998649105385
 20
1482.777117232373
  0
LWPOLYLINE
  5
983
330
1F
100
AcDbEntity
  8
ceco.net 128
100
AcDbPolyline
 90
        6
 70
     0
 43
0.0
 10
-53.227572211199
 20
1564.529740062198
 10
-55.91682997646785
 20
1564.412857298037
 10
-57.90454299051361
 20
1562.425893417554
 10
-59.54149228455207
 20
1559.15325146401
 10
-60.12611579581061
 20
1555.763737523861
 10
-60.5938180672183
 20
1553.543008115056
  0
LWPOLYLINE
  5
984
330
1F
100
AcDbEntity
  8
ceco.net 128
100
AcDbPolyline
 90
        4
 70
     0
 43
0.0
 10
-49.48598866337761
 20
1560.088292022172
 10
-48.66752267196261
 20
1556.698778082022
 10
-46.67979234670838
 20
1553.426136128479
 10
-45.97824759537161
 20
1549.569091131687
  0
LWPOLYLINE
  5
985
330
1F
100
AcDbEntity
  8
ceco.net 128
100
AcDbPolyline
 90
        5
 70
     0
 43
0.0
 10
-48.43366288059769
 20
1548.984688088438
 10
-50.30445465456523
 20
1547.815892779539
 10
-52.99371241983408
 20
1545.712046134894
 10
-53.69527448260669
 20
1542.90692446041
 10
-52.64294869994046
 20
1538.81612471288
  0
LWPOLYLINE
  5
986
330
1F
100
AcDbEntity
  8
ceco.net 128
100
AcDbPolyline
 90
        7
 70
     0
 43
0.0
 10
-44.22437706136861
 20
1545.59516337072
 10
-43.28898983010276
 20
1542.556286945498
 10
-43.63977086143222
 20
1540.218685550115
 10
-42.93820879865961
 20
1537.062926360718
 10
-43.28898983010276
 20
1534.37467667284
 10
-43.63977086143222
 20
1532.037075277457
 10
-43.52283231003184
 20
1529.933239410382
  0
LWPOLYLINE
  5
987
330
1F
100
AcDbEntity
  8
ceco.net 128
100
AcDbPolyline
 90
        9
 70
     0
 43
0.0
 10
-37.33876509750189
 20
1513.451541020288
 10
-41.12013025769556
 20
1512.547647644083
 10
-44.81930085955809
 20
1512.958510229196
 10
-48.18965860499702
 20
1514.684128775584
 10
-52.05323563507135
 20
1517.888861250384
 10
-53.53291080041344
 20
1522.244002496933
 10
-55.91681266514569
 20
1528.817814636113
 10
-57.39648783048778
 20
1533.419471278193
 10
-61.06150302707646
 20
1544.585498906698
  0
ELLIPSE
  5
988
330
1F
100
AcDbEntity
  8
ceco.net 128
100
AcDbEllipse
 10
-44.83450027578328
 20
1518.976824772622
 30
0.0
 11
-0.7620308058769629
 21
4.782030080632975
 31
0.0
210
0.0
220
0.0
230
-1.0
 40
0.6389275931109855
 41
0.0
 42
6.283185307179586
  0
LWPOLYLINE
  5
989
330
1F
100
AcDbEntity
  8
ceco.net 128
100
AcDbPolyline
 90
       12
 70
     0
 43
0.0
 10
103.3355770240405
 20
1553.609904502081
 10
106.3677564420686
 20
1545.599301958219
 10
106.3677564420686
 20
1538.671209484945
 10
107.4506887915731
 20
1530.660606941083
 10
106.8009397687319
 20
1526.547055739854
 10
104.8516753887724
 20
1522.433504538639
 10
103.5521600316542
 20
1518.103453478815
 10
102.4692276821497
 20
1514.639401853372
 10
100.7365463098039
 20
1507.061809804298
 10
98.78728192984453
 20
1501.21622740157
 10
94.45558715469815
 20
1496.669676483151
 10
91.20680741762043
 20
1495.803666271172
  0
LWPOLYLINE
  5
98A
330
1F
100
AcDbEntity
  8
ceco.net 128
100
AcDbPolyline
 90
       44
 70
     0
 43
0.0
 10
107.6663369832431
 20
1535.493000613868
 10
109.3990183555888
 20
1541.555072097622
 10
111.3482827355483
 20
1546.534644288399
 10
112.8643811002802
 20
1553.895736478878
 10
113.9472961383489
 20
1559.308308386832
 10
117.1960758754266
 20
1570.782951778539
 10
115.2468114954672
 20
1582.041095311666
 10
113.9472961383489
 20
1592.649739268978
 10
111.7814487507757
 20
1602.392362236756
 10
105.9336556108974
 20
1614.300016123223
 10
100.7356114938602
 20
1626.4241698683
 10
91.85562162451788
 20
1638.981334108152
 10
85.57466246929834
 20
1650.022977782668
 10
78.21077096468798
 20
1658.466590821291
 10
73.87907618954159
 20
1664.528662305031
 10
67.38151671538616
 20
1668.425713647664
 10
57.41861180797513
 20
1673.405275060858
 10
48.32203893101905
 20
1675.786805838157
 10
41.39131344163615
 20
1678.817846968826
 10
26.01378140957422
 20
1678.168336615442
 10
19.94940526196842
 20
1675.137306262357
 10
10.85283238501233
 20
1673.188775202262
 10
-2.575452578525982
 20
1664.74516216364
 10
-12.97152350116448
 20
1658.033580326517
 10
-22.93444572001135
 20
1649.373467429299
 10
-30.94808624746292
 20
1640.063844178726
 10
-37.22904540268245
 20
1632.486252129638
 10
-39.17830978252823
 20
1620.795098101751
 10
-42.8602555349471
 20
1611.268974992569
 10
-48.70806598626131
 20
1600.010831459456
 10
-59.75390324317686
 20
1591.783729057013
 10
-65.16853036782777
 20
1586.80415686625
 10
-67.76754377062843
 20
1575.979023827912
 10
-69.06705912774668
 20
1562.122838881322
 10
-67.11779474778722
 20
1554.545246832248
 10
-71.66607253054735
 20
1548.48316457091
 10
-78.59679801993024
 20
1545.235623581661
 10
-84.01142514458115
 20
1543.070592662957
 10
-86.39385553976808
 20
1537.225021037798
 10
-81.62897743795838
 20
1539.390051956502
 10
-75.99776730569374
 20
1541.771582733787
 10
-71.44948952293361
 20
1540.905572521836
 10
-67.98412677824217
 20
1546.101633793611
 10
-63.00266566881873
 20
1549.132674924294
  0
LWPOLYLINE
  5
98B
330
1F
100
AcDbEntity
  8
ceco.net 128
100
AcDbPolyline
 90
       10
 70
     0
 43
0.0
 10
-36.83850007041655
 20
1510.94140148092
 10
-35.53900202462045
 20
1505.528840350521
 10
-34.45606967522962
 20
1491.456155545336
 10
-36.62191706280282
 20
1463.743796429767
 10
-39.73156502524943
 20
1452.15664596796
 10
-43.98823216433811
 20
1446.381936876178
 10
-51.28538819656114
 20
1441.822948640123
 10
-69.9843213163831
 20
1436.504130827629
 10
-101.6053019371838
 20
1429.057788045682
 10
-116.3516254629257
 20
1424.346836049835
  0
LWPOLYLINE
  5
98C
330
1F
100
AcDbEntity
  8
ceco.net 128
100
AcDbPolyline
 90
       35
 70
     0
 43
0.0
 10
-125.4730575196845
 20
1422.979140656778
 10
-137.3309382361185
 20
1422.67520235967
 10
-144.7801057295237
 20
1423.13110441654
 10
-154.8136757985503
 20
1420.699641149965
 10
-168.49583253952
 20
1413.557236665099
 10
-176.490551699544
 20
1407.5644434117
 10
-186.9802080861973
 20
1396.622880267202
 10
-194.4293755796024
 20
1382.945915559005
 10
-201.8785430730076
 20
1364.406035095214
 10
-208.7196300991536
 20
1345.410263352107
 10
-214.9778420659913
 20
1320.549638908232
 10
-219.2345265165158
 20
1293.043756509646
 10
-225.4674984526445
 20
1267.969326600066
 10
-236.7411884428065
 20
1224.711915510724
 10
-242.5180913728581
 20
1198.421753967863
 10
-248.2949943027961
 20
1173.9552006525
 10
-252.703690214389
 20
1154.807454372047
 10
-253.4559054527107
 20
1143.812165033068
 10
-254.0640032314058
 20
1136.061894731568
 10
-255.128170016178
 20
1125.880161163493
 10
-254.6720836986651
 20
1118.737745901057
 10
-253.6079169138929
 20
1113.115000569038
 10
-249.9593475533856
 20
1106.428487363487
 10
-244.6385136295248
 20
1100.349829197028
 10
-239.6217199393504
 20
1095.942815498304
 10
-225.3211824443042
 20
1088.278086782707
 10
-215.439623836346
 20
1083.111232730004
 10
-198.4129552799913
 20
1073.689328738339
 10
-179.4099646152744
 20
1066.394949716155
 10
-163.5994743047604
 20
1063.963497227135
 10
-148.3795106953493
 20
1061.71882005421
 10
-139.5413624956063
 20
1059.996790439157
 10
-135.7214967671325
 20
1058.948585379056
 10
-129.8793298343525
 20
1059.547559699112
 10
-126.5088509090901
 20
1060.296266821623
  0
LWPOLYLINE
  5
98D
330
1F
100
AcDbEntity
  8
ceco.net 128
100
AcDbPolyline
 90
       34
 70
     0
 43
0.0
 10
-94.98187122585477
 20
1087.203929330144
 10
-93.36810190529831
 20
1081.154564603338
 10
-92.15775760344513
 20
1079.406970588422
 10
-88.84935738217336
 20
1076.94332549299
 10
-85.40400662343472
 20
1076.01607711912
 10
-80.72684541866692
 20
1076.180639860098
 10
-76.4234547932574
 20
1080.482410572017
 10
-75.46551079929031
 20
1084.559932351325
 10
-75.99556875709367
 20
1089.527293553444
 10
-78.70963376797135
 20
1093.52215135847
 10
-81.53373007905884
 20
1098.092779371881
 10
-82.47510705700733
 20
1100.109230688303
 10
-85.16472836174671
 20
1105.755309462864
 10
-88.79572664454826
 20
1109.384926143434
 10
-93.77154423543743
 20
1112.342388792683
 10
-98.74734451489075
 20
1114.62770818818
 10
-105.2024564201019
 20
1115.568719521007
 10
-110.0437816934345
 20
1114.896565489686
 10
-118.6505802555757
 20
1113.417828776263
 10
-132.0987214024853
 20
1113.821125506106
 10
-149.9847454924747
 20
1116.10643412402
 10
-164.9121636422705
 20
1120.81149078817
 10
-169.619013909255
 20
1124.441118246338
 10
-172.5776025380127
 20
1127.936295498571
 10
-176.343075826935
 20
1133.582374273146
 10
-179.9740741097366
 20
1138.018573635804
 10
-184.5464493704866
 20
1141.91704761788
 10
-191.8084286246539
 20
1146.218818329785
 10
-200.14627717444
 20
1149.714006359616
 10
-209.1648621648118
 20
1152.293618125611
 10
-216.695826054206
 20
1153.100200807699
 10
-226.512968918314
 20
1152.024760824104
 10
-236.0611444585174
 20
1149.739452206205
 10
-240.4990274015972
 20
1148.126286842043
  0
LWPOLYLINE
  5
98E
330
1F
100
AcDbEntity
  8
ceco.net 128
100
AcDbPolyline
 90
       20
 70
     0
 43
0.0
 10
-79.63968908597962
 20
1085.354713592494
 10
-81.62738478858955
 20
1085.222257237333
 10
-83.28379210354341
 20
1084.626171306467
 10
-84.34390801926383
 20
1082.837924291425
 10
-85.13898630019411
 20
1080.917210143667
 10
-85.13898630019411
 20
1079.460114794045
 10
-85.13898630019411
 20
1078.003030222021
 10
-86.6628747978666
 20
1078.599105375317
 10
-88.91560813503929
 20
1080.254896035214
 10
-90.10822555660524
 20
1083.036619601714
 10
-89.64443566310364
 20
1086.149494833648
 10
-88.25304867139038
 20
1088.931207622565
 10
-87.78924146645294
 20
1089.527293553444
 10
-86.33160372176007
 20
1090.12337948431
 10
-84.60892834239075
 20
1090.189607661898
 10
-83.6813312440654
 20
1090.189607661898
 10
-82.09117468197746
 20
1089.063674755294
 10
-81.09732683078618
 20
1087.805274715961
 10
-79.70593983895923
 20
1086.083255878506
 10
-79.63968908597962
 20
1085.354713592494
  0
LWPOLYLINE
  5
98F
330
1F
100
AcDbEntity
  8
ceco.net 128
100
AcDbPolyline
 90
       20
 70
     0
 43
0.0
 10
-45.59869500621971
 20
1071.399418097342
 10
-50.93367234928791
 20
1069.702564889581
 10
-55.54115514257773
 20
1067.642108748273
 10
-59.2998942943268
 20
1065.824050970149
 10
-60.99738157718093
 20
1063.521185688045
 10
-61.60364434674647
 20
1061.703127909922
 10
-62.69488617135721
 20
1061.581923339559
 10
-72.03110084947184
 20
1061.824332480313
 10
-75.78984000133459
 20
1059.642671768614
 10
-78.82106729209681
 20
1057.582215627292
 10
-79.184831878365
 20
1059.76387633899
 10
-85.61105104604394
 20
1062.551559902601
 10
-89.00604292296065
 20
1065.218038895807
 10
-92.40103479999106
 20
1068.732939104108
 10
-94.70476754086121
 20
1073.217465097911
 10
-97.25101577646455
 20
1080.732083796035
 10
-98.09975941789161
 20
1085.580223500954
 10
-101.2522531116246
 20
1088.004293353421
 10
-107.3147250043575
 20
1094.549286266072
 10
-109.6184577453414
 20
1096.00373033308
  0
LWPOLYLINE
  5
990
330
1F
100
AcDbEntity
  8
ceco.net 128
100
AcDbPolyline
 90
        3
 70
     0
 43
0.0
 10
-93.61352571625047
 20
1080.732083796035
 10
-95.79600936558563
 20
1081.944118722276
 10
-97.85726123459426
 20
1082.550141574174
  0
LWPOLYLINE
  5
991
330
1F
100
AcDbEntity
  8
ceco.net 128
100
AcDbPolyline
 90
        6
 70
     0
 43
0.0
 10
-45.59869500621971
 20
1071.399418097342
 10
-43.29494495391372
 20
1071.641816460541
 10
-40.8699631213949
 20
1071.278213526966
 10
-39.17245852721862
 20
1071.520622667719
 10
-37.68604922470331
 20
1069.245466522261
 10
-37.237251009401
 20
1066.329368192867
  0
LWPOLYLINE
  5
992
330
1F
100
AcDbEntity
  8
ceco.net 128
100
AcDbPolyline
 90
        9
 70
     0
 43
0.0
 10
-37.237251009401
 20
1066.329368192867
 10
-40.74871402974622
 20
1059.521467198223
 10
-43.17369586226504
 20
1056.006566989921
 10
-51.29741962412026
 20
1050.309995292352
 10
-71.78860266628817
 20
1039.280476385897
 10
-80.15482461132705
 20
1040.128908378548
 10
-92.88603116647209
 20
1045.098252653858
 10
-106.5872304546928
 20
1053.946110848599
 10
-109.7397241483122
 20
1056.976192775394
  0
LWPOLYLINE
  5
993
330
1F
100
AcDbEntity
  8
ceco.net 128
100
AcDbPolyline
 90
        6
 70
     0
 43
0.0
 10
-41.71870676270827
 20
1070.187383171116
 10
-44.14370590666294
 20
1067.278495037129
 10
-44.87120045644132
 20
1064.854425184662
 10
-46.20494046434941
 20
1062.551559902601
 10
-45.84119318951707
 20
1060.491092983695
 10
-44.14370590666294
 20
1057.824613990476
  0
LWPOLYLINE
  5
994
330
1F
100
AcDbEntity
  8
ceco.net 128
100
AcDbPolyline
 90
       19
 70
     0
 43
0.0
 10
-35.17123850349435
 20
1060.612297554087
 10
-32.38249208459365
 20
1060.85470669484
 10
-28.98750020756324
 20
1060.248694620511
 10
-27.77500929130383
 20
1059.76387633899
 10
-26.32002019186074
 20
1058.551841412764
 10
-26.19877110021207
 20
1056.006566989921
 10
-30.44248930712001
 20
1051.037222714612
 10
-37.35372215271581
 20
1044.977048083467
 10
-48.14494324182305
 20
1036.492792822286
 10
-58.20865246971607
 20
1028.250957479442
 10
-62.93738435465456
 20
1025.584478486223
 10
-71.30360629969345
 20
1024.008829848853
 10
-88.15729928153359
 20
1026.069296767758
 10
-106.1022340880981
 20
1031.523448546991
 10
-115.3171996746777
 20
1040.128908378548
 10
-119.0759388265405
 20
1044.855843513105
 10
-121.5009206590593
 20
1053.097678855948
 10
-127.0783961853112
 20
1061.581923339559
 10
-129.6246444209145
 20
1064.127197762388
  0
LWPOLYLINE
  5
995
330
1F
100
AcDbEntity
  8
ceco.net 128
100
AcDbPolyline
 90
        6
 70
     0
 43
0.0
 10
-28.62375293273089
 20
1059.036648916716
 10
-34.32247755063144
 20
1054.309713782174
 10
-35.65623486997537
 20
1053.340087996701
 10
-37.59622033601317
 20
1050.794813573858
 10
-37.59622033601317
 20
1048.855562002927
 10
-36.74747669458611
 20
1047.158708795166
  0
LWPOLYLINE
  5
996
330
1F
100
AcDbEntity
  8
ceco.net 128
100
AcDbPolyline
 90
        3
 70
     0
 43
0.0
 10
-35.17123850349435
 20
1060.612297554087
 10
-37.01222003530801
 20
1060.381732964515
 10
-41.04524514184504
 20
1059.091658919456
  0
LWPOLYLINE
  5
997
330
1F
100
AcDbEntity
  8
ceco.net 128
100
AcDbPolyline
 90
        9
 70
     0
 43
0.0
 10
-48.94653061171538
 20
1070.803127392607
 10
-49.10527620995708
 20
1075.88096948136
 10
-50.6926975698434
 20
1080.324077267405
 10
-53.55006640422743
 20
1078.895930475169
 10
-56.72492643532223
 20
1073.500732012646
 10
-61.32846222783427
 20
1069.374980600357
 10
-67.51943669166848
 20
1065.883963490748
 10
-79.90136830778737
 20
1062.075590007367
 10
-84.48859849488599
 20
1062.064641786975
  0
LWPOLYLINE
  5
998
330
1F
100
AcDbEntity
  8
ceco.net 128
100
AcDbPolyline
 90
       10
 70
     0
 43
0.0
 10
74.76279073523528
 20
1474.832384337759
 10
72.7655892075063
 20
1462.887389034108
 10
68.03663227435663
 20
1436.435369920744
 10
67.33236963214039
 20
1429.158105682262
 10
67.93607031352166
 20
1426.040186546828
 10
70.95455640899217
 20
1422.519962218132
 10
85.14144451987704
 20
1411.456375407809
 10
104.2585173539691
 20
1398.984709643585
 10
119.4705523391803
 20
1390.702576960478
 10
128.0526517623457
 20
1384.724530669672
  0
LWPOLYLINE
  5
999
330
1F
100
AcDbEntity
  8
ceco.net 128
100
AcDbPolyline
 90
       49
 70
     0
 43
0.0
 10
134.9654557078565
 20
1380.7453509867
 10
141.4049007902349
 20
1378.432063792871
 10
149.1523438188551
 20
1377.225126658004
 10
156.296086166094
 20
1375.817036926534
 10
165.3515444523918
 20
1372.799694089394
 10
173.9039332638867
 20
1366.463279520189
 10
183.0600054452133
 20
1359.825136056059
 10
188.7286255270055
 20
1353.63508090937
 10
193.7594414565637
 20
1344.78422654972
 10
196.7779275520342
 20
1334.726424277619
 10
199.9976414375623
 20
1317.628162570599
 10
203.5210493284012
 20
1297.252764662658
 10
205.231520166194
 20
1275.628494088692
 10
206.0364486375192
 20
1255.110584351285
 10
205.9439711035793
 20
1228.098562616807
 10
207.9562836263448
 20
1202.752904339988
 10
209.767385670375
 20
1186.66042717119
 10
215.7429196794282
 20
1152.313050087243
 10
220.9819398957506
 20
1126.669726059986
 10
230.9179775002121
 20
1099.581700890482
 10
238.6861595939535
 20
1079.175392907131
 10
244.4671307044927
 20
1062.922577805437
 10
248.9835208763224
 20
1048.29504205837
 10
254.5129745608392
 20
1028.247260772374
 10
258.696241335997
 20
1007.338858060222
 10
264.3146929616477
 20
977.7387102781602
 10
270.5515772755688
 20
945.0502601274592
 10
276.1589322896043
 20
919.3373668754247
 10
281.59788194057
 20
895.7117766956059
 10
287.3832501483093
 20
871.155510874118
 10
290.0534307435691
 20
863.3259823109682
 10
293.5246447436838
 20
855.6743914551816
 10
294.7713429992973
 20
851.0831567248402
 10
295.1273693869325
 20
843.8764316925926
 10
294.7713429992973
 20
836.0468923518737
 10
294.5043145530235
 20
828.3063326423985
 10
294.9493561931149
 20
822.4341835256439
 10
297.1744951481696
 20
812.5582958848553
 10
299.483629047927
 20
799.7863023100109
 10
300.3736950169013
 20
791.9567737468469
 10
301.7087853145312
 20
787.2412628382221
 10
303.5778978820644
 20
783.3264931678769
 10
304.8239729270108
 20
775.9418196506828
 10
304.8239729270108
 20
771.1373398883836
 10
305.8030368371191
 20
767.3115390716986
 10
307.8501799097921
 20
762.151173117104
 10
308.559549416941
 20
756.3301851328105
 10
305.3553465517779
 20
749.6572947777764
 10
304.1092541952821
 20
744.7638353842194
  0
LWPOLYLINE
  5
99A
330
1F
100
AcDbEntity
  8
ceco.net 128
100
AcDbPolyline
 90
       40
 70
     0
 43
0.0
 10
125.94872303805
 20
1186.797065224127
 10
130.6599530909124
 20
1166.72588583016
 10
138.1754752056849
 20
1145.309169730367
 10
146.8115300450563
 20
1117.657466787818
 10
153.2053422595254
 20
1092.316216537781
 10
157.1313615331746
 20
1071.90865835615
 10
163.2023679493386
 20
1049.633185350074
 10
170.6057121496087
 20
1030.795445139574
 10
179.5794779083053
 20
1012.518343426862
 10
194.967085179087
 20
982.8477534367436
 10
212.1294059172669
 20
947.4148485621753
 10
224.929892721434
 20
918.750819095436
 10
235.3618848128462
 20
894.4187267635328
 10
246.9156041157702
 20
869.9745045765752
 10
251.8680513077242
 20
858.1421966932509
 10
254.4480048519517
 20
850.5173988804983
 10
255.7940705812598
 20
843.5653694206592
 10
255.9062484958758
 20
833.0252061533656
 10
255.7940705812598
 20
826.5216961138577
 10
255.1210377165489
 20
818.7847684460081
 10
252.5410841724351
 20
812.8419076819
 10
249.0637419343784
 20
805.1049800140503
 10
244.9150114152871
 20
793.4951212088634
 10
243.2324292535668
 20
784.6368949902284
 10
243.9054621182776
 20
773.4239525924664
 10
245.8123827977942
 20
765.1263756492312
 10
247.4949649595146
 20
754.0255523289829
 10
246.4787507708479
 20
743.6621196810477
 10
244.7961686091275
 20
734.3553740420674
 10
243.8987972267341
 20
723.1424316443053
 10
244.9083292123077
 20
717.9844798657626
 10
246.4787507708479
 20
713.3871665850222
 10
253.0969015032269
 20
712.2658788118059
 10
258.4811471093644
 20
714.7327248459873
 10
260.3880851002031
 20
719.5542870593243
 10
262.4071836943357
 20
730.8793593121549
 10
263.3045550767292
 20
738.9526765452245
 10
264.3141043738523
 20
747.2502642660288
 10
264.4262649770325
 20
752.1839563344343
 10
264.3141043738523
 20
755.5478412092782
  0
LWPOLYLINE
  5
99B
330
1F
100
AcDbEntity
  8
ceco.net 128
100
AcDbPolyline
 90
        8
 70
     0
 43
0.0
 10
255.7890329619567
 20
713.1629068748708
 10
257.0229207767624
 20
719.1057676389931
 10
256.798564947644
 20
724.1515895624672
 10
255.0038221827435
 20
726.0577970988322
 10
249.9560756974688
 20
726.9548359394804
 10
246.5909113740281
 20
726.5063165191634
 10
246.0300564239332
 20
723.7030809197193
 10
245.9178785094309
 20
716.863181314963
  0
LWPOLYLINE
  5
99C
330
1F
100
AcDbEntity
  8
ceco.net 128
100
AcDbPolyline
 90
       26
 70
     0
 43
0.0
 10
264.5914504184929
 20
756.6621127833883
 10
271.7902949729023
 20
749.9272945018731
 10
274.189898283339
 20
743.3769882463963
 10
276.2203531601699
 20
733.5976568696906
 10
275.6665958867188
 20
728.9847699979787
 10
274.3744898116347
 20
719.2054386212731
 10
273.8207325381836
 20
715.2383546182932
 10
273.1746881563594
 20
714.5002849589872
 10
269.6675529875847
 20
712.2860975361362
 10
266.3450093472192
 20
708.2267575201512
 10
265.5143734369858
 20
707.1196638087258
 10
260.8074366130495
 20
705.551279254621
 10
256.1004997889995
 20
701.6764512646744
 10
254.4392279687599
 20
699.1854850251968
 10
253.2394263134847
 20
693.9267952847671
 10
253.7008964785627
 20
690.4209913468832
 10
255.2698638788797
 20
689.313897635472
 10
258.407833302499
 20
689.6829324651463
 10
269.4829614594027
 20
693.9267952847671
 10
284.4344078415588
 20
704.1674067265688
 10
289.5105277220864
 20
708.5035255592231
 10
291.725556815777
 20
712.1015855100978
 10
297.2631295498331
 20
723.449301440894
 10
301.6931877371007
 20
735.8118442925274
 10
303.0775809206716
 20
739.8711950860956
 10
304.1092541952821
 20
744.7638353842194
  0
LWPOLYLINE
  5
99D
330
1F
100
AcDbEntity
  8
ceco.net 128
100
AcDbPolyline
 90
       14
 70
     0
 43
0.0
 10
274.0053240664792
 20
722.9880105982147
 10
272.9900966281775
 20
720.128020306646
 10
267.913994058972
 20
716.8989951854314
 10
265.0529205834573
 20
714.3157729329203
 10
262.2841342164292
 20
713.5777140511834
 10
257.761771609239
 20
712.4706203397721
 10
253.4240178417803
 20
709.6106192706344
 10
251.5781544932451
 20
707.1196638087258
 10
250.5629270549434
 20
704.2596735171713
 10
250.1014742013012
 20
700.3848455271963
 10
250.4706399464566
 20
697.8016232747137
 10
251.7627460215408
 20
696.6022735502832
 10
253.5163049502671
 20
696.1409827075897
 10
253.7446064754931
 20
696.1409827075897
  0
LWPOLYLINE
  5
99E
330
1F
100
AcDbEntity
  8
ceco.net 128
100
AcDbPolyline
 90
        5
 70
     0
 43
0.0
 10
275.6665958867188
 20
733.4131448436522
 10
272.4363393547264
 20
730.4608877614811
 10
269.4829614594027
 20
728.6157351683186
 10
266.3450093472192
 20
726.1247689288552
 10
262.6532999615847
 20
724.2796163356786
  0
LWPOLYLINE
  5
99F
330
1F
100
AcDbEntity
  8
ceco.net 128
100
AcDbPolyline
 90
        6
 70
     0
 43
0.0
 10
271.6057034446066
 20
748.3589099477825
 10
270.8673546428599
 20
744.1150471281616
 10
269.7598400960714
 20
741.624091666253
 10
266.8987666205566
 20
738.7641013746844
 10
264.6837375269797
 20
736.3653911482401
 10
263.4839358717044
 20
735.2582974368289
  0
LWPOLYLINE
  5
9A0
330
1F
100
AcDbEntity
  8
ceco.net 128
100
AcDbPolyline
 90
       57
 70
     0
 43
0.0
 10
124.8912557675794
 20
1186.232094142496
 10
123.0738004372824
 20
1182.987495430296
 10
122.5845800876186
 20
1177.934042986123
 10
122.2584158763311
 20
1176.466913717334
 10
123.0738004372824
 20
1173.369644409092
 10
121.7691955266673
 20
1170.761407412882
 10
119.3230418438133
 20
1167.664127327071
 10
119.1599683940012
 20
1162.121642570866
 10
119.3230418438133
 20
1158.209287076559
 10
117.6922727220244
 20
1151.688705363582
 10
117.039978922321
 20
1147.287317557243
 10
117.5291992720985
 20
1141.255778933896
 10
117.5291992720985
 20
1136.528358808618
 10
116.5507412612214
 20
1132.126971002278
 10
116.7138147111472
 20
1124.465281561896
 10
116.5507412612214
 20
1119.248818347031
 10
114.430751789655
 20
1108.652881146653
 10
114.7568986895066
 20
1103.92546102139
 10
112.9630561176782
 20
1096.263771580993
 10
115.7353567002701
 20
1092.351426864254
 10
112.799982667866
 20
1089.41716832669
 10
120.6276467544284
 20
1082.081511205203
 10
121.6061220767414
 20
1076.702037219689
 10
122.2584158763311
 20
1072.463660184013
 10
125.8461010198743
 20
1069.203369327524
 10
127.4768701417769
 20
1062.030733754298
 10
129.9230065130814
 20
1057.629335170404
 10
133.0332257520012
 20
1046.312712533705
 10
134.5009041125422
 20
1036.694861512501
 10
135.968599784519
 20
1032.619495247502
 10
136.4578201341828
 20
1030.500312118462
 10
130.587072069261
 20
1023.816708857253
 10
115.5840376954984
 20
1010.938566979575
 10
102.701010104738
 20
1003.439899087425
 10
86.23028005899868
 20
996.7563066037996
 10
57.79724689250542
 20
987.0832959710753
 10
31.54193673844929
 20
979.0955849893236
 10
-4.008733174146072
 20
971.9229494161112
 10
-40.3747703363706
 20
967.8475831510979
 10
-70.70698598363378
 20
967.358540061511
 10
-95.60499530539345
 20
968.9788294004983
 10
-113.8695506115254
 20
971.2610340778127
 10
-134.0910392506202
 20
975.6624218841523
 10
-149.257147074195
 20
981.6939605075276
 10
-156.5955908112073
 20
988.0515314497984
 10
-161.3248074154398
 20
991.4748330769498
 10
-162.303265426317
 20
994.2460808438511
 10
-162.4663388762428
 20
998.4844578794991
 10
-162.303265426317
 20
1003.048867234099
 10
-160.5094228546022
 20
1011.036578215836
 10
-160.3463494046764
 20
1018.698256878664
 10
-160.3463494046764
 20
1028.316118677423
 10
-160.3463494046764
 20
1036.629851200516
 10
-158.8786537326996
 20
1044.617562182253
 10
-156.5955908112073
 20
1048.855939217929
 10
-155.9432797001818
 20
1054.561445522381
 10
-157.8231410201169
 20
1063.111589574788
  0
LWPOLYLINE
  5
9A1
330
1F
100
AcDbEntity
  8
ceco.net 128
100
AcDbPolyline
 90
       11
 70
     0
 43
0.0
 10
-155.3163297998025
 20
1115.542971902428
 10
-154.0117075777516
 20
1122.063553615376
 10
-154.3378544776032
 20
1131.844426184827
 10
-154.6640186887771
 20
1136.897878629014
 10
-153.6855606778999
 20
1140.973244893998
 10
-153.6855606778999
 20
1145.211621929675
 10
-154.8270921387029
 20
1151.243149775467
 10
-154.6640186887771
 20
1155.64454835939
 10
-153.3593964667261
 20
1159.393882305465
 10
-153.8486341278257
 20
1167.218571738956
 10
-153.6855606778999
 20
1176.021358129219
  0
LWPOLYLINE
  5
9A2
330
1F
100
AcDbEntity
  8
ceco.net 128
100
AcDbPolyline
 90
       21
 70
     0
 43
0.0
 10
-90.08575535085583
 20
1147.493815829392
 10
-106.0672304240597
 20
1147.167794288052
 10
-121.3964290089961
 20
1150.75410668588
 10
-130.2025511064357
 20
1154.340429861264
 10
-134.9317677107819
 20
1157.274688398842
 10
-140.6394423258916
 20
1162.002108524092
 10
-143.7378898083352
 20
1165.26239938058
 10
-150.2609489842825
 20
1172.761067272731
 10
-154.6640186887771
 20
1179.118638215015
 10
-160.6978402036247
 20
1191.507737003092
 10
-163.6332142361425
 20
1205.689997378883
 10
-163.3070673364045
 20
1225.25174251777
 10
-158.7290658684423
 20
1243.417425695085
 10
-157.2613875080151
 20
1253.035287493872
 10
-159.8705973292453
 20
1268.684677138423
 10
-162.3167510119856
 20
1275.857312711664
 10
-164.7628873834037
 20
1281.399808245439
 10
-166.7198207164801
 20
1287.105314549876
 10
-167.5351879659956
 20
1294.767003990273
 10
-167.5351879659956
 20
1301.450596473912
 10
-167.2090410661439
 20
1304.384855011477
  0
LWPOLYLINE
  5
9A3
330
1F
100
AcDbEntity
  8
ceco.net 128
100
AcDbPolyline
 90
       52
 70
     0
 43
0.0
 10
-158.2729344989957
 20
1246.406505995125
 10
-153.836775814284
 20
1250.91609358725
 10
-144.541416055631
 20
1261.675052335874
 10
-137.3660630800941
 20
1267.869601729913
 10
-135.7352939581915
 20
1268.032623278173
 10
-132.310682264574
 20
1305.688973509575
 10
-133.4522137252633
 20
1309.112275136726
 10
-133.1260668255254
 20
1312.046533674291
 10
-132.310682264574
 20
1314.002706032667
 10
-130.3485555094994
 20
1326.613758130577
 10
-127.0870172658078
 20
1361.172828276181
 10
-124.7932212722844
 20
1385.383187936682
 10
-124.9562947220965
 20
1390.110608061959
 10
-125.282458933384
 20
1390.110608061959
 10
-125.1193854834582
 20
1398.587362133284
 10
-123.6516898114814
 20
1398.750372903975
 10
-123.8147632614072
 20
1409.672342423263
 10
-123.0364770448204
 20
1415.954890689548
 10
-123.0364770448204
 20
1419.247772922588
 10
-123.1971788320151
 20
1420.693433268709
 10
-123.7595918086071
 20
1423.102867178926
 10
-122.7954503310684
 20
1425.512301089128
 10
-117.6533739915157
 20
1426.154816798515
 10
-116.3678635623455
 20
1425.672930016474
 10
-115.805433274204
 20
1424.3878985977
 10
-115.1626780596188
 20
1417.561179963001
 10
-115.4840643225725
 20
1398.76760624098
 10
-114.6002650829132
 20
1397.964461604232
 10
-113.3147546537429
 20
1397.723518213211
 10
-113.3950968916224
 20
1389.611768159767
 10
-114.4395806070406
 20
1388.567680132013
 10
-114.6002650829132
 20
1387.764535495279
 10
-115.805433274204
 20
1378.849640805086
 10
-118.2416328981616
 20
1356.901676645236
 10
-123.3817011146811
 20
1319.650412220539
 10
-124.1526992290573
 20
1313.099319202351
 10
-123.6387062565427
 20
1311.686347230931
 10
-123.7671915162081
 20
1309.502649558197
 10
-124.4097043710326
 20
1306.676694837776
 10
-125.1807197969583
 20
1304.749902139633
 10
-126.4657281953986
 20
1295.244407302519
 10
-128.7817174121528
 20
1275.140862860979
 10
-129.2957276959896
 20
1267.176797871371
 10
-123.3846613652076
 20
1266.406082947625
 10
-113.8755576695302
 20
1263.451670351145
 10
-102.0534250077389
 20
1257.029035209029
 10
-92.67282388316289
 20
1249.707238044635
 10
-80.59368607939632
 20
1239.559475382293
 10
-72.75509849512218
 20
1234.036013039983
 10
-63.18846899557684
 20
1228.594956010255
 10
-47.89680153999142
 20
1219.603271122295
 10
-42.11423778008338
 20
1217.291126351057
  0
LWPOLYLINE
  5
9A4
330
1F
100
AcDbEntity
  8
ceco.net 128
100
AcDbPolyline
 90
        3
 70
     0
 43
0.0
 10
-115.0650590378745
 20
1396.714877618492
 10
-118.9553821910749
 20
1396.952964953044
 10
-123.1632830979378
 20
1396.794243655875
  0
LWPOLYLINE
  5
9A5
330
1F
100
AcDbEntity
  8
ceco.net 128
100
AcDbPolyline
 90
        3
 70
     0
 43
0.0
 10
-115.3826367914234
 20
1389.572095918637
 10
-120.4638808483196
 20
1390.286368699847
 10
-123.7190484945358
 20
1390.445100774584
  0
LWPOLYLINE
  5
9A6
330
1F
100
AcDbEntity
  8
ceco.net 128
100
AcDbPolyline
 90
       13
 70
     1
 43
0.0
 10
-126.6213404289828
 20
1312.057084916901
 10
-126.3404109231487
 20
1311.144407819838
 10
-127.0427519991699
 20
1308.616991833176
 10
-128.0260052695894
 20
1307.493688654048
 10
-129.1497232930396
 20
1307.212868248058
 10
-130.2032262514103
 20
1307.142663146564
 10
-131.0460147689127
 20
1307.914930040624
 10
-131.1864795218298
 20
1309.319053625728
 10
-130.8353176394803
 20
1310.793371534771
 10
-130.0627614984932
 20
1312.829351810947
 10
-128.7283290342884
 20
1313.250593197523
 10
-128.0260052695894
 20
1313.250593197523
 10
-127.323681505004
 20
1312.688941607973
  0
LWPOLYLINE
  5
9A7
330
1F
100
AcDbEntity
  8
ceco.net 128
100
AcDbPolyline
 90
       35
 70
     0
 43
0.0
 10
134.9654557078565
 20
1380.7453509867
 10
132.6544175533399
 20
1377.832335042782
 10
131.6365241583525
 20
1374.858102492098
 10
130.9318287310361
 20
1372.196947619258
 10
130.2271506151555
 20
1368.987904115812
 10
129.9139526474846
 20
1367.187704773854
 10
130.6969302553397
 20
1363.97866127038
 10
130.7752297472006
 20
1361.31750639754
 10
129.1309577281936
 20
1360.378273364034
 10
127.7215668736744
 20
1360.221739913896
 10
126.3904928223382
 20
1355.055963618355
 10
123.8066269003184
 20
1343.94172222143
 10
119.4921396632935
 20
1328.164435134524
 10
113.6197123918236
 20
1304.527108179215
 10
108.6831570710273
 20
1288.765265352424
 10
108.7614565628882
 20
1286.651999110191
 10
109.5444341707434
 20
1284.147377687489
 10
108.839738743427
 20
1281.955833942604
 10
107.8218626598754
 20
1280.703523231252
 10
106.7256697729135
 20
1277.259679552599
 10
102.9673114720708
 20
1263.562550007918
 10
100.3672247619533
 20
1252.466210157465
 10
98.64463593964956
 20
1248.709278023397
 10
98.48803695581409
 20
1245.813312197782
 10
102.6378927164159
 20
1241.821579888522
 10
109.8413940391083
 20
1233.681571042282
 10
118.7839300204132
 20
1222.157695703444
 10
125.5959511948958
 20
1210.025954547944
 10
127.4751216897129
 20
1204.39056712442
 10
128.4930150847003
 20
1199.772679459485
 10
128.1798171170294
 20
1195.624402922519
 10
127.3968221977384
 20
1191.789214840966
 10
126.6921440818578
 20
1188.580171337505
 10
125.9091491625667
 20
1187.562671578916
 10
124.8912557675794
 20
1186.232094142496
  0
LWPOLYLINE
  5
9A8
330
1F
100
AcDbEntity
  8
ceco.net 128
100
AcDbPolyline
 90
       32
 70
     0
 43
0.0
 10
127.3677217233171
 20
1384.493165295168
 10
124.9990538963174
 20
1381.032584047801
 10
122.8126059348824
 20
1374.111432330622
 10
122.083778406818
 20
1371.197263186559
 10
121.9926857854716
 20
1369.46697795166
 10
118.8040978090612
 20
1368.647365185495
 10
118.5307853221502
 20
1366.826009470457
 10
118.5307853221502
 20
1363.91184032638
 10
119.4418154043432
 20
1361.635142988191
 10
118.1663802137791
 20
1356.444276505911
 10
113.1557493843047
 20
1338.230719355465
 10
106.0361218263778
 20
1309.58122883284
 10
102.1187236333389
 20
1291.458731384963
 10
100.4101570503053
 20
1289.911621757227
 10
99.44234555450748
 20
1287.219567586575
 10
99.84114842768576
 20
1283.626907199064
 10
98.56573054855743
 20
1279.984195768975
 10
94.28390993571156
 20
1264.775867465175
 10
91.16879156874801
 20
1254.239982893821
 10
90.4399813521195
 20
1250.415130503441
 10
90.25777879799079
 20
1249.504458034707
 10
84.24500795342737
 20
1250.14192984058
 10
73.4038261449541
 20
1250.324070800857
 10
57.00540584450664
 20
1247.136690216365
 10
30.31239408676356
 20
1236.29962640625
 10
10.77560620035455
 20
1226.360765414497
 10
-5.62283141152875
 20
1218.984272074166
 10
-16.28181066575962
 20
1216.161173410242
 10
-23.11448434841167
 20
1214.613018358065
 10
-31.04040797870766
 20
1214.795159318356
 10
-37.50867655298861
 20
1216.343303592978
 10
-42.11423778008338
 20
1217.291126351057
  0
LWPOLYLINE
  5
9A9
330
1F
100
AcDbEntity
  8
ceco.net 128
100
AcDbPolyline
 90
        6
 70
     0
 43
0.0
 10
134.9654557078565
 20
1380.7453509867
 10
135.0152260017694
 20
1381.539194579119
 10
133.0277380361621
 20
1383.074394990231
 10
130.2272025493493
 20
1384.338679583649
 10
128.7817520349108
 20
1384.970816491559
 10
127.3677217233171
 20
1384.493165295168
  0
LWPOLYLINE
  5
9AA
330
1F
100
AcDbEntity
  8
ceco.net 128
100
AcDbPolyline
 90
       12
 70
     1
 43
0.0
 10
106.2789662378236
 20
1286.603618591215
 10
106.7060040151091
 20
1285.40835356641
 10
106.1081372777152
 20
1283.18857258391
 10
104.9124211143634
 20
1283.10319266157
 10
103.8021194311795
 20
1283.87157962986
 10
102.7772149165002
 20
1285.066844654664
 10
101.8377248817614
 20
1286.262109679455
 10
101.6668959217668
 20
1287.628123771355
 10
102.2647626591606
 20
1288.567259806711
 10
103.7344145199767
 20
1289.196540658153
 10
105.2492664634883
 20
1288.397340612633
 10
106.0227401090969
 20
1287.28662563715
  0
LWPOLYLINE
  5
9AB
330
1F
100
AcDbEntity
  8
ceco.net 128
100
AcDbPolyline
 90
       10
 70
     0
 43
0.0
 10
128.1438440141755
 20
1362.872731536711
 10
126.1577063381764
 20
1362.872731536711
 10
123.6750428988671
 20
1363.567615466579
 10
121.9868172186124
 20
1363.468343254439
 10
121.5895896834808
 20
1364.560305255295
 10
121.4902914554158
 20
1366.347161963617
 10
121.6889052229817
 20
1367.339851752319
 10
124.2708842016782
 20
1368.034735682201
 10
126.0584081101114
 20
1367.836191257907
 10
128.1438440141755
 20
1367.836191257907
  0
LWPOLYLINE
  5
9AC
330
1F
100
AcDbEntity
  8
ceco.net 128
100
AcDbPolyline
 90
        3
 70
     0
 43
0.0
 10
127.7466164789302
 20
1369.126697683071
 10
126.8528631804883
 20
1369.623047966215
 10
125.16463750012
 20
1369.623047966215
  0
LWPOLYLINE
  5
9AD
330
1F
100
AcDbEntity
  8
ceco.net 128
100
AcDbPolyline
 90
        7
 70
     0
 43
0.0
 10
103.9039797474288
 20
1157.681121401992
 10
95.67597207228573
 20
1151.022888544375
 10
89.60292291010318
 20
1148.67292527434
 10
79.41588722178494
 20
1145.735465797997
 10
69.03293834534451
 20
1143.777170258033
 10
56.29913507925721
 20
1143.385502527976
 10
40.62675517036495
 20
1145.343808845524
  0
LWPOLYLINE
  5
9AE
330
1F
100
AcDbEntity
  8
ceco.net 128
100
AcDbPolyline
 90
       16
 70
     0
 43
0.0
 10
136.4578201341828
 20
1030.500312118462
 10
141.2333101283138
 20
1019.411117797986
 10
146.1431885715001
 20
1007.141057288379
 10
149.8840623518162
 20
997.4418679341994
 10
149.2995427089454
 20
995.9227261048084
 10
129.8938021702724
 20
990.5472721535062
 10
87.92594964415911
 20
978.6277844933977
 10
45.41406885505239
 20
965.7378950626451
 10
11.16175443530664
 20
956.1555669174879
 10
-16.31023599543368
 20
951.2475470246783
 10
-39.8075621000089
 20
950.4295401166871
 10
-70.20209881102346
 20
951.3643974561318
 10
-92.50912722256998
 20
954.5175592507604
 10
-112.6162740213203
 20
961.0615929595525
 10
-137.3995260289575
 20
973.4485039006131
 10
-149.257147074195
 20
981.6939605075276
  0
LWPOLYLINE
  5
9AF
330
1F
100
AcDbEntity
  8
ceco.net 128
100
AcDbPolyline
 90
       10
 70
     0
 43
0.0
 10
-159.6307768721771
 20
990.2485882248726
 10
-161.013738750853
 20
983.9657001627699
 10
-164.2869968167133
 20
976.7205207549949
 10
-165.1053243168689
 20
970.1764870462028
 10
-166.7358164561392
 20
936.2267053567023
 10
-166.13774198197
 20
909.0248690309437
 10
-167.333890930422
 20
885.4100887554494
 10
-170.3242286787371
 20
867.4748192816679
 10
-171.2213403901614
 20
842.963269604823
 10
-168.2309853302967
 20
812.1743880063689
  0
LWPOLYLINE
  5
9B0
330
1F
100
AcDbEntity
  8
ceco.net 128
100
AcDbPolyline
 90
       21
 70
     0
 43
0.0
 10
-168.2309853302967
 20
812.1743880063689
 10
-162.2011973731787
 20
777.4585257488979
 10
-150.518317665842
 20
727.3542204108025
 10
-142.9809658673093
 20
668.2085348020621
 10
-137.3279606741562
 20
614.3369939714347
 10
-132.8249349081715
 20
555.3529396041909
 10
-126.795060393988
 20
523.3313948074425
 10
-124.5338617790139
 20
510.5227682666821
 10
-123.4032538158089
 20
496.2072539954505
 10
-118.1271179436862
 20
481.1382904701986
 10
-115.4890500076817
 20
463.0555407064349
 10
-116.6196406594508
 20
437.4382984024975
 10
-114.7353113655071
 20
414.0814038605924
 10
-110.3352192229749
 20
400.4507611551986
 10
-104.5792630950472
 20
393.5833679652489
 10
-98.63764213150716
 20
389.8712597515441
 10
-91.58196290945852
 20
385.4167277395532
 10
-83.59789026440012
 20
383.5606790214995
 10
-74.12842968983568
 20
382.2614427633084
 10
-45.3486663611784
 20
388.5720234933671
 10
-20.83945391950692
 20
398.0378999772256
  0
LWPOLYLINE
  5
9B1
330
1F
100
AcDbEntity
  8
ceco.net 128
100
AcDbPolyline
 90
        8
 70
     0
 43
0.0
 10
-28.08081528849015
 20
416.0416178083323
 10
-43.86326112023652
 20
409.7310370782878
 10
-61.87382346911363
 20
404.1628693689176
 10
-78.39898057704886
 20
400.0795600336459
 10
-86.94006503992568
 20
399.5227367961575
 10
-97.15223689056529
 20
401.1931849534562
 10
-106.0646683358754
 20
409.1742138408136
 10
-110.8922483522292
 20
418.4544789863053
  0
LWPOLYLINE
  5
9B2
330
1F
100
AcDbEntity
  8
ceco.net 128
100
AcDbPolyline
 90
       30
 70
     0
 43
0.0
 10
-11.92702247431043
 20
381.8902308641867
 10
-17.49729645541719
 20
387.0871758968661
 10
-19.35404867867873
 20
392.6553436062079
 10
-19.72541297243424
 20
398.2235005379948
 10
-21.95351217801544
 20
408.6174013808943
 10
-23.62459956577822
 20
416.412829707454
 10
-24.9243226597855
 20
422.7234104374986
 10
-26.03838091829402
 20
434.9733599984659
 10
-24.73865782428674
 20
446.6664970995282
 10
-19.88081746924308
 20
472.5886153493092
 10
-19.13810619305422
 20
495.6036776522978
 10
-18.2097300814803
 20
516.0202566613918
 10
-14.49620832352138
 20
552.0277031011744
 10
-13.56118463183975
 20
587.0196220779746
 10
-12.26146153783247
 20
623.955082099215
 10
-9.847662873880835
 20
645.6709081440266
 10
-7.422594484296496
 20
688.4597535298553
 10
-6.865565355042235
 20
732.6338186401812
 10
-6.308536225787975
 20
744.14135518046
 10
-8.165288449049512
 20
752.1223840678032
 10
-7.422594484296496
 20
756.7625166405491
 10
-6.308536225787975
 20
761.21704865254
 10
-8.165288449049512
 20
773.0957863143572
 10
-5.194477967279453
 20
775.6942588306969
 10
-4.991692150724702
 20
794.7368267897445
 10
-3.506286909896516
 20
811.0701072411359
 10
0.2072348480623987
 20
821.6496086448188
 10
19.14617330851342
 20
837.4260658587076
 10
46.62619623184127
 20
850.4184392179325
 10
64.26539428684918
 20
855.9865961497195
  0
LWPOLYLINE
  5
9B3
330
1F
100
AcDbEntity
  8
ceco.net 128
100
AcDbPolyline
 90
       14
 70
     0
 43
0.0
 10
-20.59789055226701
 20
827.1085995537106
 10
-25.42547056862076
 20
835.4608403401755
 10
-26.72519366262804
 20
842.8850567675993
 10
-27.0965406449477
 20
855.8774301268385
 10
-30.06735112671776
 20
865.343306610697
 10
-33.03817891992366
 20
872.0250992398632
 10
-38.23708860727492
 20
879.2637043289488
 10
-39.53682901271804
 20
886.5023094180344
 10
-39.9081759950377
 20
892.9985014864314
 10
-39.16548203028469
 20
902.6499785310591
 10
-36.38033638401338
 20
921.0249082612875
 10
-36.38033638401338
 20
930.4907739675911
 10
-37.308712495701
 20
936.8013546976357
 10
-40.27952297747106
 20
944.7823835849646
  0
LWPOLYLINE
  5
9B4
330
1F
100
AcDbEntity
  8
ceco.net 128
100
AcDbPolyline
 90
        6
 70
     0
 43
0.0
 10
-114.3641894315123
 20
955.1762844278641
 10
-115.6639298368418
 20
946.824043641385
 10
-117.3349999131687
 20
938.4718028549201
 10
-118.2633760248563
 20
926.4074646323194
 10
-118.8204051541106
 20
916.5703762493251
 10
-118.4490581716772
 20
912.6726674748226
  0
LWPOLYLINE
  5
9B5
330
1F
100
AcDbEntity
  8
ceco.net 128
100
AcDbPolyline
 90
        7
 70
     0
 43
0.0
 10
-123.2766381881447
 20
960.1876288997459
 10
-124.7620434289729
 20
949.9793393952131
 10
-125.5047373937259
 20
938.843014754056
 10
-126.804477799169
 20
929.933961507686
 10
-127.3615069284232
 20
914.5287161929047
 10
-121.6055508003819
 20
912.8582680356061
 10
-119.9344634126191
 20
912.8582680356061
  0
LWPOLYLINE
  5
9B6
330
1F
100
AcDbEntity
  8
ceco.net 128
100
AcDbPolyline
 90
        8
 70
     0
 43
0.0
 10
-127.7328539107429
 20
945.710418721589
 10
-133.8601570211039
 20
928.634725249509
 10
-135.3455622620458
 20
918.2408244066095
 10
-140.3588071138983
 20
911.0022193175382
 10
-145.1863871303658
 20
907.8469235637101
 10
-154.0988185755622
 20
905.434051608168
 10
-160.226121686037
 20
906.1764754064398
 10
-165.2393665378895
 20
906.733298643914
  0
LWPOLYLINE
  5
9B7
330
1F
100
AcDbEntity
  8
ceco.net 128
100
AcDbPolyline
 90
        5
 70
     0
 43
0.0
 10
46.05973238597016
 20
962.7861121936405
 10
50.14460112624874
 20
952.5778119115386
 10
53.30109375495339
 20
940.699074249693
 10
55.71487510735551
 20
928.634725249509
 10
58.12867377130714
 20
918.426424967393
  0
LWPOLYLINE
  5
9B8
330
1F
100
AcDbEntity
  8
ceco.net 128
100
AcDbPolyline
 90
        4
 70
     0
 43
0.0
 10
69.08353958669977
 20
920.0968731246916
 10
63.69894775241391
 20
940.1422510122188
 10
59.42839686531442
 20
958.1459688433255
 10
58.3143386068059
 20
964.8277614724918
  0
LWPOLYLINE
  5
9B9
330
1F
100
AcDbEntity
  8
ceco.net 128
100
AcDbPolyline
 90
        8
 70
     0
 43
0.0
 10
165.7432323374905
 20
914.3859025914338
 10
144.2048476890249
 20
913.086666333271
 10
106.3269707681229
 20
912.3442425350134
 10
92.77264145339358
 20
914.9427150513389
 10
84.78856880833518
 20
918.8404346033962
 10
82.56046960275398
 20
923.4805671761563
 10
80.14667093880234
 20
930.7191722652419
 10
76.80451347471262
 20
935.1737042772185
  0
LWPOLYLINE
  5
9BA
330
1F
100
AcDbEntity
  8
ceco.net 128
100
AcDbPolyline
 90
       46
 70
     0
 43
0.0
 10
149.9607865057441
 20
999.9499705125458
 10
155.5310604868509
 20
997.3514872186513
 10
159.2445822448098
 20
991.4121183877426
 10
163.3294509849747
 20
978.9765682659776
 10
165.3718853551708
 20
963.3857116128581
 10
165.5575675019917
 20
953.7342345682304
 10
163.7007979674081
 20
949.2797133338228
 10
163.3294509849747
 20
946.4956294791591
 10
166.4859436136794
 20
938.3289892534492
 10
172.6132467240404
 20
919.2116465025321
 10
176.3267684819993
 20
898.9806572766525
 10
177.6281188481334
 20
866.4195441345867
 10
175.9570487718065
 20
843.033269932448
 10
172.8005561432155
 20
817.6053356739174
 10
164.0636623604905
 20
771.6636302654791
 10
154.5942017860397
 20
739.925126054473
 10
144.0106656415309
 20
706.3305515702325
 10
136.7479073741151
 20
680.2106756588841
 10
131.1776333930083
 20
652.369869444783
 10
126.9070825057951
 20
619.1465176372616
 10
123.3792428948845
 20
587.0367907495506
 10
122.0795024894414
 20
574.0444173903398
 10
118.9230271721726
 20
564.5785516840362
 10
115.9525629185509
 20
540.7128479862279
 10
113.1674172722796
 20
529.2053114459349
 10
111.4963298845168
 20
523.2659426150263
 10
111.1249829021971
 20
516.9553618849676
 10
110.9393007552625
 20
504.8910128847978
 10
108.3348342593808
 20
486.4930083737135
 10
109.0368291072536
 20
482.04863961179
 10
107.6328221000721
 20
477.1364272436215
 10
105.7607839048841
 20
467.5459404767536
 10
106.4627960641928
 20
461.9319896431761
 10
107.398806506012
 20
452.5754085130699
 10
105.2927873396356
 20
447.4292905081256
 10
105.0587717455755
 20
442.5170889175262
 10
106.6967943467034
 20
435.9674832042088
 10
105.0587717455755
 20
427.312651317095
 10
106.9308099407635
 20
418.6578086523979
 10
110.9088673025553
 20
407.6638341771428
 10
114.186816759684
 20
388.1582401863568
 10
116.2928532374962
 20
379.0355754705814
 10
111.6127837165095
 20
376.4625164681234
 10
105.5286898769054
 20
381.8425508873701
 10
102.7206585512203
 20
390.4973935520672
 10
100.1466255080458
 20
394.4739402629124
  0
LWPOLYLINE
  5
9BB
330
1F
100
AcDbEntity
  8
ceco.net 128
100
AcDbPolyline
 90
       13
 70
     0
 43
0.0
 10
108.8047350793885
 20
410.8479491574428
 10
104.8266777175967
 20
421.3741015816196
 10
100.6146220732944
 20
426.9880524151972
 10
98.97659947205283
 20
423.2454113410994
 10
100.1466255080458
 20
407.8070573263232
 10
101.0826359499787
 20
380.6729795932994
 10
100.6146220732944
 20
375.7607780027001
 10
97.80659074749564
 20
375.059039537291
 10
75.10825530175679
 20
374.5912067086436
 10
47.2618710811048
 20
377.1642657111016
 10
17.5434486652648
 20
376.9303492967708
 10
-8.66493026558146
 20
380.4390631789829
 10
-11.92702247431043
 20
381.8902308641867
  0
LWPOLYLINE
  5
9BC
330
1F
100
AcDbEntity
  8
ceco.net 128
100
AcDbPolyline
 90
        7
 70
     0
 43
0.0
 10
87.97843782883774
 20
395.1756787283358
 10
67.386156172347
 20
397.9826541451245
 10
50.77191456621221
 20
397.5148213164629
 10
25.73356167135898
 20
399.152225439181
 10
10.52334438372781
 20
399.152225439181
 10
-0.7088155421115517
 20
400.5557131475825
 10
-11.94097546795092
 20
404.0644270297804
  0
LWPOLYLINE
  5
9BD
330
1F
100
AcDbEntity
  8
ceco.net 128
100
AcDbPolyline
 90
       12
 70
     0
 43
0.0
 10
93.26120396963233
 20
375.1944597246392
 10
91.13150279904402
 20
355.3248748077066
 10
81.54789080947466
 20
314.1664604557945
 10
66.28509878021304
 20
259.1702908047324
 10
55.99158063000686
 20
224.0437060706028
 10
38.95404051036166
 20
170.4667917152136
 10
35.7968381140381
 20
159.1135792228897
 10
35.27219862655783
 20
154.3936926201894
 10
35.09731879739774
 20
147.7508932451172
 10
32.29929346457538
 20
141.6325197272527
 10
30.55051248406925
 20
137.0874453361352
 10
30.55051248406925
 20
135.1645217862085
  0
LWPOLYLINE
  5
9BE
330
1F
100
AcDbEntity
  8
ceco.net 128
100
AcDbPolyline
 90
       10
 70
     0
 43
0.0
 10
-23.66135168199434
 20
146.702030753147
 10
-21.56282835449019
 20
162.9594155452025
 10
-19.11456268010169
 20
193.3764601453873
 10
-18.58992319262142
 20
233.2332779509727
 10
-18.42193330321606
 20
283.3245208722559
 10
-18.77169296164993
 20
329.2997121957057
 10
-18.08105439647533
 20
350.3968625195454
 10
-15.632771410651
 20
369.276408930375
 10
-14.40862991773883
 20
379.2406187705523
 10
-14.62711390104232
 20
384.4093577106519
  0
LWPOLYLINE
  5
9BF
330
1F
100
AcDbEntity
  8
ceco.net 128
100
AcDbPolyline
 90
        8
 70
     0
 43
0.0
 10
-97.32268043921976
 20
389.0410719314587
 10
-88.73136283489202
 20
356.3404238258272
 10
-74.06141723504333
 20
314.1323817743426
 10
-59.72149629008072
 20
273.0518892651758
 10
-49.0575140393048
 20
239.5762776164218
 10
-43.46144606233792
 20
222.4448317663956
 10
-41.01316307651359
 20
211.6065824233999
 10
-39.61414175444133
 20
202.691235075207
  0
LWPOLYLINE
  5
9C0
330
1F
100
AcDbEntity
  8
ceco.net 128
100
AcDbPolyline
 90
       19
 70
     0
 43
0.0
 10
65.27222569309287
 20
4.919454896267438
 10
66.56730933013932
 20
13.46376278650041
 10
66.56730933013932
 20
33.65940157746649
 10
64.23617263260439
 20
42.72155022864865
 10
57.50172387092788
 20
51.52477849932779
 10
50.76729242068722
 20
58.51557488426806
 10
46.3639976678678
 20
65.24745088876215
 10
39.88857948274926
 20
77.93445253383879
 10
34.96727551123512
 20
96.8355002000294
 10
31.60005113034003
 20
103.8262965849696
 10
36.26235914816788
 20
111.5938541113337
 10
40.92464985467358
 20
120.1381620015382
 10
42.99679059852223
 20
131.2716521413648
 10
41.44269369635367
 20
137.4856981624503
 10
34.44923166955504
 20
136.7089370210265
 10
29.7869236516135
 20
132.5662432661687
 10
22.79347893625072
 20
126.0932876421776
 10
17.09510054649854
 20
121.4327531263421
 10
15.80001690945209
 20
119.1024912572231
  0
LWPOLYLINE
  5
9C1
330
1F
100
AcDbEntity
  8
ceco.net 128
100
AcDbPolyline
 90
        7
 70
     0
 43
0.0
 10
29.26889712136926
 20
132.3073228856941
 10
25.38364621034361
 20
135.4143458962369
 10
18.90822802522507
 20
139.5570396511089
 10
10.36066909614419
 20
142.6640626616517
 10
2.849180539215012
 20
142.1462219007025
 10
-4.144264176261458
 20
140.0748804120581
 10
-12.43280984010652
 20
137.4856981624503
  0
LWPOLYLINE
  5
9C2
330
1F
100
AcDbEntity
  8
ceco.net 128
100
AcDbPolyline
 90
       22
 70
     0
 43
0.0
 10
-3.885250911139337
 20
122.7273442511318
 10
-6.475418185232229
 20
129.4592202556117
 10
-10.61968236138
 20
134.119754771433
 10
-15.80001690956578
 20
137.7446185429249
 10
-21.49839529931796
 20
139.0392096677288
 10
-25.12463294522149
 20
138.7802892872542
 10
-27.71480021931438
 20
135.1554255157623
 10
-29.26889712148295
 20
129.2002998751371
 10
-27.45578695419226
 20
123.5040946149865
 10
-27.9738134844365
 20
120.9149123653929
 10
-31.85906439546215
 20
120.1381620015382
 10
-36.78038567852581
 20
116.2543886271407
 10
-43.25580386364435
 20
106.1565692316577
 10
-50.76729242068722
 20
90.62145417891542
 10
-55.947626968873
 20
68.61339427977952
 10
-56.20664023388144
 20
46.60532360304614
 10
-55.68861370375088
 20
42.72155022864865
 10
-52.06237605773367
 20
41.42695910384475
 10
-41.18366311979571
 20
40.90911834289556
 10
-36.00332857172361
 20
40.39127758194638
 10
-33.1541480325086
 20
36.76642458800927
 10
-31.34103786521791
 20
33.65940157746649
  0
LWPOLYLINE
  5
9C3
330
1F
100
AcDbEntity
  8
ceco.net 128
100
AcDbPolyline
 90
        5
 70
     0
 43
0.0
 10
-31.34103786521791
 20
33.65940157746649
 10
-29.00988385636082
 20
35.2129130827592
 10
-30.30496749340727
 20
25.89184405110245
 10
-31.08200728877363
 20
16.57078579704318
 10
-30.04595422817146
 20
12.4280920421711
  0
LWPOLYLINE
  5
9C4
330
1F
100
AcDbEntity
  8
ceco.net 128
100
AcDbPolyline
 90
       16
 70
     0
 43
0.0
 10
66.04928279989508
 20
7.767557526364043
 10
65.79026953477296
 20
16.052945036094
 10
58.27878097773009
 20
25.37401406773653
 10
53.35745969466643
 20
28.99886706165943
 10
48.95418225339653
 20
31.32913970834749
 10
46.88204150954788
 20
42.98045983155418
 10
42.73777733340011
 20
51.2658581188532
 10
32.63612150226435
 20
55.40855187372528
 10
24.86561968009937
 20
54.37288112941018
 10
21.49839529920427
 20
48.15883510831042
 10
16.05904748601005
 20
40.13235720147179
 10
8.806572194089312
 20
33.14156081651731
 10
-1.036070371924324
 20
29.775628203069
 10
-14.76396384896361
 20
25.63293444821113
 10
-26.41971658226793
 20
21.23132031286445
 10
-31.08200728877363
 20
16.57078579704318
  0
LWPOLYLINE
  5
9C5
330
1F
100
AcDbEntity
  8
ceco.net 128
100
AcDbPolyline
 90
       12
 70
     0
 43
0.0
 10
65.27222569309287
 20
4.919454896267438
 10
56.46565349900356
 20
2.848102630068183
 10
37.03939894353425
 20
-1.553511505292703
 10
0.0
 20
0.0
 10
-53.87548622502436
 20
5.437295657216623
 10
-63.71812879103799
 20
9.579989412102918
 10
-64.75419916296232
 20
13.98160354744959
 10
-62.68205841911367
 20
25.63293444821113
 10
-59.31485134965441
 20
31.32913970834749
 10
-57.24271060580576
 20
36.76642458800927
 10
-56.98369734068364
 20
42.72155022864865
 10
-55.68861370375088
 20
42.72155022864865
  0
LWPOLYLINE
  5
9C6
330
1F
100
AcDbEntity
  8
ceco.net 128
100
AcDbPolyline
 90
        6
 70
     0
 43
0.0
 10
-30.04595422817146
 20
12.4280920421711
 10
-41.18366311979571
 20
15.0172742917789
 10
-46.88204150966157
 20
13.46376278650041
 10
-50.24924857900714
 20
10.61566015643222
 10
-54.91155659694868
 20
11.13350091738141
 10
-64.75419916296232
 20
13.98160354744959
  0
LWPOLYLINE
  5
9C7
330
1F
100
AcDbEntity
  8
ceco.net 128
100
AcDbPolyline
 90
       10
 70
     0
 43
0.0
 10
29.52791038649138
 20
68.09555351883034
 10
17.09510054649854
 20
70.68473576842393
 10
8.029515087287109
 20
73.01500841511199
 10
2.590167273979204
 20
76.1220206480857
 10
0.7770571068022037
 20
84.66632853830446
 10
0.7770571068022037
 20
89.32686305412573
 10
-1.813110167290687
 20
95.54090907522549
 10
-6.216404919996421
 20
101.754955096311
 10
-9.842642566013637
 20
105.8976488511831
 10
-14.50493327251933
 20
109.7814222255806
  0
LWPOLYLINE
  5
9C8
330
1F
100
AcDbEntity
  8
ceco.net 128
100
AcDbPolyline
 90
        6
 70
     0
 43
0.0
 10
31.08200728865995
 20
97.6122505638699
 10
31.60005113034003
 20
92.17496568419392
 10
31.60005113034003
 20
85.18416929925365
 10
31.60005113034003
 20
76.63986140903489
 10
31.08200728865995
 20
70.1669057850438
 10
31.34103786521791
 20
66.28312163307725
  0
LWPOLYLINE
  5
9C9
330
1F
100
AcDbEntity
  8
ceco.net 128
100
AcDbPolyline
 90
        4
 70
     0
 43
0.0
 10
31.60005113034003
 20
75.60419066471979
 10
22.01642182944851
 20
79.22904365864269
 10
9.065585459211433
 20
81.04147554438156
 10
3.367224380781408
 20
80.78255516390697
  0
LWPOLYLINE
  5
9CA
330
1F
100
AcDbEntity
  8
ceco.net 128
100
AcDbPolyline
 90
        4
 70
     0
 43
0.0
 10
31.60005113034003
 20
81.30039592485616
 10
22.01642182944851
 20
84.92524891877906
 10
9.065585459211433
 20
86.73768080451793
 10
3.367224380781408
 20
86.47876042404334
  0
LWPOLYLINE
  5
9CB
330
1F
100
AcDbEntity
  8
ceco.net 128
100
AcDbPolyline
 90
        4
 70
     0
 43
0.0
 10
30.5639807584157
 20
88.80903307074561
 10
20.98035145763788
 20
92.43388606466851
 10
8.029515087287109
 20
94.24631795040738
 10
2.331154008857083
 20
93.98739756993279
  0
LWPOLYLINE
  5
9CC
330
1F
100
AcDbEntity
  8
ceco.net 128
100
AcDbPolyline
 90
        4
 70
     0
 43
0.0
 10
27.1967563776343
 20
96.8355002000294
 10
17.61312707674278
 20
100.460353193938
 10
4.662290706392013
 20
102.2727850796911
 10
-1.036070371924324
 20
102.0138646992165
  0
LWPOLYLINE
  5
9CD
330
1F
100
AcDbEntity
  8
ceco.net 128
100
AcDbPolyline
 90
        5
 70
     0
 43
0.0
 10
-8.25487497809263
 20
113.4570268042409
 10
-15.86902017606917
 20
112.6558436855447
 10
-21.88019837126375
 20
114.2582099229514
 10
-25.08614968837719
 20
116.6617700566092
 10
-28.69286006773563
 20
121.0682879870432
  0
LWPOLYLINE
  5
9CE
330
1F
100
AcDbEntity
  8
ceco.net 128
100
AcDbPolyline
 90
       27
 70
     0
 43
0.0
 10
-21.91179168823964
 20
190.1957077674296
 10
-30.91299602635899
 20
182.8850007242266
 10
-33.16330576660675
 20
175.8554697469065
 10
-36.8200461109609
 20
171.6377425384507
 10
-40.19551072133253
 20
162.6399467673991
 10
-44.4148371564097
 20
159.2657693116734
 10
-50.04059419559325
 20
160.6716711960984
 10
-54.2599206307841
 20
166.8576631982858
 10
-55.10378245548963
 20
171.9189293818885
 10
-57.6353679297199
 20
180.0731861777933
 10
-58.76052279984378
 20
185.6968044931193
 10
-62.69855618961628
 20
179.5108232685151
 10
-65.79272775456956
 20
170.7942035633038
 10
-69.1681923649412
 20
162.9211228332678
 10
-71.69977783917147
 20
147.1749721507507
 10
-76.20038000823114
 20
125.2428294660319
 10
-84.35773983308081
 20
108.3719529649442
 10
-94.48411635275988
 20
96.28115580400731
 10
-102.0788900867728
 20
88.40808585152615
 10
-104.6104928724389
 20
80.2538290556356
 10
-106.2982165219636
 20
71.81838541629304
 10
-106.2982165219636
 20
59.72758825537027
 10
-105.4543546971444
 20
50.72979248431863
 10
-102.922751911592
 20
48.19915400371144
 10
-92.23380661251212
 20
46.51206527586282
 10
-64.66757288444568
 20
44.54380048213124
 10
-55.66635123489049
 20
43.98143757285311
  0
LWPOLYLINE
  5
9CF
330
1F
100
AcDbEntity
  8
ceco.net 128
100
AcDbPolyline
 90
        9
 70
     0
 43
0.0
 10
-59.60438462454931
 20
51.85451830288911
 10
-66.35529653385674
 20
52.41688121218146
 10
-72.543639663877
 20
58.88404928020918
 10
-76.4816730536495
 20
63.10176571109593
 10
-92.23380661251212
 20
62.82058964524139
 10
-96.17184000228462
 20
58.88404928020918
 10
-96.45313304758929
 20
51.29215539359677
 10
-101.2350282620673
 20
49.60506666573394
 10
-105.1730616518398
 20
50.16742957502628
  0
LWPOLYLINE
  5
9D0
330
1F
100
AcDbEntity
  8
ceco.net 128
100
AcDbPolyline
 90
       13
 70
     0
 43
0.0
 10
-57.6353679297199
 20
94.87525391956808
 10
-71.69977783917147
 20
91.50107646384242
 10
-75.63781122883028
 20
92.6258022824129
 10
-77.88812096907804
 20
97.96824453187014
 10
-76.20038000823114
 20
104.1542365340575
 10
-71.98107088447613
 20
113.4332191485469
 10
-69.1681923649412
 20
121.0251130351451
 10
-65.51143470915121
 20
135.3653618332373
 10
-64.94886592975035
 20
148.8620608786135
 10
-65.2301589751687
 20
156.4539547652259
 10
-63.54241801432181
 20
159.546945377528
 10
-57.6353679297199
 20
162.0775838581067
 10
-54.82248941007128
 20
163.2023096767056
  0
LWPOLYLINE
  5
9D1
330
1F
100
AcDbEntity
  8
ceco.net 128
100
AcDbPolyline
 90
        7
 70
     0
 43
0.0
 10
-22.19306742222215
 20
193.2887091573007
 10
-28.10011750671037
 20
198.3499645633202
 10
-35.13232246143616
 20
201.72414201906
 10
-41.03937254603806
 20
202.567691771776
 10
-47.79028445534549
 20
196.6628758354573
 10
-57.07279915031904
 20
187.9462561302602
 10
-58.76052279984378
 20
185.6968044931193
  0
LWPOLYLINE
  5
9D2
330
1F
100
AcDbEntity
  8
ceco.net 128
100
AcDbPolyline
 90
        5
 70
     0
 43
0.0
 10
-36.53877037697839
 20
141.8325299012934
 10
-41.88323437074359
 20
121.3062891010281
 10
-44.97740593581056
 20
111.4649435772463
 10
-52.00961089053635
 20
99.93652010317077
 10
-54.2599206307841
 20
95.99997973815277
  0
LWPOLYLINE
  5
9D3
330
1F
100
AcDbEntity
  8
ceco.net 128
100
AcDbPolyline
 90
        4
 70
     0
 43
0.0
 10
-58.19795402044292
 20
103.0295107154728
 10
-65.51143470915121
 20
103.8730496906197
 10
-73.10622575460001
 20
103.3106867813415
 10
-76.20038000823114
 20
102.1859609627568
  0
LWPOLYLINE
  5
9D4
330
1F
100
AcDbEntity
  8
ceco.net 128
100
AcDbPolyline
 90
        4
 70
     0
 43
0.0
 10
-53.21360190612267
 20
112.1071359594765
 10
-60.52708259483097
 20
112.9506749346234
 10
-68.12187364027977
 20
112.388312025331
 10
-71.2160278939109
 20
111.2635862067605
  0
LWPOLYLINE
  5
9D5
330
1F
100
AcDbEntity
  8
ceco.net 128
100
AcDbPolyline
 90
        4
 70
     0
 43
0.0
 10
-45.02016511003148
 20
126.9862525607408
 10
-52.33364579873978
 20
127.8297915358876
 10
-59.92843684418858
 20
127.2674286265953
 10
-63.02259109770602
 20
126.1427028080248
  0
LWPOLYLINE
  5
9D6
330
1F
100
AcDbEntity
  8
ceco.net 128
100
AcDbPolyline
 90
        4
 70
     0
 43
0.0
 10
-43.24491498891802
 20
135.8591147216401
 10
-50.55839567762632
 20
136.702653696787
 10
-58.15318672307512
 20
136.1402907874946
 10
-61.24734097670625
 20
135.0155649689241
  0
LWPOLYLINE
  5
9D7
330
1F
100
AcDbEntity
  8
ceco.net 128
100
AcDbPolyline
 90
        4
 70
     0
 43
0.0
 10
-47.68302298032267
 20
119.4101801492593
 10
-54.99650366891728
 20
120.2537191244061
 10
-62.59129471447977
 20
119.6913562151138
 10
-65.68544896799721
 20
118.5666303965433
  0
LINE
  5
9D8
330
1F
100
AcDbEntity
  8
0
100
AcDbLine
 10
-59.60438462454931
 20
51.85451830288911
 30
0.0
 11
-56.14719343237872
 21
51.65645258259555
 31
0.0
  0
ENDSEC
  0
SECTION
  2
OBJECTS
  0
DICTIONARY
  5
C
330
0
100
AcDbDictionary
281
     1
  3
ACAD_GROUP
350
D
  3
ACAD_LAYOUT
350
1A
  3
ACAD_MLINESTYLE
350
17
  3
ACAD_PLOTSETTINGS
350
19
  3
ACAD_PLOTSTYLENAME
350
E
  3
AcDbVariableDictionary
350
115
  3
DWGPROPS
350
8E3
  0
DICTIONARY
  5
901
330
2
100
AcDbDictionary
280
     1
281
     1
  3
ACAD_LAYERFILTERS
360
9D9
  3
ACAD_LAYERSTATES
360
902
  0
DICTIONARY
  5
8F6
330
8F5
100
AcDbDictionary
280
     1
281
     1
  3
ACAD_XREC_ROUNDTRIP
360
8F7
  0
DICTIONARY
  5
D
102
{ACAD_REACTORS
330
C
102
}
330
C
100
AcDbDictionary
281
     1
  0
DICTIONARY
  5
1A
102
{ACAD_REACTORS
330
C
102
}
330
C
100
AcDbDictionary
281
     1
  3
Layout1
350
1E
  3
Layout2
350
26
  3
Model
350
22
  0
DICTIONARY
  5
17
102
{ACAD_REACTORS
330
C
102
}
330
C
100
AcDbDictionary
281
     1
  3
Standard
350
18
  0
DICTIONARY
  5
19
102
{ACAD_REACTORS
330
C
102
}
330
C
100
AcDbDictionary
281
     1
  0
ACDBDICTIONARYWDFLT
  5
E
102
{ACAD_REACTORS
330
C
102
}
330
C
100
AcDbDictionary
281
     1
  3
Normal
350
F
100
AcDbDictionaryWithDefault
340
F
  0
DICTIONARY
  5
115
102
{ACAD_REACTORS
330
C
102
}
330
C
100
AcDbDictionary
281
     1
  3
DIMASSOC
350
117
  3
HIDETEXT
350
116
  0
XRECORD
  5
8E3
102
{ACAD_REACTORS
330
C
102
}
330
C
100
AcDbXrecord
280
     1
  1
DWGPROPS COOKIE
  2
Ceco.NET-Trees-and-Plants - T - xx . 67 . dwg
  3

  4
ceco.net
  6

  7

  8
peacosta
  9

300
=
301
=
302
=
303
=
304
=
305
=
306
=
307
=
308
=
309
=
 40
0.0450312037037037
 41
2455079.811409143
 42
2455838.656599502
  1

 90
        0
  0
DICTIONARY
  5
9D9
102
{ACAD_REACTORS
330
901
102
}
330
901
100
AcDbDictionary
280
     1
281
     1
  0
DICTIONARY
  5
902
102
{ACAD_REACTORS
330
901
102
}
330
901
100
AcDbDictionary
281
     1
  0
XRECORD
  5
8F7
102
{ACAD_REACTORS
330
8F6
102
}
330
8F6
100
AcDbXrecord
280
     1
102
MATERIAL
340
0
  0
LAYOUT
  5
1E
102
{ACAD_REACTORS
330
1A
102
}
330
1A
100
AcDbPlotSettings
  1

  2
Microsoft Office Document Image Writer
  4

  6

 40
0.0
 41
0.0
 42
0.0
 43
0.0
 44
0.0
 45
0.0
 46
0.0
 47
0.0
 48
0.0
 49
0.0
140
0.0
141
0.0
142
1.0
143
1.0
 70
   688
 72
     0
 73
     0
 74
     5
  7

 75
    16
147
1.0
148
0.0
149
0.0
100
AcDbLayout
  1
Layout1
 70
     1
 71
     1
 10
0.0
 20
0.0
 11
420.0
 21
297.0
 12
0.0
 22
0.0
 32
0.0
 14
1.000000000000000E+20
 24
1.000000000000000E+20
 34
1.000000000000000E+20
 15
-1.000000000000000E+20
 25
-1.000000000000000E+20
 35
-1.000000000000000E+20
146
0.0
 13
0.0
 23
0.0
 33
0.0
 16
1.0
 26
0.0
 36
0.0
 17
0.0
 27
1.0
 37
0.0
 76
     0
330
1B
  0
LAYOUT
  5
26
102
{ACAD_REACTORS
330
1A
102
}
330
1A
100
AcDbPlotSettings
  1

  2
Microsoft Office Document Image Writer
  4

  6

 40
0.0
 41
0.0
 42
0.0
 43
0.0
 44
0.0
 45
0.0
 46
0.0
 47
0.0
 48
0.0
 49
0.0
140
0.0
141
0.0
142
1.0
143
1.0
 70
   688
 72
     0
 73
     0
 74
     5
  7

 75
    16
147
1.0
148
0.0
149
0.0
100
AcDbLayout
  1
Layout2
 70
     1
 71
     2
 10
0.0
 20
0.0
 11
12.0
 21
9.0
 12
0.0
 22
0.0
 32
0.0
 14
0.0
 24
0.0
 34
0.0
 15
0.0
 25
0.0
 35
0.0
146
0.0
 13
0.0
 23
0.0
 33
0.0
 16
1.0
 26
0.0
 36
0.0
 17
0.0
 27
1.0
 37
0.0
 76
     0
330
23
  0
LAYOUT
  5
22
102
{ACAD_REACTORS
330
1A
102
}
330
1A
100
AcDbPlotSettings
  1

  2
Microsoft Office Document Image Writer
  4

  6

 40
0.0
 41
0.0
 42
0.0
 43
0.0
 44
0.0
 45
0.0
 46
0.0
 47
0.0
 48
0.0
 49
0.0
140
0.0
141
0.0
142
1.0
143
1.0
 70
  1712
 72
     0
 73
     0
 74
     0
  7

 75
     0
147
1.0
148
0.0
149
0.0
100
AcDbLayout
  1
Model
 70
     1
 71
     0
 10
0.0
 20
0.0
 11
12.0
 21
9.0
 12
0.0
 22
0.0
 32
0.0
 14
0.0
 24
0.0
 34
0.0
 15
0.0
 25
0.0
 35
0.0
146
0.0
 13
0.0
 23
0.0
 33
0.0
 16
1.0
 26
0.0
 36
0.0
 17
0.0
 27
1.0
 37
0.0
 76
     0
330
1F
  0
MLINESTYLE
  5
18
102
{ACAD_REACTORS
330
17
102
}
330
17
100
AcDbMlineStyle
  2
STANDARD
 70
     0
  3

 62
   256
 51
90.0
 52
90.0
 71
     2
 49
0.5
 62
   256
  6
BYLAYER
 49
-0.5
 62
   256
  6
BYLAYER
  0
ACDBPLACEHOLDER
  5
F
102
{ACAD_REACTORS
330
E
102
}
330
E
  0
DICTIONARYVAR
  5
117
102
{ACAD_REACTORS
330
115
102
}
330
115
100
DictionaryVariables
280
     0
  1
2
  0
DICTIONARYVAR
  5
116
102
{ACAD_REACTORS
330
115
102
}
330
115
100
DictionaryVariables
280
     0
  1
1
  0
ENDSEC
  0
EOF
